<?xml version="1.0" encoding="UTF-8" standalone="no"?>
<!DOCTYPE svg PUBLIC "-//W3C//DTD SVG 1.1//EN"
 "http://www.w3.org/Graphics/SVG/1.1/DTD/svg11.dtd">
<!-- Generated by graphviz version 2.43.0 (0)
 -->
<!-- Title: src/polyfem/assembler/AssemblerUtils.hpp Pages: 1 -->
<svg width="3734pt" height="654pt"
 viewBox="0.00 0.00 3734.43 654.00" xmlns="http://www.w3.org/2000/svg" xmlns:xlink="http://www.w3.org/1999/xlink">
<g id="graph0" class="graph" transform="scale(1 1) rotate(0) translate(4 650)">
<title>src/polyfem/assembler/AssemblerUtils.hpp</title>
<!-- Node1 -->
<g id="node1" class="node">
<title>Node1</title>
<g id="a_node1"><a xlink:title=" ">
<polygon fill="#999999" stroke="#666666" points="2197.43,-646 2069.43,-646 2069.43,-616 2197.43,-616 2197.43,-646"/>
<text text-anchor="start" x="2077.43" y="-634" font-family="Helvetica,sans-Serif" font-size="10.00">src/polyfem/assembler</text>
<text text-anchor="middle" x="2133.43" y="-623" font-family="Helvetica,sans-Serif" font-size="10.00">/AssemblerUtils.hpp</text>
</a>
</g>
</g>
<!-- Node2 -->
<g id="node2" class="node">
<title>Node2</title>
<g id="a_node2"><a xlink:href="_common_8hpp.html" target="_top" xlink:title=" ">
<polygon fill="white" stroke="#666666" points="2286.93,-145.5 2161.93,-145.5 2161.93,-126.5 2286.93,-126.5 2286.93,-145.5"/>
<text text-anchor="middle" x="2224.43" y="-133.5" font-family="Helvetica,sans-Serif" font-size="10.00">polyfem/Common.hpp</text>
</a>
</g>
</g>
<!-- Node1&#45;&gt;Node2 -->
<g id="edge1" class="edge">
<title>Node1&#45;&gt;Node2</title>
<path fill="none" stroke="#63b8ff" d="M2197.63,-630.12C2404.37,-630.03 3051.12,-625.98 3254.43,-580 3372.43,-553.31 3438.25,-571.93 3503.43,-470 3581.19,-348.4 3641.54,-501.58 3261.43,-308 3148.21,-250.34 3125.59,-218.22 3002.43,-187 2870.23,-153.48 2464.02,-141.75 2297.15,-138.28"/>
<polygon fill="#63b8ff" stroke="#63b8ff" points="2297.06,-134.77 2286.99,-138.07 2296.91,-141.77 2297.06,-134.77"/>
</g>
<!-- Node5 -->
<g id="node5" class="node">
<title>Node5</title>
<g id="a_node5"><a xlink:href="_assembler_8hpp.html" target="_top" xlink:title=" ">
<polygon fill="white" stroke="#666666" points="458.93,-525 369.93,-525 369.93,-506 458.93,-506 458.93,-525"/>
<text text-anchor="middle" x="414.43" y="-513" font-family="Helvetica,sans-Serif" font-size="10.00">Assembler.hpp</text>
</a>
</g>
</g>
<!-- Node1&#45;&gt;Node5 -->
<g id="edge4" class="edge">
<title>Node1&#45;&gt;Node5</title>
<path fill="none" stroke="#63b8ff" d="M2069.15,-629.09C1795.98,-625.06 738.8,-607.78 592.43,-580 537.27,-569.53 476.33,-544.69 441.97,-529.36"/>
<polygon fill="#63b8ff" stroke="#63b8ff" points="443.16,-526.06 432.61,-525.13 440.28,-532.44 443.16,-526.06"/>
</g>
<!-- Node14 -->
<g id="node14" class="node">
<title>Node14</title>
<g id="a_node14"><a xlink:title=" ">
<polygon fill="#e0e0e0" stroke="#999999" points="624.93,-79.5 577.93,-79.5 577.93,-60.5 624.93,-60.5 624.93,-79.5"/>
<text text-anchor="middle" x="601.43" y="-67.5" font-family="Helvetica,sans-Serif" font-size="10.00">vector</text>
</a>
</g>
</g>
<!-- Node1&#45;&gt;Node14 -->
<g id="edge199" class="edge">
<title>Node1&#45;&gt;Node14</title>
<path fill="none" stroke="#63b8ff" d="M2069.34,-629.68C1733.33,-627.61 190.43,-612.85 190.43,-516.5 190.43,-516.5 190.43,-516.5 190.43,-454 190.43,-305.04 361.98,-350.82 427.43,-217 446.32,-178.37 411.8,-153.95 439.43,-121 470.93,-83.44 530.02,-73.59 567.46,-71.29"/>
<polygon fill="#63b8ff" stroke="#63b8ff" points="568.04,-74.77 577.87,-70.81 567.72,-67.77 568.04,-74.77"/>
</g>
<!-- Node24 -->
<g id="node22" class="node">
<title>Node24</title>
<g id="a_node22"><a xlink:href="_matrix_utils_8hpp.html" target="_top" xlink:title=" ">
<polygon fill="white" stroke="#666666" points="1208.93,-272 1049.93,-272 1049.93,-253 1208.93,-253 1208.93,-272"/>
<text text-anchor="middle" x="1129.43" y="-260" font-family="Helvetica,sans-Serif" font-size="10.00">polyfem/utils/MatrixUtils.hpp</text>
</a>
</g>
</g>
<!-- Node1&#45;&gt;Node24 -->
<g id="edge198" class="edge">
<title>Node1&#45;&gt;Node24</title>
<path fill="none" stroke="#63b8ff" d="M2069.19,-629.9C1752.36,-629.19 363.93,-623.59 176.43,-580 110.67,-564.71 38.43,-584.01 38.43,-516.5 38.43,-516.5 38.43,-516.5 38.43,-388 38.43,-194.48 274.44,-332.3 466.43,-308 670.49,-282.17 911.91,-270.74 1039.66,-266.17"/>
<polygon fill="#63b8ff" stroke="#63b8ff" points="1039.92,-269.67 1049.79,-265.82 1039.67,-262.67 1039.92,-269.67"/>
</g>
<!-- Node33 -->
<g id="node31" class="node">
<title>Node33</title>
<g id="a_node31"><a xlink:href="_mass_8hpp.html" target="_top" xlink:title=" ">
<polygon fill="white" stroke="#666666" points="2867.93,-525 2804.93,-525 2804.93,-506 2867.93,-506 2867.93,-525"/>
<text text-anchor="middle" x="2836.43" y="-513" font-family="Helvetica,sans-Serif" font-size="10.00">Mass.hpp</text>
</a>
</g>
</g>
<!-- Node1&#45;&gt;Node33 -->
<g id="edge64" class="edge">
<title>Node1&#45;&gt;Node33</title>
<path fill="none" stroke="#63b8ff" d="M2197.5,-620.46C2263.27,-610.6 2368.55,-594.62 2459.43,-580 2581.29,-560.39 2725.03,-535.77 2794.57,-523.76"/>
<polygon fill="#63b8ff" stroke="#63b8ff" points="2795.42,-527.16 2804.68,-522.01 2794.23,-520.26 2795.42,-527.16"/>
</g>
<!-- Node36 -->
<g id="node34" class="node">
<title>Node36</title>
<g id="a_node34"><a xlink:href="_laplacian_8hpp.html" target="_top" xlink:title=" ">
<polygon fill="white" stroke="#666666" points="3062.43,-464.5 2978.43,-464.5 2978.43,-445.5 3062.43,-445.5 3062.43,-464.5"/>
<text text-anchor="middle" x="3020.43" y="-452.5" font-family="Helvetica,sans-Serif" font-size="10.00">Laplacian.hpp</text>
</a>
</g>
</g>
<!-- Node1&#45;&gt;Node36 -->
<g id="edge76" class="edge">
<title>Node1&#45;&gt;Node36</title>
<path fill="none" stroke="#63b8ff" d="M2197.67,-627.94C2328.5,-622.25 2634.05,-601.19 2877.43,-525 2921.91,-511.08 2970.01,-485.45 2997.54,-469.65"/>
<polygon fill="#63b8ff" stroke="#63b8ff" points="2999.5,-472.56 3006.39,-464.51 2995.98,-466.51 2999.5,-472.56"/>
</g>
<!-- Node37 -->
<g id="node35" class="node">
<title>Node37</title>
<g id="a_node35"><a xlink:href="_bilaplacian_8hpp.html" target="_top" xlink:title=" ">
<polygon fill="white" stroke="#666666" points="3260.43,-464.5 3168.43,-464.5 3168.43,-445.5 3260.43,-445.5 3260.43,-464.5"/>
<text text-anchor="middle" x="3214.43" y="-452.5" font-family="Helvetica,sans-Serif" font-size="10.00">Bilaplacian.hpp</text>
</a>
</g>
</g>
<!-- Node1&#45;&gt;Node37 -->
<g id="edge81" class="edge">
<title>Node1&#45;&gt;Node37</title>
<path fill="none" stroke="#63b8ff" d="M2197.77,-628.88C2312.19,-625.99 2558.23,-615.8 2762.43,-580 2921.27,-552.16 3105.06,-493.11 3179.98,-467.86"/>
<polygon fill="#63b8ff" stroke="#63b8ff" points="3181.47,-471.05 3189.81,-464.53 3179.22,-464.42 3181.47,-471.05"/>
</g>
<!-- Node38 -->
<g id="node36" class="node">
<title>Node38</title>
<g id="a_node36"><a xlink:href="_helmholtz_8hpp.html" target="_top" xlink:title=" ">
<polygon fill="white" stroke="#666666" points="2010.43,-464.5 1922.43,-464.5 1922.43,-445.5 2010.43,-445.5 2010.43,-464.5"/>
<text text-anchor="middle" x="1966.43" y="-452.5" font-family="Helvetica,sans-Serif" font-size="10.00">Helmholtz.hpp</text>
</a>
</g>
</g>
<!-- Node1&#45;&gt;Node38 -->
<g id="edge88" class="edge">
<title>Node1&#45;&gt;Node38</title>
<path fill="none" stroke="#63b8ff" d="M2119.76,-615.76C2089.03,-583.74 2014.6,-506.19 1982.08,-472.31"/>
<polygon fill="#63b8ff" stroke="#63b8ff" points="1984.21,-469.48 1974.76,-464.68 1979.16,-474.32 1984.21,-469.48"/>
</g>
<!-- Node39 -->
<g id="node37" class="node">
<title>Node39</title>
<g id="a_node37"><a xlink:href="_linear_elasticity_8hpp.html" target="_top" xlink:title=" ">
<polygon fill="white" stroke="#666666" points="2188.93,-525 2077.93,-525 2077.93,-506 2188.93,-506 2188.93,-525"/>
<text text-anchor="middle" x="2133.43" y="-513" font-family="Helvetica,sans-Serif" font-size="10.00">LinearElasticity.hpp</text>
</a>
</g>
</g>
<!-- Node1&#45;&gt;Node39 -->
<g id="edge93" class="edge">
<title>Node1&#45;&gt;Node39</title>
<path fill="none" stroke="#63b8ff" d="M2133.43,-615.63C2133.43,-595.21 2133.43,-557.81 2133.43,-535.24"/>
<polygon fill="#63b8ff" stroke="#63b8ff" points="2136.93,-535.23 2133.43,-525.23 2129.93,-535.23 2136.93,-535.23"/>
</g>
<!-- Node40 -->
<g id="node38" class="node">
<title>Node40</title>
<g id="a_node38"><a xlink:href="_hooke_linear_elasticity_8hpp.html" target="_top" xlink:title=" ">
<polygon fill="white" stroke="#666666" points="2470.43,-525 2328.43,-525 2328.43,-506 2470.43,-506 2470.43,-525"/>
<text text-anchor="middle" x="2399.43" y="-513" font-family="Helvetica,sans-Serif" font-size="10.00">HookeLinearElasticity.hpp</text>
</a>
</g>
</g>
<!-- Node1&#45;&gt;Node40 -->
<g id="edge101" class="edge">
<title>Node1&#45;&gt;Node40</title>
<path fill="none" stroke="#63b8ff" d="M2166.31,-615.97C2218.57,-593.67 2319.77,-550.49 2369.86,-529.12"/>
<polygon fill="#63b8ff" stroke="#63b8ff" points="2371.35,-532.29 2379.17,-525.14 2368.6,-525.85 2371.35,-532.29"/>
</g>
<!-- Node41 -->
<g id="node39" class="node">
<title>Node41</title>
<g id="a_node39"><a xlink:href="_saint_venant_elasticity_8hpp.html" target="_top" xlink:title=" ">
<polygon fill="white" stroke="#666666" points="1176.43,-525 1036.43,-525 1036.43,-506 1176.43,-506 1176.43,-525"/>
<text text-anchor="middle" x="1106.43" y="-513" font-family="Helvetica,sans-Serif" font-size="10.00">SaintVenantElasticity.hpp</text>
</a>
</g>
</g>
<!-- Node1&#45;&gt;Node41 -->
<g id="edge109" class="edge">
<title>Node1&#45;&gt;Node41</title>
<path fill="none" stroke="#63b8ff" d="M2069.41,-626.26C1957.86,-619.4 1720.75,-603.36 1521.43,-580 1393.69,-565.03 1244.88,-540.53 1164.74,-526.75"/>
<polygon fill="#63b8ff" stroke="#63b8ff" points="1165.29,-523.29 1154.84,-525.04 1164.1,-530.19 1165.29,-523.29"/>
</g>
<!-- Node42 -->
<g id="node40" class="node">
<title>Node42</title>
<g id="a_node40"><a xlink:href="_neo_hookean_elasticity_8hpp.html" target="_top" xlink:title=" ">
<polygon fill="white" stroke="#666666" points="1337.93,-525 1194.93,-525 1194.93,-506 1337.93,-506 1337.93,-525"/>
<text text-anchor="middle" x="1266.43" y="-513" font-family="Helvetica,sans-Serif" font-size="10.00">NeoHookeanElasticity.hpp</text>
</a>
</g>
</g>
<!-- Node1&#45;&gt;Node42 -->
<g id="edge119" class="edge">
<title>Node1&#45;&gt;Node42</title>
<path fill="none" stroke="#63b8ff" d="M2069.37,-624.51C1977.36,-616.35 1802.56,-599.84 1654.43,-580 1536.19,-564.17 1398.54,-540.35 1323.11,-526.84"/>
<polygon fill="#63b8ff" stroke="#63b8ff" points="1323.35,-523.33 1312.88,-525 1322.11,-530.21 1323.35,-523.33"/>
</g>
<!-- Node43 -->
<g id="node41" class="node">
<title>Node43</title>
<g id="a_node41"><a xlink:href="_generic_elastic_8hpp.html" target="_top" xlink:title=" ">
<polygon fill="white" stroke="#666666" points="2775.93,-525 2668.93,-525 2668.93,-506 2775.93,-506 2775.93,-525"/>
<text text-anchor="middle" x="2722.43" y="-513" font-family="Helvetica,sans-Serif" font-size="10.00">GenericElastic.hpp</text>
</a>
</g>
</g>
<!-- Node1&#45;&gt;Node43 -->
<g id="edge129" class="edge">
<title>Node1&#45;&gt;Node43</title>
<path fill="none" stroke="#63b8ff" d="M2197.58,-617.64C2314.27,-595.15 2559.24,-547.95 2668.19,-526.95"/>
<polygon fill="#63b8ff" stroke="#63b8ff" points="2669.14,-530.33 2678.3,-525 2667.82,-523.46 2669.14,-530.33"/>
</g>
<!-- Node44 -->
<g id="node42" class="node">
<title>Node44</title>
<g id="a_node42"><a xlink:href="_mooney_rivlin_elasticity_8hpp.html" target="_top" xlink:title=" ">
<polygon fill="white" stroke="#666666" points="1284.43,-332.5 1136.43,-332.5 1136.43,-313.5 1284.43,-313.5 1284.43,-332.5"/>
<text text-anchor="middle" x="1210.43" y="-320.5" font-family="Helvetica,sans-Serif" font-size="10.00">MooneyRivlinElasticity.hpp</text>
</a>
</g>
</g>
<!-- Node1&#45;&gt;Node44 -->
<g id="edge136" class="edge">
<title>Node1&#45;&gt;Node44</title>
<path fill="none" stroke="#63b8ff" d="M2069.32,-630.4C1803.21,-631.37 795.28,-628.2 703.43,-525 578.52,-384.66 951.83,-341.12 1126.07,-328.63"/>
<polygon fill="#63b8ff" stroke="#63b8ff" points="1126.51,-332.11 1136.24,-327.92 1126.02,-325.13 1126.51,-332.11"/>
</g>
<!-- Node45 -->
<g id="node43" class="node">
<title>Node45</title>
<g id="a_node43"><a xlink:href="_multi_model_8hpp.html" target="_top" xlink:title=" ">
<polygon fill="white" stroke="#666666" points="1755.43,-580 1663.43,-580 1663.43,-561 1755.43,-561 1755.43,-580"/>
<text text-anchor="middle" x="1709.43" y="-568" font-family="Helvetica,sans-Serif" font-size="10.00">MultiModel.hpp</text>
</a>
</g>
</g>
<!-- Node1&#45;&gt;Node45 -->
<g id="edge145" class="edge">
<title>Node1&#45;&gt;Node45</title>
<path fill="none" stroke="#63b8ff" d="M2069.03,-621.12C1986.33,-609.71 1844.15,-590.09 1765.62,-579.25"/>
<polygon fill="#63b8ff" stroke="#63b8ff" points="1765.83,-575.75 1755.44,-577.85 1764.87,-582.68 1765.83,-575.75"/>
</g>
<!-- Node46 -->
<g id="node44" class="node">
<title>Node46</title>
<g id="a_node44"><a xlink:href="_ogden_elasticity_8hpp.html" target="_top" xlink:title=" ">
<polygon fill="white" stroke="#666666" points="1813.93,-525 1700.93,-525 1700.93,-506 1813.93,-506 1813.93,-525"/>
<text text-anchor="middle" x="1757.43" y="-513" font-family="Helvetica,sans-Serif" font-size="10.00">OgdenElasticity.hpp</text>
</a>
</g>
</g>
<!-- Node1&#45;&gt;Node46 -->
<g id="edge176" class="edge">
<title>Node1&#45;&gt;Node46</title>
<path fill="none" stroke="#63b8ff" d="M2086.95,-615.97C2011.85,-593.3 1865.25,-549.05 1795.75,-528.07"/>
<polygon fill="#63b8ff" stroke="#63b8ff" points="1796.65,-524.68 1786.07,-525.14 1794.63,-531.39 1796.65,-524.68"/>
</g>
<!-- Node48 -->
<g id="node46" class="node">
<title>Node48</title>
<g id="a_node46"><a xlink:href="_viscous_damping_8hpp.html" target="_top" xlink:title=" ">
<polygon fill="white" stroke="#666666" points="830.93,-525 711.93,-525 711.93,-506 830.93,-506 830.93,-525"/>
<text text-anchor="middle" x="771.43" y="-513" font-family="Helvetica,sans-Serif" font-size="10.00">ViscousDamping.hpp</text>
</a>
</g>
</g>
<!-- Node1&#45;&gt;Node48 -->
<g id="edge166" class="edge">
<title>Node1&#45;&gt;Node48</title>
<path fill="none" stroke="#63b8ff" d="M2069.32,-626.57C1939.16,-619.42 1634.65,-601.78 1379.43,-580 1184.34,-563.35 954.67,-537.72 841.58,-524.7"/>
<polygon fill="#63b8ff" stroke="#63b8ff" points="841.67,-521.19 831.34,-523.52 840.87,-528.14 841.67,-521.19"/>
</g>
<!-- Node49 -->
<g id="node47" class="node">
<title>Node49</title>
<g id="a_node47"><a xlink:href="_stokes_8hpp.html" target="_top" xlink:title=" ">
<polygon fill="white" stroke="#666666" points="3150.43,-464.5 3080.43,-464.5 3080.43,-445.5 3150.43,-445.5 3150.43,-464.5"/>
<text text-anchor="middle" x="3115.43" y="-452.5" font-family="Helvetica,sans-Serif" font-size="10.00">Stokes.hpp</text>
</a>
</g>
</g>
<!-- Node1&#45;&gt;Node49 -->
<g id="edge177" class="edge">
<title>Node1&#45;&gt;Node49</title>
<path fill="none" stroke="#63b8ff" d="M2197.8,-627.94C2304.17,-623.74 2523.01,-611.74 2705.43,-580 2800.06,-563.54 2822.5,-552.83 2914.43,-525 2974.36,-506.85 3043.18,-482.44 3082.75,-468.05"/>
<polygon fill="#63b8ff" stroke="#63b8ff" points="3084.2,-471.24 3092.4,-464.52 3081.8,-464.67 3084.2,-471.24"/>
</g>
<!-- Node50 -->
<g id="node48" class="node">
<title>Node50</title>
<g id="a_node48"><a xlink:href="_navier_stokes_8hpp.html" target="_top" xlink:title=" ">
<polygon fill="white" stroke="#666666" points="3494.43,-464.5 3392.43,-464.5 3392.43,-445.5 3494.43,-445.5 3494.43,-464.5"/>
<text text-anchor="middle" x="3443.43" y="-452.5" font-family="Helvetica,sans-Serif" font-size="10.00">NavierStokes.hpp</text>
</a>
</g>
</g>
<!-- Node1&#45;&gt;Node50 -->
<g id="edge184" class="edge">
<title>Node1&#45;&gt;Node50</title>
<path fill="none" stroke="#63b8ff" d="M2197.64,-629.46C2397.63,-627.4 3007.56,-618.07 3201.43,-580 3273.16,-565.92 3292.48,-560.41 3356.43,-525 3383.14,-510.21 3410.1,-487.31 3426.78,-471.99"/>
<polygon fill="#63b8ff" stroke="#63b8ff" points="3429.6,-474.15 3434.51,-464.76 3424.82,-469.04 3429.6,-474.15"/>
</g>
<!-- Node51 -->
<g id="node49" class="node">
<title>Node51</title>
<g id="a_node49"><a xlink:href="_incompressible_lin_elast_8hpp.html" target="_top" xlink:title=" ">
<polygon fill="white" stroke="#666666" points="3347.43,-525 3197.43,-525 3197.43,-506 3347.43,-506 3347.43,-525"/>
<text text-anchor="middle" x="3272.43" y="-513" font-family="Helvetica,sans-Serif" font-size="10.00">IncompressibleLinElast.hpp</text>
</a>
</g>
</g>
<!-- Node1&#45;&gt;Node51 -->
<g id="edge190" class="edge">
<title>Node1&#45;&gt;Node51</title>
<path fill="none" stroke="#63b8ff" d="M2197.46,-628.75C2408.8,-624.37 3076,-608.41 3168.43,-580 3201.4,-569.87 3234.55,-546.89 3254.29,-531.53"/>
<polygon fill="#63b8ff" stroke="#63b8ff" points="3256.73,-534.06 3262.36,-525.09 3252.36,-528.59 3256.73,-534.06"/>
</g>
<!-- Node52 -->
<g id="node50" class="node">
<title>Node52</title>
<g id="a_node50"><a xlink:title=" ">
<polygon fill="#e0e0e0" stroke="#999999" points="3726.43,-580 3682.43,-580 3682.43,-561 3726.43,-561 3726.43,-580"/>
<text text-anchor="middle" x="3704.43" y="-568" font-family="Helvetica,sans-Serif" font-size="10.00">string</text>
</a>
</g>
</g>
<!-- Node1&#45;&gt;Node52 -->
<g id="edge200" class="edge">
<title>Node1&#45;&gt;Node52</title>
<path fill="none" stroke="#63b8ff" d="M2197.85,-629.61C2450.92,-627.82 3377.36,-618.71 3668.43,-580 3669.68,-579.83 3670.96,-579.64 3672.24,-579.43"/>
<polygon fill="#63b8ff" stroke="#63b8ff" points="3672.95,-582.86 3682.09,-577.5 3671.6,-575.99 3672.95,-582.86"/>
</g>
<!-- Node3 -->
<g id="node3" class="node">
<title>Node3</title>
<g id="a_node3"><a xlink:title=" ">
<polygon fill="#e0e0e0" stroke="#999999" points="1343.43,-19 1263.43,-19 1263.43,0 1343.43,0 1343.43,-19"/>
<text text-anchor="middle" x="1303.43" y="-7" font-family="Helvetica,sans-Serif" font-size="10.00">Eigen/Sparse</text>
</a>
</g>
</g>
<!-- Node2&#45;&gt;Node3 -->
<g id="edge2" class="edge">
<title>Node2&#45;&gt;Node3</title>
<path fill="none" stroke="#63b8ff" d="M2161.85,-126.54C1989.69,-103.27 1511.38,-38.61 1354.2,-17.36"/>
<polygon fill="#63b8ff" stroke="#63b8ff" points="1354.26,-13.84 1343.89,-15.97 1353.33,-20.78 1354.26,-13.84"/>
</g>
<!-- Node4 -->
<g id="node4" class="node">
<title>Node4</title>
<g id="a_node4"><a xlink:title=" ">
<polygon fill="#e0e0e0" stroke="#999999" points="2279.43,-79.5 2169.43,-79.5 2169.43,-60.5 2279.43,-60.5 2279.43,-79.5"/>
<text text-anchor="middle" x="2224.43" y="-67.5" font-family="Helvetica,sans-Serif" font-size="10.00">nlohmann/json.hpp</text>
</a>
</g>
</g>
<!-- Node2&#45;&gt;Node4 -->
<g id="edge3" class="edge">
<title>Node2&#45;&gt;Node4</title>
<path fill="none" stroke="#63b8ff" d="M2224.43,-126.37C2224.43,-117.16 2224.43,-102.29 2224.43,-90.27"/>
<polygon fill="#63b8ff" stroke="#63b8ff" points="2227.93,-89.91 2224.43,-79.91 2220.93,-89.91 2227.93,-89.91"/>
</g>
<!-- Node5&#45;&gt;Node3 -->
<g id="edge59" class="edge">
<title>Node5&#45;&gt;Node3</title>
<path fill="none" stroke="#63b8ff" d="M369.9,-513.57C311.31,-511.06 205.99,-502.01 122.43,-470 61.88,-446.81 0.43,-454.84 0.43,-390 0.43,-390 0.43,-390 0.43,-135 0.43,-97.88 -4.96,-77.67 24.43,-55 73.86,-16.87 1022.68,-11.39 1253.25,-10.62"/>
<polygon fill="#63b8ff" stroke="#63b8ff" points="1253.38,-14.12 1263.37,-10.59 1253.36,-7.12 1253.38,-14.12"/>
</g>
<!-- Node6 -->
<g id="node6" class="node">
<title>Node6</title>
<g id="a_node6"><a xlink:href="_assembly_vals_cache_8hpp.html" target="_top" xlink:title=" ">
<polygon fill="white" stroke="#666666" points="616.43,-398.5 480.43,-398.5 480.43,-379.5 616.43,-379.5 616.43,-398.5"/>
<text text-anchor="middle" x="548.43" y="-386.5" font-family="Helvetica,sans-Serif" font-size="10.00">AssemblyValsCache.hpp</text>
</a>
</g>
</g>
<!-- Node5&#45;&gt;Node6 -->
<g id="edge5" class="edge">
<title>Node5&#45;&gt;Node6</title>
<path fill="none" stroke="#63b8ff" d="M424.96,-505.83C435.59,-497 452.4,-482.83 466.43,-470 490.15,-448.32 516.59,-422.14 532.87,-405.78"/>
<polygon fill="#63b8ff" stroke="#63b8ff" points="535.43,-408.16 539.99,-398.6 530.46,-403.23 535.43,-408.16"/>
</g>
<!-- Node7 -->
<g id="node7" class="node">
<title>Node7</title>
<g id="a_node7"><a xlink:href="_element_assembly_values_8hpp.html" target="_top" xlink:title=" ">
<polygon fill="white" stroke="#666666" points="685.93,-338 530.93,-338 530.93,-308 685.93,-308 685.93,-338"/>
<text text-anchor="start" x="538.93" y="-326" font-family="Helvetica,sans-Serif" font-size="10.00">polyfem/assembler/Element</text>
<text text-anchor="middle" x="608.43" y="-315" font-family="Helvetica,sans-Serif" font-size="10.00">AssemblyValues.hpp</text>
</a>
</g>
</g>
<!-- Node5&#45;&gt;Node7 -->
<g id="edge36" class="edge">
<title>Node5&#45;&gt;Node7</title>
<path fill="none" stroke="#63b8ff" d="M415.49,-505.89C418.9,-481.67 431.84,-412.21 471.43,-374 486.76,-359.2 506.82,-348.73 526.85,-341.34"/>
<polygon fill="#63b8ff" stroke="#63b8ff" points="528.03,-344.63 536.34,-338.05 525.74,-338.01 528.03,-344.63"/>
</g>
<!-- Node5&#45;&gt;Node14 -->
<g id="edge60" class="edge">
<title>Node5&#45;&gt;Node14</title>
<path fill="none" stroke="#63b8ff" d="M369.89,-507.7C278.11,-492.43 76.43,-451.83 76.43,-390 76.43,-390 76.43,-390 76.43,-201 76.43,-156.02 99.14,-142.91 138.43,-121 204.6,-84.11 402.12,-93.25 477.43,-85 507.96,-81.66 542.7,-77.72 567.62,-74.88"/>
<polygon fill="#63b8ff" stroke="#63b8ff" points="568.13,-78.34 577.66,-73.73 567.33,-71.39 568.13,-78.34"/>
</g>
<!-- Node15 -->
<g id="node15" class="node">
<title>Node15</title>
<g id="a_node15"><a xlink:title=" ">
<polygon fill="#e0e0e0" stroke="#999999" points="316.43,-145.5 256.43,-145.5 256.43,-126.5 316.43,-126.5 316.43,-145.5"/>
<text text-anchor="middle" x="286.43" y="-133.5" font-family="Helvetica,sans-Serif" font-size="10.00">iostream</text>
</a>
</g>
</g>
<!-- Node5&#45;&gt;Node15 -->
<g id="edge61" class="edge">
<title>Node5&#45;&gt;Node15</title>
<path fill="none" stroke="#63b8ff" d="M382.89,-505.95C363.49,-499.17 339.54,-487.81 324.43,-470 248.39,-380.37 264.73,-333.26 247.43,-217 245.47,-203.81 243.09,-199.61 247.43,-187 251.82,-174.25 260.93,-162.25 269.25,-153.21"/>
<polygon fill="#63b8ff" stroke="#63b8ff" points="272.01,-155.39 276.51,-145.79 267.01,-150.49 272.01,-155.39"/>
</g>
<!-- Node23 -->
<g id="node21" class="node">
<title>Node23</title>
<g id="a_node21"><a xlink:title=" ">
<polygon fill="#e0e0e0" stroke="#999999" points="698.43,-145.5 640.43,-145.5 640.43,-126.5 698.43,-126.5 698.43,-145.5"/>
<text text-anchor="middle" x="669.43" y="-133.5" font-family="Helvetica,sans-Serif" font-size="10.00">memory</text>
</a>
</g>
</g>
<!-- Node5&#45;&gt;Node23 -->
<g id="edge63" class="edge">
<title>Node5&#45;&gt;Node23</title>
<path fill="none" stroke="#63b8ff" d="M413.68,-505.98C412.94,-497.03 411.85,-482.54 411.43,-470 409.98,-426.91 409.34,-414 425.43,-374 469.3,-264.94 592.46,-182.2 645.09,-150.78"/>
<polygon fill="#63b8ff" stroke="#63b8ff" points="646.92,-153.76 653.77,-145.68 643.38,-147.72 646.92,-153.76"/>
</g>
<!-- Node5&#45;&gt;Node24 -->
<g id="edge37" class="edge">
<title>Node5&#45;&gt;Node24</title>
<path fill="none" stroke="#63b8ff" d="M414.12,-505.65C413.82,-491.56 414.05,-463.24 419.43,-440 436.16,-367.77 453.07,-336.69 521.43,-308 567.92,-288.49 882.11,-273.37 1039.68,-266.91"/>
<polygon fill="#63b8ff" stroke="#63b8ff" points="1039.98,-270.4 1049.83,-266.5 1039.7,-263.41 1039.98,-270.4"/>
</g>
<!-- Node25 -->
<g id="node23" class="node">
<title>Node25</title>
<g id="a_node23"><a xlink:href="_elasticity_utils_8hpp.html" target="_top" xlink:title=" ">
<polygon fill="white" stroke="#666666" points="1713.93,-470 1584.93,-470 1584.93,-440 1713.93,-440 1713.93,-470"/>
<text text-anchor="start" x="1592.93" y="-458" font-family="Helvetica,sans-Serif" font-size="10.00">polyfem/utils/Elasticity</text>
<text text-anchor="middle" x="1649.43" y="-447" font-family="Helvetica,sans-Serif" font-size="10.00">Utils.hpp</text>
</a>
</g>
</g>
<!-- Node5&#45;&gt;Node25 -->
<g id="edge42" class="edge">
<title>Node5&#45;&gt;Node25</title>
<path fill="none" stroke="#63b8ff" d="M459.11,-512.38C643.09,-503.67 1343.14,-470.51 1574.62,-459.54"/>
<polygon fill="#63b8ff" stroke="#63b8ff" points="1574.81,-463.04 1584.63,-459.07 1574.48,-456.05 1574.81,-463.04"/>
</g>
<!-- Node30 -->
<g id="node28" class="node">
<title>Node30</title>
<g id="a_node28"><a xlink:title=" ">
<polygon fill="#e0e0e0" stroke="#999999" points="2536.93,-272 2489.93,-272 2489.93,-253 2536.93,-253 2536.93,-272"/>
<text text-anchor="middle" x="2513.43" y="-260" font-family="Helvetica,sans-Serif" font-size="10.00">cmath</text>
</a>
</g>
</g>
<!-- Node5&#45;&gt;Node30 -->
<g id="edge62" class="edge">
<title>Node5&#45;&gt;Node30</title>
<path fill="none" stroke="#63b8ff" d="M458.94,-506.06C589.2,-481.67 981.16,-410.51 1309.43,-374 1551.13,-347.12 1613.2,-359.69 1855.43,-338 2095.21,-316.53 2382.97,-280.34 2479.79,-267.87"/>
<polygon fill="#63b8ff" stroke="#63b8ff" points="2480.39,-271.32 2489.86,-266.57 2479.5,-264.38 2480.39,-271.32"/>
</g>
<!-- Node6&#45;&gt;Node7 -->
<g id="edge6" class="edge">
<title>Node6&#45;&gt;Node7</title>
<path fill="none" stroke="#63b8ff" d="M556.52,-379.37C564.53,-370.83 577.11,-357.41 587.88,-345.92"/>
<polygon fill="#63b8ff" stroke="#63b8ff" points="590.68,-348.05 594.97,-338.36 585.57,-343.26 590.68,-348.05"/>
</g>
<!-- Node8 -->
<g id="node8" class="node">
<title>Node8</title>
<g id="a_node8"><a xlink:href="_assembly_values_8hpp.html" target="_top" xlink:title=" ">
<polygon fill="white" stroke="#666666" points="418.43,-217 256.43,-217 256.43,-187 418.43,-187 418.43,-217"/>
<text text-anchor="start" x="264.43" y="-205" font-family="Helvetica,sans-Serif" font-size="10.00">polyfem/assembler/Assembly</text>
<text text-anchor="middle" x="337.43" y="-194" font-family="Helvetica,sans-Serif" font-size="10.00">Values.hpp</text>
</a>
</g>
</g>
<!-- Node7&#45;&gt;Node8 -->
<g id="edge7" class="edge">
<title>Node7&#45;&gt;Node8</title>
<path fill="none" stroke="#63b8ff" d="M576.55,-308C527.45,-286.44 433.32,-245.11 378.96,-221.23"/>
<polygon fill="#63b8ff" stroke="#63b8ff" points="380.18,-217.95 369.61,-217.13 377.36,-224.36 380.18,-217.95"/>
</g>
<!-- Node7&#45;&gt;Node14 -->
<g id="edge35" class="edge">
<title>Node7&#45;&gt;Node14</title>
<path fill="none" stroke="#63b8ff" d="M530.71,-310.42C435.15,-294.42 281.42,-262.29 247.43,-217 221.82,-182.88 219.45,-153.21 247.43,-121 252.69,-114.94 480.55,-86.03 567.87,-75.15"/>
<polygon fill="#63b8ff" stroke="#63b8ff" points="568.3,-78.63 577.79,-73.92 567.44,-71.68 568.3,-78.63"/>
</g>
<!-- Node16 -->
<g id="node16" class="node">
<title>Node16</title>
<g id="a_node16"><a xlink:href="_element_bases_8hpp.html" target="_top" xlink:title=" ">
<polygon fill="white" stroke="#666666" points="809.93,-272 630.93,-272 630.93,-253 809.93,-253 809.93,-272"/>
<text text-anchor="middle" x="720.43" y="-260" font-family="Helvetica,sans-Serif" font-size="10.00">polyfem/basis/ElementBases.hpp</text>
</a>
</g>
</g>
<!-- Node7&#45;&gt;Node16 -->
<g id="edge20" class="edge">
<title>Node7&#45;&gt;Node16</title>
<path fill="none" stroke="#63b8ff" d="M635.26,-307.99C653.28,-298.58 676.89,-286.24 694.68,-276.95"/>
<polygon fill="#63b8ff" stroke="#63b8ff" points="696.65,-279.87 703.89,-272.14 693.41,-273.67 696.65,-279.87"/>
</g>
<!-- Node9 -->
<g id="node9" class="node">
<title>Node9</title>
<g id="a_node9"><a xlink:href="_quadrature_8hpp.html" target="_top" xlink:title=" ">
<polygon fill="white" stroke="#666666" points="468.93,-85 355.93,-85 355.93,-55 468.93,-55 468.93,-85"/>
<text text-anchor="start" x="363.93" y="-73" font-family="Helvetica,sans-Serif" font-size="10.00">polyfem/quadrature</text>
<text text-anchor="middle" x="412.43" y="-62" font-family="Helvetica,sans-Serif" font-size="10.00">/Quadrature.hpp</text>
</a>
</g>
</g>
<!-- Node8&#45;&gt;Node9 -->
<g id="edge8" class="edge">
<title>Node8&#45;&gt;Node9</title>
<path fill="none" stroke="#63b8ff" d="M341.3,-186.72C346.15,-170.16 355.44,-142.39 368.43,-121 374.52,-110.96 382.71,-101.02 390.36,-92.68"/>
<polygon fill="#63b8ff" stroke="#63b8ff" points="393.1,-94.88 397.45,-85.22 388.03,-90.05 393.1,-94.88"/>
</g>
<!-- Node10 -->
<g id="node10" class="node">
<title>Node10</title>
<g id="a_node10"><a xlink:title=" ">
<polygon fill="#e0e0e0" stroke="#999999" points="1768.93,-19 1691.93,-19 1691.93,0 1768.93,0 1768.93,-19"/>
<text text-anchor="middle" x="1730.43" y="-7" font-family="Helvetica,sans-Serif" font-size="10.00">Eigen/Dense</text>
</a>
</g>
</g>
<!-- Node8&#45;&gt;Node10 -->
<g id="edge18" class="edge">
<title>Node8&#45;&gt;Node10</title>
<path fill="none" stroke="#63b8ff" d="M291.78,-186.87C274.77,-179.14 257.22,-167.64 247.43,-151 240.67,-139.51 241.14,-132.76 247.43,-121 272.38,-74.38 296.07,-71.14 346.43,-55 378.87,-44.6 1439.68,-17.71 1681.64,-11.7"/>
<polygon fill="#63b8ff" stroke="#63b8ff" points="1681.97,-15.2 1691.88,-11.45 1681.8,-8.2 1681.97,-15.2"/>
</g>
<!-- Node11 -->
<g id="node11" class="node">
<title>Node11</title>
<g id="a_node11"><a xlink:href="_basis_8hpp.html" target="_top" xlink:title=" ">
<polygon fill="white" stroke="#666666" points="584.43,-145.5 448.43,-145.5 448.43,-126.5 584.43,-126.5 584.43,-145.5"/>
<text text-anchor="middle" x="516.43" y="-133.5" font-family="Helvetica,sans-Serif" font-size="10.00">polyfem/basis/Basis.hpp</text>
</a>
</g>
</g>
<!-- Node8&#45;&gt;Node11 -->
<g id="edge10" class="edge">
<title>Node8&#45;&gt;Node11</title>
<path fill="none" stroke="#63b8ff" d="M376.71,-186.95C408.52,-175.58 452.84,-159.74 482.97,-148.96"/>
<polygon fill="#63b8ff" stroke="#63b8ff" points="484.37,-152.18 492.61,-145.52 482.01,-145.59 484.37,-152.18"/>
</g>
<!-- Node8&#45;&gt;Node15 -->
<g id="edge19" class="edge">
<title>Node8&#45;&gt;Node15</title>
<path fill="none" stroke="#63b8ff" d="M326.11,-186.8C318.32,-177.01 307.93,-163.98 299.74,-153.7"/>
<polygon fill="#63b8ff" stroke="#63b8ff" points="302.45,-151.48 293.48,-145.84 296.97,-155.85 302.45,-151.48"/>
</g>
<!-- Node9&#45;&gt;Node10 -->
<g id="edge9" class="edge">
<title>Node9&#45;&gt;Node10</title>
<path fill="none" stroke="#63b8ff" d="M468.94,-60.14C483.41,-58.15 498.97,-56.26 513.43,-55 746.22,-34.66 1484.34,-16.27 1681.58,-11.62"/>
<polygon fill="#63b8ff" stroke="#63b8ff" points="1681.72,-15.12 1691.64,-11.39 1681.56,-8.12 1681.72,-15.12"/>
</g>
<!-- Node11&#45;&gt;Node9 -->
<g id="edge11" class="edge">
<title>Node11&#45;&gt;Node9</title>
<path fill="none" stroke="#63b8ff" d="M502.4,-126.37C487.5,-117.2 463.44,-102.39 443.95,-90.4"/>
<polygon fill="#63b8ff" stroke="#63b8ff" points="445.72,-87.38 435.37,-85.12 442.05,-93.34 445.72,-87.38"/>
</g>
<!-- Node11&#45;&gt;Node10 -->
<g id="edge15" class="edge">
<title>Node11&#45;&gt;Node10</title>
<path fill="none" stroke="#63b8ff" d="M519.1,-126.25C524.87,-109.02 540.34,-70.95 568.43,-55 593,-41.05 1463.9,-17.45 1681.53,-11.76"/>
<polygon fill="#63b8ff" stroke="#63b8ff" points="1681.78,-15.26 1691.69,-11.5 1681.6,-8.26 1681.78,-15.26"/>
</g>
<!-- Node12 -->
<g id="node12" class="node">
<title>Node12</title>
<g id="a_node12"><a xlink:href="_types_8hpp.html" target="_top" xlink:title=" ">
<polygon fill="white" stroke="#666666" points="1483.93,-79.5 1350.93,-79.5 1350.93,-60.5 1483.93,-60.5 1483.93,-79.5"/>
<text text-anchor="middle" x="1417.43" y="-67.5" font-family="Helvetica,sans-Serif" font-size="10.00">polyfem/utils/Types.hpp</text>
</a>
</g>
</g>
<!-- Node11&#45;&gt;Node12 -->
<g id="edge12" class="edge">
<title>Node11&#45;&gt;Node12</title>
<path fill="none" stroke="#63b8ff" d="M580.83,-126.5C597.31,-124.5 615.01,-122.52 631.43,-121 767.61,-108.39 1170.89,-84.96 1340.69,-75.32"/>
<polygon fill="#63b8ff" stroke="#63b8ff" points="1341.02,-78.8 1350.8,-74.74 1340.62,-71.81 1341.02,-78.8"/>
</g>
<!-- Node13 -->
<g id="node13" class="node">
<title>Node13</title>
<g id="a_node13"><a xlink:title=" ">
<polygon fill="#e0e0e0" stroke="#999999" points="3154.93,-79.5 3089.93,-79.5 3089.93,-60.5 3154.93,-60.5 3154.93,-79.5"/>
<text text-anchor="middle" x="3122.43" y="-67.5" font-family="Helvetica,sans-Serif" font-size="10.00">functional</text>
</a>
</g>
</g>
<!-- Node11&#45;&gt;Node13 -->
<g id="edge16" class="edge">
<title>Node11&#45;&gt;Node13</title>
<path fill="none" stroke="#63b8ff" d="M576.9,-126.48C594.45,-124.32 613.67,-122.26 631.43,-121 758.42,-112.02 2758.96,-77.26 3079.31,-71.74"/>
<polygon fill="#63b8ff" stroke="#63b8ff" points="3079.63,-75.24 3089.57,-71.56 3079.51,-68.24 3079.63,-75.24"/>
</g>
<!-- Node11&#45;&gt;Node14 -->
<g id="edge17" class="edge">
<title>Node11&#45;&gt;Node14</title>
<path fill="none" stroke="#63b8ff" d="M527.89,-126.37C541.71,-115.97 565.14,-98.32 581.84,-85.75"/>
<polygon fill="#63b8ff" stroke="#63b8ff" points="583.99,-88.51 589.88,-79.7 579.78,-82.92 583.99,-88.51"/>
</g>
<!-- Node12&#45;&gt;Node3 -->
<g id="edge14" class="edge">
<title>Node12&#45;&gt;Node3</title>
<path fill="none" stroke="#63b8ff" d="M1400.61,-60.37C1381.83,-50.73 1351.22,-35.03 1329.38,-23.81"/>
<polygon fill="#63b8ff" stroke="#63b8ff" points="1330.81,-20.62 1320.32,-19.17 1327.62,-26.85 1330.81,-20.62"/>
</g>
<!-- Node12&#45;&gt;Node10 -->
<g id="edge13" class="edge">
<title>Node12&#45;&gt;Node10</title>
<path fill="none" stroke="#63b8ff" d="M1462.94,-60.49C1521.28,-49.59 1622.02,-30.76 1681.82,-19.59"/>
<polygon fill="#63b8ff" stroke="#63b8ff" points="1682.58,-23 1691.77,-17.73 1681.3,-16.12 1682.58,-23"/>
</g>
<!-- Node16&#45;&gt;Node8 -->
<g id="edge33" class="edge">
<title>Node16&#45;&gt;Node8</title>
<path fill="none" stroke="#63b8ff" d="M664.74,-252.99C602.92,-243.55 502.19,-228.17 428.78,-216.95"/>
<polygon fill="#63b8ff" stroke="#63b8ff" points="429.02,-213.45 418.61,-215.4 427.97,-220.37 429.02,-213.45"/>
</g>
<!-- Node16&#45;&gt;Node9 -->
<g id="edge22" class="edge">
<title>Node16&#45;&gt;Node9</title>
<path fill="none" stroke="#63b8ff" d="M658.28,-252.95C594.73,-241 497.35,-213.28 439.43,-151 425.21,-135.71 418.46,-112.67 415.26,-95.24"/>
<polygon fill="#63b8ff" stroke="#63b8ff" points="418.7,-94.56 413.7,-85.22 411.78,-95.64 418.7,-94.56"/>
</g>
<!-- Node16&#45;&gt;Node11 -->
<g id="edge21" class="edge">
<title>Node16&#45;&gt;Node11</title>
<path fill="none" stroke="#63b8ff" d="M706.41,-252.94C671.76,-231.8 581.85,-176.92 539.34,-150.98"/>
<polygon fill="#63b8ff" stroke="#63b8ff" points="540.91,-147.84 530.55,-145.62 537.26,-153.81 540.91,-147.84"/>
</g>
<!-- Node16&#45;&gt;Node14 -->
<g id="edge34" class="edge">
<title>Node16&#45;&gt;Node14</title>
<path fill="none" stroke="#63b8ff" d="M711.73,-252.77C694.41,-235 655.23,-192.72 631.43,-151 620.09,-131.13 611.53,-106.17 606.51,-89.46"/>
<polygon fill="#63b8ff" stroke="#63b8ff" points="609.86,-88.45 603.73,-79.81 603.13,-90.39 609.86,-88.45"/>
</g>
<!-- Node17 -->
<g id="node17" class="node">
<title>Node17</title>
<g id="a_node17"><a xlink:href="_mesh_8hpp.html" target="_top" xlink:title=" ">
<polygon fill="white" stroke="#666666" points="1040.93,-211.5 903.93,-211.5 903.93,-192.5 1040.93,-192.5 1040.93,-211.5"/>
<text text-anchor="middle" x="972.43" y="-199.5" font-family="Helvetica,sans-Serif" font-size="10.00">polyfem/mesh/Mesh.hpp</text>
</a>
</g>
</g>
<!-- Node16&#45;&gt;Node17 -->
<g id="edge23" class="edge">
<title>Node16&#45;&gt;Node17</title>
<path fill="none" stroke="#63b8ff" d="M757.07,-252.99C801.68,-242.64 877.06,-225.14 925.77,-213.83"/>
<polygon fill="#63b8ff" stroke="#63b8ff" points="926.79,-217.19 935.74,-211.52 925.21,-210.37 926.79,-217.19"/>
</g>
<!-- Node17&#45;&gt;Node2 -->
<g id="edge24" class="edge">
<title>Node17&#45;&gt;Node2</title>
<path fill="none" stroke="#63b8ff" d="M1041.08,-197.49C1258.2,-186.39 1928.77,-152.11 2151.6,-140.72"/>
<polygon fill="#63b8ff" stroke="#63b8ff" points="2152.06,-144.2 2161.87,-140.2 2151.7,-137.21 2152.06,-144.2"/>
</g>
<!-- Node17&#45;&gt;Node10 -->
<g id="edge30" class="edge">
<title>Node17&#45;&gt;Node10</title>
<path fill="none" stroke="#63b8ff" d="M970.4,-192.45C964.92,-167.08 952.84,-91.7 992.43,-55 1017.73,-31.55 1521.21,-16.1 1681.72,-11.75"/>
<polygon fill="#63b8ff" stroke="#63b8ff" points="1681.88,-15.25 1691.78,-11.48 1681.69,-8.25 1681.88,-15.25"/>
</g>
<!-- Node17&#45;&gt;Node12 -->
<g id="edge27" class="edge">
<title>Node17&#45;&gt;Node12</title>
<path fill="none" stroke="#63b8ff" d="M1014.05,-192.46C1056.13,-183.47 1122.85,-168.25 1179.43,-151 1216.15,-139.81 1224.13,-133.49 1260.43,-121 1300.82,-107.1 1347.52,-92.4 1379.41,-82.57"/>
<polygon fill="#63b8ff" stroke="#63b8ff" points="1380.69,-85.83 1389.22,-79.55 1378.64,-79.14 1380.69,-85.83"/>
</g>
<!-- Node18 -->
<g id="node18" class="node">
<title>Node18</title>
<g id="a_node18"><a xlink:href="_navigation_8hpp.html" target="_top" xlink:title=" ">
<polygon fill="#fff0f0" stroke="red" points="1169.93,-151 1038.93,-151 1038.93,-121 1169.93,-121 1169.93,-151"/>
<text text-anchor="start" x="1046.93" y="-139" font-family="Helvetica,sans-Serif" font-size="10.00">polyfem/mesh/mesh2D</text>
<text text-anchor="middle" x="1104.43" y="-128" font-family="Helvetica,sans-Serif" font-size="10.00">/Navigation.hpp</text>
</a>
</g>
</g>
<!-- Node17&#45;&gt;Node18 -->
<g id="edge25" class="edge">
<title>Node17&#45;&gt;Node18</title>
<path fill="none" stroke="#63b8ff" d="M990.23,-192.37C1009.58,-182.99 1041.07,-167.72 1066.08,-155.59"/>
<polygon fill="#63b8ff" stroke="#63b8ff" points="1067.84,-158.63 1075.32,-151.12 1064.79,-152.33 1067.84,-158.63"/>
</g>
<!-- Node19 -->
<g id="node19" class="node">
<title>Node19</title>
<g id="a_node19"><a xlink:title=" ">
<polygon fill="#e0e0e0" stroke="#999999" points="1129.93,-79.5 1000.93,-79.5 1000.93,-60.5 1129.93,-60.5 1129.93,-79.5"/>
<text text-anchor="middle" x="1065.43" y="-67.5" font-family="Helvetica,sans-Serif" font-size="10.00">geogram/mesh/mesh.h</text>
</a>
</g>
</g>
<!-- Node17&#45;&gt;Node19 -->
<g id="edge31" class="edge">
<title>Node17&#45;&gt;Node19</title>
<path fill="none" stroke="#63b8ff" d="M978.53,-192.47C993.63,-171.36 1032.99,-116.34 1053.15,-88.17"/>
<polygon fill="#63b8ff" stroke="#63b8ff" points="1056.21,-89.9 1059.18,-79.73 1050.52,-85.83 1056.21,-89.9"/>
</g>
<!-- Node21 -->
<g id="node20" class="node">
<title>Node21</title>
<g id="a_node20"><a xlink:href="_hash_utils_8hpp.html" target="_top" xlink:title=" ">
<polygon fill="#fff0f0" stroke="red" points="906.43,-145.5 754.43,-145.5 754.43,-126.5 906.43,-126.5 906.43,-145.5"/>
<text text-anchor="middle" x="830.43" y="-133.5" font-family="Helvetica,sans-Serif" font-size="10.00">polyfem/utils/HashUtils.hpp</text>
</a>
</g>
</g>
<!-- Node17&#45;&gt;Node21 -->
<g id="edge28" class="edge">
<title>Node17&#45;&gt;Node21</title>
<path fill="none" stroke="#63b8ff" d="M953.28,-192.37C929.04,-181.44 887.06,-162.52 859.02,-149.88"/>
<polygon fill="#63b8ff" stroke="#63b8ff" points="860.29,-146.62 849.73,-145.7 857.41,-153 860.29,-146.62"/>
</g>
<!-- Node17&#45;&gt;Node23 -->
<g id="edge32" class="edge">
<title>Node17&#45;&gt;Node23</title>
<path fill="none" stroke="#63b8ff" d="M931.88,-192.44C873.46,-180.1 766.33,-157.47 708.66,-145.29"/>
<polygon fill="#63b8ff" stroke="#63b8ff" points="709.33,-141.85 698.83,-143.21 707.89,-148.7 709.33,-141.85"/>
</g>
<!-- Node18&#45;&gt;Node19 -->
<g id="edge26" class="edge">
<title>Node18&#45;&gt;Node19</title>
<path fill="none" stroke="#63b8ff" d="M1095.77,-120.8C1089.99,-111.31 1082.34,-98.76 1076.17,-88.63"/>
<polygon fill="#63b8ff" stroke="#63b8ff" points="1079.01,-86.56 1070.82,-79.84 1073.03,-90.21 1079.01,-86.56"/>
</g>
<!-- Node21&#45;&gt;Node14 -->
<g id="edge29" class="edge">
<title>Node21&#45;&gt;Node14</title>
<path fill="none" stroke="#63b8ff" d="M799.55,-126.37C756.62,-114.37 679.22,-92.74 634.94,-80.36"/>
<polygon fill="#63b8ff" stroke="#63b8ff" points="635.8,-76.97 625.22,-77.65 633.91,-83.71 635.8,-76.97"/>
</g>
<!-- Node24&#45;&gt;Node2 -->
<g id="edge38" class="edge">
<title>Node24&#45;&gt;Node2</title>
<path fill="none" stroke="#63b8ff" d="M1198.76,-252.95C1314.04,-238.79 1552.46,-209.78 1754.43,-187 1894.92,-171.15 2059.19,-153.99 2151.6,-144.46"/>
<polygon fill="#63b8ff" stroke="#63b8ff" points="2152.09,-147.93 2161.68,-143.42 2151.38,-140.96 2152.09,-147.93"/>
</g>
<!-- Node24&#45;&gt;Node3 -->
<g id="edge41" class="edge">
<title>Node24&#45;&gt;Node3</title>
<path fill="none" stroke="#63b8ff" d="M1135.42,-252.86C1160.57,-216.58 1257.9,-76.18 1291.75,-27.35"/>
<polygon fill="#63b8ff" stroke="#63b8ff" points="1294.64,-29.32 1297.47,-19.1 1288.89,-25.33 1294.64,-29.32"/>
</g>
<!-- Node24&#45;&gt;Node10 -->
<g id="edge40" class="edge">
<title>Node24&#45;&gt;Node10</title>
<path fill="none" stroke="#63b8ff" d="M1141.13,-252.68C1152.5,-243.96 1170.09,-230.07 1184.43,-217 1258.76,-149.25 1252.13,-99.29 1342.43,-55 1401.12,-26.21 1591.51,-15.54 1681.92,-12.03"/>
<polygon fill="#63b8ff" stroke="#63b8ff" points="1682.05,-15.53 1691.91,-11.66 1681.79,-8.54 1682.05,-15.53"/>
</g>
<!-- Node24&#45;&gt;Node12 -->
<g id="edge39" class="edge">
<title>Node24&#45;&gt;Node12</title>
<path fill="none" stroke="#63b8ff" d="M1162.19,-252.97C1187.38,-245.6 1222.49,-233.51 1250.43,-217 1313.77,-179.57 1375.57,-116.7 1402.86,-87.2"/>
<polygon fill="#63b8ff" stroke="#63b8ff" points="1405.45,-89.56 1409.62,-79.82 1400.28,-84.83 1405.45,-89.56"/>
</g>
<!-- Node25&#45;&gt;Node2 -->
<g id="edge43" class="edge">
<title>Node25&#45;&gt;Node2</title>
<path fill="none" stroke="#63b8ff" d="M1676.26,-439.99C1716.05,-418.97 1792.76,-377.51 1855.43,-338 1898.61,-310.78 1908.4,-302.37 1949.43,-272 1998.81,-235.45 2003.87,-215.23 2058.43,-187 2093.8,-168.7 2136.95,-155.96 2170.39,-147.92"/>
<polygon fill="#63b8ff" stroke="#63b8ff" points="2171.5,-151.26 2180.44,-145.58 2169.91,-144.44 2171.5,-151.26"/>
</g>
<!-- Node25&#45;&gt;Node10 -->
<g id="edge55" class="edge">
<title>Node25&#45;&gt;Node10</title>
<path fill="none" stroke="#63b8ff" d="M1650.32,-439.96C1651.76,-416.13 1654.43,-366.24 1654.43,-324 1654.43,-324 1654.43,-324 1654.43,-261.5 1654.43,-170.61 1700.64,-68.85 1721,-28.43"/>
<polygon fill="#63b8ff" stroke="#63b8ff" points="1724.22,-29.82 1725.68,-19.32 1717.99,-26.62 1724.22,-29.82"/>
</g>
<!-- Node25&#45;&gt;Node12 -->
<g id="edge53" class="edge">
<title>Node25&#45;&gt;Node12</title>
<path fill="none" stroke="#63b8ff" d="M1644.55,-439.82C1627.44,-391.45 1566.42,-229.96 1478.43,-121 1467.35,-107.28 1451.99,-94.72 1439.45,-85.61"/>
<polygon fill="#63b8ff" stroke="#63b8ff" points="1441.12,-82.51 1430.92,-79.63 1437.1,-88.24 1441.12,-82.51"/>
</g>
<!-- Node25&#45;&gt;Node13 -->
<g id="edge58" class="edge">
<title>Node25&#45;&gt;Node13</title>
<path fill="none" stroke="#63b8ff" d="M1654.84,-439.86C1668.2,-405.17 1702.42,-317.95 1712.43,-308 1863.44,-157.94 1945.96,-168.77 2153.43,-121 2333.54,-79.53 2916.83,-72.42 3079.79,-71.23"/>
<polygon fill="#63b8ff" stroke="#63b8ff" points="3079.93,-74.73 3089.91,-71.16 3079.88,-67.73 3079.93,-74.73"/>
</g>
<!-- Node25&#45;&gt;Node14 -->
<g id="edge56" class="edge">
<title>Node25&#45;&gt;Node14</title>
<path fill="none" stroke="#63b8ff" d="M1625.74,-439.99C1536.36,-387.87 1209.73,-203.9 915.43,-121 815.64,-92.89 693.27,-79.11 635.16,-73.77"/>
<polygon fill="#63b8ff" stroke="#63b8ff" points="635.35,-70.27 625.07,-72.87 634.72,-77.24 635.35,-70.27"/>
</g>
<!-- Node25&#45;&gt;Node16 -->
<g id="edge46" class="edge">
<title>Node25&#45;&gt;Node16</title>
<path fill="none" stroke="#63b8ff" d="M1584.63,-441.38C1542.96,-432.57 1487.93,-419.6 1440.43,-404 1407.88,-393.31 1402.45,-383.13 1369.43,-374 1258.69,-343.38 1226.61,-357.81 1113.43,-338 1049.46,-326.81 1034.18,-320.36 970.43,-308 906.05,-295.52 832.08,-282.52 781.4,-273.82"/>
<polygon fill="#63b8ff" stroke="#63b8ff" points="781.72,-270.32 771.27,-272.08 780.53,-277.22 781.72,-270.32"/>
</g>
<!-- Node25&#45;&gt;Node24 -->
<g id="edge54" class="edge">
<title>Node25&#45;&gt;Node24</title>
<path fill="none" stroke="#63b8ff" d="M1619.73,-439.9C1579.89,-421.61 1506.47,-390.16 1440.43,-374 1372.42,-357.35 1174.02,-390.26 1127.43,-338 1114.01,-322.95 1117.67,-298.61 1122.59,-281.87"/>
<polygon fill="#63b8ff" stroke="#63b8ff" points="1125.99,-282.74 1125.84,-272.14 1119.35,-280.52 1125.99,-282.74"/>
</g>
<!-- Node26 -->
<g id="node24" class="node">
<title>Node26</title>
<g id="a_node24"><a xlink:href="_assembler_data_8hpp.html" target="_top" xlink:title=" ">
<polygon fill="white" stroke="#666666" points="2752.43,-404 2586.43,-404 2586.43,-374 2752.43,-374 2752.43,-404"/>
<text text-anchor="start" x="2594.43" y="-392" font-family="Helvetica,sans-Serif" font-size="10.00">polyfem/assembler/Assembler</text>
<text text-anchor="middle" x="2669.43" y="-381" font-family="Helvetica,sans-Serif" font-size="10.00">Data.hpp</text>
</a>
</g>
</g>
<!-- Node25&#45;&gt;Node26 -->
<g id="edge44" class="edge">
<title>Node25&#45;&gt;Node26</title>
<path fill="none" stroke="#63b8ff" d="M1714,-450.42C1885.25,-440.88 2348.37,-414.87 2501.43,-404 2525.57,-402.29 2551.64,-400.22 2575.88,-398.21"/>
<polygon fill="#63b8ff" stroke="#63b8ff" points="2576.47,-401.67 2586.15,-397.35 2575.89,-394.69 2576.47,-401.67"/>
</g>
<!-- Node27 -->
<g id="node25" class="node">
<title>Node27</title>
<g id="a_node25"><a xlink:href="_autodiff_types_8hpp.html" target="_top" xlink:title=" ">
<polygon fill="white" stroke="#666666" points="2491.93,-398.5 2320.93,-398.5 2320.93,-379.5 2491.93,-379.5 2491.93,-398.5"/>
<text text-anchor="middle" x="2406.43" y="-386.5" font-family="Helvetica,sans-Serif" font-size="10.00">polyfem/utils/AutodiffTypes.hpp</text>
</a>
</g>
</g>
<!-- Node25&#45;&gt;Node27 -->
<g id="edge47" class="edge">
<title>Node25&#45;&gt;Node27</title>
<path fill="none" stroke="#63b8ff" d="M1714.02,-442C1718.89,-441.27 1723.73,-440.59 1728.43,-440 1935.17,-414.13 2179.17,-400.16 2310.75,-393.98"/>
<polygon fill="#63b8ff" stroke="#63b8ff" points="2310.97,-397.48 2320.8,-393.52 2310.65,-390.48 2310.97,-397.48"/>
</g>
<!-- Node32 -->
<g id="node30" class="node">
<title>Node32</title>
<g id="a_node30"><a xlink:title=" ">
<polygon fill="#e0e0e0" stroke="#999999" points="1360.43,-398.5 1318.43,-398.5 1318.43,-379.5 1360.43,-379.5 1360.43,-398.5"/>
<text text-anchor="middle" x="1339.43" y="-386.5" font-family="Helvetica,sans-Serif" font-size="10.00">array</text>
</a>
</g>
</g>
<!-- Node25&#45;&gt;Node32 -->
<g id="edge57" class="edge">
<title>Node25&#45;&gt;Node32</title>
<path fill="none" stroke="#63b8ff" d="M1584.82,-440.66C1519.22,-427.12 1420.41,-406.72 1370.56,-396.43"/>
<polygon fill="#63b8ff" stroke="#63b8ff" points="1371.19,-392.98 1360.69,-394.39 1369.78,-399.84 1371.19,-392.98"/>
</g>
<!-- Node26&#45;&gt;Node7 -->
<g id="edge45" class="edge">
<title>Node26&#45;&gt;Node7</title>
<path fill="none" stroke="#63b8ff" d="M2586.18,-380.12C2559.17,-377.81 2529.05,-375.51 2501.43,-374 1891.47,-340.62 1738.09,-354.24 1127.43,-338 975.92,-333.97 799.53,-329.2 696.31,-326.39"/>
<polygon fill="#63b8ff" stroke="#63b8ff" points="696.34,-322.89 686.24,-326.12 696.15,-329.89 696.34,-322.89"/>
</g>
<!-- Node27&#45;&gt;Node12 -->
<g id="edge48" class="edge">
<title>Node27&#45;&gt;Node12</title>
<path fill="none" stroke="#63b8ff" d="M2409.98,-379.16C2421.29,-349.5 2453.54,-251.71 2415.43,-187 2384.74,-134.89 2354.53,-137.81 2296.43,-121 2147.01,-77.77 1679.59,-71.68 1494.25,-70.99"/>
<polygon fill="#63b8ff" stroke="#63b8ff" points="1494.05,-67.49 1484.04,-70.96 1494.03,-74.49 1494.05,-67.49"/>
</g>
<!-- Node28 -->
<g id="node26" class="node">
<title>Node28</title>
<g id="a_node26"><a xlink:href="autodiff_8h.html" target="_top" xlink:title=" ">
<polygon fill="white" stroke="#666666" points="2618.93,-332.5 2555.93,-332.5 2555.93,-313.5 2618.93,-313.5 2618.93,-332.5"/>
<text text-anchor="middle" x="2587.43" y="-320.5" font-family="Helvetica,sans-Serif" font-size="10.00">autodiff.h</text>
</a>
</g>
</g>
<!-- Node27&#45;&gt;Node28 -->
<g id="edge49" class="edge">
<title>Node27&#45;&gt;Node28</title>
<path fill="none" stroke="#63b8ff" d="M2430.84,-379.37C2462.5,-368.17 2517.9,-348.58 2553.61,-335.96"/>
<polygon fill="#63b8ff" stroke="#63b8ff" points="2554.86,-339.23 2563.12,-332.6 2552.52,-332.63 2554.86,-339.23"/>
</g>
<!-- Node29 -->
<g id="node27" class="node">
<title>Node29</title>
<g id="a_node27"><a xlink:title=" ">
<polygon fill="#e0e0e0" stroke="#999999" points="2706.93,-272 2637.93,-272 2637.93,-253 2706.93,-253 2706.93,-272"/>
<text text-anchor="middle" x="2672.43" y="-260" font-family="Helvetica,sans-Serif" font-size="10.00">Eigen/Core</text>
</a>
</g>
</g>
<!-- Node28&#45;&gt;Node29 -->
<g id="edge50" class="edge">
<title>Node28&#45;&gt;Node29</title>
<path fill="none" stroke="#63b8ff" d="M2599.97,-313.37C2613.53,-304.04 2635.37,-289.01 2651.53,-277.88"/>
<polygon fill="#63b8ff" stroke="#63b8ff" points="2653.58,-280.72 2659.84,-272.17 2649.61,-274.95 2653.58,-280.72"/>
</g>
<!-- Node28&#45;&gt;Node30 -->
<g id="edge51" class="edge">
<title>Node28&#45;&gt;Node30</title>
<path fill="none" stroke="#63b8ff" d="M2576.51,-313.37C2564.92,-304.21 2546.4,-289.56 2532.41,-278.51"/>
<polygon fill="#63b8ff" stroke="#63b8ff" points="2534.41,-275.62 2524.39,-272.17 2530.07,-281.11 2534.41,-275.62"/>
</g>
<!-- Node31 -->
<g id="node29" class="node">
<title>Node31</title>
<g id="a_node29"><a xlink:title=" ">
<polygon fill="#e0e0e0" stroke="#999999" points="2619.93,-272 2554.93,-272 2554.93,-253 2619.93,-253 2619.93,-272"/>
<text text-anchor="middle" x="2587.43" y="-260" font-family="Helvetica,sans-Serif" font-size="10.00">stdexcept</text>
</a>
</g>
</g>
<!-- Node28&#45;&gt;Node31 -->
<g id="edge52" class="edge">
<title>Node28&#45;&gt;Node31</title>
<path fill="none" stroke="#63b8ff" d="M2587.43,-313.37C2587.43,-305.25 2587.43,-292.81 2587.43,-282.39"/>
<polygon fill="#63b8ff" stroke="#63b8ff" points="2590.93,-282.17 2587.43,-272.17 2583.93,-282.17 2590.93,-282.17"/>
</g>
<!-- Node33&#45;&gt;Node2 -->
<g id="edge72" class="edge">
<title>Node33&#45;&gt;Node2</title>
<path fill="none" stroke="#63b8ff" d="M2837.02,-505.67C2837.74,-491.6 2838.34,-463.31 2833.43,-440 2814.85,-351.89 2815.75,-319.87 2755.43,-253 2717.5,-210.95 2699.98,-205.42 2646.43,-187 2528.77,-146.54 2382.99,-137.69 2297.21,-136.36"/>
<polygon fill="#63b8ff" stroke="#63b8ff" points="2297.09,-132.86 2287.05,-136.23 2297,-139.86 2297.09,-132.86"/>
</g>
<!-- Node33&#45;&gt;Node10 -->
<g id="edge75" class="edge">
<title>Node33&#45;&gt;Node10</title>
<path fill="none" stroke="#63b8ff" d="M2868.08,-513.76C2996.15,-510.59 3472.06,-497.06 3533.43,-470 3580.31,-449.33 3616.43,-441.23 3616.43,-390 3616.43,-390 3616.43,-390 3616.43,-135 3616.43,-74.55 3563.68,-74.41 3506.43,-55 3422.48,-26.53 2056.77,-13.31 1779.36,-10.91"/>
<polygon fill="#63b8ff" stroke="#63b8ff" points="1779.24,-7.4 1769.21,-10.82 1779.18,-14.4 1779.24,-7.4"/>
</g>
<!-- Node33&#45;&gt;Node25 -->
<g id="edge74" class="edge">
<title>Node33&#45;&gt;Node25</title>
<path fill="none" stroke="#63b8ff" d="M2804.68,-508.58C2798.32,-507.58 2791.68,-506.65 2785.43,-506 2399.61,-466.04 2300.88,-488.27 1913.43,-470 1849.6,-466.99 1777.12,-463.11 1724.27,-460.2"/>
<polygon fill="#63b8ff" stroke="#63b8ff" points="1724.15,-456.69 1713.97,-459.63 1723.77,-463.68 1724.15,-456.69"/>
</g>
<!-- Node33&#45;&gt;Node26 -->
<g id="edge65" class="edge">
<title>Node33&#45;&gt;Node26</title>
<path fill="none" stroke="#63b8ff" d="M2830.92,-505.63C2821.14,-490.49 2799.41,-459.41 2774.43,-440 2757.59,-426.91 2736.76,-416.11 2718.11,-407.94"/>
<polygon fill="#63b8ff" stroke="#63b8ff" points="2719.45,-404.7 2708.87,-404.02 2716.71,-411.15 2719.45,-404.7"/>
</g>
<!-- Node33&#45;&gt;Node27 -->
<g id="edge73" class="edge">
<title>Node33&#45;&gt;Node27</title>
<path fill="none" stroke="#63b8ff" d="M2807.5,-505.93C2760.38,-491.99 2664.11,-463.58 2582.43,-440 2535.9,-426.57 2482.38,-411.4 2446.68,-401.33"/>
<polygon fill="#63b8ff" stroke="#63b8ff" points="2447.24,-397.85 2436.66,-398.5 2445.34,-404.59 2447.24,-397.85"/>
</g>
<!-- Node34 -->
<g id="node32" class="node">
<title>Node34</title>
<g id="a_node32"><a xlink:href="_mat_params_8hpp.html" target="_top" xlink:title=" ">
<polygon fill="white" stroke="#666666" points="2338.43,-272 2246.43,-272 2246.43,-253 2338.43,-253 2338.43,-272"/>
<text text-anchor="middle" x="2292.43" y="-260" font-family="Helvetica,sans-Serif" font-size="10.00">MatParams.hpp</text>
</a>
</g>
</g>
<!-- Node33&#45;&gt;Node34 -->
<g id="edge66" class="edge">
<title>Node33&#45;&gt;Node34</title>
<path fill="none" stroke="#63b8ff" d="M2834.88,-505.86C2829.8,-480.28 2810.98,-404.8 2761.43,-374 2635.76,-295.87 2571.73,-381.97 2430.43,-338 2385.78,-324.11 2338.93,-295.32 2312.92,-277.88"/>
<polygon fill="#63b8ff" stroke="#63b8ff" points="2314.87,-274.97 2304.63,-272.23 2310.92,-280.75 2314.87,-274.97"/>
</g>
<!-- Node34&#45;&gt;Node2 -->
<g id="edge67" class="edge">
<title>Node34&#45;&gt;Node2</title>
<path fill="none" stroke="#63b8ff" d="M2338.49,-254.47C2360.87,-248.48 2385.81,-237.42 2399.43,-217 2406.83,-205.91 2407.46,-197.64 2399.43,-187 2386.01,-169.21 2334.28,-155.85 2290.51,-147.44"/>
<polygon fill="#63b8ff" stroke="#63b8ff" points="2290.92,-143.95 2280.45,-145.56 2289.64,-150.83 2290.92,-143.95"/>
</g>
<!-- Node34&#45;&gt;Node10 -->
<g id="edge71" class="edge">
<title>Node34&#45;&gt;Node10</title>
<path fill="none" stroke="#63b8ff" d="M2338.62,-257.62C2365.8,-252.69 2398.15,-241.63 2415.43,-217 2470.66,-138.29 2447.07,-130.1 2288.43,-55 2198.9,-12.62 1898.15,-9.52 1779.32,-10.01"/>
<polygon fill="#63b8ff" stroke="#63b8ff" points="1779.05,-6.51 1769.07,-10.06 1779.09,-13.51 1779.05,-6.51"/>
</g>
<!-- Node34&#45;&gt;Node12 -->
<g id="edge68" class="edge">
<title>Node34&#45;&gt;Node12</title>
<path fill="none" stroke="#63b8ff" d="M2253.13,-252.94C2110.94,-221.99 1623.34,-115.83 1466.47,-81.68"/>
<polygon fill="#63b8ff" stroke="#63b8ff" points="1467.13,-78.24 1456.62,-79.53 1465.64,-85.08 1467.13,-78.24"/>
</g>
<!-- Node35 -->
<g id="node33" class="node">
<title>Node35</title>
<g id="a_node33"><a xlink:href="_expression_value_8hpp.html" target="_top" xlink:title=" ">
<polygon fill="white" stroke="#666666" points="2389.93,-217 2252.93,-217 2252.93,-187 2389.93,-187 2389.93,-217"/>
<text text-anchor="start" x="2260.93" y="-205" font-family="Helvetica,sans-Serif" font-size="10.00">polyfem/utils/Expression</text>
<text text-anchor="middle" x="2321.43" y="-194" font-family="Helvetica,sans-Serif" font-size="10.00">Value.hpp</text>
</a>
</g>
</g>
<!-- Node34&#45;&gt;Node35 -->
<g id="edge69" class="edge">
<title>Node34&#45;&gt;Node35</title>
<path fill="none" stroke="#63b8ff" d="M2296.71,-252.87C2300.21,-245.81 2305.32,-235.5 2309.99,-226.08"/>
<polygon fill="#63b8ff" stroke="#63b8ff" points="2313.13,-227.63 2314.43,-217.11 2306.86,-224.52 2313.13,-227.63"/>
</g>
<!-- Node35&#45;&gt;Node2 -->
<g id="edge70" class="edge">
<title>Node35&#45;&gt;Node2</title>
<path fill="none" stroke="#63b8ff" d="M2299.9,-186.8C2283.95,-176.27 2262.28,-161.97 2246.25,-151.4"/>
<polygon fill="#63b8ff" stroke="#63b8ff" points="2247.83,-148.24 2237.55,-145.66 2243.97,-154.09 2247.83,-148.24"/>
</g>
<!-- Node36&#45;&gt;Node2 -->
<g id="edge78" class="edge">
<title>Node36&#45;&gt;Node2</title>
<path fill="none" stroke="#63b8ff" d="M2992.72,-445.4C2970.59,-437.44 2939.85,-423.83 2918.43,-404 2861.27,-351.07 2884.41,-308.19 2829.43,-253 2788.92,-212.34 2772.94,-204.98 2718.43,-187 2642.17,-161.84 2415.24,-146.82 2297.35,-140.5"/>
<polygon fill="#63b8ff" stroke="#63b8ff" points="2297.5,-137.01 2287.33,-139.97 2297.13,-144 2297.5,-137.01"/>
</g>
<!-- Node36&#45;&gt;Node10 -->
<g id="edge80" class="edge">
<title>Node36&#45;&gt;Node10</title>
<path fill="none" stroke="#63b8ff" d="M3037.71,-445.44C3105.61,-411.22 3350.43,-282.36 3350.43,-203 3350.43,-203 3350.43,-203 3350.43,-135 3350.43,-90.02 3328.53,-75.37 3288.43,-55 3219.61,-20.04 2035.37,-12.05 1779.08,-10.72"/>
<polygon fill="#63b8ff" stroke="#63b8ff" points="1778.98,-7.22 1768.97,-10.67 1778.95,-14.22 1778.98,-7.22"/>
</g>
<!-- Node36&#45;&gt;Node26 -->
<g id="edge77" class="edge">
<title>Node36&#45;&gt;Node26</title>
<path fill="none" stroke="#63b8ff" d="M2978.09,-446.28C2923.52,-436.33 2827.28,-418.78 2756.74,-405.92"/>
<polygon fill="#63b8ff" stroke="#63b8ff" points="2756.99,-402.41 2746.52,-404.06 2755.73,-409.29 2756.99,-402.41"/>
</g>
<!-- Node36&#45;&gt;Node27 -->
<g id="edge79" class="edge">
<title>Node36&#45;&gt;Node27</title>
<path fill="none" stroke="#63b8ff" d="M2978.23,-449.6C2879.87,-439.35 2633.51,-413.67 2498.49,-399.6"/>
<polygon fill="#63b8ff" stroke="#63b8ff" points="2498.47,-396.08 2488.16,-398.52 2497.75,-403.04 2498.47,-396.08"/>
</g>
<!-- Node37&#45;&gt;Node2 -->
<g id="edge83" class="edge">
<title>Node37&#45;&gt;Node2</title>
<path fill="none" stroke="#63b8ff" d="M3205.38,-445.43C3164.06,-406.89 2987.65,-248.85 2809.43,-187 2716.75,-154.83 2432.71,-142.77 2297.48,-138.77"/>
<polygon fill="#63b8ff" stroke="#63b8ff" points="2297.31,-135.26 2287.22,-138.47 2297.11,-142.26 2297.31,-135.26"/>
</g>
<!-- Node37&#45;&gt;Node10 -->
<g id="edge86" class="edge">
<title>Node37&#45;&gt;Node10</title>
<path fill="none" stroke="#63b8ff" d="M3226.66,-445.32C3266.27,-416.09 3388.43,-316.73 3388.43,-203 3388.43,-203 3388.43,-203 3388.43,-135 3388.43,-89.47 3365.19,-75.3 3324.43,-55 3253.66,-19.76 2039.73,-11.98 1779.35,-10.71"/>
<polygon fill="#63b8ff" stroke="#63b8ff" points="1779.1,-7.21 1769.08,-10.66 1779.06,-14.21 1779.1,-7.21"/>
</g>
<!-- Node37&#45;&gt;Node13 -->
<g id="edge87" class="edge">
<title>Node37&#45;&gt;Node13</title>
<path fill="none" stroke="#63b8ff" d="M3212.34,-445.28C3200.63,-396.55 3143.25,-157.67 3126.83,-89.31"/>
<polygon fill="#63b8ff" stroke="#63b8ff" points="3130.22,-88.45 3124.48,-79.54 3123.41,-90.08 3130.22,-88.45"/>
</g>
<!-- Node37&#45;&gt;Node16 -->
<g id="edge84" class="edge">
<title>Node37&#45;&gt;Node16</title>
<path fill="none" stroke="#63b8ff" d="M3182.84,-445.47C3175.2,-443.54 3167.05,-441.6 3159.43,-440 2983.95,-403.18 2939.48,-395.2 2761.43,-374 2360.53,-326.26 2258.53,-330.58 1855.43,-308 1473.21,-286.59 1018.02,-272.06 820.31,-266.29"/>
<polygon fill="#63b8ff" stroke="#63b8ff" points="820.33,-262.79 810.23,-266 820.12,-269.79 820.33,-262.79"/>
</g>
<!-- Node37&#45;&gt;Node26 -->
<g id="edge82" class="edge">
<title>Node37&#45;&gt;Node26</title>
<path fill="none" stroke="#63b8ff" d="M3184.34,-445.49C3176.3,-443.45 3167.58,-441.44 3159.43,-440 3022.47,-415.72 2861.73,-402.11 2762.72,-395.41"/>
<polygon fill="#63b8ff" stroke="#63b8ff" points="2762.95,-391.92 2752.74,-394.74 2762.49,-398.9 2762.95,-391.92"/>
</g>
<!-- Node37&#45;&gt;Node27 -->
<g id="edge85" class="edge">
<title>Node37&#45;&gt;Node27</title>
<path fill="none" stroke="#63b8ff" d="M3185.24,-445.49C3176.96,-443.37 3167.9,-441.33 3159.43,-440 2903.4,-399.86 2835.92,-422.57 2577.43,-404 2553.01,-402.25 2526.65,-400.17 2502.11,-398.17"/>
<polygon fill="#63b8ff" stroke="#63b8ff" points="2502.33,-394.68 2492.08,-397.35 2501.76,-401.65 2502.33,-394.68"/>
</g>
<!-- Node38&#45;&gt;Node2 -->
<g id="edge90" class="edge">
<title>Node38&#45;&gt;Node2</title>
<path fill="none" stroke="#63b8ff" d="M1993.29,-445.5C2035.05,-430.79 2114.85,-396.42 2154.43,-338 2175.4,-307.04 2206.96,-199.41 2219.26,-155.68"/>
<polygon fill="#63b8ff" stroke="#63b8ff" points="2222.7,-156.38 2222.02,-145.81 2215.96,-154.5 2222.7,-156.38"/>
</g>
<!-- Node38&#45;&gt;Node10 -->
<g id="edge92" class="edge">
<title>Node38&#45;&gt;Node10</title>
<path fill="none" stroke="#63b8ff" d="M1967.94,-445.28C1975.51,-398.35 2004.94,-173.53 1896.43,-55 1880.67,-37.78 1822.17,-24.99 1779.06,-17.64"/>
<polygon fill="#63b8ff" stroke="#63b8ff" points="1779.45,-14.16 1769.02,-15.98 1778.31,-21.07 1779.45,-14.16"/>
</g>
<!-- Node38&#45;&gt;Node26 -->
<g id="edge89" class="edge">
<title>Node38&#45;&gt;Node26</title>
<path fill="none" stroke="#63b8ff" d="M2010.67,-449.97C2123.22,-439.73 2422.36,-412.49 2575.8,-398.52"/>
<polygon fill="#63b8ff" stroke="#63b8ff" points="2576.5,-401.98 2586.14,-397.58 2575.86,-395 2576.5,-401.98"/>
</g>
<!-- Node38&#45;&gt;Node27 -->
<g id="edge91" class="edge">
<title>Node38&#45;&gt;Node27</title>
<path fill="none" stroke="#63b8ff" d="M2010.63,-447.57C2087.51,-436.39 2246.35,-413.28 2337.71,-400"/>
<polygon fill="#63b8ff" stroke="#63b8ff" points="2338.3,-403.45 2347.69,-398.54 2337.29,-396.52 2338.3,-403.45"/>
</g>
<!-- Node39&#45;&gt;Node2 -->
<g id="edge96" class="edge">
<title>Node39&#45;&gt;Node2</title>
<path fill="none" stroke="#63b8ff" d="M2134.75,-505.71C2136.92,-491.71 2141.6,-463.5 2147.43,-440 2166.23,-364.13 2180.18,-347.76 2199.43,-272 2205.57,-247.84 2205.84,-241.5 2210.43,-217 2214.32,-196.26 2218.45,-172.42 2221.2,-156.2"/>
<polygon fill="#63b8ff" stroke="#63b8ff" points="2224.73,-156.33 2222.95,-145.89 2217.83,-155.17 2224.73,-156.33"/>
</g>
<!-- Node39&#45;&gt;Node10 -->
<g id="edge99" class="edge">
<title>Node39&#45;&gt;Node10</title>
<path fill="none" stroke="#63b8ff" d="M2141.61,-505.66C2154.69,-491.58 2181.21,-463.27 2204.43,-440 2204.83,-439.6 2437.19,-217.51 2437.43,-217 2455.68,-178.37 2463.48,-158.18 2442.43,-121 2414.34,-71.39 2386.78,-72.24 2332.43,-55 2229.78,-22.45 1903.98,-13.48 1779.46,-11.21"/>
<polygon fill="#63b8ff" stroke="#63b8ff" points="1779.16,-7.71 1769.1,-11.03 1779.04,-14.7 1779.16,-7.71"/>
</g>
<!-- Node39&#45;&gt;Node13 -->
<g id="edge100" class="edge">
<title>Node39&#45;&gt;Node13</title>
<path fill="none" stroke="#63b8ff" d="M2148.59,-505.99C2163.3,-497.51 2186.04,-483.79 2204.43,-470 2255.82,-431.48 2262.25,-414.08 2312.43,-374 2384.61,-316.34 2395.23,-286.23 2481.43,-253 2612.09,-202.63 2659.35,-253.9 2794.43,-217 2914.15,-184.3 3046.05,-114.15 3098.77,-84.58"/>
<polygon fill="#63b8ff" stroke="#63b8ff" points="3100.69,-87.52 3107.67,-79.55 3097.24,-81.42 3100.69,-87.52"/>
</g>
<!-- Node39&#45;&gt;Node25 -->
<g id="edge97" class="edge">
<title>Node39&#45;&gt;Node25</title>
<path fill="none" stroke="#63b8ff" d="M2077.91,-507.79C1990.86,-497.27 1822.11,-476.87 1724.38,-465.06"/>
<polygon fill="#63b8ff" stroke="#63b8ff" points="1724.62,-461.56 1714.27,-463.84 1723.78,-468.51 1724.62,-461.56"/>
</g>
<!-- Node39&#45;&gt;Node26 -->
<g id="edge94" class="edge">
<title>Node39&#45;&gt;Node26</title>
<path fill="none" stroke="#63b8ff" d="M2178.23,-505.97C2222.39,-497.41 2291.73,-483.59 2351.43,-470 2440.47,-449.72 2542.79,-423.44 2606.78,-406.65"/>
<polygon fill="#63b8ff" stroke="#63b8ff" points="2607.93,-409.96 2616.71,-404.04 2606.15,-403.19 2607.93,-409.96"/>
</g>
<!-- Node39&#45;&gt;Node27 -->
<g id="edge98" class="edge">
<title>Node39&#45;&gt;Node27</title>
<path fill="none" stroke="#63b8ff" d="M2189.02,-508.51C2227.16,-502.68 2277.99,-491.41 2318.43,-470 2348.85,-453.89 2376.97,-424.84 2392.89,-406.53"/>
<polygon fill="#63b8ff" stroke="#63b8ff" points="2395.89,-408.4 2399.67,-398.51 2390.54,-403.88 2395.89,-408.4"/>
</g>
<!-- Node39&#45;&gt;Node34 -->
<g id="edge95" class="edge">
<title>Node39&#45;&gt;Node34</title>
<path fill="none" stroke="#63b8ff" d="M2136.84,-505.91C2145.95,-483.39 2172.22,-421.13 2202.43,-374 2208.75,-364.14 2254.99,-308.38 2278.61,-280.04"/>
<polygon fill="#63b8ff" stroke="#63b8ff" points="2281.43,-282.13 2285.15,-272.21 2276.05,-277.64 2281.43,-282.13"/>
</g>
<!-- Node40&#45;&gt;Node2 -->
<g id="edge104" class="edge">
<title>Node40&#45;&gt;Node2</title>
<path fill="none" stroke="#63b8ff" d="M2406.41,-505.79C2425.95,-481.9 2483.74,-414.4 2544.43,-374 2622.24,-322.21 2774.44,-326.28 2716.43,-253 2689.58,-219.08 2412.26,-168.6 2286.2,-147.19"/>
<polygon fill="#63b8ff" stroke="#63b8ff" points="2286.74,-143.73 2276.3,-145.52 2285.57,-150.64 2286.74,-143.73"/>
</g>
<!-- Node40&#45;&gt;Node10 -->
<g id="edge107" class="edge">
<title>Node40&#45;&gt;Node10</title>
<path fill="none" stroke="#63b8ff" d="M2413.15,-505.91C2426.72,-497.26 2447.95,-483.31 2465.43,-470 2478.47,-460.07 2562.82,-381.42 2577.43,-374 2768.36,-277.01 3046.43,-477.65 3046.43,-263.5 3046.43,-263.5 3046.43,-263.5 3046.43,-135 3046.43,-70.06 2017.3,-22.61 1779.19,-12.51"/>
<polygon fill="#63b8ff" stroke="#63b8ff" points="1779.24,-9 1769.1,-12.08 1778.95,-16 1779.24,-9"/>
</g>
<!-- Node40&#45;&gt;Node25 -->
<g id="edge105" class="edge">
<title>Node40&#45;&gt;Node25</title>
<path fill="none" stroke="#63b8ff" d="M2328.2,-508.94C2186.17,-497.87 1868.98,-473.12 1724.14,-461.83"/>
<polygon fill="#63b8ff" stroke="#63b8ff" points="1724.26,-458.33 1714.01,-461.04 1723.71,-465.3 1724.26,-458.33"/>
</g>
<!-- Node40&#45;&gt;Node26 -->
<g id="edge102" class="edge">
<title>Node40&#45;&gt;Node26</title>
<path fill="none" stroke="#63b8ff" d="M2470.62,-506.21C2506.37,-499.9 2549.41,-488.93 2584.43,-470 2611.33,-455.46 2636.05,-430.27 2651.81,-412.03"/>
<polygon fill="#63b8ff" stroke="#63b8ff" points="2654.64,-414.11 2658.4,-404.2 2649.28,-409.6 2654.64,-414.11"/>
</g>
<!-- Node40&#45;&gt;Node27 -->
<g id="edge106" class="edge">
<title>Node40&#45;&gt;Node27</title>
<path fill="none" stroke="#63b8ff" d="M2399.91,-505.94C2401.03,-486.04 2403.83,-436.26 2405.37,-408.85"/>
<polygon fill="#63b8ff" stroke="#63b8ff" points="2408.88,-408.8 2405.95,-398.62 2401.89,-408.4 2408.88,-408.8"/>
</g>
<!-- Node40&#45;&gt;Node32 -->
<g id="edge108" class="edge">
<title>Node40&#45;&gt;Node32</title>
<path fill="none" stroke="#63b8ff" d="M2328.38,-511.18C2135.32,-502.1 1613.03,-477.03 1576.43,-470 1499.08,-455.14 1412.37,-421.18 1368.39,-402.64"/>
<polygon fill="#63b8ff" stroke="#63b8ff" points="1369.49,-399.31 1358.91,-398.61 1366.74,-405.75 1369.49,-399.31"/>
</g>
<!-- Node40&#45;&gt;Node34 -->
<g id="edge103" class="edge">
<title>Node40&#45;&gt;Node34</title>
<path fill="none" stroke="#63b8ff" d="M2389.87,-505.86C2371.41,-488.55 2331.06,-447.55 2312.43,-404 2294.96,-363.17 2292.18,-310.18 2292.06,-282.4"/>
<polygon fill="#63b8ff" stroke="#63b8ff" points="2295.56,-282.17 2292.14,-272.14 2288.56,-282.12 2295.56,-282.17"/>
</g>
<!-- Node41&#45;&gt;Node2 -->
<g id="edge111" class="edge">
<title>Node41&#45;&gt;Node2</title>
<path fill="none" stroke="#63b8ff" d="M1109.59,-505.6C1115.38,-490.4 1128.99,-459.25 1149.43,-440 1197.18,-395.03 1219.56,-395.78 1281.43,-374 1306.68,-365.11 1726.46,-278.52 1752.43,-272 1838.52,-250.37 1861.13,-247.67 1944.43,-217 1974.67,-205.87 1979.93,-197.38 2010.43,-187 2061.86,-169.49 2122.3,-155.99 2165.8,-147.46"/>
<polygon fill="#63b8ff" stroke="#63b8ff" points="2166.49,-150.89 2175.65,-145.55 2165.16,-144.01 2166.49,-150.89"/>
</g>
<!-- Node41&#45;&gt;Node7 -->
<g id="edge113" class="edge">
<title>Node41&#45;&gt;Node7</title>
<path fill="none" stroke="#63b8ff" d="M1046,-505.98C1003.41,-498.95 945.46,-487.29 896.43,-470 798.43,-435.44 691.35,-374.38 639.72,-343.32"/>
<polygon fill="#63b8ff" stroke="#63b8ff" points="641.4,-340.24 631.04,-338.06 637.78,-346.23 641.4,-340.24"/>
</g>
<!-- Node41&#45;&gt;Node10 -->
<g id="edge117" class="edge">
<title>Node41&#45;&gt;Node10</title>
<path fill="none" stroke="#63b8ff" d="M1106,-505.69C1105.74,-490.65 1107.25,-459.7 1122.43,-440 1183.56,-360.64 1240.7,-394.5 1323.43,-338 1479.39,-231.48 1483.92,-160.7 1640.43,-55 1659.08,-42.41 1681.8,-31.2 1699.75,-23.18"/>
<polygon fill="#63b8ff" stroke="#63b8ff" points="1701.41,-26.27 1709.18,-19.07 1698.61,-19.86 1701.41,-26.27"/>
</g>
<!-- Node41&#45;&gt;Node12 -->
<g id="edge116" class="edge">
<title>Node41&#45;&gt;Node12</title>
<path fill="none" stroke="#63b8ff" d="M1036.23,-507.84C1012.02,-501.79 987.28,-490.57 972.43,-470 964.63,-459.19 967.24,-452.28 972.43,-440 988.84,-401.21 1002.61,-392.54 1040.43,-374 1142.41,-323.99 1200.64,-403.5 1293.43,-338 1380,-276.88 1407.68,-139.61 1415.08,-89.64"/>
<polygon fill="#63b8ff" stroke="#63b8ff" points="1418.56,-90.02 1416.45,-79.63 1411.62,-89.06 1418.56,-90.02"/>
</g>
<!-- Node41&#45;&gt;Node16 -->
<g id="edge114" class="edge">
<title>Node41&#45;&gt;Node16</title>
<path fill="none" stroke="#63b8ff" d="M1042.2,-505.95C1008.53,-499.53 967.53,-488.53 934.43,-470 843.51,-419.1 762.94,-320.11 732.91,-280.49"/>
<polygon fill="#63b8ff" stroke="#63b8ff" points="735.47,-278.08 726.68,-272.16 729.87,-282.27 735.47,-278.08"/>
</g>
<!-- Node41&#45;&gt;Node25 -->
<g id="edge112" class="edge">
<title>Node41&#45;&gt;Node25</title>
<path fill="none" stroke="#63b8ff" d="M1176.58,-506.94C1279.1,-495.9 1469.07,-475.43 1574.33,-464.09"/>
<polygon fill="#63b8ff" stroke="#63b8ff" points="1574.99,-467.54 1584.55,-462.99 1574.24,-460.58 1574.99,-467.54"/>
</g>
<!-- Node41&#45;&gt;Node27 -->
<g id="edge115" class="edge">
<title>Node41&#45;&gt;Node27</title>
<path fill="none" stroke="#63b8ff" d="M1176.65,-506.88C1179.96,-506.57 1183.23,-506.28 1186.43,-506 1424.74,-485.36 1485.72,-496.68 1723.43,-470 1808.39,-460.46 1828.65,-450.98 1913.43,-440 2051.18,-422.15 2211.27,-406.93 2310.73,-398.12"/>
<polygon fill="#63b8ff" stroke="#63b8ff" points="2311.11,-401.6 2320.76,-397.23 2310.49,-394.63 2311.11,-401.6"/>
</g>
<!-- Node41&#45;&gt;Node32 -->
<g id="edge118" class="edge">
<title>Node41&#45;&gt;Node32</title>
<path fill="none" stroke="#63b8ff" d="M1122.44,-505.94C1162.35,-484.62 1266.44,-429 1314.48,-403.33"/>
<polygon fill="#63b8ff" stroke="#63b8ff" points="1316.13,-406.42 1323.3,-398.62 1312.83,-400.24 1316.13,-406.42"/>
</g>
<!-- Node41&#45;&gt;Node34 -->
<g id="edge110" class="edge">
<title>Node41&#45;&gt;Node34</title>
<path fill="none" stroke="#63b8ff" d="M1114.63,-505.75C1140.25,-479.17 1222.26,-399.64 1309.43,-374 1542.74,-305.36 1613.91,-366.47 1855.43,-338 1995.8,-321.45 2159.66,-290.31 2241.07,-274.02"/>
<polygon fill="#63b8ff" stroke="#63b8ff" points="2241.95,-277.42 2251.06,-272.02 2240.57,-270.56 2241.95,-277.42"/>
</g>
<!-- Node42&#45;&gt;Node2 -->
<g id="edge122" class="edge">
<title>Node42&#45;&gt;Node2</title>
<path fill="none" stroke="#63b8ff" d="M1264.1,-505.97C1257.96,-481.35 1244.22,-409.62 1281.43,-374 1333.77,-323.9 1369.93,-354.73 1440.43,-338 1558.95,-309.88 1589.07,-304.6 1706.43,-272 1830.1,-237.64 1858.11,-218.91 1982.43,-187 2044.83,-170.98 2117.28,-156.56 2166.53,-147.36"/>
<polygon fill="#63b8ff" stroke="#63b8ff" points="2167.17,-150.8 2176.37,-145.54 2165.9,-143.92 2167.17,-150.8"/>
</g>
<!-- Node42&#45;&gt;Node10 -->
<g id="edge127" class="edge">
<title>Node42&#45;&gt;Node10</title>
<path fill="none" stroke="#63b8ff" d="M1211.28,-506C1160.64,-497.87 1083.66,-484.71 1017.43,-470 936.75,-452.09 374.19,-309.28 300.43,-272 264.17,-253.68 245.83,-253.22 227.43,-217 208.1,-178.96 213.64,-161.71 226.43,-121 237.14,-86.89 240.99,-72.03 272.43,-55 288.28,-46.42 1429.69,-17.89 1681.59,-11.69"/>
<polygon fill="#63b8ff" stroke="#63b8ff" points="1681.98,-15.19 1691.89,-11.44 1681.81,-8.19 1681.98,-15.19"/>
</g>
<!-- Node42&#45;&gt;Node12 -->
<g id="edge126" class="edge">
<title>Node42&#45;&gt;Node12</title>
<path fill="none" stroke="#63b8ff" d="M1247.55,-505.81C1182.06,-474.44 972.39,-363.11 1041.43,-253 1051.65,-236.69 1303.55,-122.25 1389.22,-83.66"/>
<polygon fill="#63b8ff" stroke="#63b8ff" points="1390.67,-86.85 1398.36,-79.55 1387.8,-80.46 1390.67,-86.85"/>
</g>
<!-- Node42&#45;&gt;Node16 -->
<g id="edge124" class="edge">
<title>Node42&#45;&gt;Node16</title>
<path fill="none" stroke="#63b8ff" d="M1216.8,-506C1180.01,-498.8 1129.06,-486.93 1086.43,-470 947.02,-414.64 795.46,-315 741.19,-277.92"/>
<polygon fill="#63b8ff" stroke="#63b8ff" points="742.99,-274.91 732.77,-272.13 739.03,-280.68 742.99,-274.91"/>
</g>
<!-- Node42&#45;&gt;Node25 -->
<g id="edge123" class="edge">
<title>Node42&#45;&gt;Node25</title>
<path fill="none" stroke="#63b8ff" d="M1322.12,-505.99C1388.7,-495.82 1500.4,-478.76 1574.5,-467.44"/>
<polygon fill="#63b8ff" stroke="#63b8ff" points="1575.35,-470.86 1584.7,-465.89 1574.29,-463.94 1575.35,-470.86"/>
</g>
<!-- Node42&#45;&gt;Node26 -->
<g id="edge120" class="edge">
<title>Node42&#45;&gt;Node26</title>
<path fill="none" stroke="#63b8ff" d="M1338.11,-513.75C1490.82,-511.53 1859.41,-502.92 2166.43,-470 2247.51,-461.31 2266.92,-452.92 2347.43,-440 2424.44,-427.64 2511.9,-414.09 2576.21,-404.22"/>
<polygon fill="#63b8ff" stroke="#63b8ff" points="2576.98,-407.64 2586.33,-402.67 2575.92,-400.72 2576.98,-407.64"/>
</g>
<!-- Node42&#45;&gt;Node27 -->
<g id="edge125" class="edge">
<title>Node42&#45;&gt;Node27</title>
<path fill="none" stroke="#63b8ff" d="M1338.13,-513.71C1472.4,-511.47 1770.65,-502.89 2019.43,-470 2145.68,-453.31 2292.31,-418.76 2363.39,-401.03"/>
<polygon fill="#63b8ff" stroke="#63b8ff" points="2364.47,-404.37 2373.32,-398.54 2362.77,-397.58 2364.47,-404.37"/>
</g>
<!-- Node42&#45;&gt;Node32 -->
<g id="edge128" class="edge">
<title>Node42&#45;&gt;Node32</title>
<path fill="none" stroke="#63b8ff" d="M1271.45,-505.94C1283.32,-485.69 1313.35,-434.47 1329.23,-407.4"/>
<polygon fill="#63b8ff" stroke="#63b8ff" points="1332.34,-409.01 1334.38,-398.62 1326.3,-405.47 1332.34,-409.01"/>
</g>
<!-- Node42&#45;&gt;Node34 -->
<g id="edge121" class="edge">
<title>Node42&#45;&gt;Node34</title>
<path fill="none" stroke="#63b8ff" d="M1266.03,-505.74C1265.4,-480.5 1267.43,-407.26 1309.43,-374 1357.09,-336.25 1795.05,-345.12 1855.43,-338 1995.8,-321.45 2159.66,-290.31 2241.07,-274.02"/>
<polygon fill="#63b8ff" stroke="#63b8ff" points="2241.95,-277.42 2251.06,-272.02 2240.57,-270.56 2241.95,-277.42"/>
</g>
<!-- Node43&#45;&gt;Node2 -->
<g id="edge131" class="edge">
<title>Node43&#45;&gt;Node2</title>
<path fill="none" stroke="#63b8ff" d="M2726.61,-505.89C2735.22,-487.64 2754.66,-443.5 2761.43,-404 2772.93,-336.88 2778.95,-305.37 2735.43,-253 2680.09,-186.41 2424.54,-154.71 2297.1,-142.84"/>
<polygon fill="#63b8ff" stroke="#63b8ff" points="2297.31,-139.34 2287.04,-141.91 2296.68,-146.31 2297.31,-139.34"/>
</g>
<!-- Node43&#45;&gt;Node10 -->
<g id="edge134" class="edge">
<title>Node43&#45;&gt;Node10</title>
<path fill="none" stroke="#63b8ff" d="M2776.14,-507.92C2782.97,-507.21 2789.86,-506.54 2796.43,-506 2874.82,-499.51 3440.18,-516.76 3503.43,-470 3581.94,-411.95 3578.43,-361.14 3578.43,-263.5 3578.43,-263.5 3578.43,-263.5 3578.43,-135 3578.43,-61.01 3503.86,-74.29 3432.43,-55 3269.44,-11 2041.88,-10.09 1779.63,-10.41"/>
<polygon fill="#63b8ff" stroke="#63b8ff" points="1779.28,-6.91 1769.29,-10.42 1779.29,-13.91 1779.28,-6.91"/>
</g>
<!-- Node43&#45;&gt;Node13 -->
<g id="edge135" class="edge">
<title>Node43&#45;&gt;Node13</title>
<path fill="none" stroke="#63b8ff" d="M2776.16,-508.08C2782.98,-507.34 2789.86,-506.63 2796.43,-506 2848.9,-500.99 3233.6,-508.66 3269.43,-470 3378.94,-351.84 3194.91,-145.17 3138.23,-86.77"/>
<polygon fill="#63b8ff" stroke="#63b8ff" points="3140.63,-84.22 3131.12,-79.54 3135.64,-89.13 3140.63,-84.22"/>
</g>
<!-- Node43&#45;&gt;Node25 -->
<g id="edge132" class="edge">
<title>Node43&#45;&gt;Node25</title>
<path fill="none" stroke="#63b8ff" d="M2668.85,-511.58C2492.3,-501.95 1928.47,-471.21 1724.22,-460.08"/>
<polygon fill="#63b8ff" stroke="#63b8ff" points="1724.36,-456.58 1714.18,-459.53 1723.98,-463.57 1724.36,-456.58"/>
</g>
<!-- Node43&#45;&gt;Node26 -->
<g id="edge130" class="edge">
<title>Node43&#45;&gt;Node26</title>
<path fill="none" stroke="#63b8ff" d="M2718.79,-505.94C2710.79,-487.15 2691.45,-441.73 2679.49,-413.64"/>
<polygon fill="#63b8ff" stroke="#63b8ff" points="2682.59,-411.99 2675.46,-404.16 2676.15,-414.73 2682.59,-411.99"/>
</g>
<!-- Node43&#45;&gt;Node27 -->
<g id="edge133" class="edge">
<title>Node43&#45;&gt;Node27</title>
<path fill="none" stroke="#63b8ff" d="M2700.71,-505.94C2645.91,-484.35 2501.87,-427.6 2437.86,-402.38"/>
<polygon fill="#63b8ff" stroke="#63b8ff" points="2438.89,-399.03 2428.3,-398.62 2436.32,-405.54 2438.89,-399.03"/>
</g>
<!-- Node44&#45;&gt;Node2 -->
<g id="edge140" class="edge">
<title>Node44&#45;&gt;Node2</title>
<path fill="none" stroke="#63b8ff" d="M1260.47,-313.47C1314.43,-304.09 1402.76,-288.18 1478.43,-272 1635.81,-238.34 1672.13,-216.06 1830.43,-187 1941.58,-166.59 2071.9,-151.82 2151.28,-143.83"/>
<polygon fill="#63b8ff" stroke="#63b8ff" points="2152.06,-147.28 2161.66,-142.8 2151.36,-140.31 2152.06,-147.28"/>
</g>
<!-- Node44&#45;&gt;Node10 -->
<g id="edge141" class="edge">
<title>Node44&#45;&gt;Node10</title>
<path fill="none" stroke="#63b8ff" d="M1223.51,-313.37C1238.24,-303.57 1262.81,-287 1283.43,-272 1411.02,-179.16 1423.02,-125.02 1564.43,-55 1601.63,-36.58 1647.41,-25.04 1681.47,-18.34"/>
<polygon fill="#63b8ff" stroke="#63b8ff" points="1682.47,-21.71 1691.64,-16.42 1681.17,-14.84 1682.47,-21.71"/>
</g>
<!-- Node44&#45;&gt;Node12 -->
<g id="edge138" class="edge">
<title>Node44&#45;&gt;Node12</title>
<path fill="none" stroke="#63b8ff" d="M1219.56,-313.25C1244.74,-288.9 1316.65,-217.7 1367.43,-151 1382.87,-130.71 1398.03,-105.51 1407.53,-88.88"/>
<polygon fill="#63b8ff" stroke="#63b8ff" points="1410.81,-90.18 1412.67,-79.75 1404.71,-86.75 1410.81,-90.18"/>
</g>
<!-- Node44&#45;&gt;Node13 -->
<g id="edge142" class="edge">
<title>Node44&#45;&gt;Node13</title>
<path fill="none" stroke="#63b8ff" d="M1237.48,-313.44C1268.29,-303.65 1320.1,-287.01 1364.43,-272 1555.48,-207.29 1594.28,-158.77 1792.43,-121 1921.12,-96.47 2865.65,-76.16 3079.48,-71.85"/>
<polygon fill="#63b8ff" stroke="#63b8ff" points="3079.75,-75.34 3089.68,-71.64 3079.61,-68.34 3079.75,-75.34"/>
</g>
<!-- Node44&#45;&gt;Node14 -->
<g id="edge144" class="edge">
<title>Node44&#45;&gt;Node14</title>
<path fill="none" stroke="#63b8ff" d="M1215.25,-313.09C1222.39,-298.57 1233.39,-269.72 1218.43,-253 1170.27,-199.18 965.17,-235.76 895.43,-217 825.09,-198.08 807.85,-188.53 745.43,-151 726.99,-139.91 725.72,-132.33 707.43,-121 683.43,-106.13 654.31,-92.7 632.66,-83.5"/>
<polygon fill="#63b8ff" stroke="#63b8ff" points="633.87,-80.21 623.29,-79.59 631.17,-86.67 633.87,-80.21"/>
</g>
<!-- Node44&#45;&gt;Node15 -->
<g id="edge143" class="edge">
<title>Node44&#45;&gt;Node15</title>
<path fill="none" stroke="#63b8ff" d="M1167.72,-313.45C1012.28,-282.33 477.98,-175.35 326.66,-145.05"/>
<polygon fill="#63b8ff" stroke="#63b8ff" points="327.34,-141.62 316.84,-143.09 325.96,-148.48 327.34,-141.62"/>
</g>
<!-- Node44&#45;&gt;Node24 -->
<g id="edge139" class="edge">
<title>Node44&#45;&gt;Node24</title>
<path fill="none" stroke="#63b8ff" d="M1198.48,-313.37C1185.68,-304.12 1165.13,-289.28 1149.77,-278.19"/>
<polygon fill="#63b8ff" stroke="#63b8ff" points="1151.59,-275.18 1141.43,-272.17 1147.49,-280.86 1151.59,-275.18"/>
</g>
<!-- Node44&#45;&gt;Node34 -->
<g id="edge137" class="edge">
<title>Node44&#45;&gt;Node34</title>
<path fill="none" stroke="#63b8ff" d="M1284.8,-317.98C1489,-306.94 2055.17,-276.33 2236.08,-266.55"/>
<polygon fill="#63b8ff" stroke="#63b8ff" points="2236.38,-270.04 2246.18,-266 2236,-263.05 2236.38,-270.04"/>
</g>
<!-- Node45&#45;&gt;Node2 -->
<g id="edge147" class="edge">
<title>Node45&#45;&gt;Node2</title>
<path fill="none" stroke="#63b8ff" d="M1741.01,-560.89C1764.83,-553.54 1797.68,-541.52 1823.43,-525 1834.86,-517.66 2134.24,-225.19 2208.08,-152.99"/>
<polygon fill="#63b8ff" stroke="#63b8ff" points="2210.89,-155.14 2215.59,-145.65 2205.99,-150.14 2210.89,-155.14"/>
</g>
<!-- Node45&#45;&gt;Node10 -->
<g id="edge164" class="edge">
<title>Node45&#45;&gt;Node10</title>
<path fill="none" stroke="#63b8ff" d="M1687.89,-560.9C1656.61,-547.09 1599.8,-516.67 1576.43,-470 1570.46,-458.08 1574.56,-453.2 1576.43,-440 1597.08,-293.9 1623.69,-261.61 1668.43,-121 1677.85,-91.4 1675.79,-81.84 1691.43,-55 1697.48,-44.61 1706.15,-34.43 1713.77,-26.43"/>
<polygon fill="#63b8ff" stroke="#63b8ff" points="1716.36,-28.79 1720.92,-19.23 1711.39,-23.86 1716.36,-28.79"/>
</g>
<!-- Node45&#45;&gt;Node25 -->
<g id="edge148" class="edge">
<title>Node45&#45;&gt;Node25</title>
<path fill="none" stroke="#63b8ff" d="M1704.92,-560.97C1695.83,-543.78 1675.05,-504.47 1661.66,-479.13"/>
<polygon fill="#63b8ff" stroke="#63b8ff" points="1664.69,-477.39 1656.93,-470.18 1658.51,-480.66 1664.69,-477.39"/>
</g>
<!-- Node45&#45;&gt;Node26 -->
<g id="edge146" class="edge">
<title>Node45&#45;&gt;Node26</title>
<path fill="none" stroke="#63b8ff" d="M1755.52,-568.77C1899.61,-566.19 2340.21,-555.91 2479.43,-525 2543.88,-510.69 2566.38,-511.87 2617.43,-470 2636.13,-454.67 2650.41,-430.81 2659.23,-413.14"/>
<polygon fill="#63b8ff" stroke="#63b8ff" points="2662.42,-414.58 2663.56,-404.04 2656.1,-411.57 2662.42,-414.58"/>
</g>
<!-- Node45&#45;&gt;Node32 -->
<g id="edge165" class="edge">
<title>Node45&#45;&gt;Node32</title>
<path fill="none" stroke="#63b8ff" d="M1663.11,-562.27C1621.08,-555.04 1557.72,-542.49 1504.43,-525 1447.53,-506.33 1425.09,-510.99 1381.43,-470 1363.16,-452.85 1351.34,-425.95 1345.03,-408.15"/>
<polygon fill="#63b8ff" stroke="#63b8ff" points="1348.34,-407.03 1341.88,-398.63 1341.7,-409.23 1348.34,-407.03"/>
</g>
<!-- Node45&#45;&gt;Node39 -->
<g id="edge149" class="edge">
<title>Node45&#45;&gt;Node39</title>
<path fill="none" stroke="#63b8ff" d="M1755.61,-563.73C1831.07,-554.29 1981.05,-535.55 2067.62,-524.73"/>
<polygon fill="#63b8ff" stroke="#63b8ff" points="2068.11,-528.19 2077.6,-523.48 2067.24,-521.25 2068.11,-528.19"/>
</g>
<!-- Node45&#45;&gt;Node41 -->
<g id="edge150" class="edge">
<title>Node45&#45;&gt;Node41</title>
<path fill="none" stroke="#63b8ff" d="M1663.23,-565.9C1573.67,-558.84 1369.95,-542.44 1186.75,-525.01"/>
<polygon fill="#63b8ff" stroke="#63b8ff" points="1186.95,-521.51 1176.66,-524.05 1186.28,-528.48 1186.95,-521.51"/>
</g>
<!-- Node45&#45;&gt;Node42 -->
<g id="edge151" class="edge">
<title>Node45&#45;&gt;Node42</title>
<path fill="none" stroke="#63b8ff" d="M1663.27,-563.98C1588.62,-555.05 1440.41,-537.31 1347.75,-526.23"/>
<polygon fill="#63b8ff" stroke="#63b8ff" points="1347.92,-522.72 1337.57,-525.01 1347.09,-529.67 1347.92,-522.72"/>
</g>
<!-- Node45&#45;&gt;Node43 -->
<g id="edge152" class="edge">
<title>Node45&#45;&gt;Node43</title>
<path fill="none" stroke="#63b8ff" d="M1755.73,-568.59C1893.05,-565.61 2309.96,-554.59 2654.43,-525 2655.73,-524.89 2657.04,-524.77 2658.37,-524.65"/>
<polygon fill="#63b8ff" stroke="#63b8ff" points="2659.05,-528.1 2668.65,-523.61 2658.35,-521.13 2659.05,-528.1"/>
</g>
<!-- Node45&#45;&gt;Node44 -->
<g id="edge153" class="edge">
<title>Node45&#45;&gt;Node44</title>
<path fill="none" stroke="#63b8ff" d="M1663.29,-569.27C1530.05,-568.17 1146.61,-561.82 1027.43,-525 981.55,-510.83 958.22,-511.71 934.43,-470 925.88,-455.01 920.68,-392.31 936.43,-374 960.7,-345.78 1054.84,-333.42 1126.06,-328.05"/>
<polygon fill="#63b8ff" stroke="#63b8ff" points="1126.67,-331.52 1136.39,-327.31 1126.17,-324.53 1126.67,-331.52"/>
</g>
<!-- Node45&#45;&gt;Node46 -->
<g id="edge154" class="edge">
<title>Node45&#45;&gt;Node46</title>
<path fill="none" stroke="#63b8ff" d="M1717.36,-560.75C1724.28,-553.11 1734.49,-541.82 1742.88,-532.56"/>
<polygon fill="#63b8ff" stroke="#63b8ff" points="1745.53,-534.85 1749.65,-525.09 1740.34,-530.15 1745.53,-534.85"/>
</g>
<!-- Node46&#45;&gt;Node2 -->
<g id="edge155" class="edge">
<title>Node46&#45;&gt;Node2</title>
<path fill="none" stroke="#63b8ff" d="M1774.18,-505.93C1789.83,-497.61 1813.54,-484.18 1832.43,-470 1979.51,-359.53 1985.8,-295.37 2134.43,-187 2154.23,-172.56 2178.64,-159.25 2197.04,-149.99"/>
<polygon fill="#63b8ff" stroke="#63b8ff" points="2198.64,-153.11 2206.05,-145.54 2195.54,-146.83 2198.64,-153.11"/>
</g>
<!-- Node46&#45;&gt;Node10 -->
<g id="edge162" class="edge">
<title>Node46&#45;&gt;Node10</title>
<path fill="none" stroke="#63b8ff" d="M1766.53,-505.62C1793.68,-478.01 1871.31,-390.62 1855.43,-308 1833.8,-195.48 1766.94,-72.85 1740.93,-28.1"/>
<polygon fill="#63b8ff" stroke="#63b8ff" points="1743.86,-26.16 1735.77,-19.31 1737.82,-29.71 1743.86,-26.16"/>
</g>
<!-- Node46&#45;&gt;Node12 -->
<g id="edge161" class="edge">
<title>Node46&#45;&gt;Node12</title>
<path fill="none" stroke="#63b8ff" d="M1700.67,-513.69C1661.53,-510.27 1610.6,-499.75 1576.43,-470 1455.18,-364.44 1425.39,-153.71 1419,-89.8"/>
<polygon fill="#63b8ff" stroke="#63b8ff" points="1422.47,-89.27 1418.06,-79.64 1415.5,-89.92 1422.47,-89.27"/>
</g>
<!-- Node46&#45;&gt;Node24 -->
<g id="edge160" class="edge">
<title>Node46&#45;&gt;Node24</title>
<path fill="none" stroke="#63b8ff" d="M1700.9,-507.57C1656.77,-501.03 1594.43,-489.3 1542.43,-470 1459.99,-439.41 1452.81,-401.92 1369.43,-374 1314.95,-355.76 1151.12,-381.36 1113.43,-338 1099.65,-322.14 1109.12,-297.28 1118.31,-280.7"/>
<polygon fill="#63b8ff" stroke="#63b8ff" points="1121.37,-282.4 1123.5,-272.02 1115.36,-278.8 1121.37,-282.4"/>
</g>
<!-- Node46&#45;&gt;Node25 -->
<g id="edge156" class="edge">
<title>Node46&#45;&gt;Node25</title>
<path fill="none" stroke="#63b8ff" d="M1741.49,-505.87C1726.5,-497.75 1703.54,-485.31 1684.3,-474.89"/>
<polygon fill="#63b8ff" stroke="#63b8ff" points="1685.95,-471.8 1675.49,-470.11 1682.61,-477.96 1685.95,-471.8"/>
</g>
<!-- Node46&#45;&gt;Node27 -->
<g id="edge159" class="edge">
<title>Node46&#45;&gt;Node27</title>
<path fill="none" stroke="#63b8ff" d="M1814.13,-510.55C1887.3,-504.8 2018.28,-492.3 2128.43,-470 2217.72,-451.92 2320.06,-419.29 2372.12,-401.81"/>
<polygon fill="#63b8ff" stroke="#63b8ff" points="2373.49,-405.05 2381.84,-398.53 2371.25,-398.41 2373.49,-405.05"/>
</g>
<!-- Node46&#45;&gt;Node32 -->
<g id="edge163" class="edge">
<title>Node46&#45;&gt;Node32</title>
<path fill="none" stroke="#63b8ff" d="M1700.78,-510.87C1619.83,-505.01 1475.64,-491.84 1428.43,-470 1396.69,-455.31 1368.21,-425.35 1352.42,-406.55"/>
<polygon fill="#63b8ff" stroke="#63b8ff" points="1354.95,-404.11 1345.92,-398.56 1349.52,-408.53 1354.95,-404.11"/>
</g>
<!-- Node47 -->
<g id="node45" class="node">
<title>Node47</title>
<g id="a_node45"><a xlink:href="auto__eigs_8hpp.html" target="_top" xlink:title=" ">
<polygon fill="white" stroke="#666666" points="1845.93,-338 1720.93,-338 1720.93,-308 1845.93,-308 1845.93,-338"/>
<text text-anchor="start" x="1728.93" y="-326" font-family="Helvetica,sans-Serif" font-size="10.00">polyfem/autogen/auto</text>
<text text-anchor="middle" x="1783.43" y="-315" font-family="Helvetica,sans-Serif" font-size="10.00">_eigs.hpp</text>
</a>
</g>
</g>
<!-- Node46&#45;&gt;Node47 -->
<g id="edge157" class="edge">
<title>Node46&#45;&gt;Node47</title>
<path fill="none" stroke="#63b8ff" d="M1758.61,-505.82C1762.4,-478.1 1774.28,-391.02 1780.12,-348.22"/>
<polygon fill="#63b8ff" stroke="#63b8ff" points="1783.62,-348.5 1781.5,-338.12 1776.68,-347.56 1783.62,-348.5"/>
</g>
<!-- Node47&#45;&gt;Node10 -->
<g id="edge158" class="edge">
<title>Node47&#45;&gt;Node10</title>
<path fill="none" stroke="#63b8ff" d="M1781.01,-307.81C1772.41,-257.25 1743.27,-85.97 1733.59,-29.06"/>
<polygon fill="#63b8ff" stroke="#63b8ff" points="1737,-28.27 1731.88,-19 1730.1,-29.45 1737,-28.27"/>
</g>
<!-- Node48&#45;&gt;Node2 -->
<g id="edge168" class="edge">
<title>Node48&#45;&gt;Node2</title>
<path fill="none" stroke="#63b8ff" d="M794.5,-505.91C833.29,-491.57 914.13,-462.16 983.43,-440 1184.79,-375.59 1236.81,-364.89 1440.43,-308 1589.85,-266.25 1628.35,-259.93 1777.43,-217 1821.2,-204.39 1830.97,-196.93 1875.43,-187 1969.8,-165.93 2080.61,-151.82 2151.62,-144.11"/>
<polygon fill="#63b8ff" stroke="#63b8ff" points="2152.24,-147.56 2161.81,-143.02 2151.49,-140.6 2152.24,-147.56"/>
</g>
<!-- Node48&#45;&gt;Node7 -->
<g id="edge170" class="edge">
<title>Node48&#45;&gt;Node7</title>
<path fill="none" stroke="#63b8ff" d="M734.03,-505.9C712.46,-499.26 686.17,-488.07 668.43,-470 659.42,-460.82 631.36,-386.6 617.03,-347.66"/>
<polygon fill="#63b8ff" stroke="#63b8ff" points="620.27,-346.32 613.55,-338.14 613.7,-348.73 620.27,-346.32"/>
</g>
<!-- Node48&#45;&gt;Node10 -->
<g id="edge174" class="edge">
<title>Node48&#45;&gt;Node10</title>
<path fill="none" stroke="#63b8ff" d="M738.72,-505.94C651.75,-481.86 410.95,-406.34 257.43,-272 184.51,-208.19 158.68,-112.82 236.43,-55 251.27,-43.96 1425.64,-17.27 1681.55,-11.58"/>
<polygon fill="#63b8ff" stroke="#63b8ff" points="1681.74,-15.07 1691.66,-11.35 1681.58,-8.08 1681.74,-15.07"/>
</g>
<!-- Node48&#45;&gt;Node12 -->
<g id="edge173" class="edge">
<title>Node48&#45;&gt;Node12</title>
<path fill="none" stroke="#63b8ff" d="M711.8,-509C556.66,-493.04 152.43,-440.3 152.43,-324 152.43,-324 152.43,-324 152.43,-201 152.43,-29.2 215.69,-126.9 1139.43,-85 1207.49,-81.91 1284.89,-77.98 1340.71,-75.07"/>
<polygon fill="#63b8ff" stroke="#63b8ff" points="1341.07,-78.56 1350.88,-74.54 1340.71,-71.57 1341.07,-78.56"/>
</g>
<!-- Node48&#45;&gt;Node16 -->
<g id="edge171" class="edge">
<title>Node48&#45;&gt;Node16</title>
<path fill="none" stroke="#63b8ff" d="M764.63,-505.87C758.26,-497.29 749.06,-483.5 744.43,-470 721.7,-403.77 719.64,-319.33 719.97,-282.31"/>
<polygon fill="#63b8ff" stroke="#63b8ff" points="723.48,-282.1 720.14,-272.05 716.48,-281.99 723.48,-282.1"/>
</g>
<!-- Node48&#45;&gt;Node25 -->
<g id="edge169" class="edge">
<title>Node48&#45;&gt;Node25</title>
<path fill="none" stroke="#63b8ff" d="M831.09,-510.53C986.45,-500.17 1403.33,-472.4 1574.5,-460.99"/>
<polygon fill="#63b8ff" stroke="#63b8ff" points="1574.93,-464.47 1584.68,-460.31 1574.47,-457.49 1574.93,-464.47"/>
</g>
<!-- Node48&#45;&gt;Node26 -->
<g id="edge167" class="edge">
<title>Node48&#45;&gt;Node26</title>
<path fill="none" stroke="#63b8ff" d="M831.28,-512.5C1076.08,-504.3 1989.61,-473.55 2019.43,-470 2085.64,-462.12 2100.5,-449.98 2166.43,-440 2242.97,-428.42 2452.89,-409.05 2576.01,-398.13"/>
<polygon fill="#63b8ff" stroke="#63b8ff" points="2576.53,-401.6 2586.18,-397.23 2575.91,-394.63 2576.53,-401.6"/>
</g>
<!-- Node48&#45;&gt;Node27 -->
<g id="edge172" class="edge">
<title>Node48&#45;&gt;Node27</title>
<path fill="none" stroke="#63b8ff" d="M830.96,-508.33C964.31,-494.66 1297.24,-461.32 1576.43,-440 1841.84,-419.73 2155.51,-402.72 2310.23,-394.79"/>
<polygon fill="#63b8ff" stroke="#63b8ff" points="2310.83,-398.26 2320.64,-394.26 2310.47,-391.27 2310.83,-398.26"/>
</g>
<!-- Node48&#45;&gt;Node32 -->
<g id="edge175" class="edge">
<title>Node48&#45;&gt;Node32</title>
<path fill="none" stroke="#63b8ff" d="M810.47,-505.94C917.13,-482.56 1211.9,-417.95 1308.4,-396.8"/>
<polygon fill="#63b8ff" stroke="#63b8ff" points="1309.38,-400.17 1318.4,-394.61 1307.88,-393.33 1309.38,-400.17"/>
</g>
<!-- Node49&#45;&gt;Node2 -->
<g id="edge179" class="edge">
<title>Node49&#45;&gt;Node2</title>
<path fill="none" stroke="#63b8ff" d="M3099.69,-445.46C3082.66,-436 3054.93,-419.97 3032.43,-404 2908.02,-315.68 2908.17,-243.45 2766.43,-187 2682.98,-153.77 2424.59,-142.32 2297.09,-138.63"/>
<polygon fill="#63b8ff" stroke="#63b8ff" points="2297.12,-135.13 2287.03,-138.34 2296.93,-142.12 2297.12,-135.13"/>
</g>
<!-- Node49&#45;&gt;Node10 -->
<g id="edge182" class="edge">
<title>Node49&#45;&gt;Node10</title>
<path fill="none" stroke="#63b8ff" d="M3126.11,-445.49C3161.76,-416.04 3274.43,-314.16 3274.43,-203 3274.43,-203 3274.43,-203 3274.43,-135 3274.43,-74.55 3221.62,-74.58 3164.43,-55 3031.27,-9.4 2015.39,-9.63 1779.33,-10.31"/>
<polygon fill="#63b8ff" stroke="#63b8ff" points="1778.99,-6.81 1769,-10.34 1779.01,-13.81 1778.99,-6.81"/>
</g>
<!-- Node49&#45;&gt;Node12 -->
<g id="edge181" class="edge">
<title>Node49&#45;&gt;Node12</title>
<path fill="none" stroke="#63b8ff" d="M3109.13,-445.35C3080.21,-406.47 2955.44,-247.2 2809.43,-187 2568.4,-87.62 1750.25,-73.35 1494.49,-71.33"/>
<polygon fill="#63b8ff" stroke="#63b8ff" points="1494.21,-67.82 1484.18,-71.25 1494.16,-74.82 1494.21,-67.82"/>
</g>
<!-- Node49&#45;&gt;Node13 -->
<g id="edge183" class="edge">
<title>Node49&#45;&gt;Node13</title>
<path fill="none" stroke="#63b8ff" d="M3115.59,-445.28C3116.48,-396.65 3120.83,-158.66 3122.09,-89.73"/>
<polygon fill="#63b8ff" stroke="#63b8ff" points="3125.59,-89.6 3122.27,-79.54 3118.59,-89.47 3125.59,-89.6"/>
</g>
<!-- Node49&#45;&gt;Node26 -->
<g id="edge178" class="edge">
<title>Node49&#45;&gt;Node26</title>
<path fill="none" stroke="#63b8ff" d="M3091.44,-445.49C3085.01,-443.45 3078.01,-441.44 3071.43,-440 2966.9,-417.08 2844.62,-403.74 2762.61,-396.69"/>
<polygon fill="#63b8ff" stroke="#63b8ff" points="2762.82,-393.2 2752.57,-395.84 2762.23,-400.17 2762.82,-393.2"/>
</g>
<!-- Node49&#45;&gt;Node27 -->
<g id="edge180" class="edge">
<title>Node49&#45;&gt;Node27</title>
<path fill="none" stroke="#63b8ff" d="M3091.95,-445.4C3085.39,-443.31 3078.2,-441.3 3071.43,-440 2855.27,-398.34 2796.91,-420.98 2577.43,-404 2553.02,-402.11 2526.67,-399.99 2502.13,-397.99"/>
<polygon fill="#63b8ff" stroke="#63b8ff" points="2502.35,-394.49 2492.09,-397.16 2501.78,-401.47 2502.35,-394.49"/>
</g>
<!-- Node50&#45;&gt;Node2 -->
<g id="edge186" class="edge">
<title>Node50&#45;&gt;Node2</title>
<path fill="none" stroke="#63b8ff" d="M3431.96,-445.38C3379.64,-406.64 3157.22,-247.86 2946.43,-187 2826.09,-152.26 2455.28,-141.3 2297.12,-138.16"/>
<polygon fill="#63b8ff" stroke="#63b8ff" points="2297.08,-134.66 2287.01,-137.96 2296.94,-141.65 2297.08,-134.66"/>
</g>
<!-- Node50&#45;&gt;Node10 -->
<g id="edge188" class="edge">
<title>Node50&#45;&gt;Node10</title>
<path fill="none" stroke="#63b8ff" d="M3450.43,-445.48C3466.06,-425.55 3502.43,-373.82 3502.43,-324 3502.43,-324 3502.43,-324 3502.43,-135 3502.43,-62.56 3430.24,-74.33 3360.43,-55 3204.94,-11.94 2033.83,-10.28 1779.2,-10.43"/>
<polygon fill="#63b8ff" stroke="#63b8ff" points="1779.14,-6.93 1769.14,-10.44 1779.15,-13.93 1779.14,-6.93"/>
</g>
<!-- Node50&#45;&gt;Node13 -->
<g id="edge189" class="edge">
<title>Node50&#45;&gt;Node13</title>
<path fill="none" stroke="#63b8ff" d="M3439.38,-445.48C3419.69,-404.75 3330.06,-227.48 3212.43,-121 3194.94,-105.17 3171.56,-92.37 3153.01,-83.68"/>
<polygon fill="#63b8ff" stroke="#63b8ff" points="3154.37,-80.46 3143.81,-79.52 3151.48,-86.83 3154.37,-80.46"/>
</g>
<!-- Node50&#45;&gt;Node26 -->
<g id="edge185" class="edge">
<title>Node50&#45;&gt;Node26</title>
<path fill="none" stroke="#63b8ff" d="M3392.35,-449.78C3264.11,-439.17 2927.16,-411.31 2762.58,-397.7"/>
<polygon fill="#63b8ff" stroke="#63b8ff" points="2762.73,-394.2 2752.47,-396.87 2762.15,-401.18 2762.73,-394.2"/>
</g>
<!-- Node50&#45;&gt;Node27 -->
<g id="edge187" class="edge">
<title>Node50&#45;&gt;Node27</title>
<path fill="none" stroke="#63b8ff" d="M3392.07,-449.48C3357.43,-446.53 3310.71,-442.73 3269.43,-440 2962.13,-419.65 2884.71,-424.57 2577.43,-404 2553.01,-402.37 2526.64,-400.34 2502.1,-398.34"/>
<polygon fill="#63b8ff" stroke="#63b8ff" points="2502.32,-394.84 2492.07,-397.51 2501.75,-401.82 2502.32,-394.84"/>
</g>
<!-- Node51&#45;&gt;Node2 -->
<g id="edge193" class="edge">
<title>Node51&#45;&gt;Node2</title>
<path fill="none" stroke="#63b8ff" d="M3278.08,-505.64C3286.6,-491.04 3300.53,-461.42 3288.43,-440 3233.9,-343.47 2964.59,-218.97 2858.43,-187 2755.19,-155.9 2440.44,-143.15 2297.02,-138.86"/>
<polygon fill="#63b8ff" stroke="#63b8ff" points="2297.09,-135.36 2286.99,-138.56 2296.89,-142.35 2297.09,-135.36"/>
</g>
<!-- Node51&#45;&gt;Node10 -->
<g id="edge196" class="edge">
<title>Node51&#45;&gt;Node10</title>
<path fill="none" stroke="#63b8ff" d="M3347.6,-513.1C3410.9,-509.71 3502.78,-499.5 3577.43,-470 3635.33,-447.12 3692.43,-452.26 3692.43,-390 3692.43,-390 3692.43,-390 3692.43,-135 3692.43,-67.16 3627.48,-74.27 3562.43,-55 3474.62,-28.99 2062.3,-13.77 1779.5,-10.97"/>
<polygon fill="#63b8ff" stroke="#63b8ff" points="1779.19,-7.47 1769.15,-10.87 1779.12,-14.47 1779.19,-7.47"/>
</g>
<!-- Node51&#45;&gt;Node13 -->
<g id="edge197" class="edge">
<title>Node51&#45;&gt;Node13</title>
<path fill="none" stroke="#63b8ff" d="M3347.58,-509.02C3406.4,-503.14 3481.76,-491.58 3503.43,-470 3533.94,-439.62 3533.73,-413.43 3516.43,-374 3449.69,-221.92 3381.18,-210.73 3241.43,-121 3215.91,-104.61 3184.11,-91.58 3159.8,-82.93"/>
<polygon fill="#63b8ff" stroke="#63b8ff" points="3160.81,-79.58 3150.22,-79.61 3158.52,-86.19 3160.81,-79.58"/>
</g>
<!-- Node51&#45;&gt;Node25 -->
<g id="edge194" class="edge">
<title>Node51&#45;&gt;Node25</title>
<path fill="none" stroke="#63b8ff" d="M3197.27,-512.57C2991.7,-507.19 2402.81,-490.99 1913.43,-470 1849.59,-467.26 1777.11,-463.36 1724.27,-460.37"/>
<polygon fill="#63b8ff" stroke="#63b8ff" points="1724.15,-456.86 1713.97,-459.79 1723.75,-463.85 1724.15,-456.86"/>
</g>
<!-- Node51&#45;&gt;Node26 -->
<g id="edge191" class="edge">
<title>Node51&#45;&gt;Node26</title>
<path fill="none" stroke="#63b8ff" d="M3197.92,-505.98C3136.33,-498.36 3046.76,-485.93 2969.43,-470 2883.29,-452.25 2785.08,-424.63 2725.19,-406.93"/>
<polygon fill="#63b8ff" stroke="#63b8ff" points="2726.13,-403.56 2715.55,-404.07 2724.14,-410.27 2726.13,-403.56"/>
</g>
<!-- Node51&#45;&gt;Node27 -->
<g id="edge195" class="edge">
<title>Node51&#45;&gt;Node27</title>
<path fill="none" stroke="#63b8ff" d="M3197.29,-508.59C3110.93,-501.37 2965.07,-487.88 2840.43,-470 2700.61,-449.94 2537.08,-417.28 2456.51,-400.58"/>
<polygon fill="#63b8ff" stroke="#63b8ff" points="2457.14,-397.13 2446.64,-398.52 2455.72,-403.98 2457.14,-397.13"/>
</g>
<!-- Node51&#45;&gt;Node34 -->
<g id="edge192" class="edge">
<title>Node51&#45;&gt;Node34</title>
<path fill="none" stroke="#63b8ff" d="M3275.17,-505.88C3279.45,-490.56 3285.67,-458.47 3269.43,-440 3162.45,-318.29 2706.38,-369.5 2547.43,-338 2466.55,-321.97 2374.27,-291.99 2325.96,-275.37"/>
<polygon fill="#63b8ff" stroke="#63b8ff" points="2326.93,-272 2316.34,-272.03 2324.64,-278.62 2326.93,-272"/>
</g>
</g>
</svg>
