<?xml version="1.0" encoding="UTF-8" standalone="no"?>
<!DOCTYPE svg PUBLIC "-//W3C//DTD SVG 1.1//EN"
 "http://www.w3.org/Graphics/SVG/1.1/DTD/svg11.dtd">
<!-- Generated by graphviz version 2.43.0 (0)
 -->
<!-- Title: src/polyfem/time_integrator/BDF.cpp Pages: 1 -->
<svg width="1129pt" height="269pt"
 viewBox="0.00 0.00 1128.50 269.00" xmlns="http://www.w3.org/2000/svg" xmlns:xlink="http://www.w3.org/1999/xlink">
<g id="graph0" class="graph" transform="scale(1 1) rotate(0) translate(4 265)">
<title>src/polyfem/time_integrator/BDF.cpp</title>
<!-- Node1 -->
<g id="node1" class="node">
<title>Node1</title>
<g id="a_node1"><a xlink:title=" ">
<polygon fill="#999999" stroke="#666666" points="596.5,-261 443.5,-261 443.5,-231 596.5,-231 596.5,-261"/>
<text text-anchor="start" x="451.5" y="-249" font-family="Helvetica,sans-Serif" font-size="10.00">src/polyfem/time_integrator</text>
<text text-anchor="middle" x="520" y="-238" font-family="Helvetica,sans-Serif" font-size="10.00">/BDF.cpp</text>
</a>
</g>
</g>
<!-- Node2 -->
<g id="node2" class="node">
<title>Node2</title>
<g id="a_node2"><a xlink:href="_b_d_f_8hpp.html" target="_top" xlink:title=" ">
<polygon fill="white" stroke="#666666" points="491,-195 435,-195 435,-176 491,-176 491,-195"/>
<text text-anchor="middle" x="463" y="-183" font-family="Helvetica,sans-Serif" font-size="10.00">BDF.hpp</text>
</a>
</g>
</g>
<!-- Node1&#45;&gt;Node2 -->
<g id="edge1" class="edge">
<title>Node1&#45;&gt;Node2</title>
<path fill="none" stroke="#63b8ff" d="M506.2,-230.84C497.93,-222.35 487.38,-211.52 478.77,-202.69"/>
<polygon fill="#63b8ff" stroke="#63b8ff" points="481.03,-199.99 471.54,-195.27 476.01,-204.87 481.03,-199.99"/>
</g>
<!-- Node11 -->
<g id="node11" class="node">
<title>Node11</title>
<g id="a_node11"><a xlink:href="_logger_8hpp.html" target="_top" xlink:title=" ">
<polygon fill="white" stroke="#666666" points="765.5,-195 628.5,-195 628.5,-176 765.5,-176 765.5,-195"/>
<text text-anchor="middle" x="697" y="-183" font-family="Helvetica,sans-Serif" font-size="10.00">polyfem/utils/Logger.hpp</text>
</a>
</g>
</g>
<!-- Node1&#45;&gt;Node11 -->
<g id="edge10" class="edge">
<title>Node1&#45;&gt;Node11</title>
<path fill="none" stroke="#63b8ff" d="M562.4,-230.99C592.68,-220.98 632.95,-207.67 661.53,-198.22"/>
<polygon fill="#63b8ff" stroke="#63b8ff" points="662.72,-201.52 671.12,-195.05 660.53,-194.87 662.72,-201.52"/>
</g>
<!-- Node3 -->
<g id="node3" class="node">
<title>Node3</title>
<g id="a_node3"><a xlink:href="_implicit_time_integrator_8hpp.html" target="_top" xlink:title=" ">
<polygon fill="white" stroke="#666666" points="357.5,-140 208.5,-140 208.5,-110 357.5,-110 357.5,-140"/>
<text text-anchor="start" x="216.5" y="-128" font-family="Helvetica,sans-Serif" font-size="10.00">polyfem/time_integrator</text>
<text text-anchor="middle" x="283" y="-117" font-family="Helvetica,sans-Serif" font-size="10.00">/ImplicitTimeIntegrator.hpp</text>
</a>
</g>
</g>
<!-- Node2&#45;&gt;Node3 -->
<g id="edge2" class="edge">
<title>Node2&#45;&gt;Node3</title>
<path fill="none" stroke="#63b8ff" d="M436.83,-175.99C410.47,-167.43 369.07,-153.97 335.85,-143.18"/>
<polygon fill="#63b8ff" stroke="#63b8ff" points="336.87,-139.83 326.27,-140.06 334.7,-146.48 336.87,-139.83"/>
</g>
<!-- Node4 -->
<g id="node4" class="node">
<title>Node4</title>
<g id="a_node4"><a xlink:href="_common_8hpp.html" target="_top" xlink:title=" ">
<polygon fill="white" stroke="#666666" points="158.5,-74 33.5,-74 33.5,-55 158.5,-55 158.5,-74"/>
<text text-anchor="middle" x="96" y="-62" font-family="Helvetica,sans-Serif" font-size="10.00">polyfem/Common.hpp</text>
</a>
</g>
</g>
<!-- Node3&#45;&gt;Node4 -->
<g id="edge3" class="edge">
<title>Node3&#45;&gt;Node4</title>
<path fill="none" stroke="#63b8ff" d="M238.21,-109.99C206.08,-99.94 163.3,-86.55 133.08,-77.1"/>
<polygon fill="#63b8ff" stroke="#63b8ff" points="133.93,-73.7 123.34,-74.05 131.84,-80.38 133.93,-73.7"/>
</g>
<!-- Node7 -->
<g id="node7" class="node">
<title>Node7</title>
<g id="a_node7"><a xlink:title=" ">
<polygon fill="#e0e0e0" stroke="#999999" points="245.5,-74 176.5,-74 176.5,-55 245.5,-55 245.5,-74"/>
<text text-anchor="middle" x="211" y="-62" font-family="Helvetica,sans-Serif" font-size="10.00">Eigen/Core</text>
</a>
</g>
</g>
<!-- Node3&#45;&gt;Node7 -->
<g id="edge6" class="edge">
<title>Node3&#45;&gt;Node7</title>
<path fill="none" stroke="#63b8ff" d="M265.57,-109.84C254.69,-101 240.7,-89.63 229.61,-80.62"/>
<polygon fill="#63b8ff" stroke="#63b8ff" points="231.76,-77.86 221.79,-74.27 227.34,-83.29 231.76,-77.86"/>
</g>
<!-- Node8 -->
<g id="node8" class="node">
<title>Node8</title>
<g id="a_node8"><a xlink:title=" ">
<polygon fill="#e0e0e0" stroke="#999999" points="302,-74 264,-74 264,-55 302,-55 302,-74"/>
<text text-anchor="middle" x="283" y="-62" font-family="Helvetica,sans-Serif" font-size="10.00">map</text>
</a>
</g>
</g>
<!-- Node3&#45;&gt;Node8 -->
<g id="edge7" class="edge">
<title>Node3&#45;&gt;Node8</title>
<path fill="none" stroke="#63b8ff" d="M283,-109.84C283,-102.21 283,-92.7 283,-84.45"/>
<polygon fill="#63b8ff" stroke="#63b8ff" points="286.5,-84.27 283,-74.27 279.5,-84.27 286.5,-84.27"/>
</g>
<!-- Node9 -->
<g id="node9" class="node">
<title>Node9</title>
<g id="a_node9"><a xlink:title=" ">
<polygon fill="#e0e0e0" stroke="#999999" points="367.5,-74 320.5,-74 320.5,-55 367.5,-55 367.5,-74"/>
<text text-anchor="middle" x="344" y="-62" font-family="Helvetica,sans-Serif" font-size="10.00">vector</text>
</a>
</g>
</g>
<!-- Node3&#45;&gt;Node9 -->
<g id="edge8" class="edge">
<title>Node3&#45;&gt;Node9</title>
<path fill="none" stroke="#63b8ff" d="M297.77,-109.84C306.71,-101.26 318.14,-90.3 327.4,-81.42"/>
<polygon fill="#63b8ff" stroke="#63b8ff" points="330.06,-83.71 334.86,-74.27 325.22,-78.66 330.06,-83.71"/>
</g>
<!-- Node10 -->
<g id="node10" class="node">
<title>Node10</title>
<g id="a_node10"><a xlink:title=" ">
<polygon fill="#e0e0e0" stroke="#999999" points="432.5,-74 385.5,-74 385.5,-55 432.5,-55 432.5,-74"/>
<text text-anchor="middle" x="409" y="-62" font-family="Helvetica,sans-Serif" font-size="10.00">deque</text>
</a>
</g>
</g>
<!-- Node3&#45;&gt;Node10 -->
<g id="edge9" class="edge">
<title>Node3&#45;&gt;Node10</title>
<path fill="none" stroke="#63b8ff" d="M313.18,-109.99C333.83,-100.4 361,-87.79 381.13,-78.44"/>
<polygon fill="#63b8ff" stroke="#63b8ff" points="382.8,-81.52 390.39,-74.14 379.85,-75.18 382.8,-81.52"/>
</g>
<!-- Node5 -->
<g id="node5" class="node">
<title>Node5</title>
<g id="a_node5"><a xlink:title=" ">
<polygon fill="#e0e0e0" stroke="#999999" points="80,-19 0,-19 0,0 80,0 80,-19"/>
<text text-anchor="middle" x="40" y="-7" font-family="Helvetica,sans-Serif" font-size="10.00">Eigen/Sparse</text>
</a>
</g>
</g>
<!-- Node4&#45;&gt;Node5 -->
<g id="edge4" class="edge">
<title>Node4&#45;&gt;Node5</title>
<path fill="none" stroke="#63b8ff" d="M87,-54.98C78.81,-47.23 66.49,-35.58 56.53,-26.14"/>
<polygon fill="#63b8ff" stroke="#63b8ff" points="58.83,-23.5 49.16,-19.17 54.02,-28.59 58.83,-23.5"/>
</g>
<!-- Node6 -->
<g id="node6" class="node">
<title>Node6</title>
<g id="a_node6"><a xlink:title=" ">
<polygon fill="#e0e0e0" stroke="#999999" points="208,-19 98,-19 98,0 208,0 208,-19"/>
<text text-anchor="middle" x="153" y="-7" font-family="Helvetica,sans-Serif" font-size="10.00">nlohmann/json.hpp</text>
</a>
</g>
</g>
<!-- Node4&#45;&gt;Node6 -->
<g id="edge5" class="edge">
<title>Node4&#45;&gt;Node6</title>
<path fill="none" stroke="#63b8ff" d="M105.16,-54.98C113.5,-47.23 126.03,-35.58 136.18,-26.14"/>
<polygon fill="#63b8ff" stroke="#63b8ff" points="138.74,-28.54 143.68,-19.17 133.97,-23.42 138.74,-28.54"/>
</g>
<!-- Node12 -->
<g id="node12" class="node">
<title>Node12</title>
<g id="a_node12"><a xlink:href="_disable_warnings_8hpp.html" target="_top" xlink:title=" ">
<polygon fill="white" stroke="#666666" points="562.5,-134.5 375.5,-134.5 375.5,-115.5 562.5,-115.5 562.5,-134.5"/>
<text text-anchor="middle" x="469" y="-122.5" font-family="Helvetica,sans-Serif" font-size="10.00">polyfem/utils/DisableWarnings.hpp</text>
</a>
</g>
</g>
<!-- Node11&#45;&gt;Node12 -->
<g id="edge11" class="edge">
<title>Node11&#45;&gt;Node12</title>
<path fill="none" stroke="#63b8ff" d="M663.85,-175.99C623.74,-165.7 556.14,-148.36 512.05,-137.04"/>
<polygon fill="#63b8ff" stroke="#63b8ff" points="512.75,-133.61 502.19,-134.52 511.01,-140.39 512.75,-133.61"/>
</g>
<!-- Node13 -->
<g id="node13" class="node">
<title>Node13</title>
<g id="a_node13"><a xlink:title=" ">
<polygon fill="#e0e0e0" stroke="#999999" points="691.5,-140 580.5,-140 580.5,-110 691.5,-110 691.5,-140"/>
<text text-anchor="start" x="588.5" y="-128" font-family="Helvetica,sans-Serif" font-size="10.00">spdlog/fmt/bundled</text>
<text text-anchor="middle" x="636" y="-117" font-family="Helvetica,sans-Serif" font-size="10.00">/ranges.h</text>
</a>
</g>
</g>
<!-- Node11&#45;&gt;Node13 -->
<g id="edge12" class="edge">
<title>Node11&#45;&gt;Node13</title>
<path fill="none" stroke="#63b8ff" d="M688,-175.87C680.11,-168.3 668.3,-156.98 657.94,-147.04"/>
<polygon fill="#63b8ff" stroke="#63b8ff" points="660.36,-144.51 650.72,-140.11 655.51,-149.56 660.36,-144.51"/>
</g>
<!-- Node14 -->
<g id="node14" class="node">
<title>Node14</title>
<g id="a_node14"><a xlink:title=" ">
<polygon fill="#e0e0e0" stroke="#999999" points="808.5,-134.5 709.5,-134.5 709.5,-115.5 808.5,-115.5 808.5,-134.5"/>
<text text-anchor="middle" x="759" y="-122.5" font-family="Helvetica,sans-Serif" font-size="10.00">spdlog/fmt/ostr.h</text>
</a>
</g>
</g>
<!-- Node11&#45;&gt;Node14 -->
<g id="edge13" class="edge">
<title>Node11&#45;&gt;Node14</title>
<path fill="none" stroke="#63b8ff" d="M706.15,-175.87C715.67,-166.88 730.8,-152.61 742.43,-141.64"/>
<polygon fill="#63b8ff" stroke="#63b8ff" points="744.94,-144.08 749.81,-134.67 740.14,-138.98 744.94,-144.08"/>
</g>
<!-- Node15 -->
<g id="node15" class="node">
<title>Node15</title>
<g id="a_node15"><a xlink:title=" ">
<polygon fill="#e0e0e0" stroke="#999999" points="919.5,-134.5 826.5,-134.5 826.5,-115.5 919.5,-115.5 919.5,-134.5"/>
<text text-anchor="middle" x="873" y="-122.5" font-family="Helvetica,sans-Serif" font-size="10.00">spdlog/spdlog.h</text>
</a>
</g>
</g>
<!-- Node11&#45;&gt;Node15 -->
<g id="edge14" class="edge">
<title>Node11&#45;&gt;Node15</title>
<path fill="none" stroke="#63b8ff" d="M722.59,-175.99C752.96,-165.9 803.76,-149.01 837.82,-137.69"/>
<polygon fill="#63b8ff" stroke="#63b8ff" points="838.99,-140.99 847.38,-134.52 836.78,-134.35 838.99,-140.99"/>
</g>
<!-- Node16 -->
<g id="node16" class="node">
<title>Node16</title>
<g id="a_node16"><a xlink:href="_enable_warnings_8hpp.html" target="_top" xlink:title=" ">
<polygon fill="white" stroke="#666666" points="1120.5,-134.5 937.5,-134.5 937.5,-115.5 1120.5,-115.5 1120.5,-134.5"/>
<text text-anchor="middle" x="1029" y="-122.5" font-family="Helvetica,sans-Serif" font-size="10.00">polyfem/utils/EnableWarnings.hpp</text>
</a>
</g>
</g>
<!-- Node11&#45;&gt;Node16 -->
<g id="edge15" class="edge">
<title>Node11&#45;&gt;Node16</title>
<path fill="none" stroke="#63b8ff" d="M745.28,-175.99C805.02,-165.47 906.69,-147.55 970.72,-136.27"/>
<polygon fill="#63b8ff" stroke="#63b8ff" points="971.43,-139.7 980.67,-134.52 970.21,-132.81 971.43,-139.7"/>
</g>
</g>
</svg>
