<?xml version="1.0" encoding="UTF-8" standalone="no"?>
<!DOCTYPE svg PUBLIC "-//W3C//DTD SVG 1.1//EN"
 "http://www.w3.org/Graphics/SVG/1.1/DTD/svg11.dtd">
<!-- Generated by graphviz version 2.43.0 (0)
 -->
<!-- Title: src/polyfem/optimization/forms/BarrierForms.hpp Pages: 1 -->
<!--zoomable 423 -->

<svg id="main" version="1.1" xmlns="http://www.w3.org/2000/svg" xmlns:xlink="http://www.w3.org/1999/xlink" xml:space="preserve" onload="init(evt)">
<style type="text/css"><![CDATA[
.node, .edge {opacity: 0.7;}
.node.selected, .edge.selected {opacity: 1;}
.edge:hover path { stroke: red; }
.edge:hover polygon { stroke: red; fill: red; }
]]></style>

<defs>
  <circle id="rim" cx="0" cy="0" r="7"/>
  <circle id="rim2" cx="0" cy="0" r="3.5"/>
  <g id="zoomPlus">
    <use xlink:href="#rim" fill="#404040"><set attributeName="fill" to="#808080" begin="zoomplus.mouseover" end="zoomplus.mouseout"/></use>
    <path d="M-4,0h8M0,-4v8" fill="none" stroke="white" stroke-width="1.5" pointer-events="none"/>
  </g>
  <g id="zoomMin">
    <use xlink:href="#rim" fill="#404040"><set attributeName="fill" to="#808080" begin="zoomminus.mouseover" end="zoomminus.mouseout"/></use>
    <path d="M-4,0h8" fill="none" stroke="white" stroke-width="1.5" pointer-events="none"/>
  </g>
  <g id="arrowUp" transform="translate(30 24)">
    <use xlink:href="#rim"/>
    <path pointer-events="none" fill="none" stroke="white" stroke-width="1.5" d="M0,-3.0v7 M-2.5,-0.5L0,-3.0L2.5,-0.5"/>
  </g>
  <g id="arrowRight" transform="rotate(90) translate(36 -43)">
    <use xlink:href="#rim"/>
    <path pointer-events="none" fill="none" stroke="white" stroke-width="1.5" d="M0,-3.0v7 M-2.5,-0.5L0,-3.0L2.5,-0.5"/>
  </g>
  <g id="arrowDown" transform="rotate(180) translate(-30 -48)">
    <use xlink:href="#rim"/>
    <path pointer-events="none" fill="none" stroke="white" stroke-width="1.5" d="M0,-3.0v7 M-2.5,-0.5L0,-3.0L2.5,-0.5"/>
  </g>
  <g id="arrowLeft" transform="rotate(270) translate(-36 17)">
    <use xlink:href="#rim"/>
    <path pointer-events="none" fill="none" stroke="white" stroke-width="1.5" d="M0,-3.0v7 M-2.5,-0.5L0,-3.0L2.5,-0.5"/>
  </g>
  <g id="resetDef">
    <use xlink:href="#rim2" fill="#404040"><set attributeName="fill" to="#808080" begin="reset.mouseover" end="reset.mouseout"/></use>
  </g>
</defs>
<script type="application/ecmascript">
var viewWidth = 1810;
var viewHeight = 423;
var sectionId = 'dynsection-0';
</script>
<script type="application/ecmascript" xlink:href="svg.min.js"/>
<svg id="graph" class="graph">
<g id="viewport">
<title>src/polyfem/optimization/forms/BarrierForms.hpp</title>
<!-- Node1 -->
<g id="Node000001" class="node">
<title>Node1</title>
<g id="a_Node000001"><a xlink:title=" ">
<polygon fill="#999999" stroke="#666666" points="881.5,-415 742.5,-415 742.5,-385 881.5,-385 881.5,-415"/>
<text text-anchor="start" x="750.5" y="-403" font-family="Helvetica,sans-Serif" font-size="10.00">src/polyfem/optimization</text>
<text text-anchor="middle" x="812" y="-392" font-family="Helvetica,sans-Serif" font-size="10.00">/forms/BarrierForms.hpp</text>
</a>
</g>
</g>
<!-- Node2 -->
<g id="Node000002" class="node">
<title>Node2</title>
<g id="a_Node000002"><a xlink:href="_parametrization_form_8hpp.html" target="_top" xlink:title=" ">
<polygon fill="white" stroke="#666666" points="594,-349 420,-349 420,-319 594,-319 594,-349"/>
<text text-anchor="start" x="428" y="-337" font-family="Helvetica,sans-Serif" font-size="10.00">polyfem/optimization</text>
<text text-anchor="middle" x="507" y="-326" font-family="Helvetica,sans-Serif" font-size="10.00">/forms/ParametrizationForm.hpp</text>
</a>
</g>
</g>
<!-- Node1&#45;&gt;Node2 -->
<g id="edge1_Node000001_Node000002" class="edge">
<title>Node1&#45;&gt;Node2</title>
<g id="a_edge1_Node000001_Node000002"><a xlink:title=" ">
<path fill="none" stroke="#63b8ff" d="M745.07,-384.95C697.49,-374.97 633.49,-361.54 583.83,-351.12"/>
<polygon fill="#63b8ff" stroke="#63b8ff" points="584.28,-347.64 573.78,-349.01 582.85,-354.49 584.28,-347.64"/>
</a>
</g>
</g>
<!-- Node15 -->
<g id="Node000015" class="node">
<title>Node15</title>
<g id="a_Node000015"><a xlink:href="_variable_to_simulation_8hpp.html" target="_top" xlink:title=" ">
<polygon fill="white" stroke="#666666" points="390,-217 250,-217 250,-198 390,-198 390,-217"/>
<text text-anchor="middle" x="320" y="-205" font-family="Helvetica,sans-Serif" font-size="10.00">VariableToSimulation.hpp</text>
</a>
</g>
</g>
<!-- Node1&#45;&gt;Node15 -->
<g id="edge27_Node000001_Node000015" class="edge">
<title>Node1&#45;&gt;Node15</title>
<g id="a_edge27_Node000001_Node000015"><a xlink:title=" ">
<path fill="none" stroke="#63b8ff" d="M742.46,-398.45C661.05,-395.96 523.09,-386 411,-349 354.31,-330.29 324.11,-334.55 294,-283 283.26,-264.61 295.16,-241.07 306.15,-225.43"/>
<polygon fill="#63b8ff" stroke="#63b8ff" points="309.11,-227.32 312.35,-217.23 303.53,-223.1 309.11,-227.32"/>
</a>
</g>
</g>
<!-- Node22 -->
<g id="Node000022" class="node">
<title>Node22</title>
<g id="a_Node000022"><a xlink:href="_smooth_contact_form_8hpp.html" target="_top" xlink:title=" ">
<polygon fill="white" stroke="#666666" points="882,-349 742,-349 742,-319 882,-319 882,-349"/>
<text text-anchor="start" x="750" y="-337" font-family="Helvetica,sans-Serif" font-size="10.00">polyfem/solver/forms</text>
<text text-anchor="middle" x="812" y="-326" font-family="Helvetica,sans-Serif" font-size="10.00">/SmoothContactForm.hpp</text>
</a>
</g>
</g>
<!-- Node1&#45;&gt;Node22 -->
<g id="edge28_Node000001_Node000022" class="edge">
<title>Node1&#45;&gt;Node22</title>
<g id="a_edge28_Node000001_Node000022"><a xlink:title=" ">
<path fill="none" stroke="#63b8ff" d="M812,-384.8C812,-377.34 812,-367.99 812,-359.41"/>
<polygon fill="#63b8ff" stroke="#63b8ff" points="815.5,-359.16 812,-349.16 808.5,-359.16 815.5,-359.16"/>
</a>
</g>
</g>
<!-- Node28 -->
<g id="Node000028" class="node">
<title>Node28</title>
<g id="a_Node000028"><a xlink:title=" ">
<polygon fill="#e0e0e0" stroke="#999999" points="744,-283 616,-283 616,-253 744,-253 744,-283"/>
<text text-anchor="start" x="624" y="-271" font-family="Helvetica,sans-Serif" font-size="10.00">ipc/smooth_contact</text>
<text text-anchor="middle" x="680" y="-260" font-family="Helvetica,sans-Serif" font-size="10.00">/smooth_collisions.hpp</text>
</a>
</g>
</g>
<!-- Node1&#45;&gt;Node28 -->
<g id="edge41_Node000001_Node000028" class="edge">
<title>Node1&#45;&gt;Node28</title>
<g id="a_edge41_Node000001_Node000028"><a xlink:title=" ">
<path fill="none" stroke="#63b8ff" d="M783.63,-384.9C767.59,-376.04 747.84,-363.54 733,-349 715.99,-332.34 701.45,-309.34 691.92,-292.28"/>
<polygon fill="#63b8ff" stroke="#63b8ff" points="694.75,-290.14 686.92,-283.01 688.59,-293.47 694.75,-290.14"/>
</a>
</g>
</g>
<!-- Node29 -->
<g id="Node000029" class="node">
<title>Node29</title>
<g id="a_Node000029"><a xlink:title=" ">
<polygon fill="#e0e0e0" stroke="#999999" points="1032.5,-283 865.5,-283 865.5,-253 1032.5,-253 1032.5,-283"/>
<text text-anchor="start" x="873.5" y="-271" font-family="Helvetica,sans-Serif" font-size="10.00">ipc/smooth_contact</text>
<text text-anchor="middle" x="949" y="-260" font-family="Helvetica,sans-Serif" font-size="10.00">/smooth_contact_potential.hpp</text>
</a>
</g>
</g>
<!-- Node1&#45;&gt;Node29 -->
<g id="edge42_Node000001_Node000029" class="edge">
<title>Node1&#45;&gt;Node29</title>
<g id="a_edge42_Node000001_Node000029"><a xlink:title=" ">
<path fill="none" stroke="#63b8ff" d="M839.77,-384.87C855.79,-375.92 875.73,-363.33 891,-349 908.94,-332.16 924.98,-309.07 935.63,-292.03"/>
<polygon fill="#63b8ff" stroke="#63b8ff" points="938.75,-293.62 940.96,-283.26 932.77,-289.99 938.75,-293.62"/>
</a>
</g>
</g>
<!-- Node31 -->
<g id="Node000031" class="node">
<title>Node31</title>
<g id="a_Node000031"><a xlink:title=" ">
<polygon fill="#e0e0e0" stroke="#999999" points="1206,-349 1088,-349 1088,-319 1206,-319 1206,-349"/>
<text text-anchor="start" x="1096" y="-337" font-family="Helvetica,sans-Serif" font-size="10.00">ipc/potentials/barrier</text>
<text text-anchor="middle" x="1147" y="-326" font-family="Helvetica,sans-Serif" font-size="10.00">_potential.hpp</text>
</a>
</g>
</g>
<!-- Node1&#45;&gt;Node31 -->
<g id="edge40_Node000001_Node000031" class="edge">
<title>Node1&#45;&gt;Node31</title>
<g id="a_edge40_Node000001_Node000031"><a xlink:title=" ">
<path fill="none" stroke="#63b8ff" d="M881.51,-385.75C934.31,-375.68 1008.73,-361.49 1074,-349 1075.25,-348.76 1076.51,-348.52 1077.78,-348.28"/>
<polygon fill="#63b8ff" stroke="#63b8ff" points="1078.48,-351.71 1087.64,-346.39 1077.16,-344.83 1078.48,-351.71"/>
</a>
</g>
</g>
<!-- Node32 -->
<g id="Node000032" class="node">
<title>Node32</title>
<g id="a_Node000032"><a xlink:href="_boundary_sampler_8hpp.html" target="_top" xlink:title=" ">
<polygon fill="white" stroke="#666666" points="1451.5,-217 1260.5,-217 1260.5,-198 1451.5,-198 1451.5,-217"/>
<text text-anchor="middle" x="1356" y="-205" font-family="Helvetica,sans-Serif" font-size="10.00">polyfem/utils/BoundarySampler.hpp</text>
</a>
</g>
</g>
<!-- Node1&#45;&gt;Node32 -->
<g id="edge43_Node000001_Node000032" class="edge">
<title>Node1&#45;&gt;Node32</title>
<g id="a_edge43_Node000001_Node000032"><a xlink:title=" ">
<path fill="none" stroke="#63b8ff" d="M852,-384.99C954.73,-349.02 1226.47,-253.86 1322.11,-220.37"/>
<polygon fill="#63b8ff" stroke="#63b8ff" points="1323.31,-223.66 1331.59,-217.05 1321,-217.05 1323.31,-223.66"/>
</a>
</g>
</g>
<!-- Node3 -->
<g id="Node000003" class="node">
<title>Node3</title>
<g id="a_Node000003"><a xlink:href="_types_8hpp.html" target="_top" xlink:title=" ">
<polygon fill="white" stroke="#666666" points="839.5,-79.5 706.5,-79.5 706.5,-60.5 839.5,-60.5 839.5,-79.5"/>
<text text-anchor="middle" x="773" y="-67.5" font-family="Helvetica,sans-Serif" font-size="10.00">polyfem/utils/Types.hpp</text>
</a>
</g>
</g>
<!-- Node2&#45;&gt;Node3 -->
<g id="edge2_Node000002_Node000003" class="edge">
<title>Node2&#45;&gt;Node3</title>
<g id="a_edge2_Node000002_Node000003"><a xlink:title=" ">
<path fill="none" stroke="#63b8ff" d="M514.99,-318.87C536.38,-282.08 598.43,-181.93 673,-121 692.85,-104.78 718.84,-91.99 739.35,-83.4"/>
<polygon fill="#63b8ff" stroke="#63b8ff" points="740.67,-86.64 748.63,-79.64 738.05,-80.15 740.67,-86.64"/>
</a>
</g>
</g>
<!-- Node7 -->
<g id="Node000007" class="node">
<title>Node7</title>
<g id="a_Node000007"><a xlink:href="_parametrization_8hpp.html" target="_top" xlink:title=" ">
<polygon fill="white" stroke="#666666" points="470.5,-85 271.5,-85 271.5,-55 470.5,-55 470.5,-85"/>
<text text-anchor="start" x="279.5" y="-73" font-family="Helvetica,sans-Serif" font-size="10.00">polyfem/optimization</text>
<text text-anchor="middle" x="371" y="-62" font-family="Helvetica,sans-Serif" font-size="10.00">/parametrization/Parametrization.hpp</text>
</a>
</g>
</g>
<!-- Node2&#45;&gt;Node7 -->
<g id="edge6_Node000002_Node000007" class="edge">
<title>Node2&#45;&gt;Node7</title>
<g id="a_edge6_Node000002_Node000007"><a xlink:title=" ">
<path fill="none" stroke="#63b8ff" d="M499.69,-318.91C477.46,-276.09 410.52,-147.13 383.01,-94.13"/>
<polygon fill="#63b8ff" stroke="#63b8ff" points="386.06,-92.42 378.35,-85.16 379.85,-95.64 386.06,-92.42"/>
</a>
</g>
</g>
<!-- Node11 -->
<g id="Node000011" class="node">
<title>Node11</title>
<g id="a_Node000011"><a xlink:href="_adjoint_form_8hpp.html" target="_top" xlink:title=" ">
<polygon fill="white" stroke="#666666" points="434.5,-283 303.5,-283 303.5,-253 434.5,-253 434.5,-283"/>
<text text-anchor="start" x="311.5" y="-271" font-family="Helvetica,sans-Serif" font-size="10.00">polyfem/optimization</text>
<text text-anchor="middle" x="369" y="-260" font-family="Helvetica,sans-Serif" font-size="10.00">/forms/AdjointForm.hpp</text>
</a>
</g>
</g>
<!-- Node2&#45;&gt;Node11 -->
<g id="edge10_Node000002_Node000011" class="edge">
<title>Node2&#45;&gt;Node11</title>
<g id="a_edge10_Node000002_Node000011"><a xlink:title=" ">
<path fill="none" stroke="#63b8ff" d="M476.72,-318.95C456.67,-309.66 430.19,-297.38 408.49,-287.32"/>
<polygon fill="#63b8ff" stroke="#63b8ff" points="409.76,-284.04 399.21,-283.01 406.81,-290.39 409.76,-284.04"/>
</a>
</g>
</g>
<!-- Node4 -->
<g id="Node000004" class="node">
<title>Node4</title>
<g id="a_Node000004"><a xlink:title=" ">
<polygon fill="#e0e0e0" stroke="#999999" points="1225.5,-19 1148.5,-19 1148.5,0 1225.5,0 1225.5,-19"/>
<text text-anchor="middle" x="1187" y="-7" font-family="Helvetica,sans-Serif" font-size="10.00">Eigen/Dense</text>
</a>
</g>
</g>
<!-- Node3&#45;&gt;Node4 -->
<g id="edge3_Node000003_Node000004" class="edge">
<title>Node3&#45;&gt;Node4</title>
<g id="a_edge3_Node000003_Node000004"><a xlink:title=" ">
<path fill="none" stroke="#63b8ff" d="M833.2,-60.49C915.66,-48.84 1062.16,-28.14 1138.19,-17.4"/>
<polygon fill="#63b8ff" stroke="#63b8ff" points="1139.02,-20.81 1148.43,-15.95 1138.04,-13.88 1139.02,-20.81"/>
</a>
</g>
</g>
<!-- Node5 -->
<g id="Node000005" class="node">
<title>Node5</title>
<g id="a_Node000005"><a xlink:title=" ">
<polygon fill="#e0e0e0" stroke="#999999" points="532,-19 452,-19 452,0 532,0 532,-19"/>
<text text-anchor="middle" x="492" y="-7" font-family="Helvetica,sans-Serif" font-size="10.00">Eigen/Sparse</text>
</a>
</g>
</g>
<!-- Node3&#45;&gt;Node5 -->
<g id="edge4_Node000003_Node000005" class="edge">
<title>Node3&#45;&gt;Node5</title>
<g id="a_edge4_Node000003_Node000005"><a xlink:title=" ">
<path fill="none" stroke="#63b8ff" d="M732.14,-60.49C681.95,-50.04 596.8,-32.32 542.54,-21.02"/>
<polygon fill="#63b8ff" stroke="#63b8ff" points="542.96,-17.53 532.45,-18.92 541.53,-24.39 542.96,-17.53"/>
</a>
</g>
</g>
<!-- Node6 -->
<g id="Node000006" class="node">
<title>Node6</title>
<g id="a_Node000006"><a xlink:title=" ">
<polygon fill="#e0e0e0" stroke="#999999" points="836.5,-19 709.5,-19 709.5,0 836.5,0 836.5,-19"/>
<text text-anchor="middle" x="773" y="-7" font-family="Helvetica,sans-Serif" font-size="10.00">ipc/utils/eigen_ext.hpp</text>
</a>
</g>
</g>
<!-- Node3&#45;&gt;Node6 -->
<g id="edge5_Node000003_Node000006" class="edge">
<title>Node3&#45;&gt;Node6</title>
<g id="a_edge5_Node000003_Node000006"><a xlink:title=" ">
<path fill="none" stroke="#63b8ff" d="M773,-60.37C773,-52.25 773,-39.81 773,-29.39"/>
<polygon fill="#63b8ff" stroke="#63b8ff" points="776.5,-29.17 773,-19.17 769.5,-29.17 776.5,-29.17"/>
</a>
</g>
</g>
<!-- Node8 -->
<g id="Node000008" class="node">
<title>Node8</title>
<g id="a_Node000008"><a xlink:title=" ">
<polygon fill="#e0e0e0" stroke="#999999" points="663,-19 605,-19 605,0 663,0 663,-19"/>
<text text-anchor="middle" x="634" y="-7" font-family="Helvetica,sans-Serif" font-size="10.00">memory</text>
</a>
</g>
</g>
<!-- Node7&#45;&gt;Node8 -->
<g id="edge7_Node000007_Node000008" class="edge">
<title>Node7&#45;&gt;Node8</title>
<g id="a_edge7_Node000007_Node000008"><a xlink:title=" ">
<path fill="none" stroke="#63b8ff" d="M434,-54.99C483.97,-43.87 552.27,-28.68 594.73,-19.24"/>
<polygon fill="#63b8ff" stroke="#63b8ff" points="595.68,-22.61 604.68,-17.02 594.16,-15.78 595.68,-22.61"/>
</a>
</g>
</g>
<!-- Node9 -->
<g id="Node000009" class="node">
<title>Node9</title>
<g id="a_Node000009"><a xlink:title=" ">
<polygon fill="#e0e0e0" stroke="#999999" points="1604.5,-19 1557.5,-19 1557.5,0 1604.5,0 1604.5,-19"/>
<text text-anchor="middle" x="1581" y="-7" font-family="Helvetica,sans-Serif" font-size="10.00">vector</text>
</a>
</g>
</g>
<!-- Node7&#45;&gt;Node9 -->
<g id="edge8_Node000007_Node000009" class="edge">
<title>Node7&#45;&gt;Node9</title>
<g id="a_edge8_Node000007_Node000009"><a xlink:title=" ">
<path fill="none" stroke="#63b8ff" d="M470.7,-55.72C473.5,-55.46 476.27,-55.22 479,-55 949.9,-16.65 1076.49,-87.5 1547.24,-18.91"/>
<polygon fill="#63b8ff" stroke="#63b8ff" points="1547.97,-22.34 1557.36,-17.42 1546.96,-15.41 1547.97,-22.34"/>
</a>
</g>
</g>
<!-- Node10 -->
<g id="Node000010" class="node">
<title>Node10</title>
<g id="a_Node000010"><a xlink:title=" ">
<polygon fill="#e0e0e0" stroke="#999999" points="405.5,-19 336.5,-19 336.5,0 405.5,0 405.5,-19"/>
<text text-anchor="middle" x="371" y="-7" font-family="Helvetica,sans-Serif" font-size="10.00">Eigen/Core</text>
</a>
</g>
</g>
<!-- Node7&#45;&gt;Node10 -->
<g id="edge9_Node000007_Node000010" class="edge">
<title>Node7&#45;&gt;Node10</title>
<g id="a_edge9_Node000007_Node000010"><a xlink:title=" ">
<path fill="none" stroke="#63b8ff" d="M371,-54.84C371,-47.21 371,-37.7 371,-29.45"/>
<polygon fill="#63b8ff" stroke="#63b8ff" points="374.5,-29.27 371,-19.27 367.5,-29.27 374.5,-29.27"/>
</a>
</g>
</g>
<!-- Node12 -->
<g id="Node000012" class="node">
<title>Node12</title>
<g id="a_Node000012"><a xlink:href="_form_8hpp.html" target="_top" xlink:title=" ">
<polygon fill="white" stroke="#666666" points="560,-156.5 438,-156.5 438,-126.5 560,-126.5 560,-156.5"/>
<text text-anchor="start" x="446" y="-144.5" font-family="Helvetica,sans-Serif" font-size="10.00">polyfem/solver/forms</text>
<text text-anchor="middle" x="499" y="-133.5" font-family="Helvetica,sans-Serif" font-size="10.00">/Form.hpp</text>
</a>
</g>
</g>
<!-- Node11&#45;&gt;Node12 -->
<g id="edge11_Node000011_Node000012" class="edge">
<title>Node11&#45;&gt;Node12</title>
<g id="a_edge11_Node000011_Node000012"><a xlink:title=" ">
<path fill="none" stroke="#63b8ff" d="M383.66,-252.96C406.38,-231.2 450.26,-189.18 476.86,-163.7"/>
<polygon fill="#63b8ff" stroke="#63b8ff" points="479.39,-166.12 484.19,-156.68 474.55,-161.07 479.39,-166.12"/>
</a>
</g>
</g>
<!-- Node11&#45;&gt;Node15 -->
<g id="edge15_Node000011_Node000015" class="edge">
<title>Node11&#45;&gt;Node15</title>
<g id="a_edge15_Node000011_Node000015"><a xlink:title=" ">
<path fill="none" stroke="#63b8ff" d="M357.14,-252.84C350.1,-244.43 341.14,-233.74 333.79,-224.96"/>
<polygon fill="#63b8ff" stroke="#63b8ff" points="336.45,-222.68 327.34,-217.27 331.08,-227.18 336.45,-222.68"/>
</a>
</g>
</g>
<!-- Node12&#45;&gt;Node3 -->
<g id="edge12_Node000012_Node000003" class="edge">
<title>Node12&#45;&gt;Node3</title>
<g id="a_edge12_Node000012_Node000003"><a xlink:title=" ">
<path fill="none" stroke="#63b8ff" d="M552.66,-126.49C559.83,-124.64 567.09,-122.77 574,-121 627.13,-107.42 688.33,-92.09 728.68,-82.03"/>
<polygon fill="#63b8ff" stroke="#63b8ff" points="729.61,-85.4 738.47,-79.59 727.92,-78.61 729.61,-85.4"/>
</a>
</g>
</g>
<!-- Node13 -->
<g id="Node000013" class="node">
<title>Node13</title>
<g id="a_Node000013"><a xlink:title=" ">
<polygon fill="#e0e0e0" stroke="#999999" points="601.5,-85 488.5,-85 488.5,-55 601.5,-55 601.5,-85"/>
<text text-anchor="start" x="496.5" y="-73" font-family="Helvetica,sans-Serif" font-size="10.00">polysolve/nonlinear</text>
<text text-anchor="middle" x="545" y="-62" font-family="Helvetica,sans-Serif" font-size="10.00">/PostStepData.hpp</text>
</a>
</g>
</g>
<!-- Node12&#45;&gt;Node13 -->
<g id="edge13_Node000012_Node000013" class="edge">
<title>Node12&#45;&gt;Node13</title>
<g id="a_edge13_Node000012_Node000013"><a xlink:title=" ">
<path fill="none" stroke="#63b8ff" d="M508.31,-126.44C514.54,-117.02 522.89,-104.41 530.05,-93.59"/>
<polygon fill="#63b8ff" stroke="#63b8ff" points="533.1,-95.31 535.71,-85.04 527.27,-91.45 533.1,-95.31"/>
</a>
</g>
</g>
<!-- Node14 -->
<g id="Node000014" class="node">
<title>Node14</title>
<g id="a_Node000014"><a xlink:title=" ">
<polygon fill="#e0e0e0" stroke="#999999" points="688,-79.5 620,-79.5 620,-60.5 688,-60.5 688,-79.5"/>
<text text-anchor="middle" x="654" y="-67.5" font-family="Helvetica,sans-Serif" font-size="10.00">filesystem</text>
</a>
</g>
</g>
<!-- Node12&#45;&gt;Node14 -->
<g id="edge14_Node000012_Node000014" class="edge">
<title>Node12&#45;&gt;Node14</title>
<g id="a_edge14_Node000012_Node000014"><a xlink:title=" ">
<path fill="none" stroke="#63b8ff" d="M530.37,-126.44C558.26,-113.93 598.68,-95.81 625.62,-83.72"/>
<polygon fill="#63b8ff" stroke="#63b8ff" points="627.2,-86.85 634.89,-79.57 624.34,-80.47 627.2,-86.85"/>
</a>
</g>
</g>
<!-- Node15&#45;&gt;Node7 -->
<g id="edge16_Node000015_Node000007" class="edge">
<title>Node15&#45;&gt;Node7</title>
<g id="a_edge16_Node000015_Node000007"><a xlink:title=" ">
<path fill="none" stroke="#63b8ff" d="M323.35,-197.61C331.11,-176.98 350.57,-125.29 362.07,-94.71"/>
<polygon fill="#63b8ff" stroke="#63b8ff" points="365.4,-95.82 365.64,-85.23 358.85,-93.35 365.4,-95.82"/>
</a>
</g>
</g>
<!-- Node16 -->
<g id="Node000016" class="node">
<title>Node16</title>
<g id="a_Node000016"><a xlink:href="_adjoint_tools_8hpp.html" target="_top" xlink:title=" ">
<polygon fill="white" stroke="#666666" points="122,-156.5 0,-156.5 0,-126.5 122,-126.5 122,-156.5"/>
<text text-anchor="start" x="8" y="-144.5" font-family="Helvetica,sans-Serif" font-size="10.00">polyfem/optimization</text>
<text text-anchor="middle" x="61" y="-133.5" font-family="Helvetica,sans-Serif" font-size="10.00">/AdjointTools.hpp</text>
</a>
</g>
</g>
<!-- Node15&#45;&gt;Node16 -->
<g id="edge17_Node000015_Node000016" class="edge">
<title>Node15&#45;&gt;Node16</title>
<g id="a_edge17_Node000015_Node000016"><a xlink:title=" ">
<path fill="none" stroke="#63b8ff" d="M281.52,-197.92C243.25,-189.27 182.91,-175.34 131,-162 127.6,-161.13 124.11,-160.21 120.59,-159.28"/>
<polygon fill="#63b8ff" stroke="#63b8ff" points="121.21,-155.82 110.65,-156.6 119.39,-162.58 121.21,-155.82"/>
</a>
</g>
</g>
<!-- Node20 -->
<g id="Node000020" class="node">
<title>Node20</title>
<g id="a_Node000020"><a xlink:href="_periodic_mesh_to_mesh_8hpp.html" target="_top" xlink:title=" ">
<polygon fill="white" stroke="#666666" points="306,-162 140,-162 140,-121 306,-121 306,-162"/>
<text text-anchor="start" x="148" y="-150" font-family="Helvetica,sans-Serif" font-size="10.00">polyfem/optimization</text>
<text text-anchor="start" x="148" y="-139" font-family="Helvetica,sans-Serif" font-size="10.00">/parametrization/PeriodicMesh</text>
<text text-anchor="middle" x="223" y="-128" font-family="Helvetica,sans-Serif" font-size="10.00">ToMesh.hpp</text>
</a>
</g>
</g>
<!-- Node15&#45;&gt;Node20 -->
<g id="edge22_Node000015_Node000020" class="edge">
<title>Node15&#45;&gt;Node20</title>
<g id="a_edge22_Node000015_Node000020"><a xlink:title=" ">
<path fill="none" stroke="#63b8ff" d="M306.92,-197.87C295.22,-190.15 277.49,-178.45 261.33,-167.79"/>
<polygon fill="#63b8ff" stroke="#63b8ff" points="262.84,-164.59 252.57,-162.01 258.99,-170.44 262.84,-164.59"/>
</a>
</g>
</g>
<!-- Node21 -->
<g id="Node000021" class="node">
<title>Node21</title>
<g id="a_Node000021"><a xlink:title=" ">
<polygon fill="#e0e0e0" stroke="#999999" points="1321,-79.5 1261,-79.5 1261,-60.5 1321,-60.5 1321,-79.5"/>
<text text-anchor="middle" x="1291" y="-67.5" font-family="Helvetica,sans-Serif" font-size="10.00">iostream</text>
</a>
</g>
</g>
<!-- Node15&#45;&gt;Node21 -->
<g id="edge26_Node000015_Node000021" class="edge">
<title>Node15&#45;&gt;Node21</title>
<g id="a_edge26_Node000015_Node000021"><a xlink:title=" ">
<path fill="none" stroke="#63b8ff" d="M384.88,-197.96C435.52,-190.57 507.38,-178.46 569,-162 621.02,-148.1 630.38,-132.42 683,-121 893.22,-75.39 1152.56,-70.68 1250.77,-70.68"/>
<polygon fill="#63b8ff" stroke="#63b8ff" points="1250.85,-74.18 1260.86,-70.7 1250.86,-67.18 1250.85,-74.18"/>
</a>
</g>
</g>
<!-- Node17 -->
<g id="Node000017" class="node">
<title>Node17</title>
<g id="a_Node000017"><a xlink:href="_common_8hpp.html" target="_top" xlink:title=" ">
<polygon fill="white" stroke="#666666" points="253.5,-79.5 128.5,-79.5 128.5,-60.5 253.5,-60.5 253.5,-79.5"/>
<text text-anchor="middle" x="191" y="-67.5" font-family="Helvetica,sans-Serif" font-size="10.00">polyfem/Common.hpp</text>
</a>
</g>
</g>
<!-- Node16&#45;&gt;Node17 -->
<g id="edge18_Node000016_Node000017" class="edge">
<title>Node16&#45;&gt;Node17</title>
<g id="a_edge18_Node000016_Node000017"><a xlink:title=" ">
<path fill="none" stroke="#63b8ff" d="M87.31,-126.44C110.29,-114.15 143.41,-96.44 166,-84.37"/>
<polygon fill="#63b8ff" stroke="#63b8ff" points="167.81,-87.37 174.97,-79.57 164.5,-81.2 167.81,-87.37"/>
</a>
</g>
</g>
<!-- Node19 -->
<g id="Node000019" class="node">
<title>Node19</title>
<g id="a_Node000019"><a xlink:title=" ">
<polygon fill="#e0e0e0" stroke="#999999" points="94,-79.5 62,-79.5 62,-60.5 94,-60.5 94,-79.5"/>
<text text-anchor="middle" x="78" y="-67.5" font-family="Helvetica,sans-Serif" font-size="10.00">set</text>
</a>
</g>
</g>
<!-- Node16&#45;&gt;Node19 -->
<g id="edge21_Node000016_Node000019" class="edge">
<title>Node16&#45;&gt;Node19</title>
<g id="a_edge21_Node000016_Node000019"><a xlink:title=" ">
<path fill="none" stroke="#63b8ff" d="M64.44,-126.44C67.03,-115.86 70.6,-101.25 73.43,-89.69"/>
<polygon fill="#63b8ff" stroke="#63b8ff" points="76.88,-90.31 75.86,-79.77 70.08,-88.65 76.88,-90.31"/>
</a>
</g>
</g>
<!-- Node17&#45;&gt;Node5 -->
<g id="edge19_Node000017_Node000005" class="edge">
<title>Node17&#45;&gt;Node5</title>
<g id="a_edge19_Node000017_Node000005"><a xlink:title=" ">
<path fill="none" stroke="#63b8ff" d="M234.17,-60.46C243.36,-58.65 253,-56.76 262,-55 323.92,-42.91 395.24,-29.13 441.85,-20.15"/>
<polygon fill="#63b8ff" stroke="#63b8ff" points="442.53,-23.58 451.69,-18.25 441.21,-16.71 442.53,-23.58"/>
</a>
</g>
</g>
<!-- Node18 -->
<g id="Node000018" class="node">
<title>Node18</title>
<g id="a_Node000018"><a xlink:title=" ">
<polygon fill="#e0e0e0" stroke="#999999" points="246,-19 136,-19 136,0 246,0 246,-19"/>
<text text-anchor="middle" x="191" y="-7" font-family="Helvetica,sans-Serif" font-size="10.00">nlohmann/json.hpp</text>
</a>
</g>
</g>
<!-- Node17&#45;&gt;Node18 -->
<g id="edge20_Node000017_Node000018" class="edge">
<title>Node17&#45;&gt;Node18</title>
<g id="a_edge20_Node000017_Node000018"><a xlink:title=" ">
<path fill="none" stroke="#63b8ff" d="M191,-60.37C191,-52.25 191,-39.81 191,-29.39"/>
<polygon fill="#63b8ff" stroke="#63b8ff" points="194.5,-29.17 191,-19.17 187.5,-29.17 194.5,-29.17"/>
</a>
</g>
</g>
<!-- Node20&#45;&gt;Node7 -->
<g id="edge23_Node000020_Node000007" class="edge">
<title>Node20&#45;&gt;Node7</title>
<g id="a_edge23_Node000020_Node000007"><a xlink:title=" ">
<path fill="none" stroke="#63b8ff" d="M264.62,-120.96C285.68,-111.07 311.09,-99.13 331.8,-89.41"/>
<polygon fill="#63b8ff" stroke="#63b8ff" points="333.38,-92.53 340.95,-85.11 330.41,-86.2 333.38,-92.53"/>
</a>
</g>
</g>
<!-- Node20&#45;&gt;Node17 -->
<g id="edge24_Node000020_Node000017" class="edge">
<title>Node20&#45;&gt;Node17</title>
<g id="a_edge24_Node000020_Node000017"><a xlink:title=" ">
<path fill="none" stroke="#63b8ff" d="M213.92,-120.77C209.31,-110.76 203.75,-98.7 199.27,-88.95"/>
<polygon fill="#63b8ff" stroke="#63b8ff" points="202.42,-87.44 195.06,-79.82 196.06,-90.37 202.42,-87.44"/>
</a>
</g>
</g>
<!-- Node20&#45;&gt;Node19 -->
<g id="edge25_Node000020_Node000019" class="edge">
<title>Node20&#45;&gt;Node19</title>
<g id="a_edge25_Node000020_Node000019"><a xlink:title=" ">
<path fill="none" stroke="#63b8ff" d="M182.22,-120.96C156.95,-108.84 125.26,-93.65 103.5,-83.22"/>
<polygon fill="#63b8ff" stroke="#63b8ff" points="104.79,-79.96 94.26,-78.79 101.76,-86.27 104.79,-79.96"/>
</a>
</g>
</g>
<!-- Node23 -->
<g id="Node000023" class="node">
<title>Node23</title>
<g id="a_Node000023"><a xlink:href="_contact_form_8hpp.html" target="_top" xlink:title=" ">
<polygon fill="white" stroke="#666666" points="814,-217 714,-217 714,-198 814,-198 814,-217"/>
<text text-anchor="middle" x="764" y="-205" font-family="Helvetica,sans-Serif" font-size="10.00">ContactForm.hpp</text>
</a>
</g>
</g>
<!-- Node22&#45;&gt;Node23 -->
<g id="edge29_Node000022_Node000023" class="edge">
<title>Node22&#45;&gt;Node23</title>
<g id="a_edge29_Node000022_Node000023"><a xlink:title=" ">
<path fill="none" stroke="#63b8ff" d="M805.74,-318.64C801.46,-308.69 795.73,-295.1 791,-283 783.58,-264.03 775.71,-242.08 770.4,-226.95"/>
<polygon fill="#63b8ff" stroke="#63b8ff" points="773.62,-225.56 767.02,-217.27 767.01,-227.86 773.62,-225.56"/>
</a>
</g>
</g>
<!-- Node22&#45;&gt;Node28 -->
<g id="edge37_Node000022_Node000028" class="edge">
<title>Node22&#45;&gt;Node28</title>
<g id="a_edge37_Node000022_Node000028"><a xlink:title=" ">
<path fill="none" stroke="#63b8ff" d="M783.03,-318.95C763.95,-309.7 738.75,-297.49 718.06,-287.45"/>
<polygon fill="#63b8ff" stroke="#63b8ff" points="719.43,-284.23 708.9,-283.01 716.37,-290.52 719.43,-284.23"/>
</a>
</g>
</g>
<!-- Node22&#45;&gt;Node29 -->
<g id="edge38_Node000022_Node000029" class="edge">
<title>Node22&#45;&gt;Node29</title>
<g id="a_edge38_Node000022_Node000029"><a xlink:title=" ">
<path fill="none" stroke="#63b8ff" d="M842.07,-318.95C861.96,-309.66 888.26,-297.38 909.79,-287.32"/>
<polygon fill="#63b8ff" stroke="#63b8ff" points="911.43,-290.42 919,-283.01 908.46,-284.07 911.43,-290.42"/>
</a>
</g>
</g>
<!-- Node30 -->
<g id="Node000030" class="node">
<title>Node30</title>
<g id="a_Node000030"><a xlink:title=" ">
<polygon fill="#e0e0e0" stroke="#999999" points="847.5,-277.5 800.5,-277.5 800.5,-258.5 847.5,-258.5 847.5,-277.5"/>
<text text-anchor="middle" x="824" y="-265.5" font-family="Helvetica,sans-Serif" font-size="10.00">cmath</text>
</a>
</g>
</g>
<!-- Node22&#45;&gt;Node30 -->
<g id="edge39_Node000022_Node000030" class="edge">
<title>Node22&#45;&gt;Node30</title>
<g id="a_edge39_Node000022_Node000030"><a xlink:title=" ">
<path fill="none" stroke="#63b8ff" d="M814.66,-318.8C816.37,-309.7 818.6,-297.79 820.46,-287.9"/>
<polygon fill="#63b8ff" stroke="#63b8ff" points="823.94,-288.32 822.34,-277.84 817.06,-287.03 823.94,-288.32"/>
</a>
</g>
</g>
<!-- Node23&#45;&gt;Node3 -->
<g id="edge32_Node000023_Node000003" class="edge">
<title>Node23&#45;&gt;Node3</title>
<g id="a_edge32_Node000023_Node000003"><a xlink:title=" ">
<path fill="none" stroke="#63b8ff" d="M732.58,-197.97C714.66,-191.32 693.7,-180.09 683,-162 673.72,-146.32 673.76,-136.71 683,-121 693.65,-102.9 713.49,-90.88 731.84,-83.17"/>
<polygon fill="#63b8ff" stroke="#63b8ff" points="733.18,-86.4 741.24,-79.53 730.65,-79.88 733.18,-86.4"/>
</a>
</g>
</g>
<!-- Node23&#45;&gt;Node12 -->
<g id="edge30_Node000023_Node000012" class="edge">
<title>Node23&#45;&gt;Node12</title>
<g id="a_edge30_Node000023_Node000012"><a xlink:title=" ">
<path fill="none" stroke="#63b8ff" d="M728.54,-197.94C687.33,-187.98 618.41,-171.34 566.82,-158.88"/>
<polygon fill="#63b8ff" stroke="#63b8ff" points="567.61,-155.47 557.07,-156.52 565.97,-162.27 567.61,-155.47"/>
</a>
</g>
</g>
<!-- Node23&#45;&gt;Node17 -->
<g id="edge31_Node000023_Node000017" class="edge">
<title>Node23&#45;&gt;Node17</title>
<g id="a_edge31_Node000023_Node000017"><a xlink:title=" ">
<path fill="none" stroke="#63b8ff" d="M713.93,-203.5C647.84,-198.72 528.23,-187.19 429,-162 408.18,-156.71 281.91,-107.05 222.22,-83.4"/>
<polygon fill="#63b8ff" stroke="#63b8ff" points="223.14,-80.01 212.56,-79.57 220.56,-86.51 223.14,-80.01"/>
</a>
</g>
</g>
<!-- Node24 -->
<g id="Node000024" class="node">
<title>Node24</title>
<g id="a_Node000024"><a xlink:title=" ">
<polygon fill="#e0e0e0" stroke="#999999" points="1134,-156.5 1008,-156.5 1008,-126.5 1134,-126.5 1134,-156.5"/>
<text text-anchor="start" x="1016" y="-144.5" font-family="Helvetica,sans-Serif" font-size="10.00">ipc/collisions/normal</text>
<text text-anchor="middle" x="1071" y="-133.5" font-family="Helvetica,sans-Serif" font-size="10.00">/normal_collisions.hpp</text>
</a>
</g>
</g>
<!-- Node23&#45;&gt;Node24 -->
<g id="edge33_Node000023_Node000024" class="edge">
<title>Node23&#45;&gt;Node24</title>
<g id="a_edge33_Node000023_Node000024"><a xlink:title=" ">
<path fill="none" stroke="#63b8ff" d="M814.2,-198.15C861.94,-189.94 935.67,-176.55 999,-162 1003.05,-161.07 1007.21,-160.07 1011.4,-159.02"/>
<polygon fill="#63b8ff" stroke="#63b8ff" points="1012.34,-162.4 1021.16,-156.53 1010.61,-155.61 1012.34,-162.4"/>
</a>
</g>
</g>
<!-- Node25 -->
<g id="Node000025" class="node">
<title>Node25</title>
<g id="a_Node000025"><a xlink:title=" ">
<polygon fill="#e0e0e0" stroke="#999999" points="1280,-151 1152,-151 1152,-132 1280,-132 1280,-151"/>
<text text-anchor="middle" x="1216" y="-139" font-family="Helvetica,sans-Serif" font-size="10.00">ipc/collision_mesh.hpp</text>
</a>
</g>
</g>
<!-- Node23&#45;&gt;Node25 -->
<g id="edge34_Node000023_Node000025" class="edge">
<title>Node23&#45;&gt;Node25</title>
<g id="a_edge34_Node000023_Node000025"><a xlink:title=" ">
<path fill="none" stroke="#63b8ff" d="M814.01,-202.94C886.86,-197.23 1026.2,-184.34 1143,-162 1154.44,-159.81 1166.73,-156.79 1177.9,-153.79"/>
<polygon fill="#63b8ff" stroke="#63b8ff" points="1179.09,-157.09 1187.79,-151.05 1177.22,-150.35 1179.09,-157.09"/>
</a>
</g>
</g>
<!-- Node26 -->
<g id="Node000026" class="node">
<title>Node26</title>
<g id="a_Node000026"><a xlink:title=" ">
<polygon fill="#e0e0e0" stroke="#999999" points="822,-156.5 692,-156.5 692,-126.5 822,-126.5 822,-156.5"/>
<text text-anchor="start" x="700" y="-144.5" font-family="Helvetica,sans-Serif" font-size="10.00">ipc/broad_phase/create</text>
<text text-anchor="middle" x="757" y="-133.5" font-family="Helvetica,sans-Serif" font-size="10.00">_broad_phase.hpp</text>
</a>
</g>
</g>
<!-- Node23&#45;&gt;Node26 -->
<g id="edge35_Node000023_Node000026" class="edge">
<title>Node23&#45;&gt;Node26</title>
<g id="a_edge35_Node000023_Node000026"><a xlink:title=" ">
<path fill="none" stroke="#63b8ff" d="M763.06,-197.87C762.19,-189.99 760.88,-177.95 759.69,-167.1"/>
<polygon fill="#63b8ff" stroke="#63b8ff" points="763.14,-166.42 758.57,-156.86 756.18,-167.18 763.14,-166.42"/>
</a>
</g>
</g>
<!-- Node27 -->
<g id="Node000027" class="node">
<title>Node27</title>
<g id="a_Node000027"><a xlink:title=" ">
<polygon fill="#e0e0e0" stroke="#999999" points="990,-151 840,-151 840,-132 990,-132 990,-151"/>
<text text-anchor="middle" x="915" y="-139" font-family="Helvetica,sans-Serif" font-size="10.00">ipc/potentials/potential.hpp</text>
</a>
</g>
</g>
<!-- Node23&#45;&gt;Node27 -->
<g id="edge36_Node000023_Node000027" class="edge">
<title>Node23&#45;&gt;Node27</title>
<g id="a_edge36_Node000023_Node000027"><a xlink:title=" ">
<path fill="none" stroke="#63b8ff" d="M784.36,-197.87C810.26,-186.89 855.17,-167.86 884.99,-155.22"/>
<polygon fill="#63b8ff" stroke="#63b8ff" points="886.63,-158.32 894.48,-151.2 883.9,-151.88 886.63,-158.32"/>
</a>
</g>
</g>
<!-- Node32&#45;&gt;Node4 -->
<g id="edge62_Node000032_Node000004" class="edge">
<title>Node32&#45;&gt;Node4</title>
<g id="a_edge62_Node000032_Node000004"><a xlink:title=" ">
<path fill="none" stroke="#63b8ff" d="M1351.11,-197.94C1341.23,-181.27 1317.4,-144.07 1289,-121 1260.92,-98.19 1240.44,-111.67 1216,-85 1201.67,-69.37 1194.12,-45.87 1190.36,-29.45"/>
<polygon fill="#63b8ff" stroke="#63b8ff" points="1193.74,-28.51 1188.32,-19.41 1186.88,-29.9 1193.74,-28.51"/>
</a>
</g>
</g>
<!-- Node33 -->
<g id="Node000033" class="node">
<title>Node33</title>
<g id="a_Node000033"><a xlink:href="_mesh_8hpp.html" target="_top" xlink:title=" ">
<polygon fill="white" stroke="#666666" points="1473.5,-151 1336.5,-151 1336.5,-132 1473.5,-132 1473.5,-151"/>
<text text-anchor="middle" x="1405" y="-139" font-family="Helvetica,sans-Serif" font-size="10.00">polyfem/mesh/Mesh.hpp</text>
</a>
</g>
</g>
<!-- Node32&#45;&gt;Node33 -->
<g id="edge44_Node000032_Node000033" class="edge">
<title>Node32&#45;&gt;Node33</title>
<g id="a_edge44_Node000032_Node000033"><a xlink:title=" ">
<path fill="none" stroke="#63b8ff" d="M1362.61,-197.87C1370.09,-188.09 1382.47,-171.92 1391.93,-159.58"/>
<polygon fill="#63b8ff" stroke="#63b8ff" points="1394.88,-161.47 1398.18,-151.41 1389.32,-157.22 1394.88,-161.47"/>
</a>
</g>
</g>
<!-- Node40 -->
<g id="Node000040" class="node">
<title>Node40</title>
<g id="a_Node000040"><a xlink:href="_local_boundary_8hpp.html" target="_top" xlink:title=" ">
<polygon fill="white" stroke="#666666" points="1674,-151 1492,-151 1492,-132 1674,-132 1674,-151"/>
<text text-anchor="middle" x="1583" y="-139" font-family="Helvetica,sans-Serif" font-size="10.00">polyfem/mesh/LocalBoundary.hpp</text>
</a>
</g>
</g>
<!-- Node32&#45;&gt;Node40 -->
<g id="edge57_Node000032_Node000040" class="edge">
<title>Node32&#45;&gt;Node40</title>
<g id="a_edge57_Node000032_Node000040"><a xlink:title=" ">
<path fill="none" stroke="#63b8ff" d="M1386.61,-197.87C1427,-186.48 1498.19,-166.41 1542.85,-153.82"/>
<polygon fill="#63b8ff" stroke="#63b8ff" points="1543.83,-157.18 1552.51,-151.1 1541.93,-150.44 1543.83,-157.18"/>
</a>
</g>
</g>
<!-- Node33&#45;&gt;Node3 -->
<g id="edge49_Node000033_Node000003" class="edge">
<title>Node33&#45;&gt;Node3</title>
<g id="a_edge49_Node000033_Node000003"><a xlink:title=" ">
<path fill="none" stroke="#63b8ff" d="M1358.83,-131.98C1337.61,-128.26 1312.08,-124.05 1289,-121 1133.51,-100.42 950.61,-84.69 849.66,-76.74"/>
<polygon fill="#63b8ff" stroke="#63b8ff" points="849.8,-73.24 839.56,-75.95 849.25,-80.22 849.8,-73.24"/>
</a>
</g>
</g>
<!-- Node33&#45;&gt;Node4 -->
<g id="edge54_Node000033_Node000004" class="edge">
<title>Node33&#45;&gt;Node4</title>
<g id="a_edge54_Node000033_Node000004"><a xlink:title=" ">
<path fill="none" stroke="#63b8ff" d="M1365.36,-131.99C1332.86,-123.69 1286.73,-108.8 1252,-85 1229.51,-69.59 1209.91,-44.63 1198.26,-27.89"/>
<polygon fill="#63b8ff" stroke="#63b8ff" points="1200.85,-25.47 1192.37,-19.13 1195.05,-29.38 1200.85,-25.47"/>
</a>
</g>
</g>
<!-- Node33&#45;&gt;Node8 -->
<g id="edge56_Node000033_Node000008" class="edge">
<title>Node33&#45;&gt;Node8</title>
<g id="a_edge56_Node000033_Node000008"><a xlink:title=" ">
<path fill="none" stroke="#63b8ff" d="M1354.41,-131.97C1210.71,-107.74 802.15,-38.85 673.38,-17.14"/>
<polygon fill="#63b8ff" stroke="#63b8ff" points="673.64,-13.63 663.2,-15.42 672.47,-20.54 673.64,-13.63"/>
</a>
</g>
</g>
<!-- Node33&#45;&gt;Node17 -->
<g id="edge45_Node000033_Node000017" class="edge">
<title>Node33&#45;&gt;Node17</title>
<g id="a_edge45_Node000033_Node000017"><a xlink:title=" ">
<path fill="none" stroke="#63b8ff" d="M1362.49,-131.98C1340.62,-127.94 1313.48,-123.48 1289,-121 834.59,-75.04 715.72,-137.35 262,-85 254.28,-84.11 246.14,-82.83 238.24,-81.4"/>
<polygon fill="#63b8ff" stroke="#63b8ff" points="238.89,-77.97 228.41,-79.54 237.58,-84.84 238.89,-77.97"/>
</a>
</g>
</g>
<!-- Node34 -->
<g id="Node000034" class="node">
<title>Node34</title>
<g id="a_Node000034"><a xlink:href="_navigation_8hpp.html" target="_top" xlink:title=" ">
<polygon fill="white" stroke="#666666" points="1470.5,-85 1339.5,-85 1339.5,-55 1470.5,-55 1470.5,-85"/>
<text text-anchor="start" x="1347.5" y="-73" font-family="Helvetica,sans-Serif" font-size="10.00">polyfem/mesh/mesh2D</text>
<text text-anchor="middle" x="1405" y="-62" font-family="Helvetica,sans-Serif" font-size="10.00">/Navigation.hpp</text>
</a>
</g>
</g>
<!-- Node33&#45;&gt;Node34 -->
<g id="edge46_Node000033_Node000034" class="edge">
<title>Node33&#45;&gt;Node34</title>
<g id="a_edge46_Node000033_Node000034"><a xlink:title=" ">
<path fill="none" stroke="#63b8ff" d="M1405,-131.98C1405,-122.86 1405,-107.98 1405,-95.2"/>
<polygon fill="#63b8ff" stroke="#63b8ff" points="1408.5,-95.14 1405,-85.14 1401.5,-95.14 1408.5,-95.14"/>
</a>
</g>
</g>
<!-- Node35 -->
<g id="Node000035" class="node">
<title>Node35</title>
<g id="a_Node000035"><a xlink:title=" ">
<polygon fill="#e0e0e0" stroke="#999999" points="1539.5,-19 1410.5,-19 1410.5,0 1539.5,0 1539.5,-19"/>
<text text-anchor="middle" x="1475" y="-7" font-family="Helvetica,sans-Serif" font-size="10.00">geogram/mesh/mesh.h</text>
</a>
</g>
</g>
<!-- Node33&#45;&gt;Node35 -->
<g id="edge55_Node000033_Node000035" class="edge">
<title>Node33&#45;&gt;Node35</title>
<g id="a_edge55_Node000033_Node000035"><a xlink:title=" ">
<path fill="none" stroke="#63b8ff" d="M1425.53,-131.87C1443.59,-123.04 1468.7,-107.42 1480,-85 1488.82,-67.51 1485.48,-44.7 1481.27,-28.96"/>
<polygon fill="#63b8ff" stroke="#63b8ff" points="1484.6,-27.89 1478.35,-19.33 1477.9,-29.92 1484.6,-27.89"/>
</a>
</g>
</g>
<!-- Node37 -->
<g id="Node000037" class="node">
<title>Node37</title>
<g id="a_Node000037"><a xlink:href="_hash_utils_8hpp.html" target="_top" xlink:title=" ">
<polygon fill="white" stroke="#666666" points="1717,-79.5 1565,-79.5 1565,-60.5 1717,-60.5 1717,-79.5"/>
<text text-anchor="middle" x="1641" y="-67.5" font-family="Helvetica,sans-Serif" font-size="10.00">polyfem/utils/HashUtils.hpp</text>
</a>
</g>
</g>
<!-- Node33&#45;&gt;Node37 -->
<g id="edge50_Node000033_Node000037" class="edge">
<title>Node33&#45;&gt;Node37</title>
<g id="a_edge50_Node000033_Node000037"><a xlink:title=" ">
<path fill="none" stroke="#63b8ff" d="M1433.94,-131.98C1476.14,-119.55 1554.67,-96.42 1601.95,-82.5"/>
<polygon fill="#63b8ff" stroke="#63b8ff" points="1603.22,-85.77 1611.83,-79.59 1601.24,-79.06 1603.22,-85.77"/>
</a>
</g>
</g>
<!-- Node34&#45;&gt;Node35 -->
<g id="edge47_Node000034_Node000035" class="edge">
<title>Node34&#45;&gt;Node35</title>
<g id="a_edge47_Node000034_Node000035"><a xlink:title=" ">
<path fill="none" stroke="#63b8ff" d="M1421.95,-54.84C1432.42,-46.09 1445.86,-34.85 1456.59,-25.88"/>
<polygon fill="#63b8ff" stroke="#63b8ff" points="1459.08,-28.36 1464.51,-19.27 1454.59,-22.99 1459.08,-28.36"/>
</a>
</g>
</g>
<!-- Node36 -->
<g id="Node000036" class="node">
<title>Node36</title>
<g id="a_Node000036"><a xlink:title=" ">
<polygon fill="#e0e0e0" stroke="#999999" points="1392,-19 1244,-19 1244,0 1392,0 1392,-19"/>
<text text-anchor="middle" x="1318" y="-7" font-family="Helvetica,sans-Serif" font-size="10.00">geogram/basic/attributes.h</text>
</a>
</g>
</g>
<!-- Node34&#45;&gt;Node36 -->
<g id="edge48_Node000034_Node000036" class="edge">
<title>Node34&#45;&gt;Node36</title>
<g id="a_edge48_Node000034_Node000036"><a xlink:title=" ">
<path fill="none" stroke="#63b8ff" d="M1383.94,-54.84C1370.46,-45.77 1353.01,-34.04 1339.45,-24.92"/>
<polygon fill="#63b8ff" stroke="#63b8ff" points="1341.03,-21.77 1330.78,-19.09 1337.13,-27.58 1341.03,-21.77"/>
</a>
</g>
</g>
<!-- Node37&#45;&gt;Node9 -->
<g id="edge53_Node000037_Node000009" class="edge">
<title>Node37&#45;&gt;Node9</title>
<g id="a_edge53_Node000037_Node000009"><a xlink:title=" ">
<path fill="none" stroke="#63b8ff" d="M1632.15,-60.37C1623.02,-51.47 1608.58,-37.39 1597.36,-26.45"/>
<polygon fill="#63b8ff" stroke="#63b8ff" points="1599.49,-23.64 1589.89,-19.17 1594.61,-28.65 1599.49,-23.64"/>
</a>
</g>
</g>
<!-- Node38 -->
<g id="Node000038" class="node">
<title>Node38</title>
<g id="a_Node000038"><a xlink:title=" ">
<polygon fill="#e0e0e0" stroke="#999999" points="1675.5,-19 1622.5,-19 1622.5,0 1675.5,0 1675.5,-19"/>
<text text-anchor="middle" x="1649" y="-7" font-family="Helvetica,sans-Serif" font-size="10.00">cstddef</text>
</a>
</g>
</g>
<!-- Node37&#45;&gt;Node38 -->
<g id="edge51_Node000037_Node000038" class="edge">
<title>Node37&#45;&gt;Node38</title>
<g id="a_edge51_Node000037_Node000038"><a xlink:title=" ">
<path fill="none" stroke="#63b8ff" d="M1642.18,-60.37C1643.29,-52.25 1644.99,-39.81 1646.42,-29.39"/>
<polygon fill="#63b8ff" stroke="#63b8ff" points="1649.93,-29.55 1647.81,-19.17 1642.99,-28.6 1649.93,-29.55"/>
</a>
</g>
</g>
<!-- Node39 -->
<g id="Node000039" class="node">
<title>Node39</title>
<g id="a_Node000039"><a xlink:title=" ">
<polygon fill="#e0e0e0" stroke="#999999" points="1790,-19 1748,-19 1748,0 1790,0 1790,-19"/>
<text text-anchor="middle" x="1769" y="-7" font-family="Helvetica,sans-Serif" font-size="10.00">array</text>
</a>
</g>
</g>
<!-- Node37&#45;&gt;Node39 -->
<g id="edge52_Node000037_Node000039" class="edge">
<title>Node37&#45;&gt;Node39</title>
<g id="a_edge52_Node000037_Node000039"><a xlink:title=" ">
<path fill="none" stroke="#63b8ff" d="M1659.61,-60.49C1681.04,-50.7 1716.44,-34.52 1741.15,-23.23"/>
<polygon fill="#63b8ff" stroke="#63b8ff" points="1742.72,-26.36 1750.37,-19.02 1739.82,-19.99 1742.72,-26.36"/>
</a>
</g>
</g>
<!-- Node40&#45;&gt;Node9 -->
<g id="edge59_Node000040_Node000009" class="edge">
<title>Node40&#45;&gt;Node9</title>
<g id="a_edge59_Node000040_Node000009"><a xlink:title=" ">
<path fill="none" stroke="#63b8ff" d="M1577.29,-131.93C1570.65,-121.4 1560.09,-102.75 1556,-85 1553.01,-72.01 1552.62,-67.9 1556,-55 1558.55,-45.26 1563.75,-35.41 1568.76,-27.46"/>
<polygon fill="#63b8ff" stroke="#63b8ff" points="1571.69,-29.37 1574.37,-19.12 1565.89,-25.46 1571.69,-29.37"/>
</a>
</g>
</g>
<!-- Node40&#45;&gt;Node21 -->
<g id="edge60_Node000040_Node000021" class="edge">
<title>Node40&#45;&gt;Node21</title>
<g id="a_edge60_Node000040_Node000021"><a xlink:title=" ">
<path fill="none" stroke="#63b8ff" d="M1541.33,-131.96C1480.43,-119.36 1370.11,-96.11 1331,-85 1328.58,-84.31 1326.1,-83.56 1323.61,-82.77"/>
<polygon fill="#63b8ff" stroke="#63b8ff" points="1324.71,-79.45 1314.12,-79.62 1322.5,-86.09 1324.71,-79.45"/>
</a>
</g>
</g>
<!-- Node40&#45;&gt;Node39 -->
<g id="edge58_Node000040_Node000039" class="edge">
<title>Node40&#45;&gt;Node39</title>
<g id="a_edge58_Node000040_Node000039"><a xlink:title=" ">
<path fill="none" stroke="#63b8ff" d="M1650.29,-131.97C1705.77,-123.39 1778.15,-108.09 1796,-85 1809.34,-67.73 1795.79,-43.26 1783.54,-27.14"/>
<polygon fill="#63b8ff" stroke="#63b8ff" points="1786.07,-24.71 1777.05,-19.15 1780.63,-29.12 1786.07,-24.71"/>
</a>
</g>
</g>
<!-- Node41 -->
<g id="Node000041" class="node">
<title>Node41</title>
<g id="a_Node000041"><a xlink:title=" ">
<polygon fill="#e0e0e0" stroke="#999999" points="1787,-79.5 1735,-79.5 1735,-60.5 1787,-60.5 1787,-79.5"/>
<text text-anchor="middle" x="1761" y="-67.5" font-family="Helvetica,sans-Serif" font-size="10.00">cassert</text>
</a>
</g>
</g>
<!-- Node40&#45;&gt;Node41 -->
<g id="edge61_Node000040_Node000041" class="edge">
<title>Node40&#45;&gt;Node41</title>
<g id="a_edge61_Node000040_Node000041"><a xlink:title=" ">
<path fill="none" stroke="#63b8ff" d="M1605.32,-131.92C1633.48,-121.07 1683.38,-101.79 1726,-85 1727.37,-84.46 1728.77,-83.91 1730.18,-83.35"/>
<polygon fill="#63b8ff" stroke="#63b8ff" points="1731.54,-86.57 1739.54,-79.62 1728.96,-80.07 1731.54,-86.57"/>
</a>
</g>
</g>
</g>
</svg>

<g id="navigator" transform="translate(0 0)" fill="#404254">
  <rect fill="#f2f5e9" fill-opacity="0.5" stroke="#606060" stroke-width=".5" x="0" y="0" width="60" height="60"/>
  <use id="zoomplus" xlink:href="#zoomPlus" x="17" y="9" onmousedown="handleZoom(evt,'in')"/>
  <use id="zoomminus" xlink:href="#zoomMin" x="42" y="9" onmousedown="handleZoom(evt,'out')"/>
  <use id="reset" xlink:href="#resetDef" x="30" y="36" onmousedown="handleReset()"/>
   <use id="arrowup" xlink:href="#arrowUp" x="0" y="0" onmousedown="handlePan(0,-1)"/>
  <use id="arrowright" xlink:href="#arrowRight" x="0" y="0" onmousedown="handlePan(1,0)"/>
  <use id="arrowdown" xlink:href="#arrowDown" x="0" y="0" onmousedown="handlePan(0,1)"/>
  <use id="arrowleft" xlink:href="#arrowLeft" x="0" y="0" onmousedown="handlePan(-1,0)"/>
</g>
<svg viewBox="0 0 15 15" width="100%" height="30px" preserveAspectRatio="xMaxYMin meet">
 <g id="arrow_out" transform="scale(0.3 0.3)">
  <a xlink:href="_barrier_forms_8hpp__incl_org.svg" target="_base">
   <rect id="button" ry="5" rx="5" y="6" x="6" height="38" width="38"
        fill="#f2f5e9" fill-opacity="0.5" stroke="#606060" stroke-width="1.0"/>
   <path id="arrow"
     d="M 11.500037,31.436501 C 11.940474,20.09759 22.043105,11.32322 32.158766,21.979434 L 37.068811,17.246167 C 37.068811,17.246167 37.088388,32 37.088388,32 L 22.160133,31.978069 C 22.160133,31.978069 26.997745,27.140456 26.997745,27.140456 C 18.528582,18.264221 13.291696,25.230495 11.500037,31.436501 z"
     style="fill:#404040;"/>
  </a>
 </g>
</svg>

<style type='text/css'>
<![CDATA[
[data-mouse-over-selected='false'] { opacity: 0.7; }
[data-mouse-over-selected='true']  { opacity: 1.0; }
]]>
</style>
<script type="application/ecmascript"><![CDATA[
document.addEventListener('DOMContentLoaded', (event) => {
  highlightEdges();
  highlightAdjacentNodes();
});
]]></script>
</svg>
