<?xml version="1.0" encoding="UTF-8" standalone="no"?>
<!DOCTYPE svg PUBLIC "-//W3C//DTD SVG 1.1//EN"
 "http://www.w3.org/Graphics/SVG/1.1/DTD/svg11.dtd">
<!-- Generated by graphviz version 2.43.0 (0)
 -->
<!-- Title: src/polyfem/utils/BoundarySampler.hpp Pages: 1 -->
<!--zoomable 192 -->

<svg id="main" version="1.1" xmlns="http://www.w3.org/2000/svg" xmlns:xlink="http://www.w3.org/1999/xlink" xml:space="preserve" onload="init(evt)">
<style type="text/css"><![CDATA[
.node, .edge {opacity: 0.7;}
.node.selected, .edge.selected {opacity: 1;}
.edge:hover path { stroke: red; }
.edge:hover polygon { stroke: red; fill: red; }
]]></style>

<defs>
  <circle id="rim" cx="0" cy="0" r="7"/>
  <circle id="rim2" cx="0" cy="0" r="3.5"/>
  <g id="zoomPlus">
    <use xlink:href="#rim" fill="#404040"><set attributeName="fill" to="#808080" begin="zoomplus.mouseover" end="zoomplus.mouseout"/></use>
    <path d="M-4,0h8M0,-4v8" fill="none" stroke="white" stroke-width="1.5" pointer-events="none"/>
  </g>
  <g id="zoomMin">
    <use xlink:href="#rim" fill="#404040"><set attributeName="fill" to="#808080" begin="zoomminus.mouseover" end="zoomminus.mouseout"/></use>
    <path d="M-4,0h8" fill="none" stroke="white" stroke-width="1.5" pointer-events="none"/>
  </g>
  <g id="arrowUp" transform="translate(30 24)">
    <use xlink:href="#rim"/>
    <path pointer-events="none" fill="none" stroke="white" stroke-width="1.5" d="M0,-3.0v7 M-2.5,-0.5L0,-3.0L2.5,-0.5"/>
  </g>
  <g id="arrowRight" transform="rotate(90) translate(36 -43)">
    <use xlink:href="#rim"/>
    <path pointer-events="none" fill="none" stroke="white" stroke-width="1.5" d="M0,-3.0v7 M-2.5,-0.5L0,-3.0L2.5,-0.5"/>
  </g>
  <g id="arrowDown" transform="rotate(180) translate(-30 -48)">
    <use xlink:href="#rim"/>
    <path pointer-events="none" fill="none" stroke="white" stroke-width="1.5" d="M0,-3.0v7 M-2.5,-0.5L0,-3.0L2.5,-0.5"/>
  </g>
  <g id="arrowLeft" transform="rotate(270) translate(-36 17)">
    <use xlink:href="#rim"/>
    <path pointer-events="none" fill="none" stroke="white" stroke-width="1.5" d="M0,-3.0v7 M-2.5,-0.5L0,-3.0L2.5,-0.5"/>
  </g>
  <g id="resetDef">
    <use xlink:href="#rim2" fill="#404040"><set attributeName="fill" to="#808080" begin="reset.mouseover" end="reset.mouseout"/></use>
  </g>
</defs>
<script type="application/ecmascript">
var viewWidth = 1840;
var viewHeight = 192;
var sectionId = 'dynsection-1';
</script>
<script type="application/ecmascript" xlink:href="svg.min.js"/>
<svg id="graph" class="graph">
<g id="viewport">
<title>src/polyfem/utils/BoundarySampler.hpp</title>
<!-- Node1 -->
<g id="Node000001" class="node">
<title>Node1</title>
<g id="a_Node000001"><a xlink:title=" ">
<polygon fill="#999999" stroke="#666666" points="972.5,-184 824.5,-184 824.5,-154 972.5,-154 972.5,-184"/>
<text text-anchor="start" x="832.5" y="-172" font-family="Helvetica,sans-Serif" font-size="10.00">src/polyfem/utils/Boundary</text>
<text text-anchor="middle" x="898.5" y="-161" font-family="Helvetica,sans-Serif" font-size="10.00">Sampler.hpp</text>
</a>
</g>
</g>
<!-- Node2 -->
<g id="Node000002" class="node">
<title>Node2</title>
<g id="a_Node000002"><a xlink:href="_pressure_assembler_8cpp.html" target="_top" xlink:title=" ">
<polygon fill="white" stroke="#666666" points="133,-112.5 0,-112.5 0,-82.5 133,-82.5 133,-112.5"/>
<text text-anchor="start" x="8" y="-100.5" font-family="Helvetica,sans-Serif" font-size="10.00">src/polyfem/assembler</text>
<text text-anchor="middle" x="66.5" y="-89.5" font-family="Helvetica,sans-Serif" font-size="10.00">/PressureAssembler.cpp</text>
</a>
</g>
</g>
<!-- Node1&#45;&gt;Node2 -->
<g id="edge1_Node000001_Node000002" class="edge">
<title>Node1&#45;&gt;Node2</title>
<g id="a_edge1_Node000001_Node000002"><a xlink:title=" ">
<path fill="none" stroke="#63b8ff" d="M814.24,-167.5C674,-165.54 384.21,-156.66 142.5,-118 133.76,-116.6 124.55,-114.66 115.69,-112.53"/>
<polygon fill="#63b8ff" stroke="#63b8ff" points="814.44,-171 824.48,-167.63 814.53,-164 814.44,-171"/>
</a>
</g>
</g>
<!-- Node3 -->
<g id="Node000003" class="node">
<title>Node3</title>
<g id="a_Node000003"><a xlink:href="_rhs_assembler_8cpp.html" target="_top" xlink:title=" ">
<polygon fill="white" stroke="#666666" points="279.5,-112.5 151.5,-112.5 151.5,-82.5 279.5,-82.5 279.5,-112.5"/>
<text text-anchor="start" x="159.5" y="-100.5" font-family="Helvetica,sans-Serif" font-size="10.00">src/polyfem/assembler</text>
<text text-anchor="middle" x="215.5" y="-89.5" font-family="Helvetica,sans-Serif" font-size="10.00">/RhsAssembler.cpp</text>
</a>
</g>
</g>
<!-- Node1&#45;&gt;Node3 -->
<g id="edge2_Node000001_Node000003" class="edge">
<title>Node1&#45;&gt;Node3</title>
<g id="a_edge2_Node000001_Node000003"><a xlink:title=" ">
<path fill="none" stroke="#63b8ff" d="M814.18,-165.86C695.92,-161.78 474.42,-150.18 288.5,-118 280.23,-116.57 271.53,-114.63 263.13,-112.54"/>
<polygon fill="#63b8ff" stroke="#63b8ff" points="814.14,-169.36 824.25,-166.2 814.37,-162.36 814.14,-169.36"/>
</a>
</g>
</g>
<!-- Node4 -->
<g id="Node000004" class="node">
<title>Node4</title>
<g id="a_Node000004"><a xlink:href="_evaluator_8cpp.html" target="_top" xlink:title=" ">
<polygon fill="white" stroke="#666666" points="453,-107 298,-107 298,-88 453,-88 453,-107"/>
<text text-anchor="middle" x="375.5" y="-95" font-family="Helvetica,sans-Serif" font-size="10.00">src/polyfem/io/Evaluator.cpp</text>
</a>
</g>
</g>
<!-- Node1&#45;&gt;Node4 -->
<g id="edge3_Node000001_Node000004" class="edge">
<title>Node1&#45;&gt;Node4</title>
<g id="a_edge3_Node000001_Node000004"><a xlink:title=" ">
<path fill="none" stroke="#63b8ff" d="M814.29,-161.02C726.2,-153.09 584.09,-138.54 462.5,-118 444.95,-115.04 425.61,-110.8 409.63,-107.03"/>
<polygon fill="#63b8ff" stroke="#63b8ff" points="814.22,-164.53 824.49,-161.93 814.84,-157.55 814.22,-164.53"/>
</a>
</g>
</g>
<!-- Node5 -->
<g id="Node000005" class="node">
<title>Node5</title>
<g id="a_Node000005"><a xlink:href="_out_data_8cpp.html" target="_top" xlink:title=" ">
<polygon fill="white" stroke="#666666" points="621.5,-107 471.5,-107 471.5,-88 621.5,-88 621.5,-107"/>
<text text-anchor="middle" x="546.5" y="-95" font-family="Helvetica,sans-Serif" font-size="10.00">src/polyfem/io/OutData.cpp</text>
</a>
</g>
</g>
<!-- Node1&#45;&gt;Node5 -->
<g id="edge4_Node000001_Node000005" class="edge">
<title>Node1&#45;&gt;Node5</title>
<g id="a_edge4_Node000001_Node000005"><a xlink:title=" ">
<path fill="none" stroke="#63b8ff" d="M814.33,-153.4C761.2,-143.93 691.18,-130.97 629.5,-118 613.57,-114.65 596,-110.58 581.15,-107.02"/>
<polygon fill="#63b8ff" stroke="#63b8ff" points="813.93,-156.89 824.39,-155.19 815.15,-149.99 813.93,-156.89"/>
</a>
</g>
</g>
<!-- Node6 -->
<g id="Node000006" class="node">
<title>Node6</title>
<g id="a_Node000006"><a xlink:href="_adjoint_tools_8cpp.html" target="_top" xlink:title=" ">
<polygon fill="white" stroke="#666666" points="746,-112.5 639,-112.5 639,-82.5 746,-82.5 746,-112.5"/>
<text text-anchor="start" x="647" y="-100.5" font-family="Helvetica,sans-Serif" font-size="10.00">src/polyfem/solver</text>
<text text-anchor="middle" x="692.5" y="-89.5" font-family="Helvetica,sans-Serif" font-size="10.00">/AdjointTools.cpp</text>
</a>
</g>
</g>
<!-- Node1&#45;&gt;Node6 -->
<g id="edge5_Node000001_Node000006" class="edge">
<title>Node1&#45;&gt;Node6</title>
<g id="a_edge5_Node000001_Node000006"><a xlink:title=" ">
<path fill="none" stroke="#63b8ff" d="M847.28,-150.72C812.38,-138.95 766.78,-123.56 734.13,-112.54"/>
<polygon fill="#63b8ff" stroke="#63b8ff" points="846.22,-154.06 856.81,-153.94 848.46,-147.42 846.22,-154.06"/>
</a>
</g>
</g>
<!-- Node7 -->
<g id="Node000007" class="node">
<title>Node7</title>
<g id="a_Node000007"><a xlink:href="_body_form_8cpp.html" target="_top" xlink:title=" ">
<polygon fill="white" stroke="#666666" points="885,-112.5 764,-112.5 764,-82.5 885,-82.5 885,-112.5"/>
<text text-anchor="start" x="772" y="-100.5" font-family="Helvetica,sans-Serif" font-size="10.00">src/polyfem/solver</text>
<text text-anchor="middle" x="824.5" y="-89.5" font-family="Helvetica,sans-Serif" font-size="10.00">/forms/BodyForm.cpp</text>
</a>
</g>
</g>
<!-- Node1&#45;&gt;Node7 -->
<g id="edge6_Node000001_Node000007" class="edge">
<title>Node1&#45;&gt;Node7</title>
<g id="a_edge6_Node000001_Node000007"><a xlink:title=" ">
<path fill="none" stroke="#63b8ff" d="M876.13,-146.99C864.25,-135.84 849.98,-122.43 839.45,-112.54"/>
<polygon fill="#63b8ff" stroke="#63b8ff" points="873.84,-149.64 883.52,-153.94 878.63,-144.54 873.84,-149.64"/>
</a>
</g>
</g>
<!-- Node8 -->
<g id="Node000008" class="node">
<title>Node8</title>
<g id="a_Node000008"><a xlink:href="_pressure_form_8cpp.html" target="_top" xlink:title=" ">
<polygon fill="white" stroke="#666666" points="1041.5,-112.5 903.5,-112.5 903.5,-82.5 1041.5,-82.5 1041.5,-112.5"/>
<text text-anchor="start" x="911.5" y="-100.5" font-family="Helvetica,sans-Serif" font-size="10.00">src/polyfem/solver</text>
<text text-anchor="middle" x="972.5" y="-89.5" font-family="Helvetica,sans-Serif" font-size="10.00">/forms/PressureForm.cpp</text>
</a>
</g>
</g>
<!-- Node1&#45;&gt;Node8 -->
<g id="edge7_Node000001_Node000008" class="edge">
<title>Node1&#45;&gt;Node8</title>
<g id="a_edge7_Node000001_Node000008"><a xlink:title=" ">
<path fill="none" stroke="#63b8ff" d="M920.87,-146.99C932.75,-135.84 947.02,-122.43 957.55,-112.54"/>
<polygon fill="#63b8ff" stroke="#63b8ff" points="918.37,-144.54 913.48,-153.94 923.16,-149.64 918.37,-144.54"/>
</a>
</g>
</g>
<!-- Node9 -->
<g id="Node000009" class="node">
<title>Node9</title>
<g id="a_Node000009"><a xlink:href="_barrier_forms_8hpp.html" target="_top" xlink:title=" ">
<polygon fill="white" stroke="#666666" points="1179,-118 1060,-118 1060,-77 1179,-77 1179,-118"/>
<text text-anchor="start" x="1068" y="-106" font-family="Helvetica,sans-Serif" font-size="10.00">src/polyfem/solver</text>
<text text-anchor="start" x="1068" y="-95" font-family="Helvetica,sans-Serif" font-size="10.00">/forms/adjoint_forms</text>
<text text-anchor="middle" x="1119.5" y="-84" font-family="Helvetica,sans-Serif" font-size="10.00">/BarrierForms.hpp</text>
</a>
</g>
</g>
<!-- Node1&#45;&gt;Node9 -->
<g id="edge8_Node000001_Node000009" class="edge">
<title>Node1&#45;&gt;Node9</title>
<g id="a_edge8_Node000001_Node000009"><a xlink:title=" ">
<path fill="none" stroke="#63b8ff" d="M952.98,-150.87C985.36,-140.68 1026.48,-127.75 1059.76,-117.29"/>
<polygon fill="#63b8ff" stroke="#63b8ff" points="951.71,-147.6 943.22,-153.94 953.81,-154.27 951.71,-147.6"/>
</a>
</g>
</g>
<!-- Node12 -->
<g id="Node000012" class="node">
<title>Node12</title>
<g id="a_Node000012"><a xlink:href="_surface_traction_forms_8cpp.html" target="_top" xlink:title=" ">
<polygon fill="white" stroke="#666666" points="1342,-118 1197,-118 1197,-77 1342,-77 1342,-118"/>
<text text-anchor="start" x="1205" y="-106" font-family="Helvetica,sans-Serif" font-size="10.00">src/polyfem/solver</text>
<text text-anchor="start" x="1205" y="-95" font-family="Helvetica,sans-Serif" font-size="10.00">/forms/adjoint_forms</text>
<text text-anchor="middle" x="1269.5" y="-84" font-family="Helvetica,sans-Serif" font-size="10.00">/SurfaceTractionForms.cpp</text>
</a>
</g>
</g>
<!-- Node1&#45;&gt;Node12 -->
<g id="edge11_Node000001_Node000012" class="edge">
<title>Node1&#45;&gt;Node12</title>
<g id="a_edge11_Node000001_Node000012"><a xlink:title=" ">
<path fill="none" stroke="#63b8ff" d="M982.87,-154.95C1040.88,-145.61 1119.59,-132.22 1188.5,-118 1191.19,-117.44 1193.93,-116.86 1196.69,-116.27"/>
<polygon fill="#63b8ff" stroke="#63b8ff" points="981.97,-151.55 972.65,-156.59 983.08,-158.46 981.97,-151.55"/>
</a>
</g>
</g>
<!-- Node13 -->
<g id="Node000013" class="node">
<title>Node13</title>
<g id="a_Node000013"><a xlink:href="_target_forms_8cpp.html" target="_top" xlink:title=" ">
<polygon fill="white" stroke="#666666" points="1479,-118 1360,-118 1360,-77 1479,-77 1479,-118"/>
<text text-anchor="start" x="1368" y="-106" font-family="Helvetica,sans-Serif" font-size="10.00">src/polyfem/solver</text>
<text text-anchor="start" x="1368" y="-95" font-family="Helvetica,sans-Serif" font-size="10.00">/forms/adjoint_forms</text>
<text text-anchor="middle" x="1419.5" y="-84" font-family="Helvetica,sans-Serif" font-size="10.00">/TargetForms.cpp</text>
</a>
</g>
</g>
<!-- Node1&#45;&gt;Node13 -->
<g id="edge12_Node000001_Node000013" class="edge">
<title>Node1&#45;&gt;Node13</title>
<g id="a_edge12_Node000001_Node000013"><a xlink:title=" ">
<path fill="none" stroke="#63b8ff" d="M982.88,-162.97C1074.34,-156.53 1224.3,-143.07 1351.5,-118 1354.27,-117.45 1357.09,-116.85 1359.94,-116.2"/>
<polygon fill="#63b8ff" stroke="#63b8ff" points="982.57,-159.49 972.84,-163.67 983.06,-166.47 982.57,-159.49"/>
</a>
</g>
</g>
<!-- Node14 -->
<g id="Node000014" class="node">
<title>Node14</title>
<g id="a_Node000014"><a xlink:href="_state_diff_8cpp.html" target="_top" xlink:title=" ">
<polygon fill="white" stroke="#666666" points="1665.5,-107 1497.5,-107 1497.5,-88 1665.5,-88 1665.5,-107"/>
<text text-anchor="middle" x="1581.5" y="-95" font-family="Helvetica,sans-Serif" font-size="10.00">src/polyfem/state/StateDiff.cpp</text>
</a>
</g>
</g>
<!-- Node1&#45;&gt;Node14 -->
<g id="edge13_Node000001_Node000014" class="edge">
<title>Node1&#45;&gt;Node14</title>
<g id="a_edge13_Node000001_Node000014"><a xlink:title=" ">
<path fill="none" stroke="#63b8ff" d="M983.01,-164.09C1097.9,-158.03 1309.55,-144.24 1488.5,-118 1507.6,-115.2 1528.66,-110.89 1545.91,-107.03"/>
<polygon fill="#63b8ff" stroke="#63b8ff" points="982.69,-160.6 972.88,-164.62 983.05,-167.59 982.69,-160.6"/>
</a>
</g>
</g>
<!-- Node15 -->
<g id="Node000015" class="node">
<title>Node15</title>
<g id="a_Node000015"><a xlink:href="_boundary_sampler_8cpp.html" target="_top" xlink:title=" ">
<polygon fill="white" stroke="#666666" points="1831.5,-112.5 1683.5,-112.5 1683.5,-82.5 1831.5,-82.5 1831.5,-112.5"/>
<text text-anchor="start" x="1691.5" y="-100.5" font-family="Helvetica,sans-Serif" font-size="10.00">src/polyfem/utils/Boundary</text>
<text text-anchor="middle" x="1757.5" y="-89.5" font-family="Helvetica,sans-Serif" font-size="10.00">Sampler.cpp</text>
</a>
</g>
</g>
<!-- Node1&#45;&gt;Node15 -->
<g id="edge14_Node000001_Node000015" class="edge">
<title>Node1&#45;&gt;Node15</title>
<g id="a_edge14_Node000001_Node000015"><a xlink:title=" ">
<path fill="none" stroke="#63b8ff" d="M982.78,-167.15C1125.79,-164.69 1424.77,-155.12 1674.5,-118 1684.02,-116.59 1694.05,-114.63 1703.73,-112.5"/>
<polygon fill="#63b8ff" stroke="#63b8ff" points="982.7,-163.65 972.76,-167.32 982.82,-170.65 982.7,-163.65"/>
</a>
</g>
</g>
<!-- Node10 -->
<g id="Node000010" class="node">
<title>Node10</title>
<g id="a_Node000010"><a xlink:href="_optimizations_8cpp.html" target="_top" xlink:title=" ">
<polygon fill="white" stroke="#666666" points="1107.5,-35.5 999.5,-35.5 999.5,-5.5 1107.5,-5.5 1107.5,-35.5"/>
<text text-anchor="start" x="1007.5" y="-23.5" font-family="Helvetica,sans-Serif" font-size="10.00">src/polyfem/solver</text>
<text text-anchor="middle" x="1053.5" y="-12.5" font-family="Helvetica,sans-Serif" font-size="10.00">/Optimizations.cpp</text>
</a>
</g>
</g>
<!-- Node9&#45;&gt;Node10 -->
<g id="edge9_Node000009_Node000010" class="edge">
<title>Node9&#45;&gt;Node10</title>
<g id="a_edge9_Node000009_Node000010"><a xlink:title=" ">
<path fill="none" stroke="#63b8ff" d="M1095.51,-69.24C1085.57,-57.94 1074.44,-45.3 1066.14,-35.86"/>
<polygon fill="#63b8ff" stroke="#63b8ff" points="1092.93,-71.6 1102.16,-76.79 1098.18,-66.98 1092.93,-71.6"/>
</a>
</g>
</g>
<!-- Node11 -->
<g id="Node000011" class="node">
<title>Node11</title>
<g id="a_Node000011"><a xlink:href="_barrier_forms_8cpp.html" target="_top" xlink:title=" ">
<polygon fill="white" stroke="#666666" points="1245,-41 1126,-41 1126,0 1245,0 1245,-41"/>
<text text-anchor="start" x="1134" y="-29" font-family="Helvetica,sans-Serif" font-size="10.00">src/polyfem/solver</text>
<text text-anchor="start" x="1134" y="-18" font-family="Helvetica,sans-Serif" font-size="10.00">/forms/adjoint_forms</text>
<text text-anchor="middle" x="1185.5" y="-7" font-family="Helvetica,sans-Serif" font-size="10.00">/BarrierForms.cpp</text>
</a>
</g>
</g>
<!-- Node9&#45;&gt;Node11 -->
<g id="edge10_Node000009_Node000011" class="edge">
<title>Node9&#45;&gt;Node11</title>
<g id="a_edge10_Node000009_Node000011"><a xlink:title=" ">
<path fill="none" stroke="#63b8ff" d="M1143.49,-69.23C1151.7,-59.91 1160.71,-49.67 1168.28,-41.07"/>
<polygon fill="#63b8ff" stroke="#63b8ff" points="1140.82,-66.98 1136.84,-76.79 1146.07,-71.6 1140.82,-66.98"/>
</a>
</g>
</g>
</g>
</svg>

<g id="navigator" transform="translate(0 0)" fill="#404254">
  <rect fill="#f2f5e9" fill-opacity="0.5" stroke="#606060" stroke-width=".5" x="0" y="0" width="60" height="60"/>
  <use id="zoomplus" xlink:href="#zoomPlus" x="17" y="9" onmousedown="handleZoom(evt,'in')"/>
  <use id="zoomminus" xlink:href="#zoomMin" x="42" y="9" onmousedown="handleZoom(evt,'out')"/>
  <use id="reset" xlink:href="#resetDef" x="30" y="36" onmousedown="handleReset()"/>
   <use id="arrowup" xlink:href="#arrowUp" x="0" y="0" onmousedown="handlePan(0,-1)"/>
  <use id="arrowright" xlink:href="#arrowRight" x="0" y="0" onmousedown="handlePan(1,0)"/>
  <use id="arrowdown" xlink:href="#arrowDown" x="0" y="0" onmousedown="handlePan(0,1)"/>
  <use id="arrowleft" xlink:href="#arrowLeft" x="0" y="0" onmousedown="handlePan(-1,0)"/>
</g>
<svg viewBox="0 0 15 15" width="100%" height="30px" preserveAspectRatio="xMaxYMin meet">
 <g id="arrow_out" transform="scale(0.3 0.3)">
  <a xlink:href="_boundary_sampler_8hpp__dep__incl_org.svg" target="_base">
   <rect id="button" ry="5" rx="5" y="6" x="6" height="38" width="38"
        fill="#f2f5e9" fill-opacity="0.5" stroke="#606060" stroke-width="1.0"/>
   <path id="arrow"
     d="M 11.500037,31.436501 C 11.940474,20.09759 22.043105,11.32322 32.158766,21.979434 L 37.068811,17.246167 C 37.068811,17.246167 37.088388,32 37.088388,32 L 22.160133,31.978069 C 22.160133,31.978069 26.997745,27.140456 26.997745,27.140456 C 18.528582,18.264221 13.291696,25.230495 11.500037,31.436501 z"
     style="fill:#404040;"/>
  </a>
 </g>
</svg>

<style type='text/css'>
<![CDATA[
[data-mouse-over-selected='false'] { opacity: 0.7; }
[data-mouse-over-selected='true']  { opacity: 1.0; }
]]>
</style>
<script type="application/ecmascript"><![CDATA[
document.addEventListener('DOMContentLoaded', (event) => {
  highlightEdges();
  highlightAdjacentNodes();
});
]]></script>
</svg>
