<?xml version="1.0" encoding="UTF-8" standalone="no"?>
<!DOCTYPE svg PUBLIC "-//W3C//DTD SVG 1.1//EN"
 "http://www.w3.org/Graphics/SVG/1.1/DTD/svg11.dtd">
<!-- Generated by graphviz version 2.43.0 (0)
 -->
<!-- Title: src/polyfem/mesh/mesh3D/CMesh3D.cpp Pages: 1 -->
<svg width="2257pt" height="346pt"
 viewBox="0.00 0.00 2257.03 346.00" xmlns="http://www.w3.org/2000/svg" xmlns:xlink="http://www.w3.org/1999/xlink">
<g id="graph0" class="graph" transform="scale(1 1) rotate(0) translate(4 342)">
<title>src/polyfem/mesh/mesh3D/CMesh3D.cpp</title>
<!-- Node1 -->
<g id="node1" class="node">
<title>Node1</title>
<g id="a_node1"><a xlink:title=" ">
<polygon fill="#999999" stroke="#666666" points="761.53,-338 613.53,-338 613.53,-308 761.53,-308 761.53,-338"/>
<text text-anchor="start" x="621.53" y="-326" font-family="Helvetica,sans-Serif" font-size="10.00">src/polyfem/mesh/mesh3D</text>
<text text-anchor="middle" x="687.53" y="-315" font-family="Helvetica,sans-Serif" font-size="10.00">/CMesh3D.cpp</text>
</a>
</g>
</g>
<!-- Node2 -->
<g id="node2" class="node">
<title>Node2</title>
<g id="a_node2"><a xlink:href="_c_mesh3_d_8hpp.html" target="_top" xlink:title=" ">
<polygon fill="white" stroke="#666666" points="571.03,-272 440.03,-272 440.03,-242 571.03,-242 571.03,-272"/>
<text text-anchor="start" x="448.03" y="-260" font-family="Helvetica,sans-Serif" font-size="10.00">polyfem/mesh/mesh3D</text>
<text text-anchor="middle" x="505.53" y="-249" font-family="Helvetica,sans-Serif" font-size="10.00">/CMesh3D.hpp</text>
</a>
</g>
</g>
<!-- Node1&#45;&gt;Node2 -->
<g id="edge1" class="edge">
<title>Node1&#45;&gt;Node2</title>
<path fill="none" stroke="#63b8ff" d="M647.59,-307.95C620.33,-298.37 584.03,-285.6 554.94,-275.37"/>
<polygon fill="#63b8ff" stroke="#63b8ff" points="555.98,-272.03 545.38,-272.01 553.65,-278.63 555.98,-272.03"/>
</g>
<!-- Node21 -->
<g id="node21" class="node">
<title>Node21</title>
<g id="a_node21"><a xlink:href="_mesh_processing3_d_8hpp.html" target="_top" xlink:title=" ">
<polygon fill="white" stroke="#666666" points="334.03,-206 201.03,-206 201.03,-176 334.03,-176 334.03,-206"/>
<text text-anchor="start" x="209.03" y="-194" font-family="Helvetica,sans-Serif" font-size="10.00">polyfem/mesh/mesh3D</text>
<text text-anchor="middle" x="267.53" y="-183" font-family="Helvetica,sans-Serif" font-size="10.00">/MeshProcessing3D.hpp</text>
</a>
</g>
</g>
<!-- Node1&#45;&gt;Node21 -->
<g id="edge38" class="edge">
<title>Node1&#45;&gt;Node21</title>
<path fill="none" stroke="#63b8ff" d="M613.37,-312.87C561.3,-305.18 490.53,-292.16 430.53,-272 383.35,-256.14 332.35,-229.41 300.2,-211.25"/>
<polygon fill="#63b8ff" stroke="#63b8ff" points="301.68,-208.06 291.26,-206.14 298.21,-214.14 301.68,-208.06"/>
</g>
<!-- Node22 -->
<g id="node22" class="node">
<title>Node22</title>
<g id="a_node22"><a xlink:title=" ">
<polygon fill="#e0e0e0" stroke="#999999" points="185.03,-140 130.03,-140 130.03,-121 185.03,-121 185.03,-140"/>
<text text-anchor="middle" x="157.53" y="-128" font-family="Helvetica,sans-Serif" font-size="10.00">fstream</text>
</a>
</g>
</g>
<!-- Node1&#45;&gt;Node22 -->
<g id="edge61" class="edge">
<title>Node1&#45;&gt;Node22</title>
<path fill="none" stroke="#63b8ff" d="M613.28,-321.99C447.81,-321.19 60.17,-314.72 20.53,-272 -8.49,-240.72 -4.55,-210.52 20.53,-176 43.08,-144.97 87.8,-135.15 120.02,-132.26"/>
<polygon fill="#63b8ff" stroke="#63b8ff" points="120.27,-135.75 130,-131.55 119.78,-128.77 120.27,-135.75"/>
</g>
<!-- Node23 -->
<g id="node23" class="node">
<title>Node23</title>
<g id="a_node23"><a xlink:href="_mesh_utils_8hpp.html" target="_top" xlink:title=" ">
<polygon fill="white" stroke="#666666" points="947.53,-266.5 787.53,-266.5 787.53,-247.5 947.53,-247.5 947.53,-266.5"/>
<text text-anchor="middle" x="867.53" y="-254.5" font-family="Helvetica,sans-Serif" font-size="10.00">polyfem/mesh/MeshUtils.hpp</text>
</a>
</g>
</g>
<!-- Node1&#45;&gt;Node23 -->
<g id="edge43" class="edge">
<title>Node1&#45;&gt;Node23</title>
<path fill="none" stroke="#63b8ff" d="M727.04,-307.95C759.02,-296.58 803.59,-280.74 833.89,-269.96"/>
<polygon fill="#63b8ff" stroke="#63b8ff" points="835.33,-273.17 843.58,-266.52 832.98,-266.57 835.33,-273.17"/>
</g>
<!-- Node24 -->
<g id="node24" class="node">
<title>Node24</title>
<g id="a_node24"><a xlink:href="_string_utils_8hpp.html" target="_top" xlink:title=" ">
<polygon fill="white" stroke="#666666" points="185.53,-266.5 29.53,-266.5 29.53,-247.5 185.53,-247.5 185.53,-266.5"/>
<text text-anchor="middle" x="107.53" y="-254.5" font-family="Helvetica,sans-Serif" font-size="10.00">polyfem/utils/StringUtils.hpp</text>
</a>
</g>
</g>
<!-- Node1&#45;&gt;Node24 -->
<g id="edge50" class="edge">
<title>Node1&#45;&gt;Node24</title>
<path fill="none" stroke="#63b8ff" d="M613.49,-313.83C506.47,-302.02 308.94,-280.22 194.92,-267.64"/>
<polygon fill="#63b8ff" stroke="#63b8ff" points="195.15,-264.15 184.83,-266.53 194.39,-271.11 195.15,-264.15"/>
</g>
<!-- Node26 -->
<g id="node26" class="node">
<title>Node26</title>
<g id="a_node26"><a xlink:href="_logger_8hpp.html" target="_top" xlink:title=" ">
<polygon fill="white" stroke="#666666" points="1749.03,-266.5 1612.03,-266.5 1612.03,-247.5 1749.03,-247.5 1749.03,-266.5"/>
<text text-anchor="middle" x="1680.53" y="-254.5" font-family="Helvetica,sans-Serif" font-size="10.00">polyfem/utils/Logger.hpp</text>
</a>
</g>
</g>
<!-- Node1&#45;&gt;Node26 -->
<g id="edge53" class="edge">
<title>Node1&#45;&gt;Node26</title>
<path fill="none" stroke="#63b8ff" d="M761.76,-317.22C944.47,-305.44 1414.68,-275.13 1601.91,-263.07"/>
<polygon fill="#63b8ff" stroke="#63b8ff" points="1602.2,-266.56 1611.95,-262.42 1601.75,-259.57 1602.2,-266.56"/>
</g>
<!-- Node32 -->
<g id="node32" class="node">
<title>Node32</title>
<g id="a_node32"><a xlink:title=" ">
<polygon fill="#e0e0e0" stroke="#999999" points="1925.53,-266.5 1767.53,-266.5 1767.53,-247.5 1925.53,-247.5 1925.53,-266.5"/>
<text text-anchor="middle" x="1846.53" y="-254.5" font-family="Helvetica,sans-Serif" font-size="10.00">igl/barycentric_coordinates.h</text>
</a>
</g>
</g>
<!-- Node1&#45;&gt;Node32 -->
<g id="edge59" class="edge">
<title>Node1&#45;&gt;Node32</title>
<path fill="none" stroke="#63b8ff" d="M761.76,-321.37C936.14,-319.27 1385.42,-310.27 1758.53,-272 1768.46,-270.98 1778.97,-269.59 1789.14,-268.07"/>
<polygon fill="#63b8ff" stroke="#63b8ff" points="1789.81,-271.51 1799.16,-266.53 1788.75,-264.59 1789.81,-271.51"/>
</g>
<!-- Node33 -->
<g id="node33" class="node">
<title>Node33</title>
<g id="a_node33"><a xlink:title=" ">
<polygon fill="#e0e0e0" stroke="#999999" points="2087.03,-266.5 1944.03,-266.5 1944.03,-247.5 2087.03,-247.5 2087.03,-266.5"/>
<text text-anchor="middle" x="2015.53" y="-254.5" font-family="Helvetica,sans-Serif" font-size="10.00">geogram/mesh/mesh_io.h</text>
</a>
</g>
</g>
<!-- Node1&#45;&gt;Node33 -->
<g id="edge60" class="edge">
<title>Node1&#45;&gt;Node33</title>
<path fill="none" stroke="#63b8ff" d="M761.57,-322.41C955,-322.75 1491.23,-318.99 1934.53,-272 1943.6,-271.04 1953.19,-269.69 1962.47,-268.2"/>
<polygon fill="#63b8ff" stroke="#63b8ff" points="1963.1,-271.64 1972.38,-266.54 1961.94,-264.74 1963.1,-271.64"/>
</g>
<!-- Node3 -->
<g id="node3" class="node">
<title>Node3</title>
<g id="a_node3"><a xlink:href="_common_8hpp.html" target="_top" xlink:title=" ">
<polygon fill="white" stroke="#666666" points="941.03,-79.5 816.03,-79.5 816.03,-60.5 941.03,-60.5 941.03,-79.5"/>
<text text-anchor="middle" x="878.53" y="-67.5" font-family="Helvetica,sans-Serif" font-size="10.00">polyfem/Common.hpp</text>
</a>
</g>
</g>
<!-- Node2&#45;&gt;Node3 -->
<g id="edge2" class="edge">
<title>Node2&#45;&gt;Node3</title>
<path fill="none" stroke="#63b8ff" d="M571.09,-250.92C618.45,-245.09 682.75,-232.62 733.53,-206 791.23,-175.76 842.93,-116.37 865.92,-87.51"/>
<polygon fill="#63b8ff" stroke="#63b8ff" points="868.7,-89.64 872.1,-79.61 863.19,-85.32 868.7,-89.64"/>
</g>
<!-- Node6 -->
<g id="node6" class="node">
<title>Node6</title>
<g id="a_node6"><a xlink:href="_mesh3_d_8hpp.html" target="_top" xlink:title=" ">
<polygon fill="white" stroke="#666666" points="725.03,-206 594.03,-206 594.03,-176 725.03,-176 725.03,-206"/>
<text text-anchor="start" x="602.03" y="-194" font-family="Helvetica,sans-Serif" font-size="10.00">polyfem/mesh/mesh3D</text>
<text text-anchor="middle" x="659.53" y="-183" font-family="Helvetica,sans-Serif" font-size="10.00">/Mesh3D.hpp</text>
</a>
</g>
</g>
<!-- Node2&#45;&gt;Node6 -->
<g id="edge5" class="edge">
<title>Node2&#45;&gt;Node6</title>
<path fill="none" stroke="#63b8ff" d="M539.33,-241.95C562,-232.53 592.05,-220.04 616.44,-209.91"/>
<polygon fill="#63b8ff" stroke="#63b8ff" points="617.93,-213.08 625.82,-206.01 615.24,-206.62 617.93,-213.08"/>
</g>
<!-- Node9 -->
<g id="node9" class="node">
<title>Node9</title>
<g id="a_node9"><a xlink:title=" ">
<polygon fill="#e0e0e0" stroke="#999999" points="1423.03,-19 1294.03,-19 1294.03,0 1423.03,0 1423.03,-19"/>
<text text-anchor="middle" x="1358.53" y="-7" font-family="Helvetica,sans-Serif" font-size="10.00">geogram/mesh/mesh.h</text>
</a>
</g>
</g>
<!-- Node2&#45;&gt;Node9 -->
<g id="edge33" class="edge">
<title>Node2&#45;&gt;Node9</title>
<path fill="none" stroke="#63b8ff" d="M571.44,-246.04C688.04,-227.98 938.09,-187.28 1146.53,-140 1236.86,-119.51 1286.11,-154.31 1347.53,-85 1360.92,-69.89 1362.16,-45.92 1361.04,-29.26"/>
<polygon fill="#63b8ff" stroke="#63b8ff" points="1364.5,-28.69 1360,-19.1 1357.53,-29.4 1364.5,-28.69"/>
</g>
<!-- Node12 -->
<g id="node12" class="node">
<title>Node12</title>
<g id="a_node12"><a xlink:title=" ">
<polygon fill="#e0e0e0" stroke="#999999" points="637.03,-19 560.03,-19 560.03,0 637.03,0 637.03,-19"/>
<text text-anchor="middle" x="598.53" y="-7" font-family="Helvetica,sans-Serif" font-size="10.00">Eigen/Dense</text>
</a>
</g>
</g>
<!-- Node2&#45;&gt;Node12 -->
<g id="edge35" class="edge">
<title>Node2&#45;&gt;Node12</title>
<path fill="none" stroke="#63b8ff" d="M498.56,-241.98C487.04,-216.76 466.96,-162.5 484.53,-121 502.88,-77.67 547.45,-42.99 575.11,-24.7"/>
<polygon fill="#63b8ff" stroke="#63b8ff" points="577.26,-27.48 583.78,-19.13 573.47,-21.59 577.26,-27.48"/>
</g>
<!-- Node15 -->
<g id="node15" class="node">
<title>Node15</title>
<g id="a_node15"><a xlink:title=" ">
<polygon fill="#e0e0e0" stroke="#999999" points="482.03,-19 435.03,-19 435.03,0 482.03,0 482.03,-19"/>
<text text-anchor="middle" x="458.53" y="-7" font-family="Helvetica,sans-Serif" font-size="10.00">vector</text>
</a>
</g>
</g>
<!-- Node2&#45;&gt;Node15 -->
<g id="edge36" class="edge">
<title>Node2&#45;&gt;Node15</title>
<path fill="none" stroke="#63b8ff" d="M439.83,-255.16C357.34,-252.56 222.8,-242.64 191.53,-206 162.17,-171.59 230.4,-104.3 312.53,-55 347.85,-33.8 394.1,-21.94 424.99,-15.89"/>
<polygon fill="#63b8ff" stroke="#63b8ff" points="425.65,-19.33 434.84,-14.06 424.37,-12.45 425.65,-19.33"/>
</g>
<!-- Node17 -->
<g id="node17" class="node">
<title>Node17</title>
<g id="a_node17"><a xlink:href="_navigation3_d_8hpp.html" target="_top" xlink:title=" ">
<polygon fill="white" stroke="#666666" points="597.53,-140 493.53,-140 493.53,-121 597.53,-121 597.53,-140"/>
<text text-anchor="middle" x="545.53" y="-128" font-family="Helvetica,sans-Serif" font-size="10.00">Navigation3D.hpp</text>
</a>
</g>
</g>
<!-- Node2&#45;&gt;Node17 -->
<g id="edge31" class="edge">
<title>Node2&#45;&gt;Node17</title>
<path fill="none" stroke="#63b8ff" d="M510.12,-241.72C517.42,-219.02 531.65,-174.72 539.67,-149.75"/>
<polygon fill="#63b8ff" stroke="#63b8ff" points="543.05,-150.66 542.78,-140.07 536.39,-148.52 543.05,-150.66"/>
</g>
<!-- Node18 -->
<g id="node18" class="node">
<title>Node18</title>
<g id="a_node18"><a xlink:href="_mesh3_d_storage_8hpp.html" target="_top" xlink:title=" ">
<polygon fill="white" stroke="#666666" points="437.03,-79.5 322.03,-79.5 322.03,-60.5 437.03,-60.5 437.03,-79.5"/>
<text text-anchor="middle" x="379.53" y="-67.5" font-family="Helvetica,sans-Serif" font-size="10.00">Mesh3DStorage.hpp</text>
</a>
</g>
</g>
<!-- Node2&#45;&gt;Node18 -->
<g id="edge32" class="edge">
<title>Node2&#45;&gt;Node18</title>
<path fill="none" stroke="#63b8ff" d="M492.1,-241.63C483.28,-231.9 471.72,-218.57 462.53,-206 447.01,-184.75 408.34,-119.87 389.79,-88.44"/>
<polygon fill="#63b8ff" stroke="#63b8ff" points="392.61,-86.35 384.52,-79.51 386.58,-89.9 392.61,-86.35"/>
</g>
<!-- Node19 -->
<g id="node19" class="node">
<title>Node19</title>
<g id="a_node19"><a xlink:title=" ">
<polygon fill="#e0e0e0" stroke="#999999" points="339.53,-140 279.53,-140 279.53,-121 339.53,-121 339.53,-140"/>
<text text-anchor="middle" x="309.53" y="-128" font-family="Helvetica,sans-Serif" font-size="10.00">iostream</text>
</a>
</g>
</g>
<!-- Node2&#45;&gt;Node19 -->
<g id="edge34" class="edge">
<title>Node2&#45;&gt;Node19</title>
<path fill="none" stroke="#63b8ff" d="M469.63,-241.99C448.26,-232.99 421.02,-220.32 398.53,-206 371.07,-188.51 342.83,-163.43 325.72,-147.3"/>
<polygon fill="#63b8ff" stroke="#63b8ff" points="327.92,-144.55 318.27,-140.17 323.08,-149.61 327.92,-144.55"/>
</g>
<!-- Node20 -->
<g id="node20" class="node">
<title>Node20</title>
<g id="a_node20"><a xlink:title=" ">
<polygon fill="#e0e0e0" stroke="#999999" points="399.53,-140 357.53,-140 357.53,-121 399.53,-121 399.53,-140"/>
<text text-anchor="middle" x="378.53" y="-128" font-family="Helvetica,sans-Serif" font-size="10.00">array</text>
</a>
</g>
</g>
<!-- Node2&#45;&gt;Node20 -->
<g id="edge37" class="edge">
<title>Node2&#45;&gt;Node20</title>
<path fill="none" stroke="#63b8ff" d="M475.48,-241.8C459.11,-233.07 439.26,-220.72 424.53,-206 407.96,-189.42 394.66,-165.78 386.7,-149.6"/>
<polygon fill="#63b8ff" stroke="#63b8ff" points="389.7,-147.75 382.27,-140.2 383.37,-150.74 389.7,-147.75"/>
</g>
<!-- Node4 -->
<g id="node4" class="node">
<title>Node4</title>
<g id="a_node4"><a xlink:title=" ">
<polygon fill="#e0e0e0" stroke="#999999" points="1076.53,-19 996.53,-19 996.53,0 1076.53,0 1076.53,-19"/>
<text text-anchor="middle" x="1036.53" y="-7" font-family="Helvetica,sans-Serif" font-size="10.00">Eigen/Sparse</text>
</a>
</g>
</g>
<!-- Node3&#45;&gt;Node4 -->
<g id="edge3" class="edge">
<title>Node3&#45;&gt;Node4</title>
<path fill="none" stroke="#63b8ff" d="M901.51,-60.49C928.42,-50.53 973.21,-33.95 1003.76,-22.63"/>
<polygon fill="#63b8ff" stroke="#63b8ff" points="1005.37,-25.77 1013.53,-19.02 1002.94,-19.21 1005.37,-25.77"/>
</g>
<!-- Node5 -->
<g id="node5" class="node">
<title>Node5</title>
<g id="a_node5"><a xlink:title=" ">
<polygon fill="#e0e0e0" stroke="#999999" points="933.53,-19 823.53,-19 823.53,0 933.53,0 933.53,-19"/>
<text text-anchor="middle" x="878.53" y="-7" font-family="Helvetica,sans-Serif" font-size="10.00">nlohmann/json.hpp</text>
</a>
</g>
</g>
<!-- Node3&#45;&gt;Node5 -->
<g id="edge4" class="edge">
<title>Node3&#45;&gt;Node5</title>
<path fill="none" stroke="#63b8ff" d="M878.53,-60.37C878.53,-52.25 878.53,-39.81 878.53,-29.39"/>
<polygon fill="#63b8ff" stroke="#63b8ff" points="882.03,-29.17 878.53,-19.17 875.03,-29.17 882.03,-29.17"/>
</g>
<!-- Node6&#45;&gt;Node3 -->
<g id="edge6" class="edge">
<title>Node6&#45;&gt;Node3</title>
<path fill="none" stroke="#63b8ff" d="M686.33,-175.89C705.17,-165.93 730.94,-152.24 753.53,-140 788.71,-120.94 829.21,-98.49 854.34,-84.5"/>
<polygon fill="#63b8ff" stroke="#63b8ff" points="856.15,-87.5 863.18,-79.58 852.74,-81.38 856.15,-87.5"/>
</g>
<!-- Node7 -->
<g id="node7" class="node">
<title>Node7</title>
<g id="a_node7"><a xlink:href="_mesh_8hpp.html" target="_top" xlink:title=" ">
<polygon fill="white" stroke="#666666" points="1038.03,-140 901.03,-140 901.03,-121 1038.03,-121 1038.03,-140"/>
<text text-anchor="middle" x="969.53" y="-128" font-family="Helvetica,sans-Serif" font-size="10.00">polyfem/mesh/Mesh.hpp</text>
</a>
</g>
</g>
<!-- Node6&#45;&gt;Node7 -->
<g id="edge7" class="edge">
<title>Node6&#45;&gt;Node7</title>
<path fill="none" stroke="#63b8ff" d="M725.28,-177.59C781.55,-166.98 861.62,-151.86 914.55,-141.88"/>
<polygon fill="#63b8ff" stroke="#63b8ff" points="915.25,-145.31 924.43,-140.01 913.95,-138.43 915.25,-145.31"/>
</g>
<!-- Node6&#45;&gt;Node9 -->
<g id="edge26" class="edge">
<title>Node6&#45;&gt;Node9</title>
<path fill="none" stroke="#63b8ff" d="M725.13,-183.17C882.98,-166.23 1274.48,-121.04 1321.53,-85 1339.5,-71.24 1349.33,-46.42 1354.26,-29.23"/>
<polygon fill="#63b8ff" stroke="#63b8ff" points="1357.73,-29.78 1356.82,-19.23 1350.95,-28.04 1357.73,-29.78"/>
</g>
<!-- Node6&#45;&gt;Node12 -->
<g id="edge28" class="edge">
<title>Node6&#45;&gt;Node12</title>
<path fill="none" stroke="#63b8ff" d="M669.33,-175.8C678.14,-161.12 688.17,-138 677.53,-121 658.14,-89.99 623.96,-115.34 603.53,-85 592.58,-68.73 592.83,-45.67 594.86,-29.53"/>
<polygon fill="#63b8ff" stroke="#63b8ff" points="598.39,-29.63 596.52,-19.2 591.48,-28.52 598.39,-29.63"/>
</g>
<!-- Node6&#45;&gt;Node15 -->
<g id="edge29" class="edge">
<title>Node6&#45;&gt;Node15</title>
<path fill="none" stroke="#63b8ff" d="M657.36,-175.89C654.25,-160.4 647.1,-135.77 631.53,-121 596.06,-87.33 568.49,-111.74 527.53,-85 503.87,-69.55 482.79,-44.23 470.33,-27.47"/>
<polygon fill="#63b8ff" stroke="#63b8ff" points="473.02,-25.22 464.34,-19.15 467.34,-29.31 473.02,-25.22"/>
</g>
<!-- Node6&#45;&gt;Node17 -->
<g id="edge21" class="edge">
<title>Node6&#45;&gt;Node17</title>
<path fill="none" stroke="#63b8ff" d="M632.23,-175.99C613.89,-166.58 589.86,-154.24 571.75,-144.95"/>
<polygon fill="#63b8ff" stroke="#63b8ff" points="572.86,-141.59 562.37,-140.14 569.67,-147.82 572.86,-141.59"/>
</g>
<!-- Node6&#45;&gt;Node18 -->
<g id="edge25" class="edge">
<title>Node6&#45;&gt;Node18</title>
<path fill="none" stroke="#63b8ff" d="M652.64,-175.97C644.08,-160.08 627.95,-134.61 606.53,-121 580.43,-104.41 504.19,-89.76 447.22,-80.67"/>
<polygon fill="#63b8ff" stroke="#63b8ff" points="447.61,-77.19 437.18,-79.1 446.52,-84.11 447.61,-77.19"/>
</g>
<!-- Node6&#45;&gt;Node19 -->
<g id="edge27" class="edge">
<title>Node6&#45;&gt;Node19</title>
<path fill="none" stroke="#63b8ff" d="M593.82,-180.51C532.97,-171.48 439.73,-157.02 349.58,-140.11"/>
<polygon fill="#63b8ff" stroke="#63b8ff" points="350.21,-136.67 339.73,-138.25 348.91,-143.55 350.21,-136.67"/>
</g>
<!-- Node6&#45;&gt;Node20 -->
<g id="edge30" class="edge">
<title>Node6&#45;&gt;Node20</title>
<path fill="none" stroke="#63b8ff" d="M594.01,-176.36C535.9,-164.26 453.61,-147.13 409.43,-137.93"/>
<polygon fill="#63b8ff" stroke="#63b8ff" points="410.07,-134.49 399.57,-135.88 408.65,-141.34 410.07,-134.49"/>
</g>
<!-- Node7&#45;&gt;Node3 -->
<g id="edge8" class="edge">
<title>Node7&#45;&gt;Node3</title>
<path fill="none" stroke="#63b8ff" d="M956.11,-120.87C941.46,-111.45 917.78,-96.23 900.43,-85.08"/>
<polygon fill="#63b8ff" stroke="#63b8ff" points="902.32,-82.13 892.02,-79.67 898.54,-88.02 902.32,-82.13"/>
</g>
<!-- Node8 -->
<g id="node8" class="node">
<title>Node8</title>
<g id="a_node8"><a xlink:href="_navigation_8hpp.html" target="_top" xlink:title=" ">
<polygon fill="white" stroke="#666666" points="1280.03,-85 1149.03,-85 1149.03,-55 1280.03,-55 1280.03,-85"/>
<text text-anchor="start" x="1157.03" y="-73" font-family="Helvetica,sans-Serif" font-size="10.00">polyfem/mesh/mesh2D</text>
<text text-anchor="middle" x="1214.53" y="-62" font-family="Helvetica,sans-Serif" font-size="10.00">/Navigation.hpp</text>
</a>
</g>
</g>
<!-- Node7&#45;&gt;Node8 -->
<g id="edge9" class="edge">
<title>Node7&#45;&gt;Node8</title>
<path fill="none" stroke="#63b8ff" d="M1005.16,-120.99C1041.88,-112.23 1100.06,-98.33 1145.78,-87.42"/>
<polygon fill="#63b8ff" stroke="#63b8ff" points="1146.72,-90.79 1155.63,-85.06 1145.09,-83.98 1146.72,-90.79"/>
</g>
<!-- Node7&#45;&gt;Node9 -->
<g id="edge19" class="edge">
<title>Node7&#45;&gt;Node9</title>
<path fill="none" stroke="#63b8ff" d="M1038.35,-125.26C1118.75,-119.37 1246.2,-106.91 1288.53,-85 1314.07,-71.79 1335.32,-45.46 1347.48,-27.91"/>
<polygon fill="#63b8ff" stroke="#63b8ff" points="1350.65,-29.47 1353.27,-19.2 1344.82,-25.59 1350.65,-29.47"/>
</g>
<!-- Node11 -->
<g id="node11" class="node">
<title>Node11</title>
<g id="a_node11"><a xlink:href="_types_8hpp.html" target="_top" xlink:title=" ">
<polygon fill="white" stroke="#666666" points="1131.03,-79.5 998.03,-79.5 998.03,-60.5 1131.03,-60.5 1131.03,-79.5"/>
<text text-anchor="middle" x="1064.53" y="-67.5" font-family="Helvetica,sans-Serif" font-size="10.00">polyfem/utils/Types.hpp</text>
</a>
</g>
</g>
<!-- Node7&#45;&gt;Node11 -->
<g id="edge12" class="edge">
<title>Node7&#45;&gt;Node11</title>
<path fill="none" stroke="#63b8ff" d="M983.55,-120.87C998.85,-111.45 1023.57,-96.23 1041.68,-85.08"/>
<polygon fill="#63b8ff" stroke="#63b8ff" points="1043.78,-87.89 1050.46,-79.67 1040.11,-81.93 1043.78,-87.89"/>
</g>
<!-- Node7&#45;&gt;Node12 -->
<g id="edge18" class="edge">
<title>Node7&#45;&gt;Node12</title>
<path fill="none" stroke="#63b8ff" d="M970.05,-120.78C970.46,-105.01 968.81,-71.81 949.53,-55 938.27,-45.17 741.11,-24.55 647.33,-15.24"/>
<polygon fill="#63b8ff" stroke="#63b8ff" points="647.53,-11.74 637.24,-14.24 646.85,-18.71 647.53,-11.74"/>
</g>
<!-- Node13 -->
<g id="node13" class="node">
<title>Node13</title>
<g id="a_node13"><a xlink:href="_hash_utils_8hpp.html" target="_top" xlink:title=" ">
<polygon fill="white" stroke="#666666" points="797.53,-79.5 645.53,-79.5 645.53,-60.5 797.53,-60.5 797.53,-79.5"/>
<text text-anchor="middle" x="721.53" y="-67.5" font-family="Helvetica,sans-Serif" font-size="10.00">polyfem/utils/HashUtils.hpp</text>
</a>
</g>
</g>
<!-- Node7&#45;&gt;Node13 -->
<g id="edge15" class="edge">
<title>Node7&#45;&gt;Node13</title>
<path fill="none" stroke="#63b8ff" d="M933.47,-120.99C889.58,-110.64 815.39,-93.14 767.45,-81.83"/>
<polygon fill="#63b8ff" stroke="#63b8ff" points="768.18,-78.41 757.64,-79.52 766.57,-85.22 768.18,-78.41"/>
</g>
<!-- Node16 -->
<g id="node16" class="node">
<title>Node16</title>
<g id="a_node16"><a xlink:title=" ">
<polygon fill="#e0e0e0" stroke="#999999" points="1470.53,-79.5 1412.53,-79.5 1412.53,-60.5 1470.53,-60.5 1470.53,-79.5"/>
<text text-anchor="middle" x="1441.53" y="-67.5" font-family="Helvetica,sans-Serif" font-size="10.00">memory</text>
</a>
</g>
</g>
<!-- Node7&#45;&gt;Node16 -->
<g id="edge20" class="edge">
<title>Node7&#45;&gt;Node16</title>
<path fill="none" stroke="#63b8ff" d="M1038.17,-120.99C1138.49,-108.56 1321.95,-85.82 1402.2,-75.88"/>
<polygon fill="#63b8ff" stroke="#63b8ff" points="1402.87,-79.32 1412.37,-74.61 1402.01,-72.37 1402.87,-79.32"/>
</g>
<!-- Node8&#45;&gt;Node9 -->
<g id="edge10" class="edge">
<title>Node8&#45;&gt;Node9</title>
<path fill="none" stroke="#63b8ff" d="M1249.03,-54.99C1273.05,-45.23 1304.81,-32.33 1327.93,-22.93"/>
<polygon fill="#63b8ff" stroke="#63b8ff" points="1329.32,-26.15 1337.27,-19.14 1326.69,-19.66 1329.32,-26.15"/>
</g>
<!-- Node10 -->
<g id="node10" class="node">
<title>Node10</title>
<g id="a_node10"><a xlink:title=" ">
<polygon fill="#e0e0e0" stroke="#999999" points="1275.53,-19 1127.53,-19 1127.53,0 1275.53,0 1275.53,-19"/>
<text text-anchor="middle" x="1201.53" y="-7" font-family="Helvetica,sans-Serif" font-size="10.00">geogram/basic/attributes.h</text>
</a>
</g>
</g>
<!-- Node8&#45;&gt;Node10 -->
<g id="edge11" class="edge">
<title>Node8&#45;&gt;Node10</title>
<path fill="none" stroke="#63b8ff" d="M1211.39,-54.84C1209.67,-47.13 1207.53,-37.49 1205.68,-29.17"/>
<polygon fill="#63b8ff" stroke="#63b8ff" points="1209.07,-28.27 1203.48,-19.27 1202.23,-29.79 1209.07,-28.27"/>
</g>
<!-- Node11&#45;&gt;Node4 -->
<g id="edge14" class="edge">
<title>Node11&#45;&gt;Node4</title>
<path fill="none" stroke="#63b8ff" d="M1060.4,-60.37C1056.39,-51.99 1050.18,-39.01 1045.1,-28.39"/>
<polygon fill="#63b8ff" stroke="#63b8ff" points="1048.16,-26.68 1040.68,-19.17 1041.84,-29.7 1048.16,-26.68"/>
</g>
<!-- Node11&#45;&gt;Node12 -->
<g id="edge13" class="edge">
<title>Node11&#45;&gt;Node12</title>
<path fill="none" stroke="#63b8ff" d="M1017.92,-60.48C1006.68,-58.56 994.69,-56.61 983.53,-55 863.09,-37.64 720.67,-22.6 647.44,-15.27"/>
<polygon fill="#63b8ff" stroke="#63b8ff" points="647.45,-11.75 637.15,-14.24 646.76,-18.71 647.45,-11.75"/>
</g>
<!-- Node14 -->
<g id="node14" class="node">
<title>Node14</title>
<g id="a_node14"><a xlink:title=" ">
<polygon fill="#e0e0e0" stroke="#999999" points="748.03,-19 695.03,-19 695.03,0 748.03,0 748.03,-19"/>
<text text-anchor="middle" x="721.53" y="-7" font-family="Helvetica,sans-Serif" font-size="10.00">cstddef</text>
</a>
</g>
</g>
<!-- Node13&#45;&gt;Node14 -->
<g id="edge16" class="edge">
<title>Node13&#45;&gt;Node14</title>
<path fill="none" stroke="#63b8ff" d="M721.53,-60.37C721.53,-52.25 721.53,-39.81 721.53,-29.39"/>
<polygon fill="#63b8ff" stroke="#63b8ff" points="725.03,-29.17 721.53,-19.17 718.03,-29.17 725.03,-29.17"/>
</g>
<!-- Node13&#45;&gt;Node15 -->
<g id="edge17" class="edge">
<title>Node13&#45;&gt;Node15</title>
<path fill="none" stroke="#63b8ff" d="M683.29,-60.49C631.82,-49.04 541.07,-28.86 492.11,-17.97"/>
<polygon fill="#63b8ff" stroke="#63b8ff" points="492.85,-14.55 482.32,-15.79 491.33,-21.38 492.85,-14.55"/>
</g>
<!-- Node17&#45;&gt;Node18 -->
<g id="edge22" class="edge">
<title>Node17&#45;&gt;Node18</title>
<path fill="none" stroke="#63b8ff" d="M521.4,-120.99C493,-110.99 445.66,-94.3 413.55,-82.99"/>
<polygon fill="#63b8ff" stroke="#63b8ff" points="414.3,-79.54 403.7,-79.52 411.97,-86.14 414.3,-79.54"/>
</g>
<!-- Node18&#45;&gt;Node12 -->
<g id="edge24" class="edge">
<title>Node18&#45;&gt;Node12</title>
<path fill="none" stroke="#63b8ff" d="M411.38,-60.49C449.82,-50.23 514.56,-32.93 556.92,-21.62"/>
<polygon fill="#63b8ff" stroke="#63b8ff" points="557.89,-24.98 566.65,-19.02 556.09,-18.22 557.89,-24.98"/>
</g>
<!-- Node18&#45;&gt;Node15 -->
<g id="edge23" class="edge">
<title>Node18&#45;&gt;Node15</title>
<path fill="none" stroke="#63b8ff" d="M391.19,-60.37C403.68,-51.12 423.71,-36.28 438.69,-25.19"/>
<polygon fill="#63b8ff" stroke="#63b8ff" points="440.88,-27.93 446.83,-19.17 436.71,-22.31 440.88,-27.93"/>
</g>
<!-- Node21&#45;&gt;Node18 -->
<g id="edge39" class="edge">
<title>Node21&#45;&gt;Node18</title>
<path fill="none" stroke="#63b8ff" d="M264.17,-175.99C261.41,-161.05 259.56,-137.32 270.53,-121 283.27,-102.06 305.09,-90.17 325.88,-82.77"/>
<polygon fill="#63b8ff" stroke="#63b8ff" points="327.22,-86.01 335.64,-79.58 325.04,-79.36 327.22,-86.01"/>
</g>
<!-- Node21&#45;&gt;Node19 -->
<g id="edge40" class="edge">
<title>Node21&#45;&gt;Node19</title>
<path fill="none" stroke="#63b8ff" d="M277.7,-175.84C283.61,-167.61 291.1,-157.18 297.33,-148.51"/>
<polygon fill="#63b8ff" stroke="#63b8ff" points="300.25,-150.43 303.24,-140.27 294.57,-146.35 300.25,-150.43"/>
</g>
<!-- Node21&#45;&gt;Node20 -->
<g id="edge42" class="edge">
<title>Node21&#45;&gt;Node20</title>
<path fill="none" stroke="#63b8ff" d="M294.12,-175.99C311.98,-166.58 335.38,-154.24 353.01,-144.95"/>
<polygon fill="#63b8ff" stroke="#63b8ff" points="354.93,-147.9 362.14,-140.14 351.66,-141.71 354.93,-147.9"/>
</g>
<!-- Node21&#45;&gt;Node22 -->
<g id="edge41" class="edge">
<title>Node21&#45;&gt;Node22</title>
<path fill="none" stroke="#63b8ff" d="M241.19,-175.99C223.49,-166.58 200.3,-154.24 182.83,-144.95"/>
<polygon fill="#63b8ff" stroke="#63b8ff" points="184.25,-141.74 173.78,-140.14 180.96,-147.92 184.25,-141.74"/>
</g>
<!-- Node23&#45;&gt;Node6 -->
<g id="edge45" class="edge">
<title>Node23&#45;&gt;Node6</title>
<path fill="none" stroke="#63b8ff" d="M839.48,-247.37C807.73,-237.6 755.19,-221.43 715.06,-209.09"/>
<polygon fill="#63b8ff" stroke="#63b8ff" points="716,-205.71 705.41,-206.12 713.94,-212.4 716,-205.71"/>
</g>
<!-- Node23&#45;&gt;Node7 -->
<g id="edge44" class="edge">
<title>Node23&#45;&gt;Node7</title>
<path fill="none" stroke="#63b8ff" d="M874.54,-247.44C891.29,-227.01 933.83,-175.07 955.86,-148.19"/>
<polygon fill="#63b8ff" stroke="#63b8ff" points="958.84,-150.07 962.47,-140.12 953.43,-145.63 958.84,-150.07"/>
</g>
<!-- Node23&#45;&gt;Node9 -->
<g id="edge46" class="edge">
<title>Node23&#45;&gt;Node9</title>
<path fill="none" stroke="#63b8ff" d="M947.81,-252.88C1030.3,-248.11 1161.8,-236.09 1271.53,-206 1342.17,-186.63 1361.67,-180.74 1422.53,-140 1460.33,-114.7 1505.56,-92.3 1479.53,-55 1468.36,-38.98 1450.73,-28.71 1432.36,-22.13"/>
<polygon fill="#63b8ff" stroke="#63b8ff" points="1433.31,-18.76 1422.71,-19.02 1431.16,-25.42 1433.31,-18.76"/>
</g>
<!-- Node23&#45;&gt;Node12 -->
<g id="edge47" class="edge">
<title>Node23&#45;&gt;Node12</title>
<path fill="none" stroke="#63b8ff" d="M862.53,-247.34C853.05,-231.55 831.14,-197.69 805.53,-176 772.99,-148.43 666.36,-115.49 636.53,-85 620.88,-68.99 610.29,-45.23 604.35,-28.87"/>
<polygon fill="#63b8ff" stroke="#63b8ff" points="607.65,-27.69 601.11,-19.35 601.02,-29.94 607.65,-27.69"/>
</g>
<!-- Node23&#45;&gt;Node15 -->
<g id="edge48" class="edge">
<title>Node23&#45;&gt;Node15</title>
<path fill="none" stroke="#63b8ff" d="M854.08,-247.27C820.41,-225.48 729.69,-167.17 652.53,-121 592.23,-84.92 520.04,-44.52 483.05,-24.02"/>
<polygon fill="#63b8ff" stroke="#63b8ff" points="484.45,-20.79 474,-19.02 481.06,-26.92 484.45,-20.79"/>
</g>
<!-- Node23&#45;&gt;Node16 -->
<g id="edge49" class="edge">
<title>Node23&#45;&gt;Node16</title>
<path fill="none" stroke="#63b8ff" d="M938.11,-247.47C1064.87,-231.05 1324.8,-192.01 1398.53,-140 1416.32,-127.45 1428.28,-104.98 1434.98,-89.1"/>
<polygon fill="#63b8ff" stroke="#63b8ff" points="1438.24,-90.37 1438.63,-79.78 1431.73,-87.82 1438.24,-90.37"/>
</g>
<!-- Node24&#45;&gt;Node15 -->
<g id="edge51" class="edge">
<title>Node24&#45;&gt;Node15</title>
<path fill="none" stroke="#63b8ff" d="M105.67,-247.42C101.22,-224.47 92.27,-160.71 120.53,-121 191.19,-21.72 353.8,-9.85 424.58,-9.61"/>
<polygon fill="#63b8ff" stroke="#63b8ff" points="424.72,-13.11 434.73,-9.66 424.75,-6.11 424.72,-13.11"/>
</g>
<!-- Node25 -->
<g id="node25" class="node">
<title>Node25</title>
<g id="a_node25"><a xlink:title=" ">
<polygon fill="#e0e0e0" stroke="#999999" points="73.53,-200.5 29.53,-200.5 29.53,-181.5 73.53,-181.5 73.53,-200.5"/>
<text text-anchor="middle" x="51.53" y="-188.5" font-family="Helvetica,sans-Serif" font-size="10.00">string</text>
</a>
</g>
</g>
<!-- Node24&#45;&gt;Node25 -->
<g id="edge52" class="edge">
<title>Node24&#45;&gt;Node25</title>
<path fill="none" stroke="#63b8ff" d="M99.98,-247.37C91.35,-237.5 77.01,-221.11 66.16,-208.72"/>
<polygon fill="#63b8ff" stroke="#63b8ff" points="68.55,-206.13 59.33,-200.91 63.28,-210.74 68.55,-206.13"/>
</g>
<!-- Node27 -->
<g id="node27" class="node">
<title>Node27</title>
<g id="a_node27"><a xlink:href="_disable_warnings_8hpp.html" target="_top" xlink:title=" ">
<polygon fill="white" stroke="#666666" points="1691.03,-200.5 1504.03,-200.5 1504.03,-181.5 1691.03,-181.5 1691.03,-200.5"/>
<text text-anchor="middle" x="1597.53" y="-188.5" font-family="Helvetica,sans-Serif" font-size="10.00">polyfem/utils/DisableWarnings.hpp</text>
</a>
</g>
</g>
<!-- Node26&#45;&gt;Node27 -->
<g id="edge54" class="edge">
<title>Node26&#45;&gt;Node27</title>
<path fill="none" stroke="#63b8ff" d="M1669.34,-247.37C1655.97,-237.06 1633.39,-219.65 1617.11,-207.09"/>
<polygon fill="#63b8ff" stroke="#63b8ff" points="1618.87,-204.03 1608.82,-200.7 1614.6,-209.58 1618.87,-204.03"/>
</g>
<!-- Node28 -->
<g id="node28" class="node">
<title>Node28</title>
<g id="a_node28"><a xlink:title=" ">
<polygon fill="#e0e0e0" stroke="#999999" points="1820.03,-206 1709.03,-206 1709.03,-176 1820.03,-176 1820.03,-206"/>
<text text-anchor="start" x="1717.03" y="-194" font-family="Helvetica,sans-Serif" font-size="10.00">spdlog/fmt/bundled</text>
<text text-anchor="middle" x="1764.53" y="-183" font-family="Helvetica,sans-Serif" font-size="10.00">/ranges.h</text>
</a>
</g>
</g>
<!-- Node26&#45;&gt;Node28 -->
<g id="edge55" class="edge">
<title>Node26&#45;&gt;Node28</title>
<path fill="none" stroke="#63b8ff" d="M1691.86,-247.37C1703.58,-238.44 1722.29,-224.19 1737.79,-212.38"/>
<polygon fill="#63b8ff" stroke="#63b8ff" points="1740.17,-214.96 1746.01,-206.12 1735.93,-209.39 1740.17,-214.96"/>
</g>
<!-- Node29 -->
<g id="node29" class="node">
<title>Node29</title>
<g id="a_node29"><a xlink:title=" ">
<polygon fill="#e0e0e0" stroke="#999999" points="1937.03,-200.5 1838.03,-200.5 1838.03,-181.5 1937.03,-181.5 1937.03,-200.5"/>
<text text-anchor="middle" x="1887.53" y="-188.5" font-family="Helvetica,sans-Serif" font-size="10.00">spdlog/fmt/ostr.h</text>
</a>
</g>
</g>
<!-- Node26&#45;&gt;Node29 -->
<g id="edge56" class="edge">
<title>Node26&#45;&gt;Node29</title>
<path fill="none" stroke="#63b8ff" d="M1708.45,-247.37C1745.05,-236.05 1809.38,-216.16 1850.15,-203.56"/>
<polygon fill="#63b8ff" stroke="#63b8ff" points="1851.21,-206.89 1859.73,-200.6 1849.14,-200.21 1851.21,-206.89"/>
</g>
<!-- Node30 -->
<g id="node30" class="node">
<title>Node30</title>
<g id="a_node30"><a xlink:title=" ">
<polygon fill="#e0e0e0" stroke="#999999" points="2048.03,-200.5 1955.03,-200.5 1955.03,-181.5 2048.03,-181.5 2048.03,-200.5"/>
<text text-anchor="middle" x="2001.53" y="-188.5" font-family="Helvetica,sans-Serif" font-size="10.00">spdlog/spdlog.h</text>
</a>
</g>
</g>
<!-- Node26&#45;&gt;Node30 -->
<g id="edge57" class="edge">
<title>Node26&#45;&gt;Node30</title>
<path fill="none" stroke="#63b8ff" d="M1727.92,-247.47C1792.73,-235.73 1905.64,-215.04 1946.53,-206 1950.7,-205.08 1955.03,-204.07 1959.35,-203.03"/>
<polygon fill="#63b8ff" stroke="#63b8ff" points="1960.47,-206.36 1969.33,-200.56 1958.79,-199.56 1960.47,-206.36"/>
</g>
<!-- Node31 -->
<g id="node31" class="node">
<title>Node31</title>
<g id="a_node31"><a xlink:href="_enable_warnings_8hpp.html" target="_top" xlink:title=" ">
<polygon fill="white" stroke="#666666" points="2249.03,-200.5 2066.03,-200.5 2066.03,-181.5 2249.03,-181.5 2249.03,-200.5"/>
<text text-anchor="middle" x="2157.53" y="-188.5" font-family="Helvetica,sans-Serif" font-size="10.00">polyfem/utils/EnableWarnings.hpp</text>
</a>
</g>
</g>
<!-- Node26&#45;&gt;Node31 -->
<g id="edge58" class="edge">
<title>Node26&#45;&gt;Node31</title>
<path fill="none" stroke="#63b8ff" d="M1725.42,-247.49C1736.24,-245.56 1747.79,-243.61 1758.53,-242 1890.91,-222.17 1924.81,-223.28 2057.53,-206 2067.38,-204.72 2077.76,-203.32 2087.96,-201.92"/>
<polygon fill="#63b8ff" stroke="#63b8ff" points="2088.65,-205.35 2098.07,-200.52 2087.69,-198.42 2088.65,-205.35"/>
</g>
</g>
</svg>
