<?xml version="1.0" encoding="UTF-8" standalone="no"?>
<!DOCTYPE svg PUBLIC "-//W3C//DTD SVG 1.1//EN"
 "http://www.w3.org/Graphics/SVG/1.1/DTD/svg11.dtd">
<!-- Generated by graphviz version 2.43.0 (0)
 -->
<!-- Title: src/polyfem/solver/forms/adjoint_forms/CompositeForms.hpp Pages: 1 -->
<svg width="1355pt" height="401pt"
 viewBox="0.00 0.00 1355.00 401.00" xmlns="http://www.w3.org/2000/svg" xmlns:xlink="http://www.w3.org/1999/xlink">
<g id="graph0" class="graph" transform="scale(1 1) rotate(0) translate(4 397)">
<title>src/polyfem/solver/forms/adjoint_forms/CompositeForms.hpp</title>
<!-- Node1 -->
<g id="Node000001" class="node">
<title>Node1</title>
<g id="a_Node000001"><a xlink:title=" ">
<polygon fill="#999999" stroke="#666666" points="635,-393 512,-393 512,-352 635,-352 635,-393"/>
<text text-anchor="start" x="520" y="-381" font-family="Helvetica,sans-Serif" font-size="10.00">src/polyfem/solver</text>
<text text-anchor="start" x="520" y="-370" font-family="Helvetica,sans-Serif" font-size="10.00">/forms/adjoint_forms</text>
<text text-anchor="middle" x="573.5" y="-359" font-family="Helvetica,sans-Serif" font-size="10.00">/CompositeForms.hpp</text>
</a>
</g>
</g>
<!-- Node2 -->
<g id="Node000002" class="node">
<title>Node2</title>
<g id="a_Node000002"><a xlink:href="_composite_form_8hpp.html" target="_top" xlink:title=" ">
<polygon fill="white" stroke="#666666" points="631,-316 516,-316 516,-297 631,-297 631,-316"/>
<text text-anchor="middle" x="573.5" y="-304" font-family="Helvetica,sans-Serif" font-size="10.00">CompositeForm.hpp</text>
</a>
</g>
</g>
<!-- Node1&#45;&gt;Node2 -->
<g id="edge1_Node000001_Node000002" class="edge">
<title>Node1&#45;&gt;Node2</title>
<g id="a_edge1_Node000001_Node000002"><a xlink:title=" ">
<path fill="none" stroke="#63b8ff" d="M573.5,-351.95C573.5,-343.85 573.5,-334.5 573.5,-326.47"/>
<polygon fill="#63b8ff" stroke="#63b8ff" points="577,-326.26 573.5,-316.26 570,-326.26 577,-326.26"/>
</a>
</g>
</g>
<!-- Node3 -->
<g id="Node000003" class="node">
<title>Node3</title>
<g id="a_Node000003"><a xlink:href="_adjoint_form_8hpp.html" target="_top" xlink:title=" ">
<polygon fill="white" stroke="#666666" points="528,-261 431,-261 431,-242 528,-242 528,-261"/>
<text text-anchor="middle" x="479.5" y="-249" font-family="Helvetica,sans-Serif" font-size="10.00">AdjointForm.hpp</text>
</a>
</g>
</g>
<!-- Node2&#45;&gt;Node3 -->
<g id="edge2_Node000002_Node000003" class="edge">
<title>Node2&#45;&gt;Node3</title>
<g id="a_edge2_Node000002_Node000003"><a xlink:title=" ">
<path fill="none" stroke="#63b8ff" d="M558.4,-296.98C543.68,-288.69 521.08,-275.94 503.83,-266.22"/>
<polygon fill="#63b8ff" stroke="#63b8ff" points="505.31,-263.03 494.88,-261.17 501.87,-269.13 505.31,-263.03"/>
</a>
</g>
</g>
<!-- Node5 -->
<g id="Node000005" class="node">
<title>Node5</title>
<g id="a_Node000005"><a xlink:href="_types_8hpp.html" target="_top" xlink:title=" ">
<polygon fill="white" stroke="#666666" points="645,-134.5 512,-134.5 512,-115.5 645,-115.5 645,-134.5"/>
<text text-anchor="middle" x="578.5" y="-122.5" font-family="Helvetica,sans-Serif" font-size="10.00">polyfem/utils/Types.hpp</text>
</a>
</g>
</g>
<!-- Node2&#45;&gt;Node5 -->
<g id="edge18_Node000002_Node000005" class="edge">
<title>Node2&#45;&gt;Node5</title>
<g id="a_edge18_Node000002_Node000005"><a xlink:title=" ">
<path fill="none" stroke="#63b8ff" d="M573.74,-296.84C574.51,-269.3 576.91,-183.26 577.98,-144.84"/>
<polygon fill="#63b8ff" stroke="#63b8ff" points="581.48,-144.66 578.26,-134.57 574.48,-144.47 581.48,-144.66"/>
</a>
</g>
</g>
<!-- Node18 -->
<g id="Node000018" class="node">
<title>Node18</title>
<g id="a_Node000018"><a xlink:href="_logger_8hpp.html" target="_top" xlink:title=" ">
<polygon fill="white" stroke="#666666" points="974,-261 837,-261 837,-242 974,-242 974,-261"/>
<text text-anchor="middle" x="905.5" y="-249" font-family="Helvetica,sans-Serif" font-size="10.00">polyfem/utils/Logger.hpp</text>
</a>
</g>
</g>
<!-- Node2&#45;&gt;Node18 -->
<g id="edge19_Node000002_Node000018" class="edge">
<title>Node2&#45;&gt;Node18</title>
<g id="a_edge19_Node000002_Node000018"><a xlink:title=" ">
<path fill="none" stroke="#63b8ff" d="M626.84,-296.98C685.44,-287.63 779.51,-272.61 841.9,-262.65"/>
<polygon fill="#63b8ff" stroke="#63b8ff" points="842.69,-266.07 852.02,-261.04 841.59,-259.16 842.69,-266.07"/>
</a>
</g>
</g>
<!-- Node4 -->
<g id="Node000004" class="node">
<title>Node4</title>
<g id="a_Node000004"><a xlink:href="_form_8hpp.html" target="_top" xlink:title=" ">
<polygon fill="white" stroke="#666666" points="540.5,-206 418.5,-206 418.5,-176 540.5,-176 540.5,-206"/>
<text text-anchor="start" x="426.5" y="-194" font-family="Helvetica,sans-Serif" font-size="10.00">polyfem/solver/forms</text>
<text text-anchor="middle" x="479.5" y="-183" font-family="Helvetica,sans-Serif" font-size="10.00">/Form.hpp</text>
</a>
</g>
</g>
<!-- Node3&#45;&gt;Node4 -->
<g id="edge3_Node000003_Node000004" class="edge">
<title>Node3&#45;&gt;Node4</title>
<g id="a_edge3_Node000003_Node000004"><a xlink:title=" ">
<path fill="none" stroke="#63b8ff" d="M479.5,-241.87C479.5,-235.11 479.5,-225.35 479.5,-216.26"/>
<polygon fill="#63b8ff" stroke="#63b8ff" points="483,-216.11 479.5,-206.11 476,-216.11 483,-216.11"/>
</a>
</g>
</g>
<!-- Node9 -->
<g id="Node000009" class="node">
<title>Node9</title>
<g id="a_Node000009"><a xlink:href="_variable_to_simulation_8hpp.html" target="_top" xlink:title=" ">
<polygon fill="white" stroke="#666666" points="390.5,-200.5 250.5,-200.5 250.5,-181.5 390.5,-181.5 390.5,-200.5"/>
<text text-anchor="middle" x="320.5" y="-188.5" font-family="Helvetica,sans-Serif" font-size="10.00">VariableToSimulation.hpp</text>
</a>
</g>
</g>
<!-- Node3&#45;&gt;Node9 -->
<g id="edge8_Node000003_Node000009" class="edge">
<title>Node3&#45;&gt;Node9</title>
<g id="a_edge8_Node000003_Node000009"><a xlink:title=" ">
<path fill="none" stroke="#63b8ff" d="M456.38,-241.99C429.18,-231.99 383.83,-215.3 353.08,-203.99"/>
<polygon fill="#63b8ff" stroke="#63b8ff" points="354.24,-200.68 343.65,-200.52 351.82,-207.25 354.24,-200.68"/>
</a>
</g>
</g>
<!-- Node4&#45;&gt;Node5 -->
<g id="edge4_Node000004_Node000005" class="edge">
<title>Node4&#45;&gt;Node5</title>
<g id="a_edge4_Node000004_Node000005"><a xlink:title=" ">
<path fill="none" stroke="#63b8ff" d="M501.47,-175.8C517.91,-165.17 540.29,-150.7 556.69,-140.1"/>
<polygon fill="#63b8ff" stroke="#63b8ff" points="558.61,-143.03 565.11,-134.66 554.81,-137.15 558.61,-143.03"/>
</a>
</g>
</g>
<!-- Node8 -->
<g id="Node000008" class="node">
<title>Node8</title>
<g id="a_Node000008"><a xlink:title=" ">
<polygon fill="#e0e0e0" stroke="#999999" points="493.5,-134.5 425.5,-134.5 425.5,-115.5 493.5,-115.5 493.5,-134.5"/>
<text text-anchor="middle" x="459.5" y="-122.5" font-family="Helvetica,sans-Serif" font-size="10.00">filesystem</text>
</a>
</g>
</g>
<!-- Node4&#45;&gt;Node8 -->
<g id="edge7_Node000004_Node000008" class="edge">
<title>Node4&#45;&gt;Node8</title>
<g id="a_edge7_Node000004_Node000008"><a xlink:title=" ">
<path fill="none" stroke="#63b8ff" d="M475.06,-175.8C472.19,-166.6 468.42,-154.53 465.31,-144.58"/>
<polygon fill="#63b8ff" stroke="#63b8ff" points="468.59,-143.35 462.26,-134.84 461.91,-145.43 468.59,-143.35"/>
</a>
</g>
</g>
<!-- Node6 -->
<g id="Node000006" class="node">
<title>Node6</title>
<g id="a_Node000006"><a xlink:title=" ">
<polygon fill="#e0e0e0" stroke="#999999" points="626,-74 549,-74 549,-55 626,-55 626,-74"/>
<text text-anchor="middle" x="587.5" y="-62" font-family="Helvetica,sans-Serif" font-size="10.00">Eigen/Dense</text>
</a>
</g>
</g>
<!-- Node5&#45;&gt;Node6 -->
<g id="edge5_Node000005_Node000006" class="edge">
<title>Node5&#45;&gt;Node6</title>
<g id="a_edge5_Node000005_Node000006"><a xlink:title=" ">
<path fill="none" stroke="#63b8ff" d="M579.83,-115.37C581.09,-107.16 583.03,-94.54 584.65,-84.05"/>
<polygon fill="#63b8ff" stroke="#63b8ff" points="588.11,-84.58 586.17,-74.17 581.19,-83.52 588.11,-84.58"/>
</a>
</g>
</g>
<!-- Node7 -->
<g id="Node000007" class="node">
<title>Node7</title>
<g id="a_Node000007"><a xlink:title=" ">
<polygon fill="#e0e0e0" stroke="#999999" points="560.5,-19 480.5,-19 480.5,0 560.5,0 560.5,-19"/>
<text text-anchor="middle" x="520.5" y="-7" font-family="Helvetica,sans-Serif" font-size="10.00">Eigen/Sparse</text>
</a>
</g>
</g>
<!-- Node5&#45;&gt;Node7 -->
<g id="edge6_Node000005_Node000007" class="edge">
<title>Node5&#45;&gt;Node7</title>
<g id="a_edge6_Node000005_Node000007"><a xlink:title=" ">
<path fill="none" stroke="#63b8ff" d="M570.22,-115.48C561.46,-106.05 547.78,-90.04 539.5,-74 532.15,-59.76 527.18,-42.23 524.17,-29.2"/>
<polygon fill="#63b8ff" stroke="#63b8ff" points="527.52,-28.15 522.02,-19.1 520.68,-29.61 527.52,-28.15"/>
</a>
</g>
</g>
<!-- Node10 -->
<g id="Node000010" class="node">
<title>Node10</title>
<g id="a_Node000010"><a xlink:href="_parametrization_8hpp.html" target="_top" xlink:title=" ">
<polygon fill="white" stroke="#666666" points="216,-140 17,-140 17,-110 216,-110 216,-140"/>
<text text-anchor="start" x="25" y="-128" font-family="Helvetica,sans-Serif" font-size="10.00">polyfem/solver/forms</text>
<text text-anchor="middle" x="116.5" y="-117" font-family="Helvetica,sans-Serif" font-size="10.00">/parametrization/Parametrization.hpp</text>
</a>
</g>
</g>
<!-- Node9&#45;&gt;Node10 -->
<g id="edge9_Node000009_Node000010" class="edge">
<title>Node9&#45;&gt;Node10</title>
<g id="a_edge9_Node000009_Node000010"><a xlink:title=" ">
<path fill="none" stroke="#63b8ff" d="M292.99,-181.37C261.91,-171.62 210.54,-155.5 171.21,-143.16"/>
<polygon fill="#63b8ff" stroke="#63b8ff" points="172.08,-139.77 161.49,-140.12 169.99,-146.45 172.08,-139.77"/>
</a>
</g>
</g>
<!-- Node14 -->
<g id="Node000014" class="node">
<title>Node14</title>
<g id="a_Node000014"><a xlink:href="_adjoint_tools_8hpp.html" target="_top" xlink:title=" ">
<polygon fill="white" stroke="#666666" points="407,-134.5 234,-134.5 234,-115.5 407,-115.5 407,-134.5"/>
<text text-anchor="middle" x="320.5" y="-122.5" font-family="Helvetica,sans-Serif" font-size="10.00">polyfem/solver/AdjointTools.hpp</text>
</a>
</g>
</g>
<!-- Node9&#45;&gt;Node14 -->
<g id="edge13_Node000009_Node000014" class="edge">
<title>Node9&#45;&gt;Node14</title>
<g id="a_edge13_Node000009_Node000014"><a xlink:title=" ">
<path fill="none" stroke="#63b8ff" d="M320.5,-181.37C320.5,-172.16 320.5,-157.29 320.5,-145.27"/>
<polygon fill="#63b8ff" stroke="#63b8ff" points="324,-144.91 320.5,-134.91 317,-144.91 324,-144.91"/>
</a>
</g>
</g>
<!-- Node11 -->
<g id="Node000011" class="node">
<title>Node11</title>
<g id="a_Node000011"><a xlink:title=" ">
<polygon fill="#e0e0e0" stroke="#999999" points="145.5,-74 87.5,-74 87.5,-55 145.5,-55 145.5,-74"/>
<text text-anchor="middle" x="116.5" y="-62" font-family="Helvetica,sans-Serif" font-size="10.00">memory</text>
</a>
</g>
</g>
<!-- Node10&#45;&gt;Node11 -->
<g id="edge10_Node000010_Node000011" class="edge">
<title>Node10&#45;&gt;Node11</title>
<g id="a_edge10_Node000010_Node000011"><a xlink:title=" ">
<path fill="none" stroke="#63b8ff" d="M116.5,-109.84C116.5,-102.21 116.5,-92.7 116.5,-84.45"/>
<polygon fill="#63b8ff" stroke="#63b8ff" points="120,-84.27 116.5,-74.27 113,-84.27 120,-84.27"/>
</a>
</g>
</g>
<!-- Node12 -->
<g id="Node000012" class="node">
<title>Node12</title>
<g id="a_Node000012"><a xlink:title=" ">
<polygon fill="#e0e0e0" stroke="#999999" points="211,-74 164,-74 164,-55 211,-55 211,-74"/>
<text text-anchor="middle" x="187.5" y="-62" font-family="Helvetica,sans-Serif" font-size="10.00">vector</text>
</a>
</g>
</g>
<!-- Node10&#45;&gt;Node12 -->
<g id="edge11_Node000010_Node000012" class="edge">
<title>Node10&#45;&gt;Node12</title>
<g id="a_edge11_Node000010_Node000012"><a xlink:title=" ">
<path fill="none" stroke="#63b8ff" d="M133.69,-109.84C144.31,-101.09 157.94,-89.85 168.83,-80.88"/>
<polygon fill="#63b8ff" stroke="#63b8ff" points="171.37,-83.33 176.86,-74.27 166.92,-77.92 171.37,-83.33"/>
</a>
</g>
</g>
<!-- Node13 -->
<g id="Node000013" class="node">
<title>Node13</title>
<g id="a_Node000013"><a xlink:title=" ">
<polygon fill="#e0e0e0" stroke="#999999" points="69,-74 0,-74 0,-55 69,-55 69,-74"/>
<text text-anchor="middle" x="34.5" y="-62" font-family="Helvetica,sans-Serif" font-size="10.00">Eigen/Core</text>
</a>
</g>
</g>
<!-- Node10&#45;&gt;Node13 -->
<g id="edge12_Node000010_Node000013" class="edge">
<title>Node10&#45;&gt;Node13</title>
<g id="a_edge12_Node000010_Node000013"><a xlink:title=" ">
<path fill="none" stroke="#63b8ff" d="M96.65,-109.84C84.02,-100.83 67.7,-89.18 54.95,-80.09"/>
<polygon fill="#63b8ff" stroke="#63b8ff" points="56.96,-77.22 46.79,-74.27 52.9,-82.92 56.96,-77.22"/>
</a>
</g>
</g>
<!-- Node15 -->
<g id="Node000015" class="node">
<title>Node15</title>
<g id="a_Node000015"><a xlink:href="_common_8hpp.html" target="_top" xlink:title=" ">
<polygon fill="white" stroke="#666666" points="475,-74 350,-74 350,-55 475,-55 475,-74"/>
<text text-anchor="middle" x="412.5" y="-62" font-family="Helvetica,sans-Serif" font-size="10.00">polyfem/Common.hpp</text>
</a>
</g>
</g>
<!-- Node14&#45;&gt;Node15 -->
<g id="edge14_Node000014_Node000015" class="edge">
<title>Node14&#45;&gt;Node15</title>
<g id="a_edge14_Node000014_Node000015"><a xlink:title=" ">
<path fill="none" stroke="#63b8ff" d="M334.07,-115.37C348.89,-105.95 372.83,-90.73 390.36,-79.58"/>
<polygon fill="#63b8ff" stroke="#63b8ff" points="392.31,-82.49 398.87,-74.17 388.55,-76.58 392.31,-82.49"/>
</a>
</g>
</g>
<!-- Node17 -->
<g id="Node000017" class="node">
<title>Node17</title>
<g id="a_Node000017"><a xlink:title=" ">
<polygon fill="#e0e0e0" stroke="#999999" points="331.5,-74 299.5,-74 299.5,-55 331.5,-55 331.5,-74"/>
<text text-anchor="middle" x="315.5" y="-62" font-family="Helvetica,sans-Serif" font-size="10.00">set</text>
</a>
</g>
</g>
<!-- Node14&#45;&gt;Node17 -->
<g id="edge17_Node000014_Node000017" class="edge">
<title>Node14&#45;&gt;Node17</title>
<g id="a_edge17_Node000014_Node000017"><a xlink:title=" ">
<path fill="none" stroke="#63b8ff" d="M319.76,-115.37C319.07,-107.25 318,-94.81 317.11,-84.39"/>
<polygon fill="#63b8ff" stroke="#63b8ff" points="320.58,-83.83 316.24,-74.17 313.61,-84.43 320.58,-83.83"/>
</a>
</g>
</g>
<!-- Node15&#45;&gt;Node7 -->
<g id="edge15_Node000015_Node000007" class="edge">
<title>Node15&#45;&gt;Node7</title>
<g id="a_edge15_Node000015_Node000007"><a xlink:title=" ">
<path fill="none" stroke="#63b8ff" d="M429.85,-54.98C447.07,-46.54 473.7,-33.47 493.65,-23.68"/>
<polygon fill="#63b8ff" stroke="#63b8ff" points="495.4,-26.72 502.83,-19.17 492.31,-20.43 495.4,-26.72"/>
</a>
</g>
</g>
<!-- Node16 -->
<g id="Node000016" class="node">
<title>Node16</title>
<g id="a_Node000016"><a xlink:title=" ">
<polygon fill="#e0e0e0" stroke="#999999" points="462.5,-19 352.5,-19 352.5,0 462.5,0 462.5,-19"/>
<text text-anchor="middle" x="407.5" y="-7" font-family="Helvetica,sans-Serif" font-size="10.00">nlohmann/json.hpp</text>
</a>
</g>
</g>
<!-- Node15&#45;&gt;Node16 -->
<g id="edge16_Node000015_Node000016" class="edge">
<title>Node15&#45;&gt;Node16</title>
<g id="a_edge16_Node000015_Node000016"><a xlink:title=" ">
<path fill="none" stroke="#63b8ff" d="M411.67,-54.75C411.02,-47.8 410.08,-37.85 409.26,-29.13"/>
<polygon fill="#63b8ff" stroke="#63b8ff" points="412.73,-28.72 408.31,-19.09 405.77,-29.37 412.73,-28.72"/>
</a>
</g>
</g>
<!-- Node19 -->
<g id="Node000019" class="node">
<title>Node19</title>
<g id="a_Node000019"><a xlink:href="_disable_warnings_8hpp.html" target="_top" xlink:title=" ">
<polygon fill="white" stroke="#666666" points="1101,-200.5 914,-200.5 914,-181.5 1101,-181.5 1101,-200.5"/>
<text text-anchor="middle" x="1007.5" y="-188.5" font-family="Helvetica,sans-Serif" font-size="10.00">polyfem/utils/DisableWarnings.hpp</text>
</a>
</g>
</g>
<!-- Node18&#45;&gt;Node19 -->
<g id="edge20_Node000018_Node000019" class="edge">
<title>Node18&#45;&gt;Node19</title>
<g id="a_edge20_Node000018_Node000019"><a xlink:title=" ">
<path fill="none" stroke="#63b8ff" d="M920.55,-241.87C937.12,-232.36 964,-216.95 983.49,-205.77"/>
<polygon fill="#63b8ff" stroke="#63b8ff" points="985.45,-208.68 992.39,-200.67 981.97,-202.61 985.45,-208.68"/>
</a>
</g>
</g>
<!-- Node20 -->
<g id="Node000020" class="node">
<title>Node20</title>
<g id="a_Node000020"><a xlink:title=" ">
<polygon fill="#e0e0e0" stroke="#999999" points="1230,-206 1119,-206 1119,-176 1230,-176 1230,-206"/>
<text text-anchor="start" x="1127" y="-194" font-family="Helvetica,sans-Serif" font-size="10.00">spdlog/fmt/bundled</text>
<text text-anchor="middle" x="1174.5" y="-183" font-family="Helvetica,sans-Serif" font-size="10.00">/ranges.h</text>
</a>
</g>
</g>
<!-- Node18&#45;&gt;Node20 -->
<g id="edge21_Node000018_Node000020" class="edge">
<title>Node18&#45;&gt;Node20</title>
<g id="a_edge21_Node000018_Node000020"><a xlink:title=" ">
<path fill="none" stroke="#63b8ff" d="M944.8,-241.99C983.98,-233.5 1046.14,-220.02 1108.92,-206.34"/>
<polygon fill="#63b8ff" stroke="#63b8ff" points="1109.97,-209.7 1119,-204.15 1108.48,-202.86 1109.97,-209.7"/>
</a>
</g>
</g>
<!-- Node21 -->
<g id="Node000021" class="node">
<title>Node21</title>
<g id="a_Node000021"><a xlink:title=" ">
<polygon fill="#e0e0e0" stroke="#999999" points="1347,-200.5 1248,-200.5 1248,-181.5 1347,-181.5 1347,-200.5"/>
<text text-anchor="middle" x="1297.5" y="-188.5" font-family="Helvetica,sans-Serif" font-size="10.00">spdlog/fmt/ostr.h</text>
</a>
</g>
</g>
<!-- Node18&#45;&gt;Node21 -->
<g id="edge22_Node000018_Node000021" class="edge">
<title>Node18&#45;&gt;Node21</title>
<g id="a_edge22_Node000018_Node000021"><a xlink:title=" ">
<path fill="none" stroke="#63b8ff" d="M974.28,-243.46C1042.04,-236.03 1148.36,-223.02 1239.5,-206 1244.53,-205.06 1249.77,-203.96 1254.96,-202.8"/>
<polygon fill="#63b8ff" stroke="#63b8ff" points="1255.86,-206.19 1264.81,-200.52 1254.28,-199.37 1255.86,-206.19"/>
</a>
</g>
</g>
<!-- Node22 -->
<g id="Node000022" class="node">
<title>Node22</title>
<g id="a_Node000022"><a xlink:title=" ">
<polygon fill="#e0e0e0" stroke="#999999" points="695,-200.5 602,-200.5 602,-181.5 695,-181.5 695,-200.5"/>
<text text-anchor="middle" x="648.5" y="-188.5" font-family="Helvetica,sans-Serif" font-size="10.00">spdlog/spdlog.h</text>
</a>
</g>
</g>
<!-- Node18&#45;&gt;Node22 -->
<g id="edge23_Node000018_Node000022" class="edge">
<title>Node18&#45;&gt;Node22</title>
<g id="a_edge23_Node000018_Node000022"><a xlink:title=" ">
<path fill="none" stroke="#63b8ff" d="M864.79,-241.94C823.93,-233.25 759.23,-219.23 703.5,-206 699.46,-205.04 695.25,-204.02 691.05,-202.98"/>
<polygon fill="#63b8ff" stroke="#63b8ff" points="691.87,-199.57 681.32,-200.54 690.17,-206.36 691.87,-199.57"/>
</a>
</g>
</g>
<!-- Node23 -->
<g id="Node000023" class="node">
<title>Node23</title>
<g id="a_Node000023"><a xlink:href="_enable_warnings_8hpp.html" target="_top" xlink:title=" ">
<polygon fill="white" stroke="#666666" points="896,-200.5 713,-200.5 713,-181.5 896,-181.5 896,-200.5"/>
<text text-anchor="middle" x="804.5" y="-188.5" font-family="Helvetica,sans-Serif" font-size="10.00">polyfem/utils/EnableWarnings.hpp</text>
</a>
</g>
</g>
<!-- Node18&#45;&gt;Node23 -->
<g id="edge24_Node000018_Node000023" class="edge">
<title>Node18&#45;&gt;Node23</title>
<g id="a_edge24_Node000018_Node000023"><a xlink:title=" ">
<path fill="none" stroke="#63b8ff" d="M890.6,-241.87C874.19,-232.36 847.57,-216.95 828.27,-205.77"/>
<polygon fill="#63b8ff" stroke="#63b8ff" points="829.87,-202.65 819.46,-200.67 826.36,-208.71 829.87,-202.65"/>
</a>
</g>
</g>
</g>
</svg>
