<?xml version="1.0" encoding="UTF-8" standalone="no"?>
<!DOCTYPE svg PUBLIC "-//W3C//DTD SVG 1.1//EN"
 "http://www.w3.org/Graphics/SVG/1.1/DTD/svg11.dtd">
<!-- Generated by graphviz version 2.43.0 (0)
 -->
<!-- Title: src/polyfem/solver/forms/ContactForm.cpp Pages: 1 -->
<svg width="2533pt" height="478pt"
 viewBox="0.00 0.00 2532.50 478.00" xmlns="http://www.w3.org/2000/svg" xmlns:xlink="http://www.w3.org/1999/xlink">
<g id="graph0" class="graph" transform="scale(1 1) rotate(0) translate(4 474)">
<title>src/polyfem/solver/forms/ContactForm.cpp</title>
<!-- Node1 -->
<g id="node1" class="node">
<title>Node1</title>
<g id="a_node1"><a xlink:title=" ">
<polygon fill="#999999" stroke="#666666" points="1835.5,-470 1701.5,-470 1701.5,-440 1835.5,-440 1835.5,-470"/>
<text text-anchor="start" x="1709.5" y="-458" font-family="Helvetica,sans-Serif" font-size="10.00">src/polyfem/solver</text>
<text text-anchor="middle" x="1768.5" y="-447" font-family="Helvetica,sans-Serif" font-size="10.00">/forms/ContactForm.cpp</text>
</a>
</g>
</g>
<!-- Node2 -->
<g id="node2" class="node">
<title>Node2</title>
<g id="a_node2"><a xlink:href="_contact_form_8hpp.html" target="_top" xlink:title=" ">
<polygon fill="white" stroke="#666666" points="335.5,-200.5 235.5,-200.5 235.5,-181.5 335.5,-181.5 335.5,-200.5"/>
<text text-anchor="middle" x="285.5" y="-188.5" font-family="Helvetica,sans-Serif" font-size="10.00">ContactForm.hpp</text>
</a>
</g>
</g>
<!-- Node1&#45;&gt;Node2 -->
<g id="edge1" class="edge">
<title>Node1&#45;&gt;Node2</title>
<path fill="none" stroke="#63b8ff" d="M1701.22,-452.87C1474.82,-448.83 749.14,-433.66 648.5,-404 502.91,-361.09 354.3,-247.99 303.67,-207.06"/>
<polygon fill="#63b8ff" stroke="#63b8ff" points="305.84,-204.31 295.88,-200.71 301.42,-209.74 305.84,-204.31"/>
</g>
<!-- Node4 -->
<g id="node4" class="node">
<title>Node4</title>
<g id="a_node4"><a xlink:href="_types_8hpp.html" target="_top" xlink:title=" ">
<polygon fill="white" stroke="#666666" points="888,-74 755,-74 755,-55 888,-55 888,-74"/>
<text text-anchor="middle" x="821.5" y="-62" font-family="Helvetica,sans-Serif" font-size="10.00">polyfem/utils/Types.hpp</text>
</a>
</g>
</g>
<!-- Node1&#45;&gt;Node4 -->
<g id="edge58" class="edge">
<title>Node1&#45;&gt;Node4</title>
<path fill="none" stroke="#63b8ff" d="M1701.32,-452.86C1468.1,-448.03 707.5,-424.56 707.5,-324 707.5,-324 707.5,-324 707.5,-190 707.5,-153.46 703.44,-138.35 726.5,-110 739.01,-94.62 758.06,-84.28 775.82,-77.46"/>
<polygon fill="#63b8ff" stroke="#63b8ff" points="777.25,-80.67 785.5,-74.03 774.91,-74.07 777.25,-80.67"/>
</g>
<!-- Node13 -->
<g id="node13" class="node">
<title>Node13</title>
<g id="a_node13"><a xlink:href="_n_l_problem_8hpp.html" target="_top" xlink:title=" ">
<polygon fill="white" stroke="#666666" points="1617,-398.5 1450,-398.5 1450,-379.5 1617,-379.5 1617,-398.5"/>
<text text-anchor="middle" x="1533.5" y="-386.5" font-family="Helvetica,sans-Serif" font-size="10.00">polyfem/solver/NLProblem.hpp</text>
</a>
</g>
</g>
<!-- Node1&#45;&gt;Node13 -->
<g id="edge14" class="edge">
<title>Node1&#45;&gt;Node13</title>
<path fill="none" stroke="#63b8ff" d="M1716.93,-439.95C1674.17,-428.31 1614.2,-411.98 1574.62,-401.2"/>
<polygon fill="#63b8ff" stroke="#63b8ff" points="1575.34,-397.77 1564.77,-398.52 1573.5,-404.52 1575.34,-397.77"/>
</g>
<!-- Node39 -->
<g id="node23" class="node">
<title>Node39</title>
<g id="a_node23"><a xlink:href="_matrix_utils_8hpp.html" target="_top" xlink:title=" ">
<polygon fill="white" stroke="#666666" points="1084,-134.5 925,-134.5 925,-115.5 1084,-115.5 1084,-134.5"/>
<text text-anchor="middle" x="1004.5" y="-122.5" font-family="Helvetica,sans-Serif" font-size="10.00">polyfem/utils/MatrixUtils.hpp</text>
</a>
</g>
</g>
<!-- Node1&#45;&gt;Node39 -->
<g id="edge69" class="edge">
<title>Node1&#45;&gt;Node39</title>
<path fill="none" stroke="#63b8ff" d="M1701.27,-448.99C1521.54,-434.7 1043.5,-390.46 1043.5,-324 1043.5,-324 1043.5,-324 1043.5,-256 1043.5,-214.35 1024.91,-168.24 1013.4,-143.69"/>
<polygon fill="#63b8ff" stroke="#63b8ff" points="1016.49,-142.03 1008.97,-134.56 1010.19,-145.08 1016.49,-142.03"/>
</g>
<!-- Node48 -->
<g id="node32" class="node">
<title>Node48</title>
<g id="a_node32"><a xlink:href="_friction_form_8hpp.html" target="_top" xlink:title=" ">
<polygon fill="white" stroke="#666666" points="598.5,-206 476.5,-206 476.5,-176 598.5,-176 598.5,-206"/>
<text text-anchor="start" x="484.5" y="-194" font-family="Helvetica,sans-Serif" font-size="10.00">polyfem/solver/forms</text>
<text text-anchor="middle" x="537.5" y="-183" font-family="Helvetica,sans-Serif" font-size="10.00">/FrictionForm.hpp</text>
</a>
</g>
</g>
<!-- Node1&#45;&gt;Node48 -->
<g id="edge52" class="edge">
<title>Node1&#45;&gt;Node48</title>
<path fill="none" stroke="#63b8ff" d="M1701.42,-454.21C1480.1,-454.45 782.04,-451.39 693.5,-404 615.22,-362.1 565.9,-261.67 546.67,-215.7"/>
<polygon fill="#63b8ff" stroke="#63b8ff" points="549.84,-214.2 542.83,-206.26 543.36,-216.84 549.84,-214.2"/>
</g>
<!-- Node50 -->
<g id="node34" class="node">
<title>Node50</title>
<g id="a_node34"><a xlink:href="_timer_8hpp.html" target="_top" xlink:title=" ">
<polygon fill="white" stroke="#666666" points="1788,-398.5 1655,-398.5 1655,-379.5 1788,-379.5 1788,-398.5"/>
<text text-anchor="middle" x="1721.5" y="-386.5" font-family="Helvetica,sans-Serif" font-size="10.00">polyfem/utils/Timer.hpp</text>
</a>
</g>
</g>
<!-- Node1&#45;&gt;Node50 -->
<g id="edge59" class="edge">
<title>Node1&#45;&gt;Node50</title>
<path fill="none" stroke="#63b8ff" d="M1758.07,-439.8C1750.96,-430.11 1741.5,-417.24 1733.99,-407.01"/>
<polygon fill="#63b8ff" stroke="#63b8ff" points="1736.74,-404.83 1728,-398.84 1731.09,-408.98 1736.74,-404.83"/>
</g>
<!-- Node52 -->
<g id="node36" class="node">
<title>Node52</title>
<g id="a_node36"><a xlink:href="_logger_8hpp.html" target="_top" xlink:title=" ">
<polygon fill="white" stroke="#666666" points="1942,-332.5 1805,-332.5 1805,-313.5 1942,-313.5 1942,-332.5"/>
<text text-anchor="middle" x="1873.5" y="-320.5" font-family="Helvetica,sans-Serif" font-size="10.00">polyfem/utils/Logger.hpp</text>
</a>
</g>
</g>
<!-- Node1&#45;&gt;Node52 -->
<g id="edge68" class="edge">
<title>Node1&#45;&gt;Node52</title>
<path fill="none" stroke="#63b8ff" d="M1779.94,-439.84C1799.43,-415.71 1839.01,-366.71 1859.89,-340.85"/>
<polygon fill="#63b8ff" stroke="#63b8ff" points="1862.87,-342.73 1866.43,-332.75 1857.43,-338.33 1862.87,-342.73"/>
</g>
<!-- Node59 -->
<g id="node43" class="node">
<title>Node59</title>
<g id="a_node43"><a xlink:href="_maybe_parallel_for_8hpp.html" target="_top" xlink:title=" ">
<polygon fill="white" stroke="#666666" points="1998,-404 1845,-404 1845,-374 1998,-374 1998,-404"/>
<text text-anchor="start" x="1853" y="-392" font-family="Helvetica,sans-Serif" font-size="10.00">polyfem/utils/MaybeParallel</text>
<text text-anchor="middle" x="1921.5" y="-381" font-family="Helvetica,sans-Serif" font-size="10.00">For.hpp</text>
</a>
</g>
</g>
<!-- Node1&#45;&gt;Node59 -->
<g id="edge70" class="edge">
<title>Node1&#45;&gt;Node59</title>
<path fill="none" stroke="#63b8ff" d="M1802.08,-439.95C1824.6,-430.53 1854.46,-418.04 1878.68,-407.91"/>
<polygon fill="#63b8ff" stroke="#63b8ff" points="1880.13,-411.1 1888,-404.01 1877.43,-404.64 1880.13,-411.1"/>
</g>
<!-- Node61 -->
<g id="node45" class="node">
<title>Node61</title>
<g id="a_node45"><a xlink:href="_o_b_j_writer_8hpp.html" target="_top" xlink:title=" ">
<polygon fill="white" stroke="#666666" points="2156.5,-398.5 2016.5,-398.5 2016.5,-379.5 2156.5,-379.5 2156.5,-398.5"/>
<text text-anchor="middle" x="2086.5" y="-386.5" font-family="Helvetica,sans-Serif" font-size="10.00">polyfem/io/OBJWriter.hpp</text>
</a>
</g>
</g>
<!-- Node1&#45;&gt;Node61 -->
<g id="edge72" class="edge">
<title>Node1&#45;&gt;Node61</title>
<path fill="none" stroke="#63b8ff" d="M1835.55,-440.51C1894.61,-428.62 1979.46,-411.54 2033.78,-400.61"/>
<polygon fill="#63b8ff" stroke="#63b8ff" points="2034.77,-403.98 2043.89,-398.58 2033.39,-397.12 2034.77,-403.98"/>
</g>
<!-- Node63 -->
<g id="node48" class="node">
<title>Node63</title>
<g id="a_node48"><a xlink:title=" ">
<polygon fill="#e0e0e0" stroke="#999999" points="2286.5,-404 2174.5,-404 2174.5,-374 2286.5,-374 2286.5,-404"/>
<text text-anchor="start" x="2182.5" y="-392" font-family="Helvetica,sans-Serif" font-size="10.00">ipc/barrier/adaptive</text>
<text text-anchor="middle" x="2230.5" y="-381" font-family="Helvetica,sans-Serif" font-size="10.00">_stiffness.hpp</text>
</a>
</g>
</g>
<!-- Node1&#45;&gt;Node63 -->
<g id="edge75" class="edge">
<title>Node1&#45;&gt;Node63</title>
<path fill="none" stroke="#63b8ff" d="M1835.84,-447.32C1912.86,-439.28 2042.92,-424.46 2164,-404.17"/>
<polygon fill="#63b8ff" stroke="#63b8ff" points="2164.91,-407.56 2174.19,-402.44 2163.74,-400.66 2164.91,-407.56"/>
</g>
<!-- Node64 -->
<g id="node49" class="node">
<title>Node64</title>
<g id="a_node49"><a xlink:title=" ">
<polygon fill="#e0e0e0" stroke="#999999" points="2426,-404 2305,-404 2305,-374 2426,-374 2426,-404"/>
<text text-anchor="start" x="2313" y="-392" font-family="Helvetica,sans-Serif" font-size="10.00">ipc/utils/world_bbox</text>
<text text-anchor="middle" x="2365.5" y="-381" font-family="Helvetica,sans-Serif" font-size="10.00">_diagonal_length.hpp</text>
</a>
</g>
</g>
<!-- Node1&#45;&gt;Node64 -->
<g id="edge76" class="edge">
<title>Node1&#45;&gt;Node64</title>
<path fill="none" stroke="#63b8ff" d="M1835.73,-449.84C1934.25,-443.26 2123.76,-428.73 2294.91,-403.98"/>
<polygon fill="#63b8ff" stroke="#63b8ff" points="2295.47,-407.43 2304.86,-402.52 2294.46,-400.51 2295.47,-407.43"/>
</g>
<!-- Node65 -->
<g id="node50" class="node">
<title>Node65</title>
<g id="a_node50"><a xlink:title=" ">
<polygon fill="#e0e0e0" stroke="#999999" points="2524.5,-398.5 2444.5,-398.5 2444.5,-379.5 2524.5,-379.5 2524.5,-398.5"/>
<text text-anchor="middle" x="2484.5" y="-386.5" font-family="Helvetica,sans-Serif" font-size="10.00">igl/writePLY.h</text>
</a>
</g>
</g>
<!-- Node1&#45;&gt;Node65 -->
<g id="edge77" class="edge">
<title>Node1&#45;&gt;Node65</title>
<path fill="none" stroke="#63b8ff" d="M1835.81,-453.46C1956.78,-451.5 2218.58,-442.7 2435.5,-404 2439.71,-403.25 2444.08,-402.28 2448.4,-401.21"/>
<polygon fill="#63b8ff" stroke="#63b8ff" points="2449.53,-404.53 2458.28,-398.55 2447.72,-397.77 2449.53,-404.53"/>
</g>
<!-- Node3 -->
<g id="node3" class="node">
<title>Node3</title>
<g id="a_node3"><a xlink:href="_form_8hpp.html" target="_top" xlink:title=" ">
<polygon fill="white" stroke="#666666" points="517.5,-134.5 455.5,-134.5 455.5,-115.5 517.5,-115.5 517.5,-134.5"/>
<text text-anchor="middle" x="486.5" y="-122.5" font-family="Helvetica,sans-Serif" font-size="10.00">Form.hpp</text>
</a>
</g>
</g>
<!-- Node2&#45;&gt;Node3 -->
<g id="edge2" class="edge">
<title>Node2&#45;&gt;Node3</title>
<path fill="none" stroke="#63b8ff" d="M313.61,-181.46C345.61,-171.68 399.44,-155.06 445.5,-140 447.65,-139.3 449.86,-138.57 452.09,-137.82"/>
<polygon fill="#63b8ff" stroke="#63b8ff" points="453.46,-141.05 461.82,-134.54 451.22,-134.42 453.46,-141.05"/>
</g>
<!-- Node2&#45;&gt;Node4 -->
<g id="edge10" class="edge">
<title>Node2&#45;&gt;Node4</title>
<path fill="none" stroke="#63b8ff" d="M256.54,-181.39C216.17,-168.02 150.95,-140.6 179.5,-110 198.53,-89.61 578.52,-73.95 744.75,-68.05"/>
<polygon fill="#63b8ff" stroke="#63b8ff" points="745.04,-71.54 754.91,-67.69 744.79,-64.55 745.04,-71.54"/>
</g>
<!-- Node8 -->
<g id="node8" class="node">
<title>Node8</title>
<g id="a_node8"><a xlink:href="_common_8hpp.html" target="_top" xlink:title=" ">
<polygon fill="white" stroke="#666666" points="1685,-74 1560,-74 1560,-55 1685,-55 1685,-74"/>
<text text-anchor="middle" x="1622.5" y="-62" font-family="Helvetica,sans-Serif" font-size="10.00">polyfem/Common.hpp</text>
</a>
</g>
</g>
<!-- Node2&#45;&gt;Node8 -->
<g id="edge7" class="edge">
<title>Node2&#45;&gt;Node8</title>
<path fill="none" stroke="#63b8ff" d="M267.58,-181.44C238.8,-166.63 187.9,-135.39 212.5,-110 235.98,-85.77 1264.15,-70.28 1549.65,-66.44"/>
<polygon fill="#63b8ff" stroke="#63b8ff" points="1549.94,-69.93 1559.89,-66.3 1549.84,-62.93 1549.94,-69.93"/>
</g>
<!-- Node10 -->
<g id="node10" class="node">
<title>Node10</title>
<g id="a_node10"><a xlink:title=" ">
<polygon fill="#e0e0e0" stroke="#999999" points="437,-134.5 368,-134.5 368,-115.5 437,-115.5 437,-134.5"/>
<text text-anchor="middle" x="402.5" y="-122.5" font-family="Helvetica,sans-Serif" font-size="10.00">ipc/ipc.hpp</text>
</a>
</g>
</g>
<!-- Node2&#45;&gt;Node10 -->
<g id="edge11" class="edge">
<title>Node2&#45;&gt;Node10</title>
<path fill="none" stroke="#63b8ff" d="M301.28,-181.37C320.91,-170.63 354.64,-152.18 377.73,-139.55"/>
<polygon fill="#63b8ff" stroke="#63b8ff" points="379.5,-142.57 386.6,-134.7 376.14,-136.43 379.5,-142.57"/>
</g>
<!-- Node11 -->
<g id="node11" class="node">
<title>Node11</title>
<g id="a_node11"><a xlink:title=" ">
<polygon fill="#e0e0e0" stroke="#999999" points="349.5,-134.5 221.5,-134.5 221.5,-115.5 349.5,-115.5 349.5,-134.5"/>
<text text-anchor="middle" x="285.5" y="-122.5" font-family="Helvetica,sans-Serif" font-size="10.00">ipc/collision_mesh.hpp</text>
</a>
</g>
</g>
<!-- Node2&#45;&gt;Node11 -->
<g id="edge12" class="edge">
<title>Node2&#45;&gt;Node11</title>
<path fill="none" stroke="#63b8ff" d="M285.5,-181.37C285.5,-172.16 285.5,-157.29 285.5,-145.27"/>
<polygon fill="#63b8ff" stroke="#63b8ff" points="289,-144.91 285.5,-134.91 282,-144.91 289,-144.91"/>
</g>
<!-- Node12 -->
<g id="node12" class="node">
<title>Node12</title>
<g id="a_node12"><a xlink:title=" ">
<polygon fill="#e0e0e0" stroke="#999999" points="127,-140 0,-140 0,-110 127,-110 127,-140"/>
<text text-anchor="start" x="8" y="-128" font-family="Helvetica,sans-Serif" font-size="10.00">ipc/broad_phase/broad</text>
<text text-anchor="middle" x="63.5" y="-117" font-family="Helvetica,sans-Serif" font-size="10.00">_phase.hpp</text>
</a>
</g>
</g>
<!-- Node2&#45;&gt;Node12 -->
<g id="edge13" class="edge">
<title>Node2&#45;&gt;Node12</title>
<path fill="none" stroke="#63b8ff" d="M255.56,-181.37C221.52,-171.56 165.12,-155.3 122.23,-142.93"/>
<polygon fill="#63b8ff" stroke="#63b8ff" points="123.04,-139.52 112.46,-140.12 121.1,-146.25 123.04,-139.52"/>
</g>
<!-- Node3&#45;&gt;Node4 -->
<g id="edge3" class="edge">
<title>Node3&#45;&gt;Node4</title>
<path fill="none" stroke="#63b8ff" d="M508.7,-115.4C514.44,-113.41 520.64,-111.45 526.5,-110 599.56,-91.87 684.75,-79.98 744.75,-73.09"/>
<polygon fill="#63b8ff" stroke="#63b8ff" points="745.36,-76.55 754.9,-71.95 744.57,-69.59 745.36,-76.55"/>
</g>
<!-- Node7 -->
<g id="node7" class="node">
<title>Node7</title>
<g id="a_node7"><a xlink:title=" ">
<polygon fill="#e0e0e0" stroke="#999999" points="520.5,-74 452.5,-74 452.5,-55 520.5,-55 520.5,-74"/>
<text text-anchor="middle" x="486.5" y="-62" font-family="Helvetica,sans-Serif" font-size="10.00">filesystem</text>
</a>
</g>
</g>
<!-- Node3&#45;&gt;Node7 -->
<g id="edge6" class="edge">
<title>Node3&#45;&gt;Node7</title>
<path fill="none" stroke="#63b8ff" d="M486.5,-115.37C486.5,-107.25 486.5,-94.81 486.5,-84.39"/>
<polygon fill="#63b8ff" stroke="#63b8ff" points="490,-84.17 486.5,-74.17 483,-84.17 490,-84.17"/>
</g>
<!-- Node5 -->
<g id="node5" class="node">
<title>Node5</title>
<g id="a_node5"><a xlink:title=" ">
<polygon fill="#e0e0e0" stroke="#999999" points="994,-19 917,-19 917,0 994,0 994,-19"/>
<text text-anchor="middle" x="955.5" y="-7" font-family="Helvetica,sans-Serif" font-size="10.00">Eigen/Dense</text>
</a>
</g>
</g>
<!-- Node4&#45;&gt;Node5 -->
<g id="edge4" class="edge">
<title>Node4&#45;&gt;Node5</title>
<path fill="none" stroke="#63b8ff" d="M843.03,-54.98C864.97,-46.3 899.24,-32.75 924.19,-22.88"/>
<polygon fill="#63b8ff" stroke="#63b8ff" points="925.57,-26.1 933.58,-19.17 922.99,-19.59 925.57,-26.1"/>
</g>
<!-- Node6 -->
<g id="node6" class="node">
<title>Node6</title>
<g id="a_node6"><a xlink:title=" ">
<polygon fill="#e0e0e0" stroke="#999999" points="1092.5,-19 1012.5,-19 1012.5,0 1092.5,0 1092.5,-19"/>
<text text-anchor="middle" x="1052.5" y="-7" font-family="Helvetica,sans-Serif" font-size="10.00">Eigen/Sparse</text>
</a>
</g>
</g>
<!-- Node4&#45;&gt;Node6 -->
<g id="edge5" class="edge">
<title>Node4&#45;&gt;Node6</title>
<path fill="none" stroke="#63b8ff" d="M858.61,-54.98C898.49,-45.84 961.96,-31.27 1005.34,-21.32"/>
<polygon fill="#63b8ff" stroke="#63b8ff" points="1006.13,-24.73 1015.09,-19.08 1004.57,-17.91 1006.13,-24.73"/>
</g>
<!-- Node8&#45;&gt;Node6 -->
<g id="edge8" class="edge">
<title>Node8&#45;&gt;Node6</title>
<path fill="none" stroke="#63b8ff" d="M1559.62,-56.73C1553.84,-56.13 1548.06,-55.55 1542.5,-55 1381.82,-39.17 1191.29,-22.46 1102.58,-14.79"/>
<polygon fill="#63b8ff" stroke="#63b8ff" points="1102.8,-11.3 1092.53,-13.93 1102.2,-18.27 1102.8,-11.3"/>
</g>
<!-- Node9 -->
<g id="node9" class="node">
<title>Node9</title>
<g id="a_node9"><a xlink:title=" ">
<polygon fill="#e0e0e0" stroke="#999999" points="1677.5,-19 1567.5,-19 1567.5,0 1677.5,0 1677.5,-19"/>
<text text-anchor="middle" x="1622.5" y="-7" font-family="Helvetica,sans-Serif" font-size="10.00">nlohmann/json.hpp</text>
</a>
</g>
</g>
<!-- Node8&#45;&gt;Node9 -->
<g id="edge9" class="edge">
<title>Node8&#45;&gt;Node9</title>
<path fill="none" stroke="#63b8ff" d="M1622.5,-54.75C1622.5,-47.8 1622.5,-37.85 1622.5,-29.13"/>
<polygon fill="#63b8ff" stroke="#63b8ff" points="1626,-29.09 1622.5,-19.09 1619,-29.09 1626,-29.09"/>
</g>
<!-- Node14 -->
<g id="node14" class="node">
<title>Node14</title>
<g id="a_node14"><a xlink:href="_full_n_l_problem_8hpp.html" target="_top" xlink:title=" ">
<polygon fill="white" stroke="#666666" points="2283,-200.5 2098,-200.5 2098,-181.5 2283,-181.5 2283,-200.5"/>
<text text-anchor="middle" x="2190.5" y="-188.5" font-family="Helvetica,sans-Serif" font-size="10.00">polyfem/solver/FullNLProblem.hpp</text>
</a>
</g>
</g>
<!-- Node13&#45;&gt;Node14 -->
<g id="edge15" class="edge">
<title>Node13&#45;&gt;Node14</title>
<path fill="none" stroke="#63b8ff" d="M1534.94,-379.33C1539.88,-350.67 1557.12,-259.75 1579.5,-242 1621.06,-209.04 2002.67,-210.74 2055.5,-206 2070.52,-204.65 2086.46,-203.11 2101.93,-201.54"/>
<polygon fill="#63b8ff" stroke="#63b8ff" points="2102.42,-205.01 2112.01,-200.51 2101.71,-198.05 2102.42,-205.01"/>
</g>
<!-- Node18 -->
<g id="node18" class="node">
<title>Node18</title>
<g id="a_node18"><a xlink:href="_rhs_assembler_8hpp.html" target="_top" xlink:title=" ">
<polygon fill="white" stroke="#666666" points="1495.5,-332.5 1291.5,-332.5 1291.5,-313.5 1495.5,-313.5 1495.5,-332.5"/>
<text text-anchor="middle" x="1393.5" y="-320.5" font-family="Helvetica,sans-Serif" font-size="10.00">polyfem/assembler/RhsAssembler.hpp</text>
</a>
</g>
</g>
<!-- Node13&#45;&gt;Node18 -->
<g id="edge20" class="edge">
<title>Node13&#45;&gt;Node18</title>
<path fill="none" stroke="#63b8ff" d="M1514.62,-379.37C1490.72,-368.44 1449.33,-349.52 1421.68,-336.88"/>
<polygon fill="#63b8ff" stroke="#63b8ff" points="1423.08,-333.67 1412.53,-332.7 1420.17,-340.04 1423.08,-333.67"/>
</g>
<!-- Node45 -->
<g id="node28" class="node">
<title>Node45</title>
<g id="a_node28"><a xlink:href="_local_boundary_8hpp.html" target="_top" xlink:title=" ">
<polygon fill="white" stroke="#666666" points="2046.5,-200.5 1864.5,-200.5 1864.5,-181.5 2046.5,-181.5 2046.5,-200.5"/>
<text text-anchor="middle" x="1955.5" y="-188.5" font-family="Helvetica,sans-Serif" font-size="10.00">polyfem/mesh/LocalBoundary.hpp</text>
</a>
</g>
</g>
<!-- Node13&#45;&gt;Node45 -->
<g id="edge51" class="edge">
<title>Node13&#45;&gt;Node45</title>
<path fill="none" stroke="#63b8ff" d="M1531.08,-379.26C1524.67,-354.01 1510.19,-280.31 1547.5,-242 1568.59,-220.35 1740.39,-205.46 1854.24,-197.86"/>
<polygon fill="#63b8ff" stroke="#63b8ff" points="1854.63,-201.34 1864.38,-197.2 1854.17,-194.36 1854.63,-201.34"/>
</g>
<!-- Node14&#45;&gt;Node3 -->
<g id="edge16" class="edge">
<title>Node14&#45;&gt;Node3</title>
<path fill="none" stroke="#63b8ff" d="M2118.78,-181.49C2098.36,-179.36 2076.08,-177.31 2055.5,-176 1716.31,-154.45 860.87,-200.88 526.5,-140 523.24,-139.41 519.89,-138.59 516.59,-137.65"/>
<polygon fill="#63b8ff" stroke="#63b8ff" points="517.52,-134.27 506.93,-134.53 515.37,-140.93 517.52,-134.27"/>
</g>
<!-- Node15 -->
<g id="node15" class="node">
<title>Node15</title>
<g id="a_node15"><a xlink:title=" ">
<polygon fill="#e0e0e0" stroke="#999999" points="2370.5,-134.5 2256.5,-134.5 2256.5,-115.5 2370.5,-115.5 2370.5,-134.5"/>
<text text-anchor="middle" x="2313.5" y="-122.5" font-family="Helvetica,sans-Serif" font-size="10.00">cppoptlib/problem.h</text>
</a>
</g>
</g>
<!-- Node14&#45;&gt;Node15 -->
<g id="edge17" class="edge">
<title>Node14&#45;&gt;Node15</title>
<path fill="none" stroke="#63b8ff" d="M2207.09,-181.37C2227.81,-170.59 2263.5,-152.02 2287.78,-139.38"/>
<polygon fill="#63b8ff" stroke="#63b8ff" points="2289.53,-142.42 2296.78,-134.7 2286.3,-136.21 2289.53,-142.42"/>
</g>
<!-- Node16 -->
<g id="node16" class="node">
<title>Node16</title>
<g id="a_node16"><a xlink:title=" ">
<polygon fill="#e0e0e0" stroke="#999999" points="2176.5,-74 2118.5,-74 2118.5,-55 2176.5,-55 2176.5,-74"/>
<text text-anchor="middle" x="2147.5" y="-62" font-family="Helvetica,sans-Serif" font-size="10.00">memory</text>
</a>
</g>
</g>
<!-- Node14&#45;&gt;Node16 -->
<g id="edge18" class="edge">
<title>Node14&#45;&gt;Node16</title>
<path fill="none" stroke="#63b8ff" d="M2195.4,-181.11C2203.13,-165.8 2216.12,-133.82 2204.5,-110 2198.2,-97.09 2186.15,-86.83 2174.74,-79.43"/>
<polygon fill="#63b8ff" stroke="#63b8ff" points="2176.23,-76.25 2165.85,-74.12 2172.64,-82.25 2176.23,-76.25"/>
</g>
<!-- Node17 -->
<g id="node17" class="node">
<title>Node17</title>
<g id="a_node17"><a xlink:title=" ">
<polygon fill="#e0e0e0" stroke="#999999" points="1938,-74 1891,-74 1891,-55 1938,-55 1938,-74"/>
<text text-anchor="middle" x="1914.5" y="-62" font-family="Helvetica,sans-Serif" font-size="10.00">vector</text>
</a>
</g>
</g>
<!-- Node14&#45;&gt;Node17 -->
<g id="edge19" class="edge">
<title>Node14&#45;&gt;Node17</title>
<path fill="none" stroke="#63b8ff" d="M2188.94,-181.39C2185.44,-164.75 2175.34,-128.17 2151.5,-110 2120.08,-86.04 2006.15,-73.22 1948.47,-68.14"/>
<polygon fill="#63b8ff" stroke="#63b8ff" points="1948.64,-64.64 1938.38,-67.28 1948.05,-71.62 1948.64,-64.64"/>
</g>
<!-- Node19 -->
<g id="node19" class="node">
<title>Node19</title>
<g id="a_node19"><a xlink:href="_assembler_utils_8hpp.html" target="_top" xlink:title=" ">
<polygon fill="white" stroke="#666666" points="1275.5,-206 1109.5,-206 1109.5,-176 1275.5,-176 1275.5,-206"/>
<text text-anchor="start" x="1117.5" y="-194" font-family="Helvetica,sans-Serif" font-size="10.00">polyfem/assembler/Assembler</text>
<text text-anchor="middle" x="1192.5" y="-183" font-family="Helvetica,sans-Serif" font-size="10.00">Utils.hpp</text>
</a>
</g>
</g>
<!-- Node18&#45;&gt;Node19 -->
<g id="edge21" class="edge">
<title>Node18&#45;&gt;Node19</title>
<path fill="none" stroke="#63b8ff" d="M1328.73,-313.42C1297.44,-306.54 1261.04,-294.17 1234.5,-272 1217.09,-257.45 1205.95,-233.81 1199.55,-215.99"/>
<polygon fill="#63b8ff" stroke="#63b8ff" points="1202.79,-214.67 1196.31,-206.29 1196.15,-216.88 1202.79,-214.67"/>
</g>
<!-- Node40 -->
<g id="node24" class="node">
<title>Node40</title>
<g id="a_node24"><a xlink:href="_obstacle_8hpp.html" target="_top" xlink:title=" ">
<polygon fill="#fff0f0" stroke="red" points="1653.5,-200.5 1499.5,-200.5 1499.5,-181.5 1653.5,-181.5 1653.5,-200.5"/>
<text text-anchor="middle" x="1576.5" y="-188.5" font-family="Helvetica,sans-Serif" font-size="10.00">polyfem/mesh/Obstacle.hpp</text>
</a>
</g>
</g>
<!-- Node18&#45;&gt;Node40 -->
<g id="edge32" class="edge">
<title>Node18&#45;&gt;Node40</title>
<path fill="none" stroke="#63b8ff" d="M1400.21,-313.32C1412.78,-297.48 1441.37,-263.56 1471.5,-242 1493.71,-226.1 1521.77,-213.04 1543.29,-204.26"/>
<polygon fill="#63b8ff" stroke="#63b8ff" points="1544.67,-207.48 1552.68,-200.54 1542.09,-200.97 1544.67,-207.48"/>
</g>
<!-- Node44 -->
<g id="node27" class="node">
<title>Node44</title>
<g id="a_node27"><a xlink:href="_problem_8hpp.html" target="_top" xlink:title=" ">
<polygon fill="#fff0f0" stroke="red" points="1419.5,-266.5 1243.5,-266.5 1243.5,-247.5 1419.5,-247.5 1419.5,-266.5"/>
<text text-anchor="middle" x="1331.5" y="-254.5" font-family="Helvetica,sans-Serif" font-size="10.00">polyfem/assembler/Problem.hpp</text>
</a>
</g>
</g>
<!-- Node18&#45;&gt;Node44 -->
<g id="edge42" class="edge">
<title>Node18&#45;&gt;Node44</title>
<path fill="none" stroke="#63b8ff" d="M1385.14,-313.37C1375.49,-303.4 1359.39,-286.79 1347.35,-274.36"/>
<polygon fill="#63b8ff" stroke="#63b8ff" points="1349.6,-271.65 1340.13,-266.91 1344.57,-276.52 1349.6,-271.65"/>
</g>
<!-- Node18&#45;&gt;Node45 -->
<g id="edge50" class="edge">
<title>Node18&#45;&gt;Node45</title>
<path fill="none" stroke="#63b8ff" d="M1407.12,-313.4C1422.46,-303.62 1448.05,-287.08 1469.5,-272 1487.68,-259.22 1488.84,-250.19 1509.5,-242 1570.08,-217.97 1741.92,-204 1853.75,-197.2"/>
<polygon fill="#63b8ff" stroke="#63b8ff" points="1854.27,-200.67 1864.04,-196.58 1853.85,-193.68 1854.27,-200.67"/>
</g>
<!-- Node20 -->
<g id="node20" class="node">
<title>Node20</title>
<g id="a_node20"><a xlink:href="_assembly_vals_cache_8hpp.html" target="_top" xlink:title=" ">
<polygon fill="#fff0f0" stroke="red" points="1264.5,-140 1102.5,-140 1102.5,-110 1264.5,-110 1264.5,-140"/>
<text text-anchor="start" x="1110.5" y="-128" font-family="Helvetica,sans-Serif" font-size="10.00">polyfem/assembler/Assembly</text>
<text text-anchor="middle" x="1183.5" y="-117" font-family="Helvetica,sans-Serif" font-size="10.00">ValsCache.hpp</text>
</a>
</g>
</g>
<!-- Node19&#45;&gt;Node20 -->
<g id="edge22" class="edge">
<title>Node19&#45;&gt;Node20</title>
<path fill="none" stroke="#63b8ff" d="M1190.5,-175.8C1189.44,-168.26 1188.11,-158.78 1186.89,-150.13"/>
<polygon fill="#63b8ff" stroke="#63b8ff" points="1190.35,-149.58 1185.49,-140.16 1183.42,-150.55 1190.35,-149.58"/>
</g>
<!-- Node26 -->
<g id="node21" class="node">
<title>Node26</title>
<g id="a_node21"><a xlink:href="_element_bases_8hpp.html" target="_top" xlink:title=" ">
<polygon fill="#fff0f0" stroke="red" points="1462,-134.5 1283,-134.5 1283,-115.5 1462,-115.5 1462,-134.5"/>
<text text-anchor="middle" x="1372.5" y="-122.5" font-family="Helvetica,sans-Serif" font-size="10.00">polyfem/basis/ElementBases.hpp</text>
</a>
</g>
</g>
<!-- Node19&#45;&gt;Node26 -->
<g id="edge23" class="edge">
<title>Node19&#45;&gt;Node26</title>
<path fill="none" stroke="#63b8ff" d="M1232,-175.95C1263.99,-164.58 1308.55,-148.74 1338.85,-137.96"/>
<polygon fill="#63b8ff" stroke="#63b8ff" points="1340.3,-141.17 1348.55,-134.52 1337.95,-134.57 1340.3,-141.17"/>
</g>
<!-- Node34 -->
<g id="node22" class="node">
<title>Node34</title>
<g id="a_node22"><a xlink:href="_autodiff_types_8hpp.html" target="_top" xlink:title=" ">
<polygon fill="#fff0f0" stroke="red" points="907,-134.5 736,-134.5 736,-115.5 907,-115.5 907,-134.5"/>
<text text-anchor="middle" x="821.5" y="-122.5" font-family="Helvetica,sans-Serif" font-size="10.00">polyfem/utils/AutodiffTypes.hpp</text>
</a>
</g>
</g>
<!-- Node19&#45;&gt;Node34 -->
<g id="edge25" class="edge">
<title>Node19&#45;&gt;Node34</title>
<path fill="none" stroke="#63b8ff" d="M1111.08,-175.95C1041.58,-163.96 943.25,-147 880.93,-136.25"/>
<polygon fill="#63b8ff" stroke="#63b8ff" points="881.32,-132.77 870.87,-134.52 880.13,-139.67 881.32,-132.77"/>
</g>
<!-- Node19&#45;&gt;Node39 -->
<g id="edge27" class="edge">
<title>Node19&#45;&gt;Node39</title>
<path fill="none" stroke="#63b8ff" d="M1151.24,-175.95C1117.69,-164.53 1070.89,-148.6 1039.23,-137.82"/>
<polygon fill="#63b8ff" stroke="#63b8ff" points="1040.11,-134.43 1029.52,-134.52 1037.86,-141.05 1040.11,-134.43"/>
</g>
<!-- Node26&#45;&gt;Node17 -->
<g id="edge24" class="edge">
<title>Node26&#45;&gt;Node17</title>
<path fill="none" stroke="#63b8ff" d="M1451.31,-115.49C1571.54,-102.52 1795.73,-78.32 1880.69,-69.15"/>
<polygon fill="#63b8ff" stroke="#63b8ff" points="1881.24,-72.61 1890.81,-68.06 1880.49,-65.65 1881.24,-72.61"/>
</g>
<!-- Node34&#45;&gt;Node4 -->
<g id="edge26" class="edge">
<title>Node34&#45;&gt;Node4</title>
<path fill="none" stroke="#63b8ff" d="M821.5,-115.37C821.5,-107.25 821.5,-94.81 821.5,-84.39"/>
<polygon fill="#63b8ff" stroke="#63b8ff" points="825,-84.17 821.5,-74.17 818,-84.17 825,-84.17"/>
</g>
<!-- Node39&#45;&gt;Node4 -->
<g id="edge29" class="edge">
<title>Node39&#45;&gt;Node4</title>
<path fill="none" stroke="#63b8ff" d="M977.89,-115.49C946.31,-105.4 893.49,-88.51 858.08,-77.19"/>
<polygon fill="#63b8ff" stroke="#63b8ff" points="858.73,-73.73 848.14,-74.02 856.6,-80.4 858.73,-73.73"/>
</g>
<!-- Node39&#45;&gt;Node5 -->
<g id="edge30" class="edge">
<title>Node39&#45;&gt;Node5</title>
<path fill="none" stroke="#63b8ff" d="M1000.82,-115.47C992.87,-97.06 973.97,-53.29 963.26,-28.48"/>
<polygon fill="#63b8ff" stroke="#63b8ff" points="966.4,-26.92 959.23,-19.13 959.98,-29.7 966.4,-26.92"/>
</g>
<!-- Node39&#45;&gt;Node6 -->
<g id="edge31" class="edge">
<title>Node39&#45;&gt;Node6</title>
<path fill="none" stroke="#63b8ff" d="M1008.11,-115.47C1015.89,-97.06 1034.4,-53.29 1044.9,-28.48"/>
<polygon fill="#63b8ff" stroke="#63b8ff" points="1048.18,-29.7 1048.85,-19.13 1041.73,-26.98 1048.18,-29.7"/>
</g>
<!-- Node39&#45;&gt;Node8 -->
<g id="edge28" class="edge">
<title>Node39&#45;&gt;Node8</title>
<path fill="none" stroke="#63b8ff" d="M1054.77,-115.44C1067.39,-113.47 1080.92,-111.52 1093.5,-110 1255.83,-90.43 1447.22,-76.61 1549.44,-69.97"/>
<polygon fill="#63b8ff" stroke="#63b8ff" points="1549.89,-73.45 1559.65,-69.32 1549.44,-66.47 1549.89,-73.45"/>
</g>
<!-- Node40&#45;&gt;Node4 -->
<g id="edge40" class="edge">
<title>Node40&#45;&gt;Node4</title>
<path fill="none" stroke="#63b8ff" d="M1565.8,-181.37C1541.1,-161.53 1481.41,-114.07 1470.5,-110 1367.7,-71.6 1046.98,-65.86 898.43,-65.32"/>
<polygon fill="#63b8ff" stroke="#63b8ff" points="898.05,-61.82 888.04,-65.29 898.03,-68.82 898.05,-61.82"/>
</g>
<!-- Node40&#45;&gt;Node5 -->
<g id="edge41" class="edge">
<title>Node40&#45;&gt;Node5</title>
<path fill="none" stroke="#63b8ff" d="M1571.55,-181.3C1561.49,-164.49 1536.91,-127.65 1505.5,-110 1502.74,-108.45 1138.56,-43.23 1004.4,-19.24"/>
<polygon fill="#63b8ff" stroke="#63b8ff" points="1004.85,-15.76 994.39,-17.45 1003.62,-22.65 1004.85,-15.76"/>
</g>
<!-- Node40&#45;&gt;Node8 -->
<g id="edge33" class="edge">
<title>Node40&#45;&gt;Node8</title>
<path fill="none" stroke="#63b8ff" d="M1635.56,-181.49C1660.56,-174.65 1687.36,-162.29 1702.5,-140 1709.99,-128.97 1709.26,-121.49 1702.5,-110 1693.76,-95.14 1678.06,-84.88 1662.87,-77.99"/>
<polygon fill="#63b8ff" stroke="#63b8ff" points="1664.12,-74.72 1653.55,-74.13 1661.44,-81.19 1664.12,-74.72"/>
</g>
<!-- Node41 -->
<g id="node25" class="node">
<title>Node41</title>
<g id="a_node25"><a xlink:href="_expression_value_8hpp.html" target="_top" xlink:title=" ">
<polygon fill="white" stroke="#666666" points="1694,-140 1557,-140 1557,-110 1694,-110 1694,-140"/>
<text text-anchor="start" x="1565" y="-128" font-family="Helvetica,sans-Serif" font-size="10.00">polyfem/utils/Expression</text>
<text text-anchor="middle" x="1625.5" y="-117" font-family="Helvetica,sans-Serif" font-size="10.00">Value.hpp</text>
</a>
</g>
</g>
<!-- Node40&#45;&gt;Node41 -->
<g id="edge34" class="edge">
<title>Node40&#45;&gt;Node41</title>
<path fill="none" stroke="#63b8ff" d="M1583.11,-181.37C1589.52,-172.99 1599.53,-159.93 1608.21,-148.59"/>
<polygon fill="#63b8ff" stroke="#63b8ff" points="1611.21,-150.43 1614.51,-140.36 1605.65,-146.17 1611.21,-150.43"/>
</g>
<!-- Node42 -->
<g id="node26" class="node">
<title>Node42</title>
<g id="a_node26"><a xlink:href="_interpolation_8hpp.html" target="_top" xlink:title=" ">
<polygon fill="white" stroke="#666666" points="1917,-134.5 1750,-134.5 1750,-115.5 1917,-115.5 1917,-134.5"/>
<text text-anchor="middle" x="1833.5" y="-122.5" font-family="Helvetica,sans-Serif" font-size="10.00">polyfem/utils/Interpolation.hpp</text>
</a>
</g>
</g>
<!-- Node40&#45;&gt;Node42 -->
<g id="edge36" class="edge">
<title>Node40&#45;&gt;Node42</title>
<path fill="none" stroke="#63b8ff" d="M1610.89,-181.44C1656.96,-169.96 1738.74,-149.6 1789.32,-137"/>
<polygon fill="#63b8ff" stroke="#63b8ff" points="1790.45,-140.33 1799.31,-134.51 1788.76,-133.53 1790.45,-140.33"/>
</g>
<!-- Node41&#45;&gt;Node8 -->
<g id="edge35" class="edge">
<title>Node41&#45;&gt;Node8</title>
<path fill="none" stroke="#63b8ff" d="M1624.77,-109.84C1624.38,-102.21 1623.9,-92.7 1623.47,-84.45"/>
<polygon fill="#63b8ff" stroke="#63b8ff" points="1626.96,-84.07 1622.95,-74.27 1619.97,-84.43 1626.96,-84.07"/>
</g>
<!-- Node42&#45;&gt;Node8 -->
<g id="edge37" class="edge">
<title>Node42&#45;&gt;Node8</title>
<path fill="none" stroke="#63b8ff" d="M1802.82,-115.49C1765.94,-105.27 1703.93,-88.08 1663.11,-76.76"/>
<polygon fill="#63b8ff" stroke="#63b8ff" points="1663.79,-73.32 1653.22,-74.02 1661.92,-80.06 1663.79,-73.32"/>
</g>
<!-- Node42&#45;&gt;Node16 -->
<g id="edge38" class="edge">
<title>Node42&#45;&gt;Node16</title>
<path fill="none" stroke="#63b8ff" d="M1879.16,-115.49C1940.93,-103.98 2050.1,-83.65 2108.33,-72.8"/>
<polygon fill="#63b8ff" stroke="#63b8ff" points="2109.06,-76.22 2118.25,-70.95 2107.78,-69.34 2109.06,-76.22"/>
</g>
<!-- Node42&#45;&gt;Node17 -->
<g id="edge39" class="edge">
<title>Node42&#45;&gt;Node17</title>
<path fill="none" stroke="#63b8ff" d="M1845.45,-115.37C1858.25,-106.12 1878.8,-91.28 1894.15,-80.19"/>
<polygon fill="#63b8ff" stroke="#63b8ff" points="1896.44,-82.86 1902.5,-74.17 1892.34,-77.18 1896.44,-82.86"/>
</g>
<!-- Node44&#45;&gt;Node19 -->
<g id="edge43" class="edge">
<title>Node44&#45;&gt;Node19</title>
<path fill="none" stroke="#63b8ff" d="M1312.75,-247.37C1292.29,-237.95 1258.93,-222.59 1232.53,-210.43"/>
<polygon fill="#63b8ff" stroke="#63b8ff" points="1233.7,-207.12 1223.16,-206.12 1230.78,-213.48 1233.7,-207.12"/>
</g>
<!-- Node44&#45;&gt;Node26 -->
<g id="edge44" class="edge">
<title>Node44&#45;&gt;Node26</title>
<path fill="none" stroke="#63b8ff" d="M1334.19,-247.47C1340.76,-226.63 1357.75,-172.77 1366.73,-144.28"/>
<polygon fill="#63b8ff" stroke="#63b8ff" points="1370.08,-145.32 1369.75,-134.73 1363.4,-143.22 1370.08,-145.32"/>
</g>
<!-- Node44&#45;&gt;Node45 -->
<g id="edge45" class="edge">
<title>Node44&#45;&gt;Node45</title>
<path fill="none" stroke="#63b8ff" d="M1414.68,-247.47C1530.87,-235.55 1741.09,-213.99 1862.38,-201.55"/>
<polygon fill="#63b8ff" stroke="#63b8ff" points="1862.8,-205.03 1872.39,-200.52 1862.09,-198.06 1862.8,-205.03"/>
</g>
<!-- Node45&#45;&gt;Node17 -->
<g id="edge47" class="edge">
<title>Node45&#45;&gt;Node17</title>
<path fill="none" stroke="#63b8ff" d="M2032.28,-181.46C2094.47,-171.41 2166.73,-150.66 2133.5,-110 2110.49,-81.85 2003.79,-71.07 1948.28,-67.31"/>
<polygon fill="#63b8ff" stroke="#63b8ff" points="1948.42,-63.81 1938.22,-66.67 1947.97,-70.8 1948.42,-63.81"/>
</g>
<!-- Node33 -->
<g id="node29" class="node">
<title>Node33</title>
<g id="a_node29"><a xlink:title=" ">
<polygon fill="#e0e0e0" stroke="#999999" points="1976.5,-134.5 1934.5,-134.5 1934.5,-115.5 1976.5,-115.5 1976.5,-134.5"/>
<text text-anchor="middle" x="1955.5" y="-122.5" font-family="Helvetica,sans-Serif" font-size="10.00">array</text>
</a>
</g>
</g>
<!-- Node45&#45;&gt;Node33 -->
<g id="edge46" class="edge">
<title>Node45&#45;&gt;Node33</title>
<path fill="none" stroke="#63b8ff" d="M1955.5,-181.37C1955.5,-172.16 1955.5,-157.29 1955.5,-145.27"/>
<polygon fill="#63b8ff" stroke="#63b8ff" points="1959,-144.91 1955.5,-134.91 1952,-144.91 1959,-144.91"/>
</g>
<!-- Node46 -->
<g id="node30" class="node">
<title>Node46</title>
<g id="a_node30"><a xlink:title=" ">
<polygon fill="#e0e0e0" stroke="#999999" points="2054.5,-134.5 1994.5,-134.5 1994.5,-115.5 2054.5,-115.5 2054.5,-134.5"/>
<text text-anchor="middle" x="2024.5" y="-122.5" font-family="Helvetica,sans-Serif" font-size="10.00">iostream</text>
</a>
</g>
</g>
<!-- Node45&#45;&gt;Node46 -->
<g id="edge48" class="edge">
<title>Node45&#45;&gt;Node46</title>
<path fill="none" stroke="#63b8ff" d="M1964.81,-181.37C1975.65,-171.31 1993.8,-154.48 2007.24,-142.01"/>
<polygon fill="#63b8ff" stroke="#63b8ff" points="2009.95,-144.27 2014.9,-134.91 2005.19,-139.14 2009.95,-144.27"/>
</g>
<!-- Node47 -->
<g id="node31" class="node">
<title>Node47</title>
<g id="a_node31"><a xlink:title=" ">
<polygon fill="#e0e0e0" stroke="#999999" points="2124.5,-134.5 2072.5,-134.5 2072.5,-115.5 2124.5,-115.5 2124.5,-134.5"/>
<text text-anchor="middle" x="2098.5" y="-122.5" font-family="Helvetica,sans-Serif" font-size="10.00">cassert</text>
</a>
</g>
</g>
<!-- Node45&#45;&gt;Node47 -->
<g id="edge49" class="edge">
<title>Node45&#45;&gt;Node47</title>
<path fill="none" stroke="#63b8ff" d="M1974.79,-181.37C1999.2,-170.44 2041.47,-151.52 2069.71,-138.88"/>
<polygon fill="#63b8ff" stroke="#63b8ff" points="2071.37,-141.98 2079.06,-134.7 2068.51,-135.59 2071.37,-141.98"/>
</g>
<!-- Node48&#45;&gt;Node3 -->
<g id="edge53" class="edge">
<title>Node48&#45;&gt;Node3</title>
<path fill="none" stroke="#63b8ff" d="M526.18,-175.8C518.39,-166.01 508,-152.98 499.81,-142.7"/>
<polygon fill="#63b8ff" stroke="#63b8ff" points="502.52,-140.48 493.55,-134.84 497.04,-144.85 502.52,-140.48"/>
</g>
<!-- Node48&#45;&gt;Node4 -->
<g id="edge54" class="edge">
<title>Node48&#45;&gt;Node4</title>
<path fill="none" stroke="#63b8ff" d="M573.99,-175.95C596.55,-166.75 625.83,-153.89 650.5,-140 670.8,-128.57 672.74,-120.59 693.5,-110 720.97,-95.98 753.88,-84.65 779.44,-76.93"/>
<polygon fill="#63b8ff" stroke="#63b8ff" points="780.61,-80.24 789.21,-74.05 778.62,-73.52 780.61,-80.24"/>
</g>
<!-- Node48&#45;&gt;Node10 -->
<g id="edge55" class="edge">
<title>Node48&#45;&gt;Node10</title>
<path fill="none" stroke="#63b8ff" d="M507.87,-175.95C484.51,-164.88 452.2,-149.56 429.53,-138.82"/>
<polygon fill="#63b8ff" stroke="#63b8ff" points="431,-135.64 420.47,-134.52 428,-141.96 431,-135.64"/>
</g>
<!-- Node48&#45;&gt;Node11 -->
<g id="edge56" class="edge">
<title>Node48&#45;&gt;Node11</title>
<path fill="none" stroke="#63b8ff" d="M482.2,-175.95C436.06,-164.24 371.21,-147.77 328.79,-136.99"/>
<polygon fill="#63b8ff" stroke="#63b8ff" points="329.59,-133.59 319.04,-134.52 327.87,-140.37 329.59,-133.59"/>
</g>
<!-- Node49 -->
<g id="node33" class="node">
<title>Node49</title>
<g id="a_node33"><a xlink:title=" ">
<polygon fill="#e0e0e0" stroke="#999999" points="641.5,-140 535.5,-140 535.5,-110 641.5,-110 641.5,-140"/>
<text text-anchor="start" x="543.5" y="-128" font-family="Helvetica,sans-Serif" font-size="10.00">ipc/friction/friction</text>
<text text-anchor="middle" x="588.5" y="-117" font-family="Helvetica,sans-Serif" font-size="10.00">_constraint.hpp</text>
</a>
</g>
</g>
<!-- Node48&#45;&gt;Node49 -->
<g id="edge57" class="edge">
<title>Node48&#45;&gt;Node49</title>
<path fill="none" stroke="#63b8ff" d="M548.82,-175.8C555.29,-167.68 563.55,-157.31 570.85,-148.15"/>
<polygon fill="#63b8ff" stroke="#63b8ff" points="573.72,-150.17 577.21,-140.16 568.24,-145.8 573.72,-150.17"/>
</g>
<!-- Node51 -->
<g id="node35" class="node">
<title>Node51</title>
<g id="a_node35"><a xlink:title=" ">
<polygon fill="#e0e0e0" stroke="#999999" points="1787,-338 1676,-338 1676,-308 1787,-308 1787,-338"/>
<text text-anchor="start" x="1684" y="-326" font-family="Helvetica,sans-Serif" font-size="10.00">spdlog/fmt/bundled</text>
<text text-anchor="middle" x="1731.5" y="-315" font-family="Helvetica,sans-Serif" font-size="10.00">/color.h</text>
</a>
</g>
</g>
<!-- Node50&#45;&gt;Node51 -->
<g id="edge60" class="edge">
<title>Node50&#45;&gt;Node51</title>
<path fill="none" stroke="#63b8ff" d="M1722.85,-379.37C1724.09,-371.4 1726,-359.2 1727.71,-348.27"/>
<polygon fill="#63b8ff" stroke="#63b8ff" points="1731.17,-348.78 1729.26,-338.36 1724.25,-347.7 1731.17,-348.78"/>
</g>
<!-- Node50&#45;&gt;Node52 -->
<g id="edge61" class="edge">
<title>Node50&#45;&gt;Node52</title>
<path fill="none" stroke="#63b8ff" d="M1742,-379.37C1768.06,-368.39 1813.28,-349.36 1843.29,-336.72"/>
<polygon fill="#63b8ff" stroke="#63b8ff" points="1844.98,-339.81 1852.84,-332.7 1842.27,-333.35 1844.98,-339.81"/>
</g>
<!-- Node58 -->
<g id="node42" class="node">
<title>Node58</title>
<g id="a_node42"><a xlink:title=" ">
<polygon fill="#e0e0e0" stroke="#999999" points="1657.5,-332.5 1589.5,-332.5 1589.5,-313.5 1657.5,-313.5 1657.5,-332.5"/>
<text text-anchor="middle" x="1623.5" y="-320.5" font-family="Helvetica,sans-Serif" font-size="10.00">igl/Timer.h</text>
</a>
</g>
</g>
<!-- Node50&#45;&gt;Node58 -->
<g id="edge67" class="edge">
<title>Node50&#45;&gt;Node58</title>
<path fill="none" stroke="#63b8ff" d="M1708.28,-379.37C1692.14,-368.82 1664.59,-350.84 1645.29,-338.23"/>
<polygon fill="#63b8ff" stroke="#63b8ff" points="1647.11,-335.24 1636.82,-332.7 1643.28,-341.1 1647.11,-335.24"/>
</g>
<!-- Node53 -->
<g id="node37" class="node">
<title>Node53</title>
<g id="a_node37"><a xlink:href="_disable_warnings_8hpp.html" target="_top" xlink:title=" ">
<polygon fill="white" stroke="#666666" points="1776,-266.5 1589,-266.5 1589,-247.5 1776,-247.5 1776,-266.5"/>
<text text-anchor="middle" x="1682.5" y="-254.5" font-family="Helvetica,sans-Serif" font-size="10.00">polyfem/utils/DisableWarnings.hpp</text>
</a>
</g>
</g>
<!-- Node52&#45;&gt;Node53 -->
<g id="edge62" class="edge">
<title>Node52&#45;&gt;Node53</title>
<path fill="none" stroke="#63b8ff" d="M1847.74,-313.37C1814.18,-302.12 1755.37,-282.42 1717.71,-269.8"/>
<polygon fill="#63b8ff" stroke="#63b8ff" points="1718.75,-266.46 1708.16,-266.6 1716.53,-273.09 1718.75,-266.46"/>
</g>
<!-- Node54 -->
<g id="node38" class="node">
<title>Node54</title>
<g id="a_node38"><a xlink:title=" ">
<polygon fill="#e0e0e0" stroke="#999999" points="1905,-272 1794,-272 1794,-242 1905,-242 1905,-272"/>
<text text-anchor="start" x="1802" y="-260" font-family="Helvetica,sans-Serif" font-size="10.00">spdlog/fmt/bundled</text>
<text text-anchor="middle" x="1849.5" y="-249" font-family="Helvetica,sans-Serif" font-size="10.00">/ranges.h</text>
</a>
</g>
</g>
<!-- Node52&#45;&gt;Node54 -->
<g id="edge63" class="edge">
<title>Node52&#45;&gt;Node54</title>
<path fill="none" stroke="#63b8ff" d="M1870.26,-313.37C1867.25,-305.32 1862.6,-292.94 1858.47,-281.93"/>
<polygon fill="#63b8ff" stroke="#63b8ff" points="1861.67,-280.49 1854.89,-272.36 1855.12,-282.95 1861.67,-280.49"/>
</g>
<!-- Node55 -->
<g id="node39" class="node">
<title>Node55</title>
<g id="a_node39"><a xlink:title=" ">
<polygon fill="#e0e0e0" stroke="#999999" points="2022,-266.5 1923,-266.5 1923,-247.5 2022,-247.5 2022,-266.5"/>
<text text-anchor="middle" x="1972.5" y="-254.5" font-family="Helvetica,sans-Serif" font-size="10.00">spdlog/fmt/ostr.h</text>
</a>
</g>
</g>
<!-- Node52&#45;&gt;Node55 -->
<g id="edge64" class="edge">
<title>Node52&#45;&gt;Node55</title>
<path fill="none" stroke="#63b8ff" d="M1886.85,-313.37C1903.16,-302.82 1930.99,-284.84 1950.49,-272.23"/>
<polygon fill="#63b8ff" stroke="#63b8ff" points="1952.55,-275.07 1959.04,-266.7 1948.75,-269.19 1952.55,-275.07"/>
</g>
<!-- Node56 -->
<g id="node40" class="node">
<title>Node56</title>
<g id="a_node40"><a xlink:title=" ">
<polygon fill="#e0e0e0" stroke="#999999" points="2133,-266.5 2040,-266.5 2040,-247.5 2133,-247.5 2133,-266.5"/>
<text text-anchor="middle" x="2086.5" y="-254.5" font-family="Helvetica,sans-Serif" font-size="10.00">spdlog/spdlog.h</text>
</a>
</g>
</g>
<!-- Node52&#45;&gt;Node56 -->
<g id="edge65" class="edge">
<title>Node52&#45;&gt;Node56</title>
<path fill="none" stroke="#63b8ff" d="M1902.23,-313.37C1939.97,-302.03 2006.36,-282.08 2048.3,-269.48"/>
<polygon fill="#63b8ff" stroke="#63b8ff" points="2049.32,-272.83 2057.89,-266.6 2047.31,-266.12 2049.32,-272.83"/>
</g>
<!-- Node57 -->
<g id="node41" class="node">
<title>Node57</title>
<g id="a_node41"><a xlink:href="_enable_warnings_8hpp.html" target="_top" xlink:title=" ">
<polygon fill="white" stroke="#666666" points="2334,-266.5 2151,-266.5 2151,-247.5 2334,-247.5 2334,-266.5"/>
<text text-anchor="middle" x="2242.5" y="-254.5" font-family="Helvetica,sans-Serif" font-size="10.00">polyfem/utils/EnableWarnings.hpp</text>
</a>
</g>
</g>
<!-- Node52&#45;&gt;Node57 -->
<g id="edge66" class="edge">
<title>Node52&#45;&gt;Node57</title>
<path fill="none" stroke="#63b8ff" d="M1919.9,-313.48C1929.99,-311.65 1940.6,-309.75 1950.5,-308 2030.46,-293.89 2122.84,-278.17 2181.92,-268.19"/>
<polygon fill="#63b8ff" stroke="#63b8ff" points="2182.55,-271.63 2191.83,-266.51 2181.39,-264.73 2182.55,-271.63"/>
</g>
<!-- Node60 -->
<g id="node44" class="node">
<title>Node60</title>
<g id="a_node44"><a xlink:href="_maybe_parallel_for_8tpp.html" target="_top" xlink:title=" ">
<polygon fill="white" stroke="#666666" points="2079,-332.5 1960,-332.5 1960,-313.5 2079,-313.5 2079,-332.5"/>
<text text-anchor="middle" x="2019.5" y="-320.5" font-family="Helvetica,sans-Serif" font-size="10.00">MaybeParallelFor.tpp</text>
</a>
</g>
</g>
<!-- Node59&#45;&gt;Node60 -->
<g id="edge71" class="edge">
<title>Node59&#45;&gt;Node60</title>
<path fill="none" stroke="#63b8ff" d="M1943.25,-373.8C1959.37,-363.27 1981.26,-348.97 1997.45,-338.4"/>
<polygon fill="#63b8ff" stroke="#63b8ff" points="1999.78,-341.06 2006.24,-332.66 1995.96,-335.2 1999.78,-341.06"/>
</g>
<!-- Node62 -->
<g id="node46" class="node">
<title>Node62</title>
<g id="a_node46"><a xlink:title=" ">
<polygon fill="#e0e0e0" stroke="#999999" points="2228.5,-332.5 2184.5,-332.5 2184.5,-313.5 2228.5,-313.5 2228.5,-332.5"/>
<text text-anchor="middle" x="2206.5" y="-320.5" font-family="Helvetica,sans-Serif" font-size="10.00">string</text>
</a>
</g>
</g>
<!-- Node61&#45;&gt;Node62 -->
<g id="edge73" class="edge">
<title>Node61&#45;&gt;Node62</title>
<path fill="none" stroke="#63b8ff" d="M2102.68,-379.37C2122.81,-368.63 2157.41,-350.18 2181.09,-337.55"/>
<polygon fill="#63b8ff" stroke="#63b8ff" points="2183.01,-340.49 2190.19,-332.7 2179.72,-334.32 2183.01,-340.49"/>
</g>
<!-- Node36 -->
<g id="node47" class="node">
<title>Node36</title>
<g id="a_node47"><a xlink:title=" ">
<polygon fill="#e0e0e0" stroke="#999999" points="2166,-332.5 2097,-332.5 2097,-313.5 2166,-313.5 2166,-332.5"/>
<text text-anchor="middle" x="2131.5" y="-320.5" font-family="Helvetica,sans-Serif" font-size="10.00">Eigen/Core</text>
</a>
</g>
</g>
<!-- Node61&#45;&gt;Node36 -->
<g id="edge74" class="edge">
<title>Node61&#45;&gt;Node36</title>
<path fill="none" stroke="#63b8ff" d="M2092.57,-379.37C2099.37,-369.69 2110.59,-353.74 2119.24,-341.44"/>
<polygon fill="#63b8ff" stroke="#63b8ff" points="2122.35,-343.1 2125.24,-332.91 2116.62,-339.07 2122.35,-343.1"/>
</g>
</g>
</svg>
