<?xml version="1.0" encoding="UTF-8" standalone="no"?>
<!DOCTYPE svg PUBLIC "-//W3C//DTD SVG 1.1//EN"
 "http://www.w3.org/Graphics/SVG/1.1/DTD/svg11.dtd">
<!-- Generated by graphviz version 2.43.0 (0)
 -->
<!-- Title: src/polyfem/utils/ElasticityUtils.hpp Pages: 1 -->
<svg width="1474pt" height="467pt"
 viewBox="0.00 0.00 1474.00 467.00" xmlns="http://www.w3.org/2000/svg" xmlns:xlink="http://www.w3.org/1999/xlink">
<g id="graph0" class="graph" transform="scale(1 1) rotate(0) translate(4 463)">
<title>src/polyfem/utils/ElasticityUtils.hpp</title>
<!-- Node1 -->
<g id="node1" class="node">
<title>Node1</title>
<g id="a_node1"><a xlink:title=" ">
<polygon fill="#999999" stroke="#666666" points="864,-459 718,-459 718,-429 864,-429 864,-459"/>
<text text-anchor="start" x="726" y="-447" font-family="Helvetica,sans-Serif" font-size="10.00">src/polyfem/utils/Elasticity</text>
<text text-anchor="middle" x="791" y="-436" font-family="Helvetica,sans-Serif" font-size="10.00">Utils.hpp</text>
</a>
</g>
</g>
<!-- Node2 -->
<g id="node2" class="node">
<title>Node2</title>
<g id="a_node2"><a xlink:href="_common_8hpp.html" target="_top" xlink:title=" ">
<polygon fill="white" stroke="#666666" points="1378.5,-79.5 1253.5,-79.5 1253.5,-60.5 1378.5,-60.5 1378.5,-79.5"/>
<text text-anchor="middle" x="1316" y="-67.5" font-family="Helvetica,sans-Serif" font-size="10.00">polyfem/Common.hpp</text>
</a>
</g>
</g>
<!-- Node1&#45;&gt;Node2 -->
<g id="edge1" class="edge">
<title>Node1&#45;&gt;Node2</title>
<path fill="none" stroke="#63b8ff" d="M864.18,-441.73C988.76,-438.63 1236.23,-428.12 1315,-393 1359.67,-373.08 1396,-367.41 1396,-318.5 1396,-318.5 1396,-318.5 1396,-201 1396,-153.83 1357.32,-109.4 1333.75,-86.71"/>
<polygon fill="#63b8ff" stroke="#63b8ff" points="1335.84,-83.87 1326.13,-79.62 1331.07,-89 1335.84,-83.87"/>
</g>
<!-- Node5 -->
<g id="node5" class="node">
<title>Node5</title>
<g id="a_node5"><a xlink:href="_assembler_data_8hpp.html" target="_top" xlink:title=" ">
<polygon fill="white" stroke="#666666" points="399,-393 233,-393 233,-363 399,-363 399,-393"/>
<text text-anchor="start" x="241" y="-381" font-family="Helvetica,sans-Serif" font-size="10.00">polyfem/assembler/Assembler</text>
<text text-anchor="middle" x="316" y="-370" font-family="Helvetica,sans-Serif" font-size="10.00">Data.hpp</text>
</a>
</g>
</g>
<!-- Node1&#45;&gt;Node5 -->
<g id="edge4" class="edge">
<title>Node1&#45;&gt;Node5</title>
<path fill="none" stroke="#63b8ff" d="M717.82,-433.14C634.92,-421.97 499.63,-403.74 409.23,-391.56"/>
<polygon fill="#63b8ff" stroke="#63b8ff" points="409.64,-388.08 399.26,-390.22 408.7,-395.02 409.64,-388.08"/>
</g>
<!-- Node9 -->
<g id="node9" class="node">
<title>Node9</title>
<g id="a_node9"><a xlink:title=" ">
<polygon fill="#e0e0e0" stroke="#999999" points="325.5,-19 248.5,-19 248.5,0 325.5,0 325.5,-19"/>
<text text-anchor="middle" x="287" y="-7" font-family="Helvetica,sans-Serif" font-size="10.00">Eigen/Dense</text>
</a>
</g>
</g>
<!-- Node1&#45;&gt;Node9 -->
<g id="edge50" class="edge">
<title>Node1&#45;&gt;Node9</title>
<path fill="none" stroke="#63b8ff" d="M717.65,-439.11C521.56,-427.75 0,-390.75 0,-318.5 0,-318.5 0,-318.5 0,-135 0,-32.39 156.3,-13.42 238.21,-10.53"/>
<polygon fill="#63b8ff" stroke="#63b8ff" points="238.4,-14.03 248.29,-10.24 238.2,-7.03 238.4,-14.03"/>
</g>
<!-- Node11 -->
<g id="node11" class="node">
<title>Node11</title>
<g id="a_node11"><a xlink:href="_types_8hpp.html" target="_top" xlink:title=" ">
<polygon fill="white" stroke="#666666" points="1150.5,-79.5 1017.5,-79.5 1017.5,-60.5 1150.5,-60.5 1150.5,-79.5"/>
<text text-anchor="middle" x="1084" y="-67.5" font-family="Helvetica,sans-Serif" font-size="10.00">polyfem/utils/Types.hpp</text>
</a>
</g>
</g>
<!-- Node1&#45;&gt;Node11 -->
<g id="edge44" class="edge">
<title>Node1&#45;&gt;Node11</title>
<path fill="none" stroke="#63b8ff" d="M864.07,-437.89C939.42,-428.18 1046,-400.03 1046,-318.5 1046,-318.5 1046,-318.5 1046,-201 1046,-159.44 1064.11,-113.3 1075.33,-88.71"/>
<polygon fill="#63b8ff" stroke="#63b8ff" points="1078.54,-90.11 1079.64,-79.57 1072.21,-87.12 1078.54,-90.11"/>
</g>
<!-- Node12 -->
<g id="node12" class="node">
<title>Node12</title>
<g id="a_node12"><a xlink:title=" ">
<polygon fill="#e0e0e0" stroke="#999999" points="380.5,-79.5 315.5,-79.5 315.5,-60.5 380.5,-60.5 380.5,-79.5"/>
<text text-anchor="middle" x="348" y="-67.5" font-family="Helvetica,sans-Serif" font-size="10.00">functional</text>
</a>
</g>
</g>
<!-- Node1&#45;&gt;Node12 -->
<g id="edge53" class="edge">
<title>Node1&#45;&gt;Node12</title>
<path fill="none" stroke="#63b8ff" d="M717.93,-437.89C642.58,-428.18 536,-400.03 536,-318.5 536,-318.5 536,-318.5 536,-261.5 536,-172.26 430.2,-109.71 377.34,-84.02"/>
<polygon fill="#63b8ff" stroke="#63b8ff" points="378.66,-80.77 368.12,-79.65 375.66,-87.1 378.66,-80.77"/>
</g>
<!-- Node13 -->
<g id="node13" class="node">
<title>Node13</title>
<g id="a_node13"><a xlink:title=" ">
<polygon fill="#e0e0e0" stroke="#999999" points="445.5,-79.5 398.5,-79.5 398.5,-60.5 445.5,-60.5 445.5,-79.5"/>
<text text-anchor="middle" x="422" y="-67.5" font-family="Helvetica,sans-Serif" font-size="10.00">vector</text>
</a>
</g>
</g>
<!-- Node1&#45;&gt;Node13 -->
<g id="edge51" class="edge">
<title>Node1&#45;&gt;Node13</title>
<path fill="none" stroke="#63b8ff" d="M717.92,-437.77C648.48,-431.36 550.53,-418.1 522,-393 495.88,-370.02 498,-353.29 498,-318.5 498,-318.5 498,-318.5 498,-201 498,-154.46 461.25,-109.79 438.86,-86.89"/>
<polygon fill="#63b8ff" stroke="#63b8ff" points="441.2,-84.27 431.63,-79.73 436.27,-89.25 441.2,-84.27"/>
</g>
<!-- Node15 -->
<g id="node15" class="node">
<title>Node15</title>
<g id="a_node15"><a xlink:href="_element_bases_8hpp.html" target="_top" xlink:title=" ">
<polygon fill="white" stroke="#666666" points="393.5,-272 214.5,-272 214.5,-253 393.5,-253 393.5,-272"/>
<text text-anchor="middle" x="304" y="-260" font-family="Helvetica,sans-Serif" font-size="10.00">polyfem/basis/ElementBases.hpp</text>
</a>
</g>
</g>
<!-- Node1&#45;&gt;Node15 -->
<g id="edge37" class="edge">
<title>Node1&#45;&gt;Node15</title>
<path fill="none" stroke="#63b8ff" d="M717.96,-436.27C640.47,-428.22 523.83,-413.26 484,-393 436.1,-368.64 442.02,-338.82 398,-308 379.11,-294.77 355.67,-283.67 336.92,-275.86"/>
<polygon fill="#63b8ff" stroke="#63b8ff" points="338.17,-272.59 327.59,-272.08 335.55,-279.08 338.17,-272.59"/>
</g>
<!-- Node23 -->
<g id="node23" class="node">
<title>Node23</title>
<g id="a_node23"><a xlink:href="_autodiff_types_8hpp.html" target="_top" xlink:title=" ">
<polygon fill="white" stroke="#666666" points="1245.5,-387.5 1074.5,-387.5 1074.5,-368.5 1245.5,-368.5 1245.5,-387.5"/>
<text text-anchor="middle" x="1160" y="-375.5" font-family="Helvetica,sans-Serif" font-size="10.00">polyfem/utils/AutodiffTypes.hpp</text>
</a>
</g>
</g>
<!-- Node1&#45;&gt;Node23 -->
<g id="edge38" class="edge">
<title>Node1&#45;&gt;Node23</title>
<path fill="none" stroke="#63b8ff" d="M864.34,-430.28C933.77,-418.24 1036.68,-400.39 1100.97,-389.24"/>
<polygon fill="#63b8ff" stroke="#63b8ff" points="1101.69,-392.67 1110.94,-387.51 1100.49,-385.77 1101.69,-392.67"/>
</g>
<!-- Node28 -->
<g id="node28" class="node">
<title>Node28</title>
<g id="a_node28"><a xlink:href="_matrix_utils_8hpp.html" target="_top" xlink:title=" ">
<polygon fill="white" stroke="#666666" points="1288.5,-145.5 1129.5,-145.5 1129.5,-126.5 1288.5,-126.5 1288.5,-145.5"/>
<text text-anchor="middle" x="1209" y="-133.5" font-family="Helvetica,sans-Serif" font-size="10.00">polyfem/utils/MatrixUtils.hpp</text>
</a>
</g>
</g>
<!-- Node1&#45;&gt;Node28 -->
<g id="edge45" class="edge">
<title>Node1&#45;&gt;Node28</title>
<path fill="none" stroke="#63b8ff" d="M864.25,-442.11C1017.53,-438.26 1358,-418.46 1358,-318.5 1358,-318.5 1358,-318.5 1358,-261.5 1358,-202.9 1289.28,-166.47 1245.18,-149.13"/>
<polygon fill="#63b8ff" stroke="#63b8ff" points="1246.23,-145.78 1235.64,-145.52 1243.75,-152.33 1246.23,-145.78"/>
</g>
<!-- Node29 -->
<g id="node29" class="node">
<title>Node29</title>
<g id="a_node29"><a xlink:title=" ">
<polygon fill="#e0e0e0" stroke="#999999" points="1466,-387.5 1424,-387.5 1424,-368.5 1466,-368.5 1466,-387.5"/>
<text text-anchor="middle" x="1445" y="-375.5" font-family="Helvetica,sans-Serif" font-size="10.00">array</text>
</a>
</g>
</g>
<!-- Node1&#45;&gt;Node29 -->
<g id="edge52" class="edge">
<title>Node1&#45;&gt;Node29</title>
<path fill="none" stroke="#63b8ff" d="M864.15,-439.84C1004.81,-433.31 1308.12,-416.91 1410,-393 1412.31,-392.46 1414.67,-391.79 1417.02,-391.04"/>
<polygon fill="#63b8ff" stroke="#63b8ff" points="1418.24,-394.32 1426.44,-387.62 1415.85,-387.74 1418.24,-394.32"/>
</g>
<!-- Node3 -->
<g id="node3" class="node">
<title>Node3</title>
<g id="a_node3"><a xlink:title=" ">
<polygon fill="#e0e0e0" stroke="#999999" points="1246,-19 1166,-19 1166,0 1246,0 1246,-19"/>
<text text-anchor="middle" x="1206" y="-7" font-family="Helvetica,sans-Serif" font-size="10.00">Eigen/Sparse</text>
</a>
</g>
</g>
<!-- Node2&#45;&gt;Node3 -->
<g id="edge2" class="edge">
<title>Node2&#45;&gt;Node3</title>
<path fill="none" stroke="#63b8ff" d="M1299.77,-60.37C1281.73,-50.78 1252.38,-35.17 1231.32,-23.97"/>
<polygon fill="#63b8ff" stroke="#63b8ff" points="1232.77,-20.77 1222.3,-19.17 1229.48,-26.95 1232.77,-20.77"/>
</g>
<!-- Node4 -->
<g id="node4" class="node">
<title>Node4</title>
<g id="a_node4"><a xlink:title=" ">
<polygon fill="#e0e0e0" stroke="#999999" points="1374,-19 1264,-19 1264,0 1374,0 1374,-19"/>
<text text-anchor="middle" x="1319" y="-7" font-family="Helvetica,sans-Serif" font-size="10.00">nlohmann/json.hpp</text>
</a>
</g>
</g>
<!-- Node2&#45;&gt;Node4 -->
<g id="edge3" class="edge">
<title>Node2&#45;&gt;Node4</title>
<path fill="none" stroke="#63b8ff" d="M1316.44,-60.37C1316.86,-52.25 1317.5,-39.81 1318.03,-29.39"/>
<polygon fill="#63b8ff" stroke="#63b8ff" points="1321.54,-29.33 1318.56,-19.17 1314.55,-28.97 1321.54,-29.33"/>
</g>
<!-- Node6 -->
<g id="node6" class="node">
<title>Node6</title>
<g id="a_node6"><a xlink:href="_element_assembly_values_8hpp.html" target="_top" xlink:title=" ">
<polygon fill="white" stroke="#666666" points="389,-327 231,-327 231,-308 389,-308 389,-327"/>
<text text-anchor="middle" x="310" y="-315" font-family="Helvetica,sans-Serif" font-size="10.00">ElementAssemblyValues.hpp</text>
</a>
</g>
</g>
<!-- Node5&#45;&gt;Node6 -->
<g id="edge5" class="edge">
<title>Node5&#45;&gt;Node6</title>
<path fill="none" stroke="#63b8ff" d="M314.55,-362.84C313.77,-355.21 312.79,-345.7 311.94,-337.45"/>
<polygon fill="#63b8ff" stroke="#63b8ff" points="315.4,-336.86 310.9,-327.27 308.44,-337.57 315.4,-336.86"/>
</g>
<!-- Node7 -->
<g id="node7" class="node">
<title>Node7</title>
<g id="a_node7"><a xlink:href="_assembly_values_8hpp.html" target="_top" xlink:title=" ">
<polygon fill="white" stroke="#666666" points="190,-217 28,-217 28,-187 190,-187 190,-217"/>
<text text-anchor="start" x="36" y="-205" font-family="Helvetica,sans-Serif" font-size="10.00">polyfem/assembler/Assembly</text>
<text text-anchor="middle" x="109" y="-194" font-family="Helvetica,sans-Serif" font-size="10.00">Values.hpp</text>
</a>
</g>
</g>
<!-- Node6&#45;&gt;Node7 -->
<g id="edge6" class="edge">
<title>Node6&#45;&gt;Node7</title>
<path fill="none" stroke="#63b8ff" d="M285.51,-307.89C263.75,-299.84 231.41,-286.84 205,-272 179.71,-257.79 153.08,-238.23 134.3,-223.57"/>
<polygon fill="#63b8ff" stroke="#63b8ff" points="136.27,-220.67 126.26,-217.21 131.93,-226.16 136.27,-220.67"/>
</g>
<!-- Node6&#45;&gt;Node13 -->
<g id="edge36" class="edge">
<title>Node6&#45;&gt;Node13</title>
<path fill="none" stroke="#63b8ff" d="M347.17,-307.91C366.71,-301.39 389.2,-290.33 402,-272 441.31,-215.72 432.2,-127.99 425.73,-89.81"/>
<polygon fill="#63b8ff" stroke="#63b8ff" points="429.11,-88.84 423.86,-79.64 422.23,-90.11 429.11,-88.84"/>
</g>
<!-- Node6&#45;&gt;Node15 -->
<g id="edge19" class="edge">
<title>Node6&#45;&gt;Node15</title>
<path fill="none" stroke="#63b8ff" d="M309.01,-307.75C308.22,-300.8 307.1,-290.85 306.11,-282.13"/>
<polygon fill="#63b8ff" stroke="#63b8ff" points="309.58,-281.63 304.97,-272.09 302.62,-282.42 309.58,-281.63"/>
</g>
<!-- Node8 -->
<g id="node8" class="node">
<title>Node8</title>
<g id="a_node8"><a xlink:href="_quadrature_8hpp.html" target="_top" xlink:title=" ">
<polygon fill="white" stroke="#666666" points="253.5,-85 140.5,-85 140.5,-55 253.5,-55 253.5,-85"/>
<text text-anchor="start" x="148.5" y="-73" font-family="Helvetica,sans-Serif" font-size="10.00">polyfem/quadrature</text>
<text text-anchor="middle" x="197" y="-62" font-family="Helvetica,sans-Serif" font-size="10.00">/Quadrature.hpp</text>
</a>
</g>
</g>
<!-- Node7&#45;&gt;Node8 -->
<g id="edge7" class="edge">
<title>Node7&#45;&gt;Node8</title>
<path fill="none" stroke="#63b8ff" d="M101.03,-186.87C92.65,-169.94 82.32,-141.34 95,-121 103.77,-106.93 117.78,-96.71 132.64,-89.33"/>
<polygon fill="#63b8ff" stroke="#63b8ff" points="134.31,-92.42 141.96,-85.09 131.41,-86.04 134.31,-92.42"/>
</g>
<!-- Node7&#45;&gt;Node9 -->
<g id="edge17" class="edge">
<title>Node7&#45;&gt;Node9</title>
<path fill="none" stroke="#63b8ff" d="M99.85,-186.79C90.7,-170.76 78.93,-143.92 86,-121 96.46,-87.07 102.21,-75.78 131,-55 162.43,-32.32 205.14,-21.16 237.93,-15.7"/>
<polygon fill="#63b8ff" stroke="#63b8ff" points="238.85,-19.1 248.2,-14.11 237.78,-12.18 238.85,-19.1"/>
</g>
<!-- Node10 -->
<g id="node10" class="node">
<title>Node10</title>
<g id="a_node10"><a xlink:href="_basis_8hpp.html" target="_top" xlink:title=" ">
<polygon fill="white" stroke="#666666" points="356,-145.5 220,-145.5 220,-126.5 356,-126.5 356,-145.5"/>
<text text-anchor="middle" x="288" y="-133.5" font-family="Helvetica,sans-Serif" font-size="10.00">polyfem/basis/Basis.hpp</text>
</a>
</g>
</g>
<!-- Node7&#45;&gt;Node10 -->
<g id="edge9" class="edge">
<title>Node7&#45;&gt;Node10</title>
<path fill="none" stroke="#63b8ff" d="M148.28,-186.95C180.09,-175.58 224.41,-159.74 254.54,-148.96"/>
<polygon fill="#63b8ff" stroke="#63b8ff" points="255.94,-152.18 264.18,-145.52 253.58,-145.59 255.94,-152.18"/>
</g>
<!-- Node14 -->
<g id="node14" class="node">
<title>Node14</title>
<g id="a_node14"><a xlink:title=" ">
<polygon fill="#e0e0e0" stroke="#999999" points="164,-145.5 104,-145.5 104,-126.5 164,-126.5 164,-145.5"/>
<text text-anchor="middle" x="134" y="-133.5" font-family="Helvetica,sans-Serif" font-size="10.00">iostream</text>
</a>
</g>
</g>
<!-- Node7&#45;&gt;Node14 -->
<g id="edge18" class="edge">
<title>Node7&#45;&gt;Node14</title>
<path fill="none" stroke="#63b8ff" d="M114.55,-186.8C118.18,-177.5 122.96,-165.27 126.87,-155.26"/>
<polygon fill="#63b8ff" stroke="#63b8ff" points="130.17,-156.43 130.55,-145.84 123.65,-153.89 130.17,-156.43"/>
</g>
<!-- Node8&#45;&gt;Node9 -->
<g id="edge8" class="edge">
<title>Node8&#45;&gt;Node9</title>
<path fill="none" stroke="#63b8ff" d="M218.79,-54.84C232.87,-45.68 251.13,-33.82 265.21,-24.66"/>
<polygon fill="#63b8ff" stroke="#63b8ff" points="267.3,-27.48 273.78,-19.09 263.49,-21.61 267.3,-27.48"/>
</g>
<!-- Node10&#45;&gt;Node8 -->
<g id="edge10" class="edge">
<title>Node10&#45;&gt;Node8</title>
<path fill="none" stroke="#63b8ff" d="M275.73,-126.37C262.92,-117.36 242.39,-102.92 225.51,-91.05"/>
<polygon fill="#63b8ff" stroke="#63b8ff" points="227.26,-88.01 217.07,-85.12 223.24,-93.73 227.26,-88.01"/>
</g>
<!-- Node10&#45;&gt;Node9 -->
<g id="edge14" class="edge">
<title>Node10&#45;&gt;Node9</title>
<path fill="none" stroke="#63b8ff" d="M287.93,-126.44C287.77,-106.54 287.37,-56.76 287.15,-29.35"/>
<polygon fill="#63b8ff" stroke="#63b8ff" points="290.65,-29.09 287.07,-19.12 283.65,-29.15 290.65,-29.09"/>
</g>
<!-- Node10&#45;&gt;Node11 -->
<g id="edge11" class="edge">
<title>Node10&#45;&gt;Node11</title>
<path fill="none" stroke="#63b8ff" d="M356.28,-130.7C523.49,-120.11 944.48,-93.03 1008,-85 1015.86,-84.01 1024.14,-82.73 1032.23,-81.34"/>
<polygon fill="#63b8ff" stroke="#63b8ff" points="1033.08,-84.75 1042.32,-79.55 1031.86,-77.85 1033.08,-84.75"/>
</g>
<!-- Node10&#45;&gt;Node12 -->
<g id="edge15" class="edge">
<title>Node10&#45;&gt;Node12</title>
<path fill="none" stroke="#63b8ff" d="M296.09,-126.37C305.43,-116.4 321.01,-99.79 332.66,-87.36"/>
<polygon fill="#63b8ff" stroke="#63b8ff" points="335.37,-89.59 339.65,-79.91 330.26,-84.81 335.37,-89.59"/>
</g>
<!-- Node10&#45;&gt;Node13 -->
<g id="edge16" class="edge">
<title>Node10&#45;&gt;Node13</title>
<path fill="none" stroke="#63b8ff" d="M306.07,-126.37C328.85,-115.49 368.22,-96.69 394.68,-84.05"/>
<polygon fill="#63b8ff" stroke="#63b8ff" points="396.27,-87.17 403.79,-79.7 393.25,-80.85 396.27,-87.17"/>
</g>
<!-- Node11&#45;&gt;Node3 -->
<g id="edge13" class="edge">
<title>Node11&#45;&gt;Node3</title>
<path fill="none" stroke="#63b8ff" d="M1101.74,-60.49C1122.07,-50.75 1155.61,-34.66 1179.14,-23.38"/>
<polygon fill="#63b8ff" stroke="#63b8ff" points="1180.74,-26.5 1188.24,-19.02 1177.71,-20.18 1180.74,-26.5"/>
</g>
<!-- Node11&#45;&gt;Node9 -->
<g id="edge12" class="edge">
<title>Node11&#45;&gt;Node9</title>
<path fill="none" stroke="#63b8ff" d="M1042.72,-60.46C1031.5,-58.4 1019.32,-56.39 1008,-55 756.36,-24.17 452.56,-14.28 335.88,-11.49"/>
<polygon fill="#63b8ff" stroke="#63b8ff" points="335.92,-7.99 325.84,-11.25 335.75,-14.98 335.92,-7.99"/>
</g>
<!-- Node15&#45;&gt;Node7 -->
<g id="edge34" class="edge">
<title>Node15&#45;&gt;Node7</title>
<path fill="none" stroke="#63b8ff" d="M275.65,-252.99C246.97,-244.39 201.85,-230.86 165.79,-220.04"/>
<polygon fill="#63b8ff" stroke="#63b8ff" points="166.46,-216.59 155.88,-217.06 164.45,-223.29 166.46,-216.59"/>
</g>
<!-- Node15&#45;&gt;Node8 -->
<g id="edge21" class="edge">
<title>Node15&#45;&gt;Node8</title>
<path fill="none" stroke="#63b8ff" d="M293.9,-252.95C274.37,-235.81 231.56,-195.08 211,-151 202.86,-133.56 199.42,-111.97 197.99,-95.62"/>
<polygon fill="#63b8ff" stroke="#63b8ff" points="201.45,-94.99 197.28,-85.25 194.47,-95.47 201.45,-94.99"/>
</g>
<!-- Node15&#45;&gt;Node10 -->
<g id="edge20" class="edge">
<title>Node15&#45;&gt;Node10</title>
<path fill="none" stroke="#63b8ff" d="M302.9,-252.94C300.34,-233.04 293.95,-183.26 290.42,-155.85"/>
<polygon fill="#63b8ff" stroke="#63b8ff" points="293.85,-155.09 289.11,-145.62 286.91,-155.98 293.85,-155.09"/>
</g>
<!-- Node15&#45;&gt;Node13 -->
<g id="edge35" class="edge">
<title>Node15&#45;&gt;Node13</title>
<path fill="none" stroke="#63b8ff" d="M309.38,-252.82C327.5,-223.56 386.58,-128.19 411.14,-88.54"/>
<polygon fill="#63b8ff" stroke="#63b8ff" points="414.3,-90.08 416.59,-79.73 408.35,-86.39 414.3,-90.08"/>
</g>
<!-- Node16 -->
<g id="node16" class="node">
<title>Node16</title>
<g id="a_node16"><a xlink:href="_mesh_8hpp.html" target="_top" xlink:title=" ">
<polygon fill="white" stroke="#666666" points="859.5,-211.5 722.5,-211.5 722.5,-192.5 859.5,-192.5 859.5,-211.5"/>
<text text-anchor="middle" x="791" y="-199.5" font-family="Helvetica,sans-Serif" font-size="10.00">polyfem/mesh/Mesh.hpp</text>
</a>
</g>
</g>
<!-- Node15&#45;&gt;Node16 -->
<g id="edge22" class="edge">
<title>Node15&#45;&gt;Node16</title>
<path fill="none" stroke="#63b8ff" d="M374.81,-252.99C464.66,-242.2 619.14,-223.64 712.5,-212.43"/>
<polygon fill="#63b8ff" stroke="#63b8ff" points="712.95,-215.9 722.46,-211.23 712.11,-208.95 712.95,-215.9"/>
</g>
<!-- Node16&#45;&gt;Node2 -->
<g id="edge23" class="edge">
<title>Node16&#45;&gt;Node2</title>
<path fill="none" stroke="#63b8ff" d="M859.74,-198.59C990.44,-193.38 1264.74,-179.19 1297,-151 1314.27,-135.91 1317.35,-108.25 1317.24,-89.75"/>
<polygon fill="#63b8ff" stroke="#63b8ff" points="1320.74,-89.46 1316.87,-79.6 1313.74,-89.72 1320.74,-89.46"/>
</g>
<!-- Node16&#45;&gt;Node9 -->
<g id="edge31" class="edge">
<title>Node16&#45;&gt;Node9</title>
<path fill="none" stroke="#63b8ff" d="M778.31,-192.42C764.62,-182.93 742.43,-166.87 725,-151 682.2,-112.03 688.4,-81.61 637,-55 585.56,-28.37 419.12,-16.8 335.66,-12.57"/>
<polygon fill="#63b8ff" stroke="#63b8ff" points="335.82,-9.08 325.66,-12.08 335.48,-16.07 335.82,-9.08"/>
</g>
<!-- Node16&#45;&gt;Node11 -->
<g id="edge27" class="edge">
<title>Node16&#45;&gt;Node11</title>
<path fill="none" stroke="#63b8ff" d="M853.43,-192.47C893.49,-185.27 945.72,-172.56 988,-151 1005.13,-142.26 1044.55,-107.28 1067.19,-86.58"/>
<polygon fill="#63b8ff" stroke="#63b8ff" points="1069.71,-89.02 1074.7,-79.67 1064.97,-83.87 1069.71,-89.02"/>
</g>
<!-- Node17 -->
<g id="node17" class="node">
<title>Node17</title>
<g id="a_node17"><a xlink:href="_navigation_8hpp.html" target="_top" xlink:title=" ">
<polygon fill="white" stroke="#666666" points="979.5,-151 848.5,-151 848.5,-121 979.5,-121 979.5,-151"/>
<text text-anchor="start" x="856.5" y="-139" font-family="Helvetica,sans-Serif" font-size="10.00">polyfem/mesh/mesh2D</text>
<text text-anchor="middle" x="914" y="-128" font-family="Helvetica,sans-Serif" font-size="10.00">/Navigation.hpp</text>
</a>
</g>
</g>
<!-- Node16&#45;&gt;Node17 -->
<g id="edge24" class="edge">
<title>Node16&#45;&gt;Node17</title>
<path fill="none" stroke="#63b8ff" d="M807.59,-192.37C825.53,-183.03 854.7,-167.86 877.96,-155.75"/>
<polygon fill="#63b8ff" stroke="#63b8ff" points="879.62,-158.84 886.87,-151.12 876.38,-152.63 879.62,-158.84"/>
</g>
<!-- Node18 -->
<g id="node18" class="node">
<title>Node18</title>
<g id="a_node18"><a xlink:title=" ">
<polygon fill="#e0e0e0" stroke="#999999" points="832.5,-79.5 703.5,-79.5 703.5,-60.5 832.5,-60.5 832.5,-79.5"/>
<text text-anchor="middle" x="768" y="-67.5" font-family="Helvetica,sans-Serif" font-size="10.00">geogram/mesh/mesh.h</text>
</a>
</g>
</g>
<!-- Node16&#45;&gt;Node18 -->
<g id="edge32" class="edge">
<title>Node16&#45;&gt;Node18</title>
<path fill="none" stroke="#63b8ff" d="M794.34,-192.4C799.63,-177.53 808.57,-146.2 801,-121 797.33,-108.77 789.59,-96.77 782.53,-87.6"/>
<polygon fill="#63b8ff" stroke="#63b8ff" points="785.16,-85.28 776.12,-79.75 779.73,-89.71 785.16,-85.28"/>
</g>
<!-- Node20 -->
<g id="node20" class="node">
<title>Node20</title>
<g id="a_node20"><a xlink:href="_hash_utils_8hpp.html" target="_top" xlink:title=" ">
<polygon fill="white" stroke="#666666" points="678,-145.5 526,-145.5 526,-126.5 678,-126.5 678,-145.5"/>
<text text-anchor="middle" x="602" y="-133.5" font-family="Helvetica,sans-Serif" font-size="10.00">polyfem/utils/HashUtils.hpp</text>
</a>
</g>
</g>
<!-- Node16&#45;&gt;Node20 -->
<g id="edge28" class="edge">
<title>Node16&#45;&gt;Node20</title>
<path fill="none" stroke="#63b8ff" d="M765.51,-192.37C732.45,-181.17 674.6,-161.58 637.32,-148.96"/>
<polygon fill="#63b8ff" stroke="#63b8ff" points="637.98,-145.49 627.39,-145.6 635.74,-152.12 637.98,-145.49"/>
</g>
<!-- Node22 -->
<g id="node22" class="node">
<title>Node22</title>
<g id="a_node22"><a xlink:title=" ">
<polygon fill="#e0e0e0" stroke="#999999" points="792,-145.5 734,-145.5 734,-126.5 792,-126.5 792,-145.5"/>
<text text-anchor="middle" x="763" y="-133.5" font-family="Helvetica,sans-Serif" font-size="10.00">memory</text>
</a>
</g>
</g>
<!-- Node16&#45;&gt;Node22 -->
<g id="edge33" class="edge">
<title>Node16&#45;&gt;Node22</title>
<path fill="none" stroke="#63b8ff" d="M787.22,-192.37C783.07,-182.88 776.28,-167.36 770.95,-155.16"/>
<polygon fill="#63b8ff" stroke="#63b8ff" points="774.11,-153.66 766.9,-145.91 767.7,-156.47 774.11,-153.66"/>
</g>
<!-- Node17&#45;&gt;Node18 -->
<g id="edge25" class="edge">
<title>Node17&#45;&gt;Node18</title>
<path fill="none" stroke="#63b8ff" d="M881.96,-120.95C856.58,-109.83 821.44,-94.42 796.91,-83.67"/>
<polygon fill="#63b8ff" stroke="#63b8ff" points="797.99,-80.33 787.43,-79.52 795.18,-86.74 797.99,-80.33"/>
</g>
<!-- Node19 -->
<g id="node19" class="node">
<title>Node19</title>
<g id="a_node19"><a xlink:title=" ">
<polygon fill="#e0e0e0" stroke="#999999" points="999,-79.5 851,-79.5 851,-60.5 999,-60.5 999,-79.5"/>
<text text-anchor="middle" x="925" y="-67.5" font-family="Helvetica,sans-Serif" font-size="10.00">geogram/basic/attributes.h</text>
</a>
</g>
</g>
<!-- Node17&#45;&gt;Node19 -->
<g id="edge26" class="edge">
<title>Node17&#45;&gt;Node19</title>
<path fill="none" stroke="#63b8ff" d="M916.44,-120.8C918,-111.7 920.05,-99.79 921.75,-89.9"/>
<polygon fill="#63b8ff" stroke="#63b8ff" points="925.24,-90.29 923.48,-79.84 918.34,-89.11 925.24,-90.29"/>
</g>
<!-- Node20&#45;&gt;Node13 -->
<g id="edge30" class="edge">
<title>Node20&#45;&gt;Node13</title>
<path fill="none" stroke="#63b8ff" d="M577.72,-126.37C546.06,-115.11 490.53,-95.37 455.05,-82.75"/>
<polygon fill="#63b8ff" stroke="#63b8ff" points="456.2,-79.45 445.61,-79.39 453.86,-86.04 456.2,-79.45"/>
</g>
<!-- Node21 -->
<g id="node21" class="node">
<title>Node21</title>
<g id="a_node21"><a xlink:title=" ">
<polygon fill="#e0e0e0" stroke="#999999" points="628.5,-79.5 575.5,-79.5 575.5,-60.5 628.5,-60.5 628.5,-79.5"/>
<text text-anchor="middle" x="602" y="-67.5" font-family="Helvetica,sans-Serif" font-size="10.00">cstddef</text>
</a>
</g>
</g>
<!-- Node20&#45;&gt;Node21 -->
<g id="edge29" class="edge">
<title>Node20&#45;&gt;Node21</title>
<path fill="none" stroke="#63b8ff" d="M602,-126.37C602,-117.16 602,-102.29 602,-90.27"/>
<polygon fill="#63b8ff" stroke="#63b8ff" points="605.5,-89.91 602,-79.91 598.5,-89.91 605.5,-89.91"/>
</g>
<!-- Node23&#45;&gt;Node11 -->
<g id="edge39" class="edge">
<title>Node23&#45;&gt;Node11</title>
<path fill="none" stroke="#63b8ff" d="M1148.79,-368.35C1127.65,-350.96 1084,-309.51 1084,-263.5 1084,-263.5 1084,-263.5 1084,-201 1084,-161.45 1084,-115.13 1084,-89.84"/>
<polygon fill="#63b8ff" stroke="#63b8ff" points="1087.5,-89.52 1084,-79.52 1080.5,-89.52 1087.5,-89.52"/>
</g>
<!-- Node24 -->
<g id="node24" class="node">
<title>Node24</title>
<g id="a_node24"><a xlink:href="autodiff_8h.html" target="_top" xlink:title=" ">
<polygon fill="white" stroke="#666666" points="1216.5,-327 1153.5,-327 1153.5,-308 1216.5,-308 1216.5,-327"/>
<text text-anchor="middle" x="1185" y="-315" font-family="Helvetica,sans-Serif" font-size="10.00">autodiff.h</text>
</a>
</g>
</g>
<!-- Node23&#45;&gt;Node24 -->
<g id="edge40" class="edge">
<title>Node23&#45;&gt;Node24</title>
<path fill="none" stroke="#63b8ff" d="M1163.69,-368.37C1167.27,-359.99 1172.82,-347.01 1177.35,-336.39"/>
<polygon fill="#63b8ff" stroke="#63b8ff" points="1180.58,-337.74 1181.3,-327.17 1174.15,-334.99 1180.58,-337.74"/>
</g>
<!-- Node25 -->
<g id="node25" class="node">
<title>Node25</title>
<g id="a_node25"><a xlink:title=" ">
<polygon fill="#e0e0e0" stroke="#999999" points="1329.5,-272 1260.5,-272 1260.5,-253 1329.5,-253 1329.5,-272"/>
<text text-anchor="middle" x="1295" y="-260" font-family="Helvetica,sans-Serif" font-size="10.00">Eigen/Core</text>
</a>
</g>
</g>
<!-- Node24&#45;&gt;Node25 -->
<g id="edge41" class="edge">
<title>Node24&#45;&gt;Node25</title>
<path fill="none" stroke="#63b8ff" d="M1202.67,-307.98C1220.29,-299.5 1247.58,-286.35 1267.93,-276.54"/>
<polygon fill="#63b8ff" stroke="#63b8ff" points="1269.52,-279.66 1277.01,-272.17 1266.48,-273.36 1269.52,-279.66"/>
</g>
<!-- Node26 -->
<g id="node26" class="node">
<title>Node26</title>
<g id="a_node26"><a xlink:title=" ">
<polygon fill="#e0e0e0" stroke="#999999" points="1159.5,-272 1112.5,-272 1112.5,-253 1159.5,-253 1159.5,-272"/>
<text text-anchor="middle" x="1136" y="-260" font-family="Helvetica,sans-Serif" font-size="10.00">cmath</text>
</a>
</g>
</g>
<!-- Node24&#45;&gt;Node26 -->
<g id="edge42" class="edge">
<title>Node24&#45;&gt;Node26</title>
<path fill="none" stroke="#63b8ff" d="M1176.91,-307.75C1169.84,-300.11 1159.41,-288.82 1150.85,-279.56"/>
<polygon fill="#63b8ff" stroke="#63b8ff" points="1153.3,-277.06 1143.94,-272.09 1148.16,-281.81 1153.3,-277.06"/>
</g>
<!-- Node27 -->
<g id="node27" class="node">
<title>Node27</title>
<g id="a_node27"><a xlink:title=" ">
<polygon fill="#e0e0e0" stroke="#999999" points="1242.5,-272 1177.5,-272 1177.5,-253 1242.5,-253 1242.5,-272"/>
<text text-anchor="middle" x="1210" y="-260" font-family="Helvetica,sans-Serif" font-size="10.00">stdexcept</text>
</a>
</g>
</g>
<!-- Node24&#45;&gt;Node27 -->
<g id="edge43" class="edge">
<title>Node24&#45;&gt;Node27</title>
<path fill="none" stroke="#63b8ff" d="M1189.13,-307.75C1192.51,-300.57 1197.42,-290.18 1201.62,-281.27"/>
<polygon fill="#63b8ff" stroke="#63b8ff" points="1204.85,-282.63 1205.95,-272.09 1198.52,-279.64 1204.85,-282.63"/>
</g>
<!-- Node28&#45;&gt;Node2 -->
<g id="edge46" class="edge">
<title>Node28&#45;&gt;Node2</title>
<path fill="none" stroke="#63b8ff" d="M1223.43,-126.37C1241.22,-115.73 1271.68,-97.51 1292.78,-84.89"/>
<polygon fill="#63b8ff" stroke="#63b8ff" points="1294.67,-87.84 1301.46,-79.7 1291.08,-81.83 1294.67,-87.84"/>
</g>
<!-- Node28&#45;&gt;Node3 -->
<g id="edge49" class="edge">
<title>Node28&#45;&gt;Node3</title>
<path fill="none" stroke="#63b8ff" d="M1208.79,-126.44C1208.31,-106.54 1207.11,-56.76 1206.45,-29.35"/>
<polygon fill="#63b8ff" stroke="#63b8ff" points="1209.95,-29.03 1206.21,-19.12 1202.95,-29.2 1209.95,-29.03"/>
</g>
<!-- Node28&#45;&gt;Node9 -->
<g id="edge48" class="edge">
<title>Node28&#45;&gt;Node9</title>
<path fill="none" stroke="#63b8ff" d="M1206.53,-126.3C1201.13,-109.13 1186.53,-71.19 1159,-55 1088.01,-13.25 509.2,-10.32 335.87,-10.38"/>
<polygon fill="#63b8ff" stroke="#63b8ff" points="335.76,-6.88 325.76,-10.39 335.76,-13.88 335.76,-6.88"/>
</g>
<!-- Node28&#45;&gt;Node11 -->
<g id="edge47" class="edge">
<title>Node28&#45;&gt;Node11</title>
<path fill="none" stroke="#63b8ff" d="M1192.14,-126.37C1171.08,-115.59 1134.82,-97.02 1110.14,-84.38"/>
<polygon fill="#63b8ff" stroke="#63b8ff" points="1111.49,-81.14 1100.99,-79.7 1108.3,-87.37 1111.49,-81.14"/>
</g>
</g>
</svg>
