<?xml version="1.0" encoding="UTF-8" standalone="no"?>
<!DOCTYPE svg PUBLIC "-//W3C//DTD SVG 1.1//EN"
 "http://www.w3.org/Graphics/SVG/1.1/DTD/svg11.dtd">
<!-- Generated by graphviz version 2.43.0 (0)
 -->
<!-- Title: src/polyfem/problem/ElasticProblem.hpp Pages: 1 -->
<svg width="4135pt" height="819pt"
 viewBox="0.00 0.00 4134.78 819.00" xmlns="http://www.w3.org/2000/svg" xmlns:xlink="http://www.w3.org/1999/xlink">
<g id="graph0" class="graph" transform="scale(1 1) rotate(0) translate(4 815)">
<title>src/polyfem/problem/ElasticProblem.hpp</title>
<!-- Node1 -->
<g id="node1" class="node">
<title>Node1</title>
<g id="a_node1"><a xlink:title=" ">
<polygon fill="#999999" stroke="#666666" points="291,-811 173,-811 173,-781 291,-781 291,-811"/>
<text text-anchor="start" x="181" y="-799" font-family="Helvetica,sans-Serif" font-size="10.00">src/polyfem/problem</text>
<text text-anchor="middle" x="232" y="-788" font-family="Helvetica,sans-Serif" font-size="10.00">/ElasticProblem.hpp</text>
</a>
</g>
</g>
<!-- Node2 -->
<g id="node2" class="node">
<title>Node2</title>
<g id="a_node2"><a xlink:href="_problem_8hpp.html" target="_top" xlink:title=" ">
<polygon fill="white" stroke="#666666" points="594,-690 418,-690 418,-671 594,-671 594,-690"/>
<text text-anchor="middle" x="506" y="-678" font-family="Helvetica,sans-Serif" font-size="10.00">polyfem/assembler/Problem.hpp</text>
</a>
</g>
</g>
<!-- Node1&#45;&gt;Node2 -->
<g id="edge1" class="edge">
<title>Node1&#45;&gt;Node2</title>
<path fill="none" stroke="#63b8ff" d="M265.87,-780.97C319.81,-758.63 424.38,-715.31 475.86,-693.98"/>
<polygon fill="#63b8ff" stroke="#63b8ff" points="477.23,-697.21 485.13,-690.14 474.55,-690.74 477.23,-697.21"/>
</g>
<!-- Node12 -->
<g id="node12" class="node">
<title>Node12</title>
<g id="a_node12"><a xlink:title=" ">
<polygon fill="#e0e0e0" stroke="#999999" points="2047.5,-19 1970.5,-19 1970.5,0 2047.5,0 2047.5,-19"/>
<text text-anchor="middle" x="2009" y="-7" font-family="Helvetica,sans-Serif" font-size="10.00">Eigen/Dense</text>
</a>
</g>
</g>
<!-- Node1&#45;&gt;Node12 -->
<g id="edge207" class="edge">
<title>Node1&#45;&gt;Node12</title>
<path fill="none" stroke="#63b8ff" d="M172.86,-791.2C104.12,-783.2 0,-758.4 0,-681.5 0,-681.5 0,-681.5 0,-135 0,-90.82 19.79,-75.36 59,-55 145.83,-9.9 1665.57,-9.96 1959.87,-10.4"/>
<polygon fill="#63b8ff" stroke="#63b8ff" points="1960.21,-13.9 1970.22,-10.42 1960.22,-6.9 1960.21,-13.9"/>
</g>
<!-- Node16 -->
<g id="node16" class="node">
<title>Node16</title>
<g id="a_node16"><a xlink:title=" ">
<polygon fill="#e0e0e0" stroke="#999999" points="907.5,-79.5 860.5,-79.5 860.5,-60.5 907.5,-60.5 907.5,-79.5"/>
<text text-anchor="middle" x="884" y="-67.5" font-family="Helvetica,sans-Serif" font-size="10.00">vector</text>
</a>
</g>
</g>
<!-- Node1&#45;&gt;Node16 -->
<g id="edge206" class="edge">
<title>Node1&#45;&gt;Node16</title>
<path fill="none" stroke="#63b8ff" d="M180.49,-780.95C135.05,-765.06 76,-734.25 76,-681.5 76,-681.5 76,-681.5 76,-201 76,-157.34 94.88,-142.28 133,-121 196.18,-85.74 712.16,-74.06 850.16,-71.56"/>
<polygon fill="#63b8ff" stroke="#63b8ff" points="850.23,-75.06 860.16,-71.38 850.1,-68.06 850.23,-75.06"/>
</g>
<!-- Node64 -->
<g id="node50" class="node">
<title>Node64</title>
<g id="a_node50"><a xlink:href="_problem_with_solution_8hpp.html" target="_top" xlink:title=" ">
<polygon fill="white" stroke="#666666" points="664,-745 524,-745 524,-726 664,-726 664,-745"/>
<text text-anchor="middle" x="594" y="-733" font-family="Helvetica,sans-Serif" font-size="10.00">ProblemWithSolution.hpp</text>
</a>
</g>
</g>
<!-- Node1&#45;&gt;Node64 -->
<g id="edge202" class="edge">
<title>Node1&#45;&gt;Node64</title>
<path fill="none" stroke="#63b8ff" d="M291.37,-785.41C357.48,-774.72 463.88,-757.53 531.3,-746.63"/>
<polygon fill="#63b8ff" stroke="#63b8ff" points="532.05,-750.06 541.37,-745.01 530.94,-743.15 532.05,-750.06"/>
</g>
<!-- Node3 -->
<g id="node3" class="node">
<title>Node3</title>
<g id="a_node3"><a xlink:href="_assembler_utils_8hpp.html" target="_top" xlink:title=" ">
<polygon fill="white" stroke="#666666" points="2608,-635 2496,-635 2496,-616 2608,-616 2608,-635"/>
<text text-anchor="middle" x="2552" y="-623" font-family="Helvetica,sans-Serif" font-size="10.00">AssemblerUtils.hpp</text>
</a>
</g>
</g>
<!-- Node2&#45;&gt;Node3 -->
<g id="edge2" class="edge">
<title>Node2&#45;&gt;Node3</title>
<path fill="none" stroke="#63b8ff" d="M594.24,-677.21C937.91,-668.31 2182.71,-636.07 2485.34,-628.23"/>
<polygon fill="#63b8ff" stroke="#63b8ff" points="2485.8,-631.72 2495.71,-627.96 2485.62,-624.72 2485.8,-631.72"/>
</g>
<!-- Node4 -->
<g id="node4" class="node">
<title>Node4</title>
<g id="a_node4"><a xlink:href="_common_8hpp.html" target="_top" xlink:title=" ">
<polygon fill="white" stroke="#666666" points="2768.5,-145.5 2643.5,-145.5 2643.5,-126.5 2768.5,-126.5 2768.5,-145.5"/>
<text text-anchor="middle" x="2706" y="-133.5" font-family="Helvetica,sans-Serif" font-size="10.00">polyfem/Common.hpp</text>
</a>
</g>
</g>
<!-- Node2&#45;&gt;Node4 -->
<g id="edge198" class="edge">
<title>Node2&#45;&gt;Node4</title>
<path fill="none" stroke="#63b8ff" d="M522.12,-670.88C549.22,-655.07 601,-618.7 601,-571.5 601,-571.5 601,-571.5 601,-514.5 601,-362.37 726.92,-346.91 874,-308 1300.83,-195.09 1419.77,-220.58 1860,-187 2145.82,-165.2 2486.58,-147.62 2633.12,-140.47"/>
<polygon fill="#63b8ff" stroke="#63b8ff" points="2633.51,-143.95 2643.33,-139.97 2633.17,-136.96 2633.51,-143.95"/>
</g>
<!-- Node2&#45;&gt;Node12 -->
<g id="edge200" class="edge">
<title>Node2&#45;&gt;Node12</title>
<path fill="none" stroke="#63b8ff" d="M417.54,-672.89C301.92,-661.76 114,-634.06 114,-571.5 114,-571.5 114,-571.5 114,-454 114,-362.84 38,-354.66 38,-263.5 38,-263.5 38,-263.5 38,-135 38,-71.27 96.27,-74.32 157,-55 245.27,-26.92 1674.93,-13.34 1959.84,-10.9"/>
<polygon fill="#63b8ff" stroke="#63b8ff" points="1960.29,-14.4 1970.26,-10.81 1960.23,-7.4 1960.29,-14.4"/>
</g>
<!-- Node2&#45;&gt;Node16 -->
<g id="edge199" class="edge">
<title>Node2&#45;&gt;Node16</title>
<path fill="none" stroke="#63b8ff" d="M497.44,-670.83C481.31,-653.52 448,-612.79 448,-571.5 448,-571.5 448,-571.5 448,-201 448,-143.39 497.09,-143.8 550,-121 652.82,-76.7 788.08,-70.67 850.18,-70.46"/>
<polygon fill="#63b8ff" stroke="#63b8ff" points="850.2,-73.96 860.2,-70.48 850.21,-66.96 850.2,-73.96"/>
</g>
<!-- Node18 -->
<g id="node18" class="node">
<title>Node18</title>
<g id="a_node18"><a xlink:href="_element_bases_8hpp.html" target="_top" xlink:title=" ">
<polygon fill="white" stroke="#666666" points="1341.5,-272 1162.5,-272 1162.5,-253 1341.5,-253 1341.5,-272"/>
<text text-anchor="middle" x="1252" y="-260" font-family="Helvetica,sans-Serif" font-size="10.00">polyfem/basis/ElementBases.hpp</text>
</a>
</g>
</g>
<!-- Node2&#45;&gt;Node18 -->
<g id="edge191" class="edge">
<title>Node2&#45;&gt;Node18</title>
<path fill="none" stroke="#63b8ff" d="M548.14,-670.92C570.56,-664.43 597.1,-653.38 615,-635 636.05,-613.39 639,-601.67 639,-571.5 639,-571.5 639,-571.5 639,-514.5 639,-335.8 816.25,-369.6 984,-308 1037.75,-288.26 1100.79,-277.24 1152.23,-271.1"/>
<polygon fill="#63b8ff" stroke="#63b8ff" points="1152.82,-274.55 1162.35,-269.94 1152.02,-267.6 1152.82,-274.55"/>
</g>
<!-- Node19 -->
<g id="node19" class="node">
<title>Node19</title>
<g id="a_node19"><a xlink:href="_mesh_8hpp.html" target="_top" xlink:title=" ">
<polygon fill="white" stroke="#666666" points="689.5,-211.5 552.5,-211.5 552.5,-192.5 689.5,-192.5 689.5,-211.5"/>
<text text-anchor="middle" x="621" y="-199.5" font-family="Helvetica,sans-Serif" font-size="10.00">polyfem/mesh/Mesh.hpp</text>
</a>
</g>
</g>
<!-- Node2&#45;&gt;Node19 -->
<g id="edge197" class="edge">
<title>Node2&#45;&gt;Node19</title>
<path fill="none" stroke="#63b8ff" d="M503.44,-670.91C498.25,-652.74 487,-609 487,-571.5 487,-571.5 487,-571.5 487,-322 487,-289.53 489.12,-276.99 511,-253 527.93,-234.44 553.1,-222.3 575.09,-214.64"/>
<polygon fill="#63b8ff" stroke="#63b8ff" points="576.19,-217.96 584.61,-211.52 574.01,-211.31 576.19,-217.96"/>
</g>
<!-- Node26 -->
<g id="node24" class="node">
<title>Node26</title>
<g id="a_node24"><a xlink:title=" ">
<polygon fill="#e0e0e0" stroke="#999999" points="856,-145.5 798,-145.5 798,-126.5 856,-126.5 856,-145.5"/>
<text text-anchor="middle" x="827" y="-133.5" font-family="Helvetica,sans-Serif" font-size="10.00">memory</text>
</a>
</g>
</g>
<!-- Node2&#45;&gt;Node26 -->
<g id="edge201" class="edge">
<title>Node2&#45;&gt;Node26</title>
<path fill="none" stroke="#63b8ff" d="M508.56,-670.91C513.75,-652.74 525,-609 525,-571.5 525,-571.5 525,-571.5 525,-322 525,-231.68 622.03,-264.27 699,-217 736.19,-194.16 779.17,-167.18 804.66,-151.11"/>
<polygon fill="#63b8ff" stroke="#63b8ff" points="806.63,-154.01 813.22,-145.71 802.89,-148.09 806.63,-154.01"/>
</g>
<!-- Node62 -->
<g id="node48" class="node">
<title>Node62</title>
<g id="a_node48"><a xlink:href="_local_boundary_8hpp.html" target="_top" xlink:title=" ">
<polygon fill="white" stroke="#666666" points="420,-211.5 238,-211.5 238,-192.5 420,-192.5 420,-211.5"/>
<text text-anchor="middle" x="329" y="-199.5" font-family="Helvetica,sans-Serif" font-size="10.00">polyfem/mesh/LocalBoundary.hpp</text>
</a>
</g>
</g>
<!-- Node2&#45;&gt;Node62 -->
<g id="edge192" class="edge">
<title>Node2&#45;&gt;Node62</title>
<path fill="none" stroke="#63b8ff" d="M476.61,-670.9C436.35,-657.09 369,-625.86 369,-571.5 369,-571.5 369,-571.5 369,-322 369,-284.39 350.82,-243.41 338.98,-220.69"/>
<polygon fill="#63b8ff" stroke="#63b8ff" points="341.9,-218.75 334.07,-211.62 335.75,-222.08 341.9,-218.75"/>
</g>
<!-- Node3&#45;&gt;Node4 -->
<g id="edge3" class="edge">
<title>Node3&#45;&gt;Node4</title>
<path fill="none" stroke="#63b8ff" d="M2608.08,-624.41C2750.88,-623.62 3139.71,-617.84 3461,-580 3592.59,-564.5 3626.45,-560.86 3754,-525 3820.35,-506.35 3859.85,-526.72 3899,-470 3959.92,-381.74 4075.69,-494.31 3521,-308 3354.99,-252.24 3317.18,-223.96 3146,-187 3018.41,-159.45 2866.53,-146.45 2778.7,-140.82"/>
<polygon fill="#63b8ff" stroke="#63b8ff" points="2778.77,-137.32 2768.57,-140.19 2778.33,-144.3 2778.77,-137.32"/>
</g>
<!-- Node7 -->
<g id="node7" class="node">
<title>Node7</title>
<g id="a_node7"><a xlink:href="_assembler_8hpp.html" target="_top" xlink:title=" ">
<polygon fill="white" stroke="#666666" points="1198.5,-525 1109.5,-525 1109.5,-506 1198.5,-506 1198.5,-525"/>
<text text-anchor="middle" x="1154" y="-513" font-family="Helvetica,sans-Serif" font-size="10.00">Assembler.hpp</text>
</a>
</g>
</g>
<!-- Node3&#45;&gt;Node7 -->
<g id="edge6" class="edge">
<title>Node3&#45;&gt;Node7</title>
<path fill="none" stroke="#63b8ff" d="M2495.8,-622.74C2360.07,-618.23 2003.63,-604.82 1707,-580 1524,-564.69 1307.98,-537.12 1208.79,-523.93"/>
<polygon fill="#63b8ff" stroke="#63b8ff" points="1209.08,-520.44 1198.71,-522.58 1208.16,-527.37 1209.08,-520.44"/>
</g>
<!-- Node3&#45;&gt;Node16 -->
<g id="edge189" class="edge">
<title>Node3&#45;&gt;Node16</title>
<path fill="none" stroke="#63b8ff" d="M2495.94,-624.65C2237.34,-624.82 1158.49,-619.72 837,-525 706.78,-486.63 563,-525.76 563,-390 563,-390 563,-390 563,-322 563,-261.35 527.34,-245.6 543,-187 551.74,-154.3 553.18,-140.28 581,-121 624.25,-91.03 780.91,-77.55 850.4,-72.95"/>
<polygon fill="#63b8ff" stroke="#63b8ff" points="850.63,-76.44 860.39,-72.31 850.19,-69.46 850.63,-76.44"/>
</g>
<!-- Node27 -->
<g id="node25" class="node">
<title>Node27</title>
<g id="a_node25"><a xlink:href="_matrix_utils_8hpp.html" target="_top" xlink:title=" ">
<polygon fill="white" stroke="#666666" points="3477.5,-398.5 3318.5,-398.5 3318.5,-379.5 3477.5,-379.5 3477.5,-398.5"/>
<text text-anchor="middle" x="3398" y="-386.5" font-family="Helvetica,sans-Serif" font-size="10.00">polyfem/utils/MatrixUtils.hpp</text>
</a>
</g>
</g>
<!-- Node3&#45;&gt;Node27 -->
<g id="edge188" class="edge">
<title>Node3&#45;&gt;Node27</title>
<path fill="none" stroke="#63b8ff" d="M2608.18,-624.83C2744.23,-624.91 3101.97,-620.86 3397,-580 3506.69,-564.81 3532.01,-549.49 3640,-525 3747.57,-500.6 3813.19,-556.2 3882,-470 3890.32,-459.58 3890.93,-449.9 3882,-440 3856.15,-411.34 3620.58,-398.12 3487.88,-392.9"/>
<polygon fill="#63b8ff" stroke="#63b8ff" points="3487.85,-389.4 3477.72,-392.51 3487.58,-396.39 3487.85,-389.4"/>
</g>
<!-- Node35 -->
<g id="node31" class="node">
<title>Node35</title>
<g id="a_node31"><a xlink:href="_mass_8hpp.html" target="_top" xlink:title=" ">
<polygon fill="white" stroke="#666666" points="3058.5,-525 2995.5,-525 2995.5,-506 3058.5,-506 3058.5,-525"/>
<text text-anchor="middle" x="3027" y="-513" font-family="Helvetica,sans-Serif" font-size="10.00">Mass.hpp</text>
</a>
</g>
</g>
<!-- Node3&#45;&gt;Node35 -->
<g id="edge65" class="edge">
<title>Node3&#45;&gt;Node35</title>
<path fill="none" stroke="#63b8ff" d="M2589.67,-615.94C2677.25,-596.02 2894.04,-546.73 2985.37,-525.97"/>
<polygon fill="#63b8ff" stroke="#63b8ff" points="2986.38,-529.32 2995.36,-523.69 2984.83,-522.5 2986.38,-529.32"/>
</g>
<!-- Node38 -->
<g id="node33" class="node">
<title>Node38</title>
<g id="a_node33"><a xlink:href="_laplacian_8hpp.html" target="_top" xlink:title=" ">
<polygon fill="white" stroke="#666666" points="3767,-464.5 3683,-464.5 3683,-445.5 3767,-445.5 3767,-464.5"/>
<text text-anchor="middle" x="3725" y="-452.5" font-family="Helvetica,sans-Serif" font-size="10.00">Laplacian.hpp</text>
</a>
</g>
</g>
<!-- Node3&#45;&gt;Node38 -->
<g id="edge75" class="edge">
<title>Node3&#45;&gt;Node38</title>
<path fill="none" stroke="#63b8ff" d="M2608.09,-623.98C2758.27,-622.15 3166.96,-614.09 3297,-580 3369.68,-560.95 3377.35,-528.62 3449,-506 3545.57,-475.51 3575.02,-491.44 3674,-470 3677.93,-469.15 3682,-468.18 3686.06,-467.16"/>
<polygon fill="#63b8ff" stroke="#63b8ff" points="3687.22,-470.47 3696.01,-464.55 3685.45,-463.7 3687.22,-470.47"/>
</g>
<!-- Node39 -->
<g id="node34" class="node">
<title>Node39</title>
<g id="a_node34"><a xlink:href="_bilaplacian_8hpp.html" target="_top" xlink:title=" ">
<polygon fill="white" stroke="#666666" points="1863,-464.5 1771,-464.5 1771,-445.5 1863,-445.5 1863,-464.5"/>
<text text-anchor="middle" x="1817" y="-452.5" font-family="Helvetica,sans-Serif" font-size="10.00">Bilaplacian.hpp</text>
</a>
</g>
</g>
<!-- Node3&#45;&gt;Node39 -->
<g id="edge80" class="edge">
<title>Node3&#45;&gt;Node39</title>
<path fill="none" stroke="#63b8ff" d="M2495.92,-619.45C2391.95,-609.06 2163.03,-581.39 1978,-525 1958.01,-518.91 1954.18,-514.3 1935,-506 1905.03,-493.03 1870.64,-478.5 1846.74,-468.46"/>
<polygon fill="#63b8ff" stroke="#63b8ff" points="1848.08,-465.22 1837.51,-464.58 1845.37,-471.67 1848.08,-465.22"/>
</g>
<!-- Node40 -->
<g id="node35" class="node">
<title>Node40</title>
<g id="a_node35"><a xlink:href="_helmholtz_8hpp.html" target="_top" xlink:title=" ">
<polygon fill="white" stroke="#666666" points="3873,-464.5 3785,-464.5 3785,-445.5 3873,-445.5 3873,-464.5"/>
<text text-anchor="middle" x="3829" y="-452.5" font-family="Helvetica,sans-Serif" font-size="10.00">Helmholtz.hpp</text>
</a>
</g>
</g>
<!-- Node3&#45;&gt;Node40 -->
<g id="edge87" class="edge">
<title>Node3&#45;&gt;Node40</title>
<path fill="none" stroke="#63b8ff" d="M2608.32,-624.89C2737.43,-625.01 3064.43,-620.85 3334,-580 3508.72,-553.53 3711.69,-493.03 3792.81,-467.6"/>
<polygon fill="#63b8ff" stroke="#63b8ff" points="3794.05,-470.88 3802.53,-464.53 3791.94,-464.2 3794.05,-470.88"/>
</g>
<!-- Node41 -->
<g id="node36" class="node">
<title>Node41</title>
<g id="a_node36"><a xlink:href="_linear_elasticity_8hpp.html" target="_top" xlink:title=" ">
<polygon fill="white" stroke="#666666" points="2778.5,-525 2667.5,-525 2667.5,-506 2778.5,-506 2778.5,-525"/>
<text text-anchor="middle" x="2723" y="-513" font-family="Helvetica,sans-Serif" font-size="10.00">LinearElasticity.hpp</text>
</a>
</g>
</g>
<!-- Node3&#45;&gt;Node41 -->
<g id="edge92" class="edge">
<title>Node3&#45;&gt;Node41</title>
<path fill="none" stroke="#63b8ff" d="M2554.95,-615.77C2560.01,-602.14 2571.58,-575.81 2590,-561 2610.35,-544.64 2636.98,-534.18 2661.07,-527.54"/>
<polygon fill="#63b8ff" stroke="#63b8ff" points="2662.05,-530.9 2670.86,-525.01 2660.3,-524.13 2662.05,-530.9"/>
</g>
<!-- Node42 -->
<g id="node37" class="node">
<title>Node42</title>
<g id="a_node37"><a xlink:href="_hooke_linear_elasticity_8hpp.html" target="_top" xlink:title=" ">
<polygon fill="white" stroke="#666666" points="1764,-525 1622,-525 1622,-506 1764,-506 1764,-525"/>
<text text-anchor="middle" x="1693" y="-513" font-family="Helvetica,sans-Serif" font-size="10.00">HookeLinearElasticity.hpp</text>
</a>
</g>
</g>
<!-- Node3&#45;&gt;Node42 -->
<g id="edge100" class="edge">
<title>Node3&#45;&gt;Node42</title>
<path fill="none" stroke="#63b8ff" d="M2495.82,-624.91C2382.52,-624.81 2118.94,-619.85 1902,-580 1837.7,-568.19 1765.22,-543.49 1724.74,-528.62"/>
<polygon fill="#63b8ff" stroke="#63b8ff" points="1725.76,-525.26 1715.16,-525.06 1723.32,-531.82 1725.76,-525.26"/>
</g>
<!-- Node43 -->
<g id="node38" class="node">
<title>Node43</title>
<g id="a_node38"><a xlink:href="_saint_venant_elasticity_8hpp.html" target="_top" xlink:title=" ">
<polygon fill="white" stroke="#666666" points="1585,-525 1445,-525 1445,-506 1585,-506 1585,-525"/>
<text text-anchor="middle" x="1515" y="-513" font-family="Helvetica,sans-Serif" font-size="10.00">SaintVenantElasticity.hpp</text>
</a>
</g>
</g>
<!-- Node3&#45;&gt;Node43 -->
<g id="edge108" class="edge">
<title>Node3&#45;&gt;Node43</title>
<path fill="none" stroke="#63b8ff" d="M2495.87,-623.81C2373.13,-621.7 2071.83,-613.28 1822,-580 1726.89,-567.33 1617.17,-541.99 1558.08,-527.45"/>
<polygon fill="#63b8ff" stroke="#63b8ff" points="1558.9,-524.04 1548.35,-525.04 1557.21,-530.84 1558.9,-524.04"/>
</g>
<!-- Node44 -->
<g id="node39" class="node">
<title>Node44</title>
<g id="a_node39"><a xlink:href="_neo_hookean_elasticity_8hpp.html" target="_top" xlink:title=" ">
<polygon fill="white" stroke="#666666" points="1925.5,-525 1782.5,-525 1782.5,-506 1925.5,-506 1925.5,-525"/>
<text text-anchor="middle" x="1854" y="-513" font-family="Helvetica,sans-Serif" font-size="10.00">NeoHookeanElasticity.hpp</text>
</a>
</g>
</g>
<!-- Node3&#45;&gt;Node44 -->
<g id="edge118" class="edge">
<title>Node3&#45;&gt;Node44</title>
<path fill="none" stroke="#63b8ff" d="M2495.75,-624.38C2364.41,-623.47 2041.04,-617.37 1940,-580 1912.43,-569.8 1886.05,-547.91 1869.95,-532.71"/>
<polygon fill="#63b8ff" stroke="#63b8ff" points="1872.12,-529.93 1862.51,-525.46 1867.23,-534.95 1872.12,-529.93"/>
</g>
<!-- Node45 -->
<g id="node40" class="node">
<title>Node45</title>
<g id="a_node40"><a xlink:href="_mooney_rivlin_elasticity_8hpp.html" target="_top" xlink:title=" ">
<polygon fill="#fff0f0" stroke="red" points="3393,-464.5 3245,-464.5 3245,-445.5 3393,-445.5 3393,-464.5"/>
<text text-anchor="middle" x="3319" y="-452.5" font-family="Helvetica,sans-Serif" font-size="10.00">MooneyRivlinElasticity.hpp</text>
</a>
</g>
</g>
<!-- Node3&#45;&gt;Node45 -->
<g id="edge128" class="edge">
<title>Node3&#45;&gt;Node45</title>
<path fill="none" stroke="#63b8ff" d="M2608.18,-617.86C2711.31,-604.97 2937.29,-573.51 3123,-525 3183.08,-509.31 3250.97,-483.53 3289.01,-468.31"/>
<polygon fill="#63b8ff" stroke="#63b8ff" points="3290.5,-471.49 3298.47,-464.51 3287.88,-465 3290.5,-471.49"/>
</g>
<!-- Node48 -->
<g id="node41" class="node">
<title>Node48</title>
<g id="a_node41"><a xlink:href="_ogden_elasticity_8hpp.html" target="_top" xlink:title=" ">
<polygon fill="#fff0f0" stroke="red" points="3358.5,-525 3245.5,-525 3245.5,-506 3358.5,-506 3358.5,-525"/>
<text text-anchor="middle" x="3302" y="-513" font-family="Helvetica,sans-Serif" font-size="10.00">OgdenElasticity.hpp</text>
</a>
</g>
</g>
<!-- Node3&#45;&gt;Node48 -->
<g id="edge137" class="edge">
<title>Node3&#45;&gt;Node48</title>
<path fill="none" stroke="#63b8ff" d="M2608.14,-622.92C2760.52,-618.33 3174.29,-603.81 3231,-580 3254.96,-569.94 3276.26,-548.3 3289.14,-533.09"/>
<polygon fill="#63b8ff" stroke="#63b8ff" points="3292.11,-534.98 3295.7,-525.01 3286.68,-530.57 3292.11,-534.98"/>
</g>
<!-- Node56 -->
<g id="node42" class="node">
<title>Node56</title>
<g id="a_node42"><a xlink:href="_multi_model_8hpp.html" target="_top" xlink:title=" ">
<polygon fill="#fff0f0" stroke="red" points="2389,-580 2297,-580 2297,-561 2389,-561 2389,-580"/>
<text text-anchor="middle" x="2343" y="-568" font-family="Helvetica,sans-Serif" font-size="10.00">MultiModel.hpp</text>
</a>
</g>
</g>
<!-- Node3&#45;&gt;Node56 -->
<g id="edge146" class="edge">
<title>Node3&#45;&gt;Node56</title>
<path fill="none" stroke="#63b8ff" d="M2518.42,-615.98C2482.65,-606.91 2425.88,-592.52 2386.66,-582.57"/>
<polygon fill="#63b8ff" stroke="#63b8ff" points="2387.4,-579.15 2376.84,-580.08 2385.68,-585.93 2387.4,-579.15"/>
</g>
<!-- Node57 -->
<g id="node43" class="node">
<title>Node57</title>
<g id="a_node43"><a xlink:href="_viscous_damping_8hpp.html" target="_top" xlink:title=" ">
<polygon fill="white" stroke="#666666" points="964.5,-525 845.5,-525 845.5,-506 964.5,-506 964.5,-525"/>
<text text-anchor="middle" x="905" y="-513" font-family="Helvetica,sans-Serif" font-size="10.00">ViscousDamping.hpp</text>
</a>
</g>
</g>
<!-- Node3&#45;&gt;Node57 -->
<g id="edge157" class="edge">
<title>Node3&#45;&gt;Node57</title>
<path fill="none" stroke="#63b8ff" d="M2496,-623.26C2340.79,-619.58 1892.02,-607.2 1520,-580 1321.78,-565.51 1088.57,-538.76 974.68,-525.07"/>
<polygon fill="#63b8ff" stroke="#63b8ff" points="975.04,-521.59 964.7,-523.86 974.2,-528.53 975.04,-521.59"/>
</g>
<!-- Node58 -->
<g id="node44" class="node">
<title>Node58</title>
<g id="a_node44"><a xlink:href="_stokes_8hpp.html" target="_top" xlink:title=" ">
<polygon fill="white" stroke="#666666" points="4113,-464.5 4043,-464.5 4043,-445.5 4113,-445.5 4113,-464.5"/>
<text text-anchor="middle" x="4078" y="-452.5" font-family="Helvetica,sans-Serif" font-size="10.00">Stokes.hpp</text>
</a>
</g>
</g>
<!-- Node3&#45;&gt;Node58 -->
<g id="edge167" class="edge">
<title>Node3&#45;&gt;Node58</title>
<path fill="none" stroke="#63b8ff" d="M2608.41,-623.86C2862.42,-620.84 3890.35,-606.98 3953,-580 4005.47,-557.41 4047.94,-501.72 4067.06,-473.3"/>
<polygon fill="#63b8ff" stroke="#63b8ff" points="4070.08,-475.08 4072.62,-464.79 4064.22,-471.24 4070.08,-475.08"/>
</g>
<!-- Node59 -->
<g id="node45" class="node">
<title>Node59</title>
<g id="a_node45"><a xlink:href="_navier_stokes_8hpp.html" target="_top" xlink:title=" ">
<polygon fill="white" stroke="#666666" points="3665,-464.5 3563,-464.5 3563,-445.5 3665,-445.5 3665,-464.5"/>
<text text-anchor="middle" x="3614" y="-452.5" font-family="Helvetica,sans-Serif" font-size="10.00">NavierStokes.hpp</text>
</a>
</g>
</g>
<!-- Node3&#45;&gt;Node59 -->
<g id="edge174" class="edge">
<title>Node3&#45;&gt;Node59</title>
<path fill="none" stroke="#63b8ff" d="M2608.09,-623.77C2752.89,-621.45 3136.44,-612.34 3259,-580 3331.65,-560.83 3340.35,-531.57 3411,-506 3439.08,-495.84 3514.92,-478.08 3565.53,-466.7"/>
<polygon fill="#63b8ff" stroke="#63b8ff" points="3566.3,-470.11 3575.29,-464.51 3564.77,-463.28 3566.3,-470.11"/>
</g>
<!-- Node60 -->
<g id="node46" class="node">
<title>Node60</title>
<g id="a_node46"><a xlink:href="_incompressible_lin_elast_8hpp.html" target="_top" xlink:title=" ">
<polygon fill="white" stroke="#666666" points="2608,-525 2458,-525 2458,-506 2608,-506 2608,-525"/>
<text text-anchor="middle" x="2533" y="-513" font-family="Helvetica,sans-Serif" font-size="10.00">IncompressibleLinElast.hpp</text>
</a>
</g>
</g>
<!-- Node3&#45;&gt;Node60 -->
<g id="edge180" class="edge">
<title>Node3&#45;&gt;Node60</title>
<path fill="none" stroke="#63b8ff" d="M2550.45,-615.66C2547.37,-598.17 2540.44,-558.8 2536.3,-535.27"/>
<polygon fill="#63b8ff" stroke="#63b8ff" points="2539.7,-534.4 2534.52,-525.16 2532.81,-535.61 2539.7,-534.4"/>
</g>
<!-- Node61 -->
<g id="node47" class="node">
<title>Node61</title>
<g id="a_node47"><a xlink:title=" ">
<polygon fill="#e0e0e0" stroke="#999999" points="2643,-580 2599,-580 2599,-561 2643,-561 2643,-580"/>
<text text-anchor="middle" x="2621" y="-568" font-family="Helvetica,sans-Serif" font-size="10.00">string</text>
</a>
</g>
</g>
<!-- Node3&#45;&gt;Node61 -->
<g id="edge190" class="edge">
<title>Node3&#45;&gt;Node61</title>
<path fill="none" stroke="#63b8ff" d="M2563.09,-615.98C2573.49,-608 2589.26,-595.88 2601.72,-586.31"/>
<polygon fill="#63b8ff" stroke="#63b8ff" points="2603.91,-589.04 2609.71,-580.17 2599.65,-583.49 2603.91,-589.04"/>
</g>
<!-- Node5 -->
<g id="node5" class="node">
<title>Node5</title>
<g id="a_node5"><a xlink:title=" ">
<polygon fill="#e0e0e0" stroke="#999999" points="2581,-19 2501,-19 2501,0 2581,0 2581,-19"/>
<text text-anchor="middle" x="2541" y="-7" font-family="Helvetica,sans-Serif" font-size="10.00">Eigen/Sparse</text>
</a>
</g>
</g>
<!-- Node4&#45;&gt;Node5 -->
<g id="edge4" class="edge">
<title>Node4&#45;&gt;Node5</title>
<path fill="none" stroke="#63b8ff" d="M2706.55,-126.25C2707.07,-109.99 2705.76,-74.98 2687,-55 2662.36,-28.77 2622.78,-17.85 2591.04,-13.37"/>
<polygon fill="#63b8ff" stroke="#63b8ff" points="2591.39,-9.89 2581.04,-12.13 2590.53,-16.83 2591.39,-9.89"/>
</g>
<!-- Node6 -->
<g id="node6" class="node">
<title>Node6</title>
<g id="a_node6"><a xlink:title=" ">
<polygon fill="#e0e0e0" stroke="#999999" points="2678,-79.5 2568,-79.5 2568,-60.5 2678,-60.5 2678,-79.5"/>
<text text-anchor="middle" x="2623" y="-67.5" font-family="Helvetica,sans-Serif" font-size="10.00">nlohmann/json.hpp</text>
</a>
</g>
</g>
<!-- Node4&#45;&gt;Node6 -->
<g id="edge5" class="edge">
<title>Node4&#45;&gt;Node6</title>
<path fill="none" stroke="#63b8ff" d="M2694.81,-126.37C2681.44,-116.06 2658.85,-98.65 2642.58,-86.09"/>
<polygon fill="#63b8ff" stroke="#63b8ff" points="2644.34,-83.03 2634.28,-79.7 2640.06,-88.58 2644.34,-83.03"/>
</g>
<!-- Node7&#45;&gt;Node5 -->
<g id="edge60" class="edge">
<title>Node7&#45;&gt;Node5</title>
<path fill="none" stroke="#63b8ff" d="M1162.82,-505.58C1197.6,-470.27 1328.09,-336.31 1425,-217 1480.99,-148.06 1463.84,-97.18 1542,-55 1584.1,-32.28 2294.38,-15.69 2490.94,-11.52"/>
<polygon fill="#63b8ff" stroke="#63b8ff" points="2491.07,-15.02 2500.99,-11.31 2490.92,-8.02 2491.07,-15.02"/>
</g>
<!-- Node8 -->
<g id="node8" class="node">
<title>Node8</title>
<g id="a_node8"><a xlink:href="_assembly_vals_cache_8hpp.html" target="_top" xlink:title=" ">
<polygon fill="white" stroke="#666666" points="1145,-398.5 1009,-398.5 1009,-379.5 1145,-379.5 1145,-398.5"/>
<text text-anchor="middle" x="1077" y="-386.5" font-family="Helvetica,sans-Serif" font-size="10.00">AssemblyValsCache.hpp</text>
</a>
</g>
</g>
<!-- Node7&#45;&gt;Node8 -->
<g id="edge7" class="edge">
<title>Node7&#45;&gt;Node8</title>
<path fill="none" stroke="#63b8ff" d="M1129.61,-505.96C1113.48,-498.94 1093.45,-487.31 1083,-470 1071.79,-451.41 1072,-425.81 1073.89,-408.61"/>
<polygon fill="#63b8ff" stroke="#63b8ff" points="1077.36,-409.08 1075.26,-398.69 1070.42,-408.12 1077.36,-409.08"/>
</g>
<!-- Node9 -->
<g id="node9" class="node">
<title>Node9</title>
<g id="a_node9"><a xlink:href="_element_assembly_values_8hpp.html" target="_top" xlink:title=" ">
<polygon fill="white" stroke="#666666" points="1217.5,-338 1062.5,-338 1062.5,-308 1217.5,-308 1217.5,-338"/>
<text text-anchor="start" x="1070.5" y="-326" font-family="Helvetica,sans-Serif" font-size="10.00">polyfem/assembler/Element</text>
<text text-anchor="middle" x="1140" y="-315" font-family="Helvetica,sans-Serif" font-size="10.00">AssemblyValues.hpp</text>
</a>
</g>
</g>
<!-- Node7&#45;&gt;Node9 -->
<g id="edge39" class="edge">
<title>Node7&#45;&gt;Node9</title>
<path fill="none" stroke="#63b8ff" d="M1144.98,-505.96C1136.93,-497.66 1125.71,-484.25 1121,-470 1116.82,-457.34 1116.17,-452.43 1121,-440 1128.87,-419.77 1146.13,-424.23 1154,-404 1161.11,-385.72 1156.36,-363.68 1150.54,-347.37"/>
<polygon fill="#63b8ff" stroke="#63b8ff" points="1153.78,-346.06 1146.87,-338.03 1147.27,-348.62 1153.78,-346.06"/>
</g>
<!-- Node7&#45;&gt;Node16 -->
<g id="edge61" class="edge">
<title>Node7&#45;&gt;Node16</title>
<path fill="none" stroke="#63b8ff" d="M1109.43,-509.23C1080.79,-503.75 1044.5,-492.6 1020,-470 904.03,-363.02 886.94,-153.27 884.43,-89.7"/>
<polygon fill="#63b8ff" stroke="#63b8ff" points="887.92,-89.47 884.11,-79.59 880.93,-89.69 887.92,-89.47"/>
</g>
<!-- Node17 -->
<g id="node17" class="node">
<title>Node17</title>
<g id="a_node17"><a xlink:title=" ">
<polygon fill="#e0e0e0" stroke="#999999" points="1124,-145.5 1064,-145.5 1064,-126.5 1124,-126.5 1124,-145.5"/>
<text text-anchor="middle" x="1094" y="-133.5" font-family="Helvetica,sans-Serif" font-size="10.00">iostream</text>
</a>
</g>
</g>
<!-- Node7&#45;&gt;Node17 -->
<g id="edge62" class="edge">
<title>Node7&#45;&gt;Node17</title>
<path fill="none" stroke="#63b8ff" d="M1128.73,-505.94C1091.44,-491.69 1023.53,-459.07 1000,-404 979.63,-356.34 1056.65,-205.95 1084.39,-154.48"/>
<polygon fill="#63b8ff" stroke="#63b8ff" points="1087.54,-156.02 1089.24,-145.56 1081.39,-152.67 1087.54,-156.02"/>
</g>
<!-- Node7&#45;&gt;Node26 -->
<g id="edge64" class="edge">
<title>Node7&#45;&gt;Node26</title>
<path fill="none" stroke="#63b8ff" d="M1109.4,-513.66C1068.65,-510.78 1008.59,-501.03 967,-470 860.25,-390.35 834.27,-213.69 828.51,-155.78"/>
<polygon fill="#63b8ff" stroke="#63b8ff" points="831.98,-155.22 827.59,-145.57 825,-155.85 831.98,-155.22"/>
</g>
<!-- Node7&#45;&gt;Node27 -->
<g id="edge40" class="edge">
<title>Node7&#45;&gt;Node27</title>
<path fill="none" stroke="#63b8ff" d="M1198.93,-512.98C1254.57,-511.14 1352.27,-508.03 1436,-506 1490.6,-504.68 3363.73,-508.97 3402,-470 3417.64,-454.07 3412.09,-426.67 3405.78,-408.44"/>
<polygon fill="#63b8ff" stroke="#63b8ff" points="3408.98,-407.01 3402.13,-398.93 3402.45,-409.52 3408.98,-407.01"/>
</g>
<!-- Node28 -->
<g id="node26" class="node">
<title>Node28</title>
<g id="a_node26"><a xlink:href="_elasticity_utils_8hpp.html" target="_top" xlink:title=" ">
<polygon fill="white" stroke="#666666" points="2086.5,-470 1957.5,-470 1957.5,-440 2086.5,-440 2086.5,-470"/>
<text text-anchor="start" x="1965.5" y="-458" font-family="Helvetica,sans-Serif" font-size="10.00">polyfem/utils/Elasticity</text>
<text text-anchor="middle" x="2022" y="-447" font-family="Helvetica,sans-Serif" font-size="10.00">Utils.hpp</text>
</a>
</g>
</g>
<!-- Node7&#45;&gt;Node28 -->
<g id="edge45" class="edge">
<title>Node7&#45;&gt;Node28</title>
<path fill="none" stroke="#63b8ff" d="M1198.51,-512.79C1314.81,-508.14 1637.34,-493.92 1905,-470 1918.69,-468.78 1933.26,-467.23 1947.29,-465.62"/>
<polygon fill="#63b8ff" stroke="#63b8ff" points="1947.87,-469.07 1957.4,-464.43 1947.06,-462.12 1947.87,-469.07"/>
</g>
<!-- Node33 -->
<g id="node30" class="node">
<title>Node33</title>
<g id="a_node30"><a xlink:title=" ">
<polygon fill="#e0e0e0" stroke="#999999" points="2392.5,-272 2345.5,-272 2345.5,-253 2392.5,-253 2392.5,-272"/>
<text text-anchor="middle" x="2369" y="-260" font-family="Helvetica,sans-Serif" font-size="10.00">cmath</text>
</a>
</g>
</g>
<!-- Node7&#45;&gt;Node33 -->
<g id="edge63" class="edge">
<title>Node7&#45;&gt;Node33</title>
<path fill="none" stroke="#63b8ff" d="M1195.47,-505.93C1384.49,-466.88 2162.62,-306.14 2335.06,-270.51"/>
<polygon fill="#63b8ff" stroke="#63b8ff" points="2335.99,-273.89 2345.08,-268.44 2334.58,-267.04 2335.99,-273.89"/>
</g>
<!-- Node8&#45;&gt;Node9 -->
<g id="edge8" class="edge">
<title>Node8&#45;&gt;Node9</title>
<path fill="none" stroke="#63b8ff" d="M1085.5,-379.37C1093.98,-370.75 1107.37,-357.15 1118.75,-345.59"/>
<polygon fill="#63b8ff" stroke="#63b8ff" points="1121.34,-347.94 1125.86,-338.36 1116.35,-343.03 1121.34,-347.94"/>
</g>
<!-- Node10 -->
<g id="node10" class="node">
<title>Node10</title>
<g id="a_node10"><a xlink:href="_assembly_values_8hpp.html" target="_top" xlink:title=" ">
<polygon fill="white" stroke="#666666" points="1259,-217 1097,-217 1097,-187 1259,-187 1259,-217"/>
<text text-anchor="start" x="1105" y="-205" font-family="Helvetica,sans-Serif" font-size="10.00">polyfem/assembler/Assembly</text>
<text text-anchor="middle" x="1178" y="-194" font-family="Helvetica,sans-Serif" font-size="10.00">Values.hpp</text>
</a>
</g>
</g>
<!-- Node9&#45;&gt;Node10 -->
<g id="edge9" class="edge">
<title>Node9&#45;&gt;Node10</title>
<path fill="none" stroke="#63b8ff" d="M1141.8,-307.99C1143.86,-293.86 1147.78,-271.54 1154,-253 1157.04,-243.95 1161.33,-234.4 1165.44,-226.11"/>
<polygon fill="#63b8ff" stroke="#63b8ff" points="1168.64,-227.54 1170.1,-217.05 1162.41,-224.34 1168.64,-227.54"/>
</g>
<!-- Node9&#45;&gt;Node16 -->
<g id="edge38" class="edge">
<title>Node9&#45;&gt;Node16</title>
<path fill="none" stroke="#63b8ff" d="M1125.5,-307.79C1081.01,-264.16 946.6,-132.38 900.07,-86.75"/>
<polygon fill="#63b8ff" stroke="#63b8ff" points="902.5,-84.23 892.91,-79.73 897.6,-89.23 902.5,-84.23"/>
</g>
<!-- Node9&#45;&gt;Node18 -->
<g id="edge22" class="edge">
<title>Node9&#45;&gt;Node18</title>
<path fill="none" stroke="#63b8ff" d="M1166.83,-307.99C1184.85,-298.58 1208.46,-286.24 1226.25,-276.95"/>
<polygon fill="#63b8ff" stroke="#63b8ff" points="1228.22,-279.87 1235.46,-272.14 1224.98,-273.67 1228.22,-279.87"/>
</g>
<!-- Node11 -->
<g id="node11" class="node">
<title>Node11</title>
<g id="a_node11"><a xlink:href="_quadrature_8hpp.html" target="_top" xlink:title=" ">
<polygon fill="white" stroke="#666666" points="1346.5,-85 1233.5,-85 1233.5,-55 1346.5,-55 1346.5,-85"/>
<text text-anchor="start" x="1241.5" y="-73" font-family="Helvetica,sans-Serif" font-size="10.00">polyfem/quadrature</text>
<text text-anchor="middle" x="1290" y="-62" font-family="Helvetica,sans-Serif" font-size="10.00">/Quadrature.hpp</text>
</a>
</g>
</g>
<!-- Node10&#45;&gt;Node11 -->
<g id="edge10" class="edge">
<title>Node10&#45;&gt;Node11</title>
<path fill="none" stroke="#63b8ff" d="M1190.2,-186.84C1209.72,-164.18 1248.13,-119.6 1271.19,-92.83"/>
<polygon fill="#63b8ff" stroke="#63b8ff" points="1273.94,-95 1277.82,-85.14 1268.64,-90.43 1273.94,-95"/>
</g>
<!-- Node10&#45;&gt;Node12 -->
<g id="edge20" class="edge">
<title>Node10&#45;&gt;Node12</title>
<path fill="none" stroke="#63b8ff" d="M1177.72,-186.88C1177.98,-156.95 1183.28,-87.24 1225,-55 1283.05,-10.13 1797.86,-9.26 1960.19,-10.11"/>
<polygon fill="#63b8ff" stroke="#63b8ff" points="1960.35,-13.61 1970.37,-10.17 1960.39,-6.61 1960.35,-13.61"/>
</g>
<!-- Node13 -->
<g id="node13" class="node">
<title>Node13</title>
<g id="a_node13"><a xlink:href="_basis_8hpp.html" target="_top" xlink:title=" ">
<polygon fill="white" stroke="#666666" points="1430,-145.5 1294,-145.5 1294,-126.5 1430,-126.5 1430,-145.5"/>
<text text-anchor="middle" x="1362" y="-133.5" font-family="Helvetica,sans-Serif" font-size="10.00">polyfem/basis/Basis.hpp</text>
</a>
</g>
</g>
<!-- Node10&#45;&gt;Node13 -->
<g id="edge12" class="edge">
<title>Node10&#45;&gt;Node13</title>
<path fill="none" stroke="#63b8ff" d="M1218.38,-186.95C1251.22,-175.53 1297.03,-159.6 1328.01,-148.82"/>
<polygon fill="#63b8ff" stroke="#63b8ff" points="1329.22,-152.11 1337.51,-145.52 1326.92,-145.5 1329.22,-152.11"/>
</g>
<!-- Node10&#45;&gt;Node17 -->
<g id="edge21" class="edge">
<title>Node10&#45;&gt;Node17</title>
<path fill="none" stroke="#63b8ff" d="M1159.36,-186.8C1145.88,-176.53 1127.69,-162.67 1113.92,-152.18"/>
<polygon fill="#63b8ff" stroke="#63b8ff" points="1115.68,-149.12 1105.61,-145.84 1111.44,-154.69 1115.68,-149.12"/>
</g>
<!-- Node11&#45;&gt;Node12 -->
<g id="edge11" class="edge">
<title>Node11&#45;&gt;Node12</title>
<path fill="none" stroke="#63b8ff" d="M1346.54,-60.49C1361.01,-58.5 1376.56,-56.52 1391,-55 1602.25,-32.78 1855.31,-18.36 1959.98,-12.93"/>
<polygon fill="#63b8ff" stroke="#63b8ff" points="1960.43,-16.41 1970.24,-12.4 1960.07,-9.42 1960.43,-16.41"/>
</g>
<!-- Node13&#45;&gt;Node11 -->
<g id="edge13" class="edge">
<title>Node13&#45;&gt;Node11</title>
<path fill="none" stroke="#63b8ff" d="M1352.29,-126.37C1342.44,-117.61 1326.8,-103.71 1313.66,-92.04"/>
<polygon fill="#63b8ff" stroke="#63b8ff" points="1315.68,-89.14 1305.88,-85.12 1311.03,-94.38 1315.68,-89.14"/>
</g>
<!-- Node13&#45;&gt;Node12 -->
<g id="edge17" class="edge">
<title>Node13&#45;&gt;Node12</title>
<path fill="none" stroke="#63b8ff" d="M1367.73,-126.27C1379.59,-109.05 1408.68,-71.02 1444,-55 1535.44,-13.52 1840.18,-9.9 1960.01,-10.13"/>
<polygon fill="#63b8ff" stroke="#63b8ff" points="1960.33,-13.63 1970.34,-10.16 1960.35,-6.63 1960.33,-13.63"/>
</g>
<!-- Node14 -->
<g id="node14" class="node">
<title>Node14</title>
<g id="a_node14"><a xlink:href="_types_8hpp.html" target="_top" xlink:title=" ">
<polygon fill="white" stroke="#666666" points="2424.5,-79.5 2291.5,-79.5 2291.5,-60.5 2424.5,-60.5 2424.5,-79.5"/>
<text text-anchor="middle" x="2358" y="-67.5" font-family="Helvetica,sans-Serif" font-size="10.00">polyfem/utils/Types.hpp</text>
</a>
</g>
</g>
<!-- Node13&#45;&gt;Node14 -->
<g id="edge14" class="edge">
<title>Node13&#45;&gt;Node14</title>
<path fill="none" stroke="#63b8ff" d="M1430.07,-130.63C1609.15,-119.12 2092.59,-88.05 2281.18,-75.94"/>
<polygon fill="#63b8ff" stroke="#63b8ff" points="2281.53,-79.42 2291.29,-75.29 2281.08,-72.44 2281.53,-79.42"/>
</g>
<!-- Node15 -->
<g id="node15" class="node">
<title>Node15</title>
<g id="a_node15"><a xlink:title=" ">
<polygon fill="#e0e0e0" stroke="#999999" points="2521.5,-79.5 2456.5,-79.5 2456.5,-60.5 2521.5,-60.5 2521.5,-79.5"/>
<text text-anchor="middle" x="2489" y="-67.5" font-family="Helvetica,sans-Serif" font-size="10.00">functional</text>
</a>
</g>
</g>
<!-- Node13&#45;&gt;Node15 -->
<g id="edge18" class="edge">
<title>Node13&#45;&gt;Node15</title>
<path fill="none" stroke="#63b8ff" d="M1430.25,-133.63C1634.55,-129.22 2239.13,-114.04 2434,-85 2439.23,-84.22 2444.68,-83.15 2450.03,-81.95"/>
<polygon fill="#63b8ff" stroke="#63b8ff" points="2451.21,-85.27 2460.11,-79.52 2449.57,-78.46 2451.21,-85.27"/>
</g>
<!-- Node13&#45;&gt;Node16 -->
<g id="edge19" class="edge">
<title>Node13&#45;&gt;Node16</title>
<path fill="none" stroke="#63b8ff" d="M1298.03,-126.44C1195.38,-112.69 997.36,-86.18 918.06,-75.56"/>
<polygon fill="#63b8ff" stroke="#63b8ff" points="918.05,-72.03 907.68,-74.17 917.13,-78.97 918.05,-72.03"/>
</g>
<!-- Node14&#45;&gt;Node5 -->
<g id="edge16" class="edge">
<title>Node14&#45;&gt;Node5</title>
<path fill="none" stroke="#63b8ff" d="M2384.61,-60.49C2416.19,-50.4 2469.01,-33.51 2504.42,-22.19"/>
<polygon fill="#63b8ff" stroke="#63b8ff" points="2505.9,-25.4 2514.36,-19.02 2503.77,-18.73 2505.9,-25.4"/>
</g>
<!-- Node14&#45;&gt;Node12 -->
<g id="edge15" class="edge">
<title>Node14&#45;&gt;Node12</title>
<path fill="none" stroke="#63b8ff" d="M2307.25,-60.49C2240.41,-49.29 2123.65,-29.72 2057.79,-18.68"/>
<polygon fill="#63b8ff" stroke="#63b8ff" points="2058.12,-15.18 2047.67,-16.98 2056.96,-22.09 2058.12,-15.18"/>
</g>
<!-- Node18&#45;&gt;Node10 -->
<g id="edge36" class="edge">
<title>Node18&#45;&gt;Node10</title>
<path fill="none" stroke="#63b8ff" d="M1241.08,-252.87C1231.32,-245.15 1216.63,-233.54 1203.88,-223.46"/>
<polygon fill="#63b8ff" stroke="#63b8ff" points="1205.87,-220.57 1195.85,-217.11 1201.53,-226.06 1205.87,-220.57"/>
</g>
<!-- Node18&#45;&gt;Node11 -->
<g id="edge24" class="edge">
<title>Node18&#45;&gt;Node11</title>
<path fill="none" stroke="#63b8ff" d="M1255.71,-252.79C1259.34,-243.93 1264.78,-229.74 1268,-217 1278.63,-174.91 1284.82,-124.61 1287.8,-95.38"/>
<polygon fill="#63b8ff" stroke="#63b8ff" points="1291.3,-95.57 1288.78,-85.28 1284.33,-94.89 1291.3,-95.57"/>
</g>
<!-- Node18&#45;&gt;Node13 -->
<g id="edge23" class="edge">
<title>Node18&#45;&gt;Node13</title>
<path fill="none" stroke="#63b8ff" d="M1282.18,-252.92C1301.04,-246.09 1324.44,-234.68 1339,-217 1353.39,-199.52 1358.78,-173.47 1360.8,-155.89"/>
<polygon fill="#63b8ff" stroke="#63b8ff" points="1364.3,-156 1361.7,-145.73 1357.33,-155.39 1364.3,-156"/>
</g>
<!-- Node18&#45;&gt;Node16 -->
<g id="edge37" class="edge">
<title>Node18&#45;&gt;Node16</title>
<path fill="none" stroke="#63b8ff" d="M1197.75,-252.93C1164.7,-246.25 1122.37,-235 1088,-217 1029.32,-186.27 1028.54,-158.59 974,-121 953.7,-107.01 929.14,-93.57 910.81,-84.16"/>
<polygon fill="#63b8ff" stroke="#63b8ff" points="912.35,-81.02 901.85,-79.63 909.19,-87.27 912.35,-81.02"/>
</g>
<!-- Node18&#45;&gt;Node19 -->
<g id="edge25" class="edge">
<title>Node18&#45;&gt;Node19</title>
<path fill="none" stroke="#63b8ff" d="M1162.26,-253.18C1038.45,-241.7 817.22,-221.19 699.59,-210.29"/>
<polygon fill="#63b8ff" stroke="#63b8ff" points="699.85,-206.8 689.57,-209.36 699.21,-213.77 699.85,-206.8"/>
</g>
<!-- Node19&#45;&gt;Node4 -->
<g id="edge26" class="edge">
<title>Node19&#45;&gt;Node4</title>
<path fill="none" stroke="#63b8ff" d="M689.78,-198.89C1004.93,-189.22 2309.49,-149.17 2633.11,-139.24"/>
<polygon fill="#63b8ff" stroke="#63b8ff" points="2633.41,-142.73 2643.3,-138.92 2633.2,-135.73 2633.41,-142.73"/>
</g>
<!-- Node19&#45;&gt;Node12 -->
<g id="edge33" class="edge">
<title>Node19&#45;&gt;Node12</title>
<path fill="none" stroke="#63b8ff" d="M610.76,-192.42C593.64,-177.03 562.77,-144.2 581,-121 657.59,-23.52 729.22,-72.13 852,-55 1071.19,-24.41 1769.33,-13.52 1960.3,-11.07"/>
<polygon fill="#63b8ff" stroke="#63b8ff" points="1960.37,-14.57 1970.33,-10.95 1960.28,-7.57 1960.37,-14.57"/>
</g>
<!-- Node19&#45;&gt;Node14 -->
<g id="edge29" class="edge">
<title>Node19&#45;&gt;Node14</title>
<path fill="none" stroke="#63b8ff" d="M650.53,-192.45C677.64,-183.97 718.43,-169.55 751,-151 769.7,-140.35 768.79,-128.38 789,-121 824.4,-108.08 1970.43,-80.15 2281.02,-72.8"/>
<polygon fill="#63b8ff" stroke="#63b8ff" points="2281.36,-76.29 2291.28,-72.56 2281.2,-69.3 2281.36,-76.29"/>
</g>
<!-- Node20 -->
<g id="node20" class="node">
<title>Node20</title>
<g id="a_node20"><a xlink:href="_navigation_8hpp.html" target="_top" xlink:title=" ">
<polygon fill="#fff0f0" stroke="red" points="419.5,-151 288.5,-151 288.5,-121 419.5,-121 419.5,-151"/>
<text text-anchor="start" x="296.5" y="-139" font-family="Helvetica,sans-Serif" font-size="10.00">polyfem/mesh/mesh2D</text>
<text text-anchor="middle" x="354" y="-128" font-family="Helvetica,sans-Serif" font-size="10.00">/Navigation.hpp</text>
</a>
</g>
</g>
<!-- Node19&#45;&gt;Node20 -->
<g id="edge27" class="edge">
<title>Node19&#45;&gt;Node20</title>
<path fill="none" stroke="#63b8ff" d="M585.27,-192.44C543.75,-182.48 474.31,-165.84 422.33,-153.38"/>
<polygon fill="#63b8ff" stroke="#63b8ff" points="423.05,-149.95 412.51,-151.02 421.42,-156.76 423.05,-149.95"/>
</g>
<!-- Node21 -->
<g id="node21" class="node">
<title>Node21</title>
<g id="a_node21"><a xlink:title=" ">
<polygon fill="#e0e0e0" stroke="#999999" points="371.5,-79.5 242.5,-79.5 242.5,-60.5 371.5,-60.5 371.5,-79.5"/>
<text text-anchor="middle" x="307" y="-67.5" font-family="Helvetica,sans-Serif" font-size="10.00">geogram/mesh/mesh.h</text>
</a>
</g>
</g>
<!-- Node19&#45;&gt;Node21 -->
<g id="edge34" class="edge">
<title>Node19&#45;&gt;Node21</title>
<path fill="none" stroke="#63b8ff" d="M552.35,-195.73C457.67,-187.76 296.61,-171.37 279,-151 263.35,-132.89 278.89,-105.5 292.3,-87.93"/>
<polygon fill="#63b8ff" stroke="#63b8ff" points="295.36,-89.71 298.95,-79.74 289.93,-85.3 295.36,-89.71"/>
</g>
<!-- Node23 -->
<g id="node22" class="node">
<title>Node23</title>
<g id="a_node22"><a xlink:href="_hash_utils_8hpp.html" target="_top" xlink:title=" ">
<polygon fill="#fff0f0" stroke="red" points="742,-145.5 590,-145.5 590,-126.5 742,-126.5 742,-145.5"/>
<text text-anchor="middle" x="666" y="-133.5" font-family="Helvetica,sans-Serif" font-size="10.00">polyfem/utils/HashUtils.hpp</text>
</a>
</g>
</g>
<!-- Node19&#45;&gt;Node23 -->
<g id="edge30" class="edge">
<title>Node19&#45;&gt;Node23</title>
<path fill="none" stroke="#63b8ff" d="M627.07,-192.37C633.87,-182.69 645.09,-166.74 653.74,-154.44"/>
<polygon fill="#63b8ff" stroke="#63b8ff" points="656.85,-156.1 659.74,-145.91 651.12,-152.07 656.85,-156.1"/>
</g>
<!-- Node19&#45;&gt;Node26 -->
<g id="edge35" class="edge">
<title>Node19&#45;&gt;Node26</title>
<path fill="none" stroke="#63b8ff" d="M649.31,-192.48C681.86,-182.64 736.87,-165.9 784,-151 786.42,-150.23 788.92,-149.44 791.44,-148.63"/>
<polygon fill="#63b8ff" stroke="#63b8ff" points="792.66,-151.91 801.1,-145.51 790.51,-145.25 792.66,-151.91"/>
</g>
<!-- Node20&#45;&gt;Node21 -->
<g id="edge28" class="edge">
<title>Node20&#45;&gt;Node21</title>
<path fill="none" stroke="#63b8ff" d="M343.57,-120.8C336.46,-111.11 327,-98.24 319.49,-88.01"/>
<polygon fill="#63b8ff" stroke="#63b8ff" points="322.24,-85.83 313.5,-79.84 316.59,-89.98 322.24,-85.83"/>
</g>
<!-- Node23&#45;&gt;Node16 -->
<g id="edge32" class="edge">
<title>Node23&#45;&gt;Node16</title>
<path fill="none" stroke="#63b8ff" d="M695.4,-126.37C735.77,-114.52 808.17,-93.26 850.56,-80.82"/>
<polygon fill="#63b8ff" stroke="#63b8ff" points="851.79,-84.1 860.4,-77.93 849.82,-77.39 851.79,-84.1"/>
</g>
<!-- Node25 -->
<g id="node23" class="node">
<title>Node25</title>
<g id="a_node23"><a xlink:title=" ">
<polygon fill="#e0e0e0" stroke="#999999" points="1593,-79.5 1551,-79.5 1551,-60.5 1593,-60.5 1593,-79.5"/>
<text text-anchor="middle" x="1572" y="-67.5" font-family="Helvetica,sans-Serif" font-size="10.00">array</text>
</a>
</g>
</g>
<!-- Node23&#45;&gt;Node25 -->
<g id="edge31" class="edge">
<title>Node23&#45;&gt;Node25</title>
<path fill="none" stroke="#63b8ff" d="M715.4,-126.46C728.56,-124.42 742.79,-122.42 756,-121 1021.61,-92.44 1089.37,-101.64 1356,-85 1421.73,-80.9 1498.69,-75.85 1540.7,-73.08"/>
<polygon fill="#63b8ff" stroke="#63b8ff" points="1541.1,-76.56 1550.85,-72.4 1540.64,-69.57 1541.1,-76.56"/>
</g>
<!-- Node27&#45;&gt;Node4 -->
<g id="edge41" class="edge">
<title>Node27&#45;&gt;Node4</title>
<path fill="none" stroke="#63b8ff" d="M3367.77,-379.44C3307.54,-362.02 3168.76,-319.98 3057,-272 2982.29,-239.92 2970.78,-216.47 2895,-187 2850.43,-169.66 2797.66,-156.26 2759.23,-147.72"/>
<polygon fill="#63b8ff" stroke="#63b8ff" points="2759.8,-144.26 2749.28,-145.55 2758.3,-151.1 2759.8,-144.26"/>
</g>
<!-- Node27&#45;&gt;Node5 -->
<g id="edge44" class="edge">
<title>Node27&#45;&gt;Node5</title>
<path fill="none" stroke="#63b8ff" d="M3434.92,-379.43C3462.07,-371.81 3498.82,-358.62 3526,-338 3631.24,-258.13 3708.47,-150.33 3617,-55 3581.1,-17.58 2799.14,-11.6 2591.34,-10.67"/>
<polygon fill="#63b8ff" stroke="#63b8ff" points="2591.32,-7.17 2581.31,-10.62 2591.29,-14.17 2591.32,-7.17"/>
</g>
<!-- Node27&#45;&gt;Node12 -->
<g id="edge43" class="edge">
<title>Node27&#45;&gt;Node12</title>
<path fill="none" stroke="#63b8ff" d="M3418.84,-379.46C3438.15,-370.87 3466.97,-356.31 3488,-338 3538.74,-293.81 3557.68,-280.82 3579,-217 3601.81,-148.71 3629.19,-106.63 3579,-55 3565.41,-41.02 2321.82,-16.48 2057.88,-11.43"/>
<polygon fill="#63b8ff" stroke="#63b8ff" points="2057.9,-7.93 2047.83,-11.23 2057.77,-14.92 2057.9,-7.93"/>
</g>
<!-- Node27&#45;&gt;Node14 -->
<g id="edge42" class="edge">
<title>Node27&#45;&gt;Node14</title>
<path fill="none" stroke="#63b8ff" d="M3399.62,-379.2C3403.31,-356.75 3410.43,-296.12 3389,-253 3349.19,-172.87 3320.08,-154.22 3237,-121 3155.51,-88.42 2535.32,-93.76 2448,-85 2437.75,-83.97 2426.88,-82.56 2416.38,-81.03"/>
<polygon fill="#63b8ff" stroke="#63b8ff" points="2416.86,-77.56 2406.45,-79.53 2415.82,-84.48 2416.86,-77.56"/>
</g>
<!-- Node28&#45;&gt;Node4 -->
<g id="edge46" class="edge">
<title>Node28&#45;&gt;Node4</title>
<path fill="none" stroke="#63b8ff" d="M2081.8,-439.96C2119.67,-430.67 2169.52,-417.71 2213,-404 2249.61,-392.46 2257.04,-384.39 2294,-374 2374.22,-351.46 2410.96,-387.48 2478,-338 2539.27,-292.77 2500.91,-236.24 2559,-187 2582.17,-167.36 2613.41,-155.32 2641.14,-148"/>
<polygon fill="#63b8ff" stroke="#63b8ff" points="2642.31,-151.32 2651.18,-145.51 2640.63,-144.52 2642.31,-151.32"/>
</g>
<!-- Node28&#45;&gt;Node12 -->
<g id="edge56" class="edge">
<title>Node28&#45;&gt;Node12</title>
<path fill="none" stroke="#63b8ff" d="M2037.26,-439.84C2046.05,-430.61 2056.27,-417.74 2061,-404 2065.34,-391.39 2062.68,-387.23 2061,-374 2057.19,-343.95 2058.72,-334.47 2044,-308 2030.4,-283.55 1967.42,-242.97 1957,-217 1952.04,-204.63 1955.14,-200.2 1957,-187 1965.38,-127.58 1989.46,-60.33 2001.69,-28.73"/>
<polygon fill="#63b8ff" stroke="#63b8ff" points="2005.07,-29.7 2005.47,-19.11 1998.56,-27.14 2005.07,-29.7"/>
</g>
<!-- Node28&#45;&gt;Node14 -->
<g id="edge54" class="edge">
<title>Node28&#45;&gt;Node14</title>
<path fill="none" stroke="#63b8ff" d="M2049.72,-439.86C2065.37,-430.98 2084.62,-418.48 2099,-404 2204.21,-298.06 2174.48,-226.63 2280,-121 2294.92,-106.07 2315.04,-93.3 2331.11,-84.41"/>
<polygon fill="#63b8ff" stroke="#63b8ff" points="2332.87,-87.44 2340.03,-79.63 2329.57,-81.27 2332.87,-87.44"/>
</g>
<!-- Node28&#45;&gt;Node15 -->
<g id="edge59" class="edge">
<title>Node28&#45;&gt;Node15</title>
<path fill="none" stroke="#63b8ff" d="M2061.74,-439.93C2082.03,-431.51 2106.3,-419.43 2125,-404 2246.22,-303.98 2209.35,-212.67 2337,-121 2354.71,-108.28 2407.85,-92.36 2446.31,-81.95"/>
<polygon fill="#63b8ff" stroke="#63b8ff" points="2447.48,-85.26 2456.24,-79.29 2445.67,-78.5 2447.48,-85.26"/>
</g>
<!-- Node28&#45;&gt;Node16 -->
<g id="edge57" class="edge">
<title>Node28&#45;&gt;Node16</title>
<path fill="none" stroke="#63b8ff" d="M1989.94,-439.84C1875.62,-389.81 1476.49,-219.13 1133,-121 1057.16,-99.33 965.74,-83.53 917.53,-75.98"/>
<polygon fill="#63b8ff" stroke="#63b8ff" points="918.06,-72.52 907.64,-74.45 916.99,-79.44 918.06,-72.52"/>
</g>
<!-- Node28&#45;&gt;Node18 -->
<g id="edge49" class="edge">
<title>Node28&#45;&gt;Node18</title>
<path fill="none" stroke="#63b8ff" d="M1966.38,-439.95C1862.46,-413.74 1631.7,-355.71 1437,-308 1389.64,-296.39 1335.38,-283.38 1297.93,-274.43"/>
<polygon fill="#63b8ff" stroke="#63b8ff" points="1298.37,-270.94 1287.83,-272.02 1296.75,-277.75 1298.37,-270.94"/>
</g>
<!-- Node28&#45;&gt;Node25 -->
<g id="edge58" class="edge">
<title>Node28&#45;&gt;Node25</title>
<path fill="none" stroke="#63b8ff" d="M2003.81,-439.99C1957.25,-404 1830.31,-304.89 1729,-217 1701.28,-192.95 1623.11,-119.32 1588.66,-86.77"/>
<polygon fill="#63b8ff" stroke="#63b8ff" points="1590.94,-84.1 1581.27,-79.77 1586.13,-89.19 1590.94,-84.1"/>
</g>
<!-- Node28&#45;&gt;Node27 -->
<g id="edge55" class="edge">
<title>Node28&#45;&gt;Node27</title>
<path fill="none" stroke="#63b8ff" d="M2086.52,-451C2309.75,-440.62 3049.71,-406.2 3308.05,-394.18"/>
<polygon fill="#63b8ff" stroke="#63b8ff" points="3308.32,-397.68 3318.15,-393.71 3307.99,-390.68 3308.32,-397.68"/>
</g>
<!-- Node29 -->
<g id="node27" class="node">
<title>Node29</title>
<g id="a_node27"><a xlink:href="_assembler_data_8hpp.html" target="_top" xlink:title=" ">
<polygon fill="white" stroke="#666666" points="2469,-404 2303,-404 2303,-374 2469,-374 2469,-404"/>
<text text-anchor="start" x="2311" y="-392" font-family="Helvetica,sans-Serif" font-size="10.00">polyfem/assembler/Assembler</text>
<text text-anchor="middle" x="2386" y="-381" font-family="Helvetica,sans-Serif" font-size="10.00">Data.hpp</text>
</a>
</g>
</g>
<!-- Node28&#45;&gt;Node29 -->
<g id="edge47" class="edge">
<title>Node28&#45;&gt;Node29</title>
<path fill="none" stroke="#63b8ff" d="M2086.66,-442.63C2144.83,-432.4 2230.89,-417.27 2295.83,-405.85"/>
<polygon fill="#63b8ff" stroke="#63b8ff" points="2296.82,-409.23 2306.06,-404.06 2295.6,-402.34 2296.82,-409.23"/>
</g>
<!-- Node30 -->
<g id="node28" class="node">
<title>Node30</title>
<g id="a_node28"><a xlink:href="_autodiff_types_8hpp.html" target="_top" xlink:title=" ">
<polygon fill="white" stroke="#666666" points="3034.5,-398.5 2863.5,-398.5 2863.5,-379.5 3034.5,-379.5 3034.5,-398.5"/>
<text text-anchor="middle" x="2949" y="-386.5" font-family="Helvetica,sans-Serif" font-size="10.00">polyfem/utils/AutodiffTypes.hpp</text>
</a>
</g>
</g>
<!-- Node28&#45;&gt;Node30 -->
<g id="edge50" class="edge">
<title>Node28&#45;&gt;Node30</title>
<path fill="none" stroke="#63b8ff" d="M2086.72,-450.07C2133.03,-447.25 2196.85,-443.38 2253,-440 2520.11,-423.91 2587.83,-431.53 2854,-404 2864.66,-402.9 2875.97,-401.46 2886.91,-399.94"/>
<polygon fill="#63b8ff" stroke="#63b8ff" points="2887.43,-403.4 2896.84,-398.52 2886.44,-396.47 2887.43,-403.4"/>
</g>
<!-- Node29&#45;&gt;Node9 -->
<g id="edge48" class="edge">
<title>Node29&#45;&gt;Node9</title>
<path fill="none" stroke="#63b8ff" d="M2302.8,-383.73C2077.69,-372.16 1458.16,-340.34 1227.79,-328.51"/>
<polygon fill="#63b8ff" stroke="#63b8ff" points="1227.94,-325.01 1217.78,-327.99 1227.58,-332 1227.94,-325.01"/>
</g>
<!-- Node30&#45;&gt;Node14 -->
<g id="edge51" class="edge">
<title>Node30&#45;&gt;Node14</title>
<path fill="none" stroke="#63b8ff" d="M2954.74,-379.48C2978.95,-342.46 3067.99,-194.16 2993,-121 2949.56,-78.62 2508.32,-91.67 2448,-85 2438.22,-83.92 2427.87,-82.53 2417.81,-81.06"/>
<polygon fill="#63b8ff" stroke="#63b8ff" points="2418.29,-77.59 2407.88,-79.56 2417.25,-84.51 2418.29,-77.59"/>
</g>
<!-- Node31 -->
<g id="node29" class="node">
<title>Node31</title>
<g id="a_node29"><a xlink:href="autodiff_8h.html" target="_top" xlink:title=" ">
<polygon fill="#fff0f0" stroke="red" points="2468.5,-332.5 2405.5,-332.5 2405.5,-313.5 2468.5,-313.5 2468.5,-332.5"/>
<text text-anchor="middle" x="2437" y="-320.5" font-family="Helvetica,sans-Serif" font-size="10.00">autodiff.h</text>
</a>
</g>
</g>
<!-- Node30&#45;&gt;Node31 -->
<g id="edge52" class="edge">
<title>Node30&#45;&gt;Node31</title>
<path fill="none" stroke="#63b8ff" d="M2893.02,-379.49C2880.21,-377.62 2866.64,-375.69 2854,-374 2716.81,-355.67 2553.8,-337.03 2478.69,-328.62"/>
<polygon fill="#63b8ff" stroke="#63b8ff" points="2479.01,-325.14 2468.69,-327.5 2478.24,-332.09 2479.01,-325.14"/>
</g>
<!-- Node31&#45;&gt;Node33 -->
<g id="edge53" class="edge">
<title>Node31&#45;&gt;Node33</title>
<path fill="none" stroke="#63b8ff" d="M2426.97,-313.37C2416.42,-304.3 2399.61,-289.84 2386.81,-278.82"/>
<polygon fill="#63b8ff" stroke="#63b8ff" points="2388.94,-276.04 2379.07,-272.17 2384.37,-281.34 2388.94,-276.04"/>
</g>
<!-- Node35&#45;&gt;Node4 -->
<g id="edge71" class="edge">
<title>Node35&#45;&gt;Node4</title>
<path fill="none" stroke="#63b8ff" d="M3035.21,-505.8C3042.54,-497.38 3052.75,-483.9 3057,-470 3069.58,-428.82 3067.09,-410.34 3044,-374 3002.9,-309.33 2964.64,-320.12 2905,-272 2860.65,-236.22 2856.41,-218.63 2809,-187 2786.3,-171.86 2758.33,-158.58 2737.27,-149.52"/>
<polygon fill="#63b8ff" stroke="#63b8ff" points="2738.41,-146.2 2727.83,-145.54 2735.69,-152.65 2738.41,-146.2"/>
</g>
<!-- Node35&#45;&gt;Node12 -->
<g id="edge74" class="edge">
<title>Node35&#45;&gt;Node12</title>
<path fill="none" stroke="#63b8ff" d="M3058.66,-513.15C3212.49,-506.53 3874.76,-477.62 3882,-470 3990.46,-355.74 3899.97,-256.74 3820,-121 3800.03,-87.1 3796.71,-71.52 3761,-55 3741.13,-45.81 2339.26,-17.14 2057.87,-11.48"/>
<polygon fill="#63b8ff" stroke="#63b8ff" points="2057.64,-7.97 2047.57,-11.27 2057.5,-14.97 2057.64,-7.97"/>
</g>
<!-- Node35&#45;&gt;Node28 -->
<g id="edge73" class="edge">
<title>Node35&#45;&gt;Node28</title>
<path fill="none" stroke="#63b8ff" d="M2995.26,-512.65C2856.38,-504.57 2300.01,-472.18 2096.79,-460.35"/>
<polygon fill="#63b8ff" stroke="#63b8ff" points="2096.7,-456.84 2086.52,-459.76 2096.3,-463.83 2096.7,-456.84"/>
</g>
<!-- Node35&#45;&gt;Node29 -->
<g id="edge66" class="edge">
<title>Node35&#45;&gt;Node29</title>
<path fill="none" stroke="#63b8ff" d="M2995.21,-508.33C2899.37,-489.71 2611.06,-433.71 2468.14,-405.95"/>
<polygon fill="#63b8ff" stroke="#63b8ff" points="2468.59,-402.48 2458.11,-404.01 2467.26,-409.35 2468.59,-402.48"/>
</g>
<!-- Node35&#45;&gt;Node30 -->
<g id="edge72" class="edge">
<title>Node35&#45;&gt;Node30</title>
<path fill="none" stroke="#63b8ff" d="M3032.37,-505.55C3040.45,-490.83 3053.51,-461.04 3041,-440 3030.24,-421.9 3010.39,-409.95 2991.87,-402.28"/>
<polygon fill="#63b8ff" stroke="#63b8ff" points="2992.95,-398.95 2982.36,-398.65 2990.46,-405.49 2992.95,-398.95"/>
</g>
<!-- Node36 -->
<g id="node32" class="node">
<title>Node36</title>
<g id="a_node32"><a xlink:href="_mat_params_8hpp.html" target="_top" xlink:title=" ">
<polygon fill="#fff0f0" stroke="red" points="2845,-398.5 2753,-398.5 2753,-379.5 2845,-379.5 2845,-398.5"/>
<text text-anchor="middle" x="2799" y="-386.5" font-family="Helvetica,sans-Serif" font-size="10.00">MatParams.hpp</text>
</a>
</g>
</g>
<!-- Node35&#45;&gt;Node36 -->
<g id="edge67" class="edge">
<title>Node35&#45;&gt;Node36</title>
<path fill="none" stroke="#63b8ff" d="M3019.5,-505.93C3005.75,-490.69 2974.96,-458.72 2943,-440 2924.84,-429.36 2873.66,-412.64 2837.5,-401.51"/>
<polygon fill="#63b8ff" stroke="#63b8ff" points="2838.33,-398.1 2827.74,-398.52 2836.28,-404.79 2838.33,-398.1"/>
</g>
<!-- Node36&#45;&gt;Node4 -->
<g id="edge68" class="edge">
<title>Node36&#45;&gt;Node4</title>
<path fill="none" stroke="#63b8ff" d="M2797.35,-379.25C2791.74,-350.63 2771.96,-257.62 2739,-187 2733.53,-175.29 2725.6,-163.16 2718.88,-153.79"/>
<polygon fill="#63b8ff" stroke="#63b8ff" points="2721.69,-151.7 2712.93,-145.74 2716.06,-155.86 2721.69,-151.7"/>
</g>
<!-- Node36&#45;&gt;Node12 -->
<g id="edge70" class="edge">
<title>Node36&#45;&gt;Node12</title>
<path fill="none" stroke="#63b8ff" d="M2822.58,-379.41C2922.49,-342.42 3302.82,-195.2 3237,-121 3157.42,-31.3 2276.29,-13.97 2057.8,-11.04"/>
<polygon fill="#63b8ff" stroke="#63b8ff" points="2057.65,-7.54 2047.61,-10.91 2057.56,-14.54 2057.65,-7.54"/>
</g>
<!-- Node36&#45;&gt;Node14 -->
<g id="edge69" class="edge">
<title>Node36&#45;&gt;Node14</title>
<path fill="none" stroke="#63b8ff" d="M2812.43,-379.39C2865.55,-344.34 3054.16,-210.08 2971,-121 2931.25,-78.42 2505.89,-91.48 2448,-85 2438.22,-83.9 2427.87,-82.51 2417.81,-81.04"/>
<polygon fill="#63b8ff" stroke="#63b8ff" points="2418.29,-77.57 2407.88,-79.54 2417.25,-84.49 2418.29,-77.57"/>
</g>
<!-- Node38&#45;&gt;Node4 -->
<g id="edge77" class="edge">
<title>Node38&#45;&gt;Node4</title>
<path fill="none" stroke="#63b8ff" d="M3710.62,-445.43C3667.22,-420 3533.15,-344.46 3412,-308 3308.3,-276.79 3271.79,-311.63 3171,-272 3108.82,-247.55 3109.22,-211.36 3047,-187 2958.85,-152.48 2849.41,-141.53 2778.66,-138.2"/>
<polygon fill="#63b8ff" stroke="#63b8ff" points="2778.65,-134.7 2768.51,-137.76 2778.35,-141.69 2778.65,-134.7"/>
</g>
<!-- Node38&#45;&gt;Node12 -->
<g id="edge79" class="edge">
<title>Node38&#45;&gt;Node12</title>
<path fill="none" stroke="#63b8ff" d="M3729.34,-445.13C3742,-418.38 3778,-335.93 3778,-263.5 3778,-263.5 3778,-263.5 3778,-135 3778,-76.33 3728.33,-74.5 3673,-55 3633.94,-41.23 2329.72,-16.42 2058.21,-11.4"/>
<polygon fill="#63b8ff" stroke="#63b8ff" points="2057.95,-7.9 2047.89,-11.21 2057.82,-14.89 2057.95,-7.9"/>
</g>
<!-- Node38&#45;&gt;Node29 -->
<g id="edge76" class="edge">
<title>Node38&#45;&gt;Node29</title>
<path fill="none" stroke="#63b8ff" d="M3698.52,-445.49C3690.7,-443.32 3682.08,-441.25 3674,-440 3265.21,-376.84 3157.33,-420.08 2744,-404 2654.25,-400.51 2551.85,-396.5 2479.62,-393.67"/>
<polygon fill="#63b8ff" stroke="#63b8ff" points="2479.32,-390.16 2469.19,-393.26 2479.04,-397.15 2479.32,-390.16"/>
</g>
<!-- Node38&#45;&gt;Node30 -->
<g id="edge78" class="edge">
<title>Node38&#45;&gt;Node30</title>
<path fill="none" stroke="#63b8ff" d="M3697.7,-445.43C3690.09,-443.34 3681.78,-441.32 3674,-440 3555.76,-419.9 3213.29,-402.08 3044.85,-394.24"/>
<polygon fill="#63b8ff" stroke="#63b8ff" points="3044.9,-390.74 3034.75,-393.77 3044.57,-397.73 3044.9,-390.74"/>
</g>
<!-- Node39&#45;&gt;Node4 -->
<g id="edge82" class="edge">
<title>Node39&#45;&gt;Node4</title>
<path fill="none" stroke="#63b8ff" d="M1847.42,-445.44C1854.18,-443.59 1861.32,-441.69 1868,-440 1936.56,-422.64 1955.06,-423.66 2023,-404 2194.34,-354.42 2242.23,-351.29 2402,-272 2463.17,-241.64 2467.97,-215.56 2530,-187 2569.13,-168.98 2616.19,-156.02 2651.8,-147.82"/>
<polygon fill="#63b8ff" stroke="#63b8ff" points="2653,-151.14 2661.99,-145.53 2651.47,-144.31 2653,-151.14"/>
</g>
<!-- Node39&#45;&gt;Node12 -->
<g id="edge85" class="edge">
<title>Node39&#45;&gt;Node12</title>
<path fill="none" stroke="#63b8ff" d="M1819.38,-445.41C1827.99,-413.57 1857,-299.2 1857,-203 1857,-203 1857,-203 1857,-135 1857,-75.89 1926.64,-39.76 1971.65,-22.58"/>
<polygon fill="#63b8ff" stroke="#63b8ff" points="1972.94,-25.84 1981.12,-19.1 1970.53,-19.26 1972.94,-25.84"/>
</g>
<!-- Node39&#45;&gt;Node15 -->
<g id="edge86" class="edge">
<title>Node39&#45;&gt;Node15</title>
<path fill="none" stroke="#63b8ff" d="M1826.65,-445.29C1874.09,-402.95 2088.71,-216.69 2297,-121 2300.46,-119.41 2390.91,-96.12 2446.41,-81.9"/>
<polygon fill="#63b8ff" stroke="#63b8ff" points="2447.52,-85.22 2456.33,-79.35 2445.78,-78.44 2447.52,-85.22"/>
</g>
<!-- Node39&#45;&gt;Node18 -->
<g id="edge83" class="edge">
<title>Node39&#45;&gt;Node18</title>
<path fill="none" stroke="#63b8ff" d="M1791.63,-445.44C1700.81,-414.83 1391.84,-310.65 1287.08,-275.33"/>
<polygon fill="#63b8ff" stroke="#63b8ff" points="1287.9,-271.91 1277.3,-272.03 1285.66,-278.54 1287.9,-271.91"/>
</g>
<!-- Node39&#45;&gt;Node29 -->
<g id="edge81" class="edge">
<title>Node39&#45;&gt;Node29</title>
<path fill="none" stroke="#63b8ff" d="M1850.17,-445.44C1858.85,-443.43 1868.24,-441.45 1877,-440 2021.13,-416.21 2190.23,-402.35 2292.68,-395.48"/>
<polygon fill="#63b8ff" stroke="#63b8ff" points="2292.94,-398.97 2302.69,-394.81 2292.48,-391.98 2292.94,-398.97"/>
</g>
<!-- Node39&#45;&gt;Node30 -->
<g id="edge84" class="edge">
<title>Node39&#45;&gt;Node30</title>
<path fill="none" stroke="#63b8ff" d="M1848.55,-445.44C1857.66,-443.29 1867.67,-441.25 1877,-440 2307.68,-382.37 2421.3,-443.73 2854,-404 2865.06,-402.98 2876.79,-401.55 2888.1,-399.98"/>
<polygon fill="#63b8ff" stroke="#63b8ff" points="2888.94,-403.4 2898.34,-398.51 2887.95,-396.47 2888.94,-403.4"/>
</g>
<!-- Node40&#45;&gt;Node4 -->
<g id="edge89" class="edge">
<title>Node40&#45;&gt;Node4</title>
<path fill="none" stroke="#63b8ff" d="M3810.44,-445.48C3757.52,-421.44 3601,-351.92 3466,-308 3403.68,-287.73 3385.71,-291.04 3323,-272 3215.52,-239.36 3194.18,-213.38 3085,-187 2980.2,-161.68 2855.78,-148.36 2778.85,-142.01"/>
<polygon fill="#63b8ff" stroke="#63b8ff" points="2779.03,-138.51 2768.78,-141.19 2778.47,-145.49 2779.03,-138.51"/>
</g>
<!-- Node40&#45;&gt;Node12 -->
<g id="edge91" class="edge">
<title>Node40&#45;&gt;Node12</title>
<path fill="none" stroke="#63b8ff" d="M3830.59,-445.19C3839.52,-392.61 3877.85,-120.22 3726,-55 3706.3,-46.54 2335.55,-17.35 2057.77,-11.52"/>
<polygon fill="#63b8ff" stroke="#63b8ff" points="2057.68,-8.02 2047.6,-11.31 2057.53,-15.01 2057.68,-8.02"/>
</g>
<!-- Node40&#45;&gt;Node29 -->
<g id="edge88" class="edge">
<title>Node40&#45;&gt;Node29</title>
<path fill="none" stroke="#63b8ff" d="M3801.46,-445.48C3793.34,-443.31 3784.38,-441.24 3776,-440 3548.99,-406.49 2973.32,-412.48 2744,-404 2654.25,-400.68 2551.84,-396.65 2479.62,-393.77"/>
<polygon fill="#63b8ff" stroke="#63b8ff" points="2479.32,-390.25 2469.18,-393.35 2479.04,-397.25 2479.32,-390.25"/>
</g>
<!-- Node40&#45;&gt;Node30 -->
<g id="edge90" class="edge">
<title>Node40&#45;&gt;Node30</title>
<path fill="none" stroke="#63b8ff" d="M3800.89,-445.47C3792.91,-443.35 3784.17,-441.31 3776,-440 3637.77,-417.79 3231.56,-400.45 3044.86,-393.41"/>
<polygon fill="#63b8ff" stroke="#63b8ff" points="3044.9,-389.91 3034.78,-393.03 3044.64,-396.9 3044.9,-389.91"/>
</g>
<!-- Node41&#45;&gt;Node4 -->
<g id="edge95" class="edge">
<title>Node41&#45;&gt;Node4</title>
<path fill="none" stroke="#63b8ff" d="M2778.81,-509.72C2805.25,-504.32 2834.57,-493.1 2851,-470 2899.56,-401.7 2771.45,-434.08 2744,-404 2719.37,-377.01 2725,-360.54 2725,-324 2725,-324 2725,-324 2725,-261.5 2725,-223.56 2716.27,-179.85 2710.65,-155.63"/>
<polygon fill="#63b8ff" stroke="#63b8ff" points="2714,-154.59 2708.25,-145.69 2707.19,-156.23 2714,-154.59"/>
</g>
<!-- Node41&#45;&gt;Node12 -->
<g id="edge98" class="edge">
<title>Node41&#45;&gt;Node12</title>
<path fill="none" stroke="#63b8ff" d="M2713.41,-505.97C2680.99,-477.24 2572.23,-381.65 2478,-308 2318.77,-183.55 2105.9,-63.47 2033.95,-24.02"/>
<polygon fill="#63b8ff" stroke="#63b8ff" points="2035.59,-20.92 2025.13,-19.2 2032.23,-27.06 2035.59,-20.92"/>
</g>
<!-- Node41&#45;&gt;Node15 -->
<g id="edge99" class="edge">
<title>Node41&#45;&gt;Node15</title>
<path fill="none" stroke="#63b8ff" d="M2727.37,-505.63C2733.74,-491.52 2744.06,-463.16 2737,-440 2712.49,-359.59 2550.15,-148.88 2502.27,-87.81"/>
<polygon fill="#63b8ff" stroke="#63b8ff" points="2504.77,-85.32 2495.83,-79.63 2499.26,-89.65 2504.77,-85.32"/>
</g>
<!-- Node41&#45;&gt;Node28 -->
<g id="edge96" class="edge">
<title>Node41&#45;&gt;Node28</title>
<path fill="none" stroke="#63b8ff" d="M2667.41,-509.86C2542.3,-499.42 2238.53,-474.07 2096.95,-462.25"/>
<polygon fill="#63b8ff" stroke="#63b8ff" points="2096.88,-458.74 2086.63,-461.39 2096.3,-465.71 2096.88,-458.74"/>
</g>
<!-- Node41&#45;&gt;Node29 -->
<g id="edge93" class="edge">
<title>Node41&#45;&gt;Node29</title>
<path fill="none" stroke="#63b8ff" d="M2699.84,-505.94C2645.12,-485.73 2506.94,-434.68 2433.54,-407.56"/>
<polygon fill="#63b8ff" stroke="#63b8ff" points="2434.65,-404.24 2424.06,-404.06 2432.22,-410.81 2434.65,-404.24"/>
</g>
<!-- Node41&#45;&gt;Node30 -->
<g id="edge97" class="edge">
<title>Node41&#45;&gt;Node30</title>
<path fill="none" stroke="#63b8ff" d="M2778.57,-510.77C2836.48,-505.62 2921.73,-494.1 2943,-470 2957.65,-453.4 2956.42,-426.56 2953.38,-408.6"/>
<polygon fill="#63b8ff" stroke="#63b8ff" points="2956.8,-407.85 2951.38,-398.74 2949.94,-409.24 2956.8,-407.85"/>
</g>
<!-- Node41&#45;&gt;Node36 -->
<g id="edge94" class="edge">
<title>Node41&#45;&gt;Node36</title>
<path fill="none" stroke="#63b8ff" d="M2778.62,-510.08C2832.49,-504.5 2908.67,-492.76 2927,-470 2935.36,-459.62 2934.52,-451.01 2927,-440 2917.03,-425.4 2875.72,-410.95 2842.69,-401.37"/>
<polygon fill="#63b8ff" stroke="#63b8ff" points="2843.32,-397.91 2832.75,-398.56 2841.42,-404.65 2843.32,-397.91"/>
</g>
<!-- Node42&#45;&gt;Node4 -->
<g id="edge103" class="edge">
<title>Node42&#45;&gt;Node4</title>
<path fill="none" stroke="#63b8ff" d="M1698.99,-505.74C1709.07,-491.28 1730.45,-461.85 1752,-440 1784.61,-406.94 1792.6,-396.9 1833,-374 2103.37,-220.7 2477.44,-162.78 2633.3,-144.39"/>
<polygon fill="#63b8ff" stroke="#63b8ff" points="2633.72,-147.87 2643.25,-143.24 2632.91,-140.91 2633.72,-147.87"/>
</g>
<!-- Node42&#45;&gt;Node12 -->
<g id="edge106" class="edge">
<title>Node42&#45;&gt;Node12</title>
<path fill="none" stroke="#63b8ff" d="M1692.55,-505.84C1690.39,-453.92 1686.38,-181.91 1831,-55 1866.61,-23.76 1920.91,-13.79 1960.17,-10.93"/>
<polygon fill="#63b8ff" stroke="#63b8ff" points="1960.54,-14.42 1970.32,-10.33 1960.12,-7.43 1960.54,-14.42"/>
</g>
<!-- Node42&#45;&gt;Node25 -->
<g id="edge107" class="edge">
<title>Node42&#45;&gt;Node25</title>
<path fill="none" stroke="#63b8ff" d="M1639.3,-505.98C1599.91,-498.51 1551.25,-486.29 1539,-470 1495.73,-412.45 1534.02,-379.83 1539,-308 1544.67,-226.15 1561.23,-129.53 1568.51,-89.65"/>
<polygon fill="#63b8ff" stroke="#63b8ff" points="1571.99,-90.03 1570.37,-79.56 1565.11,-88.76 1571.99,-90.03"/>
</g>
<!-- Node42&#45;&gt;Node28 -->
<g id="edge104" class="edge">
<title>Node42&#45;&gt;Node28</title>
<path fill="none" stroke="#63b8ff" d="M1740.84,-505.99C1795.06,-496.35 1884.11,-480.52 1947.46,-469.25"/>
<polygon fill="#63b8ff" stroke="#63b8ff" points="1948.16,-472.68 1957.4,-467.49 1946.94,-465.79 1948.16,-472.68"/>
</g>
<!-- Node42&#45;&gt;Node29 -->
<g id="edge101" class="edge">
<title>Node42&#45;&gt;Node29</title>
<path fill="none" stroke="#63b8ff" d="M1764.21,-506.93C1875.57,-495.06 2079.97,-473.08 2096,-470 2140.52,-461.46 2258,-427.72 2329.03,-406.88"/>
<polygon fill="#63b8ff" stroke="#63b8ff" points="2330.12,-410.21 2338.73,-404.03 2328.15,-403.49 2330.12,-410.21"/>
</g>
<!-- Node42&#45;&gt;Node30 -->
<g id="edge105" class="edge">
<title>Node42&#45;&gt;Node30</title>
<path fill="none" stroke="#63b8ff" d="M1764.11,-506.9C1767.45,-506.59 1770.76,-506.28 1774,-506 1999.03,-486.21 2056.07,-490.93 2281,-470 2536.25,-446.25 2599.83,-437.36 2854,-404 2863.45,-402.76 2873.41,-401.38 2883.19,-399.97"/>
<polygon fill="#63b8ff" stroke="#63b8ff" points="2883.89,-403.41 2893.28,-398.51 2882.88,-396.48 2883.89,-403.41"/>
</g>
<!-- Node42&#45;&gt;Node36 -->
<g id="edge102" class="edge">
<title>Node42&#45;&gt;Node36</title>
<path fill="none" stroke="#63b8ff" d="M1764.11,-506.95C1767.45,-506.62 1770.76,-506.31 1774,-506 1869.69,-496.98 2115.6,-505.28 2205,-470 2225.02,-462.1 2223.01,-447.96 2243,-440 2288.59,-421.85 2609.99,-401.12 2742.3,-393.26"/>
<polygon fill="#63b8ff" stroke="#63b8ff" points="2742.85,-396.73 2752.63,-392.65 2742.44,-389.74 2742.85,-396.73"/>
</g>
<!-- Node43&#45;&gt;Node4 -->
<g id="edge110" class="edge">
<title>Node43&#45;&gt;Node4</title>
<path fill="none" stroke="#63b8ff" d="M1528.63,-505.84C1599.64,-461.28 1935.64,-257.26 2243,-187 2378.79,-155.96 2541.52,-144.05 2633.42,-139.58"/>
<polygon fill="#63b8ff" stroke="#63b8ff" points="2633.63,-143.08 2643.45,-139.11 2633.3,-136.09 2633.63,-143.08"/>
</g>
<!-- Node43&#45;&gt;Node9 -->
<g id="edge112" class="edge">
<title>Node43&#45;&gt;Node9</title>
<path fill="none" stroke="#63b8ff" d="M1444.82,-510.64C1346.48,-504.51 1177.58,-491.04 1159,-470 1150.18,-460 1157.2,-453.21 1159,-440 1163.01,-410.6 1176.71,-402.65 1169,-374 1166.46,-364.57 1161.66,-355.08 1156.68,-346.94"/>
<polygon fill="#63b8ff" stroke="#63b8ff" points="1159.5,-344.85 1151.1,-338.4 1153.64,-348.68 1159.5,-344.85"/>
</g>
<!-- Node43&#45;&gt;Node12 -->
<g id="edge116" class="edge">
<title>Node43&#45;&gt;Node12</title>
<path fill="none" stroke="#63b8ff" d="M1463.67,-505.98C1442.75,-499.7 1420.56,-488.83 1408,-470 1404.79,-465.19 1408.54,-414.85 1411,-374 1416,-290.81 1405.09,-267.93 1425,-187 1425.95,-183.12 1478.76,-57.33 1482,-55 1520.29,-27.45 1836.73,-15.45 1960.06,-11.79"/>
<polygon fill="#63b8ff" stroke="#63b8ff" points="1960.44,-15.29 1970.34,-11.5 1960.24,-8.29 1960.44,-15.29"/>
</g>
<!-- Node43&#45;&gt;Node14 -->
<g id="edge115" class="edge">
<title>Node43&#45;&gt;Node14</title>
<path fill="none" stroke="#63b8ff" d="M1520.31,-505.84C1539.6,-475.02 1609.13,-369.2 1691,-308 1880.75,-166.15 2162.96,-103.54 2290.77,-81.27"/>
<polygon fill="#63b8ff" stroke="#63b8ff" points="2291.55,-84.69 2300.81,-79.55 2290.37,-77.79 2291.55,-84.69"/>
</g>
<!-- Node43&#45;&gt;Node18 -->
<g id="edge113" class="edge">
<title>Node43&#45;&gt;Node18</title>
<path fill="none" stroke="#63b8ff" d="M1444.96,-513.18C1402.65,-509.2 1349.62,-498.25 1311,-470 1250.76,-425.93 1248.65,-324.52 1250.6,-282.39"/>
<polygon fill="#63b8ff" stroke="#63b8ff" points="1254.11,-282.36 1251.21,-272.17 1247.12,-281.95 1254.11,-282.36"/>
</g>
<!-- Node43&#45;&gt;Node25 -->
<g id="edge117" class="edge">
<title>Node43&#45;&gt;Node25</title>
<path fill="none" stroke="#63b8ff" d="M1476.99,-505.85C1457.88,-499.37 1436.4,-488.36 1425,-470 1402.49,-433.76 1411.15,-414.36 1425,-374 1431.58,-354.83 1442.58,-355.38 1453,-338 1505.93,-249.73 1549.68,-133.74 1565.58,-89.36"/>
<polygon fill="#63b8ff" stroke="#63b8ff" points="1568.97,-90.27 1569.01,-79.67 1562.37,-87.93 1568.97,-90.27"/>
</g>
<!-- Node43&#45;&gt;Node28 -->
<g id="edge111" class="edge">
<title>Node43&#45;&gt;Node28</title>
<path fill="none" stroke="#63b8ff" d="M1585.11,-506.62C1663.19,-497.81 1793.15,-483.07 1905,-470 1918.65,-468.4 1933.2,-466.68 1947.23,-465.01"/>
<polygon fill="#63b8ff" stroke="#63b8ff" points="1947.82,-468.46 1957.33,-463.8 1946.99,-461.51 1947.82,-468.46"/>
</g>
<!-- Node43&#45;&gt;Node30 -->
<g id="edge114" class="edge">
<title>Node43&#45;&gt;Node30</title>
<path fill="none" stroke="#63b8ff" d="M1585.11,-508.24C1594.49,-507.45 1603.97,-506.69 1613,-506 1857.7,-487.4 1921.65,-508.64 2164,-470 2217.01,-461.55 2227.98,-448.39 2281,-440 2533.04,-400.13 2600.22,-430.62 2854,-404 2864.43,-402.91 2875.47,-401.5 2886.19,-400.01"/>
<polygon fill="#63b8ff" stroke="#63b8ff" points="2886.93,-403.44 2896.34,-398.56 2885.94,-396.51 2886.93,-403.44"/>
</g>
<!-- Node43&#45;&gt;Node36 -->
<g id="edge109" class="edge">
<title>Node43&#45;&gt;Node36</title>
<path fill="none" stroke="#63b8ff" d="M1585.12,-508.31C1594.49,-507.52 1603.98,-506.73 1613,-506 1827.57,-488.7 1883.9,-506.73 2096,-470 2145.51,-461.43 2155.53,-448.81 2205,-440 2400.48,-405.18 2636.59,-394.47 2742.64,-391.29"/>
<polygon fill="#63b8ff" stroke="#63b8ff" points="2742.9,-394.78 2752.79,-390.99 2742.69,-387.78 2742.9,-394.78"/>
</g>
<!-- Node44&#45;&gt;Node4 -->
<g id="edge121" class="edge">
<title>Node44&#45;&gt;Node4</title>
<path fill="none" stroke="#63b8ff" d="M1814.69,-505.92C1795.29,-499.48 1773.59,-488.49 1762,-470 1754.92,-458.7 1754.31,-450.89 1762,-440 1786.28,-405.63 2435.52,-198.52 2476,-187 2534.04,-170.48 2601.64,-156.38 2648.47,-147.41"/>
<polygon fill="#63b8ff" stroke="#63b8ff" points="2649.26,-150.82 2658.43,-145.52 2647.96,-143.94 2649.26,-150.82"/>
</g>
<!-- Node44&#45;&gt;Node12 -->
<g id="edge126" class="edge">
<title>Node44&#45;&gt;Node12</title>
<path fill="none" stroke="#63b8ff" d="M1798.29,-506C1777.01,-499.74 1754.81,-488.87 1742,-470 1734.51,-458.97 1739.91,-453.17 1742,-440 1759.32,-330.61 1819,-313.75 1819,-203 1819,-203 1819,-203 1819,-135 1819,-92.59 1837.32,-80.77 1871,-55 1896.91,-35.18 1931.95,-24.02 1960.23,-17.83"/>
<polygon fill="#63b8ff" stroke="#63b8ff" points="1961.22,-21.2 1970.32,-15.77 1959.82,-14.35 1961.22,-21.2"/>
</g>
<!-- Node44&#45;&gt;Node14 -->
<g id="edge125" class="edge">
<title>Node44&#45;&gt;Node14</title>
<path fill="none" stroke="#63b8ff" d="M1806.86,-505.95C1786.37,-499.64 1764.28,-488.75 1752,-470 1744.7,-458.85 1745.75,-451.78 1752,-440 1870.97,-215.88 2190.86,-113.52 2311.29,-82.08"/>
<polygon fill="#63b8ff" stroke="#63b8ff" points="2312.48,-85.39 2321.3,-79.51 2310.74,-78.61 2312.48,-85.39"/>
</g>
<!-- Node44&#45;&gt;Node18 -->
<g id="edge123" class="edge">
<title>Node44&#45;&gt;Node18</title>
<path fill="none" stroke="#63b8ff" d="M1796.19,-505.96C1736.47,-496.74 1647.54,-481.8 1615,-470 1502.38,-429.16 1483.99,-397.46 1380,-338 1343.22,-316.97 1300.76,-292.15 1275.17,-277.13"/>
<polygon fill="#63b8ff" stroke="#63b8ff" points="1276.94,-274.11 1266.55,-272.06 1273.4,-280.15 1276.94,-274.11"/>
</g>
<!-- Node44&#45;&gt;Node25 -->
<g id="edge127" class="edge">
<title>Node44&#45;&gt;Node25</title>
<path fill="none" stroke="#63b8ff" d="M1782.34,-506.9C1732.17,-500.1 1671,-488.32 1653,-470 1598.68,-414.72 1577.99,-161.37 1573.17,-89.85"/>
<polygon fill="#63b8ff" stroke="#63b8ff" points="1576.65,-89.41 1572.51,-79.66 1569.66,-89.87 1576.65,-89.41"/>
</g>
<!-- Node44&#45;&gt;Node28 -->
<g id="edge122" class="edge">
<title>Node44&#45;&gt;Node28</title>
<path fill="none" stroke="#63b8ff" d="M1878.43,-505.99C1902.82,-497.5 1941.01,-484.2 1971.87,-473.45"/>
<polygon fill="#63b8ff" stroke="#63b8ff" points="1973.32,-476.66 1981.61,-470.06 1971.02,-470.05 1973.32,-476.66"/>
</g>
<!-- Node44&#45;&gt;Node29 -->
<g id="edge119" class="edge">
<title>Node44&#45;&gt;Node29</title>
<path fill="none" stroke="#63b8ff" d="M1925.68,-508.61C1989.65,-502.33 2085.55,-490.43 2167,-470 2230.51,-454.07 2301.2,-426.33 2344.64,-408.06"/>
<polygon fill="#63b8ff" stroke="#63b8ff" points="2346.17,-411.22 2354.01,-404.09 2343.44,-404.77 2346.17,-411.22"/>
</g>
<!-- Node44&#45;&gt;Node30 -->
<g id="edge124" class="edge">
<title>Node44&#45;&gt;Node30</title>
<path fill="none" stroke="#63b8ff" d="M1925.75,-514.71C2062.29,-514.14 2368.6,-508.25 2623,-470 2729.23,-454.03 2851.5,-419.58 2911.64,-401.54"/>
<polygon fill="#63b8ff" stroke="#63b8ff" points="2912.87,-404.83 2921.43,-398.58 2910.85,-398.12 2912.87,-404.83"/>
</g>
<!-- Node44&#45;&gt;Node36 -->
<g id="edge120" class="edge">
<title>Node44&#45;&gt;Node36</title>
<path fill="none" stroke="#63b8ff" d="M1925.71,-506.34C2000.67,-497.72 2121.66,-483.52 2226,-470 2415.72,-445.41 2640.3,-413.13 2742.86,-398.21"/>
<polygon fill="#63b8ff" stroke="#63b8ff" points="2743.6,-401.64 2752.99,-396.74 2742.59,-394.71 2743.6,-401.64"/>
</g>
<!-- Node45&#45;&gt;Node4 -->
<g id="edge132" class="edge">
<title>Node45&#45;&gt;Node4</title>
<path fill="none" stroke="#63b8ff" d="M3283.99,-445.46C3251.74,-436.97 3202.99,-422.55 3163,-404 3140.18,-393.41 3137.01,-386.18 3115,-374 3024.21,-323.77 2994.83,-323.93 2905,-272 2836.65,-232.49 2760.69,-177.69 2725.66,-151.74"/>
<polygon fill="#63b8ff" stroke="#63b8ff" points="2727.4,-148.67 2717.29,-145.51 2723.22,-154.29 2727.4,-148.67"/>
</g>
<!-- Node45&#45;&gt;Node12 -->
<g id="edge133" class="edge">
<title>Node45&#45;&gt;Node12</title>
<path fill="none" stroke="#63b8ff" d="M3316.26,-445.06C3312.09,-430.2 3305.14,-399.54 3310,-374 3326.37,-287.98 3416.3,-262.53 3372,-187 3297.9,-60.64 3213.76,-83.12 3070,-55 2970.12,-35.46 2253.17,-16.52 2057.96,-11.68"/>
<polygon fill="#63b8ff" stroke="#63b8ff" points="2057.81,-8.18 2047.73,-11.43 2057.64,-15.18 2057.81,-8.18"/>
</g>
<!-- Node45&#45;&gt;Node14 -->
<g id="edge130" class="edge">
<title>Node45&#45;&gt;Node14</title>
<path fill="none" stroke="#63b8ff" d="M3308.32,-445.16C3296.78,-435.44 3278.03,-419.2 3263,-404 3145.62,-285.29 3165.72,-194.85 3016,-121 2902.57,-65.05 2573.73,-98.73 2448,-85 2438.1,-83.92 2427.62,-82.52 2417.44,-81.03"/>
<polygon fill="#63b8ff" stroke="#63b8ff" points="2417.82,-77.55 2407.41,-79.51 2416.77,-84.47 2417.82,-77.55"/>
</g>
<!-- Node45&#45;&gt;Node15 -->
<g id="edge134" class="edge">
<title>Node45&#45;&gt;Node15</title>
<path fill="none" stroke="#63b8ff" d="M3308.83,-445.17C3298.95,-435.96 3284.39,-420.57 3277,-404 3225.26,-287.99 3330.66,-206.81 3237,-121 3181.38,-70.04 2633.85,-94.42 2559,-85 2550.07,-83.88 2540.56,-82.26 2531.54,-80.53"/>
<polygon fill="#63b8ff" stroke="#63b8ff" points="2532.1,-77.07 2521.6,-78.54 2530.72,-83.93 2532.1,-77.07"/>
</g>
<!-- Node45&#45;&gt;Node16 -->
<g id="edge136" class="edge">
<title>Node45&#45;&gt;Node16</title>
<path fill="none" stroke="#63b8ff" d="M3303.31,-445.34C3285.62,-435.53 3256.06,-418.94 3231,-404 3027.09,-282.45 3005.43,-189.06 2778,-121 2612.64,-71.51 1397.51,-90.54 1225,-85 1112.43,-81.38 979.02,-75.42 917.79,-72.59"/>
<polygon fill="#63b8ff" stroke="#63b8ff" points="917.71,-69.08 907.56,-72.11 917.39,-76.07 917.71,-69.08"/>
</g>
<!-- Node45&#45;&gt;Node17 -->
<g id="edge135" class="edge">
<title>Node45&#45;&gt;Node17</title>
<path fill="none" stroke="#63b8ff" d="M3275.45,-445.43C3233.76,-436.74 3169.34,-422.01 3115,-404 3082.48,-393.22 3076.8,-383.9 3044,-374 2766.02,-290.13 2689.62,-292.76 2402,-253 2147.39,-217.8 1326.53,-154.61 1134.47,-140.05"/>
<polygon fill="#63b8ff" stroke="#63b8ff" points="1134.49,-136.54 1124.25,-139.28 1133.96,-143.52 1134.49,-136.54"/>
</g>
<!-- Node45&#45;&gt;Node27 -->
<g id="edge131" class="edge">
<title>Node45&#45;&gt;Node27</title>
<path fill="none" stroke="#63b8ff" d="M3329.65,-445.37C3342.38,-435.06 3363.88,-417.65 3379.37,-405.09"/>
<polygon fill="#63b8ff" stroke="#63b8ff" points="3381.7,-407.71 3387.26,-398.7 3377.29,-402.27 3381.7,-407.71"/>
</g>
<!-- Node45&#45;&gt;Node36 -->
<g id="edge129" class="edge">
<title>Node45&#45;&gt;Node36</title>
<path fill="none" stroke="#63b8ff" d="M3244.62,-449.15C3152.61,-442.43 2991.4,-428.28 2855,-404 2850.01,-403.11 2844.81,-402.03 2839.67,-400.86"/>
<polygon fill="#63b8ff" stroke="#63b8ff" points="2840.48,-397.46 2829.94,-398.54 2838.85,-404.27 2840.48,-397.46"/>
</g>
<!-- Node48&#45;&gt;Node4 -->
<g id="edge139" class="edge">
<title>Node48&#45;&gt;Node4</title>
<path fill="none" stroke="#63b8ff" d="M3342.78,-505.99C3380.88,-497.4 3434.32,-483.51 3451,-470 3486.41,-441.32 3514.43,-410.39 3487,-374 3462.23,-341.14 3168.72,-288.43 3131,-272 3063.91,-242.78 3058.52,-212.67 2990,-187 2921.01,-161.16 2837.48,-148.5 2778.94,-142.41"/>
<polygon fill="#63b8ff" stroke="#63b8ff" points="2778.97,-138.9 2768.67,-141.39 2778.27,-145.87 2778.97,-138.9"/>
</g>
<!-- Node48&#45;&gt;Node12 -->
<g id="edge144" class="edge">
<title>Node48&#45;&gt;Node12</title>
<path fill="none" stroke="#63b8ff" d="M3358.54,-513.54C3539.74,-510.2 4095.76,-497.7 4122,-470 4131.17,-460.32 4124.2,-453.15 4122,-440 4112.99,-386.22 4082,-378.53 4082,-324 4082,-324 4082,-324 4082,-135 4082,-1.73 3924.83,-74.59 3793,-55 3704.93,-41.91 2336.05,-16.44 2058.04,-11.38"/>
<polygon fill="#63b8ff" stroke="#63b8ff" points="2057.92,-7.88 2047.86,-11.2 2057.79,-14.88 2057.92,-7.88"/>
</g>
<!-- Node48&#45;&gt;Node14 -->
<g id="edge143" class="edge">
<title>Node48&#45;&gt;Node14</title>
<path fill="none" stroke="#63b8ff" d="M3358.71,-514.42C3497.77,-513.64 3846.92,-507.88 3882,-470 3891.06,-460.22 3887.79,-452.01 3882,-440 3796.5,-262.77 3286.09,-121.71 3283,-121 3101.97,-79.49 2632.82,-103.3 2448,-85 2437.74,-83.98 2426.88,-82.58 2416.38,-81.05"/>
<polygon fill="#63b8ff" stroke="#63b8ff" points="2416.86,-77.58 2406.45,-79.55 2415.82,-84.5 2416.86,-77.58"/>
</g>
<!-- Node48&#45;&gt;Node25 -->
<g id="edge145" class="edge">
<title>Node48&#45;&gt;Node25</title>
<path fill="none" stroke="#63b8ff" d="M3358.6,-506.11C3403.63,-498.41 3461.98,-485.81 3480,-470 3513.23,-440.84 3530.09,-411.06 3506,-374 3331.84,-106.08 3149.06,-168.09 2833,-121 2585.04,-84.06 1772.75,-73.21 1603.19,-71.32"/>
<polygon fill="#63b8ff" stroke="#63b8ff" points="1603.22,-67.82 1593.18,-71.21 1603.14,-74.82 1603.22,-67.82"/>
</g>
<!-- Node48&#45;&gt;Node27 -->
<g id="edge142" class="edge">
<title>Node48&#45;&gt;Node27</title>
<path fill="none" stroke="#63b8ff" d="M3344.32,-505.95C3379.03,-497.97 3424.15,-485.07 3435,-470 3449.6,-449.72 3430.52,-422.77 3414.79,-405.9"/>
<polygon fill="#63b8ff" stroke="#63b8ff" points="3417.01,-403.17 3407.5,-398.51 3412.03,-408.08 3417.01,-403.17"/>
</g>
<!-- Node48&#45;&gt;Node28 -->
<g id="edge140" class="edge">
<title>Node48&#45;&gt;Node28</title>
<path fill="none" stroke="#63b8ff" d="M3245.35,-511.91C3039.28,-502.49 2329.49,-470.05 2096.64,-459.41"/>
<polygon fill="#63b8ff" stroke="#63b8ff" points="2096.72,-455.91 2086.57,-458.95 2096.4,-462.9 2096.72,-455.91"/>
</g>
<!-- Node48&#45;&gt;Node30 -->
<g id="edge141" class="edge">
<title>Node48&#45;&gt;Node30</title>
<path fill="none" stroke="#63b8ff" d="M3287.9,-505.95C3262.27,-490.74 3206,-458.82 3155,-440 3106.68,-422.16 3049.62,-408.89 3007.82,-400.51"/>
<polygon fill="#63b8ff" stroke="#63b8ff" points="3008.29,-397.04 2997.81,-398.54 3006.94,-403.91 3008.29,-397.04"/>
</g>
<!-- Node48&#45;&gt;Node36 -->
<g id="edge138" class="edge">
<title>Node48&#45;&gt;Node36</title>
<path fill="none" stroke="#63b8ff" d="M3267.22,-505.93C3192,-487.41 3008.61,-442.19 2855,-404 2851.12,-403.03 2847.08,-402.03 2843.04,-401.02"/>
<polygon fill="#63b8ff" stroke="#63b8ff" points="2843.6,-397.55 2833.05,-398.53 2841.91,-404.35 2843.6,-397.55"/>
</g>
<!-- Node56&#45;&gt;Node4 -->
<g id="edge148" class="edge">
<title>Node56&#45;&gt;Node4</title>
<path fill="none" stroke="#63b8ff" d="M2350.25,-560.86C2394.81,-507.77 2631.61,-225.64 2691.98,-153.7"/>
<polygon fill="#63b8ff" stroke="#63b8ff" points="2694.98,-155.57 2698.73,-145.66 2689.62,-151.07 2694.98,-155.57"/>
</g>
<!-- Node56&#45;&gt;Node12 -->
<g id="edge155" class="edge">
<title>Node56&#45;&gt;Node12</title>
<path fill="none" stroke="#63b8ff" d="M2336.86,-560.9C2303.74,-514.28 2144,-286.43 2040,-85 2030.48,-66.57 2021.61,-44.54 2015.81,-29.23"/>
<polygon fill="#63b8ff" stroke="#63b8ff" points="2018.93,-27.59 2012.17,-19.43 2012.37,-30.02 2018.93,-27.59"/>
</g>
<!-- Node56&#45;&gt;Node25 -->
<g id="edge156" class="edge">
<title>Node56&#45;&gt;Node25</title>
<path fill="none" stroke="#63b8ff" d="M2296.87,-570.19C2216.86,-568.97 2051.16,-555.41 1949,-470 1858.66,-394.47 1874.33,-341.8 1797,-253 1740.41,-188.02 1723.83,-172.84 1655,-121 1636.8,-107.29 1614.63,-94.1 1597.78,-84.71"/>
<polygon fill="#63b8ff" stroke="#63b8ff" points="1599,-81.38 1588.55,-79.64 1595.63,-87.52 1599,-81.38"/>
</g>
<!-- Node56&#45;&gt;Node28 -->
<g id="edge149" class="edge">
<title>Node56&#45;&gt;Node28</title>
<path fill="none" stroke="#63b8ff" d="M2296.6,-568.22C2246.16,-565.22 2164.28,-555.56 2101,-525 2077.54,-513.67 2055.63,-493.46 2040.86,-477.82"/>
<polygon fill="#63b8ff" stroke="#63b8ff" points="2043.16,-475.15 2033.82,-470.14 2038,-479.88 2043.16,-475.15"/>
</g>
<!-- Node56&#45;&gt;Node29 -->
<g id="edge147" class="edge">
<title>Node56&#45;&gt;Node29</title>
<path fill="none" stroke="#63b8ff" d="M2344.05,-560.89C2346.72,-539.94 2354.48,-484.7 2367,-440 2369.46,-431.23 2372.82,-421.84 2376.04,-413.59"/>
<polygon fill="#63b8ff" stroke="#63b8ff" points="2379.32,-414.79 2379.81,-404.21 2372.83,-412.18 2379.32,-414.79"/>
</g>
<!-- Node56&#45;&gt;Node41 -->
<g id="edge150" class="edge">
<title>Node56&#45;&gt;Node41</title>
<path fill="none" stroke="#63b8ff" d="M2389.22,-563.05C2456.23,-553.71 2580.7,-536.35 2657.25,-525.67"/>
<polygon fill="#63b8ff" stroke="#63b8ff" points="2657.84,-529.12 2667.26,-524.27 2656.88,-522.19 2657.84,-529.12"/>
</g>
<!-- Node56&#45;&gt;Node43 -->
<g id="edge151" class="edge">
<title>Node56&#45;&gt;Node43</title>
<path fill="none" stroke="#63b8ff" d="M2296.85,-567.1C2181.5,-561.01 1871.32,-544.07 1613,-525 1607.22,-524.57 1601.24,-524.11 1595.23,-523.63"/>
<polygon fill="#63b8ff" stroke="#63b8ff" points="1595.36,-520.13 1585.11,-522.8 1594.79,-527.1 1595.36,-520.13"/>
</g>
<!-- Node56&#45;&gt;Node44 -->
<g id="edge152" class="edge">
<title>Node56&#45;&gt;Node44</title>
<path fill="none" stroke="#63b8ff" d="M2297,-564.51C2214.28,-555.55 2039.42,-536.6 1935.85,-525.37"/>
<polygon fill="#63b8ff" stroke="#63b8ff" points="1936.06,-521.87 1925.74,-524.28 1935.31,-528.83 1936.06,-521.87"/>
</g>
<!-- Node56&#45;&gt;Node45 -->
<g id="edge153" class="edge">
<title>Node56&#45;&gt;Node45</title>
<path fill="none" stroke="#63b8ff" d="M2389.18,-567.92C2527.41,-562.98 2936.45,-546.88 3068,-525 3147.08,-511.85 3237.08,-483.8 3284.9,-467.8"/>
<polygon fill="#63b8ff" stroke="#63b8ff" points="3286.09,-471.1 3294.44,-464.59 3283.85,-464.46 3286.09,-471.1"/>
</g>
<!-- Node56&#45;&gt;Node48 -->
<g id="edge154" class="edge">
<title>Node56&#45;&gt;Node48</title>
<path fill="none" stroke="#63b8ff" d="M2389.09,-567.5C2516.85,-561.87 2886.29,-544.98 3193,-525 3206.72,-524.11 3221.4,-523.04 3235.4,-521.97"/>
<polygon fill="#63b8ff" stroke="#63b8ff" points="3235.75,-525.45 3245.45,-521.19 3235.21,-518.47 3235.75,-525.45"/>
</g>
<!-- Node57&#45;&gt;Node4 -->
<g id="edge159" class="edge">
<title>Node57&#45;&gt;Node4</title>
<path fill="none" stroke="#63b8ff" d="M903.57,-505.86C901.58,-491.57 899.15,-462.39 908,-440 940.15,-358.64 972.6,-340.03 1054,-308 1068.05,-302.47 2118.98,-188.5 2134,-187 2313.21,-169.13 2524.37,-151.58 2633.12,-142.8"/>
<polygon fill="#63b8ff" stroke="#63b8ff" points="2633.63,-146.27 2643.32,-141.98 2633.07,-139.29 2633.63,-146.27"/>
</g>
<!-- Node57&#45;&gt;Node9 -->
<g id="edge161" class="edge">
<title>Node57&#45;&gt;Node9</title>
<path fill="none" stroke="#63b8ff" d="M908.51,-505.85C918.82,-481.49 951.37,-411.71 1000,-374 1019.01,-359.26 1042.73,-348.63 1065.21,-341.06"/>
<polygon fill="#63b8ff" stroke="#63b8ff" points="1066.3,-344.39 1074.75,-338.01 1064.16,-337.72 1066.3,-344.39"/>
</g>
<!-- Node57&#45;&gt;Node12 -->
<g id="edge165" class="edge">
<title>Node57&#45;&gt;Node12</title>
<path fill="none" stroke="#63b8ff" d="M845.23,-509.83C639.04,-491.13 -21.52,-408.13 133,-121 158.24,-74.11 182.19,-70.95 233,-55 317.57,-28.45 1682.79,-13.7 1960.09,-10.96"/>
<polygon fill="#63b8ff" stroke="#63b8ff" points="1960.27,-14.46 1970.24,-10.87 1960.21,-7.46 1960.27,-14.46"/>
</g>
<!-- Node57&#45;&gt;Node14 -->
<g id="edge164" class="edge">
<title>Node57&#45;&gt;Node14</title>
<path fill="none" stroke="#63b8ff" d="M902.51,-505.74C898.89,-491.76 893.01,-463.6 897,-440 916.63,-324.02 1032.26,-135.24 1055,-121 1081.11,-104.65 2005.1,-79.95 2280.99,-72.92"/>
<polygon fill="#63b8ff" stroke="#63b8ff" points="2281.4,-76.42 2291.31,-72.66 2281.22,-69.42 2281.4,-76.42"/>
</g>
<!-- Node57&#45;&gt;Node18 -->
<g id="edge162" class="edge">
<title>Node57&#45;&gt;Node18</title>
<path fill="none" stroke="#63b8ff" d="M905.96,-505.93C907.76,-491.75 912.37,-462.72 922,-440 935.66,-407.77 941.01,-399.49 965,-374 998.75,-338.14 1009.23,-328.51 1054,-308 1090.74,-291.17 1134.32,-280.48 1171.22,-273.82"/>
<polygon fill="#63b8ff" stroke="#63b8ff" points="1172.18,-277.2 1181.44,-272.05 1170.99,-270.31 1172.18,-277.2"/>
</g>
<!-- Node57&#45;&gt;Node25 -->
<g id="edge166" class="edge">
<title>Node57&#45;&gt;Node25</title>
<path fill="none" stroke="#63b8ff" d="M845.22,-508.86C819.86,-503.17 792.61,-491.95 777,-470 735.27,-411.31 746.8,-371.9 780,-308 842.67,-187.38 895.48,-170.69 1022,-121 1046.32,-111.45 1427.95,-81.91 1540.8,-73.35"/>
<polygon fill="#63b8ff" stroke="#63b8ff" points="1541.16,-76.83 1550.86,-72.59 1540.63,-69.85 1541.16,-76.83"/>
</g>
<!-- Node57&#45;&gt;Node28 -->
<g id="edge160" class="edge">
<title>Node57&#45;&gt;Node28</title>
<path fill="none" stroke="#63b8ff" d="M964.82,-511.9C1176.89,-502.67 1881.47,-471.93 1905,-470 1918.7,-468.88 1933.27,-467.38 1947.31,-465.78"/>
<polygon fill="#63b8ff" stroke="#63b8ff" points="1947.88,-469.24 1957.41,-464.6 1947.07,-462.28 1947.88,-469.24"/>
</g>
<!-- Node57&#45;&gt;Node29 -->
<g id="edge158" class="edge">
<title>Node57&#45;&gt;Node29</title>
<path fill="none" stroke="#63b8ff" d="M964.73,-509.17C1104.26,-496.74 1462.48,-465.02 1762,-440 1950.43,-424.26 2170.96,-406.82 2292.92,-397.26"/>
<polygon fill="#63b8ff" stroke="#63b8ff" points="2293.27,-400.74 2302.97,-396.47 2292.72,-393.77 2293.27,-400.74"/>
</g>
<!-- Node57&#45;&gt;Node30 -->
<g id="edge163" class="edge">
<title>Node57&#45;&gt;Node30</title>
<path fill="none" stroke="#63b8ff" d="M964.71,-511.88C1173.79,-502.69 1860.85,-472.36 1872,-470 1907.93,-462.39 1913.05,-447.5 1949,-440 2146.03,-398.9 2653.6,-422.7 2854,-404 2864.93,-402.98 2876.52,-401.56 2887.71,-400.01"/>
<polygon fill="#63b8ff" stroke="#63b8ff" points="2888.44,-403.44 2897.85,-398.56 2887.45,-396.51 2888.44,-403.44"/>
</g>
<!-- Node58&#45;&gt;Node4 -->
<g id="edge169" class="edge">
<title>Node58&#45;&gt;Node4</title>
<path fill="none" stroke="#63b8ff" d="M4059.06,-445.45C4005.81,-421.62 3849.87,-353.19 3716,-308 3523.43,-242.99 3475.04,-222.93 3275,-187 3098.66,-155.33 2887.81,-143.46 2779,-139.21"/>
<polygon fill="#63b8ff" stroke="#63b8ff" points="2778.92,-135.71 2768.79,-138.83 2778.65,-142.7 2778.92,-135.71"/>
</g>
<!-- Node58&#45;&gt;Node12 -->
<g id="edge172" class="edge">
<title>Node58&#45;&gt;Node12</title>
<path fill="none" stroke="#63b8ff" d="M4082.82,-445.48C4093.85,-425.15 4120,-371.91 4120,-324 4120,-324 4120,-324 4120,-135 4120,-97.88 4125.54,-77.47 4096,-55 4085.52,-47.03 2371.06,-16.8 2057.83,-11.35"/>
<polygon fill="#63b8ff" stroke="#63b8ff" points="2057.76,-7.85 2047.7,-11.17 2057.64,-14.84 2057.76,-7.85"/>
</g>
<!-- Node58&#45;&gt;Node14 -->
<g id="edge171" class="edge">
<title>Node58&#45;&gt;Node14</title>
<path fill="none" stroke="#63b8ff" d="M4069.33,-445.21C4045.16,-421.04 3974.3,-352.42 3906,-308 3801.78,-240.21 3503.21,-129.12 3465,-121 3243.8,-73.96 2673.13,-106.42 2448,-85 2437.62,-84.01 2426.62,-82.61 2416,-81.06"/>
<polygon fill="#63b8ff" stroke="#63b8ff" points="2416.39,-77.58 2405.98,-79.54 2415.34,-84.5 2416.39,-77.58"/>
</g>
<!-- Node58&#45;&gt;Node15 -->
<g id="edge173" class="edge">
<title>Node58&#45;&gt;Node15</title>
<path fill="none" stroke="#63b8ff" d="M4076.25,-445.42C4070.11,-416.55 4047.59,-320.98 4006,-253 3961.71,-180.6 3947.09,-151.79 3868,-121 3732.42,-68.21 2703.58,-101.33 2559,-85 2550.05,-83.99 2540.54,-82.43 2531.52,-80.7"/>
<polygon fill="#63b8ff" stroke="#63b8ff" points="2532.07,-77.24 2521.58,-78.71 2530.7,-84.11 2532.07,-77.24"/>
</g>
<!-- Node58&#45;&gt;Node29 -->
<g id="edge168" class="edge">
<title>Node58&#45;&gt;Node29</title>
<path fill="none" stroke="#63b8ff" d="M4042.97,-451.08C4003.78,-447.9 3938.38,-442.9 3882,-440 3376.64,-413.97 3249.71,-421.89 2744,-404 2654.24,-400.83 2551.84,-396.78 2479.61,-393.85"/>
<polygon fill="#63b8ff" stroke="#63b8ff" points="2479.32,-390.34 2469.18,-393.43 2479.03,-397.33 2479.32,-390.34"/>
</g>
<!-- Node58&#45;&gt;Node30 -->
<g id="edge170" class="edge">
<title>Node58&#45;&gt;Node30</title>
<path fill="none" stroke="#63b8ff" d="M4042.96,-451.31C4003.76,-448.34 3938.35,-443.52 3882,-440 3576.19,-420.89 3213.71,-402.76 3044.69,-394.57"/>
<polygon fill="#63b8ff" stroke="#63b8ff" points="3044.73,-391.06 3034.57,-394.08 3044.39,-398.06 3044.73,-391.06"/>
</g>
<!-- Node59&#45;&gt;Node4 -->
<g id="edge176" class="edge">
<title>Node59&#45;&gt;Node4</title>
<path fill="none" stroke="#63b8ff" d="M3602.72,-445.34C3581.27,-429.23 3532.66,-394.46 3487,-374 3337.59,-307.04 3286.94,-327.79 3133,-272 3044.88,-240.06 3029.18,-215.83 2940,-187 2884.21,-168.96 2818.81,-155.62 2771.35,-147.27"/>
<polygon fill="#63b8ff" stroke="#63b8ff" points="2771.66,-143.77 2761.21,-145.51 2770.46,-150.67 2771.66,-143.77"/>
</g>
<!-- Node59&#45;&gt;Node12 -->
<g id="edge178" class="edge">
<title>Node59&#45;&gt;Node12</title>
<path fill="none" stroke="#63b8ff" d="M3625.18,-445.47C3656.02,-420.9 3740,-346.37 3740,-263.5 3740,-263.5 3740,-263.5 3740,-135 3740,-64.49 3670.8,-74.37 3603,-55 3564.93,-44.13 2321.44,-17.14 2057.81,-11.53"/>
<polygon fill="#63b8ff" stroke="#63b8ff" points="2057.84,-8.03 2047.77,-11.32 2057.7,-15.03 2057.84,-8.03"/>
</g>
<!-- Node59&#45;&gt;Node15 -->
<g id="edge179" class="edge">
<title>Node59&#45;&gt;Node15</title>
<path fill="none" stroke="#63b8ff" d="M3613.26,-445.33C3610.75,-420.89 3600.56,-350.42 3564,-308 3466.06,-194.37 3425.47,-167.97 3283,-121 3130.01,-70.57 2718.86,-104.85 2559,-85 2550.06,-83.89 2540.56,-82.28 2531.53,-80.55"/>
<polygon fill="#63b8ff" stroke="#63b8ff" points="2532.09,-77.09 2521.6,-78.56 2530.72,-83.96 2532.09,-77.09"/>
</g>
<!-- Node59&#45;&gt;Node29 -->
<g id="edge175" class="edge">
<title>Node59&#45;&gt;Node29</title>
<path fill="none" stroke="#63b8ff" d="M3562.61,-450.36C3519.68,-447.39 3456.87,-443.16 3402,-440 3062.36,-420.43 2658.58,-402 2479.5,-394.08"/>
<polygon fill="#63b8ff" stroke="#63b8ff" points="2479.47,-390.57 2469.33,-393.63 2479.16,-397.57 2479.47,-390.57"/>
</g>
<!-- Node59&#45;&gt;Node30 -->
<g id="edge177" class="edge">
<title>Node59&#45;&gt;Node30</title>
<path fill="none" stroke="#63b8ff" d="M3562.92,-449.08C3451.99,-438.41 3187.54,-412.96 3044.61,-399.2"/>
<polygon fill="#63b8ff" stroke="#63b8ff" points="3044.82,-395.71 3034.53,-398.23 3044.15,-402.67 3044.82,-395.71"/>
</g>
<!-- Node60&#45;&gt;Node4 -->
<g id="edge183" class="edge">
<title>Node60&#45;&gt;Node4</title>
<path fill="none" stroke="#63b8ff" d="M2547.77,-505.91C2586.31,-482.25 2687,-412.03 2687,-324 2687,-324 2687,-324 2687,-261.5 2687,-223.56 2695.73,-179.85 2701.35,-155.63"/>
<polygon fill="#63b8ff" stroke="#63b8ff" points="2704.81,-156.23 2703.75,-145.69 2698,-154.59 2704.81,-156.23"/>
</g>
<!-- Node60&#45;&gt;Node12 -->
<g id="edge186" class="edge">
<title>Node60&#45;&gt;Node12</title>
<path fill="none" stroke="#63b8ff" d="M2532.21,-505.76C2529.52,-481.19 2518.46,-410.88 2478,-374 2435.27,-335.06 2403.15,-366.76 2353,-338 2200.17,-250.37 2062.85,-80.91 2021.59,-27.24"/>
<polygon fill="#63b8ff" stroke="#63b8ff" points="2024.25,-24.95 2015.4,-19.12 2018.68,-29.2 2024.25,-24.95"/>
</g>
<!-- Node60&#45;&gt;Node15 -->
<g id="edge187" class="edge">
<title>Node60&#45;&gt;Node15</title>
<path fill="none" stroke="#63b8ff" d="M2534.45,-505.99C2538.02,-482.01 2544.64,-413.13 2511,-374 2476.36,-333.71 2441.75,-366.65 2397,-338 2363.61,-316.63 2351.3,-308.98 2337,-272 2305.74,-191.13 2413.95,-115.02 2464.45,-84.76"/>
<polygon fill="#63b8ff" stroke="#63b8ff" points="2466.3,-87.73 2473.15,-79.65 2462.76,-81.69 2466.3,-87.73"/>
</g>
<!-- Node60&#45;&gt;Node28 -->
<g id="edge184" class="edge">
<title>Node60&#45;&gt;Node28</title>
<path fill="none" stroke="#63b8ff" d="M2458.7,-505.99C2361.92,-494.91 2193.68,-475.65 2096.7,-464.55"/>
<polygon fill="#63b8ff" stroke="#63b8ff" points="2097.02,-461.07 2086.68,-463.4 2096.22,-468.02 2097.02,-461.07"/>
</g>
<!-- Node60&#45;&gt;Node29 -->
<g id="edge181" class="edge">
<title>Node60&#45;&gt;Node29</title>
<path fill="none" stroke="#63b8ff" d="M2507.76,-505.9C2488.56,-498.49 2462.24,-486.39 2443,-470 2424.16,-453.95 2408.36,-430.39 2398.21,-412.99"/>
<polygon fill="#63b8ff" stroke="#63b8ff" points="2401.13,-411.04 2393.17,-404.04 2395.03,-414.47 2401.13,-411.04"/>
</g>
<!-- Node60&#45;&gt;Node30 -->
<g id="edge185" class="edge">
<title>Node60&#45;&gt;Node30</title>
<path fill="none" stroke="#63b8ff" d="M2608.28,-510.18C2665.76,-505.07 2746.17,-493.99 2813,-470 2857.55,-454.01 2903.91,-423.16 2929.35,-404.8"/>
<polygon fill="#63b8ff" stroke="#63b8ff" points="2931.74,-407.38 2937.73,-398.64 2927.6,-401.74 2931.74,-407.38"/>
</g>
<!-- Node60&#45;&gt;Node36 -->
<g id="edge182" class="edge">
<title>Node60&#45;&gt;Node36</title>
<path fill="none" stroke="#63b8ff" d="M2586.62,-505.96C2620.17,-499.22 2663.59,-487.91 2699,-470 2732.18,-453.21 2764.69,-424.22 2783.24,-406.13"/>
<polygon fill="#63b8ff" stroke="#63b8ff" points="2785.9,-408.42 2790.52,-398.89 2780.96,-403.46 2785.9,-408.42"/>
</g>
<!-- Node62&#45;&gt;Node16 -->
<g id="edge194" class="edge">
<title>Node62&#45;&gt;Node16</title>
<path fill="none" stroke="#63b8ff" d="M316.54,-192.35C295.67,-176.87 257.92,-143.89 279,-121 317.85,-78.81 728.07,-72.22 850,-71.19"/>
<polygon fill="#63b8ff" stroke="#63b8ff" points="850.26,-74.69 860.24,-71.11 850.21,-67.69 850.26,-74.69"/>
</g>
<!-- Node62&#45;&gt;Node17 -->
<g id="edge195" class="edge">
<title>Node62&#45;&gt;Node17</title>
<path fill="none" stroke="#63b8ff" d="M420.14,-193.38C587.05,-179.41 935.51,-150.26 1053.75,-140.37"/>
<polygon fill="#63b8ff" stroke="#63b8ff" points="1054.15,-143.85 1063.82,-139.52 1053.56,-136.87 1054.15,-143.85"/>
</g>
<!-- Node62&#45;&gt;Node25 -->
<g id="edge193" class="edge">
<title>Node62&#45;&gt;Node25</title>
<path fill="none" stroke="#63b8ff" d="M349.44,-192.49C391.77,-175.32 492.44,-136.83 581,-121 920.43,-60.32 1011.72,-104.15 1356,-85 1421.75,-81.34 1498.7,-76.13 1540.71,-73.21"/>
<polygon fill="#63b8ff" stroke="#63b8ff" points="1541.12,-76.69 1550.85,-72.5 1540.63,-69.71 1541.12,-76.69"/>
</g>
<!-- Node63 -->
<g id="node49" class="node">
<title>Node63</title>
<g id="a_node49"><a xlink:title=" ">
<polygon fill="#e0e0e0" stroke="#999999" points="194,-145.5 142,-145.5 142,-126.5 194,-126.5 194,-145.5"/>
<text text-anchor="middle" x="168" y="-133.5" font-family="Helvetica,sans-Serif" font-size="10.00">cassert</text>
</a>
</g>
</g>
<!-- Node62&#45;&gt;Node63 -->
<g id="edge196" class="edge">
<title>Node62&#45;&gt;Node63</title>
<path fill="none" stroke="#63b8ff" d="M307.29,-192.37C279.48,-181.32 231.1,-162.08 199.32,-149.45"/>
<polygon fill="#63b8ff" stroke="#63b8ff" points="200.21,-146.04 189.63,-145.6 197.63,-152.54 200.21,-146.04"/>
</g>
<!-- Node64&#45;&gt;Node2 -->
<g id="edge203" class="edge">
<title>Node64&#45;&gt;Node2</title>
<path fill="none" stroke="#63b8ff" d="M579.86,-725.98C566.21,-717.77 545.31,-705.18 529.22,-695.49"/>
<polygon fill="#63b8ff" stroke="#63b8ff" points="530.77,-692.33 520.4,-690.17 527.16,-698.33 530.77,-692.33"/>
</g>
<!-- Node64&#45;&gt;Node3 -->
<g id="edge204" class="edge">
<title>Node64&#45;&gt;Node3</title>
<path fill="none" stroke="#63b8ff" d="M664.26,-730.62C970.57,-713.73 2187.11,-646.63 2485.61,-630.16"/>
<polygon fill="#63b8ff" stroke="#63b8ff" points="2486.05,-633.64 2495.84,-629.6 2485.66,-626.65 2486.05,-633.64"/>
</g>
<!-- Node64&#45;&gt;Node30 -->
<g id="edge205" class="edge">
<title>Node64&#45;&gt;Node30</title>
<path fill="none" stroke="#63b8ff" d="M664.14,-731.56C826.5,-724.72 1240.77,-707 1587,-690 1917.75,-673.76 2863.46,-785.43 3068,-525 3081.03,-508.4 3086.85,-479.17 3057,-440 3042.66,-421.19 3019.56,-409.2 2998.39,-401.7"/>
<polygon fill="#63b8ff" stroke="#63b8ff" points="2999.43,-398.36 2988.83,-398.56 2997.24,-405.01 2999.43,-398.36"/>
</g>
</g>
</svg>
