<?xml version="1.0" encoding="UTF-8" standalone="no"?>
<!DOCTYPE svg PUBLIC "-//W3C//DTD SVG 1.1//EN"
 "http://www.w3.org/Graphics/SVG/1.1/DTD/svg11.dtd">
<!-- Generated by graphviz version 2.43.0 (0)
 -->
<!-- Title: src/polyfem/io/Evaluator.hpp Pages: 1 -->
<svg width="1322pt" height="533pt"
 viewBox="0.00 0.00 1322.23 533.00" xmlns="http://www.w3.org/2000/svg" xmlns:xlink="http://www.w3.org/1999/xlink">
<g id="graph0" class="graph" transform="scale(1 1) rotate(0) translate(4 529)">
<title>src/polyfem/io/Evaluator.hpp</title>
<!-- Node1 -->
<g id="node1" class="node">
<title>Node1</title>
<g id="a_node1"><a xlink:title=" ">
<polygon fill="#999999" stroke="#666666" points="656,-525 500,-525 500,-506 656,-506 656,-525"/>
<text text-anchor="middle" x="578" y="-513" font-family="Helvetica,sans-Serif" font-size="10.00">src/polyfem/io/Evaluator.hpp</text>
</a>
</g>
</g>
<!-- Node2 -->
<g id="node2" class="node">
<title>Node2</title>
<g id="a_node2"><a xlink:title=" ">
<polygon fill="#e0e0e0" stroke="#999999" points="320.5,-272 251.5,-272 251.5,-253 320.5,-253 320.5,-272"/>
<text text-anchor="middle" x="286" y="-260" font-family="Helvetica,sans-Serif" font-size="10.00">Eigen/Core</text>
</a>
</g>
</g>
<!-- Node1&#45;&gt;Node2 -->
<g id="edge1" class="edge">
<title>Node1&#45;&gt;Node2</title>
<path fill="none" stroke="#63b8ff" d="M499.97,-509.13C460.3,-503.59 412.66,-492.43 375,-470 341.7,-450.17 335.49,-438.59 318,-404 297.65,-363.76 290.09,-310.53 287.4,-282.55"/>
<polygon fill="#63b8ff" stroke="#63b8ff" points="290.86,-281.89 286.52,-272.22 283.88,-282.48 290.86,-281.89"/>
</g>
<!-- Node3 -->
<g id="node3" class="node">
<title>Node3</title>
<g id="a_node3"><a xlink:href="_element_bases_8hpp.html" target="_top" xlink:title=" ">
<polygon fill="white" stroke="#666666" points="665.5,-272 486.5,-272 486.5,-253 665.5,-253 665.5,-272"/>
<text text-anchor="middle" x="576" y="-260" font-family="Helvetica,sans-Serif" font-size="10.00">polyfem/basis/ElementBases.hpp</text>
</a>
</g>
</g>
<!-- Node1&#45;&gt;Node3 -->
<g id="edge2" class="edge">
<title>Node1&#45;&gt;Node3</title>
<path fill="none" stroke="#63b8ff" d="M577.93,-505.86C577.65,-470.03 576.55,-332.66 576.15,-282.22"/>
<polygon fill="#63b8ff" stroke="#63b8ff" points="579.65,-282.08 576.07,-272.1 572.65,-282.13 579.65,-282.08"/>
</g>
<!-- Node11 -->
<g id="node11" class="node">
<title>Node11</title>
<g id="a_node11"><a xlink:href="_mesh_8hpp.html" target="_top" xlink:title=" ">
<polygon fill="white" stroke="#666666" points="888.5,-211.5 751.5,-211.5 751.5,-192.5 888.5,-192.5 888.5,-211.5"/>
<text text-anchor="middle" x="820" y="-199.5" font-family="Helvetica,sans-Serif" font-size="10.00">polyfem/mesh/Mesh.hpp</text>
</a>
</g>
</g>
<!-- Node1&#45;&gt;Node11 -->
<g id="edge50" class="edge">
<title>Node1&#45;&gt;Node11</title>
<path fill="none" stroke="#63b8ff" d="M652.36,-505.95C720.55,-493.48 811,-463.15 811,-390 811,-390 811,-390 811,-322 811,-286.55 815.02,-245.33 817.69,-221.89"/>
<polygon fill="#63b8ff" stroke="#63b8ff" points="821.2,-221.98 818.9,-211.64 814.25,-221.16 821.2,-221.98"/>
</g>
<!-- Node22 -->
<g id="node22" class="node">
<title>Node22</title>
<g id="a_node22"><a xlink:href="_assembler_utils_8hpp.html" target="_top" xlink:title=" ">
<polygon fill="white" stroke="#666666" points="550,-470 384,-470 384,-440 550,-440 550,-470"/>
<text text-anchor="start" x="392" y="-458" font-family="Helvetica,sans-Serif" font-size="10.00">polyfem/assembler/Assembler</text>
<text text-anchor="middle" x="467" y="-447" font-family="Helvetica,sans-Serif" font-size="10.00">Utils.hpp</text>
</a>
</g>
</g>
<!-- Node1&#45;&gt;Node22 -->
<g id="edge32" class="edge">
<title>Node1&#45;&gt;Node22</title>
<path fill="none" stroke="#63b8ff" d="M561.62,-505.87C546.21,-497.75 522.61,-485.31 502.84,-474.89"/>
<polygon fill="#63b8ff" stroke="#63b8ff" points="504.26,-471.68 493.78,-470.11 501,-477.87 504.26,-471.68"/>
</g>
<!-- Node30 -->
<g id="node30" class="node">
<title>Node30</title>
<g id="a_node30"><a xlink:href="_ref_element_sampler_8hpp.html" target="_top" xlink:title=" ">
<polygon fill="white" stroke="#666666" points="1185.5,-470 1044.5,-470 1044.5,-440 1185.5,-440 1185.5,-470"/>
<text text-anchor="start" x="1052.5" y="-458" font-family="Helvetica,sans-Serif" font-size="10.00">polyfem/utils/RefElement</text>
<text text-anchor="middle" x="1115" y="-447" font-family="Helvetica,sans-Serif" font-size="10.00">Sampler.hpp</text>
</a>
</g>
</g>
<!-- Node1&#45;&gt;Node30 -->
<g id="edge51" class="edge">
<title>Node1&#45;&gt;Node30</title>
<path fill="none" stroke="#63b8ff" d="M656.08,-505.99C757.01,-495 931.88,-475.95 1034.14,-464.81"/>
<polygon fill="#63b8ff" stroke="#63b8ff" points="1034.55,-468.29 1044.11,-463.72 1033.79,-461.33 1034.55,-468.29"/>
</g>
<!-- Node4 -->
<g id="node4" class="node">
<title>Node4</title>
<g id="a_node4"><a xlink:href="_basis_8hpp.html" target="_top" xlink:title=" ">
<polygon fill="white" stroke="#666666" points="610,-145.5 474,-145.5 474,-126.5 610,-126.5 610,-145.5"/>
<text text-anchor="middle" x="542" y="-133.5" font-family="Helvetica,sans-Serif" font-size="10.00">polyfem/basis/Basis.hpp</text>
</a>
</g>
</g>
<!-- Node3&#45;&gt;Node4 -->
<g id="edge3" class="edge">
<title>Node3&#45;&gt;Node4</title>
<path fill="none" stroke="#63b8ff" d="M537.99,-252.85C518.88,-246.37 497.4,-235.36 486,-217 478.97,-205.67 480.55,-199.17 486,-187 492.64,-172.16 506.11,-159.91 518.17,-151.25"/>
<polygon fill="#63b8ff" stroke="#63b8ff" points="520.24,-154.08 526.58,-145.6 516.33,-148.27 520.24,-154.08"/>
</g>
<!-- Node5 -->
<g id="node5" class="node">
<title>Node5</title>
<g id="a_node5"><a xlink:href="_quadrature_8hpp.html" target="_top" xlink:title=" ">
<polygon fill="white" stroke="#666666" points="491.5,-85 378.5,-85 378.5,-55 491.5,-55 491.5,-85"/>
<text text-anchor="start" x="386.5" y="-73" font-family="Helvetica,sans-Serif" font-size="10.00">polyfem/quadrature</text>
<text text-anchor="middle" x="435" y="-62" font-family="Helvetica,sans-Serif" font-size="10.00">/Quadrature.hpp</text>
</a>
</g>
</g>
<!-- Node3&#45;&gt;Node5 -->
<g id="edge12" class="edge">
<title>Node3&#45;&gt;Node5</title>
<path fill="none" stroke="#63b8ff" d="M539.25,-252.94C518.57,-246.35 493.81,-235.19 478,-217 447.76,-182.21 438.77,-127.05 436.11,-95.42"/>
<polygon fill="#63b8ff" stroke="#63b8ff" points="439.59,-95.03 435.4,-85.29 432.6,-95.51 439.59,-95.03"/>
</g>
<!-- Node10 -->
<g id="node10" class="node">
<title>Node10</title>
<g id="a_node10"><a xlink:title=" ">
<polygon fill="#e0e0e0" stroke="#999999" points="734.5,-79.5 687.5,-79.5 687.5,-60.5 734.5,-60.5 734.5,-79.5"/>
<text text-anchor="middle" x="711" y="-67.5" font-family="Helvetica,sans-Serif" font-size="10.00">vector</text>
</a>
</g>
</g>
<!-- Node3&#45;&gt;Node10 -->
<g id="edge31" class="edge">
<title>Node3&#45;&gt;Node10</title>
<path fill="none" stroke="#63b8ff" d="M607.52,-252.93C626.91,-246.14 650.86,-234.78 666,-217 697.87,-179.57 707.18,-119.82 709.89,-89.68"/>
<polygon fill="#63b8ff" stroke="#63b8ff" points="713.38,-89.92 710.64,-79.69 706.4,-89.4 713.38,-89.92"/>
</g>
<!-- Node3&#45;&gt;Node11 -->
<g id="edge13" class="edge">
<title>Node3&#45;&gt;Node11</title>
<path fill="none" stroke="#63b8ff" d="M611.48,-252.99C654.58,-242.66 727.36,-225.21 774.53,-213.9"/>
<polygon fill="#63b8ff" stroke="#63b8ff" points="775.57,-217.25 784.48,-211.52 773.94,-210.44 775.57,-217.25"/>
</g>
<!-- Node21 -->
<g id="node21" class="node">
<title>Node21</title>
<g id="a_node21"><a xlink:href="_assembly_values_8hpp.html" target="_top" xlink:title=" ">
<polygon fill="white" stroke="#666666" points="657,-217 495,-217 495,-187 657,-187 657,-217"/>
<text text-anchor="start" x="503" y="-205" font-family="Helvetica,sans-Serif" font-size="10.00">polyfem/assembler/Assembly</text>
<text text-anchor="middle" x="576" y="-194" font-family="Helvetica,sans-Serif" font-size="10.00">Values.hpp</text>
</a>
</g>
</g>
<!-- Node3&#45;&gt;Node21 -->
<g id="edge28" class="edge">
<title>Node3&#45;&gt;Node21</title>
<path fill="none" stroke="#63b8ff" d="M576,-252.87C576,-246.11 576,-236.35 576,-227.26"/>
<polygon fill="#63b8ff" stroke="#63b8ff" points="579.5,-227.11 576,-217.11 572.5,-227.11 579.5,-227.11"/>
</g>
<!-- Node4&#45;&gt;Node5 -->
<g id="edge4" class="edge">
<title>Node4&#45;&gt;Node5</title>
<path fill="none" stroke="#63b8ff" d="M527.57,-126.37C512.23,-117.2 487.48,-102.39 467.43,-90.4"/>
<polygon fill="#63b8ff" stroke="#63b8ff" points="468.98,-87.25 458.6,-85.12 465.38,-93.25 468.98,-87.25"/>
</g>
<!-- Node6 -->
<g id="node6" class="node">
<title>Node6</title>
<g id="a_node6"><a xlink:title=" ">
<polygon fill="#e0e0e0" stroke="#999999" points="641.5,-19 564.5,-19 564.5,0 641.5,0 641.5,-19"/>
<text text-anchor="middle" x="603" y="-7" font-family="Helvetica,sans-Serif" font-size="10.00">Eigen/Dense</text>
</a>
</g>
</g>
<!-- Node4&#45;&gt;Node6 -->
<g id="edge9" class="edge">
<title>Node4&#45;&gt;Node6</title>
<path fill="none" stroke="#63b8ff" d="M551.16,-126.27C560.48,-116.9 574.69,-101.18 583,-85 592.16,-67.17 597.44,-44.72 600.26,-29.15"/>
<polygon fill="#63b8ff" stroke="#63b8ff" points="603.72,-29.63 601.88,-19.19 596.82,-28.5 603.72,-29.63"/>
</g>
<!-- Node7 -->
<g id="node7" class="node">
<title>Node7</title>
<g id="a_node7"><a xlink:href="_types_8hpp.html" target="_top" xlink:title=" ">
<polygon fill="white" stroke="#666666" points="360.5,-79.5 227.5,-79.5 227.5,-60.5 360.5,-60.5 360.5,-79.5"/>
<text text-anchor="middle" x="294" y="-67.5" font-family="Helvetica,sans-Serif" font-size="10.00">polyfem/utils/Types.hpp</text>
</a>
</g>
</g>
<!-- Node4&#45;&gt;Node7 -->
<g id="edge6" class="edge">
<title>Node4&#45;&gt;Node7</title>
<path fill="none" stroke="#63b8ff" d="M508.81,-126.44C464.45,-114.99 385.77,-94.68 336.94,-82.08"/>
<polygon fill="#63b8ff" stroke="#63b8ff" points="337.55,-78.62 326.99,-79.51 335.8,-85.4 337.55,-78.62"/>
</g>
<!-- Node9 -->
<g id="node9" class="node">
<title>Node9</title>
<g id="a_node9"><a xlink:title=" ">
<polygon fill="#e0e0e0" stroke="#999999" points="574.5,-79.5 509.5,-79.5 509.5,-60.5 574.5,-60.5 574.5,-79.5"/>
<text text-anchor="middle" x="542" y="-67.5" font-family="Helvetica,sans-Serif" font-size="10.00">functional</text>
</a>
</g>
</g>
<!-- Node4&#45;&gt;Node9 -->
<g id="edge10" class="edge">
<title>Node4&#45;&gt;Node9</title>
<path fill="none" stroke="#63b8ff" d="M542,-126.37C542,-117.16 542,-102.29 542,-90.27"/>
<polygon fill="#63b8ff" stroke="#63b8ff" points="545.5,-89.91 542,-79.91 538.5,-89.91 545.5,-89.91"/>
</g>
<!-- Node4&#45;&gt;Node10 -->
<g id="edge11" class="edge">
<title>Node4&#45;&gt;Node10</title>
<path fill="none" stroke="#63b8ff" d="M564.79,-126.37C594.1,-115.27 645.2,-95.92 678.56,-83.28"/>
<polygon fill="#63b8ff" stroke="#63b8ff" points="680.19,-86.41 688.3,-79.6 677.71,-79.86 680.19,-86.41"/>
</g>
<!-- Node5&#45;&gt;Node6 -->
<g id="edge5" class="edge">
<title>Node5&#45;&gt;Node6</title>
<path fill="none" stroke="#63b8ff" d="M475.24,-54.99C503.77,-45.05 541.65,-31.86 568.73,-22.43"/>
<polygon fill="#63b8ff" stroke="#63b8ff" points="569.9,-25.73 578.19,-19.14 567.6,-19.12 569.9,-25.73"/>
</g>
<!-- Node7&#45;&gt;Node6 -->
<g id="edge7" class="edge">
<title>Node7&#45;&gt;Node6</title>
<path fill="none" stroke="#63b8ff" d="M338.93,-60.49C396.37,-49.62 495.43,-30.86 554.52,-19.68"/>
<polygon fill="#63b8ff" stroke="#63b8ff" points="555.19,-23.11 564.36,-17.81 553.89,-16.24 555.19,-23.11"/>
</g>
<!-- Node8 -->
<g id="node8" class="node">
<title>Node8</title>
<g id="a_node8"><a xlink:title=" ">
<polygon fill="#e0e0e0" stroke="#999999" points="208,-19 128,-19 128,0 208,0 208,-19"/>
<text text-anchor="middle" x="168" y="-7" font-family="Helvetica,sans-Serif" font-size="10.00">Eigen/Sparse</text>
</a>
</g>
</g>
<!-- Node7&#45;&gt;Node8 -->
<g id="edge8" class="edge">
<title>Node7&#45;&gt;Node8</title>
<path fill="none" stroke="#63b8ff" d="M275.68,-60.49C254.59,-50.7 219.74,-34.52 195.42,-23.23"/>
<polygon fill="#63b8ff" stroke="#63b8ff" points="196.89,-20.05 186.34,-19.02 193.94,-26.4 196.89,-20.05"/>
</g>
<!-- Node11&#45;&gt;Node6 -->
<g id="edge25" class="edge">
<title>Node11&#45;&gt;Node6</title>
<path fill="none" stroke="#63b8ff" d="M821.99,-192.07C824.95,-176.72 829.06,-144.66 818,-121 799.21,-80.77 781.65,-76.86 743,-55 714.53,-38.9 679.45,-27.76 651.53,-20.66"/>
<polygon fill="#63b8ff" stroke="#63b8ff" points="652.13,-17.2 641.59,-18.22 650.47,-24 652.13,-17.2"/>
</g>
<!-- Node11&#45;&gt;Node7 -->
<g id="edge20" class="edge">
<title>Node11&#45;&gt;Node7</title>
<path fill="none" stroke="#63b8ff" d="M751.17,-193.77C663.51,-184.13 517.13,-166.49 465,-151 409.76,-134.59 349.74,-102.99 317.56,-84.8"/>
<polygon fill="#63b8ff" stroke="#63b8ff" points="318.92,-81.55 308.51,-79.62 315.45,-87.62 318.92,-81.55"/>
</g>
<!-- Node12 -->
<g id="node12" class="node">
<title>Node12</title>
<g id="a_node12"><a xlink:href="_common_8hpp.html" target="_top" xlink:title=" ">
<polygon fill="white" stroke="#666666" points="128.5,-79.5 3.5,-79.5 3.5,-60.5 128.5,-60.5 128.5,-79.5"/>
<text text-anchor="middle" x="66" y="-67.5" font-family="Helvetica,sans-Serif" font-size="10.00">polyfem/Common.hpp</text>
</a>
</g>
</g>
<!-- Node11&#45;&gt;Node12 -->
<g id="edge14" class="edge">
<title>Node11&#45;&gt;Node12</title>
<path fill="none" stroke="#63b8ff" d="M751.42,-194.33C724.77,-191.85 693.97,-189.12 666,-187 600.51,-182.03 123.89,-195.95 76,-151 59.6,-135.61 59.85,-108.03 62.3,-89.62"/>
<polygon fill="#63b8ff" stroke="#63b8ff" points="65.79,-89.97 63.99,-79.53 58.89,-88.82 65.79,-89.97"/>
</g>
<!-- Node14 -->
<g id="node14" class="node">
<title>Node14</title>
<g id="a_node14"><a xlink:href="_navigation_8hpp.html" target="_top" xlink:title=" ">
<polygon fill="white" stroke="#666666" points="1204.5,-151 1073.5,-151 1073.5,-121 1204.5,-121 1204.5,-151"/>
<text text-anchor="start" x="1081.5" y="-139" font-family="Helvetica,sans-Serif" font-size="10.00">polyfem/mesh/mesh2D</text>
<text text-anchor="middle" x="1139" y="-128" font-family="Helvetica,sans-Serif" font-size="10.00">/Navigation.hpp</text>
</a>
</g>
</g>
<!-- Node11&#45;&gt;Node14 -->
<g id="edge17" class="edge">
<title>Node11&#45;&gt;Node14</title>
<path fill="none" stroke="#63b8ff" d="M862.69,-192.44C913.94,-182.15 1000.8,-164.73 1063.47,-152.15"/>
<polygon fill="#63b8ff" stroke="#63b8ff" points="1064.19,-155.58 1073.31,-150.18 1062.81,-148.72 1064.19,-155.58"/>
</g>
<!-- Node15 -->
<g id="node15" class="node">
<title>Node15</title>
<g id="a_node15"><a xlink:title=" ">
<polygon fill="#e0e0e0" stroke="#999999" points="1117.5,-79.5 988.5,-79.5 988.5,-60.5 1117.5,-60.5 1117.5,-79.5"/>
<text text-anchor="middle" x="1053" y="-67.5" font-family="Helvetica,sans-Serif" font-size="10.00">geogram/mesh/mesh.h</text>
</a>
</g>
</g>
<!-- Node11&#45;&gt;Node15 -->
<g id="edge26" class="edge">
<title>Node11&#45;&gt;Node15</title>
<path fill="none" stroke="#63b8ff" d="M883.13,-192.47C935.71,-184.16 1005.24,-170.02 1026,-151 1043.18,-135.25 1049.44,-108.21 1051.71,-89.97"/>
<polygon fill="#63b8ff" stroke="#63b8ff" points="1055.2,-90.22 1052.67,-79.94 1048.23,-89.56 1055.2,-90.22"/>
</g>
<!-- Node17 -->
<g id="node17" class="node">
<title>Node17</title>
<g id="a_node17"><a xlink:href="_hash_utils_8hpp.html" target="_top" xlink:title=" ">
<polygon fill="white" stroke="#666666" points="1017,-145.5 865,-145.5 865,-126.5 1017,-126.5 1017,-145.5"/>
<text text-anchor="middle" x="941" y="-133.5" font-family="Helvetica,sans-Serif" font-size="10.00">polyfem/utils/HashUtils.hpp</text>
</a>
</g>
</g>
<!-- Node11&#45;&gt;Node17 -->
<g id="edge21" class="edge">
<title>Node11&#45;&gt;Node17</title>
<path fill="none" stroke="#63b8ff" d="M836.32,-192.37C856.71,-181.59 891.81,-163.02 915.7,-150.38"/>
<polygon fill="#63b8ff" stroke="#63b8ff" points="917.35,-153.47 924.55,-145.7 914.08,-147.28 917.35,-153.47"/>
</g>
<!-- Node20 -->
<g id="node20" class="node">
<title>Node20</title>
<g id="a_node20"><a xlink:title=" ">
<polygon fill="#e0e0e0" stroke="#999999" points="809,-145.5 751,-145.5 751,-126.5 809,-126.5 809,-145.5"/>
<text text-anchor="middle" x="780" y="-133.5" font-family="Helvetica,sans-Serif" font-size="10.00">memory</text>
</a>
</g>
</g>
<!-- Node11&#45;&gt;Node20 -->
<g id="edge27" class="edge">
<title>Node11&#45;&gt;Node20</title>
<path fill="none" stroke="#63b8ff" d="M814.61,-192.37C808.56,-182.69 798.59,-166.74 790.9,-154.44"/>
<polygon fill="#63b8ff" stroke="#63b8ff" points="793.83,-152.53 785.57,-145.91 787.9,-156.24 793.83,-152.53"/>
</g>
<!-- Node12&#45;&gt;Node8 -->
<g id="edge15" class="edge">
<title>Node12&#45;&gt;Node8</title>
<path fill="none" stroke="#63b8ff" d="M81.05,-60.37C97.62,-50.86 124.5,-35.45 143.99,-24.27"/>
<polygon fill="#63b8ff" stroke="#63b8ff" points="145.95,-27.18 152.89,-19.17 142.47,-21.11 145.95,-27.18"/>
</g>
<!-- Node13 -->
<g id="node13" class="node">
<title>Node13</title>
<g id="a_node13"><a xlink:title=" ">
<polygon fill="#e0e0e0" stroke="#999999" points="110,-19 0,-19 0,0 110,0 110,-19"/>
<text text-anchor="middle" x="55" y="-7" font-family="Helvetica,sans-Serif" font-size="10.00">nlohmann/json.hpp</text>
</a>
</g>
</g>
<!-- Node12&#45;&gt;Node13 -->
<g id="edge16" class="edge">
<title>Node12&#45;&gt;Node13</title>
<path fill="none" stroke="#63b8ff" d="M64.38,-60.37C62.83,-52.16 60.46,-39.54 58.49,-29.05"/>
<polygon fill="#63b8ff" stroke="#63b8ff" points="61.92,-28.35 56.63,-19.17 55.04,-29.64 61.92,-28.35"/>
</g>
<!-- Node14&#45;&gt;Node15 -->
<g id="edge18" class="edge">
<title>Node14&#45;&gt;Node15</title>
<path fill="none" stroke="#63b8ff" d="M1119.91,-120.8C1105.98,-110.43 1087.14,-96.4 1073,-85.88"/>
<polygon fill="#63b8ff" stroke="#63b8ff" points="1075,-83.01 1064.88,-79.84 1070.82,-88.62 1075,-83.01"/>
</g>
<!-- Node16 -->
<g id="node16" class="node">
<title>Node16</title>
<g id="a_node16"><a xlink:title=" ">
<polygon fill="#e0e0e0" stroke="#999999" points="1284,-79.5 1136,-79.5 1136,-60.5 1284,-60.5 1284,-79.5"/>
<text text-anchor="middle" x="1210" y="-67.5" font-family="Helvetica,sans-Serif" font-size="10.00">geogram/basic/attributes.h</text>
</a>
</g>
</g>
<!-- Node14&#45;&gt;Node16 -->
<g id="edge19" class="edge">
<title>Node14&#45;&gt;Node16</title>
<path fill="none" stroke="#63b8ff" d="M1154.76,-120.8C1165.93,-110.72 1180.94,-97.19 1192.49,-86.78"/>
<polygon fill="#63b8ff" stroke="#63b8ff" points="1195.1,-89.14 1200.19,-79.84 1190.42,-83.94 1195.1,-89.14"/>
</g>
<!-- Node17&#45;&gt;Node10 -->
<g id="edge24" class="edge">
<title>Node17&#45;&gt;Node10</title>
<path fill="none" stroke="#63b8ff" d="M909.98,-126.37C866.75,-114.34 788.72,-92.63 744.3,-80.27"/>
<polygon fill="#63b8ff" stroke="#63b8ff" points="745.14,-76.87 734.57,-77.56 743.26,-83.61 745.14,-76.87"/>
</g>
<!-- Node18 -->
<g id="node18" class="node">
<title>Node18</title>
<g id="a_node18"><a xlink:title=" ">
<polygon fill="#e0e0e0" stroke="#999999" points="909.5,-79.5 856.5,-79.5 856.5,-60.5 909.5,-60.5 909.5,-79.5"/>
<text text-anchor="middle" x="883" y="-67.5" font-family="Helvetica,sans-Serif" font-size="10.00">cstddef</text>
</a>
</g>
</g>
<!-- Node17&#45;&gt;Node18 -->
<g id="edge22" class="edge">
<title>Node17&#45;&gt;Node18</title>
<path fill="none" stroke="#63b8ff" d="M933.18,-126.37C924.15,-116.4 909.09,-99.79 897.83,-87.36"/>
<polygon fill="#63b8ff" stroke="#63b8ff" points="900.38,-84.96 891.07,-79.91 895.19,-89.67 900.38,-84.96"/>
</g>
<!-- Node19 -->
<g id="node19" class="node">
<title>Node19</title>
<g id="a_node19"><a xlink:title=" ">
<polygon fill="#e0e0e0" stroke="#999999" points="970,-79.5 928,-79.5 928,-60.5 970,-60.5 970,-79.5"/>
<text text-anchor="middle" x="949" y="-67.5" font-family="Helvetica,sans-Serif" font-size="10.00">array</text>
</a>
</g>
</g>
<!-- Node17&#45;&gt;Node19 -->
<g id="edge23" class="edge">
<title>Node17&#45;&gt;Node19</title>
<path fill="none" stroke="#63b8ff" d="M942.08,-126.37C943.24,-117.07 945.13,-101.98 946.64,-89.9"/>
<polygon fill="#63b8ff" stroke="#63b8ff" points="950.12,-90.26 947.89,-79.91 943.17,-89.39 950.12,-90.26"/>
</g>
<!-- Node21&#45;&gt;Node4 -->
<g id="edge29" class="edge">
<title>Node21&#45;&gt;Node4</title>
<path fill="none" stroke="#63b8ff" d="M568.45,-186.8C563.47,-177.41 556.88,-165.02 551.53,-154.95"/>
<polygon fill="#63b8ff" stroke="#63b8ff" points="554.48,-153.03 546.7,-145.84 548.3,-156.32 554.48,-153.03"/>
</g>
<!-- Node21&#45;&gt;Node6 -->
<g id="edge30" class="edge">
<title>Node21&#45;&gt;Node6</title>
<path fill="none" stroke="#63b8ff" d="M593.23,-186.73C602.82,-177.63 613.82,-164.96 619,-151 634.52,-109.14 619.92,-55.85 610.16,-28.49"/>
<polygon fill="#63b8ff" stroke="#63b8ff" points="613.4,-27.19 606.61,-19.06 606.85,-29.65 613.4,-27.19"/>
</g>
<!-- Node22&#45;&gt;Node3 -->
<g id="edge38" class="edge">
<title>Node22&#45;&gt;Node3</title>
<path fill="none" stroke="#63b8ff" d="M479.79,-439.75C488.11,-430.08 498.9,-416.76 507,-404 533.49,-362.28 557.16,-308.93 568.65,-281.53"/>
<polygon fill="#63b8ff" stroke="#63b8ff" points="571.98,-282.66 572.57,-272.08 565.51,-279.98 571.98,-282.66"/>
</g>
<!-- Node23 -->
<g id="node23" class="node">
<title>Node23</title>
<g id="a_node23"><a xlink:href="_assembly_vals_cache_8hpp.html" target="_top" xlink:title=" ">
<polygon fill="white" stroke="#666666" points="772,-404 610,-404 610,-374 772,-374 772,-404"/>
<text text-anchor="start" x="618" y="-392" font-family="Helvetica,sans-Serif" font-size="10.00">polyfem/assembler/Assembly</text>
<text text-anchor="middle" x="691" y="-381" font-family="Helvetica,sans-Serif" font-size="10.00">ValsCache.hpp</text>
</a>
</g>
</g>
<!-- Node22&#45;&gt;Node23 -->
<g id="edge33" class="edge">
<title>Node22&#45;&gt;Node23</title>
<path fill="none" stroke="#63b8ff" d="M516.16,-439.95C550.3,-430.2 595.95,-417.16 632.05,-406.84"/>
<polygon fill="#63b8ff" stroke="#63b8ff" points="633.3,-410.12 641.96,-404.01 631.38,-403.39 633.3,-410.12"/>
</g>
<!-- Node25 -->
<g id="node25" class="node">
<title>Node25</title>
<g id="a_node25"><a xlink:href="_autodiff_types_8hpp.html" target="_top" xlink:title=" ">
<polygon fill="white" stroke="#666666" points="498.5,-398.5 327.5,-398.5 327.5,-379.5 498.5,-379.5 498.5,-398.5"/>
<text text-anchor="middle" x="413" y="-386.5" font-family="Helvetica,sans-Serif" font-size="10.00">polyfem/utils/AutodiffTypes.hpp</text>
</a>
</g>
</g>
<!-- Node22&#45;&gt;Node25 -->
<g id="edge39" class="edge">
<title>Node22&#45;&gt;Node25</title>
<path fill="none" stroke="#63b8ff" d="M455.02,-439.8C446.76,-430.01 435.76,-416.98 427.09,-406.7"/>
<polygon fill="#63b8ff" stroke="#63b8ff" points="429.59,-404.23 420.46,-398.84 424.24,-408.74 429.59,-404.23"/>
</g>
<!-- Node29 -->
<g id="node29" class="node">
<title>Node29</title>
<g id="a_node29"><a xlink:href="_matrix_utils_8hpp.html" target="_top" xlink:title=" ">
<polygon fill="white" stroke="#666666" points="244.5,-145.5 85.5,-145.5 85.5,-126.5 244.5,-126.5 244.5,-145.5"/>
<text text-anchor="middle" x="165" y="-133.5" font-family="Helvetica,sans-Serif" font-size="10.00">polyfem/utils/MatrixUtils.hpp</text>
</a>
</g>
</g>
<!-- Node22&#45;&gt;Node29 -->
<g id="edge45" class="edge">
<title>Node22&#45;&gt;Node29</title>
<path fill="none" stroke="#63b8ff" d="M398.59,-439.99C371.82,-432.31 341.87,-420.81 318,-404 227.64,-340.35 183.4,-205.2 169.76,-155.68"/>
<polygon fill="#63b8ff" stroke="#63b8ff" points="173.07,-154.51 167.12,-145.75 166.3,-156.31 173.07,-154.51"/>
</g>
<!-- Node24 -->
<g id="node24" class="node">
<title>Node24</title>
<g id="a_node24"><a xlink:href="_element_assembly_values_8hpp.html" target="_top" xlink:title=" ">
<polygon fill="white" stroke="#666666" points="769.5,-338 614.5,-338 614.5,-308 769.5,-308 769.5,-338"/>
<text text-anchor="start" x="622.5" y="-326" font-family="Helvetica,sans-Serif" font-size="10.00">polyfem/assembler/Element</text>
<text text-anchor="middle" x="692" y="-315" font-family="Helvetica,sans-Serif" font-size="10.00">AssemblyValues.hpp</text>
</a>
</g>
</g>
<!-- Node23&#45;&gt;Node24 -->
<g id="edge34" class="edge">
<title>Node23&#45;&gt;Node24</title>
<path fill="none" stroke="#63b8ff" d="M691.22,-373.8C691.34,-366.34 691.48,-356.99 691.62,-348.41"/>
<polygon fill="#63b8ff" stroke="#63b8ff" points="695.12,-348.22 691.78,-338.16 688.12,-348.11 695.12,-348.22"/>
</g>
<!-- Node24&#45;&gt;Node3 -->
<g id="edge36" class="edge">
<title>Node24&#45;&gt;Node3</title>
<path fill="none" stroke="#63b8ff" d="M664.22,-307.99C645.38,-298.49 620.65,-286.02 602.16,-276.69"/>
<polygon fill="#63b8ff" stroke="#63b8ff" points="603.64,-273.52 593.13,-272.14 600.48,-279.77 603.64,-273.52"/>
</g>
<!-- Node24&#45;&gt;Node10 -->
<g id="edge37" class="edge">
<title>Node24&#45;&gt;Node10</title>
<path fill="none" stroke="#63b8ff" d="M693.77,-307.84C697.34,-278.59 705.37,-209.36 709,-151 710.29,-130.25 710.75,-106.41 710.92,-90.2"/>
<polygon fill="#63b8ff" stroke="#63b8ff" points="714.42,-89.91 710.99,-79.89 707.42,-89.86 714.42,-89.91"/>
</g>
<!-- Node24&#45;&gt;Node21 -->
<g id="edge35" class="edge">
<title>Node24&#45;&gt;Node21</title>
<path fill="none" stroke="#63b8ff" d="M691.63,-307.8C690.53,-292.69 686.72,-268.82 674,-253 662.9,-239.19 646.97,-228.82 631.17,-221.21"/>
<polygon fill="#63b8ff" stroke="#63b8ff" points="632.48,-217.96 621.92,-217.05 629.6,-224.34 632.48,-217.96"/>
</g>
<!-- Node25&#45;&gt;Node7 -->
<g id="edge40" class="edge">
<title>Node25&#45;&gt;Node7</title>
<path fill="none" stroke="#63b8ff" d="M387.36,-379.47C347.73,-364.73 272.91,-330.32 242,-272 224.85,-239.64 267.71,-131.97 286.1,-88.97"/>
<polygon fill="#63b8ff" stroke="#63b8ff" points="289.34,-90.3 290.1,-79.73 282.92,-87.51 289.34,-90.3"/>
</g>
<!-- Node26 -->
<g id="node26" class="node">
<title>Node26</title>
<g id="a_node26"><a xlink:href="autodiff_8h.html" target="_top" xlink:title=" ">
<polygon fill="white" stroke="#666666" points="419.5,-332.5 356.5,-332.5 356.5,-313.5 419.5,-313.5 419.5,-332.5"/>
<text text-anchor="middle" x="388" y="-320.5" font-family="Helvetica,sans-Serif" font-size="10.00">autodiff.h</text>
</a>
</g>
</g>
<!-- Node25&#45;&gt;Node26 -->
<g id="edge41" class="edge">
<title>Node25&#45;&gt;Node26</title>
<path fill="none" stroke="#63b8ff" d="M409.63,-379.37C405.96,-369.97 399.98,-354.67 395.24,-342.53"/>
<polygon fill="#63b8ff" stroke="#63b8ff" points="398.38,-340.95 391.48,-332.91 391.86,-343.49 398.38,-340.95"/>
</g>
<!-- Node26&#45;&gt;Node2 -->
<g id="edge42" class="edge">
<title>Node26&#45;&gt;Node2</title>
<path fill="none" stroke="#63b8ff" d="M372.95,-313.37C356.38,-303.86 329.5,-288.45 310.01,-277.27"/>
<polygon fill="#63b8ff" stroke="#63b8ff" points="311.53,-274.11 301.11,-272.17 308.05,-280.18 311.53,-274.11"/>
</g>
<!-- Node27 -->
<g id="node27" class="node">
<title>Node27</title>
<g id="a_node27"><a xlink:title=" ">
<polygon fill="#e0e0e0" stroke="#999999" points="385.5,-272 338.5,-272 338.5,-253 385.5,-253 385.5,-272"/>
<text text-anchor="middle" x="362" y="-260" font-family="Helvetica,sans-Serif" font-size="10.00">cmath</text>
</a>
</g>
</g>
<!-- Node26&#45;&gt;Node27 -->
<g id="edge43" class="edge">
<title>Node26&#45;&gt;Node27</title>
<path fill="none" stroke="#63b8ff" d="M384.16,-313.37C380.44,-304.99 374.67,-292.01 369.95,-281.39"/>
<polygon fill="#63b8ff" stroke="#63b8ff" points="373.11,-279.88 365.85,-272.17 366.72,-282.73 373.11,-279.88"/>
</g>
<!-- Node28 -->
<g id="node28" class="node">
<title>Node28</title>
<g id="a_node28"><a xlink:title=" ">
<polygon fill="#e0e0e0" stroke="#999999" points="468.5,-272 403.5,-272 403.5,-253 468.5,-253 468.5,-272"/>
<text text-anchor="middle" x="436" y="-260" font-family="Helvetica,sans-Serif" font-size="10.00">stdexcept</text>
</a>
</g>
</g>
<!-- Node26&#45;&gt;Node28 -->
<g id="edge44" class="edge">
<title>Node26&#45;&gt;Node28</title>
<path fill="none" stroke="#63b8ff" d="M395.08,-313.37C402.24,-304.64 413.49,-290.93 422.39,-280.09"/>
<polygon fill="#63b8ff" stroke="#63b8ff" points="425.25,-282.12 428.89,-272.17 419.84,-277.68 425.25,-282.12"/>
</g>
<!-- Node29&#45;&gt;Node6 -->
<g id="edge48" class="edge">
<title>Node29&#45;&gt;Node6</title>
<path fill="none" stroke="#63b8ff" d="M167.88,-126.43C174.05,-109.51 190.31,-71.99 218,-55 273.29,-21.07 463.7,-13.01 554.33,-11.09"/>
<polygon fill="#63b8ff" stroke="#63b8ff" points="554.42,-14.59 564.35,-10.9 554.28,-7.59 554.42,-14.59"/>
</g>
<!-- Node29&#45;&gt;Node7 -->
<g id="edge47" class="edge">
<title>Node29&#45;&gt;Node7</title>
<path fill="none" stroke="#63b8ff" d="M182.4,-126.37C204.23,-115.54 241.89,-96.85 267.36,-84.22"/>
<polygon fill="#63b8ff" stroke="#63b8ff" points="269.06,-87.28 276.47,-79.7 265.95,-81.01 269.06,-87.28"/>
</g>
<!-- Node29&#45;&gt;Node8 -->
<g id="edge49" class="edge">
<title>Node29&#45;&gt;Node8</title>
<path fill="none" stroke="#63b8ff" d="M165.21,-126.44C165.69,-106.54 166.89,-56.76 167.55,-29.35"/>
<polygon fill="#63b8ff" stroke="#63b8ff" points="171.05,-29.2 167.79,-19.12 164.05,-29.03 171.05,-29.2"/>
</g>
<!-- Node29&#45;&gt;Node12 -->
<g id="edge46" class="edge">
<title>Node29&#45;&gt;Node12</title>
<path fill="none" stroke="#63b8ff" d="M151.65,-126.37C135.34,-115.82 107.51,-97.84 88.01,-85.23"/>
<polygon fill="#63b8ff" stroke="#63b8ff" points="89.75,-82.19 79.46,-79.7 85.95,-88.07 89.75,-82.19"/>
</g>
<!-- Node30&#45;&gt;Node6 -->
<g id="edge52" class="edge">
<title>Node30&#45;&gt;Node6</title>
<path fill="none" stroke="#63b8ff" d="M1179.23,-439.98C1236.72,-423.2 1312,-388.85 1312,-324 1312,-324 1312,-324 1312,-135 1312,-98.46 1320.93,-78.57 1293,-55 1244.29,-13.89 801.42,-10.36 651.98,-10.36"/>
<polygon fill="#63b8ff" stroke="#63b8ff" points="651.74,-6.86 641.74,-10.36 651.74,-13.86 651.74,-6.86"/>
</g>
</g>
</svg>
