<?xml version="1.0" encoding="UTF-8" standalone="no"?>
<!DOCTYPE svg PUBLIC "-//W3C//DTD SVG 1.1//EN"
 "http://www.w3.org/Graphics/SVG/1.1/DTD/svg11.dtd">
<!-- Generated by graphviz version 2.43.0 (0)
 -->
<!-- Title: src/polyfem/varforms/FESpace.hpp Pages: 1 -->
<!--zoomable 478 -->

<svg id="main" version="1.1" xmlns="http://www.w3.org/2000/svg" xmlns:xlink="http://www.w3.org/1999/xlink" xml:space="preserve" onload="init(evt)">
<style type="text/css"><![CDATA[
.node, .edge {opacity: 0.7;}
.node.selected, .edge.selected {opacity: 1;}
.edge:hover path { stroke: red; }
.edge:hover polygon { stroke: red; fill: red; }
]]></style>

<defs>
  <circle id="rim" cx="0" cy="0" r="7"/>
  <circle id="rim2" cx="0" cy="0" r="3.5"/>
  <g id="zoomPlus">
    <use xlink:href="#rim" fill="#404040"><set attributeName="fill" to="#808080" begin="zoomplus.mouseover" end="zoomplus.mouseout"/></use>
    <path d="M-4,0h8M0,-4v8" fill="none" stroke="white" stroke-width="1.5" pointer-events="none"/>
  </g>
  <g id="zoomMin">
    <use xlink:href="#rim" fill="#404040"><set attributeName="fill" to="#808080" begin="zoomminus.mouseover" end="zoomminus.mouseout"/></use>
    <path d="M-4,0h8" fill="none" stroke="white" stroke-width="1.5" pointer-events="none"/>
  </g>
  <g id="arrowUp" transform="translate(30 24)">
    <use xlink:href="#rim"/>
    <path pointer-events="none" fill="none" stroke="white" stroke-width="1.5" d="M0,-3.0v7 M-2.5,-0.5L0,-3.0L2.5,-0.5"/>
  </g>
  <g id="arrowRight" transform="rotate(90) translate(36 -43)">
    <use xlink:href="#rim"/>
    <path pointer-events="none" fill="none" stroke="white" stroke-width="1.5" d="M0,-3.0v7 M-2.5,-0.5L0,-3.0L2.5,-0.5"/>
  </g>
  <g id="arrowDown" transform="rotate(180) translate(-30 -48)">
    <use xlink:href="#rim"/>
    <path pointer-events="none" fill="none" stroke="white" stroke-width="1.5" d="M0,-3.0v7 M-2.5,-0.5L0,-3.0L2.5,-0.5"/>
  </g>
  <g id="arrowLeft" transform="rotate(270) translate(-36 17)">
    <use xlink:href="#rim"/>
    <path pointer-events="none" fill="none" stroke="white" stroke-width="1.5" d="M0,-3.0v7 M-2.5,-0.5L0,-3.0L2.5,-0.5"/>
  </g>
  <g id="resetDef">
    <use xlink:href="#rim2" fill="#404040"><set attributeName="fill" to="#808080" begin="reset.mouseover" end="reset.mouseout"/></use>
  </g>
</defs>
<script type="application/ecmascript">
var viewWidth = 1750;
var viewHeight = 478;
var sectionId = 'dynsection-0';
</script>
<script type="application/ecmascript" xlink:href="svg.min.js"/>
<svg id="graph" class="graph">
<g id="viewport">
<title>src/polyfem/varforms/FESpace.hpp</title>
<!-- Node1 -->
<g id="Node000001" class="node">
<title>Node1</title>
<g id="a_Node000001"><a xlink:title=" ">
<polygon fill="#999999" stroke="#666666" points="1326.22,-470 1204.22,-470 1204.22,-440 1326.22,-440 1326.22,-470"/>
<text text-anchor="start" x="1212.22" y="-458" font-family="Helvetica,sans-Serif" font-size="10.00">src/polyfem/varforms</text>
<text text-anchor="middle" x="1265.22" y="-447" font-family="Helvetica,sans-Serif" font-size="10.00">/FESpace.hpp</text>
</a>
</g>
</g>
<!-- Node2 -->
<g id="Node000002" class="node">
<title>Node2</title>
<g id="a_Node000002"><a xlink:href="_assembly_vals_cache_8hpp.html" target="_top" xlink:title=" ">
<polygon fill="white" stroke="#666666" points="1173.22,-404 1011.22,-404 1011.22,-374 1173.22,-374 1173.22,-404"/>
<text text-anchor="start" x="1019.22" y="-392" font-family="Helvetica,sans-Serif" font-size="10.00">polyfem/assembler/Assembly</text>
<text text-anchor="middle" x="1092.22" y="-381" font-family="Helvetica,sans-Serif" font-size="10.00">ValsCache.hpp</text>
</a>
</g>
</g>
<!-- Node1&#45;&gt;Node2 -->
<g id="edge1_Node000001_Node000002" class="edge">
<title>Node1&#45;&gt;Node2</title>
<g id="a_edge1_Node000001_Node000002"><a xlink:title=" ">
<path fill="none" stroke="#63b8ff" d="M1227.26,-439.95C1201.46,-430.41 1167.14,-417.71 1139.55,-407.51"/>
<polygon fill="#63b8ff" stroke="#63b8ff" points="1140.69,-404.2 1130.1,-404.01 1138.27,-410.76 1140.69,-404.2"/>
</a>
</g>
</g>
<!-- Node7 -->
<g id="Node000007" class="node">
<title>Node7</title>
<g id="a_Node000007"><a xlink:title=" ">
<polygon fill="#e0e0e0" stroke="#999999" points="752.72,-19 675.72,-19 675.72,0 752.72,0 752.72,-19"/>
<text text-anchor="middle" x="714.22" y="-7" font-family="Helvetica,sans-Serif" font-size="10.00">Eigen/Dense</text>
</a>
</g>
</g>
<!-- Node1&#45;&gt;Node7 -->
<g id="edge56_Node000001_Node000007" class="edge">
<title>Node1&#45;&gt;Node7</title>
<g id="a_edge56_Node000001_Node000007"><a xlink:title=" ">
<path fill="none" stroke="#63b8ff" d="M1203.91,-449.96C1126.68,-443.99 990.29,-430.54 876.22,-404 475.1,-310.66 226.78,-432.81 6.22,-85 -0.92,-73.74 -2.9,-64.72 6.22,-55 28.79,-30.98 508.73,-16.01 665.31,-11.76"/>
<polygon fill="#63b8ff" stroke="#63b8ff" points="665.68,-15.25 675.58,-11.48 665.49,-8.25 665.68,-15.25"/>
</a>
</g>
</g>
<!-- Node8 -->
<g id="Node000008" class="node">
<title>Node8</title>
<g id="a_Node000008"><a xlink:title=" ">
<polygon fill="#e0e0e0" stroke="#999999" points="1286.22,-19 1234.22,-19 1234.22,0 1286.22,0 1286.22,-19"/>
<text text-anchor="middle" x="1260.22" y="-7" font-family="Helvetica,sans-Serif" font-size="10.00">cassert</text>
</a>
</g>
</g>
<!-- Node1&#45;&gt;Node8 -->
<g id="edge58_Node000001_Node000008" class="edge">
<title>Node1&#45;&gt;Node8</title>
<g id="a_edge58_Node000001_Node000008"><a xlink:title=" ">
<path fill="none" stroke="#63b8ff" d="M1326.39,-443.53C1356.47,-436.16 1392.01,-423.92 1419.22,-404 1539.7,-315.81 1654.64,-260.04 1600.22,-121 1585.67,-83.8 1574.44,-73.85 1539.22,-55 1497.85,-32.85 1362.45,-18.95 1296.7,-13.34"/>
<polygon fill="#63b8ff" stroke="#63b8ff" points="1296.66,-9.83 1286.4,-12.48 1296.07,-16.8 1296.66,-9.83"/>
</a>
</g>
</g>
<!-- Node9 -->
<g id="Node000009" class="node">
<title>Node9</title>
<g id="a_Node000009"><a xlink:href="_types_8hpp.html" target="_top" xlink:title=" ">
<polygon fill="white" stroke="#666666" points="148.72,-79.5 15.72,-79.5 15.72,-60.5 148.72,-60.5 148.72,-79.5"/>
<text text-anchor="middle" x="82.22" y="-67.5" font-family="Helvetica,sans-Serif" font-size="10.00">polyfem/utils/Types.hpp</text>
</a>
</g>
</g>
<!-- Node1&#45;&gt;Node9 -->
<g id="edge55_Node000001_Node000009" class="edge">
<title>Node1&#45;&gt;Node9</title>
<g id="a_edge55_Node000001_Node000009"><a xlink:title=" ">
<path fill="none" stroke="#63b8ff" d="M1204.01,-454.62C1010.55,-456 414.21,-455.85 229.22,-404 157.6,-383.92 82.22,-398.38 82.22,-324 82.22,-324 82.22,-324 82.22,-201 82.22,-161.45 82.22,-115.13 82.22,-89.84"/>
<polygon fill="#63b8ff" stroke="#63b8ff" points="85.72,-89.52 82.22,-79.52 78.72,-89.52 85.72,-89.52"/>
</a>
</g>
</g>
<!-- Node13 -->
<g id="Node000013" class="node">
<title>Node13</title>
<g id="a_Node000013"><a xlink:title=" ">
<polygon fill="#e0e0e0" stroke="#999999" points="1309.72,-79.5 1262.72,-79.5 1262.72,-60.5 1309.72,-60.5 1309.72,-79.5"/>
<text text-anchor="middle" x="1286.22" y="-67.5" font-family="Helvetica,sans-Serif" font-size="10.00">vector</text>
</a>
</g>
</g>
<!-- Node1&#45;&gt;Node13 -->
<g id="edge62_Node000001_Node000013" class="edge">
<title>Node1&#45;&gt;Node13</title>
<g id="a_edge62_Node000001_Node000013"><a xlink:title=" ">
<path fill="none" stroke="#63b8ff" d="M1291.26,-439.97C1325.46,-419.42 1381.22,-377.69 1381.22,-324 1381.22,-324 1381.22,-324 1381.22,-201 1381.22,-151.09 1335.02,-107.57 1307.06,-85.8"/>
<polygon fill="#63b8ff" stroke="#63b8ff" points="1309.13,-82.98 1299.04,-79.76 1304.92,-88.57 1309.13,-82.98"/>
</a>
</g>
</g>
<!-- Node14 -->
<g id="Node000014" class="node">
<title>Node14</title>
<g id="a_Node000014"><a xlink:href="_element_bases_8hpp.html" target="_top" xlink:title=" ">
<polygon fill="white" stroke="#666666" points="1014.72,-272 835.72,-272 835.72,-253 1014.72,-253 1014.72,-272"/>
<text text-anchor="middle" x="925.22" y="-260" font-family="Helvetica,sans-Serif" font-size="10.00">polyfem/basis/ElementBases.hpp</text>
</a>
</g>
</g>
<!-- Node1&#45;&gt;Node14 -->
<g id="edge37_Node000001_Node000014" class="edge">
<title>Node1&#45;&gt;Node14</title>
<g id="a_edge37_Node000001_Node000014"><a xlink:title=" ">
<path fill="none" stroke="#63b8ff" d="M1203.95,-448.41C1136.58,-441.23 1033.71,-426.89 1002.22,-404 960.15,-373.41 938.45,-312.52 929.82,-281.94"/>
<polygon fill="#63b8ff" stroke="#63b8ff" points="933.17,-280.92 927.21,-272.15 926.4,-282.72 933.17,-280.92"/>
</a>
</g>
</g>
<!-- Node24 -->
<g id="Node000024" class="node">
<title>Node24</title>
<g id="a_Node000024"><a xlink:title=" ">
<polygon fill="#e0e0e0" stroke="#999999" points="213.22,-145.5 155.22,-145.5 155.22,-126.5 213.22,-126.5 213.22,-145.5"/>
<text text-anchor="middle" x="184.22" y="-133.5" font-family="Helvetica,sans-Serif" font-size="10.00">memory</text>
</a>
</g>
</g>
<!-- Node1&#45;&gt;Node24 -->
<g id="edge60_Node000001_Node000024" class="edge">
<title>Node1&#45;&gt;Node24</title>
<g id="a_edge60_Node000001_Node000024"><a xlink:title=" ">
<path fill="none" stroke="#63b8ff" d="M1204.13,-453.3C972.06,-449.85 158.22,-430.19 158.22,-324 158.22,-324 158.22,-324 158.22,-261.5 158.22,-223.01 170.28,-179.22 177.97,-155.19"/>
<polygon fill="#63b8ff" stroke="#63b8ff" points="181.32,-156.22 181.14,-145.62 174.67,-154.02 181.32,-156.22"/>
</a>
</g>
</g>
<!-- Node25 -->
<g id="Node000025" class="node">
<title>Node25</title>
<g id="a_Node000025"><a xlink:href="_interface_data_8hpp.html" target="_top" xlink:title=" ">
<polygon fill="white" stroke="#666666" points="1353.22,-332.5 1177.22,-332.5 1177.22,-313.5 1353.22,-313.5 1353.22,-332.5"/>
<text text-anchor="middle" x="1265.22" y="-320.5" font-family="Helvetica,sans-Serif" font-size="10.00">polyfem/basis/InterfaceData.hpp</text>
</a>
</g>
</g>
<!-- Node1&#45;&gt;Node25 -->
<g id="edge38_Node000001_Node000025" class="edge">
<title>Node1&#45;&gt;Node25</title>
<g id="a_edge38_Node000001_Node000025"><a xlink:title=" ">
<path fill="none" stroke="#63b8ff" d="M1265.22,-439.84C1265.22,-416.34 1265.22,-369.26 1265.22,-342.93"/>
<polygon fill="#63b8ff" stroke="#63b8ff" points="1268.72,-342.75 1265.22,-332.75 1261.72,-342.75 1268.72,-342.75"/>
</a>
</g>
</g>
<!-- Node26 -->
<g id="Node000026" class="node">
<title>Node26</title>
<g id="a_Node000026"><a xlink:href="_local_boundary_8hpp.html" target="_top" xlink:title=" ">
<polygon fill="white" stroke="#666666" points="1591.22,-145.5 1409.22,-145.5 1409.22,-126.5 1591.22,-126.5 1591.22,-145.5"/>
<text text-anchor="middle" x="1500.22" y="-133.5" font-family="Helvetica,sans-Serif" font-size="10.00">polyfem/mesh/LocalBoundary.hpp</text>
</a>
</g>
</g>
<!-- Node1&#45;&gt;Node26 -->
<g id="edge40_Node000001_Node000026" class="edge">
<title>Node1&#45;&gt;Node26</title>
<g id="a_edge40_Node000001_Node000026"><a xlink:title=" ">
<path fill="none" stroke="#63b8ff" d="M1326.33,-442.09C1350.46,-434.68 1376.77,-422.82 1395.22,-404 1421.71,-377 1424.22,-361.82 1424.22,-324 1424.22,-324 1424.22,-324 1424.22,-261.5 1424.22,-216.84 1460.29,-174.63 1482.73,-152.69"/>
<polygon fill="#63b8ff" stroke="#63b8ff" points="1485.42,-154.96 1490.29,-145.55 1480.61,-149.87 1485.42,-154.96"/>
</a>
</g>
</g>
<!-- Node28 -->
<g id="Node000028" class="node">
<title>Node28</title>
<g id="a_Node000028"><a xlink:href="_mesh_nodes_8hpp.html" target="_top" xlink:title=" ">
<polygon fill="white" stroke="#666666" points="715.22,-272 547.22,-272 547.22,-253 715.22,-253 715.22,-272"/>
<text text-anchor="middle" x="631.22" y="-260" font-family="Helvetica,sans-Serif" font-size="10.00">polyfem/mesh/MeshNodes.hpp</text>
</a>
</g>
</g>
<!-- Node1&#45;&gt;Node28 -->
<g id="edge45_Node000001_Node000028" class="edge">
<title>Node1&#45;&gt;Node28</title>
<g id="a_edge45_Node000001_Node000028"><a xlink:title=" ">
<path fill="none" stroke="#63b8ff" d="M1203.95,-447.76C1143.45,-440.64 1048.72,-426.92 969.22,-404 848.55,-369.21 712.75,-304.4 657.1,-276.66"/>
<polygon fill="#63b8ff" stroke="#63b8ff" points="658.47,-273.43 647.97,-272.07 655.34,-279.68 658.47,-273.43"/>
</a>
</g>
</g>
<!-- Node31 -->
<g id="Node000031" class="node">
<title>Node31</title>
<g id="a_Node000031"><a xlink:title=" ">
<polygon fill="#e0e0e0" stroke="#999999" points="1574.22,-398.5 1510.22,-398.5 1510.22,-379.5 1574.22,-379.5 1574.22,-398.5"/>
<text text-anchor="middle" x="1542.22" y="-386.5" font-family="Helvetica,sans-Serif" font-size="10.00">algorithm</text>
</a>
</g>
</g>
<!-- Node1&#45;&gt;Node31 -->
<g id="edge57_Node000001_Node000031" class="edge">
<title>Node1&#45;&gt;Node31</title>
<g id="a_edge57_Node000001_Node000031"><a xlink:title=" ">
<path fill="none" stroke="#63b8ff" d="M1326.34,-442.2C1373.1,-432.83 1439.04,-418.86 1496.22,-404 1499.38,-403.18 1502.63,-402.29 1505.89,-401.36"/>
<polygon fill="#63b8ff" stroke="#63b8ff" points="1506.96,-404.69 1515.57,-398.52 1504.99,-397.98 1506.96,-404.69"/>
</a>
</g>
</g>
<!-- Node32 -->
<g id="Node000032" class="node">
<title>Node32</title>
<g id="a_Node000032"><a xlink:title=" ">
<polygon fill="#e0e0e0" stroke="#999999" points="1630.22,-398.5 1592.22,-398.5 1592.22,-379.5 1630.22,-379.5 1630.22,-398.5"/>
<text text-anchor="middle" x="1611.22" y="-386.5" font-family="Helvetica,sans-Serif" font-size="10.00">map</text>
</a>
</g>
</g>
<!-- Node1&#45;&gt;Node32 -->
<g id="edge59_Node000001_Node000032" class="edge">
<title>Node1&#45;&gt;Node32</title>
<g id="a_edge59_Node000001_Node000032"><a xlink:title=" ">
<path fill="none" stroke="#63b8ff" d="M1326.29,-449.99C1391.27,-444.45 1496.47,-431.77 1583.22,-404 1584.45,-403.61 1585.68,-403.17 1586.92,-402.7"/>
<polygon fill="#63b8ff" stroke="#63b8ff" points="1588.46,-405.84 1596.18,-398.58 1585.62,-399.44 1588.46,-405.84"/>
</a>
</g>
</g>
<!-- Node33 -->
<g id="Node000033" class="node">
<title>Node33</title>
<g id="a_Node000033"><a xlink:title=" ">
<polygon fill="#e0e0e0" stroke="#999999" points="1741.72,-398.5 1648.72,-398.5 1648.72,-379.5 1741.72,-379.5 1741.72,-398.5"/>
<text text-anchor="middle" x="1695.22" y="-386.5" font-family="Helvetica,sans-Serif" font-size="10.00">unordered_map</text>
</a>
</g>
</g>
<!-- Node1&#45;&gt;Node33 -->
<g id="edge61_Node000001_Node000033" class="edge">
<title>Node1&#45;&gt;Node33</title>
<g id="a_edge61_Node000001_Node000033"><a xlink:title=" ">
<path fill="none" stroke="#63b8ff" d="M1326.46,-447.94C1400.81,-440.1 1529.84,-424.92 1639.22,-404 1643.96,-403.09 1648.89,-402.04 1653.78,-400.91"/>
<polygon fill="#63b8ff" stroke="#63b8ff" points="1654.76,-404.28 1663.67,-398.54 1653.13,-397.47 1654.76,-404.28"/>
</a>
</g>
</g>
<!-- Node3 -->
<g id="Node000003" class="node">
<title>Node3</title>
<g id="a_Node000003"><a xlink:href="_element_assembly_values_8hpp.html" target="_top" xlink:title=" ">
<polygon fill="white" stroke="#666666" points="1149.72,-338 994.72,-338 994.72,-308 1149.72,-308 1149.72,-338"/>
<text text-anchor="start" x="1002.72" y="-326" font-family="Helvetica,sans-Serif" font-size="10.00">polyfem/assembler/Element</text>
<text text-anchor="middle" x="1072.22" y="-315" font-family="Helvetica,sans-Serif" font-size="10.00">AssemblyValues.hpp</text>
</a>
</g>
</g>
<!-- Node2&#45;&gt;Node3 -->
<g id="edge2_Node000002_Node000003" class="edge">
<title>Node2&#45;&gt;Node3</title>
<g id="a_edge2_Node000002_Node000003"><a xlink:title=" ">
<path fill="none" stroke="#63b8ff" d="M1087.79,-373.8C1085.4,-366.17 1082.4,-356.57 1079.68,-347.84"/>
<polygon fill="#63b8ff" stroke="#63b8ff" points="1082.97,-346.66 1076.65,-338.16 1076.29,-348.75 1082.97,-346.66"/>
</a>
</g>
</g>
<!-- Node4 -->
<g id="Node000004" class="node">
<title>Node4</title>
<g id="a_Node000004"><a xlink:href="_assembly_values_8hpp.html" target="_top" xlink:title=" ">
<polygon fill="white" stroke="#666666" points="1006.22,-217 844.22,-217 844.22,-187 1006.22,-187 1006.22,-217"/>
<text text-anchor="start" x="852.22" y="-205" font-family="Helvetica,sans-Serif" font-size="10.00">polyfem/assembler/Assembly</text>
<text text-anchor="middle" x="925.22" y="-194" font-family="Helvetica,sans-Serif" font-size="10.00">Values.hpp</text>
</a>
</g>
</g>
<!-- Node3&#45;&gt;Node4 -->
<g id="edge3_Node000003_Node000004" class="edge">
<title>Node3&#45;&gt;Node4</title>
<g id="a_edge3_Node000003_Node000004"><a xlink:title=" ">
<path fill="none" stroke="#63b8ff" d="M1065.08,-307.75C1056.91,-292.6 1042.29,-268.7 1024.22,-253 1009.26,-240 990.33,-229.37 973.03,-221.31"/>
<polygon fill="#63b8ff" stroke="#63b8ff" points="974.18,-217.99 963.63,-217.09 971.32,-224.38 974.18,-217.99"/>
</a>
</g>
</g>
<!-- Node3&#45;&gt;Node13 -->
<g id="edge36_Node000003_Node000013" class="edge">
<title>Node3&#45;&gt;Node13</title>
<g id="a_edge36_Node000003_Node000013"><a xlink:title=" ">
<path fill="none" stroke="#63b8ff" d="M1099.08,-307.82C1143.47,-282.78 1231.2,-226.19 1271.22,-151 1281.37,-131.95 1284.75,-107.15 1285.82,-90.24"/>
<polygon fill="#63b8ff" stroke="#63b8ff" points="1289.33,-90.11 1286.25,-79.97 1282.34,-89.82 1289.33,-90.11"/>
</a>
</g>
</g>
<!-- Node3&#45;&gt;Node14 -->
<g id="edge16_Node000003_Node000014" class="edge">
<title>Node3&#45;&gt;Node14</title>
<g id="a_edge16_Node000003_Node000014"><a xlink:title=" ">
<path fill="none" stroke="#63b8ff" d="M1037.01,-307.99C1012.49,-298.23 980.07,-285.33 956.46,-275.93"/>
<polygon fill="#63b8ff" stroke="#63b8ff" points="957.52,-272.58 946.93,-272.14 954.93,-279.09 957.52,-272.58"/>
</a>
</g>
</g>
<!-- Node5 -->
<g id="Node000005" class="node">
<title>Node5</title>
<g id="a_Node000005"><a xlink:href="_basis_8hpp.html" target="_top" xlink:title=" ">
<polygon fill="white" stroke="#666666" points="897.22,-145.5 761.22,-145.5 761.22,-126.5 897.22,-126.5 897.22,-145.5"/>
<text text-anchor="middle" x="829.22" y="-133.5" font-family="Helvetica,sans-Serif" font-size="10.00">polyfem/basis/Basis.hpp</text>
</a>
</g>
</g>
<!-- Node4&#45;&gt;Node5 -->
<g id="edge4_Node000004_Node000005" class="edge">
<title>Node4&#45;&gt;Node5</title>
<g id="a_edge4_Node000004_Node000005"><a xlink:title=" ">
<path fill="none" stroke="#63b8ff" d="M903.92,-186.8C888.13,-176.27 866.68,-161.97 850.82,-151.4"/>
<polygon fill="#63b8ff" stroke="#63b8ff" points="852.47,-148.29 842.21,-145.66 848.59,-154.12 852.47,-148.29"/>
</a>
</g>
</g>
<!-- Node4&#45;&gt;Node7 -->
<g id="edge15_Node000004_Node000007" class="edge">
<title>Node4&#45;&gt;Node7</title>
<g id="a_edge15_Node000004_Node000007"><a xlink:title=" ">
<path fill="none" stroke="#63b8ff" d="M927.45,-186.71C930.29,-170.38 935.99,-143.05 945.22,-121 952.47,-103.71 962.15,-103.05 967.22,-85 970.84,-72.17 975.8,-65.21 967.22,-55 941.67,-24.56 829.09,-14.94 763.03,-11.9"/>
<polygon fill="#63b8ff" stroke="#63b8ff" points="762.98,-8.39 752.84,-11.46 762.69,-15.39 762.98,-8.39"/>
</a>
</g>
</g>
<!-- Node6 -->
<g id="Node000006" class="node">
<title>Node6</title>
<g id="a_Node000006"><a xlink:href="_quadrature_8hpp.html" target="_top" xlink:title=" ">
<polygon fill="white" stroke="#666666" points="874.72,-85 761.72,-85 761.72,-55 874.72,-55 874.72,-85"/>
<text text-anchor="start" x="769.72" y="-73" font-family="Helvetica,sans-Serif" font-size="10.00">polyfem/quadrature</text>
<text text-anchor="middle" x="818.22" y="-62" font-family="Helvetica,sans-Serif" font-size="10.00">/Quadrature.hpp</text>
</a>
</g>
</g>
<!-- Node5&#45;&gt;Node6 -->
<g id="edge5_Node000005_Node000006" class="edge">
<title>Node5&#45;&gt;Node6</title>
<g id="a_edge5_Node000005_Node000006"><a xlink:title=" ">
<path fill="none" stroke="#63b8ff" d="M827.74,-126.37C826.37,-118.4 824.27,-106.2 822.4,-95.27"/>
<polygon fill="#63b8ff" stroke="#63b8ff" points="825.84,-94.62 820.69,-85.36 818.94,-95.81 825.84,-94.62"/>
</a>
</g>
</g>
<!-- Node5&#45;&gt;Node7 -->
<g id="edge12_Node000005_Node000007" class="edge">
<title>Node5&#45;&gt;Node7</title>
<g id="a_edge12_Node000005_Node000007"><a xlink:title=" ">
<path fill="none" stroke="#63b8ff" d="M811.06,-126.43C794.36,-117.84 769.76,-103.27 753.22,-85 738.12,-68.31 727.06,-44.69 720.65,-28.55"/>
<polygon fill="#63b8ff" stroke="#63b8ff" points="723.92,-27.29 717.12,-19.17 717.37,-29.76 723.92,-27.29"/>
</a>
</g>
</g>
<!-- Node5&#45;&gt;Node9 -->
<g id="edge8_Node000005_Node000009" class="edge">
<title>Node5&#45;&gt;Node9</title>
<g id="a_edge8_Node000005_Node000009"><a xlink:title=" ">
<path fill="none" stroke="#63b8ff" d="M761.14,-129.97C591.98,-117.48 165.65,-85.96 158.22,-85 150.37,-83.99 142.09,-82.7 134,-81.31"/>
<polygon fill="#63b8ff" stroke="#63b8ff" points="134.37,-77.82 123.91,-79.51 133.14,-84.71 134.37,-77.82"/>
</a>
</g>
</g>
<!-- Node12 -->
<g id="Node000012" class="node">
<title>Node12</title>
<g id="a_Node000012"><a xlink:title=" ">
<polygon fill="#e0e0e0" stroke="#999999" points="957.72,-79.5 892.72,-79.5 892.72,-60.5 957.72,-60.5 957.72,-79.5"/>
<text text-anchor="middle" x="925.22" y="-67.5" font-family="Helvetica,sans-Serif" font-size="10.00">functional</text>
</a>
</g>
</g>
<!-- Node5&#45;&gt;Node12 -->
<g id="edge13_Node000005_Node000012" class="edge">
<title>Node5&#45;&gt;Node12</title>
<g id="a_edge13_Node000005_Node000012"><a xlink:title=" ">
<path fill="none" stroke="#63b8ff" d="M842.17,-126.37C857.92,-115.87 884.73,-98 903.62,-85.4"/>
<polygon fill="#63b8ff" stroke="#63b8ff" points="905.8,-88.16 912.18,-79.7 901.91,-82.33 905.8,-88.16"/>
</a>
</g>
</g>
<!-- Node5&#45;&gt;Node13 -->
<g id="edge14_Node000005_Node000013" class="edge">
<title>Node5&#45;&gt;Node13</title>
<g id="a_edge14_Node000005_Node000013"><a xlink:title=" ">
<path fill="none" stroke="#63b8ff" d="M896.14,-126.47C970.3,-116.9 1093.42,-100.66 1199.22,-85 1216.85,-82.39 1236.45,-79.26 1252.58,-76.62"/>
<polygon fill="#63b8ff" stroke="#63b8ff" points="1253.32,-80.04 1262.62,-74.96 1252.18,-73.14 1253.32,-80.04"/>
</a>
</g>
</g>
<!-- Node6&#45;&gt;Node7 -->
<g id="edge6_Node000006_Node000007" class="edge">
<title>Node6&#45;&gt;Node7</title>
<g id="a_edge6_Node000006_Node000007"><a xlink:title=" ">
<path fill="none" stroke="#63b8ff" d="M793.31,-54.99C776.74,-45.66 755.06,-33.47 738.6,-24.21"/>
<polygon fill="#63b8ff" stroke="#63b8ff" points="740.02,-20.99 729.58,-19.14 736.58,-27.09 740.02,-20.99"/>
</a>
</g>
</g>
<!-- Node6&#45;&gt;Node8 -->
<g id="edge7_Node000006_Node000008" class="edge">
<title>Node6&#45;&gt;Node8</title>
<g id="a_edge7_Node000006_Node000008"><a xlink:title=" ">
<path fill="none" stroke="#63b8ff" d="M875.04,-56.6C878.14,-56.03 881.22,-55.5 884.22,-55 1008.28,-34.55 1156.85,-19.82 1224.05,-13.67"/>
<polygon fill="#63b8ff" stroke="#63b8ff" points="1224.48,-17.15 1234.13,-12.76 1223.85,-10.18 1224.48,-17.15"/>
</a>
</g>
</g>
<!-- Node9&#45;&gt;Node7 -->
<g id="edge9_Node000009_Node000007" class="edge">
<title>Node9&#45;&gt;Node7</title>
<g id="a_edge9_Node000009_Node000007"><a xlink:title=" ">
<path fill="none" stroke="#63b8ff" d="M124.31,-60.45C135.31,-58.44 147.18,-56.45 158.22,-55 344.88,-30.4 568.7,-17.5 665.58,-12.72"/>
<polygon fill="#63b8ff" stroke="#63b8ff" points="665.84,-16.21 675.66,-12.23 665.5,-9.22 665.84,-16.21"/>
</a>
</g>
</g>
<!-- Node10 -->
<g id="Node000010" class="node">
<title>Node10</title>
<g id="a_Node000010"><a xlink:title=" ">
<polygon fill="#e0e0e0" stroke="#999999" points="388.22,-19 308.22,-19 308.22,0 388.22,0 388.22,-19"/>
<text text-anchor="middle" x="348.22" y="-7" font-family="Helvetica,sans-Serif" font-size="10.00">Eigen/Sparse</text>
</a>
</g>
</g>
<!-- Node9&#45;&gt;Node10 -->
<g id="edge10_Node000009_Node000010" class="edge">
<title>Node9&#45;&gt;Node10</title>
<g id="a_edge10_Node000009_Node000010"><a xlink:title=" ">
<path fill="none" stroke="#63b8ff" d="M120.9,-60.49C168.18,-50.1 248.23,-32.49 299.62,-21.19"/>
<polygon fill="#63b8ff" stroke="#63b8ff" points="300.48,-24.58 309.5,-19.02 298.98,-17.75 300.48,-24.58"/>
</a>
</g>
</g>
<!-- Node11 -->
<g id="Node000011" class="node">
<title>Node11</title>
<g id="a_Node000011"><a xlink:title=" ">
<polygon fill="#e0e0e0" stroke="#999999" points="145.72,-19 18.72,-19 18.72,0 145.72,0 145.72,-19"/>
<text text-anchor="middle" x="82.22" y="-7" font-family="Helvetica,sans-Serif" font-size="10.00">ipc/utils/eigen_ext.hpp</text>
</a>
</g>
</g>
<!-- Node9&#45;&gt;Node11 -->
<g id="edge11_Node000009_Node000011" class="edge">
<title>Node9&#45;&gt;Node11</title>
<g id="a_edge11_Node000009_Node000011"><a xlink:title=" ">
<path fill="none" stroke="#63b8ff" d="M82.22,-60.37C82.22,-52.25 82.22,-39.81 82.22,-29.39"/>
<polygon fill="#63b8ff" stroke="#63b8ff" points="85.72,-29.17 82.22,-19.17 78.72,-29.17 85.72,-29.17"/>
</a>
</g>
</g>
<!-- Node14&#45;&gt;Node4 -->
<g id="edge34_Node000014_Node000004" class="edge">
<title>Node14&#45;&gt;Node4</title>
<g id="a_edge34_Node000014_Node000004"><a xlink:title=" ">
<path fill="none" stroke="#63b8ff" d="M925.22,-252.87C925.22,-246.11 925.22,-236.35 925.22,-227.26"/>
<polygon fill="#63b8ff" stroke="#63b8ff" points="928.72,-227.11 925.22,-217.11 921.72,-227.11 928.72,-227.11"/>
</a>
</g>
</g>
<!-- Node14&#45;&gt;Node5 -->
<g id="edge17_Node000014_Node000005" class="edge">
<title>Node14&#45;&gt;Node5</title>
<g id="a_edge17_Node000014_Node000005"><a xlink:title=" ">
<path fill="none" stroke="#63b8ff" d="M889.12,-252.97C869.85,-246.45 847.6,-235.35 835.22,-217 823.03,-198.91 823.51,-172.99 825.72,-155.61"/>
<polygon fill="#63b8ff" stroke="#63b8ff" points="829.2,-156.01 827.31,-145.59 822.29,-154.92 829.2,-156.01"/>
</a>
</g>
</g>
<!-- Node14&#45;&gt;Node6 -->
<g id="edge18_Node000014_Node000006" class="edge">
<title>Node14&#45;&gt;Node6</title>
<g id="a_edge18_Node000014_Node000006"><a xlink:title=" ">
<path fill="none" stroke="#63b8ff" d="M893.05,-253C850.22,-239.62 777.01,-209.01 752.22,-151 746.99,-138.74 746.29,-132.94 752.22,-121 758.39,-108.59 769.28,-98.43 780.45,-90.59"/>
<polygon fill="#63b8ff" stroke="#63b8ff" points="782.5,-93.44 788.98,-85.05 778.69,-87.57 782.5,-93.44"/>
</a>
</g>
</g>
<!-- Node14&#45;&gt;Node13 -->
<g id="edge35_Node000014_Node000013" class="edge">
<title>Node14&#45;&gt;Node13</title>
<g id="a_edge35_Node000014_Node000013"><a xlink:title=" ">
<path fill="none" stroke="#63b8ff" d="M1014.99,-255.31C1061.47,-249.55 1118.18,-238.44 1165.22,-217 1208.11,-197.46 1218.91,-187.91 1248.22,-151 1263.13,-132.23 1273.97,-106.66 1280.17,-89.53"/>
<polygon fill="#63b8ff" stroke="#63b8ff" points="1283.63,-90.24 1283.57,-79.65 1277.01,-87.97 1283.63,-90.24"/>
</a>
</g>
</g>
<!-- Node15 -->
<g id="Node000015" class="node">
<title>Node15</title>
<g id="a_Node000015"><a xlink:href="_mesh_8hpp.html" target="_top" xlink:title=" ">
<polygon fill="white" stroke="#666666" points="634.72,-211.5 497.72,-211.5 497.72,-192.5 634.72,-192.5 634.72,-211.5"/>
<text text-anchor="middle" x="566.22" y="-199.5" font-family="Helvetica,sans-Serif" font-size="10.00">polyfem/mesh/Mesh.hpp</text>
</a>
</g>
</g>
<!-- Node14&#45;&gt;Node15 -->
<g id="edge19_Node000014_Node000015" class="edge">
<title>Node14&#45;&gt;Node15</title>
<g id="a_edge19_Node000014_Node000015"><a xlink:title=" ">
<path fill="none" stroke="#63b8ff" d="M873.02,-252.99C808.15,-242.42 697.57,-224.4 628.39,-213.13"/>
<polygon fill="#63b8ff" stroke="#63b8ff" points="628.92,-209.67 618.49,-211.52 627.8,-216.58 628.92,-209.67"/>
</a>
</g>
</g>
<!-- Node15&#45;&gt;Node7 -->
<g id="edge31_Node000015_Node000007" class="edge">
<title>Node15&#45;&gt;Node7</title>
<g id="a_edge31_Node000015_Node000007"><a xlink:title=" ">
<path fill="none" stroke="#63b8ff" d="M583.66,-192.44C599.65,-183.84 623.07,-169.27 638.22,-151 668.07,-115.02 657.61,-95.35 681.22,-55 686.86,-45.37 694.17,-35.33 700.47,-27.22"/>
<polygon fill="#63b8ff" stroke="#63b8ff" points="703.29,-29.3 706.79,-19.31 697.82,-24.94 703.29,-29.3"/>
</a>
</g>
</g>
<!-- Node15&#45;&gt;Node9 -->
<g id="edge26_Node000015_Node000009" class="edge">
<title>Node15&#45;&gt;Node9</title>
<g id="a_edge26_Node000015_Node000009"><a xlink:title=" ">
<path fill="none" stroke="#63b8ff" d="M497.62,-194.37C444.35,-187.67 369.35,-174.78 307.22,-151 283.02,-141.74 281,-131.31 257.22,-121 216.99,-103.54 168.94,-90.32 133.38,-81.87"/>
<polygon fill="#63b8ff" stroke="#63b8ff" points="133.77,-78.36 123.23,-79.51 132.18,-85.18 133.77,-78.36"/>
</a>
</g>
</g>
<!-- Node16 -->
<g id="Node000016" class="node">
<title>Node16</title>
<g id="a_Node000016"><a xlink:href="_common_8hpp.html" target="_top" xlink:title=" ">
<polygon fill="white" stroke="#666666" points="628.72,-145.5 503.72,-145.5 503.72,-126.5 628.72,-126.5 628.72,-145.5"/>
<text text-anchor="middle" x="566.22" y="-133.5" font-family="Helvetica,sans-Serif" font-size="10.00">polyfem/Common.hpp</text>
</a>
</g>
</g>
<!-- Node15&#45;&gt;Node16 -->
<g id="edge20_Node000015_Node000016" class="edge">
<title>Node15&#45;&gt;Node16</title>
<g id="a_edge20_Node000015_Node000016"><a xlink:title=" ">
<path fill="none" stroke="#63b8ff" d="M566.22,-192.37C566.22,-183.16 566.22,-168.29 566.22,-156.27"/>
<polygon fill="#63b8ff" stroke="#63b8ff" points="569.72,-155.91 566.22,-145.91 562.72,-155.91 569.72,-155.91"/>
</a>
</g>
</g>
<!-- Node18 -->
<g id="Node000018" class="node">
<title>Node18</title>
<g id="a_Node000018"><a xlink:href="_navigation_8hpp.html" target="_top" xlink:title=" ">
<polygon fill="white" stroke="#666666" points="446.72,-151 315.72,-151 315.72,-121 446.72,-121 446.72,-151"/>
<text text-anchor="start" x="323.72" y="-139" font-family="Helvetica,sans-Serif" font-size="10.00">polyfem/mesh/mesh2D</text>
<text text-anchor="middle" x="381.22" y="-128" font-family="Helvetica,sans-Serif" font-size="10.00">/Navigation.hpp</text>
</a>
</g>
</g>
<!-- Node15&#45;&gt;Node18 -->
<g id="edge23_Node000015_Node000018" class="edge">
<title>Node15&#45;&gt;Node18</title>
<g id="a_edge23_Node000015_Node000018"><a xlink:title=" ">
<path fill="none" stroke="#63b8ff" d="M541.27,-192.37C513.33,-182.7 467.29,-166.77 431.75,-154.48"/>
<polygon fill="#63b8ff" stroke="#63b8ff" points="432.62,-151.08 422.03,-151.12 430.33,-157.69 432.62,-151.08"/>
</a>
</g>
</g>
<!-- Node19 -->
<g id="Node000019" class="node">
<title>Node19</title>
<g id="a_Node000019"><a xlink:title=" ">
<polygon fill="#e0e0e0" stroke="#999999" points="462.72,-79.5 333.72,-79.5 333.72,-60.5 462.72,-60.5 462.72,-79.5"/>
<text text-anchor="middle" x="398.22" y="-67.5" font-family="Helvetica,sans-Serif" font-size="10.00">geogram/mesh/mesh.h</text>
</a>
</g>
</g>
<!-- Node15&#45;&gt;Node19 -->
<g id="edge32_Node000015_Node000019" class="edge">
<title>Node15&#45;&gt;Node19</title>
<g id="a_edge32_Node000015_Node000019"><a xlink:title=" ">
<path fill="none" stroke="#63b8ff" d="M553.45,-192.43C539.07,-182.7 515.12,-166.18 495.22,-151 466.8,-129.32 435.05,-102.64 415.86,-86.23"/>
<polygon fill="#63b8ff" stroke="#63b8ff" points="418.08,-83.53 408.21,-79.67 413.52,-88.84 418.08,-83.53"/>
</a>
</g>
</g>
<!-- Node21 -->
<g id="Node000021" class="node">
<title>Node21</title>
<g id="a_Node000021"><a xlink:href="_hash_utils_8hpp.html" target="_top" xlink:title=" ">
<polygon fill="white" stroke="#666666" points="1239.22,-145.5 1087.22,-145.5 1087.22,-126.5 1239.22,-126.5 1239.22,-145.5"/>
<text text-anchor="middle" x="1163.22" y="-133.5" font-family="Helvetica,sans-Serif" font-size="10.00">polyfem/utils/HashUtils.hpp</text>
</a>
</g>
</g>
<!-- Node15&#45;&gt;Node21 -->
<g id="edge27_Node000015_Node000021" class="edge">
<title>Node15&#45;&gt;Node21</title>
<g id="a_edge27_Node000015_Node000021"><a xlink:title=" ">
<path fill="none" stroke="#63b8ff" d="M635.12,-195.72C733.59,-187.85 920.15,-171.71 1078.22,-151 1086.84,-149.87 1095.93,-148.53 1104.83,-147.14"/>
<polygon fill="#63b8ff" stroke="#63b8ff" points="1105.44,-150.59 1114.76,-145.55 1104.33,-143.67 1105.44,-150.59"/>
</a>
</g>
</g>
<!-- Node15&#45;&gt;Node24 -->
<g id="edge33_Node000015_Node000024" class="edge">
<title>Node15&#45;&gt;Node24</title>
<g id="a_edge33_Node000015_Node000024"><a xlink:title=" ">
<path fill="none" stroke="#63b8ff" d="M515.1,-192.44C437.95,-179.51 293.37,-155.29 223.72,-143.62"/>
<polygon fill="#63b8ff" stroke="#63b8ff" points="224.05,-140.12 213.61,-141.92 222.89,-147.03 224.05,-140.12"/>
</a>
</g>
</g>
<!-- Node16&#45;&gt;Node10 -->
<g id="edge21_Node000016_Node000010" class="edge">
<title>Node16&#45;&gt;Node10</title>
<g id="a_edge21_Node000016_Node000010"><a xlink:title=" ">
<path fill="none" stroke="#63b8ff" d="M556.36,-126.26C534.18,-106.64 481.54,-60.4 472.22,-55 447.09,-40.44 416.37,-29.38 391.8,-21.92"/>
<polygon fill="#63b8ff" stroke="#63b8ff" points="392.61,-18.51 382.03,-19.05 390.63,-25.23 392.61,-18.51"/>
</a>
</g>
</g>
<!-- Node17 -->
<g id="Node000017" class="node">
<title>Node17</title>
<g id="a_Node000017"><a xlink:title=" ">
<polygon fill="#e0e0e0" stroke="#999999" points="629.22,-79.5 519.22,-79.5 519.22,-60.5 629.22,-60.5 629.22,-79.5"/>
<text text-anchor="middle" x="574.22" y="-67.5" font-family="Helvetica,sans-Serif" font-size="10.00">nlohmann/json.hpp</text>
</a>
</g>
</g>
<!-- Node16&#45;&gt;Node17 -->
<g id="edge22_Node000016_Node000017" class="edge">
<title>Node16&#45;&gt;Node17</title>
<g id="a_edge22_Node000016_Node000017"><a xlink:title=" ">
<path fill="none" stroke="#63b8ff" d="M567.3,-126.37C568.47,-117.07 570.35,-101.98 571.86,-89.9"/>
<polygon fill="#63b8ff" stroke="#63b8ff" points="575.34,-90.26 573.11,-79.91 568.4,-89.39 575.34,-90.26"/>
</a>
</g>
</g>
<!-- Node18&#45;&gt;Node19 -->
<g id="edge24_Node000018_Node000019" class="edge">
<title>Node18&#45;&gt;Node19</title>
<g id="a_edge24_Node000018_Node000019"><a xlink:title=" ">
<path fill="none" stroke="#63b8ff" d="M385,-120.8C387.44,-111.6 390.65,-99.53 393.29,-89.58"/>
<polygon fill="#63b8ff" stroke="#63b8ff" points="396.69,-90.41 395.88,-79.84 389.93,-88.61 396.69,-90.41"/>
</a>
</g>
</g>
<!-- Node20 -->
<g id="Node000020" class="node">
<title>Node20</title>
<g id="a_Node000020"><a xlink:title=" ">
<polygon fill="#e0e0e0" stroke="#999999" points="315.22,-79.5 167.22,-79.5 167.22,-60.5 315.22,-60.5 315.22,-79.5"/>
<text text-anchor="middle" x="241.22" y="-67.5" font-family="Helvetica,sans-Serif" font-size="10.00">geogram/basic/attributes.h</text>
</a>
</g>
</g>
<!-- Node18&#45;&gt;Node20 -->
<g id="edge25_Node000018_Node000020" class="edge">
<title>Node18&#45;&gt;Node20</title>
<g id="a_edge25_Node000018_Node000020"><a xlink:title=" ">
<path fill="none" stroke="#63b8ff" d="M350.5,-120.95C326.27,-109.88 292.76,-94.56 269.26,-83.82"/>
<polygon fill="#63b8ff" stroke="#63b8ff" points="270.41,-80.49 259.86,-79.52 267.5,-86.86 270.41,-80.49"/>
</a>
</g>
</g>
<!-- Node21&#45;&gt;Node13 -->
<g id="edge30_Node000021_Node000013" class="edge">
<title>Node21&#45;&gt;Node13</title>
<g id="a_edge30_Node000021_Node000013"><a xlink:title=" ">
<path fill="none" stroke="#63b8ff" d="M1179.81,-126.37C1200.54,-115.59 1236.22,-97.02 1260.5,-84.38"/>
<polygon fill="#63b8ff" stroke="#63b8ff" points="1262.25,-87.42 1269.51,-79.7 1259.02,-81.21 1262.25,-87.42"/>
</a>
</g>
</g>
<!-- Node22 -->
<g id="Node000022" class="node">
<title>Node22</title>
<g id="a_Node000022"><a xlink:title=" ">
<polygon fill="#e0e0e0" stroke="#999999" points="1189.72,-79.5 1136.72,-79.5 1136.72,-60.5 1189.72,-60.5 1189.72,-79.5"/>
<text text-anchor="middle" x="1163.22" y="-67.5" font-family="Helvetica,sans-Serif" font-size="10.00">cstddef</text>
</a>
</g>
</g>
<!-- Node21&#45;&gt;Node22 -->
<g id="edge28_Node000021_Node000022" class="edge">
<title>Node21&#45;&gt;Node22</title>
<g id="a_edge28_Node000021_Node000022"><a xlink:title=" ">
<path fill="none" stroke="#63b8ff" d="M1163.22,-126.37C1163.22,-117.16 1163.22,-102.29 1163.22,-90.27"/>
<polygon fill="#63b8ff" stroke="#63b8ff" points="1166.72,-89.91 1163.22,-79.91 1159.72,-89.91 1166.72,-89.91"/>
</a>
</g>
</g>
<!-- Node23 -->
<g id="Node000023" class="node">
<title>Node23</title>
<g id="a_Node000023"><a xlink:title=" ">
<polygon fill="#e0e0e0" stroke="#999999" points="1396.22,-79.5 1354.22,-79.5 1354.22,-60.5 1396.22,-60.5 1396.22,-79.5"/>
<text text-anchor="middle" x="1375.22" y="-67.5" font-family="Helvetica,sans-Serif" font-size="10.00">array</text>
</a>
</g>
</g>
<!-- Node21&#45;&gt;Node23 -->
<g id="edge29_Node000021_Node000023" class="edge">
<title>Node21&#45;&gt;Node23</title>
<g id="a_edge29_Node000021_Node000023"><a xlink:title=" ">
<path fill="none" stroke="#63b8ff" d="M1191.82,-126.37C1231.62,-114.35 1303.43,-92.67 1344.4,-80.31"/>
<polygon fill="#63b8ff" stroke="#63b8ff" points="1345.55,-83.62 1354.11,-77.38 1343.52,-76.91 1345.55,-83.62"/>
</a>
</g>
</g>
<!-- Node25&#45;&gt;Node13 -->
<g id="edge39_Node000025_Node000013" class="edge">
<title>Node25&#45;&gt;Node13</title>
<g id="a_edge39_Node000025_Node000013"><a xlink:title=" ">
<path fill="none" stroke="#63b8ff" d="M1279.85,-313.43C1292.94,-304.84 1311.24,-290.26 1319.22,-272 1346.09,-210.5 1338.52,-185.28 1319.22,-121 1315.55,-108.77 1307.81,-96.77 1300.75,-87.6"/>
<polygon fill="#63b8ff" stroke="#63b8ff" points="1303.38,-85.28 1294.35,-79.75 1297.96,-89.71 1303.38,-85.28"/>
</a>
</g>
</g>
<!-- Node26&#45;&gt;Node8 -->
<g id="edge44_Node000026_Node000008" class="edge">
<title>Node26&#45;&gt;Node8</title>
<g id="a_edge44_Node000026_Node000008"><a xlink:title=" ">
<path fill="none" stroke="#63b8ff" d="M1492.2,-126.21C1476.84,-109.9 1441.58,-74.81 1405.22,-55 1370.58,-36.12 1326.82,-24.1 1296.48,-17.37"/>
<polygon fill="#63b8ff" stroke="#63b8ff" points="1296.85,-13.87 1286.34,-15.21 1295.39,-20.72 1296.85,-13.87"/>
</a>
</g>
</g>
<!-- Node26&#45;&gt;Node13 -->
<g id="edge42_Node000026_Node000013" class="edge">
<title>Node26&#45;&gt;Node13</title>
<g id="a_edge42_Node000026_Node000013"><a xlink:title=" ">
<path fill="none" stroke="#63b8ff" d="M1471.36,-126.37C1431.95,-114.58 1361.42,-93.49 1319.72,-81.02"/>
<polygon fill="#63b8ff" stroke="#63b8ff" points="1320.61,-77.63 1310.02,-78.12 1318.6,-84.34 1320.61,-77.63"/>
</a>
</g>
</g>
<!-- Node26&#45;&gt;Node23 -->
<g id="edge41_Node000026_Node000023" class="edge">
<title>Node26&#45;&gt;Node23</title>
<g id="a_edge41_Node000026_Node000023"><a xlink:title=" ">
<path fill="none" stroke="#63b8ff" d="M1483.37,-126.37C1462.31,-115.59 1426.04,-97.02 1401.37,-84.38"/>
<polygon fill="#63b8ff" stroke="#63b8ff" points="1402.71,-81.14 1392.21,-79.7 1399.52,-87.37 1402.71,-81.14"/>
</a>
</g>
</g>
<!-- Node27 -->
<g id="Node000027" class="node">
<title>Node27</title>
<g id="a_Node000027"><a xlink:title=" ">
<polygon fill="#e0e0e0" stroke="#999999" points="1530.22,-79.5 1470.22,-79.5 1470.22,-60.5 1530.22,-60.5 1530.22,-79.5"/>
<text text-anchor="middle" x="1500.22" y="-67.5" font-family="Helvetica,sans-Serif" font-size="10.00">iostream</text>
</a>
</g>
</g>
<!-- Node26&#45;&gt;Node27 -->
<g id="edge43_Node000026_Node000027" class="edge">
<title>Node26&#45;&gt;Node27</title>
<g id="a_edge43_Node000026_Node000027"><a xlink:title=" ">
<path fill="none" stroke="#63b8ff" d="M1500.22,-126.37C1500.22,-117.16 1500.22,-102.29 1500.22,-90.27"/>
<polygon fill="#63b8ff" stroke="#63b8ff" points="1503.72,-89.91 1500.22,-79.91 1496.72,-89.91 1503.72,-89.91"/>
</a>
</g>
</g>
<!-- Node28&#45;&gt;Node7 -->
<g id="edge54_Node000028_Node000007" class="edge">
<title>Node28&#45;&gt;Node7</title>
<g id="a_edge54_Node000028_Node000007"><a xlink:title=" ">
<path fill="none" stroke="#63b8ff" d="M634.08,-252.86C645.95,-216.96 691.54,-79.09 708.14,-28.9"/>
<polygon fill="#63b8ff" stroke="#63b8ff" points="711.56,-29.7 711.38,-19.1 704.92,-27.5 711.56,-29.7"/>
</a>
</g>
</g>
<!-- Node28&#45;&gt;Node9 -->
<g id="edge47_Node000028_Node000009" class="edge">
<title>Node28&#45;&gt;Node9</title>
<g id="a_edge47_Node000028_Node000009"><a xlink:title=" ">
<path fill="none" stroke="#63b8ff" d="M587.13,-252.95C547.75,-244.93 488.67,-231.95 438.22,-217 356.13,-192.67 331.14,-194.22 257.22,-151 239.54,-140.66 239.94,-131.28 222.22,-121 192.17,-103.56 155.01,-90.64 126.53,-82.3"/>
<polygon fill="#63b8ff" stroke="#63b8ff" points="127.42,-78.91 116.84,-79.54 125.5,-85.65 127.42,-78.91"/>
</a>
</g>
</g>
<!-- Node28&#45;&gt;Node15 -->
<g id="edge46_Node000028_Node000015" class="edge">
<title>Node28&#45;&gt;Node15</title>
<g id="a_edge46_Node000028_Node000015"><a xlink:title=" ">
<path fill="none" stroke="#63b8ff" d="M621.63,-252.87C611.65,-243.88 595.79,-229.61 583.6,-218.64"/>
<polygon fill="#63b8ff" stroke="#63b8ff" points="585.63,-215.76 575.86,-211.67 580.95,-220.96 585.63,-215.76"/>
</a>
</g>
</g>
<!-- Node28&#45;&gt;Node18 -->
<g id="edge48_Node000028_Node000018" class="edge">
<title>Node28&#45;&gt;Node18</title>
<g id="a_edge48_Node000028_Node000018"><a xlink:title=" ">
<path fill="none" stroke="#63b8ff" d="M591.89,-252.93C562.6,-245.67 522.15,-233.75 489.22,-217 457.46,-200.84 425.16,-175.49 404.26,-157.66"/>
<polygon fill="#63b8ff" stroke="#63b8ff" points="406.43,-154.91 396.58,-151 401.84,-160.2 406.43,-154.91"/>
</a>
</g>
</g>
<!-- Node29 -->
<g id="Node000029" class="node">
<title>Node29</title>
<g id="a_Node000029"><a xlink:href="_navigation3_d_8hpp.html" target="_top" xlink:title=" ">
<polygon fill="white" stroke="#666666" points="1155.72,-217 1024.72,-217 1024.72,-187 1155.72,-187 1155.72,-217"/>
<text text-anchor="start" x="1032.72" y="-205" font-family="Helvetica,sans-Serif" font-size="10.00">polyfem/mesh/mesh3D</text>
<text text-anchor="middle" x="1090.22" y="-194" font-family="Helvetica,sans-Serif" font-size="10.00">/Navigation3D.hpp</text>
</a>
</g>
</g>
<!-- Node28&#45;&gt;Node29 -->
<g id="edge49_Node000028_Node000029" class="edge">
<title>Node28&#45;&gt;Node29</title>
<g id="a_edge49_Node000028_Node000029"><a xlink:title=" ">
<path fill="none" stroke="#63b8ff" d="M715.34,-253.44C790.93,-245.81 905.2,-233.33 1014.22,-217.08"/>
<polygon fill="#63b8ff" stroke="#63b8ff" points="1015.05,-220.5 1024.42,-215.55 1014.01,-213.58 1015.05,-220.5"/>
</a>
</g>
</g>
<!-- Node30 -->
<g id="Node000030" class="node">
<title>Node30</title>
<g id="a_Node000030"><a xlink:href="_mesh3_d_storage_8hpp.html" target="_top" xlink:title=" ">
<polygon fill="white" stroke="#666666" points="1068.72,-145.5 953.72,-145.5 953.72,-126.5 1068.72,-126.5 1068.72,-145.5"/>
<text text-anchor="middle" x="1011.22" y="-133.5" font-family="Helvetica,sans-Serif" font-size="10.00">Mesh3DStorage.hpp</text>
</a>
</g>
</g>
<!-- Node29&#45;&gt;Node30 -->
<g id="edge50_Node000029_Node000030" class="edge">
<title>Node29&#45;&gt;Node30</title>
<g id="a_edge50_Node000029_Node000030"><a xlink:title=" ">
<path fill="none" stroke="#63b8ff" d="M1072.69,-186.8C1060.01,-176.53 1042.91,-162.67 1029.96,-152.18"/>
<polygon fill="#63b8ff" stroke="#63b8ff" points="1032.12,-149.42 1022.14,-145.84 1027.71,-154.86 1032.12,-149.42"/>
</a>
</g>
</g>
<!-- Node30&#45;&gt;Node7 -->
<g id="edge52_Node000030_Node000007" class="edge">
<title>Node30&#45;&gt;Node7</title>
<g id="a_edge52_Node000030_Node000007"><a xlink:title=" ">
<path fill="none" stroke="#63b8ff" d="M1013.04,-126.1C1015.84,-109.6 1019.09,-74.2 1000.22,-55 968.04,-22.24 836.05,-13.58 763.15,-11.3"/>
<polygon fill="#63b8ff" stroke="#63b8ff" points="762.94,-7.79 752.85,-11.01 762.74,-14.79 762.94,-7.79"/>
</a>
</g>
</g>
<!-- Node30&#45;&gt;Node8 -->
<g id="edge53_Node000030_Node000008" class="edge">
<title>Node30&#45;&gt;Node8</title>
<g id="a_edge53_Node000030_Node000008"><a xlink:title=" ">
<path fill="none" stroke="#63b8ff" d="M1021.58,-126.45C1041.27,-110.54 1085.94,-76.08 1128.22,-55 1159.32,-39.5 1197.08,-27.38 1224.23,-19.73"/>
<polygon fill="#63b8ff" stroke="#63b8ff" points="1225.37,-23.05 1234.09,-17.02 1223.52,-16.3 1225.37,-23.05"/>
</a>
</g>
</g>
<!-- Node30&#45;&gt;Node13 -->
<g id="edge51_Node000030_Node000013" class="edge">
<title>Node30&#45;&gt;Node13</title>
<g id="a_edge51_Node000030_Node000013"><a xlink:title=" ">
<path fill="none" stroke="#63b8ff" d="M1048.03,-126.44C1101.7,-113.94 1200.69,-90.91 1252.54,-78.84"/>
<polygon fill="#63b8ff" stroke="#63b8ff" points="1253.61,-82.18 1262.56,-76.51 1252.03,-75.37 1253.61,-82.18"/>
</a>
</g>
</g>
</g>
</svg>

<g id="navigator" transform="translate(0 0)" fill="#404254">
  <rect fill="#f2f5e9" fill-opacity="0.5" stroke="#606060" stroke-width=".5" x="0" y="0" width="60" height="60"/>
  <use id="zoomplus" xlink:href="#zoomPlus" x="17" y="9" onmousedown="handleZoom(evt,'in')"/>
  <use id="zoomminus" xlink:href="#zoomMin" x="42" y="9" onmousedown="handleZoom(evt,'out')"/>
  <use id="reset" xlink:href="#resetDef" x="30" y="36" onmousedown="handleReset()"/>
   <use id="arrowup" xlink:href="#arrowUp" x="0" y="0" onmousedown="handlePan(0,-1)"/>
  <use id="arrowright" xlink:href="#arrowRight" x="0" y="0" onmousedown="handlePan(1,0)"/>
  <use id="arrowdown" xlink:href="#arrowDown" x="0" y="0" onmousedown="handlePan(0,1)"/>
  <use id="arrowleft" xlink:href="#arrowLeft" x="0" y="0" onmousedown="handlePan(-1,0)"/>
</g>
<svg viewBox="0 0 15 15" width="100%" height="30px" preserveAspectRatio="xMaxYMin meet">
 <g id="arrow_out" transform="scale(0.3 0.3)">
  <a xlink:href="_f_e_space_8hpp__incl_org.svg" target="_base">
   <rect id="button" ry="5" rx="5" y="6" x="6" height="38" width="38"
        fill="#f2f5e9" fill-opacity="0.5" stroke="#606060" stroke-width="1.0"/>
   <path id="arrow"
     d="M 11.500037,31.436501 C 11.940474,20.09759 22.043105,11.32322 32.158766,21.979434 L 37.068811,17.246167 C 37.068811,17.246167 37.088388,32 37.088388,32 L 22.160133,31.978069 C 22.160133,31.978069 26.997745,27.140456 26.997745,27.140456 C 18.528582,18.264221 13.291696,25.230495 11.500037,31.436501 z"
     style="fill:#404040;"/>
  </a>
 </g>
</svg>

<style type='text/css'>
<![CDATA[
[data-mouse-over-selected='false'] { opacity: 0.7; }
[data-mouse-over-selected='true']  { opacity: 1.0; }
]]>
</style>
<script type="application/ecmascript"><![CDATA[
document.addEventListener('DOMContentLoaded', (event) => {
  highlightEdges();
  highlightAdjacentNodes();
});
]]></script>
</svg>
