<?xml version="1.0" encoding="UTF-8" standalone="no"?>
<!DOCTYPE svg PUBLIC "-//W3C//DTD SVG 1.1//EN"
 "http://www.w3.org/Graphics/SVG/1.1/DTD/svg11.dtd">
<!-- Generated by graphviz version 2.43.0 (0)
 -->
<!-- Title: src/polyfem/solver/forms/FrictionForm.hpp Pages: 1 -->
<svg width="1125pt" height="225pt"
 viewBox="0.00 0.00 1124.50 225.00" xmlns="http://www.w3.org/2000/svg" xmlns:xlink="http://www.w3.org/1999/xlink">
<g id="graph0" class="graph" transform="scale(1 1) rotate(0) translate(4 221)">
<title>src/polyfem/solver/forms/FrictionForm.hpp</title>
<!-- Node1 -->
<g id="Node000001" class="node">
<title>Node1</title>
<g id="a_Node000001"><a xlink:title=" ">
<polygon fill="#999999" stroke="#666666" points="740,-217 607,-217 607,-187 740,-187 740,-217"/>
<text text-anchor="start" x="615" y="-205" font-family="Helvetica,sans-Serif" font-size="10.00">src/polyfem/solver</text>
<text text-anchor="middle" x="673.5" y="-194" font-family="Helvetica,sans-Serif" font-size="10.00">/forms/FrictionForm.hpp</text>
</a>
</g>
</g>
<!-- Node2 -->
<g id="Node000002" class="node">
<title>Node2</title>
<g id="a_Node000002"><a xlink:href="_form_8hpp.html" target="_top" xlink:title=" ">
<polygon fill="white" stroke="#666666" points="292.5,-145.5 230.5,-145.5 230.5,-126.5 292.5,-126.5 292.5,-145.5"/>
<text text-anchor="middle" x="261.5" y="-133.5" font-family="Helvetica,sans-Serif" font-size="10.00">Form.hpp</text>
</a>
</g>
</g>
<!-- Node1&#45;&gt;Node2 -->
<g id="edge1_Node000001_Node000002" class="edge">
<title>Node1&#45;&gt;Node2</title>
<g id="a_edge1_Node000001_Node000002"><a xlink:title=" ">
<path fill="none" stroke="#63b8ff" d="M606.85,-190.65C520.89,-177.29 373.99,-154.47 302.71,-143.4"/>
<polygon fill="#63b8ff" stroke="#63b8ff" points="303.18,-139.93 292.76,-141.86 302.1,-146.85 303.18,-139.93"/>
</a>
</g>
</g>
<!-- Node3 -->
<g id="Node000003" class="node">
<title>Node3</title>
<g id="a_Node000003"><a xlink:href="_types_8hpp.html" target="_top" xlink:title=" ">
<polygon fill="white" stroke="#666666" points="133,-79.5 0,-79.5 0,-60.5 133,-60.5 133,-79.5"/>
<text text-anchor="middle" x="66.5" y="-67.5" font-family="Helvetica,sans-Serif" font-size="10.00">polyfem/utils/Types.hpp</text>
</a>
</g>
</g>
<!-- Node1&#45;&gt;Node3 -->
<g id="edge15_Node000001_Node000003" class="edge">
<title>Node1&#45;&gt;Node3</title>
<g id="a_edge15_Node000001_Node000003"><a xlink:title=" ">
<path fill="none" stroke="#63b8ff" d="M606.87,-201.16C517.35,-199.69 354.14,-191.06 221.5,-151 170.49,-135.59 116.38,-103.57 87.52,-85.05"/>
<polygon fill="#63b8ff" stroke="#63b8ff" points="89.37,-82.08 79.08,-79.55 85.55,-87.94 89.37,-82.08"/>
</a>
</g>
</g>
<!-- Node8 -->
<g id="Node000008" class="node">
<title>Node8</title>
<g id="a_Node000008"><a xlink:href="_implicit_time_integrator_8hpp.html" target="_top" xlink:title=" ">
<polygon fill="white" stroke="#666666" points="621,-151 472,-151 472,-121 621,-121 621,-151"/>
<text text-anchor="start" x="480" y="-139" font-family="Helvetica,sans-Serif" font-size="10.00">polyfem/time_integrator</text>
<text text-anchor="middle" x="546.5" y="-128" font-family="Helvetica,sans-Serif" font-size="10.00">/ImplicitTimeIntegrator.hpp</text>
</a>
</g>
</g>
<!-- Node1&#45;&gt;Node8 -->
<g id="edge7_Node000001_Node000008" class="edge">
<title>Node1&#45;&gt;Node8</title>
<g id="a_edge7_Node000001_Node000008"><a xlink:title=" ">
<path fill="none" stroke="#63b8ff" d="M645.63,-186.95C627.35,-177.74 603.25,-165.6 583.38,-155.59"/>
<polygon fill="#63b8ff" stroke="#63b8ff" points="584.81,-152.39 574.31,-151.01 581.66,-158.64 584.81,-152.39"/>
</a>
</g>
</g>
<!-- Node15 -->
<g id="Node000015" class="node">
<title>Node15</title>
<g id="a_Node000015"><a xlink:title=" ">
<polygon fill="#e0e0e0" stroke="#999999" points="708,-145.5 639,-145.5 639,-126.5 708,-126.5 708,-145.5"/>
<text text-anchor="middle" x="673.5" y="-133.5" font-family="Helvetica,sans-Serif" font-size="10.00">ipc/ipc.hpp</text>
</a>
</g>
</g>
<!-- Node1&#45;&gt;Node15 -->
<g id="edge16_Node000001_Node000015" class="edge">
<title>Node1&#45;&gt;Node15</title>
<g id="a_edge16_Node000001_Node000015"><a xlink:title=" ">
<path fill="none" stroke="#63b8ff" d="M673.5,-186.8C673.5,-177.7 673.5,-165.79 673.5,-155.9"/>
<polygon fill="#63b8ff" stroke="#63b8ff" points="677,-155.84 673.5,-145.84 670,-155.84 677,-155.84"/>
</a>
</g>
</g>
<!-- Node16 -->
<g id="Node000016" class="node">
<title>Node16</title>
<g id="a_Node000016"><a xlink:title=" ">
<polygon fill="#e0e0e0" stroke="#999999" points="854.5,-145.5 726.5,-145.5 726.5,-126.5 854.5,-126.5 854.5,-145.5"/>
<text text-anchor="middle" x="790.5" y="-133.5" font-family="Helvetica,sans-Serif" font-size="10.00">ipc/collision_mesh.hpp</text>
</a>
</g>
</g>
<!-- Node1&#45;&gt;Node16 -->
<g id="edge17_Node000001_Node000016" class="edge">
<title>Node1&#45;&gt;Node16</title>
<g id="a_edge17_Node000001_Node000016"><a xlink:title=" ">
<path fill="none" stroke="#63b8ff" d="M699.18,-186.95C719.06,-176.08 746.43,-161.11 766.01,-150.4"/>
<polygon fill="#63b8ff" stroke="#63b8ff" points="767.84,-153.39 774.93,-145.52 764.48,-147.25 767.84,-153.39"/>
</a>
</g>
</g>
<!-- Node17 -->
<g id="Node000017" class="node">
<title>Node17</title>
<g id="a_Node000017"><a xlink:title=" ">
<polygon fill="#e0e0e0" stroke="#999999" points="978.5,-151 872.5,-151 872.5,-121 978.5,-121 978.5,-151"/>
<text text-anchor="start" x="880.5" y="-139" font-family="Helvetica,sans-Serif" font-size="10.00">ipc/friction/friction</text>
<text text-anchor="middle" x="925.5" y="-128" font-family="Helvetica,sans-Serif" font-size="10.00">_collisions.hpp</text>
</a>
</g>
</g>
<!-- Node1&#45;&gt;Node17 -->
<g id="edge18_Node000001_Node000017" class="edge">
<title>Node1&#45;&gt;Node17</title>
<g id="a_edge18_Node000001_Node000017"><a xlink:title=" ">
<path fill="none" stroke="#63b8ff" d="M728.8,-186.95C768.29,-176.93 821.47,-163.42 862.58,-152.98"/>
<polygon fill="#63b8ff" stroke="#63b8ff" points="863.65,-156.32 872.48,-150.46 861.93,-149.53 863.65,-156.32"/>
</a>
</g>
</g>
<!-- Node18 -->
<g id="Node000018" class="node">
<title>Node18</title>
<g id="a_Node000018"><a xlink:title=" ">
<polygon fill="#e0e0e0" stroke="#999999" points="1116.5,-151 996.5,-151 996.5,-121 1116.5,-121 1116.5,-151"/>
<text text-anchor="start" x="1004.5" y="-139" font-family="Helvetica,sans-Serif" font-size="10.00">ipc/potentials/friction</text>
<text text-anchor="middle" x="1056.5" y="-128" font-family="Helvetica,sans-Serif" font-size="10.00">_potential.hpp</text>
</a>
</g>
</g>
<!-- Node1&#45;&gt;Node18 -->
<g id="edge19_Node000001_Node000018" class="edge">
<title>Node1&#45;&gt;Node18</title>
<g id="a_edge19_Node000001_Node000018"><a xlink:title=" ">
<path fill="none" stroke="#63b8ff" d="M740.1,-191.23C801.52,-182.03 895.47,-167.48 986.39,-151.16"/>
<polygon fill="#63b8ff" stroke="#63b8ff" points="987.1,-154.59 996.32,-149.37 985.86,-147.7 987.1,-154.59"/>
</a>
</g>
</g>
<!-- Node2&#45;&gt;Node3 -->
<g id="edge2_Node000002_Node000003" class="edge">
<title>Node2&#45;&gt;Node3</title>
<g id="a_edge2_Node000002_Node000003"><a xlink:title=" ">
<path fill="none" stroke="#63b8ff" d="M235.2,-126.37C200.94,-115.12 140.89,-95.42 102.45,-82.8"/>
<polygon fill="#63b8ff" stroke="#63b8ff" points="103.29,-79.39 92.69,-79.6 101.1,-86.04 103.29,-79.39"/>
</a>
</g>
</g>
<!-- Node6 -->
<g id="Node000006" class="node">
<title>Node6</title>
<g id="a_Node000006"><a xlink:title=" ">
<polygon fill="#e0e0e0" stroke="#999999" points="264,-85 151,-85 151,-55 264,-55 264,-85"/>
<text text-anchor="start" x="159" y="-73" font-family="Helvetica,sans-Serif" font-size="10.00">polysolve/nonlinear</text>
<text text-anchor="middle" x="207.5" y="-62" font-family="Helvetica,sans-Serif" font-size="10.00">/PostStepData.hpp</text>
</a>
</g>
</g>
<!-- Node2&#45;&gt;Node6 -->
<g id="edge5_Node000002_Node000006" class="edge">
<title>Node2&#45;&gt;Node6</title>
<g id="a_edge5_Node000002_Node000006"><a xlink:title=" ">
<path fill="none" stroke="#63b8ff" d="M254.22,-126.37C247.08,-117.91 235.91,-104.67 226.28,-93.25"/>
<polygon fill="#63b8ff" stroke="#63b8ff" points="228.74,-90.75 219.62,-85.36 223.39,-95.26 228.74,-90.75"/>
</a>
</g>
</g>
<!-- Node7 -->
<g id="Node000007" class="node">
<title>Node7</title>
<g id="a_Node000007"><a xlink:title=" ">
<polygon fill="#e0e0e0" stroke="#999999" points="350.5,-79.5 282.5,-79.5 282.5,-60.5 350.5,-60.5 350.5,-79.5"/>
<text text-anchor="middle" x="316.5" y="-67.5" font-family="Helvetica,sans-Serif" font-size="10.00">filesystem</text>
</a>
</g>
</g>
<!-- Node2&#45;&gt;Node7 -->
<g id="edge6_Node000002_Node000007" class="edge">
<title>Node2&#45;&gt;Node7</title>
<g id="a_edge6_Node000002_Node000007"><a xlink:title=" ">
<path fill="none" stroke="#63b8ff" d="M268.92,-126.37C277.4,-116.5 291.48,-100.11 302.13,-87.72"/>
<polygon fill="#63b8ff" stroke="#63b8ff" points="304.98,-89.77 308.85,-79.91 299.67,-85.21 304.98,-89.77"/>
</a>
</g>
</g>
<!-- Node4 -->
<g id="Node000004" class="node">
<title>Node4</title>
<g id="a_Node000004"><a xlink:title=" ">
<polygon fill="#e0e0e0" stroke="#999999" points="105,-19 28,-19 28,0 105,0 105,-19"/>
<text text-anchor="middle" x="66.5" y="-7" font-family="Helvetica,sans-Serif" font-size="10.00">Eigen/Dense</text>
</a>
</g>
</g>
<!-- Node3&#45;&gt;Node4 -->
<g id="edge3_Node000003_Node000004" class="edge">
<title>Node3&#45;&gt;Node4</title>
<g id="a_edge3_Node000003_Node000004"><a xlink:title=" ">
<path fill="none" stroke="#63b8ff" d="M66.5,-60.37C66.5,-52.25 66.5,-39.81 66.5,-29.39"/>
<polygon fill="#63b8ff" stroke="#63b8ff" points="70,-29.17 66.5,-19.17 63,-29.17 70,-29.17"/>
</a>
</g>
</g>
<!-- Node5 -->
<g id="Node000005" class="node">
<title>Node5</title>
<g id="a_Node000005"><a xlink:title=" ">
<polygon fill="#e0e0e0" stroke="#999999" points="281.5,-19 201.5,-19 201.5,0 281.5,0 281.5,-19"/>
<text text-anchor="middle" x="241.5" y="-7" font-family="Helvetica,sans-Serif" font-size="10.00">Eigen/Sparse</text>
</a>
</g>
</g>
<!-- Node3&#45;&gt;Node5 -->
<g id="edge4_Node000003_Node000005" class="edge">
<title>Node3&#45;&gt;Node5</title>
<g id="a_edge4_Node000003_Node000005"><a xlink:title=" ">
<path fill="none" stroke="#63b8ff" d="M91.95,-60.49C122.14,-50.4 172.66,-33.51 206.52,-22.19"/>
<polygon fill="#63b8ff" stroke="#63b8ff" points="207.65,-25.51 216.02,-19.02 205.43,-18.87 207.65,-25.51"/>
</a>
</g>
</g>
<!-- Node9 -->
<g id="Node000009" class="node">
<title>Node9</title>
<g id="a_Node000009"><a xlink:href="_common_8hpp.html" target="_top" xlink:title=" ">
<polygon fill="white" stroke="#666666" points="494,-79.5 369,-79.5 369,-60.5 494,-60.5 494,-79.5"/>
<text text-anchor="middle" x="431.5" y="-67.5" font-family="Helvetica,sans-Serif" font-size="10.00">polyfem/Common.hpp</text>
</a>
</g>
</g>
<!-- Node8&#45;&gt;Node9 -->
<g id="edge8_Node000008_Node000009" class="edge">
<title>Node8&#45;&gt;Node9</title>
<g id="a_edge8_Node000008_Node000009"><a xlink:title=" ">
<path fill="none" stroke="#63b8ff" d="M521.26,-120.95C501.72,-110.08 474.82,-95.11 455.57,-84.4"/>
<polygon fill="#63b8ff" stroke="#63b8ff" points="457.24,-81.32 446.8,-79.52 453.84,-87.44 457.24,-81.32"/>
</a>
</g>
</g>
<!-- Node11 -->
<g id="Node000011" class="node">
<title>Node11</title>
<g id="a_Node000011"><a xlink:title=" ">
<polygon fill="#e0e0e0" stroke="#999999" points="581,-79.5 512,-79.5 512,-60.5 581,-60.5 581,-79.5"/>
<text text-anchor="middle" x="546.5" y="-67.5" font-family="Helvetica,sans-Serif" font-size="10.00">Eigen/Core</text>
</a>
</g>
</g>
<!-- Node8&#45;&gt;Node11 -->
<g id="edge11_Node000008_Node000011" class="edge">
<title>Node8&#45;&gt;Node11</title>
<g id="a_edge11_Node000008_Node000011"><a xlink:title=" ">
<path fill="none" stroke="#63b8ff" d="M546.5,-120.8C546.5,-111.7 546.5,-99.79 546.5,-89.9"/>
<polygon fill="#63b8ff" stroke="#63b8ff" points="550,-89.84 546.5,-79.84 543,-89.84 550,-89.84"/>
</a>
</g>
</g>
<!-- Node12 -->
<g id="Node000012" class="node">
<title>Node12</title>
<g id="a_Node000012"><a xlink:title=" ">
<polygon fill="#e0e0e0" stroke="#999999" points="637.5,-79.5 599.5,-79.5 599.5,-60.5 637.5,-60.5 637.5,-79.5"/>
<text text-anchor="middle" x="618.5" y="-67.5" font-family="Helvetica,sans-Serif" font-size="10.00">map</text>
</a>
</g>
</g>
<!-- Node8&#45;&gt;Node12 -->
<g id="edge12_Node000008_Node000012" class="edge">
<title>Node8&#45;&gt;Node12</title>
<g id="a_edge12_Node000008_Node000012"><a xlink:title=" ">
<path fill="none" stroke="#63b8ff" d="M562.48,-120.8C573.81,-110.72 589.03,-97.19 600.75,-86.78"/>
<polygon fill="#63b8ff" stroke="#63b8ff" points="603.4,-89.1 608.55,-79.84 598.75,-83.87 603.4,-89.1"/>
</a>
</g>
</g>
<!-- Node13 -->
<g id="Node000013" class="node">
<title>Node13</title>
<g id="a_Node000013"><a xlink:title=" ">
<polygon fill="#e0e0e0" stroke="#999999" points="703,-79.5 656,-79.5 656,-60.5 703,-60.5 703,-79.5"/>
<text text-anchor="middle" x="679.5" y="-67.5" font-family="Helvetica,sans-Serif" font-size="10.00">vector</text>
</a>
</g>
</g>
<!-- Node8&#45;&gt;Node13 -->
<g id="edge13_Node000008_Node000013" class="edge">
<title>Node8&#45;&gt;Node13</title>
<g id="a_edge13_Node000008_Node000013"><a xlink:title=" ">
<path fill="none" stroke="#63b8ff" d="M575.69,-120.95C598.6,-109.93 630.25,-94.7 652.57,-83.96"/>
<polygon fill="#63b8ff" stroke="#63b8ff" points="654.31,-87.01 661.8,-79.52 651.27,-80.7 654.31,-87.01"/>
</a>
</g>
</g>
<!-- Node14 -->
<g id="Node000014" class="node">
<title>Node14</title>
<g id="a_Node000014"><a xlink:title=" ">
<polygon fill="#e0e0e0" stroke="#999999" points="768,-79.5 721,-79.5 721,-60.5 768,-60.5 768,-79.5"/>
<text text-anchor="middle" x="744.5" y="-67.5" font-family="Helvetica,sans-Serif" font-size="10.00">deque</text>
</a>
</g>
</g>
<!-- Node8&#45;&gt;Node14 -->
<g id="edge14_Node000008_Node000014" class="edge">
<title>Node8&#45;&gt;Node14</title>
<g id="a_edge14_Node000008_Node000014"><a xlink:title=" ">
<path fill="none" stroke="#63b8ff" d="M598.99,-120.93C631.92,-111.68 675.07,-98.77 712.5,-85 713.89,-84.49 715.3,-83.95 716.72,-83.39"/>
<polygon fill="#63b8ff" stroke="#63b8ff" points="718.14,-86.59 726.04,-79.52 715.46,-80.12 718.14,-86.59"/>
</a>
</g>
</g>
<!-- Node9&#45;&gt;Node5 -->
<g id="edge9_Node000009_Node000005" class="edge">
<title>Node9&#45;&gt;Node5</title>
<g id="a_edge9_Node000009_Node000005"><a xlink:title=" ">
<path fill="none" stroke="#63b8ff" d="M403.87,-60.49C370.95,-50.36 315.77,-33.37 279.01,-22.05"/>
<polygon fill="#63b8ff" stroke="#63b8ff" points="279.75,-18.61 269.16,-19.02 277.69,-25.3 279.75,-18.61"/>
</a>
</g>
</g>
<!-- Node10 -->
<g id="Node000010" class="node">
<title>Node10</title>
<g id="a_Node000010"><a xlink:title=" ">
<polygon fill="#e0e0e0" stroke="#999999" points="486.5,-19 376.5,-19 376.5,0 486.5,0 486.5,-19"/>
<text text-anchor="middle" x="431.5" y="-7" font-family="Helvetica,sans-Serif" font-size="10.00">nlohmann/json.hpp</text>
</a>
</g>
</g>
<!-- Node9&#45;&gt;Node10 -->
<g id="edge10_Node000009_Node000010" class="edge">
<title>Node9&#45;&gt;Node10</title>
<g id="a_edge10_Node000009_Node000010"><a xlink:title=" ">
<path fill="none" stroke="#63b8ff" d="M431.5,-60.37C431.5,-52.25 431.5,-39.81 431.5,-29.39"/>
<polygon fill="#63b8ff" stroke="#63b8ff" points="435,-29.17 431.5,-19.17 428,-29.17 435,-29.17"/>
</a>
</g>
</g>
</g>
</svg>
