<?xml version="1.0" encoding="UTF-8" standalone="no"?>
<!DOCTYPE svg PUBLIC "-//W3C//DTD SVG 1.1//EN"
 "http://www.w3.org/Graphics/SVG/1.1/DTD/svg11.dtd">
<!-- Generated by graphviz version 2.43.0 (0)
 -->
<!-- Title: src/polyfem/solver/forms/FrictionForm.hpp Pages: 1 -->
<svg width="1377pt" height="192pt"
 viewBox="0.00 0.00 1377.00 192.00" xmlns="http://www.w3.org/2000/svg" xmlns:xlink="http://www.w3.org/1999/xlink">
<g id="graph0" class="graph" transform="scale(1 1) rotate(0) translate(4 188)">
<title>src/polyfem/solver/forms/FrictionForm.hpp</title>
<!-- Node1 -->
<g id="Node000001" class="node">
<title>Node1</title>
<g id="a_Node000001"><a xlink:title=" ">
<polygon fill="#999999" stroke="#666666" points="686.5,-184 553.5,-184 553.5,-154 686.5,-154 686.5,-184"/>
<text text-anchor="start" x="561.5" y="-172" font-family="Helvetica,sans-Serif" font-size="10.00">src/polyfem/solver</text>
<text text-anchor="middle" x="620" y="-161" font-family="Helvetica,sans-Serif" font-size="10.00">/forms/FrictionForm.hpp</text>
</a>
</g>
</g>
<!-- Node2 -->
<g id="Node000002" class="node">
<title>Node2</title>
<g id="a_Node000002"><a xlink:href="_out_data_8cpp.html" target="_top" xlink:title=" ">
<polygon fill="white" stroke="#666666" points="150,-107 0,-107 0,-88 150,-88 150,-107"/>
<text text-anchor="middle" x="75" y="-95" font-family="Helvetica,sans-Serif" font-size="10.00">src/polyfem/io/OutData.cpp</text>
</a>
</g>
</g>
<!-- Node1&#45;&gt;Node2 -->
<g id="edge1_Node000001_Node000002" class="edge">
<title>Node1&#45;&gt;Node2</title>
<g id="a_edge1_Node000001_Node000002"><a xlink:title=" ">
<path fill="none" stroke="#63b8ff" d="M543.02,-162.08C452.09,-154.5 296.43,-139.71 164,-118 146.05,-115.06 126.27,-110.82 109.92,-107.05"/>
<polygon fill="#63b8ff" stroke="#63b8ff" points="542.99,-165.59 553.24,-162.92 543.56,-158.61 542.99,-165.59"/>
</a>
</g>
</g>
<!-- Node3 -->
<g id="Node000003" class="node">
<title>Node3</title>
<g id="a_Node000003"><a xlink:href="_adjoint_tools_8cpp.html" target="_top" xlink:title=" ">
<polygon fill="white" stroke="#666666" points="352.5,-35.5 213.5,-35.5 213.5,-5.5 352.5,-5.5 352.5,-35.5"/>
<text text-anchor="start" x="221.5" y="-23.5" font-family="Helvetica,sans-Serif" font-size="10.00">src/polyfem/optimization</text>
<text text-anchor="middle" x="283" y="-12.5" font-family="Helvetica,sans-Serif" font-size="10.00">/AdjointTools.cpp</text>
</a>
</g>
</g>
<!-- Node1&#45;&gt;Node3 -->
<g id="edge2_Node000001_Node000003" class="edge">
<title>Node1&#45;&gt;Node3</title>
<g id="a_edge2_Node000001_Node000003"><a xlink:title=" ">
<path fill="none" stroke="#63b8ff" d="M543.25,-164.36C427.57,-158.09 219.56,-143.39 197,-118 184.89,-104.38 188.28,-93 197,-77 207.37,-57.96 227.39,-44.47 245.5,-35.55"/>
<polygon fill="#63b8ff" stroke="#63b8ff" points="543.29,-167.87 553.46,-164.91 543.66,-160.88 543.29,-167.87"/>
</a>
</g>
</g>
<!-- Node4 -->
<g id="Node000004" class="node">
<title>Node4</title>
<g id="a_Node000004"><a xlink:href="_state_diff_8cpp.html" target="_top" xlink:title=" ">
<polygon fill="white" stroke="#666666" points="345.5,-112.5 206.5,-112.5 206.5,-82.5 345.5,-82.5 345.5,-112.5"/>
<text text-anchor="start" x="214.5" y="-100.5" font-family="Helvetica,sans-Serif" font-size="10.00">src/polyfem/optimization</text>
<text text-anchor="middle" x="276" y="-89.5" font-family="Helvetica,sans-Serif" font-size="10.00">/StateDiff.cpp</text>
</a>
</g>
</g>
<!-- Node1&#45;&gt;Node4 -->
<g id="edge3_Node000001_Node000004" class="edge">
<title>Node1&#45;&gt;Node4</title>
<g id="a_edge3_Node000001_Node000004"><a xlink:title=" ">
<path fill="none" stroke="#63b8ff" d="M543.35,-154.7C490.31,-145.21 418.18,-131.75 355,-118 347.27,-116.32 339.14,-114.44 331.16,-112.53"/>
<polygon fill="#63b8ff" stroke="#63b8ff" points="542.9,-158.17 553.36,-156.48 544.13,-151.28 542.9,-158.17"/>
</a>
</g>
</g>
<!-- Node5 -->
<g id="Node000005" class="node">
<title>Node5</title>
<g id="a_Node000005"><a xlink:href="_friction_force_derivative_8cpp.html" target="_top" xlink:title=" ">
<polygon fill="white" stroke="#666666" points="590,-41 420,-41 420,0 590,0 590,-41"/>
<text text-anchor="start" x="428" y="-29" font-family="Helvetica,sans-Serif" font-size="10.00">src/polyfem/optimization</text>
<text text-anchor="start" x="428" y="-18" font-family="Helvetica,sans-Serif" font-size="10.00">/force_derivatives/FrictionForce</text>
<text text-anchor="middle" x="505" y="-7" font-family="Helvetica,sans-Serif" font-size="10.00">Derivative.cpp</text>
</a>
</g>
</g>
<!-- Node1&#45;&gt;Node5 -->
<g id="edge4_Node000001_Node000005" class="edge">
<title>Node1&#45;&gt;Node5</title>
<g id="a_edge4_Node000001_Node000005"><a xlink:title=" ">
<path fill="none" stroke="#63b8ff" d="M602.6,-145.83C580.28,-117.39 541.9,-68.5 520.52,-41.27"/>
<polygon fill="#63b8ff" stroke="#63b8ff" points="600.05,-148.25 608.97,-153.95 605.55,-143.93 600.05,-148.25"/>
</a>
</g>
</g>
<!-- Node6 -->
<g id="Node000006" class="node">
<title>Node6</title>
<g id="a_Node000006"><a xlink:href="_friction_force_derivative_8hpp.html" target="_top" xlink:title=" ">
<polygon fill="white" stroke="#666666" points="534,-118 364,-118 364,-77 534,-77 534,-118"/>
<text text-anchor="start" x="372" y="-106" font-family="Helvetica,sans-Serif" font-size="10.00">src/polyfem/optimization</text>
<text text-anchor="start" x="372" y="-95" font-family="Helvetica,sans-Serif" font-size="10.00">/force_derivatives/FrictionForce</text>
<text text-anchor="middle" x="449" y="-84" font-family="Helvetica,sans-Serif" font-size="10.00">Derivative.hpp</text>
</a>
</g>
</g>
<!-- Node1&#45;&gt;Node6 -->
<g id="edge5_Node000001_Node000006" class="edge">
<title>Node1&#45;&gt;Node6</title>
<g id="a_edge5_Node000001_Node000006"><a xlink:title=" ">
<path fill="none" stroke="#63b8ff" d="M576.11,-150.16C551.96,-140.35 521.95,-128.15 497.16,-118.07"/>
<polygon fill="#63b8ff" stroke="#63b8ff" points="574.81,-153.41 585.4,-153.94 577.45,-146.93 574.81,-153.41"/>
</a>
</g>
</g>
<!-- Node7 -->
<g id="Node000007" class="node">
<title>Node7</title>
<g id="a_Node000007"><a xlink:href="_surface_traction_forms_8cpp.html" target="_top" xlink:title=" ">
<polygon fill="white" stroke="#666666" points="766,-112.5 590,-112.5 590,-82.5 766,-82.5 766,-112.5"/>
<text text-anchor="start" x="598" y="-100.5" font-family="Helvetica,sans-Serif" font-size="10.00">src/polyfem/optimization</text>
<text text-anchor="middle" x="678" y="-89.5" font-family="Helvetica,sans-Serif" font-size="10.00">/forms/SurfaceTractionForms.cpp</text>
</a>
</g>
</g>
<!-- Node1&#45;&gt;Node7 -->
<g id="edge8_Node000001_Node000007" class="edge">
<title>Node1&#45;&gt;Node7</title>
<g id="a_edge8_Node000001_Node000007"><a xlink:title=" ">
<path fill="none" stroke="#63b8ff" d="M638.34,-146.03C647.48,-135.07 658.27,-122.15 666.28,-112.54"/>
<polygon fill="#63b8ff" stroke="#63b8ff" points="635.46,-144.02 631.74,-153.94 640.83,-148.5 635.46,-144.02"/>
</a>
</g>
</g>
<!-- Node8 -->
<g id="Node000008" class="node">
<title>Node8</title>
<g id="a_Node000008"><a xlink:href="_solve_data_8cpp.html" target="_top" xlink:title=" ">
<polygon fill="white" stroke="#666666" points="890.5,-112.5 783.5,-112.5 783.5,-82.5 890.5,-82.5 890.5,-112.5"/>
<text text-anchor="start" x="791.5" y="-100.5" font-family="Helvetica,sans-Serif" font-size="10.00">src/polyfem/solver</text>
<text text-anchor="middle" x="837" y="-89.5" font-family="Helvetica,sans-Serif" font-size="10.00">/SolveData.cpp</text>
</a>
</g>
</g>
<!-- Node1&#45;&gt;Node8 -->
<g id="edge9_Node000001_Node000008" class="edge">
<title>Node1&#45;&gt;Node8</title>
<g id="a_edge9_Node000001_Node000008"><a xlink:title=" ">
<path fill="none" stroke="#63b8ff" d="M673.49,-150.87C710.3,-139.08 758.61,-123.61 793.15,-112.54"/>
<polygon fill="#63b8ff" stroke="#63b8ff" points="672.37,-147.55 663.91,-153.94 674.5,-154.22 672.37,-147.55"/>
</a>
</g>
</g>
<!-- Node9 -->
<g id="Node000009" class="node">
<title>Node9</title>
<g id="a_Node000009"><a xlink:href="_contact_form_8cpp.html" target="_top" xlink:title=" ">
<polygon fill="white" stroke="#666666" points="1043,-112.5 909,-112.5 909,-82.5 1043,-82.5 1043,-112.5"/>
<text text-anchor="start" x="917" y="-100.5" font-family="Helvetica,sans-Serif" font-size="10.00">src/polyfem/solver</text>
<text text-anchor="middle" x="976" y="-89.5" font-family="Helvetica,sans-Serif" font-size="10.00">/forms/ContactForm.cpp</text>
</a>
</g>
</g>
<!-- Node1&#45;&gt;Node9 -->
<g id="edge10_Node000001_Node000009" class="edge">
<title>Node1&#45;&gt;Node9</title>
<g id="a_edge10_Node000001_Node000009"><a xlink:title=" ">
<path fill="none" stroke="#63b8ff" d="M696.67,-155.89C753.11,-146.59 831.6,-132.86 900,-118 907.59,-116.35 915.56,-114.47 923.38,-112.54"/>
<polygon fill="#63b8ff" stroke="#63b8ff" points="696.05,-152.45 686.75,-157.52 697.18,-159.35 696.05,-152.45"/>
</a>
</g>
</g>
<!-- Node10 -->
<g id="Node000010" class="node">
<title>Node10</title>
<g id="a_Node000010"><a xlink:href="_friction_form_8cpp.html" target="_top" xlink:title=" ">
<polygon fill="white" stroke="#666666" points="1193,-112.5 1061,-112.5 1061,-82.5 1193,-82.5 1193,-112.5"/>
<text text-anchor="start" x="1069" y="-100.5" font-family="Helvetica,sans-Serif" font-size="10.00">src/polyfem/solver</text>
<text text-anchor="middle" x="1127" y="-89.5" font-family="Helvetica,sans-Serif" font-size="10.00">/forms/FrictionForm.cpp</text>
</a>
</g>
</g>
<!-- Node1&#45;&gt;Node10 -->
<g id="edge11_Node000001_Node000010" class="edge">
<title>Node1&#45;&gt;Node10</title>
<g id="a_edge11_Node000001_Node000010"><a xlink:title=" ">
<path fill="none" stroke="#63b8ff" d="M696.69,-162.37C783.44,-155.25 928.68,-141.05 1052,-118 1060.07,-116.49 1068.55,-114.6 1076.79,-112.58"/>
<polygon fill="#63b8ff" stroke="#63b8ff" points="696.35,-158.88 686.67,-163.18 696.92,-165.86 696.35,-158.88"/>
</a>
</g>
</g>
<!-- Node11 -->
<g id="Node000011" class="node">
<title>Node11</title>
<g id="a_Node000011"><a xlink:href="_state_solve_nonlinear_8cpp.html" target="_top" xlink:title=" ">
<polygon fill="white" stroke="#666666" points="1369,-112.5 1211,-112.5 1211,-82.5 1369,-82.5 1369,-112.5"/>
<text text-anchor="start" x="1219" y="-100.5" font-family="Helvetica,sans-Serif" font-size="10.00">src/polyfem/state/StateSolve</text>
<text text-anchor="middle" x="1290" y="-89.5" font-family="Helvetica,sans-Serif" font-size="10.00">Nonlinear.cpp</text>
</a>
</g>
</g>
<!-- Node1&#45;&gt;Node11 -->
<g id="edge12_Node000001_Node000011" class="edge">
<title>Node1&#45;&gt;Node11</title>
<g id="a_edge12_Node000001_Node000011"><a xlink:title=" ">
<path fill="none" stroke="#63b8ff" d="M696.84,-164.64C808.56,-159.03 1022.16,-145.53 1202,-118 1211.59,-116.53 1221.7,-114.63 1231.51,-112.59"/>
<polygon fill="#63b8ff" stroke="#63b8ff" points="696.49,-161.16 686.67,-165.15 696.84,-168.15 696.49,-161.16"/>
</a>
</g>
</g>
<!-- Node6&#45;&gt;Node3 -->
<g id="edge6_Node000006_Node000003" class="edge">
<title>Node6&#45;&gt;Node3</title>
<g id="a_edge6_Node000006_Node000003"><a xlink:title=" ">
<path fill="none" stroke="#63b8ff" d="M396.48,-72.77C369.4,-60.54 337.31,-46.04 314.17,-35.58"/>
<polygon fill="#63b8ff" stroke="#63b8ff" points="395.26,-76.06 405.82,-76.99 398.15,-69.68 395.26,-76.06"/>
</a>
</g>
</g>
<!-- Node6&#45;&gt;Node5 -->
<g id="edge7_Node000006_Node000005" class="edge">
<title>Node6&#45;&gt;Node5</title>
<g id="a_edge7_Node000006_Node000005"><a xlink:title=" ">
<path fill="none" stroke="#63b8ff" d="M469.78,-68.67C476.63,-59.5 484.1,-49.5 490.38,-41.07"/>
<polygon fill="#63b8ff" stroke="#63b8ff" points="466.89,-66.69 463.71,-76.79 472.5,-70.88 466.89,-66.69"/>
</a>
</g>
</g>
</g>
</svg>
