<?xml version="1.0" encoding="UTF-8" standalone="no"?>
<!DOCTYPE svg PUBLIC "-//W3C//DTD SVG 1.1//EN"
 "http://www.w3.org/Graphics/SVG/1.1/DTD/svg11.dtd">
<!-- Generated by graphviz version 2.43.0 (0)
 -->
<!-- Title: src/polyfem/assembler/GenericFiber.hpp Pages: 1 -->
<svg width="720pt" height="170pt"
 viewBox="0.00 0.00 720.00 170.00" xmlns="http://www.w3.org/2000/svg" xmlns:xlink="http://www.w3.org/1999/xlink">
<g id="graph0" class="graph" transform="scale(1 1) rotate(0) translate(4 166)">
<title>src/polyfem/assembler/GenericFiber.hpp</title>
<!-- Node1 -->
<g id="Node000001" class="node">
<title>Node1</title>
<g id="a_Node000001"><a xlink:title=" ">
<polygon fill="#999999" stroke="#666666" points="566,-162 438,-162 438,-132 566,-132 566,-162"/>
<text text-anchor="start" x="446" y="-150" font-family="Helvetica,sans-Serif" font-size="10.00">src/polyfem/assembler</text>
<text text-anchor="middle" x="502" y="-139" font-family="Helvetica,sans-Serif" font-size="10.00">/GenericFiber.hpp</text>
</a>
</g>
</g>
<!-- Node2 -->
<g id="Node000002" class="node">
<title>Node2</title>
<g id="a_Node000002"><a xlink:href="_active_fiber_8hpp.html" target="_top" xlink:title=" ">
<polygon fill="white" stroke="#666666" points="420,-96 292,-96 292,-66 420,-66 420,-96"/>
<text text-anchor="start" x="300" y="-84" font-family="Helvetica,sans-Serif" font-size="10.00">src/polyfem/assembler</text>
<text text-anchor="middle" x="356" y="-73" font-family="Helvetica,sans-Serif" font-size="10.00">/ActiveFiber.hpp</text>
</a>
</g>
</g>
<!-- Node1&#45;&gt;Node2 -->
<g id="edge1_Node000001_Node000002" class="edge">
<title>Node1&#45;&gt;Node2</title>
<g id="a_edge1_Node000001_Node000002"><a xlink:title=" ">
<path fill="none" stroke="#63b8ff" d="M460.75,-127.92C437.68,-117.8 409.34,-105.38 387.97,-96.01"/>
<polygon fill="#63b8ff" stroke="#63b8ff" points="459.4,-131.15 469.96,-131.95 462.21,-124.73 459.4,-131.15"/>
</a>
</g>
</g>
<!-- Node6 -->
<g id="Node000006" class="node">
<title>Node6</title>
<g id="a_Node000006"><a xlink:href="_generic_fiber_8cpp.html" target="_top" xlink:title=" ">
<polygon fill="white" stroke="#666666" points="712,-30 584,-30 584,0 712,0 712,-30"/>
<text text-anchor="start" x="592" y="-18" font-family="Helvetica,sans-Serif" font-size="10.00">src/polyfem/assembler</text>
<text text-anchor="middle" x="648" y="-7" font-family="Helvetica,sans-Serif" font-size="10.00">/GenericFiber.cpp</text>
</a>
</g>
</g>
<!-- Node1&#45;&gt;Node6 -->
<g id="edge6_Node000001_Node000006" class="edge">
<title>Node1&#45;&gt;Node6</title>
<g id="a_edge6_Node000001_Node000006"><a xlink:title=" ">
<path fill="none" stroke="#63b8ff" d="M534.12,-126.31C547.29,-117.66 562.38,-106.98 575,-96 598.98,-75.15 623.11,-46.96 636.74,-30.21"/>
<polygon fill="#63b8ff" stroke="#63b8ff" points="531.86,-123.6 525.35,-131.96 535.65,-129.49 531.86,-123.6"/>
</a>
</g>
</g>
<!-- Node7 -->
<g id="Node000007" class="node">
<title>Node7</title>
<g id="a_Node000007"><a xlink:href="_h_g_o_fiber_8hpp.html" target="_top" xlink:title=" ">
<polygon fill="white" stroke="#666666" points="566,-96 438,-96 438,-66 566,-66 566,-96"/>
<text text-anchor="start" x="446" y="-84" font-family="Helvetica,sans-Serif" font-size="10.00">src/polyfem/assembler</text>
<text text-anchor="middle" x="502" y="-73" font-family="Helvetica,sans-Serif" font-size="10.00">/HGOFiber.hpp</text>
</a>
</g>
</g>
<!-- Node1&#45;&gt;Node7 -->
<g id="edge7_Node000001_Node000007" class="edge">
<title>Node1&#45;&gt;Node7</title>
<g id="a_edge7_Node000001_Node000007"><a xlink:title=" ">
<path fill="none" stroke="#63b8ff" d="M502,-121.54C502,-112.96 502,-103.61 502,-96.16"/>
<polygon fill="#63b8ff" stroke="#63b8ff" points="498.5,-121.8 502,-131.8 505.5,-121.8 498.5,-121.8"/>
</a>
</g>
</g>
<!-- Node3 -->
<g id="Node000003" class="node">
<title>Node3</title>
<g id="a_Node000003"><a xlink:href="_active_fiber_8cpp.html" target="_top" xlink:title=" ">
<polygon fill="white" stroke="#666666" points="128,-30 0,-30 0,0 128,0 128,-30"/>
<text text-anchor="start" x="8" y="-18" font-family="Helvetica,sans-Serif" font-size="10.00">src/polyfem/assembler</text>
<text text-anchor="middle" x="64" y="-7" font-family="Helvetica,sans-Serif" font-size="10.00">/ActiveFiber.cpp</text>
</a>
</g>
</g>
<!-- Node2&#45;&gt;Node3 -->
<g id="edge2_Node000002_Node000003" class="edge">
<title>Node2&#45;&gt;Node3</title>
<g id="a_edge2_Node000002_Node000003"><a xlink:title=" ">
<path fill="none" stroke="#63b8ff" d="M281.99,-63.78C234.46,-53.36 173.35,-39.97 127.93,-30.01"/>
<polygon fill="#63b8ff" stroke="#63b8ff" points="281.4,-67.23 291.92,-65.95 282.9,-60.4 281.4,-67.23"/>
</a>
</g>
</g>
<!-- Node4 -->
<g id="Node000004" class="node">
<title>Node4</title>
<g id="a_Node000004"><a xlink:href="_assembler_utils_8cpp.html" target="_top" xlink:title=" ">
<polygon fill="white" stroke="#666666" points="420,-30 292,-30 292,0 420,0 420,-30"/>
<text text-anchor="start" x="300" y="-18" font-family="Helvetica,sans-Serif" font-size="10.00">src/polyfem/assembler</text>
<text text-anchor="middle" x="356" y="-7" font-family="Helvetica,sans-Serif" font-size="10.00">/AssemblerUtils.cpp</text>
</a>
</g>
</g>
<!-- Node2&#45;&gt;Node4 -->
<g id="edge3_Node000002_Node000004" class="edge">
<title>Node2&#45;&gt;Node4</title>
<g id="a_edge3_Node000002_Node000004"><a xlink:title=" ">
<path fill="none" stroke="#63b8ff" d="M356,-55.54C356,-46.96 356,-37.61 356,-30.16"/>
<polygon fill="#63b8ff" stroke="#63b8ff" points="352.5,-55.8 356,-65.8 359.5,-55.8 352.5,-55.8"/>
</a>
</g>
</g>
<!-- Node5 -->
<g id="Node000005" class="node">
<title>Node5</title>
<g id="a_Node000005"><a xlink:href="_generic_elastic_8cpp.html" target="_top" xlink:title=" ">
<polygon fill="white" stroke="#666666" points="274,-30 146,-30 146,0 274,0 274,-30"/>
<text text-anchor="start" x="154" y="-18" font-family="Helvetica,sans-Serif" font-size="10.00">src/polyfem/assembler</text>
<text text-anchor="middle" x="210" y="-7" font-family="Helvetica,sans-Serif" font-size="10.00">/GenericElastic.cpp</text>
</a>
</g>
</g>
<!-- Node2&#45;&gt;Node5 -->
<g id="edge4_Node000002_Node000005" class="edge">
<title>Node2&#45;&gt;Node5</title>
<g id="a_edge4_Node000002_Node000005"><a xlink:title=" ">
<path fill="none" stroke="#63b8ff" d="M314.75,-61.92C291.68,-51.8 263.34,-39.38 241.97,-30.01"/>
<polygon fill="#63b8ff" stroke="#63b8ff" points="313.4,-65.15 323.96,-65.95 316.21,-58.73 313.4,-65.15"/>
</a>
</g>
</g>
<!-- Node2&#45;&gt;Node6 -->
<g id="edge5_Node000002_Node000006" class="edge">
<title>Node2&#45;&gt;Node6</title>
<g id="a_edge5_Node000002_Node000006"><a xlink:title=" ">
<path fill="none" stroke="#63b8ff" d="M430.01,-63.78C477.54,-53.36 538.65,-39.97 584.07,-30.01"/>
<polygon fill="#63b8ff" stroke="#63b8ff" points="429.1,-60.4 420.08,-65.95 430.6,-67.23 429.1,-60.4"/>
</a>
</g>
</g>
<!-- Node7&#45;&gt;Node4 -->
<g id="edge8_Node000007_Node000004" class="edge">
<title>Node7&#45;&gt;Node4</title>
<g id="a_edge8_Node000007_Node000004"><a xlink:title=" ">
<path fill="none" stroke="#63b8ff" d="M460.75,-61.92C437.68,-51.8 409.34,-39.38 387.97,-30.01"/>
<polygon fill="#63b8ff" stroke="#63b8ff" points="459.4,-65.15 469.96,-65.95 462.21,-58.73 459.4,-65.15"/>
</a>
</g>
</g>
<!-- Node7&#45;&gt;Node5 -->
<g id="edge9_Node000007_Node000005" class="edge">
<title>Node7&#45;&gt;Node5</title>
<g id="a_edge9_Node000007_Node000005"><a xlink:title=" ">
<path fill="none" stroke="#63b8ff" d="M427.99,-63.78C380.46,-53.36 319.35,-39.97 273.93,-30.01"/>
<polygon fill="#63b8ff" stroke="#63b8ff" points="427.4,-67.23 437.92,-65.95 428.9,-60.4 427.4,-67.23"/>
</a>
</g>
</g>
<!-- Node7&#45;&gt;Node6 -->
<g id="edge10_Node000007_Node000006" class="edge">
<title>Node7&#45;&gt;Node6</title>
<g id="a_edge10_Node000007_Node000006"><a xlink:title=" ">
<path fill="none" stroke="#63b8ff" d="M543.25,-61.92C566.32,-51.8 594.66,-39.38 616.03,-30.01"/>
<polygon fill="#63b8ff" stroke="#63b8ff" points="541.79,-58.73 534.04,-65.95 544.6,-65.15 541.79,-58.73"/>
</a>
</g>
</g>
<!-- Node8 -->
<g id="Node000008" class="node">
<title>Node8</title>
<g id="a_Node000008"><a xlink:href="_h_g_o_fiber_8cpp.html" target="_top" xlink:title=" ">
<polygon fill="white" stroke="#666666" points="566,-30 438,-30 438,0 566,0 566,-30"/>
<text text-anchor="start" x="446" y="-18" font-family="Helvetica,sans-Serif" font-size="10.00">src/polyfem/assembler</text>
<text text-anchor="middle" x="502" y="-7" font-family="Helvetica,sans-Serif" font-size="10.00">/HGOFiber.cpp</text>
</a>
</g>
</g>
<!-- Node7&#45;&gt;Node8 -->
<g id="edge11_Node000007_Node000008" class="edge">
<title>Node7&#45;&gt;Node8</title>
<g id="a_edge11_Node000007_Node000008"><a xlink:title=" ">
<path fill="none" stroke="#63b8ff" d="M502,-55.54C502,-46.96 502,-37.61 502,-30.16"/>
<polygon fill="#63b8ff" stroke="#63b8ff" points="498.5,-55.8 502,-65.8 505.5,-55.8 498.5,-55.8"/>
</a>
</g>
</g>
</g>
</svg>
