<?xml version="1.0" encoding="UTF-8" standalone="no"?>
<!DOCTYPE svg PUBLIC "-//W3C//DTD SVG 1.1//EN"
 "http://www.w3.org/Graphics/SVG/1.1/DTD/svg11.dtd">
<!-- Generated by graphviz version 2.43.0 (0)
 -->
<!-- Title: src/polyfem/mesh/GeometryReader.hpp Pages: 1 -->
<!--zoomable 285 -->
<svg id="main" version="1.1" xmlns="http://www.w3.org/2000/svg" xmlns:xlink="http://www.w3.org/1999/xlink" xml:space="preserve" onload="init(evt)">
<style type="text/css"><![CDATA[
.edge:hover path { stroke: red; }
.edge:hover polygon { stroke: red; fill: red; }
]]></style>
<script type="text/javascript"><![CDATA[
var edges = document.getElementsByTagName('g');
if (edges && edges.length) {
  for (var i=0;i<edges.length;i++) {
    if (edges[i].id.substr(0,4)=='edge') {
      edges[i].setAttribute('class','edge');
    }
  }
}
]]></script>
        <defs>
                <circle id="rim" cx="0" cy="0" r="7"/>
                <circle id="rim2" cx="0" cy="0" r="3.5"/>
                <g id="zoomPlus">
                        <use xlink:href="#rim" fill="#404040">
                                <set attributeName="fill" to="#808080" begin="zoomplus.mouseover" end="zoomplus.mouseout"/>
                        </use>
                        <path d="M-4,0h8M0,-4v8" fill="none" stroke="white" stroke-width="1.5" pointer-events="none"/>
                </g>
                <g id="zoomMin">
                        <use xlink:href="#rim" fill="#404040">
                                <set attributeName="fill" to="#808080" begin="zoomminus.mouseover" end="zoomminus.mouseout"/>
                        </use>
                        <path d="M-4,0h8" fill="none" stroke="white" stroke-width="1.5" pointer-events="none"/>
                </g>
                <g id="dirArrow">
                        <path fill="none" stroke="white" stroke-width="1.5" d="M0,-3.0v7 M-2.5,-0.5L0,-3.0L2.5,-0.5"/>
                </g>
               <g id="resetDef">
                       <use xlink:href="#rim2" fill="#404040">
                               <set attributeName="fill" to="#808080" begin="reset.mouseover" end="reset.mouseout"/>
                       </use>
               </g>
        </defs>

<script type="text/javascript">
var viewWidth = 1013;
var viewHeight = 285;
var sectionId = 'dynsection-0';
</script>
<script xlink:href="svgpan.js"/>
<svg id="graph" class="graph">
<g id="viewport">
<title>src/polyfem/mesh/GeometryReader.hpp</title>
<!-- Node1 -->
<g id="node1" class="node">
<title>Node1</title>
<g id="a_node1"><a xlink:title=" ">
<polygon fill="#bfbfbf" stroke="black" points="662,-246.5 662,-276.5 818,-276.5 818,-246.5 662,-246.5"/>
<text text-anchor="start" x="670" y="-264.5" font-family="Helvetica,sans-Serif" font-size="10.00">src/polyfem/mesh/Geometry</text>
<text text-anchor="middle" x="740" y="-253.5" font-family="Helvetica,sans-Serif" font-size="10.00">Reader.hpp</text>
</a>
</g>
</g>
<!-- Node2 -->
<g id="node2" class="node">
<title>Node2</title>
<g id="a_node2"><a xlink:href="_common_8hpp.html" target="_top" xlink:title=" ">
<polygon fill="none" stroke="black" points="785.5,-62 785.5,-81 910.5,-81 910.5,-62 785.5,-62"/>
<text text-anchor="middle" x="848" y="-69" font-family="Helvetica,sans-Serif" font-size="10.00">polyfem/Common.hpp</text>
</a>
</g>
</g>
<!-- Node1&#45;&gt;Node2 -->
<g id="edge1" class="edge">
<title>Node1&#45;&gt;Node2</title>
<path fill="none" stroke="midnightblue" d="M818.01,-255.76C884.85,-249.87 973.74,-237.08 996,-210 1013.52,-188.69 1003.66,-154.62 974,-123 955.65,-103.44 928.71,-91.29 904.45,-83.83"/>
<polygon fill="midnightblue" stroke="midnightblue" points="905.18,-80.39 894.6,-81 903.25,-87.12 905.18,-80.39"/>
</g>
<!-- Node5 -->
<g id="node5" class="node">
<title>Node5</title>
<g id="a_node5"><a xlink:href="_mesh_8hpp.html" target="_top" xlink:title=" ">
<polygon fill="none" stroke="black" points="305.5,-129 305.5,-148 442.5,-148 442.5,-129 305.5,-129"/>
<text text-anchor="middle" x="374" y="-136" font-family="Helvetica,sans-Serif" font-size="10.00">polyfem/mesh/Mesh.hpp</text>
</a>
</g>
</g>
<!-- Node1&#45;&gt;Node5 -->
<g id="edge4" class="edge">
<title>Node1&#45;&gt;Node5</title>
<path fill="none" stroke="midnightblue" d="M697.3,-246.38C624.48,-222.31 477.59,-173.75 409.79,-151.33"/>
<polygon fill="midnightblue" stroke="midnightblue" points="410.58,-147.91 399.99,-148.09 408.39,-154.55 410.58,-147.91"/>
</g>
<!-- Node9 -->
<g id="node9" class="node">
<title>Node9</title>
<g id="a_node9"><a xlink:href="_types_8hpp.html" target="_top" xlink:title=" ">
<polygon fill="none" stroke="black" points="583.5,-62 583.5,-81 716.5,-81 716.5,-62 583.5,-62"/>
<text text-anchor="middle" x="650" y="-69" font-family="Helvetica,sans-Serif" font-size="10.00">polyfem/utils/Types.hpp</text>
</a>
</g>
</g>
<!-- Node1&#45;&gt;Node9 -->
<g id="edge31" class="edge">
<title>Node1&#45;&gt;Node9</title>
<path fill="none" stroke="midnightblue" d="M699.85,-246.3C683.35,-238.3 665.83,-226.53 656,-210 633.78,-172.64 640.11,-118.93 645.64,-90.99"/>
<polygon fill="midnightblue" stroke="midnightblue" points="649.1,-91.53 647.8,-81.01 642.26,-90.04 649.1,-91.53"/>
</g>
<!-- Node15 -->
<g id="node15" class="node">
<title>Node15</title>
<g id="a_node15"><a xlink:href="_obstacle_8hpp.html" target="_top" xlink:title=" ">
<polygon fill="none" stroke="black" points="833,-190.5 833,-209.5 987,-209.5 987,-190.5 833,-190.5"/>
<text text-anchor="middle" x="910" y="-197.5" font-family="Helvetica,sans-Serif" font-size="10.00">polyfem/mesh/Obstacle.hpp</text>
</a>
</g>
</g>
<!-- Node1&#45;&gt;Node15 -->
<g id="edge18" class="edge">
<title>Node1&#45;&gt;Node15</title>
<path fill="none" stroke="midnightblue" d="M780.29,-246.4C809.32,-236.24 848.08,-222.67 875.65,-213.02"/>
<polygon fill="midnightblue" stroke="midnightblue" points="876.98,-216.26 885.26,-209.66 874.67,-209.66 876.98,-216.26"/>
</g>
<!-- Node18 -->
<g id="node18" class="node">
<title>Node18</title>
<g id="a_node18"><a xlink:href="_selection_8hpp.html" target="_top" xlink:title=" ">
<polygon fill="none" stroke="black" points="665,-190.5 665,-209.5 815,-209.5 815,-190.5 665,-190.5"/>
<text text-anchor="middle" x="740" y="-197.5" font-family="Helvetica,sans-Serif" font-size="10.00">polyfem/utils/Selection.hpp</text>
</a>
</g>
</g>
<!-- Node1&#45;&gt;Node18 -->
<g id="edge28" class="edge">
<title>Node1&#45;&gt;Node18</title>
<path fill="none" stroke="midnightblue" d="M740,-246.4C740,-238.47 740,-228.46 740,-219.86"/>
<polygon fill="midnightblue" stroke="midnightblue" points="743.5,-219.66 740,-209.66 736.5,-219.66 743.5,-219.66"/>
</g>
<!-- Node3 -->
<g id="node3" class="node">
<title>Node3</title>
<g id="a_node3"><a xlink:title=" ">
<polygon fill="none" stroke="#bfbfbf" points="701,-0.5 701,-19.5 781,-19.5 781,-0.5 701,-0.5"/>
<text text-anchor="middle" x="741" y="-7.5" font-family="Helvetica,sans-Serif" font-size="10.00">Eigen/Sparse</text>
</a>
</g>
</g>
<!-- Node2&#45;&gt;Node3 -->
<g id="edge2" class="edge">
<title>Node2&#45;&gt;Node3</title>
<path fill="none" stroke="midnightblue" d="M832.67,-61.98C815.03,-52.17 785.84,-35.93 765.14,-24.42"/>
<polygon fill="midnightblue" stroke="midnightblue" points="766.74,-21.31 756.3,-19.51 763.34,-27.43 766.74,-21.31"/>
</g>
<!-- Node4 -->
<g id="node4" class="node">
<title>Node4</title>
<g id="a_node4"><a xlink:title=" ">
<polygon fill="none" stroke="#bfbfbf" points="799,-0.5 799,-19.5 909,-19.5 909,-0.5 799,-0.5"/>
<text text-anchor="middle" x="854" y="-7.5" font-family="Helvetica,sans-Serif" font-size="10.00">nlohmann/json.hpp</text>
</a>
</g>
</g>
<!-- Node2&#45;&gt;Node4 -->
<g id="edge3" class="edge">
<title>Node2&#45;&gt;Node4</title>
<path fill="none" stroke="midnightblue" d="M848.86,-61.98C849.71,-53.58 851.03,-40.48 852.12,-29.66"/>
<polygon fill="midnightblue" stroke="midnightblue" points="855.62,-29.81 853.14,-19.51 848.66,-29.11 855.62,-29.81"/>
</g>
<!-- Node5&#45;&gt;Node2 -->
<g id="edge5" class="edge">
<title>Node5&#45;&gt;Node2</title>
<path fill="none" stroke="midnightblue" d="M416.69,-128.99C427.83,-126.9 439.85,-124.76 451,-123 511.73,-113.43 678.25,-92.95 775.25,-81.23"/>
<polygon fill="midnightblue" stroke="midnightblue" points="775.77,-84.69 785.27,-80.02 774.93,-77.74 775.77,-84.69"/>
</g>
<!-- Node6 -->
<g id="node6" class="node">
<title>Node6</title>
<g id="a_node6"><a xlink:href="_navigation_8hpp.html" target="_top" xlink:title=" ">
<polygon fill="none" stroke="black" points="73.5,-56.5 73.5,-86.5 204.5,-86.5 204.5,-56.5 73.5,-56.5"/>
<text text-anchor="start" x="81.5" y="-74.5" font-family="Helvetica,sans-Serif" font-size="10.00">polyfem/mesh/mesh2D</text>
<text text-anchor="middle" x="139" y="-63.5" font-family="Helvetica,sans-Serif" font-size="10.00">/Navigation.hpp</text>
</a>
</g>
</g>
<!-- Node5&#45;&gt;Node6 -->
<g id="edge6" class="edge">
<title>Node5&#45;&gt;Node6</title>
<path fill="none" stroke="midnightblue" d="M342.79,-128.87C306.39,-118.8 245.34,-101.91 199.54,-89.24"/>
<polygon fill="midnightblue" stroke="midnightblue" points="200.29,-85.82 189.72,-86.53 198.42,-92.57 200.29,-85.82"/>
</g>
<!-- Node7 -->
<g id="node7" class="node">
<title>Node7</title>
<g id="a_node7"><a xlink:title=" ">
<polygon fill="none" stroke="#bfbfbf" points="166.5,-0.5 166.5,-19.5 295.5,-19.5 295.5,-0.5 166.5,-0.5"/>
<text text-anchor="middle" x="231" y="-7.5" font-family="Helvetica,sans-Serif" font-size="10.00">geogram/mesh/mesh.h</text>
</a>
</g>
</g>
<!-- Node5&#45;&gt;Node7 -->
<g id="edge16" class="edge">
<title>Node5&#45;&gt;Node7</title>
<path fill="none" stroke="midnightblue" d="M328.48,-128.99C302.65,-121.9 271.66,-109.24 252,-87 238,-71.17 233.25,-46.79 231.68,-29.94"/>
<polygon fill="midnightblue" stroke="midnightblue" points="235.16,-29.42 231.03,-19.66 228.17,-29.87 235.16,-29.42"/>
</g>
<!-- Node5&#45;&gt;Node9 -->
<g id="edge9" class="edge">
<title>Node5&#45;&gt;Node9</title>
<path fill="none" stroke="midnightblue" d="M410.37,-128.94C460.11,-117.22 549.4,-96.19 603.82,-83.38"/>
<polygon fill="midnightblue" stroke="midnightblue" points="604.62,-86.78 613.55,-81.08 603.02,-79.97 604.62,-86.78"/>
</g>
<!-- Node10 -->
<g id="node10" class="node">
<title>Node10</title>
<g id="a_node10"><a xlink:title=" ">
<polygon fill="none" stroke="#bfbfbf" points="605.5,-0.5 605.5,-19.5 682.5,-19.5 682.5,-0.5 605.5,-0.5"/>
<text text-anchor="middle" x="644" y="-7.5" font-family="Helvetica,sans-Serif" font-size="10.00">Eigen/Dense</text>
</a>
</g>
</g>
<!-- Node5&#45;&gt;Node10 -->
<g id="edge15" class="edge">
<title>Node5&#45;&gt;Node10</title>
<path fill="none" stroke="midnightblue" d="M381.95,-128.92C399.61,-110.05 441.94,-65.85 460,-56 502.41,-32.88 556.72,-21.47 595.32,-15.95"/>
<polygon fill="midnightblue" stroke="midnightblue" points="595.83,-19.42 605.27,-14.61 594.89,-12.48 595.83,-19.42"/>
</g>
<!-- Node11 -->
<g id="node11" class="node">
<title>Node11</title>
<g id="a_node11"><a xlink:href="_hash_utils_8hpp.html" target="_top" xlink:title=" ">
<polygon fill="none" stroke="black" points="261,-62 261,-81 413,-81 413,-62 261,-62"/>
<text text-anchor="middle" x="337" y="-69" font-family="Helvetica,sans-Serif" font-size="10.00">polyfem/utils/HashUtils.hpp</text>
</a>
</g>
</g>
<!-- Node5&#45;&gt;Node11 -->
<g id="edge12" class="edge">
<title>Node5&#45;&gt;Node11</title>
<path fill="none" stroke="midnightblue" d="M369.01,-128.73C363.41,-118.89 354.17,-102.66 347.05,-90.16"/>
<polygon fill="midnightblue" stroke="midnightblue" points="349.9,-88.09 341.91,-81.13 343.82,-91.55 349.9,-88.09"/>
</g>
<!-- Node14 -->
<g id="node14" class="node">
<title>Node14</title>
<g id="a_node14"><a xlink:title=" ">
<polygon fill="none" stroke="#bfbfbf" points="469,-62 469,-81 527,-81 527,-62 469,-62"/>
<text text-anchor="middle" x="498" y="-69" font-family="Helvetica,sans-Serif" font-size="10.00">memory</text>
</a>
</g>
</g>
<!-- Node5&#45;&gt;Node14 -->
<g id="edge17" class="edge">
<title>Node5&#45;&gt;Node14</title>
<path fill="none" stroke="midnightblue" d="M390.47,-128.87C411.4,-117.89 447.78,-98.82 472.36,-85.94"/>
<polygon fill="midnightblue" stroke="midnightblue" points="474.23,-88.91 481.47,-81.17 470.98,-82.71 474.23,-88.91"/>
</g>
<!-- Node6&#45;&gt;Node7 -->
<g id="edge7" class="edge">
<title>Node6&#45;&gt;Node7</title>
<path fill="none" stroke="midnightblue" d="M160.8,-56.4C175.41,-46.95 194.57,-34.56 209.18,-25.11"/>
<polygon fill="midnightblue" stroke="midnightblue" points="211.12,-28.03 217.61,-19.66 207.32,-22.15 211.12,-28.03"/>
</g>
<!-- Node8 -->
<g id="node8" class="node">
<title>Node8</title>
<g id="a_node8"><a xlink:title=" ">
<polygon fill="none" stroke="#bfbfbf" points="0,-0.5 0,-19.5 148,-19.5 148,-0.5 0,-0.5"/>
<text text-anchor="middle" x="74" y="-7.5" font-family="Helvetica,sans-Serif" font-size="10.00">geogram/basic/attributes.h</text>
</a>
</g>
</g>
<!-- Node6&#45;&gt;Node8 -->
<g id="edge8" class="edge">
<title>Node6&#45;&gt;Node8</title>
<path fill="none" stroke="midnightblue" d="M123.6,-56.4C113.76,-47.4 101.01,-35.72 90.89,-26.47"/>
<polygon fill="midnightblue" stroke="midnightblue" points="93.2,-23.83 83.46,-19.66 88.47,-28.99 93.2,-23.83"/>
</g>
<!-- Node9&#45;&gt;Node3 -->
<g id="edge11" class="edge">
<title>Node9&#45;&gt;Node3</title>
<path fill="none" stroke="midnightblue" d="M663.04,-61.98C677.77,-52.34 701.97,-36.52 719.51,-25.05"/>
<polygon fill="midnightblue" stroke="midnightblue" points="721.53,-27.91 727.99,-19.51 717.7,-22.05 721.53,-27.91"/>
</g>
<!-- Node9&#45;&gt;Node10 -->
<g id="edge10" class="edge">
<title>Node9&#45;&gt;Node10</title>
<path fill="none" stroke="midnightblue" d="M649.14,-61.98C648.29,-53.58 646.97,-40.48 645.88,-29.66"/>
<polygon fill="midnightblue" stroke="midnightblue" points="649.34,-29.11 644.86,-19.51 642.38,-29.81 649.34,-29.11"/>
</g>
<!-- Node12 -->
<g id="node12" class="node">
<title>Node12</title>
<g id="a_node12"><a xlink:title=" ">
<polygon fill="none" stroke="#bfbfbf" points="313.5,-0.5 313.5,-19.5 366.5,-19.5 366.5,-0.5 313.5,-0.5"/>
<text text-anchor="middle" x="340" y="-7.5" font-family="Helvetica,sans-Serif" font-size="10.00">cstddef</text>
</a>
</g>
</g>
<!-- Node11&#45;&gt;Node12 -->
<g id="edge13" class="edge">
<title>Node11&#45;&gt;Node12</title>
<path fill="none" stroke="midnightblue" d="M337.43,-61.98C337.85,-53.58 338.51,-40.48 339.06,-29.66"/>
<polygon fill="midnightblue" stroke="midnightblue" points="342.56,-29.67 339.57,-19.51 335.57,-29.32 342.56,-29.67"/>
</g>
<!-- Node13 -->
<g id="node13" class="node">
<title>Node13</title>
<g id="a_node13"><a xlink:title=" ">
<polygon fill="none" stroke="#bfbfbf" points="472.5,-0.5 472.5,-19.5 519.5,-19.5 519.5,-0.5 472.5,-0.5"/>
<text text-anchor="middle" x="496" y="-7.5" font-family="Helvetica,sans-Serif" font-size="10.00">vector</text>
</a>
</g>
</g>
<!-- Node11&#45;&gt;Node13 -->
<g id="edge14" class="edge">
<title>Node11&#45;&gt;Node13</title>
<path fill="none" stroke="midnightblue" d="M359.78,-61.98C387.05,-51.77 432.91,-34.61 463.8,-23.05"/>
<polygon fill="midnightblue" stroke="midnightblue" points="465.12,-26.29 473.26,-19.51 462.67,-19.74 465.12,-26.29"/>
</g>
<!-- Node15&#45;&gt;Node2 -->
<g id="edge19" class="edge">
<title>Node15&#45;&gt;Node2</title>
<path fill="none" stroke="midnightblue" d="M924.37,-190.33C935.88,-182.47 951.19,-169.72 958,-154 963.48,-141.36 965.44,-134.6 958,-123 945.56,-103.6 923.58,-91.55 902.52,-84.12"/>
<polygon fill="midnightblue" stroke="midnightblue" points="903.54,-80.77 892.95,-81.02 901.39,-87.43 903.54,-80.77"/>
</g>
<!-- Node15&#45;&gt;Node9 -->
<g id="edge26" class="edge">
<title>Node15&#45;&gt;Node9</title>
<path fill="none" stroke="midnightblue" d="M840.42,-190.5C805.84,-184.1 764.42,-173.02 731,-154 702.09,-137.55 676.48,-107.96 662.14,-89.32"/>
<polygon fill="midnightblue" stroke="midnightblue" points="664.82,-87.07 656.03,-81.16 659.22,-91.26 664.82,-87.07"/>
</g>
<!-- Node15&#45;&gt;Node10 -->
<g id="edge27" class="edge">
<title>Node15&#45;&gt;Node10</title>
<path fill="none" stroke="midnightblue" d="M878,-190.41C855.25,-183.22 824.8,-171.33 802,-154 757.9,-120.49 767.15,-91.94 725,-56 709.55,-42.83 689.64,-31.7 673.43,-23.81"/>
<polygon fill="midnightblue" stroke="midnightblue" points="674.91,-20.64 664.37,-19.55 671.93,-26.97 674.91,-20.64"/>
</g>
<!-- Node16 -->
<g id="node16" class="node">
<title>Node16</title>
<g id="a_node16"><a xlink:href="_expression_value_8hpp.html" target="_top" xlink:title=" ">
<polygon fill="none" stroke="black" points="811.5,-123.5 811.5,-153.5 948.5,-153.5 948.5,-123.5 811.5,-123.5"/>
<text text-anchor="start" x="819.5" y="-141.5" font-family="Helvetica,sans-Serif" font-size="10.00">polyfem/utils/Expression</text>
<text text-anchor="middle" x="880" y="-130.5" font-family="Helvetica,sans-Serif" font-size="10.00">Value.hpp</text>
</a>
</g>
</g>
<!-- Node15&#45;&gt;Node16 -->
<g id="edge20" class="edge">
<title>Node15&#45;&gt;Node16</title>
<path fill="none" stroke="midnightblue" d="M905.7,-190.48C902.02,-183.17 896.54,-172.3 891.58,-162.47"/>
<polygon fill="midnightblue" stroke="midnightblue" points="894.7,-160.88 887.07,-153.52 888.45,-164.03 894.7,-160.88"/>
</g>
<!-- Node17 -->
<g id="node17" class="node">
<title>Node17</title>
<g id="a_node17"><a xlink:href="_interpolation_8hpp.html" target="_top" xlink:title=" ">
<polygon fill="none" stroke="black" points="460.5,-129 460.5,-148 627.5,-148 627.5,-129 460.5,-129"/>
<text text-anchor="middle" x="544" y="-136" font-family="Helvetica,sans-Serif" font-size="10.00">polyfem/utils/Interpolation.hpp</text>
</a>
</g>
</g>
<!-- Node15&#45;&gt;Node17 -->
<g id="edge22" class="edge">
<title>Node15&#45;&gt;Node17</title>
<path fill="none" stroke="midnightblue" d="M857.56,-190.48C791.25,-179.69 677.2,-161.15 606.45,-149.65"/>
<polygon fill="midnightblue" stroke="midnightblue" points="606.77,-146.16 596.34,-148.01 605.65,-153.07 606.77,-146.16"/>
</g>
<!-- Node16&#45;&gt;Node2 -->
<g id="edge21" class="edge">
<title>Node16&#45;&gt;Node2</title>
<path fill="none" stroke="midnightblue" d="M873.06,-123.4C868.26,-113.66 861.86,-100.65 856.72,-90.21"/>
<polygon fill="midnightblue" stroke="midnightblue" points="859.84,-88.62 852.28,-81.19 853.56,-91.71 859.84,-88.62"/>
</g>
<!-- Node17&#45;&gt;Node2 -->
<g id="edge23" class="edge">
<title>Node17&#45;&gt;Node2</title>
<path fill="none" stroke="midnightblue" d="M584.06,-128.94C639.08,-117.17 738.01,-96.02 797.87,-83.22"/>
<polygon fill="midnightblue" stroke="midnightblue" points="798.81,-86.6 807.86,-81.08 797.35,-79.75 798.81,-86.6"/>
</g>
<!-- Node17&#45;&gt;Node13 -->
<g id="edge25" class="edge">
<title>Node17&#45;&gt;Node13</title>
<path fill="none" stroke="midnightblue" d="M544.84,-128.98C545.99,-113.66 546.82,-80.75 536,-56 531.16,-44.94 522.55,-34.7 514.55,-26.79"/>
<polygon fill="midnightblue" stroke="midnightblue" points="516.63,-23.95 506.92,-19.71 511.87,-29.08 516.63,-23.95"/>
</g>
<!-- Node17&#45;&gt;Node14 -->
<g id="edge24" class="edge">
<title>Node17&#45;&gt;Node14</title>
<path fill="none" stroke="midnightblue" d="M537.8,-128.73C530.69,-118.7 518.89,-102.01 509.98,-89.42"/>
<polygon fill="midnightblue" stroke="midnightblue" points="512.74,-87.27 504.11,-81.13 507.03,-91.31 512.74,-87.27"/>
</g>
<!-- Node18&#45;&gt;Node2 -->
<g id="edge30" class="edge">
<title>Node18&#45;&gt;Node2</title>
<path fill="none" stroke="midnightblue" d="M746.73,-190.44C757.96,-176.24 781.32,-146.99 802,-123 812.04,-111.35 823.72,-98.55 832.79,-88.74"/>
<polygon fill="midnightblue" stroke="midnightblue" points="835.46,-91.01 839.71,-81.31 830.33,-86.25 835.46,-91.01"/>
</g>
<!-- Node18&#45;&gt;Node5 -->
<g id="edge29" class="edge">
<title>Node18&#45;&gt;Node5</title>
<path fill="none" stroke="midnightblue" d="M681.79,-190.49C623.36,-181.82 530.82,-167.73 451,-154 443.54,-152.72 435.69,-151.31 427.97,-149.89"/>
<polygon fill="midnightblue" stroke="midnightblue" points="428.4,-146.41 417.93,-148.02 427.13,-153.29 428.4,-146.41"/>
</g>
</g>
</svg>
        <g id="navigator" transform="translate(0 0)" fill="#404254">
                <rect fill="#f2f5e9" fill-opacity="0.5" stroke="#606060" stroke-width=".5" x="0" y="0" width="60" height="60"/>
                <use id="zoomplus" xlink:href="#zoomPlus" x="17" y="9" onmousedown="handleZoom(evt,'in')"/>
                <use id="zoomminus" xlink:href="#zoomMin" x="42" y="9" onmousedown="handleZoom(evt,'out')"/>
                <use id="reset" xlink:href="#resetDef" x="30" y="36" onmousedown="handleReset()"/>
                <g id="arrowUp" xlink:href="#dirArrow" transform="translate(30 24)" onmousedown="handlePan(0,-1)">
                  <use xlink:href="#rim" fill="#404040">
                        <set attributeName="fill" to="#808080" begin="arrowUp.mouseover" end="arrowUp.mouseout"/>
                  </use>
                  <path fill="none" stroke="white" stroke-width="1.5" d="M0,-3.0v7 M-2.5,-0.5L0,-3.0L2.5,-0.5"/>
                </g>
                <g id="arrowRight" xlink:href="#dirArrow" transform="rotate(90) translate(36 -43)" onmousedown="handlePan(1,0)">
                  <use xlink:href="#rim" fill="#404040">
                        <set attributeName="fill" to="#808080" begin="arrowRight.mouseover" end="arrowRight.mouseout"/>
                  </use>
                  <path fill="none" stroke="white" stroke-width="1.5" d="M0,-3.0v7 M-2.5,-0.5L0,-3.0L2.5,-0.5"/>
                </g>
                <g id="arrowDown" xlink:href="#dirArrow" transform="rotate(180) translate(-30 -48)" onmousedown="handlePan(0,1)">
                  <use xlink:href="#rim" fill="#404040">
                        <set attributeName="fill" to="#808080" begin="arrowDown.mouseover" end="arrowDown.mouseout"/>
                  </use>
                  <path fill="none" stroke="white" stroke-width="1.5" d="M0,-3.0v7 M-2.5,-0.5L0,-3.0L2.5,-0.5"/>
                </g>
                <g id="arrowLeft" xlink:href="#dirArrow" transform="rotate(270) translate(-36 17)" onmousedown="handlePan(-1,0)">
                  <use xlink:href="#rim" fill="#404040">
                        <set attributeName="fill" to="#808080" begin="arrowLeft.mouseover" end="arrowLeft.mouseout"/>
                  </use>
                  <path fill="none" stroke="white" stroke-width="1.5" d="M0,-3.0v7 M-2.5,-0.5L0,-3.0L2.5,-0.5"/>
                </g>
        </g>
        <svg viewBox="0 0 15 15" width="100%" height="30px" preserveAspectRatio="xMaxYMin meet">
         <g id="arrow_out" transform="scale(0.3 0.3)">
          <a xlink:href="_geometry_reader_8hpp__incl_org.svg" target="_base">
           <rect id="button" ry="5" rx="5" y="6" x="6" height="38" width="38"
                fill="#f2f5e9" fill-opacity="0.5" stroke="#606060" stroke-width="1.0"/>
           <path id="arrow"
             d="M 11.500037,31.436501 C 11.940474,20.09759 22.043105,11.32322 32.158766,21.979434 L 37.068811,17.246167 C 37.068811,17.246167 37.088388,32 37.088388,32 L 22.160133,31.978069 C 22.160133,31.978069 26.997745,27.140456 26.997745,27.140456 C 18.528582,18.264221 13.291696,25.230495 11.500037,31.436501 z"
             style="fill:#404040;"/>
          </a>
         </g>
        </svg>
</svg>
