<?xml version="1.0" encoding="UTF-8" standalone="no"?>
<!DOCTYPE svg PUBLIC "-//W3C//DTD SVG 1.1//EN"
 "http://www.w3.org/Graphics/SVG/1.1/DTD/svg11.dtd">
<!-- Generated by graphviz version 2.43.0 (0)
 -->
<!-- Title: src/polyfem/basis/InterfaceData.hpp Pages: 1 -->
<svg width="4125pt" height="307pt"
 viewBox="0.00 0.00 4125.00 307.00" xmlns="http://www.w3.org/2000/svg" xmlns:xlink="http://www.w3.org/1999/xlink">
<g id="graph0" class="graph" transform="scale(1 1) rotate(0) translate(4 303)">
<title>src/polyfem/basis/InterfaceData.hpp</title>
<!-- Node1 -->
<g id="node1" class="node">
<title>Node1</title>
<g id="a_node1"><a xlink:title=" ">
<polygon fill="#bfbfbf" stroke="black" points="3206.5,-268.5 3206.5,-298.5 3355.5,-298.5 3355.5,-268.5 3206.5,-268.5"/>
<text text-anchor="start" x="3214.5" y="-286.5" font-family="Helvetica,sans-Serif" font-size="10.00">src/polyfem/basis/Interface</text>
<text text-anchor="middle" x="3281" y="-275.5" font-family="Helvetica,sans-Serif" font-size="10.00">Data.hpp</text>
</a>
</g>
</g>
<!-- Node2 -->
<g id="node2" class="node">
<title>Node2</title>
<g id="a_node2"><a xlink:href="_state_8hpp.html" target="_top" xlink:title=" ">
<polygon fill="none" stroke="black" points="1362,-207 1362,-226 1486,-226 1486,-207 1362,-207"/>
<text text-anchor="middle" x="1424" y="-214" font-family="Helvetica,sans-Serif" font-size="10.00">src/polyfem/State.hpp</text>
</a>
</g>
</g>
<!-- Node1&#45;&gt;Node2 -->
<g id="edge1" class="edge">
<title>Node1&#45;&gt;Node2</title>
<path fill="none" stroke="midnightblue" d="M3196.43,-279.54C2879.05,-268.43 1762.99,-229.37 1486.38,-219.68"/>
<polygon fill="midnightblue" stroke="midnightblue" points="3196.37,-283.04 3206.48,-279.89 3196.61,-276.04 3196.37,-283.04"/>
</g>
<!-- Node28 -->
<g id="node28" class="node">
<title>Node28</title>
<g id="a_node28"><a xlink:href="_f_e_basis2d_8hpp.html" target="_top" xlink:title=" ">
<polygon fill="none" stroke="black" points="2764.5,-207 2764.5,-226 2941.5,-226 2941.5,-207 2764.5,-207"/>
<text text-anchor="middle" x="2853" y="-214" font-family="Helvetica,sans-Serif" font-size="10.00">src/polyfem/basis/FEBasis2d.hpp</text>
</a>
</g>
</g>
<!-- Node1&#45;&gt;Node28 -->
<g id="edge35" class="edge">
<title>Node1&#45;&gt;Node28</title>
<path fill="none" stroke="midnightblue" d="M3196.54,-269.67C3111.35,-256.74 2982.26,-237.13 2908.98,-226"/>
<polygon fill="midnightblue" stroke="midnightblue" points="3196.04,-273.14 3206.45,-271.18 3197.09,-266.22 3196.04,-273.14"/>
</g>
<!-- Node32 -->
<g id="node32" class="node">
<title>Node32</title>
<g id="a_node32"><a xlink:href="_f_e_basis3d_8hpp.html" target="_top" xlink:title=" ">
<polygon fill="none" stroke="black" points="3612.5,-207 3612.5,-226 3789.5,-226 3789.5,-207 3612.5,-207"/>
<text text-anchor="middle" x="3701" y="-214" font-family="Helvetica,sans-Serif" font-size="10.00">src/polyfem/basis/FEBasis3d.hpp</text>
</a>
</g>
</g>
<!-- Node1&#45;&gt;Node32 -->
<g id="edge40" class="edge">
<title>Node1&#45;&gt;Node32</title>
<path fill="none" stroke="midnightblue" d="M3365.57,-269.41C3449.09,-256.49 3574.37,-237.1 3645.83,-226.04"/>
<polygon fill="midnightblue" stroke="midnightblue" points="3364.95,-265.97 3355.6,-270.95 3366.02,-272.88 3364.95,-265.97"/>
</g>
<!-- Node36 -->
<g id="node36" class="node">
<title>Node36</title>
<g id="a_node36"><a xlink:href="_m_v_polygonal_basis2d_8hpp.html" target="_top" xlink:title=" ">
<polygon fill="none" stroke="black" points="3808,-201.5 3808,-231.5 3978,-231.5 3978,-201.5 3808,-201.5"/>
<text text-anchor="start" x="3816" y="-219.5" font-family="Helvetica,sans-Serif" font-size="10.00">src/polyfem/basis/MVPolygonal</text>
<text text-anchor="middle" x="3893" y="-208.5" font-family="Helvetica,sans-Serif" font-size="10.00">Basis2d.hpp</text>
</a>
</g>
</g>
<!-- Node1&#45;&gt;Node36 -->
<g id="edge45" class="edge">
<title>Node1&#45;&gt;Node36</title>
<path fill="none" stroke="midnightblue" d="M3365.78,-275.7C3468.5,-267.12 3646.73,-251.15 3799,-232 3801.95,-231.63 3804.95,-231.24 3807.98,-230.83"/>
<polygon fill="midnightblue" stroke="midnightblue" points="3365.45,-272.21 3355.78,-276.53 3366.03,-279.19 3365.45,-272.21"/>
</g>
<!-- Node38 -->
<g id="node38" class="node">
<title>Node38</title>
<g id="a_node38"><a xlink:href="_polygonal_basis2d_8hpp.html" target="_top" xlink:title=" ">
<polygon fill="none" stroke="black" points="2960,-201.5 2960,-231.5 3114,-231.5 3114,-201.5 2960,-201.5"/>
<text text-anchor="start" x="2968" y="-219.5" font-family="Helvetica,sans-Serif" font-size="10.00">src/polyfem/basis/Polygonal</text>
<text text-anchor="middle" x="3037" y="-208.5" font-family="Helvetica,sans-Serif" font-size="10.00">Basis2d.hpp</text>
</a>
</g>
</g>
<!-- Node1&#45;&gt;Node38 -->
<g id="edge48" class="edge">
<title>Node1&#45;&gt;Node38</title>
<path fill="none" stroke="midnightblue" d="M3218.5,-265.85C3178.72,-255.25 3127.76,-241.68 3089.97,-231.61"/>
<polygon fill="midnightblue" stroke="midnightblue" points="3217.79,-269.28 3228.36,-268.48 3219.59,-262.52 3217.79,-269.28"/>
</g>
<!-- Node39 -->
<g id="node39" class="node">
<title>Node39</title>
<g id="a_node39"><a xlink:href="_polygonal_basis3d_8hpp.html" target="_top" xlink:title=" ">
<polygon fill="none" stroke="black" points="3286,-201.5 3286,-231.5 3440,-231.5 3440,-201.5 3286,-201.5"/>
<text text-anchor="start" x="3294" y="-219.5" font-family="Helvetica,sans-Serif" font-size="10.00">src/polyfem/basis/Polygonal</text>
<text text-anchor="middle" x="3363" y="-208.5" font-family="Helvetica,sans-Serif" font-size="10.00">Basis3d.hpp</text>
</a>
</g>
</g>
<!-- Node1&#45;&gt;Node39 -->
<g id="edge51" class="edge">
<title>Node1&#45;&gt;Node39</title>
<path fill="none" stroke="midnightblue" d="M3306.65,-262.17C3319.19,-252.23 3333.97,-240.51 3345.24,-231.58"/>
<polygon fill="midnightblue" stroke="midnightblue" points="3304.46,-259.44 3298.79,-268.4 3308.8,-264.93 3304.46,-259.44"/>
</g>
<!-- Node40 -->
<g id="node40" class="node">
<title>Node40</title>
<g id="a_node40"><a xlink:href="_spline_basis2d_8hpp.html" target="_top" xlink:title=" ">
<polygon fill="none" stroke="black" points="3132,-201.5 3132,-231.5 3268,-231.5 3268,-201.5 3132,-201.5"/>
<text text-anchor="start" x="3140" y="-219.5" font-family="Helvetica,sans-Serif" font-size="10.00">src/polyfem/basis/Spline</text>
<text text-anchor="middle" x="3200" y="-208.5" font-family="Helvetica,sans-Serif" font-size="10.00">Basis2d.hpp</text>
</a>
</g>
</g>
<!-- Node1&#45;&gt;Node40 -->
<g id="edge54" class="edge">
<title>Node1&#45;&gt;Node40</title>
<path fill="none" stroke="midnightblue" d="M3255.31,-261.88C3243,-252.01 3228.57,-240.43 3217.54,-231.58"/>
<polygon fill="midnightblue" stroke="midnightblue" points="3253.43,-264.87 3263.42,-268.4 3257.82,-259.41 3253.43,-264.87"/>
</g>
<!-- Node41 -->
<g id="node41" class="node">
<title>Node41</title>
<g id="a_node41"><a xlink:href="_spline_basis3d_8hpp.html" target="_top" xlink:title=" ">
<polygon fill="none" stroke="black" points="3458,-201.5 3458,-231.5 3594,-231.5 3594,-201.5 3458,-201.5"/>
<text text-anchor="start" x="3466" y="-219.5" font-family="Helvetica,sans-Serif" font-size="10.00">src/polyfem/basis/Spline</text>
<text text-anchor="middle" x="3526" y="-208.5" font-family="Helvetica,sans-Serif" font-size="10.00">Basis3d.hpp</text>
</a>
</g>
</g>
<!-- Node1&#45;&gt;Node41 -->
<g id="edge57" class="edge">
<title>Node1&#45;&gt;Node41</title>
<path fill="none" stroke="midnightblue" d="M3343.76,-265.85C3383.7,-255.25 3434.87,-241.68 3472.81,-231.61"/>
<polygon fill="midnightblue" stroke="midnightblue" points="3342.63,-262.53 3333.86,-268.48 3344.42,-269.29 3342.63,-262.53"/>
</g>
<!-- Node3 -->
<g id="node3" class="node">
<title>Node3</title>
<g id="a_node3"><a xlink:href="_state_8cpp.html" target="_top" xlink:title=" ">
<polygon fill="none" stroke="black" points="3285.5,-140 3285.5,-159 3408.5,-159 3408.5,-140 3285.5,-140"/>
<text text-anchor="middle" x="3347" y="-147" font-family="Helvetica,sans-Serif" font-size="10.00">src/polyfem/State.cpp</text>
</a>
</g>
</g>
<!-- Node2&#45;&gt;Node3 -->
<g id="edge2" class="edge">
<title>Node2&#45;&gt;Node3</title>
<path fill="none" stroke="midnightblue" d="M1496.56,-215.21C1794.16,-213.76 2922.1,-205.65 3276,-165 3287.62,-163.66 3300.17,-161.39 3311.44,-159.03"/>
<polygon fill="midnightblue" stroke="midnightblue" points="1496.31,-211.71 1486.33,-215.26 1496.35,-218.71 1496.31,-211.71"/>
</g>
<!-- Node4 -->
<g id="node4" class="node">
<title>Node4</title>
<g id="a_node4"><a xlink:href="_generic_problem_8cpp.html" target="_top" xlink:title=" ">
<polygon fill="none" stroke="black" points="2053,-134.5 2053,-164.5 2181,-164.5 2181,-134.5 2053,-134.5"/>
<text text-anchor="start" x="2061" y="-152.5" font-family="Helvetica,sans-Serif" font-size="10.00">src/polyfem/assembler</text>
<text text-anchor="middle" x="2117" y="-141.5" font-family="Helvetica,sans-Serif" font-size="10.00">/GenericProblem.cpp</text>
</a>
</g>
</g>
<!-- Node2&#45;&gt;Node4 -->
<g id="edge3" class="edge">
<title>Node2&#45;&gt;Node4</title>
<path fill="none" stroke="midnightblue" d="M1496.48,-212.3C1612.52,-206.57 1846.99,-192.5 2044,-165 2046.94,-164.59 2049.95,-164.14 2052.98,-163.65"/>
<polygon fill="midnightblue" stroke="midnightblue" points="1496.12,-208.81 1486.3,-212.8 1496.46,-215.8 1496.12,-208.81"/>
</g>
<!-- Node5 -->
<g id="node5" class="node">
<title>Node5</title>
<g id="a_node5"><a xlink:href="main_8cpp.html" target="_top" xlink:title=" ">
<polygon fill="none" stroke="black" points="2199,-140 2199,-159 2321,-159 2321,-140 2199,-140"/>
<text text-anchor="middle" x="2260" y="-147" font-family="Helvetica,sans-Serif" font-size="10.00">src/polyfem/main.cpp</text>
</a>
</g>
</g>
<!-- Node2&#45;&gt;Node5 -->
<g id="edge4" class="edge">
<title>Node2&#45;&gt;Node5</title>
<path fill="none" stroke="midnightblue" d="M1496.67,-214.06C1633.12,-210.6 1936.77,-199.41 2190,-165 2200.95,-163.51 2212.74,-161.31 2223.47,-159.06"/>
<polygon fill="midnightblue" stroke="midnightblue" points="1496.26,-210.56 1486.35,-214.31 1496.43,-217.56 1496.26,-210.56"/>
</g>
<!-- Node6 -->
<g id="node6" class="node">
<title>Node6</title>
<g id="a_node6"><a xlink:href="_elastic_problem_8cpp.html" target="_top" xlink:title=" ">
<polygon fill="none" stroke="black" points="2339,-134.5 2339,-164.5 2457,-164.5 2457,-134.5 2339,-134.5"/>
<text text-anchor="start" x="2347" y="-152.5" font-family="Helvetica,sans-Serif" font-size="10.00">src/polyfem/problem</text>
<text text-anchor="middle" x="2398" y="-141.5" font-family="Helvetica,sans-Serif" font-size="10.00">/ElasticProblem.cpp</text>
</a>
</g>
</g>
<!-- Node2&#45;&gt;Node6 -->
<g id="edge5" class="edge">
<title>Node2&#45;&gt;Node6</title>
<path fill="none" stroke="midnightblue" d="M1496.37,-215.25C1650.42,-213.89 2021.86,-206.19 2330,-165 2332.87,-164.62 2335.8,-164.18 2338.76,-163.7"/>
<polygon fill="midnightblue" stroke="midnightblue" points="1496.07,-211.75 1486.1,-215.33 1496.13,-218.75 1496.07,-211.75"/>
</g>
<!-- Node7 -->
<g id="node7" class="node">
<title>Node7</title>
<g id="a_node7"><a xlink:href="_kernel_problem_8cpp.html" target="_top" xlink:title=" ">
<polygon fill="none" stroke="black" points="2475,-134.5 2475,-164.5 2593,-164.5 2593,-134.5 2475,-134.5"/>
<text text-anchor="start" x="2483" y="-152.5" font-family="Helvetica,sans-Serif" font-size="10.00">src/polyfem/problem</text>
<text text-anchor="middle" x="2534" y="-141.5" font-family="Helvetica,sans-Serif" font-size="10.00">/KernelProblem.cpp</text>
</a>
</g>
</g>
<!-- Node2&#45;&gt;Node7 -->
<g id="edge6" class="edge">
<title>Node2&#45;&gt;Node7</title>
<path fill="none" stroke="midnightblue" d="M1496.34,-216C1666.31,-216.32 2104.08,-212.04 2466,-165 2468.87,-164.63 2471.8,-164.2 2474.76,-163.72"/>
<polygon fill="midnightblue" stroke="midnightblue" points="1496.27,-212.5 1486.26,-215.98 1496.25,-219.5 1496.27,-212.5"/>
</g>
<!-- Node8 -->
<g id="node8" class="node">
<title>Node8</title>
<g id="a_node8"><a xlink:href="_point_based_problem_8cpp.html" target="_top" xlink:title=" ">
<polygon fill="none" stroke="black" points="2611.5,-134.5 2611.5,-164.5 2746.5,-164.5 2746.5,-134.5 2611.5,-134.5"/>
<text text-anchor="start" x="2619.5" y="-152.5" font-family="Helvetica,sans-Serif" font-size="10.00">src/polyfem/problem</text>
<text text-anchor="middle" x="2679" y="-141.5" font-family="Helvetica,sans-Serif" font-size="10.00">/PointBasedProblem.cpp</text>
</a>
</g>
</g>
<!-- Node2&#45;&gt;Node8 -->
<g id="edge7" class="edge">
<title>Node2&#45;&gt;Node8</title>
<path fill="none" stroke="midnightblue" d="M1496.33,-215.99C1681.11,-216.48 2185.36,-212.91 2602,-165 2605.11,-164.64 2608.28,-164.23 2611.48,-163.78"/>
<polygon fill="midnightblue" stroke="midnightblue" points="1496.2,-212.49 1486.19,-215.96 1496.18,-219.49 1496.2,-212.49"/>
</g>
<!-- Node9 -->
<g id="node9" class="node">
<title>Node9</title>
<g id="a_node9"><a xlink:href="_a_l_n_l_problem_8hpp.html" target="_top" xlink:title=" ">
<polygon fill="none" stroke="black" points="245.5,-67.5 245.5,-97.5 352.5,-97.5 352.5,-67.5 245.5,-67.5"/>
<text text-anchor="start" x="253.5" y="-85.5" font-family="Helvetica,sans-Serif" font-size="10.00">src/polyfem/solver</text>
<text text-anchor="middle" x="299" y="-74.5" font-family="Helvetica,sans-Serif" font-size="10.00">/ALNLProblem.hpp</text>
</a>
</g>
</g>
<!-- Node2&#45;&gt;Node9 -->
<g id="edge8" class="edge">
<title>Node2&#45;&gt;Node9</title>
<path fill="none" stroke="midnightblue" d="M1351.88,-214.41C1134.17,-210.77 493.11,-197.41 405,-165 394.87,-161.27 343.5,-119.94 316.17,-97.61"/>
<polygon fill="midnightblue" stroke="midnightblue" points="1351.87,-217.91 1361.92,-214.58 1351.98,-210.91 1351.87,-217.91"/>
</g>
<!-- Node11 -->
<g id="node11" class="node">
<title>Node11</title>
<g id="a_node11"><a xlink:href="_state_output_8cpp.html" target="_top" xlink:title=" ">
<polygon fill="none" stroke="black" points="0,-6 0,-25 184,-25 184,-6 0,-6"/>
<text text-anchor="middle" x="92" y="-13" font-family="Helvetica,sans-Serif" font-size="10.00">src/polyfem/state/StateOutput.cpp</text>
</a>
</g>
</g>
<!-- Node2&#45;&gt;Node11 -->
<g id="edge26" class="edge">
<title>Node2&#45;&gt;Node11</title>
<path fill="none" stroke="midnightblue" d="M1351.61,-216.12C1127.79,-217.44 449.23,-216.95 236,-165 167.42,-148.29 129.95,-157.52 92,-98 77.47,-75.21 84.62,-41.06 89.19,-25.19"/>
<polygon fill="midnightblue" stroke="midnightblue" points="1351.94,-219.61 1361.92,-216.05 1351.9,-212.61 1351.94,-219.61"/>
</g>
<!-- Node12 -->
<g id="node12" class="node">
<title>Node12</title>
<g id="a_node12"><a xlink:href="_state_solve_nonlinear_8cpp.html" target="_top" xlink:title=" ">
<polygon fill="none" stroke="black" points="334,-0.5 334,-30.5 492,-30.5 492,-0.5 334,-0.5"/>
<text text-anchor="start" x="342" y="-18.5" font-family="Helvetica,sans-Serif" font-size="10.00">src/polyfem/state/StateSolve</text>
<text text-anchor="middle" x="413" y="-7.5" font-family="Helvetica,sans-Serif" font-size="10.00">Nonlinear.cpp</text>
</a>
</g>
</g>
<!-- Node2&#45;&gt;Node12 -->
<g id="edge31" class="edge">
<title>Node2&#45;&gt;Node12</title>
<path fill="none" stroke="midnightblue" d="M1351.6,-214.25C1129.71,-210.1 472.02,-195.3 438,-165 399.34,-130.57 405.53,-60.57 410.32,-30.61"/>
<polygon fill="midnightblue" stroke="midnightblue" points="1351.77,-217.76 1361.84,-214.44 1351.9,-210.76 1351.77,-217.76"/>
</g>
<!-- Node13 -->
<g id="node13" class="node">
<title>Node13</title>
<g id="a_node13"><a xlink:href="_n_l_problem_8hpp.html" target="_top" xlink:title=" ">
<polygon fill="none" stroke="black" points="245.5,-134.5 245.5,-164.5 352.5,-164.5 352.5,-134.5 245.5,-134.5"/>
<text text-anchor="start" x="253.5" y="-152.5" font-family="Helvetica,sans-Serif" font-size="10.00">src/polyfem/solver</text>
<text text-anchor="middle" x="299" y="-141.5" font-family="Helvetica,sans-Serif" font-size="10.00">/NLProblem.hpp</text>
</a>
</g>
</g>
<!-- Node2&#45;&gt;Node13 -->
<g id="edge12" class="edge">
<title>Node2&#45;&gt;Node13</title>
<path fill="none" stroke="midnightblue" d="M1351.56,-216.08C1179.82,-216.56 734.8,-212.68 367,-165 362.33,-164.39 357.51,-163.64 352.68,-162.79"/>
<polygon fill="midnightblue" stroke="midnightblue" points="1351.75,-219.58 1361.74,-216.04 1351.73,-212.58 1351.75,-219.58"/>
</g>
<!-- Node15 -->
<g id="node15" class="node">
<title>Node15</title>
<g id="a_node15"><a xlink:href="_navier_stokes_solver_8hpp.html" target="_top" xlink:title=" ">
<polygon fill="none" stroke="black" points="1899.5,-134.5 1899.5,-164.5 2034.5,-164.5 2034.5,-134.5 1899.5,-134.5"/>
<text text-anchor="start" x="1907.5" y="-152.5" font-family="Helvetica,sans-Serif" font-size="10.00">src/polyfem/solver</text>
<text text-anchor="middle" x="1967" y="-141.5" font-family="Helvetica,sans-Serif" font-size="10.00">/NavierStokesSolver.hpp</text>
</a>
</g>
</g>
<!-- Node2&#45;&gt;Node15 -->
<g id="edge17" class="edge">
<title>Node2&#45;&gt;Node15</title>
<path fill="none" stroke="midnightblue" d="M1496.02,-209.46C1587.77,-201.35 1751.11,-185.57 1890,-165 1893.09,-164.54 1896.26,-164.05 1899.44,-163.53"/>
<polygon fill="midnightblue" stroke="midnightblue" points="1495.66,-205.97 1486.01,-210.33 1496.28,-212.95 1495.66,-205.97"/>
</g>
<!-- Node17 -->
<g id="node17" class="node">
<title>Node17</title>
<g id="a_node17"><a xlink:href="_state_solve_navier_stokes_8cpp.html" target="_top" xlink:title=" ">
<polygon fill="none" stroke="black" points="1232,-67.5 1232,-97.5 1390,-97.5 1390,-67.5 1232,-67.5"/>
<text text-anchor="start" x="1240" y="-85.5" font-family="Helvetica,sans-Serif" font-size="10.00">src/polyfem/state/StateSolve</text>
<text text-anchor="middle" x="1311" y="-74.5" font-family="Helvetica,sans-Serif" font-size="10.00">NavierStokes.cpp</text>
</a>
</g>
</g>
<!-- Node2&#45;&gt;Node17 -->
<g id="edge30" class="edge">
<title>Node2&#45;&gt;Node17</title>
<path fill="none" stroke="midnightblue" d="M1385.15,-203.29C1365.85,-195.32 1343.78,-182.99 1330,-165 1314.81,-145.16 1311.45,-115.19 1310.89,-97.66"/>
<polygon fill="midnightblue" stroke="midnightblue" points="1384.05,-206.62 1394.64,-206.96 1386.57,-200.09 1384.05,-206.62"/>
</g>
<!-- Node18 -->
<g id="node18" class="node">
<title>Node18</title>
<g id="a_node18"><a xlink:href="_transient_navier_stokes_solver_8hpp.html" target="_top" xlink:title=" ">
<polygon fill="none" stroke="black" points="687.5,-134.5 687.5,-164.5 866.5,-164.5 866.5,-134.5 687.5,-134.5"/>
<text text-anchor="start" x="695.5" y="-152.5" font-family="Helvetica,sans-Serif" font-size="10.00">src/polyfem/solver</text>
<text text-anchor="middle" x="777" y="-141.5" font-family="Helvetica,sans-Serif" font-size="10.00">/TransientNavierStokesSolver.hpp</text>
</a>
</g>
</g>
<!-- Node2&#45;&gt;Node18 -->
<g id="edge20" class="edge">
<title>Node2&#45;&gt;Node18</title>
<path fill="none" stroke="midnightblue" d="M1351.67,-210.08C1246.7,-201.92 1046.08,-185.28 876,-165 872.9,-164.63 869.74,-164.24 866.55,-163.84"/>
<polygon fill="midnightblue" stroke="midnightblue" points="1351.6,-213.58 1361.84,-210.86 1352.14,-206.6 1351.6,-213.58"/>
</g>
<!-- Node20 -->
<g id="node20" class="node">
<title>Node20</title>
<g id="a_node20"><a xlink:href="_state_init_8cpp.html" target="_top" xlink:title=" ">
<polygon fill="none" stroke="black" points="884.5,-140 884.5,-159 1051.5,-159 1051.5,-140 884.5,-140"/>
<text text-anchor="middle" x="968" y="-147" font-family="Helvetica,sans-Serif" font-size="10.00">src/polyfem/state/StateInit.cpp</text>
</a>
</g>
</g>
<!-- Node2&#45;&gt;Node20 -->
<g id="edge23" class="edge">
<title>Node2&#45;&gt;Node20</title>
<path fill="none" stroke="midnightblue" d="M1351.93,-205.83C1278.65,-195.91 1161.85,-179.88 1061,-165 1048.23,-163.12 1034.48,-161.01 1021.58,-159.01"/>
<polygon fill="midnightblue" stroke="midnightblue" points="1351.59,-209.32 1361.97,-207.19 1352.53,-202.38 1351.59,-209.32"/>
</g>
<!-- Node21 -->
<g id="node21" class="node">
<title>Node21</title>
<g id="a_node21"><a xlink:href="_state_interpolation_8cpp.html" target="_top" xlink:title=" ">
<polygon fill="none" stroke="black" points="1069.5,-140 1069.5,-159 1282.5,-159 1282.5,-140 1069.5,-140"/>
<text text-anchor="middle" x="1176" y="-147" font-family="Helvetica,sans-Serif" font-size="10.00">src/polyfem/state/StateInterpolation.cpp</text>
</a>
</g>
</g>
<!-- Node2&#45;&gt;Node21 -->
<g id="edge24" class="edge">
<title>Node2&#45;&gt;Node21</title>
<path fill="none" stroke="midnightblue" d="M1381.36,-204.32C1332.39,-191.49 1253.12,-170.71 1208.75,-159.08"/>
<polygon fill="midnightblue" stroke="midnightblue" points="1380.76,-207.79 1391.32,-206.94 1382.54,-201.01 1380.76,-207.79"/>
</g>
<!-- Node22 -->
<g id="node22" class="node">
<title>Node22</title>
<g id="a_node22"><a xlink:href="_state_load_8cpp.html" target="_top" xlink:title=" ">
<polygon fill="none" stroke="black" points="649,-73 649,-92 823,-92 823,-73 649,-73"/>
<text text-anchor="middle" x="736" y="-80" font-family="Helvetica,sans-Serif" font-size="10.00">src/polyfem/state/StateLoad.cpp</text>
</a>
</g>
</g>
<!-- Node2&#45;&gt;Node22 -->
<g id="edge25" class="edge">
<title>Node2&#45;&gt;Node22</title>
<path fill="none" stroke="midnightblue" d="M1351.89,-216.07C1173.82,-216.72 724.31,-213.49 679,-165 656.6,-141.03 698.85,-107.75 722.12,-92.18"/>
<polygon fill="midnightblue" stroke="midnightblue" points="1351.97,-219.57 1361.95,-216.03 1351.94,-212.57 1351.97,-219.57"/>
</g>
<!-- Node23 -->
<g id="node23" class="node">
<title>Node23</title>
<g id="a_node23"><a xlink:href="_state_pref_8cpp.html" target="_top" xlink:title=" ">
<polygon fill="none" stroke="black" points="1339,-140 1339,-159 1509,-159 1509,-140 1339,-140"/>
<text text-anchor="middle" x="1424" y="-147" font-family="Helvetica,sans-Serif" font-size="10.00">src/polyfem/state/StatePref.cpp</text>
</a>
</g>
</g>
<!-- Node2&#45;&gt;Node23 -->
<g id="edge27" class="edge">
<title>Node2&#45;&gt;Node23</title>
<path fill="none" stroke="midnightblue" d="M1424,-196.54C1424,-184.17 1424,-168.62 1424,-159.13"/>
<polygon fill="midnightblue" stroke="midnightblue" points="1420.5,-196.73 1424,-206.73 1427.5,-196.73 1420.5,-196.73"/>
</g>
<!-- Node24 -->
<g id="node24" class="node">
<title>Node24</title>
<g id="a_node24"><a xlink:href="_state_solve_8cpp.html" target="_top" xlink:title=" ">
<polygon fill="none" stroke="black" points="1527,-140 1527,-159 1705,-159 1705,-140 1527,-140"/>
<text text-anchor="middle" x="1616" y="-147" font-family="Helvetica,sans-Serif" font-size="10.00">src/polyfem/state/StateSolve.cpp</text>
</a>
</g>
</g>
<!-- Node2&#45;&gt;Node24 -->
<g id="edge28" class="edge">
<title>Node2&#45;&gt;Node24</title>
<path fill="none" stroke="midnightblue" d="M1459.15,-203.6C1497.21,-190.71 1557,-170.47 1590.7,-159.06"/>
<polygon fill="midnightblue" stroke="midnightblue" points="1457.85,-200.35 1449.5,-206.87 1460.09,-206.98 1457.85,-200.35"/>
</g>
<!-- Node25 -->
<g id="node25" class="node">
<title>Node25</title>
<g id="a_node25"><a xlink:href="_state_solve_linear_8cpp.html" target="_top" xlink:title=" ">
<polygon fill="none" stroke="black" points="1723,-134.5 1723,-164.5 1881,-164.5 1881,-134.5 1723,-134.5"/>
<text text-anchor="start" x="1731" y="-152.5" font-family="Helvetica,sans-Serif" font-size="10.00">src/polyfem/state/StateSolve</text>
<text text-anchor="middle" x="1802" y="-141.5" font-family="Helvetica,sans-Serif" font-size="10.00">Linear.cpp</text>
</a>
</g>
</g>
<!-- Node2&#45;&gt;Node25 -->
<g id="edge29" class="edge">
<title>Node2&#45;&gt;Node25</title>
<path fill="none" stroke="midnightblue" d="M1483.82,-205.21C1548.38,-194.11 1651.48,-176.38 1722.74,-164.13"/>
<polygon fill="midnightblue" stroke="midnightblue" points="1483.07,-201.79 1473.81,-206.94 1484.25,-208.69 1483.07,-201.79"/>
</g>
<!-- Node26 -->
<g id="node26" class="node">
<title>Node26</title>
<g id="a_node26"><a xlink:href="_f_e_bio_reader_8hpp.html" target="_top" xlink:title=" ">
<polygon fill="none" stroke="black" points="447,-140 447,-159 631,-159 631,-140 447,-140"/>
<text text-anchor="middle" x="539" y="-147" font-family="Helvetica,sans-Serif" font-size="10.00">src/polyfem/utils/FEBioReader.hpp</text>
</a>
</g>
</g>
<!-- Node2&#45;&gt;Node26 -->
<g id="edge32" class="edge">
<title>Node2&#45;&gt;Node26</title>
<path fill="none" stroke="midnightblue" d="M1351.76,-212.54C1214.04,-206.51 904.49,-191.13 645,-165 629.01,-163.39 611.73,-161.21 595.85,-159.04"/>
<polygon fill="midnightblue" stroke="midnightblue" points="1351.63,-216.04 1361.77,-212.97 1351.94,-209.04 1351.63,-216.04"/>
</g>
<!-- Node10 -->
<g id="node10" class="node">
<title>Node10</title>
<g id="a_node10"><a xlink:href="_a_l_n_l_problem_8cpp.html" target="_top" xlink:title=" ">
<polygon fill="none" stroke="black" points="208.5,-0.5 208.5,-30.5 315.5,-30.5 315.5,-0.5 208.5,-0.5"/>
<text text-anchor="start" x="216.5" y="-18.5" font-family="Helvetica,sans-Serif" font-size="10.00">src/polyfem/solver</text>
<text text-anchor="middle" x="262" y="-7.5" font-family="Helvetica,sans-Serif" font-size="10.00">/ALNLProblem.cpp</text>
</a>
</g>
</g>
<!-- Node9&#45;&gt;Node10 -->
<g id="edge9" class="edge">
<title>Node9&#45;&gt;Node10</title>
<path fill="none" stroke="midnightblue" d="M285.95,-58.58C280.64,-49.24 274.66,-38.75 270.01,-30.58"/>
<polygon fill="midnightblue" stroke="midnightblue" points="282.98,-60.44 290.97,-67.4 289.07,-56.97 282.98,-60.44"/>
</g>
<!-- Node9&#45;&gt;Node11 -->
<g id="edge10" class="edge">
<title>Node9&#45;&gt;Node11</title>
<path fill="none" stroke="midnightblue" d="M244.64,-64.43C204.27,-51.75 150.92,-35 119.16,-25.03"/>
<polygon fill="midnightblue" stroke="midnightblue" points="243.75,-67.82 254.34,-67.48 245.85,-61.14 243.75,-67.82"/>
</g>
<!-- Node9&#45;&gt;Node12 -->
<g id="edge11" class="edge">
<title>Node9&#45;&gt;Node12</title>
<path fill="none" stroke="midnightblue" d="M332.68,-62.3C350.52,-52.12 372.04,-39.85 388.31,-30.58"/>
<polygon fill="midnightblue" stroke="midnightblue" points="330.69,-59.4 323.74,-67.4 334.16,-65.48 330.69,-59.4"/>
</g>
<!-- Node13&#45;&gt;Node9 -->
<g id="edge13" class="edge">
<title>Node13&#45;&gt;Node9</title>
<path fill="none" stroke="midnightblue" d="M299,-124.11C299,-115.15 299,-105.32 299,-97.58"/>
<polygon fill="midnightblue" stroke="midnightblue" points="295.5,-124.4 299,-134.4 302.5,-124.4 295.5,-124.4"/>
</g>
<!-- Node13&#45;&gt;Node11 -->
<g id="edge15" class="edge">
<title>Node13&#45;&gt;Node11</title>
<path fill="none" stroke="midnightblue" d="M235.26,-147.43C194.34,-143.3 143.06,-131.14 111,-98 91.51,-77.84 90.61,-41.76 91.34,-25.22"/>
<polygon fill="midnightblue" stroke="midnightblue" points="235.15,-150.94 245.42,-148.32 235.76,-143.96 235.15,-150.94"/>
</g>
<!-- Node13&#45;&gt;Node12 -->
<g id="edge16" class="edge">
<title>Node13&#45;&gt;Node12</title>
<path fill="none" stroke="midnightblue" d="M327.59,-128.31C338.72,-119.69 351.14,-109.07 361,-98 379.98,-76.69 396.68,-47.74 405.76,-30.7"/>
<polygon fill="midnightblue" stroke="midnightblue" points="325.27,-125.68 319.39,-134.49 329.48,-131.27 325.27,-125.68"/>
</g>
<!-- Node14 -->
<g id="node14" class="node">
<title>Node14</title>
<g id="a_node14"><a xlink:href="_n_l_problem_8cpp.html" target="_top" xlink:title=" ">
<polygon fill="none" stroke="black" points="120.5,-67.5 120.5,-97.5 227.5,-97.5 227.5,-67.5 120.5,-67.5"/>
<text text-anchor="start" x="128.5" y="-85.5" font-family="Helvetica,sans-Serif" font-size="10.00">src/polyfem/solver</text>
<text text-anchor="middle" x="174" y="-74.5" font-family="Helvetica,sans-Serif" font-size="10.00">/NLProblem.cpp</text>
</a>
</g>
</g>
<!-- Node13&#45;&gt;Node14 -->
<g id="edge14" class="edge">
<title>Node13&#45;&gt;Node14</title>
<path fill="none" stroke="midnightblue" d="M262.87,-129.71C243.16,-119.46 219.16,-106.98 201.07,-97.58"/>
<polygon fill="midnightblue" stroke="midnightblue" points="261.39,-132.89 271.88,-134.4 264.62,-126.68 261.39,-132.89"/>
</g>
<!-- Node16 -->
<g id="node16" class="node">
<title>Node16</title>
<g id="a_node16"><a xlink:href="_navier_stokes_solver_8cpp.html" target="_top" xlink:title=" ">
<polygon fill="none" stroke="black" points="1900,-67.5 1900,-97.5 2034,-97.5 2034,-67.5 1900,-67.5"/>
<text text-anchor="start" x="1908" y="-85.5" font-family="Helvetica,sans-Serif" font-size="10.00">src/polyfem/solver</text>
<text text-anchor="middle" x="1967" y="-74.5" font-family="Helvetica,sans-Serif" font-size="10.00">/NavierStokesSolver.cpp</text>
</a>
</g>
</g>
<!-- Node15&#45;&gt;Node16 -->
<g id="edge18" class="edge">
<title>Node15&#45;&gt;Node16</title>
<path fill="none" stroke="midnightblue" d="M1967,-124.11C1967,-115.15 1967,-105.32 1967,-97.58"/>
<polygon fill="midnightblue" stroke="midnightblue" points="1963.5,-124.4 1967,-134.4 1970.5,-124.4 1963.5,-124.4"/>
</g>
<!-- Node15&#45;&gt;Node17 -->
<g id="edge19" class="edge">
<title>Node15&#45;&gt;Node17</title>
<path fill="none" stroke="midnightblue" d="M1889.29,-134C1704.76,-109.05 1500.22,-94.6 1390.41,-87.93"/>
<polygon fill="midnightblue" stroke="midnightblue" points="1889.07,-137.5 1899.46,-135.39 1890.02,-130.57 1889.07,-137.5"/>
</g>
<!-- Node18&#45;&gt;Node17 -->
<g id="edge22" class="edge">
<title>Node18&#45;&gt;Node17</title>
<path fill="none" stroke="midnightblue" d="M876.76,-133.93C1007.49,-116.88 1146.91,-101.22 1231.93,-91.96"/>
<polygon fill="midnightblue" stroke="midnightblue" points="876.02,-130.49 866.56,-135.26 876.93,-137.43 876.02,-130.49"/>
</g>
<!-- Node19 -->
<g id="node19" class="node">
<title>Node19</title>
<g id="a_node19"><a xlink:href="_transient_navier_stokes_solver_8cpp.html" target="_top" xlink:title=" ">
<polygon fill="none" stroke="black" points="841.5,-67.5 841.5,-97.5 1020.5,-97.5 1020.5,-67.5 841.5,-67.5"/>
<text text-anchor="start" x="849.5" y="-85.5" font-family="Helvetica,sans-Serif" font-size="10.00">src/polyfem/solver</text>
<text text-anchor="middle" x="931" y="-74.5" font-family="Helvetica,sans-Serif" font-size="10.00">/TransientNavierStokesSolver.cpp</text>
</a>
</g>
</g>
<!-- Node18&#45;&gt;Node19 -->
<g id="edge21" class="edge">
<title>Node18&#45;&gt;Node19</title>
<path fill="none" stroke="midnightblue" d="M819.87,-130.41C844.45,-120.03 874.86,-107.2 897.65,-97.58"/>
<polygon fill="midnightblue" stroke="midnightblue" points="818.27,-127.28 810.42,-134.4 820.99,-133.73 818.27,-127.28"/>
</g>
<!-- Node26&#45;&gt;Node22 -->
<g id="edge33" class="edge">
<title>Node26&#45;&gt;Node22</title>
<path fill="none" stroke="midnightblue" d="M575.06,-136.6C614.12,-123.71 675.47,-103.47 710.05,-92.06"/>
<polygon fill="midnightblue" stroke="midnightblue" points="573.56,-133.41 565.16,-139.87 575.75,-140.06 573.56,-133.41"/>
</g>
<!-- Node27 -->
<g id="node27" class="node">
<title>Node27</title>
<g id="a_node27"><a xlink:href="_f_e_bio_reader_8cpp.html" target="_top" xlink:title=" ">
<polygon fill="none" stroke="black" points="447.5,-73 447.5,-92 630.5,-92 630.5,-73 447.5,-73"/>
<text text-anchor="middle" x="539" y="-80" font-family="Helvetica,sans-Serif" font-size="10.00">src/polyfem/utils/FEBioReader.cpp</text>
</a>
</g>
</g>
<!-- Node26&#45;&gt;Node27 -->
<g id="edge34" class="edge">
<title>Node26&#45;&gt;Node27</title>
<path fill="none" stroke="midnightblue" d="M539,-129.54C539,-117.17 539,-101.62 539,-92.13"/>
<polygon fill="midnightblue" stroke="midnightblue" points="535.5,-129.73 539,-139.73 542.5,-129.73 535.5,-129.73"/>
</g>
<!-- Node28&#45;&gt;Node3 -->
<g id="edge36" class="edge">
<title>Node28&#45;&gt;Node3</title>
<path fill="none" stroke="midnightblue" d="M2918.11,-205.53C2929.08,-203.94 2940.36,-202.38 2951,-201 3095.13,-182.36 3132.43,-187.56 3276,-165 3286.56,-163.34 3297.94,-161.18 3308.42,-159.04"/>
<polygon fill="midnightblue" stroke="midnightblue" points="2917.54,-202.07 2908.15,-206.98 2918.55,-209 2917.54,-202.07"/>
</g>
<!-- Node29 -->
<g id="node29" class="node">
<title>Node29</title>
<g id="a_node29"><a xlink:href="_f_e_basis2d_8cpp.html" target="_top" xlink:title=" ">
<polygon fill="none" stroke="black" points="2765,-140 2765,-159 2941,-159 2941,-140 2765,-140"/>
<text text-anchor="middle" x="2853" y="-147" font-family="Helvetica,sans-Serif" font-size="10.00">src/polyfem/basis/FEBasis2d.cpp</text>
</a>
</g>
</g>
<!-- Node28&#45;&gt;Node29 -->
<g id="edge37" class="edge">
<title>Node28&#45;&gt;Node29</title>
<path fill="none" stroke="midnightblue" d="M2853,-196.54C2853,-184.17 2853,-168.62 2853,-159.13"/>
<polygon fill="midnightblue" stroke="midnightblue" points="2849.5,-196.73 2853,-206.73 2856.5,-196.73 2849.5,-196.73"/>
</g>
<!-- Node30 -->
<g id="node30" class="node">
<title>Node30</title>
<g id="a_node30"><a xlink:href="_polygonal_basis2d_8cpp.html" target="_top" xlink:title=" ">
<polygon fill="none" stroke="black" points="2959,-134.5 2959,-164.5 3113,-164.5 3113,-134.5 2959,-134.5"/>
<text text-anchor="start" x="2967" y="-152.5" font-family="Helvetica,sans-Serif" font-size="10.00">src/polyfem/basis/Polygonal</text>
<text text-anchor="middle" x="3036" y="-141.5" font-family="Helvetica,sans-Serif" font-size="10.00">Basis2d.cpp</text>
</a>
</g>
</g>
<!-- Node28&#45;&gt;Node30 -->
<g id="edge38" class="edge">
<title>Node28&#45;&gt;Node30</title>
<path fill="none" stroke="midnightblue" d="M2886.81,-203.49C2917.84,-192.47 2963.81,-176.14 2996.51,-164.53"/>
<polygon fill="midnightblue" stroke="midnightblue" points="2885.55,-200.22 2877.3,-206.87 2887.9,-206.82 2885.55,-200.22"/>
</g>
<!-- Node31 -->
<g id="node31" class="node">
<title>Node31</title>
<g id="a_node31"><a xlink:href="_spline_basis2d_8cpp.html" target="_top" xlink:title=" ">
<polygon fill="none" stroke="black" points="3131,-134.5 3131,-164.5 3267,-164.5 3267,-134.5 3131,-134.5"/>
<text text-anchor="start" x="3139" y="-152.5" font-family="Helvetica,sans-Serif" font-size="10.00">src/polyfem/basis/Spline</text>
<text text-anchor="middle" x="3199" y="-141.5" font-family="Helvetica,sans-Serif" font-size="10.00">Basis2d.cpp</text>
</a>
</g>
</g>
<!-- Node28&#45;&gt;Node31 -->
<g id="edge39" class="edge">
<title>Node28&#45;&gt;Node31</title>
<path fill="none" stroke="midnightblue" d="M2908.82,-205.03C2963.23,-194.82 3048.3,-178.86 3122,-165 3124.94,-164.45 3127.95,-163.88 3130.98,-163.31"/>
<polygon fill="midnightblue" stroke="midnightblue" points="2907.88,-201.65 2898.69,-206.93 2909.17,-208.53 2907.88,-201.65"/>
</g>
<!-- Node32&#45;&gt;Node3 -->
<g id="edge41" class="edge">
<title>Node32&#45;&gt;Node3</title>
<path fill="none" stroke="midnightblue" d="M3641.11,-205.26C3583.78,-195.35 3494.88,-179.71 3418,-165 3408.24,-163.13 3397.74,-161.04 3387.89,-159.03"/>
<polygon fill="midnightblue" stroke="midnightblue" points="3640.64,-208.73 3651.09,-206.98 3641.83,-201.83 3640.64,-208.73"/>
</g>
<!-- Node33 -->
<g id="node33" class="node">
<title>Node33</title>
<g id="a_node33"><a xlink:href="_f_e_basis3d_8cpp.html" target="_top" xlink:title=" ">
<polygon fill="none" stroke="black" points="3753,-140 3753,-159 3929,-159 3929,-140 3753,-140"/>
<text text-anchor="middle" x="3841" y="-147" font-family="Helvetica,sans-Serif" font-size="10.00">src/polyfem/basis/FEBasis3d.cpp</text>
</a>
</g>
</g>
<!-- Node32&#45;&gt;Node33 -->
<g id="edge42" class="edge">
<title>Node32&#45;&gt;Node33</title>
<path fill="none" stroke="midnightblue" d="M3728.76,-202.61C3756.49,-189.74 3798.34,-170.31 3822.33,-159.17"/>
<polygon fill="midnightblue" stroke="midnightblue" points="3727.19,-199.48 3719.59,-206.87 3730.13,-205.83 3727.19,-199.48"/>
</g>
<!-- Node34 -->
<g id="node34" class="node">
<title>Node34</title>
<g id="a_node34"><a xlink:href="_polygonal_basis3d_8cpp.html" target="_top" xlink:title=" ">
<polygon fill="none" stroke="black" points="3427,-134.5 3427,-164.5 3581,-164.5 3581,-134.5 3427,-134.5"/>
<text text-anchor="start" x="3435" y="-152.5" font-family="Helvetica,sans-Serif" font-size="10.00">src/polyfem/basis/Polygonal</text>
<text text-anchor="middle" x="3504" y="-141.5" font-family="Helvetica,sans-Serif" font-size="10.00">Basis3d.cpp</text>
</a>
</g>
</g>
<!-- Node32&#45;&gt;Node34 -->
<g id="edge43" class="edge">
<title>Node32&#45;&gt;Node34</title>
<path fill="none" stroke="midnightblue" d="M3665.03,-203.63C3631.63,-192.61 3581.87,-176.19 3546.52,-164.53"/>
<polygon fill="midnightblue" stroke="midnightblue" points="3664.25,-207.06 3674.84,-206.87 3666.44,-200.41 3664.25,-207.06"/>
</g>
<!-- Node35 -->
<g id="node35" class="node">
<title>Node35</title>
<g id="a_node35"><a xlink:href="_spline_basis3d_8cpp.html" target="_top" xlink:title=" ">
<polygon fill="none" stroke="black" points="3599,-134.5 3599,-164.5 3735,-164.5 3735,-134.5 3599,-134.5"/>
<text text-anchor="start" x="3607" y="-152.5" font-family="Helvetica,sans-Serif" font-size="10.00">src/polyfem/basis/Spline</text>
<text text-anchor="middle" x="3667" y="-141.5" font-family="Helvetica,sans-Serif" font-size="10.00">Basis3d.cpp</text>
</a>
</g>
</g>
<!-- Node32&#45;&gt;Node35 -->
<g id="edge44" class="edge">
<title>Node32&#45;&gt;Node35</title>
<path fill="none" stroke="midnightblue" d="M3691.7,-197.71C3686.24,-187.29 3679.45,-174.3 3674.37,-164.59"/>
<polygon fill="midnightblue" stroke="midnightblue" points="3688.68,-199.5 3696.41,-206.73 3694.88,-196.25 3688.68,-199.5"/>
</g>
<!-- Node36&#45;&gt;Node3 -->
<g id="edge46" class="edge">
<title>Node36&#45;&gt;Node3</title>
<path fill="none" stroke="midnightblue" d="M3797.97,-200.93C3628.49,-180.39 3583.03,-189.58 3418,-165 3407.17,-163.39 3395.51,-161.2 3384.82,-159.01"/>
<polygon fill="midnightblue" stroke="midnightblue" points="3797.62,-204.41 3807.98,-202.16 3798.48,-197.46 3797.62,-204.41"/>
</g>
<!-- Node37 -->
<g id="node37" class="node">
<title>Node37</title>
<g id="a_node37"><a xlink:href="_m_v_polygonal_basis2d_8cpp.html" target="_top" xlink:title=" ">
<polygon fill="none" stroke="black" points="3947,-134.5 3947,-164.5 4117,-164.5 4117,-134.5 3947,-134.5"/>
<text text-anchor="start" x="3955" y="-152.5" font-family="Helvetica,sans-Serif" font-size="10.00">src/polyfem/basis/MVPolygonal</text>
<text text-anchor="middle" x="4032" y="-141.5" font-family="Helvetica,sans-Serif" font-size="10.00">Basis2d.cpp</text>
</a>
</g>
</g>
<!-- Node36&#45;&gt;Node37 -->
<g id="edge47" class="edge">
<title>Node36&#45;&gt;Node37</title>
<path fill="none" stroke="midnightblue" d="M3932.28,-197.13C3954.37,-186.8 3981.51,-174.11 4001.9,-164.58"/>
<polygon fill="midnightblue" stroke="midnightblue" points="3930.74,-193.99 3923.16,-201.4 3933.7,-200.33 3930.74,-193.99"/>
</g>
<!-- Node38&#45;&gt;Node3 -->
<g id="edge49" class="edge">
<title>Node38&#45;&gt;Node3</title>
<path fill="none" stroke="midnightblue" d="M3113.85,-199.39C3174.79,-186.61 3257.56,-169.25 3306.32,-159.03"/>
<polygon fill="midnightblue" stroke="midnightblue" points="3112.95,-196 3103.88,-201.48 3114.39,-202.85 3112.95,-196"/>
</g>
<!-- Node38&#45;&gt;Node30 -->
<g id="edge50" class="edge">
<title>Node38&#45;&gt;Node30</title>
<path fill="none" stroke="midnightblue" d="M3036.62,-191.11C3036.49,-182.15 3036.34,-172.32 3036.22,-164.58"/>
<polygon fill="midnightblue" stroke="midnightblue" points="3033.13,-191.45 3036.78,-201.4 3040.13,-191.34 3033.13,-191.45"/>
</g>
<!-- Node39&#45;&gt;Node3 -->
<g id="edge52" class="edge">
<title>Node39&#45;&gt;Node3</title>
<path fill="none" stroke="midnightblue" d="M3357.12,-191.6C3354.33,-180.28 3351.18,-167.46 3349.14,-159.19"/>
<polygon fill="midnightblue" stroke="midnightblue" points="3353.74,-192.52 3359.53,-201.4 3360.54,-190.85 3353.74,-192.52"/>
</g>
<!-- Node39&#45;&gt;Node34 -->
<g id="edge53" class="edge">
<title>Node39&#45;&gt;Node34</title>
<path fill="none" stroke="midnightblue" d="M3402.85,-197.13C3425.25,-186.8 3452.78,-174.11 3473.46,-164.58"/>
<polygon fill="midnightblue" stroke="midnightblue" points="3401.21,-194.03 3393.59,-201.4 3404.14,-200.39 3401.21,-194.03"/>
</g>
<!-- Node40&#45;&gt;Node3 -->
<g id="edge55" class="edge">
<title>Node40&#45;&gt;Node3</title>
<path fill="none" stroke="midnightblue" d="M3241.17,-197.3C3269.52,-184.76 3305.88,-168.68 3327.76,-159.01"/>
<polygon fill="midnightblue" stroke="midnightblue" points="3239.63,-194.15 3231.9,-201.4 3242.46,-200.55 3239.63,-194.15"/>
</g>
<!-- Node40&#45;&gt;Node31 -->
<g id="edge56" class="edge">
<title>Node40&#45;&gt;Node31</title>
<path fill="none" stroke="midnightblue" d="M3199.62,-191.11C3199.49,-182.15 3199.34,-172.32 3199.22,-164.58"/>
<polygon fill="midnightblue" stroke="midnightblue" points="3196.13,-191.45 3199.78,-201.4 3203.13,-191.34 3196.13,-191.45"/>
</g>
<!-- Node41&#45;&gt;Node3 -->
<g id="edge58" class="edge">
<title>Node41&#45;&gt;Node3</title>
<path fill="none" stroke="midnightblue" d="M3477.66,-197.95C3442.89,-185.32 3397.53,-168.85 3370.43,-159.01"/>
<polygon fill="midnightblue" stroke="midnightblue" points="3476.57,-201.27 3487.16,-201.4 3478.95,-194.69 3476.57,-201.27"/>
</g>
<!-- Node41&#45;&gt;Node35 -->
<g id="edge59" class="edge">
<title>Node41&#45;&gt;Node35</title>
<path fill="none" stroke="midnightblue" d="M3565.85,-197.13C3588.25,-186.8 3615.78,-174.11 3636.46,-164.58"/>
<polygon fill="midnightblue" stroke="midnightblue" points="3564.21,-194.03 3556.59,-201.4 3567.14,-200.39 3564.21,-194.03"/>
</g>
</g>
</svg>
