<?xml version="1.0" encoding="UTF-8" standalone="no"?>
<!DOCTYPE svg PUBLIC "-//W3C//DTD SVG 1.1//EN"
 "http://www.w3.org/Graphics/SVG/1.1/DTD/svg11.dtd">
<!-- Generated by graphviz version 2.43.0 (0)
 -->
<!-- Title: src/polyfem/mesh/remesh/wild_remesh/LocalMesh.hpp Pages: 1 -->
<!--zoomable 192 -->

<svg id="main" version="1.1" xmlns="http://www.w3.org/2000/svg" xmlns:xlink="http://www.w3.org/1999/xlink" xml:space="preserve" onload="init(evt)">
<style type="text/css"><![CDATA[
.node, .edge {opacity: 0.7;}
.node.selected, .edge.selected {opacity: 1;}
.edge:hover path { stroke: red; }
.edge:hover polygon { stroke: red; fill: red; }
]]></style>

<defs>
  <circle id="rim" cx="0" cy="0" r="7"/>
  <circle id="rim2" cx="0" cy="0" r="3.5"/>
  <g id="zoomPlus">
    <use xlink:href="#rim" fill="#404040"><set attributeName="fill" to="#808080" begin="zoomplus.mouseover" end="zoomplus.mouseout"/></use>
    <path d="M-4,0h8M0,-4v8" fill="none" stroke="white" stroke-width="1.5" pointer-events="none"/>
  </g>
  <g id="zoomMin">
    <use xlink:href="#rim" fill="#404040"><set attributeName="fill" to="#808080" begin="zoomminus.mouseover" end="zoomminus.mouseout"/></use>
    <path d="M-4,0h8" fill="none" stroke="white" stroke-width="1.5" pointer-events="none"/>
  </g>
  <g id="arrowUp" transform="translate(30 24)">
    <use xlink:href="#rim"/>
    <path pointer-events="none" fill="none" stroke="white" stroke-width="1.5" d="M0,-3.0v7 M-2.5,-0.5L0,-3.0L2.5,-0.5"/>
  </g>
  <g id="arrowRight" transform="rotate(90) translate(36 -43)">
    <use xlink:href="#rim"/>
    <path pointer-events="none" fill="none" stroke="white" stroke-width="1.5" d="M0,-3.0v7 M-2.5,-0.5L0,-3.0L2.5,-0.5"/>
  </g>
  <g id="arrowDown" transform="rotate(180) translate(-30 -48)">
    <use xlink:href="#rim"/>
    <path pointer-events="none" fill="none" stroke="white" stroke-width="1.5" d="M0,-3.0v7 M-2.5,-0.5L0,-3.0L2.5,-0.5"/>
  </g>
  <g id="arrowLeft" transform="rotate(270) translate(-36 17)">
    <use xlink:href="#rim"/>
    <path pointer-events="none" fill="none" stroke="white" stroke-width="1.5" d="M0,-3.0v7 M-2.5,-0.5L0,-3.0L2.5,-0.5"/>
  </g>
  <g id="resetDef">
    <use xlink:href="#rim2" fill="#404040"><set attributeName="fill" to="#808080" begin="reset.mouseover" end="reset.mouseout"/></use>
  </g>
</defs>
<script type="application/ecmascript">
var viewWidth = 1362;
var viewHeight = 192;
var sectionId = 'dynsection-1';
</script>
<script type="application/ecmascript" xlink:href="svg.min.js"/>
<svg id="graph" class="graph">
<g id="viewport">
<title>src/polyfem/mesh/remesh/wild_remesh/LocalMesh.hpp</title>
<!-- Node1 -->
<g id="Node000001" class="node">
<title>Node1</title>
<g id="a_Node000001"><a xlink:title=" ">
<polygon fill="#999999" stroke="#666666" points="911.5,-184 753.5,-184 753.5,-154 911.5,-154 911.5,-184"/>
<text text-anchor="start" x="761.5" y="-172" font-family="Helvetica,sans-Serif" font-size="10.00">src/polyfem/mesh/remesh</text>
<text text-anchor="middle" x="832.5" y="-161" font-family="Helvetica,sans-Serif" font-size="10.00">/wild_remesh/LocalMesh.hpp</text>
</a>
</g>
</g>
<!-- Node2 -->
<g id="Node000002" class="node">
<title>Node2</title>
<g id="a_Node000002"><a xlink:href="_physics_remesher_8hpp.html" target="_top" xlink:title=" ">
<polygon fill="white" stroke="#666666" points="854.5,-112.5 710.5,-112.5 710.5,-82.5 854.5,-82.5 854.5,-112.5"/>
<text text-anchor="start" x="718.5" y="-100.5" font-family="Helvetica,sans-Serif" font-size="10.00">src/polyfem/mesh/remesh</text>
<text text-anchor="middle" x="782.5" y="-89.5" font-family="Helvetica,sans-Serif" font-size="10.00">/PhysicsRemesher.hpp</text>
</a>
</g>
</g>
<!-- Node1&#45;&gt;Node2 -->
<g id="edge1_Node000001_Node000002" class="edge">
<title>Node1&#45;&gt;Node2</title>
<g id="a_edge1_Node000001_Node000002"><a xlink:title=" ">
<path fill="none" stroke="#63b8ff" d="M816.46,-145.71C808.63,-134.82 799.44,-122.05 792.6,-112.54"/>
<polygon fill="#63b8ff" stroke="#63b8ff" points="813.7,-147.86 822.38,-153.94 819.38,-143.77 813.7,-147.86"/>
</a>
</g>
</g>
<!-- Node5 -->
<g id="Node000005" class="node">
<title>Node5</title>
<g id="a_Node000005"><a xlink:href="_local_mesh_8cpp.html" target="_top" xlink:title=" ">
<polygon fill="white" stroke="#666666" points="1354,-35.5 1197,-35.5 1197,-5.5 1354,-5.5 1354,-35.5"/>
<text text-anchor="start" x="1205" y="-23.5" font-family="Helvetica,sans-Serif" font-size="10.00">src/polyfem/mesh/remesh</text>
<text text-anchor="middle" x="1275.5" y="-12.5" font-family="Helvetica,sans-Serif" font-size="10.00">/wild_remesh/LocalMesh.cpp</text>
</a>
</g>
</g>
<!-- Node1&#45;&gt;Node5 -->
<g id="edge10_Node000001_Node000005" class="edge">
<title>Node1&#45;&gt;Node5</title>
<g id="a_edge10_Node000001_Node000005"><a xlink:title=" ">
<path fill="none" stroke="#63b8ff" d="M846.86,-145.14C862.52,-120.97 887.26,-85.22 901.5,-77 1012.45,-12.94 1061.27,-62.88 1187.5,-41 1196.6,-39.42 1206.17,-37.54 1215.53,-35.57"/>
<polygon fill="#63b8ff" stroke="#63b8ff" points="843.78,-143.44 841.34,-153.75 849.68,-147.22 843.78,-143.44"/>
</a>
</g>
</g>
<!-- Node10 -->
<g id="Node000010" class="node">
<title>Node10</title>
<g id="a_Node000010"><a xlink:href="_wild_remesher_8cpp.html" target="_top" xlink:title=" ">
<polygon fill="white" stroke="#666666" points="1054.5,-112.5 910.5,-112.5 910.5,-82.5 1054.5,-82.5 1054.5,-112.5"/>
<text text-anchor="start" x="918.5" y="-100.5" font-family="Helvetica,sans-Serif" font-size="10.00">src/polyfem/mesh/remesh</text>
<text text-anchor="middle" x="982.5" y="-89.5" font-family="Helvetica,sans-Serif" font-size="10.00">/WildRemesher.cpp</text>
</a>
</g>
</g>
<!-- Node1&#45;&gt;Node10 -->
<g id="edge9_Node000001_Node000010" class="edge">
<title>Node1&#45;&gt;Node10</title>
<g id="a_edge9_Node000001_Node000010"><a xlink:title=" ">
<path fill="none" stroke="#63b8ff" d="M872.1,-149.65C897.18,-138.03 929.13,-123.23 952.19,-112.54"/>
<polygon fill="#63b8ff" stroke="#63b8ff" points="870.46,-146.56 862.85,-153.94 873.4,-152.91 870.46,-146.56"/>
</a>
</g>
</g>
<!-- Node11 -->
<g id="Node000011" class="node">
<title>Node11</title>
<g id="a_Node000011"><a xlink:href="_local_relaxation_data_8hpp.html" target="_top" xlink:title=" ">
<polygon fill="white" stroke="#666666" points="426,-118 263,-118 263,-77 426,-77 426,-118"/>
<text text-anchor="start" x="271" y="-106" font-family="Helvetica,sans-Serif" font-size="10.00">src/polyfem/mesh/remesh</text>
<text text-anchor="start" x="271" y="-95" font-family="Helvetica,sans-Serif" font-size="10.00">/wild_remesh/LocalRelaxation</text>
<text text-anchor="middle" x="344.5" y="-84" font-family="Helvetica,sans-Serif" font-size="10.00">Data.hpp</text>
</a>
</g>
</g>
<!-- Node1&#45;&gt;Node11 -->
<g id="edge11_Node000001_Node000011" class="edge">
<title>Node1&#45;&gt;Node11</title>
<g id="a_edge11_Node000001_Node000011"><a xlink:title=" ">
<path fill="none" stroke="#63b8ff" d="M743.31,-155.3C652.77,-142.4 513.79,-122.61 426.09,-110.12"/>
<polygon fill="#63b8ff" stroke="#63b8ff" points="742.89,-158.77 753.28,-156.72 743.87,-151.84 742.89,-158.77"/>
</a>
</g>
</g>
<!-- Node3 -->
<g id="Node000003" class="node">
<title>Node3</title>
<g id="a_Node000003"><a xlink:href="_physics_remesher_8cpp.html" target="_top" xlink:title=" ">
<polygon fill="white" stroke="#666666" points="325.5,-35.5 181.5,-35.5 181.5,-5.5 325.5,-5.5 325.5,-35.5"/>
<text text-anchor="start" x="189.5" y="-23.5" font-family="Helvetica,sans-Serif" font-size="10.00">src/polyfem/mesh/remesh</text>
<text text-anchor="middle" x="253.5" y="-12.5" font-family="Helvetica,sans-Serif" font-size="10.00">/PhysicsRemesher.cpp</text>
</a>
</g>
</g>
<!-- Node2&#45;&gt;Node3 -->
<g id="edge2_Node000002_Node000003" class="edge">
<title>Node2&#45;&gt;Node3</title>
<g id="a_edge2_Node000002_Node000003"><a xlink:title=" ">
<path fill="none" stroke="#63b8ff" d="M700.19,-89.12C610,-80.38 461.28,-64.04 334.5,-41 325.96,-39.45 316.98,-37.55 308.22,-35.56"/>
<polygon fill="#63b8ff" stroke="#63b8ff" points="700.06,-92.62 710.35,-90.09 700.73,-85.65 700.06,-92.62"/>
</a>
</g>
</g>
<!-- Node4 -->
<g id="Node000004" class="node">
<title>Node4</title>
<g id="a_Node000004"><a xlink:href="_collapse_8cpp.html" target="_top" xlink:title=" ">
<polygon fill="white" stroke="#666666" points="692,-35.5 545,-35.5 545,-5.5 692,-5.5 692,-35.5"/>
<text text-anchor="start" x="553" y="-23.5" font-family="Helvetica,sans-Serif" font-size="10.00">src/polyfem/mesh/remesh</text>
<text text-anchor="middle" x="618.5" y="-12.5" font-family="Helvetica,sans-Serif" font-size="10.00">/wild_remesh/Collapse.cpp</text>
</a>
</g>
</g>
<!-- Node2&#45;&gt;Node4 -->
<g id="edge3_Node000002_Node000004" class="edge">
<title>Node2&#45;&gt;Node4</title>
<g id="a_edge3_Node000002_Node000004"><a xlink:title=" ">
<path fill="none" stroke="#63b8ff" d="M742.3,-78.12C713.58,-64.98 675.51,-47.57 649.21,-35.54"/>
<polygon fill="#63b8ff" stroke="#63b8ff" points="741.1,-81.42 751.65,-82.39 744.01,-75.05 741.1,-81.42"/>
</a>
</g>
</g>
<!-- Node2&#45;&gt;Node5 -->
<g id="edge4_Node000002_Node000005" class="edge">
<title>Node2&#45;&gt;Node5</title>
<g id="a_edge4_Node000002_Node000005"><a xlink:title=" ">
<path fill="none" stroke="#63b8ff" d="M850.69,-80.31C856.7,-79.11 862.7,-77.98 868.5,-77 1009.18,-53.19 1046.77,-64.47 1187.5,-41 1196.76,-39.46 1206.52,-37.56 1216.02,-35.57"/>
<polygon fill="#63b8ff" stroke="#63b8ff" points="849.69,-76.95 840.62,-82.41 851.12,-83.8 849.69,-76.95"/>
</a>
</g>
</g>
<!-- Node6 -->
<g id="Node000006" class="node">
<title>Node6</title>
<g id="a_Node000006"><a xlink:href="_local_relaxation_8cpp.html" target="_top" xlink:title=" ">
<polygon fill="white" stroke="#666666" points="527,-35.5 344,-35.5 344,-5.5 527,-5.5 527,-35.5"/>
<text text-anchor="start" x="352" y="-23.5" font-family="Helvetica,sans-Serif" font-size="10.00">src/polyfem/mesh/remesh</text>
<text text-anchor="middle" x="435.5" y="-12.5" font-family="Helvetica,sans-Serif" font-size="10.00">/wild_remesh/LocalRelaxation.cpp</text>
</a>
</g>
</g>
<!-- Node2&#45;&gt;Node6 -->
<g id="edge5_Node000002_Node000006" class="edge">
<title>Node2&#45;&gt;Node6</title>
<g id="a_edge5_Node000002_Node000006"><a xlink:title=" ">
<path fill="none" stroke="#63b8ff" d="M707.57,-80.3C645.82,-66.96 559.14,-48.22 500.34,-35.51"/>
<polygon fill="#63b8ff" stroke="#63b8ff" points="707.13,-83.79 717.64,-82.48 708.6,-76.95 707.13,-83.79"/>
</a>
</g>
</g>
<!-- Node7 -->
<g id="Node000007" class="node">
<title>Node7</title>
<g id="a_Node000007"><a xlink:href="_smooth_8cpp.html" target="_top" xlink:title=" ">
<polygon fill="white" stroke="#666666" points="854.5,-35.5 710.5,-35.5 710.5,-5.5 854.5,-5.5 854.5,-35.5"/>
<text text-anchor="start" x="718.5" y="-23.5" font-family="Helvetica,sans-Serif" font-size="10.00">src/polyfem/mesh/remesh</text>
<text text-anchor="middle" x="782.5" y="-12.5" font-family="Helvetica,sans-Serif" font-size="10.00">/wild_remesh/Smooth.cpp</text>
</a>
</g>
</g>
<!-- Node2&#45;&gt;Node7 -->
<g id="edge6_Node000002_Node000007" class="edge">
<title>Node2&#45;&gt;Node7</title>
<g id="a_edge6_Node000002_Node000007"><a xlink:title=" ">
<path fill="none" stroke="#63b8ff" d="M782.5,-72.04C782.5,-59.95 782.5,-45.79 782.5,-35.54"/>
<polygon fill="#63b8ff" stroke="#63b8ff" points="779,-72.39 782.5,-82.39 786,-72.39 779,-72.39"/>
</a>
</g>
</g>
<!-- Node8 -->
<g id="Node000008" class="node">
<title>Node8</title>
<g id="a_Node000008"><a xlink:href="_split_8cpp.html" target="_top" xlink:title=" ">
<polygon fill="white" stroke="#666666" points="1016.5,-35.5 872.5,-35.5 872.5,-5.5 1016.5,-5.5 1016.5,-35.5"/>
<text text-anchor="start" x="880.5" y="-23.5" font-family="Helvetica,sans-Serif" font-size="10.00">src/polyfem/mesh/remesh</text>
<text text-anchor="middle" x="944.5" y="-12.5" font-family="Helvetica,sans-Serif" font-size="10.00">/wild_remesh/Split.cpp</text>
</a>
</g>
</g>
<!-- Node2&#45;&gt;Node8 -->
<g id="edge7_Node000002_Node000008" class="edge">
<title>Node2&#45;&gt;Node8</title>
<g id="a_edge7_Node000002_Node000008"><a xlink:title=" ">
<path fill="none" stroke="#63b8ff" d="M822.21,-78.12C850.58,-64.98 888.18,-47.57 914.17,-35.54"/>
<polygon fill="#63b8ff" stroke="#63b8ff" points="820.58,-75.02 812.97,-82.39 823.52,-81.37 820.58,-75.02"/>
</a>
</g>
</g>
<!-- Node9 -->
<g id="Node000009" class="node">
<title>Node9</title>
<g id="a_Node000009"><a xlink:href="_swap_8cpp.html" target="_top" xlink:title=" ">
<polygon fill="white" stroke="#666666" points="1178.5,-35.5 1034.5,-35.5 1034.5,-5.5 1178.5,-5.5 1178.5,-35.5"/>
<text text-anchor="start" x="1042.5" y="-23.5" font-family="Helvetica,sans-Serif" font-size="10.00">src/polyfem/mesh/remesh</text>
<text text-anchor="middle" x="1106.5" y="-12.5" font-family="Helvetica,sans-Serif" font-size="10.00">/wild_remesh/Swap.cpp</text>
</a>
</g>
</g>
<!-- Node2&#45;&gt;Node9 -->
<g id="edge8_Node000002_Node000009" class="edge">
<title>Node2&#45;&gt;Node9</title>
<g id="a_edge8_Node000002_Node000009"><a xlink:title=" ">
<path fill="none" stroke="#63b8ff" d="M854.42,-80.17C913.86,-66.66 993.49,-48.51 1025.5,-41 1032.96,-39.25 1040.81,-37.39 1048.56,-35.54"/>
<polygon fill="#63b8ff" stroke="#63b8ff" points="853.3,-76.84 844.32,-82.47 854.85,-83.66 853.3,-76.84"/>
</a>
</g>
</g>
<!-- Node11&#45;&gt;Node3 -->
<g id="edge12_Node000011_Node000003" class="edge">
<title>Node11&#45;&gt;Node3</title>
<g id="a_edge12_Node000011_Node000003"><a xlink:title=" ">
<path fill="none" stroke="#63b8ff" d="M312.55,-70.17C298.45,-58.55 282.43,-45.34 270.64,-35.63"/>
<polygon fill="#63b8ff" stroke="#63b8ff" points="310.65,-73.14 320.59,-76.79 315.1,-67.73 310.65,-73.14"/>
</a>
</g>
</g>
<!-- Node11&#45;&gt;Node6 -->
<g id="edge13_Node000011_Node000006" class="edge">
<title>Node11&#45;&gt;Node6</title>
<g id="a_edge13_Node000011_Node000006"><a xlink:title=" ">
<path fill="none" stroke="#63b8ff" d="M376.45,-70.17C390.55,-58.55 406.57,-45.34 418.36,-35.63"/>
<polygon fill="#63b8ff" stroke="#63b8ff" points="373.9,-67.73 368.41,-76.79 378.35,-73.14 373.9,-67.73"/>
</a>
</g>
</g>
<!-- Node12 -->
<g id="Node000012" class="node">
<title>Node12</title>
<g id="a_Node000012"><a xlink:href="_local_relaxation_data_8cpp.html" target="_top" xlink:title=" ">
<polygon fill="white" stroke="#666666" points="163,-41 0,-41 0,0 163,0 163,-41"/>
<text text-anchor="start" x="8" y="-29" font-family="Helvetica,sans-Serif" font-size="10.00">src/polyfem/mesh/remesh</text>
<text text-anchor="start" x="8" y="-18" font-family="Helvetica,sans-Serif" font-size="10.00">/wild_remesh/LocalRelaxation</text>
<text text-anchor="middle" x="81.5" y="-7" font-family="Helvetica,sans-Serif" font-size="10.00">Data.cpp</text>
</a>
</g>
</g>
<!-- Node11&#45;&gt;Node12 -->
<g id="edge14_Node000011_Node000012" class="edge">
<title>Node11&#45;&gt;Node12</title>
<g id="a_edge14_Node000011_Node000012"><a xlink:title=" ">
<path fill="none" stroke="#63b8ff" d="M266.35,-74.21C229.4,-63.68 185.67,-51.21 150.03,-41.04"/>
<polygon fill="#63b8ff" stroke="#63b8ff" points="265.51,-77.61 276.09,-76.99 267.43,-70.88 265.51,-77.61"/>
</a>
</g>
</g>
</g>
</svg>

<g id="navigator" transform="translate(0 0)" fill="#404254">
  <rect fill="#f2f5e9" fill-opacity="0.5" stroke="#606060" stroke-width=".5" x="0" y="0" width="60" height="60"/>
  <use id="zoomplus" xlink:href="#zoomPlus" x="17" y="9" onmousedown="handleZoom(evt,'in')"/>
  <use id="zoomminus" xlink:href="#zoomMin" x="42" y="9" onmousedown="handleZoom(evt,'out')"/>
  <use id="reset" xlink:href="#resetDef" x="30" y="36" onmousedown="handleReset()"/>
   <use id="arrowup" xlink:href="#arrowUp" x="0" y="0" onmousedown="handlePan(0,-1)"/>
  <use id="arrowright" xlink:href="#arrowRight" x="0" y="0" onmousedown="handlePan(1,0)"/>
  <use id="arrowdown" xlink:href="#arrowDown" x="0" y="0" onmousedown="handlePan(0,1)"/>
  <use id="arrowleft" xlink:href="#arrowLeft" x="0" y="0" onmousedown="handlePan(-1,0)"/>
</g>
<svg viewBox="0 0 15 15" width="100%" height="30px" preserveAspectRatio="xMaxYMin meet">
 <g id="arrow_out" transform="scale(0.3 0.3)">
  <a xlink:href="_local_mesh_8hpp__dep__incl_org.svg" target="_base">
   <rect id="button" ry="5" rx="5" y="6" x="6" height="38" width="38"
        fill="#f2f5e9" fill-opacity="0.5" stroke="#606060" stroke-width="1.0"/>
   <path id="arrow"
     d="M 11.500037,31.436501 C 11.940474,20.09759 22.043105,11.32322 32.158766,21.979434 L 37.068811,17.246167 C 37.068811,17.246167 37.088388,32 37.088388,32 L 22.160133,31.978069 C 22.160133,31.978069 26.997745,27.140456 26.997745,27.140456 C 18.528582,18.264221 13.291696,25.230495 11.500037,31.436501 z"
     style="fill:#404040;"/>
  </a>
 </g>
</svg>

<style type='text/css'>
<![CDATA[
[data-mouse-over-selected='false'] { opacity: 0.7; }
[data-mouse-over-selected='true']  { opacity: 1.0; }
]]>
</style>
<script type="application/ecmascript"><![CDATA[
document.addEventListener('DOMContentLoaded', (event) => {
  highlightEdges();
  highlightAdjacentNodes();
});
]]></script>
</svg>
