<?xml version="1.0" encoding="UTF-8" standalone="no"?>
<!DOCTYPE svg PUBLIC "-//W3C//DTD SVG 1.1//EN"
 "http://www.w3.org/Graphics/SVG/1.1/DTD/svg11.dtd">
<!-- Generated by graphviz version 2.43.0 (0)
 -->
<!-- Title: src/polyfem/basis/MVPolygonalBasis2d.hpp Pages: 1 -->
<svg width="1693pt" height="423pt"
 viewBox="0.00 0.00 1693.00 423.00" xmlns="http://www.w3.org/2000/svg" xmlns:xlink="http://www.w3.org/1999/xlink">
<g id="graph0" class="graph" transform="scale(1 1) rotate(0) translate(4 419)">
<title>src/polyfem/basis/MVPolygonalBasis2d.hpp</title>
<!-- Node1 -->
<g id="node1" class="node">
<title>Node1</title>
<g id="a_node1"><a xlink:title=" ">
<polygon fill="#999999" stroke="#666666" points="1338,-415 1168,-415 1168,-385 1338,-385 1338,-415"/>
<text text-anchor="start" x="1176" y="-403" font-family="Helvetica,sans-Serif" font-size="10.00">src/polyfem/basis/MVPolygonal</text>
<text text-anchor="middle" x="1253" y="-392" font-family="Helvetica,sans-Serif" font-size="10.00">Basis2d.hpp</text>
</a>
</g>
</g>
<!-- Node2 -->
<g id="node2" class="node">
<title>Node2</title>
<g id="a_node2"><a xlink:href="_c_mesh2_d_8hpp.html" target="_top" xlink:title=" ">
<polygon fill="white" stroke="#666666" points="332.5,-349 201.5,-349 201.5,-319 332.5,-319 332.5,-349"/>
<text text-anchor="start" x="209.5" y="-337" font-family="Helvetica,sans-Serif" font-size="10.00">polyfem/mesh/mesh2D</text>
<text text-anchor="middle" x="267" y="-326" font-family="Helvetica,sans-Serif" font-size="10.00">/CMesh2D.hpp</text>
</a>
</g>
</g>
<!-- Node1&#45;&gt;Node2 -->
<g id="edge1" class="edge">
<title>Node1&#45;&gt;Node2</title>
<path fill="none" stroke="#63b8ff" d="M1167.65,-393.46C977.89,-381.14 523.52,-351.65 342.9,-339.93"/>
<polygon fill="#63b8ff" stroke="#63b8ff" points="342.9,-336.42 332.7,-339.26 342.45,-343.4 342.9,-336.42"/>
</g>
<!-- Node11 -->
<g id="node11" class="node">
<title>Node11</title>
<g id="a_node11"><a xlink:title=" ">
<polygon fill="#e0e0e0" stroke="#999999" points="899.5,-19 822.5,-19 822.5,0 899.5,0 899.5,-19"/>
<text text-anchor="middle" x="861" y="-7" font-family="Helvetica,sans-Serif" font-size="10.00">Eigen/Dense</text>
</a>
</g>
</g>
<!-- Node1&#45;&gt;Node11 -->
<g id="edge59" class="edge">
<title>Node1&#45;&gt;Node11</title>
<path fill="none" stroke="#63b8ff" d="M1311.72,-384.98C1362.53,-369.4 1432.88,-338.75 1466,-283 1504.89,-217.53 1447.38,-187.96 1371,-121 1324.35,-80.1 1307.2,-73.54 1248,-55 1130.42,-18.18 984.2,-11.23 909.65,-10.28"/>
<polygon fill="#63b8ff" stroke="#63b8ff" points="909.65,-6.78 899.61,-10.19 909.58,-13.78 909.65,-6.78"/>
</g>
<!-- Node14 -->
<g id="node14" class="node">
<title>Node14</title>
<g id="a_node14"><a xlink:title=" ">
<polygon fill="#e0e0e0" stroke="#999999" points="1238.5,-79.5 1191.5,-79.5 1191.5,-60.5 1238.5,-60.5 1238.5,-79.5"/>
<text text-anchor="middle" x="1215" y="-67.5" font-family="Helvetica,sans-Serif" font-size="10.00">vector</text>
</a>
</g>
</g>
<!-- Node1&#45;&gt;Node14 -->
<g id="edge60" class="edge">
<title>Node1&#45;&gt;Node14</title>
<path fill="none" stroke="#63b8ff" d="M1253,-384.96C1253,-361.12 1253,-311.2 1253,-269 1253,-269 1253,-269 1253,-201 1253,-159.44 1234.89,-113.3 1223.67,-88.71"/>
<polygon fill="#63b8ff" stroke="#63b8ff" points="1226.79,-87.12 1219.36,-79.57 1220.46,-90.11 1226.79,-87.12"/>
</g>
<!-- Node17 -->
<g id="node17" class="node">
<title>Node17</title>
<g id="a_node17"><a xlink:href="_n_c_mesh2_d_8hpp.html" target="_top" xlink:title=" ">
<polygon fill="white" stroke="#666666" points="719.5,-349 588.5,-349 588.5,-319 719.5,-319 719.5,-349"/>
<text text-anchor="start" x="596.5" y="-337" font-family="Helvetica,sans-Serif" font-size="10.00">polyfem/mesh/mesh2D</text>
<text text-anchor="middle" x="654" y="-326" font-family="Helvetica,sans-Serif" font-size="10.00">/NCMesh2D.hpp</text>
</a>
</g>
</g>
<!-- Node1&#45;&gt;Node17 -->
<g id="edge30" class="edge">
<title>Node1&#45;&gt;Node17</title>
<path fill="none" stroke="#63b8ff" d="M1167.81,-389.9C1050.67,-377.38 841.67,-355.05 729.73,-343.09"/>
<polygon fill="#63b8ff" stroke="#63b8ff" points="729.85,-339.58 719.53,-342 729.1,-346.54 729.85,-339.58"/>
</g>
<!-- Node18 -->
<g id="node18" class="node">
<title>Node18</title>
<g id="a_node18"><a xlink:href="_element_bases_8hpp.html" target="_top" xlink:title=" ">
<polygon fill="white" stroke="#666666" points="1118.5,-277.5 939.5,-277.5 939.5,-258.5 1118.5,-258.5 1118.5,-277.5"/>
<text text-anchor="middle" x="1029" y="-265.5" font-family="Helvetica,sans-Serif" font-size="10.00">polyfem/basis/ElementBases.hpp</text>
</a>
</g>
</g>
<!-- Node1&#45;&gt;Node18 -->
<g id="edge32" class="edge">
<title>Node1&#45;&gt;Node18</title>
<path fill="none" stroke="#63b8ff" d="M1167.53,-393.72C1131.03,-387.5 1090.2,-374.74 1061,-349 1043.16,-333.27 1035.14,-306.22 1031.62,-287.98"/>
<polygon fill="#63b8ff" stroke="#63b8ff" points="1035.04,-287.24 1029.96,-277.94 1028.13,-288.38 1035.04,-287.24"/>
</g>
<!-- Node24 -->
<g id="node24" class="node">
<title>Node24</title>
<g id="a_node24"><a xlink:href="_element_assembly_values_8hpp.html" target="_top" xlink:title=" ">
<polygon fill="white" stroke="#666666" points="1224.5,-349 1069.5,-349 1069.5,-319 1224.5,-319 1224.5,-349"/>
<text text-anchor="start" x="1077.5" y="-337" font-family="Helvetica,sans-Serif" font-size="10.00">polyfem/assembler/Element</text>
<text text-anchor="middle" x="1147" y="-326" font-family="Helvetica,sans-Serif" font-size="10.00">AssemblyValues.hpp</text>
</a>
</g>
</g>
<!-- Node1&#45;&gt;Node24 -->
<g id="edge48" class="edge">
<title>Node1&#45;&gt;Node24</title>
<path fill="none" stroke="#63b8ff" d="M1229.74,-384.95C1214.83,-375.95 1195.27,-364.14 1178.91,-354.27"/>
<polygon fill="#63b8ff" stroke="#63b8ff" points="1180.58,-351.18 1170.21,-349.01 1176.96,-357.18 1180.58,-351.18"/>
</g>
<!-- Node25 -->
<g id="node25" class="node">
<title>Node25</title>
<g id="a_node25"><a xlink:href="_interface_data_8hpp.html" target="_top" xlink:title=" ">
<polygon fill="white" stroke="#666666" points="1457,-277.5 1281,-277.5 1281,-258.5 1457,-258.5 1457,-277.5"/>
<text text-anchor="middle" x="1369" y="-265.5" font-family="Helvetica,sans-Serif" font-size="10.00">polyfem/basis/InterfaceData.hpp</text>
</a>
</g>
</g>
<!-- Node1&#45;&gt;Node25 -->
<g id="edge52" class="edge">
<title>Node1&#45;&gt;Node25</title>
<path fill="none" stroke="#63b8ff" d="M1265.63,-384.84C1287.26,-360.6 1331.27,-311.28 1354.27,-285.51"/>
<polygon fill="#63b8ff" stroke="#63b8ff" points="1357.15,-287.54 1361.19,-277.75 1351.92,-282.88 1357.15,-287.54"/>
</g>
<!-- Node26 -->
<g id="node26" class="node">
<title>Node26</title>
<g id="a_node26"><a xlink:href="_local_boundary_8hpp.html" target="_top" xlink:title=" ">
<polygon fill="white" stroke="#666666" points="1685,-211.5 1503,-211.5 1503,-192.5 1685,-192.5 1685,-211.5"/>
<text text-anchor="middle" x="1594" y="-199.5" font-family="Helvetica,sans-Serif" font-size="10.00">polyfem/mesh/LocalBoundary.hpp</text>
</a>
</g>
</g>
<!-- Node1&#45;&gt;Node26 -->
<g id="edge54" class="edge">
<title>Node1&#45;&gt;Node26</title>
<path fill="none" stroke="#63b8ff" d="M1338.16,-388.8C1398.46,-380.26 1473.05,-366.65 1499,-349 1546.2,-316.9 1575.44,-252.77 1587.55,-221.29"/>
<polygon fill="#63b8ff" stroke="#63b8ff" points="1590.94,-222.21 1591.12,-211.62 1584.37,-219.79 1590.94,-222.21"/>
</g>
<!-- Node29 -->
<g id="node29" class="node">
<title>Node29</title>
<g id="a_node29"><a xlink:title=" ">
<polygon fill="#e0e0e0" stroke="#999999" points="1589,-343.5 1551,-343.5 1551,-324.5 1589,-324.5 1589,-343.5"/>
<text text-anchor="middle" x="1570" y="-331.5" font-family="Helvetica,sans-Serif" font-size="10.00">map</text>
</a>
</g>
</g>
<!-- Node1&#45;&gt;Node29 -->
<g id="edge61" class="edge">
<title>Node1&#45;&gt;Node29</title>
<path fill="none" stroke="#63b8ff" d="M1338.04,-389.16C1395.08,-381.32 1471.47,-368.39 1537,-349 1538.68,-348.5 1540.39,-347.94 1542.11,-347.35"/>
<polygon fill="#63b8ff" stroke="#63b8ff" points="1543.71,-350.48 1551.77,-343.6 1541.18,-343.95 1543.71,-350.48"/>
</g>
<!-- Node3 -->
<g id="node3" class="node">
<title>Node3</title>
<g id="a_node3"><a xlink:href="_common_8hpp.html" target="_top" xlink:title=" ">
<polygon fill="white" stroke="#666666" points="191.5,-145.5 66.5,-145.5 66.5,-126.5 191.5,-126.5 191.5,-145.5"/>
<text text-anchor="middle" x="129" y="-133.5" font-family="Helvetica,sans-Serif" font-size="10.00">polyfem/Common.hpp</text>
</a>
</g>
</g>
<!-- Node2&#45;&gt;Node3 -->
<g id="edge2" class="edge">
<title>Node2&#45;&gt;Node3</title>
<path fill="none" stroke="#63b8ff" d="M245.69,-318.82C233.05,-309.66 217.35,-296.89 206,-283 172.57,-242.06 147.34,-184.33 135.85,-155.25"/>
<polygon fill="#63b8ff" stroke="#63b8ff" points="138.99,-153.67 132.13,-145.6 132.46,-156.19 138.99,-153.67"/>
</g>
<!-- Node6 -->
<g id="node6" class="node">
<title>Node6</title>
<g id="a_node6"><a xlink:href="_mesh_8hpp.html" target="_top" xlink:title=" ">
<polygon fill="white" stroke="#666666" points="573.5,-211.5 436.5,-211.5 436.5,-192.5 573.5,-192.5 573.5,-211.5"/>
<text text-anchor="middle" x="505" y="-199.5" font-family="Helvetica,sans-Serif" font-size="10.00">polyfem/mesh/Mesh.hpp</text>
</a>
</g>
</g>
<!-- Node2&#45;&gt;Node6 -->
<g id="edge5" class="edge">
<title>Node2&#45;&gt;Node6</title>
<path fill="none" stroke="#63b8ff" d="M332.72,-325.38C388.45,-317.61 462.63,-303.73 484,-283 500.39,-267.1 504.52,-240.09 505.3,-221.91"/>
<polygon fill="#63b8ff" stroke="#63b8ff" points="508.8,-221.95 505.43,-211.9 501.8,-221.85 508.8,-221.95"/>
</g>
<!-- Node7 -->
<g id="node7" class="node">
<title>Node7</title>
<g id="a_node7"><a xlink:href="_navigation_8hpp.html" target="_top" xlink:title=" ">
<polygon fill="white" stroke="#666666" points="379.5,-151 248.5,-151 248.5,-121 379.5,-121 379.5,-151"/>
<text text-anchor="start" x="256.5" y="-139" font-family="Helvetica,sans-Serif" font-size="10.00">polyfem/mesh/mesh2D</text>
<text text-anchor="middle" x="314" y="-128" font-family="Helvetica,sans-Serif" font-size="10.00">/Navigation.hpp</text>
</a>
</g>
</g>
<!-- Node2&#45;&gt;Node7 -->
<g id="edge19" class="edge">
<title>Node2&#45;&gt;Node7</title>
<path fill="none" stroke="#63b8ff" d="M270.38,-318.9C278.34,-285.72 298.33,-202.35 308.24,-161.01"/>
<polygon fill="#63b8ff" stroke="#63b8ff" points="311.66,-161.77 310.59,-151.23 304.85,-160.14 311.66,-161.77"/>
</g>
<!-- Node8 -->
<g id="node8" class="node">
<title>Node8</title>
<g id="a_node8"><a xlink:title=" ">
<polygon fill="#e0e0e0" stroke="#999999" points="485.5,-79.5 356.5,-79.5 356.5,-60.5 485.5,-60.5 485.5,-79.5"/>
<text text-anchor="middle" x="421" y="-67.5" font-family="Helvetica,sans-Serif" font-size="10.00">geogram/mesh/mesh.h</text>
</a>
</g>
</g>
<!-- Node2&#45;&gt;Node8 -->
<g id="edge22" class="edge">
<title>Node2&#45;&gt;Node8</title>
<path fill="none" stroke="#63b8ff" d="M233.1,-318.9C157.67,-285.65 -12.12,-199.23 57,-121 100,-72.33 282.84,-95.04 347,-85 353.86,-83.93 361.05,-82.7 368.15,-81.42"/>
<polygon fill="#63b8ff" stroke="#63b8ff" points="369.22,-84.78 378.43,-79.53 367.96,-77.9 369.22,-84.78"/>
</g>
<!-- Node10 -->
<g id="node10" class="node">
<title>Node10</title>
<g id="a_node10"><a xlink:href="_types_8hpp.html" target="_top" xlink:title=" ">
<polygon fill="white" stroke="#666666" points="721.5,-79.5 588.5,-79.5 588.5,-60.5 721.5,-60.5 721.5,-79.5"/>
<text text-anchor="middle" x="655" y="-67.5" font-family="Helvetica,sans-Serif" font-size="10.00">polyfem/utils/Types.hpp</text>
</a>
</g>
</g>
<!-- Node2&#45;&gt;Node10 -->
<g id="edge20" class="edge">
<title>Node2&#45;&gt;Node10</title>
<path fill="none" stroke="#63b8ff" d="M258.71,-318.99C237.79,-281.62 188,-178.49 239,-121 250.12,-108.46 461.01,-88.05 578.14,-77.61"/>
<polygon fill="#63b8ff" stroke="#63b8ff" points="578.49,-81.09 588.14,-76.72 577.87,-74.12 578.49,-81.09"/>
</g>
<!-- Node2&#45;&gt;Node11 -->
<g id="edge21" class="edge">
<title>Node2&#45;&gt;Node11</title>
<path fill="none" stroke="#63b8ff" d="M201.34,-329.03C122.29,-320.29 0,-292.32 0,-203 0,-203 0,-203 0,-135 0,-92.35 15.99,-76.21 53,-55 118.71,-17.34 647.03,-11.55 811.98,-10.66"/>
<polygon fill="#63b8ff" stroke="#63b8ff" points="812.33,-14.16 822.31,-10.61 812.3,-7.16 812.33,-14.16"/>
</g>
<!-- Node16 -->
<g id="node16" class="node">
<title>Node16</title>
<g id="a_node16"><a xlink:href="_mesh2_d_8hpp.html" target="_top" xlink:title=" ">
<polygon fill="white" stroke="#666666" points="474.5,-283 343.5,-283 343.5,-253 474.5,-253 474.5,-283"/>
<text text-anchor="start" x="351.5" y="-271" font-family="Helvetica,sans-Serif" font-size="10.00">polyfem/mesh/mesh2D</text>
<text text-anchor="middle" x="409" y="-260" font-family="Helvetica,sans-Serif" font-size="10.00">/Mesh2D.hpp</text>
</a>
</g>
</g>
<!-- Node2&#45;&gt;Node16 -->
<g id="edge23" class="edge">
<title>Node2&#45;&gt;Node16</title>
<path fill="none" stroke="#63b8ff" d="M298.16,-318.95C318.88,-309.62 346.29,-297.27 368.66,-287.18"/>
<polygon fill="#63b8ff" stroke="#63b8ff" points="370.23,-290.31 377.91,-283.01 367.36,-283.93 370.23,-290.31"/>
</g>
<!-- Node4 -->
<g id="node4" class="node">
<title>Node4</title>
<g id="a_node4"><a xlink:title=" ">
<polygon fill="#e0e0e0" stroke="#999999" points="349,-19 269,-19 269,0 349,0 349,-19"/>
<text text-anchor="middle" x="309" y="-7" font-family="Helvetica,sans-Serif" font-size="10.00">Eigen/Sparse</text>
</a>
</g>
</g>
<!-- Node3&#45;&gt;Node4 -->
<g id="edge3" class="edge">
<title>Node3&#45;&gt;Node4</title>
<path fill="none" stroke="#63b8ff" d="M109.92,-126.44C80.58,-112.14 30.06,-82.27 53,-55 78.74,-24.4 191.58,-14.84 258.55,-11.86"/>
<polygon fill="#63b8ff" stroke="#63b8ff" points="259.04,-15.34 268.89,-11.43 258.75,-8.34 259.04,-15.34"/>
</g>
<!-- Node5 -->
<g id="node5" class="node">
<title>Node5</title>
<g id="a_node5"><a xlink:title=" ">
<polygon fill="#e0e0e0" stroke="#999999" points="172,-79.5 62,-79.5 62,-60.5 172,-60.5 172,-79.5"/>
<text text-anchor="middle" x="117" y="-67.5" font-family="Helvetica,sans-Serif" font-size="10.00">nlohmann/json.hpp</text>
</a>
</g>
</g>
<!-- Node3&#45;&gt;Node5 -->
<g id="edge4" class="edge">
<title>Node3&#45;&gt;Node5</title>
<path fill="none" stroke="#63b8ff" d="M127.38,-126.37C125.64,-117.07 122.81,-101.98 120.54,-89.9"/>
<polygon fill="#63b8ff" stroke="#63b8ff" points="123.95,-89.09 118.67,-79.91 117.07,-90.38 123.95,-89.09"/>
</g>
<!-- Node6&#45;&gt;Node3 -->
<g id="edge6" class="edge">
<title>Node6&#45;&gt;Node3</title>
<path fill="none" stroke="#63b8ff" d="M454.68,-192.44C385.88,-180.72 262.61,-159.74 189.06,-147.22"/>
<polygon fill="#63b8ff" stroke="#63b8ff" points="189.47,-143.74 179.02,-145.51 188.29,-150.64 189.47,-143.74"/>
</g>
<!-- Node6&#45;&gt;Node7 -->
<g id="edge7" class="edge">
<title>Node6&#45;&gt;Node7</title>
<path fill="none" stroke="#63b8ff" d="M479.24,-192.37C450.26,-182.66 402.45,-166.64 365.69,-154.32"/>
<polygon fill="#63b8ff" stroke="#63b8ff" points="366.72,-150.97 356.13,-151.12 364.5,-157.61 366.72,-150.97"/>
</g>
<!-- Node6&#45;&gt;Node8 -->
<g id="edge17" class="edge">
<title>Node6&#45;&gt;Node8</title>
<path fill="none" stroke="#63b8ff" d="M497.44,-192.5C489.02,-182.81 475.25,-166.35 465,-151 451.29,-130.48 437.99,-105.33 429.66,-88.77"/>
<polygon fill="#63b8ff" stroke="#63b8ff" points="432.74,-87.1 425.16,-79.69 426.46,-90.2 432.74,-87.1"/>
</g>
<!-- Node6&#45;&gt;Node10 -->
<g id="edge10" class="edge">
<title>Node6&#45;&gt;Node10</title>
<path fill="none" stroke="#63b8ff" d="M518.16,-192.35C532.38,-182.8 555.49,-166.69 574,-151 598.36,-130.35 624.23,-103.9 640.01,-87.2"/>
<polygon fill="#63b8ff" stroke="#63b8ff" points="642.61,-89.54 646.89,-79.85 637.5,-84.76 642.61,-89.54"/>
</g>
<!-- Node6&#45;&gt;Node11 -->
<g id="edge16" class="edge">
<title>Node6&#45;&gt;Node11</title>
<path fill="none" stroke="#63b8ff" d="M512.32,-192.22C520.13,-182.55 532.51,-166.35 541,-151 563.28,-110.69 543.93,-83.63 580,-55 615.12,-27.12 741.78,-16.4 812.46,-12.53"/>
<polygon fill="#63b8ff" stroke="#63b8ff" points="812.66,-16.02 822.46,-12 812.29,-9.03 812.66,-16.02"/>
</g>
<!-- Node12 -->
<g id="node12" class="node">
<title>Node12</title>
<g id="a_node12"><a xlink:href="_hash_utils_8hpp.html" target="_top" xlink:title=" ">
<polygon fill="white" stroke="#666666" points="816,-145.5 664,-145.5 664,-126.5 816,-126.5 816,-145.5"/>
<text text-anchor="middle" x="740" y="-133.5" font-family="Helvetica,sans-Serif" font-size="10.00">polyfem/utils/HashUtils.hpp</text>
</a>
</g>
</g>
<!-- Node6&#45;&gt;Node12 -->
<g id="edge13" class="edge">
<title>Node6&#45;&gt;Node12</title>
<path fill="none" stroke="#63b8ff" d="M536.69,-192.37C578.6,-180.96 652.51,-160.83 698.73,-148.24"/>
<polygon fill="#63b8ff" stroke="#63b8ff" points="699.71,-151.6 708.43,-145.6 697.87,-144.85 699.71,-151.6"/>
</g>
<!-- Node15 -->
<g id="node15" class="node">
<title>Node15</title>
<g id="a_node15"><a xlink:title=" ">
<polygon fill="#e0e0e0" stroke="#999999" points="532,-145.5 474,-145.5 474,-126.5 532,-126.5 532,-145.5"/>
<text text-anchor="middle" x="503" y="-133.5" font-family="Helvetica,sans-Serif" font-size="10.00">memory</text>
</a>
</g>
</g>
<!-- Node6&#45;&gt;Node15 -->
<g id="edge18" class="edge">
<title>Node6&#45;&gt;Node15</title>
<path fill="none" stroke="#63b8ff" d="M504.73,-192.37C504.44,-183.16 503.98,-168.29 503.6,-156.27"/>
<polygon fill="#63b8ff" stroke="#63b8ff" points="507.09,-155.79 503.28,-145.91 500.09,-156.01 507.09,-155.79"/>
</g>
<!-- Node7&#45;&gt;Node8 -->
<g id="edge8" class="edge">
<title>Node7&#45;&gt;Node8</title>
<path fill="none" stroke="#63b8ff" d="M337.48,-120.95C355.5,-110.18 380.24,-95.38 398.11,-84.69"/>
<polygon fill="#63b8ff" stroke="#63b8ff" points="399.97,-87.65 406.76,-79.52 396.38,-81.65 399.97,-87.65"/>
</g>
<!-- Node9 -->
<g id="node9" class="node">
<title>Node9</title>
<g id="a_node9"><a xlink:title=" ">
<polygon fill="#e0e0e0" stroke="#999999" points="338,-79.5 190,-79.5 190,-60.5 338,-60.5 338,-79.5"/>
<text text-anchor="middle" x="264" y="-67.5" font-family="Helvetica,sans-Serif" font-size="10.00">geogram/basic/attributes.h</text>
</a>
</g>
</g>
<!-- Node7&#45;&gt;Node9 -->
<g id="edge9" class="edge">
<title>Node7&#45;&gt;Node9</title>
<path fill="none" stroke="#63b8ff" d="M302.9,-120.8C295.34,-111.11 285.28,-98.24 277.29,-88.01"/>
<polygon fill="#63b8ff" stroke="#63b8ff" points="279.82,-85.57 270.91,-79.84 274.31,-89.88 279.82,-85.57"/>
</g>
<!-- Node10&#45;&gt;Node4 -->
<g id="edge12" class="edge">
<title>Node10&#45;&gt;Node4</title>
<path fill="none" stroke="#63b8ff" d="M604.69,-60.49C539.04,-49.39 424.83,-30.08 359.22,-18.99"/>
<polygon fill="#63b8ff" stroke="#63b8ff" points="359.57,-15.5 349.13,-17.28 358.4,-22.4 359.57,-15.5"/>
</g>
<!-- Node10&#45;&gt;Node11 -->
<g id="edge11" class="edge">
<title>Node10&#45;&gt;Node11</title>
<path fill="none" stroke="#63b8ff" d="M684.95,-60.49C720.96,-50.27 781.5,-33.08 821.35,-21.76"/>
<polygon fill="#63b8ff" stroke="#63b8ff" points="822.35,-25.12 831.01,-19.02 820.43,-18.38 822.35,-25.12"/>
</g>
<!-- Node13 -->
<g id="node13" class="node">
<title>Node13</title>
<g id="a_node13"><a xlink:title=" ">
<polygon fill="#e0e0e0" stroke="#999999" points="792.5,-79.5 739.5,-79.5 739.5,-60.5 792.5,-60.5 792.5,-79.5"/>
<text text-anchor="middle" x="766" y="-67.5" font-family="Helvetica,sans-Serif" font-size="10.00">cstddef</text>
</a>
</g>
</g>
<!-- Node12&#45;&gt;Node13 -->
<g id="edge14" class="edge">
<title>Node12&#45;&gt;Node13</title>
<path fill="none" stroke="#63b8ff" d="M743.51,-126.37C747.32,-116.97 753.54,-101.67 758.47,-89.53"/>
<polygon fill="#63b8ff" stroke="#63b8ff" points="761.86,-90.49 762.38,-79.91 755.38,-87.85 761.86,-90.49"/>
</g>
<!-- Node12&#45;&gt;Node14 -->
<g id="edge15" class="edge">
<title>Node12&#45;&gt;Node14</title>
<path fill="none" stroke="#63b8ff" d="M804.54,-126.47C879.09,-116.59 1005.44,-99.78 1114,-85 1136.45,-81.94 1161.7,-78.44 1181.34,-75.71"/>
<polygon fill="#63b8ff" stroke="#63b8ff" points="1181.91,-79.16 1191.33,-74.31 1180.94,-72.23 1181.91,-79.16"/>
</g>
<!-- Node16&#45;&gt;Node3 -->
<g id="edge24" class="edge">
<title>Node16&#45;&gt;Node3</title>
<path fill="none" stroke="#63b8ff" d="M378.77,-252.96C324.06,-227.56 209.4,-174.33 156.64,-149.83"/>
<polygon fill="#63b8ff" stroke="#63b8ff" points="158.08,-146.64 147.54,-145.61 155.13,-152.99 158.08,-146.64"/>
</g>
<!-- Node16&#45;&gt;Node6 -->
<g id="edge25" class="edge">
<title>Node16&#45;&gt;Node6</title>
<path fill="none" stroke="#63b8ff" d="M430.31,-252.8C446.1,-242.27 467.54,-227.97 483.4,-217.4"/>
<polygon fill="#63b8ff" stroke="#63b8ff" points="485.63,-220.12 492.01,-211.66 481.75,-214.29 485.63,-220.12"/>
</g>
<!-- Node16&#45;&gt;Node7 -->
<g id="edge26" class="edge">
<title>Node16&#45;&gt;Node7</title>
<path fill="none" stroke="#63b8ff" d="M398.65,-252.84C382.23,-230.37 350.07,-186.36 330.46,-159.53"/>
<polygon fill="#63b8ff" stroke="#63b8ff" points="333.06,-157.15 324.33,-151.14 327.41,-161.28 333.06,-157.15"/>
</g>
<!-- Node16&#45;&gt;Node8 -->
<g id="edge29" class="edge">
<title>Node16&#45;&gt;Node8</title>
<path fill="none" stroke="#63b8ff" d="M409.86,-252.9C411.99,-218.23 417.46,-128.79 419.85,-89.72"/>
<polygon fill="#63b8ff" stroke="#63b8ff" points="423.35,-89.92 420.47,-79.73 416.36,-89.49 423.35,-89.92"/>
</g>
<!-- Node16&#45;&gt;Node10 -->
<g id="edge27" class="edge">
<title>Node16&#45;&gt;Node10</title>
<path fill="none" stroke="#63b8ff" d="M474.53,-261.06C509.99,-254.91 552.61,-242.4 583,-217 623.56,-183.1 643.28,-120.8 650.97,-89.7"/>
<polygon fill="#63b8ff" stroke="#63b8ff" points="654.42,-90.29 653.27,-79.76 647.6,-88.71 654.42,-90.29"/>
</g>
<!-- Node16&#45;&gt;Node11 -->
<g id="edge28" class="edge">
<title>Node16&#45;&gt;Node11</title>
<path fill="none" stroke="#63b8ff" d="M474.92,-256.96C579.59,-239.71 776.9,-201.35 825,-151 857.09,-117.41 861.63,-59.25 861.65,-29.39"/>
<polygon fill="#63b8ff" stroke="#63b8ff" points="865.15,-29.06 861.48,-19.12 858.15,-29.18 865.15,-29.06"/>
</g>
<!-- Node17&#45;&gt;Node16 -->
<g id="edge31" class="edge">
<title>Node17&#45;&gt;Node16</title>
<path fill="none" stroke="#63b8ff" d="M600.23,-318.95C562.58,-309.12 512.11,-295.93 472.47,-285.58"/>
<polygon fill="#63b8ff" stroke="#63b8ff" points="473.2,-282.15 462.64,-283.01 471.43,-288.93 473.2,-282.15"/>
</g>
<!-- Node18&#45;&gt;Node6 -->
<g id="edge41" class="edge">
<title>Node18&#45;&gt;Node6</title>
<path fill="none" stroke="#63b8ff" d="M959.15,-258.47C861.76,-246.57 685.72,-225.07 583.78,-212.62"/>
<polygon fill="#63b8ff" stroke="#63b8ff" points="583.89,-209.11 573.54,-211.37 583.04,-216.06 583.89,-209.11"/>
</g>
<!-- Node18&#45;&gt;Node14 -->
<g id="edge47" class="edge">
<title>Node18&#45;&gt;Node14</title>
<path fill="none" stroke="#63b8ff" d="M1076.55,-258.45C1103.48,-251.41 1136.06,-238.88 1158,-217 1176.6,-198.45 1199.57,-124.81 1209.74,-89.75"/>
<polygon fill="#63b8ff" stroke="#63b8ff" points="1213.19,-90.42 1212.57,-79.84 1206.45,-88.49 1213.19,-90.42"/>
</g>
<!-- Node19 -->
<g id="node19" class="node">
<title>Node19</title>
<g id="a_node19"><a xlink:href="_basis_8hpp.html" target="_top" xlink:title=" ">
<polygon fill="white" stroke="#666666" points="1008,-145.5 872,-145.5 872,-126.5 1008,-126.5 1008,-145.5"/>
<text text-anchor="middle" x="940" y="-133.5" font-family="Helvetica,sans-Serif" font-size="10.00">polyfem/basis/Basis.hpp</text>
</a>
</g>
</g>
<!-- Node18&#45;&gt;Node19 -->
<g id="edge33" class="edge">
<title>Node18&#45;&gt;Node19</title>
<path fill="none" stroke="#63b8ff" d="M1001.74,-258.48C982.38,-250.89 957.65,-237.71 945,-217 933.7,-198.49 934.3,-172.86 936.51,-155.65"/>
<polygon fill="#63b8ff" stroke="#63b8ff" points="939.97,-156.13 938.08,-145.71 933.06,-155.04 939.97,-156.13"/>
</g>
<!-- Node20 -->
<g id="node20" class="node">
<title>Node20</title>
<g id="a_node20"><a xlink:href="_quadrature_8hpp.html" target="_top" xlink:title=" ">
<polygon fill="white" stroke="#666666" points="1104.5,-85 991.5,-85 991.5,-55 1104.5,-55 1104.5,-85"/>
<text text-anchor="start" x="999.5" y="-73" font-family="Helvetica,sans-Serif" font-size="10.00">polyfem/quadrature</text>
<text text-anchor="middle" x="1048" y="-62" font-family="Helvetica,sans-Serif" font-size="10.00">/Quadrature.hpp</text>
</a>
</g>
</g>
<!-- Node18&#45;&gt;Node20 -->
<g id="edge40" class="edge">
<title>Node18&#45;&gt;Node20</title>
<path fill="none" stroke="#63b8ff" d="M1015.16,-258.24C1002.79,-249.5 985.49,-234.83 978,-217 972.84,-204.71 972.65,-199.21 978,-187 987.46,-165.39 1003.73,-170.5 1017,-151 1028.62,-133.93 1036.74,-111.89 1041.75,-95.26"/>
<polygon fill="#63b8ff" stroke="#63b8ff" points="1045.24,-95.8 1044.6,-85.23 1038.5,-93.89 1045.24,-95.8"/>
</g>
<!-- Node22 -->
<g id="node22" class="node">
<title>Node22</title>
<g id="a_node22"><a xlink:href="_assembly_values_8hpp.html" target="_top" xlink:title=" ">
<polygon fill="white" stroke="#666666" points="1149,-217 987,-217 987,-187 1149,-187 1149,-217"/>
<text text-anchor="start" x="995" y="-205" font-family="Helvetica,sans-Serif" font-size="10.00">polyfem/assembler/Assembly</text>
<text text-anchor="middle" x="1068" y="-194" font-family="Helvetica,sans-Serif" font-size="10.00">Values.hpp</text>
</a>
</g>
</g>
<!-- Node18&#45;&gt;Node22 -->
<g id="edge42" class="edge">
<title>Node18&#45;&gt;Node22</title>
<path fill="none" stroke="#63b8ff" d="M1034.26,-258.37C1039.31,-250.08 1047.17,-237.18 1054.03,-225.92"/>
<polygon fill="#63b8ff" stroke="#63b8ff" points="1057.03,-227.72 1059.25,-217.36 1051.06,-224.08 1057.03,-227.72"/>
</g>
<!-- Node19&#45;&gt;Node10 -->
<g id="edge36" class="edge">
<title>Node19&#45;&gt;Node10</title>
<path fill="none" stroke="#63b8ff" d="M901.86,-126.44C850.45,-114.89 758.94,-94.34 702.94,-81.77"/>
<polygon fill="#63b8ff" stroke="#63b8ff" points="703.44,-78.29 692.91,-79.51 701.9,-85.12 703.44,-78.29"/>
</g>
<!-- Node19&#45;&gt;Node11 -->
<g id="edge37" class="edge">
<title>Node19&#45;&gt;Node11</title>
<path fill="none" stroke="#63b8ff" d="M932.08,-126.18C923.58,-116.49 909.97,-100.26 900,-85 887.94,-66.53 876.52,-43.9 869.2,-28.46"/>
<polygon fill="#63b8ff" stroke="#63b8ff" points="872.22,-26.65 864.82,-19.06 865.87,-29.61 872.22,-26.65"/>
</g>
<!-- Node19&#45;&gt;Node14 -->
<g id="edge39" class="edge">
<title>Node19&#45;&gt;Node14</title>
<path fill="none" stroke="#63b8ff" d="M976.8,-126.44C1030.48,-113.94 1129.47,-90.91 1181.32,-78.84"/>
<polygon fill="#63b8ff" stroke="#63b8ff" points="1182.39,-82.18 1191.33,-76.51 1180.8,-75.37 1182.39,-82.18"/>
</g>
<!-- Node19&#45;&gt;Node20 -->
<g id="edge34" class="edge">
<title>Node19&#45;&gt;Node20</title>
<path fill="none" stroke="#63b8ff" d="M954.57,-126.37C970.11,-117.16 995.25,-102.26 1015.54,-90.24"/>
<polygon fill="#63b8ff" stroke="#63b8ff" points="1017.36,-93.22 1024.18,-85.12 1013.79,-87.2 1017.36,-93.22"/>
</g>
<!-- Node21 -->
<g id="node21" class="node">
<title>Node21</title>
<g id="a_node21"><a xlink:title=" ">
<polygon fill="#e0e0e0" stroke="#999999" points="973.5,-79.5 908.5,-79.5 908.5,-60.5 973.5,-60.5 973.5,-79.5"/>
<text text-anchor="middle" x="941" y="-67.5" font-family="Helvetica,sans-Serif" font-size="10.00">functional</text>
</a>
</g>
</g>
<!-- Node19&#45;&gt;Node21 -->
<g id="edge38" class="edge">
<title>Node19&#45;&gt;Node21</title>
<path fill="none" stroke="#63b8ff" d="M940.13,-126.37C940.28,-117.16 940.51,-102.29 940.7,-90.27"/>
<polygon fill="#63b8ff" stroke="#63b8ff" points="944.2,-89.96 940.86,-79.91 937.2,-89.85 944.2,-89.96"/>
</g>
<!-- Node20&#45;&gt;Node11 -->
<g id="edge35" class="edge">
<title>Node20&#45;&gt;Node11</title>
<path fill="none" stroke="#63b8ff" d="M1003.21,-54.99C971.08,-44.94 928.3,-31.55 898.08,-22.1"/>
<polygon fill="#63b8ff" stroke="#63b8ff" points="898.93,-18.7 888.34,-19.05 896.84,-25.38 898.93,-18.7"/>
</g>
<!-- Node22&#45;&gt;Node11 -->
<g id="edge45" class="edge">
<title>Node22&#45;&gt;Node11</title>
<path fill="none" stroke="#63b8ff" d="M1080.27,-186.84C1103.19,-158.63 1147.32,-94.69 1114,-55 1088.45,-24.56 975.86,-14.94 909.8,-11.9"/>
<polygon fill="#63b8ff" stroke="#63b8ff" points="909.76,-8.39 899.62,-11.46 909.46,-15.39 909.76,-8.39"/>
</g>
<!-- Node22&#45;&gt;Node19 -->
<g id="edge44" class="edge">
<title>Node22&#45;&gt;Node19</title>
<path fill="none" stroke="#63b8ff" d="M1039.91,-186.95C1017.96,-175.98 987.67,-160.83 966.21,-150.11"/>
<polygon fill="#63b8ff" stroke="#63b8ff" points="967.54,-146.86 957.03,-145.52 964.41,-153.12 967.54,-146.86"/>
</g>
<!-- Node22&#45;&gt;Node20 -->
<g id="edge43" class="edge">
<title>Node22&#45;&gt;Node20</title>
<path fill="none" stroke="#63b8ff" d="M1065.82,-186.84C1062.44,-164.86 1055.89,-122.27 1051.74,-95.3"/>
<polygon fill="#63b8ff" stroke="#63b8ff" points="1055.16,-94.49 1050.18,-85.14 1048.24,-95.56 1055.16,-94.49"/>
</g>
<!-- Node23 -->
<g id="node23" class="node">
<title>Node23</title>
<g id="a_node23"><a xlink:title=" ">
<polygon fill="#e0e0e0" stroke="#999999" points="1341,-145.5 1281,-145.5 1281,-126.5 1341,-126.5 1341,-145.5"/>
<text text-anchor="middle" x="1311" y="-133.5" font-family="Helvetica,sans-Serif" font-size="10.00">iostream</text>
</a>
</g>
</g>
<!-- Node22&#45;&gt;Node23 -->
<g id="edge46" class="edge">
<title>Node22&#45;&gt;Node23</title>
<path fill="none" stroke="#63b8ff" d="M1121.33,-186.95C1166.41,-175.08 1229.99,-158.33 1270.86,-147.57"/>
<polygon fill="#63b8ff" stroke="#63b8ff" points="1271.96,-150.9 1280.74,-144.97 1270.17,-144.13 1271.96,-150.9"/>
</g>
<!-- Node24&#45;&gt;Node14 -->
<g id="edge51" class="edge">
<title>Node24&#45;&gt;Node14</title>
<path fill="none" stroke="#63b8ff" d="M1151.76,-318.99C1161.93,-288.66 1186.07,-214.53 1201,-151 1205.83,-130.46 1209.8,-106.59 1212.26,-90.31"/>
<polygon fill="#63b8ff" stroke="#63b8ff" points="1215.79,-90.35 1213.78,-79.95 1208.86,-89.33 1215.79,-90.35"/>
</g>
<!-- Node24&#45;&gt;Node18 -->
<g id="edge50" class="edge">
<title>Node24&#45;&gt;Node18</title>
<path fill="none" stroke="#63b8ff" d="M1121.1,-318.95C1101.05,-308.08 1073.45,-293.11 1053.7,-282.4"/>
<polygon fill="#63b8ff" stroke="#63b8ff" points="1055.16,-279.21 1044.7,-277.52 1051.83,-285.36 1055.16,-279.21"/>
</g>
<!-- Node24&#45;&gt;Node22 -->
<g id="edge49" class="edge">
<title>Node24&#45;&gt;Node22</title>
<path fill="none" stroke="#63b8ff" d="M1146.33,-318.97C1144.97,-302.14 1140.78,-273.63 1128,-253 1120.84,-241.45 1110.1,-231.28 1099.67,-223.18"/>
<polygon fill="#63b8ff" stroke="#63b8ff" points="1101.58,-220.24 1091.44,-217.14 1097.43,-225.88 1101.58,-220.24"/>
</g>
<!-- Node25&#45;&gt;Node14 -->
<g id="edge53" class="edge">
<title>Node25&#45;&gt;Node14</title>
<path fill="none" stroke="#63b8ff" d="M1370.68,-258.27C1374.89,-233.65 1383.29,-162.78 1350,-121 1325.44,-90.18 1279.92,-78.36 1248.58,-73.82"/>
<polygon fill="#63b8ff" stroke="#63b8ff" points="1248.9,-70.33 1238.54,-72.55 1248.02,-77.28 1248.9,-70.33"/>
</g>
<!-- Node26&#45;&gt;Node14 -->
<g id="edge56" class="edge">
<title>Node26&#45;&gt;Node14</title>
<path fill="none" stroke="#63b8ff" d="M1572.92,-192.42C1535.16,-177.18 1453.33,-144.76 1383,-121 1336.76,-105.37 1282.5,-89.7 1248.44,-80.17"/>
<polygon fill="#63b8ff" stroke="#63b8ff" points="1249.12,-76.73 1238.54,-77.42 1247.24,-83.47 1249.12,-76.73"/>
</g>
<!-- Node26&#45;&gt;Node23 -->
<g id="edge57" class="edge">
<title>Node26&#45;&gt;Node23</title>
<path fill="none" stroke="#63b8ff" d="M1556.13,-192.44C1502.78,-180.37 1405.94,-158.47 1351.31,-146.12"/>
<polygon fill="#63b8ff" stroke="#63b8ff" points="1351.82,-142.64 1341.3,-143.85 1350.28,-149.47 1351.82,-142.64"/>
</g>
<!-- Node27 -->
<g id="node27" class="node">
<title>Node27</title>
<g id="a_node27"><a xlink:title=" ">
<polygon fill="#e0e0e0" stroke="#999999" points="1647,-145.5 1605,-145.5 1605,-126.5 1647,-126.5 1647,-145.5"/>
<text text-anchor="middle" x="1626" y="-133.5" font-family="Helvetica,sans-Serif" font-size="10.00">array</text>
</a>
</g>
</g>
<!-- Node26&#45;&gt;Node27 -->
<g id="edge55" class="edge">
<title>Node26&#45;&gt;Node27</title>
<path fill="none" stroke="#63b8ff" d="M1598.32,-192.37C1603.06,-182.88 1610.82,-167.36 1616.92,-155.16"/>
<polygon fill="#63b8ff" stroke="#63b8ff" points="1620.21,-156.41 1621.55,-145.91 1613.94,-153.28 1620.21,-156.41"/>
</g>
<!-- Node28 -->
<g id="node28" class="node">
<title>Node28</title>
<g id="a_node28"><a xlink:title=" ">
<polygon fill="#e0e0e0" stroke="#999999" points="1587,-145.5 1535,-145.5 1535,-126.5 1587,-126.5 1587,-145.5"/>
<text text-anchor="middle" x="1561" y="-133.5" font-family="Helvetica,sans-Serif" font-size="10.00">cassert</text>
</a>
</g>
</g>
<!-- Node26&#45;&gt;Node28 -->
<g id="edge58" class="edge">
<title>Node26&#45;&gt;Node28</title>
<path fill="none" stroke="#63b8ff" d="M1589.55,-192.37C1584.61,-182.78 1576.49,-167.05 1570.18,-154.8"/>
<polygon fill="#63b8ff" stroke="#63b8ff" points="1573.29,-153.19 1565.59,-145.91 1567.06,-156.4 1573.29,-153.19"/>
</g>
</g>
</svg>
