<?xml version="1.0" encoding="UTF-8" standalone="no"?>
<!DOCTYPE svg PUBLIC "-//W3C//DTD SVG 1.1//EN"
 "http://www.w3.org/Graphics/SVG/1.1/DTD/svg11.dtd">
<!-- Generated by graphviz version 2.43.0 (0)
 -->
<!-- Title: src/polyfem/utils/MaybeParallelFor.hpp Pages: 1 -->
<!--zoomable 115 -->

<svg id="main" version="1.1" xmlns="http://www.w3.org/2000/svg" xmlns:xlink="http://www.w3.org/1999/xlink" xml:space="preserve" onload="init(evt)">
<style type="text/css"><![CDATA[
.node, .edge {opacity: 0.7;}
.node.selected, .edge.selected {opacity: 1;}
.edge:hover path { stroke: red; }
.edge:hover polygon { stroke: red; fill: red; }
]]></style>

<defs>
  <circle id="rim" cx="0" cy="0" r="7"/>
  <circle id="rim2" cx="0" cy="0" r="3.5"/>
  <g id="zoomPlus">
    <use xlink:href="#rim" fill="#404040"><set attributeName="fill" to="#808080" begin="zoomplus.mouseover" end="zoomplus.mouseout"/></use>
    <path d="M-4,0h8M0,-4v8" fill="none" stroke="white" stroke-width="1.5" pointer-events="none"/>
  </g>
  <g id="zoomMin">
    <use xlink:href="#rim" fill="#404040"><set attributeName="fill" to="#808080" begin="zoomminus.mouseover" end="zoomminus.mouseout"/></use>
    <path d="M-4,0h8" fill="none" stroke="white" stroke-width="1.5" pointer-events="none"/>
  </g>
  <g id="arrowUp" transform="translate(30 24)">
    <use xlink:href="#rim"/>
    <path pointer-events="none" fill="none" stroke="white" stroke-width="1.5" d="M0,-3.0v7 M-2.5,-0.5L0,-3.0L2.5,-0.5"/>
  </g>
  <g id="arrowRight" transform="rotate(90) translate(36 -43)">
    <use xlink:href="#rim"/>
    <path pointer-events="none" fill="none" stroke="white" stroke-width="1.5" d="M0,-3.0v7 M-2.5,-0.5L0,-3.0L2.5,-0.5"/>
  </g>
  <g id="arrowDown" transform="rotate(180) translate(-30 -48)">
    <use xlink:href="#rim"/>
    <path pointer-events="none" fill="none" stroke="white" stroke-width="1.5" d="M0,-3.0v7 M-2.5,-0.5L0,-3.0L2.5,-0.5"/>
  </g>
  <g id="arrowLeft" transform="rotate(270) translate(-36 17)">
    <use xlink:href="#rim"/>
    <path pointer-events="none" fill="none" stroke="white" stroke-width="1.5" d="M0,-3.0v7 M-2.5,-0.5L0,-3.0L2.5,-0.5"/>
  </g>
  <g id="resetDef">
    <use xlink:href="#rim2" fill="#404040"><set attributeName="fill" to="#808080" begin="reset.mouseover" end="reset.mouseout"/></use>
  </g>
</defs>
<script type="application/ecmascript">
var viewWidth = 2550;
var viewHeight = 115;
var sectionId = 'dynsection-1';
</script>
<script type="application/ecmascript" xlink:href="svg.min.js"/>
<svg id="graph" class="graph">
<g id="viewport">
<title>src/polyfem/utils/MaybeParallelFor.hpp</title>
<!-- Node1 -->
<g id="Node000001" class="node">
<title>Node1</title>
<g id="a_Node000001"><a xlink:title=" ">
<polygon fill="#999999" stroke="#666666" points="1372,-107 1202,-107 1202,-77 1372,-77 1372,-107"/>
<text text-anchor="start" x="1210" y="-95" font-family="Helvetica,sans-Serif" font-size="10.00">src/polyfem/utils/MaybeParallel</text>
<text text-anchor="middle" x="1287" y="-84" font-family="Helvetica,sans-Serif" font-size="10.00">For.hpp</text>
</a>
</g>
</g>
<!-- Node2 -->
<g id="Node000002" class="node">
<title>Node2</title>
<g id="a_Node000002"><a xlink:href="_assembler_8cpp.html" target="_top" xlink:title=" ">
<polygon fill="white" stroke="#666666" points="128,-35.5 0,-35.5 0,-5.5 128,-5.5 128,-35.5"/>
<text text-anchor="start" x="8" y="-23.5" font-family="Helvetica,sans-Serif" font-size="10.00">src/polyfem/assembler</text>
<text text-anchor="middle" x="64" y="-12.5" font-family="Helvetica,sans-Serif" font-size="10.00">/Assembler.cpp</text>
</a>
</g>
</g>
<!-- Node1&#45;&gt;Node2 -->
<g id="edge1_Node000001_Node000002" class="edge">
<title>Node1&#45;&gt;Node2</title>
<g id="a_edge1_Node000001_Node000002"><a xlink:title=" ">
<path fill="none" stroke="#63b8ff" d="M1191.7,-89.52C953.96,-85.41 339.28,-72.04 137,-41 128.31,-39.67 119.17,-37.7 110.41,-35.51"/>
<polygon fill="#63b8ff" stroke="#63b8ff" points="1191.65,-93.02 1201.71,-89.7 1191.77,-86.03 1191.65,-93.02"/>
</a>
</g>
</g>
<!-- Node3 -->
<g id="Node000003" class="node">
<title>Node3</title>
<g id="a_Node000003"><a xlink:href="_assembly_vals_cache_8cpp.html" target="_top" xlink:title=" ">
<polygon fill="white" stroke="#666666" points="284,-35.5 146,-35.5 146,-5.5 284,-5.5 284,-35.5"/>
<text text-anchor="start" x="154" y="-23.5" font-family="Helvetica,sans-Serif" font-size="10.00">src/polyfem/assembler</text>
<text text-anchor="middle" x="215" y="-12.5" font-family="Helvetica,sans-Serif" font-size="10.00">/AssemblyValsCache.cpp</text>
</a>
</g>
</g>
<!-- Node1&#45;&gt;Node3 -->
<g id="edge2_Node000001_Node000003" class="edge">
<title>Node1&#45;&gt;Node3</title>
<g id="a_edge2_Node000001_Node000003"><a xlink:title=" ">
<path fill="none" stroke="#63b8ff" d="M1191.55,-88.57C977.48,-82.73 464.41,-66.49 293,-41 283.89,-39.64 274.29,-37.69 265.06,-35.54"/>
<polygon fill="#63b8ff" stroke="#63b8ff" points="1191.73,-92.08 1201.82,-88.85 1191.92,-85.08 1191.73,-92.08"/>
</a>
</g>
</g>
<!-- Node4 -->
<g id="Node000004" class="node">
<title>Node4</title>
<g id="a_Node000004"><a xlink:href="_rhs_assembler_8cpp.html" target="_top" xlink:title=" ">
<polygon fill="white" stroke="#666666" points="430,-35.5 302,-35.5 302,-5.5 430,-5.5 430,-35.5"/>
<text text-anchor="start" x="310" y="-23.5" font-family="Helvetica,sans-Serif" font-size="10.00">src/polyfem/assembler</text>
<text text-anchor="middle" x="366" y="-12.5" font-family="Helvetica,sans-Serif" font-size="10.00">/RhsAssembler.cpp</text>
</a>
</g>
</g>
<!-- Node1&#45;&gt;Node4 -->
<g id="edge3_Node000001_Node000004" class="edge">
<title>Node1&#45;&gt;Node4</title>
<g id="a_edge3_Node000001_Node000004"><a xlink:title=" ">
<path fill="none" stroke="#63b8ff" d="M1191.69,-91.63C1034.04,-91.27 709.51,-84.64 439,-41 430.45,-39.62 421.46,-37.66 412.82,-35.5"/>
<polygon fill="#63b8ff" stroke="#63b8ff" points="1191.82,-95.13 1201.83,-91.64 1191.83,-88.13 1191.82,-95.13"/>
</a>
</g>
</g>
<!-- Node5 -->
<g id="Node000005" class="node">
<title>Node5</title>
<g id="a_Node000005"><a xlink:href="_lagrange_basis2d_8cpp.html" target="_top" xlink:title=" ">
<polygon fill="white" stroke="#666666" points="599.5,-35.5 448.5,-35.5 448.5,-5.5 599.5,-5.5 599.5,-35.5"/>
<text text-anchor="start" x="456.5" y="-23.5" font-family="Helvetica,sans-Serif" font-size="10.00">src/polyfem/basis/Lagrange</text>
<text text-anchor="middle" x="524" y="-12.5" font-family="Helvetica,sans-Serif" font-size="10.00">Basis2d.cpp</text>
</a>
</g>
</g>
<!-- Node1&#45;&gt;Node5 -->
<g id="edge4_Node000001_Node000005" class="edge">
<title>Node1&#45;&gt;Node5</title>
<g id="a_edge4_Node000001_Node000005"><a xlink:title=" ">
<path fill="none" stroke="#63b8ff" d="M1191.77,-88.63C1059.95,-84.29 814.71,-72.41 608,-41 598.53,-39.56 588.54,-37.62 578.89,-35.52"/>
<polygon fill="#63b8ff" stroke="#63b8ff" points="1191.74,-92.13 1201.84,-88.95 1191.96,-85.13 1191.74,-92.13"/>
</a>
</g>
</g>
<!-- Node6 -->
<g id="Node000006" class="node">
<title>Node6</title>
<g id="a_Node000006"><a xlink:href="_lagrange_basis3d_8cpp.html" target="_top" xlink:title=" ">
<polygon fill="white" stroke="#666666" points="768.5,-35.5 617.5,-35.5 617.5,-5.5 768.5,-5.5 768.5,-35.5"/>
<text text-anchor="start" x="625.5" y="-23.5" font-family="Helvetica,sans-Serif" font-size="10.00">src/polyfem/basis/Lagrange</text>
<text text-anchor="middle" x="693" y="-12.5" font-family="Helvetica,sans-Serif" font-size="10.00">Basis3d.cpp</text>
</a>
</g>
</g>
<!-- Node1&#45;&gt;Node6 -->
<g id="edge5_Node000001_Node000006" class="edge">
<title>Node1&#45;&gt;Node6</title>
<g id="a_edge5_Node000001_Node000006"><a xlink:title=" ">
<path fill="none" stroke="#63b8ff" d="M1191.88,-85.3C1089.28,-78.3 921.33,-64.38 778,-41 768.74,-39.49 758.97,-37.57 749.5,-35.52"/>
<polygon fill="#63b8ff" stroke="#63b8ff" points="1191.7,-88.79 1201.91,-85.97 1192.17,-81.81 1191.7,-88.79"/>
</a>
</g>
</g>
<!-- Node7 -->
<g id="Node000007" class="node">
<title>Node7</title>
<g id="a_Node000007"><a xlink:href="_out_data_8cpp.html" target="_top" xlink:title=" ">
<polygon fill="white" stroke="#666666" points="937,-30 787,-30 787,-11 937,-11 937,-30"/>
<text text-anchor="middle" x="862" y="-18" font-family="Helvetica,sans-Serif" font-size="10.00">src/polyfem/io/OutData.cpp</text>
</a>
</g>
</g>
<!-- Node1&#45;&gt;Node7 -->
<g id="edge6_Node000001_Node000007" class="edge">
<title>Node1&#45;&gt;Node7</title>
<g id="a_edge6_Node000001_Node000007"><a xlink:title=" ">
<path fill="none" stroke="#63b8ff" d="M1191.97,-79.2C1123.37,-70.17 1028.65,-56.63 946,-41 929.38,-37.86 911.06,-33.69 895.79,-30.01"/>
<polygon fill="#63b8ff" stroke="#63b8ff" points="1191.52,-82.68 1201.89,-80.5 1192.43,-75.73 1191.52,-82.68"/>
</a>
</g>
</g>
<!-- Node8 -->
<g id="Node000008" class="node">
<title>Node8</title>
<g id="a_Node000008"><a xlink:href="_adjoint_n_l_problem_8cpp.html" target="_top" xlink:title=" ">
<polygon fill="white" stroke="#666666" points="1083,-35.5 955,-35.5 955,-5.5 1083,-5.5 1083,-35.5"/>
<text text-anchor="start" x="963" y="-23.5" font-family="Helvetica,sans-Serif" font-size="10.00">src/polyfem/solver</text>
<text text-anchor="middle" x="1019" y="-12.5" font-family="Helvetica,sans-Serif" font-size="10.00">/AdjointNLProblem.cpp</text>
</a>
</g>
</g>
<!-- Node1&#45;&gt;Node8 -->
<g id="edge7_Node000001_Node000008" class="edge">
<title>Node1&#45;&gt;Node8</title>
<g id="a_edge7_Node000001_Node000008"><a xlink:title=" ">
<path fill="none" stroke="#63b8ff" d="M1221.6,-74.4C1183.72,-64.75 1135.14,-52.29 1092,-41 1085.27,-39.24 1078.2,-37.37 1071.22,-35.52"/>
<polygon fill="#63b8ff" stroke="#63b8ff" points="1220.93,-77.85 1231.49,-76.92 1222.66,-71.06 1220.93,-77.85"/>
</a>
</g>
</g>
<!-- Node9 -->
<g id="Node000009" class="node">
<title>Node9</title>
<g id="a_Node000009"><a xlink:href="_adjoint_tools_8cpp.html" target="_top" xlink:title=" ">
<polygon fill="white" stroke="#666666" points="1208.5,-35.5 1101.5,-35.5 1101.5,-5.5 1208.5,-5.5 1208.5,-35.5"/>
<text text-anchor="start" x="1109.5" y="-23.5" font-family="Helvetica,sans-Serif" font-size="10.00">src/polyfem/solver</text>
<text text-anchor="middle" x="1155" y="-12.5" font-family="Helvetica,sans-Serif" font-size="10.00">/AdjointTools.cpp</text>
</a>
</g>
</g>
<!-- Node1&#45;&gt;Node9 -->
<g id="edge8_Node000001_Node000009" class="edge">
<title>Node1&#45;&gt;Node9</title>
<g id="a_edge8_Node000001_Node000009"><a xlink:title=" ">
<path fill="none" stroke="#63b8ff" d="M1251.27,-72.19C1229.34,-60.64 1201.7,-46.09 1181.67,-35.54"/>
<polygon fill="#63b8ff" stroke="#63b8ff" points="1249.81,-75.37 1260.29,-76.94 1253.07,-69.18 1249.81,-75.37"/>
</a>
</g>
</g>
<!-- Node10 -->
<g id="Node000010" class="node">
<title>Node10</title>
<g id="a_Node000010"><a xlink:href="_body_form_8cpp.html" target="_top" xlink:title=" ">
<polygon fill="white" stroke="#666666" points="1347.5,-35.5 1226.5,-35.5 1226.5,-5.5 1347.5,-5.5 1347.5,-35.5"/>
<text text-anchor="start" x="1234.5" y="-23.5" font-family="Helvetica,sans-Serif" font-size="10.00">src/polyfem/solver</text>
<text text-anchor="middle" x="1287" y="-12.5" font-family="Helvetica,sans-Serif" font-size="10.00">/forms/BodyForm.cpp</text>
</a>
</g>
</g>
<!-- Node1&#45;&gt;Node10 -->
<g id="edge9_Node000001_Node000010" class="edge">
<title>Node1&#45;&gt;Node10</title>
<g id="a_edge9_Node000001_Node000010"><a xlink:title=" ">
<path fill="none" stroke="#63b8ff" d="M1287,-66.75C1287,-56.31 1287,-44.49 1287,-35.54"/>
<polygon fill="#63b8ff" stroke="#63b8ff" points="1283.5,-66.94 1287,-76.94 1290.5,-66.94 1283.5,-66.94"/>
</a>
</g>
</g>
<!-- Node11 -->
<g id="Node000011" class="node">
<title>Node11</title>
<g id="a_Node000011"><a xlink:href="_contact_form_8cpp.html" target="_top" xlink:title=" ">
<polygon fill="white" stroke="#666666" points="1500,-35.5 1366,-35.5 1366,-5.5 1500,-5.5 1500,-35.5"/>
<text text-anchor="start" x="1374" y="-23.5" font-family="Helvetica,sans-Serif" font-size="10.00">src/polyfem/solver</text>
<text text-anchor="middle" x="1433" y="-12.5" font-family="Helvetica,sans-Serif" font-size="10.00">/forms/ContactForm.cpp</text>
</a>
</g>
</g>
<!-- Node1&#45;&gt;Node11 -->
<g id="edge10_Node000001_Node000011" class="edge">
<title>Node1&#45;&gt;Node11</title>
<g id="a_edge10_Node000001_Node000011"><a xlink:title=" ">
<path fill="none" stroke="#63b8ff" d="M1325.87,-72.5C1350.23,-60.9 1381.15,-46.18 1403.5,-35.54"/>
<polygon fill="#63b8ff" stroke="#63b8ff" points="1324.07,-69.48 1316.55,-76.94 1327.08,-75.8 1324.07,-69.48"/>
</a>
</g>
</g>
<!-- Node12 -->
<g id="Node000012" class="node">
<title>Node12</title>
<g id="a_Node000012"><a xlink:href="_elastic_form_8cpp.html" target="_top" xlink:title=" ">
<polygon fill="white" stroke="#666666" points="1646,-35.5 1518,-35.5 1518,-5.5 1646,-5.5 1646,-35.5"/>
<text text-anchor="start" x="1526" y="-23.5" font-family="Helvetica,sans-Serif" font-size="10.00">src/polyfem/solver</text>
<text text-anchor="middle" x="1582" y="-12.5" font-family="Helvetica,sans-Serif" font-size="10.00">/forms/ElasticForm.cpp</text>
</a>
</g>
</g>
<!-- Node1&#45;&gt;Node12 -->
<g id="edge11_Node000001_Node000012" class="edge">
<title>Node1&#45;&gt;Node12</title>
<g id="a_edge11_Node000001_Node000012"><a xlink:title=" ">
<path fill="none" stroke="#63b8ff" d="M1362.56,-74.76C1405.58,-65.32 1460.42,-52.95 1509,-41 1515.88,-39.31 1523.1,-37.46 1530.22,-35.6"/>
<polygon fill="#63b8ff" stroke="#63b8ff" points="1361.75,-71.35 1352.73,-76.91 1363.25,-78.19 1361.75,-71.35"/>
</a>
</g>
</g>
<!-- Node13 -->
<g id="Node000013" class="node">
<title>Node13</title>
<g id="a_Node000013"><a xlink:href="_inertia_form_8cpp.html" target="_top" xlink:title=" ">
<polygon fill="white" stroke="#666666" points="1792,-35.5 1664,-35.5 1664,-5.5 1792,-5.5 1792,-35.5"/>
<text text-anchor="start" x="1672" y="-23.5" font-family="Helvetica,sans-Serif" font-size="10.00">src/polyfem/solver</text>
<text text-anchor="middle" x="1728" y="-12.5" font-family="Helvetica,sans-Serif" font-size="10.00">/forms/InertiaForm.cpp</text>
</a>
</g>
</g>
<!-- Node1&#45;&gt;Node13 -->
<g id="edge12_Node000001_Node000013" class="edge">
<title>Node1&#45;&gt;Node13</title>
<g id="a_edge12_Node000001_Node000013"><a xlink:title=" ">
<path fill="none" stroke="#63b8ff" d="M1382.6,-81.35C1457.2,-73.02 1563.23,-59.42 1655,-41 1662.72,-39.45 1670.83,-37.56 1678.72,-35.57"/>
<polygon fill="#63b8ff" stroke="#63b8ff" points="1381.84,-77.92 1372.28,-82.5 1382.61,-84.88 1381.84,-77.92"/>
</a>
</g>
</g>
<!-- Node14 -->
<g id="Node000014" class="node">
<title>Node14</title>
<g id="a_Node000014"><a xlink:href="_adjoint_form_8cpp.html" target="_top" xlink:title=" ">
<polygon fill="white" stroke="#666666" points="1929.5,-41 1810.5,-41 1810.5,0 1929.5,0 1929.5,-41"/>
<text text-anchor="start" x="1818.5" y="-29" font-family="Helvetica,sans-Serif" font-size="10.00">src/polyfem/solver</text>
<text text-anchor="start" x="1818.5" y="-18" font-family="Helvetica,sans-Serif" font-size="10.00">/forms/adjoint_forms</text>
<text text-anchor="middle" x="1870" y="-7" font-family="Helvetica,sans-Serif" font-size="10.00">/AdjointForm.cpp</text>
</a>
</g>
</g>
<!-- Node1&#45;&gt;Node14 -->
<g id="edge13_Node000001_Node000014" class="edge">
<title>Node1&#45;&gt;Node14</title>
<g id="a_edge13_Node000001_Node000014"><a xlink:title=" ">
<path fill="none" stroke="#63b8ff" d="M1382.38,-86.82C1486.12,-81.09 1656.47,-68.23 1801,-41 1804.06,-40.42 1807.18,-39.77 1810.32,-39.07"/>
<polygon fill="#63b8ff" stroke="#63b8ff" points="1382.04,-83.33 1372.24,-87.37 1382.42,-90.32 1382.04,-83.33"/>
</a>
</g>
</g>
<!-- Node15 -->
<g id="Node000015" class="node">
<title>Node15</title>
<g id="a_Node000015"><a xlink:href="_target_forms_8cpp.html" target="_top" xlink:title=" ">
<polygon fill="white" stroke="#666666" points="2066.5,-41 1947.5,-41 1947.5,0 2066.5,0 2066.5,-41"/>
<text text-anchor="start" x="1955.5" y="-29" font-family="Helvetica,sans-Serif" font-size="10.00">src/polyfem/solver</text>
<text text-anchor="start" x="1955.5" y="-18" font-family="Helvetica,sans-Serif" font-size="10.00">/forms/adjoint_forms</text>
<text text-anchor="middle" x="2007" y="-7" font-family="Helvetica,sans-Serif" font-size="10.00">/TargetForms.cpp</text>
</a>
</g>
</g>
<!-- Node1&#45;&gt;Node15 -->
<g id="edge14_Node000001_Node000015" class="edge">
<title>Node1&#45;&gt;Node15</title>
<g id="a_edge14_Node000001_Node000015"><a xlink:title=" ">
<path fill="none" stroke="#63b8ff" d="M1382.23,-89.72C1509.91,-86.64 1743.18,-76.21 1939,-41 1941.78,-40.5 1944.61,-39.93 1947.46,-39.31"/>
<polygon fill="#63b8ff" stroke="#63b8ff" points="1382.01,-86.23 1372.09,-89.96 1382.17,-93.23 1382.01,-86.23"/>
</a>
</g>
</g>
<!-- Node16 -->
<g id="Node000016" class="node">
<title>Node16</title>
<g id="a_Node000016"><a xlink:href="_transient_form_8cpp.html" target="_top" xlink:title=" ">
<polygon fill="white" stroke="#666666" points="2203.5,-41 2084.5,-41 2084.5,0 2203.5,0 2203.5,-41"/>
<text text-anchor="start" x="2092.5" y="-29" font-family="Helvetica,sans-Serif" font-size="10.00">src/polyfem/solver</text>
<text text-anchor="start" x="2092.5" y="-18" font-family="Helvetica,sans-Serif" font-size="10.00">/forms/adjoint_forms</text>
<text text-anchor="middle" x="2144" y="-7" font-family="Helvetica,sans-Serif" font-size="10.00">/TransientForm.cpp</text>
</a>
</g>
</g>
<!-- Node1&#45;&gt;Node16 -->
<g id="edge15_Node000001_Node000016" class="edge">
<title>Node1&#45;&gt;Node16</title>
<g id="a_edge15_Node000001_Node000016"><a xlink:title=" ">
<path fill="none" stroke="#63b8ff" d="M1382.1,-91.57C1531.13,-90.98 1828.28,-83.85 2076,-41 2078.78,-40.52 2081.62,-39.97 2084.47,-39.36"/>
<polygon fill="#63b8ff" stroke="#63b8ff" points="1382.05,-88.07 1372.06,-91.6 1382.07,-95.07 1382.05,-88.07"/>
</a>
</g>
</g>
<!-- Node17 -->
<g id="Node000017" class="node">
<title>Node17</title>
<g id="a_Node000017"><a xlink:href="_state_diff_8cpp.html" target="_top" xlink:title=" ">
<polygon fill="white" stroke="#666666" points="2390,-30 2222,-30 2222,-11 2390,-11 2390,-30"/>
<text text-anchor="middle" x="2306" y="-18" font-family="Helvetica,sans-Serif" font-size="10.00">src/polyfem/state/StateDiff.cpp</text>
</a>
</g>
</g>
<!-- Node1&#45;&gt;Node17 -->
<g id="edge16_Node000001_Node000017" class="edge">
<title>Node1&#45;&gt;Node17</title>
<g id="a_edge16_Node000001_Node000017"><a xlink:title=" ">
<path fill="none" stroke="#63b8ff" d="M1382.38,-90.64C1550.77,-88.94 1911.47,-80.52 2213,-41 2232.46,-38.45 2253.93,-34.06 2271.33,-30.08"/>
<polygon fill="#63b8ff" stroke="#63b8ff" points="1382.27,-87.14 1372.3,-90.74 1382.33,-94.14 1382.27,-87.14"/>
</a>
</g>
</g>
<!-- Node18 -->
<g id="Node000018" class="node">
<title>Node18</title>
<g id="a_Node000018"><a xlink:href="_matrix_utils_8cpp.html" target="_top" xlink:title=" ">
<polygon fill="white" stroke="#666666" points="2541.5,-35.5 2408.5,-35.5 2408.5,-5.5 2541.5,-5.5 2541.5,-35.5"/>
<text text-anchor="start" x="2416.5" y="-23.5" font-family="Helvetica,sans-Serif" font-size="10.00">src/polyfem/utils/Matrix</text>
<text text-anchor="middle" x="2475" y="-12.5" font-family="Helvetica,sans-Serif" font-size="10.00">Utils.cpp</text>
</a>
</g>
</g>
<!-- Node1&#45;&gt;Node18 -->
<g id="edge17_Node000001_Node000018" class="edge">
<title>Node1&#45;&gt;Node18</title>
<g id="a_edge17_Node000001_Node000018"><a xlink:title=" ">
<path fill="none" stroke="#63b8ff" d="M1382.4,-89.24C1614.57,-84.54 2204.19,-70.05 2399,-41 2407.89,-39.67 2417.25,-37.74 2426.24,-35.59"/>
<polygon fill="#63b8ff" stroke="#63b8ff" points="1382.21,-85.74 1372.29,-89.44 1382.36,-92.74 1382.21,-85.74"/>
</a>
</g>
</g>
</g>
</svg>

<g id="navigator" transform="translate(0 0)" fill="#404254">
  <rect fill="#f2f5e9" fill-opacity="0.5" stroke="#606060" stroke-width=".5" x="0" y="0" width="60" height="60"/>
  <use id="zoomplus" xlink:href="#zoomPlus" x="17" y="9" onmousedown="handleZoom(evt,'in')"/>
  <use id="zoomminus" xlink:href="#zoomMin" x="42" y="9" onmousedown="handleZoom(evt,'out')"/>
  <use id="reset" xlink:href="#resetDef" x="30" y="36" onmousedown="handleReset()"/>
   <use id="arrowup" xlink:href="#arrowUp" x="0" y="0" onmousedown="handlePan(0,-1)"/>
  <use id="arrowright" xlink:href="#arrowRight" x="0" y="0" onmousedown="handlePan(1,0)"/>
  <use id="arrowdown" xlink:href="#arrowDown" x="0" y="0" onmousedown="handlePan(0,1)"/>
  <use id="arrowleft" xlink:href="#arrowLeft" x="0" y="0" onmousedown="handlePan(-1,0)"/>
</g>
<svg viewBox="0 0 15 15" width="100%" height="30px" preserveAspectRatio="xMaxYMin meet">
 <g id="arrow_out" transform="scale(0.3 0.3)">
  <a xlink:href="_maybe_parallel_for_8hpp__dep__incl_org.svg" target="_base">
   <rect id="button" ry="5" rx="5" y="6" x="6" height="38" width="38"
        fill="#f2f5e9" fill-opacity="0.5" stroke="#606060" stroke-width="1.0"/>
   <path id="arrow"
     d="M 11.500037,31.436501 C 11.940474,20.09759 22.043105,11.32322 32.158766,21.979434 L 37.068811,17.246167 C 37.068811,17.246167 37.088388,32 37.088388,32 L 22.160133,31.978069 C 22.160133,31.978069 26.997745,27.140456 26.997745,27.140456 C 18.528582,18.264221 13.291696,25.230495 11.500037,31.436501 z"
     style="fill:#404040;"/>
  </a>
 </g>
</svg>

<style type='text/css'>
<![CDATA[
[data-mouse-over-selected='false'] { opacity: 0.7; }
[data-mouse-over-selected='true']  { opacity: 1.0; }
]]>
</style>
<script type="application/ecmascript"><![CDATA[
document.addEventListener('DOMContentLoaded', (event) => {
  highlightEdges();
  highlightAdjacentNodes();
});
]]></script>
</svg>
