<?xml version="1.0" encoding="UTF-8" standalone="no"?>
<!DOCTYPE svg PUBLIC "-//W3C//DTD SVG 1.1//EN"
 "http://www.w3.org/Graphics/SVG/1.1/DTD/svg11.dtd">
<!-- Generated by graphviz version 2.43.0 (0)
 -->
<!-- Title: src/polyfem/io/MshReader.cpp Pages: 1 -->
<svg width="1467pt" height="203pt"
 viewBox="0.00 0.00 1466.50 203.00" xmlns="http://www.w3.org/2000/svg" xmlns:xlink="http://www.w3.org/1999/xlink">
<g id="graph0" class="graph" transform="scale(1 1) rotate(0) translate(4 199)">
<title>src/polyfem/io/MshReader.cpp</title>
<!-- Node1 -->
<g id="Node000001" class="node">
<title>Node1</title>
<g id="a_Node000001"><a xlink:title=" ">
<polygon fill="#999999" stroke="#666666" points="1149.5,-195 985.5,-195 985.5,-176 1149.5,-176 1149.5,-195"/>
<text text-anchor="middle" x="1067.5" y="-183" font-family="Helvetica,sans-Serif" font-size="10.00">src/polyfem/io/MshReader.cpp</text>
</a>
</g>
</g>
<!-- Node2 -->
<g id="Node000002" class="node">
<title>Node2</title>
<g id="a_Node000002"><a xlink:href="_msh_reader_8hpp.html" target="_top" xlink:title=" ">
<polygon fill="white" stroke="#666666" points="1113.5,-140 1021.5,-140 1021.5,-121 1113.5,-121 1113.5,-140"/>
<text text-anchor="middle" x="1067.5" y="-128" font-family="Helvetica,sans-Serif" font-size="10.00">MshReader.hpp</text>
</a>
</g>
</g>
<!-- Node1&#45;&gt;Node2 -->
<g id="edge1_Node000001_Node000002" class="edge">
<title>Node1&#45;&gt;Node2</title>
<g id="a_edge1_Node000001_Node000002"><a xlink:title=" ">
<path fill="none" stroke="#63b8ff" d="M1067.5,-175.75C1067.5,-168.8 1067.5,-158.85 1067.5,-150.13"/>
<polygon fill="#63b8ff" stroke="#63b8ff" points="1071,-150.09 1067.5,-140.09 1064,-150.09 1071,-150.09"/>
</a>
</g>
</g>
<!-- Node4 -->
<g id="Node000004" class="node">
<title>Node4</title>
<g id="a_Node000004"><a xlink:title=" ">
<polygon fill="#e0e0e0" stroke="#999999" points="957.5,-79.5 913.5,-79.5 913.5,-60.5 957.5,-60.5 957.5,-79.5"/>
<text text-anchor="middle" x="935.5" y="-67.5" font-family="Helvetica,sans-Serif" font-size="10.00">string</text>
</a>
</g>
</g>
<!-- Node1&#45;&gt;Node4 -->
<g id="edge20_Node000001_Node000004" class="edge">
<title>Node1&#45;&gt;Node4</title>
<g id="a_edge20_Node000001_Node000004"><a xlink:title=" ">
<path fill="none" stroke="#63b8ff" d="M985.26,-182.09C915.76,-178.11 823.89,-167.61 800.5,-140 752.63,-83.49 773.87,-136.98 904.5,-85 905.67,-84.53 906.87,-84.05 908.07,-83.55"/>
<polygon fill="#63b8ff" stroke="#63b8ff" points="909.47,-86.75 917.26,-79.57 906.69,-80.33 909.47,-86.75"/>
</a>
</g>
</g>
<!-- Node5 -->
<g id="Node000005" class="node">
<title>Node5</title>
<g id="a_Node000005"><a xlink:title=" ">
<polygon fill="#e0e0e0" stroke="#999999" points="1023,-79.5 976,-79.5 976,-60.5 1023,-60.5 1023,-79.5"/>
<text text-anchor="middle" x="999.5" y="-67.5" font-family="Helvetica,sans-Serif" font-size="10.00">vector</text>
</a>
</g>
</g>
<!-- Node1&#45;&gt;Node5 -->
<g id="edge22_Node000001_Node000005" class="edge">
<title>Node1&#45;&gt;Node5</title>
<g id="a_edge22_Node000001_Node000005"><a xlink:title=" ">
<path fill="none" stroke="#63b8ff" d="M1051.62,-175.91C1038.98,-168.21 1021.88,-155.71 1012.5,-140 1003.43,-124.81 1000.46,-104.65 999.6,-90.05"/>
<polygon fill="#63b8ff" stroke="#63b8ff" points="1003.09,-89.62 999.28,-79.73 996.09,-89.84 1003.09,-89.62"/>
</a>
</g>
</g>
<!-- Node6 -->
<g id="Node000006" class="node">
<title>Node6</title>
<g id="a_Node000006"><a xlink:href="_logger_8hpp.html" target="_top" xlink:title=" ">
<polygon fill="white" stroke="#666666" points="517,-140 380,-140 380,-121 517,-121 517,-140"/>
<text text-anchor="middle" x="448.5" y="-128" font-family="Helvetica,sans-Serif" font-size="10.00">polyfem/utils/Logger.hpp</text>
</a>
</g>
</g>
<!-- Node1&#45;&gt;Node6 -->
<g id="edge5_Node000001_Node000006" class="edge">
<title>Node1&#45;&gt;Node6</title>
<g id="a_edge5_Node000001_Node000006"><a xlink:title=" ">
<path fill="none" stroke="#63b8ff" d="M985.3,-177.46C865.63,-167.22 644.91,-148.32 527.23,-138.24"/>
<polygon fill="#63b8ff" stroke="#63b8ff" points="527.47,-134.75 517.2,-137.38 526.87,-141.72 527.47,-134.75"/>
</a>
</g>
</g>
<!-- Node15 -->
<g id="Node000015" class="node">
<title>Node15</title>
<g id="a_Node000015"><a xlink:href="_string_utils_8hpp.html" target="_top" xlink:title=" ">
<polygon fill="white" stroke="#666666" points="965.5,-140 809.5,-140 809.5,-121 965.5,-121 965.5,-140"/>
<text text-anchor="middle" x="887.5" y="-128" font-family="Helvetica,sans-Serif" font-size="10.00">polyfem/utils/StringUtils.hpp</text>
</a>
</g>
</g>
<!-- Node1&#45;&gt;Node15 -->
<g id="edge15_Node000001_Node000015" class="edge">
<title>Node1&#45;&gt;Node15</title>
<g id="a_edge15_Node000001_Node000015"><a xlink:title=" ">
<path fill="none" stroke="#63b8ff" d="M1038.58,-175.98C1008.23,-167.05 960.33,-152.94 926.62,-143.02"/>
<polygon fill="#63b8ff" stroke="#63b8ff" points="927.23,-139.55 916.65,-140.08 925.25,-146.26 927.23,-139.55"/>
</a>
</g>
</g>
<!-- Node16 -->
<g id="Node000016" class="node">
<title>Node16</title>
<g id="a_Node000016"><a xlink:title=" ">
<polygon fill="#e0e0e0" stroke="#999999" points="1221,-140 1132,-140 1132,-121 1221,-121 1221,-140"/>
<text text-anchor="middle" x="1176.5" y="-128" font-family="Helvetica,sans-Serif" font-size="10.00">mshio/mshio.h</text>
</a>
</g>
</g>
<!-- Node1&#45;&gt;Node16 -->
<g id="edge18_Node000001_Node000016" class="edge">
<title>Node1&#45;&gt;Node16</title>
<g id="a_edge18_Node000001_Node000016"><a xlink:title=" ">
<path fill="none" stroke="#63b8ff" d="M1085.01,-175.98C1102.47,-167.5 1129.51,-154.35 1149.67,-144.54"/>
<polygon fill="#63b8ff" stroke="#63b8ff" points="1151.21,-147.69 1158.67,-140.17 1148.14,-141.4 1151.21,-147.69"/>
</a>
</g>
</g>
<!-- Node17 -->
<g id="Node000017" class="node">
<title>Node17</title>
<g id="a_Node000017"><a xlink:title=" ">
<polygon fill="#e0e0e0" stroke="#999999" points="1294,-140 1239,-140 1239,-121 1294,-121 1294,-140"/>
<text text-anchor="middle" x="1266.5" y="-128" font-family="Helvetica,sans-Serif" font-size="10.00">fstream</text>
</a>
</g>
</g>
<!-- Node1&#45;&gt;Node17 -->
<g id="edge19_Node000001_Node000017" class="edge">
<title>Node1&#45;&gt;Node17</title>
<g id="a_edge19_Node000001_Node000017"><a xlink:title=" ">
<path fill="none" stroke="#63b8ff" d="M1099.47,-175.98C1134.72,-166.6 1191.38,-151.51 1228.78,-141.55"/>
<polygon fill="#63b8ff" stroke="#63b8ff" points="1230.02,-144.84 1238.78,-138.88 1228.22,-138.07 1230.02,-144.84"/>
</a>
</g>
</g>
<!-- Node18 -->
<g id="Node000018" class="node">
<title>Node18</title>
<g id="a_Node000018"><a xlink:title=" ">
<polygon fill="#e0e0e0" stroke="#999999" points="1372.5,-140 1312.5,-140 1312.5,-121 1372.5,-121 1372.5,-140"/>
<text text-anchor="middle" x="1342.5" y="-128" font-family="Helvetica,sans-Serif" font-size="10.00">iostream</text>
</a>
</g>
</g>
<!-- Node1&#45;&gt;Node18 -->
<g id="edge21_Node000001_Node000018" class="edge">
<title>Node1&#45;&gt;Node18</title>
<g id="a_edge21_Node000001_Node000018"><a xlink:title=" ">
<path fill="none" stroke="#63b8ff" d="M1115.04,-175.94C1160.61,-167.65 1231.6,-154.49 1302.31,-140.2"/>
<polygon fill="#63b8ff" stroke="#63b8ff" points="1303.18,-143.59 1312.28,-138.17 1301.79,-136.73 1303.18,-143.59"/>
</a>
</g>
</g>
<!-- Node19 -->
<g id="Node000019" class="node">
<title>Node19</title>
<g id="a_Node000019"><a xlink:title=" ">
<polygon fill="#e0e0e0" stroke="#999999" points="1458.5,-140 1390.5,-140 1390.5,-121 1458.5,-121 1458.5,-140"/>
<text text-anchor="middle" x="1424.5" y="-128" font-family="Helvetica,sans-Serif" font-size="10.00">filesystem</text>
</a>
</g>
</g>
<!-- Node1&#45;&gt;Node19 -->
<g id="edge23_Node000001_Node000019" class="edge">
<title>Node1&#45;&gt;Node19</title>
<g id="a_edge23_Node000001_Node000019"><a xlink:title=" ">
<path fill="none" stroke="#63b8ff" d="M1135.35,-175.97C1196.75,-168 1289.92,-155.3 1380.13,-140.15"/>
<polygon fill="#63b8ff" stroke="#63b8ff" points="1380.99,-143.56 1390.26,-138.44 1379.82,-136.66 1380.99,-143.56"/>
</a>
</g>
</g>
<!-- Node3 -->
<g id="Node000003" class="node">
<title>Node3</title>
<g id="a_Node000003"><a xlink:title=" ">
<polygon fill="#e0e0e0" stroke="#999999" points="1003,-19 926,-19 926,0 1003,0 1003,-19"/>
<text text-anchor="middle" x="964.5" y="-7" font-family="Helvetica,sans-Serif" font-size="10.00">Eigen/Dense</text>
</a>
</g>
</g>
<!-- Node2&#45;&gt;Node3 -->
<g id="edge2_Node000002_Node000003" class="edge">
<title>Node2&#45;&gt;Node3</title>
<g id="a_edge2_Node000002_Node000003"><a xlink:title=" ">
<path fill="none" stroke="#63b8ff" d="M1065.13,-120.82C1060.74,-105.95 1050.12,-75.28 1032.5,-55 1021.3,-42.11 1005.48,-31.45 991.92,-23.81"/>
<polygon fill="#63b8ff" stroke="#63b8ff" points="993.45,-20.65 982.98,-19.01 990.14,-26.82 993.45,-20.65"/>
</a>
</g>
</g>
<!-- Node2&#45;&gt;Node4 -->
<g id="edge3_Node000002_Node000004" class="edge">
<title>Node2&#45;&gt;Node4</title>
<g id="a_edge3_Node000002_Node000004"><a xlink:title=" ">
<path fill="none" stroke="#63b8ff" d="M1048.31,-120.99C1026.11,-111.16 989.38,-94.88 963.88,-83.58"/>
<polygon fill="#63b8ff" stroke="#63b8ff" points="965.28,-80.37 954.72,-79.52 962.44,-86.77 965.28,-80.37"/>
</a>
</g>
</g>
<!-- Node2&#45;&gt;Node5 -->
<g id="edge4_Node000002_Node000005" class="edge">
<title>Node2&#45;&gt;Node5</title>
<g id="a_edge4_Node000002_Node000005"><a xlink:title=" ">
<path fill="none" stroke="#63b8ff" d="M1057.47,-120.87C1046.92,-111.8 1030.11,-97.34 1017.31,-86.32"/>
<polygon fill="#63b8ff" stroke="#63b8ff" points="1019.44,-83.54 1009.57,-79.67 1014.87,-88.84 1019.44,-83.54"/>
</a>
</g>
</g>
<!-- Node7 -->
<g id="Node000007" class="node">
<title>Node7</title>
<g id="a_Node000007"><a xlink:href="_disable_warnings_8hpp.html" target="_top" xlink:title=" ">
<polygon fill="white" stroke="#666666" points="896,-79.5 709,-79.5 709,-60.5 896,-60.5 896,-79.5"/>
<text text-anchor="middle" x="802.5" y="-67.5" font-family="Helvetica,sans-Serif" font-size="10.00">polyfem/utils/DisableWarnings.hpp</text>
</a>
</g>
</g>
<!-- Node6&#45;&gt;Node7 -->
<g id="edge6_Node000006_Node000007" class="edge">
<title>Node6&#45;&gt;Node7</title>
<g id="a_edge6_Node000006_Node000007"><a xlink:title=" ">
<path fill="none" stroke="#63b8ff" d="M499.97,-120.99C563.81,-110.44 672.54,-92.48 740.78,-81.2"/>
<polygon fill="#63b8ff" stroke="#63b8ff" points="741.67,-84.6 750.96,-79.52 740.53,-77.69 741.67,-84.6"/>
</a>
</g>
</g>
<!-- Node8 -->
<g id="Node000008" class="node">
<title>Node8</title>
<g id="a_Node000008"><a xlink:title=" ">
<polygon fill="#e0e0e0" stroke="#999999" points="111,-85 0,-85 0,-55 111,-55 111,-85"/>
<text text-anchor="start" x="8" y="-73" font-family="Helvetica,sans-Serif" font-size="10.00">spdlog/fmt/bundled</text>
<text text-anchor="middle" x="55.5" y="-62" font-family="Helvetica,sans-Serif" font-size="10.00">/ranges.h</text>
</a>
</g>
</g>
<!-- Node6&#45;&gt;Node8 -->
<g id="edge7_Node000006_Node000008" class="edge">
<title>Node6&#45;&gt;Node8</title>
<g id="a_edge7_Node000006_Node000008"><a xlink:title=" ">
<path fill="none" stroke="#63b8ff" d="M379.88,-121.86C315.43,-114.31 216.11,-101.72 121.34,-85.25"/>
<polygon fill="#63b8ff" stroke="#63b8ff" points="121.75,-81.77 111.29,-83.48 120.54,-88.66 121.75,-81.77"/>
</a>
</g>
</g>
<!-- Node9 -->
<g id="Node000009" class="node">
<title>Node9</title>
<g id="a_Node000009"><a xlink:title=" ">
<polygon fill="#e0e0e0" stroke="#999999" points="228,-79.5 129,-79.5 129,-60.5 228,-60.5 228,-79.5"/>
<text text-anchor="middle" x="178.5" y="-67.5" font-family="Helvetica,sans-Serif" font-size="10.00">spdlog/fmt/ostr.h</text>
</a>
</g>
</g>
<!-- Node6&#45;&gt;Node9 -->
<g id="edge8_Node000006_Node000009" class="edge">
<title>Node6&#45;&gt;Node9</title>
<g id="a_edge8_Node000006_Node000009"><a xlink:title=" ">
<path fill="none" stroke="#63b8ff" d="M405.78,-120.92C362.91,-112.23 295.01,-98.2 236.5,-85 232.12,-84.01 227.56,-82.96 223,-81.89"/>
<polygon fill="#63b8ff" stroke="#63b8ff" points="223.66,-78.44 213.12,-79.54 222.04,-85.25 223.66,-78.44"/>
</a>
</g>
</g>
<!-- Node10 -->
<g id="Node000010" class="node">
<title>Node10</title>
<g id="a_Node000010"><a xlink:title=" ">
<polygon fill="#e0e0e0" stroke="#999999" points="339,-79.5 246,-79.5 246,-60.5 339,-60.5 339,-79.5"/>
<text text-anchor="middle" x="292.5" y="-67.5" font-family="Helvetica,sans-Serif" font-size="10.00">spdlog/spdlog.h</text>
</a>
</g>
</g>
<!-- Node6&#45;&gt;Node10 -->
<g id="edge9_Node000006_Node000010" class="edge">
<title>Node6&#45;&gt;Node10</title>
<g id="a_edge9_Node000006_Node000010"><a xlink:title=" ">
<path fill="none" stroke="#63b8ff" d="M425.82,-120.99C399.24,-111.03 355.02,-94.45 324.86,-83.13"/>
<polygon fill="#63b8ff" stroke="#63b8ff" points="325.8,-79.75 315.21,-79.52 323.35,-86.31 325.8,-79.75"/>
</a>
</g>
</g>
<!-- Node11 -->
<g id="Node000011" class="node">
<title>Node11</title>
<g id="a_Node000011"><a xlink:href="_enable_warnings_8hpp.html" target="_top" xlink:title=" ">
<polygon fill="white" stroke="#666666" points="540,-79.5 357,-79.5 357,-60.5 540,-60.5 540,-79.5"/>
<text text-anchor="middle" x="448.5" y="-67.5" font-family="Helvetica,sans-Serif" font-size="10.00">polyfem/utils/EnableWarnings.hpp</text>
</a>
</g>
</g>
<!-- Node6&#45;&gt;Node11 -->
<g id="edge10_Node000006_Node000011" class="edge">
<title>Node6&#45;&gt;Node11</title>
<g id="a_edge10_Node000006_Node000011"><a xlink:title=" ">
<path fill="none" stroke="#63b8ff" d="M448.5,-120.87C448.5,-112.75 448.5,-100.31 448.5,-89.89"/>
<polygon fill="#63b8ff" stroke="#63b8ff" points="452,-89.67 448.5,-79.67 445,-89.67 452,-89.67"/>
</a>
</g>
</g>
<!-- Node12 -->
<g id="Node000012" class="node">
<title>Node12</title>
<g id="a_Node000012"><a xlink:href="_types_8hpp.html" target="_top" xlink:title=" ">
<polygon fill="white" stroke="#666666" points="691,-79.5 558,-79.5 558,-60.5 691,-60.5 691,-79.5"/>
<text text-anchor="middle" x="624.5" y="-67.5" font-family="Helvetica,sans-Serif" font-size="10.00">polyfem/utils/Types.hpp</text>
</a>
</g>
</g>
<!-- Node6&#45;&gt;Node12 -->
<g id="edge11_Node000006_Node000012" class="edge">
<title>Node6&#45;&gt;Node12</title>
<g id="a_edge11_Node000006_Node000012"><a xlink:title=" ">
<path fill="none" stroke="#63b8ff" d="M474.09,-120.99C504.46,-110.9 555.26,-94.01 589.32,-82.69"/>
<polygon fill="#63b8ff" stroke="#63b8ff" points="590.49,-85.99 598.88,-79.52 588.28,-79.35 590.49,-85.99"/>
</a>
</g>
</g>
<!-- Node12&#45;&gt;Node3 -->
<g id="edge12_Node000012_Node000003" class="edge">
<title>Node12&#45;&gt;Node3</title>
<g id="a_edge12_Node000012_Node000003"><a xlink:title=" ">
<path fill="none" stroke="#63b8ff" d="M669.69,-60.43C679.51,-58.6 689.85,-56.71 699.5,-55 774.86,-41.64 862.47,-27.13 915.67,-18.43"/>
<polygon fill="#63b8ff" stroke="#63b8ff" points="916.54,-21.83 925.84,-16.77 915.41,-14.92 916.54,-21.83"/>
</a>
</g>
</g>
<!-- Node13 -->
<g id="Node000013" class="node">
<title>Node13</title>
<g id="a_Node000013"><a xlink:title=" ">
<polygon fill="#e0e0e0" stroke="#999999" points="603.5,-19 523.5,-19 523.5,0 603.5,0 603.5,-19"/>
<text text-anchor="middle" x="563.5" y="-7" font-family="Helvetica,sans-Serif" font-size="10.00">Eigen/Sparse</text>
</a>
</g>
</g>
<!-- Node12&#45;&gt;Node13 -->
<g id="edge13_Node000012_Node000013" class="edge">
<title>Node12&#45;&gt;Node13</title>
<g id="a_edge13_Node000012_Node000013"><a xlink:title=" ">
<path fill="none" stroke="#63b8ff" d="M615.5,-60.37C606.13,-51.38 591.25,-37.11 579.8,-26.14"/>
<polygon fill="#63b8ff" stroke="#63b8ff" points="582.18,-23.56 572.54,-19.17 577.33,-28.62 582.18,-23.56"/>
</a>
</g>
</g>
<!-- Node14 -->
<g id="Node000014" class="node">
<title>Node14</title>
<g id="a_Node000014"><a xlink:title=" ">
<polygon fill="#e0e0e0" stroke="#999999" points="749,-19 622,-19 622,0 749,0 749,-19"/>
<text text-anchor="middle" x="685.5" y="-7" font-family="Helvetica,sans-Serif" font-size="10.00">ipc/utils/eigen_ext.hpp</text>
</a>
</g>
</g>
<!-- Node12&#45;&gt;Node14 -->
<g id="edge14_Node000012_Node000014" class="edge">
<title>Node12&#45;&gt;Node14</title>
<g id="a_edge14_Node000012_Node000014"><a xlink:title=" ">
<path fill="none" stroke="#63b8ff" d="M633.5,-60.37C642.87,-51.38 657.75,-37.11 669.2,-26.14"/>
<polygon fill="#63b8ff" stroke="#63b8ff" points="671.67,-28.62 676.46,-19.17 666.82,-23.56 671.67,-28.62"/>
</a>
</g>
</g>
<!-- Node15&#45;&gt;Node4 -->
<g id="edge17_Node000015_Node000004" class="edge">
<title>Node15&#45;&gt;Node4</title>
<g id="a_edge17_Node000015_Node000004"><a xlink:title=" ">
<path fill="none" stroke="#63b8ff" d="M894.58,-120.87C901.74,-112.14 912.99,-98.43 921.89,-87.59"/>
<polygon fill="#63b8ff" stroke="#63b8ff" points="924.75,-89.62 928.39,-79.67 919.34,-85.18 924.75,-89.62"/>
</a>
</g>
</g>
<!-- Node15&#45;&gt;Node5 -->
<g id="edge16_Node000015_Node000005" class="edge">
<title>Node15&#45;&gt;Node5</title>
<g id="a_edge16_Node000015_Node000005"><a xlink:title=" ">
<path fill="none" stroke="#63b8ff" d="M904.03,-120.87C922.47,-111.23 952.54,-95.53 974.01,-84.31"/>
<polygon fill="#63b8ff" stroke="#63b8ff" points="975.66,-87.4 982.91,-79.67 972.42,-81.19 975.66,-87.4"/>
</a>
</g>
</g>
</g>
</svg>
