<?xml version="1.0" encoding="UTF-8" standalone="no"?>
<!DOCTYPE svg PUBLIC "-//W3C//DTD SVG 1.1//EN"
 "http://www.w3.org/Graphics/SVG/1.1/DTD/svg11.dtd">
<!-- Generated by graphviz version 2.43.0 (0)
 -->
<!-- Title: src/polyfem/assembler/MultiModel.cpp Pages: 1 -->
<svg width="1393pt" height="731pt"
 viewBox="0.00 0.00 1393.20 731.00" xmlns="http://www.w3.org/2000/svg" xmlns:xlink="http://www.w3.org/1999/xlink">
<g id="graph0" class="graph" transform="scale(1 1) rotate(0) translate(4 727)">
<title>src/polyfem/assembler/MultiModel.cpp</title>
<!-- Node1 -->
<g id="node1" class="node">
<title>Node1</title>
<g id="a_node1"><a xlink:title=" ">
<polygon fill="#999999" stroke="#666666" points="807.2,-723 679.2,-723 679.2,-693 807.2,-693 807.2,-723"/>
<text text-anchor="start" x="687.2" y="-711" font-family="Helvetica,sans-Serif" font-size="10.00">src/polyfem/assembler</text>
<text text-anchor="middle" x="743.2" y="-700" font-family="Helvetica,sans-Serif" font-size="10.00">/MultiModel.cpp</text>
</a>
</g>
</g>
<!-- Node2 -->
<g id="node2" class="node">
<title>Node2</title>
<g id="a_node2"><a xlink:href="_multi_model_8hpp.html" target="_top" xlink:title=" ">
<polygon fill="white" stroke="#666666" points="789.2,-657 697.2,-657 697.2,-638 789.2,-638 789.2,-657"/>
<text text-anchor="middle" x="743.2" y="-645" font-family="Helvetica,sans-Serif" font-size="10.00">MultiModel.hpp</text>
</a>
</g>
</g>
<!-- Node1&#45;&gt;Node2 -->
<g id="edge1" class="edge">
<title>Node1&#45;&gt;Node2</title>
<path fill="none" stroke="#63b8ff" d="M743.2,-692.84C743.2,-685.21 743.2,-675.7 743.2,-667.45"/>
<polygon fill="#63b8ff" stroke="#63b8ff" points="746.7,-667.27 743.2,-657.27 739.7,-667.27 746.7,-667.27"/>
</g>
<!-- Node3 -->
<g id="node3" class="node">
<title>Node3</title>
<g id="a_node3"><a xlink:href="_linear_elasticity_8hpp.html" target="_top" xlink:title=" ">
<polygon fill="white" stroke="#666666" points="781.2,-536 637.2,-536 637.2,-506 781.2,-506 781.2,-536"/>
<text text-anchor="start" x="645.2" y="-524" font-family="Helvetica,sans-Serif" font-size="10.00">polyfem/assembler/Linear</text>
<text text-anchor="middle" x="709.2" y="-513" font-family="Helvetica,sans-Serif" font-size="10.00">Elasticity.hpp</text>
</a>
</g>
</g>
<!-- Node2&#45;&gt;Node3 -->
<g id="edge2" class="edge">
<title>Node2&#45;&gt;Node3</title>
<path fill="none" stroke="#63b8ff" d="M789.28,-640.96C813.81,-635.41 841.98,-624.28 857.2,-602 864.72,-590.99 864.98,-582.83 857.2,-572 847.89,-559.02 815.8,-547.4 783.88,-538.63"/>
<polygon fill="#63b8ff" stroke="#63b8ff" points="784.56,-535.19 774,-536.01 782.76,-541.96 784.56,-535.19"/>
</g>
<!-- Node8 -->
<g id="node8" class="node">
<title>Node8</title>
<g id="a_node8"><a xlink:href="_basis_8hpp.html" target="_top" xlink:title=" ">
<polygon fill="white" stroke="#666666" points="263.2,-145.5 127.2,-145.5 127.2,-126.5 263.2,-126.5 263.2,-145.5"/>
<text text-anchor="middle" x="195.2" y="-133.5" font-family="Helvetica,sans-Serif" font-size="10.00">polyfem/basis/Basis.hpp</text>
</a>
</g>
</g>
<!-- Node2&#45;&gt;Node8 -->
<g id="edge88" class="edge">
<title>Node2&#45;&gt;Node8</title>
<path fill="none" stroke="#63b8ff" d="M697.07,-643.66C534.96,-633.09 1.2,-592.9 1.2,-522 1.2,-522 1.2,-522 1.2,-261.5 1.2,-227.33 -3.61,-211.51 20.2,-187 36.34,-170.39 91.37,-156.41 135.47,-147.49"/>
<polygon fill="#63b8ff" stroke="#63b8ff" points="136.42,-150.87 145.55,-145.5 135.06,-144.01 136.42,-150.87"/>
</g>
<!-- Node36 -->
<g id="node36" class="node">
<title>Node36</title>
<g id="a_node36"><a xlink:href="_saint_venant_elasticity_8hpp.html" target="_top" xlink:title=" ">
<polygon fill="white" stroke="#666666" points="1166.7,-536 993.7,-536 993.7,-506 1166.7,-506 1166.7,-536"/>
<text text-anchor="start" x="1001.7" y="-524" font-family="Helvetica,sans-Serif" font-size="10.00">polyfem/assembler/SaintVenant</text>
<text text-anchor="middle" x="1080.2" y="-513" font-family="Helvetica,sans-Serif" font-size="10.00">Elasticity.hpp</text>
</a>
</g>
</g>
<!-- Node2&#45;&gt;Node36 -->
<g id="edge67" class="edge">
<title>Node2&#45;&gt;Node36</title>
<path fill="none" stroke="#63b8ff" d="M776.04,-637.94C806.66,-629.68 853.47,-616.34 893.2,-602 945.04,-583.3 1003.17,-557.67 1040.65,-540.51"/>
<polygon fill="#63b8ff" stroke="#63b8ff" points="1042.57,-543.48 1050.19,-536.12 1039.64,-537.12 1042.57,-543.48"/>
</g>
<!-- Node37 -->
<g id="node37" class="node">
<title>Node37</title>
<g id="a_node37"><a xlink:href="_neo_hookean_elasticity_8hpp.html" target="_top" xlink:title=" ">
<polygon fill="white" stroke="#666666" points="975.2,-536 799.2,-536 799.2,-506 975.2,-506 975.2,-536"/>
<text text-anchor="start" x="807.2" y="-524" font-family="Helvetica,sans-Serif" font-size="10.00">polyfem/assembler/NeoHookean</text>
<text text-anchor="middle" x="887.2" y="-513" font-family="Helvetica,sans-Serif" font-size="10.00">Elasticity.hpp</text>
</a>
</g>
</g>
<!-- Node2&#45;&gt;Node37 -->
<g id="edge72" class="edge">
<title>Node2&#45;&gt;Node37</title>
<path fill="none" stroke="#63b8ff" d="M789.49,-642.37C817.79,-637.35 852.44,-626.3 873.2,-602 886.25,-586.73 889.11,-563.69 889.09,-546.25"/>
<polygon fill="#63b8ff" stroke="#63b8ff" points="892.58,-546.11 888.76,-536.23 885.59,-546.34 892.58,-546.11"/>
</g>
<!-- Node38 -->
<g id="node38" class="node">
<title>Node38</title>
<g id="a_node38"><a xlink:href="_generic_elastic_8hpp.html" target="_top" xlink:title=" ">
<polygon fill="white" stroke="#666666" points="619.2,-536 467.2,-536 467.2,-506 619.2,-506 619.2,-536"/>
<text text-anchor="start" x="475.2" y="-524" font-family="Helvetica,sans-Serif" font-size="10.00">polyfem/assembler/Generic</text>
<text text-anchor="middle" x="543.2" y="-513" font-family="Helvetica,sans-Serif" font-size="10.00">Elastic.hpp</text>
</a>
</g>
</g>
<!-- Node2&#45;&gt;Node38 -->
<g id="edge77" class="edge">
<title>Node2&#45;&gt;Node38</title>
<path fill="none" stroke="#63b8ff" d="M697.14,-646.26C624.48,-644.8 488.41,-637.29 458.2,-602 438.74,-579.26 470.04,-556.13 500,-540.62"/>
<polygon fill="#63b8ff" stroke="#63b8ff" points="501.79,-543.64 509.2,-536.07 498.68,-537.37 501.79,-543.64"/>
</g>
<!-- Node40 -->
<g id="node40" class="node">
<title>Node40</title>
<g id="a_node40"><a xlink:href="_mooney_rivlin_elasticity_8hpp.html" target="_top" xlink:title=" ">
<polygon fill="white" stroke="#666666" points="619.7,-602 466.7,-602 466.7,-572 619.7,-572 619.7,-602"/>
<text text-anchor="start" x="474.7" y="-590" font-family="Helvetica,sans-Serif" font-size="10.00">polyfem/assembler/Mooney</text>
<text text-anchor="middle" x="543.2" y="-579" font-family="Helvetica,sans-Serif" font-size="10.00">RivlinElasticity.hpp</text>
</a>
</g>
</g>
<!-- Node2&#45;&gt;Node40 -->
<g id="edge82" class="edge">
<title>Node2&#45;&gt;Node40</title>
<path fill="none" stroke="#63b8ff" d="M714.12,-637.99C684.58,-629.35 638.04,-615.74 600.98,-604.9"/>
<polygon fill="#63b8ff" stroke="#63b8ff" points="601.87,-601.51 591.29,-602.06 599.9,-608.23 601.87,-601.51"/>
</g>
<!-- Node41 -->
<g id="node41" class="node">
<title>Node41</title>
<g id="a_node41"><a xlink:href="_ogden_elasticity_8hpp.html" target="_top" xlink:title=" ">
<polygon fill="white" stroke="#666666" points="848.2,-596.5 638.2,-596.5 638.2,-577.5 848.2,-577.5 848.2,-596.5"/>
<text text-anchor="middle" x="743.2" y="-584.5" font-family="Helvetica,sans-Serif" font-size="10.00">polyfem/assembler/OgdenElasticity.hpp</text>
</a>
</g>
</g>
<!-- Node2&#45;&gt;Node41 -->
<g id="edge85" class="edge">
<title>Node2&#45;&gt;Node41</title>
<path fill="none" stroke="#63b8ff" d="M743.2,-637.87C743.2,-629.75 743.2,-617.31 743.2,-606.89"/>
<polygon fill="#63b8ff" stroke="#63b8ff" points="746.7,-606.67 743.2,-596.67 739.7,-606.67 746.7,-606.67"/>
</g>
<!-- Node4 -->
<g id="node4" class="node">
<title>Node4</title>
<g id="a_node4"><a xlink:href="_assembler_8hpp.html" target="_top" xlink:title=" ">
<polygon fill="white" stroke="#666666" points="636.2,-464.5 450.2,-464.5 450.2,-445.5 636.2,-445.5 636.2,-464.5"/>
<text text-anchor="middle" x="543.2" y="-452.5" font-family="Helvetica,sans-Serif" font-size="10.00">polyfem/assembler/Assembler.hpp</text>
</a>
</g>
</g>
<!-- Node3&#45;&gt;Node4 -->
<g id="edge3" class="edge">
<title>Node3&#45;&gt;Node4</title>
<path fill="none" stroke="#63b8ff" d="M672.77,-505.95C643.53,-494.68 602.89,-479.01 574.96,-468.25"/>
<polygon fill="#63b8ff" stroke="#63b8ff" points="575.89,-464.85 565.3,-464.52 573.37,-471.38 575.89,-464.85"/>
</g>
<!-- Node28 -->
<g id="node28" class="node">
<title>Node28</title>
<g id="a_node28"><a xlink:href="_mat_params_8hpp.html" target="_top" xlink:title=" ">
<polygon fill="white" stroke="#666666" points="1290.2,-464.5 1100.2,-464.5 1100.2,-445.5 1290.2,-445.5 1290.2,-464.5"/>
<text text-anchor="middle" x="1195.2" y="-452.5" font-family="Helvetica,sans-Serif" font-size="10.00">polyfem/assembler/MatParams.hpp</text>
</a>
</g>
</g>
<!-- Node3&#45;&gt;Node28 -->
<g id="edge45" class="edge">
<title>Node3&#45;&gt;Node28</title>
<path fill="none" stroke="#63b8ff" d="M781.6,-507.31C784.5,-506.86 787.38,-506.42 790.2,-506 899.02,-489.89 1024.83,-474.93 1106.99,-465.65"/>
<polygon fill="#63b8ff" stroke="#63b8ff" points="1107.49,-469.11 1117.03,-464.52 1106.7,-462.16 1107.49,-469.11"/>
</g>
<!-- Node30 -->
<g id="node30" class="node">
<title>Node30</title>
<g id="a_node30"><a xlink:href="_autodiff_types_8hpp.html" target="_top" xlink:title=" ">
<polygon fill="white" stroke="#666666" points="1157.7,-398.5 986.7,-398.5 986.7,-379.5 1157.7,-379.5 1157.7,-398.5"/>
<text text-anchor="middle" x="1072.2" y="-386.5" font-family="Helvetica,sans-Serif" font-size="10.00">polyfem/utils/AutodiffTypes.hpp</text>
</a>
</g>
</g>
<!-- Node3&#45;&gt;Node30 -->
<g id="edge50" class="edge">
<title>Node3&#45;&gt;Node30</title>
<path fill="none" stroke="#63b8ff" d="M781.53,-507.3C856.95,-493.92 965.46,-474.2 974.2,-470 992.67,-461.13 993.4,-453.04 1009.2,-440 1023.73,-428.02 1040.44,-414.78 1053,-404.94"/>
<polygon fill="#63b8ff" stroke="#63b8ff" points="1055.22,-407.64 1060.95,-398.73 1050.91,-402.12 1055.22,-407.64"/>
</g>
<!-- Node35 -->
<g id="node35" class="node">
<title>Node35</title>
<g id="a_node35"><a xlink:href="_elasticity_utils_8hpp.html" target="_top" xlink:title=" ">
<polygon fill="white" stroke="#666666" points="796.7,-470 667.7,-470 667.7,-440 796.7,-440 796.7,-470"/>
<text text-anchor="start" x="675.7" y="-458" font-family="Helvetica,sans-Serif" font-size="10.00">polyfem/utils/Elasticity</text>
<text text-anchor="middle" x="732.2" y="-447" font-family="Helvetica,sans-Serif" font-size="10.00">Utils.hpp</text>
</a>
</g>
</g>
<!-- Node3&#45;&gt;Node35 -->
<g id="edge56" class="edge">
<title>Node3&#45;&gt;Node35</title>
<path fill="none" stroke="#63b8ff" d="M714.31,-505.8C717.05,-498.17 720.5,-488.57 723.63,-479.84"/>
<polygon fill="#63b8ff" stroke="#63b8ff" points="727.03,-480.76 727.11,-470.16 720.44,-478.39 727.03,-480.76"/>
</g>
<!-- Node5 -->
<g id="node5" class="node">
<title>Node5</title>
<g id="a_node5"><a xlink:href="_assembler_data_8hpp.html" target="_top" xlink:title=" ">
<polygon fill="white" stroke="#666666" points="585.2,-404 419.2,-404 419.2,-374 585.2,-374 585.2,-404"/>
<text text-anchor="start" x="427.2" y="-392" font-family="Helvetica,sans-Serif" font-size="10.00">polyfem/assembler/Assembler</text>
<text text-anchor="middle" x="502.2" y="-381" font-family="Helvetica,sans-Serif" font-size="10.00">Data.hpp</text>
</a>
</g>
</g>
<!-- Node4&#45;&gt;Node5 -->
<g id="edge4" class="edge">
<title>Node4&#45;&gt;Node5</title>
<path fill="none" stroke="#63b8ff" d="M537.67,-445.37C532.36,-437.08 524.1,-424.18 516.89,-412.92"/>
<polygon fill="#63b8ff" stroke="#63b8ff" points="519.74,-410.89 511.4,-404.36 513.85,-414.67 519.74,-410.89"/>
</g>
<!-- Node26 -->
<g id="node26" class="node">
<title>Node26</title>
<g id="a_node26"><a xlink:href="_assembly_vals_cache_8hpp.html" target="_top" xlink:title=" ">
<polygon fill="white" stroke="#666666" points="349.2,-404 187.2,-404 187.2,-374 349.2,-374 349.2,-404"/>
<text text-anchor="start" x="195.2" y="-392" font-family="Helvetica,sans-Serif" font-size="10.00">polyfem/assembler/Assembly</text>
<text text-anchor="middle" x="268.2" y="-381" font-family="Helvetica,sans-Serif" font-size="10.00">ValsCache.hpp</text>
</a>
</g>
</g>
<!-- Node4&#45;&gt;Node26 -->
<g id="edge38" class="edge">
<title>Node4&#45;&gt;Node26</title>
<path fill="none" stroke="#63b8ff" d="M506.4,-445.44C463.55,-435.46 391.82,-418.77 338.25,-406.3"/>
<polygon fill="#63b8ff" stroke="#63b8ff" points="339,-402.88 328.47,-404.02 337.41,-409.7 339,-402.88"/>
</g>
<!-- Node27 -->
<g id="node27" class="node">
<title>Node27</title>
<g id="a_node27"><a xlink:href="_matrix_utils_8hpp.html" target="_top" xlink:title=" ">
<polygon fill="white" stroke="#666666" points="1163.7,-211.5 1004.7,-211.5 1004.7,-192.5 1163.7,-192.5 1163.7,-211.5"/>
<text text-anchor="middle" x="1084.2" y="-199.5" font-family="Helvetica,sans-Serif" font-size="10.00">polyfem/utils/MatrixUtils.hpp</text>
</a>
</g>
</g>
<!-- Node4&#45;&gt;Node27 -->
<g id="edge40" class="edge">
<title>Node4&#45;&gt;Node27</title>
<path fill="none" stroke="#63b8ff" d="M499.6,-445.43C450.76,-433.84 381.91,-410.37 410.2,-374 481.68,-282.13 827.91,-231.64 994.41,-212.31"/>
<polygon fill="#63b8ff" stroke="#63b8ff" points="995.1,-215.76 1004.63,-211.14 994.3,-208.8 995.1,-215.76"/>
</g>
<!-- Node6 -->
<g id="node6" class="node">
<title>Node6</title>
<g id="a_node6"><a xlink:href="_element_assembly_values_8hpp.html" target="_top" xlink:title=" ">
<polygon fill="white" stroke="#666666" points="341.7,-338 186.7,-338 186.7,-308 341.7,-308 341.7,-338"/>
<text text-anchor="start" x="194.7" y="-326" font-family="Helvetica,sans-Serif" font-size="10.00">polyfem/assembler/Element</text>
<text text-anchor="middle" x="264.2" y="-315" font-family="Helvetica,sans-Serif" font-size="10.00">AssemblyValues.hpp</text>
</a>
</g>
</g>
<!-- Node5&#45;&gt;Node6 -->
<g id="edge5" class="edge">
<title>Node5&#45;&gt;Node6</title>
<path fill="none" stroke="#63b8ff" d="M449.97,-373.95C413.55,-364.16 364.78,-351.05 326.35,-340.71"/>
<polygon fill="#63b8ff" stroke="#63b8ff" points="326.88,-337.23 316.31,-338.01 325.06,-343.99 326.88,-337.23"/>
</g>
<!-- Node7 -->
<g id="node7" class="node">
<title>Node7</title>
<g id="a_node7"><a xlink:href="_assembly_values_8hpp.html" target="_top" xlink:title=" ">
<polygon fill="white" stroke="#666666" points="191.2,-217 29.2,-217 29.2,-187 191.2,-187 191.2,-217"/>
<text text-anchor="start" x="37.2" y="-205" font-family="Helvetica,sans-Serif" font-size="10.00">polyfem/assembler/Assembly</text>
<text text-anchor="middle" x="110.2" y="-194" font-family="Helvetica,sans-Serif" font-size="10.00">Values.hpp</text>
</a>
</g>
</g>
<!-- Node6&#45;&gt;Node7 -->
<g id="edge6" class="edge">
<title>Node6&#45;&gt;Node7</title>
<path fill="none" stroke="#63b8ff" d="M228.06,-307.92C208.56,-299.29 184.76,-287.02 166.2,-272 149.92,-258.82 135.15,-240.2 124.87,-225.63"/>
<polygon fill="#63b8ff" stroke="#63b8ff" points="127.62,-223.44 119.08,-217.16 121.84,-227.39 127.62,-223.44"/>
</g>
<!-- Node14 -->
<g id="node14" class="node">
<title>Node14</title>
<g id="a_node14"><a xlink:title=" ">
<polygon fill="#e0e0e0" stroke="#999999" points="293.7,-79.5 246.7,-79.5 246.7,-60.5 293.7,-60.5 293.7,-79.5"/>
<text text-anchor="middle" x="270.2" y="-67.5" font-family="Helvetica,sans-Serif" font-size="10.00">vector</text>
</a>
</g>
</g>
<!-- Node6&#45;&gt;Node14 -->
<g id="edge37" class="edge">
<title>Node6&#45;&gt;Node14</title>
<path fill="none" stroke="#63b8ff" d="M186.63,-311.06C101.47,-295.24 -18.4,-259.55 20.2,-187 44.87,-140.64 71.04,-144.09 118.2,-121 157.1,-101.96 204.98,-87.57 236.49,-79.22"/>
<polygon fill="#63b8ff" stroke="#63b8ff" points="237.71,-82.52 246.51,-76.63 235.95,-75.75 237.71,-82.52"/>
</g>
<!-- Node15 -->
<g id="node15" class="node">
<title>Node15</title>
<g id="a_node15"><a xlink:href="_element_bases_8hpp.html" target="_top" xlink:title=" ">
<polygon fill="white" stroke="#666666" points="353.7,-272 174.7,-272 174.7,-253 353.7,-253 353.7,-272"/>
<text text-anchor="middle" x="264.2" y="-260" font-family="Helvetica,sans-Serif" font-size="10.00">polyfem/basis/ElementBases.hpp</text>
</a>
</g>
</g>
<!-- Node6&#45;&gt;Node15 -->
<g id="edge17" class="edge">
<title>Node6&#45;&gt;Node15</title>
<path fill="none" stroke="#63b8ff" d="M264.2,-307.84C264.2,-300.21 264.2,-290.7 264.2,-282.45"/>
<polygon fill="#63b8ff" stroke="#63b8ff" points="267.7,-282.27 264.2,-272.27 260.7,-282.27 267.7,-282.27"/>
</g>
<!-- Node7&#45;&gt;Node8 -->
<g id="edge7" class="edge">
<title>Node7&#45;&gt;Node8</title>
<path fill="none" stroke="#63b8ff" d="M129.07,-186.8C142.84,-176.43 161.46,-162.4 175.44,-151.88"/>
<polygon fill="#63b8ff" stroke="#63b8ff" points="177.57,-154.66 183.46,-145.84 173.36,-149.06 177.57,-154.66"/>
</g>
<!-- Node10 -->
<g id="node10" class="node">
<title>Node10</title>
<g id="a_node10"><a xlink:title=" ">
<polygon fill="#e0e0e0" stroke="#999999" points="443.7,-19 366.7,-19 366.7,0 443.7,0 443.7,-19"/>
<text text-anchor="middle" x="405.2" y="-7" font-family="Helvetica,sans-Serif" font-size="10.00">Eigen/Dense</text>
</a>
</g>
</g>
<!-- Node7&#45;&gt;Node10 -->
<g id="edge16" class="edge">
<title>Node7&#45;&gt;Node10</title>
<path fill="none" stroke="#63b8ff" d="M98.26,-186.68C75.96,-158.17 33.23,-93.74 67.2,-55 85.97,-33.6 267.42,-19.23 356.44,-13.41"/>
<polygon fill="#63b8ff" stroke="#63b8ff" points="356.8,-16.9 366.56,-12.76 356.36,-9.91 356.8,-16.9"/>
</g>
<!-- Node9 -->
<g id="node9" class="node">
<title>Node9</title>
<g id="a_node9"><a xlink:href="_quadrature_8hpp.html" target="_top" xlink:title=" ">
<polygon fill="white" stroke="#666666" points="189.7,-85 76.7,-85 76.7,-55 189.7,-55 189.7,-85"/>
<text text-anchor="start" x="84.7" y="-73" font-family="Helvetica,sans-Serif" font-size="10.00">polyfem/quadrature</text>
<text text-anchor="middle" x="133.2" y="-62" font-family="Helvetica,sans-Serif" font-size="10.00">/Quadrature.hpp</text>
</a>
</g>
</g>
<!-- Node8&#45;&gt;Node9 -->
<g id="edge8" class="edge">
<title>Node8&#45;&gt;Node9</title>
<path fill="none" stroke="#63b8ff" d="M186.84,-126.37C178.49,-117.75 165.32,-104.15 154.12,-92.59"/>
<polygon fill="#63b8ff" stroke="#63b8ff" points="156.59,-90.11 147.12,-85.36 151.56,-94.98 156.59,-90.11"/>
</g>
<!-- Node8&#45;&gt;Node10 -->
<g id="edge13" class="edge">
<title>Node8&#45;&gt;Node10</title>
<path fill="none" stroke="#63b8ff" d="M197.4,-126.28C202.01,-109.76 214.33,-73.87 238.2,-55 271.94,-28.32 320.26,-17.57 356.25,-13.27"/>
<polygon fill="#63b8ff" stroke="#63b8ff" points="356.95,-16.72 366.52,-12.18 356.21,-9.76 356.95,-16.72"/>
</g>
<!-- Node11 -->
<g id="node11" class="node">
<title>Node11</title>
<g id="a_node11"><a xlink:href="_types_8hpp.html" target="_top" xlink:title=" ">
<polygon fill="white" stroke="#666666" points="1076.7,-79.5 943.7,-79.5 943.7,-60.5 1076.7,-60.5 1076.7,-79.5"/>
<text text-anchor="middle" x="1010.2" y="-67.5" font-family="Helvetica,sans-Serif" font-size="10.00">polyfem/utils/Types.hpp</text>
</a>
</g>
</g>
<!-- Node8&#45;&gt;Node11 -->
<g id="edge10" class="edge">
<title>Node8&#45;&gt;Node11</title>
<path fill="none" stroke="#63b8ff" d="M263.44,-130.58C414.77,-120.7 774.69,-96.79 896.2,-85 908.81,-83.78 922.18,-82.3 935.16,-80.77"/>
<polygon fill="#63b8ff" stroke="#63b8ff" points="935.95,-84.2 945.46,-79.53 935.11,-77.25 935.95,-84.2"/>
</g>
<!-- Node13 -->
<g id="node13" class="node">
<title>Node13</title>
<g id="a_node13"><a xlink:title=" ">
<polygon fill="#e0e0e0" stroke="#999999" points="376.7,-79.5 311.7,-79.5 311.7,-60.5 376.7,-60.5 376.7,-79.5"/>
<text text-anchor="middle" x="344.2" y="-67.5" font-family="Helvetica,sans-Serif" font-size="10.00">functional</text>
</a>
</g>
</g>
<!-- Node8&#45;&gt;Node13 -->
<g id="edge14" class="edge">
<title>Node8&#45;&gt;Node13</title>
<path fill="none" stroke="#63b8ff" d="M215.3,-126.37C240.85,-115.39 285.17,-96.36 314.59,-83.72"/>
<polygon fill="#63b8ff" stroke="#63b8ff" points="316.14,-86.86 323.95,-79.7 313.38,-80.43 316.14,-86.86"/>
</g>
<!-- Node8&#45;&gt;Node14 -->
<g id="edge15" class="edge">
<title>Node8&#45;&gt;Node14</title>
<path fill="none" stroke="#63b8ff" d="M205.32,-126.37C217.22,-116.21 237.2,-99.16 251.86,-86.65"/>
<polygon fill="#63b8ff" stroke="#63b8ff" points="254.43,-89.06 259.77,-79.91 249.89,-83.73 254.43,-89.06"/>
</g>
<!-- Node9&#45;&gt;Node10 -->
<g id="edge9" class="edge">
<title>Node9&#45;&gt;Node10</title>
<path fill="none" stroke="#63b8ff" d="M189.89,-56.81C239.21,-46.2 309.92,-30.99 356.67,-20.94"/>
<polygon fill="#63b8ff" stroke="#63b8ff" points="357.51,-24.34 366.56,-18.81 356.04,-17.49 357.51,-24.34"/>
</g>
<!-- Node11&#45;&gt;Node10 -->
<g id="edge11" class="edge">
<title>Node11&#45;&gt;Node10</title>
<path fill="none" stroke="#63b8ff" d="M964.9,-60.46C953.29,-58.47 940.81,-56.49 929.2,-55 755.04,-32.6 546.79,-18.74 453.99,-13.23"/>
<polygon fill="#63b8ff" stroke="#63b8ff" points="453.97,-9.72 443.78,-12.63 453.56,-16.71 453.97,-9.72"/>
</g>
<!-- Node12 -->
<g id="node12" class="node">
<title>Node12</title>
<g id="a_node12"><a xlink:title=" ">
<polygon fill="#e0e0e0" stroke="#999999" points="1229.2,-19 1149.2,-19 1149.2,0 1229.2,0 1229.2,-19"/>
<text text-anchor="middle" x="1189.2" y="-7" font-family="Helvetica,sans-Serif" font-size="10.00">Eigen/Sparse</text>
</a>
</g>
</g>
<!-- Node11&#45;&gt;Node12 -->
<g id="edge12" class="edge">
<title>Node11&#45;&gt;Node12</title>
<path fill="none" stroke="#63b8ff" d="M1036.23,-60.49C1067.12,-50.4 1118.79,-33.51 1153.42,-22.19"/>
<polygon fill="#63b8ff" stroke="#63b8ff" points="1154.73,-25.45 1163.14,-19.02 1152.55,-18.8 1154.73,-25.45"/>
</g>
<!-- Node15&#45;&gt;Node7 -->
<g id="edge35" class="edge">
<title>Node15&#45;&gt;Node7</title>
<path fill="none" stroke="#63b8ff" d="M241.81,-252.99C219.65,-244.57 185.05,-231.43 156.89,-220.73"/>
<polygon fill="#63b8ff" stroke="#63b8ff" points="157.82,-217.34 147.23,-217.06 155.33,-223.89 157.82,-217.34"/>
</g>
<!-- Node15&#45;&gt;Node8 -->
<g id="edge18" class="edge">
<title>Node15&#45;&gt;Node8</title>
<path fill="none" stroke="#63b8ff" d="M261.43,-252.9C256.67,-238.68 246.2,-209.59 233.2,-187 226.38,-175.13 217.1,-162.88 209.43,-153.47"/>
<polygon fill="#63b8ff" stroke="#63b8ff" points="212.05,-151.15 202.94,-145.73 206.68,-155.64 212.05,-151.15"/>
</g>
<!-- Node15&#45;&gt;Node9 -->
<g id="edge19" class="edge">
<title>Node15&#45;&gt;Node9</title>
<path fill="none" stroke="#63b8ff" d="M258.51,-252.56C248.41,-237.31 225.97,-206.08 200.2,-187 168.22,-163.31 139.97,-184.32 118.2,-151 107.22,-134.19 113.06,-111.39 120.42,-94.43"/>
<polygon fill="#63b8ff" stroke="#63b8ff" points="123.67,-95.74 124.82,-85.21 117.35,-92.73 123.67,-95.74"/>
</g>
<!-- Node15&#45;&gt;Node14 -->
<g id="edge36" class="edge">
<title>Node15&#45;&gt;Node14</title>
<path fill="none" stroke="#63b8ff" d="M265.04,-252.91C266.79,-234.35 270.83,-189.06 272.2,-151 272.69,-137.68 272.47,-134.33 272.2,-121 272,-110.75 271.56,-99.32 271.14,-89.99"/>
<polygon fill="#63b8ff" stroke="#63b8ff" points="274.63,-89.67 270.66,-79.85 267.64,-90 274.63,-89.67"/>
</g>
<!-- Node16 -->
<g id="node16" class="node">
<title>Node16</title>
<g id="a_node16"><a xlink:href="_mesh_8hpp.html" target="_top" xlink:title=" ">
<polygon fill="white" stroke="#666666" points="675.7,-211.5 538.7,-211.5 538.7,-192.5 675.7,-192.5 675.7,-211.5"/>
<text text-anchor="middle" x="607.2" y="-199.5" font-family="Helvetica,sans-Serif" font-size="10.00">polyfem/mesh/Mesh.hpp</text>
</a>
</g>
</g>
<!-- Node15&#45;&gt;Node16 -->
<g id="edge20" class="edge">
<title>Node15&#45;&gt;Node16</title>
<path fill="none" stroke="#63b8ff" d="M314.08,-252.99C375.93,-242.44 481.28,-224.48 547.41,-213.2"/>
<polygon fill="#63b8ff" stroke="#63b8ff" points="548,-216.65 557.27,-211.52 546.82,-209.75 548,-216.65"/>
</g>
<!-- Node16&#45;&gt;Node10 -->
<g id="edge32" class="edge">
<title>Node16&#45;&gt;Node10</title>
<path fill="none" stroke="#63b8ff" d="M550.23,-192.44C502.93,-184.11 440.8,-169.95 424.2,-151 394.28,-116.83 397.62,-58.93 401.82,-29.26"/>
<polygon fill="#63b8ff" stroke="#63b8ff" points="405.33,-29.48 403.46,-19.05 398.42,-28.37 405.33,-29.48"/>
</g>
<!-- Node16&#45;&gt;Node11 -->
<g id="edge27" class="edge">
<title>Node16&#45;&gt;Node11</title>
<path fill="none" stroke="#63b8ff" d="M675.82,-197.6C735.9,-192.67 824.55,-180.59 896.2,-151 934.31,-135.26 972.23,-105 993.3,-86.54"/>
<polygon fill="#63b8ff" stroke="#63b8ff" points="995.89,-88.93 1001.01,-79.65 991.22,-83.71 995.89,-88.93"/>
</g>
<!-- Node17 -->
<g id="node17" class="node">
<title>Node17</title>
<g id="a_node17"><a xlink:href="_common_8hpp.html" target="_top" xlink:title=" ">
<polygon fill="white" stroke="#666666" points="1342.7,-145.5 1217.7,-145.5 1217.7,-126.5 1342.7,-126.5 1342.7,-145.5"/>
<text text-anchor="middle" x="1280.2" y="-133.5" font-family="Helvetica,sans-Serif" font-size="10.00">polyfem/Common.hpp</text>
</a>
</g>
</g>
<!-- Node16&#45;&gt;Node17 -->
<g id="edge21" class="edge">
<title>Node16&#45;&gt;Node17</title>
<path fill="none" stroke="#63b8ff" d="M675.75,-194.48C803.29,-182.35 1075.95,-156.42 1206.96,-143.97"/>
<polygon fill="#63b8ff" stroke="#63b8ff" points="1207.66,-147.41 1217.29,-142.98 1207,-140.45 1207.66,-147.41"/>
</g>
<!-- Node19 -->
<g id="node19" class="node">
<title>Node19</title>
<g id="a_node19"><a xlink:href="_navigation_8hpp.html" target="_top" xlink:title=" ">
<polygon fill="white" stroke="#666666" points="886.7,-151 755.7,-151 755.7,-121 886.7,-121 886.7,-151"/>
<text text-anchor="start" x="763.7" y="-139" font-family="Helvetica,sans-Serif" font-size="10.00">polyfem/mesh/mesh2D</text>
<text text-anchor="middle" x="821.2" y="-128" font-family="Helvetica,sans-Serif" font-size="10.00">/Navigation.hpp</text>
</a>
</g>
</g>
<!-- Node16&#45;&gt;Node19 -->
<g id="edge24" class="edge">
<title>Node16&#45;&gt;Node19</title>
<path fill="none" stroke="#63b8ff" d="M636.06,-192.37C668.81,-182.58 723.01,-166.37 764.33,-154.01"/>
<polygon fill="#63b8ff" stroke="#63b8ff" points="765.43,-157.33 774,-151.12 763.42,-150.63 765.43,-157.33"/>
</g>
<!-- Node20 -->
<g id="node20" class="node">
<title>Node20</title>
<g id="a_node20"><a xlink:title=" ">
<polygon fill="#e0e0e0" stroke="#999999" points="720.7,-79.5 591.7,-79.5 591.7,-60.5 720.7,-60.5 720.7,-79.5"/>
<text text-anchor="middle" x="656.2" y="-67.5" font-family="Helvetica,sans-Serif" font-size="10.00">geogram/mesh/mesh.h</text>
</a>
</g>
</g>
<!-- Node16&#45;&gt;Node20 -->
<g id="edge33" class="edge">
<title>Node16&#45;&gt;Node20</title>
<path fill="none" stroke="#63b8ff" d="M625.38,-192.41C640.49,-184.16 660.97,-170.11 670.2,-151 679.75,-131.23 672.51,-105.92 665.37,-89.12"/>
<polygon fill="#63b8ff" stroke="#63b8ff" points="668.46,-87.48 661.08,-79.88 662.11,-90.43 668.46,-87.48"/>
</g>
<!-- Node22 -->
<g id="node22" class="node">
<title>Node22</title>
<g id="a_node22"><a xlink:href="_hash_utils_8hpp.html" target="_top" xlink:title=" ">
<polygon fill="white" stroke="#666666" points="661.2,-145.5 509.2,-145.5 509.2,-126.5 661.2,-126.5 661.2,-145.5"/>
<text text-anchor="middle" x="585.2" y="-133.5" font-family="Helvetica,sans-Serif" font-size="10.00">polyfem/utils/HashUtils.hpp</text>
</a>
</g>
</g>
<!-- Node16&#45;&gt;Node22 -->
<g id="edge28" class="edge">
<title>Node16&#45;&gt;Node22</title>
<path fill="none" stroke="#63b8ff" d="M604.24,-192.37C601.01,-182.97 595.75,-167.67 591.57,-155.53"/>
<polygon fill="#63b8ff" stroke="#63b8ff" points="594.83,-154.22 588.26,-145.91 588.21,-156.5 594.83,-154.22"/>
</g>
<!-- Node25 -->
<g id="node25" class="node">
<title>Node25</title>
<g id="a_node25"><a xlink:title=" ">
<polygon fill="#e0e0e0" stroke="#999999" points="491.2,-145.5 433.2,-145.5 433.2,-126.5 491.2,-126.5 491.2,-145.5"/>
<text text-anchor="middle" x="462.2" y="-133.5" font-family="Helvetica,sans-Serif" font-size="10.00">memory</text>
</a>
</g>
</g>
<!-- Node16&#45;&gt;Node25 -->
<g id="edge34" class="edge">
<title>Node16&#45;&gt;Node25</title>
<path fill="none" stroke="#63b8ff" d="M587.65,-192.37C562.89,-181.44 520.03,-162.52 491.39,-149.88"/>
<polygon fill="#63b8ff" stroke="#63b8ff" points="492.47,-146.54 481.91,-145.7 489.65,-152.94 492.47,-146.54"/>
</g>
<!-- Node17&#45;&gt;Node12 -->
<g id="edge22" class="edge">
<title>Node17&#45;&gt;Node12</title>
<path fill="none" stroke="#63b8ff" d="M1293.98,-126.48C1316.09,-111.74 1355.2,-80.59 1336.2,-55 1314.1,-25.21 1272.61,-14.66 1239.33,-11.23"/>
<polygon fill="#63b8ff" stroke="#63b8ff" points="1239.56,-7.74 1229.3,-10.38 1238.97,-14.71 1239.56,-7.74"/>
</g>
<!-- Node18 -->
<g id="node18" class="node">
<title>Node18</title>
<g id="a_node18"><a xlink:title=" ">
<polygon fill="#e0e0e0" stroke="#999999" points="1327.2,-79.5 1217.2,-79.5 1217.2,-60.5 1327.2,-60.5 1327.2,-79.5"/>
<text text-anchor="middle" x="1272.2" y="-67.5" font-family="Helvetica,sans-Serif" font-size="10.00">nlohmann/json.hpp</text>
</a>
</g>
</g>
<!-- Node17&#45;&gt;Node18 -->
<g id="edge23" class="edge">
<title>Node17&#45;&gt;Node18</title>
<path fill="none" stroke="#63b8ff" d="M1279.12,-126.37C1277.96,-117.07 1276.08,-101.98 1274.57,-89.9"/>
<polygon fill="#63b8ff" stroke="#63b8ff" points="1278.03,-89.39 1273.32,-79.91 1271.08,-90.26 1278.03,-89.39"/>
</g>
<!-- Node19&#45;&gt;Node20 -->
<g id="edge25" class="edge">
<title>Node19&#45;&gt;Node20</title>
<path fill="none" stroke="#63b8ff" d="M784.99,-120.95C755.93,-109.68 715.53,-94.01 687.77,-83.25"/>
<polygon fill="#63b8ff" stroke="#63b8ff" points="688.75,-79.87 678.16,-79.52 686.22,-86.4 688.75,-79.87"/>
</g>
<!-- Node21 -->
<g id="node21" class="node">
<title>Node21</title>
<g id="a_node21"><a xlink:title=" ">
<polygon fill="#e0e0e0" stroke="#999999" points="887.2,-79.5 739.2,-79.5 739.2,-60.5 887.2,-60.5 887.2,-79.5"/>
<text text-anchor="middle" x="813.2" y="-67.5" font-family="Helvetica,sans-Serif" font-size="10.00">geogram/basic/attributes.h</text>
</a>
</g>
</g>
<!-- Node19&#45;&gt;Node21 -->
<g id="edge26" class="edge">
<title>Node19&#45;&gt;Node21</title>
<path fill="none" stroke="#63b8ff" d="M819.43,-120.8C818.29,-111.7 816.8,-99.79 815.57,-89.9"/>
<polygon fill="#63b8ff" stroke="#63b8ff" points="819.02,-89.33 814.31,-79.84 812.08,-90.2 819.02,-89.33"/>
</g>
<!-- Node22&#45;&gt;Node14 -->
<g id="edge31" class="edge">
<title>Node22&#45;&gt;Node14</title>
<path fill="none" stroke="#63b8ff" d="M533.57,-126.49C458.27,-113.99 324.89,-91.43 303.2,-85 301.52,-84.5 299.81,-83.94 298.1,-83.34"/>
<polygon fill="#63b8ff" stroke="#63b8ff" points="299.02,-79.95 288.43,-79.6 296.49,-86.48 299.02,-79.95"/>
</g>
<!-- Node23 -->
<g id="node23" class="node">
<title>Node23</title>
<g id="a_node23"><a xlink:title=" ">
<polygon fill="#e0e0e0" stroke="#999999" points="512.7,-79.5 459.7,-79.5 459.7,-60.5 512.7,-60.5 512.7,-79.5"/>
<text text-anchor="middle" x="486.2" y="-67.5" font-family="Helvetica,sans-Serif" font-size="10.00">cstddef</text>
</a>
</g>
</g>
<!-- Node22&#45;&gt;Node23 -->
<g id="edge29" class="edge">
<title>Node22&#45;&gt;Node23</title>
<path fill="none" stroke="#63b8ff" d="M571.85,-126.37C555.54,-115.82 527.71,-97.84 508.22,-85.23"/>
<polygon fill="#63b8ff" stroke="#63b8ff" points="509.96,-82.19 499.66,-79.7 506.16,-88.07 509.96,-82.19"/>
</g>
<!-- Node24 -->
<g id="node24" class="node">
<title>Node24</title>
<g id="a_node24"><a xlink:title=" ">
<polygon fill="#e0e0e0" stroke="#999999" points="573.2,-79.5 531.2,-79.5 531.2,-60.5 573.2,-60.5 573.2,-79.5"/>
<text text-anchor="middle" x="552.2" y="-67.5" font-family="Helvetica,sans-Serif" font-size="10.00">array</text>
</a>
</g>
</g>
<!-- Node22&#45;&gt;Node24 -->
<g id="edge30" class="edge">
<title>Node22&#45;&gt;Node24</title>
<path fill="none" stroke="#63b8ff" d="M580.75,-126.37C575.81,-116.78 567.7,-101.05 561.38,-88.8"/>
<polygon fill="#63b8ff" stroke="#63b8ff" points="564.49,-87.19 556.8,-79.91 558.27,-90.4 564.49,-87.19"/>
</g>
<!-- Node26&#45;&gt;Node6 -->
<g id="edge39" class="edge">
<title>Node26&#45;&gt;Node6</title>
<path fill="none" stroke="#63b8ff" d="M267.32,-373.8C266.85,-366.34 266.27,-356.99 265.73,-348.41"/>
<polygon fill="#63b8ff" stroke="#63b8ff" points="269.21,-347.93 265.09,-338.16 262.22,-348.36 269.21,-347.93"/>
</g>
<!-- Node27&#45;&gt;Node10 -->
<g id="edge43" class="edge">
<title>Node27&#45;&gt;Node10</title>
<path fill="none" stroke="#63b8ff" d="M1087.9,-192.32C1097.94,-167.21 1122.6,-93.85 1086.2,-55 1043.19,-9.09 602.76,-8.73 453.99,-9.94"/>
<polygon fill="#63b8ff" stroke="#63b8ff" points="453.76,-6.44 443.79,-10.03 453.82,-13.44 453.76,-6.44"/>
</g>
<!-- Node27&#45;&gt;Node11 -->
<g id="edge42" class="edge">
<title>Node27&#45;&gt;Node11</title>
<path fill="none" stroke="#63b8ff" d="M1080.19,-192.43C1073.17,-177.61 1058,-146.34 1043.2,-121 1036.67,-109.82 1028.69,-97.69 1022.21,-88.17"/>
<polygon fill="#63b8ff" stroke="#63b8ff" points="1024.9,-85.91 1016.34,-79.67 1019.14,-89.88 1024.9,-85.91"/>
</g>
<!-- Node27&#45;&gt;Node12 -->
<g id="edge44" class="edge">
<title>Node27&#45;&gt;Node12</title>
<path fill="none" stroke="#63b8ff" d="M1090.81,-192.41C1098.17,-182.65 1110.21,-166.12 1119.2,-151 1144.41,-108.61 1168.96,-55.94 1181.19,-28.71"/>
<polygon fill="#63b8ff" stroke="#63b8ff" points="1184.51,-29.85 1185.38,-19.29 1178.11,-27 1184.51,-29.85"/>
</g>
<!-- Node27&#45;&gt;Node17 -->
<g id="edge41" class="edge">
<title>Node27&#45;&gt;Node17</title>
<path fill="none" stroke="#63b8ff" d="M1110.64,-192.37C1145.07,-181.12 1205.43,-161.42 1244.07,-148.8"/>
<polygon fill="#63b8ff" stroke="#63b8ff" points="1245.46,-152.03 1253.88,-145.6 1243.28,-145.37 1245.46,-152.03"/>
</g>
<!-- Node28&#45;&gt;Node11 -->
<g id="edge47" class="edge">
<title>Node28&#45;&gt;Node11</title>
<path fill="none" stroke="#63b8ff" d="M1194.76,-445.49C1193.72,-424.72 1191.2,-369.84 1191.2,-324 1191.2,-324 1191.2,-324 1191.2,-261.5 1191.2,-227.44 1192.29,-215.22 1173.2,-187 1139.44,-137.08 1076.58,-101.55 1039.56,-83.83"/>
<polygon fill="#63b8ff" stroke="#63b8ff" points="1040.84,-80.56 1030.3,-79.5 1037.88,-86.9 1040.84,-80.56"/>
</g>
<!-- Node28&#45;&gt;Node17 -->
<g id="edge46" class="edge">
<title>Node28&#45;&gt;Node17</title>
<path fill="none" stroke="#63b8ff" d="M1235.5,-445.45C1291.27,-430.99 1385.2,-395.94 1385.2,-324 1385.2,-324 1385.2,-324 1385.2,-261.5 1385.2,-211.57 1335.25,-171.29 1304.26,-151.1"/>
<polygon fill="#63b8ff" stroke="#63b8ff" points="1306.03,-148.08 1295.7,-145.72 1302.3,-154 1306.03,-148.08"/>
</g>
<!-- Node29 -->
<g id="node29" class="node">
<title>Node29</title>
<g id="a_node29"><a xlink:href="_expression_value_8hpp.html" target="_top" xlink:title=" ">
<polygon fill="white" stroke="#666666" points="1356.7,-338 1219.7,-338 1219.7,-308 1356.7,-308 1356.7,-338"/>
<text text-anchor="start" x="1227.7" y="-326" font-family="Helvetica,sans-Serif" font-size="10.00">polyfem/utils/Expression</text>
<text text-anchor="middle" x="1288.2" y="-315" font-family="Helvetica,sans-Serif" font-size="10.00">Value.hpp</text>
</a>
</g>
</g>
<!-- Node28&#45;&gt;Node29 -->
<g id="edge48" class="edge">
<title>Node28&#45;&gt;Node29</title>
<path fill="none" stroke="#63b8ff" d="M1201.31,-445.47C1215.51,-425.61 1251.19,-375.74 1272.15,-346.44"/>
<polygon fill="#63b8ff" stroke="#63b8ff" points="1275.17,-348.24 1278.14,-338.07 1269.48,-344.16 1275.17,-348.24"/>
</g>
<!-- Node29&#45;&gt;Node17 -->
<g id="edge49" class="edge">
<title>Node29&#45;&gt;Node17</title>
<path fill="none" stroke="#63b8ff" d="M1287.59,-307.79C1286.16,-274.81 1282.63,-193.05 1281.02,-155.9"/>
<polygon fill="#63b8ff" stroke="#63b8ff" points="1284.5,-155.37 1280.57,-145.53 1277.51,-155.67 1284.5,-155.37"/>
</g>
<!-- Node30&#45;&gt;Node11 -->
<g id="edge51" class="edge">
<title>Node30&#45;&gt;Node11</title>
<path fill="none" stroke="#63b8ff" d="M1044.74,-379.48C1003.69,-365.04 928.05,-331.36 899.2,-272 872.29,-216.62 944.23,-282.72 1005.2,-151 1014.13,-131.71 1014.19,-106.96 1012.78,-90.13"/>
<polygon fill="#63b8ff" stroke="#63b8ff" points="1016.23,-89.47 1011.66,-79.91 1009.27,-90.23 1016.23,-89.47"/>
</g>
<!-- Node31 -->
<g id="node31" class="node">
<title>Node31</title>
<g id="a_node31"><a xlink:href="autodiff_8h.html" target="_top" xlink:title=" ">
<polygon fill="white" stroke="#666666" points="1054.7,-332.5 991.7,-332.5 991.7,-313.5 1054.7,-313.5 1054.7,-332.5"/>
<text text-anchor="middle" x="1023.2" y="-320.5" font-family="Helvetica,sans-Serif" font-size="10.00">autodiff.h</text>
</a>
</g>
</g>
<!-- Node30&#45;&gt;Node31 -->
<g id="edge52" class="edge">
<title>Node30&#45;&gt;Node31</title>
<path fill="none" stroke="#63b8ff" d="M1065.6,-379.37C1058.11,-369.59 1045.73,-353.42 1036.28,-341.08"/>
<polygon fill="#63b8ff" stroke="#63b8ff" points="1038.88,-338.72 1030.02,-332.91 1033.32,-342.97 1038.88,-338.72"/>
</g>
<!-- Node32 -->
<g id="node32" class="node">
<title>Node32</title>
<g id="a_node32"><a xlink:title=" ">
<polygon fill="#e0e0e0" stroke="#999999" points="976.7,-272 907.7,-272 907.7,-253 976.7,-253 976.7,-272"/>
<text text-anchor="middle" x="942.2" y="-260" font-family="Helvetica,sans-Serif" font-size="10.00">Eigen/Core</text>
</a>
</g>
</g>
<!-- Node31&#45;&gt;Node32 -->
<g id="edge53" class="edge">
<title>Node31&#45;&gt;Node32</title>
<path fill="none" stroke="#63b8ff" d="M1011.25,-313.37C998.45,-304.12 977.91,-289.28 962.55,-278.19"/>
<polygon fill="#63b8ff" stroke="#63b8ff" points="964.36,-275.18 954.2,-272.17 960.26,-280.86 964.36,-275.18"/>
</g>
<!-- Node33 -->
<g id="node33" class="node">
<title>Node33</title>
<g id="a_node33"><a xlink:title=" ">
<polygon fill="#e0e0e0" stroke="#999999" points="1041.7,-272 994.7,-272 994.7,-253 1041.7,-253 1041.7,-272"/>
<text text-anchor="middle" x="1018.2" y="-260" font-family="Helvetica,sans-Serif" font-size="10.00">cmath</text>
</a>
</g>
</g>
<!-- Node31&#45;&gt;Node33 -->
<g id="edge54" class="edge">
<title>Node31&#45;&gt;Node33</title>
<path fill="none" stroke="#63b8ff" d="M1022.47,-313.37C1021.77,-305.25 1020.71,-292.81 1019.82,-282.39"/>
<polygon fill="#63b8ff" stroke="#63b8ff" points="1023.28,-281.83 1018.94,-272.17 1016.31,-282.43 1023.28,-281.83"/>
</g>
<!-- Node34 -->
<g id="node34" class="node">
<title>Node34</title>
<g id="a_node34"><a xlink:title=" ">
<polygon fill="#e0e0e0" stroke="#999999" points="1124.7,-272 1059.7,-272 1059.7,-253 1124.7,-253 1124.7,-272"/>
<text text-anchor="middle" x="1092.2" y="-260" font-family="Helvetica,sans-Serif" font-size="10.00">stdexcept</text>
</a>
</g>
</g>
<!-- Node31&#45;&gt;Node34 -->
<g id="edge55" class="edge">
<title>Node31&#45;&gt;Node34</title>
<path fill="none" stroke="#63b8ff" d="M1033.38,-313.37C1044.09,-304.3 1061.14,-289.84 1074.13,-278.82"/>
<polygon fill="#63b8ff" stroke="#63b8ff" points="1076.62,-281.3 1081.98,-272.17 1072.09,-275.96 1076.62,-281.3"/>
</g>
<!-- Node35&#45;&gt;Node5 -->
<g id="edge58" class="edge">
<title>Node35&#45;&gt;Node5</title>
<path fill="none" stroke="#63b8ff" d="M681.73,-439.95C646.53,-430.16 599.4,-417.05 562.26,-406.71"/>
<polygon fill="#63b8ff" stroke="#63b8ff" points="563.13,-403.32 552.56,-404.01 561.26,-410.07 563.13,-403.32"/>
</g>
<!-- Node35&#45;&gt;Node10 -->
<g id="edge63" class="edge">
<title>Node35&#45;&gt;Node10</title>
<path fill="none" stroke="#63b8ff" d="M740.32,-439.98C772.29,-384.66 888.11,-182.96 896.2,-151 906.68,-109.64 924.98,-86.5 896.2,-55 866.75,-22.76 572.19,-13.64 453.95,-11.27"/>
<polygon fill="#63b8ff" stroke="#63b8ff" points="453.8,-7.77 443.74,-11.07 453.67,-14.77 453.8,-7.77"/>
</g>
<!-- Node35&#45;&gt;Node11 -->
<g id="edge61" class="edge">
<title>Node35&#45;&gt;Node11</title>
<path fill="none" stroke="#63b8ff" d="M746.78,-439.64C756.38,-429.92 769.01,-416.59 779.2,-404 827.11,-344.81 959.15,-147.66 998.8,-88.15"/>
<polygon fill="#63b8ff" stroke="#63b8ff" points="1001.9,-89.8 1004.53,-79.54 996.08,-85.92 1001.9,-89.8"/>
</g>
<!-- Node35&#45;&gt;Node13 -->
<g id="edge66" class="edge">
<title>Node35&#45;&gt;Node13</title>
<path fill="none" stroke="#63b8ff" d="M728.79,-439.98C721.37,-412.01 701.49,-348.5 665.2,-308 574.62,-206.9 503.67,-242.29 403.2,-151 382.81,-132.47 364.91,-105.93 354.32,-88.59"/>
<polygon fill="#63b8ff" stroke="#63b8ff" points="357.08,-86.38 348.97,-79.57 351.06,-89.95 357.08,-86.38"/>
</g>
<!-- Node35&#45;&gt;Node14 -->
<g id="edge64" class="edge">
<title>Node35&#45;&gt;Node14</title>
<path fill="none" stroke="#63b8ff" d="M715.21,-439.91C643.25,-380.26 363.85,-148.64 288.83,-86.44"/>
<polygon fill="#63b8ff" stroke="#63b8ff" points="290.66,-83.41 280.72,-79.72 286.19,-88.8 290.66,-83.41"/>
</g>
<!-- Node35&#45;&gt;Node15 -->
<g id="edge59" class="edge">
<title>Node35&#45;&gt;Node15</title>
<path fill="none" stroke="#63b8ff" d="M703,-439.82C683.94,-430.27 658.7,-417.08 637.2,-404 617.3,-391.88 615.02,-384.47 594.2,-374 498.14,-325.67 376.15,-291.13 310.71,-274.57"/>
<polygon fill="#63b8ff" stroke="#63b8ff" points="311.26,-271.1 300.7,-272.06 309.56,-277.89 311.26,-271.1"/>
</g>
<!-- Node35&#45;&gt;Node17 -->
<g id="edge57" class="edge">
<title>Node35&#45;&gt;Node17</title>
<path fill="none" stroke="#63b8ff" d="M796.1,-439.96C832.19,-431.23 877.82,-418.85 917.2,-404 945.47,-393.34 950.05,-384.95 978.2,-374 1031.29,-353.35 1053.06,-368.45 1101.2,-338 1180.2,-288.03 1245.04,-193.42 1269.61,-154.45"/>
<polygon fill="#63b8ff" stroke="#63b8ff" points="1272.68,-156.14 1274.97,-145.8 1266.73,-152.45 1272.68,-156.14"/>
</g>
<!-- Node35&#45;&gt;Node24 -->
<g id="edge65" class="edge">
<title>Node35&#45;&gt;Node24</title>
<path fill="none" stroke="#63b8ff" d="M731.31,-439.96C729.87,-416.13 727.2,-366.24 727.2,-324 727.2,-324 727.2,-324 727.2,-201 727.2,-157.34 704.37,-148.18 670.2,-121 637.46,-94.95 621.61,-101.61 583.2,-85 582.2,-84.57 581.18,-84.12 580.15,-83.67"/>
<polygon fill="#63b8ff" stroke="#63b8ff" points="581.41,-80.4 570.85,-79.54 578.57,-86.8 581.41,-80.4"/>
</g>
<!-- Node35&#45;&gt;Node27 -->
<g id="edge62" class="edge">
<title>Node35&#45;&gt;Node27</title>
<path fill="none" stroke="#63b8ff" d="M767.2,-439.94C809.01,-423.34 881.23,-395.3 944.2,-374 996.95,-356.16 1015.99,-365.85 1064.2,-338 1101.23,-316.62 1117.26,-311.26 1134.2,-272 1143.17,-251.22 1123.57,-230.64 1106.34,-217.44"/>
<polygon fill="#63b8ff" stroke="#63b8ff" points="1108.37,-214.58 1098.21,-211.58 1104.28,-220.26 1108.37,-214.58"/>
</g>
<!-- Node35&#45;&gt;Node30 -->
<g id="edge60" class="edge">
<title>Node35&#45;&gt;Node30</title>
<path fill="none" stroke="#63b8ff" d="M796.96,-441.81C860.61,-429.83 956.73,-411.74 1016.9,-400.41"/>
<polygon fill="#63b8ff" stroke="#63b8ff" points="1017.79,-403.8 1026.97,-398.51 1016.5,-396.92 1017.79,-403.8"/>
</g>
<!-- Node36&#45;&gt;Node4 -->
<g id="edge68" class="edge">
<title>Node36&#45;&gt;Node4</title>
<path fill="none" stroke="#63b8ff" d="M993.62,-507.23C990.44,-506.81 987.29,-506.4 984.2,-506 840.06,-487.51 803.57,-486.71 659.2,-470 647.48,-468.64 635.08,-467.18 622.94,-465.73"/>
<polygon fill="#63b8ff" stroke="#63b8ff" points="623.16,-462.23 612.81,-464.51 622.32,-469.18 623.16,-462.23"/>
</g>
<!-- Node36&#45;&gt;Node28 -->
<g id="edge69" class="edge">
<title>Node36&#45;&gt;Node28</title>
<path fill="none" stroke="#63b8ff" d="M1105.44,-505.95C1124.99,-495.08 1151.89,-480.11 1171.13,-469.4"/>
<polygon fill="#63b8ff" stroke="#63b8ff" points="1172.86,-472.44 1179.9,-464.52 1169.46,-466.32 1172.86,-472.44"/>
</g>
<!-- Node36&#45;&gt;Node30 -->
<g id="edge70" class="edge">
<title>Node36&#45;&gt;Node30</title>
<path fill="none" stroke="#63b8ff" d="M1079.33,-505.84C1077.89,-482.34 1074.99,-435.26 1073.37,-408.93"/>
<polygon fill="#63b8ff" stroke="#63b8ff" points="1076.85,-408.51 1072.74,-398.75 1069.86,-408.94 1076.85,-408.51"/>
</g>
<!-- Node36&#45;&gt;Node35 -->
<g id="edge71" class="edge">
<title>Node36&#45;&gt;Node35</title>
<path fill="none" stroke="#63b8ff" d="M1003.83,-505.95C945.2,-495.17 864.7,-480.37 806.58,-469.68"/>
<polygon fill="#63b8ff" stroke="#63b8ff" points="807.19,-466.23 796.72,-467.87 805.92,-473.12 807.19,-466.23"/>
</g>
<!-- Node37&#45;&gt;Node4 -->
<g id="edge73" class="edge">
<title>Node37&#45;&gt;Node4</title>
<path fill="none" stroke="#63b8ff" d="M811.71,-505.95C747.53,-494.01 656.84,-477.14 599.03,-466.39"/>
<polygon fill="#63b8ff" stroke="#63b8ff" points="599.46,-462.91 588.98,-464.52 598.18,-469.79 599.46,-462.91"/>
</g>
<!-- Node37&#45;&gt;Node28 -->
<g id="edge74" class="edge">
<title>Node37&#45;&gt;Node28</title>
<path fill="none" stroke="#63b8ff" d="M954.8,-505.95C1011.9,-494.09 1092.45,-477.35 1144.25,-466.59"/>
<polygon fill="#63b8ff" stroke="#63b8ff" points="1145.14,-469.98 1154.21,-464.52 1143.71,-463.13 1145.14,-469.98"/>
</g>
<!-- Node37&#45;&gt;Node30 -->
<g id="edge75" class="edge">
<title>Node37&#45;&gt;Node30</title>
<path fill="none" stroke="#63b8ff" d="M937.44,-505.95C960.74,-497.86 987.92,-486.06 1009.2,-470 1032.07,-452.75 1051.22,-425.3 1062.21,-407.46"/>
<polygon fill="#63b8ff" stroke="#63b8ff" points="1065.33,-409.05 1067.44,-398.67 1059.32,-405.47 1065.33,-409.05"/>
</g>
<!-- Node37&#45;&gt;Node35 -->
<g id="edge76" class="edge">
<title>Node37&#45;&gt;Node35</title>
<path fill="none" stroke="#63b8ff" d="M853.19,-505.95C830.37,-496.53 800.13,-484.04 775.58,-473.91"/>
<polygon fill="#63b8ff" stroke="#63b8ff" points="776.72,-470.59 766.14,-470.01 774.05,-477.06 776.72,-470.59"/>
</g>
<!-- Node38&#45;&gt;Node4 -->
<g id="edge78" class="edge">
<title>Node38&#45;&gt;Node4</title>
<path fill="none" stroke="#63b8ff" d="M543.2,-505.8C543.2,-496.7 543.2,-484.79 543.2,-474.9"/>
<polygon fill="#63b8ff" stroke="#63b8ff" points="546.7,-474.84 543.2,-464.84 539.7,-474.84 546.7,-474.84"/>
</g>
<!-- Node38&#45;&gt;Node35 -->
<g id="edge81" class="edge">
<title>Node38&#45;&gt;Node35</title>
<path fill="none" stroke="#63b8ff" d="M584.68,-505.95C613.12,-496.33 651.02,-483.49 681.29,-473.24"/>
<polygon fill="#63b8ff" stroke="#63b8ff" points="682.47,-476.53 690.82,-470.01 680.23,-469.9 682.47,-476.53"/>
</g>
<!-- Node39 -->
<g id="node39" class="node">
<title>Node39</title>
<g id="a_node39"><a xlink:href="_elastic_energy_macros_8hpp.html" target="_top" xlink:title=" ">
<polygon fill="white" stroke="#666666" points="965.2,-470 819.2,-470 819.2,-440 965.2,-440 965.2,-470"/>
<text text-anchor="start" x="827.2" y="-458" font-family="Helvetica,sans-Serif" font-size="10.00">polyfem/assembler/Elastic</text>
<text text-anchor="middle" x="892.2" y="-447" font-family="Helvetica,sans-Serif" font-size="10.00">EnergyMacros.hpp</text>
</a>
</g>
</g>
<!-- Node38&#45;&gt;Node39 -->
<g id="edge79" class="edge">
<title>Node38&#45;&gt;Node39</title>
<path fill="none" stroke="#63b8ff" d="M619.36,-506.03C675.37,-495.76 751.44,-481.81 809.03,-471.25"/>
<polygon fill="#63b8ff" stroke="#63b8ff" points="809.99,-474.63 819.19,-469.39 808.73,-467.75 809.99,-474.63"/>
</g>
<!-- Node39&#45;&gt;Node30 -->
<g id="edge80" class="edge">
<title>Node39&#45;&gt;Node30</title>
<path fill="none" stroke="#63b8ff" d="M931.71,-439.95C963.69,-428.58 1008.25,-412.74 1038.56,-401.96"/>
<polygon fill="#63b8ff" stroke="#63b8ff" points="1040,-405.17 1048.25,-398.52 1037.65,-398.57 1040,-405.17"/>
</g>
<!-- Node40&#45;&gt;Node28 -->
<g id="edge84" class="edge">
<title>Node40&#45;&gt;Node28</title>
<path fill="none" stroke="#63b8ff" d="M620.05,-573.12C623.14,-572.72 626.2,-572.34 629.2,-572 689.72,-565.1 1129.68,-575.32 1176.2,-536 1193.72,-521.2 1196.73,-493.47 1196.55,-474.86"/>
<polygon fill="#63b8ff" stroke="#63b8ff" points="1200.04,-474.5 1196.12,-464.66 1193.04,-474.8 1200.04,-474.5"/>
</g>
<!-- Node40&#45;&gt;Node38 -->
<g id="edge83" class="edge">
<title>Node40&#45;&gt;Node38</title>
<path fill="none" stroke="#63b8ff" d="M543.2,-571.8C543.2,-564.34 543.2,-554.99 543.2,-546.41"/>
<polygon fill="#63b8ff" stroke="#63b8ff" points="546.7,-546.16 543.2,-536.16 539.7,-546.16 546.7,-546.16"/>
</g>
<!-- Node41&#45;&gt;Node28 -->
<g id="edge87" class="edge">
<title>Node41&#45;&gt;Node28</title>
<path fill="none" stroke="#63b8ff" d="M848.45,-582.01C978.47,-575.99 1185.53,-562.35 1209.2,-536 1224.47,-519.01 1214.81,-491.49 1205.65,-473.56"/>
<polygon fill="#63b8ff" stroke="#63b8ff" points="1208.68,-471.79 1200.78,-464.72 1202.54,-475.17 1208.68,-471.79"/>
</g>
<!-- Node41&#45;&gt;Node38 -->
<g id="edge86" class="edge">
<title>Node41&#45;&gt;Node38</title>
<path fill="none" stroke="#63b8ff" d="M716.23,-577.37C685.76,-567.62 635.4,-551.5 596.84,-539.16"/>
<polygon fill="#63b8ff" stroke="#63b8ff" points="597.91,-535.83 587.32,-536.12 595.77,-542.5 597.91,-535.83"/>
</g>
</g>
</svg>
