<?xml version="1.0" encoding="UTF-8" standalone="no"?>
<!DOCTYPE svg PUBLIC "-//W3C//DTD SVG 1.1//EN"
 "http://www.w3.org/Graphics/SVG/1.1/DTD/svg11.dtd">
<!-- Generated by graphviz version 2.43.0 (0)
 -->
<!-- Title: src/polyfem/mesh/mesh3D/NCMesh3D.hpp Pages: 1 -->
<svg width="3281pt" height="307pt"
 viewBox="0.00 0.00 3280.50 307.00" xmlns="http://www.w3.org/2000/svg" xmlns:xlink="http://www.w3.org/1999/xlink">
<g id="graph0" class="graph" transform="scale(1 1) rotate(0) translate(4 303)">
<title>src/polyfem/mesh/mesh3D/NCMesh3D.hpp</title>
<!-- Node1 -->
<g id="node1" class="node">
<title>Node1</title>
<g id="a_node1"><a xlink:title=" ">
<polygon fill="#bfbfbf" stroke="black" points="2509.5,-268.5 2509.5,-298.5 2657.5,-298.5 2657.5,-268.5 2509.5,-268.5"/>
<text text-anchor="start" x="2517.5" y="-286.5" font-family="Helvetica,sans-Serif" font-size="10.00">src/polyfem/mesh/mesh3D</text>
<text text-anchor="middle" x="2583.5" y="-275.5" font-family="Helvetica,sans-Serif" font-size="10.00">/NCMesh3D.hpp</text>
</a>
</g>
</g>
<!-- Node2 -->
<g id="node2" class="node">
<title>Node2</title>
<g id="a_node2"><a xlink:href="_state_8cpp.html" target="_top" xlink:title=" ">
<polygon fill="none" stroke="black" points="2374,-140 2374,-159 2497,-159 2497,-140 2374,-140"/>
<text text-anchor="middle" x="2435.5" y="-147" font-family="Helvetica,sans-Serif" font-size="10.00">src/polyfem/State.cpp</text>
</a>
</g>
</g>
<!-- Node1&#45;&gt;Node2 -->
<g id="edge1" class="edge">
<title>Node1&#45;&gt;Node2</title>
<path fill="none" stroke="midnightblue" d="M2552.21,-262.64C2539.16,-253.84 2524.13,-242.99 2511.5,-232 2483.77,-207.87 2455.34,-174.67 2442.52,-159.15"/>
<polygon fill="midnightblue" stroke="midnightblue" points="2550.6,-265.78 2560.87,-268.39 2554.47,-259.94 2550.6,-265.78"/>
</g>
<!-- Node3 -->
<g id="node3" class="node">
<title>Node3</title>
<g id="a_node3"><a xlink:href="_state_8hpp.html" target="_top" xlink:title=" ">
<polygon fill="none" stroke="black" points="1271.5,-207 1271.5,-226 1395.5,-226 1395.5,-207 1271.5,-207"/>
<text text-anchor="middle" x="1333.5" y="-214" font-family="Helvetica,sans-Serif" font-size="10.00">src/polyfem/State.hpp</text>
</a>
</g>
</g>
<!-- Node1&#45;&gt;Node3 -->
<g id="edge2" class="edge">
<title>Node1&#45;&gt;Node3</title>
<path fill="none" stroke="midnightblue" d="M2498.81,-278.1C2262.9,-265.83 1602.07,-231.47 1395.81,-220.74"/>
<polygon fill="midnightblue" stroke="midnightblue" points="2498.88,-281.6 2509.05,-278.63 2499.25,-274.61 2498.88,-281.6"/>
</g>
<!-- Node21 -->
<g id="node21" class="node">
<title>Node21</title>
<g id="a_node21"><a xlink:href="_state_load_8cpp.html" target="_top" xlink:title=" ">
<polygon fill="none" stroke="black" points="1601.5,-73 1601.5,-92 1775.5,-92 1775.5,-73 1601.5,-73"/>
<text text-anchor="middle" x="1688.5" y="-80" font-family="Helvetica,sans-Serif" font-size="10.00">src/polyfem/state/StateLoad.cpp</text>
</a>
</g>
</g>
<!-- Node1&#45;&gt;Node21 -->
<g id="edge45" class="edge">
<title>Node1&#45;&gt;Node21</title>
<path fill="none" stroke="midnightblue" d="M2529.38,-265.3C2460.8,-243.25 2339.17,-203.28 2236.5,-165 2202.32,-152.26 2195.92,-142.72 2160.5,-134 1997.49,-93.87 1951.11,-118.54 1784.5,-98 1770.53,-96.28 1755.46,-94.14 1741.5,-92.03"/>
<polygon fill="midnightblue" stroke="midnightblue" points="2528.51,-268.7 2539.1,-268.42 2530.65,-262.03 2528.51,-268.7"/>
</g>
<!-- Node27 -->
<g id="node27" class="node">
<title>Node27</title>
<g id="a_node27"><a xlink:href="_u_i_state_8cpp.html" target="_top" xlink:title=" ">
<polygon fill="none" stroke="black" points="2447.5,-67.5 2447.5,-97.5 2557.5,-97.5 2557.5,-67.5 2447.5,-67.5"/>
<text text-anchor="start" x="2455.5" y="-85.5" font-family="Helvetica,sans-Serif" font-size="10.00">src/polyfem/viewer</text>
<text text-anchor="middle" x="2502.5" y="-74.5" font-family="Helvetica,sans-Serif" font-size="10.00">/UIState.cpp</text>
</a>
</g>
</g>
<!-- Node1&#45;&gt;Node27 -->
<g id="edge46" class="edge">
<title>Node1&#45;&gt;Node27</title>
<path fill="none" stroke="midnightblue" d="M2563.66,-260.62C2556.81,-252.16 2549.58,-242.09 2544.5,-232 2521.24,-185.82 2509.18,-124.87 2504.65,-97.66"/>
<polygon fill="midnightblue" stroke="midnightblue" points="2561.17,-263.1 2570.29,-268.48 2566.52,-258.58 2561.17,-263.1"/>
</g>
<!-- Node28 -->
<g id="node28" class="node">
<title>Node28</title>
<g id="a_node28"><a xlink:href="_f_e_basis3d_8hpp.html" target="_top" xlink:title=" ">
<polygon fill="none" stroke="black" points="2553,-207 2553,-226 2730,-226 2730,-207 2553,-207"/>
<text text-anchor="middle" x="2641.5" y="-214" font-family="Helvetica,sans-Serif" font-size="10.00">src/polyfem/basis/FEBasis3d.hpp</text>
</a>
</g>
</g>
<!-- Node1&#45;&gt;Node28 -->
<g id="edge37" class="edge">
<title>Node1&#45;&gt;Node28</title>
<path fill="none" stroke="midnightblue" d="M2602.99,-260.66C2613.51,-248.86 2625.91,-234.97 2633.74,-226.19"/>
<polygon fill="midnightblue" stroke="midnightblue" points="2600.13,-258.6 2596.09,-268.4 2605.35,-263.26 2600.13,-258.6"/>
</g>
<!-- Node32 -->
<g id="node32" class="node">
<title>Node32</title>
<g id="a_node32"><a xlink:href="_mesh_8cpp.html" target="_top" xlink:title=" ">
<polygon fill="none" stroke="black" points="2748.5,-207 2748.5,-226 2902.5,-226 2902.5,-207 2748.5,-207"/>
<text text-anchor="middle" x="2825.5" y="-214" font-family="Helvetica,sans-Serif" font-size="10.00">src/polyfem/mesh/Mesh.cpp</text>
</a>
</g>
</g>
<!-- Node1&#45;&gt;Node32 -->
<g id="edge42" class="edge">
<title>Node1&#45;&gt;Node32</title>
<path fill="none" stroke="midnightblue" d="M2645.56,-265.83C2692.92,-253.11 2756.23,-236.11 2793.75,-226.03"/>
<polygon fill="midnightblue" stroke="midnightblue" points="2644.46,-262.5 2635.71,-268.48 2646.28,-269.26 2644.46,-262.5"/>
</g>
<!-- Node33 -->
<g id="node33" class="node">
<title>Node33</title>
<g id="a_node33"><a xlink:href="_mesh_nodes_8cpp.html" target="_top" xlink:title=" ">
<polygon fill="none" stroke="black" points="2921,-207 2921,-226 3106,-226 3106,-207 2921,-207"/>
<text text-anchor="middle" x="3013.5" y="-214" font-family="Helvetica,sans-Serif" font-size="10.00">src/polyfem/mesh/MeshNodes.cpp</text>
</a>
</g>
</g>
<!-- Node1&#45;&gt;Node33 -->
<g id="edge43" class="edge">
<title>Node1&#45;&gt;Node33</title>
<path fill="none" stroke="midnightblue" d="M2667.85,-269.75C2753.38,-256.82 2883.34,-237.18 2957.12,-226.02"/>
<polygon fill="midnightblue" stroke="midnightblue" points="2667.27,-266.3 2657.91,-271.25 2668.32,-273.22 2667.27,-266.3"/>
</g>
<!-- Node34 -->
<g id="node34" class="node">
<title>Node34</title>
<g id="a_node34"><a xlink:href="_n_c_mesh3_d_8cpp.html" target="_top" xlink:title=" ">
<polygon fill="none" stroke="black" points="3124.5,-201.5 3124.5,-231.5 3272.5,-231.5 3272.5,-201.5 3124.5,-201.5"/>
<text text-anchor="start" x="3132.5" y="-219.5" font-family="Helvetica,sans-Serif" font-size="10.00">src/polyfem/mesh/mesh3D</text>
<text text-anchor="middle" x="3198.5" y="-208.5" font-family="Helvetica,sans-Serif" font-size="10.00">/NCMesh3D.cpp</text>
</a>
</g>
</g>
<!-- Node1&#45;&gt;Node34 -->
<g id="edge44" class="edge">
<title>Node1&#45;&gt;Node34</title>
<path fill="none" stroke="midnightblue" d="M2667.96,-276.54C2773.08,-268.64 2958,-253.2 3115.5,-232 3118.4,-231.61 3121.35,-231.19 3124.33,-230.75"/>
<polygon fill="midnightblue" stroke="midnightblue" points="2667.44,-273.06 2657.72,-277.3 2667.96,-280.05 2667.44,-273.06"/>
</g>
<!-- Node3&#45;&gt;Node2 -->
<g id="edge3" class="edge">
<title>Node3&#45;&gt;Node2</title>
<path fill="none" stroke="midnightblue" d="M1405.92,-215.74C1574.65,-215.47 2006.82,-210.02 2364.5,-165 2375.86,-163.57 2388.11,-161.32 2399.19,-159.02"/>
<polygon fill="midnightblue" stroke="midnightblue" points="1405.67,-212.24 1395.67,-215.75 1405.67,-219.24 1405.67,-212.24"/>
</g>
<!-- Node4 -->
<g id="node4" class="node">
<title>Node4</title>
<g id="a_node4"><a xlink:href="_generic_problem_8cpp.html" target="_top" xlink:title=" ">
<polygon fill="none" stroke="black" points="1549.5,-134.5 1549.5,-164.5 1677.5,-164.5 1677.5,-134.5 1549.5,-134.5"/>
<text text-anchor="start" x="1557.5" y="-152.5" font-family="Helvetica,sans-Serif" font-size="10.00">src/polyfem/assembler</text>
<text text-anchor="middle" x="1613.5" y="-141.5" font-family="Helvetica,sans-Serif" font-size="10.00">/GenericProblem.cpp</text>
</a>
</g>
</g>
<!-- Node3&#45;&gt;Node4 -->
<g id="edge4" class="edge">
<title>Node3&#45;&gt;Node4</title>
<path fill="none" stroke="midnightblue" d="M1380.38,-204.62C1427.76,-193.62 1501.18,-176.58 1552.94,-164.56"/>
<polygon fill="midnightblue" stroke="midnightblue" points="1379.34,-201.26 1370.39,-206.94 1380.93,-208.08 1379.34,-201.26"/>
</g>
<!-- Node5 -->
<g id="node5" class="node">
<title>Node5</title>
<g id="a_node5"><a xlink:href="main_8cpp.html" target="_top" xlink:title=" ">
<polygon fill="none" stroke="black" points="2156.5,-73 2156.5,-92 2278.5,-92 2278.5,-73 2156.5,-73"/>
<text text-anchor="middle" x="2217.5" y="-80" font-family="Helvetica,sans-Serif" font-size="10.00">src/polyfem/main.cpp</text>
</a>
</g>
</g>
<!-- Node3&#45;&gt;Node5 -->
<g id="edge5" class="edge">
<title>Node3&#45;&gt;Node5</title>
<path fill="none" stroke="midnightblue" d="M1405.82,-214.65C1595.21,-211.94 2095.58,-201.38 2160.5,-165 2190.02,-148.46 2207.75,-109.47 2214.44,-92.11"/>
<polygon fill="midnightblue" stroke="midnightblue" points="1405.63,-211.16 1395.68,-214.8 1405.73,-218.16 1405.63,-211.16"/>
</g>
<!-- Node6 -->
<g id="node6" class="node">
<title>Node6</title>
<g id="a_node6"><a xlink:href="_elastic_problem_8cpp.html" target="_top" xlink:title=" ">
<polygon fill="none" stroke="black" points="1897.5,-134.5 1897.5,-164.5 2015.5,-164.5 2015.5,-134.5 1897.5,-134.5"/>
<text text-anchor="start" x="1905.5" y="-152.5" font-family="Helvetica,sans-Serif" font-size="10.00">src/polyfem/problem</text>
<text text-anchor="middle" x="1956.5" y="-141.5" font-family="Helvetica,sans-Serif" font-size="10.00">/ElasticProblem.cpp</text>
</a>
</g>
</g>
<!-- Node3&#45;&gt;Node6 -->
<g id="edge6" class="edge">
<title>Node3&#45;&gt;Node6</title>
<path fill="none" stroke="midnightblue" d="M1406.09,-211.67C1512.42,-205.42 1716.54,-191.06 1888.5,-165 1891.36,-164.57 1894.29,-164.09 1897.24,-163.57"/>
<polygon fill="midnightblue" stroke="midnightblue" points="1405.58,-208.19 1395.8,-212.26 1405.99,-215.18 1405.58,-208.19"/>
</g>
<!-- Node7 -->
<g id="node7" class="node">
<title>Node7</title>
<g id="a_node7"><a xlink:href="_kernel_problem_8cpp.html" target="_top" xlink:title=" ">
<polygon fill="none" stroke="black" points="2033.5,-134.5 2033.5,-164.5 2151.5,-164.5 2151.5,-134.5 2033.5,-134.5"/>
<text text-anchor="start" x="2041.5" y="-152.5" font-family="Helvetica,sans-Serif" font-size="10.00">src/polyfem/problem</text>
<text text-anchor="middle" x="2092.5" y="-141.5" font-family="Helvetica,sans-Serif" font-size="10.00">/KernelProblem.cpp</text>
</a>
</g>
</g>
<!-- Node3&#45;&gt;Node7 -->
<g id="edge7" class="edge">
<title>Node3&#45;&gt;Node7</title>
<path fill="none" stroke="midnightblue" d="M1406.05,-213.47C1532.31,-209.21 1800.38,-196.93 2024.5,-165 2027.37,-164.59 2030.3,-164.13 2033.25,-163.63"/>
<polygon fill="midnightblue" stroke="midnightblue" points="1405.63,-209.98 1395.75,-213.81 1405.86,-216.98 1405.63,-209.98"/>
</g>
<!-- Node8 -->
<g id="node8" class="node">
<title>Node8</title>
<g id="a_node8"><a xlink:href="_point_based_problem_8cpp.html" target="_top" xlink:title=" ">
<polygon fill="none" stroke="black" points="0,-134.5 0,-164.5 135,-164.5 135,-134.5 0,-134.5"/>
<text text-anchor="start" x="8" y="-152.5" font-family="Helvetica,sans-Serif" font-size="10.00">src/polyfem/problem</text>
<text text-anchor="middle" x="67.5" y="-141.5" font-family="Helvetica,sans-Serif" font-size="10.00">/PointBasedProblem.cpp</text>
</a>
</g>
</g>
<!-- Node3&#45;&gt;Node8 -->
<g id="edge8" class="edge">
<title>Node3&#45;&gt;Node8</title>
<path fill="none" stroke="midnightblue" d="M1261.17,-215.74C1075.79,-215.63 568.78,-210.81 149.5,-165 144.9,-164.5 140.17,-163.89 135.41,-163.22"/>
<polygon fill="midnightblue" stroke="midnightblue" points="1261.34,-219.24 1271.34,-215.74 1261.34,-212.24 1261.34,-219.24"/>
</g>
<!-- Node9 -->
<g id="node9" class="node">
<title>Node9</title>
<g id="a_node9"><a xlink:href="_a_l_n_l_problem_8hpp.html" target="_top" xlink:title=" ">
<polygon fill="none" stroke="black" points="230,-67.5 230,-97.5 337,-97.5 337,-67.5 230,-67.5"/>
<text text-anchor="start" x="238" y="-85.5" font-family="Helvetica,sans-Serif" font-size="10.00">src/polyfem/solver</text>
<text text-anchor="middle" x="283.5" y="-74.5" font-family="Helvetica,sans-Serif" font-size="10.00">/ALNLProblem.hpp</text>
</a>
</g>
</g>
<!-- Node3&#45;&gt;Node9 -->
<g id="edge9" class="edge">
<title>Node3&#45;&gt;Node9</title>
<path fill="none" stroke="midnightblue" d="M1260.96,-215.29C1046.55,-214.2 425.73,-207.36 345.5,-165 317.67,-150.31 298.69,-116.97 289.62,-97.8"/>
<polygon fill="midnightblue" stroke="midnightblue" points="1261.14,-218.79 1271.16,-215.34 1261.18,-211.79 1261.14,-218.79"/>
</g>
<!-- Node11 -->
<g id="node11" class="node">
<title>Node11</title>
<g id="a_node11"><a xlink:href="_state_output_8cpp.html" target="_top" xlink:title=" ">
<polygon fill="none" stroke="black" points="90.5,-6 90.5,-25 274.5,-25 274.5,-6 90.5,-6"/>
<text text-anchor="middle" x="182.5" y="-13" font-family="Helvetica,sans-Serif" font-size="10.00">src/polyfem/state/StateOutput.cpp</text>
</a>
</g>
</g>
<!-- Node3&#45;&gt;Node11 -->
<g id="edge27" class="edge">
<title>Node3&#45;&gt;Node11</title>
<path fill="none" stroke="midnightblue" d="M1261.19,-213.93C1042.88,-208.92 399.89,-192 309.5,-165 253.19,-148.18 228.63,-146.54 195.5,-98 180.07,-75.39 180.43,-41.15 181.61,-25.22"/>
<polygon fill="midnightblue" stroke="midnightblue" points="1261.18,-217.43 1271.26,-214.16 1261.34,-210.43 1261.18,-217.43"/>
</g>
<!-- Node12 -->
<g id="node12" class="node">
<title>Node12</title>
<g id="a_node12"><a xlink:href="_state_solve_8cpp.html" target="_top" xlink:title=" ">
<polygon fill="none" stroke="black" points="439.5,-6 439.5,-25 617.5,-25 617.5,-6 439.5,-6"/>
<text text-anchor="middle" x="528.5" y="-13" font-family="Helvetica,sans-Serif" font-size="10.00">src/polyfem/state/StateSolve.cpp</text>
</a>
</g>
</g>
<!-- Node3&#45;&gt;Node12 -->
<g id="edge29" class="edge">
<title>Node3&#45;&gt;Node12</title>
<path fill="none" stroke="midnightblue" d="M1261.09,-215.99C1076.42,-216.53 598.84,-213.2 547.5,-165 507.52,-127.46 520.54,-50.92 526.35,-25.17"/>
<polygon fill="midnightblue" stroke="midnightblue" points="1261.25,-219.49 1271.24,-215.96 1261.23,-212.49 1261.25,-219.49"/>
</g>
<!-- Node13 -->
<g id="node13" class="node">
<title>Node13</title>
<g id="a_node13"><a xlink:href="_n_l_problem_8hpp.html" target="_top" xlink:title=" ">
<polygon fill="none" stroke="black" points="355,-134.5 355,-164.5 462,-164.5 462,-134.5 355,-134.5"/>
<text text-anchor="start" x="363" y="-152.5" font-family="Helvetica,sans-Serif" font-size="10.00">src/polyfem/solver</text>
<text text-anchor="middle" x="408.5" y="-141.5" font-family="Helvetica,sans-Serif" font-size="10.00">/NLProblem.hpp</text>
</a>
</g>
</g>
<!-- Node3&#45;&gt;Node13 -->
<g id="edge13" class="edge">
<title>Node3&#45;&gt;Node13</title>
<path fill="none" stroke="midnightblue" d="M1261.09,-212.85C1118.11,-207.2 789.55,-192.25 514.5,-165 497.4,-163.31 478.82,-160.94 462.06,-158.62"/>
<polygon fill="midnightblue" stroke="midnightblue" points="1261.34,-216.36 1271.47,-213.25 1261.62,-209.36 1261.34,-216.36"/>
</g>
<!-- Node15 -->
<g id="node15" class="node">
<title>Node15</title>
<g id="a_node15"><a xlink:href="_navier_stokes_solver_8hpp.html" target="_top" xlink:title=" ">
<polygon fill="none" stroke="black" points="754,-134.5 754,-164.5 889,-164.5 889,-134.5 754,-134.5"/>
<text text-anchor="start" x="762" y="-152.5" font-family="Helvetica,sans-Serif" font-size="10.00">src/polyfem/solver</text>
<text text-anchor="middle" x="821.5" y="-141.5" font-family="Helvetica,sans-Serif" font-size="10.00">/NavierStokesSolver.hpp</text>
</a>
</g>
</g>
<!-- Node3&#45;&gt;Node15 -->
<g id="edge18" class="edge">
<title>Node3&#45;&gt;Node15</title>
<path fill="none" stroke="midnightblue" d="M1261.22,-208.76C1174.56,-200.31 1025.02,-184.52 897.5,-165 894.71,-164.57 891.87,-164.12 889,-163.64"/>
<polygon fill="midnightblue" stroke="midnightblue" points="1260.92,-212.25 1271.22,-209.73 1261.6,-205.28 1260.92,-212.25"/>
</g>
<!-- Node17 -->
<g id="node17" class="node">
<title>Node17</title>
<g id="a_node17"><a xlink:href="_transient_navier_stokes_solver_8hpp.html" target="_top" xlink:title=" ">
<polygon fill="none" stroke="black" points="557,-134.5 557,-164.5 736,-164.5 736,-134.5 557,-134.5"/>
<text text-anchor="start" x="565" y="-152.5" font-family="Helvetica,sans-Serif" font-size="10.00">src/polyfem/solver</text>
<text text-anchor="middle" x="646.5" y="-141.5" font-family="Helvetica,sans-Serif" font-size="10.00">/TransientNavierStokesSolver.hpp</text>
</a>
</g>
</g>
<!-- Node3&#45;&gt;Node17 -->
<g id="edge21" class="edge">
<title>Node3&#45;&gt;Node17</title>
<path fill="none" stroke="midnightblue" d="M1261.38,-210.75C1150.2,-203.1 930.35,-186.7 744.5,-165 741.77,-164.68 738.99,-164.35 736.19,-164"/>
<polygon fill="midnightblue" stroke="midnightblue" points="1261.25,-214.25 1271.47,-211.44 1261.73,-207.26 1261.25,-214.25"/>
</g>
<!-- Node19 -->
<g id="node19" class="node">
<title>Node19</title>
<g id="a_node19"><a xlink:href="_state_init_8cpp.html" target="_top" xlink:title=" ">
<polygon fill="none" stroke="black" points="907,-140 907,-159 1074,-159 1074,-140 907,-140"/>
<text text-anchor="middle" x="990.5" y="-147" font-family="Helvetica,sans-Serif" font-size="10.00">src/polyfem/state/StateInit.cpp</text>
</a>
</g>
</g>
<!-- Node3&#45;&gt;Node19 -->
<g id="edge24" class="edge">
<title>Node3&#45;&gt;Node19</title>
<path fill="none" stroke="midnightblue" d="M1278.29,-205.04C1210.83,-192.25 1097.98,-170.87 1035.52,-159.03"/>
<polygon fill="midnightblue" stroke="midnightblue" points="1277.83,-208.51 1288.31,-206.94 1279.13,-201.63 1277.83,-208.51"/>
</g>
<!-- Node20 -->
<g id="node20" class="node">
<title>Node20</title>
<g id="a_node20"><a xlink:href="_state_interpolation_8cpp.html" target="_top" xlink:title=" ">
<polygon fill="none" stroke="black" points="1092,-140 1092,-159 1305,-159 1305,-140 1092,-140"/>
<text text-anchor="middle" x="1198.5" y="-147" font-family="Helvetica,sans-Serif" font-size="10.00">src/polyfem/state/StateInterpolation.cpp</text>
</a>
</g>
</g>
<!-- Node3&#45;&gt;Node20 -->
<g id="edge25" class="edge">
<title>Node3&#45;&gt;Node20</title>
<path fill="none" stroke="midnightblue" d="M1306.38,-202.44C1279.64,-189.57 1239.53,-170.26 1216.5,-159.17"/>
<polygon fill="midnightblue" stroke="midnightblue" points="1305.04,-205.68 1315.57,-206.87 1308.08,-199.38 1305.04,-205.68"/>
</g>
<!-- Node3&#45;&gt;Node21 -->
<g id="edge26" class="edge">
<title>Node3&#45;&gt;Node21</title>
<path fill="none" stroke="midnightblue" d="M1332.31,-196.59C1332.24,-177.89 1335.35,-149.83 1352.5,-134 1387.77,-101.44 1514,-89.87 1601.27,-85.76"/>
<polygon fill="midnightblue" stroke="midnightblue" points="1328.82,-196.97 1332.66,-206.84 1335.81,-196.72 1328.82,-196.97"/>
</g>
<!-- Node22 -->
<g id="node22" class="node">
<title>Node22</title>
<g id="a_node22"><a xlink:href="_state_pref_8cpp.html" target="_top" xlink:title=" ">
<polygon fill="none" stroke="black" points="1361.5,-140 1361.5,-159 1531.5,-159 1531.5,-140 1361.5,-140"/>
<text text-anchor="middle" x="1446.5" y="-147" font-family="Helvetica,sans-Serif" font-size="10.00">src/polyfem/state/StatePref.cpp</text>
</a>
</g>
</g>
<!-- Node3&#45;&gt;Node22 -->
<g id="edge28" class="edge">
<title>Node3&#45;&gt;Node22</title>
<path fill="none" stroke="midnightblue" d="M1357.64,-201.62C1380.03,-188.74 1412.64,-169.98 1431.5,-159.13"/>
<polygon fill="midnightblue" stroke="midnightblue" points="1355.66,-198.71 1348.74,-206.73 1359.15,-204.78 1355.66,-198.71"/>
</g>
<!-- Node23 -->
<g id="node23" class="node">
<title>Node23</title>
<g id="a_node23"><a xlink:href="_f_e_bio_reader_8hpp.html" target="_top" xlink:title=" ">
<polygon fill="none" stroke="black" points="1695.5,-140 1695.5,-159 1879.5,-159 1879.5,-140 1695.5,-140"/>
<text text-anchor="middle" x="1787.5" y="-147" font-family="Helvetica,sans-Serif" font-size="10.00">src/polyfem/utils/FEBioReader.hpp</text>
</a>
</g>
</g>
<!-- Node3&#45;&gt;Node23 -->
<g id="edge30" class="edge">
<title>Node3&#45;&gt;Node23</title>
<path fill="none" stroke="midnightblue" d="M1403.34,-205.52C1474.56,-195.34 1588.23,-179.08 1686.5,-165 1700,-163.06 1714.52,-160.98 1728.22,-159.02"/>
<polygon fill="midnightblue" stroke="midnightblue" points="1402.55,-202.1 1393.15,-206.98 1403.54,-209.03 1402.55,-202.1"/>
</g>
<!-- Node25 -->
<g id="node25" class="node">
<title>Node25</title>
<g id="a_node25"><a xlink:href="_u_i_state_8hpp.html" target="_top" xlink:title=" ">
<polygon fill="none" stroke="black" points="2245.5,-134.5 2245.5,-164.5 2355.5,-164.5 2355.5,-134.5 2245.5,-134.5"/>
<text text-anchor="start" x="2253.5" y="-152.5" font-family="Helvetica,sans-Serif" font-size="10.00">src/polyfem/viewer</text>
<text text-anchor="middle" x="2300.5" y="-141.5" font-family="Helvetica,sans-Serif" font-size="10.00">/UIState.hpp</text>
</a>
</g>
</g>
<!-- Node3&#45;&gt;Node25 -->
<g id="edge33" class="edge">
<title>Node3&#45;&gt;Node25</title>
<path fill="none" stroke="midnightblue" d="M1405.79,-215.13C1558.8,-213.53 1926.4,-205.4 2231.5,-165 2235.99,-164.41 2240.62,-163.68 2245.26,-162.87"/>
<polygon fill="midnightblue" stroke="midnightblue" points="1405.55,-211.63 1395.59,-215.23 1405.62,-218.63 1405.55,-211.63"/>
</g>
<!-- Node10 -->
<g id="node10" class="node">
<title>Node10</title>
<g id="a_node10"><a xlink:href="_a_l_n_l_problem_8cpp.html" target="_top" xlink:title=" ">
<polygon fill="none" stroke="black" points="293,-0.5 293,-30.5 400,-30.5 400,-0.5 293,-0.5"/>
<text text-anchor="start" x="301" y="-18.5" font-family="Helvetica,sans-Serif" font-size="10.00">src/polyfem/solver</text>
<text text-anchor="middle" x="346.5" y="-7.5" font-family="Helvetica,sans-Serif" font-size="10.00">/ALNLProblem.cpp</text>
</a>
</g>
</g>
<!-- Node9&#45;&gt;Node10 -->
<g id="edge10" class="edge">
<title>Node9&#45;&gt;Node10</title>
<path fill="none" stroke="midnightblue" d="M304.31,-60.02C313.7,-50.34 324.52,-39.17 332.86,-30.58"/>
<polygon fill="midnightblue" stroke="midnightblue" points="301.62,-57.78 297.17,-67.4 306.64,-62.65 301.62,-57.78"/>
</g>
<!-- Node9&#45;&gt;Node11 -->
<g id="edge11" class="edge">
<title>Node9&#45;&gt;Node11</title>
<path fill="none" stroke="midnightblue" d="M253.16,-61.97C234.01,-49.65 210.23,-34.35 195.72,-25.01"/>
<polygon fill="midnightblue" stroke="midnightblue" points="251.28,-64.93 261.58,-67.4 255.07,-59.04 251.28,-64.93"/>
</g>
<!-- Node9&#45;&gt;Node12 -->
<g id="edge12" class="edge">
<title>Node9&#45;&gt;Node12</title>
<path fill="none" stroke="midnightblue" d="M346.03,-64.91C394.01,-52.18 458.29,-35.13 496.35,-25.03"/>
<polygon fill="midnightblue" stroke="midnightblue" points="345.13,-61.53 336.36,-67.48 346.92,-68.29 345.13,-61.53"/>
</g>
<!-- Node13&#45;&gt;Node9 -->
<g id="edge14" class="edge">
<title>Node13&#45;&gt;Node9</title>
<path fill="none" stroke="midnightblue" d="M372.37,-129.71C352.66,-119.46 328.66,-106.98 310.57,-97.58"/>
<polygon fill="midnightblue" stroke="midnightblue" points="370.89,-132.89 381.38,-134.4 374.12,-126.68 370.89,-132.89"/>
</g>
<!-- Node13&#45;&gt;Node11 -->
<g id="edge16" class="edge">
<title>Node13&#45;&gt;Node11</title>
<path fill="none" stroke="midnightblue" d="M344.6,-144.85C304.95,-139.56 255.14,-127.09 220.5,-98 197.31,-78.52 187.44,-41.76 184.03,-25.1"/>
<polygon fill="midnightblue" stroke="midnightblue" points="344.36,-148.34 354.71,-146.07 345.2,-141.39 344.36,-148.34"/>
</g>
<!-- Node13&#45;&gt;Node12 -->
<g id="edge17" class="edge">
<title>Node13&#45;&gt;Node12</title>
<path fill="none" stroke="midnightblue" d="M436.56,-128.25C447.71,-119.55 460.29,-108.9 470.5,-98 493.06,-73.92 514.08,-40.69 523.42,-25.16"/>
<polygon fill="midnightblue" stroke="midnightblue" points="434.21,-125.64 428.37,-134.49 438.45,-131.21 434.21,-125.64"/>
</g>
<!-- Node14 -->
<g id="node14" class="node">
<title>Node14</title>
<g id="a_node14"><a xlink:href="_n_l_problem_8cpp.html" target="_top" xlink:title=" ">
<polygon fill="none" stroke="black" points="355,-67.5 355,-97.5 462,-97.5 462,-67.5 355,-67.5"/>
<text text-anchor="start" x="363" y="-85.5" font-family="Helvetica,sans-Serif" font-size="10.00">src/polyfem/solver</text>
<text text-anchor="middle" x="408.5" y="-74.5" font-family="Helvetica,sans-Serif" font-size="10.00">/NLProblem.cpp</text>
</a>
</g>
</g>
<!-- Node13&#45;&gt;Node14 -->
<g id="edge15" class="edge">
<title>Node13&#45;&gt;Node14</title>
<path fill="none" stroke="midnightblue" d="M408.5,-124.11C408.5,-115.15 408.5,-105.32 408.5,-97.58"/>
<polygon fill="midnightblue" stroke="midnightblue" points="405,-124.4 408.5,-134.4 412,-124.4 405,-124.4"/>
</g>
<!-- Node15&#45;&gt;Node12 -->
<g id="edge20" class="edge">
<title>Node15&#45;&gt;Node12</title>
<path fill="none" stroke="midnightblue" d="M879.86,-130.93C918.82,-116.28 958.96,-93.56 935.5,-67 914.81,-43.59 731.21,-28.54 617.79,-21.4"/>
<polygon fill="midnightblue" stroke="midnightblue" points="878.24,-127.79 870.02,-134.48 880.61,-134.38 878.24,-127.79"/>
</g>
<!-- Node16 -->
<g id="node16" class="node">
<title>Node16</title>
<g id="a_node16"><a xlink:href="_navier_stokes_solver_8cpp.html" target="_top" xlink:title=" ">
<polygon fill="none" stroke="black" points="792.5,-67.5 792.5,-97.5 926.5,-97.5 926.5,-67.5 792.5,-67.5"/>
<text text-anchor="start" x="800.5" y="-85.5" font-family="Helvetica,sans-Serif" font-size="10.00">src/polyfem/solver</text>
<text text-anchor="middle" x="859.5" y="-74.5" font-family="Helvetica,sans-Serif" font-size="10.00">/NavierStokesSolver.cpp</text>
</a>
</g>
</g>
<!-- Node15&#45;&gt;Node16 -->
<g id="edge19" class="edge">
<title>Node15&#45;&gt;Node16</title>
<path fill="none" stroke="midnightblue" d="M834.9,-125.58C840.36,-116.24 846.49,-105.75 851.27,-97.58"/>
<polygon fill="midnightblue" stroke="midnightblue" points="831.77,-124 829.75,-134.4 837.81,-127.53 831.77,-124"/>
</g>
<!-- Node17&#45;&gt;Node12 -->
<g id="edge23" class="edge">
<title>Node17&#45;&gt;Node12</title>
<path fill="none" stroke="midnightblue" d="M618.87,-128.22C607.9,-119.53 595.53,-108.87 585.5,-98 563.26,-73.88 542.64,-40.67 533.48,-25.15"/>
<polygon fill="midnightblue" stroke="midnightblue" points="616.88,-131.11 626.93,-134.46 621.17,-125.57 616.88,-131.11"/>
</g>
<!-- Node18 -->
<g id="node18" class="node">
<title>Node18</title>
<g id="a_node18"><a xlink:href="_transient_navier_stokes_solver_8cpp.html" target="_top" xlink:title=" ">
<polygon fill="none" stroke="black" points="595,-67.5 595,-97.5 774,-97.5 774,-67.5 595,-67.5"/>
<text text-anchor="start" x="603" y="-85.5" font-family="Helvetica,sans-Serif" font-size="10.00">src/polyfem/solver</text>
<text text-anchor="middle" x="684.5" y="-74.5" font-family="Helvetica,sans-Serif" font-size="10.00">/TransientNavierStokesSolver.cpp</text>
</a>
</g>
</g>
<!-- Node17&#45;&gt;Node18 -->
<g id="edge22" class="edge">
<title>Node17&#45;&gt;Node18</title>
<path fill="none" stroke="midnightblue" d="M659.9,-125.58C665.36,-116.24 671.49,-105.75 676.27,-97.58"/>
<polygon fill="midnightblue" stroke="midnightblue" points="656.77,-124 654.75,-134.4 662.81,-127.53 656.77,-124"/>
</g>
<!-- Node23&#45;&gt;Node21 -->
<g id="edge31" class="edge">
<title>Node23&#45;&gt;Node21</title>
<path fill="none" stroke="midnightblue" d="M1765.56,-134.09C1745.97,-121.24 1717.94,-102.83 1701.64,-92.13"/>
<polygon fill="midnightblue" stroke="midnightblue" points="1763.87,-137.17 1774.15,-139.73 1767.71,-131.32 1763.87,-137.17"/>
</g>
<!-- Node24 -->
<g id="node24" class="node">
<title>Node24</title>
<g id="a_node24"><a xlink:href="_f_e_bio_reader_8cpp.html" target="_top" xlink:title=" ">
<polygon fill="none" stroke="black" points="1794,-73 1794,-92 1977,-92 1977,-73 1794,-73"/>
<text text-anchor="middle" x="1885.5" y="-80" font-family="Helvetica,sans-Serif" font-size="10.00">src/polyfem/utils/FEBioReader.cpp</text>
</a>
</g>
</g>
<!-- Node23&#45;&gt;Node24 -->
<g id="edge32" class="edge">
<title>Node23&#45;&gt;Node24</title>
<path fill="none" stroke="midnightblue" d="M1809.22,-134.09C1828.61,-121.24 1856.36,-102.83 1872.49,-92.13"/>
<polygon fill="midnightblue" stroke="midnightblue" points="1807.12,-131.29 1800.72,-139.73 1810.98,-137.12 1807.12,-131.29"/>
</g>
<!-- Node25&#45;&gt;Node5 -->
<g id="edge34" class="edge">
<title>Node25&#45;&gt;Node5</title>
<path fill="none" stroke="midnightblue" d="M2274.33,-128.01C2258.92,-115.94 2240.24,-101.3 2228.6,-92.19"/>
<polygon fill="midnightblue" stroke="midnightblue" points="2272.46,-130.99 2282.49,-134.4 2276.78,-125.47 2272.46,-130.99"/>
</g>
<!-- Node26 -->
<g id="node26" class="node">
<title>Node26</title>
<g id="a_node26"><a xlink:href="_u_i_menu_8cpp.html" target="_top" xlink:title=" ">
<polygon fill="none" stroke="black" points="2296.5,-67.5 2296.5,-97.5 2406.5,-97.5 2406.5,-67.5 2296.5,-67.5"/>
<text text-anchor="start" x="2304.5" y="-85.5" font-family="Helvetica,sans-Serif" font-size="10.00">src/polyfem/viewer</text>
<text text-anchor="middle" x="2351.5" y="-74.5" font-family="Helvetica,sans-Serif" font-size="10.00">/UIMenu.cpp</text>
</a>
</g>
</g>
<!-- Node25&#45;&gt;Node26 -->
<g id="edge35" class="edge">
<title>Node25&#45;&gt;Node26</title>
<path fill="none" stroke="midnightblue" d="M2317.8,-126.45C2325.29,-116.9 2333.84,-106 2340.46,-97.58"/>
<polygon fill="midnightblue" stroke="midnightblue" points="2314.99,-124.37 2311.57,-134.4 2320.49,-128.69 2314.99,-124.37"/>
</g>
<!-- Node25&#45;&gt;Node27 -->
<g id="edge36" class="edge">
<title>Node25&#45;&gt;Node27</title>
<path fill="none" stroke="midnightblue" d="M2354.18,-131.23C2386.85,-120.71 2428.07,-107.45 2458.75,-97.58"/>
<polygon fill="midnightblue" stroke="midnightblue" points="2352.78,-128 2344.33,-134.4 2354.92,-134.66 2352.78,-128"/>
</g>
<!-- Node28&#45;&gt;Node2 -->
<g id="edge38" class="edge">
<title>Node28&#45;&gt;Node2</title>
<path fill="none" stroke="midnightblue" d="M2604.57,-203.85C2563.77,-190.97 2499.03,-170.55 2462.64,-159.06"/>
<polygon fill="midnightblue" stroke="midnightblue" points="2603.56,-207.2 2614.14,-206.87 2605.66,-200.52 2603.56,-207.2"/>
</g>
<!-- Node29 -->
<g id="node29" class="node">
<title>Node29</title>
<g id="a_node29"><a xlink:href="_f_e_basis3d_8cpp.html" target="_top" xlink:title=" ">
<polygon fill="none" stroke="black" points="2707.5,-140 2707.5,-159 2883.5,-159 2883.5,-140 2707.5,-140"/>
<text text-anchor="middle" x="2795.5" y="-147" font-family="Helvetica,sans-Serif" font-size="10.00">src/polyfem/basis/FEBasis3d.cpp</text>
</a>
</g>
</g>
<!-- Node28&#45;&gt;Node29 -->
<g id="edge39" class="edge">
<title>Node28&#45;&gt;Node29</title>
<path fill="none" stroke="midnightblue" d="M2671.24,-202.95C2701.73,-190.08 2748.34,-170.4 2774.97,-159.17"/>
<polygon fill="midnightblue" stroke="midnightblue" points="2669.8,-199.76 2661.95,-206.87 2672.52,-206.2 2669.8,-199.76"/>
</g>
<!-- Node30 -->
<g id="node30" class="node">
<title>Node30</title>
<g id="a_node30"><a xlink:href="_polygonal_basis3d_8cpp.html" target="_top" xlink:title=" ">
<polygon fill="none" stroke="black" points="2901.5,-134.5 2901.5,-164.5 3055.5,-164.5 3055.5,-134.5 2901.5,-134.5"/>
<text text-anchor="start" x="2909.5" y="-152.5" font-family="Helvetica,sans-Serif" font-size="10.00">src/polyfem/basis/Polygonal</text>
<text text-anchor="middle" x="2978.5" y="-141.5" font-family="Helvetica,sans-Serif" font-size="10.00">Basis3d.cpp</text>
</a>
</g>
</g>
<!-- Node28&#45;&gt;Node30 -->
<g id="edge40" class="edge">
<title>Node28&#45;&gt;Node30</title>
<path fill="none" stroke="midnightblue" d="M2695.79,-205.03C2752.73,-194.05 2842.53,-176.73 2905.61,-164.56"/>
<polygon fill="midnightblue" stroke="midnightblue" points="2695.06,-201.6 2685.9,-206.94 2696.39,-208.48 2695.06,-201.6"/>
</g>
<!-- Node31 -->
<g id="node31" class="node">
<title>Node31</title>
<g id="a_node31"><a xlink:href="_spline_basis3d_8cpp.html" target="_top" xlink:title=" ">
<polygon fill="none" stroke="black" points="2553.5,-134.5 2553.5,-164.5 2689.5,-164.5 2689.5,-134.5 2553.5,-134.5"/>
<text text-anchor="start" x="2561.5" y="-152.5" font-family="Helvetica,sans-Serif" font-size="10.00">src/polyfem/basis/Spline</text>
<text text-anchor="middle" x="2621.5" y="-141.5" font-family="Helvetica,sans-Serif" font-size="10.00">Basis3d.cpp</text>
</a>
</g>
</g>
<!-- Node28&#45;&gt;Node31 -->
<g id="edge41" class="edge">
<title>Node28&#45;&gt;Node31</title>
<path fill="none" stroke="midnightblue" d="M2635.83,-197.06C2632.65,-186.75 2628.76,-174.1 2625.84,-164.59"/>
<polygon fill="midnightblue" stroke="midnightblue" points="2632.52,-198.21 2638.8,-206.73 2639.21,-196.15 2632.52,-198.21"/>
</g>
</g>
</svg>
