<?xml version="1.0" encoding="UTF-8" standalone="no"?>
<!DOCTYPE svg PUBLIC "-//W3C//DTD SVG 1.1//EN"
 "http://www.w3.org/Graphics/SVG/1.1/DTD/svg11.dtd">
<!-- Generated by graphviz version 2.43.0 (0)
 -->
<!-- Title: src/polyfem/solver/NavierStokesSolver.cpp Pages: 1 -->
<svg width="3750pt" height="775pt"
 viewBox="0.00 0.00 3749.73 775.00" xmlns="http://www.w3.org/2000/svg" xmlns:xlink="http://www.w3.org/1999/xlink">
<g id="graph0" class="graph" transform="scale(1 1) rotate(0) translate(4 771)">
<title>src/polyfem/solver/NavierStokesSolver.cpp</title>
<!-- Node1 -->
<g id="node1" class="node">
<title>Node1</title>
<g id="a_node1"><a xlink:title=" ">
<polygon fill="#999999" stroke="#666666" points="3253.23,-767 3119.23,-767 3119.23,-737 3253.23,-737 3253.23,-767"/>
<text text-anchor="start" x="3127.23" y="-755" font-family="Helvetica,sans-Serif" font-size="10.00">src/polyfem/solver</text>
<text text-anchor="middle" x="3186.23" y="-744" font-family="Helvetica,sans-Serif" font-size="10.00">/NavierStokesSolver.cpp</text>
</a>
</g>
</g>
<!-- Node2 -->
<g id="node2" class="node">
<title>Node2</title>
<g id="a_node2"><a xlink:href="_navier_stokes_solver_8hpp.html" target="_top" xlink:title=" ">
<polygon fill="white" stroke="#666666" points="2953.23,-695.5 2821.23,-695.5 2821.23,-676.5 2953.23,-676.5 2953.23,-695.5"/>
<text text-anchor="middle" x="2887.23" y="-683.5" font-family="Helvetica,sans-Serif" font-size="10.00">NavierStokesSolver.hpp</text>
</a>
</g>
</g>
<!-- Node1&#45;&gt;Node2 -->
<g id="edge1" class="edge">
<title>Node1&#45;&gt;Node2</title>
<path fill="none" stroke="#63b8ff" d="M3120.62,-736.95C3065.29,-725.11 2987.31,-708.42 2937.01,-697.65"/>
<polygon fill="#63b8ff" stroke="#63b8ff" points="2937.54,-694.19 2927.03,-695.52 2936.07,-701.03 2937.54,-694.19"/>
</g>
<!-- Node23 -->
<g id="node16" class="node">
<title>Node23</title>
<g id="a_node16"><a xlink:href="_assembler_utils_8hpp.html" target="_top" xlink:title=" ">
<polygon fill="white" stroke="#666666" points="1398.23,-635 1232.23,-635 1232.23,-605 1398.23,-605 1398.23,-635"/>
<text text-anchor="start" x="1240.23" y="-623" font-family="Helvetica,sans-Serif" font-size="10.00">polyfem/assembler/Assembler</text>
<text text-anchor="middle" x="1315.23" y="-612" font-family="Helvetica,sans-Serif" font-size="10.00">Utils.hpp</text>
</a>
</g>
</g>
<!-- Node1&#45;&gt;Node23 -->
<g id="edge168" class="edge">
<title>Node1&#45;&gt;Node23</title>
<path fill="none" stroke="#63b8ff" d="M3119.09,-746.33C2835.8,-726.65 1737.69,-650.35 1408.82,-627.5"/>
<polygon fill="#63b8ff" stroke="#63b8ff" points="1408.6,-623.98 1398.38,-626.78 1408.11,-630.96 1408.6,-623.98"/>
</g>
<!-- Node27 -->
<g id="node20" class="node">
<title>Node27</title>
<g id="a_node20"><a xlink:href="_matrix_utils_8hpp.html" target="_top" xlink:title=" ">
<polygon fill="white" stroke="#666666" points="2750.73,-387.5 2591.73,-387.5 2591.73,-368.5 2750.73,-368.5 2750.73,-387.5"/>
<text text-anchor="middle" x="2671.23" y="-375.5" font-family="Helvetica,sans-Serif" font-size="10.00">polyfem/utils/MatrixUtils.hpp</text>
</a>
</g>
</g>
<!-- Node1&#45;&gt;Node27 -->
<g id="edge165" class="edge">
<title>Node1&#45;&gt;Node27</title>
<path fill="none" stroke="#63b8ff" d="M3186.56,-736.8C3186.48,-708.49 3182.45,-644.41 3150.23,-605 3050.94,-483.53 2988.64,-490.34 2844.23,-429 2803.9,-411.87 2755.87,-398.51 2720.67,-389.92"/>
<polygon fill="#63b8ff" stroke="#63b8ff" points="2721.18,-386.45 2710.64,-387.52 2719.55,-393.26 2721.18,-386.45"/>
</g>
<!-- Node33 -->
<g id="node23" class="node">
<title>Node33</title>
<g id="a_node23"><a xlink:title=" ">
<polygon fill="#e0e0e0" stroke="#999999" points="2535.73,-453.5 2488.73,-453.5 2488.73,-434.5 2535.73,-434.5 2535.73,-453.5"/>
<text text-anchor="middle" x="2512.23" y="-441.5" font-family="Helvetica,sans-Serif" font-size="10.00">cmath</text>
</a>
</g>
</g>
<!-- Node1&#45;&gt;Node33 -->
<g id="edge172" class="edge">
<title>Node1&#45;&gt;Node33</title>
<path fill="none" stroke="#63b8ff" d="M3181.66,-736.95C3170.16,-702.05 3140.21,-613.6 3129.23,-605 3080.71,-567 2914.95,-579.61 2854.23,-569 2741.74,-549.35 2706.93,-561.84 2603.23,-514 2574.15,-500.58 2545.53,-476.62 2528.37,-460.76"/>
<polygon fill="#63b8ff" stroke="#63b8ff" points="2530.59,-458.04 2520.92,-453.71 2525.78,-463.13 2530.59,-458.04"/>
</g>
<!-- Node50 -->
<g id="node35" class="node">
<title>Node50</title>
<g id="a_node35"><a xlink:href="_logger_8hpp.html" target="_top" xlink:title=" ">
<polygon fill="white" stroke="#666666" points="3280.73,-453.5 3143.73,-453.5 3143.73,-434.5 3280.73,-434.5 3280.73,-453.5"/>
<text text-anchor="middle" x="3212.23" y="-441.5" font-family="Helvetica,sans-Serif" font-size="10.00">polyfem/utils/Logger.hpp</text>
</a>
</g>
</g>
<!-- Node1&#45;&gt;Node50 -->
<g id="edge169" class="edge">
<title>Node1&#45;&gt;Node50</title>
<path fill="none" stroke="#63b8ff" d="M3193.2,-736.97C3204.17,-713.54 3224.23,-664.74 3224.23,-621 3224.23,-621 3224.23,-621 3224.23,-558.5 3224.23,-524.92 3218.98,-486.06 3215.42,-463.63"/>
<polygon fill="#63b8ff" stroke="#63b8ff" points="3218.83,-462.81 3213.75,-453.51 3211.93,-463.95 3218.83,-462.81"/>
</g>
<!-- Node62 -->
<g id="node47" class="node">
<title>Node62</title>
<g id="a_node47"><a xlink:title=" ">
<polygon fill="#e0e0e0" stroke="#999999" points="3120.23,-629.5 2972.23,-629.5 2972.23,-610.5 3120.23,-610.5 3120.23,-629.5"/>
<text text-anchor="middle" x="3046.23" y="-617.5" font-family="Helvetica,sans-Serif" font-size="10.00">polysolve/LinearSolver.hpp</text>
</a>
</g>
</g>
<!-- Node1&#45;&gt;Node62 -->
<g id="edge167" class="edge">
<title>Node1&#45;&gt;Node62</title>
<path fill="none" stroke="#63b8ff" d="M3170.99,-736.84C3144.65,-712.39 3090.84,-662.42 3063.3,-636.85"/>
<polygon fill="#63b8ff" stroke="#63b8ff" points="3065.36,-633.99 3055.66,-629.75 3060.6,-639.12 3065.36,-633.99"/>
</g>
<!-- Node63 -->
<g id="node48" class="node">
<title>Node63</title>
<g id="a_node48"><a xlink:title=" ">
<polygon fill="#e0e0e0" stroke="#999999" points="3391.73,-695.5 3252.73,-695.5 3252.73,-676.5 3391.73,-676.5 3391.73,-695.5"/>
<text text-anchor="middle" x="3322.23" y="-683.5" font-family="Helvetica,sans-Serif" font-size="10.00">polysolve/FEMSolver.hpp</text>
</a>
</g>
</g>
<!-- Node1&#45;&gt;Node63 -->
<g id="edge166" class="edge">
<title>Node1&#45;&gt;Node63</title>
<path fill="none" stroke="#63b8ff" d="M3216.08,-736.95C3239.62,-725.88 3272.17,-710.56 3295,-699.82"/>
<polygon fill="#63b8ff" stroke="#63b8ff" points="3296.58,-702.94 3304.13,-695.52 3293.6,-696.61 3296.58,-702.94"/>
</g>
<!-- Node64 -->
<g id="node49" class="node">
<title>Node64</title>
<g id="a_node49"><a xlink:title=" ">
<polygon fill="#e0e0e0" stroke="#999999" points="3478.23,-695.5 3410.23,-695.5 3410.23,-676.5 3478.23,-676.5 3478.23,-695.5"/>
<text text-anchor="middle" x="3444.23" y="-683.5" font-family="Helvetica,sans-Serif" font-size="10.00">igl/Timer.h</text>
</a>
</g>
</g>
<!-- Node1&#45;&gt;Node64 -->
<g id="edge170" class="edge">
<title>Node1&#45;&gt;Node64</title>
<path fill="none" stroke="#63b8ff" d="M3253.43,-736.93C3296.02,-727.64 3352.13,-714.67 3401.23,-701 3404,-700.23 3406.85,-699.39 3409.71,-698.53"/>
<polygon fill="#63b8ff" stroke="#63b8ff" points="3410.84,-701.84 3419.33,-695.51 3408.74,-695.16 3410.84,-701.84"/>
</g>
<!-- Node65 -->
<g id="node50" class="node">
<title>Node65</title>
<g id="a_node50"><a xlink:title=" ">
<polygon fill="#e0e0e0" stroke="#999999" points="3639.73,-701 3496.73,-701 3496.73,-671 3639.73,-671 3639.73,-701"/>
<text text-anchor="start" x="3504.73" y="-689" font-family="Helvetica,sans-Serif" font-size="10.00">unsupported/Eigen/Sparse</text>
<text text-anchor="middle" x="3568.23" y="-678" font-family="Helvetica,sans-Serif" font-size="10.00">Extra</text>
</a>
</g>
</g>
<!-- Node1&#45;&gt;Node65 -->
<g id="edge171" class="edge">
<title>Node1&#45;&gt;Node65</title>
<path fill="none" stroke="#63b8ff" d="M3253.5,-739.96C3312.25,-730.28 3400.12,-715.74 3486.68,-701.09"/>
<polygon fill="#63b8ff" stroke="#63b8ff" points="3487.41,-704.51 3496.68,-699.39 3486.24,-697.61 3487.41,-704.51"/>
</g>
<!-- Node3 -->
<g id="node3" class="node">
<title>Node3</title>
<g id="a_node3"><a xlink:href="_common_8hpp.html" target="_top" xlink:title=" ">
<polygon fill="white" stroke="#666666" points="1112.73,-140 987.73,-140 987.73,-121 1112.73,-121 1112.73,-140"/>
<text text-anchor="middle" x="1050.23" y="-128" font-family="Helvetica,sans-Serif" font-size="10.00">polyfem/Common.hpp</text>
</a>
</g>
</g>
<!-- Node2&#45;&gt;Node3 -->
<g id="edge2" class="edge">
<title>Node2&#45;&gt;Node3</title>
<path fill="none" stroke="#63b8ff" d="M2887.4,-676.37C2887.71,-634.44 2883.18,-450.4 2783.23,-363 2708.31,-297.48 2665.24,-323.25 2569.23,-297 2346.19,-236.01 2292.22,-208.11 2063.23,-176 1881.49,-150.52 1323.83,-137.02 1123.15,-132.9"/>
<polygon fill="#63b8ff" stroke="#63b8ff" points="1123.08,-129.39 1113.01,-132.69 1122.93,-136.39 1123.08,-129.39"/>
</g>
<!-- Node6 -->
<g id="node6" class="node">
<title>Node6</title>
<g id="a_node6"><a xlink:href="_element_bases_8hpp.html" target="_top" xlink:title=" ">
<polygon fill="white" stroke="#666666" points="1709.73,-261 1530.73,-261 1530.73,-242 1709.73,-242 1709.73,-261"/>
<text text-anchor="middle" x="1620.23" y="-249" font-family="Helvetica,sans-Serif" font-size="10.00">polyfem/basis/ElementBases.hpp</text>
</a>
</g>
</g>
<!-- Node2&#45;&gt;Node6 -->
<g id="edge5" class="edge">
<title>Node2&#45;&gt;Node6</title>
<path fill="none" stroke="#63b8ff" d="M2880.02,-676.27C2864.68,-656.8 2830.23,-607.81 2830.23,-560.5 2830.23,-560.5 2830.23,-560.5 2830.23,-503.5 2830.23,-444.55 1938.02,-301.76 1685.88,-262.59"/>
<polygon fill="#63b8ff" stroke="#63b8ff" points="1686.19,-259.09 1675.77,-261.02 1685.11,-266.01 1686.19,-259.09"/>
</g>
<!-- Node20 -->
<g id="node13" class="node">
<title>Node20</title>
<g id="a_node13"><a xlink:title=" ">
<polygon fill="#e0e0e0" stroke="#999999" points="2422.23,-140 2364.23,-140 2364.23,-121 2422.23,-121 2422.23,-140"/>
<text text-anchor="middle" x="2393.23" y="-128" font-family="Helvetica,sans-Serif" font-size="10.00">memory</text>
</a>
</g>
</g>
<!-- Node2&#45;&gt;Node20 -->
<g id="edge164" class="edge">
<title>Node2&#45;&gt;Node20</title>
<path fill="none" stroke="#63b8ff" d="M2890.95,-676.25C2897.53,-661.15 2912.05,-629.48 2928.23,-605 2939.72,-587.63 2951.14,-588.58 2958.23,-569 2990.38,-480.21 2980.62,-421.17 2906.23,-363 2751.34,-241.86 2522.96,-168.12 2432.34,-142.12"/>
<polygon fill="#63b8ff" stroke="#63b8ff" points="2433.07,-138.68 2422.49,-139.32 2431.16,-145.42 2433.07,-138.68"/>
</g>
<!-- Node2&#45;&gt;Node23 -->
<g id="edge26" class="edge">
<title>Node2&#45;&gt;Node23</title>
<path fill="none" stroke="#63b8ff" d="M2821.19,-682.31C2573.26,-672.22 1697.5,-636.56 1408.52,-624.8"/>
<polygon fill="#63b8ff" stroke="#63b8ff" points="1408.63,-621.3 1398.49,-624.39 1408.34,-628.29 1408.63,-621.3"/>
</g>
<!-- Node25 -->
<g id="node18" class="node">
<title>Node25</title>
<g id="a_node18"><a xlink:href="_assembly_vals_cache_8hpp.html" target="_top" xlink:title=" ">
<polygon fill="white" stroke="#666666" points="2052.23,-453.5 1916.23,-453.5 1916.23,-434.5 2052.23,-434.5 2052.23,-453.5"/>
<text text-anchor="middle" x="1984.23" y="-441.5" font-family="Helvetica,sans-Serif" font-size="10.00">AssemblyValsCache.hpp</text>
</a>
</g>
</g>
<!-- Node2&#45;&gt;Node25 -->
<g id="edge161" class="edge">
<title>Node2&#45;&gt;Node25</title>
<path fill="none" stroke="#63b8ff" d="M2820.98,-679.86C2679.95,-667.02 2341.82,-626.12 2083.23,-514 2051.9,-500.41 2020.32,-476.15 2001.52,-460.31"/>
<polygon fill="#63b8ff" stroke="#63b8ff" points="2003.69,-457.57 1993.83,-453.7 1999.13,-462.88 2003.69,-457.57"/>
</g>
<!-- Node2&#45;&gt;Node50 -->
<g id="edge163" class="edge">
<title>Node2&#45;&gt;Node50</title>
<path fill="none" stroke="#63b8ff" d="M2894.19,-676.42C2906.91,-661.03 2935.19,-628.2 2963.23,-605 3039.01,-542.32 3140.66,-483.93 3187.14,-458.45"/>
<polygon fill="#63b8ff" stroke="#63b8ff" points="3189.08,-461.38 3196.19,-453.53 3185.73,-455.23 3189.08,-461.38"/>
</g>
<!-- Node2&#45;&gt;Node62 -->
<g id="edge162" class="edge">
<title>Node2&#45;&gt;Node62</title>
<path fill="none" stroke="#63b8ff" d="M2908.68,-676.37C2936.14,-665.32 2983.91,-646.08 3015.31,-633.45"/>
<polygon fill="#63b8ff" stroke="#63b8ff" points="3016.91,-636.58 3024.88,-629.6 3014.29,-630.08 3016.91,-636.58"/>
</g>
<!-- Node4 -->
<g id="node4" class="node">
<title>Node4</title>
<g id="a_node4"><a xlink:title=" ">
<polygon fill="#e0e0e0" stroke="#999999" points="2356.23,-19 2276.23,-19 2276.23,0 2356.23,0 2356.23,-19"/>
<text text-anchor="middle" x="2316.23" y="-7" font-family="Helvetica,sans-Serif" font-size="10.00">Eigen/Sparse</text>
</a>
</g>
</g>
<!-- Node3&#45;&gt;Node4 -->
<g id="edge3" class="edge">
<title>Node3&#45;&gt;Node4</title>
<path fill="none" stroke="#63b8ff" d="M1090.68,-121C1167.55,-105.2 1340.19,-71.43 1487.23,-55 1781.15,-22.17 2136.5,-13.38 2265.97,-11.18"/>
<polygon fill="#63b8ff" stroke="#63b8ff" points="2266.04,-14.68 2275.98,-11.02 2265.93,-7.68 2266.04,-14.68"/>
</g>
<!-- Node5 -->
<g id="node5" class="node">
<title>Node5</title>
<g id="a_node5"><a xlink:title=" ">
<polygon fill="#e0e0e0" stroke="#999999" points="1105.23,-79.5 995.23,-79.5 995.23,-60.5 1105.23,-60.5 1105.23,-79.5"/>
<text text-anchor="middle" x="1050.23" y="-67.5" font-family="Helvetica,sans-Serif" font-size="10.00">nlohmann/json.hpp</text>
</a>
</g>
</g>
<!-- Node3&#45;&gt;Node5 -->
<g id="edge4" class="edge">
<title>Node3&#45;&gt;Node5</title>
<path fill="none" stroke="#63b8ff" d="M1050.23,-120.87C1050.23,-112.75 1050.23,-100.31 1050.23,-89.89"/>
<polygon fill="#63b8ff" stroke="#63b8ff" points="1053.73,-89.67 1050.23,-79.67 1046.73,-89.67 1053.73,-89.67"/>
</g>
<!-- Node7 -->
<g id="node7" class="node">
<title>Node7</title>
<g id="a_node7"><a xlink:href="_basis_8hpp.html" target="_top" xlink:title=" ">
<polygon fill="#fff0f0" stroke="red" points="1755.23,-140 1619.23,-140 1619.23,-121 1755.23,-121 1755.23,-140"/>
<text text-anchor="middle" x="1687.23" y="-128" font-family="Helvetica,sans-Serif" font-size="10.00">polyfem/basis/Basis.hpp</text>
</a>
</g>
</g>
<!-- Node6&#45;&gt;Node7 -->
<g id="edge6" class="edge">
<title>Node6&#45;&gt;Node7</title>
<path fill="none" stroke="#63b8ff" d="M1625.05,-241.94C1635.96,-222.57 1662.73,-175.02 1677.33,-149.08"/>
<polygon fill="#63b8ff" stroke="#63b8ff" points="1680.42,-150.73 1682.28,-140.3 1674.32,-147.3 1680.42,-150.73"/>
</g>
<!-- Node8 -->
<g id="node8" class="node">
<title>Node8</title>
<g id="a_node8"><a xlink:href="_quadrature_8hpp.html" target="_top" xlink:title=" ">
<polygon fill="white" stroke="#666666" points="1609.73,-85 1496.73,-85 1496.73,-55 1609.73,-55 1609.73,-85"/>
<text text-anchor="start" x="1504.73" y="-73" font-family="Helvetica,sans-Serif" font-size="10.00">polyfem/quadrature</text>
<text text-anchor="middle" x="1553.23" y="-62" font-family="Helvetica,sans-Serif" font-size="10.00">/Quadrature.hpp</text>
</a>
</g>
</g>
<!-- Node6&#45;&gt;Node8 -->
<g id="edge14" class="edge">
<title>Node6&#45;&gt;Node8</title>
<path fill="none" stroke="#63b8ff" d="M1543.93,-241.91C1522.09,-235.51 1500.61,-224.57 1487.23,-206 1460.76,-169.23 1500.58,-120.22 1528.93,-92.5"/>
<polygon fill="#63b8ff" stroke="#63b8ff" points="1531.71,-94.69 1536.56,-85.27 1526.89,-89.61 1531.71,-94.69"/>
</g>
<!-- Node12 -->
<g id="node11" class="node">
<title>Node12</title>
<g id="a_node11"><a xlink:title=" ">
<polygon fill="#e0e0e0" stroke="#999999" points="2169.73,-79.5 2122.73,-79.5 2122.73,-60.5 2169.73,-60.5 2169.73,-79.5"/>
<text text-anchor="middle" x="2146.23" y="-67.5" font-family="Helvetica,sans-Serif" font-size="10.00">vector</text>
</a>
</g>
</g>
<!-- Node6&#45;&gt;Node12 -->
<g id="edge25" class="edge">
<title>Node6&#45;&gt;Node12</title>
<path fill="none" stroke="#63b8ff" d="M1709.81,-244.45C1797.56,-237.57 1924.56,-224.79 1970.23,-206 2038.59,-177.87 2103.39,-116.02 2131.53,-86.84"/>
<polygon fill="#63b8ff" stroke="#63b8ff" points="2134.13,-89.19 2138.47,-79.53 2129.05,-84.37 2134.13,-89.19"/>
</g>
<!-- Node13 -->
<g id="node12" class="node">
<title>Node13</title>
<g id="a_node12"><a xlink:href="_mesh_8hpp.html" target="_top" xlink:title=" ">
<polygon fill="#fff0f0" stroke="red" points="1633.73,-200.5 1496.73,-200.5 1496.73,-181.5 1633.73,-181.5 1633.73,-200.5"/>
<text text-anchor="middle" x="1565.23" y="-188.5" font-family="Helvetica,sans-Serif" font-size="10.00">polyfem/mesh/Mesh.hpp</text>
</a>
</g>
</g>
<!-- Node6&#45;&gt;Node13 -->
<g id="edge15" class="edge">
<title>Node6&#45;&gt;Node13</title>
<path fill="none" stroke="#63b8ff" d="M1612.12,-241.87C1603.83,-233.05 1590.77,-219.16 1580.53,-208.27"/>
<polygon fill="#63b8ff" stroke="#63b8ff" points="1582.78,-205.56 1573.38,-200.67 1577.68,-210.35 1582.78,-205.56"/>
</g>
<!-- Node21 -->
<g id="node14" class="node">
<title>Node21</title>
<g id="a_node14"><a xlink:href="_assembly_values_8hpp.html" target="_top" xlink:title=" ">
<polygon fill="white" stroke="#666666" points="1890.23,-206 1728.23,-206 1728.23,-176 1890.23,-176 1890.23,-206"/>
<text text-anchor="start" x="1736.23" y="-194" font-family="Helvetica,sans-Serif" font-size="10.00">polyfem/assembler/Assembly</text>
<text text-anchor="middle" x="1809.23" y="-183" font-family="Helvetica,sans-Serif" font-size="10.00">Values.hpp</text>
</a>
</g>
</g>
<!-- Node6&#45;&gt;Node21 -->
<g id="edge20" class="edge">
<title>Node6&#45;&gt;Node21</title>
<path fill="none" stroke="#63b8ff" d="M1647.72,-241.99C1675.51,-233.39 1719.24,-219.86 1754.19,-209.04"/>
<polygon fill="#63b8ff" stroke="#63b8ff" points="1755.28,-212.36 1763.8,-206.06 1753.21,-205.68 1755.28,-212.36"/>
</g>
<!-- Node7&#45;&gt;Node8 -->
<g id="edge7" class="edge">
<title>Node7&#45;&gt;Node8</title>
<path fill="none" stroke="#63b8ff" d="M1667.75,-120.99C1648.72,-112.68 1619.15,-99.78 1594.82,-89.16"/>
<polygon fill="#63b8ff" stroke="#63b8ff" points="1596.01,-85.86 1585.45,-85.06 1593.21,-92.27 1596.01,-85.86"/>
</g>
<!-- Node9 -->
<g id="node9" class="node">
<title>Node9</title>
<g id="a_node9"><a xlink:title=" ">
<polygon fill="#e0e0e0" stroke="#999999" points="1278.73,-19 1201.73,-19 1201.73,0 1278.73,0 1278.73,-19"/>
<text text-anchor="middle" x="1240.23" y="-7" font-family="Helvetica,sans-Serif" font-size="10.00">Eigen/Dense</text>
</a>
</g>
</g>
<!-- Node7&#45;&gt;Node9 -->
<g id="edge12" class="edge">
<title>Node7&#45;&gt;Node9</title>
<path fill="none" stroke="#63b8ff" d="M1682.11,-120.74C1672.13,-104.58 1648.41,-70.34 1618.23,-55 1561.72,-26.26 1377.53,-15.6 1288.83,-12.07"/>
<polygon fill="#63b8ff" stroke="#63b8ff" points="1288.89,-8.57 1278.76,-11.68 1288.62,-15.56 1288.89,-8.57"/>
</g>
<!-- Node10 -->
<g id="node10" class="node">
<title>Node10</title>
<g id="a_node10"><a xlink:href="_types_8hpp.html" target="_top" xlink:title=" ">
<polygon fill="white" stroke="#666666" points="1944.73,-79.5 1811.73,-79.5 1811.73,-60.5 1944.73,-60.5 1944.73,-79.5"/>
<text text-anchor="middle" x="1878.23" y="-67.5" font-family="Helvetica,sans-Serif" font-size="10.00">polyfem/utils/Types.hpp</text>
</a>
</g>
</g>
<!-- Node7&#45;&gt;Node10 -->
<g id="edge9" class="edge">
<title>Node7&#45;&gt;Node10</title>
<path fill="none" stroke="#63b8ff" d="M1715.01,-120.99C1748.11,-110.86 1803.57,-93.87 1840.53,-82.55"/>
<polygon fill="#63b8ff" stroke="#63b8ff" points="1841.89,-85.79 1850.43,-79.52 1839.84,-79.1 1841.89,-85.79"/>
</g>
<!-- Node7&#45;&gt;Node12 -->
<g id="edge13" class="edge">
<title>Node7&#45;&gt;Node12</title>
<path fill="none" stroke="#63b8ff" d="M1753.98,-120.99C1853.27,-108.34 2036.32,-85.01 2112.05,-75.36"/>
<polygon fill="#63b8ff" stroke="#63b8ff" points="2112.94,-78.77 2122.42,-74.03 2112.06,-71.83 2112.94,-78.77"/>
</g>
<!-- Node8&#45;&gt;Node9 -->
<g id="edge8" class="edge">
<title>Node8&#45;&gt;Node9</title>
<path fill="none" stroke="#63b8ff" d="M1496.55,-58.41C1437.18,-47.31 1344.91,-30.06 1288.78,-19.57"/>
<polygon fill="#63b8ff" stroke="#63b8ff" points="1289.21,-16.09 1278.73,-17.7 1287.92,-22.97 1289.21,-16.09"/>
</g>
<!-- Node10&#45;&gt;Node4 -->
<g id="edge11" class="edge">
<title>Node10&#45;&gt;Node4</title>
<path fill="none" stroke="#63b8ff" d="M1941.92,-60.49C2029.57,-48.79 2185.6,-27.95 2265.71,-17.25"/>
<polygon fill="#63b8ff" stroke="#63b8ff" points="2266.58,-20.66 2276.02,-15.87 2265.65,-13.73 2266.58,-20.66"/>
</g>
<!-- Node10&#45;&gt;Node9 -->
<g id="edge10" class="edge">
<title>Node10&#45;&gt;Node9</title>
<path fill="none" stroke="#63b8ff" d="M1833.36,-60.49C1821.63,-58.47 1808.99,-56.48 1797.23,-55 1610.11,-31.4 1385.96,-17.98 1288.94,-12.89"/>
<polygon fill="#63b8ff" stroke="#63b8ff" points="1289.02,-9.39 1278.85,-12.37 1288.66,-16.38 1289.02,-9.39"/>
</g>
<!-- Node13&#45;&gt;Node3 -->
<g id="edge16" class="edge">
<title>Node13&#45;&gt;Node3</title>
<path fill="none" stroke="#63b8ff" d="M1496.45,-182.01C1479.39,-180.04 1461.15,-177.93 1444.23,-176 1332.31,-163.2 1202.47,-148.58 1123.36,-139.7"/>
<polygon fill="#63b8ff" stroke="#63b8ff" points="1123.35,-136.18 1113.02,-138.54 1122.57,-143.13 1123.35,-136.18"/>
</g>
<!-- Node13&#45;&gt;Node9 -->
<g id="edge18" class="edge">
<title>Node13&#45;&gt;Node9</title>
<path fill="none" stroke="#63b8ff" d="M1549.56,-181.34C1497.22,-152.43 1328.2,-59.08 1264.67,-24"/>
<polygon fill="#63b8ff" stroke="#63b8ff" points="1266.2,-20.84 1255.75,-19.07 1262.81,-26.97 1266.2,-20.84"/>
</g>
<!-- Node13&#45;&gt;Node10 -->
<g id="edge17" class="edge">
<title>Node13&#45;&gt;Node10</title>
<path fill="none" stroke="#63b8ff" d="M1568.34,-181.14C1574.09,-166.14 1587.87,-135.93 1610.23,-121 1640.89,-100.53 1733.45,-86.46 1801.24,-78.58"/>
<polygon fill="#63b8ff" stroke="#63b8ff" points="1801.93,-82.03 1811.47,-77.42 1801.14,-75.07 1801.93,-82.03"/>
</g>
<!-- Node13&#45;&gt;Node20 -->
<g id="edge19" class="edge">
<title>Node13&#45;&gt;Node20</title>
<path fill="none" stroke="#63b8ff" d="M1633.81,-183.31C1660.46,-180.83 1691.26,-178.11 1719.23,-176 1984.74,-155.94 2051.95,-162.8 2317.23,-140 2329.2,-138.97 2342.21,-137.61 2354.02,-136.27"/>
<polygon fill="#63b8ff" stroke="#63b8ff" points="2354.5,-139.74 2364.04,-135.12 2353.7,-132.79 2354.5,-139.74"/>
</g>
<!-- Node21&#45;&gt;Node7 -->
<g id="edge22" class="edge">
<title>Node21&#45;&gt;Node7</title>
<path fill="none" stroke="#63b8ff" d="M1780.01,-175.99C1760.11,-166.45 1733.95,-153.9 1714.48,-144.57"/>
<polygon fill="#63b8ff" stroke="#63b8ff" points="1715.78,-141.31 1705.25,-140.14 1712.75,-147.62 1715.78,-141.31"/>
</g>
<!-- Node21&#45;&gt;Node8 -->
<g id="edge21" class="edge">
<title>Node21&#45;&gt;Node8</title>
<path fill="none" stroke="#63b8ff" d="M1733.07,-175.97C1686,-166.33 1630.79,-152.98 1610.23,-140 1592.07,-128.53 1576.89,-109.31 1566.78,-94.07"/>
<polygon fill="#63b8ff" stroke="#63b8ff" points="1569.47,-91.77 1561.16,-85.2 1563.55,-95.52 1569.47,-91.77"/>
</g>
<!-- Node21&#45;&gt;Node9 -->
<g id="edge23" class="edge">
<title>Node21&#45;&gt;Node9</title>
<path fill="none" stroke="#63b8ff" d="M1802.56,-175.94C1794.91,-160.94 1781.22,-137.17 1764.23,-121 1722.11,-80.9 1706.47,-73.2 1651.23,-55 1585.04,-33.19 1382.72,-18.86 1288.93,-13.21"/>
<polygon fill="#63b8ff" stroke="#63b8ff" points="1289.04,-9.71 1278.85,-12.62 1288.62,-16.7 1289.04,-9.71"/>
</g>
<!-- Node22 -->
<g id="node15" class="node">
<title>Node22</title>
<g id="a_node15"><a xlink:title=" ">
<polygon fill="#e0e0e0" stroke="#999999" points="2308.23,-140 2248.23,-140 2248.23,-121 2308.23,-121 2308.23,-140"/>
<text text-anchor="middle" x="2278.23" y="-128" font-family="Helvetica,sans-Serif" font-size="10.00">iostream</text>
</a>
</g>
</g>
<!-- Node21&#45;&gt;Node22 -->
<g id="edge24" class="edge">
<title>Node21&#45;&gt;Node22</title>
<path fill="none" stroke="#63b8ff" d="M1890.39,-179.88C1991.68,-167.24 2160.93,-146.13 2237.91,-136.53"/>
<polygon fill="#63b8ff" stroke="#63b8ff" points="2238.66,-139.96 2248.15,-135.25 2237.79,-133.02 2238.66,-139.96"/>
</g>
<!-- Node23&#45;&gt;Node3 -->
<g id="edge27" class="edge">
<title>Node23&#45;&gt;Node3</title>
<path fill="none" stroke="#63b8ff" d="M1398.45,-619.57C1647.5,-620.69 2384.23,-619.52 2618.23,-569 2681.56,-555.33 2715.76,-566.85 2753.23,-514 2792.08,-459.21 2800.98,-415.61 2759.23,-363 2751.49,-353.24 2334.36,-263.9 2322.23,-261 2167.81,-224.07 2132.37,-198.81 1975.23,-176 1811.19,-152.19 1311.26,-137.86 1122.99,-133.19"/>
<polygon fill="#63b8ff" stroke="#63b8ff" points="1123,-129.69 1112.92,-132.95 1122.83,-136.69 1123,-129.69"/>
</g>
<!-- Node23&#45;&gt;Node12 -->
<g id="edge159" class="edge">
<title>Node23&#45;&gt;Node12</title>
<path fill="none" stroke="#63b8ff" d="M1398.67,-618.31C1676.2,-615.69 2557.7,-604.63 2680.23,-569 2726.71,-555.48 2741.81,-549.94 2774.23,-514 2839.58,-441.57 2852.81,-383.25 2807.23,-297 2742.39,-174.27 2679.09,-170.03 2549.23,-121 2481.63,-95.47 2263.91,-78.77 2179.82,-73.12"/>
<polygon fill="#63b8ff" stroke="#63b8ff" points="2179.99,-69.63 2169.78,-72.46 2179.53,-76.61 2179.99,-69.63"/>
</g>
<!-- Node24 -->
<g id="node17" class="node">
<title>Node24</title>
<g id="a_node17"><a xlink:href="_assembler_8hpp.html" target="_top" xlink:title=" ">
<polygon fill="white" stroke="#666666" points="2181.73,-514 2092.73,-514 2092.73,-495 2181.73,-495 2181.73,-514"/>
<text text-anchor="middle" x="2137.23" y="-502" font-family="Helvetica,sans-Serif" font-size="10.00">Assembler.hpp</text>
</a>
</g>
</g>
<!-- Node23&#45;&gt;Node24 -->
<g id="edge28" class="edge">
<title>Node23&#45;&gt;Node24</title>
<path fill="none" stroke="#63b8ff" d="M1398.58,-607.49C1566.41,-584.32 1941.12,-532.58 2082.14,-513.11"/>
<polygon fill="#63b8ff" stroke="#63b8ff" points="2082.86,-516.54 2092.28,-511.71 2081.9,-509.61 2082.86,-516.54"/>
</g>
<!-- Node23&#45;&gt;Node27 -->
<g id="edge158" class="edge">
<title>Node23&#45;&gt;Node27</title>
<path fill="none" stroke="#63b8ff" d="M1398.42,-619.29C1688.61,-619.44 2643.41,-612.38 2734.23,-514 2767.43,-478.04 2717.14,-421.49 2688.64,-394.43"/>
<polygon fill="#63b8ff" stroke="#63b8ff" points="2690.99,-391.83 2681.27,-387.62 2686.24,-396.98 2690.99,-391.83"/>
</g>
<!-- Node35 -->
<g id="node24" class="node">
<title>Node35</title>
<g id="a_node24"><a xlink:href="_mass_8hpp.html" target="_top" xlink:title=" ">
<polygon fill="#fff0f0" stroke="red" points="1036.73,-514 973.73,-514 973.73,-495 1036.73,-495 1036.73,-514"/>
<text text-anchor="middle" x="1005.23" y="-502" font-family="Helvetica,sans-Serif" font-size="10.00">Mass.hpp</text>
</a>
</g>
</g>
<!-- Node23&#45;&gt;Node35 -->
<g id="edge54" class="edge">
<title>Node23&#45;&gt;Node35</title>
<path fill="none" stroke="#63b8ff" d="M1276.91,-604.97C1215.5,-582.49 1096.11,-538.77 1038.25,-517.59"/>
<polygon fill="#63b8ff" stroke="#63b8ff" points="1039.44,-514.3 1028.85,-514.14 1037.03,-520.87 1039.44,-514.3"/>
</g>
<!-- Node38 -->
<g id="node26" class="node">
<title>Node38</title>
<g id="a_node26"><a xlink:href="_laplacian_8hpp.html" target="_top" xlink:title=" ">
<polygon fill="#fff0f0" stroke="red" points="538.23,-453.5 454.23,-453.5 454.23,-434.5 538.23,-434.5 538.23,-453.5"/>
<text text-anchor="middle" x="496.23" y="-441.5" font-family="Helvetica,sans-Serif" font-size="10.00">Laplacian.hpp</text>
</a>
</g>
</g>
<!-- Node23&#45;&gt;Node38 -->
<g id="edge63" class="edge">
<title>Node23&#45;&gt;Node38</title>
<path fill="none" stroke="#63b8ff" d="M1232.02,-614.66C1102.01,-606 844.07,-581.21 636.23,-514 592.88,-499.98 546.07,-474.6 519.05,-458.84"/>
<polygon fill="#63b8ff" stroke="#63b8ff" points="520.75,-455.78 510.36,-453.7 517.19,-461.8 520.75,-455.78"/>
</g>
<!-- Node39 -->
<g id="node27" class="node">
<title>Node39</title>
<g id="a_node27"><a xlink:href="_bilaplacian_8hpp.html" target="_top" xlink:title=" ">
<polygon fill="#fff0f0" stroke="red" points="122.23,-453.5 30.23,-453.5 30.23,-434.5 122.23,-434.5 122.23,-453.5"/>
<text text-anchor="middle" x="76.23" y="-441.5" font-family="Helvetica,sans-Serif" font-size="10.00">Bilaplacian.hpp</text>
</a>
</g>
</g>
<!-- Node23&#45;&gt;Node39 -->
<g id="edge67" class="edge">
<title>Node23&#45;&gt;Node39</title>
<path fill="none" stroke="#63b8ff" d="M1232.03,-618C1035.16,-615.09 545.28,-604.4 385.23,-569 274.68,-544.55 152.4,-484.92 101.07,-458.26"/>
<polygon fill="#63b8ff" stroke="#63b8ff" points="102.53,-455.08 92.05,-453.53 99.28,-461.28 102.53,-455.08"/>
</g>
<!-- Node40 -->
<g id="node28" class="node">
<title>Node40</title>
<g id="a_node28"><a xlink:href="_helmholtz_8hpp.html" target="_top" xlink:title=" ">
<polygon fill="#fff0f0" stroke="red" points="436.23,-453.5 348.23,-453.5 348.23,-434.5 436.23,-434.5 436.23,-453.5"/>
<text text-anchor="middle" x="392.23" y="-441.5" font-family="Helvetica,sans-Serif" font-size="10.00">Helmholtz.hpp</text>
</a>
</g>
</g>
<!-- Node23&#45;&gt;Node40 -->
<g id="edge72" class="edge">
<title>Node23&#45;&gt;Node40</title>
<path fill="none" stroke="#63b8ff" d="M1231.89,-616.64C1044.11,-610.9 599.32,-594.75 536.23,-569 478.9,-545.6 428.24,-489.86 405.28,-461.78"/>
<polygon fill="#63b8ff" stroke="#63b8ff" points="407.8,-459.33 398.82,-453.71 402.33,-463.7 407.8,-459.33"/>
</g>
<!-- Node41 -->
<g id="node29" class="node">
<title>Node41</title>
<g id="a_node29"><a xlink:href="_linear_elasticity_8hpp.html" target="_top" xlink:title=" ">
<polygon fill="#fff0f0" stroke="red" points="1165.73,-514 1054.73,-514 1054.73,-495 1165.73,-495 1165.73,-514"/>
<text text-anchor="middle" x="1110.23" y="-502" font-family="Helvetica,sans-Serif" font-size="10.00">LinearElasticity.hpp</text>
</a>
</g>
</g>
<!-- Node23&#45;&gt;Node41 -->
<g id="edge76" class="edge">
<title>Node23&#45;&gt;Node41</title>
<path fill="none" stroke="#63b8ff" d="M1289.69,-604.85C1250.01,-582.89 1174.08,-540.85 1134.93,-519.17"/>
<polygon fill="#63b8ff" stroke="#63b8ff" points="1136.26,-515.91 1125.81,-514.12 1132.86,-522.03 1136.26,-515.91"/>
</g>
<!-- Node42 -->
<g id="node30" class="node">
<title>Node42</title>
<g id="a_node30"><a xlink:href="_hooke_linear_elasticity_8hpp.html" target="_top" xlink:title=" ">
<polygon fill="#fff0f0" stroke="red" points="955.23,-514 813.23,-514 813.23,-495 955.23,-495 955.23,-514"/>
<text text-anchor="middle" x="884.23" y="-502" font-family="Helvetica,sans-Serif" font-size="10.00">HookeLinearElasticity.hpp</text>
</a>
</g>
</g>
<!-- Node23&#45;&gt;Node42 -->
<g id="edge82" class="edge">
<title>Node23&#45;&gt;Node42</title>
<path fill="none" stroke="#63b8ff" d="M1261.95,-604.97C1175.41,-582.18 1006.02,-537.57 926.88,-516.73"/>
<polygon fill="#63b8ff" stroke="#63b8ff" points="927.35,-513.23 916.78,-514.07 925.56,-520 927.35,-513.23"/>
</g>
<!-- Node43 -->
<g id="node31" class="node">
<title>Node43</title>
<g id="a_node31"><a xlink:href="_saint_venant_elasticity_8hpp.html" target="_top" xlink:title=" ">
<polygon fill="#fff0f0" stroke="red" points="1518.23,-514 1378.23,-514 1378.23,-495 1518.23,-495 1518.23,-514"/>
<text text-anchor="middle" x="1448.23" y="-502" font-family="Helvetica,sans-Serif" font-size="10.00">SaintVenantElasticity.hpp</text>
</a>
</g>
</g>
<!-- Node23&#45;&gt;Node43 -->
<g id="edge88" class="edge">
<title>Node23&#45;&gt;Node43</title>
<path fill="none" stroke="#63b8ff" d="M1331.81,-604.85C1356.83,-583.5 1404.09,-543.17 1430.04,-521.03"/>
<polygon fill="#63b8ff" stroke="#63b8ff" points="1432.62,-523.42 1437.96,-514.27 1428.08,-518.1 1432.62,-523.42"/>
</g>
<!-- Node44 -->
<g id="node32" class="node">
<title>Node44</title>
<g id="a_node32"><a xlink:href="_neo_hookean_elasticity_8hpp.html" target="_top" xlink:title=" ">
<polygon fill="#fff0f0" stroke="red" points="1717.73,-514 1574.73,-514 1574.73,-495 1717.73,-495 1717.73,-514"/>
<text text-anchor="middle" x="1646.23" y="-502" font-family="Helvetica,sans-Serif" font-size="10.00">NeoHookeanElasticity.hpp</text>
</a>
</g>
</g>
<!-- Node23&#45;&gt;Node44 -->
<g id="edge96" class="edge">
<title>Node23&#45;&gt;Node44</title>
<path fill="none" stroke="#63b8ff" d="M1356.15,-604.97C1421.86,-582.44 1549.73,-538.59 1611.37,-517.46"/>
<polygon fill="#63b8ff" stroke="#63b8ff" points="1612.7,-520.7 1621.02,-514.14 1610.43,-514.08 1612.7,-520.7"/>
</g>
<!-- Node45 -->
<g id="node33" class="node">
<title>Node45</title>
<g id="a_node33"><a xlink:href="_mooney_rivlin_elasticity_8hpp.html" target="_top" xlink:title=" ">
<polygon fill="#fff0f0" stroke="red" points="2471.23,-514 2323.23,-514 2323.23,-495 2471.23,-495 2471.23,-514"/>
<text text-anchor="middle" x="2397.23" y="-502" font-family="Helvetica,sans-Serif" font-size="10.00">MooneyRivlinElasticity.hpp</text>
</a>
</g>
</g>
<!-- Node23&#45;&gt;Node45 -->
<g id="edge104" class="edge">
<title>Node23&#45;&gt;Node45</title>
<path fill="none" stroke="#63b8ff" d="M1398.34,-610.28C1599.44,-589.19 2110.61,-535.57 2312.94,-514.34"/>
<polygon fill="#63b8ff" stroke="#63b8ff" points="2313.33,-517.82 2322.91,-513.3 2312.6,-510.86 2313.33,-517.82"/>
</g>
<!-- Node48 -->
<g id="node34" class="node">
<title>Node48</title>
<g id="a_node34"><a xlink:href="_ogden_elasticity_8hpp.html" target="_top" xlink:title=" ">
<polygon fill="#fff0f0" stroke="red" points="2725.73,-514 2612.73,-514 2612.73,-495 2725.73,-495 2725.73,-514"/>
<text text-anchor="middle" x="2669.23" y="-502" font-family="Helvetica,sans-Serif" font-size="10.00">OgdenElasticity.hpp</text>
</a>
</g>
</g>
<!-- Node23&#45;&gt;Node48 -->
<g id="edge112" class="edge">
<title>Node23&#45;&gt;Node48</title>
<path fill="none" stroke="#63b8ff" d="M1398.4,-612.03C1646.46,-591.23 2377.83,-529.93 2602.69,-511.08"/>
<polygon fill="#63b8ff" stroke="#63b8ff" points="2603.02,-514.56 2612.7,-510.24 2602.44,-507.59 2603.02,-514.56"/>
</g>
<!-- Node56 -->
<g id="node41" class="node">
<title>Node56</title>
<g id="a_node41"><a xlink:href="_multi_model_8hpp.html" target="_top" xlink:title=" ">
<polygon fill="#fff0f0" stroke="red" points="1631.23,-569 1539.23,-569 1539.23,-550 1631.23,-550 1631.23,-569"/>
<text text-anchor="middle" x="1585.23" y="-557" font-family="Helvetica,sans-Serif" font-size="10.00">MultiModel.hpp</text>
</a>
</g>
</g>
<!-- Node23&#45;&gt;Node56 -->
<g id="edge125" class="edge">
<title>Node23&#45;&gt;Node56</title>
<path fill="none" stroke="#63b8ff" d="M1379.91,-604.99C1427.81,-594.61 1492.11,-580.68 1535.91,-571.19"/>
<polygon fill="#63b8ff" stroke="#63b8ff" points="1536.72,-574.59 1545.76,-569.05 1535.24,-567.75 1536.72,-574.59"/>
</g>
<!-- Node57 -->
<g id="node42" class="node">
<title>Node57</title>
<g id="a_node42"><a xlink:href="_viscous_damping_8hpp.html" target="_top" xlink:title=" ">
<polygon fill="#fff0f0" stroke="red" points="1318.73,-514 1199.73,-514 1199.73,-495 1318.73,-495 1318.73,-514"/>
<text text-anchor="middle" x="1259.23" y="-502" font-family="Helvetica,sans-Serif" font-size="10.00">ViscousDamping.hpp</text>
</a>
</g>
</g>
<!-- Node23&#45;&gt;Node57 -->
<g id="edge135" class="edge">
<title>Node23&#45;&gt;Node57</title>
<path fill="none" stroke="#63b8ff" d="M1308.14,-604.63C1297.93,-583.93 1279.11,-545.78 1268.03,-523.32"/>
<polygon fill="#63b8ff" stroke="#63b8ff" points="1271.1,-521.65 1263.54,-514.23 1264.83,-524.75 1271.1,-521.65"/>
</g>
<!-- Node58 -->
<g id="node43" class="node">
<title>Node58</title>
<g id="a_node43"><a xlink:href="_stokes_8hpp.html" target="_top" xlink:title=" ">
<polygon fill="#fff0f0" stroke="red" points="330.23,-453.5 260.23,-453.5 260.23,-434.5 330.23,-434.5 330.23,-453.5"/>
<text text-anchor="middle" x="295.23" y="-441.5" font-family="Helvetica,sans-Serif" font-size="10.00">Stokes.hpp</text>
</a>
</g>
</g>
<!-- Node23&#45;&gt;Node58 -->
<g id="edge143" class="edge">
<title>Node23&#45;&gt;Node58</title>
<path fill="none" stroke="#63b8ff" d="M1232.05,-619.01C1052.17,-618.2 632.32,-611.65 497.23,-569 422.31,-545.35 346.78,-488 313.23,-460.37"/>
<polygon fill="#63b8ff" stroke="#63b8ff" points="315.19,-457.45 305.27,-453.73 310.7,-462.82 315.19,-457.45"/>
</g>
<!-- Node59 -->
<g id="node44" class="node">
<title>Node59</title>
<g id="a_node44"><a xlink:href="_navier_stokes_8hpp.html" target="_top" xlink:title=" ">
<polygon fill="#fff0f0" stroke="red" points="242.23,-453.5 140.23,-453.5 140.23,-434.5 242.23,-434.5 242.23,-453.5"/>
<text text-anchor="middle" x="191.23" y="-441.5" font-family="Helvetica,sans-Serif" font-size="10.00">NavierStokes.hpp</text>
</a>
</g>
</g>
<!-- Node23&#45;&gt;Node59 -->
<g id="edge148" class="edge">
<title>Node23&#45;&gt;Node59</title>
<path fill="none" stroke="#63b8ff" d="M1232.14,-618.37C1044.53,-616.28 593.1,-607.29 446.23,-569 353.9,-544.93 255.19,-486.22 212.7,-459.12"/>
<polygon fill="#63b8ff" stroke="#63b8ff" points="214.36,-456.03 204.06,-453.55 210.56,-461.91 214.36,-456.03"/>
</g>
<!-- Node60 -->
<g id="node45" class="node">
<title>Node60</title>
<g id="a_node45"><a xlink:href="_incompressible_lin_elast_8hpp.html" target="_top" xlink:title=" ">
<polygon fill="#fff0f0" stroke="red" points="795.23,-514 645.23,-514 645.23,-495 795.23,-495 795.23,-514"/>
<text text-anchor="middle" x="720.23" y="-502" font-family="Helvetica,sans-Serif" font-size="10.00">IncompressibleLinElast.hpp</text>
</a>
</g>
</g>
<!-- Node23&#45;&gt;Node60 -->
<g id="edge152" class="edge">
<title>Node23&#45;&gt;Node60</title>
<path fill="none" stroke="#63b8ff" d="M1241.68,-604.97C1120.74,-581.9 882.62,-536.48 775.15,-515.98"/>
<polygon fill="#63b8ff" stroke="#63b8ff" points="775.65,-512.51 765.17,-514.07 774.34,-519.38 775.65,-512.51"/>
</g>
<!-- Node61 -->
<g id="node46" class="node">
<title>Node61</title>
<g id="a_node46"><a xlink:title=" ">
<polygon fill="#e0e0e0" stroke="#999999" points="589.23,-569 545.23,-569 545.23,-550 589.23,-550 589.23,-569"/>
<text text-anchor="middle" x="567.23" y="-557" font-family="Helvetica,sans-Serif" font-size="10.00">string</text>
</a>
</g>
</g>
<!-- Node23&#45;&gt;Node61 -->
<g id="edge160" class="edge">
<title>Node23&#45;&gt;Node61</title>
<path fill="none" stroke="#63b8ff" d="M1231.99,-617.51C1098.58,-614.15 828.95,-603.34 603.23,-569 601.98,-568.81 600.71,-568.6 599.43,-568.37"/>
<polygon fill="#63b8ff" stroke="#63b8ff" points="600.09,-564.93 589.59,-566.37 598.7,-571.79 600.09,-564.93"/>
</g>
<!-- Node24&#45;&gt;Node4 -->
<g id="edge49" class="edge">
<title>Node24&#45;&gt;Node4</title>
<path fill="none" stroke="#63b8ff" d="M2157.31,-494.97C2231.21,-462.31 2488.39,-337.03 2578.23,-140 2593.91,-105.63 2602.61,-83.86 2578.23,-55 2551.69,-23.57 2434.97,-14.33 2366.61,-11.62"/>
<polygon fill="#63b8ff" stroke="#63b8ff" points="2366.6,-8.12 2356.48,-11.26 2366.34,-15.12 2366.6,-8.12"/>
</g>
<!-- Node24&#45;&gt;Node12 -->
<g id="edge50" class="edge">
<title>Node24&#45;&gt;Node12</title>
<path fill="none" stroke="#63b8ff" d="M2140.94,-494.71C2146.9,-480.71 2159.06,-452.51 2170.23,-429 2232.1,-298.85 2283.64,-280.14 2317.23,-140 2331.16,-81.92 2233.97,-71.85 2180.22,-70.66"/>
<polygon fill="#63b8ff" stroke="#63b8ff" points="2180.14,-67.16 2170.1,-70.53 2180.05,-74.15 2180.14,-67.16"/>
</g>
<!-- Node24&#45;&gt;Node20 -->
<g id="edge53" class="edge">
<title>Node24&#45;&gt;Node20</title>
<path fill="none" stroke="#63b8ff" d="M2143.88,-494.99C2170.97,-460.15 2275.18,-324.64 2350.23,-206 2362.28,-186.95 2375.07,-164.47 2383.54,-149.22"/>
<polygon fill="#63b8ff" stroke="#63b8ff" points="2386.67,-150.8 2388.43,-140.35 2380.54,-147.42 2386.67,-150.8"/>
</g>
<!-- Node24&#45;&gt;Node22 -->
<g id="edge51" class="edge">
<title>Node24&#45;&gt;Node22</title>
<path fill="none" stroke="#63b8ff" d="M2136.97,-494.75C2136.42,-465.33 2137.34,-367.79 2170.23,-297 2178.78,-278.62 2186.25,-277.34 2198.23,-261 2215.81,-237.04 2220.48,-231.19 2236.23,-206 2248.12,-187 2260.59,-164.51 2268.82,-149.24"/>
<polygon fill="#63b8ff" stroke="#63b8ff" points="2271.94,-150.84 2273.57,-140.37 2265.77,-147.53 2271.94,-150.84"/>
</g>
<!-- Node24&#45;&gt;Node25 -->
<g id="edge29" class="edge">
<title>Node24&#45;&gt;Node25</title>
<path fill="none" stroke="#63b8ff" d="M2114.99,-494.99C2088.93,-485.03 2045.56,-468.45 2015.97,-457.13"/>
<polygon fill="#63b8ff" stroke="#63b8ff" points="2017.1,-453.82 2006.51,-453.52 2014.6,-460.36 2017.1,-453.82"/>
</g>
<!-- Node26 -->
<g id="node19" class="node">
<title>Node26</title>
<g id="a_node19"><a xlink:href="_element_assembly_values_8hpp.html" target="_top" xlink:title=" ">
<polygon fill="white" stroke="#666666" points="1851.73,-327 1696.73,-327 1696.73,-297 1851.73,-297 1851.73,-327"/>
<text text-anchor="start" x="1704.73" y="-315" font-family="Helvetica,sans-Serif" font-size="10.00">polyfem/assembler/Element</text>
<text text-anchor="middle" x="1774.23" y="-304" font-family="Helvetica,sans-Serif" font-size="10.00">AssemblyValues.hpp</text>
</a>
</g>
</g>
<!-- Node24&#45;&gt;Node26 -->
<g id="edge34" class="edge">
<title>Node24&#45;&gt;Node26</title>
<path fill="none" stroke="#63b8ff" d="M2130.15,-494.55C2117.66,-479.29 2090.29,-448.03 2061.23,-429 1989.47,-382.01 1895.63,-348.52 1835.13,-329.96"/>
<polygon fill="#63b8ff" stroke="#63b8ff" points="1835.93,-326.55 1825.35,-327 1833.91,-333.25 1835.93,-326.55"/>
</g>
<!-- Node24&#45;&gt;Node27 -->
<g id="edge35" class="edge">
<title>Node24&#45;&gt;Node27</title>
<path fill="none" stroke="#63b8ff" d="M2173.94,-494.94C2268.46,-472.9 2520.13,-414.23 2624.68,-389.85"/>
<polygon fill="#63b8ff" stroke="#63b8ff" points="2625.68,-393.21 2634.63,-387.53 2624.09,-386.4 2625.68,-393.21"/>
</g>
<!-- Node28 -->
<g id="node21" class="node">
<title>Node28</title>
<g id="a_node21"><a xlink:href="_elasticity_utils_8hpp.html" target="_top" xlink:title=" ">
<polygon fill="#fff0f0" stroke="red" points="1403.73,-459 1274.73,-459 1274.73,-429 1403.73,-429 1403.73,-459"/>
<text text-anchor="start" x="1282.73" y="-447" font-family="Helvetica,sans-Serif" font-size="10.00">polyfem/utils/Elasticity</text>
<text text-anchor="middle" x="1339.23" y="-436" font-family="Helvetica,sans-Serif" font-size="10.00">Utils.hpp</text>
</a>
</g>
</g>
<!-- Node24&#45;&gt;Node28 -->
<g id="edge40" class="edge">
<title>Node24&#45;&gt;Node28</title>
<path fill="none" stroke="#63b8ff" d="M2092.62,-500.23C1961.74,-490.63 1577.77,-462.49 1414.3,-450.5"/>
<polygon fill="#63b8ff" stroke="#63b8ff" points="1414.09,-446.98 1403.86,-449.74 1413.58,-453.96 1414.09,-446.98"/>
</g>
<!-- Node24&#45;&gt;Node33 -->
<g id="edge52" class="edge">
<title>Node24&#45;&gt;Node33</title>
<path fill="none" stroke="#63b8ff" d="M2181.89,-497.34C2240.4,-489.16 2346.16,-474 2436.23,-459 2450.12,-456.69 2465.4,-453.92 2478.59,-451.46"/>
<polygon fill="#63b8ff" stroke="#63b8ff" points="2479.47,-454.85 2488.65,-449.56 2478.17,-447.97 2479.47,-454.85"/>
</g>
<!-- Node25&#45;&gt;Node26 -->
<g id="edge30" class="edge">
<title>Node25&#45;&gt;Node26</title>
<path fill="none" stroke="#63b8ff" d="M1970.46,-434.47C1937.26,-413.92 1852.19,-361.26 1805.71,-332.49"/>
<polygon fill="#63b8ff" stroke="#63b8ff" points="1807.3,-329.35 1796.96,-327.07 1803.62,-335.31 1807.3,-329.35"/>
</g>
<!-- Node26&#45;&gt;Node6 -->
<g id="edge32" class="edge">
<title>Node26&#45;&gt;Node6</title>
<path fill="none" stroke="#63b8ff" d="M1737.35,-296.99C1711.54,-287.18 1677.39,-274.21 1652.63,-264.81"/>
<polygon fill="#63b8ff" stroke="#63b8ff" points="1653.57,-261.42 1642.98,-261.14 1651.08,-267.96 1653.57,-261.42"/>
</g>
<!-- Node26&#45;&gt;Node12 -->
<g id="edge33" class="edge">
<title>Node26&#45;&gt;Node12</title>
<path fill="none" stroke="#63b8ff" d="M1821.33,-296.96C1890.41,-274.23 2019.62,-223.32 2099.23,-140 2114.2,-124.33 2127.72,-103.43 2136.37,-88.75"/>
<polygon fill="#63b8ff" stroke="#63b8ff" points="2139.61,-90.14 2141.54,-79.73 2133.54,-86.66 2139.61,-90.14"/>
</g>
<!-- Node26&#45;&gt;Node21 -->
<g id="edge31" class="edge">
<title>Node26&#45;&gt;Node21</title>
<path fill="none" stroke="#63b8ff" d="M1778.39,-296.88C1784.25,-276.93 1795.05,-240.22 1802.19,-215.96"/>
<polygon fill="#63b8ff" stroke="#63b8ff" points="1805.62,-216.68 1805.09,-206.1 1798.91,-214.71 1805.62,-216.68"/>
</g>
<!-- Node27&#45;&gt;Node3 -->
<g id="edge36" class="edge">
<title>Node27&#45;&gt;Node3</title>
<path fill="none" stroke="#63b8ff" d="M2626.86,-368.45C2579.47,-359.1 2502.25,-343.29 2436.23,-327 2195.53,-267.62 2143.86,-216.29 1899.23,-176 1750.75,-151.54 1300.13,-137.81 1122.92,-133.24"/>
<polygon fill="#63b8ff" stroke="#63b8ff" points="1123,-129.74 1112.92,-132.98 1122.82,-136.74 1123,-129.74"/>
</g>
<!-- Node27&#45;&gt;Node4 -->
<g id="edge39" class="edge">
<title>Node27&#45;&gt;Node4</title>
<path fill="none" stroke="#63b8ff" d="M2693.83,-368.43C2745.58,-347.17 2868.23,-286.77 2868.23,-192 2868.23,-192 2868.23,-192 2868.23,-129.5 2868.23,-86.42 2844.37,-75.03 2806.23,-55 2730.87,-15.41 2475.82,-10.49 2366.57,-10.26"/>
<polygon fill="#63b8ff" stroke="#63b8ff" points="2366.47,-6.76 2356.47,-10.25 2366.47,-13.76 2366.47,-6.76"/>
</g>
<!-- Node27&#45;&gt;Node9 -->
<g id="edge38" class="edge">
<title>Node27&#45;&gt;Node9</title>
<path fill="none" stroke="#63b8ff" d="M2682.43,-368.36C2705.08,-349.81 2754.23,-303.68 2754.23,-252.5 2754.23,-252.5 2754.23,-252.5 2754.23,-190 2754.23,-123.97 2747.26,-91.48 2692.23,-55 2632.53,-15.42 1534.78,-11.04 1288.85,-10.56"/>
<polygon fill="#63b8ff" stroke="#63b8ff" points="1288.79,-7.06 1278.78,-10.54 1288.78,-14.06 1288.79,-7.06"/>
</g>
<!-- Node27&#45;&gt;Node10 -->
<g id="edge37" class="edge">
<title>Node27&#45;&gt;Node10</title>
<path fill="none" stroke="#63b8ff" d="M2667.41,-368.31C2650.33,-330.66 2576.82,-180.76 2464.23,-121 2442.1,-109.25 2109.14,-86.11 1955.22,-75.96"/>
<polygon fill="#63b8ff" stroke="#63b8ff" points="1955.11,-72.45 1944.9,-75.28 1954.65,-79.43 1955.11,-72.45"/>
</g>
<!-- Node28&#45;&gt;Node3 -->
<g id="edge41" class="edge">
<title>Node28&#45;&gt;Node3</title>
<path fill="none" stroke="#63b8ff" d="M1316.54,-428.95C1302.44,-419.65 1284.37,-406.69 1270.23,-393 1182.63,-308.13 1186.34,-264.33 1102.23,-176 1092.12,-165.38 1079.67,-154.65 1069.49,-146.39"/>
<polygon fill="#63b8ff" stroke="#63b8ff" points="1071.57,-143.58 1061.57,-140.09 1067.22,-149.06 1071.57,-143.58"/>
</g>
<!-- Node28&#45;&gt;Node6 -->
<g id="edge44" class="edge">
<title>Node28&#45;&gt;Node6</title>
<path fill="none" stroke="#63b8ff" d="M1351,-428.99C1375.61,-400.47 1435.47,-335.16 1498.23,-297 1522.45,-282.28 1552.29,-271.29 1576.4,-263.91"/>
<polygon fill="#63b8ff" stroke="#63b8ff" points="1577.41,-267.26 1586.01,-261.07 1575.43,-260.55 1577.41,-267.26"/>
</g>
<!-- Node28&#45;&gt;Node9 -->
<g id="edge47" class="edge">
<title>Node28&#45;&gt;Node9</title>
<path fill="none" stroke="#63b8ff" d="M1335.94,-428.61C1321.16,-364.05 1260.99,-101.16 1244.45,-28.94"/>
<polygon fill="#63b8ff" stroke="#63b8ff" points="1247.83,-28.01 1242.19,-19.04 1241.01,-29.57 1247.83,-28.01"/>
</g>
<!-- Node28&#45;&gt;Node10 -->
<g id="edge45" class="edge">
<title>Node28&#45;&gt;Node10</title>
<path fill="none" stroke="#63b8ff" d="M1338.65,-428.77C1338.4,-412.49 1339.25,-385.21 1346.23,-363 1377.48,-263.71 1406.57,-241.79 1487.23,-176 1577.91,-102.04 1716.01,-79.87 1801.5,-73.41"/>
<polygon fill="#63b8ff" stroke="#63b8ff" points="1801.93,-76.89 1811.66,-72.69 1801.44,-69.9 1801.93,-76.89"/>
</g>
<!-- Node28&#45;&gt;Node12 -->
<g id="edge48" class="edge">
<title>Node28&#45;&gt;Node12</title>
<path fill="none" stroke="#63b8ff" d="M1345.11,-428.87C1352.42,-412.2 1365.95,-384.09 1382.23,-363 1432.29,-298.17 1445.4,-272.95 1521.23,-242 1677.48,-178.23 1737.89,-255.48 1899.23,-206 1946.19,-191.6 2071.67,-116.6 2123.42,-85.03"/>
<polygon fill="#63b8ff" stroke="#63b8ff" points="2125.49,-87.87 2132.2,-79.66 2121.84,-81.89 2125.49,-87.87"/>
</g>
<!-- Node28&#45;&gt;Node27 -->
<g id="edge46" class="edge">
<title>Node28&#45;&gt;Node27</title>
<path fill="none" stroke="#63b8ff" d="M1403.93,-439.89C1621.81,-429.42 2329.26,-395.43 2581.16,-383.33"/>
<polygon fill="#63b8ff" stroke="#63b8ff" points="2581.55,-386.81 2591.37,-382.84 2581.21,-379.82 2581.55,-386.81"/>
</g>
<!-- Node29 -->
<g id="node22" class="node">
<title>Node29</title>
<g id="a_node22"><a xlink:href="_assembler_data_8hpp.html" target="_top" xlink:title=" ">
<polygon fill="white" stroke="#666666" points="838.23,-393 672.23,-393 672.23,-363 838.23,-363 838.23,-393"/>
<text text-anchor="start" x="680.23" y="-381" font-family="Helvetica,sans-Serif" font-size="10.00">polyfem/assembler/Assembler</text>
<text text-anchor="middle" x="755.23" y="-370" font-family="Helvetica,sans-Serif" font-size="10.00">Data.hpp</text>
</a>
</g>
</g>
<!-- Node28&#45;&gt;Node29 -->
<g id="edge42" class="edge">
<title>Node28&#45;&gt;Node29</title>
<path fill="none" stroke="#63b8ff" d="M1274.58,-435.12C1257.56,-433.08 1239.21,-430.92 1222.23,-429 1092.66,-414.31 942.73,-398.46 848.44,-388.64"/>
<polygon fill="#63b8ff" stroke="#63b8ff" points="848.67,-385.14 838.36,-387.59 847.95,-392.1 848.67,-385.14"/>
</g>
<!-- Node29&#45;&gt;Node26 -->
<g id="edge43" class="edge">
<title>Node29&#45;&gt;Node26</title>
<path fill="none" stroke="#63b8ff" d="M838.62,-371.76C1028.56,-359.83 1491.93,-330.73 1686.22,-318.53"/>
<polygon fill="#63b8ff" stroke="#63b8ff" points="1686.63,-322.01 1696.39,-317.89 1686.19,-315.02 1686.63,-322.01"/>
</g>
<!-- Node35&#45;&gt;Node3 -->
<g id="edge60" class="edge">
<title>Node35&#45;&gt;Node3</title>
<path fill="none" stroke="#63b8ff" d="M993.59,-494.73C983.93,-486.67 970.89,-473.74 965.23,-459 960.46,-446.55 963.59,-442.23 965.23,-429 979.57,-313.9 990.08,-285.18 1029.23,-176 1032.48,-166.95 1036.93,-157.26 1040.89,-149.24"/>
<polygon fill="#63b8ff" stroke="#63b8ff" points="1044.11,-150.65 1045.54,-140.15 1037.87,-147.47 1044.11,-150.65"/>
</g>
<!-- Node35&#45;&gt;Node9 -->
<g id="edge62" class="edge">
<title>Node35&#45;&gt;Node9</title>
<path fill="none" stroke="#63b8ff" d="M994.23,-494.92C984.12,-486.59 969.23,-473.16 959.23,-459 922.09,-406.34 912.88,-389.98 899.23,-327 873.39,-207.7 849.13,-139.48 937.23,-55 972.7,-21 1114.87,-12.9 1191.2,-11.02"/>
<polygon fill="#63b8ff" stroke="#63b8ff" points="1191.59,-14.51 1201.51,-10.8 1191.44,-7.52 1191.59,-14.51"/>
</g>
<!-- Node35&#45;&gt;Node28 -->
<g id="edge61" class="edge">
<title>Node35&#45;&gt;Node28</title>
<path fill="none" stroke="#63b8ff" d="M1037.09,-496.61C1039.84,-496.05 1042.58,-495.51 1045.23,-495 1119.63,-480.78 1205,-466.48 1264.51,-456.84"/>
<polygon fill="#63b8ff" stroke="#63b8ff" points="1265.26,-460.27 1274.57,-455.22 1264.14,-453.36 1265.26,-460.27"/>
</g>
<!-- Node35&#45;&gt;Node29 -->
<g id="edge55" class="edge">
<title>Node35&#45;&gt;Node29</title>
<path fill="none" stroke="#63b8ff" d="M973.46,-496.88C970.34,-496.24 967.23,-495.6 964.23,-495 882.55,-478.54 842.3,-514.6 780.23,-459 764.54,-444.94 758.6,-421.2 756.41,-403.22"/>
<polygon fill="#63b8ff" stroke="#63b8ff" points="759.88,-402.8 755.48,-393.17 752.91,-403.44 759.88,-402.8"/>
</g>
<!-- Node36 -->
<g id="node25" class="node">
<title>Node36</title>
<g id="a_node25"><a xlink:href="_mat_params_8hpp.html" target="_top" xlink:title=" ">
<polygon fill="#fff0f0" stroke="red" points="1066.23,-453.5 974.23,-453.5 974.23,-434.5 1066.23,-434.5 1066.23,-453.5"/>
<text text-anchor="middle" x="1020.23" y="-441.5" font-family="Helvetica,sans-Serif" font-size="10.00">MatParams.hpp</text>
</a>
</g>
</g>
<!-- Node35&#45;&gt;Node36 -->
<g id="edge56" class="edge">
<title>Node35&#45;&gt;Node36</title>
<path fill="none" stroke="#63b8ff" d="M1007.45,-494.87C1009.55,-486.66 1012.79,-474.04 1015.48,-463.55"/>
<polygon fill="#63b8ff" stroke="#63b8ff" points="1018.92,-464.22 1018.01,-453.67 1012.14,-462.48 1018.92,-464.22"/>
</g>
<!-- Node36&#45;&gt;Node3 -->
<g id="edge57" class="edge">
<title>Node36&#45;&gt;Node3</title>
<path fill="none" stroke="#63b8ff" d="M1022.94,-434.26C1025.87,-424.36 1030.36,-407.7 1032.23,-393 1044.45,-297.32 1020.71,-271.2 1036.23,-176 1037.67,-167.21 1040.45,-157.75 1043.17,-149.83"/>
<polygon fill="#63b8ff" stroke="#63b8ff" points="1046.55,-150.78 1046.68,-140.18 1039.97,-148.38 1046.55,-150.78"/>
</g>
<!-- Node36&#45;&gt;Node9 -->
<g id="edge59" class="edge">
<title>Node36&#45;&gt;Node9</title>
<path fill="none" stroke="#63b8ff" d="M1015.29,-434.36C988.84,-386.96 869.62,-156.88 986.23,-55 1016.16,-28.86 1126.7,-17.57 1191.68,-13.11"/>
<polygon fill="#63b8ff" stroke="#63b8ff" points="1191.95,-16.6 1201.69,-12.45 1191.49,-9.62 1191.95,-16.6"/>
</g>
<!-- Node36&#45;&gt;Node10 -->
<g id="edge58" class="edge">
<title>Node36&#45;&gt;Node10</title>
<path fill="none" stroke="#63b8ff" d="M1017.35,-434.27C1002.19,-387.59 933.97,-167.79 978.23,-121 979.12,-120.07 1583.7,-87.05 1801.33,-75.19"/>
<polygon fill="#63b8ff" stroke="#63b8ff" points="1801.6,-78.68 1811.4,-74.64 1801.22,-71.69 1801.6,-78.68"/>
</g>
<!-- Node38&#45;&gt;Node3 -->
<g id="edge65" class="edge">
<title>Node38&#45;&gt;Node3</title>
<path fill="none" stroke="#63b8ff" d="M506.07,-434.41C527.83,-415.37 581.54,-368.03 625.23,-327 695.11,-261.38 693.73,-219.34 779.23,-176 841.19,-144.59 920.39,-134.52 977.15,-131.67"/>
<polygon fill="#63b8ff" stroke="#63b8ff" points="977.64,-135.16 987.48,-131.22 977.33,-128.16 977.64,-135.16"/>
</g>
<!-- Node38&#45;&gt;Node9 -->
<g id="edge66" class="edge">
<title>Node38&#45;&gt;Node9</title>
<path fill="none" stroke="#63b8ff" d="M489.44,-434.47C469.62,-408.67 413.23,-328.62 413.23,-252.5 413.23,-252.5 413.23,-252.5 413.23,-129.5 413.23,-94.71 409.69,-76.25 437.23,-55 496.86,-8.99 1026.39,-8.93 1191.38,-10.04"/>
<polygon fill="#63b8ff" stroke="#63b8ff" points="1191.68,-13.54 1201.71,-10.12 1191.73,-6.54 1191.68,-13.54"/>
</g>
<!-- Node38&#45;&gt;Node29 -->
<g id="edge64" class="edge">
<title>Node38&#45;&gt;Node29</title>
<path fill="none" stroke="#63b8ff" d="M530.9,-434.44C571.08,-424.5 638.25,-407.91 688.64,-395.46"/>
<polygon fill="#63b8ff" stroke="#63b8ff" points="689.61,-398.82 698.48,-393.02 687.93,-392.03 689.61,-398.82"/>
</g>
<!-- Node39&#45;&gt;Node3 -->
<g id="edge69" class="edge">
<title>Node39&#45;&gt;Node3</title>
<path fill="none" stroke="#63b8ff" d="M88.26,-434.25C142.1,-395.61 367.56,-239.42 579.23,-176 651.72,-154.28 863.84,-140.78 977.06,-134.91"/>
<polygon fill="#63b8ff" stroke="#63b8ff" points="977.55,-138.39 987.36,-134.38 977.2,-131.4 977.55,-138.39"/>
</g>
<!-- Node39&#45;&gt;Node6 -->
<g id="edge70" class="edge">
<title>Node39&#45;&gt;Node6</title>
<path fill="none" stroke="#63b8ff" d="M106.92,-434.46C114.8,-432.47 123.29,-430.5 131.23,-429 365.37,-384.86 426.67,-391.33 663.23,-363 984.64,-324.51 1367.07,-281.06 1534.54,-262.15"/>
<polygon fill="#63b8ff" stroke="#63b8ff" points="1534.99,-265.62 1544.53,-261.02 1534.2,-258.66 1534.99,-265.62"/>
</g>
<!-- Node39&#45;&gt;Node9 -->
<g id="edge71" class="edge">
<title>Node39&#45;&gt;Node9</title>
<path fill="none" stroke="#63b8ff" d="M78.3,-434.23C83.03,-413.36 94.23,-359.03 94.23,-313 94.23,-313 94.23,-313 94.23,-129.5 94.23,-70.09 148.78,-73.52 205.23,-55 299.47,-24.08 999.64,-13.41 1191.65,-11.04"/>
<polygon fill="#63b8ff" stroke="#63b8ff" points="1191.77,-14.54 1201.73,-10.92 1191.69,-7.54 1191.77,-14.54"/>
</g>
<!-- Node39&#45;&gt;Node29 -->
<g id="edge68" class="edge">
<title>Node39&#45;&gt;Node29</title>
<path fill="none" stroke="#63b8ff" d="M106.01,-434.44C114.13,-432.38 122.97,-430.37 131.23,-429 318.03,-397.97 539.59,-386.02 662.08,-381.55"/>
<polygon fill="#63b8ff" stroke="#63b8ff" points="662.3,-385.04 672.17,-381.19 662.05,-378.05 662.3,-385.04"/>
</g>
<!-- Node40&#45;&gt;Node3 -->
<g id="edge74" class="edge">
<title>Node40&#45;&gt;Node3</title>
<path fill="none" stroke="#63b8ff" d="M410.22,-434.4C445.88,-416.9 527.32,-374.75 587.23,-327 659.76,-269.2 648.72,-218.32 731.23,-176 772.99,-154.59 897.09,-142.13 977.63,-136.08"/>
<polygon fill="#63b8ff" stroke="#63b8ff" points="977.99,-139.56 987.71,-135.34 977.48,-132.58 977.99,-139.56"/>
</g>
<!-- Node40&#45;&gt;Node9 -->
<g id="edge75" class="edge">
<title>Node40&#45;&gt;Node9</title>
<path fill="none" stroke="#63b8ff" d="M380.47,-434.37C356.07,-415.39 302.23,-367.35 302.23,-313 302.23,-313 302.23,-313 302.23,-129.5 302.23,-70.45 356.27,-73.83 412.23,-55 485.87,-30.23 1024.15,-15.59 1191.04,-11.61"/>
<polygon fill="#63b8ff" stroke="#63b8ff" points="1191.57,-15.1 1201.48,-11.36 1191.4,-8.1 1191.57,-15.1"/>
</g>
<!-- Node40&#45;&gt;Node29 -->
<g id="edge73" class="edge">
<title>Node40&#45;&gt;Node29</title>
<path fill="none" stroke="#63b8ff" d="M422.38,-434.49C429.82,-432.54 437.79,-430.58 445.23,-429 517.47,-413.67 600.06,-400.57 661.82,-391.62"/>
<polygon fill="#63b8ff" stroke="#63b8ff" points="662.53,-395.06 671.93,-390.17 661.53,-388.13 662.53,-395.06"/>
</g>
<!-- Node41&#45;&gt;Node3 -->
<g id="edge79" class="edge">
<title>Node41&#45;&gt;Node3</title>
<path fill="none" stroke="#63b8ff" d="M1108.81,-494.67C1101.08,-446.72 1064.07,-217.3 1053.23,-150.06"/>
<polygon fill="#63b8ff" stroke="#63b8ff" points="1056.67,-149.4 1051.62,-140.08 1049.76,-150.51 1056.67,-149.4"/>
</g>
<!-- Node41&#45;&gt;Node9 -->
<g id="edge81" class="edge">
<title>Node41&#45;&gt;Node9</title>
<path fill="none" stroke="#63b8ff" d="M1063.91,-494.92C1026.53,-487.02 978.11,-474.23 965.23,-459 867.9,-343.86 906.7,-268.85 936.23,-121 942.29,-90.68 934.64,-74.98 958.23,-55 992.61,-25.88 1120.39,-15.68 1191.57,-12.21"/>
<polygon fill="#63b8ff" stroke="#63b8ff" points="1191.81,-15.7 1201.64,-11.74 1191.49,-8.71 1191.81,-15.7"/>
</g>
<!-- Node41&#45;&gt;Node28 -->
<g id="edge80" class="edge">
<title>Node41&#45;&gt;Node28</title>
<path fill="none" stroke="#63b8ff" d="M1143.53,-494.99C1177.71,-486.26 1231.78,-472.45 1274.43,-461.55"/>
<polygon fill="#63b8ff" stroke="#63b8ff" points="1275.36,-464.93 1284.18,-459.06 1273.62,-458.15 1275.36,-464.93"/>
</g>
<!-- Node41&#45;&gt;Node29 -->
<g id="edge77" class="edge">
<title>Node41&#45;&gt;Node29</title>
<path fill="none" stroke="#63b8ff" d="M1059.44,-494.96C1005.45,-485.55 923.86,-470.24 894.23,-459 853.54,-443.56 810.71,-417.14 783.53,-398.91"/>
<polygon fill="#63b8ff" stroke="#63b8ff" points="785.18,-395.8 774.94,-393.07 781.24,-401.59 785.18,-395.8"/>
</g>
<!-- Node41&#45;&gt;Node36 -->
<g id="edge78" class="edge">
<title>Node41&#45;&gt;Node36</title>
<path fill="none" stroke="#63b8ff" d="M1096.95,-494.87C1082.6,-485.54 1059.48,-470.51 1042.36,-459.38"/>
<polygon fill="#63b8ff" stroke="#63b8ff" points="1043.86,-456.18 1033.57,-453.67 1040.05,-462.05 1043.86,-456.18"/>
</g>
<!-- Node42&#45;&gt;Node3 -->
<g id="edge85" class="edge">
<title>Node42&#45;&gt;Node3</title>
<path fill="none" stroke="#63b8ff" d="M839.1,-494.96C761.82,-478.19 616.73,-436.07 663.23,-363 683.52,-331.13 707.08,-345.11 740.23,-327 852.76,-265.53 980.22,-179.7 1029.37,-145.95"/>
<polygon fill="#63b8ff" stroke="#63b8ff" points="1031.63,-148.64 1037.88,-140.09 1027.66,-142.88 1031.63,-148.64"/>
</g>
<!-- Node42&#45;&gt;Node9 -->
<g id="edge87" class="edge">
<title>Node42&#45;&gt;Node9</title>
<path fill="none" stroke="#63b8ff" d="M821.37,-494.99C768.24,-486.94 696.94,-473.92 672.23,-459 540.36,-379.39 451.23,-346.04 451.23,-192 451.23,-192 451.23,-192 451.23,-129.5 451.23,-54.24 1019.77,-21 1191.62,-12.68"/>
<polygon fill="#63b8ff" stroke="#63b8ff" points="1191.82,-16.17 1201.64,-12.2 1191.49,-9.18 1191.82,-16.17"/>
</g>
<!-- Node42&#45;&gt;Node28 -->
<g id="edge86" class="edge">
<title>Node42&#45;&gt;Node28</title>
<path fill="none" stroke="#63b8ff" d="M950.4,-494.99C1033.85,-484.26 1176.98,-465.86 1264.36,-454.63"/>
<polygon fill="#63b8ff" stroke="#63b8ff" points="1264.99,-458.07 1274.47,-453.33 1264.1,-451.13 1264.99,-458.07"/>
</g>
<!-- Node42&#45;&gt;Node29 -->
<g id="edge83" class="edge">
<title>Node42&#45;&gt;Node29</title>
<path fill="none" stroke="#63b8ff" d="M837.26,-494.96C800.49,-487.21 753.71,-474.62 742.23,-459 730.33,-442.79 735.77,-419.74 742.9,-402.54"/>
<polygon fill="#63b8ff" stroke="#63b8ff" points="746.2,-403.74 747.18,-393.19 739.84,-400.83 746.2,-403.74"/>
</g>
<!-- Node42&#45;&gt;Node36 -->
<g id="edge84" class="edge">
<title>Node42&#45;&gt;Node36</title>
<path fill="none" stroke="#63b8ff" d="M904.01,-494.99C926.87,-485.16 964.72,-468.88 990.99,-457.58"/>
<polygon fill="#63b8ff" stroke="#63b8ff" points="992.63,-460.68 1000.43,-453.52 989.87,-454.25 992.63,-460.68"/>
</g>
<!-- Node43&#45;&gt;Node3 -->
<g id="edge90" class="edge">
<title>Node43&#45;&gt;Node3</title>
<path fill="none" stroke="#63b8ff" d="M1445.23,-494.63C1440.02,-480.01 1428.29,-450.35 1412.23,-429 1311.02,-294.43 1267.33,-273.76 1130.23,-176 1113.62,-164.16 1093.56,-153 1077.68,-144.82"/>
<polygon fill="#63b8ff" stroke="#63b8ff" points="1078.9,-141.52 1068.4,-140.14 1075.75,-147.77 1078.9,-141.52"/>
</g>
<!-- Node43&#45;&gt;Node6 -->
<g id="edge93" class="edge">
<title>Node43&#45;&gt;Node6</title>
<path fill="none" stroke="#63b8ff" d="M1469.34,-494.9C1485.53,-487.41 1507.54,-475.22 1522.23,-459 1574.62,-401.19 1604.34,-310.39 1615.31,-271.36"/>
<polygon fill="#63b8ff" stroke="#63b8ff" points="1618.78,-271.96 1618.02,-261.4 1612.02,-270.13 1618.78,-271.96"/>
</g>
<!-- Node43&#45;&gt;Node9 -->
<g id="edge95" class="edge">
<title>Node43&#45;&gt;Node9</title>
<path fill="none" stroke="#63b8ff" d="M1447.4,-494.62C1445.92,-480.48 1442.29,-452.11 1435.23,-429 1382.07,-254.9 1354.03,-215.55 1268.23,-55 1263.29,-45.74 1257.13,-35.82 1251.86,-27.7"/>
<polygon fill="#63b8ff" stroke="#63b8ff" points="1254.63,-25.55 1246.19,-19.15 1248.79,-29.42 1254.63,-25.55"/>
</g>
<!-- Node43&#45;&gt;Node10 -->
<g id="edge94" class="edge">
<title>Node43&#45;&gt;Node10</title>
<path fill="none" stroke="#63b8ff" d="M1518.33,-496.75C1562.89,-490.7 1621.05,-479.47 1669.23,-459 1735.4,-430.89 1918.23,-324.39 1918.23,-252.5 1918.23,-252.5 1918.23,-252.5 1918.23,-190 1918.23,-152.39 1900.06,-111.41 1888.21,-88.69"/>
<polygon fill="#63b8ff" stroke="#63b8ff" points="1891.14,-86.75 1883.3,-79.62 1884.98,-90.08 1891.14,-86.75"/>
</g>
<!-- Node43&#45;&gt;Node26 -->
<g id="edge92" class="edge">
<title>Node43&#45;&gt;Node26</title>
<path fill="none" stroke="#63b8ff" d="M1518.57,-497.09C1555.62,-491.27 1600.63,-480.17 1636.23,-459 1685.47,-429.73 1682.45,-404.21 1722.23,-363 1731.61,-353.29 1742.31,-342.89 1751.56,-334.1"/>
<polygon fill="#63b8ff" stroke="#63b8ff" points="1754.05,-336.56 1758.93,-327.15 1749.25,-331.47 1754.05,-336.56"/>
</g>
<!-- Node43&#45;&gt;Node28 -->
<g id="edge91" class="edge">
<title>Node43&#45;&gt;Node28</title>
<path fill="none" stroke="#63b8ff" d="M1432.15,-494.87C1417.02,-486.75 1393.85,-474.31 1374.43,-463.89"/>
<polygon fill="#63b8ff" stroke="#63b8ff" points="1376,-460.76 1365.53,-459.11 1372.69,-466.93 1376,-460.76"/>
</g>
<!-- Node43&#45;&gt;Node36 -->
<g id="edge89" class="edge">
<title>Node43&#45;&gt;Node36</title>
<path fill="none" stroke="#63b8ff" d="M1386,-494.99C1302.9,-483.64 1156.91,-463.68 1076.8,-452.73"/>
<polygon fill="#63b8ff" stroke="#63b8ff" points="1076.8,-449.2 1066.42,-451.31 1075.85,-456.13 1076.8,-449.2"/>
</g>
<!-- Node44&#45;&gt;Node3 -->
<g id="edge99" class="edge">
<title>Node44&#45;&gt;Node3</title>
<path fill="none" stroke="#63b8ff" d="M1640.67,-494.91C1625.05,-471.31 1578.49,-404.48 1526.23,-363 1381.86,-248.39 1171.48,-171.25 1087.18,-143.23"/>
<polygon fill="#63b8ff" stroke="#63b8ff" points="1088.13,-139.86 1077.54,-140.06 1085.94,-146.51 1088.13,-139.86"/>
</g>
<!-- Node44&#45;&gt;Node6 -->
<g id="edge101" class="edge">
<title>Node44&#45;&gt;Node6</title>
<path fill="none" stroke="#63b8ff" d="M1645.34,-494.86C1641.63,-459.03 1627.4,-321.66 1622.17,-271.22"/>
<polygon fill="#63b8ff" stroke="#63b8ff" points="1625.64,-270.69 1621.13,-261.1 1618.67,-271.41 1625.64,-270.69"/>
</g>
<!-- Node44&#45;&gt;Node9 -->
<g id="edge103" class="edge">
<title>Node44&#45;&gt;Node9</title>
<path fill="none" stroke="#63b8ff" d="M1698.93,-494.95C1733.43,-488.1 1778.86,-476.67 1816.23,-459 2034.18,-355.93 2344.62,-229.47 2178.23,-55 2147.3,-22.56 1477,-13.01 1288.92,-10.97"/>
<polygon fill="#63b8ff" stroke="#63b8ff" points="1288.81,-7.47 1278.77,-10.86 1288.73,-14.47 1288.81,-7.47"/>
</g>
<!-- Node44&#45;&gt;Node10 -->
<g id="edge102" class="edge">
<title>Node44&#45;&gt;Node10</title>
<path fill="none" stroke="#63b8ff" d="M1678.25,-494.99C1740.57,-476.5 1876.94,-426.1 1932.23,-327 1976.84,-247.05 1968.89,-204.9 1932.23,-121 1925.88,-106.45 1912.96,-94.24 1901.35,-85.53"/>
<polygon fill="#63b8ff" stroke="#63b8ff" points="1903.06,-82.45 1892.86,-79.57 1899.04,-88.18 1903.06,-82.45"/>
</g>
<!-- Node44&#45;&gt;Node28 -->
<g id="edge100" class="edge">
<title>Node44&#45;&gt;Node28</title>
<path fill="none" stroke="#63b8ff" d="M1601.59,-494.99C1552.39,-485.62 1472.44,-470.38 1413.71,-459.19"/>
<polygon fill="#63b8ff" stroke="#63b8ff" points="1414.21,-455.72 1403.74,-457.29 1412.9,-462.6 1414.21,-455.72"/>
</g>
<!-- Node44&#45;&gt;Node29 -->
<g id="edge97" class="edge">
<title>Node44&#45;&gt;Node29</title>
<path fill="none" stroke="#63b8ff" d="M1574.5,-495.99C1497.83,-487.77 1372.78,-473.76 1265.23,-459 1180.54,-447.37 1159.69,-442.27 1075.23,-429 998.91,-417.01 912.33,-403.49 848.5,-393.53"/>
<polygon fill="#63b8ff" stroke="#63b8ff" points="848.87,-390.05 838.45,-391.97 847.79,-396.96 848.87,-390.05"/>
</g>
<!-- Node44&#45;&gt;Node36 -->
<g id="edge98" class="edge">
<title>Node44&#45;&gt;Node36</title>
<path fill="none" stroke="#63b8ff" d="M1574.73,-496.82C1449.05,-485.07 1191.05,-460.96 1076.81,-450.29"/>
<polygon fill="#63b8ff" stroke="#63b8ff" points="1076.82,-446.77 1066.54,-449.33 1076.17,-453.74 1076.82,-446.77"/>
</g>
<!-- Node45&#45;&gt;Node3 -->
<g id="edge108" class="edge">
<title>Node45&#45;&gt;Node3</title>
<path fill="none" stroke="#63b8ff" d="M2381,-494.99C2314.55,-460.38 2056.37,-327.93 1834.23,-242 1784.28,-222.68 1769.77,-223.73 1719.23,-206 1684.58,-193.84 1678.05,-184.13 1642.23,-176 1545.38,-154.01 1258.82,-139.91 1123.1,-134.28"/>
<polygon fill="#63b8ff" stroke="#63b8ff" points="1122.94,-130.77 1112.8,-133.86 1122.65,-137.77 1122.94,-130.77"/>
</g>
<!-- Node45&#45;&gt;Node9 -->
<g id="edge109" class="edge">
<title>Node45&#45;&gt;Node9</title>
<path fill="none" stroke="#63b8ff" d="M2471,-494.95C2496.87,-488.67 2524.39,-477.79 2544.23,-459 2552.73,-450.95 2614.2,-272.53 2616.23,-261 2622.79,-223.8 2621.96,-213.34 2616.23,-176 2607.69,-120.28 2623.11,-89.11 2578.23,-55 2525.98,-15.29 1524.06,-11.01 1289.2,-10.55"/>
<polygon fill="#63b8ff" stroke="#63b8ff" points="1288.93,-7.05 1278.92,-10.54 1288.91,-14.05 1288.93,-7.05"/>
</g>
<!-- Node45&#45;&gt;Node10 -->
<g id="edge106" class="edge">
<title>Node45&#45;&gt;Node10</title>
<path fill="none" stroke="#63b8ff" d="M2402.05,-494.8C2426.69,-448.95 2533.76,-233.22 2431.23,-121 2415.4,-103.67 2103.39,-83.76 1955.17,-75.23"/>
<polygon fill="#63b8ff" stroke="#63b8ff" points="1954.97,-71.72 1944.78,-74.64 1954.57,-78.7 1954.97,-71.72"/>
</g>
<!-- Node45&#45;&gt;Node12 -->
<g id="edge111" class="edge">
<title>Node45&#45;&gt;Node12</title>
<path fill="none" stroke="#63b8ff" d="M2406.85,-494.95C2447.38,-458.49 2602.23,-315.09 2602.23,-252.5 2602.23,-252.5 2602.23,-252.5 2602.23,-190 2602.23,-102.69 2285.31,-78.25 2179.88,-72.54"/>
<polygon fill="#63b8ff" stroke="#63b8ff" points="2179.96,-69.03 2169.79,-72.01 2179.6,-76.02 2179.96,-69.03"/>
</g>
<!-- Node45&#45;&gt;Node22 -->
<g id="edge110" class="edge">
<title>Node45&#45;&gt;Node22</title>
<path fill="none" stroke="#63b8ff" d="M2390.69,-494.77C2384.51,-486.13 2375.45,-472.29 2370.23,-459 2323.36,-339.47 2365.44,-292.85 2312.23,-176 2307.62,-165.86 2300.32,-155.89 2293.67,-147.96"/>
<polygon fill="#63b8ff" stroke="#63b8ff" points="2296.11,-145.43 2286.87,-140.25 2290.86,-150.06 2296.11,-145.43"/>
</g>
<!-- Node45&#45;&gt;Node27 -->
<g id="edge107" class="edge">
<title>Node45&#45;&gt;Node27</title>
<path fill="none" stroke="#63b8ff" d="M2463.1,-494.94C2498.63,-488.48 2542.42,-477.45 2578.23,-459 2609.92,-442.67 2639.93,-413.5 2656.9,-395.26"/>
<polygon fill="#63b8ff" stroke="#63b8ff" points="2659.61,-397.48 2663.75,-387.73 2654.43,-392.77 2659.61,-397.48"/>
</g>
<!-- Node45&#45;&gt;Node36 -->
<g id="edge105" class="edge">
<title>Node45&#45;&gt;Node36</title>
<path fill="none" stroke="#63b8ff" d="M2322.98,-500.41C2283.55,-498.78 2234.26,-496.76 2190.23,-495 1779.14,-478.56 1676.18,-478.74 1265.23,-459 1200.48,-455.89 1126.13,-451.53 1076.49,-448.51"/>
<polygon fill="#63b8ff" stroke="#63b8ff" points="1076.47,-445 1066.28,-447.88 1076.05,-451.99 1076.47,-445"/>
</g>
<!-- Node48&#45;&gt;Node3 -->
<g id="edge114" class="edge">
<title>Node48&#45;&gt;Node3</title>
<path fill="none" stroke="#63b8ff" d="M2656.49,-494.95C2634.31,-480.28 2586.88,-449.9 2544.23,-429 2267.72,-293.5 2200.2,-241.12 1899.23,-176 1752.06,-144.16 1300.16,-134.8 1122.78,-132.32"/>
<polygon fill="#63b8ff" stroke="#63b8ff" points="1122.81,-128.82 1112.76,-132.18 1122.71,-135.82 1122.81,-128.82"/>
</g>
<!-- Node48&#45;&gt;Node9 -->
<g id="edge124" class="edge">
<title>Node48&#45;&gt;Node9</title>
<path fill="none" stroke="#63b8ff" d="M2695.3,-494.89C2713.19,-487.79 2736.32,-476.08 2751.23,-459 2807.97,-394.02 2792.23,-197.94 2792.23,-192 2792.23,-192 2792.23,-192 2792.23,-129.5 2792.23,-84.67 2764.97,-73.71 2724.23,-55 2657.66,-24.43 1538.82,-13.06 1289.3,-10.9"/>
<polygon fill="#63b8ff" stroke="#63b8ff" points="1289.12,-7.4 1279.09,-10.81 1289.06,-14.4 1289.12,-7.4"/>
</g>
<!-- Node48&#45;&gt;Node10 -->
<g id="edge117" class="edge">
<title>Node48&#45;&gt;Node10</title>
<path fill="none" stroke="#63b8ff" d="M2682.17,-494.89C2712.17,-473.76 2782.24,-417.12 2759.23,-363 2696.59,-215.6 2641.93,-177.94 2492.23,-121 2467.52,-111.6 2114.5,-86.88 1955.22,-76.12"/>
<polygon fill="#63b8ff" stroke="#63b8ff" points="1955.23,-72.62 1945.01,-75.43 1954.75,-79.6 1955.23,-72.62"/>
</g>
<!-- Node48&#45;&gt;Node27 -->
<g id="edge116" class="edge">
<title>Node48&#45;&gt;Node27</title>
<path fill="none" stroke="#63b8ff" d="M2669.37,-494.94C2669.69,-475.04 2670.49,-425.26 2670.93,-397.85"/>
<polygon fill="#63b8ff" stroke="#63b8ff" points="2674.43,-397.67 2671.1,-387.62 2667.44,-397.56 2674.43,-397.67"/>
</g>
<!-- Node48&#45;&gt;Node28 -->
<g id="edge115" class="edge">
<title>Node48&#45;&gt;Node28</title>
<path fill="none" stroke="#63b8ff" d="M2612.58,-500.94C2575.04,-499.24 2524.7,-496.97 2480.23,-495 2078.05,-477.14 1596.1,-456.16 1413.9,-448.24"/>
<polygon fill="#63b8ff" stroke="#63b8ff" points="1414.03,-444.74 1403.89,-447.81 1413.72,-451.74 1414.03,-444.74"/>
</g>
<!-- Node48&#45;&gt;Node36 -->
<g id="edge113" class="edge">
<title>Node48&#45;&gt;Node36</title>
<path fill="none" stroke="#63b8ff" d="M2612.59,-500.73C2575.05,-498.94 2524.71,-496.66 2480.23,-495 1940.37,-474.86 1804.96,-482.41 1265.23,-459 1200.46,-456.19 1126.12,-451.77 1076.48,-448.65"/>
<polygon fill="#63b8ff" stroke="#63b8ff" points="1076.47,-445.15 1066.27,-448.01 1076.03,-452.13 1076.47,-445.15"/>
</g>
<!-- Node48&#45;&gt;Node50 -->
<g id="edge118" class="edge">
<title>Node48&#45;&gt;Node50</title>
<path fill="none" stroke="#63b8ff" d="M2725.81,-497.41C2823.14,-486.92 3022.47,-465.44 3133.37,-453.5"/>
<polygon fill="#63b8ff" stroke="#63b8ff" points="3133.93,-456.96 3143.49,-452.41 3133.18,-450 3133.93,-456.96"/>
</g>
<!-- Node51 -->
<g id="node36" class="node">
<title>Node51</title>
<g id="a_node36"><a xlink:href="_disable_warnings_8hpp.html" target="_top" xlink:title=" ">
<polygon fill="white" stroke="#666666" points="3495.73,-387.5 3308.73,-387.5 3308.73,-368.5 3495.73,-368.5 3495.73,-387.5"/>
<text text-anchor="middle" x="3402.23" y="-375.5" font-family="Helvetica,sans-Serif" font-size="10.00">polyfem/utils/DisableWarnings.hpp</text>
</a>
</g>
</g>
<!-- Node50&#45;&gt;Node51 -->
<g id="edge119" class="edge">
<title>Node50&#45;&gt;Node51</title>
<path fill="none" stroke="#63b8ff" d="M3237.86,-434.37C3271.24,-423.12 3329.75,-403.42 3367.21,-390.8"/>
<polygon fill="#63b8ff" stroke="#63b8ff" points="3368.35,-394.11 3376.71,-387.6 3366.12,-387.47 3368.35,-394.11"/>
</g>
<!-- Node52 -->
<g id="node37" class="node">
<title>Node52</title>
<g id="a_node37"><a xlink:title=" ">
<polygon fill="#e0e0e0" stroke="#999999" points="3624.73,-393 3513.73,-393 3513.73,-363 3624.73,-363 3624.73,-393"/>
<text text-anchor="start" x="3521.73" y="-381" font-family="Helvetica,sans-Serif" font-size="10.00">spdlog/fmt/bundled</text>
<text text-anchor="middle" x="3569.23" y="-370" font-family="Helvetica,sans-Serif" font-size="10.00">/ranges.h</text>
</a>
</g>
</g>
<!-- Node50&#45;&gt;Node52 -->
<g id="edge120" class="edge">
<title>Node50&#45;&gt;Node52</title>
<path fill="none" stroke="#63b8ff" d="M3266.64,-434.49C3323.45,-425.43 3415.35,-410.28 3503.52,-393.29"/>
<polygon fill="#63b8ff" stroke="#63b8ff" points="3504.27,-396.71 3513.42,-391.37 3502.93,-389.84 3504.27,-396.71"/>
</g>
<!-- Node53 -->
<g id="node38" class="node">
<title>Node53</title>
<g id="a_node38"><a xlink:title=" ">
<polygon fill="#e0e0e0" stroke="#999999" points="3741.73,-387.5 3642.73,-387.5 3642.73,-368.5 3741.73,-368.5 3741.73,-387.5"/>
<text text-anchor="middle" x="3692.23" y="-375.5" font-family="Helvetica,sans-Serif" font-size="10.00">spdlog/fmt/ostr.h</text>
</a>
</g>
</g>
<!-- Node50&#45;&gt;Node53 -->
<g id="edge121" class="edge">
<title>Node50&#45;&gt;Node53</title>
<path fill="none" stroke="#63b8ff" d="M3280.94,-437.39C3364.77,-429.96 3510.6,-415.16 3634.23,-393 3639.33,-392.09 3644.64,-391 3649.9,-389.83"/>
<polygon fill="#63b8ff" stroke="#63b8ff" points="3650.91,-393.19 3659.86,-387.53 3649.33,-386.37 3650.91,-393.19"/>
</g>
<!-- Node54 -->
<g id="node39" class="node">
<title>Node54</title>
<g id="a_node39"><a xlink:title=" ">
<polygon fill="#e0e0e0" stroke="#999999" points="3089.73,-387.5 2996.73,-387.5 2996.73,-368.5 3089.73,-368.5 3089.73,-387.5"/>
<text text-anchor="middle" x="3043.23" y="-375.5" font-family="Helvetica,sans-Serif" font-size="10.00">spdlog/spdlog.h</text>
</a>
</g>
</g>
<!-- Node50&#45;&gt;Node54 -->
<g id="edge122" class="edge">
<title>Node50&#45;&gt;Node54</title>
<path fill="none" stroke="#63b8ff" d="M3189.44,-434.37C3160.13,-423.27 3109.03,-403.92 3075.67,-391.28"/>
<polygon fill="#63b8ff" stroke="#63b8ff" points="3076.53,-387.86 3065.93,-387.6 3074.05,-394.41 3076.53,-387.86"/>
</g>
<!-- Node55 -->
<g id="node40" class="node">
<title>Node55</title>
<g id="a_node40"><a xlink:href="_enable_warnings_8hpp.html" target="_top" xlink:title=" ">
<polygon fill="white" stroke="#666666" points="3290.73,-387.5 3107.73,-387.5 3107.73,-368.5 3290.73,-368.5 3290.73,-387.5"/>
<text text-anchor="middle" x="3199.23" y="-375.5" font-family="Helvetica,sans-Serif" font-size="10.00">polyfem/utils/EnableWarnings.hpp</text>
</a>
</g>
</g>
<!-- Node50&#45;&gt;Node55 -->
<g id="edge123" class="edge">
<title>Node50&#45;&gt;Node55</title>
<path fill="none" stroke="#63b8ff" d="M3210.48,-434.37C3208.59,-425.07 3205.53,-409.98 3203.07,-397.9"/>
<polygon fill="#63b8ff" stroke="#63b8ff" points="3206.46,-397.01 3201.04,-387.91 3199.6,-398.4 3206.46,-397.01"/>
</g>
<!-- Node56&#45;&gt;Node3 -->
<g id="edge127" class="edge">
<title>Node56&#45;&gt;Node3</title>
<path fill="none" stroke="#63b8ff" d="M1631.48,-551.64C1660.78,-545.52 1698.28,-534.27 1726.23,-514 1818,-447.46 1924.3,-390.51 1860.23,-297 1821.98,-241.17 1783.6,-259.53 1718.23,-242 1617.88,-215.08 1589.78,-222.73 1487.23,-206 1351.79,-183.9 1193.01,-156.44 1109.12,-141.81"/>
<polygon fill="#63b8ff" stroke="#63b8ff" points="1109.47,-138.32 1099.02,-140.05 1108.27,-145.22 1109.47,-138.32"/>
</g>
<!-- Node56&#45;&gt;Node9 -->
<g id="edge134" class="edge">
<title>Node56&#45;&gt;Node9</title>
<path fill="none" stroke="#63b8ff" d="M1631.53,-556.18C1768.86,-549.15 2166.01,-527.73 2190.23,-514 2373.07,-410.36 2581.4,-287.57 2453.23,-121 2383.42,-30.26 2317.39,-72.4 2204.23,-55 2024.91,-27.42 1458.98,-14.65 1288.99,-11.38"/>
<polygon fill="#63b8ff" stroke="#63b8ff" points="1288.9,-7.88 1278.84,-11.18 1288.77,-14.87 1288.9,-7.88"/>
</g>
<!-- Node56&#45;&gt;Node28 -->
<g id="edge128" class="edge">
<title>Node56&#45;&gt;Node28</title>
<path fill="none" stroke="#63b8ff" d="M1538.99,-553.97C1483.52,-547.71 1394.8,-534.75 1369.23,-514 1355.47,-502.83 1347.87,-484.12 1343.77,-468.99"/>
<polygon fill="#63b8ff" stroke="#63b8ff" points="1347.17,-468.16 1341.45,-459.23 1340.35,-469.77 1347.17,-468.16"/>
</g>
<!-- Node56&#45;&gt;Node29 -->
<g id="edge126" class="edge">
<title>Node56&#45;&gt;Node29</title>
<path fill="none" stroke="#63b8ff" d="M1578.81,-549.91C1568.81,-536.92 1548.44,-512 1527.23,-495 1481.26,-458.14 1468.56,-446.33 1412.23,-429 1309.6,-397.42 1004.12,-385.27 848.53,-381.03"/>
<polygon fill="#63b8ff" stroke="#63b8ff" points="848.6,-377.53 838.51,-380.77 848.41,-384.53 848.6,-377.53"/>
</g>
<!-- Node56&#45;&gt;Node41 -->
<g id="edge129" class="edge">
<title>Node56&#45;&gt;Node41</title>
<path fill="none" stroke="#63b8ff" d="M1538.82,-553.32C1453.94,-543.85 1273.44,-523.71 1175.96,-512.83"/>
<polygon fill="#63b8ff" stroke="#63b8ff" points="1176.26,-509.35 1165.93,-511.71 1175.48,-516.3 1176.26,-509.35"/>
</g>
<!-- Node56&#45;&gt;Node43 -->
<g id="edge130" class="edge">
<title>Node56&#45;&gt;Node43</title>
<path fill="none" stroke="#63b8ff" d="M1563.22,-549.98C1540.79,-541.3 1505.75,-527.75 1480.25,-517.88"/>
<polygon fill="#63b8ff" stroke="#63b8ff" points="1481.24,-514.51 1470.65,-514.17 1478.71,-521.04 1481.24,-514.51"/>
</g>
<!-- Node56&#45;&gt;Node44 -->
<g id="edge131" class="edge">
<title>Node56&#45;&gt;Node44</title>
<path fill="none" stroke="#63b8ff" d="M1595.03,-549.98C1604.05,-542.15 1617.64,-530.34 1628.55,-520.86"/>
<polygon fill="#63b8ff" stroke="#63b8ff" points="1631,-523.37 1636.26,-514.17 1626.41,-518.09 1631,-523.37"/>
</g>
<!-- Node56&#45;&gt;Node45 -->
<g id="edge132" class="edge">
<title>Node56&#45;&gt;Node45</title>
<path fill="none" stroke="#63b8ff" d="M1631.44,-556.22C1746.2,-550.44 2053.45,-534.21 2309.23,-514 2310.34,-513.91 2311.46,-513.82 2312.58,-513.73"/>
<polygon fill="#63b8ff" stroke="#63b8ff" points="2313.16,-517.2 2322.83,-512.87 2312.58,-510.22 2313.16,-517.2"/>
</g>
<!-- Node56&#45;&gt;Node48 -->
<g id="edge133" class="edge">
<title>Node56&#45;&gt;Node48</title>
<path fill="none" stroke="#63b8ff" d="M1631.47,-556.24C1802.66,-547.87 2401.02,-518.61 2602.47,-508.76"/>
<polygon fill="#63b8ff" stroke="#63b8ff" points="2602.79,-512.25 2612.61,-508.27 2602.45,-505.26 2602.79,-512.25"/>
</g>
<!-- Node57&#45;&gt;Node3 -->
<g id="edge137" class="edge">
<title>Node57&#45;&gt;Node3</title>
<path fill="none" stroke="#63b8ff" d="M1219.08,-494.97C1197.67,-488.48 1172.46,-477.41 1156.23,-459 1069.64,-360.77 1123.82,-297.2 1074.23,-176 1070.45,-166.76 1065.29,-156.94 1060.73,-148.89"/>
<polygon fill="#63b8ff" stroke="#63b8ff" points="1063.65,-146.96 1055.58,-140.1 1057.61,-150.5 1063.65,-146.96"/>
</g>
<!-- Node57&#45;&gt;Node6 -->
<g id="edge140" class="edge">
<title>Node57&#45;&gt;Node6</title>
<path fill="none" stroke="#63b8ff" d="M1311.78,-494.96C1342.58,-488.36 1381.37,-477.18 1412.23,-459 1423.84,-452.16 1558.55,-315.35 1604.78,-268.26"/>
<polygon fill="#63b8ff" stroke="#63b8ff" points="1607.37,-270.62 1611.87,-261.03 1602.37,-265.72 1607.37,-270.62"/>
</g>
<!-- Node57&#45;&gt;Node9 -->
<g id="edge142" class="edge">
<title>Node57&#45;&gt;Node9</title>
<path fill="none" stroke="#63b8ff" d="M1254.33,-494.68C1240.64,-469.49 1202.16,-394.67 1189.23,-327 1167.68,-214.17 1214.03,-77.55 1232.8,-28.84"/>
<polygon fill="#63b8ff" stroke="#63b8ff" points="1236.13,-29.93 1236.55,-19.34 1229.62,-27.36 1236.13,-29.93"/>
</g>
<!-- Node57&#45;&gt;Node10 -->
<g id="edge141" class="edge">
<title>Node57&#45;&gt;Node10</title>
<path fill="none" stroke="#63b8ff" d="M1258.54,-494.94C1257.68,-480.78 1257.22,-451.77 1265.23,-429 1311.32,-298.1 1342.58,-265.98 1448.23,-176 1484.21,-145.36 1494.76,-136.98 1539.23,-121 1625.81,-89.88 1731.49,-78.11 1801.61,-73.67"/>
<polygon fill="#63b8ff" stroke="#63b8ff" points="1801.92,-77.16 1811.69,-73.07 1801.5,-70.17 1801.92,-77.16"/>
</g>
<!-- Node57&#45;&gt;Node26 -->
<g id="edge139" class="edge">
<title>Node57&#45;&gt;Node26</title>
<path fill="none" stroke="#63b8ff" d="M1305.63,-494.95C1343.88,-487.31 1399.29,-474.88 1446.23,-459 1555.8,-421.93 1678.87,-361.89 1738.3,-331.65"/>
<polygon fill="#63b8ff" stroke="#63b8ff" points="1739.96,-334.73 1747.28,-327.07 1736.78,-328.5 1739.96,-334.73"/>
</g>
<!-- Node57&#45;&gt;Node28 -->
<g id="edge138" class="edge">
<title>Node57&#45;&gt;Node28</title>
<path fill="none" stroke="#63b8ff" d="M1271.04,-494.87C1281.69,-487.08 1297.78,-475.32 1311.65,-465.17"/>
<polygon fill="#63b8ff" stroke="#63b8ff" points="1313.93,-467.84 1319.93,-459.11 1309.79,-462.19 1313.93,-467.84"/>
</g>
<!-- Node57&#45;&gt;Node29 -->
<g id="edge136" class="edge">
<title>Node57&#45;&gt;Node29</title>
<path fill="none" stroke="#63b8ff" d="M1199.55,-496C1126.81,-486.59 1008.3,-470.32 965.23,-459 933.07,-450.54 850.59,-417.86 799.09,-396.98"/>
<polygon fill="#63b8ff" stroke="#63b8ff" points="800.12,-393.62 789.54,-393.09 797.48,-400.1 800.12,-393.62"/>
</g>
<!-- Node58&#45;&gt;Node3 -->
<g id="edge145" class="edge">
<title>Node58&#45;&gt;Node3</title>
<path fill="none" stroke="#63b8ff" d="M316.32,-434.46C369.12,-412.88 505.57,-355.85 545.23,-327 619.25,-273.17 603.73,-217.63 685.23,-176 734.76,-150.7 885.92,-139.23 977.45,-134.48"/>
<polygon fill="#63b8ff" stroke="#63b8ff" points="977.67,-137.97 987.48,-133.97 977.32,-130.98 977.67,-137.97"/>
</g>
<!-- Node58&#45;&gt;Node9 -->
<g id="edge147" class="edge">
<title>Node58&#45;&gt;Node9</title>
<path fill="none" stroke="#63b8ff" d="M291.68,-434.34C283.54,-413.71 264.23,-359.87 264.23,-313 264.23,-313 264.23,-313 264.23,-129.5 264.23,-88.34 282.95,-74.43 319.23,-55 396.29,-13.74 1012.19,-10.49 1191.45,-10.43"/>
<polygon fill="#63b8ff" stroke="#63b8ff" points="1191.64,-13.93 1201.64,-10.43 1191.64,-6.93 1191.64,-13.93"/>
</g>
<!-- Node58&#45;&gt;Node10 -->
<g id="edge146" class="edge">
<title>Node58&#45;&gt;Node10</title>
<path fill="none" stroke="#63b8ff" d="M299.94,-434.29C313.18,-410.31 352.85,-342.15 399.23,-297 468.31,-229.77 489.25,-210.56 579.23,-176 741,-113.87 792.78,-137.98 965.23,-121 975.6,-119.98 1583.57,-86.97 1801.52,-75.16"/>
<polygon fill="#63b8ff" stroke="#63b8ff" points="1801.81,-78.65 1811.6,-74.61 1801.43,-71.66 1801.81,-78.65"/>
</g>
<!-- Node58&#45;&gt;Node29 -->
<g id="edge144" class="edge">
<title>Node58&#45;&gt;Node29</title>
<path fill="none" stroke="#63b8ff" d="M319.22,-434.47C325.65,-432.43 332.65,-430.43 339.23,-429 448.7,-405.23 576.99,-391.96 661.86,-385.17"/>
<polygon fill="#63b8ff" stroke="#63b8ff" points="662.29,-388.64 671.99,-384.37 661.74,-381.67 662.29,-388.64"/>
</g>
<!-- Node59&#45;&gt;Node3 -->
<g id="edge150" class="edge">
<title>Node59&#45;&gt;Node3</title>
<path fill="none" stroke="#63b8ff" d="M206.9,-434.38C253.34,-408.74 394.12,-330.44 508.23,-261 567.84,-224.73 574.45,-199.28 640.23,-176 700.6,-154.64 876.75,-141.41 977.43,-135.37"/>
<polygon fill="#63b8ff" stroke="#63b8ff" points="977.75,-138.86 987.52,-134.77 977.33,-131.87 977.75,-138.86"/>
</g>
<!-- Node59&#45;&gt;Node9 -->
<g id="edge151" class="edge">
<title>Node59&#45;&gt;Node9</title>
<path fill="none" stroke="#63b8ff" d="M190.9,-434.48C190.12,-413.72 188.23,-358.83 188.23,-313 188.23,-313 188.23,-313 188.23,-129.5 188.23,-78.93 227.27,-73.76 274.23,-55 359.69,-20.87 1007.29,-12.56 1191.5,-10.88"/>
<polygon fill="#63b8ff" stroke="#63b8ff" points="1191.72,-14.38 1201.69,-10.79 1191.66,-7.38 1191.72,-14.38"/>
</g>
<!-- Node59&#45;&gt;Node29 -->
<g id="edge149" class="edge">
<title>Node59&#45;&gt;Node29</title>
<path fill="none" stroke="#63b8ff" d="M224.4,-434.45C233.09,-432.43 242.48,-430.45 251.23,-429 393.39,-405.47 560.07,-391.57 661.63,-384.62"/>
<polygon fill="#63b8ff" stroke="#63b8ff" points="662.12,-388.1 671.86,-383.93 661.64,-381.11 662.12,-388.1"/>
</g>
<!-- Node60&#45;&gt;Node3 -->
<g id="edge155" class="edge">
<title>Node60&#45;&gt;Node3</title>
<path fill="none" stroke="#63b8ff" d="M707.91,-494.97C697.08,-486.88 681.61,-473.77 672.23,-459 648.83,-422.13 631.6,-402.01 651.23,-363 719.87,-226.65 907.49,-165.01 998.86,-142.41"/>
<polygon fill="#63b8ff" stroke="#63b8ff" points="999.82,-145.78 1008.72,-140.03 998.18,-138.97 999.82,-145.78"/>
</g>
<!-- Node60&#45;&gt;Node9 -->
<g id="edge157" class="edge">
<title>Node60&#45;&gt;Node9</title>
<path fill="none" stroke="#63b8ff" d="M645.05,-503.68C474.23,-503.38 68.06,-498.49 21.23,-459 -6.7,-435.44 2.23,-415.54 2.23,-379 2.23,-379 2.23,-379 2.23,-129.5 2.23,-70.82 55.52,-73.43 111.23,-55 214.66,-20.79 988.67,-12.44 1191.63,-10.83"/>
<polygon fill="#63b8ff" stroke="#63b8ff" points="1191.72,-14.33 1201.69,-10.76 1191.66,-7.33 1191.72,-14.33"/>
</g>
<!-- Node60&#45;&gt;Node28 -->
<g id="edge156" class="edge">
<title>Node60&#45;&gt;Node28</title>
<path fill="none" stroke="#63b8ff" d="M795.34,-495.87C798.34,-495.58 801.32,-495.28 804.23,-495 968.45,-479.02 1161.11,-461.25 1264.54,-451.8"/>
<polygon fill="#63b8ff" stroke="#63b8ff" points="1264.93,-455.28 1274.57,-450.88 1264.29,-448.31 1264.93,-455.28"/>
</g>
<!-- Node60&#45;&gt;Node29 -->
<g id="edge153" class="edge">
<title>Node60&#45;&gt;Node29</title>
<path fill="none" stroke="#63b8ff" d="M715.16,-494.92C707.47,-480.73 694.71,-451.69 704.23,-429 708.99,-417.68 717.69,-407.64 726.58,-399.58"/>
<polygon fill="#63b8ff" stroke="#63b8ff" points="728.96,-402.15 734.34,-393.03 724.45,-396.8 728.96,-402.15"/>
</g>
<!-- Node60&#45;&gt;Node36 -->
<g id="edge154" class="edge">
<title>Node60&#45;&gt;Node36</title>
<path fill="none" stroke="#63b8ff" d="M763.86,-494.99C817.51,-484.53 908.58,-466.77 966.5,-455.48"/>
<polygon fill="#63b8ff" stroke="#63b8ff" points="967.41,-458.87 976.56,-453.52 966.07,-452 967.41,-458.87"/>
</g>
</g>
</svg>
