<?xml version="1.0" encoding="UTF-8" standalone="no"?>
<!DOCTYPE svg PUBLIC "-//W3C//DTD SVG 1.1//EN"
 "http://www.w3.org/Graphics/SVG/1.1/DTD/svg11.dtd">
<!-- Generated by graphviz version 2.43.0 (0)
 -->
<!-- Title: src/polyfem/solver/NonlinearSolver.hpp Pages: 1 -->
<svg width="864pt" height="225pt"
 viewBox="0.00 0.00 863.50 225.00" xmlns="http://www.w3.org/2000/svg" xmlns:xlink="http://www.w3.org/1999/xlink">
<g id="graph0" class="graph" transform="scale(1 1) rotate(0) translate(4 221)">
<title>src/polyfem/solver/NonlinearSolver.hpp</title>
<!-- Node1 -->
<g id="node1" class="node">
<title>Node1</title>
<g id="a_node1"><a xlink:title=" ">
<polygon fill="#999999" stroke="#666666" points="512,-217 394,-217 394,-187 512,-187 512,-217"/>
<text text-anchor="start" x="402" y="-205" font-family="Helvetica,sans-Serif" font-size="10.00">src/polyfem/solver</text>
<text text-anchor="middle" x="453" y="-194" font-family="Helvetica,sans-Serif" font-size="10.00">/NonlinearSolver.hpp</text>
</a>
</g>
</g>
<!-- Node2 -->
<g id="node2" class="node">
<title>Node2</title>
<g id="a_node2"><a xlink:href="_common_8hpp.html" target="_top" xlink:title=" ">
<polygon fill="white" stroke="#666666" points="211.5,-151 86.5,-151 86.5,-132 211.5,-132 211.5,-151"/>
<text text-anchor="middle" x="149" y="-139" font-family="Helvetica,sans-Serif" font-size="10.00">polyfem/Common.hpp</text>
</a>
</g>
</g>
<!-- Node1&#45;&gt;Node2 -->
<g id="edge1" class="edge">
<title>Node1&#45;&gt;Node2</title>
<path fill="none" stroke="#63b8ff" d="M393.66,-189.58C338.47,-178.96 256.92,-163.27 203.38,-152.96"/>
<polygon fill="#63b8ff" stroke="#63b8ff" points="203.87,-149.5 193.39,-151.04 202.55,-156.37 203.87,-149.5"/>
</g>
<!-- Node5 -->
<g id="node5" class="node">
<title>Node5</title>
<g id="a_node5"><a xlink:href="_line_search_8hpp.html" target="_top" xlink:title=" ">
<polygon fill="white" stroke="#666666" points="378.5,-151 229.5,-151 229.5,-132 378.5,-132 378.5,-151"/>
<text text-anchor="middle" x="304" y="-139" font-family="Helvetica,sans-Serif" font-size="10.00">line_search/LineSearch.hpp</text>
</a>
</g>
</g>
<!-- Node1&#45;&gt;Node5 -->
<g id="edge4" class="edge">
<title>Node1&#45;&gt;Node5</title>
<path fill="none" stroke="#63b8ff" d="M417.31,-186.99C392.34,-177.18 359.3,-164.21 335.34,-154.81"/>
<polygon fill="#63b8ff" stroke="#63b8ff" points="336.59,-151.54 326,-151.14 334.03,-158.05 336.59,-151.54"/>
</g>
<!-- Node7 -->
<g id="node7" class="node">
<title>Node7</title>
<g id="a_node7"><a xlink:href="_logger_8hpp.html" target="_top" xlink:title=" ">
<polygon fill="white" stroke="#666666" points="474.5,-90.5 337.5,-90.5 337.5,-71.5 474.5,-71.5 474.5,-90.5"/>
<text text-anchor="middle" x="406" y="-78.5" font-family="Helvetica,sans-Serif" font-size="10.00">polyfem/utils/Logger.hpp</text>
</a>
</g>
</g>
<!-- Node1&#45;&gt;Node7 -->
<g id="edge6" class="edge">
<title>Node1&#45;&gt;Node7</title>
<path fill="none" stroke="#63b8ff" d="M443.7,-186.59C437.72,-176.85 430.14,-163.52 425,-151 418.22,-134.49 413.07,-114.79 409.85,-100.68"/>
<polygon fill="#63b8ff" stroke="#63b8ff" points="413.23,-99.75 407.69,-90.72 406.39,-101.23 413.23,-99.75"/>
</g>
<!-- Node13 -->
<g id="node13" class="node">
<title>Node13</title>
<g id="a_node13"><a xlink:href="_timer_8hpp.html" target="_top" xlink:title=" ">
<polygon fill="white" stroke="#666666" points="567.5,-151 434.5,-151 434.5,-132 567.5,-132 567.5,-151"/>
<text text-anchor="middle" x="501" y="-139" font-family="Helvetica,sans-Serif" font-size="10.00">polyfem/utils/Timer.hpp</text>
</a>
</g>
</g>
<!-- Node1&#45;&gt;Node13 -->
<g id="edge12" class="edge">
<title>Node1&#45;&gt;Node13</title>
<path fill="none" stroke="#63b8ff" d="M464.62,-186.84C471.44,-178.52 480.11,-167.96 487.27,-159.23"/>
<polygon fill="#63b8ff" stroke="#63b8ff" points="490.17,-161.22 493.81,-151.27 484.76,-156.78 490.17,-161.22"/>
</g>
<!-- Node16 -->
<g id="node16" class="node">
<title>Node16</title>
<g id="a_node16"><a xlink:title=" ">
<polygon fill="#e0e0e0" stroke="#999999" points="724.5,-151 585.5,-151 585.5,-132 724.5,-132 724.5,-151"/>
<text text-anchor="middle" x="655" y="-139" font-family="Helvetica,sans-Serif" font-size="10.00">cppoptlib/solver/isolver.h</text>
</a>
</g>
</g>
<!-- Node1&#45;&gt;Node16 -->
<g id="edge16" class="edge">
<title>Node1&#45;&gt;Node16</title>
<path fill="none" stroke="#63b8ff" d="M501.38,-186.99C536.4,-176.85 583.11,-163.32 615.8,-153.85"/>
<polygon fill="#63b8ff" stroke="#63b8ff" points="616.83,-157.2 625.46,-151.05 614.89,-150.47 616.83,-157.2"/>
</g>
<!-- Node17 -->
<g id="node17" class="node">
<title>Node17</title>
<g id="a_node17"><a xlink:href="_nonlinear_solver_8tpp.html" target="_top" xlink:title=" ">
<polygon fill="white" stroke="#666666" points="855.5,-151 742.5,-151 742.5,-132 855.5,-132 855.5,-151"/>
<text text-anchor="middle" x="799" y="-139" font-family="Helvetica,sans-Serif" font-size="10.00">NonlinearSolver.tpp</text>
</a>
</g>
</g>
<!-- Node1&#45;&gt;Node17 -->
<g id="edge17" class="edge">
<title>Node1&#45;&gt;Node17</title>
<path fill="none" stroke="#63b8ff" d="M512.09,-191.01C575.29,-180.32 675.02,-163.46 738.69,-152.7"/>
<polygon fill="#63b8ff" stroke="#63b8ff" points="739.32,-156.14 748.59,-151.02 738.15,-149.24 739.32,-156.14"/>
</g>
<!-- Node3 -->
<g id="node3" class="node">
<title>Node3</title>
<g id="a_node3"><a xlink:title=" ">
<polygon fill="#e0e0e0" stroke="#999999" points="80,-90.5 0,-90.5 0,-71.5 80,-71.5 80,-90.5"/>
<text text-anchor="middle" x="40" y="-78.5" font-family="Helvetica,sans-Serif" font-size="10.00">Eigen/Sparse</text>
</a>
</g>
</g>
<!-- Node2&#45;&gt;Node3 -->
<g id="edge2" class="edge">
<title>Node2&#45;&gt;Node3</title>
<path fill="none" stroke="#63b8ff" d="M132.92,-131.87C115.05,-122.28 85.96,-106.67 65.09,-95.47"/>
<polygon fill="#63b8ff" stroke="#63b8ff" points="66.62,-92.31 56.15,-90.67 63.31,-98.48 66.62,-92.31"/>
</g>
<!-- Node4 -->
<g id="node4" class="node">
<title>Node4</title>
<g id="a_node4"><a xlink:title=" ">
<polygon fill="#e0e0e0" stroke="#999999" points="208,-90.5 98,-90.5 98,-71.5 208,-71.5 208,-90.5"/>
<text text-anchor="middle" x="153" y="-78.5" font-family="Helvetica,sans-Serif" font-size="10.00">nlohmann/json.hpp</text>
</a>
</g>
</g>
<!-- Node2&#45;&gt;Node4 -->
<g id="edge3" class="edge">
<title>Node2&#45;&gt;Node4</title>
<path fill="none" stroke="#63b8ff" d="M149.59,-131.87C150.15,-123.75 151,-111.31 151.71,-100.89"/>
<polygon fill="#63b8ff" stroke="#63b8ff" points="155.22,-100.88 152.41,-90.67 148.23,-100.41 155.22,-100.88"/>
</g>
<!-- Node6 -->
<g id="node6" class="node">
<title>Node6</title>
<g id="a_node6"><a xlink:href="_line_search_8tpp.html" target="_top" xlink:title=" ">
<polygon fill="white" stroke="#666666" points="319.5,-90.5 230.5,-90.5 230.5,-71.5 319.5,-71.5 319.5,-90.5"/>
<text text-anchor="middle" x="275" y="-78.5" font-family="Helvetica,sans-Serif" font-size="10.00">LineSearch.tpp</text>
</a>
</g>
</g>
<!-- Node5&#45;&gt;Node6 -->
<g id="edge5" class="edge">
<title>Node5&#45;&gt;Node6</title>
<path fill="none" stroke="#63b8ff" d="M299.72,-131.87C295.57,-123.49 289.13,-110.51 283.87,-99.89"/>
<polygon fill="#63b8ff" stroke="#63b8ff" points="286.87,-98.07 279.3,-90.67 280.6,-101.18 286.87,-98.07"/>
</g>
<!-- Node8 -->
<g id="node8" class="node">
<title>Node8</title>
<g id="a_node8"><a xlink:href="_disable_warnings_8hpp.html" target="_top" xlink:title=" ">
<polygon fill="white" stroke="#666666" points="209.5,-24.5 22.5,-24.5 22.5,-5.5 209.5,-5.5 209.5,-24.5"/>
<text text-anchor="middle" x="116" y="-12.5" font-family="Helvetica,sans-Serif" font-size="10.00">polyfem/utils/DisableWarnings.hpp</text>
</a>
</g>
</g>
<!-- Node7&#45;&gt;Node8 -->
<g id="edge7" class="edge">
<title>Node7&#45;&gt;Node8</title>
<path fill="none" stroke="#63b8ff" d="M367.19,-71.44C314.77,-59.87 221.38,-39.26 164.43,-26.69"/>
<polygon fill="#63b8ff" stroke="#63b8ff" points="165.1,-23.25 154.58,-24.51 163.59,-30.09 165.1,-23.25"/>
</g>
<!-- Node9 -->
<g id="node9" class="node">
<title>Node9</title>
<g id="a_node9"><a xlink:title=" ">
<polygon fill="#e0e0e0" stroke="#999999" points="338.5,-30 227.5,-30 227.5,0 338.5,0 338.5,-30"/>
<text text-anchor="start" x="235.5" y="-18" font-family="Helvetica,sans-Serif" font-size="10.00">spdlog/fmt/bundled</text>
<text text-anchor="middle" x="283" y="-7" font-family="Helvetica,sans-Serif" font-size="10.00">/ranges.h</text>
</a>
</g>
</g>
<!-- Node7&#45;&gt;Node9 -->
<g id="edge8" class="edge">
<title>Node7&#45;&gt;Node9</title>
<path fill="none" stroke="#63b8ff" d="M389.41,-71.37C371.47,-62.03 342.3,-46.86 319.04,-34.75"/>
<polygon fill="#63b8ff" stroke="#63b8ff" points="320.62,-31.63 310.13,-30.12 317.38,-37.84 320.62,-31.63"/>
</g>
<!-- Node10 -->
<g id="node10" class="node">
<title>Node10</title>
<g id="a_node10"><a xlink:title=" ">
<polygon fill="#e0e0e0" stroke="#999999" points="455.5,-24.5 356.5,-24.5 356.5,-5.5 455.5,-5.5 455.5,-24.5"/>
<text text-anchor="middle" x="406" y="-12.5" font-family="Helvetica,sans-Serif" font-size="10.00">spdlog/fmt/ostr.h</text>
</a>
</g>
</g>
<!-- Node7&#45;&gt;Node10 -->
<g id="edge9" class="edge">
<title>Node7&#45;&gt;Node10</title>
<path fill="none" stroke="#63b8ff" d="M406,-71.37C406,-62.16 406,-47.29 406,-35.27"/>
<polygon fill="#63b8ff" stroke="#63b8ff" points="409.5,-34.91 406,-24.91 402.5,-34.91 409.5,-34.91"/>
</g>
<!-- Node11 -->
<g id="node11" class="node">
<title>Node11</title>
<g id="a_node11"><a xlink:title=" ">
<polygon fill="#e0e0e0" stroke="#999999" points="566.5,-24.5 473.5,-24.5 473.5,-5.5 566.5,-5.5 566.5,-24.5"/>
<text text-anchor="middle" x="520" y="-12.5" font-family="Helvetica,sans-Serif" font-size="10.00">spdlog/spdlog.h</text>
</a>
</g>
</g>
<!-- Node7&#45;&gt;Node11 -->
<g id="edge10" class="edge">
<title>Node7&#45;&gt;Node11</title>
<path fill="none" stroke="#63b8ff" d="M421.37,-71.37C440.41,-60.68 473.07,-42.35 495.56,-29.72"/>
<polygon fill="#63b8ff" stroke="#63b8ff" points="497.5,-32.65 504.5,-24.7 494.07,-26.54 497.5,-32.65"/>
</g>
<!-- Node12 -->
<g id="node12" class="node">
<title>Node12</title>
<g id="a_node12"><a xlink:href="_enable_warnings_8hpp.html" target="_top" xlink:title=" ">
<polygon fill="white" stroke="#666666" points="767.5,-24.5 584.5,-24.5 584.5,-5.5 767.5,-5.5 767.5,-24.5"/>
<text text-anchor="middle" x="676" y="-12.5" font-family="Helvetica,sans-Serif" font-size="10.00">polyfem/utils/EnableWarnings.hpp</text>
</a>
</g>
</g>
<!-- Node7&#45;&gt;Node12 -->
<g id="edge11" class="edge">
<title>Node7&#45;&gt;Node12</title>
<path fill="none" stroke="#63b8ff" d="M442.13,-71.44C490.73,-59.92 577.17,-39.43 630.25,-26.84"/>
<polygon fill="#63b8ff" stroke="#63b8ff" points="631.16,-30.23 640.08,-24.51 629.54,-23.42 631.16,-30.23"/>
</g>
<!-- Node13&#45;&gt;Node7 -->
<g id="edge14" class="edge">
<title>Node13&#45;&gt;Node7</title>
<path fill="none" stroke="#63b8ff" d="M486.98,-131.87C471.69,-122.45 446.97,-107.23 428.86,-96.08"/>
<polygon fill="#63b8ff" stroke="#63b8ff" points="430.43,-92.93 420.08,-90.67 426.75,-98.89 430.43,-92.93"/>
</g>
<!-- Node14 -->
<g id="node14" class="node">
<title>Node14</title>
<g id="a_node14"><a xlink:title=" ">
<polygon fill="#e0e0e0" stroke="#999999" points="603.5,-96 492.5,-96 492.5,-66 603.5,-66 603.5,-96"/>
<text text-anchor="start" x="500.5" y="-84" font-family="Helvetica,sans-Serif" font-size="10.00">spdlog/fmt/bundled</text>
<text text-anchor="middle" x="548" y="-73" font-family="Helvetica,sans-Serif" font-size="10.00">/color.h</text>
</a>
</g>
</g>
<!-- Node13&#45;&gt;Node14 -->
<g id="edge13" class="edge">
<title>Node13&#45;&gt;Node14</title>
<path fill="none" stroke="#63b8ff" d="M507.94,-131.87C513.78,-124.59 522.41,-113.85 530.16,-104.2"/>
<polygon fill="#63b8ff" stroke="#63b8ff" points="533.13,-106.1 536.66,-96.11 527.67,-101.72 533.13,-106.1"/>
</g>
<!-- Node15 -->
<g id="node15" class="node">
<title>Node15</title>
<g id="a_node15"><a xlink:title=" ">
<polygon fill="#e0e0e0" stroke="#999999" points="690,-90.5 622,-90.5 622,-71.5 690,-71.5 690,-90.5"/>
<text text-anchor="middle" x="656" y="-78.5" font-family="Helvetica,sans-Serif" font-size="10.00">igl/Timer.h</text>
</a>
</g>
</g>
<!-- Node13&#45;&gt;Node15 -->
<g id="edge15" class="edge">
<title>Node13&#45;&gt;Node15</title>
<path fill="none" stroke="#63b8ff" d="M523.54,-131.99C549.94,-122.03 593.88,-105.45 623.85,-94.13"/>
<polygon fill="#63b8ff" stroke="#63b8ff" points="625.31,-97.32 633.43,-90.52 622.84,-90.77 625.31,-97.32"/>
</g>
</g>
</svg>
