<?xml version="1.0" encoding="UTF-8" standalone="no"?>
<!DOCTYPE svg PUBLIC "-//W3C//DTD SVG 1.1//EN"
 "http://www.w3.org/Graphics/SVG/1.1/DTD/svg11.dtd">
<!-- Generated by graphviz version 2.43.0 (0)
 -->
<!-- Title: src/polyfem/mesh/Obstacle.cpp Pages: 1 -->
<!--zoomable 335 -->
<svg id="main" version="1.1" xmlns="http://www.w3.org/2000/svg" xmlns:xlink="http://www.w3.org/1999/xlink" xml:space="preserve" onload="init(evt)">
<style type="text/css"><![CDATA[
.edge:hover path { stroke: red; }
.edge:hover polygon { stroke: red; fill: red; }
]]></style>
<script type="text/javascript"><![CDATA[
var edges = document.getElementsByTagName('g');
if (edges && edges.length) {
  for (var i=0;i<edges.length;i++) {
    if (edges[i].id.substr(0,4)=='edge') {
      edges[i].setAttribute('class','edge');
    }
  }
}
]]></script>
        <defs>
                <circle id="rim" cx="0" cy="0" r="7"/>
                <circle id="rim2" cx="0" cy="0" r="3.5"/>
                <g id="zoomPlus">
                        <use xlink:href="#rim" fill="#404040">
                                <set attributeName="fill" to="#808080" begin="zoomplus.mouseover" end="zoomplus.mouseout"/>
                        </use>
                        <path d="M-4,0h8M0,-4v8" fill="none" stroke="white" stroke-width="1.5" pointer-events="none"/>
                </g>
                <g id="zoomMin">
                        <use xlink:href="#rim" fill="#404040">
                                <set attributeName="fill" to="#808080" begin="zoomminus.mouseover" end="zoomminus.mouseout"/>
                        </use>
                        <path d="M-4,0h8" fill="none" stroke="white" stroke-width="1.5" pointer-events="none"/>
                </g>
                <g id="dirArrow">
                        <path fill="none" stroke="white" stroke-width="1.5" d="M0,-3.0v7 M-2.5,-0.5L0,-3.0L2.5,-0.5"/>
                </g>
               <g id="resetDef">
                       <use xlink:href="#rim2" fill="#404040">
                               <set attributeName="fill" to="#808080" begin="reset.mouseover" end="reset.mouseout"/>
                       </use>
               </g>
        </defs>

<script type="text/javascript">
var viewWidth = 2313;
var viewHeight = 335;
var sectionId = 'dynsection-0';
</script>
<script xlink:href="svgpan.js"/>
<svg id="graph" class="graph">
<g id="viewport">
<title>src/polyfem/mesh/Obstacle.cpp</title>
<!-- Node1 -->
<g id="node1" class="node">
<title>Node1</title>
<g id="a_node1"><a xlink:title=" ">
<polygon fill="#999999" stroke="#666666" points="1590.5,-327 1420.5,-327 1420.5,-308 1590.5,-308 1590.5,-327"/>
<text text-anchor="middle" x="1505.5" y="-315" font-family="Helvetica,sans-Serif" font-size="10.00">src/polyfem/mesh/Obstacle.cpp</text>
</a>
</g>
</g>
<!-- Node2 -->
<g id="node2" class="node">
<title>Node2</title>
<g id="a_node2"><a xlink:href="_obstacle_8hpp.html" target="_top" xlink:title=" ">
<polygon fill="white" stroke="#666666" points="257.5,-211.5 103.5,-211.5 103.5,-192.5 257.5,-192.5 257.5,-211.5"/>
<text text-anchor="middle" x="180.5" y="-199.5" font-family="Helvetica,sans-Serif" font-size="10.00">polyfem/mesh/Obstacle.hpp</text>
</a>
</g>
</g>
<!-- Node1&#45;&gt;Node2 -->
<g id="edge1" class="edge">
<title>Node1&#45;&gt;Node2</title>
<path fill="none" stroke="#63b8ff" d="M1420.32,-312.35C1219.58,-301.98 701.38,-271.76 271.5,-217 262.2,-215.82 252.39,-214.44 242.79,-213.02"/>
<polygon fill="#63b8ff" stroke="#63b8ff" points="243.29,-209.56 232.89,-211.53 242.26,-216.48 243.29,-209.56"/>
</g>
<!-- Node12 -->
<g id="node12" class="node">
<title>Node12</title>
<g id="a_node12"><a xlink:href="_mesh_utils_8hpp.html" target="_top" xlink:title=" ">
<polygon fill="white" stroke="#666666" points="984.5,-272 824.5,-272 824.5,-253 984.5,-253 984.5,-272"/>
<text text-anchor="middle" x="904.5" y="-260" font-family="Helvetica,sans-Serif" font-size="10.00">polyfem/mesh/MeshUtils.hpp</text>
</a>
</g>
</g>
<!-- Node1&#45;&gt;Node12 -->
<g id="edge15" class="edge">
<title>Node1&#45;&gt;Node12</title>
<path fill="none" stroke="#63b8ff" d="M1420.35,-308.99C1307.82,-299.07 1110.4,-281.66 995.17,-271.5"/>
<polygon fill="#63b8ff" stroke="#63b8ff" points="995.24,-267.99 984.97,-270.6 994.62,-274.96 995.24,-267.99"/>
</g>
<!-- Node24 -->
<g id="node24" class="node">
<title>Node24</title>
<g id="a_node24"><a xlink:href="_j_s_o_n_utils_8hpp.html" target="_top" xlink:title=" ">
<polygon fill="white" stroke="#666666" points="1395.5,-272 1243.5,-272 1243.5,-253 1395.5,-253 1395.5,-272"/>
<text text-anchor="middle" x="1319.5" y="-260" font-family="Helvetica,sans-Serif" font-size="10.00">polyfem/utils/JSONUtils.hpp</text>
</a>
</g>
</g>
<!-- Node1&#45;&gt;Node24 -->
<g id="edge45" class="edge">
<title>Node1&#45;&gt;Node24</title>
<path fill="none" stroke="#63b8ff" d="M1475.62,-307.98C1444.12,-299.01 1394.33,-284.82 1359.47,-274.89"/>
<polygon fill="#63b8ff" stroke="#63b8ff" points="1360.19,-271.46 1349.62,-272.08 1358.28,-278.19 1360.19,-271.46"/>
</g>
<!-- Node28 -->
<g id="node28" class="node">
<title>Node28</title>
<g id="a_node28"><a xlink:href="_string_utils_8hpp.html" target="_top" xlink:title=" ">
<polygon fill="white" stroke="#666666" points="1583.5,-272 1427.5,-272 1427.5,-253 1583.5,-253 1583.5,-272"/>
<text text-anchor="middle" x="1505.5" y="-260" font-family="Helvetica,sans-Serif" font-size="10.00">polyfem/utils/StringUtils.hpp</text>
</a>
</g>
</g>
<!-- Node1&#45;&gt;Node28 -->
<g id="edge50" class="edge">
<title>Node1&#45;&gt;Node28</title>
<path fill="none" stroke="#63b8ff" d="M1505.5,-307.75C1505.5,-300.8 1505.5,-290.85 1505.5,-282.13"/>
<polygon fill="#63b8ff" stroke="#63b8ff" points="1509,-282.09 1505.5,-272.09 1502,-282.09 1509,-282.09"/>
</g>
<!-- Node30 -->
<g id="node30" class="node">
<title>Node30</title>
<g id="a_node30"><a xlink:href="_logger_8hpp.html" target="_top" xlink:title=" ">
<polygon fill="white" stroke="#666666" points="1785,-272 1648,-272 1648,-253 1785,-253 1785,-272"/>
<text text-anchor="middle" x="1716.5" y="-260" font-family="Helvetica,sans-Serif" font-size="10.00">polyfem/utils/Logger.hpp</text>
</a>
</g>
</g>
<!-- Node1&#45;&gt;Node30 -->
<g id="edge53" class="edge">
<title>Node1&#45;&gt;Node30</title>
<path fill="none" stroke="#63b8ff" d="M1539.4,-307.98C1575.52,-298.91 1632.82,-284.52 1672.42,-274.57"/>
<polygon fill="#63b8ff" stroke="#63b8ff" points="1673.49,-277.91 1682.33,-272.08 1671.78,-271.12 1673.49,-277.91"/>
</g>
<!-- Node36 -->
<g id="node36" class="node">
<title>Node36</title>
<g id="a_node36"><a xlink:title=" ">
<polygon fill="#e0e0e0" stroke="#999999" points="1873.5,-272 1803.5,-272 1803.5,-253 1873.5,-253 1873.5,-272"/>
<text text-anchor="middle" x="1838.5" y="-260" font-family="Helvetica,sans-Serif" font-size="10.00">igl/edges.h</text>
</a>
</g>
</g>
<!-- Node1&#45;&gt;Node36 -->
<g id="edge59" class="edge">
<title>Node1&#45;&gt;Node36</title>
<path fill="none" stroke="#63b8ff" d="M1565.11,-308C1621.39,-299.82 1708.41,-286.77 1793.38,-272.14"/>
<polygon fill="#63b8ff" stroke="#63b8ff" points="1794.2,-275.55 1803.46,-270.39 1793.01,-268.65 1794.2,-275.55"/>
</g>
<!-- Node37 -->
<g id="node37" class="node">
<title>Node37</title>
<g id="a_node37"><a xlink:title=" ">
<polygon fill="#e0e0e0" stroke="#999999" points="2019,-272 1892,-272 1892,-253 2019,-253 2019,-272"/>
<text text-anchor="middle" x="1955.5" y="-260" font-family="Helvetica,sans-Serif" font-size="10.00">ipc/utils/eigen_ext.hpp</text>
</a>
</g>
</g>
<!-- Node1&#45;&gt;Node37 -->
<g id="edge60" class="edge">
<title>Node1&#45;&gt;Node37</title>
<path fill="none" stroke="#63b8ff" d="M1577.8,-307.98C1661.24,-298.16 1797.73,-282.08 1881.77,-272.18"/>
<polygon fill="#63b8ff" stroke="#63b8ff" points="1882.23,-275.65 1891.75,-271.01 1881.41,-268.7 1882.23,-275.65"/>
</g>
<!-- Node3 -->
<g id="node3" class="node">
<title>Node3</title>
<g id="a_node3"><a xlink:href="_common_8hpp.html" target="_top" xlink:title=" ">
<polygon fill="white" stroke="#666666" points="125,-79.5 0,-79.5 0,-60.5 125,-60.5 125,-79.5"/>
<text text-anchor="middle" x="62.5" y="-67.5" font-family="Helvetica,sans-Serif" font-size="10.00">polyfem/Common.hpp</text>
</a>
</g>
</g>
<!-- Node2&#45;&gt;Node3 -->
<g id="edge2" class="edge">
<title>Node2&#45;&gt;Node3</title>
<path fill="none" stroke="#63b8ff" d="M103.19,-192.73C77.05,-185.81 50.47,-173.34 34.5,-151 20.66,-131.63 35.5,-104.79 48.29,-87.66"/>
<polygon fill="#63b8ff" stroke="#63b8ff" points="51.15,-89.68 54.64,-79.67 45.67,-85.33 51.15,-89.68"/>
</g>
<!-- Node6 -->
<g id="node6" class="node">
<title>Node6</title>
<g id="a_node6"><a xlink:href="_expression_value_8hpp.html" target="_top" xlink:title=" ">
<polygon fill="white" stroke="#666666" points="181,-151 44,-151 44,-121 181,-121 181,-151"/>
<text text-anchor="start" x="52" y="-139" font-family="Helvetica,sans-Serif" font-size="10.00">polyfem/utils/Expression</text>
<text text-anchor="middle" x="112.5" y="-128" font-family="Helvetica,sans-Serif" font-size="10.00">Value.hpp</text>
</a>
</g>
</g>
<!-- Node2&#45;&gt;Node6 -->
<g id="edge5" class="edge">
<title>Node2&#45;&gt;Node6</title>
<path fill="none" stroke="#63b8ff" d="M171.33,-192.37C162.02,-183.61 147.26,-169.71 134.85,-158.04"/>
<polygon fill="#63b8ff" stroke="#63b8ff" points="137.18,-155.42 127.5,-151.12 132.38,-160.52 137.18,-155.42"/>
</g>
<!-- Node7 -->
<g id="node7" class="node">
<title>Node7</title>
<g id="a_node7"><a xlink:href="_interpolation_8hpp.html" target="_top" xlink:title=" ">
<polygon fill="white" stroke="#666666" points="556,-145.5 389,-145.5 389,-126.5 556,-126.5 556,-145.5"/>
<text text-anchor="middle" x="472.5" y="-133.5" font-family="Helvetica,sans-Serif" font-size="10.00">polyfem/utils/Interpolation.hpp</text>
</a>
</g>
</g>
<!-- Node2&#45;&gt;Node7 -->
<g id="edge7" class="edge">
<title>Node2&#45;&gt;Node7</title>
<path fill="none" stroke="#63b8ff" d="M219.58,-192.44C272.35,-180.87 366.39,-160.26 423.74,-147.69"/>
<polygon fill="#63b8ff" stroke="#63b8ff" points="424.64,-151.07 433.65,-145.51 423.14,-144.24 424.64,-151.07"/>
</g>
<!-- Node10 -->
<g id="node10" class="node">
<title>Node10</title>
<g id="a_node10"><a xlink:href="_types_8hpp.html" target="_top" xlink:title=" ">
<polygon fill="white" stroke="#666666" points="276,-79.5 143,-79.5 143,-60.5 276,-60.5 276,-79.5"/>
<text text-anchor="middle" x="209.5" y="-67.5" font-family="Helvetica,sans-Serif" font-size="10.00">polyfem/utils/Types.hpp</text>
</a>
</g>
</g>
<!-- Node2&#45;&gt;Node10 -->
<g id="edge11" class="edge">
<title>Node2&#45;&gt;Node10</title>
<path fill="none" stroke="#63b8ff" d="M182.4,-192.47C187.03,-171.73 198.96,-118.24 205.34,-89.66"/>
<polygon fill="#63b8ff" stroke="#63b8ff" points="208.79,-90.25 207.55,-79.73 201.96,-88.73 208.79,-90.25"/>
</g>
<!-- Node11 -->
<g id="node11" class="node">
<title>Node11</title>
<g id="a_node11"><a xlink:title=" ">
<polygon fill="#e0e0e0" stroke="#999999" points="536,-19 459,-19 459,0 536,0 536,-19"/>
<text text-anchor="middle" x="497.5" y="-7" font-family="Helvetica,sans-Serif" font-size="10.00">Eigen/Dense</text>
</a>
</g>
</g>
<!-- Node2&#45;&gt;Node11 -->
<g id="edge14" class="edge">
<title>Node2&#45;&gt;Node11</title>
<path fill="none" stroke="#63b8ff" d="M186.74,-192.19C205.24,-166.73 262.65,-92.53 328.5,-55 365.81,-33.74 413.52,-22.38 448.72,-16.48"/>
<polygon fill="#63b8ff" stroke="#63b8ff" points="449.44,-19.91 458.76,-14.89 448.34,-13 449.44,-19.91"/>
</g>
<!-- Node4 -->
<g id="node4" class="node">
<title>Node4</title>
<g id="a_node4"><a xlink:title=" ">
<polygon fill="#e0e0e0" stroke="#999999" points="232.5,-19 152.5,-19 152.5,0 232.5,0 232.5,-19"/>
<text text-anchor="middle" x="192.5" y="-7" font-family="Helvetica,sans-Serif" font-size="10.00">Eigen/Sparse</text>
</a>
</g>
</g>
<!-- Node3&#45;&gt;Node4 -->
<g id="edge3" class="edge">
<title>Node3&#45;&gt;Node4</title>
<path fill="none" stroke="#63b8ff" d="M81.4,-60.49C103.16,-50.7 139.12,-34.52 164.21,-23.23"/>
<polygon fill="#63b8ff" stroke="#63b8ff" points="165.89,-26.31 173.57,-19.02 163.02,-19.93 165.89,-26.31"/>
</g>
<!-- Node5 -->
<g id="node5" class="node">
<title>Node5</title>
<g id="a_node5"><a xlink:title=" ">
<polygon fill="#e0e0e0" stroke="#999999" points="117.5,-19 7.5,-19 7.5,0 117.5,0 117.5,-19"/>
<text text-anchor="middle" x="62.5" y="-7" font-family="Helvetica,sans-Serif" font-size="10.00">nlohmann/json.hpp</text>
</a>
</g>
</g>
<!-- Node3&#45;&gt;Node5 -->
<g id="edge4" class="edge">
<title>Node3&#45;&gt;Node5</title>
<path fill="none" stroke="#63b8ff" d="M62.5,-60.37C62.5,-52.25 62.5,-39.81 62.5,-29.39"/>
<polygon fill="#63b8ff" stroke="#63b8ff" points="66,-29.17 62.5,-19.17 59,-29.17 66,-29.17"/>
</g>
<!-- Node6&#45;&gt;Node3 -->
<g id="edge6" class="edge">
<title>Node6&#45;&gt;Node3</title>
<path fill="none" stroke="#63b8ff" d="M101.4,-120.8C93.84,-111.11 83.78,-98.24 75.79,-88.01"/>
<polygon fill="#63b8ff" stroke="#63b8ff" points="78.32,-85.57 69.41,-79.84 72.81,-89.88 78.32,-85.57"/>
</g>
<!-- Node7&#45;&gt;Node3 -->
<g id="edge8" class="edge">
<title>Node7&#45;&gt;Node3</title>
<path fill="none" stroke="#63b8ff" d="M413.54,-126.46C323.8,-113.44 160.47,-89.64 133.5,-85 127.24,-83.92 120.69,-82.72 114.2,-81.5"/>
<polygon fill="#63b8ff" stroke="#63b8ff" points="114.59,-78.01 104.11,-79.55 113.27,-84.88 114.59,-78.01"/>
</g>
<!-- Node8 -->
<g id="node8" class="node">
<title>Node8</title>
<g id="a_node8"><a xlink:title=" ">
<polygon fill="#e0e0e0" stroke="#999999" points="612.5,-79.5 554.5,-79.5 554.5,-60.5 612.5,-60.5 612.5,-79.5"/>
<text text-anchor="middle" x="583.5" y="-67.5" font-family="Helvetica,sans-Serif" font-size="10.00">memory</text>
</a>
</g>
</g>
<!-- Node7&#45;&gt;Node8 -->
<g id="edge9" class="edge">
<title>Node7&#45;&gt;Node8</title>
<path fill="none" stroke="#63b8ff" d="M487.47,-126.37C506.01,-115.68 537.81,-97.35 559.7,-84.72"/>
<polygon fill="#63b8ff" stroke="#63b8ff" points="561.5,-87.73 568.41,-79.7 558,-81.66 561.5,-87.73"/>
</g>
<!-- Node9 -->
<g id="node9" class="node">
<title>Node9</title>
<g id="a_node9"><a xlink:title=" ">
<polygon fill="#e0e0e0" stroke="#999999" points="1365,-19 1318,-19 1318,0 1365,0 1365,-19"/>
<text text-anchor="middle" x="1341.5" y="-7" font-family="Helvetica,sans-Serif" font-size="10.00">vector</text>
</a>
</g>
</g>
<!-- Node7&#45;&gt;Node9 -->
<g id="edge10" class="edge">
<title>Node7&#45;&gt;Node9</title>
<path fill="none" stroke="#63b8ff" d="M547.17,-126.47C656.66,-113.87 851.33,-91.12 883.5,-85 935.39,-75.12 946.62,-64.92 998.5,-55 1126.93,-30.44 1161.09,-37.75 1290.5,-19 1296.11,-18.19 1302.05,-17.26 1307.82,-16.32"/>
<polygon fill="#63b8ff" stroke="#63b8ff" points="1308.63,-19.74 1317.92,-14.64 1307.48,-12.83 1308.63,-19.74"/>
</g>
<!-- Node10&#45;&gt;Node4 -->
<g id="edge13" class="edge">
<title>Node10&#45;&gt;Node4</title>
<path fill="none" stroke="#63b8ff" d="M206.99,-60.37C204.61,-52.16 200.94,-39.54 197.89,-29.05"/>
<polygon fill="#63b8ff" stroke="#63b8ff" points="201.17,-27.79 195.02,-19.17 194.45,-29.75 201.17,-27.79"/>
</g>
<!-- Node10&#45;&gt;Node11 -->
<g id="edge12" class="edge">
<title>Node10&#45;&gt;Node11</title>
<path fill="none" stroke="#63b8ff" d="M251.38,-60.49C303.81,-49.84 393.46,-31.63 448.87,-20.38"/>
<polygon fill="#63b8ff" stroke="#63b8ff" points="449.7,-23.78 458.8,-18.36 448.3,-16.92 449.7,-23.78"/>
</g>
<!-- Node12&#45;&gt;Node8 -->
<g id="edge44" class="edge">
<title>Node12&#45;&gt;Node8</title>
<path fill="none" stroke="#63b8ff" d="M824.3,-253.62C755.32,-242.47 658.36,-215.62 602.5,-151 587.8,-133.99 583.99,-107.63 583.24,-89.86"/>
<polygon fill="#63b8ff" stroke="#63b8ff" points="586.74,-89.56 583.11,-79.61 579.74,-89.66 586.74,-89.56"/>
</g>
<!-- Node12&#45;&gt;Node9 -->
<g id="edge43" class="edge">
<title>Node12&#45;&gt;Node9</title>
<path fill="none" stroke="#63b8ff" d="M948.92,-252.97C987.54,-245.1 1044.78,-232.33 1093.5,-217 1169.23,-193.17 1189.11,-187.73 1259.5,-151 1306.71,-126.37 1334.26,-131.89 1359.5,-85 1369.21,-66.95 1360.72,-43.65 1352.42,-27.95"/>
<polygon fill="#63b8ff" stroke="#63b8ff" points="1355.45,-26.2 1347.43,-19.28 1349.38,-29.69 1355.45,-26.2"/>
</g>
<!-- Node12&#45;&gt;Node11 -->
<g id="edge42" class="edge">
<title>Node12&#45;&gt;Node11</title>
<path fill="none" stroke="#63b8ff" d="M824.44,-256.88C691.21,-247.29 433.29,-220.08 379.5,-151 342.14,-103.01 426.13,-48.46 471.26,-23.82"/>
<polygon fill="#63b8ff" stroke="#63b8ff" points="473.06,-26.82 480.24,-19.03 469.77,-20.65 473.06,-26.82"/>
</g>
<!-- Node13 -->
<g id="node13" class="node">
<title>Node13</title>
<g id="a_node13"><a xlink:href="_mesh_8hpp.html" target="_top" xlink:title=" ">
<polygon fill="white" stroke="#666666" points="749,-145.5 612,-145.5 612,-126.5 749,-126.5 749,-145.5"/>
<text text-anchor="middle" x="680.5" y="-133.5" font-family="Helvetica,sans-Serif" font-size="10.00">polyfem/mesh/Mesh.hpp</text>
</a>
</g>
</g>
<!-- Node12&#45;&gt;Node13 -->
<g id="edge16" class="edge">
<title>Node12&#45;&gt;Node13</title>
<path fill="none" stroke="#63b8ff" d="M889.1,-252.94C850.82,-231.66 751.08,-176.23 704.78,-150.49"/>
<polygon fill="#63b8ff" stroke="#63b8ff" points="706.45,-147.42 696,-145.62 703.04,-153.53 706.45,-147.42"/>
</g>
<!-- Node15 -->
<g id="node15" class="node">
<title>Node15</title>
<g id="a_node15"><a xlink:title=" ">
<polygon fill="#e0e0e0" stroke="#999999" points="1006,-19 877,-19 877,0 1006,0 1006,-19"/>
<text text-anchor="middle" x="941.5" y="-7" font-family="Helvetica,sans-Serif" font-size="10.00">geogram/mesh/mesh.h</text>
</a>
</g>
</g>
<!-- Node12&#45;&gt;Node15 -->
<g id="edge41" class="edge">
<title>Node12&#45;&gt;Node15</title>
<path fill="none" stroke="#63b8ff" d="M955.34,-252.96C1009.88,-240.8 1093.85,-212.69 1132.5,-151 1141.01,-137.42 1148.69,-76.35 1131.5,-55 1116.85,-36.81 1062.86,-25.3 1016.16,-18.56"/>
<polygon fill="#63b8ff" stroke="#63b8ff" points="1016.41,-15.06 1006.02,-17.15 1015.44,-21.99 1016.41,-15.06"/>
</g>
<!-- Node19 -->
<g id="node19" class="node">
<title>Node19</title>
<g id="a_node19"><a xlink:href="_mesh3_d_8hpp.html" target="_top" xlink:title=" ">
<polygon fill="white" stroke="#666666" points="970,-217 839,-217 839,-187 970,-187 970,-217"/>
<text text-anchor="start" x="847" y="-205" font-family="Helvetica,sans-Serif" font-size="10.00">polyfem/mesh/mesh3D</text>
<text text-anchor="middle" x="904.5" y="-194" font-family="Helvetica,sans-Serif" font-size="10.00">/Mesh3D.hpp</text>
</a>
</g>
</g>
<!-- Node12&#45;&gt;Node19 -->
<g id="edge28" class="edge">
<title>Node12&#45;&gt;Node19</title>
<path fill="none" stroke="#63b8ff" d="M904.5,-252.87C904.5,-246.11 904.5,-236.35 904.5,-227.26"/>
<polygon fill="#63b8ff" stroke="#63b8ff" points="908,-227.11 904.5,-217.11 901,-227.11 908,-227.11"/>
</g>
<!-- Node13&#45;&gt;Node3 -->
<g id="edge17" class="edge">
<title>Node13&#45;&gt;Node3</title>
<path fill="none" stroke="#63b8ff" d="M613.38,-126.47C597.37,-124.56 580.34,-122.62 564.5,-121 373.27,-101.48 323.87,-111.63 133.5,-85 126.4,-84.01 118.94,-82.76 111.63,-81.42"/>
<polygon fill="#63b8ff" stroke="#63b8ff" points="112.28,-77.98 101.8,-79.56 110.97,-84.86 112.28,-77.98"/>
</g>
<!-- Node13&#45;&gt;Node8 -->
<g id="edge27" class="edge">
<title>Node13&#45;&gt;Node8</title>
<path fill="none" stroke="#63b8ff" d="M667.42,-126.37C651.44,-115.82 624.17,-97.84 605.07,-85.23"/>
<polygon fill="#63b8ff" stroke="#63b8ff" points="606.96,-82.28 596.68,-79.7 603.1,-88.13 606.96,-82.28"/>
</g>
<!-- Node13&#45;&gt;Node10 -->
<g id="edge21" class="edge">
<title>Node13&#45;&gt;Node10</title>
<path fill="none" stroke="#63b8ff" d="M617.47,-126.44C530.49,-114.62 374.02,-93.36 282.21,-80.88"/>
<polygon fill="#63b8ff" stroke="#63b8ff" points="282.54,-77.39 272.16,-79.51 281.6,-84.33 282.54,-77.39"/>
</g>
<!-- Node13&#45;&gt;Node11 -->
<g id="edge25" class="edge">
<title>Node13&#45;&gt;Node11</title>
<path fill="none" stroke="#63b8ff" d="M676.26,-126.21C667.98,-109.89 648.08,-74.79 621.5,-55 599.25,-38.43 570.25,-27.58 545.89,-20.74"/>
<polygon fill="#63b8ff" stroke="#63b8ff" points="546.68,-17.33 536.11,-18.13 544.87,-24.09 546.68,-17.33"/>
</g>
<!-- Node14 -->
<g id="node14" class="node">
<title>Node14</title>
<g id="a_node14"><a xlink:href="_navigation_8hpp.html" target="_top" xlink:title=" ">
<polygon fill="white" stroke="#666666" points="875,-85 744,-85 744,-55 875,-55 875,-85"/>
<text text-anchor="start" x="752" y="-73" font-family="Helvetica,sans-Serif" font-size="10.00">polyfem/mesh/mesh2D</text>
<text text-anchor="middle" x="809.5" y="-62" font-family="Helvetica,sans-Serif" font-size="10.00">/Navigation.hpp</text>
</a>
</g>
</g>
<!-- Node13&#45;&gt;Node14 -->
<g id="edge18" class="edge">
<title>Node13&#45;&gt;Node14</title>
<path fill="none" stroke="#63b8ff" d="M697.9,-126.37C716.8,-116.99 747.58,-101.72 772.03,-89.59"/>
<polygon fill="#63b8ff" stroke="#63b8ff" points="773.65,-92.7 781.05,-85.12 770.53,-86.42 773.65,-92.7"/>
</g>
<!-- Node13&#45;&gt;Node15 -->
<g id="edge26" class="edge">
<title>Node13&#45;&gt;Node15</title>
<path fill="none" stroke="#63b8ff" d="M749.42,-129.45C790.99,-123.46 843.46,-110.97 883.5,-85 905.46,-70.76 922.59,-45.3 932.37,-28.16"/>
<polygon fill="#63b8ff" stroke="#63b8ff" points="935.55,-29.63 937.26,-19.17 929.41,-26.28 935.55,-29.63"/>
</g>
<!-- Node17 -->
<g id="node17" class="node">
<title>Node17</title>
<g id="a_node17"><a xlink:href="_hash_utils_8hpp.html" target="_top" xlink:title=" ">
<polygon fill="white" stroke="#666666" points="1331.5,-79.5 1179.5,-79.5 1179.5,-60.5 1331.5,-60.5 1331.5,-79.5"/>
<text text-anchor="middle" x="1255.5" y="-67.5" font-family="Helvetica,sans-Serif" font-size="10.00">polyfem/utils/HashUtils.hpp</text>
</a>
</g>
</g>
<!-- Node13&#45;&gt;Node17 -->
<g id="edge22" class="edge">
<title>Node13&#45;&gt;Node17</title>
<path fill="none" stroke="#63b8ff" d="M749.18,-126.56C764.74,-124.69 781.18,-122.75 796.5,-121 945.28,-104.03 982.65,-101.4 1131.5,-85 1144.2,-83.6 1157.63,-82.1 1170.77,-80.63"/>
<polygon fill="#63b8ff" stroke="#63b8ff" points="1171.21,-84.1 1180.76,-79.5 1170.43,-77.14 1171.21,-84.1"/>
</g>
<!-- Node14&#45;&gt;Node15 -->
<g id="edge19" class="edge">
<title>Node14&#45;&gt;Node15</title>
<path fill="none" stroke="#63b8ff" d="M841.12,-54.99C862.85,-45.36 891.47,-32.67 912.59,-23.31"/>
<polygon fill="#63b8ff" stroke="#63b8ff" points="914.28,-26.39 922.01,-19.14 911.45,-19.99 914.28,-26.39"/>
</g>
<!-- Node16 -->
<g id="node16" class="node">
<title>Node16</title>
<g id="a_node16"><a xlink:title=" ">
<polygon fill="#e0e0e0" stroke="#999999" points="858.5,-19 710.5,-19 710.5,0 858.5,0 858.5,-19"/>
<text text-anchor="middle" x="784.5" y="-7" font-family="Helvetica,sans-Serif" font-size="10.00">geogram/basic/attributes.h</text>
</a>
</g>
</g>
<!-- Node14&#45;&gt;Node16 -->
<g id="edge20" class="edge">
<title>Node14&#45;&gt;Node16</title>
<path fill="none" stroke="#63b8ff" d="M803.45,-54.84C800.08,-46.95 795.85,-37.05 792.24,-28.61"/>
<polygon fill="#63b8ff" stroke="#63b8ff" points="795.39,-27.09 788.25,-19.27 788.96,-29.84 795.39,-27.09"/>
</g>
<!-- Node17&#45;&gt;Node9 -->
<g id="edge24" class="edge">
<title>Node17&#45;&gt;Node9</title>
<path fill="none" stroke="#63b8ff" d="M1268.19,-60.37C1281.91,-51.04 1304,-36.01 1320.35,-24.88"/>
<polygon fill="#63b8ff" stroke="#63b8ff" points="1322.46,-27.69 1328.76,-19.17 1318.52,-21.9 1322.46,-27.69"/>
</g>
<!-- Node18 -->
<g id="node18" class="node">
<title>Node18</title>
<g id="a_node18"><a xlink:title=" ">
<polygon fill="#e0e0e0" stroke="#999999" points="1282,-19 1229,-19 1229,0 1282,0 1282,-19"/>
<text text-anchor="middle" x="1255.5" y="-7" font-family="Helvetica,sans-Serif" font-size="10.00">cstddef</text>
</a>
</g>
</g>
<!-- Node17&#45;&gt;Node18 -->
<g id="edge23" class="edge">
<title>Node17&#45;&gt;Node18</title>
<path fill="none" stroke="#63b8ff" d="M1255.5,-60.37C1255.5,-52.25 1255.5,-39.81 1255.5,-29.39"/>
<polygon fill="#63b8ff" stroke="#63b8ff" points="1259,-29.17 1255.5,-19.17 1252,-29.17 1259,-29.17"/>
</g>
<!-- Node19&#45;&gt;Node3 -->
<g id="edge29" class="edge">
<title>Node19&#45;&gt;Node3</title>
<path fill="none" stroke="#63b8ff" d="M838.93,-196.67C707.67,-187.72 421.58,-166.72 379.5,-151 358.01,-142.97 358.65,-129.88 337.5,-121 252.61,-85.36 224,-101.91 133.5,-85 127.42,-83.86 121.06,-82.65 114.74,-81.42"/>
<polygon fill="#63b8ff" stroke="#63b8ff" points="115.38,-77.98 104.9,-79.5 114.04,-84.85 115.38,-77.98"/>
</g>
<!-- Node19&#45;&gt;Node9 -->
<g id="edge39" class="edge">
<title>Node19&#45;&gt;Node9</title>
<path fill="none" stroke="#63b8ff" d="M970.27,-193.42C1080.91,-179.15 1296.5,-144.28 1340.5,-85 1352.28,-69.13 1350.35,-45.68 1346.89,-29.34"/>
<polygon fill="#63b8ff" stroke="#63b8ff" points="1350.21,-28.2 1344.39,-19.34 1343.42,-29.89 1350.21,-28.2"/>
</g>
<!-- Node19&#45;&gt;Node11 -->
<g id="edge38" class="edge">
<title>Node19&#45;&gt;Node11</title>
<path fill="none" stroke="#63b8ff" d="M868.96,-186.91C847.39,-177.79 819.65,-165.02 796.5,-151 777.8,-139.67 775.5,-133.42 757.5,-121 711.52,-89.26 701.57,-77.67 650.5,-55 616.88,-40.07 576.91,-28.65 546.25,-21.11"/>
<polygon fill="#63b8ff" stroke="#63b8ff" points="546.78,-17.64 536.24,-18.71 545.14,-24.44 546.78,-17.64"/>
</g>
<!-- Node19&#45;&gt;Node13 -->
<g id="edge30" class="edge">
<title>Node19&#45;&gt;Node13</title>
<path fill="none" stroke="#63b8ff" d="M855.34,-186.95C814.67,-175.34 757.66,-159.05 719.94,-148.27"/>
<polygon fill="#63b8ff" stroke="#63b8ff" points="720.89,-144.9 710.31,-145.52 718.96,-151.63 720.89,-144.9"/>
</g>
<!-- Node19&#45;&gt;Node15 -->
<g id="edge36" class="edge">
<title>Node19&#45;&gt;Node15</title>
<path fill="none" stroke="#63b8ff" d="M915.76,-186.6C922.52,-177.07 930.55,-163.98 934.5,-151 947.24,-109.09 945.56,-56.93 943.42,-29.46"/>
<polygon fill="#63b8ff" stroke="#63b8ff" points="946.89,-28.95 942.51,-19.3 939.91,-29.58 946.89,-28.95"/>
</g>
<!-- Node20 -->
<g id="node20" class="node">
<title>Node20</title>
<g id="a_node20"><a xlink:href="_navigation3_d_8hpp.html" target="_top" xlink:title=" ">
<polygon fill="white" stroke="#666666" points="1123.5,-145.5 1019.5,-145.5 1019.5,-126.5 1123.5,-126.5 1123.5,-145.5"/>
<text text-anchor="middle" x="1071.5" y="-133.5" font-family="Helvetica,sans-Serif" font-size="10.00">Navigation3D.hpp</text>
</a>
</g>
</g>
<!-- Node19&#45;&gt;Node20 -->
<g id="edge31" class="edge">
<title>Node19&#45;&gt;Node20</title>
<path fill="none" stroke="#63b8ff" d="M941.15,-186.95C970.69,-175.63 1011.81,-159.88 1039.92,-149.1"/>
<polygon fill="#63b8ff" stroke="#63b8ff" points="1041.19,-152.36 1049.28,-145.52 1038.68,-145.83 1041.19,-152.36"/>
</g>
<!-- Node21 -->
<g id="node21" class="node">
<title>Node21</title>
<g id="a_node21"><a xlink:href="_mesh3_d_storage_8hpp.html" target="_top" xlink:title=" ">
<polygon fill="white" stroke="#666666" points="1123,-79.5 1008,-79.5 1008,-60.5 1123,-60.5 1123,-79.5"/>
<text text-anchor="middle" x="1065.5" y="-67.5" font-family="Helvetica,sans-Serif" font-size="10.00">Mesh3DStorage.hpp</text>
</a>
</g>
</g>
<!-- Node19&#45;&gt;Node21 -->
<g id="edge35" class="edge">
<title>Node19&#45;&gt;Node21</title>
<path fill="none" stroke="#63b8ff" d="M922.47,-186.84C935.11,-176.87 952.38,-163.17 967.5,-151 995.37,-128.57 1027.45,-102.29 1047.1,-86.15"/>
<polygon fill="#63b8ff" stroke="#63b8ff" points="1049.45,-88.74 1054.95,-79.69 1045.01,-83.34 1049.45,-88.74"/>
</g>
<!-- Node22 -->
<g id="node22" class="node">
<title>Node22</title>
<g id="a_node22"><a xlink:title=" ">
<polygon fill="#e0e0e0" stroke="#999999" points="865.5,-145.5 805.5,-145.5 805.5,-126.5 865.5,-126.5 865.5,-145.5"/>
<text text-anchor="middle" x="835.5" y="-133.5" font-family="Helvetica,sans-Serif" font-size="10.00">iostream</text>
</a>
</g>
</g>
<!-- Node19&#45;&gt;Node22 -->
<g id="edge37" class="edge">
<title>Node19&#45;&gt;Node22</title>
<path fill="none" stroke="#63b8ff" d="M889.19,-186.8C878.32,-176.72 863.74,-163.19 852.51,-152.78"/>
<polygon fill="#63b8ff" stroke="#63b8ff" points="854.75,-150.08 845.04,-145.84 849.99,-155.21 854.75,-150.08"/>
</g>
<!-- Node23 -->
<g id="node23" class="node">
<title>Node23</title>
<g id="a_node23"><a xlink:title=" ">
<polygon fill="#e0e0e0" stroke="#999999" points="925.5,-145.5 883.5,-145.5 883.5,-126.5 925.5,-126.5 925.5,-145.5"/>
<text text-anchor="middle" x="904.5" y="-133.5" font-family="Helvetica,sans-Serif" font-size="10.00">array</text>
</a>
</g>
</g>
<!-- Node19&#45;&gt;Node23 -->
<g id="edge40" class="edge">
<title>Node19&#45;&gt;Node23</title>
<path fill="none" stroke="#63b8ff" d="M904.5,-186.8C904.5,-177.7 904.5,-165.79 904.5,-155.9"/>
<polygon fill="#63b8ff" stroke="#63b8ff" points="908,-155.84 904.5,-145.84 901,-155.84 908,-155.84"/>
</g>
<!-- Node20&#45;&gt;Node21 -->
<g id="edge32" class="edge">
<title>Node20&#45;&gt;Node21</title>
<path fill="none" stroke="#63b8ff" d="M1070.69,-126.37C1069.82,-117.07 1068.4,-101.98 1067.27,-89.9"/>
<polygon fill="#63b8ff" stroke="#63b8ff" points="1070.75,-89.53 1066.33,-79.91 1063.78,-90.19 1070.75,-89.53"/>
</g>
<!-- Node21&#45;&gt;Node9 -->
<g id="edge33" class="edge">
<title>Node21&#45;&gt;Node9</title>
<path fill="none" stroke="#63b8ff" d="M1105.63,-60.49C1160.18,-48.93 1256.77,-28.46 1307.77,-17.65"/>
<polygon fill="#63b8ff" stroke="#63b8ff" points="1308.58,-21.06 1317.64,-15.56 1307.13,-14.21 1308.58,-21.06"/>
</g>
<!-- Node21&#45;&gt;Node11 -->
<g id="edge34" class="edge">
<title>Node21&#45;&gt;Node11</title>
<path fill="none" stroke="#63b8ff" d="M1007.91,-63.07C895.87,-51.53 650.4,-26.25 546.02,-15.5"/>
<polygon fill="#63b8ff" stroke="#63b8ff" points="546.38,-12.02 536.07,-14.47 545.66,-18.98 546.38,-12.02"/>
</g>
<!-- Node24&#45;&gt;Node3 -->
<g id="edge46" class="edge">
<title>Node24&#45;&gt;Node3</title>
<path fill="none" stroke="#63b8ff" d="M1243.25,-257.92C1077.07,-249.03 670.48,-221.35 337.5,-151 249.48,-132.4 148.51,-100.13 96.86,-82.8"/>
<polygon fill="#63b8ff" stroke="#63b8ff" points="97.8,-79.43 87.21,-79.55 95.56,-86.06 97.8,-79.43"/>
</g>
<!-- Node25 -->
<g id="node25" class="node">
<title>Node25</title>
<g id="a_node25"><a xlink:title=" ">
<polygon fill="#e0e0e0" stroke="#999999" points="1441,-211.5 1372,-211.5 1372,-192.5 1441,-192.5 1441,-211.5"/>
<text text-anchor="middle" x="1406.5" y="-199.5" font-family="Helvetica,sans-Serif" font-size="10.00">Eigen/Core</text>
</a>
</g>
</g>
<!-- Node24&#45;&gt;Node25 -->
<g id="edge47" class="edge">
<title>Node24&#45;&gt;Node25</title>
<path fill="none" stroke="#63b8ff" d="M1332.34,-252.87C1346.22,-243.54 1368.57,-228.51 1385.11,-217.38"/>
<polygon fill="#63b8ff" stroke="#63b8ff" points="1387.26,-220.15 1393.61,-211.67 1383.36,-214.34 1387.26,-220.15"/>
</g>
<!-- Node26 -->
<g id="node26" class="node">
<title>Node26</title>
<g id="a_node26"><a xlink:title=" ">
<polygon fill="#e0e0e0" stroke="#999999" points="1267.5,-211.5 1217.5,-211.5 1217.5,-192.5 1267.5,-192.5 1267.5,-211.5"/>
<text text-anchor="middle" x="1242.5" y="-199.5" font-family="Helvetica,sans-Serif" font-size="10.00">igl/PI.h</text>
</a>
</g>
</g>
<!-- Node24&#45;&gt;Node26 -->
<g id="edge48" class="edge">
<title>Node24&#45;&gt;Node26</title>
<path fill="none" stroke="#63b8ff" d="M1308.14,-252.87C1296.08,-243.71 1276.8,-229.06 1262.25,-218.01"/>
<polygon fill="#63b8ff" stroke="#63b8ff" points="1263.99,-214.93 1253.91,-211.67 1259.75,-220.5 1263.99,-214.93"/>
</g>
<!-- Node27 -->
<g id="node27" class="node">
<title>Node27</title>
<g id="a_node27"><a xlink:title=" ">
<polygon fill="#e0e0e0" stroke="#999999" points="1353.5,-211.5 1285.5,-211.5 1285.5,-192.5 1353.5,-192.5 1353.5,-211.5"/>
<text text-anchor="middle" x="1319.5" y="-199.5" font-family="Helvetica,sans-Serif" font-size="10.00">filesystem</text>
</a>
</g>
</g>
<!-- Node24&#45;&gt;Node27 -->
<g id="edge49" class="edge">
<title>Node24&#45;&gt;Node27</title>
<path fill="none" stroke="#63b8ff" d="M1319.5,-252.87C1319.5,-244.75 1319.5,-232.31 1319.5,-221.89"/>
<polygon fill="#63b8ff" stroke="#63b8ff" points="1323,-221.67 1319.5,-211.67 1316,-221.67 1323,-221.67"/>
</g>
<!-- Node28&#45;&gt;Node9 -->
<g id="edge51" class="edge">
<title>Node28&#45;&gt;Node9</title>
<path fill="none" stroke="#63b8ff" d="M1501.94,-252.92C1486.54,-215.96 1425.91,-71.57 1411.5,-55 1400.21,-42.02 1384.22,-31.47 1370.37,-23.9"/>
<polygon fill="#63b8ff" stroke="#63b8ff" points="1371.7,-20.65 1361.21,-19.15 1368.47,-26.86 1371.7,-20.65"/>
</g>
<!-- Node29 -->
<g id="node29" class="node">
<title>Node29</title>
<g id="a_node29"><a xlink:title=" ">
<polygon fill="#e0e0e0" stroke="#999999" points="1541.5,-211.5 1497.5,-211.5 1497.5,-192.5 1541.5,-192.5 1541.5,-211.5"/>
<text text-anchor="middle" x="1519.5" y="-199.5" font-family="Helvetica,sans-Serif" font-size="10.00">string</text>
</a>
</g>
</g>
<!-- Node28&#45;&gt;Node29 -->
<g id="edge52" class="edge">
<title>Node28&#45;&gt;Node29</title>
<path fill="none" stroke="#63b8ff" d="M1507.57,-252.87C1509.53,-244.66 1512.55,-232.04 1515.06,-221.55"/>
<polygon fill="#63b8ff" stroke="#63b8ff" points="1518.5,-222.21 1517.43,-211.67 1511.69,-220.58 1518.5,-222.21"/>
</g>
<!-- Node31 -->
<g id="node31" class="node">
<title>Node31</title>
<g id="a_node31"><a xlink:href="_disable_warnings_8hpp.html" target="_top" xlink:title=" ">
<polygon fill="white" stroke="#666666" points="2059,-211.5 1872,-211.5 1872,-192.5 2059,-192.5 2059,-211.5"/>
<text text-anchor="middle" x="1965.5" y="-199.5" font-family="Helvetica,sans-Serif" font-size="10.00">polyfem/utils/DisableWarnings.hpp</text>
</a>
</g>
</g>
<!-- Node30&#45;&gt;Node31 -->
<g id="edge54" class="edge">
<title>Node30&#45;&gt;Node31</title>
<path fill="none" stroke="#63b8ff" d="M1752.71,-252.99C1796.78,-242.64 1871.27,-225.14 1919.4,-213.83"/>
<polygon fill="#63b8ff" stroke="#63b8ff" points="1920.32,-217.21 1929.25,-211.52 1918.71,-210.4 1920.32,-217.21"/>
</g>
<!-- Node32 -->
<g id="node32" class="node">
<title>Node32</title>
<g id="a_node32"><a xlink:title=" ">
<polygon fill="#e0e0e0" stroke="#999999" points="2188,-217 2077,-217 2077,-187 2188,-187 2188,-217"/>
<text text-anchor="start" x="2085" y="-205" font-family="Helvetica,sans-Serif" font-size="10.00">spdlog/fmt/bundled</text>
<text text-anchor="middle" x="2132.5" y="-194" font-family="Helvetica,sans-Serif" font-size="10.00">/ranges.h</text>
</a>
</g>
</g>
<!-- Node30&#45;&gt;Node32 -->
<g id="edge55" class="edge">
<title>Node30&#45;&gt;Node32</title>
<path fill="none" stroke="#63b8ff" d="M1785.08,-253.57C1867.24,-243.95 2001.14,-227.85 2066.78,-217.18"/>
<polygon fill="#63b8ff" stroke="#63b8ff" points="2067.43,-220.62 2076.71,-215.51 2066.27,-213.71 2067.43,-220.62"/>
</g>
<!-- Node33 -->
<g id="node33" class="node">
<title>Node33</title>
<g id="a_node33"><a xlink:title=" ">
<polygon fill="#e0e0e0" stroke="#999999" points="2305,-211.5 2206,-211.5 2206,-192.5 2305,-192.5 2305,-211.5"/>
<text text-anchor="middle" x="2255.5" y="-199.5" font-family="Helvetica,sans-Serif" font-size="10.00">spdlog/fmt/ostr.h</text>
</a>
</g>
</g>
<!-- Node30&#45;&gt;Node33 -->
<g id="edge56" class="edge">
<title>Node30&#45;&gt;Node33</title>
<path fill="none" stroke="#63b8ff" d="M1785.4,-253.92C1788.47,-253.6 1791.52,-253.3 1794.5,-253 1973.45,-235.26 2020.06,-246.18 2197.5,-217 2202.87,-216.12 2208.47,-215.01 2213.99,-213.8"/>
<polygon fill="#63b8ff" stroke="#63b8ff" points="2214.8,-217.21 2223.76,-211.56 2213.23,-210.39 2214.8,-217.21"/>
</g>
<!-- Node34 -->
<g id="node34" class="node">
<title>Node34</title>
<g id="a_node34"><a xlink:title=" ">
<polygon fill="#e0e0e0" stroke="#999999" points="1653,-211.5 1560,-211.5 1560,-192.5 1653,-192.5 1653,-211.5"/>
<text text-anchor="middle" x="1606.5" y="-199.5" font-family="Helvetica,sans-Serif" font-size="10.00">spdlog/spdlog.h</text>
</a>
</g>
</g>
<!-- Node30&#45;&gt;Node34 -->
<g id="edge57" class="edge">
<title>Node30&#45;&gt;Node34</title>
<path fill="none" stroke="#63b8ff" d="M1700.27,-252.87C1682.23,-243.28 1652.88,-227.67 1631.82,-216.47"/>
<polygon fill="#63b8ff" stroke="#63b8ff" points="1633.27,-213.27 1622.8,-211.67 1629.98,-219.45 1633.27,-213.27"/>
</g>
<!-- Node35 -->
<g id="node35" class="node">
<title>Node35</title>
<g id="a_node35"><a xlink:href="_enable_warnings_8hpp.html" target="_top" xlink:title=" ">
<polygon fill="white" stroke="#666666" points="1854,-211.5 1671,-211.5 1671,-192.5 1854,-192.5 1854,-211.5"/>
<text text-anchor="middle" x="1762.5" y="-199.5" font-family="Helvetica,sans-Serif" font-size="10.00">polyfem/utils/EnableWarnings.hpp</text>
</a>
</g>
</g>
<!-- Node30&#45;&gt;Node35 -->
<g id="edge58" class="edge">
<title>Node30&#45;&gt;Node35</title>
<path fill="none" stroke="#63b8ff" d="M1723.29,-252.87C1730.15,-244.14 1740.93,-230.43 1749.45,-219.59"/>
<polygon fill="#63b8ff" stroke="#63b8ff" points="1752.25,-221.69 1755.68,-211.67 1746.75,-217.36 1752.25,-221.69"/>
</g>
</g>
</svg>
        <g id="navigator" transform="translate(0 0)" fill="#404254">
                <rect fill="#f2f5e9" fill-opacity="0.5" stroke="#606060" stroke-width=".5" x="0" y="0" width="60" height="60"/>
                <use id="zoomplus" xlink:href="#zoomPlus" x="17" y="9" onmousedown="handleZoom(evt,'in')"/>
                <use id="zoomminus" xlink:href="#zoomMin" x="42" y="9" onmousedown="handleZoom(evt,'out')"/>
                <use id="reset" xlink:href="#resetDef" x="30" y="36" onmousedown="handleReset()"/>
                <g id="arrowUp" xlink:href="#dirArrow" transform="translate(30 24)" onmousedown="handlePan(0,-1)">
                  <use xlink:href="#rim" fill="#404040">
                        <set attributeName="fill" to="#808080" begin="arrowUp.mouseover" end="arrowUp.mouseout"/>
                  </use>
                  <path fill="none" stroke="white" stroke-width="1.5" d="M0,-3.0v7 M-2.5,-0.5L0,-3.0L2.5,-0.5"/>
                </g>
                <g id="arrowRight" xlink:href="#dirArrow" transform="rotate(90) translate(36 -43)" onmousedown="handlePan(1,0)">
                  <use xlink:href="#rim" fill="#404040">
                        <set attributeName="fill" to="#808080" begin="arrowRight.mouseover" end="arrowRight.mouseout"/>
                  </use>
                  <path fill="none" stroke="white" stroke-width="1.5" d="M0,-3.0v7 M-2.5,-0.5L0,-3.0L2.5,-0.5"/>
                </g>
                <g id="arrowDown" xlink:href="#dirArrow" transform="rotate(180) translate(-30 -48)" onmousedown="handlePan(0,1)">
                  <use xlink:href="#rim" fill="#404040">
                        <set attributeName="fill" to="#808080" begin="arrowDown.mouseover" end="arrowDown.mouseout"/>
                  </use>
                  <path fill="none" stroke="white" stroke-width="1.5" d="M0,-3.0v7 M-2.5,-0.5L0,-3.0L2.5,-0.5"/>
                </g>
                <g id="arrowLeft" xlink:href="#dirArrow" transform="rotate(270) translate(-36 17)" onmousedown="handlePan(-1,0)">
                  <use xlink:href="#rim" fill="#404040">
                        <set attributeName="fill" to="#808080" begin="arrowLeft.mouseover" end="arrowLeft.mouseout"/>
                  </use>
                  <path fill="none" stroke="white" stroke-width="1.5" d="M0,-3.0v7 M-2.5,-0.5L0,-3.0L2.5,-0.5"/>
                </g>
        </g>
        <svg viewBox="0 0 15 15" width="100%" height="30px" preserveAspectRatio="xMaxYMin meet">
         <g id="arrow_out" transform="scale(0.3 0.3)">
          <a xlink:href="_obstacle_8cpp__incl_org.svg" target="_base">
           <rect id="button" ry="5" rx="5" y="6" x="6" height="38" width="38"
                fill="#f2f5e9" fill-opacity="0.5" stroke="#606060" stroke-width="1.0"/>
           <path id="arrow"
             d="M 11.500037,31.436501 C 11.940474,20.09759 22.043105,11.32322 32.158766,21.979434 L 37.068811,17.246167 C 37.068811,17.246167 37.088388,32 37.088388,32 L 22.160133,31.978069 C 22.160133,31.978069 26.997745,27.140456 26.997745,27.140456 C 18.528582,18.264221 13.291696,25.230495 11.500037,31.436501 z"
             style="fill:#404040;"/>
          </a>
         </g>
        </svg>
</svg>
