<?xml version="1.0" encoding="UTF-8" standalone="no"?>
<!DOCTYPE svg PUBLIC "-//W3C//DTD SVG 1.1//EN"
 "http://www.w3.org/Graphics/SVG/1.1/DTD/svg11.dtd">
<!-- Generated by graphviz version 2.43.0 (0)
 -->
<!-- Title: src/polyfem/solver/forms/adjoint_forms/ParametrizationForm.hpp Pages: 1 -->
<svg width="647pt" height="357pt"
 viewBox="0.00 0.00 647.00 357.00" xmlns="http://www.w3.org/2000/svg" xmlns:xlink="http://www.w3.org/1999/xlink">
<g id="graph0" class="graph" transform="scale(1 1) rotate(0) translate(4 353)">
<title>src/polyfem/solver/forms/adjoint_forms/ParametrizationForm.hpp</title>
<!-- Node1 -->
<g id="Node000001" class="node">
<title>Node1</title>
<g id="a_Node000001"><a xlink:title=" ">
<polygon fill="#999999" stroke="#666666" points="321,-349 178,-349 178,-308 321,-308 321,-349"/>
<text text-anchor="start" x="186" y="-337" font-family="Helvetica,sans-Serif" font-size="10.00">src/polyfem/solver</text>
<text text-anchor="start" x="186" y="-326" font-family="Helvetica,sans-Serif" font-size="10.00">/forms/adjoint_forms</text>
<text text-anchor="middle" x="249.5" y="-315" font-family="Helvetica,sans-Serif" font-size="10.00">/ParametrizationForm.hpp</text>
</a>
</g>
</g>
<!-- Node2 -->
<g id="Node000002" class="node">
<title>Node2</title>
<g id="a_Node000002"><a xlink:href="_types_8hpp.html" target="_top" xlink:title=" ">
<polygon fill="white" stroke="#666666" points="133,-134.5 0,-134.5 0,-115.5 133,-115.5 133,-134.5"/>
<text text-anchor="middle" x="66.5" y="-122.5" font-family="Helvetica,sans-Serif" font-size="10.00">polyfem/utils/Types.hpp</text>
</a>
</g>
</g>
<!-- Node1&#45;&gt;Node2 -->
<g id="edge1_Node000001_Node000002" class="edge">
<title>Node1&#45;&gt;Node2</title>
<g id="a_edge1_Node000001_Node000002"><a xlink:title=" ">
<path fill="none" stroke="#63b8ff" d="M207.5,-307.84C190.21,-298.51 170.71,-286.25 155.5,-272 115.18,-234.22 86.44,-174.19 73.76,-144.24"/>
<polygon fill="#63b8ff" stroke="#63b8ff" points="76.86,-142.58 69.82,-134.67 70.39,-145.25 76.86,-142.58"/>
</a>
</g>
</g>
<!-- Node5 -->
<g id="Node000005" class="node">
<title>Node5</title>
<g id="a_Node000005"><a xlink:href="_parametrization_8hpp.html" target="_top" xlink:title=" ">
<polygon fill="white" stroke="#666666" points="628,-140 429,-140 429,-110 628,-110 628,-140"/>
<text text-anchor="start" x="437" y="-128" font-family="Helvetica,sans-Serif" font-size="10.00">polyfem/solver/forms</text>
<text text-anchor="middle" x="528.5" y="-117" font-family="Helvetica,sans-Serif" font-size="10.00">/parametrization/Parametrization.hpp</text>
</a>
</g>
</g>
<!-- Node1&#45;&gt;Node5 -->
<g id="edge4_Node000001_Node000005" class="edge">
<title>Node1&#45;&gt;Node5</title>
<g id="a_edge4_Node000001_Node000005"><a xlink:title=" ">
<path fill="none" stroke="#63b8ff" d="M285.46,-307.78C303.28,-297.64 324.9,-284.75 343.5,-272 403.81,-230.68 470.05,-175.92 504.57,-146.6"/>
<polygon fill="#63b8ff" stroke="#63b8ff" points="506.9,-149.22 512.24,-140.06 502.36,-143.89 506.9,-149.22"/>
</a>
</g>
</g>
<!-- Node9 -->
<g id="Node000009" class="node">
<title>Node9</title>
<g id="a_Node000009"><a xlink:href="_adjoint_form_8hpp.html" target="_top" xlink:title=" ">
<polygon fill="white" stroke="#666666" points="334.5,-272 164.5,-272 164.5,-242 334.5,-242 334.5,-272"/>
<text text-anchor="start" x="172.5" y="-260" font-family="Helvetica,sans-Serif" font-size="10.00">polyfem/solver/forms</text>
<text text-anchor="middle" x="249.5" y="-249" font-family="Helvetica,sans-Serif" font-size="10.00">/adjoint_forms/AdjointForm.hpp</text>
</a>
</g>
</g>
<!-- Node1&#45;&gt;Node9 -->
<g id="edge8_Node000001_Node000009" class="edge">
<title>Node1&#45;&gt;Node9</title>
<g id="a_edge8_Node000001_Node000009"><a xlink:title=" ">
<path fill="none" stroke="#63b8ff" d="M249.5,-307.77C249.5,-299.85 249.5,-290.63 249.5,-282.3"/>
<polygon fill="#63b8ff" stroke="#63b8ff" points="253,-282.04 249.5,-272.04 246,-282.04 253,-282.04"/>
</a>
</g>
</g>
<!-- Node3 -->
<g id="Node000003" class="node">
<title>Node3</title>
<g id="a_Node000003"><a xlink:title=" ">
<polygon fill="#e0e0e0" stroke="#999999" points="96,-74 19,-74 19,-55 96,-55 96,-74"/>
<text text-anchor="middle" x="57.5" y="-62" font-family="Helvetica,sans-Serif" font-size="10.00">Eigen/Dense</text>
</a>
</g>
</g>
<!-- Node2&#45;&gt;Node3 -->
<g id="edge2_Node000002_Node000003" class="edge">
<title>Node2&#45;&gt;Node3</title>
<g id="a_edge2_Node000002_Node000003"><a xlink:title=" ">
<path fill="none" stroke="#63b8ff" d="M65.17,-115.37C63.91,-107.16 61.97,-94.54 60.35,-84.05"/>
<polygon fill="#63b8ff" stroke="#63b8ff" points="63.81,-83.52 58.83,-74.17 56.89,-84.58 63.81,-83.52"/>
</a>
</g>
</g>
<!-- Node4 -->
<g id="Node000004" class="node">
<title>Node4</title>
<g id="a_Node000004"><a xlink:title=" ">
<polygon fill="#e0e0e0" stroke="#999999" points="164.5,-19 84.5,-19 84.5,0 164.5,0 164.5,-19"/>
<text text-anchor="middle" x="124.5" y="-7" font-family="Helvetica,sans-Serif" font-size="10.00">Eigen/Sparse</text>
</a>
</g>
</g>
<!-- Node2&#45;&gt;Node4 -->
<g id="edge3_Node000002_Node000004" class="edge">
<title>Node2&#45;&gt;Node4</title>
<g id="a_edge3_Node000002_Node000004"><a xlink:title=" ">
<path fill="none" stroke="#63b8ff" d="M74.78,-115.48C83.54,-106.05 97.22,-90.04 105.5,-74 112.85,-59.76 117.82,-42.23 120.83,-29.2"/>
<polygon fill="#63b8ff" stroke="#63b8ff" points="124.32,-29.61 122.98,-19.1 117.48,-28.15 124.32,-29.61"/>
</a>
</g>
</g>
<!-- Node6 -->
<g id="Node000006" class="node">
<title>Node6</title>
<g id="a_Node000006"><a xlink:title=" ">
<polygon fill="#e0e0e0" stroke="#999999" points="486.5,-74 428.5,-74 428.5,-55 486.5,-55 486.5,-74"/>
<text text-anchor="middle" x="457.5" y="-62" font-family="Helvetica,sans-Serif" font-size="10.00">memory</text>
</a>
</g>
</g>
<!-- Node5&#45;&gt;Node6 -->
<g id="edge5_Node000005_Node000006" class="edge">
<title>Node5&#45;&gt;Node6</title>
<g id="a_edge5_Node000005_Node000006"><a xlink:title=" ">
<path fill="none" stroke="#63b8ff" d="M511.31,-109.84C500.69,-101.09 487.06,-89.85 476.17,-80.88"/>
<polygon fill="#63b8ff" stroke="#63b8ff" points="478.08,-77.92 468.14,-74.27 473.63,-83.33 478.08,-77.92"/>
</a>
</g>
</g>
<!-- Node7 -->
<g id="Node000007" class="node">
<title>Node7</title>
<g id="a_Node000007"><a xlink:title=" ">
<polygon fill="#e0e0e0" stroke="#999999" points="552,-74 505,-74 505,-55 552,-55 552,-74"/>
<text text-anchor="middle" x="528.5" y="-62" font-family="Helvetica,sans-Serif" font-size="10.00">vector</text>
</a>
</g>
</g>
<!-- Node5&#45;&gt;Node7 -->
<g id="edge6_Node000005_Node000007" class="edge">
<title>Node5&#45;&gt;Node7</title>
<g id="a_edge6_Node000005_Node000007"><a xlink:title=" ">
<path fill="none" stroke="#63b8ff" d="M528.5,-109.84C528.5,-102.21 528.5,-92.7 528.5,-84.45"/>
<polygon fill="#63b8ff" stroke="#63b8ff" points="532,-84.27 528.5,-74.27 525,-84.27 532,-84.27"/>
</a>
</g>
</g>
<!-- Node8 -->
<g id="Node000008" class="node">
<title>Node8</title>
<g id="a_Node000008"><a xlink:title=" ">
<polygon fill="#e0e0e0" stroke="#999999" points="639,-74 570,-74 570,-55 639,-55 639,-74"/>
<text text-anchor="middle" x="604.5" y="-62" font-family="Helvetica,sans-Serif" font-size="10.00">Eigen/Core</text>
</a>
</g>
</g>
<!-- Node5&#45;&gt;Node8 -->
<g id="edge7_Node000005_Node000008" class="edge">
<title>Node5&#45;&gt;Node8</title>
<g id="a_edge7_Node000005_Node000008"><a xlink:title=" ">
<path fill="none" stroke="#63b8ff" d="M546.9,-109.84C558.38,-101 573.15,-89.63 584.86,-80.62"/>
<polygon fill="#63b8ff" stroke="#63b8ff" points="587.32,-83.14 593.11,-74.27 583.05,-77.59 587.32,-83.14"/>
</a>
</g>
</g>
<!-- Node10 -->
<g id="Node000010" class="node">
<title>Node10</title>
<g id="a_Node000010"><a xlink:href="_form_8hpp.html" target="_top" xlink:title=" ">
<polygon fill="white" stroke="#666666" points="241.5,-206 119.5,-206 119.5,-176 241.5,-176 241.5,-206"/>
<text text-anchor="start" x="127.5" y="-194" font-family="Helvetica,sans-Serif" font-size="10.00">polyfem/solver/forms</text>
<text text-anchor="middle" x="180.5" y="-183" font-family="Helvetica,sans-Serif" font-size="10.00">/Form.hpp</text>
</a>
</g>
</g>
<!-- Node9&#45;&gt;Node10 -->
<g id="edge9_Node000009_Node000010" class="edge">
<title>Node9&#45;&gt;Node10</title>
<g id="a_edge9_Node000009_Node000010"><a xlink:title=" ">
<path fill="none" stroke="#63b8ff" d="M234.19,-241.8C225.07,-233.34 213.34,-222.46 203.17,-213.03"/>
<polygon fill="#63b8ff" stroke="#63b8ff" points="205.48,-210.4 195.77,-206.16 200.72,-215.53 205.48,-210.4"/>
</a>
</g>
</g>
<!-- Node12 -->
<g id="Node000012" class="node">
<title>Node12</title>
<g id="a_Node000012"><a xlink:href="_variable_to_simulation_8hpp.html" target="_top" xlink:title=" ">
<polygon fill="white" stroke="#666666" points="399.5,-200.5 259.5,-200.5 259.5,-181.5 399.5,-181.5 399.5,-200.5"/>
<text text-anchor="middle" x="329.5" y="-188.5" font-family="Helvetica,sans-Serif" font-size="10.00">VariableToSimulation.hpp</text>
</a>
</g>
</g>
<!-- Node9&#45;&gt;Node12 -->
<g id="edge12_Node000009_Node000012" class="edge">
<title>Node9&#45;&gt;Node12</title>
<g id="a_edge12_Node000009_Node000012"><a xlink:title=" ">
<path fill="none" stroke="#63b8ff" d="M267.25,-241.8C280.09,-231.53 297.42,-217.67 310.53,-207.18"/>
<polygon fill="#63b8ff" stroke="#63b8ff" points="312.82,-209.82 318.44,-200.84 308.45,-204.36 312.82,-209.82"/>
</a>
</g>
</g>
<!-- Node10&#45;&gt;Node2 -->
<g id="edge10_Node000010_Node000002" class="edge">
<title>Node10&#45;&gt;Node2</title>
<g id="a_edge10_Node000010_Node000002"><a xlink:title=" ">
<path fill="none" stroke="#63b8ff" d="M155.48,-175.95C136.19,-165.13 109.68,-150.24 90.62,-139.54"/>
<polygon fill="#63b8ff" stroke="#63b8ff" points="92.1,-136.36 81.67,-134.52 88.68,-142.46 92.1,-136.36"/>
</a>
</g>
</g>
<!-- Node11 -->
<g id="Node000011" class="node">
<title>Node11</title>
<g id="a_Node000011"><a xlink:title=" ">
<polygon fill="#e0e0e0" stroke="#999999" points="219.5,-134.5 151.5,-134.5 151.5,-115.5 219.5,-115.5 219.5,-134.5"/>
<text text-anchor="middle" x="185.5" y="-122.5" font-family="Helvetica,sans-Serif" font-size="10.00">filesystem</text>
</a>
</g>
</g>
<!-- Node10&#45;&gt;Node11 -->
<g id="edge11_Node000010_Node000011" class="edge">
<title>Node10&#45;&gt;Node11</title>
<g id="a_edge11_Node000010_Node000011"><a xlink:title=" ">
<path fill="none" stroke="#63b8ff" d="M181.61,-175.8C182.32,-166.7 183.25,-154.79 184.02,-144.9"/>
<polygon fill="#63b8ff" stroke="#63b8ff" points="187.52,-145.09 184.81,-134.84 180.54,-144.54 187.52,-145.09"/>
</a>
</g>
</g>
<!-- Node12&#45;&gt;Node5 -->
<g id="edge13_Node000012_Node000005" class="edge">
<title>Node12&#45;&gt;Node5</title>
<g id="a_edge13_Node000012_Node000005"><a xlink:title=" ">
<path fill="none" stroke="#63b8ff" d="M356.34,-181.37C386.53,-171.66 436.34,-155.64 474.64,-143.32"/>
<polygon fill="#63b8ff" stroke="#63b8ff" points="476.16,-146.51 484.61,-140.12 474.02,-139.85 476.16,-146.51"/>
</a>
</g>
</g>
<!-- Node13 -->
<g id="Node000013" class="node">
<title>Node13</title>
<g id="a_Node000013"><a xlink:href="_adjoint_tools_8hpp.html" target="_top" xlink:title=" ">
<polygon fill="white" stroke="#666666" points="411,-134.5 238,-134.5 238,-115.5 411,-115.5 411,-134.5"/>
<text text-anchor="middle" x="324.5" y="-122.5" font-family="Helvetica,sans-Serif" font-size="10.00">polyfem/solver/AdjointTools.hpp</text>
</a>
</g>
</g>
<!-- Node12&#45;&gt;Node13 -->
<g id="edge14_Node000012_Node000013" class="edge">
<title>Node12&#45;&gt;Node13</title>
<g id="a_edge14_Node000012_Node000013"><a xlink:title=" ">
<path fill="none" stroke="#63b8ff" d="M328.83,-181.37C328.1,-172.07 326.92,-156.98 325.98,-144.9"/>
<polygon fill="#63b8ff" stroke="#63b8ff" points="329.46,-144.6 325.2,-134.91 322.49,-145.15 329.46,-144.6"/>
</a>
</g>
</g>
<!-- Node14 -->
<g id="Node000014" class="node">
<title>Node14</title>
<g id="a_Node000014"><a xlink:href="_common_8hpp.html" target="_top" xlink:title=" ">
<polygon fill="white" stroke="#666666" points="295,-74 170,-74 170,-55 295,-55 295,-74"/>
<text text-anchor="middle" x="232.5" y="-62" font-family="Helvetica,sans-Serif" font-size="10.00">polyfem/Common.hpp</text>
</a>
</g>
</g>
<!-- Node13&#45;&gt;Node14 -->
<g id="edge15_Node000013_Node000014" class="edge">
<title>Node13&#45;&gt;Node14</title>
<g id="a_edge15_Node000013_Node000014"><a xlink:title=" ">
<path fill="none" stroke="#63b8ff" d="M310.93,-115.37C296.11,-105.95 272.17,-90.73 254.64,-79.58"/>
<polygon fill="#63b8ff" stroke="#63b8ff" points="256.45,-76.58 246.13,-74.17 252.69,-82.49 256.45,-76.58"/>
</a>
</g>
</g>
<!-- Node16 -->
<g id="Node000016" class="node">
<title>Node16</title>
<g id="a_Node000016"><a xlink:title=" ">
<polygon fill="#e0e0e0" stroke="#999999" points="345.5,-74 313.5,-74 313.5,-55 345.5,-55 345.5,-74"/>
<text text-anchor="middle" x="329.5" y="-62" font-family="Helvetica,sans-Serif" font-size="10.00">set</text>
</a>
</g>
</g>
<!-- Node13&#45;&gt;Node16 -->
<g id="edge18_Node000013_Node000016" class="edge">
<title>Node13&#45;&gt;Node16</title>
<g id="a_edge18_Node000013_Node000016"><a xlink:title=" ">
<path fill="none" stroke="#63b8ff" d="M325.24,-115.37C325.93,-107.25 327,-94.81 327.89,-84.39"/>
<polygon fill="#63b8ff" stroke="#63b8ff" points="331.39,-84.43 328.76,-74.17 324.42,-83.83 331.39,-84.43"/>
</a>
</g>
</g>
<!-- Node14&#45;&gt;Node4 -->
<g id="edge16_Node000014_Node000004" class="edge">
<title>Node14&#45;&gt;Node4</title>
<g id="a_edge16_Node000014_Node000004"><a xlink:title=" ">
<path fill="none" stroke="#63b8ff" d="M215.15,-54.98C197.93,-46.54 171.3,-33.47 151.35,-23.68"/>
<polygon fill="#63b8ff" stroke="#63b8ff" points="152.69,-20.43 142.17,-19.17 149.6,-26.72 152.69,-20.43"/>
</a>
</g>
</g>
<!-- Node15 -->
<g id="Node000015" class="node">
<title>Node15</title>
<g id="a_Node000015"><a xlink:title=" ">
<polygon fill="#e0e0e0" stroke="#999999" points="292.5,-19 182.5,-19 182.5,0 292.5,0 292.5,-19"/>
<text text-anchor="middle" x="237.5" y="-7" font-family="Helvetica,sans-Serif" font-size="10.00">nlohmann/json.hpp</text>
</a>
</g>
</g>
<!-- Node14&#45;&gt;Node15 -->
<g id="edge17_Node000014_Node000015" class="edge">
<title>Node14&#45;&gt;Node15</title>
<g id="a_edge17_Node000014_Node000015"><a xlink:title=" ">
<path fill="none" stroke="#63b8ff" d="M233.33,-54.75C233.98,-47.8 234.92,-37.85 235.74,-29.13"/>
<polygon fill="#63b8ff" stroke="#63b8ff" points="239.23,-29.37 236.69,-19.09 232.27,-28.72 239.23,-29.37"/>
</a>
</g>
</g>
</g>
</svg>
