<?xml version="1.0" encoding="UTF-8" standalone="no"?>
<!DOCTYPE svg PUBLIC "-//W3C//DTD SVG 1.1//EN"
 "http://www.w3.org/Graphics/SVG/1.1/DTD/svg11.dtd">
<!-- Generated by graphviz version 2.43.0 (0)
 -->
<!-- Title: src/polyfem/assembler/Problem.hpp Pages: 1 -->
<!--zoomable 544 -->
<svg id="main" version="1.1" xmlns="http://www.w3.org/2000/svg" xmlns:xlink="http://www.w3.org/1999/xlink" xml:space="preserve" onload="init(evt)">
<style type="text/css"><![CDATA[
.edge:hover path { stroke: red; }
.edge:hover polygon { stroke: red; fill: red; }
]]></style>
<script type="text/javascript"><![CDATA[
var edges = document.getElementsByTagName('g');
if (edges && edges.length) {
  for (var i=0;i<edges.length;i++) {
    if (edges[i].id.substr(0,4)=='edge') {
      edges[i].setAttribute('class','edge');
    }
  }
}
]]></script>
        <defs>
                <circle id="rim" cx="0" cy="0" r="7"/>
                <circle id="rim2" cx="0" cy="0" r="3.5"/>
                <g id="zoomPlus">
                        <use xlink:href="#rim" fill="#404040">
                                <set attributeName="fill" to="#808080" begin="zoomplus.mouseover" end="zoomplus.mouseout"/>
                        </use>
                        <path d="M-4,0h8M0,-4v8" fill="none" stroke="white" stroke-width="1.5" pointer-events="none"/>
                </g>
                <g id="zoomMin">
                        <use xlink:href="#rim" fill="#404040">
                                <set attributeName="fill" to="#808080" begin="zoomminus.mouseover" end="zoomminus.mouseout"/>
                        </use>
                        <path d="M-4,0h8" fill="none" stroke="white" stroke-width="1.5" pointer-events="none"/>
                </g>
                <g id="dirArrow">
                        <path fill="none" stroke="white" stroke-width="1.5" d="M0,-3.0v7 M-2.5,-0.5L0,-3.0L2.5,-0.5"/>
                </g>
               <g id="resetDef">
                       <use xlink:href="#rim2" fill="#404040">
                               <set attributeName="fill" to="#808080" begin="reset.mouseover" end="reset.mouseout"/>
                       </use>
               </g>
        </defs>

<script type="text/javascript">
var viewWidth = 1371;
var viewHeight = 544;
var sectionId = 'dynsection-0';
</script>
<script xlink:href="svgpan.js"/>
<svg id="graph" class="graph">
<g id="viewport">
<title>src/polyfem/assembler/Problem.hpp</title>
<!-- Node1 -->
<g id="node1" class="node">
<title>Node1</title>
<g id="a_node1"><a xlink:title=" ">
<polygon fill="#999999" stroke="#666666" points="814,-536 686,-536 686,-506 814,-506 814,-536"/>
<text text-anchor="start" x="694" y="-524" font-family="Helvetica,sans-Serif" font-size="10.00">src/polyfem/assembler</text>
<text text-anchor="middle" x="750" y="-513" font-family="Helvetica,sans-Serif" font-size="10.00">/Problem.hpp</text>
</a>
</g>
</g>
<!-- Node2 -->
<g id="node2" class="node">
<title>Node2</title>
<g id="a_node2"><a xlink:href="_assembler_utils_8hpp.html" target="_top" xlink:title=" ">
<polygon fill="white" stroke="#666666" points="618,-470 452,-470 452,-440 618,-440 618,-470"/>
<text text-anchor="start" x="460" y="-458" font-family="Helvetica,sans-Serif" font-size="10.00">polyfem/assembler/Assembler</text>
<text text-anchor="middle" x="535" y="-447" font-family="Helvetica,sans-Serif" font-size="10.00">Utils.hpp</text>
</a>
</g>
</g>
<!-- Node1&#45;&gt;Node2 -->
<g id="edge1" class="edge">
<title>Node1&#45;&gt;Node2</title>
<path fill="none" stroke="#63b8ff" d="M702.82,-505.95C670.19,-496.24 626.6,-483.27 592.03,-472.98"/>
<polygon fill="#63b8ff" stroke="#63b8ff" points="592.66,-469.51 582.07,-470.01 590.66,-476.22 592.66,-469.51"/>
</g>
<!-- Node13 -->
<g id="node13" class="node">
<title>Node13</title>
<g id="a_node13"><a xlink:href="_element_bases_8hpp.html" target="_top" xlink:title=" ">
<polygon fill="white" stroke="#666666" points="742.5,-272 563.5,-272 563.5,-253 742.5,-253 742.5,-272"/>
<text text-anchor="middle" x="653" y="-260" font-family="Helvetica,sans-Serif" font-size="10.00">polyfem/basis/ElementBases.hpp</text>
</a>
</g>
</g>
<!-- Node1&#45;&gt;Node13 -->
<g id="edge48" class="edge">
<title>Node1&#45;&gt;Node13</title>
<path fill="none" stroke="#63b8ff" d="M744.65,-505.84C728.18,-462.3 678.28,-330.34 659.89,-281.73"/>
<polygon fill="#63b8ff" stroke="#63b8ff" points="663.1,-280.32 656.29,-272.21 656.56,-282.8 663.1,-280.32"/>
</g>
<!-- Node14 -->
<g id="node14" class="node">
<title>Node14</title>
<g id="a_node14"><a xlink:href="_mesh_8hpp.html" target="_top" xlink:title=" ">
<polygon fill="white" stroke="#666666" points="839.5,-211.5 702.5,-211.5 702.5,-192.5 839.5,-192.5 839.5,-211.5"/>
<text text-anchor="middle" x="771" y="-199.5" font-family="Helvetica,sans-Serif" font-size="10.00">polyfem/mesh/Mesh.hpp</text>
</a>
</g>
</g>
<!-- Node1&#45;&gt;Node14 -->
<g id="edge54" class="edge">
<title>Node1&#45;&gt;Node14</title>
<path fill="none" stroke="#63b8ff" d="M753.85,-505.69C759.91,-481.88 771,-432.52 771,-390 771,-390 771,-390 771,-322 771,-286.65 771,-245.4 771,-221.92"/>
<polygon fill="#63b8ff" stroke="#63b8ff" points="774.5,-221.66 771,-211.66 767.5,-221.66 774.5,-221.66"/>
</g>
<!-- Node30 -->
<g id="node30" class="node">
<title>Node30</title>
<g id="a_node30"><a xlink:href="_local_boundary_8hpp.html" target="_top" xlink:title=" ">
<polygon fill="white" stroke="#666666" points="1360,-145.5 1178,-145.5 1178,-126.5 1360,-126.5 1360,-145.5"/>
<text text-anchor="middle" x="1269" y="-133.5" font-family="Helvetica,sans-Serif" font-size="10.00">polyfem/mesh/LocalBoundary.hpp</text>
</a>
</g>
</g>
<!-- Node1&#45;&gt;Node30 -->
<g id="edge49" class="edge">
<title>Node1&#45;&gt;Node30</title>
<path fill="none" stroke="#63b8ff" d="M814.35,-507.3C907.27,-487.08 1068,-444.28 1068,-390 1068,-390 1068,-390 1068,-261.5 1068,-194.66 1149.32,-162.48 1208.51,-147.91"/>
<polygon fill="#63b8ff" stroke="#63b8ff" points="1209.6,-151.25 1218.54,-145.55 1208,-144.43 1209.6,-151.25"/>
</g>
<!-- Node3 -->
<g id="node3" class="node">
<title>Node3</title>
<g id="a_node3"><a xlink:href="_assembly_vals_cache_8hpp.html" target="_top" xlink:title=" ">
<polygon fill="white" stroke="#666666" points="616,-404 454,-404 454,-374 616,-374 616,-404"/>
<text text-anchor="start" x="462" y="-392" font-family="Helvetica,sans-Serif" font-size="10.00">polyfem/assembler/Assembly</text>
<text text-anchor="middle" x="535" y="-381" font-family="Helvetica,sans-Serif" font-size="10.00">ValsCache.hpp</text>
</a>
</g>
</g>
<!-- Node2&#45;&gt;Node3 -->
<g id="edge2" class="edge">
<title>Node2&#45;&gt;Node3</title>
<path fill="none" stroke="#63b8ff" d="M535,-439.8C535,-432.34 535,-422.99 535,-414.41"/>
<polygon fill="#63b8ff" stroke="#63b8ff" points="538.5,-414.16 535,-404.16 531.5,-414.16 538.5,-414.16"/>
</g>
<!-- Node2&#45;&gt;Node13 -->
<g id="edge36" class="edge">
<title>Node2&#45;&gt;Node13</title>
<path fill="none" stroke="#63b8ff" d="M576.73,-439.9C594.17,-431.97 613.1,-420.32 625,-404 651.8,-367.27 654.6,-311.35 654.01,-282.38"/>
<polygon fill="#63b8ff" stroke="#63b8ff" points="657.5,-281.92 653.63,-272.06 650.5,-282.18 657.5,-281.92"/>
</g>
<!-- Node24 -->
<g id="node24" class="node">
<title>Node24</title>
<g id="a_node24"><a xlink:href="_autodiff_types_8hpp.html" target="_top" xlink:title=" ">
<polygon fill="white" stroke="#666666" points="376.5,-398.5 205.5,-398.5 205.5,-379.5 376.5,-379.5 376.5,-398.5"/>
<text text-anchor="middle" x="291" y="-386.5" font-family="Helvetica,sans-Serif" font-size="10.00">polyfem/utils/AutodiffTypes.hpp</text>
</a>
</g>
</g>
<!-- Node2&#45;&gt;Node24 -->
<g id="edge37" class="edge">
<title>Node2&#45;&gt;Node24</title>
<path fill="none" stroke="#63b8ff" d="M481.45,-439.95C436.87,-428.26 374.26,-411.84 333.17,-401.06"/>
<polygon fill="#63b8ff" stroke="#63b8ff" points="334.03,-397.67 323.47,-398.52 332.26,-404.44 334.03,-397.67"/>
</g>
<!-- Node29 -->
<g id="node29" class="node">
<title>Node29</title>
<g id="a_node29"><a xlink:href="_matrix_utils_8hpp.html" target="_top" xlink:title=" ">
<polygon fill="white" stroke="#666666" points="252.5,-145.5 93.5,-145.5 93.5,-126.5 252.5,-126.5 252.5,-145.5"/>
<text text-anchor="middle" x="173" y="-133.5" font-family="Helvetica,sans-Serif" font-size="10.00">polyfem/utils/MatrixUtils.hpp</text>
</a>
</g>
</g>
<!-- Node2&#45;&gt;Node29 -->
<g id="edge43" class="edge">
<title>Node2&#45;&gt;Node29</title>
<path fill="none" stroke="#63b8ff" d="M451.77,-450.24C305.35,-441.33 17,-412.55 17,-324 17,-324 17,-324 17,-261.5 17,-201.49 88.39,-165.7 134.58,-148.82"/>
<polygon fill="#63b8ff" stroke="#63b8ff" points="135.75,-152.12 144.02,-145.5 133.43,-145.51 135.75,-152.12"/>
</g>
<!-- Node4 -->
<g id="node4" class="node">
<title>Node4</title>
<g id="a_node4"><a xlink:href="_element_assembly_values_8hpp.html" target="_top" xlink:title=" ">
<polygon fill="white" stroke="#666666" points="612.5,-338 457.5,-338 457.5,-308 612.5,-308 612.5,-338"/>
<text text-anchor="start" x="465.5" y="-326" font-family="Helvetica,sans-Serif" font-size="10.00">polyfem/assembler/Element</text>
<text text-anchor="middle" x="535" y="-315" font-family="Helvetica,sans-Serif" font-size="10.00">AssemblyValues.hpp</text>
</a>
</g>
</g>
<!-- Node3&#45;&gt;Node4 -->
<g id="edge3" class="edge">
<title>Node3&#45;&gt;Node4</title>
<path fill="none" stroke="#63b8ff" d="M535,-373.8C535,-366.34 535,-356.99 535,-348.41"/>
<polygon fill="#63b8ff" stroke="#63b8ff" points="538.5,-348.16 535,-338.16 531.5,-348.16 538.5,-348.16"/>
</g>
<!-- Node5 -->
<g id="node5" class="node">
<title>Node5</title>
<g id="a_node5"><a xlink:href="_assembly_values_8hpp.html" target="_top" xlink:title=" ">
<polygon fill="white" stroke="#666666" points="507,-217 345,-217 345,-187 507,-187 507,-217"/>
<text text-anchor="start" x="353" y="-205" font-family="Helvetica,sans-Serif" font-size="10.00">polyfem/assembler/Assembly</text>
<text text-anchor="middle" x="426" y="-194" font-family="Helvetica,sans-Serif" font-size="10.00">Values.hpp</text>
</a>
</g>
</g>
<!-- Node4&#45;&gt;Node5 -->
<g id="edge4" class="edge">
<title>Node4&#45;&gt;Node5</title>
<path fill="none" stroke="#63b8ff" d="M522.07,-307.88C503.22,-287.31 468.04,-248.9 445.89,-224.71"/>
<polygon fill="#63b8ff" stroke="#63b8ff" points="448.25,-222.11 438.91,-217.1 443.09,-226.84 448.25,-222.11"/>
</g>
<!-- Node12 -->
<g id="node12" class="node">
<title>Node12</title>
<g id="a_node12"><a xlink:title=" ">
<polygon fill="#e0e0e0" stroke="#999999" points="712.5,-79.5 665.5,-79.5 665.5,-60.5 712.5,-60.5 712.5,-79.5"/>
<text text-anchor="middle" x="689" y="-67.5" font-family="Helvetica,sans-Serif" font-size="10.00">vector</text>
</a>
</g>
</g>
<!-- Node4&#45;&gt;Node12 -->
<g id="edge35" class="edge">
<title>Node4&#45;&gt;Node12</title>
<path fill="none" stroke="#63b8ff" d="M537.55,-307.99C540.49,-293.66 546.11,-271.01 555,-253 588.17,-185.78 646.46,-117.53 673.9,-87.22"/>
<polygon fill="#63b8ff" stroke="#63b8ff" points="676.61,-89.45 680.78,-79.71 671.44,-84.73 676.61,-89.45"/>
</g>
<!-- Node4&#45;&gt;Node13 -->
<g id="edge15" class="edge">
<title>Node4&#45;&gt;Node13</title>
<path fill="none" stroke="#63b8ff" d="M563.26,-307.99C582.42,-298.49 607.58,-286.02 626.39,-276.69"/>
<polygon fill="#63b8ff" stroke="#63b8ff" points="628.17,-279.72 635.57,-272.14 625.06,-273.45 628.17,-279.72"/>
</g>
<!-- Node6 -->
<g id="node6" class="node">
<title>Node6</title>
<g id="a_node6"><a xlink:href="_basis_8hpp.html" target="_top" xlink:title=" ">
<polygon fill="white" stroke="#666666" points="493,-145.5 357,-145.5 357,-126.5 493,-126.5 493,-145.5"/>
<text text-anchor="middle" x="425" y="-133.5" font-family="Helvetica,sans-Serif" font-size="10.00">polyfem/basis/Basis.hpp</text>
</a>
</g>
</g>
<!-- Node5&#45;&gt;Node6 -->
<g id="edge5" class="edge">
<title>Node5&#45;&gt;Node6</title>
<path fill="none" stroke="#63b8ff" d="M425.78,-186.8C425.64,-177.7 425.45,-165.79 425.3,-155.9"/>
<polygon fill="#63b8ff" stroke="#63b8ff" points="428.79,-155.79 425.14,-145.84 421.79,-155.9 428.79,-155.79"/>
</g>
<!-- Node8 -->
<g id="node8" class="node">
<title>Node8</title>
<g id="a_node8"><a xlink:title=" ">
<polygon fill="#e0e0e0" stroke="#999999" points="525.5,-19 448.5,-19 448.5,0 525.5,0 525.5,-19"/>
<text text-anchor="middle" x="487" y="-7" font-family="Helvetica,sans-Serif" font-size="10.00">Eigen/Dense</text>
</a>
</g>
</g>
<!-- Node5&#45;&gt;Node8 -->
<g id="edge14" class="edge">
<title>Node5&#45;&gt;Node8</title>
<path fill="none" stroke="#63b8ff" d="M461.53,-186.96C476.89,-178.9 493.31,-167.13 502,-151 523.37,-111.37 506.38,-56.34 495.06,-28.37"/>
<polygon fill="#63b8ff" stroke="#63b8ff" points="498.23,-26.88 491.09,-19.06 491.79,-29.63 498.23,-26.88"/>
</g>
<!-- Node7 -->
<g id="node7" class="node">
<title>Node7</title>
<g id="a_node7"><a xlink:href="_quadrature_8hpp.html" target="_top" xlink:title=" ">
<polygon fill="white" stroke="#666666" points="647.5,-85 534.5,-85 534.5,-55 647.5,-55 647.5,-85"/>
<text text-anchor="start" x="542.5" y="-73" font-family="Helvetica,sans-Serif" font-size="10.00">polyfem/quadrature</text>
<text text-anchor="middle" x="591" y="-62" font-family="Helvetica,sans-Serif" font-size="10.00">/Quadrature.hpp</text>
</a>
</g>
</g>
<!-- Node6&#45;&gt;Node7 -->
<g id="edge6" class="edge">
<title>Node6&#45;&gt;Node7</title>
<path fill="none" stroke="#63b8ff" d="M447.39,-126.37C472.25,-116.78 513.07,-101.05 544.84,-88.8"/>
<polygon fill="#63b8ff" stroke="#63b8ff" points="546.32,-91.98 554.39,-85.12 543.8,-85.45 546.32,-91.98"/>
</g>
<!-- Node6&#45;&gt;Node8 -->
<g id="edge11" class="edge">
<title>Node6&#45;&gt;Node8</title>
<path fill="none" stroke="#63b8ff" d="M429.26,-126.44C439.3,-106.27 464.63,-55.42 478.16,-28.26"/>
<polygon fill="#63b8ff" stroke="#63b8ff" points="481.38,-29.63 482.71,-19.12 475.12,-26.51 481.38,-29.63"/>
</g>
<!-- Node9 -->
<g id="node9" class="node">
<title>Node9</title>
<g id="a_node9"><a xlink:href="_types_8hpp.html" target="_top" xlink:title=" ">
<polygon fill="white" stroke="#666666" points="356.5,-79.5 223.5,-79.5 223.5,-60.5 356.5,-60.5 356.5,-79.5"/>
<text text-anchor="middle" x="290" y="-67.5" font-family="Helvetica,sans-Serif" font-size="10.00">polyfem/utils/Types.hpp</text>
</a>
</g>
</g>
<!-- Node6&#45;&gt;Node9 -->
<g id="edge8" class="edge">
<title>Node6&#45;&gt;Node9</title>
<path fill="none" stroke="#63b8ff" d="M406.79,-126.37C383.85,-115.49 344.19,-96.69 317.53,-84.05"/>
<polygon fill="#63b8ff" stroke="#63b8ff" points="318.88,-80.82 308.35,-79.7 315.89,-87.15 318.88,-80.82"/>
</g>
<!-- Node11 -->
<g id="node11" class="node">
<title>Node11</title>
<g id="a_node11"><a xlink:title=" ">
<polygon fill="#e0e0e0" stroke="#999999" points="439.5,-79.5 374.5,-79.5 374.5,-60.5 439.5,-60.5 439.5,-79.5"/>
<text text-anchor="middle" x="407" y="-67.5" font-family="Helvetica,sans-Serif" font-size="10.00">functional</text>
</a>
</g>
</g>
<!-- Node6&#45;&gt;Node11 -->
<g id="edge12" class="edge">
<title>Node6&#45;&gt;Node11</title>
<path fill="none" stroke="#63b8ff" d="M422.57,-126.37C419.96,-117.07 415.71,-101.98 412.32,-89.9"/>
<polygon fill="#63b8ff" stroke="#63b8ff" points="415.58,-88.58 409.5,-79.91 408.84,-90.48 415.58,-88.58"/>
</g>
<!-- Node6&#45;&gt;Node12 -->
<g id="edge13" class="edge">
<title>Node6&#45;&gt;Node12</title>
<path fill="none" stroke="#63b8ff" d="M479.25,-126.48C526.79,-118.26 597.4,-104.24 657,-85 658.44,-84.53 659.91,-84.03 661.38,-83.49"/>
<polygon fill="#63b8ff" stroke="#63b8ff" points="662.99,-86.61 670.97,-79.64 660.38,-80.12 662.99,-86.61"/>
</g>
<!-- Node7&#45;&gt;Node8 -->
<g id="edge7" class="edge">
<title>Node7&#45;&gt;Node8</title>
<path fill="none" stroke="#63b8ff" d="M566.09,-54.99C549.51,-45.66 527.84,-33.47 511.37,-24.21"/>
<polygon fill="#63b8ff" stroke="#63b8ff" points="512.79,-20.99 502.36,-19.14 509.36,-27.09 512.79,-20.99"/>
</g>
<!-- Node9&#45;&gt;Node8 -->
<g id="edge9" class="edge">
<title>Node9&#45;&gt;Node8</title>
<path fill="none" stroke="#63b8ff" d="M318.65,-60.49C352.93,-50.31 410.48,-33.22 448.6,-21.9"/>
<polygon fill="#63b8ff" stroke="#63b8ff" points="449.73,-25.22 458.32,-19.02 447.74,-18.51 449.73,-25.22"/>
</g>
<!-- Node10 -->
<g id="node10" class="node">
<title>Node10</title>
<g id="a_node10"><a xlink:title=" ">
<polygon fill="#e0e0e0" stroke="#999999" points="208,-19 128,-19 128,0 208,0 208,-19"/>
<text text-anchor="middle" x="168" y="-7" font-family="Helvetica,sans-Serif" font-size="10.00">Eigen/Sparse</text>
</a>
</g>
</g>
<!-- Node9&#45;&gt;Node10 -->
<g id="edge10" class="edge">
<title>Node9&#45;&gt;Node10</title>
<path fill="none" stroke="#63b8ff" d="M272.26,-60.49C251.93,-50.75 218.39,-34.66 194.86,-23.38"/>
<polygon fill="#63b8ff" stroke="#63b8ff" points="196.29,-20.18 185.76,-19.02 193.26,-26.5 196.29,-20.18"/>
</g>
<!-- Node13&#45;&gt;Node5 -->
<g id="edge33" class="edge">
<title>Node13&#45;&gt;Node5</title>
<path fill="none" stroke="#63b8ff" d="M619.99,-252.99C586.18,-244.28 532.74,-230.51 490.5,-219.62"/>
<polygon fill="#63b8ff" stroke="#63b8ff" points="491.13,-216.17 480.57,-217.06 489.38,-222.95 491.13,-216.17"/>
</g>
<!-- Node13&#45;&gt;Node6 -->
<g id="edge16" class="edge">
<title>Node13&#45;&gt;Node6</title>
<path fill="none" stroke="#63b8ff" d="M637.33,-252.94C598.36,-231.66 496.84,-176.23 449.71,-150.49"/>
<polygon fill="#63b8ff" stroke="#63b8ff" points="451.24,-147.34 440.78,-145.62 447.88,-153.48 451.24,-147.34"/>
</g>
<!-- Node13&#45;&gt;Node7 -->
<g id="edge17" class="edge">
<title>Node13&#45;&gt;Node7</title>
<path fill="none" stroke="#63b8ff" d="M650.17,-252.82C641.11,-224.98 612.57,-137.28 598.71,-94.68"/>
<polygon fill="#63b8ff" stroke="#63b8ff" points="602.02,-93.55 595.6,-85.12 595.36,-95.71 602.02,-93.55"/>
</g>
<!-- Node13&#45;&gt;Node12 -->
<g id="edge34" class="edge">
<title>Node13&#45;&gt;Node12</title>
<path fill="none" stroke="#63b8ff" d="M654.64,-252.82C660.12,-223.81 677.89,-129.8 685.49,-89.56"/>
<polygon fill="#63b8ff" stroke="#63b8ff" points="688.93,-90.21 687.35,-79.73 682.05,-88.91 688.93,-90.21"/>
</g>
<!-- Node13&#45;&gt;Node14 -->
<g id="edge18" class="edge">
<title>Node13&#45;&gt;Node14</title>
<path fill="none" stroke="#63b8ff" d="M670.16,-252.99C689.73,-243.29 721.97,-227.31 744.72,-216.03"/>
<polygon fill="#63b8ff" stroke="#63b8ff" points="746.42,-219.09 753.82,-211.52 743.31,-212.82 746.42,-219.09"/>
</g>
<!-- Node14&#45;&gt;Node8 -->
<g id="edge30" class="edge">
<title>Node14&#45;&gt;Node8</title>
<path fill="none" stroke="#63b8ff" d="M762.6,-192.24C754.13,-182.84 741.42,-167.1 735,-151 719.06,-111 751.63,-86.23 722,-55 697.08,-28.73 597.04,-17.6 535.8,-13.17"/>
<polygon fill="#63b8ff" stroke="#63b8ff" points="535.8,-9.67 525.58,-12.47 535.32,-16.65 535.8,-9.67"/>
</g>
<!-- Node14&#45;&gt;Node9 -->
<g id="edge25" class="edge">
<title>Node14&#45;&gt;Node9</title>
<path fill="none" stroke="#63b8ff" d="M702.32,-195.91C590.35,-187.16 377.86,-168.52 348,-151 323.66,-136.72 306.65,-107.75 297.6,-88.87"/>
<polygon fill="#63b8ff" stroke="#63b8ff" points="300.71,-87.25 293.4,-79.58 294.33,-90.13 300.71,-87.25"/>
</g>
<!-- Node15 -->
<g id="node15" class="node">
<title>Node15</title>
<g id="a_node15"><a xlink:href="_common_8hpp.html" target="_top" xlink:title=" ">
<polygon fill="white" stroke="#666666" points="128.5,-79.5 3.5,-79.5 3.5,-60.5 128.5,-60.5 128.5,-79.5"/>
<text text-anchor="middle" x="66" y="-67.5" font-family="Helvetica,sans-Serif" font-size="10.00">polyfem/Common.hpp</text>
</a>
</g>
</g>
<!-- Node14&#45;&gt;Node15 -->
<g id="edge19" class="edge">
<title>Node14&#45;&gt;Node15</title>
<path fill="none" stroke="#63b8ff" d="M702.5,-197.07C531.13,-187.11 96.67,-160.94 85,-151 67.54,-136.13 64.51,-108.42 64.68,-89.84"/>
<polygon fill="#63b8ff" stroke="#63b8ff" points="68.18,-89.78 65.09,-79.65 61.19,-89.49 68.18,-89.78"/>
</g>
<!-- Node17 -->
<g id="node17" class="node">
<title>Node17</title>
<g id="a_node17"><a xlink:href="_navigation_8hpp.html" target="_top" xlink:title=" ">
<polygon fill="white" stroke="#666666" points="989.5,-151 858.5,-151 858.5,-121 989.5,-121 989.5,-151"/>
<text text-anchor="start" x="866.5" y="-139" font-family="Helvetica,sans-Serif" font-size="10.00">polyfem/mesh/mesh2D</text>
<text text-anchor="middle" x="924" y="-128" font-family="Helvetica,sans-Serif" font-size="10.00">/Navigation.hpp</text>
</a>
</g>
</g>
<!-- Node14&#45;&gt;Node17 -->
<g id="edge22" class="edge">
<title>Node14&#45;&gt;Node17</title>
<path fill="none" stroke="#63b8ff" d="M791.63,-192.37C814.35,-182.87 851.52,-167.32 880.7,-155.11"/>
<polygon fill="#63b8ff" stroke="#63b8ff" points="882.38,-158.2 890.25,-151.12 879.68,-151.75 882.38,-158.2"/>
</g>
<!-- Node18 -->
<g id="node18" class="node">
<title>Node18</title>
<g id="a_node18"><a xlink:title=" ">
<polygon fill="#e0e0e0" stroke="#999999" points="898.5,-79.5 769.5,-79.5 769.5,-60.5 898.5,-60.5 898.5,-79.5"/>
<text text-anchor="middle" x="834" y="-67.5" font-family="Helvetica,sans-Serif" font-size="10.00">geogram/mesh/mesh.h</text>
</a>
</g>
</g>
<!-- Node14&#45;&gt;Node18 -->
<g id="edge31" class="edge">
<title>Node14&#45;&gt;Node18</title>
<path fill="none" stroke="#63b8ff" d="M779.87,-192.2C788.91,-182.77 802.73,-167 811,-151 821.14,-131.39 827.37,-106.7 830.74,-89.97"/>
<polygon fill="#63b8ff" stroke="#63b8ff" points="834.24,-90.3 832.64,-79.83 827.36,-89.02 834.24,-90.3"/>
</g>
<!-- Node20 -->
<g id="node20" class="node">
<title>Node20</title>
<g id="a_node20"><a xlink:href="_hash_utils_8hpp.html" target="_top" xlink:title=" ">
<polygon fill="white" stroke="#666666" points="1160,-145.5 1008,-145.5 1008,-126.5 1160,-126.5 1160,-145.5"/>
<text text-anchor="middle" x="1084" y="-133.5" font-family="Helvetica,sans-Serif" font-size="10.00">polyfem/utils/HashUtils.hpp</text>
</a>
</g>
</g>
<!-- Node14&#45;&gt;Node20 -->
<g id="edge26" class="edge">
<title>Node14&#45;&gt;Node20</title>
<path fill="none" stroke="#63b8ff" d="M812.89,-192.44C869.69,-180.82 971.1,-160.09 1032.49,-147.53"/>
<polygon fill="#63b8ff" stroke="#63b8ff" points="1033.26,-150.95 1042.36,-145.51 1031.86,-144.09 1033.26,-150.95"/>
</g>
<!-- Node23 -->
<g id="node23" class="node">
<title>Node23</title>
<g id="a_node23"><a xlink:title=" ">
<polygon fill="#e0e0e0" stroke="#999999" points="802,-145.5 744,-145.5 744,-126.5 802,-126.5 802,-145.5"/>
<text text-anchor="middle" x="773" y="-133.5" font-family="Helvetica,sans-Serif" font-size="10.00">memory</text>
</a>
</g>
</g>
<!-- Node14&#45;&gt;Node23 -->
<g id="edge32" class="edge">
<title>Node14&#45;&gt;Node23</title>
<path fill="none" stroke="#63b8ff" d="M771.27,-192.37C771.56,-183.16 772.02,-168.29 772.4,-156.27"/>
<polygon fill="#63b8ff" stroke="#63b8ff" points="775.91,-156.01 772.72,-145.91 768.91,-155.79 775.91,-156.01"/>
</g>
<!-- Node15&#45;&gt;Node10 -->
<g id="edge20" class="edge">
<title>Node15&#45;&gt;Node10</title>
<path fill="none" stroke="#63b8ff" d="M81.05,-60.37C97.62,-50.86 124.5,-35.45 143.99,-24.27"/>
<polygon fill="#63b8ff" stroke="#63b8ff" points="145.95,-27.18 152.89,-19.17 142.47,-21.11 145.95,-27.18"/>
</g>
<!-- Node16 -->
<g id="node16" class="node">
<title>Node16</title>
<g id="a_node16"><a xlink:title=" ">
<polygon fill="#e0e0e0" stroke="#999999" points="110,-19 0,-19 0,0 110,0 110,-19"/>
<text text-anchor="middle" x="55" y="-7" font-family="Helvetica,sans-Serif" font-size="10.00">nlohmann/json.hpp</text>
</a>
</g>
</g>
<!-- Node15&#45;&gt;Node16 -->
<g id="edge21" class="edge">
<title>Node15&#45;&gt;Node16</title>
<path fill="none" stroke="#63b8ff" d="M64.38,-60.37C62.83,-52.16 60.46,-39.54 58.49,-29.05"/>
<polygon fill="#63b8ff" stroke="#63b8ff" points="61.92,-28.35 56.63,-19.17 55.04,-29.64 61.92,-28.35"/>
</g>
<!-- Node17&#45;&gt;Node18 -->
<g id="edge23" class="edge">
<title>Node17&#45;&gt;Node18</title>
<path fill="none" stroke="#63b8ff" d="M904.03,-120.8C889.36,-110.37 869.49,-96.24 854.66,-85.69"/>
<polygon fill="#63b8ff" stroke="#63b8ff" points="856.35,-82.6 846.18,-79.66 852.3,-88.31 856.35,-82.6"/>
</g>
<!-- Node19 -->
<g id="node19" class="node">
<title>Node19</title>
<g id="a_node19"><a xlink:title=" ">
<polygon fill="#e0e0e0" stroke="#999999" points="1065,-79.5 917,-79.5 917,-60.5 1065,-60.5 1065,-79.5"/>
<text text-anchor="middle" x="991" y="-67.5" font-family="Helvetica,sans-Serif" font-size="10.00">geogram/basic/attributes.h</text>
</a>
</g>
</g>
<!-- Node17&#45;&gt;Node19 -->
<g id="edge24" class="edge">
<title>Node17&#45;&gt;Node19</title>
<path fill="none" stroke="#63b8ff" d="M938.87,-120.8C949.42,-110.72 963.58,-97.19 974.48,-86.78"/>
<polygon fill="#63b8ff" stroke="#63b8ff" points="976.93,-89.28 981.74,-79.84 972.09,-84.22 976.93,-89.28"/>
</g>
<!-- Node20&#45;&gt;Node12 -->
<g id="edge29" class="edge">
<title>Node20&#45;&gt;Node12</title>
<path fill="none" stroke="#63b8ff" d="M1032.78,-126.45C1021.65,-124.63 1009.93,-122.73 999,-121 893.33,-104.31 866.42,-103.21 761,-85 748.48,-82.84 734.78,-80.23 722.73,-77.86"/>
<polygon fill="#63b8ff" stroke="#63b8ff" points="723.12,-74.37 712.63,-75.85 721.75,-81.24 723.12,-74.37"/>
</g>
<!-- Node21 -->
<g id="node21" class="node">
<title>Node21</title>
<g id="a_node21"><a xlink:title=" ">
<polygon fill="#e0e0e0" stroke="#999999" points="1136.5,-79.5 1083.5,-79.5 1083.5,-60.5 1136.5,-60.5 1136.5,-79.5"/>
<text text-anchor="middle" x="1110" y="-67.5" font-family="Helvetica,sans-Serif" font-size="10.00">cstddef</text>
</a>
</g>
</g>
<!-- Node20&#45;&gt;Node21 -->
<g id="edge27" class="edge">
<title>Node20&#45;&gt;Node21</title>
<path fill="none" stroke="#63b8ff" d="M1087.51,-126.37C1091.32,-116.97 1097.54,-101.67 1102.47,-89.53"/>
<polygon fill="#63b8ff" stroke="#63b8ff" points="1105.86,-90.49 1106.38,-79.91 1099.38,-87.85 1105.86,-90.49"/>
</g>
<!-- Node22 -->
<g id="node22" class="node">
<title>Node22</title>
<g id="a_node22"><a xlink:title=" ">
<polygon fill="#e0e0e0" stroke="#999999" points="1203,-79.5 1161,-79.5 1161,-60.5 1203,-60.5 1203,-79.5"/>
<text text-anchor="middle" x="1182" y="-67.5" font-family="Helvetica,sans-Serif" font-size="10.00">array</text>
</a>
</g>
</g>
<!-- Node20&#45;&gt;Node22 -->
<g id="edge28" class="edge">
<title>Node20&#45;&gt;Node22</title>
<path fill="none" stroke="#63b8ff" d="M1097.22,-126.37C1113.36,-115.82 1140.91,-97.84 1160.21,-85.23"/>
<polygon fill="#63b8ff" stroke="#63b8ff" points="1162.22,-88.1 1168.68,-79.7 1158.39,-82.24 1162.22,-88.1"/>
</g>
<!-- Node24&#45;&gt;Node9 -->
<g id="edge38" class="edge">
<title>Node24&#45;&gt;Node9</title>
<path fill="none" stroke="#63b8ff" d="M291,-379.25C291,-358.92 291,-306.95 291,-263.5 291,-263.5 291,-263.5 291,-201 291,-161.45 290.53,-115.13 290.24,-89.84"/>
<polygon fill="#63b8ff" stroke="#63b8ff" points="293.73,-89.47 290.11,-79.52 286.73,-89.56 293.73,-89.47"/>
</g>
<!-- Node25 -->
<g id="node25" class="node">
<title>Node25</title>
<g id="a_node25"><a xlink:href="autodiff_8h.html" target="_top" xlink:title=" ">
<polygon fill="white" stroke="#666666" points="216.5,-332.5 153.5,-332.5 153.5,-313.5 216.5,-313.5 216.5,-332.5"/>
<text text-anchor="middle" x="185" y="-320.5" font-family="Helvetica,sans-Serif" font-size="10.00">autodiff.h</text>
</a>
</g>
</g>
<!-- Node24&#45;&gt;Node25 -->
<g id="edge39" class="edge">
<title>Node24&#45;&gt;Node25</title>
<path fill="none" stroke="#63b8ff" d="M276.7,-379.37C259.08,-368.73 228.91,-350.51 208.01,-337.89"/>
<polygon fill="#63b8ff" stroke="#63b8ff" points="209.78,-334.87 199.41,-332.7 206.16,-340.86 209.78,-334.87"/>
</g>
<!-- Node26 -->
<g id="node26" class="node">
<title>Node26</title>
<g id="a_node26"><a xlink:title=" ">
<polygon fill="#e0e0e0" stroke="#999999" points="262.5,-272 193.5,-272 193.5,-253 262.5,-253 262.5,-272"/>
<text text-anchor="middle" x="228" y="-260" font-family="Helvetica,sans-Serif" font-size="10.00">Eigen/Core</text>
</a>
</g>
</g>
<!-- Node25&#45;&gt;Node26 -->
<g id="edge40" class="edge">
<title>Node25&#45;&gt;Node26</title>
<path fill="none" stroke="#63b8ff" d="M191.34,-313.37C197.7,-304.73 207.64,-291.2 215.57,-280.42"/>
<polygon fill="#63b8ff" stroke="#63b8ff" points="218.53,-282.3 221.63,-272.17 212.89,-278.15 218.53,-282.3"/>
</g>
<!-- Node27 -->
<g id="node27" class="node">
<title>Node27</title>
<g id="a_node27"><a xlink:title=" ">
<polygon fill="#e0e0e0" stroke="#999999" points="92.5,-272 45.5,-272 45.5,-253 92.5,-253 92.5,-272"/>
<text text-anchor="middle" x="69" y="-260" font-family="Helvetica,sans-Serif" font-size="10.00">cmath</text>
</a>
</g>
</g>
<!-- Node25&#45;&gt;Node27 -->
<g id="edge41" class="edge">
<title>Node25&#45;&gt;Node27</title>
<path fill="none" stroke="#63b8ff" d="M167.88,-313.37C148.78,-303.73 117.63,-288.03 95.4,-276.81"/>
<polygon fill="#63b8ff" stroke="#63b8ff" points="96.69,-273.55 86.19,-272.17 93.54,-279.8 96.69,-273.55"/>
</g>
<!-- Node28 -->
<g id="node28" class="node">
<title>Node28</title>
<g id="a_node28"><a xlink:title=" ">
<polygon fill="#e0e0e0" stroke="#999999" points="175.5,-272 110.5,-272 110.5,-253 175.5,-253 175.5,-272"/>
<text text-anchor="middle" x="143" y="-260" font-family="Helvetica,sans-Serif" font-size="10.00">stdexcept</text>
</a>
</g>
</g>
<!-- Node25&#45;&gt;Node28 -->
<g id="edge42" class="edge">
<title>Node25&#45;&gt;Node28</title>
<path fill="none" stroke="#63b8ff" d="M178.8,-313.37C172.6,-304.73 162.89,-291.2 155.14,-280.42"/>
<polygon fill="#63b8ff" stroke="#63b8ff" points="157.9,-278.25 149.22,-272.17 152.21,-282.33 157.9,-278.25"/>
</g>
<!-- Node29&#45;&gt;Node8 -->
<g id="edge46" class="edge">
<title>Node29&#45;&gt;Node8</title>
<path fill="none" stroke="#63b8ff" d="M174.85,-126.33C178.92,-109.56 190.32,-72.8 215,-55 249.89,-29.84 369.91,-18.07 438.29,-13.3"/>
<polygon fill="#63b8ff" stroke="#63b8ff" points="438.65,-16.78 448.4,-12.61 438.18,-9.79 438.65,-16.78"/>
</g>
<!-- Node29&#45;&gt;Node9 -->
<g id="edge45" class="edge">
<title>Node29&#45;&gt;Node9</title>
<path fill="none" stroke="#63b8ff" d="M188.78,-126.37C208.41,-115.63 242.14,-97.18 265.23,-84.55"/>
<polygon fill="#63b8ff" stroke="#63b8ff" points="267,-87.57 274.1,-79.7 263.64,-81.43 267,-87.57"/>
</g>
<!-- Node29&#45;&gt;Node10 -->
<g id="edge47" class="edge">
<title>Node29&#45;&gt;Node10</title>
<path fill="none" stroke="#63b8ff" d="M172.66,-126.44C171.86,-106.54 169.86,-56.76 168.76,-29.35"/>
<polygon fill="#63b8ff" stroke="#63b8ff" points="172.24,-28.97 168.35,-19.12 165.25,-29.25 172.24,-28.97"/>
</g>
<!-- Node29&#45;&gt;Node15 -->
<g id="edge44" class="edge">
<title>Node29&#45;&gt;Node15</title>
<path fill="none" stroke="#63b8ff" d="M158.57,-126.37C140.78,-115.73 110.32,-97.51 89.22,-84.89"/>
<polygon fill="#63b8ff" stroke="#63b8ff" points="90.92,-81.83 80.54,-79.7 87.33,-87.84 90.92,-81.83"/>
</g>
<!-- Node30&#45;&gt;Node12 -->
<g id="edge51" class="edge">
<title>Node30&#45;&gt;Node12</title>
<path fill="none" stroke="#63b8ff" d="M1211.69,-126.46C1197.74,-124.53 1182.85,-122.58 1169,-121 988.13,-100.37 941.26,-110.41 761,-85 748.42,-83.23 734.71,-80.71 722.66,-78.3"/>
<polygon fill="#63b8ff" stroke="#63b8ff" points="723.07,-74.81 712.57,-76.23 721.66,-81.66 723.07,-74.81"/>
</g>
<!-- Node30&#45;&gt;Node22 -->
<g id="edge50" class="edge">
<title>Node30&#45;&gt;Node22</title>
<path fill="none" stroke="#63b8ff" d="M1257.27,-126.37C1243.13,-115.97 1219.14,-98.32 1202.05,-85.75"/>
<polygon fill="#63b8ff" stroke="#63b8ff" points="1203.95,-82.81 1193.83,-79.7 1199.81,-88.44 1203.95,-82.81"/>
</g>
<!-- Node31 -->
<g id="node31" class="node">
<title>Node31</title>
<g id="a_node31"><a xlink:title=" ">
<polygon fill="#e0e0e0" stroke="#999999" points="1293,-79.5 1233,-79.5 1233,-60.5 1293,-60.5 1293,-79.5"/>
<text text-anchor="middle" x="1263" y="-67.5" font-family="Helvetica,sans-Serif" font-size="10.00">iostream</text>
</a>
</g>
</g>
<!-- Node30&#45;&gt;Node31 -->
<g id="edge52" class="edge">
<title>Node30&#45;&gt;Node31</title>
<path fill="none" stroke="#63b8ff" d="M1268.19,-126.37C1267.32,-117.07 1265.9,-101.98 1264.77,-89.9"/>
<polygon fill="#63b8ff" stroke="#63b8ff" points="1268.25,-89.53 1263.83,-79.91 1261.28,-90.19 1268.25,-89.53"/>
</g>
<!-- Node32 -->
<g id="node32" class="node">
<title>Node32</title>
<g id="a_node32"><a xlink:title=" ">
<polygon fill="#e0e0e0" stroke="#999999" points="1363,-79.5 1311,-79.5 1311,-60.5 1363,-60.5 1363,-79.5"/>
<text text-anchor="middle" x="1337" y="-67.5" font-family="Helvetica,sans-Serif" font-size="10.00">cassert</text>
</a>
</g>
</g>
<!-- Node30&#45;&gt;Node32 -->
<g id="edge53" class="edge">
<title>Node30&#45;&gt;Node32</title>
<path fill="none" stroke="#63b8ff" d="M1278.17,-126.37C1288.86,-116.31 1306.74,-99.48 1319.99,-87.01"/>
<polygon fill="#63b8ff" stroke="#63b8ff" points="1322.65,-89.31 1327.54,-79.91 1317.86,-84.21 1322.65,-89.31"/>
</g>
</g>
</svg>
        <g id="navigator" transform="translate(0 0)" fill="#404254">
                <rect fill="#f2f5e9" fill-opacity="0.5" stroke="#606060" stroke-width=".5" x="0" y="0" width="60" height="60"/>
                <use id="zoomplus" xlink:href="#zoomPlus" x="17" y="9" onmousedown="handleZoom(evt,'in')"/>
                <use id="zoomminus" xlink:href="#zoomMin" x="42" y="9" onmousedown="handleZoom(evt,'out')"/>
                <use id="reset" xlink:href="#resetDef" x="30" y="36" onmousedown="handleReset()"/>
                <g id="arrowUp" xlink:href="#dirArrow" transform="translate(30 24)" onmousedown="handlePan(0,-1)">
                  <use xlink:href="#rim" fill="#404040">
                        <set attributeName="fill" to="#808080" begin="arrowUp.mouseover" end="arrowUp.mouseout"/>
                  </use>
                  <path fill="none" stroke="white" stroke-width="1.5" d="M0,-3.0v7 M-2.5,-0.5L0,-3.0L2.5,-0.5"/>
                </g>
                <g id="arrowRight" xlink:href="#dirArrow" transform="rotate(90) translate(36 -43)" onmousedown="handlePan(1,0)">
                  <use xlink:href="#rim" fill="#404040">
                        <set attributeName="fill" to="#808080" begin="arrowRight.mouseover" end="arrowRight.mouseout"/>
                  </use>
                  <path fill="none" stroke="white" stroke-width="1.5" d="M0,-3.0v7 M-2.5,-0.5L0,-3.0L2.5,-0.5"/>
                </g>
                <g id="arrowDown" xlink:href="#dirArrow" transform="rotate(180) translate(-30 -48)" onmousedown="handlePan(0,1)">
                  <use xlink:href="#rim" fill="#404040">
                        <set attributeName="fill" to="#808080" begin="arrowDown.mouseover" end="arrowDown.mouseout"/>
                  </use>
                  <path fill="none" stroke="white" stroke-width="1.5" d="M0,-3.0v7 M-2.5,-0.5L0,-3.0L2.5,-0.5"/>
                </g>
                <g id="arrowLeft" xlink:href="#dirArrow" transform="rotate(270) translate(-36 17)" onmousedown="handlePan(-1,0)">
                  <use xlink:href="#rim" fill="#404040">
                        <set attributeName="fill" to="#808080" begin="arrowLeft.mouseover" end="arrowLeft.mouseout"/>
                  </use>
                  <path fill="none" stroke="white" stroke-width="1.5" d="M0,-3.0v7 M-2.5,-0.5L0,-3.0L2.5,-0.5"/>
                </g>
        </g>
        <svg viewBox="0 0 15 15" width="100%" height="30px" preserveAspectRatio="xMaxYMin meet">
         <g id="arrow_out" transform="scale(0.3 0.3)">
          <a xlink:href="_problem_8hpp__incl_org.svg" target="_base">
           <rect id="button" ry="5" rx="5" y="6" x="6" height="38" width="38"
                fill="#f2f5e9" fill-opacity="0.5" stroke="#606060" stroke-width="1.0"/>
           <path id="arrow"
             d="M 11.500037,31.436501 C 11.940474,20.09759 22.043105,11.32322 32.158766,21.979434 L 37.068811,17.246167 C 37.068811,17.246167 37.088388,32 37.088388,32 L 22.160133,31.978069 C 22.160133,31.978069 26.997745,27.140456 26.997745,27.140456 C 18.528582,18.264221 13.291696,25.230495 11.500037,31.436501 z"
             style="fill:#404040;"/>
          </a>
         </g>
        </svg>
</svg>
