<?xml version="1.0" encoding="UTF-8" standalone="no"?>
<!DOCTYPE svg PUBLIC "-//W3C//DTD SVG 1.1//EN"
 "http://www.w3.org/Graphics/SVG/1.1/DTD/svg11.dtd">
<!-- Generated by graphviz version 2.43.0 (0)
 -->
<!-- Title: src/polyfem/quadrature/QuadQuadrature.hpp Pages: 1 -->
<svg width="969pt" height="104pt"
 viewBox="0.00 0.00 968.50 104.00" xmlns="http://www.w3.org/2000/svg" xmlns:xlink="http://www.w3.org/1999/xlink">
<g id="graph0" class="graph" transform="scale(1 1) rotate(0) translate(4 100)">
<title>src/polyfem/quadrature/QuadQuadrature.hpp</title>
<!-- Node1 -->
<g id="node1" class="node">
<title>Node1</title>
<g id="a_node1"><a xlink:title=" ">
<polygon fill="#999999" stroke="#666666" points="551,-96 420,-96 420,-66 551,-66 551,-96"/>
<text text-anchor="start" x="428" y="-84" font-family="Helvetica,sans-Serif" font-size="10.00">src/polyfem/quadrature</text>
<text text-anchor="middle" x="485.5" y="-73" font-family="Helvetica,sans-Serif" font-size="10.00">/QuadQuadrature.hpp</text>
</a>
</g>
</g>
<!-- Node2 -->
<g id="node2" class="node">
<title>Node2</title>
<g id="a_node2"><a xlink:href="_state_8cpp.html" target="_top" xlink:title=" ">
<polygon fill="white" stroke="#666666" points="123,-24.5 0,-24.5 0,-5.5 123,-5.5 123,-24.5"/>
<text text-anchor="middle" x="61.5" y="-12.5" font-family="Helvetica,sans-Serif" font-size="10.00">src/polyfem/State.cpp</text>
</a>
</g>
</g>
<!-- Node1&#45;&gt;Node2 -->
<g id="edge1" class="edge">
<title>Node1&#45;&gt;Node2</title>
<path fill="none" stroke="#63b8ff" d="M409.67,-70.46C338.07,-61.17 227.75,-46.12 132.5,-30 122.84,-28.36 112.47,-26.43 102.73,-24.52"/>
<polygon fill="#63b8ff" stroke="#63b8ff" points="409.59,-73.98 419.95,-71.79 410.48,-67.04 409.59,-73.98"/>
</g>
<!-- Node3 -->
<g id="node3" class="node">
<title>Node3</title>
<g id="a_node3"><a xlink:href="_f_e_basis2d_8cpp.html" target="_top" xlink:title=" ">
<polygon fill="white" stroke="#666666" points="317.5,-24.5 141.5,-24.5 141.5,-5.5 317.5,-5.5 317.5,-24.5"/>
<text text-anchor="middle" x="229.5" y="-12.5" font-family="Helvetica,sans-Serif" font-size="10.00">src/polyfem/basis/FEBasis2d.cpp</text>
</a>
</g>
</g>
<!-- Node1&#45;&gt;Node3 -->
<g id="edge2" class="edge">
<title>Node1&#45;&gt;Node3</title>
<path fill="none" stroke="#63b8ff" d="M419.58,-63.52C369.71,-51.05 303.25,-34.44 263.57,-24.52"/>
<polygon fill="#63b8ff" stroke="#63b8ff" points="418.77,-66.92 429.32,-65.95 420.47,-60.13 418.77,-66.92"/>
</g>
<!-- Node4 -->
<g id="node4" class="node">
<title>Node4</title>
<g id="a_node4"><a xlink:href="_spline_basis2d_8cpp.html" target="_top" xlink:title=" ">
<polygon fill="white" stroke="#666666" points="471.5,-30 335.5,-30 335.5,0 471.5,0 471.5,-30"/>
<text text-anchor="start" x="343.5" y="-18" font-family="Helvetica,sans-Serif" font-size="10.00">src/polyfem/basis/Spline</text>
<text text-anchor="middle" x="403.5" y="-7" font-family="Helvetica,sans-Serif" font-size="10.00">Basis2d.cpp</text>
</a>
</g>
</g>
<!-- Node1&#45;&gt;Node4 -->
<g id="edge3" class="edge">
<title>Node1&#45;&gt;Node4</title>
<path fill="none" stroke="#63b8ff" d="M459.21,-59.48C446.95,-49.91 432.68,-38.77 421.65,-30.16"/>
<polygon fill="#63b8ff" stroke="#63b8ff" points="457.26,-62.4 467.3,-65.8 461.57,-56.88 457.26,-62.4"/>
</g>
<!-- Node5 -->
<g id="node5" class="node">
<title>Node5</title>
<g id="a_node5"><a xlink:href="_evaluator_8cpp.html" target="_top" xlink:title=" ">
<polygon fill="white" stroke="#666666" points="645,-24.5 490,-24.5 490,-5.5 645,-5.5 645,-24.5"/>
<text text-anchor="middle" x="567.5" y="-12.5" font-family="Helvetica,sans-Serif" font-size="10.00">src/polyfem/io/Evaluator.cpp</text>
</a>
</g>
</g>
<!-- Node1&#45;&gt;Node5 -->
<g id="edge4" class="edge">
<title>Node1&#45;&gt;Node5</title>
<path fill="none" stroke="#63b8ff" d="M511.66,-59.58C526.66,-47.87 544.73,-33.77 556.17,-24.84"/>
<polygon fill="#63b8ff" stroke="#63b8ff" points="509.43,-56.88 503.7,-65.8 513.74,-62.4 509.43,-56.88"/>
</g>
<!-- Node6 -->
<g id="node6" class="node">
<title>Node6</title>
<g id="a_node6"><a xlink:href="_quad_quadrature_8cpp.html" target="_top" xlink:title=" ">
<polygon fill="white" stroke="#666666" points="794,-30 663,-30 663,0 794,0 794,-30"/>
<text text-anchor="start" x="671" y="-18" font-family="Helvetica,sans-Serif" font-size="10.00">src/polyfem/quadrature</text>
<text text-anchor="middle" x="728.5" y="-7" font-family="Helvetica,sans-Serif" font-size="10.00">/QuadQuadrature.cpp</text>
</a>
</g>
</g>
<!-- Node1&#45;&gt;Node6 -->
<g id="edge5" class="edge">
<title>Node1&#45;&gt;Node6</title>
<path fill="none" stroke="#63b8ff" d="M548.58,-63.39C587.92,-53.03 637.97,-39.84 675.3,-30.01"/>
<polygon fill="#63b8ff" stroke="#63b8ff" points="547.61,-60.02 538.83,-65.95 549.39,-66.79 547.61,-60.02"/>
</g>
<!-- Node7 -->
<g id="node7" class="node">
<title>Node7</title>
<g id="a_node7"><a xlink:href="_boundary_sampler_8cpp.html" target="_top" xlink:title=" ">
<polygon fill="white" stroke="#666666" points="960.5,-30 812.5,-30 812.5,0 960.5,0 960.5,-30"/>
<text text-anchor="start" x="820.5" y="-18" font-family="Helvetica,sans-Serif" font-size="10.00">src/polyfem/utils/Boundary</text>
<text text-anchor="middle" x="886.5" y="-7" font-family="Helvetica,sans-Serif" font-size="10.00">Sampler.cpp</text>
</a>
</g>
</g>
<!-- Node1&#45;&gt;Node7 -->
<g id="edge6" class="edge">
<title>Node1&#45;&gt;Node7</title>
<path fill="none" stroke="#63b8ff" d="M561.08,-68.36C625.53,-58.37 720.64,-43.5 803.5,-30 806.38,-29.53 809.33,-29.05 812.3,-28.56"/>
<polygon fill="#63b8ff" stroke="#63b8ff" points="560.35,-64.93 551.01,-69.92 561.42,-71.85 560.35,-64.93"/>
</g>
</g>
</svg>
