<?xml version="1.0" encoding="UTF-8" standalone="no"?>
<!DOCTYPE svg PUBLIC "-//W3C//DTD SVG 1.1//EN"
 "http://www.w3.org/Graphics/SVG/1.1/DTD/svg11.dtd">
<!-- Generated by graphviz version 2.43.0 (0)
 -->
<!-- Title: src/polyfem/quadrature/QuadQuadrature.cpp Pages: 1 -->
<svg width="459pt" height="203pt"
 viewBox="0.00 0.00 458.50 203.00" xmlns="http://www.w3.org/2000/svg" xmlns:xlink="http://www.w3.org/1999/xlink">
<g id="graph0" class="graph" transform="scale(1 1) rotate(0) translate(4 199)">
<title>src/polyfem/quadrature/QuadQuadrature.cpp</title>
<!-- Node1 -->
<g id="Node000001" class="node">
<title>Node1</title>
<g id="a_Node000001"><a xlink:title=" ">
<polygon fill="#999999" stroke="#666666" points="356.5,-195 225.5,-195 225.5,-165 356.5,-165 356.5,-195"/>
<text text-anchor="start" x="233.5" y="-183" font-family="Helvetica,sans-Serif" font-size="10.00">src/polyfem/quadrature</text>
<text text-anchor="middle" x="291" y="-172" font-family="Helvetica,sans-Serif" font-size="10.00">/QuadQuadrature.cpp</text>
</a>
</g>
</g>
<!-- Node2 -->
<g id="Node000002" class="node">
<title>Node2</title>
<g id="a_Node000002"><a xlink:href="_quad_quadrature_8hpp.html" target="_top" xlink:title=" ">
<polygon fill="white" stroke="#666666" points="118,-129 0,-129 0,-110 118,-110 118,-129"/>
<text text-anchor="middle" x="59" y="-117" font-family="Helvetica,sans-Serif" font-size="10.00">QuadQuadrature.hpp</text>
</a>
</g>
</g>
<!-- Node1&#45;&gt;Node2 -->
<g id="edge1_Node000001_Node000002" class="edge">
<title>Node1&#45;&gt;Node2</title>
<g id="a_edge1_Node000001_Node000002"><a xlink:title=" ">
<path fill="none" stroke="#63b8ff" d="M235.43,-164.99C194.87,-154.76 140.64,-141.09 103.06,-131.61"/>
<polygon fill="#63b8ff" stroke="#63b8ff" points="103.47,-128.1 92.92,-129.05 101.76,-134.89 103.47,-128.1"/>
</a>
</g>
</g>
<!-- Node5 -->
<g id="Node000005" class="node">
<title>Node5</title>
<g id="a_Node000005"><a xlink:href="_line_quadrature_8hpp.html" target="_top" xlink:title=" ">
<polygon fill="white" stroke="#666666" points="249.5,-129 136.5,-129 136.5,-110 249.5,-110 249.5,-129"/>
<text text-anchor="middle" x="193" y="-117" font-family="Helvetica,sans-Serif" font-size="10.00">LineQuadrature.hpp</text>
</a>
</g>
</g>
<!-- Node1&#45;&gt;Node5 -->
<g id="edge4_Node000001_Node000005" class="edge">
<title>Node1&#45;&gt;Node5</title>
<g id="a_edge4_Node000001_Node000005"><a xlink:title=" ">
<path fill="none" stroke="#63b8ff" d="M267.28,-164.84C251.8,-155.6 231.68,-143.59 216.29,-134.4"/>
<polygon fill="#63b8ff" stroke="#63b8ff" points="217.78,-131.21 207.4,-129.09 214.19,-137.23 217.78,-131.21"/>
</a>
</g>
</g>
<!-- Node6 -->
<g id="Node000006" class="node">
<title>Node6</title>
<g id="a_Node000006"><a xlink:title=" ">
<polygon fill="#e0e0e0" stroke="#999999" points="314.5,-129 267.5,-129 267.5,-110 314.5,-110 314.5,-129"/>
<text text-anchor="middle" x="291" y="-117" font-family="Helvetica,sans-Serif" font-size="10.00">vector</text>
</a>
</g>
</g>
<!-- Node1&#45;&gt;Node6 -->
<g id="edge6_Node000001_Node000006" class="edge">
<title>Node1&#45;&gt;Node6</title>
<g id="a_edge6_Node000001_Node000006"><a xlink:title=" ">
<path fill="none" stroke="#63b8ff" d="M291,-164.84C291,-157.21 291,-147.7 291,-139.45"/>
<polygon fill="#63b8ff" stroke="#63b8ff" points="294.5,-139.27 291,-129.27 287.5,-139.27 294.5,-139.27"/>
</a>
</g>
</g>
<!-- Node7 -->
<g id="Node000007" class="node">
<title>Node7</title>
<g id="a_Node000007"><a xlink:title=" ">
<polygon fill="#e0e0e0" stroke="#999999" points="385,-129 333,-129 333,-110 385,-110 385,-129"/>
<text text-anchor="middle" x="359" y="-117" font-family="Helvetica,sans-Serif" font-size="10.00">cassert</text>
</a>
</g>
</g>
<!-- Node1&#45;&gt;Node7 -->
<g id="edge7_Node000001_Node000007" class="edge">
<title>Node1&#45;&gt;Node7</title>
<g id="a_edge7_Node000001_Node000007"><a xlink:title=" ">
<path fill="none" stroke="#63b8ff" d="M307.46,-164.84C317.63,-156.09 330.69,-144.85 341.12,-135.88"/>
<polygon fill="#63b8ff" stroke="#63b8ff" points="343.51,-138.44 348.81,-129.27 338.95,-133.13 343.51,-138.44"/>
</a>
</g>
</g>
<!-- Node8 -->
<g id="Node000008" class="node">
<title>Node8</title>
<g id="a_Node000008"><a xlink:title=" ">
<polygon fill="#e0e0e0" stroke="#999999" points="450.5,-129 403.5,-129 403.5,-110 450.5,-110 450.5,-129"/>
<text text-anchor="middle" x="427" y="-117" font-family="Helvetica,sans-Serif" font-size="10.00">cmath</text>
</a>
</g>
</g>
<!-- Node1&#45;&gt;Node8 -->
<g id="edge8_Node000001_Node000008" class="edge">
<title>Node1&#45;&gt;Node8</title>
<g id="a_edge8_Node000001_Node000008"><a xlink:title=" ">
<path fill="none" stroke="#63b8ff" d="M323.58,-164.99C346.06,-155.31 375.72,-142.56 397.51,-133.18"/>
<polygon fill="#63b8ff" stroke="#63b8ff" points="399.11,-136.31 406.92,-129.14 396.35,-129.88 399.11,-136.31"/>
</a>
</g>
</g>
<!-- Node3 -->
<g id="Node000003" class="node">
<title>Node3</title>
<g id="a_Node000003"><a xlink:href="_quadrature_8hpp.html" target="_top" xlink:title=" ">
<polygon fill="white" stroke="#666666" points="172,-74 80,-74 80,-55 172,-55 172,-74"/>
<text text-anchor="middle" x="126" y="-62" font-family="Helvetica,sans-Serif" font-size="10.00">Quadrature.hpp</text>
</a>
</g>
</g>
<!-- Node2&#45;&gt;Node3 -->
<g id="edge2_Node000002_Node000003" class="edge">
<title>Node2&#45;&gt;Node3</title>
<g id="a_edge2_Node000002_Node000003"><a xlink:title=" ">
<path fill="none" stroke="#63b8ff" d="M69.76,-109.98C79.77,-102.07 94.89,-90.11 106.93,-80.58"/>
<polygon fill="#63b8ff" stroke="#63b8ff" points="109.37,-83.12 115.04,-74.17 105.03,-77.63 109.37,-83.12"/>
</a>
</g>
</g>
<!-- Node4 -->
<g id="Node000004" class="node">
<title>Node4</title>
<g id="a_Node000004"><a xlink:title=" ">
<polygon fill="#e0e0e0" stroke="#999999" points="164.5,-19 87.5,-19 87.5,0 164.5,0 164.5,-19"/>
<text text-anchor="middle" x="126" y="-7" font-family="Helvetica,sans-Serif" font-size="10.00">Eigen/Dense</text>
</a>
</g>
</g>
<!-- Node3&#45;&gt;Node4 -->
<g id="edge3_Node000003_Node000004" class="edge">
<title>Node3&#45;&gt;Node4</title>
<g id="a_edge3_Node000003_Node000004"><a xlink:title=" ">
<path fill="none" stroke="#63b8ff" d="M126,-54.75C126,-47.8 126,-37.85 126,-29.13"/>
<polygon fill="#63b8ff" stroke="#63b8ff" points="129.5,-29.09 126,-19.09 122.5,-29.09 129.5,-29.09"/>
</a>
</g>
</g>
<!-- Node5&#45;&gt;Node3 -->
<g id="edge5_Node000005_Node000003" class="edge">
<title>Node5&#45;&gt;Node3</title>
<g id="a_edge5_Node000005_Node000003"><a xlink:title=" ">
<path fill="none" stroke="#63b8ff" d="M182.24,-109.98C172.23,-102.07 157.11,-90.11 145.07,-80.58"/>
<polygon fill="#63b8ff" stroke="#63b8ff" points="146.97,-77.63 136.96,-74.17 142.63,-83.12 146.97,-77.63"/>
</a>
</g>
</g>
</g>
</svg>
