<?xml version="1.0" encoding="UTF-8" standalone="no"?>
<!DOCTYPE svg PUBLIC "-//W3C//DTD SVG 1.1//EN"
 "http://www.w3.org/Graphics/SVG/1.1/DTD/svg11.dtd">
<!-- Generated by graphviz version 2.43.0 (0)
 -->
<!-- Title: src/polyfem/basis/function/RBFWithLinear.cpp Pages: 1 -->
<svg width="1242pt" height="214pt"
 viewBox="0.00 0.00 1242.00 214.00" xmlns="http://www.w3.org/2000/svg" xmlns:xlink="http://www.w3.org/1999/xlink">
<g id="graph0" class="graph" transform="scale(1 1) rotate(0) translate(4 210)">
<title>src/polyfem/basis/function/RBFWithLinear.cpp</title>
<!-- Node1 -->
<g id="Node000001" class="node">
<title>Node1</title>
<g id="a_Node000001"><a xlink:title=" ">
<polygon fill="#999999" stroke="#666666" points="798.5,-206 652.5,-206 652.5,-176 798.5,-176 798.5,-206"/>
<text text-anchor="start" x="660.5" y="-194" font-family="Helvetica,sans-Serif" font-size="10.00">src/polyfem/basis/function</text>
<text text-anchor="middle" x="725.5" y="-183" font-family="Helvetica,sans-Serif" font-size="10.00">/RBFWithLinear.cpp</text>
</a>
</g>
</g>
<!-- Node2 -->
<g id="Node000002" class="node">
<title>Node2</title>
<g id="a_Node000002"><a xlink:href="_r_b_f_with_linear_8hpp.html" target="_top" xlink:title=" ">
<polygon fill="white" stroke="#666666" points="151,-140 42,-140 42,-121 151,-121 151,-140"/>
<text text-anchor="middle" x="96.5" y="-128" font-family="Helvetica,sans-Serif" font-size="10.00">RBFWithLinear.hpp</text>
</a>
</g>
</g>
<!-- Node1&#45;&gt;Node2 -->
<g id="edge1_Node000001_Node000002" class="edge">
<title>Node1&#45;&gt;Node2</title>
<g id="a_edge1_Node000001_Node000002"><a xlink:title=" ">
<path fill="none" stroke="#63b8ff" d="M652.49,-184.27C545.52,-175.69 339.97,-158.53 165.5,-140 164.04,-139.84 162.56,-139.68 161.07,-139.52"/>
<polygon fill="#63b8ff" stroke="#63b8ff" points="161.42,-136.04 151.09,-138.4 160.64,-143 161.42,-136.04"/>
</a>
</g>
</g>
<!-- Node4 -->
<g id="Node000004" class="node">
<title>Node4</title>
<g id="a_Node000004"><a xlink:title=" ">
<polygon fill="#e0e0e0" stroke="#999999" points="199,-19 122,-19 122,0 199,0 199,-19"/>
<text text-anchor="middle" x="160.5" y="-7" font-family="Helvetica,sans-Serif" font-size="10.00">Eigen/Dense</text>
</a>
</g>
</g>
<!-- Node1&#45;&gt;Node4 -->
<g id="edge17_Node000001_Node000004" class="edge">
<title>Node1&#45;&gt;Node4</title>
<g id="a_edge17_Node000001_Node000004"><a xlink:title=" ">
<path fill="none" stroke="#63b8ff" d="M652.1,-186.66C541.55,-180.84 338.09,-166.81 270.5,-140 232.74,-125.02 223.45,-116.25 197.5,-85 183.41,-68.03 172.96,-44.79 166.82,-28.8"/>
<polygon fill="#63b8ff" stroke="#63b8ff" points="169.99,-27.25 163.27,-19.06 163.41,-29.65 169.99,-27.25"/>
</a>
</g>
</g>
<!-- Node6 -->
<g id="Node000006" class="node">
<title>Node6</title>
<g id="a_Node000006"><a xlink:href="_types_8hpp.html" target="_top" xlink:title=" ">
<polygon fill="white" stroke="#666666" points="413,-140 280,-140 280,-121 413,-121 413,-140"/>
<text text-anchor="middle" x="346.5" y="-128" font-family="Helvetica,sans-Serif" font-size="10.00">polyfem/utils/Types.hpp</text>
</a>
</g>
</g>
<!-- Node1&#45;&gt;Node6 -->
<g id="edge6_Node000001_Node000006" class="edge">
<title>Node1&#45;&gt;Node6</title>
<g id="a_edge6_Node000001_Node000006"><a xlink:title=" ">
<path fill="none" stroke="#63b8ff" d="M652.42,-178.72C582.76,-167.97 478.82,-151.92 411.84,-141.59"/>
<polygon fill="#63b8ff" stroke="#63b8ff" points="412.24,-138.11 401.83,-140.04 411.17,-145.02 412.24,-138.11"/>
</a>
</g>
</g>
<!-- Node9 -->
<g id="Node000009" class="node">
<title>Node9</title>
<g id="a_Node000009"><a xlink:href="_logger_8hpp.html" target="_top" xlink:title=" ">
<polygon fill="white" stroke="#666666" points="734,-140 597,-140 597,-121 734,-121 734,-140"/>
<text text-anchor="middle" x="665.5" y="-128" font-family="Helvetica,sans-Serif" font-size="10.00">polyfem/utils/Logger.hpp</text>
</a>
</g>
</g>
<!-- Node1&#45;&gt;Node9 -->
<g id="edge10_Node000001_Node000009" class="edge">
<title>Node1&#45;&gt;Node9</title>
<g id="a_edge10_Node000001_Node000009"><a xlink:title=" ">
<path fill="none" stroke="#63b8ff" d="M710.98,-175.84C702.18,-167.26 690.93,-156.3 681.83,-147.42"/>
<polygon fill="#63b8ff" stroke="#63b8ff" points="684.09,-144.74 674.49,-140.27 679.21,-149.75 684.09,-144.74"/>
</a>
</g>
</g>
<!-- Node15 -->
<g id="Node000015" class="node">
<title>Node15</title>
<g id="a_Node000015"><a xlink:title=" ">
<polygon fill="#e0e0e0" stroke="#999999" points="820.5,-140 752.5,-140 752.5,-121 820.5,-121 820.5,-140"/>
<text text-anchor="middle" x="786.5" y="-128" font-family="Helvetica,sans-Serif" font-size="10.00">igl/Timer.h</text>
</a>
</g>
</g>
<!-- Node1&#45;&gt;Node15 -->
<g id="edge16_Node000001_Node000015" class="edge">
<title>Node1&#45;&gt;Node15</title>
<g id="a_edge16_Node000001_Node000015"><a xlink:title=" ">
<path fill="none" stroke="#63b8ff" d="M740.27,-175.84C749.21,-167.26 760.64,-156.3 769.9,-147.42"/>
<polygon fill="#63b8ff" stroke="#63b8ff" points="772.56,-149.71 777.36,-140.27 767.72,-144.66 772.56,-149.71"/>
</a>
</g>
</g>
<!-- Node16 -->
<g id="Node000016" class="node">
<title>Node16</title>
<g id="a_Node000016"><a xlink:title=" ">
<polygon fill="#e0e0e0" stroke="#999999" points="898.5,-140 838.5,-140 838.5,-121 898.5,-121 898.5,-140"/>
<text text-anchor="middle" x="868.5" y="-128" font-family="Helvetica,sans-Serif" font-size="10.00">iostream</text>
</a>
</g>
</g>
<!-- Node1&#45;&gt;Node16 -->
<g id="edge18_Node000001_Node000016" class="edge">
<title>Node1&#45;&gt;Node16</title>
<g id="a_edge18_Node000001_Node000016"><a xlink:title=" ">
<path fill="none" stroke="#63b8ff" d="M759.75,-175.99C783.61,-166.23 815.15,-153.33 838.11,-143.93"/>
<polygon fill="#63b8ff" stroke="#63b8ff" points="839.45,-147.17 847.38,-140.14 836.8,-140.69 839.45,-147.17"/>
</a>
</g>
</g>
<!-- Node17 -->
<g id="Node000017" class="node">
<title>Node17</title>
<g id="a_Node000017"><a xlink:title=" ">
<polygon fill="#e0e0e0" stroke="#999999" points="972,-140 917,-140 917,-121 972,-121 972,-140"/>
<text text-anchor="middle" x="944.5" y="-128" font-family="Helvetica,sans-Serif" font-size="10.00">fstream</text>
</a>
</g>
</g>
<!-- Node1&#45;&gt;Node17 -->
<g id="edge19_Node000001_Node000017" class="edge">
<title>Node1&#45;&gt;Node17</title>
<g id="a_edge19_Node000001_Node000017"><a xlink:title=" ">
<path fill="none" stroke="#63b8ff" d="M777.96,-175.99C817.69,-165.37 871.33,-151.05 906.87,-141.55"/>
<polygon fill="#63b8ff" stroke="#63b8ff" points="908.08,-144.85 916.84,-138.89 906.27,-138.09 908.08,-144.85"/>
</a>
</g>
</g>
<!-- Node18 -->
<g id="Node000018" class="node">
<title>Node18</title>
<g id="a_Node000018"><a xlink:title=" ">
<polygon fill="#e0e0e0" stroke="#999999" points="1032.5,-140 990.5,-140 990.5,-121 1032.5,-121 1032.5,-140"/>
<text text-anchor="middle" x="1011.5" y="-128" font-family="Helvetica,sans-Serif" font-size="10.00">array</text>
</a>
</g>
</g>
<!-- Node1&#45;&gt;Node18 -->
<g id="edge20_Node000001_Node000018" class="edge">
<title>Node1&#45;&gt;Node18</title>
<g id="a_edge20_Node000001_Node000018"><a xlink:title=" ">
<path fill="none" stroke="#63b8ff" d="M798.68,-177.38C847.66,-168.54 913.74,-155.88 980.41,-140.11"/>
<polygon fill="#63b8ff" stroke="#63b8ff" points="981.34,-143.48 990.25,-137.76 979.71,-136.67 981.34,-143.48"/>
</a>
</g>
</g>
<!-- Node3 -->
<g id="Node000003" class="node">
<title>Node3</title>
<g id="a_Node000003"><a xlink:href="_quadrature_8hpp.html" target="_top" xlink:title=" ">
<polygon fill="white" stroke="#666666" points="113,-85 0,-85 0,-55 113,-55 113,-85"/>
<text text-anchor="start" x="8" y="-73" font-family="Helvetica,sans-Serif" font-size="10.00">polyfem/quadrature</text>
<text text-anchor="middle" x="56.5" y="-62" font-family="Helvetica,sans-Serif" font-size="10.00">/Quadrature.hpp</text>
</a>
</g>
</g>
<!-- Node2&#45;&gt;Node3 -->
<g id="edge2_Node000002_Node000003" class="edge">
<title>Node2&#45;&gt;Node3</title>
<g id="a_edge2_Node000002_Node000003"><a xlink:title=" ">
<path fill="none" stroke="#63b8ff" d="M90.6,-120.87C85.67,-113.67 78.43,-103.07 71.88,-93.49"/>
<polygon fill="#63b8ff" stroke="#63b8ff" points="74.68,-91.39 66.15,-85.11 68.91,-95.34 74.68,-91.39"/>
</a>
</g>
</g>
<!-- Node2&#45;&gt;Node4 -->
<g id="edge5_Node000002_Node000004" class="edge">
<title>Node2&#45;&gt;Node4</title>
<g id="a_edge5_Node000002_Node000004"><a xlink:title=" ">
<path fill="none" stroke="#63b8ff" d="M101.56,-120.68C106.66,-111.73 114.74,-97.46 121.5,-85 131.91,-65.82 143.46,-43.63 151.27,-28.49"/>
<polygon fill="#63b8ff" stroke="#63b8ff" points="154.56,-29.75 156.02,-19.26 148.33,-26.55 154.56,-29.75"/>
</a>
</g>
</g>
<!-- Node3&#45;&gt;Node4 -->
<g id="edge3_Node000003_Node000004" class="edge">
<title>Node3&#45;&gt;Node4</title>
<g id="a_edge3_Node000003_Node000004"><a xlink:title=" ">
<path fill="none" stroke="#63b8ff" d="M81.41,-54.99C97.99,-45.66 119.66,-33.47 136.13,-24.21"/>
<polygon fill="#63b8ff" stroke="#63b8ff" points="138.14,-27.09 145.14,-19.14 134.71,-20.99 138.14,-27.09"/>
</a>
</g>
</g>
<!-- Node5 -->
<g id="Node000005" class="node">
<title>Node5</title>
<g id="a_Node000005"><a xlink:title=" ">
<polygon fill="#e0e0e0" stroke="#999999" points="82.5,-19 30.5,-19 30.5,0 82.5,0 82.5,-19"/>
<text text-anchor="middle" x="56.5" y="-7" font-family="Helvetica,sans-Serif" font-size="10.00">cassert</text>
</a>
</g>
</g>
<!-- Node3&#45;&gt;Node5 -->
<g id="edge4_Node000003_Node000005" class="edge">
<title>Node3&#45;&gt;Node5</title>
<g id="a_edge4_Node000003_Node000005"><a xlink:title=" ">
<path fill="none" stroke="#63b8ff" d="M56.5,-54.84C56.5,-47.21 56.5,-37.7 56.5,-29.45"/>
<polygon fill="#63b8ff" stroke="#63b8ff" points="60,-29.27 56.5,-19.27 53,-29.27 60,-29.27"/>
</a>
</g>
</g>
<!-- Node6&#45;&gt;Node4 -->
<g id="edge7_Node000006_Node000004" class="edge">
<title>Node6&#45;&gt;Node4</title>
<g id="a_edge7_Node000006_Node000004"><a xlink:title=" ">
<path fill="none" stroke="#63b8ff" d="M316.49,-120.89C293.46,-113.47 261.49,-101.37 236.5,-85 211.76,-68.79 188.24,-43.72 174.09,-27.21"/>
<polygon fill="#63b8ff" stroke="#63b8ff" points="176.69,-24.87 167.59,-19.45 171.33,-29.36 176.69,-24.87"/>
</a>
</g>
</g>
<!-- Node7 -->
<g id="Node000007" class="node">
<title>Node7</title>
<g id="a_Node000007"><a xlink:title=" ">
<polygon fill="#e0e0e0" stroke="#999999" points="325.5,-79.5 245.5,-79.5 245.5,-60.5 325.5,-60.5 325.5,-79.5"/>
<text text-anchor="middle" x="285.5" y="-67.5" font-family="Helvetica,sans-Serif" font-size="10.00">Eigen/Sparse</text>
</a>
</g>
</g>
<!-- Node6&#45;&gt;Node7 -->
<g id="edge8_Node000006_Node000007" class="edge">
<title>Node6&#45;&gt;Node7</title>
<g id="a_edge8_Node000006_Node000007"><a xlink:title=" ">
<path fill="none" stroke="#63b8ff" d="M337.5,-120.87C328.13,-111.88 313.25,-97.61 301.8,-86.64"/>
<polygon fill="#63b8ff" stroke="#63b8ff" points="304.18,-84.06 294.54,-79.67 299.33,-89.12 304.18,-84.06"/>
</a>
</g>
</g>
<!-- Node8 -->
<g id="Node000008" class="node">
<title>Node8</title>
<g id="a_Node000008"><a xlink:title=" ">
<polygon fill="#e0e0e0" stroke="#999999" points="471,-79.5 344,-79.5 344,-60.5 471,-60.5 471,-79.5"/>
<text text-anchor="middle" x="407.5" y="-67.5" font-family="Helvetica,sans-Serif" font-size="10.00">ipc/utils/eigen_ext.hpp</text>
</a>
</g>
</g>
<!-- Node6&#45;&gt;Node8 -->
<g id="edge9_Node000006_Node000008" class="edge">
<title>Node6&#45;&gt;Node8</title>
<g id="a_edge9_Node000006_Node000008"><a xlink:title=" ">
<path fill="none" stroke="#63b8ff" d="M355.5,-120.87C364.87,-111.88 379.75,-97.61 391.2,-86.64"/>
<polygon fill="#63b8ff" stroke="#63b8ff" points="393.67,-89.12 398.46,-79.67 388.82,-84.06 393.67,-89.12"/>
</a>
</g>
</g>
<!-- Node10 -->
<g id="Node000010" class="node">
<title>Node10</title>
<g id="a_Node000010"><a xlink:href="_disable_warnings_8hpp.html" target="_top" xlink:title=" ">
<polygon fill="white" stroke="#666666" points="676,-79.5 489,-79.5 489,-60.5 676,-60.5 676,-79.5"/>
<text text-anchor="middle" x="582.5" y="-67.5" font-family="Helvetica,sans-Serif" font-size="10.00">polyfem/utils/DisableWarnings.hpp</text>
</a>
</g>
</g>
<!-- Node9&#45;&gt;Node10 -->
<g id="edge11_Node000009_Node000010" class="edge">
<title>Node9&#45;&gt;Node10</title>
<g id="a_edge11_Node000009_Node000010"><a xlink:title=" ">
<path fill="none" stroke="#63b8ff" d="M653.25,-120.87C640.14,-111.62 619.08,-96.78 603.35,-85.69"/>
<polygon fill="#63b8ff" stroke="#63b8ff" points="604.99,-82.57 594.8,-79.67 600.95,-88.29 604.99,-82.57"/>
</a>
</g>
</g>
<!-- Node11 -->
<g id="Node000011" class="node">
<title>Node11</title>
<g id="a_Node000011"><a xlink:title=" ">
<polygon fill="#e0e0e0" stroke="#999999" points="805,-85 694,-85 694,-55 805,-55 805,-85"/>
<text text-anchor="start" x="702" y="-73" font-family="Helvetica,sans-Serif" font-size="10.00">spdlog/fmt/bundled</text>
<text text-anchor="middle" x="749.5" y="-62" font-family="Helvetica,sans-Serif" font-size="10.00">/ranges.h</text>
</a>
</g>
</g>
<!-- Node9&#45;&gt;Node11 -->
<g id="edge12_Node000009_Node000011" class="edge">
<title>Node9&#45;&gt;Node11</title>
<g id="a_edge12_Node000009_Node000011"><a xlink:title=" ">
<path fill="none" stroke="#63b8ff" d="M677.89,-120.87C689.19,-113 706.29,-101.09 720.95,-90.89"/>
<polygon fill="#63b8ff" stroke="#63b8ff" points="723.03,-93.7 729.23,-85.11 719.03,-87.96 723.03,-93.7"/>
</a>
</g>
</g>
<!-- Node12 -->
<g id="Node000012" class="node">
<title>Node12</title>
<g id="a_Node000012"><a xlink:title=" ">
<polygon fill="#e0e0e0" stroke="#999999" points="922,-79.5 823,-79.5 823,-60.5 922,-60.5 922,-79.5"/>
<text text-anchor="middle" x="872.5" y="-67.5" font-family="Helvetica,sans-Serif" font-size="10.00">spdlog/fmt/ostr.h</text>
</a>
</g>
</g>
<!-- Node9&#45;&gt;Node12 -->
<g id="edge13_Node000009_Node000012" class="edge">
<title>Node9&#45;&gt;Node12</title>
<g id="a_edge13_Node000009_Node000012"><a xlink:title=" ">
<path fill="none" stroke="#63b8ff" d="M695.6,-120.99C731.78,-110.77 792.61,-93.58 832.66,-82.26"/>
<polygon fill="#63b8ff" stroke="#63b8ff" points="833.69,-85.6 842.36,-79.52 831.79,-78.87 833.69,-85.6"/>
</a>
</g>
</g>
<!-- Node13 -->
<g id="Node000013" class="node">
<title>Node13</title>
<g id="a_Node000013"><a xlink:title=" ">
<polygon fill="#e0e0e0" stroke="#999999" points="1033,-79.5 940,-79.5 940,-60.5 1033,-60.5 1033,-79.5"/>
<text text-anchor="middle" x="986.5" y="-67.5" font-family="Helvetica,sans-Serif" font-size="10.00">spdlog/spdlog.h</text>
</a>
</g>
</g>
<!-- Node9&#45;&gt;Node13 -->
<g id="edge14_Node000009_Node000013" class="edge">
<title>Node9&#45;&gt;Node13</title>
<g id="a_edge14_Node000009_Node000013"><a xlink:title=" ">
<path fill="none" stroke="#63b8ff" d="M725.19,-120.97C779.28,-112.9 861.05,-99.83 931.5,-85 935.9,-84.07 940.49,-83.03 945.04,-81.94"/>
<polygon fill="#63b8ff" stroke="#63b8ff" points="946.03,-85.31 954.9,-79.52 944.36,-78.51 946.03,-85.31"/>
</a>
</g>
</g>
<!-- Node14 -->
<g id="Node000014" class="node">
<title>Node14</title>
<g id="a_Node000014"><a xlink:href="_enable_warnings_8hpp.html" target="_top" xlink:title=" ">
<polygon fill="white" stroke="#666666" points="1234,-79.5 1051,-79.5 1051,-60.5 1234,-60.5 1234,-79.5"/>
<text text-anchor="middle" x="1142.5" y="-67.5" font-family="Helvetica,sans-Serif" font-size="10.00">polyfem/utils/EnableWarnings.hpp</text>
</a>
</g>
</g>
<!-- Node9&#45;&gt;Node14 -->
<g id="edge15_Node000009_Node000014" class="edge">
<title>Node9&#45;&gt;Node14</title>
<g id="a_edge15_Node000009_Node000014"><a xlink:title=" ">
<path fill="none" stroke="#63b8ff" d="M734,-121.86C809.59,-113.33 934.81,-98.89 1042.5,-85 1052.41,-83.72 1062.86,-82.32 1073.13,-80.91"/>
<polygon fill="#63b8ff" stroke="#63b8ff" points="1073.88,-84.34 1083.31,-79.5 1072.92,-77.41 1073.88,-84.34"/>
</a>
</g>
</g>
</g>
</svg>
