<?xml version="1.0" encoding="UTF-8" standalone="no"?>
<!DOCTYPE svg PUBLIC "-//W3C//DTD SVG 1.1//EN"
 "http://www.w3.org/Graphics/SVG/1.1/DTD/svg11.dtd">
<!-- Generated by graphviz version 2.43.0 (0)
 -->
<!-- Title: src/polyfem/mesh/remesh/Remesher.hpp Pages: 1 -->
<!--zoomable 324 -->

<svg id="main" version="1.1" xmlns="http://www.w3.org/2000/svg" xmlns:xlink="http://www.w3.org/1999/xlink" xml:space="preserve" onload="init(evt)">
<style type="text/css"><![CDATA[
.node, .edge {opacity: 0.7;}
.node.selected, .edge.selected {opacity: 1;}
.edge:hover path { stroke: red; }
.edge:hover polygon { stroke: red; fill: red; }
]]></style>

<defs>
  <circle id="rim" cx="0" cy="0" r="7"/>
  <circle id="rim2" cx="0" cy="0" r="3.5"/>
  <g id="zoomPlus">
    <use xlink:href="#rim" fill="#404040"><set attributeName="fill" to="#808080" begin="zoomplus.mouseover" end="zoomplus.mouseout"/></use>
    <path d="M-4,0h8M0,-4v8" fill="none" stroke="white" stroke-width="1.5" pointer-events="none"/>
  </g>
  <g id="zoomMin">
    <use xlink:href="#rim" fill="#404040"><set attributeName="fill" to="#808080" begin="zoomminus.mouseover" end="zoomminus.mouseout"/></use>
    <path d="M-4,0h8" fill="none" stroke="white" stroke-width="1.5" pointer-events="none"/>
  </g>
  <g id="arrowUp" transform="translate(30 24)">
    <use xlink:href="#rim"/>
    <path pointer-events="none" fill="none" stroke="white" stroke-width="1.5" d="M0,-3.0v7 M-2.5,-0.5L0,-3.0L2.5,-0.5"/>
  </g>
  <g id="arrowRight" transform="rotate(90) translate(36 -43)">
    <use xlink:href="#rim"/>
    <path pointer-events="none" fill="none" stroke="white" stroke-width="1.5" d="M0,-3.0v7 M-2.5,-0.5L0,-3.0L2.5,-0.5"/>
  </g>
  <g id="arrowDown" transform="rotate(180) translate(-30 -48)">
    <use xlink:href="#rim"/>
    <path pointer-events="none" fill="none" stroke="white" stroke-width="1.5" d="M0,-3.0v7 M-2.5,-0.5L0,-3.0L2.5,-0.5"/>
  </g>
  <g id="arrowLeft" transform="rotate(270) translate(-36 17)">
    <use xlink:href="#rim"/>
    <path pointer-events="none" fill="none" stroke="white" stroke-width="1.5" d="M0,-3.0v7 M-2.5,-0.5L0,-3.0L2.5,-0.5"/>
  </g>
  <g id="resetDef">
    <use xlink:href="#rim2" fill="#404040"><set attributeName="fill" to="#808080" begin="reset.mouseover" end="reset.mouseout"/></use>
  </g>
</defs>
<script type="application/ecmascript">
var viewWidth = 1354;
var viewHeight = 324;
var sectionId = 'dynsection-1';
</script>
<script type="application/ecmascript" xlink:href="svg.min.js"/>
<svg id="graph" class="graph">
<g id="viewport">
<title>src/polyfem/mesh/remesh/Remesher.hpp</title>
<!-- Node1 -->
<g id="Node000001" class="node">
<title>Node1</title>
<g id="a_Node000001"><a xlink:title=" ">
<polygon fill="#999999" stroke="#666666" points="383.5,-316 239.5,-316 239.5,-286 383.5,-286 383.5,-316"/>
<text text-anchor="start" x="247.5" y="-304" font-family="Helvetica,sans-Serif" font-size="10.00">src/polyfem/mesh/remesh</text>
<text text-anchor="middle" x="311.5" y="-293" font-family="Helvetica,sans-Serif" font-size="10.00">/Remesher.hpp</text>
</a>
</g>
</g>
<!-- Node2 -->
<g id="Node000002" class="node">
<title>Node2</title>
<g id="a_Node000002"><a xlink:href="_remesher_8cpp.html" target="_top" xlink:title=" ">
<polygon fill="white" stroke="#666666" points="209.5,-250 65.5,-250 65.5,-220 209.5,-220 209.5,-250"/>
<text text-anchor="start" x="73.5" y="-238" font-family="Helvetica,sans-Serif" font-size="10.00">src/polyfem/mesh/remesh</text>
<text text-anchor="middle" x="137.5" y="-227" font-family="Helvetica,sans-Serif" font-size="10.00">/Remesher.cpp</text>
</a>
</g>
</g>
<!-- Node1&#45;&gt;Node2 -->
<g id="edge1_Node000001_Node000002" class="edge">
<title>Node1&#45;&gt;Node2</title>
<g id="a_edge1_Node000001_Node000002"><a xlink:title=" ">
<path fill="none" stroke="#63b8ff" d="M263.8,-282.46C236.04,-272.25 201.53,-259.55 175.6,-250.01"/>
<polygon fill="#63b8ff" stroke="#63b8ff" points="262.72,-285.79 273.31,-285.95 265.14,-279.22 262.72,-285.79"/>
</a>
</g>
</g>
<!-- Node3 -->
<g id="Node000003" class="node">
<title>Node3</title>
<g id="a_Node000003"><a xlink:href="_wild_remesher_8hpp.html" target="_top" xlink:title=" ">
<polygon fill="white" stroke="#666666" points="805.5,-250 661.5,-250 661.5,-220 805.5,-220 805.5,-250"/>
<text text-anchor="start" x="669.5" y="-238" font-family="Helvetica,sans-Serif" font-size="10.00">src/polyfem/mesh/remesh</text>
<text text-anchor="middle" x="733.5" y="-227" font-family="Helvetica,sans-Serif" font-size="10.00">/WildRemesher.hpp</text>
</a>
</g>
</g>
<!-- Node1&#45;&gt;Node3 -->
<g id="edge2_Node000001_Node000003" class="edge">
<title>Node1&#45;&gt;Node3</title>
<g id="a_edge2_Node000001_Node000003"><a xlink:title=" ">
<path fill="none" stroke="#63b8ff" d="M393.81,-287.52C471.59,-275.72 587.13,-258.2 661.38,-246.94"/>
<polygon fill="#63b8ff" stroke="#63b8ff" points="392.93,-284.11 383.56,-289.07 393.98,-291.03 392.93,-284.11"/>
</a>
</g>
</g>
<!-- Node18 -->
<g id="Node000018" class="node">
<title>Node18</title>
<g id="a_Node000018"><a xlink:href="_local_relaxation_data_8cpp.html" target="_top" xlink:title=" ">
<polygon fill="white" stroke="#666666" points="343,-107 180,-107 180,-66 343,-66 343,-107"/>
<text text-anchor="start" x="188" y="-95" font-family="Helvetica,sans-Serif" font-size="10.00">src/polyfem/mesh/remesh</text>
<text text-anchor="start" x="188" y="-84" font-family="Helvetica,sans-Serif" font-size="10.00">/wild_remesh/LocalRelaxation</text>
<text text-anchor="middle" x="261.5" y="-73" font-family="Helvetica,sans-Serif" font-size="10.00">Data.cpp</text>
</a>
</g>
</g>
<!-- Node1&#45;&gt;Node18 -->
<g id="edge33_Node000001_Node000018" class="edge">
<title>Node1&#45;&gt;Node18</title>
<g id="a_edge33_Node000001_Node000018"><a xlink:title=" ">
<path fill="none" stroke="#63b8ff" d="M299.84,-276.54C289.05,-253.59 273.63,-217.3 266.5,-184 260.92,-157.92 260.34,-127.01 260.7,-107.33"/>
<polygon fill="#63b8ff" stroke="#63b8ff" points="296.8,-278.31 304.28,-285.81 303.11,-275.28 296.8,-278.31"/>
</a>
</g>
</g>
<!-- Node21 -->
<g id="Node000021" class="node">
<title>Node21</title>
<g id="a_Node000021"><a xlink:href="_local_mesh_8hpp.html" target="_top" xlink:title=" ">
<polygon fill="white" stroke="#666666" points="464.5,-250 306.5,-250 306.5,-220 464.5,-220 464.5,-250"/>
<text text-anchor="start" x="314.5" y="-238" font-family="Helvetica,sans-Serif" font-size="10.00">src/polyfem/mesh/remesh</text>
<text text-anchor="middle" x="385.5" y="-227" font-family="Helvetica,sans-Serif" font-size="10.00">/wild_remesh/LocalMesh.hpp</text>
</a>
</g>
</g>
<!-- Node1&#45;&gt;Node21 -->
<g id="edge25_Node000001_Node000021" class="edge">
<title>Node1&#45;&gt;Node21</title>
<g id="a_edge25_Node000001_Node000021"><a xlink:title=" ">
<path fill="none" stroke="#63b8ff" d="M335.55,-279.2C346.53,-269.7 359.26,-258.69 369.12,-250.16"/>
<polygon fill="#63b8ff" stroke="#63b8ff" points="333.2,-276.61 327.92,-285.8 337.78,-281.9 333.2,-276.61"/>
</a>
</g>
</g>
<!-- Node4 -->
<g id="Node000004" class="node">
<title>Node4</title>
<g id="a_Node000004"><a xlink:href="_physics_remesher_8hpp.html" target="_top" xlink:title=" ">
<polygon fill="white" stroke="#666666" points="581.5,-101.5 437.5,-101.5 437.5,-71.5 581.5,-71.5 581.5,-101.5"/>
<text text-anchor="start" x="445.5" y="-89.5" font-family="Helvetica,sans-Serif" font-size="10.00">src/polyfem/mesh/remesh</text>
<text text-anchor="middle" x="509.5" y="-78.5" font-family="Helvetica,sans-Serif" font-size="10.00">/PhysicsRemesher.hpp</text>
</a>
</g>
</g>
<!-- Node3&#45;&gt;Node4 -->
<g id="edge3_Node000003_Node000004" class="edge">
<title>Node3&#45;&gt;Node4</title>
<g id="a_edge3_Node000003_Node000004"><a xlink:title=" ">
<path fill="none" stroke="#63b8ff" d="M721.24,-210.62C708.4,-186.91 688.48,-152.41 676.5,-143 658.84,-129.13 606.4,-112.88 564.94,-101.57"/>
<polygon fill="#63b8ff" stroke="#63b8ff" points="718.3,-212.55 726.1,-219.71 724.47,-209.24 718.3,-212.55"/>
</a>
</g>
</g>
<!-- Node12 -->
<g id="Node000012" class="node">
<title>Node12</title>
<g id="a_Node000012"><a xlink:href="_sizing_field_remesher_8hpp.html" target="_top" xlink:title=" ">
<polygon fill="white" stroke="#666666" points="1145.5,-178.5 1001.5,-178.5 1001.5,-148.5 1145.5,-148.5 1145.5,-178.5"/>
<text text-anchor="start" x="1009.5" y="-166.5" font-family="Helvetica,sans-Serif" font-size="10.00">src/polyfem/mesh/remesh</text>
<text text-anchor="middle" x="1073.5" y="-155.5" font-family="Helvetica,sans-Serif" font-size="10.00">/SizingFieldRemesher.hpp</text>
</a>
</g>
</g>
<!-- Node3&#45;&gt;Node12 -->
<g id="edge11_Node000003_Node000012" class="edge">
<title>Node3&#45;&gt;Node12</title>
<g id="a_edge11_Node000003_Node000012"><a xlink:title=" ">
<path fill="none" stroke="#63b8ff" d="M815.67,-218.44C865.46,-208.86 930.22,-196.13 987.5,-184 995.59,-182.29 1004.09,-180.43 1012.47,-178.56"/>
<polygon fill="#63b8ff" stroke="#63b8ff" points="814.76,-215.05 805.6,-220.38 816.08,-221.93 814.76,-215.05"/>
</a>
</g>
</g>
<!-- Node14 -->
<g id="Node000014" class="node">
<title>Node14</title>
<g id="a_Node000014"><a xlink:href="_wild_remesher_8cpp.html" target="_top" xlink:title=" ">
<polygon fill="white" stroke="#666666" points="667.5,-178.5 523.5,-178.5 523.5,-148.5 667.5,-148.5 667.5,-178.5"/>
<text text-anchor="start" x="531.5" y="-166.5" font-family="Helvetica,sans-Serif" font-size="10.00">src/polyfem/mesh/remesh</text>
<text text-anchor="middle" x="595.5" y="-155.5" font-family="Helvetica,sans-Serif" font-size="10.00">/WildRemesher.cpp</text>
</a>
</g>
</g>
<!-- Node3&#45;&gt;Node14 -->
<g id="edge13_Node000003_Node000014" class="edge">
<title>Node3&#45;&gt;Node14</title>
<g id="a_edge13_Node000003_Node000014"><a xlink:title=" ">
<path fill="none" stroke="#63b8ff" d="M696.46,-215.34C673.47,-203.77 644.42,-189.14 623.38,-178.54"/>
<polygon fill="#63b8ff" stroke="#63b8ff" points="695.07,-218.56 705.57,-219.94 698.22,-212.31 695.07,-218.56"/>
</a>
</g>
</g>
<!-- Node15 -->
<g id="Node000015" class="node">
<title>Node15</title>
<g id="a_Node000015"><a xlink:href="_wild_tet_remesher_8cpp.html" target="_top" xlink:title=" ">
<polygon fill="white" stroke="#666666" points="1183.5,-101.5 1039.5,-101.5 1039.5,-71.5 1183.5,-71.5 1183.5,-101.5"/>
<text text-anchor="start" x="1047.5" y="-89.5" font-family="Helvetica,sans-Serif" font-size="10.00">src/polyfem/mesh/remesh</text>
<text text-anchor="middle" x="1111.5" y="-78.5" font-family="Helvetica,sans-Serif" font-size="10.00">/WildTetRemesher.cpp</text>
</a>
</g>
</g>
<!-- Node3&#45;&gt;Node15 -->
<g id="edge14_Node000003_Node000015" class="edge">
<title>Node3&#45;&gt;Node15</title>
<g id="a_edge14_Node000003_Node000015"><a xlink:title=" ">
<path fill="none" stroke="#63b8ff" d="M815.63,-227.24C859.19,-220.82 912.29,-208.33 954.5,-184 976.02,-171.59 972.42,-157.63 992.5,-143 1016.72,-125.34 1047.46,-111.18 1071.63,-101.58"/>
<polygon fill="#63b8ff" stroke="#63b8ff" points="815.05,-223.78 805.63,-228.63 816.02,-230.72 815.05,-223.78"/>
</a>
</g>
</g>
<!-- Node16 -->
<g id="Node000016" class="node">
<title>Node16</title>
<g id="a_Node000016"><a xlink:href="_wild_tri_remesher_8cpp.html" target="_top" xlink:title=" ">
<polygon fill="white" stroke="#666666" points="743.5,-101.5 599.5,-101.5 599.5,-71.5 743.5,-71.5 743.5,-101.5"/>
<text text-anchor="start" x="607.5" y="-89.5" font-family="Helvetica,sans-Serif" font-size="10.00">src/polyfem/mesh/remesh</text>
<text text-anchor="middle" x="671.5" y="-78.5" font-family="Helvetica,sans-Serif" font-size="10.00">/WildTriRemesher.cpp</text>
</a>
</g>
</g>
<!-- Node3&#45;&gt;Node16 -->
<g id="edge15_Node000003_Node000016" class="edge">
<title>Node3&#45;&gt;Node16</title>
<g id="a_edge15_Node000003_Node000016"><a xlink:title=" ">
<path fill="none" stroke="#63b8ff" d="M729.47,-209.84C725.79,-191.04 719.39,-164.61 709.5,-143 702.6,-127.92 691.66,-112.49 683.29,-101.74"/>
<polygon fill="#63b8ff" stroke="#63b8ff" points="726.08,-210.73 731.33,-219.93 732.96,-209.46 726.08,-210.73"/>
</a>
</g>
</g>
<!-- Node17 -->
<g id="Node000017" class="node">
<title>Node17</title>
<g id="a_Node000017"><a xlink:href="_execute_8cpp.html" target="_top" xlink:title=" ">
<polygon fill="white" stroke="#666666" points="1307.5,-178.5 1163.5,-178.5 1163.5,-148.5 1307.5,-148.5 1307.5,-178.5"/>
<text text-anchor="start" x="1171.5" y="-166.5" font-family="Helvetica,sans-Serif" font-size="10.00">src/polyfem/mesh/remesh</text>
<text text-anchor="middle" x="1235.5" y="-155.5" font-family="Helvetica,sans-Serif" font-size="10.00">/wild_remesh/Execute.cpp</text>
</a>
</g>
</g>
<!-- Node3&#45;&gt;Node17 -->
<g id="edge16_Node000003_Node000017" class="edge">
<title>Node3&#45;&gt;Node17</title>
<g id="a_edge16_Node000003_Node000017"><a xlink:title=" ">
<path fill="none" stroke="#63b8ff" d="M815.9,-227.11C901.08,-219.32 1037.71,-204.92 1154.5,-184 1163.04,-182.47 1172.03,-180.59 1180.79,-178.6"/>
<polygon fill="#63b8ff" stroke="#63b8ff" points="815.41,-223.64 805.77,-228.03 816.04,-230.61 815.41,-223.64"/>
</a>
</g>
</g>
<!-- Node3&#45;&gt;Node18 -->
<g id="edge17_Node000003_Node000018" class="edge">
<title>Node3&#45;&gt;Node18</title>
<g id="a_edge17_Node000003_Node000018"><a xlink:title=" ">
<path fill="none" stroke="#63b8ff" d="M650.9,-229.33C531.42,-221.87 321.65,-205.84 294.5,-184 271.32,-165.36 264.35,-129.62 262.3,-107.26"/>
<polygon fill="#63b8ff" stroke="#63b8ff" points="650.91,-232.84 661.11,-229.96 651.34,-225.85 650.91,-232.84"/>
</a>
</g>
</g>
<!-- Node19 -->
<g id="Node000019" class="node">
<title>Node19</title>
<g id="a_Node000019"><a xlink:href="_operation_cache_8hpp.html" target="_top" xlink:title=" ">
<polygon fill="white" stroke="#666666" points="945.5,-178.5 761.5,-178.5 761.5,-148.5 945.5,-148.5 945.5,-178.5"/>
<text text-anchor="start" x="769.5" y="-166.5" font-family="Helvetica,sans-Serif" font-size="10.00">src/polyfem/mesh/remesh</text>
<text text-anchor="middle" x="853.5" y="-155.5" font-family="Helvetica,sans-Serif" font-size="10.00">/wild_remesh/OperationCache.hpp</text>
</a>
</g>
</g>
<!-- Node3&#45;&gt;Node19 -->
<g id="edge18_Node000003_Node000019" class="edge">
<title>Node3&#45;&gt;Node19</title>
<g id="a_edge18_Node000003_Node000019"><a xlink:title=" ">
<path fill="none" stroke="#63b8ff" d="M766.51,-214.88C786.37,-203.38 811.21,-188.99 829.25,-178.54"/>
<polygon fill="#63b8ff" stroke="#63b8ff" points="764.68,-211.9 757.78,-219.94 768.19,-217.95 764.68,-211.9"/>
</a>
</g>
</g>
<!-- Node5 -->
<g id="Node000005" class="node">
<title>Node5</title>
<g id="a_Node000005"><a xlink:href="_physics_remesher_8cpp.html" target="_top" xlink:title=" ">
<polygon fill="white" stroke="#666666" points="520.5,-30 376.5,-30 376.5,0 520.5,0 520.5,-30"/>
<text text-anchor="start" x="384.5" y="-18" font-family="Helvetica,sans-Serif" font-size="10.00">src/polyfem/mesh/remesh</text>
<text text-anchor="middle" x="448.5" y="-7" font-family="Helvetica,sans-Serif" font-size="10.00">/PhysicsRemesher.cpp</text>
</a>
</g>
</g>
<!-- Node4&#45;&gt;Node5 -->
<g id="edge4_Node000004_Node000005" class="edge">
<title>Node4&#45;&gt;Node5</title>
<g id="a_edge4_Node000004_Node000005"><a xlink:title=" ">
<path fill="none" stroke="#63b8ff" d="M490.5,-63.85C480.82,-52.83 469.34,-39.74 460.83,-30.04"/>
<polygon fill="#63b8ff" stroke="#63b8ff" points="487.93,-66.23 497.16,-71.44 493.19,-61.61 487.93,-66.23"/>
</a>
</g>
</g>
<!-- Node6 -->
<g id="Node000006" class="node">
<title>Node6</title>
<g id="a_Node000006"><a xlink:href="_collapse_8cpp.html" target="_top" xlink:title=" ">
<polygon fill="white" stroke="#666666" points="1172,-30 1025,-30 1025,0 1172,0 1172,-30"/>
<text text-anchor="start" x="1033" y="-18" font-family="Helvetica,sans-Serif" font-size="10.00">src/polyfem/mesh/remesh</text>
<text text-anchor="middle" x="1098.5" y="-7" font-family="Helvetica,sans-Serif" font-size="10.00">/wild_remesh/Collapse.cpp</text>
</a>
</g>
</g>
<!-- Node4&#45;&gt;Node6 -->
<g id="edge5_Node000004_Node000006" class="edge">
<title>Node4&#45;&gt;Node6</title>
<g id="a_edge5_Node000004_Node000006"><a xlink:title=" ">
<path fill="none" stroke="#63b8ff" d="M572.83,-69.29C578.78,-68.06 584.74,-66.93 590.5,-66 777.63,-35.73 827.43,-53.79 1015.5,-30 1018.54,-29.61 1021.65,-29.2 1024.78,-28.76"/>
<polygon fill="#63b8ff" stroke="#63b8ff" points="571.89,-65.91 562.86,-71.44 573.37,-72.75 571.89,-65.91"/>
</a>
</g>
</g>
<!-- Node7 -->
<g id="Node000007" class="node">
<title>Node7</title>
<g id="a_Node000007"><a xlink:href="_local_mesh_8cpp.html" target="_top" xlink:title=" ">
<polygon fill="white" stroke="#666666" points="157,-30 0,-30 0,0 157,0 157,-30"/>
<text text-anchor="start" x="8" y="-18" font-family="Helvetica,sans-Serif" font-size="10.00">src/polyfem/mesh/remesh</text>
<text text-anchor="middle" x="78.5" y="-7" font-family="Helvetica,sans-Serif" font-size="10.00">/wild_remesh/LocalMesh.cpp</text>
</a>
</g>
</g>
<!-- Node4&#45;&gt;Node7 -->
<g id="edge6_Node000004_Node000007" class="edge">
<title>Node4&#45;&gt;Node7</title>
<g id="a_edge6_Node000004_Node000007"><a xlink:title=" ">
<path fill="none" stroke="#63b8ff" d="M427.12,-72.22C349.36,-59.68 233.58,-41.01 157.09,-28.67"/>
<polygon fill="#63b8ff" stroke="#63b8ff" points="426.93,-75.73 437.36,-73.87 428.05,-68.82 426.93,-75.73"/>
</a>
</g>
</g>
<!-- Node8 -->
<g id="Node000008" class="node">
<title>Node8</title>
<g id="a_Node000008"><a xlink:href="_local_relaxation_8cpp.html" target="_top" xlink:title=" ">
<polygon fill="white" stroke="#666666" points="358,-30 175,-30 175,0 358,0 358,-30"/>
<text text-anchor="start" x="183" y="-18" font-family="Helvetica,sans-Serif" font-size="10.00">src/polyfem/mesh/remesh</text>
<text text-anchor="middle" x="266.5" y="-7" font-family="Helvetica,sans-Serif" font-size="10.00">/wild_remesh/LocalRelaxation.cpp</text>
</a>
</g>
</g>
<!-- Node4&#45;&gt;Node8 -->
<g id="edge7_Node000004_Node000008" class="edge">
<title>Node4&#45;&gt;Node8</title>
<g id="a_edge7_Node000004_Node000008"><a xlink:title=" ">
<path fill="none" stroke="#63b8ff" d="M450.65,-68.67C409.3,-56.84 354.61,-41.2 315.6,-30.04"/>
<polygon fill="#63b8ff" stroke="#63b8ff" points="449.75,-72.05 460.33,-71.44 451.67,-65.32 449.75,-72.05"/>
</a>
</g>
</g>
<!-- Node9 -->
<g id="Node000009" class="node">
<title>Node9</title>
<g id="a_Node000009"><a xlink:href="_smooth_8cpp.html" target="_top" xlink:title=" ">
<polygon fill="white" stroke="#666666" points="844.5,-30 700.5,-30 700.5,0 844.5,0 844.5,-30"/>
<text text-anchor="start" x="708.5" y="-18" font-family="Helvetica,sans-Serif" font-size="10.00">src/polyfem/mesh/remesh</text>
<text text-anchor="middle" x="772.5" y="-7" font-family="Helvetica,sans-Serif" font-size="10.00">/wild_remesh/Smooth.cpp</text>
</a>
</g>
</g>
<!-- Node4&#45;&gt;Node9 -->
<g id="edge8_Node000004_Node000009" class="edge">
<title>Node4&#45;&gt;Node9</title>
<g id="a_edge8_Node000004_Node000009"><a xlink:title=" ">
<path fill="none" stroke="#63b8ff" d="M572.63,-68.82C617.45,-56.97 676.96,-41.25 719.36,-30.04"/>
<polygon fill="#63b8ff" stroke="#63b8ff" points="571.5,-65.5 562.72,-71.44 573.28,-72.26 571.5,-65.5"/>
</a>
</g>
</g>
<!-- Node10 -->
<g id="Node000010" class="node">
<title>Node10</title>
<g id="a_Node000010"><a xlink:href="_split_8cpp.html" target="_top" xlink:title=" ">
<polygon fill="white" stroke="#666666" points="682.5,-30 538.5,-30 538.5,0 682.5,0 682.5,-30"/>
<text text-anchor="start" x="546.5" y="-18" font-family="Helvetica,sans-Serif" font-size="10.00">src/polyfem/mesh/remesh</text>
<text text-anchor="middle" x="610.5" y="-7" font-family="Helvetica,sans-Serif" font-size="10.00">/wild_remesh/Split.cpp</text>
</a>
</g>
</g>
<!-- Node4&#45;&gt;Node10 -->
<g id="edge9_Node000004_Node000010" class="edge">
<title>Node4&#45;&gt;Node10</title>
<g id="a_edge9_Node000004_Node000010"><a xlink:title=" ">
<path fill="none" stroke="#63b8ff" d="M538.19,-65.75C554.75,-54.36 575.18,-40.31 590.09,-30.04"/>
<polygon fill="#63b8ff" stroke="#63b8ff" points="536.19,-62.88 529.94,-71.44 540.16,-68.65 536.19,-62.88"/>
</a>
</g>
</g>
<!-- Node11 -->
<g id="Node000011" class="node">
<title>Node11</title>
<g id="a_Node000011"><a xlink:href="_swap_8cpp.html" target="_top" xlink:title=" ">
<polygon fill="white" stroke="#666666" points="1006.5,-30 862.5,-30 862.5,0 1006.5,0 1006.5,-30"/>
<text text-anchor="start" x="870.5" y="-18" font-family="Helvetica,sans-Serif" font-size="10.00">src/polyfem/mesh/remesh</text>
<text text-anchor="middle" x="934.5" y="-7" font-family="Helvetica,sans-Serif" font-size="10.00">/wild_remesh/Swap.cpp</text>
</a>
</g>
</g>
<!-- Node4&#45;&gt;Node11 -->
<g id="edge10_Node000004_Node000011" class="edge">
<title>Node4&#45;&gt;Node11</title>
<g id="a_edge10_Node000004_Node000011"><a xlink:title=" ">
<path fill="none" stroke="#63b8ff" d="M574.83,-69.18C580.12,-68.04 585.39,-66.96 590.5,-66 706.44,-44.17 736.91,-48.05 853.5,-30 856.32,-29.56 859.19,-29.11 862.1,-28.64"/>
<polygon fill="#63b8ff" stroke="#63b8ff" points="573.68,-65.85 564.68,-71.44 575.2,-72.68 573.68,-65.85"/>
</a>
</g>
</g>
<!-- Node13 -->
<g id="Node000013" class="node">
<title>Node13</title>
<g id="a_Node000013"><a xlink:href="_sizing_field_remesher_8cpp.html" target="_top" xlink:title=" ">
<polygon fill="white" stroke="#666666" points="1345.5,-101.5 1201.5,-101.5 1201.5,-71.5 1345.5,-71.5 1345.5,-101.5"/>
<text text-anchor="start" x="1209.5" y="-89.5" font-family="Helvetica,sans-Serif" font-size="10.00">src/polyfem/mesh/remesh</text>
<text text-anchor="middle" x="1273.5" y="-78.5" font-family="Helvetica,sans-Serif" font-size="10.00">/SizingFieldRemesher.cpp</text>
</a>
</g>
</g>
<!-- Node12&#45;&gt;Node13 -->
<g id="edge12_Node000012_Node000013" class="edge">
<title>Node12&#45;&gt;Node13</title>
<g id="a_edge12_Node000012_Node000013"><a xlink:title=" ">
<path fill="none" stroke="#63b8ff" d="M1120.71,-144.8C1155.93,-131.59 1203.42,-113.78 1236.05,-101.54"/>
<polygon fill="#63b8ff" stroke="#63b8ff" points="1119.25,-141.6 1111.12,-148.39 1121.71,-148.16 1119.25,-141.6"/>
</a>
</g>
</g>
<!-- Node19&#45;&gt;Node4 -->
<g id="edge19_Node000019_Node000004" class="edge">
<title>Node19&#45;&gt;Node4</title>
<g id="a_edge19_Node000019_Node000004"><a xlink:title=" ">
<path fill="none" stroke="#63b8ff" d="M774.56,-146.45C722.26,-135.67 652.19,-120.93 590.5,-107 582.88,-105.28 574.87,-103.42 566.98,-101.55"/>
<polygon fill="#63b8ff" stroke="#63b8ff" points="773.94,-149.89 784.44,-148.48 775.35,-143.04 773.94,-149.89"/>
</a>
</g>
</g>
<!-- Node19&#45;&gt;Node6 -->
<g id="edge22_Node000019_Node000006" class="edge">
<title>Node19&#45;&gt;Node6</title>
<g id="a_edge22_Node000019_Node000006"><a xlink:title=" ">
<path fill="none" stroke="#63b8ff" d="M897.03,-144.31C919.73,-134.25 947.67,-120.99 971.5,-107 982.55,-100.51 1046.51,-54 1079.23,-30.1"/>
<polygon fill="#63b8ff" stroke="#63b8ff" points="895.41,-141.2 887.65,-148.41 898.21,-147.61 895.41,-141.2"/>
</a>
</g>
</g>
<!-- Node19&#45;&gt;Node11 -->
<g id="edge24_Node000019_Node000011" class="edge">
<title>Node19&#45;&gt;Node11</title>
<g id="a_edge24_Node000019_Node000011"><a xlink:title=" ">
<path fill="none" stroke="#63b8ff" d="M910.76,-144.09C927.86,-135.62 944.66,-123.64 954.5,-107 968.91,-82.64 954.27,-49.06 943.57,-30.25"/>
<polygon fill="#63b8ff" stroke="#63b8ff" points="908.9,-141.1 901.27,-148.45 911.82,-147.46 908.9,-141.1"/>
</a>
</g>
</g>
<!-- Node19&#45;&gt;Node15 -->
<g id="edge20_Node000019_Node000015" class="edge">
<title>Node19&#45;&gt;Node15</title>
<g id="a_edge20_Node000019_Node000015"><a xlink:title=" ">
<path fill="none" stroke="#63b8ff" d="M911.48,-145.64C957.15,-132.37 1020.07,-114.08 1063.07,-101.58"/>
<polygon fill="#63b8ff" stroke="#63b8ff" points="910.35,-142.33 901.73,-148.48 912.3,-149.05 910.35,-142.33"/>
</a>
</g>
</g>
<!-- Node19&#45;&gt;Node16 -->
<g id="edge21_Node000019_Node000016" class="edge">
<title>Node19&#45;&gt;Node16</title>
<g id="a_edge21_Node000019_Node000016"><a xlink:title=" ">
<path fill="none" stroke="#63b8ff" d="M809.72,-144.46C777.75,-131.28 735.02,-113.68 705.58,-101.54"/>
<polygon fill="#63b8ff" stroke="#63b8ff" points="808.69,-147.82 819.27,-148.39 811.35,-141.35 808.69,-147.82"/>
</a>
</g>
</g>
<!-- Node20 -->
<g id="Node000020" class="node">
<title>Node20</title>
<g id="a_Node000020"><a xlink:href="_operation_cache_8cpp.html" target="_top" xlink:title=" ">
<polygon fill="white" stroke="#666666" points="945,-101.5 762,-101.5 762,-71.5 945,-71.5 945,-101.5"/>
<text text-anchor="start" x="770" y="-89.5" font-family="Helvetica,sans-Serif" font-size="10.00">src/polyfem/mesh/remesh</text>
<text text-anchor="middle" x="853.5" y="-78.5" font-family="Helvetica,sans-Serif" font-size="10.00">/wild_remesh/OperationCache.cpp</text>
</a>
</g>
</g>
<!-- Node19&#45;&gt;Node20 -->
<g id="edge23_Node000019_Node000020" class="edge">
<title>Node19&#45;&gt;Node20</title>
<g id="a_edge23_Node000019_Node000020"><a xlink:title=" ">
<path fill="none" stroke="#63b8ff" d="M853.5,-138.04C853.5,-125.95 853.5,-111.79 853.5,-101.54"/>
<polygon fill="#63b8ff" stroke="#63b8ff" points="850,-138.39 853.5,-148.39 857,-138.39 850,-138.39"/>
</a>
</g>
</g>
<!-- Node21&#45;&gt;Node4 -->
<g id="edge26_Node000021_Node000004" class="edge">
<title>Node21&#45;&gt;Node4</title>
<g id="a_edge26_Node000021_Node000004"><a xlink:title=" ">
<path fill="none" stroke="#63b8ff" d="M433.63,-215.4C448.72,-207.61 464.33,-197.23 475.5,-184 496.13,-159.57 504.56,-121.79 507.74,-101.51"/>
<polygon fill="#63b8ff" stroke="#63b8ff" points="431.81,-212.39 424.35,-219.92 434.88,-218.69 431.81,-212.39"/>
</a>
</g>
</g>
<!-- Node21&#45;&gt;Node7 -->
<g id="edge28_Node000021_Node000007" class="edge">
<title>Node21&#45;&gt;Node7</title>
<g id="a_edge28_Node000021_Node000007"><a xlink:title=" ">
<path fill="none" stroke="#63b8ff" d="M334.83,-216.31C313.12,-207.83 287.89,-196.73 266.5,-184 191.27,-139.22 118.84,-61.87 90.75,-30.17"/>
<polygon fill="#63b8ff" stroke="#63b8ff" points="333.62,-219.59 344.21,-219.9 336.12,-213.06 333.62,-219.59"/>
</a>
</g>
</g>
<!-- Node21&#45;&gt;Node14 -->
<g id="edge27_Node000021_Node000014" class="edge">
<title>Node21&#45;&gt;Node14</title>
<g id="a_edge27_Node000021_Node000014"><a xlink:title=" ">
<path fill="none" stroke="#63b8ff" d="M437.72,-216.72C473.29,-204.95 519.78,-189.56 553.07,-178.54"/>
<polygon fill="#63b8ff" stroke="#63b8ff" points="436.39,-213.47 428,-219.94 438.59,-220.12 436.39,-213.47"/>
</a>
</g>
</g>
<!-- Node22 -->
<g id="Node000022" class="node">
<title>Node22</title>
<g id="a_Node000022"><a xlink:href="_local_relaxation_data_8hpp.html" target="_top" xlink:title=" ">
<polygon fill="white" stroke="#666666" points="467,-184 304,-184 304,-143 467,-143 467,-184"/>
<text text-anchor="start" x="312" y="-172" font-family="Helvetica,sans-Serif" font-size="10.00">src/polyfem/mesh/remesh</text>
<text text-anchor="start" x="312" y="-161" font-family="Helvetica,sans-Serif" font-size="10.00">/wild_remesh/LocalRelaxation</text>
<text text-anchor="middle" x="385.5" y="-150" font-family="Helvetica,sans-Serif" font-size="10.00">Data.hpp</text>
</a>
</g>
</g>
<!-- Node21&#45;&gt;Node22 -->
<g id="edge29_Node000021_Node000022" class="edge">
<title>Node21&#45;&gt;Node22</title>
<g id="a_edge29_Node000021_Node000022"><a xlink:title=" ">
<path fill="none" stroke="#63b8ff" d="M385.5,-209.91C385.5,-201.47 385.5,-192.1 385.5,-184.07"/>
<polygon fill="#63b8ff" stroke="#63b8ff" points="382,-209.94 385.5,-219.94 389,-209.94 382,-209.94"/>
</a>
</g>
</g>
<!-- Node22&#45;&gt;Node5 -->
<g id="edge30_Node000022_Node000005" class="edge">
<title>Node22&#45;&gt;Node5</title>
<g id="a_edge30_Node000022_Node000005"><a xlink:title=" ">
<path fill="none" stroke="#63b8ff" d="M398.08,-133.26C411.5,-102.04 432.21,-53.89 442.4,-30.18"/>
<polygon fill="#63b8ff" stroke="#63b8ff" points="394.73,-132.17 394,-142.74 401.16,-134.94 394.73,-132.17"/>
</a>
</g>
</g>
<!-- Node22&#45;&gt;Node8 -->
<g id="edge31_Node000022_Node000008" class="edge">
<title>Node22&#45;&gt;Node8</title>
<g id="a_edge31_Node000022_Node000008"><a xlink:title=" ">
<path fill="none" stroke="#63b8ff" d="M380.65,-132.97C376.03,-112.37 367.34,-85.24 351.5,-66 338.55,-50.27 319.27,-38.36 302.35,-30.12"/>
<polygon fill="#63b8ff" stroke="#63b8ff" points="377.22,-133.69 382.66,-142.78 384.08,-132.28 377.22,-133.69"/>
</a>
</g>
</g>
<!-- Node22&#45;&gt;Node18 -->
<g id="edge32_Node000022_Node000018" class="edge">
<title>Node22&#45;&gt;Node18</title>
<g id="a_edge32_Node000022_Node000018"><a xlink:title=" ">
<path fill="none" stroke="#63b8ff" d="M344.41,-137.64C328.03,-127.74 309.44,-116.5 294.03,-107.17"/>
<polygon fill="#63b8ff" stroke="#63b8ff" points="342.88,-140.81 353.24,-142.99 346.5,-134.82 342.88,-140.81"/>
</a>
</g>
</g>
</g>
</svg>

<g id="navigator" transform="translate(0 0)" fill="#404254">
  <rect fill="#f2f5e9" fill-opacity="0.5" stroke="#606060" stroke-width=".5" x="0" y="0" width="60" height="60"/>
  <use id="zoomplus" xlink:href="#zoomPlus" x="17" y="9" onmousedown="handleZoom(evt,'in')"/>
  <use id="zoomminus" xlink:href="#zoomMin" x="42" y="9" onmousedown="handleZoom(evt,'out')"/>
  <use id="reset" xlink:href="#resetDef" x="30" y="36" onmousedown="handleReset()"/>
   <use id="arrowup" xlink:href="#arrowUp" x="0" y="0" onmousedown="handlePan(0,-1)"/>
  <use id="arrowright" xlink:href="#arrowRight" x="0" y="0" onmousedown="handlePan(1,0)"/>
  <use id="arrowdown" xlink:href="#arrowDown" x="0" y="0" onmousedown="handlePan(0,1)"/>
  <use id="arrowleft" xlink:href="#arrowLeft" x="0" y="0" onmousedown="handlePan(-1,0)"/>
</g>
<svg viewBox="0 0 15 15" width="100%" height="30px" preserveAspectRatio="xMaxYMin meet">
 <g id="arrow_out" transform="scale(0.3 0.3)">
  <a xlink:href="_remesher_8hpp__dep__incl_org.svg" target="_base">
   <rect id="button" ry="5" rx="5" y="6" x="6" height="38" width="38"
        fill="#f2f5e9" fill-opacity="0.5" stroke="#606060" stroke-width="1.0"/>
   <path id="arrow"
     d="M 11.500037,31.436501 C 11.940474,20.09759 22.043105,11.32322 32.158766,21.979434 L 37.068811,17.246167 C 37.068811,17.246167 37.088388,32 37.088388,32 L 22.160133,31.978069 C 22.160133,31.978069 26.997745,27.140456 26.997745,27.140456 C 18.528582,18.264221 13.291696,25.230495 11.500037,31.436501 z"
     style="fill:#404040;"/>
  </a>
 </g>
</svg>

<style type='text/css'>
<![CDATA[
[data-mouse-over-selected='false'] { opacity: 0.7; }
[data-mouse-over-selected='true']  { opacity: 1.0; }
]]>
</style>
<script type="application/ecmascript"><![CDATA[
document.addEventListener('DOMContentLoaded', (event) => {
  highlightEdges();
  highlightAdjacentNodes();
});
]]></script>
</svg>
