<?xml version="1.0" encoding="UTF-8" standalone="no"?>
<!DOCTYPE svg PUBLIC "-//W3C//DTD SVG 1.1//EN"
 "http://www.w3.org/Graphics/SVG/1.1/DTD/svg11.dtd">
<!-- Generated by graphviz version 2.43.0 (0)
 -->
<!-- Title: src/polyfem/solver/forms/adjoint_forms/SpatialIntegralForms.hpp Pages: 1 -->
<svg width="512pt" height="203pt"
 viewBox="0.00 0.00 511.50 203.00" xmlns="http://www.w3.org/2000/svg" xmlns:xlink="http://www.w3.org/1999/xlink">
<g id="graph0" class="graph" transform="scale(1 1) rotate(0) translate(4 199)">
<title>src/polyfem/solver/forms/adjoint_forms/SpatialIntegralForms.hpp</title>
<!-- Node1 -->
<g id="Node000001" class="node">
<title>Node1</title>
<g id="a_Node000001"><a xlink:title=" ">
<polygon fill="#999999" stroke="#666666" points="355,-195 213,-195 213,-154 355,-154 355,-195"/>
<text text-anchor="start" x="221" y="-183" font-family="Helvetica,sans-Serif" font-size="10.00">src/polyfem/solver</text>
<text text-anchor="start" x="221" y="-172" font-family="Helvetica,sans-Serif" font-size="10.00">/forms/adjoint_forms</text>
<text text-anchor="middle" x="284" y="-161" font-family="Helvetica,sans-Serif" font-size="10.00">/SpatialIntegralForms.hpp</text>
</a>
</g>
</g>
<!-- Node2 -->
<g id="Node000002" class="node">
<title>Node2</title>
<g id="a_Node000002"><a xlink:href="_optimizations_8cpp.html" target="_top" xlink:title=" ">
<polygon fill="white" stroke="#666666" points="366,-35.5 258,-35.5 258,-5.5 366,-5.5 366,-35.5"/>
<text text-anchor="start" x="266" y="-23.5" font-family="Helvetica,sans-Serif" font-size="10.00">src/polyfem/solver</text>
<text text-anchor="middle" x="312" y="-12.5" font-family="Helvetica,sans-Serif" font-size="10.00">/Optimizations.cpp</text>
</a>
</g>
</g>
<!-- Node1&#45;&gt;Node2 -->
<g id="edge1_Node000001_Node000002" class="edge">
<title>Node1&#45;&gt;Node2</title>
<g id="a_edge1_Node000001_Node000002"><a xlink:title=" ">
<path fill="none" stroke="#63b8ff" d="M303.47,-145.13C308.19,-136.76 312.57,-127.33 315,-118 322.43,-89.45 318.23,-54.55 314.87,-35.52"/>
<polygon fill="#63b8ff" stroke="#63b8ff" points="300.44,-143.37 298.29,-153.75 306.44,-146.98 300.44,-143.37"/>
</a>
</g>
</g>
<!-- Node3 -->
<g id="Node000003" class="node">
<title>Node3</title>
<g id="a_Node000003"><a xlink:href="_spatial_integral_forms_8cpp.html" target="_top" xlink:title=" ">
<polygon fill="white" stroke="#666666" points="305.5,-118 164.5,-118 164.5,-77 305.5,-77 305.5,-118"/>
<text text-anchor="start" x="172.5" y="-106" font-family="Helvetica,sans-Serif" font-size="10.00">src/polyfem/solver</text>
<text text-anchor="start" x="172.5" y="-95" font-family="Helvetica,sans-Serif" font-size="10.00">/forms/adjoint_forms</text>
<text text-anchor="middle" x="235" y="-84" font-family="Helvetica,sans-Serif" font-size="10.00">/SpatialIntegralForms.cpp</text>
</a>
</g>
</g>
<!-- Node1&#45;&gt;Node3 -->
<g id="edge2_Node000001_Node000003" class="edge">
<title>Node1&#45;&gt;Node3</title>
<g id="a_edge2_Node000001_Node000003"><a xlink:title=" ">
<path fill="none" stroke="#63b8ff" d="M265.64,-145.39C259.69,-136.3 253.24,-126.41 247.79,-118.07"/>
<polygon fill="#63b8ff" stroke="#63b8ff" points="262.73,-147.34 271.13,-153.79 268.59,-143.51 262.73,-147.34"/>
</a>
</g>
</g>
<!-- Node4 -->
<g id="Node000004" class="node">
<title>Node4</title>
<g id="a_Node000004"><a xlink:href="_surface_traction_forms_8hpp.html" target="_top" xlink:title=" ">
<polygon fill="white" stroke="#666666" points="146,-118 0,-118 0,-77 146,-77 146,-118"/>
<text text-anchor="start" x="8" y="-106" font-family="Helvetica,sans-Serif" font-size="10.00">src/polyfem/solver</text>
<text text-anchor="start" x="8" y="-95" font-family="Helvetica,sans-Serif" font-size="10.00">/forms/adjoint_forms</text>
<text text-anchor="middle" x="73" y="-84" font-family="Helvetica,sans-Serif" font-size="10.00">/SurfaceTractionForms.hpp</text>
</a>
</g>
</g>
<!-- Node1&#45;&gt;Node4 -->
<g id="edge3_Node000001_Node000004" class="edge">
<title>Node1&#45;&gt;Node4</title>
<g id="a_edge3_Node000001_Node000004"><a xlink:title=" ">
<path fill="none" stroke="#63b8ff" d="M219.4,-150.54C190.16,-140.15 155.97,-127.99 127.98,-118.04"/>
<polygon fill="#63b8ff" stroke="#63b8ff" points="218.52,-153.94 229.11,-153.99 220.86,-147.34 218.52,-153.94"/>
</a>
</g>
</g>
<!-- Node6 -->
<g id="Node000006" class="node">
<title>Node6</title>
<g id="a_Node000006"><a xlink:href="_target_forms_8hpp.html" target="_top" xlink:title=" ">
<polygon fill="white" stroke="#666666" points="481.5,-118 362.5,-118 362.5,-77 481.5,-77 481.5,-118"/>
<text text-anchor="start" x="370.5" y="-106" font-family="Helvetica,sans-Serif" font-size="10.00">src/polyfem/solver</text>
<text text-anchor="start" x="370.5" y="-95" font-family="Helvetica,sans-Serif" font-size="10.00">/forms/adjoint_forms</text>
<text text-anchor="middle" x="422" y="-84" font-family="Helvetica,sans-Serif" font-size="10.00">/TargetForms.hpp</text>
</a>
</g>
</g>
<!-- Node1&#45;&gt;Node6 -->
<g id="edge6_Node000001_Node000006" class="edge">
<title>Node1&#45;&gt;Node6</title>
<g id="a_edge6_Node000001_Node000006"><a xlink:title=" ">
<path fill="none" stroke="#63b8ff" d="M328.72,-149.19C347.2,-139.15 368.33,-127.67 385.8,-118.17"/>
<polygon fill="#63b8ff" stroke="#63b8ff" points="327.01,-146.14 319.9,-153.99 330.36,-152.29 327.01,-146.14"/>
</a>
</g>
</g>
<!-- Node4&#45;&gt;Node2 -->
<g id="edge4_Node000004_Node000002" class="edge">
<title>Node4&#45;&gt;Node2</title>
<g id="a_edge4_Node000004_Node000002"><a xlink:title=" ">
<path fill="none" stroke="#63b8ff" d="M144.82,-73.96C184.56,-61.49 232.72,-46.38 267.12,-35.58"/>
<polygon fill="#63b8ff" stroke="#63b8ff" points="143.66,-70.66 135.17,-76.99 145.76,-77.34 143.66,-70.66"/>
</a>
</g>
</g>
<!-- Node5 -->
<g id="Node000005" class="node">
<title>Node5</title>
<g id="a_Node000005"><a xlink:href="_surface_traction_forms_8cpp.html" target="_top" xlink:title=" ">
<polygon fill="white" stroke="#666666" points="145.5,-41 0.5,-41 0.5,0 145.5,0 145.5,-41"/>
<text text-anchor="start" x="8.5" y="-29" font-family="Helvetica,sans-Serif" font-size="10.00">src/polyfem/solver</text>
<text text-anchor="start" x="8.5" y="-18" font-family="Helvetica,sans-Serif" font-size="10.00">/forms/adjoint_forms</text>
<text text-anchor="middle" x="73" y="-7" font-family="Helvetica,sans-Serif" font-size="10.00">/SurfaceTractionForms.cpp</text>
</a>
</g>
</g>
<!-- Node4&#45;&gt;Node5 -->
<g id="edge5_Node000004_Node000005" class="edge">
<title>Node4&#45;&gt;Node5</title>
<g id="a_edge5_Node000004_Node000005"><a xlink:title=" ">
<path fill="none" stroke="#63b8ff" d="M73,-66.69C73,-58.08 73,-48.9 73,-41.07"/>
<polygon fill="#63b8ff" stroke="#63b8ff" points="69.5,-66.79 73,-76.79 76.5,-66.79 69.5,-66.79"/>
</a>
</g>
</g>
<!-- Node6&#45;&gt;Node2 -->
<g id="edge7_Node000006_Node000002" class="edge">
<title>Node6&#45;&gt;Node2</title>
<g id="a_edge7_Node000006_Node000002"><a xlink:title=" ">
<path fill="none" stroke="#63b8ff" d="M385.09,-71.34C367.68,-59.47 347.55,-45.74 332.83,-35.7"/>
<polygon fill="#63b8ff" stroke="#63b8ff" points="383.15,-74.25 393.39,-76.99 387.1,-68.47 383.15,-74.25"/>
</a>
</g>
</g>
<!-- Node7 -->
<g id="Node000007" class="node">
<title>Node7</title>
<g id="a_Node000007"><a xlink:href="_target_forms_8cpp.html" target="_top" xlink:title=" ">
<polygon fill="white" stroke="#666666" points="503.5,-41 384.5,-41 384.5,0 503.5,0 503.5,-41"/>
<text text-anchor="start" x="392.5" y="-29" font-family="Helvetica,sans-Serif" font-size="10.00">src/polyfem/solver</text>
<text text-anchor="start" x="392.5" y="-18" font-family="Helvetica,sans-Serif" font-size="10.00">/forms/adjoint_forms</text>
<text text-anchor="middle" x="444" y="-7" font-family="Helvetica,sans-Serif" font-size="10.00">/TargetForms.cpp</text>
</a>
</g>
</g>
<!-- Node6&#45;&gt;Node7 -->
<g id="edge8_Node000006_Node000007" class="edge">
<title>Node6&#45;&gt;Node7</title>
<g id="a_edge8_Node000006_Node000007"><a xlink:title=" ">
<path fill="none" stroke="#63b8ff" d="M430.66,-66.98C433.21,-58.28 435.94,-48.98 438.26,-41.07"/>
<polygon fill="#63b8ff" stroke="#63b8ff" points="427.24,-66.21 427.78,-76.79 433.95,-68.18 427.24,-66.21"/>
</a>
</g>
</g>
</g>
</svg>
