<?xml version="1.0" encoding="UTF-8" standalone="no"?>
<!DOCTYPE svg PUBLIC "-//W3C//DTD SVG 1.1//EN"
 "http://www.w3.org/Graphics/SVG/1.1/DTD/svg11.dtd">
<!-- Generated by graphviz version 2.43.0 (0)
 -->
<!-- Title: src/polyfem/basis/SplineBasis3d.cpp Pages: 1 -->
<svg width="4138pt" height="489pt"
 viewBox="0.00 0.00 4137.52 489.00" xmlns="http://www.w3.org/2000/svg" xmlns:xlink="http://www.w3.org/1999/xlink">
<g id="graph0" class="graph" transform="scale(1 1) rotate(0) translate(4 485)">
<title>src/polyfem/basis/SplineBasis3d.cpp</title>
<!-- Node1 -->
<g id="node1" class="node">
<title>Node1</title>
<g id="a_node1"><a xlink:title=" ">
<polygon fill="#999999" stroke="#666666" points="1597.77,-481 1461.77,-481 1461.77,-451 1597.77,-451 1597.77,-481"/>
<text text-anchor="start" x="1469.77" y="-469" font-family="Helvetica,sans-Serif" font-size="10.00">src/polyfem/basis/Spline</text>
<text text-anchor="middle" x="1529.77" y="-458" font-family="Helvetica,sans-Serif" font-size="10.00">Basis3d.cpp</text>
</a>
</g>
</g>
<!-- Node2 -->
<g id="node2" class="node">
<title>Node2</title>
<g id="a_node2"><a xlink:href="_spline_basis3d_8hpp.html" target="_top" xlink:title=" ">
<polygon fill="white" stroke="#666666" points="1091.77,-277.5 985.77,-277.5 985.77,-258.5 1091.77,-258.5 1091.77,-277.5"/>
<text text-anchor="middle" x="1038.77" y="-265.5" font-family="Helvetica,sans-Serif" font-size="10.00">SplineBasis3d.hpp</text>
</a>
</g>
</g>
<!-- Node1&#45;&gt;Node2 -->
<g id="edge1" class="edge">
<title>Node1&#45;&gt;Node2</title>
<path fill="none" stroke="#63b8ff" d="M1461.67,-464.49C1395.79,-461.66 1294.48,-451.07 1214.77,-415 1145.01,-383.43 1080.47,-316.56 1052.88,-285.5"/>
<polygon fill="#63b8ff" stroke="#63b8ff" points="1055.32,-282.97 1046.1,-277.75 1050.05,-287.58 1055.32,-282.97"/>
</g>
<!-- Node4 -->
<g id="node4" class="node">
<title>Node4</title>
<g id="a_node4"><a xlink:href="_common_8hpp.html" target="_top" xlink:title=" ">
<polygon fill="white" stroke="#666666" points="3101.27,-79.5 2976.27,-79.5 2976.27,-60.5 3101.27,-60.5 3101.27,-79.5"/>
<text text-anchor="middle" x="3038.77" y="-67.5" font-family="Helvetica,sans-Serif" font-size="10.00">polyfem/Common.hpp</text>
</a>
</g>
</g>
<!-- Node1&#45;&gt;Node4 -->
<g id="edge158" class="edge">
<title>Node1&#45;&gt;Node4</title>
<path fill="none" stroke="#63b8ff" d="M1597.86,-464.72C1863.12,-463.33 2827.58,-455.56 3130.77,-415 3255.78,-398.28 3296.02,-409.35 3406.77,-349 3474.46,-312.11 3507.02,-253.93 3468.77,-187 3444.34,-144.24 3425.28,-139.81 3379.77,-121 3292.28,-84.85 3182.68,-74.28 3111.72,-71.49"/>
<polygon fill="#63b8ff" stroke="#63b8ff" points="3111.66,-67.98 3101.54,-71.13 3111.41,-74.98 3111.66,-67.98"/>
</g>
<!-- Node5 -->
<g id="node5" class="node">
<title>Node5</title>
<g id="a_node5"><a xlink:title=" ">
<polygon fill="#e0e0e0" stroke="#999999" points="2826.77,-19 2746.77,-19 2746.77,0 2826.77,0 2826.77,-19"/>
<text text-anchor="middle" x="2786.77" y="-7" font-family="Helvetica,sans-Serif" font-size="10.00">Eigen/Sparse</text>
</a>
</g>
</g>
<!-- Node1&#45;&gt;Node5 -->
<g id="edge161" class="edge">
<title>Node1&#45;&gt;Node5</title>
<path fill="none" stroke="#63b8ff" d="M1597.83,-465.07C1951.85,-465.22 3575.06,-463.24 3793.77,-415 3880.45,-395.88 3976.77,-423.77 3976.77,-335 3976.77,-335 3976.77,-335 3976.77,-135 3976.77,-81.29 4423.63,-175.05 3748.77,-55 3743.1,-53.99 3033.95,-21.73 2837,-12.78"/>
<polygon fill="#63b8ff" stroke="#63b8ff" points="2837.07,-9.28 2826.92,-12.32 2836.75,-16.27 2837.07,-9.28"/>
</g>
<!-- Node11 -->
<g id="node9" class="node">
<title>Node11</title>
<g id="a_node9"><a xlink:href="_types_8hpp.html" target="_top" xlink:title=" ">
<polygon fill="white" stroke="#666666" points="2720.27,-79.5 2587.27,-79.5 2587.27,-60.5 2720.27,-60.5 2720.27,-79.5"/>
<text text-anchor="middle" x="2653.77" y="-67.5" font-family="Helvetica,sans-Serif" font-size="10.00">polyfem/utils/Types.hpp</text>
</a>
</g>
</g>
<!-- Node1&#45;&gt;Node11 -->
<g id="edge157" class="edge">
<title>Node1&#45;&gt;Node11</title>
<path fill="none" stroke="#63b8ff" d="M1597.91,-464.43C1844.43,-462.09 2689.36,-451.52 2956.77,-415 3107.15,-394.46 3288.77,-486.78 3288.77,-335 3288.77,-335 3288.77,-335 3288.77,-267 3288.77,-151.39 2899.62,-96.67 2730.6,-78.36"/>
<polygon fill="#63b8ff" stroke="#63b8ff" points="2730.84,-74.86 2720.53,-77.28 2730.1,-81.82 2730.84,-74.86"/>
</g>
<!-- Node16 -->
<g id="node13" class="node">
<title>Node16</title>
<g id="a_node13"><a xlink:title=" ">
<polygon fill="#e0e0e0" stroke="#999999" points="747.27,-19 700.27,-19 700.27,0 747.27,0 747.27,-19"/>
<text text-anchor="middle" x="723.77" y="-7" font-family="Helvetica,sans-Serif" font-size="10.00">vector</text>
</a>
</g>
</g>
<!-- Node1&#45;&gt;Node16 -->
<g id="edge164" class="edge">
<title>Node1&#45;&gt;Node16</title>
<path fill="none" stroke="#63b8ff" d="M1461.56,-464.62C1235.14,-462.98 509.85,-454.7 279.77,-415 161.88,-394.66 22.77,-454.63 22.77,-335 22.77,-335 22.77,-335 22.77,-135 22.77,-119.03 -83.29,-129.66 168.77,-55 267.34,-25.81 585.23,-14.4 689.96,-11.38"/>
<polygon fill="#63b8ff" stroke="#63b8ff" points="690.08,-14.88 699.98,-11.1 689.89,-7.88 690.08,-14.88"/>
</g>
<!-- Node20 -->
<g id="node14" class="node">
<title>Node20</title>
<g id="a_node14"><a xlink:title=" ">
<polygon fill="#e0e0e0" stroke="#999999" points="901.77,-145.5 841.77,-145.5 841.77,-126.5 901.77,-126.5 901.77,-145.5"/>
<text text-anchor="middle" x="871.77" y="-133.5" font-family="Helvetica,sans-Serif" font-size="10.00">iostream</text>
</a>
</g>
</g>
<!-- Node1&#45;&gt;Node20 -->
<g id="edge163" class="edge">
<title>Node1&#45;&gt;Node20</title>
<path fill="none" stroke="#63b8ff" d="M1461.74,-465.5C1192.05,-466.58 212.77,-461.8 212.77,-335 212.77,-335 212.77,-335 212.77,-267 212.77,-192.62 288.66,-208.83 359.77,-187 447.89,-159.95 726.76,-144.01 831.5,-138.86"/>
<polygon fill="#63b8ff" stroke="#63b8ff" points="831.84,-142.34 841.66,-138.36 831.5,-135.35 831.84,-142.34"/>
</g>
<!-- Node15 -->
<g id="node15" class="node">
<title>Node15</title>
<g id="a_node15"><a xlink:title=" ">
<polygon fill="#e0e0e0" stroke="#999999" points="1680.77,-145.5 1638.77,-145.5 1638.77,-126.5 1680.77,-126.5 1680.77,-145.5"/>
<text text-anchor="middle" x="1659.77" y="-133.5" font-family="Helvetica,sans-Serif" font-size="10.00">array</text>
</a>
</g>
</g>
<!-- Node1&#45;&gt;Node15 -->
<g id="edge165" class="edge">
<title>Node1&#45;&gt;Node15</title>
<path fill="none" stroke="#63b8ff" d="M1538.94,-450.99C1558,-421.25 1602.19,-349.11 1626.77,-283 1643.17,-238.9 1652.88,-184.15 1657.16,-155.87"/>
<polygon fill="#63b8ff" stroke="#63b8ff" points="1660.65,-156.19 1658.62,-145.79 1653.72,-155.18 1660.65,-156.19"/>
</g>
<!-- Node27 -->
<g id="node19" class="node">
<title>Node27</title>
<g id="a_node19"><a xlink:title=" ">
<polygon fill="#e0e0e0" stroke="#999999" points="1530.77,-145.5 1478.77,-145.5 1478.77,-126.5 1530.77,-126.5 1530.77,-145.5"/>
<text text-anchor="middle" x="1504.77" y="-133.5" font-family="Helvetica,sans-Serif" font-size="10.00">cassert</text>
</a>
</g>
</g>
<!-- Node1&#45;&gt;Node27 -->
<g id="edge162" class="edge">
<title>Node1&#45;&gt;Node27</title>
<path fill="none" stroke="#63b8ff" d="M1519.59,-450.78C1499.04,-421.21 1452.85,-350.24 1432.77,-283 1420.54,-242.04 1406.26,-224.51 1426.77,-187 1436.12,-169.89 1454.11,-157.78 1470.45,-149.76"/>
<polygon fill="#63b8ff" stroke="#63b8ff" points="1472.15,-152.83 1479.81,-145.51 1469.25,-146.46 1472.15,-152.83"/>
</g>
<!-- Node29 -->
<g id="node21" class="node">
<title>Node29</title>
<g id="a_node21"><a xlink:title=" ">
<polygon fill="#e0e0e0" stroke="#999999" points="468.77,-211.5 430.77,-211.5 430.77,-192.5 468.77,-192.5 468.77,-211.5"/>
<text text-anchor="middle" x="449.77" y="-199.5" font-family="Helvetica,sans-Serif" font-size="10.00">map</text>
</a>
</g>
</g>
<!-- Node1&#45;&gt;Node29 -->
<g id="edge166" class="edge">
<title>Node1&#45;&gt;Node29</title>
<path fill="none" stroke="#63b8ff" d="M1461.62,-465.63C1319.44,-464.74 983,-450.98 724.77,-349 626.23,-310.08 517.38,-245.18 471.77,-216.89"/>
<polygon fill="#63b8ff" stroke="#63b8ff" points="473.61,-213.91 463.27,-211.58 469.9,-219.85 473.61,-213.91"/>
</g>
<!-- Node30 -->
<g id="node22" class="node">
<title>Node30</title>
<g id="a_node22"><a xlink:href="_lagrange_basis3d_8hpp.html" target="_top" xlink:title=" ">
<polygon fill="white" stroke="#666666" points="854.27,-343.5 733.27,-343.5 733.27,-324.5 854.27,-324.5 854.27,-343.5"/>
<text text-anchor="middle" x="793.77" y="-331.5" font-family="Helvetica,sans-Serif" font-size="10.00">LagrangeBasis3d.hpp</text>
</a>
</g>
</g>
<!-- Node1&#45;&gt;Node30 -->
<g id="edge37" class="edge">
<title>Node1&#45;&gt;Node30</title>
<path fill="none" stroke="#63b8ff" d="M1461.72,-460C1376.74,-453.1 1227.16,-438.71 1100.77,-415 1002.21,-396.51 888.56,-363.85 831.14,-346.54"/>
<polygon fill="#63b8ff" stroke="#63b8ff" points="832,-343.14 821.42,-343.59 829.97,-349.84 832,-343.14"/>
</g>
<!-- Node35 -->
<g id="node25" class="node">
<title>Node35</title>
<g id="a_node25"><a xlink:href="_mesh_nodes_8hpp.html" target="_top" xlink:title=" ">
<polygon fill="white" stroke="#666666" points="1312.77,-211.5 1144.77,-211.5 1144.77,-192.5 1312.77,-192.5 1312.77,-211.5"/>
<text text-anchor="middle" x="1228.77" y="-199.5" font-family="Helvetica,sans-Serif" font-size="10.00">polyfem/mesh/MeshNodes.hpp</text>
</a>
</g>
</g>
<!-- Node1&#45;&gt;Node35 -->
<g id="edge156" class="edge">
<title>Node1&#45;&gt;Node35</title>
<path fill="none" stroke="#63b8ff" d="M1461.66,-462.11C1387.84,-457.44 1276.8,-445.43 1248.77,-415 1198.86,-360.82 1214.53,-262.54 1223.93,-221.64"/>
<polygon fill="#63b8ff" stroke="#63b8ff" points="1227.38,-222.25 1226.35,-211.71 1220.58,-220.59 1227.38,-222.25"/>
</g>
<!-- Node36 -->
<g id="node26" class="node">
<title>Node36</title>
<g id="a_node26"><a xlink:href="_quadratic_b_spline3d_8hpp.html" target="_top" xlink:title=" ">
<polygon fill="white" stroke="#666666" points="1617.77,-277.5 1441.77,-277.5 1441.77,-258.5 1617.77,-258.5 1617.77,-277.5"/>
<text text-anchor="middle" x="1529.77" y="-265.5" font-family="Helvetica,sans-Serif" font-size="10.00">function/QuadraticBSpline3d.hpp</text>
</a>
</g>
</g>
<!-- Node1&#45;&gt;Node36 -->
<g id="edge61" class="edge">
<title>Node1&#45;&gt;Node36</title>
<path fill="none" stroke="#63b8ff" d="M1529.77,-450.9C1529.77,-416.31 1529.77,-327.17 1529.77,-287.97"/>
<polygon fill="#63b8ff" stroke="#63b8ff" points="1533.27,-287.73 1529.77,-277.73 1526.27,-287.73 1533.27,-287.73"/>
</g>
<!-- Node38 -->
<g id="node28" class="node">
<title>Node38</title>
<g id="a_node28"><a xlink:href="_hex_quadrature_8hpp.html" target="_top" xlink:title=" ">
<polygon fill="white" stroke="#666666" points="1772.27,-349 1657.27,-349 1657.27,-319 1772.27,-319 1772.27,-349"/>
<text text-anchor="start" x="1665.27" y="-337" font-family="Helvetica,sans-Serif" font-size="10.00">polyfem/quadrature</text>
<text text-anchor="middle" x="1714.77" y="-326" font-family="Helvetica,sans-Serif" font-size="10.00">/HexQuadrature.hpp</text>
</a>
</g>
</g>
<!-- Node1&#45;&gt;Node38 -->
<g id="edge69" class="edge">
<title>Node1&#45;&gt;Node38</title>
<path fill="none" stroke="#63b8ff" d="M1572.55,-450.97C1594.71,-442.54 1621.49,-430.42 1642.77,-415 1664.93,-398.94 1685.3,-375.07 1698.68,-357.58"/>
<polygon fill="#63b8ff" stroke="#63b8ff" points="1701.83,-359.2 1705.01,-349.09 1696.22,-355.02 1701.83,-359.2"/>
</g>
<!-- Node39 -->
<g id="node29" class="node">
<title>Node39</title>
<g id="a_node29"><a xlink:href="_assembler_utils_8hpp.html" target="_top" xlink:title=" ">
<polygon fill="white" stroke="#666666" points="2947.77,-415 2781.77,-415 2781.77,-385 2947.77,-385 2947.77,-415"/>
<text text-anchor="start" x="2789.77" y="-403" font-family="Helvetica,sans-Serif" font-size="10.00">polyfem/assembler/Assembler</text>
<text text-anchor="middle" x="2864.77" y="-392" font-family="Helvetica,sans-Serif" font-size="10.00">Utils.hpp</text>
</a>
</g>
</g>
<!-- Node1&#45;&gt;Node39 -->
<g id="edge71" class="edge">
<title>Node1&#45;&gt;Node39</title>
<path fill="none" stroke="#63b8ff" d="M1597.81,-461.74C1818.84,-451.14 2517.04,-417.67 2771.13,-405.49"/>
<polygon fill="#63b8ff" stroke="#63b8ff" points="2771.62,-408.97 2781.44,-404.99 2771.28,-401.98 2771.62,-408.97"/>
</g>
<!-- Node78 -->
<g id="node48" class="node">
<title>Node78</title>
<g id="a_node48"><a xlink:title=" ">
<polygon fill="#e0e0e0" stroke="#999999" points="3784.77,-409.5 3636.77,-409.5 3636.77,-390.5 3784.77,-390.5 3784.77,-409.5"/>
<text text-anchor="middle" x="3710.77" y="-397.5" font-family="Helvetica,sans-Serif" font-size="10.00">polysolve/LinearSolver.hpp</text>
</a>
</g>
</g>
<!-- Node1&#45;&gt;Node78 -->
<g id="edge155" class="edge">
<title>Node1&#45;&gt;Node78</title>
<path fill="none" stroke="#63b8ff" d="M1597.8,-464.6C1910.99,-462.58 3216.12,-452.04 3622.77,-415 3633.16,-414.05 3644.19,-412.63 3654.79,-411.06"/>
<polygon fill="#63b8ff" stroke="#63b8ff" points="3655.44,-414.5 3664.79,-409.51 3654.37,-407.58 3655.44,-414.5"/>
</g>
<!-- Node79 -->
<g id="node49" class="node">
<title>Node79</title>
<g id="a_node49"><a xlink:href="auto__q__bases_8hpp.html" target="_top" xlink:title=" ">
<polygon fill="white" stroke="#666666" points="1382.27,-415 1257.27,-415 1257.27,-385 1382.27,-385 1382.27,-415"/>
<text text-anchor="start" x="1265.27" y="-403" font-family="Helvetica,sans-Serif" font-size="10.00">polyfem/autogen/auto</text>
<text text-anchor="middle" x="1319.77" y="-392" font-family="Helvetica,sans-Serif" font-size="10.00">_q_bases.hpp</text>
</a>
</g>
</g>
<!-- Node1&#45;&gt;Node79 -->
<g id="edge159" class="edge">
<title>Node1&#45;&gt;Node79</title>
<path fill="none" stroke="#63b8ff" d="M1483.69,-450.95C1451.82,-441.24 1409.25,-428.27 1375.47,-417.98"/>
<polygon fill="#63b8ff" stroke="#63b8ff" points="1376.33,-414.58 1365.75,-415.01 1374.29,-421.28 1376.33,-414.58"/>
</g>
<!-- Node80 -->
<g id="node50" class="node">
<title>Node80</title>
<g id="a_node50"><a xlink:title=" ">
<polygon fill="#e0e0e0" stroke="#999999" points="4060.77,-409.5 4004.77,-409.5 4004.77,-390.5 4060.77,-390.5 4060.77,-409.5"/>
<text text-anchor="middle" x="4032.77" y="-397.5" font-family="Helvetica,sans-Serif" font-size="10.00">numeric</text>
</a>
</g>
</g>
<!-- Node1&#45;&gt;Node80 -->
<g id="edge167" class="edge">
<title>Node1&#45;&gt;Node80</title>
<path fill="none" stroke="#63b8ff" d="M1597.77,-464.84C1969.69,-463.8 3749.62,-456.65 3990.77,-415 3994.29,-414.39 3997.91,-413.55 4001.48,-412.57"/>
<polygon fill="#63b8ff" stroke="#63b8ff" points="4002.77,-415.83 4011.29,-409.54 4000.71,-409.14 4002.77,-415.83"/>
</g>
<!-- Node3 -->
<g id="node3" class="node">
<title>Node3</title>
<g id="a_node3"><a xlink:href="_mesh3_d_8hpp.html" target="_top" xlink:title=" ">
<polygon fill="#fff0f0" stroke="red" points="812.27,-217 681.27,-217 681.27,-187 812.27,-187 812.27,-217"/>
<text text-anchor="start" x="689.27" y="-205" font-family="Helvetica,sans-Serif" font-size="10.00">polyfem/mesh/mesh3D</text>
<text text-anchor="middle" x="746.77" y="-194" font-family="Helvetica,sans-Serif" font-size="10.00">/Mesh3D.hpp</text>
</a>
</g>
</g>
<!-- Node2&#45;&gt;Node3 -->
<g id="edge2" class="edge">
<title>Node2&#45;&gt;Node3</title>
<path fill="none" stroke="#63b8ff" d="M999.69,-258.44C954.1,-248.44 877.71,-231.7 820.79,-219.22"/>
<polygon fill="#63b8ff" stroke="#63b8ff" points="821.28,-215.75 810.76,-217.02 819.78,-222.58 821.28,-215.75"/>
</g>
<!-- Node12 -->
<g id="node10" class="node">
<title>Node12</title>
<g id="a_node10"><a xlink:title=" ">
<polygon fill="#e0e0e0" stroke="#999999" points="2383.27,-19 2306.27,-19 2306.27,0 2383.27,0 2383.27,-19"/>
<text text-anchor="middle" x="2344.77" y="-7" font-family="Helvetica,sans-Serif" font-size="10.00">Eigen/Dense</text>
</a>
</g>
</g>
<!-- Node2&#45;&gt;Node12 -->
<g id="edge34" class="edge">
<title>Node2&#45;&gt;Node12</title>
<path fill="none" stroke="#63b8ff" d="M1045.3,-258.3C1074.99,-218.77 1195.98,-57.99 1201.77,-55 1251,-29.55 2083.49,-14.65 2295.8,-11.25"/>
<polygon fill="#63b8ff" stroke="#63b8ff" points="2296.07,-14.75 2306.02,-11.09 2295.96,-7.75 2296.07,-14.75"/>
</g>
<!-- Node2&#45;&gt;Node16 -->
<g id="edge35" class="edge">
<title>Node2&#45;&gt;Node16</title>
<path fill="none" stroke="#63b8ff" d="M1045.03,-258.46C1055.43,-243.14 1073.78,-210.41 1059.77,-187 992.84,-75.13 828.68,-30.76 757.55,-16.37"/>
<polygon fill="#63b8ff" stroke="#63b8ff" points="757.84,-12.86 747.36,-14.38 756.5,-19.73 757.84,-12.86"/>
</g>
<!-- Node21 -->
<g id="node16" class="node">
<title>Node21</title>
<g id="a_node16"><a xlink:href="_element_bases_8hpp.html" target="_top" xlink:title=" ">
<polygon fill="#fff0f0" stroke="red" points="2374.27,-211.5 2195.27,-211.5 2195.27,-192.5 2374.27,-192.5 2374.27,-211.5"/>
<text text-anchor="middle" x="2284.77" y="-199.5" font-family="Helvetica,sans-Serif" font-size="10.00">polyfem/basis/ElementBases.hpp</text>
</a>
</g>
</g>
<!-- Node2&#45;&gt;Node21 -->
<g id="edge22" class="edge">
<title>Node2&#45;&gt;Node21</title>
<path fill="none" stroke="#63b8ff" d="M1092.02,-265.14C1248.32,-259.54 1719.43,-241.72 2109.77,-217 2134.1,-215.46 2160.31,-213.51 2184.85,-211.57"/>
<polygon fill="#63b8ff" stroke="#63b8ff" points="2185.2,-215.05 2194.89,-210.77 2184.64,-208.07 2185.2,-215.05"/>
</g>
<!-- Node26 -->
<g id="node18" class="node">
<title>Node26</title>
<g id="a_node18"><a xlink:href="_local_boundary_8hpp.html" target="_top" xlink:title=" ">
<polygon fill="white" stroke="#666666" points="1050.77,-211.5 868.77,-211.5 868.77,-192.5 1050.77,-192.5 1050.77,-211.5"/>
<text text-anchor="middle" x="959.77" y="-199.5" font-family="Helvetica,sans-Serif" font-size="10.00">polyfem/mesh/LocalBoundary.hpp</text>
</a>
</g>
</g>
<!-- Node2&#45;&gt;Node26 -->
<g id="edge27" class="edge">
<title>Node2&#45;&gt;Node26</title>
<path fill="none" stroke="#63b8ff" d="M1028.12,-258.37C1015.39,-248.06 993.9,-230.65 978.4,-218.09"/>
<polygon fill="#63b8ff" stroke="#63b8ff" points="980.48,-215.27 970.51,-211.7 976.08,-220.71 980.48,-215.27"/>
</g>
<!-- Node28 -->
<g id="node20" class="node">
<title>Node28</title>
<g id="a_node20"><a xlink:href="_interface_data_8hpp.html" target="_top" xlink:title=" ">
<polygon fill="white" stroke="#666666" points="662.77,-211.5 486.77,-211.5 486.77,-192.5 662.77,-192.5 662.77,-211.5"/>
<text text-anchor="middle" x="574.77" y="-199.5" font-family="Helvetica,sans-Serif" font-size="10.00">polyfem/basis/InterfaceData.hpp</text>
</a>
</g>
</g>
<!-- Node2&#45;&gt;Node28 -->
<g id="edge32" class="edge">
<title>Node2&#45;&gt;Node28</title>
<path fill="none" stroke="#63b8ff" d="M985.72,-259.86C914.51,-250.24 784.08,-232.55 672.77,-217 663.49,-215.7 653.71,-214.32 644.07,-212.95"/>
<polygon fill="#63b8ff" stroke="#63b8ff" points="644.49,-209.48 634.1,-211.54 643.51,-216.41 644.49,-209.48"/>
</g>
<!-- Node2&#45;&gt;Node29 -->
<g id="edge36" class="edge">
<title>Node2&#45;&gt;Node29</title>
<path fill="none" stroke="#63b8ff" d="M985.63,-263.4C855.11,-254.39 525.87,-230.64 477.77,-217 476.51,-216.64 475.23,-216.23 473.96,-215.77"/>
<polygon fill="#63b8ff" stroke="#63b8ff" points="475.03,-212.42 464.47,-211.64 472.24,-218.84 475.03,-212.42"/>
</g>
<!-- Node3&#45;&gt;Node4 -->
<g id="edge3" class="edge">
<title>Node3&#45;&gt;Node4</title>
<path fill="none" stroke="#63b8ff" d="M759.54,-186.9C778.96,-165.87 815.47,-127.99 832.77,-121 930.5,-81.5 2624.42,-88.39 2729.77,-85 2810.61,-82.4 2903.29,-78.02 2965.89,-74.84"/>
<polygon fill="#63b8ff" stroke="#63b8ff" points="2966.25,-78.33 2976.06,-74.33 2965.89,-71.34 2966.25,-78.33"/>
</g>
<!-- Node7 -->
<g id="node7" class="node">
<title>Node7</title>
<g id="a_node7"><a xlink:href="_mesh_8hpp.html" target="_top" xlink:title=" ">
<polygon fill="#fff0f0" stroke="red" points="1384.27,-145.5 1247.27,-145.5 1247.27,-126.5 1384.27,-126.5 1384.27,-145.5"/>
<text text-anchor="middle" x="1315.77" y="-133.5" font-family="Helvetica,sans-Serif" font-size="10.00">polyfem/mesh/Mesh.hpp</text>
</a>
</g>
</g>
<!-- Node3&#45;&gt;Node7 -->
<g id="edge6" class="edge">
<title>Node3&#45;&gt;Node7</title>
<path fill="none" stroke="#63b8ff" d="M812.48,-192.7C827.98,-190.79 844.46,-188.79 859.77,-187 992.06,-171.55 1146.1,-154.95 1237.03,-145.29"/>
<polygon fill="#63b8ff" stroke="#63b8ff" points="1237.41,-148.77 1246.98,-144.24 1236.67,-141.81 1237.41,-148.77"/>
</g>
<!-- Node3&#45;&gt;Node12 -->
<g id="edge19" class="edge">
<title>Node3&#45;&gt;Node12</title>
<path fill="none" stroke="#63b8ff" d="M751.79,-187C758.59,-169.68 772.17,-140.15 791.77,-121 836.43,-77.37 855.44,-71.06 915.77,-55 1051.23,-18.95 2060.37,-11.87 2295.78,-10.71"/>
<polygon fill="#63b8ff" stroke="#63b8ff" points="2296.09,-14.2 2306.08,-10.66 2296.06,-7.2 2296.09,-14.2"/>
</g>
<!-- Node18 -->
<g id="node11" class="node">
<title>Node18</title>
<g id="a_node11"><a xlink:href="_navigation3_d_8hpp.html" target="_top" xlink:title=" ">
<polygon fill="white" stroke="#666666" points="595.77,-145.5 491.77,-145.5 491.77,-126.5 595.77,-126.5 595.77,-145.5"/>
<text text-anchor="middle" x="543.77" y="-133.5" font-family="Helvetica,sans-Serif" font-size="10.00">Navigation3D.hpp</text>
</a>
</g>
</g>
<!-- Node3&#45;&gt;Node18 -->
<g id="edge13" class="edge">
<title>Node3&#45;&gt;Node18</title>
<path fill="none" stroke="#63b8ff" d="M702.22,-186.95C665.68,-175.43 614.58,-159.32 580.39,-148.54"/>
<polygon fill="#63b8ff" stroke="#63b8ff" points="581.38,-145.19 570.79,-145.52 579.27,-151.86 581.38,-145.19"/>
</g>
<!-- Node19 -->
<g id="node12" class="node">
<title>Node19</title>
<g id="a_node12"><a xlink:href="_mesh3_d_storage_8hpp.html" target="_top" xlink:title=" ">
<polygon fill="white" stroke="#666666" points="671.27,-79.5 556.27,-79.5 556.27,-60.5 671.27,-60.5 671.27,-79.5"/>
<text text-anchor="middle" x="613.77" y="-67.5" font-family="Helvetica,sans-Serif" font-size="10.00">Mesh3DStorage.hpp</text>
</a>
</g>
</g>
<!-- Node3&#45;&gt;Node19 -->
<g id="edge17" class="edge">
<title>Node3&#45;&gt;Node19</title>
<path fill="none" stroke="#63b8ff" d="M728,-186.82C715.61,-177.17 699.24,-163.86 685.77,-151 664.14,-130.34 641.4,-104.23 627.41,-87.57"/>
<polygon fill="#63b8ff" stroke="#63b8ff" points="630.02,-85.25 620.93,-79.8 624.64,-89.72 630.02,-85.25"/>
</g>
<!-- Node3&#45;&gt;Node16 -->
<g id="edge20" class="edge">
<title>Node3&#45;&gt;Node16</title>
<path fill="none" stroke="#63b8ff" d="M738.18,-186.71C732.87,-177.01 726.55,-163.69 723.77,-151 714.41,-108.26 718.17,-56.43 721.26,-29.24"/>
<polygon fill="#63b8ff" stroke="#63b8ff" points="724.74,-29.54 722.5,-19.19 717.8,-28.69 724.74,-29.54"/>
</g>
<!-- Node3&#45;&gt;Node20 -->
<g id="edge18" class="edge">
<title>Node3&#45;&gt;Node20</title>
<path fill="none" stroke="#63b8ff" d="M774.2,-186.95C795.64,-175.98 825.22,-160.83 846.17,-150.11"/>
<polygon fill="#63b8ff" stroke="#63b8ff" points="847.83,-153.19 855.14,-145.52 844.64,-146.96 847.83,-153.19"/>
</g>
<!-- Node3&#45;&gt;Node15 -->
<g id="edge21" class="edge">
<title>Node3&#45;&gt;Node15</title>
<path fill="none" stroke="#63b8ff" d="M812.42,-192.07C827.92,-190.19 844.41,-188.36 859.77,-187 1161.24,-160.38 1238.21,-176.55 1539.77,-151 1569.99,-148.44 1604.36,-144.3 1628.55,-141.19"/>
<polygon fill="#63b8ff" stroke="#63b8ff" points="1629.11,-144.65 1638.57,-139.88 1628.2,-137.71 1629.11,-144.65"/>
</g>
<!-- Node4&#45;&gt;Node5 -->
<g id="edge4" class="edge">
<title>Node4&#45;&gt;Node5</title>
<path fill="none" stroke="#63b8ff" d="M3002.13,-60.49C2957.52,-50.14 2882.14,-32.64 2833.43,-21.33"/>
<polygon fill="#63b8ff" stroke="#63b8ff" points="2833.99,-17.87 2823.46,-19.02 2832.41,-24.69 2833.99,-17.87"/>
</g>
<!-- Node6 -->
<g id="node6" class="node">
<title>Node6</title>
<g id="a_node6"><a xlink:title=" ">
<polygon fill="#e0e0e0" stroke="#999999" points="3093.77,-19 2983.77,-19 2983.77,0 3093.77,0 3093.77,-19"/>
<text text-anchor="middle" x="3038.77" y="-7" font-family="Helvetica,sans-Serif" font-size="10.00">nlohmann/json.hpp</text>
</a>
</g>
</g>
<!-- Node4&#45;&gt;Node6 -->
<g id="edge5" class="edge">
<title>Node4&#45;&gt;Node6</title>
<path fill="none" stroke="#63b8ff" d="M3038.77,-60.37C3038.77,-52.25 3038.77,-39.81 3038.77,-29.39"/>
<polygon fill="#63b8ff" stroke="#63b8ff" points="3042.27,-29.17 3038.77,-19.17 3035.27,-29.17 3042.27,-29.17"/>
</g>
<!-- Node7&#45;&gt;Node4 -->
<g id="edge7" class="edge">
<title>Node7&#45;&gt;Node4</title>
<path fill="none" stroke="#63b8ff" d="M1384.31,-127.85C1410.96,-125.31 1441.77,-122.67 1469.77,-121 2029,-87.62 2169.92,-105.68 2729.77,-85 2810.6,-82.01 2903.28,-77.7 2965.88,-74.65"/>
<polygon fill="#63b8ff" stroke="#63b8ff" points="2966.23,-78.13 2976.05,-74.15 2965.89,-71.14 2966.23,-78.13"/>
</g>
<!-- Node8 -->
<g id="node8" class="node">
<title>Node8</title>
<g id="a_node8"><a xlink:href="_navigation_8hpp.html" target="_top" xlink:title=" ">
<polygon fill="#fff0f0" stroke="red" points="1361.27,-85 1230.27,-85 1230.27,-55 1361.27,-55 1361.27,-85"/>
<text text-anchor="start" x="1238.27" y="-73" font-family="Helvetica,sans-Serif" font-size="10.00">polyfem/mesh/mesh2D</text>
<text text-anchor="middle" x="1295.77" y="-62" font-family="Helvetica,sans-Serif" font-size="10.00">/Navigation.hpp</text>
</a>
</g>
</g>
<!-- Node7&#45;&gt;Node8 -->
<g id="edge8" class="edge">
<title>Node7&#45;&gt;Node8</title>
<path fill="none" stroke="#63b8ff" d="M1313.07,-126.37C1310.56,-118.32 1306.69,-105.94 1303.25,-94.93"/>
<polygon fill="#63b8ff" stroke="#63b8ff" points="1306.58,-93.86 1300.26,-85.36 1299.9,-95.95 1306.58,-93.86"/>
</g>
<!-- Node7&#45;&gt;Node11 -->
<g id="edge9" class="edge">
<title>Node7&#45;&gt;Node11</title>
<path fill="none" stroke="#63b8ff" d="M1360,-126.47C1372.49,-124.35 1386.13,-122.31 1398.77,-121 1843.3,-74.84 2380.47,-70.55 2577.01,-70.67"/>
<polygon fill="#63b8ff" stroke="#63b8ff" points="2577.22,-74.17 2587.23,-70.68 2577.23,-67.17 2577.22,-74.17"/>
</g>
<!-- Node7&#45;&gt;Node12 -->
<g id="edge12" class="edge">
<title>Node7&#45;&gt;Node12</title>
<path fill="none" stroke="#63b8ff" d="M1330.23,-126.45C1360.23,-109.23 1431.95,-70.64 1497.77,-55 1650.94,-18.6 2139.2,-11.96 2295.88,-10.76"/>
<polygon fill="#63b8ff" stroke="#63b8ff" points="2296.17,-14.26 2306.14,-10.69 2296.12,-7.26 2296.17,-14.26"/>
</g>
<!-- Node11&#45;&gt;Node5 -->
<g id="edge11" class="edge">
<title>Node11&#45;&gt;Node5</title>
<path fill="none" stroke="#63b8ff" d="M2673.11,-60.49C2695.47,-50.66 2732.48,-34.38 2758.17,-23.08"/>
<polygon fill="#63b8ff" stroke="#63b8ff" points="2759.66,-26.25 2767.41,-19.02 2756.85,-19.84 2759.66,-26.25"/>
</g>
<!-- Node11&#45;&gt;Node12 -->
<g id="edge10" class="edge">
<title>Node11&#45;&gt;Node12</title>
<path fill="none" stroke="#63b8ff" d="M2608.84,-60.49C2551.4,-49.62 2452.34,-30.86 2393.25,-19.68"/>
<polygon fill="#63b8ff" stroke="#63b8ff" points="2393.89,-16.24 2383.41,-17.81 2392.58,-23.11 2393.89,-16.24"/>
</g>
<!-- Node18&#45;&gt;Node19 -->
<g id="edge14" class="edge">
<title>Node18&#45;&gt;Node19</title>
<path fill="none" stroke="#63b8ff" d="M553.21,-126.37C564.32,-116.21 582.97,-99.16 596.65,-86.65"/>
<polygon fill="#63b8ff" stroke="#63b8ff" points="599.01,-89.24 604.03,-79.91 594.29,-84.07 599.01,-89.24"/>
</g>
<!-- Node19&#45;&gt;Node12 -->
<g id="edge16" class="edge">
<title>Node19&#45;&gt;Node12</title>
<path fill="none" stroke="#63b8ff" d="M671.49,-63.05C701.39,-60.18 738.51,-56.94 771.77,-55 1371.99,-19.95 2102.73,-12.28 2296,-10.81"/>
<polygon fill="#63b8ff" stroke="#63b8ff" points="2296.14,-14.31 2306.11,-10.74 2296.09,-7.31 2296.14,-14.31"/>
</g>
<!-- Node19&#45;&gt;Node16 -->
<g id="edge15" class="edge">
<title>Node19&#45;&gt;Node16</title>
<path fill="none" stroke="#63b8ff" d="M630,-60.37C648.04,-50.78 677.39,-35.17 698.45,-23.97"/>
<polygon fill="#63b8ff" stroke="#63b8ff" points="700.29,-26.95 707.47,-19.17 697,-20.77 700.29,-26.95"/>
</g>
<!-- Node21&#45;&gt;Node7 -->
<g id="edge25" class="edge">
<title>Node21&#45;&gt;Node7</title>
<path fill="none" stroke="#63b8ff" d="M2194.87,-193.4C2167.55,-191.2 2137.44,-188.88 2109.77,-187 1825.54,-167.64 1753.9,-171.9 1469.77,-151 1445.29,-149.2 1418.65,-146.9 1394.52,-144.69"/>
<polygon fill="#63b8ff" stroke="#63b8ff" points="1394.62,-141.18 1384.34,-143.74 1393.98,-148.15 1394.62,-141.18"/>
</g>
<!-- Node21&#45;&gt;Node16 -->
<g id="edge26" class="edge">
<title>Node21&#45;&gt;Node16</title>
<path fill="none" stroke="#63b8ff" d="M2232.22,-192.46C2175.29,-183.04 2081.87,-167.07 2001.77,-151 1811.06,-112.74 1767.47,-81.51 1574.77,-55 1259.56,-11.64 873.37,-9.73 757.91,-10.22"/>
<polygon fill="#63b8ff" stroke="#63b8ff" points="757.58,-6.73 747.6,-10.28 757.62,-13.73 757.58,-6.73"/>
</g>
<!-- Node23 -->
<g id="node17" class="node">
<title>Node23</title>
<g id="a_node17"><a xlink:href="_quadrature_8hpp.html" target="_top" xlink:title=" ">
<polygon fill="white" stroke="#666666" points="2195.27,-151 2082.27,-151 2082.27,-121 2195.27,-121 2195.27,-151"/>
<text text-anchor="start" x="2090.27" y="-139" font-family="Helvetica,sans-Serif" font-size="10.00">polyfem/quadrature</text>
<text text-anchor="middle" x="2138.77" y="-128" font-family="Helvetica,sans-Serif" font-size="10.00">/Quadrature.hpp</text>
</a>
</g>
</g>
<!-- Node21&#45;&gt;Node23 -->
<g id="edge23" class="edge">
<title>Node21&#45;&gt;Node23</title>
<path fill="none" stroke="#63b8ff" d="M2265.08,-192.37C2243.5,-182.91 2208.24,-167.45 2180.45,-155.27"/>
<polygon fill="#63b8ff" stroke="#63b8ff" points="2181.54,-151.92 2170.97,-151.12 2178.73,-158.34 2181.54,-151.92"/>
</g>
<!-- Node23&#45;&gt;Node12 -->
<g id="edge24" class="edge">
<title>Node23&#45;&gt;Node12</title>
<path fill="none" stroke="#63b8ff" d="M2162,-120.96C2201.75,-96.94 2282.32,-48.24 2321.85,-24.35"/>
<polygon fill="#63b8ff" stroke="#63b8ff" points="2323.78,-27.28 2330.53,-19.11 2320.16,-21.29 2323.78,-27.28"/>
</g>
<!-- Node26&#45;&gt;Node16 -->
<g id="edge29" class="edge">
<title>Node26&#45;&gt;Node16</title>
<path fill="none" stroke="#63b8ff" d="M956.6,-192.27C950.3,-176.06 934.71,-141.12 910.77,-121 877.48,-93.01 857.55,-106.55 819.77,-85 789.74,-67.87 758.81,-42.14 740.44,-25.84"/>
<polygon fill="#63b8ff" stroke="#63b8ff" points="742.71,-23.17 732.94,-19.08 738.03,-28.37 742.71,-23.17"/>
</g>
<!-- Node26&#45;&gt;Node20 -->
<g id="edge30" class="edge">
<title>Node26&#45;&gt;Node20</title>
<path fill="none" stroke="#63b8ff" d="M947.9,-192.37C933.6,-181.97 909.34,-164.32 892.05,-151.75"/>
<polygon fill="#63b8ff" stroke="#63b8ff" points="893.88,-148.75 883.73,-145.7 889.76,-154.41 893.88,-148.75"/>
</g>
<!-- Node26&#45;&gt;Node15 -->
<g id="edge28" class="edge">
<title>Node26&#45;&gt;Node15</title>
<path fill="none" stroke="#63b8ff" d="M1050.78,-193.49C1189.51,-181.99 1447.51,-160.36 1539.77,-151 1569.95,-147.94 1604.32,-143.87 1628.52,-140.91"/>
<polygon fill="#63b8ff" stroke="#63b8ff" points="1629.05,-144.37 1638.55,-139.67 1628.2,-137.42 1629.05,-144.37"/>
</g>
<!-- Node26&#45;&gt;Node27 -->
<g id="edge31" class="edge">
<title>Node26&#45;&gt;Node27</title>
<path fill="none" stroke="#63b8ff" d="M1035.85,-192.49C1122.52,-182.73 1268.4,-166.13 1393.77,-151 1418.79,-147.98 1446.97,-144.43 1468.67,-141.65"/>
<polygon fill="#63b8ff" stroke="#63b8ff" points="1469.29,-145.1 1478.76,-140.36 1468.4,-138.16 1469.29,-145.1"/>
</g>
<!-- Node28&#45;&gt;Node16 -->
<g id="edge33" class="edge">
<title>Node28&#45;&gt;Node16</title>
<path fill="none" stroke="#63b8ff" d="M541.41,-192.35C520.58,-185.03 495.41,-172.25 482.77,-151 475.96,-139.54 477.72,-133.34 482.77,-121 515.79,-40.41 631.67,-18.58 689.87,-12.68"/>
<polygon fill="#63b8ff" stroke="#63b8ff" points="690.4,-16.15 700.04,-11.76 689.76,-9.18 690.4,-16.15"/>
</g>
<!-- Node30&#45;&gt;Node12 -->
<g id="edge59" class="edge">
<title>Node30&#45;&gt;Node12</title>
<path fill="none" stroke="#63b8ff" d="M799.09,-324.34C805.01,-314.51 814.68,-297.92 821.77,-283 841.47,-241.56 827.67,-219.79 859.77,-187 912.73,-132.92 1099.87,-71.37 1173.77,-55 1284.32,-30.51 2088.2,-14.96 2295.9,-11.32"/>
<polygon fill="#63b8ff" stroke="#63b8ff" points="2296.25,-14.82 2306.19,-11.14 2296.13,-7.82 2296.25,-14.82"/>
</g>
<!-- Node30&#45;&gt;Node18 -->
<g id="edge52" class="edge">
<title>Node30&#45;&gt;Node18</title>
<path fill="none" stroke="#63b8ff" d="M733.09,-331.56C601.98,-327.84 301.44,-315.78 269.77,-283 240.1,-252.29 238.38,-219.76 265.77,-187 292.74,-154.75 408.26,-143.27 481.64,-139.21"/>
<polygon fill="#63b8ff" stroke="#63b8ff" points="481.89,-142.7 491.7,-138.68 481.53,-135.71 481.89,-142.7"/>
</g>
<!-- Node30&#45;&gt;Node16 -->
<g id="edge60" class="edge">
<title>Node30&#45;&gt;Node16</title>
<path fill="none" stroke="#63b8ff" d="M733.24,-333.63C631.25,-333.32 419.38,-326.83 246.77,-283 159.55,-260.85 60.77,-292.99 60.77,-203 60.77,-203 60.77,-203 60.77,-135 60.77,-70.29 554.94,-24.52 690.01,-13.21"/>
<polygon fill="#63b8ff" stroke="#63b8ff" points="690.5,-16.69 700.17,-12.37 689.92,-9.71 690.5,-16.69"/>
</g>
<!-- Node30&#45;&gt;Node21 -->
<g id="edge38" class="edge">
<title>Node30&#45;&gt;Node21</title>
<path fill="none" stroke="#63b8ff" d="M854.49,-330.63C992.1,-324.97 1338.2,-309.18 1626.77,-283 1841.7,-263.5 2094.84,-229.64 2214.87,-212.92"/>
<polygon fill="#63b8ff" stroke="#63b8ff" points="2215.6,-216.35 2225.02,-211.5 2214.63,-209.42 2215.6,-216.35"/>
</g>
<!-- Node30&#45;&gt;Node26 -->
<g id="edge50" class="edge">
<title>Node30&#45;&gt;Node26</title>
<path fill="none" stroke="#63b8ff" d="M804.66,-324.47C832.32,-302.81 905.57,-245.45 940.59,-218.02"/>
<polygon fill="#63b8ff" stroke="#63b8ff" points="942.91,-220.65 948.62,-211.73 938.59,-215.14 942.91,-220.65"/>
</g>
<!-- Node30&#45;&gt;Node28 -->
<g id="edge51" class="edge">
<title>Node30&#45;&gt;Node28</title>
<path fill="none" stroke="#63b8ff" d="M766.74,-324.39C741.49,-315.77 703.22,-301.18 672.77,-283 641.4,-264.27 609.41,-236.09 590.86,-218.66"/>
<polygon fill="#63b8ff" stroke="#63b8ff" points="593.2,-216.06 583.55,-211.69 588.37,-221.13 593.2,-216.06"/>
</g>
<!-- Node31 -->
<g id="node23" class="node">
<title>Node31</title>
<g id="a_node23"><a xlink:href="_c_mesh3_d_8hpp.html" target="_top" xlink:title=" ">
<polygon fill="#fff0f0" stroke="red" points="410.27,-283 279.27,-283 279.27,-253 410.27,-253 410.27,-283"/>
<text text-anchor="start" x="287.27" y="-271" font-family="Helvetica,sans-Serif" font-size="10.00">polyfem/mesh/mesh3D</text>
<text text-anchor="middle" x="344.77" y="-260" font-family="Helvetica,sans-Serif" font-size="10.00">/CMesh3D.hpp</text>
</a>
</g>
</g>
<!-- Node30&#45;&gt;Node31 -->
<g id="edge39" class="edge">
<title>Node30&#45;&gt;Node31</title>
<path fill="none" stroke="#63b8ff" d="M733.68,-324.44C652.69,-312.89 508.5,-292.34 420.27,-279.76"/>
<polygon fill="#63b8ff" stroke="#63b8ff" points="420.72,-276.29 410.33,-278.34 419.74,-283.22 420.72,-276.29"/>
</g>
<!-- Node32 -->
<g id="node24" class="node">
<title>Node32</title>
<g id="a_node24"><a xlink:href="_n_c_mesh3_d_8hpp.html" target="_top" xlink:title=" ">
<polygon fill="#fff0f0" stroke="red" points="812.27,-283 681.27,-283 681.27,-253 812.27,-253 812.27,-283"/>
<text text-anchor="start" x="689.27" y="-271" font-family="Helvetica,sans-Serif" font-size="10.00">polyfem/mesh/mesh3D</text>
<text text-anchor="middle" x="746.77" y="-260" font-family="Helvetica,sans-Serif" font-size="10.00">/NCMesh3D.hpp</text>
</a>
</g>
</g>
<!-- Node30&#45;&gt;Node32 -->
<g id="edge48" class="edge">
<title>Node30&#45;&gt;Node32</title>
<path fill="none" stroke="#63b8ff" d="M787.43,-324.37C781.28,-315.99 771.68,-302.93 763.36,-291.59"/>
<polygon fill="#63b8ff" stroke="#63b8ff" points="766.06,-289.35 757.32,-283.36 760.41,-293.49 766.06,-289.35"/>
</g>
<!-- Node30&#45;&gt;Node35 -->
<g id="edge53" class="edge">
<title>Node30&#45;&gt;Node35</title>
<path fill="none" stroke="#63b8ff" d="M854.43,-330.19C917.71,-325.66 1018.9,-313.82 1100.77,-283 1142.96,-267.12 1186.25,-236.46 1210.11,-218.05"/>
<polygon fill="#63b8ff" stroke="#63b8ff" points="1212.55,-220.58 1218.26,-211.65 1208.23,-215.07 1212.55,-220.58"/>
</g>
<!-- Node31&#45;&gt;Node3 -->
<g id="edge41" class="edge">
<title>Node31&#45;&gt;Node3</title>
<path fill="none" stroke="#63b8ff" d="M410.33,-257.62C474.23,-248.33 574.4,-233.39 671,-217.1"/>
<polygon fill="#63b8ff" stroke="#63b8ff" points="671.67,-220.53 680.94,-215.41 670.5,-213.63 671.67,-220.53"/>
</g>
<!-- Node31&#45;&gt;Node4 -->
<g id="edge40" class="edge">
<title>Node31&#45;&gt;Node4</title>
<path fill="none" stroke="#63b8ff" d="M342.9,-252.83C341.39,-234.78 341.9,-203.89 359.77,-187 405.05,-144.22 576.28,-160.96 637.77,-151 706.6,-139.85 722.43,-128.34 791.77,-121 1220.12,-75.65 2299.25,-98.75 2729.77,-85 2810.61,-82.42 2903.29,-78.03 2965.89,-74.85"/>
<polygon fill="#63b8ff" stroke="#63b8ff" points="2966.25,-78.34 2976.06,-74.33 2965.89,-71.35 2966.25,-78.34"/>
</g>
<!-- Node31&#45;&gt;Node12 -->
<g id="edge45" class="edge">
<title>Node31&#45;&gt;Node12</title>
<path fill="none" stroke="#63b8ff" d="M338.79,-252.94C332.34,-235.29 324.95,-205.12 340.77,-187 379.71,-142.39 547.67,-166.67 604.77,-151 710.41,-122.01 724.75,-78.34 831.77,-55 977.32,-23.25 2052.08,-12.83 2295.74,-10.87"/>
<polygon fill="#63b8ff" stroke="#63b8ff" points="2296.08,-14.36 2306.05,-10.78 2296.02,-7.36 2296.08,-14.36"/>
</g>
<!-- Node31&#45;&gt;Node18 -->
<g id="edge42" class="edge">
<title>Node31&#45;&gt;Node18</title>
<path fill="none" stroke="#63b8ff" d="M317.15,-252.74C290.01,-236.88 255.31,-210.42 274.77,-187 300.53,-156.01 410.29,-144.14 481.4,-139.65"/>
<polygon fill="#63b8ff" stroke="#63b8ff" points="481.82,-143.13 491.6,-139.04 481.41,-136.15 481.82,-143.13"/>
</g>
<!-- Node31&#45;&gt;Node19 -->
<g id="edge43" class="edge">
<title>Node31&#45;&gt;Node19</title>
<path fill="none" stroke="#63b8ff" d="M307.05,-252.88C291.34,-244.9 274.7,-233.21 265.77,-217 259.34,-205.32 257.97,-197.82 265.77,-187 329.6,-98.44 463.98,-76.47 545.81,-71.62"/>
<polygon fill="#63b8ff" stroke="#63b8ff" points="546.21,-75.1 556.01,-71.09 545.84,-68.11 546.21,-75.1"/>
</g>
<!-- Node31&#45;&gt;Node16 -->
<g id="edge46" class="edge">
<title>Node31&#45;&gt;Node16</title>
<path fill="none" stroke="#63b8ff" d="M300.58,-252.85C283.79,-245.08 266.4,-233.55 256.77,-217 233.16,-176.43 263.39,-149.38 300.77,-121 422.03,-28.96 612.93,-13.31 689.92,-10.85"/>
<polygon fill="#63b8ff" stroke="#63b8ff" points="690.1,-14.35 700,-10.59 689.91,-7.35 690.1,-14.35"/>
</g>
<!-- Node31&#45;&gt;Node20 -->
<g id="edge44" class="edge">
<title>Node31&#45;&gt;Node20</title>
<path fill="none" stroke="#63b8ff" d="M348.13,-252.92C353.38,-234.35 365.42,-202.26 388.77,-187 463.67,-138.06 701.05,-162.54 789.77,-151 803.33,-149.24 818.08,-146.86 831.28,-144.57"/>
<polygon fill="#63b8ff" stroke="#63b8ff" points="832.25,-147.95 841.48,-142.76 831.03,-141.06 832.25,-147.95"/>
</g>
<!-- Node31&#45;&gt;Node15 -->
<g id="edge47" class="edge">
<title>Node31&#45;&gt;Node15</title>
<path fill="none" stroke="#63b8ff" d="M357.37,-252.79C377.04,-230.79 413.62,-190.62 421.77,-187 535.34,-136.51 1415.83,-160.21 1539.77,-151 1570.02,-148.75 1604.38,-144.58 1628.56,-141.37"/>
<polygon fill="#63b8ff" stroke="#63b8ff" points="1629.14,-144.82 1638.58,-140.02 1628.2,-137.89 1629.14,-144.82"/>
</g>
<!-- Node32&#45;&gt;Node3 -->
<g id="edge49" class="edge">
<title>Node32&#45;&gt;Node3</title>
<path fill="none" stroke="#63b8ff" d="M746.77,-252.8C746.77,-245.34 746.77,-235.99 746.77,-227.41"/>
<polygon fill="#63b8ff" stroke="#63b8ff" points="750.27,-227.16 746.77,-217.16 743.27,-227.16 750.27,-227.16"/>
</g>
<!-- Node35&#45;&gt;Node7 -->
<g id="edge54" class="edge">
<title>Node35&#45;&gt;Node7</title>
<path fill="none" stroke="#63b8ff" d="M1240.5,-192.37C1254.64,-181.97 1278.63,-164.32 1295.72,-151.75"/>
<polygon fill="#63b8ff" stroke="#63b8ff" points="1297.96,-154.44 1303.95,-145.7 1293.82,-148.81 1297.96,-154.44"/>
</g>
<!-- Node35&#45;&gt;Node8 -->
<g id="edge56" class="edge">
<title>Node35&#45;&gt;Node8</title>
<path fill="none" stroke="#63b8ff" d="M1227.94,-192.47C1226.84,-177.18 1226.31,-144.5 1238.77,-121 1244.89,-109.46 1254.83,-99.36 1264.7,-91.31"/>
<polygon fill="#63b8ff" stroke="#63b8ff" points="1267.08,-93.89 1272.9,-85.04 1262.83,-88.33 1267.08,-93.89"/>
</g>
<!-- Node35&#45;&gt;Node11 -->
<g id="edge55" class="edge">
<title>Node35&#45;&gt;Node11</title>
<path fill="none" stroke="#63b8ff" d="M1259.73,-192.44C1293.07,-183.03 1347.55,-167.09 1393.77,-151 1428.07,-139.06 1434.25,-128.54 1469.77,-121 1682.23,-75.92 2349.57,-71.19 2576.98,-70.91"/>
<polygon fill="#63b8ff" stroke="#63b8ff" points="2577.16,-74.41 2587.15,-70.91 2577.15,-67.41 2577.16,-74.41"/>
</g>
<!-- Node35&#45;&gt;Node12 -->
<g id="edge58" class="edge">
<title>Node35&#45;&gt;Node12</title>
<path fill="none" stroke="#63b8ff" d="M1224.6,-192.27C1213.21,-167.05 1184.84,-93.42 1221.77,-55 1259.48,-15.77 2084.43,-11.12 2295.79,-10.57"/>
<polygon fill="#63b8ff" stroke="#63b8ff" points="2295.97,-14.07 2305.96,-10.55 2295.95,-7.07 2295.97,-14.07"/>
</g>
<!-- Node35&#45;&gt;Node18 -->
<g id="edge57" class="edge">
<title>Node35&#45;&gt;Node18</title>
<path fill="none" stroke="#63b8ff" d="M1144.43,-193.12C1004.95,-180.09 729.41,-154.34 606.04,-142.82"/>
<polygon fill="#63b8ff" stroke="#63b8ff" points="606.29,-139.33 596.01,-141.88 605.64,-146.3 606.29,-139.33"/>
</g>
<!-- Node36&#45;&gt;Node12 -->
<g id="edge68" class="edge">
<title>Node36&#45;&gt;Node12</title>
<path fill="none" stroke="#63b8ff" d="M1538.92,-258.33C1548.72,-248.77 1564.4,-232.65 1575.77,-217 1604.54,-177.39 1589.75,-149.19 1629.77,-121 1737.97,-44.79 2152.51,-19.17 2295.75,-12.49"/>
<polygon fill="#63b8ff" stroke="#63b8ff" points="2296.15,-15.98 2305.98,-12.03 2295.83,-8.99 2296.15,-15.98"/>
</g>
<!-- Node36&#45;&gt;Node15 -->
<g id="edge66" class="edge">
<title>Node36&#45;&gt;Node15</title>
<path fill="none" stroke="#63b8ff" d="M1547.98,-258.42C1565.1,-249.72 1590.72,-234.99 1608.77,-217 1627.4,-198.43 1642.63,-171.91 1651.45,-154.57"/>
<polygon fill="#63b8ff" stroke="#63b8ff" points="1654.61,-156.08 1655.89,-145.56 1648.33,-152.99 1654.61,-156.08"/>
</g>
<!-- Node36&#45;&gt;Node27 -->
<g id="edge67" class="edge">
<title>Node36&#45;&gt;Node27</title>
<path fill="none" stroke="#63b8ff" d="M1495.24,-258.39C1474.06,-251.13 1448.62,-238.39 1435.77,-217 1428.9,-205.57 1429.71,-198.88 1435.77,-187 1443.99,-170.89 1460.09,-158.77 1474.67,-150.5"/>
<polygon fill="#63b8ff" stroke="#63b8ff" points="1476.72,-153.37 1483.94,-145.61 1473.46,-147.18 1476.72,-153.37"/>
</g>
<!-- Node37 -->
<g id="node27" class="node">
<title>Node37</title>
<g id="a_node27"><a xlink:href="_quadratic_b_spline_8hpp.html" target="_top" xlink:title=" ">
<polygon fill="white" stroke="#666666" points="1566.77,-211.5 1444.77,-211.5 1444.77,-192.5 1566.77,-192.5 1566.77,-211.5"/>
<text text-anchor="middle" x="1505.77" y="-199.5" font-family="Helvetica,sans-Serif" font-size="10.00">QuadraticBSpline.hpp</text>
</a>
</g>
</g>
<!-- Node36&#45;&gt;Node37 -->
<g id="edge62" class="edge">
<title>Node36&#45;&gt;Node37</title>
<path fill="none" stroke="#63b8ff" d="M1526.53,-258.37C1523.01,-248.97 1517.27,-233.67 1512.72,-221.53"/>
<polygon fill="#63b8ff" stroke="#63b8ff" points="1515.9,-220.04 1509.11,-211.91 1509.34,-222.5 1515.9,-220.04"/>
</g>
<!-- Node37&#45;&gt;Node12 -->
<g id="edge65" class="edge">
<title>Node37&#45;&gt;Node12</title>
<path fill="none" stroke="#63b8ff" d="M1512.27,-192.45C1519.5,-182.72 1531.28,-166.22 1539.77,-151 1562.56,-110.18 1544.29,-81.55 1582.77,-55 1641.25,-14.65 2136.46,-10.67 2295.68,-10.45"/>
<polygon fill="#63b8ff" stroke="#63b8ff" points="2296.12,-13.95 2306.12,-10.44 2296.11,-6.95 2296.12,-13.95"/>
</g>
<!-- Node37&#45;&gt;Node15 -->
<g id="edge64" class="edge">
<title>Node37&#45;&gt;Node15</title>
<path fill="none" stroke="#63b8ff" d="M1526.54,-192.37C1553.06,-181.35 1599.15,-162.19 1629.56,-149.55"/>
<polygon fill="#63b8ff" stroke="#63b8ff" points="1630.95,-152.77 1638.84,-145.7 1628.26,-146.3 1630.95,-152.77"/>
</g>
<!-- Node37&#45;&gt;Node27 -->
<g id="edge63" class="edge">
<title>Node37&#45;&gt;Node27</title>
<path fill="none" stroke="#63b8ff" d="M1505.64,-192.37C1505.49,-183.16 1505.26,-168.29 1505.07,-156.27"/>
<polygon fill="#63b8ff" stroke="#63b8ff" points="1508.57,-155.85 1504.91,-145.91 1501.57,-155.96 1508.57,-155.85"/>
</g>
<!-- Node38&#45;&gt;Node23 -->
<g id="edge70" class="edge">
<title>Node38&#45;&gt;Node23</title>
<path fill="none" stroke="#63b8ff" d="M1772.34,-331.78C1857.08,-326.9 2015.5,-305.59 2109.77,-217 2125.27,-202.44 2132.51,-178.96 2135.87,-161.2"/>
<polygon fill="#63b8ff" stroke="#63b8ff" points="2139.34,-161.69 2137.48,-151.26 2132.43,-160.57 2139.34,-161.69"/>
</g>
<!-- Node39&#45;&gt;Node4 -->
<g id="edge72" class="edge">
<title>Node39&#45;&gt;Node4</title>
<path fill="none" stroke="#63b8ff" d="M2948.05,-395.41C3068.39,-389.4 3284.49,-375.3 3357.77,-349 3407.54,-331.14 3431.82,-329.62 3456.77,-283 3499.18,-203.77 3418.46,-156.2 3335.77,-121 3263.31,-90.16 3173.31,-78.3 3111.49,-73.76"/>
<polygon fill="#63b8ff" stroke="#63b8ff" points="3111.65,-70.27 3101.43,-73.07 3111.17,-77.25 3111.65,-70.27"/>
</g>
<!-- Node39&#45;&gt;Node16 -->
<g id="edge153" class="edge">
<title>Node39&#45;&gt;Node16</title>
<path fill="none" stroke="#63b8ff" d="M2781.72,-399.08C2602.68,-398.4 2185.71,-392.1 2051.77,-349 1946.83,-315.23 1935.04,-275.77 1841.77,-217 1774.17,-174.41 1764.27,-149.88 1689.77,-121 1604.74,-88.04 1576.89,-104.34 1487.77,-85 1435.31,-73.62 1423.77,-63.54 1370.77,-55 1138.28,-17.52 853.8,-11.58 757.48,-10.66"/>
<polygon fill="#63b8ff" stroke="#63b8ff" points="757.48,-7.16 747.45,-10.58 757.42,-14.16 757.48,-7.16"/>
</g>
<!-- Node40 -->
<g id="node30" class="node">
<title>Node40</title>
<g id="a_node30"><a xlink:href="_assembler_8hpp.html" target="_top" xlink:title=" ">
<polygon fill="#fff0f0" stroke="red" points="2100.27,-211.5 2011.27,-211.5 2011.27,-192.5 2100.27,-192.5 2100.27,-211.5"/>
<text text-anchor="middle" x="2055.77" y="-199.5" font-family="Helvetica,sans-Serif" font-size="10.00">Assembler.hpp</text>
</a>
</g>
</g>
<!-- Node39&#45;&gt;Node40 -->
<g id="edge73" class="edge">
<title>Node39&#45;&gt;Node40</title>
<path fill="none" stroke="#63b8ff" d="M2781.52,-397.26C2605.22,-392.98 2205.95,-379.96 2152.77,-349 2102.68,-319.84 2073.43,-253.25 2061.74,-221.07"/>
<polygon fill="#63b8ff" stroke="#63b8ff" points="2065.03,-219.88 2058.44,-211.58 2058.42,-222.17 2065.03,-219.88"/>
</g>
<!-- Node43 -->
<g id="node31" class="node">
<title>Node43</title>
<g id="a_node31"><a xlink:href="_matrix_utils_8hpp.html" target="_top" xlink:title=" ">
<polygon fill="white" stroke="#666666" points="2859.27,-145.5 2700.27,-145.5 2700.27,-126.5 2859.27,-126.5 2859.27,-145.5"/>
<text text-anchor="middle" x="2779.77" y="-133.5" font-family="Helvetica,sans-Serif" font-size="10.00">polyfem/utils/MatrixUtils.hpp</text>
</a>
</g>
</g>
<!-- Node39&#45;&gt;Node43 -->
<g id="edge152" class="edge">
<title>Node39&#45;&gt;Node43</title>
<path fill="none" stroke="#63b8ff" d="M2881.41,-384.75C2892.87,-374.85 2908.39,-361.28 2921.77,-349 2967.16,-307.34 2976.65,-294.95 3021.77,-253 3039.29,-236.72 3052.04,-238.85 3061.77,-217 3067.2,-204.82 3070.34,-197.22 3061.77,-187 3049.16,-171.96 2944.81,-156.45 2866.69,-146.77"/>
<polygon fill="#63b8ff" stroke="#63b8ff" points="2866.69,-143.25 2856.34,-145.5 2865.84,-150.19 2866.69,-143.25"/>
</g>
<!-- Node51 -->
<g id="node32" class="node">
<title>Node51</title>
<g id="a_node32"><a xlink:href="_mass_8hpp.html" target="_top" xlink:title=" ">
<polygon fill="#fff0f0" stroke="red" points="2276.27,-145.5 2213.27,-145.5 2213.27,-126.5 2276.27,-126.5 2276.27,-145.5"/>
<text text-anchor="middle" x="2244.77" y="-133.5" font-family="Helvetica,sans-Serif" font-size="10.00">Mass.hpp</text>
</a>
</g>
</g>
<!-- Node39&#45;&gt;Node51 -->
<g id="edge82" class="edge">
<title>Node39&#45;&gt;Node51</title>
<path fill="none" stroke="#63b8ff" d="M2781.58,-395.46C2702.02,-390.41 2579.32,-378.23 2476.77,-349 2340.58,-310.18 2263.41,-336.08 2186.77,-217 2171.53,-193.31 2199.7,-167.1 2221.87,-151.34"/>
<polygon fill="#63b8ff" stroke="#63b8ff" points="2223.95,-154.16 2230.26,-145.65 2220.02,-148.37 2223.95,-154.16"/>
</g>
<!-- Node54 -->
<g id="node33" class="node">
<title>Node54</title>
<g id="a_node33"><a xlink:href="_laplacian_8hpp.html" target="_top" xlink:title=" ">
<polygon fill="#fff0f0" stroke="red" points="2378.77,-145.5 2294.77,-145.5 2294.77,-126.5 2378.77,-126.5 2378.77,-145.5"/>
<text text-anchor="middle" x="2336.77" y="-133.5" font-family="Helvetica,sans-Serif" font-size="10.00">Laplacian.hpp</text>
</a>
</g>
</g>
<!-- Node39&#45;&gt;Node54 -->
<g id="edge85" class="edge">
<title>Node39&#45;&gt;Node54</title>
<path fill="none" stroke="#63b8ff" d="M2781.52,-393.23C2718.45,-387.02 2630.39,-374.37 2556.77,-349 2499.22,-329.17 2479.85,-326.01 2436.77,-283 2402.28,-248.57 2412.46,-226.4 2383.77,-187 2374.78,-174.66 2363.02,-162.15 2353.51,-152.73"/>
<polygon fill="#63b8ff" stroke="#63b8ff" points="2355.78,-150.05 2346.16,-145.61 2350.91,-155.08 2355.78,-150.05"/>
</g>
<!-- Node55 -->
<g id="node34" class="node">
<title>Node55</title>
<g id="a_node34"><a xlink:href="_bilaplacian_8hpp.html" target="_top" xlink:title=" ">
<polygon fill="#fff0f0" stroke="red" points="3122.77,-277.5 3030.77,-277.5 3030.77,-258.5 3122.77,-258.5 3122.77,-277.5"/>
<text text-anchor="middle" x="3076.77" y="-265.5" font-family="Helvetica,sans-Serif" font-size="10.00">Bilaplacian.hpp</text>
</a>
</g>
</g>
<!-- Node39&#45;&gt;Node55 -->
<g id="edge88" class="edge">
<title>Node39&#45;&gt;Node55</title>
<path fill="none" stroke="#63b8ff" d="M2936.69,-384.98C2963.53,-377.37 2993.19,-365.93 3016.77,-349 3039.62,-332.6 3057.58,-304.92 3067.68,-286.8"/>
<polygon fill="#63b8ff" stroke="#63b8ff" points="3070.84,-288.32 3072.47,-277.86 3064.67,-285.02 3070.84,-288.32"/>
</g>
<!-- Node56 -->
<g id="node35" class="node">
<title>Node56</title>
<g id="a_node35"><a xlink:href="_helmholtz_8hpp.html" target="_top" xlink:title=" ">
<polygon fill="#fff0f0" stroke="red" points="3546.77,-145.5 3458.77,-145.5 3458.77,-126.5 3546.77,-126.5 3546.77,-145.5"/>
<text text-anchor="middle" x="3502.77" y="-133.5" font-family="Helvetica,sans-Serif" font-size="10.00">Helmholtz.hpp</text>
</a>
</g>
</g>
<!-- Node39&#45;&gt;Node56 -->
<g id="edge92" class="edge">
<title>Node39&#45;&gt;Node56</title>
<path fill="none" stroke="#63b8ff" d="M2947.85,-398.7C3113.32,-397.22 3471.43,-389.36 3508.77,-349 3558.82,-294.92 3526.95,-195.84 3510.66,-155.16"/>
<polygon fill="#63b8ff" stroke="#63b8ff" points="3513.81,-153.62 3506.73,-145.73 3507.34,-156.31 3513.81,-153.62"/>
</g>
<!-- Node57 -->
<g id="node36" class="node">
<title>Node57</title>
<g id="a_node36"><a xlink:href="_linear_elasticity_8hpp.html" target="_top" xlink:title=" ">
<polygon fill="#fff0f0" stroke="red" points="3428.27,-277.5 3317.27,-277.5 3317.27,-258.5 3428.27,-258.5 3428.27,-277.5"/>
<text text-anchor="middle" x="3372.77" y="-265.5" font-family="Helvetica,sans-Serif" font-size="10.00">LinearElasticity.hpp</text>
</a>
</g>
</g>
<!-- Node39&#45;&gt;Node57 -->
<g id="edge95" class="edge">
<title>Node39&#45;&gt;Node57</title>
<path fill="none" stroke="#63b8ff" d="M2933.26,-384.94C2978.2,-375.45 3038.17,-362.27 3090.77,-349 3178.62,-326.84 3280.66,-296.81 3334.67,-280.58"/>
<polygon fill="#63b8ff" stroke="#63b8ff" points="3335.93,-283.85 3344.5,-277.62 3333.92,-277.15 3335.93,-283.85"/>
</g>
<!-- Node58 -->
<g id="node37" class="node">
<title>Node58</title>
<g id="a_node37"><a xlink:href="_hooke_linear_elasticity_8hpp.html" target="_top" xlink:title=" ">
<polygon fill="#fff0f0" stroke="red" points="1992.77,-211.5 1850.77,-211.5 1850.77,-192.5 1992.77,-192.5 1992.77,-211.5"/>
<text text-anchor="middle" x="1921.77" y="-199.5" font-family="Helvetica,sans-Serif" font-size="10.00">HookeLinearElasticity.hpp</text>
</a>
</g>
</g>
<!-- Node39&#45;&gt;Node58 -->
<g id="edge98" class="edge">
<title>Node39&#45;&gt;Node58</title>
<path fill="none" stroke="#63b8ff" d="M2781.53,-399.42C2612.49,-399.29 2234.9,-393.82 2114.77,-349 2038.17,-320.42 1966.5,-250.92 1936.53,-219.23"/>
<polygon fill="#63b8ff" stroke="#63b8ff" points="1938.89,-216.63 1929.52,-211.7 1933.77,-221.4 1938.89,-216.63"/>
</g>
<!-- Node59 -->
<g id="node38" class="node">
<title>Node59</title>
<g id="a_node38"><a xlink:href="_saint_venant_elasticity_8hpp.html" target="_top" xlink:title=" ">
<polygon fill="#fff0f0" stroke="red" points="2860.77,-277.5 2720.77,-277.5 2720.77,-258.5 2860.77,-258.5 2860.77,-277.5"/>
<text text-anchor="middle" x="2790.77" y="-265.5" font-family="Helvetica,sans-Serif" font-size="10.00">SaintVenantElasticity.hpp</text>
</a>
</g>
</g>
<!-- Node39&#45;&gt;Node59 -->
<g id="edge102" class="edge">
<title>Node39&#45;&gt;Node59</title>
<path fill="none" stroke="#63b8ff" d="M2863.93,-384.76C2862.38,-367.99 2858.03,-339.78 2845.77,-319 2837.51,-305.01 2824.08,-292.68 2812.55,-283.77"/>
<polygon fill="#63b8ff" stroke="#63b8ff" points="2814.35,-280.76 2804.22,-277.65 2810.21,-286.4 2814.35,-280.76"/>
</g>
<!-- Node60 -->
<g id="node39" class="node">
<title>Node60</title>
<g id="a_node39"><a xlink:href="_neo_hookean_elasticity_8hpp.html" target="_top" xlink:title=" ">
<polygon fill="#fff0f0" stroke="red" points="2588.27,-277.5 2445.27,-277.5 2445.27,-258.5 2588.27,-258.5 2588.27,-277.5"/>
<text text-anchor="middle" x="2516.77" y="-265.5" font-family="Helvetica,sans-Serif" font-size="10.00">NeoHookeanElasticity.hpp</text>
</a>
</g>
</g>
<!-- Node39&#45;&gt;Node60 -->
<g id="edge108" class="edge">
<title>Node39&#45;&gt;Node60</title>
<path fill="none" stroke="#63b8ff" d="M2781.58,-394.95C2728.09,-389.57 2658.43,-377.2 2602.77,-349 2572.31,-333.57 2544.89,-304.09 2529.58,-285.55"/>
<polygon fill="#63b8ff" stroke="#63b8ff" points="2532.24,-283.27 2523.25,-277.66 2526.78,-287.65 2532.24,-283.27"/>
</g>
<!-- Node61 -->
<g id="node40" class="node">
<title>Node61</title>
<g id="a_node40"><a xlink:href="_mooney_rivlin_elasticity_8hpp.html" target="_top" xlink:title=" ">
<polygon fill="#fff0f0" stroke="red" points="2692.77,-211.5 2544.77,-211.5 2544.77,-192.5 2692.77,-192.5 2692.77,-211.5"/>
<text text-anchor="middle" x="2618.77" y="-199.5" font-family="Helvetica,sans-Serif" font-size="10.00">MooneyRivlinElasticity.hpp</text>
</a>
</g>
</g>
<!-- Node39&#45;&gt;Node61 -->
<g id="edge114" class="edge">
<title>Node39&#45;&gt;Node61</title>
<path fill="none" stroke="#63b8ff" d="M2781.43,-393.58C2744.8,-387.38 2703.46,-374.67 2673.77,-349 2635.45,-315.87 2623.76,-253.22 2620.25,-221.87"/>
<polygon fill="#63b8ff" stroke="#63b8ff" points="2623.73,-221.47 2619.29,-211.84 2616.76,-222.13 2623.73,-221.47"/>
</g>
<!-- Node64 -->
<g id="node41" class="node">
<title>Node64</title>
<g id="a_node41"><a xlink:href="_ogden_elasticity_8hpp.html" target="_top" xlink:title=" ">
<polygon fill="#fff0f0" stroke="red" points="3052.27,-211.5 2939.27,-211.5 2939.27,-192.5 3052.27,-192.5 3052.27,-211.5"/>
<text text-anchor="middle" x="2995.77" y="-199.5" font-family="Helvetica,sans-Serif" font-size="10.00">OgdenElasticity.hpp</text>
</a>
</g>
</g>
<!-- Node39&#45;&gt;Node64 -->
<g id="edge121" class="edge">
<title>Node39&#45;&gt;Node64</title>
<path fill="none" stroke="#63b8ff" d="M2874.19,-384.9C2897.66,-349.79 2958.69,-258.48 2984.25,-220.24"/>
<polygon fill="#63b8ff" stroke="#63b8ff" points="2987.29,-221.99 2989.94,-211.73 2981.47,-218.1 2987.29,-221.99"/>
</g>
<!-- Node72 -->
<g id="node42" class="node">
<title>Node72</title>
<g id="a_node42"><a xlink:href="_multi_model_8hpp.html" target="_top" xlink:title=" ">
<polygon fill="#fff0f0" stroke="red" points="2836.77,-343.5 2744.77,-343.5 2744.77,-324.5 2836.77,-324.5 2836.77,-343.5"/>
<text text-anchor="middle" x="2790.77" y="-331.5" font-family="Helvetica,sans-Serif" font-size="10.00">MultiModel.hpp</text>
</a>
</g>
</g>
<!-- Node39&#45;&gt;Node72 -->
<g id="edge127" class="edge">
<title>Node39&#45;&gt;Node72</title>
<path fill="none" stroke="#63b8ff" d="M2848.35,-384.8C2836.59,-374.62 2820.75,-360.93 2808.67,-350.48"/>
<polygon fill="#63b8ff" stroke="#63b8ff" points="2810.85,-347.74 2801,-343.84 2806.27,-353.03 2810.85,-347.74"/>
</g>
<!-- Node73 -->
<g id="node43" class="node">
<title>Node73</title>
<g id="a_node43"><a xlink:href="_viscous_damping_8hpp.html" target="_top" xlink:title=" ">
<polygon fill="#fff0f0" stroke="red" points="3260.27,-277.5 3141.27,-277.5 3141.27,-258.5 3260.27,-258.5 3260.27,-277.5"/>
<text text-anchor="middle" x="3200.77" y="-265.5" font-family="Helvetica,sans-Serif" font-size="10.00">ViscousDamping.hpp</text>
</a>
</g>
</g>
<!-- Node39&#45;&gt;Node73 -->
<g id="edge136" class="edge">
<title>Node39&#45;&gt;Node73</title>
<path fill="none" stroke="#63b8ff" d="M2927.43,-384.92C2962.51,-376.21 3006.71,-363.87 3044.77,-349 3093.89,-329.81 3147.97,-299.96 3177.81,-282.66"/>
<polygon fill="#63b8ff" stroke="#63b8ff" points="3179.74,-285.58 3186.6,-277.51 3176.2,-279.54 3179.74,-285.58"/>
</g>
<!-- Node74 -->
<g id="node44" class="node">
<title>Node74</title>
<g id="a_node44"><a xlink:href="_stokes_8hpp.html" target="_top" xlink:title=" ">
<polygon fill="#fff0f0" stroke="red" points="3326.77,-145.5 3256.77,-145.5 3256.77,-126.5 3326.77,-126.5 3326.77,-145.5"/>
<text text-anchor="middle" x="3291.77" y="-133.5" font-family="Helvetica,sans-Serif" font-size="10.00">Stokes.hpp</text>
</a>
</g>
</g>
<!-- Node39&#45;&gt;Node74 -->
<g id="edge142" class="edge">
<title>Node39&#45;&gt;Node74</title>
<path fill="none" stroke="#63b8ff" d="M2948.03,-394.89C3092.05,-385.82 3378.03,-358.52 3437.77,-283 3480.57,-228.9 3376.51,-173.63 3322.21,-149.52"/>
<polygon fill="#63b8ff" stroke="#63b8ff" points="3323.58,-146.3 3313.01,-145.53 3320.79,-152.72 3323.58,-146.3"/>
</g>
<!-- Node75 -->
<g id="node45" class="node">
<title>Node75</title>
<g id="a_node45"><a xlink:href="_navier_stokes_8hpp.html" target="_top" xlink:title=" ">
<polygon fill="#fff0f0" stroke="red" points="3780.77,-145.5 3678.77,-145.5 3678.77,-126.5 3780.77,-126.5 3780.77,-145.5"/>
<text text-anchor="middle" x="3729.77" y="-133.5" font-family="Helvetica,sans-Serif" font-size="10.00">NavierStokes.hpp</text>
</a>
</g>
</g>
<!-- Node39&#45;&gt;Node75 -->
<g id="edge146" class="edge">
<title>Node39&#45;&gt;Node75</title>
<path fill="none" stroke="#63b8ff" d="M2947.97,-396.12C3114.96,-389.86 3479.41,-373.55 3530.77,-349 3623.53,-304.65 3694.65,-196.68 3719.85,-154.39"/>
<polygon fill="#63b8ff" stroke="#63b8ff" points="3722.99,-155.96 3725.02,-145.56 3716.95,-152.43 3722.99,-155.96"/>
</g>
<!-- Node76 -->
<g id="node46" class="node">
<title>Node76</title>
<g id="a_node46"><a xlink:href="_incompressible_lin_elast_8hpp.html" target="_top" xlink:title=" ">
<polygon fill="#fff0f0" stroke="red" points="3948.77,-145.5 3798.77,-145.5 3798.77,-126.5 3948.77,-126.5 3948.77,-145.5"/>
<text text-anchor="middle" x="3873.77" y="-133.5" font-family="Helvetica,sans-Serif" font-size="10.00">IncompressibleLinElast.hpp</text>
</a>
</g>
</g>
<!-- Node39&#45;&gt;Node76 -->
<g id="edge149" class="edge">
<title>Node39&#45;&gt;Node76</title>
<path fill="none" stroke="#63b8ff" d="M2947.99,-398.59C3108.85,-396.9 3456.47,-388.62 3568.77,-349 3694.46,-304.66 3816,-193.73 3858.17,-152.64"/>
<polygon fill="#63b8ff" stroke="#63b8ff" points="3860.64,-155.11 3865.31,-145.6 3855.73,-150.12 3860.64,-155.11"/>
</g>
<!-- Node77 -->
<g id="node47" class="node">
<title>Node77</title>
<g id="a_node47"><a xlink:title=" ">
<polygon fill="#e0e0e0" stroke="#999999" points="2726.77,-343.5 2682.77,-343.5 2682.77,-324.5 2726.77,-324.5 2726.77,-343.5"/>
<text text-anchor="middle" x="2704.77" y="-331.5" font-family="Helvetica,sans-Serif" font-size="10.00">string</text>
</a>
</g>
</g>
<!-- Node39&#45;&gt;Node77 -->
<g id="edge154" class="edge">
<title>Node39&#45;&gt;Node77</title>
<path fill="none" stroke="#63b8ff" d="M2827.02,-384.99C2801.18,-375.25 2766.23,-361.77 2735.77,-349 2734.76,-348.58 2733.74,-348.14 2732.71,-347.7"/>
<polygon fill="#63b8ff" stroke="#63b8ff" points="2733.95,-344.42 2723.39,-343.6 2731.13,-350.83 2733.95,-344.42"/>
</g>
<!-- Node40&#45;&gt;Node5 -->
<g id="edge79" class="edge">
<title>Node40&#45;&gt;Node5</title>
<path fill="none" stroke="#63b8ff" d="M2054.86,-192.26C2053.66,-175.7 2053.7,-139.76 2073.77,-121 2170.18,-30.89 2590.86,-14.26 2736.74,-11.19"/>
<polygon fill="#63b8ff" stroke="#63b8ff" points="2736.83,-14.69 2746.76,-10.99 2736.69,-7.69 2736.83,-14.69"/>
</g>
<!-- Node40&#45;&gt;Node16 -->
<g id="edge80" class="edge">
<title>Node40&#45;&gt;Node16</title>
<path fill="none" stroke="#63b8ff" d="M2030.1,-192.49C1950.61,-166.56 1701.04,-88.28 1487.77,-55 1208.24,-11.39 865.14,-9.54 757.62,-10.15"/>
<polygon fill="#63b8ff" stroke="#63b8ff" points="757.37,-6.65 747.39,-10.22 757.42,-13.65 757.37,-6.65"/>
</g>
<!-- Node40&#45;&gt;Node20 -->
<g id="edge81" class="edge">
<title>Node40&#45;&gt;Node20</title>
<path fill="none" stroke="#63b8ff" d="M2027.42,-192.46C2019.21,-190.31 2010.2,-188.26 2001.77,-187 1946.86,-178.76 1106.66,-146.04 911.88,-138.54"/>
<polygon fill="#63b8ff" stroke="#63b8ff" points="911.92,-135.04 901.79,-138.15 911.65,-142.03 911.92,-135.04"/>
</g>
<!-- Node40&#45;&gt;Node43 -->
<g id="edge74" class="edge">
<title>Node40&#45;&gt;Node43</title>
<path fill="none" stroke="#63b8ff" d="M2100.31,-195.99C2125.64,-193.2 2157.97,-189.75 2186.77,-187 2364.98,-169.97 2573.61,-153.09 2689.84,-143.95"/>
<polygon fill="#63b8ff" stroke="#63b8ff" points="2690.41,-147.42 2700.11,-143.15 2689.87,-140.44 2690.41,-147.42"/>
</g>
<!-- Node43&#45;&gt;Node4 -->
<g id="edge75" class="edge">
<title>Node43&#45;&gt;Node4</title>
<path fill="none" stroke="#63b8ff" d="M2814.43,-126.44C2860.95,-114.94 2943.62,-94.51 2994.57,-81.92"/>
<polygon fill="#63b8ff" stroke="#63b8ff" points="2995.45,-85.31 3004.31,-79.51 2993.77,-78.52 2995.45,-85.31"/>
</g>
<!-- Node43&#45;&gt;Node5 -->
<g id="edge78" class="edge">
<title>Node43&#45;&gt;Node5</title>
<path fill="none" stroke="#63b8ff" d="M2780.25,-126.44C2781.37,-106.54 2784.17,-56.76 2785.71,-29.35"/>
<polygon fill="#63b8ff" stroke="#63b8ff" points="2789.22,-29.3 2786.29,-19.12 2782.23,-28.9 2789.22,-29.3"/>
</g>
<!-- Node43&#45;&gt;Node11 -->
<g id="edge76" class="edge">
<title>Node43&#45;&gt;Node11</title>
<path fill="none" stroke="#63b8ff" d="M2762.78,-126.37C2741.55,-115.59 2704.99,-97.02 2680.12,-84.38"/>
<polygon fill="#63b8ff" stroke="#63b8ff" points="2681.4,-81.11 2670.9,-79.7 2678.23,-87.35 2681.4,-81.11"/>
</g>
<!-- Node43&#45;&gt;Node12 -->
<g id="edge77" class="edge">
<title>Node43&#45;&gt;Node12</title>
<path fill="none" stroke="#63b8ff" d="M2777.21,-126.44C2771.65,-109.55 2756.77,-72.06 2729.77,-55 2674.94,-20.34 2484.29,-12.65 2393.53,-10.96"/>
<polygon fill="#63b8ff" stroke="#63b8ff" points="2393.55,-7.46 2383.49,-10.79 2393.43,-14.46 2393.55,-7.46"/>
</g>
<!-- Node51&#45;&gt;Node4 -->
<g id="edge83" class="edge">
<title>Node51&#45;&gt;Node4</title>
<path fill="none" stroke="#63b8ff" d="M2266.61,-126.36C2272.72,-124.27 2279.43,-122.27 2285.77,-121 2351.23,-107.89 2789.75,-83.96 2965.82,-74.75"/>
<polygon fill="#63b8ff" stroke="#63b8ff" points="2966.22,-78.24 2976.02,-74.22 2965.85,-71.25 2966.22,-78.24"/>
</g>
<!-- Node51&#45;&gt;Node12 -->
<g id="edge84" class="edge">
<title>Node51&#45;&gt;Node12</title>
<path fill="none" stroke="#63b8ff" d="M2251.64,-126.44C2268.06,-106.01 2309.77,-54.07 2331.36,-27.19"/>
<polygon fill="#63b8ff" stroke="#63b8ff" points="2334.32,-29.11 2337.85,-19.12 2328.86,-24.72 2334.32,-29.11"/>
</g>
<!-- Node54&#45;&gt;Node4 -->
<g id="edge86" class="edge">
<title>Node54&#45;&gt;Node4</title>
<path fill="none" stroke="#63b8ff" d="M2378.84,-131.16C2494.75,-120.6 2819.78,-90.97 2965.95,-77.64"/>
<polygon fill="#63b8ff" stroke="#63b8ff" points="2966.52,-81.1 2976.16,-76.71 2965.88,-74.13 2966.52,-81.1"/>
</g>
<!-- Node54&#45;&gt;Node12 -->
<g id="edge87" class="edge">
<title>Node54&#45;&gt;Node12</title>
<path fill="none" stroke="#63b8ff" d="M2337.32,-126.44C2338.6,-106.54 2341.8,-56.76 2343.56,-29.35"/>
<polygon fill="#63b8ff" stroke="#63b8ff" points="2347.07,-29.32 2344.22,-19.12 2340.08,-28.87 2347.07,-29.32"/>
</g>
<!-- Node55&#45;&gt;Node4 -->
<g id="edge89" class="edge">
<title>Node55&#45;&gt;Node4</title>
<path fill="none" stroke="#63b8ff" d="M3082.31,-258.25C3096.41,-234.76 3130.95,-168.8 3106.77,-121 3098.63,-104.91 3082.61,-92.74 3068.16,-84.43"/>
<polygon fill="#63b8ff" stroke="#63b8ff" points="3069.46,-81.16 3058.99,-79.53 3066.16,-87.33 3069.46,-81.16"/>
</g>
<!-- Node55&#45;&gt;Node12 -->
<g id="edge91" class="edge">
<title>Node55&#45;&gt;Node12</title>
<path fill="none" stroke="#63b8ff" d="M3105.61,-258.43C3167.4,-239.42 3309.12,-192.14 3335.77,-151 3343.02,-139.81 3343.31,-132 3335.77,-121 3289.69,-53.82 3244.42,-72.08 3164.77,-55 3016.24,-23.14 2546.77,-13.49 2393.61,-11.15"/>
<polygon fill="#63b8ff" stroke="#63b8ff" points="2393.62,-7.65 2383.57,-11 2393.51,-14.65 2393.62,-7.65"/>
</g>
<!-- Node55&#45;&gt;Node21 -->
<g id="edge90" class="edge">
<title>Node55&#45;&gt;Node21</title>
<path fill="none" stroke="#63b8ff" d="M3030.68,-263.82C2886.88,-253.86 2452.24,-223.57 2388.77,-217 2377.35,-215.82 2365.24,-214.37 2353.49,-212.86"/>
<polygon fill="#63b8ff" stroke="#63b8ff" points="2353.64,-209.35 2343.27,-211.51 2352.73,-216.29 2353.64,-209.35"/>
</g>
<!-- Node56&#45;&gt;Node4 -->
<g id="edge93" class="edge">
<title>Node56&#45;&gt;Node4</title>
<path fill="none" stroke="#63b8ff" d="M3470.39,-126.49C3462.08,-124.5 3453.13,-122.52 3444.77,-121 3329.01,-99.97 3193.05,-85.22 3111.51,-77.43"/>
<polygon fill="#63b8ff" stroke="#63b8ff" points="3111.64,-73.93 3101.36,-76.47 3110.98,-80.89 3111.64,-73.93"/>
</g>
<!-- Node56&#45;&gt;Node12 -->
<g id="edge94" class="edge">
<title>Node56&#45;&gt;Node12</title>
<path fill="none" stroke="#63b8ff" d="M3492.52,-126.39C3471.17,-109.03 3419.65,-70.23 3368.77,-55 3321.62,-40.89 2590.84,-17.92 2393.54,-11.95"/>
<polygon fill="#63b8ff" stroke="#63b8ff" points="2393.57,-8.45 2383.47,-11.65 2393.36,-15.45 2393.57,-8.45"/>
</g>
<!-- Node57&#45;&gt;Node4 -->
<g id="edge96" class="edge">
<title>Node57&#45;&gt;Node4</title>
<path fill="none" stroke="#63b8ff" d="M3367.19,-258.43C3356.43,-242.48 3331.34,-207.96 3302.77,-187 3231.52,-134.73 3133.02,-99.39 3078.71,-82.49"/>
<polygon fill="#63b8ff" stroke="#63b8ff" points="3079.69,-79.13 3069.1,-79.54 3077.64,-85.82 3079.69,-79.13"/>
</g>
<!-- Node57&#45;&gt;Node12 -->
<g id="edge97" class="edge">
<title>Node57&#45;&gt;Node12</title>
<path fill="none" stroke="#63b8ff" d="M3413.36,-258.48C3464.63,-245.31 3550.76,-214.56 3588.77,-151 3614.84,-107.41 3573,-76.04 3526.77,-55 3500.58,-43.08 2613.65,-17.91 2393.73,-11.84"/>
<polygon fill="#63b8ff" stroke="#63b8ff" points="2393.56,-8.33 2383.47,-11.55 2393.37,-15.33 2393.56,-8.33"/>
</g>
<!-- Node58&#45;&gt;Node4 -->
<g id="edge99" class="edge">
<title>Node58&#45;&gt;Node4</title>
<path fill="none" stroke="#63b8ff" d="M1933.62,-192.43C1958.25,-175.15 2017.41,-136.48 2073.77,-121 2095.23,-115.1 2744.49,-84.61 2965.75,-74.36"/>
<polygon fill="#63b8ff" stroke="#63b8ff" points="2966.13,-77.85 2975.96,-73.89 2965.81,-70.86 2966.13,-77.85"/>
</g>
<!-- Node58&#45;&gt;Node12 -->
<g id="edge100" class="edge">
<title>Node58&#45;&gt;Node12</title>
<path fill="none" stroke="#63b8ff" d="M1923.96,-192.07C1928.48,-175.53 1940.44,-140.05 1963.77,-121 2062.56,-40.33 2217.79,-18.55 2296.12,-12.67"/>
<polygon fill="#63b8ff" stroke="#63b8ff" points="2296.45,-16.15 2306.19,-11.97 2295.97,-9.17 2296.45,-16.15"/>
</g>
<!-- Node58&#45;&gt;Node15 -->
<g id="edge101" class="edge">
<title>Node58&#45;&gt;Node15</title>
<path fill="none" stroke="#63b8ff" d="M1886.71,-192.44C1835.16,-179.84 1739.73,-156.53 1690.67,-144.55"/>
<polygon fill="#63b8ff" stroke="#63b8ff" points="1691.48,-141.14 1680.94,-142.17 1689.82,-147.94 1691.48,-141.14"/>
</g>
<!-- Node59&#45;&gt;Node4 -->
<g id="edge103" class="edge">
<title>Node59&#45;&gt;Node4</title>
<path fill="none" stroke="#63b8ff" d="M2801.94,-258.31C2826.66,-239.05 2887.84,-191.33 2938.77,-151 2967.16,-128.52 2999.91,-102.26 3019.98,-86.13"/>
<polygon fill="#63b8ff" stroke="#63b8ff" points="3022.4,-88.67 3028,-79.68 3018.01,-83.22 3022.4,-88.67"/>
</g>
<!-- Node59&#45;&gt;Node11 -->
<g id="edge105" class="edge">
<title>Node59&#45;&gt;Node11</title>
<path fill="none" stroke="#63b8ff" d="M2797.25,-258.31C2808.21,-242.46 2827.65,-208.51 2810.77,-187 2769.25,-134.08 2708.5,-201.24 2663.77,-151 2649.04,-134.46 2648.7,-107.8 2650.59,-89.85"/>
<polygon fill="#63b8ff" stroke="#63b8ff" points="2654.08,-90.12 2651.98,-79.74 2647.15,-89.17 2654.08,-90.12"/>
</g>
<!-- Node59&#45;&gt;Node12 -->
<g id="edge106" class="edge">
<title>Node59&#45;&gt;Node12</title>
<path fill="none" stroke="#63b8ff" d="M2791.48,-258.23C2792.28,-241.94 2791.54,-206.87 2772.77,-187 2732.78,-144.66 2699.86,-174.95 2646.77,-151 2574.62,-118.45 2568.81,-87.78 2496.77,-55 2463.49,-39.86 2423.78,-28.44 2393.29,-20.96"/>
<polygon fill="#63b8ff" stroke="#63b8ff" points="2393.87,-17.5 2383.33,-18.58 2392.24,-24.31 2393.87,-17.5"/>
</g>
<!-- Node59&#45;&gt;Node15 -->
<g id="edge107" class="edge">
<title>Node59&#45;&gt;Node15</title>
<path fill="none" stroke="#63b8ff" d="M2720.67,-261.49C2684.06,-258.73 2638.52,-255.45 2597.77,-253 2429.88,-242.92 2000.97,-271.24 1841.77,-217 1819.71,-209.48 1819.47,-197.7 1798.77,-187 1763.47,-168.75 1719.97,-154.27 1691.14,-145.69"/>
<polygon fill="#63b8ff" stroke="#63b8ff" points="1691.8,-142.23 1681.22,-142.79 1689.84,-148.95 1691.8,-142.23"/>
</g>
<!-- Node59&#45;&gt;Node21 -->
<g id="edge104" class="edge">
<title>Node59&#45;&gt;Node21</title>
<path fill="none" stroke="#63b8ff" d="M2720.67,-258.5C2640.43,-248.72 2505.07,-232.06 2388.77,-217 2378.57,-215.68 2367.81,-214.26 2357.24,-212.85"/>
<polygon fill="#63b8ff" stroke="#63b8ff" points="2357.55,-209.36 2347.18,-211.5 2356.62,-216.3 2357.55,-209.36"/>
</g>
<!-- Node60&#45;&gt;Node4 -->
<g id="edge109" class="edge">
<title>Node60&#45;&gt;Node4</title>
<path fill="none" stroke="#63b8ff" d="M2550.34,-258.49C2587.52,-248.93 2649.17,-232.69 2701.77,-217 2792.28,-190 2821.44,-197.29 2903.77,-151 2921.63,-140.96 2921.7,-132.33 2938.77,-121 2961.01,-106.24 2988.2,-92.91 3008.62,-83.73"/>
<polygon fill="#63b8ff" stroke="#63b8ff" points="3010.31,-86.81 3018.05,-79.57 3007.48,-80.41 3010.31,-86.81"/>
</g>
<!-- Node60&#45;&gt;Node11 -->
<g id="edge111" class="edge">
<title>Node60&#45;&gt;Node11</title>
<path fill="none" stroke="#63b8ff" d="M2517.29,-258.01C2518.52,-242.56 2522.59,-210.38 2535.77,-187 2560.37,-143.39 2606.17,-105.39 2632.9,-85.58"/>
<polygon fill="#63b8ff" stroke="#63b8ff" points="2635.14,-88.28 2641.18,-79.57 2631.03,-82.61 2635.14,-88.28"/>
</g>
<!-- Node60&#45;&gt;Node12 -->
<g id="edge112" class="edge">
<title>Node60&#45;&gt;Node12</title>
<path fill="none" stroke="#63b8ff" d="M2511.05,-258.47C2486.46,-221.8 2389.53,-77.24 2356.14,-27.46"/>
<polygon fill="#63b8ff" stroke="#63b8ff" points="2358.99,-25.42 2350.52,-19.07 2353.18,-29.32 2358.99,-25.42"/>
</g>
<!-- Node60&#45;&gt;Node15 -->
<g id="edge113" class="edge">
<title>Node60&#45;&gt;Node15</title>
<path fill="none" stroke="#63b8ff" d="M2445.01,-263.9C2277.07,-256.38 1868.13,-236.31 1808.77,-217 1784.85,-209.22 1782.74,-199.26 1760.77,-187 1736.58,-173.5 1708.26,-159.64 1687.77,-149.94"/>
<polygon fill="#63b8ff" stroke="#63b8ff" points="1689.21,-146.76 1678.67,-145.67 1686.24,-153.09 1689.21,-146.76"/>
</g>
<!-- Node60&#45;&gt;Node21 -->
<g id="edge110" class="edge">
<title>Node60&#45;&gt;Node21</title>
<path fill="none" stroke="#63b8ff" d="M2485.48,-258.37C2444.2,-246.98 2371.45,-226.91 2325.8,-214.32"/>
<polygon fill="#63b8ff" stroke="#63b8ff" points="2326.5,-210.88 2315.93,-211.6 2324.64,-217.63 2326.5,-210.88"/>
</g>
<!-- Node61&#45;&gt;Node4 -->
<g id="edge117" class="edge">
<title>Node61&#45;&gt;Node4</title>
<path fill="none" stroke="#63b8ff" d="M2666.96,-192.49C2734.32,-180.42 2850.49,-158.92 2868.77,-151 2889.82,-141.88 2890.6,-131.92 2910.77,-121 2940.07,-105.13 2975.5,-91.7 3001.64,-82.76"/>
<polygon fill="#63b8ff" stroke="#63b8ff" points="3002.81,-86.06 3011.18,-79.56 3000.59,-79.43 3002.81,-86.06"/>
</g>
<!-- Node61&#45;&gt;Node11 -->
<g id="edge115" class="edge">
<title>Node61&#45;&gt;Node11</title>
<path fill="none" stroke="#63b8ff" d="M2617.46,-192.34C2615.54,-177.38 2612.95,-145.92 2620.77,-121 2624.6,-108.82 2632.34,-96.82 2639.37,-87.63"/>
<polygon fill="#63b8ff" stroke="#63b8ff" points="2642.16,-89.75 2645.73,-79.77 2636.72,-85.34 2642.16,-89.75"/>
</g>
<!-- Node61&#45;&gt;Node12 -->
<g id="edge118" class="edge">
<title>Node61&#45;&gt;Node12</title>
<path fill="none" stroke="#63b8ff" d="M2560.03,-192.45C2529.9,-185.53 2494.28,-173.12 2468.77,-151 2432.73,-119.75 2453.37,-89.83 2420.77,-55 2408.26,-41.63 2390.82,-31.03 2375.8,-23.54"/>
<polygon fill="#63b8ff" stroke="#63b8ff" points="2376.89,-20.18 2366.36,-19.06 2373.9,-26.51 2376.89,-20.18"/>
</g>
<!-- Node61&#45;&gt;Node16 -->
<g id="edge120" class="edge">
<title>Node61&#45;&gt;Node16</title>
<path fill="none" stroke="#63b8ff" d="M2544.64,-193.75C2521.91,-191.55 2496.81,-189.15 2473.77,-187 2296.05,-170.42 2249.86,-180.23 2073.77,-151 2018.26,-141.79 2005.51,-134.04 1950.77,-121 1824.71,-90.98 1795.13,-72.79 1666.77,-55 1485.82,-29.92 904.96,-14.77 757.87,-11.28"/>
<polygon fill="#63b8ff" stroke="#63b8ff" points="757.74,-7.78 747.66,-11.04 757.57,-14.77 757.74,-7.78"/>
</g>
<!-- Node61&#45;&gt;Node20 -->
<g id="edge119" class="edge">
<title>Node61&#45;&gt;Node20</title>
<path fill="none" stroke="#63b8ff" d="M2544.71,-196.05C2498.46,-193.1 2437.66,-189.45 2383.77,-187 1875.16,-163.86 1747.6,-168.7 1238.77,-151 1120.22,-146.88 980.15,-141.35 912.45,-138.64"/>
<polygon fill="#63b8ff" stroke="#63b8ff" points="912.35,-135.13 902.22,-138.23 912.07,-142.13 912.35,-135.13"/>
</g>
<!-- Node61&#45;&gt;Node43 -->
<g id="edge116" class="edge">
<title>Node61&#45;&gt;Node43</title>
<path fill="none" stroke="#63b8ff" d="M2640.48,-192.37C2668.29,-181.32 2716.67,-162.08 2748.45,-149.45"/>
<polygon fill="#63b8ff" stroke="#63b8ff" points="2750.15,-152.54 2758.15,-145.6 2747.56,-146.04 2750.15,-152.54"/>
</g>
<!-- Node64&#45;&gt;Node4 -->
<g id="edge122" class="edge">
<title>Node64&#45;&gt;Node4</title>
<path fill="none" stroke="#63b8ff" d="M3030.66,-192.49C3052.06,-185.27 3077.77,-172.54 3090.77,-151 3104.78,-127.8 3079.64,-101.57 3059.67,-85.67"/>
<polygon fill="#63b8ff" stroke="#63b8ff" points="3061.64,-82.77 3051.56,-79.52 3057.41,-88.35 3061.64,-82.77"/>
</g>
<!-- Node64&#45;&gt;Node11 -->
<g id="edge124" class="edge">
<title>Node64&#45;&gt;Node11</title>
<path fill="none" stroke="#63b8ff" d="M2939.13,-194.55C2856.66,-184.73 2711.22,-165.63 2691.77,-151 2671.94,-136.08 2662.01,-108.17 2657.38,-89.58"/>
<polygon fill="#63b8ff" stroke="#63b8ff" points="2660.76,-88.66 2655.18,-79.65 2653.92,-90.17 2660.76,-88.66"/>
</g>
<!-- Node64&#45;&gt;Node12 -->
<g id="edge125" class="edge">
<title>Node64&#45;&gt;Node12</title>
<path fill="none" stroke="#63b8ff" d="M3052.34,-197.99C3191.22,-190.34 3538.92,-169.42 3555.77,-151 3564.77,-141.16 3562.96,-132.23 3555.77,-121 3518.05,-62.04 3480.81,-71.44 3412.77,-55 3313.14,-30.93 2590.01,-15.26 2393.79,-11.42"/>
<polygon fill="#63b8ff" stroke="#63b8ff" points="2393.56,-7.92 2383.5,-11.22 2393.43,-14.92 2393.56,-7.92"/>
</g>
<!-- Node64&#45;&gt;Node15 -->
<g id="edge126" class="edge">
<title>Node64&#45;&gt;Node15</title>
<path fill="none" stroke="#63b8ff" d="M2939.22,-198.29C2711.42,-187.38 1864.99,-146.83 1691.12,-138.5"/>
<polygon fill="#63b8ff" stroke="#63b8ff" points="1691.03,-134.99 1680.87,-138.01 1690.69,-141.99 1691.03,-134.99"/>
</g>
<!-- Node64&#45;&gt;Node43 -->
<g id="edge123" class="edge">
<title>Node64&#45;&gt;Node43</title>
<path fill="none" stroke="#63b8ff" d="M2966.64,-192.37C2928.37,-181.03 2861.04,-161.08 2818.51,-148.48"/>
<polygon fill="#63b8ff" stroke="#63b8ff" points="2819.37,-145.08 2808.78,-145.6 2817.38,-151.79 2819.37,-145.08"/>
</g>
<!-- Node72&#45;&gt;Node4 -->
<g id="edge128" class="edge">
<title>Node72&#45;&gt;Node4</title>
<path fill="none" stroke="#63b8ff" d="M2808.98,-324.43C2826.11,-315.73 2851.74,-301 2869.77,-283 2905.55,-247.29 2898.13,-225.6 2930.77,-187 2946.22,-168.74 2954.1,-168.15 2970.77,-151 2990.93,-130.27 3012.21,-104.51 3025.49,-87.92"/>
<polygon fill="#63b8ff" stroke="#63b8ff" points="3028.51,-89.74 3031.98,-79.73 3023.03,-85.39 3028.51,-89.74"/>
</g>
<!-- Node72&#45;&gt;Node12 -->
<g id="edge134" class="edge">
<title>Node72&#45;&gt;Node12</title>
<path fill="none" stroke="#63b8ff" d="M2766.47,-324.39C2748.2,-316.57 2724.26,-303.14 2711.77,-283 2689.16,-246.54 2728.8,-220.31 2701.77,-187 2668.82,-146.4 2636.97,-173.5 2589.77,-151 2519.33,-117.43 2511.16,-92.57 2442.77,-55 2420.92,-42.99 2395.21,-31.41 2375.62,-23.07"/>
<polygon fill="#63b8ff" stroke="#63b8ff" points="2376.83,-19.79 2366.25,-19.14 2374.12,-26.24 2376.83,-19.79"/>
</g>
<!-- Node72&#45;&gt;Node15 -->
<g id="edge135" class="edge">
<title>Node72&#45;&gt;Node15</title>
<path fill="none" stroke="#63b8ff" d="M2760.4,-324.43C2752.43,-322.42 2743.82,-320.44 2735.77,-319 2306.86,-242.39 2164.24,-381.46 1760.77,-217 1725.59,-202.66 1692.63,-172.13 1674.43,-153.2"/>
<polygon fill="#63b8ff" stroke="#63b8ff" points="1676.75,-150.56 1667.36,-145.66 1671.64,-155.35 1676.75,-150.56"/>
</g>
<!-- Node72&#45;&gt;Node57 -->
<g id="edge129" class="edge">
<title>Node72&#45;&gt;Node57</title>
<path fill="none" stroke="#63b8ff" d="M2837.06,-328.65C2922.61,-320.5 3111.21,-302.05 3269.77,-283 3281.81,-281.55 3294.62,-279.9 3306.98,-278.25"/>
<polygon fill="#63b8ff" stroke="#63b8ff" points="3307.78,-281.68 3317.22,-276.87 3306.84,-274.74 3307.78,-281.68"/>
</g>
<!-- Node72&#45;&gt;Node59 -->
<g id="edge130" class="edge">
<title>Node72&#45;&gt;Node59</title>
<path fill="none" stroke="#63b8ff" d="M2790.77,-324.37C2790.77,-315.16 2790.77,-300.29 2790.77,-288.27"/>
<polygon fill="#63b8ff" stroke="#63b8ff" points="2794.27,-287.91 2790.77,-277.91 2787.27,-287.91 2794.27,-287.91"/>
</g>
<!-- Node72&#45;&gt;Node60 -->
<g id="edge131" class="edge">
<title>Node72&#45;&gt;Node60</title>
<path fill="none" stroke="#63b8ff" d="M2757.65,-324.43C2750.44,-322.6 2742.86,-320.71 2735.77,-319 2677.39,-304.91 2609.99,-289.68 2565.56,-279.78"/>
<polygon fill="#63b8ff" stroke="#63b8ff" points="2566.13,-276.32 2555.61,-277.56 2564.61,-283.15 2566.13,-276.32"/>
</g>
<!-- Node72&#45;&gt;Node61 -->
<g id="edge132" class="edge">
<title>Node72&#45;&gt;Node61</title>
<path fill="none" stroke="#63b8ff" d="M2761.43,-324.47C2737.44,-316.48 2703.57,-302.79 2678.77,-283 2656.79,-265.46 2638.6,-238.08 2628.21,-220.34"/>
<polygon fill="#63b8ff" stroke="#63b8ff" points="2631.23,-218.58 2623.26,-211.6 2625.14,-222.03 2631.23,-218.58"/>
</g>
<!-- Node72&#45;&gt;Node64 -->
<g id="edge133" class="edge">
<title>Node72&#45;&gt;Node64</title>
<path fill="none" stroke="#63b8ff" d="M2815.4,-324.38C2838.81,-315.65 2874.54,-300.9 2902.77,-283 2932.56,-264.11 2962.73,-236.17 2980.32,-218.81"/>
<polygon fill="#63b8ff" stroke="#63b8ff" points="2982.89,-221.19 2987.47,-211.64 2977.93,-216.25 2982.89,-221.19"/>
</g>
<!-- Node73&#45;&gt;Node4 -->
<g id="edge137" class="edge">
<title>Node73&#45;&gt;Node4</title>
<path fill="none" stroke="#63b8ff" d="M3198.2,-258.41C3190.57,-234.18 3166,-164.2 3124.77,-121 3109.48,-104.98 3087.92,-92.46 3070.22,-83.96"/>
<polygon fill="#63b8ff" stroke="#63b8ff" points="3071.39,-80.64 3060.85,-79.65 3068.47,-87 3071.39,-80.64"/>
</g>
<!-- Node73&#45;&gt;Node11 -->
<g id="edge139" class="edge">
<title>Node73&#45;&gt;Node11</title>
<path fill="none" stroke="#63b8ff" d="M3191.9,-258.48C3174.59,-242.3 3134.54,-206.97 3094.77,-187 2974.58,-126.65 2819.71,-95.32 2729.11,-81.06"/>
<polygon fill="#63b8ff" stroke="#63b8ff" points="2729.61,-77.6 2719.19,-79.53 2728.54,-84.52 2729.61,-77.6"/>
</g>
<!-- Node73&#45;&gt;Node12 -->
<g id="edge140" class="edge">
<title>Node73&#45;&gt;Node12</title>
<path fill="none" stroke="#63b8ff" d="M3236.41,-258.43C3325.49,-236.65 3552.2,-178.96 3572.77,-151 3580.67,-140.26 3578.86,-132.86 3572.77,-121 3549.79,-76.23 3528.37,-71.34 3480.77,-55 3428.71,-37.13 2604.55,-16.61 2393.63,-11.63"/>
<polygon fill="#63b8ff" stroke="#63b8ff" points="2393.56,-8.13 2383.48,-11.39 2393.4,-15.13 2393.56,-8.13"/>
</g>
<!-- Node73&#45;&gt;Node15 -->
<g id="edge141" class="edge">
<title>Node73&#45;&gt;Node15</title>
<path fill="none" stroke="#63b8ff" d="M3163.69,-258.48C3153.4,-256.39 3142.19,-254.37 3131.77,-253 2868.65,-218.53 2798.99,-250.77 2535.77,-217 2467.47,-208.24 2452.03,-196.06 2383.77,-187 2117.15,-151.62 1791.75,-140.48 1691,-137.75"/>
<polygon fill="#63b8ff" stroke="#63b8ff" points="1690.98,-134.25 1680.89,-137.49 1690.8,-141.25 1690.98,-134.25"/>
</g>
<!-- Node73&#45;&gt;Node21 -->
<g id="edge138" class="edge">
<title>Node73&#45;&gt;Node21</title>
<path fill="none" stroke="#63b8ff" d="M3164.06,-258.48C3153.67,-256.36 3142.32,-254.32 3131.77,-253 2803.71,-212.01 2718.01,-247.08 2388.77,-217 2376.72,-215.9 2363.93,-214.43 2351.58,-212.85"/>
<polygon fill="#63b8ff" stroke="#63b8ff" points="2351.72,-209.34 2341.35,-211.51 2350.81,-216.28 2351.72,-209.34"/>
</g>
<!-- Node74&#45;&gt;Node4 -->
<g id="edge143" class="edge">
<title>Node74&#45;&gt;Node4</title>
<path fill="none" stroke="#63b8ff" d="M3262.54,-126.45C3256.05,-124.61 3249.18,-122.7 3242.77,-121 3188.88,-106.7 3126.6,-91.65 3085.17,-81.84"/>
<polygon fill="#63b8ff" stroke="#63b8ff" points="3085.9,-78.42 3075.36,-79.53 3084.29,-85.23 3085.9,-78.42"/>
</g>
<!-- Node74&#45;&gt;Node11 -->
<g id="edge144" class="edge">
<title>Node74&#45;&gt;Node11</title>
<path fill="none" stroke="#63b8ff" d="M3256.56,-131.47C3156.59,-121.44 2869.33,-92.62 2730.59,-78.71"/>
<polygon fill="#63b8ff" stroke="#63b8ff" points="2730.75,-75.2 2720.45,-77.69 2730.05,-82.17 2730.75,-75.2"/>
</g>
<!-- Node74&#45;&gt;Node12 -->
<g id="edge145" class="edge">
<title>Node74&#45;&gt;Node12</title>
<path fill="none" stroke="#63b8ff" d="M3277.39,-126.48C3247.55,-109.31 3176.23,-70.82 3110.77,-55 2973.73,-21.89 2539.63,-13.11 2393.4,-11.06"/>
<polygon fill="#63b8ff" stroke="#63b8ff" points="2393.42,-7.56 2383.37,-10.93 2393.32,-14.56 2393.42,-7.56"/>
</g>
<!-- Node75&#45;&gt;Node4 -->
<g id="edge147" class="edge">
<title>Node75&#45;&gt;Node4</title>
<path fill="none" stroke="#63b8ff" d="M3678.68,-130.27C3557.45,-119.04 3252.07,-90.76 3111.57,-77.74"/>
<polygon fill="#63b8ff" stroke="#63b8ff" points="3111.61,-74.23 3101.33,-76.79 3110.97,-81.2 3111.61,-74.23"/>
</g>
<!-- Node75&#45;&gt;Node12 -->
<g id="edge148" class="edge">
<title>Node75&#45;&gt;Node12</title>
<path fill="none" stroke="#63b8ff" d="M3725.91,-126.45C3717.6,-109.21 3696.18,-70.61 3664.77,-55 3635.76,-40.59 2628.99,-16.94 2393.63,-11.59"/>
<polygon fill="#63b8ff" stroke="#63b8ff" points="2393.41,-8.09 2383.33,-11.36 2393.25,-15.09 2393.41,-8.09"/>
</g>
<!-- Node76&#45;&gt;Node4 -->
<g id="edge150" class="edge">
<title>Node76&#45;&gt;Node4</title>
<path fill="none" stroke="#63b8ff" d="M3827.67,-126.48C3815.39,-124.44 3802.11,-122.44 3789.77,-121 3542.15,-92.19 3246.51,-78.55 3111.95,-73.47"/>
<polygon fill="#63b8ff" stroke="#63b8ff" points="3111.89,-69.97 3101.77,-73.09 3111.63,-76.96 3111.89,-69.97"/>
</g>
<!-- Node76&#45;&gt;Node12 -->
<g id="edge151" class="edge">
<title>Node76&#45;&gt;Node12</title>
<path fill="none" stroke="#63b8ff" d="M3859.6,-126.35C3830.17,-108.92 3759.78,-69.99 3694.77,-55 3630.25,-40.12 2628.37,-16.85 2393.69,-11.58"/>
<polygon fill="#63b8ff" stroke="#63b8ff" points="2393.49,-8.08 2383.42,-11.35 2393.33,-15.08 2393.49,-8.08"/>
</g>
<!-- Node79&#45;&gt;Node12 -->
<g id="edge160" class="edge">
<title>Node79&#45;&gt;Node12</title>
<path fill="none" stroke="#63b8ff" d="M1323.35,-384.61C1338.7,-326.69 1405.08,-111.05 1554.77,-55 1623.97,-29.09 2134.85,-15.3 2296.13,-11.56"/>
<polygon fill="#63b8ff" stroke="#63b8ff" points="2296.32,-15.06 2306.24,-11.33 2296.16,-8.06 2296.32,-15.06"/>
</g>
</g>
</svg>
