<?xml version="1.0" encoding="UTF-8" standalone="no"?>
<!DOCTYPE svg PUBLIC "-//W3C//DTD SVG 1.1//EN"
 "http://www.w3.org/Graphics/SVG/1.1/DTD/svg11.dtd">
<!-- Generated by graphviz version 2.43.0 (0)
 -->
<!-- Title: src/polyfem/basis/SplineBasis3d.hpp Pages: 1 -->
<svg width="1675pt" height="357pt"
 viewBox="0.00 0.00 1675.00 357.00" xmlns="http://www.w3.org/2000/svg" xmlns:xlink="http://www.w3.org/1999/xlink">
<g id="graph0" class="graph" transform="scale(1 1) rotate(0) translate(4 353)">
<title>src/polyfem/basis/SplineBasis3d.hpp</title>
<!-- Node1 -->
<g id="Node000001" class="node">
<title>Node1</title>
<g id="a_Node000001"><a xlink:title=" ">
<polygon fill="#999999" stroke="#666666" points="1515,-349 1379,-349 1379,-319 1515,-319 1515,-349"/>
<text text-anchor="start" x="1387" y="-337" font-family="Helvetica,sans-Serif" font-size="10.00">src/polyfem/basis/Spline</text>
<text text-anchor="middle" x="1447" y="-326" font-family="Helvetica,sans-Serif" font-size="10.00">Basis3d.hpp</text>
</a>
</g>
</g>
<!-- Node2 -->
<g id="Node000002" class="node">
<title>Node2</title>
<g id="a_Node000002"><a xlink:href="_mesh3_d_8hpp.html" target="_top" xlink:title=" ">
<polygon fill="white" stroke="#666666" points="1238.5,-283 1107.5,-283 1107.5,-253 1238.5,-253 1238.5,-283"/>
<text text-anchor="start" x="1115.5" y="-271" font-family="Helvetica,sans-Serif" font-size="10.00">polyfem/mesh/mesh3D</text>
<text text-anchor="middle" x="1173" y="-260" font-family="Helvetica,sans-Serif" font-size="10.00">/Mesh3D.hpp</text>
</a>
</g>
</g>
<!-- Node1&#45;&gt;Node2 -->
<g id="edge1_Node000001_Node000002" class="edge">
<title>Node1&#45;&gt;Node2</title>
<g id="a_edge1_Node000001_Node000002"><a xlink:title=" ">
<path fill="none" stroke="#63b8ff" d="M1386.87,-318.95C1344.4,-309.03 1287.35,-295.71 1242.86,-285.32"/>
<polygon fill="#63b8ff" stroke="#63b8ff" points="1243.52,-281.88 1232.99,-283.01 1241.93,-288.7 1243.52,-281.88"/>
</a>
</g>
</g>
<!-- Node11 -->
<g id="Node000011" class="node">
<title>Node11</title>
<g id="a_Node000011"><a xlink:title=" ">
<polygon fill="#e0e0e0" stroke="#999999" points="392.5,-19 315.5,-19 315.5,0 392.5,0 392.5,-19"/>
<text text-anchor="middle" x="354" y="-7" font-family="Helvetica,sans-Serif" font-size="10.00">Eigen/Dense</text>
</a>
</g>
</g>
<!-- Node1&#45;&gt;Node11 -->
<g id="edge54_Node000001_Node000011" class="edge">
<title>Node1&#45;&gt;Node11</title>
<g id="a_edge54_Node000001_Node000011"><a xlink:title=" ">
<path fill="none" stroke="#63b8ff" d="M1378.67,-330.49C1091.84,-319.51 0,-273.11 0,-203 0,-203 0,-203 0,-135 0,-84.72 35.24,-77.92 80,-55 118.46,-35.31 237.45,-21.37 305.3,-14.79"/>
<polygon fill="#63b8ff" stroke="#63b8ff" points="305.71,-18.27 315.33,-13.83 305.04,-11.3 305.71,-18.27"/>
</a>
</g>
</g>
<!-- Node16 -->
<g id="Node000016" class="node">
<title>Node16</title>
<g id="a_Node000016"><a xlink:title=" ">
<polygon fill="#e0e0e0" stroke="#999999" points="1192.5,-79.5 1145.5,-79.5 1145.5,-60.5 1192.5,-60.5 1192.5,-79.5"/>
<text text-anchor="middle" x="1169" y="-67.5" font-family="Helvetica,sans-Serif" font-size="10.00">vector</text>
</a>
</g>
</g>
<!-- Node1&#45;&gt;Node16 -->
<g id="edge55_Node000001_Node000016" class="edge">
<title>Node1&#45;&gt;Node16</title>
<g id="a_edge55_Node000001_Node000016"><a xlink:title=" ">
<path fill="none" stroke="#63b8ff" d="M1468.82,-318.8C1508.08,-291.58 1583.03,-230.89 1544,-187 1498.5,-135.83 1298.47,-183.11 1238,-151 1223.83,-143.47 1196.79,-108.85 1181.09,-87.7"/>
<polygon fill="#63b8ff" stroke="#63b8ff" points="1183.87,-85.57 1175.14,-79.57 1178.23,-89.71 1183.87,-85.57"/>
</a>
</g>
</g>
<!-- Node22 -->
<g id="Node000022" class="node">
<title>Node22</title>
<g id="a_Node000022"><a xlink:href="_element_bases_8hpp.html" target="_top" xlink:title=" ">
<polygon fill="white" stroke="#666666" points="774.5,-277.5 595.5,-277.5 595.5,-258.5 774.5,-258.5 774.5,-277.5"/>
<text text-anchor="middle" x="685" y="-265.5" font-family="Helvetica,sans-Serif" font-size="10.00">polyfem/basis/ElementBases.hpp</text>
</a>
</g>
</g>
<!-- Node1&#45;&gt;Node22 -->
<g id="edge32_Node000001_Node000022" class="edge">
<title>Node1&#45;&gt;Node22</title>
<g id="a_edge32_Node000001_Node000022"><a xlink:title=" ">
<path fill="none" stroke="#63b8ff" d="M1378.71,-327.26C1243.68,-315.92 942.06,-290.59 784.76,-277.38"/>
<polygon fill="#63b8ff" stroke="#63b8ff" points="784.87,-273.88 774.61,-276.53 784.28,-280.85 784.87,-273.88"/>
</a>
</g>
</g>
<!-- Node27 -->
<g id="Node000027" class="node">
<title>Node27</title>
<g id="a_Node000027"><a xlink:href="_local_boundary_8hpp.html" target="_top" xlink:title=" ">
<polygon fill="white" stroke="#666666" points="1601,-145.5 1419,-145.5 1419,-126.5 1601,-126.5 1601,-145.5"/>
<text text-anchor="middle" x="1510" y="-133.5" font-family="Helvetica,sans-Serif" font-size="10.00">polyfem/mesh/LocalBoundary.hpp</text>
</a>
</g>
</g>
<!-- Node1&#45;&gt;Node27 -->
<g id="edge47_Node000001_Node000027" class="edge">
<title>Node1&#45;&gt;Node27</title>
<g id="a_edge47_Node000001_Node000027"><a xlink:title=" ">
<path fill="none" stroke="#63b8ff" d="M1515.01,-322.98C1538.64,-315.87 1562.76,-303.73 1577,-283 1601.16,-247.83 1596.13,-225.14 1577,-187 1568.99,-171.04 1553.21,-158.87 1538.97,-150.53"/>
<polygon fill="#63b8ff" stroke="#63b8ff" points="1540.38,-147.32 1529.93,-145.61 1537.03,-153.47 1540.38,-147.32"/>
</a>
</g>
</g>
<!-- Node28 -->
<g id="Node000028" class="node">
<title>Node28</title>
<g id="a_Node000028"><a xlink:href="_interface_data_8hpp.html" target="_top" xlink:title=" ">
<polygon fill="white" stroke="#666666" points="1535,-211.5 1359,-211.5 1359,-192.5 1535,-192.5 1535,-211.5"/>
<text text-anchor="middle" x="1447" y="-199.5" font-family="Helvetica,sans-Serif" font-size="10.00">polyfem/basis/InterfaceData.hpp</text>
</a>
</g>
</g>
<!-- Node1&#45;&gt;Node28 -->
<g id="edge52_Node000001_Node000028" class="edge">
<title>Node1&#45;&gt;Node28</title>
<g id="a_edge52_Node000001_Node000028"><a xlink:title=" ">
<path fill="none" stroke="#63b8ff" d="M1447,-318.84C1447,-295.34 1447,-248.26 1447,-221.93"/>
<polygon fill="#63b8ff" stroke="#63b8ff" points="1450.5,-221.75 1447,-211.75 1443.5,-221.75 1450.5,-221.75"/>
</a>
</g>
</g>
<!-- Node29 -->
<g id="Node000029" class="node">
<title>Node29</title>
<g id="a_Node000029"><a xlink:title=" ">
<polygon fill="#e0e0e0" stroke="#999999" points="1667,-277.5 1629,-277.5 1629,-258.5 1667,-258.5 1667,-277.5"/>
<text text-anchor="middle" x="1648" y="-265.5" font-family="Helvetica,sans-Serif" font-size="10.00">map</text>
</a>
</g>
</g>
<!-- Node1&#45;&gt;Node29 -->
<g id="edge56_Node000001_Node000029" class="edge">
<title>Node1&#45;&gt;Node29</title>
<g id="a_edge56_Node000001_Node000029"><a xlink:title=" ">
<path fill="none" stroke="#63b8ff" d="M1499.7,-318.95C1533.06,-309.66 1576.92,-296.7 1615,-283 1616.43,-282.49 1617.88,-281.94 1619.35,-281.38"/>
<polygon fill="#63b8ff" stroke="#63b8ff" points="1620.98,-284.5 1628.95,-277.51 1618.37,-278 1620.98,-284.5"/>
</a>
</g>
</g>
<!-- Node3 -->
<g id="Node000003" class="node">
<title>Node3</title>
<g id="a_Node000003"><a xlink:href="_common_8hpp.html" target="_top" xlink:title=" ">
<polygon fill="white" stroke="#666666" points="906.5,-145.5 781.5,-145.5 781.5,-126.5 906.5,-126.5 906.5,-145.5"/>
<text text-anchor="middle" x="844" y="-133.5" font-family="Helvetica,sans-Serif" font-size="10.00">polyfem/Common.hpp</text>
</a>
</g>
</g>
<!-- Node2&#45;&gt;Node3 -->
<g id="edge2_Node000002_Node000003" class="edge">
<title>Node2&#45;&gt;Node3</title>
<g id="a_edge2_Node000002_Node000003"><a xlink:title=" ">
<path fill="none" stroke="#63b8ff" d="M1137.48,-252.96C1072.79,-227.4 936.79,-173.66 875.33,-149.38"/>
<polygon fill="#63b8ff" stroke="#63b8ff" points="876.37,-146.03 865.78,-145.61 873.8,-152.54 876.37,-146.03"/>
</a>
</g>
</g>
<!-- Node6 -->
<g id="Node000006" class="node">
<title>Node6</title>
<g id="a_Node000006"><a xlink:href="_mesh_8hpp.html" target="_top" xlink:title=" ">
<polygon fill="white" stroke="#666666" points="686.5,-211.5 549.5,-211.5 549.5,-192.5 686.5,-192.5 686.5,-211.5"/>
<text text-anchor="middle" x="618" y="-199.5" font-family="Helvetica,sans-Serif" font-size="10.00">polyfem/mesh/Mesh.hpp</text>
</a>
</g>
</g>
<!-- Node2&#45;&gt;Node6 -->
<g id="edge5_Node000002_Node000006" class="edge">
<title>Node2&#45;&gt;Node6</title>
<g id="a_edge5_Node000002_Node000006"><a xlink:title=" ">
<path fill="none" stroke="#63b8ff" d="M1107.18,-261.32C1015.82,-253.14 845.5,-236.82 701,-217 692.68,-215.86 683.9,-214.52 675.3,-213.14"/>
<polygon fill="#63b8ff" stroke="#63b8ff" points="675.76,-209.67 665.33,-211.5 674.63,-216.57 675.76,-209.67"/>
</a>
</g>
</g>
<!-- Node8 -->
<g id="Node000008" class="node">
<title>Node8</title>
<g id="a_Node000008"><a xlink:title=" ">
<polygon fill="#e0e0e0" stroke="#999999" points="472.5,-79.5 343.5,-79.5 343.5,-60.5 472.5,-60.5 472.5,-79.5"/>
<text text-anchor="middle" x="408" y="-67.5" font-family="Helvetica,sans-Serif" font-size="10.00">geogram/mesh/mesh.h</text>
</a>
</g>
</g>
<!-- Node2&#45;&gt;Node8 -->
<g id="edge27_Node000002_Node000008" class="edge">
<title>Node2&#45;&gt;Node8</title>
<g id="a_edge27_Node000002_Node000008"><a xlink:title=" ">
<path fill="none" stroke="#63b8ff" d="M1114.63,-252.91C1075.34,-243.25 1022.41,-229.89 976,-217 833.75,-177.5 801.21,-156.85 658,-121 639.24,-116.3 529.57,-94.71 461.86,-81.49"/>
<polygon fill="#63b8ff" stroke="#63b8ff" points="462.27,-78 451.79,-79.52 460.93,-84.87 462.27,-78"/>
</a>
</g>
</g>
<!-- Node2&#45;&gt;Node11 -->
<g id="edge29_Node000002_Node000011" class="edge">
<title>Node2&#45;&gt;Node11</title>
<g id="a_edge29_Node000002_Node000011"><a xlink:title=" ">
<path fill="none" stroke="#63b8ff" d="M1107.47,-263.38C898.59,-251.28 258.07,-209.68 187,-151 152.91,-122.86 133.48,-89.59 161,-55 178.68,-32.78 253.85,-20.71 304.99,-14.94"/>
<polygon fill="#63b8ff" stroke="#63b8ff" points="305.62,-18.39 315.19,-13.84 304.87,-11.44 305.62,-18.39"/>
</a>
</g>
</g>
<!-- Node15 -->
<g id="Node000015" class="node">
<title>Node15</title>
<g id="a_Node000015"><a xlink:title=" ">
<polygon fill="#e0e0e0" stroke="#999999" points="1412,-79.5 1370,-79.5 1370,-60.5 1412,-60.5 1412,-79.5"/>
<text text-anchor="middle" x="1391" y="-67.5" font-family="Helvetica,sans-Serif" font-size="10.00">array</text>
</a>
</g>
</g>
<!-- Node2&#45;&gt;Node15 -->
<g id="edge31_Node000002_Node000015" class="edge">
<title>Node2&#45;&gt;Node15</title>
<g id="a_edge31_Node000002_Node000015"><a xlink:title=" ">
<path fill="none" stroke="#63b8ff" d="M1223.15,-252.9C1270.36,-236.71 1338.52,-205.15 1371,-151 1382.37,-132.05 1387.3,-106.86 1389.42,-89.85"/>
<polygon fill="#63b8ff" stroke="#63b8ff" points="1392.94,-89.87 1390.49,-79.56 1385.98,-89.15 1392.94,-89.87"/>
</a>
</g>
</g>
<!-- Node2&#45;&gt;Node16 -->
<g id="edge30_Node000002_Node000016" class="edge">
<title>Node2&#45;&gt;Node16</title>
<g id="a_edge30_Node000002_Node000016"><a xlink:title=" ">
<path fill="none" stroke="#63b8ff" d="M1165.15,-252.61C1160.3,-242.88 1154.53,-229.55 1152,-217 1142.87,-171.71 1155.16,-117.45 1163.14,-89.57"/>
<polygon fill="#63b8ff" stroke="#63b8ff" points="1166.59,-90.22 1166.12,-79.64 1159.89,-88.21 1166.59,-90.22"/>
</a>
</g>
</g>
<!-- Node18 -->
<g id="Node000018" class="node">
<title>Node18</title>
<g id="a_Node000018"><a xlink:href="_navigation3_d_8hpp.html" target="_top" xlink:title=" ">
<polygon fill="white" stroke="#666666" points="1265,-211.5 1161,-211.5 1161,-192.5 1265,-192.5 1265,-211.5"/>
<text text-anchor="middle" x="1213" y="-199.5" font-family="Helvetica,sans-Serif" font-size="10.00">Navigation3D.hpp</text>
</a>
</g>
</g>
<!-- Node2&#45;&gt;Node18 -->
<g id="edge21_Node000002_Node000018" class="edge">
<title>Node2&#45;&gt;Node18</title>
<g id="a_edge21_Node000002_Node000018"><a xlink:title=" ">
<path fill="none" stroke="#63b8ff" d="M1181.88,-252.8C1187.81,-243.31 1195.65,-230.76 1201.98,-220.63"/>
<polygon fill="#63b8ff" stroke="#63b8ff" points="1205.14,-222.18 1207.47,-211.84 1199.2,-218.47 1205.14,-222.18"/>
</a>
</g>
</g>
<!-- Node19 -->
<g id="Node000019" class="node">
<title>Node19</title>
<g id="a_Node000019"><a xlink:href="_mesh3_d_storage_8hpp.html" target="_top" xlink:title=" ">
<polygon fill="white" stroke="#666666" points="1362.5,-145.5 1247.5,-145.5 1247.5,-126.5 1362.5,-126.5 1362.5,-145.5"/>
<text text-anchor="middle" x="1305" y="-133.5" font-family="Helvetica,sans-Serif" font-size="10.00">Mesh3DStorage.hpp</text>
</a>
</g>
</g>
<!-- Node2&#45;&gt;Node19 -->
<g id="edge26_Node000002_Node000019" class="edge">
<title>Node2&#45;&gt;Node19</title>
<g id="a_edge26_Node000002_Node000019"><a xlink:title=" ">
<path fill="none" stroke="#63b8ff" d="M1218.38,-252.9C1237.66,-244.98 1259.09,-233.32 1274,-217 1289.9,-199.6 1297.99,-173.14 1301.85,-155.47"/>
<polygon fill="#63b8ff" stroke="#63b8ff" points="1305.31,-156.03 1303.77,-145.54 1298.43,-154.69 1305.31,-156.03"/>
</a>
</g>
</g>
<!-- Node21 -->
<g id="Node000021" class="node">
<title>Node21</title>
<g id="a_Node000021"><a xlink:title=" ">
<polygon fill="#e0e0e0" stroke="#999999" points="1572,-79.5 1512,-79.5 1512,-60.5 1572,-60.5 1572,-79.5"/>
<text text-anchor="middle" x="1542" y="-67.5" font-family="Helvetica,sans-Serif" font-size="10.00">iostream</text>
</a>
</g>
</g>
<!-- Node2&#45;&gt;Node21 -->
<g id="edge28_Node000002_Node000021" class="edge">
<title>Node2&#45;&gt;Node21</title>
<g id="a_edge28_Node000002_Node000021"><a xlink:title=" ">
<path fill="none" stroke="#63b8ff" d="M1238.58,-263.21C1330.36,-257.05 1491.72,-242.88 1544,-217 1590.4,-194.03 1633.37,-167.2 1610,-121 1601.86,-104.91 1585.84,-92.74 1571.39,-84.43"/>
<polygon fill="#63b8ff" stroke="#63b8ff" points="1572.69,-81.16 1562.22,-79.53 1569.39,-87.33 1572.69,-81.16"/>
</a>
</g>
</g>
<!-- Node4 -->
<g id="Node000004" class="node">
<title>Node4</title>
<g id="a_Node000004"><a xlink:title=" ">
<polygon fill="#e0e0e0" stroke="#999999" points="957,-19 877,-19 877,0 957,0 957,-19"/>
<text text-anchor="middle" x="917" y="-7" font-family="Helvetica,sans-Serif" font-size="10.00">Eigen/Sparse</text>
</a>
</g>
</g>
<!-- Node3&#45;&gt;Node4 -->
<g id="edge3_Node000003_Node000004" class="edge">
<title>Node3&#45;&gt;Node4</title>
<g id="a_edge3_Node000003_Node000004"><a xlink:title=" ">
<path fill="none" stroke="#63b8ff" d="M881.46,-126.48C929.02,-115.3 1005.91,-95.81 1014,-85 1021.99,-74.32 1021.2,-66.22 1014,-55 1003.45,-38.55 985.13,-28.1 967.23,-21.5"/>
<polygon fill="#63b8ff" stroke="#63b8ff" points="967.98,-18.06 957.38,-18.22 965.76,-24.7 967.98,-18.06"/>
</a>
</g>
</g>
<!-- Node5 -->
<g id="Node000005" class="node">
<title>Node5</title>
<g id="a_Node000005"><a xlink:title=" ">
<polygon fill="#e0e0e0" stroke="#999999" points="1005,-79.5 895,-79.5 895,-60.5 1005,-60.5 1005,-79.5"/>
<text text-anchor="middle" x="950" y="-67.5" font-family="Helvetica,sans-Serif" font-size="10.00">nlohmann/json.hpp</text>
</a>
</g>
</g>
<!-- Node3&#45;&gt;Node5 -->
<g id="edge4_Node000003_Node000005" class="edge">
<title>Node3&#45;&gt;Node5</title>
<g id="a_edge4_Node000003_Node000005"><a xlink:title=" ">
<path fill="none" stroke="#63b8ff" d="M858.3,-126.37C875.92,-115.73 906.09,-97.51 926.99,-84.89"/>
<polygon fill="#63b8ff" stroke="#63b8ff" points="928.84,-87.86 935.59,-79.7 925.22,-81.87 928.84,-87.86"/>
</a>
</g>
</g>
<!-- Node6&#45;&gt;Node3 -->
<g id="edge6_Node000006_Node000003" class="edge">
<title>Node6&#45;&gt;Node3</title>
<g id="a_edge6_Node000006_Node000003"><a xlink:title=" ">
<path fill="none" stroke="#63b8ff" d="M648.48,-192.37C688.61,-181 759.26,-161 803.75,-148.4"/>
<polygon fill="#63b8ff" stroke="#63b8ff" points="804.98,-151.69 813.64,-145.6 803.07,-144.95 804.98,-151.69"/>
</a>
</g>
</g>
<!-- Node7 -->
<g id="Node000007" class="node">
<title>Node7</title>
<g id="a_Node000007"><a xlink:href="_navigation_8hpp.html" target="_top" xlink:title=" ">
<polygon fill="white" stroke="#666666" points="380.5,-151 249.5,-151 249.5,-121 380.5,-121 380.5,-151"/>
<text text-anchor="start" x="257.5" y="-139" font-family="Helvetica,sans-Serif" font-size="10.00">polyfem/mesh/mesh2D</text>
<text text-anchor="middle" x="315" y="-128" font-family="Helvetica,sans-Serif" font-size="10.00">/Navigation.hpp</text>
</a>
</g>
</g>
<!-- Node6&#45;&gt;Node7 -->
<g id="edge7_Node000006_Node000007" class="edge">
<title>Node6&#45;&gt;Node7</title>
<g id="a_edge7_Node000006_Node000007"><a xlink:title=" ">
<path fill="none" stroke="#63b8ff" d="M577.45,-192.44C529.81,-182.37 449.78,-165.47 390.59,-152.97"/>
<polygon fill="#63b8ff" stroke="#63b8ff" points="391.04,-149.48 380.53,-150.84 389.6,-156.33 391.04,-149.48"/>
</a>
</g>
</g>
<!-- Node6&#45;&gt;Node8 -->
<g id="edge19_Node000006_Node000008" class="edge">
<title>Node6&#45;&gt;Node8</title>
<g id="a_edge19_Node000006_Node000008"><a xlink:title=" ">
<path fill="none" stroke="#63b8ff" d="M549.26,-199.67C508.79,-195.23 459.52,-182.91 428,-151 412.08,-134.88 408.2,-108.12 407.56,-90.03"/>
<polygon fill="#63b8ff" stroke="#63b8ff" points="411.06,-89.81 407.5,-79.83 404.06,-89.85 411.06,-89.81"/>
</a>
</g>
</g>
<!-- Node10 -->
<g id="Node000010" class="node">
<title>Node10</title>
<g id="a_Node000010"><a xlink:href="_types_8hpp.html" target="_top" xlink:title=" ">
<polygon fill="white" stroke="#666666" points="745.5,-79.5 612.5,-79.5 612.5,-60.5 745.5,-60.5 745.5,-79.5"/>
<text text-anchor="middle" x="679" y="-67.5" font-family="Helvetica,sans-Serif" font-size="10.00">polyfem/utils/Types.hpp</text>
</a>
</g>
</g>
<!-- Node6&#45;&gt;Node10 -->
<g id="edge10_Node000006_Node000010" class="edge">
<title>Node6&#45;&gt;Node10</title>
<g id="a_edge10_Node000006_Node000010"><a xlink:title=" ">
<path fill="none" stroke="#63b8ff" d="M626.95,-192.24C636.04,-182.84 649.91,-167.09 658,-151 667.85,-131.4 673.42,-106.71 676.31,-89.98"/>
<polygon fill="#63b8ff" stroke="#63b8ff" points="679.81,-90.25 677.91,-79.83 672.9,-89.17 679.81,-90.25"/>
</a>
</g>
</g>
<!-- Node6&#45;&gt;Node11 -->
<g id="edge18_Node000006_Node000011" class="edge">
<title>Node6&#45;&gt;Node11</title>
<g id="a_edge18_Node000006_Node000011"><a xlink:title=" ">
<path fill="none" stroke="#63b8ff" d="M549.37,-196.87C455.73,-190.4 293.46,-175.95 240,-151 200.66,-132.64 185.48,-124.74 168,-85 143.19,-28.6 241.77,-14.58 304.86,-11.3"/>
<polygon fill="#63b8ff" stroke="#63b8ff" points="305.2,-14.78 315.04,-10.84 304.89,-7.79 305.2,-14.78"/>
</a>
</g>
</g>
<!-- Node13 -->
<g id="Node000013" class="node">
<title>Node13</title>
<g id="a_Node000013"><a xlink:href="_hash_utils_8hpp.html" target="_top" xlink:title=" ">
<polygon fill="white" stroke="#666666" points="1077,-145.5 925,-145.5 925,-126.5 1077,-126.5 1077,-145.5"/>
<text text-anchor="middle" x="1001" y="-133.5" font-family="Helvetica,sans-Serif" font-size="10.00">polyfem/utils/HashUtils.hpp</text>
</a>
</g>
</g>
<!-- Node6&#45;&gt;Node13 -->
<g id="edge14_Node000006_Node000013" class="edge">
<title>Node6&#45;&gt;Node13</title>
<g id="a_edge14_Node000006_Node000013"><a xlink:title=" ">
<path fill="none" stroke="#63b8ff" d="M669.26,-192.44C739.34,-180.72 864.9,-159.74 939.82,-147.22"/>
<polygon fill="#63b8ff" stroke="#63b8ff" points="940.76,-150.61 950.05,-145.51 939.61,-143.71 940.76,-150.61"/>
</a>
</g>
</g>
<!-- Node17 -->
<g id="Node000017" class="node">
<title>Node17</title>
<g id="a_Node000017"><a xlink:title=" ">
<polygon fill="#e0e0e0" stroke="#999999" points="649,-145.5 591,-145.5 591,-126.5 649,-126.5 649,-145.5"/>
<text text-anchor="middle" x="620" y="-133.5" font-family="Helvetica,sans-Serif" font-size="10.00">memory</text>
</a>
</g>
</g>
<!-- Node6&#45;&gt;Node17 -->
<g id="edge20_Node000006_Node000017" class="edge">
<title>Node6&#45;&gt;Node17</title>
<g id="a_edge20_Node000006_Node000017"><a xlink:title=" ">
<path fill="none" stroke="#63b8ff" d="M618.27,-192.37C618.56,-183.16 619.02,-168.29 619.4,-156.27"/>
<polygon fill="#63b8ff" stroke="#63b8ff" points="622.91,-156.01 619.72,-145.91 615.91,-155.79 622.91,-156.01"/>
</a>
</g>
</g>
<!-- Node7&#45;&gt;Node8 -->
<g id="edge8_Node000007_Node000008" class="edge">
<title>Node7&#45;&gt;Node8</title>
<g id="a_edge8_Node000007_Node000008"><a xlink:title=" ">
<path fill="none" stroke="#63b8ff" d="M335.64,-120.8C350.94,-110.27 371.71,-95.97 387.08,-85.4"/>
<polygon fill="#63b8ff" stroke="#63b8ff" points="389.16,-88.21 395.42,-79.66 385.2,-82.44 389.16,-88.21"/>
</a>
</g>
</g>
<!-- Node9 -->
<g id="Node000009" class="node">
<title>Node9</title>
<g id="a_Node000009"><a xlink:title=" ">
<polygon fill="#e0e0e0" stroke="#999999" points="325,-79.5 177,-79.5 177,-60.5 325,-60.5 325,-79.5"/>
<text text-anchor="middle" x="251" y="-67.5" font-family="Helvetica,sans-Serif" font-size="10.00">geogram/basic/attributes.h</text>
</a>
</g>
</g>
<!-- Node7&#45;&gt;Node9 -->
<g id="edge9_Node000007_Node000009" class="edge">
<title>Node7&#45;&gt;Node9</title>
<g id="a_edge9_Node000007_Node000009"><a xlink:title=" ">
<path fill="none" stroke="#63b8ff" d="M300.8,-120.8C290.82,-110.82 277.46,-97.46 267.09,-87.09"/>
<polygon fill="#63b8ff" stroke="#63b8ff" points="269.39,-84.44 259.84,-79.84 264.44,-89.39 269.39,-84.44"/>
</a>
</g>
</g>
<!-- Node10&#45;&gt;Node4 -->
<g id="edge12_Node000010_Node000004" class="edge">
<title>Node10&#45;&gt;Node4</title>
<g id="a_edge12_Node000010_Node000004"><a xlink:title=" ">
<path fill="none" stroke="#63b8ff" d="M713.61,-60.49C755.56,-50.18 826.34,-32.78 872.36,-21.47"/>
<polygon fill="#63b8ff" stroke="#63b8ff" points="873.48,-24.8 882.35,-19.02 871.8,-18 873.48,-24.8"/>
</a>
</g>
</g>
<!-- Node10&#45;&gt;Node11 -->
<g id="edge11_Node000010_Node000011" class="edge">
<title>Node10&#45;&gt;Node11</title>
<g id="a_edge11_Node000010_Node000011"><a xlink:title=" ">
<path fill="none" stroke="#63b8ff" d="M631.74,-60.49C570.54,-49.48 464.4,-30.37 402.56,-19.24"/>
<polygon fill="#63b8ff" stroke="#63b8ff" points="403.13,-15.79 392.66,-17.46 401.89,-22.68 403.13,-15.79"/>
</a>
</g>
</g>
<!-- Node12 -->
<g id="Node000012" class="node">
<title>Node12</title>
<g id="a_Node000012"><a xlink:title=" ">
<polygon fill="#e0e0e0" stroke="#999999" points="742.5,-19 615.5,-19 615.5,0 742.5,0 742.5,-19"/>
<text text-anchor="middle" x="679" y="-7" font-family="Helvetica,sans-Serif" font-size="10.00">ipc/utils/eigen_ext.hpp</text>
</a>
</g>
</g>
<!-- Node10&#45;&gt;Node12 -->
<g id="edge13_Node000010_Node000012" class="edge">
<title>Node10&#45;&gt;Node12</title>
<g id="a_edge13_Node000010_Node000012"><a xlink:title=" ">
<path fill="none" stroke="#63b8ff" d="M679,-60.37C679,-52.25 679,-39.81 679,-29.39"/>
<polygon fill="#63b8ff" stroke="#63b8ff" points="682.5,-29.17 679,-19.17 675.5,-29.17 682.5,-29.17"/>
</a>
</g>
</g>
<!-- Node14 -->
<g id="Node000014" class="node">
<title>Node14</title>
<g id="a_Node000014"><a xlink:title=" ">
<polygon fill="#e0e0e0" stroke="#999999" points="1114.5,-79.5 1061.5,-79.5 1061.5,-60.5 1114.5,-60.5 1114.5,-79.5"/>
<text text-anchor="middle" x="1088" y="-67.5" font-family="Helvetica,sans-Serif" font-size="10.00">cstddef</text>
</a>
</g>
</g>
<!-- Node13&#45;&gt;Node14 -->
<g id="edge15_Node000013_Node000014" class="edge">
<title>Node13&#45;&gt;Node14</title>
<g id="a_edge15_Node000013_Node000014"><a xlink:title=" ">
<path fill="none" stroke="#63b8ff" d="M1012.73,-126.37C1026.87,-115.97 1050.86,-98.32 1067.95,-85.75"/>
<polygon fill="#63b8ff" stroke="#63b8ff" points="1070.19,-88.44 1076.17,-79.7 1066.05,-82.81 1070.19,-88.44"/>
</a>
</g>
</g>
<!-- Node13&#45;&gt;Node15 -->
<g id="edge16_Node000013_Node000015" class="edge">
<title>Node13&#45;&gt;Node15</title>
<g id="a_edge16_Node000013_Node000015"><a xlink:title=" ">
<path fill="none" stroke="#63b8ff" d="M1053.19,-126.44C1135.55,-112.92 1293.13,-87.06 1359.89,-76.11"/>
<polygon fill="#63b8ff" stroke="#63b8ff" points="1360.49,-79.55 1369.8,-74.48 1359.36,-72.65 1360.49,-79.55"/>
</a>
</g>
</g>
<!-- Node13&#45;&gt;Node16 -->
<g id="edge17_Node000013_Node000016" class="edge">
<title>Node13&#45;&gt;Node16</title>
<g id="a_edge17_Node000013_Node000016"><a xlink:title=" ">
<path fill="none" stroke="#63b8ff" d="M1023.66,-126.37C1052.8,-115.27 1103.59,-95.92 1136.75,-83.28"/>
<polygon fill="#63b8ff" stroke="#63b8ff" points="1138.34,-86.43 1146.43,-79.6 1135.84,-79.89 1138.34,-86.43"/>
</a>
</g>
</g>
<!-- Node18&#45;&gt;Node19 -->
<g id="edge22_Node000018_Node000019" class="edge">
<title>Node18&#45;&gt;Node19</title>
<g id="a_edge22_Node000018_Node000019"><a xlink:title=" ">
<path fill="none" stroke="#63b8ff" d="M1225.41,-192.37C1240.36,-181.97 1265.72,-164.32 1283.8,-151.75"/>
<polygon fill="#63b8ff" stroke="#63b8ff" points="1286.28,-154.28 1292.5,-145.7 1282.29,-148.54 1286.28,-154.28"/>
</a>
</g>
</g>
<!-- Node19&#45;&gt;Node11 -->
<g id="edge24_Node000019_Node000011" class="edge">
<title>Node19&#45;&gt;Node11</title>
<g id="a_edge24_Node000019_Node000011"><a xlink:title=" ">
<path fill="none" stroke="#63b8ff" d="M1297.44,-126.43C1281.59,-109.15 1242.88,-70.48 1201,-55 1163.42,-41.11 577.35,-18.67 402.73,-12.26"/>
<polygon fill="#63b8ff" stroke="#63b8ff" points="402.67,-8.75 392.55,-11.89 402.42,-15.75 402.67,-8.75"/>
</a>
</g>
</g>
<!-- Node19&#45;&gt;Node16 -->
<g id="edge23_Node000019_Node000016" class="edge">
<title>Node19&#45;&gt;Node16</title>
<g id="a_edge23_Node000019_Node000016"><a xlink:title=" ">
<path fill="none" stroke="#63b8ff" d="M1286.66,-126.37C1263.54,-115.49 1223.59,-96.69 1196.73,-84.05"/>
<polygon fill="#63b8ff" stroke="#63b8ff" points="1198.02,-80.79 1187.49,-79.7 1195.04,-87.12 1198.02,-80.79"/>
</a>
</g>
</g>
<!-- Node20 -->
<g id="Node000020" class="node">
<title>Node20</title>
<g id="a_Node000020"><a xlink:title=" ">
<polygon fill="#e0e0e0" stroke="#999999" points="1331,-19 1279,-19 1279,0 1331,0 1331,-19"/>
<text text-anchor="middle" x="1305" y="-7" font-family="Helvetica,sans-Serif" font-size="10.00">cassert</text>
</a>
</g>
</g>
<!-- Node19&#45;&gt;Node20 -->
<g id="edge25_Node000019_Node000020" class="edge">
<title>Node19&#45;&gt;Node20</title>
<g id="a_edge25_Node000019_Node000020"><a xlink:title=" ">
<path fill="none" stroke="#63b8ff" d="M1305,-126.44C1305,-106.54 1305,-56.76 1305,-29.35"/>
<polygon fill="#63b8ff" stroke="#63b8ff" points="1308.5,-29.12 1305,-19.12 1301.5,-29.12 1308.5,-29.12"/>
</a>
</g>
</g>
<!-- Node22&#45;&gt;Node6 -->
<g id="edge42_Node000022_Node000006" class="edge">
<title>Node22&#45;&gt;Node6</title>
<g id="a_edge42_Node000022_Node000006"><a xlink:title=" ">
<path fill="none" stroke="#63b8ff" d="M675.96,-258.37C665.43,-248.31 647.81,-231.48 634.76,-219.01"/>
<polygon fill="#63b8ff" stroke="#63b8ff" points="636.97,-216.28 627.32,-211.91 632.14,-221.34 636.97,-216.28"/>
</a>
</g>
</g>
<!-- Node22&#45;&gt;Node16 -->
<g id="edge46_Node000022_Node000016" class="edge">
<title>Node22&#45;&gt;Node16</title>
<g id="a_edge46_Node000022_Node000016"><a xlink:title=" ">
<path fill="none" stroke="#63b8ff" d="M747.76,-258.46C829.98,-245.21 976.52,-214.31 1086,-151 1114.59,-134.47 1140.8,-106.01 1155.83,-87.87"/>
<polygon fill="#63b8ff" stroke="#63b8ff" points="1158.71,-89.87 1162.27,-79.89 1153.26,-85.48 1158.71,-89.87"/>
</a>
</g>
</g>
<!-- Node23 -->
<g id="Node000023" class="node">
<title>Node23</title>
<g id="a_Node000023"><a xlink:href="_basis_8hpp.html" target="_top" xlink:title=" ">
<polygon fill="white" stroke="#666666" points="573,-145.5 437,-145.5 437,-126.5 573,-126.5 573,-145.5"/>
<text text-anchor="middle" x="505" y="-133.5" font-family="Helvetica,sans-Serif" font-size="10.00">polyfem/basis/Basis.hpp</text>
</a>
</g>
</g>
<!-- Node22&#45;&gt;Node23 -->
<g id="edge33_Node000022_Node000023" class="edge">
<title>Node22&#45;&gt;Node23</title>
<g id="a_edge33_Node000022_Node000023"><a xlink:title=" ">
<path fill="none" stroke="#63b8ff" d="M627.39,-258.44C598.21,-251.52 563.97,-239.12 540,-217 522.28,-200.65 513.07,-173.75 508.64,-155.71"/>
<polygon fill="#63b8ff" stroke="#63b8ff" points="512.02,-154.81 506.46,-145.8 505.19,-156.32 512.02,-154.81"/>
</a>
</g>
</g>
<!-- Node24 -->
<g id="Node000024" class="node">
<title>Node24</title>
<g id="a_Node000024"><a xlink:href="_quadrature_8hpp.html" target="_top" xlink:title=" ">
<polygon fill="white" stroke="#666666" points="876.5,-85 763.5,-85 763.5,-55 876.5,-55 876.5,-85"/>
<text text-anchor="start" x="771.5" y="-73" font-family="Helvetica,sans-Serif" font-size="10.00">polyfem/quadrature</text>
<text text-anchor="middle" x="820" y="-62" font-family="Helvetica,sans-Serif" font-size="10.00">/Quadrature.hpp</text>
</a>
</g>
</g>
<!-- Node22&#45;&gt;Node24 -->
<g id="edge41_Node000022_Node000024" class="edge">
<title>Node22&#45;&gt;Node24</title>
<g id="a_edge41_Node000022_Node000024"><a xlink:title=" ">
<path fill="none" stroke="#63b8ff" d="M689.27,-258.34C700.95,-235.05 734.98,-169.58 772,-121 779.67,-110.93 789.14,-100.7 797.64,-92.13"/>
<polygon fill="#63b8ff" stroke="#63b8ff" points="800.13,-94.59 804.79,-85.08 795.21,-89.61 800.13,-94.59"/>
</a>
</g>
</g>
<!-- Node26 -->
<g id="Node000026" class="node">
<title>Node26</title>
<g id="a_Node000026"><a xlink:href="_assembly_values_8hpp.html" target="_top" xlink:title=" ">
<polygon fill="white" stroke="#666666" points="190,-217 28,-217 28,-187 190,-187 190,-217"/>
<text text-anchor="start" x="36" y="-205" font-family="Helvetica,sans-Serif" font-size="10.00">polyfem/assembler/Assembly</text>
<text text-anchor="middle" x="109" y="-194" font-family="Helvetica,sans-Serif" font-size="10.00">Values.hpp</text>
</a>
</g>
</g>
<!-- Node22&#45;&gt;Node26 -->
<g id="edge43_Node000022_Node000026" class="edge">
<title>Node22&#45;&gt;Node26</title>
<g id="a_edge43_Node000022_Node000026"><a xlink:title=" ">
<path fill="none" stroke="#63b8ff" d="M595.33,-258.83C498.63,-249.76 340.2,-234.11 204,-217 202.72,-216.84 201.43,-216.68 200.14,-216.51"/>
<polygon fill="#63b8ff" stroke="#63b8ff" points="200.45,-213.02 190.07,-215.18 199.53,-219.96 200.45,-213.02"/>
</a>
</g>
</g>
<!-- Node23&#45;&gt;Node10 -->
<g id="edge37_Node000023_Node000010" class="edge">
<title>Node23&#45;&gt;Node10</title>
<g id="a_edge37_Node000023_Node000010"><a xlink:title=" ">
<path fill="none" stroke="#63b8ff" d="M528.47,-126.37C558.78,-115.22 611.71,-95.75 646.04,-83.12"/>
<polygon fill="#63b8ff" stroke="#63b8ff" points="647.45,-86.33 655.63,-79.6 645.03,-79.76 647.45,-86.33"/>
</a>
</g>
</g>
<!-- Node23&#45;&gt;Node11 -->
<g id="edge38_Node000023_Node000011" class="edge">
<title>Node23&#45;&gt;Node11</title>
<g id="a_edge38_Node000023_Node000011"><a xlink:title=" ">
<path fill="none" stroke="#63b8ff" d="M519.6,-126.4C543.03,-111.54 584.43,-80.21 564,-55 544.12,-30.47 458.55,-18.91 402.96,-13.91"/>
<polygon fill="#63b8ff" stroke="#63b8ff" points="403.22,-10.42 392.95,-13.05 402.62,-17.39 403.22,-10.42"/>
</a>
</g>
</g>
<!-- Node23&#45;&gt;Node16 -->
<g id="edge40_Node000023_Node000016" class="edge">
<title>Node23&#45;&gt;Node16</title>
<g id="a_edge40_Node000023_Node000016"><a xlink:title=" ">
<path fill="none" stroke="#63b8ff" d="M547.23,-126.43C558.49,-124.39 570.67,-122.4 582,-121 821.15,-91.4 885.96,-128.37 1123,-85 1127.16,-84.24 1131.47,-83.23 1135.71,-82.11"/>
<polygon fill="#63b8ff" stroke="#63b8ff" points="1136.74,-85.45 1145.38,-79.32 1134.8,-78.73 1136.74,-85.45"/>
</a>
</g>
</g>
<!-- Node23&#45;&gt;Node24 -->
<g id="edge34_Node000023_Node000024" class="edge">
<title>Node23&#45;&gt;Node24</title>
<g id="a_edge34_Node000023_Node000024"><a xlink:title=" ">
<path fill="none" stroke="#63b8ff" d="M548.21,-126.47C595.86,-117.03 675.05,-101.25 753.43,-85.1"/>
<polygon fill="#63b8ff" stroke="#63b8ff" points="754.4,-88.48 763.48,-83.03 752.98,-81.62 754.4,-88.48"/>
</a>
</g>
</g>
<!-- Node25 -->
<g id="Node000025" class="node">
<title>Node25</title>
<g id="a_Node000025"><a xlink:title=" ">
<polygon fill="#e0e0e0" stroke="#999999" points="555.5,-79.5 490.5,-79.5 490.5,-60.5 555.5,-60.5 555.5,-79.5"/>
<text text-anchor="middle" x="523" y="-67.5" font-family="Helvetica,sans-Serif" font-size="10.00">functional</text>
</a>
</g>
</g>
<!-- Node23&#45;&gt;Node25 -->
<g id="edge39_Node000023_Node000025" class="edge">
<title>Node23&#45;&gt;Node25</title>
<g id="a_edge39_Node000023_Node000025"><a xlink:title=" ">
<path fill="none" stroke="#63b8ff" d="M507.43,-126.37C510.04,-117.07 514.29,-101.98 517.68,-89.9"/>
<polygon fill="#63b8ff" stroke="#63b8ff" points="521.16,-90.48 520.5,-79.91 514.42,-88.58 521.16,-90.48"/>
</a>
</g>
</g>
<!-- Node24&#45;&gt;Node11 -->
<g id="edge35_Node000024_Node000011" class="edge">
<title>Node24&#45;&gt;Node11</title>
<g id="a_edge35_Node000024_Node000011"><a xlink:title=" ">
<path fill="none" stroke="#63b8ff" d="M763.18,-56.58C760.08,-56.02 757.01,-55.48 754,-55 628,-34.68 478.17,-20.7 402.66,-14.36"/>
<polygon fill="#63b8ff" stroke="#63b8ff" points="402.76,-10.86 392.5,-13.52 402.18,-17.83 402.76,-10.86"/>
</a>
</g>
</g>
<!-- Node24&#45;&gt;Node20 -->
<g id="edge36_Node000024_Node000020" class="edge">
<title>Node24&#45;&gt;Node20</title>
<g id="a_edge36_Node000024_Node000020"><a xlink:title=" ">
<path fill="none" stroke="#63b8ff" d="M876.81,-56.56C879.91,-56 882.99,-55.48 886,-55 1026.82,-32.65 1196.1,-18.54 1268.87,-13.07"/>
<polygon fill="#63b8ff" stroke="#63b8ff" points="1269.18,-16.56 1278.89,-12.33 1268.66,-9.58 1269.18,-16.56"/>
</a>
</g>
</g>
<!-- Node26&#45;&gt;Node11 -->
<g id="edge45_Node000026_Node000011" class="edge">
<title>Node26&#45;&gt;Node11</title>
<g id="a_edge45_Node000026_Node000011"><a xlink:title=" ">
<path fill="none" stroke="#63b8ff" d="M102.04,-186.98C88.99,-158.46 64.9,-93.14 97,-55 123.05,-24.05 237.95,-14.62 304.97,-11.76"/>
<polygon fill="#63b8ff" stroke="#63b8ff" points="305.44,-15.24 315.29,-11.35 305.16,-8.25 305.44,-15.24"/>
</a>
</g>
</g>
<!-- Node26&#45;&gt;Node23 -->
<g id="edge44_Node000026_Node000023" class="edge">
<title>Node26&#45;&gt;Node23</title>
<g id="a_edge44_Node000026_Node000023"><a xlink:title=" ">
<path fill="none" stroke="#63b8ff" d="M190.09,-187.89C264.67,-175.84 373.72,-158.22 441.96,-147.19"/>
<polygon fill="#63b8ff" stroke="#63b8ff" points="442.82,-150.59 452.14,-145.54 441.71,-143.68 442.82,-150.59"/>
</a>
</g>
</g>
<!-- Node27&#45;&gt;Node15 -->
<g id="edge48_Node000027_Node000015" class="edge">
<title>Node27&#45;&gt;Node15</title>
<g id="a_edge48_Node000027_Node000015"><a xlink:title=" ">
<path fill="none" stroke="#63b8ff" d="M1493.95,-126.37C1473.99,-115.63 1439.68,-97.18 1416.2,-84.55"/>
<polygon fill="#63b8ff" stroke="#63b8ff" points="1417.64,-81.35 1407.17,-79.7 1414.32,-87.52 1417.64,-81.35"/>
</a>
</g>
</g>
<!-- Node27&#45;&gt;Node16 -->
<g id="edge49_Node000027_Node000016" class="edge">
<title>Node27&#45;&gt;Node16</title>
<g id="a_edge49_Node000027_Node000016"><a xlink:title=" ">
<path fill="none" stroke="#63b8ff" d="M1464.37,-126.44C1394.88,-113.39 1264.16,-88.86 1202.64,-77.31"/>
<polygon fill="#63b8ff" stroke="#63b8ff" points="1203.15,-73.85 1192.68,-75.44 1201.86,-80.73 1203.15,-73.85"/>
</a>
</g>
</g>
<!-- Node27&#45;&gt;Node20 -->
<g id="edge51_Node000027_Node000020" class="edge">
<title>Node27&#45;&gt;Node20</title>
<g id="a_edge51_Node000027_Node000020"><a xlink:title=" ">
<path fill="none" stroke="#63b8ff" d="M1502.47,-126.4C1488.07,-110.41 1455.02,-75.82 1421,-55 1395.89,-39.63 1364.58,-28 1340.82,-20.49"/>
<polygon fill="#63b8ff" stroke="#63b8ff" points="1341.72,-17.11 1331.13,-17.52 1339.67,-23.8 1341.72,-17.11"/>
</a>
</g>
</g>
<!-- Node27&#45;&gt;Node21 -->
<g id="edge50_Node000027_Node000021" class="edge">
<title>Node27&#45;&gt;Node21</title>
<g id="a_edge50_Node000027_Node000021"><a xlink:title=" ">
<path fill="none" stroke="#63b8ff" d="M1514.32,-126.37C1519.06,-116.88 1526.82,-101.36 1532.92,-89.16"/>
<polygon fill="#63b8ff" stroke="#63b8ff" points="1536.21,-90.41 1537.55,-79.91 1529.94,-87.28 1536.21,-90.41"/>
</a>
</g>
</g>
<!-- Node28&#45;&gt;Node16 -->
<g id="edge53_Node000028_Node000016" class="edge">
<title>Node28&#45;&gt;Node16</title>
<g id="a_edge53_Node000028_Node000016"><a xlink:title=" ">
<path fill="none" stroke="#63b8ff" d="M1367.97,-192.5C1307.3,-184.56 1229.85,-170.93 1205,-151 1185.82,-135.62 1176.51,-107.83 1172.26,-89.39"/>
<polygon fill="#63b8ff" stroke="#63b8ff" points="1175.68,-88.65 1170.26,-79.55 1168.82,-90.05 1175.68,-88.65"/>
</a>
</g>
</g>
</g>
</svg>
