<?xml version="1.0" encoding="UTF-8" standalone="no"?>
<!DOCTYPE svg PUBLIC "-//W3C//DTD SVG 1.1//EN"
 "http://www.w3.org/Graphics/SVG/1.1/DTD/svg11.dtd">
<!-- Generated by graphviz version 2.43.0 (0)
 -->
<!-- Title: src/polyfem/quadrature/TetQuadrature.hpp Pages: 1 -->
<svg width="815pt" height="106pt"
 viewBox="0.00 0.00 815.00 106.00" xmlns="http://www.w3.org/2000/svg" xmlns:xlink="http://www.w3.org/1999/xlink">
<g id="graph0" class="graph" transform="scale(1 1) rotate(0) translate(4 102)">
<title>src/polyfem/quadrature/TetQuadrature.hpp</title>
<!-- Node1 -->
<g id="node1" class="node">
<title>Node1</title>
<g id="a_node1"><a xlink:title=" ">
<polygon fill="#bfbfbf" stroke="black" points="348,-67.5 348,-97.5 479,-97.5 479,-67.5 348,-67.5"/>
<text text-anchor="start" x="356" y="-85.5" font-family="Helvetica,sans-Serif" font-size="10.00">src/polyfem/quadrature</text>
<text text-anchor="middle" x="413.5" y="-74.5" font-family="Helvetica,sans-Serif" font-size="10.00">/TetQuadrature.hpp</text>
</a>
</g>
</g>
<!-- Node2 -->
<g id="node2" class="node">
<title>Node2</title>
<g id="a_node2"><a xlink:href="_state_8cpp.html" target="_top" xlink:title=" ">
<polygon fill="none" stroke="black" points="0,-6 0,-25 123,-25 123,-6 0,-6"/>
<text text-anchor="middle" x="61.5" y="-13" font-family="Helvetica,sans-Serif" font-size="10.00">src/polyfem/State.cpp</text>
</a>
</g>
</g>
<!-- Node1&#45;&gt;Node2 -->
<g id="edge1" class="edge">
<title>Node1&#45;&gt;Node2</title>
<path fill="none" stroke="midnightblue" d="M337.9,-68.41C281.28,-58.49 201.95,-44.33 132.5,-31 122.74,-29.13 112.24,-27.03 102.39,-25.02"/>
<polygon fill="midnightblue" stroke="midnightblue" points="337.39,-71.88 347.84,-70.15 338.59,-64.98 337.39,-71.88"/>
</g>
<!-- Node3 -->
<g id="node3" class="node">
<title>Node3</title>
<g id="a_node3"><a xlink:href="_f_e_basis3d_8cpp.html" target="_top" xlink:title=" ">
<polygon fill="none" stroke="black" points="141.5,-6 141.5,-25 317.5,-25 317.5,-6 141.5,-6"/>
<text text-anchor="middle" x="229.5" y="-13" font-family="Helvetica,sans-Serif" font-size="10.00">src/polyfem/basis/FEBasis3d.cpp</text>
</a>
</g>
</g>
<!-- Node1&#45;&gt;Node3 -->
<g id="edge2" class="edge">
<title>Node1&#45;&gt;Node3</title>
<path fill="none" stroke="midnightblue" d="M363.81,-63.95C328.07,-51.32 281.45,-34.85 253.58,-25.01"/>
<polygon fill="midnightblue" stroke="midnightblue" points="362.98,-67.37 373.57,-67.4 365.31,-60.76 362.98,-67.37"/>
</g>
<!-- Node4 -->
<g id="node4" class="node">
<title>Node4</title>
<g id="a_node4"><a xlink:href="_evaluator_8cpp.html" target="_top" xlink:title=" ">
<polygon fill="none" stroke="black" points="336,-6 336,-25 491,-25 491,-6 336,-6"/>
<text text-anchor="middle" x="413.5" y="-13" font-family="Helvetica,sans-Serif" font-size="10.00">src/polyfem/io/Evaluator.cpp</text>
</a>
</g>
</g>
<!-- Node1&#45;&gt;Node4 -->
<g id="edge3" class="edge">
<title>Node1&#45;&gt;Node4</title>
<path fill="none" stroke="midnightblue" d="M413.5,-57.25C413.5,-46.02 413.5,-33.38 413.5,-25.19"/>
<polygon fill="midnightblue" stroke="midnightblue" points="410,-57.4 413.5,-67.4 417,-57.4 410,-57.4"/>
</g>
<!-- Node5 -->
<g id="node5" class="node">
<title>Node5</title>
<g id="a_node5"><a xlink:href="_polyhedron_quadrature_8cpp.html" target="_top" xlink:title=" ">
<polygon fill="none" stroke="black" points="509,-0.5 509,-30.5 658,-30.5 658,-0.5 509,-0.5"/>
<text text-anchor="start" x="517" y="-18.5" font-family="Helvetica,sans-Serif" font-size="10.00">src/polyfem/quadrature</text>
<text text-anchor="middle" x="583.5" y="-7.5" font-family="Helvetica,sans-Serif" font-size="10.00">/PolyhedronQuadrature.cpp</text>
</a>
</g>
</g>
<!-- Node1&#45;&gt;Node5 -->
<g id="edge4" class="edge">
<title>Node1&#45;&gt;Node5</title>
<path fill="none" stroke="midnightblue" d="M459.74,-63.82C487.07,-53.37 521.19,-40.32 546.68,-30.58"/>
<polygon fill="midnightblue" stroke="midnightblue" points="458.48,-60.56 450.39,-67.4 460.98,-67.09 458.48,-60.56"/>
</g>
<!-- Node6 -->
<g id="node6" class="node">
<title>Node6</title>
<g id="a_node6"><a xlink:href="_tet_quadrature_8cpp.html" target="_top" xlink:title=" ">
<polygon fill="none" stroke="black" points="676,-0.5 676,-30.5 807,-30.5 807,-0.5 676,-0.5"/>
<text text-anchor="start" x="684" y="-18.5" font-family="Helvetica,sans-Serif" font-size="10.00">src/polyfem/quadrature</text>
<text text-anchor="middle" x="741.5" y="-7.5" font-family="Helvetica,sans-Serif" font-size="10.00">/TetQuadrature.cpp</text>
</a>
</g>
</g>
<!-- Node1&#45;&gt;Node6 -->
<g id="edge5" class="edge">
<title>Node1&#45;&gt;Node6</title>
<path fill="none" stroke="midnightblue" d="M489.03,-66.53C545.45,-55.35 621.82,-40.22 675.75,-29.53"/>
<polygon fill="midnightblue" stroke="midnightblue" points="488.22,-63.13 479.09,-68.5 489.58,-69.99 488.22,-63.13"/>
</g>
</g>
</svg>
