<?xml version="1.0" encoding="UTF-8" standalone="no"?>
<!DOCTYPE svg PUBLIC "-//W3C//DTD SVG 1.1//EN"
 "http://www.w3.org/Graphics/SVG/1.1/DTD/svg11.dtd">
<!-- Generated by graphviz version 2.43.0 (0)
 -->
<!-- Title: src/polyfem/quadrature/TriQuadrature.cpp Pages: 1 -->
<svg width="588pt" height="218pt"
 viewBox="0.00 0.00 587.50 218.00" xmlns="http://www.w3.org/2000/svg" xmlns:xlink="http://www.w3.org/1999/xlink">
<g id="graph0" class="graph" transform="scale(1 1) rotate(0) translate(4 214)">
<title>src/polyfem/quadrature/TriQuadrature.cpp</title>
<!-- Node1 -->
<g id="node1" class="node">
<title>Node1</title>
<g id="a_node1"><a xlink:title=" ">
<polygon fill="#bfbfbf" stroke="black" points="245.5,-179.5 245.5,-209.5 376.5,-209.5 376.5,-179.5 245.5,-179.5"/>
<text text-anchor="start" x="253.5" y="-197.5" font-family="Helvetica,sans-Serif" font-size="10.00">src/polyfem/quadrature</text>
<text text-anchor="middle" x="311" y="-186.5" font-family="Helvetica,sans-Serif" font-size="10.00">/TriQuadrature.cpp</text>
</a>
</g>
</g>
<!-- Node2 -->
<g id="node2" class="node">
<title>Node2</title>
<g id="a_node2"><a xlink:href="_tri_quadrature_8hpp.html" target="_top" xlink:title=" ">
<polygon fill="none" stroke="black" points="0,-118 0,-137 104,-137 104,-118 0,-118"/>
<text text-anchor="middle" x="52" y="-125" font-family="Helvetica,sans-Serif" font-size="10.00">TriQuadrature.hpp</text>
</a>
</g>
</g>
<!-- Node1&#45;&gt;Node2 -->
<g id="edge1" class="edge">
<title>Node1&#45;&gt;Node2</title>
<path fill="none" stroke="midnightblue" d="M255.12,-179.48C207.38,-167.5 139.67,-150.5 95.78,-139.49"/>
<polygon fill="midnightblue" stroke="midnightblue" points="96.53,-136.07 85.98,-137.03 94.83,-142.86 96.53,-136.07"/>
</g>
<!-- Node5 -->
<g id="node5" class="node">
<title>Node5</title>
<g id="a_node5"><a xlink:href="_line_quadrature_8hpp.html" target="_top" xlink:title=" ">
<polygon fill="none" stroke="black" points="122.5,-118 122.5,-137 235.5,-137 235.5,-118 122.5,-118"/>
<text text-anchor="middle" x="179" y="-125" font-family="Helvetica,sans-Serif" font-size="10.00">LineQuadrature.hpp</text>
</a>
</g>
</g>
<!-- Node1&#45;&gt;Node5 -->
<g id="edge4" class="edge">
<title>Node1&#45;&gt;Node5</title>
<path fill="none" stroke="midnightblue" d="M282.36,-179.4C259.5,-168.14 227.74,-152.5 205.48,-141.54"/>
<polygon fill="midnightblue" stroke="midnightblue" points="206.79,-138.28 196.28,-137.01 203.7,-144.56 206.79,-138.28"/>
</g>
<!-- Node6 -->
<g id="node6" class="node">
<title>Node6</title>
<g id="a_node6"><a xlink:title=" ">
<polygon fill="none" stroke="#bfbfbf" points="253.5,-118 253.5,-137 300.5,-137 300.5,-118 253.5,-118"/>
<text text-anchor="middle" x="277" y="-125" font-family="Helvetica,sans-Serif" font-size="10.00">vector</text>
</a>
</g>
</g>
<!-- Node1&#45;&gt;Node6 -->
<g id="edge6" class="edge">
<title>Node1&#45;&gt;Node6</title>
<path fill="none" stroke="midnightblue" d="M303.62,-179.4C298.53,-169.66 291.72,-156.65 286.27,-146.21"/>
<polygon fill="midnightblue" stroke="midnightblue" points="289.28,-144.43 281.55,-137.19 283.08,-147.68 289.28,-144.43"/>
</g>
<!-- Node7 -->
<g id="node7" class="node">
<title>Node7</title>
<g id="a_node7"><a xlink:title=" ">
<polygon fill="none" stroke="#bfbfbf" points="319,-118 319,-137 371,-137 371,-118 319,-118"/>
<text text-anchor="middle" x="345" y="-125" font-family="Helvetica,sans-Serif" font-size="10.00">cassert</text>
</a>
</g>
</g>
<!-- Node1&#45;&gt;Node7 -->
<g id="edge7" class="edge">
<title>Node1&#45;&gt;Node7</title>
<path fill="none" stroke="midnightblue" d="M318.38,-179.4C323.47,-169.66 330.28,-156.65 335.73,-146.21"/>
<polygon fill="midnightblue" stroke="midnightblue" points="338.92,-147.68 340.45,-137.19 332.72,-144.43 338.92,-147.68"/>
</g>
<!-- Node8 -->
<g id="node8" class="node">
<title>Node8</title>
<g id="a_node8"><a xlink:title=" ">
<polygon fill="none" stroke="#bfbfbf" points="389.5,-118 389.5,-137 436.5,-137 436.5,-118 389.5,-118"/>
<text text-anchor="middle" x="413" y="-125" font-family="Helvetica,sans-Serif" font-size="10.00">cmath</text>
</a>
</g>
</g>
<!-- Node1&#45;&gt;Node8 -->
<g id="edge8" class="edge">
<title>Node1&#45;&gt;Node8</title>
<path fill="none" stroke="midnightblue" d="M333.13,-179.4C350.24,-168.5 373.8,-153.48 390.9,-142.58"/>
<polygon fill="midnightblue" stroke="midnightblue" points="393.1,-145.33 399.65,-137.01 389.34,-139.43 393.1,-145.33"/>
</g>
<!-- Node9 -->
<g id="node9" class="node">
<title>Node9</title>
<g id="a_node9"><a xlink:href="auto__triangle_8ipp.html" target="_top" xlink:title=" ">
<polygon fill="none" stroke="black" points="454.5,-112.5 454.5,-142.5 579.5,-142.5 579.5,-112.5 454.5,-112.5"/>
<text text-anchor="start" x="462.5" y="-130.5" font-family="Helvetica,sans-Serif" font-size="10.00">polyfem/autogen/auto</text>
<text text-anchor="middle" x="517" y="-119.5" font-family="Helvetica,sans-Serif" font-size="10.00">_triangle.ipp</text>
</a>
</g>
</g>
<!-- Node1&#45;&gt;Node9 -->
<g id="edge9" class="edge">
<title>Node1&#45;&gt;Node9</title>
<path fill="none" stroke="midnightblue" d="M355.45,-179.48C386.88,-169.56 429.21,-156.2 462.65,-145.65"/>
<polygon fill="midnightblue" stroke="midnightblue" points="463.8,-148.96 472.28,-142.61 461.69,-142.28 463.8,-148.96"/>
</g>
<!-- Node3 -->
<g id="node3" class="node">
<title>Node3</title>
<g id="a_node3"><a xlink:href="_quadrature_8hpp.html" target="_top" xlink:title=" ">
<polygon fill="none" stroke="black" points="69,-56.5 69,-75.5 161,-75.5 161,-56.5 69,-56.5"/>
<text text-anchor="middle" x="115" y="-63.5" font-family="Helvetica,sans-Serif" font-size="10.00">Quadrature.hpp</text>
</a>
</g>
</g>
<!-- Node2&#45;&gt;Node3 -->
<g id="edge2" class="edge">
<title>Node2&#45;&gt;Node3</title>
<path fill="none" stroke="midnightblue" d="M61.03,-117.98C70.76,-108.78 86.46,-93.96 98.42,-82.66"/>
<polygon fill="midnightblue" stroke="midnightblue" points="101.12,-84.92 105.99,-75.51 96.32,-79.83 101.12,-84.92"/>
</g>
<!-- Node4 -->
<g id="node4" class="node">
<title>Node4</title>
<g id="a_node4"><a xlink:title=" ">
<polygon fill="none" stroke="#bfbfbf" points="76.5,-0.5 76.5,-19.5 153.5,-19.5 153.5,-0.5 76.5,-0.5"/>
<text text-anchor="middle" x="115" y="-7.5" font-family="Helvetica,sans-Serif" font-size="10.00">Eigen/Dense</text>
</a>
</g>
</g>
<!-- Node3&#45;&gt;Node4 -->
<g id="edge3" class="edge">
<title>Node3&#45;&gt;Node4</title>
<path fill="none" stroke="midnightblue" d="M115,-56.08C115,-49.01 115,-38.86 115,-29.99"/>
<polygon fill="midnightblue" stroke="midnightblue" points="118.5,-29.75 115,-19.75 111.5,-29.75 118.5,-29.75"/>
</g>
<!-- Node5&#45;&gt;Node3 -->
<g id="edge5" class="edge">
<title>Node5&#45;&gt;Node3</title>
<path fill="none" stroke="midnightblue" d="M169.83,-117.98C159.85,-108.7 143.69,-93.67 131.49,-82.33"/>
<polygon fill="midnightblue" stroke="midnightblue" points="133.86,-79.75 124.15,-75.51 129.09,-84.88 133.86,-79.75"/>
</g>
</g>
</svg>
