<?xml version="1.0" encoding="UTF-8" standalone="no"?>
<!DOCTYPE svg PUBLIC "-//W3C//DTD SVG 1.1//EN"
 "http://www.w3.org/Graphics/SVG/1.1/DTD/svg11.dtd">
<!-- Generated by graphviz version 2.43.0 (0)
 -->
<!-- Title: src/polyfem/optimization/forms/VariableToSimulation.hpp Pages: 1 -->
<svg width="499pt" height="236pt"
 viewBox="0.00 0.00 499.00 236.00" xmlns="http://www.w3.org/2000/svg" xmlns:xlink="http://www.w3.org/1999/xlink">

<svg id="main" version="1.1" xmlns="http://www.w3.org/2000/svg" xmlns:xlink="http://www.w3.org/1999/xlink" xml:space="preserve" onload="init(evt)">
<style type="text/css"><![CDATA[
.node, .edge {opacity: 0.7;}
.node.selected, .edge.selected {opacity: 1;}
.edge:hover path { stroke: red; }
.edge:hover polygon { stroke: red; fill: red; }
]]></style>
<script type="application/ecmascript" xlink:href="svg.min.js"/>
<svg id="graph" class="graph">
<g id="graph0" class="graph" transform="scale(1 1) rotate(0) translate(4 232)">
<title>src/polyfem/optimization/forms/VariableToSimulation.hpp</title>
<!-- Node1 -->
<g id="Node000001" class="node">
<title>Node1</title>
<g id="a_Node000001"><a xlink:title=" ">
<polygon fill="#999999" stroke="#666666" points="358.5,-228 183.5,-228 183.5,-198 358.5,-198 358.5,-228"/>
<text text-anchor="start" x="191.5" y="-216" font-family="Helvetica,sans-Serif" font-size="10.00">src/polyfem/optimization</text>
<text text-anchor="middle" x="271" y="-205" font-family="Helvetica,sans-Serif" font-size="10.00">/forms/VariableToSimulation.hpp</text>
</a>
</g>
</g>
<!-- Node2 -->
<g id="Node000002" class="node">
<title>Node2</title>
<g id="a_Node000002"><a xlink:href="_parametrization_8hpp.html" target="_top" xlink:title=" ">
<polygon fill="white" stroke="#666666" points="199.5,-85 0.5,-85 0.5,-55 199.5,-55 199.5,-85"/>
<text text-anchor="start" x="8.5" y="-73" font-family="Helvetica,sans-Serif" font-size="10.00">polyfem/optimization</text>
<text text-anchor="middle" x="100" y="-62" font-family="Helvetica,sans-Serif" font-size="10.00">/parametrization/Parametrization.hpp</text>
</a>
</g>
</g>
<!-- Node1&#45;&gt;Node2 -->
<g id="edge1_Node000001_Node000002" class="edge">
<title>Node1&#45;&gt;Node2</title>
<g id="a_edge1_Node000001_Node000002"><a xlink:title=" ">
<path fill="none" stroke="#63b8ff" d="M188.79,-197.98C149.94,-189.51 109.56,-177.37 98,-162 83.75,-143.05 86.89,-115.06 91.93,-95.13"/>
<polygon fill="#63b8ff" stroke="#63b8ff" points="95.37,-95.84 94.74,-85.26 88.64,-93.92 95.37,-95.84"/>
</a>
</g>
</g>
<!-- Node6 -->
<g id="Node000006" class="node">
<title>Node6</title>
<g id="a_Node000006"><a xlink:href="_adjoint_tools_8hpp.html" target="_top" xlink:title=" ">
<polygon fill="white" stroke="#666666" points="413,-156.5 291,-156.5 291,-126.5 413,-126.5 413,-156.5"/>
<text text-anchor="start" x="299" y="-144.5" font-family="Helvetica,sans-Serif" font-size="10.00">polyfem/optimization</text>
<text text-anchor="middle" x="352" y="-133.5" font-family="Helvetica,sans-Serif" font-size="10.00">/AdjointTools.hpp</text>
</a>
</g>
</g>
<!-- Node1&#45;&gt;Node6 -->
<g id="edge5_Node000001_Node000006" class="edge">
<title>Node1&#45;&gt;Node6</title>
<g id="a_edge5_Node000001_Node000006"><a xlink:title=" ">
<path fill="none" stroke="#63b8ff" d="M287.39,-197.94C299.03,-187.95 314.84,-174.38 327.91,-163.17"/>
<polygon fill="#63b8ff" stroke="#63b8ff" points="330.32,-165.71 335.63,-156.54 325.76,-160.4 330.32,-165.71"/>
</a>
</g>
</g>
<!-- Node11 -->
<g id="Node000011" class="node">
<title>Node11</title>
<g id="a_Node000011"><a xlink:href="_periodic_mesh_to_mesh_8hpp.html" target="_top" xlink:title=" ">
<polygon fill="white" stroke="#666666" points="273,-162 107,-162 107,-121 273,-121 273,-162"/>
<text text-anchor="start" x="115" y="-150" font-family="Helvetica,sans-Serif" font-size="10.00">polyfem/optimization</text>
<text text-anchor="start" x="115" y="-139" font-family="Helvetica,sans-Serif" font-size="10.00">/parametrization/PeriodicMesh</text>
<text text-anchor="middle" x="190" y="-128" font-family="Helvetica,sans-Serif" font-size="10.00">ToMesh.hpp</text>
</a>
</g>
</g>
<!-- Node1&#45;&gt;Node11 -->
<g id="edge10_Node000001_Node000011" class="edge">
<title>Node1&#45;&gt;Node11</title>
<g id="a_edge10_Node000001_Node000011"><a xlink:title=" ">
<path fill="none" stroke="#63b8ff" d="M254.61,-197.94C244.84,-189.56 232.14,-178.65 220.58,-168.74"/>
<polygon fill="#63b8ff" stroke="#63b8ff" points="222.68,-165.93 212.81,-162.07 218.12,-171.24 222.68,-165.93"/>
</a>
</g>
</g>
<!-- Node12 -->
<g id="Node000012" class="node">
<title>Node12</title>
<g id="a_Node000012"><a xlink:title=" ">
<polygon fill="#e0e0e0" stroke="#999999" points="491,-151 431,-151 431,-132 491,-132 491,-151"/>
<text text-anchor="middle" x="461" y="-139" font-family="Helvetica,sans-Serif" font-size="10.00">iostream</text>
</a>
</g>
</g>
<!-- Node1&#45;&gt;Node12 -->
<g id="edge14_Node000001_Node000012" class="edge">
<title>Node1&#45;&gt;Node12</title>
<g id="a_edge14_Node000001_Node000012"><a xlink:title=" ">
<path fill="none" stroke="#63b8ff" d="M319.25,-197.97C349.22,-188.77 388.31,-175.92 422,-162 426.57,-160.11 431.35,-157.92 435.93,-155.7"/>
<polygon fill="#63b8ff" stroke="#63b8ff" points="437.55,-158.8 444.92,-151.19 434.42,-152.54 437.55,-158.8"/>
</a>
</g>
</g>
<!-- Node3 -->
<g id="Node000003" class="node">
<title>Node3</title>
<g id="a_Node000003"><a xlink:title=" ">
<polygon fill="#e0e0e0" stroke="#999999" points="58,-19 0,-19 0,0 58,0 58,-19"/>
<text text-anchor="middle" x="29" y="-7" font-family="Helvetica,sans-Serif" font-size="10.00">memory</text>
</a>
</g>
</g>
<!-- Node2&#45;&gt;Node3 -->
<g id="edge2_Node000002_Node000003" class="edge">
<title>Node2&#45;&gt;Node3</title>
<g id="a_edge2_Node000002_Node000003"><a xlink:title=" ">
<path fill="none" stroke="#63b8ff" d="M82.81,-54.84C72.19,-46.09 58.56,-34.85 47.67,-25.88"/>
<polygon fill="#63b8ff" stroke="#63b8ff" points="49.58,-22.92 39.64,-19.27 45.13,-28.33 49.58,-22.92"/>
</a>
</g>
</g>
<!-- Node4 -->
<g id="Node000004" class="node">
<title>Node4</title>
<g id="a_Node000004"><a xlink:title=" ">
<polygon fill="#e0e0e0" stroke="#999999" points="123.5,-19 76.5,-19 76.5,0 123.5,0 123.5,-19"/>
<text text-anchor="middle" x="100" y="-7" font-family="Helvetica,sans-Serif" font-size="10.00">vector</text>
</a>
</g>
</g>
<!-- Node2&#45;&gt;Node4 -->
<g id="edge3_Node000002_Node000004" class="edge">
<title>Node2&#45;&gt;Node4</title>
<g id="a_edge3_Node000002_Node000004"><a xlink:title=" ">
<path fill="none" stroke="#63b8ff" d="M100,-54.84C100,-47.21 100,-37.7 100,-29.45"/>
<polygon fill="#63b8ff" stroke="#63b8ff" points="103.5,-29.27 100,-19.27 96.5,-29.27 103.5,-29.27"/>
</a>
</g>
</g>
<!-- Node5 -->
<g id="Node000005" class="node">
<title>Node5</title>
<g id="a_Node000005"><a xlink:title=" ">
<polygon fill="#e0e0e0" stroke="#999999" points="210.5,-19 141.5,-19 141.5,0 210.5,0 210.5,-19"/>
<text text-anchor="middle" x="176" y="-7" font-family="Helvetica,sans-Serif" font-size="10.00">Eigen/Core</text>
</a>
</g>
</g>
<!-- Node2&#45;&gt;Node5 -->
<g id="edge4_Node000002_Node000005" class="edge">
<title>Node2&#45;&gt;Node5</title>
<g id="a_edge4_Node000002_Node000005"><a xlink:title=" ">
<path fill="none" stroke="#63b8ff" d="M118.4,-54.84C129.88,-46 144.65,-34.63 156.36,-25.62"/>
<polygon fill="#63b8ff" stroke="#63b8ff" points="158.82,-28.14 164.61,-19.27 154.55,-22.59 158.82,-28.14"/>
</a>
</g>
</g>
<!-- Node7 -->
<g id="Node000007" class="node">
<title>Node7</title>
<g id="a_Node000007"><a xlink:href="_common_8hpp.html" target="_top" xlink:title=" ">
<polygon fill="white" stroke="#666666" points="408.5,-79.5 283.5,-79.5 283.5,-60.5 408.5,-60.5 408.5,-79.5"/>
<text text-anchor="middle" x="346" y="-67.5" font-family="Helvetica,sans-Serif" font-size="10.00">polyfem/Common.hpp</text>
</a>
</g>
</g>
<!-- Node6&#45;&gt;Node7 -->
<g id="edge6_Node000006_Node000007" class="edge">
<title>Node6&#45;&gt;Node7</title>
<g id="a_edge6_Node000006_Node000007"><a xlink:title=" ">
<path fill="none" stroke="#63b8ff" d="M350.79,-126.44C349.88,-115.96 348.64,-101.55 347.64,-90.05"/>
<polygon fill="#63b8ff" stroke="#63b8ff" points="351.1,-89.43 346.76,-79.77 344.13,-90.03 351.1,-89.43"/>
</a>
</g>
</g>
<!-- Node10 -->
<g id="Node000010" class="node">
<title>Node10</title>
<g id="a_Node000010"><a xlink:title=" ">
<polygon fill="#e0e0e0" stroke="#999999" points="260,-79.5 228,-79.5 228,-60.5 260,-60.5 260,-79.5"/>
<text text-anchor="middle" x="244" y="-67.5" font-family="Helvetica,sans-Serif" font-size="10.00">set</text>
</a>
</g>
</g>
<!-- Node6&#45;&gt;Node10 -->
<g id="edge9_Node000006_Node000010" class="edge">
<title>Node6&#45;&gt;Node10</title>
<g id="a_edge9_Node000006_Node000010"><a xlink:title=" ">
<path fill="none" stroke="#63b8ff" d="M330.14,-126.44C311.39,-114.37 284.51,-97.07 265.78,-85.02"/>
<polygon fill="#63b8ff" stroke="#63b8ff" points="267.62,-82.04 257.31,-79.57 263.83,-87.92 267.62,-82.04"/>
</a>
</g>
</g>
<!-- Node8 -->
<g id="Node000008" class="node">
<title>Node8</title>
<g id="a_Node000008"><a xlink:title=" ">
<polygon fill="#e0e0e0" stroke="#999999" points="468,-19 388,-19 388,0 468,0 468,-19"/>
<text text-anchor="middle" x="428" y="-7" font-family="Helvetica,sans-Serif" font-size="10.00">Eigen/Sparse</text>
</a>
</g>
</g>
<!-- Node7&#45;&gt;Node8 -->
<g id="edge7_Node000007_Node000008" class="edge">
<title>Node7&#45;&gt;Node8</title>
<g id="a_edge7_Node000007_Node000008"><a xlink:title=" ">
<path fill="none" stroke="#63b8ff" d="M358.1,-60.37C371.06,-51.12 391.86,-36.28 407.4,-25.19"/>
<polygon fill="#63b8ff" stroke="#63b8ff" points="409.74,-27.82 415.85,-19.17 405.68,-22.13 409.74,-27.82"/>
</a>
</g>
</g>
<!-- Node9 -->
<g id="Node000009" class="node">
<title>Node9</title>
<g id="a_Node000009"><a xlink:title=" ">
<polygon fill="#e0e0e0" stroke="#999999" points="370,-19 260,-19 260,0 370,0 370,-19"/>
<text text-anchor="middle" x="315" y="-7" font-family="Helvetica,sans-Serif" font-size="10.00">nlohmann/json.hpp</text>
</a>
</g>
</g>
<!-- Node7&#45;&gt;Node9 -->
<g id="edge8_Node000007_Node000009" class="edge">
<title>Node7&#45;&gt;Node9</title>
<g id="a_edge8_Node000007_Node000009"><a xlink:title=" ">
<path fill="none" stroke="#63b8ff" d="M341.43,-60.37C336.94,-51.9 329.97,-38.74 324.31,-28.07"/>
<polygon fill="#63b8ff" stroke="#63b8ff" points="327.37,-26.36 319.59,-19.17 321.18,-29.64 327.37,-26.36"/>
</a>
</g>
</g>
<!-- Node11&#45;&gt;Node2 -->
<g id="edge11_Node000011_Node000002" class="edge">
<title>Node11&#45;&gt;Node2</title>
<g id="a_edge11_Node000011_Node000002"><a xlink:title=" ">
<path fill="none" stroke="#63b8ff" d="M164.45,-120.77C152.46,-111.51 138.18,-100.49 126.12,-91.17"/>
<polygon fill="#63b8ff" stroke="#63b8ff" points="128.23,-88.38 118.18,-85.04 123.95,-93.92 128.23,-88.38"/>
</a>
</g>
</g>
<!-- Node11&#45;&gt;Node7 -->
<g id="edge12_Node000011_Node000007" class="edge">
<title>Node11&#45;&gt;Node7</title>
<g id="a_edge12_Node000011_Node000007"><a xlink:title=" ">
<path fill="none" stroke="#63b8ff" d="M233.87,-120.96C260.68,-109.01 294.19,-94.08 317.57,-83.67"/>
<polygon fill="#63b8ff" stroke="#63b8ff" points="319.2,-86.77 326.91,-79.5 316.35,-80.38 319.2,-86.77"/>
</a>
</g>
</g>
<!-- Node11&#45;&gt;Node10 -->
<g id="edge13_Node000011_Node000010" class="edge">
<title>Node11&#45;&gt;Node10</title>
<g id="a_edge13_Node000011_Node000010"><a xlink:title=" ">
<path fill="none" stroke="#63b8ff" d="M205.33,-120.77C213.43,-110.34 223.27,-97.68 231,-87.73"/>
<polygon fill="#63b8ff" stroke="#63b8ff" points="233.78,-89.86 237.15,-79.82 228.25,-85.57 233.78,-89.86"/>
</a>
</g>
</g>
</g>
</svg>
</svg>

<style type='text/css'>
<![CDATA[
[data-mouse-over-selected='false'] { opacity: 0.7; }
[data-mouse-over-selected='true']  { opacity: 1.0; }
]]>
</style>
<script type="application/ecmascript"><![CDATA[
document.addEventListener('DOMContentLoaded', (event) => {
  highlightEdges();
  highlightAdjacentNodes();
});
]]></script>
</svg>
