<?xml version="1.0" encoding="UTF-8" standalone="no"?>
<!DOCTYPE svg PUBLIC "-//W3C//DTD SVG 1.1//EN"
 "http://www.w3.org/Graphics/SVG/1.1/DTD/svg11.dtd">
<!-- Generated by graphviz version 2.43.0 (0)
 -->
<!-- Title: src/polyfem/autogen/auto_elasticity_rhs.cpp Pages: 1 -->
<svg width="1520pt" height="620pt"
 viewBox="0.00 0.00 1519.50 620.00" xmlns="http://www.w3.org/2000/svg" xmlns:xlink="http://www.w3.org/1999/xlink">
<g id="graph0" class="graph" transform="scale(1 1) rotate(0) translate(4 616)">
<title>src/polyfem/autogen/auto_elasticity_rhs.cpp</title>
<!-- Node1 -->
<g id="node1" class="node">
<title>Node1</title>
<g id="a_node1"><a xlink:title=" ">
<polygon fill="#bfbfbf" stroke="black" points="617.5,-581.5 617.5,-611.5 749.5,-611.5 749.5,-581.5 617.5,-581.5"/>
<text text-anchor="start" x="625.5" y="-599.5" font-family="Helvetica,sans-Serif" font-size="10.00">src/polyfem/autogen</text>
<text text-anchor="middle" x="683.5" y="-588.5" font-family="Helvetica,sans-Serif" font-size="10.00">/auto_elasticity_rhs.cpp</text>
</a>
</g>
</g>
<!-- Node2 -->
<g id="node2" class="node">
<title>Node2</title>
<g id="a_node2"><a xlink:href="auto__elasticity__rhs_8hpp.html" target="_top" xlink:title=" ">
<polygon fill="none" stroke="black" points="621,-514.5 621,-544.5 746,-544.5 746,-514.5 621,-514.5"/>
<text text-anchor="start" x="629" y="-532.5" font-family="Helvetica,sans-Serif" font-size="10.00">polyfem/autogen/auto</text>
<text text-anchor="middle" x="683.5" y="-521.5" font-family="Helvetica,sans-Serif" font-size="10.00">_elasticity_rhs.hpp</text>
</a>
</g>
</g>
<!-- Node1&#45;&gt;Node2 -->
<g id="edge1" class="edge">
<title>Node1&#45;&gt;Node2</title>
<path fill="none" stroke="midnightblue" d="M683.5,-581.4C683.5,-573.64 683.5,-563.81 683.5,-554.86"/>
<polygon fill="midnightblue" stroke="midnightblue" points="687,-554.58 683.5,-544.58 680,-554.58 687,-554.58"/>
</g>
<!-- Node3 -->
<g id="node3" class="node">
<title>Node3</title>
<g id="a_node3"><a xlink:href="_elasticity_utils_8hpp.html" target="_top" xlink:title=" ">
<polygon fill="none" stroke="black" points="619,-447.5 619,-477.5 748,-477.5 748,-447.5 619,-447.5"/>
<text text-anchor="start" x="627" y="-465.5" font-family="Helvetica,sans-Serif" font-size="10.00">polyfem/utils/Elasticity</text>
<text text-anchor="middle" x="683.5" y="-454.5" font-family="Helvetica,sans-Serif" font-size="10.00">Utils.hpp</text>
</a>
</g>
</g>
<!-- Node2&#45;&gt;Node3 -->
<g id="edge2" class="edge">
<title>Node2&#45;&gt;Node3</title>
<path fill="none" stroke="midnightblue" d="M683.5,-514.4C683.5,-506.64 683.5,-496.81 683.5,-487.86"/>
<polygon fill="midnightblue" stroke="midnightblue" points="687,-487.58 683.5,-477.58 680,-487.58 687,-487.58"/>
</g>
<!-- Node11 -->
<g id="node11" class="node">
<title>Node11</title>
<g id="a_node11"><a xlink:title=" ">
<polygon fill="none" stroke="#bfbfbf" points="1127,-0.5 1127,-19.5 1204,-19.5 1204,-0.5 1127,-0.5"/>
<text text-anchor="middle" x="1165.5" y="-7.5" font-family="Helvetica,sans-Serif" font-size="10.00">Eigen/Dense</text>
</a>
</g>
</g>
<!-- Node2&#45;&gt;Node11 -->
<g id="edge54" class="edge">
<title>Node2&#45;&gt;Node11</title>
<path fill="none" stroke="midnightblue" d="M746.07,-525.12C938.97,-513.87 1511.5,-473.97 1511.5,-396.5 1511.5,-396.5 1511.5,-396.5 1511.5,-137.5 1511.5,-77.01 1457.86,-80.38 1402.5,-56 1340.95,-28.89 1263.37,-18.09 1214.08,-13.8"/>
<polygon fill="midnightblue" stroke="midnightblue" points="1214.26,-10.3 1204.01,-12.98 1213.69,-17.28 1214.26,-10.3"/>
</g>
<!-- Node26 -->
<g id="node26" class="node">
<title>Node26</title>
<g id="a_node26"><a xlink:href="_autodiff_types_8hpp.html" target="_top" xlink:title=" ">
<polygon fill="none" stroke="black" points="149,-386 149,-405 320,-405 320,-386 149,-386"/>
<text text-anchor="middle" x="234.5" y="-393" font-family="Helvetica,sans-Serif" font-size="10.00">polyfem/utils/AutodiffTypes.hpp</text>
</a>
</g>
</g>
<!-- Node2&#45;&gt;Node26 -->
<g id="edge53" class="edge">
<title>Node2&#45;&gt;Node26</title>
<path fill="none" stroke="midnightblue" d="M635.87,-514.5C546.5,-488.22 355.29,-432.01 273.22,-407.88"/>
<polygon fill="midnightblue" stroke="midnightblue" points="274.12,-404.5 263.54,-405.04 272.14,-411.21 274.12,-404.5"/>
</g>
<!-- Node4 -->
<g id="node4" class="node">
<title>Node4</title>
<g id="a_node4"><a xlink:href="_common_8hpp.html" target="_top" xlink:title=" ">
<polygon fill="none" stroke="black" points="274,-129 274,-148 399,-148 399,-129 274,-129"/>
<text text-anchor="middle" x="336.5" y="-136" font-family="Helvetica,sans-Serif" font-size="10.00">polyfem/Common.hpp</text>
</a>
</g>
</g>
<!-- Node3&#45;&gt;Node4 -->
<g id="edge3" class="edge">
<title>Node3&#45;&gt;Node4</title>
<path fill="none" stroke="midnightblue" d="M618.86,-456.37C569.35,-450.45 500.45,-437.81 445.5,-411 394.89,-386.31 348.5,-385.81 348.5,-329.5 348.5,-329.5 348.5,-329.5 348.5,-266 348.5,-227.53 342.93,-182.77 339.38,-158.14"/>
<polygon fill="midnightblue" stroke="midnightblue" points="342.81,-157.44 337.88,-148.06 335.89,-158.47 342.81,-157.44"/>
</g>
<!-- Node7 -->
<g id="node7" class="node">
<title>Node7</title>
<g id="a_node7"><a xlink:href="_assembler_data_8hpp.html" target="_top" xlink:title=" ">
<polygon fill="none" stroke="black" points="1039.5,-380.5 1039.5,-410.5 1205.5,-410.5 1205.5,-380.5 1039.5,-380.5"/>
<text text-anchor="start" x="1047.5" y="-398.5" font-family="Helvetica,sans-Serif" font-size="10.00">polyfem/assembler/Assembler</text>
<text text-anchor="middle" x="1122.5" y="-387.5" font-family="Helvetica,sans-Serif" font-size="10.00">Data.hpp</text>
</a>
</g>
</g>
<!-- Node3&#45;&gt;Node7 -->
<g id="edge6" class="edge">
<title>Node3&#45;&gt;Node7</title>
<path fill="none" stroke="midnightblue" d="M748.28,-451.91C822.53,-440.91 944.86,-422.8 1029.34,-410.29"/>
<polygon fill="midnightblue" stroke="midnightblue" points="1030.06,-413.72 1039.44,-408.8 1029.04,-406.8 1030.06,-413.72"/>
</g>
<!-- Node3&#45;&gt;Node11 -->
<g id="edge49" class="edge">
<title>Node3&#45;&gt;Node11</title>
<path fill="none" stroke="midnightblue" d="M748.02,-459.39C885.89,-454.39 1205.16,-439.97 1309.5,-411 1387.93,-389.22 1473.5,-410.89 1473.5,-329.5 1473.5,-329.5 1473.5,-329.5 1473.5,-137.5 1473.5,-82.1 1300.86,-38.75 1214.08,-20.46"/>
<polygon fill="midnightblue" stroke="midnightblue" points="1214.7,-17.01 1204.2,-18.4 1213.28,-23.86 1214.7,-17.01"/>
</g>
<!-- Node13 -->
<g id="node13" class="node">
<title>Node13</title>
<g id="a_node13"><a xlink:href="_types_8hpp.html" target="_top" xlink:title=" ">
<polygon fill="none" stroke="black" points="334,-62 334,-81 467,-81 467,-62 334,-62"/>
<text text-anchor="middle" x="400.5" y="-69" font-family="Helvetica,sans-Serif" font-size="10.00">polyfem/utils/Types.hpp</text>
</a>
</g>
</g>
<!-- Node3&#45;&gt;Node13 -->
<g id="edge48" class="edge">
<title>Node3&#45;&gt;Node13</title>
<path fill="none" stroke="midnightblue" d="M670.67,-447.2C632.85,-404.63 519.58,-274.18 442.5,-154 429.12,-133.14 416.48,-107.51 408.63,-90.63"/>
<polygon fill="midnightblue" stroke="midnightblue" points="411.74,-89 404.4,-81.36 405.37,-91.91 411.74,-89"/>
</g>
<!-- Node14 -->
<g id="node14" class="node">
<title>Node14</title>
<g id="a_node14"><a xlink:title=" ">
<polygon fill="none" stroke="#bfbfbf" points="854,-62 854,-81 919,-81 919,-62 854,-62"/>
<text text-anchor="middle" x="886.5" y="-69" font-family="Helvetica,sans-Serif" font-size="10.00">functional</text>
</a>
</g>
</g>
<!-- Node3&#45;&gt;Node14 -->
<g id="edge52" class="edge">
<title>Node3&#45;&gt;Node14</title>
<path fill="none" stroke="midnightblue" d="M711.18,-447.33C747.18,-426.69 805.5,-384.73 805.5,-329.5 805.5,-329.5 805.5,-329.5 805.5,-204.5 805.5,-167.31 804.8,-154.55 824.5,-123 833.88,-107.98 849.31,-95.39 862.42,-86.54"/>
<polygon fill="midnightblue" stroke="midnightblue" points="864.5,-89.36 871.03,-81.02 860.73,-83.47 864.5,-89.36"/>
</g>
<!-- Node15 -->
<g id="node15" class="node">
<title>Node15</title>
<g id="a_node15"><a xlink:title=" ">
<polygon fill="none" stroke="#bfbfbf" points="1240,-62 1240,-81 1287,-81 1287,-62 1240,-62"/>
<text text-anchor="middle" x="1263.5" y="-69" font-family="Helvetica,sans-Serif" font-size="10.00">vector</text>
</a>
</g>
</g>
<!-- Node3&#45;&gt;Node15 -->
<g id="edge50" class="edge">
<title>Node3&#45;&gt;Node15</title>
<path fill="none" stroke="midnightblue" d="M748.01,-462.03C849.13,-461.38 1050.37,-454.12 1214.5,-411 1300.61,-388.38 1397.5,-418.53 1397.5,-329.5 1397.5,-329.5 1397.5,-329.5 1397.5,-204.5 1397.5,-164.72 1387.86,-151.88 1360.5,-123 1342.99,-104.52 1317.22,-91.55 1296.64,-83.38"/>
<polygon fill="midnightblue" stroke="midnightblue" points="1297.61,-80.01 1287.01,-79.76 1295.14,-86.56 1297.61,-80.01"/>
</g>
<!-- Node17 -->
<g id="node17" class="node">
<title>Node17</title>
<g id="a_node17"><a xlink:href="_element_bases_8hpp.html" target="_top" xlink:title=" ">
<polygon fill="none" stroke="black" points="1014,-257.5 1014,-276.5 1193,-276.5 1193,-257.5 1014,-257.5"/>
<text text-anchor="middle" x="1103.5" y="-264.5" font-family="Helvetica,sans-Serif" font-size="10.00">polyfem/basis/ElementBases.hpp</text>
</a>
</g>
</g>
<!-- Node3&#45;&gt;Node17 -->
<g id="edge39" class="edge">
<title>Node3&#45;&gt;Node17</title>
<path fill="none" stroke="midnightblue" d="M725.04,-447.42C752.21,-437.89 788.33,-424.58 819.5,-411 917.94,-368.1 1030.77,-307.82 1079.27,-281.35"/>
<polygon fill="midnightblue" stroke="midnightblue" points="1081,-284.4 1088.09,-276.53 1077.64,-278.26 1081,-284.4"/>
</g>
<!-- Node25 -->
<g id="node25" class="node">
<title>Node25</title>
<g id="a_node25"><a xlink:href="_expression_value_8hpp.html" target="_top" xlink:title=" ">
<polygon fill="none" stroke="black" points="377,-313.5 377,-343.5 514,-343.5 514,-313.5 377,-313.5"/>
<text text-anchor="start" x="385" y="-331.5" font-family="Helvetica,sans-Serif" font-size="10.00">polyfem/utils/Expression</text>
<text text-anchor="middle" x="445.5" y="-320.5" font-family="Helvetica,sans-Serif" font-size="10.00">Value.hpp</text>
</a>
</g>
</g>
<!-- Node3&#45;&gt;Node25 -->
<g id="edge40" class="edge">
<title>Node3&#45;&gt;Node25</title>
<path fill="none" stroke="midnightblue" d="M618.95,-454.21C562.41,-446.5 486.01,-432.46 464.5,-411 449.61,-396.14 445.48,-372.03 444.71,-353.87"/>
<polygon fill="midnightblue" stroke="midnightblue" points="448.21,-353.69 444.59,-343.73 441.21,-353.77 448.21,-353.69"/>
</g>
<!-- Node3&#45;&gt;Node26 -->
<g id="edge42" class="edge">
<title>Node3&#45;&gt;Node26</title>
<path fill="none" stroke="midnightblue" d="M618.85,-452.15C548.8,-442.02 433.71,-425.37 334.5,-411 324.37,-409.53 313.66,-407.98 303.17,-406.46"/>
<polygon fill="midnightblue" stroke="midnightblue" points="303.59,-402.98 293.19,-405.01 302.59,-409.91 303.59,-402.98"/>
</g>
<!-- Node31 -->
<g id="node31" class="node">
<title>Node31</title>
<g id="a_node31"><a xlink:title=" ">
<polygon fill="none" stroke="#bfbfbf" points="473.5,-386 473.5,-405 515.5,-405 515.5,-386 473.5,-386"/>
<text text-anchor="middle" x="494.5" y="-393" font-family="Helvetica,sans-Serif" font-size="10.00">array</text>
</a>
</g>
</g>
<!-- Node3&#45;&gt;Node31 -->
<g id="edge51" class="edge">
<title>Node3&#45;&gt;Node31</title>
<path fill="none" stroke="midnightblue" d="M637.7,-447.48C606.91,-437.81 565.51,-424.34 529.5,-411 527.65,-410.31 525.75,-409.59 523.84,-408.85"/>
<polygon fill="midnightblue" stroke="midnightblue" points="524.97,-405.53 514.39,-405.04 522.36,-412.02 524.97,-405.53"/>
</g>
<!-- Node5 -->
<g id="node5" class="node">
<title>Node5</title>
<g id="a_node5"><a xlink:title=" ">
<polygon fill="none" stroke="#bfbfbf" points="248.5,-0.5 248.5,-19.5 328.5,-19.5 328.5,-0.5 248.5,-0.5"/>
<text text-anchor="middle" x="288.5" y="-7.5" font-family="Helvetica,sans-Serif" font-size="10.00">Eigen/Sparse</text>
</a>
</g>
</g>
<!-- Node4&#45;&gt;Node5 -->
<g id="edge4" class="edge">
<title>Node4&#45;&gt;Node5</title>
<path fill="none" stroke="midnightblue" d="M273.95,-131.13C245.4,-124.74 214.1,-112.06 196.5,-87 188.58,-75.73 189.21,-67.69 196.5,-56 206.26,-40.36 223.2,-30.01 239.9,-23.23"/>
<polygon fill="midnightblue" stroke="midnightblue" points="241.48,-26.38 249.65,-19.64 239.06,-19.81 241.48,-26.38"/>
</g>
<!-- Node6 -->
<g id="node6" class="node">
<title>Node6</title>
<g id="a_node6"><a xlink:title=" ">
<polygon fill="none" stroke="#bfbfbf" points="205.5,-62 205.5,-81 315.5,-81 315.5,-62 205.5,-62"/>
<text text-anchor="middle" x="260.5" y="-69" font-family="Helvetica,sans-Serif" font-size="10.00">nlohmann/json.hpp</text>
</a>
</g>
</g>
<!-- Node4&#45;&gt;Node6 -->
<g id="edge5" class="edge">
<title>Node4&#45;&gt;Node6</title>
<path fill="none" stroke="midnightblue" d="M326.25,-128.73C314.06,-118.31 293.48,-100.71 278.59,-87.97"/>
<polygon fill="midnightblue" stroke="midnightblue" points="280.46,-84.97 270.59,-81.13 275.91,-90.29 280.46,-84.97"/>
</g>
<!-- Node8 -->
<g id="node8" class="node">
<title>Node8</title>
<g id="a_node8"><a xlink:href="_element_assembly_values_8hpp.html" target="_top" xlink:title=" ">
<polygon fill="none" stroke="black" points="1118.5,-319 1118.5,-338 1276.5,-338 1276.5,-319 1118.5,-319"/>
<text text-anchor="middle" x="1197.5" y="-326" font-family="Helvetica,sans-Serif" font-size="10.00">ElementAssemblyValues.hpp</text>
</a>
</g>
</g>
<!-- Node7&#45;&gt;Node8 -->
<g id="edge7" class="edge">
<title>Node7&#45;&gt;Node8</title>
<path fill="none" stroke="midnightblue" d="M1138.77,-380.4C1150.82,-369.96 1167.21,-355.75 1179.62,-345"/>
<polygon fill="midnightblue" stroke="midnightblue" points="1182.2,-347.39 1187.47,-338.19 1177.62,-342.1 1182.2,-347.39"/>
</g>
<!-- Node9 -->
<g id="node9" class="node">
<title>Node9</title>
<g id="a_node9"><a xlink:href="_assembly_values_8hpp.html" target="_top" xlink:title=" ">
<polygon fill="none" stroke="black" points="1169.5,-190.5 1169.5,-220.5 1331.5,-220.5 1331.5,-190.5 1169.5,-190.5"/>
<text text-anchor="start" x="1177.5" y="-208.5" font-family="Helvetica,sans-Serif" font-size="10.00">polyfem/assembler/Assembly</text>
<text text-anchor="middle" x="1250.5" y="-197.5" font-family="Helvetica,sans-Serif" font-size="10.00">Values.hpp</text>
</a>
</g>
</g>
<!-- Node8&#45;&gt;Node9 -->
<g id="edge8" class="edge">
<title>Node8&#45;&gt;Node9</title>
<path fill="none" stroke="midnightblue" d="M1201.31,-318.8C1209.39,-300.36 1228.45,-256.84 1240.33,-229.71"/>
<polygon fill="midnightblue" stroke="midnightblue" points="1243.54,-231.1 1244.35,-220.54 1237.13,-228.29 1243.54,-231.1"/>
</g>
<!-- Node8&#45;&gt;Node15 -->
<g id="edge38" class="edge">
<title>Node8&#45;&gt;Node15</title>
<path fill="none" stroke="midnightblue" d="M1219.28,-318.93C1252.59,-304.47 1315.01,-271.76 1340.5,-221 1360.04,-182.08 1361.2,-161.32 1340.5,-123 1331.1,-105.6 1312.8,-93.22 1296.4,-85.08"/>
<polygon fill="midnightblue" stroke="midnightblue" points="1297.59,-81.77 1287.05,-80.76 1294.66,-88.13 1297.59,-81.77"/>
</g>
<!-- Node8&#45;&gt;Node17 -->
<g id="edge21" class="edge">
<title>Node8&#45;&gt;Node17</title>
<path fill="none" stroke="midnightblue" d="M1184.03,-318.98C1168.82,-309.34 1143.81,-293.52 1125.7,-282.05"/>
<polygon fill="midnightblue" stroke="midnightblue" points="1127.26,-278.9 1116.94,-276.51 1123.52,-284.81 1127.26,-278.9"/>
</g>
<!-- Node10 -->
<g id="node10" class="node">
<title>Node10</title>
<g id="a_node10"><a xlink:href="_quadrature_8hpp.html" target="_top" xlink:title=" ">
<polygon fill="none" stroke="black" points="1109,-56.5 1109,-86.5 1222,-86.5 1222,-56.5 1109,-56.5"/>
<text text-anchor="start" x="1117" y="-74.5" font-family="Helvetica,sans-Serif" font-size="10.00">polyfem/quadrature</text>
<text text-anchor="middle" x="1165.5" y="-63.5" font-family="Helvetica,sans-Serif" font-size="10.00">/Quadrature.hpp</text>
</a>
</g>
</g>
<!-- Node9&#45;&gt;Node10 -->
<g id="edge9" class="edge">
<title>Node9&#45;&gt;Node10</title>
<path fill="none" stroke="midnightblue" d="M1241.4,-190.37C1226.7,-167.55 1197.61,-122.36 1180.02,-95.04"/>
<polygon fill="midnightblue" stroke="midnightblue" points="1182.89,-93.04 1174.53,-86.52 1177,-96.83 1182.89,-93.04"/>
</g>
<!-- Node9&#45;&gt;Node11 -->
<g id="edge19" class="edge">
<title>Node9&#45;&gt;Node11</title>
<path fill="none" stroke="midnightblue" d="M1295.68,-190.34C1312.85,-182.51 1330.63,-170.85 1340.5,-154 1347.46,-142.11 1344.45,-136.2 1340.5,-123 1330.29,-88.87 1324.64,-77.85 1296.5,-56 1272.59,-37.43 1240.5,-26.24 1214.08,-19.66"/>
<polygon fill="midnightblue" stroke="midnightblue" points="1214.79,-16.24 1204.25,-17.36 1213.19,-23.05 1214.79,-16.24"/>
</g>
<!-- Node12 -->
<g id="node12" class="node">
<title>Node12</title>
<g id="a_node12"><a xlink:href="_basis_8hpp.html" target="_top" xlink:title=" ">
<polygon fill="none" stroke="black" points="833.5,-129 833.5,-148 969.5,-148 969.5,-129 833.5,-129"/>
<text text-anchor="middle" x="901.5" y="-136" font-family="Helvetica,sans-Serif" font-size="10.00">polyfem/basis/Basis.hpp</text>
</a>
</g>
</g>
<!-- Node9&#45;&gt;Node12 -->
<g id="edge11" class="edge">
<title>Node9&#45;&gt;Node12</title>
<path fill="none" stroke="midnightblue" d="M1174.57,-190.46C1120.01,-180.35 1044.71,-166.38 978.5,-154 971.42,-152.68 963.98,-151.28 956.62,-149.9"/>
<polygon fill="midnightblue" stroke="midnightblue" points="957.17,-146.44 946.69,-148.03 955.87,-153.32 957.17,-146.44"/>
</g>
<!-- Node16 -->
<g id="node16" class="node">
<title>Node16</title>
<g id="a_node16"><a xlink:title=" ">
<polygon fill="none" stroke="#bfbfbf" points="1271.5,-129 1271.5,-148 1331.5,-148 1331.5,-129 1271.5,-129"/>
<text text-anchor="middle" x="1301.5" y="-136" font-family="Helvetica,sans-Serif" font-size="10.00">iostream</text>
</a>
</g>
</g>
<!-- Node9&#45;&gt;Node16 -->
<g id="edge20" class="edge">
<title>Node9&#45;&gt;Node16</title>
<path fill="none" stroke="midnightblue" d="M1261.57,-190.4C1269.44,-180.36 1280.05,-166.84 1288.35,-156.25"/>
<polygon fill="midnightblue" stroke="midnightblue" points="1291.26,-158.22 1294.68,-148.19 1285.75,-153.9 1291.26,-158.22"/>
</g>
<!-- Node10&#45;&gt;Node11 -->
<g id="edge10" class="edge">
<title>Node10&#45;&gt;Node11</title>
<path fill="none" stroke="midnightblue" d="M1165.5,-56.4C1165.5,-48.47 1165.5,-38.46 1165.5,-29.86"/>
<polygon fill="midnightblue" stroke="midnightblue" points="1169,-29.66 1165.5,-19.66 1162,-29.66 1169,-29.66"/>
</g>
<!-- Node12&#45;&gt;Node10 -->
<g id="edge12" class="edge">
<title>Node12&#45;&gt;Node10</title>
<path fill="none" stroke="midnightblue" d="M936.28,-128.94C977.59,-118.77 1047.38,-101.58 1099.13,-88.84"/>
<polygon fill="midnightblue" stroke="midnightblue" points="1100.03,-92.23 1108.9,-86.44 1098.35,-85.43 1100.03,-92.23"/>
</g>
<!-- Node12&#45;&gt;Node11 -->
<g id="edge16" class="edge">
<title>Node12&#45;&gt;Node11</title>
<path fill="none" stroke="midnightblue" d="M912.83,-128.82C934.35,-112.65 983.08,-77.6 1028.5,-56 1058.6,-41.68 1094.45,-30.09 1121.93,-22.25"/>
<polygon fill="midnightblue" stroke="midnightblue" points="1122.96,-25.6 1131.65,-19.54 1121.07,-18.86 1122.96,-25.6"/>
</g>
<!-- Node12&#45;&gt;Node13 -->
<g id="edge13" class="edge">
<title>Node12&#45;&gt;Node13</title>
<path fill="none" stroke="midnightblue" d="M834.93,-128.99C819.06,-127 802.18,-124.9 786.5,-123 648.8,-106.32 613.6,-108.01 476.5,-87 468.66,-85.8 460.39,-84.38 452.31,-82.91"/>
<polygon fill="midnightblue" stroke="midnightblue" points="452.69,-79.42 442.22,-81.03 451.41,-86.3 452.69,-79.42"/>
</g>
<!-- Node12&#45;&gt;Node14 -->
<g id="edge17" class="edge">
<title>Node12&#45;&gt;Node14</title>
<path fill="none" stroke="midnightblue" d="M899.48,-128.73C897.25,-119.09 893.61,-103.3 890.75,-90.91"/>
<polygon fill="midnightblue" stroke="midnightblue" points="894.15,-90.08 888.49,-81.13 887.33,-91.66 894.15,-90.08"/>
</g>
<!-- Node12&#45;&gt;Node15 -->
<g id="edge18" class="edge">
<title>Node12&#45;&gt;Node15</title>
<path fill="none" stroke="midnightblue" d="M945.01,-128.95C955.93,-126.91 967.63,-124.8 978.5,-123 1090.56,-104.49 1122.45,-118.76 1231.5,-87 1233.43,-86.44 1235.4,-85.78 1237.36,-85.06"/>
<polygon fill="midnightblue" stroke="midnightblue" points="1239.01,-88.16 1246.9,-81.1 1236.32,-81.7 1239.01,-88.16"/>
</g>
<!-- Node13&#45;&gt;Node5 -->
<g id="edge15" class="edge">
<title>Node13&#45;&gt;Node5</title>
<path fill="none" stroke="midnightblue" d="M384.45,-61.98C365.91,-52.12 335.16,-35.79 313.48,-24.27"/>
<polygon fill="midnightblue" stroke="midnightblue" points="314.99,-21.11 304.52,-19.51 311.71,-27.29 314.99,-21.11"/>
</g>
<!-- Node13&#45;&gt;Node11 -->
<g id="edge14" class="edge">
<title>Node13&#45;&gt;Node11</title>
<path fill="none" stroke="midnightblue" d="M440.19,-61.97C451.84,-59.73 464.64,-57.51 476.5,-56 715.48,-25.52 1003.88,-15.16 1116.81,-12.12"/>
<polygon fill="midnightblue" stroke="midnightblue" points="1116.97,-15.62 1126.87,-11.85 1116.78,-8.62 1116.97,-15.62"/>
</g>
<!-- Node17&#45;&gt;Node9 -->
<g id="edge36" class="edge">
<title>Node17&#45;&gt;Node9</title>
<path fill="none" stroke="midnightblue" d="M1124.56,-257.48C1145.87,-248.85 1179.44,-235.26 1206.56,-224.29"/>
<polygon fill="midnightblue" stroke="midnightblue" points="1207.9,-227.52 1215.86,-220.52 1205.27,-221.03 1207.9,-227.52"/>
</g>
<!-- Node17&#45;&gt;Node10 -->
<g id="edge23" class="edge">
<title>Node17&#45;&gt;Node10</title>
<path fill="none" stroke="midnightblue" d="M1105.56,-257.34C1109.13,-242.99 1117.08,-213.53 1127.5,-190 1135,-173.06 1141.86,-171.29 1148.5,-154 1155.64,-135.41 1160.02,-113.21 1162.54,-96.68"/>
<polygon fill="midnightblue" stroke="midnightblue" points="1166.02,-97.12 1163.94,-86.74 1159.08,-96.15 1166.02,-97.12"/>
</g>
<!-- Node17&#45;&gt;Node12 -->
<g id="edge22" class="edge">
<title>Node17&#45;&gt;Node12</title>
<path fill="none" stroke="midnightblue" d="M1089.62,-257.31C1055.23,-235.77 965.84,-179.79 923.88,-153.51"/>
<polygon fill="midnightblue" stroke="midnightblue" points="925.55,-150.43 915.21,-148.09 921.83,-156.36 925.55,-150.43"/>
</g>
<!-- Node17&#45;&gt;Node15 -->
<g id="edge37" class="edge">
<title>Node17&#45;&gt;Node15</title>
<path fill="none" stroke="midnightblue" d="M1109.62,-257.4C1119.84,-243.15 1141.17,-213.82 1160.5,-190 1190.66,-152.83 1228.18,-111.07 1248.58,-88.72"/>
<polygon fill="midnightblue" stroke="midnightblue" points="1251.34,-90.89 1255.51,-81.15 1246.18,-86.16 1251.34,-90.89"/>
</g>
<!-- Node18 -->
<g id="node18" class="node">
<title>Node18</title>
<g id="a_node18"><a xlink:href="_mesh_8hpp.html" target="_top" xlink:title=" ">
<polygon fill="none" stroke="black" points="604,-196 604,-215 741,-215 741,-196 604,-196"/>
<text text-anchor="middle" x="672.5" y="-203" font-family="Helvetica,sans-Serif" font-size="10.00">polyfem/mesh/Mesh.hpp</text>
</a>
</g>
</g>
<!-- Node17&#45;&gt;Node18 -->
<g id="edge24" class="edge">
<title>Node17&#45;&gt;Node18</title>
<path fill="none" stroke="midnightblue" d="M1041.75,-257.48C963.1,-246.62 827.43,-227.89 744.26,-216.41"/>
<polygon fill="midnightblue" stroke="midnightblue" points="744.52,-212.91 734.14,-215.01 743.56,-219.84 744.52,-212.91"/>
</g>
<!-- Node18&#45;&gt;Node4 -->
<g id="edge25" class="edge">
<title>Node18&#45;&gt;Node4</title>
<path fill="none" stroke="midnightblue" d="M628.23,-195.94C567.08,-184.11 456.86,-162.78 390.81,-150.01"/>
<polygon fill="midnightblue" stroke="midnightblue" points="391.09,-146.49 380.6,-148.03 389.76,-153.37 391.09,-146.49"/>
</g>
<!-- Node18&#45;&gt;Node11 -->
<g id="edge33" class="edge">
<title>Node18&#45;&gt;Node11</title>
<path fill="none" stroke="midnightblue" d="M674.44,-195.71C678.46,-179.37 689.16,-144.05 710.5,-123 738.25,-95.62 755.7,-104.59 790.5,-87 815.54,-74.34 818.92,-65 845.5,-56 937.99,-24.68 1052.64,-15.15 1116.56,-12.25"/>
<polygon fill="midnightblue" stroke="midnightblue" points="1116.91,-15.74 1126.75,-11.83 1116.62,-8.75 1116.91,-15.74"/>
</g>
<!-- Node18&#45;&gt;Node13 -->
<g id="edge29" class="edge">
<title>Node18&#45;&gt;Node13</title>
<path fill="none" stroke="midnightblue" d="M610.21,-195.94C572.07,-188.76 523.29,-176.02 484.5,-154 454.91,-137.2 428.08,-107.5 413.07,-88.97"/>
<polygon fill="midnightblue" stroke="midnightblue" points="415.8,-86.78 406.86,-81.1 410.31,-91.12 415.8,-86.78"/>
</g>
<!-- Node19 -->
<g id="node19" class="node">
<title>Node19</title>
<g id="a_node19"><a xlink:href="_navigation_8hpp.html" target="_top" xlink:title=" ">
<polygon fill="none" stroke="black" points="494,-123.5 494,-153.5 625,-153.5 625,-123.5 494,-123.5"/>
<text text-anchor="start" x="502" y="-141.5" font-family="Helvetica,sans-Serif" font-size="10.00">polyfem/mesh/mesh2D</text>
<text text-anchor="middle" x="559.5" y="-130.5" font-family="Helvetica,sans-Serif" font-size="10.00">/Navigation.hpp</text>
</a>
</g>
</g>
<!-- Node18&#45;&gt;Node19 -->
<g id="edge26" class="edge">
<title>Node18&#45;&gt;Node19</title>
<path fill="none" stroke="midnightblue" d="M657.26,-195.73C640.81,-186.27 614.11,-170.91 592.77,-158.64"/>
<polygon fill="midnightblue" stroke="midnightblue" points="594.41,-155.54 583.99,-153.59 590.92,-161.61 594.41,-155.54"/>
</g>
<!-- Node20 -->
<g id="node20" class="node">
<title>Node20</title>
<g id="a_node20"><a xlink:title=" ">
<polygon fill="none" stroke="#bfbfbf" points="652,-62 652,-81 781,-81 781,-62 652,-62"/>
<text text-anchor="middle" x="716.5" y="-69" font-family="Helvetica,sans-Serif" font-size="10.00">geogram/mesh/mesh.h</text>
</a>
</g>
</g>
<!-- Node18&#45;&gt;Node20 -->
<g id="edge34" class="edge">
<title>Node18&#45;&gt;Node20</title>
<path fill="none" stroke="midnightblue" d="M671.39,-195.58C669.82,-180.21 668.13,-147.95 677.5,-123 682.38,-110.01 691.83,-97.64 700.2,-88.39"/>
<polygon fill="midnightblue" stroke="midnightblue" points="702.76,-90.78 707.14,-81.13 697.7,-85.94 702.76,-90.78"/>
</g>
<!-- Node22 -->
<g id="node22" class="node">
<title>Node22</title>
<g id="a_node22"><a xlink:href="_hash_utils_8hpp.html" target="_top" xlink:title=" ">
<polygon fill="none" stroke="black" points="987.5,-129 987.5,-148 1139.5,-148 1139.5,-129 987.5,-129"/>
<text text-anchor="middle" x="1063.5" y="-136" font-family="Helvetica,sans-Serif" font-size="10.00">polyfem/utils/HashUtils.hpp</text>
</a>
</g>
</g>
<!-- Node18&#45;&gt;Node22 -->
<g id="edge30" class="edge">
<title>Node18&#45;&gt;Node22</title>
<path fill="none" stroke="midnightblue" d="M724.76,-195.96C785.69,-185.99 889.42,-168.95 978.5,-154 986.58,-152.64 995.09,-151.2 1003.48,-149.78"/>
<polygon fill="midnightblue" stroke="midnightblue" points="1004.35,-153.18 1013.62,-148.06 1003.17,-146.28 1004.35,-153.18"/>
</g>
<!-- Node24 -->
<g id="node24" class="node">
<title>Node24</title>
<g id="a_node24"><a xlink:title=" ">
<polygon fill="none" stroke="#bfbfbf" points="719.5,-129 719.5,-148 777.5,-148 777.5,-129 719.5,-129"/>
<text text-anchor="middle" x="748.5" y="-136" font-family="Helvetica,sans-Serif" font-size="10.00">memory</text>
</a>
</g>
</g>
<!-- Node18&#45;&gt;Node24 -->
<g id="edge35" class="edge">
<title>Node18&#45;&gt;Node24</title>
<path fill="none" stroke="midnightblue" d="M682.75,-195.73C694.94,-185.31 715.52,-167.71 730.41,-154.97"/>
<polygon fill="midnightblue" stroke="midnightblue" points="733.09,-157.29 738.41,-148.13 728.54,-151.97 733.09,-157.29"/>
</g>
<!-- Node19&#45;&gt;Node20 -->
<g id="edge27" class="edge">
<title>Node19&#45;&gt;Node20</title>
<path fill="none" stroke="midnightblue" d="M593.57,-123.4C621.24,-111.94 659.89,-95.94 686.42,-84.95"/>
<polygon fill="midnightblue" stroke="midnightblue" points="688.05,-88.07 695.95,-81.01 685.37,-81.6 688.05,-88.07"/>
</g>
<!-- Node21 -->
<g id="node21" class="node">
<title>Node21</title>
<g id="a_node21"><a xlink:title=" ">
<polygon fill="none" stroke="#bfbfbf" points="485.5,-62 485.5,-81 633.5,-81 633.5,-62 485.5,-62"/>
<text text-anchor="middle" x="559.5" y="-69" font-family="Helvetica,sans-Serif" font-size="10.00">geogram/basic/attributes.h</text>
</a>
</g>
</g>
<!-- Node19&#45;&gt;Node21 -->
<g id="edge28" class="edge">
<title>Node19&#45;&gt;Node21</title>
<path fill="none" stroke="midnightblue" d="M559.5,-123.4C559.5,-114.06 559.5,-101.71 559.5,-91.52"/>
<polygon fill="midnightblue" stroke="midnightblue" points="563,-91.19 559.5,-81.19 556,-91.19 563,-91.19"/>
</g>
<!-- Node22&#45;&gt;Node15 -->
<g id="edge32" class="edge">
<title>Node22&#45;&gt;Node15</title>
<path fill="none" stroke="midnightblue" d="M1096.45,-129C1130.64,-119.85 1185.44,-104.27 1231.5,-87 1233.11,-86.4 1234.75,-85.75 1236.4,-85.08"/>
<polygon fill="midnightblue" stroke="midnightblue" points="1237.94,-88.23 1245.74,-81.06 1235.17,-81.8 1237.94,-88.23"/>
</g>
<!-- Node23 -->
<g id="node23" class="node">
<title>Node23</title>
<g id="a_node23"><a xlink:title=" ">
<polygon fill="none" stroke="#bfbfbf" points="1037,-62 1037,-81 1090,-81 1090,-62 1037,-62"/>
<text text-anchor="middle" x="1063.5" y="-69" font-family="Helvetica,sans-Serif" font-size="10.00">cstddef</text>
</a>
</g>
</g>
<!-- Node22&#45;&gt;Node23 -->
<g id="edge31" class="edge">
<title>Node22&#45;&gt;Node23</title>
<path fill="none" stroke="midnightblue" d="M1063.5,-128.73C1063.5,-119.18 1063.5,-103.62 1063.5,-91.28"/>
<polygon fill="midnightblue" stroke="midnightblue" points="1067,-91.13 1063.5,-81.13 1060,-91.13 1067,-91.13"/>
</g>
<!-- Node25&#45;&gt;Node4 -->
<g id="edge41" class="edge">
<title>Node25&#45;&gt;Node4</title>
<path fill="none" stroke="midnightblue" d="M437.31,-313.37C417.67,-279.51 367.98,-193.79 346.57,-156.87"/>
<polygon fill="midnightblue" stroke="midnightblue" points="349.59,-155.1 341.55,-148.21 343.54,-158.61 349.59,-155.1"/>
</g>
<!-- Node26&#45;&gt;Node13 -->
<g id="edge43" class="edge">
<title>Node26&#45;&gt;Node13</title>
<path fill="none" stroke="midnightblue" d="M235.76,-385.93C238.65,-365.55 245.5,-312.53 245.5,-268 245.5,-268 245.5,-268 245.5,-204.5 245.5,-167.31 239.92,-150.91 264.5,-123 277.08,-108.72 322.18,-93.71 357.03,-83.8"/>
<polygon fill="midnightblue" stroke="midnightblue" points="358.32,-87.07 367.02,-81.02 356.44,-80.33 358.32,-87.07"/>
</g>
<!-- Node27 -->
<g id="node27" class="node">
<title>Node27</title>
<g id="a_node27"><a xlink:href="autodiff_8h.html" target="_top" xlink:title=" ">
<polygon fill="none" stroke="black" points="109,-319 109,-338 172,-338 172,-319 109,-319"/>
<text text-anchor="middle" x="140.5" y="-326" font-family="Helvetica,sans-Serif" font-size="10.00">autodiff.h</text>
</a>
</g>
</g>
<!-- Node26&#45;&gt;Node27 -->
<g id="edge44" class="edge">
<title>Node26&#45;&gt;Node27</title>
<path fill="none" stroke="midnightblue" d="M221.82,-385.73C206.32,-375.01 179.86,-356.72 161.34,-343.91"/>
<polygon fill="midnightblue" stroke="midnightblue" points="163.19,-340.94 152.98,-338.13 159.21,-346.69 163.19,-340.94"/>
</g>
<!-- Node28 -->
<g id="node28" class="node">
<title>Node28</title>
<g id="a_node28"><a xlink:title=" ">
<polygon fill="none" stroke="#bfbfbf" points="148,-257.5 148,-276.5 217,-276.5 217,-257.5 148,-257.5"/>
<text text-anchor="middle" x="182.5" y="-264.5" font-family="Helvetica,sans-Serif" font-size="10.00">Eigen/Core</text>
</a>
</g>
</g>
<!-- Node27&#45;&gt;Node28 -->
<g id="edge45" class="edge">
<title>Node27&#45;&gt;Node28</title>
<path fill="none" stroke="midnightblue" d="M146.52,-318.98C152.76,-310.14 162.67,-296.09 170.52,-284.98"/>
<polygon fill="midnightblue" stroke="midnightblue" points="173.59,-286.7 176.49,-276.51 167.87,-282.66 173.59,-286.7"/>
</g>
<!-- Node29 -->
<g id="node29" class="node">
<title>Node29</title>
<g id="a_node29"><a xlink:title=" ">
<polygon fill="none" stroke="#bfbfbf" points="0,-257.5 0,-276.5 47,-276.5 47,-257.5 0,-257.5"/>
<text text-anchor="middle" x="23.5" y="-264.5" font-family="Helvetica,sans-Serif" font-size="10.00">cmath</text>
</a>
</g>
</g>
<!-- Node27&#45;&gt;Node29 -->
<g id="edge46" class="edge">
<title>Node27&#45;&gt;Node29</title>
<path fill="none" stroke="midnightblue" d="M123.74,-318.98C104.28,-309.08 71.95,-292.64 49.29,-281.12"/>
<polygon fill="midnightblue" stroke="midnightblue" points="50.73,-277.92 40.23,-276.51 47.56,-284.16 50.73,-277.92"/>
</g>
<!-- Node30 -->
<g id="node30" class="node">
<title>Node30</title>
<g id="a_node30"><a xlink:title=" ">
<polygon fill="none" stroke="#bfbfbf" points="65,-257.5 65,-276.5 130,-276.5 130,-257.5 65,-257.5"/>
<text text-anchor="middle" x="97.5" y="-264.5" font-family="Helvetica,sans-Serif" font-size="10.00">stdexcept</text>
</a>
</g>
</g>
<!-- Node27&#45;&gt;Node30 -->
<g id="edge47" class="edge">
<title>Node27&#45;&gt;Node30</title>
<path fill="none" stroke="midnightblue" d="M134.34,-318.98C127.89,-310.05 117.6,-295.81 109.53,-284.64"/>
<polygon fill="midnightblue" stroke="midnightblue" points="112.34,-282.56 103.65,-276.51 106.67,-286.66 112.34,-282.56"/>
</g>
</g>
</svg>
