<?xml version="1.0" encoding="UTF-8" standalone="no"?>
<!DOCTYPE svg PUBLIC "-//W3C//DTD SVG 1.1//EN"
 "http://www.w3.org/Graphics/SVG/1.1/DTD/svg11.dtd">
<!-- Generated by graphviz version 2.43.0 (0)
 -->
<!-- Title: src/polyfem/autogen/auto_p_bases.hpp Pages: 1 -->
<svg width="2089pt" height="104pt"
 viewBox="0.00 0.00 2089.00 104.00" xmlns="http://www.w3.org/2000/svg" xmlns:xlink="http://www.w3.org/1999/xlink">
<g id="graph0" class="graph" transform="scale(1 1) rotate(0) translate(4 100)">
<title>src/polyfem/autogen/auto_p_bases.hpp</title>
<!-- Node1 -->
<g id="Node000001" class="node">
<title>Node1</title>
<g id="a_Node000001"><a xlink:title=" ">
<polygon fill="#999999" stroke="#666666" points="1036,-96 919,-96 919,-66 1036,-66 1036,-96"/>
<text text-anchor="start" x="927" y="-84" font-family="Helvetica,sans-Serif" font-size="10.00">src/polyfem/autogen</text>
<text text-anchor="middle" x="977.5" y="-73" font-family="Helvetica,sans-Serif" font-size="10.00">/auto_p_bases.hpp</text>
</a>
</g>
</g>
<!-- Node2 -->
<g id="Node000002" class="node">
<title>Node2</title>
<g id="a_Node000002"><a xlink:href="_state_8cpp.html" target="_top" xlink:title=" ">
<polygon fill="white" stroke="#666666" points="123,-24.5 0,-24.5 0,-5.5 123,-5.5 123,-24.5"/>
<text text-anchor="middle" x="61.5" y="-12.5" font-family="Helvetica,sans-Serif" font-size="10.00">src/polyfem/State.cpp</text>
</a>
</g>
</g>
<!-- Node1&#45;&gt;Node2 -->
<g id="edge1_Node000001_Node000002" class="edge">
<title>Node1&#45;&gt;Node2</title>
<g id="a_edge1_Node000001_Node000002"><a xlink:title=" ">
<path fill="none" stroke="#63b8ff" d="M908.72,-79.15C764.21,-76.67 418.64,-67.02 131.5,-30 120.93,-28.64 109.56,-26.61 99.12,-24.52"/>
<polygon fill="#63b8ff" stroke="#63b8ff" points="908.72,-82.65 918.78,-79.32 908.84,-75.66 908.72,-82.65"/>
</a>
</g>
</g>
<!-- Node3 -->
<g id="Node000003" class="node">
<title>Node3</title>
<g id="a_Node000003"><a xlink:href="_pressure_assembler_8cpp.html" target="_top" xlink:title=" ">
<polygon fill="white" stroke="#666666" points="274,-30 141,-30 141,0 274,0 274,-30"/>
<text text-anchor="start" x="149" y="-18" font-family="Helvetica,sans-Serif" font-size="10.00">src/polyfem/assembler</text>
<text text-anchor="middle" x="207.5" y="-7" font-family="Helvetica,sans-Serif" font-size="10.00">/PressureAssembler.cpp</text>
</a>
</g>
</g>
<!-- Node1&#45;&gt;Node3 -->
<g id="edge2_Node000001_Node000003" class="edge">
<title>Node1&#45;&gt;Node3</title>
<g id="a_edge2_Node000001_Node000003"><a xlink:title=" ">
<path fill="none" stroke="#63b8ff" d="M908.5,-77.61C783.32,-72.71 510.65,-59.41 282.5,-30 279.74,-29.64 276.93,-29.25 274.09,-28.83"/>
<polygon fill="#63b8ff" stroke="#63b8ff" points="908.57,-81.12 918.7,-78.01 908.84,-74.12 908.57,-81.12"/>
</a>
</g>
</g>
<!-- Node4 -->
<g id="Node000004" class="node">
<title>Node4</title>
<g id="a_Node000004"><a xlink:href="auto__p__bases_8cpp.html" target="_top" xlink:title=" ">
<polygon fill="white" stroke="#666666" points="409,-30 292,-30 292,0 409,0 409,-30"/>
<text text-anchor="start" x="300" y="-18" font-family="Helvetica,sans-Serif" font-size="10.00">src/polyfem/autogen</text>
<text text-anchor="middle" x="350.5" y="-7" font-family="Helvetica,sans-Serif" font-size="10.00">/auto_p_bases.cpp</text>
</a>
</g>
</g>
<!-- Node1&#45;&gt;Node4 -->
<g id="edge3_Node000001_Node000004" class="edge">
<title>Node1&#45;&gt;Node4</title>
<g id="a_edge3_Node000001_Node000004"><a xlink:title=" ">
<path fill="none" stroke="#63b8ff" d="M908.54,-76.45C802.55,-70.4 593.4,-56.14 417.5,-30 414.8,-29.6 412.04,-29.16 409.26,-28.68"/>
<polygon fill="#63b8ff" stroke="#63b8ff" points="908.6,-79.95 918.78,-77.02 909,-72.97 908.6,-79.95"/>
</a>
</g>
</g>
<!-- Node5 -->
<g id="Node000005" class="node">
<title>Node5</title>
<g id="a_Node000005"><a xlink:href="prism__bases_8cpp.html" target="_top" xlink:title=" ">
<polygon fill="white" stroke="#666666" points="544,-30 427,-30 427,0 544,0 544,-30"/>
<text text-anchor="start" x="435" y="-18" font-family="Helvetica,sans-Serif" font-size="10.00">src/polyfem/autogen</text>
<text text-anchor="middle" x="485.5" y="-7" font-family="Helvetica,sans-Serif" font-size="10.00">/prism_bases.cpp</text>
</a>
</g>
</g>
<!-- Node1&#45;&gt;Node5 -->
<g id="edge4_Node000001_Node000005" class="edge">
<title>Node1&#45;&gt;Node5</title>
<g id="a_edge4_Node000001_Node000005"><a xlink:title=" ">
<path fill="none" stroke="#63b8ff" d="M908.62,-73.8C824.35,-65.77 677.44,-50.36 552.5,-30 549.8,-29.56 547.05,-29.09 544.27,-28.59"/>
<polygon fill="#63b8ff" stroke="#63b8ff" points="908.55,-77.31 918.84,-74.76 909.21,-70.34 908.55,-77.31"/>
</a>
</g>
</g>
<!-- Node6 -->
<g id="Node000006" class="node">
<title>Node6</title>
<g id="a_Node000006"><a xlink:href="_lagrange_basis2d_8cpp.html" target="_top" xlink:title=" ">
<polygon fill="white" stroke="#666666" points="713,-30 562,-30 562,0 713,0 713,-30"/>
<text text-anchor="start" x="570" y="-18" font-family="Helvetica,sans-Serif" font-size="10.00">src/polyfem/basis/Lagrange</text>
<text text-anchor="middle" x="637.5" y="-7" font-family="Helvetica,sans-Serif" font-size="10.00">Basis2d.cpp</text>
</a>
</g>
</g>
<!-- Node1&#45;&gt;Node6 -->
<g id="edge5_Node000001_Node000006" class="edge">
<title>Node1&#45;&gt;Node6</title>
<g id="a_edge5_Node000001_Node000006"><a xlink:title=" ">
<path fill="none" stroke="#63b8ff" d="M908.65,-67.04C851.55,-56.29 770.53,-41.04 711.94,-30.01"/>
<polygon fill="#63b8ff" stroke="#63b8ff" points="908.19,-70.51 918.66,-68.93 909.48,-63.64 908.19,-70.51"/>
</a>
</g>
</g>
<!-- Node7 -->
<g id="Node000007" class="node">
<title>Node7</title>
<g id="a_Node000007"><a xlink:href="_lagrange_basis3d_8cpp.html" target="_top" xlink:title=" ">
<polygon fill="white" stroke="#666666" points="882,-30 731,-30 731,0 882,0 882,-30"/>
<text text-anchor="start" x="739" y="-18" font-family="Helvetica,sans-Serif" font-size="10.00">src/polyfem/basis/Lagrange</text>
<text text-anchor="middle" x="806.5" y="-7" font-family="Helvetica,sans-Serif" font-size="10.00">Basis3d.cpp</text>
</a>
</g>
</g>
<!-- Node1&#45;&gt;Node7 -->
<g id="edge6_Node000001_Node000007" class="edge">
<title>Node1&#45;&gt;Node7</title>
<g id="a_edge6_Node000001_Node000007"><a xlink:title=" ">
<path fill="none" stroke="#63b8ff" d="M930.27,-62.32C903.05,-52.14 869.31,-39.51 843.94,-30.01"/>
<polygon fill="#63b8ff" stroke="#63b8ff" points="929.38,-65.73 939.97,-65.95 931.83,-59.17 929.38,-65.73"/>
</a>
</g>
</g>
<!-- Node8 -->
<g id="Node000008" class="node">
<title>Node8</title>
<g id="a_Node000008"><a xlink:href="_evaluator_8cpp.html" target="_top" xlink:title=" ">
<polygon fill="white" stroke="#666666" points="1055,-24.5 900,-24.5 900,-5.5 1055,-5.5 1055,-24.5"/>
<text text-anchor="middle" x="977.5" y="-12.5" font-family="Helvetica,sans-Serif" font-size="10.00">src/polyfem/io/Evaluator.cpp</text>
</a>
</g>
</g>
<!-- Node1&#45;&gt;Node8 -->
<g id="edge7_Node000001_Node000008" class="edge">
<title>Node1&#45;&gt;Node8</title>
<g id="a_edge7_Node000001_Node000008"><a xlink:title=" ">
<path fill="none" stroke="#63b8ff" d="M977.5,-55.6C977.5,-44.8 977.5,-32.78 977.5,-24.84"/>
<polygon fill="#63b8ff" stroke="#63b8ff" points="974,-55.8 977.5,-65.8 981,-55.8 974,-55.8"/>
</a>
</g>
</g>
<!-- Node9 -->
<g id="Node000009" class="node">
<title>Node9</title>
<g id="a_Node000009"><a xlink:href="_out_data_8cpp.html" target="_top" xlink:title=" ">
<polygon fill="white" stroke="#666666" points="1223.5,-24.5 1073.5,-24.5 1073.5,-5.5 1223.5,-5.5 1223.5,-24.5"/>
<text text-anchor="middle" x="1148.5" y="-12.5" font-family="Helvetica,sans-Serif" font-size="10.00">src/polyfem/io/OutData.cpp</text>
</a>
</g>
</g>
<!-- Node1&#45;&gt;Node9 -->
<g id="edge8_Node000001_Node000009" class="edge">
<title>Node1&#45;&gt;Node9</title>
<g id="a_edge8_Node000001_Node000009"><a xlink:title=" ">
<path fill="none" stroke="#63b8ff" d="M1024.48,-62.42C1057.42,-50.09 1100.01,-34.15 1125.74,-24.52"/>
<polygon fill="#63b8ff" stroke="#63b8ff" points="1023.17,-59.17 1015.03,-65.95 1025.62,-65.73 1023.17,-59.17"/>
</a>
</g>
</g>
<!-- Node10 -->
<g id="Node000010" class="node">
<title>Node10</title>
<g id="a_Node000010"><a xlink:href="_a_priori_8cpp.html" target="_top" xlink:title=" ">
<polygon fill="white" stroke="#666666" points="1373,-30 1242,-30 1242,0 1373,0 1373,-30"/>
<text text-anchor="start" x="1250" y="-18" font-family="Helvetica,sans-Serif" font-size="10.00">src/polyfem/refinement</text>
<text text-anchor="middle" x="1307.5" y="-7" font-family="Helvetica,sans-Serif" font-size="10.00">/APriori.cpp</text>
</a>
</g>
</g>
<!-- Node1&#45;&gt;Node10 -->
<g id="edge9_Node000001_Node000010" class="edge">
<title>Node1&#45;&gt;Node10</title>
<g id="a_edge9_Node000001_Node000010"><a xlink:title=" ">
<path fill="none" stroke="#63b8ff" d="M1046.2,-66.68C1103.68,-55.53 1185.16,-39.73 1241.79,-28.74"/>
<polygon fill="#63b8ff" stroke="#63b8ff" points="1045.27,-63.29 1036.12,-68.63 1046.6,-70.16 1045.27,-63.29"/>
</a>
</g>
</g>
<!-- Node11 -->
<g id="Node000011" class="node">
<title>Node11</title>
<g id="a_Node000011"><a xlink:href="_state_init_8cpp.html" target="_top" xlink:title=" ">
<polygon fill="white" stroke="#666666" points="1558,-24.5 1391,-24.5 1391,-5.5 1558,-5.5 1558,-24.5"/>
<text text-anchor="middle" x="1474.5" y="-12.5" font-family="Helvetica,sans-Serif" font-size="10.00">src/polyfem/state/StateInit.cpp</text>
</a>
</g>
</g>
<!-- Node1&#45;&gt;Node11 -->
<g id="edge10_Node000001_Node000011" class="edge">
<title>Node1&#45;&gt;Node11</title>
<g id="a_edge10_Node000001_Node000011"><a xlink:title=" ">
<path fill="none" stroke="#63b8ff" d="M1046.28,-72.11C1126.92,-62.71 1264.55,-46.25 1382.5,-30 1394.66,-28.32 1407.71,-26.41 1420.05,-24.55"/>
<polygon fill="#63b8ff" stroke="#63b8ff" points="1045.78,-68.64 1036.25,-73.27 1046.59,-75.59 1045.78,-68.64"/>
</a>
</g>
</g>
<!-- Node12 -->
<g id="Node000012" class="node">
<title>Node12</title>
<g id="a_Node000012"><a xlink:href="_state_solve_navier_stokes_8cpp.html" target="_top" xlink:title=" ">
<polygon fill="white" stroke="#666666" points="1733.5,-30 1575.5,-30 1575.5,0 1733.5,0 1733.5,-30"/>
<text text-anchor="start" x="1583.5" y="-18" font-family="Helvetica,sans-Serif" font-size="10.00">src/polyfem/state/StateSolve</text>
<text text-anchor="middle" x="1654.5" y="-7" font-family="Helvetica,sans-Serif" font-size="10.00">NavierStokes.cpp</text>
</a>
</g>
</g>
<!-- Node1&#45;&gt;Node12 -->
<g id="edge11_Node000001_Node000012" class="edge">
<title>Node1&#45;&gt;Node12</title>
<g id="a_edge11_Node000001_Node000012"><a xlink:title=" ">
<path fill="none" stroke="#63b8ff" d="M1046.26,-75.85C1156.5,-68.83 1379.51,-53.06 1567.5,-30 1570.08,-29.68 1572.7,-29.35 1575.35,-29"/>
<polygon fill="#63b8ff" stroke="#63b8ff" points="1046.03,-72.36 1036.27,-76.49 1046.47,-79.35 1046.03,-72.36"/>
</a>
</g>
</g>
<!-- Node13 -->
<g id="Node000013" class="node">
<title>Node13</title>
<g id="a_Node000013"><a xlink:href="_boundary_sampler_8cpp.html" target="_top" xlink:title=" ">
<polygon fill="white" stroke="#666666" points="1899.5,-30 1751.5,-30 1751.5,0 1899.5,0 1899.5,-30"/>
<text text-anchor="start" x="1759.5" y="-18" font-family="Helvetica,sans-Serif" font-size="10.00">src/polyfem/utils/Boundary</text>
<text text-anchor="middle" x="1825.5" y="-7" font-family="Helvetica,sans-Serif" font-size="10.00">Sampler.cpp</text>
</a>
</g>
</g>
<!-- Node1&#45;&gt;Node13 -->
<g id="edge12_Node000001_Node000013" class="edge">
<title>Node1&#45;&gt;Node13</title>
<g id="a_edge12_Node000001_Node000013"><a xlink:title=" ">
<path fill="none" stroke="#63b8ff" d="M1046.37,-77.85C1180.66,-73.14 1486.75,-59.85 1742.5,-30 1745.4,-29.66 1748.36,-29.29 1751.34,-28.89"/>
<polygon fill="#63b8ff" stroke="#63b8ff" points="1046.1,-74.36 1036.23,-78.2 1046.34,-81.35 1046.1,-74.36"/>
</a>
</g>
</g>
<!-- Node14 -->
<g id="Node000014" class="node">
<title>Node14</title>
<g id="a_Node000014"><a xlink:href="_jacobian_8cpp.html" target="_top" xlink:title=" ">
<polygon fill="white" stroke="#666666" points="2081,-24.5 1918,-24.5 1918,-5.5 2081,-5.5 2081,-24.5"/>
<text text-anchor="middle" x="1999.5" y="-12.5" font-family="Helvetica,sans-Serif" font-size="10.00">src/polyfem/utils/Jacobian.cpp</text>
</a>
</g>
</g>
<!-- Node1&#45;&gt;Node14 -->
<g id="edge13_Node000001_Node000014" class="edge">
<title>Node1&#45;&gt;Node14</title>
<g id="a_edge13_Node000001_Node000014"><a xlink:title=" ">
<path fill="none" stroke="#63b8ff" d="M1046.5,-78.63C1201.16,-75.05 1587.23,-63.26 1908.5,-30 1922.01,-28.6 1936.59,-26.59 1950.02,-24.52"/>
<polygon fill="#63b8ff" stroke="#63b8ff" points="1046.13,-75.14 1036.21,-78.86 1046.28,-82.14 1046.13,-75.14"/>
</a>
</g>
</g>
</g>
</svg>
