<?xml version="1.0" encoding="UTF-8" standalone="no"?>
<!DOCTYPE svg PUBLIC "-//W3C//DTD SVG 1.1//EN"
 "http://www.w3.org/Graphics/SVG/1.1/DTD/svg11.dtd">
<!-- Generated by graphviz version 2.43.0 (0)
 -->
<!-- Title: src/polyfem/autogen/auto_q_bases.hpp Pages: 1 -->
<svg width="2275pt" height="104pt"
 viewBox="0.00 0.00 2274.50 104.00" xmlns="http://www.w3.org/2000/svg" xmlns:xlink="http://www.w3.org/1999/xlink">
<g id="graph0" class="graph" transform="scale(1 1) rotate(0) translate(4 100)">
<title>src/polyfem/autogen/auto_q_bases.hpp</title>
<!-- Node1 -->
<g id="node1" class="node">
<title>Node1</title>
<g id="a_node1"><a xlink:title=" ">
<polygon fill="#999999" stroke="#666666" points="1162,-96 1045,-96 1045,-66 1162,-66 1162,-96"/>
<text text-anchor="start" x="1053" y="-84" font-family="Helvetica,sans-Serif" font-size="10.00">src/polyfem/autogen</text>
<text text-anchor="middle" x="1103.5" y="-73" font-family="Helvetica,sans-Serif" font-size="10.00">/auto_q_bases.hpp</text>
</a>
</g>
</g>
<!-- Node2 -->
<g id="node2" class="node">
<title>Node2</title>
<g id="a_node2"><a xlink:href="_state_8cpp.html" target="_top" xlink:title=" ">
<polygon fill="white" stroke="#666666" points="123,-24.5 0,-24.5 0,-5.5 123,-5.5 123,-24.5"/>
<text text-anchor="middle" x="61.5" y="-12.5" font-family="Helvetica,sans-Serif" font-size="10.00">src/polyfem/State.cpp</text>
</a>
</g>
</g>
<!-- Node1&#45;&gt;Node2 -->
<g id="edge1" class="edge">
<title>Node1&#45;&gt;Node2</title>
<path fill="none" stroke="#63b8ff" d="M1034.76,-79.9C875.37,-78.93 468.45,-72.13 131.5,-30 120.92,-28.68 109.55,-26.66 99.12,-24.57"/>
<polygon fill="#63b8ff" stroke="#63b8ff" points="1034.88,-83.4 1044.9,-79.96 1034.92,-76.4 1034.88,-83.4"/>
</g>
<!-- Node3 -->
<g id="node3" class="node">
<title>Node3</title>
<g id="a_node3"><a xlink:href="auto__q__bases_8cpp.html" target="_top" xlink:title=" ">
<polygon fill="white" stroke="#666666" points="258,-30 141,-30 141,0 258,0 258,-30"/>
<text text-anchor="start" x="149" y="-18" font-family="Helvetica,sans-Serif" font-size="10.00">src/polyfem/autogen</text>
<text text-anchor="middle" x="199.5" y="-7" font-family="Helvetica,sans-Serif" font-size="10.00">/auto_q_bases.cpp</text>
</a>
</g>
</g>
<!-- Node1&#45;&gt;Node3 -->
<g id="edge2" class="edge">
<title>Node1&#45;&gt;Node3</title>
<path fill="none" stroke="#63b8ff" d="M1034.46,-79.29C890.87,-77.05 549.79,-67.85 266.5,-30 263.79,-29.64 261.03,-29.23 258.24,-28.78"/>
<polygon fill="#63b8ff" stroke="#63b8ff" points="1034.82,-82.79 1044.87,-79.44 1034.92,-75.79 1034.82,-82.79"/>
</g>
<!-- Node4 -->
<g id="node4" class="node">
<title>Node4</title>
<g id="a_node4"><a xlink:href="_lagrange_basis2d_8cpp.html" target="_top" xlink:title=" ">
<polygon fill="white" stroke="#666666" points="427,-30 276,-30 276,0 427,0 427,-30"/>
<text text-anchor="start" x="284" y="-18" font-family="Helvetica,sans-Serif" font-size="10.00">src/polyfem/basis/Lagrange</text>
<text text-anchor="middle" x="351.5" y="-7" font-family="Helvetica,sans-Serif" font-size="10.00">Basis2d.cpp</text>
</a>
</g>
</g>
<!-- Node1&#45;&gt;Node4 -->
<g id="edge3" class="edge">
<title>Node1&#45;&gt;Node4</title>
<path fill="none" stroke="#63b8ff" d="M1034.54,-76.9C913.13,-70.98 653.43,-56.26 435.5,-30 432.71,-29.66 429.87,-29.3 427.01,-28.92"/>
<polygon fill="#63b8ff" stroke="#63b8ff" points="1034.64,-80.41 1044.8,-77.39 1034.98,-73.42 1034.64,-80.41"/>
</g>
<!-- Node5 -->
<g id="node5" class="node">
<title>Node5</title>
<g id="a_node5"><a xlink:href="_lagrange_basis3d_8cpp.html" target="_top" xlink:title=" ">
<polygon fill="white" stroke="#666666" points="596,-30 445,-30 445,0 596,0 596,-30"/>
<text text-anchor="start" x="453" y="-18" font-family="Helvetica,sans-Serif" font-size="10.00">src/polyfem/basis/Lagrange</text>
<text text-anchor="middle" x="520.5" y="-7" font-family="Helvetica,sans-Serif" font-size="10.00">Basis3d.cpp</text>
</a>
</g>
</g>
<!-- Node1&#45;&gt;Node5 -->
<g id="edge4" class="edge">
<title>Node1&#45;&gt;Node5</title>
<path fill="none" stroke="#63b8ff" d="M1034.53,-74.46C938.26,-66.42 758.22,-50.22 605.5,-30 602.39,-29.59 599.21,-29.15 596.01,-28.69"/>
<polygon fill="#63b8ff" stroke="#63b8ff" points="1034.46,-77.97 1044.71,-75.31 1035.04,-70.99 1034.46,-77.97"/>
</g>
<!-- Node6 -->
<g id="node6" class="node">
<title>Node6</title>
<g id="a_node6"><a xlink:href="_polygonal_basis2d_8cpp.html" target="_top" xlink:title=" ">
<polygon fill="white" stroke="#666666" points="768.5,-30 614.5,-30 614.5,0 768.5,0 768.5,-30"/>
<text text-anchor="start" x="622.5" y="-18" font-family="Helvetica,sans-Serif" font-size="10.00">src/polyfem/basis/Polygonal</text>
<text text-anchor="middle" x="691.5" y="-7" font-family="Helvetica,sans-Serif" font-size="10.00">Basis2d.cpp</text>
</a>
</g>
</g>
<!-- Node1&#45;&gt;Node6 -->
<g id="edge5" class="edge">
<title>Node1&#45;&gt;Node6</title>
<path fill="none" stroke="#63b8ff" d="M1034.61,-69.62C968.6,-59.63 866.21,-44.02 777.5,-30 774.66,-29.55 771.77,-29.09 768.85,-28.63"/>
<polygon fill="#63b8ff" stroke="#63b8ff" points="1034.47,-73.14 1044.88,-71.17 1035.51,-66.22 1034.47,-73.14"/>
</g>
<!-- Node7 -->
<g id="node7" class="node">
<title>Node7</title>
<g id="a_node7"><a xlink:href="_polygonal_basis3d_8cpp.html" target="_top" xlink:title=" ">
<polygon fill="white" stroke="#666666" points="940.5,-30 786.5,-30 786.5,0 940.5,0 940.5,-30"/>
<text text-anchor="start" x="794.5" y="-18" font-family="Helvetica,sans-Serif" font-size="10.00">src/polyfem/basis/Polygonal</text>
<text text-anchor="middle" x="863.5" y="-7" font-family="Helvetica,sans-Serif" font-size="10.00">Basis3d.cpp</text>
</a>
</g>
</g>
<!-- Node1&#45;&gt;Node7 -->
<g id="edge6" class="edge">
<title>Node1&#45;&gt;Node7</title>
<path fill="none" stroke="#63b8ff" d="M1040.7,-63.25C1001.93,-52.91 952.75,-39.8 916.05,-30.01"/>
<polygon fill="#63b8ff" stroke="#63b8ff" points="1040.27,-66.76 1050.83,-65.95 1042.07,-60 1040.27,-66.76"/>
</g>
<!-- Node8 -->
<g id="node8" class="node">
<title>Node8</title>
<g id="a_node8"><a xlink:href="_spline_basis2d_8cpp.html" target="_top" xlink:title=" ">
<polygon fill="white" stroke="#666666" points="1094.5,-30 958.5,-30 958.5,0 1094.5,0 1094.5,-30"/>
<text text-anchor="start" x="966.5" y="-18" font-family="Helvetica,sans-Serif" font-size="10.00">src/polyfem/basis/Spline</text>
<text text-anchor="middle" x="1026.5" y="-7" font-family="Helvetica,sans-Serif" font-size="10.00">Basis2d.cpp</text>
</a>
</g>
</g>
<!-- Node1&#45;&gt;Node8 -->
<g id="edge7" class="edge">
<title>Node1&#45;&gt;Node8</title>
<path fill="none" stroke="#63b8ff" d="M1078.48,-59.2C1067.05,-49.7 1053.8,-38.69 1043.54,-30.16"/>
<polygon fill="#63b8ff" stroke="#63b8ff" points="1076.48,-62.1 1086.41,-65.8 1080.96,-56.71 1076.48,-62.1"/>
</g>
<!-- Node9 -->
<g id="node9" class="node">
<title>Node9</title>
<g id="a_node9"><a xlink:href="_spline_basis3d_8cpp.html" target="_top" xlink:title=" ">
<polygon fill="white" stroke="#666666" points="1248.5,-30 1112.5,-30 1112.5,0 1248.5,0 1248.5,-30"/>
<text text-anchor="start" x="1120.5" y="-18" font-family="Helvetica,sans-Serif" font-size="10.00">src/polyfem/basis/Spline</text>
<text text-anchor="middle" x="1180.5" y="-7" font-family="Helvetica,sans-Serif" font-size="10.00">Basis3d.cpp</text>
</a>
</g>
</g>
<!-- Node1&#45;&gt;Node9 -->
<g id="edge8" class="edge">
<title>Node1&#45;&gt;Node9</title>
<path fill="none" stroke="#63b8ff" d="M1128.52,-59.2C1139.95,-49.7 1153.2,-38.69 1163.46,-30.16"/>
<polygon fill="#63b8ff" stroke="#63b8ff" points="1126.04,-56.71 1120.59,-65.8 1130.52,-62.1 1126.04,-56.71"/>
</g>
<!-- Node10 -->
<g id="node10" class="node">
<title>Node10</title>
<g id="a_node10"><a xlink:href="_evaluator_8cpp.html" target="_top" xlink:title=" ">
<polygon fill="white" stroke="#666666" points="1422,-24.5 1267,-24.5 1267,-5.5 1422,-5.5 1422,-24.5"/>
<text text-anchor="middle" x="1344.5" y="-12.5" font-family="Helvetica,sans-Serif" font-size="10.00">src/polyfem/io/Evaluator.cpp</text>
</a>
</g>
</g>
<!-- Node1&#45;&gt;Node10 -->
<g id="edge9" class="edge">
<title>Node1&#45;&gt;Node10</title>
<path fill="none" stroke="#63b8ff" d="M1166.15,-63.36C1213.03,-50.91 1275.23,-34.4 1312.43,-24.52"/>
<polygon fill="#63b8ff" stroke="#63b8ff" points="1165.16,-60.01 1156.39,-65.95 1166.95,-66.77 1165.16,-60.01"/>
</g>
<!-- Node11 -->
<g id="node11" class="node">
<title>Node11</title>
<g id="a_node11"><a xlink:href="_out_data_8cpp.html" target="_top" xlink:title=" ">
<polygon fill="white" stroke="#666666" points="1590.5,-24.5 1440.5,-24.5 1440.5,-5.5 1590.5,-5.5 1590.5,-24.5"/>
<text text-anchor="middle" x="1515.5" y="-12.5" font-family="Helvetica,sans-Serif" font-size="10.00">src/polyfem/io/OutData.cpp</text>
</a>
</g>
</g>
<!-- Node1&#45;&gt;Node11 -->
<g id="edge10" class="edge">
<title>Node1&#45;&gt;Node11</title>
<path fill="none" stroke="#63b8ff" d="M1172.12,-69.82C1238.51,-59.91 1341.96,-44.29 1431.5,-30 1442.3,-28.28 1453.88,-26.38 1464.88,-24.55"/>
<polygon fill="#63b8ff" stroke="#63b8ff" points="1171.57,-66.37 1162.2,-71.3 1172.6,-73.29 1171.57,-66.37"/>
</g>
<!-- Node12 -->
<g id="node12" class="node">
<title>Node12</title>
<g id="a_node12"><a xlink:href="_a_priori_8cpp.html" target="_top" xlink:title=" ">
<polygon fill="white" stroke="#666666" points="1740,-30 1609,-30 1609,0 1740,0 1740,-30"/>
<text text-anchor="start" x="1617" y="-18" font-family="Helvetica,sans-Serif" font-size="10.00">src/polyfem/refinement</text>
<text text-anchor="middle" x="1674.5" y="-7" font-family="Helvetica,sans-Serif" font-size="10.00">/APriori.cpp</text>
</a>
</g>
</g>
<!-- Node1&#45;&gt;Node12 -->
<g id="edge11" class="edge">
<title>Node1&#45;&gt;Node12</title>
<path fill="none" stroke="#63b8ff" d="M1172.26,-74.91C1268.22,-67.38 1447.62,-51.79 1599.5,-30 1602.52,-29.57 1605.59,-29.1 1608.7,-28.61"/>
<polygon fill="#63b8ff" stroke="#63b8ff" points="1171.8,-71.43 1162.11,-75.7 1172.35,-78.41 1171.8,-71.43"/>
</g>
<!-- Node13 -->
<g id="node13" class="node">
<title>Node13</title>
<g id="a_node13"><a xlink:href="_state_init_8cpp.html" target="_top" xlink:title=" ">
<polygon fill="white" stroke="#666666" points="1925,-24.5 1758,-24.5 1758,-5.5 1925,-5.5 1925,-24.5"/>
<text text-anchor="middle" x="1841.5" y="-12.5" font-family="Helvetica,sans-Serif" font-size="10.00">src/polyfem/state/StateInit.cpp</text>
</a>
</g>
</g>
<!-- Node1&#45;&gt;Node13 -->
<g id="edge12" class="edge">
<title>Node1&#45;&gt;Node13</title>
<path fill="none" stroke="#63b8ff" d="M1172.43,-76.34C1290.73,-69.68 1539.92,-54.02 1749.5,-30 1762.66,-28.49 1776.83,-26.51 1790.01,-24.52"/>
<polygon fill="#63b8ff" stroke="#63b8ff" points="1172.21,-72.85 1162.43,-76.9 1172.61,-79.83 1172.21,-72.85"/>
</g>
<!-- Node14 -->
<g id="node14" class="node">
<title>Node14</title>
<g id="a_node14"><a xlink:href="_state_solve_navier_stokes_8cpp.html" target="_top" xlink:title=" ">
<polygon fill="white" stroke="#666666" points="2100.5,-30 1942.5,-30 1942.5,0 2100.5,0 2100.5,-30"/>
<text text-anchor="start" x="1950.5" y="-18" font-family="Helvetica,sans-Serif" font-size="10.00">src/polyfem/state/StateSolve</text>
<text text-anchor="middle" x="2021.5" y="-7" font-family="Helvetica,sans-Serif" font-size="10.00">NavierStokes.cpp</text>
</a>
</g>
</g>
<!-- Node1&#45;&gt;Node14 -->
<g id="edge13" class="edge">
<title>Node1&#45;&gt;Node14</title>
<path fill="none" stroke="#63b8ff" d="M1172.44,-78.17C1315.07,-73.88 1652.79,-61.06 1934.5,-30 1937.09,-29.71 1939.71,-29.41 1942.36,-29.08"/>
<polygon fill="#63b8ff" stroke="#63b8ff" points="1172,-74.68 1162.1,-78.48 1172.2,-81.68 1172,-74.68"/>
</g>
<!-- Node15 -->
<g id="node15" class="node">
<title>Node15</title>
<g id="a_node15"><a xlink:href="_boundary_sampler_8cpp.html" target="_top" xlink:title=" ">
<polygon fill="white" stroke="#666666" points="2266.5,-30 2118.5,-30 2118.5,0 2266.5,0 2266.5,-30"/>
<text text-anchor="start" x="2126.5" y="-18" font-family="Helvetica,sans-Serif" font-size="10.00">src/polyfem/utils/Boundary</text>
<text text-anchor="middle" x="2192.5" y="-7" font-family="Helvetica,sans-Serif" font-size="10.00">Sampler.cpp</text>
</a>
</g>
</g>
<!-- Node1&#45;&gt;Node15 -->
<g id="edge14" class="edge">
<title>Node1&#45;&gt;Node15</title>
<path fill="none" stroke="#63b8ff" d="M1172.47,-79.36C1335.76,-77.23 1758.65,-68.17 2109.5,-30 2112.41,-29.68 2115.36,-29.33 2118.35,-28.95"/>
<polygon fill="#63b8ff" stroke="#63b8ff" points="1172.04,-75.86 1162.09,-79.49 1172.13,-82.86 1172.04,-75.86"/>
</g>
</g>
</svg>
