<?xml version="1.0" encoding="UTF-8" standalone="no"?>
<!DOCTYPE svg PUBLIC "-//W3C//DTD SVG 1.1//EN"
 "http://www.w3.org/Graphics/SVG/1.1/DTD/svg11.dtd">
<!-- Generated by graphviz version 2.43.0 (0)
 -->
<!-- Title: polyfem::io::MshWriter::write Pages: 1 -->
<svg width="728pt" height="118pt"
 viewBox="0.00 0.00 728.00 117.50" xmlns="http://www.w3.org/2000/svg" xmlns:xlink="http://www.w3.org/1999/xlink">
<g id="graph0" class="graph" transform="scale(1 1) rotate(0) translate(4 113.5)">
<title>polyfem::io::MshWriter::write</title>
<!-- Node1 -->
<g id="Node000001" class="node">
<title>Node1</title>
<g id="a_Node000001"><a xlink:title="saves the mesh">
<polygon fill="#999999" stroke="#666666" points="720,-54 592,-54 592,-24 720,-24 720,-54"/>
<text text-anchor="start" x="600" y="-42" font-family="Helvetica,sans-Serif" font-size="10.00">polyfem::io::MshWriter</text>
<text text-anchor="middle" x="656" y="-31" font-family="Helvetica,sans-Serif" font-size="10.00">::write</text>
</a>
</g>
</g>
<!-- Node1&#45;&gt;Node1 -->
<g id="edge8_Node000001_Node000001" class="edge">
<title>Node1&#45;&gt;Node1</title>
<g id="a_edge8_Node000001_Node000001"><a xlink:title=" ">
<path fill="none" stroke="#63b8ff" d="M686.81,-64.6C682.6,-68.97 672.33,-72 656,-72 628.5,-72 618.19,-63.41 625.06,-54.28"/>
<polygon fill="#63b8ff" stroke="#63b8ff" points="690.31,-64.32 686.94,-54.28 683.31,-64.23 690.31,-64.32"/>
</a>
</g>
</g>
<!-- Node2 -->
<g id="Node000002" class="node">
<title>Node2</title>
<g id="a_Node000002"><a xlink:href="classpolyfem_1_1_state.html#a4d91e8c971fc121b0cff2f0c02ca79e7" target="_top" xlink:title="solves transient tensor nonlinear problem">
<polygon fill="white" stroke="#666666" points="556,-78 404,-78 404,-48 556,-48 556,-78"/>
<text text-anchor="start" x="412" y="-66" font-family="Helvetica,sans-Serif" font-size="10.00">polyfem::State::solve</text>
<text text-anchor="middle" x="480" y="-55" font-family="Helvetica,sans-Serif" font-size="10.00">_transient_tensor_nonlinear</text>
</a>
</g>
</g>
<!-- Node1&#45;&gt;Node2 -->
<g id="edge1_Node000001_Node000002" class="edge">
<title>Node1&#45;&gt;Node2</title>
<g id="a_edge1_Node000001_Node000002"><a xlink:title=" ">
<path fill="none" stroke="#63b8ff" d="M581.53,-49.13C573.12,-50.29 564.53,-51.48 556.09,-52.64"/>
<polygon fill="#63b8ff" stroke="#63b8ff" points="582.26,-52.57 591.69,-47.73 581.31,-45.63 582.26,-52.57"/>
</a>
</g>
</g>
<!-- Node8 -->
<g id="Node000008" class="node">
<title>Node8</title>
<g id="a_Node000008"><a xlink:href="classpolyfem_1_1io_1_1_msh_writer.html#aa7f9ce821f3695c5e2e8e90fff5f489c" target="_top" xlink:title="saves the mesh">
<polygon fill="white" stroke="#666666" points="544,-30 416,-30 416,0 544,0 544,-30"/>
<text text-anchor="start" x="424" y="-18" font-family="Helvetica,sans-Serif" font-size="10.00">polyfem::io::MshWriter</text>
<text text-anchor="middle" x="480" y="-7" font-family="Helvetica,sans-Serif" font-size="10.00">::write</text>
</a>
</g>
</g>
<!-- Node1&#45;&gt;Node8 -->
<g id="edge7_Node000001_Node000008" class="edge">
<title>Node1&#45;&gt;Node8</title>
<g id="a_edge7_Node000001_Node000008"><a xlink:title=" ">
<path fill="none" stroke="#63b8ff" d="M581.42,-28.85C569.06,-27.15 556.33,-25.39 544.26,-23.73"/>
<polygon fill="#63b8ff" stroke="#63b8ff" points="581.31,-32.37 591.69,-30.27 582.26,-25.43 581.31,-32.37"/>
</a>
</g>
</g>
<!-- Node3 -->
<g id="Node000003" class="node">
<title>Node3</title>
<g id="a_Node000003"><a xlink:href="classpolyfem_1_1_state.html#a7450ef7c42dd9c523e1be73a5819117d" target="_top" xlink:title="solves the problems">
<polygon fill="white" stroke="#666666" points="368,-78 247,-78 247,-48 368,-48 368,-78"/>
<text text-anchor="start" x="255" y="-66" font-family="Helvetica,sans-Serif" font-size="10.00">polyfem::State::solve</text>
<text text-anchor="middle" x="307.5" y="-55" font-family="Helvetica,sans-Serif" font-size="10.00">_problem</text>
</a>
</g>
</g>
<!-- Node2&#45;&gt;Node3 -->
<g id="edge2_Node000002_Node000003" class="edge">
<title>Node2&#45;&gt;Node3</title>
<g id="a_edge2_Node000002_Node000003"><a xlink:title=" ">
<path fill="none" stroke="#63b8ff" d="M393.59,-63C384.95,-63 376.31,-63 368.02,-63"/>
<polygon fill="#63b8ff" stroke="#63b8ff" points="393.72,-66.5 403.72,-63 393.72,-59.5 393.72,-66.5"/>
</a>
</g>
</g>
<!-- Node4 -->
<g id="Node000004" class="node">
<title>Node4</title>
<g id="a_Node000004"><a xlink:href="main_8cpp.html#aec889c702a246ad7f332c75ab7adb438" target="_top" xlink:title=" ">
<polygon fill="white" stroke="#666666" points="199.5,-109.5 88.5,-109.5 88.5,-90.5 199.5,-90.5 199.5,-109.5"/>
<text text-anchor="middle" x="144" y="-97.5" font-family="Helvetica,sans-Serif" font-size="10.00">forward_simulation</text>
</a>
</g>
</g>
<!-- Node3&#45;&gt;Node4 -->
<g id="edge3_Node000003_Node000004" class="edge">
<title>Node3&#45;&gt;Node4</title>
<g id="a_edge3_Node000003_Node000004"><a xlink:title=" ">
<path fill="none" stroke="#63b8ff" d="M236.88,-78.95C219.82,-82.86 202.08,-86.92 186.8,-90.42"/>
<polygon fill="#63b8ff" stroke="#63b8ff" points="237.86,-82.32 246.82,-76.67 236.29,-75.49 237.86,-82.32"/>
</a>
</g>
</g>
<!-- Node6 -->
<g id="Node000006" class="node">
<title>Node6</title>
<g id="a_Node000006"><a xlink:href="classpolyfem_1_1_state.html#a219f9935d918f739d82488449bd4cbf4" target="_top" xlink:title="solves the problem, call other methods">
<polygon fill="white" stroke="#666666" points="204.5,-72.5 83.5,-72.5 83.5,-53.5 204.5,-53.5 204.5,-72.5"/>
<text text-anchor="middle" x="144" y="-60.5" font-family="Helvetica,sans-Serif" font-size="10.00">polyfem::State::solve</text>
</a>
</g>
</g>
<!-- Node3&#45;&gt;Node6 -->
<g id="edge5_Node000003_Node000006" class="edge">
<title>Node3&#45;&gt;Node6</title>
<g id="a_edge5_Node000003_Node000006"><a xlink:title=" ">
<path fill="none" stroke="#63b8ff" d="M236.7,-63C226.04,-63 215.12,-63 204.7,-63"/>
<polygon fill="#63b8ff" stroke="#63b8ff" points="236.82,-66.5 246.82,-63 236.82,-59.5 236.82,-66.5"/>
</a>
</g>
</g>
<!-- Node7 -->
<g id="Node000007" class="node">
<title>Node7</title>
<g id="a_Node000007"><a xlink:href="structpolyfem_1_1solver_1_1_adjoint_opt_utils.html#acac3e8ce8646ddd1544ed034c71bec96" target="_top" xlink:title=" ">
<polygon fill="white" stroke="#666666" points="211,-35 77,-35 77,-5 211,-5 211,-35"/>
<text text-anchor="start" x="85" y="-23" font-family="Helvetica,sans-Serif" font-size="10.00">polyfem::solver::Adjoint</text>
<text text-anchor="middle" x="144" y="-12" font-family="Helvetica,sans-Serif" font-size="10.00">OptUtils::solve_pde</text>
</a>
</g>
</g>
<!-- Node3&#45;&gt;Node7 -->
<g id="edge6_Node000003_Node000007" class="edge">
<title>Node3&#45;&gt;Node7</title>
<g id="a_edge6_Node000003_Node000007"><a xlink:title=" ">
<path fill="none" stroke="#63b8ff" d="M240.28,-45.37C227.39,-41.94 213.99,-38.37 201.45,-35.03"/>
<polygon fill="#63b8ff" stroke="#63b8ff" points="239.45,-48.77 250.02,-47.96 241.25,-42.01 239.45,-48.77"/>
</a>
</g>
</g>
<!-- Node5 -->
<g id="Node000005" class="node">
<title>Node5</title>
<g id="a_Node000005"><a xlink:href="main_8cpp.html#a3c04138a5bfe5d72780bb7e82a18e627" target="_top" xlink:title=" ">
<polygon fill="white" stroke="#666666" points="41,-109.5 0,-109.5 0,-90.5 41,-90.5 41,-109.5"/>
<text text-anchor="middle" x="20.5" y="-97.5" font-family="Helvetica,sans-Serif" font-size="10.00">main</text>
</a>
</g>
</g>
<!-- Node4&#45;&gt;Node5 -->
<g id="edge4_Node000004_Node000005" class="edge">
<title>Node4&#45;&gt;Node5</title>
<g id="a_edge4_Node000004_Node000005"><a xlink:title=" ">
<path fill="none" stroke="#63b8ff" d="M77.97,-100C64.49,-100 51.29,-100 41.05,-100"/>
<polygon fill="#63b8ff" stroke="#63b8ff" points="78.29,-103.5 88.29,-100 78.29,-96.5 78.29,-103.5"/>
</a>
</g>
</g>
</g>
</svg>
