<?xml version="1.0" encoding="UTF-8" standalone="no"?>
<!DOCTYPE svg PUBLIC "-//W3C//DTD SVG 1.1//EN"
 "http://www.w3.org/Graphics/SVG/1.1/DTD/svg11.dtd">
<!-- Generated by graphviz version 2.43.0 (0)
 -->
<!-- Title: polyfem::assembler::Interpolation::build Pages: 1 -->
<svg width="650pt" height="827pt"
 viewBox="0.00 0.00 650.00 827.00" xmlns="http://www.w3.org/2000/svg" xmlns:xlink="http://www.w3.org/1999/xlink">
<g id="graph0" class="graph" transform="scale(1 1) rotate(0) translate(4 823)">
<title>polyfem::assembler::Interpolation::build</title>
<!-- Node1 -->
<g id="node1" class="node">
<title>Node1</title>
<g id="a_node1"><a xlink:title=" ">
<polygon fill="#bfbfbf" stroke="black" points="527,-393 527,-423 642,-423 642,-393 527,-393"/>
<text text-anchor="start" x="535" y="-411" font-family="Helvetica,sans-Serif" font-size="10.00">polyfem::assembler</text>
<text text-anchor="middle" x="584.5" y="-400" font-family="Helvetica,sans-Serif" font-size="10.00">::Interpolation::build</text>
</a>
</g>
</g>
<!-- Node2 -->
<g id="node2" class="node">
<title>Node2</title>
<g id="a_node2"><a xlink:href="classpolyfem_1_1assembler_1_1_generic_tensor_problem.html#a5728589d3f24ab533c705f5cee6183cf" target="_top" xlink:title=" ">
<polygon fill="none" stroke="black" points="343.5,-777.5 343.5,-818.5 480.5,-818.5 480.5,-777.5 343.5,-777.5"/>
<text text-anchor="start" x="351.5" y="-806.5" font-family="Helvetica,sans-Serif" font-size="10.00">polyfem::assembler</text>
<text text-anchor="start" x="351.5" y="-795.5" font-family="Helvetica,sans-Serif" font-size="10.00">::GenericTensorProblem</text>
<text text-anchor="middle" x="412" y="-784.5" font-family="Helvetica,sans-Serif" font-size="10.00">::add_dirichlet_boundary</text>
</a>
</g>
</g>
<!-- Node1&#45;&gt;Node2 -->
<g id="edge1" class="edge">
<title>Node1&#45;&gt;Node2</title>
<path fill="none" stroke="midnightblue" d="M580.01,-433.57C569.5,-507.15 536.11,-717.35 491,-768 487.91,-771.47 484.38,-774.54 480.56,-777.25"/>
<polygon fill="midnightblue" stroke="midnightblue" points="583.52,-433.75 581.44,-423.36 576.59,-432.78 583.52,-433.75"/>
</g>
<!-- Node3 -->
<g id="node3" class="node">
<title>Node3</title>
<g id="a_node3"><a xlink:href="classpolyfem_1_1assembler_1_1_generic_scalar_problem.html#ac19db982c393e82dab98e807d373bd87" target="_top" xlink:title=" ">
<polygon fill="none" stroke="black" points="343.5,-717.5 343.5,-758.5 480.5,-758.5 480.5,-717.5 343.5,-717.5"/>
<text text-anchor="start" x="351.5" y="-746.5" font-family="Helvetica,sans-Serif" font-size="10.00">polyfem::assembler</text>
<text text-anchor="start" x="351.5" y="-735.5" font-family="Helvetica,sans-Serif" font-size="10.00">::GenericScalarProblem</text>
<text text-anchor="middle" x="412" y="-724.5" font-family="Helvetica,sans-Serif" font-size="10.00">::add_dirichlet_boundary</text>
</a>
</g>
</g>
<!-- Node1&#45;&gt;Node3 -->
<g id="edge2" class="edge">
<title>Node1&#45;&gt;Node3</title>
<path fill="none" stroke="midnightblue" d="M582.85,-433.22C580.03,-489.83 565.47,-628.28 491,-708 487.73,-711.5 484.01,-714.59 480.01,-717.33"/>
<polygon fill="midnightblue" stroke="midnightblue" points="586.35,-433.16 583.27,-423.03 579.36,-432.88 586.35,-433.16"/>
</g>
<!-- Node4 -->
<g id="node4" class="node">
<title>Node4</title>
<g id="a_node4"><a xlink:href="classpolyfem_1_1assembler_1_1_generic_scalar_problem.html#aa835d048940aaf24a8cca29df53d1cdf" target="_top" xlink:title=" ">
<polygon fill="none" stroke="black" points="340.5,-657.5 340.5,-698.5 483.5,-698.5 483.5,-657.5 340.5,-657.5"/>
<text text-anchor="start" x="348.5" y="-686.5" font-family="Helvetica,sans-Serif" font-size="10.00">polyfem::assembler</text>
<text text-anchor="start" x="348.5" y="-675.5" font-family="Helvetica,sans-Serif" font-size="10.00">::GenericScalarProblem</text>
<text text-anchor="middle" x="412" y="-664.5" font-family="Helvetica,sans-Serif" font-size="10.00">::add_neumann_boundary</text>
</a>
</g>
</g>
<!-- Node1&#45;&gt;Node4 -->
<g id="edge3" class="edge">
<title>Node1&#45;&gt;Node4</title>
<path fill="none" stroke="midnightblue" d="M580.52,-433.41C573.57,-481.64 551.95,-587.09 491,-648 487.51,-651.49 483.57,-654.58 479.37,-657.31"/>
<polygon fill="midnightblue" stroke="midnightblue" points="584.03,-433.6 581.89,-423.22 577.09,-432.67 584.03,-433.6"/>
</g>
<!-- Node5 -->
<g id="node5" class="node">
<title>Node5</title>
<g id="a_node5"><a xlink:href="classpolyfem_1_1assembler_1_1_generic_tensor_problem.html#a2dfb132f15290d8f5849e42f791f961c" target="_top" xlink:title=" ">
<polygon fill="none" stroke="black" points="340.5,-597.5 340.5,-638.5 483.5,-638.5 483.5,-597.5 340.5,-597.5"/>
<text text-anchor="start" x="348.5" y="-626.5" font-family="Helvetica,sans-Serif" font-size="10.00">polyfem::assembler</text>
<text text-anchor="start" x="348.5" y="-615.5" font-family="Helvetica,sans-Serif" font-size="10.00">::GenericTensorProblem</text>
<text text-anchor="middle" x="412" y="-604.5" font-family="Helvetica,sans-Serif" font-size="10.00">::add_neumann_boundary</text>
</a>
</g>
</g>
<!-- Node1&#45;&gt;Node5 -->
<g id="edge4" class="edge">
<title>Node1&#45;&gt;Node5</title>
<path fill="none" stroke="midnightblue" d="M576.95,-432.91C565.63,-471.3 538.91,-544.98 491,-588 487.11,-591.49 482.78,-594.59 478.2,-597.34"/>
<polygon fill="midnightblue" stroke="midnightblue" points="580.37,-433.65 579.73,-423.08 573.64,-431.74 580.37,-433.65"/>
</g>
<!-- Node6 -->
<g id="node6" class="node">
<title>Node6</title>
<g id="a_node6"><a xlink:href="classpolyfem_1_1assembler_1_1_generic_tensor_problem.html#ae60e643880964bc452f918978725abf5" target="_top" xlink:title=" ">
<polygon fill="none" stroke="black" points="342.5,-537.5 342.5,-578.5 481.5,-578.5 481.5,-537.5 342.5,-537.5"/>
<text text-anchor="start" x="350.5" y="-566.5" font-family="Helvetica,sans-Serif" font-size="10.00">polyfem::assembler</text>
<text text-anchor="start" x="350.5" y="-555.5" font-family="Helvetica,sans-Serif" font-size="10.00">::GenericTensorProblem</text>
<text text-anchor="middle" x="412" y="-544.5" font-family="Helvetica,sans-Serif" font-size="10.00">::add_pressure_boundary</text>
</a>
</g>
</g>
<!-- Node1&#45;&gt;Node6 -->
<g id="edge5" class="edge">
<title>Node1&#45;&gt;Node6</title>
<path fill="none" stroke="midnightblue" d="M570.58,-431.77C554.95,-458.53 526.28,-501.7 491,-528 486.35,-531.47 481.24,-534.59 475.95,-537.38"/>
<polygon fill="midnightblue" stroke="midnightblue" points="573.64,-433.47 575.56,-423.05 567.56,-430 573.64,-433.47"/>
</g>
<!-- Node7 -->
<g id="node7" class="node">
<title>Node7</title>
<g id="a_node7"><a xlink:href="classpolyfem_1_1mesh_1_1_obstacle.html#a82674621defd206a482a2842c33935e5" target="_top" xlink:title=" ">
<polygon fill="none" stroke="black" points="342.5,-470 342.5,-500 481.5,-500 481.5,-470 342.5,-470"/>
<text text-anchor="start" x="350.5" y="-488" font-family="Helvetica,sans-Serif" font-size="10.00">polyfem::mesh::Obstacle</text>
<text text-anchor="middle" x="412" y="-477" font-family="Helvetica,sans-Serif" font-size="10.00">::append_mesh</text>
</a>
</g>
</g>
<!-- Node1&#45;&gt;Node7 -->
<g id="edge6" class="edge">
<title>Node1&#45;&gt;Node7</title>
<path fill="none" stroke="midnightblue" d="M551.2,-428.28C533.8,-438.66 511.71,-450.97 491,-460 482.79,-463.58 473.89,-466.91 465.15,-469.9"/>
<polygon fill="midnightblue" stroke="midnightblue" points="553.09,-431.23 559.84,-423.06 549.47,-425.24 553.09,-431.23"/>
</g>
<!-- Node10 -->
<g id="node10" class="node">
<title>Node10</title>
<g id="a_node10"><a xlink:href="classpolyfem_1_1mesh_1_1_obstacle.html#a41eba5cf29f17570dd4a380beb30acc7" target="_top" xlink:title=" ">
<polygon fill="none" stroke="black" points="342.5,-421 342.5,-451 481.5,-451 481.5,-421 342.5,-421"/>
<text text-anchor="start" x="350.5" y="-439" font-family="Helvetica,sans-Serif" font-size="10.00">polyfem::mesh::Obstacle</text>
<text text-anchor="middle" x="412" y="-428" font-family="Helvetica,sans-Serif" font-size="10.00">::change_displacement</text>
</a>
</g>
</g>
<!-- Node1&#45;&gt;Node10 -->
<g id="edge11" class="edge">
<title>Node1&#45;&gt;Node10</title>
<path fill="none" stroke="midnightblue" d="M516.75,-418.96C505.23,-420.85 493.24,-422.82 481.67,-424.72"/>
<polygon fill="midnightblue" stroke="midnightblue" points="517.43,-422.4 526.73,-417.32 516.29,-415.49 517.43,-422.4"/>
</g>
<!-- Node11 -->
<g id="node11" class="node">
<title>Node11</title>
<g id="a_node11"><a xlink:href="classpolyfem_1_1assembler_1_1_generic_tensor_problem.html#a3286b846bdcde273f9713d019d6053d2" target="_top" xlink:title=" ">
<polygon fill="none" stroke="black" points="346,-360.5 346,-401.5 478,-401.5 478,-360.5 346,-360.5"/>
<text text-anchor="start" x="354" y="-389.5" font-family="Helvetica,sans-Serif" font-size="10.00">polyfem::assembler</text>
<text text-anchor="start" x="354" y="-378.5" font-family="Helvetica,sans-Serif" font-size="10.00">::GenericTensorProblem</text>
<text text-anchor="middle" x="412" y="-367.5" font-family="Helvetica,sans-Serif" font-size="10.00">::set_parameters</text>
</a>
</g>
</g>
<!-- Node1&#45;&gt;Node11 -->
<g id="edge12" class="edge">
<title>Node1&#45;&gt;Node11</title>
<path fill="none" stroke="midnightblue" d="M516.69,-397.42C503.99,-395.41 490.72,-393.31 478.07,-391.3"/>
<polygon fill="midnightblue" stroke="midnightblue" points="516.3,-400.9 526.73,-399.01 517.4,-393.99 516.3,-400.9"/>
</g>
<!-- Node12 -->
<g id="node12" class="node">
<title>Node12</title>
<g id="a_node12"><a xlink:href="classpolyfem_1_1assembler_1_1_generic_scalar_problem.html#a1893d02c1123a15dccbe4b98f1e3c5d4" target="_top" xlink:title=" ">
<polygon fill="none" stroke="black" points="346.5,-300.5 346.5,-341.5 477.5,-341.5 477.5,-300.5 346.5,-300.5"/>
<text text-anchor="start" x="354.5" y="-329.5" font-family="Helvetica,sans-Serif" font-size="10.00">polyfem::assembler</text>
<text text-anchor="start" x="354.5" y="-318.5" font-family="Helvetica,sans-Serif" font-size="10.00">::GenericScalarProblem</text>
<text text-anchor="middle" x="412" y="-307.5" font-family="Helvetica,sans-Serif" font-size="10.00">::set_parameters</text>
</a>
</g>
</g>
<!-- Node1&#45;&gt;Node12 -->
<g id="edge13" class="edge">
<title>Node1&#45;&gt;Node12</title>
<path fill="none" stroke="midnightblue" d="M553.01,-387.23C535.36,-375.71 512.45,-361.62 491,-351 484.37,-347.72 477.28,-344.55 470.19,-341.59"/>
<polygon fill="midnightblue" stroke="midnightblue" points="551.46,-390.4 561.73,-392.99 555.31,-384.56 551.46,-390.4"/>
</g>
<!-- Node13 -->
<g id="node13" class="node">
<title>Node13</title>
<g id="a_node13"><a xlink:href="classpolyfem_1_1assembler_1_1_generic_tensor_problem.html#a59cc80428b158cddb140fb3f74f3e00c" target="_top" xlink:title=" ">
<polygon fill="none" stroke="black" points="336,-240.5 336,-281.5 488,-281.5 488,-240.5 336,-240.5"/>
<text text-anchor="start" x="344" y="-269.5" font-family="Helvetica,sans-Serif" font-size="10.00">polyfem::assembler</text>
<text text-anchor="start" x="344" y="-258.5" font-family="Helvetica,sans-Serif" font-size="10.00">::GenericTensorProblem</text>
<text text-anchor="middle" x="412" y="-247.5" font-family="Helvetica,sans-Serif" font-size="10.00">::update_dirichlet_boundary</text>
</a>
</g>
</g>
<!-- Node1&#45;&gt;Node13 -->
<g id="edge14" class="edge">
<title>Node1&#45;&gt;Node13</title>
<path fill="none" stroke="midnightblue" d="M569.98,-384.07C554.12,-357.94 525.55,-316.43 491,-291 486.33,-287.56 481.21,-284.46 475.9,-281.68"/>
<polygon fill="midnightblue" stroke="midnightblue" points="567.13,-386.12 575.23,-392.94 573.15,-382.56 567.13,-386.12"/>
</g>
<!-- Node14 -->
<g id="node14" class="node">
<title>Node14</title>
<g id="a_node14"><a xlink:href="classpolyfem_1_1assembler_1_1_generic_scalar_problem.html#ad9aa00932183d8cf97e222d45bfb8594" target="_top" xlink:title=" ">
<polygon fill="none" stroke="black" points="336,-180.5 336,-221.5 488,-221.5 488,-180.5 336,-180.5"/>
<text text-anchor="start" x="344" y="-209.5" font-family="Helvetica,sans-Serif" font-size="10.00">polyfem::assembler</text>
<text text-anchor="start" x="344" y="-198.5" font-family="Helvetica,sans-Serif" font-size="10.00">::GenericScalarProblem</text>
<text text-anchor="middle" x="412" y="-187.5" font-family="Helvetica,sans-Serif" font-size="10.00">::update_dirichlet_boundary</text>
</a>
</g>
</g>
<!-- Node1&#45;&gt;Node14 -->
<g id="edge15" class="edge">
<title>Node1&#45;&gt;Node14</title>
<path fill="none" stroke="midnightblue" d="M576.74,-383.22C565.22,-345.38 538.31,-273.18 491,-231 487.1,-227.52 482.76,-224.43 478.17,-221.69"/>
<polygon fill="midnightblue" stroke="midnightblue" points="573.42,-384.31 579.59,-392.92 580.13,-382.34 573.42,-384.31"/>
</g>
<!-- Node15 -->
<g id="node15" class="node">
<title>Node15</title>
<g id="a_node15"><a xlink:href="classpolyfem_1_1assembler_1_1_generic_scalar_problem.html#afde49726f79a595096c727b4b489d586" target="_top" xlink:title=" ">
<polygon fill="none" stroke="black" points="333,-120.5 333,-161.5 491,-161.5 491,-120.5 333,-120.5"/>
<text text-anchor="start" x="341" y="-149.5" font-family="Helvetica,sans-Serif" font-size="10.00">polyfem::assembler</text>
<text text-anchor="start" x="341" y="-138.5" font-family="Helvetica,sans-Serif" font-size="10.00">::GenericScalarProblem</text>
<text text-anchor="middle" x="412" y="-127.5" font-family="Helvetica,sans-Serif" font-size="10.00">::update_neumann_boundary</text>
</a>
</g>
</g>
<!-- Node1&#45;&gt;Node15 -->
<g id="edge16" class="edge">
<title>Node1&#45;&gt;Node15</title>
<path fill="none" stroke="midnightblue" d="M580.43,-382.91C573.31,-335.27 551.42,-231.12 491,-171 487.5,-167.52 483.56,-164.44 479.35,-161.7"/>
<polygon fill="midnightblue" stroke="midnightblue" points="576.98,-383.54 581.83,-392.96 583.91,-382.57 576.98,-383.54"/>
</g>
<!-- Node16 -->
<g id="node16" class="node">
<title>Node16</title>
<g id="a_node16"><a xlink:href="classpolyfem_1_1assembler_1_1_generic_tensor_problem.html#abaf54538c400c9e9abb4d56777335a73" target="_top" xlink:title=" ">
<polygon fill="none" stroke="black" points="333,-60.5 333,-101.5 491,-101.5 491,-60.5 333,-60.5"/>
<text text-anchor="start" x="341" y="-89.5" font-family="Helvetica,sans-Serif" font-size="10.00">polyfem::assembler</text>
<text text-anchor="start" x="341" y="-78.5" font-family="Helvetica,sans-Serif" font-size="10.00">::GenericTensorProblem</text>
<text text-anchor="middle" x="412" y="-67.5" font-family="Helvetica,sans-Serif" font-size="10.00">::update_neumann_boundary</text>
</a>
</g>
</g>
<!-- Node1&#45;&gt;Node16 -->
<g id="edge17" class="edge">
<title>Node1&#45;&gt;Node16</title>
<path fill="none" stroke="midnightblue" d="M582.74,-382.63C579.72,-326.33 564.73,-189.7 491,-111 487.73,-107.51 484,-104.41 479.99,-101.68"/>
<polygon fill="midnightblue" stroke="midnightblue" points="579.25,-382.95 583.2,-392.78 586.25,-382.63 579.25,-382.95"/>
</g>
<!-- Node17 -->
<g id="node17" class="node">
<title>Node17</title>
<g id="a_node17"><a xlink:href="classpolyfem_1_1assembler_1_1_generic_tensor_problem.html#a2c6b251a88d2166c1cc333aad8a7128b" target="_top" xlink:title=" ">
<polygon fill="none" stroke="black" points="334.5,-0.5 334.5,-41.5 489.5,-41.5 489.5,-0.5 334.5,-0.5"/>
<text text-anchor="start" x="342.5" y="-29.5" font-family="Helvetica,sans-Serif" font-size="10.00">polyfem::assembler</text>
<text text-anchor="start" x="342.5" y="-18.5" font-family="Helvetica,sans-Serif" font-size="10.00">::GenericTensorProblem</text>
<text text-anchor="middle" x="412" y="-7.5" font-family="Helvetica,sans-Serif" font-size="10.00">::update_pressure_boundary</text>
</a>
</g>
</g>
<!-- Node1&#45;&gt;Node17 -->
<g id="edge18" class="edge">
<title>Node1&#45;&gt;Node17</title>
<path fill="none" stroke="midnightblue" d="M584.36,-382.53C585.12,-318.46 578.27,-148.79 491,-51 487.81,-47.43 484.15,-44.28 480.19,-41.5"/>
<polygon fill="midnightblue" stroke="midnightblue" points="580.85,-382.82 584.15,-392.89 587.85,-382.96 580.85,-382.82"/>
</g>
<!-- Node7&#45;&gt;Node7 -->
<g id="edge7" class="edge">
<title>Node7&#45;&gt;Node7</title>
<path fill="none" stroke="midnightblue" d="M442.56,-510.46C438.77,-515.18 428.58,-518.5 412,-518.5 384.79,-518.5 374.8,-509.56 382.03,-500.16"/>
<polygon fill="midnightblue" stroke="midnightblue" points="446.04,-509.94 441.97,-500.16 439.05,-510.34 446.04,-509.94"/>
</g>
<!-- Node8 -->
<g id="node8" class="node">
<title>Node8</title>
<g id="a_node8"><a xlink:href="classpolyfem_1_1mesh_1_1_obstacle.html#a71ba54d050ad956de73af7d4a0f97636" target="_top" xlink:title=" ">
<polygon fill="none" stroke="black" points="154,-492 154,-522 297,-522 297,-492 154,-492"/>
<text text-anchor="start" x="162" y="-510" font-family="Helvetica,sans-Serif" font-size="10.00">polyfem::mesh::Obstacle</text>
<text text-anchor="middle" x="225.5" y="-499" font-family="Helvetica,sans-Serif" font-size="10.00">::append_mesh_sequence</text>
</a>
</g>
</g>
<!-- Node7&#45;&gt;Node8 -->
<g id="edge8" class="edge">
<title>Node7&#45;&gt;Node8</title>
<path fill="none" stroke="midnightblue" d="M332.16,-494.4C320.51,-495.79 308.57,-497.21 297.11,-498.58"/>
<polygon fill="midnightblue" stroke="midnightblue" points="332.78,-497.85 342.3,-493.19 331.95,-490.9 332.78,-497.85"/>
</g>
<!-- Node9 -->
<g id="node9" class="node">
<title>Node9</title>
<g id="a_node9"><a xlink:href="namespacepolyfem_1_1mesh.html#a5675a84be23055c84c04d32acd85414c" target="_top" xlink:title="read a FEM mesh from a geometry JSON">
<polygon fill="none" stroke="black" points="0,-470 0,-500 118,-500 118,-470 0,-470"/>
<text text-anchor="start" x="8" y="-488" font-family="Helvetica,sans-Serif" font-size="10.00">polyfem::mesh::read</text>
<text text-anchor="middle" x="59" y="-477" font-family="Helvetica,sans-Serif" font-size="10.00">_obstacle_geometry</text>
</a>
</g>
</g>
<!-- Node7&#45;&gt;Node9 -->
<g id="edge10" class="edge">
<title>Node7&#45;&gt;Node9</title>
<path fill="none" stroke="midnightblue" d="M332.04,-482.65C320.29,-482.38 308.33,-482.15 297,-482 233.45,-481.16 217.55,-480.99 154,-482 142.41,-482.18 130.02,-482.5 118.16,-482.85"/>
<polygon fill="midnightblue" stroke="midnightblue" points="332.2,-486.16 342.28,-482.9 332.37,-479.16 332.2,-486.16"/>
</g>
<!-- Node8&#45;&gt;Node9 -->
<g id="edge9" class="edge">
<title>Node8&#45;&gt;Node9</title>
<path fill="none" stroke="midnightblue" d="M143.66,-496.19C135.01,-495.03 126.34,-493.87 118.03,-492.76"/>
<polygon fill="midnightblue" stroke="midnightblue" points="143.41,-499.69 153.78,-497.54 144.33,-492.75 143.41,-499.69"/>
</g>
</g>
</svg>
