<?xml version="1.0" encoding="UTF-8" standalone="no"?>
<!DOCTYPE svg PUBLIC "-//W3C//DTD SVG 1.1//EN"
 "http://www.w3.org/Graphics/SVG/1.1/DTD/svg11.dtd">
<!-- Generated by graphviz version 2.43.0 (0)
 -->
<!-- Title: polyfem::assembler::LinearElasticity::add_multimaterial Pages: 1 -->
<svg width="478pt" height="49pt"
 viewBox="0.00 0.00 478.00 49.00" xmlns="http://www.w3.org/2000/svg" xmlns:xlink="http://www.w3.org/1999/xlink">
<g id="graph0" class="graph" transform="scale(1 1) rotate(0) translate(4 45)">
<title>polyfem::assembler::LinearElasticity::add_multimaterial</title>
<!-- Node1 -->
<g id="node1" class="node">
<title>Node1</title>
<g id="a_node1"><a xlink:title=" ">
<polygon fill="#999999" stroke="#666666" points="114,-41 0,-41 0,0 114,0 114,-41"/>
<text text-anchor="start" x="8" y="-29" font-family="Helvetica,sans-Serif" font-size="10.00">polyfem::assembler</text>
<text text-anchor="start" x="8" y="-18" font-family="Helvetica,sans-Serif" font-size="10.00">::LinearElasticity::</text>
<text text-anchor="middle" x="57" y="-7" font-family="Helvetica,sans-Serif" font-size="10.00">add_multimaterial</text>
</a>
</g>
</g>
<!-- Node2 -->
<g id="node2" class="node">
<title>Node2</title>
<g id="a_node2"><a xlink:href="classpolyfem_1_1assembler_1_1_lame_parameters.html#a63487676bbd607b2407518111f79b956" target="_top" xlink:title=" ">
<polygon fill="white" stroke="#666666" points="279,-41 150,-41 150,0 279,0 279,-41"/>
<text text-anchor="start" x="158" y="-29" font-family="Helvetica,sans-Serif" font-size="10.00">polyfem::assembler</text>
<text text-anchor="start" x="158" y="-18" font-family="Helvetica,sans-Serif" font-size="10.00">::LameParameters::add</text>
<text text-anchor="middle" x="214.5" y="-7" font-family="Helvetica,sans-Serif" font-size="10.00">_multimaterial</text>
</a>
</g>
</g>
<!-- Node1&#45;&gt;Node2 -->
<g id="edge1" class="edge">
<title>Node1&#45;&gt;Node2</title>
<path fill="none" stroke="#63b8ff" d="M114.14,-20.5C122.46,-20.5 131.13,-20.5 139.74,-20.5"/>
<polygon fill="#63b8ff" stroke="#63b8ff" points="139.79,-24 149.79,-20.5 139.79,-17 139.79,-24"/>
</g>
<!-- Node3 -->
<g id="node3" class="node">
<title>Node3</title>
<g id="a_node3"><a xlink:href="classpolyfem_1_1assembler_1_1_lame_parameters.html#aa62a84acc8db0c299f223a74fbcd7ebf" target="_top" xlink:title=" ">
<polygon fill="white" stroke="#666666" points="470,-35.5 315,-35.5 315,-5.5 470,-5.5 470,-35.5"/>
<text text-anchor="start" x="323" y="-23.5" font-family="Helvetica,sans-Serif" font-size="10.00">polyfem::assembler</text>
<text text-anchor="middle" x="392.5" y="-12.5" font-family="Helvetica,sans-Serif" font-size="10.00">::LameParameters::set_e_nu</text>
</a>
</g>
</g>
<!-- Node2&#45;&gt;Node3 -->
<g id="edge2" class="edge">
<title>Node2&#45;&gt;Node3</title>
<path fill="none" stroke="#63b8ff" d="M279.04,-20.5C287.39,-20.5 296.06,-20.5 304.72,-20.5"/>
<polygon fill="#63b8ff" stroke="#63b8ff" points="304.85,-24 314.85,-20.5 304.85,-17 304.85,-24"/>
</g>
</g>
</svg>
