<?xml version="1.0" encoding="UTF-8" standalone="no"?>
<!DOCTYPE svg PUBLIC "-//W3C//DTD SVG 1.1//EN"
 "http://www.w3.org/Graphics/SVG/1.1/DTD/svg11.dtd">
<!-- Generated by graphviz version 2.43.0 (0)
 -->
<!-- Title: polyfem::mesh::Mesh2D::switch_vertex Pages: 1 -->
<svg width="2144pt" height="675pt"
 viewBox="0.00 0.00 2144.00 675.00" xmlns="http://www.w3.org/2000/svg" xmlns:xlink="http://www.w3.org/1999/xlink">
<g id="graph0" class="graph" transform="scale(1 1) rotate(0) translate(4 671)">
<title>polyfem::mesh::Mesh2D::switch_vertex</title>
<!-- Node1 -->
<g id="Node000001" class="node">
<title>Node1</title>
<g id="a_Node000001"><a xlink:title=" ">
<polygon fill="#999999" stroke="#666666" points="2136,-576 2000,-576 2000,-546 2136,-546 2136,-576"/>
<text text-anchor="start" x="2008" y="-564" font-family="Helvetica,sans-Serif" font-size="10.00">polyfem::mesh::Mesh2D</text>
<text text-anchor="middle" x="2068" y="-553" font-family="Helvetica,sans-Serif" font-size="10.00">::switch_vertex</text>
</a>
</g>
</g>
<!-- Node2 -->
<g id="Node000002" class="node">
<title>Node2</title>
<g id="a_Node000002"><a xlink:href="namespacepolyfem_1_1basis.html#a499aa1c6971b36fc766d06a74a7e1482" target="_top" xlink:title=" ">
<polygon fill="white" stroke="#666666" points="1724.5,-624 1587.5,-624 1587.5,-594 1724.5,-594 1724.5,-624"/>
<text text-anchor="start" x="1595.5" y="-612" font-family="Helvetica,sans-Serif" font-size="10.00">polyfem::basis::compute</text>
<text text-anchor="middle" x="1656" y="-601" font-family="Helvetica,sans-Serif" font-size="10.00">_epsilon</text>
</a>
</g>
</g>
<!-- Node1&#45;&gt;Node2 -->
<g id="edge1_Node000001_Node000002" class="edge">
<title>Node1&#45;&gt;Node2</title>
<g id="a_edge1_Node000001_Node000002"><a xlink:title=" ">
<path fill="none" stroke="#63b8ff" d="M1989.82,-571.7C1981.11,-572.85 1972.37,-573.97 1964,-575 1881.77,-585.14 1786.98,-595.42 1724.73,-601.99"/>
<polygon fill="#63b8ff" stroke="#63b8ff" points="1990.54,-575.14 1999.99,-570.35 1989.62,-568.2 1990.54,-575.14"/>
</a>
</g>
</g>
<!-- Node9 -->
<g id="Node000009" class="node">
<title>Node9</title>
<g id="a_Node000009"><a xlink:href="classpolyfem_1_1mesh_1_1_mesh2_d.html#a7b5ce1cd9d3337d3eb7a57101f109a08" target="_top" xlink:title="Get all the edges according to valid_elements selection.">
<polygon fill="white" stroke="#666666" points="1724,-576 1588,-576 1588,-546 1724,-546 1724,-576"/>
<text text-anchor="start" x="1596" y="-564" font-family="Helvetica,sans-Serif" font-size="10.00">polyfem::mesh::Mesh2D</text>
<text text-anchor="middle" x="1656" y="-553" font-family="Helvetica,sans-Serif" font-size="10.00">::get_edges</text>
</a>
</g>
</g>
<!-- Node1&#45;&gt;Node9 -->
<g id="edge9_Node000001_Node000009" class="edge">
<title>Node1&#45;&gt;Node9</title>
<g id="a_edge9_Node000001_Node000009"><a xlink:title=" ">
<path fill="none" stroke="#63b8ff" d="M1989.69,-561C1913.15,-561 1797.13,-561 1724.28,-561"/>
<polygon fill="#63b8ff" stroke="#63b8ff" points="1989.76,-564.5 1999.76,-561 1989.76,-557.5 1989.76,-564.5"/>
</a>
</g>
</g>
<!-- Node10 -->
<g id="Node000010" class="node">
<title>Node10</title>
<g id="a_Node000010"><a xlink:href="classpolyfem_1_1mesh_1_1_mesh2_d.html#a655514850b93a4d71b22c5a301c8984b" target="_top" xlink:title=" ">
<polygon fill="white" stroke="#666666" points="1943.5,-408 1807.5,-408 1807.5,-378 1943.5,-378 1943.5,-408"/>
<text text-anchor="start" x="1815.5" y="-396" font-family="Helvetica,sans-Serif" font-size="10.00">polyfem::mesh::Mesh2D</text>
<text text-anchor="middle" x="1875.5" y="-385" font-family="Helvetica,sans-Serif" font-size="10.00">::next_around_face</text>
</a>
</g>
</g>
<!-- Node1&#45;&gt;Node10 -->
<g id="edge10_Node000001_Node000010" class="edge">
<title>Node1&#45;&gt;Node10</title>
<g id="a_edge10_Node000001_Node000010"><a xlink:title=" ">
<path fill="none" stroke="#63b8ff" d="M2041.93,-538.89C2002.57,-504.18 1927.28,-437.78 1893.57,-408.05"/>
<polygon fill="#63b8ff" stroke="#63b8ff" points="2039.94,-541.81 2049.76,-545.79 2044.57,-536.56 2039.94,-541.81"/>
</a>
</g>
</g>
<!-- Node40 -->
<g id="Node000040" class="node">
<title>Node40</title>
<g id="a_Node000040"><a xlink:href="classpolyfem_1_1basis_1_1_lagrange_basis2d.html#a9be8d6ae31693ad7076f1fcc816b7512" target="_top" xlink:title=" ">
<polygon fill="white" stroke="#666666" points="1964,-664 1787,-664 1787,-634 1964,-634 1964,-664"/>
<text text-anchor="start" x="1795" y="-652" font-family="Helvetica,sans-Serif" font-size="10.00">polyfem::basis::Lagrange</text>
<text text-anchor="middle" x="1875.5" y="-641" font-family="Helvetica,sans-Serif" font-size="10.00">Basis2d::quad_edge_local_nodes</text>
</a>
</g>
</g>
<!-- Node1&#45;&gt;Node40 -->
<g id="edge52_Node000001_Node000040" class="edge">
<title>Node1&#45;&gt;Node40</title>
<g id="a_edge52_Node000001_Node000040"><a xlink:title=" ">
<path fill="none" stroke="#63b8ff" d="M2033.55,-581.35C2013.74,-592.94 1987.92,-607.23 1964,-618 1951.07,-623.82 1936.69,-629.3 1923.38,-633.99"/>
<polygon fill="#63b8ff" stroke="#63b8ff" points="2035.37,-584.34 2042.2,-576.25 2031.81,-578.32 2035.37,-584.34"/>
</a>
</g>
</g>
<!-- Node42 -->
<g id="Node000042" class="node">
<title>Node42</title>
<g id="a_Node000042"><a xlink:href="classpolyfem_1_1basis_1_1_lagrange_basis2d.html#a74f7dd1d6fe0074601790d984024c5a5" target="_top" xlink:title=" ">
<polygon fill="white" stroke="#666666" points="1957.5,-360 1793.5,-360 1793.5,-330 1957.5,-330 1957.5,-360"/>
<text text-anchor="start" x="1801.5" y="-348" font-family="Helvetica,sans-Serif" font-size="10.00">polyfem::basis::Lagrange</text>
<text text-anchor="middle" x="1875.5" y="-337" font-family="Helvetica,sans-Serif" font-size="10.00">Basis2d::tri_edge_local_nodes</text>
</a>
</g>
</g>
<!-- Node1&#45;&gt;Node42 -->
<g id="edge55_Node000001_Node000042" class="edge">
<title>Node1&#45;&gt;Node42</title>
<g id="a_edge55_Node000001_Node000042"><a xlink:title=" ">
<path fill="none" stroke="#63b8ff" d="M2060.59,-536.12C2048.69,-494.99 2019.23,-413.04 1964,-369 1959.69,-365.56 1954.92,-362.62 1949.9,-360.09"/>
<polygon fill="#63b8ff" stroke="#63b8ff" points="2057.25,-537.18 2063.3,-545.87 2064,-535.3 2057.25,-537.18"/>
</a>
</g>
</g>
<!-- Node3 -->
<g id="Node000003" class="node">
<title>Node3</title>
<g id="a_Node000003"><a xlink:href="classpolyfem_1_1basis_1_1_polygonal_basis2d.html#ac44c9f77e8d3a1328e6288ed5aec07b2" target="_top" xlink:title="Build bases over the remaining polygons of a mesh.">
<polygon fill="white" stroke="#666666" points="1510,-576 1367,-576 1367,-546 1510,-546 1510,-576"/>
<text text-anchor="start" x="1375" y="-564" font-family="Helvetica,sans-Serif" font-size="10.00">polyfem::basis::Polygonal</text>
<text text-anchor="middle" x="1438.5" y="-553" font-family="Helvetica,sans-Serif" font-size="10.00">Basis2d::build_bases</text>
</a>
</g>
</g>
<!-- Node2&#45;&gt;Node3 -->
<g id="edge2_Node000002_Node000003" class="edge">
<title>Node2&#45;&gt;Node3</title>
<g id="a_edge2_Node000002_Node000003"><a xlink:title=" ">
<path fill="none" stroke="#63b8ff" d="M1577.63,-591.77C1554.48,-586.61 1529.3,-581 1506.85,-576"/>
<polygon fill="#63b8ff" stroke="#63b8ff" points="1576.88,-595.19 1587.41,-593.94 1578.41,-588.35 1576.88,-595.19"/>
</a>
</g>
</g>
<!-- Node8 -->
<g id="Node000008" class="node">
<title>Node8</title>
<g id="a_Node000008"><a xlink:href="classpolyfem_1_1basis_1_1_polygonal_basis3d.html#a3d41a5e1d493240fb9a088a5229a27d7" target="_top" xlink:title="Build bases over the remaining polygons of a mesh.">
<polygon fill="white" stroke="#666666" points="1510,-624 1367,-624 1367,-594 1510,-594 1510,-624"/>
<text text-anchor="start" x="1375" y="-612" font-family="Helvetica,sans-Serif" font-size="10.00">polyfem::basis::Polygonal</text>
<text text-anchor="middle" x="1438.5" y="-601" font-family="Helvetica,sans-Serif" font-size="10.00">Basis3d::build_bases</text>
</a>
</g>
</g>
<!-- Node2&#45;&gt;Node8 -->
<g id="edge7_Node000002_Node000008" class="edge">
<title>Node2&#45;&gt;Node8</title>
<g id="a_edge7_Node000002_Node000008"><a xlink:title=" ">
<path fill="none" stroke="#63b8ff" d="M1577.16,-609C1555.29,-609 1531.64,-609 1510.2,-609"/>
<polygon fill="#63b8ff" stroke="#63b8ff" points="1577.41,-612.5 1587.41,-609 1577.41,-605.5 1577.41,-612.5"/>
</a>
</g>
</g>
<!-- Node4 -->
<g id="Node000004" class="node">
<title>Node4</title>
<g id="a_Node000004"><a xlink:href="classpolyfem_1_1_state.html#a202f2494b8f46d4bf22edfc0a36ddb32" target="_top" xlink:title="builds bases for polygons, called inside build_basis">
<polygon fill="white" stroke="#666666" points="1294,-619 1175,-619 1175,-589 1294,-589 1294,-619"/>
<text text-anchor="start" x="1183" y="-607" font-family="Helvetica,sans-Serif" font-size="10.00">polyfem::State::build</text>
<text text-anchor="middle" x="1234.5" y="-596" font-family="Helvetica,sans-Serif" font-size="10.00">_polygonal_basis</text>
</a>
</g>
</g>
<!-- Node3&#45;&gt;Node4 -->
<g id="edge3_Node000003_Node000004" class="edge">
<title>Node3&#45;&gt;Node4</title>
<g id="a_edge3_Node000003_Node000004"><a xlink:title=" ">
<path fill="none" stroke="#63b8ff" d="M1356.97,-578.14C1335.96,-582.62 1313.71,-587.35 1294.08,-591.53"/>
<polygon fill="#63b8ff" stroke="#63b8ff" points="1357.8,-581.54 1366.85,-576.04 1356.34,-574.7 1357.8,-581.54"/>
</a>
</g>
</g>
<!-- Node5 -->
<g id="Node000005" class="node">
<title>Node5</title>
<g id="a_Node000005"><a xlink:href="classpolyfem_1_1_state.html#a75cfcf28f3bc27e8e30b41c7347c799b" target="_top" xlink:title="builds the bases step 2 of solve modifies bases, pressure_bases, geom_bases_, boundary_nodes,...">
<polygon fill="white" stroke="#666666" points="1104.5,-626 985.5,-626 985.5,-596 1104.5,-596 1104.5,-626"/>
<text text-anchor="start" x="993.5" y="-614" font-family="Helvetica,sans-Serif" font-size="10.00">polyfem::State::build</text>
<text text-anchor="middle" x="1045" y="-603" font-family="Helvetica,sans-Serif" font-size="10.00">_basis</text>
</a>
</g>
</g>
<!-- Node4&#45;&gt;Node5 -->
<g id="edge4_Node000004_Node000005" class="edge">
<title>Node4&#45;&gt;Node5</title>
<g id="a_edge4_Node000004_Node000005"><a xlink:title=" ">
<path fill="none" stroke="#63b8ff" d="M1164.81,-606.56C1145.1,-607.3 1123.8,-608.1 1104.76,-608.81"/>
<polygon fill="#63b8ff" stroke="#63b8ff" points="1165.08,-610.06 1174.95,-606.19 1164.82,-603.06 1165.08,-610.06"/>
</a>
</g>
</g>
<!-- Node6 -->
<g id="Node000006" class="node">
<title>Node6</title>
<g id="a_Node000006"><a xlink:href="main_8cpp.html#aec889c702a246ad7f332c75ab7adb438" target="_top" xlink:title=" ">
<polygon fill="white" stroke="#666666" points="199.5,-582.5 88.5,-582.5 88.5,-563.5 199.5,-563.5 199.5,-582.5"/>
<text text-anchor="middle" x="144" y="-570.5" font-family="Helvetica,sans-Serif" font-size="10.00">forward_simulation</text>
</a>
</g>
</g>
<!-- Node5&#45;&gt;Node6 -->
<g id="edge5_Node000005_Node000006" class="edge">
<title>Node5&#45;&gt;Node6</title>
<g id="a_edge5_Node000005_Node000006"><a xlink:title=" ">
<path fill="none" stroke="#63b8ff" d="M975.45,-611C905.54,-611 793.97,-611 697.5,-611 697.5,-611 697.5,-611 517,-611 396.7,-611 366.32,-607.26 247,-592 228.24,-589.6 207.71,-585.97 190.02,-582.53"/>
<polygon fill="#63b8ff" stroke="#63b8ff" points="975.45,-614.5 985.45,-611 975.45,-607.5 975.45,-614.5"/>
</a>
</g>
</g>
<!-- Node7 -->
<g id="Node000007" class="node">
<title>Node7</title>
<g id="a_Node000007"><a xlink:href="main_8cpp.html#a3c04138a5bfe5d72780bb7e82a18e627" target="_top" xlink:title=" ">
<polygon fill="white" stroke="#666666" points="41,-582.5 0,-582.5 0,-563.5 41,-563.5 41,-582.5"/>
<text text-anchor="middle" x="20.5" y="-570.5" font-family="Helvetica,sans-Serif" font-size="10.00">main</text>
</a>
</g>
</g>
<!-- Node6&#45;&gt;Node7 -->
<g id="edge6_Node000006_Node000007" class="edge">
<title>Node6&#45;&gt;Node7</title>
<g id="a_edge6_Node000006_Node000007"><a xlink:title=" ">
<path fill="none" stroke="#63b8ff" d="M77.97,-573C64.49,-573 51.29,-573 41.05,-573"/>
<polygon fill="#63b8ff" stroke="#63b8ff" points="78.29,-576.5 88.29,-573 78.29,-569.5 78.29,-576.5"/>
</a>
</g>
</g>
<!-- Node8&#45;&gt;Node4 -->
<g id="edge8_Node000008_Node000004" class="edge">
<title>Node8&#45;&gt;Node4</title>
<g id="a_edge8_Node000008_Node000004"><a xlink:title=" ">
<path fill="none" stroke="#63b8ff" d="M1356.69,-607C1335.76,-606.48 1313.62,-605.93 1294.08,-605.45"/>
<polygon fill="#63b8ff" stroke="#63b8ff" points="1356.77,-610.5 1366.85,-607.25 1356.94,-603.5 1356.77,-610.5"/>
</a>
</g>
</g>
<!-- Node10&#45;&gt;Node2 -->
<g id="edge13_Node000010_Node000002" class="edge">
<title>Node10&#45;&gt;Node2</title>
<g id="a_edge13_Node000010_Node000002"><a xlink:title=" ">
<path fill="none" stroke="#63b8ff" d="M1865.56,-417.79C1849.36,-459.06 1811.17,-541.63 1751,-585 1743.21,-590.61 1734.23,-594.92 1724.98,-598.22"/>
<polygon fill="#63b8ff" stroke="#63b8ff" points="1868.91,-418.82 1869.2,-408.23 1862.37,-416.33 1868.91,-418.82"/>
</a>
</g>
</g>
<!-- Node10&#45;&gt;Node9 -->
<g id="edge20_Node000010_Node000009" class="edge">
<title>Node10&#45;&gt;Node9</title>
<g id="a_edge20_Node000010_Node000009"><a xlink:title=" ">
<path fill="none" stroke="#63b8ff" d="M1860.48,-417.12C1840.4,-449.45 1800.4,-506.31 1751,-537 1742.85,-542.07 1733.66,-546.07 1724.31,-549.22"/>
<polygon fill="#63b8ff" stroke="#63b8ff" points="1863.63,-418.68 1865.83,-408.31 1857.64,-415.04 1863.63,-418.68"/>
</a>
</g>
</g>
<!-- Node11 -->
<g id="Node000011" class="node">
<title>Node11</title>
<g id="a_Node000011"><a xlink:href="classpolyfem_1_1mesh_1_1_c_mesh2_d.html#adee7e38b7b60601cb04eff9b365b90c5" target="_top" xlink:title="attach high order nodes">
<polygon fill="white" stroke="#666666" points="1733.5,-480 1578.5,-480 1578.5,-450 1733.5,-450 1733.5,-480"/>
<text text-anchor="start" x="1586.5" y="-468" font-family="Helvetica,sans-Serif" font-size="10.00">polyfem::mesh::CMesh2D</text>
<text text-anchor="middle" x="1656" y="-457" font-family="Helvetica,sans-Serif" font-size="10.00">::attach_higher_order_nodes</text>
</a>
</g>
</g>
<!-- Node10&#45;&gt;Node11 -->
<g id="edge11_Node000010_Node000011" class="edge">
<title>Node10&#45;&gt;Node11</title>
<g id="a_edge11_Node000010_Node000011"><a xlink:title=" ">
<path fill="none" stroke="#63b8ff" d="M1829.97,-411.81C1806.68,-421.26 1777.57,-432.48 1751,-441 1741.14,-444.16 1730.59,-447.19 1720.25,-449.97"/>
<polygon fill="#63b8ff" stroke="#63b8ff" points="1831.31,-415.04 1839.24,-408.01 1828.66,-408.56 1831.31,-415.04"/>
</a>
</g>
</g>
<!-- Node12 -->
<g id="Node000012" class="node">
<title>Node12</title>
<g id="a_Node000012"><a xlink:href="classpolyfem_1_1mesh_1_1_mesh2_d.html#a65982e1f2bf0893fc9f8ad1d70acc583" target="_top" xlink:title="constructs barycentric coodiantes for a point p.">
<polygon fill="white" stroke="#666666" points="1724,-432 1588,-432 1588,-402 1724,-402 1724,-432"/>
<text text-anchor="start" x="1596" y="-420" font-family="Helvetica,sans-Serif" font-size="10.00">polyfem::mesh::Mesh2D</text>
<text text-anchor="middle" x="1656" y="-409" font-family="Helvetica,sans-Serif" font-size="10.00">::barycentric_coords</text>
</a>
</g>
</g>
<!-- Node10&#45;&gt;Node12 -->
<g id="edge12_Node000010_Node000012" class="edge">
<title>Node10&#45;&gt;Node12</title>
<g id="a_edge12_Node000010_Node000012"><a xlink:title=" ">
<path fill="none" stroke="#63b8ff" d="M1797.38,-401.51C1773.48,-404.15 1747.35,-407.03 1724.18,-409.59"/>
<polygon fill="#63b8ff" stroke="#63b8ff" points="1797.91,-404.97 1807.47,-400.4 1797.14,-398.01 1797.91,-404.97"/>
</a>
</g>
</g>
<!-- Node13 -->
<g id="Node000013" class="node">
<title>Node13</title>
<g id="a_Node000013"><a xlink:href="classpolyfem_1_1mesh_1_1_mesh2_d.html#ae606e1855fbac8a38dbadf825e027962" target="_top" xlink:title=" ">
<polygon fill="white" stroke="#666666" points="1725,-384 1587,-384 1587,-354 1725,-354 1725,-384"/>
<text text-anchor="start" x="1595" y="-372" font-family="Helvetica,sans-Serif" font-size="10.00">polyfem::mesh::Mesh2D</text>
<text text-anchor="middle" x="1656" y="-361" font-family="Helvetica,sans-Serif" font-size="10.00">::compute_face_jacobian</text>
</a>
</g>
</g>
<!-- Node10&#45;&gt;Node13 -->
<g id="edge14_Node000010_Node000013" class="edge">
<title>Node10&#45;&gt;Node13</title>
<g id="a_edge14_Node000010_Node000013"><a xlink:title=" ">
<path fill="none" stroke="#63b8ff" d="M1797.52,-384.51C1773.97,-381.91 1748.24,-379.07 1725.31,-376.54"/>
<polygon fill="#63b8ff" stroke="#63b8ff" points="1797.14,-387.99 1807.47,-385.6 1797.91,-381.03 1797.14,-387.99"/>
</a>
</g>
</g>
<!-- Node14 -->
<g id="Node000014" class="node">
<title>Node14</title>
<g id="a_Node000014"><a xlink:href="classpolyfem_1_1mesh_1_1_mesh2_d.html#a082d08ab7c5377d72bb4301f91376021" target="_top" xlink:title="constructs a box around every element (3d cell, 2d face)">
<polygon fill="white" stroke="#666666" points="1724,-336 1588,-336 1588,-306 1724,-306 1724,-336"/>
<text text-anchor="start" x="1596" y="-324" font-family="Helvetica,sans-Serif" font-size="10.00">polyfem::mesh::Mesh2D</text>
<text text-anchor="middle" x="1656" y="-313" font-family="Helvetica,sans-Serif" font-size="10.00">::elements_boxes</text>
</a>
</g>
</g>
<!-- Node10&#45;&gt;Node14 -->
<g id="edge15_Node000010_Node000014" class="edge">
<title>Node10&#45;&gt;Node14</title>
<g id="a_edge15_Node000010_Node000014"><a xlink:title=" ">
<path fill="none" stroke="#63b8ff" d="M1800.51,-374.54C1795.88,-372.83 1791.34,-370.98 1787,-369 1769.5,-361.02 1768.57,-352.82 1751,-345 1742.54,-341.23 1733.37,-337.97 1724.2,-335.18"/>
<polygon fill="#63b8ff" stroke="#63b8ff" points="1799.5,-377.9 1810.1,-377.89 1801.81,-371.29 1799.5,-377.9"/>
</a>
</g>
</g>
<!-- Node15 -->
<g id="Node000015" class="node">
<title>Node15</title>
<g id="a_Node000015"><a xlink:href="classpolyfem_1_1mesh_1_1_mesh2_d.html#a47f4f34ea25a5a7e1026121999cbf8d4" target="_top" xlink:title="face barycenter">
<polygon fill="white" stroke="#666666" points="1724,-84 1588,-84 1588,-54 1724,-54 1724,-84"/>
<text text-anchor="start" x="1596" y="-72" font-family="Helvetica,sans-Serif" font-size="10.00">polyfem::mesh::Mesh2D</text>
<text text-anchor="middle" x="1656" y="-61" font-family="Helvetica,sans-Serif" font-size="10.00">::face_barycenter</text>
</a>
</g>
</g>
<!-- Node10&#45;&gt;Node15 -->
<g id="edge16_Node000010_Node000015" class="edge">
<title>Node10&#45;&gt;Node15</title>
<g id="a_edge16_Node000010_Node000015"><a xlink:title=" ">
<path fill="none" stroke="#63b8ff" d="M1798.39,-378.78C1794.17,-376.04 1790.32,-372.81 1787,-369 1705.77,-275.7 1833.06,-185.57 1751,-93 1743.85,-84.93 1734.4,-79.4 1724.25,-75.64"/>
<polygon fill="#63b8ff" stroke="#63b8ff" points="1797.02,-382.02 1807.47,-383.74 1800.37,-375.87 1797.02,-382.02"/>
</a>
</g>
</g>
<!-- Node19 -->
<g id="Node000019" class="node">
<title>Node19</title>
<g id="a_Node000019"><a xlink:href="classpolyfem_1_1mesh_1_1_c_mesh2_d.html#a6d6af3e70809917f468ea0daa49df7b2" target="_top" xlink:title="is cell boundary">
<polygon fill="white" stroke="#666666" points="1727.5,-240 1584.5,-240 1584.5,-210 1727.5,-210 1727.5,-240"/>
<text text-anchor="start" x="1592.5" y="-228" font-family="Helvetica,sans-Serif" font-size="10.00">polyfem::mesh::CMesh2D</text>
<text text-anchor="middle" x="1656" y="-217" font-family="Helvetica,sans-Serif" font-size="10.00">::is_boundary_element</text>
</a>
</g>
</g>
<!-- Node10&#45;&gt;Node19 -->
<g id="edge21_Node000010_Node000019" class="edge">
<title>Node10&#45;&gt;Node19</title>
<g id="a_edge21_Node000010_Node000019"><a xlink:title=" ">
<path fill="none" stroke="#63b8ff" d="M1798.02,-377.5C1794.04,-375.06 1790.32,-372.24 1787,-369 1747.16,-330.1 1791.18,-287.55 1751,-249 1744.44,-242.7 1736.46,-238 1727.96,-234.49"/>
<polygon fill="#63b8ff" stroke="#63b8ff" points="1796.61,-380.72 1807.09,-382.28 1799.87,-374.52 1796.61,-380.72"/>
</a>
</g>
</g>
<!-- Node20 -->
<g id="Node000020" class="node">
<title>Node20</title>
<g id="a_Node000020"><a xlink:href="classpolyfem_1_1utils_1_1_boundary_sampler.html#aa925326e2e2dfa5e305959154ed99ca5" target="_top" xlink:title=" ">
<polygon fill="white" stroke="#666666" points="1751,-528 1561,-528 1561,-498 1751,-498 1751,-528"/>
<text text-anchor="start" x="1569" y="-516" font-family="Helvetica,sans-Serif" font-size="10.00">polyfem::utils::Boundary</text>
<text text-anchor="middle" x="1656" y="-505" font-family="Helvetica,sans-Serif" font-size="10.00">Sampler::normal_for_polygon_edge</text>
</a>
</g>
</g>
<!-- Node10&#45;&gt;Node20 -->
<g id="edge22_Node000010_Node000020" class="edge">
<title>Node10&#45;&gt;Node20</title>
<g id="a_edge22_Node000010_Node000020"><a xlink:title=" ">
<path fill="none" stroke="#63b8ff" d="M1852.25,-414.98C1828.9,-436.83 1790.22,-469.79 1751,-489 1744.04,-492.41 1736.55,-495.37 1728.94,-497.92"/>
<polygon fill="#63b8ff" stroke="#63b8ff" points="1854.72,-417.46 1859.55,-408.03 1849.89,-412.38 1854.72,-417.46"/>
</a>
</g>
</g>
<!-- Node37 -->
<g id="Node000037" class="node">
<title>Node37</title>
<g id="a_Node000037"><a xlink:href="classpolyfem_1_1refinement_1_1_a_priori.html#ad08ea2e656178cd96294ad2064ada07e" target="_top" xlink:title="compute a priori prefinement in 2d">
<polygon fill="white" stroke="#666666" points="1714,-192 1598,-192 1598,-162 1714,-162 1714,-192"/>
<text text-anchor="start" x="1606" y="-180" font-family="Helvetica,sans-Serif" font-size="10.00">polyfem::refinement</text>
<text text-anchor="middle" x="1656" y="-169" font-family="Helvetica,sans-Serif" font-size="10.00">::APriori::p_refine</text>
</a>
</g>
</g>
<!-- Node10&#45;&gt;Node37 -->
<g id="edge48_Node000010_Node000037" class="edge">
<title>Node10&#45;&gt;Node37</title>
<g id="a_edge48_Node000010_Node000037"><a xlink:title=" ">
<path fill="none" stroke="#63b8ff" d="M1798.26,-378.16C1794.15,-375.57 1790.34,-372.53 1787,-369 1734.55,-313.5 1803.94,-256.04 1751,-201 1741.31,-190.92 1728.02,-184.86 1714.49,-181.26"/>
<polygon fill="#63b8ff" stroke="#63b8ff" points="1796.62,-381.25 1807.08,-382.91 1799.93,-375.09 1796.62,-381.25"/>
</a>
</g>
</g>
<!-- Node38 -->
<g id="Node000038" class="node">
<title>Node38</title>
<g id="a_Node000038"><a xlink:href="classpolyfem_1_1utils_1_1_boundary_sampler.html#a02cf0bca8805defe581ac1902403ced2" target="_top" xlink:title=" ">
<polygon fill="white" stroke="#666666" points="1724.5,-143.5 1587.5,-143.5 1587.5,-102.5 1724.5,-102.5 1724.5,-143.5"/>
<text text-anchor="start" x="1595.5" y="-131.5" font-family="Helvetica,sans-Serif" font-size="10.00">polyfem::utils::Boundary</text>
<text text-anchor="start" x="1595.5" y="-120.5" font-family="Helvetica,sans-Serif" font-size="10.00">Sampler::quadrature_for</text>
<text text-anchor="middle" x="1656" y="-109.5" font-family="Helvetica,sans-Serif" font-size="10.00">_polygon_edge</text>
</a>
</g>
</g>
<!-- Node10&#45;&gt;Node38 -->
<g id="edge49_Node000010_Node000038" class="edge">
<title>Node10&#45;&gt;Node38</title>
<g id="a_edge49_Node000010_Node000038"><a xlink:title=" ">
<path fill="none" stroke="#63b8ff" d="M1798.31,-378.49C1794.15,-375.82 1790.32,-372.68 1787,-369 1721.8,-296.74 1814.7,-226.58 1751,-153 1743.94,-144.84 1734.66,-138.88 1724.68,-134.53"/>
<polygon fill="#63b8ff" stroke="#63b8ff" points="1796.79,-381.65 1807.25,-383.35 1800.13,-375.5 1796.79,-381.65"/>
</a>
</g>
</g>
<!-- Node39 -->
<g id="Node000039" class="node">
<title>Node39</title>
<g id="a_Node000039"><a xlink:href="classpolyfem_1_1utils_1_1_boundary_sampler.html#acb587c61b43b393260dba4a5a95c090b" target="_top" xlink:title=" ">
<polygon fill="white" stroke="#666666" points="1742.5,-288 1569.5,-288 1569.5,-258 1742.5,-258 1742.5,-288"/>
<text text-anchor="start" x="1577.5" y="-276" font-family="Helvetica,sans-Serif" font-size="10.00">polyfem::utils::Boundary</text>
<text text-anchor="middle" x="1656" y="-265" font-family="Helvetica,sans-Serif" font-size="10.00">Sampler::sample_polygon_edge</text>
</a>
</g>
</g>
<!-- Node10&#45;&gt;Node39 -->
<g id="edge50_Node000010_Node000039" class="edge">
<title>Node10&#45;&gt;Node39</title>
<g id="a_edge50_Node000010_Node000039"><a xlink:title=" ">
<path fill="none" stroke="#63b8ff" d="M1797.84,-376.36C1794,-374.19 1790.36,-371.75 1787,-369 1759.35,-346.3 1778.85,-319.46 1751,-297 1746.8,-293.62 1742.19,-290.7 1737.32,-288.2"/>
<polygon fill="#63b8ff" stroke="#63b8ff" points="1796.57,-379.63 1807.09,-380.91 1799.66,-373.35 1796.57,-379.63"/>
</a>
</g>
</g>
<!-- Node16 -->
<g id="Node000016" class="node">
<title>Node16</title>
<g id="a_Node000016"><a xlink:href="classpolyfem_1_1mesh_1_1_c_mesh2_d.html#af52617a9e51411d424e09e9d4322aa5b" target="_top" xlink:title="computes boundary selections based on a function">
<polygon fill="white" stroke="#666666" points="1510,-30 1367,-30 1367,0 1510,0 1510,-30"/>
<text text-anchor="start" x="1375" y="-18" font-family="Helvetica,sans-Serif" font-size="10.00">polyfem::mesh::CMesh2D</text>
<text text-anchor="middle" x="1438.5" y="-7" font-family="Helvetica,sans-Serif" font-size="10.00">::compute_body_ids</text>
</a>
</g>
</g>
<!-- Node15&#45;&gt;Node16 -->
<g id="edge17_Node000015_Node000016" class="edge">
<title>Node15&#45;&gt;Node16</title>
<g id="a_edge17_Node000015_Node000016"><a xlink:title=" ">
<path fill="none" stroke="#63b8ff" d="M1585,-51.46C1557.44,-44.55 1526.1,-36.7 1499.58,-30.05"/>
<polygon fill="#63b8ff" stroke="#63b8ff" points="1584.42,-54.92 1594.97,-53.96 1586.12,-48.13 1584.42,-54.92"/>
</a>
</g>
</g>
<!-- Node17 -->
<g id="Node000017" class="node">
<title>Node17</title>
<g id="a_Node000017"><a xlink:href="classpolyfem_1_1mesh_1_1_n_c_mesh2_d.html#a11bf2bc0c202c5b0872e66231a4d152d" target="_top" xlink:title="computes boundary selections based on a function">
<polygon fill="white" stroke="#666666" points="1513.5,-138 1363.5,-138 1363.5,-108 1513.5,-108 1513.5,-138"/>
<text text-anchor="start" x="1371.5" y="-126" font-family="Helvetica,sans-Serif" font-size="10.00">polyfem::mesh::NCMesh2D</text>
<text text-anchor="middle" x="1438.5" y="-115" font-family="Helvetica,sans-Serif" font-size="10.00">::compute_body_ids</text>
</a>
</g>
</g>
<!-- Node15&#45;&gt;Node17 -->
<g id="edge18_Node000015_Node000017" class="edge">
<title>Node15&#45;&gt;Node17</title>
<g id="a_edge18_Node000015_Node000017"><a xlink:title=" ">
<path fill="none" stroke="#63b8ff" d="M1585,-86.54C1557.44,-93.45 1526.1,-101.3 1499.58,-107.95"/>
<polygon fill="#63b8ff" stroke="#63b8ff" points="1586.12,-89.87 1594.97,-84.04 1584.42,-83.08 1586.12,-89.87"/>
</a>
</g>
</g>
<!-- Node18 -->
<g id="Node000018" class="node">
<title>Node18</title>
<g id="a_Node000018"><a xlink:href="classpolyfem_1_1solver_1_1_elastic_variable_to_simulation.html#ae5ea9ac1e730b966126b5946b82535ab" target="_top" xlink:title=" ">
<polygon fill="white" stroke="#666666" points="1504,-89.5 1373,-89.5 1373,-48.5 1504,-48.5 1504,-89.5"/>
<text text-anchor="start" x="1381" y="-77.5" font-family="Helvetica,sans-Serif" font-size="10.00">polyfem::solver::Elastic</text>
<text text-anchor="start" x="1381" y="-66.5" font-family="Helvetica,sans-Serif" font-size="10.00">VariableToSimulation::</text>
<text text-anchor="middle" x="1438.5" y="-55.5" font-family="Helvetica,sans-Serif" font-size="10.00">inverse_eval</text>
</a>
</g>
</g>
<!-- Node15&#45;&gt;Node18 -->
<g id="edge19_Node000015_Node000018" class="edge">
<title>Node15&#45;&gt;Node18</title>
<g id="a_edge19_Node000015_Node000018"><a xlink:title=" ">
<path fill="none" stroke="#63b8ff" d="M1577.82,-69C1553.72,-69 1527.4,-69 1504.25,-69"/>
<polygon fill="#63b8ff" stroke="#63b8ff" points="1578,-72.5 1588,-69 1578,-65.5 1578,-72.5"/>
</a>
</g>
</g>
<!-- Node21 -->
<g id="Node000021" class="node">
<title>Node21</title>
<g id="a_Node000021"><a xlink:href="classpolyfem_1_1io_1_1_out_geometry_data.html#a64a28ee005ac8965605f23b42b311e84" target="_top" xlink:title="builds the boundary mesh for visualization">
<polygon fill="white" stroke="#666666" points="1525,-521 1352,-521 1352,-491 1525,-491 1525,-521"/>
<text text-anchor="start" x="1360" y="-509" font-family="Helvetica,sans-Serif" font-size="10.00">polyfem::io::OutGeometry</text>
<text text-anchor="middle" x="1438.5" y="-498" font-family="Helvetica,sans-Serif" font-size="10.00">Data::build_vis_boundary_mesh</text>
</a>
</g>
</g>
<!-- Node20&#45;&gt;Node21 -->
<g id="edge23_Node000020_Node000021" class="edge">
<title>Node20&#45;&gt;Node21</title>
<g id="a_edge23_Node000020_Node000021"><a xlink:title=" ">
<path fill="none" stroke="#63b8ff" d="M1550.72,-509.61C1542.11,-509.33 1533.48,-509.05 1525.04,-508.78"/>
<polygon fill="#63b8ff" stroke="#63b8ff" points="1550.68,-513.11 1560.79,-509.94 1550.91,-506.12 1550.68,-513.11"/>
</a>
</g>
</g>
<!-- Node22 -->
<g id="Node000022" class="node">
<title>Node22</title>
<g id="a_Node000022"><a xlink:href="classpolyfem_1_1io_1_1_out_geometry_data.html#af0647359b2ab723d8543452884e673a9" target="_top" xlink:title="saves the surface vtu file for for surface quantites, eg traction forces">
<polygon fill="white" stroke="#666666" points="1306.5,-521 1162.5,-521 1162.5,-491 1306.5,-491 1306.5,-521"/>
<text text-anchor="start" x="1170.5" y="-509" font-family="Helvetica,sans-Serif" font-size="10.00">polyfem::io::OutGeometry</text>
<text text-anchor="middle" x="1234.5" y="-498" font-family="Helvetica,sans-Serif" font-size="10.00">Data::save_surface</text>
</a>
</g>
</g>
<!-- Node21&#45;&gt;Node22 -->
<g id="edge24_Node000021_Node000022" class="edge">
<title>Node21&#45;&gt;Node22</title>
<g id="a_edge24_Node000021_Node000022"><a xlink:title=" ">
<path fill="none" stroke="#63b8ff" d="M1341.55,-506C1329.79,-506 1317.95,-506 1306.66,-506"/>
<polygon fill="#63b8ff" stroke="#63b8ff" points="1341.83,-509.5 1351.83,-506 1341.83,-502.5 1341.83,-509.5"/>
</a>
</g>
</g>
<!-- Node23 -->
<g id="Node000023" class="node">
<title>Node23</title>
<g id="a_Node000023"><a xlink:href="classpolyfem_1_1io_1_1_out_geometry_data.html#ab6ebc8d7951c52d2ce07506306b63ea0" target="_top" xlink:title="saves the vtu file for time t">
<polygon fill="white" stroke="#666666" points="1117,-521 973,-521 973,-491 1117,-491 1117,-521"/>
<text text-anchor="start" x="981" y="-509" font-family="Helvetica,sans-Serif" font-size="10.00">polyfem::io::OutGeometry</text>
<text text-anchor="middle" x="1045" y="-498" font-family="Helvetica,sans-Serif" font-size="10.00">Data::save_vtu</text>
</a>
</g>
</g>
<!-- Node22&#45;&gt;Node23 -->
<g id="edge25_Node000022_Node000023" class="edge">
<title>Node22&#45;&gt;Node23</title>
<g id="a_edge25_Node000022_Node000023"><a xlink:title=" ">
<path fill="none" stroke="#63b8ff" d="M1152.17,-506C1140.5,-506 1128.56,-506 1117.1,-506"/>
<polygon fill="#63b8ff" stroke="#63b8ff" points="1152.35,-509.5 1162.35,-506 1152.35,-502.5 1152.35,-509.5"/>
</a>
</g>
</g>
<!-- Node24 -->
<g id="Node000024" class="node">
<title>Node24</title>
<g id="a_Node000024"><a xlink:href="classpolyfem_1_1io_1_1_out_geometry_data.html#ae5fdb256636278dc9d47358e202aba22" target="_top" xlink:title="exports everytihng, txt, vtu, etc">
<polygon fill="white" stroke="#666666" points="937,-576 793,-576 793,-546 937,-546 937,-576"/>
<text text-anchor="start" x="801" y="-564" font-family="Helvetica,sans-Serif" font-size="10.00">polyfem::io::OutGeometry</text>
<text text-anchor="middle" x="865" y="-553" font-family="Helvetica,sans-Serif" font-size="10.00">Data::export_data</text>
</a>
</g>
</g>
<!-- Node23&#45;&gt;Node24 -->
<g id="edge26_Node000023_Node000024" class="edge">
<title>Node23&#45;&gt;Node24</title>
<g id="a_edge26_Node000023_Node000024"><a xlink:title=" ">
<path fill="none" stroke="#63b8ff" d="M985.71,-524.01C962.69,-531.12 936.55,-539.2 914.58,-545.99"/>
<polygon fill="#63b8ff" stroke="#63b8ff" points="986.84,-527.33 995.36,-521.03 984.77,-520.64 986.84,-527.33"/>
</a>
</g>
</g>
<!-- Node26 -->
<g id="Node000026" class="node">
<title>Node26</title>
<g id="a_Node000026"><a xlink:href="classpolyfem_1_1_state.html#a29b1283c20475e19b79a39cd324ac5aa" target="_top" xlink:title="saves a subsolve when save_solve_sequence_debug is true">
<polygon fill="white" stroke="#666666" points="924,-521 806,-521 806,-491 924,-491 924,-521"/>
<text text-anchor="start" x="814" y="-509" font-family="Helvetica,sans-Serif" font-size="10.00">polyfem::State::save</text>
<text text-anchor="middle" x="865" y="-498" font-family="Helvetica,sans-Serif" font-size="10.00">_subsolve</text>
</a>
</g>
</g>
<!-- Node23&#45;&gt;Node26 -->
<g id="edge29_Node000023_Node000026" class="edge">
<title>Node23&#45;&gt;Node26</title>
<g id="a_edge29_Node000023_Node000026"><a xlink:title=" ">
<path fill="none" stroke="#63b8ff" d="M962.56,-506C949.61,-506 936.44,-506 924.16,-506"/>
<polygon fill="#63b8ff" stroke="#63b8ff" points="962.88,-509.5 972.88,-506 962.88,-502.5 962.88,-509.5"/>
</a>
</g>
</g>
<!-- Node31 -->
<g id="Node000031" class="node">
<title>Node31</title>
<g id="a_Node000031"><a xlink:href="classpolyfem_1_1_state.html#a442fa686e1d08a0a104f3869a6fa2948" target="_top" xlink:title="saves a timestep">
<polygon fill="white" stroke="#666666" points="755.5,-411 637.5,-411 637.5,-381 755.5,-381 755.5,-411"/>
<text text-anchor="start" x="645.5" y="-399" font-family="Helvetica,sans-Serif" font-size="10.00">polyfem::State::save</text>
<text text-anchor="middle" x="696.5" y="-388" font-family="Helvetica,sans-Serif" font-size="10.00">_timestep</text>
</a>
</g>
</g>
<!-- Node23&#45;&gt;Node31 -->
<g id="edge36_Node000023_Node000031" class="edge">
<title>Node23&#45;&gt;Node31</title>
<g id="a_edge36_Node000023_Node000031"><a xlink:title=" ">
<path fill="none" stroke="#63b8ff" d="M986.9,-487.87C919.31,-466.42 807.99,-431.08 744.93,-411.06"/>
<polygon fill="#63b8ff" stroke="#63b8ff" points="985.96,-491.25 996.55,-490.94 988.07,-484.57 985.96,-491.25"/>
</a>
</g>
</g>
<!-- Node25 -->
<g id="Node000025" class="node">
<title>Node25</title>
<g id="a_Node000025"><a xlink:href="classpolyfem_1_1_state.html#acc61dcd623eec2308480c5c082da3d9e" target="_top" xlink:title="saves all data on the disk according to the input params">
<polygon fill="white" stroke="#666666" points="400,-582.5 247,-582.5 247,-563.5 400,-563.5 400,-582.5"/>
<text text-anchor="middle" x="323.5" y="-570.5" font-family="Helvetica,sans-Serif" font-size="10.00">polyfem::State::export_data</text>
</a>
</g>
</g>
<!-- Node24&#45;&gt;Node25 -->
<g id="edge27_Node000024_Node000025" class="edge">
<title>Node24&#45;&gt;Node25</title>
<g id="a_edge27_Node000024_Node000025"><a xlink:title=" ">
<path fill="none" stroke="#63b8ff" d="M782.81,-562.81C679.11,-565.11 501.02,-569.07 400.09,-571.32"/>
<polygon fill="#63b8ff" stroke="#63b8ff" points="783,-566.3 792.92,-562.58 782.84,-559.3 783,-566.3"/>
</a>
</g>
</g>
<!-- Node25&#45;&gt;Node6 -->
<g id="edge28_Node000025_Node000006" class="edge">
<title>Node25&#45;&gt;Node6</title>
<g id="a_edge28_Node000025_Node000006"><a xlink:title=" ">
<path fill="none" stroke="#63b8ff" d="M236.82,-573C224.12,-573 211.33,-573 199.5,-573"/>
<polygon fill="#63b8ff" stroke="#63b8ff" points="236.97,-576.5 246.97,-573 236.97,-569.5 236.97,-576.5"/>
</a>
</g>
</g>
<!-- Node27 -->
<g id="Node000027" class="node">
<title>Node27</title>
<g id="a_Node000027"><a xlink:href="classpolyfem_1_1_state.html#a5f52fc1a97ba3abe95d80868ab22a949" target="_top" xlink:title="solves nonlinear problems">
<polygon fill="white" stroke="#666666" points="757,-521 636,-521 636,-491 757,-491 757,-521"/>
<text text-anchor="start" x="644" y="-509" font-family="Helvetica,sans-Serif" font-size="10.00">polyfem::State::solve</text>
<text text-anchor="middle" x="696.5" y="-498" font-family="Helvetica,sans-Serif" font-size="10.00">_tensor_nonlinear</text>
</a>
</g>
</g>
<!-- Node26&#45;&gt;Node27 -->
<g id="edge30_Node000026_Node000027" class="edge">
<title>Node26&#45;&gt;Node27</title>
<g id="a_edge30_Node000026_Node000027"><a xlink:title=" ">
<path fill="none" stroke="#63b8ff" d="M795.64,-506C782.86,-506 769.6,-506 757.11,-506"/>
<polygon fill="#63b8ff" stroke="#63b8ff" points="795.77,-509.5 805.77,-506 795.77,-502.5 795.77,-509.5"/>
</a>
</g>
</g>
<!-- Node28 -->
<g id="Node000028" class="node">
<title>Node28</title>
<g id="a_Node000028"><a xlink:href="classpolyfem_1_1_state.html#aa8dffa9c5caf8ca5082a6814e1c8ed36" target="_top" xlink:title="solves the problems">
<polygon fill="white" stroke="#666666" points="384,-435 263,-435 263,-405 384,-405 384,-435"/>
<text text-anchor="start" x="271" y="-423" font-family="Helvetica,sans-Serif" font-size="10.00">polyfem::State::solve</text>
<text text-anchor="middle" x="323.5" y="-412" font-family="Helvetica,sans-Serif" font-size="10.00">_problem</text>
</a>
</g>
</g>
<!-- Node27&#45;&gt;Node28 -->
<g id="edge31_Node000027_Node000028" class="edge">
<title>Node27&#45;&gt;Node28</title>
<g id="a_edge31_Node000027_Node000028"><a xlink:title=" ">
<path fill="none" stroke="#63b8ff" d="M625.65,-522.91C572.06,-532.55 497.15,-538.7 436,-516 392.42,-499.82 354.45,-458.13 336.14,-435.37"/>
<polygon fill="#63b8ff" stroke="#63b8ff" points="626.56,-526.3 635.74,-521 625.26,-519.42 626.56,-526.3"/>
</a>
</g>
</g>
<!-- Node30 -->
<g id="Node000030" class="node">
<title>Node30</title>
<g id="a_Node000030"><a xlink:href="classpolyfem_1_1_state.html#a581a91ee028c3d6376f9f0db39194ff3" target="_top" xlink:title="solves transient tensor nonlinear problem">
<polygon fill="white" stroke="#666666" points="594,-507 442,-507 442,-477 594,-477 594,-507"/>
<text text-anchor="start" x="450" y="-495" font-family="Helvetica,sans-Serif" font-size="10.00">polyfem::State::solve</text>
<text text-anchor="middle" x="518" y="-484" font-family="Helvetica,sans-Serif" font-size="10.00">_transient_tensor_nonlinear</text>
</a>
</g>
</g>
<!-- Node27&#45;&gt;Node30 -->
<g id="edge34_Node000027_Node000030" class="edge">
<title>Node27&#45;&gt;Node30</title>
<g id="a_edge34_Node000027_Node000030"><a xlink:title=" ">
<path fill="none" stroke="#63b8ff" d="M625.53,-500.45C615.18,-499.63 604.48,-498.78 594.03,-497.95"/>
<polygon fill="#63b8ff" stroke="#63b8ff" points="625.5,-503.96 635.75,-501.26 626.05,-496.98 625.5,-503.96"/>
</a>
</g>
</g>
<!-- Node28&#45;&gt;Node6 -->
<g id="edge32_Node000028_Node000006" class="edge">
<title>Node28&#45;&gt;Node6</title>
<g id="a_edge32_Node000028_Node000006"><a xlink:title=" ">
<path fill="none" stroke="#63b8ff" d="M297.02,-441.96C257.85,-475.72 184.43,-539.01 156.34,-563.23"/>
<polygon fill="#63b8ff" stroke="#63b8ff" points="299.54,-444.41 304.83,-435.23 294.97,-439.11 299.54,-444.41"/>
</a>
</g>
</g>
<!-- Node29 -->
<g id="Node000029" class="node">
<title>Node29</title>
<g id="a_Node000029"><a xlink:href="structpolyfem_1_1solver_1_1_adjoint_opt_utils.html#acac3e8ce8646ddd1544ed034c71bec96" target="_top" xlink:title=" ">
<polygon fill="white" stroke="#666666" points="211,-435 77,-435 77,-405 211,-405 211,-435"/>
<text text-anchor="start" x="85" y="-423" font-family="Helvetica,sans-Serif" font-size="10.00">polyfem::solver::Adjoint</text>
<text text-anchor="middle" x="144" y="-412" font-family="Helvetica,sans-Serif" font-size="10.00">OptUtils::solve_pde</text>
</a>
</g>
</g>
<!-- Node28&#45;&gt;Node29 -->
<g id="edge33_Node000028_Node000029" class="edge">
<title>Node28&#45;&gt;Node29</title>
<g id="a_edge33_Node000028_Node000029"><a xlink:title=" ">
<path fill="none" stroke="#63b8ff" d="M252.61,-420C238.96,-420 224.68,-420 211.16,-420"/>
<polygon fill="#63b8ff" stroke="#63b8ff" points="252.9,-423.5 262.9,-420 252.9,-416.5 252.9,-423.5"/>
</a>
</g>
</g>
<!-- Node30&#45;&gt;Node28 -->
<g id="edge35_Node000030_Node000028" class="edge">
<title>Node30&#45;&gt;Node28</title>
<g id="a_edge35_Node000030_Node000028"><a xlink:title=" ">
<path fill="none" stroke="#63b8ff" d="M452.97,-473.8C447.21,-471.93 441.48,-469.98 436,-468 408.85,-458.17 378.83,-445.12 356.78,-435.1"/>
<polygon fill="#63b8ff" stroke="#63b8ff" points="452.09,-477.19 462.68,-476.87 454.21,-470.52 452.09,-477.19"/>
</a>
</g>
</g>
<!-- Node31&#45;&gt;Node30 -->
<g id="edge47_Node000031_Node000030" class="edge">
<title>Node31&#45;&gt;Node30</title>
<g id="a_edge47_Node000031_Node000030"><a xlink:title=" ">
<path fill="none" stroke="#63b8ff" d="M671.3,-418.15C652.91,-433.96 626.37,-454.7 600,-468 593.32,-471.37 586.09,-474.35 578.79,-476.96"/>
<polygon fill="#63b8ff" stroke="#63b8ff" points="673.93,-420.5 679.14,-411.27 669.32,-415.23 673.93,-420.5"/>
</a>
</g>
</g>
<!-- Node32 -->
<g id="Node000032" class="node">
<title>Node32</title>
<g id="a_Node000032"><a xlink:href="classpolyfem_1_1_state.html#aaa1977089bd41efb9edca92038b74b74" target="_top" xlink:title="initialize solver">
<polygon fill="white" stroke="#666666" points="573,-363 463,-363 463,-333 573,-333 573,-363"/>
<text text-anchor="start" x="471" y="-351" font-family="Helvetica,sans-Serif" font-size="10.00">polyfem::State::init</text>
<text text-anchor="middle" x="518" y="-340" font-family="Helvetica,sans-Serif" font-size="10.00">_solve</text>
</a>
</g>
</g>
<!-- Node31&#45;&gt;Node32 -->
<g id="edge37_Node000031_Node000032" class="edge">
<title>Node31&#45;&gt;Node32</title>
<g id="a_edge37_Node000031_Node000032"><a xlink:title=" ">
<path fill="none" stroke="#63b8ff" d="M630.46,-378.31C611.65,-373.2 591.33,-367.67 573.26,-362.76"/>
<polygon fill="#63b8ff" stroke="#63b8ff" points="629.57,-381.7 640.14,-380.94 631.41,-374.94 629.57,-381.7"/>
</a>
</g>
</g>
<!-- Node33 -->
<g id="Node000033" class="node">
<title>Node33</title>
<g id="a_Node000033"><a xlink:href="classpolyfem_1_1_state.html#af575faba770a261cb0398a98f0a752b9" target="_top" xlink:title=" ">
<polygon fill="white" stroke="#666666" points="578.5,-315 457.5,-315 457.5,-285 578.5,-285 578.5,-315"/>
<text text-anchor="start" x="465.5" y="-303" font-family="Helvetica,sans-Serif" font-size="10.00">polyfem::State::solve</text>
<text text-anchor="middle" x="518" y="-292" font-family="Helvetica,sans-Serif" font-size="10.00">_homogenization</text>
</a>
</g>
</g>
<!-- Node31&#45;&gt;Node33 -->
<g id="edge39_Node000031_Node000033" class="edge">
<title>Node31&#45;&gt;Node33</title>
<g id="a_edge39_Node000031_Node000033"><a xlink:title=" ">
<path fill="none" stroke="#63b8ff" d="M671.3,-373.85C652.91,-358.04 626.37,-337.3 600,-324 593.32,-320.63 586.09,-317.65 578.79,-315.04"/>
<polygon fill="#63b8ff" stroke="#63b8ff" points="669.32,-376.77 679.14,-380.73 673.93,-371.5 669.32,-376.77"/>
</a>
</g>
</g>
<!-- Node34 -->
<g id="Node000034" class="node">
<title>Node34</title>
<g id="a_Node000034"><a xlink:href="classpolyfem_1_1_state.html#aaba89b1d3992dfda9b02df4447914f18" target="_top" xlink:title="solves transient linear problem">
<polygon fill="white" stroke="#666666" points="578.5,-267 457.5,-267 457.5,-237 578.5,-237 578.5,-267"/>
<text text-anchor="start" x="465.5" y="-255" font-family="Helvetica,sans-Serif" font-size="10.00">polyfem::State::solve</text>
<text text-anchor="middle" x="518" y="-244" font-family="Helvetica,sans-Serif" font-size="10.00">_transient_linear</text>
</a>
</g>
</g>
<!-- Node31&#45;&gt;Node34 -->
<g id="edge41_Node000031_Node000034" class="edge">
<title>Node31&#45;&gt;Node34</title>
<g id="a_edge41_Node000031_Node000034"><a xlink:title=" ">
<path fill="none" stroke="#63b8ff" d="M682.34,-371.72C666.37,-344.5 636.93,-300.9 600,-276 593.56,-271.65 586.31,-268.08 578.86,-265.14"/>
<polygon fill="#63b8ff" stroke="#63b8ff" points="679.42,-373.67 687.42,-380.61 685.5,-370.19 679.42,-373.67"/>
</a>
</g>
</g>
<!-- Node35 -->
<g id="Node000035" class="node">
<title>Node35</title>
<g id="a_Node000035"><a xlink:href="classpolyfem_1_1_state.html#ada934cc34fae787ec506a812c65e13b5" target="_top" xlink:title="solves transient navier stokes with FEM">
<polygon fill="white" stroke="#666666" points="587,-459 449,-459 449,-429 587,-429 587,-459"/>
<text text-anchor="start" x="457" y="-447" font-family="Helvetica,sans-Serif" font-size="10.00">polyfem::State::solve</text>
<text text-anchor="middle" x="518" y="-436" font-family="Helvetica,sans-Serif" font-size="10.00">_transient_navier_stokes</text>
</a>
</g>
</g>
<!-- Node31&#45;&gt;Node35 -->
<g id="edge43_Node000031_Node000035" class="edge">
<title>Node31&#45;&gt;Node35</title>
<g id="a_edge43_Node000031_Node000035"><a xlink:title=" ">
<path fill="none" stroke="#63b8ff" d="M630.35,-413.72C611.89,-418.74 591.97,-424.15 574.16,-429"/>
<polygon fill="#63b8ff" stroke="#63b8ff" points="631.41,-417.06 640.14,-411.06 629.57,-410.3 631.41,-417.06"/>
</a>
</g>
</g>
<!-- Node36 -->
<g id="Node000036" class="node">
<title>Node36</title>
<g id="a_Node000036"><a xlink:href="classpolyfem_1_1_state.html#aa708cfe19c264bb75b86dead580bb593" target="_top" xlink:title="solves transient navier stokes with operator splitting">
<polygon fill="white" stroke="#666666" points="600,-411 436,-411 436,-381 600,-381 600,-411"/>
<text text-anchor="start" x="444" y="-399" font-family="Helvetica,sans-Serif" font-size="10.00">polyfem::State::solve</text>
<text text-anchor="middle" x="518" y="-388" font-family="Helvetica,sans-Serif" font-size="10.00">_transient_navier_stokes_split</text>
</a>
</g>
</g>
<!-- Node31&#45;&gt;Node36 -->
<g id="edge45_Node000031_Node000036" class="edge">
<title>Node31&#45;&gt;Node36</title>
<g id="a_edge45_Node000031_Node000036"><a xlink:title=" ">
<path fill="none" stroke="#63b8ff" d="M627.05,-396C618.26,-396 609.19,-396 600.23,-396"/>
<polygon fill="#63b8ff" stroke="#63b8ff" points="627.22,-399.5 637.22,-396 627.22,-392.5 627.22,-399.5"/>
</a>
</g>
</g>
<!-- Node32&#45;&gt;Node28 -->
<g id="edge38_Node000032_Node000028" class="edge">
<title>Node32&#45;&gt;Node28</title>
<g id="a_edge38_Node000032_Node000028"><a xlink:title=" ">
<path fill="none" stroke="#63b8ff" d="M452.97,-366.2C447.21,-368.07 441.48,-370.02 436,-372 408.85,-381.83 378.83,-394.88 356.78,-404.9"/>
<polygon fill="#63b8ff" stroke="#63b8ff" points="454.21,-369.48 462.68,-363.13 452.09,-362.81 454.21,-369.48"/>
</a>
</g>
</g>
<!-- Node33&#45;&gt;Node28 -->
<g id="edge40_Node000033_Node000028" class="edge">
<title>Node33&#45;&gt;Node28</title>
<g id="a_edge40_Node000033_Node000028"><a xlink:title=" ">
<path fill="none" stroke="#63b8ff" d="M447.79,-318.3C443.73,-320.05 439.77,-321.95 436,-324 396.09,-345.78 357.77,-383.68 338.13,-404.76"/>
<polygon fill="#63b8ff" stroke="#63b8ff" points="449.42,-321.42 457.42,-314.47 446.84,-314.91 449.42,-321.42"/>
</a>
</g>
</g>
<!-- Node34&#45;&gt;Node28 -->
<g id="edge42_Node000034_Node000028" class="edge">
<title>Node34&#45;&gt;Node28</title>
<g id="a_edge42_Node000034_Node000028"><a xlink:title=" ">
<path fill="none" stroke="#63b8ff" d="M447.83,-269.15C443.69,-271.19 439.71,-273.46 436,-276 385.37,-310.63 347.45,-375.47 332.04,-404.85"/>
<polygon fill="#63b8ff" stroke="#63b8ff" points="449.35,-272.31 457.08,-265.06 446.52,-265.9 449.35,-272.31"/>
</a>
</g>
</g>
<!-- Node35&#45;&gt;Node28 -->
<g id="edge44_Node000035_Node000028" class="edge">
<title>Node35&#45;&gt;Node28</title>
<g id="a_edge44_Node000035_Node000028"><a xlink:title=" ">
<path fill="none" stroke="#63b8ff" d="M438.85,-434.26C420.63,-431.98 401.51,-429.6 384.23,-427.45"/>
<polygon fill="#63b8ff" stroke="#63b8ff" points="438.5,-437.74 448.86,-435.5 439.37,-430.79 438.5,-437.74"/>
</a>
</g>
</g>
<!-- Node36&#45;&gt;Node28 -->
<g id="edge46_Node000036_Node000028" class="edge">
<title>Node36&#45;&gt;Node28</title>
<g id="a_edge46_Node000036_Node000028"><a xlink:title=" ">
<path fill="none" stroke="#63b8ff" d="M425.69,-407.38C411.57,-409.14 397.32,-410.92 384.14,-412.56"/>
<polygon fill="#63b8ff" stroke="#63b8ff" points="426.43,-410.82 435.92,-406.11 425.56,-403.87 426.43,-410.82"/>
</a>
</g>
</g>
<!-- Node39&#45;&gt;Node21 -->
<g id="edge51_Node000039_Node000021" class="edge">
<title>Node39&#45;&gt;Node21</title>
<g id="a_edge51_Node000039_Node000021"><a xlink:title=" ">
<path fill="none" stroke="#63b8ff" d="M1566.78,-293.03C1564.79,-294.28 1562.86,-295.6 1561,-297 1492.19,-349 1455.56,-452.19 1443.79,-490.88"/>
<polygon fill="#63b8ff" stroke="#63b8ff" points="1568.76,-295.93 1575.84,-288.05 1565.39,-289.8 1568.76,-295.93"/>
</a>
</g>
</g>
<!-- Node41 -->
<g id="Node000041" class="node">
<title>Node41</title>
<g id="a_Node000041"><a xlink:href="classpolyfem_1_1basis_1_1_spline_basis2d.html#af9647481c1a62ac9b81c9394ff36a2ea" target="_top" xlink:title=" ">
<polygon fill="white" stroke="#666666" points="1316,-667 1153,-667 1153,-637 1316,-637 1316,-667"/>
<text text-anchor="start" x="1161" y="-655" font-family="Helvetica,sans-Serif" font-size="10.00">polyfem::basis::SplineBasis2d</text>
<text text-anchor="middle" x="1234.5" y="-644" font-family="Helvetica,sans-Serif" font-size="10.00">::build_bases</text>
</a>
</g>
</g>
<!-- Node40&#45;&gt;Node41 -->
<g id="edge53_Node000040_Node000041" class="edge">
<title>Node40&#45;&gt;Node41</title>
<g id="a_edge53_Node000040_Node000041"><a xlink:title=" ">
<path fill="none" stroke="#63b8ff" d="M1776.95,-649.46C1650.91,-650.05 1433.76,-651.07 1316.41,-651.62"/>
<polygon fill="#63b8ff" stroke="#63b8ff" points="1777.01,-652.96 1786.99,-649.41 1776.97,-645.96 1777.01,-652.96"/>
</a>
</g>
</g>
<!-- Node41&#45;&gt;Node5 -->
<g id="edge54_Node000041_Node000005" class="edge">
<title>Node41&#45;&gt;Node5</title>
<g id="a_edge54_Node000041_Node000005"><a xlink:title=" ">
<path fill="none" stroke="#63b8ff" d="M1154.91,-634.82C1138.05,-631.13 1120.51,-627.29 1104.56,-623.81"/>
<polygon fill="#63b8ff" stroke="#63b8ff" points="1154.23,-638.25 1164.75,-636.97 1155.73,-631.41 1154.23,-638.25"/>
</a>
</g>
</g>
</g>
</svg>
