<?xml version="1.0" encoding="UTF-8" standalone="no"?>
<!DOCTYPE svg PUBLIC "-//W3C//DTD SVG 1.1//EN"
 "http://www.w3.org/Graphics/SVG/1.1/DTD/svg11.dtd">
<!-- Generated by graphviz version 2.43.0 (0)
 -->
<!-- Title: polyfem::State::node_to_primitive Pages: 1 -->
<svg width="570pt" height="388pt"
 viewBox="0.00 0.00 570.00 388.00" xmlns="http://www.w3.org/2000/svg" xmlns:xlink="http://www.w3.org/1999/xlink">
<g id="graph0" class="graph" transform="scale(1 1) rotate(0) translate(4 384)">
<title>polyfem::State::node_to_primitive</title>
<!-- Node1 -->
<g id="Node000001" class="node">
<title>Node1</title>
<g id="a_Node000001"><a xlink:title=" ">
<polygon fill="#999999" stroke="#666666" points="562,-296.5 443,-296.5 443,-266.5 562,-266.5 562,-296.5"/>
<text text-anchor="start" x="451" y="-284.5" font-family="Helvetica,sans-Serif" font-size="10.00">polyfem::State::node</text>
<text text-anchor="middle" x="502.5" y="-273.5" font-family="Helvetica,sans-Serif" font-size="10.00">_to_primitive</text>
</a>
</g>
</g>
<!-- Node2 -->
<g id="Node000002" class="node">
<title>Node2</title>
<g id="a_Node000002"><a xlink:href="classpolyfem_1_1solver_1_1_bounded_biharmonic_weights2_dto3_d.html#acd76ff43b35af0e45e6b568381fa9cd9" target="_top" xlink:title=" ">
<polygon fill="white" stroke="#666666" points="407,-380 210,-380 210,-339 407,-339 407,-380"/>
<text text-anchor="start" x="218" y="-368" font-family="Helvetica,sans-Serif" font-size="10.00">polyfem::solver::Bounded</text>
<text text-anchor="start" x="218" y="-357" font-family="Helvetica,sans-Serif" font-size="10.00">BiharmonicWeights2Dto3D</text>
<text text-anchor="middle" x="308.5" y="-346" font-family="Helvetica,sans-Serif" font-size="10.00">::BoundedBiharmonicWeights2Dto3D</text>
</a>
</g>
</g>
<!-- Node1&#45;&gt;Node2 -->
<g id="edge1_Node000001_Node000002" class="edge">
<title>Node1&#45;&gt;Node2</title>
<g id="a_edge1_Node000001_Node000002"><a xlink:title=" ">
<path fill="none" stroke="#63b8ff" d="M465.58,-301.58C448.21,-310.81 426.86,-321.47 407,-329.5 398.79,-332.82 390.07,-335.99 381.35,-338.93"/>
<polygon fill="#63b8ff" stroke="#63b8ff" points="467.64,-304.45 474.78,-296.63 464.32,-298.28 467.64,-304.45"/>
</a>
</g>
</g>
<!-- Node3 -->
<g id="Node000003" class="node">
<title>Node3</title>
<g id="a_Node000003"><a xlink:href="classpolyfem_1_1_state.html#aaeefcb179a8bda9cb3a0768a692a74ea" target="_top" xlink:title=" ">
<polygon fill="white" stroke="#666666" points="368.5,-320.5 248.5,-320.5 248.5,-290.5 368.5,-290.5 368.5,-320.5"/>
<text text-anchor="start" x="256.5" y="-308.5" font-family="Helvetica,sans-Serif" font-size="10.00">polyfem::State::build</text>
<text text-anchor="middle" x="308.5" y="-297.5" font-family="Helvetica,sans-Serif" font-size="10.00">_pressure_assembler</text>
</a>
</g>
</g>
<!-- Node1&#45;&gt;Node3 -->
<g id="edge2_Node000001_Node000003" class="edge">
<title>Node1&#45;&gt;Node3</title>
<g id="a_edge2_Node000001_Node000003"><a xlink:title=" ">
<path fill="none" stroke="#63b8ff" d="M432.75,-290.09C411.83,-292.71 389.02,-295.56 368.78,-298.09"/>
<polygon fill="#63b8ff" stroke="#63b8ff" points="433.36,-293.54 442.85,-288.83 432.49,-286.6 433.36,-293.54"/>
</a>
</g>
</g>
<!-- Node4 -->
<g id="Node000004" class="node">
<title>Node4</title>
<g id="a_Node000004"><a xlink:href="classpolyfem_1_1_state.html#aa5379476e1dbf836daed0fae3ee256af" target="_top" xlink:title=" ">
<polygon fill="white" stroke="#666666" points="363.5,-272.5 253.5,-272.5 253.5,-242.5 363.5,-242.5 363.5,-272.5"/>
<text text-anchor="start" x="261.5" y="-260.5" font-family="Helvetica,sans-Serif" font-size="10.00">polyfem::State::get</text>
<text text-anchor="middle" x="308.5" y="-249.5" font-family="Helvetica,sans-Serif" font-size="10.00">_elements</text>
</a>
</g>
</g>
<!-- Node1&#45;&gt;Node4 -->
<g id="edge3_Node000001_Node000004" class="edge">
<title>Node1&#45;&gt;Node4</title>
<g id="a_edge3_Node000001_Node000004"><a xlink:title=" ">
<path fill="none" stroke="#63b8ff" d="M432.9,-272.92C410.11,-270.08 385.07,-266.95 363.54,-264.25"/>
<polygon fill="#63b8ff" stroke="#63b8ff" points="432.49,-276.4 442.85,-274.17 433.36,-269.46 432.49,-276.4"/>
</a>
</g>
</g>
<!-- Node6 -->
<g id="Node000006" class="node">
<title>Node6</title>
<g id="a_Node000006"><a xlink:href="namespacepolyfem_1_1solver_1_1_adjoint_tools.html#af8e122cc77e54fe557a75e10bb5d6f2c" target="_top" xlink:title=" ">
<polygon fill="white" stroke="#666666" points="405.5,-182.5 211.5,-182.5 211.5,-152.5 405.5,-152.5 405.5,-182.5"/>
<text text-anchor="start" x="219.5" y="-170.5" font-family="Helvetica,sans-Serif" font-size="10.00">polyfem::solver::Adjoint</text>
<text text-anchor="middle" x="308.5" y="-159.5" font-family="Helvetica,sans-Serif" font-size="10.00">Tools::map_node_to_primitive_order</text>
</a>
</g>
</g>
<!-- Node1&#45;&gt;Node6 -->
<g id="edge5_Node000001_Node000006" class="edge">
<title>Node1&#45;&gt;Node6</title>
<g id="a_edge5_Node000001_Node000006"><a xlink:title=" ">
<path fill="none" stroke="#63b8ff" d="M467.32,-261.21C429.3,-238.63 368.78,-202.7 334.8,-182.52"/>
<polygon fill="#63b8ff" stroke="#63b8ff" points="465.62,-264.27 476,-266.36 469.19,-258.25 465.62,-264.27"/>
</a>
</g>
</g>
<!-- Node5 -->
<g id="Node000005" class="node">
<title>Node5</title>
<g id="a_Node000005"><a xlink:href="classpolyfem_1_1solver_1_1_a_m_i_p_s_form.html#ac1772b15a4fb45b906bec50503dbccc4" target="_top" xlink:title=" ">
<polygon fill="white" stroke="#666666" points="164.5,-314.5 9.5,-314.5 9.5,-284.5 164.5,-284.5 164.5,-314.5"/>
<text text-anchor="start" x="17.5" y="-302.5" font-family="Helvetica,sans-Serif" font-size="10.00">polyfem::solver::AMIPSForm</text>
<text text-anchor="middle" x="87" y="-291.5" font-family="Helvetica,sans-Serif" font-size="10.00">::AMIPSForm</text>
</a>
</g>
</g>
<!-- Node4&#45;&gt;Node5 -->
<g id="edge4_Node000004_Node000005" class="edge">
<title>Node4&#45;&gt;Node5</title>
<g id="a_edge4_Node000004_Node000005"><a xlink:title=" ">
<path fill="none" stroke="#63b8ff" d="M243.31,-269.78C218.74,-274.48 190.46,-279.89 164.82,-284.8"/>
<polygon fill="#63b8ff" stroke="#63b8ff" points="244.08,-273.2 253.24,-267.88 242.76,-266.32 244.08,-273.2"/>
</a>
</g>
</g>
<!-- Node7 -->
<g id="Node000007" class="node">
<title>Node7</title>
<g id="a_Node000007"><a xlink:href="classpolyfem_1_1solver_1_1_a_m_i_p_s_form.html#a653eca873137c884a22e958824816f8d" target="_top" xlink:title=" ">
<polygon fill="white" stroke="#666666" points="164.5,-266.5 9.5,-266.5 9.5,-236.5 164.5,-236.5 164.5,-266.5"/>
<text text-anchor="start" x="17.5" y="-254.5" font-family="Helvetica,sans-Serif" font-size="10.00">polyfem::solver::AMIPSForm</text>
<text text-anchor="middle" x="87" y="-243.5" font-family="Helvetica,sans-Serif" font-size="10.00">::compute_partial_gradient</text>
</a>
</g>
</g>
<!-- Node6&#45;&gt;Node7 -->
<g id="edge6_Node000006_Node000007" class="edge">
<title>Node6&#45;&gt;Node7</title>
<g id="a_edge6_Node000006_Node000007"><a xlink:title=" ">
<path fill="none" stroke="#63b8ff" d="M268.32,-186.99C242.05,-199.58 206.45,-215.75 174,-227.5 165.25,-230.67 155.88,-233.67 146.66,-236.4"/>
<polygon fill="#63b8ff" stroke="#63b8ff" points="270.07,-190.03 277.55,-182.52 267.02,-183.73 270.07,-190.03"/>
</a>
</g>
</g>
<!-- Node8 -->
<g id="Node000008" class="node">
<title>Node8</title>
<g id="a_Node000008"><a xlink:href="classpolyfem_1_1solver_1_1_collision_barrier_form.html#ab521276c4d393e1845125386d3f4e26c" target="_top" xlink:title=" ">
<polygon fill="white" stroke="#666666" points="167,-218 7,-218 7,-177 167,-177 167,-218"/>
<text text-anchor="start" x="15" y="-206" font-family="Helvetica,sans-Serif" font-size="10.00">polyfem::solver::Collision</text>
<text text-anchor="start" x="15" y="-195" font-family="Helvetica,sans-Serif" font-size="10.00">BarrierForm::compute_partial</text>
<text text-anchor="middle" x="87" y="-184" font-family="Helvetica,sans-Serif" font-size="10.00">_gradient</text>
</a>
</g>
</g>
<!-- Node6&#45;&gt;Node8 -->
<g id="edge7_Node000006_Node000008" class="edge">
<title>Node6&#45;&gt;Node8</title>
<g id="a_edge7_Node000006_Node000008"><a xlink:title=" ">
<path fill="none" stroke="#63b8ff" d="M201.16,-182.03C189.69,-183.6 178.16,-185.18 167.09,-186.69"/>
<polygon fill="#63b8ff" stroke="#63b8ff" points="201.79,-185.48 211.22,-180.66 200.84,-178.54 201.79,-185.48"/>
</a>
</g>
</g>
<!-- Node9 -->
<g id="Node000009" class="node">
<title>Node9</title>
<g id="a_Node000009"><a xlink:href="classpolyfem_1_1solver_1_1_deformed_collision_barrier_form.html#a0ce9d1e6eae4588df5c7748d8e930909" target="_top" xlink:title=" ">
<polygon fill="white" stroke="#666666" points="169.5,-159 4.5,-159 4.5,-118 169.5,-118 169.5,-159"/>
<text text-anchor="start" x="12.5" y="-147" font-family="Helvetica,sans-Serif" font-size="10.00">polyfem::solver::Deformed</text>
<text text-anchor="start" x="12.5" y="-136" font-family="Helvetica,sans-Serif" font-size="10.00">CollisionBarrierForm::compute</text>
<text text-anchor="middle" x="87" y="-125" font-family="Helvetica,sans-Serif" font-size="10.00">_partial_gradient</text>
</a>
</g>
</g>
<!-- Node6&#45;&gt;Node9 -->
<g id="edge8_Node000006_Node000009" class="edge">
<title>Node6&#45;&gt;Node9</title>
<g id="a_edge8_Node000006_Node000009"><a xlink:title=" ">
<path fill="none" stroke="#63b8ff" d="M201.14,-153.45C190.6,-152.06 180.02,-150.66 169.78,-149.3"/>
<polygon fill="#63b8ff" stroke="#63b8ff" points="200.85,-156.94 211.22,-154.78 201.77,-150 200.85,-156.94"/>
</a>
</g>
</g>
<!-- Node10 -->
<g id="Node000010" class="node">
<title>Node10</title>
<g id="a_Node000010"><a xlink:href="classpolyfem_1_1solver_1_1_smooth_contact_force_form.html#aac4781571aa792ea31f98cf524494ff7" target="_top" xlink:title=" ">
<polygon fill="white" stroke="#666666" points="174,-100 0,-100 0,-59 174,-59 174,-100"/>
<text text-anchor="start" x="8" y="-88" font-family="Helvetica,sans-Serif" font-size="10.00">polyfem::solver::SmoothContact</text>
<text text-anchor="start" x="8" y="-77" font-family="Helvetica,sans-Serif" font-size="10.00">ForceForm::compute_partial</text>
<text text-anchor="middle" x="87" y="-66" font-family="Helvetica,sans-Serif" font-size="10.00">_gradient_step</text>
</a>
</g>
</g>
<!-- Node6&#45;&gt;Node10 -->
<g id="edge9_Node000006_Node000010" class="edge">
<title>Node6&#45;&gt;Node10</title>
<g id="a_edge9_Node000006_Node000010"><a xlink:title=" ">
<path fill="none" stroke="#63b8ff" d="M265.37,-148.24C239.26,-136.54 204.92,-121.59 174,-109.5 165.9,-106.33 157.31,-103.14 148.82,-100.08"/>
<polygon fill="#63b8ff" stroke="#63b8ff" points="264.04,-151.48 274.59,-152.39 266.91,-145.1 264.04,-151.48"/>
</a>
</g>
</g>
<!-- Node11 -->
<g id="Node000011" class="node">
<title>Node11</title>
<g id="a_Node000011"><a xlink:href="classpolyfem_1_1solver_1_1_proxy_contact_force_form.html#aac0ea4d95a34ed7287b36b5f1dbfa0cd" target="_top" xlink:title=" ">
<polygon fill="white" stroke="#666666" points="169,-41 5,-41 5,0 169,0 169,-41"/>
<text text-anchor="start" x="13" y="-29" font-family="Helvetica,sans-Serif" font-size="10.00">polyfem::solver::ProxyContact</text>
<text text-anchor="start" x="13" y="-18" font-family="Helvetica,sans-Serif" font-size="10.00">ForceForm::compute_partial</text>
<text text-anchor="middle" x="87" y="-7" font-family="Helvetica,sans-Serif" font-size="10.00">_gradient_step</text>
</a>
</g>
</g>
<!-- Node6&#45;&gt;Node11 -->
<g id="edge10_Node000006_Node000011" class="edge">
<title>Node6&#45;&gt;Node11</title>
<g id="a_edge10_Node000006_Node000011"><a xlink:title=" ">
<path fill="none" stroke="#63b8ff" d="M287.21,-144.75C262.71,-118.5 219.13,-75.61 174,-49.5 168.68,-46.42 162.99,-43.61 157.16,-41.05"/>
<polygon fill="#63b8ff" stroke="#63b8ff" points="284.84,-147.33 294.18,-152.32 289.99,-142.59 284.84,-147.33"/>
</a>
</g>
</g>
</g>
</svg>
