<?xml version="1.0" encoding="UTF-8" standalone="no"?>
<!DOCTYPE svg PUBLIC "-//W3C//DTD SVG 1.1//EN"
 "http://www.w3.org/Graphics/SVG/1.1/DTD/svg11.dtd">
<!-- Generated by graphviz version 2.43.0 (0)
 -->
<!-- Title: polyfem::mesh::CMesh2D::append Pages: 1 -->
<svg width="661pt" height="481pt"
 viewBox="0.00 0.00 661.00 481.00" xmlns="http://www.w3.org/2000/svg" xmlns:xlink="http://www.w3.org/1999/xlink">
<g id="graph0" class="graph" transform="scale(1 1) rotate(0) translate(4 477)">
<title>polyfem::mesh::CMesh2D::append</title>
<!-- Node1 -->
<g id="node1" class="node">
<title>Node1</title>
<g id="a_node1"><a xlink:title="appends a new mesh to the end of this">
<polygon fill="#bfbfbf" stroke="black" points="0,-122.5 0,-152.5 143,-152.5 143,-122.5 0,-122.5"/>
<text text-anchor="start" x="8" y="-140.5" font-family="Helvetica,sans-Serif" font-size="10.00">polyfem::mesh::CMesh2D</text>
<text text-anchor="middle" x="71.5" y="-129.5" font-family="Helvetica,sans-Serif" font-size="10.00">::append</text>
</a>
</g>
</g>
<!-- Node2 -->
<g id="node2" class="node">
<title>Node2</title>
<g id="a_node2"><a xlink:href="classpolyfem_1_1mesh_1_1_mesh.html#ad9917a167f244c16c020d08e48cadc13" target="_top" xlink:title="appends a new mesh to the end of this">
<polygon fill="none" stroke="black" points="192.5,-245.5 192.5,-275.5 314.5,-275.5 314.5,-245.5 192.5,-245.5"/>
<text text-anchor="start" x="200.5" y="-263.5" font-family="Helvetica,sans-Serif" font-size="10.00">polyfem::mesh::Mesh</text>
<text text-anchor="middle" x="253.5" y="-252.5" font-family="Helvetica,sans-Serif" font-size="10.00">::append</text>
</a>
</g>
</g>
<!-- Node1&#45;&gt;Node2 -->
<g id="edge1" class="edge">
<title>Node1&#45;&gt;Node2</title>
<path fill="none" stroke="midnightblue" d="M85.04,-152.76C103.51,-174.3 140.06,-213.57 179,-236.5 181.83,-238.17 184.8,-239.74 187.84,-241.21"/>
<polygon fill="midnightblue" stroke="midnightblue" points="186.6,-244.49 197.16,-245.35 189.44,-238.09 186.6,-244.49"/>
</g>
<!-- Node15 -->
<g id="node15" class="node">
<title>Node15</title>
<g id="a_node15"><a xlink:href="classpolyfem_1_1mesh_1_1_c_mesh2_d.html#a27031fb3ff823c512a1e9f6e6ab5973f" target="_top" xlink:title="number of faces">
<polygon fill="none" stroke="black" points="182,-196.5 182,-226.5 325,-226.5 325,-196.5 182,-196.5"/>
<text text-anchor="start" x="190" y="-214.5" font-family="Helvetica,sans-Serif" font-size="10.00">polyfem::mesh::CMesh2D</text>
<text text-anchor="middle" x="253.5" y="-203.5" font-family="Helvetica,sans-Serif" font-size="10.00">::n_faces</text>
</a>
</g>
</g>
<!-- Node1&#45;&gt;Node15 -->
<g id="edge18" class="edge">
<title>Node1&#45;&gt;Node15</title>
<path fill="none" stroke="midnightblue" d="M102.89,-152.5C124,-162.67 152.91,-176.09 179,-186.5 184.53,-188.71 190.35,-190.9 196.18,-193.01"/>
<polygon fill="midnightblue" stroke="midnightblue" points="195.37,-196.44 205.97,-196.49 197.71,-189.84 195.37,-196.44"/>
</g>
<!-- Node16 -->
<g id="node16" class="node">
<title>Node16</title>
<g id="a_node16"><a xlink:href="classpolyfem_1_1mesh_1_1_c_mesh2_d.html#a4afc163f4a2e74d5f26880f55cdd6bcb" target="_top" xlink:title="number of vertices">
<polygon fill="none" stroke="black" points="182,-147.5 182,-177.5 325,-177.5 325,-147.5 182,-147.5"/>
<text text-anchor="start" x="190" y="-165.5" font-family="Helvetica,sans-Serif" font-size="10.00">polyfem::mesh::CMesh2D</text>
<text text-anchor="middle" x="253.5" y="-154.5" font-family="Helvetica,sans-Serif" font-size="10.00">::n_vertices</text>
</a>
</g>
</g>
<!-- Node1&#45;&gt;Node16 -->
<g id="edge19" class="edge">
<title>Node1&#45;&gt;Node16</title>
<path fill="none" stroke="midnightblue" d="M143.12,-147.31C152.55,-148.62 162.28,-149.97 171.87,-151.3"/>
<polygon fill="midnightblue" stroke="midnightblue" points="171.4,-154.77 181.78,-152.68 172.36,-147.84 171.4,-154.77"/>
</g>
<!-- Node17 -->
<g id="node17" class="node">
<title>Node17</title>
<g id="a_node17"><a xlink:href="classpolyfem_1_1mesh_1_1_c_mesh2_d.html#af83fbccdc67bac8c265979729cfe8640" target="_top" xlink:title="point coordinates">
<polygon fill="none" stroke="black" points="182,-98.5 182,-128.5 325,-128.5 325,-98.5 182,-98.5"/>
<text text-anchor="start" x="190" y="-116.5" font-family="Helvetica,sans-Serif" font-size="10.00">polyfem::mesh::CMesh2D</text>
<text text-anchor="middle" x="253.5" y="-105.5" font-family="Helvetica,sans-Serif" font-size="10.00">::point</text>
</a>
</g>
</g>
<!-- Node1&#45;&gt;Node17 -->
<g id="edge20" class="edge">
<title>Node1&#45;&gt;Node17</title>
<path fill="none" stroke="midnightblue" d="M143.12,-128.08C152.55,-126.83 162.28,-125.53 171.87,-124.25"/>
<polygon fill="midnightblue" stroke="midnightblue" points="172.33,-127.72 181.78,-122.93 171.41,-120.78 172.33,-127.72"/>
</g>
<!-- Node18 -->
<g id="node18" class="node">
<title>Node18</title>
<g id="a_node18"><a xlink:href="namespacepolyfem_1_1mesh_1_1_navigation.html#a72b4f275520c3c228210d1e9a781e8fc" target="_top" xlink:title=" ">
<polygon fill="none" stroke="black" points="179,-49.5 179,-79.5 328,-79.5 328,-49.5 179,-49.5"/>
<text text-anchor="start" x="187" y="-67.5" font-family="Helvetica,sans-Serif" font-size="10.00">polyfem::mesh::Navigation</text>
<text text-anchor="middle" x="253.5" y="-56.5" font-family="Helvetica,sans-Serif" font-size="10.00">::prepare_mesh</text>
</a>
</g>
</g>
<!-- Node1&#45;&gt;Node18 -->
<g id="edge21" class="edge">
<title>Node1&#45;&gt;Node18</title>
<path fill="none" stroke="midnightblue" d="M102.85,-122.4C123.94,-112.18 152.85,-98.75 179,-88.5 183.8,-86.62 188.81,-84.76 193.86,-82.97"/>
<polygon fill="midnightblue" stroke="midnightblue" points="195.29,-86.18 203.59,-79.59 192.99,-79.56 195.29,-86.18"/>
</g>
<!-- Node19 -->
<g id="node19" class="node">
<title>Node19</title>
<g id="a_node19"><a xlink:href="classpolyfem_1_1mesh_1_1_c_mesh2_d.html#a9ddff0692147549ba44b6366e912e36d" target="_top" xlink:title="Set the point.">
<polygon fill="none" stroke="black" points="182,-0.5 182,-30.5 325,-30.5 325,-0.5 182,-0.5"/>
<text text-anchor="start" x="190" y="-18.5" font-family="Helvetica,sans-Serif" font-size="10.00">polyfem::mesh::CMesh2D</text>
<text text-anchor="middle" x="253.5" y="-7.5" font-family="Helvetica,sans-Serif" font-size="10.00">::set_point</text>
</a>
</g>
</g>
<!-- Node1&#45;&gt;Node19 -->
<g id="edge22" class="edge">
<title>Node1&#45;&gt;Node19</title>
<path fill="none" stroke="midnightblue" d="M85.08,-122.4C103.58,-101.08 140.19,-62.23 179,-39.5 181.99,-37.75 185.12,-36.11 188.33,-34.58"/>
<polygon fill="midnightblue" stroke="midnightblue" points="189.82,-37.75 197.57,-30.52 187,-31.34 189.82,-37.75"/>
</g>
<!-- Node3 -->
<g id="node3" class="node">
<title>Node3</title>
<g id="a_node3"><a xlink:href="classpolyfem_1_1mesh_1_1_mesh.html#a5e569bdb72d6c480fe1f27ee4acda141" target="_top" xlink:title="Get the boundary selection of an element (face in 3d, edge in 2d)">
<polygon fill="none" stroke="black" points="368.5,-344.5 368.5,-374.5 490.5,-374.5 490.5,-344.5 368.5,-344.5"/>
<text text-anchor="start" x="376.5" y="-362.5" font-family="Helvetica,sans-Serif" font-size="10.00">polyfem::mesh::Mesh</text>
<text text-anchor="middle" x="429.5" y="-351.5" font-family="Helvetica,sans-Serif" font-size="10.00">::get_boundary_id</text>
</a>
</g>
</g>
<!-- Node2&#45;&gt;Node3 -->
<g id="edge2" class="edge">
<title>Node2&#45;&gt;Node3</title>
<path fill="none" stroke="midnightblue" d="M280.93,-275.54C310.91,-292.59 359.94,-320.49 393.18,-339.41"/>
<polygon fill="midnightblue" stroke="midnightblue" points="391.69,-342.58 402.11,-344.49 395.15,-336.5 391.69,-342.58"/>
</g>
<!-- Node4 -->
<g id="node4" class="node">
<title>Node4</title>
<g id="a_node4"><a xlink:href="classpolyfem_1_1mesh_1_1_mesh.html#a2a0448ef817e94ed705e39ac818bf9e1" target="_top" xlink:title="checks if surface selections are available">
<polygon fill="none" stroke="black" points="531,-442.5 531,-472.5 653,-472.5 653,-442.5 531,-442.5"/>
<text text-anchor="start" x="539" y="-460.5" font-family="Helvetica,sans-Serif" font-size="10.00">polyfem::mesh::Mesh</text>
<text text-anchor="middle" x="592" y="-449.5" font-family="Helvetica,sans-Serif" font-size="10.00">::has_boundary_ids</text>
</a>
</g>
</g>
<!-- Node2&#45;&gt;Node4 -->
<g id="edge8" class="edge">
<title>Node2&#45;&gt;Node4</title>
<path fill="none" stroke="midnightblue" d="M264.01,-275.84C280.94,-301.92 318.81,-354.94 364,-384.5 411.71,-415.71 473.77,-434.46 520.94,-445.13"/>
<polygon fill="midnightblue" stroke="midnightblue" points="520.26,-448.57 530.77,-447.29 521.75,-441.73 520.26,-448.57"/>
</g>
<!-- Node8 -->
<g id="node8" class="node">
<title>Node8</title>
<g id="a_node8"><a xlink:href="classpolyfem_1_1mesh_1_1_mesh.html#a6714c8e53f6fdfae01933119d8ad152c" target="_top" xlink:title="checks if volumes selections are available">
<polygon fill="none" stroke="black" points="368.5,-172.5 368.5,-202.5 490.5,-202.5 490.5,-172.5 368.5,-172.5"/>
<text text-anchor="start" x="376.5" y="-190.5" font-family="Helvetica,sans-Serif" font-size="10.00">polyfem::mesh::Mesh</text>
<text text-anchor="middle" x="429.5" y="-179.5" font-family="Helvetica,sans-Serif" font-size="10.00">::has_body_ids</text>
</a>
</g>
</g>
<!-- Node2&#45;&gt;Node8 -->
<g id="edge7" class="edge">
<title>Node2&#45;&gt;Node8</title>
<path fill="none" stroke="midnightblue" d="M306.6,-245.45C313.92,-242.78 321.24,-239.78 328,-236.5 345.3,-228.1 346.93,-221.36 364,-212.5 367.94,-210.45 372.09,-208.47 376.31,-206.59"/>
<polygon fill="midnightblue" stroke="midnightblue" points="377.77,-209.77 385.59,-202.62 375.02,-203.33 377.77,-209.77"/>
</g>
<!-- Node9 -->
<g id="node9" class="node">
<title>Node9</title>
<g id="a_node9"><a xlink:href="classpolyfem_1_1mesh_1_1_mesh.html#ad45e1e9607532dbcfe63d08ed334b85c" target="_top" xlink:title="utitlity to return the number of boundary elements, faces or edges in 3d and 2d">
<polygon fill="none" stroke="black" points="364,-270.5 364,-300.5 495,-300.5 495,-270.5 364,-270.5"/>
<text text-anchor="start" x="372" y="-288.5" font-family="Helvetica,sans-Serif" font-size="10.00">polyfem::mesh::Mesh</text>
<text text-anchor="middle" x="429.5" y="-277.5" font-family="Helvetica,sans-Serif" font-size="10.00">::n_boundary_elements</text>
</a>
</g>
</g>
<!-- Node2&#45;&gt;Node9 -->
<g id="edge9" class="edge">
<title>Node2&#45;&gt;Node9</title>
<path fill="none" stroke="midnightblue" d="M314.87,-269.17C327.34,-270.97 340.62,-272.87 353.53,-274.73"/>
<polygon fill="midnightblue" stroke="midnightblue" points="353.39,-278.24 363.79,-276.2 354.39,-271.32 353.39,-278.24"/>
</g>
<!-- Node12 -->
<g id="node12" class="node">
<title>Node12</title>
<g id="a_node12"><a xlink:href="classpolyfem_1_1mesh_1_1_mesh.html#a0140181b551c7bf0c162d6898155f294" target="_top" xlink:title="utitlity to return the number of elements, cells or faces in 3d and 2d">
<polygon fill="none" stroke="black" points="368.5,-221.5 368.5,-251.5 490.5,-251.5 490.5,-221.5 368.5,-221.5"/>
<text text-anchor="start" x="376.5" y="-239.5" font-family="Helvetica,sans-Serif" font-size="10.00">polyfem::mesh::Mesh</text>
<text text-anchor="middle" x="429.5" y="-228.5" font-family="Helvetica,sans-Serif" font-size="10.00">::n_elements</text>
</a>
</g>
</g>
<!-- Node2&#45;&gt;Node12 -->
<g id="edge13" class="edge">
<title>Node2&#45;&gt;Node12</title>
<path fill="none" stroke="midnightblue" d="M314.87,-252.17C328.77,-250.26 343.67,-248.2 357.96,-246.23"/>
<polygon fill="midnightblue" stroke="midnightblue" points="358.81,-249.65 368.24,-244.81 357.85,-242.71 358.81,-249.65"/>
</g>
<!-- Node14 -->
<g id="node14" class="node">
<title>Node14</title>
<g id="a_node14"><a xlink:href="classpolyfem_1_1mesh_1_1_mesh.html#a02b042ba86d0a7667c5da252af75b99e" target="_top" xlink:title="number of vertices">
<polygon fill="none" stroke="black" points="368.5,-123.5 368.5,-153.5 490.5,-153.5 490.5,-123.5 368.5,-123.5"/>
<text text-anchor="start" x="376.5" y="-141.5" font-family="Helvetica,sans-Serif" font-size="10.00">polyfem::mesh::Mesh</text>
<text text-anchor="middle" x="429.5" y="-130.5" font-family="Helvetica,sans-Serif" font-size="10.00">::n_vertices</text>
</a>
</g>
</g>
<!-- Node2&#45;&gt;Node14 -->
<g id="edge17" class="edge">
<title>Node2&#45;&gt;Node14</title>
<path fill="none" stroke="midnightblue" d="M314.53,-245.61C319.37,-243.04 323.95,-240.03 328,-236.5 355.57,-212.47 336.92,-187.08 364,-162.5 365.31,-161.31 366.68,-160.18 368.1,-159.11"/>
<polygon fill="midnightblue" stroke="midnightblue" points="370.25,-161.89 376.75,-153.52 366.45,-156.01 370.25,-161.89"/>
</g>
<!-- Node3&#45;&gt;Node4 -->
<g id="edge3" class="edge">
<title>Node3&#45;&gt;Node4</title>
<path fill="none" stroke="midnightblue" d="M448.08,-374.61C467.43,-390.72 499.95,-416.23 531,-433.5 533.89,-435.11 536.91,-436.67 540,-438.16"/>
<polygon fill="midnightblue" stroke="midnightblue" points="538.82,-441.47 549.37,-442.45 541.73,-435.11 538.82,-441.47"/>
</g>
<!-- Node5 -->
<g id="node5" class="node">
<title>Node5</title>
<g id="a_node5"><a xlink:href="classpolyfem_1_1mesh_1_1_mesh.html#aa91ff468411251e60dd0bec73654b0fb" target="_top" xlink:title="is edge boundary">
<polygon fill="none" stroke="black" points="531,-344.5 531,-374.5 653,-374.5 653,-344.5 531,-344.5"/>
<text text-anchor="start" x="539" y="-362.5" font-family="Helvetica,sans-Serif" font-size="10.00">polyfem::mesh::Mesh</text>
<text text-anchor="middle" x="592" y="-351.5" font-family="Helvetica,sans-Serif" font-size="10.00">::is_boundary_edge</text>
</a>
</g>
</g>
<!-- Node3&#45;&gt;Node5 -->
<g id="edge4" class="edge">
<title>Node3&#45;&gt;Node5</title>
<path fill="none" stroke="midnightblue" d="M490.72,-359.5C500.49,-359.5 510.69,-359.5 520.67,-359.5"/>
<polygon fill="midnightblue" stroke="midnightblue" points="520.98,-363 530.98,-359.5 520.98,-356 520.98,-363"/>
</g>
<!-- Node6 -->
<g id="node6" class="node">
<title>Node6</title>
<g id="a_node6"><a xlink:href="classpolyfem_1_1mesh_1_1_mesh.html#a57691e050de1b8142a237ffa388117e4" target="_top" xlink:title="is face boundary">
<polygon fill="none" stroke="black" points="531,-393.5 531,-423.5 653,-423.5 653,-393.5 531,-393.5"/>
<text text-anchor="start" x="539" y="-411.5" font-family="Helvetica,sans-Serif" font-size="10.00">polyfem::mesh::Mesh</text>
<text text-anchor="middle" x="592" y="-400.5" font-family="Helvetica,sans-Serif" font-size="10.00">::is_boundary_face</text>
</a>
</g>
</g>
<!-- Node3&#45;&gt;Node6 -->
<g id="edge5" class="edge">
<title>Node3&#45;&gt;Node6</title>
<path fill="none" stroke="midnightblue" d="M479.96,-374.6C496.36,-379.61 514.79,-385.23 531.84,-390.44"/>
<polygon fill="midnightblue" stroke="midnightblue" points="531.11,-393.88 541.7,-393.45 533.16,-387.18 531.11,-393.88"/>
</g>
<!-- Node7 -->
<g id="node7" class="node">
<title>Node7</title>
<g id="a_node7"><a xlink:href="classpolyfem_1_1mesh_1_1_mesh.html#a93c9ea4759ded33a8f25ff157033cfd9" target="_top" xlink:title="checks if mesh is volume">
<polygon fill="none" stroke="black" points="531,-246.5 531,-276.5 653,-276.5 653,-246.5 531,-246.5"/>
<text text-anchor="start" x="539" y="-264.5" font-family="Helvetica,sans-Serif" font-size="10.00">polyfem::mesh::Mesh</text>
<text text-anchor="middle" x="592" y="-253.5" font-family="Helvetica,sans-Serif" font-size="10.00">::is_volume</text>
</a>
</g>
</g>
<!-- Node3&#45;&gt;Node7 -->
<g id="edge6" class="edge">
<title>Node3&#45;&gt;Node7</title>
<path fill="none" stroke="midnightblue" d="M450.21,-344.33C474.56,-325.76 514.73,-295.63 531,-286.5 534.44,-284.57 538.07,-282.69 541.76,-280.9"/>
<polygon fill="midnightblue" stroke="midnightblue" points="543.4,-284 551,-276.63 540.46,-277.65 543.4,-284"/>
</g>
<!-- Node9&#45;&gt;Node7 -->
<g id="edge10" class="edge">
<title>Node9&#45;&gt;Node7</title>
<path fill="none" stroke="midnightblue" d="M495.32,-275.81C503.76,-274.55 512.44,-273.25 520.96,-271.97"/>
<polygon fill="midnightblue" stroke="midnightblue" points="521.5,-275.43 530.87,-270.49 520.46,-268.51 521.5,-275.43"/>
</g>
<!-- Node10 -->
<g id="node10" class="node">
<title>Node10</title>
<g id="a_node10"><a xlink:href="classpolyfem_1_1mesh_1_1_mesh.html#aeda3afe06090b4cccbbf7f5d9440de69" target="_top" xlink:title="number of edges">
<polygon fill="none" stroke="black" points="531,-295.5 531,-325.5 653,-325.5 653,-295.5 531,-295.5"/>
<text text-anchor="start" x="539" y="-313.5" font-family="Helvetica,sans-Serif" font-size="10.00">polyfem::mesh::Mesh</text>
<text text-anchor="middle" x="592" y="-302.5" font-family="Helvetica,sans-Serif" font-size="10.00">::n_edges</text>
</a>
</g>
</g>
<!-- Node9&#45;&gt;Node10 -->
<g id="edge11" class="edge">
<title>Node9&#45;&gt;Node10</title>
<path fill="none" stroke="midnightblue" d="M495.32,-295.6C503.76,-296.91 512.44,-298.26 520.96,-299.59"/>
<polygon fill="midnightblue" stroke="midnightblue" points="520.45,-303.05 530.87,-301.13 521.53,-296.14 520.45,-303.05"/>
</g>
<!-- Node11 -->
<g id="node11" class="node">
<title>Node11</title>
<g id="a_node11"><a xlink:href="classpolyfem_1_1mesh_1_1_mesh.html#abf0f721370d6dc7401113e92fe94f4e2" target="_top" xlink:title="number of faces">
<polygon fill="none" stroke="black" points="531,-197.5 531,-227.5 653,-227.5 653,-197.5 531,-197.5"/>
<text text-anchor="start" x="539" y="-215.5" font-family="Helvetica,sans-Serif" font-size="10.00">polyfem::mesh::Mesh</text>
<text text-anchor="middle" x="592" y="-204.5" font-family="Helvetica,sans-Serif" font-size="10.00">::n_faces</text>
</a>
</g>
</g>
<!-- Node9&#45;&gt;Node11 -->
<g id="edge12" class="edge">
<title>Node9&#45;&gt;Node11</title>
<path fill="none" stroke="midnightblue" d="M475.15,-270.43C481.91,-267.71 488.72,-264.71 495,-261.5 512.13,-252.75 514.05,-246.57 531,-237.5 534.69,-235.52 538.58,-233.59 542.52,-231.74"/>
<polygon fill="midnightblue" stroke="midnightblue" points="544.09,-234.87 551.76,-227.56 541.21,-228.49 544.09,-234.87"/>
</g>
<!-- Node12&#45;&gt;Node7 -->
<g id="edge14" class="edge">
<title>Node12&#45;&gt;Node7</title>
<path fill="none" stroke="midnightblue" d="M490.72,-245.88C500.59,-247.42 510.9,-249.02 520.99,-250.59"/>
<polygon fill="midnightblue" stroke="midnightblue" points="520.56,-254.07 530.98,-252.15 521.63,-247.15 520.56,-254.07"/>
</g>
<!-- Node12&#45;&gt;Node11 -->
<g id="edge16" class="edge">
<title>Node12&#45;&gt;Node11</title>
<path fill="none" stroke="midnightblue" d="M490.72,-227.5C500.59,-226.02 510.9,-224.48 520.99,-222.97"/>
<polygon fill="midnightblue" stroke="midnightblue" points="521.6,-226.42 530.98,-221.48 520.57,-219.49 521.6,-226.42"/>
</g>
<!-- Node13 -->
<g id="node13" class="node">
<title>Node13</title>
<g id="a_node13"><a xlink:href="classpolyfem_1_1mesh_1_1_mesh.html#aaf5c9547e7891266b92e6f1a2ac5d697" target="_top" xlink:title="number of cells">
<polygon fill="none" stroke="black" points="531,-148.5 531,-178.5 653,-178.5 653,-148.5 531,-148.5"/>
<text text-anchor="start" x="539" y="-166.5" font-family="Helvetica,sans-Serif" font-size="10.00">polyfem::mesh::Mesh</text>
<text text-anchor="middle" x="592" y="-155.5" font-family="Helvetica,sans-Serif" font-size="10.00">::n_cells</text>
</a>
</g>
</g>
<!-- Node12&#45;&gt;Node13 -->
<g id="edge15" class="edge">
<title>Node12&#45;&gt;Node13</title>
<path fill="none" stroke="midnightblue" d="M473.41,-221.38C480.74,-218.38 488.18,-215.04 495,-211.5 512.07,-202.64 513.98,-196.45 531,-187.5 534.12,-185.86 537.38,-184.26 540.7,-182.71"/>
<polygon fill="midnightblue" stroke="midnightblue" points="542.42,-185.78 550.14,-178.52 539.58,-179.38 542.42,-185.78"/>
</g>
</g>
</svg>
