<?xml version="1.0" encoding="UTF-8" standalone="no"?>
<!DOCTYPE svg PUBLIC "-//W3C//DTD SVG 1.1//EN"
 "http://www.w3.org/Graphics/SVG/1.1/DTD/svg11.dtd">
<!-- Generated by graphviz version 2.43.0 (0)
 -->
<!-- Title: polyfem::mesh::MeshNodes::n_nodes Pages: 1 -->
<!--zoomable 372 -->
<svg id="main" version="1.1" xmlns="http://www.w3.org/2000/svg" xmlns:xlink="http://www.w3.org/1999/xlink" xml:space="preserve" onload="init(evt)">
<style type="text/css"><![CDATA[
.edge:hover path { stroke: red; }
.edge:hover polygon { stroke: red; fill: red; }
]]></style>
<script type="text/javascript"><![CDATA[
var edges = document.getElementsByTagName('g');
if (edges && edges.length) {
  for (var i=0;i<edges.length;i++) {
    if (edges[i].id.substr(0,4)=='edge') {
      edges[i].setAttribute('class','edge');
    }
  }
}
]]></script>
        <defs>
                <circle id="rim" cx="0" cy="0" r="7"/>
                <circle id="rim2" cx="0" cy="0" r="3.5"/>
                <g id="zoomPlus">
                        <use xlink:href="#rim" fill="#404040">
                                <set attributeName="fill" to="#808080" begin="zoomplus.mouseover" end="zoomplus.mouseout"/>
                        </use>
                        <path d="M-4,0h8M0,-4v8" fill="none" stroke="white" stroke-width="1.5" pointer-events="none"/>
                </g>
                <g id="zoomMin">
                        <use xlink:href="#rim" fill="#404040">
                                <set attributeName="fill" to="#808080" begin="zoomminus.mouseover" end="zoomminus.mouseout"/>
                        </use>
                        <path d="M-4,0h8" fill="none" stroke="white" stroke-width="1.5" pointer-events="none"/>
                </g>
                <g id="dirArrow">
                        <path fill="none" stroke="white" stroke-width="1.5" d="M0,-3.0v7 M-2.5,-0.5L0,-3.0L2.5,-0.5"/>
                </g>
               <g id="resetDef">
                       <use xlink:href="#rim2" fill="#404040">
                               <set attributeName="fill" to="#808080" begin="reset.mouseover" end="reset.mouseout"/>
                       </use>
               </g>
        </defs>

<script type="text/javascript">
var viewWidth = 728;
var viewHeight = 372;
var sectionId = 'dynsection-8';
</script>
<script xlink:href="svgpan.js"/>
<svg id="graph" class="graph">
<g id="viewport">
<title>polyfem::mesh::MeshNodes::n_nodes</title>
<!-- Node1 -->
<g id="node1" class="node">
<title>Node1</title>
<g id="a_node1"><a xlink:title=" ">
<polygon fill="#bfbfbf" stroke="black" points="567,-164.5 567,-194.5 720,-194.5 720,-164.5 567,-164.5"/>
<text text-anchor="start" x="575" y="-182.5" font-family="Helvetica,sans-Serif" font-size="10.00">polyfem::mesh::MeshNodes</text>
<text text-anchor="middle" x="643.5" y="-171.5" font-family="Helvetica,sans-Serif" font-size="10.00">::n_nodes</text>
</a>
</g>
</g>
<!-- Node2 -->
<g id="node2" class="node">
<title>Node2</title>
<g id="a_node2"><a xlink:href="classpolyfem_1_1mesh_1_1_mesh_nodes.html#a903213db54bc95ef6308d03c0dce9a75" target="_top" xlink:title=" ">
<polygon fill="none" stroke="black" points="378,-333.5 378,-363.5 531,-363.5 531,-333.5 378,-333.5"/>
<text text-anchor="start" x="386" y="-351.5" font-family="Helvetica,sans-Serif" font-size="10.00">polyfem::mesh::MeshNodes</text>
<text text-anchor="middle" x="454.5" y="-340.5" font-family="Helvetica,sans-Serif" font-size="10.00">::boundary_nodes</text>
</a>
</g>
</g>
<!-- Node1&#45;&gt;Node2 -->
<g id="edge1" class="edge">
<title>Node1&#45;&gt;Node2</title>
<path fill="none" stroke="midnightblue" d="M629.99,-203.83C612.23,-236.03 576.71,-292.45 531,-324.5 526.16,-327.9 520.81,-330.83 515.27,-333.36"/>
<polygon fill="midnightblue" stroke="midnightblue" points="633.26,-205.14 634.92,-194.67 627.1,-201.82 633.26,-205.14"/>
</g>
<!-- Node3 -->
<g id="node3" class="node">
<title>Node3</title>
<g id="a_node3"><a xlink:href="classpolyfem_1_1mesh_1_1_mesh_nodes.html#a4e501d290a7a7180e21e249c5978909b" target="_top" xlink:title=" ">
<polygon fill="none" stroke="black" points="378,-284.5 378,-314.5 531,-314.5 531,-284.5 378,-284.5"/>
<text text-anchor="start" x="386" y="-302.5" font-family="Helvetica,sans-Serif" font-size="10.00">polyfem::mesh::MeshNodes</text>
<text text-anchor="middle" x="454.5" y="-291.5" font-family="Helvetica,sans-Serif" font-size="10.00">::cell_from_node_id</text>
</a>
</g>
</g>
<!-- Node1&#45;&gt;Node3 -->
<g id="edge2" class="edge">
<title>Node1&#45;&gt;Node3</title>
<path fill="none" stroke="midnightblue" d="M621.69,-202.07C600.68,-223.65 566.36,-255.76 531,-275.5 525,-278.85 518.46,-281.81 511.82,-284.4"/>
<polygon fill="midnightblue" stroke="midnightblue" points="624.42,-204.28 628.81,-194.63 619.37,-199.43 624.42,-204.28"/>
</g>
<!-- Node4 -->
<g id="node4" class="node">
<title>Node4</title>
<g id="a_node4"><a xlink:href="classpolyfem_1_1mesh_1_1_mesh_nodes.html#a56ccda7e48bcc4c20ea92db816560324" target="_top" xlink:title=" ">
<polygon fill="none" stroke="black" points="378,-235.5 378,-265.5 531,-265.5 531,-235.5 378,-235.5"/>
<text text-anchor="start" x="386" y="-253.5" font-family="Helvetica,sans-Serif" font-size="10.00">polyfem::mesh::MeshNodes</text>
<text text-anchor="middle" x="454.5" y="-242.5" font-family="Helvetica,sans-Serif" font-size="10.00">::MeshNodes</text>
</a>
</g>
</g>
<!-- Node1&#45;&gt;Node4 -->
<g id="edge3" class="edge">
<title>Node1&#45;&gt;Node4</title>
<path fill="none" stroke="midnightblue" d="M599.28,-198.8C578.76,-207.68 553.8,-218.09 531,-226.5 522.74,-229.55 513.89,-232.57 505.27,-235.39"/>
<polygon fill="midnightblue" stroke="midnightblue" points="600.89,-201.92 608.66,-194.71 598.1,-195.5 600.89,-201.92"/>
</g>
<!-- Node5 -->
<g id="node5" class="node">
<title>Node5</title>
<g id="a_node5"><a xlink:href="classpolyfem_1_1mesh_1_1_mesh_nodes.html#a0f09e10c3915a40fcb82b1779f7791e1" target="_top" xlink:title=" ">
<polygon fill="none" stroke="black" points="378,-186.5 378,-216.5 531,-216.5 531,-186.5 378,-186.5"/>
<text text-anchor="start" x="386" y="-204.5" font-family="Helvetica,sans-Serif" font-size="10.00">polyfem::mesh::MeshNodes</text>
<text text-anchor="middle" x="454.5" y="-193.5" font-family="Helvetica,sans-Serif" font-size="10.00">::node_id_from_primitive</text>
</a>
</g>
</g>
<!-- Node1&#45;&gt;Node5 -->
<g id="edge4" class="edge">
<title>Node1&#45;&gt;Node5</title>
<path fill="none" stroke="midnightblue" d="M556.98,-189.56C548.42,-190.57 539.76,-191.59 531.3,-192.58"/>
<polygon fill="midnightblue" stroke="midnightblue" points="557.46,-193.03 566.98,-188.38 556.64,-186.08 557.46,-193.03"/>
</g>
<!-- Node7 -->
<g id="node7" class="node">
<title>Node7</title>
<g id="a_node7"><a xlink:href="classpolyfem_1_1mesh_1_1_mesh_nodes.html#a4baf697b2269357b504251d2a806a35e" target="_top" xlink:title=" ">
<polygon fill="none" stroke="black" points="0,-237.5 0,-267.5 153,-267.5 153,-237.5 0,-237.5"/>
<text text-anchor="start" x="8" y="-255.5" font-family="Helvetica,sans-Serif" font-size="10.00">polyfem::mesh::MeshNodes</text>
<text text-anchor="middle" x="76.5" y="-244.5" font-family="Helvetica,sans-Serif" font-size="10.00">::node_ids_from_cell</text>
</a>
</g>
</g>
<!-- Node1&#45;&gt;Node7 -->
<g id="edge10" class="edge">
<title>Node1&#45;&gt;Node7</title>
<path fill="none" stroke="midnightblue" d="M556.74,-163.88C463.85,-150.38 312.41,-138.44 189,-176.5 150.27,-188.44 112.97,-218.95 92.85,-237.48"/>
<polygon fill="midnightblue" stroke="midnightblue" points="556.24,-167.34 566.65,-165.36 557.28,-160.42 556.24,-167.34"/>
</g>
<!-- Node11 -->
<g id="node11" class="node">
<title>Node11</title>
<g id="a_node11"><a xlink:href="classpolyfem_1_1mesh_1_1_mesh_nodes.html#ad7a06c47bd84bd00942eeef3f34212ca" target="_top" xlink:title=" ">
<polygon fill="none" stroke="black" points="378,-98.5 378,-128.5 531,-128.5 531,-98.5 378,-98.5"/>
<text text-anchor="start" x="386" y="-116.5" font-family="Helvetica,sans-Serif" font-size="10.00">polyfem::mesh::MeshNodes</text>
<text text-anchor="middle" x="454.5" y="-105.5" font-family="Helvetica,sans-Serif" font-size="10.00">::node_ids_from_edge</text>
</a>
</g>
</g>
<!-- Node1&#45;&gt;Node11 -->
<g id="edge11" class="edge">
<title>Node1&#45;&gt;Node11</title>
<path fill="none" stroke="midnightblue" d="M590.04,-160.98C561.04,-150.75 525.48,-138.2 498.2,-128.57"/>
<polygon fill="midnightblue" stroke="midnightblue" points="589,-164.33 599.6,-164.36 591.33,-157.73 589,-164.33"/>
</g>
<!-- Node12 -->
<g id="node12" class="node">
<title>Node12</title>
<g id="a_node12"><a xlink:href="classpolyfem_1_1mesh_1_1_mesh_nodes.html#a4987079164cbcee409ad560cf5d6fdcc" target="_top" xlink:title=" ">
<polygon fill="none" stroke="black" points="378,-49.5 378,-79.5 531,-79.5 531,-49.5 378,-49.5"/>
<text text-anchor="start" x="386" y="-67.5" font-family="Helvetica,sans-Serif" font-size="10.00">polyfem::mesh::MeshNodes</text>
<text text-anchor="middle" x="454.5" y="-56.5" font-family="Helvetica,sans-Serif" font-size="10.00">::node_ids_from_face</text>
</a>
</g>
</g>
<!-- Node1&#45;&gt;Node12 -->
<g id="edge12" class="edge">
<title>Node1&#45;&gt;Node12</title>
<path fill="none" stroke="midnightblue" d="M620.39,-157.13C599.12,-136.73 565.25,-107.04 531,-88.5 524.83,-85.16 518.12,-82.2 511.34,-79.6"/>
<polygon fill="midnightblue" stroke="midnightblue" points="618.02,-159.71 627.63,-164.19 622.91,-154.7 618.02,-159.71"/>
</g>
<!-- Node13 -->
<g id="node13" class="node">
<title>Node13</title>
<g id="a_node13"><a xlink:href="classpolyfem_1_1mesh_1_1_mesh_nodes.html#a71ba2fe8f44d95dc202a74a86a4026c3" target="_top" xlink:title=" ">
<polygon fill="none" stroke="black" points="378,-0.5 378,-30.5 531,-30.5 531,-0.5 378,-0.5"/>
<text text-anchor="start" x="386" y="-18.5" font-family="Helvetica,sans-Serif" font-size="10.00">polyfem::mesh::MeshNodes</text>
<text text-anchor="middle" x="454.5" y="-7.5" font-family="Helvetica,sans-Serif" font-size="10.00">::num_cell_nodes</text>
</a>
</g>
</g>
<!-- Node1&#45;&gt;Node13 -->
<g id="edge13" class="edge">
<title>Node1&#45;&gt;Node13</title>
<path fill="none" stroke="midnightblue" d="M629.5,-155.53C611.41,-124.38 575.76,-70.32 531,-39.5 526.02,-36.07 520.51,-33.11 514.82,-30.56"/>
<polygon fill="midnightblue" stroke="midnightblue" points="626.56,-157.45 634.54,-164.42 632.65,-153.99 626.56,-157.45"/>
</g>
<!-- Node6 -->
<g id="node6" class="node">
<title>Node6</title>
<g id="a_node6"><a xlink:href="classpolyfem_1_1mesh_1_1_mesh_nodes.html#a597d9bffce941c3f4f7f42a78679efb5" target="_top" xlink:title=" ">
<polygon fill="none" stroke="black" points="189,-333.5 189,-363.5 342,-363.5 342,-333.5 189,-333.5"/>
<text text-anchor="start" x="197" y="-351.5" font-family="Helvetica,sans-Serif" font-size="10.00">polyfem::mesh::MeshNodes</text>
<text text-anchor="middle" x="265.5" y="-340.5" font-family="Helvetica,sans-Serif" font-size="10.00">::node_id_from_cell</text>
</a>
</g>
</g>
<!-- Node5&#45;&gt;Node6 -->
<g id="edge5" class="edge">
<title>Node5&#45;&gt;Node6</title>
<path fill="none" stroke="midnightblue" d="M382.7,-222.42C381.06,-223.7 379.49,-225.06 378,-226.5 344.66,-258.78 375.53,-292.42 342,-324.5 338.42,-327.92 334.36,-330.86 330.01,-333.37"/>
<polygon fill="midnightblue" stroke="midnightblue" points="385.02,-225.09 391.43,-216.65 381.16,-219.25 385.02,-225.09"/>
</g>
<!-- Node8 -->
<g id="node8" class="node">
<title>Node8</title>
<g id="a_node8"><a xlink:href="classpolyfem_1_1mesh_1_1_mesh_nodes.html#aa61fd19e3fdc208d01cf5e6ffdf2e23b" target="_top" xlink:title=" ">
<polygon fill="none" stroke="black" points="189,-284.5 189,-314.5 342,-314.5 342,-284.5 189,-284.5"/>
<text text-anchor="start" x="197" y="-302.5" font-family="Helvetica,sans-Serif" font-size="10.00">polyfem::mesh::MeshNodes</text>
<text text-anchor="middle" x="265.5" y="-291.5" font-family="Helvetica,sans-Serif" font-size="10.00">::node_id_from_edge</text>
</a>
</g>
</g>
<!-- Node5&#45;&gt;Node8 -->
<g id="edge7" class="edge">
<title>Node5&#45;&gt;Node8</title>
<path fill="none" stroke="midnightblue" d="M386.02,-221.34C383.23,-222.93 380.54,-224.65 378,-226.5 356.14,-242.39 363.96,-259.74 342,-275.5 337.2,-278.95 331.87,-281.92 326.35,-284.47"/>
<polygon fill="midnightblue" stroke="midnightblue" points="387.88,-224.32 395.2,-216.65 384.7,-218.08 387.88,-224.32"/>
</g>
<!-- Node9 -->
<g id="node9" class="node">
<title>Node9</title>
<g id="a_node9"><a xlink:href="classpolyfem_1_1mesh_1_1_mesh_nodes.html#a8e3a91225f0eb6ae9475908f195ec8c2" target="_top" xlink:title=" ">
<polygon fill="none" stroke="black" points="189,-235.5 189,-265.5 342,-265.5 342,-235.5 189,-235.5"/>
<text text-anchor="start" x="197" y="-253.5" font-family="Helvetica,sans-Serif" font-size="10.00">polyfem::mesh::MeshNodes</text>
<text text-anchor="middle" x="265.5" y="-242.5" font-family="Helvetica,sans-Serif" font-size="10.00">::node_id_from_face</text>
</a>
</g>
</g>
<!-- Node5&#45;&gt;Node9 -->
<g id="edge8" class="edge">
<title>Node5&#45;&gt;Node9</title>
<path fill="none" stroke="midnightblue" d="M386.25,-219.12C365.79,-224.48 343.5,-230.32 323.77,-235.49"/>
<polygon fill="midnightblue" stroke="midnightblue" points="387.34,-222.46 396.12,-216.53 385.56,-215.68 387.34,-222.46"/>
</g>
<!-- Node10 -->
<g id="node10" class="node">
<title>Node10</title>
<g id="a_node10"><a xlink:href="classpolyfem_1_1mesh_1_1_mesh_nodes.html#a6804a79d2c2257831209b64a174c4a17" target="_top" xlink:title=" ">
<polygon fill="none" stroke="black" points="189,-186.5 189,-216.5 342,-216.5 342,-186.5 189,-186.5"/>
<text text-anchor="start" x="197" y="-204.5" font-family="Helvetica,sans-Serif" font-size="10.00">polyfem::mesh::MeshNodes</text>
<text text-anchor="middle" x="265.5" y="-193.5" font-family="Helvetica,sans-Serif" font-size="10.00">::node_id_from_vertex</text>
</a>
</g>
</g>
<!-- Node5&#45;&gt;Node10 -->
<g id="edge9" class="edge">
<title>Node5&#45;&gt;Node10</title>
<path fill="none" stroke="midnightblue" d="M367.7,-201.5C359.23,-201.5 350.67,-201.5 342.3,-201.5"/>
<polygon fill="midnightblue" stroke="midnightblue" points="367.98,-205 377.98,-201.5 367.98,-198 367.98,-205"/>
</g>
<!-- Node6&#45;&gt;Node7 -->
<g id="edge6" class="edge">
<title>Node6&#45;&gt;Node7</title>
<path fill="none" stroke="midnightblue" d="M201.54,-329.9C197.24,-328.2 193.03,-326.4 189,-324.5 155.03,-308.48 119.11,-283.67 97.5,-267.76"/>
<polygon fill="midnightblue" stroke="midnightblue" points="200.42,-333.22 211.01,-333.46 202.88,-326.67 200.42,-333.22"/>
</g>
</g>
</svg>
        <g id="navigator" transform="translate(0 0)" fill="#404254">
                <rect fill="#f2f5e9" fill-opacity="0.5" stroke="#606060" stroke-width=".5" x="0" y="0" width="60" height="60"/>
                <use id="zoomplus" xlink:href="#zoomPlus" x="17" y="9" onmousedown="handleZoom(evt,'in')"/>
                <use id="zoomminus" xlink:href="#zoomMin" x="42" y="9" onmousedown="handleZoom(evt,'out')"/>
                <use id="reset" xlink:href="#resetDef" x="30" y="36" onmousedown="handleReset()"/>
                <g id="arrowUp" xlink:href="#dirArrow" transform="translate(30 24)" onmousedown="handlePan(0,-1)">
                  <use xlink:href="#rim" fill="#404040">
                        <set attributeName="fill" to="#808080" begin="arrowUp.mouseover" end="arrowUp.mouseout"/>
                  </use>
                  <path fill="none" stroke="white" stroke-width="1.5" d="M0,-3.0v7 M-2.5,-0.5L0,-3.0L2.5,-0.5"/>
                </g>
                <g id="arrowRight" xlink:href="#dirArrow" transform="rotate(90) translate(36 -43)" onmousedown="handlePan(1,0)">
                  <use xlink:href="#rim" fill="#404040">
                        <set attributeName="fill" to="#808080" begin="arrowRight.mouseover" end="arrowRight.mouseout"/>
                  </use>
                  <path fill="none" stroke="white" stroke-width="1.5" d="M0,-3.0v7 M-2.5,-0.5L0,-3.0L2.5,-0.5"/>
                </g>
                <g id="arrowDown" xlink:href="#dirArrow" transform="rotate(180) translate(-30 -48)" onmousedown="handlePan(0,1)">
                  <use xlink:href="#rim" fill="#404040">
                        <set attributeName="fill" to="#808080" begin="arrowDown.mouseover" end="arrowDown.mouseout"/>
                  </use>
                  <path fill="none" stroke="white" stroke-width="1.5" d="M0,-3.0v7 M-2.5,-0.5L0,-3.0L2.5,-0.5"/>
                </g>
                <g id="arrowLeft" xlink:href="#dirArrow" transform="rotate(270) translate(-36 17)" onmousedown="handlePan(-1,0)">
                  <use xlink:href="#rim" fill="#404040">
                        <set attributeName="fill" to="#808080" begin="arrowLeft.mouseover" end="arrowLeft.mouseout"/>
                  </use>
                  <path fill="none" stroke="white" stroke-width="1.5" d="M0,-3.0v7 M-2.5,-0.5L0,-3.0L2.5,-0.5"/>
                </g>
        </g>
        <svg viewBox="0 0 15 15" width="100%" height="30px" preserveAspectRatio="xMaxYMin meet">
         <g id="arrow_out" transform="scale(0.3 0.3)">
          <a xlink:href="classpolyfem_1_1mesh_1_1_mesh_nodes_a8e222f339075e91de499bb7e5a8c11e5_icgraph_org.svg" target="_base">
           <rect id="button" ry="5" rx="5" y="6" x="6" height="38" width="38"
                fill="#f2f5e9" fill-opacity="0.5" stroke="#606060" stroke-width="1.0"/>
           <path id="arrow"
             d="M 11.500037,31.436501 C 11.940474,20.09759 22.043105,11.32322 32.158766,21.979434 L 37.068811,17.246167 C 37.068811,17.246167 37.088388,32 37.088388,32 L 22.160133,31.978069 C 22.160133,31.978069 26.997745,27.140456 26.997745,27.140456 C 18.528582,18.264221 13.291696,25.230495 11.500037,31.436501 z"
             style="fill:#404040;"/>
          </a>
         </g>
        </svg>
</svg>
