<?xml version="1.0" encoding="UTF-8" standalone="no"?>
<!DOCTYPE svg PUBLIC "-//W3C//DTD SVG 1.1//EN"
 "http://www.w3.org/Graphics/SVG/1.1/DTD/svg11.dtd">
<!-- Generated by graphviz version 2.43.0 (0)
 -->
<!-- Title: polyfem::State::sol_to_pressure Pages: 1 -->
<svg width="605pt" height="186pt"
 viewBox="0.00 0.00 605.00 186.00" xmlns="http://www.w3.org/2000/svg" xmlns:xlink="http://www.w3.org/1999/xlink">
<g id="graph0" class="graph" transform="scale(1 1) rotate(0) translate(4 182)">
<title>polyfem::State::sol_to_pressure</title>
<!-- Node1 -->
<g id="node1" class="node">
<title>Node1</title>
<g id="a_node1"><a xlink:title="splits the solution in solution and pressure for mixed problems">
<polygon fill="#bfbfbf" stroke="black" points="488,-73.5 488,-103.5 597,-103.5 597,-73.5 488,-73.5"/>
<text text-anchor="start" x="496" y="-91.5" font-family="Helvetica,sans-Serif" font-size="10.00">polyfem::State::sol</text>
<text text-anchor="middle" x="542.5" y="-80.5" font-family="Helvetica,sans-Serif" font-size="10.00">_to_pressure</text>
</a>
</g>
</g>
<!-- Node2 -->
<g id="node2" class="node">
<title>Node2</title>
<g id="a_node2"><a xlink:href="classpolyfem_1_1_state.html#ac5c4dd2be369c759c68e0a36a45bfcc7" target="_top" xlink:title="initialize solver">
<polygon fill="none" stroke="black" points="328,-147.5 328,-177.5 438,-177.5 438,-147.5 328,-147.5"/>
<text text-anchor="start" x="336" y="-165.5" font-family="Helvetica,sans-Serif" font-size="10.00">polyfem::State::init</text>
<text text-anchor="middle" x="383" y="-154.5" font-family="Helvetica,sans-Serif" font-size="10.00">_solve</text>
</a>
</g>
</g>
<!-- Node1&#45;&gt;Node2 -->
<g id="edge1" class="edge">
<title>Node1&#45;&gt;Node2</title>
<path fill="none" stroke="midnightblue" d="M508.25,-108.85C491.69,-118.53 471.16,-129.84 452,-138.5 445.04,-141.64 437.54,-144.65 430.14,-147.41"/>
<polygon fill="midnightblue" stroke="midnightblue" points="510.19,-111.78 517.01,-103.67 506.62,-105.75 510.19,-111.78"/>
</g>
<!-- Node5 -->
<g id="node5" class="node">
<title>Node5</title>
<g id="a_node5"><a xlink:href="classpolyfem_1_1_state.html#ac37bfaa0b218fbf4a3caea64a7f695cb" target="_top" xlink:title="Solve the linear problem with the given solver and system.">
<polygon fill="none" stroke="black" points="322.5,-98.5 322.5,-128.5 443.5,-128.5 443.5,-98.5 322.5,-98.5"/>
<text text-anchor="start" x="330.5" y="-116.5" font-family="Helvetica,sans-Serif" font-size="10.00">polyfem::State::solve</text>
<text text-anchor="middle" x="383" y="-105.5" font-family="Helvetica,sans-Serif" font-size="10.00">_linear</text>
</a>
</g>
</g>
<!-- Node1&#45;&gt;Node5 -->
<g id="edge4" class="edge">
<title>Node1&#45;&gt;Node5</title>
<path fill="none" stroke="midnightblue" d="M477.6,-98.64C466.41,-100.42 454.81,-102.26 443.73,-104.02"/>
<polygon fill="midnightblue" stroke="midnightblue" points="478.41,-102.06 487.74,-97.03 477.31,-95.14 478.41,-102.06"/>
</g>
<!-- Node6 -->
<g id="node6" class="node">
<title>Node6</title>
<g id="a_node6"><a xlink:href="classpolyfem_1_1_state.html#a76dfcaee0e24beeab2fda9449f404fe5" target="_top" xlink:title="solves a navier stokes">
<polygon fill="none" stroke="black" points="322.5,-49.5 322.5,-79.5 443.5,-79.5 443.5,-49.5 322.5,-49.5"/>
<text text-anchor="start" x="330.5" y="-67.5" font-family="Helvetica,sans-Serif" font-size="10.00">polyfem::State::solve</text>
<text text-anchor="middle" x="383" y="-56.5" font-family="Helvetica,sans-Serif" font-size="10.00">_navier_stokes</text>
</a>
</g>
</g>
<!-- Node1&#45;&gt;Node6 -->
<g id="edge5" class="edge">
<title>Node1&#45;&gt;Node6</title>
<path fill="none" stroke="midnightblue" d="M477.6,-78.76C466.41,-77.06 454.81,-75.29 443.73,-73.6"/>
<polygon fill="midnightblue" stroke="midnightblue" points="477.32,-82.26 487.74,-80.31 478.38,-75.34 477.32,-82.26"/>
</g>
<!-- Node7 -->
<g id="node7" class="node">
<title>Node7</title>
<g id="a_node7"><a xlink:href="classpolyfem_1_1_state.html#ac42074a324e693f8eef5d7a96a56dc38" target="_top" xlink:title="solves transient navier stokes with FEM">
<polygon fill="none" stroke="black" points="314,-0.5 314,-30.5 452,-30.5 452,-0.5 314,-0.5"/>
<text text-anchor="start" x="322" y="-18.5" font-family="Helvetica,sans-Serif" font-size="10.00">polyfem::State::solve</text>
<text text-anchor="middle" x="383" y="-7.5" font-family="Helvetica,sans-Serif" font-size="10.00">_transient_navier_stokes</text>
</a>
</g>
</g>
<!-- Node1&#45;&gt;Node7 -->
<g id="edge7" class="edge">
<title>Node1&#45;&gt;Node7</title>
<path fill="none" stroke="midnightblue" d="M506.58,-68.31C490.27,-59.25 470.42,-48.78 452,-40.5 444.31,-37.05 435.99,-33.69 427.9,-30.61"/>
<polygon fill="midnightblue" stroke="midnightblue" points="505.31,-71.61 515.74,-73.44 508.74,-65.5 505.31,-71.61"/>
</g>
<!-- Node3 -->
<g id="node3" class="node">
<title>Node3</title>
<g id="a_node3"><a xlink:href="classpolyfem_1_1_state.html#a7450ef7c42dd9c523e1be73a5819117d" target="_top" xlink:title="solves the problems">
<polygon fill="none" stroke="black" points="157,-49.5 157,-79.5 278,-79.5 278,-49.5 157,-49.5"/>
<text text-anchor="start" x="165" y="-67.5" font-family="Helvetica,sans-Serif" font-size="10.00">polyfem::State::solve</text>
<text text-anchor="middle" x="217.5" y="-56.5" font-family="Helvetica,sans-Serif" font-size="10.00">_problem</text>
</a>
</g>
</g>
<!-- Node2&#45;&gt;Node3 -->
<g id="edge2" class="edge">
<title>Node2&#45;&gt;Node3</title>
<path fill="none" stroke="midnightblue" d="M324.02,-143.49C320.58,-141.92 317.21,-140.25 314,-138.5 283.62,-121.93 252.73,-95.98 234.6,-79.62"/>
<polygon fill="midnightblue" stroke="midnightblue" points="322.68,-146.72 333.25,-147.44 325.43,-140.29 322.68,-146.72"/>
</g>
<!-- Node4 -->
<g id="node4" class="node">
<title>Node4</title>
<g id="a_node4"><a xlink:href="classpolyfem_1_1_state.html#a219f9935d918f739d82488449bd4cbf4" target="_top" xlink:title="solves the problem, call other methods">
<polygon fill="none" stroke="black" points="0,-55 0,-74 121,-74 121,-55 0,-55"/>
<text text-anchor="middle" x="60.5" y="-62" font-family="Helvetica,sans-Serif" font-size="10.00">polyfem::State::solve</text>
</a>
</g>
</g>
<!-- Node3&#45;&gt;Node4 -->
<g id="edge3" class="edge">
<title>Node3&#45;&gt;Node4</title>
<path fill="none" stroke="midnightblue" d="M146.34,-64.5C137.88,-64.5 129.3,-64.5 121.01,-64.5"/>
<polygon fill="midnightblue" stroke="midnightblue" points="146.57,-68 156.57,-64.5 146.57,-61 146.57,-68"/>
</g>
<!-- Node6&#45;&gt;Node3 -->
<g id="edge6" class="edge">
<title>Node6&#45;&gt;Node3</title>
<path fill="none" stroke="midnightblue" d="M311.85,-64.5C300.63,-64.5 289.12,-64.5 278.17,-64.5"/>
<polygon fill="midnightblue" stroke="midnightblue" points="312.05,-68 322.05,-64.5 312.05,-61 312.05,-68"/>
</g>
<!-- Node7&#45;&gt;Node3 -->
<g id="edge8" class="edge">
<title>Node7&#45;&gt;Node3</title>
<path fill="none" stroke="midnightblue" d="M321.56,-33.61C304.18,-38.82 285.42,-44.45 268.72,-49.45"/>
<polygon fill="midnightblue" stroke="midnightblue" points="323.04,-36.82 331.61,-30.6 321.03,-30.12 323.04,-36.82"/>
</g>
</g>
</svg>
