<?xml version="1.0" encoding="UTF-8" standalone="no"?>
<!DOCTYPE svg PUBLIC "-//W3C//DTD SVG 1.1//EN"
 "http://www.w3.org/Graphics/SVG/1.1/DTD/svg11.dtd">
<!-- Generated by graphviz version 2.43.0 (0)
 -->
<!-- Title: polyfem::solver::ContactForm::barrier_stiffness Pages: 1 -->
<svg width="538pt" height="282pt"
 viewBox="0.00 0.00 538.00 282.00" xmlns="http://www.w3.org/2000/svg" xmlns:xlink="http://www.w3.org/1999/xlink">
<g id="graph0" class="graph" transform="scale(1 1) rotate(0) translate(4 278)">
<title>polyfem::solver::ContactForm::barrier_stiffness</title>
<!-- Node1 -->
<g id="Node000001" class="node">
<title>Node1</title>
<g id="a_Node000001"><a xlink:title="Get the current barrier stiffness.">
<polygon fill="#999999" stroke="#666666" points="530,-154 393,-154 393,-124 530,-124 530,-154"/>
<text text-anchor="start" x="401" y="-142" font-family="Helvetica,sans-Serif" font-size="10.00">polyfem::solver::Contact</text>
<text text-anchor="middle" x="461.5" y="-131" font-family="Helvetica,sans-Serif" font-size="10.00">Form::barrier_stiffness</text>
</a>
</g>
</g>
<!-- Node2 -->
<g id="Node000002" class="node">
<title>Node2</title>
<g id="a_Node000002"><a xlink:href="classpolyfem_1_1solver_1_1_friction_form.html#ad3f3eec0ef4782b54b67ea2c937f1c23" target="_top" xlink:title=" ">
<polygon fill="white" stroke="#666666" points="355,-274 194,-274 194,-244 355,-244 355,-274"/>
<text text-anchor="start" x="202" y="-262" font-family="Helvetica,sans-Serif" font-size="10.00">polyfem::solver::Friction</text>
<text text-anchor="middle" x="274.5" y="-251" font-family="Helvetica,sans-Serif" font-size="10.00">Form::force_shape_derivative</text>
</a>
</g>
</g>
<!-- Node1&#45;&gt;Node2 -->
<g id="edge1_Node000001_Node000002" class="edge">
<title>Node1&#45;&gt;Node2</title>
<g id="a_edge1_Node000001_Node000002"><a xlink:title=" ">
<path fill="none" stroke="#63b8ff" d="M441.35,-162.09C422.13,-183.84 390.63,-215.88 357,-235 350.97,-238.43 344.41,-241.4 337.72,-243.98"/>
<polygon fill="#63b8ff" stroke="#63b8ff" points="444.19,-164.15 448.09,-154.3 438.9,-159.57 444.19,-164.15"/>
</a>
</g>
</g>
<!-- Node3 -->
<g id="Node000003" class="node">
<title>Node3</title>
<g id="a_Node000003"><a xlink:href="classpolyfem_1_1solver_1_1_contact_form.html#a1bb2fcbb49ac3743415c87722b36113b" target="_top" xlink:title=" ">
<polygon fill="white" stroke="#666666" points="355,-226 194,-226 194,-196 355,-196 355,-226"/>
<text text-anchor="start" x="202" y="-214" font-family="Helvetica,sans-Serif" font-size="10.00">polyfem::solver::Contact</text>
<text text-anchor="middle" x="274.5" y="-203" font-family="Helvetica,sans-Serif" font-size="10.00">Form::force_shape_derivative</text>
</a>
</g>
</g>
<!-- Node1&#45;&gt;Node3 -->
<g id="edge2_Node000001_Node000003" class="edge">
<title>Node1&#45;&gt;Node3</title>
<g id="a_edge2_Node000001_Node000003"><a xlink:title=" ">
<path fill="none" stroke="#63b8ff" d="M422.05,-158.48C402.81,-167.81 378.98,-178.72 357,-187 348.58,-190.17 339.55,-193.2 330.67,-195.96"/>
<polygon fill="#63b8ff" stroke="#63b8ff" points="423.66,-161.59 431.11,-154.05 420.59,-155.31 423.66,-161.59"/>
</a>
</g>
</g>
<!-- Node4 -->
<g id="Node000004" class="node">
<title>Node4</title>
<g id="a_Node000004"><a xlink:href="classpolyfem_1_1solver_1_1_contact_form.html#a452270c6eee7f24125879759cca9f760" target="_top" xlink:title="Update fields after a step in the optimization.">
<polygon fill="white" stroke="#666666" points="343,-178 206,-178 206,-148 343,-148 343,-178"/>
<text text-anchor="start" x="214" y="-166" font-family="Helvetica,sans-Serif" font-size="10.00">polyfem::solver::Contact</text>
<text text-anchor="middle" x="274.5" y="-155" font-family="Helvetica,sans-Serif" font-size="10.00">Form::post_step</text>
</a>
</g>
</g>
<!-- Node1&#45;&gt;Node4 -->
<g id="edge3_Node000001_Node000004" class="edge">
<title>Node1&#45;&gt;Node4</title>
<g id="a_edge3_Node000001_Node000004"><a xlink:title=" ">
<path fill="none" stroke="#63b8ff" d="M382.93,-149.06C369.73,-150.78 356.12,-152.54 343.2,-154.22"/>
<polygon fill="#63b8ff" stroke="#63b8ff" points="383.46,-152.52 392.93,-147.77 382.56,-145.58 383.46,-152.52"/>
</a>
</g>
</g>
<!-- Node6 -->
<g id="Node000006" class="node">
<title>Node6</title>
<g id="a_Node000006"><a xlink:href="classpolyfem_1_1solver_1_1_contact_form.html#a44dd877b057218dfa5672095da50b24e" target="_top" xlink:title="Get the current barrier stiffness.">
<polygon fill="white" stroke="#666666" points="347.5,-130 201.5,-130 201.5,-100 347.5,-100 347.5,-130"/>
<text text-anchor="start" x="209.5" y="-118" font-family="Helvetica,sans-Serif" font-size="10.00">polyfem::solver::Contact</text>
<text text-anchor="middle" x="274.5" y="-107" font-family="Helvetica,sans-Serif" font-size="10.00">Form::set_barrier_stiffness</text>
</a>
</g>
</g>
<!-- Node1&#45;&gt;Node6 -->
<g id="edge5_Node000001_Node000006" class="edge">
<title>Node1&#45;&gt;Node6</title>
<g id="a_edge5_Node000001_Node000006"><a xlink:title=" ">
<path fill="none" stroke="#63b8ff" d="M382.77,-128.92C371.1,-127.4 359.11,-125.85 347.56,-124.35"/>
<polygon fill="#63b8ff" stroke="#63b8ff" points="382.56,-132.42 392.93,-130.23 383.46,-125.48 382.56,-132.42"/>
</a>
</g>
</g>
<!-- Node7 -->
<g id="Node000007" class="node">
<title>Node7</title>
<g id="a_Node000007"><a xlink:href="classpolyfem_1_1solver_1_1_contact_form.html#ab7f5b55a31f0829c3ae3002b1b1959a7" target="_top" xlink:title="Update the barrier stiffness based on the current elasticity energy.">
<polygon fill="white" stroke="#666666" points="357,-82 192,-82 192,-52 357,-52 357,-82"/>
<text text-anchor="start" x="200" y="-70" font-family="Helvetica,sans-Serif" font-size="10.00">polyfem::solver::Contact</text>
<text text-anchor="middle" x="274.5" y="-59" font-family="Helvetica,sans-Serif" font-size="10.00">Form::update_barrier_stiffness</text>
</a>
</g>
</g>
<!-- Node1&#45;&gt;Node7 -->
<g id="edge6_Node000001_Node000007" class="edge">
<title>Node1&#45;&gt;Node7</title>
<g id="a_edge6_Node000001_Node000007"><a xlink:title=" ">
<path fill="none" stroke="#63b8ff" d="M422.05,-119.52C402.81,-110.19 378.98,-99.28 357,-91 348.58,-87.83 339.55,-84.8 330.67,-82.04"/>
<polygon fill="#63b8ff" stroke="#63b8ff" points="420.59,-122.69 431.11,-123.95 423.66,-116.41 420.59,-122.69"/>
</a>
</g>
</g>
<!-- Node9 -->
<g id="Node000009" class="node">
<title>Node9</title>
<g id="a_Node000009"><a xlink:href="classpolyfem_1_1solver_1_1_friction_form.html#a2d39d4abbf850fbe702a89befd07da70" target="_top" xlink:title="Update lagged fields.">
<polygon fill="white" stroke="#666666" points="342,-33 207,-33 207,-3 342,-3 342,-33"/>
<text text-anchor="start" x="215" y="-21" font-family="Helvetica,sans-Serif" font-size="10.00">polyfem::solver::Friction</text>
<text text-anchor="middle" x="274.5" y="-10" font-family="Helvetica,sans-Serif" font-size="10.00">Form::update_lagging</text>
</a>
</g>
</g>
<!-- Node1&#45;&gt;Node9 -->
<g id="edge8_Node000001_Node000009" class="edge">
<title>Node1&#45;&gt;Node9</title>
<g id="a_edge8_Node000001_Node000009"><a xlink:title=" ">
<path fill="none" stroke="#63b8ff" d="M441.3,-116C422.05,-94.3 390.52,-62.31 357,-43 350.33,-39.16 343.01,-35.84 335.57,-33.01"/>
<polygon fill="#63b8ff" stroke="#63b8ff" points="438.85,-118.51 448.06,-123.76 444.13,-113.92 438.85,-118.51"/>
</a>
</g>
</g>
<!-- Node5 -->
<g id="Node000005" class="node">
<title>Node5</title>
<g id="a_Node000005"><a xlink:href="classpolyfem_1_1solver_1_1_periodic_contact_form.html#a3fb92cf33c43544ec3d89252409466fc" target="_top" xlink:title="Update fields after a step in the optimization.">
<polygon fill="white" stroke="#666666" points="147,-178 9,-178 9,-148 147,-148 147,-178"/>
<text text-anchor="start" x="17" y="-166" font-family="Helvetica,sans-Serif" font-size="10.00">polyfem::solver::Periodic</text>
<text text-anchor="middle" x="78" y="-155" font-family="Helvetica,sans-Serif" font-size="10.00">ContactForm::post_step</text>
</a>
</g>
</g>
<!-- Node4&#45;&gt;Node5 -->
<g id="edge4_Node000004_Node000005" class="edge">
<title>Node4&#45;&gt;Node5</title>
<g id="a_edge4_Node000004_Node000005"><a xlink:title=" ">
<path fill="none" stroke="#63b8ff" d="M195.38,-163C179.42,-163 162.75,-163 147.17,-163"/>
<polygon fill="#63b8ff" stroke="#63b8ff" points="195.75,-166.5 205.75,-163 195.75,-159.5 195.75,-166.5"/>
</a>
</g>
</g>
<!-- Node8 -->
<g id="Node000008" class="node">
<title>Node8</title>
<g id="a_Node000008"><a xlink:href="classpolyfem_1_1solver_1_1_periodic_contact_form.html#aec8495c08075636045656651fc2ff96f" target="_top" xlink:title="Update the barrier stiffness based on the current elasticity energy.">
<polygon fill="white" stroke="#666666" points="156,-89.5 0,-89.5 0,-48.5 156,-48.5 156,-89.5"/>
<text text-anchor="start" x="8" y="-77.5" font-family="Helvetica,sans-Serif" font-size="10.00">polyfem::solver::Periodic</text>
<text text-anchor="start" x="8" y="-66.5" font-family="Helvetica,sans-Serif" font-size="10.00">ContactForm::update_barrier</text>
<text text-anchor="middle" x="78" y="-55.5" font-family="Helvetica,sans-Serif" font-size="10.00">_stiffness</text>
</a>
</g>
</g>
<!-- Node7&#45;&gt;Node8 -->
<g id="edge7_Node000007_Node000008" class="edge">
<title>Node7&#45;&gt;Node8</title>
<g id="a_edge7_Node000007_Node000008"><a xlink:title=" ">
<path fill="none" stroke="#63b8ff" d="M181.8,-67.94C173.2,-68.03 164.53,-68.12 156.08,-68.21"/>
<polygon fill="#63b8ff" stroke="#63b8ff" points="181.9,-71.44 191.86,-67.84 181.82,-64.44 181.9,-71.44"/>
</a>
</g>
</g>
<!-- Node10 -->
<g id="Node000010" class="node">
<title>Node10</title>
<g id="a_Node000010"><a xlink:href="classpolyfem_1_1solver_1_1_friction_form.html#a13496c772de23a6a34114dc4a6a725df" target="_top" xlink:title="Initialize lagged fields.">
<polygon fill="white" stroke="#666666" points="145.5,-30 10.5,-30 10.5,0 145.5,0 145.5,-30"/>
<text text-anchor="start" x="18.5" y="-18" font-family="Helvetica,sans-Serif" font-size="10.00">polyfem::solver::Friction</text>
<text text-anchor="middle" x="78" y="-7" font-family="Helvetica,sans-Serif" font-size="10.00">Form::init_lagging</text>
</a>
</g>
</g>
<!-- Node9&#45;&gt;Node10 -->
<g id="edge9_Node000009_Node000010" class="edge">
<title>Node9&#45;&gt;Node10</title>
<g id="a_edge9_Node000009_Node000010"><a xlink:title=" ">
<path fill="none" stroke="#63b8ff" d="M196.48,-16.81C179.65,-16.55 161.96,-16.28 145.58,-16.03"/>
<polygon fill="#63b8ff" stroke="#63b8ff" points="196.78,-20.32 206.84,-16.97 196.89,-13.32 196.78,-20.32"/>
</a>
</g>
</g>
</g>
</svg>
