<?xml version="1.0" encoding="UTF-8" standalone="no"?>
<!DOCTYPE svg PUBLIC "-//W3C//DTD SVG 1.1//EN"
 "http://www.w3.org/Graphics/SVG/1.1/DTD/svg11.dtd">
<!-- Generated by graphviz version 2.43.0 (0)
 -->
<!-- Title: polyfem::assembler::RhsAssembler::set_bc Pages: 1 -->
<!--zoomable 911 -->
<svg id="main" version="1.1" xmlns="http://www.w3.org/2000/svg" xmlns:xlink="http://www.w3.org/1999/xlink" xml:space="preserve" onload="init(evt)">
<style type="text/css"><![CDATA[
.edge:hover path { stroke: red; }
.edge:hover polygon { stroke: red; fill: red; }
]]></style>
<script type="text/javascript"><![CDATA[
var edges = document.getElementsByTagName('g');
if (edges && edges.length) {
  for (var i=0;i<edges.length;i++) {
    if (edges[i].id.substr(0,4)=='edge') {
      edges[i].setAttribute('class','edge');
    }
  }
}
]]></script>
        <defs>
                <circle id="rim" cx="0" cy="0" r="7"/>
                <circle id="rim2" cx="0" cy="0" r="3.5"/>
                <g id="zoomPlus">
                        <use xlink:href="#rim" fill="#404040">
                                <set attributeName="fill" to="#808080" begin="zoomplus.mouseover" end="zoomplus.mouseout"/>
                        </use>
                        <path d="M-4,0h8M0,-4v8" fill="none" stroke="white" stroke-width="1.5" pointer-events="none"/>
                </g>
                <g id="zoomMin">
                        <use xlink:href="#rim" fill="#404040">
                                <set attributeName="fill" to="#808080" begin="zoomminus.mouseover" end="zoomminus.mouseout"/>
                        </use>
                        <path d="M-4,0h8" fill="none" stroke="white" stroke-width="1.5" pointer-events="none"/>
                </g>
                <g id="dirArrow">
                        <path fill="none" stroke="white" stroke-width="1.5" d="M0,-3.0v7 M-2.5,-0.5L0,-3.0L2.5,-0.5"/>
                </g>
               <g id="resetDef">
                       <use xlink:href="#rim2" fill="#404040">
                               <set attributeName="fill" to="#808080" begin="reset.mouseover" end="reset.mouseout"/>
                       </use>
               </g>
        </defs>

<script type="text/javascript">
var viewWidth = 1549;
var viewHeight = 911;
var sectionId = 'dynsection-13';
</script>
<script xlink:href="svgpan.js"/>
<svg id="graph" class="graph">
<g id="viewport">
<title>polyfem::assembler::RhsAssembler::set_bc</title>
<!-- Node1 -->
<g id="node1" class="node">
<title>Node1</title>
<g id="a_node1"><a xlink:title=" ">
<polygon fill="#bfbfbf" stroke="black" points="1411,-147.5 1411,-177.5 1541,-177.5 1541,-147.5 1411,-147.5"/>
<text text-anchor="start" x="1419" y="-165.5" font-family="Helvetica,sans-Serif" font-size="10.00">polyfem::assembler</text>
<text text-anchor="middle" x="1476" y="-154.5" font-family="Helvetica,sans-Serif" font-size="10.00">::RhsAssembler::set_bc</text>
</a>
</g>
</g>
<!-- Node2 -->
<g id="node2" class="node">
<title>Node2</title>
<g id="a_node2"><a xlink:href="classpolyfem_1_1solver_1_1_n_l_problem.html#a887440705d78e1fe9ae808e053e3210b" target="_top" xlink:title=" ">
<polygon fill="none" stroke="black" points="1223,-512.5 1223,-542.5 1375,-542.5 1375,-512.5 1223,-512.5"/>
<text text-anchor="start" x="1231" y="-530.5" font-family="Helvetica,sans-Serif" font-size="10.00">polyfem::solver::NLProblem</text>
<text text-anchor="middle" x="1299" y="-519.5" font-family="Helvetica,sans-Serif" font-size="10.00">::reduced_to_full</text>
</a>
</g>
</g>
<!-- Node1&#45;&gt;Node2 -->
<g id="edge1" class="edge">
<title>Node1&#45;&gt;Node2</title>
<path fill="none" stroke="midnightblue" d="M1463.22,-187.07C1429.71,-256.96 1334.51,-455.53 1307.33,-512.22"/>
<polygon fill="midnightblue" stroke="midnightblue" points="1466.54,-188.25 1467.7,-177.72 1460.22,-185.22 1466.54,-188.25"/>
</g>
<!-- Node22 -->
<g id="node22" class="node">
<title>Node22</title>
<g id="a_node22"><a xlink:href="classpolyfem_1_1solver_1_1_body_form.html#ac565e4b704690c5a47c2862ca09ce0a1" target="_top" xlink:title="Update current_rhs.">
<polygon fill="none" stroke="black" points="1224.5,-147.5 1224.5,-177.5 1373.5,-177.5 1373.5,-147.5 1224.5,-147.5"/>
<text text-anchor="start" x="1232.5" y="-165.5" font-family="Helvetica,sans-Serif" font-size="10.00">polyfem::solver::BodyForm</text>
<text text-anchor="middle" x="1299" y="-154.5" font-family="Helvetica,sans-Serif" font-size="10.00">::update_current_rhs</text>
</a>
</g>
</g>
<!-- Node1&#45;&gt;Node22 -->
<g id="edge32" class="edge">
<title>Node1&#45;&gt;Node22</title>
<path fill="none" stroke="midnightblue" d="M1400.78,-162.5C1391.8,-162.5 1382.62,-162.5 1373.64,-162.5"/>
<polygon fill="midnightblue" stroke="midnightblue" points="1400.83,-166 1410.83,-162.5 1400.83,-159 1400.83,-166"/>
</g>
<!-- Node26 -->
<g id="node26" class="node">
<title>Node26</title>
<g id="a_node26"><a xlink:href="classpolyfem_1_1solver_1_1_a_l_form.html#a0a40a0b4758f3d34279aaf08377fb9d4" target="_top" xlink:title=" ">
<polygon fill="none" stroke="black" points="1231,-49.5 1231,-79.5 1367,-79.5 1367,-49.5 1231,-49.5"/>
<text text-anchor="start" x="1239" y="-67.5" font-family="Helvetica,sans-Serif" font-size="10.00">polyfem::solver::ALForm</text>
<text text-anchor="middle" x="1299" y="-56.5" font-family="Helvetica,sans-Serif" font-size="10.00">::update_target</text>
</a>
</g>
</g>
<!-- Node1&#45;&gt;Node26 -->
<g id="edge36" class="edge">
<title>Node1&#45;&gt;Node26</title>
<path fill="none" stroke="midnightblue" d="M1439.09,-142.39C1405.82,-123.76 1357.06,-96.46 1326.99,-79.61"/>
<polygon fill="midnightblue" stroke="midnightblue" points="1437.6,-145.57 1448.04,-147.4 1441.02,-139.46 1437.6,-145.57"/>
</g>
<!-- Node3 -->
<g id="node3" class="node">
<title>Node3</title>
<g id="a_node3"><a xlink:href="classpolyfem_1_1solver_1_1_n_l_problem.html#a727281312b26149dbbce7d9e4f283d58" target="_top" xlink:title=" ">
<polygon fill="none" stroke="black" points="847,-749.5 847,-779.5 999,-779.5 999,-749.5 847,-749.5"/>
<text text-anchor="start" x="855" y="-767.5" font-family="Helvetica,sans-Serif" font-size="10.00">polyfem::solver::NLProblem</text>
<text text-anchor="middle" x="923" y="-756.5" font-family="Helvetica,sans-Serif" font-size="10.00">::gradient</text>
</a>
</g>
</g>
<!-- Node2&#45;&gt;Node3 -->
<g id="edge2" class="edge">
<title>Node2&#45;&gt;Node3</title>
<path fill="none" stroke="midnightblue" d="M1295.07,-552.8C1287.63,-603.97 1262.85,-719.01 1187,-767.5 1121.79,-809.19 1027.63,-794.36 971.45,-779.57"/>
<polygon fill="midnightblue" stroke="midnightblue" points="1298.58,-552.99 1296.44,-542.62 1291.64,-552.06 1298.58,-552.99"/>
</g>
<!-- Node4 -->
<g id="node4" class="node">
<title>Node4</title>
<g id="a_node4"><a xlink:href="classpolyfem_1_1_state.html#afb78d1df43d732318dd15a370d96360d" target="_top" xlink:title="solves nonlinear problems">
<polygon fill="none" stroke="black" points="502,-683.5 502,-713.5 623,-713.5 623,-683.5 502,-683.5"/>
<text text-anchor="start" x="510" y="-701.5" font-family="Helvetica,sans-Serif" font-size="10.00">polyfem::State::solve</text>
<text text-anchor="middle" x="562.5" y="-690.5" font-family="Helvetica,sans-Serif" font-size="10.00">_tensor_nonlinear</text>
</a>
</g>
</g>
<!-- Node2&#45;&gt;Node4 -->
<g id="edge26" class="edge">
<title>Node2&#45;&gt;Node4</title>
<path fill="none" stroke="midnightblue" d="M1287.33,-552.05C1271.15,-585.93 1236.88,-645.85 1187,-672.5 1090.72,-723.93 759.72,-710.5 623.15,-702.46"/>
<polygon fill="midnightblue" stroke="midnightblue" points="1290.58,-553.38 1291.6,-542.84 1284.22,-550.44 1290.58,-553.38"/>
</g>
<!-- Node8 -->
<g id="node8" class="node">
<title>Node8</title>
<g id="a_node8"><a xlink:href="classpolyfem_1_1solver_1_1_n_l_problem.html#ac5391ca8bfaf7182e806ea462405c8a9" target="_top" xlink:title=" ">
<polygon fill="none" stroke="black" points="1035,-534.5 1035,-564.5 1187,-564.5 1187,-534.5 1035,-534.5"/>
<text text-anchor="start" x="1043" y="-552.5" font-family="Helvetica,sans-Serif" font-size="10.00">polyfem::solver::NLProblem</text>
<text text-anchor="middle" x="1111" y="-541.5" font-family="Helvetica,sans-Serif" font-size="10.00">::hessian</text>
</a>
</g>
</g>
<!-- Node2&#45;&gt;Node8 -->
<g id="edge8" class="edge">
<title>Node2&#45;&gt;Node8</title>
<path fill="none" stroke="midnightblue" d="M1212.85,-537.57C1204.26,-538.59 1195.57,-539.61 1187.1,-540.62"/>
<polygon fill="midnightblue" stroke="midnightblue" points="1213.36,-541.04 1222.88,-536.38 1212.54,-534.08 1213.36,-541.04"/>
</g>
<!-- Node9 -->
<g id="node9" class="node">
<title>Node9</title>
<g id="a_node9"><a xlink:href="classpolyfem_1_1solver_1_1_n_l_problem.html#a77c70b1fa956d5dcd24e4f4fb214cee9" target="_top" xlink:title=" ">
<polygon fill="none" stroke="black" points="659,-639.5 659,-669.5 811,-669.5 811,-639.5 659,-639.5"/>
<text text-anchor="start" x="667" y="-657.5" font-family="Helvetica,sans-Serif" font-size="10.00">polyfem::solver::NLProblem</text>
<text text-anchor="middle" x="735" y="-646.5" font-family="Helvetica,sans-Serif" font-size="10.00">::init_lagging</text>
</a>
</g>
</g>
<!-- Node2&#45;&gt;Node9 -->
<g id="edge10" class="edge">
<title>Node2&#45;&gt;Node9</title>
<path fill="none" stroke="midnightblue" d="M1283.33,-551.15C1264.76,-578.64 1229.95,-622.64 1187,-641.5 1064.18,-695.43 903.86,-683.03 811.18,-668.9"/>
<polygon fill="midnightblue" stroke="midnightblue" points="1286.43,-552.81 1288.99,-542.52 1280.58,-548.96 1286.43,-552.81"/>
</g>
<!-- Node10 -->
<g id="node10" class="node">
<title>Node10</title>
<g id="a_node10"><a xlink:href="classpolyfem_1_1solver_1_1_n_l_problem.html#a7e513a5bf53df67973b32848b43223c0" target="_top" xlink:title=" ">
<polygon fill="none" stroke="black" points="847,-507.5 847,-537.5 999,-537.5 999,-507.5 847,-507.5"/>
<text text-anchor="start" x="855" y="-525.5" font-family="Helvetica,sans-Serif" font-size="10.00">polyfem::solver::NLProblem</text>
<text text-anchor="middle" x="923" y="-514.5" font-family="Helvetica,sans-Serif" font-size="10.00">::is_step_collision_free</text>
</a>
</g>
</g>
<!-- Node2&#45;&gt;Node10 -->
<g id="edge12" class="edge">
<title>Node2&#45;&gt;Node10</title>
<path fill="none" stroke="midnightblue" d="M1212.63,-525.9C1203.97,-525.76 1195.31,-525.62 1187,-525.5 1123.65,-524.57 1051.71,-523.76 999.11,-523.22"/>
<polygon fill="midnightblue" stroke="midnightblue" points="1212.71,-529.41 1222.77,-526.08 1212.83,-522.41 1212.71,-529.41"/>
</g>
<!-- Node11 -->
<g id="node11" class="node">
<title>Node11</title>
<g id="a_node11"><a xlink:href="classpolyfem_1_1solver_1_1_a_l_solver.html#a7c0a22e768625967a23702241a0a6595" target="_top" xlink:title=" ">
<polygon fill="none" stroke="black" points="664,-458.5 664,-488.5 806,-488.5 806,-458.5 664,-458.5"/>
<text text-anchor="start" x="672" y="-476.5" font-family="Helvetica,sans-Serif" font-size="10.00">polyfem::solver::ALSolver</text>
<text text-anchor="middle" x="735" y="-465.5" font-family="Helvetica,sans-Serif" font-size="10.00">::solve</text>
</a>
</g>
</g>
<!-- Node2&#45;&gt;Node11 -->
<g id="edge25" class="edge">
<title>Node2&#45;&gt;Node11</title>
<path fill="none" stroke="midnightblue" d="M1252.1,-508.67C1232.31,-501.05 1208.75,-492.62 1187,-486.5 1040.67,-445.36 998.14,-433.35 847,-449.5 829.75,-451.34 811.24,-454.76 794.38,-458.44"/>
<polygon fill="midnightblue" stroke="midnightblue" points="1250.9,-511.96 1261.49,-512.34 1253.44,-505.44 1250.9,-511.96"/>
</g>
<!-- Node12 -->
<g id="node12" class="node">
<title>Node12</title>
<g id="a_node12"><a xlink:href="classpolyfem_1_1solver_1_1_n_l_problem.html#a4db19ca2abdc0fa349994c9e44bb365a" target="_top" xlink:title=" ">
<polygon fill="none" stroke="black" points="847,-370.5 847,-400.5 999,-400.5 999,-370.5 847,-370.5"/>
<text text-anchor="start" x="855" y="-388.5" font-family="Helvetica,sans-Serif" font-size="10.00">polyfem::solver::NLProblem</text>
<text text-anchor="middle" x="923" y="-377.5" font-family="Helvetica,sans-Serif" font-size="10.00">::is_step_valid</text>
</a>
</g>
</g>
<!-- Node2&#45;&gt;Node12 -->
<g id="edge15" class="edge">
<title>Node2&#45;&gt;Node12</title>
<path fill="none" stroke="midnightblue" d="M1282.34,-504.02C1263.25,-477.54 1228.38,-435.58 1187,-415.5 1128.29,-387.01 1053.79,-380.9 999.08,-381.1"/>
<polygon fill="midnightblue" stroke="midnightblue" points="1279.58,-506.18 1288.19,-512.35 1285.31,-502.15 1279.58,-506.18"/>
</g>
<!-- Node13 -->
<g id="node13" class="node">
<title>Node13</title>
<g id="a_node13"><a xlink:href="classpolyfem_1_1solver_1_1_n_l_problem.html#a077079d9df337f943b9472430109f64f" target="_top" xlink:title=" ">
<polygon fill="none" stroke="black" points="847,-321.5 847,-351.5 999,-351.5 999,-321.5 847,-321.5"/>
<text text-anchor="start" x="855" y="-339.5" font-family="Helvetica,sans-Serif" font-size="10.00">polyfem::solver::NLProblem</text>
<text text-anchor="middle" x="923" y="-328.5" font-family="Helvetica,sans-Serif" font-size="10.00">::line_search_begin</text>
</a>
</g>
</g>
<!-- Node2&#45;&gt;Node13 -->
<g id="edge17" class="edge">
<title>Node2&#45;&gt;Node13</title>
<path fill="none" stroke="midnightblue" d="M1287.21,-502.75C1270.88,-468.48 1236.44,-407.42 1187,-377.5 1130.36,-343.23 1054.76,-334.47 999.15,-333.41"/>
<polygon fill="midnightblue" stroke="midnightblue" points="1284.14,-504.45 1291.52,-512.06 1290.5,-501.52 1284.14,-504.45"/>
</g>
<!-- Node14 -->
<g id="node14" class="node">
<title>Node14</title>
<g id="a_node14"><a xlink:href="classpolyfem_1_1solver_1_1_n_l_problem.html#a0f6010db70fac314b23b19dc48f4f00d" target="_top" xlink:title=" ">
<polygon fill="none" stroke="black" points="1035,-294.5 1035,-324.5 1187,-324.5 1187,-294.5 1035,-294.5"/>
<text text-anchor="start" x="1043" y="-312.5" font-family="Helvetica,sans-Serif" font-size="10.00">polyfem::solver::NLProblem</text>
<text text-anchor="middle" x="1111" y="-301.5" font-family="Helvetica,sans-Serif" font-size="10.00">::max_step_size</text>
</a>
</g>
</g>
<!-- Node2&#45;&gt;Node14 -->
<g id="edge19" class="edge">
<title>Node2&#45;&gt;Node14</title>
<path fill="none" stroke="midnightblue" d="M1289.49,-502.91C1274.63,-463.31 1240.33,-385.24 1187,-339.5 1179.97,-333.47 1171.59,-328.56 1163.01,-324.59"/>
<polygon fill="midnightblue" stroke="midnightblue" points="1286.21,-504.13 1292.93,-512.33 1292.79,-501.73 1286.21,-504.13"/>
</g>
<!-- Node15 -->
<g id="node15" class="node">
<title>Node15</title>
<g id="a_node15"><a xlink:href="classpolyfem_1_1solver_1_1_n_l_problem.html#ade0951bf92aab68f8201e383f4396b8b" target="_top" xlink:title=" ">
<polygon fill="none" stroke="black" points="1035,-245.5 1035,-275.5 1187,-275.5 1187,-245.5 1035,-245.5"/>
<text text-anchor="start" x="1043" y="-263.5" font-family="Helvetica,sans-Serif" font-size="10.00">polyfem::solver::NLProblem</text>
<text text-anchor="middle" x="1111" y="-252.5" font-family="Helvetica,sans-Serif" font-size="10.00">::post_step</text>
</a>
</g>
</g>
<!-- Node2&#45;&gt;Node15 -->
<g id="edge20" class="edge">
<title>Node2&#45;&gt;Node15</title>
<path fill="none" stroke="midnightblue" d="M1293.34,-502.21C1283.03,-453.3 1253.69,-345.33 1187,-285.5 1182.71,-281.65 1177.81,-278.39 1172.61,-275.63"/>
<polygon fill="midnightblue" stroke="midnightblue" points="1289.96,-503.13 1295.36,-512.24 1296.82,-501.75 1289.96,-503.13"/>
</g>
<!-- Node16 -->
<g id="node16" class="node">
<title>Node16</title>
<g id="a_node16"><a xlink:href="classpolyfem_1_1solver_1_1_n_l_problem.html#aedf81fd753bb54d804eabb10af39df87" target="_top" xlink:title=" ">
<polygon fill="none" stroke="black" points="1035,-601.5 1035,-631.5 1187,-631.5 1187,-601.5 1035,-601.5"/>
<text text-anchor="start" x="1043" y="-619.5" font-family="Helvetica,sans-Serif" font-size="10.00">polyfem::solver::NLProblem</text>
<text text-anchor="middle" x="1111" y="-608.5" font-family="Helvetica,sans-Serif" font-size="10.00">::set_apply_DBC</text>
</a>
</g>
</g>
<!-- Node2&#45;&gt;Node16 -->
<g id="edge21" class="edge">
<title>Node2&#45;&gt;Node16</title>
<path fill="none" stroke="midnightblue" d="M1266.92,-548.2C1245.19,-562.04 1215.14,-579.94 1187,-592.5 1179.76,-595.73 1171.95,-598.73 1164.2,-601.44"/>
<polygon fill="midnightblue" stroke="midnightblue" points="1268.89,-551.09 1275.4,-542.73 1265.1,-545.21 1268.89,-551.09"/>
</g>
<!-- Node18 -->
<g id="node18" class="node">
<title>Node18</title>
<g id="a_node18"><a xlink:href="classpolyfem_1_1solver_1_1_n_l_problem.html#ade6ccc960c7b39a7f0645bb2acaf2ddd" target="_top" xlink:title=" ">
<polygon fill="none" stroke="black" points="1035,-815.5 1035,-845.5 1187,-845.5 1187,-815.5 1035,-815.5"/>
<text text-anchor="start" x="1043" y="-833.5" font-family="Helvetica,sans-Serif" font-size="10.00">polyfem::solver::NLProblem</text>
<text text-anchor="middle" x="1111" y="-822.5" font-family="Helvetica,sans-Serif" font-size="10.00">::solution_changed</text>
</a>
</g>
</g>
<!-- Node2&#45;&gt;Node18 -->
<g id="edge24" class="edge">
<title>Node2&#45;&gt;Node18</title>
<path fill="none" stroke="midnightblue" d="M1294.47,-552.67C1285.79,-605.58 1258.62,-729.29 1187,-800.5 1180.83,-806.63 1173.26,-811.55 1165.31,-815.49"/>
<polygon fill="midnightblue" stroke="midnightblue" points="1297.93,-553.2 1296.01,-542.78 1291.01,-552.13 1297.93,-553.2"/>
</g>
<!-- Node19 -->
<g id="node19" class="node">
<title>Node19</title>
<g id="a_node19"><a xlink:href="classpolyfem_1_1solver_1_1_n_l_problem.html#a95e034a58eb88d93767df43d46691746" target="_top" xlink:title=" ">
<polygon fill="none" stroke="black" points="659,-819.5 659,-849.5 811,-849.5 811,-819.5 659,-819.5"/>
<text text-anchor="start" x="667" y="-837.5" font-family="Helvetica,sans-Serif" font-size="10.00">polyfem::solver::NLProblem</text>
<text text-anchor="middle" x="735" y="-826.5" font-family="Helvetica,sans-Serif" font-size="10.00">::update_lagging</text>
</a>
</g>
</g>
<!-- Node2&#45;&gt;Node19 -->
<g id="edge27" class="edge">
<title>Node2&#45;&gt;Node19</title>
<path fill="none" stroke="midnightblue" d="M1298.46,-553.09C1298.05,-617.02 1287,-783.77 1187,-855.5 1058.82,-947.44 853.45,-881.85 771.47,-849.59"/>
<polygon fill="midnightblue" stroke="midnightblue" points="1301.96,-552.72 1298.44,-542.72 1294.96,-552.73 1301.96,-552.72"/>
</g>
<!-- Node20 -->
<g id="node20" class="node">
<title>Node20</title>
<g id="a_node20"><a xlink:href="classpolyfem_1_1solver_1_1_n_l_problem.html#a7110f930d05e90196a0824700ff9bca5" target="_top" xlink:title=" ">
<polygon fill="none" stroke="black" points="1035,-727.5 1035,-757.5 1187,-757.5 1187,-727.5 1035,-727.5"/>
<text text-anchor="start" x="1043" y="-745.5" font-family="Helvetica,sans-Serif" font-size="10.00">polyfem::solver::NLProblem</text>
<text text-anchor="middle" x="1111" y="-734.5" font-family="Helvetica,sans-Serif" font-size="10.00">::update_quantities</text>
</a>
</g>
</g>
<!-- Node2&#45;&gt;Node20 -->
<g id="edge29" class="edge">
<title>Node2&#45;&gt;Node20</title>
<path fill="none" stroke="midnightblue" d="M1289.18,-552.24C1274.05,-591.37 1239.62,-667.69 1187,-712.5 1179.95,-718.5 1171.56,-723.4 1162.97,-727.37"/>
<polygon fill="midnightblue" stroke="midnightblue" points="1292.52,-553.28 1292.77,-542.69 1285.97,-550.82 1292.52,-553.28"/>
</g>
<!-- Node21 -->
<g id="node21" class="node">
<title>Node21</title>
<g id="a_node21"><a xlink:href="classpolyfem_1_1solver_1_1_n_l_problem.html#ab854a9e6e1e661a25bcb1bf9e2eaa2a6" target="_top" xlink:title=" ">
<polygon fill="none" stroke="black" points="847,-458.5 847,-488.5 999,-488.5 999,-458.5 847,-458.5"/>
<text text-anchor="start" x="855" y="-476.5" font-family="Helvetica,sans-Serif" font-size="10.00">polyfem::solver::NLProblem</text>
<text text-anchor="middle" x="923" y="-465.5" font-family="Helvetica,sans-Serif" font-size="10.00">::value</text>
</a>
</g>
</g>
<!-- Node2&#45;&gt;Node21 -->
<g id="edge30" class="edge">
<title>Node2&#45;&gt;Node21</title>
<path fill="none" stroke="midnightblue" d="M1212.64,-515.18C1148.28,-505.88 1060.84,-493.26 999.11,-484.35"/>
<polygon fill="midnightblue" stroke="midnightblue" points="1212.37,-518.67 1222.77,-516.64 1213.37,-511.74 1212.37,-518.67"/>
</g>
<!-- Node3&#45;&gt;Node4 -->
<g id="edge3" class="edge">
<title>Node3&#45;&gt;Node4</title>
<path fill="none" stroke="midnightblue" d="M836.9,-748.83C771.05,-736.71 681.53,-720.23 623.15,-709.48"/>
<polygon fill="midnightblue" stroke="midnightblue" points="836.38,-752.3 846.85,-750.66 837.65,-745.41 836.38,-752.3"/>
</g>
<!-- Node5 -->
<g id="node5" class="node">
<title>Node5</title>
<g id="a_node5"><a xlink:href="classpolyfem_1_1_state.html#a5f707e0e648aa0e3ffd866f9599f39d0" target="_top" xlink:title="solves the problems">
<polygon fill="none" stroke="black" points="157,-683.5 157,-713.5 278,-713.5 278,-683.5 157,-683.5"/>
<text text-anchor="start" x="165" y="-701.5" font-family="Helvetica,sans-Serif" font-size="10.00">polyfem::State::solve</text>
<text text-anchor="middle" x="217.5" y="-690.5" font-family="Helvetica,sans-Serif" font-size="10.00">_problem</text>
</a>
</g>
</g>
<!-- Node4&#45;&gt;Node5 -->
<g id="edge4" class="edge">
<title>Node4&#45;&gt;Node5</title>
<path fill="none" stroke="midnightblue" d="M491.78,-700.94C483.1,-701.17 474.34,-701.37 466,-701.5 398.45,-702.56 381.55,-702.56 314,-701.5 302.39,-701.32 289.99,-701.01 278.1,-700.66"/>
<polygon fill="midnightblue" stroke="midnightblue" points="492,-704.44 501.9,-700.66 491.81,-697.44 492,-704.44"/>
</g>
<!-- Node7 -->
<g id="node7" class="node">
<title>Node7</title>
<g id="a_node7"><a xlink:href="classpolyfem_1_1_state.html#adad1ddc955ed74e3bbb706ea2e0fa8b8" target="_top" xlink:title="solves transient tensor nonlinear problem">
<polygon fill="none" stroke="black" points="314,-661.5 314,-691.5 466,-691.5 466,-661.5 314,-661.5"/>
<text text-anchor="start" x="322" y="-679.5" font-family="Helvetica,sans-Serif" font-size="10.00">polyfem::State::solve</text>
<text text-anchor="middle" x="390" y="-668.5" font-family="Helvetica,sans-Serif" font-size="10.00">_transient_tensor_nonlinear</text>
</a>
</g>
</g>
<!-- Node4&#45;&gt;Node7 -->
<g id="edge6" class="edge">
<title>Node4&#45;&gt;Node7</title>
<path fill="none" stroke="midnightblue" d="M491.72,-689.5C483.31,-688.41 474.68,-687.3 466.19,-686.2"/>
<polygon fill="midnightblue" stroke="midnightblue" points="491.5,-693 501.87,-690.81 492.4,-686.05 491.5,-693"/>
</g>
<!-- Node6 -->
<g id="node6" class="node">
<title>Node6</title>
<g id="a_node6"><a xlink:href="classpolyfem_1_1_state.html#aedf3207db0c8d717766f410878876cab" target="_top" xlink:title="solves the problem, call other methods">
<polygon fill="none" stroke="black" points="0,-689 0,-708 121,-708 121,-689 0,-689"/>
<text text-anchor="middle" x="60.5" y="-696" font-family="Helvetica,sans-Serif" font-size="10.00">polyfem::State::solve</text>
</a>
</g>
</g>
<!-- Node5&#45;&gt;Node6 -->
<g id="edge5" class="edge">
<title>Node5&#45;&gt;Node6</title>
<path fill="none" stroke="midnightblue" d="M146.34,-698.5C137.88,-698.5 129.3,-698.5 121.01,-698.5"/>
<polygon fill="midnightblue" stroke="midnightblue" points="146.57,-702 156.57,-698.5 146.57,-695 146.57,-702"/>
</g>
<!-- Node7&#45;&gt;Node5 -->
<g id="edge7" class="edge">
<title>Node7&#45;&gt;Node5</title>
<path fill="none" stroke="midnightblue" d="M303.59,-687.52C294.95,-688.64 286.31,-689.75 278.02,-690.82"/>
<polygon fill="midnightblue" stroke="midnightblue" points="304.25,-690.96 313.72,-686.21 303.35,-684.02 304.25,-690.96"/>
</g>
<!-- Node8&#45;&gt;Node8 -->
<g id="edge9" class="edge">
<title>Node8&#45;&gt;Node8</title>
<path fill="none" stroke="midnightblue" d="M1144.41,-574.96C1140.26,-579.68 1129.12,-583 1111,-583 1081.26,-583 1070.34,-574.06 1078.24,-564.66"/>
<polygon fill="midnightblue" stroke="midnightblue" points="1147.88,-574.42 1143.76,-564.66 1140.89,-574.86 1147.88,-574.42"/>
</g>
<!-- Node9&#45;&gt;Node4 -->
<g id="edge11" class="edge">
<title>Node9&#45;&gt;Node4</title>
<path fill="none" stroke="midnightblue" d="M665.82,-672.09C651.22,-675.86 635.92,-679.81 621.73,-683.47"/>
<polygon fill="midnightblue" stroke="midnightblue" points="666.99,-675.41 675.8,-669.52 665.24,-668.63 666.99,-675.41"/>
</g>
<!-- Node10&#45;&gt;Node11 -->
<g id="edge13" class="edge">
<title>Node10&#45;&gt;Node11</title>
<path fill="none" stroke="midnightblue" d="M855.1,-504.88C834.76,-499.52 812.59,-493.68 792.96,-488.51"/>
<polygon fill="midnightblue" stroke="midnightblue" points="854.37,-508.3 864.93,-507.47 856.15,-501.53 854.37,-508.3"/>
</g>
<!-- Node11&#45;&gt;Node4 -->
<g id="edge14" class="edge">
<title>Node11&#45;&gt;Node4</title>
<path fill="none" stroke="midnightblue" d="M716.33,-496.82C681.32,-543.01 604.03,-645.02 574.9,-683.45"/>
<polygon fill="midnightblue" stroke="midnightblue" points="719.3,-498.7 722.55,-488.61 713.72,-494.47 719.3,-498.7"/>
</g>
<!-- Node12&#45;&gt;Node11 -->
<g id="edge16" class="edge">
<title>Node12&#45;&gt;Node11</title>
<path fill="none" stroke="midnightblue" d="M872.45,-404.5C863.9,-408.01 855.15,-411.75 847,-415.5 817.76,-428.94 785.23,-446.23 762.99,-458.42"/>
<polygon fill="midnightblue" stroke="midnightblue" points="874.02,-407.64 881.98,-400.64 871.4,-401.15 874.02,-407.64"/>
</g>
<!-- Node13&#45;&gt;Node11 -->
<g id="edge18" class="edge">
<title>Node13&#45;&gt;Node11</title>
<path fill="none" stroke="midnightblue" d="M857.43,-355.76C853.82,-357.53 850.32,-359.44 847,-361.5 804.21,-388.08 765.59,-434.31 747.25,-458.21"/>
<polygon fill="midnightblue" stroke="midnightblue" points="858.89,-358.94 866.58,-351.65 856.02,-352.56 858.89,-358.94"/>
</g>
<!-- Node17 -->
<g id="node17" class="node">
<title>Node17</title>
<g id="a_node17"><a xlink:href="classpolyfem_1_1solver_1_1_a_l_solver.html#a37b1f3b8343a9f2a4858a29546e9b015" target="_top" xlink:title=" ">
<polygon fill="none" stroke="black" points="852,-579.5 852,-609.5 994,-609.5 994,-579.5 852,-579.5"/>
<text text-anchor="start" x="860" y="-597.5" font-family="Helvetica,sans-Serif" font-size="10.00">polyfem::solver::ALSolver</text>
<text text-anchor="middle" x="923" y="-586.5" font-family="Helvetica,sans-Serif" font-size="10.00">::set_al_weight</text>
</a>
</g>
</g>
<!-- Node16&#45;&gt;Node17 -->
<g id="edge22" class="edge">
<title>Node16&#45;&gt;Node17</title>
<path fill="none" stroke="midnightblue" d="M1024.75,-606.42C1014.55,-605.21 1004.23,-603.99 994.28,-602.81"/>
<polygon fill="midnightblue" stroke="midnightblue" points="1024.54,-609.92 1034.88,-607.62 1025.36,-602.96 1024.54,-609.92"/>
</g>
<!-- Node17&#45;&gt;Node11 -->
<g id="edge23" class="edge">
<title>Node17&#45;&gt;Node11</title>
<path fill="none" stroke="midnightblue" d="M888.88,-574.02C875.78,-565.85 860.63,-556.31 847,-547.5 816.07,-527.51 780.75,-503.8 758.41,-488.71"/>
<polygon fill="midnightblue" stroke="midnightblue" points="887.23,-577.12 897.57,-579.43 890.93,-571.18 887.23,-577.12"/>
</g>
<!-- Node19&#45;&gt;Node4 -->
<g id="edge28" class="edge">
<title>Node19&#45;&gt;Node4</title>
<path fill="none" stroke="midnightblue" d="M707.27,-813.18C672.57,-785.5 612.88,-737.89 582.48,-713.64"/>
<polygon fill="midnightblue" stroke="midnightblue" points="705.1,-815.93 715.1,-819.43 709.47,-810.45 705.1,-815.93"/>
</g>
<!-- Node21&#45;&gt;Node11 -->
<g id="edge31" class="edge">
<title>Node21&#45;&gt;Node11</title>
<path fill="none" stroke="midnightblue" d="M836.75,-473.5C826.55,-473.5 816.23,-473.5 806.28,-473.5"/>
<polygon fill="midnightblue" stroke="midnightblue" points="836.88,-477 846.88,-473.5 836.88,-470 836.88,-477"/>
</g>
<!-- Node23 -->
<g id="node23" class="node">
<title>Node23</title>
<g id="a_node23"><a xlink:href="classpolyfem_1_1solver_1_1_body_form.html#aebce643481177f0a825138837f93a85e" target="_top" xlink:title="Construct a new Body Form object.">
<polygon fill="none" stroke="black" points="1036.5,-98.5 1036.5,-128.5 1185.5,-128.5 1185.5,-98.5 1036.5,-98.5"/>
<text text-anchor="start" x="1044.5" y="-116.5" font-family="Helvetica,sans-Serif" font-size="10.00">polyfem::solver::BodyForm</text>
<text text-anchor="middle" x="1111" y="-105.5" font-family="Helvetica,sans-Serif" font-size="10.00">::BodyForm</text>
</a>
</g>
</g>
<!-- Node22&#45;&gt;Node23 -->
<g id="edge33" class="edge">
<title>Node22&#45;&gt;Node23</title>
<path fill="none" stroke="midnightblue" d="M1231.1,-144.88C1210.76,-139.52 1188.59,-133.68 1168.96,-128.51"/>
<polygon fill="midnightblue" stroke="midnightblue" points="1230.37,-148.3 1240.93,-147.47 1232.15,-141.53 1230.37,-148.3"/>
</g>
<!-- Node24 -->
<g id="node24" class="node">
<title>Node24</title>
<g id="a_node24"><a xlink:href="classpolyfem_1_1solver_1_1_body_form.html#a638bd0d14aeb801284b8ffc8b0cbf261" target="_top" xlink:title="Set if the Dirichlet boundary conditions should be enforced.">
<polygon fill="none" stroke="black" points="1036.5,-196.5 1036.5,-226.5 1185.5,-226.5 1185.5,-196.5 1036.5,-196.5"/>
<text text-anchor="start" x="1044.5" y="-214.5" font-family="Helvetica,sans-Serif" font-size="10.00">polyfem::solver::BodyForm</text>
<text text-anchor="middle" x="1111" y="-203.5" font-family="Helvetica,sans-Serif" font-size="10.00">::set_apply_DBC</text>
</a>
</g>
</g>
<!-- Node22&#45;&gt;Node24 -->
<g id="edge34" class="edge">
<title>Node22&#45;&gt;Node24</title>
<path fill="none" stroke="midnightblue" d="M1231.1,-180.12C1210.76,-185.48 1188.59,-191.32 1168.96,-196.49"/>
<polygon fill="midnightblue" stroke="midnightblue" points="1232.15,-183.47 1240.93,-177.53 1230.37,-176.7 1232.15,-183.47"/>
</g>
<!-- Node25 -->
<g id="node25" class="node">
<title>Node25</title>
<g id="a_node25"><a xlink:href="classpolyfem_1_1solver_1_1_body_form.html#a59038ae41bd1beec9805dacdf2194d85" target="_top" xlink:title="Update time dependent quantities.">
<polygon fill="none" stroke="black" points="1036.5,-147.5 1036.5,-177.5 1185.5,-177.5 1185.5,-147.5 1036.5,-147.5"/>
<text text-anchor="start" x="1044.5" y="-165.5" font-family="Helvetica,sans-Serif" font-size="10.00">polyfem::solver::BodyForm</text>
<text text-anchor="middle" x="1111" y="-154.5" font-family="Helvetica,sans-Serif" font-size="10.00">::update_quantities</text>
</a>
</g>
</g>
<!-- Node22&#45;&gt;Node25 -->
<g id="edge35" class="edge">
<title>Node22&#45;&gt;Node25</title>
<path fill="none" stroke="midnightblue" d="M1214.2,-162.5C1204.66,-162.5 1194.98,-162.5 1185.59,-162.5"/>
<polygon fill="midnightblue" stroke="midnightblue" points="1214.49,-166 1224.49,-162.5 1214.49,-159 1214.49,-166"/>
</g>
<!-- Node27 -->
<g id="node27" class="node">
<title>Node27</title>
<g id="a_node27"><a xlink:href="classpolyfem_1_1solver_1_1_a_l_form.html#ae73c504ace426cedd4cd839312c18241" target="_top" xlink:title="Construct a new AL Form object.">
<polygon fill="none" stroke="black" points="1043,-49.5 1043,-79.5 1179,-79.5 1179,-49.5 1043,-49.5"/>
<text text-anchor="start" x="1051" y="-67.5" font-family="Helvetica,sans-Serif" font-size="10.00">polyfem::solver::ALForm</text>
<text text-anchor="middle" x="1111" y="-56.5" font-family="Helvetica,sans-Serif" font-size="10.00">::ALForm</text>
</a>
</g>
</g>
<!-- Node26&#45;&gt;Node27 -->
<g id="edge37" class="edge">
<title>Node26&#45;&gt;Node27</title>
<path fill="none" stroke="midnightblue" d="M1220.45,-64.5C1206.7,-64.5 1192.48,-64.5 1179.05,-64.5"/>
<polygon fill="midnightblue" stroke="midnightblue" points="1220.85,-68 1230.85,-64.5 1220.85,-61 1220.85,-68"/>
</g>
<!-- Node28 -->
<g id="node28" class="node">
<title>Node28</title>
<g id="a_node28"><a xlink:href="classpolyfem_1_1solver_1_1_a_l_form.html#a33ff034c7307e516775d5063d3215877" target="_top" xlink:title="Update time dependent quantities.">
<polygon fill="none" stroke="black" points="1043,-0.5 1043,-30.5 1179,-30.5 1179,-0.5 1043,-0.5"/>
<text text-anchor="start" x="1051" y="-18.5" font-family="Helvetica,sans-Serif" font-size="10.00">polyfem::solver::ALForm</text>
<text text-anchor="middle" x="1111" y="-7.5" font-family="Helvetica,sans-Serif" font-size="10.00">::update_quantities</text>
</a>
</g>
</g>
<!-- Node26&#45;&gt;Node28 -->
<g id="edge38" class="edge">
<title>Node26&#45;&gt;Node28</title>
<path fill="none" stroke="midnightblue" d="M1231.1,-46.88C1210.76,-41.52 1188.59,-35.68 1168.96,-30.51"/>
<polygon fill="midnightblue" stroke="midnightblue" points="1230.37,-50.3 1240.93,-49.47 1232.15,-43.53 1230.37,-50.3"/>
</g>
</g>
</svg>
        <g id="navigator" transform="translate(0 0)" fill="#404254">
                <rect fill="#f2f5e9" fill-opacity="0.5" stroke="#606060" stroke-width=".5" x="0" y="0" width="60" height="60"/>
                <use id="zoomplus" xlink:href="#zoomPlus" x="17" y="9" onmousedown="handleZoom(evt,'in')"/>
                <use id="zoomminus" xlink:href="#zoomMin" x="42" y="9" onmousedown="handleZoom(evt,'out')"/>
                <use id="reset" xlink:href="#resetDef" x="30" y="36" onmousedown="handleReset()"/>
                <g id="arrowUp" xlink:href="#dirArrow" transform="translate(30 24)" onmousedown="handlePan(0,-1)">
                  <use xlink:href="#rim" fill="#404040">
                        <set attributeName="fill" to="#808080" begin="arrowUp.mouseover" end="arrowUp.mouseout"/>
                  </use>
                  <path fill="none" stroke="white" stroke-width="1.5" d="M0,-3.0v7 M-2.5,-0.5L0,-3.0L2.5,-0.5"/>
                </g>
                <g id="arrowRight" xlink:href="#dirArrow" transform="rotate(90) translate(36 -43)" onmousedown="handlePan(1,0)">
                  <use xlink:href="#rim" fill="#404040">
                        <set attributeName="fill" to="#808080" begin="arrowRight.mouseover" end="arrowRight.mouseout"/>
                  </use>
                  <path fill="none" stroke="white" stroke-width="1.5" d="M0,-3.0v7 M-2.5,-0.5L0,-3.0L2.5,-0.5"/>
                </g>
                <g id="arrowDown" xlink:href="#dirArrow" transform="rotate(180) translate(-30 -48)" onmousedown="handlePan(0,1)">
                  <use xlink:href="#rim" fill="#404040">
                        <set attributeName="fill" to="#808080" begin="arrowDown.mouseover" end="arrowDown.mouseout"/>
                  </use>
                  <path fill="none" stroke="white" stroke-width="1.5" d="M0,-3.0v7 M-2.5,-0.5L0,-3.0L2.5,-0.5"/>
                </g>
                <g id="arrowLeft" xlink:href="#dirArrow" transform="rotate(270) translate(-36 17)" onmousedown="handlePan(-1,0)">
                  <use xlink:href="#rim" fill="#404040">
                        <set attributeName="fill" to="#808080" begin="arrowLeft.mouseover" end="arrowLeft.mouseout"/>
                  </use>
                  <path fill="none" stroke="white" stroke-width="1.5" d="M0,-3.0v7 M-2.5,-0.5L0,-3.0L2.5,-0.5"/>
                </g>
        </g>
        <svg viewBox="0 0 15 15" width="100%" height="30px" preserveAspectRatio="xMaxYMin meet">
         <g id="arrow_out" transform="scale(0.3 0.3)">
          <a xlink:href="classpolyfem_1_1assembler_1_1_rhs_assembler_a0101cc7349acaf03df4743439d055f28_icgraph_org.svg" target="_base">
           <rect id="button" ry="5" rx="5" y="6" x="6" height="38" width="38"
                fill="#f2f5e9" fill-opacity="0.5" stroke="#606060" stroke-width="1.0"/>
           <path id="arrow"
             d="M 11.500037,31.436501 C 11.940474,20.09759 22.043105,11.32322 32.158766,21.979434 L 37.068811,17.246167 C 37.068811,17.246167 37.088388,32 37.088388,32 L 22.160133,31.978069 C 22.160133,31.978069 26.997745,27.140456 26.997745,27.140456 C 18.528582,18.264221 13.291696,25.230495 11.500037,31.436501 z"
             style="fill:#404040;"/>
          </a>
         </g>
        </svg>
</svg>
