<?xml version="1.0" encoding="UTF-8" standalone="no"?>
<!DOCTYPE svg PUBLIC "-//W3C//DTD SVG 1.1//EN"
 "http://www.w3.org/Graphics/SVG/1.1/DTD/svg11.dtd">
<!-- Generated by graphviz version 2.43.0 (0)
 -->
<!-- Title: polyfem::assembler::Problem::exact Pages: 1 -->
<svg width="1455pt" height="399pt"
 viewBox="0.00 0.00 1455.00 399.00" xmlns="http://www.w3.org/2000/svg" xmlns:xlink="http://www.w3.org/1999/xlink">
<g id="graph0" class="graph" transform="scale(1 1) rotate(0) translate(4 395)">
<title>polyfem::assembler::Problem::exact</title>
<!-- Node1 -->
<g id="Node000001" class="node">
<title>Node1</title>
<g id="a_Node000001"><a xlink:title=" ">
<polygon fill="#999999" stroke="#666666" points="1447,-343 1333,-343 1333,-313 1447,-313 1447,-343"/>
<text text-anchor="start" x="1341" y="-331" font-family="Helvetica,sans-Serif" font-size="10.00">polyfem::assembler</text>
<text text-anchor="middle" x="1390" y="-320" font-family="Helvetica,sans-Serif" font-size="10.00">::Problem::exact</text>
</a>
</g>
</g>
<!-- Node2 -->
<g id="Node000002" class="node">
<title>Node2</title>
<g id="a_Node000002"><a xlink:href="classpolyfem_1_1io_1_1_out_stats_data.html#a82dd3ebdfe11404430cc1beb193abe79" target="_top" xlink:title="compute errors">
<polygon fill="white" stroke="#666666" points="1296.5,-391 1153.5,-391 1153.5,-361 1296.5,-361 1296.5,-391"/>
<text text-anchor="start" x="1161.5" y="-379" font-family="Helvetica,sans-Serif" font-size="10.00">polyfem::io::OutStatsData</text>
<text text-anchor="middle" x="1225" y="-368" font-family="Helvetica,sans-Serif" font-size="10.00">::compute_errors</text>
</a>
</g>
</g>
<!-- Node1&#45;&gt;Node2 -->
<g id="edge1_Node000001_Node000002" class="edge">
<title>Node1&#45;&gt;Node2</title>
<g id="a_edge1_Node000001_Node000002"><a xlink:title=" ">
<path fill="none" stroke="#63b8ff" d="M1328.12,-345.93C1311.27,-350.89 1293.17,-356.22 1276.95,-361"/>
<polygon fill="#63b8ff" stroke="#63b8ff" points="1329.27,-349.24 1337.87,-343.06 1327.29,-342.52 1329.27,-349.24"/>
</a>
</g>
</g>
<!-- Node6 -->
<g id="Node000006" class="node">
<title>Node6</title>
<g id="a_Node000006"><a xlink:href="classpolyfem_1_1io_1_1_out_geometry_data.html#a79dfcef5587ebfc0a492f4beff251d01" target="_top" xlink:title="saves the volume vtu file">
<polygon fill="white" stroke="#666666" points="1297,-343 1153,-343 1153,-313 1297,-313 1297,-343"/>
<text text-anchor="start" x="1161" y="-331" font-family="Helvetica,sans-Serif" font-size="10.00">polyfem::io::OutGeometry</text>
<text text-anchor="middle" x="1225" y="-320" font-family="Helvetica,sans-Serif" font-size="10.00">Data::save_volume</text>
</a>
</g>
</g>
<!-- Node1&#45;&gt;Node6 -->
<g id="edge5_Node000001_Node000006" class="edge">
<title>Node1&#45;&gt;Node6</title>
<g id="a_edge5_Node000001_Node000006"><a xlink:title=" ">
<path fill="none" stroke="#63b8ff" d="M1322.76,-328C1314.33,-328 1305.67,-328 1297.17,-328"/>
<polygon fill="#63b8ff" stroke="#63b8ff" points="1322.9,-331.5 1332.9,-328 1322.9,-324.5 1322.9,-331.5"/>
</a>
</g>
</g>
<!-- Node22 -->
<g id="Node000022" class="node">
<title>Node22</title>
<g id="a_Node000022"><a xlink:href="classpolyfem_1_1io_1_1_out_geometry_data.html#a25fe9752910991469a316afa6687dcde" target="_top" xlink:title="saves the wireframe">
<polygon fill="white" stroke="#666666" points="1297,-295 1153,-295 1153,-265 1297,-265 1297,-295"/>
<text text-anchor="start" x="1161" y="-283" font-family="Helvetica,sans-Serif" font-size="10.00">polyfem::io::OutGeometry</text>
<text text-anchor="middle" x="1225" y="-272" font-family="Helvetica,sans-Serif" font-size="10.00">Data::save_wire</text>
</a>
</g>
</g>
<!-- Node1&#45;&gt;Node22 -->
<g id="edge30_Node000001_Node000022" class="edge">
<title>Node1&#45;&gt;Node22</title>
<g id="a_edge30_Node000001_Node000022"><a xlink:title=" ">
<path fill="none" stroke="#63b8ff" d="M1328.12,-310.07C1311.27,-305.11 1293.17,-299.78 1276.95,-295"/>
<polygon fill="#63b8ff" stroke="#63b8ff" points="1327.29,-313.48 1337.87,-312.94 1329.27,-306.76 1327.29,-313.48"/>
</a>
</g>
</g>
<!-- Node3 -->
<g id="Node000003" class="node">
<title>Node3</title>
<g id="a_Node000003"><a xlink:href="classpolyfem_1_1_state.html#a2351c47a48235103aca219b6363b6353" target="_top" xlink:title="computes all errors">
<polygon fill="white" stroke="#666666" points="392,-391 255,-391 255,-361 392,-361 392,-391"/>
<text text-anchor="start" x="263" y="-379" font-family="Helvetica,sans-Serif" font-size="10.00">polyfem::State::compute</text>
<text text-anchor="middle" x="323.5" y="-368" font-family="Helvetica,sans-Serif" font-size="10.00">_errors</text>
</a>
</g>
</g>
<!-- Node2&#45;&gt;Node3 -->
<g id="edge2_Node000002_Node000003" class="edge">
<title>Node2&#45;&gt;Node3</title>
<g id="a_edge2_Node000002_Node000003"><a xlink:title=" ">
<path fill="none" stroke="#63b8ff" d="M1142.92,-376C1070.36,-376 961.08,-376 866,-376 866,-376 866,-376 695.5,-376 589.55,-376 466.57,-376 392.2,-376"/>
<polygon fill="#63b8ff" stroke="#63b8ff" points="1143.36,-379.5 1153.36,-376 1143.36,-372.5 1143.36,-379.5"/>
</a>
</g>
</g>
<!-- Node4 -->
<g id="Node000004" class="node">
<title>Node4</title>
<g id="a_Node000004"><a xlink:href="main_8cpp.html#aec889c702a246ad7f332c75ab7adb438" target="_top" xlink:title=" ">
<polygon fill="white" stroke="#666666" points="199.5,-342.5 88.5,-342.5 88.5,-323.5 199.5,-323.5 199.5,-342.5"/>
<text text-anchor="middle" x="144" y="-330.5" font-family="Helvetica,sans-Serif" font-size="10.00">forward_simulation</text>
</a>
</g>
</g>
<!-- Node3&#45;&gt;Node4 -->
<g id="edge3_Node000003_Node000004" class="edge">
<title>Node3&#45;&gt;Node4</title>
<g id="a_edge3_Node000003_Node000004"><a xlink:title=" ">
<path fill="none" stroke="#63b8ff" d="M250.5,-358.56C227.89,-353.08 203.77,-347.24 184.31,-342.52"/>
<polygon fill="#63b8ff" stroke="#63b8ff" points="249.88,-362.01 260.42,-360.96 251.52,-355.2 249.88,-362.01"/>
</a>
</g>
</g>
<!-- Node5 -->
<g id="Node000005" class="node">
<title>Node5</title>
<g id="a_Node000005"><a xlink:href="main_8cpp.html#a3c04138a5bfe5d72780bb7e82a18e627" target="_top" xlink:title=" ">
<polygon fill="white" stroke="#666666" points="41,-342.5 0,-342.5 0,-323.5 41,-323.5 41,-342.5"/>
<text text-anchor="middle" x="20.5" y="-330.5" font-family="Helvetica,sans-Serif" font-size="10.00">main</text>
</a>
</g>
</g>
<!-- Node4&#45;&gt;Node5 -->
<g id="edge4_Node000004_Node000005" class="edge">
<title>Node4&#45;&gt;Node5</title>
<g id="a_edge4_Node000004_Node000005"><a xlink:title=" ">
<path fill="none" stroke="#63b8ff" d="M77.97,-333C64.49,-333 51.29,-333 41.05,-333"/>
<polygon fill="#63b8ff" stroke="#63b8ff" points="78.29,-336.5 88.29,-333 78.29,-329.5 78.29,-336.5"/>
</a>
</g>
</g>
<!-- Node7 -->
<g id="Node000007" class="node">
<title>Node7</title>
<g id="a_Node000007"><a xlink:href="classpolyfem_1_1io_1_1_out_geometry_data.html#aa3fbccda3a6e6f7fd5a7b3bcbd146793" target="_top" xlink:title="saves the vtu file for time t">
<polygon fill="white" stroke="#666666" points="1117,-297 973,-297 973,-267 1117,-267 1117,-297"/>
<text text-anchor="start" x="981" y="-285" font-family="Helvetica,sans-Serif" font-size="10.00">polyfem::io::OutGeometry</text>
<text text-anchor="middle" x="1045" y="-274" font-family="Helvetica,sans-Serif" font-size="10.00">Data::save_vtu</text>
</a>
</g>
</g>
<!-- Node6&#45;&gt;Node7 -->
<g id="edge6_Node000006_Node000007" class="edge">
<title>Node6&#45;&gt;Node7</title>
<g id="a_edge6_Node000006_Node000007"><a xlink:title=" ">
<path fill="none" stroke="#63b8ff" d="M1155.82,-310.38C1138.76,-305.97 1120.63,-301.29 1104.11,-297.02"/>
<polygon fill="#63b8ff" stroke="#63b8ff" points="1155.16,-313.82 1165.72,-312.94 1156.91,-307.05 1155.16,-313.82"/>
</a>
</g>
</g>
<!-- Node8 -->
<g id="Node000008" class="node">
<title>Node8</title>
<g id="a_Node000008"><a xlink:href="classpolyfem_1_1io_1_1_out_geometry_data.html#a9826defd7d8f3c4c12df2ba9c4c45320" target="_top" xlink:title="exports everytihng, txt, vtu, etc">
<polygon fill="white" stroke="#666666" points="937,-347 793,-347 793,-317 937,-317 937,-347"/>
<text text-anchor="start" x="801" y="-335" font-family="Helvetica,sans-Serif" font-size="10.00">polyfem::io::OutGeometry</text>
<text text-anchor="middle" x="865" y="-324" font-family="Helvetica,sans-Serif" font-size="10.00">Data::export_data</text>
</a>
</g>
</g>
<!-- Node7&#45;&gt;Node8 -->
<g id="edge7_Node000007_Node000008" class="edge">
<title>Node7&#45;&gt;Node8</title>
<g id="a_edge7_Node000007_Node000008"><a xlink:title=" ">
<path fill="none" stroke="#63b8ff" d="M980.94,-299.71C960.92,-305.34 938.97,-311.5 919.68,-316.92"/>
<polygon fill="#63b8ff" stroke="#63b8ff" points="981.91,-303.08 990.59,-297 980.02,-296.34 981.91,-303.08"/>
</a>
</g>
</g>
<!-- Node10 -->
<g id="Node000010" class="node">
<title>Node10</title>
<g id="a_Node000010"><a xlink:href="classpolyfem_1_1_state.html#a29b1283c20475e19b79a39cd324ac5aa" target="_top" xlink:title="saves a subsolve when save_solve_sequence_debug is true">
<polygon fill="white" stroke="#666666" points="924,-297 806,-297 806,-267 924,-267 924,-297"/>
<text text-anchor="start" x="814" y="-285" font-family="Helvetica,sans-Serif" font-size="10.00">polyfem::State::save</text>
<text text-anchor="middle" x="865" y="-274" font-family="Helvetica,sans-Serif" font-size="10.00">_subsolve</text>
</a>
</g>
</g>
<!-- Node7&#45;&gt;Node10 -->
<g id="edge10_Node000007_Node000010" class="edge">
<title>Node7&#45;&gt;Node10</title>
<g id="a_edge10_Node000007_Node000010"><a xlink:title=" ">
<path fill="none" stroke="#63b8ff" d="M962.56,-282C949.61,-282 936.44,-282 924.16,-282"/>
<polygon fill="#63b8ff" stroke="#63b8ff" points="962.88,-285.5 972.88,-282 962.88,-278.5 962.88,-285.5"/>
</a>
</g>
</g>
<!-- Node16 -->
<g id="Node000016" class="node">
<title>Node16</title>
<g id="a_Node000016"><a xlink:href="classpolyfem_1_1_state.html#a442fa686e1d08a0a104f3869a6fa2948" target="_top" xlink:title="saves a timestep">
<polygon fill="white" stroke="#666666" points="755.5,-174 637.5,-174 637.5,-144 755.5,-144 755.5,-174"/>
<text text-anchor="start" x="645.5" y="-162" font-family="Helvetica,sans-Serif" font-size="10.00">polyfem::State::save</text>
<text text-anchor="middle" x="696.5" y="-151" font-family="Helvetica,sans-Serif" font-size="10.00">_timestep</text>
</a>
</g>
</g>
<!-- Node7&#45;&gt;Node16 -->
<g id="edge18_Node000007_Node000016" class="edge">
<title>Node7&#45;&gt;Node16</title>
<g id="a_edge18_Node000007_Node000016"><a xlink:title=" ">
<path fill="none" stroke="#63b8ff" d="M991.74,-263.45C922.92,-239.02 803.24,-196.53 739.79,-174.01"/>
<polygon fill="#63b8ff" stroke="#63b8ff" points="990.92,-266.87 1001.51,-266.92 993.26,-260.27 990.92,-266.87"/>
</a>
</g>
</g>
<!-- Node9 -->
<g id="Node000009" class="node">
<title>Node9</title>
<g id="a_Node000009"><a xlink:href="classpolyfem_1_1_state.html#acc61dcd623eec2308480c5c082da3d9e" target="_top" xlink:title="saves all data on the disk according to the input params">
<polygon fill="white" stroke="#666666" points="400,-342.5 247,-342.5 247,-323.5 400,-323.5 400,-342.5"/>
<text text-anchor="middle" x="323.5" y="-330.5" font-family="Helvetica,sans-Serif" font-size="10.00">polyfem::State::export_data</text>
</a>
</g>
</g>
<!-- Node8&#45;&gt;Node9 -->
<g id="edge8_Node000008_Node000009" class="edge">
<title>Node8&#45;&gt;Node9</title>
<g id="a_edge8_Node000008_Node000009"><a xlink:title=" ">
<path fill="none" stroke="#63b8ff" d="M782.81,-332.15C679.11,-332.34 501.02,-332.67 400.09,-332.86"/>
<polygon fill="#63b8ff" stroke="#63b8ff" points="782.92,-335.65 792.92,-332.13 782.91,-328.65 782.92,-335.65"/>
</a>
</g>
</g>
<!-- Node9&#45;&gt;Node4 -->
<g id="edge9_Node000009_Node000004" class="edge">
<title>Node9&#45;&gt;Node4</title>
<g id="a_edge9_Node000009_Node000004"><a xlink:title=" ">
<path fill="none" stroke="#63b8ff" d="M236.82,-333C224.12,-333 211.33,-333 199.5,-333"/>
<polygon fill="#63b8ff" stroke="#63b8ff" points="236.97,-336.5 246.97,-333 236.97,-329.5 236.97,-336.5"/>
</a>
</g>
</g>
<!-- Node11 -->
<g id="Node000011" class="node">
<title>Node11</title>
<g id="a_Node000011"><a xlink:href="classpolyfem_1_1_state.html#acdb194af25d840fa14cec97b19e04577" target="_top" xlink:title="solves nonlinear problems">
<polygon fill="white" stroke="#666666" points="757,-297 636,-297 636,-267 757,-267 757,-297"/>
<text text-anchor="start" x="644" y="-285" font-family="Helvetica,sans-Serif" font-size="10.00">polyfem::State::solve</text>
<text text-anchor="middle" x="696.5" y="-274" font-family="Helvetica,sans-Serif" font-size="10.00">_tensor_nonlinear</text>
</a>
</g>
</g>
<!-- Node10&#45;&gt;Node11 -->
<g id="edge11_Node000010_Node000011" class="edge">
<title>Node10&#45;&gt;Node11</title>
<g id="a_edge11_Node000010_Node000011"><a xlink:title=" ">
<path fill="none" stroke="#63b8ff" d="M795.64,-282C782.86,-282 769.6,-282 757.11,-282"/>
<polygon fill="#63b8ff" stroke="#63b8ff" points="795.77,-285.5 805.77,-282 795.77,-278.5 795.77,-285.5"/>
</a>
</g>
</g>
<!-- Node12 -->
<g id="Node000012" class="node">
<title>Node12</title>
<g id="a_Node000012"><a xlink:href="classpolyfem_1_1_state.html#a7450ef7c42dd9c523e1be73a5819117d" target="_top" xlink:title="solves the problems">
<polygon fill="white" stroke="#666666" points="384,-198 263,-198 263,-168 384,-168 384,-198"/>
<text text-anchor="start" x="271" y="-186" font-family="Helvetica,sans-Serif" font-size="10.00">polyfem::State::solve</text>
<text text-anchor="middle" x="323.5" y="-175" font-family="Helvetica,sans-Serif" font-size="10.00">_problem</text>
</a>
</g>
</g>
<!-- Node11&#45;&gt;Node12 -->
<g id="edge12_Node000011_Node000012" class="edge">
<title>Node11&#45;&gt;Node12</title>
<g id="a_edge12_Node000011_Node000012"><a xlink:title=" ">
<path fill="none" stroke="#63b8ff" d="M625.82,-293.83C572.16,-299.99 497.08,-302.07 436,-279 392.51,-262.57 354.5,-220.98 336.16,-198.31"/>
<polygon fill="#63b8ff" stroke="#63b8ff" points="626.41,-297.28 635.92,-292.59 625.56,-290.33 626.41,-297.28"/>
</a>
</g>
</g>
<!-- Node15 -->
<g id="Node000015" class="node">
<title>Node15</title>
<g id="a_Node000015"><a xlink:href="classpolyfem_1_1_state.html#a4d91e8c971fc121b0cff2f0c02ca79e7" target="_top" xlink:title="solves transient tensor nonlinear problem">
<polygon fill="white" stroke="#666666" points="594,-270 442,-270 442,-240 594,-240 594,-270"/>
<text text-anchor="start" x="450" y="-258" font-family="Helvetica,sans-Serif" font-size="10.00">polyfem::State::solve</text>
<text text-anchor="middle" x="518" y="-247" font-family="Helvetica,sans-Serif" font-size="10.00">_transient_tensor_nonlinear</text>
</a>
</g>
</g>
<!-- Node11&#45;&gt;Node15 -->
<g id="edge16_Node000011_Node000015" class="edge">
<title>Node11&#45;&gt;Node15</title>
<g id="a_edge16_Node000011_Node000015"><a xlink:title=" ">
<path fill="none" stroke="#63b8ff" d="M625.86,-271.35C615.4,-269.75 604.59,-268.09 594.03,-266.48"/>
<polygon fill="#63b8ff" stroke="#63b8ff" points="625.33,-274.81 635.75,-272.86 626.39,-267.89 625.33,-274.81"/>
</a>
</g>
</g>
<!-- Node12&#45;&gt;Node4 -->
<g id="edge13_Node000012_Node000004" class="edge">
<title>Node12&#45;&gt;Node4</title>
<g id="a_edge13_Node000012_Node000004"><a xlink:title=" ">
<path fill="none" stroke="#63b8ff" d="M296.66,-204.83C257.38,-238.03 184.26,-299.82 156.28,-323.46"/>
<polygon fill="#63b8ff" stroke="#63b8ff" points="299.12,-207.34 304.5,-198.21 294.61,-201.99 299.12,-207.34"/>
</a>
</g>
</g>
<!-- Node13 -->
<g id="Node000013" class="node">
<title>Node13</title>
<g id="a_Node000013"><a xlink:href="classpolyfem_1_1_state.html#a219f9935d918f739d82488449bd4cbf4" target="_top" xlink:title="solves the problem, call other methods">
<polygon fill="white" stroke="#666666" points="204.5,-214.5 83.5,-214.5 83.5,-195.5 204.5,-195.5 204.5,-214.5"/>
<text text-anchor="middle" x="144" y="-202.5" font-family="Helvetica,sans-Serif" font-size="10.00">polyfem::State::solve</text>
</a>
</g>
</g>
<!-- Node12&#45;&gt;Node13 -->
<g id="edge14_Node000012_Node000013" class="edge">
<title>Node12&#45;&gt;Node13</title>
<g id="a_edge14_Node000012_Node000013"><a xlink:title=" ">
<path fill="none" stroke="#63b8ff" d="M252.64,-191.66C236.8,-193.62 220.12,-195.69 204.74,-197.6"/>
<polygon fill="#63b8ff" stroke="#63b8ff" points="253.41,-195.09 262.9,-190.39 252.55,-188.14 253.41,-195.09"/>
</a>
</g>
</g>
<!-- Node14 -->
<g id="Node000014" class="node">
<title>Node14</title>
<g id="a_Node000014"><a xlink:href="structpolyfem_1_1solver_1_1_adjoint_opt_utils.html#acac3e8ce8646ddd1544ed034c71bec96" target="_top" xlink:title=" ">
<polygon fill="white" stroke="#666666" points="211,-177 77,-177 77,-147 211,-147 211,-177"/>
<text text-anchor="start" x="85" y="-165" font-family="Helvetica,sans-Serif" font-size="10.00">polyfem::solver::Adjoint</text>
<text text-anchor="middle" x="144" y="-154" font-family="Helvetica,sans-Serif" font-size="10.00">OptUtils::solve_pde</text>
</a>
</g>
</g>
<!-- Node12&#45;&gt;Node14 -->
<g id="edge15_Node000012_Node000014" class="edge">
<title>Node12&#45;&gt;Node14</title>
<g id="a_edge15_Node000012_Node000014"><a xlink:title=" ">
<path fill="none" stroke="#63b8ff" d="M252.61,-174.73C238.96,-173.12 224.68,-171.43 211.16,-169.83"/>
<polygon fill="#63b8ff" stroke="#63b8ff" points="252.56,-178.25 262.9,-175.95 253.38,-171.3 252.56,-178.25"/>
</a>
</g>
</g>
<!-- Node15&#45;&gt;Node12 -->
<g id="edge17_Node000015_Node000012" class="edge">
<title>Node15&#45;&gt;Node12</title>
<g id="a_edge17_Node000015_Node000012"><a xlink:title=" ">
<path fill="none" stroke="#63b8ff" d="M452.97,-236.8C447.21,-234.93 441.48,-232.98 436,-231 408.85,-221.17 378.83,-208.12 356.78,-198.1"/>
<polygon fill="#63b8ff" stroke="#63b8ff" points="452.09,-240.19 462.68,-239.87 454.21,-233.52 452.09,-240.19"/>
</a>
</g>
</g>
<!-- Node16&#45;&gt;Node15 -->
<g id="edge29_Node000016_Node000015" class="edge">
<title>Node16&#45;&gt;Node15</title>
<g id="a_edge29_Node000016_Node000015"><a xlink:title=" ">
<path fill="none" stroke="#63b8ff" d="M671.3,-181.15C652.91,-196.96 626.37,-217.7 600,-231 593.32,-234.37 586.09,-237.35 578.79,-239.96"/>
<polygon fill="#63b8ff" stroke="#63b8ff" points="673.93,-183.5 679.14,-174.27 669.32,-178.23 673.93,-183.5"/>
</a>
</g>
</g>
<!-- Node17 -->
<g id="Node000017" class="node">
<title>Node17</title>
<g id="a_Node000017"><a xlink:href="classpolyfem_1_1_state.html#ac5c4dd2be369c759c68e0a36a45bfcc7" target="_top" xlink:title="initialize solver">
<polygon fill="white" stroke="#666666" points="573,-222 463,-222 463,-192 573,-192 573,-222"/>
<text text-anchor="start" x="471" y="-210" font-family="Helvetica,sans-Serif" font-size="10.00">polyfem::State::init</text>
<text text-anchor="middle" x="518" y="-199" font-family="Helvetica,sans-Serif" font-size="10.00">_solve</text>
</a>
</g>
</g>
<!-- Node16&#45;&gt;Node17 -->
<g id="edge19_Node000016_Node000017" class="edge">
<title>Node16&#45;&gt;Node17</title>
<g id="a_edge19_Node000016_Node000017"><a xlink:title=" ">
<path fill="none" stroke="#63b8ff" d="M630.46,-176.69C611.65,-181.8 591.33,-187.33 573.26,-192.24"/>
<polygon fill="#63b8ff" stroke="#63b8ff" points="631.41,-180.06 640.14,-174.06 629.57,-173.3 631.41,-180.06"/>
</a>
</g>
</g>
<!-- Node18 -->
<g id="Node000018" class="node">
<title>Node18</title>
<g id="a_Node000018"><a xlink:href="classpolyfem_1_1_state.html#a711a7162a063d7534b03d9ff9acb93f0" target="_top" xlink:title=" ">
<polygon fill="white" stroke="#666666" points="578.5,-174 457.5,-174 457.5,-144 578.5,-144 578.5,-174"/>
<text text-anchor="start" x="465.5" y="-162" font-family="Helvetica,sans-Serif" font-size="10.00">polyfem::State::solve</text>
<text text-anchor="middle" x="518" y="-151" font-family="Helvetica,sans-Serif" font-size="10.00">_homogenization</text>
</a>
</g>
</g>
<!-- Node16&#45;&gt;Node18 -->
<g id="edge21_Node000016_Node000018" class="edge">
<title>Node16&#45;&gt;Node18</title>
<g id="a_edge21_Node000016_Node000018"><a xlink:title=" ">
<path fill="none" stroke="#63b8ff" d="M626.92,-159C611.02,-159 594.22,-159 578.73,-159"/>
<polygon fill="#63b8ff" stroke="#63b8ff" points="627.22,-162.5 637.22,-159 627.22,-155.5 627.22,-162.5"/>
</a>
</g>
</g>
<!-- Node19 -->
<g id="Node000019" class="node">
<title>Node19</title>
<g id="a_Node000019"><a xlink:href="classpolyfem_1_1_state.html#af5afb70dc127d3ce190116321e83f190" target="_top" xlink:title="solves transient linear problem">
<polygon fill="white" stroke="#666666" points="578.5,-126 457.5,-126 457.5,-96 578.5,-96 578.5,-126"/>
<text text-anchor="start" x="465.5" y="-114" font-family="Helvetica,sans-Serif" font-size="10.00">polyfem::State::solve</text>
<text text-anchor="middle" x="518" y="-103" font-family="Helvetica,sans-Serif" font-size="10.00">_transient_linear</text>
</a>
</g>
</g>
<!-- Node16&#45;&gt;Node19 -->
<g id="edge23_Node000016_Node000019" class="edge">
<title>Node16&#45;&gt;Node19</title>
<g id="a_edge23_Node000016_Node000019"><a xlink:title=" ">
<path fill="none" stroke="#63b8ff" d="M630.35,-141.28C611.89,-136.26 591.97,-130.85 574.16,-126"/>
<polygon fill="#63b8ff" stroke="#63b8ff" points="629.57,-144.7 640.14,-143.94 631.41,-137.94 629.57,-144.7"/>
</a>
</g>
</g>
<!-- Node20 -->
<g id="Node000020" class="node">
<title>Node20</title>
<g id="a_Node000020"><a xlink:href="classpolyfem_1_1_state.html#ac42074a324e693f8eef5d7a96a56dc38" target="_top" xlink:title="solves transient navier stokes with FEM">
<polygon fill="white" stroke="#666666" points="587,-78 449,-78 449,-48 587,-48 587,-78"/>
<text text-anchor="start" x="457" y="-66" font-family="Helvetica,sans-Serif" font-size="10.00">polyfem::State::solve</text>
<text text-anchor="middle" x="518" y="-55" font-family="Helvetica,sans-Serif" font-size="10.00">_transient_navier_stokes</text>
</a>
</g>
</g>
<!-- Node16&#45;&gt;Node20 -->
<g id="edge25_Node000016_Node000020" class="edge">
<title>Node16&#45;&gt;Node20</title>
<g id="a_edge25_Node000016_Node000020"><a xlink:title=" ">
<path fill="none" stroke="#63b8ff" d="M671.3,-136.85C652.91,-121.04 626.37,-100.3 600,-87 593.32,-83.63 586.09,-80.65 578.79,-78.04"/>
<polygon fill="#63b8ff" stroke="#63b8ff" points="669.32,-139.77 679.14,-143.73 673.93,-134.5 669.32,-139.77"/>
</a>
</g>
</g>
<!-- Node21 -->
<g id="Node000021" class="node">
<title>Node21</title>
<g id="a_Node000021"><a xlink:href="classpolyfem_1_1_state.html#a9fa28a682c746974ee171d8cfa6a8558" target="_top" xlink:title="solves transient navier stokes with operator splitting">
<polygon fill="white" stroke="#666666" points="600,-30 436,-30 436,0 600,0 600,-30"/>
<text text-anchor="start" x="444" y="-18" font-family="Helvetica,sans-Serif" font-size="10.00">polyfem::State::solve</text>
<text text-anchor="middle" x="518" y="-7" font-family="Helvetica,sans-Serif" font-size="10.00">_transient_navier_stokes_split</text>
</a>
</g>
</g>
<!-- Node16&#45;&gt;Node21 -->
<g id="edge27_Node000016_Node000021" class="edge">
<title>Node16&#45;&gt;Node21</title>
<g id="a_edge27_Node000016_Node000021"><a xlink:title=" ">
<path fill="none" stroke="#63b8ff" d="M682.34,-134.72C666.37,-107.5 636.93,-63.9 600,-39 594.89,-35.56 589.28,-32.6 583.47,-30.05"/>
<polygon fill="#63b8ff" stroke="#63b8ff" points="679.42,-136.67 687.42,-143.61 685.5,-133.19 679.42,-136.67"/>
</a>
</g>
</g>
<!-- Node17&#45;&gt;Node12 -->
<g id="edge20_Node000017_Node000012" class="edge">
<title>Node17&#45;&gt;Node12</title>
<g id="a_edge20_Node000017_Node000012"><a xlink:title=" ">
<path fill="none" stroke="#63b8ff" d="M452.9,-199.01C430.77,-196.25 406.08,-193.17 384.31,-190.46"/>
<polygon fill="#63b8ff" stroke="#63b8ff" points="452.51,-202.49 462.87,-200.25 453.38,-195.54 452.51,-202.49"/>
</a>
</g>
</g>
<!-- Node18&#45;&gt;Node12 -->
<g id="edge22_Node000018_Node000012" class="edge">
<title>Node18&#45;&gt;Node12</title>
<g id="a_edge22_Node000018_Node000012"><a xlink:title=" ">
<path fill="none" stroke="#63b8ff" d="M447.4,-167.68C426.68,-170.26 404.17,-173.07 384.14,-175.56"/>
<polygon fill="#63b8ff" stroke="#63b8ff" points="447.92,-171.14 457.41,-166.43 447.05,-164.19 447.92,-171.14"/>
</a>
</g>
</g>
<!-- Node19&#45;&gt;Node12 -->
<g id="edge24_Node000019_Node000012" class="edge">
<title>Node19&#45;&gt;Node12</title>
<g id="a_edge24_Node000019_Node000012"><a xlink:title=" ">
<path fill="none" stroke="#63b8ff" d="M452.97,-129.2C447.21,-131.07 441.48,-133.02 436,-135 408.85,-144.83 378.83,-157.88 356.78,-167.9"/>
<polygon fill="#63b8ff" stroke="#63b8ff" points="454.21,-132.48 462.68,-126.13 452.09,-125.81 454.21,-132.48"/>
</a>
</g>
</g>
<!-- Node20&#45;&gt;Node12 -->
<g id="edge26_Node000020_Node000012" class="edge">
<title>Node20&#45;&gt;Node12</title>
<g id="a_edge26_Node000020_Node000012"><a xlink:title=" ">
<path fill="none" stroke="#63b8ff" d="M446.24,-81.98C442.72,-83.54 439.28,-85.21 436,-87 396.09,-108.78 357.77,-146.68 338.13,-167.76"/>
<polygon fill="#63b8ff" stroke="#63b8ff" points="447.78,-85.13 455.71,-78.11 445.13,-78.65 447.78,-85.13"/>
</a>
</g>
</g>
<!-- Node21&#45;&gt;Node12 -->
<g id="edge28_Node000021_Node000012" class="edge">
<title>Node21&#45;&gt;Node12</title>
<g id="a_edge28_Node000021_Node000012"><a xlink:title=" ">
<path fill="none" stroke="#63b8ff" d="M443.02,-34.67C440.6,-36.02 438.25,-37.46 436,-39 385.37,-73.63 347.45,-138.47 332.04,-167.85"/>
<polygon fill="#63b8ff" stroke="#63b8ff" points="444.68,-37.75 452.07,-30.17 441.56,-31.49 444.68,-37.75"/>
</a>
</g>
</g>
<!-- Node22&#45;&gt;Node7 -->
<g id="edge31_Node000022_Node000007" class="edge">
<title>Node22&#45;&gt;Node7</title>
<g id="a_edge31_Node000022_Node000007"><a xlink:title=" ">
<path fill="none" stroke="#63b8ff" d="M1142.83,-280.91C1134.21,-281.01 1125.49,-281.11 1117,-281.2"/>
<polygon fill="#63b8ff" stroke="#63b8ff" points="1142.92,-284.41 1152.88,-280.8 1142.84,-277.41 1142.92,-284.41"/>
</a>
</g>
</g>
</g>
</svg>
