<?xml version="1.0" encoding="UTF-8" standalone="no"?>
<!DOCTYPE svg PUBLIC "-//W3C//DTD SVG 1.1//EN"
 "http://www.w3.org/Graphics/SVG/1.1/DTD/svg11.dtd">
<!-- Generated by graphviz version 2.43.0 (0)
 -->
<!-- Title: polyfem::solver::SpatialIntegralForm::compute_partial_gradient_step Pages: 1 -->
<svg width="1137pt" height="725pt"
 viewBox="0.00 0.00 1137.00 724.50" xmlns="http://www.w3.org/2000/svg" xmlns:xlink="http://www.w3.org/1999/xlink">
<g id="graph0" class="graph" transform="scale(1 1) rotate(0) translate(4 720.5)">
<title>polyfem::solver::SpatialIntegralForm::compute_partial_gradient_step</title>
<!-- Node1 -->
<g id="Node000001" class="node">
<title>Node1</title>
<g id="a_Node000001"><a xlink:title=" ">
<polygon fill="#999999" stroke="#666666" points="133,-352.5 0,-352.5 0,-311.5 133,-311.5 133,-352.5"/>
<text text-anchor="start" x="8" y="-340.5" font-family="Helvetica,sans-Serif" font-size="10.00">polyfem::solver::Spatial</text>
<text text-anchor="start" x="8" y="-329.5" font-family="Helvetica,sans-Serif" font-size="10.00">IntegralForm::compute</text>
<text text-anchor="middle" x="66.5" y="-318.5" font-family="Helvetica,sans-Serif" font-size="10.00">_partial_gradient_step</text>
</a>
</g>
</g>
<!-- Node2 -->
<g id="Node000002" class="node">
<title>Node2</title>
<g id="a_Node000002"><a xlink:href="classpolyfem_1_1solver_1_1_variable_to_simulation_group.html#a88d749c30d57b09dabc3a76916c05505" target="_top" xlink:title="Compute parametrization jacobian for all var2sim matching parameter type and output to target state.">
<polygon fill="white" stroke="#666666" points="315,-716.5 169,-716.5 169,-675.5 315,-675.5 315,-716.5"/>
<text text-anchor="start" x="177" y="-704.5" font-family="Helvetica,sans-Serif" font-size="10.00">polyfem::solver::Variable</text>
<text text-anchor="start" x="177" y="-693.5" font-family="Helvetica,sans-Serif" font-size="10.00">ToSimulationGroup::apply</text>
<text text-anchor="middle" x="242" y="-682.5" font-family="Helvetica,sans-Serif" font-size="10.00">_parametrization_jacobian</text>
</a>
</g>
</g>
<!-- Node1&#45;&gt;Node2 -->
<g id="edge1_Node000001_Node000002" class="edge">
<title>Node1&#45;&gt;Node2</title>
<g id="a_edge1_Node000001_Node000002"><a xlink:title=" ">
<path fill="none" stroke="#63b8ff" d="M68.36,-352.81C71.73,-409.17 88.27,-566.84 169,-661 171.62,-664.06 174.57,-666.87 177.75,-669.46"/>
<polygon fill="#63b8ff" stroke="#63b8ff" points="175.87,-672.42 186.03,-675.43 179.96,-666.74 175.87,-672.42"/>
</a>
</g>
</g>
<!-- Node3 -->
<g id="Node000003" class="node">
<title>Node3</title>
<g id="a_Node000003"><a xlink:href="classpolyfem_1_1solver_1_1_spatial_integral_form.html#a521f090a0649802d632dd88389d84bd6" target="_top" xlink:title=" ">
<polygon fill="white" stroke="#666666" points="308.5,-261.5 175.5,-261.5 175.5,-220.5 308.5,-220.5 308.5,-261.5"/>
<text text-anchor="start" x="183.5" y="-249.5" font-family="Helvetica,sans-Serif" font-size="10.00">polyfem::solver::Spatial</text>
<text text-anchor="start" x="183.5" y="-238.5" font-family="Helvetica,sans-Serif" font-size="10.00">IntegralForm::compute</text>
<text text-anchor="middle" x="242" y="-227.5" font-family="Helvetica,sans-Serif" font-size="10.00">_adjoint_rhs_step</text>
</a>
</g>
</g>
<!-- Node1&#45;&gt;Node3 -->
<g id="edge2_Node000001_Node000003" class="edge">
<title>Node1&#45;&gt;Node3</title>
<g id="a_edge2_Node000001_Node000003"><a xlink:title=" ">
<path fill="none" stroke="#63b8ff" d="M106.87,-311.35C132.38,-297.97 165.78,-280.45 192.86,-266.25"/>
<polygon fill="#63b8ff" stroke="#63b8ff" points="194.56,-269.31 201.79,-261.57 191.3,-263.11 194.56,-269.31"/>
</a>
</g>
</g>
<!-- Node18 -->
<g id="Node000018" class="node">
<title>Node18</title>
<g id="a_Node000018"><a xlink:href="classpolyfem_1_1solver_1_1_form.html#a9cffeca817d2f65884dbdb0b05dbf8ae" target="_top" xlink:title="Get the form&#39;s multiplicative constant weight.">
<polygon fill="white" stroke="#666666" points="502.5,-109 378.5,-109 378.5,-79 502.5,-79 502.5,-109"/>
<text text-anchor="start" x="386.5" y="-97" font-family="Helvetica,sans-Serif" font-size="10.00">polyfem::solver::Form</text>
<text text-anchor="middle" x="440.5" y="-86" font-family="Helvetica,sans-Serif" font-size="10.00">::weight</text>
</a>
</g>
</g>
<!-- Node1&#45;&gt;Node18 -->
<g id="edge39_Node000001_Node000018" class="edge">
<title>Node1&#45;&gt;Node18</title>
<g id="a_edge39_Node000001_Node000018"><a xlink:title=" ">
<path fill="none" stroke="#63b8ff" d="M79.44,-311.24C96.05,-284.25 128.67,-237.56 169,-212 225.73,-176.05 260.41,-212.13 315,-173 338.44,-156.2 327.68,-135.97 351,-119 356.46,-115.02 362.54,-111.68 368.88,-108.87"/>
<polygon fill="#63b8ff" stroke="#63b8ff" points="370.31,-112.06 378.31,-105.11 367.72,-105.56 370.31,-112.06"/>
</a>
</g>
</g>
<!-- Node19 -->
<g id="Node000019" class="node">
<title>Node19</title>
<g id="a_Node000019"><a xlink:href="namespacepolyfem_1_1solver_1_1_adjoint_tools.html#ab09e63414bd86321dda84c5d367761e2" target="_top" xlink:title=" ">
<polygon fill="white" stroke="#666666" points="530,-410.5 351,-410.5 351,-369.5 530,-369.5 530,-410.5"/>
<text text-anchor="start" x="359" y="-398.5" font-family="Helvetica,sans-Serif" font-size="10.00">polyfem::solver::Adjoint</text>
<text text-anchor="start" x="359" y="-387.5" font-family="Helvetica,sans-Serif" font-size="10.00">Tools::compute_shape_derivative</text>
<text text-anchor="middle" x="440.5" y="-376.5" font-family="Helvetica,sans-Serif" font-size="10.00">_functional_term</text>
</a>
</g>
</g>
<!-- Node1&#45;&gt;Node19 -->
<g id="edge19_Node000001_Node000019" class="edge">
<title>Node1&#45;&gt;Node19</title>
<g id="a_edge19_Node000001_Node000019"><a xlink:title=" ">
<path fill="none" stroke="#63b8ff" d="M133.15,-342.24C190.68,-351.21 275.14,-364.37 340.82,-374.61"/>
<polygon fill="#63b8ff" stroke="#63b8ff" points="340.36,-378.08 350.78,-376.17 341.44,-371.17 340.36,-378.08"/>
</a>
</g>
</g>
<!-- Node32 -->
<g id="Node000032" class="node">
<title>Node32</title>
<g id="a_Node000032"><a xlink:href="namespacepolyfem_1_1utils.html#aafdbbff4a81a4fcba11129097b1109e5" target="_top" xlink:title="Unflatten rowwises, so every dim elements in x become a row.">
<polygon fill="white" stroke="#666666" points="914,-667.5 780,-667.5 780,-648.5 914,-648.5 914,-667.5"/>
<text text-anchor="middle" x="847" y="-655.5" font-family="Helvetica,sans-Serif" font-size="10.00">polyfem::utils::unflatten</text>
</a>
</g>
</g>
<!-- Node1&#45;&gt;Node32 -->
<g id="edge38_Node000001_Node000032" class="edge">
<title>Node1&#45;&gt;Node32</title>
<g id="a_edge38_Node000001_Node000032"><a xlink:title=" ">
<path fill="none" stroke="#63b8ff" d="M92.81,-352.54C162.91,-408.17 367.59,-561.97 566,-628 632.52,-650.14 712.36,-656.89 769.74,-658.54"/>
<polygon fill="#63b8ff" stroke="#63b8ff" points="769.74,-662.04 779.82,-658.79 769.91,-655.05 769.74,-662.04"/>
</a>
</g>
</g>
<!-- Node33 -->
<g id="Node000033" class="node">
<title>Node33</title>
<g id="a_Node000033"><a xlink:href="namespacepolyfem_1_1utils.html#adac090350174847f46edfd397abd4ab4" target="_top" xlink:title="Flatten rowwises.">
<polygon fill="white" stroke="#666666" points="303,-163.5 181,-163.5 181,-144.5 303,-144.5 303,-163.5"/>
<text text-anchor="middle" x="242" y="-151.5" font-family="Helvetica,sans-Serif" font-size="10.00">polyfem::utils::flatten</text>
</a>
</g>
</g>
<!-- Node1&#45;&gt;Node33 -->
<g id="edge37_Node000001_Node000033" class="edge">
<title>Node1&#45;&gt;Node33</title>
<g id="a_edge37_Node000001_Node000033"><a xlink:title=" ">
<path fill="none" stroke="#63b8ff" d="M75.75,-311.36C89.93,-278.44 122.02,-214.08 169,-178 174.48,-173.79 180.73,-170.3 187.21,-167.41"/>
<polygon fill="#63b8ff" stroke="#63b8ff" points="188.81,-170.55 196.8,-163.59 186.22,-164.04 188.81,-170.55"/>
</a>
</g>
</g>
<!-- Node4 -->
<g id="Node000004" class="node">
<title>Node4</title>
<g id="a_Node000004"><a xlink:href="namespacepolyfem_1_1solver_1_1_adjoint_tools.html#a8f75d080a710550a715e8a969068eba8" target="_top" xlink:title=" ">
<polygon fill="white" stroke="#666666" points="507.5,-233 373.5,-233 373.5,-203 507.5,-203 507.5,-233"/>
<text text-anchor="start" x="381.5" y="-221" font-family="Helvetica,sans-Serif" font-size="10.00">polyfem::solver::Adjoint</text>
<text text-anchor="middle" x="440.5" y="-210" font-family="Helvetica,sans-Serif" font-size="10.00">Tools::dJ_du_step</text>
</a>
</g>
</g>
<!-- Node3&#45;&gt;Node4 -->
<g id="edge3_Node000003_Node000004" class="edge">
<title>Node3&#45;&gt;Node4</title>
<g id="a_edge3_Node000003_Node000004"><a xlink:title=" ">
<path fill="none" stroke="#63b8ff" d="M308.7,-233.31C326.13,-231.27 345.1,-229.05 363.05,-226.95"/>
<polygon fill="#63b8ff" stroke="#63b8ff" points="363.66,-230.4 373.19,-225.76 362.85,-223.45 363.66,-230.4"/>
</a>
</g>
</g>
<!-- Node14 -->
<g id="Node000014" class="node">
<title>Node14</title>
<g id="a_Node000014"><a xlink:href="classpolyfem_1_1solver_1_1_spatial_integral_form.html#ac6f9bf7bd979734dad72425a8a48cc65" target="_top" xlink:title=" ">
<polygon fill="white" stroke="#666666" points="512,-340.5 369,-340.5 369,-299.5 512,-299.5 512,-340.5"/>
<text text-anchor="start" x="377" y="-328.5" font-family="Helvetica,sans-Serif" font-size="10.00">polyfem::solver::Spatial</text>
<text text-anchor="start" x="377" y="-317.5" font-family="Helvetica,sans-Serif" font-size="10.00">IntegralForm::get_integral</text>
<text text-anchor="middle" x="440.5" y="-306.5" font-family="Helvetica,sans-Serif" font-size="10.00">_functional</text>
</a>
</g>
</g>
<!-- Node3&#45;&gt;Node14 -->
<g id="edge13_Node000003_Node000014" class="edge">
<title>Node3&#45;&gt;Node14</title>
<g id="a_edge13_Node000003_Node000014"><a xlink:title=" ">
<path fill="none" stroke="#63b8ff" d="M285.68,-261.54C305.37,-270.71 329.17,-281.37 351,-290 356.09,-292.01 361.38,-294.02 366.72,-295.98"/>
<polygon fill="#63b8ff" stroke="#63b8ff" points="365.78,-299.36 376.37,-299.46 368.15,-292.77 365.78,-299.36"/>
</a>
</g>
</g>
<!-- Node15 -->
<g id="Node000015" class="node">
<title>Node15</title>
<g id="a_Node000015"><a xlink:href="classpolyfem_1_1legacy_1_1_state.html#a10f4ad9682019ae610b0a066d02132ec" target="_top" xlink:title=" ">
<polygon fill="white" stroke="#666666" points="503.5,-281 377.5,-281 377.5,-251 503.5,-251 503.5,-281"/>
<text text-anchor="start" x="385.5" y="-269" font-family="Helvetica,sans-Serif" font-size="10.00">polyfem::legacy::State</text>
<text text-anchor="middle" x="440.5" y="-258" font-family="Helvetica,sans-Serif" font-size="10.00">::ndof</text>
</a>
</g>
</g>
<!-- Node3&#45;&gt;Node15 -->
<g id="edge14_Node000003_Node000015" class="edge">
<title>Node3&#45;&gt;Node15</title>
<g id="a_edge14_Node000003_Node000015"><a xlink:title=" ">
<path fill="none" stroke="#63b8ff" d="M308.7,-249.36C327.43,-251.74 347.93,-254.35 367.04,-256.78"/>
<polygon fill="#63b8ff" stroke="#63b8ff" points="366.82,-260.28 377.18,-258.07 367.71,-253.34 366.82,-260.28"/>
</a>
</g>
</g>
<!-- Node16 -->
<g id="Node000016" class="node">
<title>Node16</title>
<g id="a_Node000016"><a xlink:href="classpolyfem_1_1_diff_cache.html#a1e6bc7e6f43aa2345c444fd4cd69865f" target="_top" xlink:title=" ">
<polygon fill="white" stroke="#666666" points="702.5,-30 592.5,-30 592.5,0 702.5,0 702.5,-30"/>
<text text-anchor="start" x="600.5" y="-18" font-family="Helvetica,sans-Serif" font-size="10.00">polyfem::DiffCache</text>
<text text-anchor="middle" x="647.5" y="-7" font-family="Helvetica,sans-Serif" font-size="10.00">::size</text>
</a>
</g>
</g>
<!-- Node3&#45;&gt;Node16 -->
<g id="edge15_Node000003_Node000016" class="edge">
<title>Node3&#45;&gt;Node16</title>
<g id="a_edge15_Node000003_Node000016"><a xlink:title=" ">
<path fill="none" stroke="#63b8ff" d="M284.82,-220.46C304.54,-211.38 328.6,-201.17 351,-194 428.46,-169.2 469.98,-210.88 530,-156 570.15,-119.29 527.36,-77.3 566,-39 570.87,-34.17 576.67,-30.31 582.89,-27.22"/>
<polygon fill="#63b8ff" stroke="#63b8ff" points="584.43,-30.36 592.25,-23.22 581.68,-23.93 584.43,-30.36"/>
</a>
</g>
</g>
<!-- Node17 -->
<g id="Node000017" class="node">
<title>Node17</title>
<g id="a_Node000017"><a xlink:href="classpolyfem_1_1_diff_cache.html#ae435a8a411044eed52863349c48200c6" target="_top" xlink:title=" ">
<polygon fill="white" stroke="#666666" points="501.5,-146.5 379.5,-146.5 379.5,-127.5 501.5,-127.5 501.5,-146.5"/>
<text text-anchor="middle" x="440.5" y="-134.5" font-family="Helvetica,sans-Serif" font-size="10.00">polyfem::DiffCache::u</text>
</a>
</g>
</g>
<!-- Node3&#45;&gt;Node17 -->
<g id="edge16_Node000003_Node000017" class="edge">
<title>Node3&#45;&gt;Node17</title>
<g id="a_edge16_Node000003_Node000017"><a xlink:title=" ">
<path fill="none" stroke="#63b8ff" d="M292.78,-220.43C300.57,-216.21 308.27,-211.38 315,-206 335.01,-190.01 329.58,-175.05 351,-161 357.81,-156.53 365.44,-152.89 373.28,-149.92"/>
<polygon fill="#63b8ff" stroke="#63b8ff" points="374.59,-153.18 382.92,-146.63 372.32,-146.55 374.59,-153.18"/>
</a>
</g>
</g>
<!-- Node3&#45;&gt;Node18 -->
<g id="edge18_Node000003_Node000018" class="edge">
<title>Node3&#45;&gt;Node18</title>
<g id="a_edge18_Node000003_Node000018"><a xlink:title=" ">
<path fill="none" stroke="#63b8ff" d="M296.77,-220.45C303.45,-216.35 309.76,-211.57 315,-206 343.69,-175.53 319.73,-146.81 351,-119 356.21,-114.37 362.22,-110.59 368.6,-107.5"/>
<polygon fill="#63b8ff" stroke="#63b8ff" points="370.32,-110.58 378.17,-103.47 367.6,-104.13 370.32,-110.58"/>
</a>
</g>
</g>
<!-- Node5 -->
<g id="Node000005" class="node">
<title>Node5</title>
<g id="a_Node000005"><a xlink:href="classpolyfem_1_1assembler_1_1_assembly_vals_cache.html#ae6a71006ed00c05812b65401a1c37d5c" target="_top" xlink:title="retrieves cached basis evaluation and geometric for the given element if it doesn&#39;t exist,...">
<polygon fill="white" stroke="#666666" points="708,-329.5 587,-329.5 587,-288.5 708,-288.5 708,-329.5"/>
<text text-anchor="start" x="595" y="-317.5" font-family="Helvetica,sans-Serif" font-size="10.00">polyfem::assembler</text>
<text text-anchor="start" x="595" y="-306.5" font-family="Helvetica,sans-Serif" font-size="10.00">::AssemblyValsCache</text>
<text text-anchor="middle" x="647.5" y="-295.5" font-family="Helvetica,sans-Serif" font-size="10.00">::compute</text>
</a>
</g>
</g>
<!-- Node4&#45;&gt;Node5 -->
<g id="edge4_Node000004_Node000005" class="edge">
<title>Node4&#45;&gt;Node5</title>
<g id="a_edge4_Node000004_Node000005"><a xlink:title=" ">
<path fill="none" stroke="#63b8ff" d="M507.87,-231.77C515.58,-234.59 523.14,-237.96 530,-242 549.77,-253.64 546.78,-266.47 566,-279 569.76,-281.45 573.74,-283.74 577.85,-285.87"/>
<polygon fill="#63b8ff" stroke="#63b8ff" points="576.46,-289.09 586.99,-290.28 579.51,-282.78 576.46,-289.09"/>
</a>
</g>
</g>
<!-- Node6 -->
<g id="Node000006" class="node">
<title>Node6</title>
<g id="a_Node000006"><a xlink:href="classpolyfem_1_1_integrable_functional.html#a54c5ab6e7a025f2018e96ece8a253121" target="_top" xlink:title=" ">
<polygon fill="white" stroke="#666666" points="729,-270 566,-270 566,-240 729,-240 729,-270"/>
<text text-anchor="start" x="574" y="-258" font-family="Helvetica,sans-Serif" font-size="10.00">polyfem::IntegrableFunctional</text>
<text text-anchor="middle" x="647.5" y="-247" font-family="Helvetica,sans-Serif" font-size="10.00">::depend_on_gradu</text>
</a>
</g>
</g>
<!-- Node4&#45;&gt;Node6 -->
<g id="edge5_Node000004_Node000006" class="edge">
<title>Node4&#45;&gt;Node6</title>
<g id="a_edge5_Node000004_Node000006"><a xlink:title=" ">
<path fill="none" stroke="#63b8ff" d="M507.77,-229.96C523.08,-232.72 539.62,-235.71 555.77,-238.62"/>
<polygon fill="#63b8ff" stroke="#63b8ff" points="555.3,-242.1 565.76,-240.43 556.54,-235.21 555.3,-242.1"/>
</a>
</g>
</g>
<!-- Node7 -->
<g id="Node000007" class="node">
<title>Node7</title>
<g id="a_Node000007"><a xlink:href="classpolyfem_1_1_integrable_functional.html#a1bc7359467470e15523c0b91c9f42834" target="_top" xlink:title=" ">
<polygon fill="white" stroke="#666666" points="729,-174 566,-174 566,-144 729,-144 729,-174"/>
<text text-anchor="start" x="574" y="-162" font-family="Helvetica,sans-Serif" font-size="10.00">polyfem::IntegrableFunctional</text>
<text text-anchor="middle" x="647.5" y="-151" font-family="Helvetica,sans-Serif" font-size="10.00">::depend_on_gradu_local</text>
</a>
</g>
</g>
<!-- Node4&#45;&gt;Node7 -->
<g id="edge6_Node000004_Node000007" class="edge">
<title>Node4&#45;&gt;Node7</title>
<g id="a_edge6_Node000004_Node000007"><a xlink:title=" ">
<path fill="none" stroke="#63b8ff" d="M493.76,-202.96C521.47,-194.98 555.69,-185.14 584.71,-176.78"/>
<polygon fill="#63b8ff" stroke="#63b8ff" points="585.69,-180.14 594.33,-174.01 583.76,-173.42 585.69,-180.14"/>
</a>
</g>
</g>
<!-- Node8 -->
<g id="Node000008" class="node">
<title>Node8</title>
<g id="a_Node000008"><a xlink:href="classpolyfem_1_1_integrable_functional.html#a3f6a82f9e52b76ddc73c4cf32d18dddc" target="_top" xlink:title=" ">
<polygon fill="white" stroke="#666666" points="729,-126 566,-126 566,-96 729,-96 729,-126"/>
<text text-anchor="start" x="574" y="-114" font-family="Helvetica,sans-Serif" font-size="10.00">polyfem::IntegrableFunctional</text>
<text text-anchor="middle" x="647.5" y="-103" font-family="Helvetica,sans-Serif" font-size="10.00">::depend_on_u</text>
</a>
</g>
</g>
<!-- Node4&#45;&gt;Node8 -->
<g id="edge7_Node000004_Node000008" class="edge">
<title>Node4&#45;&gt;Node8</title>
<g id="a_edge7_Node000004_Node000008"><a xlink:title=" ">
<path fill="none" stroke="#63b8ff" d="M505.03,-202.97C513.91,-199.26 522.53,-194.67 530,-189 552.97,-171.55 542.8,-152.14 566,-135 568.05,-133.48 570.2,-132.06 572.42,-130.73"/>
<polygon fill="#63b8ff" stroke="#63b8ff" points="574.11,-133.8 581.3,-126.02 570.83,-127.61 574.11,-133.8"/>
</a>
</g>
</g>
<!-- Node9 -->
<g id="Node000009" class="node">
<title>Node9</title>
<g id="a_Node000009"><a xlink:href="classpolyfem_1_1_integrable_functional.html#a87ed851b104868cbbea8c4e09abee313" target="_top" xlink:title=" ">
<polygon fill="white" stroke="#666666" points="729,-222 566,-222 566,-192 729,-192 729,-222"/>
<text text-anchor="start" x="574" y="-210" font-family="Helvetica,sans-Serif" font-size="10.00">polyfem::IntegrableFunctional</text>
<text text-anchor="middle" x="647.5" y="-199" font-family="Helvetica,sans-Serif" font-size="10.00">::dj_dgradu</text>
</a>
</g>
</g>
<!-- Node4&#45;&gt;Node9 -->
<g id="edge8_Node000004_Node000009" class="edge">
<title>Node4&#45;&gt;Node9</title>
<g id="a_edge8_Node000004_Node000009"><a xlink:title=" ">
<path fill="none" stroke="#63b8ff" d="M507.77,-214.44C523.08,-213.62 539.62,-212.73 555.77,-211.87"/>
<polygon fill="#63b8ff" stroke="#63b8ff" points="555.96,-215.36 565.76,-211.33 555.59,-208.37 555.96,-215.36"/>
</a>
</g>
</g>
<!-- Node10 -->
<g id="Node000010" class="node">
<title>Node10</title>
<g id="a_Node000010"><a xlink:href="classpolyfem_1_1_integrable_functional.html#a5424a9cf6b2e8647ccc0d50e5bab2917" target="_top" xlink:title=" ">
<polygon fill="white" stroke="#666666" points="729,-78 566,-78 566,-48 729,-48 729,-78"/>
<text text-anchor="start" x="574" y="-66" font-family="Helvetica,sans-Serif" font-size="10.00">polyfem::IntegrableFunctional</text>
<text text-anchor="middle" x="647.5" y="-55" font-family="Helvetica,sans-Serif" font-size="10.00">::dj_du</text>
</a>
</g>
</g>
<!-- Node4&#45;&gt;Node10 -->
<g id="edge9_Node000004_Node000010" class="edge">
<title>Node4&#45;&gt;Node10</title>
<g id="a_edge9_Node000004_Node000010"><a xlink:title=" ">
<path fill="none" stroke="#63b8ff" d="M507.74,-203.94C515.93,-200.1 523.64,-195.22 530,-189 564.38,-155.39 531.17,-120.14 566,-87 567.12,-85.93 568.29,-84.91 569.5,-83.94"/>
<polygon fill="#63b8ff" stroke="#63b8ff" points="571.71,-86.66 577.99,-78.13 567.76,-80.89 571.71,-86.66"/>
</a>
</g>
</g>
<!-- Node11 -->
<g id="Node000011" class="node">
<title>Node11</title>
<g id="a_Node000011"><a xlink:href="classpolyfem_1_1legacy_1_1_state.html#a0f8666da00462a3d8a1b0cd76c72e92d" target="_top" xlink:title="Get a constant reference to the geometry mapping bases.">
<polygon fill="white" stroke="#666666" points="710.5,-378 584.5,-378 584.5,-348 710.5,-348 710.5,-378"/>
<text text-anchor="start" x="592.5" y="-366" font-family="Helvetica,sans-Serif" font-size="10.00">polyfem::legacy::State</text>
<text text-anchor="middle" x="647.5" y="-355" font-family="Helvetica,sans-Serif" font-size="10.00">::geom_bases</text>
</a>
</g>
</g>
<!-- Node4&#45;&gt;Node11 -->
<g id="edge10_Node000004_Node000011" class="edge">
<title>Node4&#45;&gt;Node11</title>
<g id="a_edge10_Node000004_Node000011"><a xlink:title=" ">
<path fill="none" stroke="#63b8ff" d="M507.54,-228.23C515.76,-231.62 523.53,-236.1 530,-242 563.95,-273.01 532.43,-307.57 566,-339 568.91,-341.73 572.12,-344.14 575.53,-346.29"/>
<polygon fill="#63b8ff" stroke="#63b8ff" points="573.89,-349.38 584.35,-351.07 577.23,-343.23 573.89,-349.38"/>
</a>
</g>
</g>
<!-- Node12 -->
<g id="Node000012" class="node">
<title>Node12</title>
<g id="a_Node000012"><a xlink:href="classpolyfem_1_1legacy_1_1_state.html#a09103939ffb7c7e750909cf260903451" target="_top" xlink:title="check if using iso parametric bases">
<polygon fill="white" stroke="#666666" points="910,-356 784,-356 784,-326 910,-326 910,-356"/>
<text text-anchor="start" x="792" y="-344" font-family="Helvetica,sans-Serif" font-size="10.00">polyfem::legacy::State</text>
<text text-anchor="middle" x="847" y="-333" font-family="Helvetica,sans-Serif" font-size="10.00">::iso_parametric</text>
</a>
</g>
</g>
<!-- Node11&#45;&gt;Node12 -->
<g id="edge11_Node000011_Node000012" class="edge">
<title>Node11&#45;&gt;Node12</title>
<g id="a_edge11_Node000011_Node000012"><a xlink:title=" ">
<path fill="none" stroke="#63b8ff" d="M710.72,-356.07C730.74,-353.84 753.08,-351.35 773.76,-349.05"/>
<polygon fill="#63b8ff" stroke="#63b8ff" points="774.2,-352.52 783.75,-347.93 773.43,-345.56 774.2,-352.52"/>
</a>
</g>
</g>
<!-- Node13 -->
<g id="Node000013" class="node">
<title>Node13</title>
<g id="a_Node000013"><a xlink:href="classpolyfem_1_1legacy_1_1_state.html#abe9d15d78fe8863dab5c3bf3e850a5ad" target="_top" xlink:title=" ">
<polygon fill="white" stroke="#666666" points="1110,-356 984,-356 984,-326 1110,-326 1110,-356"/>
<text text-anchor="start" x="992" y="-344" font-family="Helvetica,sans-Serif" font-size="10.00">polyfem::legacy::State</text>
<text text-anchor="middle" x="1047" y="-333" font-family="Helvetica,sans-Serif" font-size="10.00">::has_periodic_bc</text>
</a>
</g>
</g>
<!-- Node12&#45;&gt;Node13 -->
<g id="edge12_Node000012_Node000013" class="edge">
<title>Node12&#45;&gt;Node13</title>
<g id="a_edge12_Node000012_Node000013"><a xlink:title=" ">
<path fill="none" stroke="#63b8ff" d="M910.11,-341C930.28,-341 952.84,-341 973.69,-341"/>
<polygon fill="#63b8ff" stroke="#63b8ff" points="973.78,-344.5 983.78,-341 973.77,-337.5 973.78,-344.5"/>
</a>
</g>
</g>
<!-- Node17&#45;&gt;Node16 -->
<g id="edge17_Node000017_Node000016" class="edge">
<title>Node17&#45;&gt;Node16</title>
<g id="a_edge17_Node000017_Node000016"><a xlink:title=" ">
<path fill="none" stroke="#63b8ff" d="M501.57,-132.01C511.82,-129.04 521.8,-124.6 530,-118 560.07,-93.82 536.9,-64.34 566,-39 570.91,-34.73 576.55,-31.21 582.52,-28.33"/>
<polygon fill="#63b8ff" stroke="#63b8ff" points="584.26,-31.39 592.12,-24.28 581.55,-24.94 584.26,-31.39"/>
</a>
</g>
</g>
<!-- Node19&#45;&gt;Node5 -->
<g id="edge20_Node000019_Node000005" class="edge">
<title>Node19&#45;&gt;Node5</title>
<g id="a_edge20_Node000019_Node000005"><a xlink:title=" ">
<path fill="none" stroke="#63b8ff" d="M490.73,-369.41C513.56,-359.97 541.09,-348.74 566,-339 570.82,-337.11 575.82,-335.19 580.86,-333.26"/>
<polygon fill="#63b8ff" stroke="#63b8ff" points="582.44,-336.41 590.55,-329.59 579.96,-329.86 582.44,-336.41"/>
</a>
</g>
</g>
<!-- Node19&#45;&gt;Node6 -->
<g id="edge29_Node000019_Node000006" class="edge">
<title>Node19&#45;&gt;Node6</title>
<g id="a_edge29_Node000019_Node000006"><a xlink:title=" ">
<path fill="none" stroke="#63b8ff" d="M502.06,-369.28C512.15,-364.04 521.93,-357.67 530,-350 555.35,-325.89 539.21,-302.5 566,-280 568.01,-278.31 570.13,-276.74 572.35,-275.27"/>
<polygon fill="#63b8ff" stroke="#63b8ff" points="574.35,-278.15 581.26,-270.12 570.85,-272.09 574.35,-278.15"/>
</a>
</g>
</g>
<!-- Node19&#45;&gt;Node9 -->
<g id="edge31_Node000019_Node000009" class="edge">
<title>Node19&#45;&gt;Node9</title>
<g id="a_edge31_Node000019_Node000009"><a xlink:title=" ">
<path fill="none" stroke="#63b8ff" d="M505.07,-369.44C514.36,-364.26 523.11,-357.86 530,-350 566.44,-308.46 526.85,-269.99 566,-231 566.96,-230.04 567.95,-229.13 568.98,-228.25"/>
<polygon fill="#63b8ff" stroke="#63b8ff" points="571.35,-230.85 577.43,-222.18 567.27,-225.17 571.35,-230.85"/>
</a>
</g>
</g>
<!-- Node19&#45;&gt;Node11 -->
<g id="edge34_Node000019_Node000011" class="edge">
<title>Node19&#45;&gt;Node11</title>
<g id="a_edge34_Node000019_Node000011"><a xlink:title=" ">
<path fill="none" stroke="#63b8ff" d="M530.22,-378.31C544.94,-376.38 560.04,-374.39 574.29,-372.51"/>
<polygon fill="#63b8ff" stroke="#63b8ff" points="575.03,-375.94 584.49,-371.17 574.12,-369 575.03,-375.94"/>
</a>
</g>
</g>
<!-- Node20 -->
<g id="Node000020" class="node">
<title>Node20</title>
<g id="a_Node000020"><a xlink:href="classpolyfem_1_1assembler_1_1_element_assembly_values.html#a736c84178a9391358d50b1d984440538" target="_top" xlink:title="computes the per element values at the local (ref el) points (pts) sets basis_values,...">
<polygon fill="white" stroke="#666666" points="719,-533.5 576,-533.5 576,-492.5 719,-492.5 719,-533.5"/>
<text text-anchor="start" x="584" y="-521.5" font-family="Helvetica,sans-Serif" font-size="10.00">polyfem::assembler</text>
<text text-anchor="start" x="584" y="-510.5" font-family="Helvetica,sans-Serif" font-size="10.00">::ElementAssemblyValues</text>
<text text-anchor="middle" x="647.5" y="-499.5" font-family="Helvetica,sans-Serif" font-size="10.00">::compute</text>
</a>
</g>
</g>
<!-- Node19&#45;&gt;Node20 -->
<g id="edge21_Node000019_Node000020" class="edge">
<title>Node19&#45;&gt;Node20</title>
<g id="a_edge21_Node000019_Node000020"><a xlink:title=" ">
<path fill="none" stroke="#63b8ff" d="M464.9,-410.71C488.94,-431.17 528.1,-462.34 566,-483 569.27,-484.78 572.67,-486.5 576.14,-488.16"/>
<polygon fill="#63b8ff" stroke="#63b8ff" points="574.9,-491.44 585.45,-492.37 577.78,-485.06 574.9,-491.44"/>
</a>
</g>
</g>
<!-- Node28 -->
<g id="Node000028" class="node">
<title>Node28</title>
<g id="a_Node000028"><a xlink:href="classpolyfem_1_1_integrable_functional.html#acf54869433421863bf860d9cc13a847b" target="_top" xlink:title=" ">
<polygon fill="white" stroke="#666666" points="729,-474 566,-474 566,-444 729,-444 729,-474"/>
<text text-anchor="start" x="574" y="-462" font-family="Helvetica,sans-Serif" font-size="10.00">polyfem::IntegrableFunctional</text>
<text text-anchor="middle" x="647.5" y="-451" font-family="Helvetica,sans-Serif" font-size="10.00">::depend_on_x</text>
</a>
</g>
</g>
<!-- Node19&#45;&gt;Node28 -->
<g id="edge30_Node000019_Node000028" class="edge">
<title>Node19&#45;&gt;Node28</title>
<g id="a_edge30_Node000019_Node000028"><a xlink:title=" ">
<path fill="none" stroke="#63b8ff" d="M496.12,-410.5C517.78,-418.44 542.97,-427.41 566,-435 572,-436.98 578.27,-438.97 584.56,-440.92"/>
<polygon fill="#63b8ff" stroke="#63b8ff" points="583.81,-444.35 594.4,-443.94 585.87,-437.66 583.81,-444.35"/>
</a>
</g>
</g>
<!-- Node29 -->
<g id="Node000029" class="node">
<title>Node29</title>
<g id="a_Node000029"><a xlink:href="classpolyfem_1_1_integrable_functional.html#ad526e25845a14facfcb83e1691867259" target="_top" xlink:title=" ">
<polygon fill="white" stroke="#666666" points="729,-426 566,-426 566,-396 729,-396 729,-426"/>
<text text-anchor="start" x="574" y="-414" font-family="Helvetica,sans-Serif" font-size="10.00">polyfem::IntegrableFunctional</text>
<text text-anchor="middle" x="647.5" y="-403" font-family="Helvetica,sans-Serif" font-size="10.00">::dj_dx</text>
</a>
</g>
</g>
<!-- Node19&#45;&gt;Node29 -->
<g id="edge32_Node000019_Node000029" class="edge">
<title>Node19&#45;&gt;Node29</title>
<g id="a_edge32_Node000019_Node000029"><a xlink:title=" ">
<path fill="none" stroke="#63b8ff" d="M530.22,-399.09C538.61,-399.95 547.12,-400.82 555.53,-401.68"/>
<polygon fill="#63b8ff" stroke="#63b8ff" points="555.41,-405.19 565.71,-402.72 556.12,-398.22 555.41,-405.19"/>
</a>
</g>
</g>
<!-- Node30 -->
<g id="Node000030" class="node">
<title>Node30</title>
<g id="a_Node000030"><a xlink:href="classpolyfem_1_1_integrable_functional.html#a88cd26e7a7819f41e8c4e79b3f7c1509" target="_top" xlink:title=" ">
<polygon fill="white" stroke="#666666" points="729,-619 566,-619 566,-589 729,-589 729,-619"/>
<text text-anchor="start" x="574" y="-607" font-family="Helvetica,sans-Serif" font-size="10.00">polyfem::IntegrableFunctional</text>
<text text-anchor="middle" x="647.5" y="-596" font-family="Helvetica,sans-Serif" font-size="10.00">::evaluate</text>
</a>
</g>
</g>
<!-- Node19&#45;&gt;Node30 -->
<g id="edge33_Node000019_Node000030" class="edge">
<title>Node19&#45;&gt;Node30</title>
<g id="a_edge33_Node000019_Node000030"><a xlink:title=" ">
<path fill="none" stroke="#63b8ff" d="M449.32,-410.6C465.19,-449.63 504.96,-534.53 566,-580 567.85,-581.38 569.78,-582.68 571.78,-583.91"/>
<polygon fill="#63b8ff" stroke="#63b8ff" points="570.41,-587.15 580.87,-588.83 573.74,-580.99 570.41,-587.15"/>
</a>
</g>
</g>
<!-- Node31 -->
<g id="Node000031" class="node">
<title>Node31</title>
<g id="a_Node000031"><a xlink:href="namespacepolyfem_1_1utils.html#a75043e8afe913f3bc6279fd5349a4fd4" target="_top" xlink:title=" ">
<polygon fill="white" stroke="#666666" points="727,-570.5 568,-570.5 568,-551.5 727,-551.5 727,-570.5"/>
<text text-anchor="middle" x="647.5" y="-558.5" font-family="Helvetica,sans-Serif" font-size="10.00">polyfem::utils::vector2matrix</text>
</a>
</g>
</g>
<!-- Node19&#45;&gt;Node31 -->
<g id="edge35_Node000019_Node000031" class="edge">
<title>Node19&#45;&gt;Node31</title>
<g id="a_edge35_Node000019_Node000031"><a xlink:title=" ">
<path fill="none" stroke="#63b8ff" d="M452.18,-410.55C470.65,-443.91 511.83,-509.5 566,-543 568.65,-544.64 571.44,-546.13 574.32,-547.49"/>
<polygon fill="#63b8ff" stroke="#63b8ff" points="573.18,-550.81 583.76,-551.38 575.85,-544.34 573.18,-550.81"/>
</a>
</g>
</g>
<!-- Node21 -->
<g id="Node000021" class="node">
<title>Node21</title>
<g id="a_Node000021"><a xlink:href="classpolyfem_1_1basis_1_1_element_bases.html#a6936d345f21ed506227618ef65dba6a6" target="_top" xlink:title="evaluate stored bases at given points on the reference element saves results to basis_values">
<polygon fill="white" stroke="#666666" points="929,-404 765,-404 765,-374 929,-374 929,-404"/>
<text text-anchor="start" x="773" y="-392" font-family="Helvetica,sans-Serif" font-size="10.00">polyfem::basis::ElementBases</text>
<text text-anchor="middle" x="847" y="-381" font-family="Helvetica,sans-Serif" font-size="10.00">::evaluate_bases</text>
</a>
</g>
</g>
<!-- Node20&#45;&gt;Node21 -->
<g id="edge22_Node000020_Node000021" class="edge">
<title>Node20&#45;&gt;Node21</title>
<g id="a_edge22_Node000020_Node000021"><a xlink:title=" ">
<path fill="none" stroke="#63b8ff" d="M715.75,-492.49C720.49,-489.7 724.98,-486.55 729,-483 754.93,-460.11 738.43,-436.14 765,-414 767.03,-412.31 769.17,-410.73 771.4,-409.27"/>
<polygon fill="#63b8ff" stroke="#63b8ff" points="773.45,-412.12 780.38,-404.11 769.96,-406.05 773.45,-412.12"/>
</a>
</g>
</g>
<!-- Node23 -->
<g id="Node000023" class="node">
<title>Node23</title>
<g id="a_Node000023"><a xlink:href="classpolyfem_1_1basis_1_1_element_bases.html#a731d20029949bd0255c9af1f91dfa74c" target="_top" xlink:title="evaluate gradient of stored bases at given points on the reference element saves results to basis_val...">
<polygon fill="white" stroke="#666666" points="929,-630 765,-630 765,-600 929,-600 929,-630"/>
<text text-anchor="start" x="773" y="-618" font-family="Helvetica,sans-Serif" font-size="10.00">polyfem::basis::ElementBases</text>
<text text-anchor="middle" x="847" y="-607" font-family="Helvetica,sans-Serif" font-size="10.00">::evaluate_grads</text>
</a>
</g>
</g>
<!-- Node20&#45;&gt;Node23 -->
<g id="edge24_Node000020_Node000023" class="edge">
<title>Node20&#45;&gt;Node23</title>
<g id="a_edge24_Node000020_Node000023"><a xlink:title=" ">
<path fill="none" stroke="#63b8ff" d="M713.92,-533.62C719.23,-536.4 724.34,-539.52 729,-543 750.36,-558.97 743.11,-575.77 765,-591 767.16,-592.5 769.41,-593.91 771.74,-595.23"/>
<polygon fill="#63b8ff" stroke="#63b8ff" points="770.51,-598.53 781.01,-599.91 773.66,-592.28 770.51,-598.53"/>
</a>
</g>
</g>
<!-- Node25 -->
<g id="Node000025" class="node">
<title>Node25</title>
<g id="a_Node000025"><a xlink:href="classpolyfem_1_1assembler_1_1_element_assembly_values.html#a7ce3e8b5fceffa5bdde29ca3ac79459b" target="_top" xlink:title="void finalize(const Eigen::MatrixXd &amp;v, const Eigen::MatrixXd &amp;dx, const Eigen::MatrixXd &amp;dy); void f...">
<polygon fill="white" stroke="#666666" points="918.5,-581.5 775.5,-581.5 775.5,-540.5 918.5,-540.5 918.5,-581.5"/>
<text text-anchor="start" x="783.5" y="-569.5" font-family="Helvetica,sans-Serif" font-size="10.00">polyfem::assembler</text>
<text text-anchor="start" x="783.5" y="-558.5" font-family="Helvetica,sans-Serif" font-size="10.00">::ElementAssemblyValues</text>
<text text-anchor="middle" x="847" y="-547.5" font-family="Helvetica,sans-Serif" font-size="10.00">::finalize2d</text>
</a>
</g>
</g>
<!-- Node20&#45;&gt;Node25 -->
<g id="edge26_Node000020_Node000025" class="edge">
<title>Node20&#45;&gt;Node25</title>
<g id="a_edge26_Node000020_Node000025"><a xlink:title=" ">
<path fill="none" stroke="#63b8ff" d="M719.24,-530.19C734.23,-533.83 750.14,-537.7 765.46,-541.43"/>
<polygon fill="#63b8ff" stroke="#63b8ff" points="764.87,-544.89 775.42,-543.85 766.53,-538.08 764.87,-544.89"/>
</a>
</g>
</g>
<!-- Node26 -->
<g id="Node000026" class="node">
<title>Node26</title>
<g id="a_Node000026"><a xlink:href="classpolyfem_1_1assembler_1_1_element_assembly_values.html#af2830b447f50401acd4e69a57a4b235b" target="_top" xlink:title=" ">
<polygon fill="white" stroke="#666666" points="918.5,-522.5 775.5,-522.5 775.5,-481.5 918.5,-481.5 918.5,-522.5"/>
<text text-anchor="start" x="783.5" y="-510.5" font-family="Helvetica,sans-Serif" font-size="10.00">polyfem::assembler</text>
<text text-anchor="start" x="783.5" y="-499.5" font-family="Helvetica,sans-Serif" font-size="10.00">::ElementAssemblyValues</text>
<text text-anchor="middle" x="847" y="-488.5" font-family="Helvetica,sans-Serif" font-size="10.00">::finalize3d</text>
</a>
</g>
</g>
<!-- Node20&#45;&gt;Node26 -->
<g id="edge27_Node000020_Node000026" class="edge">
<title>Node20&#45;&gt;Node26</title>
<g id="a_edge27_Node000020_Node000026"><a xlink:title=" ">
<path fill="none" stroke="#63b8ff" d="M719.24,-509.06C734.08,-508.23 749.84,-507.36 765.02,-506.51"/>
<polygon fill="#63b8ff" stroke="#63b8ff" points="765.63,-509.98 775.42,-505.93 765.24,-502.99 765.63,-509.98"/>
</a>
</g>
</g>
<!-- Node27 -->
<g id="Node000027" class="node">
<title>Node27</title>
<g id="a_Node000027"><a xlink:href="classpolyfem_1_1assembler_1_1_element_assembly_values.html#abfc70df83b8de385510064a839273131" target="_top" xlink:title=" ">
<polygon fill="white" stroke="#666666" points="918.5,-463.5 775.5,-463.5 775.5,-422.5 918.5,-422.5 918.5,-463.5"/>
<text text-anchor="start" x="783.5" y="-451.5" font-family="Helvetica,sans-Serif" font-size="10.00">polyfem::assembler</text>
<text text-anchor="start" x="783.5" y="-440.5" font-family="Helvetica,sans-Serif" font-size="10.00">::ElementAssemblyValues</text>
<text text-anchor="middle" x="847" y="-429.5" font-family="Helvetica,sans-Serif" font-size="10.00">::finalize_global_element</text>
</a>
</g>
</g>
<!-- Node20&#45;&gt;Node27 -->
<g id="edge28_Node000020_Node000027" class="edge">
<title>Node20&#45;&gt;Node27</title>
<g id="a_edge28_Node000020_Node000027"><a xlink:title=" ">
<path fill="none" stroke="#63b8ff" d="M706.42,-492.47C729.03,-484.46 755.1,-475.22 778.55,-466.91"/>
<polygon fill="#63b8ff" stroke="#63b8ff" points="779.82,-470.17 788.08,-463.53 777.48,-463.57 779.82,-470.17"/>
</a>
</g>
</g>
<!-- Node22 -->
<g id="Node000022" class="node">
<title>Node22</title>
<g id="a_Node000022"><a xlink:href="classpolyfem_1_1basis_1_1_element_bases.html#a9d6e4fd2a6d6491fed600c2a26680d89" target="_top" xlink:title="default to simply calling the Basis evaluation functions">
<polygon fill="white" stroke="#666666" points="1129,-404 965,-404 965,-374 1129,-374 1129,-404"/>
<text text-anchor="start" x="973" y="-392" font-family="Helvetica,sans-Serif" font-size="10.00">polyfem::basis::ElementBases</text>
<text text-anchor="middle" x="1047" y="-381" font-family="Helvetica,sans-Serif" font-size="10.00">::evaluate_bases_default</text>
</a>
</g>
</g>
<!-- Node21&#45;&gt;Node22 -->
<g id="edge23_Node000021_Node000022" class="edge">
<title>Node21&#45;&gt;Node22</title>
<g id="a_edge23_Node000021_Node000022"><a xlink:title=" ">
<path fill="none" stroke="#63b8ff" d="M929.11,-389C937.46,-389 945.99,-389 954.44,-389"/>
<polygon fill="#63b8ff" stroke="#63b8ff" points="954.7,-392.5 964.7,-389 954.7,-385.5 954.7,-392.5"/>
</a>
</g>
</g>
<!-- Node24 -->
<g id="Node000024" class="node">
<title>Node24</title>
<g id="a_Node000024"><a xlink:href="classpolyfem_1_1basis_1_1_element_bases.html#aae3b739e75920739799e866e4b0c448c" target="_top" xlink:title=" ">
<polygon fill="white" stroke="#666666" points="1129,-630 965,-630 965,-600 1129,-600 1129,-630"/>
<text text-anchor="start" x="973" y="-618" font-family="Helvetica,sans-Serif" font-size="10.00">polyfem::basis::ElementBases</text>
<text text-anchor="middle" x="1047" y="-607" font-family="Helvetica,sans-Serif" font-size="10.00">::evaluate_grads_default</text>
</a>
</g>
</g>
<!-- Node23&#45;&gt;Node24 -->
<g id="edge25_Node000023_Node000024" class="edge">
<title>Node23&#45;&gt;Node24</title>
<g id="a_edge25_Node000023_Node000024"><a xlink:title=" ">
<path fill="none" stroke="#63b8ff" d="M929.11,-615C937.46,-615 945.99,-615 954.44,-615"/>
<polygon fill="#63b8ff" stroke="#63b8ff" points="954.7,-618.5 964.7,-615 954.7,-611.5 954.7,-618.5"/>
</a>
</g>
</g>
<!-- Node31&#45;&gt;Node32 -->
<g id="edge36_Node000031_Node000032" class="edge">
<title>Node31&#45;&gt;Node32</title>
<g id="a_edge36_Node000031_Node000032"><a xlink:title=" ">
<path fill="none" stroke="#63b8ff" d="M711.34,-570.55C717.63,-573.03 723.65,-576.12 729,-580 753.87,-598.03 740.12,-620.99 765,-639 767.69,-640.95 770.55,-642.7 773.53,-644.27"/>
<polygon fill="#63b8ff" stroke="#63b8ff" points="772.22,-647.52 782.77,-648.49 775.12,-641.15 772.22,-647.52"/>
</a>
</g>
</g>
</g>
</svg>
