<?xml version="1.0" encoding="UTF-8" standalone="no"?>
<!DOCTYPE svg PUBLIC "-//W3C//DTD SVG 1.1//EN"
 "http://www.w3.org/Graphics/SVG/1.1/DTD/svg11.dtd">
<!-- Generated by graphviz version 2.43.0 (0)
 -->
<!-- Title: polyfem::mesh::LocalMesh::reorder_vertices Pages: 1 -->
<svg width="317pt" height="86pt"
 viewBox="0.00 0.00 317.00 86.00" xmlns="http://www.w3.org/2000/svg" xmlns:xlink="http://www.w3.org/1999/xlink">
<g id="graph0" class="graph" transform="scale(1 1) rotate(0) translate(4 82)">
<title>polyfem::mesh::LocalMesh::reorder_vertices</title>
<!-- Node1 -->
<g id="Node000001" class="node">
<title>Node1</title>
<g id="a_Node000001"><a xlink:title="Reorder the vertices of the local mesh.">
<polygon fill="#999999" stroke="#666666" points="148,-54 0,-54 0,-24 148,-24 148,-54"/>
<text text-anchor="start" x="8" y="-42" font-family="Helvetica,sans-Serif" font-size="10.00">polyfem::mesh::LocalMesh</text>
<text text-anchor="middle" x="74" y="-31" font-family="Helvetica,sans-Serif" font-size="10.00">::reorder_vertices</text>
</a>
</g>
</g>
<!-- Node2 -->
<g id="Node000002" class="node">
<title>Node2</title>
<g id="a_Node000002"><a xlink:href="namespacepolyfem_1_1utils.html#aea6bd161d2a5a24993e13435a0a2ea52" target="_top" xlink:title="Map the entrys of an index matrix to new indices.">
<polygon fill="white" stroke="#666666" points="302.5,-78 190.5,-78 190.5,-48 302.5,-48 302.5,-78"/>
<text text-anchor="start" x="198.5" y="-66" font-family="Helvetica,sans-Serif" font-size="10.00">polyfem::utils::map</text>
<text text-anchor="middle" x="246.5" y="-55" font-family="Helvetica,sans-Serif" font-size="10.00">_index_matrix</text>
</a>
</g>
</g>
<!-- Node1&#45;&gt;Node2 -->
<g id="edge1_Node000001_Node000002" class="edge">
<title>Node1&#45;&gt;Node2</title>
<g id="a_edge1_Node000001_Node000002"><a xlink:title=" ">
<path fill="none" stroke="#63b8ff" d="M148.3,-49.32C158.97,-50.82 169.89,-52.36 180.38,-53.83"/>
<polygon fill="#63b8ff" stroke="#63b8ff" points="179.9,-57.3 190.29,-55.23 180.88,-50.37 179.9,-57.3"/>
</a>
</g>
</g>
<!-- Node3 -->
<g id="Node000003" class="node">
<title>Node3</title>
<g id="a_Node000003"><a xlink:href="namespacepolyfem_1_1utils.html#a4d994983e63be19cec7d739baba363a1" target="_top" xlink:title="Reorder row blocks in a matrix.">
<polygon fill="white" stroke="#666666" points="309,-30 184,-30 184,0 309,0 309,-30"/>
<text text-anchor="start" x="192" y="-18" font-family="Helvetica,sans-Serif" font-size="10.00">polyfem::utils::reorder</text>
<text text-anchor="middle" x="246.5" y="-7" font-family="Helvetica,sans-Serif" font-size="10.00">_matrix</text>
</a>
</g>
</g>
<!-- Node1&#45;&gt;Node3 -->
<g id="edge2_Node000001_Node000003" class="edge">
<title>Node1&#45;&gt;Node3</title>
<g id="a_edge2_Node000001_Node000003"><a xlink:title=" ">
<path fill="none" stroke="#63b8ff" d="M148.3,-28.68C156.7,-27.5 165.27,-26.29 173.65,-25.11"/>
<polygon fill="#63b8ff" stroke="#63b8ff" points="174.36,-28.55 183.77,-23.69 173.38,-21.62 174.36,-28.55"/>
</a>
</g>
</g>
</g>
</svg>
