<?xml version="1.0" encoding="UTF-8" standalone="no"?>
<!DOCTYPE svg PUBLIC "-//W3C//DTD SVG 1.1//EN"
 "http://www.w3.org/Graphics/SVG/1.1/DTD/svg11.dtd">
<!-- Generated by graphviz version 2.43.0 (0)
 -->
<!-- Title: polyfem::io::OutStatsData::compute_mesh_stats Pages: 1 -->
<svg width="385pt" height="64pt"
 viewBox="0.00 0.00 385.00 64.00" xmlns="http://www.w3.org/2000/svg" xmlns:xlink="http://www.w3.org/1999/xlink">
<g id="graph0" class="graph" transform="scale(1 1) rotate(0) translate(4 60)">
<title>polyfem::io::OutStatsData::compute_mesh_stats</title>
<!-- Node1 -->
<g id="node1" class="node">
<title>Node1</title>
<g id="a_node1"><a xlink:title="compute stats (counts els type, mesh lenght, etc), step 1 of solve">
<polygon fill="#999999" stroke="#666666" points="377,-42.5 234,-42.5 234,-12.5 377,-12.5 377,-42.5"/>
<text text-anchor="start" x="242" y="-30.5" font-family="Helvetica,sans-Serif" font-size="10.00">polyfem::io::OutStatsData</text>
<text text-anchor="middle" x="305.5" y="-19.5" font-family="Helvetica,sans-Serif" font-size="10.00">::compute_mesh_stats</text>
</a>
</g>
</g>
<!-- Node2 -->
<g id="node2" class="node">
<title>Node2</title>
<g id="a_node2"><a xlink:href="main_8cpp.html#a48e4775e12bdf81ebb0eaa27df888aa0" target="_top" xlink:title=" ">
<polygon fill="white" stroke="#666666" points="193,-56 82,-56 82,-37 193,-37 193,-56"/>
<text text-anchor="middle" x="137.5" y="-44" font-family="Helvetica,sans-Serif" font-size="10.00">forward_simulation</text>
</a>
</g>
</g>
<!-- Node1&#45;&gt;Node2 -->
<g id="edge1" class="edge">
<title>Node1&#45;&gt;Node2</title>
<path fill="none" stroke="#63b8ff" d="M223.38,-36.78C213.11,-37.96 202.8,-39.14 193.08,-40.25"/>
<polygon fill="#63b8ff" stroke="#63b8ff" points="224.08,-40.23 233.62,-35.61 223.29,-33.27 224.08,-40.23"/>
</g>
<!-- Node4 -->
<g id="node4" class="node">
<title>Node4</title>
<g id="a_node4"><a xlink:href="classpolyfem_1_1_state.html#a219f9935d918f739d82488449bd4cbf4" target="_top" xlink:title="solves the problem, call other methods">
<polygon fill="white" stroke="#666666" points="198,-19 77,-19 77,0 198,0 198,-19"/>
<text text-anchor="middle" x="137.5" y="-7" font-family="Helvetica,sans-Serif" font-size="10.00">polyfem::State::solve</text>
</a>
</g>
</g>
<!-- Node1&#45;&gt;Node4 -->
<g id="edge3" class="edge">
<title>Node1&#45;&gt;Node4</title>
<path fill="none" stroke="#63b8ff" d="M223.6,-18.73C215.03,-17.8 206.44,-16.87 198.18,-15.97"/>
<polygon fill="#63b8ff" stroke="#63b8ff" points="223.3,-22.22 233.62,-19.81 224.06,-15.26 223.3,-22.22"/>
</g>
<!-- Node3 -->
<g id="node3" class="node">
<title>Node3</title>
<g id="a_node3"><a xlink:href="main_8cpp.html#a3c04138a5bfe5d72780bb7e82a18e627" target="_top" xlink:title=" ">
<polygon fill="white" stroke="#666666" points="41,-56 0,-56 0,-37 41,-37 41,-56"/>
<text text-anchor="middle" x="20.5" y="-44" font-family="Helvetica,sans-Serif" font-size="10.00">main</text>
</a>
</g>
</g>
<!-- Node2&#45;&gt;Node3 -->
<g id="edge2" class="edge">
<title>Node2&#45;&gt;Node3</title>
<path fill="none" stroke="#63b8ff" d="M71.45,-46.5C60.37,-46.5 49.66,-46.5 41.02,-46.5"/>
<polygon fill="#63b8ff" stroke="#63b8ff" points="71.69,-50 81.69,-46.5 71.69,-43 71.69,-50"/>
</g>
</g>
</svg>
