<?xml version="1.0" encoding="UTF-8" standalone="no"?>
<!DOCTYPE svg PUBLIC "-//W3C//DTD SVG 1.1//EN"
 "http://www.w3.org/Graphics/SVG/1.1/DTD/svg11.dtd">
<!-- Generated by graphviz version 2.43.0 (0)
 -->
<!-- Title: polyfem::time_integrator::ImplicitNewmark::compute_velocity Pages: 1 -->
<svg width="349pt" height="318pt"
 viewBox="0.00 0.00 349.00 318.00" xmlns="http://www.w3.org/2000/svg" xmlns:xlink="http://www.w3.org/1999/xlink">
<g id="graph0" class="graph" transform="scale(1 1) rotate(0) translate(4 314)">
<title>polyfem::time_integrator::ImplicitNewmark::compute_velocity</title>
<!-- Node1 -->
<g id="node1" class="node">
<title>Node1</title>
<g id="a_node1"><a xlink:title="Compute the current velocity given the current solution and using the stored previous solution(s).">
<polygon fill="#bfbfbf" stroke="black" points="0,-139.5 0,-180.5 155,-180.5 155,-139.5 0,-139.5"/>
<text text-anchor="start" x="8" y="-168.5" font-family="Helvetica,sans-Serif" font-size="10.00">polyfem::time_integrator</text>
<text text-anchor="start" x="8" y="-157.5" font-family="Helvetica,sans-Serif" font-size="10.00">::ImplicitNewmark::compute</text>
<text text-anchor="middle" x="77.5" y="-146.5" font-family="Helvetica,sans-Serif" font-size="10.00">_velocity</text>
</a>
</g>
</g>
<!-- Node2 -->
<g id="node2" class="node">
<title>Node2</title>
<g id="a_node2"><a xlink:href="classpolyfem_1_1time__integrator_1_1_implicit_time_integrator.html#ab2bc11437f8f2f8077ddf4f6e9814d3e" target="_top" xlink:title="Get the most recent previous acceleration value.">
<polygon fill="none" stroke="black" points="196.5,-268.5 196.5,-309.5 335.5,-309.5 335.5,-268.5 196.5,-268.5"/>
<text text-anchor="start" x="204.5" y="-297.5" font-family="Helvetica,sans-Serif" font-size="10.00">polyfem::time_integrator</text>
<text text-anchor="start" x="204.5" y="-286.5" font-family="Helvetica,sans-Serif" font-size="10.00">::ImplicitTimeIntegrator</text>
<text text-anchor="middle" x="266" y="-275.5" font-family="Helvetica,sans-Serif" font-size="10.00">::a_prev</text>
</a>
</g>
</g>
<!-- Node1&#45;&gt;Node2 -->
<g id="edge1" class="edge">
<title>Node1&#45;&gt;Node2</title>
<path fill="none" stroke="midnightblue" d="M97.97,-180.88C119.18,-202.67 154.92,-236.71 191,-259 193.63,-260.62 196.36,-262.19 199.15,-263.7"/>
<polygon fill="midnightblue" stroke="midnightblue" points="197.76,-266.92 208.26,-268.32 200.93,-260.68 197.76,-266.92"/>
</g>
<!-- Node3 -->
<g id="node3" class="node">
<title>Node3</title>
<g id="a_node3"><a xlink:href="classpolyfem_1_1time__integrator_1_1_implicit_newmark.html#a06343b9fb8c270eaaca03b546dd80494" target="_top" xlink:title="parameter for blending accelerations in the solution update.">
<polygon fill="none" stroke="black" points="196.5,-219 196.5,-249 335.5,-249 335.5,-219 196.5,-219"/>
<text text-anchor="start" x="204.5" y="-237" font-family="Helvetica,sans-Serif" font-size="10.00">polyfem::time_integrator</text>
<text text-anchor="middle" x="266" y="-226" font-family="Helvetica,sans-Serif" font-size="10.00">::ImplicitNewmark::beta</text>
</a>
</g>
</g>
<!-- Node1&#45;&gt;Node3 -->
<g id="edge2" class="edge">
<title>Node1&#45;&gt;Node3</title>
<path fill="none" stroke="midnightblue" d="M121.86,-180.55C142.58,-190.03 167.85,-201.13 191,-210 196.04,-211.93 201.32,-213.85 206.63,-215.7"/>
<polygon fill="midnightblue" stroke="midnightblue" points="205.59,-219.05 216.18,-218.97 207.85,-212.42 205.59,-219.05"/>
</g>
<!-- Node4 -->
<g id="node4" class="node">
<title>Node4</title>
<g id="a_node4"><a xlink:href="classpolyfem_1_1time__integrator_1_1_implicit_time_integrator.html#a71f55b2644a8023c1310c756a1f42932" target="_top" xlink:title="Access the time step size.">
<polygon fill="none" stroke="black" points="192,-170 192,-200 340,-200 340,-170 192,-170"/>
<text text-anchor="start" x="200" y="-188" font-family="Helvetica,sans-Serif" font-size="10.00">polyfem::time_integrator</text>
<text text-anchor="middle" x="266" y="-177" font-family="Helvetica,sans-Serif" font-size="10.00">::ImplicitTimeIntegrator::dt</text>
</a>
</g>
</g>
<!-- Node1&#45;&gt;Node4 -->
<g id="edge3" class="edge">
<title>Node1&#45;&gt;Node4</title>
<path fill="none" stroke="midnightblue" d="M155.16,-170.28C164,-171.46 173.03,-172.67 181.95,-173.87"/>
<polygon fill="midnightblue" stroke="midnightblue" points="181.56,-177.35 191.94,-175.21 182.49,-170.41 181.56,-177.35"/>
</g>
<!-- Node5 -->
<g id="node5" class="node">
<title>Node5</title>
<g id="a_node5"><a xlink:href="classpolyfem_1_1time__integrator_1_1_implicit_newmark.html#ab002513111de64bdfa2a223e0445375e" target="_top" xlink:title="parameter for blending accelerations in the velocity update.">
<polygon fill="none" stroke="black" points="191,-121 191,-151 341,-151 341,-121 191,-121"/>
<text text-anchor="start" x="199" y="-139" font-family="Helvetica,sans-Serif" font-size="10.00">polyfem::time_integrator</text>
<text text-anchor="middle" x="266" y="-128" font-family="Helvetica,sans-Serif" font-size="10.00">::ImplicitNewmark::gamma</text>
</a>
</g>
</g>
<!-- Node1&#45;&gt;Node5 -->
<g id="edge4" class="edge">
<title>Node1&#45;&gt;Node5</title>
<path fill="none" stroke="midnightblue" d="M155.16,-150.13C163.61,-149.05 172.25,-147.94 180.78,-146.84"/>
<polygon fill="midnightblue" stroke="midnightblue" points="181.27,-150.3 190.74,-145.56 180.37,-143.36 181.27,-150.3"/>
</g>
<!-- Node6 -->
<g id="node6" class="node">
<title>Node6</title>
<g id="a_node6"><a xlink:href="classpolyfem_1_1time__integrator_1_1_implicit_time_integrator.html#a1c90c8ab75ceea7bfd197921a9b5ad81" target="_top" xlink:title="Get the most recent previous velocity value.">
<polygon fill="none" stroke="black" points="196.5,-60.5 196.5,-101.5 335.5,-101.5 335.5,-60.5 196.5,-60.5"/>
<text text-anchor="start" x="204.5" y="-89.5" font-family="Helvetica,sans-Serif" font-size="10.00">polyfem::time_integrator</text>
<text text-anchor="start" x="204.5" y="-78.5" font-family="Helvetica,sans-Serif" font-size="10.00">::ImplicitTimeIntegrator</text>
<text text-anchor="middle" x="266" y="-67.5" font-family="Helvetica,sans-Serif" font-size="10.00">::v_prev</text>
</a>
</g>
</g>
<!-- Node1&#45;&gt;Node6 -->
<g id="edge5" class="edge">
<title>Node1&#45;&gt;Node6</title>
<path fill="none" stroke="midnightblue" d="M126.37,-139.49C146.34,-130.96 169.78,-120.97 191,-112 195.97,-109.9 201.13,-107.72 206.31,-105.54"/>
<polygon fill="midnightblue" stroke="midnightblue" points="207.76,-108.73 215.62,-101.63 205.05,-102.28 207.76,-108.73"/>
</g>
<!-- Node7 -->
<g id="node7" class="node">
<title>Node7</title>
<g id="a_node7"><a xlink:href="classpolyfem_1_1time__integrator_1_1_implicit_time_integrator.html#a2fe34aebb01d011703495a63a0dc5eb0" target="_top" xlink:title="Get the most recent previous solution value.">
<polygon fill="none" stroke="black" points="196.5,-0.5 196.5,-41.5 335.5,-41.5 335.5,-0.5 196.5,-0.5"/>
<text text-anchor="start" x="204.5" y="-29.5" font-family="Helvetica,sans-Serif" font-size="10.00">polyfem::time_integrator</text>
<text text-anchor="start" x="204.5" y="-18.5" font-family="Helvetica,sans-Serif" font-size="10.00">::ImplicitTimeIntegrator</text>
<text text-anchor="middle" x="266" y="-7.5" font-family="Helvetica,sans-Serif" font-size="10.00">::x_prev</text>
</a>
</g>
</g>
<!-- Node1&#45;&gt;Node7 -->
<g id="edge6" class="edge">
<title>Node1&#45;&gt;Node7</title>
<path fill="none" stroke="midnightblue" d="M95.31,-139.48C115.8,-115.55 152.49,-76.09 191,-51 193.45,-49.4 196,-47.87 198.61,-46.39"/>
<polygon fill="midnightblue" stroke="midnightblue" points="200.49,-49.36 207.71,-41.61 197.23,-43.16 200.49,-49.36"/>
</g>
</g>
</svg>
