<?xml version="1.0" encoding="UTF-8" standalone="no"?>
<!DOCTYPE svg PUBLIC "-//W3C//DTD SVG 1.1//EN"
 "http://www.w3.org/Graphics/SVG/1.1/DTD/svg11.dtd">
<!-- Generated by graphviz version 2.43.0 (0)
 -->
<!-- Title: polyfem::solver::NLProblem::current_size Pages: 1 -->
<svg width="1693pt" height="671pt"
 viewBox="0.00 0.00 1693.00 670.59" xmlns="http://www.w3.org/2000/svg" xmlns:xlink="http://www.w3.org/1999/xlink">
<g id="graph0" class="graph" transform="scale(1 1) rotate(0) translate(4 666.59)">
<title>polyfem::solver::NLProblem::current_size</title>
<!-- Node1 -->
<g id="Node000001" class="node">
<title>Node1</title>
<g id="a_Node000001"><a xlink:title=" ">
<polygon fill="#999999" stroke="#666666" points="1685,-349 1533,-349 1533,-319 1685,-319 1685,-349"/>
<text text-anchor="start" x="1541" y="-337" font-family="Helvetica,sans-Serif" font-size="10.00">polyfem::solver::NLProblem</text>
<text text-anchor="middle" x="1609" y="-326" font-family="Helvetica,sans-Serif" font-size="10.00">::current_size</text>
</a>
</g>
</g>
<!-- Node2 -->
<g id="Node000002" class="node">
<title>Node2</title>
<g id="a_Node000002"><a xlink:href="classpolyfem_1_1solver_1_1_n_l_problem.html#a7000e6d7044be55a8bdb4db462f95d91" target="_top" xlink:title=" ">
<polygon fill="white" stroke="#666666" points="1121,-518 969,-518 969,-488 1121,-488 1121,-518"/>
<text text-anchor="start" x="977" y="-506" font-family="Helvetica,sans-Serif" font-size="10.00">polyfem::solver::NLProblem</text>
<text text-anchor="middle" x="1045" y="-495" font-family="Helvetica,sans-Serif" font-size="10.00">::full_to_reduced</text>
</a>
</g>
</g>
<!-- Node1&#45;&gt;Node2 -->
<g id="edge1_Node000001_Node000002" class="edge">
<title>Node1&#45;&gt;Node2</title>
<g id="a_edge1_Node000001_Node000002"><a xlink:title=" ">
<path fill="none" stroke="#63b8ff" d="M1592.45,-357.61C1553.19,-414.82 1443.49,-560 1309,-613 1246.15,-637.77 1219.47,-638.71 1157,-613 1109.83,-593.59 1072.08,-543.36 1055.35,-518.05"/>
<polygon fill="#63b8ff" stroke="#63b8ff" points="1595.43,-359.46 1598.15,-349.22 1589.64,-355.53 1595.43,-359.46"/>
</a>
</g>
</g>
<!-- Node15 -->
<g id="Node000015" class="node">
<title>Node15</title>
<g id="a_Node000015"><a xlink:href="classpolyfem_1_1solver_1_1_n_l_problem.html#ac5391ca8bfaf7182e806ea462405c8a9" target="_top" xlink:title=" ">
<polygon fill="white" stroke="#666666" points="1309,-30 1157,-30 1157,0 1309,0 1309,-30"/>
<text text-anchor="start" x="1165" y="-18" font-family="Helvetica,sans-Serif" font-size="10.00">polyfem::solver::NLProblem</text>
<text text-anchor="middle" x="1233" y="-7" font-family="Helvetica,sans-Serif" font-size="10.00">::hessian</text>
</a>
</g>
</g>
<!-- Node1&#45;&gt;Node15 -->
<g id="edge18_Node000001_Node000015" class="edge">
<title>Node1&#45;&gt;Node15</title>
<g id="a_edge18_Node000001_Node000015"><a xlink:title=" ">
<path fill="none" stroke="#63b8ff" d="M1587.3,-311.49C1540.78,-261.68 1423.07,-139.97 1309,-57 1295.12,-46.9 1278.58,-37.4 1264.56,-30"/>
<polygon fill="#63b8ff" stroke="#63b8ff" points="1584.78,-313.91 1594.15,-318.85 1589.9,-309.14 1584.78,-313.91"/>
</a>
</g>
</g>
<!-- Node16 -->
<g id="Node000016" class="node">
<title>Node16</title>
<g id="a_Node000016"><a xlink:href="classpolyfem_1_1solver_1_1_n_l_problem.html#a887440705d78e1fe9ae808e053e3210b" target="_top" xlink:title=" ">
<polygon fill="white" stroke="#666666" points="1497,-349 1345,-349 1345,-319 1497,-319 1497,-349"/>
<text text-anchor="start" x="1353" y="-337" font-family="Helvetica,sans-Serif" font-size="10.00">polyfem::solver::NLProblem</text>
<text text-anchor="middle" x="1421" y="-326" font-family="Helvetica,sans-Serif" font-size="10.00">::reduced_to_full</text>
</a>
</g>
</g>
<!-- Node1&#45;&gt;Node16 -->
<g id="edge20_Node000001_Node000016" class="edge">
<title>Node1&#45;&gt;Node16</title>
<g id="a_edge20_Node000001_Node000016"><a xlink:title=" ">
<path fill="none" stroke="#63b8ff" d="M1522.85,-334C1514.26,-334 1505.57,-334 1497.1,-334"/>
<polygon fill="#63b8ff" stroke="#63b8ff" points="1522.88,-337.5 1532.88,-334 1522.88,-330.5 1522.88,-337.5"/>
</a>
</g>
</g>
<!-- Node3 -->
<g id="Node000003" class="node">
<title>Node3</title>
<g id="a_Node000003"><a xlink:href="classpolyfem_1_1solver_1_1_n_l_problem.html#a727281312b26149dbbce7d9e4f283d58" target="_top" xlink:title=" ">
<polygon fill="white" stroke="#666666" points="933,-556 781,-556 781,-526 933,-526 933,-556"/>
<text text-anchor="start" x="789" y="-544" font-family="Helvetica,sans-Serif" font-size="10.00">polyfem::solver::NLProblem</text>
<text text-anchor="middle" x="857" y="-533" font-family="Helvetica,sans-Serif" font-size="10.00">::gradient</text>
</a>
</g>
</g>
<!-- Node2&#45;&gt;Node3 -->
<g id="edge2_Node000002_Node000003" class="edge">
<title>Node2&#45;&gt;Node3</title>
<g id="a_edge2_Node000002_Node000003"><a xlink:title=" ">
<path fill="none" stroke="#63b8ff" d="M960.51,-520.06C950.86,-522.03 941.08,-524.03 931.59,-525.97"/>
<polygon fill="#63b8ff" stroke="#63b8ff" points="961.39,-523.45 970.49,-518.02 959.99,-516.59 961.39,-523.45"/>
</a>
</g>
</g>
<!-- Node4 -->
<g id="Node000004" class="node">
<title>Node4</title>
<g id="a_Node000004"><a xlink:href="classpolyfem_1_1_state.html#acdb194af25d840fa14cec97b19e04577" target="_top" xlink:title="solves nonlinear problems">
<polygon fill="white" stroke="#666666" points="729,-475 608,-475 608,-445 729,-445 729,-475"/>
<text text-anchor="start" x="616" y="-463" font-family="Helvetica,sans-Serif" font-size="10.00">polyfem::State::solve</text>
<text text-anchor="middle" x="668.5" y="-452" font-family="Helvetica,sans-Serif" font-size="10.00">_tensor_nonlinear</text>
</a>
</g>
</g>
<!-- Node2&#45;&gt;Node4 -->
<g id="edge17_Node000002_Node000004" class="edge">
<title>Node2&#45;&gt;Node4</title>
<g id="a_edge17_Node000002_Node000004"><a xlink:title=" ">
<path fill="none" stroke="#63b8ff" d="M958.78,-493.93C907.28,-488.37 840.34,-481 781,-474 764.14,-472.01 745.87,-469.76 729.08,-467.65"/>
<polygon fill="#63b8ff" stroke="#63b8ff" points="958.54,-497.43 968.86,-495.02 959.29,-490.47 958.54,-497.43"/>
</a>
</g>
</g>
<!-- Node11 -->
<g id="Node000011" class="node">
<title>Node11</title>
<g id="a_Node000011"><a xlink:href="classpolyfem_1_1solver_1_1_a_l_solver.html#a7c7c1b4390262e9f0a8d0eca94d0ba08" target="_top" xlink:title=" ">
<polygon fill="white" stroke="#666666" points="928,-346 786,-346 786,-316 928,-316 928,-346"/>
<text text-anchor="start" x="794" y="-334" font-family="Helvetica,sans-Serif" font-size="10.00">polyfem::solver::ALSolver</text>
<text text-anchor="middle" x="857" y="-323" font-family="Helvetica,sans-Serif" font-size="10.00">::solve_al</text>
</a>
</g>
</g>
<!-- Node2&#45;&gt;Node11 -->
<g id="edge11_Node000002_Node000011" class="edge">
<title>Node2&#45;&gt;Node11</title>
<g id="a_edge11_Node000002_Node000011"><a xlink:title=" ">
<path fill="none" stroke="#63b8ff" d="M1026.58,-479.78C995.34,-438.12 933,-355 933,-355 928.21,-351.59 922.91,-348.65 917.42,-346.12"/>
<polygon fill="#63b8ff" stroke="#63b8ff" points="1023.95,-482.09 1032.75,-487.99 1029.55,-477.89 1023.95,-482.09"/>
</a>
</g>
</g>
<!-- Node14 -->
<g id="Node000014" class="node">
<title>Node14</title>
<g id="a_Node000014"><a xlink:href="classpolyfem_1_1solver_1_1_a_l_solver.html#a7afca1345526c6208b5fd6cf33e1310d" target="_top" xlink:title=" ">
<polygon fill="white" stroke="#666666" points="928,-394 786,-394 786,-364 928,-364 928,-394"/>
<text text-anchor="start" x="794" y="-382" font-family="Helvetica,sans-Serif" font-size="10.00">polyfem::solver::ALSolver</text>
<text text-anchor="middle" x="857" y="-371" font-family="Helvetica,sans-Serif" font-size="10.00">::solve_reduced</text>
</a>
</g>
</g>
<!-- Node2&#45;&gt;Node14 -->
<g id="edge15_Node000002_Node000014" class="edge">
<title>Node2&#45;&gt;Node14</title>
<g id="a_edge15_Node000002_Node000014"><a xlink:title=" ">
<path fill="none" stroke="#63b8ff" d="M1012.7,-482.13C975.34,-457.23 913.78,-416.19 880.7,-394.14"/>
<polygon fill="#63b8ff" stroke="#63b8ff" points="1010.93,-485.16 1021.19,-487.8 1014.81,-479.34 1010.93,-485.16"/>
</a>
</g>
</g>
<!-- Node3&#45;&gt;Node4 -->
<g id="edge3_Node000003_Node000004" class="edge">
<title>Node3&#45;&gt;Node4</title>
<g id="a_edge3_Node000003_Node000004"><a xlink:title=" ">
<path fill="none" stroke="#63b8ff" d="M806.27,-522.31C797.8,-518.98 789.12,-515.46 781,-512 753.49,-500.28 722.72,-485.83 700.49,-475.14"/>
<polygon fill="#63b8ff" stroke="#63b8ff" points="805.12,-525.62 815.71,-525.99 807.66,-519.1 805.12,-525.62"/>
</a>
</g>
</g>
<!-- Node5 -->
<g id="Node000005" class="node">
<title>Node5</title>
<g id="a_Node000005"><a xlink:href="classpolyfem_1_1_state.html#a7450ef7c42dd9c523e1be73a5819117d" target="_top" xlink:title="solves the problems">
<polygon fill="white" stroke="#666666" points="368,-475 247,-475 247,-445 368,-445 368,-475"/>
<text text-anchor="start" x="255" y="-463" font-family="Helvetica,sans-Serif" font-size="10.00">polyfem::State::solve</text>
<text text-anchor="middle" x="307.5" y="-452" font-family="Helvetica,sans-Serif" font-size="10.00">_problem</text>
</a>
</g>
</g>
<!-- Node4&#45;&gt;Node5 -->
<g id="edge4_Node000004_Node000005" class="edge">
<title>Node4&#45;&gt;Node5</title>
<g id="a_edge4_Node000004_Node000005"><a xlink:title=" ">
<path fill="none" stroke="#63b8ff" d="M597.52,-462.17C583.75,-462.52 569.42,-462.82 556,-463 488.45,-463.91 471.55,-464.06 404,-463 392.39,-462.82 379.99,-462.51 368.1,-462.16"/>
<polygon fill="#63b8ff" stroke="#63b8ff" points="598,-465.66 607.9,-461.9 597.82,-458.66 598,-465.66"/>
</a>
</g>
</g>
<!-- Node10 -->
<g id="Node000010" class="node">
<title>Node10</title>
<g id="a_Node000010"><a xlink:href="classpolyfem_1_1_state.html#a4d91e8c971fc121b0cff2f0c02ca79e7" target="_top" xlink:title="solves transient tensor nonlinear problem">
<polygon fill="white" stroke="#666666" points="556,-454 404,-454 404,-424 556,-424 556,-454"/>
<text text-anchor="start" x="412" y="-442" font-family="Helvetica,sans-Serif" font-size="10.00">polyfem::State::solve</text>
<text text-anchor="middle" x="480" y="-431" font-family="Helvetica,sans-Serif" font-size="10.00">_transient_tensor_nonlinear</text>
</a>
</g>
</g>
<!-- Node4&#45;&gt;Node10 -->
<g id="edge9_Node000004_Node000010" class="edge">
<title>Node4&#45;&gt;Node10</title>
<g id="a_edge9_Node000004_Node000010"><a xlink:title=" ">
<path fill="none" stroke="#63b8ff" d="M597.73,-452.14C584.11,-450.61 569.79,-449 556.01,-447.45"/>
<polygon fill="#63b8ff" stroke="#63b8ff" points="597.65,-455.66 607.98,-453.3 598.43,-448.7 597.65,-455.66"/>
</a>
</g>
</g>
<!-- Node6 -->
<g id="Node000006" class="node">
<title>Node6</title>
<g id="a_Node000006"><a xlink:href="main_8cpp.html#a48e4775e12bdf81ebb0eaa27df888aa0" target="_top" xlink:title=" ">
<polygon fill="white" stroke="#666666" points="199.5,-506.5 88.5,-506.5 88.5,-487.5 199.5,-487.5 199.5,-506.5"/>
<text text-anchor="middle" x="144" y="-494.5" font-family="Helvetica,sans-Serif" font-size="10.00">forward_simulation</text>
</a>
</g>
</g>
<!-- Node5&#45;&gt;Node6 -->
<g id="edge5_Node000005_Node000006" class="edge">
<title>Node5&#45;&gt;Node6</title>
<g id="a_edge5_Node000005_Node000006"><a xlink:title=" ">
<path fill="none" stroke="#63b8ff" d="M236.88,-475.95C219.82,-479.86 202.08,-483.92 186.8,-487.42"/>
<polygon fill="#63b8ff" stroke="#63b8ff" points="237.86,-479.32 246.82,-473.67 236.29,-472.49 237.86,-479.32"/>
</a>
</g>
</g>
<!-- Node8 -->
<g id="Node000008" class="node">
<title>Node8</title>
<g id="a_Node000008"><a xlink:href="classpolyfem_1_1_state.html#a219f9935d918f739d82488449bd4cbf4" target="_top" xlink:title="solves the problem, call other methods">
<polygon fill="white" stroke="#666666" points="204.5,-469.5 83.5,-469.5 83.5,-450.5 204.5,-450.5 204.5,-469.5"/>
<text text-anchor="middle" x="144" y="-457.5" font-family="Helvetica,sans-Serif" font-size="10.00">polyfem::State::solve</text>
</a>
</g>
</g>
<!-- Node5&#45;&gt;Node8 -->
<g id="edge7_Node000005_Node000008" class="edge">
<title>Node5&#45;&gt;Node8</title>
<g id="a_edge7_Node000005_Node000008"><a xlink:title=" ">
<path fill="none" stroke="#63b8ff" d="M236.7,-460C226.04,-460 215.12,-460 204.7,-460"/>
<polygon fill="#63b8ff" stroke="#63b8ff" points="236.82,-463.5 246.82,-460 236.82,-456.5 236.82,-463.5"/>
</a>
</g>
</g>
<!-- Node9 -->
<g id="Node000009" class="node">
<title>Node9</title>
<g id="a_Node000009"><a xlink:href="structpolyfem_1_1solver_1_1_adjoint_opt_utils.html#acac3e8ce8646ddd1544ed034c71bec96" target="_top" xlink:title=" ">
<polygon fill="white" stroke="#666666" points="211,-432 77,-432 77,-402 211,-402 211,-432"/>
<text text-anchor="start" x="85" y="-420" font-family="Helvetica,sans-Serif" font-size="10.00">polyfem::solver::Adjoint</text>
<text text-anchor="middle" x="144" y="-409" font-family="Helvetica,sans-Serif" font-size="10.00">OptUtils::solve_pde</text>
</a>
</g>
</g>
<!-- Node5&#45;&gt;Node9 -->
<g id="edge8_Node000005_Node000009" class="edge">
<title>Node5&#45;&gt;Node9</title>
<g id="a_edge8_Node000005_Node000009"><a xlink:title=" ">
<path fill="none" stroke="#63b8ff" d="M240.28,-442.37C227.39,-438.94 213.99,-435.37 201.45,-432.03"/>
<polygon fill="#63b8ff" stroke="#63b8ff" points="239.45,-445.77 250.02,-444.96 241.25,-439.01 239.45,-445.77"/>
</a>
</g>
</g>
<!-- Node7 -->
<g id="Node000007" class="node">
<title>Node7</title>
<g id="a_Node000007"><a xlink:href="main_8cpp.html#a3c04138a5bfe5d72780bb7e82a18e627" target="_top" xlink:title=" ">
<polygon fill="white" stroke="#666666" points="41,-506.5 0,-506.5 0,-487.5 41,-487.5 41,-506.5"/>
<text text-anchor="middle" x="20.5" y="-494.5" font-family="Helvetica,sans-Serif" font-size="10.00">main</text>
</a>
</g>
</g>
<!-- Node6&#45;&gt;Node7 -->
<g id="edge6_Node000006_Node000007" class="edge">
<title>Node6&#45;&gt;Node7</title>
<g id="a_edge6_Node000006_Node000007"><a xlink:title=" ">
<path fill="none" stroke="#63b8ff" d="M77.97,-497C64.49,-497 51.29,-497 41.05,-497"/>
<polygon fill="#63b8ff" stroke="#63b8ff" points="78.29,-500.5 88.29,-497 78.29,-493.5 78.29,-500.5"/>
</a>
</g>
</g>
<!-- Node10&#45;&gt;Node5 -->
<g id="edge10_Node000010_Node000005" class="edge">
<title>Node10&#45;&gt;Node5</title>
<g id="a_edge10_Node000010_Node000005"><a xlink:title=" ">
<path fill="none" stroke="#63b8ff" d="M393.59,-449.52C384.95,-450.58 376.31,-451.65 368.02,-452.67"/>
<polygon fill="#63b8ff" stroke="#63b8ff" points="394.22,-452.97 403.72,-448.27 393.37,-446.02 394.22,-452.97"/>
</a>
</g>
</g>
<!-- Node11&#45;&gt;Node4 -->
<g id="edge14_Node000011_Node000004" class="edge">
<title>Node11&#45;&gt;Node4</title>
<g id="a_edge14_Node000011_Node000004"><a xlink:title=" ">
<path fill="none" stroke="#63b8ff" d="M790.3,-350.07C787.09,-351.6 783.98,-353.25 781,-355 739.31,-379.57 700.54,-422.28 681.61,-444.91"/>
<polygon fill="#63b8ff" stroke="#63b8ff" points="791.76,-353.25 799.51,-346.03 788.95,-346.84 791.76,-353.25"/>
</a>
</g>
</g>
<!-- Node12 -->
<g id="Node000012" class="node">
<title>Node12</title>
<g id="a_Node000012"><a xlink:href="namespacepolyfem_1_1mesh.html#a6a3b4f1867b3f10841a58914403a1615" target="_top" xlink:title=" ">
<polygon fill="white" stroke="#666666" points="745,-346 592,-346 592,-316 745,-316 745,-346"/>
<text text-anchor="start" x="600" y="-334" font-family="Helvetica,sans-Serif" font-size="10.00">polyfem::mesh::constrained</text>
<text text-anchor="middle" x="668.5" y="-323" font-family="Helvetica,sans-Serif" font-size="10.00">_L2_projection</text>
</a>
</g>
</g>
<!-- Node11&#45;&gt;Node12 -->
<g id="edge12_Node000011_Node000012" class="edge">
<title>Node11&#45;&gt;Node12</title>
<g id="a_edge12_Node000011_Node000012"><a xlink:title=" ">
<path fill="none" stroke="#63b8ff" d="M775.74,-331C765.64,-331 755.32,-331 745.29,-331"/>
<polygon fill="#63b8ff" stroke="#63b8ff" points="775.76,-334.5 785.76,-331 775.76,-327.5 775.76,-334.5"/>
</a>
</g>
</g>
<!-- Node13 -->
<g id="Node000013" class="node">
<title>Node13</title>
<g id="a_Node000013"><a xlink:href="classpolyfem_1_1mesh_1_1_remesher.html#a60ab7872593bdf1951408bbd870526e4" target="_top" xlink:title="Update the mesh positions and other projection quantities.">
<polygon fill="white" stroke="#666666" points="553,-346 407,-346 407,-316 553,-316 553,-346"/>
<text text-anchor="start" x="415" y="-334" font-family="Helvetica,sans-Serif" font-size="10.00">polyfem::mesh::Remesher</text>
<text text-anchor="middle" x="480" y="-323" font-family="Helvetica,sans-Serif" font-size="10.00">::project_quantities</text>
</a>
</g>
</g>
<!-- Node12&#45;&gt;Node13 -->
<g id="edge13_Node000012_Node000013" class="edge">
<title>Node12&#45;&gt;Node13</title>
<g id="a_edge13_Node000012_Node000013"><a xlink:title=" ">
<path fill="none" stroke="#63b8ff" d="M581.61,-331C572.07,-331 562.42,-331 553.07,-331"/>
<polygon fill="#63b8ff" stroke="#63b8ff" points="581.91,-334.5 591.91,-331 581.91,-327.5 581.91,-334.5"/>
</a>
</g>
</g>
<!-- Node14&#45;&gt;Node4 -->
<g id="edge16_Node000014_Node000004" class="edge">
<title>Node14&#45;&gt;Node4</title>
<g id="a_edge16_Node000014_Node000004"><a xlink:title=" ">
<path fill="none" stroke="#63b8ff" d="M811.97,-398.12C779.07,-412.41 734.71,-431.68 704.27,-444.9"/>
<polygon fill="#63b8ff" stroke="#63b8ff" points="813.58,-401.24 821.36,-394.05 810.79,-394.82 813.58,-401.24"/>
</a>
</g>
</g>
<!-- Node15&#45;&gt;Node15 -->
<g id="edge19_Node000015_Node000015" class="edge">
<title>Node15&#45;&gt;Node15</title>
<g id="a_edge19_Node000015_Node000015"><a xlink:title=" ">
<path fill="none" stroke="#63b8ff" d="M1265.91,-40.6C1261.41,-44.97 1250.44,-48 1233,-48 1203.62,-48 1192.61,-39.41 1199.95,-30.28"/>
<polygon fill="#63b8ff" stroke="#63b8ff" points="1269.41,-40.32 1266.05,-30.28 1262.41,-40.23 1269.41,-40.32"/>
</a>
</g>
</g>
<!-- Node16&#45;&gt;Node3 -->
<g id="edge21_Node000016_Node000003" class="edge">
<title>Node16&#45;&gt;Node3</title>
<g id="a_edge21_Node000016_Node000003"><a xlink:title=" ">
<path fill="none" stroke="#63b8ff" d="M1407.23,-358.19C1389.42,-389.59 1354.15,-443.92 1309,-474 1307.87,-474.75 1122.34,-526.78 1121,-527 1058.18,-537.39 985.89,-540.62 933.01,-541.41"/>
<polygon fill="#63b8ff" stroke="#63b8ff" points="1410.41,-359.68 1412.19,-349.23 1404.29,-356.29 1410.41,-359.68"/>
</a>
</g>
</g>
<!-- Node16&#45;&gt;Node4 -->
<g id="edge41_Node000016_Node000004" class="edge">
<title>Node16&#45;&gt;Node4</title>
<g id="a_edge41_Node000016_Node000004"><a xlink:title=" ">
<path fill="none" stroke="#63b8ff" d="M1392.11,-355.23C1370.6,-370.4 1339.48,-389.86 1309,-400 1104.53,-468.04 844.34,-467.54 729.08,-463.22"/>
<polygon fill="#63b8ff" stroke="#63b8ff" points="1394.36,-357.92 1400.43,-349.23 1390.27,-352.24 1394.36,-357.92"/>
</a>
</g>
</g>
<!-- Node16&#45;&gt;Node14 -->
<g id="edge40_Node000016_Node000014" class="edge">
<title>Node16&#45;&gt;Node14</title>
<g id="a_edge40_Node000016_Node000014"><a xlink:title=" ">
<path fill="none" stroke="#63b8ff" d="M1368.75,-352.28C1350.1,-358.49 1328.76,-365.09 1309,-370 1161.66,-406.63 1119.96,-419.13 969,-403 951.75,-401.16 933.24,-397.74 916.38,-394.06"/>
<polygon fill="#63b8ff" stroke="#63b8ff" points="1369.88,-355.59 1378.23,-349.08 1367.64,-348.96 1369.88,-355.59"/>
</a>
</g>
</g>
<!-- Node16&#45;&gt;Node15 -->
<g id="edge22_Node000016_Node000015" class="edge">
<title>Node16&#45;&gt;Node15</title>
<g id="a_edge22_Node000016_Node000015"><a xlink:title=" ">
<path fill="none" stroke="#63b8ff" d="M1407.99,-309.45C1392.43,-277.19 1364.96,-218.58 1345,-167 1326.44,-119.03 1341.68,-96.73 1309,-57 1299.62,-45.59 1286.27,-36.72 1273.44,-30.14"/>
<polygon fill="#63b8ff" stroke="#63b8ff" points="1404.9,-311.1 1412.41,-318.58 1411.2,-308.05 1404.9,-311.1"/>
</a>
</g>
</g>
<!-- Node17 -->
<g id="Node000017" class="node">
<title>Node17</title>
<g id="a_Node000017"><a xlink:href="classpolyfem_1_1solver_1_1_n_l_problem.html#a77c70b1fa956d5dcd24e4f4fb214cee9" target="_top" xlink:title=" ">
<polygon fill="white" stroke="#666666" points="933,-229 781,-229 781,-199 933,-199 933,-229"/>
<text text-anchor="start" x="789" y="-217" font-family="Helvetica,sans-Serif" font-size="10.00">polyfem::solver::NLProblem</text>
<text text-anchor="middle" x="857" y="-206" font-family="Helvetica,sans-Serif" font-size="10.00">::init_lagging</text>
</a>
</g>
</g>
<!-- Node16&#45;&gt;Node17 -->
<g id="edge23_Node000016_Node000017" class="edge">
<title>Node16&#45;&gt;Node17</title>
<g id="a_edge23_Node000016_Node000017"><a xlink:title=" ">
<path fill="none" stroke="#63b8ff" d="M1408.45,-309.42C1391.59,-276.51 1356.94,-219.04 1309,-191 1243.56,-152.72 1043.06,-146.8 969,-163 937.51,-169.89 904.28,-186.58 882.48,-199"/>
<polygon fill="#63b8ff" stroke="#63b8ff" points="1405.52,-311.39 1413.11,-318.78 1411.79,-308.27 1405.52,-311.39"/>
</a>
</g>
</g>
<!-- Node18 -->
<g id="Node000018" class="node">
<title>Node18</title>
<g id="a_Node000018"><a xlink:href="classpolyfem_1_1solver_1_1_n_l_problem.html#a841013a529ef716a506472ceb76d0ac8" target="_top" xlink:title=" ">
<polygon fill="white" stroke="#666666" points="1121,-394 969,-394 969,-364 1121,-364 1121,-394"/>
<text text-anchor="start" x="977" y="-382" font-family="Helvetica,sans-Serif" font-size="10.00">polyfem::solver::NLProblem</text>
<text text-anchor="middle" x="1045" y="-371" font-family="Helvetica,sans-Serif" font-size="10.00">::is_step_collision_free</text>
</a>
</g>
</g>
<!-- Node16&#45;&gt;Node18 -->
<g id="edge25_Node000016_Node000018" class="edge">
<title>Node16&#45;&gt;Node18</title>
<g id="a_edge25_Node000016_Node000018"><a xlink:title=" ">
<path fill="none" stroke="#63b8ff" d="M1334.64,-344.27C1270.28,-352.01 1182.84,-362.54 1121.11,-369.96"/>
<polygon fill="#63b8ff" stroke="#63b8ff" points="1335.26,-347.72 1344.77,-343.05 1334.42,-340.77 1335.26,-347.72"/>
</a>
</g>
</g>
<!-- Node19 -->
<g id="Node000019" class="node">
<title>Node19</title>
<g id="a_Node000019"><a xlink:href="classpolyfem_1_1solver_1_1_n_l_problem.html#a2c2932dd5ee7a1c2e85de2df28a10a84" target="_top" xlink:title=" ">
<polygon fill="white" stroke="#666666" points="1121,-346 969,-346 969,-316 1121,-316 1121,-346"/>
<text text-anchor="start" x="977" y="-334" font-family="Helvetica,sans-Serif" font-size="10.00">polyfem::solver::NLProblem</text>
<text text-anchor="middle" x="1045" y="-323" font-family="Helvetica,sans-Serif" font-size="10.00">::is_step_valid</text>
</a>
</g>
</g>
<!-- Node16&#45;&gt;Node19 -->
<g id="edge28_Node000016_Node000019" class="edge">
<title>Node16&#45;&gt;Node19</title>
<g id="a_edge28_Node000016_Node000019"><a xlink:title=" ">
<path fill="none" stroke="#63b8ff" d="M1334.64,-333.32C1270.28,-332.8 1182.84,-332.1 1121.11,-331.6"/>
<polygon fill="#63b8ff" stroke="#63b8ff" points="1334.74,-336.82 1344.77,-333.4 1334.79,-329.82 1334.74,-336.82"/>
</a>
</g>
</g>
<!-- Node20 -->
<g id="Node000020" class="node">
<title>Node20</title>
<g id="a_Node000020"><a xlink:href="classpolyfem_1_1solver_1_1_n_l_problem.html#a077079d9df337f943b9472430109f64f" target="_top" xlink:title=" ">
<polygon fill="white" stroke="#666666" points="1121,-298 969,-298 969,-268 1121,-268 1121,-298"/>
<text text-anchor="start" x="977" y="-286" font-family="Helvetica,sans-Serif" font-size="10.00">polyfem::solver::NLProblem</text>
<text text-anchor="middle" x="1045" y="-275" font-family="Helvetica,sans-Serif" font-size="10.00">::line_search_begin</text>
</a>
</g>
</g>
<!-- Node16&#45;&gt;Node20 -->
<g id="edge31_Node000016_Node000020" class="edge">
<title>Node16&#45;&gt;Node20</title>
<g id="a_edge31_Node000016_Node000020"><a xlink:title=" ">
<path fill="none" stroke="#63b8ff" d="M1334.64,-322.36C1270.28,-313.58 1182.84,-301.66 1121.11,-293.24"/>
<polygon fill="#63b8ff" stroke="#63b8ff" points="1334.38,-325.86 1344.77,-323.74 1335.33,-318.92 1334.38,-325.86"/>
</a>
</g>
</g>
<!-- Node21 -->
<g id="Node000021" class="node">
<title>Node21</title>
<g id="a_Node000021"><a xlink:href="classpolyfem_1_1solver_1_1_n_l_problem.html#ab8cc510c88b527c67a442ce8a9dd1f79" target="_top" xlink:title=" ">
<polygon fill="white" stroke="#666666" points="1309,-144 1157,-144 1157,-114 1309,-114 1309,-144"/>
<text text-anchor="start" x="1165" y="-132" font-family="Helvetica,sans-Serif" font-size="10.00">polyfem::solver::NLProblem</text>
<text text-anchor="middle" x="1233" y="-121" font-family="Helvetica,sans-Serif" font-size="10.00">::max_step_size</text>
</a>
</g>
</g>
<!-- Node16&#45;&gt;Node21 -->
<g id="edge34_Node000016_Node000021" class="edge">
<title>Node16&#45;&gt;Node21</title>
<g id="a_edge34_Node000016_Node000021"><a xlink:title=" ">
<path fill="none" stroke="#63b8ff" d="M1410.36,-309.08C1394.59,-271.39 1359.87,-199.86 1309,-158 1302.21,-152.41 1294.22,-147.82 1286.03,-144.07"/>
<polygon fill="#63b8ff" stroke="#63b8ff" points="1407.29,-310.82 1414.3,-318.76 1413.77,-308.18 1407.29,-310.82"/>
</a>
</g>
</g>
<!-- Node22 -->
<g id="Node000022" class="node">
<title>Node22</title>
<g id="a_Node000022"><a xlink:href="classpolyfem_1_1solver_1_1_n_l_problem.html#a41a25a627b677650437bf5040115bf98" target="_top" xlink:title=" ">
<polygon fill="white" stroke="#666666" points="1309,-96 1157,-96 1157,-66 1309,-66 1309,-96"/>
<text text-anchor="start" x="1165" y="-84" font-family="Helvetica,sans-Serif" font-size="10.00">polyfem::solver::NLProblem</text>
<text text-anchor="middle" x="1233" y="-73" font-family="Helvetica,sans-Serif" font-size="10.00">::post_step</text>
</a>
</g>
</g>
<!-- Node16&#45;&gt;Node22 -->
<g id="edge35_Node000016_Node000022" class="edge">
<title>Node16&#45;&gt;Node22</title>
<g id="a_edge35_Node000016_Node000022"><a xlink:title=" ">
<path fill="none" stroke="#63b8ff" d="M1409.47,-309.58C1385.15,-253.59 1325.84,-119.61 1309,-105 1305.08,-101.6 1300.66,-98.67 1296,-96.16"/>
<polygon fill="#63b8ff" stroke="#63b8ff" points="1406.27,-311 1413.46,-318.78 1412.69,-308.21 1406.27,-311"/>
</a>
</g>
</g>
<!-- Node23 -->
<g id="Node000023" class="node">
<title>Node23</title>
<g id="a_Node000023"><a xlink:href="classpolyfem_1_1solver_1_1_n_l_problem.html#aedf81fd753bb54d804eabb10af39df87" target="_top" xlink:title=" ">
<polygon fill="white" stroke="#666666" points="1309,-230 1157,-230 1157,-200 1309,-200 1309,-230"/>
<text text-anchor="start" x="1165" y="-218" font-family="Helvetica,sans-Serif" font-size="10.00">polyfem::solver::NLProblem</text>
<text text-anchor="middle" x="1233" y="-207" font-family="Helvetica,sans-Serif" font-size="10.00">::set_apply_DBC</text>
</a>
</g>
</g>
<!-- Node16&#45;&gt;Node23 -->
<g id="edge36_Node000016_Node000023" class="edge">
<title>Node16&#45;&gt;Node23</title>
<g id="a_edge36_Node000016_Node000023"><a xlink:title=" ">
<path fill="none" stroke="#63b8ff" d="M1397.32,-312.02C1375.93,-292.19 1342.27,-263.27 1309,-244 1299.94,-238.75 1289.75,-234.09 1279.87,-230.12"/>
<polygon fill="#63b8ff" stroke="#63b8ff" points="1394.94,-314.58 1404.63,-318.87 1399.73,-309.48 1394.94,-314.58"/>
</a>
</g>
</g>
<!-- Node25 -->
<g id="Node000025" class="node">
<title>Node25</title>
<g id="a_Node000025"><a xlink:href="classpolyfem_1_1solver_1_1_n_l_problem.html#ade6ccc960c7b39a7f0645bb2acaf2ddd" target="_top" xlink:title=" ">
<polygon fill="white" stroke="#666666" points="1309,-604 1157,-604 1157,-574 1309,-574 1309,-604"/>
<text text-anchor="start" x="1165" y="-592" font-family="Helvetica,sans-Serif" font-size="10.00">polyfem::solver::NLProblem</text>
<text text-anchor="middle" x="1233" y="-581" font-family="Helvetica,sans-Serif" font-size="10.00">::solution_changed</text>
</a>
</g>
</g>
<!-- Node16&#45;&gt;Node25 -->
<g id="edge39_Node000016_Node000025" class="edge">
<title>Node16&#45;&gt;Node25</title>
<g id="a_edge39_Node000016_Node000025"><a xlink:title=" ">
<path fill="none" stroke="#63b8ff" d="M1414.82,-359.2C1403.81,-406.48 1373.6,-508.76 1309,-565 1305.08,-568.41 1300.67,-571.34 1296.01,-573.85"/>
<polygon fill="#63b8ff" stroke="#63b8ff" points="1418.29,-359.73 1417.06,-349.2 1411.46,-358.2 1418.29,-359.73"/>
</a>
</g>
</g>
<!-- Node26 -->
<g id="Node000026" class="node">
<title>Node26</title>
<g id="a_Node000026"><a xlink:href="classpolyfem_1_1solver_1_1_n_l_problem.html#a95e034a58eb88d93767df43d46691746" target="_top" xlink:title=" ">
<polygon fill="white" stroke="#666666" points="933,-625 781,-625 781,-595 933,-595 933,-625"/>
<text text-anchor="start" x="789" y="-613" font-family="Helvetica,sans-Serif" font-size="10.00">polyfem::solver::NLProblem</text>
<text text-anchor="middle" x="857" y="-602" font-family="Helvetica,sans-Serif" font-size="10.00">::update_lagging</text>
</a>
</g>
</g>
<!-- Node16&#45;&gt;Node26 -->
<g id="edge42_Node000016_Node000026" class="edge">
<title>Node16&#45;&gt;Node26</title>
<g id="a_edge42_Node000016_Node000026"><a xlink:title=" ">
<path fill="none" stroke="#63b8ff" d="M1418.81,-359.27C1414.62,-416.25 1395.55,-554.29 1309,-613 1182.65,-698.72 987.11,-652.11 901.09,-625.03"/>
<polygon fill="#63b8ff" stroke="#63b8ff" points="1422.33,-359.21 1419.47,-349.01 1415.34,-358.76 1422.33,-359.21"/>
</a>
</g>
</g>
<!-- Node27 -->
<g id="Node000027" class="node">
<title>Node27</title>
<g id="a_Node000027"><a xlink:href="classpolyfem_1_1solver_1_1_n_l_problem.html#a7110f930d05e90196a0824700ff9bca5" target="_top" xlink:title=" ">
<polygon fill="white" stroke="#666666" points="1309,-556 1157,-556 1157,-526 1309,-526 1309,-556"/>
<text text-anchor="start" x="1165" y="-544" font-family="Helvetica,sans-Serif" font-size="10.00">polyfem::solver::NLProblem</text>
<text text-anchor="middle" x="1233" y="-533" font-family="Helvetica,sans-Serif" font-size="10.00">::update_quantities</text>
</a>
</g>
</g>
<!-- Node16&#45;&gt;Node27 -->
<g id="edge44_Node000016_Node000027" class="edge">
<title>Node16&#45;&gt;Node27</title>
<g id="a_edge44_Node000016_Node000027"><a xlink:title=" ">
<path fill="none" stroke="#63b8ff" d="M1410.55,-358.92C1394.94,-396.96 1360.3,-469.56 1309,-512 1302.22,-517.61 1294.24,-522.21 1286.05,-525.96"/>
<polygon fill="#63b8ff" stroke="#63b8ff" points="1413.99,-359.75 1414.45,-349.16 1407.49,-357.15 1413.99,-359.75"/>
</a>
</g>
</g>
<!-- Node28 -->
<g id="Node000028" class="node">
<title>Node28</title>
<g id="a_Node000028"><a xlink:href="classpolyfem_1_1solver_1_1_n_l_problem.html#ab854a9e6e1e661a25bcb1bf9e2eaa2a6" target="_top" xlink:title=" ">
<polygon fill="white" stroke="#666666" points="1121,-250 969,-250 969,-220 1121,-220 1121,-250"/>
<text text-anchor="start" x="977" y="-238" font-family="Helvetica,sans-Serif" font-size="10.00">polyfem::solver::NLProblem</text>
<text text-anchor="middle" x="1045" y="-227" font-family="Helvetica,sans-Serif" font-size="10.00">::value</text>
</a>
</g>
</g>
<!-- Node16&#45;&gt;Node28 -->
<g id="edge45_Node000016_Node000028" class="edge">
<title>Node16&#45;&gt;Node28</title>
<g id="a_edge45_Node000016_Node000028"><a xlink:title=" ">
<path fill="none" stroke="#63b8ff" d="M1371.1,-315.47C1351.89,-308.55 1329.57,-300.94 1309,-295 1246.34,-276.91 1174.04,-260.75 1121.11,-249.77"/>
<polygon fill="#63b8ff" stroke="#63b8ff" points="1369.94,-318.77 1380.54,-318.91 1372.34,-312.2 1369.94,-318.77"/>
</a>
</g>
</g>
<!-- Node17&#45;&gt;Node4 -->
<g id="edge24_Node000017_Node000004" class="edge">
<title>Node17&#45;&gt;Node4</title>
<g id="a_edge24_Node000017_Node000004"><a xlink:title=" ">
<path fill="none" stroke="#63b8ff" d="M836.74,-237.23C821.4,-255.9 799.5,-282.88 781,-307 743,-356.55 699.99,-416.83 680.33,-444.62"/>
<polygon fill="#63b8ff" stroke="#63b8ff" points="839.63,-239.23 843.29,-229.28 834.23,-234.77 839.63,-239.23"/>
</a>
</g>
</g>
<!-- Node18&#45;&gt;Node11 -->
<g id="edge26_Node000018_Node000011" class="edge">
<title>Node18&#45;&gt;Node11</title>
<g id="a_edge26_Node000018_Node000011"><a xlink:title=" ">
<path fill="none" stroke="#63b8ff" d="M975.88,-361.42C956.27,-356.36 935.08,-350.89 916.13,-346"/>
<polygon fill="#63b8ff" stroke="#63b8ff" points="975.1,-364.83 985.66,-363.94 976.85,-358.06 975.1,-364.83"/>
</a>
</g>
</g>
<!-- Node18&#45;&gt;Node14 -->
<g id="edge27_Node000018_Node000014" class="edge">
<title>Node18&#45;&gt;Node14</title>
<g id="a_edge27_Node000018_Node000014"><a xlink:title=" ">
<path fill="none" stroke="#63b8ff" d="M958.75,-379C948.55,-379 938.23,-379 928.28,-379"/>
<polygon fill="#63b8ff" stroke="#63b8ff" points="958.88,-382.5 968.88,-379 958.88,-375.5 958.88,-382.5"/>
</a>
</g>
</g>
<!-- Node19&#45;&gt;Node11 -->
<g id="edge29_Node000019_Node000011" class="edge">
<title>Node19&#45;&gt;Node11</title>
<g id="a_edge29_Node000019_Node000011"><a xlink:title=" ">
<path fill="none" stroke="#63b8ff" d="M958.75,-331C948.55,-331 938.23,-331 928.28,-331"/>
<polygon fill="#63b8ff" stroke="#63b8ff" points="958.88,-334.5 968.88,-331 958.88,-327.5 958.88,-334.5"/>
</a>
</g>
</g>
<!-- Node19&#45;&gt;Node14 -->
<g id="edge30_Node000019_Node000014" class="edge">
<title>Node19&#45;&gt;Node14</title>
<g id="a_edge30_Node000019_Node000014"><a xlink:title=" ">
<path fill="none" stroke="#63b8ff" d="M975.88,-348.58C956.27,-353.64 935.08,-359.11 916.13,-364"/>
<polygon fill="#63b8ff" stroke="#63b8ff" points="976.85,-351.94 985.66,-346.06 975.1,-345.17 976.85,-351.94"/>
</a>
</g>
</g>
<!-- Node20&#45;&gt;Node11 -->
<g id="edge32_Node000020_Node000011" class="edge">
<title>Node20&#45;&gt;Node11</title>
<g id="a_edge32_Node000020_Node000011"><a xlink:title=" ">
<path fill="none" stroke="#63b8ff" d="M975.88,-300.58C956.27,-305.64 935.08,-311.11 916.13,-316"/>
<polygon fill="#63b8ff" stroke="#63b8ff" points="976.85,-303.94 985.66,-298.06 975.1,-297.17 976.85,-303.94"/>
</a>
</g>
</g>
<!-- Node20&#45;&gt;Node14 -->
<g id="edge33_Node000020_Node000014" class="edge">
<title>Node20&#45;&gt;Node14</title>
<g id="a_edge33_Node000020_Node000014"><a xlink:title=" ">
<path fill="none" stroke="#63b8ff" d="M975.55,-302.79C973.29,-304.11 971.1,-305.51 969,-307 947.27,-322.46 954.73,-339.54 933,-355 928.21,-358.41 922.91,-361.35 917.42,-363.88"/>
<polygon fill="#63b8ff" stroke="#63b8ff" points="977.31,-305.82 984.58,-298.12 974.09,-299.6 977.31,-305.82"/>
</a>
</g>
</g>
<!-- Node24 -->
<g id="Node000024" class="node">
<title>Node24</title>
<g id="a_Node000024"><a xlink:href="classpolyfem_1_1solver_1_1_a_l_solver.html#a37b1f3b8343a9f2a4858a29546e9b015" target="_top" xlink:title=" ">
<polygon fill="white" stroke="#666666" points="1116,-202 974,-202 974,-172 1116,-172 1116,-202"/>
<text text-anchor="start" x="982" y="-190" font-family="Helvetica,sans-Serif" font-size="10.00">polyfem::solver::ALSolver</text>
<text text-anchor="middle" x="1045" y="-179" font-family="Helvetica,sans-Serif" font-size="10.00">::set_al_weight</text>
</a>
</g>
</g>
<!-- Node23&#45;&gt;Node24 -->
<g id="edge37_Node000023_Node000024" class="edge">
<title>Node23&#45;&gt;Node24</title>
<g id="a_edge37_Node000023_Node000024"><a xlink:title=" ">
<path fill="none" stroke="#63b8ff" d="M1146.75,-202.17C1136.55,-200.63 1126.23,-199.08 1116.28,-197.58"/>
<polygon fill="#63b8ff" stroke="#63b8ff" points="1146.47,-205.66 1156.88,-203.69 1147.52,-198.74 1146.47,-205.66"/>
</a>
</g>
</g>
<!-- Node24&#45;&gt;Node11 -->
<g id="edge38_Node000024_Node000011" class="edge">
<title>Node24&#45;&gt;Node11</title>
<g id="a_edge38_Node000024_Node000011"><a xlink:title=" ">
<path fill="none" stroke="#63b8ff" d="M977.03,-206.4C974.26,-207.83 971.57,-209.36 969,-211 924.24,-239.5 885.64,-290.4 868.09,-315.76"/>
<polygon fill="#63b8ff" stroke="#63b8ff" points="978.54,-209.55 986.1,-202.13 975.56,-203.22 978.54,-209.55"/>
</a>
</g>
</g>
<!-- Node26&#45;&gt;Node4 -->
<g id="edge43_Node000026_Node000004" class="edge">
<title>Node26&#45;&gt;Node4</title>
<g id="a_edge43_Node000026_Node000004"><a xlink:title=" ">
<path fill="none" stroke="#63b8ff" d="M818.88,-589.86C806.46,-582.57 792.79,-573.92 781,-565 743.26,-536.44 704.1,-496.83 683.74,-475.35"/>
<polygon fill="#63b8ff" stroke="#63b8ff" points="817.24,-592.95 827.65,-594.91 820.73,-586.88 817.24,-592.95"/>
</a>
</g>
</g>
<!-- Node28&#45;&gt;Node11 -->
<g id="edge46_Node000028_Node000011" class="edge">
<title>Node28&#45;&gt;Node11</title>
<g id="a_edge46_Node000028_Node000011"><a xlink:title=" ">
<path fill="none" stroke="#63b8ff" d="M981.45,-253.61C977.19,-255.3 973,-257.1 969,-259 935.17,-275.03 899.42,-299.84 877.91,-315.75"/>
<polygon fill="#63b8ff" stroke="#63b8ff" points="982.74,-256.86 990.86,-250.05 980.27,-250.31 982.74,-256.86"/>
</a>
</g>
</g>
<!-- Node28&#45;&gt;Node14 -->
<g id="edge47_Node000028_Node000014" class="edge">
<title>Node28&#45;&gt;Node14</title>
<g id="a_edge47_Node000028_Node000014"><a xlink:title=" ">
<path fill="none" stroke="#63b8ff" d="M972.48,-255.96C971.27,-256.93 970.11,-257.94 969,-259 936,-290.42 966,-323.58 933,-355 929.44,-358.39 925.39,-361.31 921.07,-363.81"/>
<polygon fill="#63b8ff" stroke="#63b8ff" points="974.64,-258.72 980.93,-250.19 970.7,-252.93 974.64,-258.72"/>
</a>
</g>
</g>
</g>
</svg>
