<?xml version="1.0" encoding="UTF-8" standalone="no"?>
<!DOCTYPE svg PUBLIC "-//W3C//DTD SVG 1.1//EN"
 "http://www.w3.org/Graphics/SVG/1.1/DTD/svg11.dtd">
<!-- Generated by graphviz version 2.43.0 (0)
 -->
<!-- Title: polyfem::mesh::NCMesh3D::build_face_follower_chain Pages: 1 -->
<svg width="530pt" height="134pt"
 viewBox="0.00 0.00 530.00 134.00" xmlns="http://www.w3.org/2000/svg" xmlns:xlink="http://www.w3.org/1999/xlink">
<g id="graph0" class="graph" transform="scale(1 1) rotate(0) translate(4 130)">
<title>polyfem::mesh::NCMesh3D::build_face_follower_chain</title>
<!-- Node1 -->
<g id="Node000001" class="node">
<title>Node1</title>
<g id="a_Node000001"><a xlink:title=" ">
<polygon fill="#999999" stroke="#666666" points="150,-78 0,-78 0,-48 150,-48 150,-78"/>
<text text-anchor="start" x="8" y="-66" font-family="Helvetica,sans-Serif" font-size="10.00">polyfem::mesh::NCMesh3D</text>
<text text-anchor="middle" x="75" y="-55" font-family="Helvetica,sans-Serif" font-size="10.00">::build_face_follower_chain</text>
</a>
</g>
</g>
<!-- Node2 -->
<g id="Node000002" class="node">
<title>Node2</title>
<g id="a_Node000002"><a xlink:href="classpolyfem_1_1mesh_1_1_n_c_mesh3_d.html#a6936ac7b4324e11ddc9df9d6e9c05dfd" target="_top" xlink:title=" ">
<polygon fill="white" stroke="#666666" points="336,-78 186,-78 186,-48 336,-48 336,-78"/>
<text text-anchor="start" x="194" y="-66" font-family="Helvetica,sans-Serif" font-size="10.00">polyfem::mesh::NCMesh3D</text>
<text text-anchor="middle" x="261" y="-55" font-family="Helvetica,sans-Serif" font-size="10.00">::traverse_face</text>
</a>
</g>
</g>
<!-- Node1&#45;&gt;Node2 -->
<g id="edge1_Node000001_Node000002" class="edge">
<title>Node1&#45;&gt;Node2</title>
<g id="a_edge1_Node000001_Node000002"><a xlink:title=" ">
<path fill="none" stroke="#63b8ff" d="M150.04,-63C158.51,-63 167.19,-63 175.78,-63"/>
<polygon fill="#63b8ff" stroke="#63b8ff" points="175.81,-66.5 185.81,-63 175.81,-59.5 175.81,-66.5"/>
</a>
</g>
</g>
<!-- Node2&#45;&gt;Node2 -->
<g id="edge5_Node000002_Node000002" class="edge">
<title>Node2&#45;&gt;Node2</title>
<g id="a_edge5_Node000002_Node000002"><a xlink:title=" ">
<path fill="none" stroke="#63b8ff" d="M228.66,-78.28C221.47,-87.41 232.25,-96 261,-96 278.07,-96 288.81,-92.97 293.21,-88.6"/>
<polygon fill="#63b8ff" stroke="#63b8ff" points="296.71,-88.32 293.34,-78.28 289.71,-88.23 296.71,-88.32"/>
</a>
</g>
</g>
<!-- Node3 -->
<g id="Node000003" class="node">
<title>Node3</title>
<g id="a_Node000003"><a xlink:href="classpolyfem_1_1mesh_1_1_n_c_mesh3_d.html#a91745979c297cfd7873980b73eff7790" target="_top" xlink:title=" ">
<polygon fill="white" stroke="#666666" points="522,-126 372,-126 372,-96 522,-96 522,-126"/>
<text text-anchor="start" x="380" y="-114" font-family="Helvetica,sans-Serif" font-size="10.00">polyfem::mesh::NCMesh3D</text>
<text text-anchor="middle" x="447" y="-103" font-family="Helvetica,sans-Serif" font-size="10.00">::find_edge</text>
</a>
</g>
</g>
<!-- Node2&#45;&gt;Node3 -->
<g id="edge2_Node000002_Node000003" class="edge">
<title>Node2&#45;&gt;Node3</title>
<g id="a_edge2_Node000002_Node000003"><a xlink:title=" ">
<path fill="none" stroke="#63b8ff" d="M319.71,-78.06C338.38,-82.93 359.25,-88.37 378.56,-93.41"/>
<polygon fill="#63b8ff" stroke="#63b8ff" points="377.93,-96.86 388.49,-96 379.7,-90.09 377.93,-96.86"/>
</a>
</g>
</g>
<!-- Node4 -->
<g id="Node000004" class="node">
<title>Node4</title>
<g id="a_Node000004"><a xlink:href="classpolyfem_1_1mesh_1_1_n_c_mesh3_d.html#ace6449e49e440b37b896c3139356eb2a" target="_top" xlink:title=" ">
<polygon fill="white" stroke="#666666" points="522,-78 372,-78 372,-48 522,-48 522,-78"/>
<text text-anchor="start" x="380" y="-66" font-family="Helvetica,sans-Serif" font-size="10.00">polyfem::mesh::NCMesh3D</text>
<text text-anchor="middle" x="447" y="-55" font-family="Helvetica,sans-Serif" font-size="10.00">::find_face</text>
</a>
</g>
</g>
<!-- Node2&#45;&gt;Node4 -->
<g id="edge3_Node000002_Node000004" class="edge">
<title>Node2&#45;&gt;Node4</title>
<g id="a_edge3_Node000002_Node000004"><a xlink:title=" ">
<path fill="none" stroke="#63b8ff" d="M336.04,-63C344.51,-63 353.19,-63 361.78,-63"/>
<polygon fill="#63b8ff" stroke="#63b8ff" points="361.81,-66.5 371.81,-63 361.81,-59.5 361.81,-66.5"/>
</a>
</g>
</g>
<!-- Node5 -->
<g id="Node000005" class="node">
<title>Node5</title>
<g id="a_Node000005"><a xlink:href="classpolyfem_1_1mesh_1_1_n_c_mesh3_d.html#a10a4afcddcba70de1676c24d1387feb1" target="_top" xlink:title=" ">
<polygon fill="white" stroke="#666666" points="522,-30 372,-30 372,0 522,0 522,-30"/>
<text text-anchor="start" x="380" y="-18" font-family="Helvetica,sans-Serif" font-size="10.00">polyfem::mesh::NCMesh3D</text>
<text text-anchor="middle" x="447" y="-7" font-family="Helvetica,sans-Serif" font-size="10.00">::find_vertex</text>
</a>
</g>
</g>
<!-- Node2&#45;&gt;Node5 -->
<g id="edge4_Node000002_Node000005" class="edge">
<title>Node2&#45;&gt;Node5</title>
<g id="a_edge4_Node000002_Node000005"><a xlink:title=" ">
<path fill="none" stroke="#63b8ff" d="M319.71,-47.94C338.38,-43.07 359.25,-37.63 378.56,-32.59"/>
<polygon fill="#63b8ff" stroke="#63b8ff" points="379.7,-35.91 388.49,-30 377.93,-29.14 379.7,-35.91"/>
</a>
</g>
</g>
</g>
</svg>
