<?xml version="1.0" encoding="UTF-8" standalone="no"?>
<!DOCTYPE svg PUBLIC "-//W3C//DTD SVG 1.1//EN"
 "http://www.w3.org/Graphics/SVG/1.1/DTD/svg11.dtd">
<!-- Generated by graphviz version 2.43.0 (0)
 -->
<!-- Title: polyfem::mesh::NCMesh3D::n_face_vertices Pages: 1 -->
<svg width="554pt" height="218pt"
 viewBox="0.00 0.00 554.00 218.00" xmlns="http://www.w3.org/2000/svg" xmlns:xlink="http://www.w3.org/1999/xlink">
<g id="graph0" class="graph" transform="scale(1 1) rotate(0) translate(4 214)">
<title>polyfem::mesh::NCMesh3D::n_face_vertices</title>
<!-- Node1 -->
<g id="Node000001" class="node">
<title>Node1</title>
<g id="a_Node000001"><a xlink:title="number of vertices of a face">
<polygon fill="#999999" stroke="#666666" points="546,-124 396,-124 396,-94 546,-94 546,-124"/>
<text text-anchor="start" x="404" y="-112" font-family="Helvetica,sans-Serif" font-size="10.00">polyfem::mesh::NCMesh3D</text>
<text text-anchor="middle" x="471" y="-101" font-family="Helvetica,sans-Serif" font-size="10.00">::n_face_vertices</text>
</a>
</g>
</g>
<!-- Node2 -->
<g id="Node000002" class="node">
<title>Node2</title>
<g id="a_Node000002"><a xlink:href="classpolyfem_1_1mesh_1_1_n_c_mesh3_d.html#a55a4fdd6f19339710f445dcb17364c1b" target="_top" xlink:title="computes boundary selections based on a function">
<polygon fill="white" stroke="#666666" points="360,-210 210,-210 210,-180 360,-180 360,-210"/>
<text text-anchor="start" x="218" y="-198" font-family="Helvetica,sans-Serif" font-size="10.00">polyfem::mesh::NCMesh3D</text>
<text text-anchor="middle" x="285" y="-187" font-family="Helvetica,sans-Serif" font-size="10.00">::compute_boundary_ids</text>
</a>
</g>
</g>
<!-- Node1&#45;&gt;Node2 -->
<g id="edge1_Node000001_Node000002" class="edge">
<title>Node1&#45;&gt;Node2</title>
<g id="a_edge1_Node000001_Node000002"><a xlink:title=" ">
<path fill="none" stroke="#63b8ff" d="M433.83,-128.96C412.59,-140.37 385.08,-154.62 360,-166 349.32,-170.84 337.57,-175.67 326.65,-179.95"/>
<polygon fill="#63b8ff" stroke="#63b8ff" points="435.69,-131.93 442.82,-124.1 432.36,-125.78 435.69,-131.93"/>
</a>
</g>
</g>
<!-- Node3 -->
<g id="Node000003" class="node">
<title>Node3</title>
<g id="a_Node000003"><a xlink:href="classpolyfem_1_1mesh_1_1_n_c_mesh3_d.html#a6899bc07d12b5d6118e963e3c698c227" target="_top" xlink:title=" ">
<polygon fill="white" stroke="#666666" points="174,-174 0,-174 0,-144 174,-144 174,-174"/>
<text text-anchor="start" x="8" y="-162" font-family="Helvetica,sans-Serif" font-size="10.00">polyfem::mesh::NCMesh3D</text>
<text text-anchor="middle" x="87" y="-151" font-family="Helvetica,sans-Serif" font-size="10.00">::get_index_from_element_edge</text>
</a>
</g>
</g>
<!-- Node1&#45;&gt;Node3 -->
<g id="edge2_Node000001_Node000003" class="edge">
<title>Node1&#45;&gt;Node3</title>
<g id="a_edge2_Node000001_Node000003"><a xlink:title=" ">
<path fill="none" stroke="#63b8ff" d="M397.53,-126.1C385.06,-128.67 372.19,-131.09 360,-133 298.13,-142.67 227.75,-149.28 174.08,-153.42"/>
<polygon fill="#63b8ff" stroke="#63b8ff" points="398.36,-129.5 407.42,-124.01 396.91,-122.65 398.36,-129.5"/>
</a>
</g>
</g>
<!-- Node4 -->
<g id="Node000004" class="node">
<title>Node4</title>
<g id="a_Node000004"><a xlink:href="classpolyfem_1_1mesh_1_1_n_c_mesh3_d.html#aee7eea87ed322332f9933ae449fc4dcb" target="_top" xlink:title=" ">
<polygon fill="white" stroke="#666666" points="172.5,-78 1.5,-78 1.5,-48 172.5,-48 172.5,-78"/>
<text text-anchor="start" x="9.5" y="-66" font-family="Helvetica,sans-Serif" font-size="10.00">polyfem::mesh::NCMesh3D</text>
<text text-anchor="middle" x="87" y="-55" font-family="Helvetica,sans-Serif" font-size="10.00">::get_index_from_element_face</text>
</a>
</g>
</g>
<!-- Node1&#45;&gt;Node4 -->
<g id="edge3_Node000001_Node000004" class="edge">
<title>Node1&#45;&gt;Node4</title>
<g id="a_edge3_Node000001_Node000004"><a xlink:title=" ">
<path fill="none" stroke="#63b8ff" d="M398.02,-91.85C385.4,-89.26 372.36,-86.84 360,-85 297.56,-75.71 226.43,-70.13 172.57,-66.91"/>
<polygon fill="#63b8ff" stroke="#63b8ff" points="397.52,-95.32 408.02,-93.96 398.96,-88.47 397.52,-95.32"/>
</a>
</g>
</g>
<!-- Node5 -->
<g id="Node000005" class="node">
<title>Node5</title>
<g id="a_Node000005"><a xlink:href="classpolyfem_1_1mesh_1_1_n_c_mesh3_d.html#ad8ecc4cc0f1c848da51187c51075f467" target="_top" xlink:title=" ">
<polygon fill="white" stroke="#666666" points="360,-35 210,-35 210,-5 360,-5 360,-35"/>
<text text-anchor="start" x="218" y="-23" font-family="Helvetica,sans-Serif" font-size="10.00">polyfem::mesh::NCMesh3D</text>
<text text-anchor="middle" x="285" y="-12" font-family="Helvetica,sans-Serif" font-size="10.00">::switch_face</text>
</a>
</g>
</g>
<!-- Node1&#45;&gt;Node5 -->
<g id="edge4_Node000001_Node000005" class="edge">
<title>Node1&#45;&gt;Node5</title>
<g id="a_edge4_Node000001_Node000005"><a xlink:title=" ">
<path fill="none" stroke="#63b8ff" d="M433.77,-88.86C412.51,-77.31 385,-62.8 360,-51 348.41,-45.53 335.59,-39.99 323.93,-35.13"/>
<polygon fill="#63b8ff" stroke="#63b8ff" points="432.31,-92.05 442.77,-93.78 435.67,-85.91 432.31,-92.05"/>
</a>
</g>
</g>
<!-- Node7 -->
<g id="Node000007" class="node">
<title>Node7</title>
<g id="a_Node000007"><a xlink:href="classpolyfem_1_1mesh_1_1_n_c_mesh3_d.html#a7d32ea3985e408f0c4f367f02b8fb774" target="_top" xlink:title=" ">
<polygon fill="white" stroke="#666666" points="360,-124 210,-124 210,-94 360,-94 360,-124"/>
<text text-anchor="start" x="218" y="-112" font-family="Helvetica,sans-Serif" font-size="10.00">polyfem::mesh::NCMesh3D</text>
<text text-anchor="middle" x="285" y="-101" font-family="Helvetica,sans-Serif" font-size="10.00">::switch_vertex</text>
</a>
</g>
</g>
<!-- Node1&#45;&gt;Node7 -->
<g id="edge6_Node000001_Node000007" class="edge">
<title>Node1&#45;&gt;Node7</title>
<g id="a_edge6_Node000001_Node000007"><a xlink:title=" ">
<path fill="none" stroke="#63b8ff" d="M385.93,-109C377.35,-109 368.66,-109 360.19,-109"/>
<polygon fill="#63b8ff" stroke="#63b8ff" points="385.96,-112.5 395.96,-109 385.96,-105.5 385.96,-112.5"/>
</a>
</g>
</g>
<!-- Node6 -->
<g id="Node000006" class="node">
<title>Node6</title>
<g id="a_Node000006"><a xlink:href="classpolyfem_1_1mesh_1_1_n_c_mesh3_d.html#a1f48fca7715b9b4762142000ec3ab633" target="_top" xlink:title=" ">
<polygon fill="white" stroke="#666666" points="162,-30 12,-30 12,0 162,0 162,-30"/>
<text text-anchor="start" x="20" y="-18" font-family="Helvetica,sans-Serif" font-size="10.00">polyfem::mesh::NCMesh3D</text>
<text text-anchor="middle" x="87" y="-7" font-family="Helvetica,sans-Serif" font-size="10.00">::next_around_edge</text>
</a>
</g>
</g>
<!-- Node5&#45;&gt;Node6 -->
<g id="edge5_Node000005_Node000006" class="edge">
<title>Node5&#45;&gt;Node6</title>
<g id="a_edge5_Node000005_Node000006"><a xlink:title=" ">
<path fill="none" stroke="#63b8ff" d="M199.55,-17.85C187.12,-17.53 174.4,-17.2 162.2,-16.89"/>
<polygon fill="#63b8ff" stroke="#63b8ff" points="199.81,-21.35 209.9,-18.11 199.99,-14.36 199.81,-21.35"/>
</a>
</g>
</g>
<!-- Node7&#45;&gt;Node3 -->
<g id="edge7_Node000007_Node000003" class="edge">
<title>Node7&#45;&gt;Node3</title>
<g id="a_edge7_Node000007_Node000003"><a xlink:title=" ">
<path fill="none" stroke="#63b8ff" d="M215.46,-126.48C193.17,-132.17 168.64,-138.43 147.1,-143.92"/>
<polygon fill="#63b8ff" stroke="#63b8ff" points="216.37,-129.86 225.19,-124 214.64,-123.08 216.37,-129.86"/>
</a>
</g>
</g>
<!-- Node7&#45;&gt;Node4 -->
<g id="edge8_Node000007_Node000004" class="edge">
<title>Node7&#45;&gt;Node4</title>
<g id="a_edge8_Node000007_Node000004"><a xlink:title=" ">
<path fill="none" stroke="#63b8ff" d="M209.98,-91.63C190.89,-87.15 170.51,-82.37 151.99,-78.02"/>
<polygon fill="#63b8ff" stroke="#63b8ff" points="209.29,-95.06 219.82,-93.94 210.89,-88.25 209.29,-95.06"/>
</a>
</g>
</g>
<!-- Node8 -->
<g id="Node000008" class="node">
<title>Node8</title>
<g id="a_Node000008"><a xlink:href="classpolyfem_1_1mesh_1_1_n_c_mesh3_d.html#a9ec219f3f419a3b0de13accf4064ce33" target="_top" xlink:title=" ">
<polygon fill="white" stroke="#666666" points="162,-126 12,-126 12,-96 162,-96 162,-126"/>
<text text-anchor="start" x="20" y="-114" font-family="Helvetica,sans-Serif" font-size="10.00">polyfem::mesh::NCMesh3D</text>
<text text-anchor="middle" x="87" y="-103" font-family="Helvetica,sans-Serif" font-size="10.00">::next_around_face</text>
</a>
</g>
</g>
<!-- Node7&#45;&gt;Node8 -->
<g id="edge9_Node000007_Node000008" class="edge">
<title>Node7&#45;&gt;Node8</title>
<g id="a_edge9_Node000007_Node000008"><a xlink:title=" ">
<path fill="none" stroke="#63b8ff" d="M199.55,-109.86C187.12,-109.99 174.4,-110.12 162.2,-110.24"/>
<polygon fill="#63b8ff" stroke="#63b8ff" points="199.94,-113.36 209.9,-109.76 199.87,-106.36 199.94,-113.36"/>
</a>
</g>
</g>
</g>
</svg>
