<?xml version="1.0" encoding="UTF-8" standalone="no"?>
<!DOCTYPE svg PUBLIC "-//W3C//DTD SVG 1.1//EN"
 "http://www.w3.org/Graphics/SVG/1.1/DTD/svg11.dtd">
<!-- Generated by graphviz version 2.43.0 (0)
 -->
<!-- Title: polyfem::IntegrableFunctional::dj_dgradu Pages: 1 -->
<svg width="819pt" height="226pt"
 viewBox="0.00 0.00 819.00 226.00" xmlns="http://www.w3.org/2000/svg" xmlns:xlink="http://www.w3.org/1999/xlink">
<g id="graph0" class="graph" transform="scale(1 1) rotate(0) translate(4 222)">
<title>polyfem::IntegrableFunctional::dj_dgradu</title>
<!-- Node1 -->
<g id="Node000001" class="node">
<title>Node1</title>
<g id="a_Node000001"><a xlink:title=" ">
<polygon fill="#999999" stroke="#666666" points="811,-121.5 648,-121.5 648,-91.5 811,-91.5 811,-121.5"/>
<text text-anchor="start" x="656" y="-109.5" font-family="Helvetica,sans-Serif" font-size="10.00">polyfem::IntegrableFunctional</text>
<text text-anchor="middle" x="729.5" y="-98.5" font-family="Helvetica,sans-Serif" font-size="10.00">::dj_dgradu</text>
</a>
</g>
</g>
<!-- Node2 -->
<g id="Node000002" class="node">
<title>Node2</title>
<g id="a_Node000002"><a xlink:href="classpolyfem_1_1solver_1_1_adjoint_tools.html#a91b3995fb0dd7c11f3661876ab89da62" target="_top" xlink:title=" ">
<polygon fill="white" stroke="#666666" points="602,-186 443,-186 443,-145 602,-145 602,-186"/>
<text text-anchor="start" x="451" y="-174" font-family="Helvetica,sans-Serif" font-size="10.00">polyfem::solver::Adjoint</text>
<text text-anchor="start" x="451" y="-163" font-family="Helvetica,sans-Serif" font-size="10.00">Tools::compute_macro_strain</text>
<text text-anchor="middle" x="522.5" y="-152" font-family="Helvetica,sans-Serif" font-size="10.00">_derivative_functional_term</text>
</a>
</g>
</g>
<!-- Node1&#45;&gt;Node2 -->
<g id="edge1_Node000001_Node000002" class="edge">
<title>Node1&#45;&gt;Node2</title>
<g id="a_edge1_Node000001_Node000002"><a xlink:title=" ">
<path fill="none" stroke="#63b8ff" d="M666.46,-124.36C643.93,-130.84 618.29,-138.22 595,-144.92"/>
<polygon fill="#63b8ff" stroke="#63b8ff" points="667.6,-127.67 676.24,-121.54 665.66,-120.94 667.6,-127.67"/>
</a>
</g>
</g>
<!-- Node3 -->
<g id="Node000003" class="node">
<title>Node3</title>
<g id="a_Node000003"><a xlink:href="classpolyfem_1_1solver_1_1_adjoint_tools.html#aa650adfcea9ae851fdf1642e5171b29b" target="_top" xlink:title=" ">
<polygon fill="white" stroke="#666666" points="612,-127 433,-127 433,-86 612,-86 612,-127"/>
<text text-anchor="start" x="441" y="-115" font-family="Helvetica,sans-Serif" font-size="10.00">polyfem::solver::Adjoint</text>
<text text-anchor="start" x="441" y="-104" font-family="Helvetica,sans-Serif" font-size="10.00">Tools::compute_shape_derivative</text>
<text text-anchor="middle" x="522.5" y="-93" font-family="Helvetica,sans-Serif" font-size="10.00">_functional_term</text>
</a>
</g>
</g>
<!-- Node1&#45;&gt;Node3 -->
<g id="edge2_Node000001_Node000003" class="edge">
<title>Node1&#45;&gt;Node3</title>
<g id="a_edge2_Node000001_Node000003"><a xlink:title=" ">
<path fill="none" stroke="#63b8ff" d="M637.58,-106.5C629.18,-106.5 620.66,-106.5 612.27,-106.5"/>
<polygon fill="#63b8ff" stroke="#63b8ff" points="637.77,-110 647.77,-106.5 637.77,-103 637.77,-110"/>
</a>
</g>
</g>
<!-- Node9 -->
<g id="Node000009" class="node">
<title>Node9</title>
<g id="a_Node000009"><a xlink:href="classpolyfem_1_1solver_1_1_adjoint_tools.html#afd1c5f4891c34a48045ce552f6f28e3f" target="_top" xlink:title=" ">
<polygon fill="white" stroke="#666666" points="589.5,-66.5 455.5,-66.5 455.5,-36.5 589.5,-36.5 589.5,-66.5"/>
<text text-anchor="start" x="463.5" y="-54.5" font-family="Helvetica,sans-Serif" font-size="10.00">polyfem::solver::Adjoint</text>
<text text-anchor="middle" x="522.5" y="-43.5" font-family="Helvetica,sans-Serif" font-size="10.00">Tools::dJ_du_step</text>
</a>
</g>
</g>
<!-- Node1&#45;&gt;Node9 -->
<g id="edge8_Node000001_Node000009" class="edge">
<title>Node1&#45;&gt;Node9</title>
<g id="a_edge8_Node000001_Node000009"><a xlink:title=" ">
<path fill="none" stroke="#63b8ff" d="M662.78,-88.87C635.93,-81.67 605.2,-73.42 579.45,-66.51"/>
<polygon fill="#63b8ff" stroke="#63b8ff" points="661.92,-92.26 672.48,-91.47 663.73,-85.5 661.92,-92.26"/>
</a>
</g>
</g>
<!-- Node4 -->
<g id="Node000004" class="node">
<title>Node4</title>
<g id="a_Node000004"><a xlink:href="classpolyfem_1_1solver_1_1_spatial_integral_form.html#a215cb78e5ae1ccc9a4ddd1e35a91658d" target="_top" xlink:title=" ">
<polygon fill="white" stroke="#666666" points="397,-129 209,-129 209,-88 397,-88 397,-129"/>
<text text-anchor="start" x="217" y="-117" font-family="Helvetica,sans-Serif" font-size="10.00">polyfem::solver::Spatial</text>
<text text-anchor="start" x="217" y="-106" font-family="Helvetica,sans-Serif" font-size="10.00">IntegralForm::compute</text>
<text text-anchor="middle" x="303" y="-95" font-family="Helvetica,sans-Serif" font-size="10.00">_partial_gradient_unweighted_step</text>
</a>
</g>
</g>
<!-- Node3&#45;&gt;Node4 -->
<g id="edge3_Node000003_Node000004" class="edge">
<title>Node3&#45;&gt;Node4</title>
<g id="a_edge3_Node000003_Node000004"><a xlink:title=" ">
<path fill="none" stroke="#63b8ff" d="M422.47,-107.41C414.02,-107.49 405.49,-107.57 397.09,-107.64"/>
<polygon fill="#63b8ff" stroke="#63b8ff" points="422.75,-110.91 432.72,-107.32 422.69,-103.91 422.75,-110.91"/>
</a>
</g>
</g>
<!-- Node5 -->
<g id="Node000005" class="node">
<title>Node5</title>
<g id="a_Node000005"><a xlink:href="classpolyfem_1_1solver_1_1_elastic_energy_form.html#a297e740b9c30353e734397679719a7ee" target="_top" xlink:title=" ">
<polygon fill="white" stroke="#666666" points="167,-218 6,-218 6,-177 167,-177 167,-218"/>
<text text-anchor="start" x="14" y="-206" font-family="Helvetica,sans-Serif" font-size="10.00">polyfem::solver::Elastic</text>
<text text-anchor="start" x="14" y="-195" font-family="Helvetica,sans-Serif" font-size="10.00">EnergyForm::compute_partial</text>
<text text-anchor="middle" x="86.5" y="-184" font-family="Helvetica,sans-Serif" font-size="10.00">_gradient_unweighted_step</text>
</a>
</g>
</g>
<!-- Node4&#45;&gt;Node5 -->
<g id="edge4_Node000004_Node000005" class="edge">
<title>Node4&#45;&gt;Node5</title>
<g id="a_edge4_Node000004_Node000005"><a xlink:title=" ">
<path fill="none" stroke="#63b8ff" d="M251.56,-133.51C227.96,-144.81 199.31,-157.95 173,-168.5 165.87,-171.36 158.34,-174.18 150.82,-176.89"/>
<polygon fill="#63b8ff" stroke="#63b8ff" points="253.18,-136.61 260.67,-129.12 250.14,-130.3 253.18,-136.61"/>
</a>
</g>
</g>
<!-- Node6 -->
<g id="Node000006" class="node">
<title>Node6</title>
<g id="a_Node000006"><a xlink:href="classpolyfem_1_1solver_1_1_stress_norm_form.html#a5833930db4dcea6badebdf727c9d7baa" target="_top" xlink:title=" ">
<polygon fill="white" stroke="#666666" points="173,-159 0,-159 0,-118 173,-118 173,-159"/>
<text text-anchor="start" x="8" y="-147" font-family="Helvetica,sans-Serif" font-size="10.00">polyfem::solver::StressNorm</text>
<text text-anchor="start" x="8" y="-136" font-family="Helvetica,sans-Serif" font-size="10.00">Form::compute_partial_gradient</text>
<text text-anchor="middle" x="86.5" y="-125" font-family="Helvetica,sans-Serif" font-size="10.00">_unweighted_step</text>
</a>
</g>
</g>
<!-- Node4&#45;&gt;Node6 -->
<g id="edge5_Node000004_Node000006" class="edge">
<title>Node4&#45;&gt;Node6</title>
<g id="a_edge5_Node000004_Node000006"><a xlink:title=" ">
<path fill="none" stroke="#63b8ff" d="M198.79,-122.93C190.2,-124.14 181.57,-125.34 173.13,-126.52"/>
<polygon fill="#63b8ff" stroke="#63b8ff" points="199.43,-126.38 208.85,-121.53 198.46,-119.45 199.43,-126.38"/>
</a>
</g>
</g>
<!-- Node7 -->
<g id="Node000007" class="node">
<title>Node7</title>
<g id="a_Node000007"><a xlink:href="classpolyfem_1_1solver_1_1_compliance_form.html#af7eba4310771b49215ceb4bd1c863876" target="_top" xlink:title=" ">
<polygon fill="white" stroke="#666666" points="173,-100 0,-100 0,-59 173,-59 173,-100"/>
<text text-anchor="start" x="8" y="-88" font-family="Helvetica,sans-Serif" font-size="10.00">polyfem::solver::Compliance</text>
<text text-anchor="start" x="8" y="-77" font-family="Helvetica,sans-Serif" font-size="10.00">Form::compute_partial_gradient</text>
<text text-anchor="middle" x="86.5" y="-66" font-family="Helvetica,sans-Serif" font-size="10.00">_unweighted_step</text>
</a>
</g>
</g>
<!-- Node4&#45;&gt;Node7 -->
<g id="edge6_Node000004_Node000007" class="edge">
<title>Node4&#45;&gt;Node7</title>
<g id="a_edge6_Node000004_Node000007"><a xlink:title=" ">
<path fill="none" stroke="#63b8ff" d="M198.79,-94.55C190.2,-93.38 181.57,-92.22 173.13,-91.08"/>
<polygon fill="#63b8ff" stroke="#63b8ff" points="198.47,-98.04 208.85,-95.91 199.41,-91.1 198.47,-98.04"/>
</a>
</g>
</g>
<!-- Node8 -->
<g id="Node000008" class="node">
<title>Node8</title>
<g id="a_Node000008"><a xlink:href="classpolyfem_1_1solver_1_1_stress_form.html#af831d0f221b997432f4a484d3444cf44" target="_top" xlink:title=" ">
<polygon fill="white" stroke="#666666" points="163.5,-41 9.5,-41 9.5,0 163.5,0 163.5,-41"/>
<text text-anchor="start" x="17.5" y="-29" font-family="Helvetica,sans-Serif" font-size="10.00">polyfem::solver::StressForm</text>
<text text-anchor="start" x="17.5" y="-18" font-family="Helvetica,sans-Serif" font-size="10.00">::compute_partial_gradient</text>
<text text-anchor="middle" x="86.5" y="-7" font-family="Helvetica,sans-Serif" font-size="10.00">_unweighted_step</text>
</a>
</g>
</g>
<!-- Node4&#45;&gt;Node8 -->
<g id="edge7_Node000004_Node000008" class="edge">
<title>Node4&#45;&gt;Node8</title>
<g id="a_edge7_Node000004_Node000008"><a xlink:title=" ">
<path fill="none" stroke="#63b8ff" d="M217.47,-83.72C214.58,-82.37 211.75,-80.97 209,-79.5 190.87,-69.83 190.95,-60.49 173,-50.5 166.81,-47.06 160.16,-43.9 153.4,-41.03"/>
<polygon fill="#63b8ff" stroke="#63b8ff" points="216.31,-87.03 226.87,-87.81 219.1,-80.61 216.31,-87.03"/>
</a>
</g>
</g>
<!-- Node10 -->
<g id="Node000010" class="node">
<title>Node10</title>
<g id="a_Node000010"><a xlink:href="classpolyfem_1_1solver_1_1_spatial_integral_form.html#ae6d0bea38bff2aebee5b30d56afd29f1" target="_top" xlink:title=" ">
<polygon fill="white" stroke="#666666" points="385,-70 221,-70 221,-29 385,-29 385,-70"/>
<text text-anchor="start" x="229" y="-58" font-family="Helvetica,sans-Serif" font-size="10.00">polyfem::solver::Spatial</text>
<text text-anchor="start" x="229" y="-47" font-family="Helvetica,sans-Serif" font-size="10.00">IntegralForm::compute</text>
<text text-anchor="middle" x="303" y="-36" font-family="Helvetica,sans-Serif" font-size="10.00">_adjoint_rhs_unweighted_step</text>
</a>
</g>
</g>
<!-- Node9&#45;&gt;Node10 -->
<g id="edge9_Node000009_Node000010" class="edge">
<title>Node9&#45;&gt;Node10</title>
<g id="a_edge9_Node000009_Node000010"><a xlink:title=" ">
<path fill="none" stroke="#63b8ff" d="M445.34,-50.8C425.88,-50.62 404.89,-50.43 385.19,-50.25"/>
<polygon fill="#63b8ff" stroke="#63b8ff" points="445.33,-54.3 455.36,-50.89 445.39,-47.3 445.33,-54.3"/>
</a>
</g>
</g>
</g>
</svg>
