<?xml version="1.0" encoding="UTF-8" standalone="no"?>
<!DOCTYPE svg PUBLIC "-//W3C//DTD SVG 1.1//EN"
 "http://www.w3.org/Graphics/SVG/1.1/DTD/svg11.dtd">
<!-- Generated by graphviz version 2.43.0 (0)
 -->
<!-- Title: polyfem::solver::RayleighDampingForm::stiffness Pages: 1 -->
<svg width="1504pt" height="295pt"
 viewBox="0.00 0.00 1504.00 295.00" xmlns="http://www.w3.org/2000/svg" xmlns:xlink="http://www.w3.org/1999/xlink">
<g id="graph0" class="graph" transform="scale(1 1) rotate(0) translate(4 291)">
<title>polyfem::solver::RayleighDampingForm::stiffness</title>
<!-- Node1 -->
<g id="Node000001" class="node">
<title>Node1</title>
<g id="a_Node000001"><a xlink:title="Get the stiffness of the form.">
<polygon fill="#999999" stroke="#666666" points="1496,-138 1354,-138 1354,-108 1496,-108 1496,-138"/>
<text text-anchor="start" x="1362" y="-126" font-family="Helvetica,sans-Serif" font-size="10.00">polyfem::solver::Rayleigh</text>
<text text-anchor="middle" x="1425" y="-115" font-family="Helvetica,sans-Serif" font-size="10.00">DampingForm::stiffness</text>
</a>
</g>
</g>
<!-- Node2 -->
<g id="Node000002" class="node">
<title>Node2</title>
<g id="a_Node000002"><a xlink:href="classpolyfem_1_1solver_1_1_rayleigh_damping_form.html#a1c36fda333a6ed5b32d89a5eac0f0016" target="_top" xlink:title=" ">
<polygon fill="white" stroke="#666666" points="1287.5,-246 1145.5,-246 1145.5,-216 1287.5,-216 1287.5,-246"/>
<text text-anchor="start" x="1153.5" y="-234" font-family="Helvetica,sans-Serif" font-size="10.00">polyfem::solver::Rayleigh</text>
<text text-anchor="middle" x="1216.5" y="-223" font-family="Helvetica,sans-Serif" font-size="10.00">DampingForm::create</text>
</a>
</g>
</g>
<!-- Node1&#45;&gt;Node2 -->
<g id="edge1_Node000001_Node000002" class="edge">
<title>Node1&#45;&gt;Node2</title>
<g id="a_edge1_Node000001_Node000002"><a xlink:title=" ">
<path fill="none" stroke="#63b8ff" d="M1401.91,-145.33C1381.75,-164.46 1350.26,-191.33 1318,-207 1308.48,-211.63 1298.01,-215.39 1287.53,-218.45"/>
<polygon fill="#63b8ff" stroke="#63b8ff" points="1404.57,-147.63 1409.32,-138.17 1399.7,-142.6 1404.57,-147.63"/>
</a>
</g>
</g>
<!-- Node14 -->
<g id="Node000014" class="node">
<title>Node14</title>
<g id="a_Node000014"><a xlink:href="classpolyfem_1_1solver_1_1_rayleigh_damping_form.html#a188aa906affa9b99b01a4875f84a5167" target="_top" xlink:title="Compute the first derivative of the value wrt x.">
<polygon fill="white" stroke="#666666" points="1299,-197.5 1134,-197.5 1134,-156.5 1299,-156.5 1299,-197.5"/>
<text text-anchor="start" x="1142" y="-185.5" font-family="Helvetica,sans-Serif" font-size="10.00">polyfem::solver::Rayleigh</text>
<text text-anchor="start" x="1142" y="-174.5" font-family="Helvetica,sans-Serif" font-size="10.00">DampingForm::first_derivative</text>
<text text-anchor="middle" x="1216.5" y="-163.5" font-family="Helvetica,sans-Serif" font-size="10.00">_unweighted</text>
</a>
</g>
</g>
<!-- Node1&#45;&gt;Node14 -->
<g id="edge16_Node000001_Node000014" class="edge">
<title>Node1&#45;&gt;Node14</title>
<g id="a_edge16_Node000001_Node000014"><a xlink:title=" ">
<path fill="none" stroke="#63b8ff" d="M1356.54,-140.64C1337.18,-145.7 1315.9,-151.27 1295.93,-156.49"/>
<polygon fill="#63b8ff" stroke="#63b8ff" points="1357.69,-143.96 1366.48,-138.04 1355.92,-137.19 1357.69,-143.96"/>
</a>
</g>
</g>
<!-- Node15 -->
<g id="Node000015" class="node">
<title>Node15</title>
<g id="a_Node000015"><a xlink:href="classpolyfem_1_1solver_1_1_rayleigh_damping_form.html#a649b6b14431218d34be498a9cb107093" target="_top" xlink:title="Construct a new Lagged Regularization Form object.">
<polygon fill="white" stroke="#666666" points="1318,-138 1115,-138 1115,-108 1318,-108 1318,-138"/>
<text text-anchor="start" x="1123" y="-126" font-family="Helvetica,sans-Serif" font-size="10.00">polyfem::solver::Rayleigh</text>
<text text-anchor="middle" x="1216.5" y="-115" font-family="Helvetica,sans-Serif" font-size="10.00">DampingForm::RayleighDampingForm</text>
</a>
</g>
</g>
<!-- Node1&#45;&gt;Node15 -->
<g id="edge17_Node000001_Node000015" class="edge">
<title>Node1&#45;&gt;Node15</title>
<g id="a_edge17_Node000001_Node000015"><a xlink:title=" ">
<path fill="none" stroke="#63b8ff" d="M1343.73,-123C1335.37,-123 1326.8,-123 1318.26,-123"/>
<polygon fill="#63b8ff" stroke="#63b8ff" points="1343.8,-126.5 1353.8,-123 1343.8,-119.5 1343.8,-126.5"/>
</a>
</g>
</g>
<!-- Node16 -->
<g id="Node000016" class="node">
<title>Node16</title>
<g id="a_Node000016"><a xlink:href="classpolyfem_1_1solver_1_1_rayleigh_damping_form.html#a1948ae0fed6e24a8e06b63693b2eedcc" target="_top" xlink:title="Compute the second derivative of the value wrt x.">
<polygon fill="white" stroke="#666666" points="1307,-89.5 1126,-89.5 1126,-48.5 1307,-48.5 1307,-89.5"/>
<text text-anchor="start" x="1134" y="-77.5" font-family="Helvetica,sans-Serif" font-size="10.00">polyfem::solver::Rayleigh</text>
<text text-anchor="start" x="1134" y="-66.5" font-family="Helvetica,sans-Serif" font-size="10.00">DampingForm::second_derivative</text>
<text text-anchor="middle" x="1216.5" y="-55.5" font-family="Helvetica,sans-Serif" font-size="10.00">_unweighted</text>
</a>
</g>
</g>
<!-- Node1&#45;&gt;Node16 -->
<g id="edge18_Node000001_Node000016" class="edge">
<title>Node1&#45;&gt;Node16</title>
<g id="a_edge18_Node000001_Node000016"><a xlink:title=" ">
<path fill="none" stroke="#63b8ff" d="M1356.54,-105.36C1337.18,-100.3 1315.9,-94.73 1295.93,-89.51"/>
<polygon fill="#63b8ff" stroke="#63b8ff" points="1355.92,-108.81 1366.48,-107.96 1357.69,-102.04 1355.92,-108.81"/>
</a>
</g>
</g>
<!-- Node17 -->
<g id="Node000017" class="node">
<title>Node17</title>
<g id="a_Node000017"><a xlink:href="classpolyfem_1_1solver_1_1_rayleigh_damping_form.html#a9c5bcdd5e6b4f1a98a9ebdc75900ec92" target="_top" xlink:title="Compute the value of the form.">
<polygon fill="white" stroke="#666666" points="1307,-30 1126,-30 1126,0 1307,0 1307,-30"/>
<text text-anchor="start" x="1134" y="-18" font-family="Helvetica,sans-Serif" font-size="10.00">polyfem::solver::Rayleigh</text>
<text text-anchor="middle" x="1216.5" y="-7" font-family="Helvetica,sans-Serif" font-size="10.00">DampingForm::value_unweighted</text>
</a>
</g>
</g>
<!-- Node1&#45;&gt;Node17 -->
<g id="edge19_Node000001_Node000017" class="edge">
<title>Node1&#45;&gt;Node17</title>
<g id="a_edge19_Node000001_Node000017"><a xlink:title=" ">
<path fill="none" stroke="#63b8ff" d="M1401.91,-100.67C1381.75,-81.54 1350.26,-54.67 1318,-39 1310.9,-35.55 1303.27,-32.58 1295.51,-30.02"/>
<polygon fill="#63b8ff" stroke="#63b8ff" points="1399.7,-103.4 1409.32,-107.83 1404.57,-98.37 1399.7,-103.4"/>
</a>
</g>
</g>
<!-- Node3 -->
<g id="Node000003" class="node">
<title>Node3</title>
<g id="a_Node000003"><a xlink:href="classpolyfem_1_1solver_1_1_solve_data.html#ad1a31008537de25de9eceff7133ab519" target="_top" xlink:title="Initialize the forms and return a vector of pointers to them.">
<polygon fill="white" stroke="#666666" points="1079,-246 930,-246 930,-216 1079,-216 1079,-246"/>
<text text-anchor="start" x="938" y="-234" font-family="Helvetica,sans-Serif" font-size="10.00">polyfem::solver::SolveData</text>
<text text-anchor="middle" x="1004.5" y="-223" font-family="Helvetica,sans-Serif" font-size="10.00">::init_forms</text>
</a>
</g>
</g>
<!-- Node2&#45;&gt;Node3 -->
<g id="edge2_Node000002_Node000003" class="edge">
<title>Node2&#45;&gt;Node3</title>
<g id="a_edge2_Node000002_Node000003"><a xlink:title=" ">
<path fill="none" stroke="#63b8ff" d="M1135.19,-231C1116.8,-231 1097.34,-231 1079.25,-231"/>
<polygon fill="#63b8ff" stroke="#63b8ff" points="1135.28,-234.5 1145.28,-231 1135.28,-227.5 1135.28,-234.5"/>
</a>
</g>
</g>
<!-- Node4 -->
<g id="Node000004" class="node">
<title>Node4</title>
<g id="a_Node000004"><a xlink:href="classpolyfem_1_1_state.html#aff8fe0ab67886249fcb30534a0d946b2" target="_top" xlink:title=" ">
<polygon fill="white" stroke="#666666" points="892.5,-278 760.5,-278 760.5,-248 892.5,-248 892.5,-278"/>
<text text-anchor="start" x="768.5" y="-266" font-family="Helvetica,sans-Serif" font-size="10.00">polyfem::State::init</text>
<text text-anchor="middle" x="826.5" y="-255" font-family="Helvetica,sans-Serif" font-size="10.00">_homogenization_solve</text>
</a>
</g>
</g>
<!-- Node3&#45;&gt;Node4 -->
<g id="edge3_Node000003_Node000004" class="edge">
<title>Node3&#45;&gt;Node4</title>
<g id="a_edge3_Node000003_Node000004"><a xlink:title=" ">
<path fill="none" stroke="#63b8ff" d="M919.98,-246.18C910.82,-247.85 901.6,-249.53 892.7,-251.14"/>
<polygon fill="#63b8ff" stroke="#63b8ff" points="920.67,-249.62 929.88,-244.39 919.42,-242.73 920.67,-249.62"/>
</a>
</g>
</g>
<!-- Node11 -->
<g id="Node000011" class="node">
<title>Node11</title>
<g id="a_Node000011"><a xlink:href="classpolyfem_1_1_state.html#ae0de6ea3bdc69e3e21ddfbcdb144180b" target="_top" xlink:title="initialize the nonlinear solver">
<polygon fill="white" stroke="#666666" points="894,-222 759,-222 759,-192 894,-192 894,-222"/>
<text text-anchor="start" x="767" y="-210" font-family="Helvetica,sans-Serif" font-size="10.00">polyfem::State::init</text>
<text text-anchor="middle" x="826.5" y="-199" font-family="Helvetica,sans-Serif" font-size="10.00">_nonlinear_tensor_solve</text>
</a>
</g>
</g>
<!-- Node3&#45;&gt;Node11 -->
<g id="edge10_Node000003_Node000011" class="edge">
<title>Node3&#45;&gt;Node11</title>
<g id="a_edge10_Node000003_Node000011"><a xlink:title=" ">
<path fill="none" stroke="#63b8ff" d="M919.8,-219.59C911.18,-218.41 902.5,-217.23 894.09,-216.08"/>
<polygon fill="#63b8ff" stroke="#63b8ff" points="919.5,-223.08 929.88,-220.96 920.44,-216.14 919.5,-223.08"/>
</a>
</g>
</g>
<!-- Node5 -->
<g id="Node000005" class="node">
<title>Node5</title>
<g id="a_Node000005"><a xlink:href="classpolyfem_1_1_state.html#a711a7162a063d7534b03d9ff9acb93f0" target="_top" xlink:title=" ">
<polygon fill="white" stroke="#666666" points="540.5,-287 419.5,-287 419.5,-257 540.5,-257 540.5,-287"/>
<text text-anchor="start" x="427.5" y="-275" font-family="Helvetica,sans-Serif" font-size="10.00">polyfem::State::solve</text>
<text text-anchor="middle" x="480" y="-264" font-family="Helvetica,sans-Serif" font-size="10.00">_homogenization</text>
</a>
</g>
</g>
<!-- Node4&#45;&gt;Node5 -->
<g id="edge4_Node000004_Node000005" class="edge">
<title>Node4&#45;&gt;Node5</title>
<g id="a_edge4_Node000004_Node000005"><a xlink:title=" ">
<path fill="none" stroke="#63b8ff" d="M750.04,-264.97C687.16,-266.61 598.81,-268.92 540.75,-270.44"/>
<polygon fill="#63b8ff" stroke="#63b8ff" points="750.39,-268.46 760.3,-264.7 750.21,-261.47 750.39,-268.46"/>
</a>
</g>
</g>
<!-- Node6 -->
<g id="Node000006" class="node">
<title>Node6</title>
<g id="a_Node000006"><a xlink:href="classpolyfem_1_1_state.html#a7450ef7c42dd9c523e1be73a5819117d" target="_top" xlink:title="solves the problems">
<polygon fill="white" stroke="#666666" points="368,-244 247,-244 247,-214 368,-214 368,-244"/>
<text text-anchor="start" x="255" y="-232" font-family="Helvetica,sans-Serif" font-size="10.00">polyfem::State::solve</text>
<text text-anchor="middle" x="307.5" y="-221" font-family="Helvetica,sans-Serif" font-size="10.00">_problem</text>
</a>
</g>
</g>
<!-- Node5&#45;&gt;Node6 -->
<g id="edge5_Node000005_Node000006" class="edge">
<title>Node5&#45;&gt;Node6</title>
<g id="a_edge5_Node000005_Node000006"><a xlink:title=" ">
<path fill="none" stroke="#63b8ff" d="M409.49,-254.47C395.76,-251.01 381.47,-247.4 368.1,-244.03"/>
<polygon fill="#63b8ff" stroke="#63b8ff" points="408.82,-257.91 419.37,-256.96 410.53,-251.12 408.82,-257.91"/>
</a>
</g>
</g>
<!-- Node7 -->
<g id="Node000007" class="node">
<title>Node7</title>
<g id="a_Node000007"><a xlink:href="main_8cpp.html#aec889c702a246ad7f332c75ab7adb438" target="_top" xlink:title=" ">
<polygon fill="white" stroke="#666666" points="199.5,-275.5 88.5,-275.5 88.5,-256.5 199.5,-256.5 199.5,-275.5"/>
<text text-anchor="middle" x="144" y="-263.5" font-family="Helvetica,sans-Serif" font-size="10.00">forward_simulation</text>
</a>
</g>
</g>
<!-- Node6&#45;&gt;Node7 -->
<g id="edge6_Node000006_Node000007" class="edge">
<title>Node6&#45;&gt;Node7</title>
<g id="a_edge6_Node000006_Node000007"><a xlink:title=" ">
<path fill="none" stroke="#63b8ff" d="M236.88,-244.95C219.82,-248.86 202.08,-252.92 186.8,-256.42"/>
<polygon fill="#63b8ff" stroke="#63b8ff" points="237.86,-248.32 246.82,-242.67 236.29,-241.49 237.86,-248.32"/>
</a>
</g>
</g>
<!-- Node9 -->
<g id="Node000009" class="node">
<title>Node9</title>
<g id="a_Node000009"><a xlink:href="classpolyfem_1_1_state.html#a219f9935d918f739d82488449bd4cbf4" target="_top" xlink:title="solves the problem, call other methods">
<polygon fill="white" stroke="#666666" points="204.5,-238.5 83.5,-238.5 83.5,-219.5 204.5,-219.5 204.5,-238.5"/>
<text text-anchor="middle" x="144" y="-226.5" font-family="Helvetica,sans-Serif" font-size="10.00">polyfem::State::solve</text>
</a>
</g>
</g>
<!-- Node6&#45;&gt;Node9 -->
<g id="edge8_Node000006_Node000009" class="edge">
<title>Node6&#45;&gt;Node9</title>
<g id="a_edge8_Node000006_Node000009"><a xlink:title=" ">
<path fill="none" stroke="#63b8ff" d="M236.7,-229C226.04,-229 215.12,-229 204.7,-229"/>
<polygon fill="#63b8ff" stroke="#63b8ff" points="236.82,-232.5 246.82,-229 236.82,-225.5 236.82,-232.5"/>
</a>
</g>
</g>
<!-- Node10 -->
<g id="Node000010" class="node">
<title>Node10</title>
<g id="a_Node000010"><a xlink:href="structpolyfem_1_1solver_1_1_adjoint_opt_utils.html#acac3e8ce8646ddd1544ed034c71bec96" target="_top" xlink:title=" ">
<polygon fill="white" stroke="#666666" points="211,-201 77,-201 77,-171 211,-171 211,-201"/>
<text text-anchor="start" x="85" y="-189" font-family="Helvetica,sans-Serif" font-size="10.00">polyfem::solver::Adjoint</text>
<text text-anchor="middle" x="144" y="-178" font-family="Helvetica,sans-Serif" font-size="10.00">OptUtils::solve_pde</text>
</a>
</g>
</g>
<!-- Node6&#45;&gt;Node10 -->
<g id="edge9_Node000006_Node000010" class="edge">
<title>Node6&#45;&gt;Node10</title>
<g id="a_edge9_Node000006_Node000010"><a xlink:title=" ">
<path fill="none" stroke="#63b8ff" d="M240.28,-211.37C227.39,-207.94 213.99,-204.37 201.45,-201.03"/>
<polygon fill="#63b8ff" stroke="#63b8ff" points="239.45,-214.77 250.02,-213.96 241.25,-208.01 239.45,-214.77"/>
</a>
</g>
</g>
<!-- Node8 -->
<g id="Node000008" class="node">
<title>Node8</title>
<g id="a_Node000008"><a xlink:href="main_8cpp.html#a3c04138a5bfe5d72780bb7e82a18e627" target="_top" xlink:title=" ">
<polygon fill="white" stroke="#666666" points="41,-275.5 0,-275.5 0,-256.5 41,-256.5 41,-275.5"/>
<text text-anchor="middle" x="20.5" y="-263.5" font-family="Helvetica,sans-Serif" font-size="10.00">main</text>
</a>
</g>
</g>
<!-- Node7&#45;&gt;Node8 -->
<g id="edge7_Node000007_Node000008" class="edge">
<title>Node7&#45;&gt;Node8</title>
<g id="a_edge7_Node000007_Node000008"><a xlink:title=" ">
<path fill="none" stroke="#63b8ff" d="M77.97,-266C64.49,-266 51.29,-266 41.05,-266"/>
<polygon fill="#63b8ff" stroke="#63b8ff" points="78.29,-269.5 88.29,-266 78.29,-262.5 78.29,-269.5"/>
</a>
</g>
</g>
<!-- Node11&#45;&gt;Node6 -->
<g id="edge14_Node000011_Node000006" class="edge">
<title>Node11&#45;&gt;Node6</title>
<g id="a_edge14_Node000011_Node000006"><a xlink:title=" ">
<path fill="none" stroke="#63b8ff" d="M748.89,-210.26C645.25,-214.67 462.55,-222.44 368.37,-226.45"/>
<polygon fill="#63b8ff" stroke="#63b8ff" points="749.13,-213.75 758.97,-209.83 748.83,-206.76 749.13,-213.75"/>
</a>
</g>
</g>
<!-- Node12 -->
<g id="Node000012" class="node">
<title>Node12</title>
<g id="a_Node000012"><a xlink:href="classpolyfem_1_1_state.html#a5ddafd77c68a90e74e41d4591f387f75" target="_top" xlink:title="Remesh the FE space and update solution(s).">
<polygon fill="white" stroke="#666666" points="723,-200.5 592,-200.5 592,-181.5 723,-181.5 723,-200.5"/>
<text text-anchor="middle" x="657.5" y="-188.5" font-family="Helvetica,sans-Serif" font-size="10.00">polyfem::State::remesh</text>
</a>
</g>
</g>
<!-- Node11&#45;&gt;Node12 -->
<g id="edge11_Node000011_Node000012" class="edge">
<title>Node11&#45;&gt;Node12</title>
<g id="a_edge11_Node000011_Node000012"><a xlink:title=" ">
<path fill="none" stroke="#63b8ff" d="M748.57,-199.63C740.03,-198.81 731.4,-197.98 723.03,-197.18"/>
<polygon fill="#63b8ff" stroke="#63b8ff" points="748.25,-203.11 758.54,-200.58 748.92,-196.15 748.25,-203.11"/>
</a>
</g>
</g>
<!-- Node13 -->
<g id="Node000013" class="node">
<title>Node13</title>
<g id="a_Node000013"><a xlink:href="classpolyfem_1_1_state.html#a4d91e8c971fc121b0cff2f0c02ca79e7" target="_top" xlink:title="solves transient tensor nonlinear problem">
<polygon fill="white" stroke="#666666" points="556,-201 404,-201 404,-171 556,-171 556,-201"/>
<text text-anchor="start" x="412" y="-189" font-family="Helvetica,sans-Serif" font-size="10.00">polyfem::State::solve</text>
<text text-anchor="middle" x="480" y="-178" font-family="Helvetica,sans-Serif" font-size="10.00">_transient_tensor_nonlinear</text>
</a>
</g>
</g>
<!-- Node11&#45;&gt;Node13 -->
<g id="edge15_Node000011_Node000013" class="edge">
<title>Node11&#45;&gt;Node13</title>
<g id="a_edge15_Node000011_Node000013"><a xlink:title=" ">
<path fill="none" stroke="#63b8ff" d="M781.15,-188.3C763.41,-181.76 742.56,-175.25 723,-172 667.58,-162.8 604.15,-167 556.13,-173.13"/>
<polygon fill="#63b8ff" stroke="#63b8ff" points="780.07,-191.63 790.66,-191.91 782.56,-185.09 780.07,-191.63"/>
</a>
</g>
</g>
<!-- Node12&#45;&gt;Node13 -->
<g id="edge12_Node000012_Node000013" class="edge">
<title>Node12&#45;&gt;Node13</title>
<g id="a_edge12_Node000012_Node000013"><a xlink:title=" ">
<path fill="none" stroke="#63b8ff" d="M581.54,-188.86C573.16,-188.63 564.63,-188.38 556.26,-188.14"/>
<polygon fill="#63b8ff" stroke="#63b8ff" points="581.55,-192.37 591.65,-189.15 581.75,-185.37 581.55,-192.37"/>
</a>
</g>
</g>
<!-- Node13&#45;&gt;Node6 -->
<g id="edge13_Node000013_Node000006" class="edge">
<title>Node13&#45;&gt;Node6</title>
<g id="a_edge13_Node000013_Node000006"><a xlink:title=" ">
<path fill="none" stroke="#63b8ff" d="M409.49,-203.53C395.76,-206.99 381.47,-210.6 368.1,-213.97"/>
<polygon fill="#63b8ff" stroke="#63b8ff" points="410.53,-206.88 419.37,-201.04 408.82,-200.09 410.53,-206.88"/>
</a>
</g>
</g>
</g>
</svg>
