<?xml version="1.0" encoding="UTF-8" standalone="no"?>
<!DOCTYPE svg PUBLIC "-//W3C//DTD SVG 1.1//EN"
 "http://www.w3.org/Graphics/SVG/1.1/DTD/svg11.dtd">
<!-- Generated by graphviz version 2.43.0 (0)
 -->
<!-- Title: polyfem::State::build_pressure_assembler Pages: 1 -->
<!--zoomable 109 -->

<svg id="main" version="1.1" xmlns="http://www.w3.org/2000/svg" xmlns:xlink="http://www.w3.org/1999/xlink" xml:space="preserve" onload="init(evt)">
<style type="text/css"><![CDATA[
.node, .edge {opacity: 0.7;}
.node.selected, .edge.selected {opacity: 1;}
.edge:hover path { stroke: red; }
.edge:hover polygon { stroke: red; fill: red; }
]]></style>

<defs>
  <circle id="rim" cx="0" cy="0" r="7"/>
  <circle id="rim2" cx="0" cy="0" r="3.5"/>
  <g id="zoomPlus">
    <use xlink:href="#rim" fill="#404040"><set attributeName="fill" to="#808080" begin="zoomplus.mouseover" end="zoomplus.mouseout"/></use>
    <path d="M-4,0h8M0,-4v8" fill="none" stroke="white" stroke-width="1.5" pointer-events="none"/>
  </g>
  <g id="zoomMin">
    <use xlink:href="#rim" fill="#404040"><set attributeName="fill" to="#808080" begin="zoomminus.mouseover" end="zoomminus.mouseout"/></use>
    <path d="M-4,0h8" fill="none" stroke="white" stroke-width="1.5" pointer-events="none"/>
  </g>
  <g id="arrowUp" transform="translate(30 24)">
    <use xlink:href="#rim"/>
    <path pointer-events="none" fill="none" stroke="white" stroke-width="1.5" d="M0,-3.0v7 M-2.5,-0.5L0,-3.0L2.5,-0.5"/>
  </g>
  <g id="arrowRight" transform="rotate(90) translate(36 -43)">
    <use xlink:href="#rim"/>
    <path pointer-events="none" fill="none" stroke="white" stroke-width="1.5" d="M0,-3.0v7 M-2.5,-0.5L0,-3.0L2.5,-0.5"/>
  </g>
  <g id="arrowDown" transform="rotate(180) translate(-30 -48)">
    <use xlink:href="#rim"/>
    <path pointer-events="none" fill="none" stroke="white" stroke-width="1.5" d="M0,-3.0v7 M-2.5,-0.5L0,-3.0L2.5,-0.5"/>
  </g>
  <g id="arrowLeft" transform="rotate(270) translate(-36 17)">
    <use xlink:href="#rim"/>
    <path pointer-events="none" fill="none" stroke="white" stroke-width="1.5" d="M0,-3.0v7 M-2.5,-0.5L0,-3.0L2.5,-0.5"/>
  </g>
  <g id="resetDef">
    <use xlink:href="#rim2" fill="#404040"><set attributeName="fill" to="#808080" begin="reset.mouseover" end="reset.mouseout"/></use>
  </g>
</defs>
<script type="application/ecmascript">
var viewWidth = 1058;
var viewHeight = 109;
var sectionId = 'dynsection-21';
</script>
<script type="application/ecmascript" xlink:href="svg.min.js"/>
<svg id="graph" class="graph">
<g id="viewport">
<title>polyfem::State::build_pressure_assembler</title>
<!-- Node1 -->
<g id="Node000001" class="node">
<title>Node1</title>
<g id="a_Node000001"><a xlink:title=" ">
<polygon fill="#999999" stroke="#666666" points="1050,-68 930,-68 930,-38 1050,-38 1050,-68"/>
<text text-anchor="start" x="938" y="-56" font-family="Helvetica,sans-Serif" font-size="10.00">polyfem::State::build</text>
<text text-anchor="middle" x="990" y="-45" font-family="Helvetica,sans-Serif" font-size="10.00">_pressure_assembler</text>
</a>
</g>
</g>
<!-- Node1&#45;&gt;Node1 -->
<g id="edge1_Node000001_Node000001" class="edge">
<title>Node1&#45;&gt;Node1</title>
<g id="a_edge1_Node000001_Node000001"><a xlink:title=" ">
<path fill="none" stroke="#63b8ff" d="M1018.36,-78.6C1014.48,-82.97 1005.03,-86 990,-86 964.69,-86 955.2,-77.41 961.52,-68.28"/>
<polygon fill="#63b8ff" stroke="#63b8ff" points="1021.86,-78.32 1018.48,-68.28 1014.86,-78.23 1021.86,-78.32"/>
</a>
</g>
</g>
<!-- Node2 -->
<g id="Node000002" class="node">
<title>Node2</title>
<g id="a_Node000002"><a xlink:href="classpolyfem_1_1_state.html#ae0de6ea3bdc69e3e21ddfbcdb144180b" target="_top" xlink:title="initialize the nonlinear solver">
<polygon fill="white" stroke="#666666" points="894,-68 759,-68 759,-38 894,-38 894,-68"/>
<text text-anchor="start" x="767" y="-56" font-family="Helvetica,sans-Serif" font-size="10.00">polyfem::State::init</text>
<text text-anchor="middle" x="826.5" y="-45" font-family="Helvetica,sans-Serif" font-size="10.00">_nonlinear_tensor_solve</text>
</a>
</g>
</g>
<!-- Node1&#45;&gt;Node2 -->
<g id="edge2_Node000001_Node000002" class="edge">
<title>Node1&#45;&gt;Node2</title>
<g id="a_edge2_Node000001_Node000002"><a xlink:title=" ">
<path fill="none" stroke="#63b8ff" d="M919.57,-53C911.12,-53 902.49,-53 894.08,-53"/>
<polygon fill="#63b8ff" stroke="#63b8ff" points="919.78,-56.5 929.78,-53 919.78,-49.5 919.78,-56.5"/>
</a>
</g>
</g>
<!-- Node3 -->
<g id="Node000003" class="node">
<title>Node3</title>
<g id="a_Node000003"><a xlink:href="classpolyfem_1_1_state.html#a5ddafd77c68a90e74e41d4591f387f75" target="_top" xlink:title="Remesh the FE space and update solution(s).">
<polygon fill="white" stroke="#666666" points="723,-100.5 592,-100.5 592,-81.5 723,-81.5 723,-100.5"/>
<text text-anchor="middle" x="657.5" y="-88.5" font-family="Helvetica,sans-Serif" font-size="10.00">polyfem::State::remesh</text>
</a>
</g>
</g>
<!-- Node2&#45;&gt;Node3 -->
<g id="edge3_Node000002_Node000003" class="edge">
<title>Node2&#45;&gt;Node3</title>
<g id="a_edge3_Node000002_Node000003"><a xlink:title=" ">
<path fill="none" stroke="#63b8ff" d="M749.62,-70.27C732.74,-74.11 715.43,-78.05 700.5,-81.44"/>
<polygon fill="#63b8ff" stroke="#63b8ff" points="750.52,-73.65 759.5,-68.02 748.97,-66.82 750.52,-73.65"/>
</a>
</g>
</g>
<!-- Node4 -->
<g id="Node000004" class="node">
<title>Node4</title>
<g id="a_Node000004"><a xlink:href="classpolyfem_1_1_state.html#a34b22126f0ef276354f0c5060b246922" target="_top" xlink:title="solves transient tensor nonlinear problem">
<polygon fill="white" stroke="#666666" points="556,-73 404,-73 404,-43 556,-43 556,-73"/>
<text text-anchor="start" x="412" y="-61" font-family="Helvetica,sans-Serif" font-size="10.00">polyfem::State::solve</text>
<text text-anchor="middle" x="480" y="-50" font-family="Helvetica,sans-Serif" font-size="10.00">_transient_tensor_nonlinear</text>
</a>
</g>
</g>
<!-- Node2&#45;&gt;Node4 -->
<g id="edge10_Node000002_Node000004" class="edge">
<title>Node2&#45;&gt;Node4</title>
<g id="a_edge10_Node000002_Node000004"><a xlink:title=" ">
<path fill="none" stroke="#63b8ff" d="M748.55,-54.12C691.1,-54.95 613.01,-56.08 556.02,-56.91"/>
<polygon fill="#63b8ff" stroke="#63b8ff" points="748.72,-57.61 758.67,-53.97 748.62,-50.62 748.72,-57.61"/>
</a>
</g>
</g>
<!-- Node5 -->
<g id="Node000005" class="node">
<title>Node5</title>
<g id="a_Node000005"><a xlink:href="classpolyfem_1_1_state.html#a8f5a3b6048c0620357b96daeea7270d5" target="_top" xlink:title="solves the problems">
<polygon fill="white" stroke="#666666" points="368,-51 247,-51 247,-21 368,-21 368,-51"/>
<text text-anchor="start" x="255" y="-39" font-family="Helvetica,sans-Serif" font-size="10.00">polyfem::State::solve</text>
<text text-anchor="middle" x="307.5" y="-28" font-family="Helvetica,sans-Serif" font-size="10.00">_problem</text>
</a>
</g>
</g>
<!-- Node2&#45;&gt;Node5 -->
<g id="edge9_Node000002_Node000005" class="edge">
<title>Node2&#45;&gt;Node5</title>
<g id="a_edge9_Node000002_Node000005"><a xlink:title=" ">
<path fill="none" stroke="#63b8ff" d="M748.68,-46.14C694.8,-41.68 621.06,-36.29 556,-34 488.49,-31.62 471.55,-33.29 404,-34 392.39,-34.12 379.99,-34.33 368.1,-34.56"/>
<polygon fill="#63b8ff" stroke="#63b8ff" points="748.58,-49.64 758.84,-46.99 749.17,-42.67 748.58,-49.64"/>
</a>
</g>
</g>
<!-- Node3&#45;&gt;Node4 -->
<g id="edge4_Node000003_Node000004" class="edge">
<title>Node3&#45;&gt;Node4</title>
<g id="a_edge4_Node000003_Node000004"><a xlink:title=" ">
<path fill="none" stroke="#63b8ff" d="M595.71,-79.57C582.95,-77.17 569.35,-74.61 556.13,-72.13"/>
<polygon fill="#63b8ff" stroke="#63b8ff" points="595.26,-83.05 605.74,-81.46 596.56,-76.17 595.26,-83.05"/>
</a>
</g>
</g>
<!-- Node4&#45;&gt;Node5 -->
<g id="edge5_Node000004_Node000005" class="edge">
<title>Node4&#45;&gt;Node5</title>
<g id="a_edge5_Node000004_Node000005"><a xlink:title=" ">
<path fill="none" stroke="#63b8ff" d="M393.59,-46.98C384.95,-45.86 376.31,-44.75 368.02,-43.68"/>
<polygon fill="#63b8ff" stroke="#63b8ff" points="393.35,-50.48 403.72,-48.29 394.25,-43.54 393.35,-50.48"/>
</a>
</g>
</g>
<!-- Node6 -->
<g id="Node000006" class="node">
<title>Node6</title>
<g id="a_Node000006"><a xlink:href="main_8cpp.html#aec889c702a246ad7f332c75ab7adb438" target="_top" xlink:title=" ">
<polygon fill="white" stroke="#666666" points="199.5,-67.5 88.5,-67.5 88.5,-48.5 199.5,-48.5 199.5,-67.5"/>
<text text-anchor="middle" x="144" y="-55.5" font-family="Helvetica,sans-Serif" font-size="10.00">forward_simulation</text>
</a>
</g>
</g>
<!-- Node5&#45;&gt;Node6 -->
<g id="edge6_Node000005_Node000006" class="edge">
<title>Node5&#45;&gt;Node6</title>
<g id="a_edge6_Node000005_Node000006"><a xlink:title=" ">
<path fill="none" stroke="#63b8ff" d="M236.55,-45.53C224.19,-47.21 211.48,-48.94 199.62,-50.56"/>
<polygon fill="#63b8ff" stroke="#63b8ff" points="237.39,-48.95 246.82,-44.13 236.44,-42.01 237.39,-48.95"/>
</a>
</g>
</g>
<!-- Node8 -->
<g id="Node000008" class="node">
<title>Node8</title>
<g id="a_Node000008"><a xlink:href="structpolyfem_1_1solver_1_1_adjoint_opt_utils.html#acac3e8ce8646ddd1544ed034c71bec96" target="_top" xlink:title=" ">
<polygon fill="white" stroke="#666666" points="211,-30 77,-30 77,0 211,0 211,-30"/>
<text text-anchor="start" x="85" y="-18" font-family="Helvetica,sans-Serif" font-size="10.00">polyfem::solver::Adjoint</text>
<text text-anchor="middle" x="144" y="-7" font-family="Helvetica,sans-Serif" font-size="10.00">OptUtils::solve_pde</text>
</a>
</g>
</g>
<!-- Node5&#45;&gt;Node8 -->
<g id="edge8_Node000005_Node000008" class="edge">
<title>Node5&#45;&gt;Node8</title>
<g id="a_edge8_Node000005_Node000008"><a xlink:title=" ">
<path fill="none" stroke="#63b8ff" d="M236.64,-26.92C228.21,-25.82 219.61,-24.7 211.23,-23.61"/>
<polygon fill="#63b8ff" stroke="#63b8ff" points="236.45,-30.42 246.82,-28.24 237.36,-23.48 236.45,-30.42"/>
</a>
</g>
</g>
<!-- Node7 -->
<g id="Node000007" class="node">
<title>Node7</title>
<g id="a_Node000007"><a xlink:href="main_8cpp.html#a3c04138a5bfe5d72780bb7e82a18e627" target="_top" xlink:title=" ">
<polygon fill="white" stroke="#666666" points="41,-67.5 0,-67.5 0,-48.5 41,-48.5 41,-67.5"/>
<text text-anchor="middle" x="20.5" y="-55.5" font-family="Helvetica,sans-Serif" font-size="10.00">main</text>
</a>
</g>
</g>
<!-- Node6&#45;&gt;Node7 -->
<g id="edge7_Node000006_Node000007" class="edge">
<title>Node6&#45;&gt;Node7</title>
<g id="a_edge7_Node000006_Node000007"><a xlink:title=" ">
<path fill="none" stroke="#63b8ff" d="M77.97,-58C64.49,-58 51.29,-58 41.05,-58"/>
<polygon fill="#63b8ff" stroke="#63b8ff" points="78.29,-61.5 88.29,-58 78.29,-54.5 78.29,-61.5"/>
</a>
</g>
</g>
</g>
</svg>

<g id="navigator" transform="translate(0 0)" fill="#404254">
  <rect fill="#f2f5e9" fill-opacity="0.5" stroke="#606060" stroke-width=".5" x="0" y="0" width="60" height="60"/>
  <use id="zoomplus" xlink:href="#zoomPlus" x="17" y="9" onmousedown="handleZoom(evt,'in')"/>
  <use id="zoomminus" xlink:href="#zoomMin" x="42" y="9" onmousedown="handleZoom(evt,'out')"/>
  <use id="reset" xlink:href="#resetDef" x="30" y="36" onmousedown="handleReset()"/>
   <use id="arrowup" xlink:href="#arrowUp" x="0" y="0" onmousedown="handlePan(0,-1)"/>
  <use id="arrowright" xlink:href="#arrowRight" x="0" y="0" onmousedown="handlePan(1,0)"/>
  <use id="arrowdown" xlink:href="#arrowDown" x="0" y="0" onmousedown="handlePan(0,1)"/>
  <use id="arrowleft" xlink:href="#arrowLeft" x="0" y="0" onmousedown="handlePan(-1,0)"/>
</g>
<svg viewBox="0 0 15 15" width="100%" height="30px" preserveAspectRatio="xMaxYMin meet">
 <g id="arrow_out" transform="scale(0.3 0.3)">
  <a xlink:href="classpolyfem_1_1_state_af4a6529bbd9266f9dce93015c67e119a_icgraph_org.svg" target="_base">
   <rect id="button" ry="5" rx="5" y="6" x="6" height="38" width="38"
        fill="#f2f5e9" fill-opacity="0.5" stroke="#606060" stroke-width="1.0"/>
   <path id="arrow"
     d="M 11.500037,31.436501 C 11.940474,20.09759 22.043105,11.32322 32.158766,21.979434 L 37.068811,17.246167 C 37.068811,17.246167 37.088388,32 37.088388,32 L 22.160133,31.978069 C 22.160133,31.978069 26.997745,27.140456 26.997745,27.140456 C 18.528582,18.264221 13.291696,25.230495 11.500037,31.436501 z"
     style="fill:#404040;"/>
  </a>
 </g>
</svg>

<style type='text/css'>
<![CDATA[
[data-mouse-over-selected='false'] { opacity: 0.7; }
[data-mouse-over-selected='true']  { opacity: 1.0; }
]]>
</style>
<script type="application/ecmascript"><![CDATA[
document.addEventListener('DOMContentLoaded', (event) => {
  highlightEdges();
  highlightAdjacentNodes();
});
]]></script>
</svg>
