<?xml version="1.0" encoding="UTF-8" standalone="no"?>
<!DOCTYPE svg PUBLIC "-//W3C//DTD SVG 1.1//EN"
 "http://www.w3.org/Graphics/SVG/1.1/DTD/svg11.dtd">
<!-- Generated by graphviz version 2.43.0 (0)
 -->
<!-- Title: polyfem::assembler::MultiModel Pages: 1 -->
<svg width="1032pt" height="285pt"
 viewBox="0.00 0.00 1032.00 285.00" xmlns="http://www.w3.org/2000/svg" xmlns:xlink="http://www.w3.org/1999/xlink">
<g id="graph0" class="graph" transform="scale(1 1) rotate(0) translate(4 281)">
<title>polyfem::assembler::MultiModel</title>
<!-- Node1 -->
<g id="node1" class="node">
<title>Node1</title>
<g id="a_node1"><a xlink:title=" ">
<polygon fill="#bfbfbf" stroke="black" points="910,-148.5 910,-178.5 1024,-178.5 1024,-148.5 910,-148.5"/>
<text text-anchor="start" x="918" y="-166.5" font-family="Helvetica,sans-Serif" font-size="10.00">polyfem::assembler</text>
<text text-anchor="middle" x="967" y="-155.5" font-family="Helvetica,sans-Serif" font-size="10.00">::MultiModel</text>
</a>
</g>
</g>
<!-- Node2 -->
<g id="node2" class="node">
<title>Node2</title>
<g id="a_node2"><a xlink:href="classpolyfem_1_1assembler_1_1_saint_venant_elasticity.html" target="_top" xlink:title=" ">
<polygon fill="none" stroke="black" points="580.5,-246.5 580.5,-276.5 706.5,-276.5 706.5,-246.5 580.5,-246.5"/>
<text text-anchor="start" x="588.5" y="-264.5" font-family="Helvetica,sans-Serif" font-size="10.00">polyfem::assembler</text>
<text text-anchor="middle" x="643.5" y="-253.5" font-family="Helvetica,sans-Serif" font-size="10.00">::SaintVenantElasticity</text>
</a>
</g>
</g>
<!-- Node2&#45;&gt;Node1 -->
<g id="edge1" class="edge">
<title>Node2&#45;&gt;Node1</title>
<path fill="none" stroke="#9a32cd" stroke-dasharray="5,2" d="M716.87,-254.68C767.4,-248.14 835.62,-235.68 892,-212.5 912.52,-204.06 933.37,-189.61 947.68,-178.58"/>
<polygon fill="#9a32cd" stroke="#9a32cd" points="716.18,-251.24 706.69,-255.95 717.05,-258.19 716.18,-251.24"/>
<text text-anchor="middle" x="827.5" y="-249.5" font-family="Helvetica,sans-Serif" font-size="10.00"> saint_venant_</text>
</g>
<!-- Node3 -->
<g id="node3" class="node">
<title>Node3</title>
<g id="a_node3"><a xlink:href="classpolyfem_1_1assembler_1_1_elasticity_tensor.html" target="_top" xlink:title=" ">
<polygon fill="none" stroke="black" points="216,-246.5 216,-276.5 330,-276.5 330,-246.5 216,-246.5"/>
<text text-anchor="start" x="224" y="-264.5" font-family="Helvetica,sans-Serif" font-size="10.00">polyfem::assembler</text>
<text text-anchor="middle" x="273" y="-253.5" font-family="Helvetica,sans-Serif" font-size="10.00">::ElasticityTensor</text>
</a>
</g>
</g>
<!-- Node3&#45;&gt;Node2 -->
<g id="edge2" class="edge">
<title>Node3&#45;&gt;Node2</title>
<path fill="none" stroke="#9a32cd" stroke-dasharray="5,2" d="M340.56,-261.5C408.7,-261.5 513.77,-261.5 580.28,-261.5"/>
<polygon fill="#9a32cd" stroke="#9a32cd" points="340.37,-258 330.37,-261.5 340.37,-265 340.37,-258"/>
<text text-anchor="middle" x="459" y="-264.5" font-family="Helvetica,sans-Serif" font-size="10.00"> elasticity_tensor_</text>
</g>
<!-- Node4 -->
<g id="node4" class="node">
<title>Node4</title>
<g id="a_node4"><a xlink:href="classpolyfem_1_1assembler_1_1_neo_hookean_elasticity.html" target="_top" xlink:title=" ">
<polygon fill="none" stroke="black" points="578.5,-197.5 578.5,-227.5 708.5,-227.5 708.5,-197.5 578.5,-197.5"/>
<text text-anchor="start" x="586.5" y="-215.5" font-family="Helvetica,sans-Serif" font-size="10.00">polyfem::assembler</text>
<text text-anchor="middle" x="643.5" y="-204.5" font-family="Helvetica,sans-Serif" font-size="10.00">::NeoHookeanElasticity</text>
</a>
</g>
</g>
<!-- Node4&#45;&gt;Node1 -->
<g id="edge3" class="edge">
<title>Node4&#45;&gt;Node1</title>
<path fill="none" stroke="#9a32cd" stroke-dasharray="5,2" d="M718.45,-203.59C767.74,-197.34 833.89,-188.37 892,-178.5 897.82,-177.51 903.87,-176.41 909.91,-175.26"/>
<polygon fill="#9a32cd" stroke="#9a32cd" points="718,-200.12 708.51,-204.84 718.87,-207.06 718,-200.12"/>
<text text-anchor="middle" x="827.5" y="-200.5" font-family="Helvetica,sans-Serif" font-size="10.00"> neo_hookean_</text>
</g>
<!-- Node5 -->
<g id="node5" class="node">
<title>Node5</title>
<g id="a_node5"><a xlink:href="classpolyfem_1_1assembler_1_1_lame_parameters.html" target="_top" xlink:title=" ">
<polygon fill="none" stroke="black" points="216,-185.5 216,-215.5 330,-215.5 330,-185.5 216,-185.5"/>
<text text-anchor="start" x="224" y="-203.5" font-family="Helvetica,sans-Serif" font-size="10.00">polyfem::assembler</text>
<text text-anchor="middle" x="273" y="-192.5" font-family="Helvetica,sans-Serif" font-size="10.00">::LameParameters</text>
</a>
</g>
</g>
<!-- Node5&#45;&gt;Node4 -->
<g id="edge4" class="edge">
<title>Node5&#45;&gt;Node4</title>
<path fill="none" stroke="#9a32cd" stroke-dasharray="5,2" d="M340.47,-202.66C407.96,-204.86 511.76,-208.24 578.39,-210.41"/>
<polygon fill="#9a32cd" stroke="#9a32cd" points="340.48,-199.16 330.37,-202.34 340.25,-206.16 340.48,-199.16"/>
<text text-anchor="middle" x="459" y="-211.5" font-family="Helvetica,sans-Serif" font-size="10.00"> params_</text>
</g>
<!-- Node6 -->
<g id="node6" class="node">
<title>Node6</title>
<g id="a_node6"><a xlink:href="classpolyfem_1_1assembler_1_1_linear_elasticity.html" target="_top" xlink:title=" ">
<polygon fill="none" stroke="black" points="586.5,-148.5 586.5,-178.5 700.5,-178.5 700.5,-148.5 586.5,-148.5"/>
<text text-anchor="start" x="594.5" y="-166.5" font-family="Helvetica,sans-Serif" font-size="10.00">polyfem::assembler</text>
<text text-anchor="middle" x="643.5" y="-155.5" font-family="Helvetica,sans-Serif" font-size="10.00">::LinearElasticity</text>
</a>
</g>
</g>
<!-- Node5&#45;&gt;Node6 -->
<g id="edge6" class="edge">
<title>Node5&#45;&gt;Node6</title>
<path fill="none" stroke="#9a32cd" stroke-dasharray="5,2" d="M340.44,-193.83C410.72,-186.77 520.37,-175.76 586.44,-169.13"/>
<polygon fill="#9a32cd" stroke="#9a32cd" points="339.97,-190.36 330.37,-194.84 340.67,-197.32 339.97,-190.36"/>
<text text-anchor="middle" x="459" y="-189.5" font-family="Helvetica,sans-Serif" font-size="10.00"> params_</text>
</g>
<!-- Node6&#45;&gt;Node1 -->
<g id="edge5" class="edge">
<title>Node6&#45;&gt;Node1</title>
<path fill="none" stroke="#9a32cd" stroke-dasharray="5,2" d="M710.79,-163.5C769.53,-163.5 854.36,-163.5 909.83,-163.5"/>
<polygon fill="#9a32cd" stroke="#9a32cd" points="710.5,-160 700.5,-163.5 710.5,-167 710.5,-160"/>
<text text-anchor="middle" x="827.5" y="-166.5" font-family="Helvetica,sans-Serif" font-size="10.00"> linear_elasticity_</text>
</g>
<!-- Node7 -->
<g id="node7" class="node">
<title>Node7</title>
<g id="a_node7"><a xlink:href="classpolyfem_1_1assembler_1_1_generic_elastic.html" target="_top" xlink:title=" ">
<polygon fill="none" stroke="black" points="542,-88 542,-129 745,-129 745,-88 542,-88"/>
<text text-anchor="start" x="550" y="-117" font-family="Helvetica,sans-Serif" font-size="10.00">polyfem::assembler</text>
<text text-anchor="start" x="550" y="-106" font-family="Helvetica,sans-Serif" font-size="10.00">::GenericElastic&lt; polyfem</text>
<text text-anchor="middle" x="643.5" y="-95" font-family="Helvetica,sans-Serif" font-size="10.00">::assembler::MooneyRivlinElasticity &gt;</text>
</a>
</g>
</g>
<!-- Node7&#45;&gt;Node1 -->
<g id="edge7" class="edge">
<title>Node7&#45;&gt;Node1</title>
<path fill="none" stroke="#9a32cd" stroke-dasharray="5,2" d="M755.09,-125.41C797.92,-132.21 847.31,-140.36 892,-148.5 897.8,-149.56 903.85,-150.71 909.88,-151.88"/>
<polygon fill="#9a32cd" stroke="#9a32cd" points="755.63,-121.95 745.21,-123.85 754.54,-128.87 755.63,-121.95"/>
<text text-anchor="middle" x="827.5" y="-151.5" font-family="Helvetica,sans-Serif" font-size="10.00"> mooney_rivlin_elasticity_</text>
</g>
<!-- Node8 -->
<g id="node8" class="node">
<title>Node8</title>
<g id="a_node8"><a xlink:href="classpolyfem_1_1assembler_1_1_mooney_rivlin_elasticity.html" target="_top" xlink:title=" ">
<polygon fill="none" stroke="black" points="206,-124.5 206,-154.5 340,-154.5 340,-124.5 206,-124.5"/>
<text text-anchor="start" x="214" y="-142.5" font-family="Helvetica,sans-Serif" font-size="10.00">polyfem::assembler</text>
<text text-anchor="middle" x="273" y="-131.5" font-family="Helvetica,sans-Serif" font-size="10.00">::MooneyRivlinElasticity</text>
</a>
</g>
</g>
<!-- Node8&#45;&gt;Node7 -->
<g id="edge8" class="edge">
<title>Node8&#45;&gt;Node7</title>
<path fill="none" stroke="#9a32cd" stroke-dasharray="5,2" d="M350.43,-133.07C405.94,-128.4 481.59,-122.04 541.99,-116.96"/>
<polygon fill="#9a32cd" stroke="#9a32cd" points="349.98,-129.6 340.31,-133.92 350.56,-136.57 349.98,-129.6"/>
<text text-anchor="middle" x="459" y="-131.5" font-family="Helvetica,sans-Serif" font-size="10.00"> formulation_</text>
</g>
<!-- Node9 -->
<g id="node9" class="node">
<title>Node9</title>
<g id="a_node9"><a xlink:href="classpolyfem_1_1assembler_1_1_generic_mat_param.html" target="_top" xlink:title=" ">
<polygon fill="none" stroke="black" points="0,-124.5 0,-154.5 114,-154.5 114,-124.5 0,-124.5"/>
<text text-anchor="start" x="8" y="-142.5" font-family="Helvetica,sans-Serif" font-size="10.00">polyfem::assembler</text>
<text text-anchor="middle" x="57" y="-131.5" font-family="Helvetica,sans-Serif" font-size="10.00">::GenericMatParam</text>
</a>
</g>
</g>
<!-- Node9&#45;&gt;Node8 -->
<g id="edge9" class="edge">
<title>Node9&#45;&gt;Node8</title>
<path fill="none" stroke="#9a32cd" stroke-dasharray="5,2" d="M124.34,-139.5C150.29,-139.5 179.98,-139.5 205.9,-139.5"/>
<polygon fill="#9a32cd" stroke="#9a32cd" points="124.23,-136 114.23,-139.5 124.23,-143 124.23,-136"/>
<text text-anchor="middle" x="142" y="-164.5" font-family="Helvetica,sans-Serif" font-size="10.00"> c1_</text>
<text text-anchor="middle" x="142" y="-153.5" font-family="Helvetica,sans-Serif" font-size="10.00">c2_</text>
<text text-anchor="middle" x="142" y="-142.5" font-family="Helvetica,sans-Serif" font-size="10.00">k_</text>
</g>
<!-- Node10 -->
<g id="node10" class="node">
<title>Node10</title>
<g id="a_node10"><a xlink:href="classpolyfem_1_1assembler_1_1_generic_elastic.html" target="_top" xlink:title=" ">
<polygon fill="none" stroke="black" points="170,-62.5 170,-92.5 376,-92.5 376,-62.5 170,-62.5"/>
<text text-anchor="start" x="178" y="-80.5" font-family="Helvetica,sans-Serif" font-size="10.00">polyfem::assembler</text>
<text text-anchor="middle" x="273" y="-69.5" font-family="Helvetica,sans-Serif" font-size="10.00">::GenericElastic&lt; ElasticFormulation &gt;</text>
</a>
</g>
</g>
<!-- Node10&#45;&gt;Node7 -->
<g id="edge10" class="edge">
<title>Node10&#45;&gt;Node7</title>
<path fill="none" stroke="orange" stroke-dasharray="5,2" d="M386.24,-82.46C429.37,-84.83 479.03,-88.12 524,-92.5 529.79,-93.06 535.72,-93.69 541.71,-94.37"/>
<polygon fill="orange" stroke="orange" points="386.18,-78.95 376,-81.9 385.8,-85.94 386.18,-78.95"/>
<text text-anchor="start" x="394" y="-106.5" font-family="Helvetica,sans-Serif" font-size="10.00"> &lt; polyfem::assembler</text>
<text text-anchor="middle" x="459" y="-95.5" font-family="Helvetica,sans-Serif" font-size="10.00">::MooneyRivlinElasticity &gt;</text>
</g>
<!-- Node11 -->
<g id="node11" class="node">
<title>Node11</title>
<g id="a_node11"><a xlink:href="classpolyfem_1_1assembler_1_1_generic_elastic.html" target="_top" xlink:title=" ">
<polygon fill="none" stroke="black" points="560,-28 560,-69 727,-69 727,-28 560,-28"/>
<text text-anchor="start" x="568" y="-57" font-family="Helvetica,sans-Serif" font-size="10.00">polyfem::assembler</text>
<text text-anchor="start" x="568" y="-46" font-family="Helvetica,sans-Serif" font-size="10.00">::GenericElastic&lt; polyfem</text>
<text text-anchor="middle" x="643.5" y="-35" font-family="Helvetica,sans-Serif" font-size="10.00">::assembler::OgdenElasticity &gt;</text>
</a>
</g>
</g>
<!-- Node10&#45;&gt;Node11 -->
<g id="edge13" class="edge">
<title>Node10&#45;&gt;Node11</title>
<path fill="none" stroke="orange" stroke-dasharray="5,2" d="M339.58,-60.09C357.13,-56.17 376.18,-52.55 394,-50.5 449.08,-44.16 511.47,-43.68 559.96,-44.77"/>
<polygon fill="orange" stroke="orange" points="338.4,-56.78 329.44,-62.43 339.97,-63.6 338.4,-56.78"/>
<text text-anchor="start" x="403" y="-64.5" font-family="Helvetica,sans-Serif" font-size="10.00"> &lt; polyfem::assembler</text>
<text text-anchor="middle" x="459" y="-53.5" font-family="Helvetica,sans-Serif" font-size="10.00">::OgdenElasticity &gt;</text>
</g>
<!-- Node11&#45;&gt;Node1 -->
<g id="edge11" class="edge">
<title>Node11&#45;&gt;Node1</title>
<path fill="none" stroke="#9a32cd" stroke-dasharray="5,2" d="M737.02,-63.74C784.72,-73.64 843.01,-88.98 892,-111.5 912.97,-121.14 934.26,-136.86 948.58,-148.49"/>
<polygon fill="#9a32cd" stroke="#9a32cd" points="737.5,-60.27 727,-61.71 736.11,-67.13 737.5,-60.27"/>
<text text-anchor="middle" x="827.5" y="-114.5" font-family="Helvetica,sans-Serif" font-size="10.00"> ogden_elasticity_</text>
</g>
<!-- Node12 -->
<g id="node12" class="node">
<title>Node12</title>
<g id="a_node12"><a xlink:href="classpolyfem_1_1assembler_1_1_ogden_elasticity.html" target="_top" xlink:title=" ">
<polygon fill="none" stroke="black" points="216,-0.5 216,-30.5 330,-30.5 330,-0.5 216,-0.5"/>
<text text-anchor="start" x="224" y="-18.5" font-family="Helvetica,sans-Serif" font-size="10.00">polyfem::assembler</text>
<text text-anchor="middle" x="273" y="-7.5" font-family="Helvetica,sans-Serif" font-size="10.00">::OgdenElasticity</text>
</a>
</g>
</g>
<!-- Node12&#45;&gt;Node11 -->
<g id="edge12" class="edge">
<title>Node12&#45;&gt;Node11</title>
<path fill="none" stroke="#9a32cd" stroke-dasharray="5,2" d="M340.36,-17.35C390.83,-19.22 461.93,-22.8 524,-29.5 535.6,-30.75 547.8,-32.36 559.77,-34.12"/>
<polygon fill="#9a32cd" stroke="#9a32cd" points="340.35,-13.85 330.23,-16.99 340.1,-20.85 340.35,-13.85"/>
<text text-anchor="middle" x="459" y="-32.5" font-family="Helvetica,sans-Serif" font-size="10.00"> formulation_</text>
</g>
</g>
</svg>
