<?xml version="1.0" encoding="UTF-8" standalone="no"?>
<!DOCTYPE svg PUBLIC "-//W3C//DTD SVG 1.1//EN"
 "http://www.w3.org/Graphics/SVG/1.1/DTD/svg11.dtd">
<!-- Generated by graphviz version 2.43.0 (0)
 -->
<!-- Title: polyfem::solver::FullNLProblem::hessian Pages: 1 -->
<svg width="615pt" height="128pt"
 viewBox="0.00 0.00 615.00 127.50" xmlns="http://www.w3.org/2000/svg" xmlns:xlink="http://www.w3.org/1999/xlink">
<g id="graph0" class="graph" transform="scale(1 1) rotate(0) translate(4 123.5)">
<title>polyfem::solver::FullNLProblem::hessian</title>
<!-- Node1 -->
<g id="Node000001" class="node">
<title>Node1</title>
<g id="a_Node000001"><a xlink:title=" ">
<polygon fill="#999999" stroke="#666666" points="607,-68.5 437,-68.5 437,-38.5 607,-38.5 607,-68.5"/>
<text text-anchor="start" x="445" y="-56.5" font-family="Helvetica,sans-Serif" font-size="10.00">polyfem::solver::FullNLProblem</text>
<text text-anchor="middle" x="522" y="-45.5" font-family="Helvetica,sans-Serif" font-size="10.00">::hessian</text>
</a>
</g>
</g>
<!-- Node1&#45;&gt;Node1 -->
<g id="edge1_Node000001_Node000001" class="edge">
<title>Node1&#45;&gt;Node1</title>
<g id="a_edge1_Node000001_Node000001"><a xlink:title=" ">
<path fill="none" stroke="#63b8ff" d="M559.11,-79.1C554.04,-83.47 541.67,-86.5 522,-86.5 488.88,-86.5 476.45,-77.91 484.73,-68.78"/>
<polygon fill="#63b8ff" stroke="#63b8ff" points="562.61,-78.83 559.27,-68.78 555.61,-78.72 562.61,-78.83"/>
</a>
</g>
</g>
<!-- Node2 -->
<g id="Node000002" class="node">
<title>Node2</title>
<g id="a_Node000002"><a xlink:href="classpolyfem_1_1solver_1_1_n_l_homo_problem.html#a5e3f4af52886a65b33b45467f1a84bf2" target="_top" xlink:title=" ">
<polygon fill="white" stroke="#666666" points="401,-101.5 219,-101.5 219,-71.5 401,-71.5 401,-101.5"/>
<text text-anchor="start" x="227" y="-89.5" font-family="Helvetica,sans-Serif" font-size="10.00">polyfem::solver::NLHomoProblem</text>
<text text-anchor="middle" x="310" y="-78.5" font-family="Helvetica,sans-Serif" font-size="10.00">::hessian</text>
</a>
</g>
</g>
<!-- Node1&#45;&gt;Node2 -->
<g id="edge2_Node000001_Node000002" class="edge">
<title>Node1&#45;&gt;Node2</title>
<g id="a_edge2_Node000001_Node000002"><a xlink:title=" ">
<path fill="none" stroke="#63b8ff" d="M426.81,-68.3C418.25,-69.65 409.59,-71.01 401.07,-72.35"/>
<polygon fill="#63b8ff" stroke="#63b8ff" points="427.46,-71.74 436.79,-66.73 426.37,-64.83 427.46,-71.74"/>
</a>
</g>
</g>
<!-- Node4 -->
<g id="Node000004" class="node">
<title>Node4</title>
<g id="a_Node000004"><a xlink:href="classpolyfem_1_1solver_1_1_n_l_problem.html#ac5391ca8bfaf7182e806ea462405c8a9" target="_top" xlink:title=" ">
<polygon fill="white" stroke="#666666" points="386,-35.5 234,-35.5 234,-5.5 386,-5.5 386,-35.5"/>
<text text-anchor="start" x="242" y="-23.5" font-family="Helvetica,sans-Serif" font-size="10.00">polyfem::solver::NLProblem</text>
<text text-anchor="middle" x="310" y="-12.5" font-family="Helvetica,sans-Serif" font-size="10.00">::hessian</text>
</a>
</g>
</g>
<!-- Node1&#45;&gt;Node4 -->
<g id="edge6_Node000001_Node000004" class="edge">
<title>Node1&#45;&gt;Node4</title>
<g id="a_edge6_Node000001_Node000004"><a xlink:title=" ">
<path fill="none" stroke="#63b8ff" d="M426.9,-38.71C413.22,-36.56 399.3,-34.38 386.07,-32.3"/>
<polygon fill="#63b8ff" stroke="#63b8ff" points="426.37,-42.17 436.79,-40.27 427.46,-35.26 426.37,-42.17"/>
</a>
</g>
</g>
<!-- Node2&#45;&gt;Node2 -->
<g id="edge5_Node000002_Node000002" class="edge">
<title>Node2&#45;&gt;Node2</title>
<g id="a_edge5_Node000002_Node000002"><a xlink:title=" ">
<path fill="none" stroke="#63b8ff" d="M347.11,-112.1C342.04,-116.47 329.67,-119.5 310,-119.5 276.88,-119.5 264.45,-110.91 272.73,-101.78"/>
<polygon fill="#63b8ff" stroke="#63b8ff" points="350.61,-111.83 347.27,-101.78 343.61,-111.72 350.61,-111.83"/>
</a>
</g>
</g>
<!-- Node3 -->
<g id="Node000003" class="node">
<title>Node3</title>
<g id="a_Node000003"><a xlink:href="classpolyfem_1_1solver_1_1_n_l_homo_problem.html#ac44e7ce8ded5567323b96c062c6feeca" target="_top" xlink:title=" ">
<polygon fill="white" stroke="#666666" points="183,-101.5 0,-101.5 0,-71.5 183,-71.5 183,-101.5"/>
<text text-anchor="start" x="8" y="-89.5" font-family="Helvetica,sans-Serif" font-size="10.00">polyfem::solver::NLHomoProblem</text>
<text text-anchor="middle" x="91.5" y="-78.5" font-family="Helvetica,sans-Serif" font-size="10.00">::full_hessian_to_reduced_hessian</text>
</a>
</g>
</g>
<!-- Node2&#45;&gt;Node3 -->
<g id="edge3_Node000002_Node000003" class="edge">
<title>Node2&#45;&gt;Node3</title>
<g id="a_edge3_Node000002_Node000003"><a xlink:title=" ">
<path fill="none" stroke="#63b8ff" d="M208.53,-79.77C200.11,-79.73 191.64,-79.75 183.3,-79.83"/>
<polygon fill="#63b8ff" stroke="#63b8ff" points="208.73,-83.27 218.75,-79.83 208.78,-76.27 208.73,-83.27"/>
</a>
</g>
</g>
<!-- Node3&#45;&gt;Node2 -->
<g id="edge4_Node000003_Node000002" class="edge">
<title>Node3&#45;&gt;Node2</title>
<g id="a_edge4_Node000003_Node000002"><a xlink:title=" ">
<path fill="none" stroke="#63b8ff" d="M193.52,-93.24C201.94,-93.27 210.42,-93.24 218.75,-93.17"/>
<polygon fill="#63b8ff" stroke="#63b8ff" points="193.32,-89.74 183.3,-93.17 193.28,-96.74 193.32,-89.74"/>
</a>
</g>
</g>
<!-- Node4&#45;&gt;Node4 -->
<g id="edge9_Node000004_Node000004" class="edge">
<title>Node4&#45;&gt;Node4</title>
<g id="a_edge9_Node000004_Node000004"><a xlink:title=" ">
<path fill="none" stroke="#63b8ff" d="M347.11,-46.1C342.04,-50.47 329.67,-53.5 310,-53.5 276.88,-53.5 264.45,-44.91 272.73,-35.78"/>
<polygon fill="#63b8ff" stroke="#63b8ff" points="350.61,-45.83 347.27,-35.78 343.61,-45.72 350.61,-45.83"/>
</a>
</g>
</g>
<!-- Node5 -->
<g id="Node000005" class="node">
<title>Node5</title>
<g id="a_Node000005"><a xlink:href="classpolyfem_1_1solver_1_1_n_l_problem.html#afd3a7dc37561ece8a0b4c49437d2d081" target="_top" xlink:title=" ">
<polygon fill="white" stroke="#666666" points="167.5,-41 15.5,-41 15.5,0 167.5,0 167.5,-41"/>
<text text-anchor="start" x="23.5" y="-29" font-family="Helvetica,sans-Serif" font-size="10.00">polyfem::solver::NLProblem</text>
<text text-anchor="start" x="23.5" y="-18" font-family="Helvetica,sans-Serif" font-size="10.00">::full_hessian_to_reduced</text>
<text text-anchor="middle" x="91.5" y="-7" font-family="Helvetica,sans-Serif" font-size="10.00">_hessian</text>
</a>
</g>
</g>
<!-- Node4&#45;&gt;Node5 -->
<g id="edge7_Node000004_Node000005" class="edge">
<title>Node4&#45;&gt;Node5</title>
<g id="a_edge7_Node000004_Node000005"><a xlink:title=" ">
<path fill="none" stroke="#63b8ff" d="M223.74,-13.89C205.28,-13.66 185.89,-13.71 167.85,-14.04"/>
<polygon fill="#63b8ff" stroke="#63b8ff" points="223.84,-17.39 233.89,-14.04 223.94,-10.39 223.84,-17.39"/>
</a>
</g>
</g>
<!-- Node5&#45;&gt;Node4 -->
<g id="edge8_Node000005_Node000004" class="edge">
<title>Node5&#45;&gt;Node4</title>
<g id="a_edge8_Node000005_Node000004"><a xlink:title=" ">
<path fill="none" stroke="#63b8ff" d="M178,-27.12C196.46,-27.34 215.85,-27.28 233.89,-26.96"/>
<polygon fill="#63b8ff" stroke="#63b8ff" points="177.9,-23.61 167.85,-26.96 177.79,-30.61 177.9,-23.61"/>
</a>
</g>
</g>
</g>
</svg>
