<?xml version="1.0" encoding="UTF-8" standalone="no"?>
<!DOCTYPE svg PUBLIC "-//W3C//DTD SVG 1.1//EN"
 "http://www.w3.org/Graphics/SVG/1.1/DTD/svg11.dtd">
<!-- Generated by graphviz version 2.43.0 (0)
 -->
<!-- Title: polyfem::mesh::Mesh::create Pages: 1 -->
<svg width="995pt" height="354pt"
 viewBox="0.00 0.00 995.00 354.00" xmlns="http://www.w3.org/2000/svg" xmlns:xlink="http://www.w3.org/1999/xlink">
<g id="graph0" class="graph" transform="scale(1 1) rotate(0) translate(4 350)">
<title>polyfem::mesh::Mesh::create</title>
<!-- Node1 -->
<g id="Node000001" class="node">
<title>Node1</title>
<g id="a_Node000001"><a xlink:title="factory to build the proper mesh">
<polygon fill="#999999" stroke="#666666" points="987,-180 865,-180 865,-150 987,-150 987,-180"/>
<text text-anchor="start" x="873" y="-168" font-family="Helvetica,sans-Serif" font-size="10.00">polyfem::mesh::Mesh</text>
<text text-anchor="middle" x="926" y="-157" font-family="Helvetica,sans-Serif" font-size="10.00">::create</text>
</a>
</g>
</g>
<!-- Node1&#45;&gt;Node1 -->
<g id="edge3_Node000001_Node000001" class="edge">
<title>Node1&#45;&gt;Node1</title>
<g id="a_edge3_Node000001_Node000001"><a xlink:title=" ">
<path fill="none" stroke="#63b8ff" d="M958.21,-190.6C953.81,-194.97 943.07,-198 926,-198 897.25,-198 886.47,-189.41 893.66,-180.28"/>
<polygon fill="#63b8ff" stroke="#63b8ff" points="961.71,-190.32 958.34,-180.28 954.71,-190.23 961.71,-190.32"/>
</a>
</g>
</g>
<!-- Node2 -->
<g id="Node000002" class="node">
<title>Node2</title>
<g id="a_Node000002"><a xlink:href="classpolyfem_1_1mesh_1_1_local_mesh.html#a1a045a45c0e98615b682ca7605cb0d32" target="_top" xlink:title="Build the ElementBases for the local mesh.">
<polygon fill="white" stroke="#666666" points="816,-346 668,-346 668,-316 816,-316 816,-346"/>
<text text-anchor="start" x="676" y="-334" font-family="Helvetica,sans-Serif" font-size="10.00">polyfem::mesh::LocalMesh</text>
<text text-anchor="middle" x="742" y="-323" font-family="Helvetica,sans-Serif" font-size="10.00">::build_bases</text>
</a>
</g>
</g>
<!-- Node1&#45;&gt;Node2 -->
<g id="edge1_Node000001_Node000002" class="edge">
<title>Node1&#45;&gt;Node2</title>
<g id="a_edge1_Node000001_Node000002"><a xlink:title=" ">
<path fill="none" stroke="#63b8ff" d="M914.95,-189.48C900.62,-221.35 871.27,-276.55 829,-307 824.22,-310.44 818.96,-313.39 813.48,-315.92"/>
<polygon fill="#63b8ff" stroke="#63b8ff" points="918.29,-190.58 919.08,-180.02 911.87,-187.78 918.29,-190.58"/>
</a>
</g>
</g>
<!-- Node3 -->
<g id="Node000003" class="node">
<title>Node3</title>
<g id="a_Node000003"><a xlink:href="classpolyfem_1_1mesh_1_1_mesh.html#a5a5cfda12f4c4a2a534ca3c396858015" target="_top" xlink:title="factory to build the proper mesh">
<polygon fill="white" stroke="#666666" points="803,-298 681,-298 681,-268 803,-268 803,-298"/>
<text text-anchor="start" x="689" y="-286" font-family="Helvetica,sans-Serif" font-size="10.00">polyfem::mesh::Mesh</text>
<text text-anchor="middle" x="742" y="-275" font-family="Helvetica,sans-Serif" font-size="10.00">::create</text>
</a>
</g>
</g>
<!-- Node1&#45;&gt;Node3 -->
<g id="edge2_Node000001_Node000003" class="edge">
<title>Node1&#45;&gt;Node3</title>
<g id="a_edge2_Node000001_Node000003"><a xlink:title=" ">
<path fill="none" stroke="#63b8ff" d="M907.31,-188.03C889.69,-209.43 860.75,-240.68 829,-259 821.08,-263.57 812.24,-267.31 803.33,-270.36"/>
<polygon fill="#63b8ff" stroke="#63b8ff" points="910.16,-190.07 913.71,-180.08 904.71,-185.68 910.16,-190.07"/>
</a>
</g>
</g>
<!-- Node4 -->
<g id="Node000004" class="node">
<title>Node4</title>
<g id="a_Node000004"><a xlink:href="classpolyfem_1_1mesh_1_1_mesh.html#aa671492edb4624e593b5b9e18098a16c" target="_top" xlink:title="factory to build the proper mesh">
<polygon fill="white" stroke="#666666" points="803,-250 681,-250 681,-220 803,-220 803,-250"/>
<text text-anchor="start" x="689" y="-238" font-family="Helvetica,sans-Serif" font-size="10.00">polyfem::mesh::Mesh</text>
<text text-anchor="middle" x="742" y="-227" font-family="Helvetica,sans-Serif" font-size="10.00">::create</text>
</a>
</g>
</g>
<!-- Node1&#45;&gt;Node4 -->
<g id="edge4_Node000001_Node000004" class="edge">
<title>Node1&#45;&gt;Node4</title>
<g id="a_edge4_Node000001_Node000004"><a xlink:title=" ">
<path fill="none" stroke="#63b8ff" d="M887.7,-184.74C870.19,-193.52 848.85,-203.54 829,-211 820.44,-214.22 811.26,-217.23 802.19,-219.95"/>
<polygon fill="#63b8ff" stroke="#63b8ff" points="889.67,-187.67 897,-180.02 886.5,-181.43 889.67,-187.67"/>
</a>
</g>
</g>
<!-- Node5 -->
<g id="Node000005" class="node">
<title>Node5</title>
<g id="a_Node000005"><a xlink:href="classpolyfem_1_1mesh_1_1_local_relaxation_data.html#a6c2db58e5d049efebd8c95d19db8cb7b" target="_top" xlink:title=" ">
<polygon fill="white" stroke="#666666" points="829,-202 655,-202 655,-172 829,-172 829,-202"/>
<text text-anchor="start" x="663" y="-190" font-family="Helvetica,sans-Serif" font-size="10.00">polyfem::mesh::LocalRelaxation</text>
<text text-anchor="middle" x="742" y="-179" font-family="Helvetica,sans-Serif" font-size="10.00">Data::init_mesh</text>
</a>
</g>
</g>
<!-- Node1&#45;&gt;Node5 -->
<g id="edge5_Node000001_Node000005" class="edge">
<title>Node1&#45;&gt;Node5</title>
<g id="a_edge5_Node000001_Node000005"><a xlink:title=" ">
<path fill="none" stroke="#63b8ff" d="M854.77,-173.49C846.34,-174.51 837.67,-175.56 829.05,-176.6"/>
<polygon fill="#63b8ff" stroke="#63b8ff" points="855.39,-176.94 864.9,-172.26 854.55,-169.99 855.39,-176.94"/>
</a>
</g>
</g>
<!-- Node7 -->
<g id="Node000007" class="node">
<title>Node7</title>
<g id="a_Node000007"><a xlink:href="classpolyfem_1_1_state.html#a4ce16a4580b29c071e8fd84fbada3497" target="_top" xlink:title="loads the mesh from V and F,">
<polygon fill="white" stroke="#666666" points="225,-136.5 77,-136.5 77,-117.5 225,-117.5 225,-136.5"/>
<text text-anchor="middle" x="151" y="-124.5" font-family="Helvetica,sans-Serif" font-size="10.00">polyfem::State::load_mesh</text>
</a>
</g>
</g>
<!-- Node1&#45;&gt;Node7 -->
<g id="edge7_Node000001_Node000007" class="edge">
<title>Node1&#45;&gt;Node7</title>
<g id="a_edge7_Node000001_Node000007"><a xlink:title=" ">
<path fill="none" stroke="#63b8ff" d="M854.8,-161.55C708.76,-154.37 373.47,-137.89 225.02,-130.59"/>
<polygon fill="#63b8ff" stroke="#63b8ff" points="854.83,-165.05 864.99,-162.05 855.17,-158.06 854.83,-165.05"/>
</a>
</g>
</g>
<!-- Node8 -->
<g id="Node000008" class="node">
<title>Node8</title>
<g id="a_Node000008"><a xlink:href="classpolyfem_1_1_state.html#a2d7e06f66912cc77b1d942340211ddb9" target="_top" xlink:title="loads the mesh from a geogram mesh">
<polygon fill="white" stroke="#666666" points="816,-115.5 668,-115.5 668,-96.5 816,-96.5 816,-115.5"/>
<text text-anchor="middle" x="742" y="-103.5" font-family="Helvetica,sans-Serif" font-size="10.00">polyfem::State::load_mesh</text>
</a>
</g>
</g>
<!-- Node1&#45;&gt;Node8 -->
<g id="edge8_Node000001_Node000008" class="edge">
<title>Node1&#45;&gt;Node8</title>
<g id="a_edge8_Node000001_Node000008"><a xlink:title=" ">
<path fill="none" stroke="#63b8ff" d="M875.95,-146.29C860.96,-140.8 844.38,-134.94 829,-130 812.91,-124.83 794.94,-119.71 779.59,-115.54"/>
<polygon fill="#63b8ff" stroke="#63b8ff" points="874.94,-149.65 885.54,-149.83 877.37,-143.08 874.94,-149.65"/>
</a>
</g>
</g>
<!-- Node9 -->
<g id="Node000009" class="node">
<title>Node9</title>
<g id="a_Node000009"><a xlink:href="classpolyfem_1_1mesh_1_1_remesher.html#a60ab7872593bdf1951408bbd870526e4" target="_top" xlink:title="Update the mesh positions and other projection quantities.">
<polygon fill="white" stroke="#666666" points="815,-78 669,-78 669,-48 815,-48 815,-78"/>
<text text-anchor="start" x="677" y="-66" font-family="Helvetica,sans-Serif" font-size="10.00">polyfem::mesh::Remesher</text>
<text text-anchor="middle" x="742" y="-55" font-family="Helvetica,sans-Serif" font-size="10.00">::project_quantities</text>
</a>
</g>
</g>
<!-- Node1&#45;&gt;Node9 -->
<g id="edge9_Node000001_Node000009" class="edge">
<title>Node1&#45;&gt;Node9</title>
<g id="a_edge9_Node000001_Node000009"><a xlink:title=" ">
<path fill="none" stroke="#63b8ff" d="M902.76,-142.89C884.38,-125.73 856.87,-102.49 829,-88 821.69,-84.2 813.72,-80.9 805.68,-78.06"/>
<polygon fill="#63b8ff" stroke="#63b8ff" points="900.4,-145.47 910.06,-149.83 905.23,-140.4 900.4,-145.47"/>
</a>
</g>
</g>
<!-- Node10 -->
<g id="Node000010" class="node">
<title>Node10</title>
<g id="a_Node000010"><a xlink:href="namespacepolyfem_1_1mesh.html#a778e805ac1a3193ae27fca02a121c77b" target="_top" xlink:title="read a FEM mesh from a geometry JSON">
<polygon fill="white" stroke="#666666" points="801,-30 683,-30 683,0 801,0 801,-30"/>
<text text-anchor="start" x="691" y="-18" font-family="Helvetica,sans-Serif" font-size="10.00">polyfem::mesh::read</text>
<text text-anchor="middle" x="742" y="-7" font-family="Helvetica,sans-Serif" font-size="10.00">_fem_mesh</text>
</a>
</g>
</g>
<!-- Node1&#45;&gt;Node10 -->
<g id="edge10_Node000001_Node000010" class="edge">
<title>Node1&#45;&gt;Node10</title>
<g id="a_edge10_Node000001_Node000010"><a xlink:title=" ">
<path fill="none" stroke="#63b8ff" d="M912.82,-140.68C897.26,-112.09 867.65,-65.21 829,-39 820.66,-33.34 811.01,-29.01 801.26,-25.7"/>
<polygon fill="#63b8ff" stroke="#63b8ff" points="909.78,-142.42 917.55,-149.62 915.97,-139.14 909.78,-142.42"/>
</a>
</g>
</g>
<!-- Node6 -->
<g id="Node000006" class="node">
<title>Node6</title>
<g id="a_Node000006"><a xlink:href="classpolyfem_1_1mesh_1_1_local_relaxation_data.html#a7a84ad351ae9f4d38cdad34660fd6585" target="_top" xlink:title=" ">
<polygon fill="white" stroke="#666666" points="619,-202 445,-202 445,-172 619,-172 619,-202"/>
<text text-anchor="start" x="453" y="-190" font-family="Helvetica,sans-Serif" font-size="10.00">polyfem::mesh::LocalRelaxation</text>
<text text-anchor="middle" x="532" y="-179" font-family="Helvetica,sans-Serif" font-size="10.00">Data::LocalRelaxationData</text>
</a>
</g>
</g>
<!-- Node5&#45;&gt;Node6 -->
<g id="edge6_Node000005_Node000006" class="edge">
<title>Node5&#45;&gt;Node6</title>
<g id="a_edge6_Node000005_Node000006"><a xlink:title=" ">
<path fill="none" stroke="#63b8ff" d="M644.84,-187C636.23,-187 627.55,-187 619.04,-187"/>
<polygon fill="#63b8ff" stroke="#63b8ff" points="644.9,-190.5 654.9,-187 644.9,-183.5 644.9,-190.5"/>
</a>
</g>
</g>
<!-- Node11 -->
<g id="Node000011" class="node">
<title>Node11</title>
<g id="a_Node000011"><a xlink:href="namespacepolyfem_1_1mesh.html#a72e21b96b5cdfa9d82fe80b56a4151be" target="_top" xlink:title="read FEM meshes from a geometry JSON array (or single)">
<polygon fill="white" stroke="#666666" points="591,-88 473,-88 473,-58 591,-58 591,-88"/>
<text text-anchor="start" x="481" y="-76" font-family="Helvetica,sans-Serif" font-size="10.00">polyfem::mesh::read</text>
<text text-anchor="middle" x="532" y="-65" font-family="Helvetica,sans-Serif" font-size="10.00">_fem_geometry</text>
</a>
</g>
</g>
<!-- Node10&#45;&gt;Node11 -->
<g id="edge11_Node000010_Node000011" class="edge">
<title>Node10&#45;&gt;Node11</title>
<g id="a_edge11_Node000010_Node000011"><a xlink:title=" ">
<path fill="none" stroke="#63b8ff" d="M677.17,-32.8C648.31,-40.85 614.56,-50.26 586.97,-57.95"/>
<polygon fill="#63b8ff" stroke="#63b8ff" points="678.47,-36.07 687.16,-30.01 676.59,-29.33 678.47,-36.07"/>
</a>
</g>
</g>
<!-- Node15 -->
<g id="Node000015" class="node">
<title>Node15</title>
<g id="a_Node000015"><a xlink:href="classpolyfem_1_1solver_1_1_s_d_f_shape_variable_to_simulation.html#a5be4772ceba2fdff60ed721e491a1f90" target="_top" xlink:title=" ">
<polygon fill="white" stroke="#666666" points="611.5,-30 452.5,-30 452.5,0 611.5,0 611.5,-30"/>
<text text-anchor="start" x="460.5" y="-18" font-family="Helvetica,sans-Serif" font-size="10.00">polyfem::solver::SDFShape</text>
<text text-anchor="middle" x="532" y="-7" font-family="Helvetica,sans-Serif" font-size="10.00">VariableToSimulation::update</text>
</a>
</g>
</g>
<!-- Node10&#45;&gt;Node15 -->
<g id="edge17_Node000010_Node000015" class="edge">
<title>Node10&#45;&gt;Node15</title>
<g id="a_edge17_Node000010_Node000015"><a xlink:title=" ">
<path fill="none" stroke="#63b8ff" d="M672.78,-15C653.29,-15 631.89,-15 611.81,-15"/>
<polygon fill="#63b8ff" stroke="#63b8ff" points="672.78,-18.5 682.78,-15 672.78,-11.5 672.78,-18.5"/>
</a>
</g>
</g>
<!-- Node11&#45;&gt;Node11 -->
<g id="edge16_Node000011_Node000011" class="edge">
<title>Node11&#45;&gt;Node11</title>
<g id="a_edge16_Node000011_Node000011"><a xlink:title=" ">
<path fill="none" stroke="#63b8ff" d="M566.31,-98.6C561.62,-102.97 550.18,-106 532,-106 501.38,-106 489.89,-97.41 497.55,-88.28"/>
<polygon fill="#63b8ff" stroke="#63b8ff" points="569.81,-98.32 566.45,-88.28 562.81,-98.22 569.81,-98.32"/>
</a>
</g>
</g>
<!-- Node12 -->
<g id="Node000012" class="node">
<title>Node12</title>
<g id="a_Node000012"><a xlink:href="classpolyfem_1_1_state.html#a37cc0825d6cd66410b5c1a0c46778a9f" target="_top" xlink:title="loads the mesh from the json arguments">
<polygon fill="white" stroke="#666666" points="409,-99.5 261,-99.5 261,-80.5 409,-80.5 409,-99.5"/>
<text text-anchor="middle" x="335" y="-87.5" font-family="Helvetica,sans-Serif" font-size="10.00">polyfem::State::load_mesh</text>
</a>
</g>
</g>
<!-- Node11&#45;&gt;Node12 -->
<g id="edge12_Node000011_Node000012" class="edge">
<title>Node11&#45;&gt;Node12</title>
<g id="a_edge12_Node000011_Node000012"><a xlink:title=" ">
<path fill="none" stroke="#63b8ff" d="M462.73,-78.95C445.4,-80.46 426.72,-82.09 409.16,-83.62"/>
<polygon fill="#63b8ff" stroke="#63b8ff" points="463.1,-82.43 472.76,-78.08 462.49,-75.46 463.1,-82.43"/>
</a>
</g>
</g>
<!-- Node12&#45;&gt;Node7 -->
<g id="edge15_Node000012_Node000007" class="edge">
<title>Node12&#45;&gt;Node7</title>
<g id="a_edge15_Node000012_Node000007"><a xlink:title=" ">
<path fill="none" stroke="#63b8ff" d="M277.02,-101.58C251.94,-106.68 222.84,-112.6 199.03,-117.44"/>
<polygon fill="#63b8ff" stroke="#63b8ff" points="278.03,-104.95 287.13,-99.53 276.63,-98.09 278.03,-104.95"/>
</a>
</g>
</g>
<!-- Node13 -->
<g id="Node000013" class="node">
<title>Node13</title>
<g id="a_Node000013"><a xlink:href="main_8cpp.html#a48e4775e12bdf81ebb0eaa27df888aa0" target="_top" xlink:title=" ">
<polygon fill="white" stroke="#666666" points="206.5,-99.5 95.5,-99.5 95.5,-80.5 206.5,-80.5 206.5,-99.5"/>
<text text-anchor="middle" x="151" y="-87.5" font-family="Helvetica,sans-Serif" font-size="10.00">forward_simulation</text>
</a>
</g>
</g>
<!-- Node12&#45;&gt;Node13 -->
<g id="edge13_Node000012_Node000013" class="edge">
<title>Node12&#45;&gt;Node13</title>
<g id="a_edge13_Node000012_Node000013"><a xlink:title=" ">
<path fill="none" stroke="#63b8ff" d="M250.51,-90C235.61,-90 220.45,-90 206.62,-90"/>
<polygon fill="#63b8ff" stroke="#63b8ff" points="250.76,-93.5 260.76,-90 250.76,-86.5 250.76,-93.5"/>
</a>
</g>
</g>
<!-- Node14 -->
<g id="Node000014" class="node">
<title>Node14</title>
<g id="a_Node000014"><a xlink:href="main_8cpp.html#a3c04138a5bfe5d72780bb7e82a18e627" target="_top" xlink:title=" ">
<polygon fill="white" stroke="#666666" points="41,-99.5 0,-99.5 0,-80.5 41,-80.5 41,-99.5"/>
<text text-anchor="middle" x="20.5" y="-87.5" font-family="Helvetica,sans-Serif" font-size="10.00">main</text>
</a>
</g>
</g>
<!-- Node13&#45;&gt;Node14 -->
<g id="edge14_Node000013_Node000014" class="edge">
<title>Node13&#45;&gt;Node14</title>
<g id="a_edge14_Node000013_Node000014"><a xlink:title=" ">
<path fill="none" stroke="#63b8ff" d="M84.69,-90C68.76,-90 52.92,-90 41.08,-90"/>
<polygon fill="#63b8ff" stroke="#63b8ff" points="85.13,-93.5 95.13,-90 85.13,-86.5 85.13,-93.5"/>
</a>
</g>
</g>
</g>
</svg>
