<?xml version="1.0" encoding="UTF-8" standalone="no"?>
<!DOCTYPE svg PUBLIC "-//W3C//DTD SVG 1.1//EN"
 "http://www.w3.org/Graphics/SVG/1.1/DTD/svg11.dtd">
<!-- Generated by graphviz version 2.43.0 (0)
 -->
<!-- Title: polyfem::solver::DirichletVariableToSimulation::compute_adjoint_term Pages: 1 -->
<!--zoomable 273 -->

<svg id="main" version="1.1" xmlns="http://www.w3.org/2000/svg" xmlns:xlink="http://www.w3.org/1999/xlink" xml:space="preserve" onload="init(evt)">
<style type="text/css"><![CDATA[
.node, .edge {opacity: 0.7;}
.node.selected, .edge.selected {opacity: 1;}
.edge:hover path { stroke: red; }
.edge:hover polygon { stroke: red; fill: red; }
]]></style>

<defs>
  <circle id="rim" cx="0" cy="0" r="7"/>
  <circle id="rim2" cx="0" cy="0" r="3.5"/>
  <g id="zoomPlus">
    <use xlink:href="#rim" fill="#404040"><set attributeName="fill" to="#808080" begin="zoomplus.mouseover" end="zoomplus.mouseout"/></use>
    <path d="M-4,0h8M0,-4v8" fill="none" stroke="white" stroke-width="1.5" pointer-events="none"/>
  </g>
  <g id="zoomMin">
    <use xlink:href="#rim" fill="#404040"><set attributeName="fill" to="#808080" begin="zoomminus.mouseover" end="zoomminus.mouseout"/></use>
    <path d="M-4,0h8" fill="none" stroke="white" stroke-width="1.5" pointer-events="none"/>
  </g>
  <g id="arrowUp" transform="translate(30 24)">
    <use xlink:href="#rim"/>
    <path pointer-events="none" fill="none" stroke="white" stroke-width="1.5" d="M0,-3.0v7 M-2.5,-0.5L0,-3.0L2.5,-0.5"/>
  </g>
  <g id="arrowRight" transform="rotate(90) translate(36 -43)">
    <use xlink:href="#rim"/>
    <path pointer-events="none" fill="none" stroke="white" stroke-width="1.5" d="M0,-3.0v7 M-2.5,-0.5L0,-3.0L2.5,-0.5"/>
  </g>
  <g id="arrowDown" transform="rotate(180) translate(-30 -48)">
    <use xlink:href="#rim"/>
    <path pointer-events="none" fill="none" stroke="white" stroke-width="1.5" d="M0,-3.0v7 M-2.5,-0.5L0,-3.0L2.5,-0.5"/>
  </g>
  <g id="arrowLeft" transform="rotate(270) translate(-36 17)">
    <use xlink:href="#rim"/>
    <path pointer-events="none" fill="none" stroke="white" stroke-width="1.5" d="M0,-3.0v7 M-2.5,-0.5L0,-3.0L2.5,-0.5"/>
  </g>
  <g id="resetDef">
    <use xlink:href="#rim2" fill="#404040"><set attributeName="fill" to="#808080" begin="reset.mouseover" end="reset.mouseout"/></use>
  </g>
</defs>
<script type="application/ecmascript">
var viewWidth = 953;
var viewHeight = 273;
var sectionId = 'dynsection-2';
</script>
<script type="application/ecmascript" xlink:href="svg.min.js"/>
<svg id="graph" class="graph">
<g id="viewport">
<title>polyfem::solver::DirichletVariableToSimulation::compute_adjoint_term</title>
<!-- Node1 -->
<g id="Node000001" class="node">
<title>Node1</title>
<g id="a_Node000001"><a xlink:title=" ">
<polygon fill="#999999" stroke="#666666" points="168,-113.5 0,-113.5 0,-72.5 168,-72.5 168,-113.5"/>
<text text-anchor="start" x="8" y="-101.5" font-family="Helvetica,sans-Serif" font-size="10.00">polyfem::solver::Dirichlet</text>
<text text-anchor="start" x="8" y="-90.5" font-family="Helvetica,sans-Serif" font-size="10.00">VariableToSimulation::compute</text>
<text text-anchor="middle" x="84" y="-79.5" font-family="Helvetica,sans-Serif" font-size="10.00">_adjoint_term</text>
</a>
</g>
</g>
<!-- Node2 -->
<g id="Node000002" class="node">
<title>Node2</title>
<g id="a_Node000002"><a xlink:href="classpolyfem_1_1solver_1_1_variable_to_simulation.html#a1468ee2e131cb52898bae709938cc9e0" target="_top" xlink:title=" ">
<polygon fill="white" stroke="#666666" points="400,-187.5 204,-187.5 204,-146.5 400,-146.5 400,-187.5"/>
<text text-anchor="start" x="212" y="-175.5" font-family="Helvetica,sans-Serif" font-size="10.00">polyfem::solver::Variable</text>
<text text-anchor="start" x="212" y="-164.5" font-family="Helvetica,sans-Serif" font-size="10.00">ToSimulation::apply_parametrization</text>
<text text-anchor="middle" x="302" y="-153.5" font-family="Helvetica,sans-Serif" font-size="10.00">_jacobian</text>
</a>
</g>
</g>
<!-- Node1&#45;&gt;Node2 -->
<g id="edge1_Node000001_Node000002" class="edge">
<title>Node1&#45;&gt;Node2</title>
<g id="a_edge1_Node000001_Node000002"><a xlink:title=" ">
<path fill="none" stroke="#63b8ff" d="M144.88,-113.51C171.69,-122.7 203.46,-133.58 231.32,-143.13"/>
<polygon fill="#63b8ff" stroke="#63b8ff" points="230.41,-146.52 241,-146.45 232.68,-139.89 230.41,-146.52"/>
</a>
</g>
</g>
<!-- Node5 -->
<g id="Node000005" class="node">
<title>Node5</title>
<g id="a_Node000005"><a xlink:href="namespacepolyfem.html#a8d6eb2c01f97c327e382b6dcda332777" target="_top" xlink:title=" ">
<polygon fill="white" stroke="#666666" points="767,-133 633,-133 633,-103 767,-103 767,-133"/>
<text text-anchor="start" x="641" y="-121" font-family="Helvetica,sans-Serif" font-size="10.00">polyfem::log_and_throw</text>
<text text-anchor="middle" x="700" y="-110" font-family="Helvetica,sans-Serif" font-size="10.00">_adjoint_error</text>
</a>
</g>
</g>
<!-- Node1&#45;&gt;Node5 -->
<g id="edge11_Node000001_Node000005" class="edge">
<title>Node1&#45;&gt;Node5</title>
<g id="a_edge11_Node000001_Node000005"><a xlink:title=" ">
<path fill="none" stroke="#63b8ff" d="M168.22,-96.51C180.23,-97.02 192.43,-97.52 204,-98 352.36,-104.11 525.74,-111.08 622.92,-114.96"/>
<polygon fill="#63b8ff" stroke="#63b8ff" points="622.81,-118.46 632.94,-115.36 623.09,-111.47 622.81,-118.46"/>
</a>
</g>
</g>
<!-- Node9 -->
<g id="Node000009" class="node">
<title>Node9</title>
<g id="a_Node000009"><a xlink:href="classpolyfem_1_1solver_1_1_adjoint_tools.html#acd2d76928276e17089aaa83a50d7239f" target="_top" xlink:title=" ">
<polygon fill="white" stroke="#666666" points="377,-89.5 227,-89.5 227,-48.5 377,-48.5 377,-89.5"/>
<text text-anchor="start" x="235" y="-77.5" font-family="Helvetica,sans-Serif" font-size="10.00">polyfem::solver::Adjoint</text>
<text text-anchor="start" x="235" y="-66.5" font-family="Helvetica,sans-Serif" font-size="10.00">Tools::dJ_dirichlet_transient</text>
<text text-anchor="middle" x="302" y="-55.5" font-family="Helvetica,sans-Serif" font-size="10.00">_adjoint_term</text>
</a>
</g>
</g>
<!-- Node1&#45;&gt;Node9 -->
<g id="edge9_Node000001_Node000009" class="edge">
<title>Node1&#45;&gt;Node9</title>
<g id="a_edge9_Node000001_Node000009"><a xlink:title=" ">
<path fill="none" stroke="#63b8ff" d="M168.2,-83.76C184,-82 200.54,-80.16 216.37,-78.4"/>
<polygon fill="#63b8ff" stroke="#63b8ff" points="217.11,-81.84 226.66,-77.26 216.34,-74.89 217.11,-81.84"/>
</a>
</g>
</g>
<!-- Node11 -->
<g id="Node000011" class="node">
<title>Node11</title>
<g id="a_Node000011"><a xlink:href="classpolyfem_1_1solver_1_1_dirichlet_variable_to_simulation.html#a84b82d9dbf5067e91c278cc46cefa1ef" target="_top" xlink:title=" ">
<polygon fill="white" stroke="#666666" points="378.5,-30 225.5,-30 225.5,0 378.5,0 378.5,-30"/>
<text text-anchor="start" x="233.5" y="-18" font-family="Helvetica,sans-Serif" font-size="10.00">polyfem::solver::Dirichlet</text>
<text text-anchor="middle" x="302" y="-7" font-family="Helvetica,sans-Serif" font-size="10.00">VariableToSimulation::name</text>
</a>
</g>
</g>
<!-- Node1&#45;&gt;Node11 -->
<g id="edge12_Node000001_Node000011" class="edge">
<title>Node1&#45;&gt;Node11</title>
<g id="a_edge12_Node000001_Node000011"><a xlink:title=" ">
<path fill="none" stroke="#63b8ff" d="M125.27,-72.49C147.98,-61.5 177.1,-48.34 204,-39 210.33,-36.8 216.96,-34.72 223.65,-32.77"/>
<polygon fill="#63b8ff" stroke="#63b8ff" points="224.8,-36.08 233.48,-30.01 222.9,-29.34 224.8,-36.08"/>
</a>
</g>
</g>
<!-- Node3 -->
<g id="Node000003" class="node">
<title>Node3</title>
<g id="a_Node000003"><a xlink:href="classpolyfem_1_1solver_1_1_composite_parametrization.html#a34d19dcd05175faa19ced87215c969be" target="_top" xlink:title=" ">
<polygon fill="white" stroke="#666666" points="588,-246.5 436,-246.5 436,-205.5 588,-205.5 588,-246.5"/>
<text text-anchor="start" x="444" y="-234.5" font-family="Helvetica,sans-Serif" font-size="10.00">polyfem::solver::Composite</text>
<text text-anchor="start" x="444" y="-223.5" font-family="Helvetica,sans-Serif" font-size="10.00">Parametrization::apply</text>
<text text-anchor="middle" x="512" y="-212.5" font-family="Helvetica,sans-Serif" font-size="10.00">_jacobian</text>
</a>
</g>
</g>
<!-- Node2&#45;&gt;Node3 -->
<g id="edge2_Node000002_Node000003" class="edge">
<title>Node2&#45;&gt;Node3</title>
<g id="a_edge2_Node000002_Node000003"><a xlink:title=" ">
<path fill="none" stroke="#63b8ff" d="M375.46,-187.55C392.67,-192.43 411.16,-197.68 428.77,-202.67"/>
<polygon fill="#63b8ff" stroke="#63b8ff" points="427.88,-206.06 438.45,-205.42 429.79,-199.33 427.88,-206.06"/>
</a>
</g>
</g>
<!-- Node4 -->
<g id="Node000004" class="node">
<title>Node4</title>
<g id="a_Node000004"><a xlink:href="classpolyfem_1_1solver_1_1_variable_to_simulation.html#add1131a5cecca74b48bf4d0a0fa9cddb" target="_top" xlink:title=" ">
<polygon fill="white" stroke="#666666" points="581.5,-187.5 442.5,-187.5 442.5,-146.5 581.5,-146.5 581.5,-187.5"/>
<text text-anchor="start" x="450.5" y="-175.5" font-family="Helvetica,sans-Serif" font-size="10.00">polyfem::solver::Variable</text>
<text text-anchor="start" x="450.5" y="-164.5" font-family="Helvetica,sans-Serif" font-size="10.00">ToSimulation::get_output</text>
<text text-anchor="middle" x="512" y="-153.5" font-family="Helvetica,sans-Serif" font-size="10.00">_indexing</text>
</a>
</g>
</g>
<!-- Node2&#45;&gt;Node4 -->
<g id="edge4_Node000002_Node000004" class="edge">
<title>Node2&#45;&gt;Node4</title>
<g id="a_edge4_Node000002_Node000004"><a xlink:title=" ">
<path fill="none" stroke="#63b8ff" d="M400.3,-167C410.93,-167 421.65,-167 432.01,-167"/>
<polygon fill="#63b8ff" stroke="#63b8ff" points="432.25,-170.5 442.25,-167 432.25,-163.5 432.25,-170.5"/>
</a>
</g>
</g>
<!-- Node3&#45;&gt;Node3 -->
<g id="edge3_Node000003_Node000003" class="edge">
<title>Node3&#45;&gt;Node3</title>
<g id="a_edge3_Node000003_Node000003"><a xlink:title=" ">
<path fill="none" stroke="#63b8ff" d="M477.45,-246.6C473.68,-256.15 485.2,-264.5 512,-264.5 528.75,-264.5 539.53,-261.24 544.34,-256.46"/>
<polygon fill="#63b8ff" stroke="#63b8ff" points="547.78,-257.12 546.55,-246.6 540.95,-255.59 547.78,-257.12"/>
</a>
</g>
</g>
<!-- Node4&#45;&gt;Node5 -->
<g id="edge5_Node000004_Node000005" class="edge">
<title>Node4&#45;&gt;Node5</title>
<g id="a_edge5_Node000004_Node000005"><a xlink:title=" ">
<path fill="none" stroke="#63b8ff" d="M581.73,-148.89C598.1,-144.58 615.55,-139.99 631.84,-135.69"/>
<polygon fill="#63b8ff" stroke="#63b8ff" points="633.04,-139 641.82,-133.06 631.26,-132.23 633.04,-139"/>
</a>
</g>
</g>
<!-- Node7 -->
<g id="Node000007" class="node">
<title>Node7</title>
<g id="a_Node000007"><a xlink:href="classpolyfem_1_1solver_1_1_variable_to_simulation.html#adb558dcc6027a3fda5f8cb0ca8c43df8" target="_top" xlink:title=" ">
<polygon fill="white" stroke="#666666" points="769.5,-181 630.5,-181 630.5,-151 769.5,-151 769.5,-181"/>
<text text-anchor="start" x="638.5" y="-169" font-family="Helvetica,sans-Serif" font-size="10.00">polyfem::solver::Variable</text>
<text text-anchor="middle" x="700" y="-158" font-family="Helvetica,sans-Serif" font-size="10.00">ToSimulation::name</text>
</a>
</g>
</g>
<!-- Node4&#45;&gt;Node7 -->
<g id="edge7_Node000004_Node000007" class="edge">
<title>Node4&#45;&gt;Node7</title>
<g id="a_edge7_Node000004_Node000007"><a xlink:title=" ">
<path fill="none" stroke="#63b8ff" d="M581.73,-166.63C594.22,-166.56 607.35,-166.49 620.11,-166.42"/>
<polygon fill="#63b8ff" stroke="#63b8ff" points="620.26,-169.92 630.24,-166.37 620.22,-162.92 620.26,-169.92"/>
</a>
</g>
</g>
<!-- Node8 -->
<g id="Node000008" class="node">
<title>Node8</title>
<g id="a_Node000008"><a xlink:href="classpolyfem_1_1solver_1_1_composite_parametrization.html#a0444e6671378eaf12bc3c0e2a4601aa2" target="_top" xlink:title=" ">
<polygon fill="white" stroke="#666666" points="776,-229 624,-229 624,-199 776,-199 776,-229"/>
<text text-anchor="start" x="632" y="-217" font-family="Helvetica,sans-Serif" font-size="10.00">polyfem::solver::Composite</text>
<text text-anchor="middle" x="700" y="-206" font-family="Helvetica,sans-Serif" font-size="10.00">Parametrization::size</text>
</a>
</g>
</g>
<!-- Node4&#45;&gt;Node8 -->
<g id="edge8_Node000004_Node000008" class="edge">
<title>Node4&#45;&gt;Node8</title>
<g id="a_edge8_Node000004_Node000008"><a xlink:title=" ">
<path fill="none" stroke="#63b8ff" d="M581.73,-184.37C597.27,-188.29 613.77,-192.46 629.34,-196.4"/>
<polygon fill="#63b8ff" stroke="#63b8ff" points="628.87,-199.89 639.42,-198.95 630.59,-193.1 628.87,-199.89"/>
</a>
</g>
</g>
<!-- Node6 -->
<g id="Node000006" class="node">
<title>Node6</title>
<g id="a_Node000006"><a xlink:href="namespacepolyfem.html#a4d64be939c7759c782fff98ed87f3399" target="_top" xlink:title="Retrieves the current logger for adjoint.">
<polygon fill="white" stroke="#666666" points="945,-127.5 812,-127.5 812,-108.5 945,-108.5 945,-127.5"/>
<text text-anchor="middle" x="878.5" y="-115.5" font-family="Helvetica,sans-Serif" font-size="10.00">polyfem::adjoint_logger</text>
</a>
</g>
</g>
<!-- Node5&#45;&gt;Node6 -->
<g id="edge6_Node000005_Node000006" class="edge">
<title>Node5&#45;&gt;Node6</title>
<g id="a_edge6_Node000005_Node000006"><a xlink:title=" ">
<path fill="none" stroke="#63b8ff" d="M767.22,-118C778.5,-118 790.28,-118 801.78,-118"/>
<polygon fill="#63b8ff" stroke="#63b8ff" points="801.78,-121.5 811.78,-118 801.78,-114.5 801.78,-121.5"/>
</a>
</g>
</g>
<!-- Node10 -->
<g id="Node000010" class="node">
<title>Node10</title>
<g id="a_Node000010"><a xlink:href="classpolyfem_1_1time__integrator_1_1_b_d_f.html#a36931fc9cd7efc6ec431d49ddf7330a6" target="_top" xlink:title="Retrieve the value of beta used for BDF with i steps.">
<polygon fill="white" stroke="#666666" points="581.5,-84 442.5,-84 442.5,-54 581.5,-54 581.5,-84"/>
<text text-anchor="start" x="450.5" y="-72" font-family="Helvetica,sans-Serif" font-size="10.00">polyfem::time_integrator</text>
<text text-anchor="middle" x="512" y="-61" font-family="Helvetica,sans-Serif" font-size="10.00">::BDF::betas</text>
</a>
</g>
</g>
<!-- Node9&#45;&gt;Node10 -->
<g id="edge10_Node000009_Node000010" class="edge">
<title>Node9&#45;&gt;Node10</title>
<g id="a_edge10_Node000009_Node000010"><a xlink:title=" ">
<path fill="none" stroke="#63b8ff" d="M377.21,-69C395.04,-69 414.15,-69 432.19,-69"/>
<polygon fill="#63b8ff" stroke="#63b8ff" points="432.37,-72.5 442.37,-69 432.37,-65.5 432.37,-72.5"/>
</a>
</g>
</g>
</g>
</svg>

<g id="navigator" transform="translate(0 0)" fill="#404254">
  <rect fill="#f2f5e9" fill-opacity="0.5" stroke="#606060" stroke-width=".5" x="0" y="0" width="60" height="60"/>
  <use id="zoomplus" xlink:href="#zoomPlus" x="17" y="9" onmousedown="handleZoom(evt,'in')"/>
  <use id="zoomminus" xlink:href="#zoomMin" x="42" y="9" onmousedown="handleZoom(evt,'out')"/>
  <use id="reset" xlink:href="#resetDef" x="30" y="36" onmousedown="handleReset()"/>
   <use id="arrowup" xlink:href="#arrowUp" x="0" y="0" onmousedown="handlePan(0,-1)"/>
  <use id="arrowright" xlink:href="#arrowRight" x="0" y="0" onmousedown="handlePan(1,0)"/>
  <use id="arrowdown" xlink:href="#arrowDown" x="0" y="0" onmousedown="handlePan(0,1)"/>
  <use id="arrowleft" xlink:href="#arrowLeft" x="0" y="0" onmousedown="handlePan(-1,0)"/>
</g>
<svg viewBox="0 0 15 15" width="100%" height="30px" preserveAspectRatio="xMaxYMin meet">
 <g id="arrow_out" transform="scale(0.3 0.3)">
  <a xlink:href="classpolyfem_1_1solver_1_1_dirichlet_variable_to_simulation_a01e67080c867ca4d4df9bfcac16c1f7c_cgraph_org.svg" target="_base">
   <rect id="button" ry="5" rx="5" y="6" x="6" height="38" width="38"
        fill="#f2f5e9" fill-opacity="0.5" stroke="#606060" stroke-width="1.0"/>
   <path id="arrow"
     d="M 11.500037,31.436501 C 11.940474,20.09759 22.043105,11.32322 32.158766,21.979434 L 37.068811,17.246167 C 37.068811,17.246167 37.088388,32 37.088388,32 L 22.160133,31.978069 C 22.160133,31.978069 26.997745,27.140456 26.997745,27.140456 C 18.528582,18.264221 13.291696,25.230495 11.500037,31.436501 z"
     style="fill:#404040;"/>
  </a>
 </g>
</svg>

<style type='text/css'>
<![CDATA[
[data-mouse-over-selected='false'] { opacity: 0.7; }
[data-mouse-over-selected='true']  { opacity: 1.0; }
]]>
</style>
<script type="application/ecmascript"><![CDATA[
document.addEventListener('DOMContentLoaded', (event) => {
  highlightEdges();
  highlightAdjacentNodes();
});
]]></script>
</svg>
