<?xml version="1.0" encoding="UTF-8" standalone="no"?>
<!DOCTYPE svg PUBLIC "-//W3C//DTD SVG 1.1//EN"
 "http://www.w3.org/Graphics/SVG/1.1/DTD/svg11.dtd">
<!-- Generated by graphviz version 2.43.0 (0)
 -->
<!-- Title: polyfem::State::assemble_mass_mat Pages: 1 -->
<svg width="453pt" height="124pt"
 viewBox="0.00 0.00 453.00 124.00" xmlns="http://www.w3.org/2000/svg" xmlns:xlink="http://www.w3.org/1999/xlink">
<g id="graph0" class="graph" transform="scale(1 1) rotate(0) translate(4 120)">
<title>polyfem::State::assemble_mass_mat</title>
<!-- Node1 -->
<g id="Node000001" class="node">
<title>Node1</title>
<g id="a_Node000001"><a xlink:title="assemble mass, step 4 of solve">
<polygon fill="#999999" stroke="#666666" points="142,-73 0,-73 0,-43 142,-43 142,-73"/>
<text text-anchor="start" x="8" y="-61" font-family="Helvetica,sans-Serif" font-size="10.00">polyfem::State::assemble</text>
<text text-anchor="middle" x="71" y="-50" font-family="Helvetica,sans-Serif" font-size="10.00">_mass_mat</text>
</a>
</g>
</g>
<!-- Node2 -->
<g id="Node000002" class="node">
<title>Node2</title>
<g id="a_Node000002"><a xlink:href="classpolyfem_1_1_state.html#a106191fffa5a7be86713ae76fb6d5053" target="_top" xlink:title="Get a constant reference to the geometry mapping bases.">
<polygon fill="white" stroke="#666666" points="300,-116 178,-116 178,-86 300,-86 300,-116"/>
<text text-anchor="start" x="186" y="-104" font-family="Helvetica,sans-Serif" font-size="10.00">polyfem::State::geom</text>
<text text-anchor="middle" x="239" y="-93" font-family="Helvetica,sans-Serif" font-size="10.00">_bases</text>
</a>
</g>
</g>
<!-- Node1&#45;&gt;Node2 -->
<g id="edge1_Node000001_Node000002" class="edge">
<title>Node1&#45;&gt;Node2</title>
<g id="a_edge1_Node000001_Node000002"><a xlink:title=" ">
<path fill="none" stroke="#63b8ff" d="M130.06,-73.04C142.95,-76.38 156.72,-79.95 169.97,-83.38"/>
<polygon fill="#63b8ff" stroke="#63b8ff" points="169.42,-86.85 179.97,-85.97 171.17,-80.07 169.42,-86.85"/>
</a>
</g>
</g>
<!-- Node4 -->
<g id="Node000004" class="node">
<title>Node4</title>
<g id="a_Node000004"><a xlink:href="namespacepolyfem.html#a03f3d75072d2fd19f70cd886a51d10dd" target="_top" xlink:title="Retrieves the current logger.">
<polygon fill="white" stroke="#666666" points="286,-67.5 192,-67.5 192,-48.5 286,-48.5 286,-67.5"/>
<text text-anchor="middle" x="239" y="-55.5" font-family="Helvetica,sans-Serif" font-size="10.00">polyfem::logger</text>
</a>
</g>
</g>
<!-- Node1&#45;&gt;Node4 -->
<g id="edge3_Node000001_Node000004" class="edge">
<title>Node1&#45;&gt;Node4</title>
<g id="a_edge3_Node000001_Node000004"><a xlink:title=" ">
<path fill="none" stroke="#63b8ff" d="M142.4,-58C155.38,-58 168.78,-58 181.29,-58"/>
<polygon fill="#63b8ff" stroke="#63b8ff" points="181.56,-61.5 191.56,-58 181.56,-54.5 181.56,-61.5"/>
</a>
</g>
</g>
<!-- Node5 -->
<g id="Node000005" class="node">
<title>Node5</title>
<g id="a_Node000005"><a xlink:href="namespacepolyfem_1_1utils.html#a2fb8d51756a3b76bee0485fa58e65226" target="_top" xlink:title="Lump each row of a matrix into the diagonal.">
<polygon fill="white" stroke="#666666" points="296.5,-30 181.5,-30 181.5,0 296.5,0 296.5,-30"/>
<text text-anchor="start" x="189.5" y="-18" font-family="Helvetica,sans-Serif" font-size="10.00">polyfem::utils::lump</text>
<text text-anchor="middle" x="239" y="-7" font-family="Helvetica,sans-Serif" font-size="10.00">_matrix</text>
</a>
</g>
</g>
<!-- Node1&#45;&gt;Node5 -->
<g id="edge4_Node000001_Node000005" class="edge">
<title>Node1&#45;&gt;Node5</title>
<g id="a_edge4_Node000001_Node000005"><a xlink:title=" ">
<path fill="none" stroke="#63b8ff" d="M130.06,-42.96C143.45,-39.49 157.8,-35.78 171.52,-32.22"/>
<polygon fill="#63b8ff" stroke="#63b8ff" points="172.57,-35.56 181.37,-29.67 170.81,-28.79 172.57,-35.56"/>
</a>
</g>
</g>
<!-- Node3 -->
<g id="Node000003" class="node">
<title>Node3</title>
<g id="a_Node000003"><a xlink:href="classpolyfem_1_1_state.html#ab956f7e3ad92b7ffc1ca1a45ee47903f" target="_top" xlink:title="check if using iso parametric bases">
<polygon fill="white" stroke="#666666" points="445,-116 336,-116 336,-86 445,-86 445,-116"/>
<text text-anchor="start" x="344" y="-104" font-family="Helvetica,sans-Serif" font-size="10.00">polyfem::State::iso</text>
<text text-anchor="middle" x="390.5" y="-93" font-family="Helvetica,sans-Serif" font-size="10.00">_parametric</text>
</a>
</g>
</g>
<!-- Node2&#45;&gt;Node3 -->
<g id="edge2_Node000002_Node000003" class="edge">
<title>Node2&#45;&gt;Node3</title>
<g id="a_edge2_Node000002_Node000003"><a xlink:title=" ">
<path fill="none" stroke="#63b8ff" d="M300.38,-101C308.67,-101 317.21,-101 325.57,-101"/>
<polygon fill="#63b8ff" stroke="#63b8ff" points="325.65,-104.5 335.65,-101 325.65,-97.5 325.65,-104.5"/>
</a>
</g>
</g>
</g>
</svg>
