<?xml version="1.0" encoding="UTF-8" standalone="no"?>
<!DOCTYPE svg PUBLIC "-//W3C//DTD SVG 1.1//EN"
 "http://www.w3.org/Graphics/SVG/1.1/DTD/svg11.dtd">
<!-- Generated by graphviz version 2.43.0 (0)
 -->
<!-- Title: polyfem::problem::GenericScalarProblem Pages: 1 -->
<svg width="320pt" height="128pt"
 viewBox="0.00 0.00 319.50 128.00" xmlns="http://www.w3.org/2000/svg" xmlns:xlink="http://www.w3.org/1999/xlink">
<g id="graph0" class="graph" transform="scale(1 1) rotate(0) translate(4 124)">
<title>polyfem::problem::GenericScalarProblem</title>
<!-- Node1 -->
<g id="node1" class="node">
<title>Node1</title>
<g id="a_node1"><a xlink:title=" ">
<polygon fill="#bfbfbf" stroke="black" points="83.5,-0.5 83.5,-30.5 230.5,-30.5 230.5,-0.5 83.5,-0.5"/>
<text text-anchor="start" x="91.5" y="-18.5" font-family="Helvetica,sans-Serif" font-size="10.00">polyfem::problem::Generic</text>
<text text-anchor="middle" x="157" y="-7.5" font-family="Helvetica,sans-Serif" font-size="10.00">ScalarProblem</text>
</a>
</g>
</g>
<!-- Node2 -->
<g id="node2" class="node">
<title>Node2</title>
<g id="a_node2"><a xlink:href="classpolyfem_1_1problem_1_1_problem.html" target="_top" xlink:title=" ">
<polygon fill="none" stroke="black" points="0,-95 0,-114 150,-114 150,-95 0,-95"/>
<text text-anchor="middle" x="75" y="-102" font-family="Helvetica,sans-Serif" font-size="10.00">polyfem::problem::Problem</text>
</a>
</g>
</g>
<!-- Node2&#45;&gt;Node1 -->
<g id="edge1" class="edge">
<title>Node2&#45;&gt;Node1</title>
<path fill="none" stroke="midnightblue" d="M90.39,-87.18C105.77,-70.85 129.18,-46.02 143.76,-30.55"/>
<polygon fill="midnightblue" stroke="midnightblue" points="87.47,-85.16 83.16,-94.84 92.57,-89.96 87.47,-85.16"/>
</g>
<!-- Node3 -->
<g id="node3" class="node">
<title>Node3</title>
<g id="a_node3"><a xlink:href="classpolyfem_1_1utils_1_1_expression_value.html" target="_top" xlink:title=" ">
<polygon fill="none" stroke="black" points="168.5,-89.5 168.5,-119.5 311.5,-119.5 311.5,-89.5 168.5,-89.5"/>
<text text-anchor="start" x="176.5" y="-107.5" font-family="Helvetica,sans-Serif" font-size="10.00">polyfem::utils::Expression</text>
<text text-anchor="middle" x="240" y="-96.5" font-family="Helvetica,sans-Serif" font-size="10.00">Value</text>
</a>
</g>
</g>
<!-- Node3&#45;&gt;Node1 -->
<g id="edge2" class="edge">
<title>Node3&#45;&gt;Node1</title>
<path fill="none" stroke="#9a32cd" stroke-dasharray="5,2" d="M219.26,-81.76C203.98,-65.74 183.65,-44.44 170.45,-30.6"/>
<polygon fill="#9a32cd" stroke="#9a32cd" points="216.86,-84.31 226.29,-89.13 221.92,-79.48 216.86,-84.31"/>
<text text-anchor="middle" x="226" y="-63" font-family="Helvetica,sans-Serif" font-size="10.00"> exact_</text>
<text text-anchor="middle" x="226" y="-52" font-family="Helvetica,sans-Serif" font-size="10.00">rhs_</text>
</g>
</g>
</svg>
