<?xml version="1.0" encoding="UTF-8" standalone="no"?>
<!DOCTYPE svg PUBLIC "-//W3C//DTD SVG 1.1//EN"
 "http://www.w3.org/Graphics/SVG/1.1/DTD/svg11.dtd">
<!-- Generated by graphviz version 2.43.0 (0)
 -->
<!-- Title: polyfem::io::Evaluator::average_grad_based_function Pages: 1 -->
<svg width="666pt" height="566pt"
 viewBox="0.00 0.00 666.00 565.50" xmlns="http://www.w3.org/2000/svg" xmlns:xlink="http://www.w3.org/1999/xlink">
<g id="graph0" class="graph" transform="scale(1 1) rotate(0) translate(4 561.5)">
<title>polyfem::io::Evaluator::average_grad_based_function</title>
<!-- Node1 -->
<g id="Node000001" class="node">
<title>Node1</title>
<g id="a_Node000001"><a xlink:title="computes scalar quantity of funtion (ie von mises for elasticity and norm of velocity for fluid) the ...">
<polygon fill="#999999" stroke="#666666" points="169,-276 0,-276 0,-246 169,-246 169,-276"/>
<text text-anchor="start" x="8" y="-264" font-family="Helvetica,sans-Serif" font-size="10.00">polyfem::io::Evaluator</text>
<text text-anchor="middle" x="84.5" y="-253" font-family="Helvetica,sans-Serif" font-size="10.00">::average_grad_based_function</text>
</a>
</g>
</g>
<!-- Node2 -->
<g id="Node000002" class="node">
<title>Node2</title>
<g id="a_Node000002"><a xlink:href="classpolyfem_1_1assembler_1_1_assembler.html#ab6333f36f7611b228b532c93002734cf" target="_top" xlink:title=" ">
<polygon fill="white" stroke="#666666" points="335,-557.5 212,-557.5 212,-516.5 335,-516.5 335,-557.5"/>
<text text-anchor="start" x="220" y="-545.5" font-family="Helvetica,sans-Serif" font-size="10.00">polyfem::assembler</text>
<text text-anchor="start" x="220" y="-534.5" font-family="Helvetica,sans-Serif" font-size="10.00">::Assembler::compute</text>
<text text-anchor="middle" x="273.5" y="-523.5" font-family="Helvetica,sans-Serif" font-size="10.00">_scalar_value</text>
</a>
</g>
</g>
<!-- Node1&#45;&gt;Node2 -->
<g id="edge1_Node000001_Node000002" class="edge">
<title>Node1&#45;&gt;Node2</title>
<g id="a_edge1_Node000001_Node000002"><a xlink:title=" ">
<path fill="none" stroke="#63b8ff" d="M89.43,-276.23C100.76,-317.47 137.1,-432.86 205,-502 208.02,-505.07 211.36,-507.93 214.9,-510.58"/>
<polygon fill="#63b8ff" stroke="#63b8ff" points="213.21,-513.66 223.45,-516.38 217.14,-507.87 213.21,-513.66"/>
</a>
</g>
</g>
<!-- Node3 -->
<g id="Node000003" class="node">
<title>Node3</title>
<g id="a_Node000003"><a xlink:href="classpolyfem_1_1mesh_1_1_mesh.html#aadc9bb68805f0a4c0209bee9160c9fc6" target="_top" xlink:title="utily for dimension">
<polygon fill="white" stroke="#666666" points="500,-472 378,-472 378,-442 500,-442 500,-472"/>
<text text-anchor="start" x="386" y="-460" font-family="Helvetica,sans-Serif" font-size="10.00">polyfem::mesh::Mesh</text>
<text text-anchor="middle" x="439" y="-449" font-family="Helvetica,sans-Serif" font-size="10.00">::dimension</text>
</a>
</g>
</g>
<!-- Node1&#45;&gt;Node3 -->
<g id="edge2_Node000001_Node000003" class="edge">
<title>Node1&#45;&gt;Node3</title>
<g id="a_edge2_Node000001_Node000003"><a xlink:title=" ">
<path fill="none" stroke="#63b8ff" d="M88.76,-276.2C98.31,-316.47 130.39,-425.82 205,-469 260.54,-501.15 336.58,-488.91 386.47,-474.91"/>
<polygon fill="#63b8ff" stroke="#63b8ff" points="387.47,-478.26 396.09,-472.1 385.51,-471.54 387.47,-478.26"/>
</a>
</g>
</g>
<!-- Node5 -->
<g id="Node000005" class="node">
<title>Node5</title>
<g id="a_Node000005"><a xlink:href="classpolyfem_1_1io_1_1_evaluator.html#a9a90cf207493e05a6c0049b7578c5622" target="_top" xlink:title="interpolate the function fun.">
<polygon fill="white" stroke="#666666" points="336,-442 211,-442 211,-412 336,-412 336,-442"/>
<text text-anchor="start" x="219" y="-430" font-family="Helvetica,sans-Serif" font-size="10.00">polyfem::io::Evaluator</text>
<text text-anchor="middle" x="273.5" y="-419" font-family="Helvetica,sans-Serif" font-size="10.00">::interpolate_function</text>
</a>
</g>
</g>
<!-- Node1&#45;&gt;Node5 -->
<g id="edge4_Node000001_Node000005" class="edge">
<title>Node1&#45;&gt;Node5</title>
<g id="a_edge4_Node000001_Node000005"><a xlink:title=" ">
<path fill="none" stroke="#63b8ff" d="M94.37,-276.13C111.93,-304.85 153.9,-367.56 205,-403 207.15,-404.49 209.39,-405.89 211.71,-407.22"/>
<polygon fill="#63b8ff" stroke="#63b8ff" points="210.45,-410.51 220.94,-411.95 213.64,-404.28 210.45,-410.51"/>
</a>
</g>
</g>
<!-- Node6 -->
<g id="Node000006" class="node">
<title>Node6</title>
<g id="a_Node000006"><a xlink:href="classpolyfem_1_1mesh_1_1_mesh.html#a4ac6c05b7775df67b96087dc9721ee0a" target="_top" xlink:title="checks if element is cube compatible">
<polygon fill="white" stroke="#666666" points="334.5,-394 212.5,-394 212.5,-364 334.5,-364 334.5,-394"/>
<text text-anchor="start" x="220.5" y="-382" font-family="Helvetica,sans-Serif" font-size="10.00">polyfem::mesh::Mesh</text>
<text text-anchor="middle" x="273.5" y="-371" font-family="Helvetica,sans-Serif" font-size="10.00">::is_cube</text>
</a>
</g>
</g>
<!-- Node1&#45;&gt;Node6 -->
<g id="edge7_Node000001_Node000006" class="edge">
<title>Node1&#45;&gt;Node6</title>
<g id="a_edge7_Node000001_Node000006"><a xlink:title=" ">
<path fill="none" stroke="#63b8ff" d="M101.3,-276.23C123.09,-296.55 164.32,-332.56 205,-355 208.09,-356.7 211.32,-358.32 214.63,-359.86"/>
<polygon fill="#63b8ff" stroke="#63b8ff" points="213.52,-363.19 224.09,-363.96 216.3,-356.77 213.52,-363.19"/>
</a>
</g>
</g>
<!-- Node7 -->
<g id="Node000007" class="node">
<title>Node7</title>
<g id="a_Node000007"><a xlink:href="classpolyfem_1_1mesh_1_1_mesh.html#a7c0554e28a4b3dd8ded2835e6ecece2d" target="_top" xlink:title="checks if element is a prism">
<polygon fill="white" stroke="#666666" points="334.5,-346 212.5,-346 212.5,-316 334.5,-316 334.5,-346"/>
<text text-anchor="start" x="220.5" y="-334" font-family="Helvetica,sans-Serif" font-size="10.00">polyfem::mesh::Mesh</text>
<text text-anchor="middle" x="273.5" y="-323" font-family="Helvetica,sans-Serif" font-size="10.00">::is_prism</text>
</a>
</g>
</g>
<!-- Node1&#45;&gt;Node7 -->
<g id="edge8_Node000001_Node000007" class="edge">
<title>Node1&#45;&gt;Node7</title>
<g id="a_edge8_Node000001_Node000007"><a xlink:title=" ">
<path fill="none" stroke="#63b8ff" d="M123.88,-276.07C147.27,-285.17 177.79,-296.93 205,-307 209.83,-308.79 214.87,-310.63 219.92,-312.45"/>
<polygon fill="#63b8ff" stroke="#63b8ff" points="219,-315.84 229.59,-315.93 221.36,-309.25 219,-315.84"/>
</a>
</g>
</g>
<!-- Node8 -->
<g id="Node000008" class="node">
<title>Node8</title>
<g id="a_Node000008"><a xlink:href="classpolyfem_1_1mesh_1_1_mesh.html#a62e57386728f26b8feafea1043b65c21" target="_top" xlink:title="checks if element is simplex">
<polygon fill="white" stroke="#666666" points="334.5,-298 212.5,-298 212.5,-268 334.5,-268 334.5,-298"/>
<text text-anchor="start" x="220.5" y="-286" font-family="Helvetica,sans-Serif" font-size="10.00">polyfem::mesh::Mesh</text>
<text text-anchor="middle" x="273.5" y="-275" font-family="Helvetica,sans-Serif" font-size="10.00">::is_simplex</text>
</a>
</g>
</g>
<!-- Node1&#45;&gt;Node8 -->
<g id="edge9_Node000001_Node000008" class="edge">
<title>Node1&#45;&gt;Node8</title>
<g id="a_edge9_Node000001_Node000008"><a xlink:title=" ">
<path fill="none" stroke="#63b8ff" d="M169.15,-270.84C180.21,-272.14 191.45,-273.46 202.25,-274.73"/>
<polygon fill="#63b8ff" stroke="#63b8ff" points="202.1,-278.24 212.44,-275.93 202.92,-271.29 202.1,-278.24"/>
</a>
</g>
</g>
<!-- Node9 -->
<g id="Node000009" class="node">
<title>Node9</title>
<g id="a_Node000009"><a xlink:href="namespacepolyfem.html#a03f3d75072d2fd19f70cd886a51d10dd" target="_top" xlink:title="Retrieves the current logger.">
<polygon fill="white" stroke="#666666" points="320.5,-249.5 226.5,-249.5 226.5,-230.5 320.5,-230.5 320.5,-249.5"/>
<text text-anchor="middle" x="273.5" y="-237.5" font-family="Helvetica,sans-Serif" font-size="10.00">polyfem::logger</text>
</a>
</g>
</g>
<!-- Node1&#45;&gt;Node9 -->
<g id="edge10_Node000001_Node000009" class="edge">
<title>Node1&#45;&gt;Node9</title>
<g id="a_edge10_Node000001_Node000009"><a xlink:title=" ">
<path fill="none" stroke="#63b8ff" d="M169.15,-251.61C185.12,-249.81 201.46,-247.98 216.31,-246.31"/>
<polygon fill="#63b8ff" stroke="#63b8ff" points="216.78,-249.78 226.32,-245.19 216,-242.82 216.78,-249.78"/>
</a>
</g>
</g>
<!-- Node10 -->
<g id="Node000010" class="node">
<title>Node10</title>
<g id="a_Node000010"><a xlink:href="namespacepolyfem_1_1autogen.html#a81e7dfa1d60c099807060e6f1bc78e94" target="_top" xlink:title=" ">
<polygon fill="white" stroke="#666666" points="496.5,-220 381.5,-220 381.5,-190 496.5,-190 496.5,-220"/>
<text text-anchor="start" x="389.5" y="-208" font-family="Helvetica,sans-Serif" font-size="10.00">polyfem::autogen::p</text>
<text text-anchor="middle" x="439" y="-197" font-family="Helvetica,sans-Serif" font-size="10.00">_nodes_2d</text>
</a>
</g>
</g>
<!-- Node1&#45;&gt;Node10 -->
<g id="edge11_Node000001_Node000010" class="edge">
<title>Node1&#45;&gt;Node10</title>
<g id="a_edge11_Node000001_Node000010"><a xlink:title=" ">
<path fill="none" stroke="#63b8ff" d="M123.62,-245.93C146.78,-237.45 177.16,-227.47 205,-222 260.43,-211.1 324.51,-207.03 371.43,-205.58"/>
<polygon fill="#63b8ff" stroke="#63b8ff" points="371.57,-209.08 381.47,-205.3 371.37,-202.08 371.57,-209.08"/>
</a>
</g>
</g>
<!-- Node12 -->
<g id="Node000012" class="node">
<title>Node12</title>
<g id="a_Node000012"><a xlink:href="namespacepolyfem_1_1autogen.html#a9c2688a6744801097c2f8baa081ab3a7" target="_top" xlink:title=" ">
<polygon fill="white" stroke="#666666" points="331,-126 216,-126 216,-96 331,-96 331,-126"/>
<text text-anchor="start" x="224" y="-114" font-family="Helvetica,sans-Serif" font-size="10.00">polyfem::autogen::p</text>
<text text-anchor="middle" x="273.5" y="-103" font-family="Helvetica,sans-Serif" font-size="10.00">_nodes_3d</text>
</a>
</g>
</g>
<!-- Node1&#45;&gt;Node12 -->
<g id="edge13_Node000001_Node000012" class="edge">
<title>Node1&#45;&gt;Node12</title>
<g id="a_edge13_Node000001_Node000012"><a xlink:title=" ">
<path fill="none" stroke="#63b8ff" d="M96.26,-245.59C115.31,-219.37 157.49,-165.91 205,-135 207.44,-133.41 210.01,-131.91 212.64,-130.5"/>
<polygon fill="#63b8ff" stroke="#63b8ff" points="214.38,-133.54 221.85,-126.02 211.32,-127.25 214.38,-133.54"/>
</a>
</g>
</g>
<!-- Node14 -->
<g id="Node000014" class="node">
<title>Node14</title>
<g id="a_Node000014"><a xlink:href="namespacepolyfem_1_1autogen.html#a510eafb48b84cfe34b5511a009a9b9b9" target="_top" xlink:title=" ">
<polygon fill="white" stroke="#666666" points="342,-174 205,-174 205,-144 342,-144 342,-174"/>
<text text-anchor="start" x="213" y="-162" font-family="Helvetica,sans-Serif" font-size="10.00">polyfem::autogen::prism</text>
<text text-anchor="middle" x="273.5" y="-151" font-family="Helvetica,sans-Serif" font-size="10.00">_nodes_3d</text>
</a>
</g>
</g>
<!-- Node1&#45;&gt;Node14 -->
<g id="edge15_Node000001_Node000014" class="edge">
<title>Node1&#45;&gt;Node14</title>
<g id="a_edge15_Node000001_Node000014"><a xlink:title=" ">
<path fill="none" stroke="#63b8ff" d="M108.29,-245.73C131.93,-230.21 170.23,-205.97 205,-188 211.54,-184.62 218.57,-181.29 225.53,-178.15"/>
<polygon fill="#63b8ff" stroke="#63b8ff" points="227.18,-181.25 234.92,-174.02 224.36,-174.84 227.18,-181.25"/>
</a>
</g>
</g>
<!-- Node16 -->
<g id="Node000016" class="node">
<title>Node16</title>
<g id="a_Node000016"><a xlink:href="namespacepolyfem_1_1autogen.html#a18ee2912d770a6bc9cfe2a485a9ecb25" target="_top" xlink:title=" ">
<polygon fill="white" stroke="#666666" points="331,-78 216,-78 216,-48 331,-48 331,-78"/>
<text text-anchor="start" x="224" y="-66" font-family="Helvetica,sans-Serif" font-size="10.00">polyfem::autogen::q</text>
<text text-anchor="middle" x="273.5" y="-55" font-family="Helvetica,sans-Serif" font-size="10.00">_nodes_2d</text>
</a>
</g>
</g>
<!-- Node1&#45;&gt;Node16 -->
<g id="edge18_Node000001_Node000016" class="edge">
<title>Node1&#45;&gt;Node16</title>
<g id="a_edge18_Node000001_Node000016"><a xlink:title=" ">
<path fill="none" stroke="#63b8ff" d="M91.92,-245.83C106.84,-212.34 147.03,-131.55 205,-87 206.8,-85.61 208.69,-84.3 210.65,-83.07"/>
<polygon fill="#63b8ff" stroke="#63b8ff" points="212.54,-86.02 219.57,-78.08 209.13,-79.9 212.54,-86.02"/>
</a>
</g>
</g>
<!-- Node17 -->
<g id="Node000017" class="node">
<title>Node17</title>
<g id="a_Node000017"><a xlink:href="namespacepolyfem_1_1autogen.html#ae625b6539e6dfcbb11dee43af4a58bc0" target="_top" xlink:title=" ">
<polygon fill="white" stroke="#666666" points="331,-30 216,-30 216,0 331,0 331,-30"/>
<text text-anchor="start" x="224" y="-18" font-family="Helvetica,sans-Serif" font-size="10.00">polyfem::autogen::q</text>
<text text-anchor="middle" x="273.5" y="-7" font-family="Helvetica,sans-Serif" font-size="10.00">_nodes_3d</text>
</a>
</g>
</g>
<!-- Node1&#45;&gt;Node17 -->
<g id="edge19_Node000001_Node000017" class="edge">
<title>Node1&#45;&gt;Node17</title>
<g id="a_edge19_Node000001_Node000017"><a xlink:title=" ">
<path fill="none" stroke="#63b8ff" d="M89.48,-245.91C100.72,-206.21 136.41,-97.87 205,-39 206.36,-37.83 207.79,-36.72 209.26,-35.66"/>
<polygon fill="#63b8ff" stroke="#63b8ff" points="211.5,-38.38 218.16,-30.14 207.82,-32.43 211.5,-38.38"/>
</a>
</g>
</g>
<!-- Node4 -->
<g id="Node000004" class="node">
<title>Node4</title>
<g id="a_Node000004"><a xlink:href="classpolyfem_1_1mesh_1_1_mesh.html#a93c9ea4759ded33a8f25ff157033cfd9" target="_top" xlink:title="checks if mesh is volume">
<polygon fill="white" stroke="#666666" points="658,-472 536,-472 536,-442 658,-442 658,-472"/>
<text text-anchor="start" x="544" y="-460" font-family="Helvetica,sans-Serif" font-size="10.00">polyfem::mesh::Mesh</text>
<text text-anchor="middle" x="597" y="-449" font-family="Helvetica,sans-Serif" font-size="10.00">::is_volume</text>
</a>
</g>
</g>
<!-- Node3&#45;&gt;Node4 -->
<g id="edge3_Node000003_Node000004" class="edge">
<title>Node3&#45;&gt;Node4</title>
<g id="a_edge3_Node000003_Node000004"><a xlink:title=" ">
<path fill="none" stroke="#63b8ff" d="M500.31,-457C508.6,-457 517.17,-457 525.63,-457"/>
<polygon fill="#63b8ff" stroke="#63b8ff" points="525.85,-460.5 535.85,-457 525.85,-453.5 525.85,-460.5"/>
</a>
</g>
</g>
<!-- Node5&#45;&gt;Node3 -->
<g id="edge5_Node000005_Node000003" class="edge">
<title>Node5&#45;&gt;Node3</title>
<g id="a_edge5_Node000005_Node000003"><a xlink:title=" ">
<path fill="none" stroke="#63b8ff" d="M336.31,-438.34C346.66,-440.24 357.46,-442.22 368,-444.16"/>
<polygon fill="#63b8ff" stroke="#63b8ff" points="367.53,-447.63 377.99,-445.99 368.79,-440.74 367.53,-447.63"/>
</a>
</g>
</g>
<!-- Node5&#45;&gt;Node5 -->
<g id="edge6_Node000005_Node000005" class="edge">
<title>Node5&#45;&gt;Node5</title>
<g id="a_edge6_Node000005_Node000005"><a xlink:title=" ">
<path fill="none" stroke="#63b8ff" d="M244.67,-442.28C238.27,-451.41 247.88,-460 273.5,-460 288.71,-460 298.28,-456.97 302.21,-452.6"/>
<polygon fill="#63b8ff" stroke="#63b8ff" points="305.71,-452.32 302.33,-442.28 298.71,-452.23 305.71,-452.32"/>
</a>
</g>
</g>
<!-- Node11 -->
<g id="Node000011" class="node">
<title>Node11</title>
<g id="a_Node000011"><a xlink:href="namespacepolyfem_1_1autogen.html#ae638aa088cd1fdcfc3e3f0e60ef6d7ad" target="_top" xlink:title=" ">
<polygon fill="white" stroke="#666666" points="654.5,-220 539.5,-220 539.5,-190 654.5,-190 654.5,-220"/>
<text text-anchor="start" x="547.5" y="-208" font-family="Helvetica,sans-Serif" font-size="10.00">polyfem::autogen::p</text>
<text text-anchor="middle" x="597" y="-197" font-family="Helvetica,sans-Serif" font-size="10.00">_n_nodes_2d</text>
</a>
</g>
</g>
<!-- Node10&#45;&gt;Node11 -->
<g id="edge12_Node000010_Node000011" class="edge">
<title>Node10&#45;&gt;Node11</title>
<g id="a_edge12_Node000010_Node000011"><a xlink:title=" ">
<path fill="none" stroke="#63b8ff" d="M496.76,-205C507.26,-205 518.31,-205 529.08,-205"/>
<polygon fill="#63b8ff" stroke="#63b8ff" points="529.28,-208.5 539.28,-205 529.28,-201.5 529.28,-208.5"/>
</a>
</g>
</g>
<!-- Node13 -->
<g id="Node000013" class="node">
<title>Node13</title>
<g id="a_Node000013"><a xlink:href="namespacepolyfem_1_1autogen.html#a354a4b5cbfcf4c5768a35a8ed4f2cdb7" target="_top" xlink:title=" ">
<polygon fill="white" stroke="#666666" points="496.5,-124 381.5,-124 381.5,-94 496.5,-94 496.5,-124"/>
<text text-anchor="start" x="389.5" y="-112" font-family="Helvetica,sans-Serif" font-size="10.00">polyfem::autogen::p</text>
<text text-anchor="middle" x="439" y="-101" font-family="Helvetica,sans-Serif" font-size="10.00">_n_nodes_3d</text>
</a>
</g>
</g>
<!-- Node12&#45;&gt;Node13 -->
<g id="edge14_Node000012_Node000013" class="edge">
<title>Node12&#45;&gt;Node13</title>
<g id="a_edge14_Node000012_Node000013"><a xlink:title=" ">
<path fill="none" stroke="#63b8ff" d="M331.23,-110.31C344.16,-110.15 358.02,-109.98 371.33,-109.82"/>
<polygon fill="#63b8ff" stroke="#63b8ff" points="371.42,-113.31 381.37,-109.69 371.33,-106.32 371.42,-113.31"/>
</a>
</g>
</g>
<!-- Node14&#45;&gt;Node10 -->
<g id="edge16_Node000014_Node000010" class="edge">
<title>Node14&#45;&gt;Node10</title>
<g id="a_edge16_Node000014_Node000010"><a xlink:title=" ">
<path fill="none" stroke="#63b8ff" d="M328.04,-174.06C342.93,-178.25 359.26,-182.85 374.66,-187.18"/>
<polygon fill="#63b8ff" stroke="#63b8ff" points="374.05,-190.64 384.62,-189.98 375.94,-183.91 374.05,-190.64"/>
</a>
</g>
</g>
<!-- Node15 -->
<g id="Node000015" class="node">
<title>Node15</title>
<g id="a_Node000015"><a xlink:href="namespacepolyfem_1_1autogen.html#af0a0493fa408056615c4b8328a0d5f41" target="_top" xlink:title=" ">
<polygon fill="white" stroke="#666666" points="496.5,-172 381.5,-172 381.5,-142 496.5,-142 496.5,-172"/>
<text text-anchor="start" x="389.5" y="-160" font-family="Helvetica,sans-Serif" font-size="10.00">polyfem::autogen::q</text>
<text text-anchor="middle" x="439" y="-149" font-family="Helvetica,sans-Serif" font-size="10.00">_nodes_1d</text>
</a>
</g>
</g>
<!-- Node14&#45;&gt;Node15 -->
<g id="edge17_Node000014_Node000015" class="edge">
<title>Node14&#45;&gt;Node15</title>
<g id="a_edge17_Node000014_Node000015"><a xlink:title=" ">
<path fill="none" stroke="#63b8ff" d="M342.42,-158.17C351.95,-158.05 361.75,-157.93 371.26,-157.82"/>
<polygon fill="#63b8ff" stroke="#63b8ff" points="371.49,-161.31 381.45,-157.69 371.41,-154.31 371.49,-161.31"/>
</a>
</g>
</g>
</g>
</svg>
