<?xml version="1.0" encoding="UTF-8" standalone="no"?>
<!DOCTYPE svg PUBLIC "-//W3C//DTD SVG 1.1//EN"
 "http://www.w3.org/Graphics/SVG/1.1/DTD/svg11.dtd">
<!-- Generated by graphviz version 2.43.0 (0)
 -->
<!-- Title: polyfem::solver::ScalarVelocityParametrization::size Pages: 1 -->
<svg width="385pt" height="134pt"
 viewBox="0.00 0.00 385.00 134.00" xmlns="http://www.w3.org/2000/svg" xmlns:xlink="http://www.w3.org/1999/xlink">
<g id="graph0" class="graph" transform="scale(1 1) rotate(0) translate(4 130)">
<title>polyfem::solver::ScalarVelocityParametrization::size</title>
<!-- Node1 -->
<g id="Node000001" class="node">
<title>Node1</title>
<g id="a_Node000001"><a xlink:title=" ">
<polygon fill="#999999" stroke="#666666" points="377,-78 209,-78 209,-48 377,-48 377,-78"/>
<text text-anchor="start" x="217" y="-66" font-family="Helvetica,sans-Serif" font-size="10.00">polyfem::solver::ScalarVelocity</text>
<text text-anchor="middle" x="293" y="-55" font-family="Helvetica,sans-Serif" font-size="10.00">Parametrization::size</text>
</a>
</g>
</g>
<!-- Node2 -->
<g id="Node000002" class="node">
<title>Node2</title>
<g id="a_Node000002"><a xlink:href="classpolyfem_1_1solver_1_1_scalar_velocity_parametrization.html#a23b378a327fd3481a2a8603c9587c36a" target="_top" xlink:title=" ">
<polygon fill="white" stroke="#666666" points="173,-126 0,-126 0,-96 173,-96 173,-126"/>
<text text-anchor="start" x="8" y="-114" font-family="Helvetica,sans-Serif" font-size="10.00">polyfem::solver::ScalarVelocity</text>
<text text-anchor="middle" x="86.5" y="-103" font-family="Helvetica,sans-Serif" font-size="10.00">Parametrization::apply_jacobian</text>
</a>
</g>
</g>
<!-- Node1&#45;&gt;Node2 -->
<g id="edge1_Node000001_Node000002" class="edge">
<title>Node1&#45;&gt;Node2</title>
<g id="a_edge1_Node000001_Node000002"><a xlink:title=" ">
<path fill="none" stroke="#63b8ff" d="M217.99,-80.37C196.19,-85.49 172.53,-91.04 151.42,-96"/>
<polygon fill="#63b8ff" stroke="#63b8ff" points="218.92,-83.75 227.86,-78.06 217.32,-76.93 218.92,-83.75"/>
</a>
</g>
</g>
<!-- Node3 -->
<g id="Node000003" class="node">
<title>Node3</title>
<g id="a_Node000003"><a xlink:href="classpolyfem_1_1solver_1_1_scalar_velocity_parametrization.html#aaf075805d75a33b8196318a83712c256" target="_top" xlink:title=" ">
<polygon fill="white" stroke="#666666" points="170.5,-78 2.5,-78 2.5,-48 170.5,-48 170.5,-78"/>
<text text-anchor="start" x="10.5" y="-66" font-family="Helvetica,sans-Serif" font-size="10.00">polyfem::solver::ScalarVelocity</text>
<text text-anchor="middle" x="86.5" y="-55" font-family="Helvetica,sans-Serif" font-size="10.00">Parametrization::eval</text>
</a>
</g>
</g>
<!-- Node1&#45;&gt;Node3 -->
<g id="edge2_Node000001_Node000003" class="edge">
<title>Node1&#45;&gt;Node3</title>
<g id="a_edge2_Node000001_Node000003"><a xlink:title=" ">
<path fill="none" stroke="#63b8ff" d="M198.71,-63C189.33,-63 179.86,-63 170.6,-63"/>
<polygon fill="#63b8ff" stroke="#63b8ff" points="198.82,-66.5 208.82,-63 198.82,-59.5 198.82,-66.5"/>
</a>
</g>
</g>
<!-- Node4 -->
<g id="Node000004" class="node">
<title>Node4</title>
<g id="a_Node000004"><a xlink:href="classpolyfem_1_1solver_1_1_scalar_velocity_parametrization.html#abed0c6c788de46e661cbe0452bf517a0" target="_top" xlink:title=" ">
<polygon fill="white" stroke="#666666" points="170.5,-30 2.5,-30 2.5,0 170.5,0 170.5,-30"/>
<text text-anchor="start" x="10.5" y="-18" font-family="Helvetica,sans-Serif" font-size="10.00">polyfem::solver::ScalarVelocity</text>
<text text-anchor="middle" x="86.5" y="-7" font-family="Helvetica,sans-Serif" font-size="10.00">Parametrization::inverse_eval</text>
</a>
</g>
</g>
<!-- Node1&#45;&gt;Node4 -->
<g id="edge3_Node000001_Node000004" class="edge">
<title>Node1&#45;&gt;Node4</title>
<g id="a_edge3_Node000001_Node000004"><a xlink:title=" ">
<path fill="none" stroke="#63b8ff" d="M217.99,-45.63C196.19,-40.51 172.53,-34.96 151.42,-30"/>
<polygon fill="#63b8ff" stroke="#63b8ff" points="217.32,-49.07 227.86,-47.94 218.92,-42.25 217.32,-49.07"/>
</a>
</g>
</g>
</g>
</svg>
