<?xml version="1.0" encoding="UTF-8" standalone="no"?>
<!DOCTYPE svg PUBLIC "-//W3C//DTD SVG 1.1//EN"
 "http://www.w3.org/Graphics/SVG/1.1/DTD/svg11.dtd">
<!-- Generated by graphviz version 2.43.0 (0)
 -->
<!-- Title: polyfem::solver::FrictionForm::update_lagging Pages: 1 -->
<svg width="714pt" height="290pt"
 viewBox="0.00 0.00 714.00 290.00" xmlns="http://www.w3.org/2000/svg" xmlns:xlink="http://www.w3.org/1999/xlink">
<g id="graph0" class="graph" transform="scale(1 1) rotate(0) translate(4 286)">
<title>polyfem::solver::FrictionForm::update_lagging</title>
<!-- Node1 -->
<g id="Node000001" class="node">
<title>Node1</title>
<g id="a_Node000001"><a xlink:title="Update lagged fields.">
<polygon fill="#999999" stroke="#666666" points="135,-153 0,-153 0,-123 135,-123 135,-153"/>
<text text-anchor="start" x="8" y="-141" font-family="Helvetica,sans-Serif" font-size="10.00">polyfem::solver::Friction</text>
<text text-anchor="middle" x="67.5" y="-130" font-family="Helvetica,sans-Serif" font-size="10.00">Form::update_lagging</text>
</a>
</g>
</g>
<!-- Node2 -->
<g id="Node000002" class="node">
<title>Node2</title>
<g id="a_Node000002"><a xlink:href="classpolyfem_1_1solver_1_1_contact_form.html#a1e2b2e9c627dfca2a35522c31697b8d6" target="_top" xlink:title=" ">
<polygon fill="white" stroke="#666666" points="333,-282 196,-282 196,-252 333,-252 333,-282"/>
<text text-anchor="start" x="204" y="-270" font-family="Helvetica,sans-Serif" font-size="10.00">polyfem::solver::Contact</text>
<text text-anchor="middle" x="264.5" y="-259" font-family="Helvetica,sans-Serif" font-size="10.00">Form::barrier_potential</text>
</a>
</g>
</g>
<!-- Node1&#45;&gt;Node2 -->
<g id="edge1_Node000001_Node000002" class="edge">
<title>Node1&#45;&gt;Node2</title>
<g id="a_edge1_Node000001_Node000002"><a xlink:title=" ">
<path fill="none" stroke="#63b8ff" d="M78.91,-153.04C95.62,-176 130.67,-219.61 171,-243 175.75,-245.76 180.83,-248.2 186.05,-250.37"/>
<polygon fill="#63b8ff" stroke="#63b8ff" points="185.01,-253.72 195.6,-253.98 187.49,-247.17 185.01,-253.72"/>
</a>
</g>
</g>
<!-- Node3 -->
<g id="Node000003" class="node">
<title>Node3</title>
<g id="a_Node000003"><a xlink:href="classpolyfem_1_1solver_1_1_contact_form.html#a41dcdd4761553a2e08ed5c44056d0440" target="_top" xlink:title="Get the current barrier stiffness.">
<polygon fill="white" stroke="#666666" points="333,-234 196,-234 196,-204 333,-204 333,-234"/>
<text text-anchor="start" x="204" y="-222" font-family="Helvetica,sans-Serif" font-size="10.00">polyfem::solver::Contact</text>
<text text-anchor="middle" x="264.5" y="-211" font-family="Helvetica,sans-Serif" font-size="10.00">Form::barrier_stiffness</text>
</a>
</g>
</g>
<!-- Node1&#45;&gt;Node3 -->
<g id="edge2_Node000001_Node000003" class="edge">
<title>Node1&#45;&gt;Node3</title>
<g id="a_edge2_Node000001_Node000003"><a xlink:title=" ">
<path fill="none" stroke="#63b8ff" d="M91.68,-153.14C111.92,-165.8 142.46,-183.58 171,-195 176.33,-197.13 181.91,-199.13 187.57,-200.98"/>
<polygon fill="#63b8ff" stroke="#63b8ff" points="186.56,-204.33 197.15,-203.97 188.64,-197.65 186.56,-204.33"/>
</a>
</g>
</g>
<!-- Node4 -->
<g id="Node000004" class="node">
<title>Node4</title>
<g id="a_Node000004"><a xlink:href="classpolyfem_1_1solver_1_1_friction_form.html#a813fc2f87b22de23caf3d1cb850fdfac" target="_top" xlink:title="Compute the displaced positions of the surface nodes.">
<polygon fill="white" stroke="#666666" points="335.5,-185.5 193.5,-185.5 193.5,-144.5 335.5,-144.5 335.5,-185.5"/>
<text text-anchor="start" x="201.5" y="-173.5" font-family="Helvetica,sans-Serif" font-size="10.00">polyfem::solver::Friction</text>
<text text-anchor="start" x="201.5" y="-162.5" font-family="Helvetica,sans-Serif" font-size="10.00">Form::compute_displaced</text>
<text text-anchor="middle" x="264.5" y="-151.5" font-family="Helvetica,sans-Serif" font-size="10.00">_surface</text>
</a>
</g>
</g>
<!-- Node1&#45;&gt;Node4 -->
<g id="edge3_Node000001_Node000004" class="edge">
<title>Node1&#45;&gt;Node4</title>
<g id="a_edge3_Node000001_Node000004"><a xlink:title=" ">
<path fill="none" stroke="#63b8ff" d="M135.06,-147.22C150.45,-149.35 166.98,-151.64 182.9,-153.84"/>
<polygon fill="#63b8ff" stroke="#63b8ff" points="182.86,-157.37 193.24,-155.27 183.82,-150.43 182.86,-157.37"/>
</a>
</g>
</g>
<!-- Node7 -->
<g id="Node000007" class="node">
<title>Node7</title>
<g id="a_Node000007"><a xlink:href="classpolyfem_1_1solver_1_1_contact_form.html#a891722aad2290a8a2684cadc742d6561" target="_top" xlink:title=" ">
<polygon fill="white" stroke="#666666" points="333,-126 196,-126 196,-96 333,-96 333,-126"/>
<text text-anchor="start" x="204" y="-114" font-family="Helvetica,sans-Serif" font-size="10.00">polyfem::solver::Contact</text>
<text text-anchor="middle" x="264.5" y="-103" font-family="Helvetica,sans-Serif" font-size="10.00">Form::dhat</text>
</a>
</g>
</g>
<!-- Node1&#45;&gt;Node7 -->
<g id="edge6_Node000001_Node000007" class="edge">
<title>Node1&#45;&gt;Node7</title>
<g id="a_edge6_Node000001_Node000007"><a xlink:title=" ">
<path fill="none" stroke="#63b8ff" d="M135.06,-128.78C151.33,-126.53 168.87,-124.1 185.61,-121.78"/>
<polygon fill="#63b8ff" stroke="#63b8ff" points="186.49,-125.2 195.91,-120.36 185.53,-118.26 186.49,-125.2"/>
</a>
</g>
</g>
<!-- Node8 -->
<g id="Node000008" class="node">
<title>Node8</title>
<g id="a_Node000008"><a xlink:href="classpolyfem_1_1solver_1_1_contact_form.html#a7aadb732b6df116dd2374bdb64d0826c" target="_top" xlink:title=" ">
<polygon fill="white" stroke="#666666" points="352,-78 177,-78 177,-48 352,-48 352,-78"/>
<text text-anchor="start" x="185" y="-66" font-family="Helvetica,sans-Serif" font-size="10.00">polyfem::solver::Contact</text>
<text text-anchor="middle" x="264.5" y="-55" font-family="Helvetica,sans-Serif" font-size="10.00">Form::enable_shape_derivatives</text>
</a>
</g>
</g>
<!-- Node1&#45;&gt;Node8 -->
<g id="edge7_Node000001_Node000008" class="edge">
<title>Node1&#45;&gt;Node8</title>
<g id="a_edge7_Node000001_Node000008"><a xlink:title=" ">
<path fill="none" stroke="#63b8ff" d="M95.22,-122.78C115.51,-111.7 144.38,-96.95 171,-87 176.58,-84.92 182.4,-82.94 188.31,-81.09"/>
<polygon fill="#63b8ff" stroke="#63b8ff" points="189.71,-84.33 198.28,-78.1 187.69,-77.62 189.71,-84.33"/>
</a>
</g>
</g>
<!-- Node9 -->
<g id="Node000009" class="node">
<title>Node9</title>
<g id="a_Node000009"><a xlink:href="classpolyfem_1_1solver_1_1_contact_form.html#afb889e2d85c746787b9d42eddb1e0cda" target="_top" xlink:title="Get use_convergent_formulation.">
<polygon fill="white" stroke="#666666" points="358,-30 171,-30 171,0 358,0 358,-30"/>
<text text-anchor="start" x="179" y="-18" font-family="Helvetica,sans-Serif" font-size="10.00">polyfem::solver::Contact</text>
<text text-anchor="middle" x="264.5" y="-7" font-family="Helvetica,sans-Serif" font-size="10.00">Form::use_convergent_formulation</text>
</a>
</g>
</g>
<!-- Node1&#45;&gt;Node9 -->
<g id="edge8_Node000001_Node000009" class="edge">
<title>Node1&#45;&gt;Node9</title>
<g id="a_edge8_Node000001_Node000009"><a xlink:title=" ">
<path fill="none" stroke="#63b8ff" d="M79.97,-122.76C97.26,-100.87 132.16,-60.78 171,-39 174.23,-37.19 177.6,-35.51 181.06,-33.96"/>
<polygon fill="#63b8ff" stroke="#63b8ff" points="182.47,-37.16 190.39,-30.13 179.81,-30.69 182.47,-37.16"/>
</a>
</g>
</g>
<!-- Node5 -->
<g id="Node000005" class="node">
<title>Node5</title>
<g id="a_Node000005"><a xlink:href="classpolyfem_1_1solver_1_1_contact_form.html#a41111805fab863090ce87259bb024995" target="_top" xlink:title="Compute the displaced positions of the surface nodes.">
<polygon fill="white" stroke="#666666" points="536,-185.5 394,-185.5 394,-144.5 536,-144.5 536,-185.5"/>
<text text-anchor="start" x="402" y="-173.5" font-family="Helvetica,sans-Serif" font-size="10.00">polyfem::solver::Contact</text>
<text text-anchor="start" x="402" y="-162.5" font-family="Helvetica,sans-Serif" font-size="10.00">Form::compute_displaced</text>
<text text-anchor="middle" x="465" y="-151.5" font-family="Helvetica,sans-Serif" font-size="10.00">_surface</text>
</a>
</g>
</g>
<!-- Node4&#45;&gt;Node5 -->
<g id="edge4_Node000004_Node000005" class="edge">
<title>Node4&#45;&gt;Node5</title>
<g id="a_edge4_Node000004_Node000005"><a xlink:title=" ">
<path fill="none" stroke="#63b8ff" d="M335.76,-165C351.22,-165 367.71,-165 383.54,-165"/>
<polygon fill="#63b8ff" stroke="#63b8ff" points="383.83,-168.5 393.83,-165 383.83,-161.5 383.83,-168.5"/>
</a>
</g>
</g>
<!-- Node6 -->
<g id="Node000006" class="node">
<title>Node6</title>
<g id="a_Node000006"><a xlink:href="namespacepolyfem_1_1utils.html#aafdbbff4a81a4fcba11129097b1109e5" target="_top" xlink:title="Unflatten rowwises, so every dim elements in x become a row.">
<polygon fill="white" stroke="#666666" points="706,-174.5 572,-174.5 572,-155.5 706,-155.5 706,-174.5"/>
<text text-anchor="middle" x="639" y="-162.5" font-family="Helvetica,sans-Serif" font-size="10.00">polyfem::utils::unflatten</text>
</a>
</g>
</g>
<!-- Node5&#45;&gt;Node6 -->
<g id="edge5_Node000005_Node000006" class="edge">
<title>Node5&#45;&gt;Node6</title>
<g id="a_edge5_Node000005_Node000006"><a xlink:title=" ">
<path fill="none" stroke="#63b8ff" d="M536.46,-165C544.77,-165 553.28,-165 561.66,-165"/>
<polygon fill="#63b8ff" stroke="#63b8ff" points="561.81,-168.5 571.81,-165 561.81,-161.5 561.81,-168.5"/>
</a>
</g>
</g>
</g>
</svg>
