<?xml version="1.0" encoding="UTF-8" standalone="no"?>
<!DOCTYPE svg PUBLIC "-//W3C//DTD SVG 1.1//EN"
 "http://www.w3.org/Graphics/SVG/1.1/DTD/svg11.dtd">
<!-- Generated by graphviz version 2.43.0 (0)
 -->
<!-- Title: polyfem::solver::FrictionVariableToSimulation::compute_adjoint_term Pages: 1 -->
<!--zoomable 306 -->

<svg id="main" version="1.1" xmlns="http://www.w3.org/2000/svg" xmlns:xlink="http://www.w3.org/1999/xlink" xml:space="preserve" onload="init(evt)">
<style type="text/css"><![CDATA[
.node, .edge {opacity: 0.7;}
.node.selected, .edge.selected {opacity: 1;}
.edge:hover path { stroke: red; }
.edge:hover polygon { stroke: red; fill: red; }
]]></style>

<defs>
  <circle id="rim" cx="0" cy="0" r="7"/>
  <circle id="rim2" cx="0" cy="0" r="3.5"/>
  <g id="zoomPlus">
    <use xlink:href="#rim" fill="#404040"><set attributeName="fill" to="#808080" begin="zoomplus.mouseover" end="zoomplus.mouseout"/></use>
    <path d="M-4,0h8M0,-4v8" fill="none" stroke="white" stroke-width="1.5" pointer-events="none"/>
  </g>
  <g id="zoomMin">
    <use xlink:href="#rim" fill="#404040"><set attributeName="fill" to="#808080" begin="zoomminus.mouseover" end="zoomminus.mouseout"/></use>
    <path d="M-4,0h8" fill="none" stroke="white" stroke-width="1.5" pointer-events="none"/>
  </g>
  <g id="arrowUp" transform="translate(30 24)">
    <use xlink:href="#rim"/>
    <path pointer-events="none" fill="none" stroke="white" stroke-width="1.5" d="M0,-3.0v7 M-2.5,-0.5L0,-3.0L2.5,-0.5"/>
  </g>
  <g id="arrowRight" transform="rotate(90) translate(36 -43)">
    <use xlink:href="#rim"/>
    <path pointer-events="none" fill="none" stroke="white" stroke-width="1.5" d="M0,-3.0v7 M-2.5,-0.5L0,-3.0L2.5,-0.5"/>
  </g>
  <g id="arrowDown" transform="rotate(180) translate(-30 -48)">
    <use xlink:href="#rim"/>
    <path pointer-events="none" fill="none" stroke="white" stroke-width="1.5" d="M0,-3.0v7 M-2.5,-0.5L0,-3.0L2.5,-0.5"/>
  </g>
  <g id="arrowLeft" transform="rotate(270) translate(-36 17)">
    <use xlink:href="#rim"/>
    <path pointer-events="none" fill="none" stroke="white" stroke-width="1.5" d="M0,-3.0v7 M-2.5,-0.5L0,-3.0L2.5,-0.5"/>
  </g>
  <g id="resetDef">
    <use xlink:href="#rim2" fill="#404040"><set attributeName="fill" to="#808080" begin="reset.mouseover" end="reset.mouseout"/></use>
  </g>
</defs>
<script type="application/ecmascript">
var viewWidth = 1030;
var viewHeight = 306;
var sectionId = 'dynsection-4';
</script>
<script type="application/ecmascript" xlink:href="svg.min.js"/>
<svg id="graph" class="graph">
<g id="viewport">
<title>polyfem::solver::FrictionVariableToSimulation::compute_adjoint_term</title>
<!-- Node1 -->
<g id="Node000001" class="node">
<title>Node1</title>
<g id="a_Node000001"><a xlink:title="Compute adjoint contribution of objective gradient.">
<polygon fill="#999999" stroke="#666666" points="168,-144.5 0,-144.5 0,-103.5 168,-103.5 168,-144.5"/>
<text text-anchor="start" x="8" y="-132.5" font-family="Helvetica,sans-Serif" font-size="10.00">polyfem::solver::Friction</text>
<text text-anchor="start" x="8" y="-121.5" font-family="Helvetica,sans-Serif" font-size="10.00">VariableToSimulation::compute</text>
<text text-anchor="middle" x="84" y="-110.5" font-family="Helvetica,sans-Serif" font-size="10.00">_adjoint_term</text>
</a>
</g>
</g>
<!-- Node2 -->
<g id="Node000002" class="node">
<title>Node2</title>
<g id="a_Node000002"><a xlink:href="classpolyfem_1_1solver_1_1_composite_parametrization.html#a34d19dcd05175faa19ced87215c969be" target="_top" xlink:title="Apply jacobian for chain rule.">
<polygon fill="white" stroke="#666666" points="356,-228.5 204,-228.5 204,-187.5 356,-187.5 356,-228.5"/>
<text text-anchor="start" x="212" y="-216.5" font-family="Helvetica,sans-Serif" font-size="10.00">polyfem::solver::Composite</text>
<text text-anchor="start" x="212" y="-205.5" font-family="Helvetica,sans-Serif" font-size="10.00">Parametrization::apply</text>
<text text-anchor="middle" x="280" y="-194.5" font-family="Helvetica,sans-Serif" font-size="10.00">_jacobian</text>
</a>
</g>
</g>
<!-- Node1&#45;&gt;Node2 -->
<g id="edge1_Node000001_Node000002" class="edge">
<title>Node1&#45;&gt;Node2</title>
<g id="a_edge1_Node000001_Node000002"><a xlink:title=" ">
<path fill="none" stroke="#63b8ff" d="M127.67,-144.52C150.21,-155.16 178.44,-168.16 204,-179 207.58,-180.52 211.28,-182.05 215.02,-183.58"/>
<polygon fill="#63b8ff" stroke="#63b8ff" points="213.77,-186.85 224.35,-187.34 216.39,-180.36 213.77,-186.85"/>
</a>
</g>
</g>
<!-- Node3 -->
<g id="Node000003" class="node">
<title>Node3</title>
<g id="a_Node000003"><a xlink:href="namespacepolyfem_1_1solver_1_1_adjoint_tools.html#a181bba348fd19672c8f65e8153224407" target="_top" xlink:title=" ">
<polygon fill="white" stroke="#666666" points="352.5,-169.5 207.5,-169.5 207.5,-128.5 352.5,-128.5 352.5,-169.5"/>
<text text-anchor="start" x="215.5" y="-157.5" font-family="Helvetica,sans-Serif" font-size="10.00">polyfem::solver::Adjoint</text>
<text text-anchor="start" x="215.5" y="-146.5" font-family="Helvetica,sans-Serif" font-size="10.00">Tools::dJ_friction_transient</text>
<text text-anchor="middle" x="280" y="-135.5" font-family="Helvetica,sans-Serif" font-size="10.00">_adjoint_term</text>
</a>
</g>
</g>
<!-- Node1&#45;&gt;Node3 -->
<g id="edge3_Node000001_Node000003" class="edge">
<title>Node1&#45;&gt;Node3</title>
<g id="a_edge3_Node000001_Node000003"><a xlink:title=" ">
<path fill="none" stroke="#63b8ff" d="M168.12,-134.71C177.81,-135.96 187.69,-137.23 197.37,-138.48"/>
<polygon fill="#63b8ff" stroke="#63b8ff" points="196.99,-141.96 207.36,-139.77 197.88,-135.02 196.99,-141.96"/>
</a>
</g>
</g>
<!-- Node18 -->
<g id="Node000018" class="node">
<title>Node18</title>
<g id="a_Node000018"><a xlink:href="namespacepolyfem.html#a92bdeb618e4a9d898e4787139b82fe3b" target="_top" xlink:title="Get adjoint parameter nu or p.">
<polygon fill="white" stroke="#666666" points="351.5,-88.5 208.5,-88.5 208.5,-69.5 351.5,-69.5 351.5,-88.5"/>
<text text-anchor="middle" x="280" y="-76.5" font-family="Helvetica,sans-Serif" font-size="10.00">polyfem::get_adjoint_mat</text>
</a>
</g>
</g>
<!-- Node1&#45;&gt;Node18 -->
<g id="edge23_Node000001_Node000018" class="edge">
<title>Node1&#45;&gt;Node18</title>
<g id="a_edge23_Node000001_Node000018"><a xlink:title=" ">
<path fill="none" stroke="#63b8ff" d="M168.12,-104.72C188.51,-99.99 209.74,-95.07 228.09,-90.81"/>
<polygon fill="#63b8ff" stroke="#63b8ff" points="229.02,-94.19 237.97,-88.52 227.44,-87.37 229.02,-94.19"/>
</a>
</g>
</g>
<!-- Node20 -->
<g id="Node000020" class="node">
<title>Node20</title>
<g id="a_Node000020"><a xlink:href="classpolyfem_1_1solver_1_1_friction_variable_to_simulation.html#a873a0623469ef60dd2d075d389a6df02" target="_top" xlink:title=" ">
<polygon fill="white" stroke="#666666" points="353.5,-51.5 206.5,-51.5 206.5,-10.5 353.5,-10.5 353.5,-51.5"/>
<text text-anchor="start" x="214.5" y="-39.5" font-family="Helvetica,sans-Serif" font-size="10.00">polyfem::solver::Friction</text>
<text text-anchor="start" x="214.5" y="-28.5" font-family="Helvetica,sans-Serif" font-size="10.00">VariableToSimulation::para</text>
<text text-anchor="middle" x="280" y="-17.5" font-family="Helvetica,sans-Serif" font-size="10.00">_out_dof</text>
</a>
</g>
</g>
<!-- Node1&#45;&gt;Node20 -->
<g id="edge26_Node000001_Node000020" class="edge">
<title>Node1&#45;&gt;Node20</title>
<g id="a_edge26_Node000001_Node000020"><a xlink:title=" ">
<path fill="none" stroke="#63b8ff" d="M120.34,-103.49C143.71,-90.31 175.23,-73.24 204,-60 207.3,-58.48 210.71,-56.97 214.16,-55.48"/>
<polygon fill="#63b8ff" stroke="#63b8ff" points="215.52,-58.71 223.38,-51.61 212.81,-52.26 215.52,-58.71"/>
</a>
</g>
</g>
<!-- Node2&#45;&gt;Node2 -->
<g id="edge2_Node000002_Node000002" class="edge">
<title>Node2&#45;&gt;Node2</title>
<g id="a_edge2_Node000002_Node000002"><a xlink:title=" ">
<path fill="none" stroke="#63b8ff" d="M246.92,-228.6C243.31,-238.15 254.34,-246.5 280,-246.5 296.04,-246.5 306.36,-243.24 310.97,-238.46"/>
<polygon fill="#63b8ff" stroke="#63b8ff" points="314.41,-239.11 313.08,-228.6 307.56,-237.64 314.41,-239.11"/>
</a>
</g>
</g>
<!-- Node4 -->
<g id="Node000004" class="node">
<title>Node4</title>
<g id="a_Node000004"><a xlink:href="classpolyfem_1_1_diff_cache.html#a74e38bb1b23e2e8eb8b4ca740f8984b3" target="_top" xlink:title=" ">
<polygon fill="white" stroke="#666666" points="522,-260 399,-260 399,-230 522,-230 522,-260"/>
<text text-anchor="start" x="407" y="-248" font-family="Helvetica,sans-Serif" font-size="10.00">polyfem::DiffCache</text>
<text text-anchor="middle" x="460.5" y="-237" font-family="Helvetica,sans-Serif" font-size="10.00">::friction_collision_set</text>
</a>
</g>
</g>
<!-- Node3&#45;&gt;Node4 -->
<g id="edge4_Node000003_Node000004" class="edge">
<title>Node3&#45;&gt;Node4</title>
<g id="a_edge4_Node000003_Node000004"><a xlink:title=" ">
<path fill="none" stroke="#63b8ff" d="M340.57,-169.65C345.97,-172.46 351.21,-175.57 356,-179 375.99,-193.31 371.74,-207.08 392,-221 394.15,-222.48 396.41,-223.88 398.73,-225.2"/>
<polygon fill="#63b8ff" stroke="#63b8ff" points="397.48,-228.49 407.97,-229.91 400.66,-222.25 397.48,-228.49"/>
</a>
</g>
</g>
<!-- Node6 -->
<g id="Node000006" class="node">
<title>Node6</title>
<g id="a_Node000006"><a xlink:href="classpolyfem_1_1_state.html#a8c693a6c854bcd6e5ac6f86070506e64" target="_top" xlink:title="Load or compute the initial acceleration.">
<polygon fill="white" stroke="#666666" points="521.5,-164 399.5,-164 399.5,-134 521.5,-134 521.5,-164"/>
<text text-anchor="start" x="407.5" y="-152" font-family="Helvetica,sans-Serif" font-size="10.00">polyfem::State::initial</text>
<text text-anchor="middle" x="460.5" y="-141" font-family="Helvetica,sans-Serif" font-size="10.00">_acceleration</text>
</a>
</g>
</g>
<!-- Node3&#45;&gt;Node6 -->
<g id="edge6_Node000003_Node000006" class="edge">
<title>Node3&#45;&gt;Node6</title>
<g id="a_edge6_Node000003_Node000006"><a xlink:title=" ">
<path fill="none" stroke="#63b8ff" d="M352.57,-149C364.7,-149 377.28,-149 389.36,-149"/>
<polygon fill="#63b8ff" stroke="#63b8ff" points="389.38,-152.5 399.38,-149 389.38,-145.5 389.38,-152.5"/>
</a>
</g>
</g>
<!-- Node15 -->
<g id="Node000015" class="node">
<title>Node15</title>
<g id="a_Node000015"><a xlink:href="classpolyfem_1_1_state.html#a23c0eec394a4fd54bc45a1119b51e84f" target="_top" xlink:title="Load or compute the initial velocity.">
<polygon fill="white" stroke="#666666" points="521.5,-212 399.5,-212 399.5,-182 521.5,-182 521.5,-212"/>
<text text-anchor="start" x="407.5" y="-200" font-family="Helvetica,sans-Serif" font-size="10.00">polyfem::State::initial</text>
<text text-anchor="middle" x="460.5" y="-189" font-family="Helvetica,sans-Serif" font-size="10.00">_velocity</text>
</a>
</g>
</g>
<!-- Node3&#45;&gt;Node15 -->
<g id="edge15_Node000003_Node000015" class="edge">
<title>Node3&#45;&gt;Node15</title>
<g id="a_edge15_Node000003_Node000015"><a xlink:title=" ">
<path fill="none" stroke="#63b8ff" d="M352.57,-168.25C366.1,-171.88 380.19,-175.67 393.53,-179.26"/>
<polygon fill="#63b8ff" stroke="#63b8ff" points="393,-182.74 403.57,-181.96 394.82,-175.98 393,-182.74"/>
</a>
</g>
</g>
<!-- Node16 -->
<g id="Node000016" class="node">
<title>Node16</title>
<g id="a_Node000016"><a xlink:href="classpolyfem_1_1_initial_condition_override.html#ab1ecf34c02364779b2cfc1ee3b89dd6d" target="_top" xlink:title="Returns true when no quantity is overridden.">
<polygon fill="white" stroke="#666666" points="529,-116 392,-116 392,-86 529,-86 529,-116"/>
<text text-anchor="start" x="400" y="-104" font-family="Helvetica,sans-Serif" font-size="10.00">polyfem::InitialCondition</text>
<text text-anchor="middle" x="460.5" y="-93" font-family="Helvetica,sans-Serif" font-size="10.00">Override::is_empty</text>
</a>
</g>
</g>
<!-- Node3&#45;&gt;Node16 -->
<g id="edge20_Node000003_Node000016" class="edge">
<title>Node3&#45;&gt;Node16</title>
<g id="a_edge20_Node000003_Node000016"><a xlink:title=" ">
<path fill="none" stroke="#63b8ff" d="M352.57,-129.75C366.1,-126.12 380.19,-122.33 393.53,-118.74"/>
<polygon fill="#63b8ff" stroke="#63b8ff" points="394.82,-122.02 403.57,-116.04 393,-115.26 394.82,-122.02"/>
</a>
</g>
</g>
<!-- Node17 -->
<g id="Node000017" class="node">
<title>Node17</title>
<g id="a_Node000017"><a xlink:href="classpolyfem_1_1_diff_cache.html#ae435a8a411044eed52863349c48200c6" target="_top" xlink:title=" ">
<polygon fill="white" stroke="#666666" points="521.5,-297.5 399.5,-297.5 399.5,-278.5 521.5,-278.5 521.5,-297.5"/>
<text text-anchor="middle" x="460.5" y="-285.5" font-family="Helvetica,sans-Serif" font-size="10.00">polyfem::DiffCache::u</text>
</a>
</g>
</g>
<!-- Node3&#45;&gt;Node17 -->
<g id="edge21_Node000003_Node000017" class="edge">
<title>Node3&#45;&gt;Node17</title>
<g id="a_edge21_Node000003_Node000017"><a xlink:title=" ">
<path fill="none" stroke="#63b8ff" d="M344.42,-169.71C348.61,-172.45 352.53,-175.53 356,-179 386.46,-209.46 359.96,-240.2 392,-269 393.77,-270.59 395.65,-272.04 397.64,-273.38"/>
<polygon fill="#63b8ff" stroke="#63b8ff" points="396.39,-276.69 406.84,-278.49 399.79,-270.57 396.39,-276.69"/>
</a>
</g>
</g>
<!-- Node5 -->
<g id="Node000005" class="node">
<title>Node5</title>
<g id="a_Node000005"><a xlink:href="classpolyfem_1_1_diff_cache.html#a1e6bc7e6f43aa2345c444fd4cd69865f" target="_top" xlink:title=" ">
<polygon fill="white" stroke="#666666" points="687,-298 577,-298 577,-268 687,-268 687,-298"/>
<text text-anchor="start" x="585" y="-286" font-family="Helvetica,sans-Serif" font-size="10.00">polyfem::DiffCache</text>
<text text-anchor="middle" x="632" y="-275" font-family="Helvetica,sans-Serif" font-size="10.00">::size</text>
</a>
</g>
</g>
<!-- Node4&#45;&gt;Node5 -->
<g id="edge5_Node000004_Node000005" class="edge">
<title>Node4&#45;&gt;Node5</title>
<g id="a_edge5_Node000004_Node000005"><a xlink:title=" ">
<path fill="none" stroke="#63b8ff" d="M522.21,-258.61C536.72,-261.86 552.26,-265.35 566.92,-268.63"/>
<polygon fill="#63b8ff" stroke="#63b8ff" points="566.38,-272.1 576.9,-270.87 567.91,-265.27 566.38,-272.1"/>
</a>
</g>
</g>
<!-- Node7 -->
<g id="Node000007" class="node">
<title>Node7</title>
<g id="a_Node000007"><a xlink:href="namespacepolyfem.html#a8d6eb2c01f97c327e382b6dcda332777" target="_top" xlink:title=" ">
<polygon fill="white" stroke="#666666" points="699,-121 565,-121 565,-91 699,-91 699,-121"/>
<text text-anchor="start" x="573" y="-109" font-family="Helvetica,sans-Serif" font-size="10.00">polyfem::log_and_throw</text>
<text text-anchor="middle" x="632" y="-98" font-family="Helvetica,sans-Serif" font-size="10.00">_adjoint_error</text>
</a>
</g>
</g>
<!-- Node6&#45;&gt;Node7 -->
<g id="edge7_Node000006_Node000007" class="edge">
<title>Node6&#45;&gt;Node7</title>
<g id="a_edge7_Node000006_Node000007"><a xlink:title=" ">
<path fill="none" stroke="#63b8ff" d="M520.78,-133.96C534.07,-130.59 548.28,-126.98 561.93,-123.52"/>
<polygon fill="#63b8ff" stroke="#63b8ff" points="562.92,-126.88 571.75,-121.03 561.2,-120.1 562.92,-126.88"/>
</a>
</g>
</g>
<!-- Node9 -->
<g id="Node000009" class="node">
<title>Node9</title>
<g id="a_Node000009"><a xlink:href="namespacepolyfem.html#a03f3d75072d2fd19f70cd886a51d10dd" target="_top" xlink:title="Retrieves the current logger.">
<polygon fill="white" stroke="#666666" points="679,-158.5 585,-158.5 585,-139.5 679,-139.5 679,-158.5"/>
<text text-anchor="middle" x="632" y="-146.5" font-family="Helvetica,sans-Serif" font-size="10.00">polyfem::logger</text>
</a>
</g>
</g>
<!-- Node6&#45;&gt;Node9 -->
<g id="edge9_Node000006_Node000009" class="edge">
<title>Node6&#45;&gt;Node9</title>
<g id="a_edge9_Node000006_Node000009"><a xlink:title=" ">
<path fill="none" stroke="#63b8ff" d="M521.74,-149C538.92,-149 557.56,-149 574.51,-149"/>
<polygon fill="#63b8ff" stroke="#63b8ff" points="574.81,-152.5 584.81,-149 574.81,-145.5 574.81,-152.5"/>
</a>
</g>
</g>
<!-- Node10 -->
<g id="Node000010" class="node">
<title>Node10</title>
<g id="a_Node000010"><a xlink:href="classpolyfem_1_1_state.html#acbf1bd51beeb042d38c595223fe348a5" target="_top" xlink:title=" ">
<polygon fill="white" stroke="#666666" points="690,-244.5 574,-244.5 574,-225.5 690,-225.5 690,-244.5"/>
<text text-anchor="middle" x="632" y="-232.5" font-family="Helvetica,sans-Serif" font-size="10.00">polyfem::State::ndof</text>
</a>
</g>
</g>
<!-- Node6&#45;&gt;Node10 -->
<g id="edge10_Node000006_Node000010" class="edge">
<title>Node6&#45;&gt;Node10</title>
<g id="a_edge10_Node000006_Node000010"><a xlink:title=" ">
<path fill="none" stroke="#63b8ff" d="M513.06,-164.03C518.66,-166.62 524.1,-169.59 529,-173 549.46,-187.23 544.11,-202.4 565,-216 568.13,-218.04 571.49,-219.86 574.96,-221.5"/>
<polygon fill="#63b8ff" stroke="#63b8ff" points="573.8,-224.8 584.38,-225.38 576.47,-218.33 573.8,-224.8"/>
</a>
</g>
</g>
<!-- Node11 -->
<g id="Node000011" class="node">
<title>Node11</title>
<g id="a_Node000011"><a xlink:href="classpolyfem_1_1_state.html#acfcd600796cd24e1555454a1d31f2fc2" target="_top" xlink:title="Resolve input path relative to root_path() if the path is not absolute.">
<polygon fill="white" stroke="#666666" points="697.5,-207 566.5,-207 566.5,-177 697.5,-177 697.5,-207"/>
<text text-anchor="start" x="574.5" y="-195" font-family="Helvetica,sans-Serif" font-size="10.00">polyfem::State::resolve</text>
<text text-anchor="middle" x="632" y="-184" font-family="Helvetica,sans-Serif" font-size="10.00">_input_path</text>
</a>
</g>
</g>
<!-- Node6&#45;&gt;Node11 -->
<g id="edge11_Node000006_Node000011" class="edge">
<title>Node6&#45;&gt;Node11</title>
<g id="a_edge11_Node000006_Node000011"><a xlink:title=" ">
<path fill="none" stroke="#63b8ff" d="M520.78,-164.04C534.07,-167.41 548.28,-171.02 561.93,-174.48"/>
<polygon fill="#63b8ff" stroke="#63b8ff" points="561.2,-177.9 571.75,-176.97 562.92,-171.12 561.2,-177.9"/>
</a>
</g>
</g>
<!-- Node8 -->
<g id="Node000008" class="node">
<title>Node8</title>
<g id="a_Node000008"><a xlink:href="namespacepolyfem.html#a4d64be939c7759c782fff98ed87f3399" target="_top" xlink:title="Retrieves the current logger for adjoint.">
<polygon fill="white" stroke="#666666" points="878,-115.5 745,-115.5 745,-96.5 878,-96.5 878,-115.5"/>
<text text-anchor="middle" x="811.5" y="-103.5" font-family="Helvetica,sans-Serif" font-size="10.00">polyfem::adjoint_logger</text>
</a>
</g>
</g>
<!-- Node7&#45;&gt;Node8 -->
<g id="edge8_Node000007_Node000008" class="edge">
<title>Node7&#45;&gt;Node8</title>
<g id="a_edge8_Node000007_Node000008"><a xlink:title=" ">
<path fill="none" stroke="#63b8ff" d="M699.09,-106C710.68,-106 722.82,-106 734.65,-106"/>
<polygon fill="#63b8ff" stroke="#63b8ff" points="734.94,-109.5 744.94,-106 734.94,-102.5 734.94,-109.5"/>
</a>
</g>
</g>
<!-- Node12 -->
<g id="Node000012" class="node">
<title>Node12</title>
<g id="a_Node000012"><a xlink:href="namespacepolyfem_1_1utils.html#a4dc2e59d21d66809d2273ae115be0b73" target="_top" xlink:title=" ">
<polygon fill="white" stroke="#666666" points="888,-182.5 735,-182.5 735,-163.5 888,-163.5 888,-182.5"/>
<text text-anchor="middle" x="811.5" y="-170.5" font-family="Helvetica,sans-Serif" font-size="10.00">polyfem::utils::resolve_path</text>
</a>
</g>
</g>
<!-- Node11&#45;&gt;Node12 -->
<g id="edge12_Node000011_Node000012" class="edge">
<title>Node11&#45;&gt;Node12</title>
<g id="a_edge12_Node000011_Node000012"><a xlink:title=" ">
<path fill="none" stroke="#63b8ff" d="M697.58,-185.09C706.37,-184.15 715.5,-183.17 724.59,-182.2"/>
<polygon fill="#63b8ff" stroke="#63b8ff" points="725.24,-185.65 734.81,-181.1 724.5,-178.69 725.24,-185.65"/>
</a>
</g>
</g>
<!-- Node13 -->
<g id="Node000013" class="node">
<title>Node13</title>
<g id="a_Node000013"><a xlink:href="classpolyfem_1_1_state.html#a18c94c14eb94feb4a1f82cf8d053b97f" target="_top" xlink:title="Get the root path for the state (e.g., args[&quot;root_path&quot;] or &quot;.&quot;)">
<polygon fill="white" stroke="#666666" points="882,-219.5 741,-219.5 741,-200.5 882,-200.5 882,-219.5"/>
<text text-anchor="middle" x="811.5" y="-207.5" font-family="Helvetica,sans-Serif" font-size="10.00">polyfem::State::root_path</text>
</a>
</g>
</g>
<!-- Node11&#45;&gt;Node13 -->
<g id="edge13_Node000011_Node000013" class="edge">
<title>Node11&#45;&gt;Node13</title>
<g id="a_edge13_Node000011_Node000013"><a xlink:title=" ">
<path fill="none" stroke="#63b8ff" d="M697.58,-198.55C708.36,-199.64 719.65,-200.79 730.75,-201.91"/>
<polygon fill="#63b8ff" stroke="#63b8ff" points="730.57,-205.41 740.87,-202.94 731.28,-198.45 730.57,-205.41"/>
</a>
</g>
</g>
<!-- Node14 -->
<g id="Node000014" class="node">
<title>Node14</title>
<g id="a_Node000014"><a xlink:href="namespacepolyfem_1_1utils.html#aa57e548cd0726262758fcc6b16fe0b0a" target="_top" xlink:title="Determine if a key exists and is non&#45;null in a json object.">
<polygon fill="white" stroke="#666666" points="1022,-225 924,-225 924,-195 1022,-195 1022,-225"/>
<text text-anchor="start" x="932" y="-213" font-family="Helvetica,sans-Serif" font-size="10.00">polyfem::utils::is</text>
<text text-anchor="middle" x="973" y="-202" font-family="Helvetica,sans-Serif" font-size="10.00">_param_valid</text>
</a>
</g>
</g>
<!-- Node13&#45;&gt;Node14 -->
<g id="edge14_Node000013_Node000014" class="edge">
<title>Node13&#45;&gt;Node14</title>
<g id="a_edge14_Node000013_Node000014"><a xlink:title=" ">
<path fill="none" stroke="#63b8ff" d="M882.46,-210C892.77,-210 903.31,-210 913.36,-210"/>
<polygon fill="#63b8ff" stroke="#63b8ff" points="913.63,-213.5 923.63,-210 913.63,-206.5 913.63,-213.5"/>
</a>
</g>
</g>
<!-- Node15&#45;&gt;Node7 -->
<g id="edge16_Node000015_Node000007" class="edge">
<title>Node15&#45;&gt;Node7</title>
<g id="a_edge16_Node000015_Node000007"><a xlink:title=" ">
<path fill="none" stroke="#63b8ff" d="M513.06,-181.97C518.66,-179.38 524.1,-176.41 529,-173 549.46,-158.77 544.59,-144.3 565,-130 567.1,-128.53 569.29,-127.14 571.56,-125.83"/>
<polygon fill="#63b8ff" stroke="#63b8ff" points="573.33,-128.85 580.58,-121.13 570.1,-122.64 573.33,-128.85"/>
</a>
</g>
</g>
<!-- Node15&#45;&gt;Node9 -->
<g id="edge17_Node000015_Node000009" class="edge">
<title>Node15&#45;&gt;Node9</title>
<g id="a_edge17_Node000015_Node000009"><a xlink:title=" ">
<path fill="none" stroke="#63b8ff" d="M514.67,-181.94C538.07,-175.32 565.23,-167.63 587.41,-161.34"/>
<polygon fill="#63b8ff" stroke="#63b8ff" points="588.56,-164.66 597.23,-158.56 586.65,-157.92 588.56,-164.66"/>
</a>
</g>
</g>
<!-- Node15&#45;&gt;Node10 -->
<g id="edge18_Node000015_Node000010" class="edge">
<title>Node15&#45;&gt;Node10</title>
<g id="a_edge18_Node000015_Node000010"><a xlink:title=" ">
<path fill="none" stroke="#63b8ff" d="M521.74,-210.5C540.36,-214.68 560.72,-219.24 578.76,-223.29"/>
<polygon fill="#63b8ff" stroke="#63b8ff" points="577.99,-226.7 588.52,-225.48 579.52,-219.87 577.99,-226.7"/>
</a>
</g>
</g>
<!-- Node15&#45;&gt;Node11 -->
<g id="edge19_Node000015_Node000011" class="edge">
<title>Node15&#45;&gt;Node11</title>
<g id="a_edge19_Node000015_Node000011"><a xlink:title=" ">
<path fill="none" stroke="#63b8ff" d="M521.74,-195.22C532.92,-194.89 544.73,-194.54 556.29,-194.2"/>
<polygon fill="#63b8ff" stroke="#63b8ff" points="556.47,-197.7 566.36,-193.91 556.26,-190.7 556.47,-197.7"/>
</a>
</g>
</g>
<!-- Node17&#45;&gt;Node5 -->
<g id="edge22_Node000017_Node000005" class="edge">
<title>Node17&#45;&gt;Node5</title>
<g id="a_edge22_Node000017_Node000005"><a xlink:title=" ">
<path fill="none" stroke="#63b8ff" d="M521.74,-286.22C536.35,-285.79 552.02,-285.33 566.81,-284.89"/>
<polygon fill="#63b8ff" stroke="#63b8ff" points="566.99,-288.39 576.88,-284.6 566.78,-281.39 566.99,-288.39"/>
</a>
</g>
</g>
<!-- Node18&#45;&gt;Node7 -->
<g id="edge25_Node000018_Node000007" class="edge">
<title>Node18&#45;&gt;Node7</title>
<g id="a_edge25_Node000018_Node000007"><a xlink:title=" ">
<path fill="none" stroke="#63b8ff" d="M351.64,-72.97C401.46,-70.04 469.62,-68.72 529,-77 545.15,-79.25 562.34,-83.42 577.92,-87.9"/>
<polygon fill="#63b8ff" stroke="#63b8ff" points="577.31,-91.37 587.89,-90.88 579.31,-84.67 577.31,-91.37"/>
</a>
</g>
</g>
<!-- Node19 -->
<g id="Node000019" class="node">
<title>Node19</title>
<g id="a_Node000019"><a xlink:href="classpolyfem_1_1_diff_cache.html#a77ea382b8c9e2d37150e221f755e6ed5" target="_top" xlink:title=" ">
<polygon fill="white" stroke="#666666" points="515.5,-30 405.5,-30 405.5,0 515.5,0 515.5,-30"/>
<text text-anchor="start" x="413.5" y="-18" font-family="Helvetica,sans-Serif" font-size="10.00">polyfem::DiffCache</text>
<text text-anchor="middle" x="460.5" y="-7" font-family="Helvetica,sans-Serif" font-size="10.00">::adjoint_mat</text>
</a>
</g>
</g>
<!-- Node18&#45;&gt;Node19 -->
<g id="edge24_Node000018_Node000019" class="edge">
<title>Node18&#45;&gt;Node19</title>
<g id="a_edge24_Node000018_Node000019"><a xlink:title=" ">
<path fill="none" stroke="#63b8ff" d="M323.81,-69.49C334.43,-66.77 345.72,-63.56 356,-60 372.55,-54.27 375.96,-51.01 392,-44 399.31,-40.8 407.09,-37.44 414.65,-34.17"/>
<polygon fill="#63b8ff" stroke="#63b8ff" points="416.28,-37.29 424.08,-30.12 413.51,-30.86 416.28,-37.29"/>
</a>
</g>
</g>
</g>
</svg>

<g id="navigator" transform="translate(0 0)" fill="#404254">
  <rect fill="#f2f5e9" fill-opacity="0.5" stroke="#606060" stroke-width=".5" x="0" y="0" width="60" height="60"/>
  <use id="zoomplus" xlink:href="#zoomPlus" x="17" y="9" onmousedown="handleZoom(evt,'in')"/>
  <use id="zoomminus" xlink:href="#zoomMin" x="42" y="9" onmousedown="handleZoom(evt,'out')"/>
  <use id="reset" xlink:href="#resetDef" x="30" y="36" onmousedown="handleReset()"/>
   <use id="arrowup" xlink:href="#arrowUp" x="0" y="0" onmousedown="handlePan(0,-1)"/>
  <use id="arrowright" xlink:href="#arrowRight" x="0" y="0" onmousedown="handlePan(1,0)"/>
  <use id="arrowdown" xlink:href="#arrowDown" x="0" y="0" onmousedown="handlePan(0,1)"/>
  <use id="arrowleft" xlink:href="#arrowLeft" x="0" y="0" onmousedown="handlePan(-1,0)"/>
</g>
<svg viewBox="0 0 15 15" width="100%" height="30px" preserveAspectRatio="xMaxYMin meet">
 <g id="arrow_out" transform="scale(0.3 0.3)">
  <a xlink:href="classpolyfem_1_1solver_1_1_friction_variable_to_simulation_a10b492083529412dfc645e3cf450cf92_cgraph_org.svg" target="_base">
   <rect id="button" ry="5" rx="5" y="6" x="6" height="38" width="38"
        fill="#f2f5e9" fill-opacity="0.5" stroke="#606060" stroke-width="1.0"/>
   <path id="arrow"
     d="M 11.500037,31.436501 C 11.940474,20.09759 22.043105,11.32322 32.158766,21.979434 L 37.068811,17.246167 C 37.068811,17.246167 37.088388,32 37.088388,32 L 22.160133,31.978069 C 22.160133,31.978069 26.997745,27.140456 26.997745,27.140456 C 18.528582,18.264221 13.291696,25.230495 11.500037,31.436501 z"
     style="fill:#404040;"/>
  </a>
 </g>
</svg>

<style type='text/css'>
<![CDATA[
[data-mouse-over-selected='false'] { opacity: 0.7; }
[data-mouse-over-selected='true']  { opacity: 1.0; }
]]>
</style>
<script type="application/ecmascript"><![CDATA[
document.addEventListener('DOMContentLoaded', (event) => {
  highlightEdges();
  highlightAdjacentNodes();
});
]]></script>
</svg>
