<?xml version="1.0" encoding="UTF-8" standalone="no"?>
<!DOCTYPE svg PUBLIC "-//W3C//DTD SVG 1.1//EN"
 "http://www.w3.org/Graphics/SVG/1.1/DTD/svg11.dtd">
<!-- Generated by graphviz version 2.43.0 (0)
 -->
<!-- Title: polyfem::solver::OperatorSplittingSolver::advection_FLIP Pages: 1 -->
<svg width="1508pt" height="189pt"
 viewBox="0.00 0.00 1508.00 189.00" xmlns="http://www.w3.org/2000/svg" xmlns:xlink="http://www.w3.org/1999/xlink">
<g id="graph0" class="graph" transform="scale(1 1) rotate(0) translate(4 185)">
<title>polyfem::solver::OperatorSplittingSolver::advection_FLIP</title>
<!-- Node1 -->
<g id="node1" class="node">
<title>Node1</title>
<g id="a_node1"><a xlink:title=" ">
<polygon fill="#999999" stroke="#666666" points="167,-149 0,-149 0,-119 167,-119 167,-149"/>
<text text-anchor="start" x="8" y="-137" font-family="Helvetica,sans-Serif" font-size="10.00">polyfem::solver::Operator</text>
<text text-anchor="middle" x="83.5" y="-126" font-family="Helvetica,sans-Serif" font-size="10.00">SplittingSolver::advection_FLIP</text>
</a>
</g>
</g>
<!-- Node2 -->
<g id="node2" class="node">
<title>Node2</title>
<g id="a_node2"><a xlink:href="classpolyfem_1_1solver_1_1_operator_splitting_solver.html#acb209fc33bfb84395220cc09de3f70c4" target="_top" xlink:title=" ">
<polygon fill="white" stroke="#666666" points="900,-138.5 758,-138.5 758,-97.5 900,-97.5 900,-138.5"/>
<text text-anchor="start" x="766" y="-126.5" font-family="Helvetica,sans-Serif" font-size="10.00">polyfem::solver::Operator</text>
<text text-anchor="start" x="766" y="-115.5" font-family="Helvetica,sans-Serif" font-size="10.00">SplittingSolver::calculate</text>
<text text-anchor="middle" x="829" y="-104.5" font-family="Helvetica,sans-Serif" font-size="10.00">_local_pts</text>
</a>
</g>
</g>
<!-- Node1&#45;&gt;Node2 -->
<g id="edge1" class="edge">
<title>Node1&#45;&gt;Node2</title>
<path fill="none" stroke="#63b8ff" d="M167.05,-136.36C179.11,-136.62 191.37,-136.85 203,-137 268.33,-137.83 284.68,-138.3 350,-137 490,-134.22 652.93,-126.86 747.86,-122.16"/>
<polygon fill="#63b8ff" stroke="#63b8ff" points="748.15,-125.65 757.96,-121.66 747.8,-118.66 748.15,-125.65"/>
</g>
<!-- Node10 -->
<g id="node10" class="node">
<title>Node10</title>
<g id="a_node10"><a xlink:href="classpolyfem_1_1solver_1_1_operator_splitting_solver.html#a9f658978496f29a7c323ea19e8740dcc" target="_top" xlink:title=" ">
<polygon fill="white" stroke="#666666" points="350,-128 203,-128 203,-98 350,-98 350,-128"/>
<text text-anchor="start" x="211" y="-116" font-family="Helvetica,sans-Serif" font-size="10.00">polyfem::solver::Operator</text>
<text text-anchor="middle" x="276.5" y="-105" font-family="Helvetica,sans-Serif" font-size="10.00">SplittingSolver::trace_back</text>
</a>
</g>
</g>
<!-- Node1&#45;&gt;Node10 -->
<g id="edge10" class="edge">
<title>Node1&#45;&gt;Node10</title>
<path fill="none" stroke="#63b8ff" d="M167.16,-124.91C175.72,-123.97 184.41,-123.02 192.96,-122.08"/>
<polygon fill="#63b8ff" stroke="#63b8ff" points="193.35,-125.55 202.91,-120.98 192.59,-118.6 193.35,-125.55"/>
</g>
<!-- Node3 -->
<g id="node3" class="node">
<title>Node3</title>
<g id="a_node3"><a xlink:href="classpolyfem_1_1basis_1_1_element_bases.html#a47d52083f050e4cb34eeab5656a86523" target="_top" xlink:title="Map the sample positions in the parametric domain to the object domain (if the element has no paramet...">
<polygon fill="white" stroke="#666666" points="1100,-157 936,-157 936,-127 1100,-127 1100,-157"/>
<text text-anchor="start" x="944" y="-145" font-family="Helvetica,sans-Serif" font-size="10.00">polyfem::basis::ElementBases</text>
<text text-anchor="middle" x="1018" y="-134" font-family="Helvetica,sans-Serif" font-size="10.00">::eval_geom_mapping</text>
</a>
</g>
</g>
<!-- Node2&#45;&gt;Node3 -->
<g id="edge2" class="edge">
<title>Node2&#45;&gt;Node3</title>
<path fill="none" stroke="#63b8ff" d="M900.16,-127C908.51,-128.08 917.11,-129.18 925.7,-130.28"/>
<polygon fill="#63b8ff" stroke="#63b8ff" points="925.38,-133.77 935.74,-131.57 926.27,-126.83 925.38,-133.77"/>
</g>
<!-- Node7 -->
<g id="node7" class="node">
<title>Node7</title>
<g id="a_node7"><a xlink:href="classpolyfem_1_1basis_1_1_element_bases.html#aa6ed093f463318ed61f89280cd7c2e55" target="_top" xlink:title="Evaluate the gradients of the geometric mapping defined above.">
<polygon fill="white" stroke="#666666" points="1100,-109 936,-109 936,-79 1100,-79 1100,-109"/>
<text text-anchor="start" x="944" y="-97" font-family="Helvetica,sans-Serif" font-size="10.00">polyfem::basis::ElementBases</text>
<text text-anchor="middle" x="1018" y="-86" font-family="Helvetica,sans-Serif" font-size="10.00">::eval_geom_mapping_grads</text>
</a>
</g>
</g>
<!-- Node2&#45;&gt;Node7 -->
<g id="edge6" class="edge">
<title>Node2&#45;&gt;Node7</title>
<path fill="none" stroke="#63b8ff" d="M900.16,-109C908.51,-107.92 917.11,-106.82 925.7,-105.72"/>
<polygon fill="#63b8ff" stroke="#63b8ff" points="926.27,-109.17 935.74,-104.43 925.38,-102.23 926.27,-109.17"/>
</g>
<!-- Node4 -->
<g id="node4" class="node">
<title>Node4</title>
<g id="a_node4"><a xlink:href="classpolyfem_1_1basis_1_1_element_bases.html#a6936d345f21ed506227618ef65dba6a6" target="_top" xlink:title=" ">
<polygon fill="white" stroke="#666666" points="1300,-181 1136,-181 1136,-151 1300,-151 1300,-181"/>
<text text-anchor="start" x="1144" y="-169" font-family="Helvetica,sans-Serif" font-size="10.00">polyfem::basis::ElementBases</text>
<text text-anchor="middle" x="1218" y="-158" font-family="Helvetica,sans-Serif" font-size="10.00">::evaluate_bases</text>
</a>
</g>
</g>
<!-- Node3&#45;&gt;Node4 -->
<g id="edge3" class="edge">
<title>Node3&#45;&gt;Node4</title>
<path fill="none" stroke="#63b8ff" d="M1100.11,-151.83C1108.55,-152.85 1117.17,-153.9 1125.72,-154.94"/>
<polygon fill="#63b8ff" stroke="#63b8ff" points="1125.35,-158.42 1135.7,-156.15 1126.19,-151.47 1125.35,-158.42"/>
</g>
<!-- Node6 -->
<g id="node6" class="node">
<title>Node6</title>
<g id="a_node6"><a xlink:href="classpolyfem_1_1basis_1_1_basis.html#a88b90af0c63d52f2c91fe97a63c540ce" target="_top" xlink:title=" ">
<polygon fill="white" stroke="#666666" points="1278.5,-133 1157.5,-133 1157.5,-103 1278.5,-103 1278.5,-133"/>
<text text-anchor="start" x="1165.5" y="-121" font-family="Helvetica,sans-Serif" font-size="10.00">polyfem::basis::Basis</text>
<text text-anchor="middle" x="1218" y="-110" font-family="Helvetica,sans-Serif" font-size="10.00">::global</text>
</a>
</g>
</g>
<!-- Node3&#45;&gt;Node6 -->
<g id="edge5" class="edge">
<title>Node3&#45;&gt;Node6</title>
<path fill="none" stroke="#63b8ff" d="M1100.11,-132.17C1115.64,-130.29 1131.78,-128.33 1146.93,-126.49"/>
<polygon fill="#63b8ff" stroke="#63b8ff" points="1147.73,-129.92 1157.24,-125.24 1146.89,-122.97 1147.73,-129.92"/>
</g>
<!-- Node5 -->
<g id="node5" class="node">
<title>Node5</title>
<g id="a_node5"><a xlink:href="classpolyfem_1_1basis_1_1_element_bases.html#a9d6e4fd2a6d6491fed600c2a26680d89" target="_top" xlink:title=" ">
<polygon fill="white" stroke="#666666" points="1500,-181 1336,-181 1336,-151 1500,-151 1500,-181"/>
<text text-anchor="start" x="1344" y="-169" font-family="Helvetica,sans-Serif" font-size="10.00">polyfem::basis::ElementBases</text>
<text text-anchor="middle" x="1418" y="-158" font-family="Helvetica,sans-Serif" font-size="10.00">::evaluate_bases_default</text>
</a>
</g>
</g>
<!-- Node4&#45;&gt;Node5 -->
<g id="edge4" class="edge">
<title>Node4&#45;&gt;Node5</title>
<path fill="none" stroke="#63b8ff" d="M1300.11,-166C1308.46,-166 1316.99,-166 1325.44,-166"/>
<polygon fill="#63b8ff" stroke="#63b8ff" points="1325.7,-169.5 1335.7,-166 1325.7,-162.5 1325.7,-169.5"/>
</g>
<!-- Node7&#45;&gt;Node6 -->
<g id="edge9" class="edge">
<title>Node7&#45;&gt;Node6</title>
<path fill="none" stroke="#63b8ff" d="M1100.11,-103.83C1115.64,-105.71 1131.78,-107.67 1146.93,-109.51"/>
<polygon fill="#63b8ff" stroke="#63b8ff" points="1146.89,-113.03 1157.24,-110.76 1147.73,-106.08 1146.89,-113.03"/>
</g>
<!-- Node8 -->
<g id="node8" class="node">
<title>Node8</title>
<g id="a_node8"><a xlink:href="classpolyfem_1_1basis_1_1_element_bases.html#a731d20029949bd0255c9af1f91dfa74c" target="_top" xlink:title=" ">
<polygon fill="white" stroke="#666666" points="1300,-85 1136,-85 1136,-55 1300,-55 1300,-85"/>
<text text-anchor="start" x="1144" y="-73" font-family="Helvetica,sans-Serif" font-size="10.00">polyfem::basis::ElementBases</text>
<text text-anchor="middle" x="1218" y="-62" font-family="Helvetica,sans-Serif" font-size="10.00">::evaluate_grads</text>
</a>
</g>
</g>
<!-- Node7&#45;&gt;Node8 -->
<g id="edge7" class="edge">
<title>Node7&#45;&gt;Node8</title>
<path fill="none" stroke="#63b8ff" d="M1100.11,-84.17C1108.55,-83.15 1117.17,-82.1 1125.72,-81.06"/>
<polygon fill="#63b8ff" stroke="#63b8ff" points="1126.19,-84.53 1135.7,-79.85 1125.35,-77.58 1126.19,-84.53"/>
</g>
<!-- Node9 -->
<g id="node9" class="node">
<title>Node9</title>
<g id="a_node9"><a xlink:href="classpolyfem_1_1basis_1_1_element_bases.html#aae3b739e75920739799e866e4b0c448c" target="_top" xlink:title=" ">
<polygon fill="white" stroke="#666666" points="1500,-85 1336,-85 1336,-55 1500,-55 1500,-85"/>
<text text-anchor="start" x="1344" y="-73" font-family="Helvetica,sans-Serif" font-size="10.00">polyfem::basis::ElementBases</text>
<text text-anchor="middle" x="1418" y="-62" font-family="Helvetica,sans-Serif" font-size="10.00">::evaluate_grads_default</text>
</a>
</g>
</g>
<!-- Node8&#45;&gt;Node9 -->
<g id="edge8" class="edge">
<title>Node8&#45;&gt;Node9</title>
<path fill="none" stroke="#63b8ff" d="M1300.11,-70C1308.46,-70 1316.99,-70 1325.44,-70"/>
<polygon fill="#63b8ff" stroke="#63b8ff" points="1325.7,-73.5 1335.7,-70 1325.7,-66.5 1325.7,-73.5"/>
</g>
<!-- Node11 -->
<g id="node11" class="node">
<title>Node11</title>
<g id="a_node11"><a xlink:href="classpolyfem_1_1solver_1_1_operator_splitting_solver.html#a42e37560b90067a4248d4398218fb982" target="_top" xlink:title=" ">
<polygon fill="white" stroke="#666666" points="537,-106 386,-106 386,-76 537,-76 537,-106"/>
<text text-anchor="start" x="394" y="-94" font-family="Helvetica,sans-Serif" font-size="10.00">polyfem::solver::Operator</text>
<text text-anchor="middle" x="461.5" y="-83" font-family="Helvetica,sans-Serif" font-size="10.00">SplittingSolver::interpolator</text>
</a>
</g>
</g>
<!-- Node10&#45;&gt;Node11 -->
<g id="edge11" class="edge">
<title>Node10&#45;&gt;Node11</title>
<path fill="none" stroke="#63b8ff" d="M350.09,-104.27C358.55,-103.26 367.24,-102.21 375.85,-101.18"/>
<polygon fill="#63b8ff" stroke="#63b8ff" points="376.39,-104.64 385.9,-99.97 375.55,-97.69 376.39,-104.64"/>
</g>
<!-- Node11&#45;&gt;Node2 -->
<g id="edge12" class="edge">
<title>Node11&#45;&gt;Node2</title>
<path fill="none" stroke="#63b8ff" d="M537.35,-96.53C598.58,-101.05 684.99,-107.44 747.66,-112.07"/>
<polygon fill="#63b8ff" stroke="#63b8ff" points="747.67,-115.58 757.9,-112.82 748.19,-108.59 747.67,-115.58"/>
</g>
<!-- Node12 -->
<g id="node12" class="node">
<title>Node12</title>
<g id="a_node12"><a xlink:href="classpolyfem_1_1solver_1_1_operator_splitting_solver.html#adb02070fcb475145b61bb691fa8227f4" target="_top" xlink:title=" ">
<polygon fill="white" stroke="#666666" points="718.5,-89.5 576.5,-89.5 576.5,-48.5 718.5,-48.5 718.5,-89.5"/>
<text text-anchor="start" x="584.5" y="-77.5" font-family="Helvetica,sans-Serif" font-size="10.00">polyfem::solver::Operator</text>
<text text-anchor="start" x="584.5" y="-66.5" font-family="Helvetica,sans-Serif" font-size="10.00">SplittingSolver::handle</text>
<text text-anchor="middle" x="647.5" y="-55.5" font-family="Helvetica,sans-Serif" font-size="10.00">_boundary_advection</text>
</a>
</g>
</g>
<!-- Node11&#45;&gt;Node12 -->
<g id="edge13" class="edge">
<title>Node11&#45;&gt;Node12</title>
<path fill="none" stroke="#63b8ff" d="M537.07,-82.08C546.69,-80.93 556.56,-79.75 566.26,-78.59"/>
<polygon fill="#63b8ff" stroke="#63b8ff" points="566.77,-82.06 576.28,-77.4 565.94,-75.11 566.77,-82.06"/>
</g>
<!-- Node13 -->
<g id="node13" class="node">
<title>Node13</title>
<g id="a_node13"><a xlink:href="classpolyfem_1_1solver_1_1_operator_splitting_solver.html#a7bb48a9ac9ec047080babfc71238c5c8" target="_top" xlink:title=" ">
<polygon fill="white" stroke="#666666" points="722,-30 573,-30 573,0 722,0 722,-30"/>
<text text-anchor="start" x="581" y="-18" font-family="Helvetica,sans-Serif" font-size="10.00">polyfem::solver::Operator</text>
<text text-anchor="middle" x="647.5" y="-7" font-family="Helvetica,sans-Serif" font-size="10.00">SplittingSolver::search_cell</text>
</a>
</g>
</g>
<!-- Node11&#45;&gt;Node13 -->
<g id="edge14" class="edge">
<title>Node11&#45;&gt;Node13</title>
<path fill="none" stroke="#63b8ff" d="M492.07,-75.85C514.08,-64.89 545.02,-50.1 573,-39 577.79,-37.1 582.8,-35.23 587.85,-33.42"/>
<polygon fill="#63b8ff" stroke="#63b8ff" points="589.27,-36.63 597.57,-30.04 586.97,-30.02 589.27,-36.63"/>
</g>
<!-- Node13&#45;&gt;Node2 -->
<g id="edge15" class="edge">
<title>Node13&#45;&gt;Node2</title>
<path fill="none" stroke="#63b8ff" d="M701.55,-30.02C708.57,-32.67 715.56,-35.67 722,-39 749.35,-53.17 777.15,-74.19 797.41,-90.99"/>
<polygon fill="#63b8ff" stroke="#63b8ff" points="795.16,-93.67 805.07,-97.43 799.67,-88.31 795.16,-93.67"/>
</g>
</g>
</svg>
