<?xml version="1.0" encoding="UTF-8" standalone="no"?>
<!DOCTYPE svg PUBLIC "-//W3C//DTD SVG 1.1//EN"
 "http://www.w3.org/Graphics/SVG/1.1/DTD/svg11.dtd">
<!-- Generated by graphviz version 2.43.0 (0)
 -->
<!-- Title: polyfem::basis::LagrangeBasis2d::build_bases Pages: 1 -->
<svg width="750pt" height="172pt"
 viewBox="0.00 0.00 750.00 171.50" xmlns="http://www.w3.org/2000/svg" xmlns:xlink="http://www.w3.org/1999/xlink">
<g id="graph0" class="graph" transform="scale(1 1) rotate(0) translate(4 167.5)">
<title>polyfem::basis::LagrangeBasis2d::build_bases</title>
<!-- Node1 -->
<g id="Node000001" class="node">
<title>Node1</title>
<g id="a_Node000001"><a xlink:title="Builds FE basis functions over the entire mesh (P1, P2 over triangles, Q1, Q2 over quads).">
<polygon fill="#999999" stroke="#666666" points="742,-69.5 602,-69.5 602,-39.5 742,-39.5 742,-69.5"/>
<text text-anchor="start" x="610" y="-57.5" font-family="Helvetica,sans-Serif" font-size="10.00">polyfem::basis::Lagrange</text>
<text text-anchor="middle" x="672" y="-46.5" font-family="Helvetica,sans-Serif" font-size="10.00">Basis2d::build_bases</text>
</a>
</g>
</g>
<!-- Node2 -->
<g id="Node000002" class="node">
<title>Node2</title>
<g id="a_Node000002"><a xlink:href="classpolyfem_1_1mesh_1_1_remesher.html#a0713031d6ff8d707585b0b435633cfd7" target="_top" xlink:title="Build bases for a given mesh (V, F)">
<polygon fill="white" stroke="#666666" points="566,-104.5 420,-104.5 420,-74.5 566,-74.5 566,-104.5"/>
<text text-anchor="start" x="428" y="-92.5" font-family="Helvetica,sans-Serif" font-size="10.00">polyfem::mesh::Remesher</text>
<text text-anchor="middle" x="493" y="-81.5" font-family="Helvetica,sans-Serif" font-size="10.00">::build_bases</text>
</a>
</g>
</g>
<!-- Node1&#45;&gt;Node2 -->
<g id="edge1_Node000001_Node000002" class="edge">
<title>Node1&#45;&gt;Node2</title>
<g id="a_edge1_Node000001_Node000002"><a xlink:title=" ">
<path fill="none" stroke="#63b8ff" d="M591.81,-70.16C583.24,-71.85 574.55,-73.57 566.06,-75.25"/>
<polygon fill="#63b8ff" stroke="#63b8ff" points="592.68,-73.56 601.81,-68.18 591.32,-66.69 592.68,-73.56"/>
</a>
</g>
</g>
<!-- Node7 -->
<g id="Node000007" class="node">
<title>Node7</title>
<g id="a_Node000007"><a xlink:href="classpolyfem_1_1_state.html#a75cfcf28f3bc27e8e30b41c7347c799b" target="_top" xlink:title="builds the bases step 2 of solve modifies bases, pressure_bases, geom_bases_, boundary_nodes,...">
<polygon fill="white" stroke="#666666" points="552.5,-45.5 433.5,-45.5 433.5,-15.5 552.5,-15.5 552.5,-45.5"/>
<text text-anchor="start" x="441.5" y="-33.5" font-family="Helvetica,sans-Serif" font-size="10.00">polyfem::State::build</text>
<text text-anchor="middle" x="493" y="-22.5" font-family="Helvetica,sans-Serif" font-size="10.00">_basis</text>
</a>
</g>
</g>
<!-- Node1&#45;&gt;Node7 -->
<g id="edge6_Node000001_Node000007" class="edge">
<title>Node1&#45;&gt;Node7</title>
<g id="a_edge6_Node000001_Node000007"><a xlink:title=" ">
<path fill="none" stroke="#63b8ff" d="M591.79,-43.76C578.59,-41.97 565.11,-40.14 552.54,-38.44"/>
<polygon fill="#63b8ff" stroke="#63b8ff" points="591.43,-47.24 601.81,-45.12 592.37,-40.31 591.43,-47.24"/>
</a>
</g>
</g>
<!-- Node3 -->
<g id="Node000003" class="node">
<title>Node3</title>
<g id="a_Node000003"><a xlink:href="classpolyfem_1_1mesh_1_1_local_mesh.html#a1a045a45c0e98615b682ca7605cb0d32" target="_top" xlink:title="Build the ElementBases for the local mesh.">
<polygon fill="white" stroke="#666666" points="371,-163.5 223,-163.5 223,-133.5 371,-133.5 371,-163.5"/>
<text text-anchor="start" x="231" y="-151.5" font-family="Helvetica,sans-Serif" font-size="10.00">polyfem::mesh::LocalMesh</text>
<text text-anchor="middle" x="297" y="-140.5" font-family="Helvetica,sans-Serif" font-size="10.00">::build_bases</text>
</a>
</g>
</g>
<!-- Node2&#45;&gt;Node3 -->
<g id="edge2_Node000002_Node000003" class="edge">
<title>Node2&#45;&gt;Node3</title>
<g id="a_edge2_Node000002_Node000003"><a xlink:title=" ">
<path fill="none" stroke="#63b8ff" d="M437.17,-107.75C420.17,-113.28 401.35,-119.27 384,-124.5 374.06,-127.5 363.43,-130.57 353.15,-133.47"/>
<polygon fill="#63b8ff" stroke="#63b8ff" points="438.52,-110.99 446.94,-104.56 436.35,-104.34 438.52,-110.99"/>
</a>
</g>
</g>
<!-- Node4 -->
<g id="Node000004" class="node">
<title>Node4</title>
<g id="a_Node000004"><a xlink:href="classpolyfem_1_1mesh_1_1_local_relaxation_data.html#ab03432dc5cce912fb679a73d93ad334d" target="_top" xlink:title=" ">
<polygon fill="white" stroke="#666666" points="384,-115.5 210,-115.5 210,-85.5 384,-85.5 384,-115.5"/>
<text text-anchor="start" x="218" y="-103.5" font-family="Helvetica,sans-Serif" font-size="10.00">polyfem::mesh::LocalRelaxation</text>
<text text-anchor="middle" x="297" y="-92.5" font-family="Helvetica,sans-Serif" font-size="10.00">Data::init_bases</text>
</a>
</g>
</g>
<!-- Node2&#45;&gt;Node4 -->
<g id="edge3_Node000002_Node000004" class="edge">
<title>Node2&#45;&gt;Node4</title>
<g id="a_edge3_Node000002_Node000004"><a xlink:title=" ">
<path fill="none" stroke="#63b8ff" d="M409.56,-94.17C401.12,-94.65 392.54,-95.14 384.06,-95.62"/>
<polygon fill="#63b8ff" stroke="#63b8ff" points="409.98,-97.66 419.76,-93.6 409.58,-90.67 409.98,-97.66"/>
</a>
</g>
</g>
<!-- Node6 -->
<g id="Node000006" class="node">
<title>Node6</title>
<g id="a_Node000006"><a xlink:href="classpolyfem_1_1mesh_1_1_remesher.html#a60ab7872593bdf1951408bbd870526e4" target="_top" xlink:title="Update the mesh positions and other projection quantities.">
<polygon fill="white" stroke="#666666" points="370,-67.5 224,-67.5 224,-37.5 370,-37.5 370,-67.5"/>
<text text-anchor="start" x="232" y="-55.5" font-family="Helvetica,sans-Serif" font-size="10.00">polyfem::mesh::Remesher</text>
<text text-anchor="middle" x="297" y="-44.5" font-family="Helvetica,sans-Serif" font-size="10.00">::project_quantities</text>
</a>
</g>
</g>
<!-- Node2&#45;&gt;Node6 -->
<g id="edge5_Node000002_Node000006" class="edge">
<title>Node2&#45;&gt;Node6</title>
<g id="a_edge5_Node000002_Node000006"><a xlink:title=" ">
<path fill="none" stroke="#63b8ff" d="M409.81,-73.82C396.68,-71.32 383.18,-68.75 370.3,-66.29"/>
<polygon fill="#63b8ff" stroke="#63b8ff" points="409.28,-77.29 419.76,-75.72 410.59,-70.41 409.28,-77.29"/>
</a>
</g>
</g>
<!-- Node5 -->
<g id="Node000005" class="node">
<title>Node5</title>
<g id="a_Node000005"><a xlink:href="classpolyfem_1_1mesh_1_1_local_relaxation_data.html#a7a84ad351ae9f4d38cdad34660fd6585" target="_top" xlink:title=" ">
<polygon fill="white" stroke="#666666" points="174,-115.5 0,-115.5 0,-85.5 174,-85.5 174,-115.5"/>
<text text-anchor="start" x="8" y="-103.5" font-family="Helvetica,sans-Serif" font-size="10.00">polyfem::mesh::LocalRelaxation</text>
<text text-anchor="middle" x="87" y="-92.5" font-family="Helvetica,sans-Serif" font-size="10.00">Data::LocalRelaxationData</text>
</a>
</g>
</g>
<!-- Node4&#45;&gt;Node5 -->
<g id="edge4_Node000004_Node000005" class="edge">
<title>Node4&#45;&gt;Node5</title>
<g id="a_edge4_Node000004_Node000005"><a xlink:title=" ">
<path fill="none" stroke="#63b8ff" d="M199.84,-100.5C191.23,-100.5 182.55,-100.5 174.04,-100.5"/>
<polygon fill="#63b8ff" stroke="#63b8ff" points="199.9,-104 209.9,-100.5 199.9,-97 199.9,-104"/>
</a>
</g>
</g>
<!-- Node8 -->
<g id="Node000008" class="node">
<title>Node8</title>
<g id="a_Node000008"><a xlink:href="main_8cpp.html#aec889c702a246ad7f332c75ab7adb438" target="_top" xlink:title=" ">
<polygon fill="white" stroke="#666666" points="352.5,-19 241.5,-19 241.5,0 352.5,0 352.5,-19"/>
<text text-anchor="middle" x="297" y="-7" font-family="Helvetica,sans-Serif" font-size="10.00">forward_simulation</text>
</a>
</g>
</g>
<!-- Node7&#45;&gt;Node8 -->
<g id="edge7_Node000007_Node000008" class="edge">
<title>Node7&#45;&gt;Node8</title>
<g id="a_edge7_Node000007_Node000008"><a xlink:title=" ">
<path fill="none" stroke="#63b8ff" d="M423.16,-23.05C399.99,-20.54 374.47,-17.78 352.56,-15.41"/>
<polygon fill="#63b8ff" stroke="#63b8ff" points="422.95,-26.55 433.27,-24.14 423.7,-19.59 422.95,-26.55"/>
</a>
</g>
</g>
<!-- Node9 -->
<g id="Node000009" class="node">
<title>Node9</title>
<g id="a_Node000009"><a xlink:href="main_8cpp.html#a3c04138a5bfe5d72780bb7e82a18e627" target="_top" xlink:title=" ">
<polygon fill="white" stroke="#666666" points="107.5,-19 66.5,-19 66.5,0 107.5,0 107.5,-19"/>
<text text-anchor="middle" x="87" y="-7" font-family="Helvetica,sans-Serif" font-size="10.00">main</text>
</a>
</g>
</g>
<!-- Node8&#45;&gt;Node9 -->
<g id="edge8_Node000008_Node000009" class="edge">
<title>Node8&#45;&gt;Node9</title>
<g id="a_edge8_Node000008_Node000009"><a xlink:title=" ">
<path fill="none" stroke="#63b8ff" d="M231.31,-9.5C188.64,-9.5 135.61,-9.5 107.55,-9.5"/>
<polygon fill="#63b8ff" stroke="#63b8ff" points="231.35,-13 241.35,-9.5 231.35,-6 231.35,-13"/>
</a>
</g>
</g>
</g>
</svg>
