<?xml version="1.0" encoding="UTF-8" standalone="no"?>
<!DOCTYPE svg PUBLIC "-//W3C//DTD SVG 1.1//EN"
 "http://www.w3.org/Graphics/SVG/1.1/DTD/svg11.dtd">
<!-- Generated by graphviz version 2.43.0 (0)
 -->
<!-- Title: polyfem::mesh::Mesh3D::is_volume Pages: 1 -->
<!--zoomable 153 -->
<svg id="main" version="1.1" xmlns="http://www.w3.org/2000/svg" xmlns:xlink="http://www.w3.org/1999/xlink" xml:space="preserve" onload="init(evt)">
<style type="text/css"><![CDATA[
.edge:hover path { stroke: red; }
.edge:hover polygon { stroke: red; fill: red; }
]]></style>
<script type="text/javascript"><![CDATA[
var edges = document.getElementsByTagName('g');
if (edges && edges.length) {
  for (var i=0;i<edges.length;i++) {
    if (edges[i].id.substr(0,4)=='edge') {
      edges[i].setAttribute('class','edge');
    }
  }
}
]]></script>
        <defs>
                <circle id="rim" cx="0" cy="0" r="7"/>
                <circle id="rim2" cx="0" cy="0" r="3.5"/>
                <g id="zoomPlus">
                        <use xlink:href="#rim" fill="#404040">
                                <set attributeName="fill" to="#808080" begin="zoomplus.mouseover" end="zoomplus.mouseout"/>
                        </use>
                        <path d="M-4,0h8M0,-4v8" fill="none" stroke="white" stroke-width="1.5" pointer-events="none"/>
                </g>
                <g id="zoomMin">
                        <use xlink:href="#rim" fill="#404040">
                                <set attributeName="fill" to="#808080" begin="zoomminus.mouseover" end="zoomminus.mouseout"/>
                        </use>
                        <path d="M-4,0h8" fill="none" stroke="white" stroke-width="1.5" pointer-events="none"/>
                </g>
                <g id="dirArrow">
                        <path fill="none" stroke="white" stroke-width="1.5" d="M0,-3.0v7 M-2.5,-0.5L0,-3.0L2.5,-0.5"/>
                </g>
               <g id="resetDef">
                       <use xlink:href="#rim2" fill="#404040">
                               <set attributeName="fill" to="#808080" begin="reset.mouseover" end="reset.mouseout"/>
                       </use>
               </g>
        </defs>

<script type="text/javascript">
var viewWidth = 995;
var viewHeight = 153;
var sectionId = 'dynsection-24';
</script>
<script xlink:href="svgpan.js"/>
<svg id="graph" class="graph">
<g id="viewport">
<title>polyfem::mesh::Mesh3D::is_volume</title>
<!-- Node1 -->
<g id="node1" class="node">
<title>Node1</title>
<g id="a_node1"><a xlink:title="checks if mesh is volume">
<polygon fill="#999999" stroke="#666666" points="987,-97 851,-97 851,-67 987,-67 987,-97"/>
<text text-anchor="start" x="859" y="-85" font-family="Helvetica,sans-Serif" font-size="10.00">polyfem::mesh::Mesh3D</text>
<text text-anchor="middle" x="919" y="-74" font-family="Helvetica,sans-Serif" font-size="10.00">::is_volume</text>
</a>
</g>
</g>
<!-- Node2 -->
<g id="node2" class="node">
<title>Node2</title>
<g id="a_node2"><a xlink:href="classpolyfem_1_1basis_1_1_polygonal_basis3d.html#a3d41a5e1d493240fb9a088a5229a27d7" target="_top" xlink:title="Build bases over the remaining polygons of a mesh.">
<polygon fill="white" stroke="#666666" points="620,-122 477,-122 477,-92 620,-92 620,-122"/>
<text text-anchor="start" x="485" y="-110" font-family="Helvetica,sans-Serif" font-size="10.00">polyfem::basis::Polygonal</text>
<text text-anchor="middle" x="548.5" y="-99" font-family="Helvetica,sans-Serif" font-size="10.00">Basis3d::build_bases</text>
</a>
</g>
</g>
<!-- Node1&#45;&gt;Node2 -->
<g id="edge1" class="edge">
<title>Node1&#45;&gt;Node2</title>
<path fill="none" stroke="#63b8ff" d="M888.64,-102.71C868.85,-115.36 841.6,-130.34 815,-137 739.63,-155.86 649.22,-137.2 595.73,-122.04"/>
<polygon fill="#63b8ff" stroke="#63b8ff" points="890.74,-105.52 897.17,-97.11 886.89,-99.67 890.74,-105.52"/>
</g>
<!-- Node7 -->
<g id="node7" class="node">
<title>Node7</title>
<g id="a_node7"><a xlink:href="classpolyfem_1_1basis_1_1_spline_basis3d.html#a714401935be3ae9842e606a9b56718f7" target="_top" xlink:title=" ">
<polygon fill="white" stroke="#666666" points="630,-74 467,-74 467,-44 630,-44 630,-74"/>
<text text-anchor="start" x="475" y="-62" font-family="Helvetica,sans-Serif" font-size="10.00">polyfem::basis::SplineBasis3d</text>
<text text-anchor="middle" x="548.5" y="-51" font-family="Helvetica,sans-Serif" font-size="10.00">::build_bases</text>
</a>
</g>
</g>
<!-- Node1&#45;&gt;Node7 -->
<g id="edge6" class="edge">
<title>Node1&#45;&gt;Node7</title>
<path fill="none" stroke="#63b8ff" d="M840.76,-77.18C778.98,-73.32 692.63,-67.93 630.01,-64.02"/>
<polygon fill="#63b8ff" stroke="#63b8ff" points="840.64,-80.68 850.84,-77.81 841.08,-73.69 840.64,-80.68"/>
</g>
<!-- Node8 -->
<g id="node8" class="node">
<title>Node8</title>
<g id="a_node8"><a xlink:href="classpolyfem_1_1basis_1_1_polygonal_basis3d.html#a9850a45487f69bd2d03fa2520f4815e6" target="_top" xlink:title=" ">
<polygon fill="white" stroke="#666666" points="813.5,-127.5 667.5,-127.5 667.5,-86.5 813.5,-86.5 813.5,-127.5"/>
<text text-anchor="start" x="675.5" y="-115.5" font-family="Helvetica,sans-Serif" font-size="10.00">polyfem::basis::Polygonal</text>
<text text-anchor="start" x="675.5" y="-104.5" font-family="Helvetica,sans-Serif" font-size="10.00">Basis3d::compute_integral</text>
<text text-anchor="middle" x="740.5" y="-93.5" font-family="Helvetica,sans-Serif" font-size="10.00">_constraints</text>
</a>
</g>
</g>
<!-- Node1&#45;&gt;Node8 -->
<g id="edge8" class="edge">
<title>Node1&#45;&gt;Node8</title>
<path fill="none" stroke="#63b8ff" d="M840.67,-92.95C831.65,-94.23 822.48,-95.53 813.54,-96.8"/>
<polygon fill="#63b8ff" stroke="#63b8ff" points="841.36,-96.39 850.77,-91.52 840.38,-89.46 841.36,-96.39"/>
</g>
<!-- Node9 -->
<g id="node9" class="node">
<title>Node9</title>
<g id="a_node9"><a xlink:href="namespacepolyfem.html#a066ceec9d3e84702a92a3c8d53b5a8ce" target="_top" xlink:title=" ">
<polygon fill="white" stroke="#666666" points="815,-30 666,-30 666,0 815,0 815,-30"/>
<text text-anchor="start" x="674" y="-18" font-family="Helvetica,sans-Serif" font-size="10.00">polyfem::compute_integral</text>
<text text-anchor="middle" x="740.5" y="-7" font-family="Helvetica,sans-Serif" font-size="10.00">_constraints</text>
</a>
</g>
</g>
<!-- Node1&#45;&gt;Node9 -->
<g id="edge10" class="edge">
<title>Node1&#45;&gt;Node9</title>
<path fill="none" stroke="#63b8ff" d="M868.91,-63.36C841.28,-52.88 807.23,-39.95 781.28,-30.1"/>
<polygon fill="#63b8ff" stroke="#63b8ff" points="867.8,-66.69 878.39,-66.96 870.28,-60.14 867.8,-66.69"/>
</g>
<!-- Node3 -->
<g id="node3" class="node">
<title>Node3</title>
<g id="a_node3"><a xlink:href="classpolyfem_1_1_state.html#a202f2494b8f46d4bf22edfc0a36ddb32" target="_top" xlink:title="builds bases for polygons, called inside build_basis">
<polygon fill="white" stroke="#666666" points="431,-120 312,-120 312,-90 431,-90 431,-120"/>
<text text-anchor="start" x="320" y="-108" font-family="Helvetica,sans-Serif" font-size="10.00">polyfem::State::build</text>
<text text-anchor="middle" x="371.5" y="-97" font-family="Helvetica,sans-Serif" font-size="10.00">_polygonal_basis</text>
</a>
</g>
</g>
<!-- Node2&#45;&gt;Node3 -->
<g id="edge2" class="edge">
<title>Node2&#45;&gt;Node3</title>
<path fill="none" stroke="#63b8ff" d="M466.78,-106.08C454.76,-105.94 442.56,-105.8 431.11,-105.67"/>
<polygon fill="#63b8ff" stroke="#63b8ff" points="466.79,-109.58 476.83,-106.19 466.87,-102.58 466.79,-109.58"/>
</g>
<!-- Node4 -->
<g id="node4" class="node">
<title>Node4</title>
<g id="a_node4"><a xlink:href="classpolyfem_1_1_state.html#a75cfcf28f3bc27e8e30b41c7347c799b" target="_top" xlink:title="builds the bases step 2 of solve">
<polygon fill="white" stroke="#666666" points="276,-97 157,-97 157,-67 276,-67 276,-97"/>
<text text-anchor="start" x="165" y="-85" font-family="Helvetica,sans-Serif" font-size="10.00">polyfem::State::build</text>
<text text-anchor="middle" x="216.5" y="-74" font-family="Helvetica,sans-Serif" font-size="10.00">_basis</text>
</a>
</g>
</g>
<!-- Node3&#45;&gt;Node4 -->
<g id="edge3" class="edge">
<title>Node3&#45;&gt;Node4</title>
<path fill="none" stroke="#63b8ff" d="M301.79,-94.67C293.2,-93.38 284.47,-92.07 276.06,-90.8"/>
<polygon fill="#63b8ff" stroke="#63b8ff" points="301.37,-98.15 311.78,-96.17 302.42,-91.23 301.37,-98.15"/>
</g>
<!-- Node5 -->
<g id="node5" class="node">
<title>Node5</title>
<g id="a_node5"><a xlink:href="main_8cpp.html#a3c04138a5bfe5d72780bb7e82a18e627" target="_top" xlink:title=" ">
<polygon fill="white" stroke="#666666" points="81,-110.5 40,-110.5 40,-91.5 81,-91.5 81,-110.5"/>
<text text-anchor="middle" x="60.5" y="-98.5" font-family="Helvetica,sans-Serif" font-size="10.00">main</text>
</a>
</g>
</g>
<!-- Node4&#45;&gt;Node5 -->
<g id="edge4" class="edge">
<title>Node4&#45;&gt;Node5</title>
<path fill="none" stroke="#63b8ff" d="M146.71,-90.49C122.86,-93.43 97.95,-96.5 81.27,-98.56"/>
<polygon fill="#63b8ff" stroke="#63b8ff" points="147.34,-93.94 156.84,-89.24 146.49,-86.99 147.34,-93.94"/>
</g>
<!-- Node6 -->
<g id="node6" class="node">
<title>Node6</title>
<g id="a_node6"><a xlink:href="classpolyfem_1_1_state.html#a219f9935d918f739d82488449bd4cbf4" target="_top" xlink:title="solves the problem, call other methods">
<polygon fill="white" stroke="#666666" points="121,-73.5 0,-73.5 0,-54.5 121,-54.5 121,-73.5"/>
<text text-anchor="middle" x="60.5" y="-61.5" font-family="Helvetica,sans-Serif" font-size="10.00">polyfem::State::solve</text>
</a>
</g>
</g>
<!-- Node4&#45;&gt;Node6 -->
<g id="edge5" class="edge">
<title>Node4&#45;&gt;Node6</title>
<path fill="none" stroke="#63b8ff" d="M146.83,-73.97C138.22,-72.97 129.47,-71.94 121.02,-70.96"/>
<polygon fill="#63b8ff" stroke="#63b8ff" points="146.5,-77.46 156.84,-75.14 147.31,-70.51 146.5,-77.46"/>
</g>
<!-- Node7&#45;&gt;Node4 -->
<g id="edge7" class="edge">
<title>Node7&#45;&gt;Node4</title>
<path fill="none" stroke="#63b8ff" d="M456.57,-65.34C398.99,-69.35 326.22,-74.42 276.18,-77.91"/>
<polygon fill="#63b8ff" stroke="#63b8ff" points="457.04,-68.81 466.77,-64.63 456.55,-61.83 457.04,-68.81"/>
</g>
<!-- Node8&#45;&gt;Node2 -->
<g id="edge9" class="edge">
<title>Node8&#45;&gt;Node2</title>
<path fill="none" stroke="#63b8ff" d="M657.17,-107C644.88,-107 632.31,-107 620.29,-107"/>
<polygon fill="#63b8ff" stroke="#63b8ff" points="657.4,-110.5 667.4,-107 657.4,-103.5 657.4,-110.5"/>
</g>
</g>
</svg>
        <g id="navigator" transform="translate(0 0)" fill="#404254">
                <rect fill="#f2f5e9" fill-opacity="0.5" stroke="#606060" stroke-width=".5" x="0" y="0" width="60" height="60"/>
                <use id="zoomplus" xlink:href="#zoomPlus" x="17" y="9" onmousedown="handleZoom(evt,'in')"/>
                <use id="zoomminus" xlink:href="#zoomMin" x="42" y="9" onmousedown="handleZoom(evt,'out')"/>
                <use id="reset" xlink:href="#resetDef" x="30" y="36" onmousedown="handleReset()"/>
                <g id="arrowUp" xlink:href="#dirArrow" transform="translate(30 24)" onmousedown="handlePan(0,-1)">
                  <use xlink:href="#rim" fill="#404040">
                        <set attributeName="fill" to="#808080" begin="arrowUp.mouseover" end="arrowUp.mouseout"/>
                  </use>
                  <path fill="none" stroke="white" stroke-width="1.5" d="M0,-3.0v7 M-2.5,-0.5L0,-3.0L2.5,-0.5"/>
                </g>
                <g id="arrowRight" xlink:href="#dirArrow" transform="rotate(90) translate(36 -43)" onmousedown="handlePan(1,0)">
                  <use xlink:href="#rim" fill="#404040">
                        <set attributeName="fill" to="#808080" begin="arrowRight.mouseover" end="arrowRight.mouseout"/>
                  </use>
                  <path fill="none" stroke="white" stroke-width="1.5" d="M0,-3.0v7 M-2.5,-0.5L0,-3.0L2.5,-0.5"/>
                </g>
                <g id="arrowDown" xlink:href="#dirArrow" transform="rotate(180) translate(-30 -48)" onmousedown="handlePan(0,1)">
                  <use xlink:href="#rim" fill="#404040">
                        <set attributeName="fill" to="#808080" begin="arrowDown.mouseover" end="arrowDown.mouseout"/>
                  </use>
                  <path fill="none" stroke="white" stroke-width="1.5" d="M0,-3.0v7 M-2.5,-0.5L0,-3.0L2.5,-0.5"/>
                </g>
                <g id="arrowLeft" xlink:href="#dirArrow" transform="rotate(270) translate(-36 17)" onmousedown="handlePan(-1,0)">
                  <use xlink:href="#rim" fill="#404040">
                        <set attributeName="fill" to="#808080" begin="arrowLeft.mouseover" end="arrowLeft.mouseout"/>
                  </use>
                  <path fill="none" stroke="white" stroke-width="1.5" d="M0,-3.0v7 M-2.5,-0.5L0,-3.0L2.5,-0.5"/>
                </g>
        </g>
        <svg viewBox="0 0 15 15" width="100%" height="30px" preserveAspectRatio="xMaxYMin meet">
         <g id="arrow_out" transform="scale(0.3 0.3)">
          <a xlink:href="classpolyfem_1_1mesh_1_1_mesh3_d_ac9544a097b95623a07d842237c388aa6_icgraph_org.svg" target="_base">
           <rect id="button" ry="5" rx="5" y="6" x="6" height="38" width="38"
                fill="#f2f5e9" fill-opacity="0.5" stroke="#606060" stroke-width="1.0"/>
           <path id="arrow"
             d="M 11.500037,31.436501 C 11.940474,20.09759 22.043105,11.32322 32.158766,21.979434 L 37.068811,17.246167 C 37.068811,17.246167 37.088388,32 37.088388,32 L 22.160133,31.978069 C 22.160133,31.978069 26.997745,27.140456 26.997745,27.140456 C 18.528582,18.264221 13.291696,25.230495 11.500037,31.436501 z"
             style="fill:#404040;"/>
          </a>
         </g>
        </svg>
</svg>
