<?xml version="1.0" encoding="UTF-8" standalone="no"?>
<!DOCTYPE svg PUBLIC "-//W3C//DTD SVG 1.1//EN"
 "http://www.w3.org/Graphics/SVG/1.1/DTD/svg11.dtd">
<!-- Generated by graphviz version 2.43.0 (0)
 -->
<!-- Title: polyfem::assembler::AssemblyValsCache::is_mass Pages: 1 -->
<svg width="712pt" height="146pt"
 viewBox="0.00 0.00 712.00 146.00" xmlns="http://www.w3.org/2000/svg" xmlns:xlink="http://www.w3.org/1999/xlink">
<g id="graph0" class="graph" transform="scale(1 1) rotate(0) translate(4 142)">
<title>polyfem::assembler::AssemblyValsCache::is_mass</title>
<!-- Node1 -->
<g id="Node000001" class="node">
<title>Node1</title>
<g id="a_Node000001"><a xlink:title=" ">
<polygon fill="#999999" stroke="#666666" points="704,-89.5 583,-89.5 583,-48.5 704,-48.5 704,-89.5"/>
<text text-anchor="start" x="591" y="-77.5" font-family="Helvetica,sans-Serif" font-size="10.00">polyfem::assembler</text>
<text text-anchor="start" x="591" y="-66.5" font-family="Helvetica,sans-Serif" font-size="10.00">::AssemblyValsCache</text>
<text text-anchor="middle" x="643.5" y="-55.5" font-family="Helvetica,sans-Serif" font-size="10.00">::is_mass</text>
</a>
</g>
</g>
<!-- Node2 -->
<g id="Node000002" class="node">
<title>Node2</title>
<g id="a_Node000002"><a xlink:href="classpolyfem_1_1assembler_1_1_assembly_vals_cache.html#a568826dcf14775118883ecbf6bd72f15" target="_top" xlink:title="computes the basis evaluation and geometric mapping for each of the given ElementBases in bases initi...">
<polygon fill="white" stroke="#666666" points="534.5,-138 391.5,-138 391.5,-108 534.5,-108 534.5,-138"/>
<text text-anchor="start" x="399.5" y="-126" font-family="Helvetica,sans-Serif" font-size="10.00">polyfem::assembler</text>
<text text-anchor="middle" x="463" y="-115" font-family="Helvetica,sans-Serif" font-size="10.00">::AssemblyValsCache::init</text>
</a>
</g>
</g>
<!-- Node1&#45;&gt;Node2 -->
<g id="edge1_Node000001_Node000002" class="edge">
<title>Node1&#45;&gt;Node2</title>
<g id="a_edge1_Node000001_Node000002"><a xlink:title=" ">
<path fill="none" stroke="#63b8ff" d="M573.4,-90.91C564.52,-93.67 555.55,-96.42 547,-99 537.23,-101.95 526.8,-105.02 516.74,-107.95"/>
<polygon fill="#63b8ff" stroke="#63b8ff" points="574.45,-94.25 582.96,-87.93 572.37,-87.57 574.45,-94.25"/>
</a>
</g>
</g>
<!-- Node6 -->
<g id="Node000006" class="node">
<title>Node6</title>
<g id="a_Node000006"><a xlink:href="classpolyfem_1_1assembler_1_1_assembly_vals_cache.html#ab09fc4509586d8a21220a5b7aa53c943" target="_top" xlink:title="initialize an empty cache.">
<polygon fill="white" stroke="#666666" points="523.5,-89.5 402.5,-89.5 402.5,-48.5 523.5,-48.5 523.5,-89.5"/>
<text text-anchor="start" x="410.5" y="-77.5" font-family="Helvetica,sans-Serif" font-size="10.00">polyfem::assembler</text>
<text text-anchor="start" x="410.5" y="-66.5" font-family="Helvetica,sans-Serif" font-size="10.00">::AssemblyValsCache</text>
<text text-anchor="middle" x="463" y="-55.5" font-family="Helvetica,sans-Serif" font-size="10.00">::init_empty</text>
</a>
</g>
</g>
<!-- Node1&#45;&gt;Node6 -->
<g id="edge5_Node000001_Node000006" class="edge">
<title>Node1&#45;&gt;Node6</title>
<g id="a_edge5_Node000001_Node000006"><a xlink:title=" ">
<path fill="none" stroke="#63b8ff" d="M572.19,-69C556.17,-69 539.3,-69 523.78,-69"/>
<polygon fill="#63b8ff" stroke="#63b8ff" points="572.57,-72.5 582.57,-69 572.57,-65.5 572.57,-72.5"/>
</a>
</g>
</g>
<!-- Node7 -->
<g id="Node000007" class="node">
<title>Node7</title>
<g id="a_Node000007"><a xlink:href="classpolyfem_1_1assembler_1_1_rhs_assembler.html#af4c729f4127069657c4a09f8b8ed3157" target="_top" xlink:title=" ">
<polygon fill="white" stroke="#666666" points="547,-30 379,-30 379,0 547,0 547,-30"/>
<text text-anchor="start" x="387" y="-18" font-family="Helvetica,sans-Serif" font-size="10.00">polyfem::assembler</text>
<text text-anchor="middle" x="463" y="-7" font-family="Helvetica,sans-Serif" font-size="10.00">::RhsAssembler::RhsAssembler</text>
</a>
</g>
</g>
<!-- Node1&#45;&gt;Node7 -->
<g id="edge7_Node000001_Node000007" class="edge">
<title>Node1&#45;&gt;Node7</title>
<g id="a_edge7_Node000001_Node000007"><a xlink:title=" ">
<path fill="none" stroke="#63b8ff" d="M573.06,-47.89C564.29,-45.23 555.44,-42.55 547,-40 536.34,-36.78 524.91,-33.33 514.04,-30.05"/>
<polygon fill="#63b8ff" stroke="#63b8ff" points="572.32,-51.33 582.9,-50.88 574.35,-44.63 572.32,-51.33"/>
</a>
</g>
</g>
<!-- Node3 -->
<g id="Node000003" class="node">
<title>Node3</title>
<g id="a_Node000003"><a xlink:href="classpolyfem_1_1_state.html#a75cfcf28f3bc27e8e30b41c7347c799b" target="_top" xlink:title="builds the bases step 2 of solve modifies bases, pressure_bases, geom_bases_, boundary_nodes,...">
<polygon fill="white" stroke="#666666" points="343,-111 224,-111 224,-81 343,-81 343,-111"/>
<text text-anchor="start" x="232" y="-99" font-family="Helvetica,sans-Serif" font-size="10.00">polyfem::State::build</text>
<text text-anchor="middle" x="283.5" y="-88" font-family="Helvetica,sans-Serif" font-size="10.00">_basis</text>
</a>
</g>
</g>
<!-- Node2&#45;&gt;Node3 -->
<g id="edge2_Node000002_Node000003" class="edge">
<title>Node2&#45;&gt;Node3</title>
<g id="a_edge2_Node000002_Node000003"><a xlink:title=" ">
<path fill="none" stroke="#63b8ff" d="M381.15,-110.7C368.37,-108.76 355.37,-106.78 343.22,-104.93"/>
<polygon fill="#63b8ff" stroke="#63b8ff" points="380.92,-114.21 391.34,-112.25 381.98,-107.29 380.92,-114.21"/>
</a>
</g>
</g>
<!-- Node4 -->
<g id="Node000004" class="node">
<title>Node4</title>
<g id="a_Node000004"><a xlink:href="main_8cpp.html#aec889c702a246ad7f332c75ab7adb438" target="_top" xlink:title=" ">
<polygon fill="white" stroke="#666666" points="188,-105.5 77,-105.5 77,-86.5 188,-86.5 188,-105.5"/>
<text text-anchor="middle" x="132.5" y="-93.5" font-family="Helvetica,sans-Serif" font-size="10.00">forward_simulation</text>
</a>
</g>
</g>
<!-- Node3&#45;&gt;Node4 -->
<g id="edge3_Node000003_Node000004" class="edge">
<title>Node3&#45;&gt;Node4</title>
<g id="a_edge3_Node000003_Node000004"><a xlink:title=" ">
<path fill="none" stroke="#63b8ff" d="M213.35,-96C204.87,-96 196.3,-96 188.08,-96"/>
<polygon fill="#63b8ff" stroke="#63b8ff" points="213.61,-99.5 223.61,-96 213.61,-92.5 213.61,-99.5"/>
</a>
</g>
</g>
<!-- Node5 -->
<g id="Node000005" class="node">
<title>Node5</title>
<g id="a_Node000005"><a xlink:href="main_8cpp.html#a3c04138a5bfe5d72780bb7e82a18e627" target="_top" xlink:title=" ">
<polygon fill="white" stroke="#666666" points="41,-105.5 0,-105.5 0,-86.5 41,-86.5 41,-105.5"/>
<text text-anchor="middle" x="20.5" y="-93.5" font-family="Helvetica,sans-Serif" font-size="10.00">main</text>
</a>
</g>
</g>
<!-- Node4&#45;&gt;Node5 -->
<g id="edge4_Node000004_Node000005" class="edge">
<title>Node4&#45;&gt;Node5</title>
<g id="a_edge4_Node000004_Node000005"><a xlink:title=" ">
<path fill="none" stroke="#63b8ff" d="M66.64,-96C57.35,-96 48.45,-96 41.05,-96"/>
<polygon fill="#63b8ff" stroke="#63b8ff" points="66.82,-99.5 76.82,-96 66.82,-92.5 66.82,-99.5"/>
</a>
</g>
</g>
<!-- Node6&#45;&gt;Node3 -->
<g id="edge6_Node000006_Node000003" class="edge">
<title>Node6&#45;&gt;Node3</title>
<g id="a_edge6_Node000006_Node000003"><a xlink:title=" ">
<path fill="none" stroke="#63b8ff" d="M392.38,-79.59C376.05,-82.07 358.82,-84.69 343.04,-87.1"/>
<polygon fill="#63b8ff" stroke="#63b8ff" points="393.04,-83.03 402.4,-78.07 391.99,-76.11 393.04,-83.03"/>
</a>
</g>
</g>
</g>
</svg>
