<?xml version="1.0" encoding="UTF-8" standalone="no"?>
<!DOCTYPE svg PUBLIC "-//W3C//DTD SVG 1.1//EN"
 "http://www.w3.org/Graphics/SVG/1.1/DTD/svg11.dtd">
<!-- Generated by graphviz version 2.43.0 (0)
 -->
<!-- Title: polyfem::utils::Selection::build Pages: 1 -->
<svg width="462pt" height="76pt"
 viewBox="0.00 0.00 462.00 75.50" xmlns="http://www.w3.org/2000/svg" xmlns:xlink="http://www.w3.org/1999/xlink">
<g id="graph0" class="graph" transform="scale(1 1) rotate(0) translate(4 71.5)">
<title>polyfem::utils::Selection::build</title>
<!-- Node1 -->
<g id="node1" class="node">
<title>Node1</title>
<g id="a_node1"><a xlink:title="Build a selection objects from a JSON selection.">
<polygon fill="#999999" stroke="#666666" points="135,-45.5 0,-45.5 0,-15.5 135,-15.5 135,-45.5"/>
<text text-anchor="start" x="8" y="-33.5" font-family="Helvetica,sans-Serif" font-size="10.00">polyfem::utils::Selection</text>
<text text-anchor="middle" x="67.5" y="-22.5" font-family="Helvetica,sans-Serif" font-size="10.00">::build</text>
</a>
</g>
</g>
<!-- Node2 -->
<g id="node2" class="node">
<title>Node2</title>
<g id="a_node2"><a xlink:href="namespacepolyfem.html#adc7e749e0c40939b7323961c6a41e391" target="_top" xlink:title=" ">
<polygon fill="white" stroke="#666666" points="314.5,-67.5 180.5,-67.5 180.5,-37.5 314.5,-37.5 314.5,-67.5"/>
<text text-anchor="start" x="188.5" y="-55.5" font-family="Helvetica,sans-Serif" font-size="10.00">polyfem::log_and_throw</text>
<text text-anchor="middle" x="247.5" y="-44.5" font-family="Helvetica,sans-Serif" font-size="10.00">_error</text>
</a>
</g>
</g>
<!-- Node1&#45;&gt;Node2 -->
<g id="edge1" class="edge">
<title>Node1&#45;&gt;Node2</title>
<path fill="none" stroke="#63b8ff" d="M135.03,-38.72C146.49,-40.14 158.48,-41.62 170.17,-43.07"/>
<polygon fill="#63b8ff" stroke="#63b8ff" points="169.99,-46.57 180.34,-44.32 170.85,-39.62 169.99,-46.57"/>
</g>
<!-- Node4 -->
<g id="node4" class="node">
<title>Node4</title>
<g id="a_node4"><a xlink:href="namespacepolyfem_1_1utils.html#a4dc2e59d21d66809d2273ae115be0b73" target="_top" xlink:title=" ">
<polygon fill="white" stroke="#666666" points="324,-19 171,-19 171,0 324,0 324,-19"/>
<text text-anchor="middle" x="247.5" y="-7" font-family="Helvetica,sans-Serif" font-size="10.00">polyfem::utils::resolve_path</text>
</a>
</g>
</g>
<!-- Node1&#45;&gt;Node4 -->
<g id="edge3" class="edge">
<title>Node1&#45;&gt;Node4</title>
<path fill="none" stroke="#63b8ff" d="M135.03,-22.65C143.41,-21.66 152.07,-20.64 160.69,-19.62"/>
<polygon fill="#63b8ff" stroke="#63b8ff" points="161.25,-23.08 170.77,-18.43 160.43,-16.13 161.25,-23.08"/>
</g>
<!-- Node3 -->
<g id="node3" class="node">
<title>Node3</title>
<g id="a_node3"><a xlink:href="namespacepolyfem.html#a03f3d75072d2fd19f70cd886a51d10dd" target="_top" xlink:title="Retrieves the current logger.">
<polygon fill="white" stroke="#666666" points="454,-62 360,-62 360,-43 454,-43 454,-62"/>
<text text-anchor="middle" x="407" y="-50" font-family="Helvetica,sans-Serif" font-size="10.00">polyfem::logger</text>
</a>
</g>
</g>
<!-- Node2&#45;&gt;Node3 -->
<g id="edge2" class="edge">
<title>Node2&#45;&gt;Node3</title>
<path fill="none" stroke="#63b8ff" d="M314.84,-52.5C326.42,-52.5 338.38,-52.5 349.66,-52.5"/>
<polygon fill="#63b8ff" stroke="#63b8ff" points="349.81,-56 359.81,-52.5 349.81,-49 349.81,-56"/>
</g>
</g>
</svg>
