<?xml version="1.0" encoding="UTF-8" standalone="no"?>
<!DOCTYPE svg PUBLIC "-//W3C//DTD SVG 1.1//EN"
 "http://www.w3.org/Graphics/SVG/1.1/DTD/svg11.dtd">
<!-- Generated by graphviz version 2.43.0 (0)
 -->
<!-- Title: polyfem::mesh::NCMesh2D::switch_vertex Pages: 1 -->
<svg width="344pt" height="182pt"
 viewBox="0.00 0.00 344.00 182.00" xmlns="http://www.w3.org/2000/svg" xmlns:xlink="http://www.w3.org/1999/xlink">
<g id="graph0" class="graph" transform="scale(1 1) rotate(0) translate(4 178)">
<title>polyfem::mesh::NCMesh2D::switch_vertex</title>
<!-- Node1 -->
<g id="Node000001" class="node">
<title>Node1</title>
<g id="a_Node000001"><a xlink:title=" ">
<polygon fill="#999999" stroke="#666666" points="150,-102 0,-102 0,-72 150,-72 150,-102"/>
<text text-anchor="start" x="8" y="-90" font-family="Helvetica,sans-Serif" font-size="10.00">polyfem::mesh::NCMesh2D</text>
<text text-anchor="middle" x="75" y="-79" font-family="Helvetica,sans-Serif" font-size="10.00">::switch_vertex</text>
</a>
</g>
</g>
<!-- Node2 -->
<g id="Node000002" class="node">
<title>Node2</title>
<g id="a_Node000002"><a xlink:href="classpolyfem_1_1mesh_1_1_n_c_mesh2_d.html#a5a425c8ffcb5bd8f061725153af63396" target="_top" xlink:title=" ">
<polygon fill="white" stroke="#666666" points="336,-174 186,-174 186,-144 336,-144 336,-174"/>
<text text-anchor="start" x="194" y="-162" font-family="Helvetica,sans-Serif" font-size="10.00">polyfem::mesh::NCMesh2D</text>
<text text-anchor="middle" x="261" y="-151" font-family="Helvetica,sans-Serif" font-size="10.00">::all_to_valid_vertex</text>
</a>
</g>
</g>
<!-- Node1&#45;&gt;Node2 -->
<g id="edge1_Node000001_Node000002" class="edge">
<title>Node1&#45;&gt;Node2</title>
<g id="a_edge1_Node000001_Node000002"><a xlink:title=" ">
<path fill="none" stroke="#63b8ff" d="M108.39,-102.13C130.12,-112.03 159.5,-124.95 186,-135 191.05,-136.92 196.33,-138.82 201.64,-140.67"/>
<polygon fill="#63b8ff" stroke="#63b8ff" points="200.61,-144.01 211.2,-143.92 202.86,-137.38 200.61,-144.01"/>
</a>
</g>
</g>
<!-- Node3 -->
<g id="Node000003" class="node">
<title>Node3</title>
<g id="a_Node000003"><a xlink:href="classpolyfem_1_1mesh_1_1_n_c_mesh2_d.html#a8ffae197147e5e52a1e341b090fb8d93" target="_top" xlink:title=" ">
<polygon fill="white" stroke="#666666" points="336,-126 186,-126 186,-96 336,-96 336,-126"/>
<text text-anchor="start" x="194" y="-114" font-family="Helvetica,sans-Serif" font-size="10.00">polyfem::mesh::NCMesh2D</text>
<text text-anchor="middle" x="261" y="-103" font-family="Helvetica,sans-Serif" font-size="10.00">::valid_to_all_edge</text>
</a>
</g>
</g>
<!-- Node1&#45;&gt;Node3 -->
<g id="edge2_Node000001_Node000003" class="edge">
<title>Node1&#45;&gt;Node3</title>
<g id="a_edge2_Node000001_Node000003"><a xlink:title=" ">
<path fill="none" stroke="#63b8ff" d="M150.04,-96.66C158.51,-97.76 167.19,-98.89 175.78,-100.02"/>
<polygon fill="#63b8ff" stroke="#63b8ff" points="175.44,-103.5 185.81,-101.32 176.34,-96.56 175.44,-103.5"/>
</a>
</g>
</g>
<!-- Node4 -->
<g id="Node000004" class="node">
<title>Node4</title>
<g id="a_Node000004"><a xlink:href="classpolyfem_1_1mesh_1_1_n_c_mesh2_d.html#aa3d6dc1055e39c49bcf672d16096c8f0" target="_top" xlink:title=" ">
<polygon fill="white" stroke="#666666" points="336,-78 186,-78 186,-48 336,-48 336,-78"/>
<text text-anchor="start" x="194" y="-66" font-family="Helvetica,sans-Serif" font-size="10.00">polyfem::mesh::NCMesh2D</text>
<text text-anchor="middle" x="261" y="-55" font-family="Helvetica,sans-Serif" font-size="10.00">::valid_to_all_elem</text>
</a>
</g>
</g>
<!-- Node1&#45;&gt;Node4 -->
<g id="edge3_Node000001_Node000004" class="edge">
<title>Node1&#45;&gt;Node4</title>
<g id="a_edge3_Node000001_Node000004"><a xlink:title=" ">
<path fill="none" stroke="#63b8ff" d="M150.04,-77.34C158.51,-76.24 167.19,-75.11 175.78,-73.98"/>
<polygon fill="#63b8ff" stroke="#63b8ff" points="176.34,-77.44 185.81,-72.68 175.44,-70.5 176.34,-77.44"/>
</a>
</g>
</g>
<!-- Node5 -->
<g id="Node000005" class="node">
<title>Node5</title>
<g id="a_Node000005"><a xlink:href="classpolyfem_1_1mesh_1_1_n_c_mesh2_d.html#adf8f7fde7e38483e94475e80b74306eb" target="_top" xlink:title=" ">
<polygon fill="white" stroke="#666666" points="336,-30 186,-30 186,0 336,0 336,-30"/>
<text text-anchor="start" x="194" y="-18" font-family="Helvetica,sans-Serif" font-size="10.00">polyfem::mesh::NCMesh2D</text>
<text text-anchor="middle" x="261" y="-7" font-family="Helvetica,sans-Serif" font-size="10.00">::valid_to_all_vertex</text>
</a>
</g>
</g>
<!-- Node1&#45;&gt;Node5 -->
<g id="edge4_Node000001_Node000005" class="edge">
<title>Node1&#45;&gt;Node5</title>
<g id="a_edge4_Node000001_Node000005"><a xlink:title=" ">
<path fill="none" stroke="#63b8ff" d="M108.39,-71.87C130.12,-61.97 159.5,-49.05 186,-39 191.05,-37.08 196.33,-35.18 201.64,-33.33"/>
<polygon fill="#63b8ff" stroke="#63b8ff" points="202.86,-36.62 211.2,-30.08 200.61,-29.99 202.86,-36.62"/>
</a>
</g>
</g>
</g>
</svg>
