<?xml version="1.0" encoding="UTF-8" standalone="no"?>
<!DOCTYPE svg PUBLIC "-//W3C//DTD SVG 1.1//EN"
 "http://www.w3.org/Graphics/SVG/1.1/DTD/svg11.dtd">
<!-- Generated by graphviz version 2.43.0 (0)
 -->
<!-- Title: polyfem::solver::FrictionForm::update_lagging Pages: 1 -->
<svg width="714pt" height="194pt"
 viewBox="0.00 0.00 714.00 194.00" xmlns="http://www.w3.org/2000/svg" xmlns:xlink="http://www.w3.org/1999/xlink">
<g id="graph0" class="graph" transform="scale(1 1) rotate(0) translate(4 190)">
<title>polyfem::solver::FrictionForm::update_lagging</title>
<!-- Node1 -->
<g id="Node000001" class="node">
<title>Node1</title>
<g id="a_Node000001"><a xlink:title="Update lagged fields.">
<polygon fill="#999999" stroke="#666666" points="135,-105 0,-105 0,-75 135,-75 135,-105"/>
<text text-anchor="start" x="8" y="-93" font-family="Helvetica,sans-Serif" font-size="10.00">polyfem::solver::Friction</text>
<text text-anchor="middle" x="67.5" y="-82" font-family="Helvetica,sans-Serif" font-size="10.00">Form::update_lagging</text>
</a>
</g>
</g>
<!-- Node2 -->
<g id="Node000002" class="node">
<title>Node2</title>
<g id="a_Node000002"><a xlink:href="classpolyfem_1_1solver_1_1_contact_form.html#a41dcdd4761553a2e08ed5c44056d0440" target="_top" xlink:title="Get the current barrier stiffness.">
<polygon fill="white" stroke="#666666" points="333,-186 196,-186 196,-156 333,-156 333,-186"/>
<text text-anchor="start" x="204" y="-174" font-family="Helvetica,sans-Serif" font-size="10.00">polyfem::solver::Contact</text>
<text text-anchor="middle" x="264.5" y="-163" font-family="Helvetica,sans-Serif" font-size="10.00">Form::barrier_stiffness</text>
</a>
</g>
</g>
<!-- Node1&#45;&gt;Node2 -->
<g id="edge1_Node000001_Node000002" class="edge">
<title>Node1&#45;&gt;Node2</title>
<g id="a_edge1_Node000001_Node000002"><a xlink:title=" ">
<path fill="none" stroke="#63b8ff" d="M91.68,-105.14C111.92,-117.8 142.46,-135.58 171,-147 176.33,-149.13 181.91,-151.13 187.57,-152.98"/>
<polygon fill="#63b8ff" stroke="#63b8ff" points="186.56,-156.33 197.15,-155.97 188.64,-149.65 186.56,-156.33"/>
</a>
</g>
</g>
<!-- Node3 -->
<g id="Node000003" class="node">
<title>Node3</title>
<g id="a_Node000003"><a xlink:href="classpolyfem_1_1solver_1_1_friction_form.html#a813fc2f87b22de23caf3d1cb850fdfac" target="_top" xlink:title="Compute the displaced positions of the surface nodes.">
<polygon fill="white" stroke="#666666" points="335.5,-137.5 193.5,-137.5 193.5,-96.5 335.5,-96.5 335.5,-137.5"/>
<text text-anchor="start" x="201.5" y="-125.5" font-family="Helvetica,sans-Serif" font-size="10.00">polyfem::solver::Friction</text>
<text text-anchor="start" x="201.5" y="-114.5" font-family="Helvetica,sans-Serif" font-size="10.00">Form::compute_displaced</text>
<text text-anchor="middle" x="264.5" y="-103.5" font-family="Helvetica,sans-Serif" font-size="10.00">_surface</text>
</a>
</g>
</g>
<!-- Node1&#45;&gt;Node3 -->
<g id="edge2_Node000001_Node000003" class="edge">
<title>Node1&#45;&gt;Node3</title>
<g id="a_edge2_Node000001_Node000003"><a xlink:title=" ">
<path fill="none" stroke="#63b8ff" d="M135.06,-99.22C150.45,-101.35 166.98,-103.64 182.9,-105.84"/>
<polygon fill="#63b8ff" stroke="#63b8ff" points="182.86,-109.37 193.24,-107.27 183.82,-102.43 182.86,-109.37"/>
</a>
</g>
</g>
<!-- Node6 -->
<g id="Node000006" class="node">
<title>Node6</title>
<g id="a_Node000006"><a xlink:href="classpolyfem_1_1solver_1_1_contact_form.html#a7aadb732b6df116dd2374bdb64d0826c" target="_top" xlink:title=" ">
<polygon fill="white" stroke="#666666" points="352,-78 177,-78 177,-48 352,-48 352,-78"/>
<text text-anchor="start" x="185" y="-66" font-family="Helvetica,sans-Serif" font-size="10.00">polyfem::solver::Contact</text>
<text text-anchor="middle" x="264.5" y="-55" font-family="Helvetica,sans-Serif" font-size="10.00">Form::enable_shape_derivatives</text>
</a>
</g>
</g>
<!-- Node1&#45;&gt;Node6 -->
<g id="edge5_Node000001_Node000006" class="edge">
<title>Node1&#45;&gt;Node6</title>
<g id="a_edge5_Node000001_Node000006"><a xlink:title=" ">
<path fill="none" stroke="#63b8ff" d="M135.06,-80.78C145.26,-79.37 155.97,-77.89 166.66,-76.41"/>
<polygon fill="#63b8ff" stroke="#63b8ff" points="167.47,-79.83 176.89,-74.99 166.51,-72.9 167.47,-79.83"/>
</a>
</g>
</g>
<!-- Node7 -->
<g id="Node000007" class="node">
<title>Node7</title>
<g id="a_Node000007"><a xlink:href="classpolyfem_1_1solver_1_1_contact_form.html#afb889e2d85c746787b9d42eddb1e0cda" target="_top" xlink:title="Get use_convergent_formulation.">
<polygon fill="white" stroke="#666666" points="358,-30 171,-30 171,0 358,0 358,-30"/>
<text text-anchor="start" x="179" y="-18" font-family="Helvetica,sans-Serif" font-size="10.00">polyfem::solver::Contact</text>
<text text-anchor="middle" x="264.5" y="-7" font-family="Helvetica,sans-Serif" font-size="10.00">Form::use_convergent_formulation</text>
</a>
</g>
</g>
<!-- Node1&#45;&gt;Node7 -->
<g id="edge6_Node000001_Node000007" class="edge">
<title>Node1&#45;&gt;Node7</title>
<g id="a_edge6_Node000001_Node000007"><a xlink:title=" ">
<path fill="none" stroke="#63b8ff" d="M95.22,-74.78C115.51,-63.7 144.38,-48.95 171,-39 176.58,-36.92 182.4,-34.94 188.31,-33.09"/>
<polygon fill="#63b8ff" stroke="#63b8ff" points="189.71,-36.33 198.28,-30.1 187.69,-29.62 189.71,-36.33"/>
</a>
</g>
</g>
<!-- Node4 -->
<g id="Node000004" class="node">
<title>Node4</title>
<g id="a_Node000004"><a xlink:href="classpolyfem_1_1solver_1_1_contact_form.html#a41111805fab863090ce87259bb024995" target="_top" xlink:title="Compute the displaced positions of the surface nodes.">
<polygon fill="white" stroke="#666666" points="536,-137.5 394,-137.5 394,-96.5 536,-96.5 536,-137.5"/>
<text text-anchor="start" x="402" y="-125.5" font-family="Helvetica,sans-Serif" font-size="10.00">polyfem::solver::Contact</text>
<text text-anchor="start" x="402" y="-114.5" font-family="Helvetica,sans-Serif" font-size="10.00">Form::compute_displaced</text>
<text text-anchor="middle" x="465" y="-103.5" font-family="Helvetica,sans-Serif" font-size="10.00">_surface</text>
</a>
</g>
</g>
<!-- Node3&#45;&gt;Node4 -->
<g id="edge3_Node000003_Node000004" class="edge">
<title>Node3&#45;&gt;Node4</title>
<g id="a_edge3_Node000003_Node000004"><a xlink:title=" ">
<path fill="none" stroke="#63b8ff" d="M335.76,-117C351.22,-117 367.71,-117 383.54,-117"/>
<polygon fill="#63b8ff" stroke="#63b8ff" points="383.83,-120.5 393.83,-117 383.83,-113.5 383.83,-120.5"/>
</a>
</g>
</g>
<!-- Node5 -->
<g id="Node000005" class="node">
<title>Node5</title>
<g id="a_Node000005"><a xlink:href="namespacepolyfem_1_1utils.html#aafdbbff4a81a4fcba11129097b1109e5" target="_top" xlink:title="Unflatten rowwises, so every dim elements in x become a row.">
<polygon fill="white" stroke="#666666" points="706,-126.5 572,-126.5 572,-107.5 706,-107.5 706,-126.5"/>
<text text-anchor="middle" x="639" y="-114.5" font-family="Helvetica,sans-Serif" font-size="10.00">polyfem::utils::unflatten</text>
</a>
</g>
</g>
<!-- Node4&#45;&gt;Node5 -->
<g id="edge4_Node000004_Node000005" class="edge">
<title>Node4&#45;&gt;Node5</title>
<g id="a_edge4_Node000004_Node000005"><a xlink:title=" ">
<path fill="none" stroke="#63b8ff" d="M536.46,-117C544.77,-117 553.28,-117 561.66,-117"/>
<polygon fill="#63b8ff" stroke="#63b8ff" points="561.81,-120.5 571.81,-117 561.81,-113.5 561.81,-120.5"/>
</a>
</g>
</g>
</g>
</svg>
