<?xml version="1.0" encoding="UTF-8" standalone="no"?>
<!DOCTYPE svg PUBLIC "-//W3C//DTD SVG 1.1//EN"
 "http://www.w3.org/Graphics/SVG/1.1/DTD/svg11.dtd">
<!-- Generated by graphviz version 2.43.0 (0)
 -->
<!-- Title: polyfem::State::ndof Pages: 1 -->
<!--zoomable 964 -->

<svg id="main" version="1.1" xmlns="http://www.w3.org/2000/svg" xmlns:xlink="http://www.w3.org/1999/xlink" xml:space="preserve" onload="init(evt)">
<style type="text/css"><![CDATA[
.node, .edge {opacity: 0.7;}
.node.selected, .edge.selected {opacity: 1;}
.edge:hover path { stroke: red; }
.edge:hover polygon { stroke: red; fill: red; }
]]></style>

<defs>
  <circle id="rim" cx="0" cy="0" r="7"/>
  <circle id="rim2" cx="0" cy="0" r="3.5"/>
  <g id="zoomPlus">
    <use xlink:href="#rim" fill="#404040"><set attributeName="fill" to="#808080" begin="zoomplus.mouseover" end="zoomplus.mouseout"/></use>
    <path d="M-4,0h8M0,-4v8" fill="none" stroke="white" stroke-width="1.5" pointer-events="none"/>
  </g>
  <g id="zoomMin">
    <use xlink:href="#rim" fill="#404040"><set attributeName="fill" to="#808080" begin="zoomminus.mouseover" end="zoomminus.mouseout"/></use>
    <path d="M-4,0h8" fill="none" stroke="white" stroke-width="1.5" pointer-events="none"/>
  </g>
  <g id="arrowUp" transform="translate(30 24)">
    <use xlink:href="#rim"/>
    <path pointer-events="none" fill="none" stroke="white" stroke-width="1.5" d="M0,-3.0v7 M-2.5,-0.5L0,-3.0L2.5,-0.5"/>
  </g>
  <g id="arrowRight" transform="rotate(90) translate(36 -43)">
    <use xlink:href="#rim"/>
    <path pointer-events="none" fill="none" stroke="white" stroke-width="1.5" d="M0,-3.0v7 M-2.5,-0.5L0,-3.0L2.5,-0.5"/>
  </g>
  <g id="arrowDown" transform="rotate(180) translate(-30 -48)">
    <use xlink:href="#rim"/>
    <path pointer-events="none" fill="none" stroke="white" stroke-width="1.5" d="M0,-3.0v7 M-2.5,-0.5L0,-3.0L2.5,-0.5"/>
  </g>
  <g id="arrowLeft" transform="rotate(270) translate(-36 17)">
    <use xlink:href="#rim"/>
    <path pointer-events="none" fill="none" stroke="white" stroke-width="1.5" d="M0,-3.0v7 M-2.5,-0.5L0,-3.0L2.5,-0.5"/>
  </g>
  <g id="resetDef">
    <use xlink:href="#rim2" fill="#404040"><set attributeName="fill" to="#808080" begin="reset.mouseover" end="reset.mouseout"/></use>
  </g>
</defs>
<script type="application/ecmascript">
var viewWidth = 981;
var viewHeight = 964;
var sectionId = 'dynsection-76';
</script>
<script type="application/ecmascript" xlink:href="svg.min.js"/>
<svg id="graph" class="graph">
<g id="viewport">
<title>polyfem::State::ndof</title>
<!-- Node1 -->
<g id="Node000001" class="node">
<title>Node1</title>
<g id="a_Node000001"><a xlink:title=" ">
<polygon fill="#999999" stroke="#666666" points="973,-471 857,-471 857,-452 973,-452 973,-471"/>
<text text-anchor="middle" x="915" y="-459" font-family="Helvetica,sans-Serif" font-size="10.00">polyfem::State::ndof</text>
</a>
</g>
</g>
<!-- Node2 -->
<g id="Node000002" class="node">
<title>Node2</title>
<g id="a_Node000002"><a xlink:href="classpolyfem_1_1_state.html#a09d8bb72177bc7ed3ea1fc1a3aa429d0" target="_top" xlink:title=" ">
<polygon fill="white" stroke="#666666" points="806.5,-912.5 648.5,-912.5 648.5,-882.5 806.5,-882.5 806.5,-912.5"/>
<text text-anchor="start" x="656.5" y="-900.5" font-family="Helvetica,sans-Serif" font-size="10.00">polyfem::State::cache</text>
<text text-anchor="middle" x="727.5" y="-889.5" font-family="Helvetica,sans-Serif" font-size="10.00">_transient_adjoint_quantities</text>
</a>
</g>
</g>
<!-- Node1&#45;&gt;Node2 -->
<g id="edge1_Node000001_Node000002" class="edge">
<title>Node1&#45;&gt;Node2</title>
<g id="a_edge1_Node000001_Node000002"><a xlink:title=" ">
<path fill="none" stroke="#63b8ff" d="M911.51,-481.39C902.27,-552.39 868.09,-792.27 821,-851.5 809.95,-865.4 793.61,-875.43 777.73,-882.5"/>
<polygon fill="#63b8ff" stroke="#63b8ff" points="915.02,-481.53 912.81,-471.16 908.07,-480.64 915.02,-481.53"/>
</a>
</g>
</g>
<!-- Node10 -->
<g id="Node000010" class="node">
<title>Node10</title>
<g id="a_Node000010"><a xlink:href="classpolyfem_1_1solver_1_1_adjoint_form.html#a0c23d531939de93f8978ed8811bbabec" target="_top" xlink:title=" ">
<polygon fill="white" stroke="#666666" points="794.5,-756 660.5,-756 660.5,-715 794.5,-715 794.5,-756"/>
<text text-anchor="start" x="668.5" y="-744" font-family="Helvetica,sans-Serif" font-size="10.00">polyfem::solver::Adjoint</text>
<text text-anchor="start" x="668.5" y="-733" font-family="Helvetica,sans-Serif" font-size="10.00">Form::compute_adjoint</text>
<text text-anchor="middle" x="727.5" y="-722" font-family="Helvetica,sans-Serif" font-size="10.00">_rhs_unweighted</text>
</a>
</g>
</g>
<!-- Node1&#45;&gt;Node10 -->
<g id="edge11_Node000001_Node000010" class="edge">
<title>Node1&#45;&gt;Node10</title>
<g id="a_edge11_Node000001_Node000010"><a xlink:title=" ">
<path fill="none" stroke="#63b8ff" d="M912.18,-481.14C906.88,-527.09 887.33,-642.44 821,-705.5 813.54,-712.6 804.38,-718.01 794.76,-722.15"/>
<polygon fill="#63b8ff" stroke="#63b8ff" points="915.68,-481.34 913.24,-471.03 908.72,-480.61 915.68,-481.34"/>
</a>
</g>
</g>
<!-- Node13 -->
<g id="Node000013" class="node">
<title>Node13</title>
<g id="a_Node000013"><a xlink:href="classpolyfem_1_1solver_1_1_static_form.html#abe5cae4b7dcb21111d20d1985b5803f7" target="_top" xlink:title=" ">
<polygon fill="white" stroke="#666666" points="821,-696.5 634,-696.5 634,-666.5 821,-666.5 821,-696.5"/>
<text text-anchor="start" x="642" y="-684.5" font-family="Helvetica,sans-Serif" font-size="10.00">polyfem::solver::StaticForm</text>
<text text-anchor="middle" x="727.5" y="-673.5" font-family="Helvetica,sans-Serif" font-size="10.00">::compute_adjoint_rhs_unweighted</text>
</a>
</g>
</g>
<!-- Node1&#45;&gt;Node13 -->
<g id="edge14_Node000001_Node000013" class="edge">
<title>Node1&#45;&gt;Node13</title>
<g id="a_edge14_Node000001_Node000013"><a xlink:title=" ">
<path fill="none" stroke="#63b8ff" d="M910.46,-480.94C902.21,-520.47 877.93,-610.44 821,-657.5 816.91,-660.88 812.39,-663.79 807.63,-666.3"/>
<polygon fill="#63b8ff" stroke="#63b8ff" points="913.92,-481.49 912.41,-471 907.05,-480.14 913.92,-481.49"/>
</a>
</g>
</g>
<!-- Node14 -->
<g id="Node000014" class="node">
<title>Node14</title>
<g id="a_Node000014"><a xlink:href="classpolyfem_1_1solver_1_1_a_m_i_p_s_form.html#a81096135c2da63eaef854e2283c362cc" target="_top" xlink:title=" ">
<polygon fill="white" stroke="#666666" points="821,-648.5 634,-648.5 634,-618.5 821,-618.5 821,-648.5"/>
<text text-anchor="start" x="642" y="-636.5" font-family="Helvetica,sans-Serif" font-size="10.00">polyfem::solver::AMIPSForm</text>
<text text-anchor="middle" x="727.5" y="-625.5" font-family="Helvetica,sans-Serif" font-size="10.00">::compute_adjoint_rhs_unweighted</text>
</a>
</g>
</g>
<!-- Node1&#45;&gt;Node14 -->
<g id="edge15_Node000001_Node000014" class="edge">
<title>Node1&#45;&gt;Node14</title>
<g id="a_edge15_Node000001_Node000014"><a xlink:title=" ">
<path fill="none" stroke="#63b8ff" d="M907.33,-480.72C895.27,-512.55 866.76,-576.01 821,-609.5 816.31,-612.93 811.18,-615.87 805.81,-618.39"/>
<polygon fill="#63b8ff" stroke="#63b8ff" points="910.65,-481.82 910.79,-471.23 904.08,-479.42 910.65,-481.82"/>
</a>
</g>
</g>
<!-- Node15 -->
<g id="Node000015" class="node">
<title>Node15</title>
<g id="a_Node000015"><a xlink:href="classpolyfem_1_1solver_1_1_collision_barrier_form.html#a8675ce95074378d3f68c09fa43d725ff" target="_top" xlink:title=" ">
<polygon fill="white" stroke="#666666" points="808.5,-600 646.5,-600 646.5,-559 808.5,-559 808.5,-600"/>
<text text-anchor="start" x="654.5" y="-588" font-family="Helvetica,sans-Serif" font-size="10.00">polyfem::solver::Collision</text>
<text text-anchor="start" x="654.5" y="-577" font-family="Helvetica,sans-Serif" font-size="10.00">BarrierForm::compute_adjoint</text>
<text text-anchor="middle" x="727.5" y="-566" font-family="Helvetica,sans-Serif" font-size="10.00">_rhs_unweighted</text>
</a>
</g>
</g>
<!-- Node1&#45;&gt;Node15 -->
<g id="edge16_Node000001_Node000015" class="edge">
<title>Node1&#45;&gt;Node15</title>
<g id="a_edge16_Node000001_Node000015"><a xlink:title=" ">
<path fill="none" stroke="#63b8ff" d="M900.08,-479.01C883.32,-498.99 853.35,-531.39 821,-550.5 815.78,-553.58 810.21,-556.37 804.47,-558.89"/>
<polygon fill="#63b8ff" stroke="#63b8ff" points="902.99,-480.98 906.62,-471.03 897.58,-476.54 902.99,-480.98"/>
</a>
</g>
</g>
<!-- Node16 -->
<g id="Node000016" class="node">
<title>Node16</title>
<g id="a_Node000016"><a xlink:href="classpolyfem_1_1solver_1_1_parametrization_form.html#a2e95c8a6dc73bc43cd85188dc14a9e09" target="_top" xlink:title=" ">
<polygon fill="white" stroke="#666666" points="815.5,-541 639.5,-541 639.5,-500 815.5,-500 815.5,-541"/>
<text text-anchor="start" x="647.5" y="-529" font-family="Helvetica,sans-Serif" font-size="10.00">polyfem::solver::Parametrization</text>
<text text-anchor="start" x="647.5" y="-518" font-family="Helvetica,sans-Serif" font-size="10.00">Form::compute_adjoint_rhs</text>
<text text-anchor="middle" x="727.5" y="-507" font-family="Helvetica,sans-Serif" font-size="10.00">_unweighted</text>
</a>
</g>
</g>
<!-- Node1&#45;&gt;Node16 -->
<g id="edge17_Node000001_Node000016" class="edge">
<title>Node1&#45;&gt;Node16</title>
<g id="a_edge17_Node000001_Node000016"><a xlink:title=" ">
<path fill="none" stroke="#63b8ff" d="M874.8,-474.23C858.21,-479.59 838.67,-485.88 821,-491.5 812.34,-494.25 803.22,-497.14 794.21,-499.97"/>
<polygon fill="#63b8ff" stroke="#63b8ff" points="876.26,-477.43 884.7,-471.02 874.11,-470.77 876.26,-477.43"/>
</a>
</g>
</g>
<!-- Node17 -->
<g id="Node000017" class="node">
<title>Node17</title>
<g id="a_Node000017"><a xlink:href="classpolyfem_1_1solver_1_1_boundary_smoothing_form.html#a738a57f2a4d3a4d2d79b49d1dc08727a" target="_top" xlink:title=" ">
<polygon fill="white" stroke="#666666" points="800.5,-482 654.5,-482 654.5,-441 800.5,-441 800.5,-482"/>
<text text-anchor="start" x="662.5" y="-470" font-family="Helvetica,sans-Serif" font-size="10.00">polyfem::solver::Boundary</text>
<text text-anchor="start" x="662.5" y="-459" font-family="Helvetica,sans-Serif" font-size="10.00">SmoothingForm::compute</text>
<text text-anchor="middle" x="727.5" y="-448" font-family="Helvetica,sans-Serif" font-size="10.00">_adjoint_rhs_unweighted</text>
</a>
</g>
</g>
<!-- Node1&#45;&gt;Node17 -->
<g id="edge18_Node000001_Node000017" class="edge">
<title>Node1&#45;&gt;Node17</title>
<g id="a_edge18_Node000001_Node000017"><a xlink:title=" ">
<path fill="none" stroke="#63b8ff" d="M846.63,-461.5C831.66,-461.5 815.72,-461.5 800.56,-461.5"/>
<polygon fill="#63b8ff" stroke="#63b8ff" points="846.83,-465 856.83,-461.5 846.83,-458 846.83,-465"/>
</a>
</g>
</g>
<!-- Node18 -->
<g id="Node000018" class="node">
<title>Node18</title>
<g id="a_Node000018"><a xlink:href="classpolyfem_1_1solver_1_1_transient_form.html#a0d8e31622c6e688c3c6987714239c897" target="_top" xlink:title=" ">
<polygon fill="white" stroke="#666666" points="802,-423 653,-423 653,-382 802,-382 802,-423"/>
<text text-anchor="start" x="661" y="-411" font-family="Helvetica,sans-Serif" font-size="10.00">polyfem::solver::Transient</text>
<text text-anchor="start" x="661" y="-400" font-family="Helvetica,sans-Serif" font-size="10.00">Form::compute_adjoint_rhs</text>
<text text-anchor="middle" x="727.5" y="-389" font-family="Helvetica,sans-Serif" font-size="10.00">_unweighted</text>
</a>
</g>
</g>
<!-- Node1&#45;&gt;Node18 -->
<g id="edge19_Node000001_Node000018" class="edge">
<title>Node1&#45;&gt;Node18</title>
<g id="a_edge19_Node000001_Node000018"><a xlink:title=" ">
<path fill="none" stroke="#63b8ff" d="M874.14,-448.82C850.6,-441.34 820.23,-431.68 793.32,-423.12"/>
<polygon fill="#63b8ff" stroke="#63b8ff" points="873.19,-452.19 883.78,-451.89 875.31,-445.52 873.19,-452.19"/>
</a>
</g>
</g>
<!-- Node19 -->
<g id="Node000019" class="node">
<title>Node19</title>
<g id="a_Node000019"><a xlink:href="classpolyfem_1_1solver_1_1_spatial_integral_form.html#ae6d0bea38bff2aebee5b30d56afd29f1" target="_top" xlink:title=" ">
<polygon fill="white" stroke="#666666" points="809.5,-364 645.5,-364 645.5,-323 809.5,-323 809.5,-364"/>
<text text-anchor="start" x="653.5" y="-352" font-family="Helvetica,sans-Serif" font-size="10.00">polyfem::solver::Spatial</text>
<text text-anchor="start" x="653.5" y="-341" font-family="Helvetica,sans-Serif" font-size="10.00">IntegralForm::compute</text>
<text text-anchor="middle" x="727.5" y="-330" font-family="Helvetica,sans-Serif" font-size="10.00">_adjoint_rhs_unweighted_step</text>
</a>
</g>
</g>
<!-- Node1&#45;&gt;Node19 -->
<g id="edge20_Node000001_Node000019" class="edge">
<title>Node1&#45;&gt;Node19</title>
<g id="a_edge20_Node000001_Node000019"><a xlink:title=" ">
<path fill="none" stroke="#63b8ff" d="M899.74,-443.95C882.86,-424.22 852.97,-392.48 821,-373.5 815.19,-370.05 808.94,-366.95 802.53,-364.17"/>
<polygon fill="#63b8ff" stroke="#63b8ff" points="897.25,-446.41 906.35,-451.83 902.61,-441.92 897.25,-446.41"/>
</a>
</g>
</g>
<!-- Node20 -->
<g id="Node000020" class="node">
<title>Node20</title>
<g id="a_Node000020"><a xlink:href="classpolyfem_1_1solver_1_1_barycenter_target_form.html#a3a149e6b557410f863703169916d0537" target="_top" xlink:title=" ">
<polygon fill="white" stroke="#666666" points="807,-287 648,-287 648,-246 807,-246 807,-287"/>
<text text-anchor="start" x="656" y="-275" font-family="Helvetica,sans-Serif" font-size="10.00">polyfem::solver::Barycenter</text>
<text text-anchor="start" x="656" y="-264" font-family="Helvetica,sans-Serif" font-size="10.00">TargetForm::compute_adjoint</text>
<text text-anchor="middle" x="727.5" y="-253" font-family="Helvetica,sans-Serif" font-size="10.00">_rhs_unweighted_step</text>
</a>
</g>
</g>
<!-- Node1&#45;&gt;Node20 -->
<g id="edge21_Node000001_Node000020" class="edge">
<title>Node1&#45;&gt;Node20</title>
<g id="a_edge21_Node000001_Node000020"><a xlink:title=" ">
<path fill="none" stroke="#63b8ff" d="M905.84,-442.21C892.16,-411.76 861.99,-352.13 821,-314.5 809.14,-303.61 794.34,-294.49 780.09,-287.23"/>
<polygon fill="#63b8ff" stroke="#63b8ff" points="902.77,-443.92 909.99,-451.68 909.19,-441.12 902.77,-443.92"/>
</a>
</g>
</g>
<!-- Node21 -->
<g id="Node000021" class="node">
<title>Node21</title>
<g id="a_Node000021"><a xlink:href="classpolyfem_1_1solver_1_1_static_form.html#ada2ebd2330dbaf2e8a848604a33402e3" target="_top" xlink:title=" ">
<polygon fill="white" stroke="#666666" points="821,-228 634,-228 634,-187 821,-187 821,-228"/>
<text text-anchor="start" x="642" y="-216" font-family="Helvetica,sans-Serif" font-size="10.00">polyfem::solver::StaticForm</text>
<text text-anchor="start" x="642" y="-205" font-family="Helvetica,sans-Serif" font-size="10.00">::compute_adjoint_rhs_unweighted</text>
<text text-anchor="middle" x="727.5" y="-194" font-family="Helvetica,sans-Serif" font-size="10.00">_step_prev</text>
</a>
</g>
</g>
<!-- Node1&#45;&gt;Node21 -->
<g id="edge23_Node000001_Node000021" class="edge">
<title>Node1&#45;&gt;Node21</title>
<g id="a_edge23_Node000001_Node000021"><a xlink:title=" ">
<path fill="none" stroke="#63b8ff" d="M911.4,-441.71C904.66,-398.37 882.63,-294.39 821,-237.5 817.15,-233.95 812.88,-230.82 808.35,-228.06"/>
<polygon fill="#63b8ff" stroke="#63b8ff" points="907.96,-442.41 912.86,-451.8 914.89,-441.41 907.96,-442.41"/>
</a>
</g>
</g>
<!-- Node22 -->
<g id="Node000022" class="node">
<title>Node22</title>
<g id="a_Node000022"><a xlink:href="classpolyfem_1_1_state.html#ae968eba6b5e70405f66eb040943658a2" target="_top" xlink:title=" ">
<polygon fill="white" stroke="#666666" points="796,-130.5 659,-130.5 659,-100.5 796,-100.5 796,-130.5"/>
<text text-anchor="start" x="667" y="-118.5" font-family="Helvetica,sans-Serif" font-size="10.00">polyfem::State::compute</text>
<text text-anchor="middle" x="727.5" y="-107.5" font-family="Helvetica,sans-Serif" font-size="10.00">_force_jacobian_prev</text>
</a>
</g>
</g>
<!-- Node1&#45;&gt;Node22 -->
<g id="edge24_Node000001_Node000022" class="edge">
<title>Node1&#45;&gt;Node22</title>
<g id="a_edge24_Node000001_Node000022"><a xlink:title=" ">
<path fill="none" stroke="#63b8ff" d="M914.24,-441.75C913.79,-386.68 904.84,-229.9 821,-144.5 814.04,-137.41 805.38,-132.05 796.17,-128"/>
<polygon fill="#63b8ff" stroke="#63b8ff" points="910.74,-441.89 914.23,-451.89 917.74,-441.9 910.74,-441.89"/>
</a>
</g>
</g>
<!-- Node23 -->
<g id="Node000023" class="node">
<title>Node23</title>
<g id="a_Node000023"><a xlink:href="classpolyfem_1_1_state.html#ae4cd1190f91e6422d08b3c7ff57945ce" target="_top" xlink:title=" ">
<polygon fill="white" stroke="#666666" points="575.5,-137.5 454.5,-137.5 454.5,-107.5 575.5,-107.5 575.5,-137.5"/>
<text text-anchor="start" x="462.5" y="-125.5" font-family="Helvetica,sans-Serif" font-size="10.00">polyfem::State::solve</text>
<text text-anchor="middle" x="515" y="-114.5" font-family="Helvetica,sans-Serif" font-size="10.00">_transient_adjoint</text>
</a>
</g>
</g>
<!-- Node1&#45;&gt;Node23 -->
<g id="edge37_Node000001_Node000023" class="edge">
<title>Node1&#45;&gt;Node23</title>
<g id="a_edge37_Node000001_Node000023"><a xlink:title=" ">
<path fill="none" stroke="#63b8ff" d="M913.94,-441.64C912.62,-389.64 901.43,-248.68 821,-178.5 811.78,-170.46 661.92,-145.61 575.76,-131.87"/>
<polygon fill="#63b8ff" stroke="#63b8ff" points="910.44,-441.9 914.09,-451.84 917.44,-441.79 910.44,-441.9"/>
</a>
</g>
</g>
<!-- Node26 -->
<g id="Node000026" class="node">
<title>Node26</title>
<g id="a_Node000026"><a xlink:href="classpolyfem_1_1solver_1_1_adjoint_tools.html#a83a0a0adacafbe7876a0a8de0d0ba417" target="_top" xlink:title=" ">
<polygon fill="white" stroke="#666666" points="797.5,-43 657.5,-43 657.5,-2 797.5,-2 797.5,-43"/>
<text text-anchor="start" x="665.5" y="-31" font-family="Helvetica,sans-Serif" font-size="10.00">polyfem::solver::Adjoint</text>
<text text-anchor="start" x="665.5" y="-20" font-family="Helvetica,sans-Serif" font-size="10.00">Tools::dJ_initial_condition</text>
<text text-anchor="middle" x="727.5" y="-9" font-family="Helvetica,sans-Serif" font-size="10.00">_adjoint_term</text>
</a>
</g>
</g>
<!-- Node1&#45;&gt;Node26 -->
<g id="edge28_Node000001_Node000026" class="edge">
<title>Node1&#45;&gt;Node26</title>
<g id="a_edge28_Node000001_Node000026"><a xlink:title=" ">
<path fill="none" stroke="#63b8ff" d="M911.88,-441.73C903.73,-369.05 872.28,-117.78 821,-58.5 814.57,-51.07 806.42,-45.17 797.63,-40.47"/>
<polygon fill="#63b8ff" stroke="#63b8ff" points="908.42,-442.25 912.99,-451.81 915.38,-441.48 908.42,-442.25"/>
</a>
</g>
</g>
<!-- Node28 -->
<g id="Node000028" class="node">
<title>Node28</title>
<g id="a_Node000028"><a xlink:href="classpolyfem_1_1_state.html#ac904ade9c3fa1d665ff5976766c499c4" target="_top" xlink:title="initialize the linear solve">
<polygon fill="white" stroke="#666666" points="570,-799.5 460,-799.5 460,-769.5 570,-769.5 570,-799.5"/>
<text text-anchor="start" x="468" y="-787.5" font-family="Helvetica,sans-Serif" font-size="10.00">polyfem::State::init</text>
<text text-anchor="middle" x="515" y="-776.5" font-family="Helvetica,sans-Serif" font-size="10.00">_linear_solve</text>
</a>
</g>
</g>
<!-- Node1&#45;&gt;Node28 -->
<g id="edge30_Node000001_Node000028" class="edge">
<title>Node1&#45;&gt;Node28</title>
<g id="a_edge30_Node000001_Node000028"><a xlink:title=" ">
<path fill="none" stroke="#63b8ff" d="M910.95,-481.07C900.96,-542.42 867.19,-729.05 821,-765.5 783.41,-795.16 647.2,-792.44 570.13,-788.26"/>
<polygon fill="#63b8ff" stroke="#63b8ff" points="914.41,-481.56 912.53,-471.14 907.5,-480.46 914.41,-481.56"/>
</a>
</g>
</g>
<!-- Node29 -->
<g id="Node000029" class="node">
<title>Node29</title>
<g id="a_Node000029"><a xlink:href="classpolyfem_1_1_state.html#ae0de6ea3bdc69e3e21ddfbcdb144180b" target="_top" xlink:title="initialize the nonlinear solver">
<polygon fill="white" stroke="#666666" points="795,-842.5 660,-842.5 660,-812.5 795,-812.5 795,-842.5"/>
<text text-anchor="start" x="668" y="-830.5" font-family="Helvetica,sans-Serif" font-size="10.00">polyfem::State::init</text>
<text text-anchor="middle" x="727.5" y="-819.5" font-family="Helvetica,sans-Serif" font-size="10.00">_nonlinear_tensor_solve</text>
</a>
</g>
</g>
<!-- Node1&#45;&gt;Node29 -->
<g id="edge32_Node000001_Node000029" class="edge">
<title>Node1&#45;&gt;Node29</title>
<g id="a_edge32_Node000001_Node000029"><a xlink:title=" ">
<path fill="none" stroke="#63b8ff" d="M914.65,-481.33C915.41,-538.74 909.57,-706.82 821,-798.5 813.87,-805.88 804.88,-811.39 795.33,-815.51"/>
<polygon fill="#63b8ff" stroke="#63b8ff" points="918.14,-481.02 914.42,-471.1 911.14,-481.18 918.14,-481.02"/>
</a>
</g>
</g>
<!-- Node30 -->
<g id="Node000030" class="node">
<title>Node30</title>
<g id="a_Node000030"><a xlink:href="classpolyfem_1_1_state.html#a65330e092b0242be2b72786d4f24c13e" target="_top" xlink:title=" ">
<polygon fill="white" stroke="#666666" points="575.5,-89.5 454.5,-89.5 454.5,-59.5 575.5,-59.5 575.5,-89.5"/>
<text text-anchor="start" x="462.5" y="-77.5" font-family="Helvetica,sans-Serif" font-size="10.00">polyfem::State::solve</text>
<text text-anchor="middle" x="515" y="-66.5" font-family="Helvetica,sans-Serif" font-size="10.00">_static_adjoint</text>
</a>
</g>
</g>
<!-- Node1&#45;&gt;Node30 -->
<g id="edge35_Node000001_Node000030" class="edge">
<title>Node1&#45;&gt;Node30</title>
<g id="a_edge35_Node000001_Node000030"><a xlink:title=" ">
<path fill="none" stroke="#63b8ff" d="M912.08,-441.92C904.81,-372.15 876.52,-137.33 821,-91.5 784.91,-61.7 653.6,-64.91 575.53,-69.78"/>
<polygon fill="#63b8ff" stroke="#63b8ff" points="908.61,-442.39 913.1,-451.98 915.57,-441.68 908.61,-442.39"/>
</a>
</g>
</g>
<!-- Node3 -->
<g id="Node000003" class="node">
<title>Node3</title>
<g id="a_Node000003"><a xlink:href="classpolyfem_1_1_state.html#a7450ef7c42dd9c523e1be73a5819117d" target="_top" xlink:title="solves the problems">
<polygon fill="white" stroke="#666666" points="382,-885.5 261,-885.5 261,-855.5 382,-855.5 382,-885.5"/>
<text text-anchor="start" x="269" y="-873.5" font-family="Helvetica,sans-Serif" font-size="10.00">polyfem::State::solve</text>
<text text-anchor="middle" x="321.5" y="-862.5" font-family="Helvetica,sans-Serif" font-size="10.00">_problem</text>
</a>
</g>
</g>
<!-- Node2&#45;&gt;Node3 -->
<g id="edge2_Node000002_Node000003" class="edge">
<title>Node2&#45;&gt;Node3</title>
<g id="a_edge2_Node000002_Node000003"><a xlink:title=" ">
<path fill="none" stroke="#63b8ff" d="M684.11,-916.4C659.51,-926.33 627.62,-937.46 598,-942.5 525.27,-954.87 502.68,-963.66 432,-942.5 394.95,-931.41 358.82,-903.3 338.72,-885.66"/>
<polygon fill="#63b8ff" stroke="#63b8ff" points="685.59,-919.58 693.5,-912.53 682.92,-913.11 685.59,-919.58"/>
</a>
</g>
</g>
<!-- Node8 -->
<g id="Node000008" class="node">
<title>Node8</title>
<g id="a_Node000008"><a xlink:href="classpolyfem_1_1_state.html#af5afb70dc127d3ce190116321e83f190" target="_top" xlink:title="solves transient linear problem">
<polygon fill="white" stroke="#666666" points="575.5,-933.5 454.5,-933.5 454.5,-903.5 575.5,-903.5 575.5,-933.5"/>
<text text-anchor="start" x="462.5" y="-921.5" font-family="Helvetica,sans-Serif" font-size="10.00">polyfem::State::solve</text>
<text text-anchor="middle" x="515" y="-910.5" font-family="Helvetica,sans-Serif" font-size="10.00">_transient_linear</text>
</a>
</g>
</g>
<!-- Node2&#45;&gt;Node8 -->
<g id="edge7_Node000002_Node000008" class="edge">
<title>Node2&#45;&gt;Node8</title>
<g id="a_edge7_Node000002_Node000008"><a xlink:title=" ">
<path fill="none" stroke="#63b8ff" d="M638.43,-906.29C617.23,-908.4 595.08,-910.61 575.53,-912.56"/>
<polygon fill="#63b8ff" stroke="#63b8ff" points="638.81,-909.77 648.42,-905.29 638.12,-902.8 638.81,-909.77"/>
</a>
</g>
</g>
<!-- Node9 -->
<g id="Node000009" class="node">
<title>Node9</title>
<g id="a_Node000009"><a xlink:href="classpolyfem_1_1_state.html#a4d91e8c971fc121b0cff2f0c02ca79e7" target="_top" xlink:title="solves transient tensor nonlinear problem">
<polygon fill="white" stroke="#666666" points="591,-885.5 439,-885.5 439,-855.5 591,-855.5 591,-885.5"/>
<text text-anchor="start" x="447" y="-873.5" font-family="Helvetica,sans-Serif" font-size="10.00">polyfem::State::solve</text>
<text text-anchor="middle" x="515" y="-862.5" font-family="Helvetica,sans-Serif" font-size="10.00">_transient_tensor_nonlinear</text>
</a>
</g>
</g>
<!-- Node2&#45;&gt;Node9 -->
<g id="edge9_Node000002_Node000009" class="edge">
<title>Node2&#45;&gt;Node9</title>
<g id="a_edge9_Node000002_Node000009"><a xlink:title=" ">
<path fill="none" stroke="#63b8ff" d="M638.22,-886.18C622.57,-884.17 606.4,-882.1 591.16,-880.14"/>
<polygon fill="#63b8ff" stroke="#63b8ff" points="638.05,-889.68 648.42,-887.48 638.94,-882.74 638.05,-889.68"/>
</a>
</g>
</g>
<!-- Node4 -->
<g id="Node000004" class="node">
<title>Node4</title>
<g id="a_Node000004"><a xlink:href="main_8cpp.html#a48e4775e12bdf81ebb0eaa27df888aa0" target="_top" xlink:title=" ">
<polygon fill="white" stroke="#666666" points="199.5,-917 88.5,-917 88.5,-898 199.5,-898 199.5,-917"/>
<text text-anchor="middle" x="144" y="-905" font-family="Helvetica,sans-Serif" font-size="10.00">forward_simulation</text>
</a>
</g>
</g>
<!-- Node3&#45;&gt;Node4 -->
<g id="edge3_Node000003_Node000004" class="edge">
<title>Node3&#45;&gt;Node4</title>
<g id="a_edge3_Node000003_Node000004"><a xlink:title=" ">
<path fill="none" stroke="#63b8ff" d="M250.73,-885.21C230.36,-889.5 208.65,-894.08 190.23,-897.96"/>
<polygon fill="#63b8ff" stroke="#63b8ff" points="251.53,-888.62 260.59,-883.13 250.09,-881.77 251.53,-888.62"/>
</a>
</g>
</g>
<!-- Node6 -->
<g id="Node000006" class="node">
<title>Node6</title>
<g id="a_Node000006"><a xlink:href="classpolyfem_1_1_state.html#a219f9935d918f739d82488449bd4cbf4" target="_top" xlink:title="solves the problem, call other methods">
<polygon fill="white" stroke="#666666" points="204.5,-880 83.5,-880 83.5,-861 204.5,-861 204.5,-880"/>
<text text-anchor="middle" x="144" y="-868" font-family="Helvetica,sans-Serif" font-size="10.00">polyfem::State::solve</text>
</a>
</g>
</g>
<!-- Node3&#45;&gt;Node6 -->
<g id="edge5_Node000003_Node000006" class="edge">
<title>Node3&#45;&gt;Node6</title>
<g id="a_edge5_Node000003_Node000006"><a xlink:title=" ">
<path fill="none" stroke="#63b8ff" d="M250.27,-870.5C235.15,-870.5 219.31,-870.5 204.64,-870.5"/>
<polygon fill="#63b8ff" stroke="#63b8ff" points="250.59,-874 260.59,-870.5 250.59,-867 250.59,-874"/>
</a>
</g>
</g>
<!-- Node7 -->
<g id="Node000007" class="node">
<title>Node7</title>
<g id="a_Node000007"><a xlink:href="structpolyfem_1_1solver_1_1_adjoint_opt_utils.html#acac3e8ce8646ddd1544ed034c71bec96" target="_top" xlink:title=" ">
<polygon fill="white" stroke="#666666" points="211,-842.5 77,-842.5 77,-812.5 211,-812.5 211,-842.5"/>
<text text-anchor="start" x="85" y="-830.5" font-family="Helvetica,sans-Serif" font-size="10.00">polyfem::solver::Adjoint</text>
<text text-anchor="middle" x="144" y="-819.5" font-family="Helvetica,sans-Serif" font-size="10.00">OptUtils::solve_pde</text>
</a>
</g>
</g>
<!-- Node3&#45;&gt;Node7 -->
<g id="edge6_Node000003_Node000007" class="edge">
<title>Node3&#45;&gt;Node7</title>
<g id="a_edge6_Node000003_Node000007"><a xlink:title=" ">
<path fill="none" stroke="#63b8ff" d="M250.61,-853.38C236,-849.8 220.7,-846.05 206.43,-842.55"/>
<polygon fill="#63b8ff" stroke="#63b8ff" points="250.05,-856.84 260.59,-855.82 251.71,-850.04 250.05,-856.84"/>
</a>
</g>
</g>
<!-- Node5 -->
<g id="Node000005" class="node">
<title>Node5</title>
<g id="a_Node000005"><a xlink:href="main_8cpp.html#a3c04138a5bfe5d72780bb7e82a18e627" target="_top" xlink:title=" ">
<polygon fill="white" stroke="#666666" points="41,-917 0,-917 0,-898 41,-898 41,-917"/>
<text text-anchor="middle" x="20.5" y="-905" font-family="Helvetica,sans-Serif" font-size="10.00">main</text>
</a>
</g>
</g>
<!-- Node4&#45;&gt;Node5 -->
<g id="edge4_Node000004_Node000005" class="edge">
<title>Node4&#45;&gt;Node5</title>
<g id="a_edge4_Node000004_Node000005"><a xlink:title=" ">
<path fill="none" stroke="#63b8ff" d="M77.97,-907.5C64.49,-907.5 51.29,-907.5 41.05,-907.5"/>
<polygon fill="#63b8ff" stroke="#63b8ff" points="78.29,-911 88.29,-907.5 78.29,-904 78.29,-911"/>
</a>
</g>
</g>
<!-- Node8&#45;&gt;Node3 -->
<g id="edge8_Node000008_Node000003" class="edge">
<title>Node8&#45;&gt;Node3</title>
<g id="a_edge8_Node000008_Node000003"><a xlink:title=" ">
<path fill="none" stroke="#63b8ff" d="M444.55,-901.09C424.06,-895.96 401.82,-890.38 382.01,-885.42"/>
<polygon fill="#63b8ff" stroke="#63b8ff" points="443.91,-904.54 454.46,-903.58 445.61,-897.75 443.91,-904.54"/>
</a>
</g>
</g>
<!-- Node9&#45;&gt;Node3 -->
<g id="edge10_Node000009_Node000003" class="edge">
<title>Node9&#45;&gt;Node3</title>
<g id="a_edge10_Node000009_Node000003"><a xlink:title=" ">
<path fill="none" stroke="#63b8ff" d="M428.61,-870.5C412.89,-870.5 396.79,-870.5 382.04,-870.5"/>
<polygon fill="#63b8ff" stroke="#63b8ff" points="428.86,-874 438.86,-870.5 428.86,-867 428.86,-874"/>
</a>
</g>
</g>
<!-- Node11 -->
<g id="Node000011" class="node">
<title>Node11</title>
<g id="a_Node000011"><a xlink:href="classpolyfem_1_1solver_1_1_adjoint_form.html#a75339fa2280050eb0a11e9c1564c2463" target="_top" xlink:title=" ">
<polygon fill="white" stroke="#666666" points="584,-751 446,-751 446,-710 584,-710 584,-751"/>
<text text-anchor="start" x="454" y="-739" font-family="Helvetica,sans-Serif" font-size="10.00">polyfem::solver::Adjoint</text>
<text text-anchor="start" x="454" y="-728" font-family="Helvetica,sans-Serif" font-size="10.00">Form::compute_reduced</text>
<text text-anchor="middle" x="515" y="-717" font-family="Helvetica,sans-Serif" font-size="10.00">_adjoint_rhs_unweighted</text>
</a>
</g>
</g>
<!-- Node10&#45;&gt;Node11 -->
<g id="edge12_Node000010_Node000011" class="edge">
<title>Node10&#45;&gt;Node11</title>
<g id="a_edge12_Node000010_Node000011"><a xlink:title=" ">
<path fill="none" stroke="#63b8ff" d="M650.37,-733.69C628.78,-733.18 605.43,-732.62 584.33,-732.12"/>
<polygon fill="#63b8ff" stroke="#63b8ff" points="650.39,-737.19 660.47,-733.93 650.56,-730.2 650.39,-737.19"/>
</a>
</g>
</g>
<!-- Node12 -->
<g id="Node000012" class="node">
<title>Node12</title>
<g id="a_Node000012"><a xlink:href="classpolyfem_1_1solver_1_1_adjoint_form.html#aa5848914ae87f71ccebd5c84fbef661e" target="_top" xlink:title=" ">
<polygon fill="white" stroke="#666666" points="396,-745.5 247,-745.5 247,-715.5 396,-715.5 396,-745.5"/>
<text text-anchor="start" x="255" y="-733.5" font-family="Helvetica,sans-Serif" font-size="10.00">polyfem::solver::Adjoint</text>
<text text-anchor="middle" x="321.5" y="-722.5" font-family="Helvetica,sans-Serif" font-size="10.00">Form::compute_adjoint_rhs</text>
</a>
</g>
</g>
<!-- Node11&#45;&gt;Node12 -->
<g id="edge13_Node000011_Node000012" class="edge">
<title>Node11&#45;&gt;Node12</title>
<g id="a_edge13_Node000011_Node000012"><a xlink:title=" ">
<path fill="none" stroke="#63b8ff" d="M435.61,-730.5C422.57,-730.5 409.1,-730.5 396.18,-730.5"/>
<polygon fill="#63b8ff" stroke="#63b8ff" points="435.95,-734 445.95,-730.5 435.95,-727 435.95,-734"/>
</a>
</g>
</g>
<!-- Node20&#45;&gt;Node20 -->
<g id="edge22_Node000020_Node000020" class="edge">
<title>Node20&#45;&gt;Node20</title>
<g id="a_edge22_Node000020_Node000020"><a xlink:title=" ">
<path fill="none" stroke="#63b8ff" d="M759.5,-296.96C754.74,-301.74 744.07,-305 727.5,-305 700.98,-305 689.59,-296.65 693.31,-287.1"/>
<polygon fill="#63b8ff" stroke="#63b8ff" points="762.94,-297.62 761.69,-287.1 756.11,-296.1 762.94,-297.62"/>
</a>
</g>
</g>
<!-- Node22&#45;&gt;Node23 -->
<g id="edge25_Node000022_Node000023" class="edge">
<title>Node22&#45;&gt;Node23</title>
<g id="a_edge25_Node000022_Node000023"><a xlink:title=" ">
<path fill="none" stroke="#63b8ff" d="M648.57,-118.09C624.53,-118.89 598.45,-119.76 575.82,-120.51"/>
<polygon fill="#63b8ff" stroke="#63b8ff" points="648.86,-121.58 658.74,-117.75 648.63,-114.59 648.86,-121.58"/>
</a>
</g>
</g>
<!-- Node24 -->
<g id="Node000024" class="node">
<title>Node24</title>
<g id="a_Node000024"><a xlink:href="classpolyfem_1_1_state.html#aa4d093ebcaa85e1d4fd39107019eb5a1" target="_top" xlink:title=" ">
<polygon fill="white" stroke="#666666" points="382,-113.5 261,-113.5 261,-83.5 382,-83.5 382,-113.5"/>
<text text-anchor="start" x="269" y="-101.5" font-family="Helvetica,sans-Serif" font-size="10.00">polyfem::State::solve</text>
<text text-anchor="middle" x="321.5" y="-90.5" font-family="Helvetica,sans-Serif" font-size="10.00">_adjoint</text>
</a>
</g>
</g>
<!-- Node23&#45;&gt;Node24 -->
<g id="edge26_Node000023_Node000024" class="edge">
<title>Node23&#45;&gt;Node24</title>
<g id="a_edge26_Node000023_Node000024"><a xlink:title=" ">
<path fill="none" stroke="#63b8ff" d="M444.27,-113.76C423.86,-111.2 401.73,-108.43 382.01,-105.96"/>
<polygon fill="#63b8ff" stroke="#63b8ff" points="444.1,-117.27 454.46,-115.04 444.97,-110.32 444.1,-117.27"/>
</a>
</g>
</g>
<!-- Node25 -->
<g id="Node000025" class="node">
<title>Node25</title>
<g id="a_Node000025"><a xlink:href="classpolyfem_1_1_state.html#a9e1bea7d5764cb3cdf57a11e0e1444c1" target="_top" xlink:title=" ">
<polygon fill="white" stroke="#666666" points="204.5,-113.5 83.5,-113.5 83.5,-83.5 204.5,-83.5 204.5,-113.5"/>
<text text-anchor="start" x="91.5" y="-101.5" font-family="Helvetica,sans-Serif" font-size="10.00">polyfem::State::solve</text>
<text text-anchor="middle" x="144" y="-90.5" font-family="Helvetica,sans-Serif" font-size="10.00">_adjoint_cached</text>
</a>
</g>
</g>
<!-- Node24&#45;&gt;Node25 -->
<g id="edge27_Node000024_Node000025" class="edge">
<title>Node24&#45;&gt;Node25</title>
<g id="a_edge27_Node000024_Node000025"><a xlink:title=" ">
<path fill="none" stroke="#63b8ff" d="M250.27,-98.5C235.15,-98.5 219.31,-98.5 204.64,-98.5"/>
<polygon fill="#63b8ff" stroke="#63b8ff" points="250.59,-102 260.59,-98.5 250.59,-95 250.59,-102"/>
</a>
</g>
</g>
<!-- Node27 -->
<g id="Node000027" class="node">
<title>Node27</title>
<g id="a_Node000027"><a xlink:href="classpolyfem_1_1solver_1_1_initial_condition_variable_to_simulation.html#a362b5b788dad19c69ecdc855e8c0af65" target="_top" xlink:title=" ">
<polygon fill="white" stroke="#666666" points="598,-41 432,-41 432,0 598,0 598,-41"/>
<text text-anchor="start" x="440" y="-29" font-family="Helvetica,sans-Serif" font-size="10.00">polyfem::solver::Initial</text>
<text text-anchor="start" x="440" y="-18" font-family="Helvetica,sans-Serif" font-size="10.00">ConditionVariableToSimulation</text>
<text text-anchor="middle" x="515" y="-7" font-family="Helvetica,sans-Serif" font-size="10.00">::compute_adjoint_term</text>
</a>
</g>
</g>
<!-- Node26&#45;&gt;Node27 -->
<g id="edge29_Node000026_Node000027" class="edge">
<title>Node26&#45;&gt;Node27</title>
<g id="a_edge29_Node000026_Node000027"><a xlink:title=" ">
<path fill="none" stroke="#63b8ff" d="M646.92,-21.74C630.95,-21.59 614.13,-21.43 598.07,-21.28"/>
<polygon fill="#63b8ff" stroke="#63b8ff" points="647.25,-25.25 657.28,-21.84 647.32,-18.25 647.25,-25.25"/>
</a>
</g>
</g>
<!-- Node28&#45;&gt;Node3 -->
<g id="edge31_Node000028_Node000003" class="edge">
<title>Node28&#45;&gt;Node3</title>
<g id="a_edge31_Node000028_Node000003"><a xlink:title=" ">
<path fill="none" stroke="#63b8ff" d="M458.11,-803.08C449.29,-806.35 440.34,-809.88 432,-813.5 402.91,-826.14 370.86,-843.22 348.99,-855.38"/>
<polygon fill="#63b8ff" stroke="#63b8ff" points="459.38,-806.34 467.59,-799.64 456.99,-799.76 459.38,-806.34"/>
</a>
</g>
</g>
<!-- Node29&#45;&gt;Node3 -->
<g id="edge33_Node000029_Node000003" class="edge">
<title>Node29&#45;&gt;Node3</title>
<g id="a_edge33_Node000029_Node000003"><a xlink:title=" ">
<path fill="none" stroke="#63b8ff" d="M649.74,-829.27C590.12,-831.42 505.5,-836.14 432,-846.5 415.72,-848.8 398.25,-852.19 382.16,-855.71"/>
<polygon fill="#63b8ff" stroke="#63b8ff" points="649.96,-832.77 659.83,-828.93 649.72,-825.77 649.96,-832.77"/>
</a>
</g>
</g>
<!-- Node29&#45;&gt;Node9 -->
<g id="edge34_Node000029_Node000009" class="edge">
<title>Node29&#45;&gt;Node9</title>
<g id="a_edge34_Node000029_Node000009"><a xlink:title=" ">
<path fill="none" stroke="#63b8ff" d="M650.03,-843.12C630.28,-847.16 609.07,-851.49 589.47,-855.49"/>
<polygon fill="#63b8ff" stroke="#63b8ff" points="650.8,-846.54 659.9,-841.11 649.4,-839.68 650.8,-846.54"/>
</a>
</g>
</g>
<!-- Node30&#45;&gt;Node24 -->
<g id="edge36_Node000030_Node000024" class="edge">
<title>Node30&#45;&gt;Node24</title>
<g id="a_edge36_Node000030_Node000024"><a xlink:title=" ">
<path fill="none" stroke="#63b8ff" d="M444.27,-83.24C423.86,-85.8 401.73,-88.57 382.01,-91.04"/>
<polygon fill="#63b8ff" stroke="#63b8ff" points="444.97,-86.68 454.46,-81.96 444.1,-79.73 444.97,-86.68"/>
</a>
</g>
</g>
</g>
</svg>

<g id="navigator" transform="translate(0 0)" fill="#404254">
  <rect fill="#f2f5e9" fill-opacity="0.5" stroke="#606060" stroke-width=".5" x="0" y="0" width="60" height="60"/>
  <use id="zoomplus" xlink:href="#zoomPlus" x="17" y="9" onmousedown="handleZoom(evt,'in')"/>
  <use id="zoomminus" xlink:href="#zoomMin" x="42" y="9" onmousedown="handleZoom(evt,'out')"/>
  <use id="reset" xlink:href="#resetDef" x="30" y="36" onmousedown="handleReset()"/>
   <use id="arrowup" xlink:href="#arrowUp" x="0" y="0" onmousedown="handlePan(0,-1)"/>
  <use id="arrowright" xlink:href="#arrowRight" x="0" y="0" onmousedown="handlePan(1,0)"/>
  <use id="arrowdown" xlink:href="#arrowDown" x="0" y="0" onmousedown="handlePan(0,1)"/>
  <use id="arrowleft" xlink:href="#arrowLeft" x="0" y="0" onmousedown="handlePan(-1,0)"/>
</g>
<svg viewBox="0 0 15 15" width="100%" height="30px" preserveAspectRatio="xMaxYMin meet">
 <g id="arrow_out" transform="scale(0.3 0.3)">
  <a xlink:href="classpolyfem_1_1_state_acbf1bd51beeb042d38c595223fe348a5_icgraph_org.svg" target="_base">
   <rect id="button" ry="5" rx="5" y="6" x="6" height="38" width="38"
        fill="#f2f5e9" fill-opacity="0.5" stroke="#606060" stroke-width="1.0"/>
   <path id="arrow"
     d="M 11.500037,31.436501 C 11.940474,20.09759 22.043105,11.32322 32.158766,21.979434 L 37.068811,17.246167 C 37.068811,17.246167 37.088388,32 37.088388,32 L 22.160133,31.978069 C 22.160133,31.978069 26.997745,27.140456 26.997745,27.140456 C 18.528582,18.264221 13.291696,25.230495 11.500037,31.436501 z"
     style="fill:#404040;"/>
  </a>
 </g>
</svg>

<style type='text/css'>
<![CDATA[
[data-mouse-over-selected='false'] { opacity: 0.7; }
[data-mouse-over-selected='true']  { opacity: 1.0; }
]]>
</style>
<script type="application/ecmascript"><![CDATA[
document.addEventListener('DOMContentLoaded', (event) => {
  highlightEdges();
  highlightAdjacentNodes();
});
]]></script>
</svg>
