<?xml version="1.0" encoding="UTF-8" standalone="no"?>
<!DOCTYPE svg PUBLIC "-//W3C//DTD SVG 1.1//EN"
 "http://www.w3.org/Graphics/SVG/1.1/DTD/svg11.dtd">
<!-- Generated by graphviz version 2.43.0 (0)
 -->
<!-- Title: polyfem::solver::LayerThicknessForm::LayerThicknessForm Pages: 1 -->
<svg width="1117pt" height="670pt"
 viewBox="0.00 0.00 1117.00 670.00" xmlns="http://www.w3.org/2000/svg" xmlns:xlink="http://www.w3.org/1999/xlink">
<g id="graph0" class="graph" transform="scale(1 1) rotate(0) translate(4 666)">
<title>polyfem::solver::LayerThicknessForm::LayerThicknessForm</title>
<!-- Node1 -->
<g id="Node000001" class="node">
<title>Node1</title>
<g id="a_Node000001"><a xlink:title=" ">
<polygon fill="#999999" stroke="#666666" points="175,-284 0,-284 0,-254 175,-254 175,-284"/>
<text text-anchor="start" x="8" y="-272" font-family="Helvetica,sans-Serif" font-size="10.00">polyfem::solver::LayerThickness</text>
<text text-anchor="middle" x="87.5" y="-261" font-family="Helvetica,sans-Serif" font-size="10.00">Form::LayerThicknessForm</text>
</a>
</g>
</g>
<!-- Node2 -->
<g id="Node000002" class="node">
<title>Node2</title>
<g id="a_Node000002"><a xlink:href="classpolyfem_1_1solver_1_1_layer_thickness_form.html#a693933fa2ef87a1c4225fdc0d29d86cb" target="_top" xlink:title=" ">
<polygon fill="white" stroke="#666666" points="386,-284 211,-284 211,-254 386,-254 386,-284"/>
<text text-anchor="start" x="219" y="-272" font-family="Helvetica,sans-Serif" font-size="10.00">polyfem::solver::LayerThickness</text>
<text text-anchor="middle" x="298.5" y="-261" font-family="Helvetica,sans-Serif" font-size="10.00">Form::build_collision_mesh</text>
</a>
</g>
</g>
<!-- Node1&#45;&gt;Node2 -->
<g id="edge1_Node000001_Node000002" class="edge">
<title>Node1&#45;&gt;Node2</title>
<g id="a_edge1_Node000001_Node000002"><a xlink:title=" ">
<path fill="none" stroke="#63b8ff" d="M175.02,-269C183.49,-269 192.13,-269 200.7,-269"/>
<polygon fill="#63b8ff" stroke="#63b8ff" points="200.71,-272.5 210.71,-269 200.71,-265.5 200.71,-272.5"/>
</a>
</g>
</g>
<!-- Node3 -->
<g id="Node000003" class="node">
<title>Node3</title>
<g id="a_Node000003"><a xlink:href="classpolyfem_1_1utils_1_1_boundary_sampler.html#a78db6a08b1deb5628dac7845fe58bebc" target="_top" xlink:title=" ">
<polygon fill="white" stroke="#666666" points="589,-566 422,-566 422,-536 589,-536 589,-566"/>
<text text-anchor="start" x="430" y="-554" font-family="Helvetica,sans-Serif" font-size="10.00">polyfem::utils::Boundary</text>
<text text-anchor="middle" x="505.5" y="-543" font-family="Helvetica,sans-Serif" font-size="10.00">Sampler::boundary_quadrature</text>
</a>
</g>
</g>
<!-- Node2&#45;&gt;Node3 -->
<g id="edge2_Node000002_Node000003" class="edge">
<title>Node2&#45;&gt;Node3</title>
<g id="a_edge2_Node000002_Node000003"><a xlink:title=" ">
<path fill="none" stroke="#63b8ff" d="M310.52,-284.16C344.31,-330.64 446.61,-471.37 487.42,-527.51"/>
<polygon fill="#63b8ff" stroke="#63b8ff" points="484.71,-529.73 493.42,-535.76 490.37,-525.62 484.71,-529.73"/>
</a>
</g>
</g>
<!-- Node8 -->
<g id="Node000008" class="node">
<title>Node8</title>
<g id="a_Node000008"><a xlink:href="classpolyfem_1_1legacy_1_1io_1_1_out_geometry_data.html#a8f1bbf762358067e65177fe10b283e58" target="_top" xlink:title="extracts the boundary mesh">
<polygon fill="white" stroke="#666666" points="581.5,-289.5 429.5,-289.5 429.5,-248.5 581.5,-248.5 581.5,-289.5"/>
<text text-anchor="start" x="437.5" y="-277.5" font-family="Helvetica,sans-Serif" font-size="10.00">polyfem::legacy::io</text>
<text text-anchor="start" x="437.5" y="-266.5" font-family="Helvetica,sans-Serif" font-size="10.00">::OutGeometryData::extract</text>
<text text-anchor="middle" x="505.5" y="-255.5" font-family="Helvetica,sans-Serif" font-size="10.00">_boundary_mesh</text>
</a>
</g>
</g>
<!-- Node2&#45;&gt;Node8 -->
<g id="edge7_Node000002_Node000008" class="edge">
<title>Node2&#45;&gt;Node8</title>
<g id="a_edge7_Node000002_Node000008"><a xlink:title=" ">
<path fill="none" stroke="#63b8ff" d="M386.14,-269C396.99,-269 408.08,-269 418.91,-269"/>
<polygon fill="#63b8ff" stroke="#63b8ff" points="419.2,-272.5 429.2,-269 419.2,-265.5 419.2,-272.5"/>
</a>
</g>
</g>
<!-- Node23 -->
<g id="Node000023" class="node">
<title>Node23</title>
<g id="a_Node000023"><a xlink:href="classpolyfem_1_1basis_1_1_element_bases.html#a9fde226f98331cb0c54e13baa95d5a98" target="_top" xlink:title=" ">
<polygon fill="white" stroke="#666666" points="587.5,-230 423.5,-230 423.5,-200 587.5,-200 587.5,-230"/>
<text text-anchor="start" x="431.5" y="-218" font-family="Helvetica,sans-Serif" font-size="10.00">polyfem::basis::ElementBases</text>
<text text-anchor="middle" x="505.5" y="-207" font-family="Helvetica,sans-Serif" font-size="10.00">::local_nodes_for_primitive</text>
</a>
</g>
</g>
<!-- Node2&#45;&gt;Node23 -->
<g id="edge26_Node000002_Node000023" class="edge">
<title>Node2&#45;&gt;Node23</title>
<g id="a_edge26_Node000002_Node000023"><a xlink:title=" ">
<path fill="none" stroke="#63b8ff" d="M356.6,-253.96C381.71,-247.34 411.37,-239.53 437.52,-232.64"/>
<polygon fill="#63b8ff" stroke="#63b8ff" points="438.57,-235.99 447.35,-230.05 436.79,-229.22 438.57,-235.99"/>
</a>
</g>
</g>
<!-- Node4 -->
<g id="Node000004" class="node">
<title>Node4</title>
<g id="a_Node000004"><a xlink:href="classpolyfem_1_1mesh_1_1_local_boundary.html#a626a35ec8d903d5f0862ee38f53b1508" target="_top" xlink:title="Get the element&#39;s ID.">
<polygon fill="white" stroke="#666666" points="793,-518 625,-518 625,-488 793,-488 793,-518"/>
<text text-anchor="start" x="633" y="-506" font-family="Helvetica,sans-Serif" font-size="10.00">polyfem::mesh::LocalBoundary</text>
<text text-anchor="middle" x="709" y="-495" font-family="Helvetica,sans-Serif" font-size="10.00">::element_id</text>
</a>
</g>
</g>
<!-- Node3&#45;&gt;Node4 -->
<g id="edge3_Node000003_Node000004" class="edge">
<title>Node3&#45;&gt;Node4</title>
<g id="a_edge3_Node000003_Node000004"><a xlink:title=" ">
<path fill="none" stroke="#63b8ff" d="M569.7,-535.94C590.43,-531.01 613.63,-525.48 635.01,-520.39"/>
<polygon fill="#63b8ff" stroke="#63b8ff" points="636.1,-523.72 645.02,-518 634.48,-516.92 636.1,-523.72"/>
</a>
</g>
</g>
<!-- Node5 -->
<g id="Node000005" class="node">
<title>Node5</title>
<g id="a_Node000005"><a xlink:href="classpolyfem_1_1mesh_1_1_local_boundary.html#aa832a6de9bb5d595c5af621c1a7aca88" target="_top" xlink:title="Get the i&#45;th boundary primitive&#39;s global ID.">
<polygon fill="white" stroke="#666666" points="793,-662 625,-662 625,-632 793,-632 793,-662"/>
<text text-anchor="start" x="633" y="-650" font-family="Helvetica,sans-Serif" font-size="10.00">polyfem::mesh::LocalBoundary</text>
<text text-anchor="middle" x="709" y="-639" font-family="Helvetica,sans-Serif" font-size="10.00">::global_primitive_id</text>
</a>
</g>
</g>
<!-- Node3&#45;&gt;Node5 -->
<g id="edge4_Node000003_Node000005" class="edge">
<title>Node3&#45;&gt;Node5</title>
<g id="a_edge4_Node000003_Node000005"><a xlink:title=" ">
<path fill="none" stroke="#63b8ff" d="M527.41,-566.06C550.39,-582.04 588.85,-607.13 625,-623 629.6,-625.02 634.42,-626.92 639.33,-628.71"/>
<polygon fill="#63b8ff" stroke="#63b8ff" points="638.22,-632.03 648.82,-631.98 640.51,-625.41 638.22,-632.03"/>
</a>
</g>
</g>
<!-- Node6 -->
<g id="Node000006" class="node">
<title>Node6</title>
<g id="a_Node000006"><a xlink:href="classpolyfem_1_1mesh_1_1_local_boundary.html#a958c24908487b959468e380dccb42644" target="_top" xlink:title="Number of boundary primitives for the element.">
<polygon fill="white" stroke="#666666" points="793,-614 625,-614 625,-584 793,-584 793,-614"/>
<text text-anchor="start" x="633" y="-602" font-family="Helvetica,sans-Serif" font-size="10.00">polyfem::mesh::LocalBoundary</text>
<text text-anchor="middle" x="709" y="-591" font-family="Helvetica,sans-Serif" font-size="10.00">::size</text>
</a>
</g>
</g>
<!-- Node3&#45;&gt;Node6 -->
<g id="edge5_Node000003_Node000006" class="edge">
<title>Node3&#45;&gt;Node6</title>
<g id="a_edge5_Node000003_Node000006"><a xlink:title=" ">
<path fill="none" stroke="#63b8ff" d="M569.7,-566.06C590.43,-570.99 613.63,-576.52 635.01,-581.61"/>
<polygon fill="#63b8ff" stroke="#63b8ff" points="634.48,-585.08 645.02,-584 636.1,-578.28 634.48,-585.08"/>
</a>
</g>
</g>
<!-- Node7 -->
<g id="Node000007" class="node">
<title>Node7</title>
<g id="a_Node000007"><a xlink:href="classpolyfem_1_1mesh_1_1_local_boundary.html#aa8a84d69ace838297dcca7bd12e6d34b" target="_top" xlink:title="Get the type of boundary for the element.">
<polygon fill="white" stroke="#666666" points="793,-566 625,-566 625,-536 793,-536 793,-566"/>
<text text-anchor="start" x="633" y="-554" font-family="Helvetica,sans-Serif" font-size="10.00">polyfem::mesh::LocalBoundary</text>
<text text-anchor="middle" x="709" y="-543" font-family="Helvetica,sans-Serif" font-size="10.00">::type</text>
</a>
</g>
</g>
<!-- Node3&#45;&gt;Node7 -->
<g id="edge6_Node000003_Node000007" class="edge">
<title>Node3&#45;&gt;Node7</title>
<g id="a_edge6_Node000003_Node000007"><a xlink:title=" ">
<path fill="none" stroke="#63b8ff" d="M589.04,-551C597.55,-551 606.25,-551 614.87,-551"/>
<polygon fill="#63b8ff" stroke="#63b8ff" points="614.94,-554.5 624.94,-551 614.94,-547.5 614.94,-554.5"/>
</a>
</g>
</g>
<!-- Node9 -->
<g id="Node000009" class="node">
<title>Node9</title>
<g id="a_Node000009"><a xlink:href="classpolyfem_1_1basis_1_1_basis.html#a88b90af0c63d52f2c91fe97a63c540ce" target="_top" xlink:title=" ">
<polygon fill="white" stroke="#666666" points="769.5,-308 648.5,-308 648.5,-278 769.5,-278 769.5,-308"/>
<text text-anchor="start" x="656.5" y="-296" font-family="Helvetica,sans-Serif" font-size="10.00">polyfem::basis::Basis</text>
<text text-anchor="middle" x="709" y="-285" font-family="Helvetica,sans-Serif" font-size="10.00">::global</text>
</a>
</g>
</g>
<!-- Node8&#45;&gt;Node9 -->
<g id="edge8_Node000008_Node000009" class="edge">
<title>Node8&#45;&gt;Node9</title>
<g id="a_edge8_Node000008_Node000009"><a xlink:title=" ">
<path fill="none" stroke="#63b8ff" d="M581.53,-277.94C600.13,-280.15 619.98,-282.52 638.31,-284.7"/>
<polygon fill="#63b8ff" stroke="#63b8ff" points="637.98,-288.18 648.32,-285.89 638.81,-281.23 637.98,-288.18"/>
</a>
</g>
</g>
<!-- Node10 -->
<g id="Node000010" class="node">
<title>Node10</title>
<g id="a_Node000010"><a xlink:href="classpolyfem_1_1mesh_1_1_mesh.html#aa9e6bd69e6a7dff10d11a335390c1062" target="_top" xlink:title="checks if the mesh has polytopes">
<polygon fill="white" stroke="#666666" points="770,-212 648,-212 648,-182 770,-182 770,-212"/>
<text text-anchor="start" x="656" y="-200" font-family="Helvetica,sans-Serif" font-size="10.00">polyfem::mesh::Mesh</text>
<text text-anchor="middle" x="709" y="-189" font-family="Helvetica,sans-Serif" font-size="10.00">::has_poly</text>
</a>
</g>
</g>
<!-- Node8&#45;&gt;Node10 -->
<g id="edge9_Node000008_Node000010" class="edge">
<title>Node8&#45;&gt;Node10</title>
<g id="a_edge9_Node000008_Node000010"><a xlink:title=" ">
<path fill="none" stroke="#63b8ff" d="M565.86,-248.35C573.7,-245.35 581.58,-242.19 589,-239 605.43,-231.93 608.34,-227.51 625,-221 630.15,-218.99 635.54,-217.06 640.99,-215.22"/>
<polygon fill="#63b8ff" stroke="#63b8ff" points="642.4,-218.45 650.84,-212.04 640.25,-211.79 642.4,-218.45"/>
</a>
</g>
</g>
<!-- Node13 -->
<g id="Node000013" class="node">
<title>Node13</title>
<g id="a_Node000013"><a xlink:href="classpolyfem_1_1mesh_1_1_mesh.html#a93c9ea4759ded33a8f25ff157033cfd9" target="_top" xlink:title="checks if mesh is volume">
<polygon fill="white" stroke="#666666" points="1109,-367 987,-367 987,-337 1109,-337 1109,-367"/>
<text text-anchor="start" x="995" y="-355" font-family="Helvetica,sans-Serif" font-size="10.00">polyfem::mesh::Mesh</text>
<text text-anchor="middle" x="1048" y="-344" font-family="Helvetica,sans-Serif" font-size="10.00">::is_volume</text>
</a>
</g>
</g>
<!-- Node8&#45;&gt;Node13 -->
<g id="edge23_Node000008_Node000013" class="edge">
<title>Node8&#45;&gt;Node13</title>
<g id="a_edge23_Node000008_Node000013"><a xlink:title=" ">
<path fill="none" stroke="#63b8ff" d="M521.77,-289.64C542.05,-315.11 580.54,-357.14 625,-374 747.27,-420.38 903.87,-391.5 987.71,-369.69"/>
<polygon fill="#63b8ff" stroke="#63b8ff" points="988.8,-373.02 997.56,-367.07 987,-366.25 988.8,-373.02"/>
</a>
</g>
</g>
<!-- Node15 -->
<g id="Node000015" class="node">
<title>Node15</title>
<g id="a_Node000015"><a xlink:href="classpolyfem_1_1mesh_1_1_mesh.html#abf0f721370d6dc7401113e92fe94f4e2" target="_top" xlink:title="number of faces">
<polygon fill="white" stroke="#666666" points="1109,-191 987,-191 987,-161 1109,-161 1109,-191"/>
<text text-anchor="start" x="995" y="-179" font-family="Helvetica,sans-Serif" font-size="10.00">polyfem::mesh::Mesh</text>
<text text-anchor="middle" x="1048" y="-168" font-family="Helvetica,sans-Serif" font-size="10.00">::n_faces</text>
</a>
</g>
</g>
<!-- Node8&#45;&gt;Node15 -->
<g id="edge25_Node000008_Node000015" class="edge">
<title>Node8&#45;&gt;Node15</title>
<g id="a_edge25_Node000008_Node000015"><a xlink:title=" ">
<path fill="none" stroke="#63b8ff" d="M575.75,-248.3C580.47,-245.56 584.96,-242.48 589,-239 614.34,-217.22 596.27,-190.06 625,-173 682.46,-138.89 872.32,-154.92 976.7,-166.95"/>
<polygon fill="#63b8ff" stroke="#63b8ff" points="976.5,-170.45 986.84,-168.13 977.31,-163.49 976.5,-170.45"/>
</a>
</g>
</g>
<!-- Node16 -->
<g id="Node000016" class="node">
<title>Node16</title>
<g id="a_Node000016"><a xlink:href="classpolyfem_1_1mesh_1_1_mesh.html#a361e99b40e151869564304da752e4ea4" target="_top" xlink:title="if the mesh is conforming">
<polygon fill="white" stroke="#666666" points="770,-126 648,-126 648,-96 770,-96 770,-126"/>
<text text-anchor="start" x="656" y="-114" font-family="Helvetica,sans-Serif" font-size="10.00">polyfem::mesh::Mesh</text>
<text text-anchor="middle" x="709" y="-103" font-family="Helvetica,sans-Serif" font-size="10.00">::is_conforming</text>
</a>
</g>
</g>
<!-- Node8&#45;&gt;Node16 -->
<g id="edge15_Node000008_Node000016" class="edge">
<title>Node8&#45;&gt;Node16</title>
<g id="a_edge15_Node000008_Node000016"><a xlink:title=" ">
<path fill="none" stroke="#63b8ff" d="M577.15,-248.46C581.43,-245.69 585.44,-242.56 589,-239 622.11,-205.89 591.69,-172.9 625,-140 629.01,-136.05 633.58,-132.63 638.47,-129.68"/>
<polygon fill="#63b8ff" stroke="#63b8ff" points="640.38,-132.62 647.58,-124.85 637.1,-126.44 640.38,-132.62"/>
</a>
</g>
</g>
<!-- Node17 -->
<g id="Node000017" class="node">
<title>Node17</title>
<g id="a_Node000017"><a xlink:href="classpolyfem_1_1mesh_1_1_mesh.html#a4ac6c05b7775df67b96087dc9721ee0a" target="_top" xlink:title="checks if element is cube compatible">
<polygon fill="white" stroke="#666666" points="770,-78 648,-78 648,-48 770,-48 770,-78"/>
<text text-anchor="start" x="656" y="-66" font-family="Helvetica,sans-Serif" font-size="10.00">polyfem::mesh::Mesh</text>
<text text-anchor="middle" x="709" y="-55" font-family="Helvetica,sans-Serif" font-size="10.00">::is_cube</text>
</a>
</g>
</g>
<!-- Node8&#45;&gt;Node17 -->
<g id="edge16_Node000008_Node000017" class="edge">
<title>Node8&#45;&gt;Node17</title>
<g id="a_edge16_Node000008_Node000017"><a xlink:title=" ">
<path fill="none" stroke="#63b8ff" d="M578.38,-248.39C582.27,-245.64 585.86,-242.53 589,-239 635.16,-187.14 577.12,-137.28 625,-87 628.94,-82.86 633.55,-79.42 638.54,-76.56"/>
<polygon fill="#63b8ff" stroke="#63b8ff" points="640.41,-79.55 647.88,-72.03 637.35,-73.25 640.41,-79.55"/>
</a>
</g>
</g>
<!-- Node18 -->
<g id="Node000018" class="node">
<title>Node18</title>
<g id="a_Node000018"><a xlink:href="classpolyfem_1_1mesh_1_1_mesh.html#a7c0554e28a4b3dd8ded2835e6ecece2d" target="_top" xlink:title="checks if element is a prism">
<polygon fill="white" stroke="#666666" points="770,-30 648,-30 648,0 770,0 770,-30"/>
<text text-anchor="start" x="656" y="-18" font-family="Helvetica,sans-Serif" font-size="10.00">polyfem::mesh::Mesh</text>
<text text-anchor="middle" x="709" y="-7" font-family="Helvetica,sans-Serif" font-size="10.00">::is_prism</text>
</a>
</g>
</g>
<!-- Node8&#45;&gt;Node18 -->
<g id="edge17_Node000008_Node000018" class="edge">
<title>Node8&#45;&gt;Node18</title>
<g id="a_edge17_Node000008_Node000018"><a xlink:title=" ">
<path fill="none" stroke="#63b8ff" d="M578.98,-248.32C582.67,-245.59 586.05,-242.5 589,-239 647.19,-169.92 564.52,-106.08 625,-39 628.99,-34.58 633.74,-30.95 638.92,-27.97"/>
<polygon fill="#63b8ff" stroke="#63b8ff" points="640.52,-31.08 647.98,-23.56 637.45,-24.79 640.52,-31.08"/>
</a>
</g>
</g>
<!-- Node19 -->
<g id="Node000019" class="node">
<title>Node19</title>
<g id="a_Node000019"><a xlink:href="classpolyfem_1_1mesh_1_1_mesh.html#ae5062c39658f45ea84535348c96f8619" target="_top" xlink:title="checks if element is a pyramid">
<polygon fill="white" stroke="#666666" points="770,-470 648,-470 648,-440 770,-440 770,-470"/>
<text text-anchor="start" x="656" y="-458" font-family="Helvetica,sans-Serif" font-size="10.00">polyfem::mesh::Mesh</text>
<text text-anchor="middle" x="709" y="-447" font-family="Helvetica,sans-Serif" font-size="10.00">::is_pyramid</text>
</a>
</g>
</g>
<!-- Node8&#45;&gt;Node19 -->
<g id="edge18_Node000008_Node000019" class="edge">
<title>Node8&#45;&gt;Node19</title>
<g id="a_edge18_Node000008_Node000019"><a xlink:title=" ">
<path fill="none" stroke="#63b8ff" d="M516.87,-289.67C534.59,-323 573.82,-388.67 625,-426 630.02,-429.66 635.54,-432.89 641.27,-435.73"/>
<polygon fill="#63b8ff" stroke="#63b8ff" points="639.87,-438.94 650.42,-439.89 642.76,-432.56 639.87,-438.94"/>
</a>
</g>
</g>
<!-- Node20 -->
<g id="Node000020" class="node">
<title>Node20</title>
<g id="a_Node000020"><a xlink:href="classpolyfem_1_1mesh_1_1_mesh.html#a62e57386728f26b8feafea1043b65c21" target="_top" xlink:title="checks if element is simplex">
<polygon fill="white" stroke="#666666" points="951,-346 829,-346 829,-316 951,-316 951,-346"/>
<text text-anchor="start" x="837" y="-334" font-family="Helvetica,sans-Serif" font-size="10.00">polyfem::mesh::Mesh</text>
<text text-anchor="middle" x="890" y="-323" font-family="Helvetica,sans-Serif" font-size="10.00">::is_simplex</text>
</a>
</g>
</g>
<!-- Node8&#45;&gt;Node20 -->
<g id="edge19_Node000008_Node000020" class="edge">
<title>Node8&#45;&gt;Node20</title>
<g id="a_edge19_Node000008_Node000020"><a xlink:title=" ">
<path fill="none" stroke="#63b8ff" d="M526.45,-289.74C548.33,-310.84 585.59,-342.21 625,-355 694.23,-377.47 778.68,-363.02 833.12,-348.69"/>
<polygon fill="#63b8ff" stroke="#63b8ff" points="834.2,-352.02 842.93,-346.02 832.36,-345.27 834.2,-352.02"/>
</a>
</g>
</g>
<!-- Node21 -->
<g id="Node000021" class="node">
<title>Node21</title>
<g id="a_Node000021"><a xlink:href="classpolyfem_1_1mesh_1_1_mesh.html#a344f3d37fa834c16ad395adce5c9e154" target="_top" xlink:title="checks if the mesh is simplicial">
<polygon fill="white" stroke="#666666" points="770,-260 648,-260 648,-230 770,-230 770,-260"/>
<text text-anchor="start" x="656" y="-248" font-family="Helvetica,sans-Serif" font-size="10.00">polyfem::mesh::Mesh</text>
<text text-anchor="middle" x="709" y="-237" font-family="Helvetica,sans-Serif" font-size="10.00">::is_simplicial</text>
</a>
</g>
</g>
<!-- Node8&#45;&gt;Node21 -->
<g id="edge20_Node000008_Node000021" class="edge">
<title>Node8&#45;&gt;Node21</title>
<g id="a_edge20_Node000008_Node000021"><a xlink:title=" ">
<path fill="none" stroke="#63b8ff" d="M581.53,-260.06C599.94,-257.87 619.58,-255.53 637.75,-253.37"/>
<polygon fill="#63b8ff" stroke="#63b8ff" points="638.17,-256.84 647.68,-252.18 637.34,-249.89 638.17,-256.84"/>
</a>
</g>
</g>
<!-- Node22 -->
<g id="Node000022" class="node">
<title>Node22</title>
<g id="a_Node000022"><a xlink:href="namespacepolyfem.html#a03f3d75072d2fd19f70cd886a51d10dd" target="_top" xlink:title="Retrieves the current logger.">
<polygon fill="white" stroke="#666666" points="756,-345.5 662,-345.5 662,-326.5 756,-326.5 756,-345.5"/>
<text text-anchor="middle" x="709" y="-333.5" font-family="Helvetica,sans-Serif" font-size="10.00">polyfem::logger</text>
</a>
</g>
</g>
<!-- Node8&#45;&gt;Node22 -->
<g id="edge24_Node000008_Node000022" class="edge">
<title>Node8&#45;&gt;Node22</title>
<g id="a_edge24_Node000008_Node000022"><a xlink:title=" ">
<path fill="none" stroke="#63b8ff" d="M552.3,-289.55C574.04,-298.78 600.55,-309.3 625,-317 633.7,-319.74 643.02,-322.26 652.17,-324.51"/>
<polygon fill="#63b8ff" stroke="#63b8ff" points="651.45,-327.94 661.98,-326.84 653.07,-321.13 651.45,-327.94"/>
</a>
</g>
</g>
<!-- Node11 -->
<g id="Node000011" class="node">
<title>Node11</title>
<g id="a_Node000011"><a xlink:href="classpolyfem_1_1mesh_1_1_mesh.html#a11e698a1c82ee90edab1e7a607808779" target="_top" xlink:title="checks if element is polygon compatible">
<polygon fill="white" stroke="#666666" points="951,-212 829,-212 829,-182 951,-182 951,-212"/>
<text text-anchor="start" x="837" y="-200" font-family="Helvetica,sans-Serif" font-size="10.00">polyfem::mesh::Mesh</text>
<text text-anchor="middle" x="890" y="-189" font-family="Helvetica,sans-Serif" font-size="10.00">::is_polytope</text>
</a>
</g>
</g>
<!-- Node10&#45;&gt;Node11 -->
<g id="edge10_Node000010_Node000011" class="edge">
<title>Node10&#45;&gt;Node11</title>
<g id="a_edge10_Node000010_Node000011"><a xlink:title=" ">
<path fill="none" stroke="#63b8ff" d="M770.1,-197C785.6,-197 802.42,-197 818.4,-197"/>
<polygon fill="#63b8ff" stroke="#63b8ff" points="818.75,-200.5 828.75,-197 818.75,-193.5 818.75,-200.5"/>
</a>
</g>
</g>
<!-- Node12 -->
<g id="Node000012" class="node">
<title>Node12</title>
<g id="a_Node000012"><a xlink:href="classpolyfem_1_1mesh_1_1_mesh.html#a0140181b551c7bf0c162d6898155f294" target="_top" xlink:title="utitlity to return the number of elements, cells or faces in 3d and 2d">
<polygon fill="white" stroke="#666666" points="951,-260 829,-260 829,-230 951,-230 951,-260"/>
<text text-anchor="start" x="837" y="-248" font-family="Helvetica,sans-Serif" font-size="10.00">polyfem::mesh::Mesh</text>
<text text-anchor="middle" x="890" y="-237" font-family="Helvetica,sans-Serif" font-size="10.00">::n_elements</text>
</a>
</g>
</g>
<!-- Node10&#45;&gt;Node12 -->
<g id="edge11_Node000010_Node000012" class="edge">
<title>Node10&#45;&gt;Node12</title>
<g id="a_edge11_Node000010_Node000012"><a xlink:title=" ">
<path fill="none" stroke="#63b8ff" d="M766.15,-212.06C784.31,-216.93 804.6,-222.37 823.39,-227.41"/>
<polygon fill="#63b8ff" stroke="#63b8ff" points="822.49,-230.79 833.05,-230 824.3,-224.03 822.49,-230.79"/>
</a>
</g>
</g>
<!-- Node12&#45;&gt;Node13 -->
<g id="edge12_Node000012_Node000013" class="edge">
<title>Node12&#45;&gt;Node13</title>
<g id="a_edge12_Node000012_Node000013"><a xlink:title=" ">
<path fill="none" stroke="#63b8ff" d="M913.02,-260.1C940.08,-278.66 986.14,-310.26 1016.57,-331.13"/>
<polygon fill="#63b8ff" stroke="#63b8ff" points="1014.87,-334.2 1025.09,-336.97 1018.83,-328.43 1014.87,-334.2"/>
</a>
</g>
</g>
<!-- Node14 -->
<g id="Node000014" class="node">
<title>Node14</title>
<g id="a_Node000014"><a xlink:href="classpolyfem_1_1mesh_1_1_mesh.html#aaf5c9547e7891266b92e6f1a2ac5d697" target="_top" xlink:title="number of cells">
<polygon fill="white" stroke="#666666" points="1109,-260 987,-260 987,-230 1109,-230 1109,-260"/>
<text text-anchor="start" x="995" y="-248" font-family="Helvetica,sans-Serif" font-size="10.00">polyfem::mesh::Mesh</text>
<text text-anchor="middle" x="1048" y="-237" font-family="Helvetica,sans-Serif" font-size="10.00">::n_cells</text>
</a>
</g>
</g>
<!-- Node12&#45;&gt;Node14 -->
<g id="edge13_Node000012_Node000014" class="edge">
<title>Node12&#45;&gt;Node14</title>
<g id="a_edge13_Node000012_Node000014"><a xlink:title=" ">
<path fill="none" stroke="#63b8ff" d="M951.31,-245C959.6,-245 968.17,-245 976.63,-245"/>
<polygon fill="#63b8ff" stroke="#63b8ff" points="976.85,-248.5 986.85,-245 976.85,-241.5 976.85,-248.5"/>
</a>
</g>
</g>
<!-- Node12&#45;&gt;Node15 -->
<g id="edge14_Node000012_Node000015" class="edge">
<title>Node12&#45;&gt;Node15</title>
<g id="a_edge14_Node000012_Node000015"><a xlink:title=" ">
<path fill="none" stroke="#63b8ff" d="M929.55,-229.96C936.71,-227.06 944.1,-223.99 951,-221 969.52,-212.96 989.8,-203.55 1006.92,-195.42"/>
<polygon fill="#63b8ff" stroke="#63b8ff" points="1008.56,-198.51 1016.08,-191.05 1005.55,-192.2 1008.56,-198.51"/>
</a>
</g>
</g>
<!-- Node21&#45;&gt;Node12 -->
<g id="edge22_Node000021_Node000012" class="edge">
<title>Node21&#45;&gt;Node12</title>
<g id="a_edge22_Node000021_Node000012"><a xlink:title=" ">
<path fill="none" stroke="#63b8ff" d="M770.1,-245C785.6,-245 802.42,-245 818.4,-245"/>
<polygon fill="#63b8ff" stroke="#63b8ff" points="818.75,-248.5 828.75,-245 818.75,-241.5 818.75,-248.5"/>
</a>
</g>
</g>
<!-- Node21&#45;&gt;Node20 -->
<g id="edge21_Node000021_Node000020" class="edge">
<title>Node21&#45;&gt;Node20</title>
<g id="a_edge21_Node000021_Node000020"><a xlink:title=" ">
<path fill="none" stroke="#63b8ff" d="M770.15,-260.12C777.97,-262.74 785.77,-265.7 793,-269 817.32,-280.08 842.61,-296.66 861.13,-309.89"/>
<polygon fill="#63b8ff" stroke="#63b8ff" points="859.24,-312.84 869.39,-315.88 863.36,-307.17 859.24,-312.84"/>
</a>
</g>
</g>
</g>
</svg>
