<?xml version="1.0" encoding="UTF-8" standalone="no"?>
<!DOCTYPE svg PUBLIC "-//W3C//DTD SVG 1.1//EN"
 "http://www.w3.org/Graphics/SVG/1.1/DTD/svg11.dtd">
<!-- Generated by graphviz version 2.43.0 (0)
 -->
<!-- Title: polyfem::mesh::NCMesh3D::edge_vertex Pages: 1 -->
<svg width="554pt" height="223pt"
 viewBox="0.00 0.00 554.00 223.00" xmlns="http://www.w3.org/2000/svg" xmlns:xlink="http://www.w3.org/1999/xlink">
<g id="graph0" class="graph" transform="scale(1 1) rotate(0) translate(4 219)">
<title>polyfem::mesh::NCMesh3D::edge_vertex</title>
<!-- Node1 -->
<g id="node1" class="node">
<title>Node1</title>
<g id="a_node1"><a xlink:title="id of the edge vertex">
<polygon fill="#999999" stroke="#666666" points="546,-145 396,-145 396,-115 546,-115 546,-145"/>
<text text-anchor="start" x="404" y="-133" font-family="Helvetica,sans-Serif" font-size="10.00">polyfem::mesh::NCMesh3D</text>
<text text-anchor="middle" x="471" y="-122" font-family="Helvetica,sans-Serif" font-size="10.00">::edge_vertex</text>
</a>
</g>
</g>
<!-- Node2 -->
<g id="node2" class="node">
<title>Node2</title>
<g id="a_node2"><a xlink:href="classpolyfem_1_1mesh_1_1_n_c_mesh3_d.html#ab8798c49d17b5bebf82e39c55dead3e2" target="_top" xlink:title="edge barycenter">
<polygon fill="white" stroke="#666666" points="360,-215 210,-215 210,-185 360,-185 360,-215"/>
<text text-anchor="start" x="218" y="-203" font-family="Helvetica,sans-Serif" font-size="10.00">polyfem::mesh::NCMesh3D</text>
<text text-anchor="middle" x="285" y="-192" font-family="Helvetica,sans-Serif" font-size="10.00">::edge_barycenter</text>
</a>
</g>
</g>
<!-- Node1&#45;&gt;Node2 -->
<g id="edge1" class="edge">
<title>Node1&#45;&gt;Node2</title>
<path fill="none" stroke="#63b8ff" d="M426.87,-149.01C406.71,-157.64 382.29,-167.74 360,-176 351.77,-179.05 342.95,-182.1 334.36,-184.95"/>
<polygon fill="#63b8ff" stroke="#63b8ff" points="428.3,-152.2 436.1,-145.03 425.53,-145.77 428.3,-152.2"/>
</g>
<!-- Node3 -->
<g id="node3" class="node">
<title>Node3</title>
<g id="a_node3"><a xlink:href="classpolyfem_1_1mesh_1_1_n_c_mesh3_d.html#a4e73c6795687666c5d7b040f977480b6" target="_top" xlink:title="edge length">
<polygon fill="white" stroke="#666666" points="360,-167 210,-167 210,-137 360,-137 360,-167"/>
<text text-anchor="start" x="218" y="-155" font-family="Helvetica,sans-Serif" font-size="10.00">polyfem::mesh::NCMesh3D</text>
<text text-anchor="middle" x="285" y="-144" font-family="Helvetica,sans-Serif" font-size="10.00">::edge_length</text>
</a>
</g>
</g>
<!-- Node1&#45;&gt;Node3 -->
<g id="edge2" class="edge">
<title>Node1&#45;&gt;Node3</title>
<path fill="none" stroke="#63b8ff" d="M385.93,-140.05C377.35,-141.08 368.66,-142.12 360.19,-143.13"/>
<polygon fill="#63b8ff" stroke="#63b8ff" points="386.44,-143.52 395.96,-138.85 385.61,-136.57 386.44,-143.52"/>
</g>
<!-- Node4 -->
<g id="node4" class="node">
<title>Node4</title>
<g id="a_node4"><a xlink:href="classpolyfem_1_1mesh_1_1_n_c_mesh3_d.html#aee7eea87ed322332f9933ae449fc4dcb" target="_top" xlink:title=" ">
<polygon fill="white" stroke="#666666" points="172.5,-126 1.5,-126 1.5,-96 172.5,-96 172.5,-126"/>
<text text-anchor="start" x="9.5" y="-114" font-family="Helvetica,sans-Serif" font-size="10.00">polyfem::mesh::NCMesh3D</text>
<text text-anchor="middle" x="87" y="-103" font-family="Helvetica,sans-Serif" font-size="10.00">::get_index_from_element_face</text>
</a>
</g>
</g>
<!-- Node1&#45;&gt;Node4 -->
<g id="edge3" class="edge">
<title>Node1&#45;&gt;Node4</title>
<path fill="none" stroke="#63b8ff" d="M385.54,-125.8C322.21,-122.65 235.9,-118.36 172.55,-115.21"/>
<polygon fill="#63b8ff" stroke="#63b8ff" points="385.73,-129.31 395.89,-126.31 386.08,-122.32 385.73,-129.31"/>
</g>
<!-- Node5 -->
<g id="node5" class="node">
<title>Node5</title>
<g id="a_node5"><a xlink:href="classpolyfem_1_1mesh_1_1_n_c_mesh3_d.html#a7d32ea3985e408f0c4f367f02b8fb774" target="_top" xlink:title=" ">
<polygon fill="white" stroke="#666666" points="360,-80 210,-80 210,-50 360,-50 360,-80"/>
<text text-anchor="start" x="218" y="-68" font-family="Helvetica,sans-Serif" font-size="10.00">polyfem::mesh::NCMesh3D</text>
<text text-anchor="middle" x="285" y="-57" font-family="Helvetica,sans-Serif" font-size="10.00">::switch_vertex</text>
</a>
</g>
</g>
<!-- Node1&#45;&gt;Node5 -->
<g id="edge4" class="edge">
<title>Node1&#45;&gt;Node5</title>
<path fill="none" stroke="#63b8ff" d="M417.65,-111.51C389.52,-101.57 355.28,-89.47 328.76,-80.11"/>
<polygon fill="#63b8ff" stroke="#63b8ff" points="416.73,-114.89 427.32,-114.92 419.06,-108.29 416.73,-114.89"/>
</g>
<!-- Node5&#45;&gt;Node4 -->
<g id="edge6" class="edge">
<title>Node5&#45;&gt;Node4</title>
<path fill="none" stroke="#63b8ff" d="M209.98,-82.37C190.89,-86.85 170.51,-91.63 151.99,-95.98"/>
<polygon fill="#63b8ff" stroke="#63b8ff" points="210.89,-85.75 219.82,-80.06 209.29,-78.94 210.89,-85.75"/>
</g>
<!-- Node6 -->
<g id="node6" class="node">
<title>Node6</title>
<g id="a_node6"><a xlink:href="classpolyfem_1_1mesh_1_1_n_c_mesh3_d.html#a6899bc07d12b5d6118e963e3c698c227" target="_top" xlink:title=" ">
<polygon fill="white" stroke="#666666" points="174,-78 0,-78 0,-48 174,-48 174,-78"/>
<text text-anchor="start" x="8" y="-66" font-family="Helvetica,sans-Serif" font-size="10.00">polyfem::mesh::NCMesh3D</text>
<text text-anchor="middle" x="87" y="-55" font-family="Helvetica,sans-Serif" font-size="10.00">::get_index_from_element_edge</text>
</a>
</g>
</g>
<!-- Node5&#45;&gt;Node6 -->
<g id="edge5" class="edge">
<title>Node5&#45;&gt;Node6</title>
<path fill="none" stroke="#63b8ff" d="M199.64,-64.14C191.16,-64.05 182.55,-63.96 174.05,-63.88"/>
<polygon fill="#63b8ff" stroke="#63b8ff" points="199.87,-67.64 209.9,-64.24 199.94,-60.64 199.87,-67.64"/>
</g>
<!-- Node7 -->
<g id="node7" class="node">
<title>Node7</title>
<g id="a_node7"><a xlink:href="classpolyfem_1_1mesh_1_1_n_c_mesh3_d.html#a9ec219f3f419a3b0de13accf4064ce33" target="_top" xlink:title=" ">
<polygon fill="white" stroke="#666666" points="162,-30 12,-30 12,0 162,0 162,-30"/>
<text text-anchor="start" x="20" y="-18" font-family="Helvetica,sans-Serif" font-size="10.00">polyfem::mesh::NCMesh3D</text>
<text text-anchor="middle" x="87" y="-7" font-family="Helvetica,sans-Serif" font-size="10.00">::next_around_face</text>
</a>
</g>
</g>
<!-- Node5&#45;&gt;Node7 -->
<g id="edge7" class="edge">
<title>Node5&#45;&gt;Node7</title>
<path fill="none" stroke="#63b8ff" d="M215.46,-47.52C193.17,-41.83 168.64,-35.57 147.1,-30.08"/>
<polygon fill="#63b8ff" stroke="#63b8ff" points="214.64,-50.92 225.19,-50 216.37,-44.14 214.64,-50.92"/>
</g>
</g>
</svg>
