<?xml version="1.0" encoding="UTF-8" standalone="no"?>
<!DOCTYPE svg PUBLIC "-//W3C//DTD SVG 1.1//EN"
 "http://www.w3.org/Graphics/SVG/1.1/DTD/svg11.dtd">
<!-- Generated by graphviz version 2.43.0 (0)
 -->
<!-- Title: polyfem::mesh::CMesh2D::compute_boundary_ids Pages: 1 -->
<svg width="509pt" height="134pt"
 viewBox="0.00 0.00 509.00 134.00" xmlns="http://www.w3.org/2000/svg" xmlns:xlink="http://www.w3.org/1999/xlink">
<g id="graph0" class="graph" transform="scale(1 1) rotate(0) translate(4 130)">
<title>polyfem::mesh::CMesh2D::compute_boundary_ids</title>
<!-- Node1 -->
<g id="Node000001" class="node">
<title>Node1</title>
<g id="a_Node000001"><a xlink:title="computes boundary selections based on a function">
<polygon fill="#999999" stroke="#666666" points="143,-78 0,-78 0,-48 143,-48 143,-78"/>
<text text-anchor="start" x="8" y="-66" font-family="Helvetica,sans-Serif" font-size="10.00">polyfem::mesh::CMesh2D</text>
<text text-anchor="middle" x="71.5" y="-55" font-family="Helvetica,sans-Serif" font-size="10.00">::compute_boundary_ids</text>
</a>
</g>
</g>
<!-- Node2 -->
<g id="Node000002" class="node">
<title>Node2</title>
<g id="a_Node000002"><a xlink:href="classpolyfem_1_1mesh_1_1_c_mesh2_d.html#a05ed13f7c898c4cd0db110bb30dc03e5" target="_top" xlink:title="edge barycenter">
<polygon fill="white" stroke="#666666" points="322,-126 179,-126 179,-96 322,-96 322,-126"/>
<text text-anchor="start" x="187" y="-114" font-family="Helvetica,sans-Serif" font-size="10.00">polyfem::mesh::CMesh2D</text>
<text text-anchor="middle" x="250.5" y="-103" font-family="Helvetica,sans-Serif" font-size="10.00">::edge_barycenter</text>
</a>
</g>
</g>
<!-- Node1&#45;&gt;Node2 -->
<g id="edge1_Node000001_Node000002" class="edge">
<title>Node1&#45;&gt;Node2</title>
<g id="a_edge1_Node000001_Node000002"><a xlink:title=" ">
<path fill="none" stroke="#63b8ff" d="M128.02,-78.06C145.89,-82.9 165.86,-88.32 184.37,-93.34"/>
<polygon fill="#63b8ff" stroke="#63b8ff" points="183.61,-96.76 194.18,-96 185.44,-90 183.61,-96.76"/>
</a>
</g>
</g>
<!-- Node4 -->
<g id="Node000004" class="node">
<title>Node4</title>
<g id="a_Node000004"><a xlink:href="classpolyfem_1_1mesh_1_1_c_mesh2_d.html#aa375b8de70a44ba0a42ebbabaf1d18b9" target="_top" xlink:title="is edge boundary">
<polygon fill="white" stroke="#666666" points="322,-78 179,-78 179,-48 322,-48 322,-78"/>
<text text-anchor="start" x="187" y="-66" font-family="Helvetica,sans-Serif" font-size="10.00">polyfem::mesh::CMesh2D</text>
<text text-anchor="middle" x="250.5" y="-55" font-family="Helvetica,sans-Serif" font-size="10.00">::is_boundary_edge</text>
</a>
</g>
</g>
<!-- Node1&#45;&gt;Node4 -->
<g id="edge3_Node000001_Node000004" class="edge">
<title>Node1&#45;&gt;Node4</title>
<g id="a_edge3_Node000001_Node000004"><a xlink:title=" ">
<path fill="none" stroke="#63b8ff" d="M143.22,-63C151.57,-63 160.14,-63 168.62,-63"/>
<polygon fill="#63b8ff" stroke="#63b8ff" points="168.89,-66.5 178.89,-63 168.89,-59.5 168.89,-66.5"/>
</a>
</g>
</g>
<!-- Node5 -->
<g id="Node000005" class="node">
<title>Node5</title>
<g id="a_Node000005"><a xlink:href="classpolyfem_1_1mesh_1_1_c_mesh2_d.html#a607f39c05a830751d4e6ef4ec1a93494" target="_top" xlink:title="number of edges">
<polygon fill="white" stroke="#666666" points="322,-30 179,-30 179,0 322,0 322,-30"/>
<text text-anchor="start" x="187" y="-18" font-family="Helvetica,sans-Serif" font-size="10.00">polyfem::mesh::CMesh2D</text>
<text text-anchor="middle" x="250.5" y="-7" font-family="Helvetica,sans-Serif" font-size="10.00">::n_edges</text>
</a>
</g>
</g>
<!-- Node1&#45;&gt;Node5 -->
<g id="edge4_Node000001_Node000005" class="edge">
<title>Node1&#45;&gt;Node5</title>
<g id="a_edge4_Node000001_Node000005"><a xlink:title=" ">
<path fill="none" stroke="#63b8ff" d="M128.02,-47.94C145.89,-43.1 165.86,-37.68 184.37,-32.66"/>
<polygon fill="#63b8ff" stroke="#63b8ff" points="185.44,-36 194.18,-30 183.61,-29.24 185.44,-36"/>
</a>
</g>
</g>
<!-- Node3 -->
<g id="Node000003" class="node">
<title>Node3</title>
<g id="a_Node000003"><a xlink:href="classpolyfem_1_1mesh_1_1_c_mesh2_d.html#af83fbccdc67bac8c265979729cfe8640" target="_top" xlink:title="point coordinates">
<polygon fill="white" stroke="#666666" points="501,-126 358,-126 358,-96 501,-96 501,-126"/>
<text text-anchor="start" x="366" y="-114" font-family="Helvetica,sans-Serif" font-size="10.00">polyfem::mesh::CMesh2D</text>
<text text-anchor="middle" x="429.5" y="-103" font-family="Helvetica,sans-Serif" font-size="10.00">::point</text>
</a>
</g>
</g>
<!-- Node2&#45;&gt;Node3 -->
<g id="edge2_Node000002_Node000003" class="edge">
<title>Node2&#45;&gt;Node3</title>
<g id="a_edge2_Node000002_Node000003"><a xlink:title=" ">
<path fill="none" stroke="#63b8ff" d="M322.22,-111C330.57,-111 339.14,-111 347.62,-111"/>
<polygon fill="#63b8ff" stroke="#63b8ff" points="347.89,-114.5 357.89,-111 347.89,-107.5 347.89,-114.5"/>
</a>
</g>
</g>
</g>
</svg>
