<?xml version="1.0" encoding="UTF-8" standalone="no"?>
<!DOCTYPE svg PUBLIC "-//W3C//DTD SVG 1.1//EN"
 "http://www.w3.org/Graphics/SVG/1.1/DTD/svg11.dtd">
<!-- Generated by graphviz version 2.43.0 (0)
 -->
<!-- Title: polyfem::assembler::IncompressibleLinearElasticityDispacement::compute_stress_tensor Pages: 1 -->
<svg width="825pt" height="144pt"
 viewBox="0.00 0.00 825.00 143.50" xmlns="http://www.w3.org/2000/svg" xmlns:xlink="http://www.w3.org/1999/xlink">
<g id="graph0" class="graph" transform="scale(1 1) rotate(0) translate(4 139.5)">
<title>polyfem::assembler::IncompressibleLinearElasticityDispacement::compute_stress_tensor</title>
<!-- Node1 -->
<g id="node1" class="node">
<title>Node1</title>
<g id="a_node1"><a xlink:title=" ">
<polygon fill="#bfbfbf" stroke="black" points="0,-27.5 0,-68.5 200,-68.5 200,-27.5 0,-27.5"/>
<text text-anchor="start" x="8" y="-56.5" font-family="Helvetica,sans-Serif" font-size="10.00">polyfem::assembler</text>
<text text-anchor="start" x="8" y="-45.5" font-family="Helvetica,sans-Serif" font-size="10.00">::IncompressibleLinearElasticity</text>
<text text-anchor="middle" x="100" y="-34.5" font-family="Helvetica,sans-Serif" font-size="10.00">Dispacement::compute_stress_tensor</text>
</a>
</g>
</g>
<!-- Node2 -->
<g id="node2" class="node">
<title>Node2</title>
<g id="a_node2"><a xlink:href="classpolyfem_1_1assembler_1_1_incompressible_linear_elasticity_dispacement.html#a3df07bc56e4808a4ebd5e4888805d28e" target="_top" xlink:title=" ">
<polygon fill="none" stroke="black" points="236,-53.5 236,-94.5 425,-94.5 425,-53.5 236,-53.5"/>
<text text-anchor="start" x="244" y="-82.5" font-family="Helvetica,sans-Serif" font-size="10.00">polyfem::assembler</text>
<text text-anchor="start" x="244" y="-71.5" font-family="Helvetica,sans-Serif" font-size="10.00">::IncompressibleLinearElasticity</text>
<text text-anchor="middle" x="330.5" y="-60.5" font-family="Helvetica,sans-Serif" font-size="10.00">Dispacement::assign_stress_tensor</text>
</a>
</g>
</g>
<!-- Node1&#45;&gt;Node2 -->
<g id="edge1" class="edge">
<title>Node1&#45;&gt;Node2</title>
<path fill="none" stroke="midnightblue" d="M200.23,-59.29C208.71,-60.26 217.31,-61.23 225.82,-62.2"/>
<polygon fill="midnightblue" stroke="midnightblue" points="225.44,-65.68 235.77,-63.34 226.23,-58.73 225.44,-65.68"/>
</g>
<!-- Node6 -->
<g id="node6" class="node">
<title>Node6</title>
<g id="a_node6"><a xlink:href="classpolyfem_1_1assembler_1_1_incompressible_linear_elasticity_dispacement.html#ab68f200c51e2d71f45a2517b5ddc884a" target="_top" xlink:title=" ">
<polygon fill="none" stroke="black" points="474.5,-0.5 474.5,-41.5 646.5,-41.5 646.5,-0.5 474.5,-0.5"/>
<text text-anchor="start" x="482.5" y="-29.5" font-family="Helvetica,sans-Serif" font-size="10.00">polyfem::assembler</text>
<text text-anchor="start" x="482.5" y="-18.5" font-family="Helvetica,sans-Serif" font-size="10.00">::IncompressibleLinearElasticity</text>
<text text-anchor="middle" x="560.5" y="-7.5" font-family="Helvetica,sans-Serif" font-size="10.00">Dispacement::size</text>
</a>
</g>
</g>
<!-- Node1&#45;&gt;Node6 -->
<g id="edge6" class="edge">
<title>Node1&#45;&gt;Node6</title>
<path fill="none" stroke="midnightblue" d="M200.21,-42.16C278.45,-37.55 386.9,-31.16 464.14,-26.62"/>
<polygon fill="midnightblue" stroke="midnightblue" points="464.57,-30.1 474.34,-26.01 464.16,-23.11 464.57,-30.1"/>
</g>
<!-- Node3 -->
<g id="node3" class="node">
<title>Node3</title>
<g id="a_node3"><a xlink:href="namespacepolyfem.html#afe7d5ac326e47bbc47caa5539c4f8172" target="_top" xlink:title=" ">
<polygon fill="none" stroke="black" points="461,-110.5 461,-129.5 660,-129.5 660,-110.5 461,-110.5"/>
<text text-anchor="middle" x="560.5" y="-117.5" font-family="Helvetica,sans-Serif" font-size="10.00">polyfem::compute_diplacement_grad</text>
</a>
</g>
</g>
<!-- Node2&#45;&gt;Node3 -->
<g id="edge2" class="edge">
<title>Node2&#45;&gt;Node3</title>
<path fill="none" stroke="midnightblue" d="M425.22,-92.91C451.33,-98.18 478.9,-103.74 502.22,-108.44"/>
<polygon fill="midnightblue" stroke="midnightblue" points="501.78,-111.93 512.28,-110.47 503.17,-105.06 501.78,-111.93"/>
</g>
<!-- Node5 -->
<g id="node5" class="node">
<title>Node5</title>
<g id="a_node5"><a xlink:href="classpolyfem_1_1assembler_1_1_lame_parameters.html#ab0fae1aa60ff63c1489b810353f0964c" target="_top" xlink:title=" ">
<polygon fill="none" stroke="black" points="476,-61 476,-91 645,-91 645,-61 476,-61"/>
<text text-anchor="start" x="484" y="-79" font-family="Helvetica,sans-Serif" font-size="10.00">polyfem::assembler</text>
<text text-anchor="middle" x="560.5" y="-68" font-family="Helvetica,sans-Serif" font-size="10.00">::LameParameters::lambda_mu</text>
</a>
</g>
</g>
<!-- Node2&#45;&gt;Node5 -->
<g id="edge4" class="edge">
<title>Node2&#45;&gt;Node5</title>
<path fill="none" stroke="midnightblue" d="M425.22,-74.82C438.53,-74.94 452.23,-75.06 465.54,-75.18"/>
<polygon fill="midnightblue" stroke="midnightblue" points="465.61,-78.68 475.64,-75.26 465.67,-71.68 465.61,-78.68"/>
</g>
<!-- Node2&#45;&gt;Node6 -->
<g id="edge5" class="edge">
<title>Node2&#45;&gt;Node6</title>
<path fill="none" stroke="midnightblue" d="M419.98,-53.43C434.52,-50.05 449.65,-46.54 464.35,-43.12"/>
<polygon fill="midnightblue" stroke="midnightblue" points="465.49,-46.45 474.44,-40.77 463.91,-39.63 465.49,-46.45"/>
</g>
<!-- Node4 -->
<g id="node4" class="node">
<title>Node4</title>
<g id="a_node4"><a xlink:href="classpolyfem_1_1basis_1_1_basis.html#a88b90af0c63d52f2c91fe97a63c540ce" target="_top" xlink:title=" ">
<polygon fill="none" stroke="black" points="696,-105 696,-135 817,-135 817,-105 696,-105"/>
<text text-anchor="start" x="704" y="-123" font-family="Helvetica,sans-Serif" font-size="10.00">polyfem::basis::Basis</text>
<text text-anchor="middle" x="756.5" y="-112" font-family="Helvetica,sans-Serif" font-size="10.00">::global</text>
</a>
</g>
</g>
<!-- Node3&#45;&gt;Node4 -->
<g id="edge3" class="edge">
<title>Node3&#45;&gt;Node4</title>
<path fill="none" stroke="midnightblue" d="M660.21,-120C668.86,-120 677.49,-120 685.83,-120"/>
<polygon fill="midnightblue" stroke="midnightblue" points="685.84,-123.5 695.84,-120 685.84,-116.5 685.84,-123.5"/>
</g>
</g>
</svg>
