<?xml version="1.0" encoding="UTF-8" standalone="no"?>
<!DOCTYPE svg PUBLIC "-//W3C//DTD SVG 1.1//EN"
 "http://www.w3.org/Graphics/SVG/1.1/DTD/svg11.dtd">
<!-- Generated by graphviz version 2.43.0 (0)
 -->
<!-- Title: polyfem::legacy::State::save_json Pages: 1 -->
<!--zoomable 450 -->

<svg id="main" version="1.1" xmlns="http://www.w3.org/2000/svg" xmlns:xlink="http://www.w3.org/1999/xlink" xml:space="preserve" onload="init(evt)">
<style type="text/css"><![CDATA[
.node, .edge {opacity: 0.7;}
.node.selected, .edge.selected {opacity: 1;}
.edge:hover path { stroke: red; }
.edge:hover polygon { stroke: red; fill: red; }
]]></style>

<defs>
  <circle id="rim" cx="0" cy="0" r="7"/>
  <circle id="rim2" cx="0" cy="0" r="3.5"/>
  <g id="zoomPlus">
    <use xlink:href="#rim" fill="#404040"><set attributeName="fill" to="#808080" begin="zoomplus.mouseover" end="zoomplus.mouseout"/></use>
    <path d="M-4,0h8M0,-4v8" fill="none" stroke="white" stroke-width="1.5" pointer-events="none"/>
  </g>
  <g id="zoomMin">
    <use xlink:href="#rim" fill="#404040"><set attributeName="fill" to="#808080" begin="zoomminus.mouseover" end="zoomminus.mouseout"/></use>
    <path d="M-4,0h8" fill="none" stroke="white" stroke-width="1.5" pointer-events="none"/>
  </g>
  <g id="arrowUp" transform="translate(30 24)">
    <use xlink:href="#rim"/>
    <path pointer-events="none" fill="none" stroke="white" stroke-width="1.5" d="M0,-3.0v7 M-2.5,-0.5L0,-3.0L2.5,-0.5"/>
  </g>
  <g id="arrowRight" transform="rotate(90) translate(36 -43)">
    <use xlink:href="#rim"/>
    <path pointer-events="none" fill="none" stroke="white" stroke-width="1.5" d="M0,-3.0v7 M-2.5,-0.5L0,-3.0L2.5,-0.5"/>
  </g>
  <g id="arrowDown" transform="rotate(180) translate(-30 -48)">
    <use xlink:href="#rim"/>
    <path pointer-events="none" fill="none" stroke="white" stroke-width="1.5" d="M0,-3.0v7 M-2.5,-0.5L0,-3.0L2.5,-0.5"/>
  </g>
  <g id="arrowLeft" transform="rotate(270) translate(-36 17)">
    <use xlink:href="#rim"/>
    <path pointer-events="none" fill="none" stroke="white" stroke-width="1.5" d="M0,-3.0v7 M-2.5,-0.5L0,-3.0L2.5,-0.5"/>
  </g>
  <g id="resetDef">
    <use xlink:href="#rim2" fill="#404040"><set attributeName="fill" to="#808080" begin="reset.mouseover" end="reset.mouseout"/></use>
  </g>
</defs>
<script type="application/ecmascript">
var viewWidth = 664;
var viewHeight = 450;
var sectionId = 'dynsection-93';
</script>
<script type="application/ecmascript" xlink:href="svg.min.js"/>
<svg id="graph" class="graph">
<g id="viewport">
<title>polyfem::legacy::State::save_json</title>
<!-- Node1 -->
<g id="Node000001" class="node">
<title>Node1</title>
<g id="a_Node000001"><a xlink:title="saves the output statistic to a stream">
<polygon fill="#999999" stroke="#666666" points="126,-399 0,-399 0,-369 126,-369 126,-399"/>
<text text-anchor="start" x="8" y="-387" font-family="Helvetica,sans-Serif" font-size="10.00">polyfem::legacy::State</text>
<text text-anchor="middle" x="63" y="-376" font-family="Helvetica,sans-Serif" font-size="10.00">::save_json</text>
</a>
</g>
</g>
<!-- Node2 -->
<g id="Node000002" class="node">
<title>Node2</title>
<g id="a_Node000002"><a xlink:href="classpolyfem_1_1legacy_1_1_state.html#a09103939ffb7c7e750909cf260903451" target="_top" xlink:title="check if using iso parametric bases">
<polygon fill="white" stroke="#666666" points="296.5,-442 170.5,-442 170.5,-412 296.5,-412 296.5,-442"/>
<text text-anchor="start" x="178.5" y="-430" font-family="Helvetica,sans-Serif" font-size="10.00">polyfem::legacy::State</text>
<text text-anchor="middle" x="233.5" y="-419" font-family="Helvetica,sans-Serif" font-size="10.00">::iso_parametric</text>
</a>
</g>
</g>
<!-- Node1&#45;&gt;Node2 -->
<g id="edge1_Node000001_Node000002" class="edge">
<title>Node1&#45;&gt;Node2</title>
<g id="a_edge1_Node000001_Node000002"><a xlink:title=" ">
<path fill="none" stroke="#63b8ff" d="M122.93,-399.04C136.14,-402.41 150.27,-406.02 163.84,-409.48"/>
<polygon fill="#63b8ff" stroke="#63b8ff" points="163.05,-412.89 173.6,-411.97 164.78,-406.11 163.05,-412.89"/>
</a>
</g>
</g>
<!-- Node4 -->
<g id="Node000004" class="node">
<title>Node4</title>
<g id="a_Node000004"><a xlink:href="namespacepolyfem.html#a03f3d75072d2fd19f70cd886a51d10dd" target="_top" xlink:title="Retrieves the current logger.">
<polygon fill="white" stroke="#666666" points="451,-393.5 357,-393.5 357,-374.5 451,-374.5 451,-393.5"/>
<text text-anchor="middle" x="404" y="-381.5" font-family="Helvetica,sans-Serif" font-size="10.00">polyfem::logger</text>
</a>
</g>
</g>
<!-- Node1&#45;&gt;Node4 -->
<g id="edge3_Node000001_Node000004" class="edge">
<title>Node1&#45;&gt;Node4</title>
<g id="a_edge3_Node000001_Node000004"><a xlink:title=" ">
<path fill="none" stroke="#63b8ff" d="M126.18,-384C189.24,-384 285.97,-384 346.8,-384"/>
<polygon fill="#63b8ff" stroke="#63b8ff" points="346.98,-387.5 356.98,-384 346.98,-380.5 346.98,-387.5"/>
</a>
</g>
</g>
<!-- Node5 -->
<g id="Node000005" class="node">
<title>Node5</title>
<g id="a_Node000005"><a xlink:href="classpolyfem_1_1io_1_1_out_stats_data.html#abf8fd9a4e5461e535b11e6a470881db3" target="_top" xlink:title="saves the output statistic to a json object">
<polygon fill="white" stroke="#666666" points="305,-236 162,-236 162,-206 305,-206 305,-236"/>
<text text-anchor="start" x="170" y="-224" font-family="Helvetica,sans-Serif" font-size="10.00">polyfem::io::OutStatsData</text>
<text text-anchor="middle" x="233.5" y="-213" font-family="Helvetica,sans-Serif" font-size="10.00">::save_json</text>
</a>
</g>
</g>
<!-- Node1&#45;&gt;Node5 -->
<g id="edge4_Node000001_Node000005" class="edge">
<title>Node1&#45;&gt;Node5</title>
<g id="a_edge4_Node000001_Node000005"><a xlink:title=" ">
<path fill="none" stroke="#63b8ff" d="M79.55,-368.96C109.39,-340.09 174.82,-276.8 209.64,-243.11"/>
<polygon fill="#63b8ff" stroke="#63b8ff" points="212.23,-245.47 216.99,-236.01 207.37,-240.44 212.23,-245.47"/>
</a>
</g>
</g>
<!-- Node3 -->
<g id="Node000003" class="node">
<title>Node3</title>
<g id="a_Node000003"><a xlink:href="classpolyfem_1_1legacy_1_1_state.html#abe9d15d78fe8863dab5c3bf3e850a5ad" target="_top" xlink:title=" ">
<polygon fill="white" stroke="#666666" points="467,-442 341,-442 341,-412 467,-412 467,-442"/>
<text text-anchor="start" x="349" y="-430" font-family="Helvetica,sans-Serif" font-size="10.00">polyfem::legacy::State</text>
<text text-anchor="middle" x="404" y="-419" font-family="Helvetica,sans-Serif" font-size="10.00">::has_periodic_bc</text>
</a>
</g>
</g>
<!-- Node2&#45;&gt;Node3 -->
<g id="edge2_Node000002_Node000003" class="edge">
<title>Node2&#45;&gt;Node3</title>
<g id="a_edge2_Node000002_Node000003"><a xlink:title=" ">
<path fill="none" stroke="#63b8ff" d="M296.76,-427C307.82,-427 319.41,-427 330.72,-427"/>
<polygon fill="#63b8ff" stroke="#63b8ff" points="330.99,-430.5 340.99,-427 330.99,-423.5 330.99,-430.5"/>
</a>
</g>
</g>
<!-- Node5&#45;&gt;Node4 -->
<g id="edge12_Node000005_Node000004" class="edge">
<title>Node5&#45;&gt;Node4</title>
<g id="a_edge12_Node000005_Node000004"><a xlink:title=" ">
<path fill="none" stroke="#63b8ff" d="M241.55,-236.12C255.99,-265.43 291.75,-330.16 341,-365 343.71,-366.92 346.62,-368.65 349.65,-370.2"/>
<polygon fill="#63b8ff" stroke="#63b8ff" points="348.44,-373.5 358.99,-374.38 351.29,-367.1 348.44,-373.5"/>
</a>
</g>
</g>
<!-- Node6 -->
<g id="Node000006" class="node">
<title>Node6</title>
<g id="a_Node000006"><a xlink:href="classpolyfem_1_1mesh_1_1_mesh.html#aadc9bb68805f0a4c0209bee9160c9fc6" target="_top" xlink:title="utily for dimension">
<polygon fill="white" stroke="#666666" points="465,-212 343,-212 343,-182 465,-182 465,-212"/>
<text text-anchor="start" x="351" y="-200" font-family="Helvetica,sans-Serif" font-size="10.00">polyfem::mesh::Mesh</text>
<text text-anchor="middle" x="404" y="-189" font-family="Helvetica,sans-Serif" font-size="10.00">::dimension</text>
</a>
</g>
</g>
<!-- Node5&#45;&gt;Node6 -->
<g id="edge5_Node000005_Node000006" class="edge">
<title>Node5&#45;&gt;Node6</title>
<g id="a_edge5_Node000005_Node000006"><a xlink:title=" ">
<path fill="none" stroke="#63b8ff" d="M305.47,-210.89C314.49,-209.61 323.72,-208.29 332.72,-207.01"/>
<polygon fill="#63b8ff" stroke="#63b8ff" points="333.37,-210.45 342.78,-205.58 332.38,-203.52 333.37,-210.45"/>
</a>
</g>
</g>
<!-- Node8 -->
<g id="Node000008" class="node">
<title>Node8</title>
<g id="a_Node000008"><a xlink:href="namespacepolyfem_1_1utils.html#a3b3a8934d13e48dc3a51ed8efe25e11e" target="_top" xlink:title=" ">
<polygon fill="white" stroke="#666666" points="457,-260 351,-260 351,-230 457,-230 457,-260"/>
<text text-anchor="start" x="359" y="-248" font-family="Helvetica,sans-Serif" font-size="10.00">polyfem::utils::get</text>
<text text-anchor="middle" x="404" y="-237" font-family="Helvetica,sans-Serif" font-size="10.00">_n_threads</text>
</a>
</g>
</g>
<!-- Node5&#45;&gt;Node8 -->
<g id="edge7_Node000005_Node000008" class="edge">
<title>Node5&#45;&gt;Node8</title>
<g id="a_edge7_Node000005_Node000008"><a xlink:title=" ">
<path fill="none" stroke="#63b8ff" d="M305.47,-231.11C317.23,-232.78 329.34,-234.51 340.85,-236.15"/>
<polygon fill="#63b8ff" stroke="#63b8ff" points="340.41,-239.62 350.8,-237.56 341.39,-232.69 340.41,-239.62"/>
</a>
</g>
</g>
<!-- Node11 -->
<g id="Node000011" class="node">
<title>Node11</title>
<g id="a_Node000011"><a xlink:href="get_r_s_s_8c.html#a1b63b75d05bcc786d0f45106704b78fe" target="_top" xlink:title="Returns the peak (maximum so far) resident set size (physical memory use) measured in bytes,...">
<polygon fill="white" stroke="#666666" points="441.5,-163.5 366.5,-163.5 366.5,-144.5 441.5,-144.5 441.5,-163.5"/>
<text text-anchor="middle" x="404" y="-151.5" font-family="Helvetica,sans-Serif" font-size="10.00">getPeakRSS</text>
</a>
</g>
</g>
<!-- Node5&#45;&gt;Node11 -->
<g id="edge10_Node000005_Node000011" class="edge">
<title>Node5&#45;&gt;Node11</title>
<g id="a_edge10_Node000005_Node000011"><a xlink:title=" ">
<path fill="none" stroke="#63b8ff" d="M265.29,-205.88C286.33,-195.86 315,-182.8 341,-173 346.88,-170.79 353.14,-168.63 359.33,-166.62"/>
<polygon fill="#63b8ff" stroke="#63b8ff" points="360.47,-169.93 368.95,-163.59 358.36,-163.26 360.47,-169.93"/>
</a>
</g>
</g>
<!-- Node12 -->
<g id="Node000012" class="node">
<title>Node12</title>
<g id="a_Node000012"><a xlink:href="classpolyfem_1_1assembler_1_1_problem.html#a90c406c9ef70aebd6b8d595c61d051ec" target="_top" xlink:title=" ">
<polygon fill="white" stroke="#666666" points="461,-126 347,-126 347,-96 461,-96 461,-126"/>
<text text-anchor="start" x="355" y="-114" font-family="Helvetica,sans-Serif" font-size="10.00">polyfem::assembler</text>
<text text-anchor="middle" x="404" y="-103" font-family="Helvetica,sans-Serif" font-size="10.00">::Problem::is_scalar</text>
</a>
</g>
</g>
<!-- Node5&#45;&gt;Node12 -->
<g id="edge11_Node000005_Node000012" class="edge">
<title>Node5&#45;&gt;Node12</title>
<g id="a_edge11_Node000005_Node000012"><a xlink:title=" ">
<path fill="none" stroke="#63b8ff" d="M249.95,-205.91C269.7,-187.25 305.61,-155.46 341,-135 343.8,-133.38 346.73,-131.83 349.72,-130.35"/>
<polygon fill="#63b8ff" stroke="#63b8ff" points="351.24,-133.51 358.85,-126.13 348.3,-127.15 351.24,-133.51"/>
</a>
</g>
</g>
<!-- Node13 -->
<g id="Node000013" class="node">
<title>Node13</title>
<g id="a_Node000013"><a xlink:href="classpolyfem_1_1mesh_1_1_mesh.html#a0140181b551c7bf0c162d6898155f294" target="_top" xlink:title="utitlity to return the number of elements, cells or faces in 3d and 2d">
<polygon fill="white" stroke="#666666" points="465,-78 343,-78 343,-48 465,-48 465,-78"/>
<text text-anchor="start" x="351" y="-66" font-family="Helvetica,sans-Serif" font-size="10.00">polyfem::mesh::Mesh</text>
<text text-anchor="middle" x="404" y="-55" font-family="Helvetica,sans-Serif" font-size="10.00">::n_elements</text>
</a>
</g>
</g>
<!-- Node5&#45;&gt;Node13 -->
<g id="edge13_Node000005_Node000013" class="edge">
<title>Node5&#45;&gt;Node13</title>
<g id="a_edge13_Node000005_Node000013"><a xlink:title=" ">
<path fill="none" stroke="#63b8ff" d="M242.77,-205.98C258.5,-178.67 295.28,-120.64 341,-87 342.85,-85.64 344.79,-84.34 346.79,-83.11"/>
<polygon fill="#63b8ff" stroke="#63b8ff" points="348.8,-86 355.88,-78.12 345.43,-79.87 348.8,-86"/>
</a>
</g>
</g>
<!-- Node16 -->
<g id="Node000016" class="node">
<title>Node16</title>
<g id="a_Node000016"><a xlink:href="classpolyfem_1_1mesh_1_1_mesh.html#a02b042ba86d0a7667c5da252af75b99e" target="_top" xlink:title="number of vertices">
<polygon fill="white" stroke="#666666" points="465,-30 343,-30 343,0 465,0 465,-30"/>
<text text-anchor="start" x="351" y="-18" font-family="Helvetica,sans-Serif" font-size="10.00">polyfem::mesh::Mesh</text>
<text text-anchor="middle" x="404" y="-7" font-family="Helvetica,sans-Serif" font-size="10.00">::n_vertices</text>
</a>
</g>
</g>
<!-- Node5&#45;&gt;Node16 -->
<g id="edge17_Node000005_Node000016" class="edge">
<title>Node5&#45;&gt;Node16</title>
<g id="a_edge17_Node000005_Node000016"><a xlink:title=" ">
<path fill="none" stroke="#63b8ff" d="M239.47,-205.76C251.44,-171.27 285.11,-86.59 341,-39 342.52,-37.71 344.11,-36.48 345.76,-35.32"/>
<polygon fill="#63b8ff" stroke="#63b8ff" points="347.74,-38.21 354.45,-30.01 344.09,-32.24 347.74,-38.21"/>
</a>
</g>
</g>
<!-- Node17 -->
<g id="Node000017" class="node">
<title>Node17</title>
<g id="a_Node000017"><a xlink:href="classpolyfem_1_1assembler_1_1_problem.html#a49bcc436f56b6ac1c201261495bb333c" target="_top" xlink:title=" ">
<polygon fill="white" stroke="#666666" points="461,-356 347,-356 347,-326 461,-326 461,-356"/>
<text text-anchor="start" x="355" y="-344" font-family="Helvetica,sans-Serif" font-size="10.00">polyfem::assembler</text>
<text text-anchor="middle" x="404" y="-333" font-family="Helvetica,sans-Serif" font-size="10.00">::Problem::name</text>
</a>
</g>
</g>
<!-- Node5&#45;&gt;Node17 -->
<g id="edge18_Node000005_Node000017" class="edge">
<title>Node5&#45;&gt;Node17</title>
<g id="a_edge18_Node000005_Node000017"><a xlink:title=" ">
<path fill="none" stroke="#63b8ff" d="M247.94,-236.19C266.93,-256.86 303.47,-293.92 341,-317 343.62,-318.61 346.36,-320.15 349.18,-321.61"/>
<polygon fill="#63b8ff" stroke="#63b8ff" points="347.82,-324.84 358.36,-326 350.85,-318.52 347.82,-324.84"/>
</a>
</g>
</g>
<!-- Node18 -->
<g id="Node000018" class="node">
<title>Node18</title>
<g id="a_Node000018"><a xlink:href="classpolyfem_1_1mesh_1_1_mesh.html#a573061d31e9d4565e66f29c8007232bd" target="_top" xlink:title="order of each element">
<polygon fill="white" stroke="#666666" points="465,-308 343,-308 343,-278 465,-278 465,-308"/>
<text text-anchor="start" x="351" y="-296" font-family="Helvetica,sans-Serif" font-size="10.00">polyfem::mesh::Mesh</text>
<text text-anchor="middle" x="404" y="-285" font-family="Helvetica,sans-Serif" font-size="10.00">::orders</text>
</a>
</g>
</g>
<!-- Node5&#45;&gt;Node18 -->
<g id="edge19_Node000005_Node000018" class="edge">
<title>Node5&#45;&gt;Node18</title>
<g id="a_edge19_Node000005_Node000018"><a xlink:title=" ">
<path fill="none" stroke="#63b8ff" d="M266.93,-236.16C287.93,-245.85 315.93,-258.51 341,-269 345.12,-270.73 349.42,-272.48 353.74,-274.21"/>
<polygon fill="#63b8ff" stroke="#63b8ff" points="352.6,-277.52 363.18,-277.95 355.17,-271.02 352.6,-277.52"/>
</a>
</g>
</g>
<!-- Node7 -->
<g id="Node000007" class="node">
<title>Node7</title>
<g id="a_Node000007"><a xlink:href="classpolyfem_1_1mesh_1_1_mesh.html#a93c9ea4759ded33a8f25ff157033cfd9" target="_top" xlink:title="checks if mesh is volume">
<polygon fill="white" stroke="#666666" points="640.5,-180 518.5,-180 518.5,-150 640.5,-150 640.5,-180"/>
<text text-anchor="start" x="526.5" y="-168" font-family="Helvetica,sans-Serif" font-size="10.00">polyfem::mesh::Mesh</text>
<text text-anchor="middle" x="579.5" y="-157" font-family="Helvetica,sans-Serif" font-size="10.00">::is_volume</text>
</a>
</g>
</g>
<!-- Node6&#45;&gt;Node7 -->
<g id="edge6_Node000006_Node000007" class="edge">
<title>Node6&#45;&gt;Node7</title>
<g id="a_edge6_Node000006_Node000007"><a xlink:title=" ">
<path fill="none" stroke="#63b8ff" d="M465.19,-185.9C479.06,-183.34 493.92,-180.6 508.17,-177.97"/>
<polygon fill="#63b8ff" stroke="#63b8ff" points="509.21,-181.34 518.41,-176.08 507.94,-174.45 509.21,-181.34"/>
</a>
</g>
</g>
<!-- Node9 -->
<g id="Node000009" class="node">
<title>Node9</title>
<g id="a_Node000009"><a xlink:href="classpolyfem_1_1utils_1_1_n_thread.html#a450e08589b053f6b1420f9f9eee0cf8b" target="_top" xlink:title=" ">
<polygon fill="white" stroke="#666666" points="656,-229.5 503,-229.5 503,-210.5 656,-210.5 656,-229.5"/>
<text text-anchor="middle" x="579.5" y="-217.5" font-family="Helvetica,sans-Serif" font-size="10.00">polyfem::utils::NThread::get</text>
</a>
</g>
</g>
<!-- Node8&#45;&gt;Node9 -->
<g id="edge8_Node000008_Node000009" class="edge">
<title>Node8&#45;&gt;Node9</title>
<g id="a_edge8_Node000008_Node000009"><a xlink:title=" ">
<path fill="none" stroke="#63b8ff" d="M457.06,-237.5C471.3,-235.45 487.04,-233.18 502.34,-230.97"/>
<polygon fill="#63b8ff" stroke="#63b8ff" points="502.91,-234.43 512.31,-229.54 501.91,-227.5 502.91,-234.43"/>
</a>
</g>
</g>
<!-- Node10 -->
<g id="Node000010" class="node">
<title>Node10</title>
<g id="a_Node000010"><a xlink:href="classpolyfem_1_1utils_1_1_n_thread.html#a61ce80820104c48cdcd53042ebcf643f" target="_top" xlink:title=" ">
<polygon fill="white" stroke="#666666" points="645,-278 514,-278 514,-248 645,-248 645,-278"/>
<text text-anchor="start" x="522" y="-266" font-family="Helvetica,sans-Serif" font-size="10.00">polyfem::utils::NThread</text>
<text text-anchor="middle" x="579.5" y="-255" font-family="Helvetica,sans-Serif" font-size="10.00">::num_threads</text>
</a>
</g>
</g>
<!-- Node8&#45;&gt;Node10 -->
<g id="edge9_Node000008_Node000010" class="edge">
<title>Node8&#45;&gt;Node10</title>
<g id="a_edge9_Node000008_Node000010"><a xlink:title=" ">
<path fill="none" stroke="#63b8ff" d="M457.06,-250.4C471.71,-251.92 487.95,-253.61 503.66,-255.24"/>
<polygon fill="#63b8ff" stroke="#63b8ff" points="503.57,-258.75 513.88,-256.3 504.3,-251.78 503.57,-258.75"/>
</a>
</g>
</g>
<!-- Node13&#45;&gt;Node7 -->
<g id="edge14_Node000013_Node000007" class="edge">
<title>Node13&#45;&gt;Node7</title>
<g id="a_edge14_Node000013_Node000007"><a xlink:title=" ">
<path fill="none" stroke="#63b8ff" d="M449.2,-78.05C455.33,-80.73 461.43,-83.72 467,-87 484.95,-97.57 486.18,-104.72 503,-117 516.05,-126.52 530.95,-136.23 544.06,-144.4"/>
<polygon fill="#63b8ff" stroke="#63b8ff" points="542.45,-147.52 552.79,-149.79 546.12,-141.56 542.45,-147.52"/>
</a>
</g>
</g>
<!-- Node14 -->
<g id="Node000014" class="node">
<title>Node14</title>
<g id="a_Node000014"><a xlink:href="classpolyfem_1_1mesh_1_1_mesh.html#aaf5c9547e7891266b92e6f1a2ac5d697" target="_top" xlink:title="number of cells">
<polygon fill="white" stroke="#666666" points="640.5,-60 518.5,-60 518.5,-30 640.5,-30 640.5,-60"/>
<text text-anchor="start" x="526.5" y="-48" font-family="Helvetica,sans-Serif" font-size="10.00">polyfem::mesh::Mesh</text>
<text text-anchor="middle" x="579.5" y="-37" font-family="Helvetica,sans-Serif" font-size="10.00">::n_cells</text>
</a>
</g>
</g>
<!-- Node13&#45;&gt;Node14 -->
<g id="edge15_Node000013_Node000014" class="edge">
<title>Node13&#45;&gt;Node14</title>
<g id="a_edge15_Node000013_Node000014"><a xlink:title=" ">
<path fill="none" stroke="#63b8ff" d="M465.19,-56.75C479.06,-55.32 493.92,-53.78 508.17,-52.3"/>
<polygon fill="#63b8ff" stroke="#63b8ff" points="508.83,-55.75 518.41,-51.23 508.1,-48.78 508.83,-55.75"/>
</a>
</g>
</g>
<!-- Node15 -->
<g id="Node000015" class="node">
<title>Node15</title>
<g id="a_Node000015"><a xlink:href="classpolyfem_1_1mesh_1_1_mesh.html#abf0f721370d6dc7401113e92fe94f4e2" target="_top" xlink:title="number of faces">
<polygon fill="white" stroke="#666666" points="640.5,-108 518.5,-108 518.5,-78 640.5,-78 640.5,-108"/>
<text text-anchor="start" x="526.5" y="-96" font-family="Helvetica,sans-Serif" font-size="10.00">polyfem::mesh::Mesh</text>
<text text-anchor="middle" x="579.5" y="-85" font-family="Helvetica,sans-Serif" font-size="10.00">::n_faces</text>
</a>
</g>
</g>
<!-- Node13&#45;&gt;Node15 -->
<g id="edge16_Node000013_Node000015" class="edge">
<title>Node13&#45;&gt;Node15</title>
<g id="a_edge16_Node000013_Node000015"><a xlink:title=" ">
<path fill="none" stroke="#63b8ff" d="M465.19,-73.41C479.06,-75.81 493.92,-78.37 508.17,-80.84"/>
<polygon fill="#63b8ff" stroke="#63b8ff" points="507.96,-84.35 518.41,-82.61 509.15,-77.46 507.96,-84.35"/>
</a>
</g>
</g>
</g>
</svg>

<g id="navigator" transform="translate(0 0)" fill="#404254">
  <rect fill="#f2f5e9" fill-opacity="0.5" stroke="#606060" stroke-width=".5" x="0" y="0" width="60" height="60"/>
  <use id="zoomplus" xlink:href="#zoomPlus" x="17" y="9" onmousedown="handleZoom(evt,'in')"/>
  <use id="zoomminus" xlink:href="#zoomMin" x="42" y="9" onmousedown="handleZoom(evt,'out')"/>
  <use id="reset" xlink:href="#resetDef" x="30" y="36" onmousedown="handleReset()"/>
   <use id="arrowup" xlink:href="#arrowUp" x="0" y="0" onmousedown="handlePan(0,-1)"/>
  <use id="arrowright" xlink:href="#arrowRight" x="0" y="0" onmousedown="handlePan(1,0)"/>
  <use id="arrowdown" xlink:href="#arrowDown" x="0" y="0" onmousedown="handlePan(0,1)"/>
  <use id="arrowleft" xlink:href="#arrowLeft" x="0" y="0" onmousedown="handlePan(-1,0)"/>
</g>
<svg viewBox="0 0 15 15" width="100%" height="30px" preserveAspectRatio="xMaxYMin meet">
 <g id="arrow_out" transform="scale(0.3 0.3)">
  <a xlink:href="classpolyfem_1_1legacy_1_1_state_a9866e0228e4bcfba7a5d3daf8dd048f6_cgraph_org.svg" target="_base">
   <rect id="button" ry="5" rx="5" y="6" x="6" height="38" width="38"
        fill="#f2f5e9" fill-opacity="0.5" stroke="#606060" stroke-width="1.0"/>
   <path id="arrow"
     d="M 11.500037,31.436501 C 11.940474,20.09759 22.043105,11.32322 32.158766,21.979434 L 37.068811,17.246167 C 37.068811,17.246167 37.088388,32 37.088388,32 L 22.160133,31.978069 C 22.160133,31.978069 26.997745,27.140456 26.997745,27.140456 C 18.528582,18.264221 13.291696,25.230495 11.500037,31.436501 z"
     style="fill:#404040;"/>
  </a>
 </g>
</svg>

<style type='text/css'>
<![CDATA[
[data-mouse-over-selected='false'] { opacity: 0.7; }
[data-mouse-over-selected='true']  { opacity: 1.0; }
]]>
</style>
<script type="application/ecmascript"><![CDATA[
document.addEventListener('DOMContentLoaded', (event) => {
  highlightEdges();
  highlightAdjacentNodes();
});
]]></script>
</svg>
