<?xml version="1.0" encoding="UTF-8" standalone="no"?>
<!DOCTYPE svg PUBLIC "-//W3C//DTD SVG 1.1//EN"
 "http://www.w3.org/Graphics/SVG/1.1/DTD/svg11.dtd">
<!-- Generated by graphviz version 2.43.0 (0)
 -->
<!-- Title: polyfem::quadrature::TriQuadrature::get_quadrature Pages: 1 -->
<svg width="966pt" height="211pt"
 viewBox="0.00 0.00 966.00 210.50" xmlns="http://www.w3.org/2000/svg" xmlns:xlink="http://www.w3.org/1999/xlink">
<g id="graph0" class="graph" transform="scale(1 1) rotate(0) translate(4 206.5)">
<title>polyfem::quadrature::TriQuadrature::get_quadrature</title>
<!-- Node1 -->
<g id="node1" class="node">
<title>Node1</title>
<g id="a_node1"><a xlink:title=" ">
<polygon fill="#bfbfbf" stroke="black" points="842,-88.5 842,-129.5 958,-129.5 958,-88.5 842,-88.5"/>
<text text-anchor="start" x="850" y="-117.5" font-family="Helvetica,sans-Serif" font-size="10.00">polyfem::quadrature</text>
<text text-anchor="start" x="850" y="-106.5" font-family="Helvetica,sans-Serif" font-size="10.00">::TriQuadrature::get</text>
<text text-anchor="middle" x="900" y="-95.5" font-family="Helvetica,sans-Serif" font-size="10.00">_quadrature</text>
</a>
</g>
</g>
<!-- Node2 -->
<g id="node2" class="node">
<title>Node2</title>
<g id="a_node2"><a xlink:href="classpolyfem_1_1quadrature_1_1_polygon_quadrature.html#a4e0ef6a256af3def81c64c05c6e5691f" target="_top" xlink:title="Gets the quadrature points &amp; weights for a polygon.">
<polygon fill="none" stroke="black" points="679.5,-118.5 679.5,-159.5 795.5,-159.5 795.5,-118.5 679.5,-118.5"/>
<text text-anchor="start" x="687.5" y="-147.5" font-family="Helvetica,sans-Serif" font-size="10.00">polyfem::quadrature</text>
<text text-anchor="start" x="687.5" y="-136.5" font-family="Helvetica,sans-Serif" font-size="10.00">::PolygonQuadrature</text>
<text text-anchor="middle" x="737.5" y="-125.5" font-family="Helvetica,sans-Serif" font-size="10.00">::get_quadrature</text>
</a>
</g>
</g>
<!-- Node1&#45;&gt;Node2 -->
<g id="edge1" class="edge">
<title>Node1&#45;&gt;Node2</title>
<path fill="none" stroke="midnightblue" d="M831.94,-121.53C819.87,-123.79 807.38,-126.12 795.62,-128.32"/>
<polygon fill="midnightblue" stroke="midnightblue" points="832.78,-124.94 841.96,-119.66 831.49,-118.06 832.78,-124.94"/>
</g>
<!-- Node8 -->
<g id="node8" class="node">
<title>Node8</title>
<g id="a_node8"><a xlink:href="classpolyfem_1_1utils_1_1_boundary_sampler.html#a4f92b1c04be7c25cbb65f7c40bce8a4d" target="_top" xlink:title=" ">
<polygon fill="none" stroke="black" points="669,-58.5 669,-99.5 806,-99.5 806,-58.5 669,-58.5"/>
<text text-anchor="start" x="677" y="-87.5" font-family="Helvetica,sans-Serif" font-size="10.00">polyfem::utils::Boundary</text>
<text text-anchor="start" x="677" y="-76.5" font-family="Helvetica,sans-Serif" font-size="10.00">Sampler::quadrature_for</text>
<text text-anchor="middle" x="737.5" y="-65.5" font-family="Helvetica,sans-Serif" font-size="10.00">_tri_face</text>
</a>
</g>
</g>
<!-- Node1&#45;&gt;Node8 -->
<g id="edge8" class="edge">
<title>Node1&#45;&gt;Node8</title>
<path fill="none" stroke="midnightblue" d="M832.01,-96.48C823.43,-94.87 814.64,-93.23 806.06,-91.63"/>
<polygon fill="midnightblue" stroke="midnightblue" points="831.49,-99.94 841.96,-98.34 832.78,-93.06 831.49,-99.94"/>
</g>
<!-- Node3 -->
<g id="node3" class="node">
<title>Node3</title>
<g id="a_node3"><a xlink:href="classpolyfem_1_1basis_1_1_polygonal_basis2d.html#a50260ddd9173da3f8b8305c42998d2bc" target="_top" xlink:title="Build bases over the remaining polygons of a mesh.">
<polygon fill="none" stroke="black" points="482.5,-172 482.5,-202 625.5,-202 625.5,-172 482.5,-172"/>
<text text-anchor="start" x="490.5" y="-190" font-family="Helvetica,sans-Serif" font-size="10.00">polyfem::basis::Polygonal</text>
<text text-anchor="middle" x="554" y="-179" font-family="Helvetica,sans-Serif" font-size="10.00">Basis2d::build_bases</text>
</a>
</g>
</g>
<!-- Node2&#45;&gt;Node3 -->
<g id="edge2" class="edge">
<title>Node2&#45;&gt;Node3</title>
<path fill="none" stroke="midnightblue" d="M669.33,-156.76C650.4,-161.77 630,-167.17 611.74,-171.99"/>
<polygon fill="midnightblue" stroke="midnightblue" points="670.3,-160.13 679.07,-154.19 668.51,-153.36 670.3,-160.13"/>
</g>
<!-- Node7 -->
<g id="node7" class="node">
<title>Node7</title>
<g id="a_node7"><a xlink:href="classpolyfem_1_1basis_1_1_m_v_polygonal_basis2d.html#adf1d3cfcf31379e277705dca652ad130" target="_top" xlink:title=" ">
<polygon fill="none" stroke="black" points="475,-123 475,-153 633,-153 633,-123 475,-123"/>
<text text-anchor="start" x="483" y="-141" font-family="Helvetica,sans-Serif" font-size="10.00">polyfem::basis::MVPolygonal</text>
<text text-anchor="middle" x="554" y="-130" font-family="Helvetica,sans-Serif" font-size="10.00">Basis2d::build_bases</text>
</a>
</g>
</g>
<!-- Node2&#45;&gt;Node7 -->
<g id="edge6" class="edge">
<title>Node2&#45;&gt;Node7</title>
<path fill="none" stroke="midnightblue" d="M669.01,-138.63C657.37,-138.56 645.18,-138.5 633.29,-138.43"/>
<polygon fill="midnightblue" stroke="midnightblue" points="669.05,-142.13 679.07,-138.68 669.09,-135.13 669.05,-142.13"/>
</g>
<!-- Node4 -->
<g id="node4" class="node">
<title>Node4</title>
<g id="a_node4"><a xlink:href="classpolyfem_1_1_state.html#a202f2494b8f46d4bf22edfc0a36ddb32" target="_top" xlink:title="builds bases for polygons, called inside build_basis">
<polygon fill="none" stroke="black" points="316,-147 316,-177 435,-177 435,-147 316,-147"/>
<text text-anchor="start" x="324" y="-165" font-family="Helvetica,sans-Serif" font-size="10.00">polyfem::State::build</text>
<text text-anchor="middle" x="375.5" y="-154" font-family="Helvetica,sans-Serif" font-size="10.00">_polygonal_basis</text>
</a>
</g>
</g>
<!-- Node3&#45;&gt;Node4 -->
<g id="edge3" class="edge">
<title>Node3&#45;&gt;Node4</title>
<path fill="none" stroke="midnightblue" d="M472.43,-175.59C459.82,-173.8 447,-171.99 435,-170.29"/>
<polygon fill="midnightblue" stroke="midnightblue" points="472.09,-179.07 482.48,-177.01 473.07,-172.14 472.09,-179.07"/>
</g>
<!-- Node5 -->
<g id="node5" class="node">
<title>Node5</title>
<g id="a_node5"><a xlink:href="classpolyfem_1_1_state.html#a75cfcf28f3bc27e8e30b41c7347c799b" target="_top" xlink:title="builds the bases step 2 of solve">
<polygon fill="none" stroke="black" points="157,-147 157,-177 276,-177 276,-147 157,-147"/>
<text text-anchor="start" x="165" y="-165" font-family="Helvetica,sans-Serif" font-size="10.00">polyfem::State::build</text>
<text text-anchor="middle" x="216.5" y="-154" font-family="Helvetica,sans-Serif" font-size="10.00">_basis</text>
</a>
</g>
</g>
<!-- Node4&#45;&gt;Node5 -->
<g id="edge4" class="edge">
<title>Node4&#45;&gt;Node5</title>
<path fill="none" stroke="midnightblue" d="M305.51,-162C295.74,-162 285.77,-162 276.22,-162"/>
<polygon fill="midnightblue" stroke="midnightblue" points="305.59,-165.5 315.59,-162 305.59,-158.5 305.59,-165.5"/>
</g>
<!-- Node6 -->
<g id="node6" class="node">
<title>Node6</title>
<g id="a_node6"><a xlink:href="classpolyfem_1_1_state.html#a219f9935d918f739d82488449bd4cbf4" target="_top" xlink:title="solves the problem, call other methods">
<polygon fill="none" stroke="black" points="0,-152.5 0,-171.5 121,-171.5 121,-152.5 0,-152.5"/>
<text text-anchor="middle" x="60.5" y="-159.5" font-family="Helvetica,sans-Serif" font-size="10.00">polyfem::State::solve</text>
</a>
</g>
</g>
<!-- Node5&#45;&gt;Node6 -->
<g id="edge5" class="edge">
<title>Node5&#45;&gt;Node6</title>
<path fill="none" stroke="midnightblue" d="M146.83,-162C138.22,-162 129.47,-162 121.02,-162"/>
<polygon fill="midnightblue" stroke="midnightblue" points="146.84,-165.5 156.84,-162 146.84,-158.5 146.84,-165.5"/>
</g>
<!-- Node7&#45;&gt;Node4 -->
<g id="edge7" class="edge">
<title>Node7&#45;&gt;Node4</title>
<path fill="none" stroke="midnightblue" d="M464.75,-150C454.66,-151.37 444.57,-152.74 435.02,-154.04"/>
<polygon fill="midnightblue" stroke="midnightblue" points="465.38,-153.45 474.81,-148.63 464.43,-146.51 465.38,-153.45"/>
</g>
<!-- Node9 -->
<g id="node9" class="node">
<title>Node9</title>
<g id="a_node9"><a xlink:href="classpolyfem_1_1io_1_1_evaluator.html#a8a20b3ef05c1ce19dc0494739e877b7b" target="_top" xlink:title="computes integrated solution (fun) per surface face.">
<polygon fill="none" stroke="black" points="490.5,-60.5 490.5,-101.5 617.5,-101.5 617.5,-60.5 490.5,-60.5"/>
<text text-anchor="start" x="498.5" y="-89.5" font-family="Helvetica,sans-Serif" font-size="10.00">polyfem::io::Evaluator</text>
<text text-anchor="start" x="498.5" y="-78.5" font-family="Helvetica,sans-Serif" font-size="10.00">::interpolate_boundary</text>
<text text-anchor="middle" x="554" y="-67.5" font-family="Helvetica,sans-Serif" font-size="10.00">_function</text>
</a>
</g>
</g>
<!-- Node8&#45;&gt;Node9 -->
<g id="edge9" class="edge">
<title>Node8&#45;&gt;Node9</title>
<path fill="none" stroke="midnightblue" d="M658.54,-79.86C644.84,-80.01 630.75,-80.17 617.54,-80.31"/>
<polygon fill="midnightblue" stroke="midnightblue" points="658.96,-83.35 668.92,-79.74 658.88,-76.36 658.96,-83.35"/>
</g>
<!-- Node10 -->
<g id="node10" class="node">
<title>Node10</title>
<g id="a_node10"><a xlink:href="classpolyfem_1_1io_1_1_evaluator.html#afe5d6ebcbb72f466245bc858f14fb97e" target="_top" xlink:title="computes traction foces for fun (tensor * surface normal) result, stress tensor, and von mises,...">
<polygon fill="none" stroke="black" points="490.5,-0.5 490.5,-41.5 617.5,-41.5 617.5,-0.5 490.5,-0.5"/>
<text text-anchor="start" x="498.5" y="-29.5" font-family="Helvetica,sans-Serif" font-size="10.00">polyfem::io::Evaluator</text>
<text text-anchor="start" x="498.5" y="-18.5" font-family="Helvetica,sans-Serif" font-size="10.00">::interpolate_boundary</text>
<text text-anchor="middle" x="554" y="-7.5" font-family="Helvetica,sans-Serif" font-size="10.00">_tensor_function</text>
</a>
</g>
</g>
<!-- Node8&#45;&gt;Node10 -->
<g id="edge10" class="edge">
<title>Node8&#45;&gt;Node10</title>
<path fill="none" stroke="midnightblue" d="M662.56,-55.37C647.65,-50.61 632.11,-45.64 617.63,-41.02"/>
<polygon fill="midnightblue" stroke="midnightblue" points="661.66,-58.76 672.25,-58.47 663.79,-52.09 661.66,-58.76"/>
</g>
<!-- Node11 -->
<g id="node11" class="node">
<title>Node11</title>
<g id="a_node11"><a xlink:href="classpolyfem_1_1io_1_1_evaluator.html#a66d6789a60dceb9f9625cee09b8c81a1" target="_top" xlink:title="same as interpolate_boundary_tensor_function with disp=0">
<polygon fill="none" stroke="black" points="312,-0.5 312,-41.5 439,-41.5 439,-0.5 312,-0.5"/>
<text text-anchor="start" x="320" y="-29.5" font-family="Helvetica,sans-Serif" font-size="10.00">polyfem::io::Evaluator</text>
<text text-anchor="start" x="320" y="-18.5" font-family="Helvetica,sans-Serif" font-size="10.00">::interpolate_boundary</text>
<text text-anchor="middle" x="375.5" y="-7.5" font-family="Helvetica,sans-Serif" font-size="10.00">_tensor_function</text>
</a>
</g>
</g>
<!-- Node10&#45;&gt;Node11 -->
<g id="edge11" class="edge">
<title>Node10&#45;&gt;Node11</title>
<path fill="none" stroke="midnightblue" d="M479.99,-21C466.38,-21 452.28,-21 439.02,-21"/>
<polygon fill="midnightblue" stroke="midnightblue" points="480.28,-24.5 490.28,-21 480.28,-17.5 480.28,-24.5"/>
</g>
</g>
</svg>
