<?xml version="1.0" encoding="UTF-8" standalone="no"?>
<!DOCTYPE svg PUBLIC "-//W3C//DTD SVG 1.1//EN"
 "http://www.w3.org/Graphics/SVG/1.1/DTD/svg11.dtd">
<!-- Generated by graphviz version 2.43.0 (0)
 -->
<!-- Title: polyfem::problem::GenericScalarProblemExact::rhs Pages: 1 -->
<svg width="693pt" height="186pt"
 viewBox="0.00 0.00 693.00 186.00" xmlns="http://www.w3.org/2000/svg" xmlns:xlink="http://www.w3.org/1999/xlink">
<g id="graph0" class="graph" transform="scale(1 1) rotate(0) translate(4 182)">
<title>polyfem::problem::GenericScalarProblemExact::rhs</title>
<!-- Node1 -->
<g id="node1" class="node">
<title>Node1</title>
<g id="a_node1"><a xlink:title=" ">
<polygon fill="#bfbfbf" stroke="black" points="0,-73.5 0,-103.5 147,-103.5 147,-73.5 0,-73.5"/>
<text text-anchor="start" x="8" y="-91.5" font-family="Helvetica,sans-Serif" font-size="10.00">polyfem::problem::Generic</text>
<text text-anchor="middle" x="73.5" y="-80.5" font-family="Helvetica,sans-Serif" font-size="10.00">ScalarProblemExact::rhs</text>
</a>
</g>
</g>
<!-- Node2 -->
<g id="node2" class="node">
<title>Node2</title>
<g id="a_node2"><a xlink:href="classpolyfem_1_1problem_1_1_problem_with_solution.html#a7ac8515f2014c5b98b91146bf5b7ed13" target="_top" xlink:title=" ">
<polygon fill="none" stroke="black" points="183,-73.5 183,-103.5 333,-103.5 333,-73.5 183,-73.5"/>
<text text-anchor="start" x="191" y="-91.5" font-family="Helvetica,sans-Serif" font-size="10.00">polyfem::problem::Problem</text>
<text text-anchor="middle" x="258" y="-80.5" font-family="Helvetica,sans-Serif" font-size="10.00">WithSolution::rhs</text>
</a>
</g>
</g>
<!-- Node1&#45;&gt;Node2 -->
<g id="edge1" class="edge">
<title>Node1&#45;&gt;Node2</title>
<path fill="none" stroke="midnightblue" d="M147.15,-88.5C155.58,-88.5 164.24,-88.5 172.8,-88.5"/>
<polygon fill="midnightblue" stroke="midnightblue" points="172.81,-92 182.81,-88.5 172.81,-85 172.81,-92"/>
</g>
<!-- Node3 -->
<g id="node3" class="node">
<title>Node3</title>
<g id="a_node3"><a xlink:href="classpolyfem_1_1assembler_1_1_assembler_utils.html#a74f032d63e9ded58875c38053b8ad0d0" target="_top" xlink:title=" ">
<polygon fill="none" stroke="black" points="369,-147.5 369,-177.5 535,-177.5 535,-147.5 369,-147.5"/>
<text text-anchor="start" x="377" y="-165.5" font-family="Helvetica,sans-Serif" font-size="10.00">polyfem::assembler</text>
<text text-anchor="middle" x="452" y="-154.5" font-family="Helvetica,sans-Serif" font-size="10.00">::AssemblerUtils::compute_rhs</text>
</a>
</g>
</g>
<!-- Node2&#45;&gt;Node3 -->
<g id="edge2" class="edge">
<title>Node2&#45;&gt;Node3</title>
<path fill="none" stroke="midnightblue" d="M289.33,-103.7C311.15,-114.28 341.47,-128.27 369,-138.5 374.43,-140.52 380.12,-142.48 385.85,-144.35"/>
<polygon fill="midnightblue" stroke="midnightblue" points="384.92,-147.73 395.51,-147.42 387.04,-141.06 384.92,-147.73"/>
</g>
<!-- Node5 -->
<g id="node5" class="node">
<title>Node5</title>
<g id="a_node5"><a xlink:href="classpolyfem_1_1problem_1_1_problem_with_solution.html#ab7ef1ebf3e2800bddc0aa1a6e27acafa" target="_top" xlink:title=" ">
<polygon fill="none" stroke="black" points="377,-98.5 377,-128.5 527,-128.5 527,-98.5 377,-98.5"/>
<text text-anchor="start" x="385" y="-116.5" font-family="Helvetica,sans-Serif" font-size="10.00">polyfem::problem::Problem</text>
<text text-anchor="middle" x="452" y="-105.5" font-family="Helvetica,sans-Serif" font-size="10.00">WithSolution::eval_fun</text>
</a>
</g>
</g>
<!-- Node2&#45;&gt;Node5 -->
<g id="edge4" class="edge">
<title>Node2&#45;&gt;Node5</title>
<path fill="none" stroke="midnightblue" d="M333.23,-98.17C344.22,-99.6 355.61,-101.08 366.78,-102.53"/>
<polygon fill="midnightblue" stroke="midnightblue" points="366.6,-106.04 376.97,-103.86 367.5,-99.1 366.6,-106.04"/>
</g>
<!-- Node6 -->
<g id="node6" class="node">
<title>Node6</title>
<g id="a_node6"><a xlink:href="struct_diff_scalar_base.html#a9ec9c3461abcd98164a36ba6f4e7dfb7" target="_top" xlink:title="Set the independent variable count used by the automatic differentiation layer.">
<polygon fill="none" stroke="black" points="377.5,-49.5 377.5,-79.5 526.5,-79.5 526.5,-49.5 377.5,-49.5"/>
<text text-anchor="start" x="385.5" y="-67.5" font-family="Helvetica,sans-Serif" font-size="10.00">DiffScalarBase::setVariable</text>
<text text-anchor="middle" x="452" y="-56.5" font-family="Helvetica,sans-Serif" font-size="10.00">Count</text>
</a>
</g>
</g>
<!-- Node2&#45;&gt;Node6 -->
<g id="edge5" class="edge">
<title>Node2&#45;&gt;Node6</title>
<path fill="none" stroke="midnightblue" d="M333.23,-79.22C344.3,-77.84 355.78,-76.4 367.03,-75"/>
<polygon fill="midnightblue" stroke="midnightblue" points="367.79,-78.43 377.28,-73.71 366.92,-71.48 367.79,-78.43"/>
</g>
<!-- Node7 -->
<g id="node7" class="node">
<title>Node7</title>
<g id="a_node7"><a xlink:href="classpolyfem_1_1problem_1_1_problem_with_solution.html#a716a632d5e87de82fd6a81932bf75af1" target="_top" xlink:title=" ">
<polygon fill="none" stroke="black" points="377,-0.5 377,-30.5 527,-30.5 527,-0.5 377,-0.5"/>
<text text-anchor="start" x="385" y="-18.5" font-family="Helvetica,sans-Serif" font-size="10.00">polyfem::problem::Problem</text>
<text text-anchor="middle" x="452" y="-7.5" font-family="Helvetica,sans-Serif" font-size="10.00">WithSolution::size_for</text>
</a>
</g>
</g>
<!-- Node2&#45;&gt;Node7 -->
<g id="edge6" class="edge">
<title>Node2&#45;&gt;Node7</title>
<path fill="none" stroke="midnightblue" d="M289.83,-73.43C311.64,-63.1 341.72,-49.52 369,-39.5 374.44,-37.5 380.13,-35.55 385.87,-33.69"/>
<polygon fill="midnightblue" stroke="midnightblue" points="387.05,-36.99 395.53,-30.63 384.94,-30.31 387.05,-36.99"/>
</g>
<!-- Node4 -->
<g id="node4" class="node">
<title>Node4</title>
<g id="a_node4"><a xlink:href="namespacepolyfem.html#a03f3d75072d2fd19f70cd886a51d10dd" target="_top" xlink:title="Retrieves the current logger.">
<polygon fill="none" stroke="black" points="581,-153 581,-172 675,-172 675,-153 581,-153"/>
<text text-anchor="middle" x="628" y="-160" font-family="Helvetica,sans-Serif" font-size="10.00">polyfem::logger</text>
</a>
</g>
</g>
<!-- Node3&#45;&gt;Node4 -->
<g id="edge3" class="edge">
<title>Node3&#45;&gt;Node4</title>
<path fill="none" stroke="midnightblue" d="M535.16,-162.5C547.15,-162.5 559.27,-162.5 570.59,-162.5"/>
<polygon fill="midnightblue" stroke="midnightblue" points="570.74,-166 580.74,-162.5 570.74,-159 570.74,-166"/>
</g>
<!-- Node8 -->
<g id="node8" class="node">
<title>Node8</title>
<g id="a_node8"><a xlink:href="classpolyfem_1_1assembler_1_1_problem.html#a90c406c9ef70aebd6b8d595c61d051ec" target="_top" xlink:title=" ">
<polygon fill="none" stroke="black" points="571,-0.5 571,-30.5 685,-30.5 685,-0.5 571,-0.5"/>
<text text-anchor="start" x="579" y="-18.5" font-family="Helvetica,sans-Serif" font-size="10.00">polyfem::assembler</text>
<text text-anchor="middle" x="628" y="-7.5" font-family="Helvetica,sans-Serif" font-size="10.00">::Problem::is_scalar</text>
</a>
</g>
</g>
<!-- Node7&#45;&gt;Node8 -->
<g id="edge7" class="edge">
<title>Node7&#45;&gt;Node8</title>
<path fill="none" stroke="midnightblue" d="M527.04,-15.5C538.3,-15.5 549.86,-15.5 560.94,-15.5"/>
<polygon fill="midnightblue" stroke="midnightblue" points="560.95,-19 570.95,-15.5 560.95,-12 560.95,-19"/>
</g>
</g>
</svg>
