<?xml version="1.0" encoding="UTF-8" standalone="no"?>
<!DOCTYPE svg PUBLIC "-//W3C//DTD SVG 1.1//EN"
 "http://www.w3.org/Graphics/SVG/1.1/DTD/svg11.dtd">
<!-- Generated by graphviz version 2.43.0 (0)
 -->
<!-- Title: polyfem::varform::ElasticVarForm::reset Pages: 1 -->
<svg width="366pt" height="134pt"
 viewBox="0.00 0.00 366.00 134.00" xmlns="http://www.w3.org/2000/svg" xmlns:xlink="http://www.w3.org/1999/xlink">
<g id="graph0" class="graph" transform="scale(1 1) rotate(0) translate(4 130)">
<title>polyfem::varform::ElasticVarForm::reset</title>
<!-- Node1 -->
<g id="Node000001" class="node">
<title>Node1</title>
<g id="a_Node000001"><a xlink:title=" ">
<polygon fill="#999999" stroke="#666666" points="358,-78 218,-78 218,-48 358,-48 358,-78"/>
<text text-anchor="start" x="226" y="-66" font-family="Helvetica,sans-Serif" font-size="10.00">polyfem::varform::Elastic</text>
<text text-anchor="middle" x="288" y="-55" font-family="Helvetica,sans-Serif" font-size="10.00">VarForm::reset</text>
</a>
</g>
</g>
<!-- Node2 -->
<g id="Node000002" class="node">
<title>Node2</title>
<g id="a_Node000002"><a xlink:href="classpolyfem_1_1varform_1_1_incompressible_elastic_var_form.html#af6ca01714a9caf73815a48a3f2e93213" target="_top" xlink:title=" ">
<polygon fill="white" stroke="#666666" points="182,-126 0,-126 0,-96 182,-96 182,-126"/>
<text text-anchor="start" x="8" y="-114" font-family="Helvetica,sans-Serif" font-size="10.00">polyfem::varform::Incompressible</text>
<text text-anchor="middle" x="91" y="-103" font-family="Helvetica,sans-Serif" font-size="10.00">ElasticVarForm::reset</text>
</a>
</g>
</g>
<!-- Node1&#45;&gt;Node2 -->
<g id="edge1_Node000001_Node000002" class="edge">
<title>Node1&#45;&gt;Node2</title>
<g id="a_edge1_Node000001_Node000002"><a xlink:title=" ">
<path fill="none" stroke="#63b8ff" d="M215.86,-80.51C195.23,-85.59 172.9,-91.09 152.95,-96"/>
<polygon fill="#63b8ff" stroke="#63b8ff" points="216.96,-83.84 225.84,-78.06 215.29,-77.05 216.96,-83.84"/>
</a>
</g>
</g>
<!-- Node3 -->
<g id="Node000003" class="node">
<title>Node3</title>
<g id="a_Node000003"><a xlink:href="classpolyfem_1_1varform_1_1_linear_elastic_var_form.html#ad876a6dbb7acabb6340e541e555ef561" target="_top" xlink:title=" ">
<polygon fill="white" stroke="#666666" points="160,-78 22,-78 22,-48 160,-48 160,-78"/>
<text text-anchor="start" x="30" y="-66" font-family="Helvetica,sans-Serif" font-size="10.00">polyfem::varform::Linear</text>
<text text-anchor="middle" x="91" y="-55" font-family="Helvetica,sans-Serif" font-size="10.00">ElasticVarForm::reset</text>
</a>
</g>
</g>
<!-- Node1&#45;&gt;Node3 -->
<g id="edge2_Node000001_Node000003" class="edge">
<title>Node1&#45;&gt;Node3</title>
<g id="a_edge2_Node000001_Node000003"><a xlink:title=" ">
<path fill="none" stroke="#63b8ff" d="M207.75,-63C192.01,-63 175.61,-63 160.27,-63"/>
<polygon fill="#63b8ff" stroke="#63b8ff" points="207.98,-66.5 217.98,-63 207.98,-59.5 207.98,-66.5"/>
</a>
</g>
</g>
<!-- Node4 -->
<g id="Node000004" class="node">
<title>Node4</title>
<g id="a_Node000004"><a xlink:href="classpolyfem_1_1varform_1_1_nonlinear_elastic_var_form.html#a6904e023ccb7b5ce2edaefb69e9c05d9" target="_top" xlink:title=" ">
<polygon fill="white" stroke="#666666" points="168.5,-30 13.5,-30 13.5,0 168.5,0 168.5,-30"/>
<text text-anchor="start" x="21.5" y="-18" font-family="Helvetica,sans-Serif" font-size="10.00">polyfem::varform::Nonlinear</text>
<text text-anchor="middle" x="91" y="-7" font-family="Helvetica,sans-Serif" font-size="10.00">ElasticVarForm::reset</text>
</a>
</g>
</g>
<!-- Node1&#45;&gt;Node4 -->
<g id="edge3_Node000001_Node000004" class="edge">
<title>Node1&#45;&gt;Node4</title>
<g id="a_edge3_Node000001_Node000004"><a xlink:title=" ">
<path fill="none" stroke="#63b8ff" d="M215.86,-45.49C195.23,-40.41 172.9,-34.91 152.95,-30"/>
<polygon fill="#63b8ff" stroke="#63b8ff" points="215.29,-48.95 225.84,-47.94 216.96,-42.16 215.29,-48.95"/>
</a>
</g>
</g>
</g>
</svg>
