<?xml version="1.0" encoding="UTF-8" standalone="no"?>
<!DOCTYPE svg PUBLIC "-//W3C//DTD SVG 1.1//EN"
 "http://www.w3.org/Graphics/SVG/1.1/DTD/svg11.dtd">
<!-- Generated by graphviz version 2.43.0 (0)
 -->
<!-- Title: polyfem::mesh::NCMesh3D::all_to_valid_edge Pages: 1 -->
<!--zoomable 245 -->
<svg id="main" version="1.1" xmlns="http://www.w3.org/2000/svg" xmlns:xlink="http://www.w3.org/1999/xlink" xml:space="preserve" onload="init(evt)">
<style type="text/css"><![CDATA[
.edge:hover path { stroke: red; }
.edge:hover polygon { stroke: red; fill: red; }
]]></style>
<script type="text/javascript"><![CDATA[
var edges = document.getElementsByTagName('g');
if (edges && edges.length) {
  for (var i=0;i<edges.length;i++) {
    if (edges[i].id.substr(0,4)=='edge') {
      edges[i].setAttribute('class','edge');
    }
  }
}
]]></script>
        <defs>
                <circle id="rim" cx="0" cy="0" r="7"/>
                <circle id="rim2" cx="0" cy="0" r="3.5"/>
                <g id="zoomPlus">
                        <use xlink:href="#rim" fill="#404040">
                                <set attributeName="fill" to="#808080" begin="zoomplus.mouseover" end="zoomplus.mouseout"/>
                        </use>
                        <path d="M-4,0h8M0,-4v8" fill="none" stroke="white" stroke-width="1.5" pointer-events="none"/>
                </g>
                <g id="zoomMin">
                        <use xlink:href="#rim" fill="#404040">
                                <set attributeName="fill" to="#808080" begin="zoomminus.mouseover" end="zoomminus.mouseout"/>
                        </use>
                        <path d="M-4,0h8" fill="none" stroke="white" stroke-width="1.5" pointer-events="none"/>
                </g>
                <g id="dirArrow">
                        <path fill="none" stroke="white" stroke-width="1.5" d="M0,-3.0v7 M-2.5,-0.5L0,-3.0L2.5,-0.5"/>
                </g>
               <g id="resetDef">
                       <use xlink:href="#rim2" fill="#404040">
                               <set attributeName="fill" to="#808080" begin="reset.mouseover" end="reset.mouseout"/>
                       </use>
               </g>
        </defs>

<script type="text/javascript">
var viewWidth = 761;
var viewHeight = 245;
var sectionId = 'dynsection-4';
</script>
<script xlink:href="svgpan.js"/>
<svg id="graph" class="graph">
<g id="viewport">
<title>polyfem::mesh::NCMesh3D::all_to_valid_edge</title>
<!-- Node1 -->
<g id="node1" class="node">
<title>Node1</title>
<g id="a_node1"><a xlink:title=" ">
<polygon fill="#bfbfbf" stroke="black" points="603,-118.5 603,-148.5 753,-148.5 753,-118.5 603,-118.5"/>
<text text-anchor="start" x="611" y="-136.5" font-family="Helvetica,sans-Serif" font-size="10.00">polyfem::mesh::NCMesh3D</text>
<text text-anchor="middle" x="678" y="-125.5" font-family="Helvetica,sans-Serif" font-size="10.00">::all_to_valid_edge</text>
</a>
</g>
</g>
<!-- Node2 -->
<g id="node2" class="node">
<title>Node2</title>
<g id="a_node2"><a xlink:href="classpolyfem_1_1mesh_1_1_n_c_mesh3_d.html#ad091898e0adf9b85c8a7e7e105640ade" target="_top" xlink:title=" ">
<polygon fill="none" stroke="black" points="417,-206.5 417,-236.5 567,-236.5 567,-206.5 417,-206.5"/>
<text text-anchor="start" x="425" y="-224.5" font-family="Helvetica,sans-Serif" font-size="10.00">polyfem::mesh::NCMesh3D</text>
<text text-anchor="middle" x="492" y="-213.5" font-family="Helvetica,sans-Serif" font-size="10.00">::cell_edge</text>
</a>
</g>
</g>
<!-- Node1&#45;&gt;Node2 -->
<g id="edge1" class="edge">
<title>Node1&#45;&gt;Node2</title>
<path fill="none" stroke="midnightblue" d="M641.25,-153.51C619.95,-165.14 592.24,-179.77 567,-191.5 555.81,-196.7 543.46,-201.91 532.1,-206.5"/>
<polygon fill="midnightblue" stroke="midnightblue" points="643.18,-156.45 650.26,-148.57 639.81,-150.31 643.18,-156.45"/>
</g>
<!-- Node3 -->
<g id="node3" class="node">
<title>Node3</title>
<g id="a_node3"><a xlink:href="classpolyfem_1_1mesh_1_1_n_c_mesh3_d.html#a2140d89e8b4da0d18e7dd386f6af1ea8" target="_top" xlink:title=" ">
<polygon fill="none" stroke="black" points="417,-118.5 417,-148.5 567,-148.5 567,-118.5 417,-118.5"/>
<text text-anchor="start" x="425" y="-136.5" font-family="Helvetica,sans-Serif" font-size="10.00">polyfem::mesh::NCMesh3D</text>
<text text-anchor="middle" x="492" y="-125.5" font-family="Helvetica,sans-Serif" font-size="10.00">::face_edge</text>
</a>
</g>
</g>
<!-- Node1&#45;&gt;Node3 -->
<g id="edge2" class="edge">
<title>Node1&#45;&gt;Node3</title>
<path fill="none" stroke="midnightblue" d="M592.93,-133.5C584.35,-133.5 575.66,-133.5 567.19,-133.5"/>
<polygon fill="midnightblue" stroke="midnightblue" points="592.96,-137 602.96,-133.5 592.96,-130 592.96,-137"/>
</g>
<!-- Node5 -->
<g id="node5" class="node">
<title>Node5</title>
<g id="a_node5"><a xlink:href="classpolyfem_1_1mesh_1_1_n_c_mesh3_d.html#a6899bc07d12b5d6118e963e3c698c227" target="_top" xlink:title=" ">
<polygon fill="none" stroke="black" points="207,-189.5 207,-219.5 381,-219.5 381,-189.5 207,-189.5"/>
<text text-anchor="start" x="215" y="-207.5" font-family="Helvetica,sans-Serif" font-size="10.00">polyfem::mesh::NCMesh3D</text>
<text text-anchor="middle" x="294" y="-196.5" font-family="Helvetica,sans-Serif" font-size="10.00">::get_index_from_element_edge</text>
</a>
</g>
</g>
<!-- Node1&#45;&gt;Node5 -->
<g id="edge11" class="edge">
<title>Node1&#45;&gt;Node5</title>
<path fill="none" stroke="midnightblue" d="M603.95,-150.7C591.64,-153.43 578.98,-156.13 567,-158.5 505.1,-170.76 434.87,-182.58 381.28,-191.17"/>
<polygon fill="midnightblue" stroke="midnightblue" points="604.73,-154.12 613.73,-148.52 603.2,-147.28 604.73,-154.12"/>
</g>
<!-- Node11 -->
<g id="node11" class="node">
<title>Node11</title>
<g id="a_node11"><a xlink:href="classpolyfem_1_1mesh_1_1_n_c_mesh3_d.html#a99c6e21c689ff5ee8f4f6f3f5b3bf335" target="_top" xlink:title=" ">
<polygon fill="none" stroke="black" points="417,-69.5 417,-99.5 567,-99.5 567,-69.5 417,-69.5"/>
<text text-anchor="start" x="425" y="-87.5" font-family="Helvetica,sans-Serif" font-size="10.00">polyfem::mesh::NCMesh3D</text>
<text text-anchor="middle" x="492" y="-76.5" font-family="Helvetica,sans-Serif" font-size="10.00">::leader_edge_of_edge</text>
</a>
</g>
</g>
<!-- Node1&#45;&gt;Node11 -->
<g id="edge12" class="edge">
<title>Node1&#45;&gt;Node11</title>
<path fill="none" stroke="midnightblue" d="M610.82,-115.88C590.69,-110.52 568.77,-104.68 549.35,-99.51"/>
<polygon fill="midnightblue" stroke="midnightblue" points="609.98,-119.27 620.54,-118.47 611.78,-112.51 609.98,-119.27"/>
</g>
<!-- Node12 -->
<g id="node12" class="node">
<title>Node12</title>
<g id="a_node12"><a xlink:href="classpolyfem_1_1mesh_1_1_n_c_mesh3_d.html#a5c9f701958a8774bbcd5dcfc144719a0" target="_top" xlink:title=" ">
<polygon fill="none" stroke="black" points="417,-20.5 417,-50.5 567,-50.5 567,-20.5 417,-20.5"/>
<text text-anchor="start" x="425" y="-38.5" font-family="Helvetica,sans-Serif" font-size="10.00">polyfem::mesh::NCMesh3D</text>
<text text-anchor="middle" x="492" y="-27.5" font-family="Helvetica,sans-Serif" font-size="10.00">::leader_edge_of_vertex</text>
</a>
</g>
</g>
<!-- Node1&#45;&gt;Node12 -->
<g id="edge13" class="edge">
<title>Node1&#45;&gt;Node12</title>
<path fill="none" stroke="midnightblue" d="M649.63,-112.41C628.07,-96.54 596.8,-75.11 567,-60.5 559.57,-56.86 551.48,-53.53 543.47,-50.58"/>
<polygon fill="midnightblue" stroke="midnightblue" points="647.56,-115.23 657.67,-118.4 651.74,-109.62 647.56,-115.23"/>
</g>
<!-- Node4 -->
<g id="node4" class="node">
<title>Node4</title>
<g id="a_node4"><a xlink:href="classpolyfem_1_1mesh_1_1_n_c_mesh3_d.html#a92216d79fb97ae8fe2921d7ac966f086" target="_top" xlink:title=" ">
<polygon fill="none" stroke="black" points="219,-140.5 219,-170.5 369,-170.5 369,-140.5 219,-140.5"/>
<text text-anchor="start" x="227" y="-158.5" font-family="Helvetica,sans-Serif" font-size="10.00">polyfem::mesh::NCMesh3D</text>
<text text-anchor="middle" x="294" y="-147.5" font-family="Helvetica,sans-Serif" font-size="10.00">::get_index_from_element</text>
</a>
</g>
</g>
<!-- Node3&#45;&gt;Node4 -->
<g id="edge3" class="edge">
<title>Node3&#45;&gt;Node4</title>
<path fill="none" stroke="midnightblue" d="M406.92,-142.94C394.38,-144.35 381.52,-145.79 369.2,-147.17"/>
<polygon fill="midnightblue" stroke="midnightblue" points="407.35,-146.41 416.9,-141.82 406.57,-139.45 407.35,-146.41"/>
</g>
<!-- Node3&#45;&gt;Node5 -->
<g id="edge4" class="edge">
<title>Node3&#45;&gt;Node5</title>
<path fill="none" stroke="midnightblue" d="M443.39,-152.34C434.58,-155.96 425.48,-159.78 417,-163.5 400.79,-170.6 397.58,-174.32 381,-180.5 372.43,-183.69 363.24,-186.69 354.18,-189.41"/>
<polygon fill="midnightblue" stroke="midnightblue" points="444.86,-155.52 452.8,-148.51 442.22,-149.04 444.86,-155.52"/>
</g>
<!-- Node6 -->
<g id="node6" class="node">
<title>Node6</title>
<g id="a_node6"><a xlink:href="classpolyfem_1_1mesh_1_1_n_c_mesh3_d.html#aee7eea87ed322332f9933ae449fc4dcb" target="_top" xlink:title=" ">
<polygon fill="none" stroke="black" points="0,-98.5 0,-128.5 171,-128.5 171,-98.5 0,-98.5"/>
<text text-anchor="start" x="8" y="-116.5" font-family="Helvetica,sans-Serif" font-size="10.00">polyfem::mesh::NCMesh3D</text>
<text text-anchor="middle" x="85.5" y="-105.5" font-family="Helvetica,sans-Serif" font-size="10.00">::get_index_from_element_face</text>
</a>
</g>
</g>
<!-- Node3&#45;&gt;Node6 -->
<g id="edge5" class="edge">
<title>Node3&#45;&gt;Node6</title>
<path fill="none" stroke="midnightblue" d="M406.4,-129.32C337.31,-125.9 240.14,-121.1 171.06,-117.68"/>
<polygon fill="midnightblue" stroke="midnightblue" points="406.65,-132.83 416.81,-129.83 406.99,-125.84 406.65,-132.83"/>
</g>
<!-- Node7 -->
<g id="node7" class="node">
<title>Node7</title>
<g id="a_node7"><a xlink:href="classpolyfem_1_1mesh_1_1_n_c_mesh3_d.html#afb21af16f321ba8dfc281c6ca91b3d06" target="_top" xlink:title=" ">
<polygon fill="none" stroke="black" points="219,-52.5 219,-82.5 369,-82.5 369,-52.5 219,-52.5"/>
<text text-anchor="start" x="227" y="-70.5" font-family="Helvetica,sans-Serif" font-size="10.00">polyfem::mesh::NCMesh3D</text>
<text text-anchor="middle" x="294" y="-59.5" font-family="Helvetica,sans-Serif" font-size="10.00">::switch_edge</text>
</a>
</g>
</g>
<!-- Node3&#45;&gt;Node7 -->
<g id="edge6" class="edge">
<title>Node3&#45;&gt;Node7</title>
<path fill="none" stroke="midnightblue" d="M434.23,-115.2C428.4,-113.29 422.58,-111.37 417,-109.5 390.76,-100.73 361.45,-90.65 338.13,-82.56"/>
<polygon fill="midnightblue" stroke="midnightblue" points="433.39,-118.61 443.98,-118.39 435.57,-111.96 433.39,-118.61"/>
</g>
<!-- Node9 -->
<g id="node9" class="node">
<title>Node9</title>
<g id="a_node9"><a xlink:href="classpolyfem_1_1mesh_1_1_n_c_mesh3_d.html#ad8ecc4cc0f1c848da51187c51075f467" target="_top" xlink:title=" ">
<polygon fill="none" stroke="black" points="219,-2.5 219,-32.5 369,-32.5 369,-2.5 219,-2.5"/>
<text text-anchor="start" x="227" y="-20.5" font-family="Helvetica,sans-Serif" font-size="10.00">polyfem::mesh::NCMesh3D</text>
<text text-anchor="middle" x="294" y="-9.5" font-family="Helvetica,sans-Serif" font-size="10.00">::switch_face</text>
</a>
</g>
</g>
<!-- Node3&#45;&gt;Node9 -->
<g id="edge9" class="edge">
<title>Node3&#45;&gt;Node9</title>
<path fill="none" stroke="midnightblue" d="M421.87,-113.19C420.18,-112.03 418.56,-110.8 417,-109.5 391.05,-87.83 407.28,-63.76 381,-42.5 376.17,-38.59 370.74,-35.29 365.03,-32.5"/>
<polygon fill="midnightblue" stroke="midnightblue" points="420.33,-116.35 430.71,-118.47 423.92,-110.34 420.33,-116.35"/>
</g>
<!-- Node7&#45;&gt;Node6 -->
<g id="edge7" class="edge">
<title>Node7&#45;&gt;Node6</title>
<path fill="none" stroke="midnightblue" d="M215.56,-84.75C195.3,-89.26 173.61,-94.09 153.91,-98.48"/>
<polygon fill="midnightblue" stroke="midnightblue" points="216.38,-88.15 225.38,-82.56 214.86,-81.32 216.38,-88.15"/>
</g>
<!-- Node8 -->
<g id="node8" class="node">
<title>Node8</title>
<g id="a_node8"><a xlink:href="classpolyfem_1_1mesh_1_1_n_c_mesh3_d.html#a9ec219f3f419a3b0de13accf4064ce33" target="_top" xlink:title=" ">
<polygon fill="none" stroke="black" points="10.5,-49.5 10.5,-79.5 160.5,-79.5 160.5,-49.5 10.5,-49.5"/>
<text text-anchor="start" x="18.5" y="-67.5" font-family="Helvetica,sans-Serif" font-size="10.00">polyfem::mesh::NCMesh3D</text>
<text text-anchor="middle" x="85.5" y="-56.5" font-family="Helvetica,sans-Serif" font-size="10.00">::next_around_face</text>
</a>
</g>
</g>
<!-- Node7&#45;&gt;Node8 -->
<g id="edge8" class="edge">
<title>Node7&#45;&gt;Node8</title>
<path fill="none" stroke="midnightblue" d="M208.46,-66.27C192.66,-66.04 176.26,-65.8 160.79,-65.58"/>
<polygon fill="midnightblue" stroke="midnightblue" points="208.69,-69.78 218.74,-66.42 208.79,-62.78 208.69,-69.78"/>
</g>
<!-- Node10 -->
<g id="node10" class="node">
<title>Node10</title>
<g id="a_node10"><a xlink:href="classpolyfem_1_1mesh_1_1_n_c_mesh3_d.html#a1f48fca7715b9b4762142000ec3ab633" target="_top" xlink:title=" ">
<polygon fill="none" stroke="black" points="10.5,-0.5 10.5,-30.5 160.5,-30.5 160.5,-0.5 10.5,-0.5"/>
<text text-anchor="start" x="18.5" y="-18.5" font-family="Helvetica,sans-Serif" font-size="10.00">polyfem::mesh::NCMesh3D</text>
<text text-anchor="middle" x="85.5" y="-7.5" font-family="Helvetica,sans-Serif" font-size="10.00">::next_around_edge</text>
</a>
</g>
</g>
<!-- Node9&#45;&gt;Node10 -->
<g id="edge10" class="edge">
<title>Node9&#45;&gt;Node10</title>
<path fill="none" stroke="midnightblue" d="M208.46,-16.68C192.66,-16.53 176.26,-16.37 160.79,-16.22"/>
<polygon fill="midnightblue" stroke="midnightblue" points="208.71,-20.18 218.74,-16.78 208.77,-13.18 208.71,-20.18"/>
</g>
</g>
</svg>
        <g id="navigator" transform="translate(0 0)" fill="#404254">
                <rect fill="#f2f5e9" fill-opacity="0.5" stroke="#606060" stroke-width=".5" x="0" y="0" width="60" height="60"/>
                <use id="zoomplus" xlink:href="#zoomPlus" x="17" y="9" onmousedown="handleZoom(evt,'in')"/>
                <use id="zoomminus" xlink:href="#zoomMin" x="42" y="9" onmousedown="handleZoom(evt,'out')"/>
                <use id="reset" xlink:href="#resetDef" x="30" y="36" onmousedown="handleReset()"/>
                <g id="arrowUp" xlink:href="#dirArrow" transform="translate(30 24)" onmousedown="handlePan(0,-1)">
                  <use xlink:href="#rim" fill="#404040">
                        <set attributeName="fill" to="#808080" begin="arrowUp.mouseover" end="arrowUp.mouseout"/>
                  </use>
                  <path fill="none" stroke="white" stroke-width="1.5" d="M0,-3.0v7 M-2.5,-0.5L0,-3.0L2.5,-0.5"/>
                </g>
                <g id="arrowRight" xlink:href="#dirArrow" transform="rotate(90) translate(36 -43)" onmousedown="handlePan(1,0)">
                  <use xlink:href="#rim" fill="#404040">
                        <set attributeName="fill" to="#808080" begin="arrowRight.mouseover" end="arrowRight.mouseout"/>
                  </use>
                  <path fill="none" stroke="white" stroke-width="1.5" d="M0,-3.0v7 M-2.5,-0.5L0,-3.0L2.5,-0.5"/>
                </g>
                <g id="arrowDown" xlink:href="#dirArrow" transform="rotate(180) translate(-30 -48)" onmousedown="handlePan(0,1)">
                  <use xlink:href="#rim" fill="#404040">
                        <set attributeName="fill" to="#808080" begin="arrowDown.mouseover" end="arrowDown.mouseout"/>
                  </use>
                  <path fill="none" stroke="white" stroke-width="1.5" d="M0,-3.0v7 M-2.5,-0.5L0,-3.0L2.5,-0.5"/>
                </g>
                <g id="arrowLeft" xlink:href="#dirArrow" transform="rotate(270) translate(-36 17)" onmousedown="handlePan(-1,0)">
                  <use xlink:href="#rim" fill="#404040">
                        <set attributeName="fill" to="#808080" begin="arrowLeft.mouseover" end="arrowLeft.mouseout"/>
                  </use>
                  <path fill="none" stroke="white" stroke-width="1.5" d="M0,-3.0v7 M-2.5,-0.5L0,-3.0L2.5,-0.5"/>
                </g>
        </g>
        <svg viewBox="0 0 15 15" width="100%" height="30px" preserveAspectRatio="xMaxYMin meet">
         <g id="arrow_out" transform="scale(0.3 0.3)">
          <a xlink:href="classpolyfem_1_1mesh_1_1_n_c_mesh3_d_a7243aed3a7b37ad3bc0b869a2167a93f_icgraph_org.svg" target="_base">
           <rect id="button" ry="5" rx="5" y="6" x="6" height="38" width="38"
                fill="#f2f5e9" fill-opacity="0.5" stroke="#606060" stroke-width="1.0"/>
           <path id="arrow"
             d="M 11.500037,31.436501 C 11.940474,20.09759 22.043105,11.32322 32.158766,21.979434 L 37.068811,17.246167 C 37.068811,17.246167 37.088388,32 37.088388,32 L 22.160133,31.978069 C 22.160133,31.978069 26.997745,27.140456 26.997745,27.140456 C 18.528582,18.264221 13.291696,25.230495 11.500037,31.436501 z"
             style="fill:#404040;"/>
          </a>
         </g>
        </svg>
</svg>
