<?xml version="1.0" encoding="UTF-8" standalone="no"?>
<!DOCTYPE svg PUBLIC "-//W3C//DTD SVG 1.1//EN"
 "http://www.w3.org/Graphics/SVG/1.1/DTD/svg11.dtd">
<!-- Generated by graphviz version 2.43.0 (0)
 -->
<!-- Title: polyfem::utils::PiecewiseConstantInterpolation Pages: 1 -->
<svg width="160pt" height="159pt"
 viewBox="0.00 0.00 160.00 159.00" xmlns="http://www.w3.org/2000/svg" xmlns:xlink="http://www.w3.org/1999/xlink">
<g id="graph0" class="graph" transform="scale(1 1) rotate(0) translate(4 155)">
<title>polyfem::utils::PiecewiseConstantInterpolation</title>
<!-- Node1 -->
<g id="node1" class="node">
<title>Node1</title>
<g id="a_node1"><a xlink:title=" ">
<polygon fill="#999999" stroke="#666666" points="145.5,-30 6.5,-30 6.5,0 145.5,0 145.5,-30"/>
<text text-anchor="start" x="14.5" y="-18" font-family="Helvetica,sans-Serif" font-size="10.00">polyfem::utils::Piecewise</text>
<text text-anchor="middle" x="76" y="-7" font-family="Helvetica,sans-Serif" font-size="10.00">ConstantInterpolation</text>
</a>
</g>
</g>
<!-- Node2 -->
<g id="node2" class="node">
<title>Node2</title>
<g id="a_node2"><a xlink:href="classpolyfem_1_1utils_1_1_piecewise_interpolation.html" target="_top" xlink:title=" ">
<polygon fill="white" stroke="#666666" points="145.5,-96 6.5,-96 6.5,-66 145.5,-66 145.5,-96"/>
<text text-anchor="start" x="14.5" y="-84" font-family="Helvetica,sans-Serif" font-size="10.00">polyfem::utils::Piecewise</text>
<text text-anchor="middle" x="76" y="-73" font-family="Helvetica,sans-Serif" font-size="10.00">Interpolation</text>
</a>
</g>
</g>
<!-- Node2&#45;&gt;Node1 -->
<g id="edge1" class="edge">
<title>Node2&#45;&gt;Node1</title>
<path fill="none" stroke="#63b8ff" d="M76,-55.54C76,-46.96 76,-37.61 76,-30.16"/>
<polygon fill="#63b8ff" stroke="#63b8ff" points="72.5,-55.8 76,-65.8 79.5,-55.8 72.5,-55.8"/>
</g>
<!-- Node3 -->
<g id="node3" class="node">
<title>Node3</title>
<g id="a_node3"><a xlink:href="classpolyfem_1_1utils_1_1_interpolation.html" target="_top" xlink:title=" ">
<polygon fill="white" stroke="#666666" points="152,-151 0,-151 0,-132 152,-132 152,-151"/>
<text text-anchor="middle" x="76" y="-139" font-family="Helvetica,sans-Serif" font-size="10.00">polyfem::utils::Interpolation</text>
</a>
</g>
</g>
<!-- Node3&#45;&gt;Node2 -->
<g id="edge2" class="edge">
<title>Node3&#45;&gt;Node2</title>
<path fill="none" stroke="#63b8ff" d="M76,-121.65C76,-113.36 76,-103.78 76,-96.11"/>
<polygon fill="#63b8ff" stroke="#63b8ff" points="72.5,-121.87 76,-131.87 79.5,-121.87 72.5,-121.87"/>
</g>
</g>
</svg>
