<?xml version="1.0" encoding="UTF-8" standalone="no"?>
<!DOCTYPE svg PUBLIC "-//W3C//DTD SVG 1.1//EN"
 "http://www.w3.org/Graphics/SVG/1.1/DTD/svg11.dtd">
<!-- Generated by graphviz version 2.43.0 (0)
 -->
<!-- Title: polyfem::legacy::State::initial_solution Pages: 1 -->
<svg width="1053pt" height="222pt"
 viewBox="0.00 0.00 1053.00 222.00" xmlns="http://www.w3.org/2000/svg" xmlns:xlink="http://www.w3.org/1999/xlink">
<g id="graph0" class="graph" transform="scale(1 1) rotate(0) translate(4 218)">
<title>polyfem::legacy::State::initial_solution</title>
<!-- Node1 -->
<g id="Node000001" class="node">
<title>Node1</title>
<g id="a_Node000001"><a xlink:title="Load or compute the initial solution.">
<polygon fill="#999999" stroke="#666666" points="1045,-100 919,-100 919,-70 1045,-70 1045,-100"/>
<text text-anchor="start" x="927" y="-88" font-family="Helvetica,sans-Serif" font-size="10.00">polyfem::legacy::State</text>
<text text-anchor="middle" x="982" y="-77" font-family="Helvetica,sans-Serif" font-size="10.00">::initial_solution</text>
</a>
</g>
</g>
<!-- Node2 -->
<g id="Node000002" class="node">
<title>Node2</title>
<g id="a_Node000002"><a xlink:href="classpolyfem_1_1legacy_1_1_state.html#a320a349beddb176b7480fb99d5a95ffe" target="_top" xlink:title="initialize the linear solve">
<polygon fill="white" stroke="#666666" points="686,-214 560,-214 560,-184 686,-184 686,-214"/>
<text text-anchor="start" x="568" y="-202" font-family="Helvetica,sans-Serif" font-size="10.00">polyfem::legacy::State</text>
<text text-anchor="middle" x="623" y="-191" font-family="Helvetica,sans-Serif" font-size="10.00">::init_linear_solve</text>
</a>
</g>
</g>
<!-- Node1&#45;&gt;Node2 -->
<g id="edge1_Node000001_Node000002" class="edge">
<title>Node1&#45;&gt;Node2</title>
<g id="a_edge1_Node000001_Node000002"><a xlink:title=" ">
<path fill="none" stroke="#63b8ff" d="M943.43,-104.6C925.47,-113.46 903.46,-123.58 883,-131 817.22,-154.85 739.27,-174.16 686.19,-186.02"/>
<polygon fill="#63b8ff" stroke="#63b8ff" points="945.05,-107.71 952.43,-100.1 941.92,-101.44 945.05,-107.71"/>
</a>
</g>
</g>
<!-- Node8 -->
<g id="Node000008" class="node">
<title>Node8</title>
<g id="a_Node000008"><a xlink:href="classpolyfem_1_1legacy_1_1_state.html#ae353ff9a3d87c2cde74ab3558bc139da" target="_top" xlink:title="initialize the nonlinear solver">
<polygon fill="white" stroke="#666666" points="883,-122 726,-122 726,-92 883,-92 883,-122"/>
<text text-anchor="start" x="734" y="-110" font-family="Helvetica,sans-Serif" font-size="10.00">polyfem::legacy::State</text>
<text text-anchor="middle" x="804.5" y="-99" font-family="Helvetica,sans-Serif" font-size="10.00">::init_nonlinear_tensor_solve</text>
</a>
</g>
</g>
<!-- Node1&#45;&gt;Node8 -->
<g id="edge7_Node000001_Node000008" class="edge">
<title>Node1&#45;&gt;Node8</title>
<g id="a_edge7_Node000001_Node000008"><a xlink:title=" ">
<path fill="none" stroke="#63b8ff" d="M908.5,-94.09C900.09,-95.14 891.49,-96.22 883.03,-97.28"/>
<polygon fill="#63b8ff" stroke="#63b8ff" points="909.14,-97.54 918.63,-92.82 908.27,-90.59 909.14,-97.54"/>
</a>
</g>
</g>
<!-- Node10 -->
<g id="Node000010" class="node">
<title>Node10</title>
<g id="a_Node000010"><a xlink:href="classpolyfem_1_1legacy_1_1_state.html#a2bf21acacd475be7d3266038f7564619" target="_top" xlink:title="initialize solver">
<polygon fill="white" stroke="#666666" points="686,-68 560,-68 560,-38 686,-38 686,-68"/>
<text text-anchor="start" x="568" y="-56" font-family="Helvetica,sans-Serif" font-size="10.00">polyfem::legacy::State</text>
<text text-anchor="middle" x="623" y="-45" font-family="Helvetica,sans-Serif" font-size="10.00">::init_solve</text>
</a>
</g>
</g>
<!-- Node1&#45;&gt;Node10 -->
<g id="edge11_Node000001_Node000010" class="edge">
<title>Node1&#45;&gt;Node10</title>
<g id="a_edge11_Node000001_Node000010"><a xlink:title=" ">
<path fill="none" stroke="#63b8ff" d="M908.59,-78.51C843.21,-72.65 748.04,-64.12 686.07,-58.56"/>
<polygon fill="#63b8ff" stroke="#63b8ff" points="908.54,-82.02 918.82,-79.43 909.17,-75.05 908.54,-82.02"/>
</a>
</g>
</g>
<!-- Node11 -->
<g id="Node000011" class="node">
<title>Node11</title>
<g id="a_Node000011"><a xlink:href="classpolyfem_1_1legacy_1_1_state.html#a817a0023cd82fa547e97eb7181b88e8e" target="_top" xlink:title="solves transient linear problem">
<polygon fill="white" stroke="#666666" points="870,-30 739,-30 739,0 870,0 870,-30"/>
<text text-anchor="start" x="747" y="-18" font-family="Helvetica,sans-Serif" font-size="10.00">polyfem::legacy::State</text>
<text text-anchor="middle" x="804.5" y="-7" font-family="Helvetica,sans-Serif" font-size="10.00">::solve_transient_linear</text>
</a>
</g>
</g>
<!-- Node1&#45;&gt;Node11 -->
<g id="edge13_Node000001_Node000011" class="edge">
<title>Node1&#45;&gt;Node11</title>
<g id="a_edge13_Node000001_Node000011"><a xlink:title=" ">
<path fill="none" stroke="#63b8ff" d="M936.26,-65.86C919.59,-58.84 900.49,-50.93 883,-44 871.25,-39.34 858.42,-34.46 846.64,-30.06"/>
<polygon fill="#63b8ff" stroke="#63b8ff" points="935.18,-69.2 945.75,-69.87 937.9,-62.75 935.18,-69.2"/>
</a>
</g>
</g>
<!-- Node3 -->
<g id="Node000003" class="node">
<title>Node3</title>
<g id="a_Node000003"><a xlink:href="classpolyfem_1_1legacy_1_1_state.html#ae8174512fdfb4de037d593ef99b26c0f" target="_top" xlink:title="solves the problems">
<polygon fill="white" stroke="#666666" points="520,-122 394,-122 394,-92 520,-92 520,-122"/>
<text text-anchor="start" x="402" y="-110" font-family="Helvetica,sans-Serif" font-size="10.00">polyfem::legacy::State</text>
<text text-anchor="middle" x="457" y="-99" font-family="Helvetica,sans-Serif" font-size="10.00">::solve_problem</text>
</a>
</g>
</g>
<!-- Node2&#45;&gt;Node3 -->
<g id="edge2_Node000002_Node000003" class="edge">
<title>Node2&#45;&gt;Node3</title>
<g id="a_edge2_Node000002_Node000003"><a xlink:title=" ">
<path fill="none" stroke="#63b8ff" d="M575.32,-179.59C568.75,-176.54 562.15,-173.3 556,-170 528.56,-155.27 498.67,-135.46 479.21,-122.02"/>
<polygon fill="#63b8ff" stroke="#63b8ff" points="574.3,-182.97 584.85,-183.9 577.18,-176.59 574.3,-182.97"/>
</a>
</g>
</g>
<!-- Node4 -->
<g id="Node000004" class="node">
<title>Node4</title>
<g id="a_Node000004"><a xlink:href="main_8cpp.html#a0d6fd6ed6fda5fc5e4b6ed34b45fe322" target="_top" xlink:title=" ">
<polygon fill="white" stroke="#666666" points="346.5,-146 235.5,-146 235.5,-116 346.5,-116 346.5,-146"/>
<text text-anchor="start" x="243.5" y="-134" font-family="Helvetica,sans-Serif" font-size="10.00">forward_simulation</text>
<text text-anchor="middle" x="291" y="-123" font-family="Helvetica,sans-Serif" font-size="10.00">_with_legacy_state</text>
</a>
</g>
</g>
<!-- Node3&#45;&gt;Node4 -->
<g id="edge3_Node000003_Node000004" class="edge">
<title>Node3&#45;&gt;Node4</title>
<g id="a_edge3_Node000003_Node000004"><a xlink:title=" ">
<path fill="none" stroke="#63b8ff" d="M384.01,-117.53C371.44,-119.37 358.56,-121.26 346.56,-123.02"/>
<polygon fill="#63b8ff" stroke="#63b8ff" points="384.61,-120.98 394,-116.07 383.6,-114.06 384.61,-120.98"/>
</a>
</g>
</g>
<!-- Node7 -->
<g id="Node000007" class="node">
<title>Node7</title>
<g id="a_Node000007"><a xlink:href="structpolyfem_1_1solver_1_1_adjoint_opt_utils.html#a0aab07822700745f38ea85dd84f76511" target="_top" xlink:title=" ">
<polygon fill="white" stroke="#666666" points="358,-98 224,-98 224,-68 358,-68 358,-98"/>
<text text-anchor="start" x="232" y="-86" font-family="Helvetica,sans-Serif" font-size="10.00">polyfem::solver::Adjoint</text>
<text text-anchor="middle" x="291" y="-75" font-family="Helvetica,sans-Serif" font-size="10.00">OptUtils::solve_pde</text>
</a>
</g>
</g>
<!-- Node3&#45;&gt;Node7 -->
<g id="edge6_Node000003_Node000007" class="edge">
<title>Node3&#45;&gt;Node7</title>
<g id="a_edge6_Node000003_Node000007"><a xlink:title=" ">
<path fill="none" stroke="#63b8ff" d="M384.01,-96.47C375.43,-95.21 366.69,-93.93 358.19,-92.69"/>
<polygon fill="#63b8ff" stroke="#63b8ff" points="383.6,-99.94 394,-97.93 384.61,-93.02 383.6,-99.94"/>
</a>
</g>
</g>
<!-- Node5 -->
<g id="Node000005" class="node">
<title>Node5</title>
<g id="a_Node000005"><a xlink:href="main_8cpp.html#aec889c702a246ad7f332c75ab7adb438" target="_top" xlink:title=" ">
<polygon fill="white" stroke="#666666" points="188,-140.5 77,-140.5 77,-121.5 188,-121.5 188,-140.5"/>
<text text-anchor="middle" x="132.5" y="-128.5" font-family="Helvetica,sans-Serif" font-size="10.00">forward_simulation</text>
</a>
</g>
</g>
<!-- Node4&#45;&gt;Node5 -->
<g id="edge4_Node000004_Node000005" class="edge">
<title>Node4&#45;&gt;Node5</title>
<g id="a_edge4_Node000004_Node000005"><a xlink:title=" ">
<path fill="none" stroke="#63b8ff" d="M225.1,-131C212.83,-131 200.12,-131 188.21,-131"/>
<polygon fill="#63b8ff" stroke="#63b8ff" points="225.26,-134.5 235.26,-131 225.26,-127.5 225.26,-134.5"/>
</a>
</g>
</g>
<!-- Node6 -->
<g id="Node000006" class="node">
<title>Node6</title>
<g id="a_Node000006"><a xlink:href="main_8cpp.html#a3c04138a5bfe5d72780bb7e82a18e627" target="_top" xlink:title=" ">
<polygon fill="white" stroke="#666666" points="41,-140.5 0,-140.5 0,-121.5 41,-121.5 41,-140.5"/>
<text text-anchor="middle" x="20.5" y="-128.5" font-family="Helvetica,sans-Serif" font-size="10.00">main</text>
</a>
</g>
</g>
<!-- Node5&#45;&gt;Node6 -->
<g id="edge5_Node000005_Node000006" class="edge">
<title>Node5&#45;&gt;Node6</title>
<g id="a_edge5_Node000005_Node000006"><a xlink:title=" ">
<path fill="none" stroke="#63b8ff" d="M66.64,-131C57.35,-131 48.45,-131 41.05,-131"/>
<polygon fill="#63b8ff" stroke="#63b8ff" points="66.82,-134.5 76.82,-131 66.82,-127.5 66.82,-134.5"/>
</a>
</g>
</g>
<!-- Node8&#45;&gt;Node3 -->
<g id="edge8_Node000008_Node000003" class="edge">
<title>Node8&#45;&gt;Node3</title>
<g id="a_edge8_Node000008_Node000003"><a xlink:title=" ">
<path fill="none" stroke="#63b8ff" d="M747.78,-124.79C729.56,-129.78 709.1,-134.52 690,-137 630.94,-144.67 614.9,-145.81 556,-137 536.47,-134.08 515.45,-128.05 497.9,-122.16"/>
<polygon fill="#63b8ff" stroke="#63b8ff" points="748.98,-128.09 757.65,-122.01 747.08,-121.35 748.98,-128.09"/>
</a>
</g>
</g>
<!-- Node9 -->
<g id="Node000009" class="node">
<title>Node9</title>
<g id="a_Node000009"><a xlink:href="classpolyfem_1_1legacy_1_1_state.html#a0e3aedcf0fff3afc2b8f8842a433ef80" target="_top" xlink:title="solves transient tensor nonlinear problem">
<polygon fill="white" stroke="#666666" points="690,-127.5 556,-127.5 556,-86.5 690,-86.5 690,-127.5"/>
<text text-anchor="start" x="564" y="-115.5" font-family="Helvetica,sans-Serif" font-size="10.00">polyfem::legacy::State</text>
<text text-anchor="start" x="564" y="-104.5" font-family="Helvetica,sans-Serif" font-size="10.00">::solve_transient_tensor</text>
<text text-anchor="middle" x="623" y="-93.5" font-family="Helvetica,sans-Serif" font-size="10.00">_nonlinear</text>
</a>
</g>
</g>
<!-- Node8&#45;&gt;Node9 -->
<g id="edge9_Node000008_Node000009" class="edge">
<title>Node8&#45;&gt;Node9</title>
<g id="a_edge9_Node000008_Node000009"><a xlink:title=" ">
<path fill="none" stroke="#63b8ff" d="M715.77,-107C707.19,-107 698.59,-107 690.27,-107"/>
<polygon fill="#63b8ff" stroke="#63b8ff" points="715.81,-110.5 725.81,-107 715.81,-103.5 715.81,-110.5"/>
</a>
</g>
</g>
<!-- Node9&#45;&gt;Node3 -->
<g id="edge10_Node000009_Node000003" class="edge">
<title>Node9&#45;&gt;Node3</title>
<g id="a_edge10_Node000009_Node000003"><a xlink:title=" ">
<path fill="none" stroke="#63b8ff" d="M545.5,-107C537.04,-107 528.49,-107 520.23,-107"/>
<polygon fill="#63b8ff" stroke="#63b8ff" points="545.77,-110.5 555.77,-107 545.77,-103.5 545.77,-110.5"/>
</a>
</g>
</g>
<!-- Node10&#45;&gt;Node3 -->
<g id="edge12_Node000010_Node000003" class="edge">
<title>Node10&#45;&gt;Node3</title>
<g id="a_edge12_Node000010_Node000003"><a xlink:title=" ">
<path fill="none" stroke="#63b8ff" d="M566.79,-71.18C546.29,-77.93 523.28,-85.5 503.72,-91.95"/>
<polygon fill="#63b8ff" stroke="#63b8ff" points="567.91,-74.49 576.32,-68.04 565.72,-67.85 567.91,-74.49"/>
</a>
</g>
</g>
<!-- Node11&#45;&gt;Node3 -->
<g id="edge14_Node000011_Node000003" class="edge">
<title>Node11&#45;&gt;Node3</title>
<g id="a_edge14_Node000011_Node000003"><a xlink:title=" ">
<path fill="none" stroke="#63b8ff" d="M728.81,-7.66C678.38,-5.45 611.21,-7.94 556,-29 520.85,-42.41 488.45,-73.31 471.14,-91.95"/>
<polygon fill="#63b8ff" stroke="#63b8ff" points="728.82,-11.16 738.99,-8.18 729.18,-4.17 728.82,-11.16"/>
</a>
</g>
</g>
</g>
</svg>
