<?xml version="1.0" encoding="UTF-8" standalone="no"?>
<!DOCTYPE svg PUBLIC "-//W3C//DTD SVG 1.1//EN"
 "http://www.w3.org/Graphics/SVG/1.1/DTD/svg11.dtd">
<!-- Generated by graphviz version 2.43.0 (0)
 -->
<!-- Title: polyfem::time_integrator::ImplicitTimeIntegrator Pages: 1 -->
<svg width="348pt" height="124pt"
 viewBox="0.00 0.00 348.00 123.50" xmlns="http://www.w3.org/2000/svg" xmlns:xlink="http://www.w3.org/1999/xlink">
<g id="graph0" class="graph" transform="scale(1 1) rotate(0) translate(4 119.5)">
<title>polyfem::time_integrator::ImplicitTimeIntegrator</title>
<!-- Node1 -->
<g id="Node000001" class="node">
<title>Node1</title>
<g id="a_Node000001"><a xlink:title="Implicit time integrator of a second order ODE (equivently a system of coupled first order ODEs).">
<polygon fill="#999999" stroke="#666666" points="139,-78 0,-78 0,-48 139,-48 139,-78"/>
<text text-anchor="start" x="8" y="-66" font-family="Helvetica,sans-Serif" font-size="10.00">polyfem::time_integrator</text>
<text text-anchor="middle" x="69.5" y="-55" font-family="Helvetica,sans-Serif" font-size="10.00">::ImplicitTimeIntegrator</text>
</a>
</g>
</g>
<!-- Node2 -->
<g id="Node000002" class="node">
<title>Node2</title>
<g id="a_Node000002"><a xlink:href="classpolyfem_1_1time__integrator_1_1_b_d_f.html" target="_top" xlink:title="Backward Differential Formulas.">
<polygon fill="white" stroke="#666666" points="340,-115.5 175,-115.5 175,-96.5 340,-96.5 340,-115.5"/>
<text text-anchor="middle" x="257.5" y="-103.5" font-family="Helvetica,sans-Serif" font-size="10.00">polyfem::time_integrator::BDF</text>
</a>
</g>
</g>
<!-- Node1&#45;&gt;Node2 -->
<g id="edge1_Node000001_Node000002" class="edge">
<title>Node1&#45;&gt;Node2</title>
<g id="a_edge1_Node000001_Node000002"><a xlink:title=" ">
<path fill="none" stroke="#63b8ff" d="M145.31,-80.3C169.19,-85.82 194.74,-91.72 215.31,-96.48"/>
<polygon fill="#63b8ff" stroke="#63b8ff" points="146.09,-76.88 135.55,-78.04 144.51,-83.7 146.09,-76.88"/>
</a>
</g>
</g>
<!-- Node3 -->
<g id="Node000003" class="node">
<title>Node3</title>
<g id="a_Node000003"><a xlink:href="classpolyfem_1_1time__integrator_1_1_implicit_euler.html" target="_top" xlink:title="Implicit Euler time integrator of a second order ODE (equivently a system of coupled first order ODEs...">
<polygon fill="white" stroke="#666666" points="327,-78 188,-78 188,-48 327,-48 327,-78"/>
<text text-anchor="start" x="196" y="-66" font-family="Helvetica,sans-Serif" font-size="10.00">polyfem::time_integrator</text>
<text text-anchor="middle" x="257.5" y="-55" font-family="Helvetica,sans-Serif" font-size="10.00">::ImplicitEuler</text>
</a>
</g>
</g>
<!-- Node1&#45;&gt;Node3 -->
<g id="edge2_Node000001_Node000003" class="edge">
<title>Node1&#45;&gt;Node3</title>
<g id="a_edge2_Node000001_Node000003"><a xlink:title=" ">
<path fill="none" stroke="#63b8ff" d="M149.37,-63C162.12,-63 175.25,-63 187.74,-63"/>
<polygon fill="#63b8ff" stroke="#63b8ff" points="149.23,-59.5 139.23,-63 149.23,-66.5 149.23,-59.5"/>
</a>
</g>
</g>
<!-- Node4 -->
<g id="Node000004" class="node">
<title>Node4</title>
<g id="a_Node000004"><a xlink:href="classpolyfem_1_1time__integrator_1_1_implicit_newmark.html" target="_top" xlink:title="Implicit Newmark&#45;beta method.">
<polygon fill="white" stroke="#666666" points="327,-30 188,-30 188,0 327,0 327,-30"/>
<text text-anchor="start" x="196" y="-18" font-family="Helvetica,sans-Serif" font-size="10.00">polyfem::time_integrator</text>
<text text-anchor="middle" x="257.5" y="-7" font-family="Helvetica,sans-Serif" font-size="10.00">::ImplicitNewmark</text>
</a>
</g>
</g>
<!-- Node1&#45;&gt;Node4 -->
<g id="edge3_Node000001_Node000004" class="edge">
<title>Node1&#45;&gt;Node4</title>
<g id="a_edge3_Node000001_Node000004"><a xlink:title=" ">
<path fill="none" stroke="#63b8ff" d="M138.62,-45.42C158.23,-40.36 179.42,-34.89 198.37,-30"/>
<polygon fill="#63b8ff" stroke="#63b8ff" points="137.65,-42.06 128.84,-47.94 139.4,-48.83 137.65,-42.06"/>
</a>
</g>
</g>
</g>
</svg>
