<?xml version="1.0" encoding="UTF-8" standalone="no"?>
<!DOCTYPE svg PUBLIC "-//W3C//DTD SVG 1.1//EN"
 "http://www.w3.org/Graphics/SVG/1.1/DTD/svg11.dtd">
<!-- Generated by graphviz version 2.43.0 (0)
 -->
<!-- Title: polyfem::mesh::Mesh3D::get_index_from_element Pages: 1 -->
<!--zoomable 313 -->

<svg id="main" version="1.1" xmlns="http://www.w3.org/2000/svg" xmlns:xlink="http://www.w3.org/1999/xlink" xml:space="preserve" onload="init(evt)">
<style type="text/css"><![CDATA[
.node, .edge {opacity: 0.7;}
.node.selected, .edge.selected {opacity: 1;}
.edge:hover path { stroke: red; }
.edge:hover polygon { stroke: red; fill: red; }
]]></style>

<defs>
  <circle id="rim" cx="0" cy="0" r="7"/>
  <circle id="rim2" cx="0" cy="0" r="3.5"/>
  <g id="zoomPlus">
    <use xlink:href="#rim" fill="#404040"><set attributeName="fill" to="#808080" begin="zoomplus.mouseover" end="zoomplus.mouseout"/></use>
    <path d="M-4,0h8M0,-4v8" fill="none" stroke="white" stroke-width="1.5" pointer-events="none"/>
  </g>
  <g id="zoomMin">
    <use xlink:href="#rim" fill="#404040"><set attributeName="fill" to="#808080" begin="zoomminus.mouseover" end="zoomminus.mouseout"/></use>
    <path d="M-4,0h8" fill="none" stroke="white" stroke-width="1.5" pointer-events="none"/>
  </g>
  <g id="arrowUp" transform="translate(30 24)">
    <use xlink:href="#rim"/>
    <path pointer-events="none" fill="none" stroke="white" stroke-width="1.5" d="M0,-3.0v7 M-2.5,-0.5L0,-3.0L2.5,-0.5"/>
  </g>
  <g id="arrowRight" transform="rotate(90) translate(36 -43)">
    <use xlink:href="#rim"/>
    <path pointer-events="none" fill="none" stroke="white" stroke-width="1.5" d="M0,-3.0v7 M-2.5,-0.5L0,-3.0L2.5,-0.5"/>
  </g>
  <g id="arrowDown" transform="rotate(180) translate(-30 -48)">
    <use xlink:href="#rim"/>
    <path pointer-events="none" fill="none" stroke="white" stroke-width="1.5" d="M0,-3.0v7 M-2.5,-0.5L0,-3.0L2.5,-0.5"/>
  </g>
  <g id="arrowLeft" transform="rotate(270) translate(-36 17)">
    <use xlink:href="#rim"/>
    <path pointer-events="none" fill="none" stroke="white" stroke-width="1.5" d="M0,-3.0v7 M-2.5,-0.5L0,-3.0L2.5,-0.5"/>
  </g>
  <g id="resetDef">
    <use xlink:href="#rim2" fill="#404040"><set attributeName="fill" to="#808080" begin="reset.mouseover" end="reset.mouseout"/></use>
  </g>
</defs>
<script type="application/ecmascript">
var viewWidth = 1515;
var viewHeight = 313;
var sectionId = 'dynsection-19';
</script>
<script type="application/ecmascript" xlink:href="svg.min.js"/>
<svg id="graph" class="graph">
<g id="viewport">
<title>polyfem::mesh::Mesh3D::get_index_from_element</title>
<!-- Node1 -->
<g id="Node000001" class="node">
<title>Node1</title>
<g id="a_Node000001"><a xlink:title=" ">
<polygon fill="#999999" stroke="#666666" points="1507,-251 1362,-251 1362,-221 1507,-221 1507,-251"/>
<text text-anchor="start" x="1370" y="-239" font-family="Helvetica,sans-Serif" font-size="10.00">polyfem::mesh::Mesh3D</text>
<text text-anchor="middle" x="1434.5" y="-228" font-family="Helvetica,sans-Serif" font-size="10.00">::get_index_from_element</text>
</a>
</g>
</g>
<!-- Node2 -->
<g id="Node000002" class="node">
<title>Node2</title>
<g id="a_Node000002"><a xlink:href="namespacepolyfem_1_1mesh.html#ad5d500b681dc6c18ea395e2a4424dff8" target="_top" xlink:title="Extract polyhedra from a 3D volumetric mesh.">
<polygon fill="white" stroke="#666666" points="1323.5,-305 1192.5,-305 1192.5,-275 1323.5,-275 1323.5,-305"/>
<text text-anchor="start" x="1200.5" y="-293" font-family="Helvetica,sans-Serif" font-size="10.00">polyfem::mesh::extract</text>
<text text-anchor="middle" x="1258" y="-282" font-family="Helvetica,sans-Serif" font-size="10.00">_polyhedra</text>
</a>
</g>
</g>
<!-- Node1&#45;&gt;Node2 -->
<g id="edge1_Node000001_Node000002" class="edge">
<title>Node1&#45;&gt;Node2</title>
<g id="a_edge1_Node000001_Node000002"><a xlink:title=" ">
<path fill="none" stroke="#63b8ff" d="M1375.05,-254.09C1353.16,-260.86 1328.56,-268.48 1307.65,-274.95"/>
<polygon fill="#63b8ff" stroke="#63b8ff" points="1376.37,-257.34 1384.89,-251.04 1374.3,-250.65 1376.37,-257.34"/>
</a>
</g>
</g>
<!-- Node3 -->
<g id="Node000003" class="node">
<title>Node3</title>
<g id="a_Node000003"><a xlink:href="classpolyfem_1_1mesh_1_1_mesh3_d.html#a786f4a920dd29f5584136be44de9e1ef" target="_top" xlink:title=" ">
<polygon fill="white" stroke="#666666" points="1326,-256.5 1190,-256.5 1190,-215.5 1326,-215.5 1326,-256.5"/>
<text text-anchor="start" x="1198" y="-244.5" font-family="Helvetica,sans-Serif" font-size="10.00">polyfem::mesh::Mesh3D</text>
<text text-anchor="start" x="1198" y="-233.5" font-family="Helvetica,sans-Serif" font-size="10.00">::get_ordered_vertices</text>
<text text-anchor="middle" x="1258" y="-222.5" font-family="Helvetica,sans-Serif" font-size="10.00">_from_hex</text>
</a>
</g>
</g>
<!-- Node1&#45;&gt;Node3 -->
<g id="edge2_Node000001_Node000003" class="edge">
<title>Node1&#45;&gt;Node3</title>
<g id="a_edge2_Node000001_Node000003"><a xlink:title=" ">
<path fill="none" stroke="#63b8ff" d="M1351.5,-236C1343.04,-236 1334.52,-236 1326.24,-236"/>
<polygon fill="#63b8ff" stroke="#63b8ff" points="1351.77,-239.5 1361.77,-236 1351.77,-232.5 1351.77,-239.5"/>
</a>
</g>
</g>
<!-- Node6 -->
<g id="Node000006" class="node">
<title>Node6</title>
<g id="a_Node000006"><a xlink:href="classpolyfem_1_1mesh_1_1_mesh3_d.html#ad6d21fb4c79bcfb88e03f70af01975cb" target="_top" xlink:title=" ">
<polygon fill="white" stroke="#666666" points="1326,-197.5 1190,-197.5 1190,-156.5 1326,-156.5 1326,-197.5"/>
<text text-anchor="start" x="1198" y="-185.5" font-family="Helvetica,sans-Serif" font-size="10.00">polyfem::mesh::Mesh3D</text>
<text text-anchor="start" x="1198" y="-174.5" font-family="Helvetica,sans-Serif" font-size="10.00">::get_ordered_vertices</text>
<text text-anchor="middle" x="1258" y="-163.5" font-family="Helvetica,sans-Serif" font-size="10.00">_from_tet</text>
</a>
</g>
</g>
<!-- Node1&#45;&gt;Node6 -->
<g id="edge5_Node000001_Node000006" class="edge">
<title>Node1&#45;&gt;Node6</title>
<g id="a_edge5_Node000001_Node000006"><a xlink:title=" ">
<path fill="none" stroke="#63b8ff" d="M1379.39,-217.71C1360.53,-211.33 1339.24,-204.13 1319.86,-197.58"/>
<polygon fill="#63b8ff" stroke="#63b8ff" points="1378.42,-221.07 1389.01,-220.96 1380.66,-214.44 1378.42,-221.07"/>
</a>
</g>
</g>
<!-- Node4 -->
<g id="Node000004" class="node">
<title>Node4</title>
<g id="a_Node000004"><a xlink:href="classpolyfem_1_1io_1_1_evaluator.html#ae01cdb9e824b58e403f4286cbda61f84" target="_top" xlink:title="evaluates the function fun at the vertices on the mesh">
<polygon fill="white" stroke="#666666" points="1130.5,-246 990.5,-246 990.5,-216 1130.5,-216 1130.5,-246"/>
<text text-anchor="start" x="998.5" y="-234" font-family="Helvetica,sans-Serif" font-size="10.00">polyfem::io::Evaluator</text>
<text text-anchor="middle" x="1060.5" y="-223" font-family="Helvetica,sans-Serif" font-size="10.00">::compute_vertex_values</text>
</a>
</g>
</g>
<!-- Node3&#45;&gt;Node4 -->
<g id="edge3_Node000003_Node000004" class="edge">
<title>Node3&#45;&gt;Node4</title>
<g id="a_edge3_Node000003_Node000004"><a xlink:title=" ">
<path fill="none" stroke="#63b8ff" d="M1180,-234.03C1163.74,-233.61 1146.69,-233.18 1130.75,-232.77"/>
<polygon fill="#63b8ff" stroke="#63b8ff" points="1179.91,-237.53 1189.99,-234.29 1180.09,-230.53 1179.91,-237.53"/>
</a>
</g>
</g>
<!-- Node5 -->
<g id="Node000005" class="node">
<title>Node5</title>
<g id="a_Node000005"><a xlink:href="namespacepolyfem_1_1mesh.html#ad071b94c821ca0409fc672bd5c520bda" target="_top" xlink:title="Converts a hex mesh to a Geogram mesh.">
<polygon fill="white" stroke="#666666" points="1154,-283.5 967,-283.5 967,-264.5 1154,-264.5 1154,-283.5"/>
<text text-anchor="middle" x="1060.5" y="-271.5" font-family="Helvetica,sans-Serif" font-size="10.00">polyfem::mesh::to_geogram_mesh</text>
</a>
</g>
</g>
<!-- Node3&#45;&gt;Node5 -->
<g id="edge4_Node000003_Node000005" class="edge">
<title>Node3&#45;&gt;Node5</title>
<g id="a_edge4_Node000003_Node000005"><a xlink:title=" ">
<path fill="none" stroke="#63b8ff" d="M1180.08,-250.95C1156.66,-255.5 1131.56,-260.38 1110.52,-264.47"/>
<polygon fill="#63b8ff" stroke="#63b8ff" points="1180.85,-254.37 1189.99,-249.02 1179.51,-247.5 1180.85,-254.37"/>
</a>
</g>
</g>
<!-- Node6&#45;&gt;Node4 -->
<g id="edge27_Node000006_Node000004" class="edge">
<title>Node6&#45;&gt;Node4</title>
<g id="a_edge27_Node000006_Node000004"><a xlink:title=" ">
<path fill="none" stroke="#63b8ff" d="M1179.94,-199.71C1171.2,-202.21 1162.42,-204.68 1154,-207 1143.28,-209.95 1131.84,-213 1120.78,-215.9"/>
<polygon fill="#63b8ff" stroke="#63b8ff" points="1181.12,-203.02 1189.76,-196.89 1179.19,-196.29 1181.12,-203.02"/>
</a>
</g>
</g>
<!-- Node7 -->
<g id="Node000007" class="node">
<title>Node7</title>
<g id="a_Node000007"><a xlink:href="classpolyfem_1_1mesh_1_1_c_mesh3_d.html#af0cab3e6ad660070a58592009b5d131f" target="_top" xlink:title="constructs barycentric coodiantes for a point p.">
<polygon fill="white" stroke="#666666" points="1132,-102 989,-102 989,-72 1132,-72 1132,-102"/>
<text text-anchor="start" x="997" y="-90" font-family="Helvetica,sans-Serif" font-size="10.00">polyfem::mesh::CMesh3D</text>
<text text-anchor="middle" x="1060.5" y="-79" font-family="Helvetica,sans-Serif" font-size="10.00">::barycentric_coords</text>
</a>
</g>
</g>
<!-- Node6&#45;&gt;Node7 -->
<g id="edge6_Node000006_Node000007" class="edge">
<title>Node6&#45;&gt;Node7</title>
<g id="a_edge6_Node000006_Node000007"><a xlink:title=" ">
<path fill="none" stroke="#63b8ff" d="M1221.53,-150.3C1202.36,-136.92 1177.8,-121.4 1154,-111 1146.25,-107.61 1137.91,-104.62 1129.53,-102.01"/>
<polygon fill="#63b8ff" stroke="#63b8ff" points="1219.75,-153.33 1229.93,-156.27 1223.81,-147.62 1219.75,-153.33"/>
</a>
</g>
</g>
<!-- Node8 -->
<g id="Node000008" class="node">
<title>Node8</title>
<g id="a_Node000008"><a xlink:href="classpolyfem_1_1mesh_1_1_mesh3_d.html#ab4e611c0e23d4bd77355ad00843c1e00" target="_top" xlink:title="constructs barycentric coodiantes for a point p.">
<polygon fill="white" stroke="#666666" points="1128.5,-198 992.5,-198 992.5,-168 1128.5,-168 1128.5,-198"/>
<text text-anchor="start" x="1000.5" y="-186" font-family="Helvetica,sans-Serif" font-size="10.00">polyfem::mesh::Mesh3D</text>
<text text-anchor="middle" x="1060.5" y="-175" font-family="Helvetica,sans-Serif" font-size="10.00">::barycentric_coords</text>
</a>
</g>
</g>
<!-- Node6&#45;&gt;Node8 -->
<g id="edge7_Node000006_Node000008" class="edge">
<title>Node6&#45;&gt;Node8</title>
<g id="a_edge7_Node000006_Node000008"><a xlink:title=" ">
<path fill="none" stroke="#63b8ff" d="M1179.64,-179.37C1162.82,-179.89 1145.15,-180.43 1128.75,-180.94"/>
<polygon fill="#63b8ff" stroke="#63b8ff" points="1180.11,-182.86 1189.99,-179.06 1179.89,-175.86 1180.11,-182.86"/>
</a>
</g>
</g>
<!-- Node9 -->
<g id="Node000009" class="node">
<title>Node9</title>
<g id="a_Node000009"><a xlink:href="classpolyfem_1_1mesh_1_1_mesh3_d.html#a2fc808fdbd5fbbe5fed1f485ccace7c3" target="_top" xlink:title=" ">
<polygon fill="white" stroke="#666666" points="1128.5,-150 992.5,-150 992.5,-120 1128.5,-120 1128.5,-150"/>
<text text-anchor="start" x="1000.5" y="-138" font-family="Helvetica,sans-Serif" font-size="10.00">polyfem::mesh::Mesh3D</text>
<text text-anchor="middle" x="1060.5" y="-127" font-family="Helvetica,sans-Serif" font-size="10.00">::compute_cell_jacobian</text>
</a>
</g>
</g>
<!-- Node6&#45;&gt;Node9 -->
<g id="edge8_Node000006_Node000009" class="edge">
<title>Node6&#45;&gt;Node9</title>
<g id="a_edge8_Node000006_Node000009"><a xlink:title=" ">
<path fill="none" stroke="#63b8ff" d="M1180.12,-160.48C1163.15,-156.84 1145.3,-153 1128.75,-149.45"/>
<polygon fill="#63b8ff" stroke="#63b8ff" points="1179.48,-163.93 1189.99,-162.6 1180.95,-157.08 1179.48,-163.93"/>
</a>
</g>
</g>
<!-- Node10 -->
<g id="Node000010" class="node">
<title>Node10</title>
<g id="a_Node000010"><a xlink:href="classpolyfem_1_1solver_1_1_a_m_i_p_s_form.html#ae984024827d348ac57171a0ca13df559" target="_top" xlink:title=" ">
<polygon fill="white" stroke="#666666" points="931,-174 776,-174 776,-144 931,-144 931,-174"/>
<text text-anchor="start" x="784" y="-162" font-family="Helvetica,sans-Serif" font-size="10.00">polyfem::solver::AMIPSForm</text>
<text text-anchor="middle" x="853.5" y="-151" font-family="Helvetica,sans-Serif" font-size="10.00">::AMIPSForm</text>
</a>
</g>
</g>
<!-- Node9&#45;&gt;Node10 -->
<g id="edge9_Node000009_Node000010" class="edge">
<title>Node9&#45;&gt;Node10</title>
<g id="a_edge9_Node000009_Node000010"><a xlink:title=" ">
<path fill="none" stroke="#63b8ff" d="M982.1,-144.06C965.38,-146.02 947.71,-148.09 931.02,-150.04"/>
<polygon fill="#63b8ff" stroke="#63b8ff" points="982.85,-147.5 992.38,-142.86 982.04,-140.55 982.85,-147.5"/>
</a>
</g>
</g>
<!-- Node11 -->
<g id="Node000011" class="node">
<title>Node11</title>
<g id="a_Node000011"><a xlink:href="classpolyfem_1_1_state.html#a3de46d5d59fbeaa652577e8c99f3fba5" target="_top" xlink:title="set the material and the problem dimension">
<polygon fill="white" stroke="#666666" points="908.5,-126 798.5,-126 798.5,-96 908.5,-96 908.5,-126"/>
<text text-anchor="start" x="806.5" y="-114" font-family="Helvetica,sans-Serif" font-size="10.00">polyfem::State::set</text>
<text text-anchor="middle" x="853.5" y="-103" font-family="Helvetica,sans-Serif" font-size="10.00">_materials</text>
</a>
</g>
</g>
<!-- Node9&#45;&gt;Node11 -->
<g id="edge10_Node000009_Node000011" class="edge">
<title>Node9&#45;&gt;Node11</title>
<g id="a_edge10_Node000009_Node000011"><a xlink:title=" ">
<path fill="none" stroke="#63b8ff" d="M982.38,-125.97C957.89,-123.1 931.33,-119.99 908.8,-117.36"/>
<polygon fill="#63b8ff" stroke="#63b8ff" points="982.04,-129.45 992.38,-127.14 982.85,-122.5 982.04,-129.45"/>
</a>
</g>
</g>
<!-- Node12 -->
<g id="Node000012" class="node">
<title>Node12</title>
<g id="a_Node000012"><a xlink:href="classpolyfem_1_1_state.html#ae0de6ea3bdc69e3e21ddfbcdb144180b" target="_top" xlink:title="initialize the nonlinear solver">
<polygon fill="white" stroke="#666666" points="733.5,-83 598.5,-83 598.5,-53 733.5,-53 733.5,-83"/>
<text text-anchor="start" x="606.5" y="-71" font-family="Helvetica,sans-Serif" font-size="10.00">polyfem::State::init</text>
<text text-anchor="middle" x="666" y="-60" font-family="Helvetica,sans-Serif" font-size="10.00">_nonlinear_tensor_solve</text>
</a>
</g>
</g>
<!-- Node11&#45;&gt;Node12 -->
<g id="edge11_Node000011_Node000012" class="edge">
<title>Node11&#45;&gt;Node12</title>
<g id="a_edge11_Node000011_Node000012"><a xlink:title=" ">
<path fill="none" stroke="#63b8ff" d="M788.36,-96.13C770.04,-91.89 750.07,-87.26 731.72,-83"/>
<polygon fill="#63b8ff" stroke="#63b8ff" points="787.81,-99.6 798.35,-98.45 789.4,-92.78 787.81,-99.6"/>
</a>
</g>
</g>
<!-- Node19 -->
<g id="Node000019" class="node">
<title>Node19</title>
<g id="a_Node000019"><a xlink:href="classpolyfem_1_1_state.html#a37cc0825d6cd66410b5c1a0c46778a9f" target="_top" xlink:title="loads the mesh from the json arguments">
<polygon fill="white" stroke="#666666" points="740,-201.5 592,-201.5 592,-182.5 740,-182.5 740,-201.5"/>
<text text-anchor="middle" x="666" y="-189.5" font-family="Helvetica,sans-Serif" font-size="10.00">polyfem::State::load_mesh</text>
</a>
</g>
</g>
<!-- Node11&#45;&gt;Node19 -->
<g id="edge19_Node000011_Node000019" class="edge">
<title>Node11&#45;&gt;Node19</title>
<g id="a_edge19_Node000011_Node000019"><a xlink:title=" ">
<path fill="none" stroke="#63b8ff" d="M789.09,-128.91C784.58,-130.79 780.17,-132.81 776,-135 758.04,-144.41 757.59,-152.94 740,-163 726.39,-170.79 710.27,-177.43 696.65,-182.39"/>
<polygon fill="#63b8ff" stroke="#63b8ff" points="790.37,-132.17 798.43,-125.29 787.84,-125.64 790.37,-132.17"/>
</a>
</g>
</g>
<!-- Node21 -->
<g id="Node000021" class="node">
<title>Node21</title>
<g id="a_Node000021"><a xlink:href="classpolyfem_1_1_state.html#a2d7e06f66912cc77b1d942340211ddb9" target="_top" xlink:title="loads the mesh from a geogram mesh">
<polygon fill="white" stroke="#666666" points="740,-120.5 592,-120.5 592,-101.5 740,-101.5 740,-120.5"/>
<text text-anchor="middle" x="666" y="-108.5" font-family="Helvetica,sans-Serif" font-size="10.00">polyfem::State::load_mesh</text>
</a>
</g>
</g>
<!-- Node11&#45;&gt;Node21 -->
<g id="edge22_Node000011_Node000021" class="edge">
<title>Node11&#45;&gt;Node21</title>
<g id="a_edge22_Node000011_Node000021"><a xlink:title=" ">
<path fill="none" stroke="#63b8ff" d="M788.33,-111C772.81,-111 756.1,-111 740.19,-111"/>
<polygon fill="#63b8ff" stroke="#63b8ff" points="788.35,-114.5 798.35,-111 788.35,-107.5 788.35,-114.5"/>
</a>
</g>
</g>
<!-- Node22 -->
<g id="Node000022" class="node">
<title>Node22</title>
<g id="a_Node000022"><a xlink:href="classpolyfem_1_1_state.html#a76dfcaee0e24beeab2fda9449f404fe5" target="_top" xlink:title="solves a navier stokes">
<polygon fill="white" stroke="#666666" points="540.5,-164 419.5,-164 419.5,-134 540.5,-134 540.5,-164"/>
<text text-anchor="start" x="427.5" y="-152" font-family="Helvetica,sans-Serif" font-size="10.00">polyfem::State::solve</text>
<text text-anchor="middle" x="480" y="-141" font-family="Helvetica,sans-Serif" font-size="10.00">_navier_stokes</text>
</a>
</g>
</g>
<!-- Node11&#45;&gt;Node22 -->
<g id="edge23_Node000011_Node000022" class="edge">
<title>Node11&#45;&gt;Node22</title>
<g id="a_edge23_Node000011_Node000022"><a xlink:title=" ">
<path fill="none" stroke="#63b8ff" d="M788.12,-122.23C772.41,-124.71 755.63,-127.15 740,-129 671.81,-137.07 593.12,-142.62 540.54,-145.79"/>
<polygon fill="#63b8ff" stroke="#63b8ff" points="788.95,-125.64 798.26,-120.59 787.84,-118.73 788.95,-125.64"/>
</a>
</g>
</g>
<!-- Node23 -->
<g id="Node000023" class="node">
<title>Node23</title>
<g id="a_Node000023"><a xlink:href="classpolyfem_1_1_state.html#ac42074a324e693f8eef5d7a96a56dc38" target="_top" xlink:title="solves transient navier stokes with FEM">
<polygon fill="white" stroke="#666666" points="549,-30 411,-30 411,0 549,0 549,-30"/>
<text text-anchor="start" x="419" y="-18" font-family="Helvetica,sans-Serif" font-size="10.00">polyfem::State::solve</text>
<text text-anchor="middle" x="480" y="-7" font-family="Helvetica,sans-Serif" font-size="10.00">_transient_navier_stokes</text>
</a>
</g>
</g>
<!-- Node11&#45;&gt;Node23 -->
<g id="edge25_Node000011_Node000023" class="edge">
<title>Node11&#45;&gt;Node23</title>
<g id="a_edge25_Node000011_Node000023"><a xlink:title=" ">
<path fill="none" stroke="#63b8ff" d="M824.91,-89.99C803.09,-74.54 771.2,-54.49 740,-44 677.6,-23.02 602.46,-16.52 549.23,-14.82"/>
<polygon fill="#63b8ff" stroke="#63b8ff" points="822.89,-92.85 833.05,-95.86 826.99,-87.17 822.89,-92.85"/>
</a>
</g>
</g>
<!-- Node13 -->
<g id="Node000013" class="node">
<title>Node13</title>
<g id="a_Node000013"><a xlink:href="classpolyfem_1_1_state.html#a7450ef7c42dd9c523e1be73a5819117d" target="_top" xlink:title="solves the problems">
<polygon fill="white" stroke="#666666" points="368,-121 247,-121 247,-91 368,-91 368,-121"/>
<text text-anchor="start" x="255" y="-109" font-family="Helvetica,sans-Serif" font-size="10.00">polyfem::State::solve</text>
<text text-anchor="middle" x="307.5" y="-98" font-family="Helvetica,sans-Serif" font-size="10.00">_problem</text>
</a>
</g>
</g>
<!-- Node12&#45;&gt;Node13 -->
<g id="edge12_Node000012_Node000013" class="edge">
<title>Node12&#45;&gt;Node13</title>
<g id="a_edge12_Node000012_Node000013"><a xlink:title=" ">
<path fill="none" stroke="#63b8ff" d="M588.39,-82.31C577.54,-84.05 566.51,-85.68 556,-87 492.07,-95.01 418.4,-100.14 368.17,-103.03"/>
<polygon fill="#63b8ff" stroke="#63b8ff" points="588.99,-85.75 598.28,-80.67 587.85,-78.85 588.99,-85.75"/>
</a>
</g>
</g>
<!-- Node18 -->
<g id="Node000018" class="node">
<title>Node18</title>
<g id="a_Node000018"><a xlink:href="classpolyfem_1_1_state.html#a4d91e8c971fc121b0cff2f0c02ca79e7" target="_top" xlink:title="solves transient tensor nonlinear problem">
<polygon fill="white" stroke="#666666" points="556,-78 404,-78 404,-48 556,-48 556,-78"/>
<text text-anchor="start" x="412" y="-66" font-family="Helvetica,sans-Serif" font-size="10.00">polyfem::State::solve</text>
<text text-anchor="middle" x="480" y="-55" font-family="Helvetica,sans-Serif" font-size="10.00">_transient_tensor_nonlinear</text>
</a>
</g>
</g>
<!-- Node12&#45;&gt;Node18 -->
<g id="edge17_Node000012_Node000018" class="edge">
<title>Node12&#45;&gt;Node18</title>
<g id="a_edge17_Node000012_Node000018"><a xlink:title=" ">
<path fill="none" stroke="#63b8ff" d="M588.25,-65.91C577.65,-65.63 566.77,-65.33 556.19,-65.04"/>
<polygon fill="#63b8ff" stroke="#63b8ff" points="588.22,-69.41 598.31,-66.19 588.41,-62.42 588.22,-69.41"/>
</a>
</g>
</g>
<!-- Node14 -->
<g id="Node000014" class="node">
<title>Node14</title>
<g id="a_Node000014"><a xlink:href="main_8cpp.html#aec889c702a246ad7f332c75ab7adb438" target="_top" xlink:title=" ">
<polygon fill="white" stroke="#666666" points="199.5,-210.5 88.5,-210.5 88.5,-191.5 199.5,-191.5 199.5,-210.5"/>
<text text-anchor="middle" x="144" y="-198.5" font-family="Helvetica,sans-Serif" font-size="10.00">forward_simulation</text>
</a>
</g>
</g>
<!-- Node13&#45;&gt;Node14 -->
<g id="edge13_Node000013_Node000014" class="edge">
<title>Node13&#45;&gt;Node14</title>
<g id="a_edge13_Node000013_Node000014"><a xlink:title=" ">
<path fill="none" stroke="#63b8ff" d="M272.22,-126.16C238.21,-146.17 187.53,-175.98 161.59,-191.24"/>
<polygon fill="#63b8ff" stroke="#63b8ff" points="274.07,-129.14 280.91,-121.05 270.52,-123.11 274.07,-129.14"/>
</a>
</g>
</g>
<!-- Node16 -->
<g id="Node000016" class="node">
<title>Node16</title>
<g id="a_Node000016"><a xlink:href="classpolyfem_1_1_state.html#a219f9935d918f739d82488449bd4cbf4" target="_top" xlink:title="solves the problem, call other methods">
<polygon fill="white" stroke="#666666" points="204.5,-94.5 83.5,-94.5 83.5,-75.5 204.5,-75.5 204.5,-94.5"/>
<text text-anchor="middle" x="144" y="-82.5" font-family="Helvetica,sans-Serif" font-size="10.00">polyfem::State::solve</text>
</a>
</g>
</g>
<!-- Node13&#45;&gt;Node16 -->
<g id="edge15_Node000013_Node000016" class="edge">
<title>Node13&#45;&gt;Node16</title>
<g id="a_edge15_Node000013_Node000016"><a xlink:title=" ">
<path fill="none" stroke="#63b8ff" d="M236.7,-96.92C226.04,-95.54 215.12,-94.12 204.7,-92.76"/>
<polygon fill="#63b8ff" stroke="#63b8ff" points="236.45,-100.42 246.82,-98.24 237.36,-93.48 236.45,-100.42"/>
</a>
</g>
</g>
<!-- Node17 -->
<g id="Node000017" class="node">
<title>Node17</title>
<g id="a_Node000017"><a xlink:href="structpolyfem_1_1solver_1_1_adjoint_opt_utils.html#acac3e8ce8646ddd1544ed034c71bec96" target="_top" xlink:title=" ">
<polygon fill="white" stroke="#666666" points="211,-143 77,-143 77,-113 211,-113 211,-143"/>
<text text-anchor="start" x="85" y="-131" font-family="Helvetica,sans-Serif" font-size="10.00">polyfem::solver::Adjoint</text>
<text text-anchor="middle" x="144" y="-120" font-family="Helvetica,sans-Serif" font-size="10.00">OptUtils::solve_pde</text>
</a>
</g>
</g>
<!-- Node13&#45;&gt;Node17 -->
<g id="edge16_Node000013_Node000017" class="edge">
<title>Node13&#45;&gt;Node17</title>
<g id="a_edge16_Node000013_Node000017"><a xlink:title=" ">
<path fill="none" stroke="#63b8ff" d="M236.64,-115.52C228.21,-116.67 219.61,-117.84 211.23,-118.98"/>
<polygon fill="#63b8ff" stroke="#63b8ff" points="237.39,-118.95 246.82,-114.13 236.44,-112.01 237.39,-118.95"/>
</a>
</g>
</g>
<!-- Node15 -->
<g id="Node000015" class="node">
<title>Node15</title>
<g id="a_Node000015"><a xlink:href="main_8cpp.html#a3c04138a5bfe5d72780bb7e82a18e627" target="_top" xlink:title=" ">
<polygon fill="white" stroke="#666666" points="41,-210.5 0,-210.5 0,-191.5 41,-191.5 41,-210.5"/>
<text text-anchor="middle" x="20.5" y="-198.5" font-family="Helvetica,sans-Serif" font-size="10.00">main</text>
</a>
</g>
</g>
<!-- Node14&#45;&gt;Node15 -->
<g id="edge14_Node000014_Node000015" class="edge">
<title>Node14&#45;&gt;Node15</title>
<g id="a_edge14_Node000014_Node000015"><a xlink:title=" ">
<path fill="none" stroke="#63b8ff" d="M77.97,-201C64.49,-201 51.29,-201 41.05,-201"/>
<polygon fill="#63b8ff" stroke="#63b8ff" points="78.29,-204.5 88.29,-201 78.29,-197.5 78.29,-204.5"/>
</a>
</g>
</g>
<!-- Node18&#45;&gt;Node13 -->
<g id="edge18_Node000018_Node000013" class="edge">
<title>Node18&#45;&gt;Node13</title>
<g id="a_edge18_Node000018_Node000013"><a xlink:title=" ">
<path fill="none" stroke="#63b8ff" d="M409.49,-80.53C395.76,-83.99 381.47,-87.6 368.1,-90.97"/>
<polygon fill="#63b8ff" stroke="#63b8ff" points="410.53,-83.88 419.37,-78.04 408.82,-77.09 410.53,-83.88"/>
</a>
</g>
</g>
<!-- Node19&#45;&gt;Node14 -->
<g id="edge20_Node000019_Node000014" class="edge">
<title>Node19&#45;&gt;Node14</title>
<g id="a_edge20_Node000019_Node000014"><a xlink:title=" ">
<path fill="none" stroke="#63b8ff" d="M610.7,-203.36C593.31,-206.49 573.92,-209.45 556,-211 428.71,-222.01 278.49,-212.73 199.63,-206.16"/>
<polygon fill="#63b8ff" stroke="#63b8ff" points="611.49,-206.78 620.68,-201.51 610.21,-199.9 611.49,-206.78"/>
</a>
</g>
</g>
<!-- Node20 -->
<g id="Node000020" class="node">
<title>Node20</title>
<g id="a_Node000020"><a xlink:href="classpolyfem_1_1_state.html#a4ce16a4580b29c071e8fd84fbada3497" target="_top" xlink:title="loads the mesh from V and F,">
<polygon fill="white" stroke="#666666" points="554,-201.5 406,-201.5 406,-182.5 554,-182.5 554,-201.5"/>
<text text-anchor="middle" x="480" y="-189.5" font-family="Helvetica,sans-Serif" font-size="10.00">polyfem::State::load_mesh</text>
</a>
</g>
</g>
<!-- Node19&#45;&gt;Node20 -->
<g id="edge21_Node000019_Node000020" class="edge">
<title>Node19&#45;&gt;Node20</title>
<g id="a_edge21_Node000019_Node000020"><a xlink:title=" ">
<path fill="none" stroke="#63b8ff" d="M581.55,-192C572.46,-192 563.26,-192 554.3,-192"/>
<polygon fill="#63b8ff" stroke="#63b8ff" points="581.75,-195.5 591.75,-192 581.75,-188.5 581.75,-195.5"/>
</a>
</g>
</g>
<!-- Node22&#45;&gt;Node13 -->
<g id="edge24_Node000022_Node000013" class="edge">
<title>Node22&#45;&gt;Node13</title>
<g id="a_edge24_Node000022_Node000013"><a xlink:title=" ">
<path fill="none" stroke="#63b8ff" d="M409.49,-131.47C395.76,-128.01 381.47,-124.4 368.1,-121.03"/>
<polygon fill="#63b8ff" stroke="#63b8ff" points="408.82,-134.91 419.37,-133.96 410.53,-128.12 408.82,-134.91"/>
</a>
</g>
</g>
<!-- Node23&#45;&gt;Node13 -->
<g id="edge26_Node000023_Node000013" class="edge">
<title>Node23&#45;&gt;Node13</title>
<g id="a_edge26_Node000023_Node000013"><a xlink:title=" ">
<path fill="none" stroke="#63b8ff" d="M415.58,-33.76C411.61,-35.41 407.72,-37.15 404,-39 374.97,-53.41 344.93,-75.98 326.47,-90.88"/>
<polygon fill="#63b8ff" stroke="#63b8ff" points="416.91,-37.01 424.95,-30.12 414.37,-30.48 416.91,-37.01"/>
</a>
</g>
</g>
</g>
</svg>

<g id="navigator" transform="translate(0 0)" fill="#404254">
  <rect fill="#f2f5e9" fill-opacity="0.5" stroke="#606060" stroke-width=".5" x="0" y="0" width="60" height="60"/>
  <use id="zoomplus" xlink:href="#zoomPlus" x="17" y="9" onmousedown="handleZoom(evt,'in')"/>
  <use id="zoomminus" xlink:href="#zoomMin" x="42" y="9" onmousedown="handleZoom(evt,'out')"/>
  <use id="reset" xlink:href="#resetDef" x="30" y="36" onmousedown="handleReset()"/>
   <use id="arrowup" xlink:href="#arrowUp" x="0" y="0" onmousedown="handlePan(0,-1)"/>
  <use id="arrowright" xlink:href="#arrowRight" x="0" y="0" onmousedown="handlePan(1,0)"/>
  <use id="arrowdown" xlink:href="#arrowDown" x="0" y="0" onmousedown="handlePan(0,1)"/>
  <use id="arrowleft" xlink:href="#arrowLeft" x="0" y="0" onmousedown="handlePan(-1,0)"/>
</g>
<svg viewBox="0 0 15 15" width="100%" height="30px" preserveAspectRatio="xMaxYMin meet">
 <g id="arrow_out" transform="scale(0.3 0.3)">
  <a xlink:href="classpolyfem_1_1mesh_1_1_mesh3_d_a04627e0048f0e5d66c44bbb137661277_icgraph_org.svg" target="_base">
   <rect id="button" ry="5" rx="5" y="6" x="6" height="38" width="38"
        fill="#f2f5e9" fill-opacity="0.5" stroke="#606060" stroke-width="1.0"/>
   <path id="arrow"
     d="M 11.500037,31.436501 C 11.940474,20.09759 22.043105,11.32322 32.158766,21.979434 L 37.068811,17.246167 C 37.068811,17.246167 37.088388,32 37.088388,32 L 22.160133,31.978069 C 22.160133,31.978069 26.997745,27.140456 26.997745,27.140456 C 18.528582,18.264221 13.291696,25.230495 11.500037,31.436501 z"
     style="fill:#404040;"/>
  </a>
 </g>
</svg>

<style type='text/css'>
<![CDATA[
[data-mouse-over-selected='false'] { opacity: 0.7; }
[data-mouse-over-selected='true']  { opacity: 1.0; }
]]>
</style>
<script type="application/ecmascript"><![CDATA[
document.addEventListener('DOMContentLoaded', (event) => {
  highlightEdges();
  highlightAdjacentNodes();
});
]]></script>
</svg>
