<?xml version="1.0" encoding="UTF-8" standalone="no"?>
<!DOCTYPE svg PUBLIC "-//W3C//DTD SVG 1.1//EN"
 "http://www.w3.org/Graphics/SVG/1.1/DTD/svg11.dtd">
<!-- Generated by graphviz version 2.43.0 (0)
 -->
<!-- Title: polyfem::mesh::Obstacle::change_displacement Pages: 1 -->
<svg width="452pt" height="88pt"
 viewBox="0.00 0.00 452.00 88.00" xmlns="http://www.w3.org/2000/svg" xmlns:xlink="http://www.w3.org/1999/xlink">
<g id="graph0" class="graph" transform="scale(1 1) rotate(0) translate(4 84)">
<title>polyfem::mesh::Obstacle::change_displacement</title>
<!-- Node1 -->
<g id="node1" class="node">
<title>Node1</title>
<g id="a_node1"><a xlink:title=" ">
<polygon fill="#bfbfbf" stroke="black" points="0,-24.5 0,-54.5 139,-54.5 139,-24.5 0,-24.5"/>
<text text-anchor="start" x="8" y="-42.5" font-family="Helvetica,sans-Serif" font-size="10.00">polyfem::mesh::Obstacle</text>
<text text-anchor="middle" x="69.5" y="-31.5" font-family="Helvetica,sans-Serif" font-size="10.00">::change_displacement</text>
</a>
</g>
</g>
<!-- Node2 -->
<g id="node2" class="node">
<title>Node2</title>
<g id="a_node2"><a xlink:href="classpolyfem_1_1assembler_1_1_interpolation.html#acd2673767524b645dbb35c96ae56cdca" target="_top" xlink:title=" ">
<polygon fill="none" stroke="black" points="187,-49.5 187,-79.5 302,-79.5 302,-49.5 187,-49.5"/>
<text text-anchor="start" x="195" y="-67.5" font-family="Helvetica,sans-Serif" font-size="10.00">polyfem::assembler</text>
<text text-anchor="middle" x="244.5" y="-56.5" font-family="Helvetica,sans-Serif" font-size="10.00">::Interpolation::build</text>
</a>
</g>
</g>
<!-- Node1&#45;&gt;Node2 -->
<g id="edge1" class="edge">
<title>Node1&#45;&gt;Node2</title>
<path fill="none" stroke="midnightblue" d="M139.37,-49.45C151.66,-51.23 164.45,-53.08 176.69,-54.85"/>
<polygon fill="midnightblue" stroke="midnightblue" points="176.42,-58.34 186.81,-56.31 177.42,-51.41 176.42,-58.34"/>
</g>
<!-- Node4 -->
<g id="node4" class="node">
<title>Node4</title>
<g id="a_node4"><a xlink:href="classpolyfem_1_1mesh_1_1_obstacle.html#aafc3743c35fcb997c601528c8f060d42" target="_top" xlink:title=" ">
<polygon fill="none" stroke="black" points="175,-0.5 175,-30.5 314,-30.5 314,-0.5 175,-0.5"/>
<text text-anchor="start" x="183" y="-18.5" font-family="Helvetica,sans-Serif" font-size="10.00">polyfem::mesh::Obstacle</text>
<text text-anchor="middle" x="244.5" y="-7.5" font-family="Helvetica,sans-Serif" font-size="10.00">::change_displacement</text>
</a>
</g>
</g>
<!-- Node1&#45;&gt;Node4 -->
<g id="edge3" class="edge">
<title>Node1&#45;&gt;Node4</title>
<path fill="none" stroke="midnightblue" d="M139.37,-29.95C147.77,-28.78 156.4,-27.58 164.92,-26.4"/>
<polygon fill="midnightblue" stroke="midnightblue" points="165.44,-29.86 174.87,-25.02 164.48,-22.93 165.44,-29.86"/>
</g>
<!-- Node3 -->
<g id="node3" class="node">
<title>Node3</title>
<g id="a_node3"><a xlink:href="namespacepolyfem.html#a03f3d75072d2fd19f70cd886a51d10dd" target="_top" xlink:title="Retrieves the current logger.">
<polygon fill="none" stroke="black" points="350,-55 350,-74 444,-74 444,-55 350,-55"/>
<text text-anchor="middle" x="397" y="-62" font-family="Helvetica,sans-Serif" font-size="10.00">polyfem::logger</text>
</a>
</g>
</g>
<!-- Node2&#45;&gt;Node3 -->
<g id="edge2" class="edge">
<title>Node2&#45;&gt;Node3</title>
<path fill="none" stroke="midnightblue" d="M302.4,-64.5C314.62,-64.5 327.54,-64.5 339.74,-64.5"/>
<polygon fill="midnightblue" stroke="midnightblue" points="339.79,-68 349.79,-64.5 339.79,-61 339.79,-68"/>
</g>
</g>
</svg>
