<?xml version="1.0" encoding="UTF-8" standalone="no"?>
<!DOCTYPE svg PUBLIC "-//W3C//DTD SVG 1.1//EN"
 "http://www.w3.org/Graphics/SVG/1.1/DTD/svg11.dtd">
<!-- Generated by graphviz version 2.43.0 (0)
 -->
<!-- Title: polyfem::solver::InertiaForceDerivative::force_shape_derivative Pages: 1 -->
<svg width="720pt" height="430pt"
 viewBox="0.00 0.00 720.00 430.00" xmlns="http://www.w3.org/2000/svg" xmlns:xlink="http://www.w3.org/1999/xlink">
<g id="graph0" class="graph" transform="scale(1 1) rotate(0) translate(4 426)">
<title>polyfem::solver::InertiaForceDerivative::force_shape_derivative</title>
<!-- Node1 -->
<g id="Node000001" class="node">
<title>Node1</title>
<g id="a_Node000001"><a xlink:title=" ">
<polygon fill="#999999" stroke="#666666" points="131,-197.5 0,-197.5 0,-156.5 131,-156.5 131,-197.5"/>
<text text-anchor="start" x="8" y="-185.5" font-family="Helvetica,sans-Serif" font-size="10.00">polyfem::solver::Inertia</text>
<text text-anchor="start" x="8" y="-174.5" font-family="Helvetica,sans-Serif" font-size="10.00">ForceDerivative::force</text>
<text text-anchor="middle" x="65.5" y="-163.5" font-family="Helvetica,sans-Serif" font-size="10.00">_shape_derivative</text>
</a>
</g>
</g>
<!-- Node2 -->
<g id="Node000002" class="node">
<title>Node2</title>
<g id="a_Node000002"><a xlink:href="classpolyfem_1_1assembler_1_1_assembly_vals_cache.html#ae6a71006ed00c05812b65401a1c37d5c" target="_top" xlink:title="retrieves cached basis evaluation and geometric for the given element if it doesn&#39;t exist,...">
<polygon fill="white" stroke="#666666" points="300,-392.5 179,-392.5 179,-351.5 300,-351.5 300,-392.5"/>
<text text-anchor="start" x="187" y="-380.5" font-family="Helvetica,sans-Serif" font-size="10.00">polyfem::assembler</text>
<text text-anchor="start" x="187" y="-369.5" font-family="Helvetica,sans-Serif" font-size="10.00">::AssemblyValsCache</text>
<text text-anchor="middle" x="239.5" y="-358.5" font-family="Helvetica,sans-Serif" font-size="10.00">::compute</text>
</a>
</g>
</g>
<!-- Node1&#45;&gt;Node2 -->
<g id="edge1_Node000001_Node000002" class="edge">
<title>Node1&#45;&gt;Node2</title>
<g id="a_edge1_Node000001_Node000002"><a xlink:title=" ">
<path fill="none" stroke="#63b8ff" d="M80.32,-197.66C98.7,-224.52 132.85,-272.32 167,-309 178.56,-321.42 192.33,-333.99 204.69,-344.61"/>
<polygon fill="#63b8ff" stroke="#63b8ff" points="202.67,-347.49 212.56,-351.28 207.19,-342.15 202.67,-347.49"/>
</a>
</g>
</g>
<!-- Node4 -->
<g id="Node000004" class="node">
<title>Node4</title>
<g id="a_Node000004"><a xlink:href="classpolyfem_1_1assembler_1_1_element_assembly_values.html#a736c84178a9391358d50b1d984440538" target="_top" xlink:title="computes the per element values at the local (ref el) points (pts) sets basis_values,...">
<polygon fill="white" stroke="#666666" points="311,-299.5 168,-299.5 168,-258.5 311,-258.5 311,-299.5"/>
<text text-anchor="start" x="176" y="-287.5" font-family="Helvetica,sans-Serif" font-size="10.00">polyfem::assembler</text>
<text text-anchor="start" x="176" y="-276.5" font-family="Helvetica,sans-Serif" font-size="10.00">::ElementAssemblyValues</text>
<text text-anchor="middle" x="239.5" y="-265.5" font-family="Helvetica,sans-Serif" font-size="10.00">::compute</text>
</a>
</g>
</g>
<!-- Node1&#45;&gt;Node4 -->
<g id="edge3_Node000001_Node000004" class="edge">
<title>Node1&#45;&gt;Node4</title>
<g id="a_edge3_Node000001_Node000004"><a xlink:title=" ">
<path fill="none" stroke="#63b8ff" d="M91.88,-197.63C111.59,-213.03 140.02,-233.93 167,-249 170.03,-250.69 173.17,-252.35 176.38,-253.96"/>
<polygon fill="#63b8ff" stroke="#63b8ff" points="175,-257.18 185.53,-258.36 178.04,-250.87 175,-257.18"/>
</a>
</g>
</g>
<!-- Node12 -->
<g id="Node000012" class="node">
<title>Node12</title>
<g id="a_Node000012"><a xlink:href="namespacepolyfem_1_1utils.html#ad20302c105652db61d40fbfcb81847ae" target="_top" xlink:title=" ">
<polygon fill="white" stroke="#666666" points="300,-240 179,-240 179,-210 300,-210 300,-240"/>
<text text-anchor="start" x="187" y="-228" font-family="Helvetica,sans-Serif" font-size="10.00">polyfem::utils::create</text>
<text text-anchor="middle" x="239.5" y="-217" font-family="Helvetica,sans-Serif" font-size="10.00">_thread_storage</text>
</a>
</g>
</g>
<!-- Node1&#45;&gt;Node12 -->
<g id="edge11_Node000001_Node000012" class="edge">
<title>Node1&#45;&gt;Node12</title>
<g id="a_edge11_Node000001_Node000012"><a xlink:title=" ">
<path fill="none" stroke="#63b8ff" d="M131.04,-195.01C145.36,-199.01 160.54,-203.24 174.83,-207.23"/>
<polygon fill="#63b8ff" stroke="#63b8ff" points="173.99,-210.63 184.57,-209.95 175.88,-203.89 173.99,-210.63"/>
</a>
</g>
</g>
<!-- Node13 -->
<g id="Node000013" class="node">
<title>Node13</title>
<g id="a_Node000013"><a xlink:href="classpolyfem_1_1assembler_1_1_mass.html#a0bce5b04ec0a5d8b518b8691d7ea4d1f" target="_top" xlink:title="class that stores and compute density per point">
<polygon fill="white" stroke="#666666" points="296.5,-192 182.5,-192 182.5,-162 296.5,-162 296.5,-192"/>
<text text-anchor="start" x="190.5" y="-180" font-family="Helvetica,sans-Serif" font-size="10.00">polyfem::assembler</text>
<text text-anchor="middle" x="239.5" y="-169" font-family="Helvetica,sans-Serif" font-size="10.00">::Mass::density</text>
</a>
</g>
</g>
<!-- Node1&#45;&gt;Node13 -->
<g id="edge12_Node000001_Node000013" class="edge">
<title>Node1&#45;&gt;Node13</title>
<g id="a_edge12_Node000001_Node000013"><a xlink:title=" ">
<path fill="none" stroke="#63b8ff" d="M131.04,-177C144.48,-177 158.67,-177 172.18,-177"/>
<polygon fill="#63b8ff" stroke="#63b8ff" points="172.35,-180.5 182.35,-177 172.35,-173.5 172.35,-180.5"/>
</a>
</g>
</g>
<!-- Node14 -->
<g id="Node000014" class="node">
<title>Node14</title>
<g id="a_Node000014"><a xlink:href="namespacepolyfem_1_1utils.html#a7ac07413a97692d41b88a610b9727b9b" target="_top" xlink:title=" ">
<polygon fill="white" stroke="#666666" points="301.5,-144 177.5,-144 177.5,-114 301.5,-114 301.5,-144"/>
<text text-anchor="start" x="185.5" y="-132" font-family="Helvetica,sans-Serif" font-size="10.00">polyfem::utils::get</text>
<text text-anchor="middle" x="239.5" y="-121" font-family="Helvetica,sans-Serif" font-size="10.00">_local_thread_storage</text>
</a>
</g>
</g>
<!-- Node1&#45;&gt;Node14 -->
<g id="edge13_Node000001_Node000014" class="edge">
<title>Node1&#45;&gt;Node14</title>
<g id="a_edge13_Node000001_Node000014"><a xlink:title=" ">
<path fill="none" stroke="#63b8ff" d="M131.04,-158.99C145.36,-154.99 160.54,-150.76 174.83,-146.77"/>
<polygon fill="#63b8ff" stroke="#63b8ff" points="175.88,-150.11 184.57,-144.05 173.99,-143.37 175.88,-150.11"/>
</a>
</g>
</g>
<!-- Node15 -->
<g id="Node000015" class="node">
<title>Node15</title>
<g id="a_Node000015"><a xlink:href="classpolyfem_1_1io_1_1_evaluator.html#a37193c8a31244f89fc4586d18101a033" target="_top" xlink:title="interpolate solution and gradient at element (calls interpolate_at_local_vals with sol)">
<polygon fill="white" stroke="#666666" points="312,-78 167,-78 167,-48 312,-48 312,-78"/>
<text text-anchor="start" x="175" y="-66" font-family="Helvetica,sans-Serif" font-size="10.00">polyfem::io::Evaluator</text>
<text text-anchor="middle" x="239.5" y="-55" font-family="Helvetica,sans-Serif" font-size="10.00">::interpolate_at_local_vals</text>
</a>
</g>
</g>
<!-- Node1&#45;&gt;Node15 -->
<g id="edge14_Node000001_Node000015" class="edge">
<title>Node1&#45;&gt;Node15</title>
<g id="a_edge14_Node000001_Node000015"><a xlink:title=" ">
<path fill="none" stroke="#63b8ff" d="M93.76,-156.45C113.72,-141.66 141.63,-121.49 167,-105 178.33,-97.63 190.97,-90.02 202.43,-83.33"/>
<polygon fill="#63b8ff" stroke="#63b8ff" points="204.42,-86.23 211.33,-78.19 200.92,-80.17 204.42,-86.23"/>
</a>
</g>
</g>
<!-- Node18 -->
<g id="Node000018" class="node">
<title>Node18</title>
<g id="a_Node000018"><a xlink:href="namespacepolyfem_1_1utils.html#afac51d1fd7878475ff843eef315f510c" target="_top" xlink:title=" ">
<polygon fill="white" stroke="#666666" points="301.5,-30 177.5,-30 177.5,0 301.5,0 301.5,-30"/>
<text text-anchor="start" x="185.5" y="-18" font-family="Helvetica,sans-Serif" font-size="10.00">polyfem::utils::maybe</text>
<text text-anchor="middle" x="239.5" y="-7" font-family="Helvetica,sans-Serif" font-size="10.00">_parallel_for</text>
</a>
</g>
</g>
<!-- Node1&#45;&gt;Node18 -->
<g id="edge18_Node000001_Node000018" class="edge">
<title>Node1&#45;&gt;Node18</title>
<g id="a_edge18_Node000001_Node000018"><a xlink:title=" ">
<path fill="none" stroke="#63b8ff" d="M76.44,-156.07C91.77,-125.95 123.97,-70.54 167,-39 168.89,-37.62 170.86,-36.31 172.9,-35.07"/>
<polygon fill="#63b8ff" stroke="#63b8ff" points="175.01,-37.91 182.17,-30.11 171.7,-31.74 175.01,-37.91"/>
</a>
</g>
</g>
<!-- Node3 -->
<g id="Node000003" class="node">
<title>Node3</title>
<g id="a_Node000003"><a xlink:href="classpolyfem_1_1basis_1_1_element_bases.html#a1eb3299faf0fce0b170d524017874af3" target="_top" xlink:title=" ">
<polygon fill="white" stroke="#666666" points="512,-422 348,-422 348,-392 512,-392 512,-422"/>
<text text-anchor="start" x="356" y="-410" font-family="Helvetica,sans-Serif" font-size="10.00">polyfem::basis::ElementBases</text>
<text text-anchor="middle" x="430" y="-399" font-family="Helvetica,sans-Serif" font-size="10.00">::compute_mass_quadrature</text>
</a>
</g>
</g>
<!-- Node2&#45;&gt;Node3 -->
<g id="edge2_Node000002_Node000003" class="edge">
<title>Node2&#45;&gt;Node3</title>
<g id="a_edge2_Node000002_Node000003"><a xlink:title=" ">
<path fill="none" stroke="#63b8ff" d="M300.14,-383.07C312.26,-385.32 325.27,-387.74 338.19,-390.14"/>
<polygon fill="#63b8ff" stroke="#63b8ff" points="337.56,-393.58 348.03,-391.97 338.84,-386.7 337.56,-393.58"/>
</a>
</g>
</g>
<!-- Node5 -->
<g id="Node000005" class="node">
<title>Node5</title>
<g id="a_Node000005"><a xlink:href="classpolyfem_1_1basis_1_1_element_bases.html#a6936d345f21ed506227618ef65dba6a6" target="_top" xlink:title="evaluate stored bases at given points on the reference element saves results to basis_values">
<polygon fill="white" stroke="#666666" points="512,-374 348,-374 348,-344 512,-344 512,-374"/>
<text text-anchor="start" x="356" y="-362" font-family="Helvetica,sans-Serif" font-size="10.00">polyfem::basis::ElementBases</text>
<text text-anchor="middle" x="430" y="-351" font-family="Helvetica,sans-Serif" font-size="10.00">::evaluate_bases</text>
</a>
</g>
</g>
<!-- Node4&#45;&gt;Node5 -->
<g id="edge4_Node000004_Node000005" class="edge">
<title>Node4&#45;&gt;Node5</title>
<g id="a_edge4_Node000004_Node000005"><a xlink:title=" ">
<path fill="none" stroke="#63b8ff" d="M276.01,-299.7C296.57,-311.12 323.22,-324.98 348,-335 353.01,-337.03 358.26,-338.97 363.58,-340.81"/>
<polygon fill="#63b8ff" stroke="#63b8ff" points="362.58,-344.16 373.18,-344 364.79,-337.52 362.58,-344.16"/>
</a>
</g>
</g>
<!-- Node7 -->
<g id="Node000007" class="node">
<title>Node7</title>
<g id="a_Node000007"><a xlink:href="classpolyfem_1_1basis_1_1_element_bases.html#a731d20029949bd0255c9af1f91dfa74c" target="_top" xlink:title="evaluate gradient of stored bases at given points on the reference element saves results to basis_val...">
<polygon fill="white" stroke="#666666" points="512,-326 348,-326 348,-296 512,-296 512,-326"/>
<text text-anchor="start" x="356" y="-314" font-family="Helvetica,sans-Serif" font-size="10.00">polyfem::basis::ElementBases</text>
<text text-anchor="middle" x="430" y="-303" font-family="Helvetica,sans-Serif" font-size="10.00">::evaluate_grads</text>
</a>
</g>
</g>
<!-- Node4&#45;&gt;Node7 -->
<g id="edge6_Node000004_Node000007" class="edge">
<title>Node4&#45;&gt;Node7</title>
<g id="a_edge6_Node000004_Node000007"><a xlink:title=" ">
<path fill="none" stroke="#63b8ff" d="M311.23,-291.01C319.88,-292.48 328.82,-293.99 337.72,-295.5"/>
<polygon fill="#63b8ff" stroke="#63b8ff" points="337.29,-298.98 347.73,-297.2 338.46,-292.08 337.29,-298.98"/>
</a>
</g>
</g>
<!-- Node9 -->
<g id="Node000009" class="node">
<title>Node9</title>
<g id="a_Node000009"><a xlink:href="classpolyfem_1_1assembler_1_1_element_assembly_values.html#a7ce3e8b5fceffa5bdde29ca3ac79459b" target="_top" xlink:title="void finalize(const Eigen::MatrixXd &amp;v, const Eigen::MatrixXd &amp;dx, const Eigen::MatrixXd &amp;dy); void f...">
<polygon fill="white" stroke="#666666" points="501.5,-277.5 358.5,-277.5 358.5,-236.5 501.5,-236.5 501.5,-277.5"/>
<text text-anchor="start" x="366.5" y="-265.5" font-family="Helvetica,sans-Serif" font-size="10.00">polyfem::assembler</text>
<text text-anchor="start" x="366.5" y="-254.5" font-family="Helvetica,sans-Serif" font-size="10.00">::ElementAssemblyValues</text>
<text text-anchor="middle" x="430" y="-243.5" font-family="Helvetica,sans-Serif" font-size="10.00">::finalize2d</text>
</a>
</g>
</g>
<!-- Node4&#45;&gt;Node9 -->
<g id="edge8_Node000004_Node000009" class="edge">
<title>Node4&#45;&gt;Node9</title>
<g id="a_edge8_Node000004_Node000009"><a xlink:title=" ">
<path fill="none" stroke="#63b8ff" d="M311.23,-270.75C323.22,-269.35 335.77,-267.88 348,-266.45"/>
<polygon fill="#63b8ff" stroke="#63b8ff" points="348.66,-269.9 358.19,-265.26 347.85,-262.95 348.66,-269.9"/>
</a>
</g>
</g>
<!-- Node10 -->
<g id="Node000010" class="node">
<title>Node10</title>
<g id="a_Node000010"><a xlink:href="classpolyfem_1_1assembler_1_1_element_assembly_values.html#af2830b447f50401acd4e69a57a4b235b" target="_top" xlink:title=" ">
<polygon fill="white" stroke="#666666" points="501.5,-218.5 358.5,-218.5 358.5,-177.5 501.5,-177.5 501.5,-218.5"/>
<text text-anchor="start" x="366.5" y="-206.5" font-family="Helvetica,sans-Serif" font-size="10.00">polyfem::assembler</text>
<text text-anchor="start" x="366.5" y="-195.5" font-family="Helvetica,sans-Serif" font-size="10.00">::ElementAssemblyValues</text>
<text text-anchor="middle" x="430" y="-184.5" font-family="Helvetica,sans-Serif" font-size="10.00">::finalize3d</text>
</a>
</g>
</g>
<!-- Node4&#45;&gt;Node10 -->
<g id="edge9_Node000004_Node000010" class="edge">
<title>Node4&#45;&gt;Node10</title>
<g id="a_edge9_Node000004_Node000010"><a xlink:title=" ">
<path fill="none" stroke="#63b8ff" d="M292.03,-258.33C298.81,-255.34 305.62,-252.18 312,-249 328.58,-240.73 331.25,-235.91 348,-228 352,-226.11 356.15,-224.26 360.37,-222.46"/>
<polygon fill="#63b8ff" stroke="#63b8ff" points="361.76,-225.67 369.67,-218.62 359.09,-219.2 361.76,-225.67"/>
</a>
</g>
</g>
<!-- Node11 -->
<g id="Node000011" class="node">
<title>Node11</title>
<g id="a_Node000011"><a xlink:href="classpolyfem_1_1assembler_1_1_element_assembly_values.html#abfc70df83b8de385510064a839273131" target="_top" xlink:title=" ">
<polygon fill="white" stroke="#666666" points="501.5,-159.5 358.5,-159.5 358.5,-118.5 501.5,-118.5 501.5,-159.5"/>
<text text-anchor="start" x="366.5" y="-147.5" font-family="Helvetica,sans-Serif" font-size="10.00">polyfem::assembler</text>
<text text-anchor="start" x="366.5" y="-136.5" font-family="Helvetica,sans-Serif" font-size="10.00">::ElementAssemblyValues</text>
<text text-anchor="middle" x="430" y="-125.5" font-family="Helvetica,sans-Serif" font-size="10.00">::finalize_global_element</text>
</a>
</g>
</g>
<!-- Node4&#45;&gt;Node11 -->
<g id="edge10_Node000004_Node000011" class="edge">
<title>Node4&#45;&gt;Node11</title>
<g id="a_edge10_Node000004_Node000011"><a xlink:title=" ">
<path fill="none" stroke="#63b8ff" d="M300.12,-258.33C304.4,-255.57 308.43,-252.48 312,-249 339.92,-221.79 319.51,-195.61 348,-169 349.28,-167.8 350.61,-166.65 351.99,-165.55"/>
<polygon fill="#63b8ff" stroke="#63b8ff" points="354.14,-168.31 360.31,-159.7 350.12,-162.59 354.14,-168.31"/>
</a>
</g>
</g>
<!-- Node6 -->
<g id="Node000006" class="node">
<title>Node6</title>
<g id="a_Node000006"><a xlink:href="classpolyfem_1_1basis_1_1_element_bases.html#a9d6e4fd2a6d6491fed600c2a26680d89" target="_top" xlink:title="default to simply calling the Basis evaluation functions">
<polygon fill="white" stroke="#666666" points="712,-374 548,-374 548,-344 712,-344 712,-374"/>
<text text-anchor="start" x="556" y="-362" font-family="Helvetica,sans-Serif" font-size="10.00">polyfem::basis::ElementBases</text>
<text text-anchor="middle" x="630" y="-351" font-family="Helvetica,sans-Serif" font-size="10.00">::evaluate_bases_default</text>
</a>
</g>
</g>
<!-- Node5&#45;&gt;Node6 -->
<g id="edge5_Node000005_Node000006" class="edge">
<title>Node5&#45;&gt;Node6</title>
<g id="a_edge5_Node000005_Node000006"><a xlink:title=" ">
<path fill="none" stroke="#63b8ff" d="M512.11,-359C520.46,-359 528.99,-359 537.44,-359"/>
<polygon fill="#63b8ff" stroke="#63b8ff" points="537.7,-362.5 547.7,-359 537.7,-355.5 537.7,-362.5"/>
</a>
</g>
</g>
<!-- Node8 -->
<g id="Node000008" class="node">
<title>Node8</title>
<g id="a_Node000008"><a xlink:href="classpolyfem_1_1basis_1_1_element_bases.html#aae3b739e75920739799e866e4b0c448c" target="_top" xlink:title=" ">
<polygon fill="white" stroke="#666666" points="712,-326 548,-326 548,-296 712,-296 712,-326"/>
<text text-anchor="start" x="556" y="-314" font-family="Helvetica,sans-Serif" font-size="10.00">polyfem::basis::ElementBases</text>
<text text-anchor="middle" x="630" y="-303" font-family="Helvetica,sans-Serif" font-size="10.00">::evaluate_grads_default</text>
</a>
</g>
</g>
<!-- Node7&#45;&gt;Node8 -->
<g id="edge7_Node000007_Node000008" class="edge">
<title>Node7&#45;&gt;Node8</title>
<g id="a_edge7_Node000007_Node000008"><a xlink:title=" ">
<path fill="none" stroke="#63b8ff" d="M512.11,-311C520.46,-311 528.99,-311 537.44,-311"/>
<polygon fill="#63b8ff" stroke="#63b8ff" points="537.7,-314.5 547.7,-311 537.7,-307.5 537.7,-314.5"/>
</a>
</g>
</g>
<!-- Node15&#45;&gt;Node15 -->
<g id="edge17_Node000015_Node000015" class="edge">
<title>Node15&#45;&gt;Node15</title>
<g id="a_edge17_Node000015_Node000015"><a xlink:title=" ">
<path fill="none" stroke="#63b8ff" d="M208.91,-78.28C202.12,-87.41 212.31,-96 239.5,-96 255.64,-96 265.79,-92.97 269.96,-88.6"/>
<polygon fill="#63b8ff" stroke="#63b8ff" points="273.46,-88.32 270.09,-78.28 266.46,-88.23 273.46,-88.32"/>
</a>
</g>
</g>
<!-- Node16 -->
<g id="Node000016" class="node">
<title>Node16</title>
<g id="a_Node000016"><a xlink:href="classpolyfem_1_1mesh_1_1_mesh.html#aadc9bb68805f0a4c0209bee9160c9fc6" target="_top" xlink:title="utily for dimension">
<polygon fill="white" stroke="#666666" points="491,-78 369,-78 369,-48 491,-48 491,-78"/>
<text text-anchor="start" x="377" y="-66" font-family="Helvetica,sans-Serif" font-size="10.00">polyfem::mesh::Mesh</text>
<text text-anchor="middle" x="430" y="-55" font-family="Helvetica,sans-Serif" font-size="10.00">::dimension</text>
</a>
</g>
</g>
<!-- Node15&#45;&gt;Node16 -->
<g id="edge15_Node000015_Node000016" class="edge">
<title>Node15&#45;&gt;Node16</title>
<g id="a_edge15_Node000015_Node000016"><a xlink:title=" ">
<path fill="none" stroke="#63b8ff" d="M312.03,-63C327.26,-63 343.34,-63 358.53,-63"/>
<polygon fill="#63b8ff" stroke="#63b8ff" points="358.89,-66.5 368.89,-63 358.89,-59.5 358.89,-66.5"/>
</a>
</g>
</g>
<!-- Node17 -->
<g id="Node000017" class="node">
<title>Node17</title>
<g id="a_Node000017"><a xlink:href="classpolyfem_1_1mesh_1_1_mesh.html#a93c9ea4759ded33a8f25ff157033cfd9" target="_top" xlink:title="checks if mesh is volume">
<polygon fill="white" stroke="#666666" points="691,-78 569,-78 569,-48 691,-48 691,-78"/>
<text text-anchor="start" x="577" y="-66" font-family="Helvetica,sans-Serif" font-size="10.00">polyfem::mesh::Mesh</text>
<text text-anchor="middle" x="630" y="-55" font-family="Helvetica,sans-Serif" font-size="10.00">::is_volume</text>
</a>
</g>
</g>
<!-- Node16&#45;&gt;Node17 -->
<g id="edge16_Node000016_Node000017" class="edge">
<title>Node16&#45;&gt;Node17</title>
<g id="a_edge16_Node000016_Node000017"><a xlink:title=" ">
<path fill="none" stroke="#63b8ff" d="M491.21,-63C512.43,-63 536.47,-63 558.46,-63"/>
<polygon fill="#63b8ff" stroke="#63b8ff" points="558.73,-66.5 568.73,-63 558.73,-59.5 558.73,-66.5"/>
</a>
</g>
</g>
</g>
</svg>
