<?xml version="1.0" encoding="UTF-8" standalone="no"?>
<!DOCTYPE svg PUBLIC "-//W3C//DTD SVG 1.1//EN"
 "http://www.w3.org/Graphics/SVG/1.1/DTD/svg11.dtd">
<!-- Generated by graphviz version 2.43.0 (0)
 -->
<!-- Title: polyfem::mesh::NCMesh3D::remove_elements Pages: 1 -->
<!--zoomable 682 -->

<svg id="main" version="1.1" xmlns="http://www.w3.org/2000/svg" xmlns:xlink="http://www.w3.org/1999/xlink" xml:space="preserve" onload="init(evt)">
<style type="text/css"><![CDATA[
.node, .edge {opacity: 0.7;}
.node.selected, .edge.selected {opacity: 1;}
.edge:hover path { stroke: red; }
.edge:hover polygon { stroke: red; fill: red; }
]]></style>

<defs>
  <circle id="rim" cx="0" cy="0" r="7"/>
  <circle id="rim2" cx="0" cy="0" r="3.5"/>
  <g id="zoomPlus">
    <use xlink:href="#rim" fill="#404040"><set attributeName="fill" to="#808080" begin="zoomplus.mouseover" end="zoomplus.mouseout"/></use>
    <path d="M-4,0h8M0,-4v8" fill="none" stroke="white" stroke-width="1.5" pointer-events="none"/>
  </g>
  <g id="zoomMin">
    <use xlink:href="#rim" fill="#404040"><set attributeName="fill" to="#808080" begin="zoomminus.mouseover" end="zoomminus.mouseout"/></use>
    <path d="M-4,0h8" fill="none" stroke="white" stroke-width="1.5" pointer-events="none"/>
  </g>
  <g id="arrowUp" transform="translate(30 24)">
    <use xlink:href="#rim"/>
    <path pointer-events="none" fill="none" stroke="white" stroke-width="1.5" d="M0,-3.0v7 M-2.5,-0.5L0,-3.0L2.5,-0.5"/>
  </g>
  <g id="arrowRight" transform="rotate(90) translate(36 -43)">
    <use xlink:href="#rim"/>
    <path pointer-events="none" fill="none" stroke="white" stroke-width="1.5" d="M0,-3.0v7 M-2.5,-0.5L0,-3.0L2.5,-0.5"/>
  </g>
  <g id="arrowDown" transform="rotate(180) translate(-30 -48)">
    <use xlink:href="#rim"/>
    <path pointer-events="none" fill="none" stroke="white" stroke-width="1.5" d="M0,-3.0v7 M-2.5,-0.5L0,-3.0L2.5,-0.5"/>
  </g>
  <g id="arrowLeft" transform="rotate(270) translate(-36 17)">
    <use xlink:href="#rim"/>
    <path pointer-events="none" fill="none" stroke="white" stroke-width="1.5" d="M0,-3.0v7 M-2.5,-0.5L0,-3.0L2.5,-0.5"/>
  </g>
  <g id="resetDef">
    <use xlink:href="#rim2" fill="#404040"><set attributeName="fill" to="#808080" begin="reset.mouseover" end="reset.mouseout"/></use>
  </g>
</defs>
<script type="application/ecmascript">
var viewWidth = 904;
var viewHeight = 682;
var sectionId = 'dynsection-109';
</script>
<script type="application/ecmascript" xlink:href="svg.min.js"/>
<svg id="graph" class="graph">
<g id="viewport">
<title>polyfem::mesh::NCMesh3D::remove_elements</title>
<!-- Node1 -->
<g id="Node000001" class="node">
<title>Node1</title>
<g id="a_Node000001"><a xlink:title="Remove all top&#45;dimensional elements whose mask entry is false.">
<polygon fill="#999999" stroke="#666666" points="150,-374 0,-374 0,-344 150,-344 150,-374"/>
<text text-anchor="start" x="8" y="-362" font-family="Helvetica,sans-Serif" font-size="10.00">polyfem::mesh::NCMesh3D</text>
<text text-anchor="middle" x="75" y="-351" font-family="Helvetica,sans-Serif" font-size="10.00">::remove_elements</text>
</a>
</g>
</g>
<!-- Node2 -->
<g id="Node000002" class="node">
<title>Node2</title>
<g id="a_Node000002"><a xlink:href="classpolyfem_1_1mesh_1_1_mesh.html#ad4936ec03c0bce6687c90e9d7eb6fc19" target="_top" xlink:title=" ">
<polygon fill="white" stroke="#666666" points="322,-650 200,-650 200,-620 322,-620 322,-650"/>
<text text-anchor="start" x="208" y="-638" font-family="Helvetica,sans-Serif" font-size="10.00">polyfem::mesh::Mesh</text>
<text text-anchor="middle" x="261" y="-627" font-family="Helvetica,sans-Serif" font-size="10.00">::filter_element_data</text>
</a>
</g>
</g>
<!-- Node1&#45;&gt;Node2 -->
<g id="edge1_Node000001_Node000002" class="edge">
<title>Node1&#45;&gt;Node2</title>
<g id="a_edge1_Node000001_Node000002"><a xlink:title=" ">
<path fill="none" stroke="#63b8ff" d="M78.24,-374.27C85.41,-417.83 111.91,-543.83 186,-611 187.54,-612.39 189.16,-613.71 190.85,-614.95"/>
<polygon fill="#63b8ff" stroke="#63b8ff" points="189.43,-618.19 199.77,-620.52 193.14,-612.25 189.43,-618.19"/>
</a>
</g>
</g>
<!-- Node3 -->
<g id="Node000003" class="node">
<title>Node3</title>
<g id="a_Node000003"><a xlink:href="classpolyfem_1_1mesh_1_1_mesh.html#aad8b1ae368d562f132f816906d01de17" target="_top" xlink:title="Get the default boundary selection of an element (face in 3d, edge in 2d)">
<polygon fill="white" stroke="#666666" points="332.5,-602 189.5,-602 189.5,-572 332.5,-572 332.5,-602"/>
<text text-anchor="start" x="197.5" y="-590" font-family="Helvetica,sans-Serif" font-size="10.00">polyfem::mesh::Mesh</text>
<text text-anchor="middle" x="261" y="-579" font-family="Helvetica,sans-Serif" font-size="10.00">::get_default_boundary_id</text>
</a>
</g>
</g>
<!-- Node1&#45;&gt;Node3 -->
<g id="edge2_Node000001_Node000003" class="edge">
<title>Node1&#45;&gt;Node3</title>
<g id="a_edge2_Node000001_Node000003"><a xlink:title=" ">
<path fill="none" stroke="#63b8ff" d="M79.89,-374.05C90.38,-411.62 122.8,-510.31 186,-563 187.56,-564.3 189.18,-565.52 190.87,-566.69"/>
<polygon fill="#63b8ff" stroke="#63b8ff" points="189.34,-569.85 199.72,-571.96 192.92,-563.84 189.34,-569.85"/>
</a>
</g>
</g>
<!-- Node7 -->
<g id="Node000007" class="node">
<title>Node7</title>
<g id="a_Node000007"><a xlink:href="classpolyfem_1_1mesh_1_1_mesh.html#a2a0448ef817e94ed705e39ac818bf9e1" target="_top" xlink:title="checks if surface selections are available">
<polygon fill="white" stroke="#666666" points="322,-554 200,-554 200,-524 322,-524 322,-554"/>
<text text-anchor="start" x="208" y="-542" font-family="Helvetica,sans-Serif" font-size="10.00">polyfem::mesh::Mesh</text>
<text text-anchor="middle" x="261" y="-531" font-family="Helvetica,sans-Serif" font-size="10.00">::has_boundary_ids</text>
</a>
</g>
</g>
<!-- Node1&#45;&gt;Node7 -->
<g id="edge6_Node000001_Node000007" class="edge">
<title>Node1&#45;&gt;Node7</title>
<g id="a_edge6_Node000001_Node000007"><a xlink:title=" ">
<path fill="none" stroke="#63b8ff" d="M82.68,-374.34C97.01,-405.49 133.71,-476.46 186,-515 188.05,-516.51 190.19,-517.92 192.41,-519.25"/>
<polygon fill="#63b8ff" stroke="#63b8ff" points="190.8,-522.36 201.27,-523.96 194.08,-516.18 190.8,-522.36"/>
</a>
</g>
</g>
<!-- Node8 -->
<g id="Node000008" class="node">
<title>Node8</title>
<g id="a_Node000008"><a xlink:href="classpolyfem_1_1mesh_1_1_mesh.html#a4addd001329243170f8a5f292739227e" target="_top" xlink:title="checks if points selections are available">
<polygon fill="white" stroke="#666666" points="322,-506 200,-506 200,-476 322,-476 322,-506"/>
<text text-anchor="start" x="208" y="-494" font-family="Helvetica,sans-Serif" font-size="10.00">polyfem::mesh::Mesh</text>
<text text-anchor="middle" x="261" y="-483" font-family="Helvetica,sans-Serif" font-size="10.00">::has_node_ids</text>
</a>
</g>
</g>
<!-- Node1&#45;&gt;Node8 -->
<g id="edge7_Node000001_Node000008" class="edge">
<title>Node1&#45;&gt;Node8</title>
<g id="a_edge7_Node000001_Node000008"><a xlink:title=" ">
<path fill="none" stroke="#63b8ff" d="M88.8,-374.2C107.97,-396.15 146.18,-436.86 186,-462 191.72,-465.61 197.97,-468.9 204.33,-471.87"/>
<polygon fill="#63b8ff" stroke="#63b8ff" points="203.11,-475.16 213.68,-475.97 205.93,-468.75 203.11,-475.16"/>
</a>
</g>
</g>
<!-- Node9 -->
<g id="Node000009" class="node">
<title>Node9</title>
<g id="a_Node000009"><a xlink:href="classpolyfem_1_1mesh_1_1_n_c_mesh3_d.html#a3f281a6c7d029664820117dcb51ade52" target="_top" xlink:title="number of cells">
<polygon fill="white" stroke="#666666" points="710,-531 560,-531 560,-501 710,-501 710,-531"/>
<text text-anchor="start" x="568" y="-519" font-family="Helvetica,sans-Serif" font-size="10.00">polyfem::mesh::NCMesh3D</text>
<text text-anchor="middle" x="635" y="-508" font-family="Helvetica,sans-Serif" font-size="10.00">::n_cells</text>
</a>
</g>
</g>
<!-- Node1&#45;&gt;Node9 -->
<g id="edge8_Node000001_Node000009" class="edge">
<title>Node1&#45;&gt;Node9</title>
<g id="a_edge8_Node000001_Node000009"><a xlink:title=" ">
<path fill="none" stroke="#63b8ff" d="M126.79,-374C181.22,-391.43 268.84,-423.45 336,-467 354.47,-478.97 351.79,-492.29 372,-501 427.81,-525.06 496.6,-528.12 549.69,-525.53"/>
<polygon fill="#63b8ff" stroke="#63b8ff" points="549.96,-529.02 559.75,-524.96 549.57,-522.03 549.96,-529.02"/>
</a>
</g>
</g>
<!-- Node10 -->
<g id="Node000010" class="node">
<title>Node10</title>
<g id="a_Node000010"><a xlink:href="classpolyfem_1_1mesh_1_1_n_c_mesh3_d.html#a191cd97819df87cdf6ce7d5aff357f99" target="_top" xlink:title="number of faces">
<polygon fill="white" stroke="#666666" points="710,-217 560,-217 560,-187 710,-187 710,-217"/>
<text text-anchor="start" x="568" y="-205" font-family="Helvetica,sans-Serif" font-size="10.00">polyfem::mesh::NCMesh3D</text>
<text text-anchor="middle" x="635" y="-194" font-family="Helvetica,sans-Serif" font-size="10.00">::n_faces</text>
</a>
</g>
</g>
<!-- Node1&#45;&gt;Node10 -->
<g id="edge9_Node000001_Node000010" class="edge">
<title>Node1&#45;&gt;Node10</title>
<g id="a_edge9_Node000001_Node000010"><a xlink:title=" ">
<path fill="none" stroke="#63b8ff" d="M97.72,-343.97C144.97,-312.24 261.75,-239.03 372,-211 430.1,-196.23 497.77,-194.27 549.79,-195.86"/>
<polygon fill="#63b8ff" stroke="#63b8ff" points="549.86,-199.36 559.97,-196.22 550.1,-192.37 549.86,-199.36"/>
</a>
</g>
</g>
<!-- Node11 -->
<g id="Node000011" class="node">
<title>Node11</title>
<g id="a_Node000011"><a xlink:href="classpolyfem_1_1mesh_1_1_n_c_mesh3_d.html#a64cac406c75cd339040c67ac6e6c4d07" target="_top" xlink:title="number of vertices">
<polygon fill="white" stroke="#666666" points="710,-169 560,-169 560,-139 710,-139 710,-169"/>
<text text-anchor="start" x="568" y="-157" font-family="Helvetica,sans-Serif" font-size="10.00">polyfem::mesh::NCMesh3D</text>
<text text-anchor="middle" x="635" y="-146" font-family="Helvetica,sans-Serif" font-size="10.00">::n_vertices</text>
</a>
</g>
</g>
<!-- Node1&#45;&gt;Node11 -->
<g id="edge10_Node000001_Node000011" class="edge">
<title>Node1&#45;&gt;Node11</title>
<g id="a_edge10_Node000001_Node000011"><a xlink:title=" ">
<path fill="none" stroke="#63b8ff" d="M82.8,-343.85C97.11,-313.93 133.4,-247.52 186,-217 299.24,-151.3 454.93,-144.45 549.79,-147.66"/>
<polygon fill="#63b8ff" stroke="#63b8ff" points="549.79,-151.17 559.92,-148.05 550.06,-144.17 549.79,-151.17"/>
</a>
</g>
</g>
<!-- Node12 -->
<g id="Node000012" class="node">
<title>Node12</title>
<g id="a_Node000012"><a xlink:href="classpolyfem_1_1mesh_1_1_n_c_mesh3_d.html#a41c990b52d185a073d710f88b603c6e6" target="_top" xlink:title="method used to finalize the mesh.">
<polygon fill="white" stroke="#666666" points="336,-374 186,-374 186,-344 336,-344 336,-374"/>
<text text-anchor="start" x="194" y="-362" font-family="Helvetica,sans-Serif" font-size="10.00">polyfem::mesh::NCMesh3D</text>
<text text-anchor="middle" x="261" y="-351" font-family="Helvetica,sans-Serif" font-size="10.00">::prepare_mesh</text>
</a>
</g>
</g>
<!-- Node1&#45;&gt;Node12 -->
<g id="edge11_Node000001_Node000012" class="edge">
<title>Node1&#45;&gt;Node12</title>
<g id="a_edge11_Node000001_Node000012"><a xlink:title=" ">
<path fill="none" stroke="#63b8ff" d="M150.04,-359C158.51,-359 167.19,-359 175.78,-359"/>
<polygon fill="#63b8ff" stroke="#63b8ff" points="175.81,-362.5 185.81,-359 175.81,-355.5 175.81,-362.5"/>
</a>
</g>
</g>
<!-- Node25 -->
<g id="Node000025" class="node">
<title>Node25</title>
<g id="a_Node000025"><a xlink:href="classpolyfem_1_1mesh_1_1_n_c_mesh3_d.html#a79a873f7d9f54afe2640ec2a2ad475e2" target="_top" xlink:title=" ">
<polygon fill="white" stroke="#666666" points="336,-126 186,-126 186,-96 336,-96 336,-126"/>
<text text-anchor="start" x="194" y="-114" font-family="Helvetica,sans-Serif" font-size="10.00">polyfem::mesh::NCMesh3D</text>
<text text-anchor="middle" x="261" y="-103" font-family="Helvetica,sans-Serif" font-size="10.00">::valid_to_all_elem</text>
</a>
</g>
</g>
<!-- Node1&#45;&gt;Node25 -->
<g id="edge32_Node000001_Node000025" class="edge">
<title>Node1&#45;&gt;Node25</title>
<g id="a_edge32_Node000001_Node000025"><a xlink:title=" ">
<path fill="none" stroke="#63b8ff" d="M79.54,-343.96C89.48,-304.88 121.24,-199.06 186,-140 189.63,-136.69 193.69,-133.74 197.97,-131.11"/>
<polygon fill="#63b8ff" stroke="#63b8ff" points="199.95,-134.02 207.05,-126.16 196.59,-127.87 199.95,-134.02"/>
</a>
</g>
</g>
<!-- Node26 -->
<g id="Node000026" class="node">
<title>Node26</title>
<g id="a_Node000026"><a xlink:href="classpolyfem_1_1mesh_1_1_n_c_mesh3_d.html#a4a1f44a47eebdf4bdea5981678812a22" target="_top" xlink:title=" ">
<polygon fill="white" stroke="#666666" points="336,-78 186,-78 186,-48 336,-48 336,-78"/>
<text text-anchor="start" x="194" y="-66" font-family="Helvetica,sans-Serif" font-size="10.00">polyfem::mesh::NCMesh3D</text>
<text text-anchor="middle" x="261" y="-55" font-family="Helvetica,sans-Serif" font-size="10.00">::valid_to_all_face</text>
</a>
</g>
</g>
<!-- Node1&#45;&gt;Node26 -->
<g id="edge33_Node000001_Node000026" class="edge">
<title>Node1&#45;&gt;Node26</title>
<g id="a_edge33_Node000001_Node000026"><a xlink:title=" ">
<path fill="none" stroke="#63b8ff" d="M77.67,-343.86C83.52,-298.19 107.18,-160.44 186,-87 187.14,-85.94 188.33,-84.92 189.56,-83.95"/>
<polygon fill="#63b8ff" stroke="#63b8ff" points="191.85,-86.63 198.22,-78.16 187.96,-80.81 191.85,-86.63"/>
</a>
</g>
</g>
<!-- Node27 -->
<g id="Node000027" class="node">
<title>Node27</title>
<g id="a_Node000027"><a xlink:href="classpolyfem_1_1mesh_1_1_n_c_mesh3_d.html#ac0f5cb1c220c2224aa730bcb475dde80" target="_top" xlink:title=" ">
<polygon fill="white" stroke="#666666" points="336,-30 186,-30 186,0 336,0 336,-30"/>
<text text-anchor="start" x="194" y="-18" font-family="Helvetica,sans-Serif" font-size="10.00">polyfem::mesh::NCMesh3D</text>
<text text-anchor="middle" x="261" y="-7" font-family="Helvetica,sans-Serif" font-size="10.00">::valid_to_all_vertex</text>
</a>
</g>
</g>
<!-- Node1&#45;&gt;Node27 -->
<g id="edge34_Node000001_Node000027" class="edge">
<title>Node1&#45;&gt;Node27</title>
<g id="a_edge34_Node000001_Node000027"><a xlink:title=" ">
<path fill="none" stroke="#63b8ff" d="M76.63,-343.82C79.56,-293.06 95.91,-127.53 186,-39 187.08,-37.94 188.22,-36.92 189.39,-35.94"/>
<polygon fill="#63b8ff" stroke="#63b8ff" points="191.47,-38.76 197.66,-30.16 187.46,-33.02 191.47,-38.76"/>
</a>
</g>
</g>
<!-- Node4 -->
<g id="Node000004" class="node">
<title>Node4</title>
<g id="a_Node000004"><a xlink:href="classpolyfem_1_1mesh_1_1_mesh.html#aa91ff468411251e60dd0bec73654b0fb" target="_top" xlink:title="is edge boundary">
<polygon fill="white" stroke="#666666" points="509,-674 387,-674 387,-644 509,-644 509,-674"/>
<text text-anchor="start" x="395" y="-662" font-family="Helvetica,sans-Serif" font-size="10.00">polyfem::mesh::Mesh</text>
<text text-anchor="middle" x="448" y="-651" font-family="Helvetica,sans-Serif" font-size="10.00">::is_boundary_edge</text>
</a>
</g>
</g>
<!-- Node3&#45;&gt;Node4 -->
<g id="edge3_Node000003_Node000004" class="edge">
<title>Node3&#45;&gt;Node4</title>
<g id="a_edge3_Node000003_Node000004"><a xlink:title=" ">
<path fill="none" stroke="#63b8ff" d="M314.46,-602.02C321.82,-604.7 329.19,-607.7 336,-611 353.31,-619.38 354.68,-626.66 372,-635 375.81,-636.84 379.8,-638.58 383.86,-640.22"/>
<polygon fill="#63b8ff" stroke="#63b8ff" points="382.84,-643.58 393.43,-643.88 385.34,-637.04 382.84,-643.58"/>
</a>
</g>
</g>
<!-- Node5 -->
<g id="Node000005" class="node">
<title>Node5</title>
<g id="a_Node000005"><a xlink:href="classpolyfem_1_1mesh_1_1_mesh.html#a57691e050de1b8142a237ffa388117e4" target="_top" xlink:title="is face boundary">
<polygon fill="white" stroke="#666666" points="509,-626 387,-626 387,-596 509,-596 509,-626"/>
<text text-anchor="start" x="395" y="-614" font-family="Helvetica,sans-Serif" font-size="10.00">polyfem::mesh::Mesh</text>
<text text-anchor="middle" x="448" y="-603" font-family="Helvetica,sans-Serif" font-size="10.00">::is_boundary_face</text>
</a>
</g>
</g>
<!-- Node3&#45;&gt;Node5 -->
<g id="edge4_Node000003_Node000005" class="edge">
<title>Node3&#45;&gt;Node5</title>
<g id="a_edge4_Node000003_Node000005"><a xlink:title=" ">
<path fill="none" stroke="#63b8ff" d="M332.73,-596.18C347.1,-598.04 362.2,-600 376.56,-601.86"/>
<polygon fill="#63b8ff" stroke="#63b8ff" points="376.49,-605.38 386.86,-603.2 377.39,-598.44 376.49,-605.38"/>
</a>
</g>
</g>
<!-- Node6 -->
<g id="Node000006" class="node">
<title>Node6</title>
<g id="a_Node000006"><a xlink:href="classpolyfem_1_1mesh_1_1_mesh.html#a93c9ea4759ded33a8f25ff157033cfd9" target="_top" xlink:title="checks if mesh is volume">
<polygon fill="white" stroke="#666666" points="509,-578 387,-578 387,-548 509,-548 509,-578"/>
<text text-anchor="start" x="395" y="-566" font-family="Helvetica,sans-Serif" font-size="10.00">polyfem::mesh::Mesh</text>
<text text-anchor="middle" x="448" y="-555" font-family="Helvetica,sans-Serif" font-size="10.00">::is_volume</text>
</a>
</g>
</g>
<!-- Node3&#45;&gt;Node6 -->
<g id="edge5_Node000003_Node000006" class="edge">
<title>Node3&#45;&gt;Node6</title>
<g id="a_edge5_Node000003_Node000006"><a xlink:title=" ">
<path fill="none" stroke="#63b8ff" d="M332.73,-577.82C347.1,-575.96 362.2,-574 376.56,-572.14"/>
<polygon fill="#63b8ff" stroke="#63b8ff" points="377.39,-575.56 386.86,-570.8 376.49,-568.62 377.39,-575.56"/>
</a>
</g>
</g>
<!-- Node13 -->
<g id="Node000013" class="node">
<title>Node13</title>
<g id="a_Node000013"><a xlink:href="classpolyfem_1_1mesh_1_1_n_c_mesh3_d.html#aa7ab9382a70d70531eb588dbfb45a9a2" target="_top" xlink:title=" ">
<polygon fill="white" stroke="#666666" points="524,-396 372,-396 372,-366 524,-366 524,-396"/>
<text text-anchor="start" x="380" y="-384" font-family="Helvetica,sans-Serif" font-size="10.00">polyfem::mesh::NCMesh3D</text>
<text text-anchor="middle" x="448" y="-373" font-family="Helvetica,sans-Serif" font-size="10.00">::build_edge_follower_chain</text>
</a>
</g>
</g>
<!-- Node12&#45;&gt;Node13 -->
<g id="edge12_Node000012_Node000013" class="edge">
<title>Node12&#45;&gt;Node13</title>
<g id="a_edge12_Node000012_Node000013"><a xlink:title=" ">
<path fill="none" stroke="#63b8ff" d="M336.18,-367.82C344.63,-368.83 353.3,-369.86 361.88,-370.88"/>
<polygon fill="#63b8ff" stroke="#63b8ff" points="361.55,-374.36 371.9,-372.07 362.38,-367.41 361.55,-374.36"/>
</a>
</g>
</g>
<!-- Node17 -->
<g id="Node000017" class="node">
<title>Node17</title>
<g id="a_Node000017"><a xlink:href="classpolyfem_1_1mesh_1_1_n_c_mesh3_d.html#a3ff04ad0592945c41678ca7bd43930ae" target="_top" xlink:title=" ">
<polygon fill="white" stroke="#666666" points="523,-309.5 373,-309.5 373,-268.5 523,-268.5 523,-309.5"/>
<text text-anchor="start" x="381" y="-297.5" font-family="Helvetica,sans-Serif" font-size="10.00">polyfem::mesh::NCMesh3D</text>
<text text-anchor="start" x="381" y="-286.5" font-family="Helvetica,sans-Serif" font-size="10.00">::build_element_vertex</text>
<text text-anchor="middle" x="448" y="-275.5" font-family="Helvetica,sans-Serif" font-size="10.00">_adjacency</text>
</a>
</g>
</g>
<!-- Node12&#45;&gt;Node17 -->
<g id="edge17_Node000012_Node000017" class="edge">
<title>Node12&#45;&gt;Node17</title>
<g id="a_edge17_Node000012_Node000017"><a xlink:title=" ">
<path fill="none" stroke="#63b8ff" d="M301.69,-343.98C325.43,-335 356.15,-323.37 383.23,-313.13"/>
<polygon fill="#63b8ff" stroke="#63b8ff" points="384.53,-316.38 392.64,-309.57 382.05,-309.83 384.53,-316.38"/>
</a>
</g>
</g>
<!-- Node18 -->
<g id="Node000018" class="node">
<title>Node18</title>
<g id="a_Node000018"><a xlink:href="classpolyfem_1_1mesh_1_1_n_c_mesh3_d.html#aa581d4f0bcc45018ce61506afe1a6ddd" target="_top" xlink:title=" ">
<polygon fill="white" stroke="#666666" points="523,-444 373,-444 373,-414 523,-414 523,-444"/>
<text text-anchor="start" x="381" y="-432" font-family="Helvetica,sans-Serif" font-size="10.00">polyfem::mesh::NCMesh3D</text>
<text text-anchor="middle" x="448" y="-421" font-family="Helvetica,sans-Serif" font-size="10.00">::build_face_follower_chain</text>
</a>
</g>
</g>
<!-- Node12&#45;&gt;Node18 -->
<g id="edge18_Node000012_Node000018" class="edge">
<title>Node12&#45;&gt;Node18</title>
<g id="a_edge18_Node000012_Node000018"><a xlink:title=" ">
<path fill="none" stroke="#63b8ff" d="M295.89,-374.06C317.48,-383.44 346.17,-395.49 372,-405 377.21,-406.92 382.66,-408.83 388.13,-410.7"/>
<polygon fill="#63b8ff" stroke="#63b8ff" points="387.38,-414.14 397.98,-413.98 389.6,-407.5 387.38,-414.14"/>
</a>
</g>
</g>
<!-- Node21 -->
<g id="Node000021" class="node">
<title>Node21</title>
<g id="a_Node000021"><a xlink:href="classpolyfem_1_1mesh_1_1_n_c_mesh3_d.html#acac1b735da681dbf09755f104856de64" target="_top" xlink:title=" ">
<polygon fill="white" stroke="#666666" points="523,-250 373,-250 373,-220 523,-220 523,-250"/>
<text text-anchor="start" x="381" y="-238" font-family="Helvetica,sans-Serif" font-size="10.00">polyfem::mesh::NCMesh3D</text>
<text text-anchor="middle" x="448" y="-227" font-family="Helvetica,sans-Serif" font-size="10.00">::build_index_mapping</text>
</a>
</g>
</g>
<!-- Node12&#45;&gt;Node21 -->
<g id="edge24_Node000012_Node000021" class="edge">
<title>Node12&#45;&gt;Node21</title>
<g id="a_edge24_Node000012_Node000021"><a xlink:title=" ">
<path fill="none" stroke="#63b8ff" d="M275.08,-343.8C294.31,-322.32 332.26,-283.14 372,-260 375.67,-257.86 379.55,-255.88 383.53,-254.04"/>
<polygon fill="#63b8ff" stroke="#63b8ff" points="385.14,-257.16 392.96,-250.01 382.39,-250.72 385.14,-257.16"/>
</a>
</g>
</g>
<!-- Node23 -->
<g id="Node000023" class="node">
<title>Node23</title>
<g id="a_Node000023"><a xlink:href="classpolyfem_1_1mesh_1_1_n_c_mesh3_d.html#a89ee5afccb067cb71680df636929e885" target="_top" xlink:title="compute element types, see ElementType">
<polygon fill="white" stroke="#666666" points="523,-492 373,-492 373,-462 523,-462 523,-492"/>
<text text-anchor="start" x="381" y="-480" font-family="Helvetica,sans-Serif" font-size="10.00">polyfem::mesh::NCMesh3D</text>
<text text-anchor="middle" x="448" y="-469" font-family="Helvetica,sans-Serif" font-size="10.00">::compute_elements_tag</text>
</a>
</g>
</g>
<!-- Node12&#45;&gt;Node23 -->
<g id="edge28_Node000012_Node000023" class="edge">
<title>Node12&#45;&gt;Node23</title>
<g id="a_edge28_Node000012_Node000023"><a xlink:title=" ">
<path fill="none" stroke="#63b8ff" d="M275.86,-374.15C295.44,-394.71 333.16,-431.36 372,-453 375.08,-454.72 378.3,-456.33 381.6,-457.84"/>
<polygon fill="#63b8ff" stroke="#63b8ff" points="380.49,-461.18 391.06,-461.85 383.22,-454.73 380.49,-461.18"/>
</a>
</g>
</g>
<!-- Node24 -->
<g id="Node000024" class="node">
<title>Node24</title>
<g id="a_Node000024"><a xlink:href="classpolyfem_1_1mesh_1_1_n_c_mesh3_d.html#aa40925ab61348aee70034846b4815dac" target="_top" xlink:title=" ">
<polygon fill="white" stroke="#666666" points="710,-348 560,-348 560,-318 710,-318 710,-348"/>
<text text-anchor="start" x="568" y="-336" font-family="Helvetica,sans-Serif" font-size="10.00">polyfem::mesh::NCMesh3D</text>
<text text-anchor="middle" x="635" y="-325" font-family="Helvetica,sans-Serif" font-size="10.00">::mark_boundary</text>
</a>
</g>
</g>
<!-- Node12&#45;&gt;Node24 -->
<g id="edge30_Node000012_Node000024" class="edge">
<title>Node12&#45;&gt;Node24</title>
<g id="a_edge30_Node000012_Node000024"><a xlink:title=" ">
<path fill="none" stroke="#63b8ff" d="M336.39,-353.8C397.97,-349.5 485.46,-343.38 549.65,-338.9"/>
<polygon fill="#63b8ff" stroke="#63b8ff" points="550.01,-342.38 559.74,-338.19 549.52,-335.4 550.01,-342.38"/>
</a>
</g>
</g>
<!-- Node14 -->
<g id="Node000014" class="node">
<title>Node14</title>
<g id="a_Node000014"><a xlink:href="classpolyfem_1_1mesh_1_1_n_c_mesh3_d.html#a31865ca221067341550e51d50069daf7" target="_top" xlink:title=" ">
<polygon fill="white" stroke="#666666" points="710,-396 560,-396 560,-366 710,-366 710,-396"/>
<text text-anchor="start" x="568" y="-384" font-family="Helvetica,sans-Serif" font-size="10.00">polyfem::mesh::NCMesh3D</text>
<text text-anchor="middle" x="635" y="-373" font-family="Helvetica,sans-Serif" font-size="10.00">::traverse_edge</text>
</a>
</g>
</g>
<!-- Node13&#45;&gt;Node14 -->
<g id="edge13_Node000013_Node000014" class="edge">
<title>Node13&#45;&gt;Node14</title>
<g id="a_edge13_Node000013_Node000014"><a xlink:title=" ">
<path fill="none" stroke="#63b8ff" d="M524.25,-381C532.57,-381 541.08,-381 549.51,-381"/>
<polygon fill="#63b8ff" stroke="#63b8ff" points="549.72,-384.5 559.72,-381 549.72,-377.5 549.72,-384.5"/>
</a>
</g>
</g>
<!-- Node14&#45;&gt;Node14 -->
<g id="edge16_Node000014_Node000014" class="edge">
<title>Node14&#45;&gt;Node14</title>
<g id="a_edge16_Node000014_Node000014"><a xlink:title=" ">
<path fill="none" stroke="#63b8ff" d="M602.66,-396.28C595.47,-405.41 606.25,-414 635,-414 652.07,-414 662.81,-410.97 667.21,-406.6"/>
<polygon fill="#63b8ff" stroke="#63b8ff" points="670.71,-406.32 667.34,-396.28 663.71,-406.23 670.71,-406.32"/>
</a>
</g>
</g>
<!-- Node15 -->
<g id="Node000015" class="node">
<title>Node15</title>
<g id="a_Node000015"><a xlink:href="classpolyfem_1_1mesh_1_1_n_c_mesh3_d.html#a91745979c297cfd7873980b73eff7790" target="_top" xlink:title=" ">
<polygon fill="white" stroke="#666666" points="896,-381 746,-381 746,-351 896,-351 896,-381"/>
<text text-anchor="start" x="754" y="-369" font-family="Helvetica,sans-Serif" font-size="10.00">polyfem::mesh::NCMesh3D</text>
<text text-anchor="middle" x="821" y="-358" font-family="Helvetica,sans-Serif" font-size="10.00">::find_edge</text>
</a>
</g>
</g>
<!-- Node14&#45;&gt;Node15 -->
<g id="edge14_Node000014_Node000015" class="edge">
<title>Node14&#45;&gt;Node15</title>
<g id="a_edge14_Node000014_Node000015"><a xlink:title=" ">
<path fill="none" stroke="#63b8ff" d="M710.04,-374.96C718.51,-374.27 727.19,-373.57 735.78,-372.87"/>
<polygon fill="#63b8ff" stroke="#63b8ff" points="736.12,-376.35 745.81,-372.05 735.56,-369.37 736.12,-376.35"/>
</a>
</g>
</g>
<!-- Node16 -->
<g id="Node000016" class="node">
<title>Node16</title>
<g id="a_Node000016"><a xlink:href="classpolyfem_1_1mesh_1_1_n_c_mesh3_d.html#a10a4afcddcba70de1676c24d1387feb1" target="_top" xlink:title=" ">
<polygon fill="white" stroke="#666666" points="896,-429 746,-429 746,-399 896,-399 896,-429"/>
<text text-anchor="start" x="754" y="-417" font-family="Helvetica,sans-Serif" font-size="10.00">polyfem::mesh::NCMesh3D</text>
<text text-anchor="middle" x="821" y="-406" font-family="Helvetica,sans-Serif" font-size="10.00">::find_vertex</text>
</a>
</g>
</g>
<!-- Node14&#45;&gt;Node16 -->
<g id="edge15_Node000014_Node000016" class="edge">
<title>Node14&#45;&gt;Node16</title>
<g id="a_edge15_Node000014_Node000016"><a xlink:title=" ">
<path fill="none" stroke="#63b8ff" d="M710.04,-394.28C718.51,-395.8 727.19,-397.36 735.78,-398.9"/>
<polygon fill="#63b8ff" stroke="#63b8ff" points="735.35,-402.37 745.81,-400.69 736.58,-395.48 735.35,-402.37"/>
</a>
</g>
</g>
<!-- Node19 -->
<g id="Node000019" class="node">
<title>Node19</title>
<g id="a_Node000019"><a xlink:href="classpolyfem_1_1mesh_1_1_n_c_mesh3_d.html#a6936ac7b4324e11ddc9df9d6e9c05dfd" target="_top" xlink:title=" ">
<polygon fill="white" stroke="#666666" points="710,-462 560,-462 560,-432 710,-432 710,-462"/>
<text text-anchor="start" x="568" y="-450" font-family="Helvetica,sans-Serif" font-size="10.00">polyfem::mesh::NCMesh3D</text>
<text text-anchor="middle" x="635" y="-439" font-family="Helvetica,sans-Serif" font-size="10.00">::traverse_face</text>
</a>
</g>
</g>
<!-- Node18&#45;&gt;Node19 -->
<g id="edge19_Node000018_Node000019" class="edge">
<title>Node18&#45;&gt;Node19</title>
<g id="a_edge19_Node000018_Node000019"><a xlink:title=" ">
<path fill="none" stroke="#63b8ff" d="M523.18,-436.22C531.95,-437.07 540.94,-437.95 549.83,-438.81"/>
<polygon fill="#63b8ff" stroke="#63b8ff" points="549.51,-442.3 559.8,-439.78 550.19,-435.33 549.51,-442.3"/>
</a>
</g>
</g>
<!-- Node19&#45;&gt;Node15 -->
<g id="edge20_Node000019_Node000015" class="edge">
<title>Node19&#45;&gt;Node15</title>
<g id="a_edge20_Node000019_Node000015"><a xlink:title=" ">
<path fill="none" stroke="#63b8ff" d="M691.3,-432C697.79,-429.39 704.17,-426.4 710,-423 728.75,-412.07 727.25,-400.93 746,-390 749.01,-388.25 752.16,-386.6 755.4,-385.06"/>
<polygon fill="#63b8ff" stroke="#63b8ff" points="756.93,-388.21 764.7,-381 754.13,-381.8 756.93,-388.21"/>
</a>
</g>
</g>
<!-- Node19&#45;&gt;Node16 -->
<g id="edge22_Node000019_Node000016" class="edge">
<title>Node19&#45;&gt;Node16</title>
<g id="a_edge22_Node000019_Node000016"><a xlink:title=" ">
<path fill="none" stroke="#63b8ff" d="M710.04,-433.72C718.51,-432.2 727.19,-430.64 735.78,-429.1"/>
<polygon fill="#63b8ff" stroke="#63b8ff" points="736.58,-432.52 745.81,-427.31 735.35,-425.63 736.58,-432.52"/>
</a>
</g>
</g>
<!-- Node19&#45;&gt;Node19 -->
<g id="edge23_Node000019_Node000019" class="edge">
<title>Node19&#45;&gt;Node19</title>
<g id="a_edge23_Node000019_Node000019"><a xlink:title=" ">
<path fill="none" stroke="#63b8ff" d="M602.66,-462.28C595.47,-471.41 606.25,-480 635,-480 652.07,-480 662.81,-476.97 667.21,-472.6"/>
<polygon fill="#63b8ff" stroke="#63b8ff" points="670.71,-472.32 667.34,-462.28 663.71,-472.23 670.71,-472.32"/>
</a>
</g>
</g>
<!-- Node20 -->
<g id="Node000020" class="node">
<title>Node20</title>
<g id="a_Node000020"><a xlink:href="classpolyfem_1_1mesh_1_1_n_c_mesh3_d.html#ace6449e49e440b37b896c3139356eb2a" target="_top" xlink:title=" ">
<polygon fill="white" stroke="#666666" points="896,-477 746,-477 746,-447 896,-447 896,-477"/>
<text text-anchor="start" x="754" y="-465" font-family="Helvetica,sans-Serif" font-size="10.00">polyfem::mesh::NCMesh3D</text>
<text text-anchor="middle" x="821" y="-454" font-family="Helvetica,sans-Serif" font-size="10.00">::find_face</text>
</a>
</g>
</g>
<!-- Node19&#45;&gt;Node20 -->
<g id="edge21_Node000019_Node000020" class="edge">
<title>Node19&#45;&gt;Node20</title>
<g id="a_edge21_Node000019_Node000020"><a xlink:title=" ">
<path fill="none" stroke="#63b8ff" d="M710.04,-453.04C718.51,-453.73 727.19,-454.43 735.78,-455.13"/>
<polygon fill="#63b8ff" stroke="#63b8ff" points="735.56,-458.63 745.81,-455.95 736.12,-451.65 735.56,-458.63"/>
</a>
</g>
</g>
<!-- Node21&#45;&gt;Node10 -->
<g id="edge26_Node000021_Node000010" class="edge">
<title>Node21&#45;&gt;Node10</title>
<g id="a_edge26_Node000021_Node000010"><a xlink:title=" ">
<path fill="none" stroke="#63b8ff" d="M523.18,-221.77C531.95,-220.2 540.94,-218.6 549.83,-217.01"/>
<polygon fill="#63b8ff" stroke="#63b8ff" points="550.57,-220.44 559.8,-215.24 549.34,-213.55 550.57,-220.44"/>
</a>
</g>
</g>
<!-- Node21&#45;&gt;Node11 -->
<g id="edge27_Node000021_Node000011" class="edge">
<title>Node21&#45;&gt;Node11</title>
<g id="a_edge27_Node000021_Node000011"><a xlink:title=" ">
<path fill="none" stroke="#63b8ff" d="M475.34,-219.94C497.48,-207.67 530.2,-190.39 560,-178 564.64,-176.07 569.49,-174.2 574.39,-172.4"/>
<polygon fill="#63b8ff" stroke="#63b8ff" points="575.59,-175.69 583.84,-169.06 573.25,-169.09 575.59,-175.69"/>
</a>
</g>
</g>
<!-- Node22 -->
<g id="Node000022" class="node">
<title>Node22</title>
<g id="a_Node000022"><a xlink:href="classpolyfem_1_1mesh_1_1_n_c_mesh3_d.html#a54a5caf8679adb15af5096509e39ed8f" target="_top" xlink:title="number of edges">
<polygon fill="white" stroke="#666666" points="710,-265 560,-265 560,-235 710,-235 710,-265"/>
<text text-anchor="start" x="568" y="-253" font-family="Helvetica,sans-Serif" font-size="10.00">polyfem::mesh::NCMesh3D</text>
<text text-anchor="middle" x="635" y="-242" font-family="Helvetica,sans-Serif" font-size="10.00">::n_edges</text>
</a>
</g>
</g>
<!-- Node21&#45;&gt;Node22 -->
<g id="edge25_Node000021_Node000022" class="edge">
<title>Node21&#45;&gt;Node22</title>
<g id="a_edge25_Node000021_Node000022"><a xlink:title=" ">
<path fill="none" stroke="#63b8ff" d="M523.18,-241.01C531.95,-241.73 540.94,-242.45 549.83,-243.18"/>
<polygon fill="#63b8ff" stroke="#63b8ff" points="549.55,-246.66 559.8,-243.98 550.12,-239.69 549.55,-246.66"/>
</a>
</g>
</g>
<!-- Node23&#45;&gt;Node9 -->
<g id="edge29_Node000023_Node000009" class="edge">
<title>Node23&#45;&gt;Node9</title>
<g id="a_edge29_Node000023_Node000009"><a xlink:title=" ">
<path fill="none" stroke="#63b8ff" d="M520.26,-492.02C530.94,-494.27 542.01,-496.61 552.88,-498.9"/>
<polygon fill="#63b8ff" stroke="#63b8ff" points="552.27,-502.35 562.78,-500.99 553.71,-495.5 552.27,-502.35"/>
</a>
</g>
</g>
<!-- Node24&#45;&gt;Node15 -->
<g id="edge31_Node000024_Node000015" class="edge">
<title>Node24&#45;&gt;Node15</title>
<g id="a_edge31_Node000024_Node000015"><a xlink:title=" ">
<path fill="none" stroke="#63b8ff" d="M710.04,-346.28C718.51,-347.8 727.19,-349.36 735.78,-350.9"/>
<polygon fill="#63b8ff" stroke="#63b8ff" points="735.35,-354.37 745.81,-352.69 736.58,-347.48 735.35,-354.37"/>
</a>
</g>
</g>
</g>
</svg>

<g id="navigator" transform="translate(0 0)" fill="#404254">
  <rect fill="#f2f5e9" fill-opacity="0.5" stroke="#606060" stroke-width=".5" x="0" y="0" width="60" height="60"/>
  <use id="zoomplus" xlink:href="#zoomPlus" x="17" y="9" onmousedown="handleZoom(evt,'in')"/>
  <use id="zoomminus" xlink:href="#zoomMin" x="42" y="9" onmousedown="handleZoom(evt,'out')"/>
  <use id="reset" xlink:href="#resetDef" x="30" y="36" onmousedown="handleReset()"/>
   <use id="arrowup" xlink:href="#arrowUp" x="0" y="0" onmousedown="handlePan(0,-1)"/>
  <use id="arrowright" xlink:href="#arrowRight" x="0" y="0" onmousedown="handlePan(1,0)"/>
  <use id="arrowdown" xlink:href="#arrowDown" x="0" y="0" onmousedown="handlePan(0,1)"/>
  <use id="arrowleft" xlink:href="#arrowLeft" x="0" y="0" onmousedown="handlePan(-1,0)"/>
</g>
<svg viewBox="0 0 15 15" width="100%" height="30px" preserveAspectRatio="xMaxYMin meet">
 <g id="arrow_out" transform="scale(0.3 0.3)">
  <a xlink:href="classpolyfem_1_1mesh_1_1_n_c_mesh3_d_a0da44891fdeb77b3766397172662bec5_cgraph_org.svg" target="_base">
   <rect id="button" ry="5" rx="5" y="6" x="6" height="38" width="38"
        fill="#f2f5e9" fill-opacity="0.5" stroke="#606060" stroke-width="1.0"/>
   <path id="arrow"
     d="M 11.500037,31.436501 C 11.940474,20.09759 22.043105,11.32322 32.158766,21.979434 L 37.068811,17.246167 C 37.068811,17.246167 37.088388,32 37.088388,32 L 22.160133,31.978069 C 22.160133,31.978069 26.997745,27.140456 26.997745,27.140456 C 18.528582,18.264221 13.291696,25.230495 11.500037,31.436501 z"
     style="fill:#404040;"/>
  </a>
 </g>
</svg>

<style type='text/css'>
<![CDATA[
[data-mouse-over-selected='false'] { opacity: 0.7; }
[data-mouse-over-selected='true']  { opacity: 1.0; }
]]>
</style>
<script type="application/ecmascript"><![CDATA[
document.addEventListener('DOMContentLoaded', (event) => {
  highlightEdges();
  highlightAdjacentNodes();
});
]]></script>
</svg>
