<?xml version="1.0" encoding="UTF-8" standalone="no"?>
<!DOCTYPE svg PUBLIC "-//W3C//DTD SVG 1.1//EN"
 "http://www.w3.org/Graphics/SVG/1.1/DTD/svg11.dtd">
<!-- Generated by graphviz version 2.43.0 (0)
 -->
<!-- Title: polyfem::basis::RBFWithQuadratic::RBFWithQuadratic Pages: 1 -->
<svg width="1292pt" height="468pt"
 viewBox="0.00 0.00 1292.00 467.65" xmlns="http://www.w3.org/2000/svg" xmlns:xlink="http://www.w3.org/1999/xlink">
<g id="graph0" class="graph" transform="scale(1 1) rotate(0) translate(4 463.65)">
<title>polyfem::basis::RBFWithQuadratic::RBFWithQuadratic</title>
<!-- Node1 -->
<g id="node1" class="node">
<title>Node1</title>
<g id="a_node1"><a xlink:title="Initialize RBF functions over a polytope element.">
<polygon fill="#bfbfbf" stroke="black" points="0,-303.15 0,-333.15 184,-333.15 184,-303.15 0,-303.15"/>
<text text-anchor="start" x="8" y="-321.15" font-family="Helvetica,sans-Serif" font-size="10.00">polyfem::basis::RBFWithQuadratic</text>
<text text-anchor="middle" x="92" y="-310.15" font-family="Helvetica,sans-Serif" font-size="10.00">::RBFWithQuadratic</text>
</a>
</g>
</g>
<!-- Node2 -->
<g id="node2" class="node">
<title>Node2</title>
<g id="a_node2"><a xlink:href="classpolyfem_1_1basis_1_1_r_b_f_with_quadratic.html#ac0950bb574bb3bd3475cb4afc40dad9f" target="_top" xlink:title=" ">
<polygon fill="none" stroke="black" points="220,-303.15 220,-333.15 404,-333.15 404,-303.15 220,-303.15"/>
<text text-anchor="start" x="228" y="-321.15" font-family="Helvetica,sans-Serif" font-size="10.00">polyfem::basis::RBFWithQuadratic</text>
<text text-anchor="middle" x="312" y="-310.15" font-family="Helvetica,sans-Serif" font-size="10.00">::compute_weights</text>
</a>
</g>
</g>
<!-- Node1&#45;&gt;Node2 -->
<g id="edge1" class="edge">
<title>Node1&#45;&gt;Node2</title>
<path fill="none" stroke="midnightblue" d="M184.19,-318.15C192.57,-318.15 201.09,-318.15 209.55,-318.15"/>
<polygon fill="midnightblue" stroke="midnightblue" points="209.83,-321.65 219.83,-318.15 209.83,-314.65 209.83,-321.65"/>
</g>
<!-- Node3 -->
<g id="node3" class="node">
<title>Node3</title>
<g id="a_node3"><a xlink:href="classpolyfem_1_1basis_1_1_r_b_f_with_quadratic.html#a1707dc6e1745ab4fceb760c690bd8c00" target="_top" xlink:title="Evaluates one RBF function over a list of coordinates.">
<polygon fill="none" stroke="black" points="440,-429.15 440,-459.15 624,-459.15 624,-429.15 440,-429.15"/>
<text text-anchor="start" x="448" y="-447.15" font-family="Helvetica,sans-Serif" font-size="10.00">polyfem::basis::RBFWithQuadratic</text>
<text text-anchor="middle" x="532" y="-436.15" font-family="Helvetica,sans-Serif" font-size="10.00">::basis</text>
</a>
</g>
</g>
<!-- Node2&#45;&gt;Node3 -->
<g id="edge2" class="edge">
<title>Node2&#45;&gt;Node3</title>
<path fill="none" stroke="midnightblue" d="M329.44,-333.44C352.55,-354.24 396.67,-391.43 440,-414.15 448.11,-418.4 456.95,-422.21 465.82,-425.58"/>
<polygon fill="midnightblue" stroke="midnightblue" points="464.83,-428.94 475.43,-429.05 467.21,-422.36 464.83,-428.94"/>
</g>
<!-- Node5 -->
<g id="node5" class="node">
<title>Node5</title>
<g id="a_node5"><a xlink:href="classpolyfem_1_1basis_1_1_r_b_f_with_quadratic.html#af027c7a81967196281bb067570c129c9" target="_top" xlink:title=" ">
<polygon fill="none" stroke="black" points="880,-393.15 880,-423.15 1064,-423.15 1064,-393.15 880,-393.15"/>
<text text-anchor="start" x="888" y="-411.15" font-family="Helvetica,sans-Serif" font-size="10.00">polyfem::basis::RBFWithQuadratic</text>
<text text-anchor="middle" x="972" y="-400.15" font-family="Helvetica,sans-Serif" font-size="10.00">::compute_kernels_matrix</text>
</a>
</g>
</g>
<!-- Node2&#45;&gt;Node5 -->
<g id="edge18" class="edge">
<title>Node2&#45;&gt;Node5</title>
<path fill="none" stroke="midnightblue" d="M347.88,-333.24C373.01,-343.43 407.99,-356.24 440,-363.15 587.18,-394.91 761.84,-404.47 869.55,-407.23"/>
<polygon fill="midnightblue" stroke="midnightblue" points="869.68,-410.73 879.76,-407.47 869.85,-403.73 869.68,-410.73"/>
</g>
<!-- Node6 -->
<g id="node6" class="node">
<title>Node6</title>
<g id="a_node6"><a xlink:href="classpolyfem_1_1basis_1_1_r_b_f_with_quadratic.html#a10e9128482791ec06df9e525c1bada8b" target="_top" xlink:title=" ">
<polygon fill="none" stroke="black" points="1100,-300.15 1100,-330.15 1284,-330.15 1284,-300.15 1100,-300.15"/>
<text text-anchor="start" x="1108" y="-318.15" font-family="Helvetica,sans-Serif" font-size="10.00">polyfem::basis::RBFWithQuadratic</text>
<text text-anchor="middle" x="1192" y="-307.15" font-family="Helvetica,sans-Serif" font-size="10.00">::is_volume</text>
</a>
</g>
</g>
<!-- Node2&#45;&gt;Node6 -->
<g id="edge22" class="edge">
<title>Node2&#45;&gt;Node6</title>
<path fill="none" stroke="midnightblue" d="M376.6,-303.12C396.75,-299.03 419.2,-295.18 440,-293.15 671.53,-270.58 944.95,-290.13 1089.53,-304.07"/>
<polygon fill="midnightblue" stroke="midnightblue" points="1089.42,-307.58 1099.71,-305.07 1090.1,-300.61 1089.42,-307.58"/>
</g>
<!-- Node7 -->
<g id="node7" class="node">
<title>Node7</title>
<g id="a_node7"><a xlink:href="classpolyfem_1_1basis_1_1_r_b_f_with_quadratic.html#a4a743a74284f7af70329fdada2b4d07e" target="_top" xlink:title=" ">
<polygon fill="none" stroke="black" points="440,-152.15 440,-182.15 624,-182.15 624,-152.15 440,-152.15"/>
<text text-anchor="start" x="448" y="-170.15" font-family="Helvetica,sans-Serif" font-size="10.00">polyfem::basis::RBFWithQuadratic</text>
<text text-anchor="middle" x="532" y="-159.15" font-family="Helvetica,sans-Serif" font-size="10.00">::compute_constraints_matrix_2d</text>
</a>
</g>
</g>
<!-- Node2&#45;&gt;Node7 -->
<g id="edge6" class="edge">
<title>Node2&#45;&gt;Node7</title>
<path fill="none" stroke="midnightblue" d="M334.7,-303.12C373.77,-276.05 456.04,-219.07 500.67,-188.16"/>
<polygon fill="midnightblue" stroke="midnightblue" points="502.84,-190.91 509.06,-182.34 498.85,-185.16 502.84,-190.91"/>
</g>
<!-- Node10 -->
<g id="node10" class="node">
<title>Node10</title>
<g id="a_node10"><a xlink:href="namespacepolyfem.html#a03f3d75072d2fd19f70cd886a51d10dd" target="_top" xlink:title="Retrieves the current logger.">
<polygon fill="none" stroke="black" points="1145,-40.65 1145,-59.65 1239,-59.65 1239,-40.65 1145,-40.65"/>
<text text-anchor="middle" x="1192" y="-47.65" font-family="Helvetica,sans-Serif" font-size="10.00">polyfem::logger</text>
</a>
</g>
</g>
<!-- Node2&#45;&gt;Node10 -->
<g id="edge23" class="edge">
<title>Node2&#45;&gt;Node10</title>
<path fill="none" stroke="midnightblue" d="M320.62,-303.11C337.9,-270.22 383.05,-190.93 440,-142.15 523.33,-70.77 553.92,-58.16 660,-30.15 833.66,15.71 885.6,0.64 1064,-20.15 1093.17,-23.55 1125.37,-31.2 1150.04,-37.92"/>
<polygon fill="midnightblue" stroke="midnightblue" points="1149.21,-41.32 1159.79,-40.63 1151.09,-34.58 1149.21,-41.32"/>
</g>
<!-- Node15 -->
<g id="node15" class="node">
<title>Node15</title>
<g id="a_node15"><a xlink:href="classpolyfem_1_1basis_1_1_r_b_f_with_quadratic.html#a77fe2f6a30da36a45ba5991e77e313fb" target="_top" xlink:title=" ">
<polygon fill="none" stroke="black" points="880,-344.15 880,-374.15 1064,-374.15 1064,-344.15 880,-344.15"/>
<text text-anchor="start" x="888" y="-362.15" font-family="Helvetica,sans-Serif" font-size="10.00">polyfem::basis::RBFWithQuadratic</text>
<text text-anchor="middle" x="972" y="-351.15" font-family="Helvetica,sans-Serif" font-size="10.00">::compute_constraints_matrix_3d</text>
</a>
</g>
</g>
<!-- Node2&#45;&gt;Node15 -->
<g id="edge16" class="edge">
<title>Node2&#45;&gt;Node15</title>
<path fill="none" stroke="midnightblue" d="M381.92,-333.18C400.67,-336.72 421.04,-340.07 440,-342.15 588.77,-358.49 762.28,-360.94 869.4,-360.55"/>
<polygon fill="midnightblue" stroke="midnightblue" points="869.57,-364.05 879.56,-360.51 869.54,-357.05 869.57,-364.05"/>
</g>
<!-- Node16 -->
<g id="node16" class="node">
<title>Node16</title>
<g id="a_node16"><a xlink:href="classpolyfem_1_1basis_1_1_r_b_f_with_quadratic.html#aecdf265e10eaa4c031447615db9c1e6f" target="_top" xlink:title="Evaluates the gradient of one RBF function over a list of coordinates.">
<polygon fill="none" stroke="black" points="440,-303.15 440,-333.15 624,-333.15 624,-303.15 440,-303.15"/>
<text text-anchor="start" x="448" y="-321.15" font-family="Helvetica,sans-Serif" font-size="10.00">polyfem::basis::RBFWithQuadratic</text>
<text text-anchor="middle" x="532" y="-310.15" font-family="Helvetica,sans-Serif" font-size="10.00">::grad</text>
</a>
</g>
</g>
<!-- Node2&#45;&gt;Node16 -->
<g id="edge19" class="edge">
<title>Node2&#45;&gt;Node16</title>
<path fill="none" stroke="midnightblue" d="M404.19,-318.15C412.57,-318.15 421.09,-318.15 429.55,-318.15"/>
<polygon fill="midnightblue" stroke="midnightblue" points="429.83,-321.65 439.83,-318.15 429.83,-314.65 429.83,-321.65"/>
</g>
<!-- Node4 -->
<g id="node4" class="node">
<title>Node4</title>
<g id="a_node4"><a xlink:href="classpolyfem_1_1basis_1_1_r_b_f_with_quadratic.html#a423295c4a8d424c9572f15221b4c52e8" target="_top" xlink:title="Batch evaluates the RBF + polynomials on a set of sample points.">
<polygon fill="none" stroke="black" points="660,-429.15 660,-459.15 844,-459.15 844,-429.15 660,-429.15"/>
<text text-anchor="start" x="668" y="-447.15" font-family="Helvetica,sans-Serif" font-size="10.00">polyfem::basis::RBFWithQuadratic</text>
<text text-anchor="middle" x="752" y="-436.15" font-family="Helvetica,sans-Serif" font-size="10.00">::bases_values</text>
</a>
</g>
</g>
<!-- Node3&#45;&gt;Node4 -->
<g id="edge3" class="edge">
<title>Node3&#45;&gt;Node4</title>
<path fill="none" stroke="midnightblue" d="M624.19,-444.15C632.57,-444.15 641.09,-444.15 649.55,-444.15"/>
<polygon fill="midnightblue" stroke="midnightblue" points="649.83,-447.65 659.83,-444.15 649.83,-440.65 649.83,-447.65"/>
</g>
<!-- Node4&#45;&gt;Node5 -->
<g id="edge4" class="edge">
<title>Node4&#45;&gt;Node5</title>
<path fill="none" stroke="midnightblue" d="M843.87,-429.14C852.44,-427.73 861.16,-426.29 869.81,-424.86"/>
<polygon fill="midnightblue" stroke="midnightblue" points="870.63,-428.27 879.92,-423.19 869.49,-421.36 870.63,-428.27"/>
</g>
<!-- Node5&#45;&gt;Node6 -->
<g id="edge5" class="edge">
<title>Node5&#45;&gt;Node6</title>
<path fill="none" stroke="midnightblue" d="M1035.29,-393.03C1045.02,-390.1 1054.87,-386.79 1064,-383.15 1097.1,-369.93 1132.7,-350.36 1157.76,-335.6"/>
<polygon fill="midnightblue" stroke="midnightblue" points="1159.69,-338.53 1166.49,-330.4 1156.11,-332.51 1159.69,-338.53"/>
</g>
<!-- Node7&#45;&gt;Node6 -->
<g id="edge8" class="edge">
<title>Node7&#45;&gt;Node6</title>
<path fill="none" stroke="midnightblue" d="M565.14,-182.23C590.38,-193.41 626.7,-208.06 660,-216.15 835.51,-258.79 889.39,-213.96 1064,-260.15 1095.31,-268.43 1128.85,-283.24 1153.6,-295.4"/>
<polygon fill="midnightblue" stroke="midnightblue" points="1152.12,-298.58 1162.63,-299.92 1155.25,-292.31 1152.12,-298.58"/>
</g>
<!-- Node8 -->
<g id="node8" class="node">
<title>Node8</title>
<g id="a_node8"><a xlink:href="classpolyfem_1_1assembler_1_1_assembler_utils.html#a4148ed000acf66ca2568327958346e92" target="_top" xlink:title=" ">
<polygon fill="none" stroke="black" points="695,-67.65 695,-108.65 809,-108.65 809,-67.65 695,-67.65"/>
<text text-anchor="start" x="703" y="-96.65" font-family="Helvetica,sans-Serif" font-size="10.00">polyfem::assembler</text>
<text text-anchor="start" x="703" y="-85.65" font-family="Helvetica,sans-Serif" font-size="10.00">::AssemblerUtils::is</text>
<text text-anchor="middle" x="752" y="-74.65" font-family="Helvetica,sans-Serif" font-size="10.00">_tensor</text>
</a>
</g>
</g>
<!-- Node7&#45;&gt;Node8 -->
<g id="edge7" class="edge">
<title>Node7&#45;&gt;Node8</title>
<path fill="none" stroke="midnightblue" d="M570.6,-152.07C595.78,-142.12 629.74,-128.97 660,-118.15 668.08,-115.26 676.6,-112.32 685.05,-109.46"/>
<polygon fill="midnightblue" stroke="midnightblue" points="686.17,-112.78 694.54,-106.28 683.95,-106.14 686.17,-112.78"/>
</g>
<!-- Node9 -->
<g id="node9" class="node">
<title>Node9</title>
<g id="a_node9"><a xlink:href="classpolyfem_1_1assembler_1_1_assembler_utils.html#af89a5ecea1a6e133a1227d1122305ef8" target="_top" xlink:title=" ">
<polygon fill="none" stroke="black" points="909,-29.65 909,-70.65 1035,-70.65 1035,-29.65 909,-29.65"/>
<text text-anchor="start" x="917" y="-58.65" font-family="Helvetica,sans-Serif" font-size="10.00">polyfem::assembler</text>
<text text-anchor="start" x="917" y="-47.65" font-family="Helvetica,sans-Serif" font-size="10.00">::AssemblerUtils::local</text>
<text text-anchor="middle" x="972" y="-36.65" font-family="Helvetica,sans-Serif" font-size="10.00">_assemble</text>
</a>
</g>
</g>
<!-- Node7&#45;&gt;Node9 -->
<g id="edge9" class="edge">
<title>Node7&#45;&gt;Node9</title>
<path fill="none" stroke="midnightblue" d="M544.65,-151.92C564.9,-126.83 609.29,-77.67 660,-58.15 737.39,-28.35 833.82,-31.42 898.61,-38.65"/>
<polygon fill="midnightblue" stroke="midnightblue" points="898.39,-42.15 908.73,-39.84 899.21,-35.19 898.39,-42.15"/>
</g>
<!-- Node11 -->
<g id="node11" class="node">
<title>Node11</title>
<g id="a_node11"><a xlink:href="classpolyfem_1_1basis_1_1_r_b_f_with_quadratic.html#ab5aff3ff452671e145858cf8e7d82fd4" target="_top" xlink:title=" ">
<polygon fill="none" stroke="black" points="660,-177.15 660,-207.15 844,-207.15 844,-177.15 660,-177.15"/>
<text text-anchor="start" x="668" y="-195.15" font-family="Helvetica,sans-Serif" font-size="10.00">polyfem::basis::RBFWithQuadratic</text>
<text text-anchor="middle" x="752" y="-184.15" font-family="Helvetica,sans-Serif" font-size="10.00">::setup_monomials_strong_2d</text>
</a>
</g>
</g>
<!-- Node7&#45;&gt;Node11 -->
<g id="edge11" class="edge">
<title>Node7&#45;&gt;Node11</title>
<path fill="none" stroke="midnightblue" d="M624.19,-177.61C632.66,-178.58 641.28,-179.57 649.83,-180.55"/>
<polygon fill="midnightblue" stroke="midnightblue" points="649.49,-184.03 659.83,-181.69 650.29,-177.08 649.49,-184.03"/>
</g>
<!-- Node14 -->
<g id="node14" class="node">
<title>Node14</title>
<g id="a_node14"><a xlink:href="classpolyfem_1_1basis_1_1_r_b_f_with_quadratic.html#a699276b593b76cf2523f9e2c995b33b6" target="_top" xlink:title=" ">
<polygon fill="none" stroke="black" points="660,-128.15 660,-158.15 844,-158.15 844,-128.15 660,-128.15"/>
<text text-anchor="start" x="668" y="-146.15" font-family="Helvetica,sans-Serif" font-size="10.00">polyfem::basis::RBFWithQuadratic</text>
<text text-anchor="middle" x="752" y="-135.15" font-family="Helvetica,sans-Serif" font-size="10.00">::setup_monomials_vals_2d</text>
</a>
</g>
</g>
<!-- Node7&#45;&gt;Node14 -->
<g id="edge15" class="edge">
<title>Node7&#45;&gt;Node14</title>
<path fill="none" stroke="midnightblue" d="M624.19,-157.11C632.66,-156.18 641.28,-155.23 649.83,-154.29"/>
<polygon fill="midnightblue" stroke="midnightblue" points="650.27,-157.76 659.83,-153.19 649.5,-150.8 650.27,-157.76"/>
</g>
<!-- Node9&#45;&gt;Node10 -->
<g id="edge10" class="edge">
<title>Node9&#45;&gt;Node10</title>
<path fill="none" stroke="midnightblue" d="M1035.18,-50.15C1066.5,-50.15 1104.19,-50.15 1134.65,-50.15"/>
<polygon fill="midnightblue" stroke="midnightblue" points="1134.69,-53.65 1144.69,-50.15 1134.69,-46.65 1134.69,-53.65"/>
</g>
<!-- Node12 -->
<g id="node12" class="node">
<title>Node12</title>
<g id="a_node12"><a xlink:href="classpolyfem_1_1assembler_1_1_assembler_utils.html#a74f032d63e9ded58875c38053b8ad0d0" target="_top" xlink:title=" ">
<polygon fill="none" stroke="black" points="889,-109.15 889,-139.15 1055,-139.15 1055,-109.15 889,-109.15"/>
<text text-anchor="start" x="897" y="-127.15" font-family="Helvetica,sans-Serif" font-size="10.00">polyfem::assembler</text>
<text text-anchor="middle" x="972" y="-116.15" font-family="Helvetica,sans-Serif" font-size="10.00">::AssemblerUtils::compute_rhs</text>
</a>
</g>
</g>
<!-- Node11&#45;&gt;Node12 -->
<g id="edge12" class="edge">
<title>Node11&#45;&gt;Node12</title>
<path fill="none" stroke="midnightblue" d="M809.94,-177.05C821.26,-173.9 833.03,-170.51 844,-167.15 868.83,-159.54 896.14,-150.4 919.05,-142.5"/>
<polygon fill="midnightblue" stroke="midnightblue" points="920.27,-145.78 928.58,-139.2 917.98,-139.17 920.27,-145.78"/>
</g>
<!-- Node13 -->
<g id="node13" class="node">
<title>Node13</title>
<g id="a_node13"><a xlink:href="struct_diff_scalar_base.html#a9ec9c3461abcd98164a36ba6f4e7dfb7" target="_top" xlink:title="Set the independent variable count used by the automatic differentiation layer.">
<polygon fill="none" stroke="black" points="897.5,-177.15 897.5,-207.15 1046.5,-207.15 1046.5,-177.15 897.5,-177.15"/>
<text text-anchor="start" x="905.5" y="-195.15" font-family="Helvetica,sans-Serif" font-size="10.00">DiffScalarBase::setVariable</text>
<text text-anchor="middle" x="972" y="-184.15" font-family="Helvetica,sans-Serif" font-size="10.00">Count</text>
</a>
</g>
</g>
<!-- Node11&#45;&gt;Node13 -->
<g id="edge14" class="edge">
<title>Node11&#45;&gt;Node13</title>
<path fill="none" stroke="midnightblue" d="M844.19,-192.15C858.46,-192.15 873.15,-192.15 887.24,-192.15"/>
<polygon fill="midnightblue" stroke="midnightblue" points="887.39,-195.65 897.39,-192.15 887.39,-188.65 887.39,-195.65"/>
</g>
<!-- Node12&#45;&gt;Node10 -->
<g id="edge13" class="edge">
<title>Node12&#45;&gt;Node10</title>
<path fill="none" stroke="midnightblue" d="M1017.38,-109.08C1057.38,-95.51 1115.54,-75.76 1153.33,-62.94"/>
<polygon fill="midnightblue" stroke="midnightblue" points="1154.6,-66.2 1162.94,-59.67 1152.35,-59.57 1154.6,-66.2"/>
</g>
<!-- Node15&#45;&gt;Node6 -->
<g id="edge17" class="edge">
<title>Node15&#45;&gt;Node6</title>
<path fill="none" stroke="midnightblue" d="M1047.41,-344.13C1066.51,-340.27 1087.19,-336.1 1106.75,-332.15"/>
<polygon fill="midnightblue" stroke="midnightblue" points="1107.44,-335.58 1116.55,-330.17 1106.06,-328.72 1107.44,-335.58"/>
</g>
<!-- Node17 -->
<g id="node17" class="node">
<title>Node17</title>
<g id="a_node17"><a xlink:href="classpolyfem_1_1basis_1_1_r_b_f_with_quadratic.html#a4f23527b0e433b12c941007b6623a099" target="_top" xlink:title="Batch evaluates the gradient of the RBF + polynomials on a set of sample points.">
<polygon fill="none" stroke="black" points="660,-303.15 660,-333.15 844,-333.15 844,-303.15 660,-303.15"/>
<text text-anchor="start" x="668" y="-321.15" font-family="Helvetica,sans-Serif" font-size="10.00">polyfem::basis::RBFWithQuadratic</text>
<text text-anchor="middle" x="752" y="-310.15" font-family="Helvetica,sans-Serif" font-size="10.00">::bases_grads</text>
</a>
</g>
</g>
<!-- Node16&#45;&gt;Node17 -->
<g id="edge20" class="edge">
<title>Node16&#45;&gt;Node17</title>
<path fill="none" stroke="midnightblue" d="M624.19,-318.15C632.57,-318.15 641.09,-318.15 649.55,-318.15"/>
<polygon fill="midnightblue" stroke="midnightblue" points="649.83,-321.65 659.83,-318.15 649.83,-314.65 649.83,-321.65"/>
</g>
<!-- Node17&#45;&gt;Node6 -->
<g id="edge21" class="edge">
<title>Node17&#45;&gt;Node6</title>
<path fill="none" stroke="midnightblue" d="M844.02,-317.52C915.6,-317.03 1015.27,-316.35 1089.43,-315.84"/>
<polygon fill="midnightblue" stroke="midnightblue" points="1089.75,-319.34 1099.72,-315.77 1089.7,-312.34 1089.75,-319.34"/>
</g>
</g>
</svg>
