<?xml version="1.0" encoding="UTF-8" standalone="no"?>
<!DOCTYPE svg PUBLIC "-//W3C//DTD SVG 1.1//EN"
 "http://www.w3.org/Graphics/SVG/1.1/DTD/svg11.dtd">
<!-- Generated by graphviz version 2.43.0 (0)
 -->
<!-- Title: polyfem::CubicHermiteSplineParametrization::eval Pages: 1 -->
<svg width="631pt" height="140pt"
 viewBox="0.00 0.00 631.00 139.50" xmlns="http://www.w3.org/2000/svg" xmlns:xlink="http://www.w3.org/1999/xlink">
<g id="graph0" class="graph" transform="scale(1 1) rotate(0) translate(4 135.5)">
<title>polyfem::CubicHermiteSplineParametrization::eval</title>
<!-- Node1 -->
<g id="Node000001" class="node">
<title>Node1</title>
<g id="a_Node000001"><a xlink:title=" ">
<polygon fill="#999999" stroke="#666666" points="623,-78 463,-78 463,-48 623,-48 623,-78"/>
<text text-anchor="start" x="471" y="-66" font-family="Helvetica,sans-Serif" font-size="10.00">polyfem::CubicHermiteSpline</text>
<text text-anchor="middle" x="543" y="-55" font-family="Helvetica,sans-Serif" font-size="10.00">Parametrization::eval</text>
</a>
</g>
</g>
<!-- Node2 -->
<g id="Node000002" class="node">
<title>Node2</title>
<g id="a_Node000002"><a xlink:href="classpolyfem_1_1_cubic_hermite_spline_parametrization.html#acbc6de144a6db73e10c031ae0f8c2dd4" target="_top" xlink:title=" ">
<polygon fill="white" stroke="#666666" points="427,-126 233,-126 233,-96 427,-96 427,-126"/>
<text text-anchor="start" x="241" y="-114" font-family="Helvetica,sans-Serif" font-size="10.00">polyfem::CubicHermiteSpline</text>
<text text-anchor="middle" x="330" y="-103" font-family="Helvetica,sans-Serif" font-size="10.00">Parametrization::find_nearest_spline</text>
</a>
</g>
</g>
<!-- Node1&#45;&gt;Node2 -->
<g id="edge1_Node000001_Node000002" class="edge">
<title>Node1&#45;&gt;Node2</title>
<g id="a_edge1_Node000001_Node000002"><a xlink:title=" ">
<path fill="none" stroke="#63b8ff" d="M465.94,-80.3C443.36,-85.44 418.83,-91.02 396.95,-96"/>
<polygon fill="#63b8ff" stroke="#63b8ff" points="466.84,-83.69 475.82,-78.06 465.29,-76.86 466.84,-83.69"/>
</a>
</g>
</g>
<!-- Node4 -->
<g id="Node000004" class="node">
<title>Node4</title>
<g id="a_Node000004"><a xlink:href="classpolyfem_1_1_cubic_hermite_spline_parametrization.html#abf3bf610218373ccd4f513ccfa3cb32f" target="_top" xlink:title=" ">
<polygon fill="white" stroke="#666666" points="410,-78 250,-78 250,-48 410,-48 410,-78"/>
<text text-anchor="start" x="258" y="-66" font-family="Helvetica,sans-Serif" font-size="10.00">polyfem::CubicHermiteSpline</text>
<text text-anchor="middle" x="330" y="-55" font-family="Helvetica,sans-Serif" font-size="10.00">Parametrization::gradient</text>
</a>
</g>
</g>
<!-- Node1&#45;&gt;Node4 -->
<g id="edge3_Node000001_Node000004" class="edge">
<title>Node1&#45;&gt;Node4</title>
<g id="a_edge3_Node000001_Node000004"><a xlink:title=" ">
<path fill="none" stroke="#63b8ff" d="M452.66,-63C438.58,-63 424.1,-63 410.26,-63"/>
<polygon fill="#63b8ff" stroke="#63b8ff" points="452.83,-66.5 462.83,-63 452.83,-59.5 452.83,-66.5"/>
</a>
</g>
</g>
<!-- Node5 -->
<g id="Node000005" class="node">
<title>Node5</title>
<g id="a_Node000005"><a xlink:href="classpolyfem_1_1_cubic_hermite_spline_parametrization.html#ac3ff18eb586112316856cbcba658293e" target="_top" xlink:title=" ">
<polygon fill="white" stroke="#666666" points="414.5,-30 245.5,-30 245.5,0 414.5,0 414.5,-30"/>
<text text-anchor="start" x="253.5" y="-18" font-family="Helvetica,sans-Serif" font-size="10.00">polyfem::CubicHermiteSpline</text>
<text text-anchor="middle" x="330" y="-7" font-family="Helvetica,sans-Serif" font-size="10.00">Parametrization::reparametrize</text>
</a>
</g>
</g>
<!-- Node1&#45;&gt;Node5 -->
<g id="edge4_Node000001_Node000005" class="edge">
<title>Node1&#45;&gt;Node5</title>
<g id="a_edge4_Node000001_Node000005"><a xlink:title=" ">
<path fill="none" stroke="#63b8ff" d="M465.94,-45.7C443.36,-40.56 418.83,-34.98 396.95,-30"/>
<polygon fill="#63b8ff" stroke="#63b8ff" points="465.29,-49.14 475.82,-47.94 466.84,-42.31 465.29,-49.14"/>
</a>
</g>
</g>
<!-- Node3 -->
<g id="Node000003" class="node">
<title>Node3</title>
<g id="a_Node000003"><a xlink:href="classpolyfem_1_1_cubic_hermite_spline_parametrization.html#ab11e83727163006e564f675ff5e1c079" target="_top" xlink:title=" ">
<polygon fill="white" stroke="#666666" points="197,-131.5 0,-131.5 0,-90.5 197,-90.5 197,-131.5"/>
<text text-anchor="start" x="8" y="-119.5" font-family="Helvetica,sans-Serif" font-size="10.00">polyfem::CubicHermiteSpline</text>
<text text-anchor="start" x="8" y="-108.5" font-family="Helvetica,sans-Serif" font-size="10.00">Parametrization::CubicHermiteSpline</text>
<text text-anchor="middle" x="98.5" y="-97.5" font-family="Helvetica,sans-Serif" font-size="10.00">Parametrization</text>
</a>
</g>
</g>
<!-- Node2&#45;&gt;Node3 -->
<g id="edge2_Node000002_Node000003" class="edge">
<title>Node2&#45;&gt;Node3</title>
<g id="a_edge2_Node000002_Node000003"><a xlink:title=" ">
<path fill="none" stroke="#63b8ff" d="M222.4,-111C213.95,-111 205.44,-111 197.06,-111"/>
<polygon fill="#63b8ff" stroke="#63b8ff" points="222.67,-114.5 232.67,-111 222.67,-107.5 222.67,-114.5"/>
</a>
</g>
</g>
</g>
</svg>
