<?xml version="1.0" encoding="UTF-8" standalone="no"?>
<!DOCTYPE svg PUBLIC "-//W3C//DTD SVG 1.1//EN"
 "http://www.w3.org/Graphics/SVG/1.1/DTD/svg11.dtd">
<!-- Generated by graphviz version 2.43.0 (0)
 -->
<!-- Title: polyfem::solver::SpatialIntegralForm::compute_adjoint_rhs_step Pages: 1 -->
<!--zoomable 429 -->

<svg id="main" version="1.1" xmlns="http://www.w3.org/2000/svg" xmlns:xlink="http://www.w3.org/1999/xlink" xml:space="preserve" onload="init(evt)">
<style type="text/css"><![CDATA[
.node, .edge {opacity: 0.7;}
.node.selected, .edge.selected {opacity: 1;}
.edge:hover path { stroke: red; }
.edge:hover polygon { stroke: red; fill: red; }
]]></style>

<defs>
  <circle id="rim" cx="0" cy="0" r="7"/>
  <circle id="rim2" cx="0" cy="0" r="3.5"/>
  <g id="zoomPlus">
    <use xlink:href="#rim" fill="#404040"><set attributeName="fill" to="#808080" begin="zoomplus.mouseover" end="zoomplus.mouseout"/></use>
    <path d="M-4,0h8M0,-4v8" fill="none" stroke="white" stroke-width="1.5" pointer-events="none"/>
  </g>
  <g id="zoomMin">
    <use xlink:href="#rim" fill="#404040"><set attributeName="fill" to="#808080" begin="zoomminus.mouseover" end="zoomminus.mouseout"/></use>
    <path d="M-4,0h8" fill="none" stroke="white" stroke-width="1.5" pointer-events="none"/>
  </g>
  <g id="arrowUp" transform="translate(30 24)">
    <use xlink:href="#rim"/>
    <path pointer-events="none" fill="none" stroke="white" stroke-width="1.5" d="M0,-3.0v7 M-2.5,-0.5L0,-3.0L2.5,-0.5"/>
  </g>
  <g id="arrowRight" transform="rotate(90) translate(36 -43)">
    <use xlink:href="#rim"/>
    <path pointer-events="none" fill="none" stroke="white" stroke-width="1.5" d="M0,-3.0v7 M-2.5,-0.5L0,-3.0L2.5,-0.5"/>
  </g>
  <g id="arrowDown" transform="rotate(180) translate(-30 -48)">
    <use xlink:href="#rim"/>
    <path pointer-events="none" fill="none" stroke="white" stroke-width="1.5" d="M0,-3.0v7 M-2.5,-0.5L0,-3.0L2.5,-0.5"/>
  </g>
  <g id="arrowLeft" transform="rotate(270) translate(-36 17)">
    <use xlink:href="#rim"/>
    <path pointer-events="none" fill="none" stroke="white" stroke-width="1.5" d="M0,-3.0v7 M-2.5,-0.5L0,-3.0L2.5,-0.5"/>
  </g>
  <g id="resetDef">
    <use xlink:href="#rim2" fill="#404040"><set attributeName="fill" to="#808080" begin="reset.mouseover" end="reset.mouseout"/></use>
  </g>
</defs>
<script type="application/ecmascript">
var viewWidth = 867;
var viewHeight = 429;
var sectionId = 'dynsection-2';
</script>
<script type="application/ecmascript" xlink:href="svg.min.js"/>
<svg id="graph" class="graph">
<g id="viewport">
<title>polyfem::solver::SpatialIntegralForm::compute_adjoint_rhs_step</title>
<!-- Node1 -->
<g id="Node000001" class="node">
<title>Node1</title>
<g id="a_Node000001"><a xlink:title=" ">
<polygon fill="#999999" stroke="#666666" points="133,-135.5 0,-135.5 0,-94.5 133,-94.5 133,-135.5"/>
<text text-anchor="start" x="8" y="-123.5" font-family="Helvetica,sans-Serif" font-size="10.00">polyfem::solver::Spatial</text>
<text text-anchor="start" x="8" y="-112.5" font-family="Helvetica,sans-Serif" font-size="10.00">IntegralForm::compute</text>
<text text-anchor="middle" x="66.5" y="-101.5" font-family="Helvetica,sans-Serif" font-size="10.00">_adjoint_rhs_step</text>
</a>
</g>
</g>
<!-- Node2 -->
<g id="Node000002" class="node">
<title>Node2</title>
<g id="a_Node000002"><a xlink:href="namespacepolyfem_1_1solver_1_1_adjoint_tools.html#afd1c5f4891c34a48045ce552f6f28e3f" target="_top" xlink:title=" ">
<polygon fill="white" stroke="#666666" points="307.5,-258 173.5,-258 173.5,-228 307.5,-228 307.5,-258"/>
<text text-anchor="start" x="181.5" y="-246" font-family="Helvetica,sans-Serif" font-size="10.00">polyfem::solver::Adjoint</text>
<text text-anchor="middle" x="240.5" y="-235" font-family="Helvetica,sans-Serif" font-size="10.00">Tools::dJ_du_step</text>
</a>
</g>
</g>
<!-- Node1&#45;&gt;Node2 -->
<g id="edge1_Node000001_Node000002" class="edge">
<title>Node1&#45;&gt;Node2</title>
<g id="a_edge1_Node000001_Node000002"><a xlink:title=" ">
<path fill="none" stroke="#63b8ff" d="M85.22,-135.76C104.23,-157.06 136.16,-190.08 169,-212 175.27,-216.18 182.2,-220.03 189.19,-223.48"/>
<polygon fill="#63b8ff" stroke="#63b8ff" points="188.16,-226.87 198.7,-227.94 191.13,-220.53 188.16,-226.87"/>
</a>
</g>
</g>
<!-- Node13 -->
<g id="Node000013" class="node">
<title>Node13</title>
<g id="a_Node000013"><a xlink:href="classpolyfem_1_1solver_1_1_spatial_integral_form.html#ac6f9bf7bd979734dad72425a8a48cc65" target="_top" xlink:title=" ">
<polygon fill="white" stroke="#666666" points="312,-202.5 169,-202.5 169,-161.5 312,-161.5 312,-202.5"/>
<text text-anchor="start" x="177" y="-190.5" font-family="Helvetica,sans-Serif" font-size="10.00">polyfem::solver::Spatial</text>
<text text-anchor="start" x="177" y="-179.5" font-family="Helvetica,sans-Serif" font-size="10.00">IntegralForm::get_integral</text>
<text text-anchor="middle" x="240.5" y="-168.5" font-family="Helvetica,sans-Serif" font-size="10.00">_functional</text>
</a>
</g>
</g>
<!-- Node1&#45;&gt;Node13 -->
<g id="edge12_Node000001_Node000013" class="edge">
<title>Node1&#45;&gt;Node13</title>
<g id="a_edge12_Node000001_Node000013"><a xlink:title=" ">
<path fill="none" stroke="#63b8ff" d="M120.51,-135.65C138.41,-142.62 158.56,-150.47 177.13,-157.7"/>
<polygon fill="#63b8ff" stroke="#63b8ff" points="176.08,-161.05 186.67,-161.42 178.62,-154.53 176.08,-161.05"/>
</a>
</g>
</g>
<!-- Node14 -->
<g id="Node000014" class="node">
<title>Node14</title>
<g id="a_Node000014"><a xlink:href="classpolyfem_1_1_state.html#acbf1bd51beeb042d38c595223fe348a5" target="_top" xlink:title=" ">
<polygon fill="white" stroke="#666666" points="298.5,-143.5 182.5,-143.5 182.5,-124.5 298.5,-124.5 298.5,-143.5"/>
<text text-anchor="middle" x="240.5" y="-131.5" font-family="Helvetica,sans-Serif" font-size="10.00">polyfem::State::ndof</text>
</a>
</g>
</g>
<!-- Node1&#45;&gt;Node14 -->
<g id="edge13_Node000001_Node000014" class="edge">
<title>Node1&#45;&gt;Node14</title>
<g id="a_edge13_Node000001_Node000014"><a xlink:title=" ">
<path fill="none" stroke="#63b8ff" d="M133.02,-122.24C145.83,-123.65 159.28,-125.14 172.15,-126.56"/>
<polygon fill="#63b8ff" stroke="#63b8ff" points="172,-130.06 182.32,-127.68 172.76,-123.11 172,-130.06"/>
</a>
</g>
</g>
<!-- Node15 -->
<g id="Node000015" class="node">
<title>Node15</title>
<g id="a_Node000015"><a xlink:href="classpolyfem_1_1_diff_cache.html#a1e6bc7e6f43aa2345c444fd4cd69865f" target="_top" xlink:title=" ">
<polygon fill="white" stroke="#666666" points="484.5,-73 374.5,-73 374.5,-43 484.5,-43 484.5,-73"/>
<text text-anchor="start" x="382.5" y="-61" font-family="Helvetica,sans-Serif" font-size="10.00">polyfem::DiffCache</text>
<text text-anchor="middle" x="429.5" y="-50" font-family="Helvetica,sans-Serif" font-size="10.00">::size</text>
</a>
</g>
</g>
<!-- Node1&#45;&gt;Node15 -->
<g id="edge14_Node000001_Node000015" class="edge">
<title>Node1&#45;&gt;Node15</title>
<g id="a_edge14_Node000001_Node000015"><a xlink:title=" ">
<path fill="none" stroke="#63b8ff" d="M133.29,-104.61C198.93,-94.25 299.11,-78.43 364.21,-68.15"/>
<polygon fill="#63b8ff" stroke="#63b8ff" points="365.02,-71.57 374.35,-66.55 363.92,-64.65 365.02,-71.57"/>
</a>
</g>
</g>
<!-- Node16 -->
<g id="Node000016" class="node">
<title>Node16</title>
<g id="a_Node000016"><a xlink:href="classpolyfem_1_1_diff_cache.html#ae435a8a411044eed52863349c48200c6" target="_top" xlink:title=" ">
<polygon fill="white" stroke="#666666" points="301.5,-67.5 179.5,-67.5 179.5,-48.5 301.5,-48.5 301.5,-67.5"/>
<text text-anchor="middle" x="240.5" y="-55.5" font-family="Helvetica,sans-Serif" font-size="10.00">polyfem::DiffCache::u</text>
</a>
</g>
</g>
<!-- Node1&#45;&gt;Node16 -->
<g id="edge15_Node000001_Node000016" class="edge">
<title>Node1&#45;&gt;Node16</title>
<g id="a_edge15_Node000001_Node000016"><a xlink:title=" ">
<path fill="none" stroke="#63b8ff" d="M129.6,-94.42C153.52,-86.49 180.12,-77.68 201.17,-70.7"/>
<polygon fill="#63b8ff" stroke="#63b8ff" points="202.32,-74.01 210.71,-67.54 200.12,-67.36 202.32,-74.01"/>
</a>
</g>
</g>
<!-- Node17 -->
<g id="Node000017" class="node">
<title>Node17</title>
<g id="a_Node000017"><a xlink:href="classpolyfem_1_1solver_1_1_form.html#a9cffeca817d2f65884dbdb0b05dbf8ae" target="_top" xlink:title="Get the form&#39;s multiplicative constant weight.">
<polygon fill="white" stroke="#666666" points="302.5,-30 178.5,-30 178.5,0 302.5,0 302.5,-30"/>
<text text-anchor="start" x="186.5" y="-18" font-family="Helvetica,sans-Serif" font-size="10.00">polyfem::solver::Form</text>
<text text-anchor="middle" x="240.5" y="-7" font-family="Helvetica,sans-Serif" font-size="10.00">::weight</text>
</a>
</g>
</g>
<!-- Node1&#45;&gt;Node17 -->
<g id="edge17_Node000001_Node000017" class="edge">
<title>Node1&#45;&gt;Node17</title>
<g id="a_edge17_Node000001_Node000017"><a xlink:title=" ">
<path fill="none" stroke="#63b8ff" d="M90.67,-94.29C110.36,-77.54 139.99,-54.3 169,-39 172.44,-37.19 176.04,-35.47 179.73,-33.84"/>
<polygon fill="#63b8ff" stroke="#63b8ff" points="181.09,-37.07 189,-30.02 178.42,-30.6 181.09,-37.07"/>
</a>
</g>
</g>
<!-- Node3 -->
<g id="Node000003" class="node">
<title>Node3</title>
<g id="a_Node000003"><a xlink:href="classpolyfem_1_1assembler_1_1_assembly_vals_cache.html#ae6a71006ed00c05812b65401a1c37d5c" target="_top" xlink:title="retrieves cached basis evaluation and geometric for the given element if it doesn&#39;t exist,...">
<polygon fill="white" stroke="#666666" points="490,-420.5 369,-420.5 369,-379.5 490,-379.5 490,-420.5"/>
<text text-anchor="start" x="377" y="-408.5" font-family="Helvetica,sans-Serif" font-size="10.00">polyfem::assembler</text>
<text text-anchor="start" x="377" y="-397.5" font-family="Helvetica,sans-Serif" font-size="10.00">::AssemblyValsCache</text>
<text text-anchor="middle" x="429.5" y="-386.5" font-family="Helvetica,sans-Serif" font-size="10.00">::compute</text>
</a>
</g>
</g>
<!-- Node2&#45;&gt;Node3 -->
<g id="edge2_Node000002_Node000003" class="edge">
<title>Node2&#45;&gt;Node3</title>
<g id="a_edge2_Node000002_Node000003"><a xlink:title=" ">
<path fill="none" stroke="#63b8ff" d="M250.44,-258.1C266.7,-284.36 303.58,-338.63 348,-370 351.66,-372.59 355.58,-374.98 359.63,-377.19"/>
<polygon fill="#63b8ff" stroke="#63b8ff" points="358.18,-380.38 368.68,-381.73 361.32,-374.12 358.18,-380.38"/>
</a>
</g>
</g>
<!-- Node5 -->
<g id="Node000005" class="node">
<title>Node5</title>
<g id="a_Node000005"><a xlink:href="classpolyfem_1_1_integrable_functional.html#a54c5ab6e7a025f2018e96ece8a253121" target="_top" xlink:title=" ">
<polygon fill="white" stroke="#666666" points="511,-361 348,-361 348,-331 511,-331 511,-361"/>
<text text-anchor="start" x="356" y="-349" font-family="Helvetica,sans-Serif" font-size="10.00">polyfem::IntegrableFunctional</text>
<text text-anchor="middle" x="429.5" y="-338" font-family="Helvetica,sans-Serif" font-size="10.00">::depend_on_gradu</text>
</a>
</g>
</g>
<!-- Node2&#45;&gt;Node5 -->
<g id="edge4_Node000002_Node000005" class="edge">
<title>Node2&#45;&gt;Node5</title>
<g id="a_edge4_Node000002_Node000005"><a xlink:title=" ">
<path fill="none" stroke="#63b8ff" d="M257.99,-258.14C277.94,-275.74 313.21,-304.59 348,-322 351.74,-323.87 355.66,-325.63 359.66,-327.27"/>
<polygon fill="#63b8ff" stroke="#63b8ff" points="358.52,-330.58 369.11,-330.88 361.02,-324.04 358.52,-330.58"/>
</a>
</g>
</g>
<!-- Node6 -->
<g id="Node000006" class="node">
<title>Node6</title>
<g id="a_Node000006"><a xlink:href="classpolyfem_1_1_integrable_functional.html#a1bc7359467470e15523c0b91c9f42834" target="_top" xlink:title=" ">
<polygon fill="white" stroke="#666666" points="511,-313 348,-313 348,-283 511,-283 511,-313"/>
<text text-anchor="start" x="356" y="-301" font-family="Helvetica,sans-Serif" font-size="10.00">polyfem::IntegrableFunctional</text>
<text text-anchor="middle" x="429.5" y="-290" font-family="Helvetica,sans-Serif" font-size="10.00">::depend_on_gradu_local</text>
</a>
</g>
</g>
<!-- Node2&#45;&gt;Node6 -->
<g id="edge5_Node000002_Node000006" class="edge">
<title>Node2&#45;&gt;Node6</title>
<g id="a_edge5_Node000002_Node000006"><a xlink:title=" ">
<path fill="none" stroke="#63b8ff" d="M292.6,-258.03C315.79,-264.85 343.4,-272.97 367.65,-280.1"/>
<polygon fill="#63b8ff" stroke="#63b8ff" points="366.88,-283.53 377.46,-282.99 368.86,-276.81 366.88,-283.53"/>
</a>
</g>
</g>
<!-- Node7 -->
<g id="Node000007" class="node">
<title>Node7</title>
<g id="a_Node000007"><a xlink:href="classpolyfem_1_1_integrable_functional.html#a3f6a82f9e52b76ddc73c4cf32d18dddc" target="_top" xlink:title=" ">
<polygon fill="white" stroke="#666666" points="511,-265 348,-265 348,-235 511,-235 511,-265"/>
<text text-anchor="start" x="356" y="-253" font-family="Helvetica,sans-Serif" font-size="10.00">polyfem::IntegrableFunctional</text>
<text text-anchor="middle" x="429.5" y="-242" font-family="Helvetica,sans-Serif" font-size="10.00">::depend_on_u</text>
</a>
</g>
</g>
<!-- Node2&#45;&gt;Node7 -->
<g id="edge6_Node000002_Node000007" class="edge">
<title>Node2&#45;&gt;Node7</title>
<g id="a_edge6_Node000002_Node000007"><a xlink:title=" ">
<path fill="none" stroke="#63b8ff" d="M307.69,-245.48C317.46,-245.84 327.67,-246.23 337.83,-246.61"/>
<polygon fill="#63b8ff" stroke="#63b8ff" points="337.84,-250.11 347.96,-246.99 338.1,-243.11 337.84,-250.11"/>
</a>
</g>
</g>
<!-- Node8 -->
<g id="Node000008" class="node">
<title>Node8</title>
<g id="a_Node000008"><a xlink:href="classpolyfem_1_1_integrable_functional.html#a87ed851b104868cbbea8c4e09abee313" target="_top" xlink:title=" ">
<polygon fill="white" stroke="#666666" points="511,-217 348,-217 348,-187 511,-187 511,-217"/>
<text text-anchor="start" x="356" y="-205" font-family="Helvetica,sans-Serif" font-size="10.00">polyfem::IntegrableFunctional</text>
<text text-anchor="middle" x="429.5" y="-194" font-family="Helvetica,sans-Serif" font-size="10.00">::dj_dgradu</text>
</a>
</g>
</g>
<!-- Node2&#45;&gt;Node8 -->
<g id="edge7_Node000002_Node000008" class="edge">
<title>Node2&#45;&gt;Node8</title>
<g id="a_edge7_Node000002_Node000008"><a xlink:title=" ">
<path fill="none" stroke="#63b8ff" d="M307.69,-228.49C321.3,-225.5 335.76,-222.33 349.77,-219.26"/>
<polygon fill="#63b8ff" stroke="#63b8ff" points="350.85,-222.61 359.87,-217.05 349.35,-215.77 350.85,-222.61"/>
</a>
</g>
</g>
<!-- Node9 -->
<g id="Node000009" class="node">
<title>Node9</title>
<g id="a_Node000009"><a xlink:href="classpolyfem_1_1_integrable_functional.html#a5424a9cf6b2e8647ccc0d50e5bab2917" target="_top" xlink:title=" ">
<polygon fill="white" stroke="#666666" points="511,-169 348,-169 348,-139 511,-139 511,-169"/>
<text text-anchor="start" x="356" y="-157" font-family="Helvetica,sans-Serif" font-size="10.00">polyfem::IntegrableFunctional</text>
<text text-anchor="middle" x="429.5" y="-146" font-family="Helvetica,sans-Serif" font-size="10.00">::dj_du</text>
</a>
</g>
</g>
<!-- Node2&#45;&gt;Node9 -->
<g id="edge8_Node000002_Node000009" class="edge">
<title>Node2&#45;&gt;Node9</title>
<g id="a_edge8_Node000002_Node000009"><a xlink:title=" ">
<path fill="none" stroke="#63b8ff" d="M282.27,-227.9C292.35,-223.42 302.86,-218.06 312,-212 330.34,-199.84 328.94,-189 348,-178 351.06,-176.23 354.26,-174.59 357.56,-173.05"/>
<polygon fill="#63b8ff" stroke="#63b8ff" points="359.19,-176.16 367.02,-169.02 356.44,-169.72 359.19,-176.16"/>
</a>
</g>
</g>
<!-- Node10 -->
<g id="Node000010" class="node">
<title>Node10</title>
<g id="a_Node000010"><a xlink:href="classpolyfem_1_1_state.html#a106191fffa5a7be86713ae76fb6d5053" target="_top" xlink:title="Get a constant reference to the geometry mapping bases.">
<polygon fill="white" stroke="#666666" points="490.5,-121 368.5,-121 368.5,-91 490.5,-91 490.5,-121"/>
<text text-anchor="start" x="376.5" y="-109" font-family="Helvetica,sans-Serif" font-size="10.00">polyfem::State::geom</text>
<text text-anchor="middle" x="429.5" y="-98" font-family="Helvetica,sans-Serif" font-size="10.00">_bases</text>
</a>
</g>
</g>
<!-- Node2&#45;&gt;Node10 -->
<g id="edge9_Node000002_Node000010" class="edge">
<title>Node2&#45;&gt;Node10</title>
<g id="a_edge9_Node000002_Node000010"><a xlink:title=" ">
<path fill="none" stroke="#63b8ff" d="M288.96,-227.99C297.35,-223.79 305.48,-218.53 312,-212 340.14,-183.85 318.17,-156.35 348,-130 351.41,-126.99 355.19,-124.35 359.19,-122.05"/>
<polygon fill="#63b8ff" stroke="#63b8ff" points="360.88,-125.11 368.26,-117.51 357.75,-118.85 360.88,-125.11"/>
</a>
</g>
</g>
<!-- Node4 -->
<g id="Node000004" class="node">
<title>Node4</title>
<g id="a_Node000004"><a xlink:href="classpolyfem_1_1basis_1_1_element_bases.html#a1eb3299faf0fce0b170d524017874af3" target="_top" xlink:title=" ">
<polygon fill="white" stroke="#666666" points="711,-415 547,-415 547,-385 711,-385 711,-415"/>
<text text-anchor="start" x="555" y="-403" font-family="Helvetica,sans-Serif" font-size="10.00">polyfem::basis::ElementBases</text>
<text text-anchor="middle" x="629" y="-392" font-family="Helvetica,sans-Serif" font-size="10.00">::compute_mass_quadrature</text>
</a>
</g>
</g>
<!-- Node3&#45;&gt;Node4 -->
<g id="edge3_Node000003_Node000004" class="edge">
<title>Node3&#45;&gt;Node4</title>
<g id="a_edge3_Node000003_Node000004"><a xlink:title=" ">
<path fill="none" stroke="#63b8ff" d="M490.02,-400C504.65,-400 520.65,-400 536.41,-400"/>
<polygon fill="#63b8ff" stroke="#63b8ff" points="536.71,-403.5 546.71,-400 536.71,-396.5 536.71,-403.5"/>
</a>
</g>
</g>
<!-- Node11 -->
<g id="Node000011" class="node">
<title>Node11</title>
<g id="a_Node000011"><a xlink:href="classpolyfem_1_1_state.html#ab956f7e3ad92b7ffc1ca1a45ee47903f" target="_top" xlink:title="check if using iso parametric bases">
<polygon fill="white" stroke="#666666" points="683.5,-121 574.5,-121 574.5,-91 683.5,-91 683.5,-121"/>
<text text-anchor="start" x="582.5" y="-109" font-family="Helvetica,sans-Serif" font-size="10.00">polyfem::State::iso</text>
<text text-anchor="middle" x="629" y="-98" font-family="Helvetica,sans-Serif" font-size="10.00">_parametric</text>
</a>
</g>
</g>
<!-- Node10&#45;&gt;Node11 -->
<g id="edge10_Node000010_Node000011" class="edge">
<title>Node10&#45;&gt;Node11</title>
<g id="a_edge10_Node000010_Node000011"><a xlink:title=" ">
<path fill="none" stroke="#63b8ff" d="M490.56,-106C513.79,-106 540.42,-106 564.01,-106"/>
<polygon fill="#63b8ff" stroke="#63b8ff" points="564.26,-109.5 574.26,-106 564.26,-102.5 564.26,-109.5"/>
</a>
</g>
</g>
<!-- Node12 -->
<g id="Node000012" class="node">
<title>Node12</title>
<g id="a_Node000012"><a xlink:href="classpolyfem_1_1_state.html#a7447e954de5980b45223f7cf49738073" target="_top" xlink:title=" ">
<polygon fill="white" stroke="#666666" points="859,-121 747,-121 747,-91 859,-91 859,-121"/>
<text text-anchor="start" x="755" y="-109" font-family="Helvetica,sans-Serif" font-size="10.00">polyfem::State::has</text>
<text text-anchor="middle" x="803" y="-98" font-family="Helvetica,sans-Serif" font-size="10.00">_periodic_bc</text>
</a>
</g>
</g>
<!-- Node11&#45;&gt;Node12 -->
<g id="edge11_Node000011_Node000012" class="edge">
<title>Node11&#45;&gt;Node12</title>
<g id="a_edge11_Node000011_Node000012"><a xlink:title=" ">
<path fill="none" stroke="#63b8ff" d="M683.95,-106C700.67,-106 719.27,-106 736.68,-106"/>
<polygon fill="#63b8ff" stroke="#63b8ff" points="736.76,-109.5 746.76,-106 736.76,-102.5 736.76,-109.5"/>
</a>
</g>
</g>
<!-- Node16&#45;&gt;Node15 -->
<g id="edge16_Node000016_Node000015" class="edge">
<title>Node16&#45;&gt;Node15</title>
<g id="a_edge16_Node000016_Node000015"><a xlink:title=" ">
<path fill="none" stroke="#63b8ff" d="M301.7,-58C321.7,-58 344.04,-58 364.33,-58"/>
<polygon fill="#63b8ff" stroke="#63b8ff" points="364.42,-61.5 374.42,-58 364.42,-54.5 364.42,-61.5"/>
</a>
</g>
</g>
</g>
</svg>

<g id="navigator" transform="translate(0 0)" fill="#404254">
  <rect fill="#f2f5e9" fill-opacity="0.5" stroke="#606060" stroke-width=".5" x="0" y="0" width="60" height="60"/>
  <use id="zoomplus" xlink:href="#zoomPlus" x="17" y="9" onmousedown="handleZoom(evt,'in')"/>
  <use id="zoomminus" xlink:href="#zoomMin" x="42" y="9" onmousedown="handleZoom(evt,'out')"/>
  <use id="reset" xlink:href="#resetDef" x="30" y="36" onmousedown="handleReset()"/>
   <use id="arrowup" xlink:href="#arrowUp" x="0" y="0" onmousedown="handlePan(0,-1)"/>
  <use id="arrowright" xlink:href="#arrowRight" x="0" y="0" onmousedown="handlePan(1,0)"/>
  <use id="arrowdown" xlink:href="#arrowDown" x="0" y="0" onmousedown="handlePan(0,1)"/>
  <use id="arrowleft" xlink:href="#arrowLeft" x="0" y="0" onmousedown="handlePan(-1,0)"/>
</g>
<svg viewBox="0 0 15 15" width="100%" height="30px" preserveAspectRatio="xMaxYMin meet">
 <g id="arrow_out" transform="scale(0.3 0.3)">
  <a xlink:href="classpolyfem_1_1solver_1_1_spatial_integral_form_af5c58a36edb82155d7214621f6db4fb4_cgraph_org.svg" target="_base">
   <rect id="button" ry="5" rx="5" y="6" x="6" height="38" width="38"
        fill="#f2f5e9" fill-opacity="0.5" stroke="#606060" stroke-width="1.0"/>
   <path id="arrow"
     d="M 11.500037,31.436501 C 11.940474,20.09759 22.043105,11.32322 32.158766,21.979434 L 37.068811,17.246167 C 37.068811,17.246167 37.088388,32 37.088388,32 L 22.160133,31.978069 C 22.160133,31.978069 26.997745,27.140456 26.997745,27.140456 C 18.528582,18.264221 13.291696,25.230495 11.500037,31.436501 z"
     style="fill:#404040;"/>
  </a>
 </g>
</svg>

<style type='text/css'>
<![CDATA[
[data-mouse-over-selected='false'] { opacity: 0.7; }
[data-mouse-over-selected='true']  { opacity: 1.0; }
]]>
</style>
<script type="application/ecmascript"><![CDATA[
document.addEventListener('DOMContentLoaded', (event) => {
  highlightEdges();
  highlightAdjacentNodes();
});
]]></script>
</svg>
