<?xml version="1.0" encoding="UTF-8" standalone="no"?>
<!DOCTYPE svg PUBLIC "-//W3C//DTD SVG 1.1//EN"
 "http://www.w3.org/Graphics/SVG/1.1/DTD/svg11.dtd">
<!-- Generated by graphviz version 2.43.0 (0)
 -->
<!-- Title: polyfem::assembler::AssemblyValsCache::init Pages: 1 -->
<!--zoomable 268 -->

<svg id="main" version="1.1" xmlns="http://www.w3.org/2000/svg" xmlns:xlink="http://www.w3.org/1999/xlink" xml:space="preserve" onload="init(evt)">
<style type="text/css"><![CDATA[
.node, .edge {opacity: 0.7;}
.node.selected, .edge.selected {opacity: 1;}
.edge:hover path { stroke: red; }
.edge:hover polygon { stroke: red; fill: red; }
]]></style>

<defs>
  <circle id="rim" cx="0" cy="0" r="7"/>
  <circle id="rim2" cx="0" cy="0" r="3.5"/>
  <g id="zoomPlus">
    <use xlink:href="#rim" fill="#404040"><set attributeName="fill" to="#808080" begin="zoomplus.mouseover" end="zoomplus.mouseout"/></use>
    <path d="M-4,0h8M0,-4v8" fill="none" stroke="white" stroke-width="1.5" pointer-events="none"/>
  </g>
  <g id="zoomMin">
    <use xlink:href="#rim" fill="#404040"><set attributeName="fill" to="#808080" begin="zoomminus.mouseover" end="zoomminus.mouseout"/></use>
    <path d="M-4,0h8" fill="none" stroke="white" stroke-width="1.5" pointer-events="none"/>
  </g>
  <g id="arrowUp" transform="translate(30 24)">
    <use xlink:href="#rim"/>
    <path pointer-events="none" fill="none" stroke="white" stroke-width="1.5" d="M0,-3.0v7 M-2.5,-0.5L0,-3.0L2.5,-0.5"/>
  </g>
  <g id="arrowRight" transform="rotate(90) translate(36 -43)">
    <use xlink:href="#rim"/>
    <path pointer-events="none" fill="none" stroke="white" stroke-width="1.5" d="M0,-3.0v7 M-2.5,-0.5L0,-3.0L2.5,-0.5"/>
  </g>
  <g id="arrowDown" transform="rotate(180) translate(-30 -48)">
    <use xlink:href="#rim"/>
    <path pointer-events="none" fill="none" stroke="white" stroke-width="1.5" d="M0,-3.0v7 M-2.5,-0.5L0,-3.0L2.5,-0.5"/>
  </g>
  <g id="arrowLeft" transform="rotate(270) translate(-36 17)">
    <use xlink:href="#rim"/>
    <path pointer-events="none" fill="none" stroke="white" stroke-width="1.5" d="M0,-3.0v7 M-2.5,-0.5L0,-3.0L2.5,-0.5"/>
  </g>
  <g id="resetDef">
    <use xlink:href="#rim2" fill="#404040"><set attributeName="fill" to="#808080" begin="reset.mouseover" end="reset.mouseout"/></use>
  </g>
</defs>
<script type="application/ecmascript">
var viewWidth = 791;
var viewHeight = 268;
var sectionId = 'dynsection-3';
</script>
<script type="application/ecmascript" xlink:href="svg.min.js"/>
<svg id="graph" class="graph">
<g id="viewport">
<title>polyfem::assembler::AssemblyValsCache::init</title>
<!-- Node1 -->
<g id="Node000001" class="node">
<title>Node1</title>
<g id="a_Node000001"><a xlink:title="computes the basis evaluation and geometric mapping for each of the given ElementBases in bases initi...">
<polygon fill="#999999" stroke="#666666" points="783,-142 640,-142 640,-112 783,-112 783,-142"/>
<text text-anchor="start" x="648" y="-130" font-family="Helvetica,sans-Serif" font-size="10.00">polyfem::assembler</text>
<text text-anchor="middle" x="711.5" y="-119" font-family="Helvetica,sans-Serif" font-size="10.00">::AssemblyValsCache::init</text>
</a>
</g>
</g>
<!-- Node2 -->
<g id="Node000002" class="node">
<title>Node2</title>
<g id="a_Node000002"><a xlink:href="classpolyfem_1_1legacy_1_1_state.html#a8f6cd02b931de4bcf55c47282248c830" target="_top" xlink:title="builds the bases step 2 of solve modifies bases, pressure_bases, geom_bases_, boundary_nodes,...">
<polygon fill="white" stroke="#666666" points="586,-260 460,-260 460,-230 586,-230 586,-260"/>
<text text-anchor="start" x="468" y="-248" font-family="Helvetica,sans-Serif" font-size="10.00">polyfem::legacy::State</text>
<text text-anchor="middle" x="523" y="-237" font-family="Helvetica,sans-Serif" font-size="10.00">::build_basis</text>
</a>
</g>
</g>
<!-- Node1&#45;&gt;Node2 -->
<g id="edge1_Node000001_Node000002" class="edge">
<title>Node1&#45;&gt;Node2</title>
<g id="a_edge1_Node000001_Node000002"><a xlink:title=" ">
<path fill="none" stroke="#63b8ff" d="M690.2,-149.88C670.21,-171.12 637.83,-202.2 604,-221 597.92,-224.38 591.3,-227.34 584.57,-229.91"/>
<polygon fill="#63b8ff" stroke="#63b8ff" points="693.02,-151.99 697.23,-142.27 687.88,-147.24 693.02,-151.99"/>
</a>
</g>
</g>
<!-- Node6 -->
<g id="Node000006" class="node">
<title>Node6</title>
<g id="a_Node000006"><a xlink:href="classpolyfem_1_1varform_1_1_bilaplacian_var_form.html#a12e8547ee073254e215650ec05537700" target="_top" xlink:title=" ">
<polygon fill="white" stroke="#666666" points="604,-212 442,-212 442,-182 604,-182 604,-212"/>
<text text-anchor="start" x="450" y="-200" font-family="Helvetica,sans-Serif" font-size="10.00">polyfem::varform::Bilaplacian</text>
<text text-anchor="middle" x="523" y="-189" font-family="Helvetica,sans-Serif" font-size="10.00">VarForm::build_basis</text>
</a>
</g>
</g>
<!-- Node1&#45;&gt;Node6 -->
<g id="edge5_Node000001_Node000006" class="edge">
<title>Node1&#45;&gt;Node6</title>
<g id="a_edge5_Node000001_Node000006"><a xlink:title=" ">
<path fill="none" stroke="#63b8ff" d="M669.05,-146.24C649.53,-154.95 625.79,-165.06 604,-173 595.42,-176.13 586.21,-179.17 577.22,-181.98"/>
<polygon fill="#63b8ff" stroke="#63b8ff" points="670.59,-149.38 678.27,-142.09 667.71,-143 670.59,-149.38"/>
</a>
</g>
</g>
<!-- Node7 -->
<g id="Node000007" class="node">
<title>Node7</title>
<g id="a_Node000007"><a xlink:href="classpolyfem_1_1varform_1_1_elastic_var_form.html#a0c38477ea5ba3f898623028d83e43e5c" target="_top" xlink:title=" ">
<polygon fill="white" stroke="#666666" points="593,-164 453,-164 453,-134 593,-134 593,-164"/>
<text text-anchor="start" x="461" y="-152" font-family="Helvetica,sans-Serif" font-size="10.00">polyfem::varform::Elastic</text>
<text text-anchor="middle" x="523" y="-141" font-family="Helvetica,sans-Serif" font-size="10.00">VarForm::build_basis</text>
</a>
</g>
</g>
<!-- Node1&#45;&gt;Node7 -->
<g id="edge6_Node000001_Node000007" class="edge">
<title>Node1&#45;&gt;Node7</title>
<g id="a_edge6_Node000001_Node000007"><a xlink:title=" ">
<path fill="none" stroke="#63b8ff" d="M629.8,-136.52C617.56,-137.96 605.03,-139.44 593.06,-140.85"/>
<polygon fill="#63b8ff" stroke="#63b8ff" points="630.47,-139.96 639.99,-135.32 629.65,-133.01 630.47,-139.96"/>
</a>
</g>
</g>
<!-- Node8 -->
<g id="Node000008" class="node">
<title>Node8</title>
<g id="a_Node000008"><a xlink:href="classpolyfem_1_1varform_1_1_incompressible_elastic_var_form.html#abebd8d3d99cd99f8c225163f3ee1525f" target="_top" xlink:title=" ">
<polygon fill="white" stroke="#666666" points="406,-143 224,-143 224,-113 406,-113 406,-143"/>
<text text-anchor="start" x="232" y="-131" font-family="Helvetica,sans-Serif" font-size="10.00">polyfem::varform::Incompressible</text>
<text text-anchor="middle" x="315" y="-120" font-family="Helvetica,sans-Serif" font-size="10.00">ElasticVarForm::build_basis</text>
</a>
</g>
</g>
<!-- Node1&#45;&gt;Node8 -->
<g id="edge9_Node000001_Node000008" class="edge">
<title>Node1&#45;&gt;Node8</title>
<g id="a_edge9_Node000001_Node000008"><a xlink:title=" ">
<path fill="none" stroke="#63b8ff" d="M629.63,-125.32C620.98,-125.19 612.31,-125.08 604,-125 532,-124.32 513.99,-124.14 442,-125 430.4,-125.14 418.21,-125.35 406.16,-125.59"/>
<polygon fill="#63b8ff" stroke="#63b8ff" points="629.7,-128.82 639.75,-125.49 629.81,-121.82 629.7,-128.82"/>
</a>
</g>
</g>
<!-- Node9 -->
<g id="Node000009" class="node">
<title>Node9</title>
<g id="a_Node000009"><a xlink:href="classpolyfem_1_1varform_1_1_fluid_var_form.html#a0e242692af50b262ffd84132e9974614" target="_top" xlink:title=" ">
<polygon fill="white" stroke="#666666" points="597,-78 449,-78 449,-48 597,-48 597,-78"/>
<text text-anchor="start" x="457" y="-66" font-family="Helvetica,sans-Serif" font-size="10.00">polyfem::varform::FluidVar</text>
<text text-anchor="middle" x="523" y="-55" font-family="Helvetica,sans-Serif" font-size="10.00">Form::build_basis</text>
</a>
</g>
</g>
<!-- Node1&#45;&gt;Node9 -->
<g id="edge8_Node000001_Node000009" class="edge">
<title>Node1&#45;&gt;Node9</title>
<g id="a_edge8_Node000001_Node000009"><a xlink:title=" ">
<path fill="none" stroke="#63b8ff" d="M657.04,-108.66C628.76,-98.95 594.46,-87.18 567.77,-78.02"/>
<polygon fill="#63b8ff" stroke="#63b8ff" points="656.18,-112.06 666.77,-111.99 658.45,-105.44 656.18,-112.06"/>
</a>
</g>
</g>
<!-- Node10 -->
<g id="Node000010" class="node">
<title>Node10</title>
<g id="a_Node000010"><a xlink:href="classpolyfem_1_1varform_1_1_scalar_var_form.html#a4b7c4555af015f3a55a7b38b56d4e93f" target="_top" xlink:title=" ">
<polygon fill="white" stroke="#666666" points="592,-30 454,-30 454,0 592,0 592,-30"/>
<text text-anchor="start" x="462" y="-18" font-family="Helvetica,sans-Serif" font-size="10.00">polyfem::varform::Scalar</text>
<text text-anchor="middle" x="523" y="-7" font-family="Helvetica,sans-Serif" font-size="10.00">VarForm::build_basis</text>
</a>
</g>
</g>
<!-- Node1&#45;&gt;Node10 -->
<g id="edge10_Node000001_Node000010" class="edge">
<title>Node1&#45;&gt;Node10</title>
<g id="a_edge10_Node000001_Node000010"><a xlink:title=" ">
<path fill="none" stroke="#63b8ff" d="M688.88,-104.63C668.62,-84.83 636.63,-56.45 604,-39 597.73,-35.65 590.94,-32.7 584.04,-30.13"/>
<polygon fill="#63b8ff" stroke="#63b8ff" points="686.49,-107.19 696.05,-111.75 691.42,-102.22 686.49,-107.19"/>
</a>
</g>
</g>
<!-- Node3 -->
<g id="Node000003" class="node">
<title>Node3</title>
<g id="a_Node000003"><a xlink:href="main_8cpp.html#a0d6fd6ed6fda5fc5e4b6ed34b45fe322" target="_top" xlink:title=" ">
<polygon fill="white" stroke="#666666" points="370.5,-260 259.5,-260 259.5,-230 370.5,-230 370.5,-260"/>
<text text-anchor="start" x="267.5" y="-248" font-family="Helvetica,sans-Serif" font-size="10.00">forward_simulation</text>
<text text-anchor="middle" x="315" y="-237" font-family="Helvetica,sans-Serif" font-size="10.00">_with_legacy_state</text>
</a>
</g>
</g>
<!-- Node2&#45;&gt;Node3 -->
<g id="edge2_Node000002_Node000003" class="edge">
<title>Node2&#45;&gt;Node3</title>
<g id="a_edge2_Node000002_Node000003"><a xlink:title=" ">
<path fill="none" stroke="#63b8ff" d="M449.73,-245C423.74,-245 394.86,-245 370.62,-245"/>
<polygon fill="#63b8ff" stroke="#63b8ff" points="449.91,-248.5 459.91,-245 449.91,-241.5 449.91,-248.5"/>
</a>
</g>
</g>
<!-- Node4 -->
<g id="Node000004" class="node">
<title>Node4</title>
<g id="a_Node000004"><a xlink:href="main_8cpp.html#aec889c702a246ad7f332c75ab7adb438" target="_top" xlink:title=" ">
<polygon fill="white" stroke="#666666" points="188,-254.5 77,-254.5 77,-235.5 188,-235.5 188,-254.5"/>
<text text-anchor="middle" x="132.5" y="-242.5" font-family="Helvetica,sans-Serif" font-size="10.00">forward_simulation</text>
</a>
</g>
</g>
<!-- Node3&#45;&gt;Node4 -->
<g id="edge3_Node000003_Node000004" class="edge">
<title>Node3&#45;&gt;Node4</title>
<g id="a_edge3_Node000003_Node000004"><a xlink:title=" ">
<path fill="none" stroke="#63b8ff" d="M249.12,-245C229.19,-245 207.46,-245 188.27,-245"/>
<polygon fill="#63b8ff" stroke="#63b8ff" points="249.35,-248.5 259.35,-245 249.35,-241.5 249.35,-248.5"/>
</a>
</g>
</g>
<!-- Node5 -->
<g id="Node000005" class="node">
<title>Node5</title>
<g id="a_Node000005"><a xlink:href="main_8cpp.html#a3c04138a5bfe5d72780bb7e82a18e627" target="_top" xlink:title=" ">
<polygon fill="white" stroke="#666666" points="41,-254.5 0,-254.5 0,-235.5 41,-235.5 41,-254.5"/>
<text text-anchor="middle" x="20.5" y="-242.5" font-family="Helvetica,sans-Serif" font-size="10.00">main</text>
</a>
</g>
</g>
<!-- Node4&#45;&gt;Node5 -->
<g id="edge4_Node000004_Node000005" class="edge">
<title>Node4&#45;&gt;Node5</title>
<g id="a_edge4_Node000004_Node000005"><a xlink:title=" ">
<path fill="none" stroke="#63b8ff" d="M66.64,-245C57.35,-245 48.45,-245 41.05,-245"/>
<polygon fill="#63b8ff" stroke="#63b8ff" points="66.82,-248.5 76.82,-245 66.82,-241.5 66.82,-248.5"/>
</a>
</g>
</g>
<!-- Node7&#45;&gt;Node8 -->
<g id="edge7_Node000007_Node000008" class="edge">
<title>Node7&#45;&gt;Node8</title>
<g id="a_edge7_Node000007_Node000008"><a xlink:title=" ">
<path fill="none" stroke="#63b8ff" d="M442.88,-140.93C430.88,-139.71 418.42,-138.44 406.2,-137.2"/>
<polygon fill="#63b8ff" stroke="#63b8ff" points="442.53,-144.42 452.83,-141.95 443.24,-137.45 442.53,-144.42"/>
</a>
</g>
</g>
</g>
</svg>

<g id="navigator" transform="translate(0 0)" fill="#404254">
  <rect fill="#f2f5e9" fill-opacity="0.5" stroke="#606060" stroke-width=".5" x="0" y="0" width="60" height="60"/>
  <use id="zoomplus" xlink:href="#zoomPlus" x="17" y="9" onmousedown="handleZoom(evt,'in')"/>
  <use id="zoomminus" xlink:href="#zoomMin" x="42" y="9" onmousedown="handleZoom(evt,'out')"/>
  <use id="reset" xlink:href="#resetDef" x="30" y="36" onmousedown="handleReset()"/>
   <use id="arrowup" xlink:href="#arrowUp" x="0" y="0" onmousedown="handlePan(0,-1)"/>
  <use id="arrowright" xlink:href="#arrowRight" x="0" y="0" onmousedown="handlePan(1,0)"/>
  <use id="arrowdown" xlink:href="#arrowDown" x="0" y="0" onmousedown="handlePan(0,1)"/>
  <use id="arrowleft" xlink:href="#arrowLeft" x="0" y="0" onmousedown="handlePan(-1,0)"/>
</g>
<svg viewBox="0 0 15 15" width="100%" height="30px" preserveAspectRatio="xMaxYMin meet">
 <g id="arrow_out" transform="scale(0.3 0.3)">
  <a xlink:href="classpolyfem_1_1assembler_1_1_assembly_vals_cache_a568826dcf14775118883ecbf6bd72f15_icgraph_org.svg" target="_base">
   <rect id="button" ry="5" rx="5" y="6" x="6" height="38" width="38"
        fill="#f2f5e9" fill-opacity="0.5" stroke="#606060" stroke-width="1.0"/>
   <path id="arrow"
     d="M 11.500037,31.436501 C 11.940474,20.09759 22.043105,11.32322 32.158766,21.979434 L 37.068811,17.246167 C 37.068811,17.246167 37.088388,32 37.088388,32 L 22.160133,31.978069 C 22.160133,31.978069 26.997745,27.140456 26.997745,27.140456 C 18.528582,18.264221 13.291696,25.230495 11.500037,31.436501 z"
     style="fill:#404040;"/>
  </a>
 </g>
</svg>

<style type='text/css'>
<![CDATA[
[data-mouse-over-selected='false'] { opacity: 0.7; }
[data-mouse-over-selected='true']  { opacity: 1.0; }
]]>
</style>
<script type="application/ecmascript"><![CDATA[
document.addEventListener('DOMContentLoaded', (event) => {
  highlightEdges();
  highlightAdjacentNodes();
});
]]></script>
</svg>
