<?xml version="1.0" encoding="UTF-8" standalone="no"?>
<!DOCTYPE svg PUBLIC "-//W3C//DTD SVG 1.1//EN"
 "http://www.w3.org/Graphics/SVG/1.1/DTD/svg11.dtd">
<!-- Generated by graphviz version 2.43.0 (0)
 -->
<!-- Title: polyfem::assembler::AssemblerUtils::is_elastic_material Pages: 1 -->
<svg width="807pt" height="172pt"
 viewBox="0.00 0.00 807.00 171.50" xmlns="http://www.w3.org/2000/svg" xmlns:xlink="http://www.w3.org/1999/xlink">
<g id="graph0" class="graph" transform="scale(1 1) rotate(0) translate(4 167.5)">
<title>polyfem::assembler::AssemblerUtils::is_elastic_material</title>
<!-- Node1 -->
<g id="Node000001" class="node">
<title>Node1</title>
<g id="a_Node000001"><a xlink:title="utility to check if material is one of the elastic materials">
<polygon fill="#999999" stroke="#666666" points="799,-107.5 685,-107.5 685,-66.5 799,-66.5 799,-107.5"/>
<text text-anchor="start" x="693" y="-95.5" font-family="Helvetica,sans-Serif" font-size="10.00">polyfem::assembler</text>
<text text-anchor="start" x="693" y="-84.5" font-family="Helvetica,sans-Serif" font-size="10.00">::AssemblerUtils::is</text>
<text text-anchor="middle" x="742" y="-73.5" font-family="Helvetica,sans-Serif" font-size="10.00">_elastic_material</text>
</a>
</g>
</g>
<!-- Node2 -->
<g id="Node000002" class="node">
<title>Node2</title>
<g id="a_Node000002"><a xlink:href="classpolyfem_1_1_state.html#a0acd0b93140ea778ac836ee0a1a29dfd" target="_top" xlink:title="return the formulation (checks if the problem is scalar or not and deals with multiphysics)">
<polygon fill="white" stroke="#666666" points="649,-96.5 497,-96.5 497,-77.5 649,-77.5 649,-96.5"/>
<text text-anchor="middle" x="573" y="-84.5" font-family="Helvetica,sans-Serif" font-size="10.00">polyfem::State::formulation</text>
</a>
</g>
</g>
<!-- Node1&#45;&gt;Node2 -->
<g id="edge1_Node000001_Node000002" class="edge">
<title>Node1&#45;&gt;Node2</title>
<g id="a_edge1_Node000001_Node000002"><a xlink:title=" ">
<path fill="none" stroke="#63b8ff" d="M674.81,-87C666.4,-87 657.75,-87 649.21,-87"/>
<polygon fill="#63b8ff" stroke="#63b8ff" points="674.93,-90.5 684.93,-87 674.93,-83.5 674.93,-90.5"/>
</a>
</g>
</g>
<!-- Node3 -->
<g id="Node000003" class="node">
<title>Node3</title>
<g id="a_Node000003"><a xlink:href="classpolyfem_1_1_state.html#a184100545465d3feab07312e3f9c32a4" target="_top" xlink:title="initialize the polyfem solver with a json settings">
<polygon fill="white" stroke="#666666" points="429,-163.5 319,-163.5 319,-144.5 429,-144.5 429,-163.5"/>
<text text-anchor="middle" x="374" y="-151.5" font-family="Helvetica,sans-Serif" font-size="10.00">polyfem::State::init</text>
</a>
</g>
</g>
<!-- Node2&#45;&gt;Node3 -->
<g id="edge2_Node000002_Node000003" class="edge">
<title>Node2&#45;&gt;Node3</title>
<g id="a_edge2_Node000002_Node000003"><a xlink:title=" ">
<path fill="none" stroke="#63b8ff" d="M543.65,-101.05C521.56,-111.55 489.89,-125.66 461,-135 449.8,-138.62 437.55,-141.79 425.91,-144.44"/>
<polygon fill="#63b8ff" stroke="#63b8ff" points="545.29,-104.14 552.78,-96.65 542.26,-97.83 545.29,-104.14"/>
</a>
</g>
</g>
<!-- Node6 -->
<g id="Node000006" class="node">
<title>Node6</title>
<g id="a_Node000006"><a xlink:href="classpolyfem_1_1mesh_1_1_local_relaxation_data.html#a312e1fefb77164111fd598cd8b4521e9" target="_top" xlink:title=" ">
<polygon fill="white" stroke="#666666" points="461,-126 287,-126 287,-96 461,-96 461,-126"/>
<text text-anchor="start" x="295" y="-114" font-family="Helvetica,sans-Serif" font-size="10.00">polyfem::mesh::LocalRelaxation</text>
<text text-anchor="middle" x="374" y="-103" font-family="Helvetica,sans-Serif" font-size="10.00">Data::init_assembler</text>
</a>
</g>
</g>
<!-- Node2&#45;&gt;Node6 -->
<g id="edge5_Node000002_Node000006" class="edge">
<title>Node2&#45;&gt;Node6</title>
<g id="a_edge5_Node000002_Node000006"><a xlink:title=" ">
<path fill="none" stroke="#63b8ff" d="M486.96,-97.36C478.37,-98.41 469.64,-99.47 461.04,-100.52"/>
<polygon fill="#63b8ff" stroke="#63b8ff" points="487.46,-100.83 496.96,-96.14 486.61,-93.88 487.46,-100.83"/>
</a>
</g>
</g>
<!-- Node8 -->
<g id="Node000008" class="node">
<title>Node8</title>
<g id="a_Node000008"><a xlink:href="classpolyfem_1_1mesh_1_1_local_relaxation_data.html#ab03432dc5cce912fb679a73d93ad334d" target="_top" xlink:title=" ">
<polygon fill="white" stroke="#666666" points="461,-78 287,-78 287,-48 461,-48 461,-78"/>
<text text-anchor="start" x="295" y="-66" font-family="Helvetica,sans-Serif" font-size="10.00">polyfem::mesh::LocalRelaxation</text>
<text text-anchor="middle" x="374" y="-55" font-family="Helvetica,sans-Serif" font-size="10.00">Data::init_bases</text>
</a>
</g>
</g>
<!-- Node2&#45;&gt;Node8 -->
<g id="edge7_Node000002_Node000008" class="edge">
<title>Node2&#45;&gt;Node8</title>
<g id="a_edge7_Node000002_Node000008"><a xlink:title=" ">
<path fill="none" stroke="#63b8ff" d="M486.96,-76.64C478.37,-75.59 469.64,-74.53 461.04,-73.48"/>
<polygon fill="#63b8ff" stroke="#63b8ff" points="486.61,-80.12 496.96,-77.86 487.46,-73.17 486.61,-80.12"/>
</a>
</g>
</g>
<!-- Node9 -->
<g id="Node000009" class="node">
<title>Node9</title>
<g id="a_Node000009"><a xlink:href="classpolyfem_1_1mesh_1_1_remesher.html#a60ab7872593bdf1951408bbd870526e4" target="_top" xlink:title="Update the mesh positions and other projection quantities.">
<polygon fill="white" stroke="#666666" points="447,-30 301,-30 301,0 447,0 447,-30"/>
<text text-anchor="start" x="309" y="-18" font-family="Helvetica,sans-Serif" font-size="10.00">polyfem::mesh::Remesher</text>
<text text-anchor="middle" x="374" y="-7" font-family="Helvetica,sans-Serif" font-size="10.00">::project_quantities</text>
</a>
</g>
</g>
<!-- Node2&#45;&gt;Node9 -->
<g id="edge9_Node000002_Node000009" class="edge">
<title>Node2&#45;&gt;Node9</title>
<g id="a_edge9_Node000002_Node000009"><a xlink:title=" ">
<path fill="none" stroke="#63b8ff" d="M543.09,-73.21C520.94,-62.96 489.45,-49.07 461,-39 452.09,-35.85 442.54,-32.83 433.16,-30.07"/>
<polygon fill="#63b8ff" stroke="#63b8ff" points="541.73,-76.44 552.27,-77.5 544.69,-70.1 541.73,-76.44"/>
</a>
</g>
</g>
<!-- Node4 -->
<g id="Node000004" class="node">
<title>Node4</title>
<g id="a_Node000004"><a xlink:href="main_8cpp.html#aec889c702a246ad7f332c75ab7adb438" target="_top" xlink:title=" ">
<polygon fill="white" stroke="#666666" points="219.5,-163.5 108.5,-163.5 108.5,-144.5 219.5,-144.5 219.5,-163.5"/>
<text text-anchor="middle" x="164" y="-151.5" font-family="Helvetica,sans-Serif" font-size="10.00">forward_simulation</text>
</a>
</g>
</g>
<!-- Node3&#45;&gt;Node4 -->
<g id="edge3_Node000003_Node000004" class="edge">
<title>Node3&#45;&gt;Node4</title>
<g id="a_edge3_Node000003_Node000004"><a xlink:title=" ">
<path fill="none" stroke="#63b8ff" d="M308.61,-154C280.07,-154 246.85,-154 219.56,-154"/>
<polygon fill="#63b8ff" stroke="#63b8ff" points="308.89,-157.5 318.89,-154 308.89,-150.5 308.89,-157.5"/>
</a>
</g>
</g>
<!-- Node5 -->
<g id="Node000005" class="node">
<title>Node5</title>
<g id="a_Node000005"><a xlink:href="main_8cpp.html#a3c04138a5bfe5d72780bb7e82a18e627" target="_top" xlink:title=" ">
<polygon fill="white" stroke="#666666" points="41,-163.5 0,-163.5 0,-144.5 41,-144.5 41,-163.5"/>
<text text-anchor="middle" x="20.5" y="-151.5" font-family="Helvetica,sans-Serif" font-size="10.00">main</text>
</a>
</g>
</g>
<!-- Node4&#45;&gt;Node5 -->
<g id="edge4_Node000004_Node000005" class="edge">
<title>Node4&#45;&gt;Node5</title>
<g id="a_edge4_Node000004_Node000005"><a xlink:title=" ">
<path fill="none" stroke="#63b8ff" d="M98.2,-154C77.47,-154 56.04,-154 41.13,-154"/>
<polygon fill="#63b8ff" stroke="#63b8ff" points="98.29,-157.5 108.29,-154 98.29,-150.5 98.29,-157.5"/>
</a>
</g>
</g>
<!-- Node7 -->
<g id="Node000007" class="node">
<title>Node7</title>
<g id="a_Node000007"><a xlink:href="classpolyfem_1_1mesh_1_1_local_relaxation_data.html#a7a84ad351ae9f4d38cdad34660fd6585" target="_top" xlink:title=" ">
<polygon fill="white" stroke="#666666" points="251,-102 77,-102 77,-72 251,-72 251,-102"/>
<text text-anchor="start" x="85" y="-90" font-family="Helvetica,sans-Serif" font-size="10.00">polyfem::mesh::LocalRelaxation</text>
<text text-anchor="middle" x="164" y="-79" font-family="Helvetica,sans-Serif" font-size="10.00">Data::LocalRelaxationData</text>
</a>
</g>
</g>
<!-- Node6&#45;&gt;Node7 -->
<g id="edge6_Node000006_Node000007" class="edge">
<title>Node6&#45;&gt;Node7</title>
<g id="a_edge6_Node000006_Node000007"><a xlink:title=" ">
<path fill="none" stroke="#63b8ff" d="M276.84,-99.9C268.23,-98.91 259.55,-97.91 251.04,-96.93"/>
<polygon fill="#63b8ff" stroke="#63b8ff" points="276.56,-103.4 286.9,-101.07 277.36,-96.44 276.56,-103.4"/>
</a>
</g>
</g>
<!-- Node8&#45;&gt;Node7 -->
<g id="edge8_Node000008_Node000007" class="edge">
<title>Node8&#45;&gt;Node7</title>
<g id="a_edge8_Node000008_Node000007"><a xlink:title=" ">
<path fill="none" stroke="#63b8ff" d="M276.84,-74.1C268.23,-75.09 259.55,-76.09 251.04,-77.07"/>
<polygon fill="#63b8ff" stroke="#63b8ff" points="277.36,-77.56 286.9,-72.93 276.56,-70.6 277.36,-77.56"/>
</a>
</g>
</g>
</g>
</svg>
