<?xml version="1.0" encoding="UTF-8" standalone="no"?>
<!DOCTYPE svg PUBLIC "-//W3C//DTD SVG 1.1//EN"
 "http://www.w3.org/Graphics/SVG/1.1/DTD/svg11.dtd">
<!-- Generated by graphviz version 2.43.0 (0)
 -->
<!-- Title: polyfem::solver::FrictionForm::update_lagging Pages: 1 -->
<!--zoomable 194 -->
<svg id="main" version="1.1" xmlns="http://www.w3.org/2000/svg" xmlns:xlink="http://www.w3.org/1999/xlink" xml:space="preserve" onload="init(evt)">
<style type="text/css"><![CDATA[
.edge:hover path { stroke: red; }
.edge:hover polygon { stroke: red; fill: red; }
]]></style>
<script type="text/javascript"><![CDATA[
var edges = document.getElementsByTagName('g');
if (edges && edges.length) {
  for (var i=0;i<edges.length;i++) {
    if (edges[i].id.substr(0,4)=='edge') {
      edges[i].setAttribute('class','edge');
    }
  }
}
]]></script>
        <defs>
                <circle id="rim" cx="0" cy="0" r="7"/>
                <circle id="rim2" cx="0" cy="0" r="3.5"/>
                <g id="zoomPlus">
                        <use xlink:href="#rim" fill="#404040">
                                <set attributeName="fill" to="#808080" begin="zoomplus.mouseover" end="zoomplus.mouseout"/>
                        </use>
                        <path d="M-4,0h8M0,-4v8" fill="none" stroke="white" stroke-width="1.5" pointer-events="none"/>
                </g>
                <g id="zoomMin">
                        <use xlink:href="#rim" fill="#404040">
                                <set attributeName="fill" to="#808080" begin="zoomminus.mouseover" end="zoomminus.mouseout"/>
                        </use>
                        <path d="M-4,0h8" fill="none" stroke="white" stroke-width="1.5" pointer-events="none"/>
                </g>
                <g id="dirArrow">
                        <path fill="none" stroke="white" stroke-width="1.5" d="M0,-3.0v7 M-2.5,-0.5L0,-3.0L2.5,-0.5"/>
                </g>
               <g id="resetDef">
                       <use xlink:href="#rim2" fill="#404040">
                               <set attributeName="fill" to="#808080" begin="reset.mouseover" end="reset.mouseout"/>
                       </use>
               </g>
        </defs>

<script type="text/javascript">
var viewWidth = 714;
var viewHeight = 194;
var sectionId = 'dynsection-13';
</script>
<script xlink:href="svgpan.js"/>
<svg id="graph" class="graph">
<g id="viewport">
<title>polyfem::solver::FrictionForm::update_lagging</title>
<!-- Node1 -->
<g id="node1" class="node">
<title>Node1</title>
<g id="a_node1"><a xlink:title="Update lagged fields.">
<polygon fill="#999999" stroke="#666666" points="135,-105 0,-105 0,-75 135,-75 135,-105"/>
<text text-anchor="start" x="8" y="-93" font-family="Helvetica,sans-Serif" font-size="10.00">polyfem::solver::Friction</text>
<text text-anchor="middle" x="67.5" y="-82" font-family="Helvetica,sans-Serif" font-size="10.00">Form::update_lagging</text>
</a>
</g>
</g>
<!-- Node2 -->
<g id="node2" class="node">
<title>Node2</title>
<g id="a_node2"><a xlink:href="classpolyfem_1_1solver_1_1_contact_form.html#a41dcdd4761553a2e08ed5c44056d0440" target="_top" xlink:title="Get the current barrier stiffness.">
<polygon fill="white" stroke="#666666" points="333,-186 196,-186 196,-156 333,-156 333,-186"/>
<text text-anchor="start" x="204" y="-174" font-family="Helvetica,sans-Serif" font-size="10.00">polyfem::solver::Contact</text>
<text text-anchor="middle" x="264.5" y="-163" font-family="Helvetica,sans-Serif" font-size="10.00">Form::barrier_stiffness</text>
</a>
</g>
</g>
<!-- Node1&#45;&gt;Node2 -->
<g id="edge1" class="edge">
<title>Node1&#45;&gt;Node2</title>
<path fill="none" stroke="#63b8ff" d="M91.68,-105.14C111.92,-117.8 142.46,-135.58 171,-147 176.33,-149.13 181.91,-151.13 187.57,-152.98"/>
<polygon fill="#63b8ff" stroke="#63b8ff" points="186.56,-156.33 197.15,-155.97 188.64,-149.65 186.56,-156.33"/>
</g>
<!-- Node3 -->
<g id="node3" class="node">
<title>Node3</title>
<g id="a_node3"><a xlink:href="classpolyfem_1_1solver_1_1_friction_form.html#a813fc2f87b22de23caf3d1cb850fdfac" target="_top" xlink:title="Compute the displaced positions of the surface nodes.">
<polygon fill="white" stroke="#666666" points="335.5,-137.5 193.5,-137.5 193.5,-96.5 335.5,-96.5 335.5,-137.5"/>
<text text-anchor="start" x="201.5" y="-125.5" font-family="Helvetica,sans-Serif" font-size="10.00">polyfem::solver::Friction</text>
<text text-anchor="start" x="201.5" y="-114.5" font-family="Helvetica,sans-Serif" font-size="10.00">Form::compute_displaced</text>
<text text-anchor="middle" x="264.5" y="-103.5" font-family="Helvetica,sans-Serif" font-size="10.00">_surface</text>
</a>
</g>
</g>
<!-- Node1&#45;&gt;Node3 -->
<g id="edge2" class="edge">
<title>Node1&#45;&gt;Node3</title>
<path fill="none" stroke="#63b8ff" d="M135.06,-99.22C150.45,-101.35 166.98,-103.64 182.9,-105.84"/>
<polygon fill="#63b8ff" stroke="#63b8ff" points="182.86,-109.37 193.24,-107.27 183.82,-102.43 182.86,-109.37"/>
</g>
<!-- Node6 -->
<g id="node6" class="node">
<title>Node6</title>
<g id="a_node6"><a xlink:href="classpolyfem_1_1solver_1_1_contact_form.html#a7aadb732b6df116dd2374bdb64d0826c" target="_top" xlink:title=" ">
<polygon fill="white" stroke="#666666" points="352,-78 177,-78 177,-48 352,-48 352,-78"/>
<text text-anchor="start" x="185" y="-66" font-family="Helvetica,sans-Serif" font-size="10.00">polyfem::solver::Contact</text>
<text text-anchor="middle" x="264.5" y="-55" font-family="Helvetica,sans-Serif" font-size="10.00">Form::enable_shape_derivatives</text>
</a>
</g>
</g>
<!-- Node1&#45;&gt;Node6 -->
<g id="edge5" class="edge">
<title>Node1&#45;&gt;Node6</title>
<path fill="none" stroke="#63b8ff" d="M135.06,-80.78C145.26,-79.37 155.97,-77.89 166.66,-76.41"/>
<polygon fill="#63b8ff" stroke="#63b8ff" points="167.47,-79.83 176.89,-74.99 166.51,-72.9 167.47,-79.83"/>
</g>
<!-- Node7 -->
<g id="node7" class="node">
<title>Node7</title>
<g id="a_node7"><a xlink:href="classpolyfem_1_1solver_1_1_contact_form.html#afb889e2d85c746787b9d42eddb1e0cda" target="_top" xlink:title="Get use_convergent_formulation.">
<polygon fill="white" stroke="#666666" points="358,-30 171,-30 171,0 358,0 358,-30"/>
<text text-anchor="start" x="179" y="-18" font-family="Helvetica,sans-Serif" font-size="10.00">polyfem::solver::Contact</text>
<text text-anchor="middle" x="264.5" y="-7" font-family="Helvetica,sans-Serif" font-size="10.00">Form::use_convergent_formulation</text>
</a>
</g>
</g>
<!-- Node1&#45;&gt;Node7 -->
<g id="edge6" class="edge">
<title>Node1&#45;&gt;Node7</title>
<path fill="none" stroke="#63b8ff" d="M95.22,-74.78C115.51,-63.7 144.38,-48.95 171,-39 176.58,-36.92 182.4,-34.94 188.31,-33.09"/>
<polygon fill="#63b8ff" stroke="#63b8ff" points="189.71,-36.33 198.28,-30.1 187.69,-29.62 189.71,-36.33"/>
</g>
<!-- Node4 -->
<g id="node4" class="node">
<title>Node4</title>
<g id="a_node4"><a xlink:href="classpolyfem_1_1solver_1_1_contact_form.html#a41111805fab863090ce87259bb024995" target="_top" xlink:title="Compute the displaced positions of the surface nodes.">
<polygon fill="white" stroke="#666666" points="536,-137.5 394,-137.5 394,-96.5 536,-96.5 536,-137.5"/>
<text text-anchor="start" x="402" y="-125.5" font-family="Helvetica,sans-Serif" font-size="10.00">polyfem::solver::Contact</text>
<text text-anchor="start" x="402" y="-114.5" font-family="Helvetica,sans-Serif" font-size="10.00">Form::compute_displaced</text>
<text text-anchor="middle" x="465" y="-103.5" font-family="Helvetica,sans-Serif" font-size="10.00">_surface</text>
</a>
</g>
</g>
<!-- Node3&#45;&gt;Node4 -->
<g id="edge3" class="edge">
<title>Node3&#45;&gt;Node4</title>
<path fill="none" stroke="#63b8ff" d="M335.76,-117C351.22,-117 367.71,-117 383.54,-117"/>
<polygon fill="#63b8ff" stroke="#63b8ff" points="383.83,-120.5 393.83,-117 383.83,-113.5 383.83,-120.5"/>
</g>
<!-- Node5 -->
<g id="node5" class="node">
<title>Node5</title>
<g id="a_node5"><a xlink:href="namespacepolyfem_1_1utils.html#aafdbbff4a81a4fcba11129097b1109e5" target="_top" xlink:title="Unflatten rowwises, so every dim elements in x become a row.">
<polygon fill="white" stroke="#666666" points="706,-126.5 572,-126.5 572,-107.5 706,-107.5 706,-126.5"/>
<text text-anchor="middle" x="639" y="-114.5" font-family="Helvetica,sans-Serif" font-size="10.00">polyfem::utils::unflatten</text>
</a>
</g>
</g>
<!-- Node4&#45;&gt;Node5 -->
<g id="edge4" class="edge">
<title>Node4&#45;&gt;Node5</title>
<path fill="none" stroke="#63b8ff" d="M536.46,-117C544.77,-117 553.28,-117 561.66,-117"/>
<polygon fill="#63b8ff" stroke="#63b8ff" points="561.81,-120.5 571.81,-117 561.81,-113.5 561.81,-120.5"/>
</g>
</g>
</svg>
        <g id="navigator" transform="translate(0 0)" fill="#404254">
                <rect fill="#f2f5e9" fill-opacity="0.5" stroke="#606060" stroke-width=".5" x="0" y="0" width="60" height="60"/>
                <use id="zoomplus" xlink:href="#zoomPlus" x="17" y="9" onmousedown="handleZoom(evt,'in')"/>
                <use id="zoomminus" xlink:href="#zoomMin" x="42" y="9" onmousedown="handleZoom(evt,'out')"/>
                <use id="reset" xlink:href="#resetDef" x="30" y="36" onmousedown="handleReset()"/>
                <g id="arrowUp" xlink:href="#dirArrow" transform="translate(30 24)" onmousedown="handlePan(0,-1)">
                  <use xlink:href="#rim" fill="#404040">
                        <set attributeName="fill" to="#808080" begin="arrowUp.mouseover" end="arrowUp.mouseout"/>
                  </use>
                  <path fill="none" stroke="white" stroke-width="1.5" d="M0,-3.0v7 M-2.5,-0.5L0,-3.0L2.5,-0.5"/>
                </g>
                <g id="arrowRight" xlink:href="#dirArrow" transform="rotate(90) translate(36 -43)" onmousedown="handlePan(1,0)">
                  <use xlink:href="#rim" fill="#404040">
                        <set attributeName="fill" to="#808080" begin="arrowRight.mouseover" end="arrowRight.mouseout"/>
                  </use>
                  <path fill="none" stroke="white" stroke-width="1.5" d="M0,-3.0v7 M-2.5,-0.5L0,-3.0L2.5,-0.5"/>
                </g>
                <g id="arrowDown" xlink:href="#dirArrow" transform="rotate(180) translate(-30 -48)" onmousedown="handlePan(0,1)">
                  <use xlink:href="#rim" fill="#404040">
                        <set attributeName="fill" to="#808080" begin="arrowDown.mouseover" end="arrowDown.mouseout"/>
                  </use>
                  <path fill="none" stroke="white" stroke-width="1.5" d="M0,-3.0v7 M-2.5,-0.5L0,-3.0L2.5,-0.5"/>
                </g>
                <g id="arrowLeft" xlink:href="#dirArrow" transform="rotate(270) translate(-36 17)" onmousedown="handlePan(-1,0)">
                  <use xlink:href="#rim" fill="#404040">
                        <set attributeName="fill" to="#808080" begin="arrowLeft.mouseover" end="arrowLeft.mouseout"/>
                  </use>
                  <path fill="none" stroke="white" stroke-width="1.5" d="M0,-3.0v7 M-2.5,-0.5L0,-3.0L2.5,-0.5"/>
                </g>
        </g>
        <svg viewBox="0 0 15 15" width="100%" height="30px" preserveAspectRatio="xMaxYMin meet">
         <g id="arrow_out" transform="scale(0.3 0.3)">
          <a xlink:href="classpolyfem_1_1solver_1_1_friction_form_a2d39d4abbf850fbe702a89befd07da70_cgraph_org.svg" target="_base">
           <rect id="button" ry="5" rx="5" y="6" x="6" height="38" width="38"
                fill="#f2f5e9" fill-opacity="0.5" stroke="#606060" stroke-width="1.0"/>
           <path id="arrow"
             d="M 11.500037,31.436501 C 11.940474,20.09759 22.043105,11.32322 32.158766,21.979434 L 37.068811,17.246167 C 37.068811,17.246167 37.088388,32 37.088388,32 L 22.160133,31.978069 C 22.160133,31.978069 26.997745,27.140456 26.997745,27.140456 C 18.528582,18.264221 13.291696,25.230495 11.500037,31.436501 z"
             style="fill:#404040;"/>
          </a>
         </g>
        </svg>
</svg>
