<?xml version="1.0" encoding="UTF-8" standalone="no"?>
<!DOCTYPE svg PUBLIC "-//W3C//DTD SVG 1.1//EN"
 "http://www.w3.org/Graphics/SVG/1.1/DTD/svg11.dtd">
<!-- Generated by graphviz version 2.43.0 (0)
 -->
<!-- Title: polyfem::State::solve_linear Pages: 1 -->
<svg width="685pt" height="229pt"
 viewBox="0.00 0.00 685.00 229.00" xmlns="http://www.w3.org/2000/svg" xmlns:xlink="http://www.w3.org/1999/xlink">
<g id="graph0" class="graph" transform="scale(1 1) rotate(0) translate(4 225)">
<title>polyfem::State::solve_linear</title>
<!-- Node1 -->
<g id="Node000001" class="node">
<title>Node1</title>
<g id="a_Node000001"><a xlink:title="solves a linear problem">
<polygon fill="#999999" stroke="#666666" points="121,-99 0,-99 0,-69 121,-69 121,-99"/>
<text text-anchor="start" x="8" y="-87" font-family="Helvetica,sans-Serif" font-size="10.00">polyfem::State::solve</text>
<text text-anchor="middle" x="60.5" y="-76" font-family="Helvetica,sans-Serif" font-size="10.00">_linear</text>
</a>
</g>
</g>
<!-- Node1&#45;&gt;Node1 -->
<g id="edge10_Node000001_Node000001" class="edge">
<title>Node1&#45;&gt;Node1</title>
<g id="a_edge10_Node000001_Node000001"><a xlink:title=" ">
<path fill="none" stroke="#63b8ff" d="M30.27,-99.28C23.55,-108.41 33.62,-117 60.5,-117 76.46,-117 86.49,-113.97 90.61,-109.6"/>
<polygon fill="#63b8ff" stroke="#63b8ff" points="94.11,-109.32 90.73,-99.28 87.11,-109.23 94.11,-109.32"/>
</a>
</g>
</g>
<!-- Node2 -->
<g id="Node000002" class="node">
<title>Node2</title>
<g id="a_Node000002"><a xlink:href="classpolyfem_1_1_state.html#aae415f54c3727a9cbc502e854276e4e9" target="_top" xlink:title="utility that builds the stiffness matrix and collects stats, used only for linear problems">
<polygon fill="white" stroke="#666666" points="292.5,-166 173.5,-166 173.5,-136 292.5,-136 292.5,-166"/>
<text text-anchor="start" x="181.5" y="-154" font-family="Helvetica,sans-Serif" font-size="10.00">polyfem::State::build</text>
<text text-anchor="middle" x="233" y="-143" font-family="Helvetica,sans-Serif" font-size="10.00">_stiffness_mat</text>
</a>
</g>
</g>
<!-- Node1&#45;&gt;Node2 -->
<g id="edge1_Node000001_Node000002" class="edge">
<title>Node1&#45;&gt;Node2</title>
<g id="a_edge1_Node000001_Node000002"><a xlink:title=" ">
<path fill="none" stroke="#63b8ff" d="M99.76,-99.04C124.68,-108.83 157.4,-121.68 184.05,-132.16"/>
<polygon fill="#63b8ff" stroke="#63b8ff" points="182.98,-135.5 193.57,-135.9 185.54,-128.98 182.98,-135.5"/>
</a>
</g>
</g>
<!-- Node5 -->
<g id="Node000005" class="node">
<title>Node5</title>
<g id="a_Node000005"><a xlink:href="namespacepolyfem.html#a03f3d75072d2fd19f70cd886a51d10dd" target="_top" xlink:title="Retrieves the current logger.">
<polygon fill="white" stroke="#666666" points="485.5,-113.5 391.5,-113.5 391.5,-94.5 485.5,-94.5 485.5,-113.5"/>
<text text-anchor="middle" x="438.5" y="-101.5" font-family="Helvetica,sans-Serif" font-size="10.00">polyfem::logger</text>
</a>
</g>
</g>
<!-- Node1&#45;&gt;Node5 -->
<g id="edge7_Node000001_Node000005" class="edge">
<title>Node1&#45;&gt;Node5</title>
<g id="a_edge7_Node000001_Node000005"><a xlink:title=" ">
<path fill="none" stroke="#63b8ff" d="M121.08,-87.17C192.38,-90.96 310.89,-97.27 380.86,-100.99"/>
<polygon fill="#63b8ff" stroke="#63b8ff" points="381.07,-104.5 391.24,-101.54 381.44,-97.51 381.07,-104.5"/>
</a>
</g>
</g>
<!-- Node7 -->
<g id="Node000007" class="node">
<title>Node7</title>
<g id="a_Node000007"><a xlink:href="classpolyfem_1_1_state.html#ae48e7478cf500860b285dfc3f4a80fee" target="_top" xlink:title="does the simulation has contact">
<polygon fill="white" stroke="#666666" points="284.5,-78 181.5,-78 181.5,-48 284.5,-48 284.5,-78"/>
<text text-anchor="start" x="189.5" y="-66" font-family="Helvetica,sans-Serif" font-size="10.00">polyfem::State::is</text>
<text text-anchor="middle" x="233" y="-55" font-family="Helvetica,sans-Serif" font-size="10.00">_contact_enabled</text>
</a>
</g>
</g>
<!-- Node1&#45;&gt;Node7 -->
<g id="edge6_Node000001_Node000007" class="edge">
<title>Node1&#45;&gt;Node7</title>
<g id="a_edge6_Node000001_Node000007"><a xlink:title=" ">
<path fill="none" stroke="#63b8ff" d="M121.13,-76.66C137.44,-74.65 155.12,-72.47 171.47,-70.46"/>
<polygon fill="#63b8ff" stroke="#63b8ff" points="171.96,-73.92 181.45,-69.23 171.1,-66.97 171.96,-73.92"/>
</a>
</g>
</g>
<!-- Node8 -->
<g id="Node000008" class="node">
<title>Node8</title>
<g id="a_Node000008"><a xlink:href="classpolyfem_1_1_state.html#a0f244ce7a68b1230a497746a9e4fa5b4" target="_top" xlink:title="quadrature used for projecting boundary conditions">
<polygon fill="white" stroke="#666666" points="309,-30 157,-30 157,0 309,0 309,-30"/>
<text text-anchor="start" x="165" y="-18" font-family="Helvetica,sans-Serif" font-size="10.00">polyfem::State::n_boundary</text>
<text text-anchor="middle" x="233" y="-7" font-family="Helvetica,sans-Serif" font-size="10.00">_samples</text>
</a>
</g>
</g>
<!-- Node1&#45;&gt;Node8 -->
<g id="edge8_Node000001_Node000008" class="edge">
<title>Node1&#45;&gt;Node8</title>
<g id="a_edge8_Node000001_Node000008"><a xlink:title=" ">
<path fill="none" stroke="#63b8ff" d="M91.17,-68.79C109.8,-59.55 134.49,-47.86 157,-39 161.81,-37.11 166.83,-35.25 171.9,-33.46"/>
<polygon fill="#63b8ff" stroke="#63b8ff" points="173.33,-36.67 181.65,-30.11 171.06,-30.05 173.33,-36.67"/>
</a>
</g>
</g>
<!-- Node3 -->
<g id="Node000003" class="node">
<title>Node3</title>
<g id="a_Node000003"><a xlink:href="classpolyfem_1_1_state.html#a106191fffa5a7be86713ae76fb6d5053" target="_top" xlink:title="Get a constant reference to the geometry mapping bases.">
<polygon fill="white" stroke="#666666" points="499.5,-221 377.5,-221 377.5,-191 499.5,-191 499.5,-221"/>
<text text-anchor="start" x="385.5" y="-209" font-family="Helvetica,sans-Serif" font-size="10.00">polyfem::State::geom</text>
<text text-anchor="middle" x="438.5" y="-198" font-family="Helvetica,sans-Serif" font-size="10.00">_bases</text>
</a>
</g>
</g>
<!-- Node2&#45;&gt;Node3 -->
<g id="edge2_Node000002_Node000003" class="edge">
<title>Node2&#45;&gt;Node3</title>
<g id="a_edge2_Node000002_Node000003"><a xlink:title=" ">
<path fill="none" stroke="#63b8ff" d="M287.02,-166.02C305.36,-171.16 326.07,-176.9 345,-182 352.74,-184.09 360.86,-186.24 368.94,-188.36"/>
<polygon fill="#63b8ff" stroke="#63b8ff" points="368.18,-191.78 378.74,-190.93 369.95,-185.01 368.18,-191.78"/>
</a>
</g>
</g>
<!-- Node2&#45;&gt;Node5 -->
<g id="edge4_Node000002_Node000005" class="edge">
<title>Node2&#45;&gt;Node5</title>
<g id="a_edge4_Node000002_Node000005"><a xlink:title=" ">
<path fill="none" stroke="#63b8ff" d="M291.49,-135.98C308.67,-131.63 327.56,-126.99 345,-123 356.74,-120.32 369.35,-117.61 381.37,-115.11"/>
<polygon fill="#63b8ff" stroke="#63b8ff" points="382.21,-118.51 391.3,-113.07 380.8,-111.66 382.21,-118.51"/>
</a>
</g>
</g>
<!-- Node6 -->
<g id="Node000006" class="node">
<title>Node6</title>
<g id="a_Node000006"><a xlink:href="classpolyfem_1_1assembler_1_1_assembler_utils.html#aaf6064d65afd290473d37c71e256b1b5" target="_top" xlink:title="utility to merge 3 blocks of mixed matrices, A=velocity_stiffness, B=mixed_stiffness,...">
<polygon fill="white" stroke="#666666" points="505.5,-172.5 371.5,-172.5 371.5,-131.5 505.5,-131.5 505.5,-172.5"/>
<text text-anchor="start" x="379.5" y="-160.5" font-family="Helvetica,sans-Serif" font-size="10.00">polyfem::assembler</text>
<text text-anchor="start" x="379.5" y="-149.5" font-family="Helvetica,sans-Serif" font-size="10.00">::AssemblerUtils::merge</text>
<text text-anchor="middle" x="438.5" y="-138.5" font-family="Helvetica,sans-Serif" font-size="10.00">_mixed_matrices</text>
</a>
</g>
</g>
<!-- Node2&#45;&gt;Node6 -->
<g id="edge5_Node000002_Node000006" class="edge">
<title>Node2&#45;&gt;Node6</title>
<g id="a_edge5_Node000002_Node000006"><a xlink:title=" ">
<path fill="none" stroke="#63b8ff" d="M292.59,-151.29C313.97,-151.39 338.48,-151.51 361.18,-151.62"/>
<polygon fill="#63b8ff" stroke="#63b8ff" points="361.44,-155.13 371.46,-151.68 361.48,-148.13 361.44,-155.13"/>
</a>
</g>
</g>
<!-- Node4 -->
<g id="Node000004" class="node">
<title>Node4</title>
<g id="a_Node000004"><a xlink:href="classpolyfem_1_1_state.html#ab956f7e3ad92b7ffc1ca1a45ee47903f" target="_top" xlink:title="check if using iso parametric bases">
<polygon fill="white" stroke="#666666" points="677,-221 568,-221 568,-191 677,-191 677,-221"/>
<text text-anchor="start" x="576" y="-209" font-family="Helvetica,sans-Serif" font-size="10.00">polyfem::State::iso</text>
<text text-anchor="middle" x="622.5" y="-198" font-family="Helvetica,sans-Serif" font-size="10.00">_parametric</text>
</a>
</g>
</g>
<!-- Node3&#45;&gt;Node4 -->
<g id="edge3_Node000003_Node000004" class="edge">
<title>Node3&#45;&gt;Node4</title>
<g id="a_edge3_Node000003_Node000004"><a xlink:title=" ">
<path fill="none" stroke="#63b8ff" d="M499.6,-206C518.29,-206 538.96,-206 557.89,-206"/>
<polygon fill="#63b8ff" stroke="#63b8ff" points="557.9,-209.5 567.9,-206 557.9,-202.5 557.9,-209.5"/>
</a>
</g>
</g>
<!-- Node9 -->
<g id="Node000009" class="node">
<title>Node9</title>
<g id="a_Node000009"><a xlink:href="classpolyfem_1_1assembler_1_1_assembler_utils.html#a80818109ce6766a1fae1733a0b2e87dc" target="_top" xlink:title="utility for retrieving the needed quadrature order to precisely integrate the given form on the given...">
<polygon fill="white" stroke="#666666" points="532,-30 345,-30 345,0 532,0 532,-30"/>
<text text-anchor="start" x="353" y="-18" font-family="Helvetica,sans-Serif" font-size="10.00">polyfem::assembler</text>
<text text-anchor="middle" x="438.5" y="-7" font-family="Helvetica,sans-Serif" font-size="10.00">::AssemblerUtils::quadrature_order</text>
</a>
</g>
</g>
<!-- Node8&#45;&gt;Node9 -->
<g id="edge9_Node000008_Node000009" class="edge">
<title>Node8&#45;&gt;Node9</title>
<g id="a_edge9_Node000008_Node000009"><a xlink:title=" ">
<path fill="none" stroke="#63b8ff" d="M309.2,-15C317.5,-15 326.05,-15 334.62,-15"/>
<polygon fill="#63b8ff" stroke="#63b8ff" points="334.66,-18.5 344.66,-15 334.66,-11.5 334.66,-18.5"/>
</a>
</g>
</g>
</g>
</svg>
