<?xml version="1.0" encoding="UTF-8" standalone="no"?>
<!DOCTYPE svg PUBLIC "-//W3C//DTD SVG 1.1//EN"
 "http://www.w3.org/Graphics/SVG/1.1/DTD/svg11.dtd">
<!-- Generated by graphviz version 2.43.0 (0)
 -->
<!-- Title: polyfem::IntegrableFunctional::set_j Pages: 1 -->
<svg width="368pt" height="590pt"
 viewBox="0.00 0.00 368.00 589.50" xmlns="http://www.w3.org/2000/svg" xmlns:xlink="http://www.w3.org/1999/xlink">
<g id="graph0" class="graph" transform="scale(1 1) rotate(0) translate(4 585.5)">
<title>polyfem::IntegrableFunctional::set_j</title>
<!-- Node1 -->
<g id="Node000001" class="node">
<title>Node1</title>
<g id="a_Node000001"><a xlink:title=" ">
<polygon fill="#999999" stroke="#666666" points="360,-294 197,-294 197,-264 360,-264 360,-294"/>
<text text-anchor="start" x="205" y="-282" font-family="Helvetica,sans-Serif" font-size="10.00">polyfem::IntegrableFunctional</text>
<text text-anchor="middle" x="278.5" y="-271" font-family="Helvetica,sans-Serif" font-size="10.00">::set_j</text>
</a>
</g>
</g>
<!-- Node2 -->
<g id="Node000002" class="node">
<title>Node2</title>
<g id="a_Node000002"><a xlink:href="classpolyfem_1_1solver_1_1_elastic_energy_form.html#a7551c8d1d37186625404a63bdf9b6b19" target="_top" xlink:title=" ">
<polygon fill="white" stroke="#666666" points="150.5,-581.5 10.5,-581.5 10.5,-540.5 150.5,-540.5 150.5,-581.5"/>
<text text-anchor="start" x="18.5" y="-569.5" font-family="Helvetica,sans-Serif" font-size="10.00">polyfem::solver::Elastic</text>
<text text-anchor="start" x="18.5" y="-558.5" font-family="Helvetica,sans-Serif" font-size="10.00">EnergyForm::get_integral</text>
<text text-anchor="middle" x="80.5" y="-547.5" font-family="Helvetica,sans-Serif" font-size="10.00">_functional</text>
</a>
</g>
</g>
<!-- Node1&#45;&gt;Node2 -->
<g id="edge1_Node000001_Node000002" class="edge">
<title>Node1&#45;&gt;Node2</title>
<g id="a_edge1_Node000001_Node000002"><a xlink:title=" ">
<path fill="none" stroke="#63b8ff" d="M272.56,-304.06C261.45,-354.07 229.88,-466.92 161,-531 157.22,-534.52 152.99,-537.63 148.5,-540.39"/>
<polygon fill="#63b8ff" stroke="#63b8ff" points="276.02,-304.63 274.68,-294.11 269.17,-303.16 276.02,-304.63"/>
</a>
</g>
</g>
<!-- Node3 -->
<g id="Node000003" class="node">
<title>Node3</title>
<g id="a_Node000003"><a xlink:href="classpolyfem_1_1solver_1_1_stress_norm_form.html#a9756fc5f3a90d93af7bde976383f8e19" target="_top" xlink:title=" ">
<polygon fill="white" stroke="#666666" points="160.5,-522 0.5,-522 0.5,-492 160.5,-492 160.5,-522"/>
<text text-anchor="start" x="8.5" y="-510" font-family="Helvetica,sans-Serif" font-size="10.00">polyfem::solver::StressNorm</text>
<text text-anchor="middle" x="80.5" y="-499" font-family="Helvetica,sans-Serif" font-size="10.00">Form::get_integral_functional</text>
</a>
</g>
</g>
<!-- Node1&#45;&gt;Node3 -->
<g id="edge2_Node000001_Node000003" class="edge">
<title>Node1&#45;&gt;Node3</title>
<g id="a_edge2_Node000001_Node000003"><a xlink:title=" ">
<path fill="none" stroke="#63b8ff" d="M270.11,-303.79C256.03,-346.74 221.27,-435 161,-483 156.71,-486.41 151.95,-489.34 146.94,-491.85"/>
<polygon fill="#63b8ff" stroke="#63b8ff" points="273.49,-304.73 273.17,-294.14 266.81,-302.61 273.49,-304.73"/>
</a>
</g>
</g>
<!-- Node4 -->
<g id="Node000004" class="node">
<title>Node4</title>
<g id="a_Node000004"><a xlink:href="classpolyfem_1_1solver_1_1_dirichlet_energy_form.html#add4fbf096543d08dc0a21975ef688bb5" target="_top" xlink:title=" ">
<polygon fill="white" stroke="#666666" points="150.5,-473.5 10.5,-473.5 10.5,-432.5 150.5,-432.5 150.5,-473.5"/>
<text text-anchor="start" x="18.5" y="-461.5" font-family="Helvetica,sans-Serif" font-size="10.00">polyfem::solver::Dirichlet</text>
<text text-anchor="start" x="18.5" y="-450.5" font-family="Helvetica,sans-Serif" font-size="10.00">EnergyForm::get_integral</text>
<text text-anchor="middle" x="80.5" y="-439.5" font-family="Helvetica,sans-Serif" font-size="10.00">_functional</text>
</a>
</g>
</g>
<!-- Node1&#45;&gt;Node4 -->
<g id="edge3_Node000001_Node000004" class="edge">
<title>Node1&#45;&gt;Node4</title>
<g id="a_edge3_Node000001_Node000004"><a xlink:title=" ">
<path fill="none" stroke="#63b8ff" d="M263.81,-302.87C244.59,-334.44 206.79,-389.92 161,-423 156.22,-426.46 150.99,-429.56 145.57,-432.35"/>
<polygon fill="#63b8ff" stroke="#63b8ff" points="266.82,-304.65 268.95,-294.27 260.81,-301.06 266.82,-304.65"/>
</a>
</g>
</g>
<!-- Node5 -->
<g id="Node000005" class="node">
<title>Node5</title>
<g id="a_Node000005"><a xlink:href="classpolyfem_1_1solver_1_1_compliance_form.html#a02541b1d1dfd36735b26bd335eef4ec6" target="_top" xlink:title=" ">
<polygon fill="white" stroke="#666666" points="160.5,-414 0.5,-414 0.5,-384 160.5,-384 160.5,-414"/>
<text text-anchor="start" x="8.5" y="-402" font-family="Helvetica,sans-Serif" font-size="10.00">polyfem::solver::Compliance</text>
<text text-anchor="middle" x="80.5" y="-391" font-family="Helvetica,sans-Serif" font-size="10.00">Form::get_integral_functional</text>
</a>
</g>
</g>
<!-- Node1&#45;&gt;Node5 -->
<g id="edge4_Node000001_Node000005" class="edge">
<title>Node1&#45;&gt;Node5</title>
<g id="a_edge4_Node000001_Node000005"><a xlink:title=" ">
<path fill="none" stroke="#63b8ff" d="M255.92,-301.35C233.89,-322.98 197.8,-355.32 161,-375 154.64,-378.4 147.74,-381.39 140.74,-383.99"/>
<polygon fill="#63b8ff" stroke="#63b8ff" points="258.49,-303.72 263.1,-294.18 253.55,-298.76 258.49,-303.72"/>
</a>
</g>
</g>
<!-- Node6 -->
<g id="Node000006" class="node">
<title>Node6</title>
<g id="a_Node000006"><a xlink:href="classpolyfem_1_1solver_1_1_position_form.html#aab1d8f56b015d9663434593bc244ab9a" target="_top" xlink:title=" ">
<polygon fill="white" stroke="#666666" points="160.5,-366 0.5,-366 0.5,-336 160.5,-336 160.5,-366"/>
<text text-anchor="start" x="8.5" y="-354" font-family="Helvetica,sans-Serif" font-size="10.00">polyfem::solver::Position</text>
<text text-anchor="middle" x="80.5" y="-343" font-family="Helvetica,sans-Serif" font-size="10.00">Form::get_integral_functional</text>
</a>
</g>
</g>
<!-- Node1&#45;&gt;Node6 -->
<g id="edge5_Node000001_Node000006" class="edge">
<title>Node1&#45;&gt;Node6</title>
<g id="a_edge5_Node000001_Node000006"><a xlink:title=" ">
<path fill="none" stroke="#63b8ff" d="M234.13,-298.05C212.38,-307.3 185.5,-318.28 161,-327 152.31,-330.09 142.99,-333.14 133.91,-335.97"/>
<polygon fill="#63b8ff" stroke="#63b8ff" points="235.62,-301.22 243.43,-294.07 232.86,-294.79 235.62,-301.22"/>
</a>
</g>
</g>
<!-- Node7 -->
<g id="Node000007" class="node">
<title>Node7</title>
<g id="a_Node000007"><a xlink:href="classpolyfem_1_1solver_1_1_acceleration_form.html#af4ab0b6367ac54caee8856c554a2e462" target="_top" xlink:title=" ">
<polygon fill="white" stroke="#666666" points="160.5,-318 0.5,-318 0.5,-288 160.5,-288 160.5,-318"/>
<text text-anchor="start" x="8.5" y="-306" font-family="Helvetica,sans-Serif" font-size="10.00">polyfem::solver::Acceleration</text>
<text text-anchor="middle" x="80.5" y="-295" font-family="Helvetica,sans-Serif" font-size="10.00">Form::get_integral_functional</text>
</a>
</g>
</g>
<!-- Node1&#45;&gt;Node7 -->
<g id="edge6_Node000001_Node000007" class="edge">
<title>Node1&#45;&gt;Node7</title>
<g id="a_edge6_Node000001_Node000007"><a xlink:title=" ">
<path fill="none" stroke="#63b8ff" d="M186.8,-290.11C178.12,-291.17 169.36,-292.24 160.81,-293.29"/>
<polygon fill="#63b8ff" stroke="#63b8ff" points="187.43,-293.56 196.93,-288.87 186.58,-286.61 187.43,-293.56"/>
</a>
</g>
</g>
<!-- Node8 -->
<g id="Node000008" class="node">
<title>Node8</title>
<g id="a_Node000008"><a xlink:href="classpolyfem_1_1solver_1_1_kinetic_form.html#ad9d8857439d3f591216d375aace7b1d5" target="_top" xlink:title=" ">
<polygon fill="white" stroke="#666666" points="160.5,-270 0.5,-270 0.5,-240 160.5,-240 160.5,-270"/>
<text text-anchor="start" x="8.5" y="-258" font-family="Helvetica,sans-Serif" font-size="10.00">polyfem::solver::Kinetic</text>
<text text-anchor="middle" x="80.5" y="-247" font-family="Helvetica,sans-Serif" font-size="10.00">Form::get_integral_functional</text>
</a>
</g>
</g>
<!-- Node1&#45;&gt;Node8 -->
<g id="edge7_Node000001_Node000008" class="edge">
<title>Node1&#45;&gt;Node8</title>
<g id="a_edge7_Node000001_Node000008"><a xlink:title=" ">
<path fill="none" stroke="#63b8ff" d="M186.8,-267.89C178.12,-266.83 169.36,-265.76 160.81,-264.71"/>
<polygon fill="#63b8ff" stroke="#63b8ff" points="186.58,-271.39 196.93,-269.13 187.43,-264.44 186.58,-271.39"/>
</a>
</g>
</g>
<!-- Node9 -->
<g id="Node000009" class="node">
<title>Node9</title>
<g id="a_Node000009"><a xlink:href="classpolyfem_1_1solver_1_1_stress_form.html#a65b7888ecd827796b944a132b7985975" target="_top" xlink:title=" ">
<polygon fill="white" stroke="#666666" points="157.5,-222 3.5,-222 3.5,-192 157.5,-192 157.5,-222"/>
<text text-anchor="start" x="11.5" y="-210" font-family="Helvetica,sans-Serif" font-size="10.00">polyfem::solver::StressForm</text>
<text text-anchor="middle" x="80.5" y="-199" font-family="Helvetica,sans-Serif" font-size="10.00">::get_integral_functional</text>
</a>
</g>
</g>
<!-- Node1&#45;&gt;Node9 -->
<g id="edge8_Node000001_Node000009" class="edge">
<title>Node1&#45;&gt;Node9</title>
<g id="a_edge8_Node000001_Node000009"><a xlink:title=" ">
<path fill="none" stroke="#63b8ff" d="M234.13,-259.95C212.38,-250.7 185.5,-239.72 161,-231 152.31,-227.91 142.99,-224.86 133.91,-222.03"/>
<polygon fill="#63b8ff" stroke="#63b8ff" points="232.86,-263.21 243.43,-263.93 235.62,-256.78 232.86,-263.21"/>
</a>
</g>
</g>
<!-- Node10 -->
<g id="Node000010" class="node">
<title>Node10</title>
<g id="a_Node000010"><a xlink:href="classpolyfem_1_1solver_1_1_volume_form.html#a469c883db14101810e53065adb43841a" target="_top" xlink:title=" ">
<polygon fill="white" stroke="#666666" points="161,-174 0,-174 0,-144 161,-144 161,-174"/>
<text text-anchor="start" x="8" y="-162" font-family="Helvetica,sans-Serif" font-size="10.00">polyfem::solver::VolumeForm</text>
<text text-anchor="middle" x="80.5" y="-151" font-family="Helvetica,sans-Serif" font-size="10.00">::get_integral_functional</text>
</a>
</g>
</g>
<!-- Node1&#45;&gt;Node10 -->
<g id="edge9_Node000001_Node000010" class="edge">
<title>Node1&#45;&gt;Node10</title>
<g id="a_edge9_Node000001_Node000010"><a xlink:title=" ">
<path fill="none" stroke="#63b8ff" d="M255.92,-256.65C233.89,-235.02 197.8,-202.68 161,-183 154.64,-179.6 147.74,-176.61 140.74,-174.01"/>
<polygon fill="#63b8ff" stroke="#63b8ff" points="253.55,-259.24 263.1,-263.82 258.49,-254.28 253.55,-259.24"/>
</a>
</g>
</g>
<!-- Node11 -->
<g id="Node000011" class="node">
<title>Node11</title>
<g id="a_Node000011"><a xlink:href="classpolyfem_1_1solver_1_1_target_form.html#a3d5ef3814ac921658a55bbc521755e26" target="_top" xlink:title=" ">
<polygon fill="white" stroke="#666666" points="157.5,-126 3.5,-126 3.5,-96 157.5,-96 157.5,-126"/>
<text text-anchor="start" x="11.5" y="-114" font-family="Helvetica,sans-Serif" font-size="10.00">polyfem::solver::TargetForm</text>
<text text-anchor="middle" x="80.5" y="-103" font-family="Helvetica,sans-Serif" font-size="10.00">::get_integral_functional</text>
</a>
</g>
</g>
<!-- Node1&#45;&gt;Node11 -->
<g id="edge10_Node000001_Node000011" class="edge">
<title>Node1&#45;&gt;Node11</title>
<g id="a_edge10_Node000001_Node000011"><a xlink:title=" ">
<path fill="none" stroke="#63b8ff" d="M264.42,-255.16C245.66,-223.16 208.12,-166.68 161,-135 155.86,-131.54 150.2,-128.57 144.34,-126.01"/>
<polygon fill="#63b8ff" stroke="#63b8ff" points="261.41,-256.94 269.42,-263.88 267.48,-253.46 261.41,-256.94"/>
</a>
</g>
</g>
<!-- Node12 -->
<g id="Node000012" class="node">
<title>Node12</title>
<g id="a_Node000012"><a xlink:href="classpolyfem_1_1solver_1_1_s_d_f_target_form.html#acd32d055ab9a485fa65e4b77089d9171" target="_top" xlink:title=" ">
<polygon fill="white" stroke="#666666" points="160.5,-78 0.5,-78 0.5,-48 160.5,-48 160.5,-78"/>
<text text-anchor="start" x="8.5" y="-66" font-family="Helvetica,sans-Serif" font-size="10.00">polyfem::solver::SDFTarget</text>
<text text-anchor="middle" x="80.5" y="-55" font-family="Helvetica,sans-Serif" font-size="10.00">Form::get_integral_functional</text>
</a>
</g>
</g>
<!-- Node1&#45;&gt;Node12 -->
<g id="edge11_Node000001_Node000012" class="edge">
<title>Node1&#45;&gt;Node12</title>
<g id="a_edge11_Node000001_Node000012"><a xlink:title=" ">
<path fill="none" stroke="#63b8ff" d="M269.27,-254.5C254.28,-213.65 218.67,-131.7 161,-87 156.56,-83.56 151.62,-80.6 146.45,-78.07"/>
<polygon fill="#63b8ff" stroke="#63b8ff" points="265.98,-255.71 272.63,-263.95 272.57,-253.36 265.98,-255.71"/>
</a>
</g>
</g>
<!-- Node13 -->
<g id="Node000013" class="node">
<title>Node13</title>
<g id="a_Node000013"><a xlink:href="classpolyfem_1_1solver_1_1_mesh_target_form.html#a30e03dcba25de597416db1bac154f0cb" target="_top" xlink:title=" ">
<polygon fill="white" stroke="#666666" points="160.5,-30 0.5,-30 0.5,0 160.5,0 160.5,-30"/>
<text text-anchor="start" x="8.5" y="-18" font-family="Helvetica,sans-Serif" font-size="10.00">polyfem::solver::MeshTarget</text>
<text text-anchor="middle" x="80.5" y="-7" font-family="Helvetica,sans-Serif" font-size="10.00">Form::get_integral_functional</text>
</a>
</g>
</g>
<!-- Node1&#45;&gt;Node13 -->
<g id="edge12_Node000001_Node000013" class="edge">
<title>Node1&#45;&gt;Node13</title>
<g id="a_edge12_Node000001_Node000013"><a xlink:title=" ">
<path fill="none" stroke="#63b8ff" d="M272.31,-253.72C260.97,-204.89 229.32,-97.25 161,-39 156.94,-35.54 152.39,-32.58 147.59,-30.04"/>
<polygon fill="#63b8ff" stroke="#63b8ff" points="268.96,-254.75 274.55,-263.75 275.79,-253.23 268.96,-254.75"/>
</a>
</g>
</g>
</g>
</svg>
