<?xml version="1.0" encoding="UTF-8" standalone="no"?>
<!DOCTYPE svg PUBLIC "-//W3C//DTD SVG 1.1//EN"
 "http://www.w3.org/Graphics/SVG/1.1/DTD/svg11.dtd">
<!-- Generated by graphviz version 2.43.0 (0)
 -->
<!-- Title: polyfem::assembler::Assembler::is_fluid Pages: 1 -->
<svg width="291pt" height="98pt"
 viewBox="0.00 0.00 291.00 97.50" xmlns="http://www.w3.org/2000/svg" xmlns:xlink="http://www.w3.org/1999/xlink">
<g id="graph0" class="graph" transform="scale(1 1) rotate(0) translate(4 93.5)">
<title>polyfem::assembler::Assembler::is_fluid</title>
<!-- Node1 -->
<g id="node1" class="node">
<title>Node1</title>
<g id="a_node1"><a xlink:title=" ">
<polygon fill="#999999" stroke="#666666" points="283,-62.5 168,-62.5 168,-32.5 283,-32.5 283,-62.5"/>
<text text-anchor="start" x="176" y="-50.5" font-family="Helvetica,sans-Serif" font-size="10.00">polyfem::assembler</text>
<text text-anchor="middle" x="225.5" y="-39.5" font-family="Helvetica,sans-Serif" font-size="10.00">::Assembler::is_fluid</text>
</a>
</g>
</g>
<!-- Node2 -->
<g id="node2" class="node">
<title>Node2</title>
<g id="a_node2"><a xlink:href="classpolyfem_1_1_state.html#a23240dd8300e9591ac6cdc08140795b6" target="_top" xlink:title="utility to set the material and the problem dimension to only 1 assembler">
<polygon fill="white" stroke="#666666" points="121,-89.5 11,-89.5 11,-59.5 121,-59.5 121,-89.5"/>
<text text-anchor="start" x="19" y="-77.5" font-family="Helvetica,sans-Serif" font-size="10.00">polyfem::State::set</text>
<text text-anchor="middle" x="66" y="-66.5" font-family="Helvetica,sans-Serif" font-size="10.00">_materials</text>
</a>
</g>
</g>
<!-- Node1&#45;&gt;Node2 -->
<g id="edge1" class="edge">
<title>Node1&#45;&gt;Node2</title>
<path fill="none" stroke="#63b8ff" d="M157.55,-58.98C145.4,-61.06 132.87,-63.21 121.15,-65.22"/>
<polygon fill="#63b8ff" stroke="#63b8ff" points="158.37,-62.39 167.64,-57.25 157.19,-55.49 158.37,-62.39"/>
</g>
<!-- Node3 -->
<g id="node3" class="node">
<title>Node3</title>
<g id="a_node3"><a xlink:href="classpolyfem_1_1assembler_1_1_generic_tensor_problem.html#aeb7bc1bff905955ea5b89e514cd6e5de" target="_top" xlink:title=" ">
<polygon fill="white" stroke="#666666" points="132,-41 0,-41 0,0 132,0 132,-41"/>
<text text-anchor="start" x="8" y="-29" font-family="Helvetica,sans-Serif" font-size="10.00">polyfem::assembler</text>
<text text-anchor="start" x="8" y="-18" font-family="Helvetica,sans-Serif" font-size="10.00">::GenericTensorProblem</text>
<text text-anchor="middle" x="66" y="-7" font-family="Helvetica,sans-Serif" font-size="10.00">::set_units</text>
</a>
</g>
</g>
<!-- Node1&#45;&gt;Node3 -->
<g id="edge2" class="edge">
<title>Node1&#45;&gt;Node3</title>
<path fill="none" stroke="#63b8ff" d="M157.76,-36.06C149.25,-34.6 140.55,-33.11 132.07,-31.65"/>
<polygon fill="#63b8ff" stroke="#63b8ff" points="157.19,-39.51 167.64,-37.75 158.37,-32.61 157.19,-39.51"/>
</g>
</g>
</svg>
