<?xml version="1.0" encoding="UTF-8" standalone="no"?>
<!DOCTYPE svg PUBLIC "-//W3C//DTD SVG 1.1//EN"
 "http://www.w3.org/Graphics/SVG/1.1/DTD/svg11.dtd">
<!-- Generated by graphviz version 2.43.0 (0)
 -->
<!-- Title: polyfem::assembler::HookeLinearElasticity::size Pages: 1 -->
<!--zoomable 268 -->
<svg id="main" version="1.1" xmlns="http://www.w3.org/2000/svg" xmlns:xlink="http://www.w3.org/1999/xlink" xml:space="preserve" onload="init(evt)">
<style type="text/css"><![CDATA[
.edge:hover path { stroke: red; }
.edge:hover polygon { stroke: red; fill: red; }
]]></style>
<script type="text/javascript"><![CDATA[
var edges = document.getElementsByTagName('g');
if (edges && edges.length) {
  for (var i=0;i<edges.length;i++) {
    if (edges[i].id.substr(0,4)=='edge') {
      edges[i].setAttribute('class','edge');
    }
  }
}
]]></script>
        <defs>
                <circle id="rim" cx="0" cy="0" r="7"/>
                <circle id="rim2" cx="0" cy="0" r="3.5"/>
                <g id="zoomPlus">
                        <use xlink:href="#rim" fill="#404040">
                                <set attributeName="fill" to="#808080" begin="zoomplus.mouseover" end="zoomplus.mouseout"/>
                        </use>
                        <path d="M-4,0h8M0,-4v8" fill="none" stroke="white" stroke-width="1.5" pointer-events="none"/>
                </g>
                <g id="zoomMin">
                        <use xlink:href="#rim" fill="#404040">
                                <set attributeName="fill" to="#808080" begin="zoomminus.mouseover" end="zoomminus.mouseout"/>
                        </use>
                        <path d="M-4,0h8" fill="none" stroke="white" stroke-width="1.5" pointer-events="none"/>
                </g>
                <g id="dirArrow">
                        <path fill="none" stroke="white" stroke-width="1.5" d="M0,-3.0v7 M-2.5,-0.5L0,-3.0L2.5,-0.5"/>
                </g>
               <g id="resetDef">
                       <use xlink:href="#rim2" fill="#404040">
                               <set attributeName="fill" to="#808080" begin="reset.mouseover" end="reset.mouseout"/>
                       </use>
               </g>
        </defs>

<script type="text/javascript">
var viewWidth = 530;
var viewHeight = 268;
var sectionId = 'dynsection-9';
</script>
<script xlink:href="svgpan.js"/>
<svg id="graph" class="graph">
<g id="viewport">
<title>polyfem::assembler::HookeLinearElasticity::size</title>
<!-- Node1 -->
<g id="node1" class="node">
<title>Node1</title>
<g id="a_node1"><a xlink:title=" ">
<polygon fill="#bfbfbf" stroke="black" points="369,-126 369,-156 522,-156 522,-126 369,-126"/>
<text text-anchor="start" x="377" y="-144" font-family="Helvetica,sans-Serif" font-size="10.00">polyfem::assembler</text>
<text text-anchor="middle" x="445.5" y="-133" font-family="Helvetica,sans-Serif" font-size="10.00">::HookeLinearElasticity::size</text>
</a>
</g>
</g>
<!-- Node2 -->
<g id="node2" class="node">
<title>Node2</title>
<g id="a_node2"><a xlink:href="classpolyfem_1_1assembler_1_1_hooke_linear_elasticity.html#a559634b99bf134ffe76c7a804bc8c159" target="_top" xlink:title=" ">
<polygon fill="none" stroke="black" points="205,-218.5 205,-259.5 333,-259.5 333,-218.5 205,-218.5"/>
<text text-anchor="start" x="213" y="-247.5" font-family="Helvetica,sans-Serif" font-size="10.00">polyfem::assembler</text>
<text text-anchor="start" x="213" y="-236.5" font-family="Helvetica,sans-Serif" font-size="10.00">::HookeLinearElasticity</text>
<text text-anchor="middle" x="269" y="-225.5" font-family="Helvetica,sans-Serif" font-size="10.00">::assemble</text>
</a>
</g>
</g>
<!-- Node1&#45;&gt;Node2 -->
<g id="edge1" class="edge">
<title>Node1&#45;&gt;Node2</title>
<path fill="none" stroke="midnightblue" d="M409.01,-161.14C387.12,-173.54 358.46,-189.74 333,-204 324.7,-208.65 315.78,-213.62 307.34,-218.32"/>
<polygon fill="midnightblue" stroke="midnightblue" points="410.97,-164.05 417.95,-156.07 407.52,-157.96 410.97,-164.05"/>
</g>
<!-- Node3 -->
<g id="node3" class="node">
<title>Node3</title>
<g id="a_node3"><a xlink:href="classpolyfem_1_1assembler_1_1_hooke_linear_elasticity.html#a4267779b0f56623f20f3ebaff39eeb3e" target="_top" xlink:title=" ">
<polygon fill="none" stroke="black" points="205,-120.5 205,-161.5 333,-161.5 333,-120.5 205,-120.5"/>
<text text-anchor="start" x="213" y="-149.5" font-family="Helvetica,sans-Serif" font-size="10.00">polyfem::assembler</text>
<text text-anchor="start" x="213" y="-138.5" font-family="Helvetica,sans-Serif" font-size="10.00">::HookeLinearElasticity</text>
<text text-anchor="middle" x="269" y="-127.5" font-family="Helvetica,sans-Serif" font-size="10.00">::assign_stress_tensor</text>
</a>
</g>
</g>
<!-- Node1&#45;&gt;Node3 -->
<g id="edge2" class="edge">
<title>Node1&#45;&gt;Node3</title>
<path fill="none" stroke="midnightblue" d="M358.82,-141C350.15,-141 341.45,-141 333.08,-141"/>
<polygon fill="midnightblue" stroke="midnightblue" points="358.98,-144.5 368.98,-141 358.98,-137.5 358.98,-144.5"/>
</g>
<!-- Node4 -->
<g id="node4" class="node">
<title>Node4</title>
<g id="a_node4"><a xlink:href="classpolyfem_1_1assembler_1_1_hooke_linear_elasticity.html#a896de5ba1433c92d841024c3ea2e6e1a" target="_top" xlink:title=" ">
<polygon fill="none" stroke="black" points="16.5,-169.5 16.5,-210.5 152.5,-210.5 152.5,-169.5 16.5,-169.5"/>
<text text-anchor="start" x="24.5" y="-198.5" font-family="Helvetica,sans-Serif" font-size="10.00">polyfem::assembler</text>
<text text-anchor="start" x="24.5" y="-187.5" font-family="Helvetica,sans-Serif" font-size="10.00">::HookeLinearElasticity</text>
<text text-anchor="middle" x="84.5" y="-176.5" font-family="Helvetica,sans-Serif" font-size="10.00">::compute_stress_tensor</text>
</a>
</g>
</g>
<!-- Node1&#45;&gt;Node4 -->
<g id="edge6" class="edge">
<title>Node1&#45;&gt;Node4</title>
<path fill="none" stroke="midnightblue" d="M386.52,-158.79C369.43,-163.44 350.59,-167.99 333,-171 272.47,-181.37 202.64,-186.09 152.62,-188.22"/>
<polygon fill="midnightblue" stroke="midnightblue" points="387.67,-162.11 396.36,-156.05 385.79,-155.36 387.67,-162.11"/>
</g>
<!-- Node6 -->
<g id="node6" class="node">
<title>Node6</title>
<g id="a_node6"><a xlink:href="classpolyfem_1_1assembler_1_1_hooke_linear_elasticity.html#a8f59a561f54032433b4738f2121ca243" target="_top" xlink:title=" ">
<polygon fill="none" stroke="black" points="205,-60.5 205,-101.5 333,-101.5 333,-60.5 205,-60.5"/>
<text text-anchor="start" x="213" y="-89.5" font-family="Helvetica,sans-Serif" font-size="10.00">polyfem::assembler</text>
<text text-anchor="start" x="213" y="-78.5" font-family="Helvetica,sans-Serif" font-size="10.00">::HookeLinearElasticity</text>
<text text-anchor="middle" x="269" y="-67.5" font-family="Helvetica,sans-Serif" font-size="10.00">::compute_rhs</text>
</a>
</g>
</g>
<!-- Node1&#45;&gt;Node6 -->
<g id="edge5" class="edge">
<title>Node1&#45;&gt;Node6</title>
<path fill="none" stroke="midnightblue" d="M390.92,-122.58C371.59,-115.93 349.67,-108.39 329.84,-101.58"/>
<polygon fill="midnightblue" stroke="midnightblue" points="389.87,-125.92 400.47,-125.86 392.15,-119.3 389.87,-125.92"/>
</g>
<!-- Node7 -->
<g id="node7" class="node">
<title>Node7</title>
<g id="a_node7"><a xlink:href="classpolyfem_1_1assembler_1_1_hooke_linear_elasticity.html#a113212fe39e0fc3ac9df7f8e2d7e6281" target="_top" xlink:title=" ">
<polygon fill="none" stroke="black" points="205,-0.5 205,-41.5 333,-41.5 333,-0.5 205,-0.5"/>
<text text-anchor="start" x="213" y="-29.5" font-family="Helvetica,sans-Serif" font-size="10.00">polyfem::assembler</text>
<text text-anchor="start" x="213" y="-18.5" font-family="Helvetica,sans-Serif" font-size="10.00">::HookeLinearElasticity</text>
<text text-anchor="middle" x="269" y="-7.5" font-family="Helvetica,sans-Serif" font-size="10.00">::set_size</text>
</a>
</g>
</g>
<!-- Node1&#45;&gt;Node7 -->
<g id="edge7" class="edge">
<title>Node1&#45;&gt;Node7</title>
<path fill="none" stroke="midnightblue" d="M420.98,-119.27C399.22,-99.86 365.44,-71.42 333,-51 327.77,-47.71 322.13,-44.54 316.44,-41.57"/>
<polygon fill="midnightblue" stroke="midnightblue" points="418.65,-121.89 428.42,-125.98 423.34,-116.69 418.65,-121.89"/>
</g>
<!-- Node3&#45;&gt;Node4 -->
<g id="edge3" class="edge">
<title>Node3&#45;&gt;Node4</title>
<path fill="none" stroke="midnightblue" d="M194.89,-160.63C180.93,-164.38 166.37,-168.29 152.61,-171.98"/>
<polygon fill="midnightblue" stroke="midnightblue" points="196.19,-163.91 204.94,-157.93 194.37,-157.14 196.19,-163.91"/>
</g>
<!-- Node5 -->
<g id="node5" class="node">
<title>Node5</title>
<g id="a_node5"><a xlink:href="classpolyfem_1_1assembler_1_1_hooke_linear_elasticity.html#ac6f790ea93f4c38909d8baa0cdefaddd" target="_top" xlink:title=" ">
<polygon fill="none" stroke="black" points="0,-109.5 0,-150.5 169,-150.5 169,-109.5 0,-109.5"/>
<text text-anchor="start" x="8" y="-138.5" font-family="Helvetica,sans-Serif" font-size="10.00">polyfem::assembler</text>
<text text-anchor="start" x="8" y="-127.5" font-family="Helvetica,sans-Serif" font-size="10.00">::HookeLinearElasticity</text>
<text text-anchor="middle" x="84.5" y="-116.5" font-family="Helvetica,sans-Serif" font-size="10.00">::compute_von_mises_stresses</text>
</a>
</g>
</g>
<!-- Node3&#45;&gt;Node5 -->
<g id="edge4" class="edge">
<title>Node3&#45;&gt;Node5</title>
<path fill="none" stroke="midnightblue" d="M194.78,-136.59C186.36,-136.08 177.72,-135.56 169.16,-135.04"/>
<polygon fill="midnightblue" stroke="midnightblue" points="194.75,-140.09 204.94,-137.2 195.17,-133.1 194.75,-140.09"/>
</g>
</g>
</svg>
        <g id="navigator" transform="translate(0 0)" fill="#404254">
                <rect fill="#f2f5e9" fill-opacity="0.5" stroke="#606060" stroke-width=".5" x="0" y="0" width="60" height="60"/>
                <use id="zoomplus" xlink:href="#zoomPlus" x="17" y="9" onmousedown="handleZoom(evt,'in')"/>
                <use id="zoomminus" xlink:href="#zoomMin" x="42" y="9" onmousedown="handleZoom(evt,'out')"/>
                <use id="reset" xlink:href="#resetDef" x="30" y="36" onmousedown="handleReset()"/>
                <g id="arrowUp" xlink:href="#dirArrow" transform="translate(30 24)" onmousedown="handlePan(0,-1)">
                  <use xlink:href="#rim" fill="#404040">
                        <set attributeName="fill" to="#808080" begin="arrowUp.mouseover" end="arrowUp.mouseout"/>
                  </use>
                  <path fill="none" stroke="white" stroke-width="1.5" d="M0,-3.0v7 M-2.5,-0.5L0,-3.0L2.5,-0.5"/>
                </g>
                <g id="arrowRight" xlink:href="#dirArrow" transform="rotate(90) translate(36 -43)" onmousedown="handlePan(1,0)">
                  <use xlink:href="#rim" fill="#404040">
                        <set attributeName="fill" to="#808080" begin="arrowRight.mouseover" end="arrowRight.mouseout"/>
                  </use>
                  <path fill="none" stroke="white" stroke-width="1.5" d="M0,-3.0v7 M-2.5,-0.5L0,-3.0L2.5,-0.5"/>
                </g>
                <g id="arrowDown" xlink:href="#dirArrow" transform="rotate(180) translate(-30 -48)" onmousedown="handlePan(0,1)">
                  <use xlink:href="#rim" fill="#404040">
                        <set attributeName="fill" to="#808080" begin="arrowDown.mouseover" end="arrowDown.mouseout"/>
                  </use>
                  <path fill="none" stroke="white" stroke-width="1.5" d="M0,-3.0v7 M-2.5,-0.5L0,-3.0L2.5,-0.5"/>
                </g>
                <g id="arrowLeft" xlink:href="#dirArrow" transform="rotate(270) translate(-36 17)" onmousedown="handlePan(-1,0)">
                  <use xlink:href="#rim" fill="#404040">
                        <set attributeName="fill" to="#808080" begin="arrowLeft.mouseover" end="arrowLeft.mouseout"/>
                  </use>
                  <path fill="none" stroke="white" stroke-width="1.5" d="M0,-3.0v7 M-2.5,-0.5L0,-3.0L2.5,-0.5"/>
                </g>
        </g>
        <svg viewBox="0 0 15 15" width="100%" height="30px" preserveAspectRatio="xMaxYMin meet">
         <g id="arrow_out" transform="scale(0.3 0.3)">
          <a xlink:href="classpolyfem_1_1assembler_1_1_hooke_linear_elasticity_aa86865712cb1bfe64eedac109693a811_icgraph_org.svg" target="_base">
           <rect id="button" ry="5" rx="5" y="6" x="6" height="38" width="38"
                fill="#f2f5e9" fill-opacity="0.5" stroke="#606060" stroke-width="1.0"/>
           <path id="arrow"
             d="M 11.500037,31.436501 C 11.940474,20.09759 22.043105,11.32322 32.158766,21.979434 L 37.068811,17.246167 C 37.068811,17.246167 37.088388,32 37.088388,32 L 22.160133,31.978069 C 22.160133,31.978069 26.997745,27.140456 26.997745,27.140456 C 18.528582,18.264221 13.291696,25.230495 11.500037,31.436501 z"
             style="fill:#404040;"/>
          </a>
         </g>
        </svg>
</svg>
