<?xml version="1.0" encoding="UTF-8" standalone="no"?>
<!DOCTYPE svg PUBLIC "-//W3C//DTD SVG 1.1//EN"
 "http://www.w3.org/Graphics/SVG/1.1/DTD/svg11.dtd">
<!-- Generated by graphviz version 2.43.0 (0)
 -->
<!-- Title: polyfem::basis::FEBasis3d::hex_face_local_nodes Pages: 1 -->
<svg width="363pt" height="230pt"
 viewBox="0.00 0.00 363.00 230.00" xmlns="http://www.w3.org/2000/svg" xmlns:xlink="http://www.w3.org/1999/xlink">
<g id="graph0" class="graph" transform="scale(1 1) rotate(0) translate(4 226)">
<title>polyfem::basis::FEBasis3d::hex_face_local_nodes</title>
<!-- Node1 -->
<g id="node1" class="node">
<title>Node1</title>
<g id="a_node1"><a xlink:title=" ">
<polygon fill="#999999" stroke="#666666" points="145,-126 0,-126 0,-96 145,-96 145,-126"/>
<text text-anchor="start" x="8" y="-114" font-family="Helvetica,sans-Serif" font-size="10.00">polyfem::basis::FEBasis3d</text>
<text text-anchor="middle" x="72.5" y="-103" font-family="Helvetica,sans-Serif" font-size="10.00">::hex_face_local_nodes</text>
</a>
</g>
</g>
<!-- Node2 -->
<g id="node2" class="node">
<title>Node2</title>
<g id="a_node2"><a xlink:href="classpolyfem_1_1mesh_1_1_mesh3_d.html#a35f2e4458053f4e6afa11f7918272e08" target="_top" xlink:title=" ">
<polygon fill="white" stroke="#666666" points="355,-222 181,-222 181,-192 355,-192 355,-222"/>
<text text-anchor="start" x="189" y="-210" font-family="Helvetica,sans-Serif" font-size="10.00">polyfem::mesh::Mesh3D</text>
<text text-anchor="middle" x="268" y="-199" font-family="Helvetica,sans-Serif" font-size="10.00">::get_index_from_element_edge</text>
</a>
</g>
</g>
<!-- Node1&#45;&gt;Node2 -->
<g id="edge1" class="edge">
<title>Node1&#45;&gt;Node2</title>
<path fill="none" stroke="#63b8ff" d="M92.21,-126.25C112.83,-142.39 147.53,-167.6 181,-183 185.35,-185 189.9,-186.87 194.54,-188.6"/>
<polygon fill="#63b8ff" stroke="#63b8ff" points="193.56,-191.97 204.15,-191.99 195.88,-185.37 193.56,-191.97"/>
</g>
<!-- Node3 -->
<g id="node3" class="node">
<title>Node3</title>
<g id="a_node3"><a xlink:href="classpolyfem_1_1mesh_1_1_mesh.html#a4ac6c05b7775df67b96087dc9721ee0a" target="_top" xlink:title="checks if element is cube compatible">
<polygon fill="white" stroke="#666666" points="329,-174 207,-174 207,-144 329,-144 329,-174"/>
<text text-anchor="start" x="215" y="-162" font-family="Helvetica,sans-Serif" font-size="10.00">polyfem::mesh::Mesh</text>
<text text-anchor="middle" x="268" y="-151" font-family="Helvetica,sans-Serif" font-size="10.00">::is_cube</text>
</a>
</g>
</g>
<!-- Node1&#45;&gt;Node3 -->
<g id="edge2" class="edge">
<title>Node1&#45;&gt;Node3</title>
<path fill="none" stroke="#63b8ff" d="M134.19,-126.06C154.1,-130.99 176.38,-136.52 196.93,-141.62"/>
<polygon fill="#63b8ff" stroke="#63b8ff" points="196.31,-145.07 206.85,-144.08 197.99,-138.28 196.31,-145.07"/>
</g>
<!-- Node4 -->
<g id="node4" class="node">
<title>Node4</title>
<g id="a_node4"><a xlink:href="classpolyfem_1_1mesh_1_1_mesh3_d.html#ae0acaf2aa88d5ceaf4451df11659f285" target="_top" xlink:title=" ">
<polygon fill="white" stroke="#666666" points="336,-126 200,-126 200,-96 336,-96 336,-126"/>
<text text-anchor="start" x="208" y="-114" font-family="Helvetica,sans-Serif" font-size="10.00">polyfem::mesh::Mesh3D</text>
<text text-anchor="middle" x="268" y="-103" font-family="Helvetica,sans-Serif" font-size="10.00">::next_around_face</text>
</a>
</g>
</g>
<!-- Node1&#45;&gt;Node4 -->
<g id="edge3" class="edge">
<title>Node1&#45;&gt;Node4</title>
<path fill="none" stroke="#63b8ff" d="M145,-111C159.61,-111 175.04,-111 189.84,-111"/>
<polygon fill="#63b8ff" stroke="#63b8ff" points="189.96,-114.5 199.96,-111 189.96,-107.5 189.96,-114.5"/>
</g>
<!-- Node5 -->
<g id="node5" class="node">
<title>Node5</title>
<g id="a_node5"><a xlink:href="namespacepolyfem_1_1autogen.html#ae625b6539e6dfcbb11dee43af4a58bc0" target="_top" xlink:title=" ">
<polygon fill="white" stroke="#666666" points="325.5,-78 210.5,-78 210.5,-48 325.5,-48 325.5,-78"/>
<text text-anchor="start" x="218.5" y="-66" font-family="Helvetica,sans-Serif" font-size="10.00">polyfem::autogen::q</text>
<text text-anchor="middle" x="268" y="-55" font-family="Helvetica,sans-Serif" font-size="10.00">_nodes_3d</text>
</a>
</g>
</g>
<!-- Node1&#45;&gt;Node5 -->
<g id="edge4" class="edge">
<title>Node1&#45;&gt;Node5</title>
<path fill="none" stroke="#63b8ff" d="M134.19,-95.94C155.34,-90.7 179.17,-84.79 200.74,-79.44"/>
<polygon fill="#63b8ff" stroke="#63b8ff" points="201.61,-82.83 210.47,-77.02 199.93,-76.03 201.61,-82.83"/>
</g>
<!-- Node6 -->
<g id="node6" class="node">
<title>Node6</title>
<g id="a_node6"><a xlink:href="classpolyfem_1_1mesh_1_1_mesh3_d.html#afd5e8a487b0eecbfaa2ca5438f29ef2f" target="_top" xlink:title=" ">
<polygon fill="white" stroke="#666666" points="336,-30 200,-30 200,0 336,0 336,-30"/>
<text text-anchor="start" x="208" y="-18" font-family="Helvetica,sans-Serif" font-size="10.00">polyfem::mesh::Mesh3D</text>
<text text-anchor="middle" x="268" y="-7" font-family="Helvetica,sans-Serif" font-size="10.00">::switch_vertex</text>
</a>
</g>
</g>
<!-- Node1&#45;&gt;Node6 -->
<g id="edge5" class="edge">
<title>Node1&#45;&gt;Node6</title>
<path fill="none" stroke="#63b8ff" d="M92.21,-95.75C112.83,-79.61 147.53,-54.4 181,-39 185.35,-37 189.9,-35.13 194.54,-33.4"/>
<polygon fill="#63b8ff" stroke="#63b8ff" points="195.88,-36.63 204.15,-30.01 193.56,-30.03 195.88,-36.63"/>
</g>
</g>
</svg>
