<?xml version="1.0" encoding="UTF-8" standalone="no"?>
<!DOCTYPE svg PUBLIC "-//W3C//DTD SVG 1.1//EN"
 "http://www.w3.org/Graphics/SVG/1.1/DTD/svg11.dtd">
<!-- Generated by graphviz version 2.43.0 (0)
 -->
<!-- Title: polyfem::assembler::FiberDirection::stiffness_rotation_voigt Pages: 1 -->
<svg width="320pt" height="167pt"
 viewBox="0.00 0.00 320.00 167.00" xmlns="http://www.w3.org/2000/svg" xmlns:xlink="http://www.w3.org/1999/xlink">
<g id="graph0" class="graph" transform="scale(1 1) rotate(0) translate(4 163)">
<title>polyfem::assembler::FiberDirection::stiffness_rotation_voigt</title>
<!-- Node1 -->
<g id="Node000001" class="node">
<title>Node1</title>
<g id="a_Node000001"><a xlink:title=" ">
<polygon fill="#999999" stroke="#666666" points="312,-100 174,-100 174,-59 312,-59 312,-100"/>
<text text-anchor="start" x="182" y="-88" font-family="Helvetica,sans-Serif" font-size="10.00">polyfem::assembler</text>
<text text-anchor="start" x="182" y="-77" font-family="Helvetica,sans-Serif" font-size="10.00">::FiberDirection::stiffness</text>
<text text-anchor="middle" x="243" y="-66" font-family="Helvetica,sans-Serif" font-size="10.00">_rotation_voigt</text>
</a>
</g>
</g>
<!-- Node2 -->
<g id="Node000002" class="node">
<title>Node2</title>
<g id="a_Node000002"><a xlink:href="classpolyfem_1_1assembler_1_1_hooke_linear_elasticity.html#a0bd6c28945c4aa8b5da6acd327da7453" target="_top" xlink:title="local assembly function that defines the bilinear form (LHS) computes and returns a single local stif...">
<polygon fill="white" stroke="#666666" points="133,-159 5,-159 5,-118 133,-118 133,-159"/>
<text text-anchor="start" x="13" y="-147" font-family="Helvetica,sans-Serif" font-size="10.00">polyfem::assembler</text>
<text text-anchor="start" x="13" y="-136" font-family="Helvetica,sans-Serif" font-size="10.00">::HookeLinearElasticity</text>
<text text-anchor="middle" x="69" y="-125" font-family="Helvetica,sans-Serif" font-size="10.00">::assemble</text>
</a>
</g>
</g>
<!-- Node1&#45;&gt;Node2 -->
<g id="edge1_Node000001_Node000002" class="edge">
<title>Node1&#45;&gt;Node2</title>
<g id="a_edge1_Node000001_Node000002"><a xlink:title=" ">
<path fill="none" stroke="#63b8ff" d="M172.23,-103.43C158.17,-108.26 143.51,-113.28 129.83,-117.98"/>
<polygon fill="#63b8ff" stroke="#63b8ff" points="173.52,-106.69 181.84,-100.14 171.25,-100.07 173.52,-106.69"/>
</a>
</g>
</g>
<!-- Node3 -->
<g id="Node000003" class="node">
<title>Node3</title>
<g id="a_Node000003"><a xlink:href="classpolyfem_1_1assembler_1_1_hooke_linear_elasticity.html#a8e39b2fa1376df8ddcdaa09652f5b313" target="_top" xlink:title=" ">
<polygon fill="white" stroke="#666666" points="133,-100 5,-100 5,-59 133,-59 133,-100"/>
<text text-anchor="start" x="13" y="-88" font-family="Helvetica,sans-Serif" font-size="10.00">polyfem::assembler</text>
<text text-anchor="start" x="13" y="-77" font-family="Helvetica,sans-Serif" font-size="10.00">::HookeLinearElasticity</text>
<text text-anchor="middle" x="69" y="-66" font-family="Helvetica,sans-Serif" font-size="10.00">::assign_stress_tensor</text>
</a>
</g>
</g>
<!-- Node1&#45;&gt;Node3 -->
<g id="edge2_Node000001_Node000003" class="edge">
<title>Node1&#45;&gt;Node3</title>
<g id="a_edge2_Node000001_Node000003"><a xlink:title=" ">
<path fill="none" stroke="#63b8ff" d="M163.46,-79.5C153.33,-79.5 143.06,-79.5 133.21,-79.5"/>
<polygon fill="#63b8ff" stroke="#63b8ff" points="163.53,-83 173.53,-79.5 163.53,-76 163.53,-83"/>
</a>
</g>
</g>
<!-- Node4 -->
<g id="Node000004" class="node">
<title>Node4</title>
<g id="a_Node000004"><a xlink:href="classpolyfem_1_1assembler_1_1_fiber_direction.html#afe8ddcc802d766f28cc97463a2b7b380" target="_top" xlink:title=" ">
<polygon fill="white" stroke="#666666" points="138,-41 0,-41 0,0 138,0 138,-41"/>
<text text-anchor="start" x="8" y="-29" font-family="Helvetica,sans-Serif" font-size="10.00">polyfem::assembler</text>
<text text-anchor="start" x="8" y="-18" font-family="Helvetica,sans-Serif" font-size="10.00">::FiberDirection::stiffness</text>
<text text-anchor="middle" x="69" y="-7" font-family="Helvetica,sans-Serif" font-size="10.00">_rotation_voigt</text>
</a>
</g>
</g>
<!-- Node1&#45;&gt;Node4 -->
<g id="edge3_Node000001_Node000004" class="edge">
<title>Node1&#45;&gt;Node4</title>
<g id="a_edge3_Node000001_Node000004"><a xlink:title=" ">
<path fill="none" stroke="#63b8ff" d="M172.23,-55.57C158.17,-50.74 143.51,-45.72 129.83,-41.02"/>
<polygon fill="#63b8ff" stroke="#63b8ff" points="171.25,-58.93 181.84,-58.86 173.52,-52.31 171.25,-58.93"/>
</a>
</g>
</g>
</g>
</svg>
