<?xml version="1.0" encoding="UTF-8" standalone="no"?>
<!DOCTYPE svg PUBLIC "-//W3C//DTD SVG 1.1//EN"
 "http://www.w3.org/Graphics/SVG/1.1/DTD/svg11.dtd">
<!-- Generated by graphviz version 2.43.0 (0)
 -->
<!-- Title: polyfem::solver::PeriodicShapeVariableToSimulation::inverse_eval Pages: 1 -->
<svg width="355pt" height="76pt"
 viewBox="0.00 0.00 355.00 75.50" xmlns="http://www.w3.org/2000/svg" xmlns:xlink="http://www.w3.org/1999/xlink">
<g id="graph0" class="graph" transform="scale(1 1) rotate(0) translate(4 71.5)">
<title>polyfem::solver::PeriodicShapeVariableToSimulation::inverse_eval</title>
<!-- Node1 -->
<g id="Node000001" class="node">
<title>Node1</title>
<g id="a_Node000001"><a xlink:title="Compute optimization variables from forward simulation State.">
<polygon fill="#999999" stroke="#666666" points="149,-56.5 0,-56.5 0,-15.5 149,-15.5 149,-56.5"/>
<text text-anchor="start" x="8" y="-44.5" font-family="Helvetica,sans-Serif" font-size="10.00">polyfem::solver::Periodic</text>
<text text-anchor="start" x="8" y="-33.5" font-family="Helvetica,sans-Serif" font-size="10.00">ShapeVariableToSimulation</text>
<text text-anchor="middle" x="74.5" y="-22.5" font-family="Helvetica,sans-Serif" font-size="10.00">::inverse_eval</text>
</a>
</g>
</g>
<!-- Node2 -->
<g id="Node000002" class="node">
<title>Node2</title>
<g id="a_Node000002"><a xlink:href="namespacepolyfem_1_1utils.html#adac090350174847f46edfd397abd4ab4" target="_top" xlink:title="Flatten rowwises.">
<polygon fill="white" stroke="#666666" points="327,-67.5 205,-67.5 205,-48.5 327,-48.5 327,-67.5"/>
<text text-anchor="middle" x="266" y="-55.5" font-family="Helvetica,sans-Serif" font-size="10.00">polyfem::utils::flatten</text>
</a>
</g>
</g>
<!-- Node1&#45;&gt;Node2 -->
<g id="edge1_Node000001_Node000002" class="edge">
<title>Node1&#45;&gt;Node2</title>
<g id="a_edge1_Node000001_Node000002"><a xlink:title=" ">
<path fill="none" stroke="#63b8ff" d="M149.04,-44.54C164.08,-46.28 179.88,-48.12 194.81,-49.85"/>
<polygon fill="#63b8ff" stroke="#63b8ff" points="194.64,-53.36 204.98,-51.03 195.45,-46.4 194.64,-53.36"/>
</a>
</g>
</g>
<!-- Node3 -->
<g id="Node000003" class="node">
<title>Node3</title>
<g id="a_Node000003"><a xlink:href="classpolyfem_1_1solver_1_1_composite_parametrization.html#a50b91a0798a382e8db4a82dcab572c9d" target="_top" xlink:title="Eval x = f^&#45;1 (y).">
<polygon fill="white" stroke="#666666" points="347,-30 185,-30 185,0 347,0 347,-30"/>
<text text-anchor="start" x="193" y="-18" font-family="Helvetica,sans-Serif" font-size="10.00">polyfem::solver::Composite</text>
<text text-anchor="middle" x="266" y="-7" font-family="Helvetica,sans-Serif" font-size="10.00">Parametrization::inverse_eval</text>
</a>
</g>
</g>
<!-- Node1&#45;&gt;Node3 -->
<g id="edge2_Node000001_Node000003" class="edge">
<title>Node1&#45;&gt;Node3</title>
<g id="a_edge2_Node000001_Node000003"><a xlink:title=" ">
<path fill="none" stroke="#63b8ff" d="M149.04,-27.85C157.49,-26.91 166.17,-25.95 174.81,-24.99"/>
<polygon fill="#63b8ff" stroke="#63b8ff" points="175.35,-28.46 184.91,-23.88 174.58,-21.5 175.35,-28.46"/>
</a>
</g>
</g>
</g>
</svg>
