<?xml version="1.0" encoding="UTF-8" standalone="no"?>
<!DOCTYPE svg PUBLIC "-//W3C//DTD SVG 1.1//EN"
 "http://www.w3.org/Graphics/SVG/1.1/DTD/svg11.dtd">
<!-- Generated by graphviz version 2.43.0 (0)
 -->
<!-- Title: polyfem::varform::IncompressibleElasticVarForm Pages: 1 -->
<svg width="190pt" height="159pt"
 viewBox="0.00 0.00 190.00 159.00" xmlns="http://www.w3.org/2000/svg" xmlns:xlink="http://www.w3.org/1999/xlink">
<g id="graph0" class="graph" transform="scale(1 1) rotate(0) translate(4 155)">
<title>polyfem::varform::IncompressibleElasticVarForm</title>
<!-- Node1 -->
<g id="Node000001" class="node">
<title>Node1</title>
<g id="a_Node000001"><a xlink:title=" ">
<polygon fill="#999999" stroke="#666666" points="182,-30 0,-30 0,0 182,0 182,-30"/>
<text text-anchor="start" x="8" y="-18" font-family="Helvetica,sans-Serif" font-size="10.00">polyfem::varform::Incompressible</text>
<text text-anchor="middle" x="91" y="-7" font-family="Helvetica,sans-Serif" font-size="10.00">ElasticVarForm</text>
</a>
</g>
</g>
<!-- Node2 -->
<g id="Node000002" class="node">
<title>Node2</title>
<g id="a_Node000002"><a xlink:href="classpolyfem_1_1varform_1_1_elastic_var_form.html" target="_top" xlink:title=" ">
<polygon fill="white" stroke="#666666" points="161,-96 21,-96 21,-66 161,-66 161,-96"/>
<text text-anchor="start" x="29" y="-84" font-family="Helvetica,sans-Serif" font-size="10.00">polyfem::varform::Elastic</text>
<text text-anchor="middle" x="91" y="-73" font-family="Helvetica,sans-Serif" font-size="10.00">VarForm</text>
</a>
</g>
</g>
<!-- Node2&#45;&gt;Node1 -->
<g id="edge1_Node000001_Node000002" class="edge">
<title>Node2&#45;&gt;Node1</title>
<g id="a_edge1_Node000001_Node000002"><a xlink:title=" ">
<path fill="none" stroke="#63b8ff" d="M91,-55.54C91,-46.96 91,-37.61 91,-30.16"/>
<polygon fill="#63b8ff" stroke="#63b8ff" points="87.5,-55.8 91,-65.8 94.5,-55.8 87.5,-55.8"/>
</a>
</g>
</g>
<!-- Node3 -->
<g id="Node000003" class="node">
<title>Node3</title>
<g id="a_Node000003"><a xlink:href="classpolyfem_1_1varform_1_1_var_form.html" target="_top" xlink:title=" ">
<polygon fill="white" stroke="#666666" points="165.5,-151 16.5,-151 16.5,-132 165.5,-132 165.5,-151"/>
<text text-anchor="middle" x="91" y="-139" font-family="Helvetica,sans-Serif" font-size="10.00">polyfem::varform::VarForm</text>
</a>
</g>
</g>
<!-- Node3&#45;&gt;Node2 -->
<g id="edge2_Node000002_Node000003" class="edge">
<title>Node3&#45;&gt;Node2</title>
<g id="a_edge2_Node000002_Node000003"><a xlink:title=" ">
<path fill="none" stroke="#63b8ff" d="M91,-121.65C91,-113.36 91,-103.78 91,-96.11"/>
<polygon fill="#63b8ff" stroke="#63b8ff" points="87.5,-121.87 91,-131.87 94.5,-121.87 87.5,-121.87"/>
</a>
</g>
</g>
</g>
</svg>
