<?xml version="1.0" encoding="UTF-8" standalone="no"?>
<!DOCTYPE svg PUBLIC "-//W3C//DTD SVG 1.1//EN"
 "http://www.w3.org/Graphics/SVG/1.1/DTD/svg11.dtd">
<!-- Generated by graphviz version 2.43.0 (0)
 -->
<!-- Title: polyfem::assembler::Problem::is_rhs_zero Pages: 1 -->
<!--zoomable 146 -->
<svg id="main" version="1.1" xmlns="http://www.w3.org/2000/svg" xmlns:xlink="http://www.w3.org/1999/xlink" xml:space="preserve" onload="init(evt)">
<style type="text/css"><![CDATA[
.edge:hover path { stroke: red; }
.edge:hover polygon { stroke: red; fill: red; }
]]></style>
<script type="text/javascript"><![CDATA[
var edges = document.getElementsByTagName('g');
if (edges && edges.length) {
  for (var i=0;i<edges.length;i++) {
    if (edges[i].id.substr(0,4)=='edge') {
      edges[i].setAttribute('class','edge');
    }
  }
}
]]></script>
        <defs>
                <circle id="rim" cx="0" cy="0" r="7"/>
                <circle id="rim2" cx="0" cy="0" r="3.5"/>
                <g id="zoomPlus">
                        <use xlink:href="#rim" fill="#404040">
                                <set attributeName="fill" to="#808080" begin="zoomplus.mouseover" end="zoomplus.mouseout"/>
                        </use>
                        <path d="M-4,0h8M0,-4v8" fill="none" stroke="white" stroke-width="1.5" pointer-events="none"/>
                </g>
                <g id="zoomMin">
                        <use xlink:href="#rim" fill="#404040">
                                <set attributeName="fill" to="#808080" begin="zoomminus.mouseover" end="zoomminus.mouseout"/>
                        </use>
                        <path d="M-4,0h8" fill="none" stroke="white" stroke-width="1.5" pointer-events="none"/>
                </g>
                <g id="dirArrow">
                        <path fill="none" stroke="white" stroke-width="1.5" d="M0,-3.0v7 M-2.5,-0.5L0,-3.0L2.5,-0.5"/>
                </g>
               <g id="resetDef">
                       <use xlink:href="#rim2" fill="#404040">
                               <set attributeName="fill" to="#808080" begin="reset.mouseover" end="reset.mouseout"/>
                       </use>
               </g>
        </defs>

<script type="text/javascript">
var viewWidth = 869;
var viewHeight = 146;
var sectionId = 'dynsection-17';
</script>
<script xlink:href="svgpan.js"/>
<svg id="graph" class="graph">
<g id="viewport">
<title>polyfem::assembler::Problem::is_rhs_zero</title>
<!-- Node1 -->
<g id="node1" class="node">
<title>Node1</title>
<g id="a_node1"><a xlink:title=" ">
<polygon fill="#999999" stroke="#666666" points="861,-62.5 737,-62.5 737,-32.5 861,-32.5 861,-62.5"/>
<text text-anchor="start" x="745" y="-50.5" font-family="Helvetica,sans-Serif" font-size="10.00">polyfem::assembler</text>
<text text-anchor="middle" x="799" y="-39.5" font-family="Helvetica,sans-Serif" font-size="10.00">::Problem::is_rhs_zero</text>
</a>
</g>
</g>
<!-- Node2 -->
<g id="node2" class="node">
<title>Node2</title>
<g id="a_node2"><a xlink:href="classpolyfem_1_1assembler_1_1_rhs_assembler.html#ada9462079ff85433ec41e09fa55d96a5" target="_top" xlink:title=" ">
<polygon fill="white" stroke="#666666" points="701,-89.5 555,-89.5 555,-59.5 701,-59.5 701,-89.5"/>
<text text-anchor="start" x="563" y="-77.5" font-family="Helvetica,sans-Serif" font-size="10.00">polyfem::assembler</text>
<text text-anchor="middle" x="628" y="-66.5" font-family="Helvetica,sans-Serif" font-size="10.00">::RhsAssembler::assemble</text>
</a>
</g>
</g>
<!-- Node1&#45;&gt;Node2 -->
<g id="edge1" class="edge">
<title>Node1&#45;&gt;Node2</title>
<path fill="none" stroke="#63b8ff" d="M727.04,-58.84C718.48,-60.2 709.73,-61.6 701.15,-62.97"/>
<polygon fill="#63b8ff" stroke="#63b8ff" points="727.66,-62.28 736.99,-57.25 726.56,-55.37 727.66,-62.28"/>
</g>
<!-- Node8 -->
<g id="node8" class="node">
<title>Node8</title>
<g id="a_node8"><a xlink:href="classpolyfem_1_1assembler_1_1_rhs_assembler.html#a78a4eec50d291e10302e5b9274169aad" target="_top" xlink:title=" ">
<polygon fill="white" stroke="#666666" points="698.5,-41 557.5,-41 557.5,0 698.5,0 698.5,-41"/>
<text text-anchor="start" x="565.5" y="-29" font-family="Helvetica,sans-Serif" font-size="10.00">polyfem::assembler</text>
<text text-anchor="start" x="565.5" y="-18" font-family="Helvetica,sans-Serif" font-size="10.00">::RhsAssembler::compute</text>
<text text-anchor="middle" x="628" y="-7" font-family="Helvetica,sans-Serif" font-size="10.00">_energy</text>
</a>
</g>
</g>
<!-- Node1&#45;&gt;Node8 -->
<g id="edge7" class="edge">
<title>Node1&#45;&gt;Node8</title>
<path fill="none" stroke="#63b8ff" d="M726.91,-36.14C717.52,-34.64 707.9,-33.1 698.53,-31.61"/>
<polygon fill="#63b8ff" stroke="#63b8ff" points="726.56,-39.63 736.99,-37.75 727.66,-32.72 726.56,-39.63"/>
</g>
<!-- Node3 -->
<g id="node3" class="node">
<title>Node3</title>
<g id="a_node3"><a xlink:href="classpolyfem_1_1assembler_1_1_rhs_assembler.html#a717039c1647c3261c8acc5ab68caac54" target="_top" xlink:title=" ">
<polygon fill="white" stroke="#666666" points="515,-95 374,-95 374,-54 515,-54 515,-95"/>
<text text-anchor="start" x="382" y="-83" font-family="Helvetica,sans-Serif" font-size="10.00">polyfem::assembler</text>
<text text-anchor="start" x="382" y="-72" font-family="Helvetica,sans-Serif" font-size="10.00">::RhsAssembler::compute</text>
<text text-anchor="middle" x="444.5" y="-61" font-family="Helvetica,sans-Serif" font-size="10.00">_energy_grad</text>
</a>
</g>
</g>
<!-- Node2&#45;&gt;Node3 -->
<g id="edge2" class="edge">
<title>Node2&#45;&gt;Node3</title>
<path fill="none" stroke="#63b8ff" d="M544.57,-74.5C534.73,-74.5 524.77,-74.5 515.14,-74.5"/>
<polygon fill="#63b8ff" stroke="#63b8ff" points="544.74,-78 554.74,-74.5 544.74,-71 544.74,-78"/>
</g>
<!-- Node4 -->
<g id="node4" class="node">
<title>Node4</title>
<g id="a_node4"><a xlink:href="classpolyfem_1_1solver_1_1_body_form.html#ac565e4b704690c5a47c2862ca09ce0a1" target="_top" xlink:title="Update current_rhs.">
<polygon fill="white" stroke="#666666" points="334,-89.5 185,-89.5 185,-59.5 334,-59.5 334,-89.5"/>
<text text-anchor="start" x="193" y="-77.5" font-family="Helvetica,sans-Serif" font-size="10.00">polyfem::solver::BodyForm</text>
<text text-anchor="middle" x="259.5" y="-66.5" font-family="Helvetica,sans-Serif" font-size="10.00">::update_current_rhs</text>
</a>
</g>
</g>
<!-- Node3&#45;&gt;Node4 -->
<g id="edge3" class="edge">
<title>Node3&#45;&gt;Node4</title>
<path fill="none" stroke="#63b8ff" d="M363.69,-74.5C353.91,-74.5 343.96,-74.5 334.27,-74.5"/>
<polygon fill="#63b8ff" stroke="#63b8ff" points="363.79,-78 373.79,-74.5 363.79,-71 363.79,-78"/>
</g>
<!-- Node5 -->
<g id="node5" class="node">
<title>Node5</title>
<g id="a_node5"><a xlink:href="classpolyfem_1_1solver_1_1_body_form.html#ae79c6932d834cbe1dba199ba0cbfec12" target="_top" xlink:title="Construct a new Body Form object.">
<polygon fill="white" stroke="#666666" points="149,-137.5 0,-137.5 0,-107.5 149,-107.5 149,-137.5"/>
<text text-anchor="start" x="8" y="-125.5" font-family="Helvetica,sans-Serif" font-size="10.00">polyfem::solver::BodyForm</text>
<text text-anchor="middle" x="74.5" y="-114.5" font-family="Helvetica,sans-Serif" font-size="10.00">::BodyForm</text>
</a>
</g>
</g>
<!-- Node4&#45;&gt;Node5 -->
<g id="edge4" class="edge">
<title>Node4&#45;&gt;Node5</title>
<path fill="none" stroke="#63b8ff" d="M191.21,-92.15C172,-97.19 151.25,-102.63 132.7,-107.5"/>
<polygon fill="#63b8ff" stroke="#63b8ff" points="192.31,-95.48 201.1,-89.56 190.54,-88.71 192.31,-95.48"/>
</g>
<!-- Node6 -->
<g id="node6" class="node">
<title>Node6</title>
<g id="a_node6"><a xlink:href="classpolyfem_1_1solver_1_1_body_form.html#a638bd0d14aeb801284b8ffc8b0cbf261" target="_top" xlink:title="Set if the Dirichlet boundary conditions should be enforced.">
<polygon fill="white" stroke="#666666" points="149,-89.5 0,-89.5 0,-59.5 149,-59.5 149,-89.5"/>
<text text-anchor="start" x="8" y="-77.5" font-family="Helvetica,sans-Serif" font-size="10.00">polyfem::solver::BodyForm</text>
<text text-anchor="middle" x="74.5" y="-66.5" font-family="Helvetica,sans-Serif" font-size="10.00">::set_apply_DBC</text>
</a>
</g>
</g>
<!-- Node4&#45;&gt;Node6 -->
<g id="edge5" class="edge">
<title>Node4&#45;&gt;Node6</title>
<path fill="none" stroke="#63b8ff" d="M174.61,-74.5C166.16,-74.5 157.62,-74.5 149.29,-74.5"/>
<polygon fill="#63b8ff" stroke="#63b8ff" points="174.86,-78 184.86,-74.5 174.86,-71 174.86,-78"/>
</g>
<!-- Node7 -->
<g id="node7" class="node">
<title>Node7</title>
<g id="a_node7"><a xlink:href="classpolyfem_1_1solver_1_1_body_form.html#a59038ae41bd1beec9805dacdf2194d85" target="_top" xlink:title="Update time dependent quantities.">
<polygon fill="white" stroke="#666666" points="149,-41.5 0,-41.5 0,-11.5 149,-11.5 149,-41.5"/>
<text text-anchor="start" x="8" y="-29.5" font-family="Helvetica,sans-Serif" font-size="10.00">polyfem::solver::BodyForm</text>
<text text-anchor="middle" x="74.5" y="-18.5" font-family="Helvetica,sans-Serif" font-size="10.00">::update_quantities</text>
</a>
</g>
</g>
<!-- Node4&#45;&gt;Node7 -->
<g id="edge6" class="edge">
<title>Node4&#45;&gt;Node7</title>
<path fill="none" stroke="#63b8ff" d="M191.21,-56.85C172,-51.81 151.25,-46.37 132.7,-41.5"/>
<polygon fill="#63b8ff" stroke="#63b8ff" points="190.54,-60.29 201.1,-59.44 192.31,-53.52 190.54,-60.29"/>
</g>
<!-- Node9 -->
<g id="node9" class="node">
<title>Node9</title>
<g id="a_node9"><a xlink:href="classpolyfem_1_1solver_1_1_body_form.html#ae8e6ef01b568dc58996b461788a420d0" target="_top" xlink:title="Compute the value of the body force form.">
<polygon fill="white" stroke="#666666" points="519,-35.5 370,-35.5 370,-5.5 519,-5.5 519,-35.5"/>
<text text-anchor="start" x="378" y="-23.5" font-family="Helvetica,sans-Serif" font-size="10.00">polyfem::solver::BodyForm</text>
<text text-anchor="middle" x="444.5" y="-12.5" font-family="Helvetica,sans-Serif" font-size="10.00">::value_unweighted</text>
</a>
</g>
</g>
<!-- Node8&#45;&gt;Node9 -->
<g id="edge8" class="edge">
<title>Node8&#45;&gt;Node9</title>
<path fill="none" stroke="#63b8ff" d="M547.29,-20.5C537.94,-20.5 528.44,-20.5 519.18,-20.5"/>
<polygon fill="#63b8ff" stroke="#63b8ff" points="547.35,-24 557.35,-20.5 547.35,-17 547.35,-24"/>
</g>
</g>
</svg>
        <g id="navigator" transform="translate(0 0)" fill="#404254">
                <rect fill="#f2f5e9" fill-opacity="0.5" stroke="#606060" stroke-width=".5" x="0" y="0" width="60" height="60"/>
                <use id="zoomplus" xlink:href="#zoomPlus" x="17" y="9" onmousedown="handleZoom(evt,'in')"/>
                <use id="zoomminus" xlink:href="#zoomMin" x="42" y="9" onmousedown="handleZoom(evt,'out')"/>
                <use id="reset" xlink:href="#resetDef" x="30" y="36" onmousedown="handleReset()"/>
                <g id="arrowUp" xlink:href="#dirArrow" transform="translate(30 24)" onmousedown="handlePan(0,-1)">
                  <use xlink:href="#rim" fill="#404040">
                        <set attributeName="fill" to="#808080" begin="arrowUp.mouseover" end="arrowUp.mouseout"/>
                  </use>
                  <path fill="none" stroke="white" stroke-width="1.5" d="M0,-3.0v7 M-2.5,-0.5L0,-3.0L2.5,-0.5"/>
                </g>
                <g id="arrowRight" xlink:href="#dirArrow" transform="rotate(90) translate(36 -43)" onmousedown="handlePan(1,0)">
                  <use xlink:href="#rim" fill="#404040">
                        <set attributeName="fill" to="#808080" begin="arrowRight.mouseover" end="arrowRight.mouseout"/>
                  </use>
                  <path fill="none" stroke="white" stroke-width="1.5" d="M0,-3.0v7 M-2.5,-0.5L0,-3.0L2.5,-0.5"/>
                </g>
                <g id="arrowDown" xlink:href="#dirArrow" transform="rotate(180) translate(-30 -48)" onmousedown="handlePan(0,1)">
                  <use xlink:href="#rim" fill="#404040">
                        <set attributeName="fill" to="#808080" begin="arrowDown.mouseover" end="arrowDown.mouseout"/>
                  </use>
                  <path fill="none" stroke="white" stroke-width="1.5" d="M0,-3.0v7 M-2.5,-0.5L0,-3.0L2.5,-0.5"/>
                </g>
                <g id="arrowLeft" xlink:href="#dirArrow" transform="rotate(270) translate(-36 17)" onmousedown="handlePan(-1,0)">
                  <use xlink:href="#rim" fill="#404040">
                        <set attributeName="fill" to="#808080" begin="arrowLeft.mouseover" end="arrowLeft.mouseout"/>
                  </use>
                  <path fill="none" stroke="white" stroke-width="1.5" d="M0,-3.0v7 M-2.5,-0.5L0,-3.0L2.5,-0.5"/>
                </g>
        </g>
        <svg viewBox="0 0 15 15" width="100%" height="30px" preserveAspectRatio="xMaxYMin meet">
         <g id="arrow_out" transform="scale(0.3 0.3)">
          <a xlink:href="classpolyfem_1_1assembler_1_1_problem_a2f7a9a8e77a2f7814de1e92fc6670837_icgraph_org.svg" target="_base">
           <rect id="button" ry="5" rx="5" y="6" x="6" height="38" width="38"
                fill="#f2f5e9" fill-opacity="0.5" stroke="#606060" stroke-width="1.0"/>
           <path id="arrow"
             d="M 11.500037,31.436501 C 11.940474,20.09759 22.043105,11.32322 32.158766,21.979434 L 37.068811,17.246167 C 37.068811,17.246167 37.088388,32 37.088388,32 L 22.160133,31.978069 C 22.160133,31.978069 26.997745,27.140456 26.997745,27.140456 C 18.528582,18.264221 13.291696,25.230495 11.500037,31.436501 z"
             style="fill:#404040;"/>
          </a>
         </g>
        </svg>
</svg>
