<?xml version="1.0" encoding="UTF-8" standalone="no"?>
<!DOCTYPE svg PUBLIC "-//W3C//DTD SVG 1.1//EN"
 "http://www.w3.org/Graphics/SVG/1.1/DTD/svg11.dtd">
<!-- Generated by graphviz version 2.43.0 (0)
 -->
<!-- Title: polyfem::State::sol_to_pressure Pages: 1 -->
<svg width="605pt" height="182pt"
 viewBox="0.00 0.00 605.00 182.00" xmlns="http://www.w3.org/2000/svg" xmlns:xlink="http://www.w3.org/1999/xlink">
<g id="graph0" class="graph" transform="scale(1 1) rotate(0) translate(4 178)">
<title>polyfem::State::sol_to_pressure</title>
<!-- Node1 -->
<g id="node1" class="node">
<title>Node1</title>
<g id="a_node1"><a xlink:title="splits the solution in solution and pressure for mixed problems">
<polygon fill="#999999" stroke="#666666" points="597,-102 488,-102 488,-72 597,-72 597,-102"/>
<text text-anchor="start" x="496" y="-90" font-family="Helvetica,sans-Serif" font-size="10.00">polyfem::State::sol</text>
<text text-anchor="middle" x="542.5" y="-79" font-family="Helvetica,sans-Serif" font-size="10.00">_to_pressure</text>
</a>
</g>
</g>
<!-- Node2 -->
<g id="node2" class="node">
<title>Node2</title>
<g id="a_node2"><a xlink:href="classpolyfem_1_1_state.html#ac5c4dd2be369c759c68e0a36a45bfcc7" target="_top" xlink:title="initialize solver">
<polygon fill="white" stroke="#666666" points="438,-174 328,-174 328,-144 438,-144 438,-174"/>
<text text-anchor="start" x="336" y="-162" font-family="Helvetica,sans-Serif" font-size="10.00">polyfem::State::init</text>
<text text-anchor="middle" x="383" y="-151" font-family="Helvetica,sans-Serif" font-size="10.00">_solve</text>
</a>
</g>
</g>
<!-- Node1&#45;&gt;Node2 -->
<g id="edge1" class="edge">
<title>Node1&#45;&gt;Node2</title>
<path fill="none" stroke="#63b8ff" d="M506.63,-107.3C490.33,-116.38 470.47,-126.84 452,-135 444.9,-138.14 437.25,-141.16 429.73,-143.94"/>
<polygon fill="#63b8ff" stroke="#63b8ff" points="508.79,-110.11 515.79,-102.15 505.36,-104.01 508.79,-110.11"/>
</g>
<!-- Node6 -->
<g id="node6" class="node">
<title>Node6</title>
<g id="a_node6"><a xlink:href="classpolyfem_1_1_state.html#ac37bfaa0b218fbf4a3caea64a7f695cb" target="_top" xlink:title="Solve the linear problem with the given solver and system.">
<polygon fill="white" stroke="#666666" points="443.5,-126 322.5,-126 322.5,-96 443.5,-96 443.5,-126"/>
<text text-anchor="start" x="330.5" y="-114" font-family="Helvetica,sans-Serif" font-size="10.00">polyfem::State::solve</text>
<text text-anchor="middle" x="383" y="-103" font-family="Helvetica,sans-Serif" font-size="10.00">_linear</text>
</a>
</g>
</g>
<!-- Node1&#45;&gt;Node6 -->
<g id="edge5" class="edge">
<title>Node1&#45;&gt;Node6</title>
<path fill="none" stroke="#63b8ff" d="M477.6,-96.74C466.41,-98.44 454.81,-100.21 443.73,-101.9"/>
<polygon fill="#63b8ff" stroke="#63b8ff" points="478.38,-100.16 487.74,-95.19 477.32,-93.24 478.38,-100.16"/>
</g>
<!-- Node7 -->
<g id="node7" class="node">
<title>Node7</title>
<g id="a_node7"><a xlink:href="classpolyfem_1_1_state.html#a76dfcaee0e24beeab2fda9449f404fe5" target="_top" xlink:title="solves a navier stokes">
<polygon fill="white" stroke="#666666" points="443.5,-78 322.5,-78 322.5,-48 443.5,-48 443.5,-78"/>
<text text-anchor="start" x="330.5" y="-66" font-family="Helvetica,sans-Serif" font-size="10.00">polyfem::State::solve</text>
<text text-anchor="middle" x="383" y="-55" font-family="Helvetica,sans-Serif" font-size="10.00">_navier_stokes</text>
</a>
</g>
</g>
<!-- Node1&#45;&gt;Node7 -->
<g id="edge6" class="edge">
<title>Node1&#45;&gt;Node7</title>
<path fill="none" stroke="#63b8ff" d="M477.6,-77.26C466.41,-75.56 454.81,-73.79 443.73,-72.1"/>
<polygon fill="#63b8ff" stroke="#63b8ff" points="477.32,-80.76 487.74,-78.81 478.38,-73.84 477.32,-80.76"/>
</g>
<!-- Node8 -->
<g id="node8" class="node">
<title>Node8</title>
<g id="a_node8"><a xlink:href="classpolyfem_1_1_state.html#ac42074a324e693f8eef5d7a96a56dc38" target="_top" xlink:title="solves transient navier stokes with FEM">
<polygon fill="white" stroke="#666666" points="452,-30 314,-30 314,0 452,0 452,-30"/>
<text text-anchor="start" x="322" y="-18" font-family="Helvetica,sans-Serif" font-size="10.00">polyfem::State::solve</text>
<text text-anchor="middle" x="383" y="-7" font-family="Helvetica,sans-Serif" font-size="10.00">_transient_navier_stokes</text>
</a>
</g>
</g>
<!-- Node1&#45;&gt;Node8 -->
<g id="edge8" class="edge">
<title>Node1&#45;&gt;Node8</title>
<path fill="none" stroke="#63b8ff" d="M506.63,-66.7C490.33,-57.62 470.47,-47.16 452,-39 444.9,-35.86 437.25,-32.84 429.73,-30.06"/>
<polygon fill="#63b8ff" stroke="#63b8ff" points="505.36,-69.99 515.79,-71.85 508.79,-63.89 505.36,-69.99"/>
</g>
<!-- Node3 -->
<g id="node3" class="node">
<title>Node3</title>
<g id="a_node3"><a xlink:href="classpolyfem_1_1_state.html#a7450ef7c42dd9c523e1be73a5819117d" target="_top" xlink:title="solves the problems">
<polygon fill="white" stroke="#666666" points="278,-78 157,-78 157,-48 278,-48 278,-78"/>
<text text-anchor="start" x="165" y="-66" font-family="Helvetica,sans-Serif" font-size="10.00">polyfem::State::solve</text>
<text text-anchor="middle" x="217.5" y="-55" font-family="Helvetica,sans-Serif" font-size="10.00">_problem</text>
</a>
</g>
</g>
<!-- Node2&#45;&gt;Node3 -->
<g id="edge2" class="edge">
<title>Node2&#45;&gt;Node3</title>
<path fill="none" stroke="#63b8ff" d="M324.04,-139.94C320.6,-138.38 317.22,-136.73 314,-135 284.18,-118.99 253.62,-94.18 235.35,-78.26"/>
<polygon fill="#63b8ff" stroke="#63b8ff" points="322.72,-143.18 333.29,-143.87 325.45,-136.74 322.72,-143.18"/>
</g>
<!-- Node4 -->
<g id="node4" class="node">
<title>Node4</title>
<g id="a_node4"><a xlink:href="main_8cpp.html#a3c04138a5bfe5d72780bb7e82a18e627" target="_top" xlink:title=" ">
<polygon fill="white" stroke="#666666" points="81,-91.5 40,-91.5 40,-72.5 81,-72.5 81,-91.5"/>
<text text-anchor="middle" x="60.5" y="-79.5" font-family="Helvetica,sans-Serif" font-size="10.00">main</text>
</a>
</g>
</g>
<!-- Node3&#45;&gt;Node4 -->
<g id="edge3" class="edge">
<title>Node3&#45;&gt;Node4</title>
<path fill="none" stroke="#63b8ff" d="M146.43,-71.59C122.57,-74.51 97.75,-77.56 81.16,-79.59"/>
<polygon fill="#63b8ff" stroke="#63b8ff" points="147.07,-75.04 156.57,-70.35 146.22,-68.09 147.07,-75.04"/>
</g>
<!-- Node5 -->
<g id="node5" class="node">
<title>Node5</title>
<g id="a_node5"><a xlink:href="classpolyfem_1_1_state.html#a219f9935d918f739d82488449bd4cbf4" target="_top" xlink:title="solves the problem, call other methods">
<polygon fill="white" stroke="#666666" points="121,-54.5 0,-54.5 0,-35.5 121,-35.5 121,-54.5"/>
<text text-anchor="middle" x="60.5" y="-42.5" font-family="Helvetica,sans-Serif" font-size="10.00">polyfem::State::solve</text>
</a>
</g>
</g>
<!-- Node3&#45;&gt;Node5 -->
<g id="edge4" class="edge">
<title>Node3&#45;&gt;Node5</title>
<path fill="none" stroke="#63b8ff" d="M146.62,-54.88C138.07,-53.89 129.39,-52.88 121.01,-51.91"/>
<polygon fill="#63b8ff" stroke="#63b8ff" points="146.24,-58.36 156.57,-56.04 147.04,-51.41 146.24,-58.36"/>
</g>
<!-- Node7&#45;&gt;Node3 -->
<g id="edge7" class="edge">
<title>Node7&#45;&gt;Node3</title>
<path fill="none" stroke="#63b8ff" d="M311.85,-63C300.63,-63 289.12,-63 278.17,-63"/>
<polygon fill="#63b8ff" stroke="#63b8ff" points="312.05,-66.5 322.05,-63 312.05,-59.5 312.05,-66.5"/>
</g>
<!-- Node8&#45;&gt;Node3 -->
<g id="edge9" class="edge">
<title>Node8&#45;&gt;Node3</title>
<path fill="none" stroke="#63b8ff" d="M320.94,-32.93C304.03,-37.89 285.87,-43.22 269.6,-48"/>
<polygon fill="#63b8ff" stroke="#63b8ff" points="322.11,-36.23 330.72,-30.06 320.14,-29.51 322.11,-36.23"/>
</g>
</g>
</svg>
