<?xml version="1.0" encoding="UTF-8" standalone="no"?>
<!DOCTYPE svg PUBLIC "-//W3C//DTD SVG 1.1//EN"
 "http://www.w3.org/Graphics/SVG/1.1/DTD/svg11.dtd">
<!-- Generated by graphviz version 2.43.0 (0)
 -->
<!-- Title: polyfem::solver::NLProblem::reduced_size Pages: 1 -->
<svg width="1849pt" height="741pt"
 viewBox="0.00 0.00 1849.00 740.72" xmlns="http://www.w3.org/2000/svg" xmlns:xlink="http://www.w3.org/1999/xlink">
<g id="graph0" class="graph" transform="scale(1 1) rotate(0) translate(4 736.72)">
<title>polyfem::solver::NLProblem::reduced_size</title>
<!-- Node1 -->
<g id="node1" class="node">
<title>Node1</title>
<g id="a_node1"><a xlink:title=" ">
<polygon fill="#999999" stroke="#666666" points="1841,-513 1689,-513 1689,-483 1841,-483 1841,-513"/>
<text text-anchor="start" x="1697" y="-501" font-family="Helvetica,sans-Serif" font-size="10.00">polyfem::solver::NLProblem</text>
<text text-anchor="middle" x="1765" y="-490" font-family="Helvetica,sans-Serif" font-size="10.00">::reduced_size</text>
</a>
</g>
</g>
<!-- Node2 -->
<g id="node2" class="node">
<title>Node2</title>
<g id="a_node2"><a xlink:href="classpolyfem_1_1solver_1_1_n_l_problem.html#a4bb4f627d02af65c8b32b50ea19e13c2" target="_top" xlink:title=" ">
<polygon fill="white" stroke="#666666" points="1653,-527 1501,-527 1501,-497 1653,-497 1653,-527"/>
<text text-anchor="start" x="1509" y="-515" font-family="Helvetica,sans-Serif" font-size="10.00">polyfem::solver::NLProblem</text>
<text text-anchor="middle" x="1577" y="-504" font-family="Helvetica,sans-Serif" font-size="10.00">::current_size</text>
</a>
</g>
</g>
<!-- Node1&#45;&gt;Node2 -->
<g id="edge1" class="edge">
<title>Node1&#45;&gt;Node2</title>
<path fill="none" stroke="#63b8ff" d="M1678.85,-504.41C1670.26,-505.06 1661.57,-505.71 1653.1,-506.35"/>
<polygon fill="#63b8ff" stroke="#63b8ff" points="1679.17,-507.89 1688.88,-503.65 1678.65,-500.91 1679.17,-507.89"/>
</g>
<!-- Node12 -->
<g id="node12" class="node">
<title>Node12</title>
<g id="a_node12"><a xlink:href="classpolyfem_1_1solver_1_1_a_l_solver.html#a7c0a22e768625967a23702241a0a6595" target="_top" xlink:title=" ">
<polygon fill="white" stroke="#666666" points="896,-237 754,-237 754,-207 896,-207 896,-237"/>
<text text-anchor="start" x="762" y="-225" font-family="Helvetica,sans-Serif" font-size="10.00">polyfem::solver::ALSolver</text>
<text text-anchor="middle" x="825" y="-214" font-family="Helvetica,sans-Serif" font-size="10.00">::solve</text>
</a>
</g>
</g>
<!-- Node1&#45;&gt;Node12 -->
<g id="edge45" class="edge">
<title>Node1&#45;&gt;Node12</title>
<path fill="none" stroke="#63b8ff" d="M1758.4,-472.88C1734.25,-371.78 1629.16,0 1390,0 1390,0 1390,0 1200,0 1146.69,0 986.03,-40.97 937,-75 885.77,-110.56 848.18,-177.24 833.18,-207"/>
<polygon fill="#63b8ff" stroke="#63b8ff" points="1755.04,-473.88 1760.72,-482.82 1761.86,-472.29 1755.04,-473.88"/>
</g>
<!-- Node27 -->
<g id="node27" class="node">
<title>Node27</title>
<g id="a_node27"><a xlink:href="classpolyfem_1_1solver_1_1_n_l_problem.html#a203d0a565a01b4075a8aac1e93a922b6" target="_top" xlink:title=" ">
<polygon fill="white" stroke="#666666" points="1653,-623 1501,-623 1501,-593 1653,-593 1653,-623"/>
<text text-anchor="start" x="1509" y="-611" font-family="Helvetica,sans-Serif" font-size="10.00">polyfem::solver::NLProblem</text>
<text text-anchor="middle" x="1577" y="-600" font-family="Helvetica,sans-Serif" font-size="10.00">::full_to_reduced_aux</text>
</a>
</g>
</g>
<!-- Node1&#45;&gt;Node27 -->
<g id="edge41" class="edge">
<title>Node1&#45;&gt;Node27</title>
<path fill="none" stroke="#63b8ff" d="M1729.71,-518.28C1693.18,-539.88 1636.2,-573.58 1603.46,-592.94"/>
<polygon fill="#63b8ff" stroke="#63b8ff" points="1731.7,-521.17 1738.53,-513.06 1728.14,-515.14 1731.7,-521.17"/>
</g>
<!-- Node28 -->
<g id="node28" class="node">
<title>Node28</title>
<g id="a_node28"><a xlink:href="classpolyfem_1_1solver_1_1_n_l_problem.html#aa1c6070db825c4830242808e26908ce0" target="_top" xlink:title=" ">
<polygon fill="white" stroke="#666666" points="1653,-403 1501,-403 1501,-373 1653,-373 1653,-403"/>
<text text-anchor="start" x="1509" y="-391" font-family="Helvetica,sans-Serif" font-size="10.00">polyfem::solver::NLProblem</text>
<text text-anchor="middle" x="1577" y="-380" font-family="Helvetica,sans-Serif" font-size="10.00">::reduced_to_full_aux</text>
</a>
</g>
</g>
<!-- Node1&#45;&gt;Node28 -->
<g id="edge43" class="edge">
<title>Node1&#45;&gt;Node28</title>
<path fill="none" stroke="#63b8ff" d="M1729.71,-477.72C1693.18,-456.12 1636.2,-422.42 1603.46,-403.06"/>
<polygon fill="#63b8ff" stroke="#63b8ff" points="1728.14,-480.86 1738.53,-482.94 1731.7,-474.83 1728.14,-480.86"/>
</g>
<!-- Node3 -->
<g id="node3" class="node">
<title>Node3</title>
<g id="a_node3"><a xlink:href="classpolyfem_1_1solver_1_1_n_l_problem.html#a7000e6d7044be55a8bdb4db462f95d91" target="_top" xlink:title=" ">
<polygon fill="white" stroke="#666666" points="1465,-670 1313,-670 1313,-640 1465,-640 1465,-670"/>
<text text-anchor="start" x="1321" y="-658" font-family="Helvetica,sans-Serif" font-size="10.00">polyfem::solver::NLProblem</text>
<text text-anchor="middle" x="1389" y="-647" font-family="Helvetica,sans-Serif" font-size="10.00">::full_to_reduced</text>
</a>
</g>
</g>
<!-- Node2&#45;&gt;Node3 -->
<g id="edge2" class="edge">
<title>Node2&#45;&gt;Node3</title>
<path fill="none" stroke="#63b8ff" d="M1548.35,-533.26C1510.31,-562.5 1442.79,-614.41 1409.57,-639.95"/>
<polygon fill="#63b8ff" stroke="#63b8ff" points="1550.65,-535.9 1556.45,-527.03 1546.39,-530.35 1550.65,-535.9"/>
</g>
<!-- Node13 -->
<g id="node13" class="node">
<title>Node13</title>
<g id="a_node13"><a xlink:href="classpolyfem_1_1solver_1_1_n_l_problem.html#ac5391ca8bfaf7182e806ea462405c8a9" target="_top" xlink:title=" ">
<polygon fill="white" stroke="#666666" points="1277,-609 1125,-609 1125,-579 1277,-579 1277,-609"/>
<text text-anchor="start" x="1133" y="-597" font-family="Helvetica,sans-Serif" font-size="10.00">polyfem::solver::NLProblem</text>
<text text-anchor="middle" x="1201" y="-586" font-family="Helvetica,sans-Serif" font-size="10.00">::hessian</text>
</a>
</g>
</g>
<!-- Node2&#45;&gt;Node13 -->
<g id="edge15" class="edge">
<title>Node2&#45;&gt;Node13</title>
<path fill="none" stroke="#63b8ff" d="M1497.29,-529.26C1430.13,-543.98 1334.53,-564.94 1270.48,-578.99"/>
<polygon fill="#63b8ff" stroke="#63b8ff" points="1498.38,-532.6 1507.4,-527.04 1496.89,-525.76 1498.38,-532.6"/>
</g>
<!-- Node14 -->
<g id="node14" class="node">
<title>Node14</title>
<g id="a_node14"><a xlink:href="classpolyfem_1_1solver_1_1_n_l_problem.html#a887440705d78e1fe9ae808e053e3210b" target="_top" xlink:title=" ">
<polygon fill="white" stroke="#666666" points="1465,-389 1313,-389 1313,-359 1465,-359 1465,-389"/>
<text text-anchor="start" x="1321" y="-377" font-family="Helvetica,sans-Serif" font-size="10.00">polyfem::solver::NLProblem</text>
<text text-anchor="middle" x="1389" y="-366" font-family="Helvetica,sans-Serif" font-size="10.00">::reduced_to_full</text>
</a>
</g>
</g>
<!-- Node2&#45;&gt;Node14 -->
<g id="edge17" class="edge">
<title>Node2&#45;&gt;Node14</title>
<path fill="none" stroke="#63b8ff" d="M1547.65,-490.97C1509.75,-462.85 1443.48,-413.68 1410.23,-389.01"/>
<polygon fill="#63b8ff" stroke="#63b8ff" points="1545.62,-493.82 1555.74,-496.97 1549.8,-488.2 1545.62,-493.82"/>
</g>
<!-- Node4 -->
<g id="node4" class="node">
<title>Node4</title>
<g id="a_node4"><a xlink:href="classpolyfem_1_1solver_1_1_n_l_problem.html#a727281312b26149dbbce7d9e4f283d58" target="_top" xlink:title=" ">
<polygon fill="white" stroke="#666666" points="1277,-713 1125,-713 1125,-683 1277,-683 1277,-713"/>
<text text-anchor="start" x="1133" y="-701" font-family="Helvetica,sans-Serif" font-size="10.00">polyfem::solver::NLProblem</text>
<text text-anchor="middle" x="1201" y="-690" font-family="Helvetica,sans-Serif" font-size="10.00">::gradient</text>
</a>
</g>
</g>
<!-- Node3&#45;&gt;Node4 -->
<g id="edge3" class="edge">
<title>Node3&#45;&gt;Node4</title>
<path fill="none" stroke="#63b8ff" d="M1313.04,-672.33C1297.8,-675.85 1281.88,-679.53 1267.02,-682.97"/>
<polygon fill="#63b8ff" stroke="#63b8ff" points="1313.99,-675.7 1322.95,-670.04 1312.41,-668.88 1313.99,-675.7"/>
</g>
<!-- Node5 -->
<g id="node5" class="node">
<title>Node5</title>
<g id="a_node5"><a xlink:href="classpolyfem_1_1_state.html#acdb194af25d840fa14cec97b19e04577" target="_top" xlink:title="solves nonlinear problems">
<polygon fill="white" stroke="#666666" points="713,-566 592,-566 592,-536 713,-536 713,-566"/>
<text text-anchor="start" x="600" y="-554" font-family="Helvetica,sans-Serif" font-size="10.00">polyfem::State::solve</text>
<text text-anchor="middle" x="652.5" y="-543" font-family="Helvetica,sans-Serif" font-size="10.00">_tensor_nonlinear</text>
</a>
</g>
</g>
<!-- Node3&#45;&gt;Node5 -->
<g id="edge14" class="edge">
<title>Node3&#45;&gt;Node5</title>
<path fill="none" stroke="#63b8ff" d="M1362.29,-676.13C1340.93,-692.23 1308.97,-713.1 1277,-722 1211.92,-740.12 1191.96,-730.92 1125,-722 953.37,-699.13 905.27,-694.58 749,-620 718.91,-605.64 688.42,-581.59 670.24,-566.02"/>
<polygon fill="#63b8ff" stroke="#63b8ff" points="1364.44,-678.89 1370.21,-670.01 1360.16,-673.35 1364.44,-678.89"/>
</g>
<!-- Node3&#45;&gt;Node12 -->
<g id="edge12" class="edge">
<title>Node3&#45;&gt;Node12</title>
<path fill="none" stroke="#63b8ff" d="M1302.67,-659.41C1250.16,-659.56 1182.2,-655.08 1125,-636 1030.74,-604.55 996.31,-594.72 937,-515 902.49,-468.62 920.83,-444.31 901,-390 879.96,-332.39 848.29,-266.7 833.77,-237.45"/>
<polygon fill="#63b8ff" stroke="#63b8ff" points="1302.99,-662.9 1312.96,-659.32 1302.93,-655.9 1302.99,-662.9"/>
</g>
<!-- Node4&#45;&gt;Node5 -->
<g id="edge4" class="edge">
<title>Node4&#45;&gt;Node5</title>
<path fill="none" stroke="#63b8ff" d="M1119.49,-680.76C1028.71,-660.69 877.07,-625.24 749,-586 729.92,-580.15 709.08,-572.65 691.75,-566.09"/>
<polygon fill="#63b8ff" stroke="#63b8ff" points="1118.92,-684.22 1129.44,-682.96 1120.42,-677.39 1118.92,-684.22"/>
</g>
<!-- Node6 -->
<g id="node6" class="node">
<title>Node6</title>
<g id="a_node6"><a xlink:href="classpolyfem_1_1_state.html#a7450ef7c42dd9c523e1be73a5819117d" target="_top" xlink:title="solves the problems">
<polygon fill="white" stroke="#666666" points="368,-566 247,-566 247,-536 368,-536 368,-566"/>
<text text-anchor="start" x="255" y="-554" font-family="Helvetica,sans-Serif" font-size="10.00">polyfem::State::solve</text>
<text text-anchor="middle" x="307.5" y="-543" font-family="Helvetica,sans-Serif" font-size="10.00">_problem</text>
</a>
</g>
</g>
<!-- Node5&#45;&gt;Node6 -->
<g id="edge5" class="edge">
<title>Node5&#45;&gt;Node6</title>
<path fill="none" stroke="#63b8ff" d="M581.78,-553.44C573.1,-553.67 564.34,-553.87 556,-554 488.45,-555.06 471.55,-555.06 404,-554 392.39,-553.82 379.99,-553.51 368.1,-553.16"/>
<polygon fill="#63b8ff" stroke="#63b8ff" points="582,-556.94 591.9,-553.16 581.81,-549.94 582,-556.94"/>
</g>
<!-- Node11 -->
<g id="node11" class="node">
<title>Node11</title>
<g id="a_node11"><a xlink:href="classpolyfem_1_1_state.html#a4d91e8c971fc121b0cff2f0c02ca79e7" target="_top" xlink:title="solves transient tensor nonlinear problem">
<polygon fill="white" stroke="#666666" points="556,-545 404,-545 404,-515 556,-515 556,-545"/>
<text text-anchor="start" x="412" y="-533" font-family="Helvetica,sans-Serif" font-size="10.00">polyfem::State::solve</text>
<text text-anchor="middle" x="480" y="-522" font-family="Helvetica,sans-Serif" font-size="10.00">_transient_tensor_nonlinear</text>
</a>
</g>
</g>
<!-- Node5&#45;&gt;Node11 -->
<g id="edge10" class="edge">
<title>Node5&#45;&gt;Node11</title>
<path fill="none" stroke="#63b8ff" d="M581.72,-542.41C573.31,-541.37 564.68,-540.31 556.19,-539.26"/>
<polygon fill="#63b8ff" stroke="#63b8ff" points="581.51,-545.91 591.87,-543.66 582.37,-538.96 581.51,-545.91"/>
</g>
<!-- Node7 -->
<g id="node7" class="node">
<title>Node7</title>
<g id="a_node7"><a xlink:href="main_8cpp.html#a48e4775e12bdf81ebb0eaa27df888aa0" target="_top" xlink:title=" ">
<polygon fill="white" stroke="#666666" points="199.5,-597.5 88.5,-597.5 88.5,-578.5 199.5,-578.5 199.5,-597.5"/>
<text text-anchor="middle" x="144" y="-585.5" font-family="Helvetica,sans-Serif" font-size="10.00">forward_simulation</text>
</a>
</g>
</g>
<!-- Node6&#45;&gt;Node7 -->
<g id="edge6" class="edge">
<title>Node6&#45;&gt;Node7</title>
<path fill="none" stroke="#63b8ff" d="M236.88,-566.95C219.82,-570.86 202.08,-574.92 186.8,-578.42"/>
<polygon fill="#63b8ff" stroke="#63b8ff" points="237.86,-570.32 246.82,-564.67 236.29,-563.49 237.86,-570.32"/>
</g>
<!-- Node9 -->
<g id="node9" class="node">
<title>Node9</title>
<g id="a_node9"><a xlink:href="classpolyfem_1_1_state.html#a219f9935d918f739d82488449bd4cbf4" target="_top" xlink:title="solves the problem, call other methods">
<polygon fill="white" stroke="#666666" points="204.5,-560.5 83.5,-560.5 83.5,-541.5 204.5,-541.5 204.5,-560.5"/>
<text text-anchor="middle" x="144" y="-548.5" font-family="Helvetica,sans-Serif" font-size="10.00">polyfem::State::solve</text>
</a>
</g>
</g>
<!-- Node6&#45;&gt;Node9 -->
<g id="edge8" class="edge">
<title>Node6&#45;&gt;Node9</title>
<path fill="none" stroke="#63b8ff" d="M236.7,-551C226.04,-551 215.12,-551 204.7,-551"/>
<polygon fill="#63b8ff" stroke="#63b8ff" points="236.82,-554.5 246.82,-551 236.82,-547.5 236.82,-554.5"/>
</g>
<!-- Node10 -->
<g id="node10" class="node">
<title>Node10</title>
<g id="a_node10"><a xlink:href="structpolyfem_1_1solver_1_1_adjoint_opt_utils.html#acac3e8ce8646ddd1544ed034c71bec96" target="_top" xlink:title=" ">
<polygon fill="white" stroke="#666666" points="211,-523 77,-523 77,-493 211,-493 211,-523"/>
<text text-anchor="start" x="85" y="-511" font-family="Helvetica,sans-Serif" font-size="10.00">polyfem::solver::Adjoint</text>
<text text-anchor="middle" x="144" y="-500" font-family="Helvetica,sans-Serif" font-size="10.00">OptUtils::solve_pde</text>
</a>
</g>
</g>
<!-- Node6&#45;&gt;Node10 -->
<g id="edge9" class="edge">
<title>Node6&#45;&gt;Node10</title>
<path fill="none" stroke="#63b8ff" d="M240.28,-533.37C227.39,-529.94 213.99,-526.37 201.45,-523.03"/>
<polygon fill="#63b8ff" stroke="#63b8ff" points="239.45,-536.77 250.02,-535.96 241.25,-530.01 239.45,-536.77"/>
</g>
<!-- Node8 -->
<g id="node8" class="node">
<title>Node8</title>
<g id="a_node8"><a xlink:href="main_8cpp.html#a3c04138a5bfe5d72780bb7e82a18e627" target="_top" xlink:title=" ">
<polygon fill="white" stroke="#666666" points="41,-597.5 0,-597.5 0,-578.5 41,-578.5 41,-597.5"/>
<text text-anchor="middle" x="20.5" y="-585.5" font-family="Helvetica,sans-Serif" font-size="10.00">main</text>
</a>
</g>
</g>
<!-- Node7&#45;&gt;Node8 -->
<g id="edge7" class="edge">
<title>Node7&#45;&gt;Node8</title>
<path fill="none" stroke="#63b8ff" d="M77.97,-588C64.49,-588 51.29,-588 41.05,-588"/>
<polygon fill="#63b8ff" stroke="#63b8ff" points="78.29,-591.5 88.29,-588 78.29,-584.5 78.29,-591.5"/>
</g>
<!-- Node11&#45;&gt;Node6 -->
<g id="edge11" class="edge">
<title>Node11&#45;&gt;Node6</title>
<path fill="none" stroke="#63b8ff" d="M393.59,-540.52C384.95,-541.58 376.31,-542.65 368.02,-543.67"/>
<polygon fill="#63b8ff" stroke="#63b8ff" points="394.22,-543.97 403.72,-539.27 393.37,-537.02 394.22,-543.97"/>
</g>
<!-- Node12&#45;&gt;Node5 -->
<g id="edge13" class="edge">
<title>Node12&#45;&gt;Node5</title>
<path fill="none" stroke="#63b8ff" d="M811.32,-246.46C777.93,-310.9 688.26,-483.93 661.28,-535.98"/>
<polygon fill="#63b8ff" stroke="#63b8ff" points="814.51,-247.92 816.01,-237.43 808.3,-244.7 814.51,-247.92"/>
</g>
<!-- Node13&#45;&gt;Node13 -->
<g id="edge16" class="edge">
<title>Node13&#45;&gt;Node13</title>
<path fill="none" stroke="#63b8ff" d="M1233.91,-619.6C1229.41,-623.97 1218.44,-627 1201,-627 1171.62,-627 1160.61,-618.41 1167.95,-609.28"/>
<polygon fill="#63b8ff" stroke="#63b8ff" points="1237.41,-619.32 1234.05,-609.28 1230.41,-619.23 1237.41,-619.32"/>
</g>
<!-- Node14&#45;&gt;Node4 -->
<g id="edge18" class="edge">
<title>Node14&#45;&gt;Node4</title>
<path fill="none" stroke="#63b8ff" d="M1381.75,-398.95C1368.57,-448.03 1334.33,-559.05 1277,-636 1262.97,-654.83 1242.06,-671.49 1225.89,-682.79"/>
<polygon fill="#63b8ff" stroke="#63b8ff" points="1385.16,-399.74 1384.31,-389.18 1378.39,-397.97 1385.16,-399.74"/>
</g>
<!-- Node14&#45;&gt;Node5 -->
<g id="edge35" class="edge">
<title>Node14&#45;&gt;Node5</title>
<path fill="none" stroke="#63b8ff" d="M1377.38,-398.64C1361.25,-432.62 1327.05,-492.67 1277,-519 1180.36,-569.85 849.57,-560.48 713.1,-554.18"/>
<polygon fill="#63b8ff" stroke="#63b8ff" points="1380.63,-399.94 1381.63,-389.39 1374.27,-397.02 1380.63,-399.94"/>
</g>
<!-- Node14&#45;&gt;Node12 -->
<g id="edge34" class="edge">
<title>Node14&#45;&gt;Node12</title>
<path fill="none" stroke="#63b8ff" d="M1386.06,-348.68C1380.37,-294.04 1358.52,-165.46 1277,-109 1214.87,-65.98 1006.24,-71.73 937,-102 887.33,-123.71 849.99,-179.83 834.23,-206.92"/>
<polygon fill="#63b8ff" stroke="#63b8ff" points="1382.6,-349.25 1387.02,-358.87 1389.57,-348.59 1382.6,-349.25"/>
</g>
<!-- Node14&#45;&gt;Node13 -->
<g id="edge19" class="edge">
<title>Node14&#45;&gt;Node13</title>
<path fill="none" stroke="#63b8ff" d="M1376.36,-398.42C1354.1,-444.3 1305.19,-540.93 1277,-565 1270.42,-570.62 1262.62,-575.22 1254.59,-578.96"/>
<polygon fill="#63b8ff" stroke="#63b8ff" points="1379.63,-399.71 1380.82,-389.19 1373.32,-396.67 1379.63,-399.71"/>
</g>
<!-- Node15 -->
<g id="node15" class="node">
<title>Node15</title>
<g id="a_node15"><a xlink:href="classpolyfem_1_1solver_1_1_n_l_problem.html#a77c70b1fa956d5dcd24e4f4fb214cee9" target="_top" xlink:title=" ">
<polygon fill="white" stroke="#666666" points="1089,-506 937,-506 937,-476 1089,-476 1089,-506"/>
<text text-anchor="start" x="945" y="-494" font-family="Helvetica,sans-Serif" font-size="10.00">polyfem::solver::NLProblem</text>
<text text-anchor="middle" x="1013" y="-483" font-family="Helvetica,sans-Serif" font-size="10.00">::init_lagging</text>
</a>
</g>
</g>
<!-- Node14&#45;&gt;Node15 -->
<g id="edge20" class="edge">
<title>Node14&#45;&gt;Node15</title>
<path fill="none" stroke="#63b8ff" d="M1374.54,-397.79C1356.6,-426.81 1321.82,-474.41 1277,-494 1213.82,-521.62 1133.67,-515.61 1078.55,-506.04"/>
<polygon fill="#63b8ff" stroke="#63b8ff" points="1377.63,-399.46 1379.77,-389.08 1371.62,-395.85 1377.63,-399.46"/>
</g>
<!-- Node16 -->
<g id="node16" class="node">
<title>Node16</title>
<g id="a_node16"><a xlink:href="classpolyfem_1_1solver_1_1_n_l_problem.html#a7e513a5bf53df67973b32848b43223c0" target="_top" xlink:title=" ">
<polygon fill="white" stroke="#666666" points="1089,-333 937,-333 937,-303 1089,-303 1089,-333"/>
<text text-anchor="start" x="945" y="-321" font-family="Helvetica,sans-Serif" font-size="10.00">polyfem::solver::NLProblem</text>
<text text-anchor="middle" x="1013" y="-310" font-family="Helvetica,sans-Serif" font-size="10.00">::is_step_collision_free</text>
</a>
</g>
</g>
<!-- Node14&#45;&gt;Node16 -->
<g id="edge22" class="edge">
<title>Node14&#45;&gt;Node16</title>
<path fill="none" stroke="#63b8ff" d="M1357.63,-353.38C1336.15,-340.1 1306.11,-324.04 1277,-317 1214.98,-302.01 1142.29,-303.68 1089.07,-308.29"/>
<polygon fill="#63b8ff" stroke="#63b8ff" points="1355.96,-356.47 1366.28,-358.87 1359.71,-350.56 1355.96,-356.47"/>
</g>
<!-- Node17 -->
<g id="node17" class="node">
<title>Node17</title>
<g id="a_node17"><a xlink:href="classpolyfem_1_1solver_1_1_n_l_problem.html#a4db19ca2abdc0fa349994c9e44bb365a" target="_top" xlink:title=" ">
<polygon fill="white" stroke="#666666" points="1089,-285 937,-285 937,-255 1089,-255 1089,-285"/>
<text text-anchor="start" x="945" y="-273" font-family="Helvetica,sans-Serif" font-size="10.00">polyfem::solver::NLProblem</text>
<text text-anchor="middle" x="1013" y="-262" font-family="Helvetica,sans-Serif" font-size="10.00">::is_step_valid</text>
</a>
</g>
</g>
<!-- Node14&#45;&gt;Node17 -->
<g id="edge24" class="edge">
<title>Node14&#45;&gt;Node17</title>
<path fill="none" stroke="#63b8ff" d="M1362.6,-352.67C1341.2,-335.95 1309.02,-313.63 1277,-302 1216.25,-279.95 1142.97,-272.46 1089.2,-270.2"/>
<polygon fill="#63b8ff" stroke="#63b8ff" points="1360.53,-355.49 1370.53,-358.99 1364.89,-350.02 1360.53,-355.49"/>
</g>
<!-- Node18 -->
<g id="node18" class="node">
<title>Node18</title>
<g id="a_node18"><a xlink:href="classpolyfem_1_1solver_1_1_n_l_problem.html#a077079d9df337f943b9472430109f64f" target="_top" xlink:title=" ">
<polygon fill="white" stroke="#666666" points="1089,-237 937,-237 937,-207 1089,-207 1089,-237"/>
<text text-anchor="start" x="945" y="-225" font-family="Helvetica,sans-Serif" font-size="10.00">polyfem::solver::NLProblem</text>
<text text-anchor="middle" x="1013" y="-214" font-family="Helvetica,sans-Serif" font-size="10.00">::line_search_begin</text>
</a>
</g>
</g>
<!-- Node14&#45;&gt;Node18 -->
<g id="edge26" class="edge">
<title>Node14&#45;&gt;Node18</title>
<path fill="none" stroke="#63b8ff" d="M1370.56,-350.92C1350.72,-326.45 1315.98,-288.67 1277,-269 1218.2,-239.33 1143.71,-228.12 1089.03,-224.01"/>
<polygon fill="#63b8ff" stroke="#63b8ff" points="1367.99,-353.31 1376.94,-358.97 1373.47,-348.96 1367.99,-353.31"/>
</g>
<!-- Node19 -->
<g id="node19" class="node">
<title>Node19</title>
<g id="a_node19"><a xlink:href="classpolyfem_1_1solver_1_1_n_l_problem.html#a0f6010db70fac314b23b19dc48f4f00d" target="_top" xlink:title=" ">
<polygon fill="white" stroke="#666666" points="1277,-58 1125,-58 1125,-28 1277,-28 1277,-58"/>
<text text-anchor="start" x="1133" y="-46" font-family="Helvetica,sans-Serif" font-size="10.00">polyfem::solver::NLProblem</text>
<text text-anchor="middle" x="1201" y="-35" font-family="Helvetica,sans-Serif" font-size="10.00">::max_step_size</text>
</a>
</g>
</g>
<!-- Node14&#45;&gt;Node19 -->
<g id="edge28" class="edge">
<title>Node14&#45;&gt;Node19</title>
<path fill="none" stroke="#63b8ff" d="M1385.65,-348.54C1379.06,-291.39 1355.4,-151.72 1277,-72 1271.42,-66.33 1264.61,-61.74 1257.39,-58.04"/>
<polygon fill="#63b8ff" stroke="#63b8ff" points="1382.21,-349.25 1386.75,-358.82 1389.17,-348.51 1382.21,-349.25"/>
</g>
<!-- Node20 -->
<g id="node20" class="node">
<title>Node20</title>
<g id="a_node20"><a xlink:href="classpolyfem_1_1solver_1_1_n_l_problem.html#ade0951bf92aab68f8201e383f4396b8b" target="_top" xlink:title=" ">
<polygon fill="white" stroke="#666666" points="1277,-485 1125,-485 1125,-455 1277,-455 1277,-485"/>
<text text-anchor="start" x="1133" y="-473" font-family="Helvetica,sans-Serif" font-size="10.00">polyfem::solver::NLProblem</text>
<text text-anchor="middle" x="1201" y="-462" font-family="Helvetica,sans-Serif" font-size="10.00">::post_step</text>
</a>
</g>
</g>
<!-- Node14&#45;&gt;Node20 -->
<g id="edge29" class="edge">
<title>Node14&#45;&gt;Node20</title>
<path fill="none" stroke="#63b8ff" d="M1359.97,-395.18C1338.23,-410.85 1306.87,-431.84 1277,-446 1270.08,-449.28 1262.6,-452.27 1255.14,-454.95"/>
<polygon fill="#63b8ff" stroke="#63b8ff" points="1362.08,-397.98 1368.09,-389.25 1357.95,-392.32 1362.08,-397.98"/>
</g>
<!-- Node21 -->
<g id="node21" class="node">
<title>Node21</title>
<g id="a_node21"><a xlink:href="classpolyfem_1_1solver_1_1_n_l_problem.html#aedf81fd753bb54d804eabb10af39df87" target="_top" xlink:title=" ">
<polygon fill="white" stroke="#666666" points="1277,-189 1125,-189 1125,-159 1277,-159 1277,-189"/>
<text text-anchor="start" x="1133" y="-177" font-family="Helvetica,sans-Serif" font-size="10.00">polyfem::solver::NLProblem</text>
<text text-anchor="middle" x="1201" y="-166" font-family="Helvetica,sans-Serif" font-size="10.00">::set_apply_DBC</text>
</a>
</g>
</g>
<!-- Node14&#45;&gt;Node21 -->
<g id="edge30" class="edge">
<title>Node14&#45;&gt;Node21</title>
<path fill="none" stroke="#63b8ff" d="M1378.05,-349.51C1361.97,-312.83 1326.98,-243.58 1277,-203 1270.17,-197.46 1262.16,-192.88 1253.97,-189.14"/>
<polygon fill="#63b8ff" stroke="#63b8ff" points="1374.93,-351.12 1382.07,-358.95 1381.37,-348.37 1374.93,-351.12"/>
</g>
<!-- Node23 -->
<g id="node23" class="node">
<title>Node23</title>
<g id="a_node23"><a xlink:href="classpolyfem_1_1solver_1_1_n_l_problem.html#ade6ccc960c7b39a7f0645bb2acaf2ddd" target="_top" xlink:title=" ">
<polygon fill="white" stroke="#666666" points="1277,-437 1125,-437 1125,-407 1277,-407 1277,-437"/>
<text text-anchor="start" x="1133" y="-425" font-family="Helvetica,sans-Serif" font-size="10.00">polyfem::solver::NLProblem</text>
<text text-anchor="middle" x="1201" y="-414" font-family="Helvetica,sans-Serif" font-size="10.00">::solution_changed</text>
</a>
</g>
</g>
<!-- Node14&#45;&gt;Node23 -->
<g id="edge33" class="edge">
<title>Node14&#45;&gt;Node23</title>
<path fill="none" stroke="#63b8ff" d="M1319.88,-391.58C1300.27,-396.64 1279.08,-402.11 1260.13,-407"/>
<polygon fill="#63b8ff" stroke="#63b8ff" points="1320.85,-394.94 1329.66,-389.06 1319.1,-388.17 1320.85,-394.94"/>
</g>
<!-- Node24 -->
<g id="node24" class="node">
<title>Node24</title>
<g id="a_node24"><a xlink:href="classpolyfem_1_1solver_1_1_n_l_problem.html#a95e034a58eb88d93767df43d46691746" target="_top" xlink:title=" ">
<polygon fill="white" stroke="#666666" points="901,-429 749,-429 749,-399 901,-399 901,-429"/>
<text text-anchor="start" x="757" y="-417" font-family="Helvetica,sans-Serif" font-size="10.00">polyfem::solver::NLProblem</text>
<text text-anchor="middle" x="825" y="-406" font-family="Helvetica,sans-Serif" font-size="10.00">::update_lagging</text>
</a>
</g>
</g>
<!-- Node14&#45;&gt;Node24 -->
<g id="edge36" class="edge">
<title>Node14&#45;&gt;Node24</title>
<path fill="none" stroke="#63b8ff" d="M1319.57,-356.82C1305.58,-353.98 1290.88,-351.48 1277,-350 1209.83,-342.82 1192.18,-342.89 1125,-350 1037.9,-359.22 938.86,-383.14 879.46,-398.98"/>
<polygon fill="#63b8ff" stroke="#63b8ff" points="1319.11,-360.3 1329.62,-358.94 1320.56,-353.45 1319.11,-360.3"/>
</g>
<!-- Node25 -->
<g id="node25" class="node">
<title>Node25</title>
<g id="a_node25"><a xlink:href="classpolyfem_1_1solver_1_1_n_l_problem.html#a7110f930d05e90196a0824700ff9bca5" target="_top" xlink:title=" ">
<polygon fill="white" stroke="#666666" points="1277,-389 1125,-389 1125,-359 1277,-359 1277,-389"/>
<text text-anchor="start" x="1133" y="-377" font-family="Helvetica,sans-Serif" font-size="10.00">polyfem::solver::NLProblem</text>
<text text-anchor="middle" x="1201" y="-366" font-family="Helvetica,sans-Serif" font-size="10.00">::update_quantities</text>
</a>
</g>
</g>
<!-- Node14&#45;&gt;Node25 -->
<g id="edge38" class="edge">
<title>Node14&#45;&gt;Node25</title>
<path fill="none" stroke="#63b8ff" d="M1302.85,-374C1294.26,-374 1285.57,-374 1277.1,-374"/>
<polygon fill="#63b8ff" stroke="#63b8ff" points="1302.88,-377.5 1312.88,-374 1302.88,-370.5 1302.88,-377.5"/>
</g>
<!-- Node26 -->
<g id="node26" class="node">
<title>Node26</title>
<g id="a_node26"><a xlink:href="classpolyfem_1_1solver_1_1_n_l_problem.html#ab854a9e6e1e661a25bcb1bf9e2eaa2a6" target="_top" xlink:title=" ">
<polygon fill="white" stroke="#666666" points="1089,-141 937,-141 937,-111 1089,-111 1089,-141"/>
<text text-anchor="start" x="945" y="-129" font-family="Helvetica,sans-Serif" font-size="10.00">polyfem::solver::NLProblem</text>
<text text-anchor="middle" x="1013" y="-118" font-family="Helvetica,sans-Serif" font-size="10.00">::value</text>
</a>
</g>
</g>
<!-- Node14&#45;&gt;Node26 -->
<g id="edge39" class="edge">
<title>Node14&#45;&gt;Node26</title>
<path fill="none" stroke="#63b8ff" d="M1383.75,-348.86C1374.21,-301.03 1346.23,-197.45 1277,-150 1222.35,-112.54 1145.6,-109.73 1089.11,-114.38"/>
<polygon fill="#63b8ff" stroke="#63b8ff" points="1380.32,-349.53 1385.61,-358.71 1387.19,-348.24 1380.32,-349.53"/>
</g>
<!-- Node15&#45;&gt;Node5 -->
<g id="edge21" class="edge">
<title>Node15&#45;&gt;Node5</title>
<path fill="none" stroke="#63b8ff" d="M926.9,-505.24C861.05,-516.26 771.53,-531.25 713.15,-541.02"/>
<polygon fill="#63b8ff" stroke="#63b8ff" points="927.56,-508.68 936.85,-503.58 926.41,-501.78 927.56,-508.68"/>
</g>
<!-- Node16&#45;&gt;Node12 -->
<g id="edge23" class="edge">
<title>Node16&#45;&gt;Node12</title>
<path fill="none" stroke="#63b8ff" d="M949.45,-299.39C945.19,-297.7 941,-295.9 937,-294 903.17,-277.97 867.42,-253.16 845.91,-237.25"/>
<polygon fill="#63b8ff" stroke="#63b8ff" points="948.27,-302.69 958.86,-302.95 950.74,-296.14 948.27,-302.69"/>
</g>
<!-- Node17&#45;&gt;Node12 -->
<g id="edge25" class="edge">
<title>Node17&#45;&gt;Node12</title>
<path fill="none" stroke="#63b8ff" d="M943.88,-252.42C924.27,-247.36 903.08,-241.89 884.13,-237"/>
<polygon fill="#63b8ff" stroke="#63b8ff" points="943.1,-255.83 953.66,-254.94 944.85,-249.06 943.1,-255.83"/>
</g>
<!-- Node18&#45;&gt;Node12 -->
<g id="edge27" class="edge">
<title>Node18&#45;&gt;Node12</title>
<path fill="none" stroke="#63b8ff" d="M926.75,-222C916.55,-222 906.23,-222 896.28,-222"/>
<polygon fill="#63b8ff" stroke="#63b8ff" points="926.88,-225.5 936.88,-222 926.88,-218.5 926.88,-225.5"/>
</g>
<!-- Node22 -->
<g id="node22" class="node">
<title>Node22</title>
<g id="a_node22"><a xlink:href="classpolyfem_1_1solver_1_1_a_l_solver.html#a37b1f3b8343a9f2a4858a29546e9b015" target="_top" xlink:title=" ">
<polygon fill="white" stroke="#666666" points="1084,-189 942,-189 942,-159 1084,-159 1084,-189"/>
<text text-anchor="start" x="950" y="-177" font-family="Helvetica,sans-Serif" font-size="10.00">polyfem::solver::ALSolver</text>
<text text-anchor="middle" x="1013" y="-166" font-family="Helvetica,sans-Serif" font-size="10.00">::set_al_weight</text>
</a>
</g>
</g>
<!-- Node21&#45;&gt;Node22 -->
<g id="edge31" class="edge">
<title>Node21&#45;&gt;Node22</title>
<path fill="none" stroke="#63b8ff" d="M1114.75,-174C1104.55,-174 1094.23,-174 1084.28,-174"/>
<polygon fill="#63b8ff" stroke="#63b8ff" points="1114.88,-177.5 1124.88,-174 1114.88,-170.5 1114.88,-177.5"/>
</g>
<!-- Node22&#45;&gt;Node12 -->
<g id="edge32" class="edge">
<title>Node22&#45;&gt;Node12</title>
<path fill="none" stroke="#63b8ff" d="M943.88,-191.58C924.27,-196.64 903.08,-202.11 884.13,-207"/>
<polygon fill="#63b8ff" stroke="#63b8ff" points="944.85,-194.94 953.66,-189.06 943.1,-188.17 944.85,-194.94"/>
</g>
<!-- Node24&#45;&gt;Node5 -->
<g id="edge37" class="edge">
<title>Node24&#45;&gt;Node5</title>
<path fill="none" stroke="#63b8ff" d="M797.24,-435.5C762.44,-463.46 702.53,-511.6 672.22,-535.96"/>
<polygon fill="#63b8ff" stroke="#63b8ff" points="799.5,-438.18 805.1,-429.18 795.11,-432.72 799.5,-438.18"/>
</g>
<!-- Node26&#45;&gt;Node12 -->
<g id="edge40" class="edge">
<title>Node26&#45;&gt;Node12</title>
<path fill="none" stroke="#63b8ff" d="M949.45,-144.61C945.19,-146.3 941,-148.1 937,-150 903.17,-166.03 867.42,-190.84 845.91,-206.75"/>
<polygon fill="#63b8ff" stroke="#63b8ff" points="950.74,-147.86 958.86,-141.05 948.27,-141.31 950.74,-147.86"/>
</g>
<!-- Node27&#45;&gt;Node3 -->
<g id="edge42" class="edge">
<title>Node27&#45;&gt;Node3</title>
<path fill="none" stroke="#63b8ff" d="M1506.91,-625.46C1488.03,-630.23 1467.73,-635.36 1449.44,-639.98"/>
<polygon fill="#63b8ff" stroke="#63b8ff" points="1507.8,-628.84 1516.64,-623 1506.08,-622.06 1507.8,-628.84"/>
</g>
<!-- Node28&#45;&gt;Node14 -->
<g id="edge44" class="edge">
<title>Node28&#45;&gt;Node14</title>
<path fill="none" stroke="#63b8ff" d="M1490.85,-381.59C1482.26,-380.94 1473.57,-380.29 1465.1,-379.65"/>
<polygon fill="#63b8ff" stroke="#63b8ff" points="1490.65,-385.09 1500.88,-382.35 1491.17,-378.11 1490.65,-385.09"/>
</g>
</g>
</svg>
