<?xml version="1.0" encoding="UTF-8" standalone="no"?>
<!DOCTYPE svg PUBLIC "-//W3C//DTD SVG 1.1//EN"
 "http://www.w3.org/Graphics/SVG/1.1/DTD/svg11.dtd">
<!-- Generated by graphviz version 2.43.0 (0)
 -->
<!-- Title: polyfem::mesh::PhysicsRemesher::local_relaxation Pages: 1 -->
<!--zoomable 124 -->

<svg id="main" version="1.1" xmlns="http://www.w3.org/2000/svg" xmlns:xlink="http://www.w3.org/1999/xlink" xml:space="preserve" onload="init(evt)">
<style type="text/css"><![CDATA[
.node, .edge {opacity: 0.7;}
.node.selected, .edge.selected {opacity: 1;}
.edge:hover path { stroke: red; }
.edge:hover polygon { stroke: red; fill: red; }
]]></style>

<defs>
  <circle id="rim" cx="0" cy="0" r="7"/>
  <circle id="rim2" cx="0" cy="0" r="3.5"/>
  <g id="zoomPlus">
    <use xlink:href="#rim" fill="#404040"><set attributeName="fill" to="#808080" begin="zoomplus.mouseover" end="zoomplus.mouseout"/></use>
    <path d="M-4,0h8M0,-4v8" fill="none" stroke="white" stroke-width="1.5" pointer-events="none"/>
  </g>
  <g id="zoomMin">
    <use xlink:href="#rim" fill="#404040"><set attributeName="fill" to="#808080" begin="zoomminus.mouseover" end="zoomminus.mouseout"/></use>
    <path d="M-4,0h8" fill="none" stroke="white" stroke-width="1.5" pointer-events="none"/>
  </g>
  <g id="arrowUp" transform="translate(30 24)">
    <use xlink:href="#rim"/>
    <path pointer-events="none" fill="none" stroke="white" stroke-width="1.5" d="M0,-3.0v7 M-2.5,-0.5L0,-3.0L2.5,-0.5"/>
  </g>
  <g id="arrowRight" transform="rotate(90) translate(36 -43)">
    <use xlink:href="#rim"/>
    <path pointer-events="none" fill="none" stroke="white" stroke-width="1.5" d="M0,-3.0v7 M-2.5,-0.5L0,-3.0L2.5,-0.5"/>
  </g>
  <g id="arrowDown" transform="rotate(180) translate(-30 -48)">
    <use xlink:href="#rim"/>
    <path pointer-events="none" fill="none" stroke="white" stroke-width="1.5" d="M0,-3.0v7 M-2.5,-0.5L0,-3.0L2.5,-0.5"/>
  </g>
  <g id="arrowLeft" transform="rotate(270) translate(-36 17)">
    <use xlink:href="#rim"/>
    <path pointer-events="none" fill="none" stroke="white" stroke-width="1.5" d="M0,-3.0v7 M-2.5,-0.5L0,-3.0L2.5,-0.5"/>
  </g>
  <g id="resetDef">
    <use xlink:href="#rim2" fill="#404040"><set attributeName="fill" to="#808080" begin="reset.mouseover" end="reset.mouseout"/></use>
  </g>
</defs>
<script type="application/ecmascript">
var viewWidth = 820;
var viewHeight = 124;
var sectionId = 'dynsection-8';
</script>
<script type="application/ecmascript" xlink:href="svg.min.js"/>
<svg id="graph" class="graph">
<g id="viewport">
<title>polyfem::mesh::PhysicsRemesher::local_relaxation</title>
<!-- Node1 -->
<g id="Node000001" class="node">
<title>Node1</title>
<g id="a_Node000001"><a xlink:title="Relax a local mesh.">
<polygon fill="#999999" stroke="#666666" points="182,-78 0,-78 0,-48 182,-48 182,-78"/>
<text text-anchor="start" x="8" y="-66" font-family="Helvetica,sans-Serif" font-size="10.00">polyfem::mesh::PhysicsRemesher</text>
<text text-anchor="middle" x="91" y="-55" font-family="Helvetica,sans-Serif" font-size="10.00">::local_relaxation</text>
</a>
</g>
</g>
<!-- Node2 -->
<g id="Node000002" class="node">
<title>Node2</title>
<g id="a_Node000002"><a xlink:href="namespacepolyfem.html#a03f3d75072d2fd19f70cd886a51d10dd" target="_top" xlink:title="Retrieves the current logger.">
<polygon fill="white" stroke="#666666" points="352,-115.5 258,-115.5 258,-96.5 352,-96.5 352,-115.5"/>
<text text-anchor="middle" x="305" y="-103.5" font-family="Helvetica,sans-Serif" font-size="10.00">polyfem::logger</text>
</a>
</g>
</g>
<!-- Node1&#45;&gt;Node2 -->
<g id="edge1_Node000001_Node000002" class="edge">
<title>Node1&#45;&gt;Node2</title>
<g id="a_edge1_Node000001_Node000002"><a xlink:title=" ">
<path fill="none" stroke="#63b8ff" d="M166.15,-78.04C193.01,-83.49 222.89,-89.55 247.94,-94.63"/>
<polygon fill="#63b8ff" stroke="#63b8ff" points="247.5,-98.11 258,-96.67 248.89,-91.25 247.5,-98.11"/>
</a>
</g>
</g>
<!-- Node3 -->
<g id="Node000003" class="node">
<title>Node3</title>
<g id="a_Node000003"><a xlink:href="classpolyfem_1_1mesh_1_1_local_relaxation_data.html#a5a613063e949dd0e13b138ea4840b696" target="_top" xlink:title=" ">
<polygon fill="white" stroke="#666666" points="392,-78 218,-78 218,-48 392,-48 392,-78"/>
<text text-anchor="start" x="226" y="-66" font-family="Helvetica,sans-Serif" font-size="10.00">polyfem::mesh::LocalRelaxation</text>
<text text-anchor="middle" x="305" y="-55" font-family="Helvetica,sans-Serif" font-size="10.00">Data::n_free_dof</text>
</a>
</g>
</g>
<!-- Node1&#45;&gt;Node3 -->
<g id="edge2_Node000001_Node000003" class="edge">
<title>Node1&#45;&gt;Node3</title>
<g id="a_edge2_Node000001_Node000003"><a xlink:title=" ">
<path fill="none" stroke="#63b8ff" d="M182.21,-63C190.63,-63 199.18,-63 207.64,-63"/>
<polygon fill="#63b8ff" stroke="#63b8ff" points="207.91,-66.5 217.91,-63 207.91,-59.5 207.91,-66.5"/>
</a>
</g>
</g>
<!-- Node7 -->
<g id="Node000007" class="node">
<title>Node7</title>
<g id="a_Node000007"><a xlink:href="classpolyfem_1_1mesh_1_1_local_relaxation_data.html#a379b6b1b827da11f5c32f0e728b714d4" target="_top" xlink:title=" ">
<polygon fill="white" stroke="#666666" points="392,-30 218,-30 218,0 392,0 392,-30"/>
<text text-anchor="start" x="226" y="-18" font-family="Helvetica,sans-Serif" font-size="10.00">polyfem::mesh::LocalRelaxation</text>
<text text-anchor="middle" x="305" y="-7" font-family="Helvetica,sans-Serif" font-size="10.00">Data::sol</text>
</a>
</g>
</g>
<!-- Node1&#45;&gt;Node7 -->
<g id="edge6_Node000001_Node000007" class="edge">
<title>Node1&#45;&gt;Node7</title>
<g id="a_edge6_Node000001_Node000007"><a xlink:title=" ">
<path fill="none" stroke="#63b8ff" d="M158.5,-47.94C180.5,-42.96 205.15,-37.38 227.82,-32.25"/>
<polygon fill="#63b8ff" stroke="#63b8ff" points="228.76,-35.62 237.74,-30 227.21,-28.8 228.76,-35.62"/>
</a>
</g>
</g>
<!-- Node4 -->
<g id="Node000004" class="node">
<title>Node4</title>
<g id="a_Node000004"><a xlink:href="classpolyfem_1_1mesh_1_1_local_relaxation_data.html#a9e9d8af7b08224f868b8f2a9a9715079" target="_top" xlink:title=" ">
<polygon fill="white" stroke="#666666" points="602,-78 428,-78 428,-48 602,-48 602,-78"/>
<text text-anchor="start" x="436" y="-66" font-family="Helvetica,sans-Serif" font-size="10.00">polyfem::mesh::LocalRelaxation</text>
<text text-anchor="middle" x="515" y="-55" font-family="Helvetica,sans-Serif" font-size="10.00">Data::ndof</text>
</a>
</g>
</g>
<!-- Node3&#45;&gt;Node4 -->
<g id="edge3_Node000003_Node000004" class="edge">
<title>Node3&#45;&gt;Node4</title>
<g id="a_edge3_Node000003_Node000004"><a xlink:title=" ">
<path fill="none" stroke="#63b8ff" d="M392.1,-63C400.62,-63 409.3,-63 417.91,-63"/>
<polygon fill="#63b8ff" stroke="#63b8ff" points="417.96,-66.5 427.96,-63 417.96,-59.5 417.96,-66.5"/>
</a>
</g>
</g>
<!-- Node5 -->
<g id="Node000005" class="node">
<title>Node5</title>
<g id="a_Node000005"><a xlink:href="classpolyfem_1_1mesh_1_1_local_relaxation_data.html#a43a1c2e27ac21758b9daa89242a84a14" target="_top" xlink:title=" ">
<polygon fill="white" stroke="#666666" points="812,-102 638,-102 638,-72 812,-72 812,-102"/>
<text text-anchor="start" x="646" y="-90" font-family="Helvetica,sans-Serif" font-size="10.00">polyfem::mesh::LocalRelaxation</text>
<text text-anchor="middle" x="725" y="-79" font-family="Helvetica,sans-Serif" font-size="10.00">Data::dim</text>
</a>
</g>
</g>
<!-- Node4&#45;&gt;Node5 -->
<g id="edge4_Node000004_Node000005" class="edge">
<title>Node4&#45;&gt;Node5</title>
<g id="a_edge4_Node000004_Node000005"><a xlink:title=" ">
<path fill="none" stroke="#63b8ff" d="M602.1,-72.93C610.62,-73.92 619.3,-74.92 627.91,-75.91"/>
<polygon fill="#63b8ff" stroke="#63b8ff" points="627.63,-79.4 637.96,-77.07 628.43,-72.45 627.63,-79.4"/>
</a>
</g>
</g>
<!-- Node6 -->
<g id="Node000006" class="node">
<title>Node6</title>
<g id="a_Node000006"><a xlink:href="classpolyfem_1_1mesh_1_1_local_relaxation_data.html#afb0bfad64cd6df0039b3f9f461f2c467" target="_top" xlink:title=" ">
<polygon fill="white" stroke="#666666" points="812,-54 638,-54 638,-24 812,-24 812,-54"/>
<text text-anchor="start" x="646" y="-42" font-family="Helvetica,sans-Serif" font-size="10.00">polyfem::mesh::LocalRelaxation</text>
<text text-anchor="middle" x="725" y="-31" font-family="Helvetica,sans-Serif" font-size="10.00">Data::n_bases</text>
</a>
</g>
</g>
<!-- Node4&#45;&gt;Node6 -->
<g id="edge5_Node000004_Node000006" class="edge">
<title>Node4&#45;&gt;Node6</title>
<g id="a_edge5_Node000004_Node000006"><a xlink:title=" ">
<path fill="none" stroke="#63b8ff" d="M602.1,-53.07C610.62,-52.08 619.3,-51.08 627.91,-50.09"/>
<polygon fill="#63b8ff" stroke="#63b8ff" points="628.43,-53.55 637.96,-48.93 627.63,-46.6 628.43,-53.55"/>
</a>
</g>
</g>
<!-- Node8 -->
<g id="Node000008" class="node">
<title>Node8</title>
<g id="a_Node000008"><a xlink:href="namespacepolyfem_1_1utils.html#adac090350174847f46edfd397abd4ab4" target="_top" xlink:title="Flatten rowwises.">
<polygon fill="white" stroke="#666666" points="576,-24.5 454,-24.5 454,-5.5 576,-5.5 576,-24.5"/>
<text text-anchor="middle" x="515" y="-12.5" font-family="Helvetica,sans-Serif" font-size="10.00">polyfem::utils::flatten</text>
</a>
</g>
</g>
<!-- Node7&#45;&gt;Node8 -->
<g id="edge7_Node000007_Node000008" class="edge">
<title>Node7&#45;&gt;Node8</title>
<g id="a_edge7_Node000007_Node000008"><a xlink:title=" ">
<path fill="none" stroke="#63b8ff" d="M392.1,-15C409.32,-15 427.21,-15 443.81,-15"/>
<polygon fill="#63b8ff" stroke="#63b8ff" points="443.96,-18.5 453.96,-15 443.96,-11.5 443.96,-18.5"/>
</a>
</g>
</g>
</g>
</svg>

<g id="navigator" transform="translate(0 0)" fill="#404254">
  <rect fill="#f2f5e9" fill-opacity="0.5" stroke="#606060" stroke-width=".5" x="0" y="0" width="60" height="60"/>
  <use id="zoomplus" xlink:href="#zoomPlus" x="17" y="9" onmousedown="handleZoom(evt,'in')"/>
  <use id="zoomminus" xlink:href="#zoomMin" x="42" y="9" onmousedown="handleZoom(evt,'out')"/>
  <use id="reset" xlink:href="#resetDef" x="30" y="36" onmousedown="handleReset()"/>
   <use id="arrowup" xlink:href="#arrowUp" x="0" y="0" onmousedown="handlePan(0,-1)"/>
  <use id="arrowright" xlink:href="#arrowRight" x="0" y="0" onmousedown="handlePan(1,0)"/>
  <use id="arrowdown" xlink:href="#arrowDown" x="0" y="0" onmousedown="handlePan(0,1)"/>
  <use id="arrowleft" xlink:href="#arrowLeft" x="0" y="0" onmousedown="handlePan(-1,0)"/>
</g>
<svg viewBox="0 0 15 15" width="100%" height="30px" preserveAspectRatio="xMaxYMin meet">
 <g id="arrow_out" transform="scale(0.3 0.3)">
  <a xlink:href="classpolyfem_1_1mesh_1_1_physics_remesher_ada199f0f1581defdd20aadf6df0568d5_cgraph_org.svg" target="_base">
   <rect id="button" ry="5" rx="5" y="6" x="6" height="38" width="38"
        fill="#f2f5e9" fill-opacity="0.5" stroke="#606060" stroke-width="1.0"/>
   <path id="arrow"
     d="M 11.500037,31.436501 C 11.940474,20.09759 22.043105,11.32322 32.158766,21.979434 L 37.068811,17.246167 C 37.068811,17.246167 37.088388,32 37.088388,32 L 22.160133,31.978069 C 22.160133,31.978069 26.997745,27.140456 26.997745,27.140456 C 18.528582,18.264221 13.291696,25.230495 11.500037,31.436501 z"
     style="fill:#404040;"/>
  </a>
 </g>
</svg>

<style type='text/css'>
<![CDATA[
[data-mouse-over-selected='false'] { opacity: 0.7; }
[data-mouse-over-selected='true']  { opacity: 1.0; }
]]>
</style>
<script type="application/ecmascript"><![CDATA[
document.addEventListener('DOMContentLoaded', (event) => {
  highlightEdges();
  highlightAdjacentNodes();
});
]]></script>
</svg>
