<?xml version="1.0" encoding="UTF-8" standalone="no"?>
<!DOCTYPE svg PUBLIC "-//W3C//DTD SVG 1.1//EN"
 "http://www.w3.org/Graphics/SVG/1.1/DTD/svg11.dtd">
<!-- Generated by graphviz version 2.43.0 (0)
 -->
<!-- Title: polyfem::varform::NonlinearElasticTransientVarForm Pages: 1 -->
<!--zoomable 241 -->

<svg id="main" version="1.1" xmlns="http://www.w3.org/2000/svg" xmlns:xlink="http://www.w3.org/1999/xlink" xml:space="preserve" onload="init(evt)">
<style type="text/css"><![CDATA[
.node, .edge {opacity: 0.7;}
.node.selected, .edge.selected {opacity: 1;}
.edge:hover path { stroke: red; }
.edge:hover polygon { stroke: red; fill: red; }
]]></style>

<defs>
  <circle id="rim" cx="0" cy="0" r="7"/>
  <circle id="rim2" cx="0" cy="0" r="3.5"/>
  <g id="zoomPlus">
    <use xlink:href="#rim" fill="#404040"><set attributeName="fill" to="#808080" begin="zoomplus.mouseover" end="zoomplus.mouseout"/></use>
    <path d="M-4,0h8M0,-4v8" fill="none" stroke="white" stroke-width="1.5" pointer-events="none"/>
  </g>
  <g id="zoomMin">
    <use xlink:href="#rim" fill="#404040"><set attributeName="fill" to="#808080" begin="zoomminus.mouseover" end="zoomminus.mouseout"/></use>
    <path d="M-4,0h8" fill="none" stroke="white" stroke-width="1.5" pointer-events="none"/>
  </g>
  <g id="arrowUp" transform="translate(30 24)">
    <use xlink:href="#rim"/>
    <path pointer-events="none" fill="none" stroke="white" stroke-width="1.5" d="M0,-3.0v7 M-2.5,-0.5L0,-3.0L2.5,-0.5"/>
  </g>
  <g id="arrowRight" transform="rotate(90) translate(36 -43)">
    <use xlink:href="#rim"/>
    <path pointer-events="none" fill="none" stroke="white" stroke-width="1.5" d="M0,-3.0v7 M-2.5,-0.5L0,-3.0L2.5,-0.5"/>
  </g>
  <g id="arrowDown" transform="rotate(180) translate(-30 -48)">
    <use xlink:href="#rim"/>
    <path pointer-events="none" fill="none" stroke="white" stroke-width="1.5" d="M0,-3.0v7 M-2.5,-0.5L0,-3.0L2.5,-0.5"/>
  </g>
  <g id="arrowLeft" transform="rotate(270) translate(-36 17)">
    <use xlink:href="#rim"/>
    <path pointer-events="none" fill="none" stroke="white" stroke-width="1.5" d="M0,-3.0v7 M-2.5,-0.5L0,-3.0L2.5,-0.5"/>
  </g>
  <g id="resetDef">
    <use xlink:href="#rim2" fill="#404040"><set attributeName="fill" to="#808080" begin="reset.mouseover" end="reset.mouseout"/></use>
  </g>
</defs>
<script type="application/ecmascript">
var viewWidth = 1477;
var viewHeight = 241;
var sectionId = 'dynsection-1';
</script>
<script type="application/ecmascript" xlink:href="svg.min.js"/>
<svg id="graph" class="graph">
<g id="viewport">
<title>polyfem::varform::NonlinearElasticTransientVarForm</title>
<!-- Node1 -->
<g id="Node000001" class="node">
<title>Node1</title>
<g id="a_Node000001"><a xlink:title=" ">
<polygon fill="#999999" stroke="#666666" points="1469,-84 1314,-84 1314,-54 1469,-54 1469,-84"/>
<text text-anchor="start" x="1322" y="-72" font-family="Helvetica,sans-Serif" font-size="10.00">polyfem::varform::Nonlinear</text>
<text text-anchor="middle" x="1391.5" y="-61" font-family="Helvetica,sans-Serif" font-size="10.00">ElasticTransientVarForm</text>
</a>
</g>
</g>
<!-- Node2 -->
<g id="Node000002" class="node">
<title>Node2</title>
<g id="a_Node000002"><a xlink:href="classpolyfem_1_1varform_1_1_nonlinear_elastic_var_form.html" target="_top" xlink:title=" ">
<polygon fill="white" stroke="#666666" points="1277,-84 1122,-84 1122,-54 1277,-54 1277,-84"/>
<text text-anchor="start" x="1130" y="-72" font-family="Helvetica,sans-Serif" font-size="10.00">polyfem::varform::Nonlinear</text>
<text text-anchor="middle" x="1199.5" y="-61" font-family="Helvetica,sans-Serif" font-size="10.00">ElasticVarForm</text>
</a>
</g>
</g>
<!-- Node2&#45;&gt;Node1 -->
<g id="edge1_Node000001_Node000002" class="edge">
<title>Node2&#45;&gt;Node1</title>
<g id="a_edge1_Node000001_Node000002"><a xlink:title=" ">
<path fill="none" stroke="#63b8ff" d="M1287.48,-69C1296.26,-69 1305.13,-69 1313.79,-69"/>
<polygon fill="#63b8ff" stroke="#63b8ff" points="1287.23,-65.5 1277.23,-69 1287.23,-72.5 1287.23,-65.5"/>
</a>
</g>
</g>
<!-- Node3 -->
<g id="Node000003" class="node">
<title>Node3</title>
<g id="a_Node000003"><a xlink:href="classpolyfem_1_1varform_1_1_elastic_var_form.html" target="_top" xlink:title=" ">
<polygon fill="white" stroke="#666666" points="1024.5,-127 884.5,-127 884.5,-97 1024.5,-97 1024.5,-127"/>
<text text-anchor="start" x="892.5" y="-115" font-family="Helvetica,sans-Serif" font-size="10.00">polyfem::varform::Elastic</text>
<text text-anchor="middle" x="954.5" y="-104" font-family="Helvetica,sans-Serif" font-size="10.00">VarForm</text>
</a>
</g>
</g>
<!-- Node3&#45;&gt;Node2 -->
<g id="edge2_Node000002_Node000003" class="edge">
<title>Node3&#45;&gt;Node2</title>
<g id="a_edge2_Node000002_Node000003"><a xlink:title=" ">
<path fill="none" stroke="#63b8ff" d="M1034.93,-97.94C1062.85,-93 1094.16,-87.46 1121.85,-82.56"/>
<polygon fill="#63b8ff" stroke="#63b8ff" points="1034.05,-94.55 1024.81,-99.74 1035.27,-101.44 1034.05,-94.55"/>
</a>
</g>
</g>
<!-- Node4 -->
<g id="Node000004" class="node">
<title>Node4</title>
<g id="a_Node000004"><a xlink:href="classpolyfem_1_1varform_1_1_var_form.html" target="_top" xlink:title=" ">
<polygon fill="white" stroke="#666666" points="736,-177.5 587,-177.5 587,-158.5 736,-158.5 736,-177.5"/>
<text text-anchor="middle" x="661.5" y="-165.5" font-family="Helvetica,sans-Serif" font-size="10.00">polyfem::varform::VarForm</text>
</a>
</g>
</g>
<!-- Node4&#45;&gt;Node3 -->
<g id="edge3_Node000003_Node000004" class="edge">
<title>Node4&#45;&gt;Node3</title>
<g id="a_edge3_Node000003_Node000004"><a xlink:title=" ">
<path fill="none" stroke="#63b8ff" d="M746.31,-158.52C782.16,-153.77 824.34,-147.25 862,-139 876.88,-135.74 892.89,-131.34 907.28,-127.03"/>
<polygon fill="#63b8ff" stroke="#63b8ff" points="745.85,-155.05 736.38,-159.81 746.75,-161.99 745.85,-155.05"/>
</a>
</g>
</g>
<!-- Node5 -->
<g id="Node000005" class="node">
<title>Node5</title>
<g id="a_Node000005"><a xlink:href="classpolyfem_1_1_units.html" target="_top" xlink:title=" ">
<polygon fill="white" stroke="#666666" points="419,-232.5 330,-232.5 330,-213.5 419,-213.5 419,-232.5"/>
<text text-anchor="middle" x="374.5" y="-220.5" font-family="Helvetica,sans-Serif" font-size="10.00">polyfem::Units</text>
</a>
</g>
</g>
<!-- Node5&#45;&gt;Node4 -->
<g id="edge4_Node000004_Node000005" class="edge">
<title>Node5&#45;&gt;Node4</title>
<g id="a_edge4_Node000004_Node000005"><a xlink:title=" ">
<path fill="none" stroke="#9a32cd" stroke-dasharray="5,2" d="M429.3,-216.82C468.31,-211.88 522.21,-204.11 569,-194 589.82,-189.5 612.89,-182.93 630.66,-177.53"/>
<polygon fill="#9a32cd" stroke="#9a32cd" points="428.7,-213.36 419.21,-218.07 429.57,-220.31 428.7,-213.36"/>
</a>
</g>
<text text-anchor="middle" x="522.5" y="-212" font-family="Helvetica,sans-Serif" font-size="10.00" fill="grey"> units</text>
</g>
<!-- Node6 -->
<g id="Node000006" class="node">
<title>Node6</title>
<g id="a_Node000006"><a xlink:href="classpolyfem_1_1io_1_1_out_stats_data.html" target="_top" xlink:title="all stats from polyfem">
<polygon fill="white" stroke="#666666" points="446,-195.5 303,-195.5 303,-176.5 446,-176.5 446,-195.5"/>
<text text-anchor="middle" x="374.5" y="-183.5" font-family="Helvetica,sans-Serif" font-size="10.00">polyfem::io::OutStatsData</text>
</a>
</g>
</g>
<!-- Node6&#45;&gt;Node4 -->
<g id="edge5_Node000004_Node000006" class="edge">
<title>Node6&#45;&gt;Node4</title>
<g id="a_edge5_Node000004_Node000006"><a xlink:title=" ">
<path fill="none" stroke="#9a32cd" stroke-dasharray="5,2" d="M456.54,-180.88C497.53,-178.29 546.91,-175.17 586.82,-172.65"/>
<polygon fill="#9a32cd" stroke="#9a32cd" points="456.08,-177.4 446.32,-181.53 456.52,-184.39 456.08,-177.4"/>
</a>
</g>
<text text-anchor="middle" x="522.5" y="-182" font-family="Helvetica,sans-Serif" font-size="10.00" fill="grey"> stats</text>
</g>
<!-- Node7 -->
<g id="Node000007" class="node">
<title>Node7</title>
<g id="a_Node000007"><a xlink:href="classpolyfem_1_1io_1_1_out_runtime_data.html" target="_top" xlink:title="timers from polyfem.">
<polygon fill="white" stroke="#666666" points="454.5,-158.5 294.5,-158.5 294.5,-139.5 454.5,-139.5 454.5,-158.5"/>
<text text-anchor="middle" x="374.5" y="-146.5" font-family="Helvetica,sans-Serif" font-size="10.00">polyfem::io::OutRuntimeData</text>
</a>
</g>
</g>
<!-- Node7&#45;&gt;Node4 -->
<g id="edge6_Node000004_Node000007" class="edge">
<title>Node7&#45;&gt;Node4</title>
<g id="a_edge6_Node000004_Node000007"><a xlink:title=" ">
<path fill="none" stroke="#9a32cd" stroke-dasharray="5,2" d="M464.68,-151.98C497.5,-153.39 534.97,-155.35 569,-158 574.74,-158.45 580.67,-158.96 586.63,-159.53"/>
<polygon fill="#9a32cd" stroke="#9a32cd" points="464.79,-148.49 454.65,-151.57 464.5,-155.48 464.79,-148.49"/>
</a>
</g>
<text text-anchor="middle" x="522.5" y="-161" font-family="Helvetica,sans-Serif" font-size="10.00" fill="grey"> timings</text>
</g>
<!-- Node8 -->
<g id="Node000008" class="node">
<title>Node8</title>
<g id="a_Node000008"><a xlink:href="classpolyfem_1_1io_1_1_out_geometry_data.html" target="_top" xlink:title="Utilies related to export of geometry.">
<polygon fill="white" stroke="#666666" points="458,-121.5 291,-121.5 291,-102.5 458,-102.5 458,-121.5"/>
<text text-anchor="middle" x="374.5" y="-109.5" font-family="Helvetica,sans-Serif" font-size="10.00">polyfem::io::OutGeometryData</text>
</a>
</g>
</g>
<!-- Node8&#45;&gt;Node4 -->
<g id="edge7_Node000004_Node000008" class="edge">
<title>Node8&#45;&gt;Node4</title>
<g id="a_edge7_Node000004_Node000008"><a xlink:title=" ">
<path fill="none" stroke="#9a32cd" stroke-dasharray="5,2" d="M468.27,-114.63C500.99,-117.97 537.46,-124.51 569,-137 578.18,-140.63 578.04,-145.86 587,-150 594.27,-153.36 602.26,-156.14 610.19,-158.43"/>
<polygon fill="#9a32cd" stroke="#9a32cd" points="468.52,-111.14 458.24,-113.69 467.87,-118.11 468.52,-111.14"/>
</a>
</g>
<text text-anchor="middle" x="522.5" y="-140" font-family="Helvetica,sans-Serif" font-size="10.00" fill="grey"> output_geometry_</text>
</g>
<!-- Node9 -->
<g id="Node000009" class="node">
<title>Node9</title>
<g id="a_Node000009"><a xlink:href="classpolyfem_1_1utils_1_1_ref_element_sampler.html" target="_top" xlink:title=" ">
<polygon fill="white" stroke="#666666" points="147,-127 0,-127 0,-97 147,-97 147,-127"/>
<text text-anchor="start" x="8" y="-115" font-family="Helvetica,sans-Serif" font-size="10.00">polyfem::utils::RefElement</text>
<text text-anchor="middle" x="73.5" y="-104" font-family="Helvetica,sans-Serif" font-size="10.00">Sampler</text>
</a>
</g>
</g>
<!-- Node9&#45;&gt;Node8 -->
<g id="edge8_Node000008_Node000009" class="edge">
<title>Node9&#45;&gt;Node8</title>
<g id="a_edge8_Node000008_Node000009"><a xlink:title=" ">
<path fill="none" stroke="#9a32cd" stroke-dasharray="5,2" d="M157.37,-112C199,-112 249.3,-112 290.89,-112"/>
<polygon fill="#9a32cd" stroke="#9a32cd" points="157.26,-108.5 147.26,-112 157.26,-115.5 157.26,-108.5"/>
</a>
</g>
<text text-anchor="middle" x="219" y="-115" font-family="Helvetica,sans-Serif" font-size="10.00" fill="grey"> ref_element_sampler</text>
</g>
<!-- Node10 -->
<g id="Node000010" class="node">
<title>Node10</title>
<g id="a_Node000010"><a xlink:href="classpolyfem_1_1varform_1_1_f_e_space.html" target="_top" xlink:title="A finite&#45;element space for one scalar&#45; or vector&#45;valued field.">
<polygon fill="white" stroke="#666666" points="736,-140.5 587,-140.5 587,-121.5 736,-121.5 736,-140.5"/>
<text text-anchor="middle" x="661.5" y="-128.5" font-family="Helvetica,sans-Serif" font-size="10.00">polyfem::varform::FESpace</text>
</a>
</g>
</g>
<!-- Node10&#45;&gt;Node3 -->
<g id="edge9_Node000003_Node000010" class="edge">
<title>Node10&#45;&gt;Node3</title>
<g id="a_edge9_Node000003_Node000010"><a xlink:title=" ">
<path fill="none" stroke="#9a32cd" stroke-dasharray="5,2" d="M746.35,-125.53C790.07,-122.67 842.91,-119.22 884.27,-116.52"/>
<polygon fill="#9a32cd" stroke="#9a32cd" points="746.06,-122.04 736.31,-126.18 746.51,-129.02 746.06,-122.04"/>
</a>
</g>
<text text-anchor="middle" x="808" y="-127" font-family="Helvetica,sans-Serif" font-size="10.00" fill="grey"> space_</text>
</g>
<!-- Node11 -->
<g id="Node000011" class="node">
<title>Node11</title>
<g id="a_Node000011"><a xlink:href="structpolyfem_1_1varform_1_1_var_form_boundary_state.html" target="_top" xlink:title="Temporary compatibility wrapper for boundary data belonging to one FE space.">
<polygon fill="white" stroke="#666666" points="736,-103 587,-103 587,-73 736,-73 736,-103"/>
<text text-anchor="start" x="595" y="-91" font-family="Helvetica,sans-Serif" font-size="10.00">polyfem::varform::VarForm</text>
<text text-anchor="middle" x="661.5" y="-80" font-family="Helvetica,sans-Serif" font-size="10.00">BoundaryState</text>
</a>
</g>
</g>
<!-- Node11&#45;&gt;Node3 -->
<g id="edge10_Node000003_Node000011" class="edge">
<title>Node11&#45;&gt;Node3</title>
<g id="a_edge10_Node000003_Node000011"><a xlink:title=" ">
<path fill="none" stroke="#9a32cd" stroke-dasharray="5,2" d="M746.77,-93.9C782.35,-96.51 824.21,-99.72 862,-103 869.16,-103.62 876.62,-104.3 884.07,-105"/>
<polygon fill="#9a32cd" stroke="#9a32cd" points="746.66,-90.39 736.43,-93.15 746.15,-97.37 746.66,-90.39"/>
</a>
</g>
<text text-anchor="middle" x="808" y="-106" font-family="Helvetica,sans-Serif" font-size="10.00" fill="grey"> boundary_</text>
</g>
<!-- Node12 -->
<g id="Node000012" class="node">
<title>Node12</title>
<g id="a_Node000012"><a xlink:href="classpolyfem_1_1assembler_1_1_assembly_vals_cache.html" target="_top" xlink:title="Caches basis evaluation and geometric mapping at every element.">
<polygon fill="white" stroke="#666666" points="722,-30 601,-30 601,0 722,0 722,-30"/>
<text text-anchor="start" x="609" y="-18" font-family="Helvetica,sans-Serif" font-size="10.00">polyfem::assembler</text>
<text text-anchor="middle" x="661.5" y="-7" font-family="Helvetica,sans-Serif" font-size="10.00">::AssemblyValsCache</text>
</a>
</g>
</g>
<!-- Node12&#45;&gt;Node3 -->
<g id="edge11_Node000003_Node000012" class="edge">
<title>Node12&#45;&gt;Node3</title>
<g id="a_edge11_Node000003_Node000012"><a xlink:title=" ">
<path fill="none" stroke="#9a32cd" stroke-dasharray="5,2" d="M732.16,-4.41C774.03,-1.98 826,-6.38 862,-35 881.47,-50.48 862.31,-70.51 880,-88 883.44,-91.4 887.36,-94.31 891.57,-96.82"/>
<polygon fill="#9a32cd" stroke="#9a32cd" points="731.74,-0.93 722.02,-5.14 732.25,-7.91 731.74,-0.93"/>
</a>
</g>
<text text-anchor="middle" x="808" y="-82" font-family="Helvetica,sans-Serif" font-size="10.00" fill="grey"> ass_vals_cache_</text>
<text text-anchor="start" x="754" y="-71" font-family="Helvetica,sans-Serif" font-size="10.00" fill="grey">mass_ass_vals_cache</text>
<text text-anchor="middle" x="808" y="-60" font-family="Helvetica,sans-Serif" font-size="10.00" fill="grey">_</text>
<text text-anchor="start" x="754" y="-49" font-family="Helvetica,sans-Serif" font-size="10.00" fill="grey">pure_mass_ass_vals</text>
<text text-anchor="middle" x="808" y="-38" font-family="Helvetica,sans-Serif" font-size="10.00" fill="grey">_cache_</text>
</g>
<!-- Node13 -->
<g id="Node000013" class="node">
<title>Node13</title>
<g id="a_Node000013"><a xlink:href="classpolyfem_1_1mesh_1_1_obstacle.html" target="_top" xlink:title=" ">
<polygon fill="white" stroke="#666666" points="1024,-78.5 885,-78.5 885,-59.5 1024,-59.5 1024,-78.5"/>
<text text-anchor="middle" x="954.5" y="-66.5" font-family="Helvetica,sans-Serif" font-size="10.00">polyfem::mesh::Obstacle</text>
</a>
</g>
</g>
<!-- Node13&#45;&gt;Node2 -->
<g id="edge12_Node000002_Node000013" class="edge">
<title>Node13&#45;&gt;Node2</title>
<g id="a_edge12_Node000002_Node000013"><a xlink:title=" ">
<path fill="none" stroke="#9a32cd" stroke-dasharray="5,2" d="M1034.34,-69C1062.43,-69 1094,-69 1121.9,-69"/>
<polygon fill="#9a32cd" stroke="#9a32cd" points="1034.16,-65.5 1024.16,-69 1034.16,-72.5 1034.16,-65.5"/>
</a>
</g>
<text text-anchor="middle" x="1075.5" y="-72" font-family="Helvetica,sans-Serif" font-size="10.00" fill="grey"> obstacle</text>
</g>
<!-- Node14 -->
<g id="Node000014" class="node">
<title>Node14</title>
<g id="a_Node000014"><a xlink:href="classpolyfem_1_1solver_1_1_solve_data.html" target="_top" xlink:title="class to store time stepping data">
<polygon fill="white" stroke="#666666" points="1029,-41.5 880,-41.5 880,-22.5 1029,-22.5 1029,-41.5"/>
<text text-anchor="middle" x="954.5" y="-29.5" font-family="Helvetica,sans-Serif" font-size="10.00">polyfem::solver::SolveData</text>
</a>
</g>
</g>
<!-- Node14&#45;&gt;Node2 -->
<g id="edge13_Node000002_Node000014" class="edge">
<title>Node14&#45;&gt;Node2</title>
<g id="a_edge13_Node000002_Node000014"><a xlink:title=" ">
<path fill="none" stroke="#9a32cd" stroke-dasharray="5,2" d="M1031.14,-43.05C1054.51,-46.51 1080.33,-50.37 1104,-54 1109.83,-54.89 1115.86,-55.83 1121.92,-56.78"/>
<polygon fill="#9a32cd" stroke="#9a32cd" points="1031.35,-39.54 1020.95,-41.55 1030.33,-46.47 1031.35,-39.54"/>
</a>
</g>
<text text-anchor="middle" x="1075.5" y="-57" font-family="Helvetica,sans-Serif" font-size="10.00" fill="grey"> solve_data</text>
</g>
</g>
</svg>

<g id="navigator" transform="translate(0 0)" fill="#404254">
  <rect fill="#f2f5e9" fill-opacity="0.5" stroke="#606060" stroke-width=".5" x="0" y="0" width="60" height="60"/>
  <use id="zoomplus" xlink:href="#zoomPlus" x="17" y="9" onmousedown="handleZoom(evt,'in')"/>
  <use id="zoomminus" xlink:href="#zoomMin" x="42" y="9" onmousedown="handleZoom(evt,'out')"/>
  <use id="reset" xlink:href="#resetDef" x="30" y="36" onmousedown="handleReset()"/>
   <use id="arrowup" xlink:href="#arrowUp" x="0" y="0" onmousedown="handlePan(0,-1)"/>
  <use id="arrowright" xlink:href="#arrowRight" x="0" y="0" onmousedown="handlePan(1,0)"/>
  <use id="arrowdown" xlink:href="#arrowDown" x="0" y="0" onmousedown="handlePan(0,1)"/>
  <use id="arrowleft" xlink:href="#arrowLeft" x="0" y="0" onmousedown="handlePan(-1,0)"/>
</g>
<svg viewBox="0 0 15 15" width="100%" height="30px" preserveAspectRatio="xMaxYMin meet">
 <g id="arrow_out" transform="scale(0.3 0.3)">
  <a xlink:href="classpolyfem_1_1varform_1_1_nonlinear_elastic_transient_var_form__coll__graph_org.svg" target="_base">
   <rect id="button" ry="5" rx="5" y="6" x="6" height="38" width="38"
        fill="#f2f5e9" fill-opacity="0.5" stroke="#606060" stroke-width="1.0"/>
   <path id="arrow"
     d="M 11.500037,31.436501 C 11.940474,20.09759 22.043105,11.32322 32.158766,21.979434 L 37.068811,17.246167 C 37.068811,17.246167 37.088388,32 37.088388,32 L 22.160133,31.978069 C 22.160133,31.978069 26.997745,27.140456 26.997745,27.140456 C 18.528582,18.264221 13.291696,25.230495 11.500037,31.436501 z"
     style="fill:#404040;"/>
  </a>
 </g>
</svg>

<style type='text/css'>
<![CDATA[
[data-mouse-over-selected='false'] { opacity: 0.7; }
[data-mouse-over-selected='true']  { opacity: 1.0; }
]]>
</style>
<script type="application/ecmascript"><![CDATA[
document.addEventListener('DOMContentLoaded', (event) => {
  highlightEdges();
  highlightAdjacentNodes();
});
]]></script>
</svg>
