<?xml version="1.0" encoding="UTF-8" standalone="no"?>
<!DOCTYPE svg PUBLIC "-//W3C//DTD SVG 1.1//EN"
 "http://www.w3.org/Graphics/SVG/1.1/DTD/svg11.dtd">
<!-- Generated by graphviz version 2.43.0 (0)
 -->
<!-- Title: polyfem::solver::Form::value Pages: 1 -->
<svg width="524pt" height="188pt"
 viewBox="0.00 0.00 524.00 188.00" xmlns="http://www.w3.org/2000/svg" xmlns:xlink="http://www.w3.org/1999/xlink">
<g id="graph0" class="graph" transform="scale(1 1) rotate(0) translate(4 184)">
<title>polyfem::solver::Form::value</title>
<!-- Node1 -->
<g id="Node000001" class="node">
<title>Node1</title>
<g id="a_Node000001"><a xlink:title="Compute the value of the form multiplied with the weigth.">
<polygon fill="#999999" stroke="#666666" points="516,-132 392,-132 392,-102 516,-102 516,-132"/>
<text text-anchor="start" x="400" y="-120" font-family="Helvetica,sans-Serif" font-size="10.00">polyfem::solver::Form</text>
<text text-anchor="middle" x="454" y="-109" font-family="Helvetica,sans-Serif" font-size="10.00">::value</text>
</a>
</g>
</g>
<!-- Node2 -->
<g id="Node000002" class="node">
<title>Node2</title>
<g id="a_Node000002"><a xlink:href="classpolyfem_1_1solver_1_1_inertia_form.html#accc5bac64d90e926129a0c02e381d2d7" target="_top" xlink:title=" ">
<polygon fill="white" stroke="#666666" points="356,-180 195,-180 195,-150 356,-150 356,-180"/>
<text text-anchor="start" x="203" y="-168" font-family="Helvetica,sans-Serif" font-size="10.00">polyfem::solver::Inertia</text>
<text text-anchor="middle" x="275.5" y="-157" font-family="Helvetica,sans-Serif" font-size="10.00">Form::force_shape_derivative</text>
</a>
</g>
</g>
<!-- Node1&#45;&gt;Node2 -->
<g id="edge1_Node000001_Node000002" class="edge">
<title>Node1&#45;&gt;Node2</title>
<g id="a_edge1_Node000001_Node000002"><a xlink:title=" ">
<path fill="none" stroke="#63b8ff" d="M387.85,-134.72C369.39,-139.74 349.47,-145.15 331.66,-150"/>
<polygon fill="#63b8ff" stroke="#63b8ff" points="388.91,-138.06 397.64,-132.06 387.07,-131.3 388.91,-138.06"/>
</a>
</g>
</g>
<!-- Node3 -->
<g id="Node000003" class="node">
<title>Node3</title>
<g id="a_Node000003"><a xlink:href="classpolyfem_1_1solver_1_1_body_form.html#a5dd3812e581ac1ca48508abd65fe6c07" target="_top" xlink:title="Compute the derivative of the force wrt vertex positions, then multiply the resulting matrix with adj...">
<polygon fill="white" stroke="#666666" points="350,-132 201,-132 201,-102 350,-102 350,-132"/>
<text text-anchor="start" x="209" y="-120" font-family="Helvetica,sans-Serif" font-size="10.00">polyfem::solver::BodyForm</text>
<text text-anchor="middle" x="275.5" y="-109" font-family="Helvetica,sans-Serif" font-size="10.00">::force_shape_derivative</text>
</a>
</g>
</g>
<!-- Node1&#45;&gt;Node3 -->
<g id="edge2_Node000001_Node000003" class="edge">
<title>Node1&#45;&gt;Node3</title>
<g id="a_edge2_Node000001_Node000003"><a xlink:title=" ">
<path fill="none" stroke="#63b8ff" d="M381.53,-117C371.17,-117 360.49,-117 350.09,-117"/>
<polygon fill="#63b8ff" stroke="#63b8ff" points="381.76,-120.5 391.76,-117 381.76,-113.5 381.76,-120.5"/>
</a>
</g>
</g>
<!-- Node4 -->
<g id="Node000004" class="node">
<title>Node4</title>
<g id="a_Node000004"><a xlink:href="classpolyfem_1_1solver_1_1_adjoint_form.html#a83da86e0efba5cfcba61af6b05796801" target="_top" xlink:title="Compute the value of the form multiplied with the weigth.">
<polygon fill="white" stroke="#666666" points="342.5,-84 208.5,-84 208.5,-54 342.5,-54 342.5,-84"/>
<text text-anchor="start" x="216.5" y="-72" font-family="Helvetica,sans-Serif" font-size="10.00">polyfem::solver::Adjoint</text>
<text text-anchor="middle" x="275.5" y="-61" font-family="Helvetica,sans-Serif" font-size="10.00">Form::value</text>
</a>
</g>
</g>
<!-- Node1&#45;&gt;Node4 -->
<g id="edge3_Node000001_Node000004" class="edge">
<title>Node1&#45;&gt;Node4</title>
<g id="a_edge3_Node000001_Node000004"><a xlink:title=" ">
<path fill="none" stroke="#63b8ff" d="M387.85,-99.28C369.39,-94.26 349.47,-88.85 331.66,-84"/>
<polygon fill="#63b8ff" stroke="#63b8ff" points="387.07,-102.7 397.64,-101.94 388.91,-95.94 387.07,-102.7"/>
</a>
</g>
</g>
<!-- Node5 -->
<g id="Node000005" class="node">
<title>Node5</title>
<g id="a_Node000005"><a xlink:href="classpolyfem_1_1solver_1_1_barycenter_target_form.html#a7130e8103eb502b35b9e2b0378f4d44b" target="_top" xlink:title=" ">
<polygon fill="white" stroke="#666666" points="159,-148.5 0,-148.5 0,-107.5 159,-107.5 159,-148.5"/>
<text text-anchor="start" x="8" y="-136.5" font-family="Helvetica,sans-Serif" font-size="10.00">polyfem::solver::Barycenter</text>
<text text-anchor="start" x="8" y="-125.5" font-family="Helvetica,sans-Serif" font-size="10.00">TargetForm::compute_adjoint</text>
<text text-anchor="middle" x="79.5" y="-114.5" font-family="Helvetica,sans-Serif" font-size="10.00">_rhs_step</text>
</a>
</g>
</g>
<!-- Node4&#45;&gt;Node5 -->
<g id="edge4_Node000004_Node000005" class="edge">
<title>Node4&#45;&gt;Node5</title>
<g id="a_edge4_Node000004_Node000005"><a xlink:title=" ">
<path fill="none" stroke="#63b8ff" d="M214.74,-87.02C208.08,-89.03 201.4,-91.06 195,-93 179.69,-97.65 163.22,-102.67 147.69,-107.42"/>
<polygon fill="#63b8ff" stroke="#63b8ff" points="215.89,-90.33 224.45,-84.08 213.86,-83.62 215.89,-90.33"/>
</a>
</g>
</g>
<!-- Node6 -->
<g id="Node000006" class="node">
<title>Node6</title>
<g id="a_Node000006"><a xlink:href="classpolyfem_1_1solver_1_1_barycenter_target_form.html#a917dfe80b06adffcf5028e65e2ed971e" target="_top" xlink:title=" ">
<polygon fill="white" stroke="#666666" points="158,-89.5 1,-89.5 1,-48.5 158,-48.5 158,-89.5"/>
<text text-anchor="start" x="9" y="-77.5" font-family="Helvetica,sans-Serif" font-size="10.00">polyfem::solver::Barycenter</text>
<text text-anchor="start" x="9" y="-66.5" font-family="Helvetica,sans-Serif" font-size="10.00">TargetForm::compute_partial</text>
<text text-anchor="middle" x="79.5" y="-55.5" font-family="Helvetica,sans-Serif" font-size="10.00">_gradient_step</text>
</a>
</g>
</g>
<!-- Node4&#45;&gt;Node6 -->
<g id="edge6_Node000004_Node000006" class="edge">
<title>Node4&#45;&gt;Node6</title>
<g id="a_edge6_Node000004_Node000006"><a xlink:title=" ">
<path fill="none" stroke="#63b8ff" d="M197.92,-69C184.84,-69 171.24,-69 158.13,-69"/>
<polygon fill="#63b8ff" stroke="#63b8ff" points="198.28,-72.5 208.28,-69 198.28,-65.5 198.28,-72.5"/>
</a>
</g>
</g>
<!-- Node7 -->
<g id="Node000007" class="node">
<title>Node7</title>
<g id="a_Node000007"><a xlink:href="classpolyfem_1_1solver_1_1_transient_form.html#a21567315041e870c6169a9e175ff4b10" target="_top" xlink:title="Compute the value of the form.">
<polygon fill="white" stroke="#666666" points="151,-30 8,-30 8,0 151,0 151,-30"/>
<text text-anchor="start" x="16" y="-18" font-family="Helvetica,sans-Serif" font-size="10.00">polyfem::solver::Transient</text>
<text text-anchor="middle" x="79.5" y="-7" font-family="Helvetica,sans-Serif" font-size="10.00">Form::value_unweighted</text>
</a>
</g>
</g>
<!-- Node4&#45;&gt;Node7 -->
<g id="edge7_Node000004_Node000007" class="edge">
<title>Node4&#45;&gt;Node7</title>
<g id="a_edge7_Node000004_Node000007"><a xlink:title=" ">
<path fill="none" stroke="#63b8ff" d="M210.5,-51.19C185.93,-44.35 158.14,-36.61 134.59,-30.05"/>
<polygon fill="#63b8ff" stroke="#63b8ff" points="209.89,-54.65 220.46,-53.96 211.76,-47.9 209.89,-54.65"/>
</a>
</g>
</g>
<!-- Node5&#45;&gt;Node5 -->
<g id="edge5_Node000005_Node000005" class="edge">
<title>Node5&#45;&gt;Node5</title>
<g id="a_edge5_Node000005_Node000005"><a xlink:title=" ">
<path fill="none" stroke="#63b8ff" d="M113.22,-158.46C108.21,-163.24 96.97,-166.5 79.5,-166.5 51.55,-166.5 39.55,-158.15 43.48,-148.6"/>
<polygon fill="#63b8ff" stroke="#63b8ff" points="116.66,-159.13 115.52,-148.6 109.84,-157.54 116.66,-159.13"/>
</a>
</g>
</g>
</g>
</svg>
