<?xml version="1.0" encoding="UTF-8" standalone="no"?>
<!DOCTYPE svg PUBLIC "-//W3C//DTD SVG 1.1//EN"
 "http://www.w3.org/Graphics/SVG/1.1/DTD/svg11.dtd">
<!-- Generated by graphviz version 2.43.0 (0)
 -->
<!-- Title: polyfem::basis::RBFWithQuadratic::is_volume Pages: 1 -->
<!--zoomable 256 -->
<svg id="main" version="1.1" xmlns="http://www.w3.org/2000/svg" xmlns:xlink="http://www.w3.org/1999/xlink" xml:space="preserve" onload="init(evt)">
<style type="text/css"><![CDATA[
.edge:hover path { stroke: red; }
.edge:hover polygon { stroke: red; fill: red; }
]]></style>
<script type="text/javascript"><![CDATA[
var edges = document.getElementsByTagName('g');
if (edges && edges.length) {
  for (var i=0;i<edges.length;i++) {
    if (edges[i].id.substr(0,4)=='edge') {
      edges[i].setAttribute('class','edge');
    }
  }
}
]]></script>
        <defs>
                <circle id="rim" cx="0" cy="0" r="7"/>
                <circle id="rim2" cx="0" cy="0" r="3.5"/>
                <g id="zoomPlus">
                        <use xlink:href="#rim" fill="#404040">
                                <set attributeName="fill" to="#808080" begin="zoomplus.mouseover" end="zoomplus.mouseout"/>
                        </use>
                        <path d="M-4,0h8M0,-4v8" fill="none" stroke="white" stroke-width="1.5" pointer-events="none"/>
                </g>
                <g id="zoomMin">
                        <use xlink:href="#rim" fill="#404040">
                                <set attributeName="fill" to="#808080" begin="zoomminus.mouseover" end="zoomminus.mouseout"/>
                        </use>
                        <path d="M-4,0h8" fill="none" stroke="white" stroke-width="1.5" pointer-events="none"/>
                </g>
                <g id="dirArrow">
                        <path fill="none" stroke="white" stroke-width="1.5" d="M0,-3.0v7 M-2.5,-0.5L0,-3.0L2.5,-0.5"/>
                </g>
               <g id="resetDef">
                       <use xlink:href="#rim2" fill="#404040">
                               <set attributeName="fill" to="#808080" begin="reset.mouseover" end="reset.mouseout"/>
                       </use>
               </g>
        </defs>

<script type="text/javascript">
var viewWidth = 1308;
var viewHeight = 256;
var sectionId = 'dynsection-19';
</script>
<script xlink:href="svgpan.js"/>
<svg id="graph" class="graph">
<g id="viewport">
<title>polyfem::basis::RBFWithQuadratic::is_volume</title>
<!-- Node1 -->
<g id="node1" class="node">
<title>Node1</title>
<g id="a_node1"><a xlink:title=" ">
<polygon fill="#bfbfbf" stroke="black" points="1116,-113.5 1116,-143.5 1300,-143.5 1300,-113.5 1116,-113.5"/>
<text text-anchor="start" x="1124" y="-131.5" font-family="Helvetica,sans-Serif" font-size="10.00">polyfem::basis::RBFWithQuadratic</text>
<text text-anchor="middle" x="1208" y="-120.5" font-family="Helvetica,sans-Serif" font-size="10.00">::is_volume</text>
</a>
</g>
</g>
<!-- Node2 -->
<g id="node2" class="node">
<title>Node2</title>
<g id="a_node2"><a xlink:href="classpolyfem_1_1basis_1_1_r_b_f_with_quadratic.html#a4f23527b0e433b12c941007b6623a099" target="_top" xlink:title="Batch evaluates the gradient of the RBF + polynomials on a set of sample points.">
<polygon fill="none" stroke="black" points="888,-217.5 888,-247.5 1072,-247.5 1072,-217.5 888,-217.5"/>
<text text-anchor="start" x="896" y="-235.5" font-family="Helvetica,sans-Serif" font-size="10.00">polyfem::basis::RBFWithQuadratic</text>
<text text-anchor="middle" x="980" y="-224.5" font-family="Helvetica,sans-Serif" font-size="10.00">::bases_grads</text>
</a>
</g>
</g>
<!-- Node1&#45;&gt;Node2 -->
<g id="edge1" class="edge">
<title>Node1&#45;&gt;Node2</title>
<path fill="none" stroke="midnightblue" d="M1176.21,-149.19C1151.14,-165.35 1114.38,-187.52 1080,-202.5 1066.99,-208.17 1052.59,-213.19 1038.88,-217.44"/>
<polygon fill="midnightblue" stroke="midnightblue" points="1178.43,-151.92 1184.9,-143.53 1174.61,-146.06 1178.43,-151.92"/>
</g>
<!-- Node4 -->
<g id="node4" class="node">
<title>Node4</title>
<g id="a_node4"><a xlink:href="classpolyfem_1_1basis_1_1_r_b_f_with_quadratic.html#ac0950bb574bb3bd3475cb4afc40dad9f" target="_top" xlink:title=" ">
<polygon fill="none" stroke="black" points="220,-107.5 220,-137.5 404,-137.5 404,-107.5 220,-107.5"/>
<text text-anchor="start" x="228" y="-125.5" font-family="Helvetica,sans-Serif" font-size="10.00">polyfem::basis::RBFWithQuadratic</text>
<text text-anchor="middle" x="312" y="-114.5" font-family="Helvetica,sans-Serif" font-size="10.00">::compute_weights</text>
</a>
</g>
</g>
<!-- Node1&#45;&gt;Node4 -->
<g id="edge15" class="edge">
<title>Node1&#45;&gt;Node4</title>
<path fill="none" stroke="midnightblue" d="M1123.68,-145.36C982,-171.26 685.63,-213.49 440,-169.5 406.1,-163.43 369.41,-148.91 344.22,-137.61"/>
<polygon fill="midnightblue" stroke="midnightblue" points="1124.41,-148.78 1133.61,-143.52 1123.14,-141.9 1124.41,-148.78"/>
</g>
<!-- Node6 -->
<g id="node6" class="node">
<title>Node6</title>
<g id="a_node6"><a xlink:href="classpolyfem_1_1basis_1_1_r_b_f_with_quadratic.html#a4a743a74284f7af70329fdada2b4d07e" target="_top" xlink:title=" ">
<polygon fill="none" stroke="black" points="440,-129.5 440,-159.5 624,-159.5 624,-129.5 440,-129.5"/>
<text text-anchor="start" x="448" y="-147.5" font-family="Helvetica,sans-Serif" font-size="10.00">polyfem::basis::RBFWithQuadratic</text>
<text text-anchor="middle" x="532" y="-136.5" font-family="Helvetica,sans-Serif" font-size="10.00">::compute_constraints_matrix_2d</text>
</a>
</g>
</g>
<!-- Node1&#45;&gt;Node6 -->
<g id="edge5" class="edge">
<title>Node1&#45;&gt;Node6</title>
<path fill="none" stroke="midnightblue" d="M1105.74,-130.9C975.11,-134 749.79,-139.35 624.24,-142.33"/>
<polygon fill="midnightblue" stroke="midnightblue" points="1105.84,-134.4 1115.75,-130.67 1105.67,-127.4 1105.84,-134.4"/>
</g>
<!-- Node7 -->
<g id="node7" class="node">
<title>Node7</title>
<g id="a_node7"><a xlink:href="classpolyfem_1_1basis_1_1_r_b_f_with_quadratic.html#a5359898f644358a097589155295aa195" target="_top" xlink:title=" ">
<polygon fill="none" stroke="black" points="880,-91.5 880,-121.5 1080,-121.5 1080,-91.5 880,-91.5"/>
<text text-anchor="start" x="888" y="-109.5" font-family="Helvetica,sans-Serif" font-size="10.00">polyfem::basis::RBFWithQuadratic</text>
<text text-anchor="middle" x="980" y="-98.5" font-family="Helvetica,sans-Serif" font-size="10.00">::compute_constraints_matrix_2d_old</text>
</a>
</g>
</g>
<!-- Node1&#45;&gt;Node7 -->
<g id="edge7" class="edge">
<title>Node1&#45;&gt;Node7</title>
<path fill="none" stroke="midnightblue" d="M1105.74,-118.64C1097.19,-117.81 1088.54,-116.97 1080,-116.14"/>
<polygon fill="midnightblue" stroke="midnightblue" points="1105.44,-122.13 1115.73,-119.62 1106.11,-115.16 1105.44,-122.13"/>
</g>
<!-- Node8 -->
<g id="node8" class="node">
<title>Node8</title>
<g id="a_node8"><a xlink:href="classpolyfem_1_1basis_1_1_r_b_f_with_quadratic.html#a77fe2f6a30da36a45ba5991e77e313fb" target="_top" xlink:title=" ">
<polygon fill="none" stroke="black" points="660,-88.5 660,-118.5 844,-118.5 844,-88.5 660,-88.5"/>
<text text-anchor="start" x="668" y="-106.5" font-family="Helvetica,sans-Serif" font-size="10.00">polyfem::basis::RBFWithQuadratic</text>
<text text-anchor="middle" x="752" y="-95.5" font-family="Helvetica,sans-Serif" font-size="10.00">::compute_constraints_matrix_3d</text>
</a>
</g>
</g>
<!-- Node1&#45;&gt;Node8 -->
<g id="edge8" class="edge">
<title>Node1&#45;&gt;Node8</title>
<path fill="none" stroke="midnightblue" d="M1165.93,-109.5C1141.54,-99.27 1109.67,-87.71 1080,-82.5 994.97,-67.58 895.85,-77.72 829.22,-88.46"/>
<polygon fill="midnightblue" stroke="midnightblue" points="1164.66,-112.76 1175.23,-113.48 1167.41,-106.33 1164.66,-112.76"/>
</g>
<!-- Node9 -->
<g id="node9" class="node">
<title>Node9</title>
<g id="a_node9"><a xlink:href="classpolyfem_1_1basis_1_1_r_b_f_with_quadratic.html#af027c7a81967196281bb067570c129c9" target="_top" xlink:title=" ">
<polygon fill="none" stroke="black" points="888,-3.5 888,-33.5 1072,-33.5 1072,-3.5 888,-3.5"/>
<text text-anchor="start" x="896" y="-21.5" font-family="Helvetica,sans-Serif" font-size="10.00">polyfem::basis::RBFWithQuadratic</text>
<text text-anchor="middle" x="980" y="-10.5" font-family="Helvetica,sans-Serif" font-size="10.00">::compute_kernels_matrix</text>
</a>
</g>
</g>
<!-- Node1&#45;&gt;Node9 -->
<g id="edge10" class="edge">
<title>Node1&#45;&gt;Node9</title>
<path fill="none" stroke="midnightblue" d="M1178.58,-107.47C1153.64,-89.79 1115.84,-64.86 1080,-48.5 1067.42,-42.76 1053.45,-37.76 1040.07,-33.57"/>
<polygon fill="midnightblue" stroke="midnightblue" points="1176.68,-110.41 1186.85,-113.4 1180.76,-104.73 1176.68,-110.41"/>
</g>
<!-- Node3 -->
<g id="node3" class="node">
<title>Node3</title>
<g id="a_node3"><a xlink:href="classpolyfem_1_1basis_1_1_r_b_f_with_quadratic.html#aecdf265e10eaa4c031447615db9c1e6f" target="_top" xlink:title="Evaluates the gradient of one RBF function over a list of coordinates.">
<polygon fill="none" stroke="black" points="440,-217.5 440,-247.5 624,-247.5 624,-217.5 440,-217.5"/>
<text text-anchor="start" x="448" y="-235.5" font-family="Helvetica,sans-Serif" font-size="10.00">polyfem::basis::RBFWithQuadratic</text>
<text text-anchor="middle" x="532" y="-224.5" font-family="Helvetica,sans-Serif" font-size="10.00">::grad</text>
</a>
</g>
</g>
<!-- Node2&#45;&gt;Node3 -->
<g id="edge2" class="edge">
<title>Node2&#45;&gt;Node3</title>
<path fill="none" stroke="midnightblue" d="M877.84,-232.5C801.63,-232.5 698.02,-232.5 624.32,-232.5"/>
<polygon fill="midnightblue" stroke="midnightblue" points="877.94,-236 887.94,-232.5 877.94,-229 877.94,-236"/>
</g>
<!-- Node3&#45;&gt;Node4 -->
<g id="edge3" class="edge">
<title>Node3&#45;&gt;Node4</title>
<path fill="none" stroke="midnightblue" d="M468.17,-214.02C458.58,-210.56 448.92,-206.7 440,-202.5 400.4,-183.84 358.08,-155.22 333.66,-137.75"/>
<polygon fill="midnightblue" stroke="midnightblue" points="467.1,-217.36 477.7,-217.34 469.41,-210.75 467.1,-217.36"/>
</g>
<!-- Node5 -->
<g id="node5" class="node">
<title>Node5</title>
<g id="a_node5"><a xlink:href="classpolyfem_1_1basis_1_1_r_b_f_with_quadratic.html#a6e9070c30c8f0862727db6998a7edd2b" target="_top" xlink:title="Initialize RBF functions over a polytope element.">
<polygon fill="none" stroke="black" points="0,-107.5 0,-137.5 184,-137.5 184,-107.5 0,-107.5"/>
<text text-anchor="start" x="8" y="-125.5" font-family="Helvetica,sans-Serif" font-size="10.00">polyfem::basis::RBFWithQuadratic</text>
<text text-anchor="middle" x="92" y="-114.5" font-family="Helvetica,sans-Serif" font-size="10.00">::RBFWithQuadratic</text>
</a>
</g>
</g>
<!-- Node4&#45;&gt;Node5 -->
<g id="edge4" class="edge">
<title>Node4&#45;&gt;Node5</title>
<path fill="none" stroke="midnightblue" d="M209.53,-122.5C201.07,-122.5 192.55,-122.5 184.17,-122.5"/>
<polygon fill="midnightblue" stroke="midnightblue" points="209.81,-126 219.81,-122.5 209.81,-119 209.81,-126"/>
</g>
<!-- Node6&#45;&gt;Node4 -->
<g id="edge6" class="edge">
<title>Node6&#45;&gt;Node4</title>
<path fill="none" stroke="midnightblue" d="M429.81,-134.29C421.26,-133.43 412.64,-132.56 404.17,-131.7"/>
<polygon fill="midnightblue" stroke="midnightblue" points="429.51,-137.78 439.81,-135.3 430.21,-130.81 429.51,-137.78"/>
</g>
<!-- Node8&#45;&gt;Node4 -->
<g id="edge9" class="edge">
<title>Node8&#45;&gt;Node4</title>
<path fill="none" stroke="midnightblue" d="M649.7,-107.89C575.6,-111.11 475.92,-115.43 404.28,-118.54"/>
<polygon fill="midnightblue" stroke="midnightblue" points="650.14,-111.38 659.98,-107.45 649.84,-104.39 650.14,-111.38"/>
</g>
<!-- Node9&#45;&gt;Node4 -->
<g id="edge14" class="edge">
<title>Node9&#45;&gt;Node4</title>
<path fill="none" stroke="midnightblue" d="M877.91,-34.29C749.03,-54.41 528.11,-88.91 404.17,-108.26"/>
<polygon fill="midnightblue" stroke="midnightblue" points="878.45,-37.74 887.79,-32.74 877.37,-30.83 878.45,-37.74"/>
</g>
<!-- Node10 -->
<g id="node10" class="node">
<title>Node10</title>
<g id="a_node10"><a xlink:href="classpolyfem_1_1basis_1_1_r_b_f_with_quadratic.html#a423295c4a8d424c9572f15221b4c52e8" target="_top" xlink:title="Batch evaluates the RBF + polynomials on a set of sample points.">
<polygon fill="none" stroke="black" points="660,-0.5 660,-30.5 844,-30.5 844,-0.5 660,-0.5"/>
<text text-anchor="start" x="668" y="-18.5" font-family="Helvetica,sans-Serif" font-size="10.00">polyfem::basis::RBFWithQuadratic</text>
<text text-anchor="middle" x="752" y="-7.5" font-family="Helvetica,sans-Serif" font-size="10.00">::bases_values</text>
</a>
</g>
</g>
<!-- Node9&#45;&gt;Node10 -->
<g id="edge11" class="edge">
<title>Node9&#45;&gt;Node10</title>
<path fill="none" stroke="midnightblue" d="M877.58,-17.15C866.48,-17.01 855.22,-16.86 844.24,-16.71"/>
<polygon fill="midnightblue" stroke="midnightblue" points="877.68,-20.66 887.73,-17.29 877.78,-13.66 877.68,-20.66"/>
</g>
<!-- Node11 -->
<g id="node11" class="node">
<title>Node11</title>
<g id="a_node11"><a xlink:href="classpolyfem_1_1basis_1_1_r_b_f_with_quadratic.html#a1707dc6e1745ab4fceb760c690bd8c00" target="_top" xlink:title="Evaluates one RBF function over a list of coordinates.">
<polygon fill="none" stroke="black" points="440,-0.5 440,-30.5 624,-30.5 624,-0.5 440,-0.5"/>
<text text-anchor="start" x="448" y="-18.5" font-family="Helvetica,sans-Serif" font-size="10.00">polyfem::basis::RBFWithQuadratic</text>
<text text-anchor="middle" x="532" y="-7.5" font-family="Helvetica,sans-Serif" font-size="10.00">::basis</text>
</a>
</g>
</g>
<!-- Node10&#45;&gt;Node11 -->
<g id="edge12" class="edge">
<title>Node10&#45;&gt;Node11</title>
<path fill="none" stroke="midnightblue" d="M649.53,-15.5C641.07,-15.5 632.55,-15.5 624.17,-15.5"/>
<polygon fill="midnightblue" stroke="midnightblue" points="649.81,-19 659.81,-15.5 649.81,-12 649.81,-19"/>
</g>
<!-- Node11&#45;&gt;Node4 -->
<g id="edge13" class="edge">
<title>Node11&#45;&gt;Node4</title>
<path fill="none" stroke="midnightblue" d="M468.59,-33.98C458.88,-37.46 449.07,-41.32 440,-45.5 401.13,-63.41 359.27,-90.47 334.64,-107.28"/>
<polygon fill="midnightblue" stroke="midnightblue" points="469.94,-37.22 478.24,-30.65 467.65,-30.61 469.94,-37.22"/>
</g>
</g>
</svg>
        <g id="navigator" transform="translate(0 0)" fill="#404254">
                <rect fill="#f2f5e9" fill-opacity="0.5" stroke="#606060" stroke-width=".5" x="0" y="0" width="60" height="60"/>
                <use id="zoomplus" xlink:href="#zoomPlus" x="17" y="9" onmousedown="handleZoom(evt,'in')"/>
                <use id="zoomminus" xlink:href="#zoomMin" x="42" y="9" onmousedown="handleZoom(evt,'out')"/>
                <use id="reset" xlink:href="#resetDef" x="30" y="36" onmousedown="handleReset()"/>
                <g id="arrowUp" xlink:href="#dirArrow" transform="translate(30 24)" onmousedown="handlePan(0,-1)">
                  <use xlink:href="#rim" fill="#404040">
                        <set attributeName="fill" to="#808080" begin="arrowUp.mouseover" end="arrowUp.mouseout"/>
                  </use>
                  <path fill="none" stroke="white" stroke-width="1.5" d="M0,-3.0v7 M-2.5,-0.5L0,-3.0L2.5,-0.5"/>
                </g>
                <g id="arrowRight" xlink:href="#dirArrow" transform="rotate(90) translate(36 -43)" onmousedown="handlePan(1,0)">
                  <use xlink:href="#rim" fill="#404040">
                        <set attributeName="fill" to="#808080" begin="arrowRight.mouseover" end="arrowRight.mouseout"/>
                  </use>
                  <path fill="none" stroke="white" stroke-width="1.5" d="M0,-3.0v7 M-2.5,-0.5L0,-3.0L2.5,-0.5"/>
                </g>
                <g id="arrowDown" xlink:href="#dirArrow" transform="rotate(180) translate(-30 -48)" onmousedown="handlePan(0,1)">
                  <use xlink:href="#rim" fill="#404040">
                        <set attributeName="fill" to="#808080" begin="arrowDown.mouseover" end="arrowDown.mouseout"/>
                  </use>
                  <path fill="none" stroke="white" stroke-width="1.5" d="M0,-3.0v7 M-2.5,-0.5L0,-3.0L2.5,-0.5"/>
                </g>
                <g id="arrowLeft" xlink:href="#dirArrow" transform="rotate(270) translate(-36 17)" onmousedown="handlePan(-1,0)">
                  <use xlink:href="#rim" fill="#404040">
                        <set attributeName="fill" to="#808080" begin="arrowLeft.mouseover" end="arrowLeft.mouseout"/>
                  </use>
                  <path fill="none" stroke="white" stroke-width="1.5" d="M0,-3.0v7 M-2.5,-0.5L0,-3.0L2.5,-0.5"/>
                </g>
        </g>
        <svg viewBox="0 0 15 15" width="100%" height="30px" preserveAspectRatio="xMaxYMin meet">
         <g id="arrow_out" transform="scale(0.3 0.3)">
          <a xlink:href="classpolyfem_1_1basis_1_1_r_b_f_with_quadratic_a10e9128482791ec06df9e525c1bada8b_icgraph_org.svg" target="_base">
           <rect id="button" ry="5" rx="5" y="6" x="6" height="38" width="38"
                fill="#f2f5e9" fill-opacity="0.5" stroke="#606060" stroke-width="1.0"/>
           <path id="arrow"
             d="M 11.500037,31.436501 C 11.940474,20.09759 22.043105,11.32322 32.158766,21.979434 L 37.068811,17.246167 C 37.068811,17.246167 37.088388,32 37.088388,32 L 22.160133,31.978069 C 22.160133,31.978069 26.997745,27.140456 26.997745,27.140456 C 18.528582,18.264221 13.291696,25.230495 11.500037,31.436501 z"
             style="fill:#404040;"/>
          </a>
         </g>
        </svg>
</svg>
