<?xml version="1.0" encoding="UTF-8" standalone="no"?>
<!DOCTYPE svg PUBLIC "-//W3C//DTD SVG 1.1//EN"
 "http://www.w3.org/Graphics/SVG/1.1/DTD/svg11.dtd">
<!-- Generated by graphviz version 2.43.0 (0)
 -->
<!-- Title: polyfem::solver::ALForm::ALForm Pages: 1 -->
<svg width="710pt" height="220pt"
 viewBox="0.00 0.00 710.00 220.00" xmlns="http://www.w3.org/2000/svg" xmlns:xlink="http://www.w3.org/1999/xlink">
<g id="graph0" class="graph" transform="scale(1 1) rotate(0) translate(4 216)">
<title>polyfem::solver::ALForm::ALForm</title>
<!-- Node1 -->
<g id="node1" class="node">
<title>Node1</title>
<g id="a_node1"><a xlink:title="Construct a new ALForm object with a fixed Dirichlet boundary.">
<polygon fill="#999999" stroke="#666666" points="136,-126 0,-126 0,-96 136,-96 136,-126"/>
<text text-anchor="start" x="8" y="-114" font-family="Helvetica,sans-Serif" font-size="10.00">polyfem::solver::ALForm</text>
<text text-anchor="middle" x="68" y="-103" font-family="Helvetica,sans-Serif" font-size="10.00">::ALForm</text>
</a>
</g>
</g>
<!-- Node2 -->
<g id="node2" class="node">
<title>Node2</title>
<g id="a_node2"><a xlink:href="classpolyfem_1_1solver_1_1_a_l_form.html#a5d895d9f3e8bf3c28a94688487c5ca97" target="_top" xlink:title="Initialize the masked lumped mass matrix.">
<polygon fill="white" stroke="#666666" points="327,-126 172,-126 172,-96 327,-96 327,-126"/>
<text text-anchor="start" x="180" y="-114" font-family="Helvetica,sans-Serif" font-size="10.00">polyfem::solver::ALForm</text>
<text text-anchor="middle" x="249.5" y="-103" font-family="Helvetica,sans-Serif" font-size="10.00">::init_masked_lumped_mass</text>
</a>
</g>
</g>
<!-- Node1&#45;&gt;Node2 -->
<g id="edge1" class="edge">
<title>Node1&#45;&gt;Node2</title>
<path fill="none" stroke="#63b8ff" d="M136.09,-111C144.47,-111 153.12,-111 161.74,-111"/>
<polygon fill="#63b8ff" stroke="#63b8ff" points="161.82,-114.5 171.82,-111 161.82,-107.5 161.82,-114.5"/>
</g>
<!-- Node3 -->
<g id="node3" class="node">
<title>Node3</title>
<g id="a_node3"><a xlink:href="namespacepolyfem_1_1utils.html#a2fb8d51756a3b76bee0485fa58e65226" target="_top" xlink:title="Lump each row of a matrix into the diagonal.">
<polygon fill="white" stroke="#666666" points="490,-212 375,-212 375,-182 490,-182 490,-212"/>
<text text-anchor="start" x="383" y="-200" font-family="Helvetica,sans-Serif" font-size="10.00">polyfem::utils::lump</text>
<text text-anchor="middle" x="432.5" y="-189" font-family="Helvetica,sans-Serif" font-size="10.00">_matrix</text>
</a>
</g>
</g>
<!-- Node2&#45;&gt;Node3 -->
<g id="edge2" class="edge">
<title>Node2&#45;&gt;Node3</title>
<path fill="none" stroke="#63b8ff" d="M278.9,-126.07C301.49,-137.89 334.01,-154.54 363,-168 370.17,-171.33 377.82,-174.72 385.31,-177.96"/>
<polygon fill="#63b8ff" stroke="#63b8ff" points="384.11,-181.25 394.68,-181.96 386.86,-174.81 384.11,-181.25"/>
</g>
<!-- Node4 -->
<g id="node4" class="node">
<title>Node4</title>
<g id="a_node4"><a xlink:href="classpolyfem_1_1mesh_1_1_obstacle.html#a0a030857d0f71ae2a88692d988fab8db" target="_top" xlink:title=" ">
<polygon fill="white" stroke="#666666" points="689.5,-169 550.5,-169 550.5,-139 689.5,-139 689.5,-169"/>
<text text-anchor="start" x="558.5" y="-157" font-family="Helvetica,sans-Serif" font-size="10.00">polyfem::mesh::Obstacle</text>
<text text-anchor="middle" x="620" y="-146" font-family="Helvetica,sans-Serif" font-size="10.00">::n_vertices</text>
</a>
</g>
</g>
<!-- Node2&#45;&gt;Node4 -->
<g id="edge3" class="edge">
<title>Node2&#45;&gt;Node4</title>
<path fill="none" stroke="#63b8ff" d="M313.59,-126.04C329.63,-129.42 346.89,-132.69 363,-135 422.02,-143.45 489.27,-148.25 540.03,-150.92"/>
<polygon fill="#63b8ff" stroke="#63b8ff" points="540.11,-154.43 550.27,-151.44 540.46,-147.44 540.11,-154.43"/>
</g>
<!-- Node5 -->
<g id="node5" class="node">
<title>Node5</title>
<g id="a_node5"><a xlink:href="classpolyfem_1_1mesh_1_1_obstacle.html#a7e4641b4e7d3130e1618237978eee875" target="_top" xlink:title=" ">
<polygon fill="white" stroke="#666666" points="502,-126 363,-126 363,-96 502,-96 502,-126"/>
<text text-anchor="start" x="371" y="-114" font-family="Helvetica,sans-Serif" font-size="10.00">polyfem::mesh::Obstacle</text>
<text text-anchor="middle" x="432.5" y="-103" font-family="Helvetica,sans-Serif" font-size="10.00">::ndof</text>
</a>
</g>
</g>
<!-- Node2&#45;&gt;Node5 -->
<g id="edge4" class="edge">
<title>Node2&#45;&gt;Node5</title>
<path fill="none" stroke="#63b8ff" d="M327.26,-111C335.69,-111 344.27,-111 352.72,-111"/>
<polygon fill="#63b8ff" stroke="#63b8ff" points="352.94,-114.5 362.94,-111 352.94,-107.5 352.94,-114.5"/>
</g>
<!-- Node7 -->
<g id="node7" class="node">
<title>Node7</title>
<g id="a_node7"><a xlink:href="namespacepolyfem_1_1utils.html#a691a83ca0c9ab36d64ab2bd56eb394e0" target="_top" xlink:title=" ">
<polygon fill="white" stroke="#666666" points="493.5,-78 371.5,-78 371.5,-48 493.5,-48 493.5,-78"/>
<text text-anchor="start" x="379.5" y="-66" font-family="Helvetica,sans-Serif" font-size="10.00">polyfem::utils::sparse</text>
<text text-anchor="middle" x="432.5" y="-55" font-family="Helvetica,sans-Serif" font-size="10.00">_identity</text>
</a>
</g>
</g>
<!-- Node2&#45;&gt;Node7 -->
<g id="edge7" class="edge">
<title>Node2&#45;&gt;Node7</title>
<path fill="none" stroke="#63b8ff" d="M307.27,-95.94C325.64,-91.07 346.16,-85.63 365.16,-80.59"/>
<polygon fill="#63b8ff" stroke="#63b8ff" points="366.16,-83.95 374.93,-78 364.37,-77.18 366.16,-83.95"/>
</g>
<!-- Node8 -->
<g id="node8" class="node">
<title>Node8</title>
<g id="a_node8"><a xlink:href="classpolyfem_1_1solver_1_1_form.html#a14d2ee6928c73fc77eb7a7fa1542d27a" target="_top" xlink:title="Compute the value of the form multiplied with the weigth.">
<polygon fill="white" stroke="#666666" points="494.5,-30 370.5,-30 370.5,0 494.5,0 494.5,-30"/>
<text text-anchor="start" x="378.5" y="-18" font-family="Helvetica,sans-Serif" font-size="10.00">polyfem::solver::Form</text>
<text text-anchor="middle" x="432.5" y="-7" font-family="Helvetica,sans-Serif" font-size="10.00">::value</text>
</a>
</g>
</g>
<!-- Node2&#45;&gt;Node8 -->
<g id="edge8" class="edge">
<title>Node2&#45;&gt;Node8</title>
<path fill="none" stroke="#63b8ff" d="M270.8,-95.95C292.7,-80.21 329.02,-55.55 363,-39 366.59,-37.25 370.35,-35.57 374.17,-33.96"/>
<polygon fill="#63b8ff" stroke="#63b8ff" points="375.77,-37.09 383.75,-30.12 373.16,-30.59 375.77,-37.09"/>
</g>
<!-- Node5&#45;&gt;Node4 -->
<g id="edge6" class="edge">
<title>Node5&#45;&gt;Node4</title>
<path fill="none" stroke="#63b8ff" d="M498.38,-126.04C513.21,-129.48 529.08,-133.16 544.28,-136.68"/>
<polygon fill="#63b8ff" stroke="#63b8ff" points="543.63,-140.12 554.16,-138.97 545.21,-133.3 543.63,-140.12"/>
</g>
<!-- Node6 -->
<g id="node6" class="node">
<title>Node6</title>
<g id="a_node6"><a xlink:href="classpolyfem_1_1mesh_1_1_obstacle.html#a729f1878fafca845d043f4f2ead84dbc" target="_top" xlink:title=" ">
<polygon fill="white" stroke="#666666" points="702,-120.5 538,-120.5 538,-101.5 702,-101.5 702,-120.5"/>
<text text-anchor="middle" x="620" y="-108.5" font-family="Helvetica,sans-Serif" font-size="10.00">polyfem::mesh::Obstacle::dim</text>
</a>
</g>
</g>
<!-- Node5&#45;&gt;Node6 -->
<g id="edge5" class="edge">
<title>Node5&#45;&gt;Node6</title>
<path fill="none" stroke="#63b8ff" d="M502.05,-111C510.43,-111 519.09,-111 527.74,-111"/>
<polygon fill="#63b8ff" stroke="#63b8ff" points="527.87,-114.5 537.87,-111 527.87,-107.5 527.87,-114.5"/>
</g>
<!-- Node9 -->
<g id="node9" class="node">
<title>Node9</title>
<g id="a_node9"><a xlink:href="classpolyfem_1_1solver_1_1_form.html#a464a37a939d522c672aed03d281a5a92" target="_top" xlink:title="Compute the value of the form.">
<polygon fill="white" stroke="#666666" points="682,-30 558,-30 558,0 682,0 682,-30"/>
<text text-anchor="start" x="566" y="-18" font-family="Helvetica,sans-Serif" font-size="10.00">polyfem::solver::Form</text>
<text text-anchor="middle" x="620" y="-7" font-family="Helvetica,sans-Serif" font-size="10.00">::value_unweighted</text>
</a>
</g>
</g>
<!-- Node8&#45;&gt;Node9 -->
<g id="edge9" class="edge">
<title>Node8&#45;&gt;Node9</title>
<path fill="none" stroke="#63b8ff" d="M494.75,-15C511.69,-15 530.22,-15 547.68,-15"/>
<polygon fill="#63b8ff" stroke="#63b8ff" points="547.81,-18.5 557.81,-15 547.81,-11.5 547.81,-18.5"/>
</g>
</g>
</svg>
