<?xml version="1.0" encoding="UTF-8" standalone="no"?>
<!DOCTYPE svg PUBLIC "-//W3C//DTD SVG 1.1//EN"
 "http://www.w3.org/Graphics/SVG/1.1/DTD/svg11.dtd">
<!-- Generated by graphviz version 2.43.0 (0)
 -->
<!-- Title: polyfem::mesh::Mesh::is_spline_compatible Pages: 1 -->
<svg width="644pt" height="86pt"
 viewBox="0.00 0.00 644.00 86.00" xmlns="http://www.w3.org/2000/svg" xmlns:xlink="http://www.w3.org/1999/xlink">
<g id="graph0" class="graph" transform="scale(1 1) rotate(0) translate(4 82)">
<title>polyfem::mesh::Mesh::is_spline_compatible</title>
<!-- Node1 -->
<g id="node1" class="node">
<title>Node1</title>
<g id="a_node1"><a xlink:title="checks if element is spline compatible">
<polygon fill="#999999" stroke="#666666" points="636,-54 511,-54 511,-24 636,-24 636,-54"/>
<text text-anchor="start" x="519" y="-42" font-family="Helvetica,sans-Serif" font-size="10.00">polyfem::mesh::Mesh</text>
<text text-anchor="middle" x="573.5" y="-31" font-family="Helvetica,sans-Serif" font-size="10.00">::is_spline_compatible</text>
</a>
</g>
</g>
<!-- Node2 -->
<g id="node2" class="node">
<title>Node2</title>
<g id="a_node2"><a xlink:href="classpolyfem_1_1basis_1_1_spline_basis2d.html#af9647481c1a62ac9b81c9394ff36a2ea" target="_top" xlink:title=" ">
<polygon fill="white" stroke="#666666" points="475,-78 312,-78 312,-48 475,-48 475,-78"/>
<text text-anchor="start" x="320" y="-66" font-family="Helvetica,sans-Serif" font-size="10.00">polyfem::basis::SplineBasis2d</text>
<text text-anchor="middle" x="393.5" y="-55" font-family="Helvetica,sans-Serif" font-size="10.00">::build_bases</text>
</a>
</g>
</g>
<!-- Node1&#45;&gt;Node2 -->
<g id="edge1" class="edge">
<title>Node1&#45;&gt;Node2</title>
<path fill="none" stroke="#63b8ff" d="M500.67,-48.68C492.31,-49.81 483.74,-50.97 475.27,-52.11"/>
<polygon fill="#63b8ff" stroke="#63b8ff" points="501.3,-52.13 510.74,-47.33 500.37,-45.19 501.3,-52.13"/>
</g>
<!-- Node6 -->
<g id="node6" class="node">
<title>Node6</title>
<g id="a_node6"><a xlink:href="classpolyfem_1_1basis_1_1_spline_basis3d.html#a714401935be3ae9842e606a9b56718f7" target="_top" xlink:title=" ">
<polygon fill="white" stroke="#666666" points="475,-30 312,-30 312,0 475,0 475,-30"/>
<text text-anchor="start" x="320" y="-18" font-family="Helvetica,sans-Serif" font-size="10.00">polyfem::basis::SplineBasis3d</text>
<text text-anchor="middle" x="393.5" y="-7" font-family="Helvetica,sans-Serif" font-size="10.00">::build_bases</text>
</a>
</g>
</g>
<!-- Node1&#45;&gt;Node6 -->
<g id="edge5" class="edge">
<title>Node1&#45;&gt;Node6</title>
<path fill="none" stroke="#63b8ff" d="M500.67,-29.32C492.31,-28.19 483.74,-27.03 475.27,-25.89"/>
<polygon fill="#63b8ff" stroke="#63b8ff" points="500.37,-32.81 510.74,-30.67 501.3,-25.87 500.37,-32.81"/>
</g>
<!-- Node3 -->
<g id="node3" class="node">
<title>Node3</title>
<g id="a_node3"><a xlink:href="classpolyfem_1_1_state.html#a75cfcf28f3bc27e8e30b41c7347c799b" target="_top" xlink:title="builds the bases step 2 of solve">
<polygon fill="white" stroke="#666666" points="276,-54 157,-54 157,-24 276,-24 276,-54"/>
<text text-anchor="start" x="165" y="-42" font-family="Helvetica,sans-Serif" font-size="10.00">polyfem::State::build</text>
<text text-anchor="middle" x="216.5" y="-31" font-family="Helvetica,sans-Serif" font-size="10.00">_basis</text>
</a>
</g>
</g>
<!-- Node2&#45;&gt;Node3 -->
<g id="edge2" class="edge">
<title>Node2&#45;&gt;Node3</title>
<path fill="none" stroke="#63b8ff" d="M301.75,-50.55C293.09,-49.37 284.48,-48.19 276.24,-47.06"/>
<polygon fill="#63b8ff" stroke="#63b8ff" points="301.53,-54.06 311.91,-51.95 302.48,-47.12 301.53,-54.06"/>
</g>
<!-- Node4 -->
<g id="node4" class="node">
<title>Node4</title>
<g id="a_node4"><a xlink:href="main_8cpp.html#a3c04138a5bfe5d72780bb7e82a18e627" target="_top" xlink:title=" ">
<polygon fill="white" stroke="#666666" points="81,-67.5 40,-67.5 40,-48.5 81,-48.5 81,-67.5"/>
<text text-anchor="middle" x="60.5" y="-55.5" font-family="Helvetica,sans-Serif" font-size="10.00">main</text>
</a>
</g>
</g>
<!-- Node3&#45;&gt;Node4 -->
<g id="edge3" class="edge">
<title>Node3&#45;&gt;Node4</title>
<path fill="none" stroke="#63b8ff" d="M146.71,-47.49C122.86,-50.43 97.95,-53.5 81.27,-55.56"/>
<polygon fill="#63b8ff" stroke="#63b8ff" points="147.34,-50.94 156.84,-46.24 146.49,-43.99 147.34,-50.94"/>
</g>
<!-- Node5 -->
<g id="node5" class="node">
<title>Node5</title>
<g id="a_node5"><a xlink:href="classpolyfem_1_1_state.html#a219f9935d918f739d82488449bd4cbf4" target="_top" xlink:title="solves the problem, call other methods">
<polygon fill="white" stroke="#666666" points="121,-30.5 0,-30.5 0,-11.5 121,-11.5 121,-30.5"/>
<text text-anchor="middle" x="60.5" y="-18.5" font-family="Helvetica,sans-Serif" font-size="10.00">polyfem::State::solve</text>
</a>
</g>
</g>
<!-- Node3&#45;&gt;Node5 -->
<g id="edge4" class="edge">
<title>Node3&#45;&gt;Node5</title>
<path fill="none" stroke="#63b8ff" d="M146.83,-30.97C138.22,-29.97 129.47,-28.94 121.02,-27.96"/>
<polygon fill="#63b8ff" stroke="#63b8ff" points="146.5,-34.46 156.84,-32.14 147.31,-27.51 146.5,-34.46"/>
</g>
<!-- Node6&#45;&gt;Node3 -->
<g id="edge6" class="edge">
<title>Node6&#45;&gt;Node3</title>
<path fill="none" stroke="#63b8ff" d="M301.75,-27.45C293.09,-28.63 284.48,-29.81 276.24,-30.94"/>
<polygon fill="#63b8ff" stroke="#63b8ff" points="302.48,-30.88 311.91,-26.05 301.53,-23.94 302.48,-30.88"/>
</g>
</g>
</svg>
