<?xml version="1.0" encoding="UTF-8" standalone="no"?>
<!DOCTYPE svg PUBLIC "-//W3C//DTD SVG 1.1//EN"
 "http://www.w3.org/Graphics/SVG/1.1/DTD/svg11.dtd">
<!-- Generated by graphviz version 2.43.0 (0)
 -->
<!-- Title: polyfem::mesh::Mesh3D::get_edges Pages: 1 -->
<svg width="323pt" height="86pt"
 viewBox="0.00 0.00 323.00 86.00" xmlns="http://www.w3.org/2000/svg" xmlns:xlink="http://www.w3.org/1999/xlink">
<g id="graph0" class="graph" transform="scale(1 1) rotate(0) translate(4 82)">
<title>polyfem::mesh::Mesh3D::get_edges</title>
<!-- Node1 -->
<g id="Node000001" class="node">
<title>Node1</title>
<g id="a_Node000001"><a xlink:title="Get all the edges.">
<polygon fill="#999999" stroke="#666666" points="315,-54 179,-54 179,-24 315,-24 315,-54"/>
<text text-anchor="start" x="187" y="-42" font-family="Helvetica,sans-Serif" font-size="10.00">polyfem::mesh::Mesh3D</text>
<text text-anchor="middle" x="247" y="-31" font-family="Helvetica,sans-Serif" font-size="10.00">::get_edges</text>
</a>
</g>
</g>
<!-- Node2 -->
<g id="Node000002" class="node">
<title>Node2</title>
<g id="a_Node000002"><a xlink:href="classpolyfem_1_1mesh_1_1_c_mesh3_d.html#a3b7e9828faef7f242c99d377b5ecfa5c" target="_top" xlink:title="normalize the mesh">
<polygon fill="white" stroke="#666666" points="143,-78 0,-78 0,-48 143,-48 143,-78"/>
<text text-anchor="start" x="8" y="-66" font-family="Helvetica,sans-Serif" font-size="10.00">polyfem::mesh::CMesh3D</text>
<text text-anchor="middle" x="71.5" y="-55" font-family="Helvetica,sans-Serif" font-size="10.00">::normalize</text>
</a>
</g>
</g>
<!-- Node1&#45;&gt;Node2 -->
<g id="edge1_Node000001_Node000002" class="edge">
<title>Node1&#45;&gt;Node2</title>
<g id="a_edge1_Node000001_Node000002"><a xlink:title=" ">
<path fill="none" stroke="#63b8ff" d="M168.92,-49.66C160.34,-50.85 151.63,-52.05 143.13,-53.23"/>
<polygon fill="#63b8ff" stroke="#63b8ff" points="169.49,-53.12 178.92,-48.28 168.54,-46.18 169.49,-53.12"/>
</a>
</g>
</g>
<!-- Node3 -->
<g id="Node000003" class="node">
<title>Node3</title>
<g id="a_Node000003"><a xlink:href="classpolyfem_1_1refinement_1_1_a_priori.html#a187cc53d43b41ff79035b93e2332ec5f" target="_top" xlink:title="compute a priori prefinement in 3d">
<polygon fill="white" stroke="#666666" points="129.5,-30 13.5,-30 13.5,0 129.5,0 129.5,-30"/>
<text text-anchor="start" x="21.5" y="-18" font-family="Helvetica,sans-Serif" font-size="10.00">polyfem::refinement</text>
<text text-anchor="middle" x="71.5" y="-7" font-family="Helvetica,sans-Serif" font-size="10.00">::APriori::p_refine</text>
</a>
</g>
</g>
<!-- Node1&#45;&gt;Node3 -->
<g id="edge2_Node000001_Node000003" class="edge">
<title>Node1&#45;&gt;Node3</title>
<g id="a_edge2_Node000001_Node000003"><a xlink:title=" ">
<path fill="none" stroke="#63b8ff" d="M168.88,-28.33C155.65,-26.5 142.12,-24.63 129.54,-22.89"/>
<polygon fill="#63b8ff" stroke="#63b8ff" points="168.54,-31.82 178.92,-29.72 169.49,-24.88 168.54,-31.82"/>
</a>
</g>
</g>
</g>
</svg>
