<?xml version="1.0" encoding="UTF-8" standalone="no"?>
<!DOCTYPE svg PUBLIC "-//W3C//DTD SVG 1.1//EN"
 "http://www.w3.org/Graphics/SVG/1.1/DTD/svg11.dtd">
<!-- Generated by graphviz version 2.43.0 (0)
 -->
<!-- Title: polyfem::quadrature::QuadQuadrature::get_quadrature Pages: 1 -->
<svg width="1254pt" height="194pt"
 viewBox="0.00 0.00 1254.00 194.00" xmlns="http://www.w3.org/2000/svg" xmlns:xlink="http://www.w3.org/1999/xlink">
<g id="graph0" class="graph" transform="scale(1 1) rotate(0) translate(4 190)">
<title>polyfem::quadrature::QuadQuadrature::get_quadrature</title>
<!-- Node1 -->
<g id="Node000001" class="node">
<title>Node1</title>
<g id="a_Node000001"><a xlink:title=" ">
<polygon fill="#999999" stroke="#666666" points="1246,-127 1121,-127 1121,-86 1246,-86 1246,-127"/>
<text text-anchor="start" x="1129" y="-115" font-family="Helvetica,sans-Serif" font-size="10.00">polyfem::quadrature</text>
<text text-anchor="start" x="1129" y="-104" font-family="Helvetica,sans-Serif" font-size="10.00">::QuadQuadrature::get</text>
<text text-anchor="middle" x="1183.5" y="-93" font-family="Helvetica,sans-Serif" font-size="10.00">_quadrature</text>
</a>
</g>
</g>
<!-- Node2 -->
<g id="Node000002" class="node">
<title>Node2</title>
<g id="a_Node000002"><a xlink:href="classpolyfem_1_1basis_1_1_spline_basis2d.html#af9647481c1a62ac9b81c9394ff36a2ea" target="_top" xlink:title=" ">
<polygon fill="white" stroke="#666666" points="1085,-148.5 922,-148.5 922,-118.5 1085,-118.5 1085,-148.5"/>
<text text-anchor="start" x="930" y="-136.5" font-family="Helvetica,sans-Serif" font-size="10.00">polyfem::basis::SplineBasis2d</text>
<text text-anchor="middle" x="1003.5" y="-125.5" font-family="Helvetica,sans-Serif" font-size="10.00">::build_bases</text>
</a>
</g>
</g>
<!-- Node1&#45;&gt;Node2 -->
<g id="edge1_Node000001_Node000002" class="edge">
<title>Node1&#45;&gt;Node2</title>
<g id="a_edge1_Node000001_Node000002"><a xlink:title=" ">
<path fill="none" stroke="#63b8ff" d="M1110.67,-117.4C1102.31,-118.66 1093.74,-119.96 1085.27,-121.25"/>
<polygon fill="#63b8ff" stroke="#63b8ff" points="1111.38,-120.83 1120.74,-115.87 1110.33,-113.91 1111.38,-120.83"/>
</a>
</g>
</g>
<!-- Node11 -->
<g id="Node000011" class="node">
<title>Node11</title>
<g id="a_Node000011"><a xlink:href="classpolyfem_1_1utils_1_1_boundary_sampler.html#a14b39f9323abc114920975d012d11511" target="_top" xlink:title=" ">
<polygon fill="white" stroke="#666666" points="1072,-100 935,-100 935,-59 1072,-59 1072,-100"/>
<text text-anchor="start" x="943" y="-88" font-family="Helvetica,sans-Serif" font-size="10.00">polyfem::utils::Boundary</text>
<text text-anchor="start" x="943" y="-77" font-family="Helvetica,sans-Serif" font-size="10.00">Sampler::quadrature_for</text>
<text text-anchor="middle" x="1003.5" y="-66" font-family="Helvetica,sans-Serif" font-size="10.00">_quad_face</text>
</a>
</g>
</g>
<!-- Node1&#45;&gt;Node11 -->
<g id="edge12_Node000001_Node000011" class="edge">
<title>Node1&#45;&gt;Node11</title>
<g id="a_edge12_Node000001_Node000011"><a xlink:title=" ">
<path fill="none" stroke="#63b8ff" d="M1110.69,-95.61C1097.99,-93.68 1084.81,-91.68 1072.23,-89.77"/>
<polygon fill="#63b8ff" stroke="#63b8ff" points="1110.33,-99.09 1120.74,-97.13 1111.38,-92.17 1110.33,-99.09"/>
</a>
</g>
</g>
<!-- Node3 -->
<g id="Node000003" class="node">
<title>Node3</title>
<g id="a_Node000003"><a xlink:href="classpolyfem_1_1_state.html#a75cfcf28f3bc27e8e30b41c7347c799b" target="_top" xlink:title="builds the bases step 2 of solve modifies bases, pressure_bases, geom_bases_, boundary_nodes,...">
<polygon fill="white" stroke="#666666" points="882,-148.5 763,-148.5 763,-118.5 882,-118.5 882,-148.5"/>
<text text-anchor="start" x="771" y="-136.5" font-family="Helvetica,sans-Serif" font-size="10.00">polyfem::State::build</text>
<text text-anchor="middle" x="822.5" y="-125.5" font-family="Helvetica,sans-Serif" font-size="10.00">_basis</text>
</a>
</g>
</g>
<!-- Node2&#45;&gt;Node3 -->
<g id="edge2_Node000002_Node000003" class="edge">
<title>Node2&#45;&gt;Node3</title>
<g id="a_edge2_Node000002_Node000003"><a xlink:title=" ">
<path fill="none" stroke="#63b8ff" d="M911.85,-133.5C901.78,-133.5 891.74,-133.5 882.22,-133.5"/>
<polygon fill="#63b8ff" stroke="#63b8ff" points="911.9,-137 921.9,-133.5 911.9,-130 911.9,-137"/>
</a>
</g>
</g>
<!-- Node4 -->
<g id="Node000004" class="node">
<title>Node4</title>
<g id="a_Node000004"><a xlink:href="main_8cpp.html#aec889c702a246ad7f332c75ab7adb438" target="_top" xlink:title=" ">
<polygon fill="white" stroke="#666666" points="199.5,-186 88.5,-186 88.5,-167 199.5,-167 199.5,-186"/>
<text text-anchor="middle" x="144" y="-174" font-family="Helvetica,sans-Serif" font-size="10.00">forward_simulation</text>
</a>
</g>
</g>
<!-- Node3&#45;&gt;Node4 -->
<g id="edge3_Node000003_Node000004" class="edge">
<title>Node3&#45;&gt;Node4</title>
<g id="a_edge3_Node000003_Node000004"><a xlink:title=" ">
<path fill="none" stroke="#63b8ff" d="M752.95,-148.08C742.94,-149.81 732.73,-151.37 723,-152.5 531.71,-174.79 302.7,-177.16 199.8,-176.94"/>
<polygon fill="#63b8ff" stroke="#63b8ff" points="753.64,-151.51 762.87,-146.3 752.4,-144.62 753.64,-151.51"/>
</a>
</g>
</g>
<!-- Node6 -->
<g id="Node000006" class="node">
<title>Node6</title>
<g id="a_Node000006"><a xlink:href="classpolyfem_1_1_state.html#a5ddafd77c68a90e74e41d4591f387f75" target="_top" xlink:title="Remesh the FE space and update solution(s).">
<polygon fill="white" stroke="#666666" points="723,-143 592,-143 592,-124 723,-124 723,-143"/>
<text text-anchor="middle" x="657.5" y="-131" font-family="Helvetica,sans-Serif" font-size="10.00">polyfem::State::remesh</text>
</a>
</g>
</g>
<!-- Node3&#45;&gt;Node6 -->
<g id="edge5_Node000003_Node000006" class="edge">
<title>Node3&#45;&gt;Node6</title>
<g id="a_edge5_Node000003_Node000006"><a xlink:title=" ">
<path fill="none" stroke="#63b8ff" d="M752.57,-133.5C742.78,-133.5 732.75,-133.5 723.05,-133.5"/>
<polygon fill="#63b8ff" stroke="#63b8ff" points="752.65,-137 762.65,-133.5 752.65,-130 752.65,-137"/>
</a>
</g>
</g>
<!-- Node9 -->
<g id="Node000009" class="node">
<title>Node9</title>
<g id="a_Node000009"><a xlink:href="classpolyfem_1_1_state.html#a219f9935d918f739d82488449bd4cbf4" target="_top" xlink:title="solves the problem, call other methods">
<polygon fill="white" stroke="#666666" points="204.5,-100 83.5,-100 83.5,-81 204.5,-81 204.5,-100"/>
<text text-anchor="middle" x="144" y="-88" font-family="Helvetica,sans-Serif" font-size="10.00">polyfem::State::solve</text>
</a>
</g>
</g>
<!-- Node3&#45;&gt;Node9 -->
<g id="edge11_Node000003_Node000009" class="edge">
<title>Node3&#45;&gt;Node9</title>
<g id="a_edge11_Node000003_Node000009"><a xlink:title=" ">
<path fill="none" stroke="#63b8ff" d="M752.93,-119.72C742.92,-118.07 732.72,-116.59 723,-115.5 534.61,-94.31 309.81,-90.78 204.7,-90.38"/>
<polygon fill="#63b8ff" stroke="#63b8ff" points="752.39,-123.18 762.84,-121.41 753.57,-116.28 752.39,-123.18"/>
</a>
</g>
</g>
<!-- Node5 -->
<g id="Node000005" class="node">
<title>Node5</title>
<g id="a_Node000005"><a xlink:href="main_8cpp.html#a3c04138a5bfe5d72780bb7e82a18e627" target="_top" xlink:title=" ">
<polygon fill="white" stroke="#666666" points="41,-186 0,-186 0,-167 41,-167 41,-186"/>
<text text-anchor="middle" x="20.5" y="-174" font-family="Helvetica,sans-Serif" font-size="10.00">main</text>
</a>
</g>
</g>
<!-- Node4&#45;&gt;Node5 -->
<g id="edge4_Node000004_Node000005" class="edge">
<title>Node4&#45;&gt;Node5</title>
<g id="a_edge4_Node000004_Node000005"><a xlink:title=" ">
<path fill="none" stroke="#63b8ff" d="M77.97,-176.5C64.49,-176.5 51.29,-176.5 41.05,-176.5"/>
<polygon fill="#63b8ff" stroke="#63b8ff" points="78.29,-180 88.29,-176.5 78.29,-173 78.29,-180"/>
</a>
</g>
</g>
<!-- Node7 -->
<g id="Node000007" class="node">
<title>Node7</title>
<g id="a_Node000007"><a xlink:href="classpolyfem_1_1_state.html#a4d91e8c971fc121b0cff2f0c02ca79e7" target="_top" xlink:title="solves transient tensor nonlinear problem">
<polygon fill="white" stroke="#666666" points="556,-148.5 404,-148.5 404,-118.5 556,-118.5 556,-148.5"/>
<text text-anchor="start" x="412" y="-136.5" font-family="Helvetica,sans-Serif" font-size="10.00">polyfem::State::solve</text>
<text text-anchor="middle" x="480" y="-125.5" font-family="Helvetica,sans-Serif" font-size="10.00">_transient_tensor_nonlinear</text>
</a>
</g>
</g>
<!-- Node6&#45;&gt;Node7 -->
<g id="edge6_Node000006_Node000007" class="edge">
<title>Node6&#45;&gt;Node7</title>
<g id="a_edge6_Node000006_Node000007"><a xlink:title=" ">
<path fill="none" stroke="#63b8ff" d="M581.54,-133.5C573.16,-133.5 564.63,-133.5 556.26,-133.5"/>
<polygon fill="#63b8ff" stroke="#63b8ff" points="581.65,-137 591.65,-133.5 581.65,-130 581.65,-137"/>
</a>
</g>
</g>
<!-- Node8 -->
<g id="Node000008" class="node">
<title>Node8</title>
<g id="a_Node000008"><a xlink:href="classpolyfem_1_1_state.html#a7450ef7c42dd9c523e1be73a5819117d" target="_top" xlink:title="solves the problems">
<polygon fill="white" stroke="#666666" points="368,-148.5 247,-148.5 247,-118.5 368,-118.5 368,-148.5"/>
<text text-anchor="start" x="255" y="-136.5" font-family="Helvetica,sans-Serif" font-size="10.00">polyfem::State::solve</text>
<text text-anchor="middle" x="307.5" y="-125.5" font-family="Helvetica,sans-Serif" font-size="10.00">_problem</text>
</a>
</g>
</g>
<!-- Node7&#45;&gt;Node8 -->
<g id="edge7_Node000007_Node000008" class="edge">
<title>Node7&#45;&gt;Node8</title>
<g id="a_edge7_Node000007_Node000008"><a xlink:title=" ">
<path fill="none" stroke="#63b8ff" d="M393.59,-133.5C384.95,-133.5 376.31,-133.5 368.02,-133.5"/>
<polygon fill="#63b8ff" stroke="#63b8ff" points="393.72,-137 403.72,-133.5 393.72,-130 393.72,-137"/>
</a>
</g>
</g>
<!-- Node8&#45;&gt;Node4 -->
<g id="edge8_Node000008_Node000004" class="edge">
<title>Node8&#45;&gt;Node4</title>
<g id="a_edge8_Node000008_Node000004"><a xlink:title=" ">
<path fill="none" stroke="#63b8ff" d="M240.2,-151.15C219.95,-156.55 198.44,-162.27 181.01,-166.91"/>
<polygon fill="#63b8ff" stroke="#63b8ff" points="241.25,-154.49 250.02,-148.54 239.45,-147.73 241.25,-154.49"/>
</a>
</g>
</g>
<!-- Node8&#45;&gt;Node9 -->
<g id="edge9_Node000008_Node000009" class="edge">
<title>Node8&#45;&gt;Node9</title>
<g id="a_edge9_Node000008_Node000009"><a xlink:title=" ">
<path fill="none" stroke="#63b8ff" d="M240.2,-115.85C219.95,-110.45 198.44,-104.73 181.01,-100.09"/>
<polygon fill="#63b8ff" stroke="#63b8ff" points="239.45,-119.27 250.02,-118.46 241.25,-112.51 239.45,-119.27"/>
</a>
</g>
</g>
<!-- Node10 -->
<g id="Node000010" class="node">
<title>Node10</title>
<g id="a_Node000010"><a xlink:href="structpolyfem_1_1solver_1_1_adjoint_opt_utils.html#acac3e8ce8646ddd1544ed034c71bec96" target="_top" xlink:title=" ">
<polygon fill="white" stroke="#666666" points="211,-148.5 77,-148.5 77,-118.5 211,-118.5 211,-148.5"/>
<text text-anchor="start" x="85" y="-136.5" font-family="Helvetica,sans-Serif" font-size="10.00">polyfem::solver::Adjoint</text>
<text text-anchor="middle" x="144" y="-125.5" font-family="Helvetica,sans-Serif" font-size="10.00">OptUtils::solve_pde</text>
</a>
</g>
</g>
<!-- Node8&#45;&gt;Node10 -->
<g id="edge10_Node000008_Node000010" class="edge">
<title>Node8&#45;&gt;Node10</title>
<g id="a_edge10_Node000008_Node000010"><a xlink:title=" ">
<path fill="none" stroke="#63b8ff" d="M236.64,-133.5C228.21,-133.5 219.61,-133.5 211.23,-133.5"/>
<polygon fill="#63b8ff" stroke="#63b8ff" points="236.82,-137 246.82,-133.5 236.82,-130 236.82,-137"/>
</a>
</g>
</g>
<!-- Node12 -->
<g id="Node000012" class="node">
<title>Node12</title>
<g id="a_Node000012"><a xlink:href="classpolyfem_1_1io_1_1_evaluator.html#a8a20b3ef05c1ce19dc0494739e877b7b" target="_top" xlink:title="computes integrated solution (fun) per surface face.">
<polygon fill="white" stroke="#666666" points="886,-100 759,-100 759,-59 886,-59 886,-100"/>
<text text-anchor="start" x="767" y="-88" font-family="Helvetica,sans-Serif" font-size="10.00">polyfem::io::Evaluator</text>
<text text-anchor="start" x="767" y="-77" font-family="Helvetica,sans-Serif" font-size="10.00">::interpolate_boundary</text>
<text text-anchor="middle" x="822.5" y="-66" font-family="Helvetica,sans-Serif" font-size="10.00">_function</text>
</a>
</g>
</g>
<!-- Node11&#45;&gt;Node12 -->
<g id="edge13_Node000011_Node000012" class="edge">
<title>Node11&#45;&gt;Node12</title>
<g id="a_edge13_Node000011_Node000012"><a xlink:title=" ">
<path fill="none" stroke="#63b8ff" d="M924.63,-79.5C911.8,-79.5 898.65,-79.5 886.25,-79.5"/>
<polygon fill="#63b8ff" stroke="#63b8ff" points="924.83,-83 934.83,-79.5 924.83,-76 924.83,-83"/>
</a>
</g>
</g>
<!-- Node13 -->
<g id="Node000013" class="node">
<title>Node13</title>
<g id="a_Node000013"><a xlink:href="classpolyfem_1_1io_1_1_evaluator.html#a3a1ff3d5a56e90fb2cc9f89a78466e58" target="_top" xlink:title="computes traction forces for fun (tensor * surface normal) result, stress tensor, and von mises,...">
<polygon fill="white" stroke="#666666" points="886,-41 759,-41 759,0 886,0 886,-41"/>
<text text-anchor="start" x="767" y="-29" font-family="Helvetica,sans-Serif" font-size="10.00">polyfem::io::Evaluator</text>
<text text-anchor="start" x="767" y="-18" font-family="Helvetica,sans-Serif" font-size="10.00">::interpolate_boundary</text>
<text text-anchor="middle" x="822.5" y="-7" font-family="Helvetica,sans-Serif" font-size="10.00">_tensor_function</text>
</a>
</g>
</g>
<!-- Node11&#45;&gt;Node13 -->
<g id="edge14_Node000011_Node000013" class="edge">
<title>Node11&#45;&gt;Node13</title>
<g id="a_edge14_Node000011_Node000013"><a xlink:title=" ">
<path fill="none" stroke="#63b8ff" d="M930.55,-55.78C915.78,-50.92 900.34,-45.83 885.93,-41.08"/>
<polygon fill="#63b8ff" stroke="#63b8ff" points="929.55,-59.14 940.15,-58.95 931.74,-52.49 929.55,-59.14"/>
</a>
</g>
</g>
<!-- Node14 -->
<g id="Node000014" class="node">
<title>Node14</title>
<g id="a_Node000014"><a xlink:href="classpolyfem_1_1io_1_1_evaluator.html#a4cfb1b4d4c1536ec08a47f61a2e804ce" target="_top" xlink:title="same as interpolate_boundary_tensor_function with disp=0">
<polygon fill="white" stroke="#666666" points="721,-41 594,-41 594,0 721,0 721,-41"/>
<text text-anchor="start" x="602" y="-29" font-family="Helvetica,sans-Serif" font-size="10.00">polyfem::io::Evaluator</text>
<text text-anchor="start" x="602" y="-18" font-family="Helvetica,sans-Serif" font-size="10.00">::interpolate_boundary</text>
<text text-anchor="middle" x="657.5" y="-7" font-family="Helvetica,sans-Serif" font-size="10.00">_tensor_function</text>
</a>
</g>
</g>
<!-- Node13&#45;&gt;Node14 -->
<g id="edge15_Node000013_Node000014" class="edge">
<title>Node13&#45;&gt;Node14</title>
<g id="a_edge15_Node000013_Node000014"><a xlink:title=" ">
<path fill="none" stroke="#63b8ff" d="M748.67,-20.5C739.49,-20.5 730.16,-20.5 721.16,-20.5"/>
<polygon fill="#63b8ff" stroke="#63b8ff" points="748.95,-24 758.95,-20.5 748.95,-17 748.95,-24"/>
</a>
</g>
</g>
</g>
</svg>
