<?xml version="1.0" encoding="UTF-8" standalone="no"?>
<!DOCTYPE svg PUBLIC "-//W3C//DTD SVG 1.1//EN"
 "http://www.w3.org/Graphics/SVG/1.1/DTD/svg11.dtd">
<!-- Generated by graphviz version 2.43.0 (0)
 -->
<!-- Title: polyfem::quadrature::QuadQuadrature::get_quadrature Pages: 1 -->
<svg width="1010pt" height="307pt"
 viewBox="0.00 0.00 1010.00 306.50" xmlns="http://www.w3.org/2000/svg" xmlns:xlink="http://www.w3.org/1999/xlink">
<g id="graph0" class="graph" transform="scale(1 1) rotate(0) translate(4 302.5)">
<title>polyfem::quadrature::QuadQuadrature::get_quadrature</title>
<!-- Node1 -->
<g id="Node000001" class="node">
<title>Node1</title>
<g id="a_Node000001"><a xlink:title=" ">
<polygon fill="#999999" stroke="#666666" points="1002,-129 877,-129 877,-88 1002,-88 1002,-129"/>
<text text-anchor="start" x="885" y="-117" font-family="Helvetica,sans-Serif" font-size="10.00">polyfem::quadrature</text>
<text text-anchor="start" x="885" y="-106" font-family="Helvetica,sans-Serif" font-size="10.00">::QuadQuadrature::get</text>
<text text-anchor="middle" x="939.5" y="-95" font-family="Helvetica,sans-Serif" font-size="10.00">_quadrature</text>
</a>
</g>
</g>
<!-- Node2 -->
<g id="Node000002" class="node">
<title>Node2</title>
<g id="a_Node000002"><a xlink:href="classpolyfem_1_1basis_1_1_spline_basis2d.html#af9647481c1a62ac9b81c9394ff36a2ea" target="_top" xlink:title=" ">
<polygon fill="white" stroke="#666666" points="841,-207.5 678,-207.5 678,-177.5 841,-177.5 841,-207.5"/>
<text text-anchor="start" x="686" y="-195.5" font-family="Helvetica,sans-Serif" font-size="10.00">polyfem::basis::SplineBasis2d</text>
<text text-anchor="middle" x="759.5" y="-184.5" font-family="Helvetica,sans-Serif" font-size="10.00">::build_bases</text>
</a>
</g>
</g>
<!-- Node1&#45;&gt;Node2 -->
<g id="edge1_Node000001_Node000002" class="edge">
<title>Node1&#45;&gt;Node2</title>
<g id="a_edge1_Node000001_Node000002"><a xlink:title=" ">
<path fill="none" stroke="#63b8ff" d="M900.53,-135.09C883,-146.5 861.55,-159.31 841,-168.5 833.68,-171.78 825.79,-174.75 817.91,-177.41"/>
<polygon fill="#63b8ff" stroke="#63b8ff" points="902.91,-137.71 909.32,-129.27 899.05,-131.87 902.91,-137.71"/>
</a>
</g>
</g>
<!-- Node13 -->
<g id="Node000013" class="node">
<title>Node13</title>
<g id="a_Node000013"><a xlink:href="classpolyfem_1_1utils_1_1_boundary_sampler.html#aa2fac9eaffd0c1a1b36faf5d99b15441" target="_top" xlink:title=" ">
<polygon fill="white" stroke="#666666" points="828,-159 691,-159 691,-118 828,-118 828,-159"/>
<text text-anchor="start" x="699" y="-147" font-family="Helvetica,sans-Serif" font-size="10.00">polyfem::utils::Boundary</text>
<text text-anchor="start" x="699" y="-136" font-family="Helvetica,sans-Serif" font-size="10.00">Sampler::quadrature_for</text>
<text text-anchor="middle" x="759.5" y="-125" font-family="Helvetica,sans-Serif" font-size="10.00">_prism_face</text>
</a>
</g>
</g>
<!-- Node1&#45;&gt;Node13 -->
<g id="edge13_Node000001_Node000013" class="edge">
<title>Node1&#45;&gt;Node13</title>
<g id="a_edge13_Node000001_Node000013"><a xlink:title=" ">
<path fill="none" stroke="#63b8ff" d="M866.69,-120.6C853.99,-122.74 840.81,-124.97 828.23,-127.09"/>
<polygon fill="#63b8ff" stroke="#63b8ff" points="867.46,-124.02 876.74,-118.91 866.3,-117.12 867.46,-124.02"/>
</a>
</g>
</g>
<!-- Node15 -->
<g id="Node000015" class="node">
<title>Node15</title>
<g id="a_Node000015"><a xlink:href="classpolyfem_1_1utils_1_1_boundary_sampler.html#afd8cd68b55fe99f81dbb08295e2ee338" target="_top" xlink:title=" ">
<polygon fill="white" stroke="#666666" points="828,-100 691,-100 691,-59 828,-59 828,-100"/>
<text text-anchor="start" x="699" y="-88" font-family="Helvetica,sans-Serif" font-size="10.00">polyfem::utils::Boundary</text>
<text text-anchor="start" x="699" y="-77" font-family="Helvetica,sans-Serif" font-size="10.00">Sampler::quadrature_for</text>
<text text-anchor="middle" x="759.5" y="-66" font-family="Helvetica,sans-Serif" font-size="10.00">_pyramid_face</text>
</a>
</g>
</g>
<!-- Node1&#45;&gt;Node15 -->
<g id="edge15_Node000001_Node000015" class="edge">
<title>Node1&#45;&gt;Node15</title>
<g id="a_edge15_Node000001_Node000015"><a xlink:title=" ">
<path fill="none" stroke="#63b8ff" d="M866.69,-96.8C853.99,-94.73 840.81,-92.58 828.23,-90.53"/>
<polygon fill="#63b8ff" stroke="#63b8ff" points="866.31,-100.28 876.74,-98.44 867.44,-93.38 866.31,-100.28"/>
</a>
</g>
</g>
<!-- Node16 -->
<g id="Node000016" class="node">
<title>Node16</title>
<g id="a_Node000016"><a xlink:href="classpolyfem_1_1utils_1_1_boundary_sampler.html#a14b39f9323abc114920975d012d11511" target="_top" xlink:title=" ">
<polygon fill="white" stroke="#666666" points="828,-41 691,-41 691,0 828,0 828,-41"/>
<text text-anchor="start" x="699" y="-29" font-family="Helvetica,sans-Serif" font-size="10.00">polyfem::utils::Boundary</text>
<text text-anchor="start" x="699" y="-18" font-family="Helvetica,sans-Serif" font-size="10.00">Sampler::quadrature_for</text>
<text text-anchor="middle" x="759.5" y="-7" font-family="Helvetica,sans-Serif" font-size="10.00">_quad_face</text>
</a>
</g>
</g>
<!-- Node1&#45;&gt;Node16 -->
<g id="edge17_Node000001_Node000016" class="edge">
<title>Node1&#45;&gt;Node16</title>
<g id="a_edge17_Node000001_Node000016"><a xlink:title=" ">
<path fill="none" stroke="#63b8ff" d="M899.03,-82.17C881.67,-71.23 860.77,-58.93 841,-49.5 834.83,-46.56 828.28,-43.74 821.69,-41.09"/>
<polygon fill="#63b8ff" stroke="#63b8ff" points="897.45,-85.31 907.76,-87.74 901.22,-79.41 897.45,-85.31"/>
</a>
</g>
</g>
<!-- Node3 -->
<g id="Node000003" class="node">
<title>Node3</title>
<g id="a_Node000003"><a xlink:href="classpolyfem_1_1legacy_1_1_state.html#a8f6cd02b931de4bcf55c47282248c830" target="_top" xlink:title="builds the bases step 2 of solve modifies bases, pressure_bases, geom_bases_, boundary_nodes,...">
<polygon fill="white" stroke="#666666" points="630.5,-233.5 504.5,-233.5 504.5,-203.5 630.5,-203.5 630.5,-233.5"/>
<text text-anchor="start" x="512.5" y="-221.5" font-family="Helvetica,sans-Serif" font-size="10.00">polyfem::legacy::State</text>
<text text-anchor="middle" x="567.5" y="-210.5" font-family="Helvetica,sans-Serif" font-size="10.00">::build_basis</text>
</a>
</g>
</g>
<!-- Node2&#45;&gt;Node3 -->
<g id="edge2_Node000002_Node000003" class="edge">
<title>Node2&#45;&gt;Node3</title>
<g id="a_edge2_Node000002_Node000003"><a xlink:title=" ">
<path fill="none" stroke="#63b8ff" d="M667.88,-204.9C655.31,-206.62 642.64,-208.35 630.75,-209.98"/>
<polygon fill="#63b8ff" stroke="#63b8ff" points="668.49,-208.35 677.92,-203.53 667.54,-201.41 668.49,-208.35"/>
</a>
</g>
</g>
<!-- Node7 -->
<g id="Node000007" class="node">
<title>Node7</title>
<g id="a_Node000007"><a xlink:href="classpolyfem_1_1varform_1_1_var_form.html#ac16f72b9ff477a2f02dc4ee2dd5ec777" target="_top" xlink:title=" ">
<polygon fill="white" stroke="#666666" points="642,-180.5 493,-180.5 493,-150.5 642,-150.5 642,-180.5"/>
<text text-anchor="start" x="501" y="-168.5" font-family="Helvetica,sans-Serif" font-size="10.00">polyfem::varform::VarForm</text>
<text text-anchor="middle" x="567.5" y="-157.5" font-family="Helvetica,sans-Serif" font-size="10.00">::build_fe_space</text>
</a>
</g>
</g>
<!-- Node2&#45;&gt;Node7 -->
<g id="edge6_Node000002_Node000007" class="edge">
<title>Node2&#45;&gt;Node7</title>
<g id="a_edge6_Node000002_Node000007"><a xlink:title=" ">
<path fill="none" stroke="#63b8ff" d="M667.88,-179.62C659.3,-178.4 650.66,-177.18 642.26,-175.98"/>
<polygon fill="#63b8ff" stroke="#63b8ff" points="667.53,-183.11 677.92,-181.05 668.51,-176.18 667.53,-183.11"/>
</a>
</g>
</g>
<!-- Node4 -->
<g id="Node000004" class="node">
<title>Node4</title>
<g id="a_Node000004"><a xlink:href="main_8cpp.html#a0d6fd6ed6fda5fc5e4b6ed34b45fe322" target="_top" xlink:title=" ">
<polygon fill="white" stroke="#666666" points="431.5,-298.5 320.5,-298.5 320.5,-268.5 431.5,-268.5 431.5,-298.5"/>
<text text-anchor="start" x="328.5" y="-286.5" font-family="Helvetica,sans-Serif" font-size="10.00">forward_simulation</text>
<text text-anchor="middle" x="376" y="-275.5" font-family="Helvetica,sans-Serif" font-size="10.00">_with_legacy_state</text>
</a>
</g>
</g>
<!-- Node3&#45;&gt;Node4 -->
<g id="edge3_Node000003_Node000004" class="edge">
<title>Node3&#45;&gt;Node4</title>
<g id="a_edge3_Node000003_Node000004"><a xlink:title=" ">
<path fill="none" stroke="#63b8ff" d="M518.82,-237.14C499.7,-244.41 477.41,-252.63 457,-259.5 448.07,-262.51 438.51,-265.54 429.23,-268.38"/>
<polygon fill="#63b8ff" stroke="#63b8ff" points="520.12,-240.39 528.21,-233.55 517.62,-233.85 520.12,-240.39"/>
</a>
</g>
</g>
<!-- Node5 -->
<g id="Node000005" class="node">
<title>Node5</title>
<g id="a_Node000005"><a xlink:href="main_8cpp.html#aec889c702a246ad7f332c75ab7adb438" target="_top" xlink:title=" ">
<polygon fill="white" stroke="#666666" points="223.5,-293 112.5,-293 112.5,-274 223.5,-274 223.5,-293"/>
<text text-anchor="middle" x="168" y="-281" font-family="Helvetica,sans-Serif" font-size="10.00">forward_simulation</text>
</a>
</g>
</g>
<!-- Node4&#45;&gt;Node5 -->
<g id="edge4_Node000004_Node000005" class="edge">
<title>Node4&#45;&gt;Node5</title>
<g id="a_edge4_Node000004_Node000005"><a xlink:title=" ">
<path fill="none" stroke="#63b8ff" d="M310.29,-283.5C282.42,-283.5 250.19,-283.5 223.56,-283.5"/>
<polygon fill="#63b8ff" stroke="#63b8ff" points="310.34,-287 320.34,-283.5 310.34,-280 310.34,-287"/>
</a>
</g>
</g>
<!-- Node6 -->
<g id="Node000006" class="node">
<title>Node6</title>
<g id="a_Node000006"><a xlink:href="main_8cpp.html#a3c04138a5bfe5d72780bb7e82a18e627" target="_top" xlink:title=" ">
<polygon fill="white" stroke="#666666" points="41,-293 0,-293 0,-274 41,-274 41,-293"/>
<text text-anchor="middle" x="20.5" y="-281" font-family="Helvetica,sans-Serif" font-size="10.00">main</text>
</a>
</g>
</g>
<!-- Node5&#45;&gt;Node6 -->
<g id="edge5_Node000005_Node000006" class="edge">
<title>Node5&#45;&gt;Node6</title>
<g id="a_edge5_Node000005_Node000006"><a xlink:title=" ">
<path fill="none" stroke="#63b8ff" d="M102.32,-283.5C80.13,-283.5 56.93,-283.5 41.11,-283.5"/>
<polygon fill="#63b8ff" stroke="#63b8ff" points="102.41,-287 112.41,-283.5 102.41,-280 102.41,-287"/>
</a>
</g>
</g>
<!-- Node8 -->
<g id="Node000008" class="node">
<title>Node8</title>
<g id="a_Node000008"><a xlink:href="classpolyfem_1_1varform_1_1_bilaplacian_var_form.html#a12e8547ee073254e215650ec05537700" target="_top" xlink:title=" ">
<polygon fill="white" stroke="#666666" points="457,-250.5 295,-250.5 295,-220.5 457,-220.5 457,-250.5"/>
<text text-anchor="start" x="303" y="-238.5" font-family="Helvetica,sans-Serif" font-size="10.00">polyfem::varform::Bilaplacian</text>
<text text-anchor="middle" x="376" y="-227.5" font-family="Helvetica,sans-Serif" font-size="10.00">VarForm::build_basis</text>
</a>
</g>
</g>
<!-- Node7&#45;&gt;Node8 -->
<g id="edge7_Node000007_Node000008" class="edge">
<title>Node7&#45;&gt;Node8</title>
<g id="a_edge7_Node000007_Node000008"><a xlink:title=" ">
<path fill="none" stroke="#63b8ff" d="M517.5,-184.32C509.28,-187.62 500.87,-191.09 493,-194.5 476.76,-201.53 473.52,-205.16 457,-211.5 448.74,-214.67 439.88,-217.69 431.16,-220.45"/>
<polygon fill="#63b8ff" stroke="#63b8ff" points="519.02,-187.48 527.02,-180.53 516.43,-180.98 519.02,-187.48"/>
</a>
</g>
</g>
<!-- Node9 -->
<g id="Node000009" class="node">
<title>Node9</title>
<g id="a_Node000009"><a xlink:href="classpolyfem_1_1varform_1_1_elastic_var_form.html#a0c38477ea5ba3f898623028d83e43e5c" target="_top" xlink:title=" ">
<polygon fill="white" stroke="#666666" points="446,-202.5 306,-202.5 306,-172.5 446,-172.5 446,-202.5"/>
<text text-anchor="start" x="314" y="-190.5" font-family="Helvetica,sans-Serif" font-size="10.00">polyfem::varform::Elastic</text>
<text text-anchor="middle" x="376" y="-179.5" font-family="Helvetica,sans-Serif" font-size="10.00">VarForm::build_basis</text>
</a>
</g>
</g>
<!-- Node7&#45;&gt;Node9 -->
<g id="edge8_Node000007_Node000009" class="edge">
<title>Node7&#45;&gt;Node9</title>
<g id="a_edge8_Node000007_Node000009"><a xlink:title=" ">
<path fill="none" stroke="#63b8ff" d="M482.76,-175.22C470.53,-176.64 458.05,-178.09 446.15,-179.47"/>
<polygon fill="#63b8ff" stroke="#63b8ff" points="483.43,-178.67 492.96,-174.04 482.63,-171.71 483.43,-178.67"/>
</a>
</g>
</g>
<!-- Node10 -->
<g id="Node000010" class="node">
<title>Node10</title>
<g id="a_Node000010"><a xlink:href="classpolyfem_1_1varform_1_1_incompressible_elastic_var_form.html#abebd8d3d99cd99f8c225163f3ee1525f" target="_top" xlink:title=" ">
<polygon fill="white" stroke="#666666" points="259,-181.5 77,-181.5 77,-151.5 259,-151.5 259,-181.5"/>
<text text-anchor="start" x="85" y="-169.5" font-family="Helvetica,sans-Serif" font-size="10.00">polyfem::varform::Incompressible</text>
<text text-anchor="middle" x="168" y="-158.5" font-family="Helvetica,sans-Serif" font-size="10.00">ElasticVarForm::build_basis</text>
</a>
</g>
</g>
<!-- Node7&#45;&gt;Node10 -->
<g id="edge11_Node000007_Node000010" class="edge">
<title>Node7&#45;&gt;Node10</title>
<g id="a_edge11_Node000007_Node000010"><a xlink:title=" ">
<path fill="none" stroke="#63b8ff" d="M482.71,-163.81C474.03,-163.68 465.34,-163.58 457,-163.5 385,-162.84 366.99,-162.64 295,-163.5 283.4,-163.64 271.21,-163.85 259.16,-164.09"/>
<polygon fill="#63b8ff" stroke="#63b8ff" points="482.82,-167.31 492.88,-163.97 482.93,-160.32 482.82,-167.31"/>
</a>
</g>
</g>
<!-- Node11 -->
<g id="Node000011" class="node">
<title>Node11</title>
<g id="a_Node000011"><a xlink:href="classpolyfem_1_1varform_1_1_fluid_var_form.html#a0e242692af50b262ffd84132e9974614" target="_top" xlink:title=" ">
<polygon fill="white" stroke="#666666" points="450,-116.5 302,-116.5 302,-86.5 450,-86.5 450,-116.5"/>
<text text-anchor="start" x="310" y="-104.5" font-family="Helvetica,sans-Serif" font-size="10.00">polyfem::varform::FluidVar</text>
<text text-anchor="middle" x="376" y="-93.5" font-family="Helvetica,sans-Serif" font-size="10.00">Form::build_basis</text>
</a>
</g>
</g>
<!-- Node7&#45;&gt;Node11 -->
<g id="edge10_Node000007_Node000011" class="edge">
<title>Node7&#45;&gt;Node11</title>
<g id="a_edge10_Node000007_Node000011"><a xlink:title=" ">
<path fill="none" stroke="#63b8ff" d="M512.56,-147.28C483.75,-137.55 448.71,-125.72 421.48,-116.52"/>
<polygon fill="#63b8ff" stroke="#63b8ff" points="511.48,-150.61 522.07,-150.49 513.72,-143.98 511.48,-150.61"/>
</a>
</g>
</g>
<!-- Node12 -->
<g id="Node000012" class="node">
<title>Node12</title>
<g id="a_Node000012"><a xlink:href="classpolyfem_1_1varform_1_1_scalar_var_form.html#a4b7c4555af015f3a55a7b38b56d4e93f" target="_top" xlink:title=" ">
<polygon fill="white" stroke="#666666" points="445,-68.5 307,-68.5 307,-38.5 445,-38.5 445,-68.5"/>
<text text-anchor="start" x="315" y="-56.5" font-family="Helvetica,sans-Serif" font-size="10.00">polyfem::varform::Scalar</text>
<text text-anchor="middle" x="376" y="-45.5" font-family="Helvetica,sans-Serif" font-size="10.00">VarForm::build_basis</text>
</a>
</g>
</g>
<!-- Node7&#45;&gt;Node12 -->
<g id="edge12_Node000007_Node000012" class="edge">
<title>Node7&#45;&gt;Node12</title>
<g id="a_edge12_Node000007_Node000012"><a xlink:title=" ">
<path fill="none" stroke="#63b8ff" d="M538.17,-144.07C524.41,-133.52 507.7,-120.52 493,-108.5 476.65,-95.14 475.52,-87.64 457,-77.5 450.77,-74.09 443.99,-71.1 437.11,-68.5"/>
<polygon fill="#63b8ff" stroke="#63b8ff" points="536.24,-147 546.32,-150.29 540.49,-141.44 536.24,-147"/>
</a>
</g>
</g>
<!-- Node9&#45;&gt;Node10 -->
<g id="edge9_Node000009_Node000010" class="edge">
<title>Node9&#45;&gt;Node10</title>
<g id="a_edge9_Node000009_Node000010"><a xlink:title=" ">
<path fill="none" stroke="#63b8ff" d="M295.88,-179.43C283.88,-178.21 271.42,-176.94 259.2,-175.7"/>
<polygon fill="#63b8ff" stroke="#63b8ff" points="295.53,-182.92 305.83,-180.45 296.24,-175.95 295.53,-182.92"/>
</a>
</g>
</g>
<!-- Node14 -->
<g id="Node000014" class="node">
<title>Node14</title>
<g id="a_Node000014"><a xlink:href="classpolyfem_1_1io_1_1_evaluator.html#a8a20b3ef05c1ce19dc0494739e877b7b" target="_top" xlink:title="computes integrated solution (fun) per surface face.">
<polygon fill="white" stroke="#666666" points="631,-100 504,-100 504,-59 631,-59 631,-100"/>
<text text-anchor="start" x="512" y="-88" font-family="Helvetica,sans-Serif" font-size="10.00">polyfem::io::Evaluator</text>
<text text-anchor="start" x="512" y="-77" font-family="Helvetica,sans-Serif" font-size="10.00">::interpolate_boundary</text>
<text text-anchor="middle" x="567.5" y="-66" font-family="Helvetica,sans-Serif" font-size="10.00">_function</text>
</a>
</g>
</g>
<!-- Node13&#45;&gt;Node14 -->
<g id="edge14_Node000013_Node000014" class="edge">
<title>Node13&#45;&gt;Node14</title>
<g id="a_edge14_Node000013_Node000014"><a xlink:title=" ">
<path fill="none" stroke="#63b8ff" d="M682.43,-114.88C665.45,-109.61 647.63,-104.07 631.26,-98.99"/>
<polygon fill="#63b8ff" stroke="#63b8ff" points="681.73,-118.32 692.31,-117.95 683.8,-111.64 681.73,-118.32"/>
</a>
</g>
</g>
<!-- Node15&#45;&gt;Node14 -->
<g id="edge16_Node000015_Node000014" class="edge">
<title>Node15&#45;&gt;Node14</title>
<g id="a_edge16_Node000015_Node000014"><a xlink:title=" ">
<path fill="none" stroke="#63b8ff" d="M680.78,-79.5C664.23,-79.5 646.95,-79.5 631.04,-79.5"/>
<polygon fill="#63b8ff" stroke="#63b8ff" points="680.98,-83 690.98,-79.5 680.98,-76 680.98,-83"/>
</a>
</g>
</g>
<!-- Node16&#45;&gt;Node14 -->
<g id="edge18_Node000016_Node000014" class="edge">
<title>Node16&#45;&gt;Node14</title>
<g id="a_edge18_Node000016_Node000014"><a xlink:title=" ">
<path fill="none" stroke="#63b8ff" d="M682.43,-44.12C665.45,-49.39 647.63,-54.93 631.26,-60.01"/>
<polygon fill="#63b8ff" stroke="#63b8ff" points="683.8,-47.36 692.31,-41.05 681.73,-40.68 683.8,-47.36"/>
</a>
</g>
</g>
</g>
</svg>
