<?xml version="1.0" encoding="UTF-8" standalone="no"?>
<!DOCTYPE svg PUBLIC "-//W3C//DTD SVG 1.1//EN"
 "http://www.w3.org/Graphics/SVG/1.1/DTD/svg11.dtd">
<!-- Generated by graphviz version 2.43.0 (0)
 -->
<!-- Title: polyfem::assembler::MultiModel Pages: 1 -->
<svg width="1099pt" height="581pt"
 viewBox="0.00 0.00 1099.00 580.99" xmlns="http://www.w3.org/2000/svg" xmlns:xlink="http://www.w3.org/1999/xlink">
<g id="graph0" class="graph" transform="scale(1 1) rotate(0) translate(4 576.99)">
<title>polyfem::assembler::MultiModel</title>
<!-- Node1 -->
<g id="node1" class="node">
<title>Node1</title>
<g id="a_node1"><a xlink:title=" ">
<polygon fill="#999999" stroke="#666666" points="1091,-271.99 977,-271.99 977,-241.99 1091,-241.99 1091,-271.99"/>
<text text-anchor="start" x="985" y="-259.99" font-family="Helvetica,sans-Serif" font-size="10.00">polyfem::assembler</text>
<text text-anchor="middle" x="1034" y="-248.99" font-family="Helvetica,sans-Serif" font-size="10.00">::MultiModel</text>
</a>
</g>
</g>
<!-- Node2 -->
<g id="node2" class="node">
<title>Node2</title>
<g id="a_node2"><a xlink:href="classpolyfem_1_1assembler_1_1_n_l_assembler.html" target="_top" xlink:title=" ">
<polygon fill="white" stroke="#666666" points="267.5,-280.99 153.5,-280.99 153.5,-250.99 267.5,-250.99 267.5,-280.99"/>
<text text-anchor="start" x="161.5" y="-268.99" font-family="Helvetica,sans-Serif" font-size="10.00">polyfem::assembler</text>
<text text-anchor="middle" x="210.5" y="-257.99" font-family="Helvetica,sans-Serif" font-size="10.00">::NLAssembler</text>
</a>
</g>
</g>
<!-- Node2&#45;&gt;Node1 -->
<g id="edge1" class="edge">
<title>Node2&#45;&gt;Node1</title>
<path fill="none" stroke="#63b8ff" d="M228.97,-289.32C243.69,-308.26 265.85,-335.16 288,-355.99 331.7,-397.11 340.18,-414.98 396,-436.99 457.55,-461.26 477.93,-449.43 544,-452.99 731.32,-463.09 806.24,-484.87 959,-375.99 996.25,-349.45 1018.7,-297.71 1027.99,-272.1"/>
<polygon fill="#63b8ff" stroke="#63b8ff" points="231.62,-287.02 222.75,-281.22 226.07,-291.29 231.62,-287.02"/>
</g>
<!-- Node5 -->
<g id="node5" class="node">
<title>Node5</title>
<g id="a_node5"><a xlink:href="classpolyfem_1_1assembler_1_1_saint_venant_elasticity.html" target="_top" xlink:title=" ">
<polygon fill="white" stroke="#666666" points="524,-538.99 398,-538.99 398,-508.99 524,-508.99 524,-538.99"/>
<text text-anchor="start" x="406" y="-526.99" font-family="Helvetica,sans-Serif" font-size="10.00">polyfem::assembler</text>
<text text-anchor="middle" x="461" y="-515.99" font-family="Helvetica,sans-Serif" font-size="10.00">::SaintVenantElasticity</text>
</a>
</g>
</g>
<!-- Node2&#45;&gt;Node5 -->
<g id="edge6" class="edge">
<title>Node2&#45;&gt;Node5</title>
<path fill="none" stroke="#63b8ff" d="M222.63,-290.43C235.6,-319.73 256.92,-370.58 270,-415.99 281.78,-456.87 256.34,-481.58 288,-509.99 317.21,-536.21 361.56,-539.26 397.92,-535.99"/>
<polygon fill="#63b8ff" stroke="#63b8ff" points="225.69,-288.71 218.42,-281.01 219.3,-291.56 225.69,-288.71"/>
</g>
<!-- Node7 -->
<g id="node7" class="node">
<title>Node7</title>
<g id="a_node7"><a xlink:href="classpolyfem_1_1assembler_1_1_neo_hookean_elasticity.html" target="_top" xlink:title=" ">
<polygon fill="white" stroke="#666666" points="526,-185.99 396,-185.99 396,-155.99 526,-155.99 526,-185.99"/>
<text text-anchor="start" x="404" y="-173.99" font-family="Helvetica,sans-Serif" font-size="10.00">polyfem::assembler</text>
<text text-anchor="middle" x="461" y="-162.99" font-family="Helvetica,sans-Serif" font-size="10.00">::NeoHookeanElasticity</text>
</a>
</g>
</g>
<!-- Node2&#45;&gt;Node7 -->
<g id="edge10" class="edge">
<title>Node2&#45;&gt;Node7</title>
<path fill="none" stroke="#63b8ff" d="M260.5,-247.26C307.32,-229.36 376.99,-202.73 420.4,-186.13"/>
<polygon fill="#63b8ff" stroke="#63b8ff" points="258.97,-244.1 250.88,-250.94 261.47,-250.64 258.97,-244.1"/>
</g>
<!-- Node9 -->
<g id="node9" class="node">
<title>Node9</title>
<g id="a_node9"><a xlink:href="classpolyfem_1_1assembler_1_1_linear_elasticity.html" target="_top" xlink:title=" ">
<polygon fill="white" stroke="#666666" points="518,-87.99 404,-87.99 404,-57.99 518,-57.99 518,-87.99"/>
<text text-anchor="start" x="412" y="-75.99" font-family="Helvetica,sans-Serif" font-size="10.00">polyfem::assembler</text>
<text text-anchor="middle" x="461" y="-64.99" font-family="Helvetica,sans-Serif" font-size="10.00">::LinearElasticity</text>
</a>
</g>
</g>
<!-- Node2&#45;&gt;Node9 -->
<g id="edge16" class="edge">
<title>Node2&#45;&gt;Node9</title>
<path fill="none" stroke="#8b1a1a" d="M248.57,-245.32C256.12,-240.2 263.68,-234.35 270,-227.99 280.44,-217.51 277.88,-210.79 288,-199.99 332.93,-152.06 397.95,-109.7 433.81,-88.12"/>
<polygon fill="#8b1a1a" stroke="#8b1a1a" points="246.3,-242.62 239.78,-250.97 250.08,-248.51 246.3,-242.62"/>
</g>
<!-- Node11 -->
<g id="node11" class="node">
<title>Node11</title>
<g id="a_node11"><a xlink:href="classpolyfem_1_1assembler_1_1_hooke_linear_elasticity.html" target="_top" xlink:title=" ">
<polygon fill="white" stroke="#666666" points="525,-242.99 397,-242.99 397,-212.99 525,-212.99 525,-242.99"/>
<text text-anchor="start" x="405" y="-230.99" font-family="Helvetica,sans-Serif" font-size="10.00">polyfem::assembler</text>
<text text-anchor="middle" x="461" y="-219.99" font-family="Helvetica,sans-Serif" font-size="10.00">::HookeLinearElasticity</text>
</a>
</g>
</g>
<!-- Node2&#45;&gt;Node11 -->
<g id="edge21" class="edge">
<title>Node2&#45;&gt;Node11</title>
<path fill="none" stroke="#8b1a1a" d="M277.73,-255.86C314.61,-250.22 360.29,-243.24 396.69,-237.67"/>
<polygon fill="#8b1a1a" stroke="#8b1a1a" points="276.93,-252.45 267.58,-257.42 277.99,-259.37 276.93,-252.45"/>
</g>
<!-- Node13 -->
<g id="node13" class="node">
<title>Node13</title>
<g id="a_node13"><a xlink:href="classpolyfem_1_1assembler_1_1_generic_elastic.html" target="_top" xlink:title=" ">
<polygon fill="white" stroke="#666666" points="518,-352.99 404,-352.99 404,-322.99 518,-322.99 518,-352.99"/>
<text text-anchor="start" x="412" y="-340.99" font-family="Helvetica,sans-Serif" font-size="10.00">polyfem::assembler</text>
<text text-anchor="middle" x="461" y="-329.99" font-family="Helvetica,sans-Serif" font-size="10.00">::GenericElastic</text>
</a>
</g>
</g>
<!-- Node2&#45;&gt;Node13 -->
<g id="edge26" class="edge">
<title>Node2&#45;&gt;Node13</title>
<path fill="none" stroke="#63b8ff" d="M229.04,-289.32C242.98,-305.78 264.05,-326.53 288,-335.99 324.66,-350.48 369.24,-350.56 403.83,-347.24"/>
<polygon fill="#63b8ff" stroke="#63b8ff" points="231.46,-286.73 222.43,-281.18 226.02,-291.15 231.46,-286.73"/>
</g>
<!-- Node3 -->
<g id="node3" class="node">
<title>Node3</title>
<g id="a_node3"><a xlink:href="classpolyfem_1_1assembler_1_1_assembler.html" target="_top" xlink:title=" ">
<polygon fill="white" stroke="#666666" points="114,-218.99 0,-218.99 0,-188.99 114,-188.99 114,-218.99"/>
<text text-anchor="start" x="8" y="-206.99" font-family="Helvetica,sans-Serif" font-size="10.00">polyfem::assembler</text>
<text text-anchor="middle" x="57" y="-195.99" font-family="Helvetica,sans-Serif" font-size="10.00">::Assembler</text>
</a>
</g>
</g>
<!-- Node3&#45;&gt;Node2 -->
<g id="edge2" class="edge">
<title>Node3&#45;&gt;Node2</title>
<path fill="none" stroke="#63b8ff" d="M104.14,-222.87C126.1,-231.86 152.01,-242.47 172.64,-250.91"/>
<polygon fill="#63b8ff" stroke="#63b8ff" points="105.25,-219.55 94.67,-219 102.6,-226.03 105.25,-219.55"/>
</g>
<!-- Node4 -->
<g id="node4" class="node">
<title>Node4</title>
<g id="a_node4"><a xlink:href="classpolyfem_1_1assembler_1_1_elasticity_assembler.html" target="_top" xlink:title=" ">
<polygon fill="white" stroke="#666666" points="270,-218.99 151,-218.99 151,-188.99 270,-188.99 270,-218.99"/>
<text text-anchor="start" x="159" y="-206.99" font-family="Helvetica,sans-Serif" font-size="10.00">polyfem::assembler</text>
<text text-anchor="middle" x="210.5" y="-195.99" font-family="Helvetica,sans-Serif" font-size="10.00">::ElasticityAssembler</text>
</a>
</g>
</g>
<!-- Node3&#45;&gt;Node4 -->
<g id="edge4" class="edge">
<title>Node3&#45;&gt;Node4</title>
<path fill="none" stroke="#63b8ff" d="M124.55,-203.99C133.28,-203.99 142.17,-203.99 150.76,-203.99"/>
<polygon fill="#63b8ff" stroke="#63b8ff" points="124.41,-200.49 114.41,-203.99 124.41,-207.49 124.41,-200.49"/>
</g>
<!-- Node10 -->
<g id="node10" class="node">
<title>Node10</title>
<g id="a_node10"><a xlink:href="classpolyfem_1_1assembler_1_1_linear_assembler.html" target="_top" xlink:title=" ">
<polygon fill="white" stroke="#666666" points="267.5,-155.99 153.5,-155.99 153.5,-125.99 267.5,-125.99 267.5,-155.99"/>
<text text-anchor="start" x="161.5" y="-143.99" font-family="Helvetica,sans-Serif" font-size="10.00">polyfem::assembler</text>
<text text-anchor="middle" x="210.5" y="-132.99" font-family="Helvetica,sans-Serif" font-size="10.00">::LinearAssembler</text>
</a>
</g>
</g>
<!-- Node3&#45;&gt;Node10 -->
<g id="edge15" class="edge">
<title>Node3&#45;&gt;Node10</title>
<path fill="none" stroke="#63b8ff" d="M103.56,-185.05C125.86,-175.77 152.34,-164.76 173.25,-156.07"/>
<polygon fill="#63b8ff" stroke="#63b8ff" points="102.18,-181.83 94.29,-188.9 104.87,-188.29 102.18,-181.83"/>
</g>
<!-- Node4&#45;&gt;Node1 -->
<g id="edge3" class="edge">
<title>Node4&#45;&gt;Node1</title>
<path fill="none" stroke="#8b1a1a" d="M257.26,-185.36C294.03,-171.49 347.39,-153.83 396,-146.99 644.32,-112.06 733.59,-74.11 959,-183.99 986.25,-197.28 1009.61,-224.56 1022.44,-241.75"/>
<polygon fill="#8b1a1a" stroke="#8b1a1a" points="255.9,-182.13 247.81,-188.98 258.4,-188.67 255.9,-182.13"/>
</g>
<!-- Node4&#45;&gt;Node5 -->
<g id="edge7" class="edge">
<title>Node4&#45;&gt;Node5</title>
<path fill="none" stroke="#8b1a1a" d="M253.36,-224.75C259.79,-229.6 265.71,-235.34 270,-241.99 298.76,-286.57 263.49,-312.94 288,-359.99 323.36,-427.87 397.79,-483.49 436.1,-508.97"/>
<polygon fill="#8b1a1a" stroke="#8b1a1a" points="255.26,-221.81 245.02,-219.08 251.32,-227.6 255.26,-221.81"/>
</g>
<!-- Node4&#45;&gt;Node7 -->
<g id="edge11" class="edge">
<title>Node4&#45;&gt;Node7</title>
<path fill="none" stroke="#63b8ff" d="M280.04,-194.89C316.17,-190.09 360.23,-184.24 395.71,-179.53"/>
<polygon fill="#63b8ff" stroke="#63b8ff" points="279.53,-191.43 270.08,-196.21 280.45,-198.37 279.53,-191.43"/>
</g>
<!-- Node4&#45;&gt;Node9 -->
<g id="edge17" class="edge">
<title>Node4&#45;&gt;Node9</title>
<path fill="none" stroke="#8b1a1a" d="M250.87,-183.28C258.02,-178.09 264.83,-171.97 270,-164.99 286.56,-142.61 267.28,-123.59 288,-104.99 304.84,-89.87 360.34,-81.51 403.8,-77.17"/>
<polygon fill="#8b1a1a" stroke="#8b1a1a" points="248.77,-180.47 242.41,-188.94 252.67,-186.29 248.77,-180.47"/>
</g>
<!-- Node4&#45;&gt;Node11 -->
<g id="edge22" class="edge">
<title>Node4&#45;&gt;Node11</title>
<path fill="none" stroke="#8b1a1a" d="M280.12,-210.62C316.54,-214.14 360.99,-218.43 396.59,-221.87"/>
<polygon fill="#8b1a1a" stroke="#8b1a1a" points="280.37,-207.13 270.08,-209.65 279.69,-214.09 280.37,-207.13"/>
</g>
<!-- Node4&#45;&gt;Node13 -->
<g id="edge27" class="edge">
<title>Node4&#45;&gt;Node13</title>
<path fill="none" stroke="#63b8ff" d="M248.42,-223.9C298.57,-250.94 387.1,-298.68 432.08,-322.94"/>
<polygon fill="#63b8ff" stroke="#63b8ff" points="249.99,-220.77 239.52,-219.1 246.66,-226.93 249.99,-220.77"/>
</g>
<!-- Node5&#45;&gt;Node1 -->
<g id="edge5" class="edge">
<title>Node5&#45;&gt;Node1</title>
<path fill="none" stroke="#9a32cd" stroke-dasharray="5,2" d="M528.74,-541.25C632.63,-563.85 834.06,-589.97 959,-491.99 1029.35,-436.83 1034.15,-315.1 1033.55,-272.27"/>
<polygon fill="#9a32cd" stroke="#9a32cd" points="529.21,-537.77 518.69,-539.01 527.69,-544.61 529.21,-537.77"/>
<text text-anchor="middle" x="725.5" y="-564.99" font-family="Helvetica,sans-Serif" font-size="10.00"> saint_venant_</text>
</g>
<!-- Node6 -->
<g id="node6" class="node">
<title>Node6</title>
<g id="a_node6"><a xlink:href="classpolyfem_1_1assembler_1_1_elasticity_tensor.html" target="_top" xlink:title=" ">
<polygon fill="white" stroke="#666666" points="267.5,-454.99 153.5,-454.99 153.5,-424.99 267.5,-424.99 267.5,-454.99"/>
<text text-anchor="start" x="161.5" y="-442.99" font-family="Helvetica,sans-Serif" font-size="10.00">polyfem::assembler</text>
<text text-anchor="middle" x="210.5" y="-431.99" font-family="Helvetica,sans-Serif" font-size="10.00">::ElasticityTensor</text>
</a>
</g>
</g>
<!-- Node6&#45;&gt;Node5 -->
<g id="edge8" class="edge">
<title>Node6&#45;&gt;Node5</title>
<path fill="none" stroke="#9a32cd" stroke-dasharray="5,2" d="M222.99,-464.2C235.41,-487.23 257.58,-520.43 288,-534.99 327,-553.66 376.77,-547.75 412.73,-539.06"/>
<polygon fill="#9a32cd" stroke="#9a32cd" points="225.96,-462.33 218.27,-455.05 219.74,-465.54 225.96,-462.33"/>
<text text-anchor="middle" x="333" y="-549.99" font-family="Helvetica,sans-Serif" font-size="10.00"> elasticity_tensor_</text>
</g>
<!-- Node6&#45;&gt;Node11 -->
<g id="edge23" class="edge">
<title>Node6&#45;&gt;Node11</title>
<path fill="none" stroke="#9a32cd" stroke-dasharray="5,2" d="M228.7,-416.75C258.68,-377.73 324.19,-298.71 396,-251.99 401.17,-248.63 406.88,-245.64 412.7,-243.01"/>
<polygon fill="#9a32cd" stroke="#9a32cd" points="225.78,-414.81 222.52,-424.89 231.36,-419.04 225.78,-414.81"/>
<text text-anchor="middle" x="333" y="-347.99" font-family="Helvetica,sans-Serif" font-size="10.00"> elasticity_tensor_</text>
</g>
<!-- Node7&#45;&gt;Node1 -->
<g id="edge9" class="edge">
<title>Node7&#45;&gt;Node1</title>
<path fill="none" stroke="#9a32cd" stroke-dasharray="5,2" d="M536.52,-168.01C635.68,-166.35 815.21,-171.39 959,-219.99 975.74,-225.65 993.47,-234.41 1007.39,-241.99"/>
<polygon fill="#9a32cd" stroke="#9a32cd" points="536.23,-164.52 526.3,-168.22 536.36,-171.52 536.23,-164.52"/>
<text text-anchor="middle" x="725.5" y="-187.99" font-family="Helvetica,sans-Serif" font-size="10.00"> neo_hookean_</text>
</g>
<!-- Node8 -->
<g id="node8" class="node">
<title>Node8</title>
<g id="a_node8"><a xlink:href="classpolyfem_1_1assembler_1_1_lame_parameters.html" target="_top" xlink:title=" ">
<polygon fill="white" stroke="#666666" points="267.5,-50.99 153.5,-50.99 153.5,-20.99 267.5,-20.99 267.5,-50.99"/>
<text text-anchor="start" x="161.5" y="-38.99" font-family="Helvetica,sans-Serif" font-size="10.00">polyfem::assembler</text>
<text text-anchor="middle" x="210.5" y="-27.99" font-family="Helvetica,sans-Serif" font-size="10.00">::LameParameters</text>
</a>
</g>
</g>
<!-- Node8&#45;&gt;Node7 -->
<g id="edge12" class="edge">
<title>Node8&#45;&gt;Node7</title>
<path fill="none" stroke="#9a32cd" stroke-dasharray="5,2" d="M248.42,-56.05C298.57,-83.29 387.1,-131.39 432.08,-155.82"/>
<polygon fill="#9a32cd" stroke="#9a32cd" points="249.98,-52.91 239.52,-51.22 246.64,-59.07 249.98,-52.91"/>
<text text-anchor="middle" x="333" y="-126.99" font-family="Helvetica,sans-Serif" font-size="10.00"> params_</text>
</g>
<!-- Node8&#45;&gt;Node9 -->
<g id="edge18" class="edge">
<title>Node8&#45;&gt;Node9</title>
<path fill="none" stroke="#9a32cd" stroke-dasharray="5,2" d="M253.6,-17.13C287.86,-4.49 337.07,7.43 378,-6.99 406.44,-17.02 432.28,-41.54 447.06,-57.7"/>
<polygon fill="#9a32cd" stroke="#9a32cd" points="251.98,-14 243.91,-20.87 254.5,-20.53 251.98,-14"/>
<text text-anchor="middle" x="333" y="-9.99" font-family="Helvetica,sans-Serif" font-size="10.00"> params_</text>
</g>
<!-- Node9&#45;&gt;Node1 -->
<g id="edge13" class="edge">
<title>Node9&#45;&gt;Node1</title>
<path fill="none" stroke="#9a32cd" stroke-dasharray="5,2" d="M528.09,-56.99C630.26,-36.28 828.35,-12.61 959,-101.99 1007.73,-135.33 1025.35,-209.82 1030.83,-241.86"/>
<polygon fill="#9a32cd" stroke="#9a32cd" points="527.29,-53.58 518.21,-59.04 528.72,-60.43 527.29,-53.58"/>
<text text-anchor="middle" x="725.5" y="-48.99" font-family="Helvetica,sans-Serif" font-size="10.00"> linear_elasticity_</text>
</g>
<!-- Node10&#45;&gt;Node9 -->
<g id="edge14" class="edge">
<title>Node10&#45;&gt;Node9</title>
<path fill="none" stroke="#63b8ff" d="M226.94,-117.43C244.26,-91.85 272.02,-53.64 288,-45.99 333.94,-24 393.92,-42.66 429.56,-57.98"/>
<polygon fill="#63b8ff" stroke="#63b8ff" points="223.94,-115.61 221.28,-125.87 229.76,-119.51 223.94,-115.61"/>
</g>
<!-- Node10&#45;&gt;Node11 -->
<g id="edge20" class="edge">
<title>Node10&#45;&gt;Node11</title>
<path fill="none" stroke="#63b8ff" d="M264.19,-159.44C309.72,-175.38 374.7,-198.13 417.11,-212.98"/>
<polygon fill="#63b8ff" stroke="#63b8ff" points="265.1,-156.05 254.5,-156.05 262.78,-162.66 265.1,-156.05"/>
</g>
<!-- Node11&#45;&gt;Node1 -->
<g id="edge19" class="edge">
<title>Node11&#45;&gt;Node1</title>
<path fill="none" stroke="#9a32cd" stroke-dasharray="5,2" d="M522.21,-210.75C529.5,-209.21 536.88,-207.89 544,-206.99 577.95,-202.71 586.8,-205.65 621,-206.99 706.08,-210.33 727.44,-211.99 812,-221.99 868.32,-228.65 932.28,-239.1 976.85,-246.85"/>
<polygon fill="#9a32cd" stroke="#9a32cd" points="521.34,-207.36 512.36,-212.99 522.88,-214.19 521.34,-207.36"/>
<text text-anchor="middle" x="725.5" y="-224.99" font-family="Helvetica,sans-Serif" font-size="10.00"> hooke_</text>
</g>
<!-- Node12 -->
<g id="node12" class="node">
<title>Node12</title>
<g id="a_node12"><a xlink:href="classpolyfem_1_1assembler_1_1_mooney_rivlin_elasticity.html" target="_top" xlink:title=" ">
<polygon fill="white" stroke="#666666" points="792.5,-377.99 658.5,-377.99 658.5,-347.99 792.5,-347.99 792.5,-377.99"/>
<text text-anchor="start" x="666.5" y="-365.99" font-family="Helvetica,sans-Serif" font-size="10.00">polyfem::assembler</text>
<text text-anchor="middle" x="725.5" y="-354.99" font-family="Helvetica,sans-Serif" font-size="10.00">::MooneyRivlinElasticity</text>
</a>
</g>
</g>
<!-- Node12&#45;&gt;Node1 -->
<g id="edge24" class="edge">
<title>Node12&#45;&gt;Node1</title>
<path fill="none" stroke="#9a32cd" stroke-dasharray="5,2" d="M802.75,-363.59C849.93,-361.18 910.52,-352.92 959,-328.99 985.84,-315.74 1009.16,-289.14 1022.12,-272.24"/>
<polygon fill="#9a32cd" stroke="#9a32cd" points="802.44,-360.1 792.6,-364.03 802.74,-367.1 802.44,-360.1"/>
<text text-anchor="middle" x="894.5" y="-363.99" font-family="Helvetica,sans-Serif" font-size="10.00"> mooney_rivlin_elasticity_</text>
</g>
<!-- Node13&#45;&gt;Node12 -->
<g id="edge25" class="edge">
<title>Node13&#45;&gt;Node12</title>
<path fill="none" stroke="#63b8ff" d="M528.49,-347.23C533.73,-347.86 538.95,-348.46 544,-348.99 581.82,-352.99 624.21,-356.34 658.41,-358.76"/>
<polygon fill="#63b8ff" stroke="#63b8ff" points="528.77,-343.74 518.41,-345.98 527.91,-350.69 528.77,-343.74"/>
</g>
<!-- Node15 -->
<g id="node15" class="node">
<title>Node15</title>
<g id="a_node15"><a xlink:href="classpolyfem_1_1assembler_1_1_unconstrained_ogden_elasticity.html" target="_top" xlink:title=" ">
<polygon fill="white" stroke="#666666" points="810.5,-271.99 640.5,-271.99 640.5,-241.99 810.5,-241.99 810.5,-271.99"/>
<text text-anchor="start" x="648.5" y="-259.99" font-family="Helvetica,sans-Serif" font-size="10.00">polyfem::assembler</text>
<text text-anchor="middle" x="725.5" y="-248.99" font-family="Helvetica,sans-Serif" font-size="10.00">::UnconstrainedOgdenElasticity</text>
</a>
</g>
</g>
<!-- Node13&#45;&gt;Node15 -->
<g id="edge30" class="edge">
<title>Node13&#45;&gt;Node15</title>
<path fill="none" stroke="#63b8ff" d="M528.34,-325.86C557.34,-319.51 591.41,-310.6 621,-298.99 629.52,-295.65 630.69,-292.83 639,-288.99 652.24,-282.88 667,-277.03 680.49,-272.04"/>
<polygon fill="#63b8ff" stroke="#63b8ff" points="527.36,-322.49 518.31,-328 528.82,-329.33 527.36,-322.49"/>
</g>
<!-- Node17 -->
<g id="node17" class="node">
<title>Node17</title>
<g id="a_node17"><a xlink:href="classpolyfem_1_1assembler_1_1_incompressible_ogden_elasticity.html" target="_top" xlink:title=" ">
<polygon fill="white" stroke="#666666" points="812,-327.99 639,-327.99 639,-297.99 812,-297.99 812,-327.99"/>
<text text-anchor="start" x="647" y="-315.99" font-family="Helvetica,sans-Serif" font-size="10.00">polyfem::assembler</text>
<text text-anchor="middle" x="725.5" y="-304.99" font-family="Helvetica,sans-Serif" font-size="10.00">::IncompressibleOgdenElasticity</text>
</a>
</g>
</g>
<!-- Node13&#45;&gt;Node17 -->
<g id="edge33" class="edge">
<title>Node13&#45;&gt;Node17</title>
<path fill="none" stroke="#63b8ff" d="M528.56,-332.4C557.04,-329.94 590.66,-326.94 621,-323.99 626.85,-323.42 632.87,-322.82 638.95,-322.21"/>
<polygon fill="#63b8ff" stroke="#63b8ff" points="527.98,-328.94 518.32,-333.28 528.58,-335.91 527.98,-328.94"/>
</g>
<!-- Node14 -->
<g id="node14" class="node">
<title>Node14</title>
<g id="a_node14"><a xlink:href="classpolyfem_1_1assembler_1_1_generic_mat_param.html" target="_top" xlink:title=" ">
<polygon fill="white" stroke="#666666" points="518,-427.99 404,-427.99 404,-397.99 518,-397.99 518,-427.99"/>
<text text-anchor="start" x="412" y="-415.99" font-family="Helvetica,sans-Serif" font-size="10.00">polyfem::assembler</text>
<text text-anchor="middle" x="461" y="-404.99" font-family="Helvetica,sans-Serif" font-size="10.00">::GenericMatParam</text>
</a>
</g>
</g>
<!-- Node14&#45;&gt;Node12 -->
<g id="edge28" class="edge">
<title>Node14&#45;&gt;Node12</title>
<path fill="none" stroke="#9a32cd" stroke-dasharray="5,2" d="M528.55,-416.46C557.29,-416.53 591.12,-414.7 621,-407.99 648.15,-401.9 677.02,-388.72 697.36,-378.19"/>
<polygon fill="#9a32cd" stroke="#9a32cd" points="528.24,-412.96 518.2,-416.35 528.17,-419.96 528.24,-412.96"/>
<text text-anchor="middle" x="582.5" y="-440.99" font-family="Helvetica,sans-Serif" font-size="10.00"> c1_</text>
<text text-anchor="middle" x="582.5" y="-429.99" font-family="Helvetica,sans-Serif" font-size="10.00">c2_</text>
<text text-anchor="middle" x="582.5" y="-418.99" font-family="Helvetica,sans-Serif" font-size="10.00">k_</text>
</g>
<!-- Node14&#45;&gt;Node17 -->
<g id="edge35" class="edge">
<title>Node14&#45;&gt;Node17</title>
<path fill="none" stroke="#9a32cd" stroke-dasharray="5,2" d="M504.78,-393.68C540.33,-377.98 592.45,-355.75 639,-338.99 649.51,-335.21 660.87,-331.5 671.77,-328.11"/>
<polygon fill="#9a32cd" stroke="#9a32cd" points="502.93,-390.67 495.21,-397.93 505.77,-397.07 502.93,-390.67"/>
<text text-anchor="middle" x="582.5" y="-377.99" font-family="Helvetica,sans-Serif" font-size="10.00"> bulk_modulus_</text>
</g>
<!-- Node15&#45;&gt;Node1 -->
<g id="edge29" class="edge">
<title>Node15&#45;&gt;Node1</title>
<path fill="none" stroke="#9a32cd" stroke-dasharray="5,2" d="M820.71,-256.99C871.72,-256.99 933.03,-256.99 976.62,-256.99"/>
<polygon fill="#9a32cd" stroke="#9a32cd" points="820.66,-253.49 810.66,-256.99 820.66,-260.49 820.66,-253.49"/>
<text text-anchor="start" x="840.5" y="-270.99" font-family="Helvetica,sans-Serif" font-size="10.00"> unconstrained_ogden</text>
<text text-anchor="middle" x="894.5" y="-259.99" font-family="Helvetica,sans-Serif" font-size="10.00">_elasticity_</text>
</g>
<!-- Node16 -->
<g id="node16" class="node">
<title>Node16</title>
<g id="a_node16"><a xlink:href="classpolyfem_1_1assembler_1_1_generic_mat_params.html" target="_top" xlink:title=" ">
<polygon fill="white" stroke="#666666" points="518.5,-290.99 403.5,-290.99 403.5,-260.99 518.5,-260.99 518.5,-290.99"/>
<text text-anchor="start" x="411.5" y="-278.99" font-family="Helvetica,sans-Serif" font-size="10.00">polyfem::assembler</text>
<text text-anchor="middle" x="461" y="-267.99" font-family="Helvetica,sans-Serif" font-size="10.00">::GenericMatParams</text>
</a>
</g>
</g>
<!-- Node16&#45;&gt;Node15 -->
<g id="edge31" class="edge">
<title>Node16&#45;&gt;Node15</title>
<path fill="none" stroke="#9a32cd" stroke-dasharray="5,2" d="M521.2,-255.68C522.86,-254.51 524.47,-253.29 526,-251.99 538.17,-241.71 530.19,-228.94 544,-220.99 573.66,-203.92 587.26,-215.29 621,-220.99 644.82,-225.02 670.48,-233.91 690.29,-241.85"/>
<polygon fill="#9a32cd" stroke="#9a32cd" points="519.19,-252.8 512.45,-260.98 522.82,-258.79 519.19,-252.8"/>
<text text-anchor="middle" x="582.5" y="-245.99" font-family="Helvetica,sans-Serif" font-size="10.00"> Ds_</text>
<text text-anchor="middle" x="582.5" y="-234.99" font-family="Helvetica,sans-Serif" font-size="10.00">alphas_</text>
<text text-anchor="middle" x="582.5" y="-223.99" font-family="Helvetica,sans-Serif" font-size="10.00">mus_</text>
</g>
<!-- Node16&#45;&gt;Node17 -->
<g id="edge34" class="edge">
<title>Node16&#45;&gt;Node17</title>
<path fill="none" stroke="#9a32cd" stroke-dasharray="5,2" d="M528.9,-285.15C557.3,-289.07 590.77,-293.71 621,-297.99 626.84,-298.82 632.87,-299.68 638.94,-300.55"/>
<polygon fill="#9a32cd" stroke="#9a32cd" points="529.06,-281.64 518.68,-283.74 528.1,-288.58 529.06,-281.64"/>
<text text-anchor="middle" x="582.5" y="-311.99" font-family="Helvetica,sans-Serif" font-size="10.00"> coefficients_</text>
<text text-anchor="middle" x="582.5" y="-300.99" font-family="Helvetica,sans-Serif" font-size="10.00">expoenents_</text>
</g>
<!-- Node17&#45;&gt;Node1 -->
<g id="edge32" class="edge">
<title>Node17&#45;&gt;Node1</title>
<path fill="none" stroke="#9a32cd" stroke-dasharray="5,2" d="M822.05,-305.22C864.38,-300.61 914.55,-293.55 959,-282.99 970.92,-280.16 983.61,-276.11 995.05,-272.04"/>
<polygon fill="#9a32cd" stroke="#9a32cd" points="821.6,-301.75 812.03,-306.28 822.34,-308.71 821.6,-301.75"/>
<text text-anchor="start" x="838" y="-316.99" font-family="Helvetica,sans-Serif" font-size="10.00"> incompressible_ogden</text>
<text text-anchor="middle" x="894.5" y="-305.99" font-family="Helvetica,sans-Serif" font-size="10.00">_elasticity_</text>
</g>
</g>
</svg>
