<?xml version="1.0" encoding="UTF-8" standalone="no"?>
<!DOCTYPE svg PUBLIC "-//W3C//DTD SVG 1.1//EN"
 "http://www.w3.org/Graphics/SVG/1.1/DTD/svg11.dtd">
<!-- Generated by graphviz version 2.43.0 (0)
 -->
<!-- Title: polyfem::solver::OperatorSplittingSolver::trace_back Pages: 1 -->
<svg width="1084pt" height="110pt"
 viewBox="0.00 0.00 1084.00 110.00" xmlns="http://www.w3.org/2000/svg" xmlns:xlink="http://www.w3.org/1999/xlink">
<g id="graph0" class="graph" transform="scale(1 1) rotate(0) translate(4 106)">
<title>polyfem::solver::OperatorSplittingSolver::trace_back</title>
<!-- Node1 -->
<g id="Node000001" class="node">
<title>Node1</title>
<g id="a_Node000001"><a xlink:title=" ">
<polygon fill="#999999" stroke="#666666" points="1076,-54 929,-54 929,-24 1076,-24 1076,-54"/>
<text text-anchor="start" x="937" y="-42" font-family="Helvetica,sans-Serif" font-size="10.00">polyfem::solver::Operator</text>
<text text-anchor="middle" x="1002.5" y="-31" font-family="Helvetica,sans-Serif" font-size="10.00">SplittingSolver::trace_back</text>
</a>
</g>
</g>
<!-- Node2 -->
<g id="Node000002" class="node">
<title>Node2</title>
<g id="a_Node000002"><a xlink:href="classpolyfem_1_1solver_1_1_operator_splitting_solver.html#aaa031b766ab6b7ef81bebb3401e0ea8e" target="_top" xlink:title=" ">
<polygon fill="white" stroke="#666666" points="893,-78 726,-78 726,-48 893,-48 893,-78"/>
<text text-anchor="start" x="734" y="-66" font-family="Helvetica,sans-Serif" font-size="10.00">polyfem::solver::Operator</text>
<text text-anchor="middle" x="809.5" y="-55" font-family="Helvetica,sans-Serif" font-size="10.00">SplittingSolver::advection_FLIP</text>
</a>
</g>
</g>
<!-- Node1&#45;&gt;Node2 -->
<g id="edge1_Node000001_Node000002" class="edge">
<title>Node1&#45;&gt;Node2</title>
<g id="a_edge1_Node000001_Node000002"><a xlink:title=" ">
<path fill="none" stroke="#63b8ff" d="M918.59,-49.42C910.19,-50.47 901.67,-51.54 893.27,-52.6"/>
<polygon fill="#63b8ff" stroke="#63b8ff" points="919.26,-52.86 928.75,-48.14 918.39,-45.92 919.26,-52.86"/>
</a>
</g>
</g>
<!-- Node9 -->
<g id="Node000009" class="node">
<title>Node9</title>
<g id="a_Node000009"><a xlink:href="classpolyfem_1_1solver_1_1_operator_splitting_solver.html#a71d25220cfe9747e5a2f970587df6d99" target="_top" xlink:title=" ">
<polygon fill="white" stroke="#666666" points="891,-30 728,-30 728,0 891,0 891,-30"/>
<text text-anchor="start" x="736" y="-18" font-family="Helvetica,sans-Serif" font-size="10.00">polyfem::solver::Operator</text>
<text text-anchor="middle" x="809.5" y="-7" font-family="Helvetica,sans-Serif" font-size="10.00">SplittingSolver::advection_PIC</text>
</a>
</g>
</g>
<!-- Node1&#45;&gt;Node9 -->
<g id="edge8_Node000001_Node000009" class="edge">
<title>Node1&#45;&gt;Node9</title>
<g id="a_edge8_Node000001_Node000009"><a xlink:title=" ">
<path fill="none" stroke="#63b8ff" d="M918.82,-28.61C909.6,-27.45 900.21,-26.27 891.02,-25.12"/>
<polygon fill="#63b8ff" stroke="#63b8ff" points="918.39,-32.08 928.75,-29.86 919.26,-25.14 918.39,-32.08"/>
</a>
</g>
</g>
<!-- Node3 -->
<g id="Node000003" class="node">
<title>Node3</title>
<g id="a_Node000003"><a xlink:href="classpolyfem_1_1legacy_1_1_state.html#a44ceb3ea3dfd61111cbc14d9a5513525" target="_top" xlink:title="solves transient navier stokes with operator splitting">
<polygon fill="white" stroke="#666666" points="690,-83.5 556,-83.5 556,-42.5 690,-42.5 690,-83.5"/>
<text text-anchor="start" x="564" y="-71.5" font-family="Helvetica,sans-Serif" font-size="10.00">polyfem::legacy::State</text>
<text text-anchor="start" x="564" y="-60.5" font-family="Helvetica,sans-Serif" font-size="10.00">::solve_transient_navier</text>
<text text-anchor="middle" x="623" y="-49.5" font-family="Helvetica,sans-Serif" font-size="10.00">_stokes_split</text>
</a>
</g>
</g>
<!-- Node2&#45;&gt;Node3 -->
<g id="edge2_Node000002_Node000003" class="edge">
<title>Node2&#45;&gt;Node3</title>
<g id="a_edge2_Node000002_Node000003"><a xlink:title=" ">
<path fill="none" stroke="#63b8ff" d="M715.81,-63C707.15,-63 698.49,-63 690.14,-63"/>
<polygon fill="#63b8ff" stroke="#63b8ff" points="715.96,-66.5 725.96,-63 715.96,-59.5 715.96,-66.5"/>
</a>
</g>
</g>
<!-- Node4 -->
<g id="Node000004" class="node">
<title>Node4</title>
<g id="a_Node000004"><a xlink:href="classpolyfem_1_1legacy_1_1_state.html#ae8174512fdfb4de037d593ef99b26c0f" target="_top" xlink:title="solves the problems">
<polygon fill="white" stroke="#666666" points="520,-78 394,-78 394,-48 520,-48 520,-78"/>
<text text-anchor="start" x="402" y="-66" font-family="Helvetica,sans-Serif" font-size="10.00">polyfem::legacy::State</text>
<text text-anchor="middle" x="457" y="-55" font-family="Helvetica,sans-Serif" font-size="10.00">::solve_problem</text>
</a>
</g>
</g>
<!-- Node3&#45;&gt;Node4 -->
<g id="edge3_Node000003_Node000004" class="edge">
<title>Node3&#45;&gt;Node4</title>
<g id="a_edge3_Node000003_Node000004"><a xlink:title=" ">
<path fill="none" stroke="#63b8ff" d="M545.5,-63C537.04,-63 528.49,-63 520.23,-63"/>
<polygon fill="#63b8ff" stroke="#63b8ff" points="545.77,-66.5 555.77,-63 545.77,-59.5 545.77,-66.5"/>
</a>
</g>
</g>
<!-- Node5 -->
<g id="Node000005" class="node">
<title>Node5</title>
<g id="a_Node000005"><a xlink:href="main_8cpp.html#a0d6fd6ed6fda5fc5e4b6ed34b45fe322" target="_top" xlink:title=" ">
<polygon fill="white" stroke="#666666" points="346.5,-102 235.5,-102 235.5,-72 346.5,-72 346.5,-102"/>
<text text-anchor="start" x="243.5" y="-90" font-family="Helvetica,sans-Serif" font-size="10.00">forward_simulation</text>
<text text-anchor="middle" x="291" y="-79" font-family="Helvetica,sans-Serif" font-size="10.00">_with_legacy_state</text>
</a>
</g>
</g>
<!-- Node4&#45;&gt;Node5 -->
<g id="edge4_Node000004_Node000005" class="edge">
<title>Node4&#45;&gt;Node5</title>
<g id="a_edge4_Node000004_Node000005"><a xlink:title=" ">
<path fill="none" stroke="#63b8ff" d="M384.01,-73.53C371.44,-75.37 358.56,-77.26 346.56,-79.02"/>
<polygon fill="#63b8ff" stroke="#63b8ff" points="384.61,-76.98 394,-72.07 383.6,-70.06 384.61,-76.98"/>
</a>
</g>
</g>
<!-- Node8 -->
<g id="Node000008" class="node">
<title>Node8</title>
<g id="a_Node000008"><a xlink:href="structpolyfem_1_1solver_1_1_adjoint_opt_utils.html#a0aab07822700745f38ea85dd84f76511" target="_top" xlink:title=" ">
<polygon fill="white" stroke="#666666" points="358,-54 224,-54 224,-24 358,-24 358,-54"/>
<text text-anchor="start" x="232" y="-42" font-family="Helvetica,sans-Serif" font-size="10.00">polyfem::solver::Adjoint</text>
<text text-anchor="middle" x="291" y="-31" font-family="Helvetica,sans-Serif" font-size="10.00">OptUtils::solve_pde</text>
</a>
</g>
</g>
<!-- Node4&#45;&gt;Node8 -->
<g id="edge7_Node000004_Node000008" class="edge">
<title>Node4&#45;&gt;Node8</title>
<g id="a_edge7_Node000004_Node000008"><a xlink:title=" ">
<path fill="none" stroke="#63b8ff" d="M384.01,-52.47C375.43,-51.21 366.69,-49.93 358.19,-48.69"/>
<polygon fill="#63b8ff" stroke="#63b8ff" points="383.6,-55.94 394,-53.93 384.61,-49.02 383.6,-55.94"/>
</a>
</g>
</g>
<!-- Node6 -->
<g id="Node000006" class="node">
<title>Node6</title>
<g id="a_Node000006"><a xlink:href="main_8cpp.html#aec889c702a246ad7f332c75ab7adb438" target="_top" xlink:title=" ">
<polygon fill="white" stroke="#666666" points="188,-96.5 77,-96.5 77,-77.5 188,-77.5 188,-96.5"/>
<text text-anchor="middle" x="132.5" y="-84.5" font-family="Helvetica,sans-Serif" font-size="10.00">forward_simulation</text>
</a>
</g>
</g>
<!-- Node5&#45;&gt;Node6 -->
<g id="edge5_Node000005_Node000006" class="edge">
<title>Node5&#45;&gt;Node6</title>
<g id="a_edge5_Node000005_Node000006"><a xlink:title=" ">
<path fill="none" stroke="#63b8ff" d="M225.1,-87C212.83,-87 200.12,-87 188.21,-87"/>
<polygon fill="#63b8ff" stroke="#63b8ff" points="225.26,-90.5 235.26,-87 225.26,-83.5 225.26,-90.5"/>
</a>
</g>
</g>
<!-- Node7 -->
<g id="Node000007" class="node">
<title>Node7</title>
<g id="a_Node000007"><a xlink:href="main_8cpp.html#a3c04138a5bfe5d72780bb7e82a18e627" target="_top" xlink:title=" ">
<polygon fill="white" stroke="#666666" points="41,-96.5 0,-96.5 0,-77.5 41,-77.5 41,-96.5"/>
<text text-anchor="middle" x="20.5" y="-84.5" font-family="Helvetica,sans-Serif" font-size="10.00">main</text>
</a>
</g>
</g>
<!-- Node6&#45;&gt;Node7 -->
<g id="edge6_Node000006_Node000007" class="edge">
<title>Node6&#45;&gt;Node7</title>
<g id="a_edge6_Node000006_Node000007"><a xlink:title=" ">
<path fill="none" stroke="#63b8ff" d="M66.64,-87C57.35,-87 48.45,-87 41.05,-87"/>
<polygon fill="#63b8ff" stroke="#63b8ff" points="66.82,-90.5 76.82,-87 66.82,-83.5 66.82,-90.5"/>
</a>
</g>
</g>
</g>
</svg>
