<?xml version="1.0" encoding="UTF-8" standalone="no"?>
<!DOCTYPE svg PUBLIC "-//W3C//DTD SVG 1.1//EN"
 "http://www.w3.org/Graphics/SVG/1.1/DTD/svg11.dtd">
<!-- Generated by graphviz version 2.43.0 (0)
 -->
<!-- Title: polyfem::assembler::LinearElasticity::assign_stress_tensor Pages: 1 -->
<svg width="519pt" height="204pt"
 viewBox="0.00 0.00 519.00 204.00" xmlns="http://www.w3.org/2000/svg" xmlns:xlink="http://www.w3.org/1999/xlink">
<g id="graph0" class="graph" transform="scale(1 1) rotate(0) translate(4 200)">
<title>polyfem::assembler::LinearElasticity::assign_stress_tensor</title>
<!-- Node1 -->
<g id="node1" class="node">
<title>Node1</title>
<g id="a_node1"><a xlink:title=" ">
<polygon fill="#999999" stroke="#666666" points="119,-115.5 0,-115.5 0,-74.5 119,-74.5 119,-115.5"/>
<text text-anchor="start" x="8" y="-103.5" font-family="Helvetica,sans-Serif" font-size="10.00">polyfem::assembler</text>
<text text-anchor="start" x="8" y="-92.5" font-family="Helvetica,sans-Serif" font-size="10.00">::LinearElasticity::</text>
<text text-anchor="middle" x="59.5" y="-81.5" font-family="Helvetica,sans-Serif" font-size="10.00">assign_stress_tensor</text>
</a>
</g>
</g>
<!-- Node2 -->
<g id="node2" class="node">
<title>Node2</title>
<g id="a_node2"><a xlink:href="namespacepolyfem.html#afe7d5ac326e47bbc47caa5539c4f8172" target="_top" xlink:title=" ">
<polygon fill="white" stroke="#666666" points="354,-190.5 155,-190.5 155,-171.5 354,-171.5 354,-190.5"/>
<text text-anchor="middle" x="254.5" y="-178.5" font-family="Helvetica,sans-Serif" font-size="10.00">polyfem::compute_diplacement_grad</text>
</a>
</g>
</g>
<!-- Node1&#45;&gt;Node2 -->
<g id="edge1" class="edge">
<title>Node1&#45;&gt;Node2</title>
<path fill="none" stroke="#63b8ff" d="M83.64,-115.72C101.8,-130.85 128.37,-150.63 155,-162 161.13,-164.62 167.64,-166.88 174.26,-168.83"/>
<polygon fill="#63b8ff" stroke="#63b8ff" points="173.46,-172.24 184.02,-171.47 175.29,-165.48 173.46,-172.24"/>
</g>
<!-- Node4 -->
<g id="node4" class="node">
<title>Node4</title>
<g id="a_node4"><a xlink:href="classpolyfem_1_1assembler_1_1_lame_parameters.html#ab0fae1aa60ff63c1489b810353f0964c" target="_top" xlink:title=" ">
<polygon fill="white" stroke="#666666" points="339,-153 170,-153 170,-123 339,-123 339,-153"/>
<text text-anchor="start" x="178" y="-141" font-family="Helvetica,sans-Serif" font-size="10.00">polyfem::assembler</text>
<text text-anchor="middle" x="254.5" y="-130" font-family="Helvetica,sans-Serif" font-size="10.00">::LameParameters::lambda_mu</text>
</a>
</g>
</g>
<!-- Node1&#45;&gt;Node4 -->
<g id="edge3" class="edge">
<title>Node1&#45;&gt;Node4</title>
<path fill="none" stroke="#63b8ff" d="M119.19,-108.08C137.14,-112.07 157.15,-116.53 176.14,-120.76"/>
<polygon fill="#63b8ff" stroke="#63b8ff" points="175.43,-124.19 185.95,-122.95 176.96,-117.36 175.43,-124.19"/>
</g>
<!-- Node5 -->
<g id="node5" class="node">
<title>Node5</title>
<g id="a_node5"><a xlink:href="namespacepolyfem.html#aaf867383bfea72c587035f4e3346bb21" target="_top" xlink:title=" ">
<polygon fill="white" stroke="#666666" points="329,-104.5 180,-104.5 180,-85.5 329,-85.5 329,-104.5"/>
<text text-anchor="middle" x="254.5" y="-92.5" font-family="Helvetica,sans-Serif" font-size="10.00">polyfem::pk1_from_cauchy</text>
</a>
</g>
</g>
<!-- Node1&#45;&gt;Node5 -->
<g id="edge4" class="edge">
<title>Node1&#45;&gt;Node5</title>
<path fill="none" stroke="#63b8ff" d="M119.19,-95C134.99,-95 152.39,-95 169.28,-95"/>
<polygon fill="#63b8ff" stroke="#63b8ff" points="169.72,-98.5 179.72,-95 169.72,-91.5 169.72,-98.5"/>
</g>
<!-- Node6 -->
<g id="node6" class="node">
<title>Node6</title>
<g id="a_node6"><a xlink:href="namespacepolyfem.html#a2e0e4c0eef41d449e66abee527fc8e13" target="_top" xlink:title=" ">
<polygon fill="white" stroke="#666666" points="329,-67.5 180,-67.5 180,-48.5 329,-48.5 329,-67.5"/>
<text text-anchor="middle" x="254.5" y="-55.5" font-family="Helvetica,sans-Serif" font-size="10.00">polyfem::pk2_from_cauchy</text>
</a>
</g>
</g>
<!-- Node1&#45;&gt;Node6 -->
<g id="edge5" class="edge">
<title>Node1&#45;&gt;Node6</title>
<path fill="none" stroke="#63b8ff" d="M119.19,-83.75C142.87,-79.21 170.15,-73.98 193.92,-69.42"/>
<polygon fill="#63b8ff" stroke="#63b8ff" points="194.71,-72.83 203.87,-67.51 193.39,-65.96 194.71,-72.83"/>
</g>
<!-- Node7 -->
<g id="node7" class="node">
<title>Node7</title>
<g id="a_node7"><a xlink:href="classpolyfem_1_1assembler_1_1_assembler.html#a80752709995e20a40d7df6ae26c684d4" target="_top" xlink:title=" ">
<polygon fill="white" stroke="#666666" points="311.5,-30 197.5,-30 197.5,0 311.5,0 311.5,-30"/>
<text text-anchor="start" x="205.5" y="-18" font-family="Helvetica,sans-Serif" font-size="10.00">polyfem::assembler</text>
<text text-anchor="middle" x="254.5" y="-7" font-family="Helvetica,sans-Serif" font-size="10.00">::Assembler::size</text>
</a>
</g>
</g>
<!-- Node1&#45;&gt;Node7 -->
<g id="edge6" class="edge">
<title>Node1&#45;&gt;Node7</title>
<path fill="none" stroke="#63b8ff" d="M90.88,-74.39C108.88,-62.94 132.51,-49.19 155,-40 165.36,-35.77 176.63,-32.1 187.73,-28.97"/>
<polygon fill="#63b8ff" stroke="#63b8ff" points="188.66,-32.35 197.41,-26.37 186.84,-25.59 188.66,-32.35"/>
</g>
<!-- Node3 -->
<g id="node3" class="node">
<title>Node3</title>
<g id="a_node3"><a xlink:href="classpolyfem_1_1basis_1_1_basis.html#a88b90af0c63d52f2c91fe97a63c540ce" target="_top" xlink:title=" ">
<polygon fill="white" stroke="#666666" points="511,-196 390,-196 390,-166 511,-166 511,-196"/>
<text text-anchor="start" x="398" y="-184" font-family="Helvetica,sans-Serif" font-size="10.00">polyfem::basis::Basis</text>
<text text-anchor="middle" x="450.5" y="-173" font-family="Helvetica,sans-Serif" font-size="10.00">::global</text>
</a>
</g>
</g>
<!-- Node2&#45;&gt;Node3 -->
<g id="edge2" class="edge">
<title>Node2&#45;&gt;Node3</title>
<path fill="none" stroke="#63b8ff" d="M354.21,-181C362.86,-181 371.49,-181 379.83,-181"/>
<polygon fill="#63b8ff" stroke="#63b8ff" points="379.84,-184.5 389.84,-181 379.84,-177.5 379.84,-184.5"/>
</g>
</g>
</svg>
