<?xml version="1.0" encoding="UTF-8" standalone="no"?>
<!DOCTYPE svg PUBLIC "-//W3C//DTD SVG 1.1//EN"
 "http://www.w3.org/Graphics/SVG/1.1/DTD/svg11.dtd">
<!-- Generated by graphviz version 2.43.0 (0)
 -->
<!-- Title: polyfem::mesh::NCMesh3D::n_face_vertices Pages: 1 -->
<svg width="554pt" height="258pt"
 viewBox="0.00 0.00 554.00 258.00" xmlns="http://www.w3.org/2000/svg" xmlns:xlink="http://www.w3.org/1999/xlink">
<g id="graph0" class="graph" transform="scale(1 1) rotate(0) translate(4 254)">
<title>polyfem::mesh::NCMesh3D::n_face_vertices</title>
<!-- Node1 -->
<g id="node1" class="node">
<title>Node1</title>
<g id="a_node1"><a xlink:title="number of vertices of a face">
<polygon fill="#999999" stroke="#666666" points="546,-142 396,-142 396,-112 546,-112 546,-142"/>
<text text-anchor="start" x="404" y="-130" font-family="Helvetica,sans-Serif" font-size="10.00">polyfem::mesh::NCMesh3D</text>
<text text-anchor="middle" x="471" y="-119" font-family="Helvetica,sans-Serif" font-size="10.00">::n_face_vertices</text>
</a>
</g>
</g>
<!-- Node2 -->
<g id="node2" class="node">
<title>Node2</title>
<g id="a_node2"><a xlink:href="classpolyfem_1_1mesh_1_1_n_c_mesh3_d.html#afdf4f657f97acf9d5fa26598af1f4303" target="_top" xlink:title="computes boundary selections based on a function">
<polygon fill="white" stroke="#666666" points="360,-250 210,-250 210,-220 360,-220 360,-250"/>
<text text-anchor="start" x="218" y="-238" font-family="Helvetica,sans-Serif" font-size="10.00">polyfem::mesh::NCMesh3D</text>
<text text-anchor="middle" x="285" y="-227" font-family="Helvetica,sans-Serif" font-size="10.00">::compute_boundary_ids</text>
</a>
</g>
</g>
<!-- Node1&#45;&gt;Node2 -->
<g id="edge1" class="edge">
<title>Node1&#45;&gt;Node2</title>
<path fill="none" stroke="#63b8ff" d="M443.86,-148.64C422.31,-165.75 390.45,-189.44 360,-206 350.55,-211.14 339.98,-215.84 329.86,-219.89"/>
<polygon fill="#63b8ff" stroke="#63b8ff" points="446.26,-151.2 451.87,-142.2 441.88,-145.74 446.26,-151.2"/>
</g>
<!-- Node3 -->
<g id="node3" class="node">
<title>Node3</title>
<g id="a_node3"><a xlink:href="classpolyfem_1_1mesh_1_1_n_c_mesh3_d.html#a6899bc07d12b5d6118e963e3c698c227" target="_top" xlink:title=" ">
<polygon fill="white" stroke="#666666" points="174,-214 0,-214 0,-184 174,-184 174,-214"/>
<text text-anchor="start" x="8" y="-202" font-family="Helvetica,sans-Serif" font-size="10.00">polyfem::mesh::NCMesh3D</text>
<text text-anchor="middle" x="87" y="-191" font-family="Helvetica,sans-Serif" font-size="10.00">::get_index_from_element_edge</text>
</a>
</g>
</g>
<!-- Node1&#45;&gt;Node3 -->
<g id="edge2" class="edge">
<title>Node1&#45;&gt;Node3</title>
<path fill="none" stroke="#63b8ff" d="M431.41,-146.5C410.74,-156.07 384.55,-166.84 360,-173 299.03,-188.29 228.31,-194.72 174.26,-197.36"/>
<polygon fill="#63b8ff" stroke="#63b8ff" points="432.94,-149.65 440.49,-142.21 429.95,-143.32 432.94,-149.65"/>
</g>
<!-- Node4 -->
<g id="node4" class="node">
<title>Node4</title>
<g id="a_node4"><a xlink:href="classpolyfem_1_1mesh_1_1_n_c_mesh3_d.html#aee7eea87ed322332f9933ae449fc4dcb" target="_top" xlink:title=" ">
<polygon fill="white" stroke="#666666" points="172.5,-118 1.5,-118 1.5,-88 172.5,-88 172.5,-118"/>
<text text-anchor="start" x="9.5" y="-106" font-family="Helvetica,sans-Serif" font-size="10.00">polyfem::mesh::NCMesh3D</text>
<text text-anchor="middle" x="87" y="-95" font-family="Helvetica,sans-Serif" font-size="10.00">::get_index_from_element_face</text>
</a>
</g>
</g>
<!-- Node1&#45;&gt;Node4 -->
<g id="edge3" class="edge">
<title>Node1&#45;&gt;Node4</title>
<path fill="none" stroke="#63b8ff" d="M385.54,-121.69C322.21,-117.71 235.9,-112.29 172.55,-108.31"/>
<polygon fill="#63b8ff" stroke="#63b8ff" points="385.69,-125.21 395.89,-122.34 386.13,-118.22 385.69,-125.21"/>
</g>
<!-- Node5 -->
<g id="node5" class="node">
<title>Node5</title>
<g id="a_node5"><a xlink:href="classpolyfem_1_1mesh_1_1_n_c_mesh3_d.html#ad8ecc4cc0f1c848da51187c51075f467" target="_top" xlink:title=" ">
<polygon fill="white" stroke="#666666" points="360,-78 210,-78 210,-48 360,-48 360,-78"/>
<text text-anchor="start" x="218" y="-66" font-family="Helvetica,sans-Serif" font-size="10.00">polyfem::mesh::NCMesh3D</text>
<text text-anchor="middle" x="285" y="-55" font-family="Helvetica,sans-Serif" font-size="10.00">::switch_face</text>
</a>
</g>
</g>
<!-- Node1&#45;&gt;Node5 -->
<g id="edge4" class="edge">
<title>Node1&#45;&gt;Node5</title>
<path fill="none" stroke="#63b8ff" d="M417.26,-108.66C389.35,-98.95 355.52,-87.18 329.19,-78.02"/>
<polygon fill="#63b8ff" stroke="#63b8ff" points="416.27,-112.02 426.86,-111.99 418.57,-105.4 416.27,-112.02"/>
</g>
<!-- Node7 -->
<g id="node7" class="node">
<title>Node7</title>
<g id="a_node7"><a xlink:href="classpolyfem_1_1mesh_1_1_n_c_mesh3_d.html#a7d32ea3985e408f0c4f367f02b8fb774" target="_top" xlink:title=" ">
<polygon fill="white" stroke="#666666" points="360,-164 210,-164 210,-134 360,-134 360,-164"/>
<text text-anchor="start" x="218" y="-152" font-family="Helvetica,sans-Serif" font-size="10.00">polyfem::mesh::NCMesh3D</text>
<text text-anchor="middle" x="285" y="-141" font-family="Helvetica,sans-Serif" font-size="10.00">::switch_vertex</text>
</a>
</g>
</g>
<!-- Node1&#45;&gt;Node7 -->
<g id="edge6" class="edge">
<title>Node1&#45;&gt;Node7</title>
<path fill="none" stroke="#63b8ff" d="M385.93,-137.05C377.35,-138.08 368.66,-139.12 360.19,-140.13"/>
<polygon fill="#63b8ff" stroke="#63b8ff" points="386.44,-140.52 395.96,-135.85 385.61,-133.57 386.44,-140.52"/>
</g>
<!-- Node9 -->
<g id="node9" class="node">
<title>Node9</title>
<g id="a_node9"><a xlink:href="classpolyfem_1_1mesh_1_1_n_c_mesh3_d.html#a672d9b8453c5bcd4205c795c068c4945" target="_top" xlink:title="generate a triangular representation of every face">
<polygon fill="white" stroke="#666666" points="360,-30 210,-30 210,0 360,0 360,-30"/>
<text text-anchor="start" x="218" y="-18" font-family="Helvetica,sans-Serif" font-size="10.00">polyfem::mesh::NCMesh3D</text>
<text text-anchor="middle" x="285" y="-7" font-family="Helvetica,sans-Serif" font-size="10.00">::triangulate_faces</text>
</a>
</g>
</g>
<!-- Node1&#45;&gt;Node9 -->
<g id="edge10" class="edge">
<title>Node1&#45;&gt;Node9</title>
<path fill="none" stroke="#63b8ff" d="M447.44,-104.84C426.35,-85.19 393.22,-56.9 360,-39 353.82,-35.67 347.09,-32.7 340.3,-30.09"/>
<polygon fill="#63b8ff" stroke="#63b8ff" points="445.24,-107.58 454.9,-111.91 450.05,-102.49 445.24,-107.58"/>
</g>
<!-- Node6 -->
<g id="node6" class="node">
<title>Node6</title>
<g id="a_node6"><a xlink:href="classpolyfem_1_1mesh_1_1_n_c_mesh3_d.html#a1f48fca7715b9b4762142000ec3ab633" target="_top" xlink:title=" ">
<polygon fill="white" stroke="#666666" points="162,-70 12,-70 12,-40 162,-40 162,-70"/>
<text text-anchor="start" x="20" y="-58" font-family="Helvetica,sans-Serif" font-size="10.00">polyfem::mesh::NCMesh3D</text>
<text text-anchor="middle" x="87" y="-47" font-family="Helvetica,sans-Serif" font-size="10.00">::next_around_edge</text>
</a>
</g>
</g>
<!-- Node5&#45;&gt;Node6 -->
<g id="edge5" class="edge">
<title>Node5&#45;&gt;Node6</title>
<path fill="none" stroke="#63b8ff" d="M199.55,-59.55C187.12,-59.05 174.4,-58.53 162.2,-58.03"/>
<polygon fill="#63b8ff" stroke="#63b8ff" points="199.77,-63.06 209.9,-59.98 200.05,-56.07 199.77,-63.06"/>
</g>
<!-- Node7&#45;&gt;Node3 -->
<g id="edge7" class="edge">
<title>Node7&#45;&gt;Node3</title>
<path fill="none" stroke="#63b8ff" d="M215.46,-166.48C193.17,-172.17 168.64,-178.43 147.1,-183.92"/>
<polygon fill="#63b8ff" stroke="#63b8ff" points="216.37,-169.86 225.19,-164 214.64,-163.08 216.37,-169.86"/>
</g>
<!-- Node7&#45;&gt;Node4 -->
<g id="edge8" class="edge">
<title>Node7&#45;&gt;Node4</title>
<path fill="none" stroke="#63b8ff" d="M209.98,-131.63C190.89,-127.15 170.51,-122.37 151.99,-118.02"/>
<polygon fill="#63b8ff" stroke="#63b8ff" points="209.29,-135.06 219.82,-133.94 210.89,-128.25 209.29,-135.06"/>
</g>
<!-- Node8 -->
<g id="node8" class="node">
<title>Node8</title>
<g id="a_node8"><a xlink:href="classpolyfem_1_1mesh_1_1_n_c_mesh3_d.html#a9ec219f3f419a3b0de13accf4064ce33" target="_top" xlink:title=" ">
<polygon fill="white" stroke="#666666" points="162,-166 12,-166 12,-136 162,-136 162,-166"/>
<text text-anchor="start" x="20" y="-154" font-family="Helvetica,sans-Serif" font-size="10.00">polyfem::mesh::NCMesh3D</text>
<text text-anchor="middle" x="87" y="-143" font-family="Helvetica,sans-Serif" font-size="10.00">::next_around_face</text>
</a>
</g>
</g>
<!-- Node7&#45;&gt;Node8 -->
<g id="edge9" class="edge">
<title>Node7&#45;&gt;Node8</title>
<path fill="none" stroke="#63b8ff" d="M199.55,-149.86C187.12,-149.99 174.4,-150.12 162.2,-150.24"/>
<polygon fill="#63b8ff" stroke="#63b8ff" points="199.94,-153.36 209.9,-149.76 199.87,-146.36 199.94,-153.36"/>
</g>
</g>
</svg>
