<?xml version="1.0" encoding="UTF-8" standalone="no"?>
<!DOCTYPE svg PUBLIC "-//W3C//DTD SVG 1.1//EN"
 "http://www.w3.org/Graphics/SVG/1.1/DTD/svg11.dtd">
<!-- Generated by graphviz version 2.43.0 (0)
 -->
<!-- Title: polyfem::assembler::Problem::setup_nodal_bc Pages: 1 -->
<svg width="469pt" height="313pt"
 viewBox="0.00 0.00 469.00 312.50" xmlns="http://www.w3.org/2000/svg" xmlns:xlink="http://www.w3.org/1999/xlink">

<svg id="main" version="1.1" xmlns="http://www.w3.org/2000/svg" xmlns:xlink="http://www.w3.org/1999/xlink" xml:space="preserve" onload="init(evt)">
<style type="text/css"><![CDATA[
.node, .edge {opacity: 0.7;}
.node.selected, .edge.selected {opacity: 1;}
.edge:hover path { stroke: red; }
.edge:hover polygon { stroke: red; fill: red; }
]]></style>
<script type="application/ecmascript" xlink:href="svg.min.js"/>
<svg id="graph" class="graph">
<g id="graph0" class="graph" transform="scale(1 1) rotate(0) translate(4 308.5)">
<title>polyfem::assembler::Problem::setup_nodal_bc</title>
<!-- Node1 -->
<g id="Node000001" class="node">
<title>Node1</title>
<g id="a_Node000001"><a xlink:title=" ">
<polygon fill="#999999" stroke="#666666" points="145,-182.5 0,-182.5 0,-152.5 145,-152.5 145,-182.5"/>
<text text-anchor="start" x="8" y="-170.5" font-family="Helvetica,sans-Serif" font-size="10.00">polyfem::assembler</text>
<text text-anchor="middle" x="72.5" y="-159.5" font-family="Helvetica,sans-Serif" font-size="10.00">::Problem::setup_nodal_bc</text>
</a>
</g>
</g>
<!-- Node2 -->
<g id="Node000002" class="node">
<title>Node2</title>
<g id="a_Node000002"><a xlink:href="classpolyfem_1_1mesh_1_1_mesh.html#af9990574a4f9f73a5931f333a1ae24d6" target="_top" xlink:title="Get the boundary selection of a node.">
<polygon fill="white" stroke="#666666" points="303,-304.5 181,-304.5 181,-274.5 303,-274.5 303,-304.5"/>
<text text-anchor="start" x="189" y="-292.5" font-family="Helvetica,sans-Serif" font-size="10.00">polyfem::mesh::Mesh</text>
<text text-anchor="middle" x="242" y="-281.5" font-family="Helvetica,sans-Serif" font-size="10.00">::get_node_id</text>
</a>
</g>
</g>
<!-- Node1&#45;&gt;Node2 -->
<g id="edge1_Node000001_Node000002" class="edge">
<title>Node1&#45;&gt;Node2</title>
<g id="a_edge1_Node000001_Node000002"><a xlink:title=" ">
<path fill="none" stroke="#63b8ff" d="M88.48,-182.75C108.35,-202.42 145.12,-236.91 181,-260.5 185.95,-263.76 191.33,-266.87 196.76,-269.77"/>
<polygon fill="#63b8ff" stroke="#63b8ff" points="195.38,-273 205.88,-274.44 198.57,-266.77 195.38,-273"/>
</a>
</g>
</g>
<!-- Node3 -->
<g id="Node000003" class="node">
<title>Node3</title>
<g id="a_Node000003"><a xlink:href="classpolyfem_1_1mesh_1_1_mesh.html#a4addd001329243170f8a5f292739227e" target="_top" xlink:title="checks if points selections are available">
<polygon fill="white" stroke="#666666" points="461,-282.5 339,-282.5 339,-252.5 461,-252.5 461,-282.5"/>
<text text-anchor="start" x="347" y="-270.5" font-family="Helvetica,sans-Serif" font-size="10.00">polyfem::mesh::Mesh</text>
<text text-anchor="middle" x="400" y="-259.5" font-family="Helvetica,sans-Serif" font-size="10.00">::has_node_ids</text>
</a>
</g>
</g>
<!-- Node1&#45;&gt;Node3 -->
<g id="edge5_Node000001_Node000003" class="edge">
<title>Node1&#45;&gt;Node3</title>
<g id="a_edge5_Node000001_Node000003"><a xlink:title=" ">
<path fill="none" stroke="#63b8ff" d="M95.53,-182.65C116.57,-196.4 149.63,-216.22 181,-227.5 228.87,-244.72 285.43,-254.82 328.95,-260.56"/>
<polygon fill="#63b8ff" stroke="#63b8ff" points="328.51,-264.04 338.87,-261.83 329.39,-257.09 328.51,-264.04"/>
</a>
</g>
</g>
<!-- Node4 -->
<g id="Node000004" class="node">
<title>Node4</title>
<g id="a_Node000004"><a xlink:href="classpolyfem_1_1assembler_1_1_problem.html#aff33b353989818b0e80d0a94edfb5e40" target="_top" xlink:title=" ">
<polygon fill="white" stroke="#666666" points="301.5,-218 182.5,-218 182.5,-177 301.5,-177 301.5,-218"/>
<text text-anchor="start" x="190.5" y="-206" font-family="Helvetica,sans-Serif" font-size="10.00">polyfem::assembler</text>
<text text-anchor="start" x="190.5" y="-195" font-family="Helvetica,sans-Serif" font-size="10.00">::Problem::has_nodal</text>
<text text-anchor="middle" x="242" y="-184" font-family="Helvetica,sans-Serif" font-size="10.00">_dirichlet</text>
</a>
</g>
</g>
<!-- Node1&#45;&gt;Node4 -->
<g id="edge3_Node000001_Node000004" class="edge">
<title>Node1&#45;&gt;Node4</title>
<g id="a_edge3_Node000001_Node000004"><a xlink:title=" ">
<path fill="none" stroke="#63b8ff" d="M145.02,-180.31C154.07,-181.93 163.3,-183.58 172.3,-185.2"/>
<polygon fill="#63b8ff" stroke="#63b8ff" points="171.88,-188.68 182.34,-186.99 173.11,-181.79 171.88,-188.68"/>
</a>
</g>
</g>
<!-- Node5 -->
<g id="Node000005" class="node">
<title>Node5</title>
<g id="a_Node000005"><a xlink:href="classpolyfem_1_1assembler_1_1_problem.html#a135987ed8d0c8214f77507a20f69308e" target="_top" xlink:title=" ">
<polygon fill="white" stroke="#666666" points="301.5,-159 182.5,-159 182.5,-118 301.5,-118 301.5,-159"/>
<text text-anchor="start" x="190.5" y="-147" font-family="Helvetica,sans-Serif" font-size="10.00">polyfem::assembler</text>
<text text-anchor="start" x="190.5" y="-136" font-family="Helvetica,sans-Serif" font-size="10.00">::Problem::has_nodal</text>
<text text-anchor="middle" x="242" y="-125" font-family="Helvetica,sans-Serif" font-size="10.00">_neumann</text>
</a>
</g>
</g>
<!-- Node1&#45;&gt;Node5 -->
<g id="edge4_Node000001_Node000005" class="edge">
<title>Node1&#45;&gt;Node5</title>
<g id="a_edge4_Node000001_Node000005"><a xlink:title=" ">
<path fill="none" stroke="#63b8ff" d="M145.02,-155.12C154.07,-153.55 163.3,-151.95 172.3,-150.39"/>
<polygon fill="#63b8ff" stroke="#63b8ff" points="173.08,-153.81 182.34,-148.66 171.89,-146.91 173.08,-153.81"/>
</a>
</g>
</g>
<!-- Node6 -->
<g id="Node000006" class="node">
<title>Node6</title>
<g id="a_Node000006"><a xlink:href="classpolyfem_1_1assembler_1_1_problem.html#adf910233e7b1ba839fd2ad3171396fdf" target="_top" xlink:title=" ">
<polygon fill="white" stroke="#666666" points="299,-100 185,-100 185,-59 299,-59 299,-100"/>
<text text-anchor="start" x="193" y="-88" font-family="Helvetica,sans-Serif" font-size="10.00">polyfem::assembler</text>
<text text-anchor="start" x="193" y="-77" font-family="Helvetica,sans-Serif" font-size="10.00">::Problem::is_nodal</text>
<text text-anchor="middle" x="242" y="-66" font-family="Helvetica,sans-Serif" font-size="10.00">_dirichlet_boundary</text>
</a>
</g>
</g>
<!-- Node1&#45;&gt;Node6 -->
<g id="edge6_Node000001_Node000006" class="edge">
<title>Node1&#45;&gt;Node6</title>
<g id="a_edge6_Node000001_Node000006"><a xlink:title=" ">
<path fill="none" stroke="#63b8ff" d="M100.77,-152.48C122.42,-140.63 153.53,-123.78 181,-109.5 184.04,-107.92 187.17,-106.31 190.33,-104.69"/>
<polygon fill="#63b8ff" stroke="#63b8ff" points="191.95,-107.8 199.28,-100.15 188.78,-101.56 191.95,-107.8"/>
</a>
</g>
</g>
<!-- Node7 -->
<g id="Node000007" class="node">
<title>Node7</title>
<g id="a_Node000007"><a xlink:href="classpolyfem_1_1assembler_1_1_problem.html#aa0ed3c91250b71932acd4534b60fdc19" target="_top" xlink:title=" ">
<polygon fill="white" stroke="#666666" points="301.5,-41 182.5,-41 182.5,0 301.5,0 301.5,-41"/>
<text text-anchor="start" x="190.5" y="-29" font-family="Helvetica,sans-Serif" font-size="10.00">polyfem::assembler</text>
<text text-anchor="start" x="190.5" y="-18" font-family="Helvetica,sans-Serif" font-size="10.00">::Problem::is_nodal</text>
<text text-anchor="middle" x="242" y="-7" font-family="Helvetica,sans-Serif" font-size="10.00">_neumann_boundary</text>
</a>
</g>
</g>
<!-- Node1&#45;&gt;Node7 -->
<g id="edge7_Node000001_Node000007" class="edge">
<title>Node1&#45;&gt;Node7</title>
<g id="a_edge7_Node000001_Node000007"><a xlink:title=" ">
<path fill="none" stroke="#63b8ff" d="M84.61,-152.19C102.66,-128.12 140.46,-81.04 181,-50.5 182.81,-49.13 184.7,-47.8 186.64,-46.51"/>
<polygon fill="#63b8ff" stroke="#63b8ff" points="188.73,-49.32 195.38,-41.07 185.04,-43.38 188.73,-49.32"/>
</a>
</g>
</g>
<!-- Node2&#45;&gt;Node3 -->
<g id="edge2_Node000002_Node000003" class="edge">
<title>Node2&#45;&gt;Node3</title>
<g id="a_edge2_Node000002_Node000003"><a xlink:title=" ">
<path fill="none" stroke="#63b8ff" d="M303.31,-280.99C311.69,-279.81 320.36,-278.59 328.9,-277.39"/>
<polygon fill="#63b8ff" stroke="#63b8ff" points="329.43,-280.85 338.85,-275.98 328.46,-273.91 329.43,-280.85"/>
</a>
</g>
</g>
</g>
</svg>
</svg>

<style type='text/css'>
<![CDATA[
[data-mouse-over-selected='false'] { opacity: 0.7; }
[data-mouse-over-selected='true']  { opacity: 1.0; }
]]>
</style>
<script type="application/ecmascript"><![CDATA[
document.addEventListener('DOMContentLoaded', (event) => {
  highlightEdges();
  highlightAdjacentNodes();
});
]]></script>
</svg>
