<?xml version="1.0" encoding="UTF-8" standalone="no"?>
<!DOCTYPE svg PUBLIC "-//W3C//DTD SVG 1.1//EN"
 "http://www.w3.org/Graphics/SVG/1.1/DTD/svg11.dtd">
<!-- Generated by graphviz version 2.43.0 (0)
 -->
<!-- Title: polyfem::DiffCache::u Pages: 1 -->
<svg width="771pt" height="538pt"
 viewBox="0.00 0.00 771.00 537.50" xmlns="http://www.w3.org/2000/svg" xmlns:xlink="http://www.w3.org/1999/xlink">
<g id="graph0" class="graph" transform="scale(1 1) rotate(0) translate(4 533.5)">
<title>polyfem::DiffCache::u</title>
<!-- Node1 -->
<g id="Node000001" class="node">
<title>Node1</title>
<g id="a_Node000001"><a xlink:title=" ">
<polygon fill="#999999" stroke="#666666" points="763,-293 641,-293 641,-274 763,-274 763,-293"/>
<text text-anchor="middle" x="702" y="-281" font-family="Helvetica,sans-Serif" font-size="10.00">polyfem::DiffCache::u</text>
</a>
</g>
</g>
<!-- Node2 -->
<g id="Node000002" class="node">
<title>Node2</title>
<g id="a_Node000002"><a xlink:href="classpolyfem_1_1_diff_cache.html#accb579c2770ebaca52effb391752b95a" target="_top" xlink:title=" ">
<polygon fill="white" stroke="#666666" points="599,-529.5 435,-529.5 435,-499.5 599,-499.5 599,-529.5"/>
<text text-anchor="start" x="443" y="-517.5" font-family="Helvetica,sans-Serif" font-size="10.00">polyfem::DiffCache</text>
<text text-anchor="middle" x="517" y="-506.5" font-family="Helvetica,sans-Serif" font-size="10.00">::cache_quantities_quasistatic</text>
</a>
</g>
</g>
<!-- Node1&#45;&gt;Node2 -->
<g id="edge1_Node000001_Node000002" class="edge">
<title>Node1&#45;&gt;Node2</title>
<g id="a_edge1_Node000001_Node000002"><a xlink:title=" ">
<path fill="none" stroke="#63b8ff" d="M697.6,-303.1C689.41,-344.24 664.68,-439.94 605,-490.5 600.94,-493.94 596.42,-496.9 591.63,-499.43"/>
<polygon fill="#63b8ff" stroke="#63b8ff" points="701.08,-303.5 699.48,-293.03 694.2,-302.22 701.08,-303.5"/>
</a>
</g>
</g>
<!-- Node4 -->
<g id="Node000004" class="node">
<title>Node4</title>
<g id="a_Node000004"><a xlink:href="classpolyfem_1_1_diff_cache.html#a7830892f9edbb7a727480f01c4f7d152" target="_top" xlink:title=" ">
<polygon fill="white" stroke="#666666" points="585.5,-481.5 448.5,-481.5 448.5,-451.5 585.5,-451.5 585.5,-481.5"/>
<text text-anchor="start" x="456.5" y="-469.5" font-family="Helvetica,sans-Serif" font-size="10.00">polyfem::DiffCache</text>
<text text-anchor="middle" x="517" y="-458.5" font-family="Helvetica,sans-Serif" font-size="10.00">::cache_quantities_static</text>
</a>
</g>
</g>
<!-- Node1&#45;&gt;Node4 -->
<g id="edge3_Node000001_Node000004" class="edge">
<title>Node1&#45;&gt;Node4</title>
<g id="a_edge3_Node000001_Node000004"><a xlink:title=" ">
<path fill="none" stroke="#63b8ff" d="M694.79,-302.65C682.9,-336.21 653.7,-405.6 605,-442.5 599.13,-446.95 592.48,-450.57 585.54,-453.52"/>
<polygon fill="#63b8ff" stroke="#63b8ff" points="698.13,-303.69 698.04,-293.1 691.51,-301.43 698.13,-303.69"/>
</a>
</g>
</g>
<!-- Node5 -->
<g id="Node000005" class="node">
<title>Node5</title>
<g id="a_Node000005"><a xlink:href="classpolyfem_1_1_diff_cache.html#afbf12d49a9f1d1cf52ceadd6b278ad30" target="_top" xlink:title=" ">
<polygon fill="white" stroke="#666666" points="594,-433.5 440,-433.5 440,-403.5 594,-403.5 594,-433.5"/>
<text text-anchor="start" x="448" y="-421.5" font-family="Helvetica,sans-Serif" font-size="10.00">polyfem::DiffCache</text>
<text text-anchor="middle" x="517" y="-410.5" font-family="Helvetica,sans-Serif" font-size="10.00">::cache_quantities_transient</text>
</a>
</g>
</g>
<!-- Node1&#45;&gt;Node5 -->
<g id="edge5_Node000001_Node000005" class="edge">
<title>Node1&#45;&gt;Node5</title>
<g id="a_edge5_Node000001_Node000005"><a xlink:title=" ">
<path fill="none" stroke="#63b8ff" d="M689.99,-301.99C674.27,-326.79 643.03,-370.47 605,-394.5 599.57,-397.93 593.65,-400.88 587.53,-403.41"/>
<polygon fill="#63b8ff" stroke="#63b8ff" points="693.14,-303.55 695.41,-293.2 687.18,-299.88 693.14,-303.55"/>
</a>
</g>
</g>
<!-- Node6 -->
<g id="Node000006" class="node">
<title>Node6</title>
<g id="a_Node000006"><a xlink:href="classpolyfem_1_1solver_1_1_spatial_integral_form.html#a521f090a0649802d632dd88389d84bd6" target="_top" xlink:title=" ">
<polygon fill="white" stroke="#666666" points="583.5,-385 450.5,-385 450.5,-344 583.5,-344 583.5,-385"/>
<text text-anchor="start" x="458.5" y="-373" font-family="Helvetica,sans-Serif" font-size="10.00">polyfem::solver::Spatial</text>
<text text-anchor="start" x="458.5" y="-362" font-family="Helvetica,sans-Serif" font-size="10.00">IntegralForm::compute</text>
<text text-anchor="middle" x="517" y="-351" font-family="Helvetica,sans-Serif" font-size="10.00">_adjoint_rhs_step</text>
</a>
</g>
</g>
<!-- Node1&#45;&gt;Node6 -->
<g id="edge7_Node000001_Node000006" class="edge">
<title>Node1&#45;&gt;Node6</title>
<g id="a_edge7_Node000001_Node000006"><a xlink:title=" ">
<path fill="none" stroke="#63b8ff" d="M675.81,-298.28C656.75,-309.11 629.73,-323.75 605,-334.5 597.53,-337.75 589.58,-340.89 581.64,-343.85"/>
<polygon fill="#63b8ff" stroke="#63b8ff" points="677.81,-301.17 684.74,-293.15 674.32,-295.1 677.81,-301.17"/>
</a>
</g>
</g>
<!-- Node9 -->
<g id="Node000009" class="node">
<title>Node9</title>
<g id="a_Node000009"><a xlink:href="classpolyfem_1_1solver_1_1_node_target_form.html#aeed36fbfb77ec49501e4855fab954ee3" target="_top" xlink:title=" ">
<polygon fill="white" stroke="#666666" points="605,-325.5 429,-325.5 429,-295.5 605,-295.5 605,-325.5"/>
<text text-anchor="start" x="437" y="-313.5" font-family="Helvetica,sans-Serif" font-size="10.00">polyfem::solver::NodeTarget</text>
<text text-anchor="middle" x="517" y="-302.5" font-family="Helvetica,sans-Serif" font-size="10.00">Form::compute_adjoint_rhs_step</text>
</a>
</g>
</g>
<!-- Node1&#45;&gt;Node9 -->
<g id="edge10_Node000001_Node000009" class="edge">
<title>Node1&#45;&gt;Node9</title>
<g id="a_edge10_Node000001_Node000009"><a xlink:title=" ">
<path fill="none" stroke="#63b8ff" d="M630.72,-293.87C622.32,-295.11 613.66,-296.39 605.06,-297.65"/>
<polygon fill="#63b8ff" stroke="#63b8ff" points="631.44,-297.3 640.83,-292.38 630.42,-290.38 631.44,-297.3"/>
</a>
</g>
</g>
<!-- Node10 -->
<g id="Node000010" class="node">
<title>Node10</title>
<g id="a_Node000010"><a xlink:href="namespacepolyfem_1_1solver_1_1_adjoint_tools.html#ae263d6ebe64f4e89a3e60c6331a968a3" target="_top" xlink:title=" ">
<polygon fill="white" stroke="#666666" points="593.5,-277 440.5,-277 440.5,-236 593.5,-236 593.5,-277"/>
<text text-anchor="start" x="448.5" y="-265" font-family="Helvetica,sans-Serif" font-size="10.00">polyfem::solver::Adjoint</text>
<text text-anchor="start" x="448.5" y="-254" font-family="Helvetica,sans-Serif" font-size="10.00">Tools::dJ_damping_transient</text>
<text text-anchor="middle" x="517" y="-243" font-family="Helvetica,sans-Serif" font-size="10.00">_adjoint_term</text>
</a>
</g>
</g>
<!-- Node1&#45;&gt;Node10 -->
<g id="edge11_Node000001_Node000010" class="edge">
<title>Node1&#45;&gt;Node10</title>
<g id="a_edge11_Node000001_Node000010"><a xlink:title=" ">
<path fill="none" stroke="#63b8ff" d="M630.75,-273.13C618.58,-271.34 605.87,-269.47 593.57,-267.65"/>
<polygon fill="#63b8ff" stroke="#63b8ff" points="630.42,-276.62 640.83,-274.62 631.44,-269.7 630.42,-276.62"/>
</a>
</g>
</g>
<!-- Node12 -->
<g id="Node000012" class="node">
<title>Node12</title>
<g id="a_Node000012"><a xlink:href="namespacepolyfem_1_1solver_1_1_adjoint_tools.html#a14d3c0d0d16d066ce42d2d8927bcf1b0" target="_top" xlink:title=" ">
<polygon fill="white" stroke="#666666" points="589.5,-218 444.5,-218 444.5,-177 589.5,-177 589.5,-218"/>
<text text-anchor="start" x="452.5" y="-206" font-family="Helvetica,sans-Serif" font-size="10.00">polyfem::solver::Adjoint</text>
<text text-anchor="start" x="452.5" y="-195" font-family="Helvetica,sans-Serif" font-size="10.00">Tools::dJ_friction_transient</text>
<text text-anchor="middle" x="517" y="-184" font-family="Helvetica,sans-Serif" font-size="10.00">_adjoint_term</text>
</a>
</g>
</g>
<!-- Node1&#45;&gt;Node12 -->
<g id="edge13_Node000001_Node000012" class="edge">
<title>Node1&#45;&gt;Node12</title>
<g id="a_edge13_Node000001_Node000012"><a xlink:title=" ">
<path fill="none" stroke="#63b8ff" d="M677.95,-268.32C658.92,-256.22 630.92,-239.39 605,-227.5 597.74,-224.17 590,-221 582.24,-218.04"/>
<polygon fill="#63b8ff" stroke="#63b8ff" points="676.22,-271.37 686.52,-273.84 680,-265.48 676.22,-271.37"/>
</a>
</g>
</g>
<!-- Node14 -->
<g id="Node000014" class="node">
<title>Node14</title>
<g id="a_Node000014"><a xlink:href="namespacepolyfem_1_1solver_1_1_adjoint_tools.html#a31c6ec8e220581716ecb4eb5268aff1d" target="_top" xlink:title=" ">
<polygon fill="white" stroke="#666666" points="593,-159 441,-159 441,-118 593,-118 593,-159"/>
<text text-anchor="start" x="449" y="-147" font-family="Helvetica,sans-Serif" font-size="10.00">polyfem::solver::Adjoint</text>
<text text-anchor="start" x="449" y="-136" font-family="Helvetica,sans-Serif" font-size="10.00">Tools::dJ_material_transient</text>
<text text-anchor="middle" x="517" y="-125" font-family="Helvetica,sans-Serif" font-size="10.00">_adjoint_term</text>
</a>
</g>
</g>
<!-- Node1&#45;&gt;Node14 -->
<g id="edge15_Node000001_Node000014" class="edge">
<title>Node1&#45;&gt;Node14</title>
<g id="a_edge15_Node000001_Node000014"><a xlink:title=" ">
<path fill="none" stroke="#63b8ff" d="M690.37,-265.39C674.72,-240.23 643.16,-194.81 605,-168.5 600,-165.05 594.57,-161.97 588.94,-159.22"/>
<polygon fill="#63b8ff" stroke="#63b8ff" points="687.39,-267.23 695.57,-273.97 693.38,-263.6 687.39,-267.23"/>
</a>
</g>
</g>
<!-- Node16 -->
<g id="Node000016" class="node">
<title>Node16</title>
<g id="a_Node000016"><a xlink:href="namespacepolyfem_1_1solver_1_1_adjoint_tools.html#aec611b09e97b2d0e50d4a0c4b4a10549" target="_top" xlink:title=" ">
<polygon fill="white" stroke="#666666" points="593,-100 441,-100 441,-59 593,-59 593,-100"/>
<text text-anchor="start" x="449" y="-88" font-family="Helvetica,sans-Serif" font-size="10.00">polyfem::solver::Adjoint</text>
<text text-anchor="start" x="449" y="-77" font-family="Helvetica,sans-Serif" font-size="10.00">Tools::dJ_pressure_transient</text>
<text text-anchor="middle" x="517" y="-66" font-family="Helvetica,sans-Serif" font-size="10.00">_adjoint_term</text>
</a>
</g>
</g>
<!-- Node1&#45;&gt;Node16 -->
<g id="edge17_Node000001_Node000016" class="edge">
<title>Node1&#45;&gt;Node16</title>
<g id="a_edge17_Node000001_Node000016"><a xlink:title=" ">
<path fill="none" stroke="#63b8ff" d="M695.37,-263.87C684.11,-228.07 655.49,-151.97 605,-109.5 600.84,-106 596.26,-102.91 591.43,-100.16"/>
<polygon fill="#63b8ff" stroke="#63b8ff" points="692.07,-265.04 698.31,-273.6 698.77,-263.02 692.07,-265.04"/>
</a>
</g>
</g>
<!-- Node18 -->
<g id="Node000018" class="node">
<title>Node18</title>
<g id="a_Node000018"><a xlink:href="namespacepolyfem_1_1solver_1_1_adjoint_tools.html#ae665488238c7ed38d341739d212f0af1" target="_top" xlink:title=" ">
<polygon fill="white" stroke="#666666" points="587,-41 447,-41 447,0 587,0 587,-41"/>
<text text-anchor="start" x="455" y="-29" font-family="Helvetica,sans-Serif" font-size="10.00">polyfem::solver::Adjoint</text>
<text text-anchor="start" x="455" y="-18" font-family="Helvetica,sans-Serif" font-size="10.00">Tools::dJ_shape_transient</text>
<text text-anchor="middle" x="517" y="-7" font-family="Helvetica,sans-Serif" font-size="10.00">_adjoint_term</text>
</a>
</g>
</g>
<!-- Node1&#45;&gt;Node18 -->
<g id="edge19_Node000001_Node000018" class="edge">
<title>Node1&#45;&gt;Node18</title>
<g id="a_edge19_Node000001_Node000018"><a xlink:title=" ">
<path fill="none" stroke="#63b8ff" d="M698.49,-263.78C691.79,-219.15 669.34,-109.63 605,-49.5 599.77,-44.61 593.68,-40.54 587.21,-37.16"/>
<polygon fill="#63b8ff" stroke="#63b8ff" points="695.06,-264.46 699.91,-273.88 701.99,-263.5 695.06,-264.46"/>
</a>
</g>
</g>
<!-- Node3 -->
<g id="Node000003" class="node">
<title>Node3</title>
<g id="a_Node000003"><a xlink:href="classpolyfem_1_1_diff_cache.html#ad380efb2b3352099cc2f5e5f352987d8" target="_top" xlink:title="Cache time&#45;dependent adjoint optimization data.">
<polygon fill="white" stroke="#666666" points="350,-481.5 240,-481.5 240,-451.5 350,-451.5 350,-481.5"/>
<text text-anchor="start" x="248" y="-469.5" font-family="Helvetica,sans-Serif" font-size="10.00">polyfem::DiffCache</text>
<text text-anchor="middle" x="295" y="-458.5" font-family="Helvetica,sans-Serif" font-size="10.00">::cache_transient</text>
</a>
</g>
</g>
<!-- Node2&#45;&gt;Node3 -->
<g id="edge2_Node000002_Node000003" class="edge">
<title>Node2&#45;&gt;Node3</title>
<g id="a_edge2_Node000002_Node000003"><a xlink:title=" ">
<path fill="none" stroke="#63b8ff" d="M436.95,-497.25C408.14,-490.97 376.26,-484.01 350.11,-478.31"/>
<polygon fill="#63b8ff" stroke="#63b8ff" points="436.48,-500.73 446.99,-499.44 437.97,-493.89 436.48,-500.73"/>
</a>
</g>
</g>
<!-- Node4&#45;&gt;Node3 -->
<g id="edge4_Node000004_Node000003" class="edge">
<title>Node4&#45;&gt;Node3</title>
<g id="a_edge4_Node000004_Node000003"><a xlink:title=" ">
<path fill="none" stroke="#63b8ff" d="M438.34,-466.5C409.18,-466.5 376.69,-466.5 350.12,-466.5"/>
<polygon fill="#63b8ff" stroke="#63b8ff" points="438.5,-470 448.5,-466.5 438.5,-463 438.5,-470"/>
</a>
</g>
</g>
<!-- Node5&#45;&gt;Node3 -->
<g id="edge6_Node000005_Node000003" class="edge">
<title>Node5&#45;&gt;Node3</title>
<g id="a_edge6_Node000005_Node000003"><a xlink:title=" ">
<path fill="none" stroke="#63b8ff" d="M436.95,-435.75C408.14,-442.03 376.26,-448.99 350.11,-454.69"/>
<polygon fill="#63b8ff" stroke="#63b8ff" points="437.97,-439.11 446.99,-433.56 436.48,-432.27 437.97,-439.11"/>
</a>
</g>
</g>
<!-- Node7 -->
<g id="Node000007" class="node">
<title>Node7</title>
<g id="a_Node000007"><a xlink:href="classpolyfem_1_1solver_1_1_spatial_integral_form.html#acd253fe5ef90f51233b5f3c90d878549" target="_top" xlink:title=" ">
<polygon fill="white" stroke="#666666" points="361.5,-385 228.5,-385 228.5,-344 361.5,-344 361.5,-385"/>
<text text-anchor="start" x="236.5" y="-373" font-family="Helvetica,sans-Serif" font-size="10.00">polyfem::solver::Spatial</text>
<text text-anchor="start" x="236.5" y="-362" font-family="Helvetica,sans-Serif" font-size="10.00">IntegralForm::compute</text>
<text text-anchor="middle" x="295" y="-351" font-family="Helvetica,sans-Serif" font-size="10.00">_partial_gradient_step</text>
</a>
</g>
</g>
<!-- Node6&#45;&gt;Node7 -->
<g id="edge8_Node000006_Node000007" class="edge">
<title>Node6&#45;&gt;Node7</title>
<g id="a_edge8_Node000006_Node000007"><a xlink:title=" ">
<path fill="none" stroke="#63b8ff" d="M440.28,-364.5C414.74,-364.5 386.46,-364.5 361.75,-364.5"/>
<polygon fill="#63b8ff" stroke="#63b8ff" points="440.29,-368 450.29,-364.5 440.29,-361 440.29,-368"/>
</a>
</g>
</g>
<!-- Node8 -->
<g id="Node000008" class="node">
<title>Node8</title>
<g id="a_Node000008"><a xlink:href="classpolyfem_1_1solver_1_1_elastic_energy_form.html#a0490bfb58244e2aa95ae93087a855ec2" target="_top" xlink:title=" ">
<polygon fill="white" stroke="#666666" points="161,-385 0,-385 0,-344 161,-344 161,-385"/>
<text text-anchor="start" x="8" y="-373" font-family="Helvetica,sans-Serif" font-size="10.00">polyfem::solver::Elastic</text>
<text text-anchor="start" x="8" y="-362" font-family="Helvetica,sans-Serif" font-size="10.00">EnergyForm::compute_partial</text>
<text text-anchor="middle" x="80.5" y="-351" font-family="Helvetica,sans-Serif" font-size="10.00">_gradient_step</text>
</a>
</g>
</g>
<!-- Node7&#45;&gt;Node8 -->
<g id="edge9_Node000007_Node000008" class="edge">
<title>Node7&#45;&gt;Node8</title>
<g id="a_edge9_Node000007_Node000008"><a xlink:title=" ">
<path fill="none" stroke="#63b8ff" d="M218.11,-364.5C199.63,-364.5 179.82,-364.5 161.17,-364.5"/>
<polygon fill="#63b8ff" stroke="#63b8ff" points="218.22,-368 228.22,-364.5 218.22,-361 218.22,-368"/>
</a>
</g>
</g>
<!-- Node11 -->
<g id="Node000011" class="node">
<title>Node11</title>
<g id="a_Node000011"><a xlink:href="classpolyfem_1_1solver_1_1_damping_variable_to_simulation.html#ad8fff6bcbcf34fe4809e08d77a418a20" target="_top" xlink:title="Compute adjoint contribution of objective gradient.">
<polygon fill="white" stroke="#666666" points="366.5,-277 223.5,-277 223.5,-236 366.5,-236 366.5,-277"/>
<text text-anchor="start" x="231.5" y="-265" font-family="Helvetica,sans-Serif" font-size="10.00">polyfem::solver::Damping</text>
<text text-anchor="start" x="231.5" y="-254" font-family="Helvetica,sans-Serif" font-size="10.00">VariableToSimulation::</text>
<text text-anchor="middle" x="295" y="-243" font-family="Helvetica,sans-Serif" font-size="10.00">compute_adjoint_term</text>
</a>
</g>
</g>
<!-- Node10&#45;&gt;Node11 -->
<g id="edge12_Node000010_Node000011" class="edge">
<title>Node10&#45;&gt;Node11</title>
<g id="a_edge12_Node000010_Node000011"><a xlink:title=" ">
<path fill="none" stroke="#63b8ff" d="M430.09,-256.5C409.09,-256.5 386.86,-256.5 366.67,-256.5"/>
<polygon fill="#63b8ff" stroke="#63b8ff" points="430.29,-260 440.29,-256.5 430.29,-253 430.29,-260"/>
</a>
</g>
</g>
<!-- Node13 -->
<g id="Node000013" class="node">
<title>Node13</title>
<g id="a_Node000013"><a xlink:href="classpolyfem_1_1solver_1_1_friction_variable_to_simulation.html#a10b492083529412dfc645e3cf450cf92" target="_top" xlink:title="Compute adjoint contribution of objective gradient.">
<polygon fill="white" stroke="#666666" points="379,-218 211,-218 211,-177 379,-177 379,-218"/>
<text text-anchor="start" x="219" y="-206" font-family="Helvetica,sans-Serif" font-size="10.00">polyfem::solver::Friction</text>
<text text-anchor="start" x="219" y="-195" font-family="Helvetica,sans-Serif" font-size="10.00">VariableToSimulation::compute</text>
<text text-anchor="middle" x="295" y="-184" font-family="Helvetica,sans-Serif" font-size="10.00">_adjoint_term</text>
</a>
</g>
</g>
<!-- Node12&#45;&gt;Node13 -->
<g id="edge14_Node000012_Node000013" class="edge">
<title>Node12&#45;&gt;Node13</title>
<g id="a_edge14_Node000012_Node000013"><a xlink:title=" ">
<path fill="none" stroke="#63b8ff" d="M434.12,-197.5C416.15,-197.5 397.11,-197.5 379.1,-197.5"/>
<polygon fill="#63b8ff" stroke="#63b8ff" points="434.27,-201 444.27,-197.5 434.27,-194 434.27,-201"/>
</a>
</g>
</g>
<!-- Node15 -->
<g id="Node000015" class="node">
<title>Node15</title>
<g id="a_Node000015"><a xlink:href="classpolyfem_1_1solver_1_1_elastic_variable_to_simulation.html#a22c326ff74722077734beaccc1301647" target="_top" xlink:title="Compute adjoint contribution of objective gradient.">
<polygon fill="white" stroke="#666666" points="360.5,-159 229.5,-159 229.5,-118 360.5,-118 360.5,-159"/>
<text text-anchor="start" x="237.5" y="-147" font-family="Helvetica,sans-Serif" font-size="10.00">polyfem::solver::Elastic</text>
<text text-anchor="start" x="237.5" y="-136" font-family="Helvetica,sans-Serif" font-size="10.00">VariableToSimulation::</text>
<text text-anchor="middle" x="295" y="-125" font-family="Helvetica,sans-Serif" font-size="10.00">compute_adjoint_term</text>
</a>
</g>
</g>
<!-- Node14&#45;&gt;Node15 -->
<g id="edge16_Node000014_Node000015" class="edge">
<title>Node14&#45;&gt;Node15</title>
<g id="a_edge16_Node000014_Node000015"><a xlink:title=" ">
<path fill="none" stroke="#63b8ff" d="M430.71,-138.5C407.49,-138.5 382.73,-138.5 360.85,-138.5"/>
<polygon fill="#63b8ff" stroke="#63b8ff" points="430.9,-142 440.9,-138.5 430.9,-135 430.9,-142"/>
</a>
</g>
</g>
<!-- Node17 -->
<g id="Node000017" class="node">
<title>Node17</title>
<g id="a_Node000017"><a xlink:href="classpolyfem_1_1solver_1_1_pressure_boundary_variable_to_simulation.html#a2146118b2316398172c661a104df6e15" target="_top" xlink:title="Compute adjoint contribution of objective gradient.">
<polygon fill="white" stroke="#666666" points="378,-100 212,-100 212,-59 378,-59 378,-100"/>
<text text-anchor="start" x="220" y="-88" font-family="Helvetica,sans-Serif" font-size="10.00">polyfem::solver::Pressure</text>
<text text-anchor="start" x="220" y="-77" font-family="Helvetica,sans-Serif" font-size="10.00">BoundaryVariableToSimulation</text>
<text text-anchor="middle" x="295" y="-66" font-family="Helvetica,sans-Serif" font-size="10.00">::compute_adjoint_term</text>
</a>
</g>
</g>
<!-- Node16&#45;&gt;Node17 -->
<g id="edge18_Node000016_Node000017" class="edge">
<title>Node16&#45;&gt;Node17</title>
<g id="a_edge18_Node000016_Node000017"><a xlink:title=" ">
<path fill="none" stroke="#63b8ff" d="M430.85,-79.5C413.59,-79.5 395.46,-79.5 378.29,-79.5"/>
<polygon fill="#63b8ff" stroke="#63b8ff" points="430.9,-83 440.9,-79.5 430.9,-76 430.9,-83"/>
</a>
</g>
</g>
<!-- Node19 -->
<g id="Node000019" class="node">
<title>Node19</title>
<g id="a_Node000019"><a xlink:href="classpolyfem_1_1solver_1_1_shape_variable_to_simulation.html#a9f5762367356019c956b2d04f86e4794" target="_top" xlink:title="Compute adjoint contribution of objective gradient.">
<polygon fill="white" stroke="#666666" points="393,-35.5 197,-35.5 197,-5.5 393,-5.5 393,-35.5"/>
<text text-anchor="start" x="205" y="-23.5" font-family="Helvetica,sans-Serif" font-size="10.00">polyfem::solver::ShapeVariable</text>
<text text-anchor="middle" x="295" y="-12.5" font-family="Helvetica,sans-Serif" font-size="10.00">ToSimulation::compute_adjoint_term</text>
</a>
</g>
</g>
<!-- Node18&#45;&gt;Node19 -->
<g id="edge20_Node000018_Node000019" class="edge">
<title>Node18&#45;&gt;Node19</title>
<g id="a_edge20_Node000018_Node000019"><a xlink:title=" ">
<path fill="none" stroke="#63b8ff" d="M436.87,-20.5C422.76,-20.5 407.91,-20.5 393.37,-20.5"/>
<polygon fill="#63b8ff" stroke="#63b8ff" points="436.99,-24 446.99,-20.5 436.99,-17 436.99,-24"/>
</a>
</g>
</g>
</g>
</svg>
