<?xml version="1.0" encoding="UTF-8" standalone="no"?>
<!DOCTYPE svg PUBLIC "-//W3C//DTD SVG 1.1//EN"
 "http://www.w3.org/Graphics/SVG/1.1/DTD/svg11.dtd">
<!-- Generated by graphviz version 2.43.0 (0)
 -->
<!-- Title: polyfem::basis::QuadraticBSpline3d::interpolate Pages: 1 -->
<svg width="328pt" height="57pt"
 viewBox="0.00 0.00 328.00 57.00" xmlns="http://www.w3.org/2000/svg" xmlns:xlink="http://www.w3.org/1999/xlink">
<g id="graph0" class="graph" transform="scale(1 1) rotate(0) translate(4 53)">
<title>polyfem::basis::QuadraticBSpline3d::interpolate</title>
<!-- Node1 -->
<g id="node1" class="node">
<title>Node1</title>
<g id="a_node1"><a xlink:title=" ">
<polygon fill="#bfbfbf" stroke="black" points="0,-0.5 0,-30.5 142,-30.5 142,-0.5 0,-0.5"/>
<text text-anchor="start" x="8" y="-18.5" font-family="Helvetica,sans-Serif" font-size="10.00">polyfem::basis::Quadratic</text>
<text text-anchor="middle" x="71" y="-7.5" font-family="Helvetica,sans-Serif" font-size="10.00">BSpline3d::interpolate</text>
</a>
</g>
</g>
<!-- Node2 -->
<g id="node2" class="node">
<title>Node2</title>
<g id="a_node2"><a xlink:href="classpolyfem_1_1basis_1_1_quadratic_b_spline.html#a29e9bd02780bf46faa2384cf93bf0fd9" target="_top" xlink:title=" ">
<polygon fill="none" stroke="black" points="178,-0.5 178,-30.5 320,-30.5 320,-0.5 178,-0.5"/>
<text text-anchor="start" x="186" y="-18.5" font-family="Helvetica,sans-Serif" font-size="10.00">polyfem::basis::Quadratic</text>
<text text-anchor="middle" x="249" y="-7.5" font-family="Helvetica,sans-Serif" font-size="10.00">BSpline::interpolate</text>
</a>
</g>
</g>
<!-- Node1&#45;&gt;Node2 -->
<g id="edge1" class="edge">
<title>Node1&#45;&gt;Node2</title>
<path fill="none" stroke="midnightblue" d="M142.07,-15.5C150.54,-15.5 159.25,-15.5 167.85,-15.5"/>
<polygon fill="midnightblue" stroke="midnightblue" points="167.89,-19 177.89,-15.5 167.89,-12 167.89,-19"/>
</g>
<!-- Node2&#45;&gt;Node2 -->
<g id="edge2" class="edge">
<title>Node2&#45;&gt;Node2</title>
<path fill="none" stroke="midnightblue" d="M217.98,-30.66C210.5,-40.06 220.84,-49 249,-49 266.16,-49 276.7,-45.68 280.63,-40.96"/>
<polygon fill="midnightblue" stroke="midnightblue" points="284.1,-40.44 280.02,-30.66 277.12,-40.85 284.1,-40.44"/>
</g>
</g>
</svg>
