<?xml version="1.0" encoding="UTF-8" standalone="no"?>
<!DOCTYPE svg PUBLIC "-//W3C//DTD SVG 1.1//EN"
 "http://www.w3.org/Graphics/SVG/1.1/DTD/svg11.dtd">
<!-- Generated by graphviz version 2.43.0 (0)
 -->
<!-- Title: polyfem::solver::ElasticForm::value_unweighted Pages: 1 -->
<svg width="609pt" height="86pt"
 viewBox="0.00 0.00 609.00 86.00" xmlns="http://www.w3.org/2000/svg" xmlns:xlink="http://www.w3.org/1999/xlink">
<g id="graph0" class="graph" transform="scale(1 1) rotate(0) translate(4 82)">
<title>polyfem::solver::ElasticForm::value_unweighted</title>
<!-- Node1 -->
<g id="node1" class="node">
<title>Node1</title>
<g id="a_node1"><a xlink:title="Compute the elastic potential value.">
<polygon fill="#999999" stroke="#666666" points="137,-54 0,-54 0,-24 137,-24 137,-54"/>
<text text-anchor="start" x="8" y="-42" font-family="Helvetica,sans-Serif" font-size="10.00">polyfem::solver::Elastic</text>
<text text-anchor="middle" x="68.5" y="-31" font-family="Helvetica,sans-Serif" font-size="10.00">Form::value_unweighted</text>
</a>
</g>
</g>
<!-- Node2 -->
<g id="node2" class="node">
<title>Node2</title>
<g id="a_node2"><a xlink:href="classpolyfem_1_1assembler_1_1_assembler.html#a1c049eeffcf6e33adab761c3c7f3d051" target="_top" xlink:title=" ">
<polygon fill="white" stroke="#666666" points="301,-59.5 173,-59.5 173,-18.5 301,-18.5 301,-59.5"/>
<text text-anchor="start" x="181" y="-47.5" font-family="Helvetica,sans-Serif" font-size="10.00">polyfem::assembler</text>
<text text-anchor="start" x="181" y="-36.5" font-family="Helvetica,sans-Serif" font-size="10.00">::Assembler::assemble</text>
<text text-anchor="middle" x="237" y="-25.5" font-family="Helvetica,sans-Serif" font-size="10.00">_energy</text>
</a>
</g>
</g>
<!-- Node1&#45;&gt;Node2 -->
<g id="edge1" class="edge">
<title>Node1&#45;&gt;Node2</title>
<path fill="none" stroke="#63b8ff" d="M137.22,-39C145.61,-39 154.21,-39 162.67,-39"/>
<polygon fill="#63b8ff" stroke="#63b8ff" points="162.91,-42.5 172.91,-39 162.91,-35.5 162.91,-42.5"/>
</g>
<!-- Node3 -->
<g id="node3" class="node">
<title>Node3</title>
<g id="a_node3"><a xlink:href="namespacepolyfem.html#adc7e749e0c40939b7323961c6a41e391" target="_top" xlink:title=" ">
<polygon fill="white" stroke="#666666" points="471,-78 337,-78 337,-48 471,-48 471,-78"/>
<text text-anchor="start" x="345" y="-66" font-family="Helvetica,sans-Serif" font-size="10.00">polyfem::log_and_throw</text>
<text text-anchor="middle" x="404" y="-55" font-family="Helvetica,sans-Serif" font-size="10.00">_error</text>
</a>
</g>
</g>
<!-- Node2&#45;&gt;Node3 -->
<g id="edge2" class="edge">
<title>Node2&#45;&gt;Node3</title>
<path fill="none" stroke="#63b8ff" d="M301.32,-48.21C309.68,-49.43 318.32,-50.68 326.87,-51.93"/>
<polygon fill="#63b8ff" stroke="#63b8ff" points="326.44,-55.4 336.84,-53.38 327.45,-48.47 326.44,-55.4"/>
</g>
<!-- Node5 -->
<g id="node5" class="node">
<title>Node5</title>
<g id="a_node5"><a xlink:href="classpolyfem_1_1assembler_1_1_assembler.html#a7c54d99815b988e2ca1bc05c1e202f69" target="_top" xlink:title=" ">
<polygon fill="white" stroke="#666666" points="461,-30 347,-30 347,0 461,0 461,-30"/>
<text text-anchor="start" x="355" y="-18" font-family="Helvetica,sans-Serif" font-size="10.00">polyfem::assembler</text>
<text text-anchor="middle" x="404" y="-7" font-family="Helvetica,sans-Serif" font-size="10.00">::Assembler::name</text>
</a>
</g>
</g>
<!-- Node2&#45;&gt;Node5 -->
<g id="edge4" class="edge">
<title>Node2&#45;&gt;Node5</title>
<path fill="none" stroke="#63b8ff" d="M301.32,-29.79C312.92,-28.1 325.05,-26.34 336.73,-24.64"/>
<polygon fill="#63b8ff" stroke="#63b8ff" points="337.47,-28.07 346.86,-23.17 336.46,-21.14 337.47,-28.07"/>
</g>
<!-- Node4 -->
<g id="node4" class="node">
<title>Node4</title>
<g id="a_node4"><a xlink:href="namespacepolyfem.html#a03f3d75072d2fd19f70cd886a51d10dd" target="_top" xlink:title="Retrieves the current logger.">
<polygon fill="white" stroke="#666666" points="601,-72.5 507,-72.5 507,-53.5 601,-53.5 601,-72.5"/>
<text text-anchor="middle" x="554" y="-60.5" font-family="Helvetica,sans-Serif" font-size="10.00">polyfem::logger</text>
</a>
</g>
</g>
<!-- Node3&#45;&gt;Node4 -->
<g id="edge3" class="edge">
<title>Node3&#45;&gt;Node4</title>
<path fill="none" stroke="#63b8ff" d="M471.21,-63C479.74,-63 488.42,-63 496.77,-63"/>
<polygon fill="#63b8ff" stroke="#63b8ff" points="496.77,-66.5 506.77,-63 496.77,-59.5 496.77,-66.5"/>
</g>
</g>
</svg>
