<?xml version="1.0" encoding="UTF-8" standalone="no"?>
<!DOCTYPE svg PUBLIC "-//W3C//DTD SVG 1.1//EN"
 "http://www.w3.org/Graphics/SVG/1.1/DTD/svg11.dtd">
<!-- Generated by graphviz version 2.43.0 (0)
 -->
<!-- Title: polyfem::mesh::Obstacle::n_vertices Pages: 1 -->
<svg width="1910pt" height="592pt"
 viewBox="0.00 0.00 1910.00 591.51" xmlns="http://www.w3.org/2000/svg" xmlns:xlink="http://www.w3.org/1999/xlink">
<g id="graph0" class="graph" transform="scale(1 1) rotate(0) translate(4 587.51)">
<title>polyfem::mesh::Obstacle::n_vertices</title>
<!-- Node1 -->
<g id="Node000001" class="node">
<title>Node1</title>
<g id="a_Node000001"><a xlink:title=" ">
<polygon fill="#999999" stroke="#666666" points="1902,-342.5 1763,-342.5 1763,-312.5 1902,-312.5 1902,-342.5"/>
<text text-anchor="start" x="1771" y="-330.5" font-family="Helvetica,sans-Serif" font-size="10.00">polyfem::mesh::Obstacle</text>
<text text-anchor="middle" x="1832.5" y="-319.5" font-family="Helvetica,sans-Serif" font-size="10.00">::n_vertices</text>
</a>
</g>
</g>
<!-- Node2 -->
<g id="Node000002" class="node">
<title>Node2</title>
<g id="a_Node000002"><a xlink:href="classpolyfem_1_1_state.html#a75cfcf28f3bc27e8e30b41c7347c799b" target="_top" xlink:title="builds the bases step 2 of solve modifies bases, pressure_bases, geom_bases_, boundary_nodes,...">
<polygon fill="white" stroke="#666666" points="934.5,-582.5 815.5,-582.5 815.5,-552.5 934.5,-552.5 934.5,-582.5"/>
<text text-anchor="start" x="823.5" y="-570.5" font-family="Helvetica,sans-Serif" font-size="10.00">polyfem::State::build</text>
<text text-anchor="middle" x="875" y="-559.5" font-family="Helvetica,sans-Serif" font-size="10.00">_basis</text>
</a>
</g>
</g>
<!-- Node1&#45;&gt;Node2 -->
<g id="edge1_Node000001_Node000002" class="edge">
<title>Node1&#45;&gt;Node2</title>
<g id="a_edge1_Node000001_Node000002"><a xlink:title=" ">
<path fill="none" stroke="#63b8ff" d="M1827.51,-352.63C1818.68,-399.04 1792.8,-497.52 1727,-542.5 1618.04,-616.99 1562.99,-566.5 1431,-566.5 1431,-566.5 1431,-566.5 1234,-566.5 1128.5,-566.5 1005.5,-566.94 934.6,-567.24"/>
<polygon fill="#63b8ff" stroke="#63b8ff" points="1830.96,-353.25 1829.27,-342.79 1824.07,-352.01 1830.96,-353.25"/>
</a>
</g>
</g>
<!-- Node5 -->
<g id="Node000005" class="node">
<title>Node5</title>
<g id="a_Node000005"><a xlink:href="classpolyfem_1_1_state.html#a5ddafd77c68a90e74e41d4591f387f75" target="_top" xlink:title="Remesh the FE space and update solution(s).">
<polygon fill="white" stroke="#666666" points="767,-502 636,-502 636,-483 767,-483 767,-502"/>
<text text-anchor="middle" x="701.5" y="-490" font-family="Helvetica,sans-Serif" font-size="10.00">polyfem::State::remesh</text>
</a>
</g>
</g>
<!-- Node1&#45;&gt;Node5 -->
<g id="edge53_Node000001_Node000005" class="edge">
<title>Node1&#45;&gt;Node5</title>
<g id="a_edge53_Node000001_Node000005"><a xlink:title=" ">
<path fill="none" stroke="#63b8ff" d="M1825.7,-352.46C1814.61,-393.81 1786.03,-475.33 1727,-509.5 1644.35,-557.35 979.43,-512.96 767.29,-497.41"/>
<polygon fill="#63b8ff" stroke="#63b8ff" points="1829.13,-353.19 1828.21,-342.64 1822.35,-351.46 1829.13,-353.19"/>
</a>
</g>
</g>
<!-- Node9 -->
<g id="Node000009" class="node">
<title>Node9</title>
<g id="a_Node000009"><a xlink:href="classpolyfem_1_1_state.html#a0dfe8b477867a13f17afb35bd4309508" target="_top" xlink:title="extracts the boundary mesh for collision, called in build_basis">
<polygon fill="white" stroke="#666666" points="1699.5,-500.5 1580.5,-500.5 1580.5,-470.5 1699.5,-470.5 1699.5,-500.5"/>
<text text-anchor="start" x="1588.5" y="-488.5" font-family="Helvetica,sans-Serif" font-size="10.00">polyfem::State::build</text>
<text text-anchor="middle" x="1640" y="-477.5" font-family="Helvetica,sans-Serif" font-size="10.00">_collision_mesh</text>
</a>
</g>
</g>
<!-- Node1&#45;&gt;Node9 -->
<g id="edge9_Node000001_Node000009" class="edge">
<title>Node1&#45;&gt;Node9</title>
<g id="a_edge9_Node000001_Node000009"><a xlink:title=" ">
<path fill="none" stroke="#63b8ff" d="M1818.11,-351.19C1800.67,-380.01 1767.57,-428.29 1727,-456.5 1718.72,-462.26 1709.21,-466.95 1699.59,-470.75"/>
<polygon fill="#63b8ff" stroke="#63b8ff" points="1821.13,-352.96 1823.21,-342.57 1815.1,-349.39 1821.13,-352.96"/>
</a>
</g>
</g>
<!-- Node10 -->
<g id="Node000010" class="node">
<title>Node10</title>
<g id="a_Node000010"><a xlink:href="classpolyfem_1_1_state.html#af7ea31cd189fb4a3aae03471e00db305" target="_top" xlink:title="Build the mesh matrices (vertices and elements) from the mesh using the bases node ordering.">
<polygon fill="white" stroke="#666666" points="934.5,-469.5 815.5,-469.5 815.5,-439.5 934.5,-439.5 934.5,-469.5"/>
<text text-anchor="start" x="823.5" y="-457.5" font-family="Helvetica,sans-Serif" font-size="10.00">polyfem::State::build</text>
<text text-anchor="middle" x="875" y="-446.5" font-family="Helvetica,sans-Serif" font-size="10.00">_mesh_matrices</text>
</a>
</g>
</g>
<!-- Node1&#45;&gt;Node10 -->
<g id="edge10_Node000001_Node000010" class="edge">
<title>Node1&#45;&gt;Node10</title>
<g id="a_edge10_Node000001_Node000010"><a xlink:title=" ">
<path fill="none" stroke="#63b8ff" d="M1814.46,-350.45C1795.84,-373.51 1763.73,-407.82 1727,-423.5 1605.76,-475.27 1562.83,-442.5 1431,-442.5 1431,-442.5 1431,-442.5 1234,-442.5 1128.44,-442.5 1005.46,-447.78 934.58,-451.33"/>
<polygon fill="#63b8ff" stroke="#63b8ff" points="1817.26,-352.54 1820.69,-342.51 1811.76,-348.21 1817.26,-352.54"/>
</a>
</g>
</g>
<!-- Node11 -->
<g id="Node000011" class="node">
<title>Node11</title>
<g id="a_Node000011"><a xlink:href="classpolyfem_1_1mesh_1_1_local_relaxation_data.html#ae404ad11c4eceff8c6777edaa6675c43" target="_top" xlink:title=" ">
<polygon fill="white" stroke="#666666" points="1727,-414.5 1553,-414.5 1553,-384.5 1727,-384.5 1727,-414.5"/>
<text text-anchor="start" x="1561" y="-402.5" font-family="Helvetica,sans-Serif" font-size="10.00">polyfem::mesh::LocalRelaxation</text>
<text text-anchor="middle" x="1640" y="-391.5" font-family="Helvetica,sans-Serif" font-size="10.00">Data::init_boundary_conditions</text>
</a>
</g>
</g>
<!-- Node1&#45;&gt;Node11 -->
<g id="edge13_Node000001_Node000011" class="edge">
<title>Node1&#45;&gt;Node11</title>
<g id="a_edge13_Node000001_Node000011"><a xlink:title=" ">
<path fill="none" stroke="#63b8ff" d="M1792.71,-347.1C1773.29,-356.45 1749.23,-367.35 1727,-375.5 1718.27,-378.7 1708.9,-381.72 1699.69,-384.47"/>
<polygon fill="#63b8ff" stroke="#63b8ff" points="1794.39,-350.17 1801.85,-342.65 1791.33,-343.88 1794.39,-350.17"/>
</a>
</g>
</g>
<!-- Node13 -->
<g id="Node000013" class="node">
<title>Node13</title>
<g id="a_Node000013"><a xlink:href="classpolyfem_1_1_state.html#acd8e8dc2e05969c2e9901ba03bfcb48d" target="_top" xlink:title="checks if vertex is obstacle">
<polygon fill="white" stroke="#666666" points="1691.5,-366.5 1588.5,-366.5 1588.5,-336.5 1691.5,-336.5 1691.5,-366.5"/>
<text text-anchor="start" x="1596.5" y="-354.5" font-family="Helvetica,sans-Serif" font-size="10.00">polyfem::State::is</text>
<text text-anchor="middle" x="1640" y="-343.5" font-family="Helvetica,sans-Serif" font-size="10.00">_obstacle_vertex</text>
</a>
</g>
</g>
<!-- Node1&#45;&gt;Node13 -->
<g id="edge15_Node000001_Node000013" class="edge">
<title>Node1&#45;&gt;Node13</title>
<g id="a_edge15_Node000001_Node000013"><a xlink:title=" ">
<path fill="none" stroke="#63b8ff" d="M1752.93,-337.4C1732.2,-340.01 1710.39,-342.76 1691.58,-345.13"/>
<polygon fill="#63b8ff" stroke="#63b8ff" points="1753.51,-340.85 1762.99,-336.13 1752.64,-333.91 1753.51,-340.85"/>
</a>
</g>
</g>
<!-- Node14 -->
<g id="Node000014" class="node">
<title>Node14</title>
<g id="a_Node000014"><a xlink:href="classpolyfem_1_1mesh_1_1_local_mesh.html#ab3fb40092b83bb590a909e977796368d" target="_top" xlink:title=" ">
<polygon fill="white" stroke="#666666" points="1714,-318.5 1566,-318.5 1566,-288.5 1714,-288.5 1714,-318.5"/>
<text text-anchor="start" x="1574" y="-306.5" font-family="Helvetica,sans-Serif" font-size="10.00">polyfem::mesh::LocalMesh</text>
<text text-anchor="middle" x="1640" y="-295.5" font-family="Helvetica,sans-Serif" font-size="10.00">::LocalMesh</text>
</a>
</g>
</g>
<!-- Node1&#45;&gt;Node14 -->
<g id="edge16_Node000001_Node000014" class="edge">
<title>Node1&#45;&gt;Node14</title>
<g id="a_edge16_Node000001_Node000014"><a xlink:title=" ">
<path fill="none" stroke="#63b8ff" d="M1752.81,-317.59C1739.98,-315.97 1726.73,-314.3 1714.05,-312.7"/>
<polygon fill="#63b8ff" stroke="#63b8ff" points="1752.64,-321.09 1762.99,-318.87 1753.51,-314.15 1752.64,-321.09"/>
</a>
</g>
</g>
<!-- Node15 -->
<g id="Node000015" class="node">
<title>Node15</title>
<g id="a_Node000015"><a xlink:href="classpolyfem_1_1mesh_1_1_obstacle.html#a7e4641b4e7d3130e1618237978eee875" target="_top" xlink:title=" ">
<polygon fill="white" stroke="#666666" points="1709.5,-232.5 1570.5,-232.5 1570.5,-202.5 1709.5,-202.5 1709.5,-232.5"/>
<text text-anchor="start" x="1578.5" y="-220.5" font-family="Helvetica,sans-Serif" font-size="10.00">polyfem::mesh::Obstacle</text>
<text text-anchor="middle" x="1640" y="-209.5" font-family="Helvetica,sans-Serif" font-size="10.00">::ndof</text>
</a>
</g>
</g>
<!-- Node1&#45;&gt;Node15 -->
<g id="edge17_Node000001_Node000015" class="edge">
<title>Node1&#45;&gt;Node15</title>
<g id="a_edge17_Node000001_Node000015"><a xlink:title=" ">
<path fill="none" stroke="#63b8ff" d="M1808.23,-305.74C1788.04,-287.81 1757.36,-262.78 1727,-246.5 1717,-241.14 1705.83,-236.5 1694.92,-232.6"/>
<polygon fill="#63b8ff" stroke="#63b8ff" points="1805.92,-308.37 1815.69,-312.46 1810.6,-303.17 1805.92,-308.37"/>
</a>
</g>
</g>
<!-- Node19 -->
<g id="Node000019" class="node">
<title>Node19</title>
<g id="a_Node000019"><a xlink:href="classpolyfem_1_1mesh_1_1_remesher.html#a60ab7872593bdf1951408bbd870526e4" target="_top" xlink:title="Update the mesh positions and other projection quantities.">
<polygon fill="white" stroke="#666666" points="1503,-356.5 1357,-356.5 1357,-326.5 1503,-326.5 1503,-356.5"/>
<text text-anchor="start" x="1365" y="-344.5" font-family="Helvetica,sans-Serif" font-size="10.00">polyfem::mesh::Remesher</text>
<text text-anchor="middle" x="1430" y="-333.5" font-family="Helvetica,sans-Serif" font-size="10.00">::project_quantities</text>
</a>
</g>
</g>
<!-- Node1&#45;&gt;Node19 -->
<g id="edge52_Node000001_Node000019" class="edge">
<title>Node1&#45;&gt;Node19</title>
<g id="a_edge52_Node000001_Node000019"><a xlink:title=" ">
<path fill="none" stroke="#63b8ff" d="M1797.86,-307.54C1777.99,-296.92 1751.92,-284.95 1727,-279.5 1651.45,-262.98 1625.07,-251.46 1553,-279.5 1532.77,-287.37 1535.69,-301.46 1517,-312.5 1507.77,-317.95 1497.38,-322.55 1487.09,-326.37"/>
<polygon fill="#63b8ff" stroke="#63b8ff" points="1796.36,-310.7 1806.81,-312.45 1799.73,-304.57 1796.36,-310.7"/>
</a>
</g>
</g>
<!-- Node20 -->
<g id="Node000020" class="node">
<title>Node20</title>
<g id="a_Node000020"><a xlink:href="classpolyfem_1_1io_1_1_out_geometry_data.html#a938439e2cebaf08e7d5e0437c603164e" target="_top" xlink:title="saves the volume vtu file">
<polygon fill="white" stroke="#666666" points="1307,-207.5 1163,-207.5 1163,-177.5 1307,-177.5 1307,-207.5"/>
<text text-anchor="start" x="1171" y="-195.5" font-family="Helvetica,sans-Serif" font-size="10.00">polyfem::io::OutGeometry</text>
<text text-anchor="middle" x="1235" y="-184.5" font-family="Helvetica,sans-Serif" font-size="10.00">Data::save_volume</text>
</a>
</g>
</g>
<!-- Node1&#45;&gt;Node20 -->
<g id="edge54_Node000001_Node000020" class="edge">
<title>Node1&#45;&gt;Node20</title>
<g id="a_edge54_Node000001_Node000020"><a xlink:title=" ">
<path fill="none" stroke="#63b8ff" d="M1824.52,-302.35C1812.17,-263.27 1782.4,-189.17 1727,-157.5 1652.91,-115.15 1426.68,-136.76 1343,-153.5 1326,-156.9 1323.22,-162.39 1307,-168.5 1298.96,-171.53 1290.35,-174.59 1282,-177.47"/>
<polygon fill="#63b8ff" stroke="#63b8ff" points="1821.31,-303.81 1827.55,-312.38 1828.01,-301.79 1821.31,-303.81"/>
</a>
</g>
</g>
<!-- Node31 -->
<g id="Node000031" class="node">
<title>Node31</title>
<g id="a_Node000031"><a xlink:href="classpolyfem_1_1io_1_1_out_geometry_data.html#a0e65c20c88b0fea48c12149e1ec7b61c" target="_top" xlink:title=" ">
<polygon fill="white" stroke="#666666" points="1516.5,-192.5 1343.5,-192.5 1343.5,-162.5 1516.5,-162.5 1516.5,-192.5"/>
<text text-anchor="start" x="1351.5" y="-180.5" font-family="Helvetica,sans-Serif" font-size="10.00">polyfem::io::OutGeometry</text>
<text text-anchor="middle" x="1430" y="-169.5" font-family="Helvetica,sans-Serif" font-size="10.00">Data::save_volume_vector_field</text>
</a>
</g>
</g>
<!-- Node1&#45;&gt;Node31 -->
<g id="edge55_Node000001_Node000031" class="edge">
<title>Node1&#45;&gt;Node31</title>
<g id="a_edge55_Node000001_Node000031"><a xlink:title=" ">
<path fill="none" stroke="#63b8ff" d="M1820.7,-303.36C1805.09,-271.74 1772.98,-217.51 1727,-193.5 1662.34,-159.73 1578.53,-158.46 1516.61,-164.04"/>
<polygon fill="#63b8ff" stroke="#63b8ff" points="1817.54,-304.87 1825.01,-312.39 1823.86,-301.86 1817.54,-304.87"/>
</a>
</g>
</g>
<!-- Node32 -->
<g id="Node000032" class="node">
<title>Node32</title>
<g id="a_Node000032"><a xlink:href="classpolyfem_1_1assembler_1_1_rhs_assembler.html#a088e3d5facf5f0bea26aa9f5444dd0be" target="_top" xlink:title=" ">
<polygon fill="white" stroke="#666666" points="1498.5,-106.5 1361.5,-106.5 1361.5,-76.5 1498.5,-76.5 1498.5,-106.5"/>
<text text-anchor="start" x="1369.5" y="-94.5" font-family="Helvetica,sans-Serif" font-size="10.00">polyfem::assembler</text>
<text text-anchor="middle" x="1430" y="-83.5" font-family="Helvetica,sans-Serif" font-size="10.00">::RhsAssembler::time_bc</text>
</a>
</g>
</g>
<!-- Node1&#45;&gt;Node32 -->
<g id="edge56_Node000001_Node000032" class="edge">
<title>Node1&#45;&gt;Node32</title>
<g id="a_edge56_Node000001_Node000032"><a xlink:title=" ">
<path fill="none" stroke="#63b8ff" d="M1826.94,-302.44C1817.3,-257.51 1790.34,-163.88 1727,-120.5 1659.79,-74.48 1563.02,-74.16 1498.63,-80.7"/>
<polygon fill="#63b8ff" stroke="#63b8ff" points="1823.51,-303.15 1828.93,-312.26 1830.37,-301.76 1823.51,-303.15"/>
</a>
</g>
</g>
<!-- Node3 -->
<g id="Node000003" class="node">
<title>Node3</title>
<g id="a_Node000003"><a xlink:href="main_8cpp.html#aec889c702a246ad7f332c75ab7adb438" target="_top" xlink:title=" ">
<polygon fill="white" stroke="#666666" points="199.5,-294 88.5,-294 88.5,-275 199.5,-275 199.5,-294"/>
<text text-anchor="middle" x="144" y="-282" font-family="Helvetica,sans-Serif" font-size="10.00">forward_simulation</text>
</a>
</g>
</g>
<!-- Node2&#45;&gt;Node3 -->
<g id="edge2_Node000002_Node000003" class="edge">
<title>Node2&#45;&gt;Node3</title>
<g id="a_edge2_Node000002_Node000003"><a xlink:title=" ">
<path fill="none" stroke="#63b8ff" d="M805.11,-554.38C757.15,-544.5 692,-529.58 636,-511.5 441.62,-448.76 223.11,-328.77 161.79,-294.1"/>
<polygon fill="#63b8ff" stroke="#63b8ff" points="804.58,-557.84 815.08,-556.41 805.98,-550.99 804.58,-557.84"/>
</a>
</g>
</g>
<!-- Node2&#45;&gt;Node5 -->
<g id="edge4_Node000002_Node000005" class="edge">
<title>Node2&#45;&gt;Node5</title>
<g id="a_edge4_Node000002_Node000005"><a xlink:title=" ">
<path fill="none" stroke="#63b8ff" d="M827,-548.63C818.97,-545.31 810.73,-541.85 803,-538.5 775,-526.38 743.01,-511.57 722.79,-502.09"/>
<polygon fill="#63b8ff" stroke="#63b8ff" points="825.71,-551.88 836.29,-552.44 828.37,-545.4 825.71,-551.88"/>
</a>
</g>
</g>
<!-- Node4 -->
<g id="Node000004" class="node">
<title>Node4</title>
<g id="a_Node000004"><a xlink:href="main_8cpp.html#a3c04138a5bfe5d72780bb7e82a18e627" target="_top" xlink:title=" ">
<polygon fill="white" stroke="#666666" points="41,-294 0,-294 0,-275 41,-275 41,-294"/>
<text text-anchor="middle" x="20.5" y="-282" font-family="Helvetica,sans-Serif" font-size="10.00">main</text>
</a>
</g>
</g>
<!-- Node3&#45;&gt;Node4 -->
<g id="edge3_Node000003_Node000004" class="edge">
<title>Node3&#45;&gt;Node4</title>
<g id="a_edge3_Node000003_Node000004"><a xlink:title=" ">
<path fill="none" stroke="#63b8ff" d="M77.97,-284.5C64.49,-284.5 51.29,-284.5 41.05,-284.5"/>
<polygon fill="#63b8ff" stroke="#63b8ff" points="78.29,-288 88.29,-284.5 78.29,-281 78.29,-288"/>
</a>
</g>
</g>
<!-- Node6 -->
<g id="Node000006" class="node">
<title>Node6</title>
<g id="a_Node000006"><a xlink:href="classpolyfem_1_1_state.html#a34b22126f0ef276354f0c5060b246922" target="_top" xlink:title="solves transient tensor nonlinear problem">
<polygon fill="white" stroke="#666666" points="594,-388.5 442,-388.5 442,-358.5 594,-358.5 594,-388.5"/>
<text text-anchor="start" x="450" y="-376.5" font-family="Helvetica,sans-Serif" font-size="10.00">polyfem::State::solve</text>
<text text-anchor="middle" x="518" y="-365.5" font-family="Helvetica,sans-Serif" font-size="10.00">_transient_tensor_nonlinear</text>
</a>
</g>
</g>
<!-- Node5&#45;&gt;Node6 -->
<g id="edge5_Node000005_Node000006" class="edge">
<title>Node5&#45;&gt;Node6</title>
<g id="a_edge5_Node000005_Node000006"><a xlink:title=" ">
<path fill="none" stroke="#63b8ff" d="M659.22,-479.43C651.3,-476.29 643.23,-472.63 636,-468.5 596.02,-445.65 555.71,-409.32 534.42,-388.84"/>
<polygon fill="#63b8ff" stroke="#63b8ff" points="658.15,-482.76 668.74,-483 660.6,-476.21 658.15,-482.76"/>
</a>
</g>
</g>
<!-- Node7 -->
<g id="Node000007" class="node">
<title>Node7</title>
<g id="a_Node000007"><a xlink:href="classpolyfem_1_1_state.html#a8f5a3b6048c0620357b96daeea7270d5" target="_top" xlink:title="solves the problems">
<polygon fill="white" stroke="#666666" points="384,-278.5 263,-278.5 263,-248.5 384,-248.5 384,-278.5"/>
<text text-anchor="start" x="271" y="-266.5" font-family="Helvetica,sans-Serif" font-size="10.00">polyfem::State::solve</text>
<text text-anchor="middle" x="323.5" y="-255.5" font-family="Helvetica,sans-Serif" font-size="10.00">_problem</text>
</a>
</g>
</g>
<!-- Node6&#45;&gt;Node7 -->
<g id="edge6_Node000006_Node000007" class="edge">
<title>Node6&#45;&gt;Node7</title>
<g id="a_edge6_Node000006_Node000007"><a xlink:title=" ">
<path fill="none" stroke="#63b8ff" d="M458.07,-354.64C450.5,-351.57 442.96,-348.18 436,-344.5 400.25,-325.61 363.11,-296.36 341.99,-278.66"/>
<polygon fill="#63b8ff" stroke="#63b8ff" points="457.05,-358 467.64,-358.36 459.58,-351.48 457.05,-358"/>
</a>
</g>
</g>
<!-- Node7&#45;&gt;Node3 -->
<g id="edge7_Node000007_Node000003" class="edge">
<title>Node7&#45;&gt;Node3</title>
<g id="a_edge7_Node000007_Node000003"><a xlink:title=" ">
<path fill="none" stroke="#63b8ff" d="M252.67,-271.76C235.06,-273.85 216.4,-276.05 199.66,-278.03"/>
<polygon fill="#63b8ff" stroke="#63b8ff" points="253.38,-275.2 262.9,-270.55 252.56,-268.25 253.38,-275.2"/>
</a>
</g>
</g>
<!-- Node8 -->
<g id="Node000008" class="node">
<title>Node8</title>
<g id="a_Node000008"><a xlink:href="structpolyfem_1_1solver_1_1_adjoint_opt_utils.html#acac3e8ce8646ddd1544ed034c71bec96" target="_top" xlink:title=" ">
<polygon fill="white" stroke="#666666" points="211,-256.5 77,-256.5 77,-226.5 211,-226.5 211,-256.5"/>
<text text-anchor="start" x="85" y="-244.5" font-family="Helvetica,sans-Serif" font-size="10.00">polyfem::solver::Adjoint</text>
<text text-anchor="middle" x="144" y="-233.5" font-family="Helvetica,sans-Serif" font-size="10.00">OptUtils::solve_pde</text>
</a>
</g>
</g>
<!-- Node7&#45;&gt;Node8 -->
<g id="edge8_Node000007_Node000008" class="edge">
<title>Node7&#45;&gt;Node8</title>
<g id="a_edge8_Node000007_Node000008"><a xlink:title=" ">
<path fill="none" stroke="#63b8ff" d="M252.61,-254.84C238.96,-253.15 224.68,-251.38 211.16,-249.7"/>
<polygon fill="#63b8ff" stroke="#63b8ff" points="252.55,-258.36 262.9,-256.11 253.41,-251.41 252.55,-258.36"/>
</a>
</g>
</g>
<!-- Node10&#45;&gt;Node5 -->
<g id="edge11_Node000010_Node000005" class="edge">
<title>Node10&#45;&gt;Node5</title>
<g id="a_edge11_Node000010_Node000005"><a xlink:title=" ">
<path fill="none" stroke="#63b8ff" d="M805.65,-469.65C785.4,-474.13 763.8,-478.92 745.62,-482.95"/>
<polygon fill="#63b8ff" stroke="#63b8ff" points="806.45,-473.05 815.46,-467.47 804.94,-466.22 806.45,-473.05"/>
</a>
</g>
</g>
<!-- Node10&#45;&gt;Node6 -->
<g id="edge12_Node000010_Node000006" class="edge">
<title>Node10&#45;&gt;Node6</title>
<g id="a_edge12_Node000010_Node000006"><a xlink:title=" ">
<path fill="none" stroke="#63b8ff" d="M805.44,-438.86C741.81,-424.34 647.73,-402.87 584.95,-388.55"/>
<polygon fill="#63b8ff" stroke="#63b8ff" points="804.85,-442.31 815.38,-441.12 806.41,-435.49 804.85,-442.31"/>
</a>
</g>
</g>
<!-- Node12 -->
<g id="Node000012" class="node">
<title>Node12</title>
<g id="a_Node000012"><a xlink:href="classpolyfem_1_1mesh_1_1_local_relaxation_data.html#a7a84ad351ae9f4d38cdad34660fd6585" target="_top" xlink:title=" ">
<polygon fill="white" stroke="#666666" points="1517,-414.5 1343,-414.5 1343,-384.5 1517,-384.5 1517,-414.5"/>
<text text-anchor="start" x="1351" y="-402.5" font-family="Helvetica,sans-Serif" font-size="10.00">polyfem::mesh::LocalRelaxation</text>
<text text-anchor="middle" x="1430" y="-391.5" font-family="Helvetica,sans-Serif" font-size="10.00">Data::LocalRelaxationData</text>
</a>
</g>
</g>
<!-- Node11&#45;&gt;Node12 -->
<g id="edge14_Node000011_Node000012" class="edge">
<title>Node11&#45;&gt;Node12</title>
<g id="a_edge14_Node000011_Node000012"><a xlink:title=" ">
<path fill="none" stroke="#63b8ff" d="M1542.84,-399.5C1534.23,-399.5 1525.55,-399.5 1517.04,-399.5"/>
<polygon fill="#63b8ff" stroke="#63b8ff" points="1542.9,-403 1552.9,-399.5 1542.9,-396 1542.9,-403"/>
</a>
</g>
</g>
<!-- Node16 -->
<g id="Node000016" class="node">
<title>Node16</title>
<g id="a_Node000016"><a xlink:href="classpolyfem_1_1_state.html#aff8fe0ab67886249fcb30534a0d946b2" target="_top" xlink:title=" ">
<polygon fill="white" stroke="#666666" points="1121,-270.5 989,-270.5 989,-240.5 1121,-240.5 1121,-270.5"/>
<text text-anchor="start" x="997" y="-258.5" font-family="Helvetica,sans-Serif" font-size="10.00">polyfem::State::init</text>
<text text-anchor="middle" x="1055" y="-247.5" font-family="Helvetica,sans-Serif" font-size="10.00">_homogenization_solve</text>
</a>
</g>
</g>
<!-- Node15&#45;&gt;Node16 -->
<g id="edge18_Node000015_Node000016" class="edge">
<title>Node15&#45;&gt;Node16</title>
<g id="a_edge18_Node000015_Node000016"><a xlink:title=" ">
<path fill="none" stroke="#63b8ff" d="M1560.17,-222.64C1444.01,-230.21 1229.01,-244.22 1121.2,-251.25"/>
<polygon fill="#63b8ff" stroke="#63b8ff" points="1560.66,-226.11 1570.41,-221.97 1560.2,-219.13 1560.66,-226.11"/>
</a>
</g>
</g>
<!-- Node18 -->
<g id="Node000018" class="node">
<title>Node18</title>
<g id="a_Node000018"><a xlink:href="classpolyfem_1_1_state.html#ae0de6ea3bdc69e3e21ddfbcdb144180b" target="_top" xlink:title="initialize the nonlinear solver">
<polygon fill="white" stroke="#666666" points="942.5,-406.5 807.5,-406.5 807.5,-376.5 942.5,-376.5 942.5,-406.5"/>
<text text-anchor="start" x="815.5" y="-394.5" font-family="Helvetica,sans-Serif" font-size="10.00">polyfem::State::init</text>
<text text-anchor="middle" x="875" y="-383.5" font-family="Helvetica,sans-Serif" font-size="10.00">_nonlinear_tensor_solve</text>
</a>
</g>
</g>
<!-- Node15&#45;&gt;Node18 -->
<g id="edge21_Node000015_Node000018" class="edge">
<title>Node15&#45;&gt;Node18</title>
<g id="a_edge21_Node000015_Node000018"><a xlink:title=" ">
<path fill="none" stroke="#63b8ff" d="M1562.93,-234.85C1413.33,-268.96 1083.12,-344.27 942.02,-376.44"/>
<polygon fill="#63b8ff" stroke="#63b8ff" points="1563.98,-238.2 1572.96,-232.56 1562.43,-231.37 1563.98,-238.2"/>
</a>
</g>
</g>
<!-- Node15&#45;&gt;Node19 -->
<g id="edge25_Node000015_Node000019" class="edge">
<title>Node15&#45;&gt;Node19</title>
<g id="a_edge25_Node000015_Node000019"><a xlink:title=" ">
<path fill="none" stroke="#63b8ff" d="M1566.83,-237.09C1561.9,-239.84 1557.22,-242.95 1553,-246.5 1527.41,-267.98 1542.59,-291.02 1517,-312.5 1510.24,-318.17 1502.33,-322.75 1494.08,-326.44"/>
<polygon fill="#63b8ff" stroke="#63b8ff" points="1568.54,-240.15 1575.92,-232.56 1565.41,-233.89 1568.54,-240.15"/>
</a>
</g>
</g>
<!-- Node15&#45;&gt;Node20 -->
<g id="edge26_Node000015_Node000020" class="edge">
<title>Node15&#45;&gt;Node20</title>
<g id="a_edge26_Node000015_Node000020"><a xlink:title=" ">
<path fill="none" stroke="#63b8ff" d="M1560.37,-213.89C1500.7,-211 1416.65,-206.59 1343,-201.5 1331.38,-200.7 1319.05,-199.75 1307.06,-198.78"/>
<polygon fill="#63b8ff" stroke="#63b8ff" points="1560.32,-217.39 1570.48,-214.38 1560.66,-210.4 1560.32,-217.39"/>
</a>
</g>
</g>
<!-- Node15&#45;&gt;Node31 -->
<g id="edge46_Node000015_Node000031" class="edge">
<title>Node15&#45;&gt;Node31</title>
<g id="a_edge46_Node000015_Node000031"><a xlink:title=" ">
<path fill="none" stroke="#63b8ff" d="M1560.1,-202.33C1543.47,-199.13 1525.94,-195.76 1509.33,-192.56"/>
<polygon fill="#63b8ff" stroke="#63b8ff" points="1559.84,-205.84 1570.32,-204.29 1561.16,-198.97 1559.84,-205.84"/>
</a>
</g>
</g>
<!-- Node15&#45;&gt;Node32 -->
<g id="edge48_Node000015_Node000032" class="edge">
<title>Node15&#45;&gt;Node32</title>
<g id="a_edge48_Node000015_Node000032"><a xlink:title=" ">
<path fill="none" stroke="#63b8ff" d="M1605.18,-197.01C1563.33,-171.66 1493.06,-129.1 1455.85,-106.56"/>
<polygon fill="#63b8ff" stroke="#63b8ff" points="1603.54,-200.11 1613.91,-202.3 1607.17,-194.13 1603.54,-200.11"/>
</a>
</g>
</g>
<!-- Node17 -->
<g id="Node000017" class="node">
<title>Node17</title>
<g id="a_Node000017"><a xlink:href="classpolyfem_1_1_state.html#af575faba770a261cb0398a98f0a752b9" target="_top" xlink:title=" ">
<polygon fill="white" stroke="#666666" points="578.5,-302.5 457.5,-302.5 457.5,-272.5 578.5,-272.5 578.5,-302.5"/>
<text text-anchor="start" x="465.5" y="-290.5" font-family="Helvetica,sans-Serif" font-size="10.00">polyfem::State::solve</text>
<text text-anchor="middle" x="518" y="-279.5" font-family="Helvetica,sans-Serif" font-size="10.00">_homogenization</text>
</a>
</g>
</g>
<!-- Node16&#45;&gt;Node17 -->
<g id="edge19_Node000016_Node000017" class="edge">
<title>Node16&#45;&gt;Node17</title>
<g id="a_edge19_Node000016_Node000017"><a xlink:title=" ">
<path fill="none" stroke="#63b8ff" d="M978.8,-262.11C968.13,-262.97 957.29,-263.79 947,-264.5 815.6,-273.55 661.3,-281.08 578.58,-284.87"/>
<polygon fill="#63b8ff" stroke="#63b8ff" points="979.27,-265.59 988.95,-261.29 978.7,-258.61 979.27,-265.59"/>
</a>
</g>
</g>
<!-- Node17&#45;&gt;Node7 -->
<g id="edge20_Node000017_Node000007" class="edge">
<title>Node17&#45;&gt;Node7</title>
<g id="a_edge20_Node000017_Node000007"><a xlink:title=" ">
<path fill="none" stroke="#63b8ff" d="M447.4,-278.82C426.68,-276.24 404.17,-273.43 384.14,-270.94"/>
<polygon fill="#63b8ff" stroke="#63b8ff" points="447.05,-282.31 457.41,-280.07 447.92,-275.36 447.05,-282.31"/>
</a>
</g>
</g>
<!-- Node18&#45;&gt;Node5 -->
<g id="edge22_Node000018_Node000005" class="edge">
<title>Node18&#45;&gt;Node5</title>
<g id="a_edge22_Node000018_Node000005"><a xlink:title=" ">
<path fill="none" stroke="#63b8ff" d="M836.89,-411.42C825.92,-417.44 813.92,-424.14 803,-430.5 772.35,-448.35 737.23,-470.39 717.68,-482.8"/>
<polygon fill="#63b8ff" stroke="#63b8ff" points="838.72,-414.41 845.83,-406.55 835.37,-408.27 838.72,-414.41"/>
</a>
</g>
</g>
<!-- Node18&#45;&gt;Node6 -->
<g id="edge24_Node000018_Node000006" class="edge">
<title>Node18&#45;&gt;Node6</title>
<g id="a_edge24_Node000018_Node000006"><a xlink:title=" ">
<path fill="none" stroke="#63b8ff" d="M797.03,-387.6C736.87,-384.55 653.74,-380.33 594.08,-377.31"/>
<polygon fill="#63b8ff" stroke="#63b8ff" points="797.06,-391.1 807.23,-388.11 797.42,-384.11 797.06,-391.1"/>
</a>
</g>
</g>
<!-- Node18&#45;&gt;Node7 -->
<g id="edge23_Node000018_Node000007" class="edge">
<title>Node18&#45;&gt;Node7</title>
<g id="a_edge23_Node000018_Node000007"><a xlink:title=" ">
<path fill="none" stroke="#63b8ff" d="M810.41,-408.96C721.81,-429.71 558.33,-454.85 436,-397.5 382.84,-372.58 346.22,-308.47 331.6,-278.89"/>
<polygon fill="#63b8ff" stroke="#63b8ff" points="811.41,-412.32 820.31,-406.58 809.77,-405.51 811.41,-412.32"/>
</a>
</g>
</g>
<!-- Node21 -->
<g id="Node000021" class="node">
<title>Node21</title>
<g id="a_Node000021"><a xlink:href="classpolyfem_1_1io_1_1_out_geometry_data.html#ab6ebc8d7951c52d2ce07506306b63ea0" target="_top" xlink:title="saves the vtu file for time t">
<polygon fill="white" stroke="#666666" points="1127,-207.5 983,-207.5 983,-177.5 1127,-177.5 1127,-207.5"/>
<text text-anchor="start" x="991" y="-195.5" font-family="Helvetica,sans-Serif" font-size="10.00">polyfem::io::OutGeometry</text>
<text text-anchor="middle" x="1055" y="-184.5" font-family="Helvetica,sans-Serif" font-size="10.00">Data::save_vtu</text>
</a>
</g>
</g>
<!-- Node20&#45;&gt;Node21 -->
<g id="edge27_Node000020_Node000021" class="edge">
<title>Node20&#45;&gt;Node21</title>
<g id="a_edge27_Node000020_Node000021"><a xlink:title=" ">
<path fill="none" stroke="#63b8ff" d="M1152.83,-192.5C1144.21,-192.5 1135.49,-192.5 1127,-192.5"/>
<polygon fill="#63b8ff" stroke="#63b8ff" points="1152.88,-196 1162.88,-192.5 1152.88,-189 1152.88,-196"/>
</a>
</g>
</g>
<!-- Node22 -->
<g id="Node000022" class="node">
<title>Node22</title>
<g id="a_Node000022"><a xlink:href="classpolyfem_1_1io_1_1_out_geometry_data.html#ae5fdb256636278dc9d47358e202aba22" target="_top" xlink:title="exports everytihng, txt, vtu, etc">
<polygon fill="white" stroke="#666666" points="947,-116.5 803,-116.5 803,-86.5 947,-86.5 947,-116.5"/>
<text text-anchor="start" x="811" y="-104.5" font-family="Helvetica,sans-Serif" font-size="10.00">polyfem::io::OutGeometry</text>
<text text-anchor="middle" x="875" y="-93.5" font-family="Helvetica,sans-Serif" font-size="10.00">Data::export_data</text>
</a>
</g>
</g>
<!-- Node21&#45;&gt;Node22 -->
<g id="edge28_Node000021_Node000022" class="edge">
<title>Node21&#45;&gt;Node22</title>
<g id="a_edge28_Node000021_Node000022"><a xlink:title=" ">
<path fill="none" stroke="#63b8ff" d="M1015.68,-172.91C982.63,-156.01 935.6,-131.97 905.44,-116.55"/>
<polygon fill="#63b8ff" stroke="#63b8ff" points="1014.11,-176.04 1024.61,-177.47 1017.3,-169.8 1014.11,-176.04"/>
</a>
</g>
</g>
<!-- Node24 -->
<g id="Node000024" class="node">
<title>Node24</title>
<g id="a_Node000024"><a xlink:href="classpolyfem_1_1_state.html#a29b1283c20475e19b79a39cd324ac5aa" target="_top" xlink:title="saves a subsolve when save_solve_sequence_debug is true">
<polygon fill="white" stroke="#666666" points="934,-255.5 816,-255.5 816,-225.5 934,-225.5 934,-255.5"/>
<text text-anchor="start" x="824" y="-243.5" font-family="Helvetica,sans-Serif" font-size="10.00">polyfem::State::save</text>
<text text-anchor="middle" x="875" y="-232.5" font-family="Helvetica,sans-Serif" font-size="10.00">_subsolve</text>
</a>
</g>
</g>
<!-- Node21&#45;&gt;Node24 -->
<g id="edge31_Node000021_Node000024" class="edge">
<title>Node21&#45;&gt;Node24</title>
<g id="a_edge31_Node000021_Node000024"><a xlink:title=" ">
<path fill="none" stroke="#63b8ff" d="M988.29,-210.22C969.67,-215.24 949.59,-220.65 931.63,-225.5"/>
<polygon fill="#63b8ff" stroke="#63b8ff" points="989.42,-213.54 998.17,-207.56 987.6,-206.78 989.42,-213.54"/>
</a>
</g>
</g>
<!-- Node26 -->
<g id="Node000026" class="node">
<title>Node26</title>
<g id="a_Node000026"><a xlink:href="classpolyfem_1_1_state.html#a442fa686e1d08a0a104f3869a6fa2948" target="_top" xlink:title="saves a timestep">
<polygon fill="white" stroke="#666666" points="760.5,-207.5 642.5,-207.5 642.5,-177.5 760.5,-177.5 760.5,-207.5"/>
<text text-anchor="start" x="650.5" y="-195.5" font-family="Helvetica,sans-Serif" font-size="10.00">polyfem::State::save</text>
<text text-anchor="middle" x="701.5" y="-184.5" font-family="Helvetica,sans-Serif" font-size="10.00">_timestep</text>
</a>
</g>
</g>
<!-- Node21&#45;&gt;Node26 -->
<g id="edge35_Node000021_Node000026" class="edge">
<title>Node21&#45;&gt;Node26</title>
<g id="a_edge35_Node000021_Node000026"><a xlink:title=" ">
<path fill="none" stroke="#63b8ff" d="M972.68,-192.5C907.83,-192.5 818.59,-192.5 760.73,-192.5"/>
<polygon fill="#63b8ff" stroke="#63b8ff" points="972.87,-196 982.87,-192.5 972.87,-189 972.87,-196"/>
</a>
</g>
</g>
<!-- Node23 -->
<g id="Node000023" class="node">
<title>Node23</title>
<g id="a_Node000023"><a xlink:href="classpolyfem_1_1_state.html#acc61dcd623eec2308480c5c082da3d9e" target="_top" xlink:title="saves all data on the disk according to the input params">
<polygon fill="white" stroke="#666666" points="400,-158 247,-158 247,-139 400,-139 400,-158"/>
<text text-anchor="middle" x="323.5" y="-146" font-family="Helvetica,sans-Serif" font-size="10.00">polyfem::State::export_data</text>
</a>
</g>
</g>
<!-- Node22&#45;&gt;Node23 -->
<g id="edge29_Node000022_Node000023" class="edge">
<title>Node22&#45;&gt;Node23</title>
<g id="a_edge29_Node000022_Node000023"><a xlink:title=" ">
<path fill="none" stroke="#63b8ff" d="M813.84,-83.85C727.91,-61.63 566.02,-30.97 436,-71.5 392.88,-84.94 351.72,-121.53 333.84,-138.99"/>
<polygon fill="#63b8ff" stroke="#63b8ff" points="813.13,-87.28 823.69,-86.44 814.91,-80.51 813.13,-87.28"/>
</a>
</g>
</g>
<!-- Node23&#45;&gt;Node3 -->
<g id="edge30_Node000023_Node000003" class="edge">
<title>Node23&#45;&gt;Node3</title>
<g id="a_edge30_Node000023_Node000003"><a xlink:title=" ">
<path fill="none" stroke="#63b8ff" d="M309.97,-166.81C291.36,-192.63 253.96,-239.46 211,-265.5 204.68,-269.33 197.55,-272.42 190.37,-274.91"/>
<polygon fill="#63b8ff" stroke="#63b8ff" points="313.05,-168.52 315.95,-158.33 307.33,-164.49 313.05,-168.52"/>
</a>
</g>
</g>
<!-- Node25 -->
<g id="Node000025" class="node">
<title>Node25</title>
<g id="a_Node000025"><a xlink:href="classpolyfem_1_1_state.html#a5f52fc1a97ba3abe95d80868ab22a949" target="_top" xlink:title="solves nonlinear problems">
<polygon fill="white" stroke="#666666" points="762,-345.5 641,-345.5 641,-315.5 762,-315.5 762,-345.5"/>
<text text-anchor="start" x="649" y="-333.5" font-family="Helvetica,sans-Serif" font-size="10.00">polyfem::State::solve</text>
<text text-anchor="middle" x="701.5" y="-322.5" font-family="Helvetica,sans-Serif" font-size="10.00">_tensor_nonlinear</text>
</a>
</g>
</g>
<!-- Node24&#45;&gt;Node25 -->
<g id="edge32_Node000024_Node000025" class="edge">
<title>Node24&#45;&gt;Node25</title>
<g id="a_edge32_Node000024_Node000025"><a xlink:title=" ">
<path fill="none" stroke="#63b8ff" d="M836.33,-260.27C804.69,-276.87 760.15,-300.25 731.3,-315.39"/>
<polygon fill="#63b8ff" stroke="#63b8ff" points="838.07,-263.31 845.29,-255.56 834.81,-257.11 838.07,-263.31"/>
</a>
</g>
</g>
<!-- Node25&#45;&gt;Node6 -->
<g id="edge34_Node000025_Node000006" class="edge">
<title>Node25&#45;&gt;Node6</title>
<g id="a_edge34_Node000025_Node000006"><a xlink:title=" ">
<path fill="none" stroke="#63b8ff" d="M631.02,-346.96C615.05,-350.74 598.16,-354.75 582.46,-358.46"/>
<polygon fill="#63b8ff" stroke="#63b8ff" points="631.89,-350.35 640.82,-344.64 630.28,-343.54 631.89,-350.35"/>
</a>
</g>
</g>
<!-- Node25&#45;&gt;Node7 -->
<g id="edge33_Node000025_Node000007" class="edge">
<title>Node25&#45;&gt;Node7</title>
<g id="a_edge33_Node000025_Node000007"><a xlink:title=" ">
<path fill="none" stroke="#63b8ff" d="M630.66,-331.8C576.76,-331.29 500.71,-327.28 436,-311.5 406.31,-304.26 374.48,-289.82 352.46,-278.66"/>
<polygon fill="#63b8ff" stroke="#63b8ff" points="630.78,-335.3 640.8,-331.85 630.82,-328.3 630.78,-335.3"/>
</a>
</g>
</g>
<!-- Node26&#45;&gt;Node6 -->
<g id="edge45_Node000026_Node000006" class="edge">
<title>Node26&#45;&gt;Node6</title>
<g id="a_edge45_Node000026_Node000006"><a xlink:title=" ">
<path fill="none" stroke="#63b8ff" d="M683.22,-215.84C664.2,-240.82 632.04,-280.96 600,-311.5 581.54,-329.09 558.22,-346.51 541.35,-358.39"/>
<polygon fill="#63b8ff" stroke="#63b8ff" points="686.15,-217.77 689.38,-207.68 680.57,-213.56 686.15,-217.77"/>
</a>
</g>
</g>
<!-- Node26&#45;&gt;Node17 -->
<g id="edge38_Node000026_Node000017" class="edge">
<title>Node26&#45;&gt;Node17</title>
<g id="a_edge38_Node000026_Node000017"><a xlink:title=" ">
<path fill="none" stroke="#63b8ff" d="M674.96,-214.12C655.48,-229.69 627.41,-250.2 600,-263.5 593.14,-266.83 585.72,-269.79 578.26,-272.41"/>
<polygon fill="#63b8ff" stroke="#63b8ff" points="677.2,-216.81 682.75,-207.79 672.78,-211.38 677.2,-216.81"/>
</a>
</g>
</g>
<!-- Node27 -->
<g id="Node000027" class="node">
<title>Node27</title>
<g id="a_Node000027"><a xlink:href="classpolyfem_1_1_state.html#ac5c4dd2be369c759c68e0a36a45bfcc7" target="_top" xlink:title="initialize solver">
<polygon fill="white" stroke="#666666" points="573,-158.5 463,-158.5 463,-128.5 573,-128.5 573,-158.5"/>
<text text-anchor="start" x="471" y="-146.5" font-family="Helvetica,sans-Serif" font-size="10.00">polyfem::State::init</text>
<text text-anchor="middle" x="518" y="-135.5" font-family="Helvetica,sans-Serif" font-size="10.00">_solve</text>
</a>
</g>
</g>
<!-- Node26&#45;&gt;Node27 -->
<g id="edge36_Node000026_Node000027" class="edge">
<title>Node26&#45;&gt;Node27</title>
<g id="a_edge36_Node000026_Node000027"><a xlink:title=" ">
<path fill="none" stroke="#63b8ff" d="M634.8,-174.76C614.58,-169.3 592.56,-163.36 573.2,-158.13"/>
<polygon fill="#63b8ff" stroke="#63b8ff" points="634,-178.17 644.56,-177.4 635.82,-171.41 634,-178.17"/>
</a>
</g>
</g>
<!-- Node28 -->
<g id="Node000028" class="node">
<title>Node28</title>
<g id="a_Node000028"><a xlink:href="classpolyfem_1_1_state.html#ab75516dbdffb35fc97d51abf5ec533e3" target="_top" xlink:title="solves transient linear problem">
<polygon fill="white" stroke="#666666" points="578.5,-110.5 457.5,-110.5 457.5,-80.5 578.5,-80.5 578.5,-110.5"/>
<text text-anchor="start" x="465.5" y="-98.5" font-family="Helvetica,sans-Serif" font-size="10.00">polyfem::State::solve</text>
<text text-anchor="middle" x="518" y="-87.5" font-family="Helvetica,sans-Serif" font-size="10.00">_transient_linear</text>
</a>
</g>
</g>
<!-- Node26&#45;&gt;Node28 -->
<g id="edge39_Node000026_Node000028" class="edge">
<title>Node26&#45;&gt;Node28</title>
<g id="a_edge39_Node000026_Node000028"><a xlink:title=" ">
<path fill="none" stroke="#63b8ff" d="M675.77,-170.82C656.32,-154.73 627.92,-133.27 600,-119.5 593.16,-116.13 585.76,-113.13 578.3,-110.51"/>
<polygon fill="#63b8ff" stroke="#63b8ff" points="673.62,-173.59 683.53,-177.35 678.13,-168.23 673.62,-173.59"/>
</a>
</g>
</g>
<!-- Node29 -->
<g id="Node000029" class="node">
<title>Node29</title>
<g id="a_Node000029"><a xlink:href="classpolyfem_1_1_state.html#ada934cc34fae787ec506a812c65e13b5" target="_top" xlink:title="solves transient navier stokes with FEM">
<polygon fill="white" stroke="#666666" points="587,-254.5 449,-254.5 449,-224.5 587,-224.5 587,-254.5"/>
<text text-anchor="start" x="457" y="-242.5" font-family="Helvetica,sans-Serif" font-size="10.00">polyfem::State::solve</text>
<text text-anchor="middle" x="518" y="-231.5" font-family="Helvetica,sans-Serif" font-size="10.00">_transient_navier_stokes</text>
</a>
</g>
</g>
<!-- Node26&#45;&gt;Node29 -->
<g id="edge41_Node000026_Node000029" class="edge">
<title>Node26&#45;&gt;Node29</title>
<g id="a_edge41_Node000026_Node000029"><a xlink:title=" ">
<path fill="none" stroke="#63b8ff" d="M632.83,-210.02C614.47,-214.78 594.77,-219.88 577,-224.48"/>
<polygon fill="#63b8ff" stroke="#63b8ff" points="633.77,-213.4 642.57,-207.5 632.02,-206.62 633.77,-213.4"/>
</a>
</g>
</g>
<!-- Node30 -->
<g id="Node000030" class="node">
<title>Node30</title>
<g id="a_Node000030"><a xlink:href="classpolyfem_1_1_state.html#aa708cfe19c264bb75b86dead580bb593" target="_top" xlink:title="solves transient navier stokes with operator splitting">
<polygon fill="white" stroke="#666666" points="600,-206.5 436,-206.5 436,-176.5 600,-176.5 600,-206.5"/>
<text text-anchor="start" x="444" y="-194.5" font-family="Helvetica,sans-Serif" font-size="10.00">polyfem::State::solve</text>
<text text-anchor="middle" x="518" y="-183.5" font-family="Helvetica,sans-Serif" font-size="10.00">_transient_navier_stokes_split</text>
</a>
</g>
</g>
<!-- Node26&#45;&gt;Node30 -->
<g id="edge43_Node000026_Node000030" class="edge">
<title>Node26&#45;&gt;Node30</title>
<g id="a_edge43_Node000026_Node000030"><a xlink:title=" ">
<path fill="none" stroke="#63b8ff" d="M632.11,-192.12C621.73,-192.07 610.94,-192.01 600.33,-191.95"/>
<polygon fill="#63b8ff" stroke="#63b8ff" points="632.3,-195.62 642.32,-192.18 632.34,-188.62 632.3,-195.62"/>
</a>
</g>
</g>
<!-- Node27&#45;&gt;Node7 -->
<g id="edge37_Node000027_Node000007" class="edge">
<title>Node27&#45;&gt;Node7</title>
<g id="a_edge37_Node000027_Node000007"><a xlink:title=" ">
<path fill="none" stroke="#63b8ff" d="M453.44,-159.48C447.4,-161.84 441.49,-164.5 436,-167.5 396.09,-189.28 357.77,-227.18 338.13,-248.26"/>
<polygon fill="#63b8ff" stroke="#63b8ff" points="454.78,-162.72 462.99,-156.02 452.4,-156.14 454.78,-162.72"/>
</a>
</g>
</g>
<!-- Node28&#45;&gt;Node7 -->
<g id="edge40_Node000028_Node000007" class="edge">
<title>Node28&#45;&gt;Node7</title>
<g id="a_edge40_Node000028_Node000007"><a xlink:title=" ">
<path fill="none" stroke="#63b8ff" d="M448.01,-112.47C443.81,-114.55 439.76,-116.89 436,-119.5 414.11,-134.73 416.24,-146.35 400,-167.5 377.91,-196.26 351.65,-229.43 336.64,-248.29"/>
<polygon fill="#63b8ff" stroke="#63b8ff" points="449.71,-115.55 457.44,-108.3 446.88,-109.15 449.71,-115.55"/>
</a>
</g>
</g>
<!-- Node29&#45;&gt;Node7 -->
<g id="edge42_Node000029_Node000007" class="edge">
<title>Node29&#45;&gt;Node7</title>
<g id="a_edge42_Node000029_Node000007"><a xlink:title=" ">
<path fill="none" stroke="#63b8ff" d="M438.85,-249.24C420.63,-251.52 401.51,-253.9 384.23,-256.05"/>
<polygon fill="#63b8ff" stroke="#63b8ff" points="439.37,-252.71 448.86,-248 438.5,-245.76 439.37,-252.71"/>
</a>
</g>
</g>
<!-- Node30&#45;&gt;Node7 -->
<g id="edge44_Node000030_Node000007" class="edge">
<title>Node30&#45;&gt;Node7</title>
<g id="a_edge44_Node000030_Node000007"><a xlink:title=" ">
<path fill="none" stroke="#63b8ff" d="M452.97,-209.7C447.21,-211.57 441.48,-213.52 436,-215.5 408.85,-225.33 378.83,-238.38 356.78,-248.4"/>
<polygon fill="#63b8ff" stroke="#63b8ff" points="454.21,-212.98 462.68,-206.63 452.09,-206.31 454.21,-212.98"/>
</a>
</g>
</g>
<!-- Node31&#45;&gt;Node20 -->
<g id="edge47_Node000031_Node000020" class="edge">
<title>Node31&#45;&gt;Node20</title>
<g id="a_edge47_Node000031_Node000020"><a xlink:title=" ">
<path fill="none" stroke="#63b8ff" d="M1332.99,-184.96C1324.26,-185.64 1315.53,-186.32 1307.07,-186.98"/>
<polygon fill="#63b8ff" stroke="#63b8ff" points="1333.52,-188.43 1343.22,-184.17 1332.98,-181.45 1333.52,-188.43"/>
</a>
</g>
</g>
<!-- Node33 -->
<g id="Node000033" class="node">
<title>Node33</title>
<g id="a_Node000033"><a xlink:href="classpolyfem_1_1assembler_1_1_rhs_assembler.html#ace9f88097549d2f3f8f841fcff8f00e0" target="_top" xlink:title=" ">
<polygon fill="white" stroke="#666666" points="1298,-159 1172,-159 1172,-118 1298,-118 1298,-159"/>
<text text-anchor="start" x="1180" y="-147" font-family="Helvetica,sans-Serif" font-size="10.00">polyfem::assembler</text>
<text text-anchor="start" x="1180" y="-136" font-family="Helvetica,sans-Serif" font-size="10.00">::RhsAssembler::initial</text>
<text text-anchor="middle" x="1235" y="-125" font-family="Helvetica,sans-Serif" font-size="10.00">_acceleration</text>
</a>
</g>
</g>
<!-- Node32&#45;&gt;Node33 -->
<g id="edge49_Node000032_Node000033" class="edge">
<title>Node32&#45;&gt;Node33</title>
<g id="a_edge49_Node000032_Node000033"><a xlink:title=" ">
<path fill="none" stroke="#63b8ff" d="M1357.63,-108.88C1338.06,-113.65 1317,-118.77 1298.01,-123.4"/>
<polygon fill="#63b8ff" stroke="#63b8ff" points="1358.52,-112.27 1367.4,-106.5 1356.86,-105.47 1358.52,-112.27"/>
</a>
</g>
</g>
<!-- Node34 -->
<g id="Node000034" class="node">
<title>Node34</title>
<g id="a_Node000034"><a xlink:href="classpolyfem_1_1assembler_1_1_rhs_assembler.html#a9fbef8e4d3db02b46bfb752161c5ac68" target="_top" xlink:title=" ">
<polygon fill="white" stroke="#666666" points="1298,-100 1172,-100 1172,-59 1298,-59 1298,-100"/>
<text text-anchor="start" x="1180" y="-88" font-family="Helvetica,sans-Serif" font-size="10.00">polyfem::assembler</text>
<text text-anchor="start" x="1180" y="-77" font-family="Helvetica,sans-Serif" font-size="10.00">::RhsAssembler::initial</text>
<text text-anchor="middle" x="1235" y="-66" font-family="Helvetica,sans-Serif" font-size="10.00">_solution</text>
</a>
</g>
</g>
<!-- Node32&#45;&gt;Node34 -->
<g id="edge50_Node000032_Node000034" class="edge">
<title>Node32&#45;&gt;Node34</title>
<g id="a_edge50_Node000032_Node000034"><a xlink:title=" ">
<path fill="none" stroke="#63b8ff" d="M1351.25,-86.67C1333.64,-85.57 1315.16,-84.42 1298.29,-83.37"/>
<polygon fill="#63b8ff" stroke="#63b8ff" points="1351.3,-90.18 1361.5,-87.3 1351.73,-83.19 1351.3,-90.18"/>
</a>
</g>
</g>
<!-- Node35 -->
<g id="Node000035" class="node">
<title>Node35</title>
<g id="a_Node000035"><a xlink:href="classpolyfem_1_1assembler_1_1_rhs_assembler.html#ad4cc2fad5130fc413d4349928ae88831" target="_top" xlink:title=" ">
<polygon fill="white" stroke="#666666" points="1298,-41 1172,-41 1172,0 1298,0 1298,-41"/>
<text text-anchor="start" x="1180" y="-29" font-family="Helvetica,sans-Serif" font-size="10.00">polyfem::assembler</text>
<text text-anchor="start" x="1180" y="-18" font-family="Helvetica,sans-Serif" font-size="10.00">::RhsAssembler::initial</text>
<text text-anchor="middle" x="1235" y="-7" font-family="Helvetica,sans-Serif" font-size="10.00">_velocity</text>
</a>
</g>
</g>
<!-- Node32&#45;&gt;Node35 -->
<g id="edge51_Node000032_Node000035" class="edge">
<title>Node32&#45;&gt;Node35</title>
<g id="a_edge51_Node000032_Node000035"><a xlink:title=" ">
<path fill="none" stroke="#63b8ff" d="M1378.57,-72.95C1351.96,-63.16 1319.25,-51.13 1291.88,-41.06"/>
<polygon fill="#63b8ff" stroke="#63b8ff" points="1377.48,-76.27 1388.07,-76.44 1379.89,-69.71 1377.48,-76.27"/>
</a>
</g>
</g>
</g>
</svg>
