<?xml version="1.0" encoding="UTF-8" standalone="no"?>
<!DOCTYPE svg PUBLIC "-//W3C//DTD SVG 1.1//EN"
 "http://www.w3.org/Graphics/SVG/1.1/DTD/svg11.dtd">
<!-- Generated by graphviz version 2.43.0 (0)
 -->
<!-- Title: polyfem::mesh::CMesh3D::switch_face Pages: 1 -->
<svg width="559pt" height="38pt"
 viewBox="0.00 0.00 559.00 38.00" xmlns="http://www.w3.org/2000/svg" xmlns:xlink="http://www.w3.org/1999/xlink">
<g id="graph0" class="graph" transform="scale(1 1) rotate(0) translate(4 34)">
<title>polyfem::mesh::CMesh3D::switch_face</title>
<!-- Node1 -->
<g id="Node000001" class="node">
<title>Node1</title>
<g id="a_Node000001"><a xlink:title=" ">
<polygon fill="#999999" stroke="#666666" points="143,-30 0,-30 0,0 143,0 143,-30"/>
<text text-anchor="start" x="8" y="-18" font-family="Helvetica,sans-Serif" font-size="10.00">polyfem::mesh::CMesh3D</text>
<text text-anchor="middle" x="71.5" y="-7" font-family="Helvetica,sans-Serif" font-size="10.00">::switch_face</text>
</a>
</g>
</g>
<!-- Node2 -->
<g id="Node000002" class="node">
<title>Node2</title>
<g id="a_Node000002"><a xlink:href="namespacepolyfem_1_1mesh_1_1_navigation3_d.html#acf2f94f81c7bf65de4afa6af74bdf131" target="_top" xlink:title=" ">
<polygon fill="white" stroke="#666666" points="334,-30 179,-30 179,0 334,0 334,-30"/>
<text text-anchor="start" x="187" y="-18" font-family="Helvetica,sans-Serif" font-size="10.00">polyfem::mesh::Navigation3</text>
<text text-anchor="middle" x="256.5" y="-7" font-family="Helvetica,sans-Serif" font-size="10.00">D::switch_face</text>
</a>
</g>
</g>
<!-- Node1&#45;&gt;Node2 -->
<g id="edge1_Node000001_Node000002" class="edge">
<title>Node1&#45;&gt;Node2</title>
<g id="a_edge1_Node000001_Node000002"><a xlink:title=" ">
<path fill="none" stroke="#63b8ff" d="M143.25,-15C151.64,-15 160.27,-15 168.84,-15"/>
<polygon fill="#63b8ff" stroke="#63b8ff" points="168.86,-18.5 178.86,-15 168.86,-11.5 168.86,-18.5"/>
</a>
</g>
</g>
<!-- Node3 -->
<g id="Node000003" class="node">
<title>Node3</title>
<g id="a_Node000003"><a xlink:href="namespacepolyfem_1_1mesh_1_1_mesh_processing3_d.html#a61605ebebbca1d2811da94bf3e50a423" target="_top" xlink:title=" ">
<polygon fill="white" stroke="#666666" points="551,-30 370,-30 370,0 551,0 551,-30"/>
<text text-anchor="start" x="378" y="-18" font-family="Helvetica,sans-Serif" font-size="10.00">polyfem::mesh::MeshProcessing3</text>
<text text-anchor="middle" x="460.5" y="-7" font-family="Helvetica,sans-Serif" font-size="10.00">D::set_intersection_own</text>
</a>
</g>
</g>
<!-- Node2&#45;&gt;Node3 -->
<g id="edge2_Node000002_Node000003" class="edge">
<title>Node2&#45;&gt;Node3</title>
<g id="a_edge2_Node000002_Node000003"><a xlink:title=" ">
<path fill="none" stroke="#63b8ff" d="M334.16,-15C342.5,-15 351.08,-15 359.64,-15"/>
<polygon fill="#63b8ff" stroke="#63b8ff" points="359.68,-18.5 369.68,-15 359.68,-11.5 359.68,-18.5"/>
</a>
</g>
</g>
</g>
</svg>
