<?xml version="1.0" encoding="UTF-8" standalone="no"?>
<!DOCTYPE svg PUBLIC "-//W3C//DTD SVG 1.1//EN"
 "http://www.w3.org/Graphics/SVG/1.1/DTD/svg11.dtd">
<!-- Generated by graphviz version 2.43.0 (0)
 -->
<!-- Title: polyfem::legacy::State::build_stiffness_mat Pages: 1 -->
<svg width="628pt" height="135pt"
 viewBox="0.00 0.00 628.00 134.50" xmlns="http://www.w3.org/2000/svg" xmlns:xlink="http://www.w3.org/1999/xlink">
<g id="graph0" class="graph" transform="scale(1 1) rotate(0) translate(4 130.5)">
<title>polyfem::legacy::State::build_stiffness_mat</title>
<!-- Node1 -->
<g id="Node000001" class="node">
<title>Node1</title>
<g id="a_Node000001"><a xlink:title="utility that builds the stiffness matrix and collects stats, used only for linear problems">
<polygon fill="#999999" stroke="#666666" points="126,-83.5 0,-83.5 0,-53.5 126,-53.5 126,-83.5"/>
<text text-anchor="start" x="8" y="-71.5" font-family="Helvetica,sans-Serif" font-size="10.00">polyfem::legacy::State</text>
<text text-anchor="middle" x="63" y="-60.5" font-family="Helvetica,sans-Serif" font-size="10.00">::build_stiffness_mat</text>
</a>
</g>
</g>
<!-- Node2 -->
<g id="Node000002" class="node">
<title>Node2</title>
<g id="a_Node000002"><a xlink:href="classpolyfem_1_1legacy_1_1_state.html#a0f8666da00462a3d8a1b0cd76c72e92d" target="_top" xlink:title="Get a constant reference to the geometry mapping bases.">
<polygon fill="white" stroke="#666666" points="292,-126.5 166,-126.5 166,-96.5 292,-96.5 292,-126.5"/>
<text text-anchor="start" x="174" y="-114.5" font-family="Helvetica,sans-Serif" font-size="10.00">polyfem::legacy::State</text>
<text text-anchor="middle" x="229" y="-103.5" font-family="Helvetica,sans-Serif" font-size="10.00">::geom_bases</text>
</a>
</g>
</g>
<!-- Node1&#45;&gt;Node2 -->
<g id="edge1_Node000001_Node000002" class="edge">
<title>Node1&#45;&gt;Node2</title>
<g id="a_edge1_Node000001_Node000002"><a xlink:title=" ">
<path fill="none" stroke="#63b8ff" d="M121.36,-83.54C134.09,-86.88 147.7,-90.45 160.79,-93.88"/>
<polygon fill="#63b8ff" stroke="#63b8ff" points="160.11,-97.32 170.67,-96.47 161.89,-90.55 160.11,-97.32"/>
</a>
</g>
</g>
<!-- Node5 -->
<g id="Node000005" class="node">
<title>Node5</title>
<g id="a_Node000005"><a xlink:href="namespacepolyfem.html#a03f3d75072d2fd19f70cd886a51d10dd" target="_top" xlink:title="Retrieves the current logger.">
<polygon fill="white" stroke="#666666" points="276,-78 182,-78 182,-59 276,-59 276,-78"/>
<text text-anchor="middle" x="229" y="-66" font-family="Helvetica,sans-Serif" font-size="10.00">polyfem::logger</text>
</a>
</g>
</g>
<!-- Node1&#45;&gt;Node5 -->
<g id="edge4_Node000001_Node000005" class="edge">
<title>Node1&#45;&gt;Node5</title>
<g id="a_edge4_Node000001_Node000005"><a xlink:title=" ">
<path fill="none" stroke="#63b8ff" d="M126,-68.5C140.89,-68.5 156.72,-68.5 171.35,-68.5"/>
<polygon fill="#63b8ff" stroke="#63b8ff" points="171.76,-72 181.76,-68.5 171.76,-65 171.76,-72"/>
</a>
</g>
</g>
<!-- Node6 -->
<g id="Node000006" class="node">
<title>Node6</title>
<g id="a_Node000006"><a xlink:href="classpolyfem_1_1assembler_1_1_assembler_utils.html#aaf6064d65afd290473d37c71e256b1b5" target="_top" xlink:title="utility to merge 3 blocks of mixed matrices, A=velocity_stiffness, B=mixed_stiffness,...">
<polygon fill="white" stroke="#666666" points="296,-41 162,-41 162,0 296,0 296,-41"/>
<text text-anchor="start" x="170" y="-29" font-family="Helvetica,sans-Serif" font-size="10.00">polyfem::assembler</text>
<text text-anchor="start" x="170" y="-18" font-family="Helvetica,sans-Serif" font-size="10.00">::AssemblerUtils::merge</text>
<text text-anchor="middle" x="229" y="-7" font-family="Helvetica,sans-Serif" font-size="10.00">_mixed_matrices</text>
</a>
</g>
</g>
<!-- Node1&#45;&gt;Node6 -->
<g id="edge5_Node000001_Node000006" class="edge">
<title>Node1&#45;&gt;Node6</title>
<g id="a_edge5_Node000001_Node000006"><a xlink:title=" ">
<path fill="none" stroke="#63b8ff" d="M115.44,-53.44C127.08,-50.04 139.67,-46.35 152.08,-42.72"/>
<polygon fill="#63b8ff" stroke="#63b8ff" points="153.36,-45.99 161.97,-39.83 151.39,-39.28 153.36,-45.99"/>
</a>
</g>
</g>
<!-- Node3 -->
<g id="Node000003" class="node">
<title>Node3</title>
<g id="a_Node000003"><a xlink:href="classpolyfem_1_1legacy_1_1_state.html#a09103939ffb7c7e750909cf260903451" target="_top" xlink:title="check if using iso parametric bases">
<polygon fill="white" stroke="#666666" points="458,-126.5 332,-126.5 332,-96.5 458,-96.5 458,-126.5"/>
<text text-anchor="start" x="340" y="-114.5" font-family="Helvetica,sans-Serif" font-size="10.00">polyfem::legacy::State</text>
<text text-anchor="middle" x="395" y="-103.5" font-family="Helvetica,sans-Serif" font-size="10.00">::iso_parametric</text>
</a>
</g>
</g>
<!-- Node2&#45;&gt;Node3 -->
<g id="edge2_Node000002_Node000003" class="edge">
<title>Node2&#45;&gt;Node3</title>
<g id="a_edge2_Node000002_Node000003"><a xlink:title=" ">
<path fill="none" stroke="#63b8ff" d="M292,-111.5C301.7,-111.5 311.79,-111.5 321.69,-111.5"/>
<polygon fill="#63b8ff" stroke="#63b8ff" points="321.91,-115 331.91,-111.5 321.91,-108 321.91,-115"/>
</a>
</g>
</g>
<!-- Node4 -->
<g id="Node000004" class="node">
<title>Node4</title>
<g id="a_Node000004"><a xlink:href="classpolyfem_1_1legacy_1_1_state.html#abe9d15d78fe8863dab5c3bf3e850a5ad" target="_top" xlink:title=" ">
<polygon fill="white" stroke="#666666" points="620,-126.5 494,-126.5 494,-96.5 620,-96.5 620,-126.5"/>
<text text-anchor="start" x="502" y="-114.5" font-family="Helvetica,sans-Serif" font-size="10.00">polyfem::legacy::State</text>
<text text-anchor="middle" x="557" y="-103.5" font-family="Helvetica,sans-Serif" font-size="10.00">::has_periodic_bc</text>
</a>
</g>
</g>
<!-- Node3&#45;&gt;Node4 -->
<g id="edge3_Node000003_Node000004" class="edge">
<title>Node3&#45;&gt;Node4</title>
<g id="a_edge3_Node000003_Node000004"><a xlink:title=" ">
<path fill="none" stroke="#63b8ff" d="M458.32,-111.5C466.62,-111.5 475.18,-111.5 483.63,-111.5"/>
<polygon fill="#63b8ff" stroke="#63b8ff" points="483.85,-115 493.85,-111.5 483.85,-108 483.85,-115"/>
</a>
</g>
</g>
</g>
</svg>
