<?xml version="1.0" encoding="UTF-8" standalone="no"?>
<!DOCTYPE svg PUBLIC "-//W3C//DTD SVG 1.1//EN"
 "http://www.w3.org/Graphics/SVG/1.1/DTD/svg11.dtd">
<!-- Generated by graphviz version 2.43.0 (0)
 -->
<!-- Title: polyfem::mesh::Mesh::has_node_ids Pages: 1 -->
<!--zoomable 549 -->

<svg id="main" version="1.1" xmlns="http://www.w3.org/2000/svg" xmlns:xlink="http://www.w3.org/1999/xlink" xml:space="preserve" onload="init(evt)">
<style type="text/css"><![CDATA[
.node, .edge {opacity: 0.7;}
.node.selected, .edge.selected {opacity: 1;}
.edge:hover path { stroke: red; }
.edge:hover polygon { stroke: red; fill: red; }
]]></style>

<defs>
  <circle id="rim" cx="0" cy="0" r="7"/>
  <circle id="rim2" cx="0" cy="0" r="3.5"/>
  <g id="zoomPlus">
    <use xlink:href="#rim" fill="#404040"><set attributeName="fill" to="#808080" begin="zoomplus.mouseover" end="zoomplus.mouseout"/></use>
    <path d="M-4,0h8M0,-4v8" fill="none" stroke="white" stroke-width="1.5" pointer-events="none"/>
  </g>
  <g id="zoomMin">
    <use xlink:href="#rim" fill="#404040"><set attributeName="fill" to="#808080" begin="zoomminus.mouseover" end="zoomminus.mouseout"/></use>
    <path d="M-4,0h8" fill="none" stroke="white" stroke-width="1.5" pointer-events="none"/>
  </g>
  <g id="arrowUp" transform="translate(30 24)">
    <use xlink:href="#rim"/>
    <path pointer-events="none" fill="none" stroke="white" stroke-width="1.5" d="M0,-3.0v7 M-2.5,-0.5L0,-3.0L2.5,-0.5"/>
  </g>
  <g id="arrowRight" transform="rotate(90) translate(36 -43)">
    <use xlink:href="#rim"/>
    <path pointer-events="none" fill="none" stroke="white" stroke-width="1.5" d="M0,-3.0v7 M-2.5,-0.5L0,-3.0L2.5,-0.5"/>
  </g>
  <g id="arrowDown" transform="rotate(180) translate(-30 -48)">
    <use xlink:href="#rim"/>
    <path pointer-events="none" fill="none" stroke="white" stroke-width="1.5" d="M0,-3.0v7 M-2.5,-0.5L0,-3.0L2.5,-0.5"/>
  </g>
  <g id="arrowLeft" transform="rotate(270) translate(-36 17)">
    <use xlink:href="#rim"/>
    <path pointer-events="none" fill="none" stroke="white" stroke-width="1.5" d="M0,-3.0v7 M-2.5,-0.5L0,-3.0L2.5,-0.5"/>
  </g>
  <g id="resetDef">
    <use xlink:href="#rim2" fill="#404040"><set attributeName="fill" to="#808080" begin="reset.mouseover" end="reset.mouseout"/></use>
  </g>
</defs>
<script type="application/ecmascript">
var viewWidth = 1627;
var viewHeight = 549;
var sectionId = 'dynsection-51';
</script>
<script type="application/ecmascript" xlink:href="svg.min.js"/>
<svg id="graph" class="graph">
<g id="viewport">
<title>polyfem::mesh::Mesh::has_node_ids</title>
<!-- Node1 -->
<g id="Node000001" class="node">
<title>Node1</title>
<g id="a_Node000001"><a xlink:title="checks if points selections are available">
<polygon fill="#999999" stroke="#666666" points="1619,-332 1497,-332 1497,-302 1619,-302 1619,-332"/>
<text text-anchor="start" x="1505" y="-320" font-family="Helvetica,sans-Serif" font-size="10.00">polyfem::mesh::Mesh</text>
<text text-anchor="middle" x="1558" y="-309" font-family="Helvetica,sans-Serif" font-size="10.00">::has_node_ids</text>
</a>
</g>
</g>
<!-- Node2 -->
<g id="Node000002" class="node">
<title>Node2</title>
<g id="a_Node000002"><a xlink:href="classpolyfem_1_1mesh_1_1_mesh.html#ad9917a167f244c16c020d08e48cadc13" target="_top" xlink:title="appends a new mesh to the end of this">
<polygon fill="white" stroke="#666666" points="1292,-445 1170,-445 1170,-415 1292,-415 1292,-445"/>
<text text-anchor="start" x="1178" y="-433" font-family="Helvetica,sans-Serif" font-size="10.00">polyfem::mesh::Mesh</text>
<text text-anchor="middle" x="1231" y="-422" font-family="Helvetica,sans-Serif" font-size="10.00">::append</text>
</a>
</g>
</g>
<!-- Node1&#45;&gt;Node2 -->
<g id="edge1_Node000001_Node000002" class="edge">
<title>Node1&#45;&gt;Node2</title>
<g id="a_edge1_Node000001_Node000002"><a xlink:title=" ">
<path fill="none" stroke="#63b8ff" d="M1504.81,-335.48C1453.5,-353.6 1372.94,-381.93 1303,-406 1294.51,-408.92 1285.44,-412.01 1276.72,-414.97"/>
<polygon fill="#63b8ff" stroke="#63b8ff" points="1506.09,-338.74 1514.36,-332.1 1503.76,-332.14 1506.09,-338.74"/>
</a>
</g>
</g>
<!-- Node8 -->
<g id="Node000008" class="node">
<title>Node8</title>
<g id="a_Node000008"><a xlink:href="classpolyfem_1_1mesh_1_1_mesh.html#af9990574a4f9f73a5931f333a1ae24d6" target="_top" xlink:title="Get the boundary selection of a node.">
<polygon fill="white" stroke="#666666" points="1461,-332 1339,-332 1339,-302 1461,-302 1461,-332"/>
<text text-anchor="start" x="1347" y="-320" font-family="Helvetica,sans-Serif" font-size="10.00">polyfem::mesh::Mesh</text>
<text text-anchor="middle" x="1400" y="-309" font-family="Helvetica,sans-Serif" font-size="10.00">::get_node_id</text>
</a>
</g>
</g>
<!-- Node1&#45;&gt;Node8 -->
<g id="edge7_Node000001_Node000008" class="edge">
<title>Node1&#45;&gt;Node8</title>
<g id="a_edge7_Node000001_Node000008"><a xlink:title=" ">
<path fill="none" stroke="#63b8ff" d="M1486.46,-317C1478.01,-317 1469.44,-317 1461.15,-317"/>
<polygon fill="#63b8ff" stroke="#63b8ff" points="1486.69,-320.5 1496.69,-317 1486.69,-313.5 1486.69,-320.5"/>
</a>
</g>
</g>
<!-- Node29 -->
<g id="Node000029" class="node">
<title>Node29</title>
<g id="a_Node000029"><a xlink:href="classpolyfem_1_1assembler_1_1_problem.html#a0d01038e6a37fff6f045eeb59111fd98" target="_top" xlink:title=" ">
<polygon fill="white" stroke="#666666" points="1288,-230 1174,-230 1174,-200 1288,-200 1288,-230"/>
<text text-anchor="start" x="1182" y="-218" font-family="Helvetica,sans-Serif" font-size="10.00">polyfem::assembler</text>
<text text-anchor="middle" x="1231" y="-207" font-family="Helvetica,sans-Serif" font-size="10.00">::Problem::setup_bc</text>
</a>
</g>
</g>
<!-- Node1&#45;&gt;Node29 -->
<g id="edge38_Node000001_Node000029" class="edge">
<title>Node1&#45;&gt;Node29</title>
<g id="a_edge38_Node000001_Node000029"><a xlink:title=" ">
<path fill="none" stroke="#63b8ff" d="M1499.34,-298.9C1436.85,-279.29 1338.27,-248.35 1279.89,-230.03"/>
<polygon fill="#63b8ff" stroke="#63b8ff" points="1498.46,-302.29 1509.05,-301.95 1500.55,-295.62 1498.46,-302.29"/>
</a>
</g>
</g>
<!-- Node3 -->
<g id="Node000003" class="node">
<title>Node3</title>
<g id="a_Node000003"><a xlink:href="classpolyfem_1_1mesh_1_1_c_mesh2_d.html#ac76c33ff3aee81cbe3e488f030c06a48" target="_top" xlink:title="appends a new mesh to the end of this">
<polygon fill="white" stroke="#666666" points="1119.5,-541 976.5,-541 976.5,-511 1119.5,-511 1119.5,-541"/>
<text text-anchor="start" x="984.5" y="-529" font-family="Helvetica,sans-Serif" font-size="10.00">polyfem::mesh::CMesh2D</text>
<text text-anchor="middle" x="1048" y="-518" font-family="Helvetica,sans-Serif" font-size="10.00">::append</text>
</a>
</g>
</g>
<!-- Node2&#45;&gt;Node3 -->
<g id="edge2_Node000002_Node000003" class="edge">
<title>Node2&#45;&gt;Node3</title>
<g id="a_edge2_Node000002_Node000003"><a xlink:title=" ">
<path fill="none" stroke="#63b8ff" d="M1202.8,-451.42C1181.91,-467.09 1151.84,-487.96 1123,-502 1116.32,-505.25 1109.1,-508.21 1101.87,-510.86"/>
<polygon fill="#63b8ff" stroke="#63b8ff" points="1205.05,-454.12 1210.89,-445.28 1200.81,-448.54 1205.05,-454.12"/>
</a>
</g>
</g>
<!-- Node4 -->
<g id="Node000004" class="node">
<title>Node4</title>
<g id="a_Node000004"><a xlink:href="classpolyfem_1_1mesh_1_1_n_c_mesh2_d.html#afd97e7ed4b7749c221374490f775c9b8" target="_top" xlink:title="appends a new mesh to the end of this">
<polygon fill="white" stroke="#666666" points="1123,-493 973,-493 973,-463 1123,-463 1123,-493"/>
<text text-anchor="start" x="981" y="-481" font-family="Helvetica,sans-Serif" font-size="10.00">polyfem::mesh::NCMesh2D</text>
<text text-anchor="middle" x="1048" y="-470" font-family="Helvetica,sans-Serif" font-size="10.00">::append</text>
</a>
</g>
</g>
<!-- Node2&#45;&gt;Node4 -->
<g id="edge3_Node000002_Node000004" class="edge">
<title>Node2&#45;&gt;Node4</title>
<g id="a_edge3_Node000002_Node000004"><a xlink:title=" ">
<path fill="none" stroke="#63b8ff" d="M1163.45,-447.65C1144.44,-452.69 1123.92,-458.13 1105.57,-463"/>
<polygon fill="#63b8ff" stroke="#63b8ff" points="1164.46,-451 1173.23,-445.06 1162.66,-444.24 1164.46,-451"/>
</a>
</g>
</g>
<!-- Node5 -->
<g id="Node000005" class="node">
<title>Node5</title>
<g id="a_Node000005"><a xlink:href="classpolyfem_1_1mesh_1_1_c_mesh3_d.html#ab7c09b7b7b8d3f482197a43c4bdc740c" target="_top" xlink:title="appends a new mesh to the end of this">
<polygon fill="white" stroke="#666666" points="1119.5,-445 976.5,-445 976.5,-415 1119.5,-415 1119.5,-445"/>
<text text-anchor="start" x="984.5" y="-433" font-family="Helvetica,sans-Serif" font-size="10.00">polyfem::mesh::CMesh3D</text>
<text text-anchor="middle" x="1048" y="-422" font-family="Helvetica,sans-Serif" font-size="10.00">::append</text>
</a>
</g>
</g>
<!-- Node2&#45;&gt;Node5 -->
<g id="edge4_Node000002_Node000005" class="edge">
<title>Node2&#45;&gt;Node5</title>
<g id="a_edge4_Node000002_Node000005"><a xlink:title=" ">
<path fill="none" stroke="#63b8ff" d="M1159.97,-430C1146.7,-430 1132.81,-430 1119.53,-430"/>
<polygon fill="#63b8ff" stroke="#63b8ff" points="1159.98,-433.5 1169.98,-430 1159.98,-426.5 1159.98,-433.5"/>
</a>
</g>
</g>
<!-- Node6 -->
<g id="Node000006" class="node">
<title>Node6</title>
<g id="a_Node000006"><a xlink:href="classpolyfem_1_1mesh_1_1_n_c_mesh3_d.html#a4d4199ca742ce31bea4bdf93af1b9a61" target="_top" xlink:title="appends a new mesh to the end of this">
<polygon fill="white" stroke="#666666" points="1123,-397 973,-397 973,-367 1123,-367 1123,-397"/>
<text text-anchor="start" x="981" y="-385" font-family="Helvetica,sans-Serif" font-size="10.00">polyfem::mesh::NCMesh3D</text>
<text text-anchor="middle" x="1048" y="-374" font-family="Helvetica,sans-Serif" font-size="10.00">::append</text>
</a>
</g>
</g>
<!-- Node2&#45;&gt;Node6 -->
<g id="edge5_Node000002_Node000006" class="edge">
<title>Node2&#45;&gt;Node6</title>
<g id="a_edge5_Node000002_Node000006"><a xlink:title=" ">
<path fill="none" stroke="#63b8ff" d="M1163.45,-412.35C1144.44,-407.31 1123.92,-401.87 1105.57,-397"/>
<polygon fill="#63b8ff" stroke="#63b8ff" points="1162.66,-415.76 1173.23,-414.94 1164.46,-409 1162.66,-415.76"/>
</a>
</g>
</g>
<!-- Node7 -->
<g id="Node000007" class="node">
<title>Node7</title>
<g id="a_Node000007"><a xlink:href="classpolyfem_1_1mesh_1_1_mesh.html#aa7d57e3914abee26cf1e9abbffbaf714" target="_top" xlink:title="appends a new mesh to the end of this, utility that takes pointer, calls other one">
<polygon fill="white" stroke="#666666" points="1109,-349 987,-349 987,-319 1109,-319 1109,-349"/>
<text text-anchor="start" x="995" y="-337" font-family="Helvetica,sans-Serif" font-size="10.00">polyfem::mesh::Mesh</text>
<text text-anchor="middle" x="1048" y="-326" font-family="Helvetica,sans-Serif" font-size="10.00">::append</text>
</a>
</g>
</g>
<!-- Node2&#45;&gt;Node7 -->
<g id="edge6_Node000002_Node000007" class="edge">
<title>Node2&#45;&gt;Node7</title>
<g id="a_edge6_Node000002_Node000007"><a xlink:title=" ">
<path fill="none" stroke="#63b8ff" d="M1165.5,-410.24C1163.25,-408.92 1161.07,-407.5 1159,-406 1137.4,-390.36 1144.7,-373.5 1123,-358 1118.16,-354.54 1112.81,-351.57 1107.25,-349.01"/>
<polygon fill="#63b8ff" stroke="#63b8ff" points="1164,-413.41 1174.48,-414.96 1167.25,-407.21 1164,-413.41"/>
</a>
</g>
</g>
<!-- Node8&#45;&gt;Node2 -->
<g id="edge8_Node000008_Node000002" class="edge">
<title>Node8&#45;&gt;Node2</title>
<g id="a_edge8_Node000008_Node000002"><a xlink:title=" ">
<path fill="none" stroke="#63b8ff" d="M1379.37,-340.02C1361.31,-359.93 1332.87,-388.23 1303,-406 1297.41,-409.33 1291.29,-412.27 1285.07,-414.85"/>
<polygon fill="#63b8ff" stroke="#63b8ff" points="1382.19,-342.12 1386.22,-332.32 1376.96,-337.47 1382.19,-342.12"/>
</a>
</g>
</g>
<!-- Node9 -->
<g id="Node000009" class="node">
<title>Node9</title>
<g id="a_Node000009"><a xlink:href="classpolyfem_1_1assembler_1_1_generic_tensor_problem.html#abc09b74ea91104b0c418a585a09360ea" target="_top" xlink:title=" ">
<polygon fill="white" stroke="#666666" points="1297,-396.5 1165,-396.5 1165,-355.5 1297,-355.5 1297,-396.5"/>
<text text-anchor="start" x="1173" y="-384.5" font-family="Helvetica,sans-Serif" font-size="10.00">polyfem::assembler</text>
<text text-anchor="start" x="1173" y="-373.5" font-family="Helvetica,sans-Serif" font-size="10.00">::GenericTensorProblem</text>
<text text-anchor="middle" x="1231" y="-362.5" font-family="Helvetica,sans-Serif" font-size="10.00">::dirichlet_nodal_value</text>
</a>
</g>
</g>
<!-- Node8&#45;&gt;Node9 -->
<g id="edge9_Node000008_Node000009" class="edge">
<title>Node8&#45;&gt;Node9</title>
<g id="a_edge9_Node000008_Node000009"><a xlink:title=" ">
<path fill="none" stroke="#63b8ff" d="M1346.72,-335.47C1328.79,-341.8 1308.62,-348.93 1290.25,-355.42"/>
<polygon fill="#63b8ff" stroke="#63b8ff" points="1348.16,-338.67 1356.43,-332.04 1345.83,-332.07 1348.16,-338.67"/>
</a>
</g>
</g>
<!-- Node10 -->
<g id="Node000010" class="node">
<title>Node10</title>
<g id="a_Node000010"><a xlink:href="classpolyfem_1_1assembler_1_1_generic_scalar_problem.html#a581d22dc7d63a8b61617304ea0a52f50" target="_top" xlink:title=" ">
<polygon fill="white" stroke="#666666" points="1296.5,-337.5 1165.5,-337.5 1165.5,-296.5 1296.5,-296.5 1296.5,-337.5"/>
<text text-anchor="start" x="1173.5" y="-325.5" font-family="Helvetica,sans-Serif" font-size="10.00">polyfem::assembler</text>
<text text-anchor="start" x="1173.5" y="-314.5" font-family="Helvetica,sans-Serif" font-size="10.00">::GenericScalarProblem</text>
<text text-anchor="middle" x="1231" y="-303.5" font-family="Helvetica,sans-Serif" font-size="10.00">::dirichlet_nodal_value</text>
</a>
</g>
</g>
<!-- Node8&#45;&gt;Node10 -->
<g id="edge10_Node000008_Node000010" class="edge">
<title>Node8&#45;&gt;Node10</title>
<g id="a_edge10_Node000008_Node000010"><a xlink:title=" ">
<path fill="none" stroke="#63b8ff" d="M1328.66,-317C1318.07,-317 1307.18,-317 1296.72,-317"/>
<polygon fill="#63b8ff" stroke="#63b8ff" points="1328.71,-320.5 1338.71,-317 1328.71,-313.5 1328.71,-320.5"/>
</a>
</g>
</g>
<!-- Node11 -->
<g id="Node000011" class="node">
<title>Node11</title>
<g id="a_Node000011"><a xlink:href="classpolyfem_1_1io_1_1_out_geometry_data.html#a6e717aa5e96497a9f4e6edd8d313ffb9" target="_top" xlink:title="saves the nodal values">
<polygon fill="white" stroke="#666666" points="1303,-278 1159,-278 1159,-248 1303,-248 1303,-278"/>
<text text-anchor="start" x="1167" y="-266" font-family="Helvetica,sans-Serif" font-size="10.00">polyfem::io::OutGeometry</text>
<text text-anchor="middle" x="1231" y="-255" font-family="Helvetica,sans-Serif" font-size="10.00">Data::save_points</text>
</a>
</g>
</g>
<!-- Node8&#45;&gt;Node11 -->
<g id="edge11_Node000008_Node000011" class="edge">
<title>Node8&#45;&gt;Node11</title>
<g id="a_edge11_Node000008_Node000011"><a xlink:title=" ">
<path fill="none" stroke="#63b8ff" d="M1342.78,-298.82C1321.91,-292.07 1298.48,-284.5 1278.56,-278.05"/>
<polygon fill="#63b8ff" stroke="#63b8ff" points="1341.89,-302.21 1352.48,-301.96 1344.04,-295.55 1341.89,-302.21"/>
</a>
</g>
</g>
<!-- Node8&#45;&gt;Node29 -->
<g id="edge37_Node000008_Node000029" class="edge">
<title>Node8&#45;&gt;Node29</title>
<g id="a_edge37_Node000008_Node000029"><a xlink:title=" ">
<path fill="none" stroke="#63b8ff" d="M1376.64,-294.91C1358.19,-277.7 1330.64,-254.25 1303,-239 1296.96,-235.67 1290.38,-232.69 1283.74,-230.06"/>
<polygon fill="#63b8ff" stroke="#63b8ff" points="1374.3,-297.52 1383.97,-301.86 1379.12,-292.44 1374.3,-297.52"/>
</a>
</g>
</g>
<!-- Node12 -->
<g id="Node000012" class="node">
<title>Node12</title>
<g id="a_Node000012"><a xlink:href="classpolyfem_1_1io_1_1_out_geometry_data.html#ab6ebc8d7951c52d2ce07506306b63ea0" target="_top" xlink:title="saves the vtu file for time t">
<polygon fill="white" stroke="#666666" points="1120,-278 976,-278 976,-248 1120,-248 1120,-278"/>
<text text-anchor="start" x="984" y="-266" font-family="Helvetica,sans-Serif" font-size="10.00">polyfem::io::OutGeometry</text>
<text text-anchor="middle" x="1048" y="-255" font-family="Helvetica,sans-Serif" font-size="10.00">Data::save_vtu</text>
</a>
</g>
</g>
<!-- Node11&#45;&gt;Node12 -->
<g id="edge12_Node000011_Node000012" class="edge">
<title>Node11&#45;&gt;Node12</title>
<g id="a_edge12_Node000011_Node000012"><a xlink:title=" ">
<path fill="none" stroke="#63b8ff" d="M1148.71,-263C1139.17,-263 1129.49,-263 1120.11,-263"/>
<polygon fill="#63b8ff" stroke="#63b8ff" points="1148.98,-266.5 1158.98,-263 1148.98,-259.5 1148.98,-266.5"/>
</a>
</g>
</g>
<!-- Node13 -->
<g id="Node000013" class="node">
<title>Node13</title>
<g id="a_Node000013"><a xlink:href="classpolyfem_1_1io_1_1_out_geometry_data.html#ae5fdb256636278dc9d47358e202aba22" target="_top" xlink:title="exports everytihng, txt, vtu, etc">
<polygon fill="white" stroke="#666666" points="937,-342 793,-342 793,-312 937,-312 937,-342"/>
<text text-anchor="start" x="801" y="-330" font-family="Helvetica,sans-Serif" font-size="10.00">polyfem::io::OutGeometry</text>
<text text-anchor="middle" x="865" y="-319" font-family="Helvetica,sans-Serif" font-size="10.00">Data::export_data</text>
</a>
</g>
</g>
<!-- Node12&#45;&gt;Node13 -->
<g id="edge13_Node000012_Node000013" class="edge">
<title>Node12&#45;&gt;Node13</title>
<g id="a_edge13_Node000012_Node000013"><a xlink:title=" ">
<path fill="none" stroke="#63b8ff" d="M995.12,-281.34C967.67,-291.05 934.38,-302.82 908.48,-311.98"/>
<polygon fill="#63b8ff" stroke="#63b8ff" points="996.3,-284.64 1004.56,-278.01 993.97,-278.04 996.3,-284.64"/>
</a>
</g>
</g>
<!-- Node17 -->
<g id="Node000017" class="node">
<title>Node17</title>
<g id="a_Node000017"><a xlink:href="classpolyfem_1_1_state.html#a29b1283c20475e19b79a39cd324ac5aa" target="_top" xlink:title="saves a subsolve when save_solve_sequence_debug is true">
<polygon fill="white" stroke="#666666" points="924,-278 806,-278 806,-248 924,-248 924,-278"/>
<text text-anchor="start" x="814" y="-266" font-family="Helvetica,sans-Serif" font-size="10.00">polyfem::State::save</text>
<text text-anchor="middle" x="865" y="-255" font-family="Helvetica,sans-Serif" font-size="10.00">_subsolve</text>
</a>
</g>
</g>
<!-- Node12&#45;&gt;Node17 -->
<g id="edge17_Node000012_Node000017" class="edge">
<title>Node12&#45;&gt;Node17</title>
<g id="a_edge17_Node000012_Node000017"><a xlink:title=" ">
<path fill="none" stroke="#63b8ff" d="M965.85,-263C951.84,-263 937.52,-263 924.26,-263"/>
<polygon fill="#63b8ff" stroke="#63b8ff" points="965.98,-266.5 975.98,-263 965.98,-259.5 965.98,-266.5"/>
</a>
</g>
</g>
<!-- Node23 -->
<g id="Node000023" class="node">
<title>Node23</title>
<g id="a_Node000023"><a xlink:href="classpolyfem_1_1_state.html#a442fa686e1d08a0a104f3869a6fa2948" target="_top" xlink:title="saves a timestep">
<polygon fill="white" stroke="#666666" points="755.5,-174 637.5,-174 637.5,-144 755.5,-144 755.5,-174"/>
<text text-anchor="start" x="645.5" y="-162" font-family="Helvetica,sans-Serif" font-size="10.00">polyfem::State::save</text>
<text text-anchor="middle" x="696.5" y="-151" font-family="Helvetica,sans-Serif" font-size="10.00">_timestep</text>
</a>
</g>
</g>
<!-- Node12&#45;&gt;Node23 -->
<g id="edge25_Node000012_Node000023" class="edge">
<title>Node12&#45;&gt;Node23</title>
<g id="a_edge25_Node000012_Node000023"><a xlink:title=" ">
<path fill="none" stroke="#63b8ff" d="M986.91,-245.12C919.44,-225.04 811.17,-192.82 747.93,-174.01"/>
<polygon fill="#63b8ff" stroke="#63b8ff" points="985.97,-248.49 996.55,-247.99 987.97,-241.78 985.97,-248.49"/>
</a>
</g>
</g>
<!-- Node14 -->
<g id="Node000014" class="node">
<title>Node14</title>
<g id="a_Node000014"><a xlink:href="classpolyfem_1_1_state.html#acc61dcd623eec2308480c5c082da3d9e" target="_top" xlink:title="saves all data on the disk according to the input params">
<polygon fill="white" stroke="#666666" points="400,-255.5 247,-255.5 247,-236.5 400,-236.5 400,-255.5"/>
<text text-anchor="middle" x="323.5" y="-243.5" font-family="Helvetica,sans-Serif" font-size="10.00">polyfem::State::export_data</text>
</a>
</g>
</g>
<!-- Node13&#45;&gt;Node14 -->
<g id="edge14_Node000013_Node000014" class="edge">
<title>Node13&#45;&gt;Node14</title>
<g id="a_edge14_Node000013_Node000014"><a xlink:title=" ">
<path fill="none" stroke="#63b8ff" d="M782.75,-332.72C695.44,-336.55 553.38,-336.07 436,-304 398.11,-293.65 358.38,-269.18 338.13,-255.56"/>
<polygon fill="#63b8ff" stroke="#63b8ff" points="783.04,-336.21 792.86,-332.24 782.71,-329.22 783.04,-336.21"/>
</a>
</g>
</g>
<!-- Node15 -->
<g id="Node000015" class="node">
<title>Node15</title>
<g id="a_Node000015"><a xlink:href="main_8cpp.html#aec889c702a246ad7f332c75ab7adb438" target="_top" xlink:title=" ">
<polygon fill="white" stroke="#666666" points="199.5,-244.5 88.5,-244.5 88.5,-225.5 199.5,-225.5 199.5,-244.5"/>
<text text-anchor="middle" x="144" y="-232.5" font-family="Helvetica,sans-Serif" font-size="10.00">forward_simulation</text>
</a>
</g>
</g>
<!-- Node14&#45;&gt;Node15 -->
<g id="edge15_Node000014_Node000015" class="edge">
<title>Node14&#45;&gt;Node15</title>
<g id="a_edge15_Node000014_Node000015"><a xlink:title=" ">
<path fill="none" stroke="#63b8ff" d="M236.82,-240.69C224.12,-239.9 211.33,-239.11 199.5,-238.38"/>
<polygon fill="#63b8ff" stroke="#63b8ff" points="236.77,-244.19 246.97,-241.32 237.2,-237.21 236.77,-244.19"/>
</a>
</g>
</g>
<!-- Node16 -->
<g id="Node000016" class="node">
<title>Node16</title>
<g id="a_Node000016"><a xlink:href="main_8cpp.html#a3c04138a5bfe5d72780bb7e82a18e627" target="_top" xlink:title=" ">
<polygon fill="white" stroke="#666666" points="41,-244.5 0,-244.5 0,-225.5 41,-225.5 41,-244.5"/>
<text text-anchor="middle" x="20.5" y="-232.5" font-family="Helvetica,sans-Serif" font-size="10.00">main</text>
</a>
</g>
</g>
<!-- Node15&#45;&gt;Node16 -->
<g id="edge16_Node000015_Node000016" class="edge">
<title>Node15&#45;&gt;Node16</title>
<g id="a_edge16_Node000015_Node000016"><a xlink:title=" ">
<path fill="none" stroke="#63b8ff" d="M77.97,-235C64.49,-235 51.29,-235 41.05,-235"/>
<polygon fill="#63b8ff" stroke="#63b8ff" points="78.29,-238.5 88.29,-235 78.29,-231.5 78.29,-238.5"/>
</a>
</g>
</g>
<!-- Node18 -->
<g id="Node000018" class="node">
<title>Node18</title>
<g id="a_Node000018"><a xlink:href="classpolyfem_1_1_state.html#acdb194af25d840fa14cec97b19e04577" target="_top" xlink:title="solves nonlinear problems">
<polygon fill="white" stroke="#666666" points="757,-278 636,-278 636,-248 757,-248 757,-278"/>
<text text-anchor="start" x="644" y="-266" font-family="Helvetica,sans-Serif" font-size="10.00">polyfem::State::solve</text>
<text text-anchor="middle" x="696.5" y="-255" font-family="Helvetica,sans-Serif" font-size="10.00">_tensor_nonlinear</text>
</a>
</g>
</g>
<!-- Node17&#45;&gt;Node18 -->
<g id="edge18_Node000017_Node000018" class="edge">
<title>Node17&#45;&gt;Node18</title>
<g id="a_edge18_Node000017_Node000018"><a xlink:title=" ">
<path fill="none" stroke="#63b8ff" d="M795.64,-263C782.86,-263 769.6,-263 757.11,-263"/>
<polygon fill="#63b8ff" stroke="#63b8ff" points="795.77,-266.5 805.77,-263 795.77,-259.5 795.77,-266.5"/>
</a>
</g>
</g>
<!-- Node19 -->
<g id="Node000019" class="node">
<title>Node19</title>
<g id="a_Node000019"><a xlink:href="classpolyfem_1_1_state.html#a7450ef7c42dd9c523e1be73a5819117d" target="_top" xlink:title="solves the problems">
<polygon fill="white" stroke="#666666" points="384,-198 263,-198 263,-168 384,-168 384,-198"/>
<text text-anchor="start" x="271" y="-186" font-family="Helvetica,sans-Serif" font-size="10.00">polyfem::State::solve</text>
<text text-anchor="middle" x="323.5" y="-175" font-family="Helvetica,sans-Serif" font-size="10.00">_problem</text>
</a>
</g>
</g>
<!-- Node18&#45;&gt;Node19 -->
<g id="edge19_Node000018_Node000019" class="edge">
<title>Node18&#45;&gt;Node19</title>
<g id="a_edge19_Node000018_Node000019"><a xlink:title=" ">
<path fill="none" stroke="#63b8ff" d="M644.25,-281.08C589.42,-297.17 501.49,-313.31 436,-279 411.1,-265.95 420.63,-246.09 400,-227 387.53,-215.46 371.52,-205.6 357.45,-198.15"/>
<polygon fill="#63b8ff" stroke="#63b8ff" points="645.54,-284.35 654.1,-278.09 643.51,-277.65 645.54,-284.35"/>
</a>
</g>
</g>
<!-- Node22 -->
<g id="Node000022" class="node">
<title>Node22</title>
<g id="a_Node000022"><a xlink:href="classpolyfem_1_1_state.html#a4d91e8c971fc121b0cff2f0c02ca79e7" target="_top" xlink:title="solves transient tensor nonlinear problem">
<polygon fill="white" stroke="#666666" points="594,-270 442,-270 442,-240 594,-240 594,-270"/>
<text text-anchor="start" x="450" y="-258" font-family="Helvetica,sans-Serif" font-size="10.00">polyfem::State::solve</text>
<text text-anchor="middle" x="518" y="-247" font-family="Helvetica,sans-Serif" font-size="10.00">_transient_tensor_nonlinear</text>
</a>
</g>
</g>
<!-- Node18&#45;&gt;Node22 -->
<g id="edge23_Node000018_Node000022" class="edge">
<title>Node18&#45;&gt;Node22</title>
<g id="a_edge23_Node000018_Node000022"><a xlink:title=" ">
<path fill="none" stroke="#63b8ff" d="M625.53,-259.83C615.18,-259.36 604.48,-258.87 594.03,-258.4"/>
<polygon fill="#63b8ff" stroke="#63b8ff" points="625.6,-263.34 635.75,-260.29 625.91,-256.34 625.6,-263.34"/>
</a>
</g>
</g>
<!-- Node19&#45;&gt;Node15 -->
<g id="edge20_Node000019_Node000015" class="edge">
<title>Node19&#45;&gt;Node15</title>
<g id="a_edge20_Node000019_Node000015"><a xlink:title=" ">
<path fill="none" stroke="#63b8ff" d="M261.39,-200.9C233.21,-209.16 200.91,-218.62 177.5,-225.48"/>
<polygon fill="#63b8ff" stroke="#63b8ff" points="262.55,-204.21 271.16,-198.04 260.58,-197.49 262.55,-204.21"/>
</a>
</g>
</g>
<!-- Node20 -->
<g id="Node000020" class="node">
<title>Node20</title>
<g id="a_Node000020"><a xlink:href="classpolyfem_1_1_state.html#a219f9935d918f739d82488449bd4cbf4" target="_top" xlink:title="solves the problem, call other methods">
<polygon fill="white" stroke="#666666" points="204.5,-204.5 83.5,-204.5 83.5,-185.5 204.5,-185.5 204.5,-204.5"/>
<text text-anchor="middle" x="144" y="-192.5" font-family="Helvetica,sans-Serif" font-size="10.00">polyfem::State::solve</text>
</a>
</g>
</g>
<!-- Node19&#45;&gt;Node20 -->
<g id="edge21_Node000019_Node000020" class="edge">
<title>Node19&#45;&gt;Node20</title>
<g id="a_edge21_Node000019_Node000020"><a xlink:title=" ">
<path fill="none" stroke="#63b8ff" d="M252.64,-187.72C236.8,-188.79 220.12,-189.92 204.74,-190.96"/>
<polygon fill="#63b8ff" stroke="#63b8ff" points="253.16,-191.2 262.9,-187.03 252.69,-184.21 253.16,-191.2"/>
</a>
</g>
</g>
<!-- Node21 -->
<g id="Node000021" class="node">
<title>Node21</title>
<g id="a_Node000021"><a xlink:href="structpolyfem_1_1solver_1_1_adjoint_opt_utils.html#acac3e8ce8646ddd1544ed034c71bec96" target="_top" xlink:title=" ">
<polygon fill="white" stroke="#666666" points="211,-167 77,-167 77,-137 211,-137 211,-167"/>
<text text-anchor="start" x="85" y="-155" font-family="Helvetica,sans-Serif" font-size="10.00">polyfem::solver::Adjoint</text>
<text text-anchor="middle" x="144" y="-144" font-family="Helvetica,sans-Serif" font-size="10.00">OptUtils::solve_pde</text>
</a>
</g>
</g>
<!-- Node19&#45;&gt;Node21 -->
<g id="edge22_Node000019_Node000021" class="edge">
<title>Node19&#45;&gt;Node21</title>
<g id="a_edge22_Node000019_Node000021"><a xlink:title=" ">
<path fill="none" stroke="#63b8ff" d="M253.01,-170.86C239.24,-168.46 224.82,-165.94 211.16,-163.55"/>
<polygon fill="#63b8ff" stroke="#63b8ff" points="252.45,-174.32 262.9,-172.59 253.65,-167.42 252.45,-174.32"/>
</a>
</g>
</g>
<!-- Node22&#45;&gt;Node19 -->
<g id="edge24_Node000022_Node000019" class="edge">
<title>Node22&#45;&gt;Node19</title>
<g id="a_edge24_Node000022_Node000019"><a xlink:title=" ">
<path fill="none" stroke="#63b8ff" d="M452.97,-236.8C447.21,-234.93 441.48,-232.98 436,-231 408.85,-221.17 378.83,-208.12 356.78,-198.1"/>
<polygon fill="#63b8ff" stroke="#63b8ff" points="452.09,-240.19 462.68,-239.87 454.21,-233.52 452.09,-240.19"/>
</a>
</g>
</g>
<!-- Node23&#45;&gt;Node22 -->
<g id="edge36_Node000023_Node000022" class="edge">
<title>Node23&#45;&gt;Node22</title>
<g id="a_edge36_Node000023_Node000022"><a xlink:title=" ">
<path fill="none" stroke="#63b8ff" d="M671.3,-181.15C652.91,-196.96 626.37,-217.7 600,-231 593.32,-234.37 586.09,-237.35 578.79,-239.96"/>
<polygon fill="#63b8ff" stroke="#63b8ff" points="673.93,-183.5 679.14,-174.27 669.32,-178.23 673.93,-183.5"/>
</a>
</g>
</g>
<!-- Node24 -->
<g id="Node000024" class="node">
<title>Node24</title>
<g id="a_Node000024"><a xlink:href="classpolyfem_1_1_state.html#ac5c4dd2be369c759c68e0a36a45bfcc7" target="_top" xlink:title="initialize solver">
<polygon fill="white" stroke="#666666" points="573,-222 463,-222 463,-192 573,-192 573,-222"/>
<text text-anchor="start" x="471" y="-210" font-family="Helvetica,sans-Serif" font-size="10.00">polyfem::State::init</text>
<text text-anchor="middle" x="518" y="-199" font-family="Helvetica,sans-Serif" font-size="10.00">_solve</text>
</a>
</g>
</g>
<!-- Node23&#45;&gt;Node24 -->
<g id="edge26_Node000023_Node000024" class="edge">
<title>Node23&#45;&gt;Node24</title>
<g id="a_edge26_Node000023_Node000024"><a xlink:title=" ">
<path fill="none" stroke="#63b8ff" d="M630.46,-176.69C611.65,-181.8 591.33,-187.33 573.26,-192.24"/>
<polygon fill="#63b8ff" stroke="#63b8ff" points="631.41,-180.06 640.14,-174.06 629.57,-173.3 631.41,-180.06"/>
</a>
</g>
</g>
<!-- Node25 -->
<g id="Node000025" class="node">
<title>Node25</title>
<g id="a_Node000025"><a xlink:href="classpolyfem_1_1_state.html#a711a7162a063d7534b03d9ff9acb93f0" target="_top" xlink:title=" ">
<polygon fill="white" stroke="#666666" points="578.5,-174 457.5,-174 457.5,-144 578.5,-144 578.5,-174"/>
<text text-anchor="start" x="465.5" y="-162" font-family="Helvetica,sans-Serif" font-size="10.00">polyfem::State::solve</text>
<text text-anchor="middle" x="518" y="-151" font-family="Helvetica,sans-Serif" font-size="10.00">_homogenization</text>
</a>
</g>
</g>
<!-- Node23&#45;&gt;Node25 -->
<g id="edge28_Node000023_Node000025" class="edge">
<title>Node23&#45;&gt;Node25</title>
<g id="a_edge28_Node000023_Node000025"><a xlink:title=" ">
<path fill="none" stroke="#63b8ff" d="M626.92,-159C611.02,-159 594.22,-159 578.73,-159"/>
<polygon fill="#63b8ff" stroke="#63b8ff" points="627.22,-162.5 637.22,-159 627.22,-155.5 627.22,-162.5"/>
</a>
</g>
</g>
<!-- Node26 -->
<g id="Node000026" class="node">
<title>Node26</title>
<g id="a_Node000026"><a xlink:href="classpolyfem_1_1_state.html#af5afb70dc127d3ce190116321e83f190" target="_top" xlink:title="solves transient linear problem">
<polygon fill="white" stroke="#666666" points="578.5,-126 457.5,-126 457.5,-96 578.5,-96 578.5,-126"/>
<text text-anchor="start" x="465.5" y="-114" font-family="Helvetica,sans-Serif" font-size="10.00">polyfem::State::solve</text>
<text text-anchor="middle" x="518" y="-103" font-family="Helvetica,sans-Serif" font-size="10.00">_transient_linear</text>
</a>
</g>
</g>
<!-- Node23&#45;&gt;Node26 -->
<g id="edge30_Node000023_Node000026" class="edge">
<title>Node23&#45;&gt;Node26</title>
<g id="a_edge30_Node000023_Node000026"><a xlink:title=" ">
<path fill="none" stroke="#63b8ff" d="M630.35,-141.28C611.89,-136.26 591.97,-130.85 574.16,-126"/>
<polygon fill="#63b8ff" stroke="#63b8ff" points="629.57,-144.7 640.14,-143.94 631.41,-137.94 629.57,-144.7"/>
</a>
</g>
</g>
<!-- Node27 -->
<g id="Node000027" class="node">
<title>Node27</title>
<g id="a_Node000027"><a xlink:href="classpolyfem_1_1_state.html#ac42074a324e693f8eef5d7a96a56dc38" target="_top" xlink:title="solves transient navier stokes with FEM">
<polygon fill="white" stroke="#666666" points="587,-78 449,-78 449,-48 587,-48 587,-78"/>
<text text-anchor="start" x="457" y="-66" font-family="Helvetica,sans-Serif" font-size="10.00">polyfem::State::solve</text>
<text text-anchor="middle" x="518" y="-55" font-family="Helvetica,sans-Serif" font-size="10.00">_transient_navier_stokes</text>
</a>
</g>
</g>
<!-- Node23&#45;&gt;Node27 -->
<g id="edge32_Node000023_Node000027" class="edge">
<title>Node23&#45;&gt;Node27</title>
<g id="a_edge32_Node000023_Node000027"><a xlink:title=" ">
<path fill="none" stroke="#63b8ff" d="M671.3,-136.85C652.91,-121.04 626.37,-100.3 600,-87 593.32,-83.63 586.09,-80.65 578.79,-78.04"/>
<polygon fill="#63b8ff" stroke="#63b8ff" points="669.32,-139.77 679.14,-143.73 673.93,-134.5 669.32,-139.77"/>
</a>
</g>
</g>
<!-- Node28 -->
<g id="Node000028" class="node">
<title>Node28</title>
<g id="a_Node000028"><a xlink:href="classpolyfem_1_1_state.html#a9fa28a682c746974ee171d8cfa6a8558" target="_top" xlink:title="solves transient navier stokes with operator splitting">
<polygon fill="white" stroke="#666666" points="600,-30 436,-30 436,0 600,0 600,-30"/>
<text text-anchor="start" x="444" y="-18" font-family="Helvetica,sans-Serif" font-size="10.00">polyfem::State::solve</text>
<text text-anchor="middle" x="518" y="-7" font-family="Helvetica,sans-Serif" font-size="10.00">_transient_navier_stokes_split</text>
</a>
</g>
</g>
<!-- Node23&#45;&gt;Node28 -->
<g id="edge34_Node000023_Node000028" class="edge">
<title>Node23&#45;&gt;Node28</title>
<g id="a_edge34_Node000023_Node000028"><a xlink:title=" ">
<path fill="none" stroke="#63b8ff" d="M682.34,-134.72C666.37,-107.5 636.93,-63.9 600,-39 594.89,-35.56 589.28,-32.6 583.47,-30.05"/>
<polygon fill="#63b8ff" stroke="#63b8ff" points="679.42,-136.67 687.42,-143.61 685.5,-133.19 679.42,-136.67"/>
</a>
</g>
</g>
<!-- Node24&#45;&gt;Node19 -->
<g id="edge27_Node000024_Node000019" class="edge">
<title>Node24&#45;&gt;Node19</title>
<g id="a_edge27_Node000024_Node000019"><a xlink:title=" ">
<path fill="none" stroke="#63b8ff" d="M452.9,-199.01C430.77,-196.25 406.08,-193.17 384.31,-190.46"/>
<polygon fill="#63b8ff" stroke="#63b8ff" points="452.51,-202.49 462.87,-200.25 453.38,-195.54 452.51,-202.49"/>
</a>
</g>
</g>
<!-- Node25&#45;&gt;Node19 -->
<g id="edge29_Node000025_Node000019" class="edge">
<title>Node25&#45;&gt;Node19</title>
<g id="a_edge29_Node000025_Node000019"><a xlink:title=" ">
<path fill="none" stroke="#63b8ff" d="M447.4,-167.68C426.68,-170.26 404.17,-173.07 384.14,-175.56"/>
<polygon fill="#63b8ff" stroke="#63b8ff" points="447.92,-171.14 457.41,-166.43 447.05,-164.19 447.92,-171.14"/>
</a>
</g>
</g>
<!-- Node26&#45;&gt;Node19 -->
<g id="edge31_Node000026_Node000019" class="edge">
<title>Node26&#45;&gt;Node19</title>
<g id="a_edge31_Node000026_Node000019"><a xlink:title=" ">
<path fill="none" stroke="#63b8ff" d="M452.97,-129.2C447.21,-131.07 441.48,-133.02 436,-135 408.85,-144.83 378.83,-157.88 356.78,-167.9"/>
<polygon fill="#63b8ff" stroke="#63b8ff" points="454.21,-132.48 462.68,-126.13 452.09,-125.81 454.21,-132.48"/>
</a>
</g>
</g>
<!-- Node27&#45;&gt;Node19 -->
<g id="edge33_Node000027_Node000019" class="edge">
<title>Node27&#45;&gt;Node19</title>
<g id="a_edge33_Node000027_Node000019"><a xlink:title=" ">
<path fill="none" stroke="#63b8ff" d="M446.24,-81.98C442.72,-83.54 439.28,-85.21 436,-87 396.09,-108.78 357.77,-146.68 338.13,-167.76"/>
<polygon fill="#63b8ff" stroke="#63b8ff" points="447.78,-85.13 455.71,-78.11 445.13,-78.65 447.78,-85.13"/>
</a>
</g>
</g>
<!-- Node28&#45;&gt;Node19 -->
<g id="edge35_Node000028_Node000019" class="edge">
<title>Node28&#45;&gt;Node19</title>
<g id="a_edge35_Node000028_Node000019"><a xlink:title=" ">
<path fill="none" stroke="#63b8ff" d="M443.02,-34.67C440.6,-36.02 438.25,-37.46 436,-39 385.37,-73.63 347.45,-138.47 332.04,-167.85"/>
<polygon fill="#63b8ff" stroke="#63b8ff" points="444.68,-37.75 452.07,-30.17 441.56,-31.49 444.68,-37.75"/>
</a>
</g>
</g>
</g>
</svg>

<g id="navigator" transform="translate(0 0)" fill="#404254">
  <rect fill="#f2f5e9" fill-opacity="0.5" stroke="#606060" stroke-width=".5" x="0" y="0" width="60" height="60"/>
  <use id="zoomplus" xlink:href="#zoomPlus" x="17" y="9" onmousedown="handleZoom(evt,'in')"/>
  <use id="zoomminus" xlink:href="#zoomMin" x="42" y="9" onmousedown="handleZoom(evt,'out')"/>
  <use id="reset" xlink:href="#resetDef" x="30" y="36" onmousedown="handleReset()"/>
   <use id="arrowup" xlink:href="#arrowUp" x="0" y="0" onmousedown="handlePan(0,-1)"/>
  <use id="arrowright" xlink:href="#arrowRight" x="0" y="0" onmousedown="handlePan(1,0)"/>
  <use id="arrowdown" xlink:href="#arrowDown" x="0" y="0" onmousedown="handlePan(0,1)"/>
  <use id="arrowleft" xlink:href="#arrowLeft" x="0" y="0" onmousedown="handlePan(-1,0)"/>
</g>
<svg viewBox="0 0 15 15" width="100%" height="30px" preserveAspectRatio="xMaxYMin meet">
 <g id="arrow_out" transform="scale(0.3 0.3)">
  <a xlink:href="classpolyfem_1_1mesh_1_1_mesh_a4addd001329243170f8a5f292739227e_icgraph_org.svg" target="_base">
   <rect id="button" ry="5" rx="5" y="6" x="6" height="38" width="38"
        fill="#f2f5e9" fill-opacity="0.5" stroke="#606060" stroke-width="1.0"/>
   <path id="arrow"
     d="M 11.500037,31.436501 C 11.940474,20.09759 22.043105,11.32322 32.158766,21.979434 L 37.068811,17.246167 C 37.068811,17.246167 37.088388,32 37.088388,32 L 22.160133,31.978069 C 22.160133,31.978069 26.997745,27.140456 26.997745,27.140456 C 18.528582,18.264221 13.291696,25.230495 11.500037,31.436501 z"
     style="fill:#404040;"/>
  </a>
 </g>
</svg>

<style type='text/css'>
<![CDATA[
[data-mouse-over-selected='false'] { opacity: 0.7; }
[data-mouse-over-selected='true']  { opacity: 1.0; }
]]>
</style>
<script type="application/ecmascript"><![CDATA[
document.addEventListener('DOMContentLoaded', (event) => {
  highlightEdges();
  highlightAdjacentNodes();
});
]]></script>
</svg>
