<?xml version="1.0" encoding="UTF-8" standalone="no"?>
<!DOCTYPE svg PUBLIC "-//W3C//DTD SVG 1.1//EN"
 "http://www.w3.org/Graphics/SVG/1.1/DTD/svg11.dtd">
<!-- Generated by graphviz version 2.43.0 (0)
 -->
<!-- Title: polyfem::solver::CompositeParametrization::inverse_eval Pages: 1 -->
<svg width="394pt" height="501pt"
 viewBox="0.00 0.00 394.00 500.50" xmlns="http://www.w3.org/2000/svg" xmlns:xlink="http://www.w3.org/1999/xlink">
<g id="graph0" class="graph" transform="scale(1 1) rotate(0) translate(4 496.5)">
<title>polyfem::solver::CompositeParametrization::inverse_eval</title>
<!-- Node1 -->
<g id="Node000001" class="node">
<title>Node1</title>
<g id="a_Node000001"><a xlink:title="Eval x = f^&#45;1 (y).">
<polygon fill="#999999" stroke="#666666" points="386,-256 224,-256 224,-226 386,-226 386,-256"/>
<text text-anchor="start" x="232" y="-244" font-family="Helvetica,sans-Serif" font-size="10.00">polyfem::solver::Composite</text>
<text text-anchor="middle" x="305" y="-233" font-family="Helvetica,sans-Serif" font-size="10.00">Parametrization::inverse_eval</text>
</a>
</g>
</g>
<!-- Node2 -->
<g id="Node000002" class="node">
<title>Node2</title>
<g id="a_Node000002"><a xlink:href="classpolyfem_1_1solver_1_1_damping_variable_to_simulation.html#a60b6462a9b1b9ab0cfe876da25d10b40" target="_top" xlink:title="Compute optimization variables from forward simulation legacy::State.">
<polygon fill="white" stroke="#666666" points="165.5,-492.5 22.5,-492.5 22.5,-451.5 165.5,-451.5 165.5,-492.5"/>
<text text-anchor="start" x="30.5" y="-480.5" font-family="Helvetica,sans-Serif" font-size="10.00">polyfem::solver::Damping</text>
<text text-anchor="start" x="30.5" y="-469.5" font-family="Helvetica,sans-Serif" font-size="10.00">VariableToSimulation::</text>
<text text-anchor="middle" x="94" y="-458.5" font-family="Helvetica,sans-Serif" font-size="10.00">inverse_eval</text>
</a>
</g>
</g>
<!-- Node1&#45;&gt;Node2 -->
<g id="edge1_Node000001_Node000002" class="edge">
<title>Node1&#45;&gt;Node2</title>
<g id="a_edge1_Node000001_Node000002"><a xlink:title=" ">
<path fill="none" stroke="#63b8ff" d="M296.45,-265.8C282.24,-308.37 247.46,-395.32 188,-443 181.4,-448.29 173.84,-452.62 165.93,-456.16"/>
<polygon fill="#63b8ff" stroke="#63b8ff" points="299.8,-266.82 299.55,-256.23 293.14,-264.67 299.8,-266.82"/>
</a>
</g>
</g>
<!-- Node3 -->
<g id="Node000003" class="node">
<title>Node3</title>
<g id="a_Node000003"><a xlink:href="classpolyfem_1_1solver_1_1_dirichlet_boundary_variable_to_simulation.html#ad771e76cc48e121031514c522ab90e6a" target="_top" xlink:title="Compute optimization variables from forward simulation legacy::State.">
<polygon fill="white" stroke="#666666" points="177,-433.5 11,-433.5 11,-392.5 177,-392.5 177,-433.5"/>
<text text-anchor="start" x="19" y="-421.5" font-family="Helvetica,sans-Serif" font-size="10.00">polyfem::solver::Dirichlet</text>
<text text-anchor="start" x="19" y="-410.5" font-family="Helvetica,sans-Serif" font-size="10.00">BoundaryVariableToSimulation</text>
<text text-anchor="middle" x="94" y="-399.5" font-family="Helvetica,sans-Serif" font-size="10.00">::inverse_eval</text>
</a>
</g>
</g>
<!-- Node1&#45;&gt;Node3 -->
<g id="edge2_Node000001_Node000003" class="edge">
<title>Node1&#45;&gt;Node3</title>
<g id="a_edge2_Node000001_Node000003"><a xlink:title=" ">
<path fill="none" stroke="#63b8ff" d="M290.63,-265.1C271.79,-296.89 234.48,-352.49 188,-384 183.38,-387.13 178.41,-389.94 173.25,-392.45"/>
<polygon fill="#63b8ff" stroke="#63b8ff" points="293.67,-266.83 295.66,-256.43 287.62,-263.32 293.67,-266.83"/>
</a>
</g>
</g>
<!-- Node4 -->
<g id="Node000004" class="node">
<title>Node4</title>
<g id="a_Node000004"><a xlink:href="classpolyfem_1_1solver_1_1_dirichlet_nodes_variable_to_simulation.html#ac92d1e2300899159a4a6ab32ca4d29b6" target="_top" xlink:title="Compute optimization variables from forward simulation legacy::State.">
<polygon fill="white" stroke="#666666" points="169,-374.5 19,-374.5 19,-333.5 169,-333.5 169,-374.5"/>
<text text-anchor="start" x="27" y="-362.5" font-family="Helvetica,sans-Serif" font-size="10.00">polyfem::solver::Dirichlet</text>
<text text-anchor="start" x="27" y="-351.5" font-family="Helvetica,sans-Serif" font-size="10.00">NodesVariableToSimulation</text>
<text text-anchor="middle" x="94" y="-340.5" font-family="Helvetica,sans-Serif" font-size="10.00">::inverse_eval</text>
</a>
</g>
</g>
<!-- Node1&#45;&gt;Node4 -->
<g id="edge3_Node000001_Node000004" class="edge">
<title>Node1&#45;&gt;Node4</title>
<g id="a_edge3_Node000001_Node000004"><a xlink:title=" ">
<path fill="none" stroke="#63b8ff" d="M279.38,-262.51C256.89,-281.22 222.05,-307.94 188,-325 181.95,-328.03 175.52,-330.82 168.98,-333.38"/>
<polygon fill="#63b8ff" stroke="#63b8ff" points="281.69,-265.13 287.08,-256.01 277.18,-259.78 281.69,-265.13"/>
</a>
</g>
</g>
<!-- Node5 -->
<g id="Node000005" class="node">
<title>Node5</title>
<g id="a_Node000005"><a xlink:href="classpolyfem_1_1solver_1_1_elastic_variable_to_simulation.html#a1999422f909e0f1175ad8639d8c9c312" target="_top" xlink:title="Compute optimization variables from forward simulation legacy::State.">
<polygon fill="white" stroke="#666666" points="159.5,-315.5 28.5,-315.5 28.5,-274.5 159.5,-274.5 159.5,-315.5"/>
<text text-anchor="start" x="36.5" y="-303.5" font-family="Helvetica,sans-Serif" font-size="10.00">polyfem::solver::Elastic</text>
<text text-anchor="start" x="36.5" y="-292.5" font-family="Helvetica,sans-Serif" font-size="10.00">VariableToSimulation::</text>
<text text-anchor="middle" x="94" y="-281.5" font-family="Helvetica,sans-Serif" font-size="10.00">inverse_eval</text>
</a>
</g>
</g>
<!-- Node1&#45;&gt;Node5 -->
<g id="edge4_Node000001_Node000005" class="edge">
<title>Node1&#45;&gt;Node5</title>
<g id="a_edge4_Node000001_Node000005"><a xlink:title=" ">
<path fill="none" stroke="#63b8ff" d="M235.83,-258.61C211.3,-264.95 183.72,-272.08 159.51,-278.33"/>
<polygon fill="#63b8ff" stroke="#63b8ff" points="236.98,-261.93 245.78,-256.04 235.22,-255.15 236.98,-261.93"/>
</a>
</g>
</g>
<!-- Node6 -->
<g id="Node000006" class="node">
<title>Node6</title>
<g id="a_Node000006"><a xlink:href="classpolyfem_1_1solver_1_1_friction_variable_to_simulation.html#a4fe1e1a64e487103b0a20c3abb2f4eaa" target="_top" xlink:title="Compute optimization variables from forward simulation legacy::State.">
<polygon fill="white" stroke="#666666" points="188,-256 0,-256 0,-226 188,-226 188,-256"/>
<text text-anchor="start" x="8" y="-244" font-family="Helvetica,sans-Serif" font-size="10.00">polyfem::solver::Friction</text>
<text text-anchor="middle" x="94" y="-233" font-family="Helvetica,sans-Serif" font-size="10.00">VariableToSimulation::inverse_eval</text>
</a>
</g>
</g>
<!-- Node1&#45;&gt;Node6 -->
<g id="edge5_Node000001_Node000006" class="edge">
<title>Node1&#45;&gt;Node6</title>
<g id="a_edge5_Node000001_Node000006"><a xlink:title=" ">
<path fill="none" stroke="#63b8ff" d="M213.62,-241C205.22,-241 196.69,-241 188.26,-241"/>
<polygon fill="#63b8ff" stroke="#63b8ff" points="213.79,-244.5 223.79,-241 213.79,-237.5 213.79,-244.5"/>
</a>
</g>
</g>
<!-- Node7 -->
<g id="Node000007" class="node">
<title>Node7</title>
<g id="a_Node000007"><a xlink:href="classpolyfem_1_1solver_1_1_initial_condition_variable_to_simulation.html#a71342ed5f2d0ce967673b1b2efb6ee87" target="_top" xlink:title="Compute optimization variables from forward simulation legacy::State.">
<polygon fill="white" stroke="#666666" points="177,-207.5 11,-207.5 11,-166.5 177,-166.5 177,-207.5"/>
<text text-anchor="start" x="19" y="-195.5" font-family="Helvetica,sans-Serif" font-size="10.00">polyfem::solver::Initial</text>
<text text-anchor="start" x="19" y="-184.5" font-family="Helvetica,sans-Serif" font-size="10.00">ConditionVariableToSimulation</text>
<text text-anchor="middle" x="94" y="-173.5" font-family="Helvetica,sans-Serif" font-size="10.00">::inverse_eval</text>
</a>
</g>
</g>
<!-- Node1&#45;&gt;Node7 -->
<g id="edge6_Node000001_Node000007" class="edge">
<title>Node1&#45;&gt;Node7</title>
<g id="a_edge6_Node000001_Node000007"><a xlink:title=" ">
<path fill="none" stroke="#63b8ff" d="M236,-223.43C216.33,-218.35 194.68,-212.76 174.38,-207.51"/>
<polygon fill="#63b8ff" stroke="#63b8ff" points="235.22,-226.85 245.78,-225.96 236.98,-220.07 235.22,-226.85"/>
</a>
</g>
</g>
<!-- Node8 -->
<g id="Node000008" class="node">
<title>Node8</title>
<g id="a_Node000008"><a xlink:href="classpolyfem_1_1solver_1_1_periodic_shape_variable_to_simulation.html#ae58d0a5f742e6753a79e07429a108632" target="_top" xlink:title="Compute optimization variables from forward simulation legacy::State.">
<polygon fill="white" stroke="#666666" points="168.5,-148.5 19.5,-148.5 19.5,-107.5 168.5,-107.5 168.5,-148.5"/>
<text text-anchor="start" x="27.5" y="-136.5" font-family="Helvetica,sans-Serif" font-size="10.00">polyfem::solver::Periodic</text>
<text text-anchor="start" x="27.5" y="-125.5" font-family="Helvetica,sans-Serif" font-size="10.00">ShapeVariableToSimulation</text>
<text text-anchor="middle" x="94" y="-114.5" font-family="Helvetica,sans-Serif" font-size="10.00">::inverse_eval</text>
</a>
</g>
</g>
<!-- Node1&#45;&gt;Node8 -->
<g id="edge7_Node000001_Node000008" class="edge">
<title>Node1&#45;&gt;Node8</title>
<g id="a_edge7_Node000001_Node000008"><a xlink:title=" ">
<path fill="none" stroke="#63b8ff" d="M278.9,-219.53C256.34,-201.12 221.68,-174.96 188,-158 181.18,-154.57 173.89,-151.41 166.49,-148.55"/>
<polygon fill="#63b8ff" stroke="#63b8ff" points="276.7,-222.25 286.64,-225.93 281.16,-216.85 276.7,-222.25"/>
</a>
</g>
</g>
<!-- Node9 -->
<g id="Node000009" class="node">
<title>Node9</title>
<g id="a_Node000009"><a xlink:href="classpolyfem_1_1solver_1_1_pressure_boundary_variable_to_simulation.html#ab994a5a9e8ae2086e99590b3797eb545" target="_top" xlink:title="Compute optimization variables from forward simulation legacy::State.">
<polygon fill="white" stroke="#666666" points="177,-89.5 11,-89.5 11,-48.5 177,-48.5 177,-89.5"/>
<text text-anchor="start" x="19" y="-77.5" font-family="Helvetica,sans-Serif" font-size="10.00">polyfem::solver::Pressure</text>
<text text-anchor="start" x="19" y="-66.5" font-family="Helvetica,sans-Serif" font-size="10.00">BoundaryVariableToSimulation</text>
<text text-anchor="middle" x="94" y="-55.5" font-family="Helvetica,sans-Serif" font-size="10.00">::inverse_eval</text>
</a>
</g>
</g>
<!-- Node1&#45;&gt;Node9 -->
<g id="edge8_Node000001_Node000009" class="edge">
<title>Node1&#45;&gt;Node9</title>
<g id="a_edge8_Node000001_Node000009"><a xlink:title=" ">
<path fill="none" stroke="#63b8ff" d="M290.3,-216.73C271.28,-185.17 233.99,-130.39 188,-99 182.82,-95.46 177.19,-92.32 171.35,-89.53"/>
<polygon fill="#63b8ff" stroke="#63b8ff" points="287.51,-218.89 295.6,-225.73 293.54,-215.33 287.51,-218.89"/>
</a>
</g>
</g>
<!-- Node10 -->
<g id="Node000010" class="node">
<title>Node10</title>
<g id="a_Node000010"><a xlink:href="classpolyfem_1_1solver_1_1_shape_variable_to_simulation.html#abd08224f2e3755163ab683de28f0aa8e" target="_top" xlink:title="Compute optimization variables from forward simulation legacy::State.">
<polygon fill="white" stroke="#666666" points="178.5,-30 9.5,-30 9.5,0 178.5,0 178.5,-30"/>
<text text-anchor="start" x="17.5" y="-18" font-family="Helvetica,sans-Serif" font-size="10.00">polyfem::solver::ShapeVariable</text>
<text text-anchor="middle" x="94" y="-7" font-family="Helvetica,sans-Serif" font-size="10.00">ToSimulation::inverse_eval</text>
</a>
</g>
</g>
<!-- Node1&#45;&gt;Node10 -->
<g id="edge9_Node000001_Node000010" class="edge">
<title>Node1&#45;&gt;Node10</title>
<g id="a_edge9_Node000001_Node000010"><a xlink:title=" ">
<path fill="none" stroke="#63b8ff" d="M296.71,-216.38C282.81,-173.77 248.37,-86.37 188,-40 182.96,-36.13 177.37,-32.86 171.5,-30.09"/>
<polygon fill="#63b8ff" stroke="#63b8ff" points="293.39,-217.48 299.74,-225.96 300.07,-215.37 293.39,-217.48"/>
</a>
</g>
</g>
</g>
</svg>
