<?xml version="1.0" encoding="UTF-8" standalone="no"?>
<!DOCTYPE svg PUBLIC "-//W3C//DTD SVG 1.1//EN"
 "http://www.w3.org/Graphics/SVG/1.1/DTD/svg11.dtd">
<!-- Generated by graphviz version 2.43.0 (0)
 -->
<!-- Title: polyfem::mesh::Mesh::elements_tag Pages: 1 -->
<!--zoomable 136 -->
<svg id="main" version="1.1" xmlns="http://www.w3.org/2000/svg" xmlns:xlink="http://www.w3.org/1999/xlink" xml:space="preserve" onload="init(evt)">
<style type="text/css"><![CDATA[
.edge:hover path { stroke: red; }
.edge:hover polygon { stroke: red; fill: red; }
]]></style>
<script type="text/javascript"><![CDATA[
var edges = document.getElementsByTagName('g');
if (edges && edges.length) {
  for (var i=0;i<edges.length;i++) {
    if (edges[i].id.substr(0,4)=='edge') {
      edges[i].setAttribute('class','edge');
    }
  }
}
]]></script>
        <defs>
                <circle id="rim" cx="0" cy="0" r="7"/>
                <circle id="rim2" cx="0" cy="0" r="3.5"/>
                <g id="zoomPlus">
                        <use xlink:href="#rim" fill="#404040">
                                <set attributeName="fill" to="#808080" begin="zoomplus.mouseover" end="zoomplus.mouseout"/>
                        </use>
                        <path d="M-4,0h8M0,-4v8" fill="none" stroke="white" stroke-width="1.5" pointer-events="none"/>
                </g>
                <g id="zoomMin">
                        <use xlink:href="#rim" fill="#404040">
                                <set attributeName="fill" to="#808080" begin="zoomminus.mouseover" end="zoomminus.mouseout"/>
                        </use>
                        <path d="M-4,0h8" fill="none" stroke="white" stroke-width="1.5" pointer-events="none"/>
                </g>
                <g id="dirArrow">
                        <path fill="none" stroke="white" stroke-width="1.5" d="M0,-3.0v7 M-2.5,-0.5L0,-3.0L2.5,-0.5"/>
                </g>
               <g id="resetDef">
                       <use xlink:href="#rim2" fill="#404040">
                               <set attributeName="fill" to="#808080" begin="reset.mouseover" end="reset.mouseout"/>
                       </use>
               </g>
        </defs>

<script type="text/javascript">
var viewWidth = 645;
var viewHeight = 136;
var sectionId = 'dynsection-24';
</script>
<script xlink:href="svgpan.js"/>
<svg id="graph" class="graph">
<g id="viewport">
<title>polyfem::mesh::Mesh::elements_tag</title>
<!-- Node1 -->
<g id="node1" class="node">
<title>Node1</title>
<g id="a_node1"><a xlink:title="Returns the elements types.">
<polygon fill="#bfbfbf" stroke="black" points="515,-49.5 515,-79.5 637,-79.5 637,-49.5 515,-49.5"/>
<text text-anchor="start" x="523" y="-67.5" font-family="Helvetica,sans-Serif" font-size="10.00">polyfem::mesh::Mesh</text>
<text text-anchor="middle" x="576" y="-56.5" font-family="Helvetica,sans-Serif" font-size="10.00">::elements_tag</text>
</a>
</g>
</g>
<!-- Node2 -->
<g id="node2" class="node">
<title>Node2</title>
<g id="a_node2"><a xlink:href="classpolyfem_1_1io_1_1_out_stats_data.html#ad2a27e4251aa12bf821c2c68242a1ed5" target="_top" xlink:title="compute stats (counts els type, mesh lenght, etc), step 1 of solve">
<polygon fill="none" stroke="black" points="157,-97.5 157,-127.5 300,-127.5 300,-97.5 157,-97.5"/>
<text text-anchor="start" x="165" y="-115.5" font-family="Helvetica,sans-Serif" font-size="10.00">polyfem::io::OutStatsData</text>
<text text-anchor="middle" x="228.5" y="-104.5" font-family="Helvetica,sans-Serif" font-size="10.00">::compute_mesh_stats</text>
</a>
</g>
</g>
<!-- Node1&#45;&gt;Node2 -->
<g id="edge1" class="edge">
<title>Node1&#45;&gt;Node2</title>
<path fill="none" stroke="midnightblue" d="M510.93,-81.92C500.32,-84.4 489.39,-86.71 479,-88.5 419.07,-98.81 350.22,-105.02 300.05,-108.53"/>
<polygon fill="midnightblue" stroke="midnightblue" points="512.07,-85.25 520.98,-79.5 510.43,-78.44 512.07,-85.25"/>
</g>
<!-- Node4 -->
<g id="node4" class="node">
<title>Node4</title>
<g id="a_node4"><a xlink:href="classpolyfem_1_1io_1_1_out_stats_data.html#a59e33cd83c220e21830ee199e2ce68b2" target="_top" xlink:title="counts the number of flipped elements">
<polygon fill="none" stroke="black" points="336,-49.5 336,-79.5 479,-79.5 479,-49.5 336,-49.5"/>
<text text-anchor="start" x="344" y="-67.5" font-family="Helvetica,sans-Serif" font-size="10.00">polyfem::io::OutStatsData</text>
<text text-anchor="middle" x="407.5" y="-56.5" font-family="Helvetica,sans-Serif" font-size="10.00">::count_flipped_elements</text>
</a>
</g>
</g>
<!-- Node1&#45;&gt;Node4 -->
<g id="edge3" class="edge">
<title>Node1&#45;&gt;Node4</title>
<path fill="none" stroke="midnightblue" d="M504.65,-64.5C496.17,-64.5 487.49,-64.5 479.01,-64.5"/>
<polygon fill="midnightblue" stroke="midnightblue" points="504.89,-68 514.89,-64.5 504.89,-61 504.89,-68"/>
</g>
<!-- Node6 -->
<g id="node6" class="node">
<title>Node6</title>
<g id="a_node6"><a xlink:href="classpolyfem_1_1mesh_1_1_c_mesh3_d.html#a400bfde4af573c7ecf9c89aad4cfb9c0" target="_top" xlink:title="refine the mesh">
<polygon fill="none" stroke="black" points="336,-0.5 336,-30.5 479,-30.5 479,-0.5 336,-0.5"/>
<text text-anchor="start" x="344" y="-18.5" font-family="Helvetica,sans-Serif" font-size="10.00">polyfem::mesh::CMesh3D</text>
<text text-anchor="middle" x="407.5" y="-7.5" font-family="Helvetica,sans-Serif" font-size="10.00">::refine</text>
</a>
</g>
</g>
<!-- Node1&#45;&gt;Node6 -->
<g id="edge6" class="edge">
<title>Node1&#45;&gt;Node6</title>
<path fill="none" stroke="midnightblue" d="M513.95,-46.53C496.11,-41.28 476.8,-35.6 459.64,-30.55"/>
<polygon fill="midnightblue" stroke="midnightblue" points="513.1,-49.93 523.69,-49.4 515.08,-43.22 513.1,-49.93"/>
</g>
<!-- Node3 -->
<g id="node3" class="node">
<title>Node3</title>
<g id="a_node3"><a xlink:href="classpolyfem_1_1_state.html#a219f9935d918f739d82488449bd4cbf4" target="_top" xlink:title="solves the problem, call other methods">
<polygon fill="none" stroke="black" points="0,-78 0,-97 121,-97 121,-78 0,-78"/>
<text text-anchor="middle" x="60.5" y="-85" font-family="Helvetica,sans-Serif" font-size="10.00">polyfem::State::solve</text>
</a>
</g>
</g>
<!-- Node2&#45;&gt;Node3 -->
<g id="edge2" class="edge">
<title>Node2&#45;&gt;Node3</title>
<path fill="none" stroke="midnightblue" d="M146.6,-100.32C138.03,-99.03 129.44,-97.73 121.18,-96.49"/>
<polygon fill="midnightblue" stroke="midnightblue" points="146.21,-103.8 156.62,-101.83 147.25,-96.87 146.21,-103.8"/>
</g>
<!-- Node5 -->
<g id="node5" class="node">
<title>Node5</title>
<g id="a_node5"><a xlink:href="classpolyfem_1_1_state.html#a75cfcf28f3bc27e8e30b41c7347c799b" target="_top" xlink:title="builds the bases step 2 of solve">
<polygon fill="none" stroke="black" points="169,-48.5 169,-78.5 288,-78.5 288,-48.5 169,-48.5"/>
<text text-anchor="start" x="177" y="-66.5" font-family="Helvetica,sans-Serif" font-size="10.00">polyfem::State::build</text>
<text text-anchor="middle" x="228.5" y="-55.5" font-family="Helvetica,sans-Serif" font-size="10.00">_basis</text>
</a>
</g>
</g>
<!-- Node4&#45;&gt;Node5 -->
<g id="edge4" class="edge">
<title>Node4&#45;&gt;Node5</title>
<path fill="none" stroke="midnightblue" d="M325.7,-64.04C313.05,-63.97 300.2,-63.9 288.17,-63.83"/>
<polygon fill="midnightblue" stroke="midnightblue" points="325.76,-67.54 335.78,-64.1 325.8,-60.54 325.76,-67.54"/>
</g>
<!-- Node5&#45;&gt;Node3 -->
<g id="edge5" class="edge">
<title>Node5&#45;&gt;Node3</title>
<path fill="none" stroke="midnightblue" d="M159.03,-73.4C146.47,-75.22 133.45,-77.1 121.18,-78.87"/>
<polygon fill="midnightblue" stroke="midnightblue" points="159.58,-76.86 168.97,-71.96 158.58,-69.93 159.58,-76.86"/>
</g>
</g>
</svg>
        <g id="navigator" transform="translate(0 0)" fill="#404254">
                <rect fill="#f2f5e9" fill-opacity="0.5" stroke="#606060" stroke-width=".5" x="0" y="0" width="60" height="60"/>
                <use id="zoomplus" xlink:href="#zoomPlus" x="17" y="9" onmousedown="handleZoom(evt,'in')"/>
                <use id="zoomminus" xlink:href="#zoomMin" x="42" y="9" onmousedown="handleZoom(evt,'out')"/>
                <use id="reset" xlink:href="#resetDef" x="30" y="36" onmousedown="handleReset()"/>
                <g id="arrowUp" xlink:href="#dirArrow" transform="translate(30 24)" onmousedown="handlePan(0,-1)">
                  <use xlink:href="#rim" fill="#404040">
                        <set attributeName="fill" to="#808080" begin="arrowUp.mouseover" end="arrowUp.mouseout"/>
                  </use>
                  <path fill="none" stroke="white" stroke-width="1.5" d="M0,-3.0v7 M-2.5,-0.5L0,-3.0L2.5,-0.5"/>
                </g>
                <g id="arrowRight" xlink:href="#dirArrow" transform="rotate(90) translate(36 -43)" onmousedown="handlePan(1,0)">
                  <use xlink:href="#rim" fill="#404040">
                        <set attributeName="fill" to="#808080" begin="arrowRight.mouseover" end="arrowRight.mouseout"/>
                  </use>
                  <path fill="none" stroke="white" stroke-width="1.5" d="M0,-3.0v7 M-2.5,-0.5L0,-3.0L2.5,-0.5"/>
                </g>
                <g id="arrowDown" xlink:href="#dirArrow" transform="rotate(180) translate(-30 -48)" onmousedown="handlePan(0,1)">
                  <use xlink:href="#rim" fill="#404040">
                        <set attributeName="fill" to="#808080" begin="arrowDown.mouseover" end="arrowDown.mouseout"/>
                  </use>
                  <path fill="none" stroke="white" stroke-width="1.5" d="M0,-3.0v7 M-2.5,-0.5L0,-3.0L2.5,-0.5"/>
                </g>
                <g id="arrowLeft" xlink:href="#dirArrow" transform="rotate(270) translate(-36 17)" onmousedown="handlePan(-1,0)">
                  <use xlink:href="#rim" fill="#404040">
                        <set attributeName="fill" to="#808080" begin="arrowLeft.mouseover" end="arrowLeft.mouseout"/>
                  </use>
                  <path fill="none" stroke="white" stroke-width="1.5" d="M0,-3.0v7 M-2.5,-0.5L0,-3.0L2.5,-0.5"/>
                </g>
        </g>
        <svg viewBox="0 0 15 15" width="100%" height="30px" preserveAspectRatio="xMaxYMin meet">
         <g id="arrow_out" transform="scale(0.3 0.3)">
          <a xlink:href="classpolyfem_1_1mesh_1_1_mesh_ac2a2887f2bb1ca46c62bb01fcb9efbe6_icgraph_org.svg" target="_base">
           <rect id="button" ry="5" rx="5" y="6" x="6" height="38" width="38"
                fill="#f2f5e9" fill-opacity="0.5" stroke="#606060" stroke-width="1.0"/>
           <path id="arrow"
             d="M 11.500037,31.436501 C 11.940474,20.09759 22.043105,11.32322 32.158766,21.979434 L 37.068811,17.246167 C 37.068811,17.246167 37.088388,32 37.088388,32 L 22.160133,31.978069 C 22.160133,31.978069 26.997745,27.140456 26.997745,27.140456 C 18.528582,18.264221 13.291696,25.230495 11.500037,31.436501 z"
             style="fill:#404040;"/>
          </a>
         </g>
        </svg>
</svg>
