<?xml version="1.0" encoding="UTF-8" standalone="no"?>
<!DOCTYPE svg PUBLIC "-//W3C//DTD SVG 1.1//EN"
 "http://www.w3.org/Graphics/SVG/1.1/DTD/svg11.dtd">
<!-- Generated by graphviz version 2.43.0 (0)
 -->
<!-- Title: polyfem::mesh::NCMesh3D::point Pages: 1 -->
<!--zoomable 235 -->
<svg id="main" version="1.1" xmlns="http://www.w3.org/2000/svg" xmlns:xlink="http://www.w3.org/1999/xlink" xml:space="preserve" onload="init(evt)">
<style type="text/css"><![CDATA[
.edge:hover path { stroke: red; }
.edge:hover polygon { stroke: red; fill: red; }
]]></style>
<script type="text/javascript"><![CDATA[
var edges = document.getElementsByTagName('g');
if (edges && edges.length) {
  for (var i=0;i<edges.length;i++) {
    if (edges[i].id.substr(0,4)=='edge') {
      edges[i].setAttribute('class','edge');
    }
  }
}
]]></script>
        <defs>
                <circle id="rim" cx="0" cy="0" r="7"/>
                <circle id="rim2" cx="0" cy="0" r="3.5"/>
                <g id="zoomPlus">
                        <use xlink:href="#rim" fill="#404040">
                                <set attributeName="fill" to="#808080" begin="zoomplus.mouseover" end="zoomplus.mouseout"/>
                        </use>
                        <path d="M-4,0h8M0,-4v8" fill="none" stroke="white" stroke-width="1.5" pointer-events="none"/>
                </g>
                <g id="zoomMin">
                        <use xlink:href="#rim" fill="#404040">
                                <set attributeName="fill" to="#808080" begin="zoomminus.mouseover" end="zoomminus.mouseout"/>
                        </use>
                        <path d="M-4,0h8" fill="none" stroke="white" stroke-width="1.5" pointer-events="none"/>
                </g>
                <g id="dirArrow">
                        <path fill="none" stroke="white" stroke-width="1.5" d="M0,-3.0v7 M-2.5,-0.5L0,-3.0L2.5,-0.5"/>
                </g>
               <g id="resetDef">
                       <use xlink:href="#rim2" fill="#404040">
                               <set attributeName="fill" to="#808080" begin="reset.mouseover" end="reset.mouseout"/>
                       </use>
               </g>
        </defs>

<script type="text/javascript">
var viewWidth = 530;
var viewHeight = 235;
var sectionId = 'dynsection-107';
</script>
<script xlink:href="svgpan.js"/>
<svg id="graph" class="graph">
<g id="viewport">
<title>polyfem::mesh::NCMesh3D::point</title>
<!-- Node1 -->
<g id="node1" class="node">
<title>Node1</title>
<g id="a_node1"><a xlink:title="point coordinates">
<polygon fill="#bfbfbf" stroke="black" points="372,-98.5 372,-128.5 522,-128.5 522,-98.5 372,-98.5"/>
<text text-anchor="start" x="380" y="-116.5" font-family="Helvetica,sans-Serif" font-size="10.00">polyfem::mesh::NCMesh3D</text>
<text text-anchor="middle" x="447" y="-105.5" font-family="Helvetica,sans-Serif" font-size="10.00">::point</text>
</a>
</g>
</g>
<!-- Node2 -->
<g id="node2" class="node">
<title>Node2</title>
<g id="a_node2"><a xlink:href="classpolyfem_1_1mesh_1_1_n_c_mesh3_d.html#a5db099a709efec7b4313985aa9cb1630" target="_top" xlink:title="cell barycenter">
<polygon fill="none" stroke="black" points="186,-196.5 186,-226.5 336,-226.5 336,-196.5 186,-196.5"/>
<text text-anchor="start" x="194" y="-214.5" font-family="Helvetica,sans-Serif" font-size="10.00">polyfem::mesh::NCMesh3D</text>
<text text-anchor="middle" x="261" y="-203.5" font-family="Helvetica,sans-Serif" font-size="10.00">::cell_barycenter</text>
</a>
</g>
</g>
<!-- Node1&#45;&gt;Node2 -->
<g id="edge1" class="edge">
<title>Node1&#45;&gt;Node2</title>
<path fill="none" stroke="midnightblue" d="M419.11,-134.71C397.6,-150.9 366.15,-172.83 336,-187.5 329.32,-190.75 322.1,-193.71 314.87,-196.36"/>
<polygon fill="midnightblue" stroke="midnightblue" points="421.3,-137.45 427.13,-128.6 417.05,-131.88 421.3,-137.45"/>
</g>
<!-- Node4 -->
<g id="node4" class="node">
<title>Node4</title>
<g id="a_node4"><a xlink:href="classpolyfem_1_1mesh_1_1_n_c_mesh3_d.html#ab8798c49d17b5bebf82e39c55dead3e2" target="_top" xlink:title="edge barycenter">
<polygon fill="none" stroke="black" points="186,-147.5 186,-177.5 336,-177.5 336,-147.5 186,-147.5"/>
<text text-anchor="start" x="194" y="-165.5" font-family="Helvetica,sans-Serif" font-size="10.00">polyfem::mesh::NCMesh3D</text>
<text text-anchor="middle" x="261" y="-154.5" font-family="Helvetica,sans-Serif" font-size="10.00">::edge_barycenter</text>
</a>
</g>
</g>
<!-- Node1&#45;&gt;Node4 -->
<g id="edge3" class="edge">
<title>Node1&#45;&gt;Node4</title>
<path fill="none" stroke="midnightblue" d="M379.82,-131.12C359.69,-136.48 337.77,-142.32 318.35,-147.49"/>
<polygon fill="midnightblue" stroke="midnightblue" points="380.78,-134.49 389.54,-128.53 378.98,-127.73 380.78,-134.49"/>
</g>
<!-- Node5 -->
<g id="node5" class="node">
<title>Node5</title>
<g id="a_node5"><a xlink:href="classpolyfem_1_1mesh_1_1_n_c_mesh3_d.html#a4e73c6795687666c5d7b040f977480b6" target="_top" xlink:title="edge length">
<polygon fill="none" stroke="black" points="186,-98.5 186,-128.5 336,-128.5 336,-98.5 186,-98.5"/>
<text text-anchor="start" x="194" y="-116.5" font-family="Helvetica,sans-Serif" font-size="10.00">polyfem::mesh::NCMesh3D</text>
<text text-anchor="middle" x="261" y="-105.5" font-family="Helvetica,sans-Serif" font-size="10.00">::edge_length</text>
</a>
</g>
</g>
<!-- Node1&#45;&gt;Node5 -->
<g id="edge4" class="edge">
<title>Node1&#45;&gt;Node5</title>
<path fill="none" stroke="midnightblue" d="M361.93,-113.5C353.35,-113.5 344.66,-113.5 336.19,-113.5"/>
<polygon fill="midnightblue" stroke="midnightblue" points="361.96,-117 371.96,-113.5 361.96,-110 361.96,-117"/>
</g>
<!-- Node6 -->
<g id="node6" class="node">
<title>Node6</title>
<g id="a_node6"><a xlink:href="classpolyfem_1_1mesh_1_1_n_c_mesh3_d.html#aa64af23717d68dab7ada1fb02f8b8c62" target="_top" xlink:title="face barycenter">
<polygon fill="none" stroke="black" points="186,-49.5 186,-79.5 336,-79.5 336,-49.5 186,-49.5"/>
<text text-anchor="start" x="194" y="-67.5" font-family="Helvetica,sans-Serif" font-size="10.00">polyfem::mesh::NCMesh3D</text>
<text text-anchor="middle" x="261" y="-56.5" font-family="Helvetica,sans-Serif" font-size="10.00">::face_barycenter</text>
</a>
</g>
</g>
<!-- Node1&#45;&gt;Node6 -->
<g id="edge5" class="edge">
<title>Node1&#45;&gt;Node6</title>
<path fill="none" stroke="midnightblue" d="M379.82,-95.88C359.69,-90.52 337.77,-84.68 318.35,-79.51"/>
<polygon fill="midnightblue" stroke="midnightblue" points="378.98,-99.27 389.54,-98.47 380.78,-92.51 378.98,-99.27"/>
</g>
<!-- Node8 -->
<g id="node8" class="node">
<title>Node8</title>
<g id="a_node8"><a xlink:href="classpolyfem_1_1mesh_1_1_n_c_mesh3_d.html#a672d9b8453c5bcd4205c795c068c4945" target="_top" xlink:title="generate a triangular representation of every face">
<polygon fill="none" stroke="black" points="186,-0.5 186,-30.5 336,-30.5 336,-0.5 186,-0.5"/>
<text text-anchor="start" x="194" y="-18.5" font-family="Helvetica,sans-Serif" font-size="10.00">polyfem::mesh::NCMesh3D</text>
<text text-anchor="middle" x="261" y="-7.5" font-family="Helvetica,sans-Serif" font-size="10.00">::triangulate_faces</text>
</a>
</g>
</g>
<!-- Node1&#45;&gt;Node8 -->
<g id="edge7" class="edge">
<title>Node1&#45;&gt;Node8</title>
<path fill="none" stroke="midnightblue" d="M418.63,-92.41C397.07,-76.54 365.8,-55.11 336,-40.5 328.57,-36.86 320.48,-33.53 312.47,-30.58"/>
<polygon fill="midnightblue" stroke="midnightblue" points="416.56,-95.23 426.67,-98.4 420.74,-89.62 416.56,-95.23"/>
</g>
<!-- Node3 -->
<g id="node3" class="node">
<title>Node3</title>
<g id="a_node3"><a xlink:href="classpolyfem_1_1mesh_1_1_n_c_mesh3_d.html#a8ff0a614cc9951df4cd12be4f68c815f" target="_top" xlink:title="computes boundary selections based on a function">
<polygon fill="none" stroke="black" points="0,-196.5 0,-226.5 150,-226.5 150,-196.5 0,-196.5"/>
<text text-anchor="start" x="8" y="-214.5" font-family="Helvetica,sans-Serif" font-size="10.00">polyfem::mesh::NCMesh3D</text>
<text text-anchor="middle" x="75" y="-203.5" font-family="Helvetica,sans-Serif" font-size="10.00">::compute_body_ids</text>
</a>
</g>
</g>
<!-- Node2&#45;&gt;Node3 -->
<g id="edge2" class="edge">
<title>Node2&#45;&gt;Node3</title>
<path fill="none" stroke="midnightblue" d="M175.93,-211.5C167.35,-211.5 158.66,-211.5 150.19,-211.5"/>
<polygon fill="midnightblue" stroke="midnightblue" points="175.96,-215 185.96,-211.5 175.96,-208 175.96,-215"/>
</g>
<!-- Node7 -->
<g id="node7" class="node">
<title>Node7</title>
<g id="a_node7"><a xlink:href="classpolyfem_1_1mesh_1_1_n_c_mesh3_d.html#ad1b83c2243a36af8b3181f0ce4f58257" target="_top" xlink:title="computes the selection based on the bbx of the mesh.">
<polygon fill="none" stroke="black" points="0,-49.5 0,-79.5 150,-79.5 150,-49.5 0,-49.5"/>
<text text-anchor="start" x="8" y="-67.5" font-family="Helvetica,sans-Serif" font-size="10.00">polyfem::mesh::NCMesh3D</text>
<text text-anchor="middle" x="75" y="-56.5" font-family="Helvetica,sans-Serif" font-size="10.00">::compute_boundary_ids</text>
</a>
</g>
</g>
<!-- Node6&#45;&gt;Node7 -->
<g id="edge6" class="edge">
<title>Node6&#45;&gt;Node7</title>
<path fill="none" stroke="midnightblue" d="M175.93,-64.5C167.35,-64.5 158.66,-64.5 150.19,-64.5"/>
<polygon fill="midnightblue" stroke="midnightblue" points="175.96,-68 185.96,-64.5 175.96,-61 175.96,-68"/>
</g>
</g>
</svg>
        <g id="navigator" transform="translate(0 0)" fill="#404254">
                <rect fill="#f2f5e9" fill-opacity="0.5" stroke="#606060" stroke-width=".5" x="0" y="0" width="60" height="60"/>
                <use id="zoomplus" xlink:href="#zoomPlus" x="17" y="9" onmousedown="handleZoom(evt,'in')"/>
                <use id="zoomminus" xlink:href="#zoomMin" x="42" y="9" onmousedown="handleZoom(evt,'out')"/>
                <use id="reset" xlink:href="#resetDef" x="30" y="36" onmousedown="handleReset()"/>
                <g id="arrowUp" xlink:href="#dirArrow" transform="translate(30 24)" onmousedown="handlePan(0,-1)">
                  <use xlink:href="#rim" fill="#404040">
                        <set attributeName="fill" to="#808080" begin="arrowUp.mouseover" end="arrowUp.mouseout"/>
                  </use>
                  <path fill="none" stroke="white" stroke-width="1.5" d="M0,-3.0v7 M-2.5,-0.5L0,-3.0L2.5,-0.5"/>
                </g>
                <g id="arrowRight" xlink:href="#dirArrow" transform="rotate(90) translate(36 -43)" onmousedown="handlePan(1,0)">
                  <use xlink:href="#rim" fill="#404040">
                        <set attributeName="fill" to="#808080" begin="arrowRight.mouseover" end="arrowRight.mouseout"/>
                  </use>
                  <path fill="none" stroke="white" stroke-width="1.5" d="M0,-3.0v7 M-2.5,-0.5L0,-3.0L2.5,-0.5"/>
                </g>
                <g id="arrowDown" xlink:href="#dirArrow" transform="rotate(180) translate(-30 -48)" onmousedown="handlePan(0,1)">
                  <use xlink:href="#rim" fill="#404040">
                        <set attributeName="fill" to="#808080" begin="arrowDown.mouseover" end="arrowDown.mouseout"/>
                  </use>
                  <path fill="none" stroke="white" stroke-width="1.5" d="M0,-3.0v7 M-2.5,-0.5L0,-3.0L2.5,-0.5"/>
                </g>
                <g id="arrowLeft" xlink:href="#dirArrow" transform="rotate(270) translate(-36 17)" onmousedown="handlePan(-1,0)">
                  <use xlink:href="#rim" fill="#404040">
                        <set attributeName="fill" to="#808080" begin="arrowLeft.mouseover" end="arrowLeft.mouseout"/>
                  </use>
                  <path fill="none" stroke="white" stroke-width="1.5" d="M0,-3.0v7 M-2.5,-0.5L0,-3.0L2.5,-0.5"/>
                </g>
        </g>
        <svg viewBox="0 0 15 15" width="100%" height="30px" preserveAspectRatio="xMaxYMin meet">
         <g id="arrow_out" transform="scale(0.3 0.3)">
          <a xlink:href="classpolyfem_1_1mesh_1_1_n_c_mesh3_d_a8b113b51ac14d31aa683bf9893c32c78_icgraph_org.svg" target="_base">
           <rect id="button" ry="5" rx="5" y="6" x="6" height="38" width="38"
                fill="#f2f5e9" fill-opacity="0.5" stroke="#606060" stroke-width="1.0"/>
           <path id="arrow"
             d="M 11.500037,31.436501 C 11.940474,20.09759 22.043105,11.32322 32.158766,21.979434 L 37.068811,17.246167 C 37.068811,17.246167 37.088388,32 37.088388,32 L 22.160133,31.978069 C 22.160133,31.978069 26.997745,27.140456 26.997745,27.140456 C 18.528582,18.264221 13.291696,25.230495 11.500037,31.436501 z"
             style="fill:#404040;"/>
          </a>
         </g>
        </svg>
</svg>
