<?xml version="1.0" encoding="UTF-8" standalone="no"?>
<!DOCTYPE svg PUBLIC "-//W3C//DTD SVG 1.1//EN"
 "http://www.w3.org/Graphics/SVG/1.1/DTD/svg11.dtd">
<!-- Generated by graphviz version 2.43.0 (0)
 -->
<!-- Title: polyfem::solver::AdjointNLProblem::save_to_file Pages: 1 -->
<svg width="627pt" height="364pt"
 viewBox="0.00 0.00 627.00 364.00" xmlns="http://www.w3.org/2000/svg" xmlns:xlink="http://www.w3.org/1999/xlink">
<g id="graph0" class="graph" transform="scale(1 1) rotate(0) translate(4 360)">
<title>polyfem::solver::AdjointNLProblem::save_to_file</title>
<!-- Node1 -->
<g id="Node000001" class="node">
<title>Node1</title>
<g id="a_Node000001"><a xlink:title=" ">
<polygon fill="#999999" stroke="#666666" points="134,-264 0,-264 0,-234 134,-234 134,-264"/>
<text text-anchor="start" x="8" y="-252" font-family="Helvetica,sans-Serif" font-size="10.00">polyfem::solver::Adjoint</text>
<text text-anchor="middle" x="67" y="-241" font-family="Helvetica,sans-Serif" font-size="10.00">NLProblem::save_to_file</text>
</a>
</g>
</g>
<!-- Node2 -->
<g id="Node000002" class="node">
<title>Node2</title>
<g id="a_Node000002"><a xlink:href="namespacepolyfem.html#a4d64be939c7759c782fff98ed87f3399" target="_top" xlink:title="Retrieves the current logger for adjoint.">
<polygon fill="white" stroke="#666666" points="303,-301.5 170,-301.5 170,-282.5 303,-282.5 303,-301.5"/>
<text text-anchor="middle" x="236.5" y="-289.5" font-family="Helvetica,sans-Serif" font-size="10.00">polyfem::adjoint_logger</text>
</a>
</g>
</g>
<!-- Node1&#45;&gt;Node2 -->
<g id="edge1_Node000001_Node000002" class="edge">
<title>Node1&#45;&gt;Node2</title>
<g id="a_edge1_Node000001_Node000002"><a xlink:title=" ">
<path fill="none" stroke="#63b8ff" d="M126.58,-264.04C146.83,-269.24 169.24,-274.99 188.44,-279.92"/>
<polygon fill="#63b8ff" stroke="#63b8ff" points="187.6,-283.32 198.16,-282.41 189.34,-276.54 187.6,-283.32"/>
</a>
</g>
</g>
<!-- Node3 -->
<g id="Node000003" class="node">
<title>Node3</title>
<g id="a_Node000003"><a xlink:href="classpolyfem_1_1io_1_1_o_b_j_writer.html#a953e0ea82590a93accc6a715dce9f0ca" target="_top" xlink:title=" ">
<polygon fill="white" stroke="#666666" points="299,-264 174,-264 174,-234 299,-234 299,-264"/>
<text text-anchor="start" x="182" y="-252" font-family="Helvetica,sans-Serif" font-size="10.00">polyfem::io::OBJWriter</text>
<text text-anchor="middle" x="236.5" y="-241" font-family="Helvetica,sans-Serif" font-size="10.00">::write</text>
</a>
</g>
</g>
<!-- Node1&#45;&gt;Node3 -->
<g id="edge2_Node000001_Node000003" class="edge">
<title>Node1&#45;&gt;Node3</title>
<g id="a_edge2_Node000001_Node000003"><a xlink:title=" ">
<path fill="none" stroke="#63b8ff" d="M134.2,-249C143.91,-249 153.94,-249 163.75,-249"/>
<polygon fill="#63b8ff" stroke="#63b8ff" points="163.87,-252.5 173.87,-249 163.87,-245.5 163.87,-252.5"/>
</a>
</g>
</g>
<!-- Node4 -->
<g id="Node000004" class="node">
<title>Node4</title>
<g id="a_Node000004"><a xlink:href="classpolyfem_1_1io_1_1_msh_writer.html#affb1457daf098439eee6cc690a1f57f1" target="_top" xlink:title="saves the mesh">
<polygon fill="white" stroke="#666666" points="300.5,-198 172.5,-198 172.5,-168 300.5,-168 300.5,-198"/>
<text text-anchor="start" x="180.5" y="-186" font-family="Helvetica,sans-Serif" font-size="10.00">polyfem::io::MshWriter</text>
<text text-anchor="middle" x="236.5" y="-175" font-family="Helvetica,sans-Serif" font-size="10.00">::write</text>
</a>
</g>
</g>
<!-- Node1&#45;&gt;Node4 -->
<g id="edge3_Node000001_Node000004" class="edge">
<title>Node1&#45;&gt;Node4</title>
<g id="a_edge3_Node000001_Node000004"><a xlink:title=" ">
<path fill="none" stroke="#63b8ff" d="M106.43,-233.86C130.58,-224.34 161.93,-211.99 187.68,-201.84"/>
<polygon fill="#63b8ff" stroke="#63b8ff" points="189.23,-204.99 197.25,-198.07 186.66,-198.48 189.23,-204.99"/>
</a>
</g>
</g>
<!-- Node4&#45;&gt;Node4 -->
<g id="edge16_Node000004_Node000004" class="edge">
<title>Node4&#45;&gt;Node4</title>
<g id="a_edge16_Node000004_Node000004"><a xlink:title=" ">
<path fill="none" stroke="#63b8ff" d="M208.02,-198.28C201.7,-207.41 211.19,-216 236.5,-216 251.53,-216 260.98,-212.97 264.86,-208.6"/>
<polygon fill="#63b8ff" stroke="#63b8ff" points="268.36,-208.32 264.98,-198.28 261.36,-208.23 268.36,-208.32"/>
</a>
</g>
</g>
<!-- Node5 -->
<g id="Node000005" class="node">
<title>Node5</title>
<g id="a_Node000005"><a xlink:href="classpolyfem_1_1mesh_1_1_mesh.html#af0424129f0b565f3f3b1743ee3ccffbe" target="_top" xlink:title="id of the vertex of a cell">
<polygon fill="white" stroke="#666666" points="461,-356 339,-356 339,-326 461,-326 461,-356"/>
<text text-anchor="start" x="347" y="-344" font-family="Helvetica,sans-Serif" font-size="10.00">polyfem::mesh::Mesh</text>
<text text-anchor="middle" x="400" y="-333" font-family="Helvetica,sans-Serif" font-size="10.00">::cell_vertex</text>
</a>
</g>
</g>
<!-- Node4&#45;&gt;Node5 -->
<g id="edge4_Node000004_Node000005" class="edge">
<title>Node4&#45;&gt;Node5</title>
<g id="a_edge4_Node000004_Node000005"><a xlink:title=" ">
<path fill="none" stroke="#63b8ff" d="M269.6,-198.15C281.37,-205 294.01,-214.03 303,-225 330.84,-258.95 308.07,-285.84 339,-317 340.06,-318.07 341.18,-319.09 342.34,-320.07"/>
<polygon fill="#63b8ff" stroke="#63b8ff" points="340.39,-322.98 350.57,-325.92 344.44,-317.27 340.39,-322.98"/>
</a>
</g>
</g>
<!-- Node6 -->
<g id="Node000006" class="node">
<title>Node6</title>
<g id="a_Node000006"><a xlink:href="classpolyfem_1_1mesh_1_1_mesh.html#aadc9bb68805f0a4c0209bee9160c9fc6" target="_top" xlink:title="utily for dimension">
<polygon fill="white" stroke="#666666" points="461,-308 339,-308 339,-278 461,-278 461,-308"/>
<text text-anchor="start" x="347" y="-296" font-family="Helvetica,sans-Serif" font-size="10.00">polyfem::mesh::Mesh</text>
<text text-anchor="middle" x="400" y="-285" font-family="Helvetica,sans-Serif" font-size="10.00">::dimension</text>
</a>
</g>
</g>
<!-- Node4&#45;&gt;Node6 -->
<g id="edge5_Node000004_Node000006" class="edge">
<title>Node4&#45;&gt;Node6</title>
<g id="a_edge5_Node000004_Node000006"><a xlink:title=" ">
<path fill="none" stroke="#63b8ff" d="M264.39,-198.1C276.67,-205.53 291.1,-215.02 303,-225 321.08,-240.16 320.05,-249.95 339,-264 343.42,-267.27 348.26,-270.33 353.22,-273.14"/>
<polygon fill="#63b8ff" stroke="#63b8ff" points="351.73,-276.31 362.2,-277.92 355.02,-270.13 351.73,-276.31"/>
</a>
</g>
</g>
<!-- Node7 -->
<g id="Node000007" class="node">
<title>Node7</title>
<g id="a_Node000007"><a xlink:href="classpolyfem_1_1mesh_1_1_mesh.html#a93c9ea4759ded33a8f25ff157033cfd9" target="_top" xlink:title="checks if mesh is volume">
<polygon fill="white" stroke="#666666" points="619,-265 497,-265 497,-235 619,-235 619,-265"/>
<text text-anchor="start" x="505" y="-253" font-family="Helvetica,sans-Serif" font-size="10.00">polyfem::mesh::Mesh</text>
<text text-anchor="middle" x="558" y="-242" font-family="Helvetica,sans-Serif" font-size="10.00">::is_volume</text>
</a>
</g>
</g>
<!-- Node4&#45;&gt;Node7 -->
<g id="edge8_Node000004_Node000007" class="edge">
<title>Node4&#45;&gt;Node7</title>
<g id="a_edge8_Node000004_Node000007"><a xlink:title=" ">
<path fill="none" stroke="#63b8ff" d="M262.81,-198.08C282.78,-209.2 311.72,-223.62 339,-231 387.21,-244.05 443.39,-248.71 486.65,-250.15"/>
<polygon fill="#63b8ff" stroke="#63b8ff" points="486.69,-253.65 496.79,-250.44 486.89,-246.66 486.69,-253.65"/>
</a>
</g>
</g>
<!-- Node8 -->
<g id="Node000008" class="node">
<title>Node8</title>
<g id="a_Node000008"><a xlink:href="classpolyfem_1_1mesh_1_1_mesh.html#ab66149e5d692cf4b94a9f286b4aaa7b0" target="_top" xlink:title="Get the volume selection of all elements (cells in 3d, faces in 2d)">
<polygon fill="white" stroke="#666666" points="461,-222 339,-222 339,-192 461,-192 461,-222"/>
<text text-anchor="start" x="347" y="-210" font-family="Helvetica,sans-Serif" font-size="10.00">polyfem::mesh::Mesh</text>
<text text-anchor="middle" x="400" y="-199" font-family="Helvetica,sans-Serif" font-size="10.00">::get_body_ids</text>
</a>
</g>
</g>
<!-- Node4&#45;&gt;Node8 -->
<g id="edge7_Node000004_Node000008" class="edge">
<title>Node4&#45;&gt;Node8</title>
<g id="a_edge7_Node000004_Node000008"><a xlink:title=" ">
<path fill="none" stroke="#63b8ff" d="M300.87,-192.42C310.08,-193.79 319.61,-195.2 328.95,-196.59"/>
<polygon fill="#63b8ff" stroke="#63b8ff" points="328.58,-200.07 338.98,-198.08 329.61,-193.15 328.58,-200.07"/>
</a>
</g>
</g>
<!-- Node9 -->
<g id="Node000009" class="node">
<title>Node9</title>
<g id="a_Node000009"><a xlink:href="classpolyfem_1_1mesh_1_1_mesh.html#af8681d00e208c5075fa415a49e42471d" target="_top" xlink:title="number of vertices of a cell">
<polygon fill="white" stroke="#666666" points="461,-174 339,-174 339,-144 461,-144 461,-174"/>
<text text-anchor="start" x="347" y="-162" font-family="Helvetica,sans-Serif" font-size="10.00">polyfem::mesh::Mesh</text>
<text text-anchor="middle" x="400" y="-151" font-family="Helvetica,sans-Serif" font-size="10.00">::n_cell_vertices</text>
</a>
</g>
</g>
<!-- Node4&#45;&gt;Node9 -->
<g id="edge9_Node000004_Node000009" class="edge">
<title>Node4&#45;&gt;Node9</title>
<g id="a_edge9_Node000004_Node000009"><a xlink:title=" ">
<path fill="none" stroke="#63b8ff" d="M300.87,-173.58C310.08,-172.21 319.61,-170.8 328.95,-169.41"/>
<polygon fill="#63b8ff" stroke="#63b8ff" points="329.61,-172.85 338.98,-167.92 328.58,-165.93 329.61,-172.85"/>
</a>
</g>
</g>
<!-- Node10 -->
<g id="Node000010" class="node">
<title>Node10</title>
<g id="a_Node000010"><a xlink:href="classpolyfem_1_1mesh_1_1_mesh.html#a0140181b551c7bf0c162d6898155f294" target="_top" xlink:title="utitlity to return the number of elements, cells or faces in 3d and 2d">
<polygon fill="white" stroke="#666666" points="461,-126 339,-126 339,-96 461,-96 461,-126"/>
<text text-anchor="start" x="347" y="-114" font-family="Helvetica,sans-Serif" font-size="10.00">polyfem::mesh::Mesh</text>
<text text-anchor="middle" x="400" y="-103" font-family="Helvetica,sans-Serif" font-size="10.00">::n_elements</text>
</a>
</g>
</g>
<!-- Node4&#45;&gt;Node10 -->
<g id="edge10_Node000004_Node000010" class="edge">
<title>Node4&#45;&gt;Node10</title>
<g id="a_edge10_Node000004_Node000010"><a xlink:title=" ">
<path fill="none" stroke="#63b8ff" d="M268.37,-167.8C288.37,-158.1 315.06,-145.44 339,-135 342.88,-133.31 346.91,-131.6 350.97,-129.91"/>
<polygon fill="#63b8ff" stroke="#63b8ff" points="352.52,-133.05 360.45,-126.02 349.87,-126.58 352.52,-133.05"/>
</a>
</g>
</g>
<!-- Node13 -->
<g id="Node000013" class="node">
<title>Node13</title>
<g id="a_Node000013"><a xlink:href="classpolyfem_1_1mesh_1_1_mesh.html#a02b042ba86d0a7667c5da252af75b99e" target="_top" xlink:title="number of vertices">
<polygon fill="white" stroke="#666666" points="461,-78 339,-78 339,-48 461,-48 461,-78"/>
<text text-anchor="start" x="347" y="-66" font-family="Helvetica,sans-Serif" font-size="10.00">polyfem::mesh::Mesh</text>
<text text-anchor="middle" x="400" y="-55" font-family="Helvetica,sans-Serif" font-size="10.00">::n_vertices</text>
</a>
</g>
</g>
<!-- Node4&#45;&gt;Node13 -->
<g id="edge14_Node000004_Node000013" class="edge">
<title>Node4&#45;&gt;Node13</title>
<g id="a_edge14_Node000004_Node000013"><a xlink:title=" ">
<path fill="none" stroke="#63b8ff" d="M250.2,-167.82C268.16,-147.17 302.83,-110.13 339,-87 341.44,-85.44 343.99,-83.95 346.61,-82.54"/>
<polygon fill="#63b8ff" stroke="#63b8ff" points="348.34,-85.59 355.73,-78 345.22,-79.32 348.34,-85.59"/>
</a>
</g>
</g>
<!-- Node14 -->
<g id="Node000014" class="node">
<title>Node14</title>
<g id="a_Node000014"><a xlink:href="classpolyfem_1_1mesh_1_1_mesh.html#a564e7b06452fbb2d2abd6c1dd0bc0366" target="_top" xlink:title="point coordinates">
<polygon fill="white" stroke="#666666" points="461,-30 339,-30 339,0 461,0 461,-30"/>
<text text-anchor="start" x="347" y="-18" font-family="Helvetica,sans-Serif" font-size="10.00">polyfem::mesh::Mesh</text>
<text text-anchor="middle" x="400" y="-7" font-family="Helvetica,sans-Serif" font-size="10.00">::point</text>
</a>
</g>
</g>
<!-- Node4&#45;&gt;Node14 -->
<g id="edge15_Node000004_Node000014" class="edge">
<title>Node4&#45;&gt;Node14</title>
<g id="a_edge15_Node000004_Node000014"><a xlink:title=" ">
<path fill="none" stroke="#63b8ff" d="M244.5,-167.78C258.51,-138.86 292.68,-75.6 339,-39 340.75,-37.62 342.59,-36.3 344.5,-35.05"/>
<polygon fill="#63b8ff" stroke="#63b8ff" points="346.31,-38.05 353.21,-30.01 342.81,-31.99 346.31,-38.05"/>
</a>
</g>
</g>
<!-- Node6&#45;&gt;Node7 -->
<g id="edge6_Node000006_Node000007" class="edge">
<title>Node6&#45;&gt;Node7</title>
<g id="a_edge6_Node000006_Node000007"><a xlink:title=" ">
<path fill="none" stroke="#63b8ff" d="M455.56,-277.96C467.56,-274.65 480.36,-271.12 492.7,-267.72"/>
<polygon fill="#63b8ff" stroke="#63b8ff" points="493.76,-271.06 502.47,-265.03 491.9,-264.31 493.76,-271.06"/>
</a>
</g>
</g>
<!-- Node10&#45;&gt;Node7 -->
<g id="edge11_Node000010_Node000007" class="edge">
<title>Node10&#45;&gt;Node7</title>
<g id="a_edge11_Node000010_Node000007"><a xlink:title=" ">
<path fill="none" stroke="#63b8ff" d="M445.9,-126.06C451.2,-128.66 456.37,-131.64 461,-135 495.68,-160.17 525.49,-200.58 542.33,-226.18"/>
<polygon fill="#63b8ff" stroke="#63b8ff" points="539.57,-228.38 547.93,-234.89 545.46,-224.59 539.57,-228.38"/>
</a>
</g>
</g>
<!-- Node11 -->
<g id="Node000011" class="node">
<title>Node11</title>
<g id="a_Node000011"><a xlink:href="classpolyfem_1_1mesh_1_1_mesh.html#aaf5c9547e7891266b92e6f1a2ac5d697" target="_top" xlink:title="number of cells">
<polygon fill="white" stroke="#666666" points="619,-150 497,-150 497,-120 619,-120 619,-150"/>
<text text-anchor="start" x="505" y="-138" font-family="Helvetica,sans-Serif" font-size="10.00">polyfem::mesh::Mesh</text>
<text text-anchor="middle" x="558" y="-127" font-family="Helvetica,sans-Serif" font-size="10.00">::n_cells</text>
</a>
</g>
</g>
<!-- Node10&#45;&gt;Node11 -->
<g id="edge12_Node000010_Node000011" class="edge">
<title>Node10&#45;&gt;Node11</title>
<g id="a_edge12_Node000010_Node000011"><a xlink:title=" ">
<path fill="none" stroke="#63b8ff" d="M461.31,-120.28C469.69,-121.57 478.36,-122.9 486.9,-124.22"/>
<polygon fill="#63b8ff" stroke="#63b8ff" points="486.43,-127.68 496.85,-125.75 487.5,-120.77 486.43,-127.68"/>
</a>
</g>
</g>
<!-- Node12 -->
<g id="Node000012" class="node">
<title>Node12</title>
<g id="a_Node000012"><a xlink:href="classpolyfem_1_1mesh_1_1_mesh.html#abf0f721370d6dc7401113e92fe94f4e2" target="_top" xlink:title="number of faces">
<polygon fill="white" stroke="#666666" points="619,-102 497,-102 497,-72 619,-72 619,-102"/>
<text text-anchor="start" x="505" y="-90" font-family="Helvetica,sans-Serif" font-size="10.00">polyfem::mesh::Mesh</text>
<text text-anchor="middle" x="558" y="-79" font-family="Helvetica,sans-Serif" font-size="10.00">::n_faces</text>
</a>
</g>
</g>
<!-- Node10&#45;&gt;Node12 -->
<g id="edge13_Node000010_Node000012" class="edge">
<title>Node10&#45;&gt;Node12</title>
<g id="a_edge13_Node000010_Node000012"><a xlink:title=" ">
<path fill="none" stroke="#63b8ff" d="M461.31,-101.72C469.69,-100.43 478.36,-99.1 486.9,-97.78"/>
<polygon fill="#63b8ff" stroke="#63b8ff" points="487.5,-101.23 496.85,-96.25 486.43,-94.32 487.5,-101.23"/>
</a>
</g>
</g>
</g>
</svg>
