<?xml version="1.0" encoding="UTF-8" standalone="no"?>
<!DOCTYPE svg PUBLIC "-//W3C//DTD SVG 1.1//EN"
 "http://www.w3.org/Graphics/SVG/1.1/DTD/svg11.dtd">
<!-- Generated by graphviz version 2.43.0 (0)
 -->
<!-- Title: polyfem::mesh::Mesh::has_body_ids Pages: 1 -->
<!--zoomable 979 -->

<svg id="main" version="1.1" xmlns="http://www.w3.org/2000/svg" xmlns:xlink="http://www.w3.org/1999/xlink" xml:space="preserve" onload="init(evt)">
<style type="text/css"><![CDATA[
.node, .edge {opacity: 0.7;}
.node.selected, .edge.selected {opacity: 1;}
.edge:hover path { stroke: red; }
.edge:hover polygon { stroke: red; fill: red; }
]]></style>

<defs>
  <circle id="rim" cx="0" cy="0" r="7"/>
  <circle id="rim2" cx="0" cy="0" r="3.5"/>
  <g id="zoomPlus">
    <use xlink:href="#rim" fill="#404040"><set attributeName="fill" to="#808080" begin="zoomplus.mouseover" end="zoomplus.mouseout"/></use>
    <path d="M-4,0h8M0,-4v8" fill="none" stroke="white" stroke-width="1.5" pointer-events="none"/>
  </g>
  <g id="zoomMin">
    <use xlink:href="#rim" fill="#404040"><set attributeName="fill" to="#808080" begin="zoomminus.mouseover" end="zoomminus.mouseout"/></use>
    <path d="M-4,0h8" fill="none" stroke="white" stroke-width="1.5" pointer-events="none"/>
  </g>
  <g id="arrowUp" transform="translate(30 24)">
    <use xlink:href="#rim"/>
    <path pointer-events="none" fill="none" stroke="white" stroke-width="1.5" d="M0,-3.0v7 M-2.5,-0.5L0,-3.0L2.5,-0.5"/>
  </g>
  <g id="arrowRight" transform="rotate(90) translate(36 -43)">
    <use xlink:href="#rim"/>
    <path pointer-events="none" fill="none" stroke="white" stroke-width="1.5" d="M0,-3.0v7 M-2.5,-0.5L0,-3.0L2.5,-0.5"/>
  </g>
  <g id="arrowDown" transform="rotate(180) translate(-30 -48)">
    <use xlink:href="#rim"/>
    <path pointer-events="none" fill="none" stroke="white" stroke-width="1.5" d="M0,-3.0v7 M-2.5,-0.5L0,-3.0L2.5,-0.5"/>
  </g>
  <g id="arrowLeft" transform="rotate(270) translate(-36 17)">
    <use xlink:href="#rim"/>
    <path pointer-events="none" fill="none" stroke="white" stroke-width="1.5" d="M0,-3.0v7 M-2.5,-0.5L0,-3.0L2.5,-0.5"/>
  </g>
  <g id="resetDef">
    <use xlink:href="#rim2" fill="#404040"><set attributeName="fill" to="#808080" begin="reset.mouseover" end="reset.mouseout"/></use>
  </g>
</defs>
<script type="application/ecmascript">
var viewWidth = 1629;
var viewHeight = 979;
var sectionId = 'dynsection-49';
</script>
<script type="application/ecmascript" xlink:href="svg.min.js"/>
<svg id="graph" class="graph">
<g id="viewport">
<title>polyfem::mesh::Mesh::has_body_ids</title>
<!-- Node1 -->
<g id="Node000001" class="node">
<title>Node1</title>
<g id="a_Node000001"><a xlink:title="checks if volumes selections are available">
<polygon fill="#999999" stroke="#666666" points="1621,-669 1499,-669 1499,-639 1621,-639 1621,-669"/>
<text text-anchor="start" x="1507" y="-657" font-family="Helvetica,sans-Serif" font-size="10.00">polyfem::mesh::Mesh</text>
<text text-anchor="middle" x="1560" y="-646" font-family="Helvetica,sans-Serif" font-size="10.00">::has_body_ids</text>
</a>
</g>
</g>
<!-- Node2 -->
<g id="Node000002" class="node">
<title>Node2</title>
<g id="a_Node000002"><a xlink:href="classpolyfem_1_1mesh_1_1_mesh.html#ad9917a167f244c16c020d08e48cadc13" target="_top" xlink:title="appends a new mesh to the end of this">
<polygon fill="white" stroke="#666666" points="1463,-851 1341,-851 1341,-821 1463,-821 1463,-851"/>
<text text-anchor="start" x="1349" y="-839" font-family="Helvetica,sans-Serif" font-size="10.00">polyfem::mesh::Mesh</text>
<text text-anchor="middle" x="1402" y="-828" font-family="Helvetica,sans-Serif" font-size="10.00">::append</text>
</a>
</g>
</g>
<!-- Node1&#45;&gt;Node2 -->
<g id="edge1_Node000001_Node000002" class="edge">
<title>Node1&#45;&gt;Node2</title>
<g id="a_edge1_Node000001_Node000002"><a xlink:title=" ">
<path fill="none" stroke="#63b8ff" d="M1539.17,-677.14C1506.7,-715.01 1443.12,-789.19 1415.89,-820.97"/>
<polygon fill="#63b8ff" stroke="#63b8ff" points="1542.12,-679.07 1545.97,-669.2 1536.8,-674.52 1542.12,-679.07"/>
</a>
</g>
</g>
<!-- Node8 -->
<g id="Node000008" class="node">
<title>Node8</title>
<g id="a_Node000008"><a xlink:href="classpolyfem_1_1mesh_1_1_mesh.html#a0417a588019e24120727a6667d0cfcef" target="_top" xlink:title="Get the volume selection of an element (cell in 3d, face in 2d)">
<polygon fill="white" stroke="#666666" points="1463,-511 1341,-511 1341,-481 1463,-481 1463,-511"/>
<text text-anchor="start" x="1349" y="-499" font-family="Helvetica,sans-Serif" font-size="10.00">polyfem::mesh::Mesh</text>
<text text-anchor="middle" x="1402" y="-488" font-family="Helvetica,sans-Serif" font-size="10.00">::get_body_id</text>
</a>
</g>
</g>
<!-- Node1&#45;&gt;Node8 -->
<g id="edge7_Node000001_Node000008" class="edge">
<title>Node1&#45;&gt;Node8</title>
<g id="a_edge7_Node000001_Node000008"><a xlink:title=" ">
<path fill="none" stroke="#63b8ff" d="M1536.85,-631.56C1504.66,-598.97 1445.81,-539.36 1418.14,-511.34"/>
<polygon fill="#63b8ff" stroke="#63b8ff" points="1534.53,-634.19 1544.04,-638.85 1539.51,-629.28 1534.53,-634.19"/>
</a>
</g>
</g>
<!-- Node3 -->
<g id="Node000003" class="node">
<title>Node3</title>
<g id="a_Node000003"><a xlink:href="classpolyfem_1_1mesh_1_1_c_mesh2_d.html#ac76c33ff3aee81cbe3e488f030c06a48" target="_top" xlink:title="appends a new mesh to the end of this">
<polygon fill="white" stroke="#666666" points="1300.5,-971 1157.5,-971 1157.5,-941 1300.5,-941 1300.5,-971"/>
<text text-anchor="start" x="1165.5" y="-959" font-family="Helvetica,sans-Serif" font-size="10.00">polyfem::mesh::CMesh2D</text>
<text text-anchor="middle" x="1229" y="-948" font-family="Helvetica,sans-Serif" font-size="10.00">::append</text>
</a>
</g>
</g>
<!-- Node2&#45;&gt;Node3 -->
<g id="edge2_Node000002_Node000003" class="edge">
<title>Node2&#45;&gt;Node3</title>
<g id="a_edge2_Node000002_Node000003"><a xlink:title=" ">
<path fill="none" stroke="#63b8ff" d="M1383.26,-859.27C1365.6,-880.94 1336.62,-912.72 1305,-932 1299.4,-935.42 1293.26,-938.4 1286.98,-940.98"/>
<polygon fill="#63b8ff" stroke="#63b8ff" points="1386.17,-861.22 1389.67,-851.22 1380.7,-856.86 1386.17,-861.22"/>
</a>
</g>
</g>
<!-- Node4 -->
<g id="Node000004" class="node">
<title>Node4</title>
<g id="a_Node000004"><a xlink:href="classpolyfem_1_1mesh_1_1_n_c_mesh2_d.html#afd97e7ed4b7749c221374490f775c9b8" target="_top" xlink:title="appends a new mesh to the end of this">
<polygon fill="white" stroke="#666666" points="1304,-923 1154,-923 1154,-893 1304,-893 1304,-923"/>
<text text-anchor="start" x="1162" y="-911" font-family="Helvetica,sans-Serif" font-size="10.00">polyfem::mesh::NCMesh2D</text>
<text text-anchor="middle" x="1229" y="-900" font-family="Helvetica,sans-Serif" font-size="10.00">::append</text>
</a>
</g>
</g>
<!-- Node2&#45;&gt;Node4 -->
<g id="edge3_Node000002_Node000004" class="edge">
<title>Node2&#45;&gt;Node4</title>
<g id="a_edge3_Node000002_Node000004"><a xlink:title=" ">
<path fill="none" stroke="#63b8ff" d="M1364.92,-855.69C1347.17,-864.95 1325.28,-875.74 1305,-884 1297.28,-887.14 1288.98,-890.15 1280.81,-892.91"/>
<polygon fill="#63b8ff" stroke="#63b8ff" points="1366.58,-858.77 1373.79,-851.01 1363.32,-852.58 1366.58,-858.77"/>
</a>
</g>
</g>
<!-- Node5 -->
<g id="Node000005" class="node">
<title>Node5</title>
<g id="a_Node000005"><a xlink:href="classpolyfem_1_1mesh_1_1_c_mesh3_d.html#ab7c09b7b7b8d3f482197a43c4bdc740c" target="_top" xlink:title="appends a new mesh to the end of this">
<polygon fill="white" stroke="#666666" points="1300.5,-875 1157.5,-875 1157.5,-845 1300.5,-845 1300.5,-875"/>
<text text-anchor="start" x="1165.5" y="-863" font-family="Helvetica,sans-Serif" font-size="10.00">polyfem::mesh::CMesh3D</text>
<text text-anchor="middle" x="1229" y="-852" font-family="Helvetica,sans-Serif" font-size="10.00">::append</text>
</a>
</g>
</g>
<!-- Node2&#45;&gt;Node5 -->
<g id="edge4_Node000002_Node000005" class="edge">
<title>Node2&#45;&gt;Node5</title>
<g id="a_edge4_Node000002_Node000005"><a xlink:title=" ">
<path fill="none" stroke="#63b8ff" d="M1330.53,-845.89C1320.63,-847.28 1310.46,-848.71 1300.57,-850.1"/>
<polygon fill="#63b8ff" stroke="#63b8ff" points="1331.3,-849.32 1340.71,-844.46 1330.32,-842.39 1331.3,-849.32"/>
</a>
</g>
</g>
<!-- Node6 -->
<g id="Node000006" class="node">
<title>Node6</title>
<g id="a_Node000006"><a xlink:href="classpolyfem_1_1mesh_1_1_n_c_mesh3_d.html#a4d4199ca742ce31bea4bdf93af1b9a61" target="_top" xlink:title="appends a new mesh to the end of this">
<polygon fill="white" stroke="#666666" points="1304,-827 1154,-827 1154,-797 1304,-797 1304,-827"/>
<text text-anchor="start" x="1162" y="-815" font-family="Helvetica,sans-Serif" font-size="10.00">polyfem::mesh::NCMesh3D</text>
<text text-anchor="middle" x="1229" y="-804" font-family="Helvetica,sans-Serif" font-size="10.00">::append</text>
</a>
</g>
</g>
<!-- Node2&#45;&gt;Node6 -->
<g id="edge5_Node000002_Node000006" class="edge">
<title>Node2&#45;&gt;Node6</title>
<g id="a_edge5_Node000002_Node000006"><a xlink:title=" ">
<path fill="none" stroke="#63b8ff" d="M1330.59,-826.12C1321.86,-824.89 1312.91,-823.64 1304.13,-822.4"/>
<polygon fill="#63b8ff" stroke="#63b8ff" points="1330.32,-829.61 1340.71,-827.54 1331.3,-822.68 1330.32,-829.61"/>
</a>
</g>
</g>
<!-- Node7 -->
<g id="Node000007" class="node">
<title>Node7</title>
<g id="a_Node000007"><a xlink:href="classpolyfem_1_1mesh_1_1_mesh.html#aa7d57e3914abee26cf1e9abbffbaf714" target="_top" xlink:title="appends a new mesh to the end of this, utility that takes pointer, calls other one">
<polygon fill="white" stroke="#666666" points="1290,-779 1168,-779 1168,-749 1290,-749 1290,-779"/>
<text text-anchor="start" x="1176" y="-767" font-family="Helvetica,sans-Serif" font-size="10.00">polyfem::mesh::Mesh</text>
<text text-anchor="middle" x="1229" y="-756" font-family="Helvetica,sans-Serif" font-size="10.00">::append</text>
</a>
</g>
</g>
<!-- Node2&#45;&gt;Node7 -->
<g id="edge6_Node000002_Node000007" class="edge">
<title>Node2&#45;&gt;Node7</title>
<g id="a_edge6_Node000002_Node000007"><a xlink:title=" ">
<path fill="none" stroke="#63b8ff" d="M1364.92,-816.31C1347.17,-807.05 1325.28,-796.26 1305,-788 1297.28,-784.86 1288.98,-781.85 1280.81,-779.09"/>
<polygon fill="#63b8ff" stroke="#63b8ff" points="1363.32,-819.42 1373.79,-820.99 1366.58,-813.23 1363.32,-819.42"/>
</a>
</g>
</g>
<!-- Node9 -->
<g id="Node000009" class="node">
<title>Node9</title>
<g id="a_Node000009"><a xlink:href="classpolyfem_1_1solver_1_1_per_body2_per_elem.html#ad720cafa478ce1f3d9cf2717b7e2886e" target="_top" xlink:title=" ">
<polygon fill="white" stroke="#666666" points="1302,-731 1156,-731 1156,-701 1302,-701 1302,-731"/>
<text text-anchor="start" x="1164" y="-719" font-family="Helvetica,sans-Serif" font-size="10.00">polyfem::solver::PerBody2</text>
<text text-anchor="middle" x="1229" y="-708" font-family="Helvetica,sans-Serif" font-size="10.00">PerElem::apply_jacobian</text>
</a>
</g>
</g>
<!-- Node8&#45;&gt;Node9 -->
<g id="edge8_Node000008_Node000009" class="edge">
<title>Node8&#45;&gt;Node9</title>
<g id="a_edge8_Node000008_Node000009"><a xlink:title=" ">
<path fill="none" stroke="#63b8ff" d="M1395.48,-521.12C1385.05,-562.68 1358.54,-645.74 1305,-692 1301.07,-695.4 1296.65,-698.31 1291.98,-700.82"/>
<polygon fill="#63b8ff" stroke="#63b8ff" points="1398.92,-521.8 1397.84,-511.26 1392.11,-520.17 1398.92,-521.8"/>
</a>
</g>
</g>
<!-- Node10 -->
<g id="Node000010" class="node">
<title>Node10</title>
<g id="a_Node000010"><a xlink:href="classpolyfem_1_1solver_1_1_per_body2_per_elem.html#a060e646902173e18743d34bf4f3d5bd6" target="_top" xlink:title=" ">
<polygon fill="white" stroke="#666666" points="1302,-683 1156,-683 1156,-653 1302,-653 1302,-683"/>
<text text-anchor="start" x="1164" y="-671" font-family="Helvetica,sans-Serif" font-size="10.00">polyfem::solver::PerBody2</text>
<text text-anchor="middle" x="1229" y="-660" font-family="Helvetica,sans-Serif" font-size="10.00">PerElem::eval</text>
</a>
</g>
</g>
<!-- Node8&#45;&gt;Node10 -->
<g id="edge9_Node000008_Node000010" class="edge">
<title>Node8&#45;&gt;Node10</title>
<g id="a_edge9_Node000008_Node000010"><a xlink:title=" ">
<path fill="none" stroke="#63b8ff" d="M1391.45,-520.34C1377.38,-553.12 1348,-611.14 1305,-644 1300.55,-647.4 1295.6,-650.33 1290.42,-652.85"/>
<polygon fill="#63b8ff" stroke="#63b8ff" points="1394.72,-521.61 1395.33,-511.03 1388.25,-518.92 1394.72,-521.61"/>
</a>
</g>
</g>
<!-- Node11 -->
<g id="Node000011" class="node">
<title>Node11</title>
<g id="a_Node000011"><a xlink:href="classpolyfem_1_1assembler_1_1_generic_tensor_problem.html#a8de0f06f128befabcf4e8315f97696f5" target="_top" xlink:title=" ">
<polygon fill="white" stroke="#666666" points="1295,-634.5 1163,-634.5 1163,-593.5 1295,-593.5 1295,-634.5"/>
<text text-anchor="start" x="1171" y="-622.5" font-family="Helvetica,sans-Serif" font-size="10.00">polyfem::assembler</text>
<text text-anchor="start" x="1171" y="-611.5" font-family="Helvetica,sans-Serif" font-size="10.00">::GenericTensorProblem</text>
<text text-anchor="middle" x="1229" y="-600.5" font-family="Helvetica,sans-Serif" font-size="10.00">::initial_acceleration</text>
</a>
</g>
</g>
<!-- Node8&#45;&gt;Node11 -->
<g id="edge10_Node000008_Node000011" class="edge">
<title>Node8&#45;&gt;Node11</title>
<g id="a_edge10_Node000008_Node000011"><a xlink:title=" ">
<path fill="none" stroke="#63b8ff" d="M1381.18,-518.71C1363,-538.41 1334.48,-566.59 1305,-585 1300.15,-588.03 1294.92,-590.84 1289.57,-593.41"/>
<polygon fill="#63b8ff" stroke="#63b8ff" points="1383.96,-520.86 1388.09,-511.1 1378.78,-516.15 1383.96,-520.86"/>
</a>
</g>
</g>
<!-- Node12 -->
<g id="Node000012" class="node">
<title>Node12</title>
<g id="a_Node000012"><a xlink:href="classpolyfem_1_1assembler_1_1_generic_tensor_problem.html#af42e3e4a2bfe460d623020c3f9ea8db1" target="_top" xlink:title=" ">
<polygon fill="white" stroke="#666666" points="1295,-575.5 1163,-575.5 1163,-534.5 1295,-534.5 1295,-575.5"/>
<text text-anchor="start" x="1171" y="-563.5" font-family="Helvetica,sans-Serif" font-size="10.00">polyfem::assembler</text>
<text text-anchor="start" x="1171" y="-552.5" font-family="Helvetica,sans-Serif" font-size="10.00">::GenericTensorProblem</text>
<text text-anchor="middle" x="1229" y="-541.5" font-family="Helvetica,sans-Serif" font-size="10.00">::initial_solution</text>
</a>
</g>
</g>
<!-- Node8&#45;&gt;Node12 -->
<g id="edge11_Node000008_Node000012" class="edge">
<title>Node8&#45;&gt;Node12</title>
<g id="a_edge11_Node000008_Node000012"><a xlink:title=" ">
<path fill="none" stroke="#63b8ff" d="M1347.73,-514.38C1329.3,-520.74 1308.54,-527.9 1289.64,-534.42"/>
<polygon fill="#63b8ff" stroke="#63b8ff" points="1349.1,-517.61 1357.41,-511.04 1346.81,-510.99 1349.1,-517.61"/>
</a>
</g>
</g>
<!-- Node13 -->
<g id="Node000013" class="node">
<title>Node13</title>
<g id="a_Node000013"><a xlink:href="classpolyfem_1_1assembler_1_1_generic_scalar_problem.html#a13ae1127a02b89c15d3997fef95b4896" target="_top" xlink:title=" ">
<polygon fill="white" stroke="#666666" points="1294.5,-516.5 1163.5,-516.5 1163.5,-475.5 1294.5,-475.5 1294.5,-516.5"/>
<text text-anchor="start" x="1171.5" y="-504.5" font-family="Helvetica,sans-Serif" font-size="10.00">polyfem::assembler</text>
<text text-anchor="start" x="1171.5" y="-493.5" font-family="Helvetica,sans-Serif" font-size="10.00">::GenericScalarProblem</text>
<text text-anchor="middle" x="1229" y="-482.5" font-family="Helvetica,sans-Serif" font-size="10.00">::initial_solution</text>
</a>
</g>
</g>
<!-- Node8&#45;&gt;Node13 -->
<g id="edge12_Node000008_Node000013" class="edge">
<title>Node8&#45;&gt;Node13</title>
<g id="a_edge12_Node000008_Node000013"><a xlink:title=" ">
<path fill="none" stroke="#63b8ff" d="M1330.43,-496C1318.59,-496 1306.36,-496 1294.68,-496"/>
<polygon fill="#63b8ff" stroke="#63b8ff" points="1330.71,-499.5 1340.71,-496 1330.71,-492.5 1330.71,-499.5"/>
</a>
</g>
</g>
<!-- Node14 -->
<g id="Node000014" class="node">
<title>Node14</title>
<g id="a_Node000014"><a xlink:href="classpolyfem_1_1assembler_1_1_generic_tensor_problem.html#a42e6897ecbcdd6ecb2db982244bc471a" target="_top" xlink:title=" ">
<polygon fill="white" stroke="#666666" points="1295,-457.5 1163,-457.5 1163,-416.5 1295,-416.5 1295,-457.5"/>
<text text-anchor="start" x="1171" y="-445.5" font-family="Helvetica,sans-Serif" font-size="10.00">polyfem::assembler</text>
<text text-anchor="start" x="1171" y="-434.5" font-family="Helvetica,sans-Serif" font-size="10.00">::GenericTensorProblem</text>
<text text-anchor="middle" x="1229" y="-423.5" font-family="Helvetica,sans-Serif" font-size="10.00">::initial_velocity</text>
</a>
</g>
</g>
<!-- Node8&#45;&gt;Node14 -->
<g id="edge13_Node000008_Node000014" class="edge">
<title>Node8&#45;&gt;Node14</title>
<g id="a_edge13_Node000008_Node000014"><a xlink:title=" ">
<path fill="none" stroke="#63b8ff" d="M1347.73,-477.62C1329.3,-471.26 1308.54,-464.1 1289.64,-457.58"/>
<polygon fill="#63b8ff" stroke="#63b8ff" points="1346.81,-481.01 1357.41,-480.96 1349.1,-474.39 1346.81,-481.01"/>
</a>
</g>
</g>
<!-- Node15 -->
<g id="Node000015" class="node">
<title>Node15</title>
<g id="a_Node000015"><a xlink:href="classpolyfem_1_1solver_1_1_per_body2_per_elem.html#a21ff97bf494b79fff5ebe752a1939081" target="_top" xlink:title=" ">
<polygon fill="white" stroke="#666666" points="1304,-398 1154,-398 1154,-368 1304,-368 1304,-398"/>
<text text-anchor="start" x="1162" y="-386" font-family="Helvetica,sans-Serif" font-size="10.00">polyfem::solver::PerBody2</text>
<text text-anchor="middle" x="1229" y="-375" font-family="Helvetica,sans-Serif" font-size="10.00">PerElem::PerBody2PerElem</text>
</a>
</g>
</g>
<!-- Node8&#45;&gt;Node15 -->
<g id="edge14_Node000008_Node000015" class="edge">
<title>Node8&#45;&gt;Node15</title>
<g id="a_edge14_Node000008_Node000015"><a xlink:title=" ">
<path fill="none" stroke="#63b8ff" d="M1381.34,-473.22C1363.26,-453.52 1334.8,-425.53 1305,-408 1298.61,-404.24 1291.58,-400.96 1284.46,-398.11"/>
<polygon fill="#63b8ff" stroke="#63b8ff" points="1378.91,-475.75 1388.2,-480.84 1384.11,-471.06 1378.91,-475.75"/>
</a>
</g>
</g>
<!-- Node16 -->
<g id="Node000016" class="node">
<title>Node16</title>
<g id="a_Node000016"><a xlink:href="classpolyfem_1_1solver_1_1_per_body2_per_node.html#a6dcb656d62dc6d54c18c8f350ee6ddd3" target="_top" xlink:title=" ">
<polygon fill="white" stroke="#666666" points="1305,-350 1153,-350 1153,-320 1305,-320 1305,-350"/>
<text text-anchor="start" x="1161" y="-338" font-family="Helvetica,sans-Serif" font-size="10.00">polyfem::solver::PerBody2</text>
<text text-anchor="middle" x="1229" y="-327" font-family="Helvetica,sans-Serif" font-size="10.00">PerNode::PerBody2PerNode</text>
</a>
</g>
</g>
<!-- Node8&#45;&gt;Node16 -->
<g id="edge15_Node000008_Node000016" class="edge">
<title>Node8&#45;&gt;Node16</title>
<g id="a_edge15_Node000008_Node000016"><a xlink:title=" ">
<path fill="none" stroke="#63b8ff" d="M1390.09,-471.66C1375.16,-441.03 1345.52,-388.83 1305,-359 1300.38,-355.6 1295.25,-352.66 1289.91,-350.14"/>
<polygon fill="#63b8ff" stroke="#63b8ff" points="1386.98,-473.25 1394.42,-480.79 1393.3,-470.26 1386.98,-473.25"/>
</a>
</g>
</g>
<!-- Node17 -->
<g id="Node000017" class="node">
<title>Node17</title>
<g id="a_Node000017"><a xlink:href="classpolyfem_1_1io_1_1_out_geometry_data.html#af0647359b2ab723d8543452884e673a9" target="_top" xlink:title="saves the surface vtu file for for surface quantites, eg traction forces">
<polygon fill="white" stroke="#666666" points="1301,-302 1157,-302 1157,-272 1301,-272 1301,-302"/>
<text text-anchor="start" x="1165" y="-290" font-family="Helvetica,sans-Serif" font-size="10.00">polyfem::io::OutGeometry</text>
<text text-anchor="middle" x="1229" y="-279" font-family="Helvetica,sans-Serif" font-size="10.00">Data::save_surface</text>
</a>
</g>
</g>
<!-- Node8&#45;&gt;Node17 -->
<g id="edge16_Node000008_Node000017" class="edge">
<title>Node8&#45;&gt;Node17</title>
<g id="a_edge16_Node000008_Node000017"><a xlink:title=" ">
<path fill="none" stroke="#63b8ff" d="M1394.74,-471.15C1383.5,-431.54 1356.15,-354.17 1305,-311 1300.93,-307.56 1296.35,-304.61 1291.52,-302.09"/>
<polygon fill="#63b8ff" stroke="#63b8ff" points="1391.37,-472.08 1397.38,-480.81 1398.12,-470.24 1391.37,-472.08"/>
</a>
</g>
</g>
<!-- Node35 -->
<g id="Node000035" class="node">
<title>Node35</title>
<g id="a_Node000035"><a xlink:href="classpolyfem_1_1io_1_1_out_geometry_data.html#a938439e2cebaf08e7d5e0437c603164e" target="_top" xlink:title="saves the volume vtu file">
<polygon fill="white" stroke="#666666" points="1301,-254 1157,-254 1157,-224 1301,-224 1301,-254"/>
<text text-anchor="start" x="1165" y="-242" font-family="Helvetica,sans-Serif" font-size="10.00">polyfem::io::OutGeometry</text>
<text text-anchor="middle" x="1229" y="-231" font-family="Helvetica,sans-Serif" font-size="10.00">Data::save_volume</text>
</a>
</g>
</g>
<!-- Node8&#45;&gt;Node35 -->
<g id="edge42_Node000008_Node000035" class="edge">
<title>Node8&#45;&gt;Node35</title>
<g id="a_edge42_Node000008_Node000035"><a xlink:title=" ">
<path fill="none" stroke="#63b8ff" d="M1397.64,-470.65C1390,-423.07 1366.92,-320.09 1305,-263 1301.28,-259.57 1297.07,-256.63 1292.59,-254.11"/>
<polygon fill="#63b8ff" stroke="#63b8ff" points="1394.2,-471.34 1399.16,-480.71 1401.13,-470.3 1394.2,-471.34"/>
</a>
</g>
</g>
<!-- Node18 -->
<g id="Node000018" class="node">
<title>Node18</title>
<g id="a_Node000018"><a xlink:href="classpolyfem_1_1io_1_1_out_geometry_data.html#ab6ebc8d7951c52d2ce07506306b63ea0" target="_top" xlink:title="saves the vtu file for time t">
<polygon fill="white" stroke="#666666" points="1117,-278 973,-278 973,-248 1117,-248 1117,-278"/>
<text text-anchor="start" x="981" y="-266" font-family="Helvetica,sans-Serif" font-size="10.00">polyfem::io::OutGeometry</text>
<text text-anchor="middle" x="1045" y="-255" font-family="Helvetica,sans-Serif" font-size="10.00">Data::save_vtu</text>
</a>
</g>
</g>
<!-- Node17&#45;&gt;Node18 -->
<g id="edge17_Node000017_Node000018" class="edge">
<title>Node17&#45;&gt;Node18</title>
<g id="a_edge17_Node000017_Node000018"><a xlink:title=" ">
<path fill="none" stroke="#63b8ff" d="M1146.66,-276.27C1136.8,-274.97 1126.79,-273.65 1117.1,-272.38"/>
<polygon fill="#63b8ff" stroke="#63b8ff" points="1146.48,-279.78 1156.85,-277.62 1147.4,-272.84 1146.48,-279.78"/>
</a>
</g>
</g>
<!-- Node19 -->
<g id="Node000019" class="node">
<title>Node19</title>
<g id="a_Node000019"><a xlink:href="classpolyfem_1_1io_1_1_out_geometry_data.html#ae5fdb256636278dc9d47358e202aba22" target="_top" xlink:title="exports everytihng, txt, vtu, etc">
<polygon fill="white" stroke="#666666" points="937,-342 793,-342 793,-312 937,-312 937,-342"/>
<text text-anchor="start" x="801" y="-330" font-family="Helvetica,sans-Serif" font-size="10.00">polyfem::io::OutGeometry</text>
<text text-anchor="middle" x="865" y="-319" font-family="Helvetica,sans-Serif" font-size="10.00">Data::export_data</text>
</a>
</g>
</g>
<!-- Node18&#45;&gt;Node19 -->
<g id="edge18_Node000018_Node000019" class="edge">
<title>Node18&#45;&gt;Node19</title>
<g id="a_edge18_Node000018_Node000019"><a xlink:title=" ">
<path fill="none" stroke="#63b8ff" d="M992.62,-281.47C965.7,-291.15 933.14,-302.86 907.78,-311.98"/>
<polygon fill="#63b8ff" stroke="#63b8ff" points="994.04,-284.68 1002.27,-278.01 991.67,-278.1 994.04,-284.68"/>
</a>
</g>
</g>
<!-- Node23 -->
<g id="Node000023" class="node">
<title>Node23</title>
<g id="a_Node000023"><a xlink:href="classpolyfem_1_1_state.html#a29b1283c20475e19b79a39cd324ac5aa" target="_top" xlink:title="saves a subsolve when save_solve_sequence_debug is true">
<polygon fill="white" stroke="#666666" points="924,-278 806,-278 806,-248 924,-248 924,-278"/>
<text text-anchor="start" x="814" y="-266" font-family="Helvetica,sans-Serif" font-size="10.00">polyfem::State::save</text>
<text text-anchor="middle" x="865" y="-255" font-family="Helvetica,sans-Serif" font-size="10.00">_subsolve</text>
</a>
</g>
</g>
<!-- Node18&#45;&gt;Node23 -->
<g id="edge22_Node000018_Node000023" class="edge">
<title>Node18&#45;&gt;Node23</title>
<g id="a_edge22_Node000018_Node000023"><a xlink:title=" ">
<path fill="none" stroke="#63b8ff" d="M962.56,-263C949.61,-263 936.44,-263 924.16,-263"/>
<polygon fill="#63b8ff" stroke="#63b8ff" points="962.88,-266.5 972.88,-263 962.88,-259.5 962.88,-266.5"/>
</a>
</g>
</g>
<!-- Node29 -->
<g id="Node000029" class="node">
<title>Node29</title>
<g id="a_Node000029"><a xlink:href="classpolyfem_1_1_state.html#a442fa686e1d08a0a104f3869a6fa2948" target="_top" xlink:title="saves a timestep">
<polygon fill="white" stroke="#666666" points="755.5,-174 637.5,-174 637.5,-144 755.5,-144 755.5,-174"/>
<text text-anchor="start" x="645.5" y="-162" font-family="Helvetica,sans-Serif" font-size="10.00">polyfem::State::save</text>
<text text-anchor="middle" x="696.5" y="-151" font-family="Helvetica,sans-Serif" font-size="10.00">_timestep</text>
</a>
</g>
</g>
<!-- Node18&#45;&gt;Node29 -->
<g id="edge30_Node000018_Node000029" class="edge">
<title>Node18&#45;&gt;Node29</title>
<g id="a_edge30_Node000018_Node000029"><a xlink:title=" ">
<path fill="none" stroke="#63b8ff" d="M984.01,-244.99C917.1,-224.91 810.06,-192.78 747.5,-174.01"/>
<polygon fill="#63b8ff" stroke="#63b8ff" points="983.4,-248.47 993.99,-247.99 985.41,-241.76 983.4,-248.47"/>
</a>
</g>
</g>
<!-- Node20 -->
<g id="Node000020" class="node">
<title>Node20</title>
<g id="a_Node000020"><a xlink:href="classpolyfem_1_1_state.html#acc61dcd623eec2308480c5c082da3d9e" target="_top" xlink:title="saves all data on the disk according to the input params">
<polygon fill="white" stroke="#666666" points="400,-255.5 247,-255.5 247,-236.5 400,-236.5 400,-255.5"/>
<text text-anchor="middle" x="323.5" y="-243.5" font-family="Helvetica,sans-Serif" font-size="10.00">polyfem::State::export_data</text>
</a>
</g>
</g>
<!-- Node19&#45;&gt;Node20 -->
<g id="edge19_Node000019_Node000020" class="edge">
<title>Node19&#45;&gt;Node20</title>
<g id="a_edge19_Node000019_Node000020"><a xlink:title=" ">
<path fill="none" stroke="#63b8ff" d="M782.79,-332.31C695.51,-335.76 553.47,-334.79 436,-303 398.44,-292.83 358.89,-269.02 338.5,-255.61"/>
<polygon fill="#63b8ff" stroke="#63b8ff" points="783.05,-335.8 792.89,-331.88 782.76,-328.81 783.05,-335.8"/>
</a>
</g>
</g>
<!-- Node21 -->
<g id="Node000021" class="node">
<title>Node21</title>
<g id="a_Node000021"><a xlink:href="main_8cpp.html#aec889c702a246ad7f332c75ab7adb438" target="_top" xlink:title=" ">
<polygon fill="white" stroke="#666666" points="199.5,-244.5 88.5,-244.5 88.5,-225.5 199.5,-225.5 199.5,-244.5"/>
<text text-anchor="middle" x="144" y="-232.5" font-family="Helvetica,sans-Serif" font-size="10.00">forward_simulation</text>
</a>
</g>
</g>
<!-- Node20&#45;&gt;Node21 -->
<g id="edge20_Node000020_Node000021" class="edge">
<title>Node20&#45;&gt;Node21</title>
<g id="a_edge20_Node000020_Node000021"><a xlink:title=" ">
<path fill="none" stroke="#63b8ff" d="M236.82,-240.69C224.12,-239.9 211.33,-239.11 199.5,-238.38"/>
<polygon fill="#63b8ff" stroke="#63b8ff" points="236.77,-244.19 246.97,-241.32 237.2,-237.21 236.77,-244.19"/>
</a>
</g>
</g>
<!-- Node22 -->
<g id="Node000022" class="node">
<title>Node22</title>
<g id="a_Node000022"><a xlink:href="main_8cpp.html#a3c04138a5bfe5d72780bb7e82a18e627" target="_top" xlink:title=" ">
<polygon fill="white" stroke="#666666" points="41,-244.5 0,-244.5 0,-225.5 41,-225.5 41,-244.5"/>
<text text-anchor="middle" x="20.5" y="-232.5" font-family="Helvetica,sans-Serif" font-size="10.00">main</text>
</a>
</g>
</g>
<!-- Node21&#45;&gt;Node22 -->
<g id="edge21_Node000021_Node000022" class="edge">
<title>Node21&#45;&gt;Node22</title>
<g id="a_edge21_Node000021_Node000022"><a xlink:title=" ">
<path fill="none" stroke="#63b8ff" d="M77.97,-235C64.49,-235 51.29,-235 41.05,-235"/>
<polygon fill="#63b8ff" stroke="#63b8ff" points="78.29,-238.5 88.29,-235 78.29,-231.5 78.29,-238.5"/>
</a>
</g>
</g>
<!-- Node24 -->
<g id="Node000024" class="node">
<title>Node24</title>
<g id="a_Node000024"><a xlink:href="classpolyfem_1_1_state.html#acdb194af25d840fa14cec97b19e04577" target="_top" xlink:title="solves nonlinear problems">
<polygon fill="white" stroke="#666666" points="757,-278 636,-278 636,-248 757,-248 757,-278"/>
<text text-anchor="start" x="644" y="-266" font-family="Helvetica,sans-Serif" font-size="10.00">polyfem::State::solve</text>
<text text-anchor="middle" x="696.5" y="-255" font-family="Helvetica,sans-Serif" font-size="10.00">_tensor_nonlinear</text>
</a>
</g>
</g>
<!-- Node23&#45;&gt;Node24 -->
<g id="edge23_Node000023_Node000024" class="edge">
<title>Node23&#45;&gt;Node24</title>
<g id="a_edge23_Node000023_Node000024"><a xlink:title=" ">
<path fill="none" stroke="#63b8ff" d="M795.64,-263C782.86,-263 769.6,-263 757.11,-263"/>
<polygon fill="#63b8ff" stroke="#63b8ff" points="795.77,-266.5 805.77,-263 795.77,-259.5 795.77,-266.5"/>
</a>
</g>
</g>
<!-- Node25 -->
<g id="Node000025" class="node">
<title>Node25</title>
<g id="a_Node000025"><a xlink:href="classpolyfem_1_1_state.html#a7450ef7c42dd9c523e1be73a5819117d" target="_top" xlink:title="solves the problems">
<polygon fill="white" stroke="#666666" points="384,-198 263,-198 263,-168 384,-168 384,-198"/>
<text text-anchor="start" x="271" y="-186" font-family="Helvetica,sans-Serif" font-size="10.00">polyfem::State::solve</text>
<text text-anchor="middle" x="323.5" y="-175" font-family="Helvetica,sans-Serif" font-size="10.00">_problem</text>
</a>
</g>
</g>
<!-- Node24&#45;&gt;Node25 -->
<g id="edge24_Node000024_Node000025" class="edge">
<title>Node24&#45;&gt;Node25</title>
<g id="a_edge24_Node000024_Node000025"><a xlink:title=" ">
<path fill="none" stroke="#63b8ff" d="M644.25,-281.08C589.42,-297.17 501.49,-313.31 436,-279 411.1,-265.95 420.63,-246.09 400,-227 387.53,-215.46 371.52,-205.6 357.45,-198.15"/>
<polygon fill="#63b8ff" stroke="#63b8ff" points="645.54,-284.35 654.1,-278.09 643.51,-277.65 645.54,-284.35"/>
</a>
</g>
</g>
<!-- Node28 -->
<g id="Node000028" class="node">
<title>Node28</title>
<g id="a_Node000028"><a xlink:href="classpolyfem_1_1_state.html#a4d91e8c971fc121b0cff2f0c02ca79e7" target="_top" xlink:title="solves transient tensor nonlinear problem">
<polygon fill="white" stroke="#666666" points="594,-270 442,-270 442,-240 594,-240 594,-270"/>
<text text-anchor="start" x="450" y="-258" font-family="Helvetica,sans-Serif" font-size="10.00">polyfem::State::solve</text>
<text text-anchor="middle" x="518" y="-247" font-family="Helvetica,sans-Serif" font-size="10.00">_transient_tensor_nonlinear</text>
</a>
</g>
</g>
<!-- Node24&#45;&gt;Node28 -->
<g id="edge28_Node000024_Node000028" class="edge">
<title>Node24&#45;&gt;Node28</title>
<g id="a_edge28_Node000024_Node000028"><a xlink:title=" ">
<path fill="none" stroke="#63b8ff" d="M625.53,-259.83C615.18,-259.36 604.48,-258.87 594.03,-258.4"/>
<polygon fill="#63b8ff" stroke="#63b8ff" points="625.6,-263.34 635.75,-260.29 625.91,-256.34 625.6,-263.34"/>
</a>
</g>
</g>
<!-- Node25&#45;&gt;Node21 -->
<g id="edge25_Node000025_Node000021" class="edge">
<title>Node25&#45;&gt;Node21</title>
<g id="a_edge25_Node000025_Node000021"><a xlink:title=" ">
<path fill="none" stroke="#63b8ff" d="M261.39,-200.9C233.21,-209.16 200.91,-218.62 177.5,-225.48"/>
<polygon fill="#63b8ff" stroke="#63b8ff" points="262.55,-204.21 271.16,-198.04 260.58,-197.49 262.55,-204.21"/>
</a>
</g>
</g>
<!-- Node26 -->
<g id="Node000026" class="node">
<title>Node26</title>
<g id="a_Node000026"><a xlink:href="classpolyfem_1_1_state.html#a219f9935d918f739d82488449bd4cbf4" target="_top" xlink:title="solves the problem, call other methods">
<polygon fill="white" stroke="#666666" points="204.5,-204.5 83.5,-204.5 83.5,-185.5 204.5,-185.5 204.5,-204.5"/>
<text text-anchor="middle" x="144" y="-192.5" font-family="Helvetica,sans-Serif" font-size="10.00">polyfem::State::solve</text>
</a>
</g>
</g>
<!-- Node25&#45;&gt;Node26 -->
<g id="edge26_Node000025_Node000026" class="edge">
<title>Node25&#45;&gt;Node26</title>
<g id="a_edge26_Node000025_Node000026"><a xlink:title=" ">
<path fill="none" stroke="#63b8ff" d="M252.64,-187.72C236.8,-188.79 220.12,-189.92 204.74,-190.96"/>
<polygon fill="#63b8ff" stroke="#63b8ff" points="253.16,-191.2 262.9,-187.03 252.69,-184.21 253.16,-191.2"/>
</a>
</g>
</g>
<!-- Node27 -->
<g id="Node000027" class="node">
<title>Node27</title>
<g id="a_Node000027"><a xlink:href="structpolyfem_1_1solver_1_1_adjoint_opt_utils.html#acac3e8ce8646ddd1544ed034c71bec96" target="_top" xlink:title=" ">
<polygon fill="white" stroke="#666666" points="211,-167 77,-167 77,-137 211,-137 211,-167"/>
<text text-anchor="start" x="85" y="-155" font-family="Helvetica,sans-Serif" font-size="10.00">polyfem::solver::Adjoint</text>
<text text-anchor="middle" x="144" y="-144" font-family="Helvetica,sans-Serif" font-size="10.00">OptUtils::solve_pde</text>
</a>
</g>
</g>
<!-- Node25&#45;&gt;Node27 -->
<g id="edge27_Node000025_Node000027" class="edge">
<title>Node25&#45;&gt;Node27</title>
<g id="a_edge27_Node000025_Node000027"><a xlink:title=" ">
<path fill="none" stroke="#63b8ff" d="M253.01,-170.86C239.24,-168.46 224.82,-165.94 211.16,-163.55"/>
<polygon fill="#63b8ff" stroke="#63b8ff" points="252.45,-174.32 262.9,-172.59 253.65,-167.42 252.45,-174.32"/>
</a>
</g>
</g>
<!-- Node28&#45;&gt;Node25 -->
<g id="edge29_Node000028_Node000025" class="edge">
<title>Node28&#45;&gt;Node25</title>
<g id="a_edge29_Node000028_Node000025"><a xlink:title=" ">
<path fill="none" stroke="#63b8ff" d="M452.97,-236.8C447.21,-234.93 441.48,-232.98 436,-231 408.85,-221.17 378.83,-208.12 356.78,-198.1"/>
<polygon fill="#63b8ff" stroke="#63b8ff" points="452.09,-240.19 462.68,-239.87 454.21,-233.52 452.09,-240.19"/>
</a>
</g>
</g>
<!-- Node29&#45;&gt;Node28 -->
<g id="edge41_Node000029_Node000028" class="edge">
<title>Node29&#45;&gt;Node28</title>
<g id="a_edge41_Node000029_Node000028"><a xlink:title=" ">
<path fill="none" stroke="#63b8ff" d="M671.3,-181.15C652.91,-196.96 626.37,-217.7 600,-231 593.32,-234.37 586.09,-237.35 578.79,-239.96"/>
<polygon fill="#63b8ff" stroke="#63b8ff" points="673.93,-183.5 679.14,-174.27 669.32,-178.23 673.93,-183.5"/>
</a>
</g>
</g>
<!-- Node30 -->
<g id="Node000030" class="node">
<title>Node30</title>
<g id="a_Node000030"><a xlink:href="classpolyfem_1_1_state.html#ac5c4dd2be369c759c68e0a36a45bfcc7" target="_top" xlink:title="initialize solver">
<polygon fill="white" stroke="#666666" points="573,-222 463,-222 463,-192 573,-192 573,-222"/>
<text text-anchor="start" x="471" y="-210" font-family="Helvetica,sans-Serif" font-size="10.00">polyfem::State::init</text>
<text text-anchor="middle" x="518" y="-199" font-family="Helvetica,sans-Serif" font-size="10.00">_solve</text>
</a>
</g>
</g>
<!-- Node29&#45;&gt;Node30 -->
<g id="edge31_Node000029_Node000030" class="edge">
<title>Node29&#45;&gt;Node30</title>
<g id="a_edge31_Node000029_Node000030"><a xlink:title=" ">
<path fill="none" stroke="#63b8ff" d="M630.46,-176.69C611.65,-181.8 591.33,-187.33 573.26,-192.24"/>
<polygon fill="#63b8ff" stroke="#63b8ff" points="631.41,-180.06 640.14,-174.06 629.57,-173.3 631.41,-180.06"/>
</a>
</g>
</g>
<!-- Node31 -->
<g id="Node000031" class="node">
<title>Node31</title>
<g id="a_Node000031"><a xlink:href="classpolyfem_1_1_state.html#a711a7162a063d7534b03d9ff9acb93f0" target="_top" xlink:title=" ">
<polygon fill="white" stroke="#666666" points="578.5,-174 457.5,-174 457.5,-144 578.5,-144 578.5,-174"/>
<text text-anchor="start" x="465.5" y="-162" font-family="Helvetica,sans-Serif" font-size="10.00">polyfem::State::solve</text>
<text text-anchor="middle" x="518" y="-151" font-family="Helvetica,sans-Serif" font-size="10.00">_homogenization</text>
</a>
</g>
</g>
<!-- Node29&#45;&gt;Node31 -->
<g id="edge33_Node000029_Node000031" class="edge">
<title>Node29&#45;&gt;Node31</title>
<g id="a_edge33_Node000029_Node000031"><a xlink:title=" ">
<path fill="none" stroke="#63b8ff" d="M626.92,-159C611.02,-159 594.22,-159 578.73,-159"/>
<polygon fill="#63b8ff" stroke="#63b8ff" points="627.22,-162.5 637.22,-159 627.22,-155.5 627.22,-162.5"/>
</a>
</g>
</g>
<!-- Node32 -->
<g id="Node000032" class="node">
<title>Node32</title>
<g id="a_Node000032"><a xlink:href="classpolyfem_1_1_state.html#af5afb70dc127d3ce190116321e83f190" target="_top" xlink:title="solves transient linear problem">
<polygon fill="white" stroke="#666666" points="578.5,-126 457.5,-126 457.5,-96 578.5,-96 578.5,-126"/>
<text text-anchor="start" x="465.5" y="-114" font-family="Helvetica,sans-Serif" font-size="10.00">polyfem::State::solve</text>
<text text-anchor="middle" x="518" y="-103" font-family="Helvetica,sans-Serif" font-size="10.00">_transient_linear</text>
</a>
</g>
</g>
<!-- Node29&#45;&gt;Node32 -->
<g id="edge35_Node000029_Node000032" class="edge">
<title>Node29&#45;&gt;Node32</title>
<g id="a_edge35_Node000029_Node000032"><a xlink:title=" ">
<path fill="none" stroke="#63b8ff" d="M630.35,-141.28C611.89,-136.26 591.97,-130.85 574.16,-126"/>
<polygon fill="#63b8ff" stroke="#63b8ff" points="629.57,-144.7 640.14,-143.94 631.41,-137.94 629.57,-144.7"/>
</a>
</g>
</g>
<!-- Node33 -->
<g id="Node000033" class="node">
<title>Node33</title>
<g id="a_Node000033"><a xlink:href="classpolyfem_1_1_state.html#ac42074a324e693f8eef5d7a96a56dc38" target="_top" xlink:title="solves transient navier stokes with FEM">
<polygon fill="white" stroke="#666666" points="587,-78 449,-78 449,-48 587,-48 587,-78"/>
<text text-anchor="start" x="457" y="-66" font-family="Helvetica,sans-Serif" font-size="10.00">polyfem::State::solve</text>
<text text-anchor="middle" x="518" y="-55" font-family="Helvetica,sans-Serif" font-size="10.00">_transient_navier_stokes</text>
</a>
</g>
</g>
<!-- Node29&#45;&gt;Node33 -->
<g id="edge37_Node000029_Node000033" class="edge">
<title>Node29&#45;&gt;Node33</title>
<g id="a_edge37_Node000029_Node000033"><a xlink:title=" ">
<path fill="none" stroke="#63b8ff" d="M671.3,-136.85C652.91,-121.04 626.37,-100.3 600,-87 593.32,-83.63 586.09,-80.65 578.79,-78.04"/>
<polygon fill="#63b8ff" stroke="#63b8ff" points="669.32,-139.77 679.14,-143.73 673.93,-134.5 669.32,-139.77"/>
</a>
</g>
</g>
<!-- Node34 -->
<g id="Node000034" class="node">
<title>Node34</title>
<g id="a_Node000034"><a xlink:href="classpolyfem_1_1_state.html#a9fa28a682c746974ee171d8cfa6a8558" target="_top" xlink:title="solves transient navier stokes with operator splitting">
<polygon fill="white" stroke="#666666" points="600,-30 436,-30 436,0 600,0 600,-30"/>
<text text-anchor="start" x="444" y="-18" font-family="Helvetica,sans-Serif" font-size="10.00">polyfem::State::solve</text>
<text text-anchor="middle" x="518" y="-7" font-family="Helvetica,sans-Serif" font-size="10.00">_transient_navier_stokes_split</text>
</a>
</g>
</g>
<!-- Node29&#45;&gt;Node34 -->
<g id="edge39_Node000029_Node000034" class="edge">
<title>Node29&#45;&gt;Node34</title>
<g id="a_edge39_Node000029_Node000034"><a xlink:title=" ">
<path fill="none" stroke="#63b8ff" d="M682.34,-134.72C666.37,-107.5 636.93,-63.9 600,-39 594.89,-35.56 589.28,-32.6 583.47,-30.05"/>
<polygon fill="#63b8ff" stroke="#63b8ff" points="679.42,-136.67 687.42,-143.61 685.5,-133.19 679.42,-136.67"/>
</a>
</g>
</g>
<!-- Node30&#45;&gt;Node25 -->
<g id="edge32_Node000030_Node000025" class="edge">
<title>Node30&#45;&gt;Node25</title>
<g id="a_edge32_Node000030_Node000025"><a xlink:title=" ">
<path fill="none" stroke="#63b8ff" d="M452.9,-199.01C430.77,-196.25 406.08,-193.17 384.31,-190.46"/>
<polygon fill="#63b8ff" stroke="#63b8ff" points="452.51,-202.49 462.87,-200.25 453.38,-195.54 452.51,-202.49"/>
</a>
</g>
</g>
<!-- Node31&#45;&gt;Node25 -->
<g id="edge34_Node000031_Node000025" class="edge">
<title>Node31&#45;&gt;Node25</title>
<g id="a_edge34_Node000031_Node000025"><a xlink:title=" ">
<path fill="none" stroke="#63b8ff" d="M447.4,-167.68C426.68,-170.26 404.17,-173.07 384.14,-175.56"/>
<polygon fill="#63b8ff" stroke="#63b8ff" points="447.92,-171.14 457.41,-166.43 447.05,-164.19 447.92,-171.14"/>
</a>
</g>
</g>
<!-- Node32&#45;&gt;Node25 -->
<g id="edge36_Node000032_Node000025" class="edge">
<title>Node32&#45;&gt;Node25</title>
<g id="a_edge36_Node000032_Node000025"><a xlink:title=" ">
<path fill="none" stroke="#63b8ff" d="M452.97,-129.2C447.21,-131.07 441.48,-133.02 436,-135 408.85,-144.83 378.83,-157.88 356.78,-167.9"/>
<polygon fill="#63b8ff" stroke="#63b8ff" points="454.21,-132.48 462.68,-126.13 452.09,-125.81 454.21,-132.48"/>
</a>
</g>
</g>
<!-- Node33&#45;&gt;Node25 -->
<g id="edge38_Node000033_Node000025" class="edge">
<title>Node33&#45;&gt;Node25</title>
<g id="a_edge38_Node000033_Node000025"><a xlink:title=" ">
<path fill="none" stroke="#63b8ff" d="M446.24,-81.98C442.72,-83.54 439.28,-85.21 436,-87 396.09,-108.78 357.77,-146.68 338.13,-167.76"/>
<polygon fill="#63b8ff" stroke="#63b8ff" points="447.78,-85.13 455.71,-78.11 445.13,-78.65 447.78,-85.13"/>
</a>
</g>
</g>
<!-- Node34&#45;&gt;Node25 -->
<g id="edge40_Node000034_Node000025" class="edge">
<title>Node34&#45;&gt;Node25</title>
<g id="a_edge40_Node000034_Node000025"><a xlink:title=" ">
<path fill="none" stroke="#63b8ff" d="M443.02,-34.67C440.6,-36.02 438.25,-37.46 436,-39 385.37,-73.63 347.45,-138.47 332.04,-167.85"/>
<polygon fill="#63b8ff" stroke="#63b8ff" points="444.68,-37.75 452.07,-30.17 441.56,-31.49 444.68,-37.75"/>
</a>
</g>
</g>
<!-- Node35&#45;&gt;Node18 -->
<g id="edge43_Node000035_Node000018" class="edge">
<title>Node35&#45;&gt;Node18</title>
<g id="a_edge43_Node000035_Node000018"><a xlink:title=" ">
<path fill="none" stroke="#63b8ff" d="M1146.66,-249.73C1136.8,-251.03 1126.79,-252.35 1117.1,-253.62"/>
<polygon fill="#63b8ff" stroke="#63b8ff" points="1147.4,-253.16 1156.85,-248.38 1146.48,-246.22 1147.4,-253.16"/>
</a>
</g>
</g>
</g>
</svg>

<g id="navigator" transform="translate(0 0)" fill="#404254">
  <rect fill="#f2f5e9" fill-opacity="0.5" stroke="#606060" stroke-width=".5" x="0" y="0" width="60" height="60"/>
  <use id="zoomplus" xlink:href="#zoomPlus" x="17" y="9" onmousedown="handleZoom(evt,'in')"/>
  <use id="zoomminus" xlink:href="#zoomMin" x="42" y="9" onmousedown="handleZoom(evt,'out')"/>
  <use id="reset" xlink:href="#resetDef" x="30" y="36" onmousedown="handleReset()"/>
   <use id="arrowup" xlink:href="#arrowUp" x="0" y="0" onmousedown="handlePan(0,-1)"/>
  <use id="arrowright" xlink:href="#arrowRight" x="0" y="0" onmousedown="handlePan(1,0)"/>
  <use id="arrowdown" xlink:href="#arrowDown" x="0" y="0" onmousedown="handlePan(0,1)"/>
  <use id="arrowleft" xlink:href="#arrowLeft" x="0" y="0" onmousedown="handlePan(-1,0)"/>
</g>
<svg viewBox="0 0 15 15" width="100%" height="30px" preserveAspectRatio="xMaxYMin meet">
 <g id="arrow_out" transform="scale(0.3 0.3)">
  <a xlink:href="classpolyfem_1_1mesh_1_1_mesh_a6714c8e53f6fdfae01933119d8ad152c_icgraph_org.svg" target="_base">
   <rect id="button" ry="5" rx="5" y="6" x="6" height="38" width="38"
        fill="#f2f5e9" fill-opacity="0.5" stroke="#606060" stroke-width="1.0"/>
   <path id="arrow"
     d="M 11.500037,31.436501 C 11.940474,20.09759 22.043105,11.32322 32.158766,21.979434 L 37.068811,17.246167 C 37.068811,17.246167 37.088388,32 37.088388,32 L 22.160133,31.978069 C 22.160133,31.978069 26.997745,27.140456 26.997745,27.140456 C 18.528582,18.264221 13.291696,25.230495 11.500037,31.436501 z"
     style="fill:#404040;"/>
  </a>
 </g>
</svg>

<style type='text/css'>
<![CDATA[
[data-mouse-over-selected='false'] { opacity: 0.7; }
[data-mouse-over-selected='true']  { opacity: 1.0; }
]]>
</style>
<script type="application/ecmascript"><![CDATA[
document.addEventListener('DOMContentLoaded', (event) => {
  highlightEdges();
  highlightAdjacentNodes();
});
]]></script>
</svg>
