<?xml version="1.0" encoding="UTF-8" standalone="no"?>
<!DOCTYPE svg PUBLIC "-//W3C//DTD SVG 1.1//EN"
 "http://www.w3.org/Graphics/SVG/1.1/DTD/svg11.dtd">
<!-- Generated by graphviz version 2.43.0 (0)
 -->
<!-- Title: polyfem::legacy::State::save_json Pages: 1 -->
<!--zoomable 134 -->

<svg id="main" version="1.1" xmlns="http://www.w3.org/2000/svg" xmlns:xlink="http://www.w3.org/1999/xlink" xml:space="preserve" onload="init(evt)">
<style type="text/css"><![CDATA[
.node, .edge {opacity: 0.7;}
.node.selected, .edge.selected {opacity: 1;}
.edge:hover path { stroke: red; }
.edge:hover polygon { stroke: red; fill: red; }
]]></style>

<defs>
  <circle id="rim" cx="0" cy="0" r="7"/>
  <circle id="rim2" cx="0" cy="0" r="3.5"/>
  <g id="zoomPlus">
    <use xlink:href="#rim" fill="#404040"><set attributeName="fill" to="#808080" begin="zoomplus.mouseover" end="zoomplus.mouseout"/></use>
    <path d="M-4,0h8M0,-4v8" fill="none" stroke="white" stroke-width="1.5" pointer-events="none"/>
  </g>
  <g id="zoomMin">
    <use xlink:href="#rim" fill="#404040"><set attributeName="fill" to="#808080" begin="zoomminus.mouseover" end="zoomminus.mouseout"/></use>
    <path d="M-4,0h8" fill="none" stroke="white" stroke-width="1.5" pointer-events="none"/>
  </g>
  <g id="arrowUp" transform="translate(30 24)">
    <use xlink:href="#rim"/>
    <path pointer-events="none" fill="none" stroke="white" stroke-width="1.5" d="M0,-3.0v7 M-2.5,-0.5L0,-3.0L2.5,-0.5"/>
  </g>
  <g id="arrowRight" transform="rotate(90) translate(36 -43)">
    <use xlink:href="#rim"/>
    <path pointer-events="none" fill="none" stroke="white" stroke-width="1.5" d="M0,-3.0v7 M-2.5,-0.5L0,-3.0L2.5,-0.5"/>
  </g>
  <g id="arrowDown" transform="rotate(180) translate(-30 -48)">
    <use xlink:href="#rim"/>
    <path pointer-events="none" fill="none" stroke="white" stroke-width="1.5" d="M0,-3.0v7 M-2.5,-0.5L0,-3.0L2.5,-0.5"/>
  </g>
  <g id="arrowLeft" transform="rotate(270) translate(-36 17)">
    <use xlink:href="#rim"/>
    <path pointer-events="none" fill="none" stroke="white" stroke-width="1.5" d="M0,-3.0v7 M-2.5,-0.5L0,-3.0L2.5,-0.5"/>
  </g>
  <g id="resetDef">
    <use xlink:href="#rim2" fill="#404040"><set attributeName="fill" to="#808080" begin="reset.mouseover" end="reset.mouseout"/></use>
  </g>
</defs>
<script type="application/ecmascript">
var viewWidth = 520;
var viewHeight = 134;
var sectionId = 'dynsection-94';
</script>
<script type="application/ecmascript" xlink:href="svg.min.js"/>
<svg id="graph" class="graph">
<g id="viewport">
<title>polyfem::legacy::State::save_json</title>
<!-- Node1 -->
<g id="Node000001" class="node">
<title>Node1</title>
<g id="a_Node000001"><a xlink:title="saves the output statistic to a stream">
<polygon fill="#999999" stroke="#666666" points="512,-78 386,-78 386,-48 512,-48 512,-78"/>
<text text-anchor="start" x="394" y="-66" font-family="Helvetica,sans-Serif" font-size="10.00">polyfem::legacy::State</text>
<text text-anchor="middle" x="449" y="-55" font-family="Helvetica,sans-Serif" font-size="10.00">::save_json</text>
</a>
</g>
</g>
<!-- Node2 -->
<g id="Node000002" class="node">
<title>Node2</title>
<g id="a_Node000002"><a xlink:href="main_8cpp.html#a0d6fd6ed6fda5fc5e4b6ed34b45fe322" target="_top" xlink:title=" ">
<polygon fill="white" stroke="#666666" points="342.5,-126 231.5,-126 231.5,-96 342.5,-96 342.5,-126"/>
<text text-anchor="start" x="239.5" y="-114" font-family="Helvetica,sans-Serif" font-size="10.00">forward_simulation</text>
<text text-anchor="middle" x="287" y="-103" font-family="Helvetica,sans-Serif" font-size="10.00">_with_legacy_state</text>
</a>
</g>
</g>
<!-- Node1&#45;&gt;Node2 -->
<g id="edge1_Node000001_Node000002" class="edge">
<title>Node1&#45;&gt;Node2</title>
<g id="a_edge1_Node000001_Node000002"><a xlink:title=" ">
<path fill="none" stroke="#63b8ff" d="M387.78,-81.07C371.37,-85.99 353.78,-91.27 338.01,-96"/>
<polygon fill="#63b8ff" stroke="#63b8ff" points="389.24,-84.28 397.81,-78.06 387.23,-77.58 389.24,-84.28"/>
</a>
</g>
</g>
<!-- Node5 -->
<g id="Node000005" class="node">
<title>Node5</title>
<g id="a_Node000005"><a xlink:href="classpolyfem_1_1legacy_1_1_state.html#a88ad3a8d372018f56ab5d78ed0f137cc" target="_top" xlink:title="gets the output log as json this is not what gets printed but more informative information,...">
<polygon fill="white" stroke="#666666" points="350,-78 224,-78 224,-48 350,-48 350,-78"/>
<text text-anchor="start" x="232" y="-66" font-family="Helvetica,sans-Serif" font-size="10.00">polyfem::legacy::State</text>
<text text-anchor="middle" x="287" y="-55" font-family="Helvetica,sans-Serif" font-size="10.00">::get_log</text>
</a>
</g>
</g>
<!-- Node1&#45;&gt;Node5 -->
<g id="edge4_Node000001_Node000005" class="edge">
<title>Node1&#45;&gt;Node5</title>
<g id="a_edge4_Node000001_Node000005"><a xlink:title=" ">
<path fill="none" stroke="#63b8ff" d="M375.45,-63C367,-63 358.44,-63 350.15,-63"/>
<polygon fill="#63b8ff" stroke="#63b8ff" points="375.68,-66.5 385.68,-63 375.68,-59.5 375.68,-66.5"/>
</a>
</g>
</g>
<!-- Node6 -->
<g id="Node000006" class="node">
<title>Node6</title>
<g id="a_Node000006"><a xlink:href="classpolyfem_1_1legacy_1_1_state.html#a192eea1879f548c86ae246f690f8e7a9" target="_top" xlink:title="saves the output statistic to disc according to params">
<polygon fill="white" stroke="#666666" points="350,-30 224,-30 224,0 350,0 350,-30"/>
<text text-anchor="start" x="232" y="-18" font-family="Helvetica,sans-Serif" font-size="10.00">polyfem::legacy::State</text>
<text text-anchor="middle" x="287" y="-7" font-family="Helvetica,sans-Serif" font-size="10.00">::save_json</text>
</a>
</g>
</g>
<!-- Node1&#45;&gt;Node6 -->
<g id="edge5_Node000001_Node000006" class="edge">
<title>Node1&#45;&gt;Node6</title>
<g id="a_edge5_Node000001_Node000006"><a xlink:title=" ">
<path fill="none" stroke="#63b8ff" d="M387.78,-44.93C371.37,-40.01 353.78,-34.73 338.01,-30"/>
<polygon fill="#63b8ff" stroke="#63b8ff" points="387.23,-48.42 397.81,-47.94 389.24,-41.72 387.23,-48.42"/>
</a>
</g>
</g>
<!-- Node3 -->
<g id="Node000003" class="node">
<title>Node3</title>
<g id="a_Node000003"><a xlink:href="main_8cpp.html#aec889c702a246ad7f332c75ab7adb438" target="_top" xlink:title=" ">
<polygon fill="white" stroke="#666666" points="188,-120.5 77,-120.5 77,-101.5 188,-101.5 188,-120.5"/>
<text text-anchor="middle" x="132.5" y="-108.5" font-family="Helvetica,sans-Serif" font-size="10.00">forward_simulation</text>
</a>
</g>
</g>
<!-- Node2&#45;&gt;Node3 -->
<g id="edge2_Node000002_Node000003" class="edge">
<title>Node2&#45;&gt;Node3</title>
<g id="a_edge2_Node000002_Node000003"><a xlink:title=" ">
<path fill="none" stroke="#63b8ff" d="M221.31,-111C210.22,-111 198.79,-111 188,-111"/>
<polygon fill="#63b8ff" stroke="#63b8ff" points="221.37,-114.5 231.37,-111 221.37,-107.5 221.37,-114.5"/>
</a>
</g>
</g>
<!-- Node4 -->
<g id="Node000004" class="node">
<title>Node4</title>
<g id="a_Node000004"><a xlink:href="main_8cpp.html#a3c04138a5bfe5d72780bb7e82a18e627" target="_top" xlink:title=" ">
<polygon fill="white" stroke="#666666" points="41,-120.5 0,-120.5 0,-101.5 41,-101.5 41,-120.5"/>
<text text-anchor="middle" x="20.5" y="-108.5" font-family="Helvetica,sans-Serif" font-size="10.00">main</text>
</a>
</g>
</g>
<!-- Node3&#45;&gt;Node4 -->
<g id="edge3_Node000003_Node000004" class="edge">
<title>Node3&#45;&gt;Node4</title>
<g id="a_edge3_Node000003_Node000004"><a xlink:title=" ">
<path fill="none" stroke="#63b8ff" d="M66.64,-111C57.35,-111 48.45,-111 41.05,-111"/>
<polygon fill="#63b8ff" stroke="#63b8ff" points="66.82,-114.5 76.82,-111 66.82,-107.5 66.82,-114.5"/>
</a>
</g>
</g>
</g>
</svg>

<g id="navigator" transform="translate(0 0)" fill="#404254">
  <rect fill="#f2f5e9" fill-opacity="0.5" stroke="#606060" stroke-width=".5" x="0" y="0" width="60" height="60"/>
  <use id="zoomplus" xlink:href="#zoomPlus" x="17" y="9" onmousedown="handleZoom(evt,'in')"/>
  <use id="zoomminus" xlink:href="#zoomMin" x="42" y="9" onmousedown="handleZoom(evt,'out')"/>
  <use id="reset" xlink:href="#resetDef" x="30" y="36" onmousedown="handleReset()"/>
   <use id="arrowup" xlink:href="#arrowUp" x="0" y="0" onmousedown="handlePan(0,-1)"/>
  <use id="arrowright" xlink:href="#arrowRight" x="0" y="0" onmousedown="handlePan(1,0)"/>
  <use id="arrowdown" xlink:href="#arrowDown" x="0" y="0" onmousedown="handlePan(0,1)"/>
  <use id="arrowleft" xlink:href="#arrowLeft" x="0" y="0" onmousedown="handlePan(-1,0)"/>
</g>
<svg viewBox="0 0 15 15" width="100%" height="30px" preserveAspectRatio="xMaxYMin meet">
 <g id="arrow_out" transform="scale(0.3 0.3)">
  <a xlink:href="classpolyfem_1_1legacy_1_1_state_a9866e0228e4bcfba7a5d3daf8dd048f6_icgraph_org.svg" target="_base">
   <rect id="button" ry="5" rx="5" y="6" x="6" height="38" width="38"
        fill="#f2f5e9" fill-opacity="0.5" stroke="#606060" stroke-width="1.0"/>
   <path id="arrow"
     d="M 11.500037,31.436501 C 11.940474,20.09759 22.043105,11.32322 32.158766,21.979434 L 37.068811,17.246167 C 37.068811,17.246167 37.088388,32 37.088388,32 L 22.160133,31.978069 C 22.160133,31.978069 26.997745,27.140456 26.997745,27.140456 C 18.528582,18.264221 13.291696,25.230495 11.500037,31.436501 z"
     style="fill:#404040;"/>
  </a>
 </g>
</svg>

<style type='text/css'>
<![CDATA[
[data-mouse-over-selected='false'] { opacity: 0.7; }
[data-mouse-over-selected='true']  { opacity: 1.0; }
]]>
</style>
<script type="application/ecmascript"><![CDATA[
document.addEventListener('DOMContentLoaded', (event) => {
  highlightEdges();
  highlightAdjacentNodes();
});
]]></script>
</svg>
