<?xml version="1.0" encoding="UTF-8" standalone="no"?>
<!DOCTYPE svg PUBLIC "-//W3C//DTD SVG 1.1//EN"
 "http://www.w3.org/Graphics/SVG/1.1/DTD/svg11.dtd">
<!-- Generated by graphviz version 2.43.0 (0)
 -->
<!-- Title: polyfem::mesh::Mesh3D::get_ordered_vertices_from_tet Pages: 1 -->
<svg width="325pt" height="235pt"
 viewBox="0.00 0.00 325.00 235.00" xmlns="http://www.w3.org/2000/svg" xmlns:xlink="http://www.w3.org/1999/xlink">
<g id="graph0" class="graph" transform="scale(1 1) rotate(0) translate(4 231)">
<title>polyfem::mesh::Mesh3D::get_ordered_vertices_from_tet</title>
<!-- Node1 -->
<g id="node1" class="node">
<title>Node1</title>
<g id="a_node1"><a xlink:title=" ">
<polygon fill="#bfbfbf" stroke="black" points="0,-93 0,-134 136,-134 136,-93 0,-93"/>
<text text-anchor="start" x="8" y="-122" font-family="Helvetica,sans-Serif" font-size="10.00">polyfem::mesh::Mesh3D</text>
<text text-anchor="start" x="8" y="-111" font-family="Helvetica,sans-Serif" font-size="10.00">::get_ordered_vertices</text>
<text text-anchor="middle" x="68" y="-100" font-family="Helvetica,sans-Serif" font-size="10.00">_from_tet</text>
</a>
</g>
</g>
<!-- Node2 -->
<g id="node2" class="node">
<title>Node2</title>
<g id="a_node2"><a xlink:href="classpolyfem_1_1mesh_1_1_mesh3_d.html#a04627e0048f0e5d66c44bbb137661277" target="_top" xlink:title=" ">
<polygon fill="none" stroke="black" points="172,-196.5 172,-226.5 317,-226.5 317,-196.5 172,-196.5"/>
<text text-anchor="start" x="180" y="-214.5" font-family="Helvetica,sans-Serif" font-size="10.00">polyfem::mesh::Mesh3D</text>
<text text-anchor="middle" x="244.5" y="-203.5" font-family="Helvetica,sans-Serif" font-size="10.00">::get_index_from_element</text>
</a>
</g>
</g>
<!-- Node1&#45;&gt;Node2 -->
<g id="edge1" class="edge">
<title>Node1&#45;&gt;Node2</title>
<path fill="none" stroke="midnightblue" d="M93.45,-134.3C113.51,-150.53 143.19,-172.74 172,-187.5 175.51,-189.3 179.17,-191 182.92,-192.61"/>
<polygon fill="midnightblue" stroke="midnightblue" points="181.75,-195.92 192.34,-196.42 184.38,-189.43 181.75,-195.92"/>
</g>
<!-- Node3 -->
<g id="node3" class="node">
<title>Node3</title>
<g id="a_node3"><a xlink:href="classpolyfem_1_1mesh_1_1_mesh3_d.html#ae0acaf2aa88d5ceaf4451df11659f285" target="_top" xlink:title=" ">
<polygon fill="none" stroke="black" points="176.5,-147.5 176.5,-177.5 312.5,-177.5 312.5,-147.5 176.5,-147.5"/>
<text text-anchor="start" x="184.5" y="-165.5" font-family="Helvetica,sans-Serif" font-size="10.00">polyfem::mesh::Mesh3D</text>
<text text-anchor="middle" x="244.5" y="-154.5" font-family="Helvetica,sans-Serif" font-size="10.00">::next_around_face</text>
</a>
</g>
</g>
<!-- Node1&#45;&gt;Node3 -->
<g id="edge2" class="edge">
<title>Node1&#45;&gt;Node3</title>
<path fill="none" stroke="midnightblue" d="M136.47,-132.44C150.88,-136.49 166.06,-140.75 180.31,-144.76"/>
<polygon fill="midnightblue" stroke="midnightblue" points="179.43,-148.14 190,-147.48 181.32,-141.4 179.43,-148.14"/>
</g>
<!-- Node4 -->
<g id="node4" class="node">
<title>Node4</title>
<g id="a_node4"><a xlink:href="classpolyfem_1_1mesh_1_1_mesh3_d.html#ab2a59e977bce042ef0e75782536f49c4" target="_top" xlink:title=" ">
<polygon fill="none" stroke="black" points="176.5,-98.5 176.5,-128.5 312.5,-128.5 312.5,-98.5 176.5,-98.5"/>
<text text-anchor="start" x="184.5" y="-116.5" font-family="Helvetica,sans-Serif" font-size="10.00">polyfem::mesh::Mesh3D</text>
<text text-anchor="middle" x="244.5" y="-105.5" font-family="Helvetica,sans-Serif" font-size="10.00">::switch_edge</text>
</a>
</g>
</g>
<!-- Node1&#45;&gt;Node4 -->
<g id="edge3" class="edge">
<title>Node1&#45;&gt;Node4</title>
<path fill="none" stroke="midnightblue" d="M136.47,-113.5C146.15,-113.5 156.17,-113.5 166.03,-113.5"/>
<polygon fill="midnightblue" stroke="midnightblue" points="166.21,-117 176.21,-113.5 166.21,-110 166.21,-117"/>
</g>
<!-- Node5 -->
<g id="node5" class="node">
<title>Node5</title>
<g id="a_node5"><a xlink:href="classpolyfem_1_1mesh_1_1_mesh3_d.html#aec1e0ed9175c9fa82237cdf19a8f01e6" target="_top" xlink:title=" ">
<polygon fill="none" stroke="black" points="176.5,-49.5 176.5,-79.5 312.5,-79.5 312.5,-49.5 176.5,-49.5"/>
<text text-anchor="start" x="184.5" y="-67.5" font-family="Helvetica,sans-Serif" font-size="10.00">polyfem::mesh::Mesh3D</text>
<text text-anchor="middle" x="244.5" y="-56.5" font-family="Helvetica,sans-Serif" font-size="10.00">::switch_face</text>
</a>
</g>
</g>
<!-- Node1&#45;&gt;Node5 -->
<g id="edge4" class="edge">
<title>Node1&#45;&gt;Node5</title>
<path fill="none" stroke="midnightblue" d="M136.47,-94.56C150.88,-90.51 166.06,-86.25 180.31,-82.24"/>
<polygon fill="midnightblue" stroke="midnightblue" points="181.32,-85.6 190,-79.52 179.43,-78.86 181.32,-85.6"/>
</g>
<!-- Node6 -->
<g id="node6" class="node">
<title>Node6</title>
<g id="a_node6"><a xlink:href="classpolyfem_1_1mesh_1_1_mesh3_d.html#afd5e8a487b0eecbfaa2ca5438f29ef2f" target="_top" xlink:title=" ">
<polygon fill="none" stroke="black" points="176.5,-0.5 176.5,-30.5 312.5,-30.5 312.5,-0.5 176.5,-0.5"/>
<text text-anchor="start" x="184.5" y="-18.5" font-family="Helvetica,sans-Serif" font-size="10.00">polyfem::mesh::Mesh3D</text>
<text text-anchor="middle" x="244.5" y="-7.5" font-family="Helvetica,sans-Serif" font-size="10.00">::switch_vertex</text>
</a>
</g>
</g>
<!-- Node1&#45;&gt;Node6 -->
<g id="edge5" class="edge">
<title>Node1&#45;&gt;Node6</title>
<path fill="none" stroke="midnightblue" d="M93.96,-92.78C114.06,-76.86 143.56,-55.18 172,-40.5 176.23,-38.32 180.7,-36.25 185.25,-34.31"/>
<polygon fill="midnightblue" stroke="midnightblue" points="186.69,-37.5 194.65,-30.51 184.07,-31.01 186.69,-37.5"/>
</g>
</g>
</svg>
