<?xml version="1.0" encoding="UTF-8" standalone="no"?>
<!DOCTYPE svg PUBLIC "-//W3C//DTD SVG 1.1//EN"
 "http://www.w3.org/Graphics/SVG/1.1/DTD/svg11.dtd">
<!-- Generated by graphviz version 2.43.0 (0)
 -->
<!-- Title: polyfem::mesh::Mesh::face_vertex Pages: 1 -->
<svg width="1091pt" height="412pt"
 viewBox="0.00 0.00 1091.00 412.00" xmlns="http://www.w3.org/2000/svg" xmlns:xlink="http://www.w3.org/1999/xlink">
<g id="graph0" class="graph" transform="scale(1 1) rotate(0) translate(4 408)">
<title>polyfem::mesh::Mesh::face_vertex</title>
<!-- Node1 -->
<g id="Node000001" class="node">
<title>Node1</title>
<g id="a_Node000001"><a xlink:title="id of the face vertex">
<polygon fill="#999999" stroke="#666666" points="1083,-212 961,-212 961,-182 1083,-182 1083,-212"/>
<text text-anchor="start" x="969" y="-200" font-family="Helvetica,sans-Serif" font-size="10.00">polyfem::mesh::Mesh</text>
<text text-anchor="middle" x="1022" y="-189" font-family="Helvetica,sans-Serif" font-size="10.00">::face_vertex</text>
</a>
</g>
</g>
<!-- Node2 -->
<g id="Node000002" class="node">
<title>Node2</title>
<g id="a_Node000002"><a xlink:href="classpolyfem_1_1mesh_1_1_mesh.html#afeda8cefadaa5bf91c03183075c53d71" target="_top" xlink:title=" ">
<polygon fill="white" stroke="#666666" points="907,-404 756,-404 756,-374 907,-374 907,-404"/>
<text text-anchor="start" x="764" y="-392" font-family="Helvetica,sans-Serif" font-size="10.00">polyfem::mesh::Mesh</text>
<text text-anchor="middle" x="831.5" y="-381" font-family="Helvetica,sans-Serif" font-size="10.00">::boundary_element_vertex</text>
</a>
</g>
</g>
<!-- Node1&#45;&gt;Node2 -->
<g id="edge1_Node000001_Node000002" class="edge">
<title>Node1&#45;&gt;Node2</title>
<g id="a_edge1_Node000001_Node000002"><a xlink:title=" ">
<path fill="none" stroke="#63b8ff" d="M1013.57,-222.23C1001.33,-259.29 973.33,-328.04 925,-365 919.6,-369.13 913.55,-372.56 907.21,-375.39"/>
<polygon fill="#63b8ff" stroke="#63b8ff" points="1017.05,-222.83 1016.74,-212.24 1010.38,-220.71 1017.05,-222.83"/>
</a>
</g>
</g>
<!-- Node3 -->
<g id="Node000003" class="node">
<title>Node3</title>
<g id="a_Node000003"><a xlink:href="classpolyfem_1_1basis_1_1_barycentric_basis2d.html#a2703ee0b52b532c9921bec4624d846da" target="_top" xlink:title=" ">
<polygon fill="white" stroke="#666666" points="906.5,-356 756.5,-356 756.5,-326 906.5,-326 906.5,-356"/>
<text text-anchor="start" x="764.5" y="-344" font-family="Helvetica,sans-Serif" font-size="10.00">polyfem::basis::Barycentric</text>
<text text-anchor="middle" x="831.5" y="-333" font-family="Helvetica,sans-Serif" font-size="10.00">Basis2d::build_bases</text>
</a>
</g>
</g>
<!-- Node1&#45;&gt;Node3 -->
<g id="edge2_Node000001_Node000003" class="edge">
<title>Node1&#45;&gt;Node3</title>
<g id="a_edge2_Node000001_Node000003"><a xlink:title=" ">
<path fill="none" stroke="#63b8ff" d="M1008.15,-221.07C992.26,-248.47 962.65,-292.6 925,-317 919.29,-320.7 913.04,-323.83 906.56,-326.48"/>
<polygon fill="#63b8ff" stroke="#63b8ff" points="1011.33,-222.56 1013.19,-212.13 1005.23,-219.12 1011.33,-222.56"/>
</a>
</g>
</g>
<!-- Node11 -->
<g id="Node000011" class="node">
<title>Node11</title>
<g id="a_Node000011"><a xlink:href="classpolyfem_1_1mesh_1_1_mesh.html#a1e14724f5d2a4e1aa946372a3244e7db" target="_top" xlink:title="id of the vertex of a element">
<polygon fill="white" stroke="#666666" points="892.5,-308 770.5,-308 770.5,-278 892.5,-278 892.5,-308"/>
<text text-anchor="start" x="778.5" y="-296" font-family="Helvetica,sans-Serif" font-size="10.00">polyfem::mesh::Mesh</text>
<text text-anchor="middle" x="831.5" y="-285" font-family="Helvetica,sans-Serif" font-size="10.00">::element_vertex</text>
</a>
</g>
</g>
<!-- Node1&#45;&gt;Node11 -->
<g id="edge11_Node000001_Node000011" class="edge">
<title>Node1&#45;&gt;Node11</title>
<g id="a_edge11_Node000001_Node000011"><a xlink:title=" ">
<path fill="none" stroke="#63b8ff" d="M997.37,-218.9C978.93,-234.91 951.98,-256.01 925,-269 914.98,-273.82 903.88,-277.76 892.93,-280.96"/>
<polygon fill="#63b8ff" stroke="#63b8ff" points="999.81,-221.42 1004.97,-212.17 995.17,-216.18 999.81,-221.42"/>
</a>
</g>
</g>
<!-- Node12 -->
<g id="Node000012" class="node">
<title>Node12</title>
<g id="a_Node000012"><a xlink:href="classpolyfem_1_1mesh_1_1_mesh.html#ad07dcb246770556ead116247fcad1da5" target="_top" xlink:title="list of sorted faces.">
<polygon fill="white" stroke="#666666" points="892.5,-260 770.5,-260 770.5,-230 892.5,-230 892.5,-260"/>
<text text-anchor="start" x="778.5" y="-248" font-family="Helvetica,sans-Serif" font-size="10.00">polyfem::mesh::Mesh</text>
<text text-anchor="middle" x="831.5" y="-237" font-family="Helvetica,sans-Serif" font-size="10.00">::faces</text>
</a>
</g>
</g>
<!-- Node1&#45;&gt;Node12 -->
<g id="edge12_Node000001_Node000012" class="edge">
<title>Node1&#45;&gt;Node12</title>
<g id="a_edge12_Node000001_Node000012"><a xlink:title=" ">
<path fill="none" stroke="#63b8ff" d="M951.96,-214.58C932.09,-219.64 910.61,-225.11 891.42,-230"/>
<polygon fill="#63b8ff" stroke="#63b8ff" points="953.05,-217.92 961.87,-212.06 951.32,-211.13 953.05,-217.92"/>
</a>
</g>
</g>
<!-- Node14 -->
<g id="Node000014" class="node">
<title>Node14</title>
<g id="a_Node000014"><a xlink:href="classpolyfem_1_1mesh_1_1_mesh.html#a870ccdba92d3735bdc3541c84f9815ec" target="_top" xlink:title="map from face (tuple of v id) to the id of the face">
<polygon fill="white" stroke="#666666" points="892.5,-212 770.5,-212 770.5,-182 892.5,-182 892.5,-212"/>
<text text-anchor="start" x="778.5" y="-200" font-family="Helvetica,sans-Serif" font-size="10.00">polyfem::mesh::Mesh</text>
<text text-anchor="middle" x="831.5" y="-189" font-family="Helvetica,sans-Serif" font-size="10.00">::faces_to_ids</text>
</a>
</g>
</g>
<!-- Node1&#45;&gt;Node14 -->
<g id="edge14_Node000001_Node000014" class="edge">
<title>Node1&#45;&gt;Node14</title>
<g id="a_edge14_Node000001_Node000014"><a xlink:title=" ">
<path fill="none" stroke="#63b8ff" d="M950.72,-197C931.65,-197 911.19,-197 892.74,-197"/>
<polygon fill="#63b8ff" stroke="#63b8ff" points="950.84,-200.5 960.84,-197 950.84,-193.5 950.84,-200.5"/>
</a>
</g>
</g>
<!-- Node15 -->
<g id="Node000015" class="node">
<title>Node15</title>
<g id="a_Node000015"><a xlink:href="classpolyfem_1_1io_1_1_evaluator.html#a018d5895da038557902f72ad0bef27a4" target="_top" xlink:title="returns a triangulated representation of the sideset.">
<polygon fill="white" stroke="#666666" points="894,-164 769,-164 769,-134 894,-134 894,-164"/>
<text text-anchor="start" x="777" y="-152" font-family="Helvetica,sans-Serif" font-size="10.00">polyfem::io::Evaluator</text>
<text text-anchor="middle" x="831.5" y="-141" font-family="Helvetica,sans-Serif" font-size="10.00">::get_sidesets</text>
</a>
</g>
</g>
<!-- Node1&#45;&gt;Node15 -->
<g id="edge15_Node000001_Node000015" class="edge">
<title>Node1&#45;&gt;Node15</title>
<g id="a_edge15_Node000001_Node000015"><a xlink:title=" ">
<path fill="none" stroke="#63b8ff" d="M951.96,-179.42C932.09,-174.36 910.61,-168.89 891.42,-164"/>
<polygon fill="#63b8ff" stroke="#63b8ff" points="951.32,-182.87 961.87,-181.94 953.05,-176.08 951.32,-182.87"/>
</a>
</g>
</g>
<!-- Node16 -->
<g id="Node000016" class="node">
<title>Node16</title>
<g id="a_Node000016"><a xlink:href="classpolyfem_1_1refinement_1_1_a_priori.html#ad08ea2e656178cd96294ad2064ada07e" target="_top" xlink:title="compute a priori prefinement in 2d">
<polygon fill="white" stroke="#666666" points="889.5,-116 773.5,-116 773.5,-86 889.5,-86 889.5,-116"/>
<text text-anchor="start" x="781.5" y="-104" font-family="Helvetica,sans-Serif" font-size="10.00">polyfem::refinement</text>
<text text-anchor="middle" x="831.5" y="-93" font-family="Helvetica,sans-Serif" font-size="10.00">::APriori::p_refine</text>
</a>
</g>
</g>
<!-- Node1&#45;&gt;Node16 -->
<g id="edge16_Node000001_Node000016" class="edge">
<title>Node1&#45;&gt;Node16</title>
<g id="a_edge16_Node000001_Node000016"><a xlink:title=" ">
<path fill="none" stroke="#63b8ff" d="M997.37,-175.1C978.93,-159.09 951.98,-137.99 925,-125 913.94,-119.67 901.54,-115.42 889.51,-112.07"/>
<polygon fill="#63b8ff" stroke="#63b8ff" points="995.17,-177.82 1004.97,-181.83 999.81,-172.58 995.17,-177.82"/>
</a>
</g>
</g>
<!-- Node17 -->
<g id="Node000017" class="node">
<title>Node17</title>
<g id="a_Node000017"><a xlink:href="namespacepolyfem_1_1mesh.html#ad071b94c821ca0409fc672bd5c520bda" target="_top" xlink:title="Converts a hex mesh to a Geogram mesh.">
<polygon fill="white" stroke="#666666" points="925,-67.5 738,-67.5 738,-48.5 925,-48.5 925,-67.5"/>
<text text-anchor="middle" x="831.5" y="-55.5" font-family="Helvetica,sans-Serif" font-size="10.00">polyfem::mesh::to_geogram_mesh</text>
</a>
</g>
</g>
<!-- Node1&#45;&gt;Node17 -->
<g id="edge17_Node000001_Node000017" class="edge">
<title>Node1&#45;&gt;Node17</title>
<g id="a_edge17_Node000001_Node000017"><a xlink:title=" ">
<path fill="none" stroke="#63b8ff" d="M1008.37,-172.59C992.69,-144.86 963.27,-100.43 925,-77 918.71,-73.15 911.77,-70.06 904.61,-67.6"/>
<polygon fill="#63b8ff" stroke="#63b8ff" points="1005.45,-174.56 1013.33,-181.64 1011.59,-171.19 1005.45,-174.56"/>
</a>
</g>
</g>
<!-- Node18 -->
<g id="Node000018" class="node">
<title>Node18</title>
<g id="a_Node000018"><a xlink:href="classpolyfem_1_1mesh_1_1_mesh3_d.html#a1b5b3fbdccaa5a9311452defaa3c95e0" target="_top" xlink:title="area of a tri face of a tet mesh">
<polygon fill="white" stroke="#666666" points="899.5,-30 763.5,-30 763.5,0 899.5,0 899.5,-30"/>
<text text-anchor="start" x="771.5" y="-18" font-family="Helvetica,sans-Serif" font-size="10.00">polyfem::mesh::Mesh3D</text>
<text text-anchor="middle" x="831.5" y="-7" font-family="Helvetica,sans-Serif" font-size="10.00">::tri_area</text>
</a>
</g>
</g>
<!-- Node1&#45;&gt;Node18 -->
<g id="edge18_Node000001_Node000018" class="edge">
<title>Node1&#45;&gt;Node18</title>
<g id="a_edge18_Node000001_Node000018"><a xlink:title=" ">
<path fill="none" stroke="#63b8ff" d="M1012.75,-172.2C999.77,-137.08 971.18,-73.34 925,-39 917.41,-33.36 908.62,-29.04 899.53,-25.73"/>
<polygon fill="#63b8ff" stroke="#63b8ff" points="1009.48,-173.46 1016.14,-181.7 1016.08,-171.11 1009.48,-173.46"/>
</a>
</g>
</g>
<!-- Node4 -->
<g id="Node000004" class="node">
<title>Node4</title>
<g id="a_Node000004"><a xlink:href="classpolyfem_1_1basis_1_1_m_v_polygonal_basis2d.html#a96c68c7820d06a39ee2948b548c4a64d" target="_top" xlink:title=" ">
<polygon fill="white" stroke="#666666" points="702,-380 544,-380 544,-350 702,-350 702,-380"/>
<text text-anchor="start" x="552" y="-368" font-family="Helvetica,sans-Serif" font-size="10.00">polyfem::basis::MVPolygonal</text>
<text text-anchor="middle" x="623" y="-357" font-family="Helvetica,sans-Serif" font-size="10.00">Basis2d::build_bases</text>
</a>
</g>
</g>
<!-- Node3&#45;&gt;Node4 -->
<g id="edge3_Node000003_Node000004" class="edge">
<title>Node3&#45;&gt;Node4</title>
<g id="a_edge3_Node000003_Node000004"><a xlink:title=" ">
<path fill="none" stroke="#63b8ff" d="M746.24,-350.79C731.65,-352.49 716.54,-354.24 702.13,-355.92"/>
<polygon fill="#63b8ff" stroke="#63b8ff" points="746.71,-354.26 756.24,-349.63 745.9,-347.31 746.71,-354.26"/>
</a>
</g>
</g>
<!-- Node10 -->
<g id="Node000010" class="node">
<title>Node10</title>
<g id="a_Node000010"><a xlink:href="classpolyfem_1_1basis_1_1_w_s_polygonal_basis2d.html#a5fe45bd8fb2b0b8d16e20d7eab13296a" target="_top" xlink:title=" ">
<polygon fill="white" stroke="#666666" points="702,-332 544,-332 544,-302 702,-302 702,-332"/>
<text text-anchor="start" x="552" y="-320" font-family="Helvetica,sans-Serif" font-size="10.00">polyfem::basis::WSPolygonal</text>
<text text-anchor="middle" x="623" y="-309" font-family="Helvetica,sans-Serif" font-size="10.00">Basis2d::build_bases</text>
</a>
</g>
</g>
<!-- Node3&#45;&gt;Node10 -->
<g id="edge9_Node000003_Node000010" class="edge">
<title>Node3&#45;&gt;Node10</title>
<g id="a_edge9_Node000003_Node000010"><a xlink:title=" ">
<path fill="none" stroke="#63b8ff" d="M746.24,-331.21C731.65,-329.51 716.54,-327.76 702.13,-326.08"/>
<polygon fill="#63b8ff" stroke="#63b8ff" points="745.9,-334.69 756.24,-332.37 746.71,-327.74 745.9,-334.69"/>
</a>
</g>
</g>
<!-- Node5 -->
<g id="Node000005" class="node">
<title>Node5</title>
<g id="a_Node000005"><a xlink:href="classpolyfem_1_1_state.html#a202f2494b8f46d4bf22edfc0a36ddb32" target="_top" xlink:title="builds bases for polygons, called inside build_basis">
<polygon fill="white" stroke="#666666" points="508,-356 389,-356 389,-326 508,-326 508,-356"/>
<text text-anchor="start" x="397" y="-344" font-family="Helvetica,sans-Serif" font-size="10.00">polyfem::State::build</text>
<text text-anchor="middle" x="448.5" y="-333" font-family="Helvetica,sans-Serif" font-size="10.00">_polygonal_basis</text>
</a>
</g>
</g>
<!-- Node4&#45;&gt;Node5 -->
<g id="edge4_Node000004_Node000005" class="edge">
<title>Node4&#45;&gt;Node5</title>
<g id="a_edge4_Node000004_Node000005"><a xlink:title=" ">
<path fill="none" stroke="#63b8ff" d="M533.64,-352.71C524.96,-351.5 516.31,-350.3 508.04,-349.14"/>
<polygon fill="#63b8ff" stroke="#63b8ff" points="533.44,-356.21 543.83,-354.12 534.4,-349.28 533.44,-356.21"/>
</a>
</g>
</g>
<!-- Node6 -->
<g id="Node000006" class="node">
<title>Node6</title>
<g id="a_Node000006"><a xlink:href="classpolyfem_1_1_state.html#a75cfcf28f3bc27e8e30b41c7347c799b" target="_top" xlink:title="builds the bases step 2 of solve modifies bases, pressure_bases, geom_bases_, boundary_nodes,...">
<polygon fill="white" stroke="#666666" points="353,-356 234,-356 234,-326 353,-326 353,-356"/>
<text text-anchor="start" x="242" y="-344" font-family="Helvetica,sans-Serif" font-size="10.00">polyfem::State::build</text>
<text text-anchor="middle" x="293.5" y="-333" font-family="Helvetica,sans-Serif" font-size="10.00">_basis</text>
</a>
</g>
</g>
<!-- Node5&#45;&gt;Node6 -->
<g id="edge5_Node000005_Node000006" class="edge">
<title>Node5&#45;&gt;Node6</title>
<g id="a_edge5_Node000005_Node000006"><a xlink:title=" ">
<path fill="none" stroke="#63b8ff" d="M378.51,-341C370.01,-341 361.38,-341 353.06,-341"/>
<polygon fill="#63b8ff" stroke="#63b8ff" points="378.78,-344.5 388.78,-341 378.78,-337.5 378.78,-344.5"/>
</a>
</g>
</g>
<!-- Node7 -->
<g id="Node000007" class="node">
<title>Node7</title>
<g id="a_Node000007"><a xlink:href="main_8cpp.html#aec889c702a246ad7f332c75ab7adb438" target="_top" xlink:title=" ">
<polygon fill="white" stroke="#666666" points="193,-369.5 82,-369.5 82,-350.5 193,-350.5 193,-369.5"/>
<text text-anchor="middle" x="137.5" y="-357.5" font-family="Helvetica,sans-Serif" font-size="10.00">forward_simulation</text>
</a>
</g>
</g>
<!-- Node6&#45;&gt;Node7 -->
<g id="edge6_Node000006_Node000007" class="edge">
<title>Node6&#45;&gt;Node7</title>
<g id="a_edge6_Node000006_Node000007"><a xlink:title=" ">
<path fill="none" stroke="#63b8ff" d="M223.71,-349.49C213.49,-350.75 203.08,-352.03 193.2,-353.25"/>
<polygon fill="#63b8ff" stroke="#63b8ff" points="224.34,-352.94 233.84,-348.24 223.49,-345.99 224.34,-352.94"/>
</a>
</g>
</g>
<!-- Node9 -->
<g id="Node000009" class="node">
<title>Node9</title>
<g id="a_Node000009"><a xlink:href="classpolyfem_1_1_state.html#a219f9935d918f739d82488449bd4cbf4" target="_top" xlink:title="solves the problem, call other methods">
<polygon fill="white" stroke="#666666" points="198,-332.5 77,-332.5 77,-313.5 198,-313.5 198,-332.5"/>
<text text-anchor="middle" x="137.5" y="-320.5" font-family="Helvetica,sans-Serif" font-size="10.00">polyfem::State::solve</text>
</a>
</g>
</g>
<!-- Node6&#45;&gt;Node9 -->
<g id="edge8_Node000006_Node000009" class="edge">
<title>Node6&#45;&gt;Node9</title>
<g id="a_edge8_Node000006_Node000009"><a xlink:title=" ">
<path fill="none" stroke="#63b8ff" d="M223.83,-332.97C215.22,-331.97 206.47,-330.94 198.02,-329.96"/>
<polygon fill="#63b8ff" stroke="#63b8ff" points="223.5,-336.46 233.84,-334.14 224.31,-329.51 223.5,-336.46"/>
</a>
</g>
</g>
<!-- Node8 -->
<g id="Node000008" class="node">
<title>Node8</title>
<g id="a_Node000008"><a xlink:href="main_8cpp.html#a3c04138a5bfe5d72780bb7e82a18e627" target="_top" xlink:title=" ">
<polygon fill="white" stroke="#666666" points="41,-369.5 0,-369.5 0,-350.5 41,-350.5 41,-369.5"/>
<text text-anchor="middle" x="20.5" y="-357.5" font-family="Helvetica,sans-Serif" font-size="10.00">main</text>
</a>
</g>
</g>
<!-- Node7&#45;&gt;Node8 -->
<g id="edge7_Node000007_Node000008" class="edge">
<title>Node7&#45;&gt;Node8</title>
<g id="a_edge7_Node000007_Node000008"><a xlink:title=" ">
<path fill="none" stroke="#63b8ff" d="M71.45,-360C60.37,-360 49.66,-360 41.02,-360"/>
<polygon fill="#63b8ff" stroke="#63b8ff" points="71.69,-363.5 81.69,-360 71.69,-356.5 71.69,-363.5"/>
</a>
</g>
</g>
<!-- Node10&#45;&gt;Node5 -->
<g id="edge10_Node000010_Node000005" class="edge">
<title>Node10&#45;&gt;Node5</title>
<g id="a_edge10_Node000010_Node000005"><a xlink:title=" ">
<path fill="none" stroke="#63b8ff" d="M533.64,-329.29C524.96,-330.5 516.31,-331.7 508.04,-332.86"/>
<polygon fill="#63b8ff" stroke="#63b8ff" points="534.4,-332.72 543.83,-327.88 533.44,-325.79 534.4,-332.72"/>
</a>
</g>
</g>
<!-- Node13 -->
<g id="Node000013" class="node">
<title>Node13</title>
<g id="a_Node000013"><a xlink:href="classpolyfem_1_1mesh_1_1_c_mesh3_d.html#a9945a67c5e35cdc4c0834a3ac5cdc148" target="_top" xlink:title="attach high order nodes">
<polygon fill="white" stroke="#666666" points="700.5,-260 545.5,-260 545.5,-230 700.5,-230 700.5,-260"/>
<text text-anchor="start" x="553.5" y="-248" font-family="Helvetica,sans-Serif" font-size="10.00">polyfem::mesh::CMesh3D</text>
<text text-anchor="middle" x="623" y="-237" font-family="Helvetica,sans-Serif" font-size="10.00">::attach_higher_order_nodes</text>
</a>
</g>
</g>
<!-- Node12&#45;&gt;Node13 -->
<g id="edge13_Node000012_Node000013" class="edge">
<title>Node12&#45;&gt;Node13</title>
<g id="a_edge13_Node000012_Node000013"><a xlink:title=" ">
<path fill="none" stroke="#63b8ff" d="M760.33,-245C741.15,-245 720.26,-245 700.73,-245"/>
<polygon fill="#63b8ff" stroke="#63b8ff" points="760.49,-248.5 770.49,-245 760.49,-241.5 760.49,-248.5"/>
</a>
</g>
</g>
</g>
</svg>
