<?xml version="1.0" encoding="UTF-8" standalone="no"?>
<!DOCTYPE svg PUBLIC "-//W3C//DTD SVG 1.1//EN"
 "http://www.w3.org/Graphics/SVG/1.1/DTD/svg11.dtd">
<!-- Generated by graphviz version 2.43.0 (0)
 -->
<!-- Title: cppoptlib::SolverWithBoxConstraints::get_max_change Pages: 1 -->
<svg width="582pt" height="104pt"
 viewBox="0.00 0.00 582.00 104.00" xmlns="http://www.w3.org/2000/svg" xmlns:xlink="http://www.w3.org/1999/xlink">
<g id="graph0" class="graph" transform="scale(1 1) rotate(0) translate(4 100)">
<title>cppoptlib::SolverWithBoxConstraints::get_max_change</title>
<!-- Node1 -->
<g id="node1" class="node">
<title>Node1</title>
<g id="a_node1"><a xlink:title=" ">
<polygon fill="#999999" stroke="#666666" points="574,-63 413,-63 413,-33 574,-33 574,-63"/>
<text text-anchor="start" x="421" y="-51" font-family="Helvetica,sans-Serif" font-size="10.00">cppoptlib::SolverWithBox</text>
<text text-anchor="middle" x="493.5" y="-40" font-family="Helvetica,sans-Serif" font-size="10.00">Constraints::get_max_change</text>
</a>
</g>
</g>
<!-- Node2 -->
<g id="node2" class="node">
<title>Node2</title>
<g id="a_node2"><a xlink:href="classcppoptlib_1_1_solver_with_box_constraints.html#a474aecf4e3a86fb8bf2067a85e348934" target="_top" xlink:title=" ">
<polygon fill="white" stroke="#666666" points="376.5,-87 215.5,-87 215.5,-57 376.5,-57 376.5,-87"/>
<text text-anchor="start" x="223.5" y="-75" font-family="Helvetica,sans-Serif" font-size="10.00">cppoptlib::SolverWithBox</text>
<text text-anchor="middle" x="296" y="-64" font-family="Helvetica,sans-Serif" font-size="10.00">Constraints::get_lower_bound</text>
</a>
</g>
</g>
<!-- Node1&#45;&gt;Node2 -->
<g id="edge1" class="edge">
<title>Node1&#45;&gt;Node2</title>
<path fill="none" stroke="#63b8ff" d="M402.83,-59.01C394.14,-60.08 385.35,-61.15 376.76,-62.21"/>
<polygon fill="#63b8ff" stroke="#63b8ff" points="403.48,-62.45 412.98,-57.76 402.63,-55.51 403.48,-62.45"/>
</g>
<!-- Node5 -->
<g id="node5" class="node">
<title>Node5</title>
<g id="a_node5"><a xlink:href="classcppoptlib_1_1_solver_with_box_constraints.html#a616faec5a6adc84f780bbaa4cb146015" target="_top" xlink:title=" ">
<polygon fill="white" stroke="#666666" points="377,-39 215,-39 215,-9 377,-9 377,-39"/>
<text text-anchor="start" x="223" y="-27" font-family="Helvetica,sans-Serif" font-size="10.00">cppoptlib::SolverWithBox</text>
<text text-anchor="middle" x="296" y="-16" font-family="Helvetica,sans-Serif" font-size="10.00">Constraints::get_upper_bound</text>
</a>
</g>
</g>
<!-- Node1&#45;&gt;Node5 -->
<g id="edge5" class="edge">
<title>Node1&#45;&gt;Node5</title>
<path fill="none" stroke="#63b8ff" d="M402.92,-37C394.3,-35.95 385.6,-34.88 377.08,-33.83"/>
<polygon fill="#63b8ff" stroke="#63b8ff" points="402.63,-40.49 412.98,-38.24 403.48,-33.55 402.63,-40.49"/>
</g>
<!-- Node3 -->
<g id="node3" class="node">
<title>Node3</title>
<g id="a_node3"><a xlink:href="classcppoptlib_1_1_solver_with_box_constraints.html#a813dd8590f1bb75580db4c94c36bbd1c" target="_top" xlink:title=" ">
<polygon fill="white" stroke="#666666" points="179,-96 0,-96 0,-66 179,-66 179,-96"/>
<text text-anchor="start" x="8" y="-84" font-family="Helvetica,sans-Serif" font-size="10.00">cppoptlib::SolverWithBox</text>
<text text-anchor="middle" x="89.5" y="-73" font-family="Helvetica,sans-Serif" font-size="10.00">Constraints::compute_grad_norm</text>
</a>
</g>
</g>
<!-- Node2&#45;&gt;Node3 -->
<g id="edge2" class="edge">
<title>Node2&#45;&gt;Node3</title>
<path fill="none" stroke="#63b8ff" d="M205.23,-75.95C196.55,-76.33 187.75,-76.72 179.09,-77.1"/>
<polygon fill="#63b8ff" stroke="#63b8ff" points="205.51,-79.44 215.35,-75.51 205.21,-72.45 205.51,-79.44"/>
</g>
<!-- Node4 -->
<g id="node4" class="node">
<title>Node4</title>
<g id="a_node4"><a xlink:href="classcppoptlib_1_1_l_b_f_g_s_b_solver.html#a6a3f658fd2721c8192eb32f7fb1792a3" target="_top" xlink:title=" ">
<polygon fill="white" stroke="#666666" points="165.5,-30 13.5,-30 13.5,0 165.5,0 165.5,-30"/>
<text text-anchor="start" x="21.5" y="-18" font-family="Helvetica,sans-Serif" font-size="10.00">cppoptlib::LBFGSBSolver</text>
<text text-anchor="middle" x="89.5" y="-7" font-family="Helvetica,sans-Serif" font-size="10.00">::compute_update_direction</text>
</a>
</g>
</g>
<!-- Node2&#45;&gt;Node4 -->
<g id="edge3" class="edge">
<title>Node2&#45;&gt;Node4</title>
<path fill="none" stroke="#63b8ff" d="M231.35,-54.26C203.47,-46.49 171.11,-37.47 144.45,-30.04"/>
<polygon fill="#63b8ff" stroke="#63b8ff" points="230.43,-57.64 241,-56.95 232.31,-50.89 230.43,-57.64"/>
</g>
<!-- Node4&#45;&gt;Node4 -->
<g id="edge4" class="edge">
<title>Node4&#45;&gt;Node4</title>
<path fill="none" stroke="#63b8ff" d="M125.56,-40.6C120.63,-44.97 108.61,-48 89.5,-48 57.31,-48 45.24,-39.41 53.29,-30.28"/>
<polygon fill="#63b8ff" stroke="#63b8ff" points="129.06,-40.33 125.71,-30.28 122.06,-40.22 129.06,-40.33"/>
</g>
<!-- Node5&#45;&gt;Node3 -->
<g id="edge6" class="edge">
<title>Node5&#45;&gt;Node3</title>
<path fill="none" stroke="#63b8ff" d="M232.74,-41.86C215.36,-46.81 196.45,-52.15 179,-57 168.42,-59.94 157.11,-63.04 146.24,-66"/>
<polygon fill="#63b8ff" stroke="#63b8ff" points="234.12,-45.11 242.78,-39 232.2,-38.38 234.12,-45.11"/>
</g>
<!-- Node5&#45;&gt;Node4 -->
<g id="edge7" class="edge">
<title>Node5&#45;&gt;Node4</title>
<path fill="none" stroke="#63b8ff" d="M204.48,-20.02C191.57,-19.45 178.41,-18.87 165.83,-18.32"/>
<polygon fill="#63b8ff" stroke="#63b8ff" points="204.62,-23.53 214.76,-20.47 204.93,-16.53 204.62,-23.53"/>
</g>
</g>
</svg>
