<?xml version="1.0" encoding="UTF-8" standalone="no"?>
<!DOCTYPE svg PUBLIC "-//W3C//DTD SVG 1.1//EN"
 "http://www.w3.org/Graphics/SVG/1.1/DTD/svg11.dtd">
<!-- Generated by graphviz version 2.43.0 (0)
 -->
<!-- Title: polyfem::solver::ParametrizationForm::is_step_collision_free Pages: 1 -->
<svg width="584pt" height="98pt"
 viewBox="0.00 0.00 584.00 97.50" xmlns="http://www.w3.org/2000/svg" xmlns:xlink="http://www.w3.org/1999/xlink">
<g id="graph0" class="graph" transform="scale(1 1) rotate(0) translate(4 93.5)">
<title>polyfem::solver::ParametrizationForm::is_step_collision_free</title>
<!-- Node1 -->
<g id="node1" class="node">
<title>Node1</title>
<g id="a_node1"><a xlink:title="Checks if the step is collision free.">
<polygon fill="#999999" stroke="#666666" points="176,-62.5 0,-62.5 0,-32.5 176,-32.5 176,-62.5"/>
<text text-anchor="start" x="8" y="-50.5" font-family="Helvetica,sans-Serif" font-size="10.00">polyfem::solver::Parametrization</text>
<text text-anchor="middle" x="88" y="-39.5" font-family="Helvetica,sans-Serif" font-size="10.00">Form::is_step_collision_free</text>
</a>
</g>
</g>
<!-- Node2 -->
<g id="node2" class="node">
<title>Node2</title>
<g id="a_node2"><a xlink:href="classpolyfem_1_1solver_1_1_parametrization_form.html#ad3bb3c346b4846bd71a67681fb6b0112" target="_top" xlink:title=" ">
<polygon fill="white" stroke="#666666" points="388,-89.5 212,-89.5 212,-59.5 388,-59.5 388,-89.5"/>
<text text-anchor="start" x="220" y="-77.5" font-family="Helvetica,sans-Serif" font-size="10.00">polyfem::solver::Parametrization</text>
<text text-anchor="middle" x="300" y="-66.5" font-family="Helvetica,sans-Serif" font-size="10.00">Form::apply_parametrizations</text>
</a>
</g>
</g>
<!-- Node1&#45;&gt;Node2 -->
<g id="edge1" class="edge">
<title>Node1&#45;&gt;Node2</title>
<path fill="none" stroke="#63b8ff" d="M176.23,-58.72C184.66,-59.8 193.24,-60.9 201.75,-62"/>
<polygon fill="#63b8ff" stroke="#63b8ff" points="201.33,-65.47 211.7,-63.28 202.23,-58.53 201.33,-65.47"/>
</g>
<!-- Node4 -->
<g id="node4" class="node">
<title>Node4</title>
<g id="a_node4"><a xlink:href="classpolyfem_1_1solver_1_1_parametrization_form.html#a468c9f1f7226f79e176810bd95fd6898" target="_top" xlink:title=" ">
<polygon fill="white" stroke="#666666" points="388,-41 212,-41 212,0 388,0 388,-41"/>
<text text-anchor="start" x="220" y="-29" font-family="Helvetica,sans-Serif" font-size="10.00">polyfem::solver::Parametrization</text>
<text text-anchor="start" x="220" y="-18" font-family="Helvetica,sans-Serif" font-size="10.00">Form::is_step_collision_free</text>
<text text-anchor="middle" x="300" y="-7" font-family="Helvetica,sans-Serif" font-size="10.00">_with_param</text>
</a>
</g>
</g>
<!-- Node1&#45;&gt;Node4 -->
<g id="edge3" class="edge">
<title>Node1&#45;&gt;Node4</title>
<path fill="none" stroke="#63b8ff" d="M176.23,-36.28C184.66,-35.2 193.24,-34.1 201.75,-33"/>
<polygon fill="#63b8ff" stroke="#63b8ff" points="202.23,-36.47 211.7,-31.72 201.33,-29.53 202.23,-36.47"/>
</g>
<!-- Node3 -->
<g id="node3" class="node">
<title>Node3</title>
<g id="a_node3"><a xlink:href="classpolyfem_1_1solver_1_1_composite_parametrization.html#af42e8ffafbdbf4e0f1f253595a5ed543" target="_top" xlink:title=" ">
<polygon fill="white" stroke="#666666" points="576,-89.5 424,-89.5 424,-59.5 576,-59.5 576,-89.5"/>
<text text-anchor="start" x="432" y="-77.5" font-family="Helvetica,sans-Serif" font-size="10.00">polyfem::solver::Composite</text>
<text text-anchor="middle" x="500" y="-66.5" font-family="Helvetica,sans-Serif" font-size="10.00">Parametrization::eval</text>
</a>
</g>
</g>
<!-- Node2&#45;&gt;Node3 -->
<g id="edge2" class="edge">
<title>Node2&#45;&gt;Node3</title>
<path fill="none" stroke="#63b8ff" d="M388.13,-74.5C396.62,-74.5 405.22,-74.5 413.68,-74.5"/>
<polygon fill="#63b8ff" stroke="#63b8ff" points="413.92,-78 423.92,-74.5 413.92,-71 413.92,-78"/>
</g>
</g>
</svg>
