<?xml version="1.0" encoding="UTF-8" standalone="no"?>
<!DOCTYPE svg PUBLIC "-//W3C//DTD SVG 1.1//EN"
 "http://www.w3.org/Graphics/SVG/1.1/DTD/svg11.dtd">
<!-- Generated by graphviz version 2.43.0 (0)
 -->
<!-- Title: polyfem::io::Evaluator::interpolate_at_local_vals Pages: 1 -->
<svg width="1597pt" height="641pt"
 viewBox="0.00 0.00 1597.00 641.42" xmlns="http://www.w3.org/2000/svg" xmlns:xlink="http://www.w3.org/1999/xlink">
<g id="graph0" class="graph" transform="scale(1 1) rotate(0) translate(4 637.42)">
<title>polyfem::io::Evaluator::interpolate_at_local_vals</title>
<!-- Node1 -->
<g id="Node000001" class="node">
<title>Node1</title>
<g id="a_Node000001"><a xlink:title="interpolate solution and gradient at element (calls interpolate_at_local_vals with sol)">
<polygon fill="#999999" stroke="#666666" points="1589,-348.42 1444,-348.42 1444,-318.42 1589,-318.42 1589,-348.42"/>
<text text-anchor="start" x="1452" y="-336.42" font-family="Helvetica,sans-Serif" font-size="10.00">polyfem::io::Evaluator</text>
<text text-anchor="middle" x="1516.5" y="-325.42" font-family="Helvetica,sans-Serif" font-size="10.00">::interpolate_at_local_vals</text>
</a>
</g>
</g>
<!-- Node1&#45;&gt;Node1 -->
<g id="edge18_Node000001_Node000001" class="edge">
<title>Node1&#45;&gt;Node1</title>
<g id="a_edge18_Node000001_Node000001"><a xlink:title=" ">
<path fill="none" stroke="#63b8ff" d="M1552.91,-359.02C1547.93,-363.39 1535.8,-366.42 1516.5,-366.42 1484,-366.42 1471.81,-357.83 1479.94,-348.7"/>
<polygon fill="#63b8ff" stroke="#63b8ff" points="1556.41,-358.75 1553.06,-348.7 1549.41,-358.64 1556.41,-358.75"/>
</a>
</g>
</g>
<!-- Node2 -->
<g id="Node000002" class="node">
<title>Node2</title>
<g id="a_Node000002"><a xlink:href="classpolyfem_1_1solver_1_1_compliance_form.html#aa7ca147a557a1fcb87964a1338090afa" target="_top" xlink:title=" ">
<polygon fill="white" stroke="#666666" points="1408,-633.42 1209,-633.42 1209,-603.42 1408,-603.42 1408,-633.42"/>
<text text-anchor="start" x="1217" y="-621.42" font-family="Helvetica,sans-Serif" font-size="10.00">polyfem::solver::Compliance</text>
<text text-anchor="middle" x="1308.5" y="-610.42" font-family="Helvetica,sans-Serif" font-size="10.00">Form::compute_partial_gradient_step</text>
</a>
</g>
</g>
<!-- Node1&#45;&gt;Node2 -->
<g id="edge1_Node000001_Node000002" class="edge">
<title>Node1&#45;&gt;Node2</title>
<g id="a_edge1_Node000001_Node000002"><a xlink:title=" ">
<path fill="none" stroke="#63b8ff" d="M1512.67,-358.61C1505.42,-410.89 1481.24,-531.53 1408,-594.42 1403.99,-597.86 1399.57,-600.83 1394.89,-603.38"/>
<polygon fill="#63b8ff" stroke="#63b8ff" points="1516.16,-358.9 1513.97,-348.54 1509.22,-358 1516.16,-358.9"/>
</a>
</g>
</g>
<!-- Node3 -->
<g id="Node000003" class="node">
<title>Node3</title>
<g id="a_Node000003"><a xlink:href="classpolyfem_1_1solver_1_1_elastic_force_derivative.html#aa8331c70fd1ece12a1f9dbccffcefadc" target="_top" xlink:title=" ">
<polygon fill="white" stroke="#666666" points="1374,-584.92 1243,-584.92 1243,-543.92 1374,-543.92 1374,-584.92"/>
<text text-anchor="start" x="1251" y="-572.92" font-family="Helvetica,sans-Serif" font-size="10.00">polyfem::solver::Elastic</text>
<text text-anchor="start" x="1251" y="-561.92" font-family="Helvetica,sans-Serif" font-size="10.00">ForceDerivative::force</text>
<text text-anchor="middle" x="1308.5" y="-550.92" font-family="Helvetica,sans-Serif" font-size="10.00">_material_derivative</text>
</a>
</g>
</g>
<!-- Node1&#45;&gt;Node3 -->
<g id="edge2_Node000001_Node000003" class="edge">
<title>Node1&#45;&gt;Node3</title>
<g id="a_edge2_Node000001_Node000003"><a xlink:title=" ">
<path fill="none" stroke="#63b8ff" d="M1509.13,-358.26C1496.9,-400.93 1466.04,-488.09 1408,-535.42 1398.19,-543.42 1386.25,-549.21 1374.1,-553.41"/>
<polygon fill="#63b8ff" stroke="#63b8ff" points="1512.56,-359 1511.84,-348.42 1505.81,-357.13 1512.56,-359"/>
</a>
</g>
</g>
<!-- Node4 -->
<g id="Node000004" class="node">
<title>Node4</title>
<g id="a_Node000004"><a xlink:href="classpolyfem_1_1solver_1_1_body_force_derivative.html#ac063113b76ba6a452c13febc6a6f4688" target="_top" xlink:title=" ">
<polygon fill="white" stroke="#666666" points="1383.5,-525.92 1233.5,-525.92 1233.5,-484.92 1383.5,-484.92 1383.5,-525.92"/>
<text text-anchor="start" x="1241.5" y="-513.92" font-family="Helvetica,sans-Serif" font-size="10.00">polyfem::solver::BodyForce</text>
<text text-anchor="start" x="1241.5" y="-502.92" font-family="Helvetica,sans-Serif" font-size="10.00">Derivative::force_shape</text>
<text text-anchor="middle" x="1308.5" y="-491.92" font-family="Helvetica,sans-Serif" font-size="10.00">_derivative</text>
</a>
</g>
</g>
<!-- Node1&#45;&gt;Node4 -->
<g id="edge3_Node000001_Node000004" class="edge">
<title>Node1&#45;&gt;Node4</title>
<g id="a_edge3_Node000001_Node000004"><a xlink:title=" ">
<path fill="none" stroke="#63b8ff" d="M1503.67,-357.57C1486.81,-389.48 1452.87,-445.31 1408,-476.42 1400.6,-481.55 1392.29,-485.79 1383.71,-489.28"/>
<polygon fill="#63b8ff" stroke="#63b8ff" points="1506.89,-358.97 1508.35,-348.48 1500.66,-355.77 1506.89,-358.97"/>
</a>
</g>
</g>
<!-- Node5 -->
<g id="Node000005" class="node">
<title>Node5</title>
<g id="a_Node000005"><a xlink:href="classpolyfem_1_1solver_1_1_inertia_force_derivative.html#aa50450cc6f276a8bcd0beb9476165463" target="_top" xlink:title=" ">
<polygon fill="white" stroke="#666666" points="1374,-466.92 1243,-466.92 1243,-425.92 1374,-425.92 1374,-466.92"/>
<text text-anchor="start" x="1251" y="-454.92" font-family="Helvetica,sans-Serif" font-size="10.00">polyfem::solver::Inertia</text>
<text text-anchor="start" x="1251" y="-443.92" font-family="Helvetica,sans-Serif" font-size="10.00">ForceDerivative::force</text>
<text text-anchor="middle" x="1308.5" y="-432.92" font-family="Helvetica,sans-Serif" font-size="10.00">_shape_derivative</text>
</a>
</g>
</g>
<!-- Node1&#45;&gt;Node5 -->
<g id="edge4_Node000001_Node000005" class="edge">
<title>Node1&#45;&gt;Node5</title>
<g id="a_edge4_Node000001_Node000005"><a xlink:title=" ">
<path fill="none" stroke="#63b8ff" d="M1492.48,-355.66C1471.85,-374.49 1439.99,-400.98 1408,-417.42 1397.46,-422.84 1385.74,-427.4 1374.18,-431.18"/>
<polygon fill="#63b8ff" stroke="#63b8ff" points="1495.13,-357.97 1500.08,-348.6 1490.37,-352.84 1495.13,-357.97"/>
</a>
</g>
</g>
<!-- Node6 -->
<g id="Node000006" class="node">
<title>Node6</title>
<g id="a_Node000006"><a xlink:href="classpolyfem_1_1solver_1_1_elastic_force_derivative.html#ad5a53b25b80f891c176629da132f477f" target="_top" xlink:title=" ">
<polygon fill="white" stroke="#666666" points="1374,-407.92 1243,-407.92 1243,-366.92 1374,-366.92 1374,-407.92"/>
<text text-anchor="start" x="1251" y="-395.92" font-family="Helvetica,sans-Serif" font-size="10.00">polyfem::solver::Elastic</text>
<text text-anchor="start" x="1251" y="-384.92" font-family="Helvetica,sans-Serif" font-size="10.00">ForceDerivative::force</text>
<text text-anchor="middle" x="1308.5" y="-373.92" font-family="Helvetica,sans-Serif" font-size="10.00">_shape_derivative</text>
</a>
</g>
</g>
<!-- Node1&#45;&gt;Node6 -->
<g id="edge5_Node000001_Node000006" class="edge">
<title>Node1&#45;&gt;Node6</title>
<g id="a_edge5_Node000001_Node000006"><a xlink:title=" ">
<path fill="none" stroke="#63b8ff" d="M1448.13,-351.08C1424.37,-357.31 1397.72,-364.29 1374.19,-370.46"/>
<polygon fill="#63b8ff" stroke="#63b8ff" points="1449.33,-354.39 1458.12,-348.46 1447.56,-347.61 1449.33,-354.39"/>
</a>
</g>
</g>
<!-- Node7 -->
<g id="Node000007" class="node">
<title>Node7</title>
<g id="a_Node000007"><a xlink:href="classpolyfem_1_1solver_1_1_kinetic_form.html#ad9d8857439d3f591216d375aace7b1d5" target="_top" xlink:title=" ">
<polygon fill="white" stroke="#666666" points="1388.5,-348.42 1228.5,-348.42 1228.5,-318.42 1388.5,-318.42 1388.5,-348.42"/>
<text text-anchor="start" x="1236.5" y="-336.42" font-family="Helvetica,sans-Serif" font-size="10.00">polyfem::solver::Kinetic</text>
<text text-anchor="middle" x="1308.5" y="-325.42" font-family="Helvetica,sans-Serif" font-size="10.00">Form::get_integral_functional</text>
</a>
</g>
</g>
<!-- Node1&#45;&gt;Node7 -->
<g id="edge6_Node000001_Node000007" class="edge">
<title>Node1&#45;&gt;Node7</title>
<g id="a_edge6_Node000001_Node000007"><a xlink:title=" ">
<path fill="none" stroke="#63b8ff" d="M1433.62,-333.42C1418.84,-333.42 1403.45,-333.42 1388.74,-333.42"/>
<polygon fill="#63b8ff" stroke="#63b8ff" points="1433.74,-336.92 1443.74,-333.42 1433.74,-329.92 1433.74,-336.92"/>
</a>
</g>
</g>
<!-- Node8 -->
<g id="Node000008" class="node">
<title>Node8</title>
<g id="a_Node000008"><a xlink:href="classpolyfem_1_1solver_1_1_target_form.html#a3d5ef3814ac921658a55bbc521755e26" target="_top" xlink:title=" ">
<polygon fill="white" stroke="#666666" points="1385.5,-300.42 1231.5,-300.42 1231.5,-270.42 1385.5,-270.42 1385.5,-300.42"/>
<text text-anchor="start" x="1239.5" y="-288.42" font-family="Helvetica,sans-Serif" font-size="10.00">polyfem::solver::TargetForm</text>
<text text-anchor="middle" x="1308.5" y="-277.42" font-family="Helvetica,sans-Serif" font-size="10.00">::get_integral_functional</text>
</a>
</g>
</g>
<!-- Node1&#45;&gt;Node8 -->
<g id="edge7_Node000001_Node000008" class="edge">
<title>Node1&#45;&gt;Node8</title>
<g id="a_edge7_Node000001_Node000008"><a xlink:title=" ">
<path fill="none" stroke="#63b8ff" d="M1440.94,-316.05C1418.98,-310.93 1395.15,-305.38 1373.89,-300.42"/>
<polygon fill="#63b8ff" stroke="#63b8ff" points="1440.35,-319.51 1450.89,-318.37 1441.94,-312.69 1440.35,-319.51"/>
</a>
</g>
</g>
<!-- Node9 -->
<g id="Node000009" class="node">
<title>Node9</title>
<g id="a_Node000009"><a xlink:href="classpolyfem_1_1io_1_1_evaluator.html#af34a8367f9c2e1ae2c11fa01af320f91" target="_top" xlink:title=" ">
<polygon fill="white" stroke="#666666" points="1371,-252.42 1246,-252.42 1246,-222.42 1371,-222.42 1371,-252.42"/>
<text text-anchor="start" x="1254" y="-240.42" font-family="Helvetica,sans-Serif" font-size="10.00">polyfem::io::Evaluator</text>
<text text-anchor="middle" x="1308.5" y="-229.42" font-family="Helvetica,sans-Serif" font-size="10.00">::integrate_function</text>
</a>
</g>
</g>
<!-- Node1&#45;&gt;Node9 -->
<g id="edge8_Node000001_Node000009" class="edge">
<title>Node1&#45;&gt;Node9</title>
<g id="a_edge8_Node000001_Node000009"><a xlink:title=" ">
<path fill="none" stroke="#63b8ff" d="M1489.22,-311.96C1468.35,-295.9 1437.82,-274.54 1408,-261.42 1396.4,-256.32 1383.53,-252.19 1371.03,-248.88"/>
<polygon fill="#63b8ff" stroke="#63b8ff" points="1487.23,-314.85 1497.27,-318.26 1491.55,-309.34 1487.23,-314.85"/>
</a>
</g>
</g>
<!-- Node17 -->
<g id="Node000017" class="node">
<title>Node17</title>
<g id="a_Node000017"><a xlink:href="namespacepolyfem_1_1solver_1_1_adjoint_tools.html#a4c93693417aa7c2cf7f03e5bd0ac03dd" target="_top" xlink:title=" ">
<polygon fill="white" stroke="#666666" points="1379.5,-108.42 1237.5,-108.42 1237.5,-78.42 1379.5,-78.42 1379.5,-108.42"/>
<text text-anchor="start" x="1245.5" y="-96.42" font-family="Helvetica,sans-Serif" font-size="10.00">polyfem::solver::Adjoint</text>
<text text-anchor="middle" x="1308.5" y="-85.42" font-family="Helvetica,sans-Serif" font-size="10.00">Tools::integrate_objective</text>
</a>
</g>
</g>
<!-- Node1&#45;&gt;Node17 -->
<g id="edge16_Node000001_Node000017" class="edge">
<title>Node1&#45;&gt;Node17</title>
<g id="a_edge16_Node000001_Node000017"><a xlink:title=" ">
<path fill="none" stroke="#63b8ff" d="M1510.35,-308.5C1499.64,-263.19 1470.57,-167.4 1408,-117.42 1399.68,-110.78 1389.79,-105.93 1379.54,-102.41"/>
<polygon fill="#63b8ff" stroke="#63b8ff" points="1506.96,-309.39 1512.58,-318.37 1513.79,-307.85 1506.96,-309.39"/>
</a>
</g>
</g>
<!-- Node19 -->
<g id="Node000019" class="node">
<title>Node19</title>
<g id="a_Node000019"><a xlink:href="classpolyfem_1_1io_1_1_out_geometry_data.html#af0647359b2ab723d8543452884e673a9" target="_top" xlink:title="saves the surface vtu file for for surface quantites, eg traction forces">
<polygon fill="white" stroke="#666666" points="1380.5,-204.42 1236.5,-204.42 1236.5,-174.42 1380.5,-174.42 1380.5,-204.42"/>
<text text-anchor="start" x="1244.5" y="-192.42" font-family="Helvetica,sans-Serif" font-size="10.00">polyfem::io::OutGeometry</text>
<text text-anchor="middle" x="1308.5" y="-181.42" font-family="Helvetica,sans-Serif" font-size="10.00">Data::save_surface</text>
</a>
</g>
</g>
<!-- Node1&#45;&gt;Node19 -->
<g id="edge19_Node000001_Node000019" class="edge">
<title>Node1&#45;&gt;Node19</title>
<g id="a_edge19_Node000001_Node000019"><a xlink:title=" ">
<path fill="none" stroke="#63b8ff" d="M1500.71,-309.63C1482.37,-282.18 1448.53,-237.7 1408,-213.42 1399.62,-208.4 1390.24,-204.43 1380.7,-201.29"/>
<polygon fill="#63b8ff" stroke="#63b8ff" points="1497.93,-311.77 1506.32,-318.24 1503.79,-307.95 1497.93,-311.77"/>
</a>
</g>
</g>
<!-- Node31 -->
<g id="Node000031" class="node">
<title>Node31</title>
<g id="a_Node000031"><a xlink:href="classpolyfem_1_1io_1_1_out_geometry_data.html#a938439e2cebaf08e7d5e0437c603164e" target="_top" xlink:title="saves the volume vtu file">
<polygon fill="white" stroke="#666666" points="1380.5,-156.42 1236.5,-156.42 1236.5,-126.42 1380.5,-126.42 1380.5,-156.42"/>
<text text-anchor="start" x="1244.5" y="-144.42" font-family="Helvetica,sans-Serif" font-size="10.00">polyfem::io::OutGeometry</text>
<text text-anchor="middle" x="1308.5" y="-133.42" font-family="Helvetica,sans-Serif" font-size="10.00">Data::save_volume</text>
</a>
</g>
</g>
<!-- Node1&#45;&gt;Node31 -->
<g id="edge40_Node000001_Node000031" class="edge">
<title>Node1&#45;&gt;Node31</title>
<g id="a_edge40_Node000001_Node000031"><a xlink:title=" ">
<path fill="none" stroke="#63b8ff" d="M1506.69,-308.82C1492.11,-271.78 1459.38,-202.13 1408,-165.42 1399.84,-159.59 1390.42,-155.17 1380.73,-151.81"/>
<polygon fill="#63b8ff" stroke="#63b8ff" points="1503.49,-310.25 1510.32,-318.35 1510.03,-307.76 1503.49,-310.25"/>
</a>
</g>
</g>
<!-- Node10 -->
<g id="Node000010" class="node">
<title>Node10</title>
<g id="a_Node000010"><a xlink:href="classpolyfem_1_1_state.html#a522ef58603ee14b96c728f82a2944177" target="_top" xlink:title="In Elasticity PDE, solve for &quot;min W(disp_grad + \grad u)&quot; instead of &quot;min W(\grad u)&quot;.">
<polygon fill="white" stroke="#666666" points="928.5,-284.42 801.5,-284.42 801.5,-254.42 928.5,-254.42 928.5,-284.42"/>
<text text-anchor="start" x="809.5" y="-272.42" font-family="Helvetica,sans-Serif" font-size="10.00">polyfem::State::solve</text>
<text text-anchor="middle" x="865" y="-261.42" font-family="Helvetica,sans-Serif" font-size="10.00">_homogenization_step</text>
</a>
</g>
</g>
<!-- Node9&#45;&gt;Node10 -->
<g id="edge9_Node000009_Node000010" class="edge">
<title>Node9&#45;&gt;Node10</title>
<g id="a_edge9_Node000009_Node000010"><a xlink:title=" ">
<path fill="none" stroke="#63b8ff" d="M1235.82,-244.81C1215.53,-246.78 1193.41,-248.8 1173,-250.42 1088.49,-257.12 990.74,-262.82 928.66,-266.18"/>
<polygon fill="#63b8ff" stroke="#63b8ff" points="1236.33,-248.28 1245.94,-243.82 1235.64,-241.31 1236.33,-248.28"/>
</a>
</g>
</g>
<!-- Node16 -->
<g id="Node000016" class="node">
<title>Node16</title>
<g id="a_Node000016"><a xlink:href="classpolyfem_1_1_state.html#a8f98351c1e4b95631484d92dc9ba6bb3" target="_top" xlink:title="Solve the linear problem with the given solver and system.">
<polygon fill="white" stroke="#666666" points="1133.5,-241.42 1012.5,-241.42 1012.5,-211.42 1133.5,-211.42 1133.5,-241.42"/>
<text text-anchor="start" x="1020.5" y="-229.42" font-family="Helvetica,sans-Serif" font-size="10.00">polyfem::State::solve</text>
<text text-anchor="middle" x="1073" y="-218.42" font-family="Helvetica,sans-Serif" font-size="10.00">_linear</text>
</a>
</g>
</g>
<!-- Node9&#45;&gt;Node16 -->
<g id="edge15_Node000009_Node000016" class="edge">
<title>Node9&#45;&gt;Node16</title>
<g id="a_edge15_Node000009_Node000016"><a xlink:title=" ">
<path fill="none" stroke="#63b8ff" d="M1235.45,-234.03C1202.77,-232.49 1164.6,-230.69 1133.58,-229.23"/>
<polygon fill="#63b8ff" stroke="#63b8ff" points="1235.69,-237.54 1245.85,-234.52 1236.02,-230.55 1235.69,-237.54"/>
</a>
</g>
</g>
<!-- Node11 -->
<g id="Node000011" class="node">
<title>Node11</title>
<g id="a_Node000011"><a xlink:href="classpolyfem_1_1_state.html#af575faba770a261cb0398a98f0a752b9" target="_top" xlink:title=" ">
<polygon fill="white" stroke="#666666" points="578.5,-284.42 457.5,-284.42 457.5,-254.42 578.5,-254.42 578.5,-284.42"/>
<text text-anchor="start" x="465.5" y="-272.42" font-family="Helvetica,sans-Serif" font-size="10.00">polyfem::State::solve</text>
<text text-anchor="middle" x="518" y="-261.42" font-family="Helvetica,sans-Serif" font-size="10.00">_homogenization</text>
</a>
</g>
</g>
<!-- Node10&#45;&gt;Node11 -->
<g id="edge10_Node000010_Node000011" class="edge">
<title>Node10&#45;&gt;Node11</title>
<g id="a_edge10_Node000010_Node000011"><a xlink:title=" ">
<path fill="none" stroke="#63b8ff" d="M790.83,-269.42C727.62,-269.42 637.43,-269.42 578.56,-269.42"/>
<polygon fill="#63b8ff" stroke="#63b8ff" points="791.12,-272.92 801.12,-269.42 791.12,-265.92 791.12,-272.92"/>
</a>
</g>
</g>
<!-- Node12 -->
<g id="Node000012" class="node">
<title>Node12</title>
<g id="a_Node000012"><a xlink:href="classpolyfem_1_1_state.html#aa8dffa9c5caf8ca5082a6814e1c8ed36" target="_top" xlink:title="solves the problems">
<polygon fill="white" stroke="#666666" points="384,-164.42 263,-164.42 263,-134.42 384,-134.42 384,-164.42"/>
<text text-anchor="start" x="271" y="-152.42" font-family="Helvetica,sans-Serif" font-size="10.00">polyfem::State::solve</text>
<text text-anchor="middle" x="323.5" y="-141.42" font-family="Helvetica,sans-Serif" font-size="10.00">_problem</text>
</a>
</g>
</g>
<!-- Node11&#45;&gt;Node12 -->
<g id="edge11_Node000011_Node000012" class="edge">
<title>Node11&#45;&gt;Node12</title>
<g id="a_edge11_Node000011_Node000012"><a xlink:title=" ">
<path fill="none" stroke="#63b8ff" d="M447.79,-251.13C443.73,-249.37 439.77,-247.48 436,-245.42 396.09,-223.65 357.77,-185.74 338.13,-164.66"/>
<polygon fill="#63b8ff" stroke="#63b8ff" points="446.84,-254.51 457.42,-254.95 449.42,-248.01 446.84,-254.51"/>
</a>
</g>
</g>
<!-- Node13 -->
<g id="Node000013" class="node">
<title>Node13</title>
<g id="a_Node000013"><a xlink:href="main_8cpp.html#aec889c702a246ad7f332c75ab7adb438" target="_top" xlink:title=" ">
<polygon fill="white" stroke="#666666" points="199.5,-91.92 88.5,-91.92 88.5,-72.92 199.5,-72.92 199.5,-91.92"/>
<text text-anchor="middle" x="144" y="-79.92" font-family="Helvetica,sans-Serif" font-size="10.00">forward_simulation</text>
</a>
</g>
</g>
<!-- Node12&#45;&gt;Node13 -->
<g id="edge12_Node000012_Node000013" class="edge">
<title>Node12&#45;&gt;Node13</title>
<g id="a_edge12_Node000012_Node000013"><a xlink:title=" ">
<path fill="none" stroke="#63b8ff" d="M273.06,-130.76C239.62,-118.14 196.85,-101.99 170.18,-91.93"/>
<polygon fill="#63b8ff" stroke="#63b8ff" points="272.07,-134.13 282.67,-134.39 274.55,-127.58 272.07,-134.13"/>
</a>
</g>
</g>
<!-- Node15 -->
<g id="Node000015" class="node">
<title>Node15</title>
<g id="a_Node000015"><a xlink:href="structpolyfem_1_1solver_1_1_adjoint_opt_utils.html#acac3e8ce8646ddd1544ed034c71bec96" target="_top" xlink:title=" ">
<polygon fill="white" stroke="#666666" points="211,-164.42 77,-164.42 77,-134.42 211,-134.42 211,-164.42"/>
<text text-anchor="start" x="85" y="-152.42" font-family="Helvetica,sans-Serif" font-size="10.00">polyfem::solver::Adjoint</text>
<text text-anchor="middle" x="144" y="-141.42" font-family="Helvetica,sans-Serif" font-size="10.00">OptUtils::solve_pde</text>
</a>
</g>
</g>
<!-- Node12&#45;&gt;Node15 -->
<g id="edge14_Node000012_Node000015" class="edge">
<title>Node12&#45;&gt;Node15</title>
<g id="a_edge14_Node000012_Node000015"><a xlink:title=" ">
<path fill="none" stroke="#63b8ff" d="M252.61,-149.42C238.96,-149.42 224.68,-149.42 211.16,-149.42"/>
<polygon fill="#63b8ff" stroke="#63b8ff" points="252.9,-152.92 262.9,-149.42 252.9,-145.92 252.9,-152.92"/>
</a>
</g>
</g>
<!-- Node14 -->
<g id="Node000014" class="node">
<title>Node14</title>
<g id="a_Node000014"><a xlink:href="main_8cpp.html#a3c04138a5bfe5d72780bb7e82a18e627" target="_top" xlink:title=" ">
<polygon fill="white" stroke="#666666" points="41,-91.92 0,-91.92 0,-72.92 41,-72.92 41,-91.92"/>
<text text-anchor="middle" x="20.5" y="-79.92" font-family="Helvetica,sans-Serif" font-size="10.00">main</text>
</a>
</g>
</g>
<!-- Node13&#45;&gt;Node14 -->
<g id="edge13_Node000013_Node000014" class="edge">
<title>Node13&#45;&gt;Node14</title>
<g id="a_edge13_Node000013_Node000014"><a xlink:title=" ">
<path fill="none" stroke="#63b8ff" d="M77.97,-82.42C64.49,-82.42 51.29,-82.42 41.05,-82.42"/>
<polygon fill="#63b8ff" stroke="#63b8ff" points="78.29,-85.92 88.29,-82.42 78.29,-78.92 78.29,-85.92"/>
</a>
</g>
</g>
<!-- Node18 -->
<g id="Node000018" class="node">
<title>Node18</title>
<g id="a_Node000018"><a xlink:href="classpolyfem_1_1solver_1_1_spatial_integral_form.html#ac5641105d5303178b79b4c23ef0d7387" target="_top" xlink:title=" ">
<polygon fill="white" stroke="#666666" points="1173,-108.42 973,-108.42 973,-78.42 1173,-78.42 1173,-108.42"/>
<text text-anchor="start" x="981" y="-96.42" font-family="Helvetica,sans-Serif" font-size="10.00">polyfem::solver::Spatial</text>
<text text-anchor="middle" x="1073" y="-85.42" font-family="Helvetica,sans-Serif" font-size="10.00">IntegralForm::value_unweighted_step</text>
</a>
</g>
</g>
<!-- Node17&#45;&gt;Node18 -->
<g id="edge17_Node000017_Node000018" class="edge">
<title>Node17&#45;&gt;Node18</title>
<g id="a_edge17_Node000017_Node000018"><a xlink:title=" ">
<path fill="none" stroke="#63b8ff" d="M1227.36,-93.42C1209.97,-93.42 1191.38,-93.42 1173.36,-93.42"/>
<polygon fill="#63b8ff" stroke="#63b8ff" points="1227.44,-96.92 1237.44,-93.42 1227.44,-89.92 1227.44,-96.92"/>
</a>
</g>
</g>
<!-- Node20 -->
<g id="Node000020" class="node">
<title>Node20</title>
<g id="a_Node000020"><a xlink:href="classpolyfem_1_1io_1_1_out_geometry_data.html#ab6ebc8d7951c52d2ce07506306b63ea0" target="_top" xlink:title="saves the vtu file for time t">
<polygon fill="white" stroke="#666666" points="1145,-177.42 1001,-177.42 1001,-147.42 1145,-147.42 1145,-177.42"/>
<text text-anchor="start" x="1009" y="-165.42" font-family="Helvetica,sans-Serif" font-size="10.00">polyfem::io::OutGeometry</text>
<text text-anchor="middle" x="1073" y="-154.42" font-family="Helvetica,sans-Serif" font-size="10.00">Data::save_vtu</text>
</a>
</g>
</g>
<!-- Node19&#45;&gt;Node20 -->
<g id="edge20_Node000019_Node000020" class="edge">
<title>Node19&#45;&gt;Node20</title>
<g id="a_edge20_Node000019_Node000020"><a xlink:title=" ">
<path fill="none" stroke="#63b8ff" d="M1226.48,-180.05C1199.99,-176.99 1170.78,-173.61 1145.07,-170.64"/>
<polygon fill="#63b8ff" stroke="#63b8ff" points="1226.16,-183.54 1236.49,-181.21 1226.96,-176.59 1226.16,-183.54"/>
</a>
</g>
</g>
<!-- Node21 -->
<g id="Node000021" class="node">
<title>Node21</title>
<g id="a_Node000021"><a xlink:href="classpolyfem_1_1io_1_1_out_geometry_data.html#ae5fdb256636278dc9d47358e202aba22" target="_top" xlink:title="exports everytihng, txt, vtu, etc">
<polygon fill="white" stroke="#666666" points="937,-62.42 793,-62.42 793,-32.42 937,-32.42 937,-62.42"/>
<text text-anchor="start" x="801" y="-50.42" font-family="Helvetica,sans-Serif" font-size="10.00">polyfem::io::OutGeometry</text>
<text text-anchor="middle" x="865" y="-39.42" font-family="Helvetica,sans-Serif" font-size="10.00">Data::export_data</text>
</a>
</g>
</g>
<!-- Node20&#45;&gt;Node21 -->
<g id="edge21_Node000020_Node000021" class="edge">
<title>Node20&#45;&gt;Node21</title>
<g id="a_edge21_Node000020_Node000021"><a xlink:title=" ">
<path fill="none" stroke="#63b8ff" d="M1025.52,-143.05C1008.7,-135.58 989.73,-126.63 973,-117.42 942.08,-100.41 908.29,-77.53 887.13,-62.63"/>
<polygon fill="#63b8ff" stroke="#63b8ff" points="1024.58,-146.46 1035.14,-147.26 1027.39,-140.05 1024.58,-146.46"/>
</a>
</g>
</g>
<!-- Node23 -->
<g id="Node000023" class="node">
<title>Node23</title>
<g id="a_Node000023"><a xlink:href="classpolyfem_1_1_state.html#a29b1283c20475e19b79a39cd324ac5aa" target="_top" xlink:title="saves a subsolve when save_solve_sequence_debug is true">
<polygon fill="white" stroke="#666666" points="924,-234.42 806,-234.42 806,-204.42 924,-204.42 924,-234.42"/>
<text text-anchor="start" x="814" y="-222.42" font-family="Helvetica,sans-Serif" font-size="10.00">polyfem::State::save</text>
<text text-anchor="middle" x="865" y="-211.42" font-family="Helvetica,sans-Serif" font-size="10.00">_subsolve</text>
</a>
</g>
</g>
<!-- Node20&#45;&gt;Node23 -->
<g id="edge24_Node000020_Node000023" class="edge">
<title>Node20&#45;&gt;Node23</title>
<g id="a_edge24_Node000020_Node000023"><a xlink:title=" ">
<path fill="none" stroke="#63b8ff" d="M1007.88,-180.16C979.8,-187.93 947.2,-196.95 920.34,-204.39"/>
<polygon fill="#63b8ff" stroke="#63b8ff" points="1008.9,-183.51 1017.61,-177.47 1007.04,-176.77 1008.9,-183.51"/>
</a>
</g>
</g>
<!-- Node26 -->
<g id="Node000026" class="node">
<title>Node26</title>
<g id="a_Node000026"><a xlink:href="classpolyfem_1_1_state.html#a442fa686e1d08a0a104f3869a6fa2948" target="_top" xlink:title="saves a timestep">
<polygon fill="white" stroke="#666666" points="755.5,-177.42 637.5,-177.42 637.5,-147.42 755.5,-147.42 755.5,-177.42"/>
<text text-anchor="start" x="645.5" y="-165.42" font-family="Helvetica,sans-Serif" font-size="10.00">polyfem::State::save</text>
<text text-anchor="middle" x="696.5" y="-154.42" font-family="Helvetica,sans-Serif" font-size="10.00">_timestep</text>
</a>
</g>
</g>
<!-- Node20&#45;&gt;Node26 -->
<g id="edge29_Node000020_Node000026" class="edge">
<title>Node20&#45;&gt;Node26</title>
<g id="a_edge29_Node000020_Node000026"><a xlink:title=" ">
<path fill="none" stroke="#63b8ff" d="M990.45,-162.42C919.56,-162.42 818.63,-162.42 755.66,-162.42"/>
<polygon fill="#63b8ff" stroke="#63b8ff" points="990.68,-165.92 1000.68,-162.42 990.68,-158.92 990.68,-165.92"/>
</a>
</g>
</g>
<!-- Node22 -->
<g id="Node000022" class="node">
<title>Node22</title>
<g id="a_Node000022"><a xlink:href="classpolyfem_1_1_state.html#acc61dcd623eec2308480c5c082da3d9e" target="_top" xlink:title="saves all data on the disk according to the input params">
<polygon fill="white" stroke="#666666" points="400,-43.92 247,-43.92 247,-24.92 400,-24.92 400,-43.92"/>
<text text-anchor="middle" x="323.5" y="-31.92" font-family="Helvetica,sans-Serif" font-size="10.00">polyfem::State::export_data</text>
</a>
</g>
</g>
<!-- Node21&#45;&gt;Node22 -->
<g id="edge22_Node000021_Node000022" class="edge">
<title>Node21&#45;&gt;Node22</title>
<g id="a_edge22_Node000021_Node000022"><a xlink:title=" ">
<path fill="none" stroke="#63b8ff" d="M791.3,-30.33C706.03,-12.59 560.49,10.5 436,-5.42 407.23,-9.1 375.28,-17.92 352.98,-24.87"/>
<polygon fill="#63b8ff" stroke="#63b8ff" points="790.63,-33.77 801.14,-32.41 792.08,-26.92 790.63,-33.77"/>
</a>
</g>
</g>
<!-- Node22&#45;&gt;Node13 -->
<g id="edge23_Node000022_Node000013" class="edge">
<title>Node22&#45;&gt;Node13</title>
<g id="a_edge23_Node000022_Node000013"><a xlink:title=" ">
<path fill="none" stroke="#63b8ff" d="M277.18,-46.68C247.12,-54.81 208.23,-65.32 180.43,-72.84"/>
<polygon fill="#63b8ff" stroke="#63b8ff" points="278.27,-50.01 287.01,-44.02 276.44,-43.25 278.27,-50.01"/>
</a>
</g>
</g>
<!-- Node24 -->
<g id="Node000024" class="node">
<title>Node24</title>
<g id="a_Node000024"><a xlink:href="classpolyfem_1_1_state.html#a5f52fc1a97ba3abe95d80868ab22a949" target="_top" xlink:title="solves nonlinear problems">
<polygon fill="white" stroke="#666666" points="757,-236.42 636,-236.42 636,-206.42 757,-206.42 757,-236.42"/>
<text text-anchor="start" x="644" y="-224.42" font-family="Helvetica,sans-Serif" font-size="10.00">polyfem::State::solve</text>
<text text-anchor="middle" x="696.5" y="-213.42" font-family="Helvetica,sans-Serif" font-size="10.00">_tensor_nonlinear</text>
</a>
</g>
</g>
<!-- Node23&#45;&gt;Node24 -->
<g id="edge25_Node000023_Node000024" class="edge">
<title>Node23&#45;&gt;Node24</title>
<g id="a_edge25_Node000023_Node000024"><a xlink:title=" ">
<path fill="none" stroke="#63b8ff" d="M795.64,-220.24C782.86,-220.4 769.6,-220.56 757.11,-220.71"/>
<polygon fill="#63b8ff" stroke="#63b8ff" points="795.81,-223.74 805.77,-220.12 795.73,-216.74 795.81,-223.74"/>
</a>
</g>
</g>
<!-- Node24&#45;&gt;Node12 -->
<g id="edge26_Node000024_Node000012" class="edge">
<title>Node24&#45;&gt;Node12</title>
<g id="a_edge26_Node000024_Node000012"><a xlink:title=" ">
<path fill="none" stroke="#63b8ff" d="M674.2,-244.05C656.29,-261.3 629.03,-283.71 600,-293.42 530.88,-316.56 501.44,-325.52 436,-293.42 380.08,-265.99 344.19,-195.51 330.63,-164.47"/>
<polygon fill="#63b8ff" stroke="#63b8ff" points="677.12,-246.08 681.74,-236.55 672.18,-241.12 677.12,-246.08"/>
</a>
</g>
</g>
<!-- Node25 -->
<g id="Node000025" class="node">
<title>Node25</title>
<g id="a_Node000025"><a xlink:href="classpolyfem_1_1_state.html#a581a91ee028c3d6376f9f0db39194ff3" target="_top" xlink:title="solves transient tensor nonlinear problem">
<polygon fill="white" stroke="#666666" points="594,-236.42 442,-236.42 442,-206.42 594,-206.42 594,-236.42"/>
<text text-anchor="start" x="450" y="-224.42" font-family="Helvetica,sans-Serif" font-size="10.00">polyfem::State::solve</text>
<text text-anchor="middle" x="518" y="-213.42" font-family="Helvetica,sans-Serif" font-size="10.00">_transient_tensor_nonlinear</text>
</a>
</g>
</g>
<!-- Node24&#45;&gt;Node25 -->
<g id="edge27_Node000024_Node000025" class="edge">
<title>Node24&#45;&gt;Node25</title>
<g id="a_edge27_Node000024_Node000025"><a xlink:title=" ">
<path fill="none" stroke="#63b8ff" d="M625.53,-221.42C615.18,-221.42 604.48,-221.42 594.03,-221.42"/>
<polygon fill="#63b8ff" stroke="#63b8ff" points="625.75,-224.92 635.75,-221.42 625.75,-217.92 625.75,-224.92"/>
</a>
</g>
</g>
<!-- Node25&#45;&gt;Node12 -->
<g id="edge28_Node000025_Node000012" class="edge">
<title>Node25&#45;&gt;Node12</title>
<g id="a_edge28_Node000025_Node000012"><a xlink:title=" ">
<path fill="none" stroke="#63b8ff" d="M452.97,-203.22C447.21,-201.35 441.48,-199.4 436,-197.42 408.85,-187.59 378.83,-174.54 356.78,-164.52"/>
<polygon fill="#63b8ff" stroke="#63b8ff" points="452.09,-206.61 462.68,-206.3 454.21,-199.94 452.09,-206.61"/>
</a>
</g>
</g>
<!-- Node26&#45;&gt;Node11 -->
<g id="edge32_Node000026_Node000011" class="edge">
<title>Node26&#45;&gt;Node11</title>
<g id="a_edge32_Node000026_Node000011"><a xlink:title=" ">
<path fill="none" stroke="#63b8ff" d="M655.82,-182.77C648.87,-187.15 641.97,-192.09 636,-197.42 616.12,-215.2 621.89,-230.2 600,-245.42 593.5,-249.94 586.13,-253.63 578.56,-256.62"/>
<polygon fill="#63b8ff" stroke="#63b8ff" points="657.79,-185.67 664.57,-177.54 654.19,-179.67 657.79,-185.67"/>
</a>
</g>
</g>
<!-- Node26&#45;&gt;Node25 -->
<g id="edge39_Node000026_Node000025" class="edge">
<title>Node26&#45;&gt;Node25</title>
<g id="a_edge39_Node000026_Node000025"><a xlink:title=" ">
<path fill="none" stroke="#63b8ff" d="M646.66,-181C631.75,-186.48 615.26,-192.37 600,-197.42 590.81,-200.46 580.98,-203.53 571.44,-206.41"/>
<polygon fill="#63b8ff" stroke="#63b8ff" points="648.04,-184.22 656.2,-177.46 645.61,-177.65 648.04,-184.22"/>
</a>
</g>
</g>
<!-- Node27 -->
<g id="Node000027" class="node">
<title>Node27</title>
<g id="a_Node000027"><a xlink:href="classpolyfem_1_1_state.html#aaa1977089bd41efb9edca92038b74b74" target="_top" xlink:title="initialize solver">
<polygon fill="white" stroke="#666666" points="573,-188.42 463,-188.42 463,-158.42 573,-158.42 573,-188.42"/>
<text text-anchor="start" x="471" y="-176.42" font-family="Helvetica,sans-Serif" font-size="10.00">polyfem::State::init</text>
<text text-anchor="middle" x="518" y="-165.42" font-family="Helvetica,sans-Serif" font-size="10.00">_solve</text>
</a>
</g>
</g>
<!-- Node26&#45;&gt;Node27 -->
<g id="edge30_Node000026_Node000027" class="edge">
<title>Node26&#45;&gt;Node27</title>
<g id="a_edge30_Node000026_Node000027"><a xlink:title=" ">
<path fill="none" stroke="#63b8ff" d="M627.11,-166.68C609.18,-167.8 590.1,-168.99 573.04,-170.05"/>
<polygon fill="#63b8ff" stroke="#63b8ff" points="627.46,-170.17 637.22,-166.05 627.02,-163.18 627.46,-170.17"/>
</a>
</g>
</g>
<!-- Node28 -->
<g id="Node000028" class="node">
<title>Node28</title>
<g id="a_Node000028"><a xlink:href="classpolyfem_1_1_state.html#aaba89b1d3992dfda9b02df4447914f18" target="_top" xlink:title="solves transient linear problem">
<polygon fill="white" stroke="#666666" points="578.5,-140.42 457.5,-140.42 457.5,-110.42 578.5,-110.42 578.5,-140.42"/>
<text text-anchor="start" x="465.5" y="-128.42" font-family="Helvetica,sans-Serif" font-size="10.00">polyfem::State::solve</text>
<text text-anchor="middle" x="518" y="-117.42" font-family="Helvetica,sans-Serif" font-size="10.00">_transient_linear</text>
</a>
</g>
</g>
<!-- Node26&#45;&gt;Node28 -->
<g id="edge33_Node000026_Node000028" class="edge">
<title>Node26&#45;&gt;Node28</title>
<g id="a_edge33_Node000026_Node000028"><a xlink:title=" ">
<path fill="none" stroke="#63b8ff" d="M627.37,-148.14C611.34,-144.78 594.37,-141.22 578.73,-137.94"/>
<polygon fill="#63b8ff" stroke="#63b8ff" points="626.71,-151.58 637.22,-150.2 628.15,-144.73 626.71,-151.58"/>
</a>
</g>
</g>
<!-- Node29 -->
<g id="Node000029" class="node">
<title>Node29</title>
<g id="a_Node000029"><a xlink:href="classpolyfem_1_1_state.html#ada934cc34fae787ec506a812c65e13b5" target="_top" xlink:title="solves transient navier stokes with FEM">
<polygon fill="white" stroke="#666666" points="587,-92.42 449,-92.42 449,-62.42 587,-62.42 587,-92.42"/>
<text text-anchor="start" x="457" y="-80.42" font-family="Helvetica,sans-Serif" font-size="10.00">polyfem::State::solve</text>
<text text-anchor="middle" x="518" y="-69.42" font-family="Helvetica,sans-Serif" font-size="10.00">_transient_navier_stokes</text>
</a>
</g>
</g>
<!-- Node26&#45;&gt;Node29 -->
<g id="edge35_Node000026_Node000029" class="edge">
<title>Node26&#45;&gt;Node29</title>
<g id="a_edge35_Node000026_Node000029"><a xlink:title=" ">
<path fill="none" stroke="#63b8ff" d="M667.12,-141.29C648.73,-128.38 623.84,-112.3 600,-101.42 592.8,-98.13 585.03,-95.16 577.25,-92.53"/>
<polygon fill="#63b8ff" stroke="#63b8ff" points="665.42,-144.38 675.59,-147.34 669.48,-138.68 665.42,-144.38"/>
</a>
</g>
</g>
<!-- Node30 -->
<g id="Node000030" class="node">
<title>Node30</title>
<g id="a_Node000030"><a xlink:href="classpolyfem_1_1_state.html#aa708cfe19c264bb75b86dead580bb593" target="_top" xlink:title="solves transient navier stokes with operator splitting">
<polygon fill="white" stroke="#666666" points="600,-44.42 436,-44.42 436,-14.42 600,-14.42 600,-44.42"/>
<text text-anchor="start" x="444" y="-32.42" font-family="Helvetica,sans-Serif" font-size="10.00">polyfem::State::solve</text>
<text text-anchor="middle" x="518" y="-21.42" font-family="Helvetica,sans-Serif" font-size="10.00">_transient_navier_stokes_split</text>
</a>
</g>
</g>
<!-- Node26&#45;&gt;Node30 -->
<g id="edge37_Node000026_Node000030" class="edge">
<title>Node26&#45;&gt;Node30</title>
<g id="a_edge37_Node000026_Node000030"><a xlink:title=" ">
<path fill="none" stroke="#63b8ff" d="M680.79,-138.87C664.12,-114.09 634.72,-75.66 600,-53.42 594.69,-50.02 588.88,-47.08 582.88,-44.55"/>
<polygon fill="#63b8ff" stroke="#63b8ff" points="677.92,-140.89 686.34,-147.33 683.78,-137.05 677.92,-140.89"/>
</a>
</g>
</g>
<!-- Node27&#45;&gt;Node12 -->
<g id="edge31_Node000027_Node000012" class="edge">
<title>Node27&#45;&gt;Node12</title>
<g id="a_edge31_Node000027_Node000012"><a xlink:title=" ">
<path fill="none" stroke="#63b8ff" d="M452.9,-165.43C430.77,-162.67 406.08,-159.59 384.31,-156.88"/>
<polygon fill="#63b8ff" stroke="#63b8ff" points="452.51,-168.91 462.87,-166.67 453.38,-161.96 452.51,-168.91"/>
</a>
</g>
</g>
<!-- Node28&#45;&gt;Node12 -->
<g id="edge34_Node000028_Node000012" class="edge">
<title>Node28&#45;&gt;Node12</title>
<g id="a_edge34_Node000028_Node000012"><a xlink:title=" ">
<path fill="none" stroke="#63b8ff" d="M447.4,-134.1C426.68,-136.68 404.17,-139.49 384.14,-141.99"/>
<polygon fill="#63b8ff" stroke="#63b8ff" points="447.92,-137.56 457.41,-132.85 447.05,-130.62 447.92,-137.56"/>
</a>
</g>
</g>
<!-- Node29&#45;&gt;Node12 -->
<g id="edge36_Node000029_Node000012" class="edge">
<title>Node29&#45;&gt;Node12</title>
<g id="a_edge36_Node000029_Node000012"><a xlink:title=" ">
<path fill="none" stroke="#63b8ff" d="M452.97,-95.62C447.21,-97.49 441.48,-99.44 436,-101.42 408.85,-111.25 378.83,-124.3 356.78,-134.32"/>
<polygon fill="#63b8ff" stroke="#63b8ff" points="454.21,-98.9 462.68,-92.55 452.09,-92.23 454.21,-98.9"/>
</a>
</g>
</g>
<!-- Node30&#45;&gt;Node12 -->
<g id="edge38_Node000030_Node000012" class="edge">
<title>Node30&#45;&gt;Node12</title>
<g id="a_edge38_Node000030_Node000012"><a xlink:title=" ">
<path fill="none" stroke="#63b8ff" d="M446.24,-48.4C442.72,-49.96 439.28,-51.63 436,-53.42 396.09,-75.2 357.77,-113.1 338.13,-134.18"/>
<polygon fill="#63b8ff" stroke="#63b8ff" points="447.78,-51.55 455.71,-44.53 445.13,-45.07 447.78,-51.55"/>
</a>
</g>
</g>
<!-- Node31&#45;&gt;Node20 -->
<g id="edge41_Node000031_Node000020" class="edge">
<title>Node31&#45;&gt;Node20</title>
<g id="a_edge41_Node000031_Node000020"><a xlink:title=" ">
<path fill="none" stroke="#63b8ff" d="M1226.48,-148.71C1199.99,-151.09 1170.78,-153.72 1145.07,-156.03"/>
<polygon fill="#63b8ff" stroke="#63b8ff" points="1226.85,-152.19 1236.49,-147.81 1226.22,-145.22 1226.85,-152.19"/>
</a>
</g>
</g>
</g>
</svg>
