<?xml version="1.0" encoding="UTF-8" standalone="no"?>
<!DOCTYPE svg PUBLIC "-//W3C//DTD SVG 1.1//EN"
 "http://www.w3.org/Graphics/SVG/1.1/DTD/svg11.dtd">
<!-- Generated by graphviz version 2.43.0 (0)
 -->
<!-- Title: polyfem::mesh::NCMesh2D::find_vertex Pages: 1 -->
<svg width="904pt" height="228pt"
 viewBox="0.00 0.00 904.00 228.00" xmlns="http://www.w3.org/2000/svg" xmlns:xlink="http://www.w3.org/1999/xlink">
<g id="graph0" class="graph" transform="scale(1 1) rotate(0) translate(4 224)">
<title>polyfem::mesh::NCMesh2D::find_vertex</title>
<!-- Node1 -->
<g id="Node000001" class="node">
<title>Node1</title>
<g id="a_Node000001"><a xlink:title=" ">
<polygon fill="#999999" stroke="#666666" points="896,-139 746,-139 746,-109 896,-109 896,-139"/>
<text text-anchor="start" x="754" y="-127" font-family="Helvetica,sans-Serif" font-size="10.00">polyfem::mesh::NCMesh2D</text>
<text text-anchor="middle" x="821" y="-116" font-family="Helvetica,sans-Serif" font-size="10.00">::find_vertex</text>
</a>
</g>
</g>
<!-- Node2 -->
<g id="Node000002" class="node">
<title>Node2</title>
<g id="a_Node000002"><a xlink:href="classpolyfem_1_1mesh_1_1_n_c_mesh2_d.html#a7fe3840c16e9baa681957c54c2ccf519" target="_top" xlink:title=" ">
<polygon fill="white" stroke="#666666" points="710,-182 560,-182 560,-152 710,-152 710,-182"/>
<text text-anchor="start" x="568" y="-170" font-family="Helvetica,sans-Serif" font-size="10.00">polyfem::mesh::NCMesh2D</text>
<text text-anchor="middle" x="635" y="-159" font-family="Helvetica,sans-Serif" font-size="10.00">::get_vertex</text>
</a>
</g>
</g>
<!-- Node1&#45;&gt;Node2 -->
<g id="edge1_Node000001_Node000002" class="edge">
<title>Node1&#45;&gt;Node2</title>
<g id="a_edge1_Node000001_Node000002"><a xlink:title=" ">
<path fill="none" stroke="#63b8ff" d="M745.85,-141.33C730.77,-144.85 715.02,-148.53 700.32,-151.97"/>
<polygon fill="#63b8ff" stroke="#63b8ff" points="746.7,-144.72 755.65,-139.04 745.11,-137.91 746.7,-144.72"/>
</a>
</g>
</g>
<!-- Node3 -->
<g id="Node000003" class="node">
<title>Node3</title>
<g id="a_Node000003"><a xlink:href="classpolyfem_1_1mesh_1_1_n_c_mesh2_d.html#a50e382eaf326b016c28ddffc49ff4f87" target="_top" xlink:title=" ">
<polygon fill="white" stroke="#666666" points="523,-160 373,-160 373,-130 523,-130 523,-160"/>
<text text-anchor="start" x="381" y="-148" font-family="Helvetica,sans-Serif" font-size="10.00">polyfem::mesh::NCMesh2D</text>
<text text-anchor="middle" x="448" y="-137" font-family="Helvetica,sans-Serif" font-size="10.00">::refine_element</text>
</a>
</g>
</g>
<!-- Node1&#45;&gt;Node3 -->
<g id="edge6_Node000001_Node000003" class="edge">
<title>Node1&#45;&gt;Node3</title>
<g id="a_edge6_Node000001_Node000003"><a xlink:title=" ">
<path fill="none" stroke="#63b8ff" d="M735.74,-128.77C671.7,-132.39 584.44,-137.33 523.06,-140.81"/>
<polygon fill="#63b8ff" stroke="#63b8ff" points="736.03,-132.26 745.81,-128.2 735.63,-125.27 736.03,-132.26"/>
</a>
</g>
</g>
<!-- Node6 -->
<g id="Node000006" class="node">
<title>Node6</title>
<g id="a_Node000006"><a xlink:href="classpolyfem_1_1mesh_1_1_n_c_mesh2_d.html#a0ac595eaf33c30457af5511fae019652" target="_top" xlink:title=" ">
<polygon fill="white" stroke="#666666" points="710,-78 560,-78 560,-48 710,-48 710,-78"/>
<text text-anchor="start" x="568" y="-66" font-family="Helvetica,sans-Serif" font-size="10.00">polyfem::mesh::NCMesh2D</text>
<text text-anchor="middle" x="635" y="-55" font-family="Helvetica,sans-Serif" font-size="10.00">::traverse_edge</text>
</a>
</g>
</g>
<!-- Node1&#45;&gt;Node6 -->
<g id="edge7_Node000001_Node000006" class="edge">
<title>Node1&#45;&gt;Node6</title>
<g id="a_edge7_Node000001_Node000006"><a xlink:title=" ">
<path fill="none" stroke="#63b8ff" d="M764.93,-105.74C738.23,-96.89 706.55,-86.39 681.28,-78.01"/>
<polygon fill="#63b8ff" stroke="#63b8ff" points="763.92,-109.1 774.52,-108.92 766.13,-102.45 763.92,-109.1"/>
</a>
</g>
</g>
<!-- Node2&#45;&gt;Node3 -->
<g id="edge2_Node000002_Node000003" class="edge">
<title>Node2&#45;&gt;Node3</title>
<g id="a_edge2_Node000002_Node000003"><a xlink:title=" ">
<path fill="none" stroke="#63b8ff" d="M549.84,-156.99C540.96,-155.94 531.96,-154.87 523.2,-153.82"/>
<polygon fill="#63b8ff" stroke="#63b8ff" points="549.48,-160.47 559.82,-158.18 550.3,-153.52 549.48,-160.47"/>
</a>
</g>
</g>
<!-- Node4 -->
<g id="Node000004" class="node">
<title>Node4</title>
<g id="a_Node000004"><a xlink:href="classpolyfem_1_1mesh_1_1_n_c_mesh2_d.html#a9803efa9b0a6b35ce5ccf61152e545c4" target="_top" xlink:title="refine the mesh">
<polygon fill="white" stroke="#666666" points="336,-202 186,-202 186,-172 336,-172 336,-202"/>
<text text-anchor="start" x="194" y="-190" font-family="Helvetica,sans-Serif" font-size="10.00">polyfem::mesh::NCMesh2D</text>
<text text-anchor="middle" x="261" y="-179" font-family="Helvetica,sans-Serif" font-size="10.00">::refine</text>
</a>
</g>
</g>
<!-- Node3&#45;&gt;Node4 -->
<g id="edge3_Node000003_Node000004" class="edge">
<title>Node3&#45;&gt;Node4</title>
<g id="a_edge3_Node000003_Node000004"><a xlink:title=" ">
<path fill="none" stroke="#63b8ff" d="M370.58,-162.35C356.48,-165.55 341.87,-168.87 328.11,-171.99"/>
<polygon fill="#63b8ff" stroke="#63b8ff" points="371.76,-165.67 380.73,-160.04 370.21,-158.85 371.76,-165.67"/>
</a>
</g>
</g>
<!-- Node5 -->
<g id="Node000005" class="node">
<title>Node5</title>
<g id="a_Node000005"><a xlink:href="classpolyfem_1_1mesh_1_1_n_c_mesh2_d.html#a3c09d41233578a9401ece6f8c5dd4205" target="_top" xlink:title=" ">
<polygon fill="white" stroke="#666666" points="336,-154 186,-154 186,-124 336,-124 336,-154"/>
<text text-anchor="start" x="194" y="-142" font-family="Helvetica,sans-Serif" font-size="10.00">polyfem::mesh::NCMesh2D</text>
<text text-anchor="middle" x="261" y="-131" font-family="Helvetica,sans-Serif" font-size="10.00">::refine_elements</text>
</a>
</g>
</g>
<!-- Node3&#45;&gt;Node5 -->
<g id="edge5_Node000003_Node000005" class="edge">
<title>Node3&#45;&gt;Node5</title>
<g id="a_edge5_Node000003_Node000005"><a xlink:title=" ">
<path fill="none" stroke="#63b8ff" d="M362.56,-142.26C353.76,-141.98 344.87,-141.69 336.2,-141.41"/>
<polygon fill="#63b8ff" stroke="#63b8ff" points="362.71,-145.77 372.82,-142.59 362.94,-138.77 362.71,-145.77"/>
</a>
</g>
</g>
<!-- Node4&#45;&gt;Node4 -->
<g id="edge4_Node000004_Node000004" class="edge">
<title>Node4&#45;&gt;Node4</title>
<g id="a_edge4_Node000004_Node000004"><a xlink:title=" ">
<path fill="none" stroke="#63b8ff" d="M293.21,-212.6C288.81,-216.97 278.07,-220 261,-220 232.25,-220 221.47,-211.41 228.66,-202.28"/>
<polygon fill="#63b8ff" stroke="#63b8ff" points="296.71,-212.32 293.34,-202.28 289.71,-212.23 296.71,-212.32"/>
</a>
</g>
</g>
<!-- Node6&#45;&gt;Node6 -->
<g id="edge13_Node000006_Node000006" class="edge">
<title>Node6&#45;&gt;Node6</title>
<g id="a_edge13_Node000006_Node000006"><a xlink:title=" ">
<path fill="none" stroke="#63b8ff" d="M667.56,-88.6C663.11,-92.97 652.26,-96 635,-96 605.94,-96 595.04,-87.41 602.3,-78.28"/>
<polygon fill="#63b8ff" stroke="#63b8ff" points="671.06,-88.32 667.7,-78.28 664.06,-88.23 671.06,-88.32"/>
</a>
</g>
</g>
<!-- Node7 -->
<g id="Node000007" class="node">
<title>Node7</title>
<g id="a_Node000007"><a xlink:href="classpolyfem_1_1mesh_1_1_n_c_mesh2_d.html#a41e7b485ae2a79a4885e693095d2310a" target="_top" xlink:title=" ">
<polygon fill="white" stroke="#666666" points="524,-78 372,-78 372,-48 524,-48 524,-78"/>
<text text-anchor="start" x="380" y="-66" font-family="Helvetica,sans-Serif" font-size="10.00">polyfem::mesh::NCMesh2D</text>
<text text-anchor="middle" x="448" y="-55" font-family="Helvetica,sans-Serif" font-size="10.00">::build_edge_follower_chain</text>
</a>
</g>
</g>
<!-- Node6&#45;&gt;Node7 -->
<g id="edge8_Node000006_Node000007" class="edge">
<title>Node6&#45;&gt;Node7</title>
<g id="a_edge8_Node000006_Node000007"><a xlink:title=" ">
<path fill="none" stroke="#63b8ff" d="M549.82,-63C541.24,-63 532.57,-63 524.1,-63"/>
<polygon fill="#63b8ff" stroke="#63b8ff" points="549.82,-66.5 559.82,-63 549.82,-59.5 549.82,-66.5"/>
</a>
</g>
</g>
<!-- Node8 -->
<g id="Node000008" class="node">
<title>Node8</title>
<g id="a_Node000008"><a xlink:href="classpolyfem_1_1mesh_1_1_n_c_mesh2_d.html#a3cd34600a9e9a3d853c79c05634cbb5b" target="_top" xlink:title="method used to finalize the mesh.">
<polygon fill="white" stroke="#666666" points="336,-78 186,-78 186,-48 336,-48 336,-78"/>
<text text-anchor="start" x="194" y="-66" font-family="Helvetica,sans-Serif" font-size="10.00">polyfem::mesh::NCMesh2D</text>
<text text-anchor="middle" x="261" y="-55" font-family="Helvetica,sans-Serif" font-size="10.00">::prepare_mesh</text>
</a>
</g>
</g>
<!-- Node7&#45;&gt;Node8 -->
<g id="edge9_Node000007_Node000008" class="edge">
<title>Node7&#45;&gt;Node8</title>
<g id="a_edge9_Node000007_Node000008"><a xlink:title=" ">
<path fill="none" stroke="#63b8ff" d="M361.53,-63C353.1,-63 344.59,-63 336.28,-63"/>
<polygon fill="#63b8ff" stroke="#63b8ff" points="361.75,-66.5 371.75,-63 361.75,-59.5 361.75,-66.5"/>
</a>
</g>
</g>
<!-- Node9 -->
<g id="Node000009" class="node">
<title>Node9</title>
<g id="a_Node000009"><a xlink:href="classpolyfem_1_1mesh_1_1_n_c_mesh2_d.html#afd97e7ed4b7749c221374490f775c9b8" target="_top" xlink:title="appends a new mesh to the end of this">
<polygon fill="white" stroke="#666666" points="150,-126 0,-126 0,-96 150,-96 150,-126"/>
<text text-anchor="start" x="8" y="-114" font-family="Helvetica,sans-Serif" font-size="10.00">polyfem::mesh::NCMesh2D</text>
<text text-anchor="middle" x="75" y="-103" font-family="Helvetica,sans-Serif" font-size="10.00">::append</text>
</a>
</g>
</g>
<!-- Node8&#45;&gt;Node9 -->
<g id="edge10_Node000008_Node000009" class="edge">
<title>Node8&#45;&gt;Node9</title>
<g id="a_edge10_Node000008_Node000009"><a xlink:title=" ">
<path fill="none" stroke="#63b8ff" d="M192.61,-80.58C173.22,-85.64 152.25,-91.11 133.51,-96"/>
<polygon fill="#63b8ff" stroke="#63b8ff" points="193.49,-83.97 202.29,-78.06 191.73,-77.19 193.49,-83.97"/>
</a>
</g>
</g>
<!-- Node10 -->
<g id="Node000010" class="node">
<title>Node10</title>
<g id="a_Node000010"><a xlink:href="classpolyfem_1_1mesh_1_1_n_c_mesh2_d.html#ac7b8983d229e887ea539afb8ea597dcd" target="_top" xlink:title="build a mesh from matrices">
<polygon fill="white" stroke="#666666" points="150,-78 0,-78 0,-48 150,-48 150,-78"/>
<text text-anchor="start" x="8" y="-66" font-family="Helvetica,sans-Serif" font-size="10.00">polyfem::mesh::NCMesh2D</text>
<text text-anchor="middle" x="75" y="-55" font-family="Helvetica,sans-Serif" font-size="10.00">::build_from_matrices</text>
</a>
</g>
</g>
<!-- Node8&#45;&gt;Node10 -->
<g id="edge11_Node000008_Node000010" class="edge">
<title>Node8&#45;&gt;Node10</title>
<g id="a_edge11_Node000008_Node000010"><a xlink:title=" ">
<path fill="none" stroke="#63b8ff" d="M175.93,-63C167.35,-63 158.66,-63 150.19,-63"/>
<polygon fill="#63b8ff" stroke="#63b8ff" points="175.96,-66.5 185.96,-63 175.96,-59.5 175.96,-66.5"/>
</a>
</g>
</g>
<!-- Node11 -->
<g id="Node000011" class="node">
<title>Node11</title>
<g id="a_Node000011"><a xlink:href="classpolyfem_1_1mesh_1_1_n_c_mesh2_d.html#aac372b606bae27f5f08af1cfdbfc4a22" target="_top" xlink:title="loads a mesh from a geo mesh">
<polygon fill="white" stroke="#666666" points="150,-30 0,-30 0,0 150,0 150,-30"/>
<text text-anchor="start" x="8" y="-18" font-family="Helvetica,sans-Serif" font-size="10.00">polyfem::mesh::NCMesh2D</text>
<text text-anchor="middle" x="75" y="-7" font-family="Helvetica,sans-Serif" font-size="10.00">::load</text>
</a>
</g>
</g>
<!-- Node8&#45;&gt;Node11 -->
<g id="edge12_Node000008_Node000011" class="edge">
<title>Node8&#45;&gt;Node11</title>
<g id="a_edge12_Node000008_Node000011"><a xlink:title=" ">
<path fill="none" stroke="#63b8ff" d="M192.61,-45.42C173.22,-40.36 152.25,-34.89 133.51,-30"/>
<polygon fill="#63b8ff" stroke="#63b8ff" points="191.73,-48.81 202.29,-47.94 193.49,-42.03 191.73,-48.81"/>
</a>
</g>
</g>
</g>
</svg>
