<?xml version="1.0" encoding="UTF-8" standalone="no"?>
<!DOCTYPE svg PUBLIC "-//W3C//DTD SVG 1.1//EN"
 "http://www.w3.org/Graphics/SVG/1.1/DTD/svg11.dtd">
<!-- Generated by graphviz version 2.43.0 (0)
 -->
<!-- Title: polyfem::solver::PeriodicContactForceDerivative::force_shape_derivative Pages: 1 -->
<!--zoomable 414 -->

<svg id="main" version="1.1" xmlns="http://www.w3.org/2000/svg" xmlns:xlink="http://www.w3.org/1999/xlink" xml:space="preserve" onload="init(evt)">
<style type="text/css"><![CDATA[
.node, .edge {opacity: 0.7;}
.node.selected, .edge.selected {opacity: 1;}
.edge:hover path { stroke: red; }
.edge:hover polygon { stroke: red; fill: red; }
]]></style>

<defs>
  <circle id="rim" cx="0" cy="0" r="7"/>
  <circle id="rim2" cx="0" cy="0" r="3.5"/>
  <g id="zoomPlus">
    <use xlink:href="#rim" fill="#404040"><set attributeName="fill" to="#808080" begin="zoomplus.mouseover" end="zoomplus.mouseout"/></use>
    <path d="M-4,0h8M0,-4v8" fill="none" stroke="white" stroke-width="1.5" pointer-events="none"/>
  </g>
  <g id="zoomMin">
    <use xlink:href="#rim" fill="#404040"><set attributeName="fill" to="#808080" begin="zoomminus.mouseover" end="zoomminus.mouseout"/></use>
    <path d="M-4,0h8" fill="none" stroke="white" stroke-width="1.5" pointer-events="none"/>
  </g>
  <g id="arrowUp" transform="translate(30 24)">
    <use xlink:href="#rim"/>
    <path pointer-events="none" fill="none" stroke="white" stroke-width="1.5" d="M0,-3.0v7 M-2.5,-0.5L0,-3.0L2.5,-0.5"/>
  </g>
  <g id="arrowRight" transform="rotate(90) translate(36 -43)">
    <use xlink:href="#rim"/>
    <path pointer-events="none" fill="none" stroke="white" stroke-width="1.5" d="M0,-3.0v7 M-2.5,-0.5L0,-3.0L2.5,-0.5"/>
  </g>
  <g id="arrowDown" transform="rotate(180) translate(-30 -48)">
    <use xlink:href="#rim"/>
    <path pointer-events="none" fill="none" stroke="white" stroke-width="1.5" d="M0,-3.0v7 M-2.5,-0.5L0,-3.0L2.5,-0.5"/>
  </g>
  <g id="arrowLeft" transform="rotate(270) translate(-36 17)">
    <use xlink:href="#rim"/>
    <path pointer-events="none" fill="none" stroke="white" stroke-width="1.5" d="M0,-3.0v7 M-2.5,-0.5L0,-3.0L2.5,-0.5"/>
  </g>
  <g id="resetDef">
    <use xlink:href="#rim2" fill="#404040"><set attributeName="fill" to="#808080" begin="reset.mouseover" end="reset.mouseout"/></use>
  </g>
</defs>
<script type="application/ecmascript">
var viewWidth = 669;
var viewHeight = 414;
var sectionId = 'dynsection-0';
</script>
<script type="application/ecmascript" xlink:href="svg.min.js"/>
<svg id="graph" class="graph">
<g id="viewport">
<title>polyfem::solver::PeriodicContactForceDerivative::force_shape_derivative</title>
<!-- Node1 -->
<g id="Node000001" class="node">
<title>Node1</title>
<g id="a_Node000001"><a xlink:title=" ">
<polygon fill="#999999" stroke="#666666" points="138,-222.5 0,-222.5 0,-181.5 138,-181.5 138,-222.5"/>
<text text-anchor="start" x="8" y="-210.5" font-family="Helvetica,sans-Serif" font-size="10.00">polyfem::solver::Periodic</text>
<text text-anchor="start" x="8" y="-199.5" font-family="Helvetica,sans-Serif" font-size="10.00">ContactForceDerivative</text>
<text text-anchor="middle" x="69" y="-188.5" font-family="Helvetica,sans-Serif" font-size="10.00">::force_shape_derivative</text>
</a>
</g>
</g>
<!-- Node2 -->
<g id="Node000002" class="node">
<title>Node2</title>
<g id="a_Node000002"><a xlink:href="classpolyfem_1_1solver_1_1_barrier_contact_form.html#a5985007152c78163f48893d7e4f89a4b" target="_top" xlink:title=" ">
<polygon fill="white" stroke="#666666" points="341.5,-406 175.5,-406 175.5,-376 341.5,-376 341.5,-406"/>
<text text-anchor="start" x="183.5" y="-394" font-family="Helvetica,sans-Serif" font-size="10.00">polyfem::solver::Barrier</text>
<text text-anchor="middle" x="258.5" y="-383" font-family="Helvetica,sans-Serif" font-size="10.00">ContactForm::barrier_potential</text>
</a>
</g>
</g>
<!-- Node1&#45;&gt;Node2 -->
<g id="edge1_Node000001_Node000002" class="edge">
<title>Node1&#45;&gt;Node2</title>
<g id="a_edge1_Node000001_Node000002"><a xlink:title=" ">
<path fill="none" stroke="#63b8ff" d="M77.34,-222.65C90.87,-257.71 123.1,-328.77 174,-367 175.86,-368.4 177.8,-369.72 179.81,-370.96"/>
<polygon fill="#63b8ff" stroke="#63b8ff" points="178.49,-374.22 188.94,-375.92 181.83,-368.07 178.49,-374.22"/>
</a>
</g>
</g>
<!-- Node3 -->
<g id="Node000003" class="node">
<title>Node3</title>
<g id="a_Node000003"><a xlink:href="classpolyfem_1_1_diff_cache.html#aa59ccc8e8a6558380de5adfde77a8713" target="_top" xlink:title=" ">
<polygon fill="white" stroke="#666666" points="343,-358 174,-358 174,-328 343,-328 343,-358"/>
<text text-anchor="start" x="182" y="-346" font-family="Helvetica,sans-Serif" font-size="10.00">polyfem::DiffCache</text>
<text text-anchor="middle" x="258.5" y="-335" font-family="Helvetica,sans-Serif" font-size="10.00">::basis_nodes_to_gbasis_nodes</text>
</a>
</g>
</g>
<!-- Node1&#45;&gt;Node3 -->
<g id="edge2_Node000001_Node000003" class="edge">
<title>Node1&#45;&gt;Node3</title>
<g id="a_edge2_Node000001_Node000003"><a xlink:title=" ">
<path fill="none" stroke="#63b8ff" d="M82.86,-222.57C100.32,-248.81 133.99,-293.8 174,-319 176.74,-320.73 179.62,-322.34 182.58,-323.83"/>
<polygon fill="#63b8ff" stroke="#63b8ff" points="181.12,-327.01 191.67,-327.98 184.03,-320.65 181.12,-327.01"/>
</a>
</g>
</g>
<!-- Node4 -->
<g id="Node000004" class="node">
<title>Node4</title>
<g id="a_Node000004"><a xlink:href="classpolyfem_1_1solver_1_1_contact_form.html#a41111805fab863090ce87259bb024995" target="_top" xlink:title="Compute the displaced positions of the surface nodes.">
<polygon fill="white" stroke="#666666" points="329.5,-309.5 187.5,-309.5 187.5,-268.5 329.5,-268.5 329.5,-309.5"/>
<text text-anchor="start" x="195.5" y="-297.5" font-family="Helvetica,sans-Serif" font-size="10.00">polyfem::solver::Contact</text>
<text text-anchor="start" x="195.5" y="-286.5" font-family="Helvetica,sans-Serif" font-size="10.00">Form::compute_displaced</text>
<text text-anchor="middle" x="258.5" y="-275.5" font-family="Helvetica,sans-Serif" font-size="10.00">_surface</text>
</a>
</g>
</g>
<!-- Node1&#45;&gt;Node4 -->
<g id="edge3_Node000001_Node000004" class="edge">
<title>Node1&#45;&gt;Node4</title>
<g id="a_edge3_Node000001_Node000004"><a xlink:title=" ">
<path fill="none" stroke="#63b8ff" d="M109.7,-222.63C128.97,-232.44 152.53,-244.15 174,-254 181.6,-257.49 189.64,-261.04 197.62,-264.47"/>
<polygon fill="#63b8ff" stroke="#63b8ff" points="196.36,-267.74 206.93,-268.44 199.1,-261.3 196.36,-267.74"/>
</a>
</g>
</g>
<!-- Node5 -->
<g id="Node000005" class="node">
<title>Node5</title>
<g id="a_Node000005"><a xlink:href="namespacepolyfem_1_1utils.html#aafdbbff4a81a4fcba11129097b1109e5" target="_top" xlink:title="Unflatten rowwises, so every dim elements in x become a row.">
<polygon fill="white" stroke="#666666" points="513,-273.5 379,-273.5 379,-254.5 513,-254.5 513,-273.5"/>
<text text-anchor="middle" x="446" y="-261.5" font-family="Helvetica,sans-Serif" font-size="10.00">polyfem::utils::unflatten</text>
</a>
</g>
</g>
<!-- Node1&#45;&gt;Node5 -->
<g id="edge11_Node000001_Node000005" class="edge">
<title>Node1&#45;&gt;Node5</title>
<g id="a_edge11_Node000001_Node000005"><a xlink:title=" ">
<path fill="none" stroke="#63b8ff" d="M138.21,-214.7C150.13,-216.85 162.42,-219.02 174,-221 241.08,-232.45 317.69,-244.51 372.3,-252.94"/>
<polygon fill="#63b8ff" stroke="#63b8ff" points="371.81,-256.4 382.23,-254.47 372.88,-249.48 371.81,-256.4"/>
</a>
</g>
</g>
<!-- Node6 -->
<g id="Node000006" class="node">
<title>Node6</title>
<g id="a_Node000006"><a xlink:href="namespacepolyfem_1_1utils.html#adac090350174847f46edfd397abd4ab4" target="_top" xlink:title="Flatten rowwises.">
<polygon fill="white" stroke="#666666" points="319.5,-211.5 197.5,-211.5 197.5,-192.5 319.5,-192.5 319.5,-211.5"/>
<text text-anchor="middle" x="258.5" y="-199.5" font-family="Helvetica,sans-Serif" font-size="10.00">polyfem::utils::flatten</text>
</a>
</g>
</g>
<!-- Node1&#45;&gt;Node6 -->
<g id="edge5_Node000001_Node000006" class="edge">
<title>Node1&#45;&gt;Node6</title>
<g id="a_edge5_Node000001_Node000006"><a xlink:title=" ">
<path fill="none" stroke="#63b8ff" d="M138.22,-202C154.11,-202 171.06,-202 187.05,-202"/>
<polygon fill="#63b8ff" stroke="#63b8ff" points="187.39,-205.5 197.39,-202 187.39,-198.5 187.39,-205.5"/>
</a>
</g>
</g>
<!-- Node7 -->
<g id="Node000007" class="node">
<title>Node7</title>
<g id="a_Node000007"><a xlink:href="classpolyfem_1_1solver_1_1_periodic_mesh_to_mesh.html#a2bc28d453d7caa16f38be8a0ab899a0d" target="_top" xlink:title=" ">
<polygon fill="white" stroke="#666666" points="339,-174 178,-174 178,-144 339,-144 339,-174"/>
<text text-anchor="start" x="186" y="-162" font-family="Helvetica,sans-Serif" font-size="10.00">polyfem::solver::Periodic</text>
<text text-anchor="middle" x="258.5" y="-151" font-family="Helvetica,sans-Serif" font-size="10.00">MeshToMesh::full_to_periodic</text>
</a>
</g>
</g>
<!-- Node1&#45;&gt;Node7 -->
<g id="edge6_Node000001_Node000007" class="edge">
<title>Node1&#45;&gt;Node7</title>
<g id="a_edge6_Node000001_Node000007"><a xlink:title=" ">
<path fill="none" stroke="#63b8ff" d="M138.22,-186.35C152.43,-183.1 167.48,-179.64 181.94,-176.33"/>
<polygon fill="#63b8ff" stroke="#63b8ff" points="182.87,-179.71 191.83,-174.06 181.3,-172.88 182.87,-179.71"/>
</a>
</g>
</g>
<!-- Node8 -->
<g id="Node000008" class="node">
<title>Node8</title>
<g id="a_Node000008"><a xlink:href="classpolyfem_1_1_state.html#a5eaa1d1e994fd9fe2ef287e1d623fe67" target="_top" xlink:title=" ">
<polygon fill="white" stroke="#666666" points="328,-126 189,-126 189,-96 328,-96 328,-126"/>
<text text-anchor="start" x="197" y="-114" font-family="Helvetica,sans-Serif" font-size="10.00">polyfem::State::primitive</text>
<text text-anchor="middle" x="258.5" y="-103" font-family="Helvetica,sans-Serif" font-size="10.00">_to_node</text>
</a>
</g>
</g>
<!-- Node1&#45;&gt;Node8 -->
<g id="edge7_Node000001_Node000008" class="edge">
<title>Node1&#45;&gt;Node8</title>
<g id="a_edge7_Node000001_Node000008"><a xlink:title=" ">
<path fill="none" stroke="#63b8ff" d="M96.98,-181.47C117.27,-166.84 146.23,-147.61 174,-135 178.32,-133.04 182.84,-131.2 187.45,-129.47"/>
<polygon fill="#63b8ff" stroke="#63b8ff" points="188.72,-132.74 196.99,-126.11 186.39,-126.14 188.72,-132.74"/>
</a>
</g>
</g>
<!-- Node11 -->
<g id="Node000011" class="node">
<title>Node11</title>
<g id="a_Node000011"><a xlink:href="classpolyfem_1_1solver_1_1_periodic_contact_form.html#a5b9b21aa68c20cc0695f9d02b7b1719b" target="_top" xlink:title=" ">
<polygon fill="white" stroke="#666666" points="336.5,-78 180.5,-78 180.5,-48 336.5,-48 336.5,-78"/>
<text text-anchor="start" x="188.5" y="-66" font-family="Helvetica,sans-Serif" font-size="10.00">polyfem::solver::Periodic</text>
<text text-anchor="middle" x="258.5" y="-55" font-family="Helvetica,sans-Serif" font-size="10.00">ContactForm::single_to_tiled</text>
</a>
</g>
</g>
<!-- Node1&#45;&gt;Node11 -->
<g id="edge10_Node000001_Node000011" class="edge">
<title>Node1&#45;&gt;Node11</title>
<g id="a_edge10_Node000001_Node000011"><a xlink:title=" ">
<path fill="none" stroke="#63b8ff" d="M83.25,-181.35C100.88,-155.5 134.49,-111.65 174,-87 176.75,-85.28 179.63,-83.69 182.59,-82.2"/>
<polygon fill="#63b8ff" stroke="#63b8ff" points="184.04,-85.39 191.7,-78.07 181.15,-79.01 184.04,-85.39"/>
</a>
</g>
</g>
<!-- Node12 -->
<g id="Node000012" class="node">
<title>Node12</title>
<g id="a_Node000012"><a xlink:href="classpolyfem_1_1solver_1_1_contact_form.html#a7f40dd156564bf40a2841b3a8d545534" target="_top" xlink:title="Get the form&#39;s multiplicative constant weight.">
<polygon fill="white" stroke="#666666" points="327,-30 190,-30 190,0 327,0 327,-30"/>
<text text-anchor="start" x="198" y="-18" font-family="Helvetica,sans-Serif" font-size="10.00">polyfem::solver::Contact</text>
<text text-anchor="middle" x="258.5" y="-7" font-family="Helvetica,sans-Serif" font-size="10.00">Form::weight</text>
</a>
</g>
</g>
<!-- Node1&#45;&gt;Node12 -->
<g id="edge12_Node000001_Node000012" class="edge">
<title>Node1&#45;&gt;Node12</title>
<g id="a_edge12_Node000001_Node000012"><a xlink:title=" ">
<path fill="none" stroke="#63b8ff" d="M77.52,-181.32C91.22,-146.59 123.57,-76.66 174,-39 176.12,-37.42 178.33,-35.95 180.62,-34.57"/>
<polygon fill="#63b8ff" stroke="#63b8ff" points="182.6,-37.48 189.8,-29.72 179.33,-31.29 182.6,-37.48"/>
</a>
</g>
</g>
<!-- Node4&#45;&gt;Node5 -->
<g id="edge4_Node000004_Node000005" class="edge">
<title>Node4&#45;&gt;Node5</title>
<g id="a_edge4_Node000004_Node000005"><a xlink:title=" ">
<path fill="none" stroke="#63b8ff" d="M329.63,-279.55C342.34,-277.84 355.65,-276.04 368.53,-274.31"/>
<polygon fill="#63b8ff" stroke="#63b8ff" points="369.31,-277.73 378.75,-272.93 368.37,-270.8 369.31,-277.73"/>
</a>
</g>
</g>
<!-- Node9 -->
<g id="Node000009" class="node">
<title>Node9</title>
<g id="a_Node000009"><a xlink:href="classpolyfem_1_1_state.html#ab956f7e3ad92b7ffc1ca1a45ee47903f" target="_top" xlink:title="check if using iso parametric bases">
<polygon fill="white" stroke="#666666" points="500.5,-126 391.5,-126 391.5,-96 500.5,-96 500.5,-126"/>
<text text-anchor="start" x="399.5" y="-114" font-family="Helvetica,sans-Serif" font-size="10.00">polyfem::State::iso</text>
<text text-anchor="middle" x="446" y="-103" font-family="Helvetica,sans-Serif" font-size="10.00">_parametric</text>
</a>
</g>
</g>
<!-- Node8&#45;&gt;Node9 -->
<g id="edge8_Node000008_Node000009" class="edge">
<title>Node8&#45;&gt;Node9</title>
<g id="a_edge8_Node000008_Node000009"><a xlink:title=" ">
<path fill="none" stroke="#63b8ff" d="M328.05,-111C345.31,-111 363.78,-111 380.82,-111"/>
<polygon fill="#63b8ff" stroke="#63b8ff" points="381.22,-114.5 391.22,-111 381.22,-107.5 381.22,-114.5"/>
</a>
</g>
</g>
<!-- Node10 -->
<g id="Node000010" class="node">
<title>Node10</title>
<g id="a_Node000010"><a xlink:href="classpolyfem_1_1_state.html#a7447e954de5980b45223f7cf49738073" target="_top" xlink:title=" ">
<polygon fill="white" stroke="#666666" points="661,-126 549,-126 549,-96 661,-96 661,-126"/>
<text text-anchor="start" x="557" y="-114" font-family="Helvetica,sans-Serif" font-size="10.00">polyfem::State::has</text>
<text text-anchor="middle" x="605" y="-103" font-family="Helvetica,sans-Serif" font-size="10.00">_periodic_bc</text>
</a>
</g>
</g>
<!-- Node9&#45;&gt;Node10 -->
<g id="edge9_Node000009_Node000010" class="edge">
<title>Node9&#45;&gt;Node10</title>
<g id="a_edge9_Node000009_Node000010"><a xlink:title=" ">
<path fill="none" stroke="#63b8ff" d="M500.59,-111C512.86,-111 526.03,-111 538.73,-111"/>
<polygon fill="#63b8ff" stroke="#63b8ff" points="538.78,-114.5 548.78,-111 538.78,-107.5 538.78,-114.5"/>
</a>
</g>
</g>
</g>
</svg>

<g id="navigator" transform="translate(0 0)" fill="#404254">
  <rect fill="#f2f5e9" fill-opacity="0.5" stroke="#606060" stroke-width=".5" x="0" y="0" width="60" height="60"/>
  <use id="zoomplus" xlink:href="#zoomPlus" x="17" y="9" onmousedown="handleZoom(evt,'in')"/>
  <use id="zoomminus" xlink:href="#zoomMin" x="42" y="9" onmousedown="handleZoom(evt,'out')"/>
  <use id="reset" xlink:href="#resetDef" x="30" y="36" onmousedown="handleReset()"/>
   <use id="arrowup" xlink:href="#arrowUp" x="0" y="0" onmousedown="handlePan(0,-1)"/>
  <use id="arrowright" xlink:href="#arrowRight" x="0" y="0" onmousedown="handlePan(1,0)"/>
  <use id="arrowdown" xlink:href="#arrowDown" x="0" y="0" onmousedown="handlePan(0,1)"/>
  <use id="arrowleft" xlink:href="#arrowLeft" x="0" y="0" onmousedown="handlePan(-1,0)"/>
</g>
<svg viewBox="0 0 15 15" width="100%" height="30px" preserveAspectRatio="xMaxYMin meet">
 <g id="arrow_out" transform="scale(0.3 0.3)">
  <a xlink:href="classpolyfem_1_1solver_1_1_periodic_contact_force_derivative_ad09fddb737b615a75b50168a4a56ecc2_cgraph_org.svg" target="_base">
   <rect id="button" ry="5" rx="5" y="6" x="6" height="38" width="38"
        fill="#f2f5e9" fill-opacity="0.5" stroke="#606060" stroke-width="1.0"/>
   <path id="arrow"
     d="M 11.500037,31.436501 C 11.940474,20.09759 22.043105,11.32322 32.158766,21.979434 L 37.068811,17.246167 C 37.068811,17.246167 37.088388,32 37.088388,32 L 22.160133,31.978069 C 22.160133,31.978069 26.997745,27.140456 26.997745,27.140456 C 18.528582,18.264221 13.291696,25.230495 11.500037,31.436501 z"
     style="fill:#404040;"/>
  </a>
 </g>
</svg>

<style type='text/css'>
<![CDATA[
[data-mouse-over-selected='false'] { opacity: 0.7; }
[data-mouse-over-selected='true']  { opacity: 1.0; }
]]>
</style>
<script type="application/ecmascript"><![CDATA[
document.addEventListener('DOMContentLoaded', (event) => {
  highlightEdges();
  highlightAdjacentNodes();
});
]]></script>
</svg>
