<?xml version="1.0" encoding="UTF-8" standalone="no"?>
<!DOCTYPE svg PUBLIC "-//W3C//DTD SVG 1.1//EN"
 "http://www.w3.org/Graphics/SVG/1.1/DTD/svg11.dtd">
<!-- Generated by graphviz version 2.43.0 (0)
 -->
<!-- Title: polyfem::quadrature::TriQuadrature::get_quadrature Pages: 1 -->
<!--zoomable 207 -->
<svg id="main" version="1.1" xmlns="http://www.w3.org/2000/svg" xmlns:xlink="http://www.w3.org/1999/xlink" xml:space="preserve" onload="init(evt)">
<style type="text/css"><![CDATA[
.edge:hover path { stroke: red; }
.edge:hover polygon { stroke: red; fill: red; }
]]></style>
<script type="text/javascript"><![CDATA[
var edges = document.getElementsByTagName('g');
if (edges && edges.length) {
  for (var i=0;i<edges.length;i++) {
    if (edges[i].id.substr(0,4)=='edge') {
      edges[i].setAttribute('class','edge');
    }
  }
}
]]></script>
        <defs>
                <circle id="rim" cx="0" cy="0" r="7"/>
                <circle id="rim2" cx="0" cy="0" r="3.5"/>
                <g id="zoomPlus">
                        <use xlink:href="#rim" fill="#404040">
                                <set attributeName="fill" to="#808080" begin="zoomplus.mouseover" end="zoomplus.mouseout"/>
                        </use>
                        <path d="M-4,0h8M0,-4v8" fill="none" stroke="white" stroke-width="1.5" pointer-events="none"/>
                </g>
                <g id="zoomMin">
                        <use xlink:href="#rim" fill="#404040">
                                <set attributeName="fill" to="#808080" begin="zoomminus.mouseover" end="zoomminus.mouseout"/>
                        </use>
                        <path d="M-4,0h8" fill="none" stroke="white" stroke-width="1.5" pointer-events="none"/>
                </g>
                <g id="dirArrow">
                        <path fill="none" stroke="white" stroke-width="1.5" d="M0,-3.0v7 M-2.5,-0.5L0,-3.0L2.5,-0.5"/>
                </g>
               <g id="resetDef">
                       <use xlink:href="#rim2" fill="#404040">
                               <set attributeName="fill" to="#808080" begin="reset.mouseover" end="reset.mouseout"/>
                       </use>
               </g>
        </defs>

<script type="text/javascript">
var viewWidth = 1144;
var viewHeight = 207;
var sectionId = 'dynsection-0';
</script>
<script xlink:href="svgpan.js"/>
<svg id="graph" class="graph">
<g id="viewport">
<title>polyfem::quadrature::TriQuadrature::get_quadrature</title>
<!-- Node1 -->
<g id="node1" class="node">
<title>Node1</title>
<g id="a_node1"><a xlink:title=" ">
<polygon fill="#999999" stroke="#666666" points="1136,-127 1020,-127 1020,-86 1136,-86 1136,-127"/>
<text text-anchor="start" x="1028" y="-115" font-family="Helvetica,sans-Serif" font-size="10.00">polyfem::quadrature</text>
<text text-anchor="start" x="1028" y="-104" font-family="Helvetica,sans-Serif" font-size="10.00">::TriQuadrature::get</text>
<text text-anchor="middle" x="1078" y="-93" font-family="Helvetica,sans-Serif" font-size="10.00">_quadrature</text>
</a>
</g>
</g>
<!-- Node2 -->
<g id="node2" class="node">
<title>Node2</title>
<g id="a_node2"><a xlink:href="classpolyfem_1_1quadrature_1_1_polygon_quadrature.html#a4e0ef6a256af3def81c64c05c6e5691f" target="_top" xlink:title="Gets the quadrature points &amp; weights for a polygon.">
<polygon fill="white" stroke="#666666" points="973.5,-157 857.5,-157 857.5,-116 973.5,-116 973.5,-157"/>
<text text-anchor="start" x="865.5" y="-145" font-family="Helvetica,sans-Serif" font-size="10.00">polyfem::quadrature</text>
<text text-anchor="start" x="865.5" y="-134" font-family="Helvetica,sans-Serif" font-size="10.00">::PolygonQuadrature</text>
<text text-anchor="middle" x="915.5" y="-123" font-family="Helvetica,sans-Serif" font-size="10.00">::get_quadrature</text>
</a>
</g>
</g>
<!-- Node1&#45;&gt;Node2 -->
<g id="edge1" class="edge">
<title>Node1&#45;&gt;Node2</title>
<path fill="none" stroke="#63b8ff" d="M1009.94,-119.03C997.87,-121.29 985.38,-123.62 973.62,-125.82"/>
<polygon fill="#63b8ff" stroke="#63b8ff" points="1010.78,-122.44 1019.96,-117.16 1009.49,-115.56 1010.78,-122.44"/>
</g>
<!-- Node11 -->
<g id="node11" class="node">
<title>Node11</title>
<g id="a_node11"><a xlink:href="classpolyfem_1_1utils_1_1_boundary_sampler.html#a4f92b1c04be7c25cbb65f7c40bce8a4d" target="_top" xlink:title=" ">
<polygon fill="white" stroke="#666666" points="984,-98 847,-98 847,-57 984,-57 984,-98"/>
<text text-anchor="start" x="855" y="-86" font-family="Helvetica,sans-Serif" font-size="10.00">polyfem::utils::Boundary</text>
<text text-anchor="start" x="855" y="-75" font-family="Helvetica,sans-Serif" font-size="10.00">Sampler::quadrature_for</text>
<text text-anchor="middle" x="915.5" y="-64" font-family="Helvetica,sans-Serif" font-size="10.00">_tri_face</text>
</a>
</g>
</g>
<!-- Node1&#45;&gt;Node11 -->
<g id="edge12" class="edge">
<title>Node1&#45;&gt;Node11</title>
<path fill="none" stroke="#63b8ff" d="M1010.01,-94.4C1001.43,-92.85 992.64,-91.26 984.06,-89.71"/>
<polygon fill="#63b8ff" stroke="#63b8ff" points="1009.5,-97.86 1019.96,-96.19 1010.74,-90.97 1009.5,-97.86"/>
</g>
<!-- Node3 -->
<g id="node3" class="node">
<title>Node3</title>
<g id="a_node3"><a xlink:href="classpolyfem_1_1basis_1_1_polygonal_basis2d.html#a50260ddd9173da3f8b8305c42998d2bc" target="_top" xlink:title="Build bases over the remaining polygons of a mesh.">
<polygon fill="white" stroke="#666666" points="617.5,-198.5 474.5,-198.5 474.5,-168.5 617.5,-168.5 617.5,-198.5"/>
<text text-anchor="start" x="482.5" y="-186.5" font-family="Helvetica,sans-Serif" font-size="10.00">polyfem::basis::Polygonal</text>
<text text-anchor="middle" x="546" y="-175.5" font-family="Helvetica,sans-Serif" font-size="10.00">Basis2d::build_bases</text>
</a>
</g>
</g>
<!-- Node2&#45;&gt;Node3 -->
<g id="edge2" class="edge">
<title>Node2&#45;&gt;Node3</title>
<path fill="none" stroke="#63b8ff" d="M847.28,-152.75C835.25,-155.28 822.79,-157.66 811,-159.5 745.86,-169.66 670.96,-175.96 617.61,-179.54"/>
<polygon fill="#63b8ff" stroke="#63b8ff" points="848.23,-156.12 857.27,-150.59 846.75,-149.28 848.23,-156.12"/>
</g>
<!-- Node8 -->
<g id="node8" class="node">
<title>Node8</title>
<g id="a_node8"><a xlink:href="classpolyfem_1_1basis_1_1_barycentric_basis2d.html#aa1c3f2f069b856296ed2bd9b6c9a188c" target="_top" xlink:title=" ">
<polygon fill="white" stroke="#666666" points="811,-150.5 661,-150.5 661,-120.5 811,-120.5 811,-150.5"/>
<text text-anchor="start" x="669" y="-138.5" font-family="Helvetica,sans-Serif" font-size="10.00">polyfem::basis::Barycentric</text>
<text text-anchor="middle" x="736" y="-127.5" font-family="Helvetica,sans-Serif" font-size="10.00">Basis2d::build_bases</text>
</a>
</g>
</g>
<!-- Node2&#45;&gt;Node8 -->
<g id="edge7" class="edge">
<title>Node2&#45;&gt;Node8</title>
<path fill="none" stroke="#63b8ff" d="M847.19,-136.12C835.44,-136.05 823.15,-135.99 811.22,-135.92"/>
<polygon fill="#63b8ff" stroke="#63b8ff" points="847.34,-139.62 857.36,-136.18 847.38,-132.62 847.34,-139.62"/>
</g>
<!-- Node4 -->
<g id="node4" class="node">
<title>Node4</title>
<g id="a_node4"><a xlink:href="classpolyfem_1_1_state.html#a202f2494b8f46d4bf22edfc0a36ddb32" target="_top" xlink:title="builds bases for polygons, called inside build_basis">
<polygon fill="white" stroke="#666666" points="431,-150.5 312,-150.5 312,-120.5 431,-120.5 431,-150.5"/>
<text text-anchor="start" x="320" y="-138.5" font-family="Helvetica,sans-Serif" font-size="10.00">polyfem::State::build</text>
<text text-anchor="middle" x="371.5" y="-127.5" font-family="Helvetica,sans-Serif" font-size="10.00">_polygonal_basis</text>
</a>
</g>
</g>
<!-- Node3&#45;&gt;Node4 -->
<g id="edge3" class="edge">
<title>Node3&#45;&gt;Node4</title>
<path fill="none" stroke="#63b8ff" d="M481.07,-165.71C463.1,-160.71 443.74,-155.32 426.41,-150.5"/>
<polygon fill="#63b8ff" stroke="#63b8ff" points="480.32,-169.14 490.89,-168.44 482.2,-162.39 480.32,-169.14"/>
</g>
<!-- Node5 -->
<g id="node5" class="node">
<title>Node5</title>
<g id="a_node5"><a xlink:href="classpolyfem_1_1_state.html#a75cfcf28f3bc27e8e30b41c7347c799b" target="_top" xlink:title="builds the bases step 2 of solve">
<polygon fill="white" stroke="#666666" points="276,-150.5 157,-150.5 157,-120.5 276,-120.5 276,-150.5"/>
<text text-anchor="start" x="165" y="-138.5" font-family="Helvetica,sans-Serif" font-size="10.00">polyfem::State::build</text>
<text text-anchor="middle" x="216.5" y="-127.5" font-family="Helvetica,sans-Serif" font-size="10.00">_basis</text>
</a>
</g>
</g>
<!-- Node4&#45;&gt;Node5 -->
<g id="edge4" class="edge">
<title>Node4&#45;&gt;Node5</title>
<path fill="none" stroke="#63b8ff" d="M301.51,-135.5C293.01,-135.5 284.38,-135.5 276.06,-135.5"/>
<polygon fill="#63b8ff" stroke="#63b8ff" points="301.78,-139 311.78,-135.5 301.78,-132 301.78,-139"/>
</g>
<!-- Node6 -->
<g id="node6" class="node">
<title>Node6</title>
<g id="a_node6"><a xlink:href="main_8cpp.html#a3c04138a5bfe5d72780bb7e82a18e627" target="_top" xlink:title=" ">
<polygon fill="white" stroke="#666666" points="81,-164 40,-164 40,-145 81,-145 81,-164"/>
<text text-anchor="middle" x="60.5" y="-152" font-family="Helvetica,sans-Serif" font-size="10.00">main</text>
</a>
</g>
</g>
<!-- Node5&#45;&gt;Node6 -->
<g id="edge5" class="edge">
<title>Node5&#45;&gt;Node6</title>
<path fill="none" stroke="#63b8ff" d="M146.71,-143.99C122.86,-146.93 97.95,-150 81.27,-152.06"/>
<polygon fill="#63b8ff" stroke="#63b8ff" points="147.34,-147.44 156.84,-142.74 146.49,-140.49 147.34,-147.44"/>
</g>
<!-- Node7 -->
<g id="node7" class="node">
<title>Node7</title>
<g id="a_node7"><a xlink:href="classpolyfem_1_1_state.html#a219f9935d918f739d82488449bd4cbf4" target="_top" xlink:title="solves the problem, call other methods">
<polygon fill="white" stroke="#666666" points="121,-127 0,-127 0,-108 121,-108 121,-127"/>
<text text-anchor="middle" x="60.5" y="-115" font-family="Helvetica,sans-Serif" font-size="10.00">polyfem::State::solve</text>
</a>
</g>
</g>
<!-- Node5&#45;&gt;Node7 -->
<g id="edge6" class="edge">
<title>Node5&#45;&gt;Node7</title>
<path fill="none" stroke="#63b8ff" d="M146.83,-127.47C138.22,-126.47 129.47,-125.44 121.02,-124.46"/>
<polygon fill="#63b8ff" stroke="#63b8ff" points="146.5,-130.96 156.84,-128.64 147.31,-124.01 146.5,-130.96"/>
</g>
<!-- Node9 -->
<g id="node9" class="node">
<title>Node9</title>
<g id="a_node9"><a xlink:href="classpolyfem_1_1basis_1_1_m_v_polygonal_basis2d.html#a89ea43b4f379acbf62d0da00c478438a" target="_top" xlink:title=" ">
<polygon fill="white" stroke="#666666" points="625,-150.5 467,-150.5 467,-120.5 625,-120.5 625,-150.5"/>
<text text-anchor="start" x="475" y="-138.5" font-family="Helvetica,sans-Serif" font-size="10.00">polyfem::basis::MVPolygonal</text>
<text text-anchor="middle" x="546" y="-127.5" font-family="Helvetica,sans-Serif" font-size="10.00">Basis2d::build_bases</text>
</a>
</g>
</g>
<!-- Node8&#45;&gt;Node9 -->
<g id="edge8" class="edge">
<title>Node8&#45;&gt;Node9</title>
<path fill="none" stroke="#63b8ff" d="M650.72,-135.5C642.26,-135.5 633.69,-135.5 625.3,-135.5"/>
<polygon fill="#63b8ff" stroke="#63b8ff" points="650.97,-139 660.97,-135.5 650.97,-132 650.97,-139"/>
</g>
<!-- Node10 -->
<g id="node10" class="node">
<title>Node10</title>
<g id="a_node10"><a xlink:href="classpolyfem_1_1basis_1_1_w_s_polygonal_basis2d.html#a50b588a2ab913de3c21d0e6704be6128" target="_top" xlink:title=" ">
<polygon fill="white" stroke="#666666" points="625,-102.5 467,-102.5 467,-72.5 625,-72.5 625,-102.5"/>
<text text-anchor="start" x="475" y="-90.5" font-family="Helvetica,sans-Serif" font-size="10.00">polyfem::basis::WSPolygonal</text>
<text text-anchor="middle" x="546" y="-79.5" font-family="Helvetica,sans-Serif" font-size="10.00">Basis2d::build_bases</text>
</a>
</g>
</g>
<!-- Node8&#45;&gt;Node10 -->
<g id="edge10" class="edge">
<title>Node8&#45;&gt;Node10</title>
<path fill="none" stroke="#63b8ff" d="M666.14,-117.92C646.33,-112.86 624.9,-107.39 605.76,-102.5"/>
<polygon fill="#63b8ff" stroke="#63b8ff" points="665.48,-121.36 676.03,-120.44 667.21,-114.58 665.48,-121.36"/>
</g>
<!-- Node9&#45;&gt;Node4 -->
<g id="edge9" class="edge">
<title>Node9&#45;&gt;Node4</title>
<path fill="none" stroke="#63b8ff" d="M456.64,-135.5C447.96,-135.5 439.31,-135.5 431.04,-135.5"/>
<polygon fill="#63b8ff" stroke="#63b8ff" points="456.83,-139 466.83,-135.5 456.83,-132 456.83,-139"/>
</g>
<!-- Node10&#45;&gt;Node4 -->
<g id="edge11" class="edge">
<title>Node10&#45;&gt;Node4</title>
<path fill="none" stroke="#63b8ff" d="M481.07,-105.29C463.1,-110.29 443.74,-115.68 426.41,-120.5"/>
<polygon fill="#63b8ff" stroke="#63b8ff" points="482.2,-108.61 490.89,-102.56 480.32,-101.86 482.2,-108.61"/>
</g>
<!-- Node12 -->
<g id="node12" class="node">
<title>Node12</title>
<g id="a_node12"><a xlink:href="classpolyfem_1_1io_1_1_evaluator.html#a8a20b3ef05c1ce19dc0494739e877b7b" target="_top" xlink:title="computes integrated solution (fun) per surface face.">
<polygon fill="white" stroke="#666666" points="799.5,-100 672.5,-100 672.5,-59 799.5,-59 799.5,-100"/>
<text text-anchor="start" x="680.5" y="-88" font-family="Helvetica,sans-Serif" font-size="10.00">polyfem::io::Evaluator</text>
<text text-anchor="start" x="680.5" y="-77" font-family="Helvetica,sans-Serif" font-size="10.00">::interpolate_boundary</text>
<text text-anchor="middle" x="736" y="-66" font-family="Helvetica,sans-Serif" font-size="10.00">_function</text>
</a>
</g>
</g>
<!-- Node11&#45;&gt;Node12 -->
<g id="edge13" class="edge">
<title>Node11&#45;&gt;Node12</title>
<path fill="none" stroke="#63b8ff" d="M836.62,-78.38C824.29,-78.52 811.68,-78.66 799.75,-78.79"/>
<polygon fill="#63b8ff" stroke="#63b8ff" points="836.93,-81.87 846.89,-78.26 836.85,-74.87 836.93,-81.87"/>
</g>
<!-- Node13 -->
<g id="node13" class="node">
<title>Node13</title>
<g id="a_node13"><a xlink:href="classpolyfem_1_1io_1_1_evaluator.html#afe5d6ebcbb72f466245bc858f14fb97e" target="_top" xlink:title="computes traction foces for fun (tensor * surface normal) result, stress tensor, and von mises,...">
<polygon fill="white" stroke="#666666" points="799.5,-41 672.5,-41 672.5,0 799.5,0 799.5,-41"/>
<text text-anchor="start" x="680.5" y="-29" font-family="Helvetica,sans-Serif" font-size="10.00">polyfem::io::Evaluator</text>
<text text-anchor="start" x="680.5" y="-18" font-family="Helvetica,sans-Serif" font-size="10.00">::interpolate_boundary</text>
<text text-anchor="middle" x="736" y="-7" font-family="Helvetica,sans-Serif" font-size="10.00">_tensor_function</text>
</a>
</g>
</g>
<!-- Node11&#45;&gt;Node13 -->
<g id="edge14" class="edge">
<title>Node11&#45;&gt;Node13</title>
<path fill="none" stroke="#63b8ff" d="M840.58,-53.76C826.92,-49.38 812.78,-44.84 799.5,-40.57"/>
<polygon fill="#63b8ff" stroke="#63b8ff" points="839.83,-57.2 850.42,-56.92 841.97,-50.53 839.83,-57.2"/>
</g>
<!-- Node14 -->
<g id="node14" class="node">
<title>Node14</title>
<g id="a_node14"><a xlink:href="classpolyfem_1_1io_1_1_evaluator.html#a66d6789a60dceb9f9625cee09b8c81a1" target="_top" xlink:title="same as interpolate_boundary_tensor_function with disp=0">
<polygon fill="white" stroke="#666666" points="609.5,-41 482.5,-41 482.5,0 609.5,0 609.5,-41"/>
<text text-anchor="start" x="490.5" y="-29" font-family="Helvetica,sans-Serif" font-size="10.00">polyfem::io::Evaluator</text>
<text text-anchor="start" x="490.5" y="-18" font-family="Helvetica,sans-Serif" font-size="10.00">::interpolate_boundary</text>
<text text-anchor="middle" x="546" y="-7" font-family="Helvetica,sans-Serif" font-size="10.00">_tensor_function</text>
</a>
</g>
</g>
<!-- Node13&#45;&gt;Node14 -->
<g id="edge15" class="edge">
<title>Node13&#45;&gt;Node14</title>
<path fill="none" stroke="#63b8ff" d="M662.31,-20.5C644.93,-20.5 626.53,-20.5 609.65,-20.5"/>
<polygon fill="#63b8ff" stroke="#63b8ff" points="662.4,-24 672.4,-20.5 662.4,-17 662.4,-24"/>
</g>
</g>
</svg>
        <g id="navigator" transform="translate(0 0)" fill="#404254">
                <rect fill="#f2f5e9" fill-opacity="0.5" stroke="#606060" stroke-width=".5" x="0" y="0" width="60" height="60"/>
                <use id="zoomplus" xlink:href="#zoomPlus" x="17" y="9" onmousedown="handleZoom(evt,'in')"/>
                <use id="zoomminus" xlink:href="#zoomMin" x="42" y="9" onmousedown="handleZoom(evt,'out')"/>
                <use id="reset" xlink:href="#resetDef" x="30" y="36" onmousedown="handleReset()"/>
                <g id="arrowUp" xlink:href="#dirArrow" transform="translate(30 24)" onmousedown="handlePan(0,-1)">
                  <use xlink:href="#rim" fill="#404040">
                        <set attributeName="fill" to="#808080" begin="arrowUp.mouseover" end="arrowUp.mouseout"/>
                  </use>
                  <path fill="none" stroke="white" stroke-width="1.5" d="M0,-3.0v7 M-2.5,-0.5L0,-3.0L2.5,-0.5"/>
                </g>
                <g id="arrowRight" xlink:href="#dirArrow" transform="rotate(90) translate(36 -43)" onmousedown="handlePan(1,0)">
                  <use xlink:href="#rim" fill="#404040">
                        <set attributeName="fill" to="#808080" begin="arrowRight.mouseover" end="arrowRight.mouseout"/>
                  </use>
                  <path fill="none" stroke="white" stroke-width="1.5" d="M0,-3.0v7 M-2.5,-0.5L0,-3.0L2.5,-0.5"/>
                </g>
                <g id="arrowDown" xlink:href="#dirArrow" transform="rotate(180) translate(-30 -48)" onmousedown="handlePan(0,1)">
                  <use xlink:href="#rim" fill="#404040">
                        <set attributeName="fill" to="#808080" begin="arrowDown.mouseover" end="arrowDown.mouseout"/>
                  </use>
                  <path fill="none" stroke="white" stroke-width="1.5" d="M0,-3.0v7 M-2.5,-0.5L0,-3.0L2.5,-0.5"/>
                </g>
                <g id="arrowLeft" xlink:href="#dirArrow" transform="rotate(270) translate(-36 17)" onmousedown="handlePan(-1,0)">
                  <use xlink:href="#rim" fill="#404040">
                        <set attributeName="fill" to="#808080" begin="arrowLeft.mouseover" end="arrowLeft.mouseout"/>
                  </use>
                  <path fill="none" stroke="white" stroke-width="1.5" d="M0,-3.0v7 M-2.5,-0.5L0,-3.0L2.5,-0.5"/>
                </g>
        </g>
        <svg viewBox="0 0 15 15" width="100%" height="30px" preserveAspectRatio="xMaxYMin meet">
         <g id="arrow_out" transform="scale(0.3 0.3)">
          <a xlink:href="classpolyfem_1_1quadrature_1_1_tri_quadrature_a85485e705bb0fa392400786863496e85_icgraph_org.svg" target="_base">
           <rect id="button" ry="5" rx="5" y="6" x="6" height="38" width="38"
                fill="#f2f5e9" fill-opacity="0.5" stroke="#606060" stroke-width="1.0"/>
           <path id="arrow"
             d="M 11.500037,31.436501 C 11.940474,20.09759 22.043105,11.32322 32.158766,21.979434 L 37.068811,17.246167 C 37.068811,17.246167 37.088388,32 37.088388,32 L 22.160133,31.978069 C 22.160133,31.978069 26.997745,27.140456 26.997745,27.140456 C 18.528582,18.264221 13.291696,25.230495 11.500037,31.436501 z"
             style="fill:#404040;"/>
          </a>
         </g>
        </svg>
</svg>
