<?xml version="1.0" encoding="UTF-8" standalone="no"?>
<!DOCTYPE svg PUBLIC "-//W3C//DTD SVG 1.1//EN"
 "http://www.w3.org/Graphics/SVG/1.1/DTD/svg11.dtd">
<!-- Generated by graphviz version 2.43.0 (0)
 -->
<!-- Title: polyfem::basis::PolygonalBasis3d::build_bases Pages: 1 -->
<svg width="953pt" height="800pt"
 viewBox="0.00 0.00 953.00 800.00" xmlns="http://www.w3.org/2000/svg" xmlns:xlink="http://www.w3.org/1999/xlink">
<g id="graph0" class="graph" transform="scale(1 1) rotate(0) translate(4 796)">
<title>polyfem::basis::PolygonalBasis3d::build_bases</title>
<!-- Node1 -->
<g id="Node000001" class="node">
<title>Node1</title>
<g id="a_Node000001"><a xlink:title="Build bases over the remaining polygons of a mesh.">
<polygon fill="#999999" stroke="#666666" points="143,-294 0,-294 0,-264 143,-264 143,-294"/>
<text text-anchor="start" x="8" y="-282" font-family="Helvetica,sans-Serif" font-size="10.00">polyfem::basis::Polygonal</text>
<text text-anchor="middle" x="71.5" y="-271" font-family="Helvetica,sans-Serif" font-size="10.00">Basis3d::build_bases</text>
</a>
</g>
</g>
<!-- Node2 -->
<g id="Node000002" class="node">
<title>Node2</title>
<g id="a_Node000002"><a xlink:href="namespacepolyfem_1_1basis.html#a499aa1c6971b36fc766d06a74a7e1482" target="_top" xlink:title=" ">
<polygon fill="white" stroke="#666666" points="341,-674 204,-674 204,-644 341,-644 341,-674"/>
<text text-anchor="start" x="212" y="-662" font-family="Helvetica,sans-Serif" font-size="10.00">polyfem::basis::compute</text>
<text text-anchor="middle" x="272.5" y="-651" font-family="Helvetica,sans-Serif" font-size="10.00">_epsilon</text>
</a>
</g>
</g>
<!-- Node1&#45;&gt;Node2 -->
<g id="edge1_Node000001_Node000002" class="edge">
<title>Node1&#45;&gt;Node2</title>
<g id="a_edge1_Node000001_Node000002"><a xlink:title=" ">
<path fill="none" stroke="#63b8ff" d="M79.19,-294.02C95.38,-330.14 138.38,-424.56 179,-501 204.82,-549.58 238.01,-604.7 256.8,-635.31"/>
<polygon fill="#63b8ff" stroke="#63b8ff" points="253.92,-637.3 262.15,-643.98 259.88,-633.63 253.92,-637.3"/>
</a>
</g>
</g>
<!-- Node9 -->
<g id="Node000009" class="node">
<title>Node9</title>
<g id="a_Node000009"><a xlink:href="classpolyfem_1_1basis_1_1_polygonal_basis3d.html#a9850a45487f69bd2d03fa2520f4815e6" target="_top" xlink:title=" ">
<polygon fill="white" stroke="#666666" points="345.5,-453.5 199.5,-453.5 199.5,-412.5 345.5,-412.5 345.5,-453.5"/>
<text text-anchor="start" x="207.5" y="-441.5" font-family="Helvetica,sans-Serif" font-size="10.00">polyfem::basis::Polygonal</text>
<text text-anchor="start" x="207.5" y="-430.5" font-family="Helvetica,sans-Serif" font-size="10.00">Basis3d::compute_integral</text>
<text text-anchor="middle" x="272.5" y="-419.5" font-family="Helvetica,sans-Serif" font-size="10.00">_constraints</text>
</a>
</g>
</g>
<!-- Node1&#45;&gt;Node9 -->
<g id="edge9_Node000001_Node000009" class="edge">
<title>Node1&#45;&gt;Node9</title>
<g id="a_edge9_Node000001_Node000009"><a xlink:title=" ">
<path fill="none" stroke="#63b8ff" d="M82.5,-294.28C99.52,-319.23 136.47,-368.83 179,-398 184.3,-401.63 190.02,-404.95 195.93,-407.97"/>
<polygon fill="#63b8ff" stroke="#63b8ff" points="194.81,-411.31 205.35,-412.47 197.83,-405 194.81,-411.31"/>
</a>
</g>
</g>
<!-- Node19 -->
<g id="Node000019" class="node">
<title>Node19</title>
<g id="a_Node000019"><a xlink:href="classpolyfem_1_1mesh_1_1_mesh.html#a11e698a1c82ee90edab1e7a607808779" target="_top" xlink:title="checks if element is polygon compatible">
<polygon fill="white" stroke="#666666" points="534.5,-507 412.5,-507 412.5,-477 534.5,-477 534.5,-507"/>
<text text-anchor="start" x="420.5" y="-495" font-family="Helvetica,sans-Serif" font-size="10.00">polyfem::mesh::Mesh</text>
<text text-anchor="middle" x="473.5" y="-484" font-family="Helvetica,sans-Serif" font-size="10.00">::is_polytope</text>
</a>
</g>
</g>
<!-- Node1&#45;&gt;Node19 -->
<g id="edge27_Node000001_Node000019" class="edge">
<title>Node1&#45;&gt;Node19</title>
<g id="a_edge27_Node000001_Node000019"><a xlink:title=" ">
<path fill="none" stroke="#63b8ff" d="M76.2,-294.18C85.95,-330.5 116.01,-422.42 179,-463 245.46,-505.82 338.52,-507.53 401.92,-502.15"/>
<polygon fill="#63b8ff" stroke="#63b8ff" points="402.59,-505.61 412.22,-501.19 401.94,-498.64 402.59,-505.61"/>
</a>
</g>
</g>
<!-- Node20 -->
<g id="Node000020" class="node">
<title>Node20</title>
<g id="a_Node000020"><a xlink:href="classpolyfem_1_1mesh_1_1_mesh3_d.html#ac9544a097b95623a07d842237c388aa6" target="_top" xlink:title="checks if mesh is volume">
<polygon fill="white" stroke="#666666" points="541.5,-399 405.5,-399 405.5,-369 541.5,-369 541.5,-399"/>
<text text-anchor="start" x="413.5" y="-387" font-family="Helvetica,sans-Serif" font-size="10.00">polyfem::mesh::Mesh3D</text>
<text text-anchor="middle" x="473.5" y="-376" font-family="Helvetica,sans-Serif" font-size="10.00">::is_volume</text>
</a>
</g>
</g>
<!-- Node1&#45;&gt;Node20 -->
<g id="edge28_Node000001_Node000020" class="edge">
<title>Node1&#45;&gt;Node20</title>
<g id="a_edge28_Node000001_Node000020"><a xlink:title=" ">
<path fill="none" stroke="#63b8ff" d="M90.82,-294.04C111.06,-309.79 145.29,-333.88 179,-346 249.39,-371.31 334.63,-380.12 395.08,-383.01"/>
<polygon fill="#63b8ff" stroke="#63b8ff" points="395.17,-386.52 405.31,-383.46 395.47,-379.53 395.17,-386.52"/>
</a>
</g>
</g>
<!-- Node21 -->
<g id="Node000021" class="node">
<title>Node21</title>
<g id="a_Node000021"><a xlink:href="classpolyfem_1_1mesh_1_1_mesh.html#a0140181b551c7bf0c162d6898155f294" target="_top" xlink:title="utitlity to return the number of elements, cells or faces in 3d and 2d">
<polygon fill="white" stroke="#666666" points="534.5,-316 412.5,-316 412.5,-286 534.5,-286 534.5,-316"/>
<text text-anchor="start" x="420.5" y="-304" font-family="Helvetica,sans-Serif" font-size="10.00">polyfem::mesh::Mesh</text>
<text text-anchor="middle" x="473.5" y="-293" font-family="Helvetica,sans-Serif" font-size="10.00">::n_elements</text>
</a>
</g>
</g>
<!-- Node1&#45;&gt;Node21 -->
<g id="edge29_Node000001_Node000021" class="edge">
<title>Node1&#45;&gt;Node21</title>
<g id="a_edge29_Node000001_Node000021"><a xlink:title=" ">
<path fill="none" stroke="#63b8ff" d="M97.7,-294.05C118.64,-305.64 149.65,-320.69 179,-327 260.26,-344.47 283.48,-336.93 366,-327 380.97,-325.2 396.87,-322.02 411.7,-318.5"/>
<polygon fill="#63b8ff" stroke="#63b8ff" points="412.9,-321.8 421.77,-316.01 411.22,-315.01 412.9,-321.8"/>
</a>
</g>
</g>
<!-- Node25 -->
<g id="Node000025" class="node">
<title>Node25</title>
<g id="a_Node000025"><a xlink:href="classpolyfem_1_1assembler_1_1_assembler.html#a7c54d99815b988e2ca1bc05c1e202f69" target="_top" xlink:title=" ">
<polygon fill="white" stroke="#666666" points="329.5,-318 215.5,-318 215.5,-288 329.5,-288 329.5,-318"/>
<text text-anchor="start" x="223.5" y="-306" font-family="Helvetica,sans-Serif" font-size="10.00">polyfem::assembler</text>
<text text-anchor="middle" x="272.5" y="-295" font-family="Helvetica,sans-Serif" font-size="10.00">::Assembler::name</text>
</a>
</g>
</g>
<!-- Node1&#45;&gt;Node25 -->
<g id="edge30_Node000001_Node000025" class="edge">
<title>Node1&#45;&gt;Node25</title>
<g id="a_edge30_Node000001_Node000025"><a xlink:title=" ">
<path fill="none" stroke="#63b8ff" d="M143.22,-287.53C163.48,-289.97 185.48,-292.63 205.45,-295.03"/>
<polygon fill="#63b8ff" stroke="#63b8ff" points="205.03,-298.51 215.38,-296.23 205.87,-291.56 205.03,-298.51"/>
</a>
</g>
</g>
<!-- Node26 -->
<g id="Node000026" class="node">
<title>Node26</title>
<g id="a_Node000026"><a xlink:href="namespacepolyfem_1_1mesh.html#a1f0a5489e7a8bc1a78e123094cb09854" target="_top" xlink:title="Orient a triangulated surface to have positive volume.">
<polygon fill="white" stroke="#666666" points="335,-270 210,-270 210,-240 335,-240 335,-270"/>
<text text-anchor="start" x="218" y="-258" font-family="Helvetica,sans-Serif" font-size="10.00">polyfem::mesh::orient</text>
<text text-anchor="middle" x="272.5" y="-247" font-family="Helvetica,sans-Serif" font-size="10.00">_closed_surface</text>
</a>
</g>
</g>
<!-- Node1&#45;&gt;Node26 -->
<g id="edge31_Node000001_Node000026" class="edge">
<title>Node1&#45;&gt;Node26</title>
<g id="a_edge31_Node000001_Node000026"><a xlink:title=" ">
<path fill="none" stroke="#63b8ff" d="M143.22,-270.47C161.6,-268.25 181.42,-265.86 199.84,-263.64"/>
<polygon fill="#63b8ff" stroke="#63b8ff" points="200.41,-267.1 209.92,-262.43 199.57,-260.15 200.41,-267.1"/>
</a>
</g>
</g>
<!-- Node28 -->
<g id="Node000028" class="node">
<title>Node28</title>
<g id="a_Node000028"><a xlink:href="classpolyfem_1_1assembler_1_1_assembler_utils.html#a80818109ce6766a1fae1733a0b2e87dc" target="_top" xlink:title="utility for retrieving the needed quadrature order to precisely integrate the given form on the given...">
<polygon fill="white" stroke="#666666" points="366,-222 179,-222 179,-192 366,-192 366,-222"/>
<text text-anchor="start" x="187" y="-210" font-family="Helvetica,sans-Serif" font-size="10.00">polyfem::assembler</text>
<text text-anchor="middle" x="272.5" y="-199" font-family="Helvetica,sans-Serif" font-size="10.00">::AssemblerUtils::quadrature_order</text>
</a>
</g>
</g>
<!-- Node1&#45;&gt;Node28 -->
<g id="edge33_Node000001_Node000028" class="edge">
<title>Node1&#45;&gt;Node28</title>
<g id="a_edge33_Node000001_Node000028"><a xlink:title=" ">
<path fill="none" stroke="#63b8ff" d="M102.24,-263.95C123.3,-253.71 152.41,-240.37 179,-231 184.96,-228.9 191.19,-226.9 197.48,-225"/>
<polygon fill="#63b8ff" stroke="#63b8ff" points="198.76,-228.28 207.38,-222.13 196.8,-221.56 198.76,-228.28"/>
</a>
</g>
</g>
<!-- Node29 -->
<g id="Node000029" class="node">
<title>Node29</title>
<g id="a_Node000029"><a xlink:href="classpolyfem_1_1basis_1_1_element_bases.html#a0a352d6eecadbe30bf82d8cc475dfeef" target="_top" xlink:title=" ">
<polygon fill="white" stroke="#666666" points="354.5,-174 190.5,-174 190.5,-144 354.5,-144 354.5,-174"/>
<text text-anchor="start" x="198.5" y="-162" font-family="Helvetica,sans-Serif" font-size="10.00">polyfem::basis::ElementBases</text>
<text text-anchor="middle" x="272.5" y="-151" font-family="Helvetica,sans-Serif" font-size="10.00">::set_bases_func</text>
</a>
</g>
</g>
<!-- Node1&#45;&gt;Node29 -->
<g id="edge34_Node000001_Node000029" class="edge">
<title>Node1&#45;&gt;Node29</title>
<g id="a_edge34_Node000001_Node000029"><a xlink:title=" ">
<path fill="none" stroke="#63b8ff" d="M84.96,-263.9C103.33,-242.64 139.76,-204.12 179,-183 182.44,-181.15 186.02,-179.44 189.7,-177.86"/>
<polygon fill="#63b8ff" stroke="#63b8ff" points="190.99,-181.11 199,-174.17 188.41,-174.6 190.99,-181.11"/>
</a>
</g>
</g>
<!-- Node30 -->
<g id="Node000030" class="node">
<title>Node30</title>
<g id="a_Node000030"><a xlink:href="classpolyfem_1_1basis_1_1_element_bases.html#aa5af92cc96cae3fdb89dbbaf20524f33" target="_top" xlink:title=" ">
<polygon fill="white" stroke="#666666" points="354.5,-126 190.5,-126 190.5,-96 354.5,-96 354.5,-126"/>
<text text-anchor="start" x="198.5" y="-114" font-family="Helvetica,sans-Serif" font-size="10.00">polyfem::basis::ElementBases</text>
<text text-anchor="middle" x="272.5" y="-103" font-family="Helvetica,sans-Serif" font-size="10.00">::set_grads_func</text>
</a>
</g>
</g>
<!-- Node1&#45;&gt;Node30 -->
<g id="edge35_Node000001_Node000030" class="edge">
<title>Node1&#45;&gt;Node30</title>
<g id="a_edge35_Node000001_Node000030"><a xlink:title=" ">
<path fill="none" stroke="#63b8ff" d="M79.42,-263.69C93.62,-234.05 129.01,-168.76 179,-135 181.31,-133.44 183.71,-131.99 186.18,-130.63"/>
<polygon fill="#63b8ff" stroke="#63b8ff" points="187.97,-133.65 195.41,-126.1 184.89,-127.36 187.97,-133.65"/>
</a>
</g>
</g>
<!-- Node31 -->
<g id="Node000031" class="node">
<title>Node31</title>
<g id="a_Node000031"><a xlink:href="classpolyfem_1_1basis_1_1_element_bases.html#ae914f65d4ff93b4c3f78f06a339ef843" target="_top" xlink:title=" ">
<polygon fill="white" stroke="#666666" points="354.5,-78 190.5,-78 190.5,-48 354.5,-48 354.5,-78"/>
<text text-anchor="start" x="198.5" y="-66" font-family="Helvetica,sans-Serif" font-size="10.00">polyfem::basis::ElementBases</text>
<text text-anchor="middle" x="272.5" y="-55" font-family="Helvetica,sans-Serif" font-size="10.00">::set_mass_quadrature</text>
</a>
</g>
</g>
<!-- Node1&#45;&gt;Node31 -->
<g id="edge36_Node000001_Node000031" class="edge">
<title>Node1&#45;&gt;Node31</title>
<g id="a_edge36_Node000001_Node000031"><a xlink:title=" ">
<path fill="none" stroke="#63b8ff" d="M76.44,-263.81C86.7,-227.35 117.83,-134.39 179,-87 180.81,-85.6 182.7,-84.27 184.64,-83.03"/>
<polygon fill="#63b8ff" stroke="#63b8ff" points="186.51,-85.99 193.52,-78.05 183.09,-79.89 186.51,-85.99"/>
</a>
</g>
</g>
<!-- Node32 -->
<g id="Node000032" class="node">
<title>Node32</title>
<g id="a_Node000032"><a xlink:href="classpolyfem_1_1basis_1_1_element_bases.html#a2f199c4f37379930fb492028060f9a1c" target="_top" xlink:title=" ">
<polygon fill="white" stroke="#666666" points="354.5,-30 190.5,-30 190.5,0 354.5,0 354.5,-30"/>
<text text-anchor="start" x="198.5" y="-18" font-family="Helvetica,sans-Serif" font-size="10.00">polyfem::basis::ElementBases</text>
<text text-anchor="middle" x="272.5" y="-7" font-family="Helvetica,sans-Serif" font-size="10.00">::set_quadrature</text>
</a>
</g>
</g>
<!-- Node1&#45;&gt;Node32 -->
<g id="edge37_Node000001_Node000032" class="edge">
<title>Node1&#45;&gt;Node32</title>
<g id="a_edge37_Node000001_Node000032"><a xlink:title=" ">
<path fill="none" stroke="#63b8ff" d="M74.6,-263.93C81.34,-221.59 106.35,-100.63 179,-39 180.52,-37.71 182.1,-36.49 183.73,-35.34"/>
<polygon fill="#63b8ff" stroke="#63b8ff" points="185.59,-38.3 192.27,-30.08 181.92,-32.34 185.59,-38.3"/>
</a>
</g>
</g>
<!-- Node3 -->
<g id="Node000003" class="node">
<title>Node3</title>
<g id="a_Node000003"><a xlink:href="classpolyfem_1_1mesh_1_1_mesh2_d.html#ac65697f6e350c21881013348cd1f6111" target="_top" xlink:title=" ">
<polygon fill="white" stroke="#666666" points="541.5,-792 405.5,-792 405.5,-762 541.5,-762 541.5,-792"/>
<text text-anchor="start" x="413.5" y="-780" font-family="Helvetica,sans-Serif" font-size="10.00">polyfem::mesh::Mesh2D</text>
<text text-anchor="middle" x="473.5" y="-769" font-family="Helvetica,sans-Serif" font-size="10.00">::get_index_from_face</text>
</a>
</g>
</g>
<!-- Node2&#45;&gt;Node3 -->
<g id="edge2_Node000002_Node000003" class="edge">
<title>Node2&#45;&gt;Node3</title>
<g id="a_edge2_Node000002_Node000003"><a xlink:title=" ">
<path fill="none" stroke="#63b8ff" d="M290.66,-674.22C314.29,-694.53 358.85,-730.54 402,-753 405.45,-754.8 409.06,-756.5 412.75,-758.11"/>
<polygon fill="#63b8ff" stroke="#63b8ff" points="411.45,-761.36 422.03,-761.92 414.11,-754.88 411.45,-761.36"/>
</a>
</g>
</g>
<!-- Node4 -->
<g id="Node000004" class="node">
<title>Node4</title>
<g id="a_Node000004"><a xlink:href="classpolyfem_1_1mesh_1_1_mesh.html#af0bb67d434e9836f4981657827cf4e39" target="_top" xlink:title="number of vertices of a face">
<polygon fill="white" stroke="#666666" points="534.5,-744 412.5,-744 412.5,-714 534.5,-714 534.5,-744"/>
<text text-anchor="start" x="420.5" y="-732" font-family="Helvetica,sans-Serif" font-size="10.00">polyfem::mesh::Mesh</text>
<text text-anchor="middle" x="473.5" y="-721" font-family="Helvetica,sans-Serif" font-size="10.00">::n_face_vertices</text>
</a>
</g>
</g>
<!-- Node2&#45;&gt;Node4 -->
<g id="edge3_Node000002_Node000004" class="edge">
<title>Node2&#45;&gt;Node4</title>
<g id="a_edge3_Node000002_Node000004"><a xlink:title=" ">
<path fill="none" stroke="#63b8ff" d="M315.11,-674.08C340.24,-683.14 372.92,-694.85 402,-705 407.26,-706.84 412.76,-708.74 418.25,-710.63"/>
<polygon fill="#63b8ff" stroke="#63b8ff" points="417.49,-714.07 428.09,-714 419.76,-707.45 417.49,-714.07"/>
</a>
</g>
</g>
<!-- Node5 -->
<g id="Node000005" class="node">
<title>Node5</title>
<g id="a_Node000005"><a xlink:href="classpolyfem_1_1mesh_1_1_mesh2_d.html#a655514850b93a4d71b22c5a301c8984b" target="_top" xlink:title=" ">
<polygon fill="white" stroke="#666666" points="541.5,-696 405.5,-696 405.5,-666 541.5,-666 541.5,-696"/>
<text text-anchor="start" x="413.5" y="-684" font-family="Helvetica,sans-Serif" font-size="10.00">polyfem::mesh::Mesh2D</text>
<text text-anchor="middle" x="473.5" y="-673" font-family="Helvetica,sans-Serif" font-size="10.00">::next_around_face</text>
</a>
</g>
</g>
<!-- Node2&#45;&gt;Node5 -->
<g id="edge4_Node000002_Node000005" class="edge">
<title>Node2&#45;&gt;Node5</title>
<g id="a_edge4_Node000002_Node000005"><a xlink:title=" ">
<path fill="none" stroke="#63b8ff" d="M341.15,-666.48C358.48,-668.39 377.25,-670.47 395.04,-672.44"/>
<polygon fill="#63b8ff" stroke="#63b8ff" points="395.05,-675.96 405.37,-673.58 395.82,-669 395.05,-675.96"/>
</a>
</g>
</g>
<!-- Node7 -->
<g id="Node000007" class="node">
<title>Node7</title>
<g id="a_Node000007"><a xlink:href="classpolyfem_1_1mesh_1_1_mesh2_d.html#a8763fa8b0b83980f2d18184895b75d42" target="_top" xlink:title=" ">
<polygon fill="white" stroke="#666666" points="731,-675 595,-675 595,-645 731,-645 731,-675"/>
<text text-anchor="start" x="603" y="-663" font-family="Helvetica,sans-Serif" font-size="10.00">polyfem::mesh::Mesh2D</text>
<text text-anchor="middle" x="663" y="-652" font-family="Helvetica,sans-Serif" font-size="10.00">::switch_vertex</text>
</a>
</g>
</g>
<!-- Node2&#45;&gt;Node7 -->
<g id="edge8_Node000002_Node000007" class="edge">
<title>Node2&#45;&gt;Node7</title>
<g id="a_edge8_Node000002_Node000007"><a xlink:title=" ">
<path fill="none" stroke="#63b8ff" d="M341,-657.75C395.94,-656.91 475.48,-656.11 545,-657 557.87,-657.16 571.54,-657.43 584.82,-657.74"/>
<polygon fill="#63b8ff" stroke="#63b8ff" points="584.79,-661.24 594.88,-657.98 584.96,-654.24 584.79,-661.24"/>
</a>
</g>
</g>
<!-- Node8 -->
<g id="Node000008" class="node">
<title>Node8</title>
<g id="a_Node000008"><a xlink:href="classpolyfem_1_1mesh_1_1_mesh.html#a564e7b06452fbb2d2abd6c1dd0bc0366" target="_top" xlink:title="point coordinates">
<polygon fill="white" stroke="#666666" points="534.5,-610 412.5,-610 412.5,-580 534.5,-580 534.5,-610"/>
<text text-anchor="start" x="420.5" y="-598" font-family="Helvetica,sans-Serif" font-size="10.00">polyfem::mesh::Mesh</text>
<text text-anchor="middle" x="473.5" y="-587" font-family="Helvetica,sans-Serif" font-size="10.00">::point</text>
</a>
</g>
</g>
<!-- Node2&#45;&gt;Node8 -->
<g id="edge7_Node000002_Node000008" class="edge">
<title>Node2&#45;&gt;Node8</title>
<g id="a_edge7_Node000002_Node000008"><a xlink:title=" ">
<path fill="none" stroke="#63b8ff" d="M320.16,-643.99C348.87,-634.76 385.86,-622.87 416.19,-613.11"/>
<polygon fill="#63b8ff" stroke="#63b8ff" points="417.34,-616.42 425.79,-610.02 415.2,-609.75 417.34,-616.42"/>
</a>
</g>
</g>
<!-- Node6 -->
<g id="Node000006" class="node">
<title>Node6</title>
<g id="a_Node000006"><a xlink:href="classpolyfem_1_1mesh_1_1_mesh2_d.html#a126b7c7206e56ae3728e1bd251fa6581" target="_top" xlink:title=" ">
<polygon fill="white" stroke="#666666" points="731,-723 595,-723 595,-693 731,-693 731,-723"/>
<text text-anchor="start" x="603" y="-711" font-family="Helvetica,sans-Serif" font-size="10.00">polyfem::mesh::Mesh2D</text>
<text text-anchor="middle" x="663" y="-700" font-family="Helvetica,sans-Serif" font-size="10.00">::switch_edge</text>
</a>
</g>
</g>
<!-- Node5&#45;&gt;Node6 -->
<g id="edge5_Node000005_Node000006" class="edge">
<title>Node5&#45;&gt;Node6</title>
<g id="a_edge5_Node000005_Node000006"><a xlink:title=" ">
<path fill="none" stroke="#63b8ff" d="M541.66,-690.67C555.61,-692.68 570.42,-694.81 584.7,-696.87"/>
<polygon fill="#63b8ff" stroke="#63b8ff" points="584.59,-700.39 594.99,-698.35 585.59,-693.46 584.59,-700.39"/>
</a>
</g>
</g>
<!-- Node5&#45;&gt;Node7 -->
<g id="edge6_Node000005_Node000007" class="edge">
<title>Node5&#45;&gt;Node7</title>
<g id="a_edge6_Node000005_Node000007"><a xlink:title=" ">
<path fill="none" stroke="#63b8ff" d="M541.66,-673.48C555.61,-671.92 570.42,-670.26 584.7,-668.66"/>
<polygon fill="#63b8ff" stroke="#63b8ff" points="585.44,-672.1 594.99,-667.5 584.66,-665.14 585.44,-672.1"/>
</a>
</g>
</g>
<!-- Node10 -->
<g id="Node000010" class="node">
<title>Node10</title>
<g id="a_Node000010"><a xlink:href="classpolyfem_1_1assembler_1_1_element_assembly_values.html#a736c84178a9391358d50b1d984440538" target="_top" xlink:title="computes the per element values at the local (ref el) points (pts) sets basis_values,...">
<polygon fill="white" stroke="#666666" points="545,-458.5 402,-458.5 402,-417.5 545,-417.5 545,-458.5"/>
<text text-anchor="start" x="410" y="-446.5" font-family="Helvetica,sans-Serif" font-size="10.00">polyfem::assembler</text>
<text text-anchor="start" x="410" y="-435.5" font-family="Helvetica,sans-Serif" font-size="10.00">::ElementAssemblyValues</text>
<text text-anchor="middle" x="473.5" y="-424.5" font-family="Helvetica,sans-Serif" font-size="10.00">::compute</text>
</a>
</g>
</g>
<!-- Node9&#45;&gt;Node10 -->
<g id="edge10_Node000009_Node000010" class="edge">
<title>Node9&#45;&gt;Node10</title>
<g id="a_edge10_Node000009_Node000010"><a xlink:title=" ">
<path fill="none" stroke="#63b8ff" d="M345.62,-434.81C360.54,-435.19 376.34,-435.58 391.54,-435.97"/>
<polygon fill="#63b8ff" stroke="#63b8ff" points="391.87,-439.48 401.95,-436.23 392.04,-432.48 391.87,-439.48"/>
</a>
</g>
</g>
<!-- Node9&#45;&gt;Node19 -->
<g id="edge21_Node000009_Node000019" class="edge">
<title>Node9&#45;&gt;Node19</title>
<g id="a_edge21_Node000009_Node000019"><a xlink:title=" ">
<path fill="none" stroke="#63b8ff" d="M342.82,-453.55C365.29,-460.21 390.03,-467.55 411.82,-474.01"/>
<polygon fill="#63b8ff" stroke="#63b8ff" points="411.02,-477.42 421.61,-476.91 413.01,-470.71 411.02,-477.42"/>
</a>
</g>
</g>
<!-- Node9&#45;&gt;Node20 -->
<g id="edge22_Node000009_Node000020" class="edge">
<title>Node9&#45;&gt;Node20</title>
<g id="a_edge22_Node000009_Node000020"><a xlink:title=" ">
<path fill="none" stroke="#63b8ff" d="M345.62,-415.24C363.83,-410.76 383.37,-405.95 401.52,-401.48"/>
<polygon fill="#63b8ff" stroke="#63b8ff" points="402.57,-404.82 411.44,-399.03 400.89,-398.03 402.57,-404.82"/>
</a>
</g>
</g>
<!-- Node9&#45;&gt;Node21 -->
<g id="edge23_Node000009_Node000021" class="edge">
<title>Node9&#45;&gt;Node21</title>
<g id="a_edge23_Node000009_Node000021"><a xlink:title=" ">
<path fill="none" stroke="#63b8ff" d="M304.59,-412.38C341.84,-387.67 403.86,-346.53 441.19,-321.77"/>
<polygon fill="#63b8ff" stroke="#63b8ff" points="443.27,-324.59 449.67,-316.14 439.4,-318.75 443.27,-324.59"/>
</a>
</g>
</g>
<!-- Node11 -->
<g id="Node000011" class="node">
<title>Node11</title>
<g id="a_Node000011"><a xlink:href="classpolyfem_1_1basis_1_1_element_bases.html#a6936d345f21ed506227618ef65dba6a6" target="_top" xlink:title="evaluate stored bases at given points on the reference element saves results to basis_values">
<polygon fill="white" stroke="#666666" points="745,-411 581,-411 581,-381 745,-381 745,-411"/>
<text text-anchor="start" x="589" y="-399" font-family="Helvetica,sans-Serif" font-size="10.00">polyfem::basis::ElementBases</text>
<text text-anchor="middle" x="663" y="-388" font-family="Helvetica,sans-Serif" font-size="10.00">::evaluate_bases</text>
</a>
</g>
</g>
<!-- Node10&#45;&gt;Node11 -->
<g id="edge11_Node000010_Node000011" class="edge">
<title>Node10&#45;&gt;Node11</title>
<g id="a_edge11_Node000010_Node000011"><a xlink:title=" ">
<path fill="none" stroke="#63b8ff" d="M545.12,-422.18C558.11,-419.27 571.73,-416.22 584.89,-413.27"/>
<polygon fill="#63b8ff" stroke="#63b8ff" points="585.86,-416.64 594.85,-411.04 584.33,-409.81 585.86,-416.64"/>
</a>
</g>
</g>
<!-- Node13 -->
<g id="Node000013" class="node">
<title>Node13</title>
<g id="a_Node000013"><a xlink:href="classpolyfem_1_1basis_1_1_element_bases.html#a731d20029949bd0255c9af1f91dfa74c" target="_top" xlink:title="evaluate gradient of stored bases at given points on the reference element saves results to basis_val...">
<polygon fill="white" stroke="#666666" points="745,-363 581,-363 581,-333 745,-333 745,-363"/>
<text text-anchor="start" x="589" y="-351" font-family="Helvetica,sans-Serif" font-size="10.00">polyfem::basis::ElementBases</text>
<text text-anchor="middle" x="663" y="-340" font-family="Helvetica,sans-Serif" font-size="10.00">::evaluate_grads</text>
</a>
</g>
</g>
<!-- Node10&#45;&gt;Node13 -->
<g id="edge13_Node000010_Node000013" class="edge">
<title>Node10&#45;&gt;Node13</title>
<g id="a_edge13_Node000010_Node000013"><a xlink:title=" ">
<path fill="none" stroke="#63b8ff" d="M528.75,-417.47C534.4,-414.59 539.93,-411.42 545,-408 563.75,-395.34 561.55,-383.57 581,-372 583.84,-370.31 586.8,-368.74 589.85,-367.26"/>
<polygon fill="#63b8ff" stroke="#63b8ff" points="591.44,-370.39 599.19,-363.16 588.63,-363.98 591.44,-370.39"/>
</a>
</g>
</g>
<!-- Node15 -->
<g id="Node000015" class="node">
<title>Node15</title>
<g id="a_Node000015"><a xlink:href="classpolyfem_1_1assembler_1_1_element_assembly_values.html#a7ce3e8b5fceffa5bdde29ca3ac79459b" target="_top" xlink:title="void finalize(const Eigen::MatrixXd &amp;v, const Eigen::MatrixXd &amp;dx, const Eigen::MatrixXd &amp;dy); void f...">
<polygon fill="white" stroke="#666666" points="734.5,-626.5 591.5,-626.5 591.5,-585.5 734.5,-585.5 734.5,-626.5"/>
<text text-anchor="start" x="599.5" y="-614.5" font-family="Helvetica,sans-Serif" font-size="10.00">polyfem::assembler</text>
<text text-anchor="start" x="599.5" y="-603.5" font-family="Helvetica,sans-Serif" font-size="10.00">::ElementAssemblyValues</text>
<text text-anchor="middle" x="663" y="-592.5" font-family="Helvetica,sans-Serif" font-size="10.00">::finalize2d</text>
</a>
</g>
</g>
<!-- Node10&#45;&gt;Node15 -->
<g id="edge15_Node000010_Node000015" class="edge">
<title>Node10&#45;&gt;Node15</title>
<g id="a_edge15_Node000010_Node000015"><a xlink:title=" ">
<path fill="none" stroke="#63b8ff" d="M534.03,-458.58C538.03,-461.35 541.76,-464.48 545,-468 579.54,-505.55 545.37,-540.48 581,-577 581.78,-577.8 582.59,-578.58 583.42,-579.34"/>
<polygon fill="#63b8ff" stroke="#63b8ff" points="581.36,-582.18 591.39,-585.6 585.69,-576.67 581.36,-582.18"/>
</a>
</g>
</g>
<!-- Node16 -->
<g id="Node000016" class="node">
<title>Node16</title>
<g id="a_Node000016"><a xlink:href="classpolyfem_1_1basis_1_1_basis.html#a88b90af0c63d52f2c91fe97a63c540ce" target="_top" xlink:title=" ">
<polygon fill="white" stroke="#666666" points="923.5,-562 802.5,-562 802.5,-532 923.5,-532 923.5,-562"/>
<text text-anchor="start" x="810.5" y="-550" font-family="Helvetica,sans-Serif" font-size="10.00">polyfem::basis::Basis</text>
<text text-anchor="middle" x="863" y="-539" font-family="Helvetica,sans-Serif" font-size="10.00">::global</text>
</a>
</g>
</g>
<!-- Node10&#45;&gt;Node16 -->
<g id="edge20_Node000010_Node000016" class="edge">
<title>Node10&#45;&gt;Node16</title>
<g id="a_edge20_Node000010_Node000016"><a xlink:title=" ">
<path fill="none" stroke="#63b8ff" d="M545.2,-432.86C601.19,-431.26 680.45,-434.62 745,-459 782.69,-473.24 818.57,-503.59 840.43,-524.64"/>
<polygon fill="#63b8ff" stroke="#63b8ff" points="838.24,-527.4 847.82,-531.92 843.15,-522.41 838.24,-527.4"/>
</a>
</g>
</g>
<!-- Node17 -->
<g id="Node000017" class="node">
<title>Node17</title>
<g id="a_Node000017"><a xlink:href="classpolyfem_1_1assembler_1_1_element_assembly_values.html#af2830b447f50401acd4e69a57a4b235b" target="_top" xlink:title=" ">
<polygon fill="white" stroke="#666666" points="734.5,-567.5 591.5,-567.5 591.5,-526.5 734.5,-526.5 734.5,-567.5"/>
<text text-anchor="start" x="599.5" y="-555.5" font-family="Helvetica,sans-Serif" font-size="10.00">polyfem::assembler</text>
<text text-anchor="start" x="599.5" y="-544.5" font-family="Helvetica,sans-Serif" font-size="10.00">::ElementAssemblyValues</text>
<text text-anchor="middle" x="663" y="-533.5" font-family="Helvetica,sans-Serif" font-size="10.00">::finalize3d</text>
</a>
</g>
</g>
<!-- Node10&#45;&gt;Node17 -->
<g id="edge17_Node000010_Node000017" class="edge">
<title>Node10&#45;&gt;Node17</title>
<g id="a_edge17_Node000010_Node000017"><a xlink:title=" ">
<path fill="none" stroke="#63b8ff" d="M530.78,-458.53C535.81,-461.36 540.64,-464.51 545,-468 566.39,-485.1 559.12,-501.53 581,-518 582.39,-519.05 583.83,-520.06 585.3,-521.04"/>
<polygon fill="#63b8ff" stroke="#63b8ff" points="583.68,-524.15 594.06,-526.29 587.28,-518.15 583.68,-524.15"/>
</a>
</g>
</g>
<!-- Node18 -->
<g id="Node000018" class="node">
<title>Node18</title>
<g id="a_Node000018"><a xlink:href="classpolyfem_1_1assembler_1_1_element_assembly_values.html#abfc70df83b8de385510064a839273131" target="_top" xlink:title=" ">
<polygon fill="white" stroke="#666666" points="734.5,-508.5 591.5,-508.5 591.5,-467.5 734.5,-467.5 734.5,-508.5"/>
<text text-anchor="start" x="599.5" y="-496.5" font-family="Helvetica,sans-Serif" font-size="10.00">polyfem::assembler</text>
<text text-anchor="start" x="599.5" y="-485.5" font-family="Helvetica,sans-Serif" font-size="10.00">::ElementAssemblyValues</text>
<text text-anchor="middle" x="663" y="-474.5" font-family="Helvetica,sans-Serif" font-size="10.00">::finalize_global_element</text>
</a>
</g>
</g>
<!-- Node10&#45;&gt;Node18 -->
<g id="edge19_Node000010_Node000018" class="edge">
<title>Node10&#45;&gt;Node18</title>
<g id="a_edge19_Node000010_Node000018"><a xlink:title=" ">
<path fill="none" stroke="#63b8ff" d="M545.12,-456.83C557.08,-460.02 569.57,-463.35 581.76,-466.6"/>
<polygon fill="#63b8ff" stroke="#63b8ff" points="580.88,-469.99 591.45,-469.19 582.68,-463.23 580.88,-469.99"/>
</a>
</g>
</g>
<!-- Node12 -->
<g id="Node000012" class="node">
<title>Node12</title>
<g id="a_Node000012"><a xlink:href="classpolyfem_1_1basis_1_1_element_bases.html#a9d6e4fd2a6d6491fed600c2a26680d89" target="_top" xlink:title="default to simply calling the Basis evaluation functions">
<polygon fill="white" stroke="#666666" points="945,-411 781,-411 781,-381 945,-381 945,-411"/>
<text text-anchor="start" x="789" y="-399" font-family="Helvetica,sans-Serif" font-size="10.00">polyfem::basis::ElementBases</text>
<text text-anchor="middle" x="863" y="-388" font-family="Helvetica,sans-Serif" font-size="10.00">::evaluate_bases_default</text>
</a>
</g>
</g>
<!-- Node11&#45;&gt;Node12 -->
<g id="edge12_Node000011_Node000012" class="edge">
<title>Node11&#45;&gt;Node12</title>
<g id="a_edge12_Node000011_Node000012"><a xlink:title=" ">
<path fill="none" stroke="#63b8ff" d="M745.11,-396C753.46,-396 761.99,-396 770.44,-396"/>
<polygon fill="#63b8ff" stroke="#63b8ff" points="770.7,-399.5 780.7,-396 770.7,-392.5 770.7,-399.5"/>
</a>
</g>
</g>
<!-- Node14 -->
<g id="Node000014" class="node">
<title>Node14</title>
<g id="a_Node000014"><a xlink:href="classpolyfem_1_1basis_1_1_element_bases.html#aae3b739e75920739799e866e4b0c448c" target="_top" xlink:title=" ">
<polygon fill="white" stroke="#666666" points="945,-363 781,-363 781,-333 945,-333 945,-363"/>
<text text-anchor="start" x="789" y="-351" font-family="Helvetica,sans-Serif" font-size="10.00">polyfem::basis::ElementBases</text>
<text text-anchor="middle" x="863" y="-340" font-family="Helvetica,sans-Serif" font-size="10.00">::evaluate_grads_default</text>
</a>
</g>
</g>
<!-- Node13&#45;&gt;Node14 -->
<g id="edge14_Node000013_Node000014" class="edge">
<title>Node13&#45;&gt;Node14</title>
<g id="a_edge14_Node000013_Node000014"><a xlink:title=" ">
<path fill="none" stroke="#63b8ff" d="M745.11,-348C753.46,-348 761.99,-348 770.44,-348"/>
<polygon fill="#63b8ff" stroke="#63b8ff" points="770.7,-351.5 780.7,-348 770.7,-344.5 770.7,-351.5"/>
</a>
</g>
</g>
<!-- Node15&#45;&gt;Node16 -->
<g id="edge16_Node000015_Node000016" class="edge">
<title>Node15&#45;&gt;Node16</title>
<g id="a_edge16_Node000015_Node000016"><a xlink:title=" ">
<path fill="none" stroke="#63b8ff" d="M732.97,-585.45C755.33,-578.79 779.94,-571.45 801.63,-564.99"/>
<polygon fill="#63b8ff" stroke="#63b8ff" points="802.78,-568.3 811.36,-562.09 800.78,-561.59 802.78,-568.3"/>
</a>
</g>
</g>
<!-- Node17&#45;&gt;Node16 -->
<g id="edge18_Node000017_Node000016" class="edge">
<title>Node17&#45;&gt;Node16</title>
<g id="a_edge18_Node000017_Node000016"><a xlink:title=" ">
<path fill="none" stroke="#63b8ff" d="M734.64,-547C753.29,-547 773.41,-547 792.02,-547"/>
<polygon fill="#63b8ff" stroke="#63b8ff" points="792.18,-550.5 802.18,-547 792.18,-543.5 792.18,-550.5"/>
</a>
</g>
</g>
<!-- Node22 -->
<g id="Node000022" class="node">
<title>Node22</title>
<g id="a_Node000022"><a xlink:href="classpolyfem_1_1mesh_1_1_mesh.html#a93c9ea4759ded33a8f25ff157033cfd9" target="_top" xlink:title="checks if mesh is volume">
<polygon fill="white" stroke="#666666" points="724,-315 602,-315 602,-285 724,-285 724,-315"/>
<text text-anchor="start" x="610" y="-303" font-family="Helvetica,sans-Serif" font-size="10.00">polyfem::mesh::Mesh</text>
<text text-anchor="middle" x="663" y="-292" font-family="Helvetica,sans-Serif" font-size="10.00">::is_volume</text>
</a>
</g>
</g>
<!-- Node21&#45;&gt;Node22 -->
<g id="edge24_Node000021_Node000022" class="edge">
<title>Node21&#45;&gt;Node22</title>
<g id="a_edge24_Node000021_Node000022"><a xlink:title=" ">
<path fill="none" stroke="#63b8ff" d="M534.6,-300.68C552.85,-300.58 573.06,-300.47 591.91,-300.37"/>
<polygon fill="#63b8ff" stroke="#63b8ff" points="591.94,-303.87 601.92,-300.32 591.9,-296.87 591.94,-303.87"/>
</a>
</g>
</g>
<!-- Node23 -->
<g id="Node000023" class="node">
<title>Node23</title>
<g id="a_Node000023"><a xlink:href="classpolyfem_1_1mesh_1_1_mesh.html#aaf5c9547e7891266b92e6f1a2ac5d697" target="_top" xlink:title="number of cells">
<polygon fill="white" stroke="#666666" points="724,-267 602,-267 602,-237 724,-237 724,-267"/>
<text text-anchor="start" x="610" y="-255" font-family="Helvetica,sans-Serif" font-size="10.00">polyfem::mesh::Mesh</text>
<text text-anchor="middle" x="663" y="-244" font-family="Helvetica,sans-Serif" font-size="10.00">::n_cells</text>
</a>
</g>
</g>
<!-- Node21&#45;&gt;Node23 -->
<g id="edge25_Node000021_Node000023" class="edge">
<title>Node21&#45;&gt;Node23</title>
<g id="a_edge25_Node000021_Node000023"><a xlink:title=" ">
<path fill="none" stroke="#63b8ff" d="M532.03,-285.97C551.83,-280.79 574.17,-274.95 594.68,-269.59"/>
<polygon fill="#63b8ff" stroke="#63b8ff" points="595.79,-272.92 604.58,-267.01 594.02,-266.15 595.79,-272.92"/>
</a>
</g>
</g>
<!-- Node24 -->
<g id="Node000024" class="node">
<title>Node24</title>
<g id="a_Node000024"><a xlink:href="classpolyfem_1_1mesh_1_1_mesh.html#abf0f721370d6dc7401113e92fe94f4e2" target="_top" xlink:title="number of faces">
<polygon fill="white" stroke="#666666" points="724,-219 602,-219 602,-189 724,-189 724,-219"/>
<text text-anchor="start" x="610" y="-207" font-family="Helvetica,sans-Serif" font-size="10.00">polyfem::mesh::Mesh</text>
<text text-anchor="middle" x="663" y="-196" font-family="Helvetica,sans-Serif" font-size="10.00">::n_faces</text>
</a>
</g>
</g>
<!-- Node21&#45;&gt;Node24 -->
<g id="edge26_Node000021_Node000024" class="edge">
<title>Node21&#45;&gt;Node24</title>
<g id="a_edge26_Node000021_Node000024"><a xlink:title=" ">
<path fill="none" stroke="#63b8ff" d="M529.67,-285.98C535.09,-283.41 540.31,-280.44 545,-277 566.79,-261.02 558.89,-243.54 581,-228 584.68,-225.42 588.63,-223.11 592.75,-221.04"/>
<polygon fill="#63b8ff" stroke="#63b8ff" points="594.28,-224.19 601.98,-216.91 591.42,-217.81 594.28,-224.19"/>
</a>
</g>
</g>
<!-- Node27 -->
<g id="Node000027" class="node">
<title>Node27</title>
<g id="a_Node000027"><a xlink:href="namespacepolyfem_1_1mesh.html#a3366f41b53c326c7a196eea55d0c5c13" target="_top" xlink:title="Compute the signed volume of a surface mesh.">
<polygon fill="white" stroke="#666666" points="537.5,-268 409.5,-268 409.5,-238 537.5,-238 537.5,-268"/>
<text text-anchor="start" x="417.5" y="-256" font-family="Helvetica,sans-Serif" font-size="10.00">polyfem::mesh::signed</text>
<text text-anchor="middle" x="473.5" y="-245" font-family="Helvetica,sans-Serif" font-size="10.00">_volume</text>
</a>
</g>
</g>
<!-- Node26&#45;&gt;Node27 -->
<g id="edge32_Node000026_Node000027" class="edge">
<title>Node26&#45;&gt;Node27</title>
<g id="a_edge32_Node000026_Node000027"><a xlink:title=" ">
<path fill="none" stroke="#63b8ff" d="M335.1,-254.38C355.41,-254.18 378.19,-253.95 399.28,-253.74"/>
<polygon fill="#63b8ff" stroke="#63b8ff" points="399.51,-257.23 409.47,-253.63 399.44,-250.23 399.51,-257.23"/>
</a>
</g>
</g>
</g>
</svg>
