<?xml version="1.0" encoding="UTF-8" standalone="no"?>
<!DOCTYPE svg PUBLIC "-//W3C//DTD SVG 1.1//EN"
 "http://www.w3.org/Graphics/SVG/1.1/DTD/svg11.dtd">
<!-- Generated by graphviz version 2.43.0 (0)
 -->
<!-- Title: polyfem::solver::ShapeVariableToSimulation::compute_adjoint_term Pages: 1 -->
<!--zoomable 656 -->

<svg id="main" version="1.1" xmlns="http://www.w3.org/2000/svg" xmlns:xlink="http://www.w3.org/1999/xlink" xml:space="preserve" onload="init(evt)">
<style type="text/css"><![CDATA[
.node, .edge {opacity: 0.7;}
.node.selected, .edge.selected {opacity: 1;}
.edge:hover path { stroke: red; }
.edge:hover polygon { stroke: red; fill: red; }
]]></style>

<defs>
  <circle id="rim" cx="0" cy="0" r="7"/>
  <circle id="rim2" cx="0" cy="0" r="3.5"/>
  <g id="zoomPlus">
    <use xlink:href="#rim" fill="#404040"><set attributeName="fill" to="#808080" begin="zoomplus.mouseover" end="zoomplus.mouseout"/></use>
    <path d="M-4,0h8M0,-4v8" fill="none" stroke="white" stroke-width="1.5" pointer-events="none"/>
  </g>
  <g id="zoomMin">
    <use xlink:href="#rim" fill="#404040"><set attributeName="fill" to="#808080" begin="zoomminus.mouseover" end="zoomminus.mouseout"/></use>
    <path d="M-4,0h8" fill="none" stroke="white" stroke-width="1.5" pointer-events="none"/>
  </g>
  <g id="arrowUp" transform="translate(30 24)">
    <use xlink:href="#rim"/>
    <path pointer-events="none" fill="none" stroke="white" stroke-width="1.5" d="M0,-3.0v7 M-2.5,-0.5L0,-3.0L2.5,-0.5"/>
  </g>
  <g id="arrowRight" transform="rotate(90) translate(36 -43)">
    <use xlink:href="#rim"/>
    <path pointer-events="none" fill="none" stroke="white" stroke-width="1.5" d="M0,-3.0v7 M-2.5,-0.5L0,-3.0L2.5,-0.5"/>
  </g>
  <g id="arrowDown" transform="rotate(180) translate(-30 -48)">
    <use xlink:href="#rim"/>
    <path pointer-events="none" fill="none" stroke="white" stroke-width="1.5" d="M0,-3.0v7 M-2.5,-0.5L0,-3.0L2.5,-0.5"/>
  </g>
  <g id="arrowLeft" transform="rotate(270) translate(-36 17)">
    <use xlink:href="#rim"/>
    <path pointer-events="none" fill="none" stroke="white" stroke-width="1.5" d="M0,-3.0v7 M-2.5,-0.5L0,-3.0L2.5,-0.5"/>
  </g>
  <g id="resetDef">
    <use xlink:href="#rim2" fill="#404040"><set attributeName="fill" to="#808080" begin="reset.mouseover" end="reset.mouseout"/></use>
  </g>
</defs>
<script type="application/ecmascript">
var viewWidth = 987;
var viewHeight = 656;
var sectionId = 'dynsection-2';
</script>
<script type="application/ecmascript" xlink:href="svg.min.js"/>
<svg id="graph" class="graph">
<g id="viewport">
<title>polyfem::solver::ShapeVariableToSimulation::compute_adjoint_term</title>
<!-- Node1 -->
<g id="Node000001" class="node">
<title>Node1</title>
<g id="a_Node000001"><a xlink:title=" ">
<polygon fill="#999999" stroke="#666666" points="196,-383 0,-383 0,-353 196,-353 196,-383"/>
<text text-anchor="start" x="8" y="-371" font-family="Helvetica,sans-Serif" font-size="10.00">polyfem::solver::ShapeVariable</text>
<text text-anchor="middle" x="98" y="-360" font-family="Helvetica,sans-Serif" font-size="10.00">ToSimulation::compute_adjoint_term</text>
</a>
</g>
</g>
<!-- Node2 -->
<g id="Node000002" class="node">
<title>Node2</title>
<g id="a_Node000002"><a xlink:href="classpolyfem_1_1solver_1_1_variable_to_simulation.html#a1468ee2e131cb52898bae709938cc9e0" target="_top" xlink:title=" ">
<polygon fill="white" stroke="#666666" points="428,-528.5 232,-528.5 232,-487.5 428,-487.5 428,-528.5"/>
<text text-anchor="start" x="240" y="-516.5" font-family="Helvetica,sans-Serif" font-size="10.00">polyfem::solver::Variable</text>
<text text-anchor="start" x="240" y="-505.5" font-family="Helvetica,sans-Serif" font-size="10.00">ToSimulation::apply_parametrization</text>
<text text-anchor="middle" x="330" y="-494.5" font-family="Helvetica,sans-Serif" font-size="10.00">_jacobian</text>
</a>
</g>
</g>
<!-- Node1&#45;&gt;Node2 -->
<g id="edge1_Node000001_Node000002" class="edge">
<title>Node1&#45;&gt;Node2</title>
<g id="a_edge1_Node000001_Node000002"><a xlink:title=" ">
<path fill="none" stroke="#63b8ff" d="M124.05,-383.25C163.07,-407 238.82,-453.11 286.5,-482.13"/>
<polygon fill="#63b8ff" stroke="#63b8ff" points="284.7,-485.13 295.06,-487.34 288.34,-479.15 284.7,-485.13"/>
</a>
</g>
</g>
<!-- Node9 -->
<g id="Node000009" class="node">
<title>Node9</title>
<g id="a_Node000009"><a xlink:href="classpolyfem_1_1solver_1_1_adjoint_tools.html#addcc05e296f84fac4d2feef6b6efe330" target="_top" xlink:title=" ">
<polygon fill="white" stroke="#666666" points="397,-388.5 263,-388.5 263,-347.5 397,-347.5 397,-388.5"/>
<text text-anchor="start" x="271" y="-376.5" font-family="Helvetica,sans-Serif" font-size="10.00">polyfem::solver::Adjoint</text>
<text text-anchor="start" x="271" y="-365.5" font-family="Helvetica,sans-Serif" font-size="10.00">Tools::dJ_shape_static</text>
<text text-anchor="middle" x="330" y="-354.5" font-family="Helvetica,sans-Serif" font-size="10.00">_adjoint_term</text>
</a>
</g>
</g>
<!-- Node1&#45;&gt;Node9 -->
<g id="edge9_Node000001_Node000009" class="edge">
<title>Node1&#45;&gt;Node9</title>
<g id="a_edge9_Node000001_Node000009"><a xlink:title=" ">
<path fill="none" stroke="#63b8ff" d="M196.21,-368C215.05,-368 234.55,-368 252.61,-368"/>
<polygon fill="#63b8ff" stroke="#63b8ff" points="252.77,-371.5 262.77,-368 252.77,-364.5 252.77,-371.5"/>
</a>
</g>
</g>
<!-- Node17 -->
<g id="Node000017" class="node">
<title>Node17</title>
<g id="a_Node000017"><a xlink:href="classpolyfem_1_1solver_1_1_adjoint_tools.html#abeb523ee2bef0856b888bb49c5cdca8f" target="_top" xlink:title=" ">
<polygon fill="white" stroke="#666666" points="400,-278.5 260,-278.5 260,-237.5 400,-237.5 400,-278.5"/>
<text text-anchor="start" x="268" y="-266.5" font-family="Helvetica,sans-Serif" font-size="10.00">polyfem::solver::Adjoint</text>
<text text-anchor="start" x="268" y="-255.5" font-family="Helvetica,sans-Serif" font-size="10.00">Tools::dJ_shape_transient</text>
<text text-anchor="middle" x="330" y="-244.5" font-family="Helvetica,sans-Serif" font-size="10.00">_adjoint_term</text>
</a>
</g>
</g>
<!-- Node1&#45;&gt;Node17 -->
<g id="edge17_Node000001_Node000017" class="edge">
<title>Node1&#45;&gt;Node17</title>
<g id="a_edge17_Node000001_Node000017"><a xlink:title=" ">
<path fill="none" stroke="#63b8ff" d="M130.5,-352.94C168.14,-334.93 231.66,-304.55 276.71,-283.01"/>
<polygon fill="#63b8ff" stroke="#63b8ff" points="278.23,-286.16 285.74,-278.69 275.21,-279.85 278.23,-286.16"/>
</a>
</g>
</g>
<!-- Node3 -->
<g id="Node000003" class="node">
<title>Node3</title>
<g id="a_Node000003"><a xlink:href="classpolyfem_1_1solver_1_1_composite_parametrization.html#a34d19dcd05175faa19ced87215c969be" target="_top" xlink:title=" ">
<polygon fill="white" stroke="#666666" points="619,-528.5 467,-528.5 467,-487.5 619,-487.5 619,-528.5"/>
<text text-anchor="start" x="475" y="-516.5" font-family="Helvetica,sans-Serif" font-size="10.00">polyfem::solver::Composite</text>
<text text-anchor="start" x="475" y="-505.5" font-family="Helvetica,sans-Serif" font-size="10.00">Parametrization::apply</text>
<text text-anchor="middle" x="543" y="-494.5" font-family="Helvetica,sans-Serif" font-size="10.00">_jacobian</text>
</a>
</g>
</g>
<!-- Node2&#45;&gt;Node3 -->
<g id="edge2_Node000002_Node000003" class="edge">
<title>Node2&#45;&gt;Node3</title>
<g id="a_edge2_Node000002_Node000003"><a xlink:title=" ">
<path fill="none" stroke="#63b8ff" d="M428.16,-508C437.69,-508 447.32,-508 456.72,-508"/>
<polygon fill="#63b8ff" stroke="#63b8ff" points="456.82,-511.5 466.82,-508 456.82,-504.5 456.82,-511.5"/>
</a>
</g>
</g>
<!-- Node4 -->
<g id="Node000004" class="node">
<title>Node4</title>
<g id="a_Node000004"><a xlink:href="classpolyfem_1_1solver_1_1_variable_to_simulation.html#add1131a5cecca74b48bf4d0a0fa9cddb" target="_top" xlink:title=" ">
<polygon fill="white" stroke="#666666" points="612.5,-605.5 473.5,-605.5 473.5,-564.5 612.5,-564.5 612.5,-605.5"/>
<text text-anchor="start" x="481.5" y="-593.5" font-family="Helvetica,sans-Serif" font-size="10.00">polyfem::solver::Variable</text>
<text text-anchor="start" x="481.5" y="-582.5" font-family="Helvetica,sans-Serif" font-size="10.00">ToSimulation::get_output</text>
<text text-anchor="middle" x="543" y="-571.5" font-family="Helvetica,sans-Serif" font-size="10.00">_indexing</text>
</a>
</g>
</g>
<!-- Node2&#45;&gt;Node4 -->
<g id="edge4_Node000002_Node000004" class="edge">
<title>Node2&#45;&gt;Node4</title>
<g id="a_edge4_Node000002_Node000004"><a xlink:title=" ">
<path fill="none" stroke="#63b8ff" d="M387.27,-528.53C414.58,-538.5 447.56,-550.54 476.05,-560.93"/>
<polygon fill="#63b8ff" stroke="#63b8ff" points="474.93,-564.25 485.52,-564.39 477.33,-557.67 474.93,-564.25"/>
</a>
</g>
</g>
<!-- Node3&#45;&gt;Node3 -->
<g id="edge3_Node000003_Node000003" class="edge">
<title>Node3&#45;&gt;Node3</title>
<g id="a_edge3_Node000003_Node000003"><a xlink:title=" ">
<path fill="none" stroke="#63b8ff" d="M508.08,-528.6C504.27,-538.15 515.91,-546.5 543,-546.5 559.93,-546.5 570.83,-543.24 575.69,-538.46"/>
<polygon fill="#63b8ff" stroke="#63b8ff" points="579.13,-539.12 577.92,-528.6 572.3,-537.58 579.13,-539.12"/>
</a>
</g>
</g>
<!-- Node5 -->
<g id="Node000005" class="node">
<title>Node5</title>
<g id="a_Node000005"><a xlink:href="namespacepolyfem.html#a8d6eb2c01f97c327e382b6dcda332777" target="_top" xlink:title=" ">
<polygon fill="white" stroke="#666666" points="801,-648 667,-648 667,-618 801,-618 801,-648"/>
<text text-anchor="start" x="675" y="-636" font-family="Helvetica,sans-Serif" font-size="10.00">polyfem::log_and_throw</text>
<text text-anchor="middle" x="734" y="-625" font-family="Helvetica,sans-Serif" font-size="10.00">_adjoint_error</text>
</a>
</g>
</g>
<!-- Node4&#45;&gt;Node5 -->
<g id="edge5_Node000004_Node000005" class="edge">
<title>Node4&#45;&gt;Node5</title>
<g id="a_edge5_Node000004_Node000005"><a xlink:title=" ">
<path fill="none" stroke="#63b8ff" d="M612.5,-602.4C629.28,-606.66 647.24,-611.22 664.04,-615.49"/>
<polygon fill="#63b8ff" stroke="#63b8ff" points="663.23,-618.89 673.78,-617.96 664.95,-612.11 663.23,-618.89"/>
</a>
</g>
</g>
<!-- Node7 -->
<g id="Node000007" class="node">
<title>Node7</title>
<g id="a_Node000007"><a xlink:href="classpolyfem_1_1solver_1_1_variable_to_simulation.html#adb558dcc6027a3fda5f8cb0ca8c43df8" target="_top" xlink:title=" ">
<polygon fill="white" stroke="#666666" points="803.5,-600 664.5,-600 664.5,-570 803.5,-570 803.5,-600"/>
<text text-anchor="start" x="672.5" y="-588" font-family="Helvetica,sans-Serif" font-size="10.00">polyfem::solver::Variable</text>
<text text-anchor="middle" x="734" y="-577" font-family="Helvetica,sans-Serif" font-size="10.00">ToSimulation::name</text>
</a>
</g>
</g>
<!-- Node4&#45;&gt;Node7 -->
<g id="edge7_Node000004_Node000007" class="edge">
<title>Node4&#45;&gt;Node7</title>
<g id="a_edge7_Node000004_Node000007"><a xlink:title=" ">
<path fill="none" stroke="#63b8ff" d="M612.5,-585C626.1,-585 640.48,-585 654.39,-585"/>
<polygon fill="#63b8ff" stroke="#63b8ff" points="654.42,-588.5 664.42,-585 654.42,-581.5 654.42,-588.5"/>
</a>
</g>
</g>
<!-- Node8 -->
<g id="Node000008" class="node">
<title>Node8</title>
<g id="a_Node000008"><a xlink:href="classpolyfem_1_1solver_1_1_composite_parametrization.html#a0444e6671378eaf12bc3c0e2a4601aa2" target="_top" xlink:title=" ">
<polygon fill="white" stroke="#666666" points="810,-552 658,-552 658,-522 810,-522 810,-552"/>
<text text-anchor="start" x="666" y="-540" font-family="Helvetica,sans-Serif" font-size="10.00">polyfem::solver::Composite</text>
<text text-anchor="middle" x="734" y="-529" font-family="Helvetica,sans-Serif" font-size="10.00">Parametrization::size</text>
</a>
</g>
</g>
<!-- Node4&#45;&gt;Node8 -->
<g id="edge8_Node000004_Node000008" class="edge">
<title>Node4&#45;&gt;Node8</title>
<g id="a_edge8_Node000004_Node000008"><a xlink:title=" ">
<path fill="none" stroke="#63b8ff" d="M612.5,-567.6C629.28,-563.34 647.24,-558.78 664.04,-554.51"/>
<polygon fill="#63b8ff" stroke="#63b8ff" points="664.95,-557.89 673.78,-552.04 663.23,-551.11 664.95,-557.89"/>
</a>
</g>
</g>
<!-- Node6 -->
<g id="Node000006" class="node">
<title>Node6</title>
<g id="a_Node000006"><a xlink:href="namespacepolyfem.html#a4d64be939c7759c782fff98ed87f3399" target="_top" xlink:title="Retrieves the current logger for adjoint.">
<polygon fill="white" stroke="#666666" points="979,-642.5 846,-642.5 846,-623.5 979,-623.5 979,-642.5"/>
<text text-anchor="middle" x="912.5" y="-630.5" font-family="Helvetica,sans-Serif" font-size="10.00">polyfem::adjoint_logger</text>
</a>
</g>
</g>
<!-- Node5&#45;&gt;Node6 -->
<g id="edge6_Node000005_Node000006" class="edge">
<title>Node5&#45;&gt;Node6</title>
<g id="a_edge6_Node000005_Node000006"><a xlink:title=" ">
<path fill="none" stroke="#63b8ff" d="M801.22,-633C812.5,-633 824.28,-633 835.78,-633"/>
<polygon fill="#63b8ff" stroke="#63b8ff" points="835.78,-636.5 845.78,-633 835.78,-629.5 835.78,-636.5"/>
</a>
</g>
</g>
<!-- Node10 -->
<g id="Node000010" class="node">
<title>Node10</title>
<g id="a_Node000010"><a xlink:href="classpolyfem_1_1solver_1_1_diff_cache.html#ada5c9ff785847e0e33fd08c8ac0e5433" target="_top" xlink:title=" ">
<polygon fill="white" stroke="#666666" points="616,-297 470,-297 470,-267 616,-267 616,-297"/>
<text text-anchor="start" x="478" y="-285" font-family="Helvetica,sans-Serif" font-size="10.00">polyfem::solver::DiffCache</text>
<text text-anchor="middle" x="543" y="-274" font-family="Helvetica,sans-Serif" font-size="10.00">::contact_set</text>
</a>
</g>
</g>
<!-- Node9&#45;&gt;Node10 -->
<g id="edge10_Node000009_Node000010" class="edge">
<title>Node9&#45;&gt;Node10</title>
<g id="a_edge10_Node000009_Node000010"><a xlink:title=" ">
<path fill="none" stroke="#63b8ff" d="M372.38,-347.47C398.35,-334.97 432.74,-319.13 464,-307 469.83,-304.74 475.96,-302.52 482.11,-300.39"/>
<polygon fill="#63b8ff" stroke="#63b8ff" points="483.4,-303.64 491.76,-297.12 481.16,-297.01 483.4,-303.64"/>
</a>
</g>
</g>
<!-- Node12 -->
<g id="Node000012" class="node">
<title>Node12</title>
<g id="a_Node000012"><a xlink:href="namespacepolyfem_1_1utils.html#adac090350174847f46edfd397abd4ab4" target="_top" xlink:title="Flatten rowwises.">
<polygon fill="white" stroke="#666666" points="604,-420.5 482,-420.5 482,-401.5 604,-401.5 604,-420.5"/>
<text text-anchor="middle" x="543" y="-408.5" font-family="Helvetica,sans-Serif" font-size="10.00">polyfem::utils::flatten</text>
</a>
</g>
</g>
<!-- Node9&#45;&gt;Node12 -->
<g id="edge12_Node000009_Node000012" class="edge">
<title>Node9&#45;&gt;Node12</title>
<g id="a_edge12_Node000009_Node000012"><a xlink:title=" ">
<path fill="none" stroke="#63b8ff" d="M397.18,-381.49C425.37,-387.23 457.92,-393.87 485.02,-399.39"/>
<polygon fill="#63b8ff" stroke="#63b8ff" points="484.62,-402.88 495.11,-401.45 486.01,-396.02 484.62,-402.88"/>
</a>
</g>
</g>
<!-- Node13 -->
<g id="Node000013" class="node">
<title>Node13</title>
<g id="a_Node000013"><a xlink:href="classpolyfem_1_1_state.html#ae48e7478cf500860b285dfc3f4a80fee" target="_top" xlink:title="does the simulation has contact">
<polygon fill="white" stroke="#666666" points="594.5,-383 491.5,-383 491.5,-353 594.5,-353 594.5,-383"/>
<text text-anchor="start" x="499.5" y="-371" font-family="Helvetica,sans-Serif" font-size="10.00">polyfem::State::is</text>
<text text-anchor="middle" x="543" y="-360" font-family="Helvetica,sans-Serif" font-size="10.00">_contact_enabled</text>
</a>
</g>
</g>
<!-- Node9&#45;&gt;Node13 -->
<g id="edge13_Node000009_Node000013" class="edge">
<title>Node9&#45;&gt;Node13</title>
<g id="a_edge13_Node000009_Node000013"><a xlink:title=" ">
<path fill="none" stroke="#63b8ff" d="M397.18,-368C424.07,-368 454.93,-368 481.24,-368"/>
<polygon fill="#63b8ff" stroke="#63b8ff" points="481.46,-371.5 491.46,-368 481.46,-364.5 481.46,-371.5"/>
</a>
</g>
</g>
<!-- Node14 -->
<g id="Node000014" class="node">
<title>Node14</title>
<g id="a_Node000014"><a xlink:href="classpolyfem_1_1_state.html#a5eaa1d1e994fd9fe2ef287e1d623fe67" target="_top" xlink:title=" ">
<polygon fill="white" stroke="#666666" points="612.5,-469 473.5,-469 473.5,-439 612.5,-439 612.5,-469"/>
<text text-anchor="start" x="481.5" y="-457" font-family="Helvetica,sans-Serif" font-size="10.00">polyfem::State::primitive</text>
<text text-anchor="middle" x="543" y="-446" font-family="Helvetica,sans-Serif" font-size="10.00">_to_node</text>
</a>
</g>
</g>
<!-- Node9&#45;&gt;Node14 -->
<g id="edge14_Node000009_Node000014" class="edge">
<title>Node9&#45;&gt;Node14</title>
<g id="a_edge14_Node000009_Node000014"><a xlink:title=" ">
<path fill="none" stroke="#63b8ff" d="M371.41,-388.61C397.45,-401.45 432.26,-417.79 464,-430 469.12,-431.97 474.48,-433.9 479.89,-435.74"/>
<polygon fill="#63b8ff" stroke="#63b8ff" points="479.04,-439.15 489.63,-438.98 481.24,-432.5 479.04,-439.15"/>
</a>
</g>
</g>
<!-- Node16 -->
<g id="Node000016" class="node">
<title>Node16</title>
<g id="a_Node000016"><a xlink:href="namespacepolyfem_1_1utils.html#aafdbbff4a81a4fcba11129097b1109e5" target="_top" xlink:title="Unflatten rowwises, so every dim elements in x become a row.">
<polygon fill="white" stroke="#666666" points="610,-334.5 476,-334.5 476,-315.5 610,-315.5 610,-334.5"/>
<text text-anchor="middle" x="543" y="-322.5" font-family="Helvetica,sans-Serif" font-size="10.00">polyfem::utils::unflatten</text>
</a>
</g>
</g>
<!-- Node9&#45;&gt;Node16 -->
<g id="edge16_Node000009_Node000016" class="edge">
<title>Node9&#45;&gt;Node16</title>
<g id="a_edge16_Node000009_Node000016"><a xlink:title=" ">
<path fill="none" stroke="#63b8ff" d="M397.18,-354.51C425.37,-348.77 457.92,-342.13 485.02,-336.61"/>
<polygon fill="#63b8ff" stroke="#63b8ff" points="486.01,-339.98 495.11,-334.55 484.62,-333.12 486.01,-339.98"/>
</a>
</g>
</g>
<!-- Node11 -->
<g id="Node000011" class="node">
<title>Node11</title>
<g id="a_Node000011"><a xlink:href="classpolyfem_1_1solver_1_1_diff_cache.html#aa58b56179289dbd2980ff06dfd8b2c0d" target="_top" xlink:title=" ">
<polygon fill="white" stroke="#666666" points="807,-190 661,-190 661,-160 807,-160 807,-190"/>
<text text-anchor="start" x="669" y="-178" font-family="Helvetica,sans-Serif" font-size="10.00">polyfem::solver::DiffCache</text>
<text text-anchor="middle" x="734" y="-167" font-family="Helvetica,sans-Serif" font-size="10.00">::size</text>
</a>
</g>
</g>
<!-- Node10&#45;&gt;Node11 -->
<g id="edge11_Node000010_Node000011" class="edge">
<title>Node10&#45;&gt;Node11</title>
<g id="a_edge11_Node000010_Node000011"><a xlink:title=" ">
<path fill="none" stroke="#63b8ff" d="M604.17,-266.98C610.4,-264.41 616.46,-261.44 622,-258 641.77,-245.73 639.86,-234.56 658,-220 669.34,-210.9 682.69,-202.31 694.96,-195.12"/>
<polygon fill="#63b8ff" stroke="#63b8ff" points="696.71,-198.15 703.66,-190.15 693.24,-192.07 696.71,-198.15"/>
</a>
</g>
</g>
<!-- Node15 -->
<g id="Node000015" class="node">
<title>Node15</title>
<g id="a_Node000015"><a xlink:href="classpolyfem_1_1_state.html#ab956f7e3ad92b7ffc1ca1a45ee47903f" target="_top" xlink:title="check if using iso parametric bases">
<polygon fill="white" stroke="#666666" points="788.5,-259 679.5,-259 679.5,-229 788.5,-229 788.5,-259"/>
<text text-anchor="start" x="687.5" y="-247" font-family="Helvetica,sans-Serif" font-size="10.00">polyfem::State::iso</text>
<text text-anchor="middle" x="734" y="-236" font-family="Helvetica,sans-Serif" font-size="10.00">_parametric</text>
</a>
</g>
</g>
<!-- Node14&#45;&gt;Node15 -->
<g id="edge15_Node000014_Node000015" class="edge">
<title>Node14&#45;&gt;Node15</title>
<g id="a_edge15_Node000014_Node000015"><a xlink:title=" ">
<path fill="none" stroke="#63b8ff" d="M607.75,-438.86C612.82,-436.34 617.65,-433.41 622,-430 676.96,-386.85 710.62,-308.34 724.94,-268.54"/>
<polygon fill="#63b8ff" stroke="#63b8ff" points="728.25,-269.67 728.24,-259.07 721.64,-267.36 728.25,-269.67"/>
</a>
</g>
</g>
<!-- Node17&#45;&gt;Node10 -->
<g id="edge20_Node000017_Node000010" class="edge">
<title>Node17&#45;&gt;Node10</title>
<g id="a_edge20_Node000017_Node000010"><a xlink:title=" ">
<path fill="none" stroke="#63b8ff" d="M400.09,-265.86C419.13,-268.02 439.97,-270.39 459.67,-272.64"/>
<polygon fill="#63b8ff" stroke="#63b8ff" points="459.52,-276.14 469.86,-273.79 460.32,-269.19 459.52,-276.14"/>
</a>
</g>
</g>
<!-- Node17&#45;&gt;Node12 -->
<g id="edge21_Node000017_Node000012" class="edge">
<title>Node17&#45;&gt;Node12</title>
<g id="a_edge21_Node000017_Node000012"><a xlink:title=" ">
<path fill="none" stroke="#63b8ff" d="M360,-278.8C380.31,-294.14 407.38,-316.23 428,-339 447.11,-360.11 440.6,-375.77 464,-392 466.89,-394.01 469.98,-395.8 473.18,-397.41"/>
<polygon fill="#63b8ff" stroke="#63b8ff" points="471.92,-400.68 482.49,-401.46 474.71,-394.26 471.92,-400.68"/>
</a>
</g>
</g>
<!-- Node17&#45;&gt;Node13 -->
<g id="edge26_Node000017_Node000013" class="edge">
<title>Node17&#45;&gt;Node13</title>
<g id="a_edge26_Node000017_Node000013"><a xlink:title=" ">
<path fill="none" stroke="#63b8ff" d="M358.23,-278.82C384.24,-297.9 425.12,-325.88 464,-344 469.65,-346.63 475.65,-349.07 481.73,-351.3"/>
<polygon fill="#63b8ff" stroke="#63b8ff" points="480.71,-354.65 491.3,-354.63 483.01,-348.04 480.71,-354.65"/>
</a>
</g>
</g>
<!-- Node17&#45;&gt;Node14 -->
<g id="edge27_Node000017_Node000014" class="edge">
<title>Node17&#45;&gt;Node14</title>
<g id="a_edge27_Node000017_Node000014"><a xlink:title=" ">
<path fill="none" stroke="#63b8ff" d="M363.44,-278.77C384.24,-293.47 410.52,-314.82 428,-339 453.48,-374.25 432.07,-400.47 464,-430 465.29,-431.19 466.63,-432.32 468.03,-433.4"/>
<polygon fill="#63b8ff" stroke="#63b8ff" points="466.21,-436.39 476.49,-438.96 470.06,-430.54 466.21,-436.39"/>
</a>
</g>
</g>
<!-- Node17&#45;&gt;Node16 -->
<g id="edge30_Node000017_Node000016" class="edge">
<title>Node17&#45;&gt;Node16</title>
<g id="a_edge30_Node000017_Node000016"><a xlink:title=" ">
<path fill="none" stroke="#63b8ff" d="M383.95,-278.59C408.16,-287.62 437.32,-297.96 464,-306 472.15,-308.46 480.86,-310.82 489.38,-313"/>
<polygon fill="#63b8ff" stroke="#63b8ff" points="488.72,-316.44 499.27,-315.47 490.41,-309.65 488.72,-316.44"/>
</a>
</g>
</g>
<!-- Node18 -->
<g id="Node000018" class="node">
<title>Node18</title>
<g id="a_Node000018"><a xlink:href="classpolyfem_1_1time__integrator_1_1_b_d_f.html#a7c8caaa5a781eebfc98153597974ff42" target="_top" xlink:title="Retrieve the alphas used for BDF with i steps.">
<polygon fill="white" stroke="#666666" points="612.5,-78 473.5,-78 473.5,-48 612.5,-48 612.5,-78"/>
<text text-anchor="start" x="481.5" y="-66" font-family="Helvetica,sans-Serif" font-size="10.00">polyfem::time_integrator</text>
<text text-anchor="middle" x="543" y="-55" font-family="Helvetica,sans-Serif" font-size="10.00">::BDF::alphas</text>
</a>
</g>
</g>
<!-- Node17&#45;&gt;Node18 -->
<g id="edge18_Node000017_Node000018" class="edge">
<title>Node17&#45;&gt;Node18</title>
<g id="a_edge18_Node000017_Node000018"><a xlink:title=" ">
<path fill="none" stroke="#63b8ff" d="M341.54,-237.29C360.89,-201.34 405.5,-127.38 464,-87 466.27,-85.43 468.65,-83.96 471.1,-82.59"/>
<polygon fill="#63b8ff" stroke="#63b8ff" points="472.89,-85.61 480.28,-78.01 469.77,-79.35 472.89,-85.61"/>
</a>
</g>
</g>
<!-- Node19 -->
<g id="Node000019" class="node">
<title>Node19</title>
<g id="a_Node000019"><a xlink:href="classpolyfem_1_1time__integrator_1_1_b_d_f.html#a36931fc9cd7efc6ec431d49ddf7330a6" target="_top" xlink:title="Retrieve the value of beta used for BDF with i steps.">
<polygon fill="white" stroke="#666666" points="612.5,-30 473.5,-30 473.5,0 612.5,0 612.5,-30"/>
<text text-anchor="start" x="481.5" y="-18" font-family="Helvetica,sans-Serif" font-size="10.00">polyfem::time_integrator</text>
<text text-anchor="middle" x="543" y="-7" font-family="Helvetica,sans-Serif" font-size="10.00">::BDF::betas</text>
</a>
</g>
</g>
<!-- Node17&#45;&gt;Node19 -->
<g id="edge19_Node000017_Node000019" class="edge">
<title>Node17&#45;&gt;Node19</title>
<g id="a_edge19_Node000017_Node000019"><a xlink:title=" ">
<path fill="none" stroke="#63b8ff" d="M337.8,-237.38C353.16,-194.02 394.69,-92.99 464,-39 465.77,-37.62 467.62,-36.32 469.53,-35.09"/>
<polygon fill="#63b8ff" stroke="#63b8ff" points="471.27,-38.13 478.28,-30.18 467.84,-32.03 471.27,-38.13"/>
</a>
</g>
</g>
<!-- Node20 -->
<g id="Node000020" class="node">
<title>Node20</title>
<g id="a_Node000020"><a xlink:href="classpolyfem_1_1solver_1_1_diff_cache.html#a16ab25627580d6b0702566633867a5fe" target="_top" xlink:title=" ">
<polygon fill="white" stroke="#666666" points="616,-201 470,-201 470,-171 616,-171 616,-201"/>
<text text-anchor="start" x="478" y="-189" font-family="Helvetica,sans-Serif" font-size="10.00">polyfem::solver::DiffCache</text>
<text text-anchor="middle" x="543" y="-178" font-family="Helvetica,sans-Serif" font-size="10.00">::friction_constraint_set</text>
</a>
</g>
</g>
<!-- Node17&#45;&gt;Node20 -->
<g id="edge22_Node000017_Node000020" class="edge">
<title>Node17&#45;&gt;Node20</title>
<g id="a_edge22_Node000017_Node000020"><a xlink:title=" ">
<path fill="none" stroke="#63b8ff" d="M386.12,-237.44C409.98,-228.71 438.27,-218.6 464,-210 469.91,-208.03 476.09,-206.02 482.27,-204.06"/>
<polygon fill="#63b8ff" stroke="#63b8ff" points="483.47,-207.35 491.95,-201.01 481.36,-200.67 483.47,-207.35"/>
</a>
</g>
</g>
<!-- Node21 -->
<g id="Node000021" class="node">
<title>Node21</title>
<g id="a_Node000021"><a xlink:href="classpolyfem_1_1_state.html#a106191fffa5a7be86713ae76fb6d5053" target="_top" xlink:title="Get a constant reference to the geometry mapping bases.">
<polygon fill="white" stroke="#666666" points="604,-249 482,-249 482,-219 604,-219 604,-249"/>
<text text-anchor="start" x="490" y="-237" font-family="Helvetica,sans-Serif" font-size="10.00">polyfem::State::geom</text>
<text text-anchor="middle" x="543" y="-226" font-family="Helvetica,sans-Serif" font-size="10.00">_bases</text>
</a>
</g>
</g>
<!-- Node17&#45;&gt;Node21 -->
<g id="edge24_Node000017_Node000021" class="edge">
<title>Node17&#45;&gt;Node21</title>
<g id="a_edge24_Node000017_Node000021"><a xlink:title=" ">
<path fill="none" stroke="#63b8ff" d="M400.09,-250.14C423.12,-247.52 448.79,-244.6 471.9,-241.97"/>
<polygon fill="#63b8ff" stroke="#63b8ff" points="472.44,-245.44 481.98,-240.83 471.65,-238.48 472.44,-245.44"/>
</a>
</g>
</g>
<!-- Node22 -->
<g id="Node000022" class="node">
<title>Node22</title>
<g id="a_Node000022"><a xlink:href="classpolyfem_1_1solver_1_1_diff_cache.html#aef49f8d41ce8d8665737f8bc381f94c6" target="_top" xlink:title=" ">
<polygon fill="white" stroke="#666666" points="622,-152.5 464,-152.5 464,-133.5 622,-133.5 622,-152.5"/>
<text text-anchor="middle" x="543" y="-140.5" font-family="Helvetica,sans-Serif" font-size="10.00">polyfem::solver::DiffCache::u</text>
</a>
</g>
</g>
<!-- Node17&#45;&gt;Node22 -->
<g id="edge28_Node000017_Node000022" class="edge">
<title>Node17&#45;&gt;Node22</title>
<g id="a_edge28_Node000017_Node000022"><a xlink:title=" ">
<path fill="none" stroke="#63b8ff" d="M353.75,-237.29C378.93,-215.45 421.59,-181.56 464,-162 469.27,-159.57 474.89,-157.43 480.61,-155.54"/>
<polygon fill="#63b8ff" stroke="#63b8ff" points="481.72,-158.86 490.27,-152.61 479.69,-152.17 481.72,-158.86"/>
</a>
</g>
</g>
<!-- Node23 -->
<g id="Node000023" class="node">
<title>Node23</title>
<g id="a_Node000023"><a xlink:href="classpolyfem_1_1solver_1_1_diff_cache.html#aee0a6b222a0434b4c1d0cae54a212ec7" target="_top" xlink:title=" ">
<polygon fill="white" stroke="#666666" points="622,-115.5 464,-115.5 464,-96.5 622,-96.5 622,-115.5"/>
<text text-anchor="middle" x="543" y="-103.5" font-family="Helvetica,sans-Serif" font-size="10.00">polyfem::solver::DiffCache::v</text>
</a>
</g>
</g>
<!-- Node17&#45;&gt;Node23 -->
<g id="edge31_Node000017_Node000023" class="edge">
<title>Node17&#45;&gt;Node23</title>
<g id="a_edge31_Node000017_Node000023"><a xlink:title=" ">
<path fill="none" stroke="#63b8ff" d="M345.58,-237.17C367.64,-207.29 412.45,-152.7 464,-124 467.29,-122.17 470.76,-120.52 474.33,-119.04"/>
<polygon fill="#63b8ff" stroke="#63b8ff" points="475.78,-122.24 483.97,-115.51 473.37,-115.67 475.78,-122.24"/>
</a>
</g>
</g>
<!-- Node20&#45;&gt;Node11 -->
<g id="edge23_Node000020_Node000011" class="edge">
<title>Node20&#45;&gt;Node11</title>
<g id="a_edge23_Node000020_Node000011"><a xlink:title=" ">
<path fill="none" stroke="#63b8ff" d="M616.26,-181.79C627.55,-181.14 639.28,-180.45 650.76,-179.79"/>
<polygon fill="#63b8ff" stroke="#63b8ff" points="651,-183.28 660.78,-179.2 650.59,-176.29 651,-183.28"/>
</a>
</g>
</g>
<!-- Node21&#45;&gt;Node15 -->
<g id="edge25_Node000021_Node000015" class="edge">
<title>Node21&#45;&gt;Node15</title>
<g id="a_edge25_Node000021_Node000015"><a xlink:title=" ">
<path fill="none" stroke="#63b8ff" d="M604.06,-237.18C624.87,-238.28 648.26,-239.52 669.34,-240.63"/>
<polygon fill="#63b8ff" stroke="#63b8ff" points="669.32,-244.14 679.49,-241.17 669.69,-237.15 669.32,-244.14"/>
</a>
</g>
</g>
<!-- Node22&#45;&gt;Node11 -->
<g id="edge29_Node000022_Node000011" class="edge">
<title>Node22&#45;&gt;Node11</title>
<g id="a_edge29_Node000022_Node000011"><a xlink:title=" ">
<path fill="none" stroke="#63b8ff" d="M600.19,-152.51C616.11,-155.21 633.78,-158.2 650.89,-161.1"/>
<polygon fill="#63b8ff" stroke="#63b8ff" points="650.44,-164.57 660.88,-162.79 651.61,-157.67 650.44,-164.57"/>
</a>
</g>
</g>
<!-- Node23&#45;&gt;Node11 -->
<g id="edge32_Node000023_Node000011" class="edge">
<title>Node23&#45;&gt;Node11</title>
<g id="a_edge32_Node000023_Node000011"><a xlink:title=" ">
<path fill="none" stroke="#63b8ff" d="M592.28,-115.52C602.22,-117.93 612.53,-120.77 622,-124 647.18,-132.59 674.33,-145.01 695.48,-155.44"/>
<polygon fill="#63b8ff" stroke="#63b8ff" points="693.94,-158.58 704.45,-159.92 697.07,-152.32 693.94,-158.58"/>
</a>
</g>
</g>
</g>
</svg>

<g id="navigator" transform="translate(0 0)" fill="#404254">
  <rect fill="#f2f5e9" fill-opacity="0.5" stroke="#606060" stroke-width=".5" x="0" y="0" width="60" height="60"/>
  <use id="zoomplus" xlink:href="#zoomPlus" x="17" y="9" onmousedown="handleZoom(evt,'in')"/>
  <use id="zoomminus" xlink:href="#zoomMin" x="42" y="9" onmousedown="handleZoom(evt,'out')"/>
  <use id="reset" xlink:href="#resetDef" x="30" y="36" onmousedown="handleReset()"/>
   <use id="arrowup" xlink:href="#arrowUp" x="0" y="0" onmousedown="handlePan(0,-1)"/>
  <use id="arrowright" xlink:href="#arrowRight" x="0" y="0" onmousedown="handlePan(1,0)"/>
  <use id="arrowdown" xlink:href="#arrowDown" x="0" y="0" onmousedown="handlePan(0,1)"/>
  <use id="arrowleft" xlink:href="#arrowLeft" x="0" y="0" onmousedown="handlePan(-1,0)"/>
</g>
<svg viewBox="0 0 15 15" width="100%" height="30px" preserveAspectRatio="xMaxYMin meet">
 <g id="arrow_out" transform="scale(0.3 0.3)">
  <a xlink:href="classpolyfem_1_1solver_1_1_shape_variable_to_simulation_a9f5762367356019c956b2d04f86e4794_cgraph_org.svg" target="_base">
   <rect id="button" ry="5" rx="5" y="6" x="6" height="38" width="38"
        fill="#f2f5e9" fill-opacity="0.5" stroke="#606060" stroke-width="1.0"/>
   <path id="arrow"
     d="M 11.500037,31.436501 C 11.940474,20.09759 22.043105,11.32322 32.158766,21.979434 L 37.068811,17.246167 C 37.068811,17.246167 37.088388,32 37.088388,32 L 22.160133,31.978069 C 22.160133,31.978069 26.997745,27.140456 26.997745,27.140456 C 18.528582,18.264221 13.291696,25.230495 11.500037,31.436501 z"
     style="fill:#404040;"/>
  </a>
 </g>
</svg>

<style type='text/css'>
<![CDATA[
[data-mouse-over-selected='false'] { opacity: 0.7; }
[data-mouse-over-selected='true']  { opacity: 1.0; }
]]>
</style>
<script type="application/ecmascript"><![CDATA[
document.addEventListener('DOMContentLoaded', (event) => {
  highlightEdges();
  highlightAdjacentNodes();
});
]]></script>
</svg>
