<?xml version="1.0" encoding="UTF-8" standalone="no"?>
<!DOCTYPE svg PUBLIC "-//W3C//DTD SVG 1.1//EN"
 "http://www.w3.org/Graphics/SVG/1.1/DTD/svg11.dtd">
<!-- Generated by graphviz version 2.43.0 (0)
 -->
<!-- Title: polyfem::time_integrator::ImplicitNewmark::update_quantities Pages: 1 -->
<!--zoomable 319 -->
<svg id="main" version="1.1" xmlns="http://www.w3.org/2000/svg" xmlns:xlink="http://www.w3.org/1999/xlink" xml:space="preserve" onload="init(evt)">
<style type="text/css"><![CDATA[
.edge:hover path { stroke: red; }
.edge:hover polygon { stroke: red; fill: red; }
]]></style>
<script type="text/javascript"><![CDATA[
var edges = document.getElementsByTagName('g');
if (edges && edges.length) {
  for (var i=0;i<edges.length;i++) {
    if (edges[i].id.substr(0,4)=='edge') {
      edges[i].setAttribute('class','edge');
    }
  }
}
]]></script>
        <defs>
                <circle id="rim" cx="0" cy="0" r="7"/>
                <circle id="rim2" cx="0" cy="0" r="3.5"/>
                <g id="zoomPlus">
                        <use xlink:href="#rim" fill="#404040">
                                <set attributeName="fill" to="#808080" begin="zoomplus.mouseover" end="zoomplus.mouseout"/>
                        </use>
                        <path d="M-4,0h8M0,-4v8" fill="none" stroke="white" stroke-width="1.5" pointer-events="none"/>
                </g>
                <g id="zoomMin">
                        <use xlink:href="#rim" fill="#404040">
                                <set attributeName="fill" to="#808080" begin="zoomminus.mouseover" end="zoomminus.mouseout"/>
                        </use>
                        <path d="M-4,0h8" fill="none" stroke="white" stroke-width="1.5" pointer-events="none"/>
                </g>
                <g id="dirArrow">
                        <path fill="none" stroke="white" stroke-width="1.5" d="M0,-3.0v7 M-2.5,-0.5L0,-3.0L2.5,-0.5"/>
                </g>
               <g id="resetDef">
                       <use xlink:href="#rim2" fill="#404040">
                               <set attributeName="fill" to="#808080" begin="reset.mouseover" end="reset.mouseout"/>
                       </use>
               </g>
        </defs>

<script type="text/javascript">
var viewWidth = 531;
var viewHeight = 319;
var sectionId = 'dynsection-9';
</script>
<script xlink:href="svgpan.js"/>
<svg id="graph" class="graph">
<g id="viewport">
<title>polyfem::time_integrator::ImplicitNewmark::update_quantities</title>
<!-- Node1 -->
<g id="node1" class="node">
<title>Node1</title>
<g id="a_node1"><a xlink:title="Update the time integration quantaties (i.e., , , and ).">
<polygon fill="#bfbfbf" stroke="black" points="0,-154.5 0,-195.5 146,-195.5 146,-154.5 0,-154.5"/>
<text text-anchor="start" x="8" y="-183.5" font-family="Helvetica,sans-Serif" font-size="10.00">polyfem::time_integrator</text>
<text text-anchor="start" x="8" y="-172.5" font-family="Helvetica,sans-Serif" font-size="10.00">::ImplicitNewmark::update</text>
<text text-anchor="middle" x="73" y="-161.5" font-family="Helvetica,sans-Serif" font-size="10.00">_quantities</text>
</a>
</g>
</g>
<!-- Node2 -->
<g id="node2" class="node">
<title>Node2</title>
<g id="a_node2"><a xlink:href="classpolyfem_1_1time__integrator_1_1_implicit_time_integrator.html#ab2bc11437f8f2f8077ddf4f6e9814d3e" target="_top" xlink:title="Get the most recent previous acceleration value.">
<polygon fill="none" stroke="black" points="378.5,-269.5 378.5,-310.5 517.5,-310.5 517.5,-269.5 378.5,-269.5"/>
<text text-anchor="start" x="386.5" y="-298.5" font-family="Helvetica,sans-Serif" font-size="10.00">polyfem::time_integrator</text>
<text text-anchor="start" x="386.5" y="-287.5" font-family="Helvetica,sans-Serif" font-size="10.00">::ImplicitTimeIntegrator</text>
<text text-anchor="middle" x="448" y="-276.5" font-family="Helvetica,sans-Serif" font-size="10.00">::a_prev</text>
</a>
</g>
</g>
<!-- Node1&#45;&gt;Node2 -->
<g id="edge1" class="edge">
<title>Node1&#45;&gt;Node2</title>
<path fill="none" stroke="midnightblue" d="M91.5,-195.56C111.12,-217.01 145.05,-249.62 182,-265 241.12,-289.61 313.88,-294.9 368.19,-294.58"/>
<polygon fill="midnightblue" stroke="midnightblue" points="368.5,-298.07 378.46,-294.45 368.41,-291.07 368.5,-298.07"/>
</g>
<!-- Node3 -->
<g id="node3" class="node">
<title>Node3</title>
<g id="a_node3"><a xlink:href="classpolyfem_1_1time__integrator_1_1_implicit_newmark.html#ac87bd5ebd8b67344363864afffba1d6c" target="_top" xlink:title="Compute the current acceleration given the current velocity and using the stored previous velocity(s)...">
<polygon fill="none" stroke="black" points="182,-214.5 182,-255.5 337,-255.5 337,-214.5 182,-214.5"/>
<text text-anchor="start" x="190" y="-243.5" font-family="Helvetica,sans-Serif" font-size="10.00">polyfem::time_integrator</text>
<text text-anchor="start" x="190" y="-232.5" font-family="Helvetica,sans-Serif" font-size="10.00">::ImplicitNewmark::compute</text>
<text text-anchor="middle" x="259.5" y="-221.5" font-family="Helvetica,sans-Serif" font-size="10.00">_acceleration</text>
</a>
</g>
</g>
<!-- Node1&#45;&gt;Node3 -->
<g id="edge2" class="edge">
<title>Node1&#45;&gt;Node3</title>
<path fill="none" stroke="midnightblue" d="M137.24,-195.56C152.79,-200.62 169.56,-206.08 185.53,-211.27"/>
<polygon fill="midnightblue" stroke="midnightblue" points="184.75,-214.7 195.35,-214.46 186.92,-208.04 184.75,-214.7"/>
</g>
<!-- Node6 -->
<g id="node6" class="node">
<title>Node6</title>
<g id="a_node6"><a xlink:href="classpolyfem_1_1time__integrator_1_1_implicit_time_integrator.html#a1c90c8ab75ceea7bfd197921a9b5ad81" target="_top" xlink:title="Get the most recent previous velocity value.">
<polygon fill="none" stroke="black" points="378.5,-110.5 378.5,-151.5 517.5,-151.5 517.5,-110.5 378.5,-110.5"/>
<text text-anchor="start" x="386.5" y="-139.5" font-family="Helvetica,sans-Serif" font-size="10.00">polyfem::time_integrator</text>
<text text-anchor="start" x="386.5" y="-128.5" font-family="Helvetica,sans-Serif" font-size="10.00">::ImplicitTimeIntegrator</text>
<text text-anchor="middle" x="448" y="-117.5" font-family="Helvetica,sans-Serif" font-size="10.00">::v_prev</text>
</a>
</g>
</g>
<!-- Node1&#45;&gt;Node6 -->
<g id="edge14" class="edge">
<title>Node1&#45;&gt;Node6</title>
<path fill="none" stroke="midnightblue" d="M139.17,-154.44C153.17,-150.71 167.98,-147.29 182,-145 244.15,-134.85 315.48,-131.55 368.47,-130.68"/>
<polygon fill="midnightblue" stroke="midnightblue" points="368.53,-134.17 378.48,-130.54 368.43,-127.18 368.53,-134.17"/>
</g>
<!-- Node7 -->
<g id="node7" class="node">
<title>Node7</title>
<g id="a_node7"><a xlink:href="classpolyfem_1_1time__integrator_1_1_implicit_newmark.html#ab6911b1bb8c36954c05c857d8f797e55" target="_top" xlink:title="Compute the current velocity given the current solution and using the stored previous solution(s).">
<polygon fill="none" stroke="black" points="182,-154.5 182,-195.5 337,-195.5 337,-154.5 182,-154.5"/>
<text text-anchor="start" x="190" y="-183.5" font-family="Helvetica,sans-Serif" font-size="10.00">polyfem::time_integrator</text>
<text text-anchor="start" x="190" y="-172.5" font-family="Helvetica,sans-Serif" font-size="10.00">::ImplicitNewmark::compute</text>
<text text-anchor="middle" x="259.5" y="-161.5" font-family="Helvetica,sans-Serif" font-size="10.00">_velocity</text>
</a>
</g>
</g>
<!-- Node1&#45;&gt;Node7 -->
<g id="edge7" class="edge">
<title>Node1&#45;&gt;Node7</title>
<path fill="none" stroke="midnightblue" d="M146.13,-175C154.55,-175 163.21,-175 171.81,-175"/>
<polygon fill="midnightblue" stroke="midnightblue" points="171.86,-178.5 181.86,-175 171.86,-171.5 171.86,-178.5"/>
</g>
<!-- Node9 -->
<g id="node9" class="node">
<title>Node9</title>
<g id="a_node9"><a xlink:href="classpolyfem_1_1time__integrator_1_1_implicit_time_integrator.html#a2fe34aebb01d011703495a63a0dc5eb0" target="_top" xlink:title="Get the most recent previous solution value.">
<polygon fill="none" stroke="black" points="378.5,-0.5 378.5,-41.5 517.5,-41.5 517.5,-0.5 378.5,-0.5"/>
<text text-anchor="start" x="386.5" y="-29.5" font-family="Helvetica,sans-Serif" font-size="10.00">polyfem::time_integrator</text>
<text text-anchor="start" x="386.5" y="-18.5" font-family="Helvetica,sans-Serif" font-size="10.00">::ImplicitTimeIntegrator</text>
<text text-anchor="middle" x="448" y="-7.5" font-family="Helvetica,sans-Serif" font-size="10.00">::x_prev</text>
</a>
</g>
</g>
<!-- Node1&#45;&gt;Node9 -->
<g id="edge15" class="edge">
<title>Node1&#45;&gt;Node9</title>
<path fill="none" stroke="midnightblue" d="M119.29,-154.42C138.55,-145.78 161.3,-135.74 182,-127 250.91,-97.92 330.68,-66.28 384.55,-45.21"/>
<polygon fill="midnightblue" stroke="midnightblue" points="385.93,-48.43 393.97,-41.53 383.38,-41.91 385.93,-48.43"/>
</g>
<!-- Node3&#45;&gt;Node2 -->
<g id="edge3" class="edge">
<title>Node3&#45;&gt;Node2</title>
<path fill="none" stroke="midnightblue" d="M330.21,-255.56C342.74,-259.25 355.88,-263.13 368.64,-266.89"/>
<polygon fill="midnightblue" stroke="midnightblue" points="367.72,-270.27 378.3,-269.74 369.7,-263.56 367.72,-270.27"/>
</g>
<!-- Node4 -->
<g id="node4" class="node">
<title>Node4</title>
<g id="a_node4"><a xlink:href="classpolyfem_1_1time__integrator_1_1_implicit_time_integrator.html#a71f55b2644a8023c1310c756a1f42932" target="_top" xlink:title="Access the time step size.">
<polygon fill="none" stroke="black" points="374,-220 374,-250 522,-250 522,-220 374,-220"/>
<text text-anchor="start" x="382" y="-238" font-family="Helvetica,sans-Serif" font-size="10.00">polyfem::time_integrator</text>
<text text-anchor="middle" x="448" y="-227" font-family="Helvetica,sans-Serif" font-size="10.00">::ImplicitTimeIntegrator::dt</text>
</a>
</g>
</g>
<!-- Node3&#45;&gt;Node4 -->
<g id="edge4" class="edge">
<title>Node3&#45;&gt;Node4</title>
<path fill="none" stroke="midnightblue" d="M337.16,-235C345.9,-235 354.84,-235 363.66,-235"/>
<polygon fill="midnightblue" stroke="midnightblue" points="363.94,-238.5 373.94,-235 363.94,-231.5 363.94,-238.5"/>
</g>
<!-- Node5 -->
<g id="node5" class="node">
<title>Node5</title>
<g id="a_node5"><a xlink:href="classpolyfem_1_1time__integrator_1_1_implicit_newmark.html#ab002513111de64bdfa2a223e0445375e" target="_top" xlink:title="parameter for blending accelerations in the velocity update.">
<polygon fill="none" stroke="black" points="373,-171 373,-201 523,-201 523,-171 373,-171"/>
<text text-anchor="start" x="381" y="-189" font-family="Helvetica,sans-Serif" font-size="10.00">polyfem::time_integrator</text>
<text text-anchor="middle" x="448" y="-178" font-family="Helvetica,sans-Serif" font-size="10.00">::ImplicitNewmark::gamma</text>
</a>
</g>
</g>
<!-- Node3&#45;&gt;Node5 -->
<g id="edge5" class="edge">
<title>Node3&#45;&gt;Node5</title>
<path fill="none" stroke="midnightblue" d="M337.16,-214.86C351.31,-211.14 365.99,-207.29 379.83,-203.65"/>
<polygon fill="midnightblue" stroke="midnightblue" points="380.96,-206.97 389.74,-201.04 379.18,-200.2 380.96,-206.97"/>
</g>
<!-- Node3&#45;&gt;Node6 -->
<g id="edge6" class="edge">
<title>Node3&#45;&gt;Node6</title>
<path fill="none" stroke="midnightblue" d="M321.3,-214.49C326.81,-211.66 332.14,-208.5 337,-205 357.23,-190.44 352.94,-176.79 373,-162 375.5,-160.16 378.12,-158.4 380.83,-156.73"/>
<polygon fill="midnightblue" stroke="midnightblue" points="382.75,-159.66 389.72,-151.68 379.3,-153.58 382.75,-159.66"/>
</g>
<!-- Node7&#45;&gt;Node2 -->
<g id="edge8" class="edge">
<title>Node7&#45;&gt;Node2</title>
<path fill="none" stroke="midnightblue" d="M322.91,-195.56C327.9,-198.35 332.68,-201.49 337,-205 359.67,-223.43 350.43,-241.44 373,-260 374.74,-261.43 376.56,-262.8 378.43,-264.11"/>
<polygon fill="midnightblue" stroke="midnightblue" points="376.67,-267.14 387,-269.49 380.39,-261.21 376.67,-267.14"/>
</g>
<!-- Node7&#45;&gt;Node4 -->
<g id="edge10" class="edge">
<title>Node7&#45;&gt;Node4</title>
<path fill="none" stroke="midnightblue" d="M324.42,-195.56C345.9,-202.48 369.7,-210.13 390.56,-216.84"/>
<polygon fill="midnightblue" stroke="midnightblue" points="389.65,-220.22 400.24,-219.96 391.79,-213.56 389.65,-220.22"/>
</g>
<!-- Node7&#45;&gt;Node5 -->
<g id="edge11" class="edge">
<title>Node7&#45;&gt;Node5</title>
<path fill="none" stroke="midnightblue" d="M337.16,-179.52C345.52,-180.01 354.06,-180.52 362.51,-181.02"/>
<polygon fill="midnightblue" stroke="midnightblue" points="362.55,-184.52 372.74,-181.62 362.96,-177.54 362.55,-184.52"/>
</g>
<!-- Node7&#45;&gt;Node6 -->
<g id="edge12" class="edge">
<title>Node7&#45;&gt;Node6</title>
<path fill="none" stroke="midnightblue" d="M337.16,-156.91C347.52,-154.47 358.15,-151.96 368.54,-149.51"/>
<polygon fill="midnightblue" stroke="midnightblue" points="369.47,-152.89 378.4,-147.18 367.87,-146.07 369.47,-152.89"/>
</g>
<!-- Node8 -->
<g id="node8" class="node">
<title>Node8</title>
<g id="a_node8"><a xlink:href="classpolyfem_1_1time__integrator_1_1_implicit_newmark.html#a06343b9fb8c270eaaca03b546dd80494" target="_top" xlink:title="parameter for blending accelerations in the solution update.">
<polygon fill="none" stroke="black" points="378.5,-61 378.5,-91 517.5,-91 517.5,-61 378.5,-61"/>
<text text-anchor="start" x="386.5" y="-79" font-family="Helvetica,sans-Serif" font-size="10.00">polyfem::time_integrator</text>
<text text-anchor="middle" x="448" y="-68" font-family="Helvetica,sans-Serif" font-size="10.00">::ImplicitNewmark::beta</text>
</a>
</g>
</g>
<!-- Node7&#45;&gt;Node8 -->
<g id="edge9" class="edge">
<title>Node7&#45;&gt;Node8</title>
<path fill="none" stroke="midnightblue" d="M287.52,-154.37C309.6,-138.23 342.11,-116.07 373,-101 377.53,-98.79 382.31,-96.7 387.16,-94.73"/>
<polygon fill="midnightblue" stroke="midnightblue" points="388.47,-97.97 396.54,-91.11 385.95,-91.44 388.47,-97.97"/>
</g>
<!-- Node7&#45;&gt;Node9 -->
<g id="edge13" class="edge">
<title>Node7&#45;&gt;Node9</title>
<path fill="none" stroke="midnightblue" d="M275.06,-154.15C294.65,-127.39 331.82,-80.98 373,-52 375.82,-50.02 378.78,-48.13 381.84,-46.33"/>
<polygon fill="midnightblue" stroke="midnightblue" points="383.56,-49.38 390.66,-41.52 380.2,-43.24 383.56,-49.38"/>
</g>
</g>
</svg>
        <g id="navigator" transform="translate(0 0)" fill="#404254">
                <rect fill="#f2f5e9" fill-opacity="0.5" stroke="#606060" stroke-width=".5" x="0" y="0" width="60" height="60"/>
                <use id="zoomplus" xlink:href="#zoomPlus" x="17" y="9" onmousedown="handleZoom(evt,'in')"/>
                <use id="zoomminus" xlink:href="#zoomMin" x="42" y="9" onmousedown="handleZoom(evt,'out')"/>
                <use id="reset" xlink:href="#resetDef" x="30" y="36" onmousedown="handleReset()"/>
                <g id="arrowUp" xlink:href="#dirArrow" transform="translate(30 24)" onmousedown="handlePan(0,-1)">
                  <use xlink:href="#rim" fill="#404040">
                        <set attributeName="fill" to="#808080" begin="arrowUp.mouseover" end="arrowUp.mouseout"/>
                  </use>
                  <path fill="none" stroke="white" stroke-width="1.5" d="M0,-3.0v7 M-2.5,-0.5L0,-3.0L2.5,-0.5"/>
                </g>
                <g id="arrowRight" xlink:href="#dirArrow" transform="rotate(90) translate(36 -43)" onmousedown="handlePan(1,0)">
                  <use xlink:href="#rim" fill="#404040">
                        <set attributeName="fill" to="#808080" begin="arrowRight.mouseover" end="arrowRight.mouseout"/>
                  </use>
                  <path fill="none" stroke="white" stroke-width="1.5" d="M0,-3.0v7 M-2.5,-0.5L0,-3.0L2.5,-0.5"/>
                </g>
                <g id="arrowDown" xlink:href="#dirArrow" transform="rotate(180) translate(-30 -48)" onmousedown="handlePan(0,1)">
                  <use xlink:href="#rim" fill="#404040">
                        <set attributeName="fill" to="#808080" begin="arrowDown.mouseover" end="arrowDown.mouseout"/>
                  </use>
                  <path fill="none" stroke="white" stroke-width="1.5" d="M0,-3.0v7 M-2.5,-0.5L0,-3.0L2.5,-0.5"/>
                </g>
                <g id="arrowLeft" xlink:href="#dirArrow" transform="rotate(270) translate(-36 17)" onmousedown="handlePan(-1,0)">
                  <use xlink:href="#rim" fill="#404040">
                        <set attributeName="fill" to="#808080" begin="arrowLeft.mouseover" end="arrowLeft.mouseout"/>
                  </use>
                  <path fill="none" stroke="white" stroke-width="1.5" d="M0,-3.0v7 M-2.5,-0.5L0,-3.0L2.5,-0.5"/>
                </g>
        </g>
        <svg viewBox="0 0 15 15" width="100%" height="30px" preserveAspectRatio="xMaxYMin meet">
         <g id="arrow_out" transform="scale(0.3 0.3)">
          <a xlink:href="classpolyfem_1_1time__integrator_1_1_implicit_newmark_af94ad0e8dfab40ecba6c4956e3342860_cgraph_org.svg" target="_base">
           <rect id="button" ry="5" rx="5" y="6" x="6" height="38" width="38"
                fill="#f2f5e9" fill-opacity="0.5" stroke="#606060" stroke-width="1.0"/>
           <path id="arrow"
             d="M 11.500037,31.436501 C 11.940474,20.09759 22.043105,11.32322 32.158766,21.979434 L 37.068811,17.246167 C 37.068811,17.246167 37.088388,32 37.088388,32 L 22.160133,31.978069 C 22.160133,31.978069 26.997745,27.140456 26.997745,27.140456 C 18.528582,18.264221 13.291696,25.230495 11.500037,31.436501 z"
             style="fill:#404040;"/>
          </a>
         </g>
        </svg>
</svg>
