<?xml version="1.0" encoding="UTF-8" standalone="no"?>
<!DOCTYPE svg PUBLIC "-//W3C//DTD SVG 1.1//EN"
 "http://www.w3.org/Graphics/SVG/1.1/DTD/svg11.dtd">
<!-- Generated by graphviz version 2.43.0 (0)
 -->
<!-- Title: polyfem::solver::ElasticVariableToSimulation::compute_adjoint_term Pages: 1 -->
<!--zoomable 362 -->

<svg id="main" version="1.1" xmlns="http://www.w3.org/2000/svg" xmlns:xlink="http://www.w3.org/1999/xlink" xml:space="preserve" onload="init(evt)">
<style type="text/css"><![CDATA[
.node, .edge {opacity: 0.7;}
.node.selected, .edge.selected {opacity: 1;}
.edge:hover path { stroke: red; }
.edge:hover polygon { stroke: red; fill: red; }
]]></style>

<defs>
  <circle id="rim" cx="0" cy="0" r="7"/>
  <circle id="rim2" cx="0" cy="0" r="3.5"/>
  <g id="zoomPlus">
    <use xlink:href="#rim" fill="#404040"><set attributeName="fill" to="#808080" begin="zoomplus.mouseover" end="zoomplus.mouseout"/></use>
    <path d="M-4,0h8M0,-4v8" fill="none" stroke="white" stroke-width="1.5" pointer-events="none"/>
  </g>
  <g id="zoomMin">
    <use xlink:href="#rim" fill="#404040"><set attributeName="fill" to="#808080" begin="zoomminus.mouseover" end="zoomminus.mouseout"/></use>
    <path d="M-4,0h8" fill="none" stroke="white" stroke-width="1.5" pointer-events="none"/>
  </g>
  <g id="arrowUp" transform="translate(30 24)">
    <use xlink:href="#rim"/>
    <path pointer-events="none" fill="none" stroke="white" stroke-width="1.5" d="M0,-3.0v7 M-2.5,-0.5L0,-3.0L2.5,-0.5"/>
  </g>
  <g id="arrowRight" transform="rotate(90) translate(36 -43)">
    <use xlink:href="#rim"/>
    <path pointer-events="none" fill="none" stroke="white" stroke-width="1.5" d="M0,-3.0v7 M-2.5,-0.5L0,-3.0L2.5,-0.5"/>
  </g>
  <g id="arrowDown" transform="rotate(180) translate(-30 -48)">
    <use xlink:href="#rim"/>
    <path pointer-events="none" fill="none" stroke="white" stroke-width="1.5" d="M0,-3.0v7 M-2.5,-0.5L0,-3.0L2.5,-0.5"/>
  </g>
  <g id="arrowLeft" transform="rotate(270) translate(-36 17)">
    <use xlink:href="#rim"/>
    <path pointer-events="none" fill="none" stroke="white" stroke-width="1.5" d="M0,-3.0v7 M-2.5,-0.5L0,-3.0L2.5,-0.5"/>
  </g>
  <g id="resetDef">
    <use xlink:href="#rim2" fill="#404040"><set attributeName="fill" to="#808080" begin="reset.mouseover" end="reset.mouseout"/></use>
  </g>
</defs>
<script type="application/ecmascript">
var viewWidth = 883;
var viewHeight = 362;
var sectionId = 'dynsection-2';
</script>
<script type="application/ecmascript" xlink:href="svg.min.js"/>
<svg id="graph" class="graph">
<g id="viewport">
<title>polyfem::solver::ElasticVariableToSimulation::compute_adjoint_term</title>
<!-- Node1 -->
<g id="Node000001" class="node">
<title>Node1</title>
<g id="a_Node000001"><a xlink:title=" ">
<polygon fill="#999999" stroke="#666666" points="131,-209.5 0,-209.5 0,-168.5 131,-168.5 131,-209.5"/>
<text text-anchor="start" x="8" y="-197.5" font-family="Helvetica,sans-Serif" font-size="10.00">polyfem::solver::Elastic</text>
<text text-anchor="start" x="8" y="-186.5" font-family="Helvetica,sans-Serif" font-size="10.00">VariableToSimulation::</text>
<text text-anchor="middle" x="65.5" y="-175.5" font-family="Helvetica,sans-Serif" font-size="10.00">compute_adjoint_term</text>
</a>
</g>
</g>
<!-- Node2 -->
<g id="Node000002" class="node">
<title>Node2</title>
<g id="a_Node000002"><a xlink:href="classpolyfem_1_1solver_1_1_variable_to_simulation.html#a1468ee2e131cb52898bae709938cc9e0" target="_top" xlink:title=" ">
<polygon fill="white" stroke="#666666" points="363,-276.5 167,-276.5 167,-235.5 363,-235.5 363,-276.5"/>
<text text-anchor="start" x="175" y="-264.5" font-family="Helvetica,sans-Serif" font-size="10.00">polyfem::solver::Variable</text>
<text text-anchor="start" x="175" y="-253.5" font-family="Helvetica,sans-Serif" font-size="10.00">ToSimulation::apply_parametrization</text>
<text text-anchor="middle" x="265" y="-242.5" font-family="Helvetica,sans-Serif" font-size="10.00">_jacobian</text>
</a>
</g>
</g>
<!-- Node1&#45;&gt;Node2 -->
<g id="edge1_Node000001_Node000002" class="edge">
<title>Node1&#45;&gt;Node2</title>
<g id="a_edge1_Node000001_Node000002"><a xlink:title=" ">
<path fill="none" stroke="#63b8ff" d="M127.1,-209.56C148.24,-216.73 172.13,-224.83 193.97,-232.24"/>
<polygon fill="#63b8ff" stroke="#63b8ff" points="192.92,-235.58 203.52,-235.48 195.17,-228.95 192.92,-235.58"/>
</a>
</g>
</g>
<!-- Node8 -->
<g id="Node000008" class="node">
<title>Node8</title>
<g id="a_Node000008"><a xlink:href="classpolyfem_1_1solver_1_1_adjoint_tools.html#ac2d6e588ea62390fae16da18ec65c996" target="_top" xlink:title=" ">
<polygon fill="white" stroke="#666666" points="332.5,-209.5 197.5,-209.5 197.5,-168.5 332.5,-168.5 332.5,-209.5"/>
<text text-anchor="start" x="205.5" y="-197.5" font-family="Helvetica,sans-Serif" font-size="10.00">polyfem::solver::Adjoint</text>
<text text-anchor="start" x="205.5" y="-186.5" font-family="Helvetica,sans-Serif" font-size="10.00">Tools::dJ_material_static</text>
<text text-anchor="middle" x="265" y="-175.5" font-family="Helvetica,sans-Serif" font-size="10.00">_adjoint_term</text>
</a>
</g>
</g>
<!-- Node1&#45;&gt;Node8 -->
<g id="edge8_Node000001_Node000008" class="edge">
<title>Node1&#45;&gt;Node8</title>
<g id="a_edge8_Node000001_Node000008"><a xlink:title=" ">
<path fill="none" stroke="#63b8ff" d="M131.17,-189C149.11,-189 168.76,-189 187.31,-189"/>
<polygon fill="#63b8ff" stroke="#63b8ff" points="187.49,-192.5 197.49,-189 187.49,-185.5 187.49,-192.5"/>
</a>
</g>
</g>
<!-- Node9 -->
<g id="Node000009" class="node">
<title>Node9</title>
<g id="a_Node000009"><a xlink:href="classpolyfem_1_1solver_1_1_adjoint_tools.html#a8c5bd48aac94f33974b81900015f979b" target="_top" xlink:title=" ">
<polygon fill="white" stroke="#666666" points="341,-134.5 189,-134.5 189,-93.5 341,-93.5 341,-134.5"/>
<text text-anchor="start" x="197" y="-122.5" font-family="Helvetica,sans-Serif" font-size="10.00">polyfem::solver::Adjoint</text>
<text text-anchor="start" x="197" y="-111.5" font-family="Helvetica,sans-Serif" font-size="10.00">Tools::dJ_material_transient</text>
<text text-anchor="middle" x="265" y="-100.5" font-family="Helvetica,sans-Serif" font-size="10.00">_adjoint_term</text>
</a>
</g>
</g>
<!-- Node1&#45;&gt;Node9 -->
<g id="edge9_Node000001_Node000009" class="edge">
<title>Node1&#45;&gt;Node9</title>
<g id="a_edge9_Node000001_Node000009"><a xlink:title=" ">
<path fill="none" stroke="#63b8ff" d="M120.73,-168.41C145.33,-159.06 174.61,-147.95 200.26,-138.21"/>
<polygon fill="#63b8ff" stroke="#63b8ff" points="201.79,-141.37 209.89,-134.55 199.3,-134.83 201.79,-141.37"/>
</a>
</g>
</g>
<!-- Node3 -->
<g id="Node000003" class="node">
<title>Node3</title>
<g id="a_Node000003"><a xlink:href="classpolyfem_1_1solver_1_1_composite_parametrization.html#a34d19dcd05175faa19ced87215c969be" target="_top" xlink:title=" ">
<polygon fill="white" stroke="#666666" points="554,-335.5 402,-335.5 402,-294.5 554,-294.5 554,-335.5"/>
<text text-anchor="start" x="410" y="-323.5" font-family="Helvetica,sans-Serif" font-size="10.00">polyfem::solver::Composite</text>
<text text-anchor="start" x="410" y="-312.5" font-family="Helvetica,sans-Serif" font-size="10.00">Parametrization::apply</text>
<text text-anchor="middle" x="478" y="-301.5" font-family="Helvetica,sans-Serif" font-size="10.00">_jacobian</text>
</a>
</g>
</g>
<!-- Node2&#45;&gt;Node3 -->
<g id="edge2_Node000002_Node000003" class="edge">
<title>Node2&#45;&gt;Node3</title>
<g id="a_edge2_Node000002_Node000003"><a xlink:title=" ">
<path fill="none" stroke="#63b8ff" d="M339.5,-276.55C356.96,-281.43 375.72,-286.68 393.58,-291.67"/>
<polygon fill="#63b8ff" stroke="#63b8ff" points="392.83,-295.1 403.4,-294.42 394.72,-288.36 392.83,-295.1"/>
</a>
</g>
</g>
<!-- Node4 -->
<g id="Node000004" class="node">
<title>Node4</title>
<g id="a_Node000004"><a xlink:href="classpolyfem_1_1solver_1_1_variable_to_simulation.html#add1131a5cecca74b48bf4d0a0fa9cddb" target="_top" xlink:title=" ">
<polygon fill="white" stroke="#666666" points="547.5,-276.5 408.5,-276.5 408.5,-235.5 547.5,-235.5 547.5,-276.5"/>
<text text-anchor="start" x="416.5" y="-264.5" font-family="Helvetica,sans-Serif" font-size="10.00">polyfem::solver::Variable</text>
<text text-anchor="start" x="416.5" y="-253.5" font-family="Helvetica,sans-Serif" font-size="10.00">ToSimulation::get_output</text>
<text text-anchor="middle" x="478" y="-242.5" font-family="Helvetica,sans-Serif" font-size="10.00">_indexing</text>
</a>
</g>
</g>
<!-- Node2&#45;&gt;Node4 -->
<g id="edge4_Node000002_Node000004" class="edge">
<title>Node2&#45;&gt;Node4</title>
<g id="a_edge4_Node000002_Node000004"><a xlink:title=" ">
<path fill="none" stroke="#63b8ff" d="M363.16,-256C374.84,-256 386.65,-256 398.03,-256"/>
<polygon fill="#63b8ff" stroke="#63b8ff" points="398.33,-259.5 408.33,-256 398.33,-252.5 398.33,-259.5"/>
</a>
</g>
</g>
<!-- Node3&#45;&gt;Node3 -->
<g id="edge3_Node000003_Node000003" class="edge">
<title>Node3&#45;&gt;Node3</title>
<g id="a_edge3_Node000003_Node000003"><a xlink:title=" ">
<path fill="none" stroke="#63b8ff" d="M443.08,-335.6C439.27,-345.15 450.91,-353.5 478,-353.5 494.93,-353.5 505.83,-350.24 510.69,-345.46"/>
<polygon fill="#63b8ff" stroke="#63b8ff" points="514.13,-346.12 512.92,-335.6 507.3,-344.58 514.13,-346.12"/>
</a>
</g>
</g>
<!-- Node5 -->
<g id="Node000005" class="node">
<title>Node5</title>
<g id="a_Node000005"><a xlink:href="namespacepolyfem.html#adc7e749e0c40939b7323961c6a41e391" target="_top" xlink:title=" ">
<polygon fill="white" stroke="#666666" points="736,-295 602,-295 602,-265 736,-265 736,-295"/>
<text text-anchor="start" x="610" y="-283" font-family="Helvetica,sans-Serif" font-size="10.00">polyfem::log_and_throw</text>
<text text-anchor="middle" x="669" y="-272" font-family="Helvetica,sans-Serif" font-size="10.00">_error</text>
</a>
</g>
</g>
<!-- Node4&#45;&gt;Node5 -->
<g id="edge5_Node000004_Node000005" class="edge">
<title>Node4&#45;&gt;Node5</title>
<g id="a_edge5_Node000004_Node000005"><a xlink:title=" ">
<path fill="none" stroke="#63b8ff" d="M547.5,-264.7C561.92,-266.53 577.22,-268.47 591.9,-270.34"/>
<polygon fill="#63b8ff" stroke="#63b8ff" points="591.58,-273.82 601.94,-271.61 592.46,-266.88 591.58,-273.82"/>
</a>
</g>
</g>
<!-- Node7 -->
<g id="Node000007" class="node">
<title>Node7</title>
<g id="a_Node000007"><a xlink:href="classpolyfem_1_1solver_1_1_composite_parametrization.html#a0444e6671378eaf12bc3c0e2a4601aa2" target="_top" xlink:title=" ">
<polygon fill="white" stroke="#666666" points="745,-247 593,-247 593,-217 745,-217 745,-247"/>
<text text-anchor="start" x="601" y="-235" font-family="Helvetica,sans-Serif" font-size="10.00">polyfem::solver::Composite</text>
<text text-anchor="middle" x="669" y="-224" font-family="Helvetica,sans-Serif" font-size="10.00">Parametrization::size</text>
</a>
</g>
</g>
<!-- Node4&#45;&gt;Node7 -->
<g id="edge7_Node000004_Node000007" class="edge">
<title>Node4&#45;&gt;Node7</title>
<g id="a_edge7_Node000004_Node000007"><a xlink:title=" ">
<path fill="none" stroke="#63b8ff" d="M547.5,-247.3C558.86,-245.86 570.76,-244.35 582.47,-242.86"/>
<polygon fill="#63b8ff" stroke="#63b8ff" points="583.22,-246.29 592.7,-241.56 582.34,-239.35 583.22,-246.29"/>
</a>
</g>
</g>
<!-- Node6 -->
<g id="Node000006" class="node">
<title>Node6</title>
<g id="a_Node000006"><a xlink:href="namespacepolyfem.html#a03f3d75072d2fd19f70cd886a51d10dd" target="_top" xlink:title="Retrieves the current logger.">
<polygon fill="white" stroke="#666666" points="875,-289.5 781,-289.5 781,-270.5 875,-270.5 875,-289.5"/>
<text text-anchor="middle" x="828" y="-277.5" font-family="Helvetica,sans-Serif" font-size="10.00">polyfem::logger</text>
</a>
</g>
</g>
<!-- Node5&#45;&gt;Node6 -->
<g id="edge6_Node000005_Node000006" class="edge">
<title>Node5&#45;&gt;Node6</title>
<g id="a_edge6_Node000005_Node000006"><a xlink:title=" ">
<path fill="none" stroke="#63b8ff" d="M736.13,-280C747.68,-280 759.59,-280 770.84,-280"/>
<polygon fill="#63b8ff" stroke="#63b8ff" points="770.95,-283.5 780.95,-280 770.95,-276.5 770.95,-283.5"/>
</a>
</g>
</g>
<!-- Node10 -->
<g id="Node000010" class="node">
<title>Node10</title>
<g id="a_Node000010"><a xlink:href="classpolyfem_1_1time__integrator_1_1_b_d_f.html#a36931fc9cd7efc6ec431d49ddf7330a6" target="_top" xlink:title="Retrieve the value of beta used for BDF with i steps.">
<polygon fill="white" stroke="#666666" points="547.5,-217 408.5,-217 408.5,-187 547.5,-187 547.5,-217"/>
<text text-anchor="start" x="416.5" y="-205" font-family="Helvetica,sans-Serif" font-size="10.00">polyfem::time_integrator</text>
<text text-anchor="middle" x="478" y="-194" font-family="Helvetica,sans-Serif" font-size="10.00">::BDF::betas</text>
</a>
</g>
</g>
<!-- Node9&#45;&gt;Node10 -->
<g id="edge10_Node000009_Node000010" class="edge">
<title>Node9&#45;&gt;Node10</title>
<g id="a_edge10_Node000009_Node000010"><a xlink:title=" ">
<path fill="none" stroke="#63b8ff" d="M310.03,-134.65C326.67,-142.51 345.74,-151.59 363,-160 379.08,-167.83 382.39,-171.35 399,-178 403.81,-179.93 408.83,-181.79 413.92,-183.58"/>
<polygon fill="#63b8ff" stroke="#63b8ff" points="413.13,-187 423.72,-186.9 415.37,-180.37 413.13,-187"/>
</a>
</g>
</g>
<!-- Node11 -->
<g id="Node000011" class="node">
<title>Node11</title>
<g id="a_Node000011"><a xlink:href="namespacepolyfem_1_1utils.html#ad20302c105652db61d40fbfcb81847ae" target="_top" xlink:title=" ">
<polygon fill="white" stroke="#666666" points="538.5,-169 417.5,-169 417.5,-139 538.5,-139 538.5,-169"/>
<text text-anchor="start" x="425.5" y="-157" font-family="Helvetica,sans-Serif" font-size="10.00">polyfem::utils::create</text>
<text text-anchor="middle" x="478" y="-146" font-family="Helvetica,sans-Serif" font-size="10.00">_thread_storage</text>
</a>
</g>
</g>
<!-- Node9&#45;&gt;Node11 -->
<g id="edge11_Node000009_Node000011" class="edge">
<title>Node9&#45;&gt;Node11</title>
<g id="a_edge11_Node000009_Node000011"><a xlink:title=" ">
<path fill="none" stroke="#63b8ff" d="M341.28,-128.27C362.84,-132.36 386.24,-136.79 407.44,-140.81"/>
<polygon fill="#63b8ff" stroke="#63b8ff" points="406.85,-144.26 417.33,-142.69 408.15,-137.39 406.85,-144.26"/>
</a>
</g>
</g>
<!-- Node12 -->
<g id="Node000012" class="node">
<title>Node12</title>
<g id="a_Node000012"><a xlink:href="namespacepolyfem_1_1utils.html#a7ac07413a97692d41b88a610b9727b9b" target="_top" xlink:title=" ">
<polygon fill="white" stroke="#666666" points="540,-121 416,-121 416,-91 540,-91 540,-121"/>
<text text-anchor="start" x="424" y="-109" font-family="Helvetica,sans-Serif" font-size="10.00">polyfem::utils::get</text>
<text text-anchor="middle" x="478" y="-98" font-family="Helvetica,sans-Serif" font-size="10.00">_local_thread_storage</text>
</a>
</g>
</g>
<!-- Node9&#45;&gt;Node12 -->
<g id="edge12_Node000009_Node000012" class="edge">
<title>Node9&#45;&gt;Node12</title>
<g id="a_edge12_Node000009_Node000012"><a xlink:title=" ">
<path fill="none" stroke="#63b8ff" d="M341.28,-111.15C362.34,-110.35 385.14,-109.48 405.94,-108.69"/>
<polygon fill="#63b8ff" stroke="#63b8ff" points="406.12,-112.19 415.98,-108.31 405.85,-105.2 406.12,-112.19"/>
</a>
</g>
</g>
<!-- Node13 -->
<g id="Node000013" class="node">
<title>Node13</title>
<g id="a_Node000013"><a xlink:href="namespacepolyfem_1_1utils.html#afac51d1fd7878475ff843eef315f510c" target="_top" xlink:title=" ">
<polygon fill="white" stroke="#666666" points="540,-73 416,-73 416,-43 540,-43 540,-73"/>
<text text-anchor="start" x="424" y="-61" font-family="Helvetica,sans-Serif" font-size="10.00">polyfem::utils::maybe</text>
<text text-anchor="middle" x="478" y="-50" font-family="Helvetica,sans-Serif" font-size="10.00">_parallel_for</text>
</a>
</g>
</g>
<!-- Node9&#45;&gt;Node13 -->
<g id="edge13_Node000009_Node000013" class="edge">
<title>Node9&#45;&gt;Node13</title>
<g id="a_edge13_Node000009_Node000013"><a xlink:title=" ">
<path fill="none" stroke="#63b8ff" d="M341.28,-94.02C363.86,-88.03 388.46,-81.5 410.43,-75.67"/>
<polygon fill="#63b8ff" stroke="#63b8ff" points="411.56,-78.99 420.33,-73.04 409.76,-72.22 411.56,-78.99"/>
</a>
</g>
</g>
<!-- Node14 -->
<g id="Node000014" class="node">
<title>Node14</title>
<g id="a_Node000014"><a xlink:href="classpolyfem_1_1solver_1_1_diff_cache.html#a59e300819d392668781b1055f8943f58" target="_top" xlink:title=" ">
<polygon fill="white" stroke="#666666" points="557,-24.5 399,-24.5 399,-5.5 557,-5.5 557,-24.5"/>
<text text-anchor="middle" x="478" y="-12.5" font-family="Helvetica,sans-Serif" font-size="10.00">polyfem::solver::DiffCache::u</text>
</a>
</g>
</g>
<!-- Node9&#45;&gt;Node14 -->
<g id="edge14_Node000009_Node000014" class="edge">
<title>Node9&#45;&gt;Node14</title>
<g id="a_edge14_Node000009_Node000014"><a xlink:title=" ">
<path fill="none" stroke="#63b8ff" d="M294.49,-93.36C320.55,-75.36 360.75,-49.73 399,-34 405.15,-31.47 411.71,-29.22 418.33,-27.24"/>
<polygon fill="#63b8ff" stroke="#63b8ff" points="419.33,-30.6 428.01,-24.53 417.44,-23.86 419.33,-30.6"/>
</a>
</g>
</g>
<!-- Node15 -->
<g id="Node000015" class="node">
<title>Node15</title>
<g id="a_Node000015"><a xlink:href="classpolyfem_1_1solver_1_1_diff_cache.html#aa58b56179289dbd2980ff06dfd8b2c0d" target="_top" xlink:title=" ">
<polygon fill="white" stroke="#666666" points="742,-30 596,-30 596,0 742,0 742,-30"/>
<text text-anchor="start" x="604" y="-18" font-family="Helvetica,sans-Serif" font-size="10.00">polyfem::solver::DiffCache</text>
<text text-anchor="middle" x="669" y="-7" font-family="Helvetica,sans-Serif" font-size="10.00">::size</text>
</a>
</g>
</g>
<!-- Node14&#45;&gt;Node15 -->
<g id="edge15_Node000014_Node000015" class="edge">
<title>Node14&#45;&gt;Node15</title>
<g id="a_edge15_Node000014_Node000015"><a xlink:title=" ">
<path fill="none" stroke="#63b8ff" d="M557.24,-15C566.63,-15 576.25,-15 585.7,-15"/>
<polygon fill="#63b8ff" stroke="#63b8ff" points="585.88,-18.5 595.88,-15 585.88,-11.5 585.88,-18.5"/>
</a>
</g>
</g>
</g>
</svg>

<g id="navigator" transform="translate(0 0)" fill="#404254">
  <rect fill="#f2f5e9" fill-opacity="0.5" stroke="#606060" stroke-width=".5" x="0" y="0" width="60" height="60"/>
  <use id="zoomplus" xlink:href="#zoomPlus" x="17" y="9" onmousedown="handleZoom(evt,'in')"/>
  <use id="zoomminus" xlink:href="#zoomMin" x="42" y="9" onmousedown="handleZoom(evt,'out')"/>
  <use id="reset" xlink:href="#resetDef" x="30" y="36" onmousedown="handleReset()"/>
   <use id="arrowup" xlink:href="#arrowUp" x="0" y="0" onmousedown="handlePan(0,-1)"/>
  <use id="arrowright" xlink:href="#arrowRight" x="0" y="0" onmousedown="handlePan(1,0)"/>
  <use id="arrowdown" xlink:href="#arrowDown" x="0" y="0" onmousedown="handlePan(0,1)"/>
  <use id="arrowleft" xlink:href="#arrowLeft" x="0" y="0" onmousedown="handlePan(-1,0)"/>
</g>
<svg viewBox="0 0 15 15" width="100%" height="30px" preserveAspectRatio="xMaxYMin meet">
 <g id="arrow_out" transform="scale(0.3 0.3)">
  <a xlink:href="classpolyfem_1_1solver_1_1_elastic_variable_to_simulation_a22c326ff74722077734beaccc1301647_cgraph_org.svg" target="_base">
   <rect id="button" ry="5" rx="5" y="6" x="6" height="38" width="38"
        fill="#f2f5e9" fill-opacity="0.5" stroke="#606060" stroke-width="1.0"/>
   <path id="arrow"
     d="M 11.500037,31.436501 C 11.940474,20.09759 22.043105,11.32322 32.158766,21.979434 L 37.068811,17.246167 C 37.068811,17.246167 37.088388,32 37.088388,32 L 22.160133,31.978069 C 22.160133,31.978069 26.997745,27.140456 26.997745,27.140456 C 18.528582,18.264221 13.291696,25.230495 11.500037,31.436501 z"
     style="fill:#404040;"/>
  </a>
 </g>
</svg>

<style type='text/css'>
<![CDATA[
[data-mouse-over-selected='false'] { opacity: 0.7; }
[data-mouse-over-selected='true']  { opacity: 1.0; }
]]>
</style>
<script type="application/ecmascript"><![CDATA[
document.addEventListener('DOMContentLoaded', (event) => {
  highlightEdges();
  highlightAdjacentNodes();
});
]]></script>
</svg>
