<?xml version="1.0" encoding="UTF-8" standalone="no"?>
<!DOCTYPE svg PUBLIC "-//W3C//DTD SVG 1.1//EN"
 "http://www.w3.org/Graphics/SVG/1.1/DTD/svg11.dtd">
<!-- Generated by graphviz version 2.43.0 (0)
 -->
<!-- Title: polyfem::State::primitive_to_node Pages: 1 -->
<svg width="812pt" height="748pt"
 viewBox="0.00 0.00 812.00 747.50" xmlns="http://www.w3.org/2000/svg" xmlns:xlink="http://www.w3.org/1999/xlink">
<g id="graph0" class="graph" transform="scale(1 1) rotate(0) translate(4 743.5)">
<title>polyfem::State::primitive_to_node</title>
<!-- Node1 -->
<g id="Node000001" class="node">
<title>Node1</title>
<g id="a_Node000001"><a xlink:title=" ">
<polygon fill="#999999" stroke="#666666" points="804,-261.5 665,-261.5 665,-231.5 804,-231.5 804,-261.5"/>
<text text-anchor="start" x="673" y="-249.5" font-family="Helvetica,sans-Serif" font-size="10.00">polyfem::State::primitive</text>
<text text-anchor="middle" x="734.5" y="-238.5" font-family="Helvetica,sans-Serif" font-size="10.00">_to_node</text>
</a>
</g>
</g>
<!-- Node2 -->
<g id="Node000002" class="node">
<title>Node2</title>
<g id="a_Node000002"><a xlink:href="classpolyfem_1_1_state.html#aaeefcb179a8bda9cb3a0768a692a74ea" target="_top" xlink:title=" ">
<polygon fill="white" stroke="#666666" points="379.5,-739.5 259.5,-739.5 259.5,-709.5 379.5,-709.5 379.5,-739.5"/>
<text text-anchor="start" x="267.5" y="-727.5" font-family="Helvetica,sans-Serif" font-size="10.00">polyfem::State::build</text>
<text text-anchor="middle" x="319.5" y="-716.5" font-family="Helvetica,sans-Serif" font-size="10.00">_pressure_assembler</text>
</a>
</g>
</g>
<!-- Node1&#45;&gt;Node2 -->
<g id="edge1_Node000001_Node000002" class="edge">
<title>Node1&#45;&gt;Node2</title>
<g id="a_edge1_Node000001_Node000002"><a xlink:title=" ">
<path fill="none" stroke="#63b8ff" d="M730.23,-272.02C719.54,-351.52 683.18,-592.59 629,-646.5 562.62,-712.55 448.9,-725.33 379.63,-726.42"/>
<polygon fill="#63b8ff" stroke="#63b8ff" points="733.72,-272.29 731.57,-261.91 726.79,-271.37 733.72,-272.29"/>
</a>
</g>
</g>
<!-- Node3 -->
<g id="Node000003" class="node">
<title>Node3</title>
<g id="a_Node000003"><a xlink:href="namespacepolyfem_1_1solver_1_1_adjoint_tools.html#abe995a02650a04c609c22f811a1291e3" target="_top" xlink:title=" ">
<polygon fill="white" stroke="#666666" points="608.5,-316 474.5,-316 474.5,-275 608.5,-275 608.5,-316"/>
<text text-anchor="start" x="482.5" y="-304" font-family="Helvetica,sans-Serif" font-size="10.00">polyfem::solver::Adjoint</text>
<text text-anchor="start" x="482.5" y="-293" font-family="Helvetica,sans-Serif" font-size="10.00">Tools::dJ_dirichlet_static</text>
<text text-anchor="middle" x="541.5" y="-282" font-family="Helvetica,sans-Serif" font-size="10.00">_adjoint_term</text>
</a>
</g>
</g>
<!-- Node1&#45;&gt;Node3 -->
<g id="edge2_Node000001_Node000003" class="edge">
<title>Node1&#45;&gt;Node3</title>
<g id="a_edge2_Node000001_Node000003"><a xlink:title=" ">
<path fill="none" stroke="#63b8ff" d="M665.15,-264.04C646.77,-268.75 626.93,-273.84 608.67,-278.52"/>
<polygon fill="#63b8ff" stroke="#63b8ff" points="666.08,-267.41 674.9,-261.53 664.34,-260.63 666.08,-267.41"/>
</a>
</g>
</g>
<!-- Node5 -->
<g id="Node000005" class="node">
<title>Node5</title>
<g id="a_Node000005"><a xlink:href="namespacepolyfem_1_1solver_1_1_adjoint_tools.html#acca34657c92e6d98e9bf30914f8adfa5" target="_top" xlink:title=" ">
<polygon fill="white" stroke="#666666" points="387,-215 252,-215 252,-174 387,-174 387,-215"/>
<text text-anchor="start" x="260" y="-203" font-family="Helvetica,sans-Serif" font-size="10.00">polyfem::solver::Adjoint</text>
<text text-anchor="start" x="260" y="-192" font-family="Helvetica,sans-Serif" font-size="10.00">Tools::dJ_periodic_shape</text>
<text text-anchor="middle" x="319.5" y="-181" font-family="Helvetica,sans-Serif" font-size="10.00">_adjoint_term</text>
</a>
</g>
</g>
<!-- Node1&#45;&gt;Node5 -->
<g id="edge4_Node000001_Node000005" class="edge">
<title>Node1&#45;&gt;Node5</title>
<g id="a_edge4_Node000001_Node000005"><a xlink:title=" ">
<path fill="none" stroke="#63b8ff" d="M654.54,-244.8C598.34,-242.7 521.18,-238 454,-227.5 432.06,-224.07 408.45,-218.78 387.27,-213.43"/>
<polygon fill="#63b8ff" stroke="#63b8ff" points="654.67,-248.31 664.78,-245.17 654.91,-241.31 654.67,-248.31"/>
</a>
</g>
</g>
<!-- Node7 -->
<g id="Node000007" class="node">
<title>Node7</title>
<g id="a_Node000007"><a xlink:href="namespacepolyfem_1_1solver_1_1_adjoint_tools.html#a1c6066de8e0b261f87dd0081f88fcee5" target="_top" xlink:title=" ">
<polygon fill="white" stroke="#666666" points="629,-218 454,-218 454,-177 629,-177 629,-218"/>
<text text-anchor="start" x="462" y="-206" font-family="Helvetica,sans-Serif" font-size="10.00">polyfem::solver::Adjoint</text>
<text text-anchor="start" x="462" y="-195" font-family="Helvetica,sans-Serif" font-size="10.00">Tools::dJ_shape_homogenization</text>
<text text-anchor="middle" x="541.5" y="-184" font-family="Helvetica,sans-Serif" font-size="10.00">_adjoint_term</text>
</a>
</g>
</g>
<!-- Node1&#45;&gt;Node7 -->
<g id="edge6_Node000001_Node000007" class="edge">
<title>Node1&#45;&gt;Node7</title>
<g id="a_edge6_Node000001_Node000007"><a xlink:title=" ">
<path fill="none" stroke="#63b8ff" d="M665.01,-228.93C651.21,-225.39 636.6,-221.64 622.45,-218.01"/>
<polygon fill="#63b8ff" stroke="#63b8ff" points="664.34,-232.37 674.9,-231.47 666.08,-225.59 664.34,-232.37"/>
</a>
</g>
</g>
<!-- Node9 -->
<g id="Node000009" class="node">
<title>Node9</title>
<g id="a_Node000009"><a xlink:href="namespacepolyfem_1_1solver_1_1_adjoint_tools.html#a7c547853542f8d5090716f5bb5408551" target="_top" xlink:title=" ">
<polygon fill="white" stroke="#666666" points="608.5,-100 474.5,-100 474.5,-59 608.5,-59 608.5,-100"/>
<text text-anchor="start" x="482.5" y="-88" font-family="Helvetica,sans-Serif" font-size="10.00">polyfem::solver::Adjoint</text>
<text text-anchor="start" x="482.5" y="-77" font-family="Helvetica,sans-Serif" font-size="10.00">Tools::dJ_shape_static</text>
<text text-anchor="middle" x="541.5" y="-66" font-family="Helvetica,sans-Serif" font-size="10.00">_adjoint_term</text>
</a>
</g>
</g>
<!-- Node1&#45;&gt;Node9 -->
<g id="edge9_Node000001_Node000009" class="edge">
<title>Node1&#45;&gt;Node9</title>
<g id="a_edge9_Node000001_Node000009"><a xlink:title=" ">
<path fill="none" stroke="#63b8ff" d="M721.06,-222.09C704.2,-191.35 671.28,-138.88 629,-108.5 622.83,-104.06 615.93,-100.27 608.79,-97.04"/>
<polygon fill="#63b8ff" stroke="#63b8ff" points="718.15,-224.08 725.96,-231.25 724.33,-220.78 718.15,-224.08"/>
</a>
</g>
</g>
<!-- Node10 -->
<g id="Node000010" class="node">
<title>Node10</title>
<g id="a_Node000010"><a xlink:href="namespacepolyfem_1_1solver_1_1_adjoint_tools.html#ac1799405ed67ff4f7b2425d601fe666e" target="_top" xlink:title=" ">
<polygon fill="white" stroke="#666666" points="611.5,-159 471.5,-159 471.5,-118 611.5,-118 611.5,-159"/>
<text text-anchor="start" x="479.5" y="-147" font-family="Helvetica,sans-Serif" font-size="10.00">polyfem::solver::Adjoint</text>
<text text-anchor="start" x="479.5" y="-136" font-family="Helvetica,sans-Serif" font-size="10.00">Tools::dJ_shape_transient</text>
<text text-anchor="middle" x="541.5" y="-125" font-family="Helvetica,sans-Serif" font-size="10.00">_adjoint_term</text>
</a>
</g>
</g>
<!-- Node1&#45;&gt;Node10 -->
<g id="edge11_Node000001_Node000010" class="edge">
<title>Node1&#45;&gt;Node10</title>
<g id="a_edge11_Node000001_Node000010"><a xlink:title=" ">
<path fill="none" stroke="#63b8ff" d="M709.15,-224.45C688.91,-207.04 658.7,-183.17 629,-167.5 623.26,-164.47 617.13,-161.67 610.9,-159.1"/>
<polygon fill="#63b8ff" stroke="#63b8ff" points="707.09,-227.29 716.93,-231.23 711.69,-222.02 707.09,-227.29"/>
</a>
</g>
</g>
<!-- Node11 -->
<g id="Node000011" class="node">
<title>Node11</title>
<g id="a_Node000011"><a xlink:href="classpolyfem_1_1solver_1_1_periodic_contact_force_derivative.html#ad09fddb737b615a75b50168a4a56ecc2" target="_top" xlink:title=" ">
<polygon fill="white" stroke="#666666" points="610.5,-41 472.5,-41 472.5,0 610.5,0 610.5,-41"/>
<text text-anchor="start" x="480.5" y="-29" font-family="Helvetica,sans-Serif" font-size="10.00">polyfem::solver::Periodic</text>
<text text-anchor="start" x="480.5" y="-18" font-family="Helvetica,sans-Serif" font-size="10.00">ContactForceDerivative</text>
<text text-anchor="middle" x="541.5" y="-7" font-family="Helvetica,sans-Serif" font-size="10.00">::force_shape_derivative</text>
</a>
</g>
</g>
<!-- Node1&#45;&gt;Node11 -->
<g id="edge13_Node000001_Node000011" class="edge">
<title>Node1&#45;&gt;Node11</title>
<g id="a_edge13_Node000001_Node000011"><a xlink:title=" ">
<path fill="none" stroke="#63b8ff" d="M726.89,-221.62C714.59,-180.04 684.28,-96.37 629,-49.5 623.56,-44.89 617.37,-41.01 610.84,-37.73"/>
<polygon fill="#63b8ff" stroke="#63b8ff" points="723.59,-222.81 729.7,-231.47 730.32,-220.89 723.59,-222.81"/>
</a>
</g>
</g>
<!-- Node12 -->
<g id="Node000012" class="node">
<title>Node12</title>
<g id="a_Node000012"><a xlink:href="namespacepolyfem_1_1solver_1_1_adjoint_tools.html#aa7f73a425012498c55fca81fd8a24ca5" target="_top" xlink:title=" ">
<polygon fill="white" stroke="#666666" points="608.5,-419 474.5,-419 474.5,-378 608.5,-378 608.5,-419"/>
<text text-anchor="start" x="482.5" y="-407" font-family="Helvetica,sans-Serif" font-size="10.00">polyfem::solver::Adjoint</text>
<text text-anchor="start" x="482.5" y="-396" font-family="Helvetica,sans-Serif" font-size="10.00">Tools::map_primitive_to</text>
<text text-anchor="middle" x="541.5" y="-385" font-family="Helvetica,sans-Serif" font-size="10.00">_node_order</text>
</a>
</g>
</g>
<!-- Node1&#45;&gt;Node12 -->
<g id="edge14_Node000001_Node000012" class="edge">
<title>Node1&#45;&gt;Node12</title>
<g id="a_edge14_Node000001_Node000012"><a xlink:title=" ">
<path fill="none" stroke="#63b8ff" d="M706.22,-268.21C669.44,-297.48 604.42,-349.23 568.37,-377.91"/>
<polygon fill="#63b8ff" stroke="#63b8ff" points="708.84,-270.6 714.49,-261.63 704.48,-265.12 708.84,-270.6"/>
</a>
</g>
</g>
<!-- Node25 -->
<g id="Node000025" class="node">
<title>Node25</title>
<g id="a_Node000025"><a xlink:href="classpolyfem_1_1_state.html#a8094354c829985f700975c1c72607a06" target="_top" xlink:title=" ">
<polygon fill="white" stroke="#666666" points="601,-637.5 482,-637.5 482,-607.5 601,-607.5 601,-637.5"/>
<text text-anchor="start" x="490" y="-625.5" font-family="Helvetica,sans-Serif" font-size="10.00">polyfem::State::node</text>
<text text-anchor="middle" x="541.5" y="-614.5" font-family="Helvetica,sans-Serif" font-size="10.00">_to_primitive</text>
</a>
</g>
</g>
<!-- Node1&#45;&gt;Node25 -->
<g id="edge27_Node000001_Node000025" class="edge">
<title>Node1&#45;&gt;Node25</title>
<g id="a_edge27_Node000001_Node000025"><a xlink:title=" ">
<path fill="none" stroke="#63b8ff" d="M721.14,-270.83C684.95,-342.08 579.88,-548.91 550.32,-607.11"/>
<polygon fill="#63b8ff" stroke="#63b8ff" points="724.37,-272.21 725.78,-261.71 718.13,-269.04 724.37,-272.21"/>
</a>
</g>
</g>
<!-- Node4 -->
<g id="Node000004" class="node">
<title>Node4</title>
<g id="a_Node000004"><a xlink:href="classpolyfem_1_1solver_1_1_dirichlet_nodes_variable_to_simulation.html#ac0d13c9423cc7ae626382deea345c066" target="_top" xlink:title="Compute adjoint contribution of objective gradient.">
<polygon fill="white" stroke="#666666" points="394.5,-274 244.5,-274 244.5,-233 394.5,-233 394.5,-274"/>
<text text-anchor="start" x="252.5" y="-262" font-family="Helvetica,sans-Serif" font-size="10.00">polyfem::solver::Dirichlet</text>
<text text-anchor="start" x="252.5" y="-251" font-family="Helvetica,sans-Serif" font-size="10.00">NodesVariableToSimulation</text>
<text text-anchor="middle" x="319.5" y="-240" font-family="Helvetica,sans-Serif" font-size="10.00">::compute_adjoint_term</text>
</a>
</g>
</g>
<!-- Node3&#45;&gt;Node4 -->
<g id="edge3_Node000003_Node000004" class="edge">
<title>Node3&#45;&gt;Node4</title>
<g id="a_edge3_Node000003_Node000004"><a xlink:title=" ">
<path fill="none" stroke="#63b8ff" d="M464.58,-281.01C441.91,-276.68 417.1,-271.94 394.55,-267.64"/>
<polygon fill="#63b8ff" stroke="#63b8ff" points="464.01,-284.46 474.49,-282.9 465.33,-277.59 464.01,-284.46"/>
</a>
</g>
</g>
<!-- Node6 -->
<g id="Node000006" class="node">
<title>Node6</title>
<g id="a_Node000006"><a xlink:href="classpolyfem_1_1solver_1_1_periodic_shape_variable_to_simulation.html#a12d3272f449df4abedc040afab67b6c6" target="_top" xlink:title="Compute adjoint contribution of objective gradient.">
<polygon fill="white" stroke="#666666" points="167,-122 18,-122 18,-81 167,-81 167,-122"/>
<text text-anchor="start" x="26" y="-110" font-family="Helvetica,sans-Serif" font-size="10.00">polyfem::solver::Periodic</text>
<text text-anchor="start" x="26" y="-99" font-family="Helvetica,sans-Serif" font-size="10.00">ShapeVariableToSimulation</text>
<text text-anchor="middle" x="92.5" y="-88" font-family="Helvetica,sans-Serif" font-size="10.00">::compute_adjoint_term</text>
</a>
</g>
</g>
<!-- Node5&#45;&gt;Node6 -->
<g id="edge5_Node000005_Node000006" class="edge">
<title>Node5&#45;&gt;Node6</title>
<g id="a_edge5_Node000005_Node000006"><a xlink:title=" ">
<path fill="none" stroke="#63b8ff" d="M242.49,-172.85C235.05,-169.76 227.76,-166.32 221,-162.5 202.61,-152.12 203.39,-141.88 185,-131.5 178.89,-128.05 172.31,-124.92 165.6,-122.11"/>
<polygon fill="#63b8ff" stroke="#63b8ff" points="241.37,-176.18 251.96,-176.58 243.93,-169.66 241.37,-176.18"/>
</a>
</g>
</g>
<!-- Node7&#45;&gt;Node5 -->
<g id="edge8_Node000007_Node000005" class="edge">
<title>Node7&#45;&gt;Node5</title>
<g id="a_edge8_Node000007_Node000005"><a xlink:title=" ">
<path fill="none" stroke="#63b8ff" d="M443.68,-196.18C424.66,-195.92 405.1,-195.65 387.33,-195.41"/>
<polygon fill="#63b8ff" stroke="#63b8ff" points="443.82,-199.68 453.87,-196.32 443.91,-192.68 443.82,-199.68"/>
</a>
</g>
</g>
<!-- Node8 -->
<g id="Node000008" class="node">
<title>Node8</title>
<g id="a_Node000008"><a xlink:href="classpolyfem_1_1solver_1_1_shape_variable_to_simulation.html#a9f5762367356019c956b2d04f86e4794" target="_top" xlink:title="Compute adjoint contribution of objective gradient.">
<polygon fill="white" stroke="#666666" points="417.5,-153.5 221.5,-153.5 221.5,-123.5 417.5,-123.5 417.5,-153.5"/>
<text text-anchor="start" x="229.5" y="-141.5" font-family="Helvetica,sans-Serif" font-size="10.00">polyfem::solver::ShapeVariable</text>
<text text-anchor="middle" x="319.5" y="-130.5" font-family="Helvetica,sans-Serif" font-size="10.00">ToSimulation::compute_adjoint_term</text>
</a>
</g>
</g>
<!-- Node7&#45;&gt;Node8 -->
<g id="edge7_Node000007_Node000008" class="edge">
<title>Node7&#45;&gt;Node8</title>
<g id="a_edge7_Node000007_Node000008"><a xlink:title=" ">
<path fill="none" stroke="#63b8ff" d="M454.59,-174.33C442.31,-171.02 429.83,-167.67 418,-164.5 404.72,-160.94 390.41,-157.12 376.96,-153.53"/>
<polygon fill="#63b8ff" stroke="#63b8ff" points="453.81,-177.74 464.38,-176.96 455.63,-170.98 453.81,-177.74"/>
</a>
</g>
</g>
<!-- Node9&#45;&gt;Node8 -->
<g id="edge10_Node000009_Node000008" class="edge">
<title>Node9&#45;&gt;Node8</title>
<g id="a_edge10_Node000009_Node000008"><a xlink:title=" ">
<path fill="none" stroke="#63b8ff" d="M464.47,-99.89C435.68,-107.61 403.45,-116.25 376.79,-123.4"/>
<polygon fill="#63b8ff" stroke="#63b8ff" points="465.74,-103.17 474.49,-97.2 463.93,-96.41 465.74,-103.17"/>
</a>
</g>
</g>
<!-- Node10&#45;&gt;Node8 -->
<g id="edge12_Node000010_Node000008" class="edge">
<title>Node10&#45;&gt;Node8</title>
<g id="a_edge12_Node000010_Node000008"><a xlink:title=" ">
<path fill="none" stroke="#63b8ff" d="M461.37,-138.5C447.26,-138.5 432.41,-138.5 417.87,-138.5"/>
<polygon fill="#63b8ff" stroke="#63b8ff" points="461.49,-142 471.49,-138.5 461.49,-135 461.49,-142"/>
</a>
</g>
</g>
<!-- Node13 -->
<g id="Node000013" class="node">
<title>Node13</title>
<g id="a_Node000013"><a xlink:href="classpolyfem_1_1solver_1_1_a_m_i_p_s_form.html#a653eca873137c884a22e958824816f8d" target="_top" xlink:title=" ">
<polygon fill="white" stroke="#666666" points="170,-717.5 15,-717.5 15,-687.5 170,-687.5 170,-717.5"/>
<text text-anchor="start" x="23" y="-705.5" font-family="Helvetica,sans-Serif" font-size="10.00">polyfem::solver::AMIPSForm</text>
<text text-anchor="middle" x="92.5" y="-694.5" font-family="Helvetica,sans-Serif" font-size="10.00">::compute_partial_gradient</text>
</a>
</g>
</g>
<!-- Node12&#45;&gt;Node13 -->
<g id="edge15_Node000012_Node000013" class="edge">
<title>Node12&#45;&gt;Node13</title>
<g id="a_edge15_Node000012_Node000013"><a xlink:title=" ">
<path fill="none" stroke="#63b8ff" d="M525.78,-428.07C506.28,-463.99 468.39,-523.59 418,-554.5 341.92,-601.17 290.24,-537.18 221,-593.5 189.17,-619.39 216.02,-651.65 185,-678.5 180.53,-682.37 175.51,-685.62 170.18,-688.36"/>
<polygon fill="#63b8ff" stroke="#63b8ff" points="528.97,-429.53 530.56,-419.05 522.79,-426.25 528.97,-429.53"/>
</a>
</g>
</g>
<!-- Node14 -->
<g id="Node000014" class="node">
<title>Node14</title>
<g id="a_Node000014"><a xlink:href="classpolyfem_1_1solver_1_1_collision_barrier_form.html#afa99bbe0187758a168ceeb8960bdad94" target="_top" xlink:title=" ">
<polygon fill="white" stroke="#666666" points="390,-333 249,-333 249,-292 390,-292 390,-333"/>
<text text-anchor="start" x="257" y="-321" font-family="Helvetica,sans-Serif" font-size="10.00">polyfem::solver::Collision</text>
<text text-anchor="start" x="257" y="-310" font-family="Helvetica,sans-Serif" font-size="10.00">BarrierForm::get_updated</text>
<text text-anchor="middle" x="319.5" y="-299" font-family="Helvetica,sans-Serif" font-size="10.00">_mesh_nodes</text>
</a>
</g>
</g>
<!-- Node12&#45;&gt;Node14 -->
<g id="edge16_Node000012_Node000014" class="edge">
<title>Node12&#45;&gt;Node14</title>
<g id="a_edge16_Node000012_Node000014"><a xlink:title=" ">
<path fill="none" stroke="#63b8ff" d="M478.21,-374.15C445.05,-361.19 404.72,-345.42 373.15,-333.08"/>
<polygon fill="#63b8ff" stroke="#63b8ff" points="477.22,-377.52 487.8,-377.9 479.77,-371 477.22,-377.52"/>
</a>
</g>
</g>
<!-- Node20 -->
<g id="Node000020" class="node">
<title>Node20</title>
<g id="a_Node000020"><a xlink:href="classpolyfem_1_1solver_1_1_deformed_collision_barrier_form.html#a8f187886b520ffd5fb7715758e6a50e5" target="_top" xlink:title=" ">
<polygon fill="white" stroke="#666666" points="393.5,-419 245.5,-419 245.5,-378 393.5,-378 393.5,-419"/>
<text text-anchor="start" x="253.5" y="-407" font-family="Helvetica,sans-Serif" font-size="10.00">polyfem::solver::Deformed</text>
<text text-anchor="start" x="253.5" y="-396" font-family="Helvetica,sans-Serif" font-size="10.00">CollisionBarrierForm::get</text>
<text text-anchor="middle" x="319.5" y="-385" font-family="Helvetica,sans-Serif" font-size="10.00">_updated_mesh_nodes</text>
</a>
</g>
</g>
<!-- Node12&#45;&gt;Node20 -->
<g id="edge22_Node000012_Node000020" class="edge">
<title>Node12&#45;&gt;Node20</title>
<g id="a_edge22_Node000012_Node000020"><a xlink:title=" ">
<path fill="none" stroke="#63b8ff" d="M464.48,-398.5C441.58,-398.5 416.49,-398.5 393.77,-398.5"/>
<polygon fill="#63b8ff" stroke="#63b8ff" points="464.49,-402 474.49,-398.5 464.49,-395 464.49,-402"/>
</a>
</g>
</g>
<!-- Node24 -->
<g id="Node000024" class="node">
<title>Node24</title>
<g id="a_Node000024"><a xlink:href="classpolyfem_1_1solver_1_1_a_m_i_p_s_form.html#a0c61cd7c58f329bfb9b7d9c4749a2b62" target="_top" xlink:title="Compute the value of the form.">
<polygon fill="white" stroke="#666666" points="397,-467.5 242,-467.5 242,-437.5 397,-437.5 397,-467.5"/>
<text text-anchor="start" x="250" y="-455.5" font-family="Helvetica,sans-Serif" font-size="10.00">polyfem::solver::AMIPSForm</text>
<text text-anchor="middle" x="319.5" y="-444.5" font-family="Helvetica,sans-Serif" font-size="10.00">::value_unweighted</text>
</a>
</g>
</g>
<!-- Node12&#45;&gt;Node24 -->
<g id="edge26_Node000012_Node000024" class="edge">
<title>Node12&#45;&gt;Node24</title>
<g id="a_edge26_Node000012_Node000024"><a xlink:title=" ">
<path fill="none" stroke="#63b8ff" d="M464.69,-417.11C437.68,-423.74 407.61,-431.12 381.95,-437.42"/>
<polygon fill="#63b8ff" stroke="#63b8ff" points="465.62,-420.48 474.49,-414.7 463.95,-413.69 465.62,-420.48"/>
</a>
</g>
</g>
<!-- Node15 -->
<g id="Node000015" class="node">
<title>Node15</title>
<g id="a_Node000015"><a xlink:href="classpolyfem_1_1solver_1_1_collision_barrier_form.html#ab521276c4d393e1845125386d3f4e26c" target="_top" xlink:title=" ">
<polygon fill="white" stroke="#666666" points="172.5,-492 12.5,-492 12.5,-451 172.5,-451 172.5,-492"/>
<text text-anchor="start" x="20.5" y="-480" font-family="Helvetica,sans-Serif" font-size="10.00">polyfem::solver::Collision</text>
<text text-anchor="start" x="20.5" y="-469" font-family="Helvetica,sans-Serif" font-size="10.00">BarrierForm::compute_partial</text>
<text text-anchor="middle" x="92.5" y="-458" font-family="Helvetica,sans-Serif" font-size="10.00">_gradient</text>
</a>
</g>
</g>
<!-- Node14&#45;&gt;Node15 -->
<g id="edge17_Node000014_Node000015" class="edge">
<title>Node14&#45;&gt;Node15</title>
<g id="a_edge17_Node000014_Node000015"><a xlink:title=" ">
<path fill="none" stroke="#63b8ff" d="M261.89,-338.16C247.31,-346.65 232.51,-357.14 221,-369.5 196.34,-395.97 212.44,-418.93 185,-442.5 181.21,-445.76 177.05,-448.65 172.66,-451.22"/>
<polygon fill="#63b8ff" stroke="#63b8ff" points="263.87,-341.07 270.9,-333.14 260.46,-334.95 263.87,-341.07"/>
</a>
</g>
</g>
<!-- Node16 -->
<g id="Node000016" class="node">
<title>Node16</title>
<g id="a_Node000016"><a xlink:href="classpolyfem_1_1solver_1_1_collision_barrier_form.html#a58f3e2b43ae371db96dfae1a093f550c" target="_top" xlink:title="Checks if the step is collision free.">
<polygon fill="white" stroke="#666666" points="185,-218.5 0,-218.5 0,-188.5 185,-188.5 185,-218.5"/>
<text text-anchor="start" x="8" y="-206.5" font-family="Helvetica,sans-Serif" font-size="10.00">polyfem::solver::Collision</text>
<text text-anchor="middle" x="92.5" y="-195.5" font-family="Helvetica,sans-Serif" font-size="10.00">BarrierForm::is_step_collision_free</text>
</a>
</g>
</g>
<!-- Node14&#45;&gt;Node16 -->
<g id="edge18_Node000014_Node000016" class="edge">
<title>Node14&#45;&gt;Node16</title>
<g id="a_edge18_Node000014_Node000016"><a xlink:title=" ">
<path fill="none" stroke="#63b8ff" d="M239.74,-294.59C233.09,-291.47 226.73,-287.8 221,-283.5 197.34,-265.73 208.94,-244.88 185,-227.5 180.22,-224.03 174.97,-221.06 169.48,-218.51"/>
<polygon fill="#63b8ff" stroke="#63b8ff" points="238.38,-297.82 248.95,-298.53 241.13,-291.38 238.38,-297.82"/>
</a>
</g>
</g>
<!-- Node17 -->
<g id="Node000017" class="node">
<title>Node17</title>
<g id="a_Node000017"><a xlink:href="classpolyfem_1_1solver_1_1_collision_barrier_form.html#a7a3b924fb69ec5e9dc0a354778796279" target="_top" xlink:title="Determine the maximum step size allowable between the current and next solution.">
<polygon fill="white" stroke="#666666" points="169,-170.5 16,-170.5 16,-140.5 169,-140.5 169,-170.5"/>
<text text-anchor="start" x="24" y="-158.5" font-family="Helvetica,sans-Serif" font-size="10.00">polyfem::solver::Collision</text>
<text text-anchor="middle" x="92.5" y="-147.5" font-family="Helvetica,sans-Serif" font-size="10.00">BarrierForm::max_step_size</text>
</a>
</g>
</g>
<!-- Node14&#45;&gt;Node17 -->
<g id="edge19_Node000014_Node000017" class="edge">
<title>Node14&#45;&gt;Node17</title>
<g id="a_edge19_Node000014_Node000017"><a xlink:title=" ">
<path fill="none" stroke="#63b8ff" d="M239.22,-296.32C232.57,-292.84 226.35,-288.62 221,-283.5 185.66,-249.68 220.89,-212.73 185,-179.5 180.3,-175.15 174.91,-171.57 169.15,-168.62"/>
<polygon fill="#63b8ff" stroke="#63b8ff" points="237.97,-299.6 248.52,-300.62 240.91,-293.25 237.97,-299.6"/>
</a>
</g>
</g>
<!-- Node18 -->
<g id="Node000018" class="node">
<title>Node18</title>
<g id="a_Node000018"><a xlink:href="classpolyfem_1_1solver_1_1_collision_barrier_form.html#ac08d931672b693852651b5b813f614a7" target="_top" xlink:title="Update cached fields upon a change in the solution.">
<polygon fill="white" stroke="#666666" points="175.5,-314.5 9.5,-314.5 9.5,-284.5 175.5,-284.5 175.5,-314.5"/>
<text text-anchor="start" x="17.5" y="-302.5" font-family="Helvetica,sans-Serif" font-size="10.00">polyfem::solver::Collision</text>
<text text-anchor="middle" x="92.5" y="-291.5" font-family="Helvetica,sans-Serif" font-size="10.00">BarrierForm::solution_changed</text>
</a>
</g>
</g>
<!-- Node14&#45;&gt;Node18 -->
<g id="edge20_Node000014_Node000018" class="edge">
<title>Node14&#45;&gt;Node18</title>
<g id="a_edge20_Node000014_Node000018"><a xlink:title=" ">
<path fill="none" stroke="#63b8ff" d="M238.67,-307.89C218.29,-306.71 196.35,-305.44 175.85,-304.26"/>
<polygon fill="#63b8ff" stroke="#63b8ff" points="238.66,-311.39 248.85,-308.48 239.07,-304.4 238.66,-311.39"/>
</a>
</g>
</g>
<!-- Node19 -->
<g id="Node000019" class="node">
<title>Node19</title>
<g id="a_Node000019"><a xlink:href="classpolyfem_1_1solver_1_1_collision_barrier_form.html#ae366a90bf45d3e8a3326c194698b83ce" target="_top" xlink:title="Compute the value of the form.">
<polygon fill="white" stroke="#666666" points="177.5,-266.5 7.5,-266.5 7.5,-236.5 177.5,-236.5 177.5,-266.5"/>
<text text-anchor="start" x="15.5" y="-254.5" font-family="Helvetica,sans-Serif" font-size="10.00">polyfem::solver::Collision</text>
<text text-anchor="middle" x="92.5" y="-243.5" font-family="Helvetica,sans-Serif" font-size="10.00">BarrierForm::value_unweighted</text>
</a>
</g>
</g>
<!-- Node14&#45;&gt;Node19 -->
<g id="edge21_Node000014_Node000019" class="edge">
<title>Node14&#45;&gt;Node19</title>
<g id="a_edge21_Node000014_Node000019"><a xlink:title=" ">
<path fill="none" stroke="#63b8ff" d="M239.14,-290.31C221.34,-285.39 202.54,-280.23 185,-275.5 174.22,-272.59 162.71,-269.54 151.62,-266.61"/>
<polygon fill="#63b8ff" stroke="#63b8ff" points="238.34,-293.72 248.92,-293.02 240.21,-286.98 238.34,-293.72"/>
</a>
</g>
</g>
<!-- Node21 -->
<g id="Node000021" class="node">
<title>Node21</title>
<g id="a_Node000021"><a xlink:href="classpolyfem_1_1solver_1_1_deformed_collision_barrier_form.html#a0ce9d1e6eae4588df5c7748d8e930909" target="_top" xlink:title=" ">
<polygon fill="white" stroke="#666666" points="175,-551 10,-551 10,-510 175,-510 175,-551"/>
<text text-anchor="start" x="18" y="-539" font-family="Helvetica,sans-Serif" font-size="10.00">polyfem::solver::Deformed</text>
<text text-anchor="start" x="18" y="-528" font-family="Helvetica,sans-Serif" font-size="10.00">CollisionBarrierForm::compute</text>
<text text-anchor="middle" x="92.5" y="-517" font-family="Helvetica,sans-Serif" font-size="10.00">_partial_gradient</text>
</a>
</g>
</g>
<!-- Node20&#45;&gt;Node21 -->
<g id="edge23_Node000020_Node000021" class="edge">
<title>Node20&#45;&gt;Node21</title>
<g id="a_edge23_Node000020_Node000021"><a xlink:title=" ">
<path fill="none" stroke="#63b8ff" d="M236.02,-418.26C230.66,-421.21 225.58,-424.6 221,-428.5 193.46,-451.96 212.44,-477.93 185,-501.5 181.33,-504.65 177.33,-507.46 173.1,-509.96"/>
<polygon fill="#63b8ff" stroke="#63b8ff" points="237.86,-421.25 245.29,-413.69 234.77,-414.97 237.86,-421.25"/>
</a>
</g>
</g>
<!-- Node22 -->
<g id="Node000022" class="node">
<title>Node22</title>
<g id="a_Node000022"><a xlink:href="classpolyfem_1_1solver_1_1_deformed_collision_barrier_form.html#a9e83327f740d815953da76a9dfbc74ca" target="_top" xlink:title="Update cached fields upon a change in the solution.">
<polygon fill="white" stroke="#666666" points="173,-374 12,-374 12,-333 173,-333 173,-374"/>
<text text-anchor="start" x="20" y="-362" font-family="Helvetica,sans-Serif" font-size="10.00">polyfem::solver::Deformed</text>
<text text-anchor="start" x="20" y="-351" font-family="Helvetica,sans-Serif" font-size="10.00">CollisionBarrierForm::solution</text>
<text text-anchor="middle" x="92.5" y="-340" font-family="Helvetica,sans-Serif" font-size="10.00">_changed</text>
</a>
</g>
</g>
<!-- Node20&#45;&gt;Node22 -->
<g id="edge24_Node000020_Node000022" class="edge">
<title>Node20&#45;&gt;Node22</title>
<g id="a_edge24_Node000020_Node000022"><a xlink:title=" ">
<path fill="none" stroke="#63b8ff" d="M235.57,-381.91C215.18,-377.84 193.4,-373.48 173.18,-369.44"/>
<polygon fill="#63b8ff" stroke="#63b8ff" points="234.96,-385.36 245.45,-383.89 236.33,-378.5 234.96,-385.36"/>
</a>
</g>
</g>
<!-- Node23 -->
<g id="Node000023" class="node">
<title>Node23</title>
<g id="a_Node000023"><a xlink:href="classpolyfem_1_1solver_1_1_deformed_collision_barrier_form.html#a3b0a47175d6dd791d1b45270390b6717" target="_top" xlink:title="Compute the value of the form.">
<polygon fill="white" stroke="#666666" points="167,-433 18,-433 18,-392 167,-392 167,-433"/>
<text text-anchor="start" x="26" y="-421" font-family="Helvetica,sans-Serif" font-size="10.00">polyfem::solver::Deformed</text>
<text text-anchor="start" x="26" y="-410" font-family="Helvetica,sans-Serif" font-size="10.00">CollisionBarrierForm::value</text>
<text text-anchor="middle" x="92.5" y="-399" font-family="Helvetica,sans-Serif" font-size="10.00">_unweighted</text>
</a>
</g>
</g>
<!-- Node20&#45;&gt;Node23 -->
<g id="edge25_Node000020_Node000023" class="edge">
<title>Node20&#45;&gt;Node23</title>
<g id="a_edge25_Node000020_Node000023"><a xlink:title=" ">
<path fill="none" stroke="#63b8ff" d="M235.34,-403.67C213.04,-405.06 189.09,-406.55 167.34,-407.91"/>
<polygon fill="#63b8ff" stroke="#63b8ff" points="235.69,-407.16 245.45,-403.05 235.25,-400.17 235.69,-407.16"/>
</a>
</g>
</g>
<!-- Node25&#45;&gt;Node2 -->
<g id="edge29_Node000025_Node000002" class="edge">
<title>Node25&#45;&gt;Node2</title>
<g id="a_edge29_Node000025_Node000002"><a xlink:title=" ">
<path fill="none" stroke="#63b8ff" d="M510.18,-643.42C480.35,-663.69 436.67,-692.51 418,-700.5 405.9,-705.68 392.46,-709.89 379.51,-713.25"/>
<polygon fill="#63b8ff" stroke="#63b8ff" points="512.28,-646.22 518.56,-637.69 508.33,-640.44 512.28,-646.22"/>
</a>
</g>
</g>
<!-- Node26 -->
<g id="Node000026" class="node">
<title>Node26</title>
<g id="a_Node000026"><a xlink:href="classpolyfem_1_1solver_1_1_bounded_biharmonic_weights2_dto3_d.html#acd76ff43b35af0e45e6b568381fa9cd9" target="_top" xlink:title=" ">
<polygon fill="white" stroke="#666666" points="418,-643 221,-643 221,-602 418,-602 418,-643"/>
<text text-anchor="start" x="229" y="-631" font-family="Helvetica,sans-Serif" font-size="10.00">polyfem::solver::Bounded</text>
<text text-anchor="start" x="229" y="-620" font-family="Helvetica,sans-Serif" font-size="10.00">BiharmonicWeights2Dto3D</text>
<text text-anchor="middle" x="319.5" y="-609" font-family="Helvetica,sans-Serif" font-size="10.00">::BoundedBiharmonicWeights2Dto3D</text>
</a>
</g>
</g>
<!-- Node25&#45;&gt;Node26 -->
<g id="edge28_Node000025_Node000026" class="edge">
<title>Node25&#45;&gt;Node26</title>
<g id="a_edge28_Node000025_Node000026"><a xlink:title=" ">
<path fill="none" stroke="#63b8ff" d="M471.49,-622.5C454.55,-622.5 436.09,-622.5 418.07,-622.5"/>
<polygon fill="#63b8ff" stroke="#63b8ff" points="471.83,-626 481.83,-622.5 471.83,-619 471.83,-626"/>
</a>
</g>
</g>
<!-- Node27 -->
<g id="Node000027" class="node">
<title>Node27</title>
<g id="a_Node000027"><a xlink:href="classpolyfem_1_1_state.html#aa5379476e1dbf836daed0fae3ee256af" target="_top" xlink:title="Gather geometry elements into a dense matrix.">
<polygon fill="white" stroke="#666666" points="374.5,-691.5 264.5,-691.5 264.5,-661.5 374.5,-661.5 374.5,-691.5"/>
<text text-anchor="start" x="272.5" y="-679.5" font-family="Helvetica,sans-Serif" font-size="10.00">polyfem::State::get</text>
<text text-anchor="middle" x="319.5" y="-668.5" font-family="Helvetica,sans-Serif" font-size="10.00">_elements</text>
</a>
</g>
</g>
<!-- Node25&#45;&gt;Node27 -->
<g id="edge30_Node000025_Node000027" class="edge">
<title>Node25&#45;&gt;Node27</title>
<g id="a_edge30_Node000025_Node000027"><a xlink:title=" ">
<path fill="none" stroke="#63b8ff" d="M471.89,-639.34C440.63,-647.01 404.16,-655.96 374.85,-663.16"/>
<polygon fill="#63b8ff" stroke="#63b8ff" points="472.96,-642.68 481.83,-636.9 471.29,-635.88 472.96,-642.68"/>
</a>
</g>
</g>
<!-- Node28 -->
<g id="Node000028" class="node">
<title>Node28</title>
<g id="a_Node000028"><a xlink:href="namespacepolyfem_1_1solver_1_1_adjoint_tools.html#af8e122cc77e54fe557a75e10bb5d6f2c" target="_top" xlink:title=" ">
<polygon fill="white" stroke="#666666" points="416.5,-545.5 222.5,-545.5 222.5,-515.5 416.5,-515.5 416.5,-545.5"/>
<text text-anchor="start" x="230.5" y="-533.5" font-family="Helvetica,sans-Serif" font-size="10.00">polyfem::solver::Adjoint</text>
<text text-anchor="middle" x="319.5" y="-522.5" font-family="Helvetica,sans-Serif" font-size="10.00">Tools::map_node_to_primitive_order</text>
</a>
</g>
</g>
<!-- Node25&#45;&gt;Node28 -->
<g id="edge31_Node000025_Node000028" class="edge">
<title>Node25&#45;&gt;Node28</title>
<g id="a_edge31_Node000025_Node000028"><a xlink:title=" ">
<path fill="none" stroke="#63b8ff" d="M494.93,-603.44C453.88,-586.28 394.33,-561.37 356.52,-545.56"/>
<polygon fill="#63b8ff" stroke="#63b8ff" points="493.6,-606.68 504.17,-607.31 496.3,-600.22 493.6,-606.68"/>
</a>
</g>
</g>
<!-- Node28&#45;&gt;Node13 -->
<g id="edge32_Node000028_Node000013" class="edge">
<title>Node28&#45;&gt;Node13</title>
<g id="a_edge32_Node000028_Node000013"><a xlink:title=" ">
<path fill="none" stroke="#63b8ff" d="M231.7,-550.81C227.86,-553.38 224.26,-556.26 221,-559.5 181.84,-598.48 224.79,-640.16 185,-678.5 180.62,-682.72 175.6,-686.21 170.21,-689.12"/>
<polygon fill="#63b8ff" stroke="#63b8ff" points="233.59,-553.77 240.46,-545.7 230.06,-547.72 233.59,-553.77"/>
</a>
</g>
</g>
<!-- Node28&#45;&gt;Node15 -->
<g id="edge33_Node000028_Node000015" class="edge">
<title>Node28&#45;&gt;Node15</title>
<g id="a_edge33_Node000028_Node000015"><a xlink:title=" ">
<path fill="none" stroke="#63b8ff" d="M251.4,-512.91C226.43,-506.36 197.88,-498.87 171.98,-492.08"/>
<polygon fill="#63b8ff" stroke="#63b8ff" points="250.58,-516.31 261.14,-515.46 252.36,-509.54 250.58,-516.31"/>
</a>
</g>
</g>
<!-- Node28&#45;&gt;Node21 -->
<g id="edge34_Node000028_Node000021" class="edge">
<title>Node28&#45;&gt;Node21</title>
<g id="a_edge34_Node000028_Node000021"><a xlink:title=" ">
<path fill="none" stroke="#63b8ff" d="M212.4,-530.5C199.86,-530.5 187.21,-530.5 175.08,-530.5"/>
<polygon fill="#63b8ff" stroke="#63b8ff" points="212.43,-534 222.43,-530.5 212.43,-527 212.43,-534"/>
</a>
</g>
</g>
<!-- Node29 -->
<g id="Node000029" class="node">
<title>Node29</title>
<g id="a_Node000029"><a xlink:href="classpolyfem_1_1solver_1_1_smooth_contact_force_form.html#aac4781571aa792ea31f98cf524494ff7" target="_top" xlink:title=" ">
<polygon fill="white" stroke="#666666" points="179.5,-669 5.5,-669 5.5,-628 179.5,-628 179.5,-669"/>
<text text-anchor="start" x="13.5" y="-657" font-family="Helvetica,sans-Serif" font-size="10.00">polyfem::solver::SmoothContact</text>
<text text-anchor="start" x="13.5" y="-646" font-family="Helvetica,sans-Serif" font-size="10.00">ForceForm::compute_partial</text>
<text text-anchor="middle" x="92.5" y="-635" font-family="Helvetica,sans-Serif" font-size="10.00">_gradient_step</text>
</a>
</g>
</g>
<!-- Node28&#45;&gt;Node29 -->
<g id="edge35_Node000028_Node000029" class="edge">
<title>Node28&#45;&gt;Node29</title>
<g id="a_edge35_Node000028_Node000029"><a xlink:title=" ">
<path fill="none" stroke="#63b8ff" d="M236.23,-549.89C230.84,-552.68 225.69,-555.86 221,-559.5 196.43,-578.56 209.4,-600.22 185,-619.5 181.08,-622.6 176.82,-625.37 172.35,-627.85"/>
<polygon fill="#63b8ff" stroke="#63b8ff" points="237.92,-552.96 245.51,-545.57 234.96,-546.62 237.92,-552.96"/>
</a>
</g>
</g>
<!-- Node30 -->
<g id="Node000030" class="node">
<title>Node30</title>
<g id="a_Node000030"><a xlink:href="classpolyfem_1_1solver_1_1_proxy_contact_force_form.html#aac0ea4d95a34ed7287b36b5f1dbfa0cd" target="_top" xlink:title=" ">
<polygon fill="white" stroke="#666666" points="174.5,-610 10.5,-610 10.5,-569 174.5,-569 174.5,-610"/>
<text text-anchor="start" x="18.5" y="-598" font-family="Helvetica,sans-Serif" font-size="10.00">polyfem::solver::ProxyContact</text>
<text text-anchor="start" x="18.5" y="-587" font-family="Helvetica,sans-Serif" font-size="10.00">ForceForm::compute_partial</text>
<text text-anchor="middle" x="92.5" y="-576" font-family="Helvetica,sans-Serif" font-size="10.00">_gradient_step</text>
</a>
</g>
</g>
<!-- Node28&#45;&gt;Node30 -->
<g id="edge36_Node000028_Node000030" class="edge">
<title>Node28&#45;&gt;Node30</title>
<g id="a_edge36_Node000028_Node000030"><a xlink:title=" ">
<path fill="none" stroke="#63b8ff" d="M251.4,-548.09C226.43,-554.64 197.88,-562.13 171.98,-568.92"/>
<polygon fill="#63b8ff" stroke="#63b8ff" points="252.36,-551.46 261.14,-545.54 250.58,-544.69 252.36,-551.46"/>
</a>
</g>
</g>
</g>
</svg>
