<?xml version="1.0" encoding="UTF-8" standalone="no"?>
<!DOCTYPE svg PUBLIC "-//W3C//DTD SVG 1.1//EN"
 "http://www.w3.org/Graphics/SVG/1.1/DTD/svg11.dtd">
<!-- Generated by graphviz version 2.43.0 (0)
 -->
<!-- Title: polyfem::solver::VariableToSimulation::apply_parametrization_jacobian Pages: 1 -->
<!--zoomable 145 -->

<svg id="main" version="1.1" xmlns="http://www.w3.org/2000/svg" xmlns:xlink="http://www.w3.org/1999/xlink" xml:space="preserve" onload="init(evt)">
<style type="text/css"><![CDATA[
.node, .edge {opacity: 0.7;}
.node.selected, .edge.selected {opacity: 1;}
.edge:hover path { stroke: red; }
.edge:hover polygon { stroke: red; fill: red; }
]]></style>

<defs>
  <circle id="rim" cx="0" cy="0" r="7"/>
  <circle id="rim2" cx="0" cy="0" r="3.5"/>
  <g id="zoomPlus">
    <use xlink:href="#rim" fill="#404040"><set attributeName="fill" to="#808080" begin="zoomplus.mouseover" end="zoomplus.mouseout"/></use>
    <path d="M-4,0h8M0,-4v8" fill="none" stroke="white" stroke-width="1.5" pointer-events="none"/>
  </g>
  <g id="zoomMin">
    <use xlink:href="#rim" fill="#404040"><set attributeName="fill" to="#808080" begin="zoomminus.mouseover" end="zoomminus.mouseout"/></use>
    <path d="M-4,0h8" fill="none" stroke="white" stroke-width="1.5" pointer-events="none"/>
  </g>
  <g id="arrowUp" transform="translate(30 24)">
    <use xlink:href="#rim"/>
    <path pointer-events="none" fill="none" stroke="white" stroke-width="1.5" d="M0,-3.0v7 M-2.5,-0.5L0,-3.0L2.5,-0.5"/>
  </g>
  <g id="arrowRight" transform="rotate(90) translate(36 -43)">
    <use xlink:href="#rim"/>
    <path pointer-events="none" fill="none" stroke="white" stroke-width="1.5" d="M0,-3.0v7 M-2.5,-0.5L0,-3.0L2.5,-0.5"/>
  </g>
  <g id="arrowDown" transform="rotate(180) translate(-30 -48)">
    <use xlink:href="#rim"/>
    <path pointer-events="none" fill="none" stroke="white" stroke-width="1.5" d="M0,-3.0v7 M-2.5,-0.5L0,-3.0L2.5,-0.5"/>
  </g>
  <g id="arrowLeft" transform="rotate(270) translate(-36 17)">
    <use xlink:href="#rim"/>
    <path pointer-events="none" fill="none" stroke="white" stroke-width="1.5" d="M0,-3.0v7 M-2.5,-0.5L0,-3.0L2.5,-0.5"/>
  </g>
  <g id="resetDef">
    <use xlink:href="#rim2" fill="#404040"><set attributeName="fill" to="#808080" begin="reset.mouseover" end="reset.mouseout"/></use>
  </g>
</defs>
<script type="application/ecmascript">
var viewWidth = 710;
var viewHeight = 145;
var sectionId = 'dynsection-2';
</script>
<script type="application/ecmascript" xlink:href="svg.min.js"/>
<svg id="graph" class="graph">
<g id="viewport">
<title>polyfem::solver::VariableToSimulation::apply_parametrization_jacobian</title>
<!-- Node1 -->
<g id="Node000001" class="node">
<title>Node1</title>
<g id="a_Node000001"><a xlink:title=" ">
<polygon fill="#999999" stroke="#666666" points="196,-88.5 0,-88.5 0,-47.5 196,-47.5 196,-88.5"/>
<text text-anchor="start" x="8" y="-76.5" font-family="Helvetica,sans-Serif" font-size="10.00">polyfem::solver::Variable</text>
<text text-anchor="start" x="8" y="-65.5" font-family="Helvetica,sans-Serif" font-size="10.00">ToSimulation::apply_parametrization</text>
<text text-anchor="middle" x="98" y="-54.5" font-family="Helvetica,sans-Serif" font-size="10.00">_jacobian</text>
</a>
</g>
</g>
<!-- Node2 -->
<g id="Node000002" class="node">
<title>Node2</title>
<g id="a_Node000002"><a xlink:href="classpolyfem_1_1solver_1_1_composite_parametrization.html#a34d19dcd05175faa19ced87215c969be" target="_top" xlink:title=" ">
<polygon fill="white" stroke="#666666" points="384,-118.5 232,-118.5 232,-77.5 384,-77.5 384,-118.5"/>
<text text-anchor="start" x="240" y="-106.5" font-family="Helvetica,sans-Serif" font-size="10.00">polyfem::solver::Composite</text>
<text text-anchor="start" x="240" y="-95.5" font-family="Helvetica,sans-Serif" font-size="10.00">Parametrization::apply</text>
<text text-anchor="middle" x="308" y="-84.5" font-family="Helvetica,sans-Serif" font-size="10.00">_jacobian</text>
</a>
</g>
</g>
<!-- Node1&#45;&gt;Node2 -->
<g id="edge1_Node000001_Node000002" class="edge">
<title>Node1&#45;&gt;Node2</title>
<g id="a_edge1_Node000001_Node000002"><a xlink:title=" ">
<path fill="none" stroke="#63b8ff" d="M196.3,-82.03C204.79,-83.26 213.35,-84.49 221.73,-85.7"/>
<polygon fill="#63b8ff" stroke="#63b8ff" points="221.47,-89.2 231.86,-87.16 222.47,-82.27 221.47,-89.2"/>
</a>
</g>
</g>
<!-- Node3 -->
<g id="Node000003" class="node">
<title>Node3</title>
<g id="a_Node000003"><a xlink:href="classpolyfem_1_1solver_1_1_variable_to_simulation.html#add1131a5cecca74b48bf4d0a0fa9cddb" target="_top" xlink:title=" ">
<polygon fill="white" stroke="#666666" points="377.5,-59.5 238.5,-59.5 238.5,-18.5 377.5,-18.5 377.5,-59.5"/>
<text text-anchor="start" x="246.5" y="-47.5" font-family="Helvetica,sans-Serif" font-size="10.00">polyfem::solver::Variable</text>
<text text-anchor="start" x="246.5" y="-36.5" font-family="Helvetica,sans-Serif" font-size="10.00">ToSimulation::get_output</text>
<text text-anchor="middle" x="308" y="-25.5" font-family="Helvetica,sans-Serif" font-size="10.00">_indexing</text>
</a>
</g>
</g>
<!-- Node1&#45;&gt;Node3 -->
<g id="edge3_Node000001_Node000003" class="edge">
<title>Node1&#45;&gt;Node3</title>
<g id="a_edge3_Node000001_Node000003"><a xlink:title=" ">
<path fill="none" stroke="#63b8ff" d="M196.3,-54.43C207.04,-52.94 217.87,-51.43 228.34,-49.97"/>
<polygon fill="#63b8ff" stroke="#63b8ff" points="228.83,-53.43 238.25,-48.59 227.86,-46.5 228.83,-53.43"/>
</a>
</g>
</g>
<!-- Node2&#45;&gt;Node2 -->
<g id="edge2_Node000002_Node000002" class="edge">
<title>Node2&#45;&gt;Node2</title>
<g id="a_edge2_Node000002_Node000002"><a xlink:title=" ">
<path fill="none" stroke="#63b8ff" d="M273.45,-118.6C269.68,-128.15 281.2,-136.5 308,-136.5 324.75,-136.5 335.53,-133.24 340.34,-128.46"/>
<polygon fill="#63b8ff" stroke="#63b8ff" points="343.78,-129.12 342.55,-118.6 336.95,-127.59 343.78,-129.12"/>
</a>
</g>
</g>
<!-- Node4 -->
<g id="Node000004" class="node">
<title>Node4</title>
<g id="a_Node000004"><a xlink:href="namespacepolyfem.html#adc7e749e0c40939b7323961c6a41e391" target="_top" xlink:title=" ">
<polygon fill="white" stroke="#666666" points="563,-78 429,-78 429,-48 563,-48 563,-78"/>
<text text-anchor="start" x="437" y="-66" font-family="Helvetica,sans-Serif" font-size="10.00">polyfem::log_and_throw</text>
<text text-anchor="middle" x="496" y="-55" font-family="Helvetica,sans-Serif" font-size="10.00">_error</text>
</a>
</g>
</g>
<!-- Node3&#45;&gt;Node4 -->
<g id="edge4_Node000003_Node000004" class="edge">
<title>Node3&#45;&gt;Node4</title>
<g id="a_edge4_Node000003_Node000004"><a xlink:title=" ">
<path fill="none" stroke="#63b8ff" d="M377.73,-47.87C391.01,-49.58 404.99,-51.39 418.5,-53.13"/>
<polygon fill="#63b8ff" stroke="#63b8ff" points="418.35,-56.64 428.72,-54.45 419.25,-49.7 418.35,-56.64"/>
</a>
</g>
</g>
<!-- Node6 -->
<g id="Node000006" class="node">
<title>Node6</title>
<g id="a_Node000006"><a xlink:href="classpolyfem_1_1solver_1_1_composite_parametrization.html#a0444e6671378eaf12bc3c0e2a4601aa2" target="_top" xlink:title=" ">
<polygon fill="white" stroke="#666666" points="572,-30 420,-30 420,0 572,0 572,-30"/>
<text text-anchor="start" x="428" y="-18" font-family="Helvetica,sans-Serif" font-size="10.00">polyfem::solver::Composite</text>
<text text-anchor="middle" x="496" y="-7" font-family="Helvetica,sans-Serif" font-size="10.00">Parametrization::size</text>
</a>
</g>
</g>
<!-- Node3&#45;&gt;Node6 -->
<g id="edge6_Node000003_Node000006" class="edge">
<title>Node3&#45;&gt;Node6</title>
<g id="a_edge6_Node000003_Node000006"><a xlink:title=" ">
<path fill="none" stroke="#63b8ff" d="M377.73,-30.13C388.16,-28.79 399.03,-27.38 409.76,-26"/>
<polygon fill="#63b8ff" stroke="#63b8ff" points="410.51,-29.43 419.98,-24.68 409.62,-22.49 410.51,-29.43"/>
</a>
</g>
</g>
<!-- Node5 -->
<g id="Node000005" class="node">
<title>Node5</title>
<g id="a_Node000005"><a xlink:href="namespacepolyfem.html#a03f3d75072d2fd19f70cd886a51d10dd" target="_top" xlink:title="Retrieves the current logger.">
<polygon fill="white" stroke="#666666" points="702,-72.5 608,-72.5 608,-53.5 702,-53.5 702,-72.5"/>
<text text-anchor="middle" x="655" y="-60.5" font-family="Helvetica,sans-Serif" font-size="10.00">polyfem::logger</text>
</a>
</g>
</g>
<!-- Node4&#45;&gt;Node5 -->
<g id="edge5_Node000004_Node000005" class="edge">
<title>Node4&#45;&gt;Node5</title>
<g id="a_edge5_Node000004_Node000005"><a xlink:title=" ">
<path fill="none" stroke="#63b8ff" d="M563.13,-63C574.68,-63 586.59,-63 597.84,-63"/>
<polygon fill="#63b8ff" stroke="#63b8ff" points="597.95,-66.5 607.95,-63 597.95,-59.5 597.95,-66.5"/>
</a>
</g>
</g>
</g>
</svg>

<g id="navigator" transform="translate(0 0)" fill="#404254">
  <rect fill="#f2f5e9" fill-opacity="0.5" stroke="#606060" stroke-width=".5" x="0" y="0" width="60" height="60"/>
  <use id="zoomplus" xlink:href="#zoomPlus" x="17" y="9" onmousedown="handleZoom(evt,'in')"/>
  <use id="zoomminus" xlink:href="#zoomMin" x="42" y="9" onmousedown="handleZoom(evt,'out')"/>
  <use id="reset" xlink:href="#resetDef" x="30" y="36" onmousedown="handleReset()"/>
   <use id="arrowup" xlink:href="#arrowUp" x="0" y="0" onmousedown="handlePan(0,-1)"/>
  <use id="arrowright" xlink:href="#arrowRight" x="0" y="0" onmousedown="handlePan(1,0)"/>
  <use id="arrowdown" xlink:href="#arrowDown" x="0" y="0" onmousedown="handlePan(0,1)"/>
  <use id="arrowleft" xlink:href="#arrowLeft" x="0" y="0" onmousedown="handlePan(-1,0)"/>
</g>
<svg viewBox="0 0 15 15" width="100%" height="30px" preserveAspectRatio="xMaxYMin meet">
 <g id="arrow_out" transform="scale(0.3 0.3)">
  <a xlink:href="classpolyfem_1_1solver_1_1_variable_to_simulation_a1468ee2e131cb52898bae709938cc9e0_cgraph_org.svg" target="_base">
   <rect id="button" ry="5" rx="5" y="6" x="6" height="38" width="38"
        fill="#f2f5e9" fill-opacity="0.5" stroke="#606060" stroke-width="1.0"/>
   <path id="arrow"
     d="M 11.500037,31.436501 C 11.940474,20.09759 22.043105,11.32322 32.158766,21.979434 L 37.068811,17.246167 C 37.068811,17.246167 37.088388,32 37.088388,32 L 22.160133,31.978069 C 22.160133,31.978069 26.997745,27.140456 26.997745,27.140456 C 18.528582,18.264221 13.291696,25.230495 11.500037,31.436501 z"
     style="fill:#404040;"/>
  </a>
 </g>
</svg>

<style type='text/css'>
<![CDATA[
[data-mouse-over-selected='false'] { opacity: 0.7; }
[data-mouse-over-selected='true']  { opacity: 1.0; }
]]>
</style>
<script type="application/ecmascript"><![CDATA[
document.addEventListener('DOMContentLoaded', (event) => {
  highlightEdges();
  highlightAdjacentNodes();
});
]]></script>
</svg>
