<?xml version="1.0" encoding="UTF-8" standalone="no"?>
<!DOCTYPE svg PUBLIC "-//W3C//DTD SVG 1.1//EN"
 "http://www.w3.org/Graphics/SVG/1.1/DTD/svg11.dtd">
<!-- Generated by graphviz version 2.43.0 (0)
 -->
<!-- Title: polyfem::assembler::MultiModel::compute_stress_tensor Pages: 1 -->
<!--zoomable 328 -->
<svg id="main" version="1.1" xmlns="http://www.w3.org/2000/svg" xmlns:xlink="http://www.w3.org/1999/xlink" xml:space="preserve" onload="init(evt)">
<style type="text/css"><![CDATA[
.edge:hover path { stroke: red; }
.edge:hover polygon { stroke: red; fill: red; }
]]></style>
<script type="text/javascript"><![CDATA[
var edges = document.getElementsByTagName('g');
if (edges && edges.length) {
  for (var i=0;i<edges.length;i++) {
    if (edges[i].id.substr(0,4)=='edge') {
      edges[i].setAttribute('class','edge');
    }
  }
}
]]></script>
        <defs>
                <circle id="rim" cx="0" cy="0" r="7"/>
                <circle id="rim2" cx="0" cy="0" r="3.5"/>
                <g id="zoomPlus">
                        <use xlink:href="#rim" fill="#404040">
                                <set attributeName="fill" to="#808080" begin="zoomplus.mouseover" end="zoomplus.mouseout"/>
                        </use>
                        <path d="M-4,0h8M0,-4v8" fill="none" stroke="white" stroke-width="1.5" pointer-events="none"/>
                </g>
                <g id="zoomMin">
                        <use xlink:href="#rim" fill="#404040">
                                <set attributeName="fill" to="#808080" begin="zoomminus.mouseover" end="zoomminus.mouseout"/>
                        </use>
                        <path d="M-4,0h8" fill="none" stroke="white" stroke-width="1.5" pointer-events="none"/>
                </g>
                <g id="dirArrow">
                        <path fill="none" stroke="white" stroke-width="1.5" d="M0,-3.0v7 M-2.5,-0.5L0,-3.0L2.5,-0.5"/>
                </g>
               <g id="resetDef">
                       <use xlink:href="#rim2" fill="#404040">
                               <set attributeName="fill" to="#808080" begin="reset.mouseover" end="reset.mouseout"/>
                       </use>
               </g>
        </defs>

<script type="text/javascript">
var viewWidth = 879;
var viewHeight = 328;
var sectionId = 'dynsection-6';
</script>
<script xlink:href="svgpan.js"/>
<svg id="graph" class="graph">
<g id="viewport">
<title>polyfem::assembler::MultiModel::compute_stress_tensor</title>
<!-- Node1 -->
<g id="node1" class="node">
<title>Node1</title>
<g id="a_node1"><a xlink:title=" ">
<polygon fill="#bfbfbf" stroke="black" points="0,-143.5 0,-184.5 126,-184.5 126,-143.5 0,-143.5"/>
<text text-anchor="start" x="8" y="-172.5" font-family="Helvetica,sans-Serif" font-size="10.00">polyfem::assembler</text>
<text text-anchor="start" x="8" y="-161.5" font-family="Helvetica,sans-Serif" font-size="10.00">::MultiModel::compute</text>
<text text-anchor="middle" x="63" y="-150.5" font-family="Helvetica,sans-Serif" font-size="10.00">_stress_tensor</text>
</a>
</g>
</g>
<!-- Node2 -->
<g id="node2" class="node">
<title>Node2</title>
<g id="a_node2"><a xlink:href="classpolyfem_1_1assembler_1_1_linear_elasticity.html#adf18ed65098500d77a5e48fe8f908b2b" target="_top" xlink:title=" ">
<polygon fill="none" stroke="black" points="165,-237.5 165,-278.5 295,-278.5 295,-237.5 165,-237.5"/>
<text text-anchor="start" x="173" y="-266.5" font-family="Helvetica,sans-Serif" font-size="10.00">polyfem::assembler</text>
<text text-anchor="start" x="173" y="-255.5" font-family="Helvetica,sans-Serif" font-size="10.00">::LinearElasticity::</text>
<text text-anchor="middle" x="230" y="-244.5" font-family="Helvetica,sans-Serif" font-size="10.00">compute_stress_tensor</text>
</a>
</g>
</g>
<!-- Node1&#45;&gt;Node2 -->
<g id="edge1" class="edge">
<title>Node1&#45;&gt;Node2</title>
<path fill="none" stroke="midnightblue" d="M100.21,-184.63C124.82,-198.65 157.55,-217.3 183.86,-232.28"/>
<polygon fill="midnightblue" stroke="midnightblue" points="182.45,-235.51 192.87,-237.42 185.92,-229.43 182.45,-235.51"/>
</g>
<!-- Node10 -->
<g id="node10" class="node">
<title>Node10</title>
<g id="a_node10"><a xlink:href="classpolyfem_1_1assembler_1_1_neo_hookean_elasticity.html#ad54d103a5a66083cacd68a0e3091a1d7" target="_top" xlink:title=" ">
<polygon fill="none" stroke="black" points="162,-143.5 162,-184.5 298,-184.5 298,-143.5 162,-143.5"/>
<text text-anchor="start" x="170" y="-172.5" font-family="Helvetica,sans-Serif" font-size="10.00">polyfem::assembler</text>
<text text-anchor="start" x="170" y="-161.5" font-family="Helvetica,sans-Serif" font-size="10.00">::NeoHookeanElasticity</text>
<text text-anchor="middle" x="230" y="-150.5" font-family="Helvetica,sans-Serif" font-size="10.00">::compute_stress_tensor</text>
</a>
</g>
</g>
<!-- Node1&#45;&gt;Node10 -->
<g id="edge10" class="edge">
<title>Node1&#45;&gt;Node10</title>
<path fill="none" stroke="midnightblue" d="M126.38,-164C134.62,-164 143.14,-164 151.6,-164"/>
<polygon fill="midnightblue" stroke="midnightblue" points="151.85,-167.5 161.85,-164 151.85,-160.5 151.85,-167.5"/>
</g>
<!-- Node13 -->
<g id="node13" class="node">
<title>Node13</title>
<g id="a_node13"><a xlink:href="classpolyfem_1_1assembler_1_1_saint_venant_elasticity.html#a5bc6fe6f6302e84c761917fcb06bc51a" target="_top" xlink:title=" ">
<polygon fill="none" stroke="black" points="162,-64.5 162,-105.5 298,-105.5 298,-64.5 162,-64.5"/>
<text text-anchor="start" x="170" y="-93.5" font-family="Helvetica,sans-Serif" font-size="10.00">polyfem::assembler</text>
<text text-anchor="start" x="170" y="-82.5" font-family="Helvetica,sans-Serif" font-size="10.00">::SaintVenantElasticity</text>
<text text-anchor="middle" x="230" y="-71.5" font-family="Helvetica,sans-Serif" font-size="10.00">::compute_stress_tensor</text>
</a>
</g>
</g>
<!-- Node1&#45;&gt;Node13 -->
<g id="edge16" class="edge">
<title>Node1&#45;&gt;Node13</title>
<path fill="none" stroke="midnightblue" d="M106.92,-143.45C128.32,-133.2 154.38,-120.73 176.91,-109.94"/>
<polygon fill="midnightblue" stroke="midnightblue" points="178.5,-113.06 186.01,-105.58 175.48,-106.75 178.5,-113.06"/>
</g>
<!-- Node3 -->
<g id="node3" class="node">
<title>Node3</title>
<g id="a_node3"><a xlink:href="classpolyfem_1_1assembler_1_1_linear_elasticity.html#af037a38e01816e98afdc1a64fec544a8" target="_top" xlink:title=" ">
<polygon fill="none" stroke="black" points="339.5,-237.5 339.5,-278.5 458.5,-278.5 458.5,-237.5 339.5,-237.5"/>
<text text-anchor="start" x="347.5" y="-266.5" font-family="Helvetica,sans-Serif" font-size="10.00">polyfem::assembler</text>
<text text-anchor="start" x="347.5" y="-255.5" font-family="Helvetica,sans-Serif" font-size="10.00">::LinearElasticity::</text>
<text text-anchor="middle" x="399" y="-244.5" font-family="Helvetica,sans-Serif" font-size="10.00">assign_stress_tensor</text>
</a>
</g>
</g>
<!-- Node2&#45;&gt;Node3 -->
<g id="edge2" class="edge">
<title>Node2&#45;&gt;Node3</title>
<path fill="none" stroke="midnightblue" d="M295.09,-258C306.22,-258 317.83,-258 329.08,-258"/>
<polygon fill="midnightblue" stroke="midnightblue" points="329.28,-261.5 339.28,-258 329.28,-254.5 329.28,-261.5"/>
</g>
<!-- Node9 -->
<g id="node9" class="node">
<title>Node9</title>
<g id="a_node9"><a xlink:href="classpolyfem_1_1assembler_1_1_linear_elasticity.html#aec319cc4d5bd48c7369358fc6c25a76e" target="_top" xlink:title=" ">
<polygon fill="none" stroke="black" points="538.5,-289 538.5,-319 660.5,-319 660.5,-289 538.5,-289"/>
<text text-anchor="start" x="546.5" y="-307" font-family="Helvetica,sans-Serif" font-size="10.00">polyfem::assembler</text>
<text text-anchor="middle" x="599.5" y="-296" font-family="Helvetica,sans-Serif" font-size="10.00">::LinearElasticity::size</text>
</a>
</g>
</g>
<!-- Node2&#45;&gt;Node9 -->
<g id="edge9" class="edge">
<title>Node2&#45;&gt;Node9</title>
<path fill="none" stroke="midnightblue" d="M293.11,-278.51C306.47,-282.24 320.6,-285.67 334,-288 399.26,-299.33 474.77,-302.98 528.36,-304"/>
<polygon fill="midnightblue" stroke="midnightblue" points="528.39,-307.5 538.45,-304.17 528.5,-300.5 528.39,-307.5"/>
</g>
<!-- Node4 -->
<g id="node4" class="node">
<title>Node4</title>
<g id="a_node4"><a xlink:href="namespacepolyfem.html#afe7d5ac326e47bbc47caa5539c4f8172" target="_top" xlink:title=" ">
<polygon fill="none" stroke="black" points="500,-188.5 500,-207.5 699,-207.5 699,-188.5 500,-188.5"/>
<text text-anchor="middle" x="599.5" y="-195.5" font-family="Helvetica,sans-Serif" font-size="10.00">polyfem::compute_diplacement_grad</text>
</a>
</g>
</g>
<!-- Node3&#45;&gt;Node4 -->
<g id="edge3" class="edge">
<title>Node3&#45;&gt;Node4</title>
<path fill="none" stroke="midnightblue" d="M458.75,-240.24C490.45,-230.66 528.81,-219.07 557.31,-210.45"/>
<polygon fill="midnightblue" stroke="midnightblue" points="558.4,-213.78 566.96,-207.53 556.37,-207.08 558.4,-213.78"/>
</g>
<!-- Node6 -->
<g id="node6" class="node">
<title>Node6</title>
<g id="a_node6"><a xlink:href="classpolyfem_1_1_lame_parameters.html#adbe7284ebd8d24b11a16df2235931afd" target="_top" xlink:title=" ">
<polygon fill="none" stroke="black" points="526.5,-238 526.5,-268 672.5,-268 672.5,-238 526.5,-238"/>
<text text-anchor="start" x="534.5" y="-256" font-family="Helvetica,sans-Serif" font-size="10.00">polyfem::LameParameters</text>
<text text-anchor="middle" x="599.5" y="-245" font-family="Helvetica,sans-Serif" font-size="10.00">::lambda_mu</text>
</a>
</g>
</g>
<!-- Node3&#45;&gt;Node6 -->
<g id="edge5" class="edge">
<title>Node3&#45;&gt;Node6</title>
<path fill="none" stroke="midnightblue" d="M458.75,-256.52C476.68,-256.07 496.73,-255.56 515.93,-255.08"/>
<polygon fill="midnightblue" stroke="midnightblue" points="516.27,-258.57 526.18,-254.82 516.1,-251.57 516.27,-258.57"/>
</g>
<!-- Node3&#45;&gt;Node9 -->
<g id="edge8" class="edge">
<title>Node3&#45;&gt;Node9</title>
<path fill="none" stroke="midnightblue" d="M458.75,-271.61C480.56,-276.67 505.52,-282.45 528.25,-287.72"/>
<polygon fill="midnightblue" stroke="midnightblue" points="527.65,-291.17 538.18,-290.02 529.23,-284.35 527.65,-291.17"/>
</g>
<!-- Node5 -->
<g id="node5" class="node">
<title>Node5</title>
<g id="a_node5"><a xlink:href="classpolyfem_1_1basis_1_1_basis.html#a88b90af0c63d52f2c91fe97a63c540ce" target="_top" xlink:title=" ">
<polygon fill="none" stroke="black" points="742.5,-183 742.5,-213 863.5,-213 863.5,-183 742.5,-183"/>
<text text-anchor="start" x="750.5" y="-201" font-family="Helvetica,sans-Serif" font-size="10.00">polyfem::basis::Basis</text>
<text text-anchor="middle" x="803" y="-190" font-family="Helvetica,sans-Serif" font-size="10.00">::global</text>
</a>
</g>
</g>
<!-- Node4&#45;&gt;Node5 -->
<g id="edge4" class="edge">
<title>Node4&#45;&gt;Node5</title>
<path fill="none" stroke="midnightblue" d="M699.18,-198C710.37,-198 721.59,-198 732.29,-198"/>
<polygon fill="midnightblue" stroke="midnightblue" points="732.37,-201.5 742.37,-198 732.37,-194.5 732.37,-201.5"/>
</g>
<!-- Node7 -->
<g id="node7" class="node">
<title>Node7</title>
<g id="a_node7"><a xlink:href="namespacepolyfem.html#ad7d5a2d4407b8790621fdba815de479e" target="_top" xlink:title=" ">
<polygon fill="none" stroke="black" points="745.5,-235 745.5,-265 860.5,-265 860.5,-235 745.5,-235"/>
<text text-anchor="start" x="753.5" y="-253" font-family="Helvetica,sans-Serif" font-size="10.00">polyfem::convert_to</text>
<text text-anchor="middle" x="803" y="-242" font-family="Helvetica,sans-Serif" font-size="10.00">_lambda</text>
</a>
</g>
</g>
<!-- Node6&#45;&gt;Node7 -->
<g id="edge6" class="edge">
<title>Node6&#45;&gt;Node7</title>
<path fill="none" stroke="midnightblue" d="M672.68,-251.93C693.16,-251.62 715.35,-251.29 735.48,-250.99"/>
<polygon fill="midnightblue" stroke="midnightblue" points="735.54,-254.49 745.49,-250.84 735.44,-247.49 735.54,-254.49"/>
</g>
<!-- Node8 -->
<g id="node8" class="node">
<title>Node8</title>
<g id="a_node8"><a xlink:href="namespacepolyfem.html#a869023aefa896d263b89a68a7f24c4c1" target="_top" xlink:title=" ">
<polygon fill="none" stroke="black" points="735,-284.5 735,-303.5 871,-303.5 871,-284.5 735,-284.5"/>
<text text-anchor="middle" x="803" y="-291.5" font-family="Helvetica,sans-Serif" font-size="10.00">polyfem::convert_to_mu</text>
</a>
</g>
</g>
<!-- Node6&#45;&gt;Node8 -->
<g id="edge7" class="edge">
<title>Node6&#45;&gt;Node8</title>
<path fill="none" stroke="midnightblue" d="M672.68,-267.69C696.47,-272.53 722.59,-277.84 745.08,-282.42"/>
<polygon fill="midnightblue" stroke="midnightblue" points="744.64,-285.9 755.14,-284.47 746.04,-279.04 744.64,-285.9"/>
</g>
<!-- Node11 -->
<g id="node11" class="node">
<title>Node11</title>
<g id="a_node11"><a xlink:href="classpolyfem_1_1assembler_1_1_neo_hookean_elasticity.html#a300889af25162255f26b1379ba3ccdee" target="_top" xlink:title=" ">
<polygon fill="none" stroke="black" points="334,-177.5 334,-218.5 464,-218.5 464,-177.5 334,-177.5"/>
<text text-anchor="start" x="342" y="-206.5" font-family="Helvetica,sans-Serif" font-size="10.00">polyfem::assembler</text>
<text text-anchor="start" x="342" y="-195.5" font-family="Helvetica,sans-Serif" font-size="10.00">::NeoHookeanElasticity</text>
<text text-anchor="middle" x="399" y="-184.5" font-family="Helvetica,sans-Serif" font-size="10.00">::assign_stress_tensor</text>
</a>
</g>
</g>
<!-- Node10&#45;&gt;Node11 -->
<g id="edge11" class="edge">
<title>Node10&#45;&gt;Node11</title>
<path fill="none" stroke="midnightblue" d="M298.44,-177.73C306.84,-179.44 315.46,-181.19 323.94,-182.92"/>
<polygon fill="midnightblue" stroke="midnightblue" points="323.33,-186.37 333.82,-184.93 324.72,-179.51 323.33,-186.37"/>
</g>
<!-- Node12 -->
<g id="node12" class="node">
<title>Node12</title>
<g id="a_node12"><a xlink:href="classpolyfem_1_1assembler_1_1_neo_hookean_elasticity.html#a1dcf7dfb673e85dfda1c0dcd00359e8d" target="_top" xlink:title=" ">
<polygon fill="none" stroke="black" points="522,-136 522,-166 677,-166 677,-136 522,-136"/>
<text text-anchor="start" x="530" y="-154" font-family="Helvetica,sans-Serif" font-size="10.00">polyfem::assembler</text>
<text text-anchor="middle" x="599.5" y="-143" font-family="Helvetica,sans-Serif" font-size="10.00">::NeoHookeanElasticity::size</text>
</a>
</g>
</g>
<!-- Node10&#45;&gt;Node12 -->
<g id="edge15" class="edge">
<title>Node10&#45;&gt;Node12</title>
<path fill="none" stroke="midnightblue" d="M298.41,-161.62C358.4,-159.49 446.49,-156.38 511.73,-154.07"/>
<polygon fill="midnightblue" stroke="midnightblue" points="512.13,-157.56 522,-153.71 511.88,-150.56 512.13,-157.56"/>
</g>
<!-- Node11&#45;&gt;Node4 -->
<g id="edge12" class="edge">
<title>Node11&#45;&gt;Node4</title>
<path fill="none" stroke="midnightblue" d="M464.17,-198C472.4,-198 480.99,-198 489.68,-198"/>
<polygon fill="midnightblue" stroke="midnightblue" points="489.91,-201.5 499.91,-198 489.91,-194.5 489.91,-201.5"/>
</g>
<!-- Node11&#45;&gt;Node6 -->
<g id="edge13" class="edge">
<title>Node11&#45;&gt;Node6</title>
<path fill="none" stroke="midnightblue" d="M464.17,-215.78C486.67,-222.01 511.93,-229.01 534.42,-235.24"/>
<polygon fill="midnightblue" stroke="midnightblue" points="533.63,-238.66 544.2,-237.95 535.5,-231.91 533.63,-238.66"/>
</g>
<!-- Node11&#45;&gt;Node12 -->
<g id="edge14" class="edge">
<title>Node11&#45;&gt;Node12</title>
<path fill="none" stroke="midnightblue" d="M464.17,-182.81C483.55,-178.22 504.98,-173.14 524.92,-168.42"/>
<polygon fill="midnightblue" stroke="midnightblue" points="525.96,-171.77 534.89,-166.06 524.35,-164.96 525.96,-171.77"/>
</g>
<!-- Node14 -->
<g id="node14" class="node">
<title>Node14</title>
<g id="a_node14"><a xlink:href="classpolyfem_1_1assembler_1_1_saint_venant_elasticity.html#aa73471bf6a20dca0a677016493a40b06" target="_top" xlink:title=" ">
<polygon fill="none" stroke="black" points="336,-79.5 336,-120.5 462,-120.5 462,-79.5 336,-79.5"/>
<text text-anchor="start" x="344" y="-108.5" font-family="Helvetica,sans-Serif" font-size="10.00">polyfem::assembler</text>
<text text-anchor="start" x="344" y="-97.5" font-family="Helvetica,sans-Serif" font-size="10.00">::SaintVenantElasticity</text>
<text text-anchor="middle" x="399" y="-86.5" font-family="Helvetica,sans-Serif" font-size="10.00">::assign_stress_tensor</text>
</a>
</g>
</g>
<!-- Node13&#45;&gt;Node14 -->
<g id="edge17" class="edge">
<title>Node13&#45;&gt;Node14</title>
<path fill="none" stroke="midnightblue" d="M298.44,-91.06C307.45,-91.87 316.72,-92.7 325.81,-93.52"/>
<polygon fill="midnightblue" stroke="midnightblue" points="325.7,-97.02 335.97,-94.43 326.33,-90.05 325.7,-97.02"/>
</g>
<!-- Node15 -->
<g id="node15" class="node">
<title>Node15</title>
<g id="a_node15"><a xlink:href="classpolyfem_1_1assembler_1_1_saint_venant_elasticity.html#a59fdb583f823305b3019b2be86cd4b17" target="_top" xlink:title=" ">
<polygon fill="none" stroke="black" points="524,-77 524,-107 675,-107 675,-77 524,-77"/>
<text text-anchor="start" x="532" y="-95" font-family="Helvetica,sans-Serif" font-size="10.00">polyfem::assembler</text>
<text text-anchor="middle" x="599.5" y="-84" font-family="Helvetica,sans-Serif" font-size="10.00">::SaintVenantElasticity::size</text>
</a>
</g>
</g>
<!-- Node13&#45;&gt;Node15 -->
<g id="edge21" class="edge">
<title>Node13&#45;&gt;Node15</title>
<path fill="none" stroke="midnightblue" d="M298.16,-73.79C310.07,-72.21 322.37,-70.84 334,-70 391.63,-65.83 406.41,-65.32 464,-70 480.11,-71.31 497.2,-73.49 513.6,-75.98"/>
<polygon fill="midnightblue" stroke="midnightblue" points="513.29,-79.47 523.71,-77.56 514.38,-72.55 513.29,-79.47"/>
</g>
<!-- Node16 -->
<g id="node16" class="node">
<title>Node16</title>
<g id="a_node16"><a xlink:href="classpolyfem_1_1assembler_1_1_saint_venant_elasticity.html#a2e1414e348e0da2d29fc06aa1bbce39a" target="_top" xlink:title=" ">
<polygon fill="none" stroke="black" points="536.5,-0.5 536.5,-41.5 662.5,-41.5 662.5,-0.5 536.5,-0.5"/>
<text text-anchor="start" x="544.5" y="-29.5" font-family="Helvetica,sans-Serif" font-size="10.00">polyfem::assembler</text>
<text text-anchor="start" x="544.5" y="-18.5" font-family="Helvetica,sans-Serif" font-size="10.00">::SaintVenantElasticity</text>
<text text-anchor="middle" x="599.5" y="-7.5" font-family="Helvetica,sans-Serif" font-size="10.00">::stress</text>
</a>
</g>
</g>
<!-- Node13&#45;&gt;Node16 -->
<g id="edge22" class="edge">
<title>Node13&#45;&gt;Node16</title>
<path fill="none" stroke="midnightblue" d="M298.19,-69.33C310.09,-66.74 322.39,-64.19 334,-62 398.77,-49.76 472.98,-38.5 526.27,-30.89"/>
<polygon fill="midnightblue" stroke="midnightblue" points="526.9,-34.33 536.31,-29.46 525.92,-27.4 526.9,-34.33"/>
</g>
<!-- Node14&#45;&gt;Node4 -->
<g id="edge18" class="edge">
<title>Node14&#45;&gt;Node4</title>
<path fill="none" stroke="midnightblue" d="M421.22,-120.52C440.32,-137.86 469.94,-162.04 500,-176 508.49,-179.94 517.73,-183.2 527.03,-185.88"/>
<polygon fill="midnightblue" stroke="midnightblue" points="526.16,-189.27 536.72,-188.48 527.97,-182.51 526.16,-189.27"/>
</g>
<!-- Node14&#45;&gt;Node15 -->
<g id="edge19" class="edge">
<title>Node14&#45;&gt;Node15</title>
<path fill="none" stroke="midnightblue" d="M462.26,-97.49C478.61,-96.83 496.52,-96.11 513.83,-95.41"/>
<polygon fill="midnightblue" stroke="midnightblue" points="514.08,-98.91 523.93,-95.01 513.8,-91.91 514.08,-98.91"/>
</g>
<!-- Node14&#45;&gt;Node16 -->
<g id="edge20" class="edge">
<title>Node14&#45;&gt;Node16</title>
<path fill="none" stroke="midnightblue" d="M451.64,-79.45C477.84,-69.02 509.84,-56.28 537.28,-45.36"/>
<polygon fill="midnightblue" stroke="midnightblue" points="538.78,-48.53 546.78,-41.58 536.19,-42.03 538.78,-48.53"/>
</g>
</g>
</svg>
        <g id="navigator" transform="translate(0 0)" fill="#404254">
                <rect fill="#f2f5e9" fill-opacity="0.5" stroke="#606060" stroke-width=".5" x="0" y="0" width="60" height="60"/>
                <use id="zoomplus" xlink:href="#zoomPlus" x="17" y="9" onmousedown="handleZoom(evt,'in')"/>
                <use id="zoomminus" xlink:href="#zoomMin" x="42" y="9" onmousedown="handleZoom(evt,'out')"/>
                <use id="reset" xlink:href="#resetDef" x="30" y="36" onmousedown="handleReset()"/>
                <g id="arrowUp" xlink:href="#dirArrow" transform="translate(30 24)" onmousedown="handlePan(0,-1)">
                  <use xlink:href="#rim" fill="#404040">
                        <set attributeName="fill" to="#808080" begin="arrowUp.mouseover" end="arrowUp.mouseout"/>
                  </use>
                  <path fill="none" stroke="white" stroke-width="1.5" d="M0,-3.0v7 M-2.5,-0.5L0,-3.0L2.5,-0.5"/>
                </g>
                <g id="arrowRight" xlink:href="#dirArrow" transform="rotate(90) translate(36 -43)" onmousedown="handlePan(1,0)">
                  <use xlink:href="#rim" fill="#404040">
                        <set attributeName="fill" to="#808080" begin="arrowRight.mouseover" end="arrowRight.mouseout"/>
                  </use>
                  <path fill="none" stroke="white" stroke-width="1.5" d="M0,-3.0v7 M-2.5,-0.5L0,-3.0L2.5,-0.5"/>
                </g>
                <g id="arrowDown" xlink:href="#dirArrow" transform="rotate(180) translate(-30 -48)" onmousedown="handlePan(0,1)">
                  <use xlink:href="#rim" fill="#404040">
                        <set attributeName="fill" to="#808080" begin="arrowDown.mouseover" end="arrowDown.mouseout"/>
                  </use>
                  <path fill="none" stroke="white" stroke-width="1.5" d="M0,-3.0v7 M-2.5,-0.5L0,-3.0L2.5,-0.5"/>
                </g>
                <g id="arrowLeft" xlink:href="#dirArrow" transform="rotate(270) translate(-36 17)" onmousedown="handlePan(-1,0)">
                  <use xlink:href="#rim" fill="#404040">
                        <set attributeName="fill" to="#808080" begin="arrowLeft.mouseover" end="arrowLeft.mouseout"/>
                  </use>
                  <path fill="none" stroke="white" stroke-width="1.5" d="M0,-3.0v7 M-2.5,-0.5L0,-3.0L2.5,-0.5"/>
                </g>
        </g>
        <svg viewBox="0 0 15 15" width="100%" height="30px" preserveAspectRatio="xMaxYMin meet">
         <g id="arrow_out" transform="scale(0.3 0.3)">
          <a xlink:href="classpolyfem_1_1assembler_1_1_multi_model_a0ca63d67e184aab828ec366c8a8cd9af_cgraph_org.svg" target="_base">
           <rect id="button" ry="5" rx="5" y="6" x="6" height="38" width="38"
                fill="#f2f5e9" fill-opacity="0.5" stroke="#606060" stroke-width="1.0"/>
           <path id="arrow"
             d="M 11.500037,31.436501 C 11.940474,20.09759 22.043105,11.32322 32.158766,21.979434 L 37.068811,17.246167 C 37.068811,17.246167 37.088388,32 37.088388,32 L 22.160133,31.978069 C 22.160133,31.978069 26.997745,27.140456 26.997745,27.140456 C 18.528582,18.264221 13.291696,25.230495 11.500037,31.436501 z"
             style="fill:#404040;"/>
          </a>
         </g>
        </svg>
</svg>
