<?xml version="1.0" encoding="UTF-8" standalone="no"?>
<!DOCTYPE svg PUBLIC "-//W3C//DTD SVG 1.1//EN"
 "http://www.w3.org/Graphics/SVG/1.1/DTD/svg11.dtd">
<!-- Generated by graphviz version 2.43.0 (0)
 -->
<!-- Title: polyfem::io::Evaluator::get_bases_position Pages: 1 -->
<svg width="1035pt" height="273pt"
 viewBox="0.00 0.00 1035.00 273.00" xmlns="http://www.w3.org/2000/svg" xmlns:xlink="http://www.w3.org/1999/xlink">
<g id="graph0" class="graph" transform="scale(1 1) rotate(0) translate(4 269)">
<title>polyfem::io::Evaluator::get_bases_position</title>
<!-- Node1 -->
<g id="Node000001" class="node">
<title>Node1</title>
<g id="a_Node000001"><a xlink:title=" ">
<polygon fill="#999999" stroke="#666666" points="1027,-169 902,-169 902,-139 1027,-139 1027,-169"/>
<text text-anchor="start" x="910" y="-157" font-family="Helvetica,sans-Serif" font-size="10.00">polyfem::io::Evaluator</text>
<text text-anchor="middle" x="964.5" y="-146" font-family="Helvetica,sans-Serif" font-size="10.00">::get_bases_position</text>
</a>
</g>
</g>
<!-- Node2 -->
<g id="Node000002" class="node">
<title>Node2</title>
<g id="a_Node000002"><a xlink:href="classpolyfem_1_1solver_1_1_n_l_homo_problem.html#a98a632068fd8dd697cd99730c2deb5dc" target="_top" xlink:title=" ">
<polygon fill="white" stroke="#666666" points="866,-217 684,-217 684,-187 866,-187 866,-217"/>
<text text-anchor="start" x="692" y="-205" font-family="Helvetica,sans-Serif" font-size="10.00">polyfem::solver::NLHomoProblem</text>
<text text-anchor="middle" x="775" y="-194" font-family="Helvetica,sans-Serif" font-size="10.00">::constraint_grad</text>
</a>
</g>
</g>
<!-- Node1&#45;&gt;Node2 -->
<g id="edge1_Node000001_Node000002" class="edge">
<title>Node1&#45;&gt;Node2</title>
<g id="a_edge1_Node000001_Node000002"><a xlink:title=" ">
<path fill="none" stroke="#63b8ff" d="M894.83,-171.58C875.06,-176.64 853.7,-182.11 834.6,-187"/>
<polygon fill="#63b8ff" stroke="#63b8ff" points="895.87,-174.93 904.69,-169.06 894.13,-168.15 895.87,-174.93"/>
</a>
</g>
</g>
<!-- Node5 -->
<g id="Node000005" class="node">
<title>Node5</title>
<g id="a_Node000005"><a xlink:href="classpolyfem_1_1io_1_1_evaluator.html#a2ee6a772b00696a954e6a29fc3d77a8b" target="_top" xlink:title=" ">
<polygon fill="white" stroke="#666666" points="837.5,-145 712.5,-145 712.5,-115 837.5,-115 837.5,-145"/>
<text text-anchor="start" x="720.5" y="-133" font-family="Helvetica,sans-Serif" font-size="10.00">polyfem::io::Evaluator</text>
<text text-anchor="middle" x="775" y="-122" font-family="Helvetica,sans-Serif" font-size="10.00">::generate_linear_field</text>
</a>
</g>
</g>
<!-- Node1&#45;&gt;Node5 -->
<g id="edge4_Node000001_Node000005" class="edge">
<title>Node1&#45;&gt;Node5</title>
<g id="a_edge4_Node000001_Node000005"><a xlink:title=" ">
<path fill="none" stroke="#63b8ff" d="M891.54,-144.79C873.78,-142.52 854.91,-140.1 837.69,-137.9"/>
<polygon fill="#63b8ff" stroke="#63b8ff" points="891.48,-148.31 901.85,-146.11 892.37,-141.37 891.48,-148.31"/>
</a>
</g>
</g>
<!-- Node3 -->
<g id="Node000003" class="node">
<title>Node3</title>
<g id="a_Node000003"><a xlink:href="classpolyfem_1_1solver_1_1_n_l_homo_problem.html#a9a2bc06cc529f5f5670b8a5bdcb155f3" target="_top" xlink:title=" ">
<polygon fill="white" stroke="#666666" points="648,-265 465,-265 465,-235 648,-235 648,-265"/>
<text text-anchor="start" x="473" y="-253" font-family="Helvetica,sans-Serif" font-size="10.00">polyfem::solver::NLHomoProblem</text>
<text text-anchor="middle" x="556.5" y="-242" font-family="Helvetica,sans-Serif" font-size="10.00">::full_hessian_to_reduced_hessian</text>
</a>
</g>
</g>
<!-- Node2&#45;&gt;Node3 -->
<g id="edge2_Node000002_Node000003" class="edge">
<title>Node2&#45;&gt;Node3</title>
<g id="a_edge2_Node000002_Node000003"><a xlink:title=" ">
<path fill="none" stroke="#63b8ff" d="M696.27,-219.23C673.01,-224.39 647.72,-230 625.17,-235"/>
<polygon fill="#63b8ff" stroke="#63b8ff" points="697.09,-222.64 706.09,-217.06 695.57,-215.8 697.09,-222.64"/>
</a>
</g>
</g>
<!-- Node4 -->
<g id="Node000004" class="node">
<title>Node4</title>
<g id="a_Node000004"><a xlink:href="classpolyfem_1_1solver_1_1_n_l_homo_problem.html#ac32a7f01595e989dbc6ece262ade6320" target="_top" xlink:title=" ">
<polygon fill="white" stroke="#666666" points="647.5,-217 465.5,-217 465.5,-187 647.5,-187 647.5,-217"/>
<text text-anchor="start" x="473.5" y="-205" font-family="Helvetica,sans-Serif" font-size="10.00">polyfem::solver::NLHomoProblem</text>
<text text-anchor="middle" x="556.5" y="-194" font-family="Helvetica,sans-Serif" font-size="10.00">::full_to_reduced_grad</text>
</a>
</g>
</g>
<!-- Node2&#45;&gt;Node4 -->
<g id="edge3_Node000002_Node000004" class="edge">
<title>Node2&#45;&gt;Node4</title>
<g id="a_edge3_Node000002_Node000004"><a xlink:title=" ">
<path fill="none" stroke="#63b8ff" d="M673.61,-202C664.93,-202 656.19,-202 647.6,-202"/>
<polygon fill="#63b8ff" stroke="#63b8ff" points="673.75,-205.5 683.75,-202 673.75,-198.5 673.75,-205.5"/>
</a>
</g>
</g>
<!-- Node6 -->
<g id="Node000006" class="node">
<title>Node6</title>
<g id="a_Node000006"><a xlink:href="classpolyfem_1_1solver_1_1_n_l_homo_problem.html#abecf10f4e71ac82a7116d65a55e06b8a" target="_top" xlink:title=" ">
<polygon fill="white" stroke="#666666" points="647.5,-169 465.5,-169 465.5,-139 647.5,-139 647.5,-169"/>
<text text-anchor="start" x="473.5" y="-157" font-family="Helvetica,sans-Serif" font-size="10.00">polyfem::solver::NLHomoProblem</text>
<text text-anchor="middle" x="556.5" y="-146" font-family="Helvetica,sans-Serif" font-size="10.00">::full_to_reduced</text>
</a>
</g>
</g>
<!-- Node5&#45;&gt;Node6 -->
<g id="edge5_Node000005_Node000006" class="edge">
<title>Node5&#45;&gt;Node6</title>
<g id="a_edge5_Node000005_Node000006"><a xlink:title=" ">
<path fill="none" stroke="#63b8ff" d="M702.15,-137.97C684.68,-139.9 665.79,-142 647.6,-144.01"/>
<polygon fill="#63b8ff" stroke="#63b8ff" points="702.7,-141.43 712.25,-136.85 701.92,-134.47 702.7,-141.43"/>
</a>
</g>
</g>
<!-- Node7 -->
<g id="Node000007" class="node">
<title>Node7</title>
<g id="a_Node000007"><a xlink:href="classpolyfem_1_1solver_1_1_n_l_homo_problem.html#aa08b55fe61b9219d5379951192f4e0a1" target="_top" xlink:title=" ">
<polygon fill="white" stroke="#666666" points="647.5,-121 465.5,-121 465.5,-91 647.5,-91 647.5,-121"/>
<text text-anchor="start" x="473.5" y="-109" font-family="Helvetica,sans-Serif" font-size="10.00">polyfem::solver::NLHomoProblem</text>
<text text-anchor="middle" x="556.5" y="-98" font-family="Helvetica,sans-Serif" font-size="10.00">::reduced_to_full</text>
</a>
</g>
</g>
<!-- Node5&#45;&gt;Node7 -->
<g id="edge6_Node000005_Node000007" class="edge">
<title>Node5&#45;&gt;Node7</title>
<g id="a_edge6_Node000005_Node000007"><a xlink:title=" ">
<path fill="none" stroke="#63b8ff" d="M702.15,-122.03C684.68,-120.1 665.79,-118 647.6,-115.99"/>
<polygon fill="#63b8ff" stroke="#63b8ff" points="701.92,-125.53 712.25,-123.15 702.7,-118.57 701.92,-125.53"/>
</a>
</g>
</g>
<!-- Node9 -->
<g id="Node000009" class="node">
<title>Node9</title>
<g id="a_Node000009"><a xlink:href="classpolyfem_1_1_state.html#a711a7162a063d7534b03d9ff9acb93f0" target="_top" xlink:title=" ">
<polygon fill="white" stroke="#666666" points="617,-73 496,-73 496,-43 617,-43 617,-73"/>
<text text-anchor="start" x="504" y="-61" font-family="Helvetica,sans-Serif" font-size="10.00">polyfem::State::solve</text>
<text text-anchor="middle" x="556.5" y="-50" font-family="Helvetica,sans-Serif" font-size="10.00">_homogenization</text>
</a>
</g>
</g>
<!-- Node5&#45;&gt;Node9 -->
<g id="edge8_Node000005_Node000009" class="edge">
<title>Node5&#45;&gt;Node9</title>
<g id="a_edge8_Node000005_Node000009"><a xlink:title=" ">
<path fill="none" stroke="#63b8ff" d="M727.98,-111.14C704.29,-101.77 674.83,-90.64 648,-82 638.1,-78.81 627.49,-75.72 617.15,-72.87"/>
<polygon fill="#63b8ff" stroke="#63b8ff" points="726.84,-114.45 737.42,-114.9 729.43,-107.95 726.84,-114.45"/>
</a>
</g>
</g>
<!-- Node8 -->
<g id="Node000008" class="node">
<title>Node8</title>
<g id="a_Node000008"><a xlink:href="classpolyfem_1_1solver_1_1_n_l_homo_problem.html#a1772048087ff9430a848af89980a9781" target="_top" xlink:title=" ">
<polygon fill="white" stroke="#666666" points="429,-121 247,-121 247,-91 429,-91 429,-121"/>
<text text-anchor="start" x="255" y="-109" font-family="Helvetica,sans-Serif" font-size="10.00">polyfem::solver::NLHomoProblem</text>
<text text-anchor="middle" x="338" y="-98" font-family="Helvetica,sans-Serif" font-size="10.00">::init</text>
</a>
</g>
</g>
<!-- Node7&#45;&gt;Node8 -->
<g id="edge7_Node000007_Node000008" class="edge">
<title>Node7&#45;&gt;Node8</title>
<g id="a_edge7_Node000007_Node000008"><a xlink:title=" ">
<path fill="none" stroke="#63b8ff" d="M455.11,-106C446.43,-106 437.69,-106 429.1,-106"/>
<polygon fill="#63b8ff" stroke="#63b8ff" points="455.25,-109.5 465.25,-106 455.25,-102.5 455.25,-109.5"/>
</a>
</g>
</g>
<!-- Node10 -->
<g id="Node000010" class="node">
<title>Node10</title>
<g id="a_Node000010"><a xlink:href="classpolyfem_1_1_state.html#a7450ef7c42dd9c523e1be73a5819117d" target="_top" xlink:title="solves the problems">
<polygon fill="white" stroke="#666666" points="398.5,-73 277.5,-73 277.5,-43 398.5,-43 398.5,-73"/>
<text text-anchor="start" x="285.5" y="-61" font-family="Helvetica,sans-Serif" font-size="10.00">polyfem::State::solve</text>
<text text-anchor="middle" x="338" y="-50" font-family="Helvetica,sans-Serif" font-size="10.00">_problem</text>
</a>
</g>
</g>
<!-- Node9&#45;&gt;Node10 -->
<g id="edge9_Node000009_Node000010" class="edge">
<title>Node9&#45;&gt;Node10</title>
<g id="a_edge9_Node000009_Node000010"><a xlink:title=" ">
<path fill="none" stroke="#63b8ff" d="M485.62,-58C457.53,-58 425.49,-58 398.54,-58"/>
<polygon fill="#63b8ff" stroke="#63b8ff" points="485.77,-61.5 495.77,-58 485.77,-54.5 485.77,-61.5"/>
</a>
</g>
</g>
<!-- Node11 -->
<g id="Node000011" class="node">
<title>Node11</title>
<g id="a_Node000011"><a xlink:href="main_8cpp.html#aec889c702a246ad7f332c75ab7adb438" target="_top" xlink:title=" ">
<polygon fill="white" stroke="#666666" points="199.5,-104.5 88.5,-104.5 88.5,-85.5 199.5,-85.5 199.5,-104.5"/>
<text text-anchor="middle" x="144" y="-92.5" font-family="Helvetica,sans-Serif" font-size="10.00">forward_simulation</text>
</a>
</g>
</g>
<!-- Node10&#45;&gt;Node11 -->
<g id="edge10_Node000010_Node000011" class="edge">
<title>Node10&#45;&gt;Node11</title>
<g id="a_edge10_Node000010_Node000011"><a xlink:title=" ">
<path fill="none" stroke="#63b8ff" d="M267.45,-71.4C243.24,-76.07 216.58,-81.2 194.35,-85.49"/>
<polygon fill="#63b8ff" stroke="#63b8ff" points="268.15,-74.83 277.3,-69.5 266.82,-67.96 268.15,-74.83"/>
</a>
</g>
</g>
<!-- Node13 -->
<g id="Node000013" class="node">
<title>Node13</title>
<g id="a_Node000013"><a xlink:href="classpolyfem_1_1_state.html#a219f9935d918f739d82488449bd4cbf4" target="_top" xlink:title="solves the problem, call other methods">
<polygon fill="white" stroke="#666666" points="204.5,-67.5 83.5,-67.5 83.5,-48.5 204.5,-48.5 204.5,-67.5"/>
<text text-anchor="middle" x="144" y="-55.5" font-family="Helvetica,sans-Serif" font-size="10.00">polyfem::State::solve</text>
</a>
</g>
</g>
<!-- Node10&#45;&gt;Node13 -->
<g id="edge12_Node000010_Node000013" class="edge">
<title>Node10&#45;&gt;Node13</title>
<g id="a_edge12_Node000010_Node000013"><a xlink:title=" ">
<path fill="none" stroke="#63b8ff" d="M267.09,-58C246.62,-58 224.43,-58 204.66,-58"/>
<polygon fill="#63b8ff" stroke="#63b8ff" points="267.3,-61.5 277.3,-58 267.3,-54.5 267.3,-61.5"/>
</a>
</g>
</g>
<!-- Node14 -->
<g id="Node000014" class="node">
<title>Node14</title>
<g id="a_Node000014"><a xlink:href="structpolyfem_1_1solver_1_1_adjoint_opt_utils.html#acac3e8ce8646ddd1544ed034c71bec96" target="_top" xlink:title=" ">
<polygon fill="white" stroke="#666666" points="211,-30 77,-30 77,0 211,0 211,-30"/>
<text text-anchor="start" x="85" y="-18" font-family="Helvetica,sans-Serif" font-size="10.00">polyfem::solver::Adjoint</text>
<text text-anchor="middle" x="144" y="-7" font-family="Helvetica,sans-Serif" font-size="10.00">OptUtils::solve_pde</text>
</a>
</g>
</g>
<!-- Node10&#45;&gt;Node14 -->
<g id="edge13_Node000010_Node000014" class="edge">
<title>Node10&#45;&gt;Node14</title>
<g id="a_edge13_Node000010_Node000014"><a xlink:title=" ">
<path fill="none" stroke="#63b8ff" d="M267.52,-42.44C249.09,-38.31 229.25,-33.87 211.01,-29.78"/>
<polygon fill="#63b8ff" stroke="#63b8ff" points="266.78,-45.86 277.3,-44.63 268.31,-39.03 266.78,-45.86"/>
</a>
</g>
</g>
<!-- Node12 -->
<g id="Node000012" class="node">
<title>Node12</title>
<g id="a_Node000012"><a xlink:href="main_8cpp.html#a3c04138a5bfe5d72780bb7e82a18e627" target="_top" xlink:title=" ">
<polygon fill="white" stroke="#666666" points="41,-104.5 0,-104.5 0,-85.5 41,-85.5 41,-104.5"/>
<text text-anchor="middle" x="20.5" y="-92.5" font-family="Helvetica,sans-Serif" font-size="10.00">main</text>
</a>
</g>
</g>
<!-- Node11&#45;&gt;Node12 -->
<g id="edge11_Node000011_Node000012" class="edge">
<title>Node11&#45;&gt;Node12</title>
<g id="a_edge11_Node000011_Node000012"><a xlink:title=" ">
<path fill="none" stroke="#63b8ff" d="M77.97,-95C64.49,-95 51.29,-95 41.05,-95"/>
<polygon fill="#63b8ff" stroke="#63b8ff" points="78.29,-98.5 88.29,-95 78.29,-91.5 78.29,-98.5"/>
</a>
</g>
</g>
</g>
</svg>
