<?xml version="1.0" encoding="UTF-8" standalone="no"?>
<!DOCTYPE svg PUBLIC "-//W3C//DTD SVG 1.1//EN"
 "http://www.w3.org/Graphics/SVG/1.1/DTD/svg11.dtd">
<!-- Generated by graphviz version 2.43.0 (0)
 -->
<!-- Title: polyfem::solver::ContactForm::dhat Pages: 1 -->
<svg width="529pt" height="86pt"
 viewBox="0.00 0.00 529.00 86.00" xmlns="http://www.w3.org/2000/svg" xmlns:xlink="http://www.w3.org/1999/xlink">
<g id="graph0" class="graph" transform="scale(1 1) rotate(0) translate(4 82)">
<title>polyfem::solver::ContactForm::dhat</title>
<!-- Node1 -->
<g id="Node000001" class="node">
<title>Node1</title>
<g id="a_Node000001"><a xlink:title=" ">
<polygon fill="#999999" stroke="#666666" points="521,-54 384,-54 384,-24 521,-24 521,-54"/>
<text text-anchor="start" x="392" y="-42" font-family="Helvetica,sans-Serif" font-size="10.00">polyfem::solver::Contact</text>
<text text-anchor="middle" x="452.5" y="-31" font-family="Helvetica,sans-Serif" font-size="10.00">Form::dhat</text>
</a>
</g>
</g>
<!-- Node2 -->
<g id="Node000002" class="node">
<title>Node2</title>
<g id="a_Node000002"><a xlink:href="classpolyfem_1_1solver_1_1_barrier_contact_form.html#ae51a823d944f3967789b1063877532c0" target="_top" xlink:title="Update fields after a step in the optimization.">
<polygon fill="white" stroke="#666666" points="327,-78 195,-78 195,-48 327,-48 327,-78"/>
<text text-anchor="start" x="203" y="-66" font-family="Helvetica,sans-Serif" font-size="10.00">polyfem::solver::Barrier</text>
<text text-anchor="middle" x="261" y="-55" font-family="Helvetica,sans-Serif" font-size="10.00">ContactForm::post_step</text>
</a>
</g>
</g>
<!-- Node1&#45;&gt;Node2 -->
<g id="edge1_Node000001_Node000002" class="edge">
<title>Node1&#45;&gt;Node2</title>
<g id="a_edge1_Node000001_Node000002"><a xlink:title=" ">
<path fill="none" stroke="#63b8ff" d="M373.79,-48.84C358.26,-50.81 342.1,-52.86 327.04,-54.76"/>
<polygon fill="#63b8ff" stroke="#63b8ff" points="374.41,-52.29 383.89,-47.56 373.53,-45.35 374.41,-52.29"/>
</a>
</g>
</g>
<!-- Node4 -->
<g id="Node000004" class="node">
<title>Node4</title>
<g id="a_Node000004"><a xlink:href="classpolyfem_1_1solver_1_1_smooth_contact_form.html#a9cf19a87c2da19c62ef5a30305efc2ae" target="_top" xlink:title="Update fields after a step in the optimization.">
<polygon fill="white" stroke="#666666" points="348,-30 174,-30 174,0 348,0 348,-30"/>
<text text-anchor="start" x="182" y="-18" font-family="Helvetica,sans-Serif" font-size="10.00">polyfem::solver::SmoothContact</text>
<text text-anchor="middle" x="261" y="-7" font-family="Helvetica,sans-Serif" font-size="10.00">Form::post_step</text>
</a>
</g>
</g>
<!-- Node1&#45;&gt;Node4 -->
<g id="edge3_Node000001_Node000004" class="edge">
<title>Node1&#45;&gt;Node4</title>
<g id="a_edge3_Node000001_Node000004"><a xlink:title=" ">
<path fill="none" stroke="#63b8ff" d="M373.71,-29.15C365.28,-28.08 356.66,-26.99 348.13,-25.91"/>
<polygon fill="#63b8ff" stroke="#63b8ff" points="373.53,-32.65 383.89,-30.44 374.41,-25.71 373.53,-32.65"/>
</a>
</g>
</g>
<!-- Node3 -->
<g id="Node000003" class="node">
<title>Node3</title>
<g id="a_Node000003"><a xlink:href="classpolyfem_1_1solver_1_1_periodic_contact_form.html#a3fb92cf33c43544ec3d89252409466fc" target="_top" xlink:title="Update fields after a step in the optimization.">
<polygon fill="white" stroke="#666666" points="138,-78 0,-78 0,-48 138,-48 138,-78"/>
<text text-anchor="start" x="8" y="-66" font-family="Helvetica,sans-Serif" font-size="10.00">polyfem::solver::Periodic</text>
<text text-anchor="middle" x="69" y="-55" font-family="Helvetica,sans-Serif" font-size="10.00">ContactForm::post_step</text>
</a>
</g>
</g>
<!-- Node2&#45;&gt;Node3 -->
<g id="edge2_Node000002_Node000003" class="edge">
<title>Node2&#45;&gt;Node3</title>
<g id="a_edge2_Node000002_Node000003"><a xlink:title=" ">
<path fill="none" stroke="#63b8ff" d="M184.45,-63C169.2,-63 153.26,-63 138.27,-63"/>
<polygon fill="#63b8ff" stroke="#63b8ff" points="184.88,-66.5 194.88,-63 184.88,-59.5 184.88,-66.5"/>
</a>
</g>
</g>
</g>
</svg>
