<?xml version="1.0" encoding="UTF-8" standalone="no"?>
<!DOCTYPE svg PUBLIC "-//W3C//DTD SVG 1.1//EN"
 "http://www.w3.org/Graphics/SVG/1.1/DTD/svg11.dtd">
<!-- Generated by graphviz version 2.43.0 (0)
 -->
<!-- Title: polyfem::legacy::State::init_logger Pages: 1 -->
<svg width="667pt" height="86pt"
 viewBox="0.00 0.00 667.00 86.00" xmlns="http://www.w3.org/2000/svg" xmlns:xlink="http://www.w3.org/1999/xlink">
<g id="graph0" class="graph" transform="scale(1 1) rotate(0) translate(4 82)">
<title>polyfem::legacy::State::init_logger</title>
<!-- Node1 -->
<g id="Node000001" class="node">
<title>Node1</title>
<g id="a_Node000001"><a xlink:title="initializing the logger">
<polygon fill="#999999" stroke="#666666" points="659,-54 533,-54 533,-24 659,-24 659,-54"/>
<text text-anchor="start" x="541" y="-42" font-family="Helvetica,sans-Serif" font-size="10.00">polyfem::legacy::State</text>
<text text-anchor="middle" x="596" y="-31" font-family="Helvetica,sans-Serif" font-size="10.00">::init_logger</text>
</a>
</g>
</g>
<!-- Node1&#45;&gt;Node1 -->
<g id="edge5_Node000001_Node000001" class="edge">
<title>Node1&#45;&gt;Node1</title>
<g id="a_edge5_Node000001_Node000001"><a xlink:title=" ">
<path fill="none" stroke="#63b8ff" d="M624.36,-64.6C620.48,-68.97 611.03,-72 596,-72 570.69,-72 561.2,-63.41 567.52,-54.28"/>
<polygon fill="#63b8ff" stroke="#63b8ff" points="627.86,-64.32 624.48,-54.28 620.86,-64.23 627.86,-64.32"/>
</a>
</g>
</g>
<!-- Node2 -->
<g id="Node000002" class="node">
<title>Node2</title>
<g id="a_Node000002"><a xlink:href="classpolyfem_1_1legacy_1_1_state.html#a0c0600598c4d3ed30a3f1c1a590c9723" target="_top" xlink:title="initialize the polyfem solver with a json settings">
<polygon fill="white" stroke="#666666" points="497,-78 371,-78 371,-48 497,-48 497,-78"/>
<text text-anchor="start" x="379" y="-66" font-family="Helvetica,sans-Serif" font-size="10.00">polyfem::legacy::State</text>
<text text-anchor="middle" x="434" y="-55" font-family="Helvetica,sans-Serif" font-size="10.00">::init</text>
</a>
</g>
</g>
<!-- Node1&#45;&gt;Node2 -->
<g id="edge1_Node000001_Node000002" class="edge">
<title>Node1&#45;&gt;Node2</title>
<g id="a_edge1_Node000001_Node000002"><a xlink:title=" ">
<path fill="none" stroke="#63b8ff" d="M522.73,-49.84C514.19,-51.12 505.53,-52.42 497.15,-53.68"/>
<polygon fill="#63b8ff" stroke="#63b8ff" points="523.31,-53.29 532.68,-48.35 522.27,-46.37 523.31,-53.29"/>
</a>
</g>
</g>
<!-- Node6 -->
<g id="Node000006" class="node">
<title>Node6</title>
<g id="a_Node000006"><a xlink:href="classpolyfem_1_1legacy_1_1_state.html#aa4ac2b8e3700abda27ed620d9c239ab5" target="_top" xlink:title="initializing the logger writes to an output stream">
<polygon fill="white" stroke="#666666" points="497,-30 371,-30 371,0 497,0 497,-30"/>
<text text-anchor="start" x="379" y="-18" font-family="Helvetica,sans-Serif" font-size="10.00">polyfem::legacy::State</text>
<text text-anchor="middle" x="434" y="-7" font-family="Helvetica,sans-Serif" font-size="10.00">::init_logger</text>
</a>
</g>
</g>
<!-- Node1&#45;&gt;Node6 -->
<g id="edge6_Node000001_Node000006" class="edge">
<title>Node1&#45;&gt;Node6</title>
<g id="a_edge6_Node000001_Node000006"><a xlink:title=" ">
<path fill="none" stroke="#63b8ff" d="M522.73,-28.16C514.19,-26.88 505.53,-25.58 497.15,-24.32"/>
<polygon fill="#63b8ff" stroke="#63b8ff" points="522.27,-31.63 532.68,-29.65 523.31,-24.71 522.27,-31.63"/>
</a>
</g>
</g>
<!-- Node3 -->
<g id="Node000003" class="node">
<title>Node3</title>
<g id="a_Node000003"><a xlink:href="main_8cpp.html#a0d6fd6ed6fda5fc5e4b6ed34b45fe322" target="_top" xlink:title=" ">
<polygon fill="white" stroke="#666666" points="335,-78 224,-78 224,-48 335,-48 335,-78"/>
<text text-anchor="start" x="232" y="-66" font-family="Helvetica,sans-Serif" font-size="10.00">forward_simulation</text>
<text text-anchor="middle" x="279.5" y="-55" font-family="Helvetica,sans-Serif" font-size="10.00">_with_legacy_state</text>
</a>
</g>
</g>
<!-- Node2&#45;&gt;Node3 -->
<g id="edge2_Node000002_Node000003" class="edge">
<title>Node2&#45;&gt;Node3</title>
<g id="a_edge2_Node000002_Node000003"><a xlink:title=" ">
<path fill="none" stroke="#63b8ff" d="M360.87,-63C352.21,-63 343.48,-63 335.13,-63"/>
<polygon fill="#63b8ff" stroke="#63b8ff" points="360.97,-66.5 370.97,-63 360.97,-59.5 360.97,-66.5"/>
</a>
</g>
</g>
<!-- Node4 -->
<g id="Node000004" class="node">
<title>Node4</title>
<g id="a_Node000004"><a xlink:href="main_8cpp.html#aec889c702a246ad7f332c75ab7adb438" target="_top" xlink:title=" ">
<polygon fill="white" stroke="#666666" points="188,-72.5 77,-72.5 77,-53.5 188,-53.5 188,-72.5"/>
<text text-anchor="middle" x="132.5" y="-60.5" font-family="Helvetica,sans-Serif" font-size="10.00">forward_simulation</text>
</a>
</g>
</g>
<!-- Node3&#45;&gt;Node4 -->
<g id="edge3_Node000003_Node000004" class="edge">
<title>Node3&#45;&gt;Node4</title>
<g id="a_edge3_Node000003_Node000004"><a xlink:title=" ">
<path fill="none" stroke="#63b8ff" d="M213.54,-63C205.14,-63 196.61,-63 188.4,-63"/>
<polygon fill="#63b8ff" stroke="#63b8ff" points="213.68,-66.5 223.68,-63 213.68,-59.5 213.68,-66.5"/>
</a>
</g>
</g>
<!-- Node5 -->
<g id="Node000005" class="node">
<title>Node5</title>
<g id="a_Node000005"><a xlink:href="main_8cpp.html#a3c04138a5bfe5d72780bb7e82a18e627" target="_top" xlink:title=" ">
<polygon fill="white" stroke="#666666" points="41,-72.5 0,-72.5 0,-53.5 41,-53.5 41,-72.5"/>
<text text-anchor="middle" x="20.5" y="-60.5" font-family="Helvetica,sans-Serif" font-size="10.00">main</text>
</a>
</g>
</g>
<!-- Node4&#45;&gt;Node5 -->
<g id="edge4_Node000004_Node000005" class="edge">
<title>Node4&#45;&gt;Node5</title>
<g id="a_edge4_Node000004_Node000005"><a xlink:title=" ">
<path fill="none" stroke="#63b8ff" d="M66.64,-63C57.35,-63 48.45,-63 41.05,-63"/>
<polygon fill="#63b8ff" stroke="#63b8ff" points="66.82,-66.5 76.82,-63 66.82,-59.5 66.82,-66.5"/>
</a>
</g>
</g>
</g>
</svg>
