<?xml version="1.0" encoding="UTF-8" standalone="no"?>
<!DOCTYPE svg PUBLIC "-//W3C//DTD SVG 1.1//EN"
 "http://www.w3.org/Graphics/SVG/1.1/DTD/svg11.dtd">
<!-- Generated by graphviz version 2.43.0 (0)
 -->
<!-- Title: polyfem::assembler::MooneyRivlin3ParamSymbolic::elastic_energy Pages: 1 -->
<svg width="386pt" height="108pt"
 viewBox="0.00 0.00 386.00 108.00" xmlns="http://www.w3.org/2000/svg" xmlns:xlink="http://www.w3.org/1999/xlink">
<g id="graph0" class="graph" transform="scale(1 1) rotate(0) translate(4 104)">
<title>polyfem::assembler::MooneyRivlin3ParamSymbolic::elastic_energy</title>
<!-- Node1 -->
<g id="Node000001" class="node">
<title>Node1</title>
<g id="a_Node000001"><a xlink:title=" ">
<polygon fill="#999999" stroke="#666666" points="378,-70 207,-70 207,-29 378,-29 378,-70"/>
<text text-anchor="start" x="215" y="-58" font-family="Helvetica,sans-Serif" font-size="10.00">polyfem::assembler</text>
<text text-anchor="start" x="215" y="-47" font-family="Helvetica,sans-Serif" font-size="10.00">::MooneyRivlin3ParamSymbolic</text>
<text text-anchor="middle" x="292.5" y="-36" font-family="Helvetica,sans-Serif" font-size="10.00">::elastic_energy</text>
</a>
</g>
</g>
<!-- Node2 -->
<g id="Node000002" class="node">
<title>Node2</title>
<g id="a_Node000002"><a xlink:href="classpolyfem_1_1assembler_1_1_mooney_rivlin3_param_symbolic.html#a00925c79f1bd71b94491c4110907e15d" target="_top" xlink:title=" ">
<polygon fill="white" stroke="#666666" points="171,-100 0,-100 0,-59 171,-59 171,-100"/>
<text text-anchor="start" x="8" y="-88" font-family="Helvetica,sans-Serif" font-size="10.00">polyfem::assembler</text>
<text text-anchor="start" x="8" y="-77" font-family="Helvetica,sans-Serif" font-size="10.00">::MooneyRivlin3ParamSymbolic</text>
<text text-anchor="middle" x="85.5" y="-66" font-family="Helvetica,sans-Serif" font-size="10.00">::compute_energy_aux</text>
</a>
</g>
</g>
<!-- Node1&#45;&gt;Node2 -->
<g id="edge1_Node000001_Node000002" class="edge">
<title>Node1&#45;&gt;Node2</title>
<g id="a_edge1_Node000001_Node000002"><a xlink:title=" ">
<path fill="none" stroke="#63b8ff" d="M196.91,-63.34C188.34,-64.6 179.69,-65.86 171.2,-67.1"/>
<polygon fill="#63b8ff" stroke="#63b8ff" points="197.55,-66.79 206.94,-61.88 196.53,-59.86 197.55,-66.79"/>
</a>
</g>
</g>
<!-- Node3 -->
<g id="Node000003" class="node">
<title>Node3</title>
<g id="a_Node000003"><a xlink:href="classpolyfem_1_1assembler_1_1_mooney_rivlin3_param_symbolic.html#abab80fb6ecc92d07b1596782eed2dde4" target="_top" xlink:title=" ">
<polygon fill="white" stroke="#666666" points="171,-41 0,-41 0,0 171,0 171,-41"/>
<text text-anchor="start" x="8" y="-29" font-family="Helvetica,sans-Serif" font-size="10.00">polyfem::assembler</text>
<text text-anchor="start" x="8" y="-18" font-family="Helvetica,sans-Serif" font-size="10.00">::MooneyRivlin3ParamSymbolic</text>
<text text-anchor="middle" x="85.5" y="-7" font-family="Helvetica,sans-Serif" font-size="10.00">::get_grad_hess_autodiff</text>
</a>
</g>
</g>
<!-- Node1&#45;&gt;Node3 -->
<g id="edge2_Node000001_Node000003" class="edge">
<title>Node1&#45;&gt;Node3</title>
<g id="a_edge2_Node000001_Node000003"><a xlink:title=" ">
<path fill="none" stroke="#63b8ff" d="M196.91,-36.12C188.34,-34.91 179.69,-33.68 171.2,-32.48"/>
<polygon fill="#63b8ff" stroke="#63b8ff" points="196.54,-39.6 206.94,-37.54 197.52,-32.67 196.54,-39.6"/>
</a>
</g>
</g>
</g>
</svg>
