<?xml version="1.0" encoding="UTF-8" standalone="no"?>
<!DOCTYPE svg PUBLIC "-//W3C//DTD SVG 1.1//EN"
 "http://www.w3.org/Graphics/SVG/1.1/DTD/svg11.dtd">
<!-- Generated by graphviz version 2.43.0 (0)
 -->
<!-- Title: polyfem::solver::NLHomoProblem::macro_reduced_size Pages: 1 -->
<!--zoomable 716 -->

<svg id="main" version="1.1" xmlns="http://www.w3.org/2000/svg" xmlns:xlink="http://www.w3.org/1999/xlink" xml:space="preserve" onload="init(evt)">
<style type="text/css"><![CDATA[
.node, .edge {opacity: 0.7;}
.node.selected, .edge.selected {opacity: 1;}
.edge:hover path { stroke: red; }
.edge:hover polygon { stroke: red; fill: red; }
]]></style>

<defs>
  <circle id="rim" cx="0" cy="0" r="7"/>
  <circle id="rim2" cx="0" cy="0" r="3.5"/>
  <g id="zoomPlus">
    <use xlink:href="#rim" fill="#404040"><set attributeName="fill" to="#808080" begin="zoomplus.mouseover" end="zoomplus.mouseout"/></use>
    <path d="M-4,0h8M0,-4v8" fill="none" stroke="white" stroke-width="1.5" pointer-events="none"/>
  </g>
  <g id="zoomMin">
    <use xlink:href="#rim" fill="#404040"><set attributeName="fill" to="#808080" begin="zoomminus.mouseover" end="zoomminus.mouseout"/></use>
    <path d="M-4,0h8" fill="none" stroke="white" stroke-width="1.5" pointer-events="none"/>
  </g>
  <g id="arrowUp" transform="translate(30 24)">
    <use xlink:href="#rim"/>
    <path pointer-events="none" fill="none" stroke="white" stroke-width="1.5" d="M0,-3.0v7 M-2.5,-0.5L0,-3.0L2.5,-0.5"/>
  </g>
  <g id="arrowRight" transform="rotate(90) translate(36 -43)">
    <use xlink:href="#rim"/>
    <path pointer-events="none" fill="none" stroke="white" stroke-width="1.5" d="M0,-3.0v7 M-2.5,-0.5L0,-3.0L2.5,-0.5"/>
  </g>
  <g id="arrowDown" transform="rotate(180) translate(-30 -48)">
    <use xlink:href="#rim"/>
    <path pointer-events="none" fill="none" stroke="white" stroke-width="1.5" d="M0,-3.0v7 M-2.5,-0.5L0,-3.0L2.5,-0.5"/>
  </g>
  <g id="arrowLeft" transform="rotate(270) translate(-36 17)">
    <use xlink:href="#rim"/>
    <path pointer-events="none" fill="none" stroke="white" stroke-width="1.5" d="M0,-3.0v7 M-2.5,-0.5L0,-3.0L2.5,-0.5"/>
  </g>
  <g id="resetDef">
    <use xlink:href="#rim2" fill="#404040"><set attributeName="fill" to="#808080" begin="reset.mouseover" end="reset.mouseout"/></use>
  </g>
</defs>
<script type="application/ecmascript">
var viewWidth = 1312;
var viewHeight = 716;
var sectionId = 'dynsection-27';
</script>
<script type="application/ecmascript" xlink:href="svg.min.js"/>
<svg id="graph" class="graph">
<g id="viewport">
<title>polyfem::solver::NLHomoProblem::macro_reduced_size</title>
<!-- Node1 -->
<g id="Node000001" class="node">
<title>Node1</title>
<g id="a_Node000001"><a xlink:title=" ">
<polygon fill="#999999" stroke="#666666" points="1304,-538 1122,-538 1122,-508 1304,-508 1304,-538"/>
<text text-anchor="start" x="1130" y="-526" font-family="Helvetica,sans-Serif" font-size="10.00">polyfem::solver::NLHomoProblem</text>
<text text-anchor="middle" x="1213" y="-515" font-family="Helvetica,sans-Serif" font-size="10.00">::macro_reduced_size</text>
</a>
</g>
</g>
<!-- Node2 -->
<g id="Node000002" class="node">
<title>Node2</title>
<g id="a_Node000002"><a xlink:href="classpolyfem_1_1solver_1_1_n_l_homo_problem.html#addaf8623e3f1636e3ffa0fb82f93198c" target="_top" xlink:title=" ">
<polygon fill="white" stroke="#666666" points="650,-546 437,-546 437,-516 650,-516 650,-546"/>
<text text-anchor="start" x="445" y="-534" font-family="Helvetica,sans-Serif" font-size="10.00">polyfem::solver::NLHomoProblem</text>
<text text-anchor="middle" x="543.5" y="-523" font-family="Helvetica,sans-Serif" font-size="10.00">::extended_hessian_to_reduced_hessian</text>
</a>
</g>
</g>
<!-- Node1&#45;&gt;Node2 -->
<g id="edge1_Node000001_Node000002" class="edge">
<title>Node1&#45;&gt;Node2</title>
<g id="a_edge1_Node000001_Node000002"><a xlink:title=" ">
<path fill="none" stroke="#63b8ff" d="M1196.19,-546.49C1175.05,-575.56 1134.55,-623.58 1086,-643 1003.47,-676.01 769.95,-672.2 686,-643 630.07,-623.54 579.6,-571.77 557.01,-546"/>
<polygon fill="#63b8ff" stroke="#63b8ff" points="1199.19,-548.32 1202.12,-538.14 1193.48,-544.27 1199.19,-548.32"/>
</a>
</g>
</g>
<!-- Node4 -->
<g id="Node000004" class="node">
<title>Node4</title>
<g id="a_Node000004"><a xlink:href="classpolyfem_1_1solver_1_1_n_l_homo_problem.html#ac44e7ce8ded5567323b96c062c6feeca" target="_top" xlink:title=" ">
<polygon fill="white" stroke="#666666" points="183,-546 0,-546 0,-516 183,-516 183,-546"/>
<text text-anchor="start" x="8" y="-534" font-family="Helvetica,sans-Serif" font-size="10.00">polyfem::solver::NLHomoProblem</text>
<text text-anchor="middle" x="91.5" y="-523" font-family="Helvetica,sans-Serif" font-size="10.00">::full_hessian_to_reduced_hessian</text>
</a>
</g>
</g>
<!-- Node1&#45;&gt;Node4 -->
<g id="edge9_Node000001_Node000004" class="edge">
<title>Node1&#45;&gt;Node4</title>
<g id="a_edge9_Node000001_Node000004"><a xlink:title=" ">
<path fill="none" stroke="#63b8ff" d="M1199.09,-546.9C1179.54,-580.44 1139.01,-640.44 1086,-668 963.89,-731.49 915.63,-700 778,-700 778,-700 778,-700 542.5,-700 368.5,-700 179.43,-587.9 115.26,-546.3"/>
<polygon fill="#63b8ff" stroke="#63b8ff" points="1202.14,-548.62 1204.04,-538.19 1196.05,-545.16 1202.14,-548.62"/>
</a>
</g>
</g>
<!-- Node5 -->
<g id="Node000005" class="node">
<title>Node5</title>
<g id="a_Node000005"><a xlink:href="classpolyfem_1_1solver_1_1_n_l_homo_problem.html#a73562e3b3e33fbe58a0adc12ab502ba5" target="_top" xlink:title=" ">
<polygon fill="white" stroke="#666666" points="1086,-361 904,-361 904,-331 1086,-331 1086,-361"/>
<text text-anchor="start" x="912" y="-349" font-family="Helvetica,sans-Serif" font-size="10.00">polyfem::solver::NLHomoProblem</text>
<text text-anchor="middle" x="995" y="-338" font-family="Helvetica,sans-Serif" font-size="10.00">::extended_to_reduced</text>
</a>
</g>
</g>
<!-- Node1&#45;&gt;Node5 -->
<g id="edge6_Node000001_Node000005" class="edge">
<title>Node1&#45;&gt;Node5</title>
<g id="a_edge6_Node000001_Node000005"><a xlink:title=" ">
<path fill="none" stroke="#63b8ff" d="M1198.78,-498.93C1178.84,-464.94 1137.86,-403.33 1086,-370 1080.69,-366.59 1074.92,-363.66 1068.93,-361.15"/>
<polygon fill="#63b8ff" stroke="#63b8ff" points="1195.82,-500.8 1203.83,-507.74 1201.89,-497.32 1195.82,-500.8"/>
</a>
</g>
</g>
<!-- Node6 -->
<g id="Node000006" class="node">
<title>Node6</title>
<g id="a_Node000006"><a xlink:href="classpolyfem_1_1solver_1_1_n_l_homo_problem.html#a501bf7f34cf1ade117d2fa27c5acd5e1" target="_top" xlink:title=" ">
<polygon fill="white" stroke="#666666" points="1086,-586 904,-586 904,-556 1086,-556 1086,-586"/>
<text text-anchor="start" x="912" y="-574" font-family="Helvetica,sans-Serif" font-size="10.00">polyfem::solver::NLHomoProblem</text>
<text text-anchor="middle" x="995" y="-563" font-family="Helvetica,sans-Serif" font-size="10.00">::extended_to_reduced_grad</text>
</a>
</g>
</g>
<!-- Node1&#45;&gt;Node6 -->
<g id="edge7_Node000001_Node000006" class="edge">
<title>Node1&#45;&gt;Node6</title>
<g id="a_edge7_Node000001_Node000006"><a xlink:title=" ">
<path fill="none" stroke="#63b8ff" d="M1134.45,-540.23C1111.25,-545.39 1086.01,-551 1063.51,-556"/>
<polygon fill="#63b8ff" stroke="#63b8ff" points="1135.25,-543.64 1144.25,-538.06 1133.73,-536.81 1135.25,-543.64"/>
</a>
</g>
</g>
<!-- Node8 -->
<g id="Node000008" class="node">
<title>Node8</title>
<g id="a_Node000008"><a xlink:href="classpolyfem_1_1solver_1_1_n_l_homo_problem.html#abecf10f4e71ac82a7116d65a55e06b8a" target="_top" xlink:title=" ">
<polygon fill="white" stroke="#666666" points="1086,-313 904,-313 904,-283 1086,-283 1086,-313"/>
<text text-anchor="start" x="912" y="-301" font-family="Helvetica,sans-Serif" font-size="10.00">polyfem::solver::NLHomoProblem</text>
<text text-anchor="middle" x="995" y="-290" font-family="Helvetica,sans-Serif" font-size="10.00">::full_to_reduced</text>
</a>
</g>
</g>
<!-- Node1&#45;&gt;Node8 -->
<g id="edge10_Node000001_Node000008" class="edge">
<title>Node1&#45;&gt;Node8</title>
<g id="a_edge10_Node000001_Node000008"><a xlink:title=" ">
<path fill="none" stroke="#63b8ff" d="M1203.48,-498.35C1187.43,-455.68 1148.61,-368.2 1086,-322 1081.32,-318.54 1076.17,-315.58 1070.78,-313.05"/>
<polygon fill="#63b8ff" stroke="#63b8ff" points="1200.26,-499.75 1206.98,-507.94 1206.84,-497.35 1200.26,-499.75"/>
</a>
</g>
</g>
<!-- Node9 -->
<g id="Node000009" class="node">
<title>Node9</title>
<g id="a_Node000009"><a xlink:href="classpolyfem_1_1solver_1_1_n_l_homo_problem.html#ac32a7f01595e989dbc6ece262ade6320" target="_top" xlink:title=" ">
<polygon fill="white" stroke="#666666" points="1086,-634 904,-634 904,-604 1086,-604 1086,-634"/>
<text text-anchor="start" x="912" y="-622" font-family="Helvetica,sans-Serif" font-size="10.00">polyfem::solver::NLHomoProblem</text>
<text text-anchor="middle" x="995" y="-611" font-family="Helvetica,sans-Serif" font-size="10.00">::full_to_reduced_grad</text>
</a>
</g>
</g>
<!-- Node1&#45;&gt;Node9 -->
<g id="edge11_Node000001_Node000009" class="edge">
<title>Node1&#45;&gt;Node9</title>
<g id="a_edge11_Node000001_Node000009"><a xlink:title=" ">
<path fill="none" stroke="#63b8ff" d="M1181.08,-543.69C1156.25,-559.55 1120.04,-581.01 1086,-595 1077.92,-598.32 1069.25,-601.31 1060.59,-603.95"/>
<polygon fill="#63b8ff" stroke="#63b8ff" points="1183.19,-546.5 1189.69,-538.13 1179.39,-540.62 1183.19,-546.5"/>
</a>
</g>
</g>
<!-- Node10 -->
<g id="Node000010" class="node">
<title>Node10</title>
<g id="a_Node000010"><a xlink:href="classpolyfem_1_1solver_1_1_n_l_homo_problem.html#a11d7079fa4b26333dc94af34e3509958" target="_top" xlink:title=" ">
<polygon fill="white" stroke="#666666" points="1086,-265 904,-265 904,-235 1086,-235 1086,-265"/>
<text text-anchor="start" x="912" y="-253" font-family="Helvetica,sans-Serif" font-size="10.00">polyfem::solver::NLHomoProblem</text>
<text text-anchor="middle" x="995" y="-242" font-family="Helvetica,sans-Serif" font-size="10.00">::reduced_to_disp_grad</text>
</a>
</g>
</g>
<!-- Node1&#45;&gt;Node10 -->
<g id="edge13_Node000001_Node000010" class="edge">
<title>Node1&#45;&gt;Node10</title>
<g id="a_edge13_Node000001_Node000010"><a xlink:title=" ">
<path fill="none" stroke="#63b8ff" d="M1206.57,-497.96C1194.3,-447.59 1159.62,-333.71 1086,-274 1081.73,-270.54 1077.01,-267.57 1072.03,-265.03"/>
<polygon fill="#63b8ff" stroke="#63b8ff" points="1203.22,-499.04 1208.91,-507.98 1210.04,-497.44 1203.22,-499.04"/>
</a>
</g>
</g>
<!-- Node11 -->
<g id="Node000011" class="node">
<title>Node11</title>
<g id="a_Node000011"><a xlink:href="classpolyfem_1_1solver_1_1_n_l_homo_problem.html#a696594a4192e8185ba8e3f5e636a1529" target="_top" xlink:title=" ">
<polygon fill="white" stroke="#666666" points="1086,-409 904,-409 904,-379 1086,-379 1086,-409"/>
<text text-anchor="start" x="912" y="-397" font-family="Helvetica,sans-Serif" font-size="10.00">polyfem::solver::NLHomoProblem</text>
<text text-anchor="middle" x="995" y="-386" font-family="Helvetica,sans-Serif" font-size="10.00">::reduced_to_extended</text>
</a>
</g>
</g>
<!-- Node1&#45;&gt;Node11 -->
<g id="edge14_Node000001_Node000011" class="edge">
<title>Node1&#45;&gt;Node11</title>
<g id="a_edge14_Node000001_Node000011"><a xlink:title=" ">
<path fill="none" stroke="#63b8ff" d="M1178.01,-502.7C1134.54,-476.74 1060.23,-432.36 1021.37,-409.15"/>
<polygon fill="#63b8ff" stroke="#63b8ff" points="1176.42,-505.83 1186.8,-507.95 1180.01,-499.82 1176.42,-505.83"/>
</a>
</g>
</g>
<!-- Node23 -->
<g id="Node000023" class="node">
<title>Node23</title>
<g id="a_Node000023"><a xlink:href="classpolyfem_1_1solver_1_1_n_l_homo_problem.html#a6bb50791c0b7f0b2a0a38ad157bcd44f" target="_top" xlink:title=" ">
<polygon fill="white" stroke="#666666" points="1086,-538 904,-538 904,-508 1086,-508 1086,-538"/>
<text text-anchor="start" x="912" y="-526" font-family="Helvetica,sans-Serif" font-size="10.00">polyfem::solver::NLHomoProblem</text>
<text text-anchor="middle" x="995" y="-515" font-family="Helvetica,sans-Serif" font-size="10.00">::reduced_to_full</text>
</a>
</g>
</g>
<!-- Node1&#45;&gt;Node23 -->
<g id="edge30_Node000001_Node000023" class="edge">
<title>Node1&#45;&gt;Node23</title>
<g id="a_edge30_Node000001_Node000023"><a xlink:title=" ">
<path fill="none" stroke="#63b8ff" d="M1111.94,-523C1103.37,-523 1094.73,-523 1086.24,-523"/>
<polygon fill="#63b8ff" stroke="#63b8ff" points="1111.96,-526.5 1121.96,-523 1111.96,-519.5 1111.96,-526.5"/>
</a>
</g>
</g>
<!-- Node3 -->
<g id="Node000003" class="node">
<title>Node3</title>
<g id="a_Node000003"><a xlink:href="classpolyfem_1_1solver_1_1_n_l_homo_problem.html#a5e3f4af52886a65b33b45467f1a84bf2" target="_top" xlink:title=" ">
<polygon fill="white" stroke="#666666" points="401,-546 219,-546 219,-516 401,-516 401,-546"/>
<text text-anchor="start" x="227" y="-534" font-family="Helvetica,sans-Serif" font-size="10.00">polyfem::solver::NLHomoProblem</text>
<text text-anchor="middle" x="310" y="-523" font-family="Helvetica,sans-Serif" font-size="10.00">::hessian</text>
</a>
</g>
</g>
<!-- Node2&#45;&gt;Node3 -->
<g id="edge2_Node000002_Node000003" class="edge">
<title>Node2&#45;&gt;Node3</title>
<g id="a_edge2_Node000002_Node000003"><a xlink:title=" ">
<path fill="none" stroke="#63b8ff" d="M426.83,-531C418.23,-531 409.63,-531 401.21,-531"/>
<polygon fill="#63b8ff" stroke="#63b8ff" points="426.91,-534.5 436.91,-531 426.91,-527.5 426.91,-534.5"/>
</a>
</g>
</g>
<!-- Node3&#45;&gt;Node3 -->
<g id="edge5_Node000003_Node000003" class="edge">
<title>Node3&#45;&gt;Node3</title>
<g id="a_edge5_Node000003_Node000003"><a xlink:title=" ">
<path fill="none" stroke="#63b8ff" d="M348.16,-556.6C342.94,-560.97 330.22,-564 310,-564 275.94,-564 263.16,-555.41 271.68,-546.28"/>
<polygon fill="#63b8ff" stroke="#63b8ff" points="351.66,-556.33 348.32,-546.28 344.66,-556.22 351.66,-556.33"/>
</a>
</g>
</g>
<!-- Node3&#45;&gt;Node4 -->
<g id="edge3_Node000003_Node000004" class="edge">
<title>Node3&#45;&gt;Node4</title>
<g id="a_edge3_Node000003_Node000004"><a xlink:title=" ">
<path fill="none" stroke="#63b8ff" d="M208.53,-524.27C200.11,-524.23 191.64,-524.25 183.3,-524.33"/>
<polygon fill="#63b8ff" stroke="#63b8ff" points="208.73,-527.77 218.75,-524.33 208.78,-520.77 208.73,-527.77"/>
</a>
</g>
</g>
<!-- Node4&#45;&gt;Node3 -->
<g id="edge4_Node000004_Node000003" class="edge">
<title>Node4&#45;&gt;Node3</title>
<g id="a_edge4_Node000004_Node000003"><a xlink:title=" ">
<path fill="none" stroke="#63b8ff" d="M193.52,-537.74C201.94,-537.77 210.42,-537.74 218.75,-537.67"/>
<polygon fill="#63b8ff" stroke="#63b8ff" points="193.32,-534.24 183.3,-537.67 193.28,-541.24 193.32,-534.24"/>
</a>
</g>
</g>
<!-- Node7 -->
<g id="Node000007" class="node">
<title>Node7</title>
<g id="a_Node000007"><a xlink:href="classpolyfem_1_1solver_1_1_n_l_homo_problem.html#a15a652e39aa9bab4335f7f0b13fc93b4" target="_top" xlink:title=" ">
<polygon fill="white" stroke="#666666" points="868,-634 686,-634 686,-604 868,-604 868,-634"/>
<text text-anchor="start" x="694" y="-622" font-family="Helvetica,sans-Serif" font-size="10.00">polyfem::solver::NLHomoProblem</text>
<text text-anchor="middle" x="777" y="-611" font-family="Helvetica,sans-Serif" font-size="10.00">::gradient</text>
</a>
</g>
</g>
<!-- Node6&#45;&gt;Node7 -->
<g id="edge8_Node000006_Node000007" class="edge">
<title>Node6&#45;&gt;Node7</title>
<g id="a_edge8_Node000006_Node000007"><a xlink:title=" ">
<path fill="none" stroke="#63b8ff" d="M916.45,-588.23C893.25,-593.39 868.01,-599 845.51,-604"/>
<polygon fill="#63b8ff" stroke="#63b8ff" points="917.25,-591.64 926.25,-586.06 915.73,-584.81 917.25,-591.64"/>
</a>
</g>
</g>
<!-- Node9&#45;&gt;Node7 -->
<g id="edge12_Node000009_Node000007" class="edge">
<title>Node9&#45;&gt;Node7</title>
<g id="a_edge12_Node000009_Node000007"><a xlink:title=" ">
<path fill="none" stroke="#63b8ff" d="M893.94,-619C885.37,-619 876.73,-619 868.24,-619"/>
<polygon fill="#63b8ff" stroke="#63b8ff" points="893.96,-622.5 903.96,-619 893.96,-615.5 893.96,-622.5"/>
</a>
</g>
</g>
<!-- Node11&#45;&gt;Node3 -->
<g id="edge16_Node000011_Node000003" class="edge">
<title>Node11&#45;&gt;Node3</title>
<g id="a_edge16_Node000011_Node000003"><a xlink:title=" ">
<path fill="none" stroke="#63b8ff" d="M893.35,-394.06C832.81,-395.61 754.47,-400.31 686,-413 559,-436.54 414.83,-489.76 348.29,-515.92"/>
<polygon fill="#63b8ff" stroke="#63b8ff" points="893.76,-397.55 903.67,-393.82 893.59,-390.55 893.76,-397.55"/>
</a>
</g>
</g>
<!-- Node11&#45;&gt;Node7 -->
<g id="edge15_Node000011_Node000007" class="edge">
<title>Node11&#45;&gt;Node7</title>
<g id="a_edge15_Node000011_Node000007"><a xlink:title=" ">
<path fill="none" stroke="#63b8ff" d="M973.03,-416.4C954.08,-437.11 925.89,-469.11 904,-499 886.08,-523.48 888.94,-535.04 868,-557 849.8,-576.09 824.83,-592.73 805.81,-603.95"/>
<polygon fill="#63b8ff" stroke="#63b8ff" points="975.61,-418.77 979.81,-409.04 970.46,-414.03 975.61,-418.77"/>
</a>
</g>
</g>
<!-- Node12 -->
<g id="Node000012" class="node">
<title>Node12</title>
<g id="a_Node000012"><a xlink:href="classpolyfem_1_1solver_1_1_n_l_homo_problem.html#a1772048087ff9430a848af89980a9781" target="_top" xlink:title=" ">
<polygon fill="white" stroke="#666666" points="868,-452 686,-452 686,-422 868,-422 868,-452"/>
<text text-anchor="start" x="694" y="-440" font-family="Helvetica,sans-Serif" font-size="10.00">polyfem::solver::NLHomoProblem</text>
<text text-anchor="middle" x="777" y="-429" font-family="Helvetica,sans-Serif" font-size="10.00">::init</text>
</a>
</g>
</g>
<!-- Node11&#45;&gt;Node12 -->
<g id="edge17_Node000011_Node000012" class="edge">
<title>Node11&#45;&gt;Node12</title>
<g id="a_edge17_Node000011_Node000012"><a xlink:title=" ">
<path fill="none" stroke="#63b8ff" d="M908.47,-411.03C890.31,-414.64 871.26,-418.43 853.5,-421.97"/>
<polygon fill="#63b8ff" stroke="#63b8ff" points="909.33,-414.42 918.45,-409.04 907.96,-407.56 909.33,-414.42"/>
</a>
</g>
</g>
<!-- Node13 -->
<g id="Node000013" class="node">
<title>Node13</title>
<g id="a_Node000013"><a xlink:href="classpolyfem_1_1solver_1_1_n_l_homo_problem.html#a5eb2f0780a60152acd9c0b15c450d2c1" target="_top" xlink:title=" ">
<polygon fill="white" stroke="#666666" points="868,-126 686,-126 686,-96 868,-96 868,-126"/>
<text text-anchor="start" x="694" y="-114" font-family="Helvetica,sans-Serif" font-size="10.00">polyfem::solver::NLHomoProblem</text>
<text text-anchor="middle" x="777" y="-103" font-family="Helvetica,sans-Serif" font-size="10.00">::init_lagging</text>
</a>
</g>
</g>
<!-- Node11&#45;&gt;Node13 -->
<g id="edge18_Node000011_Node000013" class="edge">
<title>Node11&#45;&gt;Node13</title>
<g id="a_edge18_Node000011_Node000013"><a xlink:title=" ">
<path fill="none" stroke="#63b8ff" d="M906.34,-372.44C905.54,-371.66 904.76,-370.84 904,-370 833.45,-291.34 938.55,-213.66 868,-135 864.98,-131.63 861.54,-128.71 857.81,-126.18"/>
<polygon fill="#63b8ff" stroke="#63b8ff" points="904.22,-375.23 914.19,-378.82 908.64,-369.8 904.22,-375.23"/>
</a>
</g>
</g>
<!-- Node14 -->
<g id="Node000014" class="node">
<title>Node14</title>
<g id="a_Node000014"><a xlink:href="classpolyfem_1_1solver_1_1_n_l_homo_problem.html#ade83502450ecf454e4c9c357682ffec9" target="_top" xlink:title=" ">
<polygon fill="white" stroke="#666666" points="868,-78 686,-78 686,-48 868,-48 868,-78"/>
<text text-anchor="start" x="694" y="-66" font-family="Helvetica,sans-Serif" font-size="10.00">polyfem::solver::NLHomoProblem</text>
<text text-anchor="middle" x="777" y="-55" font-family="Helvetica,sans-Serif" font-size="10.00">::is_step_collision_free</text>
</a>
</g>
</g>
<!-- Node11&#45;&gt;Node14 -->
<g id="edge19_Node000011_Node000014" class="edge">
<title>Node11&#45;&gt;Node14</title>
<g id="a_edge19_Node000011_Node000014"><a xlink:title=" ">
<path fill="none" stroke="#63b8ff" d="M906.31,-372.47C905.52,-371.68 904.75,-370.85 904,-370 820.55,-274.54 951.45,-182.46 868,-87 865.02,-83.59 861.62,-80.64 857.91,-78.09"/>
<polygon fill="#63b8ff" stroke="#63b8ff" points="904.15,-375.23 914.09,-378.91 908.62,-369.84 904.15,-375.23"/>
</a>
</g>
</g>
<!-- Node15 -->
<g id="Node000015" class="node">
<title>Node15</title>
<g id="a_Node000015"><a xlink:href="classpolyfem_1_1solver_1_1_n_l_homo_problem.html#a3b5299575ac322d1e45a92421f4110d9" target="_top" xlink:title=" ">
<polygon fill="white" stroke="#666666" points="868,-30 686,-30 686,0 868,0 868,-30"/>
<text text-anchor="start" x="694" y="-18" font-family="Helvetica,sans-Serif" font-size="10.00">polyfem::solver::NLHomoProblem</text>
<text text-anchor="middle" x="777" y="-7" font-family="Helvetica,sans-Serif" font-size="10.00">::is_step_valid</text>
</a>
</g>
</g>
<!-- Node11&#45;&gt;Node15 -->
<g id="edge20_Node000011_Node000015" class="edge">
<title>Node11&#45;&gt;Node15</title>
<g id="a_edge20_Node000011_Node000015"><a xlink:title=" ">
<path fill="none" stroke="#63b8ff" d="M906.29,-372.49C905.5,-371.69 904.74,-370.86 904,-370 807.63,-257.71 964.37,-151.29 868,-39 865.05,-35.56 861.67,-32.59 857.99,-30.03"/>
<polygon fill="#63b8ff" stroke="#63b8ff" points="904.1,-375.22 914.01,-378.97 908.6,-369.86 904.1,-375.22"/>
</a>
</g>
</g>
<!-- Node16 -->
<g id="Node000016" class="node">
<title>Node16</title>
<g id="a_Node000016"><a xlink:href="classpolyfem_1_1solver_1_1_n_l_homo_problem.html#a45fcd44dd32605e1ac32c2bb4ef7b8b0" target="_top" xlink:title=" ">
<polygon fill="white" stroke="#666666" points="868,-366 686,-366 686,-336 868,-336 868,-366"/>
<text text-anchor="start" x="694" y="-354" font-family="Helvetica,sans-Serif" font-size="10.00">polyfem::solver::NLHomoProblem</text>
<text text-anchor="middle" x="777" y="-343" font-family="Helvetica,sans-Serif" font-size="10.00">::line_search_begin</text>
</a>
</g>
</g>
<!-- Node11&#45;&gt;Node16 -->
<g id="edge21_Node000011_Node000016" class="edge">
<title>Node11&#45;&gt;Node16</title>
<g id="a_edge21_Node000011_Node000016"><a xlink:title=" ">
<path fill="none" stroke="#63b8ff" d="M908.47,-376.97C890.31,-373.36 871.26,-369.57 853.5,-366.03"/>
<polygon fill="#63b8ff" stroke="#63b8ff" points="907.96,-380.44 918.45,-378.96 909.33,-373.58 907.96,-380.44"/>
</a>
</g>
</g>
<!-- Node17 -->
<g id="Node000017" class="node">
<title>Node17</title>
<g id="a_Node000017"><a xlink:href="classpolyfem_1_1solver_1_1_n_l_homo_problem.html#acde48882af5829300308ebd2bfa20baf" target="_top" xlink:title=" ">
<polygon fill="white" stroke="#666666" points="868,-318 686,-318 686,-288 868,-288 868,-318"/>
<text text-anchor="start" x="694" y="-306" font-family="Helvetica,sans-Serif" font-size="10.00">polyfem::solver::NLHomoProblem</text>
<text text-anchor="middle" x="777" y="-295" font-family="Helvetica,sans-Serif" font-size="10.00">::max_step_size</text>
</a>
</g>
</g>
<!-- Node11&#45;&gt;Node17 -->
<g id="edge22_Node000011_Node000017" class="edge">
<title>Node11&#45;&gt;Node17</title>
<g id="a_edge22_Node000011_Node000017"><a xlink:title=" ">
<path fill="none" stroke="#63b8ff" d="M912.24,-374.71C909.4,-373.25 906.64,-371.68 904,-370 882.98,-356.61 889.02,-340.39 868,-327 862.54,-323.52 856.6,-320.55 850.44,-318"/>
<polygon fill="#63b8ff" stroke="#63b8ff" points="911.01,-377.99 921.56,-379 913.94,-371.63 911.01,-377.99"/>
</a>
</g>
</g>
<!-- Node18 -->
<g id="Node000018" class="node">
<title>Node18</title>
<g id="a_Node000018"><a xlink:href="classpolyfem_1_1solver_1_1_n_l_homo_problem.html#a18efdbd0eeb565b15f5a02ba95f8a659" target="_top" xlink:title=" ">
<polygon fill="white" stroke="#666666" points="868,-548 686,-548 686,-518 868,-518 868,-548"/>
<text text-anchor="start" x="694" y="-536" font-family="Helvetica,sans-Serif" font-size="10.00">polyfem::solver::NLHomoProblem</text>
<text text-anchor="middle" x="777" y="-525" font-family="Helvetica,sans-Serif" font-size="10.00">::post_step</text>
</a>
</g>
</g>
<!-- Node11&#45;&gt;Node18 -->
<g id="edge23_Node000011_Node000018" class="edge">
<title>Node11&#45;&gt;Node18</title>
<g id="a_edge23_Node000011_Node000018"><a xlink:title=" ">
<path fill="none" stroke="#63b8ff" d="M974.98,-417.04C952.2,-443.15 911.62,-485.16 868,-509 861.76,-512.41 855,-515.36 848.09,-517.9"/>
<polygon fill="#63b8ff" stroke="#63b8ff" points="977.88,-419.04 981.73,-409.17 972.57,-414.48 977.88,-419.04"/>
</a>
</g>
</g>
<!-- Node19 -->
<g id="Node000019" class="node">
<title>Node19</title>
<g id="a_Node000019"><a xlink:href="classpolyfem_1_1solver_1_1_n_l_homo_problem.html#aca48c42741c791242e5dcd7564260244" target="_top" xlink:title=" ">
<polygon fill="white" stroke="#666666" points="868,-270 686,-270 686,-240 868,-240 868,-270"/>
<text text-anchor="start" x="694" y="-258" font-family="Helvetica,sans-Serif" font-size="10.00">polyfem::solver::NLHomoProblem</text>
<text text-anchor="middle" x="777" y="-247" font-family="Helvetica,sans-Serif" font-size="10.00">::solution_changed</text>
</a>
</g>
</g>
<!-- Node11&#45;&gt;Node19 -->
<g id="edge24_Node000011_Node000019" class="edge">
<title>Node11&#45;&gt;Node19</title>
<g id="a_edge24_Node000011_Node000019"><a xlink:title=" ">
<path fill="none" stroke="#63b8ff" d="M908.14,-373.38C906.71,-372.31 905.33,-371.18 904,-370 871.51,-341.08 900.49,-307.92 868,-279 864.13,-275.56 859.83,-272.6 855.25,-270.07"/>
<polygon fill="#63b8ff" stroke="#63b8ff" points="906.44,-376.45 916.75,-378.93 910.24,-370.57 906.44,-376.45"/>
</a>
</g>
</g>
<!-- Node20 -->
<g id="Node000020" class="node">
<title>Node20</title>
<g id="a_Node000020"><a xlink:href="classpolyfem_1_1solver_1_1_n_l_homo_problem.html#ae75ffb2ac52ed388db2b5b265896020d" target="_top" xlink:title=" ">
<polygon fill="white" stroke="#666666" points="868,-222 686,-222 686,-192 868,-192 868,-222"/>
<text text-anchor="start" x="694" y="-210" font-family="Helvetica,sans-Serif" font-size="10.00">polyfem::solver::NLHomoProblem</text>
<text text-anchor="middle" x="777" y="-199" font-family="Helvetica,sans-Serif" font-size="10.00">::update_lagging</text>
</a>
</g>
</g>
<!-- Node11&#45;&gt;Node20 -->
<g id="edge25_Node000011_Node000020" class="edge">
<title>Node11&#45;&gt;Node20</title>
<g id="a_edge25_Node000011_Node000020"><a xlink:title=" ">
<path fill="none" stroke="#63b8ff" d="M906.98,-372.79C905.96,-371.9 904.96,-370.97 904,-370 859.04,-324.71 912.96,-276.29 868,-231 864.58,-227.56 860.73,-224.59 856.59,-222.04"/>
<polygon fill="#63b8ff" stroke="#63b8ff" points="905.27,-375.88 915.41,-378.96 909.41,-370.23 905.27,-375.88"/>
</a>
</g>
</g>
<!-- Node21 -->
<g id="Node000021" class="node">
<title>Node21</title>
<g id="a_Node000021"><a xlink:href="classpolyfem_1_1solver_1_1_n_l_homo_problem.html#a46147775ad1afd221f278daba8f12816" target="_top" xlink:title=" ">
<polygon fill="white" stroke="#666666" points="868,-174 686,-174 686,-144 868,-144 868,-174"/>
<text text-anchor="start" x="694" y="-162" font-family="Helvetica,sans-Serif" font-size="10.00">polyfem::solver::NLHomoProblem</text>
<text text-anchor="middle" x="777" y="-151" font-family="Helvetica,sans-Serif" font-size="10.00">::update_quantities</text>
</a>
</g>
</g>
<!-- Node11&#45;&gt;Node21 -->
<g id="edge26_Node000011_Node000021" class="edge">
<title>Node11&#45;&gt;Node21</title>
<g id="a_edge26_Node000011_Node000021"><a xlink:title=" ">
<path fill="none" stroke="#63b8ff" d="M906.8,-372.78C905.83,-371.89 904.9,-370.96 904,-370 846.3,-308.08 925.7,-244.92 868,-183 864.8,-179.57 861.17,-176.61 857.26,-174.05"/>
<polygon fill="#63b8ff" stroke="#63b8ff" points="904.7,-375.59 914.74,-378.95 908.99,-370.05 904.7,-375.59"/>
</a>
</g>
</g>
<!-- Node22 -->
<g id="Node000022" class="node">
<title>Node22</title>
<g id="a_Node000022"><a xlink:href="classpolyfem_1_1solver_1_1_n_l_homo_problem.html#abc939f7fb7319e0f358c778e72e211bd" target="_top" xlink:title=" ">
<polygon fill="white" stroke="#666666" points="868,-500 686,-500 686,-470 868,-470 868,-500"/>
<text text-anchor="start" x="694" y="-488" font-family="Helvetica,sans-Serif" font-size="10.00">polyfem::solver::NLHomoProblem</text>
<text text-anchor="middle" x="777" y="-477" font-family="Helvetica,sans-Serif" font-size="10.00">::value</text>
</a>
</g>
</g>
<!-- Node11&#45;&gt;Node22 -->
<g id="edge27_Node000011_Node000022" class="edge">
<title>Node11&#45;&gt;Node22</title>
<g id="a_edge27_Node000011_Node000022"><a xlink:title=" ">
<path fill="none" stroke="#63b8ff" d="M961.03,-414.21C936.17,-428.78 900.86,-448.08 868,-461 859.72,-464.25 850.85,-467.22 842.01,-469.87"/>
<polygon fill="#63b8ff" stroke="#63b8ff" points="962.88,-417.19 969.7,-409.08 959.31,-411.17 962.88,-417.19"/>
</a>
</g>
</g>
<!-- Node22&#45;&gt;Node2 -->
<g id="edge28_Node000022_Node000002" class="edge">
<title>Node22&#45;&gt;Node2</title>
<g id="a_edge28_Node000022_Node000002"><a xlink:title=" ">
<path fill="none" stroke="#63b8ff" d="M690.12,-502.07C667.13,-506.63 642.46,-511.53 620.08,-515.98"/>
<polygon fill="#63b8ff" stroke="#63b8ff" points="691.07,-505.44 700.2,-500.06 689.71,-498.58 691.07,-505.44"/>
</a>
</g>
</g>
<!-- Node22&#45;&gt;Node4 -->
<g id="edge29_Node000022_Node000004" class="edge">
<title>Node22&#45;&gt;Node4</title>
<g id="a_edge29_Node000022_Node000004"><a xlink:title=" ">
<path fill="none" stroke="#63b8ff" d="M675.72,-484.51C563.94,-484.99 377.98,-488.88 219,-507 200.23,-509.14 180.07,-512.48 161.48,-516"/>
<polygon fill="#63b8ff" stroke="#63b8ff" points="675.98,-488 685.97,-484.47 675.96,-481 675.98,-488"/>
</a>
</g>
</g>
<!-- Node23&#45;&gt;Node3 -->
<g id="edge32_Node000023_Node000003" class="edge">
<title>Node23&#45;&gt;Node3</title>
<g id="a_edge32_Node000023_Node000003"><a xlink:title=" ">
<path fill="none" stroke="#63b8ff" d="M927.65,-540.61C919.68,-542.75 911.65,-544.92 904,-547 887.98,-551.36 884.45,-554.76 868,-557 836.05,-561.35 463.83,-557.64 437,-555 417.61,-553.09 396.75,-549.68 377.7,-546.02"/>
<polygon fill="#63b8ff" stroke="#63b8ff" points="928.57,-543.99 937.32,-538.02 926.76,-537.23 928.57,-543.99"/>
</a>
</g>
</g>
<!-- Node23&#45;&gt;Node7 -->
<g id="edge31_Node000023_Node000007" class="edge">
<title>Node23&#45;&gt;Node7</title>
<g id="a_edge31_Node000023_Node000007"><a xlink:title=" ">
<path fill="none" stroke="#63b8ff" d="M912.24,-542.29C909.4,-543.75 906.64,-545.32 904,-547 882.98,-560.39 888.67,-576.08 868,-590 859.69,-595.59 850.24,-600.17 840.65,-603.89"/>
<polygon fill="#63b8ff" stroke="#63b8ff" points="913.94,-545.37 921.56,-538 911.01,-539.01 913.94,-545.37"/>
</a>
</g>
</g>
<!-- Node23&#45;&gt;Node12 -->
<g id="edge33_Node000023_Node000012" class="edge">
<title>Node23&#45;&gt;Node12</title>
<g id="a_edge33_Node000023_Node000012"><a xlink:title=" ">
<path fill="none" stroke="#63b8ff" d="M958.14,-503C933.38,-489.77 899.37,-472.77 868,-461 859.37,-457.76 850.12,-454.78 840.96,-452.09"/>
<polygon fill="#63b8ff" stroke="#63b8ff" points="956.7,-506.19 967.16,-507.86 960.02,-500.03 956.7,-506.19"/>
</a>
</g>
</g>
<!-- Node23&#45;&gt;Node18 -->
<g id="edge34_Node000023_Node000018" class="edge">
<title>Node23&#45;&gt;Node18</title>
<g id="a_edge34_Node000023_Node000018"><a xlink:title=" ">
<path fill="none" stroke="#63b8ff" d="M893.94,-527.63C885.37,-528.03 876.73,-528.43 868.24,-528.82"/>
<polygon fill="#63b8ff" stroke="#63b8ff" points="894.13,-531.13 903.96,-527.17 893.81,-524.13 894.13,-531.13"/>
</a>
</g>
</g>
<!-- Node23&#45;&gt;Node22 -->
<g id="edge35_Node000023_Node000022" class="edge">
<title>Node23&#45;&gt;Node22</title>
<g id="a_edge35_Node000023_Node000022"><a xlink:title=" ">
<path fill="none" stroke="#63b8ff" d="M898.45,-506.19C886.8,-504.14 874.95,-502.06 863.46,-500.03"/>
<polygon fill="#63b8ff" stroke="#63b8ff" points="898.18,-509.7 908.63,-507.98 899.39,-502.8 898.18,-509.7"/>
</a>
</g>
</g>
</g>
</svg>

<g id="navigator" transform="translate(0 0)" fill="#404254">
  <rect fill="#f2f5e9" fill-opacity="0.5" stroke="#606060" stroke-width=".5" x="0" y="0" width="60" height="60"/>
  <use id="zoomplus" xlink:href="#zoomPlus" x="17" y="9" onmousedown="handleZoom(evt,'in')"/>
  <use id="zoomminus" xlink:href="#zoomMin" x="42" y="9" onmousedown="handleZoom(evt,'out')"/>
  <use id="reset" xlink:href="#resetDef" x="30" y="36" onmousedown="handleReset()"/>
   <use id="arrowup" xlink:href="#arrowUp" x="0" y="0" onmousedown="handlePan(0,-1)"/>
  <use id="arrowright" xlink:href="#arrowRight" x="0" y="0" onmousedown="handlePan(1,0)"/>
  <use id="arrowdown" xlink:href="#arrowDown" x="0" y="0" onmousedown="handlePan(0,1)"/>
  <use id="arrowleft" xlink:href="#arrowLeft" x="0" y="0" onmousedown="handlePan(-1,0)"/>
</g>
<svg viewBox="0 0 15 15" width="100%" height="30px" preserveAspectRatio="xMaxYMin meet">
 <g id="arrow_out" transform="scale(0.3 0.3)">
  <a xlink:href="classpolyfem_1_1solver_1_1_n_l_homo_problem_a1f527a0e82a799800a62ad499a23d872_icgraph_org.svg" target="_base">
   <rect id="button" ry="5" rx="5" y="6" x="6" height="38" width="38"
        fill="#f2f5e9" fill-opacity="0.5" stroke="#606060" stroke-width="1.0"/>
   <path id="arrow"
     d="M 11.500037,31.436501 C 11.940474,20.09759 22.043105,11.32322 32.158766,21.979434 L 37.068811,17.246167 C 37.068811,17.246167 37.088388,32 37.088388,32 L 22.160133,31.978069 C 22.160133,31.978069 26.997745,27.140456 26.997745,27.140456 C 18.528582,18.264221 13.291696,25.230495 11.500037,31.436501 z"
     style="fill:#404040;"/>
  </a>
 </g>
</svg>

<style type='text/css'>
<![CDATA[
[data-mouse-over-selected='false'] { opacity: 0.7; }
[data-mouse-over-selected='true']  { opacity: 1.0; }
]]>
</style>
<script type="application/ecmascript"><![CDATA[
document.addEventListener('DOMContentLoaded', (event) => {
  highlightEdges();
  highlightAdjacentNodes();
});
]]></script>
</svg>
