<?xml version="1.0" encoding="UTF-8" standalone="no"?>
<!DOCTYPE svg PUBLIC "-//W3C//DTD SVG 1.1//EN"
 "http://www.w3.org/Graphics/SVG/1.1/DTD/svg11.dtd">
<!-- Generated by graphviz version 2.43.0 (0)
 -->
<!-- Title: polyfem::varform::FluidVarForm::output_fields Pages: 1 -->
<svg width="683pt" height="248pt"
 viewBox="0.00 0.00 683.00 248.00" xmlns="http://www.w3.org/2000/svg" xmlns:xlink="http://www.w3.org/1999/xlink">
<g id="graph0" class="graph" transform="scale(1 1) rotate(0) translate(4 244)">
<title>polyfem::varform::FluidVarForm::output_fields</title>
<!-- Node1 -->
<g id="Node000001" class="node">
<title>Node1</title>
<g id="a_Node000001"><a xlink:title="Get the output fields of the variational formulation, for output purposes.">
<polygon fill="#999999" stroke="#666666" points="148,-144 0,-144 0,-114 148,-114 148,-144"/>
<text text-anchor="start" x="8" y="-132" font-family="Helvetica,sans-Serif" font-size="10.00">polyfem::varform::FluidVar</text>
<text text-anchor="middle" x="74" y="-121" font-family="Helvetica,sans-Serif" font-size="10.00">Form::output_fields</text>
</a>
</g>
</g>
<!-- Node2 -->
<g id="Node000002" class="node">
<title>Node2</title>
<g id="a_Node000002"><a xlink:href="classpolyfem_1_1varform_1_1_f_e_space.html#acc9ee6edbb0096c23e3763f09a24fde1" target="_top" xlink:title=" ">
<polygon fill="white" stroke="#666666" points="333,-240 184,-240 184,-210 333,-210 333,-240"/>
<text text-anchor="start" x="192" y="-228" font-family="Helvetica,sans-Serif" font-size="10.00">polyfem::varform::FESpace</text>
<text text-anchor="middle" x="258.5" y="-217" font-family="Helvetica,sans-Serif" font-size="10.00">::basis_list</text>
</a>
</g>
</g>
<!-- Node1&#45;&gt;Node2 -->
<g id="edge1_Node000001_Node000002" class="edge">
<title>Node1&#45;&gt;Node2</title>
<g id="a_edge1_Node000001_Node000002"><a xlink:title=" ">
<path fill="none" stroke="#63b8ff" d="M94.52,-144.24C115.62,-160.14 150.71,-184.93 184,-201 187.81,-202.84 191.79,-204.59 195.85,-206.24"/>
<polygon fill="#63b8ff" stroke="#63b8ff" points="194.82,-209.59 205.41,-209.93 197.34,-203.06 194.82,-209.59"/>
</a>
</g>
</g>
<!-- Node3 -->
<g id="Node000003" class="node">
<title>Node3</title>
<g id="a_Node000003"><a xlink:href="structpolyfem_1_1io_1_1_output_field_options.html#a058c3a304f31879ba21d1720d48c3be6" target="_top" xlink:title=" ">
<polygon fill="white" stroke="#666666" points="325.5,-192 191.5,-192 191.5,-162 325.5,-162 325.5,-192"/>
<text text-anchor="start" x="199.5" y="-180" font-family="Helvetica,sans-Serif" font-size="10.00">polyfem::io::OutputField</text>
<text text-anchor="middle" x="258.5" y="-169" font-family="Helvetica,sans-Serif" font-size="10.00">Options::export_field</text>
</a>
</g>
</g>
<!-- Node1&#45;&gt;Node3 -->
<g id="edge2_Node000001_Node000003" class="edge">
<title>Node1&#45;&gt;Node3</title>
<g id="a_edge2_Node000001_Node000003"><a xlink:title=" ">
<path fill="none" stroke="#63b8ff" d="M132.24,-144.06C150.76,-148.93 171.45,-154.37 190.61,-159.41"/>
<polygon fill="#63b8ff" stroke="#63b8ff" points="189.9,-162.84 200.46,-162 191.68,-156.07 189.9,-162.84"/>
</a>
</g>
</g>
<!-- Node4 -->
<g id="Node000004" class="node">
<title>Node4</title>
<g id="a_Node000004"><a xlink:href="classpolyfem_1_1varform_1_1_f_e_space.html#a03a5faa5d5d2e98710d92b68a6d70301" target="_top" xlink:title=" ">
<polygon fill="white" stroke="#666666" points="333,-144 184,-144 184,-114 333,-114 333,-144"/>
<text text-anchor="start" x="192" y="-132" font-family="Helvetica,sans-Serif" font-size="10.00">polyfem::varform::FESpace</text>
<text text-anchor="middle" x="258.5" y="-121" font-family="Helvetica,sans-Serif" font-size="10.00">::geometry_basis_list</text>
</a>
</g>
</g>
<!-- Node1&#45;&gt;Node4 -->
<g id="edge3_Node000001_Node000004" class="edge">
<title>Node1&#45;&gt;Node4</title>
<g id="a_edge3_Node000001_Node000004"><a xlink:title=" ">
<path fill="none" stroke="#63b8ff" d="M148.18,-129C156.5,-129 165.03,-129 173.47,-129"/>
<polygon fill="#63b8ff" stroke="#63b8ff" points="173.71,-132.5 183.71,-129 173.71,-125.5 173.71,-132.5"/>
</a>
</g>
</g>
<!-- Node5 -->
<g id="Node000005" class="node">
<title>Node5</title>
<g id="a_Node000005"><a xlink:href="classpolyfem_1_1io_1_1_evaluator.html#a37193c8a31244f89fc4586d18101a033" target="_top" xlink:title="interpolate solution and gradient at element (calls interpolate_at_local_vals with sol)">
<polygon fill="white" stroke="#666666" points="331,-78 186,-78 186,-48 331,-48 331,-78"/>
<text text-anchor="start" x="194" y="-66" font-family="Helvetica,sans-Serif" font-size="10.00">polyfem::io::Evaluator</text>
<text text-anchor="middle" x="258.5" y="-55" font-family="Helvetica,sans-Serif" font-size="10.00">::interpolate_at_local_vals</text>
</a>
</g>
</g>
<!-- Node1&#45;&gt;Node5 -->
<g id="edge4_Node000001_Node000005" class="edge">
<title>Node1&#45;&gt;Node5</title>
<g id="a_edge4_Node000001_Node000005"><a xlink:title=" ">
<path fill="none" stroke="#63b8ff" d="M116.87,-113.86C143.42,-104.26 177.94,-91.77 206.14,-81.57"/>
<polygon fill="#63b8ff" stroke="#63b8ff" points="207.61,-84.76 215.83,-78.07 205.23,-78.18 207.61,-84.76"/>
</a>
</g>
</g>
<!-- Node8 -->
<g id="Node000008" class="node">
<title>Node8</title>
<g id="a_Node000008"><a xlink:href="classpolyfem_1_1varform_1_1_fluid_var_form.html#a795641aecb60fe8ee5c0cda17e52bda2" target="_top" xlink:title=" ">
<polygon fill="white" stroke="#666666" points="332.5,-30 184.5,-30 184.5,0 332.5,0 332.5,-30"/>
<text text-anchor="start" x="192.5" y="-18" font-family="Helvetica,sans-Serif" font-size="10.00">polyfem::varform::FluidVar</text>
<text text-anchor="middle" x="258.5" y="-7" font-family="Helvetica,sans-Serif" font-size="10.00">Form::split_solution</text>
</a>
</g>
</g>
<!-- Node1&#45;&gt;Node8 -->
<g id="edge8_Node000001_Node000008" class="edge">
<title>Node1&#45;&gt;Node8</title>
<g id="a_edge8_Node000001_Node000008"><a xlink:title=" ">
<path fill="none" stroke="#63b8ff" d="M89.53,-113.89C109.25,-94.16 146.37,-59.7 184,-39 187.25,-37.21 190.65,-35.53 194.14,-33.95"/>
<polygon fill="#63b8ff" stroke="#63b8ff" points="195.65,-37.12 203.52,-30.02 192.94,-30.66 195.65,-37.12"/>
</a>
</g>
</g>
<!-- Node5&#45;&gt;Node5 -->
<g id="edge7_Node000005_Node000005" class="edge">
<title>Node5&#45;&gt;Node5</title>
<g id="a_edge7_Node000005_Node000005"><a xlink:title=" ">
<path fill="none" stroke="#63b8ff" d="M226.16,-78.28C218.97,-87.41 229.75,-96 258.5,-96 275.57,-96 286.31,-92.97 290.71,-88.6"/>
<polygon fill="#63b8ff" stroke="#63b8ff" points="294.21,-88.32 290.84,-78.28 287.21,-88.23 294.21,-88.32"/>
</a>
</g>
</g>
<!-- Node6 -->
<g id="Node000006" class="node">
<title>Node6</title>
<g id="a_Node000006"><a xlink:href="classpolyfem_1_1mesh_1_1_mesh.html#aadc9bb68805f0a4c0209bee9160c9fc6" target="_top" xlink:title="utily for dimension">
<polygon fill="white" stroke="#666666" points="504,-78 382,-78 382,-48 504,-48 504,-78"/>
<text text-anchor="start" x="390" y="-66" font-family="Helvetica,sans-Serif" font-size="10.00">polyfem::mesh::Mesh</text>
<text text-anchor="middle" x="443" y="-55" font-family="Helvetica,sans-Serif" font-size="10.00">::dimension</text>
</a>
</g>
</g>
<!-- Node5&#45;&gt;Node6 -->
<g id="edge5_Node000005_Node000006" class="edge">
<title>Node5&#45;&gt;Node6</title>
<g id="a_edge5_Node000005_Node000006"><a xlink:title=" ">
<path fill="none" stroke="#63b8ff" d="M331.11,-63C344.47,-63 358.43,-63 371.76,-63"/>
<polygon fill="#63b8ff" stroke="#63b8ff" points="371.81,-66.5 381.81,-63 371.81,-59.5 371.81,-66.5"/>
</a>
</g>
</g>
<!-- Node7 -->
<g id="Node000007" class="node">
<title>Node7</title>
<g id="a_Node000007"><a xlink:href="classpolyfem_1_1mesh_1_1_mesh.html#a93c9ea4759ded33a8f25ff157033cfd9" target="_top" xlink:title="checks if mesh is volume">
<polygon fill="white" stroke="#666666" points="675,-78 553,-78 553,-48 675,-48 675,-78"/>
<text text-anchor="start" x="561" y="-66" font-family="Helvetica,sans-Serif" font-size="10.00">polyfem::mesh::Mesh</text>
<text text-anchor="middle" x="614" y="-55" font-family="Helvetica,sans-Serif" font-size="10.00">::is_volume</text>
</a>
</g>
</g>
<!-- Node6&#45;&gt;Node7 -->
<g id="edge6_Node000006_Node000007" class="edge">
<title>Node6&#45;&gt;Node7</title>
<g id="a_edge6_Node000006_Node000007"><a xlink:title=" ">
<path fill="none" stroke="#63b8ff" d="M504.06,-63C516.56,-63 529.84,-63 542.68,-63"/>
<polygon fill="#63b8ff" stroke="#63b8ff" points="542.85,-66.5 552.85,-63 542.85,-59.5 542.85,-66.5"/>
</a>
</g>
</g>
<!-- Node9 -->
<g id="Node000009" class="node">
<title>Node9</title>
<g id="a_Node000009"><a xlink:href="classpolyfem_1_1varform_1_1_fluid_var_form.html#a530a41e073f0aaa2263ccc5307205542" target="_top" xlink:title=" ">
<polygon fill="white" stroke="#666666" points="517,-30 369,-30 369,0 517,0 517,-30"/>
<text text-anchor="start" x="377" y="-18" font-family="Helvetica,sans-Serif" font-size="10.00">polyfem::varform::FluidVar</text>
<text text-anchor="middle" x="443" y="-7" font-family="Helvetica,sans-Serif" font-size="10.00">Form::primary_ndof</text>
</a>
</g>
</g>
<!-- Node8&#45;&gt;Node9 -->
<g id="edge9_Node000008_Node000009" class="edge">
<title>Node8&#45;&gt;Node9</title>
<g id="a_edge9_Node000008_Node000009"><a xlink:title=" ">
<path fill="none" stroke="#63b8ff" d="M332.68,-15C341.23,-15 350,-15 358.68,-15"/>
<polygon fill="#63b8ff" stroke="#63b8ff" points="358.81,-18.5 368.81,-15 358.81,-11.5 358.81,-18.5"/>
</a>
</g>
</g>
</g>
</svg>
