<?xml version="1.0" encoding="UTF-8" standalone="no"?>
<!DOCTYPE svg PUBLIC "-//W3C//DTD SVG 1.1//EN"
 "http://www.w3.org/Graphics/SVG/1.1/DTD/svg11.dtd">
<!-- Generated by graphviz version 2.43.0 (0)
 -->
<!-- Title: polyfem::utils::Timer::getElapsedTimeInSec Pages: 1 -->
<svg width="601pt" height="61pt"
 viewBox="0.00 0.00 601.00 61.00" xmlns="http://www.w3.org/2000/svg" xmlns:xlink="http://www.w3.org/1999/xlink">
<g id="graph0" class="graph" transform="scale(1 1) rotate(0) translate(4 57)">
<title>polyfem::utils::Timer::getElapsedTimeInSec</title>
<!-- Node1 -->
<g id="node1" class="node">
<title>Node1</title>
<g id="a_node1"><a xlink:title=" ">
<polygon fill="#bfbfbf" stroke="black" points="465,-0.5 465,-30.5 593,-30.5 593,-0.5 465,-0.5"/>
<text text-anchor="start" x="473" y="-18.5" font-family="Helvetica,sans-Serif" font-size="10.00">polyfem::utils::Timer</text>
<text text-anchor="middle" x="529" y="-7.5" font-family="Helvetica,sans-Serif" font-size="10.00">::getElapsedTimeInSec</text>
</a>
</g>
</g>
<!-- Node2 -->
<g id="node2" class="node">
<title>Node2</title>
<g id="a_node2"><a xlink:href="classpolyfem_1_1utils_1_1_timer.html#aca96b23c274fcdc240e6770ce4462492" target="_top" xlink:title=" ">
<polygon fill="none" stroke="black" points="310,-22.5 310,-52.5 429,-52.5 429,-22.5 310,-22.5"/>
<text text-anchor="start" x="318" y="-40.5" font-family="Helvetica,sans-Serif" font-size="10.00">polyfem::utils::Timer</text>
<text text-anchor="middle" x="369.5" y="-29.5" font-family="Helvetica,sans-Serif" font-size="10.00">::log_msg</text>
</a>
</g>
</g>
<!-- Node1&#45;&gt;Node2 -->
<g id="edge1" class="edge">
<title>Node1&#45;&gt;Node2</title>
<path fill="none" stroke="midnightblue" d="M454.79,-25.73C446.17,-26.93 437.46,-28.15 429.07,-29.32"/>
<polygon fill="midnightblue" stroke="midnightblue" points="455.43,-29.17 464.85,-24.32 454.46,-22.24 455.43,-29.17"/>
</g>
<!-- Node3 -->
<g id="node3" class="node">
<title>Node3</title>
<g id="a_node3"><a xlink:href="classpolyfem_1_1utils_1_1_timer.html#a63a21e271660a8fdb06117a933d56ce8" target="_top" xlink:title=" ">
<polygon fill="none" stroke="black" points="155,-0.5 155,-30.5 274,-30.5 274,-0.5 155,-0.5"/>
<text text-anchor="start" x="163" y="-18.5" font-family="Helvetica,sans-Serif" font-size="10.00">polyfem::utils::Timer</text>
<text text-anchor="middle" x="214.5" y="-7.5" font-family="Helvetica,sans-Serif" font-size="10.00">::stop</text>
</a>
</g>
</g>
<!-- Node1&#45;&gt;Node3 -->
<g id="edge4" class="edge">
<title>Node1&#45;&gt;Node3</title>
<path fill="none" stroke="midnightblue" d="M454.75,-13.85C446.07,-13.71 437.34,-13.58 429,-13.5 376.11,-12.97 362.89,-12.94 310,-13.5 298.43,-13.62 286.07,-13.83 274.22,-14.06"/>
<polygon fill="midnightblue" stroke="midnightblue" points="454.83,-17.36 464.89,-14.03 454.96,-10.36 454.83,-17.36"/>
</g>
<!-- Node2&#45;&gt;Node3 -->
<g id="edge2" class="edge">
<title>Node2&#45;&gt;Node3</title>
<path fill="none" stroke="midnightblue" d="M299.79,-27.62C291.2,-26.38 282.47,-25.13 274.06,-23.92"/>
<polygon fill="midnightblue" stroke="midnightblue" points="299.39,-31.1 309.78,-29.06 300.38,-24.17 299.39,-31.1"/>
</g>
<!-- Node4 -->
<g id="node4" class="node">
<title>Node4</title>
<g id="a_node4"><a xlink:href="classpolyfem_1_1utils_1_1_timer.html#a2f566e08413b0bb9ddf9a3b1819f186e" target="_top" xlink:title=" ">
<polygon fill="none" stroke="black" points="0,-0.5 0,-30.5 119,-30.5 119,-0.5 0,-0.5"/>
<text text-anchor="start" x="8" y="-18.5" font-family="Helvetica,sans-Serif" font-size="10.00">polyfem::utils::Timer</text>
<text text-anchor="middle" x="59.5" y="-7.5" font-family="Helvetica,sans-Serif" font-size="10.00">::~Timer</text>
</a>
</g>
</g>
<!-- Node3&#45;&gt;Node4 -->
<g id="edge3" class="edge">
<title>Node3&#45;&gt;Node4</title>
<path fill="none" stroke="midnightblue" d="M144.51,-15.5C136.01,-15.5 127.38,-15.5 119.06,-15.5"/>
<polygon fill="midnightblue" stroke="midnightblue" points="144.78,-19 154.78,-15.5 144.78,-12 144.78,-19"/>
</g>
</g>
</svg>
