<?xml version="1.0" encoding="UTF-8" standalone="no"?>
<!DOCTYPE svg PUBLIC "-//W3C//DTD SVG 1.1//EN"
 "http://www.w3.org/Graphics/SVG/1.1/DTD/svg11.dtd">
<!-- Generated by graphviz version 2.43.0 (0)
 -->
<!-- Title: polyfem::solver::AMIPSForm Pages: 1 -->
<!--zoomable 421 -->

<svg id="main" version="1.1" xmlns="http://www.w3.org/2000/svg" xmlns:xlink="http://www.w3.org/1999/xlink" xml:space="preserve" onload="init(evt)">
<style type="text/css"><![CDATA[
.node, .edge {opacity: 0.7;}
.node.selected, .edge.selected {opacity: 1;}
.edge:hover path { stroke: red; }
.edge:hover polygon { stroke: red; fill: red; }
]]></style>

<defs>
  <circle id="rim" cx="0" cy="0" r="7"/>
  <circle id="rim2" cx="0" cy="0" r="3.5"/>
  <g id="zoomPlus">
    <use xlink:href="#rim" fill="#404040"><set attributeName="fill" to="#808080" begin="zoomplus.mouseover" end="zoomplus.mouseout"/></use>
    <path d="M-4,0h8M0,-4v8" fill="none" stroke="white" stroke-width="1.5" pointer-events="none"/>
  </g>
  <g id="zoomMin">
    <use xlink:href="#rim" fill="#404040"><set attributeName="fill" to="#808080" begin="zoomminus.mouseover" end="zoomminus.mouseout"/></use>
    <path d="M-4,0h8" fill="none" stroke="white" stroke-width="1.5" pointer-events="none"/>
  </g>
  <g id="arrowUp" transform="translate(30 24)">
    <use xlink:href="#rim"/>
    <path pointer-events="none" fill="none" stroke="white" stroke-width="1.5" d="M0,-3.0v7 M-2.5,-0.5L0,-3.0L2.5,-0.5"/>
  </g>
  <g id="arrowRight" transform="rotate(90) translate(36 -43)">
    <use xlink:href="#rim"/>
    <path pointer-events="none" fill="none" stroke="white" stroke-width="1.5" d="M0,-3.0v7 M-2.5,-0.5L0,-3.0L2.5,-0.5"/>
  </g>
  <g id="arrowDown" transform="rotate(180) translate(-30 -48)">
    <use xlink:href="#rim"/>
    <path pointer-events="none" fill="none" stroke="white" stroke-width="1.5" d="M0,-3.0v7 M-2.5,-0.5L0,-3.0L2.5,-0.5"/>
  </g>
  <g id="arrowLeft" transform="rotate(270) translate(-36 17)">
    <use xlink:href="#rim"/>
    <path pointer-events="none" fill="none" stroke="white" stroke-width="1.5" d="M0,-3.0v7 M-2.5,-0.5L0,-3.0L2.5,-0.5"/>
  </g>
  <g id="resetDef">
    <use xlink:href="#rim2" fill="#404040"><set attributeName="fill" to="#808080" begin="reset.mouseover" end="reset.mouseout"/></use>
  </g>
</defs>
<script type="application/ecmascript">
var viewWidth = 1011;
var viewHeight = 421;
var sectionId = 'dynsection-1';
</script>
<script type="application/ecmascript" xlink:href="svg.min.js"/>
<svg id="graph" class="graph">
<g id="viewport">
<title>polyfem::solver::AMIPSForm</title>
<!-- Node1 -->
<g id="Node000001" class="node">
<title>Node1</title>
<g id="a_Node000001"><a xlink:title=" ">
<polygon fill="#999999" stroke="#666666" points="1003,-326 848,-326 848,-307 1003,-307 1003,-326"/>
<text text-anchor="middle" x="925.5" y="-314" font-family="Helvetica,sans-Serif" font-size="10.00">polyfem::solver::AMIPSForm</text>
</a>
</g>
</g>
<!-- Node2 -->
<g id="Node000002" class="node">
<title>Node2</title>
<g id="a_Node000002"><a xlink:href="classpolyfem_1_1solver_1_1_form.html" target="_top" xlink:title=" ">
<polygon fill="white" stroke="#666666" points="436.5,-413 312.5,-413 312.5,-394 436.5,-394 436.5,-413"/>
<text text-anchor="middle" x="374.5" y="-401" font-family="Helvetica,sans-Serif" font-size="10.00">polyfem::solver::Form</text>
</a>
</g>
</g>
<!-- Node2&#45;&gt;Node1 -->
<g id="edge1_Node000001_Node000002" class="edge">
<title>Node2&#45;&gt;Node1</title>
<g id="a_edge1_Node000001_Node000002"><a xlink:title=" ">
<path fill="none" stroke="#63b8ff" d="M446.92,-405.09C528.23,-405.31 664.49,-400.85 778,-373.5 824.96,-362.18 877.02,-339.27 904.67,-326.2"/>
<polygon fill="#63b8ff" stroke="#63b8ff" points="446.81,-401.59 436.79,-405.03 446.78,-408.59 446.81,-401.59"/>
</a>
</g>
</g>
<!-- Node3 -->
<g id="Node000003" class="node">
<title>Node3</title>
<g id="a_Node000003"><a xlink:href="classpolyfem_1_1solver_1_1_adjoint_form.html" target="_top" xlink:title=" ">
<polygon fill="white" stroke="#666666" points="778,-364 620,-364 620,-345 778,-345 778,-364"/>
<text text-anchor="middle" x="699" y="-352" font-family="Helvetica,sans-Serif" font-size="10.00">polyfem::solver::AdjointForm</text>
</a>
</g>
</g>
<!-- Node2&#45;&gt;Node3 -->
<g id="edge3_Node000003_Node000002" class="edge">
<title>Node2&#45;&gt;Node3</title>
<g id="a_edge3_Node000003_Node000002"><a xlink:title=" ">
<path fill="none" stroke="#63b8ff" d="M446.46,-392.72C502.9,-384.14 581.12,-372.26 635.29,-364.03"/>
<polygon fill="#63b8ff" stroke="#63b8ff" points="445.9,-389.26 436.54,-394.23 446.95,-396.18 445.9,-389.26"/>
</a>
</g>
</g>
<!-- Node3&#45;&gt;Node1 -->
<g id="edge2_Node000001_Node000003" class="edge">
<title>Node3&#45;&gt;Node1</title>
<g id="a_edge2_Node000001_Node000003"><a xlink:title=" ">
<path fill="none" stroke="#63b8ff" d="M766.62,-343.22C798.92,-337.76 837.29,-331.26 868.12,-326.04"/>
<polygon fill="#63b8ff" stroke="#63b8ff" points="765.64,-339.84 756.36,-344.96 766.8,-346.74 765.64,-339.84"/>
</a>
</g>
</g>
<!-- Node4 -->
<g id="Node000004" class="node">
<title>Node4</title>
<g id="a_Node000004"><a xlink:href="classpolyfem_1_1solver_1_1_variable_to_simulation_group.html" target="_top" xlink:title="A collection of VariableToSimulation.">
<polygon fill="white" stroke="#666666" points="444,-371.5 305,-371.5 305,-341.5 444,-341.5 444,-371.5"/>
<text text-anchor="start" x="313" y="-359.5" font-family="Helvetica,sans-Serif" font-size="10.00">polyfem::solver::Variable</text>
<text text-anchor="middle" x="374.5" y="-348.5" font-family="Helvetica,sans-Serif" font-size="10.00">ToSimulationGroup</text>
</a>
</g>
</g>
<!-- Node4&#45;&gt;Node3 -->
<g id="edge4_Node000003_Node000004" class="edge">
<title>Node4&#45;&gt;Node3</title>
<g id="a_edge4_Node000003_Node000004"><a xlink:title=" ">
<path fill="none" stroke="#9a32cd" stroke-dasharray="5,2" d="M454.19,-355.68C461.56,-355.61 468.92,-355.55 476,-355.5 523.79,-355.15 577.37,-354.91 619.92,-354.75"/>
<polygon fill="#9a32cd" stroke="#9a32cd" points="454.13,-352.18 444.16,-355.77 454.19,-359.18 454.13,-352.18"/>
</a>
</g>
<text text-anchor="middle" x="539" y="-358.5" font-family="Helvetica,sans-Serif" font-size="10.00" fill="grey"> variable_to_simulations_</text>
</g>
<!-- Node5 -->
<g id="Node000005" class="node">
<title>Node5</title>
<g id="a_Node000005"><a xlink:href="classpolyfem_1_1_state.html" target="_top" xlink:title="main class that contains the polyfem solver and all its state">
<polygon fill="white" stroke="#666666" points="743.5,-166 654.5,-166 654.5,-147 743.5,-147 743.5,-166"/>
<text text-anchor="middle" x="699" y="-154" font-family="Helvetica,sans-Serif" font-size="10.00">polyfem::State</text>
</a>
</g>
</g>
<!-- Node5&#45;&gt;Node1 -->
<g id="edge5_Node000001_Node000005" class="edge">
<title>Node5&#45;&gt;Node1</title>
<g id="a_edge5_Node000001_Node000005"><a xlink:title=" ">
<path fill="none" stroke="#9a32cd" stroke-dasharray="5,2" d="M721.71,-171.98C767.6,-204.68 873.31,-280.02 910.92,-306.82"/>
<polygon fill="#9a32cd" stroke="#9a32cd" points="723.55,-168.98 713.37,-166.03 719.48,-174.68 723.55,-168.98"/>
</a>
</g>
<text text-anchor="middle" x="813" y="-248.5" font-family="Helvetica,sans-Serif" font-size="10.00" fill="grey"> state_</text>
</g>
<!-- Node6 -->
<g id="Node000006" class="node">
<title>Node6</title>
<g id="a_Node000006"><a xlink:href="classpolyfem_1_1_units.html" target="_top" xlink:title=" ">
<polygon fill="white" stroke="#666666" points="419,-323 330,-323 330,-304 419,-304 419,-323"/>
<text text-anchor="middle" x="374.5" y="-311" font-family="Helvetica,sans-Serif" font-size="10.00">polyfem::Units</text>
</a>
</g>
</g>
<!-- Node6&#45;&gt;Node5 -->
<g id="edge6_Node000005_Node000006" class="edge">
<title>Node6&#45;&gt;Node5</title>
<g id="a_edge6_Node000005_Node000006"><a xlink:title=" ">
<path fill="none" stroke="#9a32cd" stroke-dasharray="5,2" d="M429.26,-314.3C477.56,-312.74 548.85,-304.58 602,-273.5 648.04,-246.57 681.43,-188.78 693.28,-166.01"/>
<polygon fill="#9a32cd" stroke="#9a32cd" points="428.93,-310.81 419.02,-314.55 429.1,-317.81 428.93,-310.81"/>
</a>
</g>
<text text-anchor="middle" x="539" y="-313.5" font-family="Helvetica,sans-Serif" font-size="10.00" fill="grey"> units</text>
</g>
<!-- Node7 -->
<g id="Node000007" class="node">
<title>Node7</title>
<g id="a_Node000007"><a xlink:href="classpolyfem_1_1assembler_1_1_assembly_vals_cache.html" target="_top" xlink:title="Caches basis evaluation and geometric mapping at every element.">
<polygon fill="white" stroke="#666666" points="435,-273.5 314,-273.5 314,-243.5 435,-243.5 435,-273.5"/>
<text text-anchor="start" x="322" y="-261.5" font-family="Helvetica,sans-Serif" font-size="10.00">polyfem::assembler</text>
<text text-anchor="middle" x="374.5" y="-250.5" font-family="Helvetica,sans-Serif" font-size="10.00">::AssemblyValsCache</text>
</a>
</g>
</g>
<!-- Node7&#45;&gt;Node1 -->
<g id="edge15_Node000001_Node000007" class="edge">
<title>Node7&#45;&gt;Node1</title>
<g id="a_edge15_Node000001_Node000007"><a xlink:title=" ">
<path fill="none" stroke="#9a32cd" stroke-dasharray="5,2" d="M445.24,-266.18C455.55,-267.3 466.05,-268.43 476,-269.5 606.59,-283.49 758.61,-299.33 847.91,-308.58"/>
<polygon fill="#9a32cd" stroke="#9a32cd" points="445.33,-262.66 435.01,-265.06 444.58,-269.62 445.33,-262.66"/>
</a>
</g>
<text text-anchor="middle" x="699" y="-303.5" font-family="Helvetica,sans-Serif" font-size="10.00" fill="grey"> init_ass_vals_cache_</text>
</g>
<!-- Node7&#45;&gt;Node5 -->
<g id="edge7_Node000005_Node000007" class="edge">
<title>Node7&#45;&gt;Node5</title>
<g id="a_edge7_Node000005_Node000007"><a xlink:title=" ">
<path fill="none" stroke="#9a32cd" stroke-dasharray="5,2" d="M428.09,-240.15C443.44,-235.09 460.31,-229.81 476,-225.5 531.32,-210.31 547.39,-215.06 602,-197.5 629.26,-188.73 659.44,-175.17 678.55,-166.07"/>
<polygon fill="#9a32cd" stroke="#9a32cd" points="426.63,-236.95 418.25,-243.43 428.85,-243.59 426.63,-236.95"/>
</a>
</g>
<text text-anchor="middle" x="539" y="-261.5" font-family="Helvetica,sans-Serif" font-size="10.00" fill="grey"> ass_vals_cache</text>
<text text-anchor="middle" x="539" y="-250.5" font-family="Helvetica,sans-Serif" font-size="10.00" fill="grey">mass_ass_vals_cache</text>
<text text-anchor="start" x="485" y="-239.5" font-family="Helvetica,sans-Serif" font-size="10.00" fill="grey">pressure_ass_vals</text>
<text text-anchor="middle" x="539" y="-228.5" font-family="Helvetica,sans-Serif" font-size="10.00" fill="grey">_cache</text>
</g>
<!-- Node8 -->
<g id="Node000008" class="node">
<title>Node8</title>
<g id="a_Node000008"><a xlink:href="classpolyfem_1_1solver_1_1_solve_data.html" target="_top" xlink:title="class to store time stepping data">
<polygon fill="white" stroke="#666666" points="449,-204 300,-204 300,-185 449,-185 449,-204"/>
<text text-anchor="middle" x="374.5" y="-192" font-family="Helvetica,sans-Serif" font-size="10.00">polyfem::solver::SolveData</text>
</a>
</g>
</g>
<!-- Node8&#45;&gt;Node5 -->
<g id="edge8_Node000005_Node000008" class="edge">
<title>Node8&#45;&gt;Node5</title>
<g id="a_edge8_Node000005_Node000008"><a xlink:title=" ">
<path fill="none" stroke="#9a32cd" stroke-dasharray="5,2" d="M459.3,-185.08C502.02,-180.23 554.79,-174.16 602,-168.5 619.01,-166.46 637.71,-164.14 654.04,-162.09"/>
<polygon fill="#9a32cd" stroke="#9a32cd" points="458.76,-181.62 449.22,-186.23 459.55,-188.58 458.76,-181.62"/>
</a>
</g>
<text text-anchor="middle" x="539" y="-185.5" font-family="Helvetica,sans-Serif" font-size="10.00" fill="grey"> solve_data</text>
</g>
<!-- Node9 -->
<g id="Node000009" class="node">
<title>Node9</title>
<g id="a_Node000009"><a xlink:href="classpolyfem_1_1mesh_1_1_obstacle.html" target="_top" xlink:title=" ">
<polygon fill="white" stroke="#666666" points="444,-167 305,-167 305,-148 444,-148 444,-167"/>
<text text-anchor="middle" x="374.5" y="-155" font-family="Helvetica,sans-Serif" font-size="10.00">polyfem::mesh::Obstacle</text>
</a>
</g>
</g>
<!-- Node9&#45;&gt;Node5 -->
<g id="edge9_Node000005_Node000009" class="edge">
<title>Node9&#45;&gt;Node5</title>
<g id="a_edge9_Node000005_Node000009"><a xlink:title=" ">
<path fill="none" stroke="#9a32cd" stroke-dasharray="5,2" d="M454.56,-157.25C517.37,-157.06 602.89,-156.79 654.06,-156.64"/>
<polygon fill="#9a32cd" stroke="#9a32cd" points="454.28,-153.76 444.29,-157.29 454.3,-160.76 454.28,-153.76"/>
</a>
</g>
<text text-anchor="middle" x="539" y="-159.5" font-family="Helvetica,sans-Serif" font-size="10.00" fill="grey"> obstacle</text>
</g>
<!-- Node10 -->
<g id="Node000010" class="node">
<title>Node10</title>
<g id="a_Node000010"><a xlink:href="classpolyfem_1_1io_1_1_out_geometry_data.html" target="_top" xlink:title="Utilies related to export of geometry.">
<polygon fill="white" stroke="#666666" points="458,-130 291,-130 291,-111 458,-111 458,-130"/>
<text text-anchor="middle" x="374.5" y="-118" font-family="Helvetica,sans-Serif" font-size="10.00">polyfem::io::OutGeometryData</text>
</a>
</g>
</g>
<!-- Node10&#45;&gt;Node5 -->
<g id="edge10_Node000005_Node000010" class="edge">
<title>Node10&#45;&gt;Node5</title>
<g id="a_edge10_Node000005_Node000010"><a xlink:title=" ">
<path fill="none" stroke="#9a32cd" stroke-dasharray="5,2" d="M468.19,-127.78C509.26,-131.34 558.1,-136.04 602,-141.5 619.07,-143.62 637.78,-146.44 654.11,-149.05"/>
<polygon fill="#9a32cd" stroke="#9a32cd" points="468.47,-124.29 458.2,-126.92 467.87,-131.26 468.47,-124.29"/>
</a>
</g>
<text text-anchor="middle" x="539" y="-144.5" font-family="Helvetica,sans-Serif" font-size="10.00" fill="grey"> out_geom</text>
</g>
<!-- Node11 -->
<g id="Node000011" class="node">
<title>Node11</title>
<g id="a_Node000011"><a xlink:href="classpolyfem_1_1utils_1_1_ref_element_sampler.html" target="_top" xlink:title=" ">
<polygon fill="white" stroke="#666666" points="147,-135.5 0,-135.5 0,-105.5 147,-105.5 147,-135.5"/>
<text text-anchor="start" x="8" y="-123.5" font-family="Helvetica,sans-Serif" font-size="10.00">polyfem::utils::RefElement</text>
<text text-anchor="middle" x="73.5" y="-112.5" font-family="Helvetica,sans-Serif" font-size="10.00">Sampler</text>
</a>
</g>
</g>
<!-- Node11&#45;&gt;Node10 -->
<g id="edge11_Node000010_Node000011" class="edge">
<title>Node11&#45;&gt;Node10</title>
<g id="a_edge11_Node000010_Node000011"><a xlink:title=" ">
<path fill="none" stroke="#9a32cd" stroke-dasharray="5,2" d="M157.37,-120.5C199,-120.5 249.3,-120.5 290.89,-120.5"/>
<polygon fill="#9a32cd" stroke="#9a32cd" points="157.26,-117 147.26,-120.5 157.26,-124 157.26,-117"/>
</a>
</g>
<text text-anchor="middle" x="219" y="-123.5" font-family="Helvetica,sans-Serif" font-size="10.00" fill="grey"> ref_element_sampler</text>
</g>
<!-- Node12 -->
<g id="Node000012" class="node">
<title>Node12</title>
<g id="a_Node000012"><a xlink:href="classpolyfem_1_1io_1_1_out_runtime_data.html" target="_top" xlink:title="stores all runtime data">
<polygon fill="white" stroke="#666666" points="454.5,-93 294.5,-93 294.5,-74 454.5,-74 454.5,-93"/>
<text text-anchor="middle" x="374.5" y="-81" font-family="Helvetica,sans-Serif" font-size="10.00">polyfem::io::OutRuntimeData</text>
</a>
</g>
</g>
<!-- Node12&#45;&gt;Node5 -->
<g id="edge12_Node000005_Node000012" class="edge">
<title>Node12&#45;&gt;Node5</title>
<g id="a_edge12_Node000005_Node000012"><a xlink:title=" ">
<path fill="none" stroke="#9a32cd" stroke-dasharray="5,2" d="M464.71,-89.32C506.92,-93.58 557.66,-100.92 602,-113.5 630.81,-121.67 662.11,-137.02 680.88,-147"/>
<polygon fill="#9a32cd" stroke="#9a32cd" points="465.02,-85.83 454.73,-88.35 464.35,-92.8 465.02,-85.83"/>
</a>
</g>
<text text-anchor="middle" x="539" y="-116.5" font-family="Helvetica,sans-Serif" font-size="10.00" fill="grey"> timings</text>
</g>
<!-- Node13 -->
<g id="Node000013" class="node">
<title>Node13</title>
<g id="a_Node000013"><a xlink:href="classpolyfem_1_1io_1_1_out_stats_data.html" target="_top" xlink:title="all stats from polyfem">
<polygon fill="white" stroke="#666666" points="446,-56 303,-56 303,-37 446,-37 446,-56"/>
<text text-anchor="middle" x="374.5" y="-44" font-family="Helvetica,sans-Serif" font-size="10.00">polyfem::io::OutStatsData</text>
</a>
</g>
</g>
<!-- Node13&#45;&gt;Node5 -->
<g id="edge13_Node000005_Node000013" class="edge">
<title>Node13&#45;&gt;Node5</title>
<g id="a_edge13_Node000005_Node000013"><a xlink:title=" ">
<path fill="none" stroke="#9a32cd" stroke-dasharray="5,2" d="M456.3,-46.34C500.9,-48.88 556.33,-56.48 602,-76.5 639.95,-93.14 674.71,-129.48 689.92,-146.86"/>
<polygon fill="#9a32cd" stroke="#9a32cd" points="456.25,-42.84 446.09,-45.84 455.9,-49.83 456.25,-42.84"/>
</a>
</g>
<text text-anchor="middle" x="539" y="-79.5" font-family="Helvetica,sans-Serif" font-size="10.00" fill="grey"> stats</text>
</g>
<!-- Node14 -->
<g id="Node000014" class="node">
<title>Node14</title>
<g id="a_Node000014"><a xlink:href="classpolyfem_1_1solver_1_1_diff_cache.html" target="_top" xlink:title=" ">
<polygon fill="white" stroke="#666666" points="447.5,-19 301.5,-19 301.5,0 447.5,0 447.5,-19"/>
<text text-anchor="middle" x="374.5" y="-7" font-family="Helvetica,sans-Serif" font-size="10.00">polyfem::solver::DiffCache</text>
</a>
</g>
</g>
<!-- Node14&#45;&gt;Node5 -->
<g id="edge14_Node000005_Node000014" class="edge">
<title>Node14&#45;&gt;Node5</title>
<g id="a_edge14_Node000005_Node000014"><a xlink:title=" ">
<path fill="none" stroke="#9a32cd" stroke-dasharray="5,2" d="M457.73,-3.07C502.91,-3.13 558.45,-9.32 602,-33.5 650.31,-60.32 682.59,-122.5 693.71,-146.66"/>
<polygon fill="#9a32cd" stroke="#9a32cd" points="457.64,0.43 447.67,-3.16 457.7,-6.57 457.64,0.43"/>
</a>
</g>
<text text-anchor="middle" x="539" y="-36.5" font-family="Helvetica,sans-Serif" font-size="10.00" fill="grey"> diff_cached</text>
</g>
</g>
</svg>

<g id="navigator" transform="translate(0 0)" fill="#404254">
  <rect fill="#f2f5e9" fill-opacity="0.5" stroke="#606060" stroke-width=".5" x="0" y="0" width="60" height="60"/>
  <use id="zoomplus" xlink:href="#zoomPlus" x="17" y="9" onmousedown="handleZoom(evt,'in')"/>
  <use id="zoomminus" xlink:href="#zoomMin" x="42" y="9" onmousedown="handleZoom(evt,'out')"/>
  <use id="reset" xlink:href="#resetDef" x="30" y="36" onmousedown="handleReset()"/>
   <use id="arrowup" xlink:href="#arrowUp" x="0" y="0" onmousedown="handlePan(0,-1)"/>
  <use id="arrowright" xlink:href="#arrowRight" x="0" y="0" onmousedown="handlePan(1,0)"/>
  <use id="arrowdown" xlink:href="#arrowDown" x="0" y="0" onmousedown="handlePan(0,1)"/>
  <use id="arrowleft" xlink:href="#arrowLeft" x="0" y="0" onmousedown="handlePan(-1,0)"/>
</g>
<svg viewBox="0 0 15 15" width="100%" height="30px" preserveAspectRatio="xMaxYMin meet">
 <g id="arrow_out" transform="scale(0.3 0.3)">
  <a xlink:href="classpolyfem_1_1solver_1_1_a_m_i_p_s_form__coll__graph_org.svg" target="_base">
   <rect id="button" ry="5" rx="5" y="6" x="6" height="38" width="38"
        fill="#f2f5e9" fill-opacity="0.5" stroke="#606060" stroke-width="1.0"/>
   <path id="arrow"
     d="M 11.500037,31.436501 C 11.940474,20.09759 22.043105,11.32322 32.158766,21.979434 L 37.068811,17.246167 C 37.068811,17.246167 37.088388,32 37.088388,32 L 22.160133,31.978069 C 22.160133,31.978069 26.997745,27.140456 26.997745,27.140456 C 18.528582,18.264221 13.291696,25.230495 11.500037,31.436501 z"
     style="fill:#404040;"/>
  </a>
 </g>
</svg>

<style type='text/css'>
<![CDATA[
[data-mouse-over-selected='false'] { opacity: 0.7; }
[data-mouse-over-selected='true']  { opacity: 1.0; }
]]>
</style>
<script type="application/ecmascript"><![CDATA[
document.addEventListener('DOMContentLoaded', (event) => {
  highlightEdges();
  highlightAdjacentNodes();
});
]]></script>
</svg>
