<?xml version="1.0" encoding="UTF-8" standalone="no"?>
<!DOCTYPE svg PUBLIC "-//W3C//DTD SVG 1.1//EN"
 "http://www.w3.org/Graphics/SVG/1.1/DTD/svg11.dtd">
<!-- Generated by graphviz version 2.43.0 (0)
 -->
<!-- Title: polyfem::assembler::Assembler::set_materials Pages: 1 -->
<svg width="756pt" height="220pt"
 viewBox="0.00 0.00 756.00 220.00" xmlns="http://www.w3.org/2000/svg" xmlns:xlink="http://www.w3.org/1999/xlink">
<g id="graph0" class="graph" transform="scale(1 1) rotate(0) translate(4 216)">
<title>polyfem::assembler::Assembler::set_materials</title>
<!-- Node1 -->
<g id="Node000001" class="node">
<title>Node1</title>
<g id="a_Node000001"><a xlink:title=" ">
<polygon fill="#999999" stroke="#666666" points="748,-126 601,-126 601,-96 748,-96 748,-126"/>
<text text-anchor="start" x="609" y="-114" font-family="Helvetica,sans-Serif" font-size="10.00">polyfem::assembler</text>
<text text-anchor="middle" x="674.5" y="-103" font-family="Helvetica,sans-Serif" font-size="10.00">::Assembler::set_materials</text>
</a>
</g>
</g>
<!-- Node2 -->
<g id="Node000002" class="node">
<title>Node2</title>
<g id="a_Node000002"><a xlink:href="classpolyfem_1_1varform_1_1_var_form.html#af04e33ce0b02483c6bc601b2713bd3a1" target="_top" xlink:title=" ">
<polygon fill="white" stroke="#666666" points="565,-126 416,-126 416,-96 565,-96 565,-126"/>
<text text-anchor="start" x="424" y="-114" font-family="Helvetica,sans-Serif" font-size="10.00">polyfem::varform::VarForm</text>
<text text-anchor="middle" x="490.5" y="-103" font-family="Helvetica,sans-Serif" font-size="10.00">::set_materials</text>
</a>
</g>
</g>
<!-- Node1&#45;&gt;Node2 -->
<g id="edge1_Node000001_Node000002" class="edge">
<title>Node1&#45;&gt;Node2</title>
<g id="a_edge1_Node000001_Node000002"><a xlink:title=" ">
<path fill="none" stroke="#63b8ff" d="M590.57,-111C582.14,-111 573.61,-111 565.29,-111"/>
<polygon fill="#63b8ff" stroke="#63b8ff" points="590.78,-114.5 600.78,-111 590.78,-107.5 590.78,-114.5"/>
</a>
</g>
</g>
<!-- Node3 -->
<g id="Node000003" class="node">
<title>Node3</title>
<g id="a_Node000003"><a xlink:href="classpolyfem_1_1varform_1_1_bilaplacian_var_form.html#a6911639be138302f3a98b710c74d3816" target="_top" xlink:title=" ">
<polygon fill="white" stroke="#666666" points="380,-212 218,-212 218,-182 380,-182 380,-212"/>
<text text-anchor="start" x="226" y="-200" font-family="Helvetica,sans-Serif" font-size="10.00">polyfem::varform::Bilaplacian</text>
<text text-anchor="middle" x="299" y="-189" font-family="Helvetica,sans-Serif" font-size="10.00">VarForm::load_mesh</text>
</a>
</g>
</g>
<!-- Node2&#45;&gt;Node3 -->
<g id="edge2_Node000002_Node000003" class="edge">
<title>Node2&#45;&gt;Node3</title>
<g id="a_edge2_Node000002_Node000003"><a xlink:title=" ">
<path fill="none" stroke="#63b8ff" d="M454.04,-130.98C432.89,-142.51 405.3,-156.89 380,-168 368.77,-172.93 356.42,-177.71 344.84,-181.92"/>
<polygon fill="#63b8ff" stroke="#63b8ff" points="455.91,-133.95 462.98,-126.06 452.53,-127.81 455.91,-133.95"/>
</a>
</g>
</g>
<!-- Node4 -->
<g id="Node000004" class="node">
<title>Node4</title>
<g id="a_Node000004"><a xlink:href="classpolyfem_1_1varform_1_1_elastic_var_form.html#abb4eb88be19ea156d19344427a4bbef2" target="_top" xlink:title=" ">
<polygon fill="white" stroke="#666666" points="369,-126 229,-126 229,-96 369,-96 369,-126"/>
<text text-anchor="start" x="237" y="-114" font-family="Helvetica,sans-Serif" font-size="10.00">polyfem::varform::Elastic</text>
<text text-anchor="middle" x="299" y="-103" font-family="Helvetica,sans-Serif" font-size="10.00">VarForm::load_mesh</text>
</a>
</g>
</g>
<!-- Node2&#45;&gt;Node4 -->
<g id="edge3_Node000002_Node000004" class="edge">
<title>Node2&#45;&gt;Node4</title>
<g id="a_edge3_Node000002_Node000004"><a xlink:title=" ">
<path fill="none" stroke="#63b8ff" d="M405.76,-111C393.53,-111 381.05,-111 369.15,-111"/>
<polygon fill="#63b8ff" stroke="#63b8ff" points="405.96,-114.5 415.96,-111 405.96,-107.5 405.96,-114.5"/>
</a>
</g>
</g>
<!-- Node5 -->
<g id="Node000005" class="node">
<title>Node5</title>
<g id="a_Node000005"><a xlink:href="classpolyfem_1_1varform_1_1_incompressible_elastic_var_form.html#aae6eeefbb147874ada765e74f35576e3" target="_top" xlink:title=" ">
<polygon fill="white" stroke="#666666" points="182,-169 0,-169 0,-139 182,-139 182,-169"/>
<text text-anchor="start" x="8" y="-157" font-family="Helvetica,sans-Serif" font-size="10.00">polyfem::varform::Incompressible</text>
<text text-anchor="middle" x="91" y="-146" font-family="Helvetica,sans-Serif" font-size="10.00">ElasticVarForm::load_mesh</text>
</a>
</g>
</g>
<!-- Node2&#45;&gt;Node5 -->
<g id="edge7_Node000002_Node000005" class="edge">
<title>Node2&#45;&gt;Node5</title>
<g id="a_edge7_Node000002_Node000005"><a xlink:title=" ">
<path fill="none" stroke="#63b8ff" d="M418.57,-128.17C405.79,-130.8 392.54,-133.22 380,-135 314.14,-144.34 239.14,-149.1 182.19,-151.52"/>
<polygon fill="#63b8ff" stroke="#63b8ff" points="419.63,-131.52 428.69,-126.02 418.18,-124.67 419.63,-131.52"/>
</a>
</g>
</g>
<!-- Node7 -->
<g id="Node000007" class="node">
<title>Node7</title>
<g id="a_Node000007"><a xlink:href="classpolyfem_1_1varform_1_1_fluid_var_form.html#afddeb23cdba7a701866f71d523f0fcf5" target="_top" xlink:title=" ">
<polygon fill="white" stroke="#666666" points="373,-78 225,-78 225,-48 373,-48 373,-78"/>
<text text-anchor="start" x="233" y="-66" font-family="Helvetica,sans-Serif" font-size="10.00">polyfem::varform::FluidVar</text>
<text text-anchor="middle" x="299" y="-55" font-family="Helvetica,sans-Serif" font-size="10.00">Form::load_mesh</text>
</a>
</g>
</g>
<!-- Node2&#45;&gt;Node7 -->
<g id="edge6_Node000002_Node000007" class="edge">
<title>Node2&#45;&gt;Node7</title>
<g id="a_edge6_Node000002_Node000007"><a xlink:title=" ">
<path fill="none" stroke="#63b8ff" d="M420.1,-93.42C400.12,-88.36 378.53,-82.89 359.23,-78"/>
<polygon fill="#63b8ff" stroke="#63b8ff" points="419.51,-96.88 430.06,-95.94 421.23,-90.1 419.51,-96.88"/>
</a>
</g>
</g>
<!-- Node8 -->
<g id="Node000008" class="node">
<title>Node8</title>
<g id="a_Node000008"><a xlink:href="classpolyfem_1_1varform_1_1_scalar_var_form.html#ae83f266fa148eefcff52d19ab5df998b" target="_top" xlink:title=" ">
<polygon fill="white" stroke="#666666" points="368,-30 230,-30 230,0 368,0 368,-30"/>
<text text-anchor="start" x="238" y="-18" font-family="Helvetica,sans-Serif" font-size="10.00">polyfem::varform::Scalar</text>
<text text-anchor="middle" x="299" y="-7" font-family="Helvetica,sans-Serif" font-size="10.00">VarForm::load_mesh</text>
</a>
</g>
</g>
<!-- Node2&#45;&gt;Node8 -->
<g id="edge8_Node000002_Node000008" class="edge">
<title>Node2&#45;&gt;Node8</title>
<g id="a_edge8_Node000002_Node000008"><a xlink:title=" ">
<path fill="none" stroke="#63b8ff" d="M462.07,-89.72C440.69,-73.94 409.72,-52.87 380,-39 372.9,-35.69 365.24,-32.71 357.57,-30.06"/>
<polygon fill="#63b8ff" stroke="#63b8ff" points="460.24,-92.71 470.34,-95.9 464.43,-87.11 460.24,-92.71"/>
</a>
</g>
</g>
<!-- Node4&#45;&gt;Node5 -->
<g id="edge4_Node000004_Node000005" class="edge">
<title>Node4&#45;&gt;Node5</title>
<g id="a_edge4_Node000004_Node000005"><a xlink:title=" ">
<path fill="none" stroke="#63b8ff" d="M218.94,-127.5C200.92,-131.26 181.87,-135.24 164.16,-138.94"/>
<polygon fill="#63b8ff" stroke="#63b8ff" points="219.76,-130.91 228.83,-125.44 218.33,-124.06 219.76,-130.91"/>
</a>
</g>
</g>
<!-- Node6 -->
<g id="Node000006" class="node">
<title>Node6</title>
<g id="a_Node000006"><a xlink:href="classpolyfem_1_1varform_1_1_nonlinear_elastic_var_form.html#abfcc977837501260a166966271fa2a66" target="_top" xlink:title=" ">
<polygon fill="white" stroke="#666666" points="168.5,-121 13.5,-121 13.5,-91 168.5,-91 168.5,-121"/>
<text text-anchor="start" x="21.5" y="-109" font-family="Helvetica,sans-Serif" font-size="10.00">polyfem::varform::Nonlinear</text>
<text text-anchor="middle" x="91" y="-98" font-family="Helvetica,sans-Serif" font-size="10.00">ElasticVarForm::load_mesh</text>
</a>
</g>
</g>
<!-- Node4&#45;&gt;Node6 -->
<g id="edge5_Node000004_Node000006" class="edge">
<title>Node4&#45;&gt;Node6</title>
<g id="a_edge5_Node000004_Node000006"><a xlink:title=" ">
<path fill="none" stroke="#63b8ff" d="M218.75,-109.08C202.34,-108.68 185.09,-108.26 168.78,-107.86"/>
<polygon fill="#63b8ff" stroke="#63b8ff" points="218.75,-112.58 228.83,-109.32 218.92,-105.58 218.75,-112.58"/>
</a>
</g>
</g>
</g>
</svg>
