<?xml version="1.0" encoding="UTF-8" standalone="no"?>
<!DOCTYPE svg PUBLIC "-//W3C//DTD SVG 1.1//EN"
 "http://www.w3.org/Graphics/SVG/1.1/DTD/svg11.dtd">
<!-- Generated by graphviz version 2.43.0 (0)
 -->
<!-- Title: polyfem::varform::LinearElasticVarForm::solve_static_linear Pages: 1 -->
<svg width="736pt" height="270pt"
 viewBox="0.00 0.00 736.00 269.50" xmlns="http://www.w3.org/2000/svg" xmlns:xlink="http://www.w3.org/1999/xlink">
<g id="graph0" class="graph" transform="scale(1 1) rotate(0) translate(4 265.5)">
<title>polyfem::varform::LinearElasticVarForm::solve_static_linear</title>
<!-- Node1 -->
<g id="Node000001" class="node">
<title>Node1</title>
<g id="a_Node000001"><a xlink:title=" ">
<polygon fill="#999999" stroke="#666666" points="138,-124 0,-124 0,-83 138,-83 138,-124"/>
<text text-anchor="start" x="8" y="-112" font-family="Helvetica,sans-Serif" font-size="10.00">polyfem::varform::Linear</text>
<text text-anchor="start" x="8" y="-101" font-family="Helvetica,sans-Serif" font-size="10.00">ElasticVarForm::solve</text>
<text text-anchor="middle" x="69" y="-90" font-family="Helvetica,sans-Serif" font-size="10.00">_static_linear</text>
</a>
</g>
</g>
<!-- Node2 -->
<g id="Node000002" class="node">
<title>Node2</title>
<g id="a_Node000002"><a xlink:href="classpolyfem_1_1varform_1_1_linear_elastic_var_form.html#acddf48ad20a5d060cae644900facd985" target="_top" xlink:title=" ">
<polygon fill="white" stroke="#666666" points="316,-198 178,-198 178,-157 316,-157 316,-198"/>
<text text-anchor="start" x="186" y="-186" font-family="Helvetica,sans-Serif" font-size="10.00">polyfem::varform::Linear</text>
<text text-anchor="start" x="186" y="-175" font-family="Helvetica,sans-Serif" font-size="10.00">ElasticVarForm::build</text>
<text text-anchor="middle" x="247" y="-164" font-family="Helvetica,sans-Serif" font-size="10.00">_stiffness_mat</text>
</a>
</g>
</g>
<!-- Node1&#45;&gt;Node2 -->
<g id="edge1_Node000001_Node000002" class="edge">
<title>Node1&#45;&gt;Node2</title>
<g id="a_edge1_Node000001_Node000002"><a xlink:title=" ">
<path fill="none" stroke="#63b8ff" d="M119.03,-124.11C140.39,-133.09 165.58,-143.69 187.88,-153.06"/>
<polygon fill="#63b8ff" stroke="#63b8ff" points="186.66,-156.35 197.24,-157 189.38,-149.9 186.66,-156.35"/>
</a>
</g>
</g>
<!-- Node5 -->
<g id="Node000005" class="node">
<title>Node5</title>
<g id="a_Node000005"><a xlink:href="namespacepolyfem.html#a03f3d75072d2fd19f70cd886a51d10dd" target="_top" xlink:title="Retrieves the current logger.">
<polygon fill="white" stroke="#666666" points="477.5,-117 383.5,-117 383.5,-98 477.5,-98 477.5,-117"/>
<text text-anchor="middle" x="430.5" y="-105" font-family="Helvetica,sans-Serif" font-size="10.00">polyfem::logger</text>
</a>
</g>
</g>
<!-- Node1&#45;&gt;Node5 -->
<g id="edge9_Node000001_Node000005" class="edge">
<title>Node1&#45;&gt;Node5</title>
<g id="a_edge9_Node000001_Node000005"><a xlink:title=" ">
<path fill="none" stroke="#63b8ff" d="M138.23,-108C150.15,-108.62 162.43,-109.17 174,-109.5 242.45,-111.47 321.25,-110.34 373.03,-109.13"/>
<polygon fill="#63b8ff" stroke="#63b8ff" points="373.42,-112.62 383.33,-108.88 373.25,-105.62 373.42,-112.62"/>
</a>
</g>
</g>
<!-- Node7 -->
<g id="Node000007" class="node">
<title>Node7</title>
<g id="a_Node000007"><a xlink:href="classpolyfem_1_1varform_1_1_elastic_var_form.html#a5a06379a11a9913f6d4bf87db504ae38" target="_top" xlink:title=" ">
<polygon fill="white" stroke="#666666" points="320,-41 174,-41 174,0 320,0 320,-41"/>
<text text-anchor="start" x="182" y="-29" font-family="Helvetica,sans-Serif" font-size="10.00">polyfem::varform::Elastic</text>
<text text-anchor="start" x="182" y="-18" font-family="Helvetica,sans-Serif" font-size="10.00">VarForm::elastic_boundary</text>
<text text-anchor="middle" x="247" y="-7" font-family="Helvetica,sans-Serif" font-size="10.00">_samples</text>
</a>
</g>
</g>
<!-- Node1&#45;&gt;Node7 -->
<g id="edge6_Node000001_Node000007" class="edge">
<title>Node1&#45;&gt;Node7</title>
<g id="a_edge6_Node000001_Node000007"><a xlink:title=" ">
<path fill="none" stroke="#63b8ff" d="M107.6,-82.87C127.18,-72.41 151.63,-59.78 174,-49.5 177.16,-48.05 180.41,-46.6 183.7,-45.16"/>
<polygon fill="#63b8ff" stroke="#63b8ff" points="185.25,-48.3 193.06,-41.15 182.49,-41.87 185.25,-48.3"/>
</a>
</g>
</g>
<!-- Node10 -->
<g id="Node000010" class="node">
<title>Node10</title>
<g id="a_Node000010"><a xlink:href="classpolyfem_1_1varform_1_1_linear_elastic_var_form.html#a4754868eb50362ff8b19c4e2fee1a3ac" target="_top" xlink:title=" ">
<polygon fill="white" stroke="#666666" points="316,-100 178,-100 178,-59 316,-59 316,-100"/>
<text text-anchor="start" x="186" y="-88" font-family="Helvetica,sans-Serif" font-size="10.00">polyfem::varform::Linear</text>
<text text-anchor="start" x="186" y="-77" font-family="Helvetica,sans-Serif" font-size="10.00">ElasticVarForm::solve</text>
<text text-anchor="middle" x="247" y="-66" font-family="Helvetica,sans-Serif" font-size="10.00">_linear_system</text>
</a>
</g>
</g>
<!-- Node1&#45;&gt;Node10 -->
<g id="edge10_Node000001_Node000010" class="edge">
<title>Node1&#45;&gt;Node10</title>
<g id="a_edge10_Node000001_Node000010"><a xlink:title=" ">
<path fill="none" stroke="#63b8ff" d="M138.05,-94.22C147.74,-92.9 157.77,-91.53 167.64,-90.19"/>
<polygon fill="#63b8ff" stroke="#63b8ff" points="168.41,-93.61 177.84,-88.79 167.46,-86.68 168.41,-93.61"/>
</a>
</g>
</g>
<!-- Node3 -->
<g id="Node000003" class="node">
<title>Node3</title>
<g id="a_Node000003"><a xlink:href="classpolyfem_1_1varform_1_1_f_e_space.html#acc9ee6edbb0096c23e3763f09a24fde1" target="_top" xlink:title=" ">
<polygon fill="white" stroke="#666666" points="505,-261.5 356,-261.5 356,-231.5 505,-231.5 505,-261.5"/>
<text text-anchor="start" x="364" y="-249.5" font-family="Helvetica,sans-Serif" font-size="10.00">polyfem::varform::FESpace</text>
<text text-anchor="middle" x="430.5" y="-238.5" font-family="Helvetica,sans-Serif" font-size="10.00">::basis_list</text>
</a>
</g>
</g>
<!-- Node2&#45;&gt;Node3 -->
<g id="edge2_Node000002_Node000003" class="edge">
<title>Node2&#45;&gt;Node3</title>
<g id="a_edge2_Node000002_Node000003"><a xlink:title=" ">
<path fill="none" stroke="#63b8ff" d="M294.99,-198.03C313.83,-206.01 335.81,-215.01 356,-222.5 361.11,-224.4 366.45,-226.3 371.82,-228.15"/>
<polygon fill="#63b8ff" stroke="#63b8ff" points="370.88,-231.52 381.47,-231.42 373.13,-224.89 370.88,-231.52"/>
</a>
</g>
</g>
<!-- Node4 -->
<g id="Node000004" class="node">
<title>Node4</title>
<g id="a_Node000004"><a xlink:href="classpolyfem_1_1varform_1_1_f_e_space.html#a03a5faa5d5d2e98710d92b68a6d70301" target="_top" xlink:title=" ">
<polygon fill="white" stroke="#666666" points="505,-213.5 356,-213.5 356,-183.5 505,-183.5 505,-213.5"/>
<text text-anchor="start" x="364" y="-201.5" font-family="Helvetica,sans-Serif" font-size="10.00">polyfem::varform::FESpace</text>
<text text-anchor="middle" x="430.5" y="-190.5" font-family="Helvetica,sans-Serif" font-size="10.00">::geometry_basis_list</text>
</a>
</g>
</g>
<!-- Node2&#45;&gt;Node4 -->
<g id="edge3_Node000002_Node000004" class="edge">
<title>Node2&#45;&gt;Node4</title>
<g id="a_edge3_Node000002_Node000004"><a xlink:title=" ">
<path fill="none" stroke="#63b8ff" d="M316.1,-185.38C325.73,-186.49 335.72,-187.65 345.61,-188.79"/>
<polygon fill="#63b8ff" stroke="#63b8ff" points="345.52,-192.31 355.85,-189.98 346.32,-185.35 345.52,-192.31"/>
</a>
</g>
</g>
<!-- Node2&#45;&gt;Node5 -->
<g id="edge4_Node000002_Node000005" class="edge">
<title>Node2&#45;&gt;Node5</title>
<g id="a_edge4_Node000002_Node000005"><a xlink:title=" ">
<path fill="none" stroke="#63b8ff" d="M290.52,-156.96C317.74,-143.88 349.2,-128.96 356,-126.5 362.82,-124.03 370.1,-121.75 377.33,-119.69"/>
<polygon fill="#63b8ff" stroke="#63b8ff" points="378.39,-123.02 387.11,-117.01 376.54,-116.27 378.39,-123.02"/>
</a>
</g>
</g>
<!-- Node6 -->
<g id="Node000006" class="node">
<title>Node6</title>
<g id="a_Node000006"><a xlink:href="namespacepolyfem_1_1varform_1_1internal.html#a3d809effc778c166eb1b6a9ccb12eecf" target="_top" xlink:title=" ">
<polygon fill="white" stroke="#666666" points="503.5,-165.5 357.5,-165.5 357.5,-135.5 503.5,-135.5 503.5,-165.5"/>
<text text-anchor="start" x="365.5" y="-153.5" font-family="Helvetica,sans-Serif" font-size="10.00">polyfem::varform::internal</text>
<text text-anchor="middle" x="430.5" y="-142.5" font-family="Helvetica,sans-Serif" font-size="10.00">::write_matrix_market</text>
</a>
</g>
</g>
<!-- Node2&#45;&gt;Node6 -->
<g id="edge5_Node000002_Node000006" class="edge">
<title>Node2&#45;&gt;Node6</title>
<g id="a_edge5_Node000002_Node000006"><a xlink:title=" ">
<path fill="none" stroke="#63b8ff" d="M316.1,-167.37C326.31,-165.85 336.94,-164.27 347.41,-162.71"/>
<polygon fill="#63b8ff" stroke="#63b8ff" points="348,-166.16 357.38,-161.23 346.97,-159.24 348,-166.16"/>
</a>
</g>
</g>
<!-- Node8 -->
<g id="Node000008" class="node">
<title>Node8</title>
<g id="a_Node000008"><a xlink:href="classpolyfem_1_1varform_1_1_var_form.html#ae8bbfbdf13a17857aa2765dd3fee013b" target="_top" xlink:title=" ">
<polygon fill="white" stroke="#666666" points="505,-35.5 356,-35.5 356,-5.5 505,-5.5 505,-35.5"/>
<text text-anchor="start" x="364" y="-23.5" font-family="Helvetica,sans-Serif" font-size="10.00">polyfem::varform::VarForm</text>
<text text-anchor="middle" x="430.5" y="-12.5" font-family="Helvetica,sans-Serif" font-size="10.00">::n_boundary_samples</text>
</a>
</g>
</g>
<!-- Node7&#45;&gt;Node8 -->
<g id="edge7_Node000007_Node000008" class="edge">
<title>Node7&#45;&gt;Node8</title>
<g id="a_edge7_Node000007_Node000008"><a xlink:title=" ">
<path fill="none" stroke="#63b8ff" d="M320.26,-20.5C328.55,-20.5 337.06,-20.5 345.49,-20.5"/>
<polygon fill="#63b8ff" stroke="#63b8ff" points="345.71,-24 355.71,-20.5 345.71,-17 345.71,-24"/>
</a>
</g>
</g>
<!-- Node9 -->
<g id="Node000009" class="node">
<title>Node9</title>
<g id="a_Node000009"><a xlink:href="classpolyfem_1_1assembler_1_1_assembler_utils.html#a80818109ce6766a1fae1733a0b2e87dc" target="_top" xlink:title="utility for retrieving the needed quadrature order to precisely integrate the given form on the given...">
<polygon fill="white" stroke="#666666" points="728,-35.5 541,-35.5 541,-5.5 728,-5.5 728,-35.5"/>
<text text-anchor="start" x="549" y="-23.5" font-family="Helvetica,sans-Serif" font-size="10.00">polyfem::assembler</text>
<text text-anchor="middle" x="634.5" y="-12.5" font-family="Helvetica,sans-Serif" font-size="10.00">::AssemblerUtils::quadrature_order</text>
</a>
</g>
</g>
<!-- Node8&#45;&gt;Node9 -->
<g id="edge8_Node000008_Node000009" class="edge">
<title>Node8&#45;&gt;Node9</title>
<g id="a_edge8_Node000008_Node000009"><a xlink:title=" ">
<path fill="none" stroke="#63b8ff" d="M505.28,-20.5C513.63,-20.5 522.24,-20.5 530.87,-20.5"/>
<polygon fill="#63b8ff" stroke="#63b8ff" points="530.99,-24 540.99,-20.5 530.99,-17 530.99,-24"/>
</a>
</g>
</g>
<!-- Node10&#45;&gt;Node5 -->
<g id="edge11_Node000010_Node000005" class="edge">
<title>Node10&#45;&gt;Node5</title>
<g id="a_edge11_Node000010_Node000005"><a xlink:title=" ">
<path fill="none" stroke="#63b8ff" d="M316.1,-90.01C334.94,-92.91 355.17,-96.03 373.25,-98.82"/>
<polygon fill="#63b8ff" stroke="#63b8ff" points="372.92,-102.31 383.34,-100.38 373.99,-95.39 372.92,-102.31"/>
</a>
</g>
</g>
</g>
</svg>
