<?xml version="1.0" encoding="UTF-8" standalone="no"?>
<!DOCTYPE svg PUBLIC "-//W3C//DTD SVG 1.1//EN"
 "http://www.w3.org/Graphics/SVG/1.1/DTD/svg11.dtd">
<!-- Generated by graphviz version 2.43.0 (0)
 -->
<!-- Title: polyfem::mesh::Obstacle::codim_v Pages: 1 -->
<svg width="380pt" height="86pt"
 viewBox="0.00 0.00 380.00 86.00" xmlns="http://www.w3.org/2000/svg" xmlns:xlink="http://www.w3.org/1999/xlink">
<g id="graph0" class="graph" transform="scale(1 1) rotate(0) translate(4 82)">
<title>polyfem::mesh::Obstacle::codim_v</title>
<!-- Node1 -->
<g id="Node000001" class="node">
<title>Node1</title>
<g id="a_Node000001"><a xlink:title=" ">
<polygon fill="#999999" stroke="#666666" points="372,-54 233,-54 233,-24 372,-24 372,-54"/>
<text text-anchor="start" x="241" y="-42" font-family="Helvetica,sans-Serif" font-size="10.00">polyfem::mesh::Obstacle</text>
<text text-anchor="middle" x="302.5" y="-31" font-family="Helvetica,sans-Serif" font-size="10.00">::codim_v</text>
</a>
</g>
</g>
<!-- Node2 -->
<g id="Node000002" class="node">
<title>Node2</title>
<g id="a_Node000002"><a xlink:href="classpolyfem_1_1legacy_1_1_state.html#abf4ee6f748385ff6ec3ce185c4eadab4" target="_top" xlink:title="extracts the boundary mesh for collision, called in build_basis">
<polygon fill="white" stroke="#666666" points="161.5,-78 35.5,-78 35.5,-48 161.5,-48 161.5,-78"/>
<text text-anchor="start" x="43.5" y="-66" font-family="Helvetica,sans-Serif" font-size="10.00">polyfem::legacy::State</text>
<text text-anchor="middle" x="98.5" y="-55" font-family="Helvetica,sans-Serif" font-size="10.00">::build_collision_mesh</text>
</a>
</g>
</g>
<!-- Node1&#45;&gt;Node2 -->
<g id="edge1_Node000001_Node000002" class="edge">
<title>Node1&#45;&gt;Node2</title>
<g id="a_edge1_Node000001_Node000002"><a xlink:title=" ">
<path fill="none" stroke="#63b8ff" d="M222.67,-48.37C202.38,-50.78 180.84,-53.34 161.54,-55.63"/>
<polygon fill="#63b8ff" stroke="#63b8ff" points="223.31,-51.81 232.83,-47.16 222.49,-44.86 223.31,-51.81"/>
</a>
</g>
</g>
<!-- Node3 -->
<g id="Node000003" class="node">
<title>Node3</title>
<g id="a_Node000003"><a xlink:href="classpolyfem_1_1varform_1_1_nonlinear_elastic_var_form.html#a86e3c72e0ef1eeef093572f8bf465824" target="_top" xlink:title=" ">
<polygon fill="white" stroke="#666666" points="197,-30 0,-30 0,0 197,0 197,-30"/>
<text text-anchor="start" x="8" y="-18" font-family="Helvetica,sans-Serif" font-size="10.00">polyfem::varform::Nonlinear</text>
<text text-anchor="middle" x="98.5" y="-7" font-family="Helvetica,sans-Serif" font-size="10.00">ElasticVarForm::build_collision_mesh</text>
</a>
</g>
</g>
<!-- Node1&#45;&gt;Node3 -->
<g id="edge2_Node000001_Node000003" class="edge">
<title>Node1&#45;&gt;Node3</title>
<g id="a_edge2_Node000001_Node000003"><a xlink:title=" ">
<path fill="none" stroke="#63b8ff" d="M222.77,-29.65C214.43,-28.65 205.87,-27.64 197.34,-26.62"/>
<polygon fill="#63b8ff" stroke="#63b8ff" points="222.49,-33.14 232.83,-30.84 223.31,-26.19 222.49,-33.14"/>
</a>
</g>
</g>
</g>
</svg>
