<?xml version="1.0" encoding="UTF-8" standalone="no"?>
<!DOCTYPE svg PUBLIC "-//W3C//DTD SVG 1.1//EN"
 "http://www.w3.org/Graphics/SVG/1.1/DTD/svg11.dtd">
<!-- Generated by graphviz version 2.43.0 (0)
 -->
<!-- Title: polyfem::assembler::GenericElastic::assemble_grad Pages: 1 -->
<svg width="479pt" height="86pt"
 viewBox="0.00 0.00 479.00 86.00" xmlns="http://www.w3.org/2000/svg" xmlns:xlink="http://www.w3.org/1999/xlink">
<g id="graph0" class="graph" transform="scale(1 1) rotate(0) translate(4 82)">
<title>polyfem::assembler::GenericElastic::assemble_grad</title>
<!-- Node1 -->
<g id="node1" class="node">
<title>Node1</title>
<g id="a_node1"><a xlink:title=" ">
<polygon fill="#999999" stroke="#666666" points="173,-54 0,-54 0,-24 173,-24 173,-54"/>
<text text-anchor="start" x="8" y="-42" font-family="Helvetica,sans-Serif" font-size="10.00">polyfem::assembler</text>
<text text-anchor="middle" x="86.5" y="-31" font-family="Helvetica,sans-Serif" font-size="10.00">::GenericElastic::assemble_grad</text>
</a>
</g>
</g>
<!-- Node2 -->
<g id="node2" class="node">
<title>Node2</title>
<g id="a_node2"><a xlink:href="namespacepolyfem.html#acf04b657153af8a5f4d2269617e8555c" target="_top" xlink:title=" ">
<polygon fill="white" stroke="#666666" points="341,-78 209,-78 209,-48 341,-48 341,-78"/>
<text text-anchor="start" x="217" y="-66" font-family="Helvetica,sans-Serif" font-size="10.00">polyfem::gradient_from</text>
<text text-anchor="middle" x="275" y="-55" font-family="Helvetica,sans-Serif" font-size="10.00">_energy</text>
</a>
</g>
</g>
<!-- Node1&#45;&gt;Node2 -->
<g id="edge1" class="edge">
<title>Node1&#45;&gt;Node2</title>
<path fill="none" stroke="#63b8ff" d="M173.11,-50.02C181.62,-51.11 190.21,-52.22 198.61,-53.3"/>
<polygon fill="#63b8ff" stroke="#63b8ff" points="198.36,-56.8 208.73,-54.6 199.26,-49.85 198.36,-56.8"/>
</g>
<!-- Node4 -->
<g id="node4" class="node">
<title>Node4</title>
<g id="a_node4"><a xlink:href="classpolyfem_1_1assembler_1_1_assembler.html#a80752709995e20a40d7df6ae26c684d4" target="_top" xlink:title=" ">
<polygon fill="white" stroke="#666666" points="332,-30 218,-30 218,0 332,0 332,-30"/>
<text text-anchor="start" x="226" y="-18" font-family="Helvetica,sans-Serif" font-size="10.00">polyfem::assembler</text>
<text text-anchor="middle" x="275" y="-7" font-family="Helvetica,sans-Serif" font-size="10.00">::Assembler::size</text>
</a>
</g>
</g>
<!-- Node1&#45;&gt;Node4 -->
<g id="edge3" class="edge">
<title>Node1&#45;&gt;Node4</title>
<path fill="none" stroke="#63b8ff" d="M173.11,-27.98C184.77,-26.48 196.58,-24.96 207.82,-23.52"/>
<polygon fill="#63b8ff" stroke="#63b8ff" points="208.5,-26.96 217.97,-22.21 207.6,-20.02 208.5,-26.96"/>
</g>
<!-- Node3 -->
<g id="node3" class="node">
<title>Node3</title>
<g id="a_node3"><a xlink:href="namespacepolyfem.html#a03f3d75072d2fd19f70cd886a51d10dd" target="_top" xlink:title="Retrieves the current logger.">
<polygon fill="white" stroke="#666666" points="471,-72.5 377,-72.5 377,-53.5 471,-53.5 471,-72.5"/>
<text text-anchor="middle" x="424" y="-60.5" font-family="Helvetica,sans-Serif" font-size="10.00">polyfem::logger</text>
</a>
</g>
</g>
<!-- Node2&#45;&gt;Node3 -->
<g id="edge2" class="edge">
<title>Node2&#45;&gt;Node3</title>
<path fill="none" stroke="#63b8ff" d="M341.33,-63C349.74,-63 358.3,-63 366.55,-63"/>
<polygon fill="#63b8ff" stroke="#63b8ff" points="366.81,-66.5 376.81,-63 366.81,-59.5 366.81,-66.5"/>
</g>
</g>
</svg>
