<?xml version="1.0" encoding="UTF-8" standalone="no"?>
<!DOCTYPE svg PUBLIC "-//W3C//DTD SVG 1.1//EN"
 "http://www.w3.org/Graphics/SVG/1.1/DTD/svg11.dtd">
<!-- Generated by graphviz version 2.43.0 (0)
 -->
<!-- Title: polyfem::solver::FSIInterfaceForm::first_derivative_unweighted Pages: 1 -->
<svg width="384pt" height="301pt"
 viewBox="0.00 0.00 384.00 300.50" xmlns="http://www.w3.org/2000/svg" xmlns:xlink="http://www.w3.org/1999/xlink">
<g id="graph0" class="graph" transform="scale(1 1) rotate(0) translate(4 296.5)">
<title>polyfem::solver::FSIInterfaceForm::first_derivative_unweighted</title>
<!-- Node1 -->
<g id="Node000001" class="node">
<title>Node1</title>
<g id="a_Node000001"><a xlink:title="Compute the first derivative of the value wrt x.">
<polygon fill="#999999" stroke="#666666" points="183,-150 0,-150 0,-120 183,-120 183,-150"/>
<text text-anchor="start" x="8" y="-138" font-family="Helvetica,sans-Serif" font-size="10.00">polyfem::solver::FSIInterface</text>
<text text-anchor="middle" x="91.5" y="-127" font-family="Helvetica,sans-Serif" font-size="10.00">Form::first_derivative_unweighted</text>
</a>
</g>
</g>
<!-- Node2 -->
<g id="Node000002" class="node">
<title>Node2</title>
<g id="a_Node000002"><a xlink:href="classpolyfem_1_1time__integrator_1_1_implicit_time_integrator.html#aed3a8c4dec0c01f69caefae756cb2999" target="_top" xlink:title="Compute the acceleration scaling used to scale forces when integrating a second order ODE.">
<polygon fill="white" stroke="#666666" points="367,-292.5 228,-292.5 228,-251.5 367,-251.5 367,-292.5"/>
<text text-anchor="start" x="236" y="-280.5" font-family="Helvetica,sans-Serif" font-size="10.00">polyfem::time_integrator</text>
<text text-anchor="start" x="236" y="-269.5" font-family="Helvetica,sans-Serif" font-size="10.00">::ImplicitTimeIntegrator</text>
<text text-anchor="middle" x="297.5" y="-258.5" font-family="Helvetica,sans-Serif" font-size="10.00">::acceleration_scaling</text>
</a>
</g>
</g>
<!-- Node1&#45;&gt;Node2 -->
<g id="edge1_Node000001_Node000002" class="edge">
<title>Node1&#45;&gt;Node2</title>
<g id="a_edge1_Node000001_Node000002"><a xlink:title=" ">
<path fill="none" stroke="#63b8ff" d="M106.75,-150.17C128.88,-172.99 173.72,-216.32 219,-243 221.22,-244.31 223.51,-245.58 225.85,-246.8"/>
<polygon fill="#63b8ff" stroke="#63b8ff" points="224.55,-250.06 235.07,-251.32 227.63,-243.77 224.55,-250.06"/>
</a>
</g>
</g>
<!-- Node3 -->
<g id="Node000003" class="node">
<title>Node3</title>
<g id="a_Node000003"><a xlink:href="classpolyfem_1_1time__integrator_1_1_implicit_time_integrator.html#a989602df205d37bdd86de6d8fc70e88b" target="_top" xlink:title="Compute the current velocity given the current solution and using the stored previous solution(s).">
<polygon fill="white" stroke="#666666" points="367,-233.5 228,-233.5 228,-192.5 367,-192.5 367,-233.5"/>
<text text-anchor="start" x="236" y="-221.5" font-family="Helvetica,sans-Serif" font-size="10.00">polyfem::time_integrator</text>
<text text-anchor="start" x="236" y="-210.5" font-family="Helvetica,sans-Serif" font-size="10.00">::ImplicitTimeIntegrator</text>
<text text-anchor="middle" x="297.5" y="-199.5" font-family="Helvetica,sans-Serif" font-size="10.00">::compute_velocity</text>
</a>
</g>
</g>
<!-- Node1&#45;&gt;Node3 -->
<g id="edge2_Node000001_Node000003" class="edge">
<title>Node1&#45;&gt;Node3</title>
<g id="a_edge2_Node000001_Node000003"><a xlink:title=" ">
<path fill="none" stroke="#63b8ff" d="M131.83,-150.04C160.5,-161 199.94,-176.08 233.04,-188.73"/>
<polygon fill="#63b8ff" stroke="#63b8ff" points="232.04,-192.1 242.63,-192.4 234.54,-185.56 232.04,-192.1"/>
</a>
</g>
</g>
<!-- Node4 -->
<g id="Node000004" class="node">
<title>Node4</title>
<g id="a_Node000004"><a xlink:href="classpolyfem_1_1solver_1_1_f_s_i_interface_form.html#a8e1e1888fe6732950611d7118a7678e8" target="_top" xlink:title=" ">
<polygon fill="white" stroke="#666666" points="376,-174 219,-174 219,-144 376,-144 376,-174"/>
<text text-anchor="start" x="227" y="-162" font-family="Helvetica,sans-Serif" font-size="10.00">polyfem::solver::FSIInterface</text>
<text text-anchor="middle" x="297.5" y="-151" font-family="Helvetica,sans-Serif" font-size="10.00">Form::fluid_multiplier_size</text>
</a>
</g>
</g>
<!-- Node1&#45;&gt;Node4 -->
<g id="edge3_Node000001_Node000004" class="edge">
<title>Node1&#45;&gt;Node4</title>
<g id="a_edge3_Node000001_Node000004"><a xlink:title=" ">
<path fill="none" stroke="#63b8ff" d="M183.17,-145.67C191.73,-146.67 200.41,-147.69 208.94,-148.7"/>
<polygon fill="#63b8ff" stroke="#63b8ff" points="208.54,-152.18 218.89,-149.87 209.36,-145.22 208.54,-152.18"/>
</a>
</g>
</g>
<!-- Node5 -->
<g id="Node000005" class="node">
<title>Node5</title>
<g id="a_Node000005"><a xlink:href="classpolyfem_1_1solver_1_1_f_s_i_interface_form.html#a7f72b4fc13910d0a85ba01f9ecadbdeb" target="_top" xlink:title=" ">
<polygon fill="white" stroke="#666666" points="376,-126 219,-126 219,-96 376,-96 376,-126"/>
<text text-anchor="start" x="227" y="-114" font-family="Helvetica,sans-Serif" font-size="10.00">polyfem::solver::FSIInterface</text>
<text text-anchor="middle" x="297.5" y="-103" font-family="Helvetica,sans-Serif" font-size="10.00">Form::mesh_constraint</text>
</a>
</g>
</g>
<!-- Node1&#45;&gt;Node5 -->
<g id="edge4_Node000001_Node000005" class="edge">
<title>Node1&#45;&gt;Node5</title>
<g id="a_edge4_Node000001_Node000005"><a xlink:title=" ">
<path fill="none" stroke="#63b8ff" d="M183.17,-124.33C191.73,-123.33 200.41,-122.31 208.94,-121.3"/>
<polygon fill="#63b8ff" stroke="#63b8ff" points="209.36,-124.78 218.89,-120.13 208.54,-117.82 209.36,-124.78"/>
</a>
</g>
</g>
<!-- Node6 -->
<g id="Node000006" class="node">
<title>Node6</title>
<g id="a_Node000006"><a xlink:href="classpolyfem_1_1solver_1_1_f_s_i_interface_form.html#ade3aa3fb8efe7eac90f8af68170b54ba" target="_top" xlink:title=" ">
<polygon fill="white" stroke="#666666" points="376,-78 219,-78 219,-48 376,-48 376,-78"/>
<text text-anchor="start" x="227" y="-66" font-family="Helvetica,sans-Serif" font-size="10.00">polyfem::solver::FSIInterface</text>
<text text-anchor="middle" x="297.5" y="-55" font-family="Helvetica,sans-Serif" font-size="10.00">Form::mesh_multiplier_size</text>
</a>
</g>
</g>
<!-- Node1&#45;&gt;Node6 -->
<g id="edge5_Node000001_Node000006" class="edge">
<title>Node1&#45;&gt;Node6</title>
<g id="a_edge5_Node000001_Node000006"><a xlink:title=" ">
<path fill="none" stroke="#63b8ff" d="M130.19,-119.99C155.23,-110.2 188.9,-97.36 219,-87 224.63,-85.06 230.52,-83.11 236.42,-81.2"/>
<polygon fill="#63b8ff" stroke="#63b8ff" points="237.86,-84.41 246.32,-78.04 235.73,-77.74 237.86,-84.41"/>
</a>
</g>
</g>
<!-- Node7 -->
<g id="Node000007" class="node">
<title>Node7</title>
<g id="a_Node000007"><a xlink:href="classpolyfem_1_1solver_1_1_f_s_i_interface_form.html#a6f37906d9a281e9ad05428b8679111ba" target="_top" xlink:title=" ">
<polygon fill="white" stroke="#666666" points="376,-30 219,-30 219,0 376,0 376,-30"/>
<text text-anchor="start" x="227" y="-18" font-family="Helvetica,sans-Serif" font-size="10.00">polyfem::solver::FSIInterface</text>
<text text-anchor="middle" x="297.5" y="-7" font-family="Helvetica,sans-Serif" font-size="10.00">Form::physical_constraint</text>
</a>
</g>
</g>
<!-- Node1&#45;&gt;Node7 -->
<g id="edge6_Node000001_Node000007" class="edge">
<title>Node1&#45;&gt;Node7</title>
<g id="a_edge6_Node000001_Node000007"><a xlink:title=" ">
<path fill="none" stroke="#63b8ff" d="M108.42,-119.94C131.24,-99.08 175.35,-61.43 219,-39 222.56,-37.17 226.29,-35.45 230.1,-33.84"/>
<polygon fill="#63b8ff" stroke="#63b8ff" points="231.68,-36.98 239.7,-30.05 229.12,-30.46 231.68,-36.98"/>
</a>
</g>
</g>
</g>
</svg>
