<?xml version="1.0" encoding="UTF-8" standalone="no"?>
<!DOCTYPE svg PUBLIC "-//W3C//DTD SVG 1.1//EN"
 "http://www.w3.org/Graphics/SVG/1.1/DTD/svg11.dtd">
<!-- Generated by graphviz version 2.43.0 (0)
 -->
<!-- Title: polyfem::solver::PeriodicContactForm::solution_changed Pages: 1 -->
<svg width="723pt" height="113pt"
 viewBox="0.00 0.00 723.00 113.00" xmlns="http://www.w3.org/2000/svg" xmlns:xlink="http://www.w3.org/1999/xlink">
<g id="graph0" class="graph" transform="scale(1 1) rotate(0) translate(4 109)">
<title>polyfem::solver::PeriodicContactForm::solution_changed</title>
<!-- Node1 -->
<g id="Node000001" class="node">
<title>Node1</title>
<g id="a_Node000001"><a xlink:title="Update cached fields upon a change in the solution.">
<polygon fill="#999999" stroke="#666666" points="170,-81 0,-81 0,-51 170,-51 170,-81"/>
<text text-anchor="start" x="8" y="-69" font-family="Helvetica,sans-Serif" font-size="10.00">polyfem::solver::Periodic</text>
<text text-anchor="middle" x="85" y="-58" font-family="Helvetica,sans-Serif" font-size="10.00">ContactForm::solution_changed</text>
</a>
</g>
</g>
<!-- Node2 -->
<g id="Node000002" class="node">
<title>Node2</title>
<g id="a_Node000002"><a xlink:href="classpolyfem_1_1solver_1_1_periodic_contact_form.html#a5b9b21aa68c20cc0695f9d02b7b1719b" target="_top" xlink:title=" ">
<polygon fill="white" stroke="#666666" points="362,-105 206,-105 206,-75 362,-75 362,-105"/>
<text text-anchor="start" x="214" y="-93" font-family="Helvetica,sans-Serif" font-size="10.00">polyfem::solver::Periodic</text>
<text text-anchor="middle" x="284" y="-82" font-family="Helvetica,sans-Serif" font-size="10.00">ContactForm::single_to_tiled</text>
</a>
</g>
</g>
<!-- Node1&#45;&gt;Node2 -->
<g id="edge1_Node000001_Node000002" class="edge">
<title>Node1&#45;&gt;Node2</title>
<g id="a_edge1_Node000001_Node000002"><a xlink:title=" ">
<path fill="none" stroke="#63b8ff" d="M170.12,-76.25C178.61,-77.28 187.25,-78.34 195.78,-79.37"/>
<polygon fill="#63b8ff" stroke="#63b8ff" points="195.37,-82.85 205.72,-80.58 196.21,-75.9 195.37,-82.85"/>
</a>
</g>
</g>
<!-- Node3 -->
<g id="Node000003" class="node">
<title>Node3</title>
<g id="a_Node000003"><a xlink:href="classpolyfem_1_1solver_1_1_contact_form.html#a70e5349c72c5d268ba2d98753865ab4e" target="_top" xlink:title="Update cached fields upon a change in the solution.">
<polygon fill="white" stroke="#666666" points="352.5,-57 215.5,-57 215.5,-27 352.5,-27 352.5,-57"/>
<text text-anchor="start" x="223.5" y="-45" font-family="Helvetica,sans-Serif" font-size="10.00">polyfem::solver::Contact</text>
<text text-anchor="middle" x="284" y="-34" font-family="Helvetica,sans-Serif" font-size="10.00">Form::solution_changed</text>
</a>
</g>
</g>
<!-- Node1&#45;&gt;Node3 -->
<g id="edge2_Node000001_Node000003" class="edge">
<title>Node1&#45;&gt;Node3</title>
<g id="a_edge2_Node000001_Node000003"><a xlink:title=" ">
<path fill="none" stroke="#63b8ff" d="M170.12,-55.75C181.76,-54.33 193.69,-52.88 205.21,-51.48"/>
<polygon fill="#63b8ff" stroke="#63b8ff" points="205.72,-54.94 215.22,-50.26 204.87,-47.99 205.72,-54.94"/>
</a>
</g>
</g>
<!-- Node4 -->
<g id="Node000004" class="node">
<title>Node4</title>
<g id="a_Node000004"><a xlink:href="classpolyfem_1_1solver_1_1_contact_form.html#a41111805fab863090ce87259bb024995" target="_top" xlink:title="Compute the displaced positions of the surface nodes.">
<polygon fill="white" stroke="#666666" points="542.5,-89.5 400.5,-89.5 400.5,-48.5 542.5,-48.5 542.5,-89.5"/>
<text text-anchor="start" x="408.5" y="-77.5" font-family="Helvetica,sans-Serif" font-size="10.00">polyfem::solver::Contact</text>
<text text-anchor="start" x="408.5" y="-66.5" font-family="Helvetica,sans-Serif" font-size="10.00">Form::compute_displaced</text>
<text text-anchor="middle" x="471.5" y="-55.5" font-family="Helvetica,sans-Serif" font-size="10.00">_surface</text>
</a>
</g>
</g>
<!-- Node3&#45;&gt;Node4 -->
<g id="edge3_Node000003_Node000004" class="edge">
<title>Node3&#45;&gt;Node4</title>
<g id="a_edge3_Node000003_Node000004"><a xlink:title=" ">
<path fill="none" stroke="#63b8ff" d="M352.76,-51.86C365.01,-53.65 377.89,-55.52 390.45,-57.35"/>
<polygon fill="#63b8ff" stroke="#63b8ff" points="390.04,-60.82 400.44,-58.8 391.04,-53.9 390.04,-60.82"/>
</a>
</g>
</g>
<!-- Node6 -->
<g id="Node000006" class="node">
<title>Node6</title>
<g id="a_Node000006"><a xlink:href="classpolyfem_1_1solver_1_1_contact_form.html#a0d496c2039ed3e61426ab00cf3b93180" target="_top" xlink:title="Update the cached candidate set for the current solution.">
<polygon fill="white" stroke="#666666" points="545,-30 398,-30 398,0 545,0 545,-30"/>
<text text-anchor="start" x="406" y="-18" font-family="Helvetica,sans-Serif" font-size="10.00">polyfem::solver::Contact</text>
<text text-anchor="middle" x="471.5" y="-7" font-family="Helvetica,sans-Serif" font-size="10.00">Form::update_collision_set</text>
</a>
</g>
</g>
<!-- Node3&#45;&gt;Node6 -->
<g id="edge5_Node000003_Node000006" class="edge">
<title>Node3&#45;&gt;Node6</title>
<g id="a_edge5_Node000003_Node000006"><a xlink:title=" ">
<path fill="none" stroke="#63b8ff" d="M352.76,-32.14C364.12,-30.48 376.03,-28.75 387.73,-27.05"/>
<polygon fill="#63b8ff" stroke="#63b8ff" points="388.54,-30.47 397.93,-25.56 387.53,-23.54 388.54,-30.47"/>
</a>
</g>
</g>
<!-- Node5 -->
<g id="Node000005" class="node">
<title>Node5</title>
<g id="a_Node000005"><a xlink:href="namespacepolyfem_1_1utils.html#aafdbbff4a81a4fcba11129097b1109e5" target="_top" xlink:title="Unflatten rowwises, so every dim elements in x become a row.">
<polygon fill="white" stroke="#666666" points="715,-78.5 581,-78.5 581,-59.5 715,-59.5 715,-78.5"/>
<text text-anchor="middle" x="648" y="-66.5" font-family="Helvetica,sans-Serif" font-size="10.00">polyfem::utils::unflatten</text>
</a>
</g>
</g>
<!-- Node4&#45;&gt;Node5 -->
<g id="edge4_Node000004_Node000005" class="edge">
<title>Node4&#45;&gt;Node5</title>
<g id="a_edge4_Node000004_Node000005"><a xlink:title=" ">
<path fill="none" stroke="#63b8ff" d="M542.72,-69C551.97,-69 561.49,-69 570.83,-69"/>
<polygon fill="#63b8ff" stroke="#63b8ff" points="570.88,-72.5 580.88,-69 570.88,-65.5 570.88,-72.5"/>
</a>
</g>
</g>
</g>
</svg>
