<?xml version="1.0" encoding="UTF-8" standalone="no"?>
<!DOCTYPE svg PUBLIC "-//W3C//DTD SVG 1.1//EN"
 "http://www.w3.org/Graphics/SVG/1.1/DTD/svg11.dtd">
<!-- Generated by graphviz version 2.43.0 (0)
 -->
<!-- Title: polyfem::solver::DeformedCollisionBarrierForm::get_updated_mesh_nodes Pages: 1 -->
<svg width="825pt" height="151pt"
 viewBox="0.00 0.00 825.00 150.50" xmlns="http://www.w3.org/2000/svg" xmlns:xlink="http://www.w3.org/1999/xlink">
<g id="graph0" class="graph" transform="scale(1 1) rotate(0) translate(4 146.5)">
<title>polyfem::solver::DeformedCollisionBarrierForm::get_updated_mesh_nodes</title>
<!-- Node1 -->
<g id="Node000001" class="node">
<title>Node1</title>
<g id="a_Node000001"><a xlink:title=" ">
<polygon fill="#999999" stroke="#666666" points="148,-83.5 0,-83.5 0,-42.5 148,-42.5 148,-83.5"/>
<text text-anchor="start" x="8" y="-71.5" font-family="Helvetica,sans-Serif" font-size="10.00">polyfem::solver::Deformed</text>
<text text-anchor="start" x="8" y="-60.5" font-family="Helvetica,sans-Serif" font-size="10.00">CollisionBarrierForm::get</text>
<text text-anchor="middle" x="74" y="-49.5" font-family="Helvetica,sans-Serif" font-size="10.00">_updated_mesh_nodes</text>
</a>
</g>
</g>
<!-- Node2 -->
<g id="Node000002" class="node">
<title>Node2</title>
<g id="a_Node000002"><a xlink:href="classpolyfem_1_1solver_1_1_variable_to_simulation_group.html#a36c5b79bafc0937f2a180f3066acbef2" target="_top" xlink:title="Evaluate the variable to simulations and overwrite the state_variable based on x.">
<polygon fill="white" stroke="#666666" points="342,-142.5 184,-142.5 184,-101.5 342,-101.5 342,-142.5"/>
<text text-anchor="start" x="192" y="-130.5" font-family="Helvetica,sans-Serif" font-size="10.00">polyfem::solver::Variable</text>
<text text-anchor="start" x="192" y="-119.5" font-family="Helvetica,sans-Serif" font-size="10.00">ToSimulationGroup::compute</text>
<text text-anchor="middle" x="263" y="-108.5" font-family="Helvetica,sans-Serif" font-size="10.00">_state_variable</text>
</a>
</g>
</g>
<!-- Node1&#45;&gt;Node2 -->
<g id="edge1_Node000001_Node000002" class="edge">
<title>Node1&#45;&gt;Node2</title>
<g id="a_edge1_Node000001_Node000002"><a xlink:title=" ">
<path fill="none" stroke="#63b8ff" d="M140.14,-83.55C155.33,-88.34 171.62,-93.48 187.19,-98.4"/>
<polygon fill="#63b8ff" stroke="#63b8ff" points="186.19,-101.75 196.78,-101.42 188.29,-95.07 186.19,-101.75"/>
</a>
</g>
</g>
<!-- Node3 -->
<g id="Node000003" class="node">
<title>Node3</title>
<g id="a_Node000003"><a xlink:href="namespacepolyfem_1_1solver_1_1_adjoint_tools.html#aa7f73a425012498c55fca81fd8a24ca5" target="_top" xlink:title=" ">
<polygon fill="white" stroke="#666666" points="330,-83.5 196,-83.5 196,-42.5 330,-42.5 330,-83.5"/>
<text text-anchor="start" x="204" y="-71.5" font-family="Helvetica,sans-Serif" font-size="10.00">polyfem::solver::Adjoint</text>
<text text-anchor="start" x="204" y="-60.5" font-family="Helvetica,sans-Serif" font-size="10.00">Tools::map_primitive_to</text>
<text text-anchor="middle" x="263" y="-49.5" font-family="Helvetica,sans-Serif" font-size="10.00">_node_order</text>
</a>
</g>
</g>
<!-- Node1&#45;&gt;Node3 -->
<g id="edge2_Node000001_Node000003" class="edge">
<title>Node1&#45;&gt;Node3</title>
<g id="a_edge2_Node000001_Node000003"><a xlink:title=" ">
<path fill="none" stroke="#63b8ff" d="M148.1,-63C160.43,-63 173.25,-63 185.65,-63"/>
<polygon fill="#63b8ff" stroke="#63b8ff" points="185.95,-66.5 195.95,-63 185.95,-59.5 185.95,-66.5"/>
</a>
</g>
</g>
<!-- Node7 -->
<g id="Node000007" class="node">
<title>Node7</title>
<g id="a_Node000007"><a xlink:href="classpolyfem_1_1solver_1_1_diff_cache.html#aef49f8d41ce8d8665737f8bc381f94c6" target="_top" xlink:title=" ">
<polygon fill="white" stroke="#666666" points="342,-24.5 184,-24.5 184,-5.5 342,-5.5 342,-24.5"/>
<text text-anchor="middle" x="263" y="-12.5" font-family="Helvetica,sans-Serif" font-size="10.00">polyfem::solver::DiffCache::u</text>
</a>
</g>
</g>
<!-- Node1&#45;&gt;Node7 -->
<g id="edge6_Node000001_Node000007" class="edge">
<title>Node1&#45;&gt;Node7</title>
<g id="a_edge6_Node000001_Node000007"><a xlink:title=" ">
<path fill="none" stroke="#63b8ff" d="M147.89,-42.49C159.93,-39.23 172.3,-35.96 184,-33 192.13,-30.94 200.77,-28.85 209.22,-26.87"/>
<polygon fill="#63b8ff" stroke="#63b8ff" points="210.07,-30.26 219.01,-24.58 208.48,-23.44 210.07,-30.26"/>
</a>
</g>
</g>
<!-- Node4 -->
<g id="Node000004" class="node">
<title>Node4</title>
<g id="a_Node000004"><a xlink:href="classpolyfem_1_1_state.html#a5eaa1d1e994fd9fe2ef287e1d623fe67" target="_top" xlink:title=" ">
<polygon fill="white" stroke="#666666" points="520.5,-78 381.5,-78 381.5,-48 520.5,-48 520.5,-78"/>
<text text-anchor="start" x="389.5" y="-66" font-family="Helvetica,sans-Serif" font-size="10.00">polyfem::State::primitive</text>
<text text-anchor="middle" x="451" y="-55" font-family="Helvetica,sans-Serif" font-size="10.00">_to_node</text>
</a>
</g>
</g>
<!-- Node3&#45;&gt;Node4 -->
<g id="edge3_Node000003_Node000004" class="edge">
<title>Node3&#45;&gt;Node4</title>
<g id="a_edge3_Node000003_Node000004"><a xlink:title=" ">
<path fill="none" stroke="#63b8ff" d="M330.1,-63C343.33,-63 357.36,-63 370.97,-63"/>
<polygon fill="#63b8ff" stroke="#63b8ff" points="371.28,-66.5 381.28,-63 371.28,-59.5 371.28,-66.5"/>
</a>
</g>
</g>
<!-- Node5 -->
<g id="Node000005" class="node">
<title>Node5</title>
<g id="a_Node000005"><a xlink:href="classpolyfem_1_1_state.html#ab956f7e3ad92b7ffc1ca1a45ee47903f" target="_top" xlink:title="check if using iso parametric bases">
<polygon fill="white" stroke="#666666" points="669,-78 560,-78 560,-48 669,-48 669,-78"/>
<text text-anchor="start" x="568" y="-66" font-family="Helvetica,sans-Serif" font-size="10.00">polyfem::State::iso</text>
<text text-anchor="middle" x="614.5" y="-55" font-family="Helvetica,sans-Serif" font-size="10.00">_parametric</text>
</a>
</g>
</g>
<!-- Node4&#45;&gt;Node5 -->
<g id="edge4_Node000004_Node000005" class="edge">
<title>Node4&#45;&gt;Node5</title>
<g id="a_edge4_Node000004_Node000005"><a xlink:title=" ">
<path fill="none" stroke="#63b8ff" d="M520.96,-63C530.53,-63 540.32,-63 549.79,-63"/>
<polygon fill="#63b8ff" stroke="#63b8ff" points="549.91,-66.5 559.91,-63 549.91,-59.5 549.91,-66.5"/>
</a>
</g>
</g>
<!-- Node6 -->
<g id="Node000006" class="node">
<title>Node6</title>
<g id="a_Node000006"><a xlink:href="classpolyfem_1_1_state.html#a7447e954de5980b45223f7cf49738073" target="_top" xlink:title=" ">
<polygon fill="white" stroke="#666666" points="817,-78 705,-78 705,-48 817,-48 817,-78"/>
<text text-anchor="start" x="713" y="-66" font-family="Helvetica,sans-Serif" font-size="10.00">polyfem::State::has</text>
<text text-anchor="middle" x="761" y="-55" font-family="Helvetica,sans-Serif" font-size="10.00">_periodic_bc</text>
</a>
</g>
</g>
<!-- Node5&#45;&gt;Node6 -->
<g id="edge5_Node000005_Node000006" class="edge">
<title>Node5&#45;&gt;Node6</title>
<g id="a_edge5_Node000005_Node000006"><a xlink:title=" ">
<path fill="none" stroke="#63b8ff" d="M669.31,-63C677.52,-63 686.08,-63 694.51,-63"/>
<polygon fill="#63b8ff" stroke="#63b8ff" points="694.7,-66.5 704.7,-63 694.7,-59.5 694.7,-66.5"/>
</a>
</g>
</g>
<!-- Node8 -->
<g id="Node000008" class="node">
<title>Node8</title>
<g id="a_Node000008"><a xlink:href="classpolyfem_1_1solver_1_1_diff_cache.html#aa58b56179289dbd2980ff06dfd8b2c0d" target="_top" xlink:title=" ">
<polygon fill="white" stroke="#666666" points="524,-30 378,-30 378,0 524,0 524,-30"/>
<text text-anchor="start" x="386" y="-18" font-family="Helvetica,sans-Serif" font-size="10.00">polyfem::solver::DiffCache</text>
<text text-anchor="middle" x="451" y="-7" font-family="Helvetica,sans-Serif" font-size="10.00">::size</text>
</a>
</g>
</g>
<!-- Node7&#45;&gt;Node8 -->
<g id="edge7_Node000007_Node000008" class="edge">
<title>Node7&#45;&gt;Node8</title>
<g id="a_edge7_Node000007_Node000008"><a xlink:title=" ">
<path fill="none" stroke="#63b8ff" d="M342.07,-15C350.48,-15 359.06,-15 367.52,-15"/>
<polygon fill="#63b8ff" stroke="#63b8ff" points="367.76,-18.5 377.76,-15 367.76,-11.5 367.76,-18.5"/>
</a>
</g>
</g>
</g>
</svg>
