<?xml version="1.0" encoding="UTF-8" standalone="no"?>
<!DOCTYPE svg PUBLIC "-//W3C//DTD SVG 1.1//EN"
 "http://www.w3.org/Graphics/SVG/1.1/DTD/svg11.dtd">
<!-- Generated by graphviz version 2.43.0 (0)
 -->
<!-- Title: polyfem::solver::CollisionBarrierForm::solution_changed Pages: 1 -->
<svg width="1042pt" height="184pt"
 viewBox="0.00 0.00 1042.00 183.50" xmlns="http://www.w3.org/2000/svg" xmlns:xlink="http://www.w3.org/1999/xlink">
<g id="graph0" class="graph" transform="scale(1 1) rotate(0) translate(4 179.5)">
<title>polyfem::solver::CollisionBarrierForm::solution_changed</title>
<!-- Node1 -->
<g id="Node000001" class="node">
<title>Node1</title>
<g id="a_Node000001"><a xlink:title="Update cached fields upon a change in the solution.">
<polygon fill="#999999" stroke="#666666" points="166,-94.5 0,-94.5 0,-64.5 166,-64.5 166,-94.5"/>
<text text-anchor="start" x="8" y="-82.5" font-family="Helvetica,sans-Serif" font-size="10.00">polyfem::solver::Collision</text>
<text text-anchor="middle" x="83" y="-71.5" font-family="Helvetica,sans-Serif" font-size="10.00">BarrierForm::solution_changed</text>
</a>
</g>
</g>
<!-- Node2 -->
<g id="Node000002" class="node">
<title>Node2</title>
<g id="a_Node000002"><a xlink:href="classpolyfem_1_1solver_1_1_collision_barrier_form.html#a33f5a75351168980dd42656127f1693c" target="_top" xlink:title=" ">
<polygon fill="white" stroke="#666666" points="372,-175.5 202,-175.5 202,-145.5 372,-145.5 372,-175.5"/>
<text text-anchor="start" x="210" y="-163.5" font-family="Helvetica,sans-Serif" font-size="10.00">polyfem::solver::Collision</text>
<text text-anchor="middle" x="287" y="-152.5" font-family="Helvetica,sans-Serif" font-size="10.00">BarrierForm::build_collision_set</text>
</a>
</g>
</g>
<!-- Node1&#45;&gt;Node2 -->
<g id="edge1_Node000001_Node000002" class="edge">
<title>Node1&#45;&gt;Node2</title>
<g id="a_edge1_Node000001_Node000002"><a xlink:title=" ">
<path fill="none" stroke="#63b8ff" d="M112.01,-94.72C135.55,-107.1 170.32,-124.43 202,-136.5 207.36,-138.54 212.96,-140.5 218.63,-142.36"/>
<polygon fill="#63b8ff" stroke="#63b8ff" points="217.59,-145.71 228.18,-145.4 219.71,-139.04 217.59,-145.71"/>
</a>
</g>
</g>
<!-- Node3 -->
<g id="Node000003" class="node">
<title>Node3</title>
<g id="a_Node000003"><a xlink:href="classpolyfem_1_1solver_1_1_collision_barrier_form.html#afa99bbe0187758a168ceeb8960bdad94" target="_top" xlink:title=" ">
<polygon fill="white" stroke="#666666" points="357.5,-127 216.5,-127 216.5,-86 357.5,-86 357.5,-127"/>
<text text-anchor="start" x="224.5" y="-115" font-family="Helvetica,sans-Serif" font-size="10.00">polyfem::solver::Collision</text>
<text text-anchor="start" x="224.5" y="-104" font-family="Helvetica,sans-Serif" font-size="10.00">BarrierForm::get_updated</text>
<text text-anchor="middle" x="287" y="-93" font-family="Helvetica,sans-Serif" font-size="10.00">_mesh_nodes</text>
</a>
</g>
</g>
<!-- Node1&#45;&gt;Node3 -->
<g id="edge2_Node000001_Node000003" class="edge">
<title>Node1&#45;&gt;Node3</title>
<g id="a_edge2_Node000001_Node000003"><a xlink:title=" ">
<path fill="none" stroke="#63b8ff" d="M166.16,-90.48C179.39,-92.25 193.07,-94.08 206.24,-95.84"/>
<polygon fill="#63b8ff" stroke="#63b8ff" points="205.82,-99.31 216.2,-97.17 206.75,-92.38 205.82,-99.31"/>
</a>
</g>
</g>
<!-- Node9 -->
<g id="Node000009" class="node">
<title>Node9</title>
<g id="a_Node000009"><a xlink:href="classpolyfem_1_1solver_1_1_adjoint_form.html#a3f00fafcf3de6cbf9d381d89d093db83" target="_top" xlink:title="Update cached fields upon a change in the solution.">
<polygon fill="white" stroke="#666666" points="354,-67.5 220,-67.5 220,-37.5 354,-37.5 354,-67.5"/>
<text text-anchor="start" x="228" y="-55.5" font-family="Helvetica,sans-Serif" font-size="10.00">polyfem::solver::Adjoint</text>
<text text-anchor="middle" x="287" y="-44.5" font-family="Helvetica,sans-Serif" font-size="10.00">Form::solution_changed</text>
</a>
</g>
</g>
<!-- Node1&#45;&gt;Node9 -->
<g id="edge8_Node000001_Node000009" class="edge">
<title>Node1&#45;&gt;Node9</title>
<g id="a_edge8_Node000001_Node000009"><a xlink:title=" ">
<path fill="none" stroke="#63b8ff" d="M166.16,-68.52C180.58,-66.59 195.52,-64.59 209.77,-62.69"/>
<polygon fill="#63b8ff" stroke="#63b8ff" points="210.55,-66.12 220,-61.32 209.62,-59.18 210.55,-66.12"/>
</a>
</g>
</g>
<!-- Node10 -->
<g id="Node000010" class="node">
<title>Node10</title>
<g id="a_Node000010"><a xlink:href="namespacepolyfem_1_1utils.html#aafdbbff4a81a4fcba11129097b1109e5" target="_top" xlink:title="Unflatten rowwises, so every dim elements in x become a row.">
<polygon fill="white" stroke="#666666" points="354,-19 220,-19 220,0 354,0 354,-19"/>
<text text-anchor="middle" x="287" y="-7" font-family="Helvetica,sans-Serif" font-size="10.00">polyfem::utils::unflatten</text>
</a>
</g>
</g>
<!-- Node1&#45;&gt;Node10 -->
<g id="edge9_Node000001_Node000010" class="edge">
<title>Node1&#45;&gt;Node10</title>
<g id="a_edge9_Node000001_Node000010"><a xlink:title=" ">
<path fill="none" stroke="#63b8ff" d="M114.45,-64.48C137.93,-53.35 171.45,-38.46 202,-28.5 209.97,-25.9 218.48,-23.53 226.9,-21.41"/>
<polygon fill="#63b8ff" stroke="#63b8ff" points="227.82,-24.79 236.72,-19.04 226.18,-17.98 227.82,-24.79"/>
</a>
</g>
</g>
<!-- Node4 -->
<g id="Node000004" class="node">
<title>Node4</title>
<g id="a_Node000004"><a xlink:href="classpolyfem_1_1solver_1_1_variable_to_simulation_group.html#a36c5b79bafc0937f2a180f3066acbef2" target="_top" xlink:title="Evaluate the variable to simulations and overwrite the state_variable based on x.">
<polygon fill="white" stroke="#666666" points="566,-156 408,-156 408,-115 566,-115 566,-156"/>
<text text-anchor="start" x="416" y="-144" font-family="Helvetica,sans-Serif" font-size="10.00">polyfem::solver::Variable</text>
<text text-anchor="start" x="416" y="-133" font-family="Helvetica,sans-Serif" font-size="10.00">ToSimulationGroup::compute</text>
<text text-anchor="middle" x="487" y="-122" font-family="Helvetica,sans-Serif" font-size="10.00">_state_variable</text>
</a>
</g>
</g>
<!-- Node3&#45;&gt;Node4 -->
<g id="edge3_Node000003_Node000004" class="edge">
<title>Node3&#45;&gt;Node4</title>
<g id="a_edge3_Node000003_Node000004"><a xlink:title=" ">
<path fill="none" stroke="#63b8ff" d="M357.53,-116.68C370.49,-118.58 384.2,-120.59 397.64,-122.56"/>
<polygon fill="#63b8ff" stroke="#63b8ff" points="397.45,-126.07 407.85,-124.05 398.46,-119.14 397.45,-126.07"/>
</a>
</g>
</g>
<!-- Node5 -->
<g id="Node000005" class="node">
<title>Node5</title>
<g id="a_Node000005"><a xlink:href="namespacepolyfem_1_1solver_1_1_adjoint_tools.html#aa7f73a425012498c55fca81fd8a24ca5" target="_top" xlink:title=" ">
<polygon fill="white" stroke="#666666" points="554,-97 420,-97 420,-56 554,-56 554,-97"/>
<text text-anchor="start" x="428" y="-85" font-family="Helvetica,sans-Serif" font-size="10.00">polyfem::solver::Adjoint</text>
<text text-anchor="start" x="428" y="-74" font-family="Helvetica,sans-Serif" font-size="10.00">Tools::map_primitive_to</text>
<text text-anchor="middle" x="487" y="-63" font-family="Helvetica,sans-Serif" font-size="10.00">_node_order</text>
</a>
</g>
</g>
<!-- Node3&#45;&gt;Node5 -->
<g id="edge4_Node000003_Node000005" class="edge">
<title>Node3&#45;&gt;Node5</title>
<g id="a_edge4_Node000003_Node000005"><a xlink:title=" ">
<path fill="none" stroke="#63b8ff" d="M357.53,-95.97C374.48,-93.4 392.7,-90.64 409.94,-88.02"/>
<polygon fill="#63b8ff" stroke="#63b8ff" points="410.6,-91.46 419.96,-86.51 409.55,-84.54 410.6,-91.46"/>
</a>
</g>
</g>
<!-- Node6 -->
<g id="Node000006" class="node">
<title>Node6</title>
<g id="a_Node000006"><a xlink:href="classpolyfem_1_1_state.html#a5eaa1d1e994fd9fe2ef287e1d623fe67" target="_top" xlink:title=" ">
<polygon fill="white" stroke="#666666" points="741,-91.5 602,-91.5 602,-61.5 741,-61.5 741,-91.5"/>
<text text-anchor="start" x="610" y="-79.5" font-family="Helvetica,sans-Serif" font-size="10.00">polyfem::State::primitive</text>
<text text-anchor="middle" x="671.5" y="-68.5" font-family="Helvetica,sans-Serif" font-size="10.00">_to_node</text>
</a>
</g>
</g>
<!-- Node5&#45;&gt;Node6 -->
<g id="edge5_Node000005_Node000006" class="edge">
<title>Node5&#45;&gt;Node6</title>
<g id="a_edge5_Node000005_Node000006"><a xlink:title=" ">
<path fill="none" stroke="#63b8ff" d="M554.14,-76.5C566.26,-76.5 579.01,-76.5 591.46,-76.5"/>
<polygon fill="#63b8ff" stroke="#63b8ff" points="591.82,-80 601.82,-76.5 591.82,-73 591.82,-80"/>
</a>
</g>
</g>
<!-- Node7 -->
<g id="Node000007" class="node">
<title>Node7</title>
<g id="a_Node000007"><a xlink:href="classpolyfem_1_1_state.html#ab956f7e3ad92b7ffc1ca1a45ee47903f" target="_top" xlink:title="check if using iso parametric bases">
<polygon fill="white" stroke="#666666" points="886,-91.5 777,-91.5 777,-61.5 886,-61.5 886,-91.5"/>
<text text-anchor="start" x="785" y="-79.5" font-family="Helvetica,sans-Serif" font-size="10.00">polyfem::State::iso</text>
<text text-anchor="middle" x="831.5" y="-68.5" font-family="Helvetica,sans-Serif" font-size="10.00">_parametric</text>
</a>
</g>
</g>
<!-- Node6&#45;&gt;Node7 -->
<g id="edge6_Node000006_Node000007" class="edge">
<title>Node6&#45;&gt;Node7</title>
<g id="a_edge6_Node000006_Node000007"><a xlink:title=" ">
<path fill="none" stroke="#63b8ff" d="M741.34,-76.5C749.74,-76.5 758.29,-76.5 766.61,-76.5"/>
<polygon fill="#63b8ff" stroke="#63b8ff" points="766.61,-80 776.61,-76.5 766.61,-73 766.61,-80"/>
</a>
</g>
</g>
<!-- Node8 -->
<g id="Node000008" class="node">
<title>Node8</title>
<g id="a_Node000008"><a xlink:href="classpolyfem_1_1_state.html#a7447e954de5980b45223f7cf49738073" target="_top" xlink:title=" ">
<polygon fill="white" stroke="#666666" points="1034,-91.5 922,-91.5 922,-61.5 1034,-61.5 1034,-91.5"/>
<text text-anchor="start" x="930" y="-79.5" font-family="Helvetica,sans-Serif" font-size="10.00">polyfem::State::has</text>
<text text-anchor="middle" x="978" y="-68.5" font-family="Helvetica,sans-Serif" font-size="10.00">_periodic_bc</text>
</a>
</g>
</g>
<!-- Node7&#45;&gt;Node8 -->
<g id="edge7_Node000007_Node000008" class="edge">
<title>Node7&#45;&gt;Node8</title>
<g id="a_edge7_Node000007_Node000008"><a xlink:title=" ">
<path fill="none" stroke="#63b8ff" d="M886.31,-76.5C894.52,-76.5 903.08,-76.5 911.51,-76.5"/>
<polygon fill="#63b8ff" stroke="#63b8ff" points="911.7,-80 921.7,-76.5 911.7,-73 911.7,-80"/>
</a>
</g>
</g>
</g>
</svg>
