<?xml version="1.0" encoding="UTF-8" standalone="no"?>
<!DOCTYPE svg PUBLIC "-//W3C//DTD SVG 1.1//EN"
 "http://www.w3.org/Graphics/SVG/1.1/DTD/svg11.dtd">
<!-- Generated by graphviz version 2.43.0 (0)
 -->
<!-- Title: polyfem::solver::TransientForm::compute_partial_gradient_unweighted Pages: 1 -->
<svg width="387pt" height="194pt"
 viewBox="0.00 0.00 387.00 194.00" xmlns="http://www.w3.org/2000/svg" xmlns:xlink="http://www.w3.org/1999/xlink">
<g id="graph0" class="graph" transform="scale(1 1) rotate(0) translate(4 190)">
<title>polyfem::solver::TransientForm::compute_partial_gradient_unweighted</title>
<!-- Node1 -->
<g id="Node000001" class="node">
<title>Node1</title>
<g id="a_Node000001"><a xlink:title=" ">
<polygon fill="#999999" stroke="#666666" points="173,-116.5 0,-116.5 0,-75.5 173,-75.5 173,-116.5"/>
<text text-anchor="start" x="8" y="-104.5" font-family="Helvetica,sans-Serif" font-size="10.00">polyfem::solver::Transient</text>
<text text-anchor="start" x="8" y="-93.5" font-family="Helvetica,sans-Serif" font-size="10.00">Form::compute_partial_gradient</text>
<text text-anchor="middle" x="86.5" y="-82.5" font-family="Helvetica,sans-Serif" font-size="10.00">_unweighted</text>
</a>
</g>
</g>
<!-- Node2 -->
<g id="Node000002" class="node">
<title>Node2</title>
<g id="a_Node000002"><a xlink:href="namespacepolyfem_1_1utils.html#ad20302c105652db61d40fbfcb81847ae" target="_top" xlink:title=" ">
<polygon fill="white" stroke="#666666" points="354.5,-186 233.5,-186 233.5,-156 354.5,-156 354.5,-186"/>
<text text-anchor="start" x="241.5" y="-174" font-family="Helvetica,sans-Serif" font-size="10.00">polyfem::utils::create</text>
<text text-anchor="middle" x="294" y="-163" font-family="Helvetica,sans-Serif" font-size="10.00">_thread_storage</text>
</a>
</g>
</g>
<!-- Node1&#45;&gt;Node2 -->
<g id="edge1_Node000001_Node000002" class="edge">
<title>Node1&#45;&gt;Node2</title>
<g id="a_edge1_Node000001_Node000002"><a xlink:title=" ">
<path fill="none" stroke="#63b8ff" d="M132.87,-116.56C155.49,-126.42 183.42,-138.01 209,-147 214.82,-149.05 220.92,-151.05 227.05,-152.97"/>
<polygon fill="#63b8ff" stroke="#63b8ff" points="226.09,-156.34 236.68,-155.91 228.14,-149.64 226.09,-156.34"/>
</a>
</g>
</g>
<!-- Node3 -->
<g id="Node000003" class="node">
<title>Node3</title>
<g id="a_Node000003"><a xlink:href="namespacepolyfem_1_1utils.html#a7ac07413a97692d41b88a610b9727b9b" target="_top" xlink:title=" ">
<polygon fill="white" stroke="#666666" points="356,-138 232,-138 232,-108 356,-108 356,-138"/>
<text text-anchor="start" x="240" y="-126" font-family="Helvetica,sans-Serif" font-size="10.00">polyfem::utils::get</text>
<text text-anchor="middle" x="294" y="-115" font-family="Helvetica,sans-Serif" font-size="10.00">_local_thread_storage</text>
</a>
</g>
</g>
<!-- Node1&#45;&gt;Node3 -->
<g id="edge2_Node000001_Node000003" class="edge">
<title>Node1&#45;&gt;Node3</title>
<g id="a_edge2_Node000001_Node000003"><a xlink:title=" ">
<path fill="none" stroke="#63b8ff" d="M173.16,-107.25C189.33,-109.38 206.09,-111.58 221.76,-113.64"/>
<polygon fill="#63b8ff" stroke="#63b8ff" points="221.51,-117.14 231.88,-114.97 222.42,-110.2 221.51,-117.14"/>
</a>
</g>
</g>
<!-- Node4 -->
<g id="Node000004" class="node">
<title>Node4</title>
<g id="a_Node000004"><a xlink:href="classpolyfem_1_1solver_1_1_transient_form.html#ab03941cc1dba20c8335de10ffdd78705" target="_top" xlink:title=" ">
<polygon fill="white" stroke="#666666" points="379,-89.5 209,-89.5 209,-48.5 379,-48.5 379,-89.5"/>
<text text-anchor="start" x="217" y="-77.5" font-family="Helvetica,sans-Serif" font-size="10.00">polyfem::solver::Transient</text>
<text text-anchor="start" x="217" y="-66.5" font-family="Helvetica,sans-Serif" font-size="10.00">Form::get_transient_quadrature</text>
<text text-anchor="middle" x="294" y="-55.5" font-family="Helvetica,sans-Serif" font-size="10.00">_weights</text>
</a>
</g>
</g>
<!-- Node1&#45;&gt;Node4 -->
<g id="edge3_Node000001_Node000004" class="edge">
<title>Node1&#45;&gt;Node4</title>
<g id="a_edge3_Node000001_Node000004"><a xlink:title=" ">
<path fill="none" stroke="#63b8ff" d="M173.16,-84.75C181.63,-83.63 190.26,-82.5 198.81,-81.38"/>
<polygon fill="#63b8ff" stroke="#63b8ff" points="199.34,-84.84 208.8,-80.06 198.43,-77.9 199.34,-84.84"/>
</a>
</g>
</g>
<!-- Node5 -->
<g id="Node000005" class="node">
<title>Node5</title>
<g id="a_Node000005"><a xlink:href="namespacepolyfem_1_1utils.html#afac51d1fd7878475ff843eef315f510c" target="_top" xlink:title=" ">
<polygon fill="white" stroke="#666666" points="356,-30 232,-30 232,0 356,0 356,-30"/>
<text text-anchor="start" x="240" y="-18" font-family="Helvetica,sans-Serif" font-size="10.00">polyfem::utils::maybe</text>
<text text-anchor="middle" x="294" y="-7" font-family="Helvetica,sans-Serif" font-size="10.00">_parallel_for</text>
</a>
</g>
</g>
<!-- Node1&#45;&gt;Node5 -->
<g id="edge4_Node000001_Node000005" class="edge">
<title>Node1&#45;&gt;Node5</title>
<g id="a_edge4_Node000001_Node000005"><a xlink:title=" ">
<path fill="none" stroke="#63b8ff" d="M128.21,-75.47C151.52,-64.16 181.51,-50.37 209,-40 215.31,-37.62 221.96,-35.31 228.63,-33.13"/>
<polygon fill="#63b8ff" stroke="#63b8ff" points="229.93,-36.39 238.4,-30.02 227.81,-29.72 229.93,-36.39"/>
</a>
</g>
</g>
</g>
</svg>
