<?xml version="1.0" encoding="UTF-8" standalone="no"?>
<!DOCTYPE svg PUBLIC "-//W3C//DTD SVG 1.1//EN"
 "http://www.w3.org/Graphics/SVG/1.1/DTD/svg11.dtd">
<!-- Generated by graphviz version 2.43.0 (0)
 -->
<!-- Title: polyfem::assembler::LinearElasticity::assign_stress_tensor Pages: 1 -->
<svg width="519pt" height="129pt"
 viewBox="0.00 0.00 519.00 129.00" xmlns="http://www.w3.org/2000/svg" xmlns:xlink="http://www.w3.org/1999/xlink">
<g id="graph0" class="graph" transform="scale(1 1) rotate(0) translate(4 125)">
<title>polyfem::assembler::LinearElasticity::assign_stress_tensor</title>
<!-- Node1 -->
<g id="node1" class="node">
<title>Node1</title>
<g id="a_node1"><a xlink:title=" ">
<polygon fill="#999999" stroke="#666666" points="119,-83.5 0,-83.5 0,-42.5 119,-42.5 119,-83.5"/>
<text text-anchor="start" x="8" y="-71.5" font-family="Helvetica,sans-Serif" font-size="10.00">polyfem::assembler</text>
<text text-anchor="start" x="8" y="-60.5" font-family="Helvetica,sans-Serif" font-size="10.00">::LinearElasticity::</text>
<text text-anchor="middle" x="59.5" y="-49.5" font-family="Helvetica,sans-Serif" font-size="10.00">assign_stress_tensor</text>
</a>
</g>
</g>
<!-- Node2 -->
<g id="node2" class="node">
<title>Node2</title>
<g id="a_node2"><a xlink:href="namespacepolyfem.html#afe7d5ac326e47bbc47caa5539c4f8172" target="_top" xlink:title=" ">
<polygon fill="white" stroke="#666666" points="354,-115.5 155,-115.5 155,-96.5 354,-96.5 354,-115.5"/>
<text text-anchor="middle" x="254.5" y="-103.5" font-family="Helvetica,sans-Serif" font-size="10.00">polyfem::compute_diplacement_grad</text>
</a>
</g>
</g>
<!-- Node1&#45;&gt;Node2 -->
<g id="edge1" class="edge">
<title>Node1&#45;&gt;Node2</title>
<path fill="none" stroke="#63b8ff" d="M119.1,-78.45C130.95,-81.41 143.35,-84.4 155,-87 166.62,-89.59 179.06,-92.16 191.05,-94.52"/>
<polygon fill="#63b8ff" stroke="#63b8ff" points="190.5,-97.98 200.99,-96.46 191.84,-91.11 190.5,-97.98"/>
</g>
<!-- Node4 -->
<g id="node4" class="node">
<title>Node4</title>
<g id="a_node4"><a xlink:href="classpolyfem_1_1assembler_1_1_lame_parameters.html#ab0fae1aa60ff63c1489b810353f0964c" target="_top" xlink:title=" ">
<polygon fill="white" stroke="#666666" points="339,-78 170,-78 170,-48 339,-48 339,-78"/>
<text text-anchor="start" x="178" y="-66" font-family="Helvetica,sans-Serif" font-size="10.00">polyfem::assembler</text>
<text text-anchor="middle" x="254.5" y="-55" font-family="Helvetica,sans-Serif" font-size="10.00">::LameParameters::lambda_mu</text>
</a>
</g>
</g>
<!-- Node1&#45;&gt;Node4 -->
<g id="edge3" class="edge">
<title>Node1&#45;&gt;Node4</title>
<path fill="none" stroke="#63b8ff" d="M119.19,-63C132.04,-63 145.96,-63 159.79,-63"/>
<polygon fill="#63b8ff" stroke="#63b8ff" points="159.84,-66.5 169.84,-63 159.84,-59.5 159.84,-66.5"/>
</g>
<!-- Node5 -->
<g id="node5" class="node">
<title>Node5</title>
<g id="a_node5"><a xlink:href="classpolyfem_1_1assembler_1_1_linear_elasticity.html#aec319cc4d5bd48c7369358fc6c25a76e" target="_top" xlink:title=" ">
<polygon fill="white" stroke="#666666" points="315.5,-30 193.5,-30 193.5,0 315.5,0 315.5,-30"/>
<text text-anchor="start" x="201.5" y="-18" font-family="Helvetica,sans-Serif" font-size="10.00">polyfem::assembler</text>
<text text-anchor="middle" x="254.5" y="-7" font-family="Helvetica,sans-Serif" font-size="10.00">::LinearElasticity::size</text>
</a>
</g>
</g>
<!-- Node1&#45;&gt;Node5 -->
<g id="edge4" class="edge">
<title>Node1&#45;&gt;Node5</title>
<path fill="none" stroke="#63b8ff" d="M119.21,-48C131.05,-45 143.42,-41.88 155,-39 164.19,-36.71 173.87,-34.33 183.43,-31.99"/>
<polygon fill="#63b8ff" stroke="#63b8ff" points="184.43,-35.34 193.31,-29.57 182.77,-28.54 184.43,-35.34"/>
</g>
<!-- Node3 -->
<g id="node3" class="node">
<title>Node3</title>
<g id="a_node3"><a xlink:href="classpolyfem_1_1basis_1_1_basis.html#a88b90af0c63d52f2c91fe97a63c540ce" target="_top" xlink:title=" ">
<polygon fill="white" stroke="#666666" points="511,-121 390,-121 390,-91 511,-91 511,-121"/>
<text text-anchor="start" x="398" y="-109" font-family="Helvetica,sans-Serif" font-size="10.00">polyfem::basis::Basis</text>
<text text-anchor="middle" x="450.5" y="-98" font-family="Helvetica,sans-Serif" font-size="10.00">::global</text>
</a>
</g>
</g>
<!-- Node2&#45;&gt;Node3 -->
<g id="edge2" class="edge">
<title>Node2&#45;&gt;Node3</title>
<path fill="none" stroke="#63b8ff" d="M354.21,-106C362.86,-106 371.49,-106 379.83,-106"/>
<polygon fill="#63b8ff" stroke="#63b8ff" points="379.84,-109.5 389.84,-106 379.84,-102.5 379.84,-109.5"/>
</g>
</g>
</svg>
