<?xml version="1.0" encoding="UTF-8" standalone="no"?>
<!DOCTYPE svg PUBLIC "-//W3C//DTD SVG 1.1//EN"
 "http://www.w3.org/Graphics/SVG/1.1/DTD/svg11.dtd">
<!-- Generated by graphviz version 2.43.0 (0)
 -->
<!-- Title: polyfem::mesh::Mesh::n_face_vertices Pages: 1 -->
<svg width="1700pt" height="706pt"
 viewBox="0.00 0.00 1700.00 706.00" xmlns="http://www.w3.org/2000/svg" xmlns:xlink="http://www.w3.org/1999/xlink">
<g id="graph0" class="graph" transform="scale(1 1) rotate(0) translate(4 702)">
<title>polyfem::mesh::Mesh::n_face_vertices</title>
<!-- Node1 -->
<g id="Node000001" class="node">
<title>Node1</title>
<g id="a_Node000001"><a xlink:title="number of vertices of a face">
<polygon fill="#999999" stroke="#666666" points="1692,-332 1570,-332 1570,-302 1692,-302 1692,-332"/>
<text text-anchor="start" x="1578" y="-320" font-family="Helvetica,sans-Serif" font-size="10.00">polyfem::mesh::Mesh</text>
<text text-anchor="middle" x="1631" y="-309" font-family="Helvetica,sans-Serif" font-size="10.00">::n_face_vertices</text>
</a>
</g>
</g>
<!-- Node2 -->
<g id="Node000002" class="node">
<title>Node2</title>
<g id="a_Node000002"><a xlink:href="classpolyfem_1_1basis_1_1_barycentric_basis2d.html#a2703ee0b52b532c9921bec4624d846da" target="_top" xlink:title=" ">
<polygon fill="white" stroke="#666666" points="1515.5,-650 1365.5,-650 1365.5,-620 1515.5,-620 1515.5,-650"/>
<text text-anchor="start" x="1373.5" y="-638" font-family="Helvetica,sans-Serif" font-size="10.00">polyfem::basis::Barycentric</text>
<text text-anchor="middle" x="1440.5" y="-627" font-family="Helvetica,sans-Serif" font-size="10.00">Basis2d::build_bases</text>
</a>
</g>
</g>
<!-- Node1&#45;&gt;Node2 -->
<g id="edge1_Node000001_Node000002" class="edge">
<title>Node1&#45;&gt;Node2</title>
<g id="a_edge1_Node000001_Node000002"><a xlink:title=" ">
<path fill="none" stroke="#63b8ff" d="M1629.12,-342.19C1625.78,-398.03 1609.84,-533.09 1534,-607 1528.71,-612.15 1522.51,-616.36 1515.86,-619.8"/>
<polygon fill="#63b8ff" stroke="#63b8ff" points="1632.62,-342.29 1629.63,-332.12 1625.63,-341.93 1632.62,-342.29"/>
</a>
</g>
</g>
<!-- Node10 -->
<g id="Node000010" class="node">
<title>Node10</title>
<g id="a_Node000010"><a xlink:href="classpolyfem_1_1io_1_1_out_geometry_data.html#a0973670568a6c11dca7ae90d0024395e" target="_top" xlink:title="builds high&#45;der visualzation mesh per element all disconnected it also retuns the mapping to element ...">
<polygon fill="white" stroke="#666666" points="1512.5,-511.5 1368.5,-511.5 1368.5,-470.5 1512.5,-470.5 1512.5,-511.5"/>
<text text-anchor="start" x="1376.5" y="-499.5" font-family="Helvetica,sans-Serif" font-size="10.00">polyfem::io::OutGeometry</text>
<text text-anchor="start" x="1376.5" y="-488.5" font-family="Helvetica,sans-Serif" font-size="10.00">Data::build_high_order</text>
<text text-anchor="middle" x="1440.5" y="-477.5" font-family="Helvetica,sans-Serif" font-size="10.00">_vis_mesh</text>
</a>
</g>
</g>
<!-- Node1&#45;&gt;Node10 -->
<g id="edge10_Node000001_Node000010" class="edge">
<title>Node1&#45;&gt;Node10</title>
<g id="a_edge10_Node000001_Node000010"><a xlink:title=" ">
<path fill="none" stroke="#63b8ff" d="M1619.85,-341.56C1605.4,-373.58 1575.93,-429.24 1534,-461 1527.54,-465.89 1520.25,-470.01 1512.67,-473.46"/>
<polygon fill="#63b8ff" stroke="#63b8ff" points="1623.21,-342.62 1624.01,-332.05 1616.8,-339.81 1623.21,-342.62"/>
</a>
</g>
</g>
<!-- Node11 -->
<g id="Node000011" class="node">
<title>Node11</title>
<g id="a_Node000011"><a xlink:href="classpolyfem_1_1io_1_1_out_geometry_data.html#a79dfcef5587ebfc0a492f4beff251d01" target="_top" xlink:title="saves the volume vtu file">
<polygon fill="white" stroke="#666666" points="1304,-506 1160,-506 1160,-476 1304,-476 1304,-506"/>
<text text-anchor="start" x="1168" y="-494" font-family="Helvetica,sans-Serif" font-size="10.00">polyfem::io::OutGeometry</text>
<text text-anchor="middle" x="1232" y="-483" font-family="Helvetica,sans-Serif" font-size="10.00">Data::save_volume</text>
</a>
</g>
</g>
<!-- Node1&#45;&gt;Node11 -->
<g id="edge51_Node000001_Node000011" class="edge">
<title>Node1&#45;&gt;Node11</title>
<g id="a_edge51_Node000001_Node000011"><a xlink:title=" ">
<path fill="none" stroke="#63b8ff" d="M1626.76,-342.19C1619.44,-387.33 1597.05,-480.99 1534,-521 1463.83,-565.53 1429.42,-531.66 1347,-521 1324.27,-518.06 1299.61,-511.95 1279.05,-506.01"/>
<polygon fill="#63b8ff" stroke="#63b8ff" points="1630.25,-342.48 1628.28,-332.07 1623.33,-341.44 1630.25,-342.48"/>
</a>
</g>
</g>
<!-- Node25 -->
<g id="Node000025" class="node">
<title>Node25</title>
<g id="a_Node000025"><a xlink:href="namespacepolyfem_1_1basis.html#a499aa1c6971b36fc766d06a74a7e1482" target="_top" xlink:title=" ">
<polygon fill="white" stroke="#666666" points="1509,-598 1372,-598 1372,-568 1509,-568 1509,-598"/>
<text text-anchor="start" x="1380" y="-586" font-family="Helvetica,sans-Serif" font-size="10.00">polyfem::basis::compute</text>
<text text-anchor="middle" x="1440.5" y="-575" font-family="Helvetica,sans-Serif" font-size="10.00">_epsilon</text>
</a>
</g>
</g>
<!-- Node1&#45;&gt;Node25 -->
<g id="edge34_Node000001_Node000025" class="edge">
<title>Node1&#45;&gt;Node25</title>
<g id="a_edge34_Node000001_Node000025"><a xlink:title=" ">
<path fill="none" stroke="#63b8ff" d="M1626.86,-342.47C1619.56,-390.74 1596.98,-495.93 1534,-554 1526.82,-560.62 1518.15,-565.72 1509.03,-569.67"/>
<polygon fill="#63b8ff" stroke="#63b8ff" points="1630.37,-342.66 1628.3,-332.27 1623.44,-341.68 1630.37,-342.66"/>
</a>
</g>
</g>
<!-- Node28 -->
<g id="Node000028" class="node">
<title>Node28</title>
<g id="a_Node000028"><a xlink:href="classpolyfem_1_1mesh_1_1_mesh2_d.html#a082d08ab7c5377d72bb4301f91376021" target="_top" xlink:title="constructs a box around every element (3d cell, 2d face)">
<polygon fill="white" stroke="#666666" points="1508.5,-452 1372.5,-452 1372.5,-422 1508.5,-422 1508.5,-452"/>
<text text-anchor="start" x="1380.5" y="-440" font-family="Helvetica,sans-Serif" font-size="10.00">polyfem::mesh::Mesh2D</text>
<text text-anchor="middle" x="1440.5" y="-429" font-family="Helvetica,sans-Serif" font-size="10.00">::elements_boxes</text>
</a>
</g>
</g>
<!-- Node1&#45;&gt;Node28 -->
<g id="edge39_Node000001_Node000028" class="edge">
<title>Node1&#45;&gt;Node28</title>
<g id="a_edge39_Node000001_Node000028"><a xlink:title=" ">
<path fill="none" stroke="#63b8ff" d="M1612.79,-340.29C1595.33,-362.26 1566.33,-394.5 1534,-413 1526.22,-417.45 1517.61,-421.09 1508.86,-424.06"/>
<polygon fill="#63b8ff" stroke="#63b8ff" points="1615.74,-342.19 1619.11,-332.14 1610.21,-337.9 1615.74,-342.19"/>
</a>
</g>
</g>
<!-- Node29 -->
<g id="Node000029" class="node">
<title>Node29</title>
<g id="a_Node000029"><a xlink:href="namespacepolyfem_1_1mesh.html#ad5d500b681dc6c18ea395e2a4424dff8" target="_top" xlink:title="Extract polyhedra from a 3D volumetric mesh.">
<polygon fill="white" stroke="#666666" points="1506,-404 1375,-404 1375,-374 1506,-374 1506,-404"/>
<text text-anchor="start" x="1383" y="-392" font-family="Helvetica,sans-Serif" font-size="10.00">polyfem::mesh::extract</text>
<text text-anchor="middle" x="1440.5" y="-381" font-family="Helvetica,sans-Serif" font-size="10.00">_polyhedra</text>
</a>
</g>
</g>
<!-- Node1&#45;&gt;Node29 -->
<g id="edge40_Node000001_Node000029" class="edge">
<title>Node1&#45;&gt;Node29</title>
<g id="a_edge40_Node000001_Node000029"><a xlink:title=" ">
<path fill="none" stroke="#63b8ff" d="M1594.5,-336.99C1576.73,-346.41 1554.65,-357.26 1534,-365 1525.15,-368.32 1515.65,-371.35 1506.23,-374.06"/>
<polygon fill="#63b8ff" stroke="#63b8ff" points="1596.22,-340.04 1603.37,-332.22 1592.91,-333.87 1596.22,-340.04"/>
</a>
</g>
</g>
<!-- Node30 -->
<g id="Node000030" class="node">
<title>Node30</title>
<g id="a_Node000030"><a xlink:href="classpolyfem_1_1mesh_1_1_mesh2_d.html#a47f4f34ea25a5a7e1026121999cbf8d4" target="_top" xlink:title="face barycenter">
<polygon fill="white" stroke="#666666" points="1508.5,-356 1372.5,-356 1372.5,-326 1508.5,-326 1508.5,-356"/>
<text text-anchor="start" x="1380.5" y="-344" font-family="Helvetica,sans-Serif" font-size="10.00">polyfem::mesh::Mesh2D</text>
<text text-anchor="middle" x="1440.5" y="-333" font-family="Helvetica,sans-Serif" font-size="10.00">::face_barycenter</text>
</a>
</g>
</g>
<!-- Node1&#45;&gt;Node30 -->
<g id="edge41_Node000001_Node000030" class="edge">
<title>Node1&#45;&gt;Node30</title>
<g id="a_edge41_Node000001_Node000030"><a xlink:title=" ">
<path fill="none" stroke="#63b8ff" d="M1559.6,-325.96C1542.91,-328.09 1525.15,-330.35 1508.61,-332.46"/>
<polygon fill="#63b8ff" stroke="#63b8ff" points="1560.36,-329.39 1569.84,-324.66 1559.48,-322.45 1560.36,-329.39"/>
</a>
</g>
</g>
<!-- Node34 -->
<g id="Node000034" class="node">
<title>Node34</title>
<g id="a_Node000034"><a xlink:href="classpolyfem_1_1mesh_1_1_mesh.html#ad07dcb246770556ead116247fcad1da5" target="_top" xlink:title="list of sorted faces.">
<polygon fill="white" stroke="#666666" points="1501.5,-308 1379.5,-308 1379.5,-278 1501.5,-278 1501.5,-308"/>
<text text-anchor="start" x="1387.5" y="-296" font-family="Helvetica,sans-Serif" font-size="10.00">polyfem::mesh::Mesh</text>
<text text-anchor="middle" x="1440.5" y="-285" font-family="Helvetica,sans-Serif" font-size="10.00">::faces</text>
</a>
</g>
</g>
<!-- Node1&#45;&gt;Node34 -->
<g id="edge45_Node000001_Node000034" class="edge">
<title>Node1&#45;&gt;Node34</title>
<g id="a_edge45_Node000001_Node000034"><a xlink:title=" ">
<path fill="none" stroke="#63b8ff" d="M1559.72,-308.05C1540.65,-305.62 1520.19,-303.02 1501.74,-300.67"/>
<polygon fill="#63b8ff" stroke="#63b8ff" points="1559.48,-311.55 1569.84,-309.34 1560.36,-304.61 1559.48,-311.55"/>
</a>
</g>
</g>
<!-- Node36 -->
<g id="Node000036" class="node">
<title>Node36</title>
<g id="a_Node000036"><a xlink:href="classpolyfem_1_1mesh_1_1_mesh.html#a870ccdba92d3735bdc3541c84f9815ec" target="_top" xlink:title="map from face (tuple of v id) to the id of the face">
<polygon fill="white" stroke="#666666" points="1501.5,-260 1379.5,-260 1379.5,-230 1501.5,-230 1501.5,-260"/>
<text text-anchor="start" x="1387.5" y="-248" font-family="Helvetica,sans-Serif" font-size="10.00">polyfem::mesh::Mesh</text>
<text text-anchor="middle" x="1440.5" y="-237" font-family="Helvetica,sans-Serif" font-size="10.00">::faces_to_ids</text>
</a>
</g>
</g>
<!-- Node1&#45;&gt;Node36 -->
<g id="edge47_Node000001_Node000036" class="edge">
<title>Node1&#45;&gt;Node36</title>
<g id="a_edge47_Node000001_Node000036"><a xlink:title=" ">
<path fill="none" stroke="#63b8ff" d="M1594.5,-297.01C1576.73,-287.59 1554.65,-276.74 1534,-269 1523.75,-265.16 1512.63,-261.7 1501.78,-258.68"/>
<polygon fill="#63b8ff" stroke="#63b8ff" points="1592.91,-300.13 1603.37,-301.78 1596.22,-293.96 1592.91,-300.13"/>
</a>
</g>
</g>
<!-- Node37 -->
<g id="Node000037" class="node">
<title>Node37</title>
<g id="a_Node000037"><a xlink:href="classpolyfem_1_1mesh_1_1_mesh2_d.html#a7b5ce1cd9d3337d3eb7a57101f109a08" target="_top" xlink:title="Get all the edges according to valid_elements selection.">
<polygon fill="white" stroke="#666666" points="1508.5,-212 1372.5,-212 1372.5,-182 1508.5,-182 1508.5,-212"/>
<text text-anchor="start" x="1380.5" y="-200" font-family="Helvetica,sans-Serif" font-size="10.00">polyfem::mesh::Mesh2D</text>
<text text-anchor="middle" x="1440.5" y="-189" font-family="Helvetica,sans-Serif" font-size="10.00">::get_edges</text>
</a>
</g>
</g>
<!-- Node1&#45;&gt;Node37 -->
<g id="edge48_Node000001_Node000037" class="edge">
<title>Node1&#45;&gt;Node37</title>
<g id="a_edge48_Node000001_Node000037"><a xlink:title=" ">
<path fill="none" stroke="#63b8ff" d="M1612.79,-293.71C1595.33,-271.74 1566.33,-239.5 1534,-221 1526.22,-216.55 1517.61,-212.91 1508.86,-209.94"/>
<polygon fill="#63b8ff" stroke="#63b8ff" points="1610.21,-296.1 1619.11,-301.86 1615.74,-291.81 1610.21,-296.1"/>
</a>
</g>
</g>
<!-- Node38 -->
<g id="Node000038" class="node">
<title>Node38</title>
<g id="a_Node000038"><a xlink:href="classpolyfem_1_1io_1_1_evaluator.html#a018d5895da038557902f72ad0bef27a4" target="_top" xlink:title="returns a triangulated representation of the sideset.">
<polygon fill="white" stroke="#666666" points="1503,-164 1378,-164 1378,-134 1503,-134 1503,-164"/>
<text text-anchor="start" x="1386" y="-152" font-family="Helvetica,sans-Serif" font-size="10.00">polyfem::io::Evaluator</text>
<text text-anchor="middle" x="1440.5" y="-141" font-family="Helvetica,sans-Serif" font-size="10.00">::get_sidesets</text>
</a>
</g>
</g>
<!-- Node1&#45;&gt;Node38 -->
<g id="edge49_Node000001_Node000038" class="edge">
<title>Node1&#45;&gt;Node38</title>
<g id="a_edge49_Node000001_Node000038"><a xlink:title=" ">
<path fill="none" stroke="#63b8ff" d="M1620.31,-292.48C1606.24,-260.1 1577.04,-203.62 1534,-173 1524.81,-166.46 1513.97,-161.7 1503.01,-158.24"/>
<polygon fill="#63b8ff" stroke="#63b8ff" points="1617.09,-293.84 1624.19,-301.7 1623.54,-291.12 1617.09,-293.84"/>
</a>
</g>
</g>
<!-- Node39 -->
<g id="Node000039" class="node">
<title>Node39</title>
<g id="a_Node000039"><a xlink:href="classpolyfem_1_1mesh_1_1_mesh2_d.html#ab2a7353c953350931ca9de7bd1a3bd17" target="_top" xlink:title="number of vertices of a cell">
<polygon fill="white" stroke="#666666" points="1508.5,-116 1372.5,-116 1372.5,-86 1508.5,-86 1508.5,-116"/>
<text text-anchor="start" x="1380.5" y="-104" font-family="Helvetica,sans-Serif" font-size="10.00">polyfem::mesh::Mesh2D</text>
<text text-anchor="middle" x="1440.5" y="-93" font-family="Helvetica,sans-Serif" font-size="10.00">::n_cell_vertices</text>
</a>
</g>
</g>
<!-- Node1&#45;&gt;Node39 -->
<g id="edge50_Node000001_Node000039" class="edge">
<title>Node1&#45;&gt;Node39</title>
<g id="a_edge50_Node000001_Node000039"><a xlink:title=" ">
<path fill="none" stroke="#63b8ff" d="M1624.6,-292.06C1614.35,-250.86 1588.09,-168.79 1534,-125 1526.65,-119.05 1517.99,-114.56 1508.96,-111.17"/>
<polygon fill="#63b8ff" stroke="#63b8ff" points="1621.21,-292.92 1626.92,-301.84 1628.02,-291.3 1621.21,-292.92"/>
</a>
</g>
</g>
<!-- Node40 -->
<g id="Node000040" class="node">
<title>Node40</title>
<g id="a_Node000040"><a xlink:href="namespacepolyfem_1_1mesh.html#ad071b94c821ca0409fc672bd5c520bda" target="_top" xlink:title="Converts a hex mesh to a Geogram mesh.">
<polygon fill="white" stroke="#666666" points="1534,-67.5 1347,-67.5 1347,-48.5 1534,-48.5 1534,-67.5"/>
<text text-anchor="middle" x="1440.5" y="-55.5" font-family="Helvetica,sans-Serif" font-size="10.00">polyfem::mesh::to_geogram_mesh</text>
</a>
</g>
</g>
<!-- Node1&#45;&gt;Node40 -->
<g id="edge52_Node000001_Node000040" class="edge">
<title>Node1&#45;&gt;Node40</title>
<g id="a_edge52_Node000001_Node000040"><a xlink:title=" ">
<path fill="none" stroke="#63b8ff" d="M1627.62,-291.65C1621.55,-242.22 1600.89,-132.94 1534,-77 1529.47,-73.21 1524.39,-70.12 1519,-67.59"/>
<polygon fill="#63b8ff" stroke="#63b8ff" points="1624.16,-292.24 1628.76,-301.79 1631.12,-291.46 1624.16,-292.24"/>
</a>
</g>
</g>
<!-- Node41 -->
<g id="Node000041" class="node">
<title>Node41</title>
<g id="a_Node000041"><a xlink:href="classpolyfem_1_1mesh_1_1_mesh3_d.html#a1b5b3fbdccaa5a9311452defaa3c95e0" target="_top" xlink:title="area of a tri face of a tet mesh">
<polygon fill="white" stroke="#666666" points="1508.5,-30 1372.5,-30 1372.5,0 1508.5,0 1508.5,-30"/>
<text text-anchor="start" x="1380.5" y="-18" font-family="Helvetica,sans-Serif" font-size="10.00">polyfem::mesh::Mesh3D</text>
<text text-anchor="middle" x="1440.5" y="-7" font-family="Helvetica,sans-Serif" font-size="10.00">::tri_area</text>
</a>
</g>
</g>
<!-- Node1&#45;&gt;Node41 -->
<g id="edge53_Node000001_Node000041" class="edge">
<title>Node1&#45;&gt;Node41</title>
<g id="a_edge53_Node000001_Node000041"><a xlink:title=" ">
<path fill="none" stroke="#63b8ff" d="M1628.9,-291.5C1625.13,-236.83 1608.37,-107.74 1534,-39 1526.81,-32.36 1518.02,-27.5 1508.75,-23.96"/>
<polygon fill="#63b8ff" stroke="#63b8ff" points="1625.42,-291.92 1629.51,-301.7 1632.41,-291.51 1625.42,-291.92"/>
</a>
</g>
</g>
<!-- Node3 -->
<g id="Node000003" class="node">
<title>Node3</title>
<g id="a_Node000003"><a xlink:href="classpolyfem_1_1basis_1_1_m_v_polygonal_basis2d.html#a96c68c7820d06a39ee2948b548c4a64d" target="_top" xlink:title=" ">
<polygon fill="white" stroke="#666666" points="1311,-650 1153,-650 1153,-620 1311,-620 1311,-650"/>
<text text-anchor="start" x="1161" y="-638" font-family="Helvetica,sans-Serif" font-size="10.00">polyfem::basis::MVPolygonal</text>
<text text-anchor="middle" x="1232" y="-627" font-family="Helvetica,sans-Serif" font-size="10.00">Basis2d::build_bases</text>
</a>
</g>
</g>
<!-- Node2&#45;&gt;Node3 -->
<g id="edge2_Node000002_Node000003" class="edge">
<title>Node2&#45;&gt;Node3</title>
<g id="a_edge2_Node000002_Node000003"><a xlink:title=" ">
<path fill="none" stroke="#63b8ff" d="M1354.82,-635C1340.36,-635 1325.4,-635 1311.13,-635"/>
<polygon fill="#63b8ff" stroke="#63b8ff" points="1355.24,-638.5 1365.24,-635 1355.24,-631.5 1355.24,-638.5"/>
</a>
</g>
</g>
<!-- Node9 -->
<g id="Node000009" class="node">
<title>Node9</title>
<g id="a_Node000009"><a xlink:href="classpolyfem_1_1basis_1_1_w_s_polygonal_basis2d.html#a5fe45bd8fb2b0b8d16e20d7eab13296a" target="_top" xlink:title=" ">
<polygon fill="white" stroke="#666666" points="1311,-698 1153,-698 1153,-668 1311,-668 1311,-698"/>
<text text-anchor="start" x="1161" y="-686" font-family="Helvetica,sans-Serif" font-size="10.00">polyfem::basis::WSPolygonal</text>
<text text-anchor="middle" x="1232" y="-675" font-family="Helvetica,sans-Serif" font-size="10.00">Basis2d::build_bases</text>
</a>
</g>
</g>
<!-- Node2&#45;&gt;Node9 -->
<g id="edge8_Node000002_Node000009" class="edge">
<title>Node2&#45;&gt;Node9</title>
<g id="a_edge8_Node000002_Node000009"><a xlink:title=" ">
<path fill="none" stroke="#63b8ff" d="M1364.76,-652.37C1342.75,-657.49 1318.86,-663.04 1297.54,-668"/>
<polygon fill="#63b8ff" stroke="#63b8ff" points="1365.78,-655.73 1374.73,-650.06 1364.2,-648.91 1365.78,-655.73"/>
</a>
</g>
</g>
<!-- Node4 -->
<g id="Node000004" class="node">
<title>Node4</title>
<g id="a_Node000004"><a xlink:href="classpolyfem_1_1_state.html#a202f2494b8f46d4bf22edfc0a36ddb32" target="_top" xlink:title="builds bases for polygons, called inside build_basis">
<polygon fill="white" stroke="#666666" points="1104.5,-613 985.5,-613 985.5,-583 1104.5,-583 1104.5,-613"/>
<text text-anchor="start" x="993.5" y="-601" font-family="Helvetica,sans-Serif" font-size="10.00">polyfem::State::build</text>
<text text-anchor="middle" x="1045" y="-590" font-family="Helvetica,sans-Serif" font-size="10.00">_polygonal_basis</text>
</a>
</g>
</g>
<!-- Node3&#45;&gt;Node4 -->
<g id="edge3_Node000003_Node000004" class="edge">
<title>Node3&#45;&gt;Node4</title>
<g id="a_edge3_Node000003_Node000004"><a xlink:title=" ">
<path fill="none" stroke="#63b8ff" d="M1145.71,-617.94C1131.85,-615.17 1117.77,-612.35 1104.73,-609.75"/>
<polygon fill="#63b8ff" stroke="#63b8ff" points="1145.26,-621.42 1155.75,-619.95 1146.63,-614.56 1145.26,-621.42"/>
</a>
</g>
</g>
<!-- Node5 -->
<g id="Node000005" class="node">
<title>Node5</title>
<g id="a_Node000005"><a xlink:href="classpolyfem_1_1_state.html#a75cfcf28f3bc27e8e30b41c7347c799b" target="_top" xlink:title="builds the bases step 2 of solve modifies bases, pressure_bases, geom_bases_, boundary_nodes,...">
<polygon fill="white" stroke="#666666" points="383,-592 264,-592 264,-562 383,-562 383,-592"/>
<text text-anchor="start" x="272" y="-580" font-family="Helvetica,sans-Serif" font-size="10.00">polyfem::State::build</text>
<text text-anchor="middle" x="323.5" y="-569" font-family="Helvetica,sans-Serif" font-size="10.00">_basis</text>
</a>
</g>
</g>
<!-- Node4&#45;&gt;Node5 -->
<g id="edge4_Node000004_Node000005" class="edge">
<title>Node4&#45;&gt;Node5</title>
<g id="a_edge4_Node000004_Node000005"><a xlink:title=" ">
<path fill="none" stroke="#63b8ff" d="M975.19,-595.99C834.3,-591.88 515.16,-582.56 383.25,-578.71"/>
<polygon fill="#63b8ff" stroke="#63b8ff" points="975.33,-599.5 985.43,-596.29 975.53,-592.5 975.33,-599.5"/>
</a>
</g>
</g>
<!-- Node6 -->
<g id="Node000006" class="node">
<title>Node6</title>
<g id="a_Node000006"><a xlink:href="main_8cpp.html#a48e4775e12bdf81ebb0eaa27df888aa0" target="_top" xlink:title=" ">
<polygon fill="white" stroke="#666666" points="199.5,-543.5 88.5,-543.5 88.5,-524.5 199.5,-524.5 199.5,-543.5"/>
<text text-anchor="middle" x="144" y="-531.5" font-family="Helvetica,sans-Serif" font-size="10.00">forward_simulation</text>
</a>
</g>
</g>
<!-- Node5&#45;&gt;Node6 -->
<g id="edge5_Node000005_Node000006" class="edge">
<title>Node5&#45;&gt;Node6</title>
<g id="a_edge5_Node000005_Node000006"><a xlink:title=" ">
<path fill="none" stroke="#63b8ff" d="M253.92,-560.39C230.31,-554.67 204.7,-548.46 184.24,-543.51"/>
<polygon fill="#63b8ff" stroke="#63b8ff" points="253.34,-563.85 263.89,-562.8 254.99,-557.04 253.34,-563.85"/>
</a>
</g>
</g>
<!-- Node8 -->
<g id="Node000008" class="node">
<title>Node8</title>
<g id="a_Node000008"><a xlink:href="classpolyfem_1_1_state.html#a219f9935d918f739d82488449bd4cbf4" target="_top" xlink:title="solves the problem, call other methods">
<polygon fill="white" stroke="#666666" points="204.5,-583.5 83.5,-583.5 83.5,-564.5 204.5,-564.5 204.5,-583.5"/>
<text text-anchor="middle" x="144" y="-571.5" font-family="Helvetica,sans-Serif" font-size="10.00">polyfem::State::solve</text>
</a>
</g>
</g>
<!-- Node5&#45;&gt;Node8 -->
<g id="edge7_Node000005_Node000008" class="edge">
<title>Node5&#45;&gt;Node8</title>
<g id="a_edge7_Node000005_Node000008"><a xlink:title=" ">
<path fill="none" stroke="#63b8ff" d="M253.48,-575.83C237.4,-575.56 220.41,-575.27 204.76,-575.01"/>
<polygon fill="#63b8ff" stroke="#63b8ff" points="253.83,-579.34 263.89,-576.01 253.95,-572.34 253.83,-579.34"/>
</a>
</g>
</g>
<!-- Node7 -->
<g id="Node000007" class="node">
<title>Node7</title>
<g id="a_Node000007"><a xlink:href="main_8cpp.html#a3c04138a5bfe5d72780bb7e82a18e627" target="_top" xlink:title=" ">
<polygon fill="white" stroke="#666666" points="41,-543.5 0,-543.5 0,-524.5 41,-524.5 41,-543.5"/>
<text text-anchor="middle" x="20.5" y="-531.5" font-family="Helvetica,sans-Serif" font-size="10.00">main</text>
</a>
</g>
</g>
<!-- Node6&#45;&gt;Node7 -->
<g id="edge6_Node000006_Node000007" class="edge">
<title>Node6&#45;&gt;Node7</title>
<g id="a_edge6_Node000006_Node000007"><a xlink:title=" ">
<path fill="none" stroke="#63b8ff" d="M77.97,-534C64.49,-534 51.29,-534 41.05,-534"/>
<polygon fill="#63b8ff" stroke="#63b8ff" points="78.29,-537.5 88.29,-534 78.29,-530.5 78.29,-537.5"/>
</a>
</g>
</g>
<!-- Node9&#45;&gt;Node4 -->
<g id="edge9_Node000009_Node000004" class="edge">
<title>Node9&#45;&gt;Node4</title>
<g id="a_edge9_Node000009_Node000004"><a xlink:title=" ">
<path fill="none" stroke="#63b8ff" d="M1167.29,-664.68C1162.41,-662.89 1157.6,-660.99 1153,-659 1122.78,-645.92 1090.2,-626.51 1069.03,-613.11"/>
<polygon fill="#63b8ff" stroke="#63b8ff" points="1166.14,-667.98 1176.73,-667.99 1168.46,-661.38 1166.14,-667.98"/>
</a>
</g>
</g>
<!-- Node10&#45;&gt;Node11 -->
<g id="edge11_Node000010_Node000011" class="edge">
<title>Node10&#45;&gt;Node11</title>
<g id="a_edge11_Node000010_Node000011"><a xlink:title=" ">
<path fill="none" stroke="#63b8ff" d="M1358.07,-491C1340.27,-491 1321.56,-491 1304.2,-491"/>
<polygon fill="#63b8ff" stroke="#63b8ff" points="1358.43,-494.5 1368.43,-491 1358.43,-487.5 1358.43,-494.5"/>
</a>
</g>
</g>
<!-- Node12 -->
<g id="Node000012" class="node">
<title>Node12</title>
<g id="a_Node000012"><a xlink:href="classpolyfem_1_1io_1_1_out_geometry_data.html#aa3fbccda3a6e6f7fd5a7b3bcbd146793" target="_top" xlink:title="saves the vtu file for time t">
<polygon fill="white" stroke="#666666" points="1117,-506 973,-506 973,-476 1117,-476 1117,-506"/>
<text text-anchor="start" x="981" y="-494" font-family="Helvetica,sans-Serif" font-size="10.00">polyfem::io::OutGeometry</text>
<text text-anchor="middle" x="1045" y="-483" font-family="Helvetica,sans-Serif" font-size="10.00">Data::save_vtu</text>
</a>
</g>
</g>
<!-- Node11&#45;&gt;Node12 -->
<g id="edge12_Node000011_Node000012" class="edge">
<title>Node11&#45;&gt;Node12</title>
<g id="a_edge12_Node000011_Node000012"><a xlink:title=" ">
<path fill="none" stroke="#63b8ff" d="M1149.51,-491C1138.75,-491 1127.79,-491 1117.22,-491"/>
<polygon fill="#63b8ff" stroke="#63b8ff" points="1149.74,-494.5 1159.74,-491 1149.74,-487.5 1149.74,-494.5"/>
</a>
</g>
</g>
<!-- Node13 -->
<g id="Node000013" class="node">
<title>Node13</title>
<g id="a_Node000013"><a xlink:href="classpolyfem_1_1io_1_1_out_geometry_data.html#a9826defd7d8f3c4c12df2ba9c4c45320" target="_top" xlink:title="exports everytihng, txt, vtu, etc">
<polygon fill="white" stroke="#666666" points="937,-568 793,-568 793,-538 937,-538 937,-568"/>
<text text-anchor="start" x="801" y="-556" font-family="Helvetica,sans-Serif" font-size="10.00">polyfem::io::OutGeometry</text>
<text text-anchor="middle" x="865" y="-545" font-family="Helvetica,sans-Serif" font-size="10.00">Data::export_data</text>
</a>
</g>
</g>
<!-- Node12&#45;&gt;Node13 -->
<g id="edge13_Node000012_Node000013" class="edge">
<title>Node12&#45;&gt;Node13</title>
<g id="a_edge13_Node000012_Node000013"><a xlink:title=" ">
<path fill="none" stroke="#63b8ff" d="M991.18,-509.4C965.08,-518.49 933.98,-529.32 909.31,-537.91"/>
<polygon fill="#63b8ff" stroke="#63b8ff" points="992.62,-512.6 1000.91,-506.01 990.32,-505.99 992.62,-512.6"/>
</a>
</g>
</g>
<!-- Node15 -->
<g id="Node000015" class="node">
<title>Node15</title>
<g id="a_Node000015"><a xlink:href="classpolyfem_1_1_state.html#a29b1283c20475e19b79a39cd324ac5aa" target="_top" xlink:title="saves a subsolve when save_solve_sequence_debug is true">
<polygon fill="white" stroke="#666666" points="924,-506 806,-506 806,-476 924,-476 924,-506"/>
<text text-anchor="start" x="814" y="-494" font-family="Helvetica,sans-Serif" font-size="10.00">polyfem::State::save</text>
<text text-anchor="middle" x="865" y="-483" font-family="Helvetica,sans-Serif" font-size="10.00">_subsolve</text>
</a>
</g>
</g>
<!-- Node12&#45;&gt;Node15 -->
<g id="edge16_Node000012_Node000015" class="edge">
<title>Node12&#45;&gt;Node15</title>
<g id="a_edge16_Node000012_Node000015"><a xlink:title=" ">
<path fill="none" stroke="#63b8ff" d="M962.56,-491C949.61,-491 936.44,-491 924.16,-491"/>
<polygon fill="#63b8ff" stroke="#63b8ff" points="962.88,-494.5 972.88,-491 962.88,-487.5 962.88,-494.5"/>
</a>
</g>
</g>
<!-- Node20 -->
<g id="Node000020" class="node">
<title>Node20</title>
<g id="a_Node000020"><a xlink:href="classpolyfem_1_1_state.html#a442fa686e1d08a0a104f3869a6fa2948" target="_top" xlink:title="saves a timestep">
<polygon fill="white" stroke="#666666" points="755.5,-422 637.5,-422 637.5,-392 755.5,-392 755.5,-422"/>
<text text-anchor="start" x="645.5" y="-410" font-family="Helvetica,sans-Serif" font-size="10.00">polyfem::State::save</text>
<text text-anchor="middle" x="696.5" y="-399" font-family="Helvetica,sans-Serif" font-size="10.00">_timestep</text>
</a>
</g>
</g>
<!-- Node12&#45;&gt;Node20 -->
<g id="edge24_Node000012_Node000020" class="edge">
<title>Node12&#45;&gt;Node20</title>
<g id="a_edge24_Node000012_Node000020"><a xlink:title=" ">
<path fill="none" stroke="#63b8ff" d="M972.02,-473.55C907.91,-458.01 815.29,-435.56 755.74,-421.12"/>
<polygon fill="#63b8ff" stroke="#63b8ff" points="971.51,-477.03 982.05,-475.98 973.16,-470.22 971.51,-477.03"/>
</a>
</g>
</g>
<!-- Node14 -->
<g id="Node000014" class="node">
<title>Node14</title>
<g id="a_Node000014"><a xlink:href="classpolyfem_1_1_state.html#acc61dcd623eec2308480c5c082da3d9e" target="_top" xlink:title="saves all data on the disk according to the input params">
<polygon fill="white" stroke="#666666" points="400,-543.5 247,-543.5 247,-524.5 400,-524.5 400,-543.5"/>
<text text-anchor="middle" x="323.5" y="-531.5" font-family="Helvetica,sans-Serif" font-size="10.00">polyfem::State::export_data</text>
</a>
</g>
</g>
<!-- Node13&#45;&gt;Node14 -->
<g id="edge14_Node000013_Node000014" class="edge">
<title>Node13&#45;&gt;Node14</title>
<g id="a_edge14_Node000013_Node000014"><a xlink:title=" ">
<path fill="none" stroke="#63b8ff" d="M782.81,-550.14C679.11,-546.49 501.02,-540.22 400.09,-536.66"/>
<polygon fill="#63b8ff" stroke="#63b8ff" points="782.8,-553.64 792.92,-550.5 783.04,-546.65 782.8,-553.64"/>
</a>
</g>
</g>
<!-- Node14&#45;&gt;Node6 -->
<g id="edge15_Node000014_Node000006" class="edge">
<title>Node14&#45;&gt;Node6</title>
<g id="a_edge15_Node000014_Node000006"><a xlink:title=" ">
<path fill="none" stroke="#63b8ff" d="M236.82,-534C224.12,-534 211.33,-534 199.5,-534"/>
<polygon fill="#63b8ff" stroke="#63b8ff" points="236.97,-537.5 246.97,-534 236.97,-530.5 236.97,-537.5"/>
</a>
</g>
</g>
<!-- Node16 -->
<g id="Node000016" class="node">
<title>Node16</title>
<g id="a_Node000016"><a xlink:href="classpolyfem_1_1_state.html#acdb194af25d840fa14cec97b19e04577" target="_top" xlink:title="solves nonlinear problems">
<polygon fill="white" stroke="#666666" points="757,-506 636,-506 636,-476 757,-476 757,-506"/>
<text text-anchor="start" x="644" y="-494" font-family="Helvetica,sans-Serif" font-size="10.00">polyfem::State::solve</text>
<text text-anchor="middle" x="696.5" y="-483" font-family="Helvetica,sans-Serif" font-size="10.00">_tensor_nonlinear</text>
</a>
</g>
</g>
<!-- Node15&#45;&gt;Node16 -->
<g id="edge17_Node000015_Node000016" class="edge">
<title>Node15&#45;&gt;Node16</title>
<g id="a_edge17_Node000015_Node000016"><a xlink:title=" ">
<path fill="none" stroke="#63b8ff" d="M795.64,-491C782.86,-491 769.6,-491 757.11,-491"/>
<polygon fill="#63b8ff" stroke="#63b8ff" points="795.77,-494.5 805.77,-491 795.77,-487.5 795.77,-494.5"/>
</a>
</g>
</g>
<!-- Node17 -->
<g id="Node000017" class="node">
<title>Node17</title>
<g id="a_Node000017"><a xlink:href="classpolyfem_1_1_state.html#a7450ef7c42dd9c523e1be73a5819117d" target="_top" xlink:title="solves the problems">
<polygon fill="white" stroke="#666666" points="384,-466 263,-466 263,-436 384,-436 384,-466"/>
<text text-anchor="start" x="271" y="-454" font-family="Helvetica,sans-Serif" font-size="10.00">polyfem::State::solve</text>
<text text-anchor="middle" x="323.5" y="-443" font-family="Helvetica,sans-Serif" font-size="10.00">_problem</text>
</a>
</g>
</g>
<!-- Node16&#45;&gt;Node17 -->
<g id="edge18_Node000016_Node000017" class="edge">
<title>Node16&#45;&gt;Node17</title>
<g id="a_edge18_Node000016_Node000017"><a xlink:title=" ">
<path fill="none" stroke="#63b8ff" d="M626.07,-503.99C573.31,-511.52 499.29,-517.03 436,-503 404.1,-495.93 370.5,-478.73 348.63,-466.04"/>
<polygon fill="#63b8ff" stroke="#63b8ff" points="626.62,-507.45 636,-502.52 625.59,-500.53 626.62,-507.45"/>
</a>
</g>
</g>
<!-- Node19 -->
<g id="Node000019" class="node">
<title>Node19</title>
<g id="a_Node000019"><a xlink:href="classpolyfem_1_1_state.html#a4d91e8c971fc121b0cff2f0c02ca79e7" target="_top" xlink:title="solves transient tensor nonlinear problem">
<polygon fill="white" stroke="#666666" points="594,-494 442,-494 442,-464 594,-464 594,-494"/>
<text text-anchor="start" x="450" y="-482" font-family="Helvetica,sans-Serif" font-size="10.00">polyfem::State::solve</text>
<text text-anchor="middle" x="518" y="-471" font-family="Helvetica,sans-Serif" font-size="10.00">_transient_tensor_nonlinear</text>
</a>
</g>
</g>
<!-- Node16&#45;&gt;Node19 -->
<g id="edge22_Node000016_Node000019" class="edge">
<title>Node16&#45;&gt;Node19</title>
<g id="a_edge22_Node000016_Node000019"><a xlink:title=" ">
<path fill="none" stroke="#63b8ff" d="M625.53,-486.24C615.18,-485.54 604.48,-484.81 594.03,-484.1"/>
<polygon fill="#63b8ff" stroke="#63b8ff" points="625.53,-489.75 635.75,-486.94 626.01,-482.77 625.53,-489.75"/>
</a>
</g>
</g>
<!-- Node17&#45;&gt;Node6 -->
<g id="edge19_Node000017_Node000006" class="edge">
<title>Node17&#45;&gt;Node6</title>
<g id="a_edge19_Node000017_Node000006"><a xlink:title=" ">
<path fill="none" stroke="#63b8ff" d="M281.02,-470.4C244.77,-487.34 193.67,-511.24 165.55,-524.39"/>
<polygon fill="#63b8ff" stroke="#63b8ff" points="282.78,-473.44 290.36,-466.03 279.81,-467.1 282.78,-473.44"/>
</a>
</g>
</g>
<!-- Node17&#45;&gt;Node8 -->
<g id="edge20_Node000017_Node000008" class="edge">
<title>Node17&#45;&gt;Node8</title>
<g id="a_edge20_Node000017_Node000008"><a xlink:title=" ">
<path fill="none" stroke="#63b8ff" d="M296.34,-472.54C281.58,-484.94 262.94,-501 247,-516 230.29,-531.72 230.52,-540.94 211,-553 203.33,-557.74 194.49,-561.51 185.82,-564.46"/>
<polygon fill="#63b8ff" stroke="#63b8ff" points="298.67,-475.16 304.11,-466.06 294.19,-469.78 298.67,-475.16"/>
</a>
</g>
</g>
<!-- Node18 -->
<g id="Node000018" class="node">
<title>Node18</title>
<g id="a_Node000018"><a xlink:href="structpolyfem_1_1solver_1_1_adjoint_opt_utils.html#acac3e8ce8646ddd1544ed034c71bec96" target="_top" xlink:title=" ">
<polygon fill="white" stroke="#666666" points="211,-466 77,-466 77,-436 211,-436 211,-466"/>
<text text-anchor="start" x="85" y="-454" font-family="Helvetica,sans-Serif" font-size="10.00">polyfem::solver::Adjoint</text>
<text text-anchor="middle" x="144" y="-443" font-family="Helvetica,sans-Serif" font-size="10.00">OptUtils::solve_pde</text>
</a>
</g>
</g>
<!-- Node17&#45;&gt;Node18 -->
<g id="edge21_Node000017_Node000018" class="edge">
<title>Node17&#45;&gt;Node18</title>
<g id="a_edge21_Node000017_Node000018"><a xlink:title=" ">
<path fill="none" stroke="#63b8ff" d="M252.61,-451C238.96,-451 224.68,-451 211.16,-451"/>
<polygon fill="#63b8ff" stroke="#63b8ff" points="252.9,-454.5 262.9,-451 252.9,-447.5 252.9,-454.5"/>
</a>
</g>
</g>
<!-- Node19&#45;&gt;Node17 -->
<g id="edge23_Node000019_Node000017" class="edge">
<title>Node19&#45;&gt;Node17</title>
<g id="a_edge23_Node000019_Node000017"><a xlink:title=" ">
<path fill="none" stroke="#63b8ff" d="M431.82,-466.61C415.76,-464.27 399.29,-461.88 384.22,-459.69"/>
<polygon fill="#63b8ff" stroke="#63b8ff" points="431.35,-470.08 441.75,-468.05 432.36,-463.15 431.35,-470.08"/>
</a>
</g>
</g>
<!-- Node20&#45;&gt;Node19 -->
<g id="edge33_Node000020_Node000019" class="edge">
<title>Node20&#45;&gt;Node19</title>
<g id="a_edge33_Node000020_Node000019"><a xlink:title=" ">
<path fill="none" stroke="#63b8ff" d="M659.21,-427.15C641.66,-436.4 620.09,-447.05 600,-455 591.95,-458.18 583.31,-461.18 574.78,-463.89"/>
<polygon fill="#63b8ff" stroke="#63b8ff" points="661.34,-429.98 668.51,-422.19 658.04,-423.81 661.34,-429.98"/>
</a>
</g>
</g>
<!-- Node21 -->
<g id="Node000021" class="node">
<title>Node21</title>
<g id="a_Node000021"><a xlink:href="classpolyfem_1_1_state.html#ac5c4dd2be369c759c68e0a36a45bfcc7" target="_top" xlink:title="initialize solver">
<polygon fill="white" stroke="#666666" points="573,-446 463,-446 463,-416 573,-416 573,-446"/>
<text text-anchor="start" x="471" y="-434" font-family="Helvetica,sans-Serif" font-size="10.00">polyfem::State::init</text>
<text text-anchor="middle" x="518" y="-423" font-family="Helvetica,sans-Serif" font-size="10.00">_solve</text>
</a>
</g>
</g>
<!-- Node20&#45;&gt;Node21 -->
<g id="edge25_Node000020_Node000021" class="edge">
<title>Node20&#45;&gt;Node21</title>
<g id="a_edge25_Node000020_Node000021"><a xlink:title=" ">
<path fill="none" stroke="#63b8ff" d="M627.11,-416.3C609.18,-418.74 590.1,-421.33 573.04,-423.65"/>
<polygon fill="#63b8ff" stroke="#63b8ff" points="627.78,-419.74 637.22,-414.93 626.84,-412.8 627.78,-419.74"/>
</a>
</g>
</g>
<!-- Node22 -->
<g id="Node000022" class="node">
<title>Node22</title>
<g id="a_Node000022"><a xlink:href="classpolyfem_1_1_state.html#af5afb70dc127d3ce190116321e83f190" target="_top" xlink:title="solves transient linear problem">
<polygon fill="white" stroke="#666666" points="578.5,-398 457.5,-398 457.5,-368 578.5,-368 578.5,-398"/>
<text text-anchor="start" x="465.5" y="-386" font-family="Helvetica,sans-Serif" font-size="10.00">polyfem::State::solve</text>
<text text-anchor="middle" x="518" y="-375" font-family="Helvetica,sans-Serif" font-size="10.00">_transient_linear</text>
</a>
</g>
</g>
<!-- Node20&#45;&gt;Node22 -->
<g id="edge27_Node000020_Node000022" class="edge">
<title>Node20&#45;&gt;Node22</title>
<g id="a_edge27_Node000020_Node000022"><a xlink:title=" ">
<path fill="none" stroke="#63b8ff" d="M626.92,-397.67C611.02,-395.51 594.22,-393.23 578.73,-391.12"/>
<polygon fill="#63b8ff" stroke="#63b8ff" points="626.84,-401.2 637.22,-399.07 627.78,-394.26 626.84,-401.2"/>
</a>
</g>
</g>
<!-- Node23 -->
<g id="Node000023" class="node">
<title>Node23</title>
<g id="a_Node000023"><a xlink:href="classpolyfem_1_1_state.html#ac42074a324e693f8eef5d7a96a56dc38" target="_top" xlink:title="solves transient navier stokes with FEM">
<polygon fill="white" stroke="#666666" points="587,-350 449,-350 449,-320 587,-320 587,-350"/>
<text text-anchor="start" x="457" y="-338" font-family="Helvetica,sans-Serif" font-size="10.00">polyfem::State::solve</text>
<text text-anchor="middle" x="518" y="-327" font-family="Helvetica,sans-Serif" font-size="10.00">_transient_navier_stokes</text>
</a>
</g>
</g>
<!-- Node20&#45;&gt;Node23 -->
<g id="edge29_Node000020_Node000023" class="edge">
<title>Node20&#45;&gt;Node23</title>
<g id="a_edge29_Node000020_Node000023"><a xlink:title=" ">
<path fill="none" stroke="#63b8ff" d="M659.21,-386.85C641.66,-377.6 620.09,-366.95 600,-359 591.95,-355.82 583.31,-352.82 574.78,-350.11"/>
<polygon fill="#63b8ff" stroke="#63b8ff" points="658.04,-390.19 668.51,-391.81 661.34,-384.02 658.04,-390.19"/>
</a>
</g>
</g>
<!-- Node24 -->
<g id="Node000024" class="node">
<title>Node24</title>
<g id="a_Node000024"><a xlink:href="classpolyfem_1_1_state.html#a9fa28a682c746974ee171d8cfa6a8558" target="_top" xlink:title="solves transient navier stokes with operator splitting">
<polygon fill="white" stroke="#666666" points="600,-302 436,-302 436,-272 600,-272 600,-302"/>
<text text-anchor="start" x="444" y="-290" font-family="Helvetica,sans-Serif" font-size="10.00">polyfem::State::solve</text>
<text text-anchor="middle" x="518" y="-279" font-family="Helvetica,sans-Serif" font-size="10.00">_transient_navier_stokes_split</text>
</a>
</g>
</g>
<!-- Node20&#45;&gt;Node24 -->
<g id="edge31_Node000020_Node000024" class="edge">
<title>Node20&#45;&gt;Node24</title>
<g id="a_edge31_Node000020_Node000024"><a xlink:title=" ">
<path fill="none" stroke="#63b8ff" d="M677.97,-383.58C660.48,-361.79 631.72,-329.93 600,-311 594.33,-307.62 588.15,-304.68 581.82,-302.14"/>
<polygon fill="#63b8ff" stroke="#63b8ff" points="675.39,-385.96 684.31,-391.67 680.89,-381.64 675.39,-385.96"/>
</a>
</g>
</g>
<!-- Node21&#45;&gt;Node17 -->
<g id="edge26_Node000021_Node000017" class="edge">
<title>Node21&#45;&gt;Node17</title>
<g id="a_edge26_Node000021_Node000017"><a xlink:title=" ">
<path fill="none" stroke="#63b8ff" d="M452.9,-437.66C430.77,-439.96 406.08,-442.52 384.31,-444.79"/>
<polygon fill="#63b8ff" stroke="#63b8ff" points="453.28,-441.14 462.87,-436.62 452.56,-434.18 453.28,-441.14"/>
</a>
</g>
</g>
<!-- Node22&#45;&gt;Node17 -->
<g id="edge28_Node000022_Node000017" class="edge">
<title>Node22&#45;&gt;Node17</title>
<g id="a_edge28_Node000022_Node000017"><a xlink:title=" ">
<path fill="none" stroke="#63b8ff" d="M454.03,-401.07C447.92,-403 441.82,-404.99 436,-407 410.42,-415.82 382.07,-427.03 360.36,-435.92"/>
<polygon fill="#63b8ff" stroke="#63b8ff" points="455.12,-404.39 463.63,-398.09 453.04,-397.71 455.12,-404.39"/>
</a>
</g>
</g>
<!-- Node23&#45;&gt;Node17 -->
<g id="edge30_Node000023_Node000017" class="edge">
<title>Node23&#45;&gt;Node17</title>
<g id="a_edge30_Node000023_Node000017"><a xlink:title=" ">
<path fill="none" stroke="#63b8ff" d="M446.82,-353.83C443.1,-355.43 439.47,-357.15 436,-359 397.01,-379.75 358.93,-415.45 338.94,-435.74"/>
<polygon fill="#63b8ff" stroke="#63b8ff" points="448.22,-357.04 456.21,-350.08 445.63,-350.53 448.22,-357.04"/>
</a>
</g>
</g>
<!-- Node24&#45;&gt;Node17 -->
<g id="edge32_Node000024_Node000017" class="edge">
<title>Node24&#45;&gt;Node17</title>
<g id="a_edge32_Node000024_Node000017"><a xlink:title=" ">
<path fill="none" stroke="#63b8ff" d="M443.48,-306.47C440.9,-307.88 438.39,-309.39 436,-311 386.27,-344.52 348.15,-407.07 332.4,-435.83"/>
<polygon fill="#63b8ff" stroke="#63b8ff" points="445.08,-309.59 452.53,-302.06 442.01,-303.29 445.08,-309.59"/>
</a>
</g>
</g>
<!-- Node26 -->
<g id="Node000026" class="node">
<title>Node26</title>
<g id="a_Node000026"><a xlink:href="classpolyfem_1_1basis_1_1_polygonal_basis2d.html#ac44c9f77e8d3a1328e6288ed5aec07b2" target="_top" xlink:title="Build bases over the remaining polygons of a mesh.">
<polygon fill="white" stroke="#666666" points="1303.5,-554 1160.5,-554 1160.5,-524 1303.5,-524 1303.5,-554"/>
<text text-anchor="start" x="1168.5" y="-542" font-family="Helvetica,sans-Serif" font-size="10.00">polyfem::basis::Polygonal</text>
<text text-anchor="middle" x="1232" y="-531" font-family="Helvetica,sans-Serif" font-size="10.00">Basis2d::build_bases</text>
</a>
</g>
</g>
<!-- Node25&#45;&gt;Node26 -->
<g id="edge35_Node000025_Node000026" class="edge">
<title>Node25&#45;&gt;Node26</title>
<g id="a_edge35_Node000025_Node000026"><a xlink:title=" ">
<path fill="none" stroke="#63b8ff" d="M1362,-566.49C1342.84,-562.4 1322.42,-558.05 1303.61,-554.04"/>
<polygon fill="#63b8ff" stroke="#63b8ff" points="1361.37,-569.93 1371.88,-568.59 1362.83,-563.09 1361.37,-569.93"/>
</a>
</g>
</g>
<!-- Node27 -->
<g id="Node000027" class="node">
<title>Node27</title>
<g id="a_Node000027"><a xlink:href="classpolyfem_1_1basis_1_1_polygonal_basis3d.html#a3d41a5e1d493240fb9a088a5229a27d7" target="_top" xlink:title="Build bases over the remaining polygons of a mesh.">
<polygon fill="white" stroke="#666666" points="1303.5,-602 1160.5,-602 1160.5,-572 1303.5,-572 1303.5,-602"/>
<text text-anchor="start" x="1168.5" y="-590" font-family="Helvetica,sans-Serif" font-size="10.00">polyfem::basis::Polygonal</text>
<text text-anchor="middle" x="1232" y="-579" font-family="Helvetica,sans-Serif" font-size="10.00">Basis3d::build_bases</text>
</a>
</g>
</g>
<!-- Node25&#45;&gt;Node27 -->
<g id="edge37_Node000025_Node000027" class="edge">
<title>Node25&#45;&gt;Node27</title>
<g id="a_edge37_Node000025_Node000027"><a xlink:title=" ">
<path fill="none" stroke="#63b8ff" d="M1361.73,-584.51C1342.65,-584.88 1322.33,-585.27 1303.61,-585.63"/>
<polygon fill="#63b8ff" stroke="#63b8ff" points="1361.95,-588 1371.88,-584.31 1361.82,-581 1361.95,-588"/>
</a>
</g>
</g>
<!-- Node26&#45;&gt;Node4 -->
<g id="edge36_Node000026_Node000004" class="edge">
<title>Node26&#45;&gt;Node4</title>
<g id="a_edge36_Node000026_Node000004"><a xlink:title=" ">
<path fill="none" stroke="#63b8ff" d="M1171.61,-557.15C1165.32,-559.11 1159.03,-561.09 1153,-563 1132.79,-569.41 1110.49,-576.68 1091.5,-582.92"/>
<polygon fill="#63b8ff" stroke="#63b8ff" points="1172.93,-560.41 1181.44,-554.1 1170.86,-553.72 1172.93,-560.41"/>
</a>
</g>
</g>
<!-- Node27&#45;&gt;Node4 -->
<g id="edge38_Node000027_Node000004" class="edge">
<title>Node27&#45;&gt;Node4</title>
<g id="a_edge38_Node000027_Node000004"><a xlink:title=" ">
<path fill="none" stroke="#63b8ff" d="M1150.27,-591.8C1134.93,-592.71 1119.16,-593.65 1104.67,-594.51"/>
<polygon fill="#63b8ff" stroke="#63b8ff" points="1150.49,-595.29 1160.27,-591.21 1150.08,-588.31 1150.49,-595.29"/>
</a>
</g>
</g>
<!-- Node31 -->
<g id="Node000031" class="node">
<title>Node31</title>
<g id="a_Node000031"><a xlink:href="classpolyfem_1_1mesh_1_1_c_mesh2_d.html#ac60b1aaa66f661887a9db06df808edf4" target="_top" xlink:title="computes boundary selections based on a function">
<polygon fill="white" stroke="#666666" points="1303.5,-431 1160.5,-431 1160.5,-401 1303.5,-401 1303.5,-431"/>
<text text-anchor="start" x="1168.5" y="-419" font-family="Helvetica,sans-Serif" font-size="10.00">polyfem::mesh::CMesh2D</text>
<text text-anchor="middle" x="1232" y="-408" font-family="Helvetica,sans-Serif" font-size="10.00">::compute_body_ids</text>
</a>
</g>
</g>
<!-- Node30&#45;&gt;Node31 -->
<g id="edge42_Node000030_Node000031" class="edge">
<title>Node30&#45;&gt;Node31</title>
<g id="a_edge42_Node000030_Node000031"><a xlink:title=" ">
<path fill="none" stroke="#63b8ff" d="M1362.5,-358.48C1357.17,-360.45 1351.95,-362.62 1347,-365 1328.98,-373.68 1328.82,-382.92 1311,-392 1304.43,-395.34 1297.32,-398.32 1290.15,-400.94"/>
<polygon fill="#63b8ff" stroke="#63b8ff" points="1363.88,-361.71 1372.2,-355.14 1361.6,-355.09 1363.88,-361.71"/>
</a>
</g>
</g>
<!-- Node32 -->
<g id="Node000032" class="node">
<title>Node32</title>
<g id="a_Node000032"><a xlink:href="classpolyfem_1_1mesh_1_1_n_c_mesh2_d.html#adbdc52456dfa2873999a0ac23ff8f8a9" target="_top" xlink:title="computes boundary selections based on a function">
<polygon fill="white" stroke="#666666" points="1307,-383 1157,-383 1157,-353 1307,-353 1307,-383"/>
<text text-anchor="start" x="1165" y="-371" font-family="Helvetica,sans-Serif" font-size="10.00">polyfem::mesh::NCMesh2D</text>
<text text-anchor="middle" x="1232" y="-360" font-family="Helvetica,sans-Serif" font-size="10.00">::compute_body_ids</text>
</a>
</g>
</g>
<!-- Node30&#45;&gt;Node32 -->
<g id="edge43_Node000030_Node000032" class="edge">
<title>Node30&#45;&gt;Node32</title>
<g id="a_edge43_Node000030_Node000032"><a xlink:title=" ">
<path fill="none" stroke="#63b8ff" d="M1362.53,-351.06C1344.44,-353.43 1325.18,-355.95 1307.21,-358.3"/>
<polygon fill="#63b8ff" stroke="#63b8ff" points="1362.99,-354.53 1372.46,-349.77 1362.09,-347.59 1362.99,-354.53"/>
</a>
</g>
</g>
<!-- Node33 -->
<g id="Node000033" class="node">
<title>Node33</title>
<g id="a_Node000033"><a xlink:href="classpolyfem_1_1solver_1_1_elastic_variable_to_simulation.html#ae5ea9ac1e730b966126b5946b82535ab" target="_top" xlink:title=" ">
<polygon fill="white" stroke="#666666" points="1297.5,-334.5 1166.5,-334.5 1166.5,-293.5 1297.5,-293.5 1297.5,-334.5"/>
<text text-anchor="start" x="1174.5" y="-322.5" font-family="Helvetica,sans-Serif" font-size="10.00">polyfem::solver::Elastic</text>
<text text-anchor="start" x="1174.5" y="-311.5" font-family="Helvetica,sans-Serif" font-size="10.00">VariableToSimulation::</text>
<text text-anchor="middle" x="1232" y="-300.5" font-family="Helvetica,sans-Serif" font-size="10.00">inverse_eval</text>
</a>
</g>
</g>
<!-- Node30&#45;&gt;Node33 -->
<g id="edge44_Node000030_Node000033" class="edge">
<title>Node30&#45;&gt;Node33</title>
<g id="a_edge44_Node000030_Node000033"><a xlink:title=" ">
<path fill="none" stroke="#63b8ff" d="M1362.45,-330.93C1341.1,-328.13 1318.16,-325.13 1297.6,-322.45"/>
<polygon fill="#63b8ff" stroke="#63b8ff" points="1362.09,-334.41 1372.46,-332.23 1362.99,-327.47 1362.09,-334.41"/>
</a>
</g>
</g>
<!-- Node35 -->
<g id="Node000035" class="node">
<title>Node35</title>
<g id="a_Node000035"><a xlink:href="classpolyfem_1_1mesh_1_1_c_mesh3_d.html#a9945a67c5e35cdc4c0834a3ac5cdc148" target="_top" xlink:title="attach high order nodes">
<polygon fill="white" stroke="#666666" points="1309.5,-275 1154.5,-275 1154.5,-245 1309.5,-245 1309.5,-275"/>
<text text-anchor="start" x="1162.5" y="-263" font-family="Helvetica,sans-Serif" font-size="10.00">polyfem::mesh::CMesh3D</text>
<text text-anchor="middle" x="1232" y="-252" font-family="Helvetica,sans-Serif" font-size="10.00">::attach_higher_order_nodes</text>
</a>
</g>
</g>
<!-- Node34&#45;&gt;Node35 -->
<g id="edge46_Node000034_Node000035" class="edge">
<title>Node34&#45;&gt;Node35</title>
<g id="a_edge46_Node000034_Node000035"><a xlink:title=" ">
<path fill="none" stroke="#63b8ff" d="M1369.6,-281.83C1350.34,-278.75 1329.35,-275.4 1309.73,-272.26"/>
<polygon fill="#63b8ff" stroke="#63b8ff" points="1369.07,-285.29 1379.49,-283.41 1370.17,-278.38 1369.07,-285.29"/>
</a>
</g>
</g>
</g>
</svg>
