<?xml version="1.0" encoding="UTF-8" standalone="no"?>
<!DOCTYPE svg PUBLIC "-//W3C//DTD SVG 1.1//EN"
 "http://www.w3.org/Graphics/SVG/1.1/DTD/svg11.dtd">
<!-- Generated by graphviz version 2.43.0 (0)
 -->
<!-- Title: polyfem::utils::ExpressionValue::init Pages: 1 -->
<svg width="633pt" height="176pt"
 viewBox="0.00 0.00 633.00 176.00" xmlns="http://www.w3.org/2000/svg" xmlns:xlink="http://www.w3.org/1999/xlink">
<g id="graph0" class="graph" transform="scale(1 1) rotate(0) translate(4 172)">
<title>polyfem::utils::ExpressionValue::init</title>
<!-- Node1 -->
<g id="node1" class="node">
<title>Node1</title>
<g id="a_node1"><a xlink:title=" ">
<polygon fill="#bfbfbf" stroke="black" points="0,-93.5 0,-123.5 143,-123.5 143,-93.5 0,-93.5"/>
<text text-anchor="start" x="8" y="-111.5" font-family="Helvetica,sans-Serif" font-size="10.00">polyfem::utils::Expression</text>
<text text-anchor="middle" x="71.5" y="-100.5" font-family="Helvetica,sans-Serif" font-size="10.00">Value::init</text>
</a>
</g>
</g>
<!-- Node2 -->
<g id="node2" class="node">
<title>Node2</title>
<g id="a_node2"><a xlink:href="classpolyfem_1_1utils_1_1_expression_value.html#ab58a9fdaa5507a7773a5f448022daf4a" target="_top" xlink:title=" ">
<polygon fill="none" stroke="black" points="179,-137.5 179,-167.5 322,-167.5 322,-137.5 179,-137.5"/>
<text text-anchor="start" x="187" y="-155.5" font-family="Helvetica,sans-Serif" font-size="10.00">polyfem::utils::Expression</text>
<text text-anchor="middle" x="250.5" y="-144.5" font-family="Helvetica,sans-Serif" font-size="10.00">Value::clear</text>
</a>
</g>
</g>
<!-- Node1&#45;&gt;Node2 -->
<g id="edge1" class="edge">
<title>Node1&#45;&gt;Node2</title>
<path fill="none" stroke="midnightblue" d="M132.92,-123.52C147.79,-127.22 163.84,-131.21 179.13,-135.01"/>
<polygon fill="midnightblue" stroke="midnightblue" points="178.5,-138.46 189.05,-137.47 180.19,-131.66 178.5,-138.46"/>
</g>
<!-- Node3 -->
<g id="node3" class="node">
<title>Node3</title>
<g id="a_node3"><a xlink:href="namespacepolyfem.html#a03f3d75072d2fd19f70cd886a51d10dd" target="_top" xlink:title="Retrieves the current logger.">
<polygon fill="none" stroke="black" points="531,-55 531,-74 625,-74 625,-55 531,-55"/>
<text text-anchor="middle" x="578" y="-62" font-family="Helvetica,sans-Serif" font-size="10.00">polyfem::logger</text>
</a>
</g>
</g>
<!-- Node1&#45;&gt;Node3 -->
<g id="edge2" class="edge">
<title>Node1&#45;&gt;Node3</title>
<path fill="none" stroke="midnightblue" d="M143.35,-110.7C227.75,-112.09 372.71,-110.55 495,-89.5 510.73,-86.79 527.67,-81.97 542.05,-77.27"/>
<polygon fill="midnightblue" stroke="midnightblue" points="543.19,-80.58 551.55,-74.07 540.95,-73.95 543.19,-80.58"/>
</g>
<!-- Node4 -->
<g id="node4" class="node">
<title>Node4</title>
<g id="a_node4"><a xlink:href="namespacepolyfem_1_1io.html#a37878272b4408db3e9e1d7a9efd1ae09" target="_top" xlink:title="Reads a matrix from a file. Determines the file format based on the path&#39;s extension.">
<polygon fill="none" stroke="black" points="182,-55 182,-74 319,-74 319,-55 182,-55"/>
<text text-anchor="middle" x="250.5" y="-62" font-family="Helvetica,sans-Serif" font-size="10.00">polyfem::io::read_matrix</text>
</a>
</g>
</g>
<!-- Node1&#45;&gt;Node4 -->
<g id="edge3" class="edge">
<title>Node1&#45;&gt;Node4</title>
<path fill="none" stroke="midnightblue" d="M132.92,-93.48C155.31,-87.91 180.38,-81.68 201.51,-76.43"/>
<polygon fill="midnightblue" stroke="midnightblue" points="202.37,-79.82 211.23,-74.01 200.69,-73.03 202.37,-79.82"/>
</g>
<!-- Node5 -->
<g id="node5" class="node">
<title>Node5</title>
<g id="a_node5"><a xlink:href="namespacepolyfem_1_1io.html#a9b84370fb8325fed647d02c0cf45b207" target="_top" xlink:title=" ">
<polygon fill="none" stroke="black" points="358,-49.5 358,-79.5 495,-79.5 495,-49.5 358,-49.5"/>
<text text-anchor="start" x="366" y="-67.5" font-family="Helvetica,sans-Serif" font-size="10.00">polyfem::io::read_matrix</text>
<text text-anchor="middle" x="426.5" y="-56.5" font-family="Helvetica,sans-Serif" font-size="10.00">_ascii</text>
</a>
</g>
</g>
<!-- Node4&#45;&gt;Node5 -->
<g id="edge4" class="edge">
<title>Node4&#45;&gt;Node5</title>
<path fill="none" stroke="midnightblue" d="M319.27,-64.5C328.59,-64.5 338.22,-64.5 347.7,-64.5"/>
<polygon fill="midnightblue" stroke="midnightblue" points="347.91,-68 357.91,-64.5 347.91,-61 347.91,-68"/>
</g>
<!-- Node6 -->
<g id="node6" class="node">
<title>Node6</title>
<g id="a_node6"><a xlink:href="namespacepolyfem_1_1io.html#a3902e7a61e7b7af5da5c629e92af9008" target="_top" xlink:title=" ">
<polygon fill="none" stroke="black" points="358,-0.5 358,-30.5 495,-30.5 495,-0.5 358,-0.5"/>
<text text-anchor="start" x="366" y="-18.5" font-family="Helvetica,sans-Serif" font-size="10.00">polyfem::io::read_matrix</text>
<text text-anchor="middle" x="426.5" y="-7.5" font-family="Helvetica,sans-Serif" font-size="10.00">_binary</text>
</a>
</g>
</g>
<!-- Node4&#45;&gt;Node6 -->
<g id="edge6" class="edge">
<title>Node4&#45;&gt;Node6</title>
<path fill="none" stroke="midnightblue" d="M285.46,-54.94C307.3,-48.79 336.34,-40.61 362.32,-33.29"/>
<polygon fill="midnightblue" stroke="midnightblue" points="363.43,-36.62 372.1,-30.54 361.53,-29.88 363.43,-36.62"/>
</g>
<!-- Node5&#45;&gt;Node3 -->
<g id="edge5" class="edge">
<title>Node5&#45;&gt;Node3</title>
<path fill="none" stroke="midnightblue" d="M495.25,-64.5C503.82,-64.5 512.51,-64.5 520.87,-64.5"/>
<polygon fill="midnightblue" stroke="midnightblue" points="520.87,-68 530.87,-64.5 520.87,-61 520.87,-68"/>
</g>
<!-- Node6&#45;&gt;Node3 -->
<g id="edge7" class="edge">
<title>Node6&#45;&gt;Node3</title>
<path fill="none" stroke="midnightblue" d="M473.57,-30.6C494.27,-37.39 518.43,-45.3 538.18,-51.78"/>
<polygon fill="midnightblue" stroke="midnightblue" points="537.19,-55.14 547.79,-54.92 539.37,-48.48 537.19,-55.14"/>
</g>
</g>
</svg>
