<?xml version="1.0" encoding="UTF-8" standalone="no"?>
<!DOCTYPE svg PUBLIC "-//W3C//DTD SVG 1.1//EN"
 "http://www.w3.org/Graphics/SVG/1.1/DTD/svg11.dtd">
<!-- Generated by graphviz version 2.43.0 (0)
 -->
<!-- Title: polyfem::basis::RBFWithQuadratic::compute_weights Pages: 1 -->
<!--zoomable 476 -->
<svg id="main" version="1.1" xmlns="http://www.w3.org/2000/svg" xmlns:xlink="http://www.w3.org/1999/xlink" xml:space="preserve" onload="init(evt)">
<style type="text/css"><![CDATA[
.edge:hover path { stroke: red; }
.edge:hover polygon { stroke: red; fill: red; }
]]></style>
<script type="text/javascript"><![CDATA[
var edges = document.getElementsByTagName('g');
if (edges && edges.length) {
  for (var i=0;i<edges.length;i++) {
    if (edges[i].id.substr(0,4)=='edge') {
      edges[i].setAttribute('class','edge');
    }
  }
}
]]></script>
        <defs>
                <circle id="rim" cx="0" cy="0" r="7"/>
                <circle id="rim2" cx="0" cy="0" r="3.5"/>
                <g id="zoomPlus">
                        <use xlink:href="#rim" fill="#404040">
                                <set attributeName="fill" to="#808080" begin="zoomplus.mouseover" end="zoomplus.mouseout"/>
                        </use>
                        <path d="M-4,0h8M0,-4v8" fill="none" stroke="white" stroke-width="1.5" pointer-events="none"/>
                </g>
                <g id="zoomMin">
                        <use xlink:href="#rim" fill="#404040">
                                <set attributeName="fill" to="#808080" begin="zoomminus.mouseover" end="zoomminus.mouseout"/>
                        </use>
                        <path d="M-4,0h8" fill="none" stroke="white" stroke-width="1.5" pointer-events="none"/>
                </g>
                <g id="dirArrow">
                        <path fill="none" stroke="white" stroke-width="1.5" d="M0,-3.0v7 M-2.5,-0.5L0,-3.0L2.5,-0.5"/>
                </g>
               <g id="resetDef">
                       <use xlink:href="#rim2" fill="#404040">
                               <set attributeName="fill" to="#808080" begin="reset.mouseover" end="reset.mouseout"/>
                       </use>
               </g>
        </defs>

<script type="text/javascript">
var viewWidth = 1202;
var viewHeight = 476;
var sectionId = 'dynsection-14';
</script>
<script xlink:href="svgpan.js"/>
<svg id="graph" class="graph">
<g id="viewport">
<title>polyfem::basis::RBFWithQuadratic::compute_weights</title>
<!-- Node1 -->
<g id="node1" class="node">
<title>Node1</title>
<g id="a_node1"><a xlink:title=" ">
<polygon fill="#999999" stroke="#666666" points="184,-332.59 0,-332.59 0,-302.59 184,-302.59 184,-332.59"/>
<text text-anchor="start" x="8" y="-320.59" font-family="Helvetica,sans-Serif" font-size="10.00">polyfem::basis::RBFWithQuadratic</text>
<text text-anchor="middle" x="92" y="-309.59" font-family="Helvetica,sans-Serif" font-size="10.00">::compute_weights</text>
</a>
</g>
</g>
<!-- Node2 -->
<g id="node2" class="node">
<title>Node2</title>
<g id="a_node2"><a xlink:href="classpolyfem_1_1basis_1_1_r_b_f_with_quadratic.html#a1707dc6e1745ab4fceb760c690bd8c00" target="_top" xlink:title="Evaluates one RBF function over a list of coordinates.">
<polygon fill="white" stroke="#666666" points="404,-289.59 220,-289.59 220,-259.59 404,-259.59 404,-289.59"/>
<text text-anchor="start" x="228" y="-277.59" font-family="Helvetica,sans-Serif" font-size="10.00">polyfem::basis::RBFWithQuadratic</text>
<text text-anchor="middle" x="312" y="-266.59" font-family="Helvetica,sans-Serif" font-size="10.00">::basis</text>
</a>
</g>
</g>
<!-- Node1&#45;&gt;Node2 -->
<g id="edge1" class="edge">
<title>Node1&#45;&gt;Node2</title>
<path fill="none" stroke="#63b8ff" d="M169.25,-302.55C187.25,-298.99 206.57,-295.18 224.98,-291.55"/>
<polygon fill="#63b8ff" stroke="#63b8ff" points="225.66,-294.99 234.8,-289.62 224.31,-288.12 225.66,-294.99"/>
</g>
<!-- Node4 -->
<g id="node4" class="node">
<title>Node4</title>
<g id="a_node4"><a xlink:href="classpolyfem_1_1basis_1_1_r_b_f_with_quadratic.html#af027c7a81967196281bb067570c129c9" target="_top" xlink:title=" ">
<polygon fill="white" stroke="#666666" points="844,-327.59 660,-327.59 660,-297.59 844,-297.59 844,-327.59"/>
<text text-anchor="start" x="668" y="-315.59" font-family="Helvetica,sans-Serif" font-size="10.00">polyfem::basis::RBFWithQuadratic</text>
<text text-anchor="middle" x="752" y="-304.59" font-family="Helvetica,sans-Serif" font-size="10.00">::compute_kernels_matrix</text>
</a>
</g>
</g>
<!-- Node1&#45;&gt;Node4 -->
<g id="edge18" class="edge">
<title>Node1&#45;&gt;Node4</title>
<path fill="none" stroke="#63b8ff" d="M184.15,-316.89C306.36,-315.96 522.64,-314.32 649.79,-313.35"/>
<polygon fill="#63b8ff" stroke="#63b8ff" points="649.94,-316.85 659.92,-313.28 649.89,-309.85 649.94,-316.85"/>
</g>
<!-- Node5 -->
<g id="node5" class="node">
<title>Node5</title>
<g id="a_node5"><a xlink:href="classpolyfem_1_1basis_1_1_r_b_f_with_quadratic.html#a10e9128482791ec06df9e525c1bada8b" target="_top" xlink:title=" ">
<polygon fill="white" stroke="#666666" points="1064,-370.59 880,-370.59 880,-340.59 1064,-340.59 1064,-370.59"/>
<text text-anchor="start" x="888" y="-358.59" font-family="Helvetica,sans-Serif" font-size="10.00">polyfem::basis::RBFWithQuadratic</text>
<text text-anchor="middle" x="972" y="-347.59" font-family="Helvetica,sans-Serif" font-size="10.00">::is_volume</text>
</a>
</g>
</g>
<!-- Node1&#45;&gt;Node5 -->
<g id="edge22" class="edge">
<title>Node1&#45;&gt;Node5</title>
<path fill="none" stroke="#63b8ff" d="M184.17,-326.86C196.21,-327.89 208.4,-328.84 220,-329.59 452.19,-344.56 725.35,-351.29 869.71,-353.99"/>
<polygon fill="#63b8ff" stroke="#63b8ff" points="869.81,-357.5 879.88,-354.18 869.94,-350.5 869.81,-357.5"/>
</g>
<!-- Node6 -->
<g id="node6" class="node">
<title>Node6</title>
<g id="a_node6"><a xlink:href="classpolyfem_1_1basis_1_1_r_b_f_with_quadratic.html#a8f67bb9379031f0e31631fd31d8d059d" target="_top" xlink:title=" ">
<polygon fill="white" stroke="#666666" points="404,-179.59 220,-179.59 220,-149.59 404,-149.59 404,-179.59"/>
<text text-anchor="start" x="228" y="-167.59" font-family="Helvetica,sans-Serif" font-size="10.00">polyfem::basis::RBFWithQuadratic</text>
<text text-anchor="middle" x="312" y="-156.59" font-family="Helvetica,sans-Serif" font-size="10.00">::compute_constraints_matrix_2d</text>
</a>
</g>
</g>
<!-- Node1&#45;&gt;Node6 -->
<g id="edge5" class="edge">
<title>Node1&#45;&gt;Node6</title>
<path fill="none" stroke="#63b8ff" d="M114.7,-302.36C153.87,-274.86 236.47,-216.9 281.01,-185.63"/>
<polygon fill="#63b8ff" stroke="#63b8ff" points="283.21,-188.36 289.39,-179.75 279.19,-182.63 283.21,-188.36"/>
</g>
<!-- Node12 -->
<g id="node12" class="node">
<title>Node12</title>
<g id="a_node12"><a xlink:href="namespacepolyfem.html#a03f3d75072d2fd19f70cd886a51d10dd" target="_top" xlink:title="Retrieves the current logger.">
<polygon fill="white" stroke="#666666" points="1194,-56.09 1100,-56.09 1100,-37.09 1194,-37.09 1194,-56.09"/>
<text text-anchor="middle" x="1147" y="-44.09" font-family="Helvetica,sans-Serif" font-size="10.00">polyfem::logger</text>
</a>
</g>
</g>
<!-- Node1&#45;&gt;Node12 -->
<g id="edge23" class="edge">
<title>Node1&#45;&gt;Node12</title>
<path fill="none" stroke="#63b8ff" d="M100.7,-302.58C118.15,-269.74 163.61,-190.43 220,-140.59 333.44,-40.31 379.6,-1.59 531,-1.59 531,-1.59 531,-1.59 753,-1.59 891.48,-1.59 927.86,4.76 1064,-20.59 1079.99,-23.56 1097.21,-28.71 1111.72,-33.64"/>
<polygon fill="#63b8ff" stroke="#63b8ff" points="1110.69,-36.99 1121.29,-36.99 1113.01,-30.38 1110.69,-36.99"/>
</g>
<!-- Node16 -->
<g id="node16" class="node">
<title>Node16</title>
<g id="a_node16"><a xlink:href="classpolyfem_1_1basis_1_1_r_b_f_with_quadratic.html#a2f6537c427348da79b53b8ef18a5e048" target="_top" xlink:title=" ">
<polygon fill="white" stroke="#666666" points="844,-461.59 660,-461.59 660,-431.59 844,-431.59 844,-461.59"/>
<text text-anchor="start" x="668" y="-449.59" font-family="Helvetica,sans-Serif" font-size="10.00">polyfem::basis::RBFWithQuadratic</text>
<text text-anchor="middle" x="752" y="-438.59" font-family="Helvetica,sans-Serif" font-size="10.00">::compute_constraints_matrix_3d</text>
</a>
</g>
</g>
<!-- Node1&#45;&gt;Node16 -->
<g id="edge16" class="edge">
<title>Node1&#45;&gt;Node16</title>
<path fill="none" stroke="#63b8ff" d="M105.49,-332.94C126.28,-357.19 170.62,-403.54 220,-422.59 361.32,-477.07 539.69,-471.56 649.52,-460.58"/>
<polygon fill="#63b8ff" stroke="#63b8ff" points="650.01,-464.05 659.6,-459.54 649.3,-457.09 650.01,-464.05"/>
</g>
<!-- Node17 -->
<g id="node17" class="node">
<title>Node17</title>
<g id="a_node17"><a xlink:href="classpolyfem_1_1basis_1_1_r_b_f_with_quadratic.html#aecdf265e10eaa4c031447615db9c1e6f" target="_top" xlink:title="Evaluates the gradient of one RBF function over a list of coordinates.">
<polygon fill="white" stroke="#666666" points="404,-413.59 220,-413.59 220,-383.59 404,-383.59 404,-413.59"/>
<text text-anchor="start" x="228" y="-401.59" font-family="Helvetica,sans-Serif" font-size="10.00">polyfem::basis::RBFWithQuadratic</text>
<text text-anchor="middle" x="312" y="-390.59" font-family="Helvetica,sans-Serif" font-size="10.00">::grad</text>
</a>
</g>
</g>
<!-- Node1&#45;&gt;Node17 -->
<g id="edge19" class="edge">
<title>Node1&#45;&gt;Node17</title>
<path fill="none" stroke="#63b8ff" d="M127.75,-332.69C153.11,-343.5 188.43,-358.11 220,-369.59 230.14,-373.27 241.01,-376.96 251.58,-380.4"/>
<polygon fill="#63b8ff" stroke="#63b8ff" points="250.57,-383.76 261.17,-383.5 252.72,-377.1 250.57,-383.76"/>
</g>
<!-- Node3 -->
<g id="node3" class="node">
<title>Node3</title>
<g id="a_node3"><a xlink:href="classpolyfem_1_1basis_1_1_r_b_f_with_quadratic.html#a423295c4a8d424c9572f15221b4c52e8" target="_top" xlink:title="Batch evaluates the RBF + polynomials on a set of sample points.">
<polygon fill="white" stroke="#666666" points="624,-289.59 440,-289.59 440,-259.59 624,-259.59 624,-289.59"/>
<text text-anchor="start" x="448" y="-277.59" font-family="Helvetica,sans-Serif" font-size="10.00">polyfem::basis::RBFWithQuadratic</text>
<text text-anchor="middle" x="532" y="-266.59" font-family="Helvetica,sans-Serif" font-size="10.00">::bases_values</text>
</a>
</g>
</g>
<!-- Node2&#45;&gt;Node3 -->
<g id="edge2" class="edge">
<title>Node2&#45;&gt;Node3</title>
<path fill="none" stroke="#63b8ff" d="M404.19,-274.59C412.57,-274.59 421.09,-274.59 429.55,-274.59"/>
<polygon fill="#63b8ff" stroke="#63b8ff" points="429.83,-278.09 439.83,-274.59 429.83,-271.09 429.83,-278.09"/>
</g>
<!-- Node3&#45;&gt;Node4 -->
<g id="edge3" class="edge">
<title>Node3&#45;&gt;Node4</title>
<path fill="none" stroke="#63b8ff" d="M619.16,-289.6C630.87,-291.65 642.96,-293.75 654.84,-295.82"/>
<polygon fill="#63b8ff" stroke="#63b8ff" points="654.3,-299.28 664.75,-297.55 655.5,-292.39 654.3,-299.28"/>
</g>
<!-- Node4&#45;&gt;Node5 -->
<g id="edge4" class="edge">
<title>Node4&#45;&gt;Node5</title>
<path fill="none" stroke="#63b8ff" d="M829.25,-327.62C847.25,-331.18 866.57,-334.99 884.98,-338.62"/>
<polygon fill="#63b8ff" stroke="#63b8ff" points="884.31,-342.05 894.8,-340.55 885.66,-335.19 884.31,-342.05"/>
</g>
<!-- Node6&#45;&gt;Node5 -->
<g id="edge8" class="edge">
<title>Node6&#45;&gt;Node5</title>
<path fill="none" stroke="#63b8ff" d="M347.76,-179.62C372.97,-190.05 408.12,-203.64 440,-212.59 615.91,-261.96 671.49,-228.4 844,-288.59 877.96,-300.43 913.98,-320.21 938.95,-335.21"/>
<polygon fill="#63b8ff" stroke="#63b8ff" points="937.27,-338.28 947.63,-340.5 940.91,-332.31 937.27,-338.28"/>
</g>
<!-- Node7 -->
<g id="node7" class="node">
<title>Node7</title>
<g id="a_node7"><a xlink:href="classpolyfem_1_1assembler_1_1_linear_assembler.html#a83e70fd7a778342c0d7750416661a575" target="_top" xlink:title=" ">
<polygon fill="white" stroke="#666666" points="611,-155.59 453,-155.59 453,-125.59 611,-125.59 611,-155.59"/>
<text text-anchor="start" x="461" y="-143.59" font-family="Helvetica,sans-Serif" font-size="10.00">polyfem::assembler</text>
<text text-anchor="middle" x="532" y="-132.59" font-family="Helvetica,sans-Serif" font-size="10.00">::LinearAssembler::assemble</text>
</a>
</g>
</g>
<!-- Node6&#45;&gt;Node7 -->
<g id="edge6" class="edge">
<title>Node6&#45;&gt;Node7</title>
<path fill="none" stroke="#63b8ff" d="M404.19,-154.55C416.99,-153.14 430.12,-151.69 442.86,-150.29"/>
<polygon fill="#63b8ff" stroke="#63b8ff" points="443.42,-153.75 452.98,-149.18 442.65,-146.79 443.42,-153.75"/>
</g>
<!-- Node8 -->
<g id="node8" class="node">
<title>Node8</title>
<g id="a_node8"><a xlink:href="classpolyfem_1_1assembler_1_1_assembler.html#a719343427b7a8ea6a643b2f745cb71a9" target="_top" xlink:title=" ">
<polygon fill="white" stroke="#666666" points="594.5,-107.59 469.5,-107.59 469.5,-77.59 594.5,-77.59 594.5,-107.59"/>
<text text-anchor="start" x="477.5" y="-95.59" font-family="Helvetica,sans-Serif" font-size="10.00">polyfem::assembler</text>
<text text-anchor="middle" x="532" y="-84.59" font-family="Helvetica,sans-Serif" font-size="10.00">::Assembler::is_tensor</text>
</a>
</g>
</g>
<!-- Node6&#45;&gt;Node8 -->
<g id="edge7" class="edge">
<title>Node6&#45;&gt;Node8</title>
<path fill="none" stroke="#63b8ff" d="M349.88,-149.49C375.03,-139.48 409.24,-126.42 440,-116.59 446.74,-114.43 453.8,-112.32 460.89,-110.29"/>
<polygon fill="#63b8ff" stroke="#63b8ff" points="461.85,-113.66 470.54,-107.59 459.96,-106.92 461.85,-113.66"/>
</g>
<!-- Node9 -->
<g id="node9" class="node">
<title>Node9</title>
<g id="a_node9"><a xlink:href="classpolyfem_1_1basis_1_1_r_b_f_with_quadratic.html#a0eb13d358aeff8c5c6a9e89a2c4b1291" target="_top" xlink:title=" ">
<polygon fill="white" stroke="#666666" points="624,-59.59 440,-59.59 440,-29.59 624,-29.59 624,-59.59"/>
<text text-anchor="start" x="448" y="-47.59" font-family="Helvetica,sans-Serif" font-size="10.00">polyfem::basis::RBFWithQuadratic</text>
<text text-anchor="middle" x="532" y="-36.59" font-family="Helvetica,sans-Serif" font-size="10.00">::setup_monomials_strong_2d</text>
</a>
</g>
</g>
<!-- Node6&#45;&gt;Node9 -->
<g id="edge9" class="edge">
<title>Node6&#45;&gt;Node9</title>
<path fill="none" stroke="#63b8ff" d="M328.86,-149.27C351.64,-128.11 395.76,-90.1 440,-68.59 443.99,-66.64 448.16,-64.84 452.43,-63.18"/>
<polygon fill="#63b8ff" stroke="#63b8ff" points="453.68,-66.45 461.88,-59.74 451.29,-59.87 453.68,-66.45"/>
</g>
<!-- Node15 -->
<g id="node15" class="node">
<title>Node15</title>
<g id="a_node15"><a xlink:href="classpolyfem_1_1basis_1_1_r_b_f_with_quadratic.html#a699276b593b76cf2523f9e2c995b33b6" target="_top" xlink:title=" ">
<polygon fill="white" stroke="#666666" points="624,-203.59 440,-203.59 440,-173.59 624,-173.59 624,-203.59"/>
<text text-anchor="start" x="448" y="-191.59" font-family="Helvetica,sans-Serif" font-size="10.00">polyfem::basis::RBFWithQuadratic</text>
<text text-anchor="middle" x="532" y="-180.59" font-family="Helvetica,sans-Serif" font-size="10.00">::setup_monomials_vals_2d</text>
</a>
</g>
</g>
<!-- Node6&#45;&gt;Node15 -->
<g id="edge15" class="edge">
<title>Node6&#45;&gt;Node15</title>
<path fill="none" stroke="#63b8ff" d="M404.19,-174.62C412.66,-175.56 421.28,-176.51 429.83,-177.45"/>
<polygon fill="#63b8ff" stroke="#63b8ff" points="429.5,-180.93 439.83,-178.55 430.27,-173.97 429.5,-180.93"/>
</g>
<!-- Node10 -->
<g id="node10" class="node">
<title>Node10</title>
<g id="a_node10"><a xlink:href="classpolyfem_1_1assembler_1_1_assembler.html#ac3b31adacd89c796c137867e4ab2fd70" target="_top" xlink:title=" ">
<polygon fill="white" stroke="#666666" points="823.5,-59.59 680.5,-59.59 680.5,-29.59 823.5,-29.59 823.5,-59.59"/>
<text text-anchor="start" x="688.5" y="-47.59" font-family="Helvetica,sans-Serif" font-size="10.00">polyfem::assembler</text>
<text text-anchor="middle" x="752" y="-36.59" font-family="Helvetica,sans-Serif" font-size="10.00">::Assembler::compute_rhs</text>
</a>
</g>
</g>
<!-- Node9&#45;&gt;Node10 -->
<g id="edge10" class="edge">
<title>Node9&#45;&gt;Node10</title>
<path fill="none" stroke="#63b8ff" d="M624.19,-44.59C639.45,-44.59 655.19,-44.59 670.17,-44.59"/>
<polygon fill="#63b8ff" stroke="#63b8ff" points="670.41,-48.09 680.41,-44.59 670.41,-41.09 670.41,-48.09"/>
</g>
<!-- Node14 -->
<g id="node14" class="node">
<title>Node14</title>
<g id="a_node14"><a xlink:href="struct_diff_scalar_base.html#a9ec9c3461abcd98164a36ba6f4e7dfb7" target="_top" xlink:title="Set the independent variable count used by the automatic differentiation layer.">
<polygon fill="white" stroke="#666666" points="826.5,-107.59 677.5,-107.59 677.5,-77.59 826.5,-77.59 826.5,-107.59"/>
<text text-anchor="start" x="685.5" y="-95.59" font-family="Helvetica,sans-Serif" font-size="10.00">DiffScalarBase::setVariable</text>
<text text-anchor="middle" x="752" y="-84.59" font-family="Helvetica,sans-Serif" font-size="10.00">Count</text>
</a>
</g>
</g>
<!-- Node9&#45;&gt;Node14 -->
<g id="edge14" class="edge">
<title>Node9&#45;&gt;Node14</title>
<path fill="none" stroke="#63b8ff" d="M601.38,-59.64C624.1,-64.64 649.58,-70.25 672.98,-75.41"/>
<polygon fill="#63b8ff" stroke="#63b8ff" points="672.35,-78.85 682.86,-77.58 673.85,-72.01 672.35,-78.85"/>
</g>
<!-- Node11 -->
<g id="node11" class="node">
<title>Node11</title>
<g id="a_node11"><a xlink:href="namespacepolyfem.html#adc7e749e0c40939b7323961c6a41e391" target="_top" xlink:title=" ">
<polygon fill="white" stroke="#666666" points="1039,-107.59 905,-107.59 905,-77.59 1039,-77.59 1039,-107.59"/>
<text text-anchor="start" x="913" y="-95.59" font-family="Helvetica,sans-Serif" font-size="10.00">polyfem::log_and_throw</text>
<text text-anchor="middle" x="972" y="-84.59" font-family="Helvetica,sans-Serif" font-size="10.00">_error</text>
</a>
</g>
</g>
<!-- Node10&#45;&gt;Node11 -->
<g id="edge11" class="edge">
<title>Node10&#45;&gt;Node11</title>
<path fill="none" stroke="#63b8ff" d="M821.38,-59.64C844.65,-64.77 870.81,-70.52 894.66,-75.78"/>
<polygon fill="#63b8ff" stroke="#63b8ff" points="894.21,-79.26 904.73,-77.99 895.72,-72.43 894.21,-79.26"/>
</g>
<!-- Node13 -->
<g id="node13" class="node">
<title>Node13</title>
<g id="a_node13"><a xlink:href="classpolyfem_1_1assembler_1_1_assembler.html#a7c54d99815b988e2ca1bc05c1e202f69" target="_top" xlink:title=" ">
<polygon fill="white" stroke="#666666" points="1029,-59.59 915,-59.59 915,-29.59 1029,-29.59 1029,-59.59"/>
<text text-anchor="start" x="923" y="-47.59" font-family="Helvetica,sans-Serif" font-size="10.00">polyfem::assembler</text>
<text text-anchor="middle" x="972" y="-36.59" font-family="Helvetica,sans-Serif" font-size="10.00">::Assembler::name</text>
</a>
</g>
</g>
<!-- Node10&#45;&gt;Node13 -->
<g id="edge13" class="edge">
<title>Node10&#45;&gt;Node13</title>
<path fill="none" stroke="#63b8ff" d="M823.78,-44.59C849.68,-44.59 878.87,-44.59 904.39,-44.59"/>
<polygon fill="#63b8ff" stroke="#63b8ff" points="904.71,-48.09 914.71,-44.59 904.71,-41.09 904.71,-48.09"/>
</g>
<!-- Node11&#45;&gt;Node12 -->
<g id="edge12" class="edge">
<title>Node11&#45;&gt;Node12</title>
<path fill="none" stroke="#63b8ff" d="M1030.29,-77.52C1041.47,-74.56 1053.11,-71.48 1064,-68.59 1075.91,-65.42 1088.78,-61.97 1100.72,-58.77"/>
<polygon fill="#63b8ff" stroke="#63b8ff" points="1101.74,-62.12 1110.49,-56.15 1099.92,-55.36 1101.74,-62.12"/>
</g>
<!-- Node16&#45;&gt;Node5 -->
<g id="edge17" class="edge">
<title>Node16&#45;&gt;Node5</title>
<path fill="none" stroke="#63b8ff" d="M817.72,-431.47C826.65,-428.82 835.63,-425.85 844,-422.59 877.1,-409.68 912.7,-390.39 937.76,-375.81"/>
<polygon fill="#63b8ff" stroke="#63b8ff" points="939.65,-378.76 946.49,-370.67 936.1,-372.73 939.65,-378.76"/>
</g>
<!-- Node18 -->
<g id="node18" class="node">
<title>Node18</title>
<g id="a_node18"><a xlink:href="classpolyfem_1_1basis_1_1_r_b_f_with_quadratic.html#a4f23527b0e433b12c941007b6623a099" target="_top" xlink:title="Batch evaluates the gradient of the RBF + polynomials on a set of sample points.">
<polygon fill="white" stroke="#666666" points="844,-413.59 660,-413.59 660,-383.59 844,-383.59 844,-413.59"/>
<text text-anchor="start" x="668" y="-401.59" font-family="Helvetica,sans-Serif" font-size="10.00">polyfem::basis::RBFWithQuadratic</text>
<text text-anchor="middle" x="752" y="-390.59" font-family="Helvetica,sans-Serif" font-size="10.00">::bases_grads</text>
</a>
</g>
</g>
<!-- Node17&#45;&gt;Node18 -->
<g id="edge20" class="edge">
<title>Node17&#45;&gt;Node18</title>
<path fill="none" stroke="#63b8ff" d="M404.02,-398.59C475.6,-398.59 575.27,-398.59 649.43,-398.59"/>
<polygon fill="#63b8ff" stroke="#63b8ff" points="649.72,-402.09 659.72,-398.59 649.72,-395.09 649.72,-402.09"/>
</g>
<!-- Node18&#45;&gt;Node5 -->
<g id="edge21" class="edge">
<title>Node18&#45;&gt;Node5</title>
<path fill="none" stroke="#63b8ff" d="M829.25,-383.55C847.25,-379.99 866.57,-376.18 884.98,-372.55"/>
<polygon fill="#63b8ff" stroke="#63b8ff" points="885.66,-375.99 894.8,-370.62 884.31,-369.12 885.66,-375.99"/>
</g>
</g>
</svg>
        <g id="navigator" transform="translate(0 0)" fill="#404254">
                <rect fill="#f2f5e9" fill-opacity="0.5" stroke="#606060" stroke-width=".5" x="0" y="0" width="60" height="60"/>
                <use id="zoomplus" xlink:href="#zoomPlus" x="17" y="9" onmousedown="handleZoom(evt,'in')"/>
                <use id="zoomminus" xlink:href="#zoomMin" x="42" y="9" onmousedown="handleZoom(evt,'out')"/>
                <use id="reset" xlink:href="#resetDef" x="30" y="36" onmousedown="handleReset()"/>
                <g id="arrowUp" xlink:href="#dirArrow" transform="translate(30 24)" onmousedown="handlePan(0,-1)">
                  <use xlink:href="#rim" fill="#404040">
                        <set attributeName="fill" to="#808080" begin="arrowUp.mouseover" end="arrowUp.mouseout"/>
                  </use>
                  <path fill="none" stroke="white" stroke-width="1.5" d="M0,-3.0v7 M-2.5,-0.5L0,-3.0L2.5,-0.5"/>
                </g>
                <g id="arrowRight" xlink:href="#dirArrow" transform="rotate(90) translate(36 -43)" onmousedown="handlePan(1,0)">
                  <use xlink:href="#rim" fill="#404040">
                        <set attributeName="fill" to="#808080" begin="arrowRight.mouseover" end="arrowRight.mouseout"/>
                  </use>
                  <path fill="none" stroke="white" stroke-width="1.5" d="M0,-3.0v7 M-2.5,-0.5L0,-3.0L2.5,-0.5"/>
                </g>
                <g id="arrowDown" xlink:href="#dirArrow" transform="rotate(180) translate(-30 -48)" onmousedown="handlePan(0,1)">
                  <use xlink:href="#rim" fill="#404040">
                        <set attributeName="fill" to="#808080" begin="arrowDown.mouseover" end="arrowDown.mouseout"/>
                  </use>
                  <path fill="none" stroke="white" stroke-width="1.5" d="M0,-3.0v7 M-2.5,-0.5L0,-3.0L2.5,-0.5"/>
                </g>
                <g id="arrowLeft" xlink:href="#dirArrow" transform="rotate(270) translate(-36 17)" onmousedown="handlePan(-1,0)">
                  <use xlink:href="#rim" fill="#404040">
                        <set attributeName="fill" to="#808080" begin="arrowLeft.mouseover" end="arrowLeft.mouseout"/>
                  </use>
                  <path fill="none" stroke="white" stroke-width="1.5" d="M0,-3.0v7 M-2.5,-0.5L0,-3.0L2.5,-0.5"/>
                </g>
        </g>
        <svg viewBox="0 0 15 15" width="100%" height="30px" preserveAspectRatio="xMaxYMin meet">
         <g id="arrow_out" transform="scale(0.3 0.3)">
          <a xlink:href="classpolyfem_1_1basis_1_1_r_b_f_with_quadratic_a56b0caddd406bcb915deef758b1b1109_cgraph_org.svg" target="_base">
           <rect id="button" ry="5" rx="5" y="6" x="6" height="38" width="38"
                fill="#f2f5e9" fill-opacity="0.5" stroke="#606060" stroke-width="1.0"/>
           <path id="arrow"
             d="M 11.500037,31.436501 C 11.940474,20.09759 22.043105,11.32322 32.158766,21.979434 L 37.068811,17.246167 C 37.068811,17.246167 37.088388,32 37.088388,32 L 22.160133,31.978069 C 22.160133,31.978069 26.997745,27.140456 26.997745,27.140456 C 18.528582,18.264221 13.291696,25.230495 11.500037,31.436501 z"
             style="fill:#404040;"/>
          </a>
         </g>
        </svg>
</svg>
