<?xml version="1.0" encoding="UTF-8" standalone="no"?>
<!DOCTYPE svg PUBLIC "-//W3C//DTD SVG 1.1//EN"
 "http://www.w3.org/Graphics/SVG/1.1/DTD/svg11.dtd">
<!-- Generated by graphviz version 2.43.0 (0)
 -->
<!-- Title: polyfem::assembler::Assembler&lt; LocalAssembler &gt; Pages: 1 -->
<!--zoomable 689 -->
<svg id="main" version="1.1" xmlns="http://www.w3.org/2000/svg" xmlns:xlink="http://www.w3.org/1999/xlink" xml:space="preserve" onload="init(evt)">
<style type="text/css"><![CDATA[
.edge:hover path { stroke: red; }
.edge:hover polygon { stroke: red; fill: red; }
]]></style>
<script type="text/javascript"><![CDATA[
var edges = document.getElementsByTagName('g');
if (edges && edges.length) {
  for (var i=0;i<edges.length;i++) {
    if (edges[i].id.substr(0,4)=='edge') {
      edges[i].setAttribute('class','edge');
    }
  }
}
]]></script>
        <defs>
                <circle id="rim" cx="0" cy="0" r="7"/>
                <circle id="rim2" cx="0" cy="0" r="3.5"/>
                <g id="zoomPlus">
                        <use xlink:href="#rim" fill="#404040">
                                <set attributeName="fill" to="#808080" begin="zoomplus.mouseover" end="zoomplus.mouseout"/>
                        </use>
                        <path d="M-4,0h8M0,-4v8" fill="none" stroke="white" stroke-width="1.5" pointer-events="none"/>
                </g>
                <g id="zoomMin">
                        <use xlink:href="#rim" fill="#404040">
                                <set attributeName="fill" to="#808080" begin="zoomminus.mouseover" end="zoomminus.mouseout"/>
                        </use>
                        <path d="M-4,0h8" fill="none" stroke="white" stroke-width="1.5" pointer-events="none"/>
                </g>
                <g id="dirArrow">
                        <path fill="none" stroke="white" stroke-width="1.5" d="M0,-3.0v7 M-2.5,-0.5L0,-3.0L2.5,-0.5"/>
                </g>
               <g id="resetDef">
                       <use xlink:href="#rim2" fill="#404040">
                               <set attributeName="fill" to="#808080" begin="reset.mouseover" end="reset.mouseout"/>
                       </use>
               </g>
        </defs>

<script type="text/javascript">
var viewWidth = 571;
var viewHeight = 689;
var sectionId = 'dynsection-0';
</script>
<script xlink:href="svgpan.js"/>
<svg id="graph" class="graph">
<g id="viewport">
<title>polyfem::assembler::Assembler&lt; LocalAssembler &gt;</title>
<!-- Node1 -->
<g id="node1" class="node">
<title>Node1</title>
<g id="a_node1"><a xlink:title=" ">
<polygon fill="#bfbfbf" stroke="black" points="0,-328.5 0,-358.5 174,-358.5 174,-328.5 0,-328.5"/>
<text text-anchor="start" x="8" y="-346.5" font-family="Helvetica,sans-Serif" font-size="10.00">polyfem::assembler</text>
<text text-anchor="middle" x="87" y="-335.5" font-family="Helvetica,sans-Serif" font-size="10.00">::Assembler&lt; LocalAssembler &gt;</text>
</a>
</g>
</g>
<!-- Node2 -->
<g id="node2" class="node">
<title>Node2</title>
<g id="a_node2"><a xlink:href="classpolyfem_1_1assembler_1_1_assembler.html" target="_top" xlink:title=" ">
<polygon fill="none" stroke="black" points="401.5,-623 401.5,-664 527.5,-664 527.5,-623 401.5,-623"/>
<text text-anchor="start" x="409.5" y="-652" font-family="Helvetica,sans-Serif" font-size="10.00">polyfem::assembler</text>
<text text-anchor="start" x="409.5" y="-641" font-family="Helvetica,sans-Serif" font-size="10.00">::Assembler&lt; polyfem</text>
<text text-anchor="middle" x="464.5" y="-630" font-family="Helvetica,sans-Serif" font-size="10.00">::assembler::Mass &gt;</text>
</a>
</g>
</g>
<!-- Node1&#45;&gt;Node2 -->
<g id="edge1" class="edge">
<title>Node1&#45;&gt;Node2</title>
<path fill="none" stroke="orange" stroke-dasharray="5,2" d="M89.18,-368.84C93.26,-424.22 111.39,-556 192,-617.5 251.67,-663.02 341.53,-662.14 401.32,-654.87"/>
<polygon fill="orange" stroke="orange" points="92.65,-368.29 88.52,-358.53 85.67,-368.73 92.65,-368.29"/>
<text text-anchor="start" x="214" y="-672.5" font-family="Helvetica,sans-Serif" font-size="10.00"> &lt; polyfem::assembler</text>
<text text-anchor="middle" x="270" y="-661.5" font-family="Helvetica,sans-Serif" font-size="10.00">::Mass &gt;</text>
</g>
<!-- Node3 -->
<g id="node3" class="node">
<title>Node3</title>
<g id="a_node3"><a xlink:href="classpolyfem_1_1assembler_1_1_assembler.html" target="_top" xlink:title=" ">
<polygon fill="none" stroke="black" points="396,-563 396,-604 533,-604 533,-563 396,-563"/>
<text text-anchor="start" x="404" y="-592" font-family="Helvetica,sans-Serif" font-size="10.00">polyfem::assembler</text>
<text text-anchor="start" x="404" y="-581" font-family="Helvetica,sans-Serif" font-size="10.00">::Assembler&lt; polyfem</text>
<text text-anchor="middle" x="464.5" y="-570" font-family="Helvetica,sans-Serif" font-size="10.00">::assembler::Laplacian &gt;</text>
</a>
</g>
</g>
<!-- Node1&#45;&gt;Node3 -->
<g id="edge2" class="edge">
<title>Node1&#45;&gt;Node3</title>
<path fill="none" stroke="orange" stroke-dasharray="5,2" d="M92.72,-368.56C102.54,-413.12 129.68,-505.58 192,-549.5 251.41,-591.37 336.78,-595.34 395.87,-591.75"/>
<polygon fill="orange" stroke="orange" points="96.1,-367.64 90.63,-358.56 89.25,-369.07 96.1,-367.64"/>
<text text-anchor="start" x="214" y="-605.5" font-family="Helvetica,sans-Serif" font-size="10.00"> &lt; polyfem::assembler</text>
<text text-anchor="middle" x="270" y="-594.5" font-family="Helvetica,sans-Serif" font-size="10.00">::Laplacian &gt;</text>
</g>
<!-- Node4 -->
<g id="node4" class="node">
<title>Node4</title>
<g id="a_node4"><a xlink:href="classpolyfem_1_1assembler_1_1_assembler.html" target="_top" xlink:title=" ">
<polygon fill="none" stroke="black" points="394,-503 394,-544 535,-544 535,-503 394,-503"/>
<text text-anchor="start" x="402" y="-532" font-family="Helvetica,sans-Serif" font-size="10.00">polyfem::assembler</text>
<text text-anchor="start" x="402" y="-521" font-family="Helvetica,sans-Serif" font-size="10.00">::Assembler&lt; polyfem</text>
<text text-anchor="middle" x="464.5" y="-510" font-family="Helvetica,sans-Serif" font-size="10.00">::assembler::Helmholtz &gt;</text>
</a>
</g>
</g>
<!-- Node1&#45;&gt;Node4 -->
<g id="edge3" class="edge">
<title>Node1&#45;&gt;Node4</title>
<path fill="none" stroke="orange" stroke-dasharray="5,2" d="M99.2,-367.96C115.06,-399.56 147.18,-453.68 192,-480.5 253.43,-517.26 336.08,-525.7 394,-526.4"/>
<polygon fill="orange" stroke="orange" points="102.33,-366.39 94.81,-358.93 96.04,-369.45 102.33,-366.39"/>
<text text-anchor="start" x="214" y="-537.5" font-family="Helvetica,sans-Serif" font-size="10.00"> &lt; polyfem::assembler</text>
<text text-anchor="middle" x="270" y="-526.5" font-family="Helvetica,sans-Serif" font-size="10.00">::Helmholtz &gt;</text>
</g>
<!-- Node5 -->
<g id="node5" class="node">
<title>Node5</title>
<g id="a_node5"><a xlink:href="classpolyfem_1_1assembler_1_1_assembler.html" target="_top" xlink:title=" ">
<polygon fill="none" stroke="black" points="380,-443 380,-484 549,-484 549,-443 380,-443"/>
<text text-anchor="start" x="388" y="-472" font-family="Helvetica,sans-Serif" font-size="10.00">polyfem::assembler</text>
<text text-anchor="start" x="388" y="-461" font-family="Helvetica,sans-Serif" font-size="10.00">::Assembler&lt; polyfem</text>
<text text-anchor="middle" x="464.5" y="-450" font-family="Helvetica,sans-Serif" font-size="10.00">::assembler::BilaplacianMain &gt;</text>
</a>
</g>
</g>
<!-- Node1&#45;&gt;Node5 -->
<g id="edge4" class="edge">
<title>Node1&#45;&gt;Node5</title>
<path fill="none" stroke="orange" stroke-dasharray="5,2" d="M111.88,-365.31C131.82,-382.27 161.78,-404.97 192,-417.5 251.95,-442.36 324.66,-453.79 379.74,-459.04"/>
<polygon fill="orange" stroke="orange" points="114.07,-362.58 104.23,-358.67 109.48,-367.87 114.07,-362.58"/>
<text text-anchor="start" x="214" y="-468.5" font-family="Helvetica,sans-Serif" font-size="10.00"> &lt; polyfem::assembler</text>
<text text-anchor="middle" x="270" y="-457.5" font-family="Helvetica,sans-Serif" font-size="10.00">::BilaplacianMain &gt;</text>
</g>
<!-- Node6 -->
<g id="node6" class="node">
<title>Node6</title>
<g id="a_node6"><a xlink:href="classpolyfem_1_1assembler_1_1_assembler.html" target="_top" xlink:title=" ">
<polygon fill="none" stroke="black" points="382.5,-383 382.5,-424 546.5,-424 546.5,-383 382.5,-383"/>
<text text-anchor="start" x="390.5" y="-412" font-family="Helvetica,sans-Serif" font-size="10.00">polyfem::assembler</text>
<text text-anchor="start" x="390.5" y="-401" font-family="Helvetica,sans-Serif" font-size="10.00">::Assembler&lt; polyfem</text>
<text text-anchor="middle" x="464.5" y="-390" font-family="Helvetica,sans-Serif" font-size="10.00">::assembler::BilaplacianAux &gt;</text>
</a>
</g>
</g>
<!-- Node1&#45;&gt;Node6 -->
<g id="edge5" class="edge">
<title>Node1&#45;&gt;Node6</title>
<path fill="none" stroke="orange" stroke-dasharray="5,2" d="M152.57,-360.92C165.57,-364.07 179.17,-367.1 192,-369.5 255.51,-381.37 328.16,-390.22 382.32,-395.92"/>
<polygon fill="orange" stroke="orange" points="153.33,-357.5 142.78,-358.51 151.65,-364.3 153.33,-357.5"/>
<text text-anchor="start" x="214" y="-405.5" font-family="Helvetica,sans-Serif" font-size="10.00"> &lt; polyfem::assembler</text>
<text text-anchor="middle" x="270" y="-394.5" font-family="Helvetica,sans-Serif" font-size="10.00">::BilaplacianAux &gt;</text>
</g>
<!-- Node7 -->
<g id="node7" class="node">
<title>Node7</title>
<g id="a_node7"><a xlink:href="classpolyfem_1_1assembler_1_1_assembler.html" target="_top" xlink:title=" ">
<polygon fill="none" stroke="black" points="381.5,-323 381.5,-364 547.5,-364 547.5,-323 381.5,-323"/>
<text text-anchor="start" x="389.5" y="-352" font-family="Helvetica,sans-Serif" font-size="10.00">polyfem::assembler</text>
<text text-anchor="start" x="389.5" y="-341" font-family="Helvetica,sans-Serif" font-size="10.00">::Assembler&lt; polyfem</text>
<text text-anchor="middle" x="464.5" y="-330" font-family="Helvetica,sans-Serif" font-size="10.00">::assembler::LinearElasticity &gt;</text>
</a>
</g>
</g>
<!-- Node1&#45;&gt;Node7 -->
<g id="edge6" class="edge">
<title>Node1&#45;&gt;Node7</title>
<path fill="none" stroke="orange" stroke-dasharray="5,2" d="M184.17,-343.5C245.15,-343.5 323.21,-343.5 381.3,-343.5"/>
<polygon fill="orange" stroke="orange" points="184.15,-340 174.15,-343.5 184.15,-347 184.15,-340"/>
<text text-anchor="start" x="214" y="-357.5" font-family="Helvetica,sans-Serif" font-size="10.00"> &lt; polyfem::assembler</text>
<text text-anchor="middle" x="270" y="-346.5" font-family="Helvetica,sans-Serif" font-size="10.00">::LinearElasticity &gt;</text>
</g>
<!-- Node8 -->
<g id="node8" class="node">
<title>Node8</title>
<g id="a_node8"><a xlink:href="classpolyfem_1_1assembler_1_1_assembler.html" target="_top" xlink:title=" ">
<polygon fill="none" stroke="black" points="366,-263 366,-304 563,-304 563,-263 366,-263"/>
<text text-anchor="start" x="374" y="-292" font-family="Helvetica,sans-Serif" font-size="10.00">polyfem::assembler</text>
<text text-anchor="start" x="374" y="-281" font-family="Helvetica,sans-Serif" font-size="10.00">::Assembler&lt; polyfem</text>
<text text-anchor="middle" x="464.5" y="-270" font-family="Helvetica,sans-Serif" font-size="10.00">::assembler::HookeLinearElasticity &gt;</text>
</a>
</g>
</g>
<!-- Node1&#45;&gt;Node8 -->
<g id="edge7" class="edge">
<title>Node1&#45;&gt;Node8</title>
<path fill="none" stroke="orange" stroke-dasharray="5,2" d="M152.57,-326.08C165.57,-322.93 179.17,-319.9 192,-317.5 249.32,-306.79 314.09,-298.53 365.99,-292.84"/>
<polygon fill="orange" stroke="orange" points="151.65,-322.7 142.78,-328.49 153.33,-329.5 151.65,-322.7"/>
<text text-anchor="start" x="208" y="-331.5" font-family="Helvetica,sans-Serif" font-size="10.00"> &lt; polyfem::assembler</text>
<text text-anchor="middle" x="270" y="-320.5" font-family="Helvetica,sans-Serif" font-size="10.00">::HookeLinearElasticity &gt;</text>
</g>
<!-- Node9 -->
<g id="node9" class="node">
<title>Node9</title>
<g id="a_node9"><a xlink:href="classpolyfem_1_1assembler_1_1_assembler.html" target="_top" xlink:title=" ">
<polygon fill="none" stroke="black" points="383.5,-203 383.5,-244 545.5,-244 545.5,-203 383.5,-203"/>
<text text-anchor="start" x="391.5" y="-232" font-family="Helvetica,sans-Serif" font-size="10.00">polyfem::assembler</text>
<text text-anchor="start" x="391.5" y="-221" font-family="Helvetica,sans-Serif" font-size="10.00">::Assembler&lt; polyfem</text>
<text text-anchor="middle" x="464.5" y="-210" font-family="Helvetica,sans-Serif" font-size="10.00">::assembler::StokesVelocity &gt;</text>
</a>
</g>
</g>
<!-- Node1&#45;&gt;Node9 -->
<g id="edge8" class="edge">
<title>Node1&#45;&gt;Node9</title>
<path fill="none" stroke="orange" stroke-dasharray="5,2" d="M111.46,-321.67C131.36,-304.42 161.47,-281.21 192,-268.5 253.2,-243.02 327.81,-231.94 383.33,-227.14"/>
<polygon fill="orange" stroke="orange" points="109,-319.16 103.84,-328.41 113.64,-324.4 109,-319.16"/>
<text text-anchor="start" x="214" y="-282.5" font-family="Helvetica,sans-Serif" font-size="10.00"> &lt; polyfem::assembler</text>
<text text-anchor="middle" x="270" y="-271.5" font-family="Helvetica,sans-Serif" font-size="10.00">::StokesVelocity &gt;</text>
</g>
<!-- Node10 -->
<g id="node10" class="node">
<title>Node10</title>
<g id="a_node10"><a xlink:href="classpolyfem_1_1assembler_1_1_assembler.html" target="_top" xlink:title=" ">
<polygon fill="none" stroke="black" points="382,-143 382,-184 547,-184 547,-143 382,-143"/>
<text text-anchor="start" x="390" y="-172" font-family="Helvetica,sans-Serif" font-size="10.00">polyfem::assembler</text>
<text text-anchor="start" x="390" y="-161" font-family="Helvetica,sans-Serif" font-size="10.00">::Assembler&lt; polyfem</text>
<text text-anchor="middle" x="464.5" y="-150" font-family="Helvetica,sans-Serif" font-size="10.00">::assembler::StokesPressure &gt;</text>
</a>
</g>
</g>
<!-- Node1&#45;&gt;Node10 -->
<g id="edge9" class="edge">
<title>Node1&#45;&gt;Node10</title>
<path fill="none" stroke="orange" stroke-dasharray="5,2" d="M98.84,-319.14C114.46,-287.1 146.53,-231.71 192,-204.5 249.17,-170.3 324.83,-161.22 381.76,-160.03"/>
<polygon fill="orange" stroke="orange" points="95.63,-317.74 94.52,-328.27 101.95,-320.73 95.63,-317.74"/>
<text text-anchor="start" x="214" y="-218.5" font-family="Helvetica,sans-Serif" font-size="10.00"> &lt; polyfem::assembler</text>
<text text-anchor="middle" x="270" y="-207.5" font-family="Helvetica,sans-Serif" font-size="10.00">::StokesPressure &gt;</text>
</g>
<!-- Node11 -->
<g id="node11" class="node">
<title>Node11</title>
<g id="a_node11"><a xlink:href="classpolyfem_1_1assembler_1_1_assembler.html" target="_top" xlink:title=" ">
<polygon fill="none" stroke="black" points="381,-71.5 381,-123.5 548,-123.5 548,-71.5 381,-71.5"/>
<text text-anchor="start" x="389" y="-111.5" font-family="Helvetica,sans-Serif" font-size="10.00">polyfem::assembler</text>
<text text-anchor="start" x="389" y="-100.5" font-family="Helvetica,sans-Serif" font-size="10.00">::Assembler&lt; polyfem</text>
<text text-anchor="start" x="389" y="-89.5" font-family="Helvetica,sans-Serif" font-size="10.00">::assembler::Incompressible</text>
<text text-anchor="middle" x="464.5" y="-78.5" font-family="Helvetica,sans-Serif" font-size="10.00">LinearElasticityDispacement &gt;</text>
</a>
</g>
</g>
<!-- Node1&#45;&gt;Node11 -->
<g id="edge10" class="edge">
<title>Node1&#45;&gt;Node11</title>
<path fill="none" stroke="orange" stroke-dasharray="5,2" d="M91.79,-318.37C100.32,-271.47 125.74,-171.13 192,-124.5 246.42,-86.2 322.89,-81.8 380.81,-85.64"/>
<polygon fill="orange" stroke="orange" points="88.33,-317.86 90.09,-328.31 95.23,-319.04 88.33,-317.86"/>
<text text-anchor="start" x="192" y="-149.5" font-family="Helvetica,sans-Serif" font-size="10.00"> &lt; polyfem::assembler</text>
<text text-anchor="start" x="192" y="-138.5" font-family="Helvetica,sans-Serif" font-size="10.00">::IncompressibleLinearElasticity</text>
<text text-anchor="middle" x="270" y="-127.5" font-family="Helvetica,sans-Serif" font-size="10.00">Dispacement &gt;</text>
</g>
<!-- Node12 -->
<g id="node12" class="node">
<title>Node12</title>
<g id="a_node12"><a xlink:href="classpolyfem_1_1assembler_1_1_assembler.html" target="_top" xlink:title=" ">
<polygon fill="none" stroke="black" points="387.5,-0.5 387.5,-52.5 541.5,-52.5 541.5,-0.5 387.5,-0.5"/>
<text text-anchor="start" x="395.5" y="-40.5" font-family="Helvetica,sans-Serif" font-size="10.00">polyfem::assembler</text>
<text text-anchor="start" x="395.5" y="-29.5" font-family="Helvetica,sans-Serif" font-size="10.00">::Assembler&lt; polyfem</text>
<text text-anchor="start" x="395.5" y="-18.5" font-family="Helvetica,sans-Serif" font-size="10.00">::assembler::Incompressible</text>
<text text-anchor="middle" x="464.5" y="-7.5" font-family="Helvetica,sans-Serif" font-size="10.00">LinearElasticityPressure &gt;</text>
</a>
</g>
</g>
<!-- Node1&#45;&gt;Node12 -->
<g id="edge11" class="edge">
<title>Node1&#45;&gt;Node12</title>
<path fill="none" stroke="orange" stroke-dasharray="5,2" d="M88.3,-318.07C90.51,-259.37 104.96,-114.37 192,-47.5 247.02,-5.23 328.18,-4.53 387.42,-11.62"/>
<polygon fill="orange" stroke="orange" points="84.79,-318.2 88.01,-328.3 91.79,-318.4 84.79,-318.2"/>
<text text-anchor="start" x="192" y="-72.5" font-family="Helvetica,sans-Serif" font-size="10.00"> &lt; polyfem::assembler</text>
<text text-anchor="start" x="192" y="-61.5" font-family="Helvetica,sans-Serif" font-size="10.00">::IncompressibleLinearElasticity</text>
<text text-anchor="middle" x="270" y="-50.5" font-family="Helvetica,sans-Serif" font-size="10.00">Pressure &gt;</text>
</g>
</g>
</svg>
        <g id="navigator" transform="translate(0 0)" fill="#404254">
                <rect fill="#f2f5e9" fill-opacity="0.5" stroke="#606060" stroke-width=".5" x="0" y="0" width="60" height="60"/>
                <use id="zoomplus" xlink:href="#zoomPlus" x="17" y="9" onmousedown="handleZoom(evt,'in')"/>
                <use id="zoomminus" xlink:href="#zoomMin" x="42" y="9" onmousedown="handleZoom(evt,'out')"/>
                <use id="reset" xlink:href="#resetDef" x="30" y="36" onmousedown="handleReset()"/>
                <g id="arrowUp" xlink:href="#dirArrow" transform="translate(30 24)" onmousedown="handlePan(0,-1)">
                  <use xlink:href="#rim" fill="#404040">
                        <set attributeName="fill" to="#808080" begin="arrowUp.mouseover" end="arrowUp.mouseout"/>
                  </use>
                  <path fill="none" stroke="white" stroke-width="1.5" d="M0,-3.0v7 M-2.5,-0.5L0,-3.0L2.5,-0.5"/>
                </g>
                <g id="arrowRight" xlink:href="#dirArrow" transform="rotate(90) translate(36 -43)" onmousedown="handlePan(1,0)">
                  <use xlink:href="#rim" fill="#404040">
                        <set attributeName="fill" to="#808080" begin="arrowRight.mouseover" end="arrowRight.mouseout"/>
                  </use>
                  <path fill="none" stroke="white" stroke-width="1.5" d="M0,-3.0v7 M-2.5,-0.5L0,-3.0L2.5,-0.5"/>
                </g>
                <g id="arrowDown" xlink:href="#dirArrow" transform="rotate(180) translate(-30 -48)" onmousedown="handlePan(0,1)">
                  <use xlink:href="#rim" fill="#404040">
                        <set attributeName="fill" to="#808080" begin="arrowDown.mouseover" end="arrowDown.mouseout"/>
                  </use>
                  <path fill="none" stroke="white" stroke-width="1.5" d="M0,-3.0v7 M-2.5,-0.5L0,-3.0L2.5,-0.5"/>
                </g>
                <g id="arrowLeft" xlink:href="#dirArrow" transform="rotate(270) translate(-36 17)" onmousedown="handlePan(-1,0)">
                  <use xlink:href="#rim" fill="#404040">
                        <set attributeName="fill" to="#808080" begin="arrowLeft.mouseover" end="arrowLeft.mouseout"/>
                  </use>
                  <path fill="none" stroke="white" stroke-width="1.5" d="M0,-3.0v7 M-2.5,-0.5L0,-3.0L2.5,-0.5"/>
                </g>
        </g>
        <svg viewBox="0 0 15 15" width="100%" height="30px" preserveAspectRatio="xMaxYMin meet">
         <g id="arrow_out" transform="scale(0.3 0.3)">
          <a xlink:href="classpolyfem_1_1assembler_1_1_assembler__inherit__graph_org.svg" target="_base">
           <rect id="button" ry="5" rx="5" y="6" x="6" height="38" width="38"
                fill="#f2f5e9" fill-opacity="0.5" stroke="#606060" stroke-width="1.0"/>
           <path id="arrow"
             d="M 11.500037,31.436501 C 11.940474,20.09759 22.043105,11.32322 32.158766,21.979434 L 37.068811,17.246167 C 37.068811,17.246167 37.088388,32 37.088388,32 L 22.160133,31.978069 C 22.160133,31.978069 26.997745,27.140456 26.997745,27.140456 C 18.528582,18.264221 13.291696,25.230495 11.500037,31.436501 z"
             style="fill:#404040;"/>
          </a>
         </g>
        </svg>
</svg>
