<?xml version="1.0" encoding="UTF-8" standalone="no"?>
<!DOCTYPE svg PUBLIC "-//W3C//DTD SVG 1.1//EN"
 "http://www.w3.org/Graphics/SVG/1.1/DTD/svg11.dtd">
<!-- Generated by graphviz version 2.43.0 (0)
 -->
<!-- Title: polyfem::SolveData::updated_barrier_stiffness Pages: 1 -->
<svg width="813pt" height="83pt"
 viewBox="0.00 0.00 813.00 83.00" xmlns="http://www.w3.org/2000/svg" xmlns:xlink="http://www.w3.org/1999/xlink">
<g id="graph0" class="graph" transform="scale(1 1) rotate(0) translate(4 79)">
<title>polyfem::SolveData::updated_barrier_stiffness</title>
<!-- Node1 -->
<g id="node1" class="node">
<title>Node1</title>
<g id="a_node1"><a xlink:title="update the barrier stiffness for the forms">
<polygon fill="#bfbfbf" stroke="black" points="659,-22.5 659,-52.5 805,-52.5 805,-22.5 659,-22.5"/>
<text text-anchor="start" x="667" y="-40.5" font-family="Helvetica,sans-Serif" font-size="10.00">polyfem::SolveData</text>
<text text-anchor="middle" x="732" y="-29.5" font-family="Helvetica,sans-Serif" font-size="10.00">::updated_barrier_stiffness</text>
</a>
</g>
</g>
<!-- Node2 -->
<g id="node2" class="node">
<title>Node2</title>
<g id="a_node2"><a xlink:href="classpolyfem_1_1_state.html#afb78d1df43d732318dd15a370d96360d" target="_top" xlink:title="solves nonlinear problems">
<polygon fill="none" stroke="black" points="502,-44.5 502,-74.5 623,-74.5 623,-44.5 502,-44.5"/>
<text text-anchor="start" x="510" y="-62.5" font-family="Helvetica,sans-Serif" font-size="10.00">polyfem::State::solve</text>
<text text-anchor="middle" x="562.5" y="-51.5" font-family="Helvetica,sans-Serif" font-size="10.00">_tensor_nonlinear</text>
</a>
</g>
</g>
<!-- Node1&#45;&gt;Node2 -->
<g id="edge1" class="edge">
<title>Node1&#45;&gt;Node2</title>
<path fill="none" stroke="midnightblue" d="M648.84,-48.29C640.16,-49.43 631.46,-50.57 623.11,-51.67"/>
<polygon fill="midnightblue" stroke="midnightblue" points="649.53,-51.73 658.99,-46.96 648.62,-44.79 649.53,-51.73"/>
</g>
<!-- Node5 -->
<g id="node5" class="node">
<title>Node5</title>
<g id="a_node5"><a xlink:href="classpolyfem_1_1_state.html#adad1ddc955ed74e3bbb706ea2e0fa8b8" target="_top" xlink:title="solves transient tensor nonlinear problem">
<polygon fill="none" stroke="black" points="314,-0.5 314,-30.5 466,-30.5 466,-0.5 314,-0.5"/>
<text text-anchor="start" x="322" y="-18.5" font-family="Helvetica,sans-Serif" font-size="10.00">polyfem::State::solve</text>
<text text-anchor="middle" x="390" y="-7.5" font-family="Helvetica,sans-Serif" font-size="10.00">_transient_tensor_nonlinear</text>
</a>
</g>
</g>
<!-- Node1&#45;&gt;Node5 -->
<g id="edge6" class="edge">
<title>Node1&#45;&gt;Node5</title>
<path fill="none" stroke="midnightblue" d="M648.72,-32.18C593.13,-28.58 520.29,-23.87 466.24,-20.37"/>
<polygon fill="midnightblue" stroke="midnightblue" points="648.69,-35.68 658.89,-32.83 649.14,-28.7 648.69,-35.68"/>
</g>
<!-- Node3 -->
<g id="node3" class="node">
<title>Node3</title>
<g id="a_node3"><a xlink:href="classpolyfem_1_1_state.html#a5f707e0e648aa0e3ffd866f9599f39d0" target="_top" xlink:title="solves the problems">
<polygon fill="none" stroke="black" points="157,-22.5 157,-52.5 278,-52.5 278,-22.5 157,-22.5"/>
<text text-anchor="start" x="165" y="-40.5" font-family="Helvetica,sans-Serif" font-size="10.00">polyfem::State::solve</text>
<text text-anchor="middle" x="217.5" y="-29.5" font-family="Helvetica,sans-Serif" font-size="10.00">_problem</text>
</a>
</g>
</g>
<!-- Node2&#45;&gt;Node3 -->
<g id="edge2" class="edge">
<title>Node2&#45;&gt;Node3</title>
<path fill="none" stroke="midnightblue" d="M491.54,-55.01C428.74,-50.98 337.55,-45.14 278.14,-41.33"/>
<polygon fill="midnightblue" stroke="midnightblue" points="491.55,-58.52 501.75,-55.67 492,-51.53 491.55,-58.52"/>
</g>
<!-- Node2&#45;&gt;Node5 -->
<g id="edge4" class="edge">
<title>Node2&#45;&gt;Node5</title>
<path fill="none" stroke="midnightblue" d="M493.32,-41.91C478.72,-38.14 463.42,-34.19 449.23,-30.53"/>
<polygon fill="midnightblue" stroke="midnightblue" points="492.74,-45.37 503.3,-44.48 494.49,-38.59 492.74,-45.37"/>
</g>
<!-- Node4 -->
<g id="node4" class="node">
<title>Node4</title>
<g id="a_node4"><a xlink:href="classpolyfem_1_1_state.html#aedf3207db0c8d717766f410878876cab" target="_top" xlink:title="solves the problem, call other methods">
<polygon fill="none" stroke="black" points="0,-28 0,-47 121,-47 121,-28 0,-28"/>
<text text-anchor="middle" x="60.5" y="-35" font-family="Helvetica,sans-Serif" font-size="10.00">polyfem::State::solve</text>
</a>
</g>
</g>
<!-- Node3&#45;&gt;Node4 -->
<g id="edge3" class="edge">
<title>Node3&#45;&gt;Node4</title>
<path fill="none" stroke="midnightblue" d="M146.34,-37.5C137.88,-37.5 129.3,-37.5 121.01,-37.5"/>
<polygon fill="midnightblue" stroke="midnightblue" points="146.57,-41 156.57,-37.5 146.57,-34 146.57,-41"/>
</g>
<!-- Node5&#45;&gt;Node3 -->
<g id="edge5" class="edge">
<title>Node5&#45;&gt;Node3</title>
<path fill="none" stroke="midnightblue" d="M303.59,-26.52C294.95,-27.64 286.31,-28.75 278.02,-29.82"/>
<polygon fill="midnightblue" stroke="midnightblue" points="304.25,-29.96 313.72,-25.21 303.35,-23.02 304.25,-29.96"/>
</g>
</g>
</svg>
