<?xml version="1.0" encoding="UTF-8" standalone="no"?>
<!DOCTYPE svg PUBLIC "-//W3C//DTD SVG 1.1//EN"
 "http://www.w3.org/Graphics/SVG/1.1/DTD/svg11.dtd">
<!-- Generated by graphviz version 2.43.0 (0)
 -->
<!-- Title: polyfem::utils::AutoFlipSVD::fastEigenvalues Pages: 1 -->
<svg width="891pt" height="86pt"
 viewBox="0.00 0.00 891.00 86.00" xmlns="http://www.w3.org/2000/svg" xmlns:xlink="http://www.w3.org/1999/xlink">
<g id="graph0" class="graph" transform="scale(1 1) rotate(0) translate(4 82)">
<title>polyfem::utils::AutoFlipSVD::fastEigenvalues</title>
<!-- Node1 -->
<g id="Node000001" class="node">
<title>Node1</title>
<g id="a_Node000001"><a xlink:title=" ">
<polygon fill="#999999" stroke="#666666" points="883,-53 752,-53 752,-23 883,-23 883,-53"/>
<text text-anchor="start" x="760" y="-41" font-family="Helvetica,sans-Serif" font-size="10.00">polyfem::utils::AutoFlip</text>
<text text-anchor="middle" x="817.5" y="-30" font-family="Helvetica,sans-Serif" font-size="10.00">SVD::fastEigenvalues</text>
</a>
</g>
</g>
<!-- Node2 -->
<g id="Node000002" class="node">
<title>Node2</title>
<g id="a_Node000002"><a xlink:href="classpolyfem_1_1utils_1_1_auto_flip_s_v_d.html#a2243e3c6b2e46fb55f3691b0a89d491d" target="_top" xlink:title=" ">
<polygon fill="white" stroke="#666666" points="524,-78 334,-78 334,-48 524,-48 524,-78"/>
<text text-anchor="start" x="342" y="-66" font-family="Helvetica,sans-Serif" font-size="10.00">polyfem::utils::AutoFlip</text>
<text text-anchor="middle" x="429" y="-55" font-family="Helvetica,sans-Serif" font-size="10.00">SVD::fastComputeSingularValues3d</text>
</a>
</g>
</g>
<!-- Node1&#45;&gt;Node2 -->
<g id="edge1_Node000001_Node000002" class="edge">
<title>Node1&#45;&gt;Node2</title>
<g id="a_edge1_Node000001_Node000002"><a xlink:title=" ">
<path fill="none" stroke="#63b8ff" d="M741.7,-42.84C679.67,-46.85 591.13,-52.58 524.25,-56.9"/>
<polygon fill="#63b8ff" stroke="#63b8ff" points="742.06,-46.32 751.81,-42.18 741.6,-39.34 742.06,-46.32"/>
</a>
</g>
</g>
<!-- Node5 -->
<g id="Node000005" class="node">
<title>Node5</title>
<g id="a_Node000005"><a xlink:href="classpolyfem_1_1utils_1_1_auto_flip_s_v_d.html#a27b6f3f4ef9502d03013cde1c3c2bc6b" target="_top" xlink:title=" ">
<polygon fill="white" stroke="#666666" points="716,-32 560,-32 560,-2 716,-2 716,-32"/>
<text text-anchor="start" x="568" y="-20" font-family="Helvetica,sans-Serif" font-size="10.00">polyfem::utils::AutoFlip</text>
<text text-anchor="middle" x="638" y="-9" font-family="Helvetica,sans-Serif" font-size="10.00">SVD::fastSolveEigenproblem</text>
</a>
</g>
</g>
<!-- Node1&#45;&gt;Node5 -->
<g id="edge4_Node000001_Node000005" class="edge">
<title>Node1&#45;&gt;Node5</title>
<g id="a_edge4_Node000001_Node000005"><a xlink:title=" ">
<path fill="none" stroke="#63b8ff" d="M741.73,-29.15C733.29,-28.16 724.68,-27.14 716.21,-26.14"/>
<polygon fill="#63b8ff" stroke="#63b8ff" points="741.57,-32.66 751.92,-30.36 742.4,-25.71 741.57,-32.66"/>
</a>
</g>
</g>
<!-- Node3 -->
<g id="Node000003" class="node">
<title>Node3</title>
<g id="a_Node000003"><a xlink:href="classpolyfem_1_1utils_1_1_auto_flip_s_v_d.html#af272d0b8fc9abf818e768dba6425a1cb" target="_top" xlink:title=" ">
<polygon fill="white" stroke="#666666" points="298,-54 167,-54 167,-24 298,-24 298,-54"/>
<text text-anchor="start" x="175" y="-42" font-family="Helvetica,sans-Serif" font-size="10.00">polyfem::utils::AutoFlip</text>
<text text-anchor="middle" x="232.5" y="-31" font-family="Helvetica,sans-Serif" font-size="10.00">SVD::compute</text>
</a>
</g>
</g>
<!-- Node2&#45;&gt;Node3 -->
<g id="edge2_Node000002_Node000003" class="edge">
<title>Node2&#45;&gt;Node3</title>
<g id="a_edge2_Node000002_Node000003"><a xlink:title=" ">
<path fill="none" stroke="#63b8ff" d="M323.94,-50.16C315.15,-49.08 306.43,-48 298.08,-46.97"/>
<polygon fill="#63b8ff" stroke="#63b8ff" points="323.53,-53.64 333.88,-51.39 324.39,-46.69 323.53,-53.64"/>
</a>
</g>
</g>
<!-- Node4 -->
<g id="Node000004" class="node">
<title>Node4</title>
<g id="a_Node000004"><a xlink:href="classpolyfem_1_1utils_1_1_auto_flip_s_v_d.html#a59ed056ea6cc3dd3af3b645fb2ec2b98" target="_top" xlink:title=" ">
<polygon fill="white" stroke="#666666" points="131,-54 0,-54 0,-24 131,-24 131,-54"/>
<text text-anchor="start" x="8" y="-42" font-family="Helvetica,sans-Serif" font-size="10.00">polyfem::utils::AutoFlip</text>
<text text-anchor="middle" x="65.5" y="-31" font-family="Helvetica,sans-Serif" font-size="10.00">SVD::AutoFlipSVD</text>
</a>
</g>
</g>
<!-- Node3&#45;&gt;Node4 -->
<g id="edge3_Node000003_Node000004" class="edge">
<title>Node3&#45;&gt;Node4</title>
<g id="a_edge3_Node000003_Node000004"><a xlink:title=" ">
<path fill="none" stroke="#63b8ff" d="M156.76,-39C148.18,-39 139.48,-39 131.05,-39"/>
<polygon fill="#63b8ff" stroke="#63b8ff" points="156.76,-42.5 166.76,-39 156.76,-35.5 156.76,-42.5"/>
</a>
</g>
</g>
<!-- Node6 -->
<g id="Node000006" class="node">
<title>Node6</title>
<g id="a_Node000006"><a xlink:href="classpolyfem_1_1utils_1_1_auto_flip_s_v_d.html#a8b9d6c8a8ef930509f7601fdbd580ba8" target="_top" xlink:title=" ">
<polygon fill="white" stroke="#666666" points="494.5,-30 363.5,-30 363.5,0 494.5,0 494.5,-30"/>
<text text-anchor="start" x="371.5" y="-18" font-family="Helvetica,sans-Serif" font-size="10.00">polyfem::utils::AutoFlip</text>
<text text-anchor="middle" x="429" y="-7" font-family="Helvetica,sans-Serif" font-size="10.00">SVD::fastSVD3d</text>
</a>
</g>
</g>
<!-- Node5&#45;&gt;Node6 -->
<g id="edge5_Node000005_Node000006" class="edge">
<title>Node5&#45;&gt;Node6</title>
<g id="a_edge5_Node000005_Node000006"><a xlink:title=" ">
<path fill="none" stroke="#63b8ff" d="M549.74,-16.16C531.26,-15.98 512.07,-15.79 494.6,-15.62"/>
<polygon fill="#63b8ff" stroke="#63b8ff" points="549.89,-19.66 559.92,-16.26 549.96,-12.66 549.89,-19.66"/>
</a>
</g>
</g>
<!-- Node6&#45;&gt;Node3 -->
<g id="edge6_Node000006_Node000003" class="edge">
<title>Node6&#45;&gt;Node3</title>
<g id="a_edge6_Node000006_Node000003"><a xlink:title=" ">
<path fill="none" stroke="#63b8ff" d="M353.3,-24.22C335.17,-26.45 315.94,-28.83 298.31,-31"/>
<polygon fill="#63b8ff" stroke="#63b8ff" points="353.74,-27.69 363.23,-22.99 352.88,-20.74 353.74,-27.69"/>
</a>
</g>
</g>
</g>
</svg>
