<?xml version="1.0" encoding="UTF-8" standalone="no"?>
<!DOCTYPE svg PUBLIC "-//W3C//DTD SVG 1.1//EN"
 "http://www.w3.org/Graphics/SVG/1.1/DTD/svg11.dtd">
<!-- Generated by graphviz version 2.43.0 (0)
 -->
<!-- Title: polyfem::assembler::HookeLinearElasticity::compute_stress_tensor Pages: 1 -->
<svg width="700pt" height="214pt"
 viewBox="0.00 0.00 700.00 214.00" xmlns="http://www.w3.org/2000/svg" xmlns:xlink="http://www.w3.org/1999/xlink">
<g id="graph0" class="graph" transform="scale(1 1) rotate(0) translate(4 210)">
<title>polyfem::assembler::HookeLinearElasticity::compute_stress_tensor</title>
<!-- Node1 -->
<g id="node1" class="node">
<title>Node1</title>
<g id="a_node1"><a xlink:title=" ">
<polygon fill="#999999" stroke="#666666" points="136,-74.5 0,-74.5 0,-33.5 136,-33.5 136,-74.5"/>
<text text-anchor="start" x="8" y="-62.5" font-family="Helvetica,sans-Serif" font-size="10.00">polyfem::assembler</text>
<text text-anchor="start" x="8" y="-51.5" font-family="Helvetica,sans-Serif" font-size="10.00">::HookeLinearElasticity</text>
<text text-anchor="middle" x="68" y="-40.5" font-family="Helvetica,sans-Serif" font-size="10.00">::compute_stress_tensor</text>
</a>
</g>
</g>
<!-- Node2 -->
<g id="node2" class="node">
<title>Node2</title>
<g id="a_node2"><a xlink:href="classpolyfem_1_1assembler_1_1_hooke_linear_elasticity.html#aac55d0f4e1e42ba8534f10d09f320106" target="_top" xlink:title=" ">
<polygon fill="white" stroke="#666666" points="300,-107.5 172,-107.5 172,-66.5 300,-66.5 300,-107.5"/>
<text text-anchor="start" x="180" y="-95.5" font-family="Helvetica,sans-Serif" font-size="10.00">polyfem::assembler</text>
<text text-anchor="start" x="180" y="-84.5" font-family="Helvetica,sans-Serif" font-size="10.00">::HookeLinearElasticity</text>
<text text-anchor="middle" x="236" y="-73.5" font-family="Helvetica,sans-Serif" font-size="10.00">::assign_stress_tensor</text>
</a>
</g>
</g>
<!-- Node1&#45;&gt;Node2 -->
<g id="edge1" class="edge">
<title>Node1&#45;&gt;Node2</title>
<path fill="none" stroke="#63b8ff" d="M136.04,-67.33C144.51,-69.01 153.22,-70.74 161.78,-72.44"/>
<polygon fill="#63b8ff" stroke="#63b8ff" points="161.25,-75.91 171.74,-74.42 162.62,-69.04 161.25,-75.91"/>
</g>
<!-- Node8 -->
<g id="node8" class="node">
<title>Node8</title>
<g id="a_node8"><a xlink:href="classpolyfem_1_1assembler_1_1_hooke_linear_elasticity.html#aa86865712cb1bfe64eedac109693a811" target="_top" xlink:title=" ">
<polygon fill="white" stroke="#666666" points="512,-30 359,-30 359,0 512,0 512,-30"/>
<text text-anchor="start" x="367" y="-18" font-family="Helvetica,sans-Serif" font-size="10.00">polyfem::assembler</text>
<text text-anchor="middle" x="435.5" y="-7" font-family="Helvetica,sans-Serif" font-size="10.00">::HookeLinearElasticity::size</text>
</a>
</g>
</g>
<!-- Node1&#45;&gt;Node8 -->
<g id="edge8" class="edge">
<title>Node1&#45;&gt;Node8</title>
<path fill="none" stroke="#63b8ff" d="M136.04,-46.85C195.8,-40.47 283.61,-31.1 348.52,-24.17"/>
<polygon fill="#63b8ff" stroke="#63b8ff" points="349.16,-27.63 358.74,-23.08 348.42,-20.67 349.16,-27.63"/>
</g>
<!-- Node3 -->
<g id="node3" class="node">
<title>Node3</title>
<g id="a_node3"><a xlink:href="namespacepolyfem.html#afe7d5ac326e47bbc47caa5539c4f8172" target="_top" xlink:title=" ">
<polygon fill="white" stroke="#666666" points="535,-200.5 336,-200.5 336,-181.5 535,-181.5 535,-200.5"/>
<text text-anchor="middle" x="435.5" y="-188.5" font-family="Helvetica,sans-Serif" font-size="10.00">polyfem::compute_diplacement_grad</text>
</a>
</g>
</g>
<!-- Node2&#45;&gt;Node3 -->
<g id="edge2" class="edge">
<title>Node2&#45;&gt;Node3</title>
<path fill="none" stroke="#63b8ff" d="M254.9,-107.61C273.23,-127.34 303.57,-156.33 336,-172 341.05,-174.44 346.38,-176.56 351.85,-178.42"/>
<polygon fill="#63b8ff" stroke="#63b8ff" points="351.23,-181.89 361.82,-181.47 353.28,-175.19 351.23,-181.89"/>
</g>
<!-- Node5 -->
<g id="node5" class="node">
<title>Node5</title>
<g id="a_node5"><a xlink:href="classpolyfem_1_1assembler_1_1_elasticity_tensor.html#ab90d3a2e3a93327c97737da44aaee9a9" target="_top" xlink:title=" ">
<polygon fill="white" stroke="#666666" points="492.5,-163.5 378.5,-163.5 378.5,-122.5 492.5,-122.5 492.5,-163.5"/>
<text text-anchor="start" x="386.5" y="-151.5" font-family="Helvetica,sans-Serif" font-size="10.00">polyfem::assembler</text>
<text text-anchor="start" x="386.5" y="-140.5" font-family="Helvetica,sans-Serif" font-size="10.00">::ElasticityTensor::</text>
<text text-anchor="middle" x="435.5" y="-129.5" font-family="Helvetica,sans-Serif" font-size="10.00">compute_stress</text>
</a>
</g>
</g>
<!-- Node2&#45;&gt;Node5 -->
<g id="edge4" class="edge">
<title>Node2&#45;&gt;Node5</title>
<path fill="none" stroke="#63b8ff" d="M300.03,-104.87C321.96,-111.09 346.61,-118.08 368.75,-124.36"/>
<polygon fill="#63b8ff" stroke="#63b8ff" points="367.83,-127.73 378.4,-127.09 369.73,-121 367.83,-127.73"/>
</g>
<!-- Node6 -->
<g id="node6" class="node">
<title>Node6</title>
<g id="a_node6"><a xlink:href="namespacepolyfem.html#aaf867383bfea72c587035f4e3346bb21" target="_top" xlink:title=" ">
<polygon fill="white" stroke="#666666" points="510,-104.5 361,-104.5 361,-85.5 510,-85.5 510,-104.5"/>
<text text-anchor="middle" x="435.5" y="-92.5" font-family="Helvetica,sans-Serif" font-size="10.00">polyfem::pk1_from_cauchy</text>
</a>
</g>
</g>
<!-- Node2&#45;&gt;Node6 -->
<g id="edge5" class="edge">
<title>Node2&#45;&gt;Node6</title>
<path fill="none" stroke="#63b8ff" d="M300.03,-89.55C316.02,-90.2 333.45,-90.91 350.3,-91.59"/>
<polygon fill="#63b8ff" stroke="#63b8ff" points="350.57,-95.1 360.7,-92.01 350.85,-88.11 350.57,-95.1"/>
</g>
<!-- Node7 -->
<g id="node7" class="node">
<title>Node7</title>
<g id="a_node7"><a xlink:href="namespacepolyfem.html#a2e0e4c0eef41d449e66abee527fc8e13" target="_top" xlink:title=" ">
<polygon fill="white" stroke="#666666" points="510,-67.5 361,-67.5 361,-48.5 510,-48.5 510,-67.5"/>
<text text-anchor="middle" x="435.5" y="-55.5" font-family="Helvetica,sans-Serif" font-size="10.00">polyfem::pk2_from_cauchy</text>
</a>
</g>
</g>
<!-- Node2&#45;&gt;Node7 -->
<g id="edge6" class="edge">
<title>Node2&#45;&gt;Node7</title>
<path fill="none" stroke="#63b8ff" d="M300.03,-77.74C318.97,-74.96 339.94,-71.89 359.56,-69"/>
<polygon fill="#63b8ff" stroke="#63b8ff" points="360.3,-72.43 369.69,-67.52 359.29,-65.51 360.3,-72.43"/>
</g>
<!-- Node2&#45;&gt;Node8 -->
<g id="edge7" class="edge">
<title>Node2&#45;&gt;Node8</title>
<path fill="none" stroke="#63b8ff" d="M274.73,-66.36C292.87,-57.06 315.15,-46.5 336,-39 342.03,-36.83 348.34,-34.79 354.73,-32.89"/>
<polygon fill="#63b8ff" stroke="#63b8ff" points="356.14,-36.13 364.8,-30.02 354.22,-29.4 356.14,-36.13"/>
</g>
<!-- Node4 -->
<g id="node4" class="node">
<title>Node4</title>
<g id="a_node4"><a xlink:href="classpolyfem_1_1basis_1_1_basis.html#a88b90af0c63d52f2c91fe97a63c540ce" target="_top" xlink:title=" ">
<polygon fill="white" stroke="#666666" points="692,-206 571,-206 571,-176 692,-176 692,-206"/>
<text text-anchor="start" x="579" y="-194" font-family="Helvetica,sans-Serif" font-size="10.00">polyfem::basis::Basis</text>
<text text-anchor="middle" x="631.5" y="-183" font-family="Helvetica,sans-Serif" font-size="10.00">::global</text>
</a>
</g>
</g>
<!-- Node3&#45;&gt;Node4 -->
<g id="edge3" class="edge">
<title>Node3&#45;&gt;Node4</title>
<path fill="none" stroke="#63b8ff" d="M535.21,-191C543.86,-191 552.49,-191 560.83,-191"/>
<polygon fill="#63b8ff" stroke="#63b8ff" points="560.84,-194.5 570.84,-191 560.84,-187.5 560.84,-194.5"/>
</g>
</g>
</svg>
