<?xml version="1.0" encoding="UTF-8" standalone="no"?>
<!DOCTYPE svg PUBLIC "-//W3C//DTD SVG 1.1//EN"
 "http://www.w3.org/Graphics/SVG/1.1/DTD/svg11.dtd">
<!-- Generated by graphviz version 2.43.0 (0)
 -->
<!-- Title: polyfem::time_integrator::ImplicitNewmark::gamma Pages: 1 -->
<svg width="531pt" height="193pt"
 viewBox="0.00 0.00 531.00 192.65" xmlns="http://www.w3.org/2000/svg" xmlns:xlink="http://www.w3.org/1999/xlink">
<g id="graph0" class="graph" transform="scale(1 1) rotate(0) translate(4 188.65)">
<title>polyfem::time_integrator::ImplicitNewmark::gamma</title>
<!-- Node1 -->
<g id="Node000001" class="node">
<title>Node1</title>
<g id="a_Node000001"><a xlink:title="parameter for blending accelerations in the velocity update.">
<polygon fill="#999999" stroke="#666666" points="523,-84.15 373,-84.15 373,-54.15 523,-54.15 523,-84.15"/>
<text text-anchor="start" x="381" y="-72.15" font-family="Helvetica,sans-Serif" font-size="10.00">polyfem::time_integrator</text>
<text text-anchor="middle" x="448" y="-61.15" font-family="Helvetica,sans-Serif" font-size="10.00">::ImplicitNewmark::gamma</text>
</a>
</g>
</g>
<!-- Node2 -->
<g id="Node000002" class="node">
<title>Node2</title>
<g id="a_Node000002"><a xlink:href="classpolyfem_1_1time__integrator_1_1_implicit_newmark.html#ac87bd5ebd8b67344363864afffba1d6c" target="_top" xlink:title="Compute the current acceleration given the current velocity and using the stored previous velocity(s)...">
<polygon fill="white" stroke="#666666" points="337,-184.65 182,-184.65 182,-143.65 337,-143.65 337,-184.65"/>
<text text-anchor="start" x="190" y="-172.65" font-family="Helvetica,sans-Serif" font-size="10.00">polyfem::time_integrator</text>
<text text-anchor="start" x="190" y="-161.65" font-family="Helvetica,sans-Serif" font-size="10.00">::ImplicitNewmark::compute</text>
<text text-anchor="middle" x="259.5" y="-150.65" font-family="Helvetica,sans-Serif" font-size="10.00">_acceleration</text>
</a>
</g>
</g>
<!-- Node1&#45;&gt;Node2 -->
<g id="edge1_Node000001_Node000002" class="edge">
<title>Node1&#45;&gt;Node2</title>
<g id="a_edge1_Node000001_Node000002"><a xlink:title=" ">
<path fill="none" stroke="#63b8ff" d="M416.05,-89.75C394.45,-103.62 364.65,-121.75 337,-135.15 330.99,-138.06 324.61,-140.88 318.2,-143.55"/>
<polygon fill="#63b8ff" stroke="#63b8ff" points="418,-92.66 424.49,-84.29 414.19,-86.79 418,-92.66"/>
</a>
</g>
</g>
<!-- Node4 -->
<g id="Node000004" class="node">
<title>Node4</title>
<g id="a_Node000004"><a xlink:href="classpolyfem_1_1time__integrator_1_1_implicit_newmark.html#ab6911b1bb8c36954c05c857d8f797e55" target="_top" xlink:title="Compute the current velocity given the current solution and using the stored previous solution(s).">
<polygon fill="white" stroke="#666666" points="337,-125.65 182,-125.65 182,-84.65 337,-84.65 337,-125.65"/>
<text text-anchor="start" x="190" y="-113.65" font-family="Helvetica,sans-Serif" font-size="10.00">polyfem::time_integrator</text>
<text text-anchor="start" x="190" y="-102.65" font-family="Helvetica,sans-Serif" font-size="10.00">::ImplicitNewmark::compute</text>
<text text-anchor="middle" x="259.5" y="-91.65" font-family="Helvetica,sans-Serif" font-size="10.00">_velocity</text>
</a>
</g>
</g>
<!-- Node1&#45;&gt;Node4 -->
<g id="edge3_Node000001_Node000004" class="edge">
<title>Node1&#45;&gt;Node4</title>
<g id="a_edge3_Node000001_Node000004"><a xlink:title=" ">
<path fill="none" stroke="#63b8ff" d="M362.82,-85.4C354.3,-87.05 345.67,-88.71 337.24,-90.34"/>
<polygon fill="#63b8ff" stroke="#63b8ff" points="363.6,-88.81 372.75,-83.48 362.27,-81.94 363.6,-88.81"/>
</a>
</g>
</g>
<!-- Node5 -->
<g id="Node000005" class="node">
<title>Node5</title>
<g id="a_Node000005"><a xlink:href="classpolyfem_1_1time__integrator_1_1_implicit_newmark.html#a3d8041c1c701fedf188002c0fdab97a6" target="_top" xlink:title=" ">
<polygon fill="white" stroke="#666666" points="330.5,-48.15 188.5,-48.15 188.5,-18.15 330.5,-18.15 330.5,-48.15"/>
<text text-anchor="start" x="196.5" y="-36.15" font-family="Helvetica,sans-Serif" font-size="10.00">polyfem::time_integrator</text>
<text text-anchor="middle" x="259.5" y="-25.15" font-family="Helvetica,sans-Serif" font-size="10.00">::ImplicitNewmark::da_dx</text>
</a>
</g>
</g>
<!-- Node1&#45;&gt;Node5 -->
<g id="edge5_Node000001_Node000005" class="edge">
<title>Node1&#45;&gt;Node5</title>
<g id="a_edge5_Node000001_Node000005"><a xlink:title=" ">
<path fill="none" stroke="#63b8ff" d="M362.89,-52.92C352.08,-50.83 341.1,-48.71 330.55,-46.67"/>
<polygon fill="#63b8ff" stroke="#63b8ff" points="362.27,-56.36 372.75,-54.82 363.6,-49.49 362.27,-56.36"/>
</a>
</g>
</g>
<!-- Node6 -->
<g id="Node000006" class="node">
<title>Node6</title>
<g id="a_Node000006"><a xlink:href="classpolyfem_1_1time__integrator_1_1_implicit_newmark.html#aefd945855d7a20b6433fe8d38a155e4d" target="_top" xlink:title="Compute the derivative of the velocity with respect to the solution.">
<polygon fill="white" stroke="#666666" points="144,-48.15 2,-48.15 2,-18.15 144,-18.15 144,-48.15"/>
<text text-anchor="start" x="10" y="-36.15" font-family="Helvetica,sans-Serif" font-size="10.00">polyfem::time_integrator</text>
<text text-anchor="middle" x="73" y="-25.15" font-family="Helvetica,sans-Serif" font-size="10.00">::ImplicitNewmark::dv_dx</text>
</a>
</g>
</g>
<!-- Node1&#45;&gt;Node6 -->
<g id="edge10_Node000001_Node000006" class="edge">
<title>Node1&#45;&gt;Node6</title>
<g id="a_edge10_Node000001_Node000006"><a xlink:title=" ">
<path fill="none" stroke="#63b8ff" d="M418.29,-48.26C397.02,-34.13 366.69,-16.72 337,-9.15 265.58,9.06 180.16,-5.06 126.47,-18.09"/>
<polygon fill="#63b8ff" stroke="#63b8ff" points="416.58,-51.33 426.82,-54.07 420.53,-45.55 416.58,-51.33"/>
</a>
</g>
</g>
<!-- Node3 -->
<g id="Node000003" class="node">
<title>Node3</title>
<g id="a_Node000003"><a xlink:href="classpolyfem_1_1time__integrator_1_1_implicit_newmark.html#af94ad0e8dfab40ecba6c4956e3342860" target="_top" xlink:title="Update the time integration quantities (i.e., , , and ).">
<polygon fill="white" stroke="#666666" points="146,-154.65 0,-154.65 0,-113.65 146,-113.65 146,-154.65"/>
<text text-anchor="start" x="8" y="-142.65" font-family="Helvetica,sans-Serif" font-size="10.00">polyfem::time_integrator</text>
<text text-anchor="start" x="8" y="-131.65" font-family="Helvetica,sans-Serif" font-size="10.00">::ImplicitNewmark::update</text>
<text text-anchor="middle" x="73" y="-120.65" font-family="Helvetica,sans-Serif" font-size="10.00">_quantities</text>
</a>
</g>
</g>
<!-- Node2&#45;&gt;Node3 -->
<g id="edge2_Node000002_Node000003" class="edge">
<title>Node2&#45;&gt;Node3</title>
<g id="a_edge2_Node000002_Node000003"><a xlink:title=" ">
<path fill="none" stroke="#63b8ff" d="M171.85,-150.06C163.29,-148.67 154.66,-147.27 146.26,-145.9"/>
<polygon fill="#63b8ff" stroke="#63b8ff" points="171.43,-153.54 181.86,-151.69 172.55,-146.63 171.43,-153.54"/>
</a>
</g>
</g>
<!-- Node4&#45;&gt;Node3 -->
<g id="edge4_Node000004_Node000003" class="edge">
<title>Node4&#45;&gt;Node3</title>
<g id="a_edge4_Node000004_Node000003"><a xlink:title=" ">
<path fill="none" stroke="#63b8ff" d="M171.85,-118.77C163.29,-120.12 154.66,-121.47 146.26,-122.79"/>
<polygon fill="#63b8ff" stroke="#63b8ff" points="172.52,-122.21 181.86,-117.2 171.44,-115.29 172.52,-122.21"/>
</a>
</g>
</g>
<!-- Node5&#45;&gt;Node5 -->
<g id="edge6_Node000005_Node000005" class="edge">
<title>Node5&#45;&gt;Node5</title>
<g id="a_edge6_Node000005_Node000005"><a xlink:title=" ">
<path fill="none" stroke="#63b8ff" d="M292.06,-58.75C287.61,-63.12 276.76,-66.15 259.5,-66.15 230.44,-66.15 219.54,-57.56 226.8,-48.43"/>
<polygon fill="#63b8ff" stroke="#63b8ff" points="295.56,-58.47 292.2,-48.43 288.56,-58.38 295.56,-58.47"/>
</a>
</g>
</g>
<!-- Node5&#45;&gt;Node6 -->
<g id="edge7_Node000005_Node000006" class="edge">
<title>Node5&#45;&gt;Node6</title>
<g id="a_edge7_Node000005_Node000006"><a xlink:title=" ">
<path fill="none" stroke="#63b8ff" d="M178.2,-26.45C166.9,-26.36 155.36,-26.4 144.27,-26.57"/>
<polygon fill="#63b8ff" stroke="#63b8ff" points="178.44,-29.96 188.49,-26.58 178.53,-22.96 178.44,-29.96"/>
</a>
</g>
</g>
<!-- Node6&#45;&gt;Node5 -->
<g id="edge8_Node000006_Node000005" class="edge">
<title>Node6&#45;&gt;Node5</title>
<g id="a_edge8_Node000006_Node000005"><a xlink:title=" ">
<path fill="none" stroke="#63b8ff" d="M154.56,-39.85C165.86,-39.95 177.4,-39.9 188.49,-39.72"/>
<polygon fill="#63b8ff" stroke="#63b8ff" points="154.31,-36.35 144.27,-39.73 154.23,-43.35 154.31,-36.35"/>
</a>
</g>
</g>
<!-- Node6&#45;&gt;Node6 -->
<g id="edge9_Node000006_Node000006" class="edge">
<title>Node6&#45;&gt;Node6</title>
<g id="a_edge9_Node000006_Node000006"><a xlink:title=" ">
<path fill="none" stroke="#63b8ff" d="M105.56,-58.75C101.11,-63.12 90.26,-66.15 73,-66.15 43.94,-66.15 33.04,-57.56 40.3,-48.43"/>
<polygon fill="#63b8ff" stroke="#63b8ff" points="109.06,-58.47 105.7,-48.43 102.06,-58.38 109.06,-58.47"/>
</a>
</g>
</g>
</g>
</svg>
