<?xml version="1.0" encoding="UTF-8" standalone="no"?>
<!DOCTYPE svg PUBLIC "-//W3C//DTD SVG 1.1//EN"
 "http://www.w3.org/Graphics/SVG/1.1/DTD/svg11.dtd">
<!-- Generated by graphviz version 2.43.0 (0)
 -->
<!-- Title: polyfem::mesh::NCMesh3D::get_index_from_element_edge Pages: 1 -->
<!--zoomable 387 -->

<svg id="main" version="1.1" xmlns="http://www.w3.org/2000/svg" xmlns:xlink="http://www.w3.org/1999/xlink" xml:space="preserve" onload="init(evt)">
<style type="text/css"><![CDATA[
.node, .edge {opacity: 0.7;}
.node.selected, .edge.selected {opacity: 1;}
.edge:hover path { stroke: red; }
.edge:hover polygon { stroke: red; fill: red; }
]]></style>

<defs>
  <circle id="rim" cx="0" cy="0" r="7"/>
  <circle id="rim2" cx="0" cy="0" r="3.5"/>
  <g id="zoomPlus">
    <use xlink:href="#rim" fill="#404040"><set attributeName="fill" to="#808080" begin="zoomplus.mouseover" end="zoomplus.mouseout"/></use>
    <path d="M-4,0h8M0,-4v8" fill="none" stroke="white" stroke-width="1.5" pointer-events="none"/>
  </g>
  <g id="zoomMin">
    <use xlink:href="#rim" fill="#404040"><set attributeName="fill" to="#808080" begin="zoomminus.mouseover" end="zoomminus.mouseout"/></use>
    <path d="M-4,0h8" fill="none" stroke="white" stroke-width="1.5" pointer-events="none"/>
  </g>
  <g id="arrowUp" transform="translate(30 24)">
    <use xlink:href="#rim"/>
    <path pointer-events="none" fill="none" stroke="white" stroke-width="1.5" d="M0,-3.0v7 M-2.5,-0.5L0,-3.0L2.5,-0.5"/>
  </g>
  <g id="arrowRight" transform="rotate(90) translate(36 -43)">
    <use xlink:href="#rim"/>
    <path pointer-events="none" fill="none" stroke="white" stroke-width="1.5" d="M0,-3.0v7 M-2.5,-0.5L0,-3.0L2.5,-0.5"/>
  </g>
  <g id="arrowDown" transform="rotate(180) translate(-30 -48)">
    <use xlink:href="#rim"/>
    <path pointer-events="none" fill="none" stroke="white" stroke-width="1.5" d="M0,-3.0v7 M-2.5,-0.5L0,-3.0L2.5,-0.5"/>
  </g>
  <g id="arrowLeft" transform="rotate(270) translate(-36 17)">
    <use xlink:href="#rim"/>
    <path pointer-events="none" fill="none" stroke="white" stroke-width="1.5" d="M0,-3.0v7 M-2.5,-0.5L0,-3.0L2.5,-0.5"/>
  </g>
  <g id="resetDef">
    <use xlink:href="#rim2" fill="#404040"><set attributeName="fill" to="#808080" begin="reset.mouseover" end="reset.mouseout"/></use>
  </g>
</defs>
<script type="application/ecmascript">
var viewWidth = 740;
var viewHeight = 387;
var sectionId = 'dynsection-65';
</script>
<script type="application/ecmascript" xlink:href="svg.min.js"/>
<svg id="graph" class="graph">
<g id="viewport">
<title>polyfem::mesh::NCMesh3D::get_index_from_element_edge</title>
<!-- Node1 -->
<g id="Node000001" class="node">
<title>Node1</title>
<g id="a_Node000001"><a xlink:title=" ">
<polygon fill="#999999" stroke="#666666" points="174,-178 0,-178 0,-148 174,-148 174,-178"/>
<text text-anchor="start" x="8" y="-166" font-family="Helvetica,sans-Serif" font-size="10.00">polyfem::mesh::NCMesh3D</text>
<text text-anchor="middle" x="87" y="-155" font-family="Helvetica,sans-Serif" font-size="10.00">::get_index_from_element_edge</text>
</a>
</g>
</g>
<!-- Node2 -->
<g id="Node000002" class="node">
<title>Node2</title>
<g id="a_Node000002"><a xlink:href="classpolyfem_1_1mesh_1_1_n_c_mesh3_d.html#a7243aed3a7b37ad3bc0b869a2167a93f" target="_top" xlink:title=" ">
<polygon fill="white" stroke="#666666" points="546,-283 396,-283 396,-253 546,-253 546,-283"/>
<text text-anchor="start" x="404" y="-271" font-family="Helvetica,sans-Serif" font-size="10.00">polyfem::mesh::NCMesh3D</text>
<text text-anchor="middle" x="471" y="-260" font-family="Helvetica,sans-Serif" font-size="10.00">::all_to_valid_edge</text>
</a>
</g>
</g>
<!-- Node1&#45;&gt;Node2 -->
<g id="edge1_Node000001_Node000002" class="edge">
<title>Node1&#45;&gt;Node2</title>
<g id="a_edge1_Node000001_Node000002"><a xlink:title=" ">
<path fill="none" stroke="#63b8ff" d="M103.35,-178.1C125.02,-198.35 166.81,-233.55 210,-249 266.23,-269.11 333.57,-273.54 385.63,-273.11"/>
<polygon fill="#63b8ff" stroke="#63b8ff" points="385.88,-276.6 395.83,-272.96 385.78,-269.6 385.88,-276.6"/>
</a>
</g>
</g>
<!-- Node3 -->
<g id="Node000003" class="node">
<title>Node3</title>
<g id="a_Node000003"><a xlink:href="classpolyfem_1_1mesh_1_1_n_c_mesh3_d.html#a8366c4c1ef90370c7cb2c20260bcdc76" target="_top" xlink:title=" ">
<polygon fill="white" stroke="#666666" points="360,-331 210,-331 210,-301 360,-301 360,-331"/>
<text text-anchor="start" x="218" y="-319" font-family="Helvetica,sans-Serif" font-size="10.00">polyfem::mesh::NCMesh3D</text>
<text text-anchor="middle" x="285" y="-308" font-family="Helvetica,sans-Serif" font-size="10.00">::cell_face</text>
</a>
</g>
</g>
<!-- Node1&#45;&gt;Node3 -->
<g id="edge2_Node000001_Node000003" class="edge">
<title>Node1&#45;&gt;Node3</title>
<g id="a_edge2_Node000001_Node000003"><a xlink:title=" ">
<path fill="none" stroke="#63b8ff" d="M100.54,-178.23C121.26,-202.66 164.88,-251.01 210,-282 217.87,-287.41 226.74,-292.33 235.53,-296.64"/>
<polygon fill="#63b8ff" stroke="#63b8ff" points="234.08,-299.83 244.62,-300.91 237.06,-293.49 234.08,-299.83"/>
</a>
</g>
</g>
<!-- Node6 -->
<g id="Node000006" class="node">
<title>Node6</title>
<g id="a_Node000006"><a xlink:href="classpolyfem_1_1mesh_1_1_n_c_mesh3_d.html#a2140d89e8b4da0d18e7dd386f6af1ea8" target="_top" xlink:title=" ">
<polygon fill="white" stroke="#666666" points="360,-240 210,-240 210,-210 360,-210 360,-240"/>
<text text-anchor="start" x="218" y="-228" font-family="Helvetica,sans-Serif" font-size="10.00">polyfem::mesh::NCMesh3D</text>
<text text-anchor="middle" x="285" y="-217" font-family="Helvetica,sans-Serif" font-size="10.00">::face_edge</text>
</a>
</g>
</g>
<!-- Node1&#45;&gt;Node6 -->
<g id="edge5_Node000001_Node000006" class="edge">
<title>Node1&#45;&gt;Node6</title>
<g id="a_edge5_Node000001_Node000006"><a xlink:title=" ">
<path fill="none" stroke="#63b8ff" d="M135.45,-178.01C162.93,-186.7 197.72,-197.71 226.72,-206.88"/>
<polygon fill="#63b8ff" stroke="#63b8ff" points="225.72,-210.24 236.31,-209.91 227.83,-203.56 225.72,-210.24"/>
</a>
</g>
</g>
<!-- Node7 -->
<g id="Node000007" class="node">
<title>Node7</title>
<g id="a_Node000007"><a xlink:href="classpolyfem_1_1mesh_1_1_n_c_mesh3_d.html#a91745979c297cfd7873980b73eff7790" target="_top" xlink:title=" ">
<polygon fill="white" stroke="#666666" points="546,-197 396,-197 396,-167 546,-167 546,-197"/>
<text text-anchor="start" x="404" y="-185" font-family="Helvetica,sans-Serif" font-size="10.00">polyfem::mesh::NCMesh3D</text>
<text text-anchor="middle" x="471" y="-174" font-family="Helvetica,sans-Serif" font-size="10.00">::find_edge</text>
</a>
</g>
</g>
<!-- Node1&#45;&gt;Node7 -->
<g id="edge12_Node000001_Node000007" class="edge">
<title>Node1&#45;&gt;Node7</title>
<g id="a_edge12_Node000001_Node000007"><a xlink:title=" ">
<path fill="none" stroke="#63b8ff" d="M174.2,-167.29C237.36,-170.43 322.67,-174.67 385.44,-177.79"/>
<polygon fill="#63b8ff" stroke="#63b8ff" points="385.54,-181.3 395.7,-178.3 385.89,-174.31 385.54,-181.3"/>
</a>
</g>
</g>
<!-- Node9 -->
<g id="Node000009" class="node">
<title>Node9</title>
<g id="a_Node000009"><a xlink:href="classpolyfem_1_1mesh_1_1_n_c_mesh3_d.html#adb6575b8c2332ab9eefabdaa0f5ddd4d" target="_top" xlink:title="id of the face vertex">
<polygon fill="white" stroke="#666666" points="546,-149 396,-149 396,-119 546,-119 546,-149"/>
<text text-anchor="start" x="404" y="-137" font-family="Helvetica,sans-Serif" font-size="10.00">polyfem::mesh::NCMesh3D</text>
<text text-anchor="middle" x="471" y="-126" font-family="Helvetica,sans-Serif" font-size="10.00">::face_vertex</text>
</a>
</g>
</g>
<!-- Node1&#45;&gt;Node9 -->
<g id="edge9_Node000001_Node000009" class="edge">
<title>Node1&#45;&gt;Node9</title>
<g id="a_edge9_Node000001_Node000009"><a xlink:title=" ">
<path fill="none" stroke="#63b8ff" d="M174.2,-156.46C237.36,-151.66 322.67,-145.18 385.44,-140.42"/>
<polygon fill="#63b8ff" stroke="#63b8ff" points="386,-143.89 395.7,-139.64 385.47,-136.91 386,-143.89"/>
</a>
</g>
</g>
<!-- Node11 -->
<g id="Node000011" class="node">
<title>Node11</title>
<g id="a_Node000011"><a xlink:href="classpolyfem_1_1mesh_1_1_n_c_mesh3_d.html#a5c61d1e16dc44adae54650ddf85d0215" target="_top" xlink:title="number of vertices of a face">
<polygon fill="white" stroke="#666666" points="546,-53 396,-53 396,-23 546,-23 546,-53"/>
<text text-anchor="start" x="404" y="-41" font-family="Helvetica,sans-Serif" font-size="10.00">polyfem::mesh::NCMesh3D</text>
<text text-anchor="middle" x="471" y="-30" font-family="Helvetica,sans-Serif" font-size="10.00">::n_face_vertices</text>
</a>
</g>
</g>
<!-- Node1&#45;&gt;Node11 -->
<g id="edge13_Node000001_Node000011" class="edge">
<title>Node1&#45;&gt;Node11</title>
<g id="a_edge13_Node000001_Node000011"><a xlink:title=" ">
<path fill="none" stroke="#63b8ff" d="M104.27,-147.69C126.35,-127.87 167.91,-93.88 210,-77 266,-54.54 333.49,-44.88 385.67,-40.78"/>
<polygon fill="#63b8ff" stroke="#63b8ff" points="386.18,-44.25 395.9,-40.04 385.67,-37.27 386.18,-44.25"/>
</a>
</g>
</g>
<!-- Node12 -->
<g id="Node000012" class="node">
<title>Node12</title>
<g id="a_Node000012"><a xlink:href="classpolyfem_1_1mesh_1_1_n_c_mesh3_d.html#a7d32ea3985e408f0c4f367f02b8fb774" target="_top" xlink:title=" ">
<polygon fill="white" stroke="#666666" points="360,-116 210,-116 210,-86 360,-86 360,-116"/>
<text text-anchor="start" x="218" y="-104" font-family="Helvetica,sans-Serif" font-size="10.00">polyfem::mesh::NCMesh3D</text>
<text text-anchor="middle" x="285" y="-93" font-family="Helvetica,sans-Serif" font-size="10.00">::switch_vertex</text>
</a>
</g>
</g>
<!-- Node1&#45;&gt;Node12 -->
<g id="edge14_Node000001_Node000012" class="edge">
<title>Node1&#45;&gt;Node12</title>
<g id="a_edge14_Node000001_Node000012"><a xlink:title=" ">
<path fill="none" stroke="#63b8ff" d="M135.45,-147.99C162.93,-139.3 197.72,-128.29 226.72,-119.12"/>
<polygon fill="#63b8ff" stroke="#63b8ff" points="227.83,-122.44 236.31,-116.09 225.72,-115.76 227.83,-122.44"/>
</a>
</g>
</g>
<!-- Node15 -->
<g id="Node000015" class="node">
<title>Node15</title>
<g id="a_Node000015"><a xlink:href="classpolyfem_1_1mesh_1_1_n_c_mesh3_d.html#ac0f5cb1c220c2224aa730bcb475dde80" target="_top" xlink:title=" ">
<polygon fill="white" stroke="#666666" points="360,-30 210,-30 210,0 360,0 360,-30"/>
<text text-anchor="start" x="218" y="-18" font-family="Helvetica,sans-Serif" font-size="10.00">polyfem::mesh::NCMesh3D</text>
<text text-anchor="middle" x="285" y="-7" font-family="Helvetica,sans-Serif" font-size="10.00">::valid_to_all_vertex</text>
</a>
</g>
</g>
<!-- Node1&#45;&gt;Node15 -->
<g id="edge20_Node000001_Node000015" class="edge">
<title>Node1&#45;&gt;Node15</title>
<g id="a_edge20_Node000001_Node000015"><a xlink:title=" ">
<path fill="none" stroke="#63b8ff" d="M100.01,-147.87C120.31,-123.14 163.76,-73.85 210,-44 215.61,-40.38 221.74,-37.09 228,-34.14"/>
<polygon fill="#63b8ff" stroke="#63b8ff" points="229.48,-37.31 237.2,-30.06 226.64,-30.91 229.48,-37.31"/>
</a>
</g>
</g>
<!-- Node4 -->
<g id="Node000004" class="node">
<title>Node4</title>
<g id="a_Node000004"><a xlink:href="classpolyfem_1_1mesh_1_1_n_c_mesh3_d.html#addc58a8fd57e3d78433438c68577c57b" target="_top" xlink:title=" ">
<polygon fill="white" stroke="#666666" points="546,-379 396,-379 396,-349 546,-349 546,-379"/>
<text text-anchor="start" x="404" y="-367" font-family="Helvetica,sans-Serif" font-size="10.00">polyfem::mesh::NCMesh3D</text>
<text text-anchor="middle" x="471" y="-356" font-family="Helvetica,sans-Serif" font-size="10.00">::all_to_valid_face</text>
</a>
</g>
</g>
<!-- Node3&#45;&gt;Node4 -->
<g id="edge3_Node000003_Node000004" class="edge">
<title>Node3&#45;&gt;Node4</title>
<g id="a_edge3_Node000003_Node000004"><a xlink:title=" ">
<path fill="none" stroke="#63b8ff" d="M343.71,-331.06C362.38,-335.93 383.25,-341.37 402.56,-346.41"/>
<polygon fill="#63b8ff" stroke="#63b8ff" points="401.93,-349.86 412.49,-349 403.7,-343.09 401.93,-349.86"/>
</a>
</g>
</g>
<!-- Node5 -->
<g id="Node000005" class="node">
<title>Node5</title>
<g id="a_Node000005"><a xlink:href="classpolyfem_1_1mesh_1_1_n_c_mesh3_d.html#a79a873f7d9f54afe2640ec2a2ad475e2" target="_top" xlink:title=" ">
<polygon fill="white" stroke="#666666" points="546,-331 396,-331 396,-301 546,-301 546,-331"/>
<text text-anchor="start" x="404" y="-319" font-family="Helvetica,sans-Serif" font-size="10.00">polyfem::mesh::NCMesh3D</text>
<text text-anchor="middle" x="471" y="-308" font-family="Helvetica,sans-Serif" font-size="10.00">::valid_to_all_elem</text>
</a>
</g>
</g>
<!-- Node3&#45;&gt;Node5 -->
<g id="edge4_Node000003_Node000005" class="edge">
<title>Node3&#45;&gt;Node5</title>
<g id="a_edge4_Node000003_Node000005"><a xlink:title=" ">
<path fill="none" stroke="#63b8ff" d="M360.04,-316C368.51,-316 377.19,-316 385.78,-316"/>
<polygon fill="#63b8ff" stroke="#63b8ff" points="385.81,-319.5 395.81,-316 385.81,-312.5 385.81,-319.5"/>
</a>
</g>
</g>
<!-- Node6&#45;&gt;Node2 -->
<g id="edge6_Node000006_Node000002" class="edge">
<title>Node6&#45;&gt;Node2</title>
<g id="a_edge6_Node000006_Node000002"><a xlink:title=" ">
<path fill="none" stroke="#63b8ff" d="M350.35,-240.04C365.06,-243.48 380.81,-247.16 395.89,-250.68"/>
<polygon fill="#63b8ff" stroke="#63b8ff" points="395.15,-254.1 405.68,-252.97 396.74,-247.29 395.15,-254.1"/>
</a>
</g>
</g>
<!-- Node6&#45;&gt;Node7 -->
<g id="edge7_Node000006_Node000007" class="edge">
<title>Node6&#45;&gt;Node7</title>
<g id="a_edge7_Node000006_Node000007"><a xlink:title=" ">
<path fill="none" stroke="#63b8ff" d="M350.35,-209.96C365.06,-206.52 380.81,-202.84 395.89,-199.32"/>
<polygon fill="#63b8ff" stroke="#63b8ff" points="396.74,-202.71 405.68,-197.03 395.15,-195.9 396.74,-202.71"/>
</a>
</g>
</g>
<!-- Node8 -->
<g id="Node000008" class="node">
<title>Node8</title>
<g id="a_Node000008"><a xlink:href="classpolyfem_1_1mesh_1_1_n_c_mesh3_d.html#a4a1f44a47eebdf4bdea5981678812a22" target="_top" xlink:title=" ">
<polygon fill="white" stroke="#666666" points="732,-218 582,-218 582,-188 732,-188 732,-218"/>
<text text-anchor="start" x="590" y="-206" font-family="Helvetica,sans-Serif" font-size="10.00">polyfem::mesh::NCMesh3D</text>
<text text-anchor="middle" x="657" y="-195" font-family="Helvetica,sans-Serif" font-size="10.00">::valid_to_all_face</text>
</a>
</g>
</g>
<!-- Node6&#45;&gt;Node8 -->
<g id="edge8_Node000006_Node000008" class="edge">
<title>Node6&#45;&gt;Node8</title>
<g id="a_edge8_Node000006_Node000008"><a xlink:title=" ">
<path fill="none" stroke="#63b8ff" d="M360.43,-220.57C421.52,-216.94 508.03,-211.8 571.68,-208.01"/>
<polygon fill="#63b8ff" stroke="#63b8ff" points="571.91,-211.51 581.69,-207.42 571.5,-204.52 571.91,-211.51"/>
</a>
</g>
</g>
<!-- Node9&#45;&gt;Node8 -->
<g id="edge11_Node000009_Node000008" class="edge">
<title>Node9&#45;&gt;Node8</title>
<g id="a_edge11_Node000009_Node000008"><a xlink:title=" ">
<path fill="none" stroke="#63b8ff" d="M520.34,-149.1C528.93,-151.95 537.76,-154.98 546,-158 567.81,-165.99 591.71,-175.65 611.65,-183.97"/>
<polygon fill="#63b8ff" stroke="#63b8ff" points="610.51,-187.29 621.09,-187.94 613.22,-180.84 610.51,-187.29"/>
</a>
</g>
</g>
<!-- Node10 -->
<g id="Node000010" class="node">
<title>Node10</title>
<g id="a_Node000010"><a xlink:href="classpolyfem_1_1mesh_1_1_n_c_mesh3_d.html#a095ce65007b1fc4c1e312ee5dab56608" target="_top" xlink:title=" ">
<polygon fill="white" stroke="#666666" points="732,-149 582,-149 582,-119 732,-119 732,-149"/>
<text text-anchor="start" x="590" y="-137" font-family="Helvetica,sans-Serif" font-size="10.00">polyfem::mesh::NCMesh3D</text>
<text text-anchor="middle" x="657" y="-126" font-family="Helvetica,sans-Serif" font-size="10.00">::all_to_valid_vertex</text>
</a>
</g>
</g>
<!-- Node9&#45;&gt;Node10 -->
<g id="edge10_Node000009_Node000010" class="edge">
<title>Node9&#45;&gt;Node10</title>
<g id="a_edge10_Node000009_Node000010"><a xlink:title=" ">
<path fill="none" stroke="#63b8ff" d="M546.04,-134C554.51,-134 563.19,-134 571.78,-134"/>
<polygon fill="#63b8ff" stroke="#63b8ff" points="571.81,-137.5 581.81,-134 571.81,-130.5 571.81,-137.5"/>
</a>
</g>
</g>
<!-- Node12&#45;&gt;Node9 -->
<g id="edge18_Node000012_Node000009" class="edge">
<title>Node12&#45;&gt;Node9</title>
<g id="a_edge18_Node000012_Node000009"><a xlink:title=" ">
<path fill="none" stroke="#63b8ff" d="M360.04,-114.28C368.51,-115.8 377.19,-117.36 385.78,-118.9"/>
<polygon fill="#63b8ff" stroke="#63b8ff" points="385.35,-122.37 395.81,-120.69 386.58,-115.48 385.35,-122.37"/>
</a>
</g>
</g>
<!-- Node12&#45;&gt;Node11 -->
<g id="edge19_Node000012_Node000011" class="edge">
<title>Node12&#45;&gt;Node11</title>
<g id="a_edge19_Node000012_Node000011"><a xlink:title=" ">
<path fill="none" stroke="#63b8ff" d="M327.69,-85.92C348.22,-78.57 373.36,-69.68 396,-62 401.57,-60.11 407.39,-58.17 413.21,-56.25"/>
<polygon fill="#63b8ff" stroke="#63b8ff" points="414.55,-59.49 422.96,-53.04 412.37,-52.84 414.55,-59.49"/>
</a>
</g>
</g>
<!-- Node13 -->
<g id="Node000013" class="node">
<title>Node13</title>
<g id="a_Node000013"><a xlink:href="classpolyfem_1_1mesh_1_1_n_c_mesh3_d.html#ac3c9a2724b4d637dd1f4f855c2ccbcab" target="_top" xlink:title="id of the edge vertex">
<polygon fill="white" stroke="#666666" points="546,-101 396,-101 396,-71 546,-71 546,-101"/>
<text text-anchor="start" x="404" y="-89" font-family="Helvetica,sans-Serif" font-size="10.00">polyfem::mesh::NCMesh3D</text>
<text text-anchor="middle" x="471" y="-78" font-family="Helvetica,sans-Serif" font-size="10.00">::edge_vertex</text>
</a>
</g>
</g>
<!-- Node12&#45;&gt;Node13 -->
<g id="edge15_Node000012_Node000013" class="edge">
<title>Node12&#45;&gt;Node13</title>
<g id="a_edge15_Node000012_Node000013"><a xlink:title=" ">
<path fill="none" stroke="#63b8ff" d="M360.04,-94.96C368.51,-94.27 377.19,-93.57 385.78,-92.87"/>
<polygon fill="#63b8ff" stroke="#63b8ff" points="386.12,-96.35 395.81,-92.05 385.56,-89.37 386.12,-96.35"/>
</a>
</g>
</g>
<!-- Node13&#45;&gt;Node10 -->
<g id="edge16_Node000013_Node000010" class="edge">
<title>Node13&#45;&gt;Node10</title>
<g id="a_edge16_Node000013_Node000010"><a xlink:title=" ">
<path fill="none" stroke="#63b8ff" d="M529.71,-101.06C548.38,-105.93 569.25,-111.37 588.56,-116.41"/>
<polygon fill="#63b8ff" stroke="#63b8ff" points="587.93,-119.86 598.49,-119 589.7,-113.09 587.93,-119.86"/>
</a>
</g>
</g>
<!-- Node14 -->
<g id="Node000014" class="node">
<title>Node14</title>
<g id="a_Node000014"><a xlink:href="classpolyfem_1_1mesh_1_1_n_c_mesh3_d.html#a1c00a11ce11f518aa3eb55fa16e58ed4" target="_top" xlink:title=" ">
<polygon fill="white" stroke="#666666" points="732,-101 582,-101 582,-71 732,-71 732,-101"/>
<text text-anchor="start" x="590" y="-89" font-family="Helvetica,sans-Serif" font-size="10.00">polyfem::mesh::NCMesh3D</text>
<text text-anchor="middle" x="657" y="-78" font-family="Helvetica,sans-Serif" font-size="10.00">::valid_to_all_edge</text>
</a>
</g>
</g>
<!-- Node13&#45;&gt;Node14 -->
<g id="edge17_Node000013_Node000014" class="edge">
<title>Node13&#45;&gt;Node14</title>
<g id="a_edge17_Node000013_Node000014"><a xlink:title=" ">
<path fill="none" stroke="#63b8ff" d="M546.04,-86C554.51,-86 563.19,-86 571.78,-86"/>
<polygon fill="#63b8ff" stroke="#63b8ff" points="571.81,-89.5 581.81,-86 571.81,-82.5 571.81,-89.5"/>
</a>
</g>
</g>
</g>
</svg>

<g id="navigator" transform="translate(0 0)" fill="#404254">
  <rect fill="#f2f5e9" fill-opacity="0.5" stroke="#606060" stroke-width=".5" x="0" y="0" width="60" height="60"/>
  <use id="zoomplus" xlink:href="#zoomPlus" x="17" y="9" onmousedown="handleZoom(evt,'in')"/>
  <use id="zoomminus" xlink:href="#zoomMin" x="42" y="9" onmousedown="handleZoom(evt,'out')"/>
  <use id="reset" xlink:href="#resetDef" x="30" y="36" onmousedown="handleReset()"/>
   <use id="arrowup" xlink:href="#arrowUp" x="0" y="0" onmousedown="handlePan(0,-1)"/>
  <use id="arrowright" xlink:href="#arrowRight" x="0" y="0" onmousedown="handlePan(1,0)"/>
  <use id="arrowdown" xlink:href="#arrowDown" x="0" y="0" onmousedown="handlePan(0,1)"/>
  <use id="arrowleft" xlink:href="#arrowLeft" x="0" y="0" onmousedown="handlePan(-1,0)"/>
</g>
<svg viewBox="0 0 15 15" width="100%" height="30px" preserveAspectRatio="xMaxYMin meet">
 <g id="arrow_out" transform="scale(0.3 0.3)">
  <a xlink:href="classpolyfem_1_1mesh_1_1_n_c_mesh3_d_a6899bc07d12b5d6118e963e3c698c227_cgraph_org.svg" target="_base">
   <rect id="button" ry="5" rx="5" y="6" x="6" height="38" width="38"
        fill="#f2f5e9" fill-opacity="0.5" stroke="#606060" stroke-width="1.0"/>
   <path id="arrow"
     d="M 11.500037,31.436501 C 11.940474,20.09759 22.043105,11.32322 32.158766,21.979434 L 37.068811,17.246167 C 37.068811,17.246167 37.088388,32 37.088388,32 L 22.160133,31.978069 C 22.160133,31.978069 26.997745,27.140456 26.997745,27.140456 C 18.528582,18.264221 13.291696,25.230495 11.500037,31.436501 z"
     style="fill:#404040;"/>
  </a>
 </g>
</svg>

<style type='text/css'>
<![CDATA[
[data-mouse-over-selected='false'] { opacity: 0.7; }
[data-mouse-over-selected='true']  { opacity: 1.0; }
]]>
</style>
<script type="application/ecmascript"><![CDATA[
document.addEventListener('DOMContentLoaded', (event) => {
  highlightEdges();
  highlightAdjacentNodes();
});
]]></script>
</svg>
