<?xml version="1.0" encoding="UTF-8" standalone="no"?>
<!DOCTYPE svg PUBLIC "-//W3C//DTD SVG 1.1//EN"
 "http://www.w3.org/Graphics/SVG/1.1/DTD/svg11.dtd">
<!-- Generated by graphviz version 2.43.0 (0)
 -->
<!-- Title: polyfem::assembler::AssemblerUtils::has_damping Pages: 1 -->
<svg width="801pt" height="67pt"
 viewBox="0.00 0.00 801.00 66.50" xmlns="http://www.w3.org/2000/svg" xmlns:xlink="http://www.w3.org/1999/xlink">
<g id="graph0" class="graph" transform="scale(1 1) rotate(0) translate(4 62.5)">
<title>polyfem::assembler::AssemblerUtils::has_damping</title>
<!-- Node1 -->
<g id="node1" class="node">
<title>Node1</title>
<g id="a_node1"><a xlink:title=" ">
<polygon fill="#bfbfbf" stroke="black" points="673,-17 673,-58 793,-58 793,-17 673,-17"/>
<text text-anchor="start" x="681" y="-46" font-family="Helvetica,sans-Serif" font-size="10.00">polyfem::assembler</text>
<text text-anchor="start" x="681" y="-35" font-family="Helvetica,sans-Serif" font-size="10.00">::AssemblerUtils::has</text>
<text text-anchor="middle" x="733" y="-24" font-family="Helvetica,sans-Serif" font-size="10.00">_damping</text>
</a>
</g>
</g>
<!-- Node2 -->
<g id="node2" class="node">
<title>Node2</title>
<g id="a_node2"><a xlink:href="classpolyfem_1_1_state.html#abd851705312f4ec60428cf62dc960889" target="_top" xlink:title="initialize the nonlinear solver">
<polygon fill="none" stroke="black" points="502,-22.5 502,-52.5 637,-52.5 637,-22.5 502,-22.5"/>
<text text-anchor="start" x="510" y="-40.5" font-family="Helvetica,sans-Serif" font-size="10.00">polyfem::State::init</text>
<text text-anchor="middle" x="569.5" y="-29.5" font-family="Helvetica,sans-Serif" font-size="10.00">_nonlinear_tensor_solve</text>
</a>
</g>
</g>
<!-- Node1&#45;&gt;Node2 -->
<g id="edge1" class="edge">
<title>Node1&#45;&gt;Node2</title>
<path fill="none" stroke="midnightblue" d="M662.57,-37.5C654.12,-37.5 645.49,-37.5 637.08,-37.5"/>
<polygon fill="midnightblue" stroke="midnightblue" points="662.78,-41 672.78,-37.5 662.78,-34 662.78,-41"/>
</g>
<!-- Node3 -->
<g id="node3" class="node">
<title>Node3</title>
<g id="a_node3"><a xlink:href="classpolyfem_1_1_state.html#a5f707e0e648aa0e3ffd866f9599f39d0" target="_top" xlink:title="solves the problems">
<polygon fill="none" stroke="black" points="157,-22.5 157,-52.5 278,-52.5 278,-22.5 157,-22.5"/>
<text text-anchor="start" x="165" y="-40.5" font-family="Helvetica,sans-Serif" font-size="10.00">polyfem::State::solve</text>
<text text-anchor="middle" x="217.5" y="-29.5" font-family="Helvetica,sans-Serif" font-size="10.00">_problem</text>
</a>
</g>
</g>
<!-- Node2&#45;&gt;Node3 -->
<g id="edge2" class="edge">
<title>Node2&#45;&gt;Node3</title>
<path fill="none" stroke="midnightblue" d="M491.67,-39.99C483.01,-40.2 474.32,-40.38 466,-40.5 398.45,-41.49 381.55,-41.56 314,-40.5 302.39,-40.32 289.99,-40.01 278.1,-39.66"/>
<polygon fill="midnightblue" stroke="midnightblue" points="491.88,-43.49 501.79,-39.74 491.71,-36.49 491.88,-43.49"/>
</g>
<!-- Node5 -->
<g id="node5" class="node">
<title>Node5</title>
<g id="a_node5"><a xlink:href="classpolyfem_1_1_state.html#adad1ddc955ed74e3bbb706ea2e0fa8b8" target="_top" xlink:title="solves transient tensor nonlinear problem">
<polygon fill="none" stroke="black" points="314,-0.5 314,-30.5 466,-30.5 466,-0.5 314,-0.5"/>
<text text-anchor="start" x="322" y="-18.5" font-family="Helvetica,sans-Serif" font-size="10.00">polyfem::State::solve</text>
<text text-anchor="middle" x="390" y="-7.5" font-family="Helvetica,sans-Serif" font-size="10.00">_transient_tensor_nonlinear</text>
</a>
</g>
</g>
<!-- Node2&#45;&gt;Node5 -->
<g id="edge4" class="edge">
<title>Node2&#45;&gt;Node5</title>
<path fill="none" stroke="midnightblue" d="M491.91,-28.01C483.33,-26.94 474.59,-25.86 466.02,-24.8"/>
<polygon fill="midnightblue" stroke="midnightblue" points="491.55,-31.49 501.9,-29.25 492.41,-24.54 491.55,-31.49"/>
</g>
<!-- Node4 -->
<g id="node4" class="node">
<title>Node4</title>
<g id="a_node4"><a xlink:href="classpolyfem_1_1_state.html#aedf3207db0c8d717766f410878876cab" target="_top" xlink:title="solves the problem, call other methods">
<polygon fill="none" stroke="black" points="0,-28 0,-47 121,-47 121,-28 0,-28"/>
<text text-anchor="middle" x="60.5" y="-35" font-family="Helvetica,sans-Serif" font-size="10.00">polyfem::State::solve</text>
</a>
</g>
</g>
<!-- Node3&#45;&gt;Node4 -->
<g id="edge3" class="edge">
<title>Node3&#45;&gt;Node4</title>
<path fill="none" stroke="midnightblue" d="M146.34,-37.5C137.88,-37.5 129.3,-37.5 121.01,-37.5"/>
<polygon fill="midnightblue" stroke="midnightblue" points="146.57,-41 156.57,-37.5 146.57,-34 146.57,-41"/>
</g>
<!-- Node5&#45;&gt;Node3 -->
<g id="edge5" class="edge">
<title>Node5&#45;&gt;Node3</title>
<path fill="none" stroke="midnightblue" d="M303.59,-26.52C294.95,-27.64 286.31,-28.75 278.02,-29.82"/>
<polygon fill="midnightblue" stroke="midnightblue" points="304.25,-29.96 313.72,-25.21 303.35,-23.02 304.25,-29.96"/>
</g>
</g>
</svg>
