<?xml version="1.0" encoding="UTF-8" standalone="no"?>
<!DOCTYPE svg PUBLIC "-//W3C//DTD SVG 1.1//EN"
 "http://www.w3.org/Graphics/SVG/1.1/DTD/svg11.dtd">
<!-- Generated by graphviz version 2.43.0 (0)
 -->
<!-- Title: polyfem::solver::VariableToSimulation::update Pages: 1 -->
<svg width="692pt" height="146pt"
 viewBox="0.00 0.00 692.00 146.00" xmlns="http://www.w3.org/2000/svg" xmlns:xlink="http://www.w3.org/1999/xlink">
<g id="graph0" class="graph" transform="scale(1 1) rotate(0) translate(4 142)">
<title>polyfem::solver::VariableToSimulation::update</title>
<!-- Node1 -->
<g id="Node000001" class="node">
<title>Node1</title>
<g id="a_Node000001"><a xlink:title=" ">
<polygon fill="#999999" stroke="#666666" points="139,-84 0,-84 0,-54 139,-54 139,-84"/>
<text text-anchor="start" x="8" y="-72" font-family="Helvetica,sans-Serif" font-size="10.00">polyfem::solver::Variable</text>
<text text-anchor="middle" x="69.5" y="-61" font-family="Helvetica,sans-Serif" font-size="10.00">ToSimulation::update</text>
</a>
</g>
</g>
<!-- Node2 -->
<g id="Node000002" class="node">
<title>Node2</title>
<g id="a_Node000002"><a xlink:href="classpolyfem_1_1solver_1_1_composite_parametrization.html#af42e8ffafbdbf4e0f1f253595a5ed543" target="_top" xlink:title=" ">
<polygon fill="white" stroke="#666666" points="327,-138 175,-138 175,-108 327,-108 327,-138"/>
<text text-anchor="start" x="183" y="-126" font-family="Helvetica,sans-Serif" font-size="10.00">polyfem::solver::Composite</text>
<text text-anchor="middle" x="251" y="-115" font-family="Helvetica,sans-Serif" font-size="10.00">Parametrization::eval</text>
</a>
</g>
</g>
<!-- Node1&#45;&gt;Node2 -->
<g id="edge1_Node000001_Node000002" class="edge">
<title>Node1&#45;&gt;Node2</title>
<g id="a_edge1_Node000001_Node000002"><a xlink:title=" ">
<path fill="none" stroke="#63b8ff" d="M120.5,-84.04C142.1,-90.54 167.54,-98.19 190.14,-104.99"/>
<polygon fill="#63b8ff" stroke="#63b8ff" points="189.37,-108.42 199.96,-107.95 191.39,-101.71 189.37,-108.42"/>
</a>
</g>
</g>
<!-- Node3 -->
<g id="Node000003" class="node">
<title>Node3</title>
<g id="a_Node000003"><a xlink:href="classpolyfem_1_1solver_1_1_variable_to_simulation.html#add1131a5cecca74b48bf4d0a0fa9cddb" target="_top" xlink:title=" ">
<polygon fill="white" stroke="#666666" points="320.5,-89.5 181.5,-89.5 181.5,-48.5 320.5,-48.5 320.5,-89.5"/>
<text text-anchor="start" x="189.5" y="-77.5" font-family="Helvetica,sans-Serif" font-size="10.00">polyfem::solver::Variable</text>
<text text-anchor="start" x="189.5" y="-66.5" font-family="Helvetica,sans-Serif" font-size="10.00">ToSimulation::get_output</text>
<text text-anchor="middle" x="251" y="-55.5" font-family="Helvetica,sans-Serif" font-size="10.00">_indexing</text>
</a>
</g>
</g>
<!-- Node1&#45;&gt;Node3 -->
<g id="edge2_Node000001_Node000003" class="edge">
<title>Node1&#45;&gt;Node3</title>
<g id="a_edge2_Node000001_Node000003"><a xlink:title=" ">
<path fill="none" stroke="#63b8ff" d="M139.13,-69C149.63,-69 160.54,-69 171.24,-69"/>
<polygon fill="#63b8ff" stroke="#63b8ff" points="171.41,-72.5 181.41,-69 171.41,-65.5 171.41,-72.5"/>
</a>
</g>
</g>
<!-- Node8 -->
<g id="Node000008" class="node">
<title>Node8</title>
<g id="a_Node000008"><a xlink:href="classpolyfem_1_1solver_1_1_variable_to_simulation.html#ab49e0bfeeafbe03d97adc77a0c19ebb4" target="_top" xlink:title=" ">
<polygon fill="white" stroke="#666666" points="325.5,-30 176.5,-30 176.5,0 325.5,0 325.5,-30"/>
<text text-anchor="start" x="184.5" y="-18" font-family="Helvetica,sans-Serif" font-size="10.00">polyfem::solver::Variable</text>
<text text-anchor="middle" x="251" y="-7" font-family="Helvetica,sans-Serif" font-size="10.00">ToSimulation::update_state</text>
</a>
</g>
</g>
<!-- Node1&#45;&gt;Node8 -->
<g id="edge7_Node000001_Node000008" class="edge">
<title>Node1&#45;&gt;Node8</title>
<g id="a_edge7_Node000001_Node000008"><a xlink:title=" ">
<path fill="none" stroke="#63b8ff" d="M120.5,-53.96C142.1,-47.46 167.54,-39.81 190.14,-33.01"/>
<polygon fill="#63b8ff" stroke="#63b8ff" points="191.39,-36.29 199.96,-30.05 189.37,-29.58 191.39,-36.29"/>
</a>
</g>
</g>
<!-- Node4 -->
<g id="Node000004" class="node">
<title>Node4</title>
<g id="a_Node000004"><a xlink:href="namespacepolyfem.html#a8d6eb2c01f97c327e382b6dcda332777" target="_top" xlink:title=" ">
<polygon fill="white" stroke="#666666" points="506,-132 372,-132 372,-102 506,-102 506,-132"/>
<text text-anchor="start" x="380" y="-120" font-family="Helvetica,sans-Serif" font-size="10.00">polyfem::log_and_throw</text>
<text text-anchor="middle" x="439" y="-109" font-family="Helvetica,sans-Serif" font-size="10.00">_adjoint_error</text>
</a>
</g>
</g>
<!-- Node3&#45;&gt;Node4 -->
<g id="edge3_Node000003_Node000004" class="edge">
<title>Node3&#45;&gt;Node4</title>
<g id="a_edge3_Node000003_Node000004"><a xlink:title=" ">
<path fill="none" stroke="#63b8ff" d="M320.73,-86.74C336.76,-90.87 353.82,-95.28 369.82,-99.4"/>
<polygon fill="#63b8ff" stroke="#63b8ff" points="369.07,-102.83 379.63,-101.94 370.82,-96.05 369.07,-102.83"/>
</a>
</g>
</g>
<!-- Node6 -->
<g id="Node000006" class="node">
<title>Node6</title>
<g id="a_Node000006"><a xlink:href="classpolyfem_1_1solver_1_1_variable_to_simulation.html#adb558dcc6027a3fda5f8cb0ca8c43df8" target="_top" xlink:title=" ">
<polygon fill="white" stroke="#666666" points="508.5,-84 369.5,-84 369.5,-54 508.5,-54 508.5,-84"/>
<text text-anchor="start" x="377.5" y="-72" font-family="Helvetica,sans-Serif" font-size="10.00">polyfem::solver::Variable</text>
<text text-anchor="middle" x="439" y="-61" font-family="Helvetica,sans-Serif" font-size="10.00">ToSimulation::name</text>
</a>
</g>
</g>
<!-- Node3&#45;&gt;Node6 -->
<g id="edge5_Node000003_Node000006" class="edge">
<title>Node3&#45;&gt;Node6</title>
<g id="a_edge5_Node000003_Node000006"><a xlink:title=" ">
<path fill="none" stroke="#63b8ff" d="M320.73,-69C333.22,-69 346.35,-69 359.11,-69"/>
<polygon fill="#63b8ff" stroke="#63b8ff" points="359.24,-72.5 369.24,-69 359.24,-65.5 359.24,-72.5"/>
</a>
</g>
</g>
<!-- Node7 -->
<g id="Node000007" class="node">
<title>Node7</title>
<g id="a_Node000007"><a xlink:href="classpolyfem_1_1solver_1_1_composite_parametrization.html#a0444e6671378eaf12bc3c0e2a4601aa2" target="_top" xlink:title=" ">
<polygon fill="white" stroke="#666666" points="515,-36 363,-36 363,-6 515,-6 515,-36"/>
<text text-anchor="start" x="371" y="-24" font-family="Helvetica,sans-Serif" font-size="10.00">polyfem::solver::Composite</text>
<text text-anchor="middle" x="439" y="-13" font-family="Helvetica,sans-Serif" font-size="10.00">Parametrization::size</text>
</a>
</g>
</g>
<!-- Node3&#45;&gt;Node7 -->
<g id="edge6_Node000003_Node000007" class="edge">
<title>Node3&#45;&gt;Node7</title>
<g id="a_edge6_Node000003_Node000007"><a xlink:title=" ">
<path fill="none" stroke="#63b8ff" d="M320.73,-51.26C336.76,-47.13 353.82,-42.72 369.82,-38.6"/>
<polygon fill="#63b8ff" stroke="#63b8ff" points="370.82,-41.95 379.63,-36.06 369.07,-35.17 370.82,-41.95"/>
</a>
</g>
</g>
<!-- Node5 -->
<g id="Node000005" class="node">
<title>Node5</title>
<g id="a_Node000005"><a xlink:href="namespacepolyfem.html#a4d64be939c7759c782fff98ed87f3399" target="_top" xlink:title="Retrieves the current logger for adjoint.">
<polygon fill="white" stroke="#666666" points="684,-126.5 551,-126.5 551,-107.5 684,-107.5 684,-126.5"/>
<text text-anchor="middle" x="617.5" y="-114.5" font-family="Helvetica,sans-Serif" font-size="10.00">polyfem::adjoint_logger</text>
</a>
</g>
</g>
<!-- Node4&#45;&gt;Node5 -->
<g id="edge4_Node000004_Node000005" class="edge">
<title>Node4&#45;&gt;Node5</title>
<g id="a_edge4_Node000004_Node000005"><a xlink:title=" ">
<path fill="none" stroke="#63b8ff" d="M506.22,-117C517.5,-117 529.28,-117 540.78,-117"/>
<polygon fill="#63b8ff" stroke="#63b8ff" points="540.78,-120.5 550.78,-117 540.78,-113.5 540.78,-120.5"/>
</a>
</g>
</g>
</g>
</svg>
