<?xml version="1.0" encoding="UTF-8" standalone="no"?>
<!DOCTYPE svg PUBLIC "-//W3C//DTD SVG 1.1//EN"
 "http://www.w3.org/Graphics/SVG/1.1/DTD/svg11.dtd">
<!-- Generated by graphviz version 2.43.0 (0)
 -->
<!-- Title: polyfem::problem::GenericScalarProblemExact::rhs Pages: 1 -->
<!--zoomable 182 -->
<svg id="main" version="1.1" xmlns="http://www.w3.org/2000/svg" xmlns:xlink="http://www.w3.org/1999/xlink" xml:space="preserve" onload="init(evt)">
<style type="text/css"><![CDATA[
.edge:hover path { stroke: red; }
.edge:hover polygon { stroke: red; fill: red; }
]]></style>
<script type="text/javascript"><![CDATA[
var edges = document.getElementsByTagName('g');
if (edges && edges.length) {
  for (var i=0;i<edges.length;i++) {
    if (edges[i].id.substr(0,4)=='edge') {
      edges[i].setAttribute('class','edge');
    }
  }
}
]]></script>
        <defs>
                <circle id="rim" cx="0" cy="0" r="7"/>
                <circle id="rim2" cx="0" cy="0" r="3.5"/>
                <g id="zoomPlus">
                        <use xlink:href="#rim" fill="#404040">
                                <set attributeName="fill" to="#808080" begin="zoomplus.mouseover" end="zoomplus.mouseout"/>
                        </use>
                        <path d="M-4,0h8M0,-4v8" fill="none" stroke="white" stroke-width="1.5" pointer-events="none"/>
                </g>
                <g id="zoomMin">
                        <use xlink:href="#rim" fill="#404040">
                                <set attributeName="fill" to="#808080" begin="zoomminus.mouseover" end="zoomminus.mouseout"/>
                        </use>
                        <path d="M-4,0h8" fill="none" stroke="white" stroke-width="1.5" pointer-events="none"/>
                </g>
                <g id="dirArrow">
                        <path fill="none" stroke="white" stroke-width="1.5" d="M0,-3.0v7 M-2.5,-0.5L0,-3.0L2.5,-0.5"/>
                </g>
               <g id="resetDef">
                       <use xlink:href="#rim2" fill="#404040">
                               <set attributeName="fill" to="#808080" begin="reset.mouseover" end="reset.mouseout"/>
                       </use>
               </g>
        </defs>

<script type="text/javascript">
var viewWidth = 693;
var viewHeight = 182;
var sectionId = 'dynsection-3';
</script>
<script xlink:href="svgpan.js"/>
<svg id="graph" class="graph">
<g id="viewport">
<title>polyfem::problem::GenericScalarProblemExact::rhs</title>
<!-- Node1 -->
<g id="node1" class="node">
<title>Node1</title>
<g id="a_node1"><a xlink:title=" ">
<polygon fill="#999999" stroke="#666666" points="147,-102 0,-102 0,-72 147,-72 147,-102"/>
<text text-anchor="start" x="8" y="-90" font-family="Helvetica,sans-Serif" font-size="10.00">polyfem::problem::Generic</text>
<text text-anchor="middle" x="73.5" y="-79" font-family="Helvetica,sans-Serif" font-size="10.00">ScalarProblemExact::rhs</text>
</a>
</g>
</g>
<!-- Node2 -->
<g id="node2" class="node">
<title>Node2</title>
<g id="a_node2"><a xlink:href="classpolyfem_1_1problem_1_1_problem_with_solution.html#a7ac8515f2014c5b98b91146bf5b7ed13" target="_top" xlink:title=" ">
<polygon fill="white" stroke="#666666" points="333,-102 183,-102 183,-72 333,-72 333,-102"/>
<text text-anchor="start" x="191" y="-90" font-family="Helvetica,sans-Serif" font-size="10.00">polyfem::problem::Problem</text>
<text text-anchor="middle" x="258" y="-79" font-family="Helvetica,sans-Serif" font-size="10.00">WithSolution::rhs</text>
</a>
</g>
</g>
<!-- Node1&#45;&gt;Node2 -->
<g id="edge1" class="edge">
<title>Node1&#45;&gt;Node2</title>
<path fill="none" stroke="#63b8ff" d="M147.15,-87C155.58,-87 164.24,-87 172.8,-87"/>
<polygon fill="#63b8ff" stroke="#63b8ff" points="172.81,-90.5 182.81,-87 172.81,-83.5 172.81,-90.5"/>
</g>
<!-- Node3 -->
<g id="node3" class="node">
<title>Node3</title>
<g id="a_node3"><a xlink:href="classpolyfem_1_1assembler_1_1_assembler_utils.html#a74f032d63e9ded58875c38053b8ad0d0" target="_top" xlink:title=" ">
<polygon fill="white" stroke="#666666" points="535,-174 369,-174 369,-144 535,-144 535,-174"/>
<text text-anchor="start" x="377" y="-162" font-family="Helvetica,sans-Serif" font-size="10.00">polyfem::assembler</text>
<text text-anchor="middle" x="452" y="-151" font-family="Helvetica,sans-Serif" font-size="10.00">::AssemblerUtils::compute_rhs</text>
</a>
</g>
</g>
<!-- Node2&#45;&gt;Node3 -->
<g id="edge2" class="edge">
<title>Node2&#45;&gt;Node3</title>
<path fill="none" stroke="#63b8ff" d="M290.81,-102.16C312.55,-112.2 342.17,-125.26 369,-135 374.54,-137.01 380.33,-138.97 386.17,-140.86"/>
<polygon fill="#63b8ff" stroke="#63b8ff" points="385.4,-144.29 395.99,-143.95 387.5,-137.61 385.4,-144.29"/>
</g>
<!-- Node5 -->
<g id="node5" class="node">
<title>Node5</title>
<g id="a_node5"><a xlink:href="classpolyfem_1_1problem_1_1_problem_with_solution.html#ab7ef1ebf3e2800bddc0aa1a6e27acafa" target="_top" xlink:title=" ">
<polygon fill="white" stroke="#666666" points="527,-126 377,-126 377,-96 527,-96 527,-126"/>
<text text-anchor="start" x="385" y="-114" font-family="Helvetica,sans-Serif" font-size="10.00">polyfem::problem::Problem</text>
<text text-anchor="middle" x="452" y="-103" font-family="Helvetica,sans-Serif" font-size="10.00">WithSolution::eval_fun</text>
</a>
</g>
</g>
<!-- Node2&#45;&gt;Node5 -->
<g id="edge4" class="edge">
<title>Node2&#45;&gt;Node5</title>
<path fill="none" stroke="#63b8ff" d="M333.23,-96.28C344.22,-97.65 355.61,-99.08 366.78,-100.47"/>
<polygon fill="#63b8ff" stroke="#63b8ff" points="366.61,-103.98 376.97,-101.75 367.48,-97.03 366.61,-103.98"/>
</g>
<!-- Node6 -->
<g id="node6" class="node">
<title>Node6</title>
<g id="a_node6"><a xlink:href="struct_diff_scalar_base.html#a9ec9c3461abcd98164a36ba6f4e7dfb7" target="_top" xlink:title="Set the independent variable count used by the automatic differentiation layer.">
<polygon fill="white" stroke="#666666" points="526.5,-78 377.5,-78 377.5,-48 526.5,-48 526.5,-78"/>
<text text-anchor="start" x="385.5" y="-66" font-family="Helvetica,sans-Serif" font-size="10.00">DiffScalarBase::setVariable</text>
<text text-anchor="middle" x="452" y="-55" font-family="Helvetica,sans-Serif" font-size="10.00">Count</text>
</a>
</g>
</g>
<!-- Node2&#45;&gt;Node6 -->
<g id="edge5" class="edge">
<title>Node2&#45;&gt;Node6</title>
<path fill="none" stroke="#63b8ff" d="M333.23,-77.72C344.3,-76.34 355.78,-74.9 367.03,-73.5"/>
<polygon fill="#63b8ff" stroke="#63b8ff" points="367.79,-76.93 377.28,-72.21 366.92,-69.98 367.79,-76.93"/>
</g>
<!-- Node7 -->
<g id="node7" class="node">
<title>Node7</title>
<g id="a_node7"><a xlink:href="classpolyfem_1_1problem_1_1_problem_with_solution.html#a716a632d5e87de82fd6a81932bf75af1" target="_top" xlink:title=" ">
<polygon fill="white" stroke="#666666" points="527,-30 377,-30 377,0 527,0 527,-30"/>
<text text-anchor="start" x="385" y="-18" font-family="Helvetica,sans-Serif" font-size="10.00">polyfem::problem::Problem</text>
<text text-anchor="middle" x="452" y="-7" font-family="Helvetica,sans-Serif" font-size="10.00">WithSolution::size_for</text>
</a>
</g>
</g>
<!-- Node2&#45;&gt;Node7 -->
<g id="edge6" class="edge">
<title>Node2&#45;&gt;Node7</title>
<path fill="none" stroke="#63b8ff" d="M290.81,-71.84C312.55,-61.8 342.17,-48.74 369,-39 374.54,-36.99 380.33,-35.03 386.17,-33.14"/>
<polygon fill="#63b8ff" stroke="#63b8ff" points="387.5,-36.39 395.99,-30.05 385.4,-29.71 387.5,-36.39"/>
</g>
<!-- Node4 -->
<g id="node4" class="node">
<title>Node4</title>
<g id="a_node4"><a xlink:href="namespacepolyfem.html#a03f3d75072d2fd19f70cd886a51d10dd" target="_top" xlink:title="Retrieves the current logger.">
<polygon fill="white" stroke="#666666" points="675,-168.5 581,-168.5 581,-149.5 675,-149.5 675,-168.5"/>
<text text-anchor="middle" x="628" y="-156.5" font-family="Helvetica,sans-Serif" font-size="10.00">polyfem::logger</text>
</a>
</g>
</g>
<!-- Node3&#45;&gt;Node4 -->
<g id="edge3" class="edge">
<title>Node3&#45;&gt;Node4</title>
<path fill="none" stroke="#63b8ff" d="M535.16,-159C547.15,-159 559.27,-159 570.59,-159"/>
<polygon fill="#63b8ff" stroke="#63b8ff" points="570.74,-162.5 580.74,-159 570.74,-155.5 570.74,-162.5"/>
</g>
<!-- Node8 -->
<g id="node8" class="node">
<title>Node8</title>
<g id="a_node8"><a xlink:href="classpolyfem_1_1assembler_1_1_problem.html#a90c406c9ef70aebd6b8d595c61d051ec" target="_top" xlink:title=" ">
<polygon fill="white" stroke="#666666" points="685,-30 571,-30 571,0 685,0 685,-30"/>
<text text-anchor="start" x="579" y="-18" font-family="Helvetica,sans-Serif" font-size="10.00">polyfem::assembler</text>
<text text-anchor="middle" x="628" y="-7" font-family="Helvetica,sans-Serif" font-size="10.00">::Problem::is_scalar</text>
</a>
</g>
</g>
<!-- Node7&#45;&gt;Node8 -->
<g id="edge7" class="edge">
<title>Node7&#45;&gt;Node8</title>
<path fill="none" stroke="#63b8ff" d="M527.04,-15C538.3,-15 549.86,-15 560.94,-15"/>
<polygon fill="#63b8ff" stroke="#63b8ff" points="560.95,-18.5 570.95,-15 560.95,-11.5 560.95,-18.5"/>
</g>
</g>
</svg>
        <g id="navigator" transform="translate(0 0)" fill="#404254">
                <rect fill="#f2f5e9" fill-opacity="0.5" stroke="#606060" stroke-width=".5" x="0" y="0" width="60" height="60"/>
                <use id="zoomplus" xlink:href="#zoomPlus" x="17" y="9" onmousedown="handleZoom(evt,'in')"/>
                <use id="zoomminus" xlink:href="#zoomMin" x="42" y="9" onmousedown="handleZoom(evt,'out')"/>
                <use id="reset" xlink:href="#resetDef" x="30" y="36" onmousedown="handleReset()"/>
                <g id="arrowUp" xlink:href="#dirArrow" transform="translate(30 24)" onmousedown="handlePan(0,-1)">
                  <use xlink:href="#rim" fill="#404040">
                        <set attributeName="fill" to="#808080" begin="arrowUp.mouseover" end="arrowUp.mouseout"/>
                  </use>
                  <path fill="none" stroke="white" stroke-width="1.5" d="M0,-3.0v7 M-2.5,-0.5L0,-3.0L2.5,-0.5"/>
                </g>
                <g id="arrowRight" xlink:href="#dirArrow" transform="rotate(90) translate(36 -43)" onmousedown="handlePan(1,0)">
                  <use xlink:href="#rim" fill="#404040">
                        <set attributeName="fill" to="#808080" begin="arrowRight.mouseover" end="arrowRight.mouseout"/>
                  </use>
                  <path fill="none" stroke="white" stroke-width="1.5" d="M0,-3.0v7 M-2.5,-0.5L0,-3.0L2.5,-0.5"/>
                </g>
                <g id="arrowDown" xlink:href="#dirArrow" transform="rotate(180) translate(-30 -48)" onmousedown="handlePan(0,1)">
                  <use xlink:href="#rim" fill="#404040">
                        <set attributeName="fill" to="#808080" begin="arrowDown.mouseover" end="arrowDown.mouseout"/>
                  </use>
                  <path fill="none" stroke="white" stroke-width="1.5" d="M0,-3.0v7 M-2.5,-0.5L0,-3.0L2.5,-0.5"/>
                </g>
                <g id="arrowLeft" xlink:href="#dirArrow" transform="rotate(270) translate(-36 17)" onmousedown="handlePan(-1,0)">
                  <use xlink:href="#rim" fill="#404040">
                        <set attributeName="fill" to="#808080" begin="arrowLeft.mouseover" end="arrowLeft.mouseout"/>
                  </use>
                  <path fill="none" stroke="white" stroke-width="1.5" d="M0,-3.0v7 M-2.5,-0.5L0,-3.0L2.5,-0.5"/>
                </g>
        </g>
        <svg viewBox="0 0 15 15" width="100%" height="30px" preserveAspectRatio="xMaxYMin meet">
         <g id="arrow_out" transform="scale(0.3 0.3)">
          <a xlink:href="classpolyfem_1_1problem_1_1_generic_scalar_problem_exact_ae9c96b2b7d3a6e1dac8fa7cec1e82f55_cgraph_org.svg" target="_base">
           <rect id="button" ry="5" rx="5" y="6" x="6" height="38" width="38"
                fill="#f2f5e9" fill-opacity="0.5" stroke="#606060" stroke-width="1.0"/>
           <path id="arrow"
             d="M 11.500037,31.436501 C 11.940474,20.09759 22.043105,11.32322 32.158766,21.979434 L 37.068811,17.246167 C 37.068811,17.246167 37.088388,32 37.088388,32 L 22.160133,31.978069 C 22.160133,31.978069 26.997745,27.140456 26.997745,27.140456 C 18.528582,18.264221 13.291696,25.230495 11.500037,31.436501 z"
             style="fill:#404040;"/>
          </a>
         </g>
        </svg>
</svg>
