<?xml version="1.0" encoding="UTF-8" standalone="no"?>
<!DOCTYPE svg PUBLIC "-//W3C//DTD SVG 1.1//EN"
 "http://www.w3.org/Graphics/SVG/1.1/DTD/svg11.dtd">
<!-- Generated by graphviz version 2.43.0 (0)
 -->
<!-- Title: polyfem::State::set_materials Pages: 1 -->
<svg width="275pt" height="138pt"
 viewBox="0.00 0.00 275.00 138.00" xmlns="http://www.w3.org/2000/svg" xmlns:xlink="http://www.w3.org/1999/xlink">
<g id="graph0" class="graph" transform="scale(1 1) rotate(0) translate(4 134)">
<title>polyfem::State::set_materials</title>
<!-- Node1 -->
<g id="node1" class="node">
<title>Node1</title>
<g id="a_node1"><a xlink:title="set the multimaterial, this is mean for internal usage.">
<polygon fill="#bfbfbf" stroke="black" points="0,-39 0,-69 110,-69 110,-39 0,-39"/>
<text text-anchor="start" x="8" y="-57" font-family="Helvetica,sans-Serif" font-size="10.00">polyfem::State::set</text>
<text text-anchor="middle" x="55" y="-46" font-family="Helvetica,sans-Serif" font-size="10.00">_materials</text>
</a>
</g>
</g>
<!-- Node2 -->
<g id="node2" class="node">
<title>Node2</title>
<g id="a_node2"><a xlink:href="classpolyfem_1_1assembler_1_1_assembler_utils.html#a68b9c1cc03f0b68e8e67e4bb8ff74764" target="_top" xlink:title=" ">
<polygon fill="none" stroke="black" points="146,-88.5 146,-129.5 267,-129.5 267,-88.5 146,-88.5"/>
<text text-anchor="start" x="154" y="-117.5" font-family="Helvetica,sans-Serif" font-size="10.00">polyfem::assembler</text>
<text text-anchor="start" x="154" y="-106.5" font-family="Helvetica,sans-Serif" font-size="10.00">::AssemblerUtils::add</text>
<text text-anchor="middle" x="206.5" y="-95.5" font-family="Helvetica,sans-Serif" font-size="10.00">_multimaterial</text>
</a>
</g>
</g>
<!-- Node1&#45;&gt;Node2 -->
<g id="edge1" class="edge">
<title>Node1&#45;&gt;Node2</title>
<path fill="none" stroke="midnightblue" d="M96.85,-69.03C110.18,-73.93 125.34,-79.51 140.02,-84.91"/>
<polygon fill="midnightblue" stroke="midnightblue" points="138.97,-88.25 149.57,-88.42 141.39,-81.68 138.97,-88.25"/>
</g>
<!-- Node3 -->
<g id="node3" class="node">
<title>Node3</title>
<g id="a_node3"><a xlink:href="namespacepolyfem_1_1utils.html#aa57e548cd0726262758fcc6b16fe0b0a" target="_top" xlink:title=" ">
<polygon fill="none" stroke="black" points="157.5,-39 157.5,-69 255.5,-69 255.5,-39 157.5,-39"/>
<text text-anchor="start" x="165.5" y="-57" font-family="Helvetica,sans-Serif" font-size="10.00">polyfem::utils::is</text>
<text text-anchor="middle" x="206.5" y="-46" font-family="Helvetica,sans-Serif" font-size="10.00">_param_valid</text>
</a>
</g>
</g>
<!-- Node1&#45;&gt;Node3 -->
<g id="edge2" class="edge">
<title>Node1&#45;&gt;Node3</title>
<path fill="none" stroke="midnightblue" d="M110.4,-54C122.4,-54 135.16,-54 147.3,-54"/>
<polygon fill="midnightblue" stroke="midnightblue" points="147.33,-57.5 157.33,-54 147.33,-50.5 147.33,-57.5"/>
</g>
<!-- Node4 -->
<g id="node4" class="node">
<title>Node4</title>
<g id="a_node4"><a xlink:href="namespacepolyfem.html#a03f3d75072d2fd19f70cd886a51d10dd" target="_top" xlink:title="Retrieves the current logger.">
<polygon fill="none" stroke="black" points="159.5,-0.5 159.5,-19.5 253.5,-19.5 253.5,-0.5 159.5,-0.5"/>
<text text-anchor="middle" x="206.5" y="-7.5" font-family="Helvetica,sans-Serif" font-size="10.00">polyfem::logger</text>
</a>
</g>
</g>
<!-- Node1&#45;&gt;Node4 -->
<g id="edge3" class="edge">
<title>Node1&#45;&gt;Node4</title>
<path fill="none" stroke="midnightblue" d="M107.03,-38.98C125.27,-33.61 145.62,-27.62 163.06,-22.49"/>
<polygon fill="midnightblue" stroke="midnightblue" points="164.35,-25.76 172.96,-19.58 162.37,-19.04 164.35,-25.76"/>
</g>
</g>
</svg>
