<?xml version="1.0" encoding="UTF-8" standalone="no"?>
<!DOCTYPE svg PUBLIC "-//W3C//DTD SVG 1.1//EN"
 "http://www.w3.org/Graphics/SVG/1.1/DTD/svg11.dtd">
<!-- Generated by graphviz version 2.43.0 (0)
 -->
<!-- Title: polyfem::problem::TimeDepentendStokesProblem Pages: 1 -->
<!--zoomable 429 -->

<svg id="main" version="1.1" xmlns="http://www.w3.org/2000/svg" xmlns:xlink="http://www.w3.org/1999/xlink" xml:space="preserve" onload="init(evt)">
<style type="text/css"><![CDATA[
.node, .edge {opacity: 0.7;}
.node.selected, .edge.selected {opacity: 1;}
.edge:hover path { stroke: red; }
.edge:hover polygon { stroke: red; fill: red; }
]]></style>

<defs>
  <circle id="rim" cx="0" cy="0" r="7"/>
  <circle id="rim2" cx="0" cy="0" r="3.5"/>
  <g id="zoomPlus">
    <use xlink:href="#rim" fill="#404040"><set attributeName="fill" to="#808080" begin="zoomplus.mouseover" end="zoomplus.mouseout"/></use>
    <path d="M-4,0h8M0,-4v8" fill="none" stroke="white" stroke-width="1.5" pointer-events="none"/>
  </g>
  <g id="zoomMin">
    <use xlink:href="#rim" fill="#404040"><set attributeName="fill" to="#808080" begin="zoomminus.mouseover" end="zoomminus.mouseout"/></use>
    <path d="M-4,0h8" fill="none" stroke="white" stroke-width="1.5" pointer-events="none"/>
  </g>
  <g id="arrowUp" transform="translate(30 24)">
    <use xlink:href="#rim"/>
    <path pointer-events="none" fill="none" stroke="white" stroke-width="1.5" d="M0,-3.0v7 M-2.5,-0.5L0,-3.0L2.5,-0.5"/>
  </g>
  <g id="arrowRight" transform="rotate(90) translate(36 -43)">
    <use xlink:href="#rim"/>
    <path pointer-events="none" fill="none" stroke="white" stroke-width="1.5" d="M0,-3.0v7 M-2.5,-0.5L0,-3.0L2.5,-0.5"/>
  </g>
  <g id="arrowDown" transform="rotate(180) translate(-30 -48)">
    <use xlink:href="#rim"/>
    <path pointer-events="none" fill="none" stroke="white" stroke-width="1.5" d="M0,-3.0v7 M-2.5,-0.5L0,-3.0L2.5,-0.5"/>
  </g>
  <g id="arrowLeft" transform="rotate(270) translate(-36 17)">
    <use xlink:href="#rim"/>
    <path pointer-events="none" fill="none" stroke="white" stroke-width="1.5" d="M0,-3.0v7 M-2.5,-0.5L0,-3.0L2.5,-0.5"/>
  </g>
  <g id="resetDef">
    <use xlink:href="#rim2" fill="#404040"><set attributeName="fill" to="#808080" begin="reset.mouseover" end="reset.mouseout"/></use>
  </g>
</defs>
<script type="application/ecmascript">
var viewWidth = 549;
var viewHeight = 429;
var sectionId = 'dynsection-0';
</script>
<script type="application/ecmascript" xlink:href="svg.min.js"/>
<svg id="graph" class="graph">
<g id="viewport">
<title>polyfem::problem::TimeDepentendStokesProblem</title>
<!-- Node1 -->
<g id="Node000001" class="node">
<title>Node1</title>
<g id="a_Node000001"><a xlink:title=" ">
<polygon fill="#999999" stroke="#666666" points="338,-217 150,-217 150,-187 338,-187 338,-217"/>
<text text-anchor="start" x="158" y="-205" font-family="Helvetica,sans-Serif" font-size="10.00">polyfem::problem::TimeDepentend</text>
<text text-anchor="middle" x="244" y="-194" font-family="Helvetica,sans-Serif" font-size="10.00">StokesProblem</text>
</a>
</g>
</g>
<!-- Node3 -->
<g id="Node000003" class="node">
<title>Node3</title>
<g id="a_Node000003"><a xlink:href="classpolyfem_1_1problem_1_1_constant_velocity.html" target="_top" xlink:title=" ">
<polygon fill="white" stroke="#666666" points="534,-421 381,-421 381,-391 534,-391 534,-421"/>
<text text-anchor="start" x="389" y="-409" font-family="Helvetica,sans-Serif" font-size="10.00">polyfem::problem::Constant</text>
<text text-anchor="middle" x="457.5" y="-398" font-family="Helvetica,sans-Serif" font-size="10.00">Velocity</text>
</a>
</g>
</g>
<!-- Node1&#45;&gt;Node3 -->
<g id="edge2_Node000001_Node000003" class="edge">
<title>Node1&#45;&gt;Node3</title>
<g id="a_edge2_Node000001_Node000003"><a xlink:title=" ">
<path fill="none" stroke="#63b8ff" d="M256.02,-226.68C274.65,-265.6 316.1,-341.01 374,-382 378.87,-385.45 384.23,-388.4 389.81,-390.94"/>
<polygon fill="#63b8ff" stroke="#63b8ff" points="258.98,-224.75 251.57,-217.17 252.63,-227.71 258.98,-224.75"/>
</a>
</g>
</g>
<!-- Node4 -->
<g id="Node000004" class="node">
<title>Node4</title>
<g id="a_Node000004"><a xlink:href="classpolyfem_1_1problem_1_1_corner_flow.html" target="_top" xlink:title=" ">
<polygon fill="white" stroke="#666666" points="540,-372.5 375,-372.5 375,-353.5 540,-353.5 540,-372.5"/>
<text text-anchor="middle" x="457.5" y="-360.5" font-family="Helvetica,sans-Serif" font-size="10.00">polyfem::problem::CornerFlow</text>
</a>
</g>
</g>
<!-- Node1&#45;&gt;Node4 -->
<g id="edge3_Node000001_Node000004" class="edge">
<title>Node1&#45;&gt;Node4</title>
<g id="a_edge3_Node000001_Node000004"><a xlink:title=" ">
<path fill="none" stroke="#63b8ff" d="M259.89,-225.94C281.14,-258 323.25,-314.28 374,-344 380.59,-347.86 387.91,-350.94 395.39,-353.39"/>
<polygon fill="#63b8ff" stroke="#63b8ff" points="262.6,-223.69 254.22,-217.21 256.73,-227.5 262.6,-223.69"/>
</a>
</g>
</g>
<!-- Node5 -->
<g id="Node000005" class="node">
<title>Node5</title>
<g id="a_Node000005"><a xlink:href="classpolyfem_1_1problem_1_1_driven_cavity.html" target="_top" xlink:title=" ">
<polygon fill="white" stroke="#666666" points="528.5,-335 386.5,-335 386.5,-305 528.5,-305 528.5,-335"/>
<text text-anchor="start" x="394.5" y="-323" font-family="Helvetica,sans-Serif" font-size="10.00">polyfem::problem::Driven</text>
<text text-anchor="middle" x="457.5" y="-312" font-family="Helvetica,sans-Serif" font-size="10.00">Cavity</text>
</a>
</g>
</g>
<!-- Node1&#45;&gt;Node5 -->
<g id="edge4_Node000001_Node000005" class="edge">
<title>Node1&#45;&gt;Node5</title>
<g id="a_edge4_Node000001_Node000005"><a xlink:title=" ">
<path fill="none" stroke="#63b8ff" d="M269.48,-223.89C294.25,-245.01 334.44,-276.58 374,-296 380.83,-299.35 388.21,-302.32 395.66,-304.93"/>
<polygon fill="#63b8ff" stroke="#63b8ff" points="271.55,-221.05 261.69,-217.15 266.97,-226.34 271.55,-221.05"/>
</a>
</g>
</g>
<!-- Node6 -->
<g id="Node000006" class="node">
<title>Node6</title>
<g id="a_Node000006"><a xlink:href="classpolyfem_1_1problem_1_1_driven_cavity_c0.html" target="_top" xlink:title=" ">
<polygon fill="white" stroke="#666666" points="528.5,-287 386.5,-287 386.5,-257 528.5,-257 528.5,-287"/>
<text text-anchor="start" x="394.5" y="-275" font-family="Helvetica,sans-Serif" font-size="10.00">polyfem::problem::Driven</text>
<text text-anchor="middle" x="457.5" y="-264" font-family="Helvetica,sans-Serif" font-size="10.00">CavityC0</text>
</a>
</g>
</g>
<!-- Node1&#45;&gt;Node6 -->
<g id="edge5_Node000001_Node000006" class="edge">
<title>Node1&#45;&gt;Node6</title>
<g id="a_edge5_Node000001_Node000006"><a xlink:title=" ">
<path fill="none" stroke="#63b8ff" d="M294.72,-220.51C318.58,-229.19 347.65,-239.48 374,-248 383.37,-251.03 393.39,-254.09 403.1,-256.97"/>
<polygon fill="#63b8ff" stroke="#63b8ff" points="295.76,-217.16 285.17,-217.02 293.36,-223.74 295.76,-217.16"/>
</a>
</g>
</g>
<!-- Node7 -->
<g id="Node000007" class="node">
<title>Node7</title>
<g id="a_Node000007"><a xlink:href="classpolyfem_1_1problem_1_1_driven_cavity_smooth.html" target="_top" xlink:title=" ">
<polygon fill="white" stroke="#666666" points="528.5,-239 386.5,-239 386.5,-209 528.5,-209 528.5,-239"/>
<text text-anchor="start" x="394.5" y="-227" font-family="Helvetica,sans-Serif" font-size="10.00">polyfem::problem::Driven</text>
<text text-anchor="middle" x="457.5" y="-216" font-family="Helvetica,sans-Serif" font-size="10.00">CavitySmooth</text>
</a>
</g>
</g>
<!-- Node1&#45;&gt;Node7 -->
<g id="edge6_Node000001_Node000007" class="edge">
<title>Node1&#45;&gt;Node7</title>
<g id="a_edge6_Node000001_Node000007"><a xlink:title=" ">
<path fill="none" stroke="#63b8ff" d="M348.35,-212.75C361.2,-214.09 374.09,-215.43 386.28,-216.7"/>
<polygon fill="#63b8ff" stroke="#63b8ff" points="348.38,-209.24 338.07,-211.68 347.66,-216.2 348.38,-209.24"/>
</a>
</g>
</g>
<!-- Node8 -->
<g id="Node000008" class="node">
<title>Node8</title>
<g id="a_Node000008"><a xlink:href="classpolyfem_1_1problem_1_1_flow.html" target="_top" xlink:title=" ">
<polygon fill="white" stroke="#666666" points="524,-190.5 391,-190.5 391,-171.5 524,-171.5 524,-190.5"/>
<text text-anchor="middle" x="457.5" y="-178.5" font-family="Helvetica,sans-Serif" font-size="10.00">polyfem::problem::Flow</text>
</a>
</g>
</g>
<!-- Node1&#45;&gt;Node8 -->
<g id="edge7_Node000001_Node000008" class="edge">
<title>Node1&#45;&gt;Node8</title>
<g id="a_edge7_Node000001_Node000008"><a xlink:title=" ">
<path fill="none" stroke="#63b8ff" d="M348.15,-191.76C362.74,-190.31 377.39,-188.85 391,-187.5"/>
<polygon fill="#63b8ff" stroke="#63b8ff" points="347.68,-188.29 338.07,-192.76 348.37,-195.25 347.68,-188.29"/>
</a>
</g>
</g>
<!-- Node9 -->
<g id="Node000009" class="node">
<title>Node9</title>
<g id="a_Node000009"><a xlink:href="classpolyfem_1_1problem_1_1_flow_with_obstacle.html" target="_top" xlink:title=" ">
<polygon fill="white" stroke="#666666" points="535,-153 380,-153 380,-123 535,-123 535,-153"/>
<text text-anchor="start" x="388" y="-141" font-family="Helvetica,sans-Serif" font-size="10.00">polyfem::problem::FlowWith</text>
<text text-anchor="middle" x="457.5" y="-130" font-family="Helvetica,sans-Serif" font-size="10.00">Obstacle</text>
</a>
</g>
</g>
<!-- Node1&#45;&gt;Node9 -->
<g id="edge8_Node000001_Node000009" class="edge">
<title>Node1&#45;&gt;Node9</title>
<g id="a_edge8_Node000001_Node000009"><a xlink:title=" ">
<path fill="none" stroke="#63b8ff" d="M302.39,-183.97C324.71,-177.02 350.53,-169.05 374,-162 383.71,-159.08 394.09,-156.02 404.09,-153.1"/>
<polygon fill="#63b8ff" stroke="#63b8ff" points="301.23,-180.66 292.72,-186.98 303.31,-187.35 301.23,-180.66"/>
</a>
</g>
</g>
<!-- Node10 -->
<g id="Node000010" class="node">
<title>Node10</title>
<g id="a_Node000010"><a xlink:href="classpolyfem_1_1problem_1_1_lshape.html" target="_top" xlink:title=" ">
<polygon fill="white" stroke="#666666" points="529.5,-104.5 385.5,-104.5 385.5,-85.5 529.5,-85.5 529.5,-104.5"/>
<text text-anchor="middle" x="457.5" y="-92.5" font-family="Helvetica,sans-Serif" font-size="10.00">polyfem::problem::Lshape</text>
</a>
</g>
</g>
<!-- Node1&#45;&gt;Node10 -->
<g id="edge9_Node000001_Node000010" class="edge">
<title>Node1&#45;&gt;Node10</title>
<g id="a_edge9_Node000001_Node000010"><a xlink:title=" ">
<path fill="none" stroke="#63b8ff" d="M270.35,-180.44C295.21,-160.38 334.95,-131.09 374,-114 382.75,-110.17 392.38,-107.06 401.87,-104.55"/>
<polygon fill="#63b8ff" stroke="#63b8ff" points="268.04,-177.81 262.52,-186.86 272.47,-183.23 268.04,-177.81"/>
</a>
</g>
</g>
<!-- Node11 -->
<g id="Node000011" class="node">
<title>Node11</title>
<g id="a_Node000011"><a xlink:href="classpolyfem_1_1problem_1_1_two_spheres.html" target="_top" xlink:title=" ">
<polygon fill="white" stroke="#666666" points="541,-67.5 374,-67.5 374,-48.5 541,-48.5 541,-67.5"/>
<text text-anchor="middle" x="457.5" y="-55.5" font-family="Helvetica,sans-Serif" font-size="10.00">polyfem::problem::TwoSpheres</text>
</a>
</g>
</g>
<!-- Node1&#45;&gt;Node11 -->
<g id="edge10_Node000001_Node000011" class="edge">
<title>Node1&#45;&gt;Node11</title>
<g id="a_edge10_Node000001_Node000011"><a xlink:title=" ">
<path fill="none" stroke="#63b8ff" d="M262.17,-178.55C284.57,-149.75 326.54,-101.57 374,-76 380.32,-72.59 387.25,-69.83 394.31,-67.59"/>
<polygon fill="#63b8ff" stroke="#63b8ff" points="259.14,-176.75 255.86,-186.82 264.71,-180.99 259.14,-176.75"/>
</a>
</g>
</g>
<!-- Node12 -->
<g id="Node000012" class="node">
<title>Node12</title>
<g id="a_Node000012"><a xlink:href="classpolyfem_1_1problem_1_1_unit_flow_with_obstacle.html" target="_top" xlink:title=" ">
<polygon fill="white" stroke="#666666" points="534,-30 381,-30 381,0 534,0 534,-30"/>
<text text-anchor="start" x="389" y="-18" font-family="Helvetica,sans-Serif" font-size="10.00">polyfem::problem::UnitFlow</text>
<text text-anchor="middle" x="457.5" y="-7" font-family="Helvetica,sans-Serif" font-size="10.00">WithObstacle</text>
</a>
</g>
</g>
<!-- Node1&#45;&gt;Node12 -->
<g id="edge11_Node000001_Node000012" class="edge">
<title>Node1&#45;&gt;Node12</title>
<g id="a_edge11_Node000001_Node000012"><a xlink:title=" ">
<path fill="none" stroke="#63b8ff" d="M257.78,-177.61C277.76,-141.84 319.81,-75.46 374,-39 379.07,-35.59 384.64,-32.65 390.41,-30.13"/>
<polygon fill="#63b8ff" stroke="#63b8ff" points="254.46,-176.38 252.73,-186.83 260.6,-179.74 254.46,-176.38"/>
</a>
</g>
</g>
<!-- Node2 -->
<g id="Node000002" class="node">
<title>Node2</title>
<g id="a_Node000002"><a xlink:href="classpolyfem_1_1assembler_1_1_problem.html" target="_top" xlink:title=" ">
<polygon fill="white" stroke="#666666" points="114,-217 0,-217 0,-187 114,-187 114,-217"/>
<text text-anchor="start" x="8" y="-205" font-family="Helvetica,sans-Serif" font-size="10.00">polyfem::assembler</text>
<text text-anchor="middle" x="57" y="-194" font-family="Helvetica,sans-Serif" font-size="10.00">::Problem</text>
</a>
</g>
</g>
<!-- Node2&#45;&gt;Node1 -->
<g id="edge1_Node000001_Node000002" class="edge">
<title>Node2&#45;&gt;Node1</title>
<g id="a_edge1_Node000001_Node000002"><a xlink:title=" ">
<path fill="none" stroke="#63b8ff" d="M124.08,-202C132.47,-202 141.19,-202 149.91,-202"/>
<polygon fill="#63b8ff" stroke="#63b8ff" points="124.01,-198.5 114.01,-202 124.01,-205.5 124.01,-198.5"/>
</a>
</g>
</g>
</g>
</svg>

<g id="navigator" transform="translate(0 0)" fill="#404254">
  <rect fill="#f2f5e9" fill-opacity="0.5" stroke="#606060" stroke-width=".5" x="0" y="0" width="60" height="60"/>
  <use id="zoomplus" xlink:href="#zoomPlus" x="17" y="9" onmousedown="handleZoom(evt,'in')"/>
  <use id="zoomminus" xlink:href="#zoomMin" x="42" y="9" onmousedown="handleZoom(evt,'out')"/>
  <use id="reset" xlink:href="#resetDef" x="30" y="36" onmousedown="handleReset()"/>
   <use id="arrowup" xlink:href="#arrowUp" x="0" y="0" onmousedown="handlePan(0,-1)"/>
  <use id="arrowright" xlink:href="#arrowRight" x="0" y="0" onmousedown="handlePan(1,0)"/>
  <use id="arrowdown" xlink:href="#arrowDown" x="0" y="0" onmousedown="handlePan(0,1)"/>
  <use id="arrowleft" xlink:href="#arrowLeft" x="0" y="0" onmousedown="handlePan(-1,0)"/>
</g>
<svg viewBox="0 0 15 15" width="100%" height="30px" preserveAspectRatio="xMaxYMin meet">
 <g id="arrow_out" transform="scale(0.3 0.3)">
  <a xlink:href="classpolyfem_1_1problem_1_1_time_depentend_stokes_problem__inherit__graph_org.svg" target="_base">
   <rect id="button" ry="5" rx="5" y="6" x="6" height="38" width="38"
        fill="#f2f5e9" fill-opacity="0.5" stroke="#606060" stroke-width="1.0"/>
   <path id="arrow"
     d="M 11.500037,31.436501 C 11.940474,20.09759 22.043105,11.32322 32.158766,21.979434 L 37.068811,17.246167 C 37.068811,17.246167 37.088388,32 37.088388,32 L 22.160133,31.978069 C 22.160133,31.978069 26.997745,27.140456 26.997745,27.140456 C 18.528582,18.264221 13.291696,25.230495 11.500037,31.436501 z"
     style="fill:#404040;"/>
  </a>
 </g>
</svg>

<style type='text/css'>
<![CDATA[
[data-mouse-over-selected='false'] { opacity: 0.7; }
[data-mouse-over-selected='true']  { opacity: 1.0; }
]]>
</style>
<script type="application/ecmascript"><![CDATA[
document.addEventListener('DOMContentLoaded', (event) => {
  highlightEdges();
  highlightAdjacentNodes();
});
]]></script>
</svg>
