<?xml version="1.0" encoding="UTF-8" standalone="no"?>
<!DOCTYPE svg PUBLIC "-//W3C//DTD SVG 1.1//EN"
 "http://www.w3.org/Graphics/SVG/1.1/DTD/svg11.dtd">
<!-- Generated by graphviz version 2.43.0 (0)
 -->
<!-- Title: polyfem::solver::ParametrizationForm::post_step Pages: 1 -->
<svg width="584pt" height="164pt"
 viewBox="0.00 0.00 584.00 163.50" xmlns="http://www.w3.org/2000/svg" xmlns:xlink="http://www.w3.org/1999/xlink">
<g id="graph0" class="graph" transform="scale(1 1) rotate(0) translate(4 159.5)">
<title>polyfem::solver::ParametrizationForm::post_step</title>
<!-- Node1 -->
<g id="Node000001" class="node">
<title>Node1</title>
<g id="a_Node000001"><a xlink:title="Update fields after a step in the optimization.">
<polygon fill="#999999" stroke="#666666" points="176,-78 0,-78 0,-48 176,-48 176,-78"/>
<text text-anchor="start" x="8" y="-66" font-family="Helvetica,sans-Serif" font-size="10.00">polyfem::solver::Parametrization</text>
<text text-anchor="middle" x="88" y="-55" font-family="Helvetica,sans-Serif" font-size="10.00">Form::post_step</text>
</a>
</g>
</g>
<!-- Node2 -->
<g id="Node000002" class="node">
<title>Node2</title>
<g id="a_Node000002"><a xlink:href="classpolyfem_1_1solver_1_1_composite_parametrization.html#a34d19dcd05175faa19ced87215c969be" target="_top" xlink:title=" ">
<polygon fill="white" stroke="#666666" points="376,-137.5 224,-137.5 224,-96.5 376,-96.5 376,-137.5"/>
<text text-anchor="start" x="232" y="-125.5" font-family="Helvetica,sans-Serif" font-size="10.00">polyfem::solver::Composite</text>
<text text-anchor="start" x="232" y="-114.5" font-family="Helvetica,sans-Serif" font-size="10.00">Parametrization::apply</text>
<text text-anchor="middle" x="300" y="-103.5" font-family="Helvetica,sans-Serif" font-size="10.00">_jacobian</text>
</a>
</g>
</g>
<!-- Node1&#45;&gt;Node2 -->
<g id="edge1_Node000001_Node000002" class="edge">
<title>Node1&#45;&gt;Node2</title>
<g id="a_edge1_Node000001_Node000002"><a xlink:title=" ">
<path fill="none" stroke="#63b8ff" d="M147.5,-78.04C168.11,-83.34 191.72,-89.41 214.07,-95.16"/>
<polygon fill="#63b8ff" stroke="#63b8ff" points="213.34,-98.59 223.9,-97.69 215.09,-91.81 213.34,-98.59"/>
</a>
</g>
</g>
<!-- Node3 -->
<g id="Node000003" class="node">
<title>Node3</title>
<g id="a_Node000003"><a xlink:href="classpolyfem_1_1solver_1_1_parametrization_form.html#ad3bb3c346b4846bd71a67681fb6b0112" target="_top" xlink:title=" ">
<polygon fill="white" stroke="#666666" points="388,-78 212,-78 212,-48 388,-48 388,-78"/>
<text text-anchor="start" x="220" y="-66" font-family="Helvetica,sans-Serif" font-size="10.00">polyfem::solver::Parametrization</text>
<text text-anchor="middle" x="300" y="-55" font-family="Helvetica,sans-Serif" font-size="10.00">Form::apply_parametrizations</text>
</a>
</g>
</g>
<!-- Node1&#45;&gt;Node3 -->
<g id="edge3_Node000001_Node000003" class="edge">
<title>Node1&#45;&gt;Node3</title>
<g id="a_edge3_Node000001_Node000003"><a xlink:title=" ">
<path fill="none" stroke="#63b8ff" d="M176.23,-63C184.57,-63 193.05,-63 201.47,-63"/>
<polygon fill="#63b8ff" stroke="#63b8ff" points="201.7,-66.5 211.7,-63 201.7,-59.5 201.7,-66.5"/>
</a>
</g>
</g>
<!-- Node5 -->
<g id="Node000005" class="node">
<title>Node5</title>
<g id="a_Node000005"><a xlink:href="classpolyfem_1_1solver_1_1_parametrization_form.html#a093e88a3a92abd5b6c620e544915437d" target="_top" xlink:title=" ">
<polygon fill="white" stroke="#666666" points="388,-30 212,-30 212,0 388,0 388,-30"/>
<text text-anchor="start" x="220" y="-18" font-family="Helvetica,sans-Serif" font-size="10.00">polyfem::solver::Parametrization</text>
<text text-anchor="middle" x="300" y="-7" font-family="Helvetica,sans-Serif" font-size="10.00">Form::post_step_with_param</text>
</a>
</g>
</g>
<!-- Node1&#45;&gt;Node5 -->
<g id="edge5_Node000001_Node000005" class="edge">
<title>Node1&#45;&gt;Node5</title>
<g id="a_edge5_Node000001_Node000005"><a xlink:title=" ">
<path fill="none" stroke="#63b8ff" d="M154.87,-47.94C176.66,-42.96 201.08,-37.38 223.54,-32.25"/>
<polygon fill="#63b8ff" stroke="#63b8ff" points="224.4,-35.64 233.36,-30 222.84,-28.82 224.4,-35.64"/>
</a>
</g>
</g>
<!-- Node2&#45;&gt;Node2 -->
<g id="edge2_Node000002_Node000002" class="edge">
<title>Node2&#45;&gt;Node2</title>
<g id="a_edge2_Node000002_Node000002"><a xlink:title=" ">
<path fill="none" stroke="#63b8ff" d="M263.24,-137.6C259.23,-147.15 271.48,-155.5 300,-155.5 317.82,-155.5 329.29,-152.24 334.41,-147.46"/>
<polygon fill="#63b8ff" stroke="#63b8ff" points="337.85,-148.14 336.76,-137.6 331.04,-146.51 337.85,-148.14"/>
</a>
</g>
</g>
<!-- Node4 -->
<g id="Node000004" class="node">
<title>Node4</title>
<g id="a_Node000004"><a xlink:href="classpolyfem_1_1solver_1_1_composite_parametrization.html#af42e8ffafbdbf4e0f1f253595a5ed543" target="_top" xlink:title=" ">
<polygon fill="white" stroke="#666666" points="576,-78 424,-78 424,-48 576,-48 576,-78"/>
<text text-anchor="start" x="432" y="-66" font-family="Helvetica,sans-Serif" font-size="10.00">polyfem::solver::Composite</text>
<text text-anchor="middle" x="500" y="-55" font-family="Helvetica,sans-Serif" font-size="10.00">Parametrization::eval</text>
</a>
</g>
</g>
<!-- Node3&#45;&gt;Node4 -->
<g id="edge4_Node000003_Node000004" class="edge">
<title>Node3&#45;&gt;Node4</title>
<g id="a_edge4_Node000003_Node000004"><a xlink:title=" ">
<path fill="none" stroke="#63b8ff" d="M388.13,-63C396.62,-63 405.22,-63 413.68,-63"/>
<polygon fill="#63b8ff" stroke="#63b8ff" points="413.92,-66.5 423.92,-63 413.92,-59.5 413.92,-66.5"/>
</a>
</g>
</g>
</g>
</svg>
