<?xml version="1.0" encoding="UTF-8" standalone="no"?>
<!DOCTYPE svg PUBLIC "-//W3C//DTD SVG 1.1//EN"
 "http://www.w3.org/Graphics/SVG/1.1/DTD/svg11.dtd">
<!-- Generated by graphviz version 2.43.0 (0)
 -->
<!-- Title: polyfem::time_integrator::BDF::compute_velocity Pages: 1 -->
<svg width="900pt" height="76pt"
 viewBox="0.00 0.00 900.00 75.50" xmlns="http://www.w3.org/2000/svg" xmlns:xlink="http://www.w3.org/1999/xlink">
<g id="graph0" class="graph" transform="scale(1 1) rotate(0) translate(4 71.5)">
<title>polyfem::time_integrator::BDF::compute_velocity</title>
<!-- Node1 -->
<g id="Node000001" class="node">
<title>Node1</title>
<g id="a_Node000001"><a xlink:title="Compute the current velocity given the current solution and using the stored previous solution(s).">
<polygon fill="#999999" stroke="#666666" points="892,-51 753,-51 753,-21 892,-21 892,-51"/>
<text text-anchor="start" x="761" y="-39" font-family="Helvetica,sans-Serif" font-size="10.00">polyfem::time_integrator</text>
<text text-anchor="middle" x="822.5" y="-28" font-family="Helvetica,sans-Serif" font-size="10.00">::BDF::compute_velocity</text>
</a>
</g>
</g>
<!-- Node2 -->
<g id="Node000002" class="node">
<title>Node2</title>
<g id="a_Node000002"><a xlink:href="classpolyfem_1_1time__integrator_1_1_b_d_f.html#abc79187d3edb8fbf4c8ec1d0866b9abe" target="_top" xlink:title="Update the time integration quantities (i.e., , , and ).">
<polygon fill="white" stroke="#666666" points="717,-51 578,-51 578,-21 717,-21 717,-51"/>
<text text-anchor="start" x="586" y="-39" font-family="Helvetica,sans-Serif" font-size="10.00">polyfem::time_integrator</text>
<text text-anchor="middle" x="647.5" y="-28" font-family="Helvetica,sans-Serif" font-size="10.00">::BDF::update_quantities</text>
</a>
</g>
</g>
<!-- Node1&#45;&gt;Node2 -->
<g id="edge1_Node000001_Node000002" class="edge">
<title>Node1&#45;&gt;Node2</title>
<g id="a_edge1_Node000001_Node000002"><a xlink:title=" ">
<path fill="none" stroke="#63b8ff" d="M742.41,-36C733.97,-36 725.44,-36 717.13,-36"/>
<polygon fill="#63b8ff" stroke="#63b8ff" points="742.63,-39.5 752.63,-36 742.63,-32.5 742.63,-39.5"/>
</a>
</g>
</g>
<!-- Node3 -->
<g id="Node000003" class="node">
<title>Node3</title>
<g id="a_Node000003"><a xlink:href="classpolyfem_1_1_state.html#ada934cc34fae787ec506a812c65e13b5" target="_top" xlink:title="solves transient navier stokes with FEM">
<polygon fill="white" stroke="#666666" points="542,-51 404,-51 404,-21 542,-21 542,-51"/>
<text text-anchor="start" x="412" y="-39" font-family="Helvetica,sans-Serif" font-size="10.00">polyfem::State::solve</text>
<text text-anchor="middle" x="473" y="-28" font-family="Helvetica,sans-Serif" font-size="10.00">_transient_navier_stokes</text>
</a>
</g>
</g>
<!-- Node2&#45;&gt;Node3 -->
<g id="edge2_Node000002_Node000003" class="edge">
<title>Node2&#45;&gt;Node3</title>
<g id="a_edge2_Node000002_Node000003"><a xlink:title=" ">
<path fill="none" stroke="#63b8ff" d="M567.55,-36C559.07,-36 550.49,-36 542.15,-36"/>
<polygon fill="#63b8ff" stroke="#63b8ff" points="567.83,-39.5 577.83,-36 567.83,-32.5 567.83,-39.5"/>
</a>
</g>
</g>
<!-- Node4 -->
<g id="Node000004" class="node">
<title>Node4</title>
<g id="a_Node000004"><a xlink:href="classpolyfem_1_1_state.html#a8f5a3b6048c0620357b96daeea7270d5" target="_top" xlink:title="solves the problems">
<polygon fill="white" stroke="#666666" points="368,-51 247,-51 247,-21 368,-21 368,-51"/>
<text text-anchor="start" x="255" y="-39" font-family="Helvetica,sans-Serif" font-size="10.00">polyfem::State::solve</text>
<text text-anchor="middle" x="307.5" y="-28" font-family="Helvetica,sans-Serif" font-size="10.00">_problem</text>
</a>
</g>
</g>
<!-- Node3&#45;&gt;Node4 -->
<g id="edge3_Node000003_Node000004" class="edge">
<title>Node3&#45;&gt;Node4</title>
<g id="a_edge3_Node000003_Node000004"><a xlink:title=" ">
<path fill="none" stroke="#63b8ff" d="M393.57,-36C384.99,-36 376.35,-36 368.04,-36"/>
<polygon fill="#63b8ff" stroke="#63b8ff" points="393.61,-39.5 403.61,-36 393.61,-32.5 393.61,-39.5"/>
</a>
</g>
</g>
<!-- Node5 -->
<g id="Node000005" class="node">
<title>Node5</title>
<g id="a_Node000005"><a xlink:href="main_8cpp.html#aec889c702a246ad7f332c75ab7adb438" target="_top" xlink:title=" ">
<polygon fill="white" stroke="#666666" points="199.5,-67.5 88.5,-67.5 88.5,-48.5 199.5,-48.5 199.5,-67.5"/>
<text text-anchor="middle" x="144" y="-55.5" font-family="Helvetica,sans-Serif" font-size="10.00">forward_simulation</text>
</a>
</g>
</g>
<!-- Node4&#45;&gt;Node5 -->
<g id="edge4_Node000004_Node000005" class="edge">
<title>Node4&#45;&gt;Node5</title>
<g id="a_edge4_Node000004_Node000005"><a xlink:title=" ">
<path fill="none" stroke="#63b8ff" d="M236.55,-45.53C224.19,-47.21 211.48,-48.94 199.62,-50.56"/>
<polygon fill="#63b8ff" stroke="#63b8ff" points="237.39,-48.95 246.82,-44.13 236.44,-42.01 237.39,-48.95"/>
</a>
</g>
</g>
<!-- Node7 -->
<g id="Node000007" class="node">
<title>Node7</title>
<g id="a_Node000007"><a xlink:href="structpolyfem_1_1solver_1_1_adjoint_opt_utils.html#acac3e8ce8646ddd1544ed034c71bec96" target="_top" xlink:title=" ">
<polygon fill="white" stroke="#666666" points="211,-30 77,-30 77,0 211,0 211,-30"/>
<text text-anchor="start" x="85" y="-18" font-family="Helvetica,sans-Serif" font-size="10.00">polyfem::solver::Adjoint</text>
<text text-anchor="middle" x="144" y="-7" font-family="Helvetica,sans-Serif" font-size="10.00">OptUtils::solve_pde</text>
</a>
</g>
</g>
<!-- Node4&#45;&gt;Node7 -->
<g id="edge6_Node000004_Node000007" class="edge">
<title>Node4&#45;&gt;Node7</title>
<g id="a_edge6_Node000004_Node000007"><a xlink:title=" ">
<path fill="none" stroke="#63b8ff" d="M236.64,-26.92C228.21,-25.82 219.61,-24.7 211.23,-23.61"/>
<polygon fill="#63b8ff" stroke="#63b8ff" points="236.45,-30.42 246.82,-28.24 237.36,-23.48 236.45,-30.42"/>
</a>
</g>
</g>
<!-- Node6 -->
<g id="Node000006" class="node">
<title>Node6</title>
<g id="a_Node000006"><a xlink:href="main_8cpp.html#a3c04138a5bfe5d72780bb7e82a18e627" target="_top" xlink:title=" ">
<polygon fill="white" stroke="#666666" points="41,-67.5 0,-67.5 0,-48.5 41,-48.5 41,-67.5"/>
<text text-anchor="middle" x="20.5" y="-55.5" font-family="Helvetica,sans-Serif" font-size="10.00">main</text>
</a>
</g>
</g>
<!-- Node5&#45;&gt;Node6 -->
<g id="edge5_Node000005_Node000006" class="edge">
<title>Node5&#45;&gt;Node6</title>
<g id="a_edge5_Node000005_Node000006"><a xlink:title=" ">
<path fill="none" stroke="#63b8ff" d="M77.97,-58C64.49,-58 51.29,-58 41.05,-58"/>
<polygon fill="#63b8ff" stroke="#63b8ff" points="78.29,-61.5 88.29,-58 78.29,-54.5 78.29,-61.5"/>
</a>
</g>
</g>
</g>
</svg>
