<?xml version="1.0" encoding="UTF-8" standalone="no"?>
<!DOCTYPE svg PUBLIC "-//W3C//DTD SVG 1.1//EN"
 "http://www.w3.org/Graphics/SVG/1.1/DTD/svg11.dtd">
<!-- Generated by graphviz version 2.43.0 (0)
 -->
<!-- Title: polyfem::solver::NLProblem::NLProblem Pages: 1 -->
<svg width="836pt" height="102pt"
 viewBox="0.00 0.00 836.00 101.70" xmlns="http://www.w3.org/2000/svg" xmlns:xlink="http://www.w3.org/1999/xlink">
<g id="graph0" class="graph" transform="scale(1 1) rotate(0) translate(4 97.7)">
<title>polyfem::solver::NLProblem::NLProblem</title>
<!-- Node1 -->
<g id="Node000001" class="node">
<title>Node1</title>
<g id="a_Node000001"><a xlink:title=" ">
<polygon fill="#999999" stroke="#666666" points="152,-54 0,-54 0,-24 152,-24 152,-54"/>
<text text-anchor="start" x="8" y="-42" font-family="Helvetica,sans-Serif" font-size="10.00">polyfem::solver::NLProblem</text>
<text text-anchor="middle" x="76" y="-31" font-family="Helvetica,sans-Serif" font-size="10.00">::NLProblem</text>
</a>
</g>
</g>
<!-- Node2 -->
<g id="Node000002" class="node">
<title>Node2</title>
<g id="a_Node000002"><a xlink:href="classpolyfem_1_1solver_1_1_n_l_problem.html#a5069c9965cd70fe96b684762a9d52452" target="_top" xlink:title=" ">
<polygon fill="white" stroke="#666666" points="340,-78 188,-78 188,-48 340,-48 340,-78"/>
<text text-anchor="start" x="196" y="-66" font-family="Helvetica,sans-Serif" font-size="10.00">polyfem::solver::NLProblem</text>
<text text-anchor="middle" x="264" y="-55" font-family="Helvetica,sans-Serif" font-size="10.00">::setup_constraints</text>
</a>
</g>
</g>
<!-- Node1&#45;&gt;Node2 -->
<g id="edge1_Node000001_Node000002" class="edge">
<title>Node1&#45;&gt;Node2</title>
<g id="a_edge1_Node000001_Node000002"><a xlink:title=" ">
<path fill="none" stroke="#63b8ff" d="M152.12,-48.69C160.6,-49.79 169.28,-50.91 177.87,-52.02"/>
<polygon fill="#63b8ff" stroke="#63b8ff" points="177.54,-55.5 187.9,-53.31 178.43,-48.56 177.54,-55.5"/>
</a>
</g>
</g>
<!-- Node6 -->
<g id="Node000006" class="node">
<title>Node6</title>
<g id="a_Node000006"><a xlink:href="classpolyfem_1_1solver_1_1_n_l_problem.html#ae46ba296dbf765122acfe737ef2b5e95" target="_top" xlink:title=" ">
<polygon fill="white" stroke="#666666" points="340,-30 188,-30 188,0 340,0 340,-30"/>
<text text-anchor="start" x="196" y="-18" font-family="Helvetica,sans-Serif" font-size="10.00">polyfem::solver::NLProblem</text>
<text text-anchor="middle" x="264" y="-7" font-family="Helvetica,sans-Serif" font-size="10.00">::use_reduced_size</text>
</a>
</g>
</g>
<!-- Node1&#45;&gt;Node6 -->
<g id="edge8_Node000001_Node000006" class="edge">
<title>Node1&#45;&gt;Node6</title>
<g id="a_edge8_Node000001_Node000006"><a xlink:title=" ">
<path fill="none" stroke="#63b8ff" d="M152.12,-29.31C160.6,-28.21 169.28,-27.09 177.87,-25.98"/>
<polygon fill="#63b8ff" stroke="#63b8ff" points="178.43,-29.44 187.9,-24.69 177.54,-22.5 178.43,-29.44"/>
</a>
</g>
</g>
<!-- Node3 -->
<g id="Node000003" class="node">
<title>Node3</title>
<g id="a_Node000003"><a xlink:href="namespacepolyfem.html#adc7e749e0c40939b7323961c6a41e391" target="_top" xlink:title=" ">
<polygon fill="white" stroke="#666666" points="698,-75 564,-75 564,-45 698,-45 698,-75"/>
<text text-anchor="start" x="572" y="-63" font-family="Helvetica,sans-Serif" font-size="10.00">polyfem::log_and_throw</text>
<text text-anchor="middle" x="631" y="-52" font-family="Helvetica,sans-Serif" font-size="10.00">_error</text>
</a>
</g>
</g>
<!-- Node2&#45;&gt;Node3 -->
<g id="edge2_Node000002_Node000003" class="edge">
<title>Node2&#45;&gt;Node3</title>
<g id="a_edge2_Node000002_Node000003"><a xlink:title=" ">
<path fill="none" stroke="#63b8ff" d="M340.19,-62.38C402.56,-61.87 490.86,-61.14 553.57,-60.63"/>
<polygon fill="#63b8ff" stroke="#63b8ff" points="553.83,-64.13 563.8,-60.54 553.77,-57.13 553.83,-64.13"/>
</a>
</g>
</g>
<!-- Node4 -->
<g id="Node000004" class="node">
<title>Node4</title>
<g id="a_Node000004"><a xlink:href="namespacepolyfem.html#a03f3d75072d2fd19f70cd886a51d10dd" target="_top" xlink:title="Retrieves the current logger.">
<polygon fill="white" stroke="#666666" points="828,-69.5 734,-69.5 734,-50.5 828,-50.5 828,-69.5"/>
<text text-anchor="middle" x="781" y="-57.5" font-family="Helvetica,sans-Serif" font-size="10.00">polyfem::logger</text>
</a>
</g>
</g>
<!-- Node2&#45;&gt;Node4 -->
<g id="edge4_Node000002_Node000004" class="edge">
<title>Node2&#45;&gt;Node4</title>
<g id="a_edge4_Node000002_Node000004"><a xlink:title=" ">
<path fill="none" stroke="#63b8ff" d="M340.18,-71.74C352.15,-72.96 364.41,-74.1 376,-75 518.73,-86.12 556.28,-104.31 698,-84 713.48,-81.78 730.11,-77.32 744.33,-72.84"/>
<polygon fill="#63b8ff" stroke="#63b8ff" points="745.79,-76.05 754.2,-69.61 743.61,-69.39 745.79,-76.05"/>
</a>
</g>
</g>
<!-- Node5 -->
<g id="Node000005" class="node">
<title>Node5</title>
<g id="a_Node000005"><a xlink:href="classpolyfem_1_1solver_1_1_n_l_problem.html#aa27e8e6e76c791a8fae98369779c054a" target="_top" xlink:title=" ">
<polygon fill="white" stroke="#666666" points="528,-35 376,-35 376,-5 528,-5 528,-35"/>
<text text-anchor="start" x="384" y="-23" font-family="Helvetica,sans-Serif" font-size="10.00">polyfem::solver::NLProblem</text>
<text text-anchor="middle" x="452" y="-12" font-family="Helvetica,sans-Serif" font-size="10.00">::update_constraint_values</text>
</a>
</g>
</g>
<!-- Node2&#45;&gt;Node5 -->
<g id="edge5_Node000002_Node000005" class="edge">
<title>Node2&#45;&gt;Node5</title>
<g id="a_edge5_Node000002_Node000005"><a xlink:title=" ">
<path fill="none" stroke="#63b8ff" d="M330.05,-47.96C344.92,-44.52 360.84,-40.84 376.08,-37.32"/>
<polygon fill="#63b8ff" stroke="#63b8ff" points="377.03,-40.69 385.98,-35.03 375.45,-33.87 377.03,-40.69"/>
</a>
</g>
</g>
<!-- Node3&#45;&gt;Node4 -->
<g id="edge3_Node000003_Node000004" class="edge">
<title>Node3&#45;&gt;Node4</title>
<g id="a_edge3_Node000003_Node000004"><a xlink:title=" ">
<path fill="none" stroke="#63b8ff" d="M698.21,-60C706.74,-60 715.42,-60 723.77,-60"/>
<polygon fill="#63b8ff" stroke="#63b8ff" points="723.77,-63.5 733.77,-60 723.77,-56.5 723.77,-63.5"/>
</a>
</g>
</g>
<!-- Node5&#45;&gt;Node3 -->
<g id="edge6_Node000005_Node000003" class="edge">
<title>Node5&#45;&gt;Node3</title>
<g id="a_edge6_Node000005_Node000003"><a xlink:title=" ">
<path fill="none" stroke="#63b8ff" d="M519.41,-35.01C530.64,-37.55 542.38,-40.2 553.83,-42.79"/>
<polygon fill="#63b8ff" stroke="#63b8ff" points="553.28,-46.25 563.8,-45.04 554.82,-39.42 553.28,-46.25"/>
</a>
</g>
</g>
<!-- Node5&#45;&gt;Node4 -->
<g id="edge7_Node000005_Node000004" class="edge">
<title>Node5&#45;&gt;Node4</title>
<g id="a_edge7_Node000005_Node000004"><a xlink:title=" ">
<path fill="none" stroke="#63b8ff" d="M528.03,-20.65C576.78,-22.11 641.54,-26.02 698,-36 713.05,-38.66 729.26,-43.06 743.26,-47.38"/>
<polygon fill="#63b8ff" stroke="#63b8ff" points="742.43,-50.79 753.02,-50.48 744.55,-44.12 742.43,-50.79"/>
</a>
</g>
</g>
</g>
</svg>
