<?xml version="1.0" encoding="UTF-8" standalone="no"?>
<!DOCTYPE svg PUBLIC "-//W3C//DTD SVG 1.1//EN"
 "http://www.w3.org/Graphics/SVG/1.1/DTD/svg11.dtd">
<!-- Generated by graphviz version 2.43.0 (0)
 -->
<!-- Title: polyfem::solver::DirichletEnergyForm::get_integral_functional Pages: 1 -->
<svg width="717pt" height="201pt"
 viewBox="0.00 0.00 717.00 200.50" xmlns="http://www.w3.org/2000/svg" xmlns:xlink="http://www.w3.org/1999/xlink">
<g id="graph0" class="graph" transform="scale(1 1) rotate(0) translate(4 196.5)">
<title>polyfem::solver::DirichletEnergyForm::get_integral_functional</title>
<!-- Node1 -->
<g id="Node000001" class="node">
<title>Node1</title>
<g id="a_Node000001"><a xlink:title=" ">
<polygon fill="#999999" stroke="#666666" points="140,-83.5 0,-83.5 0,-42.5 140,-42.5 140,-83.5"/>
<text text-anchor="start" x="8" y="-71.5" font-family="Helvetica,sans-Serif" font-size="10.00">polyfem::solver::Dirichlet</text>
<text text-anchor="start" x="8" y="-60.5" font-family="Helvetica,sans-Serif" font-size="10.00">EnergyForm::get_integral</text>
<text text-anchor="middle" x="70" y="-49.5" font-family="Helvetica,sans-Serif" font-size="10.00">_functional</text>
</a>
</g>
</g>
<!-- Node2 -->
<g id="Node000002" class="node">
<title>Node2</title>
<g id="a_Node000002"><a xlink:href="classpolyfem_1_1_state.html#a0acd0b93140ea778ac836ee0a1a29dfd" target="_top" xlink:title="return the formulation (checks if the problem is scalar or not and deals with multiphysics)">
<polygon fill="white" stroke="#666666" points="333.5,-115.5 181.5,-115.5 181.5,-96.5 333.5,-96.5 333.5,-115.5"/>
<text text-anchor="middle" x="257.5" y="-103.5" font-family="Helvetica,sans-Serif" font-size="10.00">polyfem::State::formulation</text>
</a>
</g>
</g>
<!-- Node1&#45;&gt;Node2 -->
<g id="edge1_Node000001_Node000002" class="edge">
<title>Node1&#45;&gt;Node2</title>
<g id="a_edge1_Node000001_Node000002"><a xlink:title=" ">
<path fill="none" stroke="#63b8ff" d="M140.07,-79.01C161.75,-84.04 185.28,-89.49 205.47,-94.17"/>
<polygon fill="#63b8ff" stroke="#63b8ff" points="204.86,-97.62 215.4,-96.47 206.44,-90.8 204.86,-97.62"/>
</a>
</g>
</g>
<!-- Node6 -->
<g id="Node000006" class="node">
<title>Node6</title>
<g id="a_Node000006"><a xlink:href="classpolyfem_1_1_integrable_functional.html#a484ec7771dba4c13e08d640c36b96f70" target="_top" xlink:title=" ">
<polygon fill="white" stroke="#666666" points="339,-78 176,-78 176,-48 339,-48 339,-78"/>
<text text-anchor="start" x="184" y="-66" font-family="Helvetica,sans-Serif" font-size="10.00">polyfem::IntegrableFunctional</text>
<text text-anchor="middle" x="257.5" y="-55" font-family="Helvetica,sans-Serif" font-size="10.00">::set_dj_dgradu</text>
</a>
</g>
</g>
<!-- Node1&#45;&gt;Node6 -->
<g id="edge6_Node000001_Node000006" class="edge">
<title>Node1&#45;&gt;Node6</title>
<g id="a_edge6_Node000001_Node000006"><a xlink:title=" ">
<path fill="none" stroke="#63b8ff" d="M140.07,-63C148.44,-63 157.08,-63 165.7,-63"/>
<polygon fill="#63b8ff" stroke="#63b8ff" points="165.79,-66.5 175.79,-63 165.79,-59.5 165.79,-66.5"/>
</a>
</g>
</g>
<!-- Node8 -->
<g id="Node000008" class="node">
<title>Node8</title>
<g id="a_Node000008"><a xlink:href="classpolyfem_1_1_integrable_functional.html#a8e61f2f179fe169a42362de10f03c0d9" target="_top" xlink:title=" ">
<polygon fill="white" stroke="#666666" points="339,-30 176,-30 176,0 339,0 339,-30"/>
<text text-anchor="start" x="184" y="-18" font-family="Helvetica,sans-Serif" font-size="10.00">polyfem::IntegrableFunctional</text>
<text text-anchor="middle" x="257.5" y="-7" font-family="Helvetica,sans-Serif" font-size="10.00">::set_j</text>
</a>
</g>
</g>
<!-- Node1&#45;&gt;Node8 -->
<g id="edge8_Node000001_Node000008" class="edge">
<title>Node1&#45;&gt;Node8</title>
<g id="a_edge8_Node000001_Node000008"><a xlink:title=" ">
<path fill="none" stroke="#63b8ff" d="M140.07,-45.13C155.94,-41.02 172.8,-36.66 188.61,-32.57"/>
<polygon fill="#63b8ff" stroke="#63b8ff" points="189.5,-35.95 198.31,-30.06 187.75,-29.17 189.5,-35.95"/>
</a>
</g>
</g>
<!-- Node3 -->
<g id="Node000003" class="node">
<title>Node3</title>
<g id="a_Node000003"><a xlink:href="classpolyfem_1_1assembler_1_1_assembler_utils.html#ab029826bf8d30ad65253a2afd31cc496" target="_top" xlink:title="utility to check if material is one of the elastic materials">
<polygon fill="white" stroke="#666666" points="513.5,-174.5 399.5,-174.5 399.5,-133.5 513.5,-133.5 513.5,-174.5"/>
<text text-anchor="start" x="407.5" y="-162.5" font-family="Helvetica,sans-Serif" font-size="10.00">polyfem::assembler</text>
<text text-anchor="start" x="407.5" y="-151.5" font-family="Helvetica,sans-Serif" font-size="10.00">::AssemblerUtils::is</text>
<text text-anchor="middle" x="456.5" y="-140.5" font-family="Helvetica,sans-Serif" font-size="10.00">_elastic_material</text>
</a>
</g>
</g>
<!-- Node2&#45;&gt;Node3 -->
<g id="edge2_Node000002_Node000003" class="edge">
<title>Node2&#45;&gt;Node3</title>
<g id="a_edge2_Node000002_Node000003"><a xlink:title=" ">
<path fill="none" stroke="#63b8ff" d="M297.89,-115.6C324.02,-121.96 358.95,-130.48 389.29,-137.87"/>
<polygon fill="#63b8ff" stroke="#63b8ff" points="388.84,-141.36 399.38,-140.33 390.5,-134.56 388.84,-141.36"/>
</a>
</g>
</g>
<!-- Node5 -->
<g id="Node000005" class="node">
<title>Node5</title>
<g id="a_Node000005"><a xlink:href="namespacepolyfem.html#a03f3d75072d2fd19f70cd886a51d10dd" target="_top" xlink:title="Retrieves the current logger.">
<polygon fill="white" stroke="#666666" points="503.5,-115.5 409.5,-115.5 409.5,-96.5 503.5,-96.5 503.5,-115.5"/>
<text text-anchor="middle" x="456.5" y="-103.5" font-family="Helvetica,sans-Serif" font-size="10.00">polyfem::logger</text>
</a>
</g>
</g>
<!-- Node2&#45;&gt;Node5 -->
<g id="edge5_Node000002_Node000005" class="edge">
<title>Node2&#45;&gt;Node5</title>
<g id="a_edge5_Node000002_Node000005"><a xlink:title=" ">
<path fill="none" stroke="#63b8ff" d="M333.54,-106C355.4,-106 378.89,-106 399.37,-106"/>
<polygon fill="#63b8ff" stroke="#63b8ff" points="399.47,-109.5 409.47,-106 399.47,-102.5 399.47,-109.5"/>
</a>
</g>
</g>
<!-- Node4 -->
<g id="Node000004" class="node">
<title>Node4</title>
<g id="a_Node000004"><a xlink:href="classpolyfem_1_1assembler_1_1_assembler_utils.html#ad8fe633ff3cb68e2ae4fe8314d835e01" target="_top" xlink:title="list of all elastic materials">
<polygon fill="white" stroke="#666666" points="709,-174.5 574,-174.5 574,-133.5 709,-133.5 709,-174.5"/>
<text text-anchor="start" x="582" y="-162.5" font-family="Helvetica,sans-Serif" font-size="10.00">polyfem::assembler</text>
<text text-anchor="start" x="582" y="-151.5" font-family="Helvetica,sans-Serif" font-size="10.00">::AssemblerUtils::elastic</text>
<text text-anchor="middle" x="641.5" y="-140.5" font-family="Helvetica,sans-Serif" font-size="10.00">_materials</text>
</a>
</g>
</g>
<!-- Node3&#45;&gt;Node4 -->
<g id="edge3_Node000003_Node000004" class="edge">
<title>Node3&#45;&gt;Node4</title>
<g id="a_edge3_Node000003_Node000004"><a xlink:title=" ">
<path fill="none" stroke="#63b8ff" d="M513.9,-154C529.55,-154 546.82,-154 563.44,-154"/>
<polygon fill="#63b8ff" stroke="#63b8ff" points="563.68,-157.5 573.68,-154 563.68,-150.5 563.68,-157.5"/>
</a>
</g>
</g>
<!-- Node4&#45;&gt;Node4 -->
<g id="edge4_Node000004_Node000004" class="edge">
<title>Node4&#45;&gt;Node4</title>
<g id="a_edge4_Node000004_Node000004"><a xlink:title=" ">
<path fill="none" stroke="#63b8ff" d="M607.68,-174.6C603.99,-184.15 615.27,-192.5 641.5,-192.5 657.9,-192.5 668.45,-189.24 673.16,-184.46"/>
<polygon fill="#63b8ff" stroke="#63b8ff" points="676.6,-185.11 675.32,-174.6 669.76,-183.62 676.6,-185.11"/>
</a>
</g>
</g>
<!-- Node7 -->
<g id="Node000007" class="node">
<title>Node7</title>
<g id="a_Node000007"><a xlink:href="classpolyfem_1_1_integrable_functional.html#a87ed851b104868cbbea8c4e09abee313" target="_top" xlink:title=" ">
<polygon fill="white" stroke="#666666" points="538,-78 375,-78 375,-48 538,-48 538,-78"/>
<text text-anchor="start" x="383" y="-66" font-family="Helvetica,sans-Serif" font-size="10.00">polyfem::IntegrableFunctional</text>
<text text-anchor="middle" x="456.5" y="-55" font-family="Helvetica,sans-Serif" font-size="10.00">::dj_dgradu</text>
</a>
</g>
</g>
<!-- Node6&#45;&gt;Node7 -->
<g id="edge7_Node000006_Node000007" class="edge">
<title>Node6&#45;&gt;Node7</title>
<g id="a_edge7_Node000006_Node000007"><a xlink:title=" ">
<path fill="none" stroke="#63b8ff" d="M339.2,-63C347.67,-63 356.33,-63 364.91,-63"/>
<polygon fill="#63b8ff" stroke="#63b8ff" points="364.93,-66.5 374.93,-63 364.93,-59.5 364.93,-66.5"/>
</a>
</g>
</g>
</g>
</svg>
