<?xml version="1.0" encoding="UTF-8" standalone="no"?>
<!DOCTYPE svg PUBLIC "-//W3C//DTD SVG 1.1//EN"
 "http://www.w3.org/Graphics/SVG/1.1/DTD/svg11.dtd">
<!-- Generated by graphviz version 2.43.0 (0)
 -->
<!-- Title: polyfem::io::OutStatsData::compute_mesh_stats Pages: 1 -->
<svg width="467pt" height="172pt"
 viewBox="0.00 0.00 467.00 172.00" xmlns="http://www.w3.org/2000/svg" xmlns:xlink="http://www.w3.org/1999/xlink">

<svg id="main" version="1.1" xmlns="http://www.w3.org/2000/svg" xmlns:xlink="http://www.w3.org/1999/xlink" xml:space="preserve" onload="init(evt)">
<style type="text/css"><![CDATA[
.node, .edge {opacity: 0.7;}
.node.selected, .edge.selected {opacity: 1;}
.edge:hover path { stroke: red; }
.edge:hover polygon { stroke: red; fill: red; }
]]></style>
<script type="application/ecmascript" xlink:href="svg.min.js"/>
<svg id="graph" class="graph">
<g id="graph0" class="graph" transform="scale(1 1) rotate(0) translate(4 168)">
<title>polyfem::io::OutStatsData::compute_mesh_stats</title>
<!-- Node1 -->
<g id="Node000001" class="node">
<title>Node1</title>
<g id="a_Node000001"><a xlink:title="compute stats (counts els type, mesh lenght, etc), step 1 of solve">
<polygon fill="#999999" stroke="#666666" points="143,-121 0,-121 0,-91 143,-91 143,-121"/>
<text text-anchor="start" x="8" y="-109" font-family="Helvetica,sans-Serif" font-size="10.00">polyfem::io::OutStatsData</text>
<text text-anchor="middle" x="71.5" y="-98" font-family="Helvetica,sans-Serif" font-size="10.00">::compute_mesh_stats</text>
</a>
</g>
</g>
<!-- Node2 -->
<g id="Node000002" class="node">
<title>Node2</title>
<g id="a_Node000002"><a xlink:href="classpolyfem_1_1mesh_1_1_mesh.html#ac2a2887f2bb1ca46c62bb01fcb9efbe6" target="_top" xlink:title="Returns the elements types.">
<polygon fill="white" stroke="#666666" points="301,-164 179,-164 179,-134 301,-134 301,-164"/>
<text text-anchor="start" x="187" y="-152" font-family="Helvetica,sans-Serif" font-size="10.00">polyfem::mesh::Mesh</text>
<text text-anchor="middle" x="240" y="-141" font-family="Helvetica,sans-Serif" font-size="10.00">::elements_tag</text>
</a>
</g>
</g>
<!-- Node1&#45;&gt;Node2 -->
<g id="edge1_Node000001_Node000002" class="edge">
<title>Node1&#45;&gt;Node2</title>
<g id="a_edge1_Node000001_Node000002"><a xlink:title=" ">
<path fill="none" stroke="#63b8ff" d="M130.73,-121.04C143.66,-124.38 157.48,-127.95 170.76,-131.38"/>
<polygon fill="#63b8ff" stroke="#63b8ff" points="170.24,-134.86 180.8,-133.97 171.99,-128.08 170.24,-134.86"/>
</a>
</g>
</g>
<!-- Node3 -->
<g id="Node000003" class="node">
<title>Node3</title>
<g id="a_Node000003"><a xlink:href="namespacepolyfem.html#a03f3d75072d2fd19f70cd886a51d10dd" target="_top" xlink:title="Retrieves the current logger.">
<polygon fill="white" stroke="#666666" points="287,-115.5 193,-115.5 193,-96.5 287,-96.5 287,-115.5"/>
<text text-anchor="middle" x="240" y="-103.5" font-family="Helvetica,sans-Serif" font-size="10.00">polyfem::logger</text>
</a>
</g>
</g>
<!-- Node1&#45;&gt;Node3 -->
<g id="edge2_Node000001_Node000003" class="edge">
<title>Node1&#45;&gt;Node3</title>
<g id="a_edge2_Node000001_Node000003"><a xlink:title=" ">
<path fill="none" stroke="#63b8ff" d="M143.11,-106C156.4,-106 170.13,-106 182.9,-106"/>
<polygon fill="#63b8ff" stroke="#63b8ff" points="182.91,-109.5 192.91,-106 182.91,-102.5 182.91,-109.5"/>
</a>
</g>
</g>
<!-- Node4 -->
<g id="Node000004" class="node">
<title>Node4</title>
<g id="a_Node000004"><a xlink:href="classpolyfem_1_1mesh_1_1_mesh.html#a0140181b551c7bf0c162d6898155f294" target="_top" xlink:title="utitlity to return the number of elements, cells or faces in 3d and 2d">
<polygon fill="white" stroke="#666666" points="301,-78 179,-78 179,-48 301,-48 301,-78"/>
<text text-anchor="start" x="187" y="-66" font-family="Helvetica,sans-Serif" font-size="10.00">polyfem::mesh::Mesh</text>
<text text-anchor="middle" x="240" y="-55" font-family="Helvetica,sans-Serif" font-size="10.00">::n_elements</text>
</a>
</g>
</g>
<!-- Node1&#45;&gt;Node4 -->
<g id="edge3_Node000001_Node000004" class="edge">
<title>Node1&#45;&gt;Node4</title>
<g id="a_edge3_Node000001_Node000004"><a xlink:title=" ">
<path fill="none" stroke="#63b8ff" d="M130.73,-90.96C143.66,-87.62 157.48,-84.05 170.76,-80.62"/>
<polygon fill="#63b8ff" stroke="#63b8ff" points="171.99,-83.92 180.8,-78.03 170.24,-77.14 171.99,-83.92"/>
</a>
</g>
</g>
<!-- Node5 -->
<g id="Node000005" class="node">
<title>Node5</title>
<g id="a_Node000005"><a xlink:href="classpolyfem_1_1mesh_1_1_mesh.html#a93c9ea4759ded33a8f25ff157033cfd9" target="_top" xlink:title="checks if mesh is volume">
<polygon fill="white" stroke="#666666" points="459,-126 337,-126 337,-96 459,-96 459,-126"/>
<text text-anchor="start" x="345" y="-114" font-family="Helvetica,sans-Serif" font-size="10.00">polyfem::mesh::Mesh</text>
<text text-anchor="middle" x="398" y="-103" font-family="Helvetica,sans-Serif" font-size="10.00">::is_volume</text>
</a>
</g>
</g>
<!-- Node4&#45;&gt;Node5 -->
<g id="edge4_Node000004_Node000005" class="edge">
<title>Node4&#45;&gt;Node5</title>
<g id="a_edge4_Node000004_Node000005"><a xlink:title=" ">
<path fill="none" stroke="#63b8ff" d="M289.93,-78.06C305.32,-82.79 322.48,-88.07 338.46,-92.99"/>
<polygon fill="#63b8ff" stroke="#63b8ff" points="337.66,-96.4 348.24,-96 339.71,-89.71 337.66,-96.4"/>
</a>
</g>
</g>
<!-- Node6 -->
<g id="Node000006" class="node">
<title>Node6</title>
<g id="a_Node000006"><a xlink:href="classpolyfem_1_1mesh_1_1_mesh.html#aaf5c9547e7891266b92e6f1a2ac5d697" target="_top" xlink:title="number of cells">
<polygon fill="white" stroke="#666666" points="459,-78 337,-78 337,-48 459,-48 459,-78"/>
<text text-anchor="start" x="345" y="-66" font-family="Helvetica,sans-Serif" font-size="10.00">polyfem::mesh::Mesh</text>
<text text-anchor="middle" x="398" y="-55" font-family="Helvetica,sans-Serif" font-size="10.00">::n_cells</text>
</a>
</g>
</g>
<!-- Node4&#45;&gt;Node6 -->
<g id="edge5_Node000004_Node000006" class="edge">
<title>Node4&#45;&gt;Node6</title>
<g id="a_edge5_Node000004_Node000006"><a xlink:title=" ">
<path fill="none" stroke="#63b8ff" d="M301.31,-63C309.6,-63 318.17,-63 326.63,-63"/>
<polygon fill="#63b8ff" stroke="#63b8ff" points="326.85,-66.5 336.85,-63 326.85,-59.5 326.85,-66.5"/>
</a>
</g>
</g>
<!-- Node7 -->
<g id="Node000007" class="node">
<title>Node7</title>
<g id="a_Node000007"><a xlink:href="classpolyfem_1_1mesh_1_1_mesh.html#abf0f721370d6dc7401113e92fe94f4e2" target="_top" xlink:title="number of faces">
<polygon fill="white" stroke="#666666" points="459,-30 337,-30 337,0 459,0 459,-30"/>
<text text-anchor="start" x="345" y="-18" font-family="Helvetica,sans-Serif" font-size="10.00">polyfem::mesh::Mesh</text>
<text text-anchor="middle" x="398" y="-7" font-family="Helvetica,sans-Serif" font-size="10.00">::n_faces</text>
</a>
</g>
</g>
<!-- Node4&#45;&gt;Node7 -->
<g id="edge6_Node000004_Node000007" class="edge">
<title>Node4&#45;&gt;Node7</title>
<g id="a_edge6_Node000004_Node000007"><a xlink:title=" ">
<path fill="none" stroke="#63b8ff" d="M289.93,-47.94C305.32,-43.21 322.48,-37.93 338.46,-33.01"/>
<polygon fill="#63b8ff" stroke="#63b8ff" points="339.71,-36.29 348.24,-30 337.66,-29.6 339.71,-36.29"/>
</a>
</g>
</g>
</g>
</svg>
</svg>

<style type='text/css'>
<![CDATA[
[data-mouse-over-selected='false'] { opacity: 0.7; }
[data-mouse-over-selected='true']  { opacity: 1.0; }
]]>
</style>
<script type="application/ecmascript"><![CDATA[
document.addEventListener('DOMContentLoaded', (event) => {
  highlightEdges();
  highlightAdjacentNodes();
});
]]></script>
</svg>
