<?xml version="1.0" encoding="UTF-8" standalone="no"?>
<!DOCTYPE svg PUBLIC "-//W3C//DTD SVG 1.1//EN"
 "http://www.w3.org/Graphics/SVG/1.1/DTD/svg11.dtd">
<!-- Generated by graphviz version 2.43.0 (0)
 -->
<!-- Title: polyfem::assembler::AssemblerUtils::is_linear Pages: 1 -->
<!--zoomable 383 -->
<svg id="main" version="1.1" xmlns="http://www.w3.org/2000/svg" xmlns:xlink="http://www.w3.org/1999/xlink" xml:space="preserve" onload="init(evt)">
<style type="text/css"><![CDATA[
.edge:hover path { stroke: red; }
.edge:hover polygon { stroke: red; fill: red; }
]]></style>
<script type="text/javascript"><![CDATA[
var edges = document.getElementsByTagName('g');
if (edges && edges.length) {
  for (var i=0;i<edges.length;i++) {
    if (edges[i].id.substr(0,4)=='edge') {
      edges[i].setAttribute('class','edge');
    }
  }
}
]]></script>
        <defs>
                <circle id="rim" cx="0" cy="0" r="7"/>
                <circle id="rim2" cx="0" cy="0" r="3.5"/>
                <g id="zoomPlus">
                        <use xlink:href="#rim" fill="#404040">
                                <set attributeName="fill" to="#808080" begin="zoomplus.mouseover" end="zoomplus.mouseout"/>
                        </use>
                        <path d="M-4,0h8M0,-4v8" fill="none" stroke="white" stroke-width="1.5" pointer-events="none"/>
                </g>
                <g id="zoomMin">
                        <use xlink:href="#rim" fill="#404040">
                                <set attributeName="fill" to="#808080" begin="zoomminus.mouseover" end="zoomminus.mouseout"/>
                        </use>
                        <path d="M-4,0h8" fill="none" stroke="white" stroke-width="1.5" pointer-events="none"/>
                </g>
                <g id="dirArrow">
                        <path fill="none" stroke="white" stroke-width="1.5" d="M0,-3.0v7 M-2.5,-0.5L0,-3.0L2.5,-0.5"/>
                </g>
               <g id="resetDef">
                       <use xlink:href="#rim2" fill="#404040">
                               <set attributeName="fill" to="#808080" begin="reset.mouseover" end="reset.mouseout"/>
                       </use>
               </g>
        </defs>

<script type="text/javascript">
var viewWidth = 857;
var viewHeight = 383;
var sectionId = 'dynsection-22';
</script>
<script xlink:href="svgpan.js"/>
<svg id="graph" class="graph">
<g id="viewport">
<title>polyfem::assembler::AssemblerUtils::is_linear</title>
<!-- Node1 -->
<g id="node1" class="node">
<title>Node1</title>
<g id="a_node1"><a xlink:title=" ">
<polygon fill="#999999" stroke="#666666" points="849,-205.5 735,-205.5 735,-164.5 849,-164.5 849,-205.5"/>
<text text-anchor="start" x="743" y="-193.5" font-family="Helvetica,sans-Serif" font-size="10.00">polyfem::assembler</text>
<text text-anchor="start" x="743" y="-182.5" font-family="Helvetica,sans-Serif" font-size="10.00">::AssemblerUtils::is</text>
<text text-anchor="middle" x="792" y="-171.5" font-family="Helvetica,sans-Serif" font-size="10.00">_linear</text>
</a>
</g>
</g>
<!-- Node2 -->
<g id="node2" class="node">
<title>Node2</title>
<g id="a_node2"><a xlink:href="classpolyfem_1_1_state.html#acde0d85c7ad662775d7d9b89b3248462" target="_top" xlink:title="assemble matrices, step 4 of solve">
<polygon fill="white" stroke="#666666" points="299,-348 157,-348 157,-318 299,-318 299,-348"/>
<text text-anchor="start" x="165" y="-336" font-family="Helvetica,sans-Serif" font-size="10.00">polyfem::State::assemble</text>
<text text-anchor="middle" x="228" y="-325" font-family="Helvetica,sans-Serif" font-size="10.00">_stiffness_mat</text>
</a>
</g>
</g>
<!-- Node1&#45;&gt;Node2 -->
<g id="edge1" class="edge">
<title>Node1&#45;&gt;Node2</title>
<path fill="none" stroke="#63b8ff" d="M777.19,-214.94C762.15,-244.1 735.31,-287.37 699,-311 562.33,-399.94 497.05,-375.12 335,-357 318.5,-355.16 300.82,-351.74 284.72,-348.06"/>
<polygon fill="#63b8ff" stroke="#63b8ff" points="780.5,-216.15 781.84,-205.64 774.24,-213.02 780.5,-216.15"/>
</g>
<!-- Node5 -->
<g id="node5" class="node">
<title>Node5</title>
<g id="a_node5"><a xlink:href="classpolyfem_1_1solver_1_1_elastic_form.html#a4a66c73e76a0c85f7a206f857f4832ed" target="_top" xlink:title="Compute the stiffness matrix (cached)">
<polygon fill="white" stroke="#666666" points="699,-138 523,-138 523,-108 699,-108 699,-138"/>
<text text-anchor="start" x="531" y="-126" font-family="Helvetica,sans-Serif" font-size="10.00">polyfem::solver::Elastic</text>
<text text-anchor="middle" x="611" y="-115" font-family="Helvetica,sans-Serif" font-size="10.00">Form::compute_cached_stiffness</text>
</a>
</g>
</g>
<!-- Node1&#45;&gt;Node5 -->
<g id="edge4" class="edge">
<title>Node1&#45;&gt;Node5</title>
<path fill="none" stroke="#63b8ff" d="M725.17,-161.18C716.38,-158.06 707.48,-154.93 699,-152 685.61,-147.37 671.01,-142.45 657.67,-138.01"/>
<polygon fill="#63b8ff" stroke="#63b8ff" points="724.04,-164.5 734.63,-164.55 726.39,-157.9 724.04,-164.5"/>
</g>
<!-- Node6 -->
<g id="node6" class="node">
<title>Node6</title>
<g id="a_node6"><a xlink:href="classpolyfem_1_1solver_1_1_elastic_form.html#ae6414a91de588393a4079e490510c7ad" target="_top" xlink:title="Construct a new Elastic Form object.">
<polygon fill="white" stroke="#666666" points="476.5,-157 345.5,-157 345.5,-127 476.5,-127 476.5,-157"/>
<text text-anchor="start" x="353.5" y="-145" font-family="Helvetica,sans-Serif" font-size="10.00">polyfem::solver::Elastic</text>
<text text-anchor="middle" x="411" y="-134" font-family="Helvetica,sans-Serif" font-size="10.00">Form::ElasticForm</text>
</a>
</g>
</g>
<!-- Node1&#45;&gt;Node6 -->
<g id="edge6" class="edge">
<title>Node1&#45;&gt;Node6</title>
<path fill="none" stroke="#63b8ff" d="M724.67,-177.47C654.86,-169.55 545.72,-157.17 476.58,-149.33"/>
<polygon fill="#63b8ff" stroke="#63b8ff" points="724.34,-180.96 734.67,-178.61 725.13,-174 724.34,-180.96"/>
</g>
<!-- Node7 -->
<g id="node7" class="node">
<title>Node7</title>
<g id="a_node7"><a xlink:href="classpolyfem_1_1_state.html#ae0de6ea3bdc69e3e21ddfbcdb144180b" target="_top" xlink:title="initialize the nonlinear solver">
<polygon fill="white" stroke="#666666" points="678.5,-262 543.5,-262 543.5,-232 678.5,-232 678.5,-262"/>
<text text-anchor="start" x="551.5" y="-250" font-family="Helvetica,sans-Serif" font-size="10.00">polyfem::State::init</text>
<text text-anchor="middle" x="611" y="-239" font-family="Helvetica,sans-Serif" font-size="10.00">_nonlinear_tensor_solve</text>
</a>
</g>
</g>
<!-- Node1&#45;&gt;Node7 -->
<g id="edge7" class="edge">
<title>Node1&#45;&gt;Node7</title>
<path fill="none" stroke="#63b8ff" d="M725.17,-208.82C716.38,-211.94 707.48,-215.07 699,-218 685.61,-222.63 671.01,-227.55 657.67,-231.99"/>
<polygon fill="#63b8ff" stroke="#63b8ff" points="726.39,-212.1 734.63,-205.45 724.04,-205.5 726.39,-212.1"/>
</g>
<!-- Node8 -->
<g id="node8" class="node">
<title>Node8</title>
<g id="a_node8"><a xlink:href="classpolyfem_1_1_state.html#a7450ef7c42dd9c523e1be73a5819117d" target="_top" xlink:title="solves the problems">
<polygon fill="white" stroke="#666666" points="288.5,-300 167.5,-300 167.5,-270 288.5,-270 288.5,-300"/>
<text text-anchor="start" x="175.5" y="-288" font-family="Helvetica,sans-Serif" font-size="10.00">polyfem::State::solve</text>
<text text-anchor="middle" x="228" y="-277" font-family="Helvetica,sans-Serif" font-size="10.00">_problem</text>
</a>
</g>
</g>
<!-- Node1&#45;&gt;Node8 -->
<g id="edge15" class="edge">
<title>Node1&#45;&gt;Node8</title>
<path fill="none" stroke="#63b8ff" d="M724.76,-188.93C635.22,-195.31 471.1,-210.85 335,-245 310.2,-251.22 283.25,-261.44 262.73,-269.99"/>
<polygon fill="#63b8ff" stroke="#63b8ff" points="725.04,-192.41 734.77,-188.23 724.55,-185.43 725.04,-192.41"/>
</g>
<!-- Node10 -->
<g id="node10" class="node">
<title>Node10</title>
<g id="a_node10"><a xlink:href="classpolyfem_1_1solver_1_1_elastic_form.html#a2a1eb1f32b30101e73734d70ab4baead" target="_top" xlink:title="Compute the second derivative of the value wrt x.">
<polygon fill="white" stroke="#666666" points="679.5,-89.5 542.5,-89.5 542.5,-48.5 679.5,-48.5 679.5,-89.5"/>
<text text-anchor="start" x="550.5" y="-77.5" font-family="Helvetica,sans-Serif" font-size="10.00">polyfem::solver::Elastic</text>
<text text-anchor="start" x="550.5" y="-66.5" font-family="Helvetica,sans-Serif" font-size="10.00">Form::second_derivative</text>
<text text-anchor="middle" x="611" y="-55.5" font-family="Helvetica,sans-Serif" font-size="10.00">_unweighted</text>
</a>
</g>
</g>
<!-- Node1&#45;&gt;Node10 -->
<g id="edge13" class="edge">
<title>Node1&#45;&gt;Node10</title>
<path fill="none" stroke="#63b8ff" d="M766.62,-156.69C749.34,-138.12 724.73,-114.49 699,-99 692.98,-95.37 686.45,-92.11 679.78,-89.19"/>
<polygon fill="#63b8ff" stroke="#63b8ff" points="764.24,-159.27 773.56,-164.31 769.41,-154.56 764.24,-159.27"/>
</g>
<!-- Node11 -->
<g id="node11" class="node">
<title>Node11</title>
<g id="a_node11"><a xlink:href="classpolyfem_1_1_state.html#ac37bfaa0b218fbf4a3caea64a7f695cb" target="_top" xlink:title="Solve the linear problem with the given solver and system.">
<polygon fill="white" stroke="#666666" points="671.5,-30 550.5,-30 550.5,0 671.5,0 671.5,-30"/>
<text text-anchor="start" x="558.5" y="-18" font-family="Helvetica,sans-Serif" font-size="10.00">polyfem::State::solve</text>
<text text-anchor="middle" x="611" y="-7" font-family="Helvetica,sans-Serif" font-size="10.00">_linear</text>
</a>
</g>
</g>
<!-- Node1&#45;&gt;Node11 -->
<g id="edge14" class="edge">
<title>Node1&#45;&gt;Node11</title>
<path fill="none" stroke="#63b8ff" d="M779.76,-154.73C765.85,-121.43 739,-68.71 699,-39 690.95,-33.02 681.49,-28.53 671.82,-25.16"/>
<polygon fill="#63b8ff" stroke="#63b8ff" points="776.67,-156.43 783.66,-164.39 783.16,-153.81 776.67,-156.43"/>
</g>
<!-- Node12 -->
<g id="node12" class="node">
<title>Node12</title>
<g id="a_node12"><a xlink:href="classpolyfem_1_1_state.html#af5afb70dc127d3ce190116321e83f190" target="_top" xlink:title="solves transient linear problem">
<polygon fill="white" stroke="#666666" points="471.5,-348 350.5,-348 350.5,-318 471.5,-318 471.5,-348"/>
<text text-anchor="start" x="358.5" y="-336" font-family="Helvetica,sans-Serif" font-size="10.00">polyfem::State::solve</text>
<text text-anchor="middle" x="411" y="-325" font-family="Helvetica,sans-Serif" font-size="10.00">_transient_linear</text>
</a>
</g>
</g>
<!-- Node1&#45;&gt;Node12 -->
<g id="edge16" class="edge">
<title>Node1&#45;&gt;Node12</title>
<path fill="none" stroke="#63b8ff" d="M768.06,-213.33C751,-232.5 726.07,-256.83 699,-271 626.51,-308.94 532.11,-323.68 471.76,-329.39"/>
<polygon fill="#63b8ff" stroke="#63b8ff" points="770.74,-215.59 774.65,-205.74 765.45,-211 770.74,-215.59"/>
</g>
<!-- Node3 -->
<g id="node3" class="node">
<title>Node3</title>
<g id="a_node3"><a xlink:href="main_8cpp.html#a3c04138a5bfe5d72780bb7e82a18e627" target="_top" xlink:title=" ">
<polygon fill="white" stroke="#666666" points="81,-339.5 40,-339.5 40,-320.5 81,-320.5 81,-339.5"/>
<text text-anchor="middle" x="60.5" y="-327.5" font-family="Helvetica,sans-Serif" font-size="10.00">main</text>
</a>
</g>
</g>
<!-- Node2&#45;&gt;Node3 -->
<g id="edge2" class="edge">
<title>Node2&#45;&gt;Node3</title>
<path fill="none" stroke="#63b8ff" d="M146.77,-331.55C122.37,-331.1 97.67,-330.66 81.19,-330.36"/>
<polygon fill="#63b8ff" stroke="#63b8ff" points="146.75,-335.05 156.81,-331.73 146.88,-328.05 146.75,-335.05"/>
</g>
<!-- Node4 -->
<g id="node4" class="node">
<title>Node4</title>
<g id="a_node4"><a xlink:href="classpolyfem_1_1_state.html#a219f9935d918f739d82488449bd4cbf4" target="_top" xlink:title="solves the problem, call other methods">
<polygon fill="white" stroke="#666666" points="121,-299.5 0,-299.5 0,-280.5 121,-280.5 121,-299.5"/>
<text text-anchor="middle" x="60.5" y="-287.5" font-family="Helvetica,sans-Serif" font-size="10.00">polyfem::State::solve</text>
</a>
</g>
</g>
<!-- Node2&#45;&gt;Node4 -->
<g id="edge3" class="edge">
<title>Node2&#45;&gt;Node4</title>
<path fill="none" stroke="#63b8ff" d="M159.34,-315.42C138.5,-310.01 116.35,-304.25 98.4,-299.59"/>
<polygon fill="#63b8ff" stroke="#63b8ff" points="158.56,-318.83 169.12,-317.96 160.32,-312.06 158.56,-318.83"/>
</g>
<!-- Node5&#45;&gt;Node6 -->
<g id="edge5" class="edge">
<title>Node5&#45;&gt;Node6</title>
<path fill="none" stroke="#63b8ff" d="M512.61,-132.35C500.38,-133.52 488.11,-134.7 476.56,-135.81"/>
<polygon fill="#63b8ff" stroke="#63b8ff" points="513.25,-135.8 522.87,-131.36 512.58,-128.83 513.25,-135.8"/>
</g>
<!-- Node7&#45;&gt;Node8 -->
<g id="edge8" class="edge">
<title>Node7&#45;&gt;Node8</title>
<path fill="none" stroke="#63b8ff" d="M533.22,-247.39C477.88,-248.52 401.54,-251.84 335,-261 319.3,-263.16 302.49,-266.49 286.99,-269.98"/>
<polygon fill="#63b8ff" stroke="#63b8ff" points="533.36,-250.88 543.3,-247.2 533.23,-243.88 533.36,-250.88"/>
</g>
<!-- Node9 -->
<g id="node9" class="node">
<title>Node9</title>
<g id="a_node9"><a xlink:href="classpolyfem_1_1_state.html#a4d91e8c971fc121b0cff2f0c02ca79e7" target="_top" xlink:title="solves transient tensor nonlinear problem">
<polygon fill="white" stroke="#666666" points="487,-300 335,-300 335,-270 487,-270 487,-300"/>
<text text-anchor="start" x="343" y="-288" font-family="Helvetica,sans-Serif" font-size="10.00">polyfem::State::solve</text>
<text text-anchor="middle" x="411" y="-277" font-family="Helvetica,sans-Serif" font-size="10.00">_transient_tensor_nonlinear</text>
</a>
</g>
</g>
<!-- Node7&#45;&gt;Node9 -->
<g id="edge11" class="edge">
<title>Node7&#45;&gt;Node9</title>
<path fill="none" stroke="#63b8ff" d="M533.42,-261.7C518.29,-264.6 502.42,-267.65 487.33,-270.54"/>
<polygon fill="#63b8ff" stroke="#63b8ff" points="534.08,-265.13 543.24,-259.81 532.76,-258.26 534.08,-265.13"/>
</g>
<!-- Node8&#45;&gt;Node3 -->
<g id="edge9" class="edge">
<title>Node8&#45;&gt;Node3</title>
<path fill="none" stroke="#63b8ff" d="M161.77,-302.74C132.9,-310.59 101.04,-319.25 81.15,-324.66"/>
<polygon fill="#63b8ff" stroke="#63b8ff" points="162.7,-306.11 171.43,-300.11 160.86,-299.36 162.7,-306.11"/>
</g>
<!-- Node8&#45;&gt;Node4 -->
<g id="edge10" class="edge">
<title>Node8&#45;&gt;Node4</title>
<path fill="none" stroke="#63b8ff" d="M156.91,-287.12C145.01,-287.48 132.76,-287.85 121.16,-288.2"/>
<polygon fill="#63b8ff" stroke="#63b8ff" points="157.36,-290.61 167.25,-286.81 157.15,-283.61 157.36,-290.61"/>
</g>
<!-- Node9&#45;&gt;Node8 -->
<g id="edge12" class="edge">
<title>Node9&#45;&gt;Node8</title>
<path fill="none" stroke="#63b8ff" d="M324.61,-285C312.4,-285 300.08,-285 288.51,-285"/>
<polygon fill="#63b8ff" stroke="#63b8ff" points="324.81,-288.5 334.81,-285 324.81,-281.5 324.81,-288.5"/>
</g>
<!-- Node12&#45;&gt;Node8 -->
<g id="edge17" class="edge">
<title>Node12&#45;&gt;Node8</title>
<path fill="none" stroke="#63b8ff" d="M343.45,-315.35C324.44,-310.31 303.92,-304.87 285.57,-300"/>
<polygon fill="#63b8ff" stroke="#63b8ff" points="342.66,-318.76 353.23,-317.94 344.46,-312 342.66,-318.76"/>
</g>
</g>
</svg>
        <g id="navigator" transform="translate(0 0)" fill="#404254">
                <rect fill="#f2f5e9" fill-opacity="0.5" stroke="#606060" stroke-width=".5" x="0" y="0" width="60" height="60"/>
                <use id="zoomplus" xlink:href="#zoomPlus" x="17" y="9" onmousedown="handleZoom(evt,'in')"/>
                <use id="zoomminus" xlink:href="#zoomMin" x="42" y="9" onmousedown="handleZoom(evt,'out')"/>
                <use id="reset" xlink:href="#resetDef" x="30" y="36" onmousedown="handleReset()"/>
                <g id="arrowUp" xlink:href="#dirArrow" transform="translate(30 24)" onmousedown="handlePan(0,-1)">
                  <use xlink:href="#rim" fill="#404040">
                        <set attributeName="fill" to="#808080" begin="arrowUp.mouseover" end="arrowUp.mouseout"/>
                  </use>
                  <path fill="none" stroke="white" stroke-width="1.5" d="M0,-3.0v7 M-2.5,-0.5L0,-3.0L2.5,-0.5"/>
                </g>
                <g id="arrowRight" xlink:href="#dirArrow" transform="rotate(90) translate(36 -43)" onmousedown="handlePan(1,0)">
                  <use xlink:href="#rim" fill="#404040">
                        <set attributeName="fill" to="#808080" begin="arrowRight.mouseover" end="arrowRight.mouseout"/>
                  </use>
                  <path fill="none" stroke="white" stroke-width="1.5" d="M0,-3.0v7 M-2.5,-0.5L0,-3.0L2.5,-0.5"/>
                </g>
                <g id="arrowDown" xlink:href="#dirArrow" transform="rotate(180) translate(-30 -48)" onmousedown="handlePan(0,1)">
                  <use xlink:href="#rim" fill="#404040">
                        <set attributeName="fill" to="#808080" begin="arrowDown.mouseover" end="arrowDown.mouseout"/>
                  </use>
                  <path fill="none" stroke="white" stroke-width="1.5" d="M0,-3.0v7 M-2.5,-0.5L0,-3.0L2.5,-0.5"/>
                </g>
                <g id="arrowLeft" xlink:href="#dirArrow" transform="rotate(270) translate(-36 17)" onmousedown="handlePan(-1,0)">
                  <use xlink:href="#rim" fill="#404040">
                        <set attributeName="fill" to="#808080" begin="arrowLeft.mouseover" end="arrowLeft.mouseout"/>
                  </use>
                  <path fill="none" stroke="white" stroke-width="1.5" d="M0,-3.0v7 M-2.5,-0.5L0,-3.0L2.5,-0.5"/>
                </g>
        </g>
        <svg viewBox="0 0 15 15" width="100%" height="30px" preserveAspectRatio="xMaxYMin meet">
         <g id="arrow_out" transform="scale(0.3 0.3)">
          <a xlink:href="classpolyfem_1_1assembler_1_1_assembler_utils_abcfa6090f0372684251202ca9b01383f_icgraph_org.svg" target="_base">
           <rect id="button" ry="5" rx="5" y="6" x="6" height="38" width="38"
                fill="#f2f5e9" fill-opacity="0.5" stroke="#606060" stroke-width="1.0"/>
           <path id="arrow"
             d="M 11.500037,31.436501 C 11.940474,20.09759 22.043105,11.32322 32.158766,21.979434 L 37.068811,17.246167 C 37.068811,17.246167 37.088388,32 37.088388,32 L 22.160133,31.978069 C 22.160133,31.978069 26.997745,27.140456 26.997745,27.140456 C 18.528582,18.264221 13.291696,25.230495 11.500037,31.436501 z"
             style="fill:#404040;"/>
          </a>
         </g>
        </svg>
</svg>
