<?xml version="1.0" encoding="UTF-8" standalone="no"?>
<!DOCTYPE svg PUBLIC "-//W3C//DTD SVG 1.1//EN"
 "http://www.w3.org/Graphics/SVG/1.1/DTD/svg11.dtd">
<!-- Generated by graphviz version 2.43.0 (0)
 -->
<!-- Title: polyfem::State::geom_bases Pages: 1 -->
<!--zoomable 541 -->
<svg id="main" version="1.1" xmlns="http://www.w3.org/2000/svg" xmlns:xlink="http://www.w3.org/1999/xlink" xml:space="preserve" onload="init(evt)">
<style type="text/css"><![CDATA[
.edge:hover path { stroke: red; }
.edge:hover polygon { stroke: red; fill: red; }
]]></style>
<script type="text/javascript"><![CDATA[
var edges = document.getElementsByTagName('g');
if (edges && edges.length) {
  for (var i=0;i<edges.length;i++) {
    if (edges[i].id.substr(0,4)=='edge') {
      edges[i].setAttribute('class','edge');
    }
  }
}
]]></script>
        <defs>
                <circle id="rim" cx="0" cy="0" r="7"/>
                <circle id="rim2" cx="0" cy="0" r="3.5"/>
                <g id="zoomPlus">
                        <use xlink:href="#rim" fill="#404040">
                                <set attributeName="fill" to="#808080" begin="zoomplus.mouseover" end="zoomplus.mouseout"/>
                        </use>
                        <path d="M-4,0h8M0,-4v8" fill="none" stroke="white" stroke-width="1.5" pointer-events="none"/>
                </g>
                <g id="zoomMin">
                        <use xlink:href="#rim" fill="#404040">
                                <set attributeName="fill" to="#808080" begin="zoomminus.mouseover" end="zoomminus.mouseout"/>
                        </use>
                        <path d="M-4,0h8" fill="none" stroke="white" stroke-width="1.5" pointer-events="none"/>
                </g>
                <g id="dirArrow">
                        <path fill="none" stroke="white" stroke-width="1.5" d="M0,-3.0v7 M-2.5,-0.5L0,-3.0L2.5,-0.5"/>
                </g>
               <g id="resetDef">
                       <use xlink:href="#rim2" fill="#404040">
                               <set attributeName="fill" to="#808080" begin="reset.mouseover" end="reset.mouseout"/>
                       </use>
               </g>
        </defs>

<script type="text/javascript">
var viewWidth = 1387;
var viewHeight = 541;
var sectionId = 'dynsection-24';
</script>
<script xlink:href="svgpan.js"/>
<svg id="graph" class="graph">
<g id="viewport">
<title>polyfem::State::geom_bases</title>
<!-- Node1 -->
<g id="node1" class="node">
<title>Node1</title>
<g id="a_node1"><a xlink:title="Get a constant reference to the geometry mapping bases.">
<polygon fill="#999999" stroke="#666666" points="1379,-264 1257,-264 1257,-234 1379,-234 1379,-264"/>
<text text-anchor="start" x="1265" y="-252" font-family="Helvetica,sans-Serif" font-size="10.00">polyfem::State::geom</text>
<text text-anchor="middle" x="1318" y="-241" font-family="Helvetica,sans-Serif" font-size="10.00">_bases</text>
</a>
</g>
</g>
<!-- Node2 -->
<g id="node2" class="node">
<title>Node2</title>
<g id="a_node2"><a xlink:href="classpolyfem_1_1_state.html#acde0d85c7ad662775d7d9b89b3248462" target="_top" xlink:title="assemble matrices, step 4 of solve">
<polygon fill="white" stroke="#666666" points="304.5,-206 162.5,-206 162.5,-176 304.5,-176 304.5,-206"/>
<text text-anchor="start" x="170.5" y="-194" font-family="Helvetica,sans-Serif" font-size="10.00">polyfem::State::assemble</text>
<text text-anchor="middle" x="233.5" y="-183" font-family="Helvetica,sans-Serif" font-size="10.00">_stiffness_mat</text>
</a>
</g>
</g>
<!-- Node1&#45;&gt;Node2 -->
<g id="edge1" class="edge">
<title>Node1&#45;&gt;Node2</title>
<path fill="none" stroke="#63b8ff" d="M1301.75,-225.32C1285.13,-201.91 1256.14,-167.56 1221,-153 1161.87,-128.51 1141,-152.3 1077,-153 752.05,-156.56 669.06,-133.86 346,-169 331.29,-170.6 315.63,-173.15 300.83,-175.96"/>
<polygon fill="#63b8ff" stroke="#63b8ff" points="1298.96,-227.43 1307.51,-233.69 1304.73,-223.46 1298.96,-227.43"/>
</g>
<!-- Node5 -->
<g id="node5" class="node">
<title>Node5</title>
<g id="a_node5"><a xlink:href="classpolyfem_1_1_state.html#a75cfcf28f3bc27e8e30b41c7347c799b" target="_top" xlink:title="builds the bases step 2 of solve">
<polygon fill="white" stroke="#666666" points="293,-337 174,-337 174,-307 293,-307 293,-337"/>
<text text-anchor="start" x="182" y="-325" font-family="Helvetica,sans-Serif" font-size="10.00">polyfem::State::build</text>
<text text-anchor="middle" x="233.5" y="-314" font-family="Helvetica,sans-Serif" font-size="10.00">_basis</text>
</a>
</g>
</g>
<!-- Node1&#45;&gt;Node5 -->
<g id="edge4" class="edge">
<title>Node1&#45;&gt;Node5</title>
<path fill="none" stroke="#63b8ff" d="M1314.19,-274.27C1307.46,-322.02 1285.81,-425.35 1221,-477 1132.43,-547.59 1083.26,-521 970,-521 970,-521 970,-521 612.5,-521 493.62,-521 447.59,-559.74 346,-498 283.56,-460.05 250.24,-372.41 238.96,-337.12"/>
<polygon fill="#63b8ff" stroke="#63b8ff" points="1317.69,-274.54 1315.51,-264.17 1310.75,-273.63 1317.69,-274.54"/>
</g>
<!-- Node6 -->
<g id="node6" class="node">
<title>Node6</title>
<g id="a_node6"><a xlink:href="classpolyfem_1_1_state.html#a6d09b9e452febd41a983730e0e353da9" target="_top" xlink:title="build a RhsAssembler for the problem">
<polygon fill="white" stroke="#666666" points="1208.5,-30 1089.5,-30 1089.5,0 1208.5,0 1208.5,-30"/>
<text text-anchor="start" x="1097.5" y="-18" font-family="Helvetica,sans-Serif" font-size="10.00">polyfem::State::build</text>
<text text-anchor="middle" x="1149" y="-7" font-family="Helvetica,sans-Serif" font-size="10.00">_rhs_assembler</text>
</a>
</g>
</g>
<!-- Node1&#45;&gt;Node6 -->
<g id="edge7" class="edge">
<title>Node1&#45;&gt;Node6</title>
<path fill="none" stroke="#63b8ff" d="M1311.62,-224.11C1301.23,-181.66 1274.56,-94.93 1221,-44 1215.11,-38.4 1208,-33.83 1200.58,-30.1"/>
<polygon fill="#63b8ff" stroke="#63b8ff" points="1308.23,-224.96 1313.92,-233.9 1315.04,-223.36 1308.23,-224.96"/>
</g>
<!-- Node7 -->
<g id="node7" class="node">
<title>Node7</title>
<g id="a_node7"><a xlink:href="classpolyfem_1_1_state.html#a2351c47a48235103aca219b6363b6353" target="_top" xlink:title="computes all errors">
<polygon fill="white" stroke="#666666" points="1037.5,-66 900.5,-66 900.5,-36 1037.5,-36 1037.5,-66"/>
<text text-anchor="start" x="908.5" y="-54" font-family="Helvetica,sans-Serif" font-size="10.00">polyfem::State::compute</text>
<text text-anchor="middle" x="969" y="-43" font-family="Helvetica,sans-Serif" font-size="10.00">_errors</text>
</a>
</g>
</g>
<!-- Node1&#45;&gt;Node7 -->
<g id="edge8" class="edge">
<title>Node1&#45;&gt;Node7</title>
<path fill="none" stroke="#63b8ff" d="M1310.44,-224.15C1299.08,-186.49 1271.94,-115.81 1221,-82 1166.95,-46.12 1091.68,-41.33 1037.69,-43.7"/>
<polygon fill="#63b8ff" stroke="#63b8ff" points="1307.1,-225.19 1313.23,-233.83 1313.82,-223.25 1307.1,-225.19"/>
</g>
<!-- Node8 -->
<g id="node8" class="node">
<title>Node8</title>
<g id="a_node8"><a xlink:href="classpolyfem_1_1io_1_1_out_geometry_data.html#a9826defd7d8f3c4c12df2ba9c4c45320" target="_top" xlink:title="exports everytihng, txt, vtu, etc">
<polygon fill="white" stroke="#666666" points="861,-106 717,-106 717,-76 861,-76 861,-106"/>
<text text-anchor="start" x="725" y="-94" font-family="Helvetica,sans-Serif" font-size="10.00">polyfem::io::OutGeometry</text>
<text text-anchor="middle" x="789" y="-83" font-family="Helvetica,sans-Serif" font-size="10.00">Data::export_data</text>
</a>
</g>
</g>
<!-- Node1&#45;&gt;Node8 -->
<g id="edge10" class="edge">
<title>Node1&#45;&gt;Node8</title>
<path fill="none" stroke="#63b8ff" d="M1306.7,-224.53C1292.42,-194.05 1263.47,-143.15 1221,-120 1160.91,-87.24 967.46,-86.45 861.32,-88.7"/>
<polygon fill="#63b8ff" stroke="#63b8ff" points="1303.52,-225.98 1310.82,-233.65 1309.9,-223.1 1303.52,-225.98"/>
</g>
<!-- Node10 -->
<g id="node10" class="node">
<title>Node10</title>
<g id="a_node10"><a xlink:href="classpolyfem_1_1_state.html#ae0c43d17c7df4b804bd5900044a1c8d7" target="_top" xlink:title="initialize the nonlinear solver">
<polygon fill="white" stroke="#666666" points="681,-270 546,-270 546,-240 681,-240 681,-270"/>
<text text-anchor="start" x="554" y="-258" font-family="Helvetica,sans-Serif" font-size="10.00">polyfem::State::init</text>
<text text-anchor="middle" x="613.5" y="-247" font-family="Helvetica,sans-Serif" font-size="10.00">_nonlinear_tensor_solve</text>
</a>
</g>
</g>
<!-- Node1&#45;&gt;Node10 -->
<g id="edge13" class="edge">
<title>Node1&#45;&gt;Node10</title>
<path fill="none" stroke="#63b8ff" d="M1285.57,-269.38C1267.48,-279.89 1243.86,-291.6 1221,-297 1023.26,-343.68 779.97,-296.41 671.44,-270.09"/>
<polygon fill="#63b8ff" stroke="#63b8ff" points="1287.71,-272.18 1294.49,-264.04 1284.11,-266.17 1287.71,-272.18"/>
</g>
<!-- Node13 -->
<g id="node13" class="node">
<title>Node13</title>
<g id="a_node13"><a xlink:href="classpolyfem_1_1io_1_1_out_geometry_data.html#a3ced1e4da4617f574fe2f30b4d2eca84" target="_top" xlink:title="saves the surface vtu file for for surface quantites, eg traction forces">
<polygon fill="white" stroke="#666666" points="1221,-192 1077,-192 1077,-162 1221,-162 1221,-192"/>
<text text-anchor="start" x="1085" y="-180" font-family="Helvetica,sans-Serif" font-size="10.00">polyfem::io::OutGeometry</text>
<text text-anchor="middle" x="1149" y="-169" font-family="Helvetica,sans-Serif" font-size="10.00">Data::save_surface</text>
</a>
</g>
</g>
<!-- Node1&#45;&gt;Node13 -->
<g id="edge19" class="edge">
<title>Node1&#45;&gt;Node13</title>
<path fill="none" stroke="#63b8ff" d="M1279.99,-229C1262.38,-219.87 1240.88,-209.28 1221,-201 1213.55,-197.9 1205.55,-194.89 1197.69,-192.11"/>
<polygon fill="#63b8ff" stroke="#63b8ff" points="1278.85,-232.35 1289.33,-233.89 1282.1,-226.15 1278.85,-232.35"/>
</g>
<!-- Node20 -->
<g id="node20" class="node">
<title>Node20</title>
<g id="a_node20"><a xlink:href="classpolyfem_1_1_state.html#ac42074a324e693f8eef5d7a96a56dc38" target="_top" xlink:title="solves transient navier stokes with FEM">
<polygon fill="white" stroke="#666666" points="497,-455 359,-455 359,-425 497,-425 497,-455"/>
<text text-anchor="start" x="367" y="-443" font-family="Helvetica,sans-Serif" font-size="10.00">polyfem::State::solve</text>
<text text-anchor="middle" x="428" y="-432" font-family="Helvetica,sans-Serif" font-size="10.00">_transient_navier_stokes</text>
</a>
</g>
</g>
<!-- Node1&#45;&gt;Node20 -->
<g id="edge42" class="edge">
<title>Node1&#45;&gt;Node20</title>
<path fill="none" stroke="#63b8ff" d="M1303.7,-272.69C1287.56,-299.21 1257.9,-341.53 1221,-365 1123.76,-426.84 1085.24,-430 970,-430 970,-430 970,-430 788,-430 686.68,-430 569.34,-434.03 497.14,-436.97"/>
<polygon fill="#63b8ff" stroke="#63b8ff" points="1306.74,-274.41 1308.83,-264.02 1300.72,-270.84 1306.74,-274.41"/>
</g>
<!-- Node21 -->
<g id="node21" class="node">
<title>Node21</title>
<g id="a_node21"><a xlink:href="classpolyfem_1_1_state.html#a9fa28a682c746974ee171d8cfa6a8558" target="_top" xlink:title="solves transient navier stokes with operator splitting">
<polygon fill="white" stroke="#666666" points="510,-407 346,-407 346,-377 510,-377 510,-407"/>
<text text-anchor="start" x="354" y="-395" font-family="Helvetica,sans-Serif" font-size="10.00">polyfem::State::solve</text>
<text text-anchor="middle" x="428" y="-384" font-family="Helvetica,sans-Serif" font-size="10.00">_transient_navier_stokes_split</text>
</a>
</g>
</g>
<!-- Node1&#45;&gt;Node21 -->
<g id="edge43" class="edge">
<title>Node1&#45;&gt;Node21</title>
<path fill="none" stroke="#63b8ff" d="M1293.32,-270.79C1274.84,-286.74 1247.89,-307.82 1221,-321 1117.12,-371.94 1085.69,-390 970,-390 970,-390 970,-390 788,-390 692.64,-390 583.03,-390.71 510.27,-391.29"/>
<polygon fill="#63b8ff" stroke="#63b8ff" points="1295.74,-273.32 1300.93,-264.09 1291.11,-268.07 1295.74,-273.32"/>
</g>
<!-- Node22 -->
<g id="node22" class="node">
<title>Node22</title>
<g id="a_node22"><a xlink:href="classpolyfem_1_1io_1_1_out_geometry_data.html#a55d435400a9eb85c77e6167ce0c13756" target="_top" xlink:title="saves the volume vtu file">
<polygon fill="white" stroke="#666666" points="1221,-288 1077,-288 1077,-258 1221,-258 1221,-288"/>
<text text-anchor="start" x="1085" y="-276" font-family="Helvetica,sans-Serif" font-size="10.00">polyfem::io::OutGeometry</text>
<text text-anchor="middle" x="1149" y="-265" font-family="Helvetica,sans-Serif" font-size="10.00">Data::save_volume</text>
</a>
</g>
</g>
<!-- Node1&#45;&gt;Node22 -->
<g id="edge36" class="edge">
<title>Node1&#45;&gt;Node22</title>
<path fill="none" stroke="#63b8ff" d="M1246.8,-259.09C1238.27,-260.31 1229.55,-261.57 1221,-262.8"/>
<polygon fill="#63b8ff" stroke="#63b8ff" points="1247.31,-262.55 1256.71,-257.66 1246.31,-255.62 1247.31,-262.55"/>
</g>
<!-- Node23 -->
<g id="node23" class="node">
<title>Node23</title>
<g id="a_node23"><a xlink:href="classpolyfem_1_1io_1_1_out_geometry_data.html#a25fe9752910991469a316afa6687dcde" target="_top" xlink:title="saves the wireframe">
<polygon fill="white" stroke="#666666" points="1221,-240 1077,-240 1077,-210 1221,-210 1221,-240"/>
<text text-anchor="start" x="1085" y="-228" font-family="Helvetica,sans-Serif" font-size="10.00">polyfem::io::OutGeometry</text>
<text text-anchor="middle" x="1149" y="-217" font-family="Helvetica,sans-Serif" font-size="10.00">Data::save_wire</text>
</a>
</g>
</g>
<!-- Node1&#45;&gt;Node23 -->
<g id="edge38" class="edge">
<title>Node1&#45;&gt;Node23</title>
<path fill="none" stroke="#63b8ff" d="M1246.8,-238.91C1238.27,-237.69 1229.55,-236.43 1221,-235.2"/>
<polygon fill="#63b8ff" stroke="#63b8ff" points="1246.31,-242.38 1256.71,-240.34 1247.31,-235.45 1246.31,-242.38"/>
</g>
<!-- Node24 -->
<g id="node24" class="node">
<title>Node24</title>
<g id="a_node24"><a xlink:href="classpolyfem_1_1_state.html#a76dfcaee0e24beeab2fda9449f404fe5" target="_top" xlink:title="solves a navier stokes">
<polygon fill="white" stroke="#666666" points="1029.5,-490 908.5,-490 908.5,-460 1029.5,-460 1029.5,-490"/>
<text text-anchor="start" x="916.5" y="-478" font-family="Helvetica,sans-Serif" font-size="10.00">polyfem::State::solve</text>
<text text-anchor="middle" x="969" y="-467" font-family="Helvetica,sans-Serif" font-size="10.00">_navier_stokes</text>
</a>
</g>
</g>
<!-- Node1&#45;&gt;Node24 -->
<g id="edge40" class="edge">
<title>Node1&#45;&gt;Node24</title>
<path fill="none" stroke="#63b8ff" d="M1312.59,-273.91C1303.62,-316.52 1278.98,-402.78 1221,-444 1165.27,-483.63 1084.44,-486.51 1029.69,-482.69"/>
<polygon fill="#63b8ff" stroke="#63b8ff" points="1316.03,-274.56 1314.54,-264.07 1309.16,-273.2 1316.03,-274.56"/>
</g>
<!-- Node3 -->
<g id="node3" class="node">
<title>Node3</title>
<g id="a_node3"><a xlink:href="main_8cpp.html#a3c04138a5bfe5d72780bb7e82a18e627" target="_top" xlink:title=" ">
<polygon fill="white" stroke="#666666" points="81,-200.5 40,-200.5 40,-181.5 81,-181.5 81,-200.5"/>
<text text-anchor="middle" x="60.5" y="-188.5" font-family="Helvetica,sans-Serif" font-size="10.00">main</text>
</a>
</g>
</g>
<!-- Node2&#45;&gt;Node3 -->
<g id="edge2" class="edge">
<title>Node2&#45;&gt;Node3</title>
<path fill="none" stroke="#63b8ff" d="M152.41,-191C126.06,-191 99.03,-191 81.37,-191"/>
<polygon fill="#63b8ff" stroke="#63b8ff" points="152.45,-194.5 162.45,-191 152.45,-187.5 152.45,-194.5"/>
</g>
<!-- Node4 -->
<g id="node4" class="node">
<title>Node4</title>
<g id="a_node4"><a xlink:href="classpolyfem_1_1_state.html#a219f9935d918f739d82488449bd4cbf4" target="_top" xlink:title="solves the problem, call other methods">
<polygon fill="white" stroke="#666666" points="121,-283.5 0,-283.5 0,-264.5 121,-264.5 121,-283.5"/>
<text text-anchor="middle" x="60.5" y="-271.5" font-family="Helvetica,sans-Serif" font-size="10.00">polyfem::State::solve</text>
</a>
</g>
</g>
<!-- Node2&#45;&gt;Node4 -->
<g id="edge3" class="edge">
<title>Node2&#45;&gt;Node4</title>
<path fill="none" stroke="#63b8ff" d="M192.12,-210.6C157.33,-227.48 108.58,-251.15 81.54,-264.27"/>
<polygon fill="#63b8ff" stroke="#63b8ff" points="194.07,-213.55 201.53,-206.03 191.01,-207.25 194.07,-213.55"/>
</g>
<!-- Node5&#45;&gt;Node3 -->
<g id="edge5" class="edge">
<title>Node5&#45;&gt;Node3</title>
<path fill="none" stroke="#63b8ff" d="M164.54,-302.54C161.93,-301.13 159.41,-299.62 157,-298 136.3,-284.12 137.49,-273.69 121,-255 103.74,-235.43 82.81,-213.27 70.94,-200.83"/>
<polygon fill="#63b8ff" stroke="#63b8ff" points="163.13,-305.75 173.65,-306.99 166.2,-299.46 163.13,-305.75"/>
</g>
<!-- Node5&#45;&gt;Node4 -->
<g id="edge6" class="edge">
<title>Node5&#45;&gt;Node4</title>
<path fill="none" stroke="#63b8ff" d="M169.11,-304.21C144.19,-297.21 116.58,-289.46 95.57,-283.56"/>
<polygon fill="#63b8ff" stroke="#63b8ff" points="168.29,-307.61 178.86,-306.94 170.18,-300.87 168.29,-307.61"/>
</g>
<!-- Node7&#45;&gt;Node3 -->
<g id="edge9" class="edge">
<title>Node7&#45;&gt;Node3</title>
<path fill="none" stroke="#63b8ff" d="M889.94,-49.96C818.31,-49.09 709.26,-48 614.5,-48 614.5,-48 614.5,-48 427,-48 305.56,-48 264.5,-33.51 157,-90 114.7,-112.23 80.71,-160.49 67.47,-181.22"/>
<polygon fill="#63b8ff" stroke="#63b8ff" points="890.19,-53.46 900.23,-50.08 890.28,-46.46 890.19,-53.46"/>
</g>
<!-- Node9 -->
<g id="node9" class="node">
<title>Node9</title>
<g id="a_node9"><a xlink:href="classpolyfem_1_1_state.html#acc61dcd623eec2308480c5c082da3d9e" target="_top" xlink:title="saves all data on the disk according to the input params">
<polygon fill="white" stroke="#666666" points="310,-118.5 157,-118.5 157,-99.5 310,-99.5 310,-118.5"/>
<text text-anchor="middle" x="233.5" y="-106.5" font-family="Helvetica,sans-Serif" font-size="10.00">polyfem::State::export_data</text>
</a>
</g>
</g>
<!-- Node8&#45;&gt;Node9 -->
<g id="edge11" class="edge">
<title>Node8&#45;&gt;Node9</title>
<path fill="none" stroke="#63b8ff" d="M706.7,-93.64C600.03,-97.11 414.21,-103.16 310.33,-106.53"/>
<polygon fill="#63b8ff" stroke="#63b8ff" points="706.89,-97.14 716.77,-93.32 706.66,-90.14 706.89,-97.14"/>
</g>
<!-- Node9&#45;&gt;Node3 -->
<g id="edge12" class="edge">
<title>Node9&#45;&gt;Node3</title>
<path fill="none" stroke="#63b8ff" d="M203.35,-122.98C168.47,-139.71 111.02,-167.25 81.06,-181.62"/>
<polygon fill="#63b8ff" stroke="#63b8ff" points="205.05,-126.05 212.55,-118.57 202.02,-119.73 205.05,-126.05"/>
</g>
<!-- Node11 -->
<g id="node11" class="node">
<title>Node11</title>
<g id="a_node11"><a xlink:href="classpolyfem_1_1_state.html#a7450ef7c42dd9c523e1be73a5819117d" target="_top" xlink:title="solves the problems">
<polygon fill="white" stroke="#666666" points="294,-289 173,-289 173,-259 294,-259 294,-289"/>
<text text-anchor="start" x="181" y="-277" font-family="Helvetica,sans-Serif" font-size="10.00">polyfem::State::solve</text>
<text text-anchor="middle" x="233.5" y="-266" font-family="Helvetica,sans-Serif" font-size="10.00">_problem</text>
</a>
</g>
</g>
<!-- Node10&#45;&gt;Node11 -->
<g id="edge14" class="edge">
<title>Node10&#45;&gt;Node11</title>
<path fill="none" stroke="#63b8ff" d="M535.5,-258.87C464.06,-262.46 359.23,-267.73 294.01,-271.01"/>
<polygon fill="#63b8ff" stroke="#63b8ff" points="535.98,-262.35 545.79,-258.35 535.63,-255.36 535.98,-262.35"/>
</g>
<!-- Node12 -->
<g id="node12" class="node">
<title>Node12</title>
<g id="a_node12"><a xlink:href="classpolyfem_1_1_state.html#a4d91e8c971fc121b0cff2f0c02ca79e7" target="_top" xlink:title="solves transient tensor nonlinear problem">
<polygon fill="white" stroke="#666666" points="504,-225 352,-225 352,-195 504,-195 504,-225"/>
<text text-anchor="start" x="360" y="-213" font-family="Helvetica,sans-Serif" font-size="10.00">polyfem::State::solve</text>
<text text-anchor="middle" x="428" y="-202" font-family="Helvetica,sans-Serif" font-size="10.00">_transient_tensor_nonlinear</text>
</a>
</g>
</g>
<!-- Node10&#45;&gt;Node12 -->
<g id="edge17" class="edge">
<title>Node10&#45;&gt;Node12</title>
<path fill="none" stroke="#63b8ff" d="M541.35,-237.55C524.5,-233.42 506.67,-229.05 490.3,-225.03"/>
<polygon fill="#63b8ff" stroke="#63b8ff" points="540.6,-240.97 551.14,-239.95 542.26,-234.17 540.6,-240.97"/>
</g>
<!-- Node11&#45;&gt;Node3 -->
<g id="edge15" class="edge">
<title>Node11&#45;&gt;Node3</title>
<path fill="none" stroke="#63b8ff" d="M192.51,-254.59C157.49,-237.59 108.09,-213.61 81.06,-200.49"/>
<polygon fill="#63b8ff" stroke="#63b8ff" points="191.01,-257.75 201.53,-258.97 194.07,-251.45 191.01,-257.75"/>
</g>
<!-- Node11&#45;&gt;Node4 -->
<g id="edge16" class="edge">
<title>Node11&#45;&gt;Node4</title>
<path fill="none" stroke="#63b8ff" d="M162.39,-274C148.74,-274 134.55,-274 121.27,-274"/>
<polygon fill="#63b8ff" stroke="#63b8ff" points="162.69,-277.5 172.69,-274 162.69,-270.5 162.69,-277.5"/>
</g>
<!-- Node12&#45;&gt;Node11 -->
<g id="edge18" class="edge">
<title>Node12&#45;&gt;Node11</title>
<path fill="none" stroke="#63b8ff" d="M372.2,-228.22C342.94,-237.95 307.35,-249.78 279.68,-258.98"/>
<polygon fill="#63b8ff" stroke="#63b8ff" points="373.48,-231.48 381.87,-225.01 371.27,-224.84 373.48,-231.48"/>
</g>
<!-- Node14 -->
<g id="node14" class="node">
<title>Node14</title>
<g id="a_node14"><a xlink:href="classpolyfem_1_1io_1_1_out_geometry_data.html#aa3fbccda3a6e6f7fd5a7b3bcbd146793" target="_top" xlink:title="saves the vtu file for time t">
<polygon fill="white" stroke="#666666" points="1041,-236 897,-236 897,-206 1041,-206 1041,-236"/>
<text text-anchor="start" x="905" y="-224" font-family="Helvetica,sans-Serif" font-size="10.00">polyfem::io::OutGeometry</text>
<text text-anchor="middle" x="969" y="-213" font-family="Helvetica,sans-Serif" font-size="10.00">Data::save_vtu</text>
</a>
</g>
</g>
<!-- Node13&#45;&gt;Node14 -->
<g id="edge20" class="edge">
<title>Node13&#45;&gt;Node14</title>
<path fill="none" stroke="#63b8ff" d="M1077.26,-194.49C1061.88,-198.29 1045.74,-202.28 1030.79,-205.97"/>
<polygon fill="#63b8ff" stroke="#63b8ff" points="1078.37,-197.82 1087.24,-192.02 1076.69,-191.02 1078.37,-197.82"/>
</g>
<!-- Node14&#45;&gt;Node8 -->
<g id="edge21" class="edge">
<title>Node14&#45;&gt;Node8</title>
<path fill="none" stroke="#63b8ff" d="M939.07,-199.87C903.01,-173.54 842.31,-129.2 810.63,-106.07"/>
<polygon fill="#63b8ff" stroke="#63b8ff" points="937.09,-202.76 947.23,-205.83 941.22,-197.11 937.09,-202.76"/>
</g>
<!-- Node15 -->
<g id="node15" class="node">
<title>Node15</title>
<g id="a_node15"><a xlink:href="classpolyfem_1_1_state.html#a29b1283c20475e19b79a39cd324ac5aa" target="_top" xlink:title="saves a subsolve when save_solve_sequence_debug is true">
<polygon fill="white" stroke="#666666" points="848,-232 730,-232 730,-202 848,-202 848,-232"/>
<text text-anchor="start" x="738" y="-220" font-family="Helvetica,sans-Serif" font-size="10.00">polyfem::State::save</text>
<text text-anchor="middle" x="789" y="-209" font-family="Helvetica,sans-Serif" font-size="10.00">_subsolve</text>
</a>
</g>
</g>
<!-- Node14&#45;&gt;Node15 -->
<g id="edge22" class="edge">
<title>Node14&#45;&gt;Node15</title>
<path fill="none" stroke="#63b8ff" d="M886.56,-219.17C873.61,-218.88 860.44,-218.58 848.16,-218.31"/>
<polygon fill="#63b8ff" stroke="#63b8ff" points="886.81,-222.68 896.88,-219.4 886.96,-215.68 886.81,-222.68"/>
</g>
<!-- Node17 -->
<g id="node17" class="node">
<title>Node17</title>
<g id="a_node17"><a xlink:href="classpolyfem_1_1_state.html#a442fa686e1d08a0a104f3869a6fa2948" target="_top" xlink:title="saves a timestep">
<polygon fill="white" stroke="#666666" points="672.5,-338 554.5,-338 554.5,-308 672.5,-308 672.5,-338"/>
<text text-anchor="start" x="562.5" y="-326" font-family="Helvetica,sans-Serif" font-size="10.00">polyfem::State::save</text>
<text text-anchor="middle" x="613.5" y="-315" font-family="Helvetica,sans-Serif" font-size="10.00">_timestep</text>
</a>
</g>
</g>
<!-- Node14&#45;&gt;Node17 -->
<g id="edge26" class="edge">
<title>Node14&#45;&gt;Node17</title>
<path fill="none" stroke="#63b8ff" d="M906.12,-238.86C838.19,-258.45 730.35,-289.57 666.59,-307.97"/>
<polygon fill="#63b8ff" stroke="#63b8ff" points="907.2,-242.19 915.84,-236.05 905.26,-235.46 907.2,-242.19"/>
</g>
<!-- Node16 -->
<g id="node16" class="node">
<title>Node16</title>
<g id="a_node16"><a xlink:href="classpolyfem_1_1_state.html#a1e33ea69bab62bbb5b6f9a02cb2a2402" target="_top" xlink:title="solves nonlinear problems">
<polygon fill="white" stroke="#666666" points="674,-222 553,-222 553,-192 674,-192 674,-222"/>
<text text-anchor="start" x="561" y="-210" font-family="Helvetica,sans-Serif" font-size="10.00">polyfem::State::solve</text>
<text text-anchor="middle" x="613.5" y="-199" font-family="Helvetica,sans-Serif" font-size="10.00">_tensor_nonlinear</text>
</a>
</g>
</g>
<!-- Node15&#45;&gt;Node16 -->
<g id="edge23" class="edge">
<title>Node15&#45;&gt;Node16</title>
<path fill="none" stroke="#63b8ff" d="M719.5,-213.05C704.49,-212.19 688.71,-211.28 674.08,-210.43"/>
<polygon fill="#63b8ff" stroke="#63b8ff" points="719.56,-216.56 729.74,-213.64 719.96,-209.57 719.56,-216.56"/>
</g>
<!-- Node16&#45;&gt;Node11 -->
<g id="edge24" class="edge">
<title>Node16&#45;&gt;Node11</title>
<path fill="none" stroke="#63b8ff" d="M555.31,-189.32C500.12,-175.27 415.02,-161.66 346,-186 326.62,-192.83 326.09,-202.23 310,-215 291.1,-229.99 269.39,-246.93 254.12,-258.8"/>
<polygon fill="#63b8ff" stroke="#63b8ff" points="554.7,-192.77 565.26,-191.94 556.48,-186.01 554.7,-192.77"/>
</g>
<!-- Node16&#45;&gt;Node12 -->
<g id="edge25" class="edge">
<title>Node16&#45;&gt;Node12</title>
<path fill="none" stroke="#63b8ff" d="M542.89,-208.14C530.19,-208.35 516.88,-208.56 504.03,-208.77"/>
<polygon fill="#63b8ff" stroke="#63b8ff" points="542.98,-211.64 552.92,-207.97 542.87,-204.64 542.98,-211.64"/>
</g>
<!-- Node17&#45;&gt;Node12 -->
<g id="edge35" class="edge">
<title>Node17&#45;&gt;Node12</title>
<path fill="none" stroke="#63b8ff" d="M579.4,-302.62C543.15,-280.29 485.87,-245.02 453.47,-225.07"/>
<polygon fill="#63b8ff" stroke="#63b8ff" points="577.78,-305.73 588.13,-307.99 581.45,-299.77 577.78,-305.73"/>
</g>
<!-- Node18 -->
<g id="node18" class="node">
<title>Node18</title>
<g id="a_node18"><a xlink:href="classpolyfem_1_1_state.html#ac5c4dd2be369c759c68e0a36a45bfcc7" target="_top" xlink:title="initialize solver">
<polygon fill="white" stroke="#666666" points="483,-311 373,-311 373,-281 483,-281 483,-311"/>
<text text-anchor="start" x="381" y="-299" font-family="Helvetica,sans-Serif" font-size="10.00">polyfem::State::init</text>
<text text-anchor="middle" x="428" y="-288" font-family="Helvetica,sans-Serif" font-size="10.00">_solve</text>
</a>
</g>
</g>
<!-- Node17&#45;&gt;Node18 -->
<g id="edge27" class="edge">
<title>Node17&#45;&gt;Node18</title>
<path fill="none" stroke="#63b8ff" d="M544.38,-312.98C524.21,-310.01 502.41,-306.8 483.25,-303.98"/>
<polygon fill="#63b8ff" stroke="#63b8ff" points="544.04,-316.46 554.44,-314.46 545.06,-309.54 544.04,-316.46"/>
</g>
<!-- Node19 -->
<g id="node19" class="node">
<title>Node19</title>
<g id="a_node19"><a xlink:href="classpolyfem_1_1_state.html#af5afb70dc127d3ce190116321e83f190" target="_top" xlink:title="solves transient linear problem">
<polygon fill="white" stroke="#666666" points="488.5,-359 367.5,-359 367.5,-329 488.5,-329 488.5,-359"/>
<text text-anchor="start" x="375.5" y="-347" font-family="Helvetica,sans-Serif" font-size="10.00">polyfem::State::solve</text>
<text text-anchor="middle" x="428" y="-336" font-family="Helvetica,sans-Serif" font-size="10.00">_transient_linear</text>
</a>
</g>
</g>
<!-- Node17&#45;&gt;Node19 -->
<g id="edge29" class="edge">
<title>Node17&#45;&gt;Node19</title>
<path fill="none" stroke="#63b8ff" d="M544.42,-330.79C526.09,-332.89 506.4,-335.14 488.58,-337.18"/>
<polygon fill="#63b8ff" stroke="#63b8ff" points="544.9,-334.26 554.44,-329.64 544.11,-327.3 544.9,-334.26"/>
</g>
<!-- Node17&#45;&gt;Node20 -->
<g id="edge31" class="edge">
<title>Node17&#45;&gt;Node20</title>
<path fill="none" stroke="#63b8ff" d="M593.1,-345.69C573.96,-366.74 542.87,-397.51 510,-416 503.99,-419.38 497.46,-422.33 490.8,-424.89"/>
<polygon fill="#63b8ff" stroke="#63b8ff" points="595.79,-347.94 599.83,-338.15 590.56,-343.28 595.79,-347.94"/>
</g>
<!-- Node17&#45;&gt;Node21 -->
<g id="edge33" class="edge">
<title>Node17&#45;&gt;Node21</title>
<path fill="none" stroke="#63b8ff" d="M571.97,-342.2C553.32,-350.67 530.76,-360.4 510,-368 501.46,-371.13 492.31,-374.14 483.34,-376.93"/>
<polygon fill="#63b8ff" stroke="#63b8ff" points="573.43,-345.38 581.06,-338.03 570.51,-339.02 573.43,-345.38"/>
</g>
<!-- Node18&#45;&gt;Node11 -->
<g id="edge28" class="edge">
<title>Node18&#45;&gt;Node11</title>
<path fill="none" stroke="#63b8ff" d="M362.9,-288.67C340.77,-286.15 316.08,-283.32 294.31,-280.84"/>
<polygon fill="#63b8ff" stroke="#63b8ff" points="362.53,-292.16 372.87,-289.81 363.33,-285.2 362.53,-292.16"/>
</g>
<!-- Node19&#45;&gt;Node11 -->
<g id="edge30" class="edge">
<title>Node19&#45;&gt;Node11</title>
<path fill="none" stroke="#63b8ff" d="M359.61,-325.51C354.95,-323.79 350.38,-321.95 346,-320 328.87,-312.38 327.06,-305.79 310,-298 302.87,-294.74 295.17,-291.75 287.51,-289.06"/>
<polygon fill="#63b8ff" stroke="#63b8ff" points="358.65,-328.89 369.24,-328.91 360.97,-322.28 358.65,-328.89"/>
</g>
<!-- Node20&#45;&gt;Node11 -->
<g id="edge32" class="edge">
<title>Node20&#45;&gt;Node11</title>
<path fill="none" stroke="#63b8ff" d="M350.05,-419.64C348.64,-418.49 347.29,-417.28 346,-416 307.07,-377.39 348.54,-337 310,-298 305.46,-293.4 300.04,-289.68 294.21,-286.68"/>
<polygon fill="#63b8ff" stroke="#63b8ff" points="348.43,-422.77 358.66,-425.53 352.39,-416.99 348.43,-422.77"/>
</g>
<!-- Node21&#45;&gt;Node11 -->
<g id="edge34" class="edge">
<title>Node21&#45;&gt;Node11</title>
<path fill="none" stroke="#63b8ff" d="M350.89,-371.69C349.2,-370.53 347.57,-369.3 346,-368 319.06,-345.68 336.72,-320.59 310,-298 305.27,-294 299.88,-290.67 294.19,-287.89"/>
<polygon fill="#63b8ff" stroke="#63b8ff" points="349.38,-374.86 359.76,-376.96 352.95,-368.84 349.38,-374.86"/>
</g>
<!-- Node22&#45;&gt;Node14 -->
<g id="edge37" class="edge">
<title>Node22&#45;&gt;Node14</title>
<path fill="none" stroke="#63b8ff" d="M1086.9,-255.15C1065.56,-248.92 1041.84,-241.99 1021.37,-236.01"/>
<polygon fill="#63b8ff" stroke="#63b8ff" points="1085.93,-258.51 1096.52,-257.96 1087.9,-251.8 1085.93,-258.51"/>
</g>
<!-- Node23&#45;&gt;Node14 -->
<g id="edge39" class="edge">
<title>Node23&#45;&gt;Node14</title>
<path fill="none" stroke="#63b8ff" d="M1066.83,-223.18C1058.21,-222.98 1049.49,-222.79 1041,-222.6"/>
<polygon fill="#63b8ff" stroke="#63b8ff" points="1066.81,-226.68 1076.88,-223.4 1066.96,-219.68 1066.81,-226.68"/>
</g>
<!-- Node24&#45;&gt;Node11 -->
<g id="edge41" class="edge">
<title>Node24&#45;&gt;Node11</title>
<path fill="none" stroke="#63b8ff" d="M898.34,-484.14C753.91,-501.48 428.43,-531.68 346,-464 287.65,-416.09 360.81,-353.84 310,-298 305.56,-293.12 300.13,-289.22 294.23,-286.11"/>
<polygon fill="#63b8ff" stroke="#63b8ff" points="898.91,-487.6 908.42,-482.91 898.07,-480.65 898.91,-487.6"/>
</g>
</g>
</svg>
        <g id="navigator" transform="translate(0 0)" fill="#404254">
                <rect fill="#f2f5e9" fill-opacity="0.5" stroke="#606060" stroke-width=".5" x="0" y="0" width="60" height="60"/>
                <use id="zoomplus" xlink:href="#zoomPlus" x="17" y="9" onmousedown="handleZoom(evt,'in')"/>
                <use id="zoomminus" xlink:href="#zoomMin" x="42" y="9" onmousedown="handleZoom(evt,'out')"/>
                <use id="reset" xlink:href="#resetDef" x="30" y="36" onmousedown="handleReset()"/>
                <g id="arrowUp" xlink:href="#dirArrow" transform="translate(30 24)" onmousedown="handlePan(0,-1)">
                  <use xlink:href="#rim" fill="#404040">
                        <set attributeName="fill" to="#808080" begin="arrowUp.mouseover" end="arrowUp.mouseout"/>
                  </use>
                  <path fill="none" stroke="white" stroke-width="1.5" d="M0,-3.0v7 M-2.5,-0.5L0,-3.0L2.5,-0.5"/>
                </g>
                <g id="arrowRight" xlink:href="#dirArrow" transform="rotate(90) translate(36 -43)" onmousedown="handlePan(1,0)">
                  <use xlink:href="#rim" fill="#404040">
                        <set attributeName="fill" to="#808080" begin="arrowRight.mouseover" end="arrowRight.mouseout"/>
                  </use>
                  <path fill="none" stroke="white" stroke-width="1.5" d="M0,-3.0v7 M-2.5,-0.5L0,-3.0L2.5,-0.5"/>
                </g>
                <g id="arrowDown" xlink:href="#dirArrow" transform="rotate(180) translate(-30 -48)" onmousedown="handlePan(0,1)">
                  <use xlink:href="#rim" fill="#404040">
                        <set attributeName="fill" to="#808080" begin="arrowDown.mouseover" end="arrowDown.mouseout"/>
                  </use>
                  <path fill="none" stroke="white" stroke-width="1.5" d="M0,-3.0v7 M-2.5,-0.5L0,-3.0L2.5,-0.5"/>
                </g>
                <g id="arrowLeft" xlink:href="#dirArrow" transform="rotate(270) translate(-36 17)" onmousedown="handlePan(-1,0)">
                  <use xlink:href="#rim" fill="#404040">
                        <set attributeName="fill" to="#808080" begin="arrowLeft.mouseover" end="arrowLeft.mouseout"/>
                  </use>
                  <path fill="none" stroke="white" stroke-width="1.5" d="M0,-3.0v7 M-2.5,-0.5L0,-3.0L2.5,-0.5"/>
                </g>
        </g>
        <svg viewBox="0 0 15 15" width="100%" height="30px" preserveAspectRatio="xMaxYMin meet">
         <g id="arrow_out" transform="scale(0.3 0.3)">
          <a xlink:href="classpolyfem_1_1_state_a106191fffa5a7be86713ae76fb6d5053_icgraph_org.svg" target="_base">
           <rect id="button" ry="5" rx="5" y="6" x="6" height="38" width="38"
                fill="#f2f5e9" fill-opacity="0.5" stroke="#606060" stroke-width="1.0"/>
           <path id="arrow"
             d="M 11.500037,31.436501 C 11.940474,20.09759 22.043105,11.32322 32.158766,21.979434 L 37.068811,17.246167 C 37.068811,17.246167 37.088388,32 37.088388,32 L 22.160133,31.978069 C 22.160133,31.978069 26.997745,27.140456 26.997745,27.140456 C 18.528582,18.264221 13.291696,25.230495 11.500037,31.436501 z"
             style="fill:#404040;"/>
          </a>
         </g>
        </svg>
</svg>
