<?xml version="1.0" encoding="UTF-8" standalone="no"?>
<!DOCTYPE svg PUBLIC "-//W3C//DTD SVG 1.1//EN"
 "http://www.w3.org/Graphics/SVG/1.1/DTD/svg11.dtd">
<!-- Generated by graphviz version 2.43.0 (0)
 -->
<!-- Title: polyfem::solver::VariableToSimulationGroup::apply_parametrization_jacobian Pages: 1 -->
<!--zoomable 574 -->

<svg id="main" version="1.1" xmlns="http://www.w3.org/2000/svg" xmlns:xlink="http://www.w3.org/1999/xlink" xml:space="preserve" onload="init(evt)">
<style type="text/css"><![CDATA[
.node, .edge {opacity: 0.7;}
.node.selected, .edge.selected {opacity: 1;}
.edge:hover path { stroke: red; }
.edge:hover polygon { stroke: red; fill: red; }
]]></style>

<defs>
  <circle id="rim" cx="0" cy="0" r="7"/>
  <circle id="rim2" cx="0" cy="0" r="3.5"/>
  <g id="zoomPlus">
    <use xlink:href="#rim" fill="#404040"><set attributeName="fill" to="#808080" begin="zoomplus.mouseover" end="zoomplus.mouseout"/></use>
    <path d="M-4,0h8M0,-4v8" fill="none" stroke="white" stroke-width="1.5" pointer-events="none"/>
  </g>
  <g id="zoomMin">
    <use xlink:href="#rim" fill="#404040"><set attributeName="fill" to="#808080" begin="zoomminus.mouseover" end="zoomminus.mouseout"/></use>
    <path d="M-4,0h8" fill="none" stroke="white" stroke-width="1.5" pointer-events="none"/>
  </g>
  <g id="arrowUp" transform="translate(30 24)">
    <use xlink:href="#rim"/>
    <path pointer-events="none" fill="none" stroke="white" stroke-width="1.5" d="M0,-3.0v7 M-2.5,-0.5L0,-3.0L2.5,-0.5"/>
  </g>
  <g id="arrowRight" transform="rotate(90) translate(36 -43)">
    <use xlink:href="#rim"/>
    <path pointer-events="none" fill="none" stroke="white" stroke-width="1.5" d="M0,-3.0v7 M-2.5,-0.5L0,-3.0L2.5,-0.5"/>
  </g>
  <g id="arrowDown" transform="rotate(180) translate(-30 -48)">
    <use xlink:href="#rim"/>
    <path pointer-events="none" fill="none" stroke="white" stroke-width="1.5" d="M0,-3.0v7 M-2.5,-0.5L0,-3.0L2.5,-0.5"/>
  </g>
  <g id="arrowLeft" transform="rotate(270) translate(-36 17)">
    <use xlink:href="#rim"/>
    <path pointer-events="none" fill="none" stroke="white" stroke-width="1.5" d="M0,-3.0v7 M-2.5,-0.5L0,-3.0L2.5,-0.5"/>
  </g>
  <g id="resetDef">
    <use xlink:href="#rim2" fill="#404040"><set attributeName="fill" to="#808080" begin="reset.mouseover" end="reset.mouseout"/></use>
  </g>
</defs>
<script type="application/ecmascript">
var viewWidth = 624;
var viewHeight = 574;
var sectionId = 'dynsection-0';
</script>
<script type="application/ecmascript" xlink:href="svg.min.js"/>
<svg id="graph" class="graph">
<g id="viewport">
<title>polyfem::solver::VariableToSimulationGroup::apply_parametrization_jacobian</title>
<!-- Node1 -->
<g id="Node000001" class="node">
<title>Node1</title>
<g id="a_Node000001"><a xlink:title="Maps the partial gradient wrt.">
<polygon fill="#999999" stroke="#666666" points="616,-287.5 470,-287.5 470,-246.5 616,-246.5 616,-287.5"/>
<text text-anchor="start" x="478" y="-275.5" font-family="Helvetica,sans-Serif" font-size="10.00">polyfem::solver::Variable</text>
<text text-anchor="start" x="478" y="-264.5" font-family="Helvetica,sans-Serif" font-size="10.00">ToSimulationGroup::apply</text>
<text text-anchor="middle" x="543" y="-253.5" font-family="Helvetica,sans-Serif" font-size="10.00">_parametrization_jacobian</text>
</a>
</g>
</g>
<!-- Node2 -->
<g id="Node000002" class="node">
<title>Node2</title>
<g id="a_Node000002"><a xlink:href="classpolyfem_1_1solver_1_1_a_m_i_p_s_form.html#a653eca873137c884a22e958824816f8d" target="_top" xlink:title=" ">
<polygon fill="white" stroke="#666666" points="412,-566 257,-566 257,-536 412,-536 412,-566"/>
<text text-anchor="start" x="265" y="-554" font-family="Helvetica,sans-Serif" font-size="10.00">polyfem::solver::AMIPSForm</text>
<text text-anchor="middle" x="334.5" y="-543" font-family="Helvetica,sans-Serif" font-size="10.00">::compute_partial_gradient</text>
</a>
</g>
</g>
<!-- Node1&#45;&gt;Node2 -->
<g id="edge1_Node000001_Node000002" class="edge">
<title>Node1&#45;&gt;Node2</title>
<g id="a_edge1_Node000001_Node000002"><a xlink:title=" ">
<path fill="none" stroke="#63b8ff" d="M538.27,-297.62C529.95,-352.26 504.66,-466.5 434,-527 427.58,-532.49 420.11,-536.77 412.2,-540.1"/>
<polygon fill="#63b8ff" stroke="#63b8ff" points="541.77,-297.92 539.72,-287.52 534.84,-296.92 541.77,-297.92"/>
</a>
</g>
</g>
<!-- Node3 -->
<g id="Node000003" class="node">
<title>Node3</title>
<g id="a_Node000003"><a xlink:href="classpolyfem_1_1solver_1_1_collision_barrier_form.html#ab521276c4d393e1845125386d3f4e26c" target="_top" xlink:title=" ">
<polygon fill="white" stroke="#666666" points="414.5,-517.5 254.5,-517.5 254.5,-476.5 414.5,-476.5 414.5,-517.5"/>
<text text-anchor="start" x="262.5" y="-505.5" font-family="Helvetica,sans-Serif" font-size="10.00">polyfem::solver::Collision</text>
<text text-anchor="start" x="262.5" y="-494.5" font-family="Helvetica,sans-Serif" font-size="10.00">BarrierForm::compute_partial</text>
<text text-anchor="middle" x="334.5" y="-483.5" font-family="Helvetica,sans-Serif" font-size="10.00">_gradient</text>
</a>
</g>
</g>
<!-- Node1&#45;&gt;Node3 -->
<g id="edge2_Node000001_Node000003" class="edge">
<title>Node1&#45;&gt;Node3</title>
<g id="a_edge2_Node000001_Node000003"><a xlink:title=" ">
<path fill="none" stroke="#63b8ff" d="M533.85,-297.35C520.44,-341.46 489.52,-422.92 434,-468 428.19,-472.72 421.63,-476.67 414.73,-479.98"/>
<polygon fill="#63b8ff" stroke="#63b8ff" points="537.28,-298.08 536.74,-287.5 530.57,-296.11 537.28,-298.08"/>
</a>
</g>
</g>
<!-- Node4 -->
<g id="Node000004" class="node">
<title>Node4</title>
<g id="a_Node000004"><a xlink:href="classpolyfem_1_1solver_1_1_deformed_collision_barrier_form.html#a0ce9d1e6eae4588df5c7748d8e930909" target="_top" xlink:title=" ">
<polygon fill="white" stroke="#666666" points="417,-458.5 252,-458.5 252,-417.5 417,-417.5 417,-458.5"/>
<text text-anchor="start" x="260" y="-446.5" font-family="Helvetica,sans-Serif" font-size="10.00">polyfem::solver::Deformed</text>
<text text-anchor="start" x="260" y="-435.5" font-family="Helvetica,sans-Serif" font-size="10.00">CollisionBarrierForm::compute</text>
<text text-anchor="middle" x="334.5" y="-424.5" font-family="Helvetica,sans-Serif" font-size="10.00">_partial_gradient</text>
</a>
</g>
</g>
<!-- Node1&#45;&gt;Node4 -->
<g id="edge3_Node000001_Node000004" class="edge">
<title>Node1&#45;&gt;Node4</title>
<g id="a_edge3_Node000001_Node000004"><a xlink:title=" ">
<path fill="none" stroke="#63b8ff" d="M526.92,-296.7C509.04,-328.99 476.24,-379.88 434,-409 428.86,-412.54 423.29,-415.66 417.49,-418.39"/>
<polygon fill="#63b8ff" stroke="#63b8ff" points="530.1,-298.18 531.78,-287.72 523.94,-294.85 530.1,-298.18"/>
</a>
</g>
</g>
<!-- Node5 -->
<g id="Node000005" class="node">
<title>Node5</title>
<g id="a_Node000005"><a xlink:href="classpolyfem_1_1solver_1_1_boundary_smoothing_form.html#abe730f230c16d9a8424300f90be2a60f" target="_top" xlink:title=" ">
<polygon fill="white" stroke="#666666" points="407.5,-399.5 261.5,-399.5 261.5,-358.5 407.5,-358.5 407.5,-399.5"/>
<text text-anchor="start" x="269.5" y="-387.5" font-family="Helvetica,sans-Serif" font-size="10.00">polyfem::solver::Boundary</text>
<text text-anchor="start" x="269.5" y="-376.5" font-family="Helvetica,sans-Serif" font-size="10.00">SmoothingForm::compute</text>
<text text-anchor="middle" x="334.5" y="-365.5" font-family="Helvetica,sans-Serif" font-size="10.00">_partial_gradient</text>
</a>
</g>
</g>
<!-- Node1&#45;&gt;Node5 -->
<g id="edge4_Node000001_Node000005" class="edge">
<title>Node1&#45;&gt;Node5</title>
<g id="a_edge4_Node000001_Node000005"><a xlink:title=" ">
<path fill="none" stroke="#63b8ff" d="M509.01,-294.19C488.39,-310.24 460.74,-330.06 434,-344 423.78,-349.33 412.57,-354.16 401.49,-358.43"/>
<polygon fill="#63b8ff" stroke="#63b8ff" points="511.43,-296.74 517.12,-287.8 507.1,-291.24 511.43,-296.74"/>
</a>
</g>
</g>
<!-- Node6 -->
<g id="Node000006" class="node">
<title>Node6</title>
<g id="a_Node000006"><a xlink:href="classpolyfem_1_1solver_1_1_spatial_integral_form.html#acd253fe5ef90f51233b5f3c90d878549" target="_top" xlink:title=" ">
<polygon fill="white" stroke="#666666" points="401,-263.5 268,-263.5 268,-222.5 401,-222.5 401,-263.5"/>
<text text-anchor="start" x="276" y="-251.5" font-family="Helvetica,sans-Serif" font-size="10.00">polyfem::solver::Spatial</text>
<text text-anchor="start" x="276" y="-240.5" font-family="Helvetica,sans-Serif" font-size="10.00">IntegralForm::compute</text>
<text text-anchor="middle" x="334.5" y="-229.5" font-family="Helvetica,sans-Serif" font-size="10.00">_partial_gradient_step</text>
</a>
</g>
</g>
<!-- Node1&#45;&gt;Node6 -->
<g id="edge5_Node000001_Node000006" class="edge">
<title>Node1&#45;&gt;Node6</title>
<g id="a_edge5_Node000001_Node000006"><a xlink:title=" ">
<path fill="none" stroke="#63b8ff" d="M459.71,-257.44C440.24,-255.17 419.74,-252.79 401.12,-250.63"/>
<polygon fill="#63b8ff" stroke="#63b8ff" points="459.44,-260.93 469.78,-258.61 460.25,-253.97 459.44,-260.93"/>
</a>
</g>
</g>
<!-- Node7 -->
<g id="Node000007" class="node">
<title>Node7</title>
<g id="a_Node000007"><a xlink:href="classpolyfem_1_1solver_1_1_elastic_energy_form.html#a0490bfb58244e2aa95ae93087a855ec2" target="_top" xlink:title=" ">
<polygon fill="white" stroke="#666666" points="180,-349.5 19,-349.5 19,-308.5 180,-308.5 180,-349.5"/>
<text text-anchor="start" x="27" y="-337.5" font-family="Helvetica,sans-Serif" font-size="10.00">polyfem::solver::Elastic</text>
<text text-anchor="start" x="27" y="-326.5" font-family="Helvetica,sans-Serif" font-size="10.00">EnergyForm::compute_partial</text>
<text text-anchor="middle" x="99.5" y="-315.5" font-family="Helvetica,sans-Serif" font-size="10.00">_gradient_step</text>
</a>
</g>
</g>
<!-- Node1&#45;&gt;Node7 -->
<g id="edge11_Node000001_Node000007" class="edge">
<title>Node1&#45;&gt;Node7</title>
<g id="a_edge11_Node000001_Node000007"><a xlink:title=" ">
<path fill="none" stroke="#63b8ff" d="M459.95,-283.57C451.21,-285.15 442.43,-286.66 434,-288 347.58,-301.7 247.93,-313.42 180.23,-320.78"/>
<polygon fill="#63b8ff" stroke="#63b8ff" points="460.59,-287.01 469.8,-281.76 459.33,-280.13 460.59,-287.01"/>
</a>
</g>
</g>
<!-- Node8 -->
<g id="Node000008" class="node">
<title>Node8</title>
<g id="a_Node000008"><a xlink:href="classpolyfem_1_1solver_1_1_stress_norm_form.html#afaf3a3a652f6adf775240231f90793dc" target="_top" xlink:title=" ">
<polygon fill="white" stroke="#666666" points="199,-290 0,-290 0,-260 199,-260 199,-290"/>
<text text-anchor="start" x="8" y="-278" font-family="Helvetica,sans-Serif" font-size="10.00">polyfem::solver::StressNorm</text>
<text text-anchor="middle" x="99.5" y="-267" font-family="Helvetica,sans-Serif" font-size="10.00">Form::compute_partial_gradient_step</text>
</a>
</g>
</g>
<!-- Node1&#45;&gt;Node8 -->
<g id="edge12_Node000001_Node000008" class="edge">
<title>Node1&#45;&gt;Node8</title>
<g id="a_edge12_Node000001_Node000008"><a xlink:title=" ">
<path fill="none" stroke="#63b8ff" d="M459.8,-271.99C451.09,-272.39 442.36,-272.74 434,-273 355,-275.43 265.43,-275.84 199.02,-275.69"/>
<polygon fill="#63b8ff" stroke="#63b8ff" points="460.17,-275.48 469.99,-271.5 459.83,-268.49 460.17,-275.48"/>
</a>
</g>
</g>
<!-- Node9 -->
<g id="Node000009" class="node">
<title>Node9</title>
<g id="a_Node000009"><a xlink:href="classpolyfem_1_1solver_1_1_dirichlet_energy_form.html#abb902946650dcb1f997968285efb7cf3" target="_top" xlink:title=" ">
<polygon fill="white" stroke="#666666" points="180,-241.5 19,-241.5 19,-200.5 180,-200.5 180,-241.5"/>
<text text-anchor="start" x="27" y="-229.5" font-family="Helvetica,sans-Serif" font-size="10.00">polyfem::solver::Dirichlet</text>
<text text-anchor="start" x="27" y="-218.5" font-family="Helvetica,sans-Serif" font-size="10.00">EnergyForm::compute_partial</text>
<text text-anchor="middle" x="99.5" y="-207.5" font-family="Helvetica,sans-Serif" font-size="10.00">_gradient_step</text>
</a>
</g>
</g>
<!-- Node1&#45;&gt;Node9 -->
<g id="edge13_Node000001_Node000009" class="edge">
<title>Node1&#45;&gt;Node9</title>
<g id="a_edge13_Node000001_Node000009"><a xlink:title=" ">
<path fill="none" stroke="#63b8ff" d="M501,-241.37C481.49,-230.64 457.36,-219.42 434,-214 348.96,-194.26 248.43,-200.19 180.14,-208.41"/>
<polygon fill="#63b8ff" stroke="#63b8ff" points="499.47,-244.53 509.9,-246.4 502.92,-238.43 499.47,-244.53"/>
</a>
</g>
</g>
<!-- Node10 -->
<g id="Node000010" class="node">
<title>Node10</title>
<g id="a_Node000010"><a xlink:href="classpolyfem_1_1solver_1_1_compliance_form.html#aa7ca147a557a1fcb87964a1338090afa" target="_top" xlink:title=" ">
<polygon fill="white" stroke="#666666" points="199,-182 0,-182 0,-152 199,-152 199,-182"/>
<text text-anchor="start" x="8" y="-170" font-family="Helvetica,sans-Serif" font-size="10.00">polyfem::solver::Compliance</text>
<text text-anchor="middle" x="99.5" y="-159" font-family="Helvetica,sans-Serif" font-size="10.00">Form::compute_partial_gradient_step</text>
</a>
</g>
</g>
<!-- Node1&#45;&gt;Node10 -->
<g id="edge14_Node000001_Node000010" class="edge">
<title>Node1&#45;&gt;Node10</title>
<g id="a_edge14_Node000001_Node000010"><a xlink:title=" ">
<path fill="none" stroke="#63b8ff" d="M510.15,-239.94C489.75,-224.24 461.95,-205.7 434,-196 358.1,-169.65 266.91,-163.3 199.09,-163.04"/>
<polygon fill="#63b8ff" stroke="#63b8ff" points="508.12,-242.8 518.14,-246.24 512.45,-237.3 508.12,-242.8"/>
</a>
</g>
</g>
<!-- Node11 -->
<g id="Node000011" class="node">
<title>Node11</title>
<g id="a_Node000011"><a xlink:href="classpolyfem_1_1solver_1_1_stress_form.html#a21a58af0ff5e9d66c7cc790794705862" target="_top" xlink:title=" ">
<polygon fill="white" stroke="#666666" points="186.5,-134 12.5,-134 12.5,-104 186.5,-104 186.5,-134"/>
<text text-anchor="start" x="20.5" y="-122" font-family="Helvetica,sans-Serif" font-size="10.00">polyfem::solver::StressForm</text>
<text text-anchor="middle" x="99.5" y="-111" font-family="Helvetica,sans-Serif" font-size="10.00">::compute_partial_gradient_step</text>
</a>
</g>
</g>
<!-- Node1&#45;&gt;Node11 -->
<g id="edge15_Node000001_Node000011" class="edge">
<title>Node1&#45;&gt;Node11</title>
<g id="a_edge15_Node000001_Node000011"><a xlink:title=" ">
<path fill="none" stroke="#63b8ff" d="M521.85,-238.28C502.45,-213.1 470.7,-177.8 434,-160 356.19,-122.26 256.65,-114.48 186.65,-114.62"/>
<polygon fill="#63b8ff" stroke="#63b8ff" points="519.14,-240.5 527.94,-246.4 524.73,-236.3 519.14,-240.5"/>
</a>
</g>
</g>
<!-- Node12 -->
<g id="Node000012" class="node">
<title>Node12</title>
<g id="a_Node000012"><a xlink:href="classpolyfem_1_1solver_1_1_proxy_contact_force_form.html#aac0ea4d95a34ed7287b36b5f1dbfa0cd" target="_top" xlink:title=" ">
<polygon fill="white" stroke="#666666" points="416.5,-89.5 252.5,-89.5 252.5,-48.5 416.5,-48.5 416.5,-89.5"/>
<text text-anchor="start" x="260.5" y="-77.5" font-family="Helvetica,sans-Serif" font-size="10.00">polyfem::solver::ProxyContact</text>
<text text-anchor="start" x="260.5" y="-66.5" font-family="Helvetica,sans-Serif" font-size="10.00">ForceForm::compute_partial</text>
<text text-anchor="middle" x="334.5" y="-55.5" font-family="Helvetica,sans-Serif" font-size="10.00">_gradient_step</text>
</a>
</g>
</g>
<!-- Node1&#45;&gt;Node12 -->
<g id="edge16_Node000001_Node000012" class="edge">
<title>Node1&#45;&gt;Node12</title>
<g id="a_edge16_Node000001_Node000012"><a xlink:title=" ">
<path fill="none" stroke="#63b8ff" d="M529.29,-236.8C512.53,-200.42 479.71,-139.74 434,-104 426.78,-98.36 418.58,-93.58 410.06,-89.54"/>
<polygon fill="#63b8ff" stroke="#63b8ff" points="526.3,-238.69 533.59,-246.38 532.69,-235.82 526.3,-238.69"/>
</a>
</g>
</g>
<!-- Node13 -->
<g id="Node000013" class="node">
<title>Node13</title>
<g id="a_Node000013"><a xlink:href="classpolyfem_1_1solver_1_1_node_target_form.html#a37ae23e3fa1ad3881eaa3c814158175c" target="_top" xlink:title=" ">
<polygon fill="white" stroke="#666666" points="434,-30 235,-30 235,0 434,0 434,-30"/>
<text text-anchor="start" x="243" y="-18" font-family="Helvetica,sans-Serif" font-size="10.00">polyfem::solver::NodeTarget</text>
<text text-anchor="middle" x="334.5" y="-7" font-family="Helvetica,sans-Serif" font-size="10.00">Form::compute_partial_gradient_step</text>
</a>
</g>
</g>
<!-- Node1&#45;&gt;Node13 -->
<g id="edge17_Node000001_Node000013" class="edge">
<title>Node1&#45;&gt;Node13</title>
<g id="a_edge17_Node000001_Node000013"><a xlink:title=" ">
<path fill="none" stroke="#63b8ff" d="M536.25,-236.24C525.37,-186.87 496.95,-90.29 434,-39 429.77,-35.55 425.12,-32.59 420.21,-30.04"/>
<polygon fill="#63b8ff" stroke="#63b8ff" points="532.89,-237.25 538.37,-246.31 539.74,-235.81 532.89,-237.25"/>
</a>
</g>
</g>
<!-- Node6&#45;&gt;Node7 -->
<g id="edge6_Node000006_Node000007" class="edge">
<title>Node6&#45;&gt;Node7</title>
<g id="a_edge6_Node000006_Node000007"><a xlink:title=" ">
<path fill="none" stroke="#63b8ff" d="M277.94,-267.59C253.88,-277.85 225.27,-289.56 199,-299 190,-302.24 180.46,-305.43 171,-308.46"/>
<polygon fill="#63b8ff" stroke="#63b8ff" points="279.45,-270.74 287.26,-263.58 276.69,-264.31 279.45,-270.74"/>
</a>
</g>
</g>
<!-- Node6&#45;&gt;Node8 -->
<g id="edge7_Node000006_Node000008" class="edge">
<title>Node6&#45;&gt;Node8</title>
<g id="a_edge7_Node000006_Node000008"><a xlink:title=" ">
<path fill="none" stroke="#63b8ff" d="M258.01,-253.37C239.21,-255.95 218.77,-258.76 199.03,-261.47"/>
<polygon fill="#63b8ff" stroke="#63b8ff" points="258.55,-256.83 267.98,-252 257.59,-249.89 258.55,-256.83"/>
</a>
</g>
</g>
<!-- Node6&#45;&gt;Node9 -->
<g id="edge8_Node000006_Node000009" class="edge">
<title>Node6&#45;&gt;Node9</title>
<g id="a_edge8_Node000006_Node000009"><a xlink:title=" ">
<path fill="none" stroke="#63b8ff" d="M257.86,-235.86C232.96,-233.51 205.2,-230.89 180.01,-228.51"/>
<polygon fill="#63b8ff" stroke="#63b8ff" points="257.69,-239.36 267.98,-236.81 258.35,-232.39 257.69,-239.36"/>
</a>
</g>
</g>
<!-- Node6&#45;&gt;Node10 -->
<g id="edge9_Node000006_Node000010" class="edge">
<title>Node6&#45;&gt;Node10</title>
<g id="a_edge9_Node000006_Node000010"><a xlink:title=" ">
<path fill="none" stroke="#63b8ff" d="M274.15,-218.83C250.92,-209.81 223.91,-199.86 199,-192 187.81,-188.47 175.79,-185.09 164.12,-182.01"/>
<polygon fill="#63b8ff" stroke="#63b8ff" points="272.93,-222.11 283.52,-222.49 275.48,-215.59 272.93,-222.11"/>
</a>
</g>
</g>
<!-- Node6&#45;&gt;Node11 -->
<g id="edge10_Node000006_Node000011" class="edge">
<title>Node6&#45;&gt;Node11</title>
<g id="a_edge10_Node000006_Node000011"><a xlink:title=" ">
<path fill="none" stroke="#63b8ff" d="M303.96,-215.51C278.12,-192.88 238.62,-161.61 199,-143 191.67,-139.56 183.8,-136.58 175.81,-134"/>
<polygon fill="#63b8ff" stroke="#63b8ff" points="301.73,-218.2 311.53,-222.23 306.38,-212.97 301.73,-218.2"/>
</a>
</g>
</g>
</g>
</svg>

<g id="navigator" transform="translate(0 0)" fill="#404254">
  <rect fill="#f2f5e9" fill-opacity="0.5" stroke="#606060" stroke-width=".5" x="0" y="0" width="60" height="60"/>
  <use id="zoomplus" xlink:href="#zoomPlus" x="17" y="9" onmousedown="handleZoom(evt,'in')"/>
  <use id="zoomminus" xlink:href="#zoomMin" x="42" y="9" onmousedown="handleZoom(evt,'out')"/>
  <use id="reset" xlink:href="#resetDef" x="30" y="36" onmousedown="handleReset()"/>
   <use id="arrowup" xlink:href="#arrowUp" x="0" y="0" onmousedown="handlePan(0,-1)"/>
  <use id="arrowright" xlink:href="#arrowRight" x="0" y="0" onmousedown="handlePan(1,0)"/>
  <use id="arrowdown" xlink:href="#arrowDown" x="0" y="0" onmousedown="handlePan(0,1)"/>
  <use id="arrowleft" xlink:href="#arrowLeft" x="0" y="0" onmousedown="handlePan(-1,0)"/>
</g>
<svg viewBox="0 0 15 15" width="100%" height="30px" preserveAspectRatio="xMaxYMin meet">
 <g id="arrow_out" transform="scale(0.3 0.3)">
  <a xlink:href="classpolyfem_1_1solver_1_1_variable_to_simulation_group_a71f9cd6e77341a258d6a22b93b195dd1_icgraph_org.svg" target="_base">
   <rect id="button" ry="5" rx="5" y="6" x="6" height="38" width="38"
        fill="#f2f5e9" fill-opacity="0.5" stroke="#606060" stroke-width="1.0"/>
   <path id="arrow"
     d="M 11.500037,31.436501 C 11.940474,20.09759 22.043105,11.32322 32.158766,21.979434 L 37.068811,17.246167 C 37.068811,17.246167 37.088388,32 37.088388,32 L 22.160133,31.978069 C 22.160133,31.978069 26.997745,27.140456 26.997745,27.140456 C 18.528582,18.264221 13.291696,25.230495 11.500037,31.436501 z"
     style="fill:#404040;"/>
  </a>
 </g>
</svg>

<style type='text/css'>
<![CDATA[
[data-mouse-over-selected='false'] { opacity: 0.7; }
[data-mouse-over-selected='true']  { opacity: 1.0; }
]]>
</style>
<script type="application/ecmascript"><![CDATA[
document.addEventListener('DOMContentLoaded', (event) => {
  highlightEdges();
  highlightAdjacentNodes();
});
]]></script>
</svg>
