<?xml version="1.0" encoding="UTF-8" standalone="no"?>
<!DOCTYPE svg PUBLIC "-//W3C//DTD SVG 1.1//EN"
 "http://www.w3.org/Graphics/SVG/1.1/DTD/svg11.dtd">
<!-- Generated by graphviz version 2.43.0 (0)
 -->
<!-- Title: polyfem::mesh::NCMesh2D::prepare_mesh Pages: 1 -->
<svg width="344pt" height="134pt"
 viewBox="0.00 0.00 344.00 134.00" xmlns="http://www.w3.org/2000/svg" xmlns:xlink="http://www.w3.org/1999/xlink">
<g id="graph0" class="graph" transform="scale(1 1) rotate(0) translate(4 130)">
<title>polyfem::mesh::NCMesh2D::prepare_mesh</title>
<!-- Node1 -->
<g id="node1" class="node">
<title>Node1</title>
<g id="a_node1"><a xlink:title="method used to finalize the mesh.">
<polygon fill="#999999" stroke="#666666" points="336,-78 186,-78 186,-48 336,-48 336,-78"/>
<text text-anchor="start" x="194" y="-66" font-family="Helvetica,sans-Serif" font-size="10.00">polyfem::mesh::NCMesh2D</text>
<text text-anchor="middle" x="261" y="-55" font-family="Helvetica,sans-Serif" font-size="10.00">::prepare_mesh</text>
</a>
</g>
</g>
<!-- Node2 -->
<g id="node2" class="node">
<title>Node2</title>
<g id="a_node2"><a xlink:href="classpolyfem_1_1mesh_1_1_n_c_mesh2_d.html#afd97e7ed4b7749c221374490f775c9b8" target="_top" xlink:title="appends a new mesh to the end of this">
<polygon fill="white" stroke="#666666" points="150,-126 0,-126 0,-96 150,-96 150,-126"/>
<text text-anchor="start" x="8" y="-114" font-family="Helvetica,sans-Serif" font-size="10.00">polyfem::mesh::NCMesh2D</text>
<text text-anchor="middle" x="75" y="-103" font-family="Helvetica,sans-Serif" font-size="10.00">::append</text>
</a>
</g>
</g>
<!-- Node1&#45;&gt;Node2 -->
<g id="edge1" class="edge">
<title>Node1&#45;&gt;Node2</title>
<path fill="none" stroke="#63b8ff" d="M192.61,-80.58C173.22,-85.64 152.25,-91.11 133.51,-96"/>
<polygon fill="#63b8ff" stroke="#63b8ff" points="193.49,-83.97 202.29,-78.06 191.73,-77.19 193.49,-83.97"/>
</g>
<!-- Node3 -->
<g id="node3" class="node">
<title>Node3</title>
<g id="a_node3"><a xlink:href="classpolyfem_1_1mesh_1_1_n_c_mesh2_d.html#ac7b8983d229e887ea539afb8ea597dcd" target="_top" xlink:title="build a mesh from matrices">
<polygon fill="white" stroke="#666666" points="150,-78 0,-78 0,-48 150,-48 150,-78"/>
<text text-anchor="start" x="8" y="-66" font-family="Helvetica,sans-Serif" font-size="10.00">polyfem::mesh::NCMesh2D</text>
<text text-anchor="middle" x="75" y="-55" font-family="Helvetica,sans-Serif" font-size="10.00">::build_from_matrices</text>
</a>
</g>
</g>
<!-- Node1&#45;&gt;Node3 -->
<g id="edge2" class="edge">
<title>Node1&#45;&gt;Node3</title>
<path fill="none" stroke="#63b8ff" d="M175.93,-63C167.35,-63 158.66,-63 150.19,-63"/>
<polygon fill="#63b8ff" stroke="#63b8ff" points="175.96,-66.5 185.96,-63 175.96,-59.5 175.96,-66.5"/>
</g>
<!-- Node4 -->
<g id="node4" class="node">
<title>Node4</title>
<g id="a_node4"><a xlink:href="classpolyfem_1_1mesh_1_1_n_c_mesh2_d.html#aac372b606bae27f5f08af1cfdbfc4a22" target="_top" xlink:title="loads a mesh from a geo mesh">
<polygon fill="white" stroke="#666666" points="150,-30 0,-30 0,0 150,0 150,-30"/>
<text text-anchor="start" x="8" y="-18" font-family="Helvetica,sans-Serif" font-size="10.00">polyfem::mesh::NCMesh2D</text>
<text text-anchor="middle" x="75" y="-7" font-family="Helvetica,sans-Serif" font-size="10.00">::load</text>
</a>
</g>
</g>
<!-- Node1&#45;&gt;Node4 -->
<g id="edge3" class="edge">
<title>Node1&#45;&gt;Node4</title>
<path fill="none" stroke="#63b8ff" d="M192.61,-45.42C173.22,-40.36 152.25,-34.89 133.51,-30"/>
<polygon fill="#63b8ff" stroke="#63b8ff" points="191.73,-48.81 202.29,-47.94 193.49,-42.03 191.73,-48.81"/>
</g>
</g>
</svg>
