<?xml version="1.0" encoding="UTF-8" standalone="no"?>
<!DOCTYPE svg PUBLIC "-//W3C//DTD SVG 1.1//EN"
 "http://www.w3.org/Graphics/SVG/1.1/DTD/svg11.dtd">
<!-- Generated by graphviz version 2.43.0 (0)
 -->
<!-- Title: polyfem::assembler::RhsAssembler::time_bc Pages: 1 -->
<svg width="531pt" height="281pt"
 viewBox="0.00 0.00 531.00 280.50" xmlns="http://www.w3.org/2000/svg" xmlns:xlink="http://www.w3.org/1999/xlink">
<g id="graph0" class="graph" transform="scale(1 1) rotate(0) translate(4 276.5)">
<title>polyfem::assembler::RhsAssembler::time_bc</title>
<!-- Node1 -->
<g id="node1" class="node">
<title>Node1</title>
<g id="a_node1"><a xlink:title=" ">
<polygon fill="#999999" stroke="#666666" points="137,-132 0,-132 0,-102 137,-102 137,-132"/>
<text text-anchor="start" x="8" y="-120" font-family="Helvetica,sans-Serif" font-size="10.00">polyfem::assembler</text>
<text text-anchor="middle" x="68.5" y="-109" font-family="Helvetica,sans-Serif" font-size="10.00">::RhsAssembler::time_bc</text>
</a>
</g>
</g>
<!-- Node2 -->
<g id="node2" class="node">
<title>Node2</title>
<g id="a_node2"><a xlink:href="classpolyfem_1_1assembler_1_1_assembler_utils.html#ab505808dcbbdf3508888fb5d05e43927" target="_top" xlink:title=" ">
<polygon fill="white" stroke="#666666" points="323,-272.5 173,-272.5 173,-231.5 323,-231.5 323,-272.5"/>
<text text-anchor="start" x="181" y="-260.5" font-family="Helvetica,sans-Serif" font-size="10.00">polyfem::assembler</text>
<text text-anchor="start" x="181" y="-249.5" font-family="Helvetica,sans-Serif" font-size="10.00">::AssemblerUtils::assemble</text>
<text text-anchor="middle" x="248" y="-238.5" font-family="Helvetica,sans-Serif" font-size="10.00">_mass_matrix</text>
</a>
</g>
</g>
<!-- Node1&#45;&gt;Node2 -->
<g id="edge1" class="edge">
<title>Node1&#45;&gt;Node2</title>
<path fill="none" stroke="#63b8ff" d="M80.95,-132.34C98.53,-154.94 134.2,-197.28 173,-223 174.87,-224.24 176.8,-225.44 178.77,-226.6"/>
<polygon fill="#63b8ff" stroke="#63b8ff" points="177.22,-229.73 187.68,-231.42 180.55,-223.58 177.22,-229.73"/>
</g>
<!-- Node3 -->
<g id="node3" class="node">
<title>Node3</title>
<g id="a_node3"><a xlink:href="classpolyfem_1_1assembler_1_1_assembly_vals_cache.html#ae6a71006ed00c05812b65401a1c37d5c" target="_top" xlink:title=" ">
<polygon fill="white" stroke="#666666" points="308.5,-213.5 187.5,-213.5 187.5,-172.5 308.5,-172.5 308.5,-213.5"/>
<text text-anchor="start" x="195.5" y="-201.5" font-family="Helvetica,sans-Serif" font-size="10.00">polyfem::assembler</text>
<text text-anchor="start" x="195.5" y="-190.5" font-family="Helvetica,sans-Serif" font-size="10.00">::AssemblyValsCache</text>
<text text-anchor="middle" x="248" y="-179.5" font-family="Helvetica,sans-Serif" font-size="10.00">::compute</text>
</a>
</g>
</g>
<!-- Node1&#45;&gt;Node3 -->
<g id="edge2" class="edge">
<title>Node1&#45;&gt;Node3</title>
<path fill="none" stroke="#63b8ff" d="M102.94,-132.2C123.15,-141.3 149.47,-153.01 173,-163 177.32,-164.83 181.79,-166.71 186.29,-168.58"/>
<polygon fill="#63b8ff" stroke="#63b8ff" points="184.98,-171.82 195.56,-172.4 187.65,-165.35 184.98,-171.82"/>
</g>
<!-- Node5 -->
<g id="node5" class="node">
<title>Node5</title>
<g id="a_node5"><a xlink:href="classpolyfem_1_1mesh_1_1_mesh.html#a93c9ea4759ded33a8f25ff157033cfd9" target="_top" xlink:title="checks if mesh is volume">
<polygon fill="white" stroke="#666666" points="309,-154 187,-154 187,-124 309,-124 309,-154"/>
<text text-anchor="start" x="195" y="-142" font-family="Helvetica,sans-Serif" font-size="10.00">polyfem::mesh::Mesh</text>
<text text-anchor="middle" x="248" y="-131" font-family="Helvetica,sans-Serif" font-size="10.00">::is_volume</text>
</a>
</g>
</g>
<!-- Node1&#45;&gt;Node5 -->
<g id="edge4" class="edge">
<title>Node1&#45;&gt;Node5</title>
<path fill="none" stroke="#63b8ff" d="M137.11,-125.38C150.02,-126.98 163.57,-128.66 176.56,-130.27"/>
<polygon fill="#63b8ff" stroke="#63b8ff" points="176.49,-133.79 186.84,-131.54 177.35,-126.84 176.49,-133.79"/>
</g>
<!-- Node6 -->
<g id="node6" class="node">
<title>Node6</title>
<g id="a_node6"><a xlink:href="namespacepolyfem.html#a03f3d75072d2fd19f70cd886a51d10dd" target="_top" xlink:title="Retrieves the current logger.">
<polygon fill="white" stroke="#666666" points="295,-105.5 201,-105.5 201,-86.5 295,-86.5 295,-105.5"/>
<text text-anchor="middle" x="248" y="-93.5" font-family="Helvetica,sans-Serif" font-size="10.00">polyfem::logger</text>
</a>
</g>
</g>
<!-- Node1&#45;&gt;Node6 -->
<g id="edge5" class="edge">
<title>Node1&#45;&gt;Node6</title>
<path fill="none" stroke="#63b8ff" d="M137.11,-109C154.72,-106.92 173.5,-104.7 190.47,-102.69"/>
<polygon fill="#63b8ff" stroke="#63b8ff" points="191.25,-106.12 200.77,-101.47 190.43,-99.17 191.25,-106.12"/>
</g>
<!-- Node7 -->
<g id="node7" class="node">
<title>Node7</title>
<g id="a_node7"><a xlink:href="classpolyfem_1_1mesh_1_1_obstacle.html#a0a030857d0f71ae2a88692d988fab8db" target="_top" xlink:title=" ">
<polygon fill="white" stroke="#666666" points="510.5,-73 371.5,-73 371.5,-43 510.5,-43 510.5,-73"/>
<text text-anchor="start" x="379.5" y="-61" font-family="Helvetica,sans-Serif" font-size="10.00">polyfem::mesh::Obstacle</text>
<text text-anchor="middle" x="441" y="-50" font-family="Helvetica,sans-Serif" font-size="10.00">::n_vertices</text>
</a>
</g>
</g>
<!-- Node1&#45;&gt;Node7 -->
<g id="edge6" class="edge">
<title>Node1&#45;&gt;Node7</title>
<path fill="none" stroke="#63b8ff" d="M102.32,-101.87C122.32,-93.36 148.63,-83.39 173,-78 235.36,-64.21 307.69,-59.47 361.33,-58.02"/>
<polygon fill="#63b8ff" stroke="#63b8ff" points="361.54,-61.52 371.46,-57.78 361.38,-54.52 361.54,-61.52"/>
</g>
<!-- Node8 -->
<g id="node8" class="node">
<title>Node8</title>
<g id="a_node8"><a xlink:href="classpolyfem_1_1mesh_1_1_obstacle.html#a7e4641b4e7d3130e1618237978eee875" target="_top" xlink:title=" ">
<polygon fill="white" stroke="#666666" points="317.5,-30 178.5,-30 178.5,0 317.5,0 317.5,-30"/>
<text text-anchor="start" x="186.5" y="-18" font-family="Helvetica,sans-Serif" font-size="10.00">polyfem::mesh::Obstacle</text>
<text text-anchor="middle" x="248" y="-7" font-family="Helvetica,sans-Serif" font-size="10.00">::ndof</text>
</a>
</g>
</g>
<!-- Node1&#45;&gt;Node8 -->
<g id="edge7" class="edge">
<title>Node1&#45;&gt;Node8</title>
<path fill="none" stroke="#63b8ff" d="M88.06,-101.82C108.11,-85.94 141.44,-60.99 173,-44 179.6,-40.45 186.73,-37.1 193.87,-34.02"/>
<polygon fill="#63b8ff" stroke="#63b8ff" points="195.66,-37.07 203.56,-30.01 192.98,-30.6 195.66,-37.07"/>
</g>
<!-- Node4 -->
<g id="node4" class="node">
<title>Node4</title>
<g id="a_node4"><a xlink:href="classpolyfem_1_1basis_1_1_element_bases.html#a1eb3299faf0fce0b170d524017874af3" target="_top" xlink:title=" ">
<polygon fill="white" stroke="#666666" points="523,-208 359,-208 359,-178 523,-178 523,-208"/>
<text text-anchor="start" x="367" y="-196" font-family="Helvetica,sans-Serif" font-size="10.00">polyfem::basis::ElementBases</text>
<text text-anchor="middle" x="441" y="-185" font-family="Helvetica,sans-Serif" font-size="10.00">::compute_mass_quadrature</text>
</a>
</g>
</g>
<!-- Node3&#45;&gt;Node4 -->
<g id="edge3" class="edge">
<title>Node3&#45;&gt;Node4</title>
<path fill="none" stroke="#63b8ff" d="M308.65,-193C321.3,-193 334.92,-193 348.45,-193"/>
<polygon fill="#63b8ff" stroke="#63b8ff" points="348.75,-196.5 358.75,-193 348.75,-189.5 348.75,-196.5"/>
</g>
<!-- Node8&#45;&gt;Node7 -->
<g id="edge9" class="edge">
<title>Node8&#45;&gt;Node7</title>
<path fill="none" stroke="#63b8ff" d="M315.8,-30.04C331.07,-33.48 347.41,-37.16 363.07,-40.68"/>
<polygon fill="#63b8ff" stroke="#63b8ff" points="362.71,-44.19 373.24,-42.97 364.25,-37.36 362.71,-44.19"/>
</g>
<!-- Node9 -->
<g id="node9" class="node">
<title>Node9</title>
<g id="a_node9"><a xlink:href="classpolyfem_1_1mesh_1_1_obstacle.html#a729f1878fafca845d043f4f2ead84dbc" target="_top" xlink:title=" ">
<polygon fill="white" stroke="#666666" points="523,-24.5 359,-24.5 359,-5.5 523,-5.5 523,-24.5"/>
<text text-anchor="middle" x="441" y="-12.5" font-family="Helvetica,sans-Serif" font-size="10.00">polyfem::mesh::Obstacle::dim</text>
</a>
</g>
</g>
<!-- Node8&#45;&gt;Node9 -->
<g id="edge8" class="edge">
<title>Node8&#45;&gt;Node9</title>
<path fill="none" stroke="#63b8ff" d="M317.69,-15C327.82,-15 338.39,-15 348.88,-15"/>
<polygon fill="#63b8ff" stroke="#63b8ff" points="348.91,-18.5 358.91,-15 348.91,-11.5 348.91,-18.5"/>
</g>
</g>
</svg>
