<?xml version="1.0" encoding="UTF-8" standalone="no"?>
<!DOCTYPE svg PUBLIC "-//W3C//DTD SVG 1.1//EN"
 "http://www.w3.org/Graphics/SVG/1.1/DTD/svg11.dtd">
<!-- Generated by graphviz version 2.43.0 (0)
 -->
<!-- Title: polyfem::assembler::GenericElastic&lt; Derived &gt; Pages: 1 -->
<svg width="1070pt" height="334pt"
 viewBox="0.00 0.00 1070.00 333.50" xmlns="http://www.w3.org/2000/svg" xmlns:xlink="http://www.w3.org/1999/xlink">
<g id="graph0" class="graph" transform="scale(1 1) rotate(0) translate(4 329.5)">
<title>polyfem::assembler::GenericElastic&lt; Derived &gt;</title>
<!-- Node1 -->
<g id="Node000001" class="node">
<title>Node1</title>
<g id="a_Node000001"><a xlink:title=" ">
<polygon fill="#999999" stroke="#666666" points="460,-176.5 307,-176.5 307,-146.5 460,-146.5 460,-176.5"/>
<text text-anchor="start" x="315" y="-164.5" font-family="Helvetica,sans-Serif" font-size="10.00">polyfem::assembler</text>
<text text-anchor="middle" x="383.5" y="-153.5" font-family="Helvetica,sans-Serif" font-size="10.00">::GenericElastic&lt; Derived &gt;</text>
</a>
</g>
</g>
<!-- Node5 -->
<g id="Node000005" class="node">
<title>Node5</title>
<g id="a_Node000005"><a xlink:href="classpolyfem_1_1assembler_1_1_generic_elastic.html" target="_top" xlink:title=" ">
<polygon fill="white" stroke="#666666" points="852,-325.5 673,-325.5 673,-295.5 852,-295.5 852,-325.5"/>
<text text-anchor="start" x="681" y="-313.5" font-family="Helvetica,sans-Serif" font-size="10.00">polyfem::assembler</text>
<text text-anchor="middle" x="762.5" y="-302.5" font-family="Helvetica,sans-Serif" font-size="10.00">::GenericElastic&lt; AMIPSEnergy &gt;</text>
</a>
</g>
</g>
<!-- Node1&#45;&gt;Node5 -->
<g id="edge5_Node000001_Node000005" class="edge">
<title>Node1&#45;&gt;Node5</title>
<g id="a_edge5_Node000001_Node000005"><a xlink:title=" ">
<path fill="none" stroke="orange" stroke-dasharray="5,2" d="M401,-184.75C417.81,-206.58 445.9,-238.39 478,-255.5 538.17,-287.58 614.42,-301.1 672.68,-306.72"/>
<polygon fill="orange" stroke="orange" points="403.72,-182.54 394.92,-176.64 398.12,-186.74 403.72,-182.54"/>
</a>
</g>
<text text-anchor="middle" x="566.5" y="-306.5" font-family="Helvetica,sans-Serif" font-size="10.00" fill="grey"> &lt; AMIPSEnergy &gt;</text>
</g>
<!-- Node7 -->
<g id="Node000007" class="node">
<title>Node7</title>
<g id="a_Node000007"><a xlink:href="classpolyfem_1_1assembler_1_1_generic_elastic.html" target="_top" xlink:title=" ">
<polygon fill="white" stroke="#666666" points="851.5,-277 673.5,-277 673.5,-236 851.5,-236 851.5,-277"/>
<text text-anchor="start" x="681.5" y="-265" font-family="Helvetica,sans-Serif" font-size="10.00">polyfem::assembler</text>
<text text-anchor="start" x="681.5" y="-254" font-family="Helvetica,sans-Serif" font-size="10.00">::GenericElastic&lt; Incompressible</text>
<text text-anchor="middle" x="762.5" y="-243" font-family="Helvetica,sans-Serif" font-size="10.00">OgdenElasticity &gt;</text>
</a>
</g>
</g>
<!-- Node1&#45;&gt;Node7 -->
<g id="edge7_Node000001_Node000007" class="edge">
<title>Node1&#45;&gt;Node7</title>
<g id="a_edge7_Node000001_Node000007"><a xlink:title=" ">
<path fill="none" stroke="orange" stroke-dasharray="5,2" d="M424.3,-180.74C440.64,-188.06 459.94,-195.95 478,-201.5 542.22,-221.22 616.89,-235.37 673.47,-244.37"/>
<polygon fill="orange" stroke="orange" points="425.6,-177.49 415.05,-176.52 422.69,-183.86 425.6,-177.49"/>
</a>
</g>
<text text-anchor="middle" x="566.5" y="-243.5" font-family="Helvetica,sans-Serif" font-size="10.00" fill="grey"> &lt; IncompressibleOgdenElasticity &gt;</text>
</g>
<!-- Node9 -->
<g id="Node000009" class="node">
<title>Node9</title>
<g id="a_Node000009"><a xlink:href="classpolyfem_1_1assembler_1_1_generic_elastic.html" target="_top" xlink:title=" ">
<polygon fill="white" stroke="#666666" points="850.5,-218 674.5,-218 674.5,-177 850.5,-177 850.5,-218"/>
<text text-anchor="start" x="682.5" y="-206" font-family="Helvetica,sans-Serif" font-size="10.00">polyfem::assembler</text>
<text text-anchor="start" x="682.5" y="-195" font-family="Helvetica,sans-Serif" font-size="10.00">::GenericElastic&lt; MooneyRivlin3</text>
<text text-anchor="middle" x="762.5" y="-184" font-family="Helvetica,sans-Serif" font-size="10.00">ParamElasticity &gt;</text>
</a>
</g>
</g>
<!-- Node1&#45;&gt;Node9 -->
<g id="edge9_Node000001_Node000009" class="edge">
<title>Node1&#45;&gt;Node9</title>
<g id="a_edge9_Node000001_Node000009"><a xlink:title=" ">
<path fill="none" stroke="orange" stroke-dasharray="5,2" d="M470.32,-169.7C531.31,-175.52 612.92,-183.31 674.23,-189.17"/>
<polygon fill="orange" stroke="orange" points="470.63,-166.21 460.34,-168.74 469.96,-173.18 470.63,-166.21"/>
</a>
</g>
<text text-anchor="middle" x="566.5" y="-189.5" font-family="Helvetica,sans-Serif" font-size="10.00" fill="grey"> &lt; MooneyRivlin3ParamElasticity &gt;</text>
</g>
<!-- Node11 -->
<g id="Node000011" class="node">
<title>Node11</title>
<g id="a_Node000011"><a xlink:href="classpolyfem_1_1assembler_1_1_generic_elastic.html" target="_top" xlink:title=" ">
<polygon fill="white" stroke="#666666" points="847.5,-159 677.5,-159 677.5,-118 847.5,-118 847.5,-159"/>
<text text-anchor="start" x="685.5" y="-147" font-family="Helvetica,sans-Serif" font-size="10.00">polyfem::assembler</text>
<text text-anchor="start" x="685.5" y="-136" font-family="Helvetica,sans-Serif" font-size="10.00">::GenericElastic&lt; MooneyRivlin</text>
<text text-anchor="middle" x="762.5" y="-125" font-family="Helvetica,sans-Serif" font-size="10.00">Elasticity &gt;</text>
</a>
</g>
</g>
<!-- Node1&#45;&gt;Node11 -->
<g id="edge11_Node000001_Node000011" class="edge">
<title>Node1&#45;&gt;Node11</title>
<g id="a_edge11_Node000001_Node000011"><a xlink:title=" ">
<path fill="none" stroke="orange" stroke-dasharray="5,2" d="M470.48,-156.25C532.46,-152.47 615.68,-147.4 677.25,-143.64"/>
<polygon fill="orange" stroke="orange" points="470.11,-152.77 460.34,-156.87 470.53,-159.76 470.11,-152.77"/>
</a>
</g>
<text text-anchor="middle" x="566.5" y="-158.5" font-family="Helvetica,sans-Serif" font-size="10.00" fill="grey"> &lt; MooneyRivlinElasticity &gt;</text>
</g>
<!-- Node13 -->
<g id="Node000013" class="node">
<title>Node13</title>
<g id="a_Node000013"><a xlink:href="classpolyfem_1_1assembler_1_1_generic_elastic.html" target="_top" xlink:title=" ">
<polygon fill="white" stroke="#666666" points="845.5,-100 679.5,-100 679.5,-59 845.5,-59 845.5,-100"/>
<text text-anchor="start" x="687.5" y="-88" font-family="Helvetica,sans-Serif" font-size="10.00">polyfem::assembler</text>
<text text-anchor="start" x="687.5" y="-77" font-family="Helvetica,sans-Serif" font-size="10.00">::GenericElastic&lt; NeoHookean</text>
<text text-anchor="middle" x="762.5" y="-66" font-family="Helvetica,sans-Serif" font-size="10.00">Autodiff &gt;</text>
</a>
</g>
</g>
<!-- Node1&#45;&gt;Node13 -->
<g id="edge13_Node000001_Node000013" class="edge">
<title>Node1&#45;&gt;Node13</title>
<g id="a_edge13_Node000001_Node000013"><a xlink:title=" ">
<path fill="none" stroke="orange" stroke-dasharray="5,2" d="M435.31,-143.2C449.05,-138.65 464,-134.06 478,-130.5 545,-113.46 622.32,-99.95 679.27,-91.13"/>
<polygon fill="orange" stroke="orange" points="433.91,-139.98 425.55,-146.49 436.15,-146.61 433.91,-139.98"/>
</a>
</g>
<text text-anchor="middle" x="566.5" y="-133.5" font-family="Helvetica,sans-Serif" font-size="10.00" fill="grey"> &lt; NeoHookeanAutodiff &gt;</text>
</g>
<!-- Node15 -->
<g id="Node000015" class="node">
<title>Node15</title>
<g id="a_Node000015"><a xlink:href="classpolyfem_1_1assembler_1_1_generic_elastic.html" target="_top" xlink:title=" ">
<polygon fill="white" stroke="#666666" points="849.5,-41 675.5,-41 675.5,0 849.5,0 849.5,-41"/>
<text text-anchor="start" x="683.5" y="-29" font-family="Helvetica,sans-Serif" font-size="10.00">polyfem::assembler</text>
<text text-anchor="start" x="683.5" y="-18" font-family="Helvetica,sans-Serif" font-size="10.00">::GenericElastic&lt; Unconstrained</text>
<text text-anchor="middle" x="762.5" y="-7" font-family="Helvetica,sans-Serif" font-size="10.00">OgdenElasticity &gt;</text>
</a>
</g>
</g>
<!-- Node1&#45;&gt;Node15 -->
<g id="edge15_Node000001_Node000015" class="edge">
<title>Node1&#45;&gt;Node15</title>
<g id="a_edge15_Node000001_Node000015"><a xlink:title=" ">
<path fill="none" stroke="orange" stroke-dasharray="5,2" d="M404.3,-138.9C421.83,-120.35 449.05,-94.89 478,-80.5 539.95,-49.71 617.13,-34.69 675.32,-27.38"/>
<polygon fill="orange" stroke="orange" points="401.62,-136.65 397.41,-146.37 406.76,-141.39 401.62,-136.65"/>
</a>
</g>
<text text-anchor="middle" x="566.5" y="-83.5" font-family="Helvetica,sans-Serif" font-size="10.00" fill="grey"> &lt; UnconstrainedOgdenElasticity &gt;</text>
</g>
<!-- Node2 -->
<g id="Node000002" class="node">
<title>Node2</title>
<g id="a_Node000002"><a xlink:href="classpolyfem_1_1assembler_1_1_n_l_assembler.html" target="_top" xlink:title=" ">
<polygon fill="white" stroke="#666666" points="267.5,-198.5 153.5,-198.5 153.5,-168.5 267.5,-168.5 267.5,-198.5"/>
<text text-anchor="start" x="161.5" y="-186.5" font-family="Helvetica,sans-Serif" font-size="10.00">polyfem::assembler</text>
<text text-anchor="middle" x="210.5" y="-175.5" font-family="Helvetica,sans-Serif" font-size="10.00">::NLAssembler</text>
</a>
</g>
</g>
<!-- Node2&#45;&gt;Node1 -->
<g id="edge1_Node000001_Node000002" class="edge">
<title>Node2&#45;&gt;Node1</title>
<g id="a_edge1_Node000001_Node000002"><a xlink:title=" ">
<path fill="none" stroke="#63b8ff" d="M278.06,-174.94C287.51,-173.72 297.27,-172.46 306.87,-171.23"/>
<polygon fill="#63b8ff" stroke="#63b8ff" points="277.44,-171.49 267.97,-176.24 278.33,-178.43 277.44,-171.49"/>
</a>
</g>
</g>
<!-- Node3 -->
<g id="Node000003" class="node">
<title>Node3</title>
<g id="a_Node000003"><a xlink:href="classpolyfem_1_1assembler_1_1_assembler.html" target="_top" xlink:title="abstract class">
<polygon fill="white" stroke="#666666" points="114,-173.5 0,-173.5 0,-143.5 114,-143.5 114,-173.5"/>
<text text-anchor="start" x="8" y="-161.5" font-family="Helvetica,sans-Serif" font-size="10.00">polyfem::assembler</text>
<text text-anchor="middle" x="57" y="-150.5" font-family="Helvetica,sans-Serif" font-size="10.00">::Assembler</text>
</a>
</g>
</g>
<!-- Node3&#45;&gt;Node2 -->
<g id="edge2_Node000002_Node000003" class="edge">
<title>Node3&#45;&gt;Node2</title>
<g id="a_edge2_Node000002_Node000003"><a xlink:title=" ">
<path fill="none" stroke="#63b8ff" d="M124.37,-169.45C134.02,-171.04 143.87,-172.67 153.29,-174.22"/>
<polygon fill="#63b8ff" stroke="#63b8ff" points="124.85,-165.98 114.41,-167.81 123.71,-172.89 124.85,-165.98"/>
</a>
</g>
</g>
<!-- Node4 -->
<g id="Node000004" class="node">
<title>Node4</title>
<g id="a_Node000004"><a xlink:href="classpolyfem_1_1assembler_1_1_elasticity_assembler.html" target="_top" xlink:title=" ">
<polygon fill="white" stroke="#666666" points="270,-150.5 151,-150.5 151,-120.5 270,-120.5 270,-150.5"/>
<text text-anchor="start" x="159" y="-138.5" font-family="Helvetica,sans-Serif" font-size="10.00">polyfem::assembler</text>
<text text-anchor="middle" x="210.5" y="-127.5" font-family="Helvetica,sans-Serif" font-size="10.00">::ElasticityAssembler</text>
</a>
</g>
</g>
<!-- Node3&#45;&gt;Node4 -->
<g id="edge4_Node000004_Node000003" class="edge">
<title>Node3&#45;&gt;Node4</title>
<g id="a_edge4_Node000004_Node000003"><a xlink:title=" ">
<path fill="none" stroke="#63b8ff" d="M124.55,-148.4C133.28,-147.07 142.17,-145.72 150.76,-144.42"/>
<polygon fill="#63b8ff" stroke="#63b8ff" points="123.77,-144.97 114.41,-149.94 124.83,-151.89 123.77,-144.97"/>
</a>
</g>
</g>
<!-- Node4&#45;&gt;Node1 -->
<g id="edge3_Node000001_Node000004" class="edge">
<title>Node4&#45;&gt;Node1</title>
<g id="a_edge3_Node000001_Node000004"><a xlink:title=" ">
<path fill="none" stroke="#63b8ff" d="M280.45,-145.98C289.17,-147.31 298.12,-148.67 306.93,-150.01"/>
<polygon fill="#63b8ff" stroke="#63b8ff" points="280.76,-142.49 270.35,-144.45 279.71,-149.41 280.76,-142.49"/>
</a>
</g>
</g>
<!-- Node6 -->
<g id="Node000006" class="node">
<title>Node6</title>
<g id="a_Node000006"><a xlink:href="classpolyfem_1_1assembler_1_1_a_m_i_p_s_energy.html" target="_top" xlink:title=" ">
<polygon fill="white" stroke="#666666" points="1032.5,-325.5 918.5,-325.5 918.5,-295.5 1032.5,-295.5 1032.5,-325.5"/>
<text text-anchor="start" x="926.5" y="-313.5" font-family="Helvetica,sans-Serif" font-size="10.00">polyfem::assembler</text>
<text text-anchor="middle" x="975.5" y="-302.5" font-family="Helvetica,sans-Serif" font-size="10.00">::AMIPSEnergy</text>
</a>
</g>
</g>
<!-- Node5&#45;&gt;Node6 -->
<g id="edge6_Node000005_Node000006" class="edge">
<title>Node5&#45;&gt;Node6</title>
<g id="a_edge6_Node000005_Node000006"><a xlink:title=" ">
<path fill="none" stroke="#63b8ff" d="M862.12,-310.5C881.41,-310.5 901.02,-310.5 918.34,-310.5"/>
<polygon fill="#63b8ff" stroke="#63b8ff" points="862.07,-307 852.07,-310.5 862.07,-314 862.07,-307"/>
</a>
</g>
</g>
<!-- Node8 -->
<g id="Node000008" class="node">
<title>Node8</title>
<g id="a_Node000008"><a xlink:href="classpolyfem_1_1assembler_1_1_incompressible_ogden_elasticity.html" target="_top" xlink:title=" ">
<polygon fill="white" stroke="#666666" points="1062,-271.5 889,-271.5 889,-241.5 1062,-241.5 1062,-271.5"/>
<text text-anchor="start" x="897" y="-259.5" font-family="Helvetica,sans-Serif" font-size="10.00">polyfem::assembler</text>
<text text-anchor="middle" x="975.5" y="-248.5" font-family="Helvetica,sans-Serif" font-size="10.00">::IncompressibleOgdenElasticity</text>
</a>
</g>
</g>
<!-- Node7&#45;&gt;Node8 -->
<g id="edge8_Node000007_Node000008" class="edge">
<title>Node7&#45;&gt;Node8</title>
<g id="a_edge8_Node000007_Node000008"><a xlink:title=" ">
<path fill="none" stroke="#63b8ff" d="M861.92,-256.5C870.95,-256.5 880.05,-256.5 888.96,-256.5"/>
<polygon fill="#63b8ff" stroke="#63b8ff" points="861.76,-253 851.76,-256.5 861.76,-260 861.76,-253"/>
</a>
</g>
</g>
<!-- Node10 -->
<g id="Node000010" class="node">
<title>Node10</title>
<g id="a_Node000010"><a xlink:href="classpolyfem_1_1assembler_1_1_mooney_rivlin3_param_elasticity.html" target="_top" xlink:title=" ">
<polygon fill="white" stroke="#666666" points="1061,-212.5 890,-212.5 890,-182.5 1061,-182.5 1061,-212.5"/>
<text text-anchor="start" x="898" y="-200.5" font-family="Helvetica,sans-Serif" font-size="10.00">polyfem::assembler</text>
<text text-anchor="middle" x="975.5" y="-189.5" font-family="Helvetica,sans-Serif" font-size="10.00">::MooneyRivlin3ParamElasticity</text>
</a>
</g>
</g>
<!-- Node9&#45;&gt;Node10 -->
<g id="edge10_Node000009_Node000010" class="edge">
<title>Node9&#45;&gt;Node10</title>
<g id="a_edge10_Node000009_Node000010"><a xlink:title=" ">
<path fill="none" stroke="#63b8ff" d="M860.61,-197.5C870.32,-197.5 880.13,-197.5 889.7,-197.5"/>
<polygon fill="#63b8ff" stroke="#63b8ff" points="860.54,-194 850.54,-197.5 860.54,-201 860.54,-194"/>
</a>
</g>
</g>
<!-- Node12 -->
<g id="Node000012" class="node">
<title>Node12</title>
<g id="a_Node000012"><a xlink:href="classpolyfem_1_1assembler_1_1_mooney_rivlin_elasticity.html" target="_top" xlink:title=" ">
<polygon fill="white" stroke="#666666" points="1042.5,-153.5 908.5,-153.5 908.5,-123.5 1042.5,-123.5 1042.5,-153.5"/>
<text text-anchor="start" x="916.5" y="-141.5" font-family="Helvetica,sans-Serif" font-size="10.00">polyfem::assembler</text>
<text text-anchor="middle" x="975.5" y="-130.5" font-family="Helvetica,sans-Serif" font-size="10.00">::MooneyRivlinElasticity</text>
</a>
</g>
</g>
<!-- Node11&#45;&gt;Node12 -->
<g id="edge12_Node000011_Node000012" class="edge">
<title>Node11&#45;&gt;Node12</title>
<g id="a_edge12_Node000011_Node000012"><a xlink:title=" ">
<path fill="none" stroke="#63b8ff" d="M858.24,-138.5C875.1,-138.5 892.34,-138.5 908.2,-138.5"/>
<polygon fill="#63b8ff" stroke="#63b8ff" points="857.8,-135 847.8,-138.5 857.8,-142 857.8,-135"/>
</a>
</g>
</g>
<!-- Node14 -->
<g id="Node000014" class="node">
<title>Node14</title>
<g id="a_Node000014"><a xlink:href="classpolyfem_1_1assembler_1_1_neo_hookean_autodiff.html" target="_top" xlink:title=" ">
<polygon fill="white" stroke="#666666" points="1037,-94.5 914,-94.5 914,-64.5 1037,-64.5 1037,-94.5"/>
<text text-anchor="start" x="922" y="-82.5" font-family="Helvetica,sans-Serif" font-size="10.00">polyfem::assembler</text>
<text text-anchor="middle" x="975.5" y="-71.5" font-family="Helvetica,sans-Serif" font-size="10.00">::NeoHookeanAutodiff</text>
</a>
</g>
</g>
<!-- Node13&#45;&gt;Node14 -->
<g id="edge14_Node000013_Node000014" class="edge">
<title>Node13&#45;&gt;Node14</title>
<g id="a_edge14_Node000013_Node000014"><a xlink:title=" ">
<path fill="none" stroke="#63b8ff" d="M855.87,-79.5C875.48,-79.5 895.71,-79.5 913.78,-79.5"/>
<polygon fill="#63b8ff" stroke="#63b8ff" points="855.68,-76 845.68,-79.5 855.68,-83 855.68,-76"/>
</a>
</g>
</g>
<!-- Node16 -->
<g id="Node000016" class="node">
<title>Node16</title>
<g id="a_Node000016"><a xlink:href="classpolyfem_1_1assembler_1_1_unconstrained_ogden_elasticity.html" target="_top" xlink:title=" ">
<polygon fill="white" stroke="#666666" points="1060.5,-35.5 890.5,-35.5 890.5,-5.5 1060.5,-5.5 1060.5,-35.5"/>
<text text-anchor="start" x="898.5" y="-23.5" font-family="Helvetica,sans-Serif" font-size="10.00">polyfem::assembler</text>
<text text-anchor="middle" x="975.5" y="-12.5" font-family="Helvetica,sans-Serif" font-size="10.00">::UnconstrainedOgdenElasticity</text>
</a>
</g>
</g>
<!-- Node15&#45;&gt;Node16 -->
<g id="edge16_Node000015_Node000016" class="edge">
<title>Node15&#45;&gt;Node16</title>
<g id="a_edge16_Node000015_Node000016"><a xlink:title=" ">
<path fill="none" stroke="#63b8ff" d="M859.78,-20.5C869.98,-20.5 880.3,-20.5 890.36,-20.5"/>
<polygon fill="#63b8ff" stroke="#63b8ff" points="859.63,-17 849.63,-20.5 859.63,-24 859.63,-17"/>
</a>
</g>
</g>
</g>
</svg>
