<?xml version="1.0" encoding="UTF-8" standalone="no"?>
<!DOCTYPE svg PUBLIC "-//W3C//DTD SVG 1.1//EN"
 "http://www.w3.org/Graphics/SVG/1.1/DTD/svg11.dtd">
<!-- Generated by graphviz version 2.43.0 (0)
 -->
<!-- Title: polyfem::solver::OperatorSplittingSolver::interpolator Pages: 1 -->
<svg width="1122pt" height="264pt"
 viewBox="0.00 0.00 1122.00 263.50" xmlns="http://www.w3.org/2000/svg" xmlns:xlink="http://www.w3.org/1999/xlink">
<g id="graph0" class="graph" transform="scale(1 1) rotate(0) translate(4 259.5)">
<title>polyfem::solver::OperatorSplittingSolver::interpolator</title>
<!-- Node1 -->
<g id="Node000001" class="node">
<title>Node1</title>
<g id="a_Node000001"><a xlink:title=" ">
<polygon fill="#999999" stroke="#666666" points="151,-174.5 0,-174.5 0,-144.5 151,-144.5 151,-174.5"/>
<text text-anchor="start" x="8" y="-162.5" font-family="Helvetica,sans-Serif" font-size="10.00">polyfem::solver::Operator</text>
<text text-anchor="middle" x="75.5" y="-151.5" font-family="Helvetica,sans-Serif" font-size="10.00">SplittingSolver::interpolator</text>
</a>
</g>
</g>
<!-- Node2 -->
<g id="Node000002" class="node">
<title>Node2</title>
<g id="a_Node000002"><a xlink:href="classpolyfem_1_1solver_1_1_operator_splitting_solver.html#acb209fc33bfb84395220cc09de3f70c4" target="_top" xlink:title=" ">
<polygon fill="white" stroke="#666666" points="514,-229 372,-229 372,-188 514,-188 514,-229"/>
<text text-anchor="start" x="380" y="-217" font-family="Helvetica,sans-Serif" font-size="10.00">polyfem::solver::Operator</text>
<text text-anchor="start" x="380" y="-206" font-family="Helvetica,sans-Serif" font-size="10.00">SplittingSolver::calculate</text>
<text text-anchor="middle" x="443" y="-195" font-family="Helvetica,sans-Serif" font-size="10.00">_local_pts</text>
</a>
</g>
</g>
<!-- Node1&#45;&gt;Node2 -->
<g id="edge1_Node000001_Node000002" class="edge">
<title>Node1&#45;&gt;Node2</title>
<g id="a_edge1_Node000001_Node000002"><a xlink:title=" ">
<path fill="none" stroke="#63b8ff" d="M104.16,-174.52C125.96,-185.47 157.49,-199.42 187,-205.5 244.61,-217.36 311.1,-217.72 361.73,-215.32"/>
<polygon fill="#63b8ff" stroke="#63b8ff" points="362.16,-218.81 371.97,-214.79 361.8,-211.81 362.16,-218.81"/>
</a>
</g>
</g>
<!-- Node9 -->
<g id="Node000009" class="node">
<title>Node9</title>
<g id="a_Node000009"><a xlink:href="classpolyfem_1_1assembler_1_1_element_assembly_values.html#a736c84178a9391358d50b1d984440538" target="_top" xlink:title="computes the per element values at the local (ref el) points (pts) sets basis_values,...">
<polygon fill="white" stroke="#666666" points="703.5,-159 560.5,-159 560.5,-118 703.5,-118 703.5,-159"/>
<text text-anchor="start" x="568.5" y="-147" font-family="Helvetica,sans-Serif" font-size="10.00">polyfem::assembler</text>
<text text-anchor="start" x="568.5" y="-136" font-family="Helvetica,sans-Serif" font-size="10.00">::ElementAssemblyValues</text>
<text text-anchor="middle" x="632" y="-125" font-family="Helvetica,sans-Serif" font-size="10.00">::compute</text>
</a>
</g>
</g>
<!-- Node1&#45;&gt;Node9 -->
<g id="edge8_Node000001_Node000009" class="edge">
<title>Node1&#45;&gt;Node9</title>
<g id="a_edge8_Node000001_Node000009"><a xlink:title=" ">
<path fill="none" stroke="#63b8ff" d="M151.28,-156.67C255.38,-152.73 443.21,-145.61 550.35,-141.55"/>
<polygon fill="#63b8ff" stroke="#63b8ff" points="550.6,-145.05 560.46,-141.17 550.34,-138.05 550.6,-145.05"/>
</a>
</g>
</g>
<!-- Node13 -->
<g id="Node000013" class="node">
<title>Node13</title>
<g id="a_Node000013"><a xlink:href="classpolyfem_1_1solver_1_1_operator_splitting_solver.html#adb02070fcb475145b61bb691fa8227f4" target="_top" xlink:title=" ">
<polygon fill="white" stroke="#666666" points="332.5,-110 190.5,-110 190.5,-69 332.5,-69 332.5,-110"/>
<text text-anchor="start" x="198.5" y="-98" font-family="Helvetica,sans-Serif" font-size="10.00">polyfem::solver::Operator</text>
<text text-anchor="start" x="198.5" y="-87" font-family="Helvetica,sans-Serif" font-size="10.00">SplittingSolver::handle</text>
<text text-anchor="middle" x="261.5" y="-76" font-family="Helvetica,sans-Serif" font-size="10.00">_boundary_advection</text>
</a>
</g>
</g>
<!-- Node1&#45;&gt;Node13 -->
<g id="edge14_Node000001_Node000013" class="edge">
<title>Node1&#45;&gt;Node13</title>
<g id="a_edge14_Node000001_Node000013"><a xlink:title=" ">
<path fill="none" stroke="#63b8ff" d="M115.97,-144.48C139.59,-135.5 170.15,-123.87 197.08,-113.63"/>
<polygon fill="#63b8ff" stroke="#63b8ff" points="198.33,-116.9 206.43,-110.07 195.84,-110.35 198.33,-116.9"/>
</a>
</g>
</g>
<!-- Node14 -->
<g id="Node000014" class="node">
<title>Node14</title>
<g id="a_Node000014"><a xlink:href="classpolyfem_1_1solver_1_1_operator_splitting_solver.html#a7bb48a9ac9ec047080babfc71238c5c8" target="_top" xlink:title=" ">
<polygon fill="white" stroke="#666666" points="336,-196.5 187,-196.5 187,-166.5 336,-166.5 336,-196.5"/>
<text text-anchor="start" x="195" y="-184.5" font-family="Helvetica,sans-Serif" font-size="10.00">polyfem::solver::Operator</text>
<text text-anchor="middle" x="261.5" y="-173.5" font-family="Helvetica,sans-Serif" font-size="10.00">SplittingSolver::search_cell</text>
</a>
</g>
</g>
<!-- Node1&#45;&gt;Node14 -->
<g id="edge15_Node000001_Node000014" class="edge">
<title>Node1&#45;&gt;Node14</title>
<g id="a_edge15_Node000001_Node000014"><a xlink:title=" ">
<path fill="none" stroke="#63b8ff" d="M151.07,-168.42C159.52,-169.43 168.18,-170.46 176.73,-171.48"/>
<polygon fill="#63b8ff" stroke="#63b8ff" points="176.37,-174.97 186.72,-172.68 177.2,-168.02 176.37,-174.97"/>
</a>
</g>
</g>
<!-- Node3 -->
<g id="Node000003" class="node">
<title>Node3</title>
<g id="a_Node000003"><a xlink:href="classpolyfem_1_1basis_1_1_element_bases.html#a47d52083f050e4cb34eeab5656a86523" target="_top" xlink:title="Map the sample positions in the parametric domain to the object domain (if the element has no paramet...">
<polygon fill="white" stroke="#666666" points="714,-207.5 550,-207.5 550,-177.5 714,-177.5 714,-207.5"/>
<text text-anchor="start" x="558" y="-195.5" font-family="Helvetica,sans-Serif" font-size="10.00">polyfem::basis::ElementBases</text>
<text text-anchor="middle" x="632" y="-184.5" font-family="Helvetica,sans-Serif" font-size="10.00">::eval_geom_mapping</text>
</a>
</g>
</g>
<!-- Node2&#45;&gt;Node3 -->
<g id="edge2_Node000002_Node000003" class="edge">
<title>Node2&#45;&gt;Node3</title>
<g id="a_edge2_Node000002_Node000003"><a xlink:title=" ">
<path fill="none" stroke="#63b8ff" d="M514.16,-202.5C522.51,-201.78 531.11,-201.05 539.7,-200.31"/>
<polygon fill="#63b8ff" stroke="#63b8ff" points="540.08,-203.79 549.74,-199.45 539.48,-196.82 540.08,-203.79"/>
</a>
</g>
</g>
<!-- Node6 -->
<g id="Node000006" class="node">
<title>Node6</title>
<g id="a_Node000006"><a xlink:href="classpolyfem_1_1basis_1_1_element_bases.html#aa6ed093f463318ed61f89280cd7c2e55" target="_top" xlink:title="Evaluate the gradients of the geometric mapping defined above.">
<polygon fill="white" stroke="#666666" points="714,-255.5 550,-255.5 550,-225.5 714,-225.5 714,-255.5"/>
<text text-anchor="start" x="558" y="-243.5" font-family="Helvetica,sans-Serif" font-size="10.00">polyfem::basis::ElementBases</text>
<text text-anchor="middle" x="632" y="-232.5" font-family="Helvetica,sans-Serif" font-size="10.00">::eval_geom_mapping_grads</text>
</a>
</g>
</g>
<!-- Node2&#45;&gt;Node6 -->
<g id="edge5_Node000002_Node000006" class="edge">
<title>Node2&#45;&gt;Node6</title>
<g id="a_edge5_Node000002_Node000006"><a xlink:title=" ">
<path fill="none" stroke="#63b8ff" d="M514.16,-220.51C522.51,-221.93 531.11,-223.41 539.7,-224.88"/>
<polygon fill="#63b8ff" stroke="#63b8ff" points="539.3,-228.36 549.74,-226.6 540.48,-221.46 539.3,-228.36"/>
</a>
</g>
</g>
<!-- Node4 -->
<g id="Node000004" class="node">
<title>Node4</title>
<g id="a_Node000004"><a xlink:href="classpolyfem_1_1basis_1_1_element_bases.html#a6936d345f21ed506227618ef65dba6a6" target="_top" xlink:title="evaluate stored bases at given points on the reference element saves results to basis_values">
<polygon fill="white" stroke="#666666" points="914,-207.5 750,-207.5 750,-177.5 914,-177.5 914,-207.5"/>
<text text-anchor="start" x="758" y="-195.5" font-family="Helvetica,sans-Serif" font-size="10.00">polyfem::basis::ElementBases</text>
<text text-anchor="middle" x="832" y="-184.5" font-family="Helvetica,sans-Serif" font-size="10.00">::evaluate_bases</text>
</a>
</g>
</g>
<!-- Node3&#45;&gt;Node4 -->
<g id="edge3_Node000003_Node000004" class="edge">
<title>Node3&#45;&gt;Node4</title>
<g id="a_edge3_Node000003_Node000004"><a xlink:title=" ">
<path fill="none" stroke="#63b8ff" d="M714.11,-192.5C722.46,-192.5 730.99,-192.5 739.44,-192.5"/>
<polygon fill="#63b8ff" stroke="#63b8ff" points="739.7,-196 749.7,-192.5 739.7,-189 739.7,-196"/>
</a>
</g>
</g>
<!-- Node5 -->
<g id="Node000005" class="node">
<title>Node5</title>
<g id="a_Node000005"><a xlink:href="classpolyfem_1_1basis_1_1_element_bases.html#a9d6e4fd2a6d6491fed600c2a26680d89" target="_top" xlink:title="default to simply calling the Basis evaluation functions">
<polygon fill="white" stroke="#666666" points="1114,-207.5 950,-207.5 950,-177.5 1114,-177.5 1114,-207.5"/>
<text text-anchor="start" x="958" y="-195.5" font-family="Helvetica,sans-Serif" font-size="10.00">polyfem::basis::ElementBases</text>
<text text-anchor="middle" x="1032" y="-184.5" font-family="Helvetica,sans-Serif" font-size="10.00">::evaluate_bases_default</text>
</a>
</g>
</g>
<!-- Node4&#45;&gt;Node5 -->
<g id="edge4_Node000004_Node000005" class="edge">
<title>Node4&#45;&gt;Node5</title>
<g id="a_edge4_Node000004_Node000005"><a xlink:title=" ">
<path fill="none" stroke="#63b8ff" d="M914.11,-192.5C922.46,-192.5 930.99,-192.5 939.44,-192.5"/>
<polygon fill="#63b8ff" stroke="#63b8ff" points="939.7,-196 949.7,-192.5 939.7,-189 939.7,-196"/>
</a>
</g>
</g>
<!-- Node7 -->
<g id="Node000007" class="node">
<title>Node7</title>
<g id="a_Node000007"><a xlink:href="classpolyfem_1_1basis_1_1_element_bases.html#a731d20029949bd0255c9af1f91dfa74c" target="_top" xlink:title="evaluate gradient of stored bases at given points on the reference element saves results to basis_val...">
<polygon fill="white" stroke="#666666" points="914,-255.5 750,-255.5 750,-225.5 914,-225.5 914,-255.5"/>
<text text-anchor="start" x="758" y="-243.5" font-family="Helvetica,sans-Serif" font-size="10.00">polyfem::basis::ElementBases</text>
<text text-anchor="middle" x="832" y="-232.5" font-family="Helvetica,sans-Serif" font-size="10.00">::evaluate_grads</text>
</a>
</g>
</g>
<!-- Node6&#45;&gt;Node7 -->
<g id="edge6_Node000006_Node000007" class="edge">
<title>Node6&#45;&gt;Node7</title>
<g id="a_edge6_Node000006_Node000007"><a xlink:title=" ">
<path fill="none" stroke="#63b8ff" d="M714.11,-240.5C722.46,-240.5 730.99,-240.5 739.44,-240.5"/>
<polygon fill="#63b8ff" stroke="#63b8ff" points="739.7,-244 749.7,-240.5 739.7,-237 739.7,-244"/>
</a>
</g>
</g>
<!-- Node8 -->
<g id="Node000008" class="node">
<title>Node8</title>
<g id="a_Node000008"><a xlink:href="classpolyfem_1_1basis_1_1_element_bases.html#aae3b739e75920739799e866e4b0c448c" target="_top" xlink:title=" ">
<polygon fill="white" stroke="#666666" points="1114,-255.5 950,-255.5 950,-225.5 1114,-225.5 1114,-255.5"/>
<text text-anchor="start" x="958" y="-243.5" font-family="Helvetica,sans-Serif" font-size="10.00">polyfem::basis::ElementBases</text>
<text text-anchor="middle" x="1032" y="-232.5" font-family="Helvetica,sans-Serif" font-size="10.00">::evaluate_grads_default</text>
</a>
</g>
</g>
<!-- Node7&#45;&gt;Node8 -->
<g id="edge7_Node000007_Node000008" class="edge">
<title>Node7&#45;&gt;Node8</title>
<g id="a_edge7_Node000007_Node000008"><a xlink:title=" ">
<path fill="none" stroke="#63b8ff" d="M914.11,-240.5C922.46,-240.5 930.99,-240.5 939.44,-240.5"/>
<polygon fill="#63b8ff" stroke="#63b8ff" points="939.7,-244 949.7,-240.5 939.7,-237 939.7,-244"/>
</a>
</g>
</g>
<!-- Node9&#45;&gt;Node4 -->
<g id="edge9_Node000009_Node000004" class="edge">
<title>Node9&#45;&gt;Node4</title>
<g id="a_edge9_Node000009_Node000004"><a xlink:title=" ">
<path fill="none" stroke="#63b8ff" d="M703.64,-157.77C724.07,-163.34 746.25,-169.39 766.3,-174.85"/>
<polygon fill="#63b8ff" stroke="#63b8ff" points="765.38,-178.23 775.95,-177.49 767.22,-171.48 765.38,-178.23"/>
</a>
</g>
</g>
<!-- Node9&#45;&gt;Node7 -->
<g id="edge10_Node000009_Node000007" class="edge">
<title>Node9&#45;&gt;Node7</title>
<g id="a_edge10_Node000009_Node000007"><a xlink:title=" ">
<path fill="none" stroke="#63b8ff" d="M698.83,-159.08C704.17,-161.87 709.31,-165 714,-168.5 735.37,-184.45 728.11,-201.27 750,-216.5 752.16,-218 754.41,-219.41 756.74,-220.73"/>
<polygon fill="#63b8ff" stroke="#63b8ff" points="755.51,-224.03 766.01,-225.41 758.66,-217.78 755.51,-224.03"/>
</a>
</g>
</g>
<!-- Node10 -->
<g id="Node000010" class="node">
<title>Node10</title>
<g id="a_Node000010"><a xlink:href="classpolyfem_1_1assembler_1_1_element_assembly_values.html#a7ce3e8b5fceffa5bdde29ca3ac79459b" target="_top" xlink:title="void finalize(const Eigen::MatrixXd &amp;v, const Eigen::MatrixXd &amp;dx, const Eigen::MatrixXd &amp;dy); void f...">
<polygon fill="white" stroke="#666666" points="903.5,-159 760.5,-159 760.5,-118 903.5,-118 903.5,-159"/>
<text text-anchor="start" x="768.5" y="-147" font-family="Helvetica,sans-Serif" font-size="10.00">polyfem::assembler</text>
<text text-anchor="start" x="768.5" y="-136" font-family="Helvetica,sans-Serif" font-size="10.00">::ElementAssemblyValues</text>
<text text-anchor="middle" x="832" y="-125" font-family="Helvetica,sans-Serif" font-size="10.00">::finalize2d</text>
</a>
</g>
</g>
<!-- Node9&#45;&gt;Node10 -->
<g id="edge11_Node000009_Node000010" class="edge">
<title>Node9&#45;&gt;Node10</title>
<g id="a_edge11_Node000009_Node000010"><a xlink:title=" ">
<path fill="none" stroke="#63b8ff" d="M703.64,-138.5C718.77,-138.5 734.85,-138.5 750.32,-138.5"/>
<polygon fill="#63b8ff" stroke="#63b8ff" points="750.38,-142 760.38,-138.5 750.38,-135 750.38,-142"/>
</a>
</g>
</g>
<!-- Node11 -->
<g id="Node000011" class="node">
<title>Node11</title>
<g id="a_Node000011"><a xlink:href="classpolyfem_1_1assembler_1_1_element_assembly_values.html#af2830b447f50401acd4e69a57a4b235b" target="_top" xlink:title=" ">
<polygon fill="white" stroke="#666666" points="903.5,-100 760.5,-100 760.5,-59 903.5,-59 903.5,-100"/>
<text text-anchor="start" x="768.5" y="-88" font-family="Helvetica,sans-Serif" font-size="10.00">polyfem::assembler</text>
<text text-anchor="start" x="768.5" y="-77" font-family="Helvetica,sans-Serif" font-size="10.00">::ElementAssemblyValues</text>
<text text-anchor="middle" x="832" y="-66" font-family="Helvetica,sans-Serif" font-size="10.00">::finalize3d</text>
</a>
</g>
</g>
<!-- Node9&#45;&gt;Node11 -->
<g id="edge12_Node000009_Node000011" class="edge">
<title>Node9&#45;&gt;Node11</title>
<g id="a_edge12_Node000009_Node000011"><a xlink:title=" ">
<path fill="none" stroke="#63b8ff" d="M701.97,-117.95C718.21,-113.11 735.63,-107.92 752.26,-102.96"/>
<polygon fill="#63b8ff" stroke="#63b8ff" points="753.36,-106.29 761.94,-100.08 751.36,-99.58 753.36,-106.29"/>
</a>
</g>
</g>
<!-- Node12 -->
<g id="Node000012" class="node">
<title>Node12</title>
<g id="a_Node000012"><a xlink:href="classpolyfem_1_1assembler_1_1_element_assembly_values.html#abfc70df83b8de385510064a839273131" target="_top" xlink:title=" ">
<polygon fill="white" stroke="#666666" points="903.5,-41 760.5,-41 760.5,0 903.5,0 903.5,-41"/>
<text text-anchor="start" x="768.5" y="-29" font-family="Helvetica,sans-Serif" font-size="10.00">polyfem::assembler</text>
<text text-anchor="start" x="768.5" y="-18" font-family="Helvetica,sans-Serif" font-size="10.00">::ElementAssemblyValues</text>
<text text-anchor="middle" x="832" y="-7" font-family="Helvetica,sans-Serif" font-size="10.00">::finalize_global_element</text>
</a>
</g>
</g>
<!-- Node9&#45;&gt;Node12 -->
<g id="edge13_Node000009_Node000012" class="edge">
<title>Node9&#45;&gt;Node12</title>
<g id="a_edge13_Node000009_Node000012"><a xlink:title=" ">
<path fill="none" stroke="#63b8ff" d="M655.73,-117.81C678.3,-98.12 714.56,-68.73 750,-49.5 752.67,-48.05 755.43,-46.65 758.24,-45.3"/>
<polygon fill="#63b8ff" stroke="#63b8ff" points="759.73,-48.47 767.39,-41.14 756.83,-42.09 759.73,-48.47"/>
</a>
</g>
</g>
<!-- Node14&#45;&gt;Node2 -->
<g id="edge16_Node000014_Node000002" class="edge">
<title>Node14&#45;&gt;Node2</title>
<g id="a_edge16_Node000014_Node000002"><a xlink:title=" ">
<path fill="none" stroke="#63b8ff" d="M336.03,-192.56C344.52,-193.84 353.21,-195.14 361.78,-196.43"/>
<polygon fill="#63b8ff" stroke="#63b8ff" points="361.36,-199.91 371.77,-197.94 362.4,-192.99 361.36,-199.91"/>
</a>
</g>
</g>
</g>
</svg>
