<?xml version="1.0" encoding="UTF-8" standalone="no"?>
<!DOCTYPE svg PUBLIC "-//W3C//DTD SVG 1.1//EN"
 "http://www.w3.org/Graphics/SVG/1.1/DTD/svg11.dtd">
<!-- Generated by graphviz version 2.43.0 (0)
 -->
<!-- Title: polyfem::assembler::Problem::exact_grad Pages: 1 -->
<!--zoomable 230 -->

<svg id="main" version="1.1" xmlns="http://www.w3.org/2000/svg" xmlns:xlink="http://www.w3.org/1999/xlink" xml:space="preserve" onload="init(evt)">
<style type="text/css"><![CDATA[
.node, .edge {opacity: 0.7;}
.node.selected, .edge.selected {opacity: 1;}
.edge:hover path { stroke: red; }
.edge:hover polygon { stroke: red; fill: red; }
]]></style>

<defs>
  <circle id="rim" cx="0" cy="0" r="7"/>
  <circle id="rim2" cx="0" cy="0" r="3.5"/>
  <g id="zoomPlus">
    <use xlink:href="#rim" fill="#404040"><set attributeName="fill" to="#808080" begin="zoomplus.mouseover" end="zoomplus.mouseout"/></use>
    <path d="M-4,0h8M0,-4v8" fill="none" stroke="white" stroke-width="1.5" pointer-events="none"/>
  </g>
  <g id="zoomMin">
    <use xlink:href="#rim" fill="#404040"><set attributeName="fill" to="#808080" begin="zoomminus.mouseover" end="zoomminus.mouseout"/></use>
    <path d="M-4,0h8" fill="none" stroke="white" stroke-width="1.5" pointer-events="none"/>
  </g>
  <g id="arrowUp" transform="translate(30 24)">
    <use xlink:href="#rim"/>
    <path pointer-events="none" fill="none" stroke="white" stroke-width="1.5" d="M0,-3.0v7 M-2.5,-0.5L0,-3.0L2.5,-0.5"/>
  </g>
  <g id="arrowRight" transform="rotate(90) translate(36 -43)">
    <use xlink:href="#rim"/>
    <path pointer-events="none" fill="none" stroke="white" stroke-width="1.5" d="M0,-3.0v7 M-2.5,-0.5L0,-3.0L2.5,-0.5"/>
  </g>
  <g id="arrowDown" transform="rotate(180) translate(-30 -48)">
    <use xlink:href="#rim"/>
    <path pointer-events="none" fill="none" stroke="white" stroke-width="1.5" d="M0,-3.0v7 M-2.5,-0.5L0,-3.0L2.5,-0.5"/>
  </g>
  <g id="arrowLeft" transform="rotate(270) translate(-36 17)">
    <use xlink:href="#rim"/>
    <path pointer-events="none" fill="none" stroke="white" stroke-width="1.5" d="M0,-3.0v7 M-2.5,-0.5L0,-3.0L2.5,-0.5"/>
  </g>
  <g id="resetDef">
    <use xlink:href="#rim2" fill="#404040"><set attributeName="fill" to="#808080" begin="reset.mouseover" end="reset.mouseout"/></use>
  </g>
</defs>
<script type="application/ecmascript">
var viewWidth = 899;
var viewHeight = 230;
var sectionId = 'dynsection-4';
</script>
<script type="application/ecmascript" xlink:href="svg.min.js"/>
<svg id="graph" class="graph">
<g id="viewport">
<title>polyfem::assembler::Problem::exact_grad</title>
<!-- Node1 -->
<g id="Node000001" class="node">
<title>Node1</title>
<g id="a_Node000001"><a xlink:title=" ">
<polygon fill="#999999" stroke="#666666" points="891,-126 768,-126 768,-96 891,-96 891,-126"/>
<text text-anchor="start" x="776" y="-114" font-family="Helvetica,sans-Serif" font-size="10.00">polyfem::assembler</text>
<text text-anchor="middle" x="829.5" y="-103" font-family="Helvetica,sans-Serif" font-size="10.00">::Problem::exact_grad</text>
</a>
</g>
</g>
<!-- Node2 -->
<g id="Node000002" class="node">
<title>Node2</title>
<g id="a_Node000002"><a xlink:href="classpolyfem_1_1io_1_1_out_stats_data.html#a82dd3ebdfe11404430cc1beb193abe79" target="_top" xlink:title="compute errors">
<polygon fill="white" stroke="#666666" points="732,-126 589,-126 589,-96 732,-96 732,-126"/>
<text text-anchor="start" x="597" y="-114" font-family="Helvetica,sans-Serif" font-size="10.00">polyfem::io::OutStatsData</text>
<text text-anchor="middle" x="660.5" y="-103" font-family="Helvetica,sans-Serif" font-size="10.00">::compute_errors</text>
</a>
</g>
</g>
<!-- Node1&#45;&gt;Node2 -->
<g id="edge1_Node000001_Node000002" class="edge">
<title>Node1&#45;&gt;Node2</title>
<g id="a_edge1_Node000001_Node000002"><a xlink:title=" ">
<path fill="none" stroke="#63b8ff" d="M757.57,-111C749.15,-111 740.56,-111 732.14,-111"/>
<polygon fill="#63b8ff" stroke="#63b8ff" points="757.74,-114.5 767.74,-111 757.74,-107.5 757.74,-114.5"/>
</a>
</g>
</g>
<!-- Node3 -->
<g id="Node000003" class="node">
<title>Node3</title>
<g id="a_Node000003"><a xlink:href="classpolyfem_1_1legacy_1_1_state.html#a2608edad29f3a163556505a2a9b447d6" target="_top" xlink:title="computes all errors">
<polygon fill="white" stroke="#666666" points="525,-222 399,-222 399,-192 525,-192 525,-222"/>
<text text-anchor="start" x="407" y="-210" font-family="Helvetica,sans-Serif" font-size="10.00">polyfem::legacy::State</text>
<text text-anchor="middle" x="462" y="-199" font-family="Helvetica,sans-Serif" font-size="10.00">::compute_errors</text>
</a>
</g>
</g>
<!-- Node2&#45;&gt;Node3 -->
<g id="edge2_Node000002_Node000003" class="edge">
<title>Node2&#45;&gt;Node3</title>
<g id="a_edge2_Node000002_Node000003"><a xlink:title=" ">
<path fill="none" stroke="#63b8ff" d="M633.41,-132.3C612.71,-148.26 582.45,-169.58 553,-183 544.32,-186.96 534.86,-190.36 525.44,-193.26"/>
<polygon fill="#63b8ff" stroke="#63b8ff" points="635.69,-134.96 641.4,-126.04 631.37,-129.45 635.69,-134.96"/>
</a>
</g>
</g>
<!-- Node7 -->
<g id="Node000007" class="node">
<title>Node7</title>
<g id="a_Node000007"><a xlink:href="classpolyfem_1_1varform_1_1_bilaplacian_var_form.html#a0d82621794ba2db87b1c50d54e0f5635" target="_top" xlink:title="Get the error statistics of the variational formulation, for output purposes.">
<polygon fill="white" stroke="#666666" points="543,-174 381,-174 381,-144 543,-144 543,-174"/>
<text text-anchor="start" x="389" y="-162" font-family="Helvetica,sans-Serif" font-size="10.00">polyfem::varform::Bilaplacian</text>
<text text-anchor="middle" x="462" y="-151" font-family="Helvetica,sans-Serif" font-size="10.00">VarForm::compute_errors</text>
</a>
</g>
</g>
<!-- Node2&#45;&gt;Node7 -->
<g id="edge6_Node000002_Node000007" class="edge">
<title>Node2&#45;&gt;Node7</title>
<g id="a_edge6_Node000002_Node000007"><a xlink:title=" ">
<path fill="none" stroke="#63b8ff" d="M588.1,-128.44C567.23,-133.54 544.61,-139.07 524.42,-144"/>
<polygon fill="#63b8ff" stroke="#63b8ff" points="588.98,-131.83 597.87,-126.06 587.32,-125.03 588.98,-131.83"/>
</a>
</g>
</g>
<!-- Node8 -->
<g id="Node000008" class="node">
<title>Node8</title>
<g id="a_Node000008"><a xlink:href="classpolyfem_1_1varform_1_1_fluid_var_form.html#ac3ef607c072ac3f5b30cb43a04459f1a" target="_top" xlink:title="Get the error statistics of the variational formulation, for output purposes.">
<polygon fill="white" stroke="#666666" points="536,-126 388,-126 388,-96 536,-96 536,-126"/>
<text text-anchor="start" x="396" y="-114" font-family="Helvetica,sans-Serif" font-size="10.00">polyfem::varform::FluidVar</text>
<text text-anchor="middle" x="462" y="-103" font-family="Helvetica,sans-Serif" font-size="10.00">Form::compute_errors</text>
</a>
</g>
</g>
<!-- Node2&#45;&gt;Node8 -->
<g id="edge7_Node000002_Node000008" class="edge">
<title>Node2&#45;&gt;Node8</title>
<g id="a_edge7_Node000002_Node000008"><a xlink:title=" ">
<path fill="none" stroke="#63b8ff" d="M578.66,-111C564.53,-111 549.91,-111 536.01,-111"/>
<polygon fill="#63b8ff" stroke="#63b8ff" points="578.84,-114.5 588.84,-111 578.84,-107.5 578.84,-114.5"/>
</a>
</g>
</g>
<!-- Node9 -->
<g id="Node000009" class="node">
<title>Node9</title>
<g id="a_Node000009"><a xlink:href="classpolyfem_1_1varform_1_1_incompressible_elastic_var_form.html#aea9b4d7c389304ae913a71a64752ae45" target="_top" xlink:title="Get the error statistics of the variational formulation, for output purposes.">
<polygon fill="white" stroke="#666666" points="553,-78 371,-78 371,-48 553,-48 553,-78"/>
<text text-anchor="start" x="379" y="-66" font-family="Helvetica,sans-Serif" font-size="10.00">polyfem::varform::Incompressible</text>
<text text-anchor="middle" x="462" y="-55" font-family="Helvetica,sans-Serif" font-size="10.00">ElasticVarForm::compute_errors</text>
</a>
</g>
</g>
<!-- Node2&#45;&gt;Node9 -->
<g id="edge8_Node000002_Node000009" class="edge">
<title>Node2&#45;&gt;Node9</title>
<g id="a_edge8_Node000002_Node000009"><a xlink:title=" ">
<path fill="none" stroke="#63b8ff" d="M588.1,-93.56C567.23,-88.46 544.61,-82.93 524.42,-78"/>
<polygon fill="#63b8ff" stroke="#63b8ff" points="587.32,-96.97 597.87,-95.94 588.98,-90.17 587.32,-96.97"/>
</a>
</g>
</g>
<!-- Node10 -->
<g id="Node000010" class="node">
<title>Node10</title>
<g id="a_Node000010"><a xlink:href="classpolyfem_1_1varform_1_1_scalar_var_form.html#a3f8d9a1538acfbfe88604f961a837b1c" target="_top" xlink:title="Get the error statistics of the variational formulation, for output purposes.">
<polygon fill="white" stroke="#666666" points="532,-30 392,-30 392,0 532,0 532,-30"/>
<text text-anchor="start" x="400" y="-18" font-family="Helvetica,sans-Serif" font-size="10.00">polyfem::varform::Scalar</text>
<text text-anchor="middle" x="462" y="-7" font-family="Helvetica,sans-Serif" font-size="10.00">VarForm::compute_errors</text>
</a>
</g>
</g>
<!-- Node2&#45;&gt;Node10 -->
<g id="edge9_Node000002_Node000010" class="edge">
<title>Node2&#45;&gt;Node10</title>
<g id="a_edge9_Node000002_Node000010"><a xlink:title=" ">
<path fill="none" stroke="#63b8ff" d="M633.41,-89.7C612.71,-73.74 582.45,-52.42 553,-39 545.64,-35.65 537.73,-32.69 529.75,-30.1"/>
<polygon fill="#63b8ff" stroke="#63b8ff" points="631.37,-92.55 641.4,-95.96 635.69,-87.04 631.37,-92.55"/>
</a>
</g>
</g>
<!-- Node4 -->
<g id="Node000004" class="node">
<title>Node4</title>
<g id="a_Node000004"><a xlink:href="main_8cpp.html#a0d6fd6ed6fda5fc5e4b6ed34b45fe322" target="_top" xlink:title=" ">
<polygon fill="white" stroke="#666666" points="335,-222 224,-222 224,-192 335,-192 335,-222"/>
<text text-anchor="start" x="232" y="-210" font-family="Helvetica,sans-Serif" font-size="10.00">forward_simulation</text>
<text text-anchor="middle" x="279.5" y="-199" font-family="Helvetica,sans-Serif" font-size="10.00">_with_legacy_state</text>
</a>
</g>
</g>
<!-- Node3&#45;&gt;Node4 -->
<g id="edge3_Node000003_Node000004" class="edge">
<title>Node3&#45;&gt;Node4</title>
<g id="a_edge3_Node000003_Node000004"><a xlink:title=" ">
<path fill="none" stroke="#63b8ff" d="M388.54,-207C370.74,-207 351.99,-207 335.19,-207"/>
<polygon fill="#63b8ff" stroke="#63b8ff" points="388.88,-210.5 398.88,-207 388.88,-203.5 388.88,-210.5"/>
</a>
</g>
</g>
<!-- Node5 -->
<g id="Node000005" class="node">
<title>Node5</title>
<g id="a_Node000005"><a xlink:href="main_8cpp.html#aec889c702a246ad7f332c75ab7adb438" target="_top" xlink:title=" ">
<polygon fill="white" stroke="#666666" points="188,-216.5 77,-216.5 77,-197.5 188,-197.5 188,-216.5"/>
<text text-anchor="middle" x="132.5" y="-204.5" font-family="Helvetica,sans-Serif" font-size="10.00">forward_simulation</text>
</a>
</g>
</g>
<!-- Node4&#45;&gt;Node5 -->
<g id="edge4_Node000004_Node000005" class="edge">
<title>Node4&#45;&gt;Node5</title>
<g id="a_edge4_Node000004_Node000005"><a xlink:title=" ">
<path fill="none" stroke="#63b8ff" d="M213.54,-207C205.14,-207 196.61,-207 188.4,-207"/>
<polygon fill="#63b8ff" stroke="#63b8ff" points="213.68,-210.5 223.68,-207 213.68,-203.5 213.68,-210.5"/>
</a>
</g>
</g>
<!-- Node6 -->
<g id="Node000006" class="node">
<title>Node6</title>
<g id="a_Node000006"><a xlink:href="main_8cpp.html#a3c04138a5bfe5d72780bb7e82a18e627" target="_top" xlink:title=" ">
<polygon fill="white" stroke="#666666" points="41,-216.5 0,-216.5 0,-197.5 41,-197.5 41,-216.5"/>
<text text-anchor="middle" x="20.5" y="-204.5" font-family="Helvetica,sans-Serif" font-size="10.00">main</text>
</a>
</g>
</g>
<!-- Node5&#45;&gt;Node6 -->
<g id="edge5_Node000005_Node000006" class="edge">
<title>Node5&#45;&gt;Node6</title>
<g id="a_edge5_Node000005_Node000006"><a xlink:title=" ">
<path fill="none" stroke="#63b8ff" d="M66.64,-207C57.35,-207 48.45,-207 41.05,-207"/>
<polygon fill="#63b8ff" stroke="#63b8ff" points="66.82,-210.5 76.82,-207 66.82,-203.5 66.82,-210.5"/>
</a>
</g>
</g>
</g>
</svg>

<g id="navigator" transform="translate(0 0)" fill="#404254">
  <rect fill="#f2f5e9" fill-opacity="0.5" stroke="#606060" stroke-width=".5" x="0" y="0" width="60" height="60"/>
  <use id="zoomplus" xlink:href="#zoomPlus" x="17" y="9" onmousedown="handleZoom(evt,'in')"/>
  <use id="zoomminus" xlink:href="#zoomMin" x="42" y="9" onmousedown="handleZoom(evt,'out')"/>
  <use id="reset" xlink:href="#resetDef" x="30" y="36" onmousedown="handleReset()"/>
   <use id="arrowup" xlink:href="#arrowUp" x="0" y="0" onmousedown="handlePan(0,-1)"/>
  <use id="arrowright" xlink:href="#arrowRight" x="0" y="0" onmousedown="handlePan(1,0)"/>
  <use id="arrowdown" xlink:href="#arrowDown" x="0" y="0" onmousedown="handlePan(0,1)"/>
  <use id="arrowleft" xlink:href="#arrowLeft" x="0" y="0" onmousedown="handlePan(-1,0)"/>
</g>
<svg viewBox="0 0 15 15" width="100%" height="30px" preserveAspectRatio="xMaxYMin meet">
 <g id="arrow_out" transform="scale(0.3 0.3)">
  <a xlink:href="classpolyfem_1_1assembler_1_1_problem_a7ec16ec0a2556437ba3c67788c7032f4_icgraph_org.svg" target="_base">
   <rect id="button" ry="5" rx="5" y="6" x="6" height="38" width="38"
        fill="#f2f5e9" fill-opacity="0.5" stroke="#606060" stroke-width="1.0"/>
   <path id="arrow"
     d="M 11.500037,31.436501 C 11.940474,20.09759 22.043105,11.32322 32.158766,21.979434 L 37.068811,17.246167 C 37.068811,17.246167 37.088388,32 37.088388,32 L 22.160133,31.978069 C 22.160133,31.978069 26.997745,27.140456 26.997745,27.140456 C 18.528582,18.264221 13.291696,25.230495 11.500037,31.436501 z"
     style="fill:#404040;"/>
  </a>
 </g>
</svg>

<style type='text/css'>
<![CDATA[
[data-mouse-over-selected='false'] { opacity: 0.7; }
[data-mouse-over-selected='true']  { opacity: 1.0; }
]]>
</style>
<script type="application/ecmascript"><![CDATA[
document.addEventListener('DOMContentLoaded', (event) => {
  highlightEdges();
  highlightAdjacentNodes();
});
]]></script>
</svg>
