<?xml version="1.0" encoding="UTF-8" standalone="no"?>
<!DOCTYPE svg PUBLIC "-//W3C//DTD SVG 1.1//EN"
 "http://www.w3.org/Graphics/SVG/1.1/DTD/svg11.dtd">
<!-- Generated by graphviz version 2.43.0 (0)
 -->
<!-- Title: polyfem::problem::ProblemWithSolution::eval_fun Pages: 1 -->
<!--zoomable 170 -->
<svg id="main" version="1.1" xmlns="http://www.w3.org/2000/svg" xmlns:xlink="http://www.w3.org/1999/xlink" xml:space="preserve" onload="init(evt)">
<style type="text/css"><![CDATA[
.edge:hover path { stroke: red; }
.edge:hover polygon { stroke: red; fill: red; }
]]></style>
<script type="text/javascript"><![CDATA[
var edges = document.getElementsByTagName('g');
if (edges && edges.length) {
  for (var i=0;i<edges.length;i++) {
    if (edges[i].id.substr(0,4)=='edge') {
      edges[i].setAttribute('class','edge');
    }
  }
}
]]></script>
        <defs>
                <circle id="rim" cx="0" cy="0" r="7"/>
                <circle id="rim2" cx="0" cy="0" r="3.5"/>
                <g id="zoomPlus">
                        <use xlink:href="#rim" fill="#404040">
                                <set attributeName="fill" to="#808080" begin="zoomplus.mouseover" end="zoomplus.mouseout"/>
                        </use>
                        <path d="M-4,0h8M0,-4v8" fill="none" stroke="white" stroke-width="1.5" pointer-events="none"/>
                </g>
                <g id="zoomMin">
                        <use xlink:href="#rim" fill="#404040">
                                <set attributeName="fill" to="#808080" begin="zoomminus.mouseover" end="zoomminus.mouseout"/>
                        </use>
                        <path d="M-4,0h8" fill="none" stroke="white" stroke-width="1.5" pointer-events="none"/>
                </g>
                <g id="dirArrow">
                        <path fill="none" stroke="white" stroke-width="1.5" d="M0,-3.0v7 M-2.5,-0.5L0,-3.0L2.5,-0.5"/>
                </g>
               <g id="resetDef">
                       <use xlink:href="#rim2" fill="#404040">
                               <set attributeName="fill" to="#808080" begin="reset.mouseover" end="reset.mouseout"/>
                       </use>
               </g>
        </defs>

<script type="text/javascript">
var viewWidth = 530;
var viewHeight = 170;
var sectionId = 'dynsection-3';
</script>
<script xlink:href="svgpan.js"/>
<svg id="graph" class="graph">
<g id="viewport">
<title>polyfem::problem::ProblemWithSolution::eval_fun</title>
<!-- Node1 -->
<g id="node1" class="node">
<title>Node1</title>
<g id="a_node1"><a xlink:title=" ">
<polygon fill="#bfbfbf" stroke="black" points="372,-49.5 372,-79.5 522,-79.5 522,-49.5 372,-49.5"/>
<text text-anchor="start" x="380" y="-67.5" font-family="Helvetica,sans-Serif" font-size="10.00">polyfem::problem::Problem</text>
<text text-anchor="middle" x="447" y="-56.5" font-family="Helvetica,sans-Serif" font-size="10.00">WithSolution::eval_fun</text>
</a>
</g>
</g>
<!-- Node2 -->
<g id="node2" class="node">
<title>Node2</title>
<g id="a_node2"><a xlink:href="classpolyfem_1_1problem_1_1_problem_with_solution.html#a7a2e8c1d3f156d7e16e2fe9fa52fd891" target="_top" xlink:title=" ">
<polygon fill="none" stroke="black" points="186,-98.5 186,-128.5 336,-128.5 336,-98.5 186,-98.5"/>
<text text-anchor="start" x="194" y="-116.5" font-family="Helvetica,sans-Serif" font-size="10.00">polyfem::problem::Problem</text>
<text text-anchor="middle" x="261" y="-105.5" font-family="Helvetica,sans-Serif" font-size="10.00">WithSolution::exact</text>
</a>
</g>
</g>
<!-- Node1&#45;&gt;Node2 -->
<g id="edge1" class="edge">
<title>Node1&#45;&gt;Node2</title>
<path fill="none" stroke="midnightblue" d="M379.82,-82.12C359.69,-87.48 337.77,-93.32 318.35,-98.49"/>
<polygon fill="midnightblue" stroke="midnightblue" points="380.78,-85.49 389.54,-79.53 378.98,-78.73 380.78,-85.49"/>
</g>
<!-- Node5 -->
<g id="node5" class="node">
<title>Node5</title>
<g id="a_node5"><a xlink:href="classpolyfem_1_1problem_1_1_problem_with_solution.html#af5ad4a407d0ba561ea823dd28d647697" target="_top" xlink:title=" ">
<polygon fill="none" stroke="black" points="186,-49.5 186,-79.5 336,-79.5 336,-49.5 186,-49.5"/>
<text text-anchor="start" x="194" y="-67.5" font-family="Helvetica,sans-Serif" font-size="10.00">polyfem::problem::Problem</text>
<text text-anchor="middle" x="261" y="-56.5" font-family="Helvetica,sans-Serif" font-size="10.00">WithSolution::exact_grad</text>
</a>
</g>
</g>
<!-- Node1&#45;&gt;Node5 -->
<g id="edge4" class="edge">
<title>Node1&#45;&gt;Node5</title>
<path fill="none" stroke="midnightblue" d="M361.93,-64.5C353.35,-64.5 344.66,-64.5 336.19,-64.5"/>
<polygon fill="midnightblue" stroke="midnightblue" points="361.96,-68 371.96,-64.5 361.96,-61 361.96,-68"/>
</g>
<!-- Node6 -->
<g id="node6" class="node">
<title>Node6</title>
<g id="a_node6"><a xlink:href="classpolyfem_1_1problem_1_1_problem_with_solution.html#a7ac8515f2014c5b98b91146bf5b7ed13" target="_top" xlink:title=" ">
<polygon fill="none" stroke="black" points="186,-0.5 186,-30.5 336,-30.5 336,-0.5 186,-0.5"/>
<text text-anchor="start" x="194" y="-18.5" font-family="Helvetica,sans-Serif" font-size="10.00">polyfem::problem::Problem</text>
<text text-anchor="middle" x="261" y="-7.5" font-family="Helvetica,sans-Serif" font-size="10.00">WithSolution::rhs</text>
</a>
</g>
</g>
<!-- Node1&#45;&gt;Node6 -->
<g id="edge5" class="edge">
<title>Node1&#45;&gt;Node6</title>
<path fill="none" stroke="midnightblue" d="M379.82,-46.88C359.69,-41.52 337.77,-35.68 318.35,-30.51"/>
<polygon fill="midnightblue" stroke="midnightblue" points="378.98,-50.27 389.54,-49.47 380.78,-43.51 378.98,-50.27"/>
</g>
<!-- Node3 -->
<g id="node3" class="node">
<title>Node3</title>
<g id="a_node3"><a xlink:href="classpolyfem_1_1problem_1_1_problem_with_solution.html#a7b0a5bced75f5295ce5aee7750d8ec16" target="_top" xlink:title=" ">
<polygon fill="none" stroke="black" points="0,-131.5 0,-161.5 150,-161.5 150,-131.5 0,-131.5"/>
<text text-anchor="start" x="8" y="-149.5" font-family="Helvetica,sans-Serif" font-size="10.00">polyfem::problem::Problem</text>
<text text-anchor="middle" x="75" y="-138.5" font-family="Helvetica,sans-Serif" font-size="10.00">WithSolution::dirichlet_bc</text>
</a>
</g>
</g>
<!-- Node2&#45;&gt;Node3 -->
<g id="edge2" class="edge">
<title>Node2&#45;&gt;Node3</title>
<path fill="none" stroke="midnightblue" d="M175.93,-128.58C167.35,-130.12 158.66,-131.67 150.19,-133.19"/>
<polygon fill="midnightblue" stroke="midnightblue" points="176.73,-131.99 185.96,-126.78 175.49,-125.1 176.73,-131.99"/>
</g>
<!-- Node4 -->
<g id="node4" class="node">
<title>Node4</title>
<g id="a_node4"><a xlink:href="classpolyfem_1_1problem_1_1_generic_scalar_problem_exact.html#af7be02bcf8da99c6e992470f4326a783" target="_top" xlink:title=" ">
<polygon fill="none" stroke="black" points="1,-71 1,-112 149,-112 149,-71 1,-71"/>
<text text-anchor="start" x="9" y="-100" font-family="Helvetica,sans-Serif" font-size="10.00">polyfem::problem::Generic</text>
<text text-anchor="start" x="9" y="-89" font-family="Helvetica,sans-Serif" font-size="10.00">ScalarProblemExact::initial</text>
<text text-anchor="middle" x="75" y="-78" font-family="Helvetica,sans-Serif" font-size="10.00">_solution</text>
</a>
</g>
</g>
<!-- Node2&#45;&gt;Node4 -->
<g id="edge3" class="edge">
<title>Node2&#45;&gt;Node4</title>
<path fill="none" stroke="midnightblue" d="M175.97,-103.45C167.06,-102.39 158.06,-101.31 149.29,-100.26"/>
<polygon fill="midnightblue" stroke="midnightblue" points="175.61,-106.93 185.96,-104.65 176.44,-99.98 175.61,-106.93"/>
</g>
<!-- Node7 -->
<g id="node7" class="node">
<title>Node7</title>
<g id="a_node7"><a xlink:href="classpolyfem_1_1problem_1_1_generic_scalar_problem_exact.html#ae9c96b2b7d3a6e1dac8fa7cec1e82f55" target="_top" xlink:title=" ">
<polygon fill="none" stroke="black" points="1.5,-0.5 1.5,-30.5 148.5,-30.5 148.5,-0.5 1.5,-0.5"/>
<text text-anchor="start" x="9.5" y="-18.5" font-family="Helvetica,sans-Serif" font-size="10.00">polyfem::problem::Generic</text>
<text text-anchor="middle" x="75" y="-7.5" font-family="Helvetica,sans-Serif" font-size="10.00">ScalarProblemExact::rhs</text>
</a>
</g>
</g>
<!-- Node6&#45;&gt;Node7 -->
<g id="edge6" class="edge">
<title>Node6&#45;&gt;Node7</title>
<path fill="none" stroke="midnightblue" d="M175.8,-15.5C166.75,-15.5 157.6,-15.5 148.7,-15.5"/>
<polygon fill="midnightblue" stroke="midnightblue" points="175.96,-19 185.96,-15.5 175.96,-12 175.96,-19"/>
</g>
</g>
</svg>
        <g id="navigator" transform="translate(0 0)" fill="#404254">
                <rect fill="#f2f5e9" fill-opacity="0.5" stroke="#606060" stroke-width=".5" x="0" y="0" width="60" height="60"/>
                <use id="zoomplus" xlink:href="#zoomPlus" x="17" y="9" onmousedown="handleZoom(evt,'in')"/>
                <use id="zoomminus" xlink:href="#zoomMin" x="42" y="9" onmousedown="handleZoom(evt,'out')"/>
                <use id="reset" xlink:href="#resetDef" x="30" y="36" onmousedown="handleReset()"/>
                <g id="arrowUp" xlink:href="#dirArrow" transform="translate(30 24)" onmousedown="handlePan(0,-1)">
                  <use xlink:href="#rim" fill="#404040">
                        <set attributeName="fill" to="#808080" begin="arrowUp.mouseover" end="arrowUp.mouseout"/>
                  </use>
                  <path fill="none" stroke="white" stroke-width="1.5" d="M0,-3.0v7 M-2.5,-0.5L0,-3.0L2.5,-0.5"/>
                </g>
                <g id="arrowRight" xlink:href="#dirArrow" transform="rotate(90) translate(36 -43)" onmousedown="handlePan(1,0)">
                  <use xlink:href="#rim" fill="#404040">
                        <set attributeName="fill" to="#808080" begin="arrowRight.mouseover" end="arrowRight.mouseout"/>
                  </use>
                  <path fill="none" stroke="white" stroke-width="1.5" d="M0,-3.0v7 M-2.5,-0.5L0,-3.0L2.5,-0.5"/>
                </g>
                <g id="arrowDown" xlink:href="#dirArrow" transform="rotate(180) translate(-30 -48)" onmousedown="handlePan(0,1)">
                  <use xlink:href="#rim" fill="#404040">
                        <set attributeName="fill" to="#808080" begin="arrowDown.mouseover" end="arrowDown.mouseout"/>
                  </use>
                  <path fill="none" stroke="white" stroke-width="1.5" d="M0,-3.0v7 M-2.5,-0.5L0,-3.0L2.5,-0.5"/>
                </g>
                <g id="arrowLeft" xlink:href="#dirArrow" transform="rotate(270) translate(-36 17)" onmousedown="handlePan(-1,0)">
                  <use xlink:href="#rim" fill="#404040">
                        <set attributeName="fill" to="#808080" begin="arrowLeft.mouseover" end="arrowLeft.mouseout"/>
                  </use>
                  <path fill="none" stroke="white" stroke-width="1.5" d="M0,-3.0v7 M-2.5,-0.5L0,-3.0L2.5,-0.5"/>
                </g>
        </g>
        <svg viewBox="0 0 15 15" width="100%" height="30px" preserveAspectRatio="xMaxYMin meet">
         <g id="arrow_out" transform="scale(0.3 0.3)">
          <a xlink:href="classpolyfem_1_1problem_1_1_problem_with_solution_ab7ef1ebf3e2800bddc0aa1a6e27acafa_icgraph_org.svg" target="_base">
           <rect id="button" ry="5" rx="5" y="6" x="6" height="38" width="38"
                fill="#f2f5e9" fill-opacity="0.5" stroke="#606060" stroke-width="1.0"/>
           <path id="arrow"
             d="M 11.500037,31.436501 C 11.940474,20.09759 22.043105,11.32322 32.158766,21.979434 L 37.068811,17.246167 C 37.068811,17.246167 37.088388,32 37.088388,32 L 22.160133,31.978069 C 22.160133,31.978069 26.997745,27.140456 26.997745,27.140456 C 18.528582,18.264221 13.291696,25.230495 11.500037,31.436501 z"
             style="fill:#404040;"/>
          </a>
         </g>
        </svg>
</svg>
