<?xml version="1.0" encoding="UTF-8" standalone="no"?>
<!DOCTYPE svg PUBLIC "-//W3C//DTD SVG 1.1//EN"
 "http://www.w3.org/Graphics/SVG/1.1/DTD/svg11.dtd">
<!-- Generated by graphviz version 2.43.0 (0)
 -->
<!-- Title: polyfem::solver::SpatialIntegralForm::set_integral_type Pages: 1 -->
<!--zoomable 518 -->

<svg id="main" version="1.1" xmlns="http://www.w3.org/2000/svg" xmlns:xlink="http://www.w3.org/1999/xlink" xml:space="preserve" onload="init(evt)">
<style type="text/css"><![CDATA[
.node, .edge {opacity: 0.7;}
.node.selected, .edge.selected {opacity: 1;}
.edge:hover path { stroke: red; }
.edge:hover polygon { stroke: red; fill: red; }
]]></style>

<defs>
  <circle id="rim" cx="0" cy="0" r="7"/>
  <circle id="rim2" cx="0" cy="0" r="3.5"/>
  <g id="zoomPlus">
    <use xlink:href="#rim" fill="#404040"><set attributeName="fill" to="#808080" begin="zoomplus.mouseover" end="zoomplus.mouseout"/></use>
    <path d="M-4,0h8M0,-4v8" fill="none" stroke="white" stroke-width="1.5" pointer-events="none"/>
  </g>
  <g id="zoomMin">
    <use xlink:href="#rim" fill="#404040"><set attributeName="fill" to="#808080" begin="zoomminus.mouseover" end="zoomminus.mouseout"/></use>
    <path d="M-4,0h8" fill="none" stroke="white" stroke-width="1.5" pointer-events="none"/>
  </g>
  <g id="arrowUp" transform="translate(30 24)">
    <use xlink:href="#rim"/>
    <path pointer-events="none" fill="none" stroke="white" stroke-width="1.5" d="M0,-3.0v7 M-2.5,-0.5L0,-3.0L2.5,-0.5"/>
  </g>
  <g id="arrowRight" transform="rotate(90) translate(36 -43)">
    <use xlink:href="#rim"/>
    <path pointer-events="none" fill="none" stroke="white" stroke-width="1.5" d="M0,-3.0v7 M-2.5,-0.5L0,-3.0L2.5,-0.5"/>
  </g>
  <g id="arrowDown" transform="rotate(180) translate(-30 -48)">
    <use xlink:href="#rim"/>
    <path pointer-events="none" fill="none" stroke="white" stroke-width="1.5" d="M0,-3.0v7 M-2.5,-0.5L0,-3.0L2.5,-0.5"/>
  </g>
  <g id="arrowLeft" transform="rotate(270) translate(-36 17)">
    <use xlink:href="#rim"/>
    <path pointer-events="none" fill="none" stroke="white" stroke-width="1.5" d="M0,-3.0v7 M-2.5,-0.5L0,-3.0L2.5,-0.5"/>
  </g>
  <g id="resetDef">
    <use xlink:href="#rim2" fill="#404040"><set attributeName="fill" to="#808080" begin="reset.mouseover" end="reset.mouseout"/></use>
  </g>
</defs>
<script type="application/ecmascript">
var viewWidth = 386;
var viewHeight = 518;
var sectionId = 'dynsection-7';
</script>
<script type="application/ecmascript" xlink:href="svg.min.js"/>
<svg id="graph" class="graph">
<g id="viewport">
<title>polyfem::solver::SpatialIntegralForm::set_integral_type</title>
<!-- Node1 -->
<g id="Node000001" class="node">
<title>Node1</title>
<g id="a_Node000001"><a xlink:title=" ">
<polygon fill="#999999" stroke="#666666" points="378,-270 208,-270 208,-240 378,-240 378,-270"/>
<text text-anchor="start" x="216" y="-258" font-family="Helvetica,sans-Serif" font-size="10.00">polyfem::solver::Spatial</text>
<text text-anchor="middle" x="293" y="-247" font-family="Helvetica,sans-Serif" font-size="10.00">IntegralForm::set_integral_type</text>
</a>
</g>
</g>
<!-- Node2 -->
<g id="Node000002" class="node">
<title>Node2</title>
<g id="a_Node000002"><a xlink:href="classpolyfem_1_1solver_1_1_acceleration_form.html#a6298ccc8ef2e69ecce6af90689117609" target="_top" xlink:title=" ">
<polygon fill="white" stroke="#666666" points="166,-510 6,-510 6,-480 166,-480 166,-510"/>
<text text-anchor="start" x="14" y="-498" font-family="Helvetica,sans-Serif" font-size="10.00">polyfem::solver::Acceleration</text>
<text text-anchor="middle" x="86" y="-487" font-family="Helvetica,sans-Serif" font-size="10.00">Form::AccelerationForm</text>
</a>
</g>
</g>
<!-- Node1&#45;&gt;Node2 -->
<g id="edge1_Node000001_Node000002" class="edge">
<title>Node1&#45;&gt;Node2</title>
<g id="a_edge1_Node000001_Node000002"><a xlink:title=" ">
<path fill="none" stroke="#63b8ff" d="M285.08,-280.08C271.32,-325.23 236.15,-420.23 172,-471 167.67,-474.43 162.88,-477.36 157.84,-479.88"/>
<polygon fill="#63b8ff" stroke="#63b8ff" points="288.52,-280.81 287.99,-270.22 281.8,-278.83 288.52,-280.81"/>
</a>
</g>
</g>
<!-- Node3 -->
<g id="Node000003" class="node">
<title>Node3</title>
<g id="a_Node000003"><a xlink:href="classpolyfem_1_1solver_1_1_compliance_form.html#a40caf0d8ba7fd1dcc06560820f104ad6" target="_top" xlink:title=" ">
<polygon fill="white" stroke="#666666" points="164.5,-462 7.5,-462 7.5,-432 164.5,-432 164.5,-462"/>
<text text-anchor="start" x="15.5" y="-450" font-family="Helvetica,sans-Serif" font-size="10.00">polyfem::solver::Compliance</text>
<text text-anchor="middle" x="86" y="-439" font-family="Helvetica,sans-Serif" font-size="10.00">Form::ComplianceForm</text>
</a>
</g>
</g>
<!-- Node1&#45;&gt;Node3 -->
<g id="edge2_Node000001_Node000003" class="edge">
<title>Node1&#45;&gt;Node3</title>
<g id="a_edge2_Node000001_Node000003"><a xlink:title=" ">
<path fill="none" stroke="#63b8ff" d="M281.06,-279.65C263.46,-316.47 225.33,-385.5 172,-423 167.11,-426.44 161.73,-429.39 156.14,-431.92"/>
<polygon fill="#63b8ff" stroke="#63b8ff" points="284.43,-280.72 285.48,-270.18 278.08,-277.76 284.43,-280.72"/>
</a>
</g>
</g>
<!-- Node4 -->
<g id="Node000004" class="node">
<title>Node4</title>
<g id="a_Node000004"><a xlink:href="classpolyfem_1_1solver_1_1_elastic_energy_form.html#ac69fe620e076deaed04c4830a9197539" target="_top" xlink:title=" ">
<polygon fill="white" stroke="#666666" points="172,-414 0,-414 0,-384 172,-384 172,-414"/>
<text text-anchor="start" x="8" y="-402" font-family="Helvetica,sans-Serif" font-size="10.00">polyfem::solver::Elastic</text>
<text text-anchor="middle" x="86" y="-391" font-family="Helvetica,sans-Serif" font-size="10.00">EnergyForm::ElasticEnergyForm</text>
</a>
</g>
</g>
<!-- Node1&#45;&gt;Node4 -->
<g id="edge3_Node000001_Node000004" class="edge">
<title>Node1&#45;&gt;Node4</title>
<g id="a_edge3_Node000001_Node000004"><a xlink:title=" ">
<path fill="none" stroke="#63b8ff" d="M274.63,-278.56C253.37,-305.72 214.89,-349.85 172,-375 166.18,-378.41 159.85,-381.36 153.36,-383.9"/>
<polygon fill="#63b8ff" stroke="#63b8ff" points="277.59,-280.44 280.9,-270.38 272.04,-276.18 277.59,-280.44"/>
</a>
</g>
</g>
<!-- Node5 -->
<g id="Node000005" class="node">
<title>Node5</title>
<g id="a_Node000005"><a xlink:href="classpolyfem_1_1solver_1_1_kinetic_form.html#ace1a08a36ed736bf41f088ea0351b4e1" target="_top" xlink:title=" ">
<polygon fill="white" stroke="#666666" points="152.5,-366 19.5,-366 19.5,-336 152.5,-336 152.5,-366"/>
<text text-anchor="start" x="27.5" y="-354" font-family="Helvetica,sans-Serif" font-size="10.00">polyfem::solver::Kinetic</text>
<text text-anchor="middle" x="86" y="-343" font-family="Helvetica,sans-Serif" font-size="10.00">Form::KineticForm</text>
</a>
</g>
</g>
<!-- Node1&#45;&gt;Node5 -->
<g id="edge4_Node000001_Node000005" class="edge">
<title>Node1&#45;&gt;Node5</title>
<g id="a_edge4_Node000001_Node000005"><a xlink:title=" ">
<path fill="none" stroke="#63b8ff" d="M262.33,-275.85C238.74,-291.66 204.43,-312.99 172,-327 164.4,-330.28 156.22,-333.25 148.05,-335.89"/>
<polygon fill="#63b8ff" stroke="#63b8ff" points="264.51,-278.6 270.82,-270.09 260.58,-272.81 264.51,-278.6"/>
</a>
</g>
</g>
<!-- Node6 -->
<g id="Node000006" class="node">
<title>Node6</title>
<g id="a_Node000006"><a xlink:href="classpolyfem_1_1solver_1_1_mesh_target_form.html#a50d2be5542a87526f8a2d7fc52911922" target="_top" xlink:title=" ">
<polygon fill="white" stroke="#666666" points="163.5,-318 8.5,-318 8.5,-288 163.5,-288 163.5,-318"/>
<text text-anchor="start" x="16.5" y="-306" font-family="Helvetica,sans-Serif" font-size="10.00">polyfem::solver::MeshTarget</text>
<text text-anchor="middle" x="86" y="-295" font-family="Helvetica,sans-Serif" font-size="10.00">Form::MeshTargetForm</text>
</a>
</g>
</g>
<!-- Node1&#45;&gt;Node6 -->
<g id="edge5_Node000001_Node000006" class="edge">
<title>Node1&#45;&gt;Node6</title>
<g id="a_edge5_Node000001_Node000006"><a xlink:title=" ">
<path fill="none" stroke="#63b8ff" d="M217.81,-272.37C195.95,-277.49 172.23,-283.04 151.07,-288"/>
<polygon fill="#63b8ff" stroke="#63b8ff" points="218.76,-275.74 227.7,-270.06 217.16,-268.93 218.76,-275.74"/>
</a>
</g>
</g>
<!-- Node7 -->
<g id="Node000007" class="node">
<title>Node7</title>
<g id="a_Node000007"><a xlink:href="classpolyfem_1_1solver_1_1_position_form.html#a06bdfa1b9bd948bb9b38ffd21e2f58fe" target="_top" xlink:title=" ">
<polygon fill="white" stroke="#666666" points="155,-270 17,-270 17,-240 155,-240 155,-270"/>
<text text-anchor="start" x="25" y="-258" font-family="Helvetica,sans-Serif" font-size="10.00">polyfem::solver::Position</text>
<text text-anchor="middle" x="86" y="-247" font-family="Helvetica,sans-Serif" font-size="10.00">Form::PositionForm</text>
</a>
</g>
</g>
<!-- Node1&#45;&gt;Node7 -->
<g id="edge6_Node000001_Node000007" class="edge">
<title>Node1&#45;&gt;Node7</title>
<g id="a_edge6_Node000001_Node000007"><a xlink:title=" ">
<path fill="none" stroke="#63b8ff" d="M197.44,-255C183.24,-255 168.83,-255 155.31,-255"/>
<polygon fill="#63b8ff" stroke="#63b8ff" points="197.73,-258.5 207.73,-255 197.73,-251.5 197.73,-258.5"/>
</a>
</g>
</g>
<!-- Node8 -->
<g id="Node000008" class="node">
<title>Node8</title>
<g id="a_Node000008"><a xlink:href="classpolyfem_1_1solver_1_1_s_d_f_target_form.html#ae29f680e6e70f4af689f749476b1e14a" target="_top" xlink:title=" ">
<polygon fill="white" stroke="#666666" points="160,-222 12,-222 12,-192 160,-192 160,-222"/>
<text text-anchor="start" x="20" y="-210" font-family="Helvetica,sans-Serif" font-size="10.00">polyfem::solver::SDFTarget</text>
<text text-anchor="middle" x="86" y="-199" font-family="Helvetica,sans-Serif" font-size="10.00">Form::SDFTargetForm</text>
</a>
</g>
</g>
<!-- Node1&#45;&gt;Node8 -->
<g id="edge7_Node000001_Node000008" class="edge">
<title>Node1&#45;&gt;Node8</title>
<g id="a_edge7_Node000001_Node000008"><a xlink:title=" ">
<path fill="none" stroke="#63b8ff" d="M217.81,-237.63C195.95,-232.51 172.23,-226.96 151.07,-222"/>
<polygon fill="#63b8ff" stroke="#63b8ff" points="217.16,-241.07 227.7,-239.94 218.76,-234.26 217.16,-241.07"/>
</a>
</g>
</g>
<!-- Node9 -->
<g id="Node000009" class="node">
<title>Node9</title>
<g id="a_Node000009"><a xlink:href="classpolyfem_1_1solver_1_1_stress_form.html#aeae03af41eab6536d25a6515dc1fa485" target="_top" xlink:title=" ">
<polygon fill="white" stroke="#666666" points="163,-174 9,-174 9,-144 163,-144 163,-174"/>
<text text-anchor="start" x="17" y="-162" font-family="Helvetica,sans-Serif" font-size="10.00">polyfem::solver::StressForm</text>
<text text-anchor="middle" x="86" y="-151" font-family="Helvetica,sans-Serif" font-size="10.00">::StressForm</text>
</a>
</g>
</g>
<!-- Node1&#45;&gt;Node9 -->
<g id="edge8_Node000001_Node000009" class="edge">
<title>Node1&#45;&gt;Node9</title>
<g id="a_edge8_Node000001_Node000009"><a xlink:title=" ">
<path fill="none" stroke="#63b8ff" d="M262.33,-234.15C238.74,-218.34 204.43,-197.01 172,-183 164.4,-179.72 156.22,-176.75 148.05,-174.11"/>
<polygon fill="#63b8ff" stroke="#63b8ff" points="260.58,-237.19 270.82,-239.91 264.51,-231.4 260.58,-237.19"/>
</a>
</g>
</g>
<!-- Node10 -->
<g id="Node000010" class="node">
<title>Node10</title>
<g id="a_Node000010"><a xlink:href="classpolyfem_1_1solver_1_1_stress_norm_form.html#a4f70e682b34867a4f3cbb72a7cad5ccb" target="_top" xlink:title=" ">
<polygon fill="white" stroke="#666666" points="164,-126 8,-126 8,-96 164,-96 164,-126"/>
<text text-anchor="start" x="16" y="-114" font-family="Helvetica,sans-Serif" font-size="10.00">polyfem::solver::StressNorm</text>
<text text-anchor="middle" x="86" y="-103" font-family="Helvetica,sans-Serif" font-size="10.00">Form::StressNormForm</text>
</a>
</g>
</g>
<!-- Node1&#45;&gt;Node10 -->
<g id="edge9_Node000001_Node000010" class="edge">
<title>Node1&#45;&gt;Node10</title>
<g id="a_edge9_Node000001_Node000010"><a xlink:title=" ">
<path fill="none" stroke="#63b8ff" d="M274.63,-231.44C253.37,-204.28 214.89,-160.15 172,-135 166.18,-131.59 159.85,-128.64 153.36,-126.1"/>
<polygon fill="#63b8ff" stroke="#63b8ff" points="272.04,-233.82 280.9,-239.62 277.59,-229.56 272.04,-233.82"/>
</a>
</g>
</g>
<!-- Node11 -->
<g id="Node000011" class="node">
<title>Node11</title>
<g id="a_Node000011"><a xlink:href="classpolyfem_1_1solver_1_1_target_form.html#a2777ffe093d17a70b8038c1ec665916f" target="_top" xlink:title=" ">
<polygon fill="white" stroke="#666666" points="163,-78 9,-78 9,-48 163,-48 163,-78"/>
<text text-anchor="start" x="17" y="-66" font-family="Helvetica,sans-Serif" font-size="10.00">polyfem::solver::TargetForm</text>
<text text-anchor="middle" x="86" y="-55" font-family="Helvetica,sans-Serif" font-size="10.00">::TargetForm</text>
</a>
</g>
</g>
<!-- Node1&#45;&gt;Node11 -->
<g id="edge10_Node000001_Node000011" class="edge">
<title>Node1&#45;&gt;Node11</title>
<g id="a_edge10_Node000001_Node000011"><a xlink:title=" ">
<path fill="none" stroke="#63b8ff" d="M281.06,-230.35C263.46,-193.53 225.33,-124.5 172,-87 167.11,-83.56 161.73,-80.61 156.14,-78.08"/>
<polygon fill="#63b8ff" stroke="#63b8ff" points="278.08,-232.24 285.48,-239.82 284.43,-229.28 278.08,-232.24"/>
</a>
</g>
</g>
<!-- Node12 -->
<g id="Node000012" class="node">
<title>Node12</title>
<g id="a_Node000012"><a xlink:href="classpolyfem_1_1solver_1_1_volume_form.html#a538645c4c80c73077c17871c61114b55" target="_top" xlink:title=" ">
<polygon fill="white" stroke="#666666" points="166.5,-30 5.5,-30 5.5,0 166.5,0 166.5,-30"/>
<text text-anchor="start" x="13.5" y="-18" font-family="Helvetica,sans-Serif" font-size="10.00">polyfem::solver::VolumeForm</text>
<text text-anchor="middle" x="86" y="-7" font-family="Helvetica,sans-Serif" font-size="10.00">::VolumeForm</text>
</a>
</g>
</g>
<!-- Node1&#45;&gt;Node12 -->
<g id="edge11_Node000001_Node000012" class="edge">
<title>Node1&#45;&gt;Node12</title>
<g id="a_edge11_Node000001_Node000012"><a xlink:title=" ">
<path fill="none" stroke="#63b8ff" d="M285.08,-229.92C271.32,-184.77 236.15,-89.77 172,-39 167.67,-35.57 162.88,-32.64 157.84,-30.12"/>
<polygon fill="#63b8ff" stroke="#63b8ff" points="281.8,-231.17 287.99,-239.78 288.52,-229.19 281.8,-231.17"/>
</a>
</g>
</g>
</g>
</svg>

<g id="navigator" transform="translate(0 0)" fill="#404254">
  <rect fill="#f2f5e9" fill-opacity="0.5" stroke="#606060" stroke-width=".5" x="0" y="0" width="60" height="60"/>
  <use id="zoomplus" xlink:href="#zoomPlus" x="17" y="9" onmousedown="handleZoom(evt,'in')"/>
  <use id="zoomminus" xlink:href="#zoomMin" x="42" y="9" onmousedown="handleZoom(evt,'out')"/>
  <use id="reset" xlink:href="#resetDef" x="30" y="36" onmousedown="handleReset()"/>
   <use id="arrowup" xlink:href="#arrowUp" x="0" y="0" onmousedown="handlePan(0,-1)"/>
  <use id="arrowright" xlink:href="#arrowRight" x="0" y="0" onmousedown="handlePan(1,0)"/>
  <use id="arrowdown" xlink:href="#arrowDown" x="0" y="0" onmousedown="handlePan(0,1)"/>
  <use id="arrowleft" xlink:href="#arrowLeft" x="0" y="0" onmousedown="handlePan(-1,0)"/>
</g>
<svg viewBox="0 0 15 15" width="100%" height="30px" preserveAspectRatio="xMaxYMin meet">
 <g id="arrow_out" transform="scale(0.3 0.3)">
  <a xlink:href="classpolyfem_1_1solver_1_1_spatial_integral_form_a09f18485cbd951ec6974cf9d452ae55f_icgraph_org.svg" target="_base">
   <rect id="button" ry="5" rx="5" y="6" x="6" height="38" width="38"
        fill="#f2f5e9" fill-opacity="0.5" stroke="#606060" stroke-width="1.0"/>
   <path id="arrow"
     d="M 11.500037,31.436501 C 11.940474,20.09759 22.043105,11.32322 32.158766,21.979434 L 37.068811,17.246167 C 37.068811,17.246167 37.088388,32 37.088388,32 L 22.160133,31.978069 C 22.160133,31.978069 26.997745,27.140456 26.997745,27.140456 C 18.528582,18.264221 13.291696,25.230495 11.500037,31.436501 z"
     style="fill:#404040;"/>
  </a>
 </g>
</svg>

<style type='text/css'>
<![CDATA[
[data-mouse-over-selected='false'] { opacity: 0.7; }
[data-mouse-over-selected='true']  { opacity: 1.0; }
]]>
</style>
<script type="application/ecmascript"><![CDATA[
document.addEventListener('DOMContentLoaded', (event) => {
  highlightEdges();
  highlightAdjacentNodes();
});
]]></script>
</svg>
