<?xml version="1.0" encoding="UTF-8" standalone="no"?>
<!DOCTYPE svg PUBLIC "-//W3C//DTD SVG 1.1//EN"
 "http://www.w3.org/Graphics/SVG/1.1/DTD/svg11.dtd">
<!-- Generated by graphviz version 2.43.0 (0)
 -->
<!-- Title: polyfem::io::Evaluator::average_grad_based_function Pages: 1 -->
<!--zoomable 528 -->

<svg id="main" version="1.1" xmlns="http://www.w3.org/2000/svg" xmlns:xlink="http://www.w3.org/1999/xlink" xml:space="preserve" onload="init(evt)">
<style type="text/css"><![CDATA[
.node, .edge {opacity: 0.7;}
.node.selected, .edge.selected {opacity: 1;}
.edge:hover path { stroke: red; }
.edge:hover polygon { stroke: red; fill: red; }
]]></style>

<defs>
  <circle id="rim" cx="0" cy="0" r="7"/>
  <circle id="rim2" cx="0" cy="0" r="3.5"/>
  <g id="zoomPlus">
    <use xlink:href="#rim" fill="#404040"><set attributeName="fill" to="#808080" begin="zoomplus.mouseover" end="zoomplus.mouseout"/></use>
    <path d="M-4,0h8M0,-4v8" fill="none" stroke="white" stroke-width="1.5" pointer-events="none"/>
  </g>
  <g id="zoomMin">
    <use xlink:href="#rim" fill="#404040"><set attributeName="fill" to="#808080" begin="zoomminus.mouseover" end="zoomminus.mouseout"/></use>
    <path d="M-4,0h8" fill="none" stroke="white" stroke-width="1.5" pointer-events="none"/>
  </g>
  <g id="arrowUp" transform="translate(30 24)">
    <use xlink:href="#rim"/>
    <path pointer-events="none" fill="none" stroke="white" stroke-width="1.5" d="M0,-3.0v7 M-2.5,-0.5L0,-3.0L2.5,-0.5"/>
  </g>
  <g id="arrowRight" transform="rotate(90) translate(36 -43)">
    <use xlink:href="#rim"/>
    <path pointer-events="none" fill="none" stroke="white" stroke-width="1.5" d="M0,-3.0v7 M-2.5,-0.5L0,-3.0L2.5,-0.5"/>
  </g>
  <g id="arrowDown" transform="rotate(180) translate(-30 -48)">
    <use xlink:href="#rim"/>
    <path pointer-events="none" fill="none" stroke="white" stroke-width="1.5" d="M0,-3.0v7 M-2.5,-0.5L0,-3.0L2.5,-0.5"/>
  </g>
  <g id="arrowLeft" transform="rotate(270) translate(-36 17)">
    <use xlink:href="#rim"/>
    <path pointer-events="none" fill="none" stroke="white" stroke-width="1.5" d="M0,-3.0v7 M-2.5,-0.5L0,-3.0L2.5,-0.5"/>
  </g>
  <g id="resetDef">
    <use xlink:href="#rim2" fill="#404040"><set attributeName="fill" to="#808080" begin="reset.mouseover" end="reset.mouseout"/></use>
  </g>
</defs>
<script type="application/ecmascript">
var viewWidth = 654;
var viewHeight = 528;
var sectionId = 'dynsection-0';
</script>
<script type="application/ecmascript" xlink:href="svg.min.js"/>
<svg id="graph" class="graph">
<g id="viewport">
<title>polyfem::io::Evaluator::average_grad_based_function</title>
<!-- Node1 -->
<g id="Node000001" class="node">
<title>Node1</title>
<g id="a_Node000001"><a xlink:title="computes scalar quantity of funtion (ie von mises for elasticity and norm of velocity for fluid) the ...">
<polygon fill="#999999" stroke="#666666" points="169,-260 0,-260 0,-230 169,-230 169,-260"/>
<text text-anchor="start" x="8" y="-248" font-family="Helvetica,sans-Serif" font-size="10.00">polyfem::io::Evaluator</text>
<text text-anchor="middle" x="84.5" y="-237" font-family="Helvetica,sans-Serif" font-size="10.00">::average_grad_based_function</text>
</a>
</g>
</g>
<!-- Node2 -->
<g id="Node000002" class="node">
<title>Node2</title>
<g id="a_Node000002"><a xlink:href="classpolyfem_1_1assembler_1_1_assembler.html#ada61bfb64e086585c09fc66d60ade635" target="_top" xlink:title=" ">
<polygon fill="white" stroke="#666666" points="329,-519.5 206,-519.5 206,-478.5 329,-478.5 329,-519.5"/>
<text text-anchor="start" x="214" y="-507.5" font-family="Helvetica,sans-Serif" font-size="10.00">polyfem::assembler</text>
<text text-anchor="start" x="214" y="-496.5" font-family="Helvetica,sans-Serif" font-size="10.00">::Assembler::compute</text>
<text text-anchor="middle" x="267.5" y="-485.5" font-family="Helvetica,sans-Serif" font-size="10.00">_scalar_value</text>
</a>
</g>
</g>
<!-- Node1&#45;&gt;Node2 -->
<g id="edge1_Node000001_Node000002" class="edge">
<title>Node1&#45;&gt;Node2</title>
<g id="a_edge1_Node000001_Node000002"><a xlink:title=" ">
<path fill="none" stroke="#63b8ff" d="M90.43,-260.07C103.58,-298.33 142.78,-400.66 205,-464 207.95,-467.01 211.22,-469.84 214.66,-472.48"/>
<polygon fill="#63b8ff" stroke="#63b8ff" points="212.76,-475.42 222.95,-478.32 216.79,-469.7 212.76,-475.42"/>
</a>
</g>
</g>
<!-- Node3 -->
<g id="Node000003" class="node">
<title>Node3</title>
<g id="a_Node000003"><a xlink:href="classpolyfem_1_1mesh_1_1_mesh.html#aadc9bb68805f0a4c0209bee9160c9fc6" target="_top" xlink:title="utily for dimension">
<polygon fill="white" stroke="#666666" points="488,-410 366,-410 366,-380 488,-380 488,-410"/>
<text text-anchor="start" x="374" y="-398" font-family="Helvetica,sans-Serif" font-size="10.00">polyfem::mesh::Mesh</text>
<text text-anchor="middle" x="427" y="-387" font-family="Helvetica,sans-Serif" font-size="10.00">::dimension</text>
</a>
</g>
</g>
<!-- Node1&#45;&gt;Node3 -->
<g id="edge2_Node000001_Node000003" class="edge">
<title>Node1&#45;&gt;Node3</title>
<g id="a_edge2_Node000001_Node000003"><a xlink:title=" ">
<path fill="none" stroke="#63b8ff" d="M89.78,-260.26C101.2,-297.64 136.28,-393.47 205,-431 263.61,-463.01 343.07,-435.85 389.01,-414.52"/>
<polygon fill="#63b8ff" stroke="#63b8ff" points="390.78,-417.55 398.29,-410.08 387.76,-411.24 390.78,-417.55"/>
</a>
</g>
</g>
<!-- Node5 -->
<g id="Node000005" class="node">
<title>Node5</title>
<g id="a_Node000005"><a xlink:href="classpolyfem_1_1basis_1_1_basis.html#a88b90af0c63d52f2c91fe97a63c540ce" target="_top" xlink:title=" ">
<polygon fill="white" stroke="#666666" points="328,-422 207,-422 207,-392 328,-392 328,-422"/>
<text text-anchor="start" x="215" y="-410" font-family="Helvetica,sans-Serif" font-size="10.00">polyfem::basis::Basis</text>
<text text-anchor="middle" x="267.5" y="-399" font-family="Helvetica,sans-Serif" font-size="10.00">::global</text>
</a>
</g>
</g>
<!-- Node1&#45;&gt;Node5 -->
<g id="edge4_Node000001_Node000005" class="edge">
<title>Node1&#45;&gt;Node5</title>
<g id="a_edge4_Node000001_Node000005"><a xlink:title=" ">
<path fill="none" stroke="#63b8ff" d="M95.13,-260.42C113.37,-288.46 155.54,-348.1 205,-383 207.09,-384.47 209.28,-385.87 211.54,-387.2"/>
<polygon fill="#63b8ff" stroke="#63b8ff" points="210.06,-390.38 220.54,-391.96 213.34,-384.19 210.06,-390.38"/>
</a>
</g>
</g>
<!-- Node6 -->
<g id="Node000006" class="node">
<title>Node6</title>
<g id="a_Node000006"><a xlink:href="classpolyfem_1_1io_1_1_evaluator.html#ab32b1665947f01b2f9a09badd94545bb" target="_top" xlink:title="interpolate the function fun.">
<polygon fill="white" stroke="#666666" points="330,-356 205,-356 205,-326 330,-326 330,-356"/>
<text text-anchor="start" x="213" y="-344" font-family="Helvetica,sans-Serif" font-size="10.00">polyfem::io::Evaluator</text>
<text text-anchor="middle" x="267.5" y="-333" font-family="Helvetica,sans-Serif" font-size="10.00">::interpolate_function</text>
</a>
</g>
</g>
<!-- Node1&#45;&gt;Node6 -->
<g id="edge5_Node000001_Node000006" class="edge">
<title>Node1&#45;&gt;Node6</title>
<g id="a_edge5_Node000001_Node000006"><a xlink:title=" ">
<path fill="none" stroke="#63b8ff" d="M108.2,-260.28C131.76,-275.75 170.01,-299.79 205,-317 208.49,-318.72 212.13,-320.4 215.82,-322.02"/>
<polygon fill="#63b8ff" stroke="#63b8ff" points="214.49,-325.26 225.06,-325.95 217.22,-318.82 214.49,-325.26"/>
</a>
</g>
</g>
<!-- Node7 -->
<g id="Node000007" class="node">
<title>Node7</title>
<g id="a_Node000007"><a xlink:href="classpolyfem_1_1mesh_1_1_mesh.html#a4ac6c05b7775df67b96087dc9721ee0a" target="_top" xlink:title="checks if element is cube compatible">
<polygon fill="white" stroke="#666666" points="328.5,-308 206.5,-308 206.5,-278 328.5,-278 328.5,-308"/>
<text text-anchor="start" x="214.5" y="-296" font-family="Helvetica,sans-Serif" font-size="10.00">polyfem::mesh::Mesh</text>
<text text-anchor="middle" x="267.5" y="-285" font-family="Helvetica,sans-Serif" font-size="10.00">::is_cube</text>
</a>
</g>
</g>
<!-- Node1&#45;&gt;Node7 -->
<g id="edge8_Node000001_Node000007" class="edge">
<title>Node1&#45;&gt;Node7</title>
<g id="a_edge8_Node000001_Node000007"><a xlink:title=" ">
<path fill="none" stroke="#63b8ff" d="M142.27,-260.06C160.64,-264.93 181.16,-270.37 200.16,-275.41"/>
<polygon fill="#63b8ff" stroke="#63b8ff" points="199.37,-278.82 209.93,-278 201.16,-272.05 199.37,-278.82"/>
</a>
</g>
</g>
<!-- Node8 -->
<g id="Node000008" class="node">
<title>Node8</title>
<g id="a_Node000008"><a xlink:href="classpolyfem_1_1mesh_1_1_mesh.html#a62e57386728f26b8feafea1043b65c21" target="_top" xlink:title="checks if element is simples compatible">
<polygon fill="white" stroke="#666666" points="328.5,-260 206.5,-260 206.5,-230 328.5,-230 328.5,-260"/>
<text text-anchor="start" x="214.5" y="-248" font-family="Helvetica,sans-Serif" font-size="10.00">polyfem::mesh::Mesh</text>
<text text-anchor="middle" x="267.5" y="-237" font-family="Helvetica,sans-Serif" font-size="10.00">::is_simplex</text>
</a>
</g>
</g>
<!-- Node1&#45;&gt;Node8 -->
<g id="edge9_Node000001_Node000008" class="edge">
<title>Node1&#45;&gt;Node8</title>
<g id="a_edge9_Node000001_Node000008"><a xlink:title=" ">
<path fill="none" stroke="#63b8ff" d="M169.11,-245C178.17,-245 187.31,-245 196.19,-245"/>
<polygon fill="#63b8ff" stroke="#63b8ff" points="196.46,-248.5 206.46,-245 196.46,-241.5 196.46,-248.5"/>
</a>
</g>
</g>
<!-- Node9 -->
<g id="Node000009" class="node">
<title>Node9</title>
<g id="a_Node000009"><a xlink:href="namespacepolyfem.html#a03f3d75072d2fd19f70cd886a51d10dd" target="_top" xlink:title="Retrieves the current logger.">
<polygon fill="white" stroke="#666666" points="314.5,-211.5 220.5,-211.5 220.5,-192.5 314.5,-192.5 314.5,-211.5"/>
<text text-anchor="middle" x="267.5" y="-199.5" font-family="Helvetica,sans-Serif" font-size="10.00">polyfem::logger</text>
</a>
</g>
</g>
<!-- Node1&#45;&gt;Node9 -->
<g id="edge10_Node000001_Node000009" class="edge">
<title>Node1&#45;&gt;Node9</title>
<g id="a_edge10_Node000001_Node000009"><a xlink:title=" ">
<path fill="none" stroke="#63b8ff" d="M148.81,-229.96C170.97,-224.7 195.53,-218.86 216.46,-213.89"/>
<polygon fill="#63b8ff" stroke="#63b8ff" points="217.5,-217.24 226.42,-211.52 215.88,-210.43 217.5,-217.24"/>
</a>
</g>
</g>
<!-- Node10 -->
<g id="Node000010" class="node">
<title>Node10</title>
<g id="a_Node000010"><a xlink:href="namespacepolyfem_1_1autogen.html#a81e7dfa1d60c099807060e6f1bc78e94" target="_top" xlink:title=" ">
<polygon fill="white" stroke="#666666" points="325,-174 210,-174 210,-144 325,-144 325,-174"/>
<text text-anchor="start" x="218" y="-162" font-family="Helvetica,sans-Serif" font-size="10.00">polyfem::autogen::p</text>
<text text-anchor="middle" x="267.5" y="-151" font-family="Helvetica,sans-Serif" font-size="10.00">_nodes_2d</text>
</a>
</g>
</g>
<!-- Node1&#45;&gt;Node10 -->
<g id="edge11_Node000001_Node000010" class="edge">
<title>Node1&#45;&gt;Node10</title>
<g id="a_edge11_Node000001_Node000010"><a xlink:title=" ">
<path fill="none" stroke="#63b8ff" d="M112.62,-229.87C136.58,-216.77 172.64,-197.66 205,-183 208.82,-181.27 212.8,-179.55 216.82,-177.86"/>
<polygon fill="#63b8ff" stroke="#63b8ff" points="218.29,-181.04 226.21,-174.01 215.63,-174.56 218.29,-181.04"/>
</a>
</g>
</g>
<!-- Node12 -->
<g id="Node000012" class="node">
<title>Node12</title>
<g id="a_Node000012"><a xlink:href="namespacepolyfem_1_1autogen.html#a9c2688a6744801097c2f8baa081ab3a7" target="_top" xlink:title=" ">
<polygon fill="white" stroke="#666666" points="325,-126 210,-126 210,-96 325,-96 325,-126"/>
<text text-anchor="start" x="218" y="-114" font-family="Helvetica,sans-Serif" font-size="10.00">polyfem::autogen::p</text>
<text text-anchor="middle" x="267.5" y="-103" font-family="Helvetica,sans-Serif" font-size="10.00">_nodes_3d</text>
</a>
</g>
</g>
<!-- Node1&#45;&gt;Node12 -->
<g id="edge13_Node000001_Node000012" class="edge">
<title>Node1&#45;&gt;Node12</title>
<g id="a_edge13_Node000001_Node000012"><a xlink:title=" ">
<path fill="none" stroke="#63b8ff" d="M98.43,-229.93C118.97,-206.79 161.23,-162.32 205,-135 207.46,-133.46 210.04,-132 212.68,-130.6"/>
<polygon fill="#63b8ff" stroke="#63b8ff" points="214.41,-133.65 221.86,-126.13 211.34,-127.36 214.41,-133.65"/>
</a>
</g>
</g>
<!-- Node14 -->
<g id="Node000014" class="node">
<title>Node14</title>
<g id="a_Node000014"><a xlink:href="namespacepolyfem_1_1autogen.html#a18ee2912d770a6bc9cfe2a485a9ecb25" target="_top" xlink:title=" ">
<polygon fill="white" stroke="#666666" points="325,-78 210,-78 210,-48 325,-48 325,-78"/>
<text text-anchor="start" x="218" y="-66" font-family="Helvetica,sans-Serif" font-size="10.00">polyfem::autogen::q</text>
<text text-anchor="middle" x="267.5" y="-55" font-family="Helvetica,sans-Serif" font-size="10.00">_nodes_2d</text>
</a>
</g>
</g>
<!-- Node1&#45;&gt;Node14 -->
<g id="edge15_Node000001_Node000014" class="edge">
<title>Node1&#45;&gt;Node14</title>
<g id="a_edge15_Node000001_Node000014"><a xlink:title=" ">
<path fill="none" stroke="#63b8ff" d="M93.26,-229.73C109.75,-198.68 151.24,-127.67 205,-87 206.82,-85.62 208.73,-84.32 210.7,-83.07"/>
<polygon fill="#63b8ff" stroke="#63b8ff" points="212.66,-85.99 219.68,-78.05 209.25,-79.88 212.66,-85.99"/>
</a>
</g>
</g>
<!-- Node15 -->
<g id="Node000015" class="node">
<title>Node15</title>
<g id="a_Node000015"><a xlink:href="namespacepolyfem_1_1autogen.html#ae625b6539e6dfcbb11dee43af4a58bc0" target="_top" xlink:title=" ">
<polygon fill="white" stroke="#666666" points="325,-30 210,-30 210,0 325,0 325,-30"/>
<text text-anchor="start" x="218" y="-18" font-family="Helvetica,sans-Serif" font-size="10.00">polyfem::autogen::q</text>
<text text-anchor="middle" x="267.5" y="-7" font-family="Helvetica,sans-Serif" font-size="10.00">_nodes_3d</text>
</a>
</g>
</g>
<!-- Node1&#45;&gt;Node15 -->
<g id="edge16_Node000001_Node000015" class="edge">
<title>Node1&#45;&gt;Node15</title>
<g id="a_edge16_Node000001_Node000015"><a xlink:title=" ">
<path fill="none" stroke="#63b8ff" d="M90.36,-229.75C103.1,-192.11 140.96,-93.89 205,-39 206.5,-37.71 208.08,-36.49 209.72,-35.33"/>
<polygon fill="#63b8ff" stroke="#63b8ff" points="211.65,-38.25 218.32,-30.03 207.97,-32.29 211.65,-38.25"/>
</a>
</g>
</g>
<!-- Node4 -->
<g id="Node000004" class="node">
<title>Node4</title>
<g id="a_Node000004"><a xlink:href="classpolyfem_1_1mesh_1_1_mesh.html#a93c9ea4759ded33a8f25ff157033cfd9" target="_top" xlink:title="checks if mesh is volume">
<polygon fill="white" stroke="#666666" points="646,-410 524,-410 524,-380 646,-380 646,-410"/>
<text text-anchor="start" x="532" y="-398" font-family="Helvetica,sans-Serif" font-size="10.00">polyfem::mesh::Mesh</text>
<text text-anchor="middle" x="585" y="-387" font-family="Helvetica,sans-Serif" font-size="10.00">::is_volume</text>
</a>
</g>
</g>
<!-- Node3&#45;&gt;Node4 -->
<g id="edge3_Node000003_Node000004" class="edge">
<title>Node3&#45;&gt;Node4</title>
<g id="a_edge3_Node000003_Node000004"><a xlink:title=" ">
<path fill="none" stroke="#63b8ff" d="M488.31,-395C496.6,-395 505.17,-395 513.63,-395"/>
<polygon fill="#63b8ff" stroke="#63b8ff" points="513.85,-398.5 523.85,-395 513.85,-391.5 513.85,-398.5"/>
</a>
</g>
</g>
<!-- Node6&#45;&gt;Node3 -->
<g id="edge6_Node000006_Node000003" class="edge">
<title>Node6&#45;&gt;Node3</title>
<g id="a_edge6_Node000006_Node000003"><a xlink:title=" ">
<path fill="none" stroke="#63b8ff" d="M312.37,-356.04C330.98,-362.42 352.85,-369.92 372.4,-376.62"/>
<polygon fill="#63b8ff" stroke="#63b8ff" points="371.5,-380.01 382.09,-379.95 373.77,-373.39 371.5,-380.01"/>
</a>
</g>
</g>
<!-- Node6&#45;&gt;Node6 -->
<g id="edge7_Node000006_Node000006" class="edge">
<title>Node6&#45;&gt;Node6</title>
<g id="a_edge7_Node000006_Node000006"><a xlink:title=" ">
<path fill="none" stroke="#63b8ff" d="M239.73,-356.28C233.55,-365.41 242.81,-374 267.5,-374 282.16,-374 291.38,-370.97 295.16,-366.6"/>
<polygon fill="#63b8ff" stroke="#63b8ff" points="298.66,-366.31 295.27,-356.28 291.66,-366.23 298.66,-366.31"/>
</a>
</g>
</g>
<!-- Node11 -->
<g id="Node000011" class="node">
<title>Node11</title>
<g id="a_Node000011"><a xlink:href="namespacepolyfem_1_1autogen.html#ae638aa088cd1fdcfc3e3f0e60ef6d7ad" target="_top" xlink:title=" ">
<polygon fill="white" stroke="#666666" points="484.5,-174 369.5,-174 369.5,-144 484.5,-144 484.5,-174"/>
<text text-anchor="start" x="377.5" y="-162" font-family="Helvetica,sans-Serif" font-size="10.00">polyfem::autogen::p</text>
<text text-anchor="middle" x="427" y="-151" font-family="Helvetica,sans-Serif" font-size="10.00">_n_nodes_2d</text>
</a>
</g>
</g>
<!-- Node10&#45;&gt;Node11 -->
<g id="edge12_Node000010_Node000011" class="edge">
<title>Node10&#45;&gt;Node11</title>
<g id="a_edge12_Node000010_Node000011"><a xlink:title=" ">
<path fill="none" stroke="#63b8ff" d="M325.36,-159C336.36,-159 347.97,-159 359.25,-159"/>
<polygon fill="#63b8ff" stroke="#63b8ff" points="359.49,-162.5 369.49,-159 359.49,-155.5 359.49,-162.5"/>
</a>
</g>
</g>
<!-- Node13 -->
<g id="Node000013" class="node">
<title>Node13</title>
<g id="a_Node000013"><a xlink:href="namespacepolyfem_1_1autogen.html#a354a4b5cbfcf4c5768a35a8ed4f2cdb7" target="_top" xlink:title=" ">
<polygon fill="white" stroke="#666666" points="484.5,-126 369.5,-126 369.5,-96 484.5,-96 484.5,-126"/>
<text text-anchor="start" x="377.5" y="-114" font-family="Helvetica,sans-Serif" font-size="10.00">polyfem::autogen::p</text>
<text text-anchor="middle" x="427" y="-103" font-family="Helvetica,sans-Serif" font-size="10.00">_n_nodes_3d</text>
</a>
</g>
</g>
<!-- Node12&#45;&gt;Node13 -->
<g id="edge14_Node000012_Node000013" class="edge">
<title>Node12&#45;&gt;Node13</title>
<g id="a_edge14_Node000012_Node000013"><a xlink:title=" ">
<path fill="none" stroke="#63b8ff" d="M325.36,-111C336.36,-111 347.97,-111 359.25,-111"/>
<polygon fill="#63b8ff" stroke="#63b8ff" points="359.49,-114.5 369.49,-111 359.49,-107.5 359.49,-114.5"/>
</a>
</g>
</g>
</g>
</svg>

<g id="navigator" transform="translate(0 0)" fill="#404254">
  <rect fill="#f2f5e9" fill-opacity="0.5" stroke="#606060" stroke-width=".5" x="0" y="0" width="60" height="60"/>
  <use id="zoomplus" xlink:href="#zoomPlus" x="17" y="9" onmousedown="handleZoom(evt,'in')"/>
  <use id="zoomminus" xlink:href="#zoomMin" x="42" y="9" onmousedown="handleZoom(evt,'out')"/>
  <use id="reset" xlink:href="#resetDef" x="30" y="36" onmousedown="handleReset()"/>
   <use id="arrowup" xlink:href="#arrowUp" x="0" y="0" onmousedown="handlePan(0,-1)"/>
  <use id="arrowright" xlink:href="#arrowRight" x="0" y="0" onmousedown="handlePan(1,0)"/>
  <use id="arrowdown" xlink:href="#arrowDown" x="0" y="0" onmousedown="handlePan(0,1)"/>
  <use id="arrowleft" xlink:href="#arrowLeft" x="0" y="0" onmousedown="handlePan(-1,0)"/>
</g>
<svg viewBox="0 0 15 15" width="100%" height="30px" preserveAspectRatio="xMaxYMin meet">
 <g id="arrow_out" transform="scale(0.3 0.3)">
  <a xlink:href="classpolyfem_1_1io_1_1_evaluator_ac85b31ec6a0a8410af12d73f9943e75c_cgraph_org.svg" target="_base">
   <rect id="button" ry="5" rx="5" y="6" x="6" height="38" width="38"
        fill="#f2f5e9" fill-opacity="0.5" stroke="#606060" stroke-width="1.0"/>
   <path id="arrow"
     d="M 11.500037,31.436501 C 11.940474,20.09759 22.043105,11.32322 32.158766,21.979434 L 37.068811,17.246167 C 37.068811,17.246167 37.088388,32 37.088388,32 L 22.160133,31.978069 C 22.160133,31.978069 26.997745,27.140456 26.997745,27.140456 C 18.528582,18.264221 13.291696,25.230495 11.500037,31.436501 z"
     style="fill:#404040;"/>
  </a>
 </g>
</svg>

<style type='text/css'>
<![CDATA[
[data-mouse-over-selected='false'] { opacity: 0.7; }
[data-mouse-over-selected='true']  { opacity: 1.0; }
]]>
</style>
<script type="application/ecmascript"><![CDATA[
document.addEventListener('DOMContentLoaded', (event) => {
  highlightEdges();
  highlightAdjacentNodes();
});
]]></script>
</svg>
