<?xml version="1.0" encoding="UTF-8" standalone="no"?>
<!DOCTYPE svg PUBLIC "-//W3C//DTD SVG 1.1//EN"
 "http://www.w3.org/Graphics/SVG/1.1/DTD/svg11.dtd">
<!-- Generated by graphviz version 2.43.0 (0)
 -->
<!-- Title: src/polyfem/problem Pages: 1 -->
<svg width="244pt" height="260pt"
 viewBox="0.00 0.00 243.84 260.00" xmlns="http://www.w3.org/2000/svg" xmlns:xlink="http://www.w3.org/1999/xlink">
<g id="graph0" class="graph" transform="scale(1 1) rotate(0) translate(4 256)">
<title>src/polyfem/problem</title>
<g id="clust1" class="cluster">
<title>clusterdir_2dc3e3ac563c5097fbf94f8f985cc10c</title>
<g id="a_clust1"><a xlink:href="dir_2dc3e3ac563c5097fbf94f8f985cc10c.html" target="_top" xlink:title="polyfem">
<polygon fill="#ddddee" stroke="black" points="8,-64 8,-135 82,-135 82,-64 8,-64"/>
<text text-anchor="middle" x="45" y="-123" font-family="Helvetica,sans-Serif" font-size="10.00">polyfem</text>
</a>
</g>
</g>
<!-- dir_db543a2fc901b00946a595a25d020389 -->
<g id="node1" class="node">
<title>dir_db543a2fc901b00946a595a25d020389</title>
<g id="a_node1"><a xlink:href="dir_db543a2fc901b00946a595a25d020389.html" target="_top" xlink:title="problem">
<polygon fill="#eeeeff" stroke="black" points="73.5,-108 16.5,-108 16.5,-72 73.5,-72 73.5,-108"/>
<text text-anchor="middle" x="45" y="-87.5" font-family="Helvetica,sans-Serif" font-size="10.00">problem</text>
</a>
</g>
</g>
<!-- dir_13510bfc8d6c882cc83f48e81fc78b9e -->
<g id="node2" class="node">
<title>dir_13510bfc8d6c882cc83f48e81fc78b9e</title>
<g id="a_node2"><a xlink:href="dir_13510bfc8d6c882cc83f48e81fc78b9e.html" target="_top" xlink:title="basis">
<polygon fill="none" stroke="red" points="177,-252 123,-252 123,-216 177,-216 177,-252"/>
<text text-anchor="middle" x="150" y="-231.5" font-family="Helvetica,sans-Serif" font-size="10.00">basis</text>
</a>
</g>
</g>
<!-- dir_db543a2fc901b00946a595a25d020389&#45;&gt;dir_13510bfc8d6c882cc83f48e81fc78b9e -->
<g id="edge8" class="edge">
<title>dir_db543a2fc901b00946a595a25d020389&#45;&gt;dir_13510bfc8d6c882cc83f48e81fc78b9e</title>
<path fill="none" stroke="black" d="M49.26,-108.07C54.6,-127.05 65.16,-157.91 82,-180 90.91,-191.69 102.98,-202.2 114.49,-210.73"/>
<polygon fill="black" stroke="black" points="112.53,-213.63 122.71,-216.57 116.59,-207.93 112.53,-213.63"/>
<g id="a_edge8&#45;headlabel"><a xlink:href="dir_000010_000005.html" target="_top" xlink:title="1">
<text text-anchor="middle" x="107.96" y="-211.36" font-family="Helvetica,sans-Serif" font-size="10.00">1</text>
</a>
</g>
</g>
<!-- dir_45751013e7de66cb9317c15709b40c18 -->
<g id="node3" class="node">
<title>dir_45751013e7de66cb9317c15709b40c18</title>
<g id="a_node3"><a xlink:href="dir_45751013e7de66cb9317c15709b40c18.html" target="_top" xlink:title="utils">
<polygon fill="none" stroke="black" points="145,-180 91,-180 91,-144 145,-144 145,-180"/>
<text text-anchor="middle" x="118" y="-159.5" font-family="Helvetica,sans-Serif" font-size="10.00">utils</text>
</a>
</g>
</g>
<!-- dir_db543a2fc901b00946a595a25d020389&#45;&gt;dir_45751013e7de66cb9317c15709b40c18 -->
<g id="edge9" class="edge">
<title>dir_db543a2fc901b00946a595a25d020389&#45;&gt;dir_45751013e7de66cb9317c15709b40c18</title>
<path fill="none" stroke="black" d="M52.9,-108.04C59.97,-116.33 69.83,-126.36 79,-135 80.39,-136.31 81.84,-137.64 83.31,-138.98"/>
<polygon fill="black" stroke="black" points="81.07,-141.66 90.92,-145.56 85.65,-136.37 81.07,-141.66"/>
<g id="a_edge9&#45;headlabel"><a xlink:href="dir_000010_000016.html" target="_top" xlink:title="11">
<text text-anchor="middle" x="76.49" y="-138.96" font-family="Helvetica,sans-Serif" font-size="10.00">11</text>
</a>
</g>
</g>
<!-- dir_12817abd2662fe40efba8355c1386b9e -->
<g id="node4" class="node">
<title>dir_12817abd2662fe40efba8355c1386b9e</title>
<g id="a_node4"><a xlink:href="dir_12817abd2662fe40efba8355c1386b9e.html" target="_top" xlink:title="assembler">
<polygon fill="none" stroke="black" points="216,-108 148,-108 148,-72 216,-72 216,-108"/>
<text text-anchor="middle" x="182" y="-87.5" font-family="Helvetica,sans-Serif" font-size="10.00">assembler</text>
</a>
</g>
</g>
<!-- dir_db543a2fc901b00946a595a25d020389&#45;&gt;dir_12817abd2662fe40efba8355c1386b9e -->
<g id="edge10" class="edge">
<title>dir_db543a2fc901b00946a595a25d020389&#45;&gt;dir_12817abd2662fe40efba8355c1386b9e</title>
<path fill="none" stroke="black" d="M73.63,-90C94.95,-90 116.27,-90 137.58,-90"/>
<polygon fill="black" stroke="black" points="137.71,-93.5 147.71,-90 137.71,-86.5 137.71,-93.5"/>
<g id="a_edge10&#45;headlabel"><a xlink:href="dir_000010_000002.html" target="_top" xlink:title="4">
<text text-anchor="middle" x="134.12" y="-93.84" font-family="Helvetica,sans-Serif" font-size="10.00">4</text>
</a>
</g>
</g>
<!-- dir_15d4893607df4bf7106bb9ed16128612 -->
<g id="node5" class="node">
<title>dir_15d4893607df4bf7106bb9ed16128612</title>
<g id="a_node5"><a xlink:href="dir_15d4893607df4bf7106bb9ed16128612.html" target="_top" xlink:title="mesh">
<polygon fill="none" stroke="red" points="138,-36 84,-36 84,0 138,0 138,-36"/>
<text text-anchor="middle" x="111" y="-15.5" font-family="Helvetica,sans-Serif" font-size="10.00">mesh</text>
</a>
</g>
</g>
<!-- dir_db543a2fc901b00946a595a25d020389&#45;&gt;dir_15d4893607df4bf7106bb9ed16128612 -->
<g id="edge11" class="edge">
<title>dir_db543a2fc901b00946a595a25d020389&#45;&gt;dir_15d4893607df4bf7106bb9ed16128612</title>
<path fill="none" stroke="black" d="M55.4,-71.7C62.59,-63.14 72.29,-52.66 81.62,-43.3"/>
<polygon fill="black" stroke="black" points="84.28,-45.6 88.98,-36.1 79.38,-40.6 84.28,-45.6"/>
<g id="a_edge11&#45;headlabel"><a xlink:href="dir_000010_000007.html" target="_top" xlink:title="2">
<text text-anchor="middle" x="83.7" y="-47.64" font-family="Helvetica,sans-Serif" font-size="10.00">2</text>
</a>
</g>
</g>
<!-- dir_13510bfc8d6c882cc83f48e81fc78b9e&#45;&gt;dir_45751013e7de66cb9317c15709b40c18 -->
<g id="edge1" class="edge">
<title>dir_13510bfc8d6c882cc83f48e81fc78b9e&#45;&gt;dir_45751013e7de66cb9317c15709b40c18</title>
<path fill="none" stroke="black" d="M136.17,-215.7C131.76,-207.81 127.19,-198.3 123.56,-189.55"/>
<polygon fill="black" stroke="black" points="126.79,-188.18 119.92,-180.1 120.26,-190.69 126.79,-188.18"/>
<g id="a_edge1&#45;headlabel"><a xlink:href="dir_000005_000016.html" target="_top" xlink:title="16">
<text text-anchor="middle" x="130.73" y="-188.01" font-family="Helvetica,sans-Serif" font-size="10.00">16</text>
</a>
</g>
</g>
<!-- dir_13510bfc8d6c882cc83f48e81fc78b9e&#45;&gt;dir_12817abd2662fe40efba8355c1386b9e -->
<g id="edge2" class="edge">
<title>dir_13510bfc8d6c882cc83f48e81fc78b9e&#45;&gt;dir_12817abd2662fe40efba8355c1386b9e</title>
<path fill="none" stroke="black" d="M149.28,-215.87C152.18,-191.56 161.98,-146.82 170.48,-118.01"/>
<polygon fill="black" stroke="black" points="173.91,-118.78 173.54,-108.19 167.22,-116.7 173.91,-118.78"/>
<g id="a_edge2&#45;headlabel"><a xlink:href="dir_000005_000002.html" target="_top" xlink:title="10">
<text text-anchor="middle" x="175.55" y="-120.55" font-family="Helvetica,sans-Serif" font-size="10.00">10</text>
</a>
</g>
</g>
<!-- dir_13510bfc8d6c882cc83f48e81fc78b9e&#45;&gt;dir_15d4893607df4bf7106bb9ed16128612 -->
<g id="edge3" class="edge">
<title>dir_13510bfc8d6c882cc83f48e81fc78b9e&#45;&gt;dir_15d4893607df4bf7106bb9ed16128612</title>
<path fill="none" stroke="black" d="M168.47,-215.9C200.46,-184.18 259.58,-114.82 225,-64 207.94,-38.92 174.52,-27.82 148.26,-22.9"/>
<polygon fill="black" stroke="black" points="148.67,-19.42 138.23,-21.25 147.53,-26.33 148.67,-19.42"/>
<g id="a_edge3&#45;headlabel"><a xlink:href="dir_000005_000007.html" target="_top" xlink:title="31">
<text text-anchor="middle" x="152.67" y="-14.7" font-family="Helvetica,sans-Serif" font-size="10.00">31</text>
</a>
</g>
</g>
<!-- dir_45751013e7de66cb9317c15709b40c18&#45;&gt;dir_db543a2fc901b00946a595a25d020389 -->
<g id="edge5" class="edge">
<title>dir_45751013e7de66cb9317c15709b40c18&#45;&gt;dir_db543a2fc901b00946a595a25d020389</title>
<path fill="none" stroke="black" d="M106.66,-143.88C103.47,-140.97 100.11,-137.93 97,-135 90.26,-128.65 83.16,-121.56 76.36,-114.96"/>
<polygon fill="black" stroke="black" points="78.78,-112.43 69.13,-108.04 73.94,-117.48 78.78,-112.43"/>
<g id="a_edge5&#45;headlabel"><a xlink:href="dir_000016_000010.html" target="_top" xlink:title="1">
<text text-anchor="middle" x="83.34" y="-110.36" font-family="Helvetica,sans-Serif" font-size="10.00">1</text>
</a>
</g>
</g>
<!-- dir_45751013e7de66cb9317c15709b40c18&#45;&gt;dir_13510bfc8d6c882cc83f48e81fc78b9e -->
<g id="edge4" class="edge">
<title>dir_45751013e7de66cb9317c15709b40c18&#45;&gt;dir_13510bfc8d6c882cc83f48e81fc78b9e</title>
<path fill="none" stroke="black" d="M131.71,-180.1C136.13,-187.96 140.7,-197.46 144.34,-206.23"/>
<polygon fill="black" stroke="black" points="141.13,-207.63 148.01,-215.7 147.66,-205.11 141.13,-207.63"/>
<g id="a_edge4&#45;headlabel"><a xlink:href="dir_000016_000005.html" target="_top" xlink:title="1">
<text text-anchor="middle" x="137.19" y="-202.8" font-family="Helvetica,sans-Serif" font-size="10.00">1</text>
</a>
</g>
</g>
<!-- dir_45751013e7de66cb9317c15709b40c18&#45;&gt;dir_12817abd2662fe40efba8355c1386b9e -->
<g id="edge6" class="edge">
<title>dir_45751013e7de66cb9317c15709b40c18&#45;&gt;dir_12817abd2662fe40efba8355c1386b9e</title>
<path fill="none" stroke="black" d="M127.9,-143.7C134.85,-135.14 144.25,-124.66 153.32,-115.3"/>
<polygon fill="black" stroke="black" points="155.9,-117.67 160.47,-108.1 150.94,-112.73 155.9,-117.67"/>
<g id="a_edge6&#45;headlabel"><a xlink:href="dir_000016_000002.html" target="_top" xlink:title="2">
<text text-anchor="middle" x="155.39" y="-119.72" font-family="Helvetica,sans-Serif" font-size="10.00">2</text>
</a>
</g>
</g>
<!-- dir_45751013e7de66cb9317c15709b40c18&#45;&gt;dir_15d4893607df4bf7106bb9ed16128612 -->
<g id="edge7" class="edge">
<title>dir_45751013e7de66cb9317c15709b40c18&#45;&gt;dir_15d4893607df4bf7106bb9ed16128612</title>
<path fill="none" stroke="black" d="M112.57,-143.87C108.82,-119.67 106.34,-75.21 106.89,-46.39"/>
<polygon fill="black" stroke="black" points="110.4,-46.31 107.26,-36.19 103.4,-46.06 110.4,-46.31"/>
<g id="a_edge7&#45;headlabel"><a xlink:href="dir_000016_000007.html" target="_top" xlink:title="6">
<text text-anchor="middle" x="113.11" y="-47.5" font-family="Helvetica,sans-Serif" font-size="10.00">6</text>
</a>
</g>
</g>
<!-- dir_12817abd2662fe40efba8355c1386b9e&#45;&gt;dir_db543a2fc901b00946a595a25d020389 -->
<g id="edge14" class="edge">
<title>dir_12817abd2662fe40efba8355c1386b9e&#45;&gt;dir_db543a2fc901b00946a595a25d020389</title>
<path fill="none" stroke="black" d="M147.71,-90C126.39,-90 105.08,-90 83.76,-90"/>
<polygon fill="black" stroke="black" points="83.63,-86.5 73.63,-90 83.63,-93.5 83.63,-86.5"/>
<g id="a_edge14&#45;headlabel"><a xlink:href="dir_000002_000010.html" target="_top" xlink:title="1">
<text text-anchor="middle" x="87.23" y="-81.16" font-family="Helvetica,sans-Serif" font-size="10.00">1</text>
</a>
</g>
</g>
<!-- dir_12817abd2662fe40efba8355c1386b9e&#45;&gt;dir_13510bfc8d6c882cc83f48e81fc78b9e -->
<g id="edge12" class="edge">
<title>dir_12817abd2662fe40efba8355c1386b9e&#45;&gt;dir_13510bfc8d6c882cc83f48e81fc78b9e</title>
<path fill="none" stroke="black" d="M182.72,-108.19C179.8,-132.53 169.99,-177.28 161.5,-206.06"/>
<polygon fill="black" stroke="black" points="158.07,-205.28 158.44,-215.87 164.76,-207.36 158.07,-205.28"/>
<g id="a_edge12&#45;headlabel"><a xlink:href="dir_000002_000005.html" target="_top" xlink:title="22">
<text text-anchor="middle" x="156.43" y="-198.51" font-family="Helvetica,sans-Serif" font-size="10.00">22</text>
</a>
</g>
</g>
<!-- dir_12817abd2662fe40efba8355c1386b9e&#45;&gt;dir_45751013e7de66cb9317c15709b40c18 -->
<g id="edge13" class="edge">
<title>dir_12817abd2662fe40efba8355c1386b9e&#45;&gt;dir_45751013e7de66cb9317c15709b40c18</title>
<path fill="none" stroke="black" d="M172.26,-108.1C165.35,-116.64 155.97,-127.11 146.89,-136.48"/>
<polygon fill="black" stroke="black" points="144.29,-134.13 139.74,-143.7 149.26,-139.06 144.29,-134.13"/>
<g id="a_edge13&#45;headlabel"><a xlink:href="dir_000002_000016.html" target="_top" xlink:title="45">
<text text-anchor="middle" x="144.81" y="-127.08" font-family="Helvetica,sans-Serif" font-size="10.00">45</text>
</a>
</g>
</g>
<!-- dir_12817abd2662fe40efba8355c1386b9e&#45;&gt;dir_15d4893607df4bf7106bb9ed16128612 -->
<g id="edge15" class="edge">
<title>dir_12817abd2662fe40efba8355c1386b9e&#45;&gt;dir_15d4893607df4bf7106bb9ed16128612</title>
<path fill="none" stroke="black" d="M164.45,-71.7C155.77,-63.14 145.14,-52.66 135.65,-43.3"/>
<polygon fill="black" stroke="black" points="137.93,-40.63 128.35,-36.1 133.01,-45.62 137.93,-40.63"/>
<g id="a_edge15&#45;headlabel"><a xlink:href="dir_000002_000007.html" target="_top" xlink:title="2">
<text text-anchor="middle" x="142.48" y="-38.63" font-family="Helvetica,sans-Serif" font-size="10.00">2</text>
</a>
</g>
</g>
<!-- dir_15d4893607df4bf7106bb9ed16128612&#45;&gt;dir_db543a2fc901b00946a595a25d020389 -->
<g id="edge17" class="edge">
<title>dir_15d4893607df4bf7106bb9ed16128612&#45;&gt;dir_db543a2fc901b00946a595a25d020389</title>
<path fill="none" stroke="black" d="M100.77,-36.1C93.62,-44.64 83.94,-55.11 74.59,-64.48"/>
<polygon fill="black" stroke="black" points="71.92,-62.2 67.23,-71.7 76.82,-67.2 71.92,-62.2"/>
<g id="a_edge17&#45;headlabel"><a xlink:href="dir_000007_000010.html" target="_top" xlink:title="1">
<text text-anchor="middle" x="72.5" y="-55.15" font-family="Helvetica,sans-Serif" font-size="10.00">1</text>
</a>
</g>
</g>
<!-- dir_15d4893607df4bf7106bb9ed16128612&#45;&gt;dir_45751013e7de66cb9317c15709b40c18 -->
<g id="edge16" class="edge">
<title>dir_15d4893607df4bf7106bb9ed16128612&#45;&gt;dir_45751013e7de66cb9317c15709b40c18</title>
<path fill="none" stroke="black" d="M116.44,-36.19C120.19,-60.42 122.67,-104.89 122.11,-133.68"/>
<polygon fill="black" stroke="black" points="118.6,-133.75 121.74,-143.87 125.6,-134 118.6,-133.75"/>
<g id="a_edge16&#45;headlabel"><a xlink:href="dir_000007_000016.html" target="_top" xlink:title="37">
<text text-anchor="middle" x="115.89" y="-127.56" font-family="Helvetica,sans-Serif" font-size="10.00">37</text>
</a>
</g>
</g>
</g>
</svg>
