<?xml version="1.0" encoding="UTF-8" standalone="no"?>
<!DOCTYPE svg PUBLIC "-//W3C//DTD SVG 1.1//EN"
 "http://www.w3.org/Graphics/SVG/1.1/DTD/svg11.dtd">
<!-- Generated by graphviz version 2.43.0 (0)
 -->
<!-- Title: src/polyfem/assembler Pages: 1 -->
<svg width="394pt" height="332pt"
 viewBox="0.00 0.00 394.29 332.00" xmlns="http://www.w3.org/2000/svg" xmlns:xlink="http://www.w3.org/1999/xlink">
<g id="graph0" class="graph" transform="scale(1 1) rotate(0) translate(4 328)">
<title>src/polyfem/assembler</title>
<g id="clust1" class="cluster">
<title>clusterdir_2dc3e3ac563c5097fbf94f8f985cc10c</title>
<g id="a_clust1"><a xlink:href="dir_2dc3e3ac563c5097fbf94f8f985cc10c.html" target="_top" xlink:title="polyfem">
<polygon fill="#ddddee" stroke="black" points="166.14,-208 166.14,-279 250.14,-279 250.14,-208 166.14,-208"/>
<text text-anchor="middle" x="208.14" y="-267" font-family="Helvetica,sans-Serif" font-size="10.00">polyfem</text>
</a>
</g>
</g>
<!-- dir_12817abd2662fe40efba8355c1386b9e -->
<g id="node1" class="node">
<title>dir_12817abd2662fe40efba8355c1386b9e</title>
<g id="a_node1"><a xlink:href="dir_12817abd2662fe40efba8355c1386b9e.html" target="_top" xlink:title="assembler">
<polygon fill="#eeeeff" stroke="black" points="242.14,-252 174.14,-252 174.14,-216 242.14,-216 242.14,-252"/>
<text text-anchor="middle" x="208.14" y="-231.5" font-family="Helvetica,sans-Serif" font-size="10.00">assembler</text>
</a>
</g>
</g>
<!-- dir_13510bfc8d6c882cc83f48e81fc78b9e -->
<g id="node2" class="node">
<title>dir_13510bfc8d6c882cc83f48e81fc78b9e</title>
<g id="a_node2"><a xlink:href="dir_13510bfc8d6c882cc83f48e81fc78b9e.html" target="_top" xlink:title="basis">
<polygon fill="none" stroke="red" points="172.14,-324 118.14,-324 118.14,-288 172.14,-288 172.14,-324"/>
<text text-anchor="middle" x="145.14" y="-303.5" font-family="Helvetica,sans-Serif" font-size="10.00">basis</text>
</a>
</g>
</g>
<!-- dir_12817abd2662fe40efba8355c1386b9e&#45;&gt;dir_13510bfc8d6c882cc83f48e81fc78b9e -->
<g id="edge16" class="edge">
<title>dir_12817abd2662fe40efba8355c1386b9e&#45;&gt;dir_13510bfc8d6c882cc83f48e81fc78b9e</title>
<path fill="none" stroke="black" d="M186.85,-252.1C178.44,-260.47 169.04,-270.69 161.21,-279.92"/>
<polygon fill="black" stroke="black" points="158.45,-277.75 154.79,-287.7 163.86,-282.21 158.45,-277.75"/>
<g id="a_edge16&#45;headlabel"><a xlink:href="dir_000002_000005.html" target="_top" xlink:title="22">
<text text-anchor="middle" x="158.55" y="-270.67" font-family="Helvetica,sans-Serif" font-size="10.00">22</text>
</a>
</g>
</g>
<!-- dir_45751013e7de66cb9317c15709b40c18 -->
<g id="node3" class="node">
<title>dir_45751013e7de66cb9317c15709b40c18</title>
<g id="a_node3"><a xlink:href="dir_45751013e7de66cb9317c15709b40c18.html" target="_top" xlink:title="utils">
<polygon fill="none" stroke="black" points="100.14,-252 46.14,-252 46.14,-216 100.14,-216 100.14,-252"/>
<text text-anchor="middle" x="73.14" y="-231.5" font-family="Helvetica,sans-Serif" font-size="10.00">utils</text>
</a>
</g>
</g>
<!-- dir_12817abd2662fe40efba8355c1386b9e&#45;&gt;dir_45751013e7de66cb9317c15709b40c18 -->
<g id="edge17" class="edge">
<title>dir_12817abd2662fe40efba8355c1386b9e&#45;&gt;dir_45751013e7de66cb9317c15709b40c18</title>
<path fill="none" stroke="black" d="M174.01,-234C152.8,-234 131.59,-234 110.37,-234"/>
<polygon fill="black" stroke="black" points="110.29,-230.5 100.29,-234 110.29,-237.5 110.29,-230.5"/>
<g id="a_edge17&#45;headlabel"><a xlink:href="dir_000002_000016.html" target="_top" xlink:title="45">
<text text-anchor="middle" x="113.89" y="-225.16" font-family="Helvetica,sans-Serif" font-size="10.00">45</text>
</a>
</g>
</g>
<!-- dir_db543a2fc901b00946a595a25d020389 -->
<g id="node4" class="node">
<title>dir_db543a2fc901b00946a595a25d020389</title>
<g id="a_node4"><a xlink:href="dir_db543a2fc901b00946a595a25d020389.html" target="_top" xlink:title="problem">
<polygon fill="none" stroke="black" points="76.64,-36 19.64,-36 19.64,0 76.64,0 76.64,-36"/>
<text text-anchor="middle" x="48.14" y="-15.5" font-family="Helvetica,sans-Serif" font-size="10.00">problem</text>
</a>
</g>
</g>
<!-- dir_12817abd2662fe40efba8355c1386b9e&#45;&gt;dir_db543a2fc901b00946a595a25d020389 -->
<g id="edge18" class="edge">
<title>dir_12817abd2662fe40efba8355c1386b9e&#45;&gt;dir_db543a2fc901b00946a595a25d020389</title>
<path fill="none" stroke="black" d="M220.86,-215.85C227.42,-205.92 234.74,-192.88 238.14,-180 242.21,-164.53 243.33,-159.13 238.14,-144 224.98,-105.65 214.57,-96.31 182.14,-72 153.52,-50.55 115.08,-36.53 86.71,-28.33"/>
<polygon fill="black" stroke="black" points="87.32,-24.87 76.75,-25.57 85.45,-31.61 87.32,-24.87"/>
<g id="a_edge18&#45;headlabel"><a xlink:href="dir_000002_000010.html" target="_top" xlink:title="1">
<text text-anchor="middle" x="91.55" y="-20.59" font-family="Helvetica,sans-Serif" font-size="10.00">1</text>
</a>
</g>
</g>
<!-- dir_15d4893607df4bf7106bb9ed16128612 -->
<g id="node5" class="node">
<title>dir_15d4893607df4bf7106bb9ed16128612</title>
<g id="a_node5"><a xlink:href="dir_15d4893607df4bf7106bb9ed16128612.html" target="_top" xlink:title="mesh">
<polygon fill="none" stroke="red" points="75.14,-108 21.14,-108 21.14,-72 75.14,-72 75.14,-108"/>
<text text-anchor="middle" x="48.14" y="-87.5" font-family="Helvetica,sans-Serif" font-size="10.00">mesh</text>
</a>
</g>
</g>
<!-- dir_12817abd2662fe40efba8355c1386b9e&#45;&gt;dir_15d4893607df4bf7106bb9ed16128612 -->
<g id="edge19" class="edge">
<title>dir_12817abd2662fe40efba8355c1386b9e&#45;&gt;dir_15d4893607df4bf7106bb9ed16128612</title>
<path fill="none" stroke="black" d="M209.08,-215.81C209.22,-196.16 206.45,-164.12 189.14,-144 182.02,-135.73 124.28,-115.73 84.93,-102.8"/>
<polygon fill="black" stroke="black" points="85.96,-99.45 75.36,-99.67 83.78,-106.1 85.96,-99.45"/>
<g id="a_edge19&#45;headlabel"><a xlink:href="dir_000002_000007.html" target="_top" xlink:title="2">
<text text-anchor="middle" x="90.25" y="-95.37" font-family="Helvetica,sans-Serif" font-size="10.00">2</text>
</a>
</g>
</g>
<!-- dir_203a0b4429a33981429312ec216e7182 -->
<g id="node6" class="node">
<title>dir_203a0b4429a33981429312ec216e7182</title>
<g id="a_node6"><a xlink:href="dir_203a0b4429a33981429312ec216e7182.html" target="_top" xlink:title="autogen">
<polygon fill="none" stroke="red" points="173.14,-108 117.14,-108 117.14,-72 173.14,-72 173.14,-108"/>
<text text-anchor="middle" x="145.14" y="-87.5" font-family="Helvetica,sans-Serif" font-size="10.00">autogen</text>
</a>
</g>
</g>
<!-- dir_12817abd2662fe40efba8355c1386b9e&#45;&gt;dir_203a0b4429a33981429312ec216e7182 -->
<g id="edge20" class="edge">
<title>dir_12817abd2662fe40efba8355c1386b9e&#45;&gt;dir_203a0b4429a33981429312ec216e7182</title>
<path fill="none" stroke="black" d="M216.74,-215.92C224.86,-197.21 234.14,-166.84 222.14,-144 213.63,-127.82 197.71,-115.62 182.54,-107.03"/>
<polygon fill="black" stroke="black" points="183.74,-103.71 173.26,-102.14 180.48,-109.9 183.74,-103.71"/>
<g id="a_edge20&#45;headlabel"><a xlink:href="dir_000002_000003.html" target="_top" xlink:title="7">
<text text-anchor="middle" x="188.24" y="-100.37" font-family="Helvetica,sans-Serif" font-size="10.00">7</text>
</a>
</g>
</g>
<!-- dir_28e20ee8d73aef910b60f97bead953cb -->
<g id="node7" class="node">
<title>dir_28e20ee8d73aef910b60f97bead953cb</title>
<g id="a_node7"><a xlink:href="dir_28e20ee8d73aef910b60f97bead953cb.html" target="_top" xlink:title="quadrature">
<polygon fill="none" stroke="black" points="180.14,-180 110.14,-180 110.14,-144 180.14,-144 180.14,-180"/>
<text text-anchor="middle" x="145.14" y="-159.5" font-family="Helvetica,sans-Serif" font-size="10.00">quadrature</text>
</a>
</g>
</g>
<!-- dir_12817abd2662fe40efba8355c1386b9e&#45;&gt;dir_28e20ee8d73aef910b60f97bead953cb -->
<g id="edge21" class="edge">
<title>dir_12817abd2662fe40efba8355c1386b9e&#45;&gt;dir_28e20ee8d73aef910b60f97bead953cb</title>
<path fill="none" stroke="black" d="M192.56,-215.7C184.93,-207.22 175.61,-196.86 167.26,-187.58"/>
<polygon fill="black" stroke="black" points="169.82,-185.2 160.53,-180.1 164.62,-189.88 169.82,-185.2"/>
<g id="a_edge21&#45;headlabel"><a xlink:href="dir_000002_000011.html" target="_top" xlink:title="1">
<text text-anchor="middle" x="174.34" y="-183.47" font-family="Helvetica,sans-Serif" font-size="10.00">1</text>
</a>
</g>
</g>
<!-- dir_13510bfc8d6c882cc83f48e81fc78b9e&#45;&gt;dir_12817abd2662fe40efba8355c1386b9e -->
<g id="edge2" class="edge">
<title>dir_13510bfc8d6c882cc83f48e81fc78b9e&#45;&gt;dir_12817abd2662fe40efba8355c1386b9e</title>
<path fill="none" stroke="black" d="M166.62,-287.7C175.04,-279.3 184.45,-269.07 192.25,-259.86"/>
<polygon fill="black" stroke="black" points="194.98,-262.05 198.64,-252.1 189.58,-257.6 194.98,-262.05"/>
<g id="a_edge2&#45;headlabel"><a xlink:href="dir_000005_000002.html" target="_top" xlink:title="10">
<text text-anchor="middle" x="194.89" y="-264.13" font-family="Helvetica,sans-Serif" font-size="10.00">10</text>
</a>
</g>
</g>
<!-- dir_13510bfc8d6c882cc83f48e81fc78b9e&#45;&gt;dir_45751013e7de66cb9317c15709b40c18 -->
<g id="edge1" class="edge">
<title>dir_13510bfc8d6c882cc83f48e81fc78b9e&#45;&gt;dir_45751013e7de66cb9317c15709b40c18</title>
<path fill="none" stroke="black" d="M121.42,-287.7C111.83,-279.22 100.99,-268.86 91.94,-259.58"/>
<polygon fill="black" stroke="black" points="94.26,-256.94 84.83,-252.1 89.19,-261.76 94.26,-256.94"/>
<g id="a_edge1&#45;headlabel"><a xlink:href="dir_000005_000016.html" target="_top" xlink:title="16">
<text text-anchor="middle" x="98.8" y="-255.09" font-family="Helvetica,sans-Serif" font-size="10.00">16</text>
</a>
</g>
</g>
<!-- dir_13510bfc8d6c882cc83f48e81fc78b9e&#45;&gt;dir_15d4893607df4bf7106bb9ed16128612 -->
<g id="edge3" class="edge">
<title>dir_13510bfc8d6c882cc83f48e81fc78b9e&#45;&gt;dir_15d4893607df4bf7106bb9ed16128612</title>
<path fill="none" stroke="black" d="M117.89,-302.25C89.26,-298.73 47.01,-291.54 37.14,-279 0.38,-232.34 21.33,-157.22 36.6,-117.53"/>
<polygon fill="black" stroke="black" points="39.94,-118.6 40.42,-108.02 33.44,-116 39.94,-118.6"/>
<g id="a_edge3&#45;headlabel"><a xlink:href="dir_000005_000007.html" target="_top" xlink:title="31">
<text text-anchor="middle" x="41.24" y="-120.5" font-family="Helvetica,sans-Serif" font-size="10.00">31</text>
</a>
</g>
</g>
<!-- dir_13510bfc8d6c882cc83f48e81fc78b9e&#45;&gt;dir_203a0b4429a33981429312ec216e7182 -->
<g id="edge4" class="edge">
<title>dir_13510bfc8d6c882cc83f48e81fc78b9e&#45;&gt;dir_203a0b4429a33981429312ec216e7182</title>
<path fill="none" stroke="black" d="M172.37,-302.32C201.27,-298.84 244.13,-291.67 254.14,-279 291.58,-231.58 274.65,-192.14 238.14,-144 224.21,-125.63 201.94,-112.62 182.69,-104.09"/>
<polygon fill="black" stroke="black" points="183.82,-100.77 173.24,-100.14 181.12,-107.23 183.82,-100.77"/>
<g id="a_edge4&#45;headlabel"><a xlink:href="dir_000005_000003.html" target="_top" xlink:title="8">
<text text-anchor="middle" x="188.23" y="-97.03" font-family="Helvetica,sans-Serif" font-size="10.00">8</text>
</a>
</g>
</g>
<!-- dir_13510bfc8d6c882cc83f48e81fc78b9e&#45;&gt;dir_28e20ee8d73aef910b60f97bead953cb -->
<g id="edge5" class="edge">
<title>dir_13510bfc8d6c882cc83f48e81fc78b9e&#45;&gt;dir_28e20ee8d73aef910b60f97bead953cb</title>
<path fill="none" stroke="black" d="M145.14,-287.87C145.14,-263.67 145.14,-219.21 145.14,-190.39"/>
<polygon fill="black" stroke="black" points="148.64,-190.19 145.14,-180.19 141.64,-190.19 148.64,-190.19"/>
<g id="a_edge5&#45;headlabel"><a xlink:href="dir_000005_000011.html" target="_top" xlink:title="15">
<text text-anchor="middle" x="151.48" y="-191.28" font-family="Helvetica,sans-Serif" font-size="10.00">15</text>
</a>
</g>
</g>
<!-- dir_45751013e7de66cb9317c15709b40c18&#45;&gt;dir_12817abd2662fe40efba8355c1386b9e -->
<g id="edge8" class="edge">
<title>dir_45751013e7de66cb9317c15709b40c18&#45;&gt;dir_12817abd2662fe40efba8355c1386b9e</title>
<path fill="none" stroke="black" d="M100.29,-234C121.51,-234 142.72,-234 163.94,-234"/>
<polygon fill="black" stroke="black" points="164.01,-237.5 174.01,-234 164.01,-230.5 164.01,-237.5"/>
<g id="a_edge8&#45;headlabel"><a xlink:href="dir_000016_000002.html" target="_top" xlink:title="2">
<text text-anchor="middle" x="160.42" y="-237.84" font-family="Helvetica,sans-Serif" font-size="10.00">2</text>
</a>
</g>
</g>
<!-- dir_45751013e7de66cb9317c15709b40c18&#45;&gt;dir_13510bfc8d6c882cc83f48e81fc78b9e -->
<g id="edge6" class="edge">
<title>dir_45751013e7de66cb9317c15709b40c18&#45;&gt;dir_13510bfc8d6c882cc83f48e81fc78b9e</title>
<path fill="none" stroke="black" d="M96.62,-252.1C106.2,-260.55 117.04,-270.9 126.11,-280.2"/>
<polygon fill="black" stroke="black" points="123.82,-282.87 133.25,-287.7 128.89,-278.04 123.82,-282.87"/>
<g id="a_edge6&#45;headlabel"><a xlink:href="dir_000016_000005.html" target="_top" xlink:title="1">
<text text-anchor="middle" x="119.29" y="-279.72" font-family="Helvetica,sans-Serif" font-size="10.00">1</text>
</a>
</g>
</g>
<!-- dir_45751013e7de66cb9317c15709b40c18&#45;&gt;dir_db543a2fc901b00946a595a25d020389 -->
<g id="edge7" class="edge">
<title>dir_45751013e7de66cb9317c15709b40c18&#45;&gt;dir_db543a2fc901b00946a595a25d020389</title>
<path fill="none" stroke="black" d="M55.04,-215.82C36.89,-192.63 11.42,-149.44 3.14,-108 -0,-92.31 -1.57,-87.29 3.14,-72 6.18,-62.11 11.76,-52.41 18.07,-44.07"/>
<polygon fill="black" stroke="black" points="20.88,-46.16 24.55,-36.23 15.48,-41.71 20.88,-46.16"/>
<g id="a_edge7&#45;headlabel"><a xlink:href="dir_000016_000010.html" target="_top" xlink:title="1">
<text text-anchor="middle" x="20.78" y="-48.24" font-family="Helvetica,sans-Serif" font-size="10.00">1</text>
</a>
</g>
</g>
<!-- dir_45751013e7de66cb9317c15709b40c18&#45;&gt;dir_15d4893607df4bf7106bb9ed16128612 -->
<g id="edge9" class="edge">
<title>dir_45751013e7de66cb9317c15709b40c18&#45;&gt;dir_15d4893607df4bf7106bb9ed16128612</title>
<path fill="none" stroke="black" d="M55.82,-215.91C49.64,-205.79 43.89,-192.54 41.14,-180 36.67,-159.65 36.35,-136.06 38.37,-118.28"/>
<polygon fill="black" stroke="black" points="41.84,-118.7 39.86,-108.29 34.92,-117.67 41.84,-118.7"/>
<g id="a_edge9&#45;headlabel"><a xlink:href="dir_000016_000007.html" target="_top" xlink:title="6">
<text text-anchor="middle" x="44.12" y="-120.18" font-family="Helvetica,sans-Serif" font-size="10.00">6</text>
</a>
</g>
</g>
<!-- dir_45751013e7de66cb9317c15709b40c18&#45;&gt;dir_203a0b4429a33981429312ec216e7182 -->
<g id="edge10" class="edge">
<title>dir_45751013e7de66cb9317c15709b40c18&#45;&gt;dir_203a0b4429a33981429312ec216e7182</title>
<path fill="none" stroke="black" d="M69.83,-215.82C71.51,-197.29 79.43,-167.33 92.14,-144 97.57,-134.03 105.02,-124.17 112.71,-115.7"/>
<polygon fill="black" stroke="black" points="115.37,-117.99 119.79,-108.36 110.33,-113.13 115.37,-117.99"/>
<g id="a_edge10&#45;headlabel"><a xlink:href="dir_000016_000003.html" target="_top" xlink:title="2">
<text text-anchor="middle" x="114.92" y="-120.04" font-family="Helvetica,sans-Serif" font-size="10.00">2</text>
</a>
</g>
</g>
<!-- dir_45751013e7de66cb9317c15709b40c18&#45;&gt;dir_28e20ee8d73aef910b60f97bead953cb -->
<g id="edge11" class="edge">
<title>dir_45751013e7de66cb9317c15709b40c18&#45;&gt;dir_28e20ee8d73aef910b60f97bead953cb</title>
<path fill="none" stroke="black" d="M90.93,-215.7C99.74,-207.14 110.52,-196.66 120.14,-187.3"/>
<polygon fill="black" stroke="black" points="122.81,-189.58 127.54,-180.1 117.93,-184.57 122.81,-189.58"/>
<g id="a_edge11&#45;headlabel"><a xlink:href="dir_000016_000011.html" target="_top" xlink:title="3">
<text text-anchor="middle" x="122.21" y="-191.63" font-family="Helvetica,sans-Serif" font-size="10.00">3</text>
</a>
</g>
</g>
<!-- dir_db543a2fc901b00946a595a25d020389&#45;&gt;dir_12817abd2662fe40efba8355c1386b9e -->
<g id="edge14" class="edge">
<title>dir_db543a2fc901b00946a595a25d020389&#45;&gt;dir_12817abd2662fe40efba8355c1386b9e</title>
<path fill="none" stroke="black" d="M76.79,-19.81C142.96,-22.35 303.28,-32.54 336.14,-72 366.85,-108.88 362.81,-140.09 336.14,-180 317.55,-207.82 281.37,-221.05 252.2,-227.34"/>
<polygon fill="black" stroke="black" points="251.37,-223.94 242.22,-229.29 252.71,-230.81 251.37,-223.94"/>
<g id="a_edge14&#45;headlabel"><a xlink:href="dir_000010_000002.html" target="_top" xlink:title="4">
<text text-anchor="middle" x="254.35" y="-217.96" font-family="Helvetica,sans-Serif" font-size="10.00">4</text>
</a>
</g>
</g>
<!-- dir_db543a2fc901b00946a595a25d020389&#45;&gt;dir_13510bfc8d6c882cc83f48e81fc78b9e -->
<g id="edge12" class="edge">
<title>dir_db543a2fc901b00946a595a25d020389&#45;&gt;dir_13510bfc8d6c882cc83f48e81fc78b9e</title>
<path fill="none" stroke="black" d="M76.7,-19.38C146.58,-20.98 323.06,-29.25 359.14,-72 422.86,-147.5 362.92,-228.29 278.14,-279 249.04,-296.4 210.56,-302.45 182.48,-304.41"/>
<polygon fill="black" stroke="black" points="182.06,-300.93 172.27,-304.98 182.45,-307.92 182.06,-300.93"/>
<g id="a_edge12&#45;headlabel"><a xlink:href="dir_000010_000005.html" target="_top" xlink:title="1">
<text text-anchor="middle" x="185.49" y="-295.4" font-family="Helvetica,sans-Serif" font-size="10.00">1</text>
</a>
</g>
</g>
<!-- dir_db543a2fc901b00946a595a25d020389&#45;&gt;dir_45751013e7de66cb9317c15709b40c18 -->
<g id="edge13" class="edge">
<title>dir_db543a2fc901b00946a595a25d020389&#45;&gt;dir_45751013e7de66cb9317c15709b40c18</title>
<path fill="none" stroke="black" d="M40.5,-36.23C33.76,-45.97 25.19,-58.82 21.14,-72 16.43,-87.29 18,-92.31 21.14,-108 28.45,-144.58 49.15,-182.53 62.44,-206.88"/>
<polygon fill="black" stroke="black" points="59.45,-208.7 67.29,-215.82 65.6,-205.36 59.45,-208.7"/>
<g id="a_edge13&#45;headlabel"><a xlink:href="dir_000010_000016.html" target="_top" xlink:title="11">
<text text-anchor="middle" x="55.24" y="-204.4" font-family="Helvetica,sans-Serif" font-size="10.00">11</text>
</a>
</g>
</g>
<!-- dir_db543a2fc901b00946a595a25d020389&#45;&gt;dir_15d4893607df4bf7106bb9ed16128612 -->
<g id="edge15" class="edge">
<title>dir_db543a2fc901b00946a595a25d020389&#45;&gt;dir_15d4893607df4bf7106bb9ed16128612</title>
<path fill="none" stroke="black" d="M54.03,-36.1C54.84,-43.79 55.07,-53.05 54.74,-61.67"/>
<polygon fill="black" stroke="black" points="51.24,-61.48 54.05,-71.7 58.23,-61.96 51.24,-61.48"/>
<g id="a_edge15&#45;headlabel"><a xlink:href="dir_000010_000007.html" target="_top" xlink:title="2">
<text text-anchor="middle" x="48.66" y="-55.2" font-family="Helvetica,sans-Serif" font-size="10.00">2</text>
</a>
</g>
</g>
<!-- dir_15d4893607df4bf7106bb9ed16128612&#45;&gt;dir_45751013e7de66cb9317c15709b40c18 -->
<g id="edge22" class="edge">
<title>dir_15d4893607df4bf7106bb9ed16128612&#45;&gt;dir_45751013e7de66cb9317c15709b40c18</title>
<path fill="none" stroke="black" d="M53.3,-108.29C54.4,-126.4 53.77,-155.54 59.14,-180 61.09,-188.92 64.56,-198.19 67.82,-206.44"/>
<polygon fill="black" stroke="black" points="64.63,-207.9 71.57,-215.91 71.14,-205.32 64.63,-207.9"/>
<g id="a_edge22&#45;headlabel"><a xlink:href="dir_000007_000016.html" target="_top" xlink:title="37">
<text text-anchor="middle" x="60.67" y="-203.1" font-family="Helvetica,sans-Serif" font-size="10.00">37</text>
</a>
</g>
</g>
<!-- dir_15d4893607df4bf7106bb9ed16128612&#45;&gt;dir_db543a2fc901b00946a595a25d020389 -->
<g id="edge23" class="edge">
<title>dir_15d4893607df4bf7106bb9ed16128612&#45;&gt;dir_db543a2fc901b00946a595a25d020389</title>
<path fill="none" stroke="black" d="M42.22,-71.7C41.42,-63.98 41.2,-54.71 41.54,-46.11"/>
<polygon fill="black" stroke="black" points="45.03,-46.32 42.24,-36.1 38.05,-45.84 45.03,-46.32"/>
<g id="a_edge23&#45;headlabel"><a xlink:href="dir_000007_000010.html" target="_top" xlink:title="1">
<text text-anchor="middle" x="47.62" y="-47.61" font-family="Helvetica,sans-Serif" font-size="10.00">1</text>
</a>
</g>
</g>
<!-- dir_203a0b4429a33981429312ec216e7182&#45;&gt;dir_45751013e7de66cb9317c15709b40c18 -->
<g id="edge24" class="edge">
<title>dir_203a0b4429a33981429312ec216e7182&#45;&gt;dir_45751013e7de66cb9317c15709b40c18</title>
<path fill="none" stroke="black" d="M135.74,-108.36C127.78,-118.14 117.23,-130.98 110.14,-144 99.46,-163.59 92.17,-187.86 86.31,-206.11"/>
<polygon fill="black" stroke="black" points="82.91,-205.22 83.1,-215.82 89.56,-207.42 82.91,-205.22"/>
<g id="a_edge24&#45;headlabel"><a xlink:href="dir_000003_000016.html" target="_top" xlink:title="2">
<text text-anchor="middle" x="81.35" y="-198.42" font-family="Helvetica,sans-Serif" font-size="10.00">2</text>
</a>
</g>
</g>
<!-- dir_28e20ee8d73aef910b60f97bead953cb&#45;&gt;dir_15d4893607df4bf7106bb9ed16128612 -->
<g id="edge25" class="edge">
<title>dir_28e20ee8d73aef910b60f97bead953cb&#45;&gt;dir_15d4893607df4bf7106bb9ed16128612</title>
<path fill="none" stroke="black" d="M121.16,-143.7C108.82,-134.8 93.62,-123.82 80.28,-114.2"/>
<polygon fill="black" stroke="black" points="81.99,-111.12 71.84,-108.1 77.9,-116.79 81.99,-111.12"/>
<g id="a_edge25&#45;headlabel"><a xlink:href="dir_000011_000007.html" target="_top" xlink:title="1">
<text text-anchor="middle" x="86.57" y="-108.42" font-family="Helvetica,sans-Serif" font-size="10.00">1</text>
</a>
</g>
</g>
<!-- dir_28e20ee8d73aef910b60f97bead953cb&#45;&gt;dir_203a0b4429a33981429312ec216e7182 -->
<g id="edge26" class="edge">
<title>dir_28e20ee8d73aef910b60f97bead953cb&#45;&gt;dir_203a0b4429a33981429312ec216e7182</title>
<path fill="none" stroke="black" d="M145.14,-143.7C145.14,-135.98 145.14,-126.71 145.14,-118.11"/>
<polygon fill="black" stroke="black" points="148.64,-118.1 145.14,-108.1 141.64,-118.1 148.64,-118.1"/>
<g id="a_edge26&#45;headlabel"><a xlink:href="dir_000011_000003.html" target="_top" xlink:title="2">
<text text-anchor="middle" x="151.48" y="-119.2" font-family="Helvetica,sans-Serif" font-size="10.00">2</text>
</a>
</g>
</g>
</g>
</svg>
