<?xml version="1.0" encoding="UTF-8" standalone="no"?>
<!DOCTYPE svg PUBLIC "-//W3C//DTD SVG 1.1//EN"
 "http://www.w3.org/Graphics/SVG/1.1/DTD/svg11.dtd">
<!-- Generated by graphviz version 2.43.0 (0)
 -->
<!-- Title: src/polyfem/problem Pages: 1 -->
<svg width="180pt" height="167pt"
 viewBox="0.00 0.00 180.00 167.00" xmlns="http://www.w3.org/2000/svg" xmlns:xlink="http://www.w3.org/1999/xlink">
<g id="graph0" class="graph" transform="scale(1 1) rotate(0) translate(4 163)">
<title>src/polyfem/problem</title>
<g id="clust1" class="cluster">
<title>clusterdir_2dc3e3ac563c5097fbf94f8f985cc10c</title>
<g id="a_clust1"><a xlink:href="dir_2dc3e3ac563c5097fbf94f8f985cc10c.html" target="_top" xlink:title="polyfem">
<polygon fill="#edf0f7" stroke="#7f7f7f" stroke-dasharray="5,2" points="8,-8 8,-151 164,-151 164,-8 8,-8"/>
<text text-anchor="middle" x="86" y="-139" font-family="Helvetica,sans-Serif" font-size="10.00">polyfem</text>
</a>
</g>
</g>
<!-- dir_12817abd2662fe40efba8355c1386b9e -->
<g id="node1" class="node">
<title>dir_12817abd2662fe40efba8355c1386b9e</title>
<g id="a_node1"><a xlink:href="dir_12817abd2662fe40efba8355c1386b9e.html" target="_top" xlink:title="assembler">
<polygon fill="#a2b4d6" stroke="#404040" points="84,-52 16,-52 16,-16 84,-16 84,-52"/>
<text text-anchor="middle" x="50" y="-31.5" font-family="Helvetica,sans-Serif" font-size="10.00">assembler</text>
</a>
</g>
</g>
<!-- dir_45751013e7de66cb9317c15709b40c18 -->
<g id="node2" class="node">
<title>dir_45751013e7de66cb9317c15709b40c18</title>
<g id="a_node2"><a xlink:href="dir_45751013e7de66cb9317c15709b40c18.html" target="_top" xlink:title="utils">
<polygon fill="#a2b4d6" stroke="#404040" points="156,-52 102,-52 102,-16 156,-16 156,-52"/>
<text text-anchor="middle" x="129" y="-31.5" font-family="Helvetica,sans-Serif" font-size="10.00">utils</text>
</a>
</g>
</g>
<!-- dir_db543a2fc901b00946a595a25d020389 -->
<g id="node3" class="node">
<title>dir_db543a2fc901b00946a595a25d020389</title>
<g id="a_node3"><a xlink:href="dir_db543a2fc901b00946a595a25d020389.html" target="_top" xlink:title="problem">
<polygon fill="#edf0f7" stroke="#404040" stroke-width="2" points="116.5,-124 59.5,-124 59.5,-88 116.5,-88 116.5,-124"/>
<text text-anchor="middle" x="88" y="-103.5" font-family="Helvetica,sans-Serif" font-size="10.00">problem</text>
</a>
</g>
</g>
<!-- dir_db543a2fc901b00946a595a25d020389&#45;&gt;dir_12817abd2662fe40efba8355c1386b9e -->
<g id="edge1" class="edge">
<title>dir_db543a2fc901b00946a595a25d020389&#45;&gt;dir_12817abd2662fe40efba8355c1386b9e</title>
<path fill="none" stroke="black" d="M78.61,-87.7C74.24,-79.64 68.94,-69.89 64.1,-60.98"/>
<polygon fill="black" stroke="black" points="67.13,-59.22 59.29,-52.1 60.98,-62.56 67.13,-59.22"/>
<g id="a_edge1&#45;headlabel"><a xlink:href="dir_000010_000000.html" target="_top" xlink:title="9">
<text text-anchor="middle" x="71.34" y="-58.53" font-family="Helvetica,sans-Serif" font-size="10.00">9</text>
</a>
</g>
</g>
<!-- dir_db543a2fc901b00946a595a25d020389&#45;&gt;dir_45751013e7de66cb9317c15709b40c18 -->
<g id="edge2" class="edge">
<title>dir_db543a2fc901b00946a595a25d020389&#45;&gt;dir_45751013e7de66cb9317c15709b40c18</title>
<path fill="none" stroke="black" d="M98.13,-87.7C102.85,-79.64 108.56,-69.89 113.78,-60.98"/>
<polygon fill="black" stroke="black" points="116.95,-62.5 118.98,-52.1 110.91,-58.96 116.95,-62.5"/>
<g id="a_edge2&#45;headlabel"><a xlink:href="dir_000010_000017.html" target="_top" xlink:title="9">
<text text-anchor="middle" x="117.58" y="-64.54" font-family="Helvetica,sans-Serif" font-size="10.00">9</text>
</a>
</g>
</g>
</g>
</svg>
