<?xml version="1.0" encoding="UTF-8" standalone="no"?>
<!DOCTYPE svg PUBLIC "-//W3C//DTD SVG 1.1//EN"
 "http://www.w3.org/Graphics/SVG/1.1/DTD/svg11.dtd">
<!-- Generated by graphviz version 2.43.0 (0)
 -->
<!-- Title: src/polyfem/solver Pages: 1 -->
<svg width="370pt" height="247pt"
 viewBox="0.00 0.00 370.00 247.00" xmlns="http://www.w3.org/2000/svg" xmlns:xlink="http://www.w3.org/1999/xlink">
<g id="graph0" class="graph" transform="scale(1 1) rotate(0) translate(4 243)">
<title>src/polyfem/solver</title>
<g id="clust1" class="cluster">
<title>clusterdir_2dc3e3ac563c5097fbf94f8f985cc10c</title>
<g id="a_clust1"><a xlink:href="dir_2dc3e3ac563c5097fbf94f8f985cc10c.html" target="_top" xlink:title="polyfem">
<polygon fill="#edf0f7" stroke="#7f7f7f" stroke-dasharray="5,2" points="8,-8 8,-231 354,-231 354,-8 8,-8"/>
<text text-anchor="middle" x="181" y="-219" font-family="Helvetica,sans-Serif" font-size="10.00">polyfem</text>
</a>
</g>
</g>
<g id="clust2" class="cluster">
<title>clusterdir_10fb13321304f63ea5f7ee0a82e63ce8</title>
<g id="a_clust2"><a xlink:href="dir_10fb13321304f63ea5f7ee0a82e63ce8.html" target="_top">
<polygon fill="#edf0f7" stroke="#404040" stroke-width="2" points="16,-80 16,-204 176,-204 176,-80 16,-80"/>
</a>
</g>
</g>
<!-- dir_12817abd2662fe40efba8355c1386b9e -->
<g id="node1" class="node">
<title>dir_12817abd2662fe40efba8355c1386b9e</title>
<g id="a_node1"><a xlink:href="dir_12817abd2662fe40efba8355c1386b9e.html" target="_top" xlink:title="assembler">
<polygon fill="#a2b4d6" stroke="#404040" points="254,-124 186,-124 186,-88 254,-88 254,-124"/>
<text text-anchor="middle" x="220" y="-103.5" font-family="Helvetica,sans-Serif" font-size="10.00">assembler</text>
</a>
</g>
</g>
<!-- dir_15d4893607df4bf7106bb9ed16128612 -->
<g id="node2" class="node">
<title>dir_15d4893607df4bf7106bb9ed16128612</title>
<g id="a_node2"><a xlink:href="dir_15d4893607df4bf7106bb9ed16128612.html" target="_top" xlink:title="mesh">
<polygon fill="#a2b4d6" stroke="red" points="326,-124 272,-124 272,-88 326,-88 326,-124"/>
<text text-anchor="middle" x="299" y="-103.5" font-family="Helvetica,sans-Serif" font-size="10.00">mesh</text>
</a>
</g>
</g>
<!-- dir_45751013e7de66cb9317c15709b40c18 -->
<g id="node3" class="node">
<title>dir_45751013e7de66cb9317c15709b40c18</title>
<g id="a_node3"><a xlink:href="dir_45751013e7de66cb9317c15709b40c18.html" target="_top" xlink:title="utils">
<polygon fill="#a2b4d6" stroke="#404040" points="252,-52 198,-52 198,-16 252,-16 252,-52"/>
<text text-anchor="middle" x="225" y="-31.5" font-family="Helvetica,sans-Serif" font-size="10.00">utils</text>
</a>
</g>
</g>
<!-- dir_734cdad6c925c4f361e29f2a6d60e23c -->
<g id="node4" class="node">
<title>dir_734cdad6c925c4f361e29f2a6d60e23c</title>
<g id="a_node4"><a xlink:href="dir_734cdad6c925c4f361e29f2a6d60e23c.html" target="_top" xlink:title="io">
<polygon fill="#a2b4d6" stroke="#404040" points="70,-52 16,-52 16,-16 70,-16 70,-52"/>
<text text-anchor="middle" x="43" y="-31.5" font-family="Helvetica,sans-Serif" font-size="10.00">io</text>
</a>
</g>
</g>
<!-- dir_b17ff10821c231211eb9dc3a971728a7 -->
<g id="node5" class="node">
<title>dir_b17ff10821c231211eb9dc3a971728a7</title>
<g id="a_node5"><a xlink:href="dir_b17ff10821c231211eb9dc3a971728a7.html" target="_top" xlink:title="time_integrator">
<polygon fill="#a2b4d6" stroke="#404040" points="180,-52 88,-52 88,-16 180,-16 180,-52"/>
<text text-anchor="middle" x="134" y="-31.5" font-family="Helvetica,sans-Serif" font-size="10.00">time_integrator</text>
</a>
</g>
</g>
<!-- dir_10fb13321304f63ea5f7ee0a82e63ce8 -->
<g id="node6" class="node">
<title>dir_10fb13321304f63ea5f7ee0a82e63ce8</title>
<text text-anchor="middle" x="141" y="-175.5" font-family="Helvetica,sans-Serif" font-size="10.00">solver</text>
</g>
<!-- dir_10fb13321304f63ea5f7ee0a82e63ce8&#45;&gt;dir_12817abd2662fe40efba8355c1386b9e -->
<g id="edge2" class="edge">
<title>dir_10fb13321304f63ea5f7ee0a82e63ce8&#45;&gt;dir_12817abd2662fe40efba8355c1386b9e</title>
<path fill="none" stroke="black" d="M160.53,-159.7C170.38,-150.97 182.49,-140.24 193.2,-130.75"/>
<polygon fill="black" stroke="black" points="195.53,-133.36 200.7,-124.1 190.89,-128.12 195.53,-133.36"/>
<g id="a_edge2&#45;headlabel"><a xlink:href="dir_000015_000000.html" target="_top" xlink:title="5">
<text text-anchor="middle" x="194.73" y="-135.36" font-family="Helvetica,sans-Serif" font-size="10.00">5</text>
</a>
</g>
</g>
<!-- dir_10fb13321304f63ea5f7ee0a82e63ce8&#45;&gt;dir_15d4893607df4bf7106bb9ed16128612 -->
<g id="edge3" class="edge">
<title>dir_10fb13321304f63ea5f7ee0a82e63ce8&#45;&gt;dir_15d4893607df4bf7106bb9ed16128612</title>
<path fill="none" stroke="black" d="M168.24,-165.45C191.2,-155.66 225.1,-141.05 262.78,-124.04"/>
<polygon fill="black" stroke="black" points="264.25,-127.22 271.92,-119.9 261.36,-120.84 264.25,-127.22"/>
<g id="a_edge3&#45;headlabel"><a xlink:href="dir_000015_000008.html" target="_top" xlink:title="1">
<text text-anchor="middle" x="262.15" y="-128.79" font-family="Helvetica,sans-Serif" font-size="10.00">1</text>
</a>
</g>
</g>
<!-- dir_10fb13321304f63ea5f7ee0a82e63ce8&#45;&gt;dir_45751013e7de66cb9317c15709b40c18 -->
<g id="edge4" class="edge">
<title>dir_10fb13321304f63ea5f7ee0a82e63ce8&#45;&gt;dir_45751013e7de66cb9317c15709b40c18</title>
<path fill="none" stroke="black" d="M168.26,-173.61C216.73,-166.96 314.77,-150.5 335,-124 346.87,-108.46 345.9,-96.24 335,-80 318.83,-55.91 287.23,-44.71 262.03,-39.5"/>
<polygon fill="black" stroke="black" points="262.51,-36.03 252.04,-37.67 261.25,-42.92 262.51,-36.03"/>
<g id="a_edge4&#45;headlabel"><a xlink:href="dir_000015_000019.html" target="_top" xlink:title="31">
<text text-anchor="middle" x="266.55" y="-31.38" font-family="Helvetica,sans-Serif" font-size="10.00">31</text>
</a>
</g>
</g>
<!-- dir_d0a37fccf9a2cf369fc4713384d4cf61 -->
<g id="node7" class="node">
<title>dir_d0a37fccf9a2cf369fc4713384d4cf61</title>
<g id="a_node7"><a xlink:href="dir_d0a37fccf9a2cf369fc4713384d4cf61.html" target="_top" xlink:title="forms">
<polygon fill="#a2b4d6" stroke="#404040" points="78,-124 24,-124 24,-88 78,-88 78,-124"/>
<text text-anchor="middle" x="51" y="-103.5" font-family="Helvetica,sans-Serif" font-size="10.00">forms</text>
</a>
</g>
</g>
<!-- dir_10fb13321304f63ea5f7ee0a82e63ce8&#45;&gt;dir_d0a37fccf9a2cf369fc4713384d4cf61 -->
<g id="edge5" class="edge">
<title>dir_10fb13321304f63ea5f7ee0a82e63ce8&#45;&gt;dir_d0a37fccf9a2cf369fc4713384d4cf61</title>
<path fill="none" stroke="black" d="M118.75,-159.7C107.42,-150.88 93.47,-140.03 81.18,-130.47"/>
<polygon fill="black" stroke="black" points="83.03,-127.48 72.99,-124.1 78.74,-133.01 83.03,-127.48"/>
<g id="a_edge5&#45;headlabel"><a xlink:href="dir_000015_000004.html" target="_top" xlink:title="2">
<text text-anchor="middle" x="87.61" y="-124.95" font-family="Helvetica,sans-Serif" font-size="10.00">2</text>
</a>
</g>
</g>
<!-- dir_02b5be155cc4b176060eb5eeb551f9cc -->
<g id="node8" class="node">
<title>dir_02b5be155cc4b176060eb5eeb551f9cc</title>
<g id="a_node8"><a xlink:href="dir_02b5be155cc4b176060eb5eeb551f9cc.html" target="_top" xlink:title="line_search">
<polygon fill="#a2b4d6" stroke="#404040" points="168,-124 96,-124 96,-88 168,-88 168,-124"/>
<text text-anchor="middle" x="132" y="-103.5" font-family="Helvetica,sans-Serif" font-size="10.00">line_search</text>
</a>
</g>
</g>
<!-- dir_10fb13321304f63ea5f7ee0a82e63ce8&#45;&gt;dir_02b5be155cc4b176060eb5eeb551f9cc -->
<g id="edge1" class="edge">
<title>dir_10fb13321304f63ea5f7ee0a82e63ce8&#45;&gt;dir_02b5be155cc4b176060eb5eeb551f9cc</title>
<path fill="none" stroke="black" d="M138.78,-159.7C137.78,-151.98 136.59,-142.71 135.49,-134.11"/>
<polygon fill="black" stroke="black" points="138.95,-133.58 134.2,-124.1 132,-134.47 138.95,-133.58"/>
<g id="a_edge1&#45;headlabel"><a xlink:href="dir_000015_000007.html" target="_top" xlink:title="1">
<text text-anchor="middle" x="142.22" y="-134.28" font-family="Helvetica,sans-Serif" font-size="10.00">1</text>
</a>
</g>
</g>
<!-- dir_d0a37fccf9a2cf369fc4713384d4cf61&#45;&gt;dir_45751013e7de66cb9317c15709b40c18 -->
<g id="edge6" class="edge">
<title>dir_d0a37fccf9a2cf369fc4713384d4cf61&#45;&gt;dir_45751013e7de66cb9317c15709b40c18</title>
<path fill="none" stroke="black" d="M73.15,-87.9C77.58,-84.98 82.31,-82.19 87,-80 126.92,-61.33 142.89,-67.4 188.22,-51.9"/>
<polygon fill="black" stroke="black" points="189.46,-55.17 197.69,-48.49 187.1,-48.58 189.46,-55.17"/>
<g id="a_edge6&#45;headlabel"><a xlink:href="dir_000004_000019.html" target="_top" xlink:title="14">
<text text-anchor="middle" x="187.04" y="-56.56" font-family="Helvetica,sans-Serif" font-size="10.00">14</text>
</a>
</g>
</g>
<!-- dir_d0a37fccf9a2cf369fc4713384d4cf61&#45;&gt;dir_734cdad6c925c4f361e29f2a6d60e23c -->
<g id="edge7" class="edge">
<title>dir_d0a37fccf9a2cf369fc4713384d4cf61&#45;&gt;dir_734cdad6c925c4f361e29f2a6d60e23c</title>
<path fill="none" stroke="black" d="M49.02,-87.7C48.14,-79.98 47.08,-70.71 46.1,-62.11"/>
<polygon fill="black" stroke="black" points="49.57,-61.64 44.95,-52.1 42.61,-62.44 49.57,-61.64"/>
<g id="a_edge7&#45;headlabel"><a xlink:href="dir_000004_000006.html" target="_top" xlink:title="1">
<text text-anchor="middle" x="52.8" y="-62.39" font-family="Helvetica,sans-Serif" font-size="10.00">1</text>
</a>
</g>
</g>
<!-- dir_d0a37fccf9a2cf369fc4713384d4cf61&#45;&gt;dir_b17ff10821c231211eb9dc3a971728a7 -->
<g id="edge8" class="edge">
<title>dir_d0a37fccf9a2cf369fc4713384d4cf61&#45;&gt;dir_b17ff10821c231211eb9dc3a971728a7</title>
<path fill="none" stroke="black" d="M71.52,-87.7C81.87,-78.97 94.59,-68.24 105.84,-58.75"/>
<polygon fill="black" stroke="black" points="108.33,-61.23 113.72,-52.1 103.82,-55.88 108.33,-61.23"/>
<g id="a_edge8&#45;headlabel"><a xlink:href="dir_000004_000018.html" target="_top" xlink:title="2">
<text text-anchor="middle" x="107.41" y="-63.21" font-family="Helvetica,sans-Serif" font-size="10.00">2</text>
</a>
</g>
</g>
<!-- dir_02b5be155cc4b176060eb5eeb551f9cc&#45;&gt;dir_45751013e7de66cb9317c15709b40c18 -->
<g id="edge9" class="edge">
<title>dir_02b5be155cc4b176060eb5eeb551f9cc&#45;&gt;dir_45751013e7de66cb9317c15709b40c18</title>
<path fill="none" stroke="black" d="M154.99,-87.7C166.81,-78.8 181.39,-67.82 194.18,-58.2"/>
<polygon fill="black" stroke="black" points="196.39,-60.91 202.28,-52.1 192.18,-55.32 196.39,-60.91"/>
<g id="a_edge9&#45;headlabel"><a xlink:href="dir_000007_000019.html" target="_top" xlink:title="2">
<text text-anchor="middle" x="195.23" y="-62.84" font-family="Helvetica,sans-Serif" font-size="10.00">2</text>
</a>
</g>
</g>
</g>
</svg>
