<?xml version="1.0" encoding="UTF-8" standalone="no"?>
<!DOCTYPE svg PUBLIC "-//W3C//DTD SVG 1.1//EN"
 "http://www.w3.org/Graphics/SVG/1.1/DTD/svg11.dtd">
<!-- Generated by graphviz version 2.43.0 (0)
 -->
<!-- Title: Graphical Class Hierarchy Pages: 1 -->
<svg width="348pt" height="226pt"
 viewBox="0.00 0.00 348.00 226.00" xmlns="http://www.w3.org/2000/svg" xmlns:xlink="http://www.w3.org/1999/xlink">
<g id="graph0" class="graph" transform="scale(1 1) rotate(0) translate(4 222)">
<title>Graphical Class Hierarchy</title>
<!-- Node0 -->
<g id="node1" class="node">
<title>Node0</title>
<g id="a_node1"><a xlink:href="classpolyfem_1_1solver_1_1line__search_1_1_line_search.html" target="_top" xlink:title=" ">
<polygon fill="white" stroke="#666666" points="122,-129 0,-129 0,-88 122,-88 122,-129"/>
<text text-anchor="start" x="8" y="-117" font-family="Helvetica,sans-Serif" font-size="10.00">polyfem::solver::line</text>
<text text-anchor="start" x="8" y="-106" font-family="Helvetica,sans-Serif" font-size="10.00">_search::LineSearch&lt;</text>
<text text-anchor="middle" x="61" y="-95" font-family="Helvetica,sans-Serif" font-size="10.00"> ProblemType &gt;</text>
</a>
</g>
</g>
<!-- Node1 -->
<g id="node2" class="node">
<title>Node1</title>
<g id="a_node2"><a xlink:href="classpolyfem_1_1solver_1_1line__search_1_1_armijo_line_search.html" target="_top" xlink:title=" ">
<polygon fill="white" stroke="#666666" points="322,-218 176,-218 176,-177 322,-177 322,-218"/>
<text text-anchor="start" x="184" y="-206" font-family="Helvetica,sans-Serif" font-size="10.00">polyfem::solver::line</text>
<text text-anchor="start" x="184" y="-195" font-family="Helvetica,sans-Serif" font-size="10.00">_search::ArmijoLineSearch</text>
<text text-anchor="middle" x="249" y="-184" font-family="Helvetica,sans-Serif" font-size="10.00">&lt; ProblemType &gt;</text>
</a>
</g>
</g>
<!-- Node0&#45;&gt;Node1 -->
<g id="edge1" class="edge">
<title>Node0&#45;&gt;Node1</title>
<path fill="none" stroke="#63b8ff" d="M99.43,-134.91C116.7,-146.29 137.81,-159.12 158,-168.5 164.4,-171.48 171.19,-174.27 178.06,-176.86"/>
<polygon fill="#63b8ff" stroke="#63b8ff" points="101.03,-131.77 90.77,-129.11 97.13,-137.58 101.03,-131.77"/>
</g>
<!-- Node2 -->
<g id="node3" class="node">
<title>Node2</title>
<g id="a_node3"><a xlink:href="classpolyfem_1_1solver_1_1line__search_1_1_backtracking_line_search.html" target="_top" xlink:title=" ">
<polygon fill="white" stroke="#666666" points="337.5,-159 160.5,-159 160.5,-118 337.5,-118 337.5,-159"/>
<text text-anchor="start" x="168.5" y="-147" font-family="Helvetica,sans-Serif" font-size="10.00">polyfem::solver::line</text>
<text text-anchor="start" x="168.5" y="-136" font-family="Helvetica,sans-Serif" font-size="10.00">_search::BacktrackingLineSearch</text>
<text text-anchor="middle" x="249" y="-125" font-family="Helvetica,sans-Serif" font-size="10.00">&lt; ProblemType &gt;</text>
</a>
</g>
</g>
<!-- Node0&#45;&gt;Node2 -->
<g id="edge2" class="edge">
<title>Node0&#45;&gt;Node2</title>
<path fill="none" stroke="#63b8ff" d="M132.02,-119.79C141.27,-121.29 150.85,-122.83 160.34,-124.36"/>
<polygon fill="#63b8ff" stroke="#63b8ff" points="132.56,-116.34 122.13,-118.2 131.45,-123.25 132.56,-116.34"/>
</g>
<!-- Node3 -->
<g id="node4" class="node">
<title>Node3</title>
<g id="a_node4"><a xlink:href="classpolyfem_1_1solver_1_1line__search_1_1_cpp_opt_armijo_line_search.html" target="_top" xlink:title=" ">
<polygon fill="white" stroke="#666666" points="340,-100 158,-100 158,-59 340,-59 340,-100"/>
<text text-anchor="start" x="166" y="-88" font-family="Helvetica,sans-Serif" font-size="10.00">polyfem::solver::line</text>
<text text-anchor="start" x="166" y="-77" font-family="Helvetica,sans-Serif" font-size="10.00">_search::CppOptArmijoLineSearch</text>
<text text-anchor="middle" x="249" y="-66" font-family="Helvetica,sans-Serif" font-size="10.00">&lt; ProblemType &gt;</text>
</a>
</g>
</g>
<!-- Node0&#45;&gt;Node3 -->
<g id="edge3" class="edge">
<title>Node0&#45;&gt;Node3</title>
<path fill="none" stroke="#63b8ff" d="M132.24,-97.55C140.66,-96.24 149.34,-94.88 157.98,-93.54"/>
<polygon fill="#63b8ff" stroke="#63b8ff" points="131.47,-94.13 122.13,-99.12 132.55,-101.04 131.47,-94.13"/>
</g>
<!-- Node4 -->
<g id="node5" class="node">
<title>Node4</title>
<g id="a_node5"><a xlink:href="classpolyfem_1_1solver_1_1line__search_1_1_more_thuente_line_search.html" target="_top" xlink:title=" ">
<polygon fill="white" stroke="#666666" points="338,-41 160,-41 160,0 338,0 338,-41"/>
<text text-anchor="start" x="168" y="-29" font-family="Helvetica,sans-Serif" font-size="10.00">polyfem::solver::line</text>
<text text-anchor="start" x="168" y="-18" font-family="Helvetica,sans-Serif" font-size="10.00">_search::MoreThuenteLineSearch</text>
<text text-anchor="middle" x="249" y="-7" font-family="Helvetica,sans-Serif" font-size="10.00">&lt; ProblemType &gt;</text>
</a>
</g>
</g>
<!-- Node0&#45;&gt;Node4 -->
<g id="edge4" class="edge">
<title>Node0&#45;&gt;Node4</title>
<path fill="none" stroke="#63b8ff" d="M100.76,-82.39C117.83,-71.6 138.43,-59.54 158,-50.5 165.18,-47.19 172.83,-44.06 180.52,-41.17"/>
<polygon fill="#63b8ff" stroke="#63b8ff" points="98.7,-79.55 92.17,-87.89 102.48,-85.44 98.7,-79.55"/>
</g>
</g>
</svg>
