<?xml version="1.0" encoding="UTF-8" standalone="no"?>
<!DOCTYPE svg PUBLIC "-//W3C//DTD SVG 1.1//EN"
 "http://www.w3.org/Graphics/SVG/1.1/DTD/svg11.dtd">
<!-- Generated by graphviz version 2.43.0 (0)
 -->
<!-- Title: Graphical Class Hierarchy Pages: 1 -->
<svg width="330pt" height="146pt"
 viewBox="0.00 0.00 330.00 146.00" xmlns="http://www.w3.org/2000/svg" xmlns:xlink="http://www.w3.org/1999/xlink">
<g id="graph0" class="graph" transform="scale(1 1) rotate(0) translate(4 142)">
<title>Graphical Class Hierarchy</title>
<!-- Node0 -->
<g id="Node000000" class="node">
<title>Node0</title>
<g id="a_Node000000"><a xlink:href="classpolyfem_1_1assembler_1_1_mixed_assembler.html" target="_top" xlink:title=" ">
<polygon fill="white" stroke="#666666" points="114,-84 0,-84 0,-54 114,-54 114,-84"/>
<text text-anchor="start" x="8" y="-72" font-family="Helvetica,sans-Serif" font-size="10.00">polyfem::assembler</text>
<text text-anchor="middle" x="57" y="-61" font-family="Helvetica,sans-Serif" font-size="10.00">::MixedAssembler</text>
</a>
</g>
</g>
<!-- Node1 -->
<g id="Node000001" class="node">
<title>Node1</title>
<g id="a_Node000001"><a xlink:href="classpolyfem_1_1assembler_1_1_bilaplacian_mixed.html" target="_top" xlink:title=" ">
<polygon fill="white" stroke="#666666" points="293,-138 179,-138 179,-108 293,-108 293,-138"/>
<text text-anchor="start" x="187" y="-126" font-family="Helvetica,sans-Serif" font-size="10.00">polyfem::assembler</text>
<text text-anchor="middle" x="236" y="-115" font-family="Helvetica,sans-Serif" font-size="10.00">::BilaplacianMixed</text>
</a>
</g>
</g>
<!-- Node0&#45;&gt;Node1 -->
<g id="edge53_Node000000_Node000001" class="edge">
<title>Node0&#45;&gt;Node1</title>
<g id="a_edge53_Node000000_Node000001"><a xlink:title=" ">
<path fill="none" stroke="#63b8ff" d="M112.49,-87.17C124.8,-91.16 137.82,-95.3 150,-99 159.83,-101.99 170.34,-105.06 180.49,-107.96"/>
<polygon fill="#63b8ff" stroke="#63b8ff" points="113.4,-83.78 102.81,-84.01 111.23,-90.44 113.4,-83.78"/>
</a>
</g>
</g>
<!-- Node2 -->
<g id="Node000002" class="node">
<title>Node2</title>
<g id="a_Node000002"><a xlink:href="classpolyfem_1_1assembler_1_1_incompressible_linear_elasticity_mixed.html" target="_top" xlink:title=" ">
<polygon fill="white" stroke="#666666" points="322,-89.5 150,-89.5 150,-48.5 322,-48.5 322,-89.5"/>
<text text-anchor="start" x="158" y="-77.5" font-family="Helvetica,sans-Serif" font-size="10.00">polyfem::assembler</text>
<text text-anchor="start" x="158" y="-66.5" font-family="Helvetica,sans-Serif" font-size="10.00">::IncompressibleLinearElasticity</text>
<text text-anchor="middle" x="236" y="-55.5" font-family="Helvetica,sans-Serif" font-size="10.00">Mixed</text>
</a>
</g>
</g>
<!-- Node0&#45;&gt;Node2 -->
<g id="edge54_Node000000_Node000002" class="edge">
<title>Node0&#45;&gt;Node2</title>
<g id="a_edge54_Node000000_Node000002"><a xlink:title=" ">
<path fill="none" stroke="#63b8ff" d="M124.12,-69C132.54,-69 141.26,-69 149.93,-69"/>
<polygon fill="#63b8ff" stroke="#63b8ff" points="124,-65.5 114,-69 124,-72.5 124,-65.5"/>
</a>
</g>
</g>
<!-- Node3 -->
<g id="Node000003" class="node">
<title>Node3</title>
<g id="a_Node000003"><a xlink:href="classpolyfem_1_1assembler_1_1_stokes_mixed.html" target="_top" xlink:title=" ">
<polygon fill="white" stroke="#666666" points="293,-30 179,-30 179,0 293,0 293,-30"/>
<text text-anchor="start" x="187" y="-18" font-family="Helvetica,sans-Serif" font-size="10.00">polyfem::assembler</text>
<text text-anchor="middle" x="236" y="-7" font-family="Helvetica,sans-Serif" font-size="10.00">::StokesMixed</text>
</a>
</g>
</g>
<!-- Node0&#45;&gt;Node3 -->
<g id="edge55_Node000000_Node000003" class="edge">
<title>Node0&#45;&gt;Node3</title>
<g id="a_edge55_Node000000_Node000003"><a xlink:title=" ">
<path fill="none" stroke="#63b8ff" d="M114.83,-50.9C126.45,-47.25 138.61,-43.47 150,-40 160.74,-36.73 172.27,-33.29 183.26,-30.04"/>
<polygon fill="#63b8ff" stroke="#63b8ff" points="113.71,-47.58 105.22,-53.92 115.81,-54.26 113.71,-47.58"/>
</a>
</g>
</g>
</g>
</svg>
