<?xml version="1.0" encoding="UTF-8" standalone="no"?>
<!DOCTYPE svg PUBLIC "-//W3C//DTD SVG 1.1//EN"
 "http://www.w3.org/Graphics/SVG/1.1/DTD/svg11.dtd">
<!-- Generated by graphviz version 2.43.0 (0)
 -->
<!-- Title: Graphical Class Hierarchy Pages: 1 -->
<svg width="298pt" height="86pt"
 viewBox="0.00 0.00 298.00 86.00" xmlns="http://www.w3.org/2000/svg" xmlns:xlink="http://www.w3.org/1999/xlink">
<g id="graph0" class="graph" transform="scale(1 1) rotate(0) translate(4 82)">
<title>Graphical Class Hierarchy</title>
<!-- Node0 -->
<g id="Node000000" class="node">
<title>Node0</title>
<g id="a_Node000000"><a xlink:href="classpolyfem_1_1assembler_1_1_thermodynamic_process.html" target="_top" xlink:title=" ">
<polygon fill="white" stroke="#666666" points="140,-54 0,-54 0,-24 140,-24 140,-54"/>
<text text-anchor="start" x="8" y="-42" font-family="Helvetica,sans-Serif" font-size="10.00">polyfem::assembler</text>
<text text-anchor="middle" x="70" y="-31" font-family="Helvetica,sans-Serif" font-size="10.00">::ThermodynamicProcess</text>
</a>
</g>
</g>
<!-- Node1 -->
<g id="Node000001" class="node">
<title>Node1</title>
<g id="a_Node000001"><a xlink:href="classpolyfem_1_1assembler_1_1_adiabatic_process.html" target="_top" xlink:title=" ">
<polygon fill="white" stroke="#666666" points="290,-78 176,-78 176,-48 290,-48 290,-78"/>
<text text-anchor="start" x="184" y="-66" font-family="Helvetica,sans-Serif" font-size="10.00">polyfem::assembler</text>
<text text-anchor="middle" x="233" y="-55" font-family="Helvetica,sans-Serif" font-size="10.00">::AdiabaticProcess</text>
</a>
</g>
</g>
<!-- Node0&#45;&gt;Node1 -->
<g id="edge110_Node000000_Node000001" class="edge">
<title>Node0&#45;&gt;Node1</title>
<g id="a_edge110_Node000000_Node000001"><a xlink:title=" ">
<path fill="none" stroke="#63b8ff" d="M150.34,-50.83C158.99,-52.12 167.66,-53.41 175.94,-54.64"/>
<polygon fill="#63b8ff" stroke="#63b8ff" points="150.62,-47.33 140.21,-49.32 149.59,-54.25 150.62,-47.33"/>
</a>
</g>
</g>
<!-- Node2 -->
<g id="Node000002" class="node">
<title>Node2</title>
<g id="a_Node000002"><a xlink:href="classpolyfem_1_1assembler_1_1_isothermal_process.html" target="_top" xlink:title=" ">
<polygon fill="white" stroke="#666666" points="290,-30 176,-30 176,0 290,0 290,-30"/>
<text text-anchor="start" x="184" y="-18" font-family="Helvetica,sans-Serif" font-size="10.00">polyfem::assembler</text>
<text text-anchor="middle" x="233" y="-7" font-family="Helvetica,sans-Serif" font-size="10.00">::IsothermalProcess</text>
</a>
</g>
</g>
<!-- Node0&#45;&gt;Node2 -->
<g id="edge111_Node000000_Node000002" class="edge">
<title>Node0&#45;&gt;Node2</title>
<g id="a_edge111_Node000000_Node000002"><a xlink:title=" ">
<path fill="none" stroke="#63b8ff" d="M150.34,-27.17C158.99,-25.88 167.66,-24.59 175.94,-23.36"/>
<polygon fill="#63b8ff" stroke="#63b8ff" points="149.59,-23.75 140.21,-28.68 150.62,-30.67 149.59,-23.75"/>
</a>
</g>
</g>
</g>
</svg>
