<?xml version="1.0" encoding="UTF-8" standalone="no"?>
<!DOCTYPE svg PUBLIC "-//W3C//DTD SVG 1.1//EN"
 "http://www.w3.org/Graphics/SVG/1.1/DTD/svg11.dtd">
<!-- Generated by graphviz version 2.43.0 (0)
 -->
<!-- Title: Graphical Class Hierarchy Pages: 1 -->
<svg width="454pt" height="88pt"
 viewBox="0.00 0.00 454.00 88.00" xmlns="http://www.w3.org/2000/svg" xmlns:xlink="http://www.w3.org/1999/xlink">
<g id="graph0" class="graph" transform="scale(1 1) rotate(0) translate(4 84)">
<title>Graphical Class Hierarchy</title>
<!-- Node0 -->
<g id="node1" class="node">
<title>Node0</title>
<g id="a_node1"><a xlink:title=" ">
<polygon fill="none" stroke="#bfbfbf" points="0,-30 0,-49 50,-49 50,-30 0,-30"/>
<text text-anchor="middle" x="25" y="-37" font-family="Helvetica,sans-Serif" font-size="10.00">ISolver</text>
</a>
</g>
</g>
<!-- Node1 -->
<g id="node2" class="node">
<title>Node1</title>
<g id="a_node2"><a xlink:href="classcppoptlib_1_1_nonlinear_solver.html" target="_top" xlink:title=" ">
<polygon fill="none" stroke="black" points="86,-24.5 86,-54.5 232,-54.5 232,-24.5 86,-24.5"/>
<text text-anchor="start" x="94" y="-42.5" font-family="Helvetica,sans-Serif" font-size="10.00">cppoptlib::NonlinearSolver</text>
<text text-anchor="middle" x="159" y="-31.5" font-family="Helvetica,sans-Serif" font-size="10.00">&lt; ProblemType &gt;</text>
</a>
</g>
</g>
<!-- Node0&#45;&gt;Node1 -->
<g id="edge1" class="edge">
<title>Node0&#45;&gt;Node1</title>
<path fill="none" stroke="midnightblue" d="M60.45,-39.5C68.37,-39.5 77.07,-39.5 85.92,-39.5"/>
<polygon fill="midnightblue" stroke="midnightblue" points="60.21,-36 50.21,-39.5 60.21,-43 60.21,-36"/>
</g>
<!-- Node2 -->
<g id="node3" class="node">
<title>Node2</title>
<g id="a_node3"><a xlink:href="classcppoptlib_1_1_l_b_f_g_s_solver.html" target="_top" xlink:title=" ">
<polygon fill="none" stroke="black" points="292,-49.5 292,-79.5 422,-79.5 422,-49.5 292,-49.5"/>
<text text-anchor="start" x="300" y="-67.5" font-family="Helvetica,sans-Serif" font-size="10.00">cppoptlib::LBFGSSolver</text>
<text text-anchor="middle" x="357" y="-56.5" font-family="Helvetica,sans-Serif" font-size="10.00">&lt; ProblemType &gt;</text>
</a>
</g>
</g>
<!-- Node1&#45;&gt;Node2 -->
<g id="edge2" class="edge">
<title>Node1&#45;&gt;Node2</title>
<path fill="none" stroke="midnightblue" d="M242.34,-50C258.85,-52.11 275.98,-54.29 291.77,-56.31"/>
<polygon fill="midnightblue" stroke="midnightblue" points="242.51,-46.5 232.15,-48.7 241.62,-53.44 242.51,-46.5"/>
</g>
<!-- Node3 -->
<g id="node4" class="node">
<title>Node3</title>
<g id="a_node4"><a xlink:href="classcppoptlib_1_1_sparse_newton_descent_solver.html" target="_top" xlink:title=" ">
<polygon fill="none" stroke="black" points="268,-0.5 268,-30.5 446,-30.5 446,-0.5 268,-0.5"/>
<text text-anchor="start" x="276" y="-18.5" font-family="Helvetica,sans-Serif" font-size="10.00">cppoptlib::SparseNewtonDescent</text>
<text text-anchor="middle" x="357" y="-7.5" font-family="Helvetica,sans-Serif" font-size="10.00">Solver&lt; ProblemType &gt;</text>
</a>
</g>
</g>
<!-- Node1&#45;&gt;Node3 -->
<g id="edge3" class="edge">
<title>Node1&#45;&gt;Node3</title>
<path fill="none" stroke="midnightblue" d="M242.29,-29.42C250.69,-28.4 259.24,-27.35 267.7,-26.31"/>
<polygon fill="midnightblue" stroke="midnightblue" points="241.65,-25.98 232.15,-30.67 242.5,-32.92 241.65,-25.98"/>
</g>
</g>
</svg>
