<?xml version="1.0" encoding="UTF-8" standalone="no"?>
<!DOCTYPE svg PUBLIC "-//W3C//DTD SVG 1.1//EN"
 "http://www.w3.org/Graphics/SVG/1.1/DTD/svg11.dtd">
<!-- Generated by graphviz version 2.43.0 (0)
 -->
<!-- Title: optimization_simulation Pages: 1 -->
<!--zoomable 937 -->

<svg id="main" version="1.1" xmlns="http://www.w3.org/2000/svg" xmlns:xlink="http://www.w3.org/1999/xlink" xml:space="preserve" onload="init(evt)">
<style type="text/css"><![CDATA[
.node, .edge {opacity: 0.7;}
.node.selected, .edge.selected {opacity: 1;}
.edge:hover path { stroke: red; }
.edge:hover polygon { stroke: red; fill: red; }
]]></style>

<defs>
  <circle id="rim" cx="0" cy="0" r="7"/>
  <circle id="rim2" cx="0" cy="0" r="3.5"/>
  <g id="zoomPlus">
    <use xlink:href="#rim" fill="#404040"><set attributeName="fill" to="#808080" begin="zoomplus.mouseover" end="zoomplus.mouseout"/></use>
    <path d="M-4,0h8M0,-4v8" fill="none" stroke="white" stroke-width="1.5" pointer-events="none"/>
  </g>
  <g id="zoomMin">
    <use xlink:href="#rim" fill="#404040"><set attributeName="fill" to="#808080" begin="zoomminus.mouseover" end="zoomminus.mouseout"/></use>
    <path d="M-4,0h8" fill="none" stroke="white" stroke-width="1.5" pointer-events="none"/>
  </g>
  <g id="arrowUp" transform="translate(30 24)">
    <use xlink:href="#rim"/>
    <path pointer-events="none" fill="none" stroke="white" stroke-width="1.5" d="M0,-3.0v7 M-2.5,-0.5L0,-3.0L2.5,-0.5"/>
  </g>
  <g id="arrowRight" transform="rotate(90) translate(36 -43)">
    <use xlink:href="#rim"/>
    <path pointer-events="none" fill="none" stroke="white" stroke-width="1.5" d="M0,-3.0v7 M-2.5,-0.5L0,-3.0L2.5,-0.5"/>
  </g>
  <g id="arrowDown" transform="rotate(180) translate(-30 -48)">
    <use xlink:href="#rim"/>
    <path pointer-events="none" fill="none" stroke="white" stroke-width="1.5" d="M0,-3.0v7 M-2.5,-0.5L0,-3.0L2.5,-0.5"/>
  </g>
  <g id="arrowLeft" transform="rotate(270) translate(-36 17)">
    <use xlink:href="#rim"/>
    <path pointer-events="none" fill="none" stroke="white" stroke-width="1.5" d="M0,-3.0v7 M-2.5,-0.5L0,-3.0L2.5,-0.5"/>
  </g>
  <g id="resetDef">
    <use xlink:href="#rim2" fill="#404040"><set attributeName="fill" to="#808080" begin="reset.mouseover" end="reset.mouseout"/></use>
  </g>
</defs>
<script type="application/ecmascript">
var viewWidth = 1274;
var viewHeight = 937;
var sectionId = 'dynsection-8';
</script>
<script type="application/ecmascript" xlink:href="svg.min.js"/>
<svg id="graph" class="graph">
<g id="viewport">
<title>optimization_simulation</title>
<!-- Node1 -->
<g id="Node000001" class="node">
<title>Node1</title>
<g id="a_Node000001"><a xlink:title=" ">
<polygon fill="#999999" stroke="#666666" points="135,-254.5 0,-254.5 0,-235.5 135,-235.5 135,-254.5"/>
<text text-anchor="middle" x="67.5" y="-242.5" font-family="Helvetica,sans-Serif" font-size="10.00">optimization_simulation</text>
</a>
</g>
</g>
<!-- Node2 -->
<g id="Node000002" class="node">
<title>Node2</title>
<g id="a_Node000002"><a xlink:href="classpolyfem_1_1_opt_state.html#af6e0a0dbf67bc5b8d22c7fec7a9bd9b6" target="_top" xlink:title=" ">
<polygon fill="white" stroke="#666666" points="293.5,-494 181.5,-494 181.5,-464 293.5,-464 293.5,-494"/>
<text text-anchor="start" x="189.5" y="-482" font-family="Helvetica,sans-Serif" font-size="10.00">polyfem::OptState::</text>
<text text-anchor="middle" x="237.5" y="-471" font-family="Helvetica,sans-Serif" font-size="10.00">create_problem</text>
</a>
</g>
</g>
<!-- Node1&#45;&gt;Node2 -->
<g id="edge1_Node000001_Node000002" class="edge">
<title>Node1&#45;&gt;Node2</title>
<g id="a_edge1_Node000001_Node000002"><a xlink:title=" ">
<path fill="none" stroke="#63b8ff" d="M74.33,-254.85C89.36,-280.02 131.06,-348.54 171,-402 185.09,-420.86 202.4,-441.1 215.69,-456.09"/>
<polygon fill="#63b8ff" stroke="#63b8ff" points="213.34,-458.72 222.61,-463.84 218.56,-454.05 213.34,-458.72"/>
</a>
</g>
</g>
<!-- Node8 -->
<g id="Node000008" class="node">
<title>Node8</title>
<g id="a_Node000008"><a xlink:href="namespacepolyfem.html#a03f3d75072d2fd19f70cd886a51d10dd" target="_top" xlink:title="Retrieves the current logger.">
<polygon fill="white" stroke="#666666" points="1077,-358.5 983,-358.5 983,-339.5 1077,-339.5 1077,-358.5"/>
<text text-anchor="middle" x="1030" y="-346.5" font-family="Helvetica,sans-Serif" font-size="10.00">polyfem::logger</text>
</a>
</g>
</g>
<!-- Node1&#45;&gt;Node8 -->
<g id="edge52_Node000001_Node000008" class="edge">
<title>Node1&#45;&gt;Node8</title>
<g id="a_edge52_Node000001_Node000008"><a xlink:title=" ">
<path fill="none" stroke="#63b8ff" d="M86.84,-235.48C163.12,-197.03 463.11,-57.04 715,-97 812.86,-112.53 850.48,-103.04 927,-166 981.45,-210.8 1011.93,-292.69 1023.51,-329.81"/>
<polygon fill="#63b8ff" stroke="#63b8ff" points="1020.17,-330.84 1026.4,-339.41 1026.87,-328.83 1020.17,-330.84"/>
</a>
</g>
</g>
<!-- Node10 -->
<g id="Node000010" class="node">
<title>Node10</title>
<g id="a_Node000010"><a xlink:href="classpolyfem_1_1_opt_state.html#ad2f643a88d481c1db7b39ee1397af44c" target="_top" xlink:title="create the opt states">
<polygon fill="white" stroke="#666666" points="483.5,-484 371.5,-484 371.5,-454 483.5,-454 483.5,-484"/>
<text text-anchor="start" x="379.5" y="-472" font-family="Helvetica,sans-Serif" font-size="10.00">polyfem::OptState::</text>
<text text-anchor="middle" x="427.5" y="-461" font-family="Helvetica,sans-Serif" font-size="10.00">create_states</text>
</a>
</g>
</g>
<!-- Node1&#45;&gt;Node10 -->
<g id="edge13_Node000001_Node000010" class="edge">
<title>Node1&#45;&gt;Node10</title>
<g id="a_edge13_Node000001_Node000010"><a xlink:title=" ">
<path fill="none" stroke="#63b8ff" d="M83.88,-254.62C137.77,-288.34 318.78,-401.6 393.66,-448.45"/>
<polygon fill="#63b8ff" stroke="#63b8ff" points="391.91,-451.49 402.24,-453.82 395.62,-445.55 391.91,-451.49"/>
</a>
</g>
</g>
<!-- Node19 -->
<g id="Node000019" class="node">
<title>Node19</title>
<g id="a_Node000019"><a xlink:href="classpolyfem_1_1_opt_state.html#a8ce170f4f3bc85947966358984a8ea8b" target="_top" xlink:title=" ">
<polygon fill="white" stroke="#666666" points="304,-133.5 171,-133.5 171,-114.5 304,-114.5 304,-133.5"/>
<text text-anchor="middle" x="237.5" y="-121.5" font-family="Helvetica,sans-Serif" font-size="10.00">polyfem::OptState::eval</text>
</a>
</g>
</g>
<!-- Node1&#45;&gt;Node19 -->
<g id="edge25_Node000001_Node000019" class="edge">
<title>Node1&#45;&gt;Node19</title>
<g id="a_edge25_Node000001_Node000019"><a xlink:title=" ">
<path fill="none" stroke="#63b8ff" d="M76.27,-235.39C92.17,-216.27 130.38,-173.16 171,-148 177.73,-143.83 185.3,-140.22 192.83,-137.17"/>
<polygon fill="#63b8ff" stroke="#63b8ff" points="194.18,-140.4 202.3,-133.59 191.71,-133.85 194.18,-140.4"/>
</a>
</g>
</g>
<!-- Node20 -->
<g id="Node000020" class="node">
<title>Node20</title>
<g id="a_Node000020"><a xlink:href="main_8cpp.html#acbb63e1d425765e52625e23aabf97aa5" target="_top" xlink:title=" ">
<polygon fill="white" stroke="#666666" points="265,-96.5 210,-96.5 210,-77.5 265,-77.5 265,-96.5"/>
<text text-anchor="middle" x="237.5" y="-84.5" font-family="Helvetica,sans-Serif" font-size="10.00">has_arg</text>
</a>
</g>
</g>
<!-- Node1&#45;&gt;Node20 -->
<g id="edge26_Node000001_Node000020" class="edge">
<title>Node1&#45;&gt;Node20</title>
<g id="a_edge26_Node000001_Node000020"><a xlink:title=" ">
<path fill="none" stroke="#63b8ff" d="M72.69,-235.47C84.33,-210.08 119.66,-140.39 171,-105 179.59,-99.08 190.07,-95.1 200.11,-92.43"/>
<polygon fill="#63b8ff" stroke="#63b8ff" points="200.95,-95.82 209.91,-90.17 199.38,-89 200.95,-95.82"/>
</a>
</g>
</g>
<!-- Node21 -->
<g id="Node000021" class="node">
<title>Node21</title>
<g id="a_Node000021"><a xlink:href="classpolyfem_1_1_opt_state.html#a49a90bfd024bab8f1d0a0565911b20ca" target="_top" xlink:title="initialize the polyfem solver with a json settings">
<polygon fill="white" stroke="#666666" points="491.5,-254.5 363.5,-254.5 363.5,-235.5 491.5,-235.5 491.5,-254.5"/>
<text text-anchor="middle" x="427.5" y="-242.5" font-family="Helvetica,sans-Serif" font-size="10.00">polyfem::OptState::init</text>
</a>
</g>
</g>
<!-- Node1&#45;&gt;Node21 -->
<g id="edge27_Node000001_Node000021" class="edge">
<title>Node1&#45;&gt;Node21</title>
<g id="a_edge27_Node000001_Node000021"><a xlink:title=" ">
<path fill="none" stroke="#63b8ff" d="M135.42,-245C197.37,-245 289.3,-245 353.21,-245"/>
<polygon fill="#63b8ff" stroke="#63b8ff" points="353.22,-248.5 363.22,-245 353.22,-241.5 353.22,-248.5"/>
</a>
</g>
</g>
<!-- Node28 -->
<g id="Node000028" class="node">
<title>Node28</title>
<g id="a_Node000028"><a xlink:href="classpolyfem_1_1_opt_state.html#aeef759df193275f8dd2a886f62c6b461" target="_top" xlink:title="init variables">
<polygon fill="white" stroke="#666666" points="293.5,-805 181.5,-805 181.5,-775 293.5,-775 293.5,-805"/>
<text text-anchor="start" x="189.5" y="-793" font-family="Helvetica,sans-Serif" font-size="10.00">polyfem::OptState::</text>
<text text-anchor="middle" x="237.5" y="-782" font-family="Helvetica,sans-Serif" font-size="10.00">init_variables</text>
</a>
</g>
</g>
<!-- Node1&#45;&gt;Node28 -->
<g id="edge41_Node000001_Node000028" class="edge">
<title>Node1&#45;&gt;Node28</title>
<g id="a_edge41_Node000001_Node000028"><a xlink:title=" ">
<path fill="none" stroke="#63b8ff" d="M71.56,-254.92C91.13,-318.4 198.88,-667.95 228.79,-765"/>
<polygon fill="#63b8ff" stroke="#63b8ff" points="225.53,-766.3 231.82,-774.82 232.22,-764.24 225.53,-766.3"/>
</a>
</g>
</g>
<!-- Node33 -->
<g id="Node000033" class="node">
<title>Node33</title>
<g id="a_Node000033"><a xlink:href="classpolyfem_1_1_opt_state.html#a2df2d7ec2271a5a969814c9b100e0bc0" target="_top" xlink:title=" ">
<polygon fill="white" stroke="#666666" points="293.5,-59 181.5,-59 181.5,-29 293.5,-29 293.5,-59"/>
<text text-anchor="start" x="189.5" y="-47" font-family="Helvetica,sans-Serif" font-size="10.00">polyfem::OptState::</text>
<text text-anchor="middle" x="237.5" y="-36" font-family="Helvetica,sans-Serif" font-size="10.00">initial_guess</text>
</a>
</g>
</g>
<!-- Node1&#45;&gt;Node33 -->
<g id="edge49_Node000001_Node000033" class="edge">
<title>Node1&#45;&gt;Node33</title>
<g id="a_edge49_Node000001_Node000033"><a xlink:title=" ">
<path fill="none" stroke="#63b8ff" d="M71.43,-235.4C80.89,-206.03 113.35,-116.41 171,-68 172.53,-66.71 174.14,-65.5 175.8,-64.34"/>
<polygon fill="#63b8ff" stroke="#63b8ff" points="177.78,-67.23 184.54,-59.07 174.17,-61.24 177.78,-67.23"/>
</a>
</g>
</g>
<!-- Node36 -->
<g id="Node000036" class="node">
<title>Node36</title>
<g id="a_Node000036"><a xlink:href="classpolyfem_1_1_opt_state.html#a146051c929a4ea6da9fc24fc2fadc39f" target="_top" xlink:title=" ">
<polygon fill="white" stroke="#666666" points="293.5,-893 181.5,-893 181.5,-863 293.5,-863 293.5,-893"/>
<text text-anchor="start" x="189.5" y="-881" font-family="Helvetica,sans-Serif" font-size="10.00">polyfem::OptState::</text>
<text text-anchor="middle" x="237.5" y="-870" font-family="Helvetica,sans-Serif" font-size="10.00">solve</text>
</a>
</g>
</g>
<!-- Node1&#45;&gt;Node36 -->
<g id="edge53_Node000001_Node000036" class="edge">
<title>Node1&#45;&gt;Node36</title>
<g id="a_edge53_Node000001_Node000036"><a xlink:title=" ">
<path fill="none" stroke="#63b8ff" d="M68.12,-254.73C66.31,-311.99 62.6,-609.6 171,-814 179.7,-830.4 194.09,-845.15 207.17,-856.35"/>
<polygon fill="#63b8ff" stroke="#63b8ff" points="205.13,-859.21 215.08,-862.85 209.57,-853.8 205.13,-859.21"/>
</a>
</g>
</g>
<!-- Node3 -->
<g id="Node000003" class="node">
<title>Node3</title>
<g id="a_Node000003"><a xlink:href="structpolyfem_1_1solver_1_1_adjoint_opt_utils.html#a0f92c47aec3d6056c351b8f79a97bb69" target="_top" xlink:title=" ">
<polygon fill="white" stroke="#666666" points="700,-691 566,-691 566,-661 700,-661 700,-691"/>
<text text-anchor="start" x="574" y="-679" font-family="Helvetica,sans-Serif" font-size="10.00">polyfem::solver::Adjoint</text>
<text text-anchor="middle" x="633" y="-668" font-family="Helvetica,sans-Serif" font-size="10.00">OptUtils::create_form</text>
</a>
</g>
</g>
<!-- Node2&#45;&gt;Node3 -->
<g id="edge2_Node000002_Node000003" class="edge">
<title>Node2&#45;&gt;Node3</title>
<g id="a_edge2_Node000002_Node000003"><a xlink:title=" ">
<path fill="none" stroke="#63b8ff" d="M261.53,-494.06C312.12,-526.62 437.47,-604.42 551,-652 555.7,-653.97 560.61,-655.85 565.6,-657.62"/>
<polygon fill="#63b8ff" stroke="#63b8ff" points="564.64,-660.99 575.24,-660.9 566.9,-654.36 564.64,-660.99"/>
</a>
</g>
</g>
<!-- Node3&#45;&gt;Node3 -->
<g id="edge3_Node000003_Node000003" class="edge">
<title>Node3&#45;&gt;Node3</title>
<g id="a_edge3_Node000003_Node000003"><a xlink:title=" ">
<path fill="none" stroke="#63b8ff" d="M597.14,-691.28C589.17,-700.41 601.12,-709 633,-709 651.93,-709 663.83,-705.97 668.71,-701.6"/>
<polygon fill="#63b8ff" stroke="#63b8ff" points="672.21,-701.33 668.86,-691.28 665.21,-701.22 672.21,-701.33"/>
</a>
</g>
</g>
<!-- Node4 -->
<g id="Node000004" class="node">
<title>Node4</title>
<g id="a_Node000004"><a xlink:href="structpolyfem_1_1solver_1_1_adjoint_opt_utils.html#ad26a3a05049ab7ddeb4aadc463ac9e2a" target="_top" xlink:title=" ">
<polygon fill="white" stroke="#666666" points="927,-795 751,-795 751,-765 927,-765 927,-795"/>
<text text-anchor="start" x="759" y="-783" font-family="Helvetica,sans-Serif" font-size="10.00">polyfem::solver::Adjoint</text>
<text text-anchor="middle" x="839" y="-772" font-family="Helvetica,sans-Serif" font-size="10.00">OptUtils::create_parametrization</text>
</a>
</g>
</g>
<!-- Node3&#45;&gt;Node4 -->
<g id="edge4_Node000003_Node000004" class="edge">
<title>Node3&#45;&gt;Node4</title>
<g id="a_edge4_Node000003_Node000004"><a xlink:title=" ">
<path fill="none" stroke="#63b8ff" d="M654.23,-691.18C676.86,-707.64 715.08,-733.83 751,-751 758.93,-754.79 767.49,-758.3 776.03,-761.46"/>
<polygon fill="#63b8ff" stroke="#63b8ff" points="775.05,-764.83 785.64,-764.89 777.4,-758.23 775.05,-764.83"/>
</a>
</g>
</g>
<!-- Node5 -->
<g id="Node000005" class="node">
<title>Node5</title>
<g id="a_Node000005"><a xlink:href="namespacepolyfem.html#a8d6eb2c01f97c327e382b6dcda332777" target="_top" xlink:title=" ">
<polygon fill="white" stroke="#666666" points="1097,-795 963,-795 963,-765 1097,-765 1097,-795"/>
<text text-anchor="start" x="971" y="-783" font-family="Helvetica,sans-Serif" font-size="10.00">polyfem::log_and_throw</text>
<text text-anchor="middle" x="1030" y="-772" font-family="Helvetica,sans-Serif" font-size="10.00">_adjoint_error</text>
</a>
</g>
</g>
<!-- Node3&#45;&gt;Node5 -->
<g id="edge7_Node000003_Node000005" class="edge">
<title>Node3&#45;&gt;Node5</title>
<g id="a_edge7_Node000003_Node000005"><a xlink:title=" ">
<path fill="none" stroke="#63b8ff" d="M672.05,-691.1C694.73,-699.74 724.23,-710.34 751,-718 827.94,-740.01 848.94,-738.39 927,-756 936.45,-758.13 946.38,-760.41 956.19,-762.69"/>
<polygon fill="#63b8ff" stroke="#63b8ff" points="955.39,-766.1 965.93,-764.97 956.98,-759.29 955.39,-766.1"/>
</a>
</g>
</g>
<!-- Node7 -->
<g id="Node000007" class="node">
<title>Node7</title>
<g id="a_Node000007"><a xlink:href="namespacepolyfem.html#adc7e749e0c40939b7323961c6a41e391" target="_top" xlink:title=" ">
<polygon fill="white" stroke="#666666" points="906,-643 772,-643 772,-613 906,-613 906,-643"/>
<text text-anchor="start" x="780" y="-631" font-family="Helvetica,sans-Serif" font-size="10.00">polyfem::log_and_throw</text>
<text text-anchor="middle" x="839" y="-620" font-family="Helvetica,sans-Serif" font-size="10.00">_error</text>
</a>
</g>
</g>
<!-- Node3&#45;&gt;Node7 -->
<g id="edge8_Node000003_Node000007" class="edge">
<title>Node3&#45;&gt;Node7</title>
<g id="a_edge8_Node000003_Node000007"><a xlink:title=" ">
<path fill="none" stroke="#63b8ff" d="M697.99,-660.94C719.06,-655.99 742.67,-650.43 764.4,-645.32"/>
<polygon fill="#63b8ff" stroke="#63b8ff" points="765.31,-648.7 774.24,-643 763.7,-641.89 765.31,-648.7"/>
</a>
</g>
</g>
<!-- Node9 -->
<g id="Node000009" class="node">
<title>Node9</title>
<g id="a_Node000009"><a xlink:href="classpolyfem_1_1io_1_1_o_b_j_reader.html#a5aaf18ddd73e237912d47f2c4a998ec2" target="_top" xlink:title="Read a mesh from an ascii obj file.">
<polygon fill="white" stroke="#666666" points="904,-691 774,-691 774,-661 904,-661 904,-691"/>
<text text-anchor="start" x="782" y="-679" font-family="Helvetica,sans-Serif" font-size="10.00">polyfem::io::OBJReader</text>
<text text-anchor="middle" x="839" y="-668" font-family="Helvetica,sans-Serif" font-size="10.00">::read</text>
</a>
</g>
</g>
<!-- Node3&#45;&gt;Node9 -->
<g id="edge10_Node000003_Node000009" class="edge">
<title>Node3&#45;&gt;Node9</title>
<g id="a_edge10_Node000003_Node000009"><a xlink:title=" ">
<path fill="none" stroke="#63b8ff" d="M700.23,-676C720.53,-676 742.99,-676 763.78,-676"/>
<polygon fill="#63b8ff" stroke="#63b8ff" points="763.84,-679.5 773.84,-676 763.84,-672.5 763.84,-679.5"/>
</a>
</g>
</g>
<!-- Node4&#45;&gt;Node5 -->
<g id="edge5_Node000004_Node000005" class="edge">
<title>Node4&#45;&gt;Node5</title>
<g id="a_edge5_Node000004_Node000005"><a xlink:title=" ">
<path fill="none" stroke="#63b8ff" d="M927.03,-780C935.57,-780 944.2,-780 952.62,-780"/>
<polygon fill="#63b8ff" stroke="#63b8ff" points="952.77,-783.5 962.77,-780 952.77,-776.5 952.77,-783.5"/>
</a>
</g>
</g>
<!-- Node6 -->
<g id="Node000006" class="node">
<title>Node6</title>
<g id="a_Node000006"><a xlink:href="namespacepolyfem.html#a4d64be939c7759c782fff98ed87f3399" target="_top" xlink:title="Retrieves the current logger for adjoint.">
<polygon fill="white" stroke="#666666" points="1266,-691.5 1133,-691.5 1133,-672.5 1266,-672.5 1266,-691.5"/>
<text text-anchor="middle" x="1199.5" y="-679.5" font-family="Helvetica,sans-Serif" font-size="10.00">polyfem::adjoint_logger</text>
</a>
</g>
</g>
<!-- Node5&#45;&gt;Node6 -->
<g id="edge6_Node000005_Node000006" class="edge">
<title>Node5&#45;&gt;Node6</title>
<g id="a_edge6_Node000005_Node000006"><a xlink:title=" ">
<path fill="none" stroke="#63b8ff" d="M1056.8,-764.9C1088.41,-746.41 1141.6,-715.29 1173.04,-696.89"/>
<polygon fill="#63b8ff" stroke="#63b8ff" points="1175.19,-699.69 1182.06,-691.62 1171.66,-693.65 1175.19,-699.69"/>
</a>
</g>
</g>
<!-- Node7&#45;&gt;Node8 -->
<g id="edge9_Node000007_Node000008" class="edge">
<title>Node7&#45;&gt;Node8</title>
<g id="a_edge9_Node000007_Node000008"><a xlink:title=" ">
<path fill="none" stroke="#63b8ff" d="M868.37,-612.91C886.95,-601.89 910.72,-585.51 927,-566 979.53,-503.06 1011.61,-408.53 1023.61,-368.27"/>
<polygon fill="#63b8ff" stroke="#63b8ff" points="1026.98,-369.21 1026.4,-358.63 1020.26,-367.26 1026.98,-369.21"/>
</a>
</g>
</g>
<!-- Node9&#45;&gt;Node8 -->
<g id="edge11_Node000009_Node000008" class="edge">
<title>Node9&#45;&gt;Node8</title>
<g id="a_edge11_Node000009_Node000008"><a xlink:title=" ">
<path fill="none" stroke="#63b8ff" d="M904.22,-666.17C912.6,-662.73 920.51,-658.14 927,-652 1010.77,-572.76 1025.75,-422.57 1028.42,-368.78"/>
<polygon fill="#63b8ff" stroke="#63b8ff" points="1031.93,-368.7 1028.83,-358.57 1024.94,-368.42 1031.93,-368.7"/>
</a>
</g>
</g>
<!-- Node9&#45;&gt;Node9 -->
<g id="edge12_Node000009_Node000009" class="edge">
<title>Node9&#45;&gt;Node9</title>
<g id="a_edge12_Node000009_Node000009"><a xlink:title=" ">
<path fill="none" stroke="#63b8ff" d="M805.6,-691.28C798.18,-700.41 809.31,-709 839,-709 856.63,-709 867.71,-705.97 872.26,-701.6"/>
<polygon fill="#63b8ff" stroke="#63b8ff" points="875.76,-701.32 872.4,-691.28 868.76,-701.23 875.76,-701.32"/>
</a>
</g>
</g>
<!-- Node10&#45;&gt;Node6 -->
<g id="edge14_Node000010_Node000006" class="edge">
<title>Node10&#45;&gt;Node6</title>
<g id="a_edge14_Node000010_Node000006"><a xlink:title=" ">
<path fill="none" stroke="#63b8ff" d="M463.17,-484.01C487.46,-494.18 520.84,-507.44 551,-517 714.51,-568.81 760.65,-562.2 927,-604 1009.66,-624.77 1105.22,-653.29 1158.07,-669.46"/>
<polygon fill="#63b8ff" stroke="#63b8ff" points="1157.15,-672.84 1167.74,-672.43 1159.2,-666.15 1157.15,-672.84"/>
</a>
</g>
</g>
<!-- Node11 -->
<g id="Node000011" class="node">
<title>Node11</title>
<g id="a_Node000011"><a xlink:href="structpolyfem_1_1solver_1_1_adjoint_opt_utils.html#a6ea63b4bd3b96770b75f7fb8d301f560" target="_top" xlink:title=" ">
<polygon fill="white" stroke="#666666" points="700,-508 566,-508 566,-478 700,-478 700,-508"/>
<text text-anchor="start" x="574" y="-496" font-family="Helvetica,sans-Serif" font-size="10.00">polyfem::solver::Adjoint</text>
<text text-anchor="middle" x="633" y="-485" font-family="Helvetica,sans-Serif" font-size="10.00">OptUtils::create_states</text>
</a>
</g>
</g>
<!-- Node10&#45;&gt;Node11 -->
<g id="edge15_Node000010_Node000011" class="edge">
<title>Node10&#45;&gt;Node11</title>
<g id="a_edge15_Node000010_Node000011"><a xlink:title=" ">
<path fill="none" stroke="#63b8ff" d="M483.57,-475.49C505.71,-478.11 531.62,-481.16 555.54,-483.98"/>
<polygon fill="#63b8ff" stroke="#63b8ff" points="555.31,-487.48 565.66,-485.18 556.13,-480.53 555.31,-487.48"/>
</a>
</g>
</g>
<!-- Node15 -->
<g id="Node000015" class="node">
<title>Node15</title>
<g id="a_Node000015"><a xlink:href="classpolyfem_1_1utils_1_1_geogram_utils.html#a4ba301e2729ed2d1410d66d2b13baa7e" target="_top" xlink:title=" ">
<polygon fill="white" stroke="#666666" points="712,-643 554,-643 554,-613 712,-613 712,-643"/>
<text text-anchor="start" x="562" y="-631" font-family="Helvetica,sans-Serif" font-size="10.00">polyfem::utils::GeogramUtils</text>
<text text-anchor="middle" x="633" y="-620" font-family="Helvetica,sans-Serif" font-size="10.00">::instance</text>
</a>
</g>
</g>
<!-- Node10&#45;&gt;Node15 -->
<g id="edge20_Node000010_Node000015" class="edge">
<title>Node10&#45;&gt;Node15</title>
<g id="a_edge20_Node000010_Node000015"><a xlink:title=" ">
<path fill="none" stroke="#63b8ff" d="M438.9,-484.03C458.1,-510.75 501.7,-566.74 551,-599 556.63,-602.68 562.78,-605.97 569.1,-608.88"/>
<polygon fill="#63b8ff" stroke="#63b8ff" points="567.86,-612.16 578.43,-612.88 570.62,-605.72 567.86,-612.16"/>
</a>
</g>
</g>
<!-- Node16 -->
<g id="Node000016" class="node">
<title>Node16</title>
<g id="a_Node000016"><a xlink:href="classpolyfem_1_1_opt_state.html#a77515b2c1da5e2c0b54e9388f3f060d2" target="_top" xlink:title=" ">
<polygon fill="white" stroke="#666666" points="689,-412 577,-412 577,-382 689,-382 689,-412"/>
<text text-anchor="start" x="585" y="-400" font-family="Helvetica,sans-Serif" font-size="10.00">polyfem::OptState::</text>
<text text-anchor="middle" x="633" y="-389" font-family="Helvetica,sans-Serif" font-size="10.00">root_path</text>
</a>
</g>
</g>
<!-- Node10&#45;&gt;Node16 -->
<g id="edge21_Node000010_Node000016" class="edge">
<title>Node10&#45;&gt;Node16</title>
<g id="a_edge21_Node000010_Node000016"><a xlink:title=" ">
<path fill="none" stroke="#63b8ff" d="M464.65,-453.9C488.88,-444 521.62,-431.09 551,-421 556.83,-419 562.92,-417.01 569.04,-415.08"/>
<polygon fill="#63b8ff" stroke="#63b8ff" points="570.12,-418.41 578.64,-412.11 568.05,-411.72 570.12,-418.41"/>
</a>
</g>
</g>
<!-- Node18 -->
<g id="Node000018" class="node">
<title>Node18</title>
<g id="a_Node000018"><a xlink:href="classpolyfem_1_1utils_1_1_geogram_utils.html#a0f896e088a8319af725484c845f79493" target="_top" xlink:title=" ">
<polygon fill="white" stroke="#666666" points="712,-460 554,-460 554,-430 712,-430 712,-460"/>
<text text-anchor="start" x="562" y="-448" font-family="Helvetica,sans-Serif" font-size="10.00">polyfem::utils::GeogramUtils</text>
<text text-anchor="middle" x="633" y="-437" font-family="Helvetica,sans-Serif" font-size="10.00">::set_logger</text>
</a>
</g>
</g>
<!-- Node10&#45;&gt;Node18 -->
<g id="edge23_Node000010_Node000018" class="edge">
<title>Node10&#45;&gt;Node18</title>
<g id="a_edge23_Node000010_Node000018"><a xlink:title=" ">
<path fill="none" stroke="#63b8ff" d="M483.57,-462.51C502.18,-460.31 523.46,-457.8 543.97,-455.38"/>
<polygon fill="#63b8ff" stroke="#63b8ff" points="544.45,-458.85 553.97,-454.2 543.63,-451.9 544.45,-458.85"/>
</a>
</g>
</g>
<!-- Node11&#45;&gt;Node5 -->
<g id="edge18_Node000011_Node000005" class="edge">
<title>Node11&#45;&gt;Node5</title>
<g id="a_edge18_Node000011_Node000005"><a xlink:title=" ">
<path fill="none" stroke="#63b8ff" d="M700.22,-490.75C775.49,-489.53 892.41,-492.12 927,-518 1004.52,-576 1023.15,-701.39 1027.6,-754.94"/>
<polygon fill="#63b8ff" stroke="#63b8ff" points="1024.12,-755.22 1028.34,-764.94 1031.1,-754.71 1024.12,-755.22"/>
</a>
</g>
</g>
<!-- Node12 -->
<g id="Node000012" class="node">
<title>Node12</title>
<g id="a_Node000012"><a xlink:href="structpolyfem_1_1solver_1_1_adjoint_opt_utils.html#af22bdc15491ce7d6406875dbeb0fd28f" target="_top" xlink:title=" ">
<polygon fill="white" stroke="#666666" points="906,-557 772,-557 772,-527 906,-527 906,-557"/>
<text text-anchor="start" x="780" y="-545" font-family="Helvetica,sans-Serif" font-size="10.00">polyfem::solver::Adjoint</text>
<text text-anchor="middle" x="839" y="-534" font-family="Helvetica,sans-Serif" font-size="10.00">OptUtils::create_state</text>
</a>
</g>
</g>
<!-- Node11&#45;&gt;Node12 -->
<g id="edge16_Node000011_Node000012" class="edge">
<title>Node11&#45;&gt;Node12</title>
<g id="a_edge16_Node000011_Node000012"><a xlink:title=" ">
<path fill="none" stroke="#63b8ff" d="M696.59,-508.03C718.43,-513.28 743.11,-519.21 765.67,-524.63"/>
<polygon fill="#63b8ff" stroke="#63b8ff" points="764.98,-528.06 775.53,-526.99 766.62,-521.26 764.98,-528.06"/>
</a>
</g>
</g>
<!-- Node13 -->
<g id="Node000013" class="node">
<title>Node13</title>
<g id="a_Node000013"><a xlink:href="main_8cpp.html#a2af6e3fbd4aaa80375a7399896703035" target="_top" xlink:title=" ">
<polygon fill="white" stroke="#666666" points="870.5,-470.5 807.5,-470.5 807.5,-451.5 870.5,-451.5 870.5,-470.5"/>
<text text-anchor="middle" x="839" y="-458.5" font-family="Helvetica,sans-Serif" font-size="10.00">load_json</text>
</a>
</g>
</g>
<!-- Node11&#45;&gt;Node13 -->
<g id="edge17_Node000011_Node000013" class="edge">
<title>Node11&#45;&gt;Node13</title>
<g id="a_edge17_Node000011_Node000013"><a xlink:title=" ">
<path fill="none" stroke="#63b8ff" d="M700.23,-482.61C732.21,-477.59 769.56,-471.74 797.3,-467.38"/>
<polygon fill="#63b8ff" stroke="#63b8ff" points="798.09,-470.8 807.43,-465.8 797.01,-463.89 798.09,-470.8"/>
</a>
</g>
</g>
<!-- Node14 -->
<g id="Node000014" class="node">
<title>Node14</title>
<g id="a_Node000014"><a xlink:href="namespacepolyfem_1_1utils.html#a4dc2e59d21d66809d2273ae115be0b73" target="_top" xlink:title=" ">
<polygon fill="white" stroke="#666666" points="915.5,-346.5 762.5,-346.5 762.5,-327.5 915.5,-327.5 915.5,-346.5"/>
<text text-anchor="middle" x="839" y="-334.5" font-family="Helvetica,sans-Serif" font-size="10.00">polyfem::utils::resolve_path</text>
</a>
</g>
</g>
<!-- Node11&#45;&gt;Node14 -->
<g id="edge19_Node000011_Node000014" class="edge">
<title>Node11&#45;&gt;Node14</title>
<g id="a_edge19_Node000011_Node000014"><a xlink:title=" ">
<path fill="none" stroke="#63b8ff" d="M700.34,-479.56C705.71,-476.68 710.7,-473.21 715,-469 752.65,-432.11 712.03,-391.49 751,-356 752.54,-354.59 754.17,-353.28 755.85,-352.06"/>
<polygon fill="#63b8ff" stroke="#63b8ff" points="758.04,-354.84 764.79,-346.68 754.42,-348.84 758.04,-354.84"/>
</a>
</g>
</g>
<!-- Node17 -->
<g id="Node000017" class="node">
<title>Node17</title>
<g id="a_Node000017"><a xlink:href="namespacepolyfem_1_1utils.html#aa57e548cd0726262758fcc6b16fe0b0a" target="_top" xlink:title="Determine if a key exists and is non&#45;null in a json object.">
<polygon fill="white" stroke="#666666" points="888,-395 790,-395 790,-365 888,-365 888,-395"/>
<text text-anchor="start" x="798" y="-383" font-family="Helvetica,sans-Serif" font-size="10.00">polyfem::utils::is</text>
<text text-anchor="middle" x="839" y="-372" font-family="Helvetica,sans-Serif" font-size="10.00">_param_valid</text>
</a>
</g>
</g>
<!-- Node16&#45;&gt;Node17 -->
<g id="edge22_Node000016_Node000017" class="edge">
<title>Node16&#45;&gt;Node17</title>
<g id="a_edge22_Node000016_Node000017"><a xlink:title=" ">
<path fill="none" stroke="#63b8ff" d="M689.21,-392.4C717.16,-390.07 751.1,-387.24 779.5,-384.87"/>
<polygon fill="#63b8ff" stroke="#63b8ff" points="780.02,-388.34 789.7,-384.03 779.44,-381.37 780.02,-388.34"/>
</a>
</g>
</g>
<!-- Node18&#45;&gt;Node8 -->
<g id="edge24_Node000018_Node000008" class="edge">
<title>Node18&#45;&gt;Node8</title>
<g id="a_edge24_Node000018_Node000008"><a xlink:title=" ">
<path fill="none" stroke="#63b8ff" d="M712.19,-441.6C772.21,-437.2 856.47,-427.12 927,-404 956.18,-394.43 986.82,-376.73 1006.81,-363.98"/>
<polygon fill="#63b8ff" stroke="#63b8ff" points="1008.73,-366.91 1015.2,-358.52 1004.91,-361.04 1008.73,-366.91"/>
</a>
</g>
</g>
<!-- Node21&#45;&gt;Node6 -->
<g id="edge28_Node000021_Node000006" class="edge">
<title>Node21&#45;&gt;Node6</title>
<g id="a_edge28_Node000021_Node000006"><a xlink:title=" ">
<path fill="none" stroke="#63b8ff" d="M440.08,-235.46C460.8,-219.06 506.23,-186.03 551,-173 631.24,-149.65 849.55,-134.6 927,-166 1135.97,-250.74 1186.84,-578.71 1196.53,-662.45"/>
<polygon fill="#63b8ff" stroke="#63b8ff" points="1193.05,-662.84 1197.61,-672.4 1200.01,-662.08 1193.05,-662.84"/>
</a>
</g>
</g>
<!-- Node21&#45;&gt;Node14 -->
<g id="edge37_Node000021_Node000014" class="edge">
<title>Node21&#45;&gt;Node14</title>
<g id="a_edge37_Node000021_Node000014"><a xlink:title=" ">
<path fill="none" stroke="#63b8ff" d="M478.49,-254.5C535.89,-265.72 632.76,-285.58 715,-307 731.19,-311.22 734.81,-313.77 751,-318 760.65,-320.52 770.96,-322.98 780.98,-325.25"/>
<polygon fill="#63b8ff" stroke="#63b8ff" points="780.35,-328.69 790.88,-327.44 781.87,-321.86 780.35,-328.69"/>
</a>
</g>
</g>
<!-- Node21&#45;&gt;Node16 -->
<g id="edge38_Node000021_Node000016" class="edge">
<title>Node21&#45;&gt;Node16</title>
<g id="a_edge38_Node000021_Node000016"><a xlink:title=" ">
<path fill="none" stroke="#63b8ff" d="M434.98,-254.65C451.45,-278.44 497.43,-340.32 551,-373 556.05,-376.08 561.53,-378.79 567.16,-381.16"/>
<polygon fill="#63b8ff" stroke="#63b8ff" points="566.16,-384.53 576.75,-384.85 568.67,-377.99 566.16,-384.53"/>
</a>
</g>
</g>
<!-- Node22 -->
<g id="Node000022" class="node">
<title>Node22</title>
<g id="a_Node000022"><a xlink:href="structpolyfem_1_1solver_1_1_adjoint_opt_utils.html#ab38613c0efb3df98a160a828cca64963" target="_top" xlink:title=" ">
<polygon fill="white" stroke="#666666" points="715,-260 551,-260 551,-230 715,-230 715,-260"/>
<text text-anchor="start" x="559" y="-248" font-family="Helvetica,sans-Serif" font-size="10.00">polyfem::solver::Adjoint</text>
<text text-anchor="middle" x="633" y="-237" font-family="Helvetica,sans-Serif" font-size="10.00">OptUtils::apply_opt_json_spec</text>
</a>
</g>
</g>
<!-- Node21&#45;&gt;Node22 -->
<g id="edge29_Node000021_Node000022" class="edge">
<title>Node21&#45;&gt;Node22</title>
<g id="a_edge29_Node000021_Node000022"><a xlink:title=" ">
<path fill="none" stroke="#63b8ff" d="M491.77,-245C507.23,-245 524.08,-245 540.57,-245"/>
<polygon fill="#63b8ff" stroke="#63b8ff" points="540.77,-248.5 550.77,-245 540.77,-241.5 540.77,-248.5"/>
</a>
</g>
</g>
<!-- Node24 -->
<g id="Node000024" class="node">
<title>Node24</title>
<g id="a_Node000024"><a xlink:href="classpolyfem_1_1utils_1_1_n_thread.html#a450e08589b053f6b1420f9f9eee0cf8b" target="_top" xlink:title=" ">
<polygon fill="white" stroke="#666666" points="709.5,-125.5 556.5,-125.5 556.5,-106.5 709.5,-106.5 709.5,-125.5"/>
<text text-anchor="middle" x="633" y="-113.5" font-family="Helvetica,sans-Serif" font-size="10.00">polyfem::utils::NThread::get</text>
</a>
</g>
</g>
<!-- Node21&#45;&gt;Node24 -->
<g id="edge34_Node000021_Node000024" class="edge">
<title>Node21&#45;&gt;Node24</title>
<g id="a_edge34_Node000021_Node000024"><a xlink:title=" ">
<path fill="none" stroke="#63b8ff" d="M437.01,-235.36C455.65,-214.82 502.28,-166.51 551,-140 559.32,-135.47 568.59,-131.7 577.81,-128.6"/>
<polygon fill="#63b8ff" stroke="#63b8ff" points="578.87,-131.93 587.36,-125.59 576.77,-125.26 578.87,-131.93"/>
</a>
</g>
</g>
<!-- Node25 -->
<g id="Node000025" class="node">
<title>Node25</title>
<g id="a_Node000025"><a xlink:href="classpolyfem_1_1_opt_state.html#ac773f2b10e90d8b0e45fa605c1f3fff0" target="_top" xlink:title="initializing the logger">
<polygon fill="white" stroke="#666666" points="689,-346 577,-346 577,-316 689,-316 689,-346"/>
<text text-anchor="start" x="585" y="-334" font-family="Helvetica,sans-Serif" font-size="10.00">polyfem::OptState::</text>
<text text-anchor="middle" x="633" y="-323" font-family="Helvetica,sans-Serif" font-size="10.00">init_logger</text>
</a>
</g>
</g>
<!-- Node21&#45;&gt;Node25 -->
<g id="edge35_Node000021_Node000025" class="edge">
<title>Node21&#45;&gt;Node25</title>
<g id="a_edge35_Node000021_Node000025"><a xlink:title=" ">
<path fill="none" stroke="#63b8ff" d="M447.78,-254.64C471.7,-266.45 513.9,-286.76 551,-302 559.62,-305.54 568.86,-309.08 577.89,-312.41"/>
<polygon fill="#63b8ff" stroke="#63b8ff" points="576.99,-315.8 587.58,-315.92 579.37,-309.22 576.99,-315.8"/>
</a>
</g>
</g>
<!-- Node26 -->
<g id="Node000026" class="node">
<title>Node26</title>
<g id="a_Node000026"><a xlink:href="classpolyfem_1_1utils_1_1_n_thread.html#ae8b361561f7cdb675bc69991af706d85" target="_top" xlink:title=" ">
<polygon fill="white" stroke="#666666" points="698.5,-212 567.5,-212 567.5,-182 698.5,-182 698.5,-212"/>
<text text-anchor="start" x="575.5" y="-200" font-family="Helvetica,sans-Serif" font-size="10.00">polyfem::utils::NThread</text>
<text text-anchor="middle" x="633" y="-189" font-family="Helvetica,sans-Serif" font-size="10.00">::set_num_threads</text>
</a>
</g>
</g>
<!-- Node21&#45;&gt;Node26 -->
<g id="edge39_Node000021_Node000026" class="edge">
<title>Node21&#45;&gt;Node26</title>
<g id="a_edge39_Node000021_Node000026"><a xlink:title=" ">
<path fill="none" stroke="#63b8ff" d="M469.19,-235.4C494.62,-229.4 528.12,-221.5 558.12,-214.43"/>
<polygon fill="#63b8ff" stroke="#63b8ff" points="559.21,-217.77 568.14,-212.06 557.6,-210.95 559.21,-217.77"/>
</a>
</g>
</g>
<!-- Node22&#45;&gt;Node8 -->
<g id="edge33_Node000022_Node000008" class="edge">
<title>Node22&#45;&gt;Node8</title>
<g id="a_edge33_Node000022_Node000008"><a xlink:title=" ">
<path fill="none" stroke="#63b8ff" d="M715.24,-231.67C775.92,-225.27 859.64,-224.15 927,-252 966.67,-268.4 999.93,-307.97 1016.89,-331.19"/>
<polygon fill="#63b8ff" stroke="#63b8ff" points="1014.13,-333.34 1022.77,-339.48 1019.84,-329.3 1014.13,-333.34"/>
</a>
</g>
</g>
<!-- Node23 -->
<g id="Node000023" class="node">
<title>Node23</title>
<g id="a_Node000023"><a xlink:href="namespacepolyfem_1_1solver.html#ae348c4163f5aa6fd389752f717522d83" target="_top" xlink:title=" ">
<polygon fill="white" stroke="#666666" points="902,-291 776,-291 776,-261 902,-261 902,-291"/>
<text text-anchor="start" x="784" y="-279" font-family="Helvetica,sans-Serif" font-size="10.00">polyfem::solver::apply</text>
<text text-anchor="middle" x="839" y="-268" font-family="Helvetica,sans-Serif" font-size="10.00">_objective_json_spec</text>
</a>
</g>
</g>
<!-- Node22&#45;&gt;Node23 -->
<g id="edge30_Node000022_Node000023" class="edge">
<title>Node22&#45;&gt;Node23</title>
<g id="a_edge30_Node000022_Node000023"><a xlink:title=" ">
<path fill="none" stroke="#63b8ff" d="M715.21,-257.34C731.96,-259.89 749.49,-262.55 765.88,-265.04"/>
<polygon fill="#63b8ff" stroke="#63b8ff" points="765.52,-268.53 775.93,-266.57 766.57,-261.61 765.52,-268.53"/>
</a>
</g>
</g>
<!-- Node23&#45;&gt;Node8 -->
<g id="edge32_Node000023_Node000008" class="edge">
<title>Node23&#45;&gt;Node8</title>
<g id="a_edge32_Node000023_Node000008"><a xlink:title=" ">
<path fill="none" stroke="#63b8ff" d="M879.16,-291.13C913.26,-304.3 962.2,-323.2 994.76,-335.78"/>
<polygon fill="#63b8ff" stroke="#63b8ff" points="993.72,-339.13 1004.31,-339.46 996.24,-332.6 993.72,-339.13"/>
</a>
</g>
</g>
<!-- Node23&#45;&gt;Node23 -->
<g id="edge31_Node000023_Node000023" class="edge">
<title>Node23&#45;&gt;Node23</title>
<g id="a_edge31_Node000023_Node000023"><a xlink:title=" ">
<path fill="none" stroke="#63b8ff" d="M805.6,-291.28C798.18,-300.41 809.31,-309 839,-309 856.63,-309 867.71,-305.97 872.26,-301.6"/>
<polygon fill="#63b8ff" stroke="#63b8ff" points="875.76,-301.32 872.4,-291.28 868.76,-301.23 875.76,-301.32"/>
</a>
</g>
</g>
<!-- Node25&#45;&gt;Node25 -->
<g id="edge36_Node000025_Node000025" class="edge">
<title>Node25&#45;&gt;Node25</title>
<g id="a_edge36_Node000025_Node000025"><a xlink:title=" ">
<path fill="none" stroke="#63b8ff" d="M597.14,-346.28C589.17,-355.41 601.12,-364 633,-364 651.93,-364 663.83,-360.97 668.71,-356.6"/>
<polygon fill="#63b8ff" stroke="#63b8ff" points="672.21,-356.33 668.86,-346.28 665.21,-356.22 672.21,-356.33"/>
</a>
</g>
</g>
<!-- Node27 -->
<g id="Node000027" class="node">
<title>Node27</title>
<g id="a_Node000027"><a xlink:href="classpolyfem_1_1utils_1_1_n_thread.html#a61ce80820104c48cdcd53042ebcf643f" target="_top" xlink:title=" ">
<polygon fill="white" stroke="#666666" points="904.5,-205 773.5,-205 773.5,-175 904.5,-175 904.5,-205"/>
<text text-anchor="start" x="781.5" y="-193" font-family="Helvetica,sans-Serif" font-size="10.00">polyfem::utils::NThread</text>
<text text-anchor="middle" x="839" y="-182" font-family="Helvetica,sans-Serif" font-size="10.00">::num_threads</text>
</a>
</g>
</g>
<!-- Node26&#45;&gt;Node27 -->
<g id="edge40_Node000026_Node000027" class="edge">
<title>Node26&#45;&gt;Node27</title>
<g id="a_edge40_Node000026_Node000027"><a xlink:title=" ">
<path fill="none" stroke="#63b8ff" d="M698.55,-194.79C719.01,-194.08 741.81,-193.3 762.95,-192.58"/>
<polygon fill="#63b8ff" stroke="#63b8ff" points="763.3,-196.07 773.17,-192.22 763.06,-189.07 763.3,-196.07"/>
</a>
</g>
</g>
<!-- Node29 -->
<g id="Node000029" class="node">
<title>Node29</title>
<g id="a_Node000029"><a xlink:href="structpolyfem_1_1solver_1_1_adjoint_opt_utils.html#ad82bbac53921639b992a821cc1b53520" target="_top" xlink:title=" ">
<polygon fill="white" stroke="#666666" points="515,-864 340,-864 340,-834 515,-834 515,-864"/>
<text text-anchor="start" x="348" y="-852" font-family="Helvetica,sans-Serif" font-size="10.00">polyfem::solver::Adjoint</text>
<text text-anchor="middle" x="427.5" y="-841" font-family="Helvetica,sans-Serif" font-size="10.00">OptUtils::compute_variable_size</text>
</a>
</g>
</g>
<!-- Node28&#45;&gt;Node29 -->
<g id="edge42_Node000028_Node000029" class="edge">
<title>Node28&#45;&gt;Node29</title>
<g id="a_edge42_Node000028_Node000029"><a xlink:title=" ">
<path fill="none" stroke="#63b8ff" d="M286.43,-805.04C311.51,-812.91 342.4,-822.61 368.79,-830.89"/>
<polygon fill="#63b8ff" stroke="#63b8ff" points="368.07,-834.33 378.66,-833.99 370.17,-827.65 368.07,-834.33"/>
</a>
</g>
</g>
<!-- Node30 -->
<g id="Node000030" class="node">
<title>Node30</title>
<g id="a_Node000030"><a xlink:href="classpolyfem_1_1solver_1_1_variable_to_simulation_group.html#a92ff8d986371aac8de8e22e09b32aac7" target="_top" xlink:title=" ">
<polygon fill="white" stroke="#666666" points="497,-805 358,-805 358,-775 497,-775 497,-805"/>
<text text-anchor="start" x="366" y="-793" font-family="Helvetica,sans-Serif" font-size="10.00">polyfem::solver::Variable</text>
<text text-anchor="middle" x="427.5" y="-782" font-family="Helvetica,sans-Serif" font-size="10.00">ToSimulationGroup::init</text>
</a>
</g>
</g>
<!-- Node28&#45;&gt;Node30 -->
<g id="edge44_Node000028_Node000030" class="edge">
<title>Node28&#45;&gt;Node30</title>
<g id="a_edge44_Node000028_Node000030"><a xlink:title=" ">
<path fill="none" stroke="#63b8ff" d="M293.64,-790C310.47,-790 329.32,-790 347.42,-790"/>
<polygon fill="#63b8ff" stroke="#63b8ff" points="347.67,-793.5 357.67,-790 347.67,-786.5 347.67,-793.5"/>
</a>
</g>
</g>
<!-- Node29&#45;&gt;Node5 -->
<g id="edge43_Node000029_Node000005" class="edge">
<title>Node29&#45;&gt;Node5</title>
<g id="a_edge43_Node000029_Node000005"><a xlink:title=" ">
<path fill="none" stroke="#63b8ff" d="M515.21,-859.11C638.67,-871.91 857.86,-888.23 927,-852 949.37,-840.28 942.27,-821.01 962.63,-801.7"/>
<polygon fill="#63b8ff" stroke="#63b8ff" points="965.12,-804.18 970.67,-795.16 960.71,-798.75 965.12,-804.18"/>
</a>
</g>
</g>
<!-- Node31 -->
<g id="Node000031" class="node">
<title>Node31</title>
<g id="a_Node000031"><a xlink:href="structpolyfem_1_1solver_1_1_adjoint_opt_utils.html#a7b82f6969eaa6034608f2e7cf5e87a8b" target="_top" xlink:title=" ">
<polygon fill="white" stroke="#666666" points="702,-810.5 564,-810.5 564,-769.5 702,-769.5 702,-810.5"/>
<text text-anchor="start" x="572" y="-798.5" font-family="Helvetica,sans-Serif" font-size="10.00">polyfem::solver::Adjoint</text>
<text text-anchor="start" x="572" y="-787.5" font-family="Helvetica,sans-Serif" font-size="10.00">OptUtils::create_variable</text>
<text text-anchor="middle" x="633" y="-776.5" font-family="Helvetica,sans-Serif" font-size="10.00">_to_simulation</text>
</a>
</g>
</g>
<!-- Node30&#45;&gt;Node31 -->
<g id="edge45_Node000030_Node000031" class="edge">
<title>Node30&#45;&gt;Node31</title>
<g id="a_edge45_Node000030_Node000031"><a xlink:title=" ">
<path fill="none" stroke="#63b8ff" d="M497.11,-790C515.22,-790 534.9,-790 553.49,-790"/>
<polygon fill="#63b8ff" stroke="#63b8ff" points="553.69,-793.5 563.69,-790 553.69,-786.5 553.69,-793.5"/>
</a>
</g>
</g>
<!-- Node31&#45;&gt;Node4 -->
<g id="edge48_Node000031_Node000004" class="edge">
<title>Node31&#45;&gt;Node4</title>
<g id="a_edge48_Node000031_Node000004"><a xlink:title=" ">
<path fill="none" stroke="#63b8ff" d="M702.21,-786.66C714.67,-786.05 727.89,-785.4 741,-784.75"/>
<polygon fill="#63b8ff" stroke="#63b8ff" points="741.17,-788.25 750.99,-784.27 740.83,-781.26 741.17,-788.25"/>
</a>
</g>
</g>
<!-- Node32 -->
<g id="Node000032" class="node">
<title>Node32</title>
<g id="a_Node000032"><a xlink:href="classpolyfem_1_1solver_1_1_variable_to_simulation.html#aeacc374b8d204e41cb45f555c8a9e4f1" target="_top" xlink:title=" ">
<polygon fill="white" stroke="#666666" points="908.5,-843 769.5,-843 769.5,-813 908.5,-813 908.5,-843"/>
<text text-anchor="start" x="777.5" y="-831" font-family="Helvetica,sans-Serif" font-size="10.00">polyfem::solver::Variable</text>
<text text-anchor="middle" x="839" y="-820" font-family="Helvetica,sans-Serif" font-size="10.00">ToSimulation::create</text>
</a>
</g>
</g>
<!-- Node31&#45;&gt;Node32 -->
<g id="edge46_Node000031_Node000032" class="edge">
<title>Node31&#45;&gt;Node32</title>
<g id="a_edge46_Node000031_Node000032"><a xlink:title=" ">
<path fill="none" stroke="#63b8ff" d="M702.21,-802.71C720.47,-806.11 740.37,-809.81 759.15,-813.31"/>
<polygon fill="#63b8ff" stroke="#63b8ff" points="758.68,-816.79 769.16,-815.18 759.97,-809.9 758.68,-816.79"/>
</a>
</g>
</g>
<!-- Node32&#45;&gt;Node5 -->
<g id="edge47_Node000032_Node000005" class="edge">
<title>Node32&#45;&gt;Node5</title>
<g id="a_edge47_Node000032_Node000005"><a xlink:title=" ">
<path fill="none" stroke="#63b8ff" d="M899.28,-812.94C918.55,-808.05 940.09,-802.58 960,-797.52"/>
<polygon fill="#63b8ff" stroke="#63b8ff" points="961.1,-800.86 969.93,-795 959.37,-794.07 961.1,-800.86"/>
</a>
</g>
</g>
<!-- Node34 -->
<g id="Node000034" class="node">
<title>Node34</title>
<g id="a_Node000034"><a xlink:href="structpolyfem_1_1solver_1_1_adjoint_opt_utils.html#ab3ac2f8944df7f833c08be9168480b21" target="_top" xlink:title=" ">
<polygon fill="white" stroke="#666666" points="505,-30 350,-30 350,0 505,0 505,-30"/>
<text text-anchor="start" x="358" y="-18" font-family="Helvetica,sans-Serif" font-size="10.00">polyfem::solver::Adjoint</text>
<text text-anchor="middle" x="427.5" y="-7" font-family="Helvetica,sans-Serif" font-size="10.00">OptUtils::inverse_evaluation</text>
</a>
</g>
</g>
<!-- Node33&#45;&gt;Node34 -->
<g id="edge50_Node000033_Node000034" class="edge">
<title>Node33&#45;&gt;Node34</title>
<g id="a_edge50_Node000033_Node000034"><a xlink:title=" ">
<path fill="none" stroke="#63b8ff" d="M293.64,-35.49C308.03,-33.27 323.91,-30.83 339.52,-28.42"/>
<polygon fill="#63b8ff" stroke="#63b8ff" points="340.38,-31.83 349.73,-26.84 339.31,-24.91 340.38,-31.83"/>
</a>
</g>
</g>
<!-- Node35 -->
<g id="Node000035" class="node">
<title>Node35</title>
<g id="a_Node000035"><a xlink:href="classpolyfem_1_1solver_1_1_variable_to_simulation_group.html#a9e6f96ff30c1de1a1b483354dd74001d" target="_top" xlink:title="Update parameters in simulators.">
<polygon fill="white" stroke="#666666" points="502,-78 353,-78 353,-48 502,-48 502,-78"/>
<text text-anchor="start" x="361" y="-66" font-family="Helvetica,sans-Serif" font-size="10.00">polyfem::solver::Variable</text>
<text text-anchor="middle" x="427.5" y="-55" font-family="Helvetica,sans-Serif" font-size="10.00">ToSimulationGroup::update</text>
</a>
</g>
</g>
<!-- Node33&#45;&gt;Node35 -->
<g id="edge51_Node000033_Node000035" class="edge">
<title>Node33&#45;&gt;Node35</title>
<g id="a_edge51_Node000033_Node000035"><a xlink:title=" ">
<path fill="none" stroke="#63b8ff" d="M293.64,-49.57C308.98,-51.12 326,-52.84 342.59,-54.52"/>
<polygon fill="#63b8ff" stroke="#63b8ff" points="342.55,-58.03 352.85,-55.56 343.25,-51.07 342.55,-58.03"/>
</a>
</g>
</g>
<!-- Node37 -->
<g id="Node000037" class="node">
<title>Node37</title>
<g id="a_Node000037"><a xlink:href="structpolyfem_1_1solver_1_1_adjoint_opt_utils.html#a522e38998a46be499ac7d7d1b28e0fd9" target="_top" xlink:title=" ">
<polygon fill="white" stroke="#666666" points="908.5,-929 769.5,-929 769.5,-899 908.5,-899 908.5,-929"/>
<text text-anchor="start" x="777.5" y="-917" font-family="Helvetica,sans-Serif" font-size="10.00">polyfem::solver::Adjoint</text>
<text text-anchor="middle" x="839" y="-906" font-family="Helvetica,sans-Serif" font-size="10.00">OptUtils::make_nl_solver</text>
</a>
</g>
</g>
<!-- Node36&#45;&gt;Node37 -->
<g id="edge54_Node000036_Node000037" class="edge">
<title>Node36&#45;&gt;Node37</title>
<g id="a_edge54_Node000036_Node000037"><a xlink:title=" ">
<path fill="none" stroke="#63b8ff" d="M293.56,-881.31C400.26,-887.71 635.55,-901.84 758.94,-909.25"/>
<polygon fill="#63b8ff" stroke="#63b8ff" points="758.89,-912.76 769.08,-909.86 759.31,-905.77 758.89,-912.76"/>
</a>
</g>
</g>
<!-- Node37&#45;&gt;Node5 -->
<g id="edge56_Node000037_Node000005" class="edge">
<title>Node37&#45;&gt;Node5</title>
<g id="a_edge56_Node000037_Node000005"><a xlink:title=" ">
<path fill="none" stroke="#63b8ff" d="M898.39,-898.85C908.31,-895.08 918.24,-890.5 927,-885 945.51,-873.37 985.2,-829.96 1009.25,-802.73"/>
<polygon fill="#63b8ff" stroke="#63b8ff" points="1011.91,-805.01 1015.88,-795.19 1006.65,-800.39 1011.91,-805.01"/>
</a>
</g>
</g>
<!-- Node37&#45;&gt;Node6 -->
<g id="edge55_Node000037_Node000006" class="edge">
<title>Node37&#45;&gt;Node6</title>
<g id="a_edge55_Node000037_Node000006"><a xlink:title=" ">
<path fill="none" stroke="#63b8ff" d="M896.49,-898.99C951.69,-882.32 1036.07,-851.36 1097,-804 1135.94,-773.73 1170.05,-726.14 1187.05,-700.25"/>
<polygon fill="#63b8ff" stroke="#63b8ff" points="1190.04,-702.07 1192.51,-691.77 1184.16,-698.28 1190.04,-702.07"/>
</a>
</g>
</g>
</g>
</svg>

<g id="navigator" transform="translate(0 0)" fill="#404254">
  <rect fill="#f2f5e9" fill-opacity="0.5" stroke="#606060" stroke-width=".5" x="0" y="0" width="60" height="60"/>
  <use id="zoomplus" xlink:href="#zoomPlus" x="17" y="9" onmousedown="handleZoom(evt,'in')"/>
  <use id="zoomminus" xlink:href="#zoomMin" x="42" y="9" onmousedown="handleZoom(evt,'out')"/>
  <use id="reset" xlink:href="#resetDef" x="30" y="36" onmousedown="handleReset()"/>
   <use id="arrowup" xlink:href="#arrowUp" x="0" y="0" onmousedown="handlePan(0,-1)"/>
  <use id="arrowright" xlink:href="#arrowRight" x="0" y="0" onmousedown="handlePan(1,0)"/>
  <use id="arrowdown" xlink:href="#arrowDown" x="0" y="0" onmousedown="handlePan(0,1)"/>
  <use id="arrowleft" xlink:href="#arrowLeft" x="0" y="0" onmousedown="handlePan(-1,0)"/>
</g>
<svg viewBox="0 0 15 15" width="100%" height="30px" preserveAspectRatio="xMaxYMin meet">
 <g id="arrow_out" transform="scale(0.3 0.3)">
  <a xlink:href="main_8cpp_abf283a84783f5eafe559a45722f52a0e_cgraph_org.svg" target="_base">
   <rect id="button" ry="5" rx="5" y="6" x="6" height="38" width="38"
        fill="#f2f5e9" fill-opacity="0.5" stroke="#606060" stroke-width="1.0"/>
   <path id="arrow"
     d="M 11.500037,31.436501 C 11.940474,20.09759 22.043105,11.32322 32.158766,21.979434 L 37.068811,17.246167 C 37.068811,17.246167 37.088388,32 37.088388,32 L 22.160133,31.978069 C 22.160133,31.978069 26.997745,27.140456 26.997745,27.140456 C 18.528582,18.264221 13.291696,25.230495 11.500037,31.436501 z"
     style="fill:#404040;"/>
  </a>
 </g>
</svg>

<style type='text/css'>
<![CDATA[
[data-mouse-over-selected='false'] { opacity: 0.7; }
[data-mouse-over-selected='true']  { opacity: 1.0; }
]]>
</style>
<script type="application/ecmascript"><![CDATA[
document.addEventListener('DOMContentLoaded', (event) => {
  highlightEdges();
  highlightAdjacentNodes();
});
]]></script>
</svg>
