<?xml version="1.0" encoding="UTF-8" standalone="no"?>
<!DOCTYPE svg PUBLIC "-//W3C//DTD SVG 1.1//EN"
 "http://www.w3.org/Graphics/SVG/1.1/DTD/svg11.dtd">
<!-- Generated by graphviz version 2.43.0 (0)
 -->
<!-- Title: polyfem::compute_diplacement_grad Pages: 1 -->
<!--zoomable 521 -->

<svg id="main" version="1.1" xmlns="http://www.w3.org/2000/svg" xmlns:xlink="http://www.w3.org/1999/xlink" xml:space="preserve" onload="init(evt)">
<style type="text/css"><![CDATA[
.node, .edge {opacity: 0.7;}
.node.selected, .edge.selected {opacity: 1;}
.edge:hover path { stroke: red; }
.edge:hover polygon { stroke: red; fill: red; }
]]></style>

<defs>
  <circle id="rim" cx="0" cy="0" r="7"/>
  <circle id="rim2" cx="0" cy="0" r="3.5"/>
  <g id="zoomPlus">
    <use xlink:href="#rim" fill="#404040"><set attributeName="fill" to="#808080" begin="zoomplus.mouseover" end="zoomplus.mouseout"/></use>
    <path d="M-4,0h8M0,-4v8" fill="none" stroke="white" stroke-width="1.5" pointer-events="none"/>
  </g>
  <g id="zoomMin">
    <use xlink:href="#rim" fill="#404040"><set attributeName="fill" to="#808080" begin="zoomminus.mouseover" end="zoomminus.mouseout"/></use>
    <path d="M-4,0h8" fill="none" stroke="white" stroke-width="1.5" pointer-events="none"/>
  </g>
  <g id="arrowUp" transform="translate(30 24)">
    <use xlink:href="#rim"/>
    <path pointer-events="none" fill="none" stroke="white" stroke-width="1.5" d="M0,-3.0v7 M-2.5,-0.5L0,-3.0L2.5,-0.5"/>
  </g>
  <g id="arrowRight" transform="rotate(90) translate(36 -43)">
    <use xlink:href="#rim"/>
    <path pointer-events="none" fill="none" stroke="white" stroke-width="1.5" d="M0,-3.0v7 M-2.5,-0.5L0,-3.0L2.5,-0.5"/>
  </g>
  <g id="arrowDown" transform="rotate(180) translate(-30 -48)">
    <use xlink:href="#rim"/>
    <path pointer-events="none" fill="none" stroke="white" stroke-width="1.5" d="M0,-3.0v7 M-2.5,-0.5L0,-3.0L2.5,-0.5"/>
  </g>
  <g id="arrowLeft" transform="rotate(270) translate(-36 17)">
    <use xlink:href="#rim"/>
    <path pointer-events="none" fill="none" stroke="white" stroke-width="1.5" d="M0,-3.0v7 M-2.5,-0.5L0,-3.0L2.5,-0.5"/>
  </g>
  <g id="resetDef">
    <use xlink:href="#rim2" fill="#404040"><set attributeName="fill" to="#808080" begin="reset.mouseover" end="reset.mouseout"/></use>
  </g>
</defs>
<script type="application/ecmascript">
var viewWidth = 604;
var viewHeight = 521;
var sectionId = 'dynsection-1';
</script>
<script type="application/ecmascript" xlink:href="svg.min.js"/>
<svg id="graph" class="graph">
<g id="viewport">
<title>polyfem::compute_diplacement_grad</title>
<!-- Node1 -->
<g id="Node000001" class="node">
<title>Node1</title>
<g id="a_Node000001"><a xlink:title=" ">
<polygon fill="#999999" stroke="#666666" points="596,-266 397,-266 397,-247 596,-247 596,-266"/>
<text text-anchor="middle" x="496.5" y="-254" font-family="Helvetica,sans-Serif" font-size="10.00">polyfem::compute_diplacement_grad</text>
</a>
</g>
</g>
<!-- Node2 -->
<g id="Node000002" class="node">
<title>Node2</title>
<g id="a_Node000002"><a xlink:href="classpolyfem_1_1assembler_1_1_fixed_corotational.html#a9f8b766502ad83a7e9345d81cf2c5ecf" target="_top" xlink:title=" ">
<polygon fill="white" stroke="#666666" points="318.5,-513 193.5,-513 193.5,-472 318.5,-472 318.5,-513"/>
<text text-anchor="start" x="201.5" y="-501" font-family="Helvetica,sans-Serif" font-size="10.00">polyfem::assembler</text>
<text text-anchor="start" x="201.5" y="-490" font-family="Helvetica,sans-Serif" font-size="10.00">::FixedCorotational</text>
<text text-anchor="middle" x="256" y="-479" font-family="Helvetica,sans-Serif" font-size="10.00">::assign_stress_tensor</text>
</a>
</g>
</g>
<!-- Node1&#45;&gt;Node2 -->
<g id="edge1_Node000001_Node000002" class="edge">
<title>Node1&#45;&gt;Node2</title>
<g id="a_edge1_Node000001_Node000002"><a xlink:title=" ">
<path fill="none" stroke="#63b8ff" d="M488.52,-275.65C472.58,-316.64 429.5,-413.21 361,-463.5 348.61,-472.6 333.49,-478.84 318.65,-483.13"/>
<polygon fill="#63b8ff" stroke="#63b8ff" points="491.88,-276.66 492.14,-266.07 485.33,-274.19 491.88,-276.66"/>
</a>
</g>
</g>
<!-- Node4 -->
<g id="Node000004" class="node">
<title>Node4</title>
<g id="a_Node000004"><a xlink:href="classpolyfem_1_1assembler_1_1_hooke_linear_elasticity.html#a8e39b2fa1376df8ddcdaa09652f5b313" target="_top" xlink:title=" ">
<polygon fill="white" stroke="#666666" points="320,-454 192,-454 192,-413 320,-413 320,-454"/>
<text text-anchor="start" x="200" y="-442" font-family="Helvetica,sans-Serif" font-size="10.00">polyfem::assembler</text>
<text text-anchor="start" x="200" y="-431" font-family="Helvetica,sans-Serif" font-size="10.00">::HookeLinearElasticity</text>
<text text-anchor="middle" x="256" y="-420" font-family="Helvetica,sans-Serif" font-size="10.00">::assign_stress_tensor</text>
</a>
</g>
</g>
<!-- Node1&#45;&gt;Node4 -->
<g id="edge3_Node000001_Node000004" class="edge">
<title>Node1&#45;&gt;Node4</title>
<g id="a_edge3_Node000001_Node000004"><a xlink:title=" ">
<path fill="none" stroke="#63b8ff" d="M484,-274.78C463.3,-306.14 416.71,-370.15 361,-404.5 348.63,-412.12 334.22,-417.79 320.14,-421.98"/>
<polygon fill="#63b8ff" stroke="#63b8ff" points="487.08,-276.46 489.57,-266.16 481.2,-272.66 487.08,-276.46"/>
</a>
</g>
</g>
<!-- Node5 -->
<g id="Node000005" class="node">
<title>Node5</title>
<g id="a_Node000005"><a xlink:href="classpolyfem_1_1assembler_1_1_incompressible_linear_elasticity_dispacement.html#a60e20e2f9e48e07ccb73e137827db20c" target="_top" xlink:title=" ">
<polygon fill="white" stroke="#666666" points="350.5,-395 161.5,-395 161.5,-354 350.5,-354 350.5,-395"/>
<text text-anchor="start" x="169.5" y="-383" font-family="Helvetica,sans-Serif" font-size="10.00">polyfem::assembler</text>
<text text-anchor="start" x="169.5" y="-372" font-family="Helvetica,sans-Serif" font-size="10.00">::IncompressibleLinearElasticity</text>
<text text-anchor="middle" x="256" y="-361" font-family="Helvetica,sans-Serif" font-size="10.00">Dispacement::assign_stress_tensor</text>
</a>
</g>
</g>
<!-- Node1&#45;&gt;Node5 -->
<g id="edge5_Node000001_Node000005" class="edge">
<title>Node1&#45;&gt;Node5</title>
<g id="a_edge5_Node000001_Node000005"><a xlink:title=" ">
<path fill="none" stroke="#63b8ff" d="M475.6,-272.58C450.33,-292.3 404.75,-325.53 361,-345.5 354.26,-348.57 347.13,-351.39 339.88,-353.96"/>
<polygon fill="#63b8ff" stroke="#63b8ff" points="477.98,-275.17 483.65,-266.22 473.64,-269.67 477.98,-275.17"/>
</a>
</g>
</g>
<!-- Node6 -->
<g id="Node000006" class="node">
<title>Node6</title>
<g id="a_Node000006"><a xlink:href="classpolyfem_1_1assembler_1_1_linear_elasticity.html#a73b0200a86f253dd7e1cb70bb696041f" target="_top" xlink:title=" ">
<polygon fill="white" stroke="#666666" points="315.5,-336 196.5,-336 196.5,-295 315.5,-295 315.5,-336"/>
<text text-anchor="start" x="204.5" y="-324" font-family="Helvetica,sans-Serif" font-size="10.00">polyfem::assembler</text>
<text text-anchor="start" x="204.5" y="-313" font-family="Helvetica,sans-Serif" font-size="10.00">::LinearElasticity::</text>
<text text-anchor="middle" x="256" y="-302" font-family="Helvetica,sans-Serif" font-size="10.00">assign_stress_tensor</text>
</a>
</g>
</g>
<!-- Node1&#45;&gt;Node6 -->
<g id="edge6_Node000001_Node000006" class="edge">
<title>Node1&#45;&gt;Node6</title>
<g id="a_edge6_Node000001_Node000006"><a xlink:title=" ">
<path fill="none" stroke="#63b8ff" d="M447.11,-268.47C409.09,-277.87 356.01,-291.01 315.6,-301"/>
<polygon fill="#63b8ff" stroke="#63b8ff" points="448.05,-271.84 456.92,-266.04 446.37,-265.05 448.05,-271.84"/>
</a>
</g>
</g>
<!-- Node7 -->
<g id="Node000007" class="node">
<title>Node7</title>
<g id="a_Node000007"><a xlink:href="classpolyfem_1_1assembler_1_1_mooney_rivlin3_param_symbolic.html#af5693acfc8336d6856f4e32ddfcda866" target="_top" xlink:title=" ">
<polygon fill="white" stroke="#666666" points="341.5,-277 170.5,-277 170.5,-236 341.5,-236 341.5,-277"/>
<text text-anchor="start" x="178.5" y="-265" font-family="Helvetica,sans-Serif" font-size="10.00">polyfem::assembler</text>
<text text-anchor="start" x="178.5" y="-254" font-family="Helvetica,sans-Serif" font-size="10.00">::MooneyRivlin3ParamSymbolic</text>
<text text-anchor="middle" x="256" y="-243" font-family="Helvetica,sans-Serif" font-size="10.00">::assign_stress_tensor</text>
</a>
</g>
</g>
<!-- Node1&#45;&gt;Node7 -->
<g id="edge8_Node000001_Node000007" class="edge">
<title>Node1&#45;&gt;Node7</title>
<g id="a_edge8_Node000001_Node000007"><a xlink:title=" ">
<path fill="none" stroke="#63b8ff" d="M386.4,-256.5C371.36,-256.5 356.11,-256.5 341.6,-256.5"/>
<polygon fill="#63b8ff" stroke="#63b8ff" points="386.77,-260 396.77,-256.5 386.77,-253 386.77,-260"/>
</a>
</g>
</g>
<!-- Node8 -->
<g id="Node000008" class="node">
<title>Node8</title>
<g id="a_Node000008"><a xlink:href="classpolyfem_1_1assembler_1_1_neo_hookean_elasticity.html#a924a4d34d3f3e07d952e32158a91519b" target="_top" xlink:title=" ">
<polygon fill="white" stroke="#666666" points="321,-218 191,-218 191,-177 321,-177 321,-218"/>
<text text-anchor="start" x="199" y="-206" font-family="Helvetica,sans-Serif" font-size="10.00">polyfem::assembler</text>
<text text-anchor="start" x="199" y="-195" font-family="Helvetica,sans-Serif" font-size="10.00">::NeoHookeanElasticity</text>
<text text-anchor="middle" x="256" y="-184" font-family="Helvetica,sans-Serif" font-size="10.00">::assign_stress_tensor</text>
</a>
</g>
</g>
<!-- Node1&#45;&gt;Node8 -->
<g id="edge9_Node000001_Node000008" class="edge">
<title>Node1&#45;&gt;Node8</title>
<g id="a_edge9_Node000001_Node000008"><a xlink:title=" ">
<path fill="none" stroke="#63b8ff" d="M447.06,-244.52C410.77,-235.54 360.75,-223.17 321.14,-213.37"/>
<polygon fill="#63b8ff" stroke="#63b8ff" points="446.37,-247.95 456.92,-246.96 448.05,-241.16 446.37,-247.95"/>
</a>
</g>
</g>
<!-- Node9 -->
<g id="Node000009" class="node">
<title>Node9</title>
<g id="a_Node000009"><a xlink:href="classpolyfem_1_1assembler_1_1_saint_venant_elasticity.html#ad9229f650690cd16f0e0eff90c5653f0" target="_top" xlink:title=" ">
<polygon fill="white" stroke="#666666" points="319,-159 193,-159 193,-118 319,-118 319,-159"/>
<text text-anchor="start" x="201" y="-147" font-family="Helvetica,sans-Serif" font-size="10.00">polyfem::assembler</text>
<text text-anchor="start" x="201" y="-136" font-family="Helvetica,sans-Serif" font-size="10.00">::SaintVenantElasticity</text>
<text text-anchor="middle" x="256" y="-125" font-family="Helvetica,sans-Serif" font-size="10.00">::assign_stress_tensor</text>
</a>
</g>
</g>
<!-- Node1&#45;&gt;Node9 -->
<g id="edge11_Node000001_Node000009" class="edge">
<title>Node1&#45;&gt;Node9</title>
<g id="a_edge11_Node000001_Node000009"><a xlink:title=" ">
<path fill="none" stroke="#63b8ff" d="M475.54,-240.67C450.21,-221.26 404.56,-188.48 361,-168.5 347.85,-162.47 333.2,-157.35 319.14,-153.14"/>
<polygon fill="#63b8ff" stroke="#63b8ff" points="473.57,-243.57 483.62,-246.94 477.86,-238.04 473.57,-243.57"/>
</a>
</g>
</g>
<!-- Node10 -->
<g id="Node000010" class="node">
<title>Node10</title>
<g id="a_Node000010"><a xlink:href="classpolyfem_1_1assembler_1_1_neo_hookean_elasticity.html#affc7f6362343c3c2e1c3d432e99a7c61" target="_top" xlink:title=" ">
<polygon fill="white" stroke="#666666" points="328,-100 184,-100 184,-59 328,-59 328,-100"/>
<text text-anchor="start" x="192" y="-88" font-family="Helvetica,sans-Serif" font-size="10.00">polyfem::assembler</text>
<text text-anchor="start" x="192" y="-77" font-family="Helvetica,sans-Serif" font-size="10.00">::NeoHookeanElasticity</text>
<text text-anchor="middle" x="256" y="-66" font-family="Helvetica,sans-Serif" font-size="10.00">::compute_stiffness_value</text>
</a>
</g>
</g>
<!-- Node1&#45;&gt;Node10 -->
<g id="edge13_Node000001_Node000010" class="edge">
<title>Node1&#45;&gt;Node10</title>
<g id="a_edge13_Node000001_Node000010"><a xlink:title=" ">
<path fill="none" stroke="#63b8ff" d="M483.93,-238.4C463.14,-207.33 416.41,-143.88 361,-109.5 350.94,-103.26 339.53,-98.27 328.05,-94.3"/>
<polygon fill="#63b8ff" stroke="#63b8ff" points="481.12,-240.49 489.54,-246.93 486.98,-236.65 481.12,-240.49"/>
</a>
</g>
</g>
<!-- Node11 -->
<g id="Node000011" class="node">
<title>Node11</title>
<g id="a_Node000011"><a xlink:href="classpolyfem_1_1assembler_1_1_generic_elastic.html#aa4a09d8fc0e21703436537b198dd37ae" target="_top" xlink:title=" ">
<polygon fill="white" stroke="#666666" points="361,-41 151,-41 151,0 361,0 361,-41"/>
<text text-anchor="start" x="159" y="-29" font-family="Helvetica,sans-Serif" font-size="10.00">polyfem::assembler</text>
<text text-anchor="start" x="159" y="-18" font-family="Helvetica,sans-Serif" font-size="10.00">::GenericElastic&lt; AMIPSEnergy</text>
<text text-anchor="middle" x="256" y="-7" font-family="Helvetica,sans-Serif" font-size="10.00"> &gt;::compute_stress_grad_multiply_vect</text>
</a>
</g>
</g>
<!-- Node1&#45;&gt;Node11 -->
<g id="edge14_Node000001_Node000011" class="edge">
<title>Node1&#45;&gt;Node11</title>
<g id="a_edge14_Node000001_Node000011"><a xlink:title=" ">
<path fill="none" stroke="#63b8ff" d="M488.34,-237.18C472.18,-196.3 428.93,-100.72 361,-50.5 356.16,-46.93 350.91,-43.78 345.42,-41"/>
<polygon fill="#63b8ff" stroke="#63b8ff" points="485.08,-238.46 491.94,-246.54 491.61,-235.95 485.08,-238.46"/>
</a>
</g>
</g>
<!-- Node3 -->
<g id="Node000003" class="node">
<title>Node3</title>
<g id="a_Node000003"><a xlink:href="classpolyfem_1_1assembler_1_1_multi_model.html#ab242fe537541a4cfdb4698754a026fa0" target="_top" xlink:title=" ">
<polygon fill="white" stroke="#666666" points="115,-336 0,-336 0,-295 115,-295 115,-336"/>
<text text-anchor="start" x="8" y="-324" font-family="Helvetica,sans-Serif" font-size="10.00">polyfem::assembler</text>
<text text-anchor="start" x="8" y="-313" font-family="Helvetica,sans-Serif" font-size="10.00">::MultiModel::assign</text>
<text text-anchor="middle" x="57.5" y="-302" font-family="Helvetica,sans-Serif" font-size="10.00">_stress_tensor</text>
</a>
</g>
</g>
<!-- Node2&#45;&gt;Node3 -->
<g id="edge2_Node000002_Node000003" class="edge">
<title>Node2&#45;&gt;Node3</title>
<g id="a_edge2_Node000002_Node000003"><a xlink:title=" ">
<path fill="none" stroke="#63b8ff" d="M183.5,-480.17C171.93,-476.1 160.62,-470.69 151,-463.5 106.35,-430.11 78.1,-368.26 65.74,-336.11"/>
<polygon fill="#63b8ff" stroke="#63b8ff" points="182.64,-483.57 193.24,-483.28 184.77,-476.9 182.64,-483.57"/>
</a>
</g>
</g>
<!-- Node4&#45;&gt;Node3 -->
<g id="edge4_Node000004_Node000003" class="edge">
<title>Node4&#45;&gt;Node3</title>
<g id="a_edge4_Node000004_Node000003"><a xlink:title=" ">
<path fill="none" stroke="#63b8ff" d="M182.39,-418.26C171.5,-414.57 160.69,-410.04 151,-404.5 120.04,-386.81 91.65,-356.47 74.71,-336.2"/>
<polygon fill="#63b8ff" stroke="#63b8ff" points="181.36,-421.6 191.95,-421.29 183.48,-414.93 181.36,-421.6"/>
</a>
</g>
</g>
<!-- Node6&#45;&gt;Node3 -->
<g id="edge7_Node000006_Node000003" class="edge">
<title>Node6&#45;&gt;Node3</title>
<g id="a_edge7_Node000006_Node000003"><a xlink:title=" ">
<path fill="none" stroke="#63b8ff" d="M186.19,-315.5C162.98,-315.5 137.36,-315.5 115.2,-315.5"/>
<polygon fill="#63b8ff" stroke="#63b8ff" points="186.31,-319 196.31,-315.5 186.31,-312 186.31,-319"/>
</a>
</g>
</g>
<!-- Node8&#45;&gt;Node3 -->
<g id="edge10_Node000008_Node000003" class="edge">
<title>Node8&#45;&gt;Node3</title>
<g id="a_edge10_Node000008_Node000003"><a xlink:title=" ">
<path fill="none" stroke="#63b8ff" d="M181.25,-213.96C170.75,-217.66 160.36,-222.13 151,-227.5 120.43,-245.03 92.15,-274.73 75.11,-294.72"/>
<polygon fill="#63b8ff" stroke="#63b8ff" points="182.49,-217.23 190.88,-210.77 180.29,-210.59 182.49,-217.23"/>
</a>
</g>
</g>
<!-- Node9&#45;&gt;Node3 -->
<g id="edge12_Node000009_Node000003" class="edge">
<title>Node9&#45;&gt;Node3</title>
<g id="a_edge12_Node000009_Node000003"><a xlink:title=" ">
<path fill="none" stroke="#63b8ff" d="M183.29,-151.68C171.8,-155.84 160.56,-161.31 151,-168.5 106.78,-201.76 78.43,-262.87 65.92,-294.81"/>
<polygon fill="#63b8ff" stroke="#63b8ff" points="184.57,-154.94 192.97,-148.48 182.38,-148.29 184.57,-154.94"/>
</a>
</g>
</g>
</g>
</svg>

<g id="navigator" transform="translate(0 0)" fill="#404254">
  <rect fill="#f2f5e9" fill-opacity="0.5" stroke="#606060" stroke-width=".5" x="0" y="0" width="60" height="60"/>
  <use id="zoomplus" xlink:href="#zoomPlus" x="17" y="9" onmousedown="handleZoom(evt,'in')"/>
  <use id="zoomminus" xlink:href="#zoomMin" x="42" y="9" onmousedown="handleZoom(evt,'out')"/>
  <use id="reset" xlink:href="#resetDef" x="30" y="36" onmousedown="handleReset()"/>
   <use id="arrowup" xlink:href="#arrowUp" x="0" y="0" onmousedown="handlePan(0,-1)"/>
  <use id="arrowright" xlink:href="#arrowRight" x="0" y="0" onmousedown="handlePan(1,0)"/>
  <use id="arrowdown" xlink:href="#arrowDown" x="0" y="0" onmousedown="handlePan(0,1)"/>
  <use id="arrowleft" xlink:href="#arrowLeft" x="0" y="0" onmousedown="handlePan(-1,0)"/>
</g>
<svg viewBox="0 0 15 15" width="100%" height="30px" preserveAspectRatio="xMaxYMin meet">
 <g id="arrow_out" transform="scale(0.3 0.3)">
  <a xlink:href="namespacepolyfem_a9c92d8a4b1a73baab24a2ecef44f9440_icgraph_org.svg" target="_base">
   <rect id="button" ry="5" rx="5" y="6" x="6" height="38" width="38"
        fill="#f2f5e9" fill-opacity="0.5" stroke="#606060" stroke-width="1.0"/>
   <path id="arrow"
     d="M 11.500037,31.436501 C 11.940474,20.09759 22.043105,11.32322 32.158766,21.979434 L 37.068811,17.246167 C 37.068811,17.246167 37.088388,32 37.088388,32 L 22.160133,31.978069 C 22.160133,31.978069 26.997745,27.140456 26.997745,27.140456 C 18.528582,18.264221 13.291696,25.230495 11.500037,31.436501 z"
     style="fill:#404040;"/>
  </a>
 </g>
</svg>

<style type='text/css'>
<![CDATA[
[data-mouse-over-selected='false'] { opacity: 0.7; }
[data-mouse-over-selected='true']  { opacity: 1.0; }
]]>
</style>
<script type="application/ecmascript"><![CDATA[
document.addEventListener('DOMContentLoaded', (event) => {
  highlightEdges();
  highlightAdjacentNodes();
});
]]></script>
</svg>
