<?xml version="1.0" encoding="UTF-8" standalone="no"?>
<!DOCTYPE svg PUBLIC "-//W3C//DTD SVG 1.1//EN"
 "http://www.w3.org/Graphics/SVG/1.1/DTD/svg11.dtd">
<!-- Generated by graphviz version 2.43.0 (0)
 -->
<!-- Title: polyfem::utils::json_as_array Pages: 1 -->
<svg width="1131pt" height="448pt"
 viewBox="0.00 0.00 1131.00 447.50" xmlns="http://www.w3.org/2000/svg" xmlns:xlink="http://www.w3.org/1999/xlink">
<g id="graph0" class="graph" transform="scale(1 1) rotate(0) translate(4 443.5)">
<title>polyfem::utils::json_as_array</title>
<!-- Node1 -->
<g id="Node000001" class="node">
<title>Node1</title>
<g id="a_Node000001"><a xlink:title="Return the value of a json object as an array.">
<polygon fill="#999999" stroke="#666666" points="1123,-207 1013,-207 1013,-177 1123,-177 1123,-207"/>
<text text-anchor="start" x="1021" y="-195" font-family="Helvetica,sans-Serif" font-size="10.00">polyfem::utils::json</text>
<text text-anchor="middle" x="1068" y="-184" font-family="Helvetica,sans-Serif" font-size="10.00">_as_array</text>
</a>
</g>
</g>
<!-- Node2 -->
<g id="Node000002" class="node">
<title>Node2</title>
<g id="a_Node000002"><a xlink:href="classpolyfem_1_1assembler_1_1_generic_mat_params.html#af2811b7c60785a60ef2d0b12fae2af41" target="_top" xlink:title=" ">
<polygon fill="white" stroke="#666666" points="949.5,-405.5 828.5,-405.5 828.5,-364.5 949.5,-364.5 949.5,-405.5"/>
<text text-anchor="start" x="836.5" y="-393.5" font-family="Helvetica,sans-Serif" font-size="10.00">polyfem::assembler</text>
<text text-anchor="start" x="836.5" y="-382.5" font-family="Helvetica,sans-Serif" font-size="10.00">::GenericMatParams::</text>
<text text-anchor="middle" x="889" y="-371.5" font-family="Helvetica,sans-Serif" font-size="10.00">add_multimaterial</text>
</a>
</g>
</g>
<!-- Node1&#45;&gt;Node2 -->
<g id="edge1_Node000001_Node000002" class="edge">
<title>Node1&#45;&gt;Node2</title>
<g id="a_edge1_Node000001_Node000002"><a xlink:title=" ">
<path fill="none" stroke="#63b8ff" d="M1059.55,-217.08C1047.73,-252.69 1021.36,-317.7 977,-355 969.05,-361.68 959.53,-366.91 949.75,-370.98"/>
<polygon fill="#63b8ff" stroke="#63b8ff" points="1062.92,-218.04 1062.63,-207.45 1056.25,-215.91 1062.92,-218.04"/>
</a>
</g>
</g>
<!-- Node5 -->
<g id="Node000005" class="node">
<title>Node5</title>
<g id="a_Node000005"><a xlink:href="classpolyfem_1_1_state.html#a6df6618f807ad1f1e9a2f5f9dc55303b" target="_top" xlink:title="Construct a vector of boundary conditions ids with their dimension flags.">
<polygon fill="white" stroke="#666666" points="959,-346 819,-346 819,-316 959,-316 959,-346"/>
<text text-anchor="start" x="827" y="-334" font-family="Helvetica,sans-Serif" font-size="10.00">polyfem::State::boundary</text>
<text text-anchor="middle" x="889" y="-323" font-family="Helvetica,sans-Serif" font-size="10.00">_conditions_ids</text>
</a>
</g>
</g>
<!-- Node1&#45;&gt;Node5 -->
<g id="edge4_Node000001_Node000005" class="edge">
<title>Node1&#45;&gt;Node5</title>
<g id="a_edge4_Node000001_Node000005"><a xlink:title=" ">
<path fill="none" stroke="#63b8ff" d="M1054.34,-216.15C1039.35,-242.4 1011.95,-283.71 977,-307 971.52,-310.65 965.5,-313.75 959.26,-316.38"/>
<polygon fill="#63b8ff" stroke="#63b8ff" points="1057.5,-217.67 1059.29,-207.23 1051.38,-214.27 1057.5,-217.67"/>
</a>
</g>
</g>
<!-- Node6 -->
<g id="Node000006" class="node">
<title>Node6</title>
<g id="a_Node000006"><a xlink:href="classpolyfem_1_1_state.html#a0dfe8b477867a13f17afb35bd4309508" target="_top" xlink:title="extracts the boundary mesh for collision, called in build_basis">
<polygon fill="white" stroke="#666666" points="948.5,-298 829.5,-298 829.5,-268 948.5,-268 948.5,-298"/>
<text text-anchor="start" x="837.5" y="-286" font-family="Helvetica,sans-Serif" font-size="10.00">polyfem::State::build</text>
<text text-anchor="middle" x="889" y="-275" font-family="Helvetica,sans-Serif" font-size="10.00">_collision_mesh</text>
</a>
</g>
</g>
<!-- Node1&#45;&gt;Node6 -->
<g id="edge5_Node000001_Node000006" class="edge">
<title>Node1&#45;&gt;Node6</title>
<g id="a_edge5_Node000001_Node000006"><a xlink:title=" ">
<path fill="none" stroke="#63b8ff" d="M1042.79,-213.95C1025.54,-228.55 1001.21,-247.17 977,-259 968.13,-263.33 958.36,-266.99 948.66,-270.04"/>
<polygon fill="#63b8ff" stroke="#63b8ff" points="1045.38,-216.33 1050.66,-207.14 1040.8,-211.04 1045.38,-216.33"/>
</a>
</g>
</g>
<!-- Node7 -->
<g id="Node000007" class="node">
<title>Node7</title>
<g id="a_Node000007"><a xlink:href="classpolyfem_1_1solver_1_1_solve_data.html#ad1a31008537de25de9eceff7133ab519" target="_top" xlink:title="Initialize the forms and return a vector of pointers to them.">
<polygon fill="white" stroke="#666666" points="963.5,-250 814.5,-250 814.5,-220 963.5,-220 963.5,-250"/>
<text text-anchor="start" x="822.5" y="-238" font-family="Helvetica,sans-Serif" font-size="10.00">polyfem::solver::SolveData</text>
<text text-anchor="middle" x="889" y="-227" font-family="Helvetica,sans-Serif" font-size="10.00">::init_forms</text>
</a>
</g>
</g>
<!-- Node1&#45;&gt;Node7 -->
<g id="edge6_Node000001_Node000007" class="edge">
<title>Node1&#45;&gt;Node7</title>
<g id="a_edge6_Node000001_Node000007"><a xlink:title=" ">
<path fill="none" stroke="#63b8ff" d="M1002.77,-207.6C986.14,-211.64 968.28,-215.98 951.79,-219.99"/>
<polygon fill="#63b8ff" stroke="#63b8ff" points="1004.04,-210.9 1012.93,-205.14 1002.39,-204.09 1004.04,-210.9"/>
</a>
</g>
</g>
<!-- Node16 -->
<g id="Node000016" class="node">
<title>Node16</title>
<g id="a_Node000016"><a xlink:href="classpolyfem_1_1_state.html#a37cc0825d6cd66410b5c1a0c46778a9f" target="_top" xlink:title="loads the mesh from the json arguments">
<polygon fill="white" stroke="#666666" points="752.5,-158.5 604.5,-158.5 604.5,-139.5 752.5,-139.5 752.5,-158.5"/>
<text text-anchor="middle" x="678.5" y="-146.5" font-family="Helvetica,sans-Serif" font-size="10.00">polyfem::State::load_mesh</text>
</a>
</g>
</g>
<!-- Node1&#45;&gt;Node16 -->
<g id="edge17_Node000001_Node000016" class="edge">
<title>Node1&#45;&gt;Node16</title>
<g id="a_edge17_Node000001_Node000016"><a xlink:title=" ">
<path fill="none" stroke="#63b8ff" d="M1002.68,-189.64C948.66,-187.12 869.54,-182.18 801,-173 774.25,-169.42 744.53,-163.58 721.18,-158.56"/>
<polygon fill="#63b8ff" stroke="#63b8ff" points="1002.65,-193.14 1012.8,-190.09 1002.97,-186.15 1002.65,-193.14"/>
</a>
</g>
</g>
<!-- Node18 -->
<g id="Node000018" class="node">
<title>Node18</title>
<g id="a_Node000018"><a xlink:href="classpolyfem_1_1_state.html#ac4b4c624e46a71afeb97d56c50190eb3" target="_top" xlink:title="loads the mesh from a geogram mesh">
<polygon fill="white" stroke="#666666" points="752.5,-89.5 604.5,-89.5 604.5,-70.5 752.5,-70.5 752.5,-89.5"/>
<text text-anchor="middle" x="678.5" y="-77.5" font-family="Helvetica,sans-Serif" font-size="10.00">polyfem::State::load_mesh</text>
</a>
</g>
</g>
<!-- Node1&#45;&gt;Node18 -->
<g id="edge20_Node000001_Node000018" class="edge">
<title>Node1&#45;&gt;Node18</title>
<g id="a_edge20_Node000001_Node000018"><a xlink:title=" ">
<path fill="none" stroke="#63b8ff" d="M1056.24,-167.72C1042.42,-139.91 1015.53,-95.77 977,-77 889.7,-34.47 770.18,-56.02 712.84,-70.47"/>
<polygon fill="#63b8ff" stroke="#63b8ff" points="1053.12,-169.29 1060.58,-176.8 1059.43,-166.27 1053.12,-169.29"/>
</a>
</g>
</g>
<!-- Node19 -->
<g id="Node000019" class="node">
<title>Node19</title>
<g id="a_Node000019"><a xlink:href="namespacepolyfem_1_1mesh.html#a72e21b96b5cdfa9d82fe80b56a4151be" target="_top" xlink:title="read FEM meshes from a geometry JSON array (or single)">
<polygon fill="white" stroke="#666666" points="948,-164 830,-164 830,-134 948,-134 948,-164"/>
<text text-anchor="start" x="838" y="-152" font-family="Helvetica,sans-Serif" font-size="10.00">polyfem::mesh::read</text>
<text text-anchor="middle" x="889" y="-141" font-family="Helvetica,sans-Serif" font-size="10.00">_fem_geometry</text>
</a>
</g>
</g>
<!-- Node1&#45;&gt;Node19 -->
<g id="edge21_Node000001_Node000019" class="edge">
<title>Node1&#45;&gt;Node19</title>
<g id="a_edge21_Node000001_Node000019"><a xlink:title=" ">
<path fill="none" stroke="#63b8ff" d="M1003.11,-176.48C985.13,-172.11 965.67,-167.38 948.04,-163.1"/>
<polygon fill="#63b8ff" stroke="#63b8ff" points="1002.39,-179.91 1012.93,-178.86 1004.04,-173.1 1002.39,-179.91"/>
</a>
</g>
</g>
<!-- Node20 -->
<g id="Node000020" class="node">
<title>Node20</title>
<g id="a_Node000020"><a xlink:href="namespacepolyfem_1_1mesh.html#a47496a714e0b233ab918bfbbe7c4626f" target="_top" xlink:title="read a FEM mesh from a geometry JSON">
<polygon fill="white" stroke="#666666" points="948,-116 830,-116 830,-86 948,-86 948,-116"/>
<text text-anchor="start" x="838" y="-104" font-family="Helvetica,sans-Serif" font-size="10.00">polyfem::mesh::read</text>
<text text-anchor="middle" x="889" y="-93" font-family="Helvetica,sans-Serif" font-size="10.00">_obstacle_geometry</text>
</a>
</g>
</g>
<!-- Node1&#45;&gt;Node20 -->
<g id="edge23_Node000001_Node000020" class="edge">
<title>Node1&#45;&gt;Node20</title>
<g id="a_edge23_Node000001_Node000020"><a xlink:title=" ">
<path fill="none" stroke="#63b8ff" d="M1042.79,-170.05C1025.54,-155.45 1001.21,-136.83 977,-125 967.99,-120.6 958.05,-116.9 948.2,-113.82"/>
<polygon fill="#63b8ff" stroke="#63b8ff" points="1040.8,-172.96 1050.66,-176.86 1045.38,-167.67 1040.8,-172.96"/>
</a>
</g>
</g>
<!-- Node21 -->
<g id="Node000021" class="node">
<title>Node21</title>
<g id="a_Node000021"><a xlink:href="classpolyfem_1_1problem_1_1_node_problem.html#a30ca35f99b5f7ac0192c988d3fec3169" target="_top" xlink:title=" ">
<polygon fill="white" stroke="#666666" points="977,-30 801,-30 801,0 977,0 977,-30"/>
<text text-anchor="start" x="809" y="-18" font-family="Helvetica,sans-Serif" font-size="10.00">polyfem::problem::NodeProblem</text>
<text text-anchor="middle" x="889" y="-7" font-family="Helvetica,sans-Serif" font-size="10.00">::set_parameters</text>
</a>
</g>
</g>
<!-- Node1&#45;&gt;Node21 -->
<g id="edge26_Node000001_Node000021" class="edge">
<title>Node1&#45;&gt;Node21</title>
<g id="a_edge26_Node000001_Node000021"><a xlink:title=" ">
<path fill="none" stroke="#63b8ff" d="M1058.04,-166.81C1045.11,-133.96 1018.16,-76.82 977,-44 969.9,-38.34 961.66,-33.77 953.12,-30.07"/>
<polygon fill="#63b8ff" stroke="#63b8ff" points="1054.92,-168.46 1061.75,-176.56 1061.47,-165.97 1054.92,-168.46"/>
</a>
</g>
</g>
<!-- Node3 -->
<g id="Node000003" class="node">
<title>Node3</title>
<g id="a_Node000003"><a xlink:href="classpolyfem_1_1assembler_1_1_unconstrained_ogden_elasticity.html#a83090787fa8c8e22c5b390f483076235" target="_top" xlink:title=" ">
<polygon fill="white" stroke="#666666" points="763.5,-439.5 593.5,-439.5 593.5,-398.5 763.5,-398.5 763.5,-439.5"/>
<text text-anchor="start" x="601.5" y="-427.5" font-family="Helvetica,sans-Serif" font-size="10.00">polyfem::assembler</text>
<text text-anchor="start" x="601.5" y="-416.5" font-family="Helvetica,sans-Serif" font-size="10.00">::UnconstrainedOgdenElasticity</text>
<text text-anchor="middle" x="678.5" y="-405.5" font-family="Helvetica,sans-Serif" font-size="10.00">::add_multimaterial</text>
</a>
</g>
</g>
<!-- Node2&#45;&gt;Node3 -->
<g id="edge2_Node000002_Node000003" class="edge">
<title>Node2&#45;&gt;Node3</title>
<g id="a_edge2_Node000002_Node000003"><a xlink:title=" ">
<path fill="none" stroke="#63b8ff" d="M818.16,-396.39C800.7,-399.24 781.8,-402.32 763.73,-405.27"/>
<polygon fill="#63b8ff" stroke="#63b8ff" points="818.95,-399.81 828.25,-394.74 817.82,-392.9 818.95,-399.81"/>
</a>
</g>
</g>
<!-- Node4 -->
<g id="Node000004" class="node">
<title>Node4</title>
<g id="a_Node000004"><a xlink:href="classpolyfem_1_1assembler_1_1_incompressible_ogden_elasticity.html#a04f64130fdf79c1d48264bd6d869c951" target="_top" xlink:title=" ">
<polygon fill="white" stroke="#666666" points="765,-380.5 592,-380.5 592,-339.5 765,-339.5 765,-380.5"/>
<text text-anchor="start" x="600" y="-368.5" font-family="Helvetica,sans-Serif" font-size="10.00">polyfem::assembler</text>
<text text-anchor="start" x="600" y="-357.5" font-family="Helvetica,sans-Serif" font-size="10.00">::IncompressibleOgdenElasticity</text>
<text text-anchor="middle" x="678.5" y="-346.5" font-family="Helvetica,sans-Serif" font-size="10.00">::add_multimaterial</text>
</a>
</g>
</g>
<!-- Node2&#45;&gt;Node4 -->
<g id="edge3_Node000002_Node000004" class="edge">
<title>Node2&#45;&gt;Node4</title>
<g id="a_edge3_Node000002_Node000004"><a xlink:title=" ">
<path fill="none" stroke="#63b8ff" d="M817.93,-376.6C801.04,-374.57 782.8,-372.39 765.28,-370.29"/>
<polygon fill="#63b8ff" stroke="#63b8ff" points="817.91,-380.12 828.25,-377.84 818.74,-373.17 817.91,-380.12"/>
</a>
</g>
</g>
<!-- Node8 -->
<g id="Node000008" class="node">
<title>Node8</title>
<g id="a_Node000008"><a xlink:href="classpolyfem_1_1_state.html#aff8fe0ab67886249fcb30534a0d946b2" target="_top" xlink:title=" ">
<polygon fill="white" stroke="#666666" points="744.5,-295 612.5,-295 612.5,-265 744.5,-265 744.5,-295"/>
<text text-anchor="start" x="620.5" y="-283" font-family="Helvetica,sans-Serif" font-size="10.00">polyfem::State::init</text>
<text text-anchor="middle" x="678.5" y="-272" font-family="Helvetica,sans-Serif" font-size="10.00">_homogenization_solve</text>
</a>
</g>
</g>
<!-- Node7&#45;&gt;Node8 -->
<g id="edge7_Node000007_Node000008" class="edge">
<title>Node7&#45;&gt;Node8</title>
<g id="a_edge7_Node000007_Node000008"><a xlink:title=" ">
<path fill="none" stroke="#63b8ff" d="M808.39,-252.18C787.3,-256.73 764.79,-261.59 744.57,-265.96"/>
<polygon fill="#63b8ff" stroke="#63b8ff" points="809.25,-255.58 818.28,-250.05 807.77,-248.74 809.25,-255.58"/>
</a>
</g>
</g>
<!-- Node14 -->
<g id="Node000014" class="node">
<title>Node14</title>
<g id="a_Node000014"><a xlink:href="classpolyfem_1_1_state.html#ad41d92c2bae6e7027d8f33e02a017c8a" target="_top" xlink:title="initialize the nonlinear solver">
<polygon fill="white" stroke="#666666" points="746,-247 611,-247 611,-217 746,-217 746,-247"/>
<text text-anchor="start" x="619" y="-235" font-family="Helvetica,sans-Serif" font-size="10.00">polyfem::State::init</text>
<text text-anchor="middle" x="678.5" y="-224" font-family="Helvetica,sans-Serif" font-size="10.00">_nonlinear_tensor_solve</text>
</a>
</g>
</g>
<!-- Node7&#45;&gt;Node14 -->
<g id="edge13_Node000007_Node000014" class="edge">
<title>Node7&#45;&gt;Node14</title>
<g id="a_edge13_Node000007_Node000014"><a xlink:title=" ">
<path fill="none" stroke="#63b8ff" d="M804.45,-233.8C785.05,-233.52 764.65,-233.23 746.09,-232.96"/>
<polygon fill="#63b8ff" stroke="#63b8ff" points="804.44,-237.3 814.49,-233.94 804.54,-230.3 804.44,-237.3"/>
</a>
</g>
</g>
<!-- Node9 -->
<g id="Node000009" class="node">
<title>Node9</title>
<g id="a_Node000009"><a xlink:href="classpolyfem_1_1_state.html#af575faba770a261cb0398a98f0a752b9" target="_top" xlink:title=" ">
<polygon fill="white" stroke="#666666" points="540.5,-295 419.5,-295 419.5,-265 540.5,-265 540.5,-295"/>
<text text-anchor="start" x="427.5" y="-283" font-family="Helvetica,sans-Serif" font-size="10.00">polyfem::State::solve</text>
<text text-anchor="middle" x="480" y="-272" font-family="Helvetica,sans-Serif" font-size="10.00">_homogenization</text>
</a>
</g>
</g>
<!-- Node8&#45;&gt;Node9 -->
<g id="edge8_Node000008_Node000009" class="edge">
<title>Node8&#45;&gt;Node9</title>
<g id="a_edge8_Node000008_Node000009"><a xlink:title=" ">
<path fill="none" stroke="#63b8ff" d="M602.16,-280C581.8,-280 560.05,-280 540.68,-280"/>
<polygon fill="#63b8ff" stroke="#63b8ff" points="602.34,-283.5 612.34,-280 602.34,-276.5 602.34,-283.5"/>
</a>
</g>
</g>
<!-- Node10 -->
<g id="Node000010" class="node">
<title>Node10</title>
<g id="a_Node000010"><a xlink:href="classpolyfem_1_1_state.html#aa8dffa9c5caf8ca5082a6814e1c8ed36" target="_top" xlink:title="solves the problems">
<polygon fill="white" stroke="#666666" points="368,-230 247,-230 247,-200 368,-200 368,-230"/>
<text text-anchor="start" x="255" y="-218" font-family="Helvetica,sans-Serif" font-size="10.00">polyfem::State::solve</text>
<text text-anchor="middle" x="307.5" y="-207" font-family="Helvetica,sans-Serif" font-size="10.00">_problem</text>
</a>
</g>
</g>
<!-- Node9&#45;&gt;Node10 -->
<g id="edge9_Node000009_Node000010" class="edge">
<title>Node9&#45;&gt;Node10</title>
<g id="a_edge9_Node000009_Node000010"><a xlink:title=" ">
<path fill="none" stroke="#63b8ff" d="M429.81,-261.25C403.87,-251.36 372.48,-239.39 348.13,-230.11"/>
<polygon fill="#63b8ff" stroke="#63b8ff" points="428.86,-264.63 439.46,-264.92 431.36,-258.09 428.86,-264.63"/>
</a>
</g>
</g>
<!-- Node11 -->
<g id="Node000011" class="node">
<title>Node11</title>
<g id="a_Node000011"><a xlink:href="main_8cpp.html#aec889c702a246ad7f332c75ab7adb438" target="_top" xlink:title=" ">
<polygon fill="white" stroke="#666666" points="199.5,-181.5 88.5,-181.5 88.5,-162.5 199.5,-162.5 199.5,-181.5"/>
<text text-anchor="middle" x="144" y="-169.5" font-family="Helvetica,sans-Serif" font-size="10.00">forward_simulation</text>
</a>
</g>
</g>
<!-- Node10&#45;&gt;Node11 -->
<g id="edge10_Node000010_Node000011" class="edge">
<title>Node10&#45;&gt;Node11</title>
<g id="a_edge10_Node000010_Node000011"><a xlink:title=" ">
<path fill="none" stroke="#63b8ff" d="M240.2,-197.35C219.95,-191.95 198.44,-186.23 181.01,-181.59"/>
<polygon fill="#63b8ff" stroke="#63b8ff" points="239.45,-200.77 250.02,-199.96 241.25,-194.01 239.45,-200.77"/>
</a>
</g>
</g>
<!-- Node13 -->
<g id="Node000013" class="node">
<title>Node13</title>
<g id="a_Node000013"><a xlink:href="structpolyfem_1_1solver_1_1_adjoint_opt_utils.html#acac3e8ce8646ddd1544ed034c71bec96" target="_top" xlink:title=" ">
<polygon fill="white" stroke="#666666" points="211,-230 77,-230 77,-200 211,-200 211,-230"/>
<text text-anchor="start" x="85" y="-218" font-family="Helvetica,sans-Serif" font-size="10.00">polyfem::solver::Adjoint</text>
<text text-anchor="middle" x="144" y="-207" font-family="Helvetica,sans-Serif" font-size="10.00">OptUtils::solve_pde</text>
</a>
</g>
</g>
<!-- Node10&#45;&gt;Node13 -->
<g id="edge12_Node000010_Node000013" class="edge">
<title>Node10&#45;&gt;Node13</title>
<g id="a_edge12_Node000010_Node000013"><a xlink:title=" ">
<path fill="none" stroke="#63b8ff" d="M236.64,-215C228.21,-215 219.61,-215 211.23,-215"/>
<polygon fill="#63b8ff" stroke="#63b8ff" points="236.82,-218.5 246.82,-215 236.82,-211.5 236.82,-218.5"/>
</a>
</g>
</g>
<!-- Node12 -->
<g id="Node000012" class="node">
<title>Node12</title>
<g id="a_Node000012"><a xlink:href="main_8cpp.html#a3c04138a5bfe5d72780bb7e82a18e627" target="_top" xlink:title=" ">
<polygon fill="white" stroke="#666666" points="41,-181.5 0,-181.5 0,-162.5 41,-162.5 41,-181.5"/>
<text text-anchor="middle" x="20.5" y="-169.5" font-family="Helvetica,sans-Serif" font-size="10.00">main</text>
</a>
</g>
</g>
<!-- Node11&#45;&gt;Node12 -->
<g id="edge11_Node000011_Node000012" class="edge">
<title>Node11&#45;&gt;Node12</title>
<g id="a_edge11_Node000011_Node000012"><a xlink:title=" ">
<path fill="none" stroke="#63b8ff" d="M77.97,-172C64.49,-172 51.29,-172 41.05,-172"/>
<polygon fill="#63b8ff" stroke="#63b8ff" points="78.29,-175.5 88.29,-172 78.29,-168.5 78.29,-175.5"/>
</a>
</g>
</g>
<!-- Node14&#45;&gt;Node10 -->
<g id="edge14_Node000014_Node000010" class="edge">
<title>Node14&#45;&gt;Node10</title>
<g id="a_edge14_Node000014_Node000010"><a xlink:title=" ">
<path fill="none" stroke="#63b8ff" d="M600.28,-228.44C531.16,-225.26 431.25,-220.66 368.12,-217.75"/>
<polygon fill="#63b8ff" stroke="#63b8ff" points="600.53,-231.96 610.68,-228.92 600.85,-224.96 600.53,-231.96"/>
</a>
</g>
</g>
<!-- Node15 -->
<g id="Node000015" class="node">
<title>Node15</title>
<g id="a_Node000015"><a xlink:href="classpolyfem_1_1_state.html#a581a91ee028c3d6376f9f0db39194ff3" target="_top" xlink:title="solves transient tensor nonlinear problem">
<polygon fill="white" stroke="#666666" points="556,-209 404,-209 404,-179 556,-179 556,-209"/>
<text text-anchor="start" x="412" y="-197" font-family="Helvetica,sans-Serif" font-size="10.00">polyfem::State::solve</text>
<text text-anchor="middle" x="480" y="-186" font-family="Helvetica,sans-Serif" font-size="10.00">_transient_tensor_nonlinear</text>
</a>
</g>
</g>
<!-- Node14&#45;&gt;Node15 -->
<g id="edge15_Node000014_Node000015" class="edge">
<title>Node14&#45;&gt;Node15</title>
<g id="a_edge15_Node000014_Node000015"><a xlink:title=" ">
<path fill="none" stroke="#63b8ff" d="M600.94,-217.19C586.25,-214.35 570.89,-211.38 556.25,-208.55"/>
<polygon fill="#63b8ff" stroke="#63b8ff" points="600.49,-220.67 610.97,-219.13 601.82,-213.8 600.49,-220.67"/>
</a>
</g>
</g>
<!-- Node15&#45;&gt;Node10 -->
<g id="edge16_Node000015_Node000010" class="edge">
<title>Node15&#45;&gt;Node10</title>
<g id="a_edge16_Node000015_Node000010"><a xlink:title=" ">
<path fill="none" stroke="#63b8ff" d="M393.59,-204.52C384.95,-205.58 376.31,-206.65 368.02,-207.67"/>
<polygon fill="#63b8ff" stroke="#63b8ff" points="394.22,-207.97 403.72,-203.27 393.37,-201.02 394.22,-207.97"/>
</a>
</g>
</g>
<!-- Node16&#45;&gt;Node11 -->
<g id="edge18_Node000016_Node000011" class="edge">
<title>Node16&#45;&gt;Node11</title>
<g id="a_edge18_Node000016_Node000011"><a xlink:title=" ">
<path fill="none" stroke="#63b8ff" d="M594.22,-152.6C484.09,-157.35 293.05,-165.61 199.62,-169.64"/>
<polygon fill="#63b8ff" stroke="#63b8ff" points="594.46,-156.09 604.3,-152.16 594.15,-149.1 594.46,-156.09"/>
</a>
</g>
</g>
<!-- Node17 -->
<g id="Node000017" class="node">
<title>Node17</title>
<g id="a_Node000017"><a xlink:href="classpolyfem_1_1_state.html#a4ce16a4580b29c071e8fd84fbada3497" target="_top" xlink:title="loads the mesh from V and F,">
<polygon fill="white" stroke="#666666" points="554,-122.5 406,-122.5 406,-103.5 554,-103.5 554,-122.5"/>
<text text-anchor="middle" x="480" y="-110.5" font-family="Helvetica,sans-Serif" font-size="10.00">polyfem::State::load_mesh</text>
</a>
</g>
</g>
<!-- Node16&#45;&gt;Node17 -->
<g id="edge19_Node000016_Node000017" class="edge">
<title>Node16&#45;&gt;Node17</title>
<g id="a_edge19_Node000016_Node000017"><a xlink:title=" ">
<path fill="none" stroke="#63b8ff" d="M615.67,-137.67C589.16,-132.82 558.52,-127.2 533.18,-122.56"/>
<polygon fill="#63b8ff" stroke="#63b8ff" points="615.15,-141.13 625.61,-139.49 616.41,-134.25 615.15,-141.13"/>
</a>
</g>
</g>
<!-- Node19&#45;&gt;Node16 -->
<g id="edge22_Node000019_Node000016" class="edge">
<title>Node19&#45;&gt;Node16</title>
<g id="a_edge22_Node000019_Node000016"><a xlink:title=" ">
<path fill="none" stroke="#63b8ff" d="M819.87,-149C798.32,-149 774.41,-149 752.53,-149"/>
<polygon fill="#63b8ff" stroke="#63b8ff" points="819.92,-152.5 829.92,-149 819.92,-145.5 819.92,-152.5"/>
</a>
</g>
</g>
<!-- Node20&#45;&gt;Node16 -->
<g id="edge24_Node000020_Node000016" class="edge">
<title>Node20&#45;&gt;Node16</title>
<g id="a_edge24_Node000020_Node000016"><a xlink:title=" ">
<path fill="none" stroke="#63b8ff" d="M819.99,-116.66C787.37,-124.17 749.34,-132.92 721.08,-139.43"/>
<polygon fill="#63b8ff" stroke="#63b8ff" points="820.96,-120.03 829.92,-114.37 819.39,-113.2 820.96,-120.03"/>
</a>
</g>
</g>
<!-- Node20&#45;&gt;Node18 -->
<g id="edge25_Node000020_Node000018" class="edge">
<title>Node20&#45;&gt;Node18</title>
<g id="a_edge25_Node000020_Node000018"><a xlink:title=" ">
<path fill="none" stroke="#63b8ff" d="M819.87,-94.14C798.32,-91.97 774.41,-89.56 752.53,-87.36"/>
<polygon fill="#63b8ff" stroke="#63b8ff" points="819.62,-97.63 829.92,-95.15 820.32,-90.67 819.62,-97.63"/>
</a>
</g>
</g>
</g>
</svg>
