<?xml version="1.0" encoding="UTF-8" standalone="no"?>
<!DOCTYPE svg PUBLIC "-//W3C//DTD SVG 1.1//EN"
 "http://www.w3.org/Graphics/SVG/1.1/DTD/svg11.dtd">
<!-- Generated by graphviz version 2.43.0 (0)
 -->
<!-- Title: polyfem::autogen::p_nodes_3d Pages: 1 -->
<svg width="1828pt" height="494pt"
 viewBox="0.00 0.00 1828.00 493.98" xmlns="http://www.w3.org/2000/svg" xmlns:xlink="http://www.w3.org/1999/xlink">
<g id="graph0" class="graph" transform="scale(1 1) rotate(0) translate(4 489.98)">
<title>polyfem::autogen::p_nodes_3d</title>
<!-- Node1 -->
<g id="Node000001" class="node">
<title>Node1</title>
<g id="a_Node000001"><a xlink:title=" ">
<polygon fill="#999999" stroke="#666666" points="1820,-239 1705,-239 1705,-209 1820,-209 1820,-239"/>
<text text-anchor="start" x="1713" y="-227" font-family="Helvetica,sans-Serif" font-size="10.00">polyfem::autogen::p</text>
<text text-anchor="middle" x="1762.5" y="-216" font-family="Helvetica,sans-Serif" font-size="10.00">_nodes_3d</text>
</a>
</g>
</g>
<!-- Node2 -->
<g id="Node000002" class="node">
<title>Node2</title>
<g id="a_Node000002"><a xlink:href="classpolyfem_1_1io_1_1_evaluator.html#ae1843061a7016148173bc74a448ca5b1" target="_top" xlink:title="computes scalar quantity of funtion (ie von mises for elasticity and norm of velocity for fluid) the ...">
<polygon fill="white" stroke="#666666" points="1669,-320 1500,-320 1500,-290 1669,-290 1669,-320"/>
<text text-anchor="start" x="1508" y="-308" font-family="Helvetica,sans-Serif" font-size="10.00">polyfem::io::Evaluator</text>
<text text-anchor="middle" x="1584.5" y="-297" font-family="Helvetica,sans-Serif" font-size="10.00">::average_grad_based_function</text>
</a>
</g>
</g>
<!-- Node1&#45;&gt;Node2 -->
<g id="edge1_Node000001_Node000002" class="edge">
<title>Node1&#45;&gt;Node2</title>
<g id="a_edge1_Node000001_Node000002"><a xlink:title=" ">
<path fill="none" stroke="#63b8ff" d="M1731.26,-244.99C1713.69,-256.5 1690.77,-270.34 1669,-280 1660.7,-283.68 1651.71,-287.01 1642.8,-289.95"/>
<polygon fill="#63b8ff" stroke="#63b8ff" points="1733.54,-247.68 1739.93,-239.23 1729.66,-241.85 1733.54,-247.68"/>
</a>
</g>
</g>
<!-- Node3 -->
<g id="Node000003" class="node">
<title>Node3</title>
<g id="a_Node000003"><a xlink:href="classpolyfem_1_1io_1_1_out_geometry_data.html#a79dfcef5587ebfc0a492f4beff251d01" target="_top" xlink:title="saves the volume vtu file">
<polygon fill="white" stroke="#666666" points="1464,-301 1320,-301 1320,-271 1464,-271 1464,-301"/>
<text text-anchor="start" x="1328" y="-289" font-family="Helvetica,sans-Serif" font-size="10.00">polyfem::io::OutGeometry</text>
<text text-anchor="middle" x="1392" y="-278" font-family="Helvetica,sans-Serif" font-size="10.00">Data::save_volume</text>
</a>
</g>
</g>
<!-- Node1&#45;&gt;Node3 -->
<g id="edge45_Node000001_Node000003" class="edge">
<title>Node1&#45;&gt;Node3</title>
<g id="a_edge45_Node000001_Node000003"><a xlink:title=" ">
<path fill="none" stroke="#63b8ff" d="M1748.77,-247.81C1733.62,-273.34 1705.68,-312.43 1669,-329 1585.47,-366.73 1474.84,-325.31 1422.66,-301.05"/>
<polygon fill="#63b8ff" stroke="#63b8ff" points="1751.84,-249.5 1753.77,-239.09 1745.76,-246.02 1751.84,-249.5"/>
</a>
</g>
</g>
<!-- Node21 -->
<g id="Node000021" class="node">
<title>Node21</title>
<g id="a_Node000021"><a xlink:href="classpolyfem_1_1_state.html#a9fa28a682c746974ee171d8cfa6a8558" target="_top" xlink:title="solves transient navier stokes with operator splitting">
<polygon fill="white" stroke="#666666" points="568,-104 404,-104 404,-74 568,-74 568,-104"/>
<text text-anchor="start" x="412" y="-92" font-family="Helvetica,sans-Serif" font-size="10.00">polyfem::State::solve</text>
<text text-anchor="middle" x="486" y="-81" font-family="Helvetica,sans-Serif" font-size="10.00">_transient_navier_stokes_split</text>
</a>
</g>
</g>
<!-- Node1&#45;&gt;Node21 -->
<g id="edge46_Node000001_Node000021" class="edge">
<title>Node1&#45;&gt;Node21</title>
<g id="a_edge46_Node000001_Node000021"><a xlink:title=" ">
<path fill="none" stroke="#63b8ff" d="M1731.68,-203.18C1714.24,-192.16 1691.32,-179.57 1669,-173 1551.05,-138.28 1515.96,-154 1393,-154 1393,-154 1393,-154 846.5,-154 734.87,-154 606.81,-123.28 537.68,-104.08"/>
<polygon fill="#63b8ff" stroke="#63b8ff" points="1729.98,-206.25 1740.27,-208.76 1733.79,-200.38 1729.98,-206.25"/>
</a>
</g>
</g>
<!-- Node22 -->
<g id="Node000022" class="node">
<title>Node22</title>
<g id="a_Node000022"><a xlink:href="classpolyfem_1_1_state.html#a75cfcf28f3bc27e8e30b41c7347c799b" target="_top" xlink:title="builds the bases step 2 of solve modifies bases, pressure_bases, geom_bases_, boundary_nodes,...">
<polygon fill="white" stroke="#666666" points="907,-460 788,-460 788,-430 907,-430 907,-460"/>
<text text-anchor="start" x="796" y="-448" font-family="Helvetica,sans-Serif" font-size="10.00">polyfem::State::build</text>
<text text-anchor="middle" x="847.5" y="-437" font-family="Helvetica,sans-Serif" font-size="10.00">_basis</text>
</a>
</g>
</g>
<!-- Node1&#45;&gt;Node22 -->
<g id="edge30_Node000001_Node000022" class="edge">
<title>Node1&#45;&gt;Node22</title>
<g id="a_edge30_Node000001_Node000022"><a xlink:title=" ">
<path fill="none" stroke="#63b8ff" d="M1757.36,-249.09C1748.95,-291.2 1725.65,-375.37 1669,-415 1567.97,-485.68 1516.3,-443 1393,-443 1393,-443 1393,-443 1211,-443 1103.85,-443 978.89,-443.88 907.2,-444.48"/>
<polygon fill="#63b8ff" stroke="#63b8ff" points="1760.83,-249.58 1759.22,-239.11 1753.94,-248.29 1760.83,-249.58"/>
</a>
</g>
</g>
<!-- Node24 -->
<g id="Node000024" class="node">
<title>Node24</title>
<g id="a_Node000024"><a xlink:href="classpolyfem_1_1io_1_1_out_geometry_data.html#a0973670568a6c11dca7ae90d0024395e" target="_top" xlink:title="builds high&#45;der visualzation mesh per element all disconnected it also retuns the mapping to element ...">
<polygon fill="white" stroke="#666666" points="1656.5,-271.5 1512.5,-271.5 1512.5,-230.5 1656.5,-230.5 1656.5,-271.5"/>
<text text-anchor="start" x="1520.5" y="-259.5" font-family="Helvetica,sans-Serif" font-size="10.00">polyfem::io::OutGeometry</text>
<text text-anchor="start" x="1520.5" y="-248.5" font-family="Helvetica,sans-Serif" font-size="10.00">Data::build_high_order</text>
<text text-anchor="middle" x="1584.5" y="-237.5" font-family="Helvetica,sans-Serif" font-size="10.00">_vis_mesh</text>
</a>
</g>
</g>
<!-- Node1&#45;&gt;Node24 -->
<g id="edge35_Node000001_Node000024" class="edge">
<title>Node1&#45;&gt;Node24</title>
<g id="a_edge35_Node000001_Node000024"><a xlink:title=" ">
<path fill="none" stroke="#63b8ff" d="M1694.94,-234.21C1682.4,-236.13 1669.24,-238.15 1656.56,-240.1"/>
<polygon fill="#63b8ff" stroke="#63b8ff" points="1695.49,-237.67 1704.84,-232.69 1694.43,-230.75 1695.49,-237.67"/>
</a>
</g>
</g>
<!-- Node25 -->
<g id="Node000025" class="node">
<title>Node25</title>
<g id="a_Node000025"><a xlink:href="classpolyfem_1_1io_1_1_evaluator.html#a32408ad8cbc3e257df64752790620bad" target="_top" xlink:title="checks if mises are not nan">
<polygon fill="white" stroke="#666666" points="1647,-126 1522,-126 1522,-96 1647,-96 1647,-126"/>
<text text-anchor="start" x="1530" y="-114" font-family="Helvetica,sans-Serif" font-size="10.00">polyfem::io::Evaluator</text>
<text text-anchor="middle" x="1584.5" y="-103" font-family="Helvetica,sans-Serif" font-size="10.00">::check_scalar_value</text>
</a>
</g>
</g>
<!-- Node1&#45;&gt;Node25 -->
<g id="edge37_Node000001_Node000025" class="edge">
<title>Node1&#45;&gt;Node25</title>
<g id="a_edge37_Node000001_Node000025"><a xlink:title=" ">
<path fill="none" stroke="#63b8ff" d="M1741.62,-201.45C1724.11,-182.77 1697.07,-156.67 1669,-140 1659.9,-134.59 1649.63,-130 1639.5,-126.16"/>
<polygon fill="#63b8ff" stroke="#63b8ff" points="1739.18,-203.96 1748.52,-208.96 1744.33,-199.23 1739.18,-203.96"/>
</a>
</g>
</g>
<!-- Node26 -->
<g id="Node000026" class="node">
<title>Node26</title>
<g id="a_Node000026"><a xlink:href="classpolyfem_1_1io_1_1_evaluator.html#af94f92b585b4e1848e0e28a427f86397" target="_top" xlink:title="computes scalar quantity of funtion (ie von mises for elasticity and norm of velocity for fluid)">
<polygon fill="white" stroke="#666666" points="1650.5,-212 1518.5,-212 1518.5,-182 1650.5,-182 1650.5,-212"/>
<text text-anchor="start" x="1526.5" y="-200" font-family="Helvetica,sans-Serif" font-size="10.00">polyfem::io::Evaluator</text>
<text text-anchor="middle" x="1584.5" y="-189" font-family="Helvetica,sans-Serif" font-size="10.00">::compute_scalar_value</text>
</a>
</g>
</g>
<!-- Node1&#45;&gt;Node26 -->
<g id="edge38_Node000001_Node000026" class="edge">
<title>Node1&#45;&gt;Node26</title>
<g id="a_edge38_Node000001_Node000026"><a xlink:title=" ">
<path fill="none" stroke="#63b8ff" d="M1694.95,-213.79C1680.43,-211.56 1665.08,-209.21 1650.62,-206.99"/>
<polygon fill="#63b8ff" stroke="#63b8ff" points="1694.43,-217.25 1704.84,-215.31 1695.49,-210.33 1694.43,-217.25"/>
</a>
</g>
</g>
<!-- Node28 -->
<g id="Node000028" class="node">
<title>Node28</title>
<g id="a_Node000028"><a xlink:href="classpolyfem_1_1io_1_1_evaluator.html#afb6d4e8481e4f6fc71d314a5b1a7f831" target="_top" xlink:title="compute tensor quantity (ie stress tensor or velocy)">
<polygon fill="white" stroke="#666666" points="1651.5,-406 1517.5,-406 1517.5,-376 1651.5,-376 1651.5,-406"/>
<text text-anchor="start" x="1525.5" y="-394" font-family="Helvetica,sans-Serif" font-size="10.00">polyfem::io::Evaluator</text>
<text text-anchor="middle" x="1584.5" y="-383" font-family="Helvetica,sans-Serif" font-size="10.00">::compute_tensor_value</text>
</a>
</g>
</g>
<!-- Node1&#45;&gt;Node28 -->
<g id="edge42_Node000001_Node000028" class="edge">
<title>Node1&#45;&gt;Node28</title>
<g id="a_edge42_Node000001_Node000028"><a xlink:title=" ">
<path fill="none" stroke="#63b8ff" d="M1751.15,-248.37C1736.94,-279.06 1708.56,-331.47 1669,-362 1661.71,-367.63 1653.25,-372.21 1644.57,-375.93"/>
<polygon fill="#63b8ff" stroke="#63b8ff" points="1754.36,-249.77 1755.27,-239.22 1747.97,-246.9 1754.36,-249.77"/>
</a>
</g>
</g>
<!-- Node29 -->
<g id="Node000029" class="node">
<title>Node29</title>
<g id="a_Node000029"><a xlink:href="classpolyfem_1_1io_1_1_evaluator.html#a4462bc654fb511f3cff3c2e90158bf5d" target="_top" xlink:title="interpolate the function fun.">
<polygon fill="white" stroke="#666666" points="1647,-78 1522,-78 1522,-48 1647,-48 1647,-78"/>
<text text-anchor="start" x="1530" y="-66" font-family="Helvetica,sans-Serif" font-size="10.00">polyfem::io::Evaluator</text>
<text text-anchor="middle" x="1584.5" y="-55" font-family="Helvetica,sans-Serif" font-size="10.00">::interpolate_function</text>
</a>
</g>
</g>
<!-- Node1&#45;&gt;Node29 -->
<g id="edge44_Node000001_Node000029" class="edge">
<title>Node1&#45;&gt;Node29</title>
<g id="a_edge44_Node000001_Node000029"><a xlink:title=" ">
<path fill="none" stroke="#63b8ff" d="M1751.36,-199.47C1737.37,-168.64 1709.22,-116.23 1669,-87 1662.41,-82.21 1654.89,-78.38 1647.11,-75.3"/>
<polygon fill="#63b8ff" stroke="#63b8ff" points="1748.18,-200.92 1755.4,-208.67 1754.58,-198.1 1748.18,-200.92"/>
</a>
</g>
</g>
<!-- Node30 -->
<g id="Node000030" class="node">
<title>Node30</title>
<g id="a_Node000030"><a xlink:href="classpolyfem_1_1basis_1_1_lagrange_basis3d.html#ae21671a6156e9de430f8b9c11749781f" target="_top" xlink:title=" ">
<polygon fill="white" stroke="#666666" points="1666.5,-30 1502.5,-30 1502.5,0 1666.5,0 1666.5,-30"/>
<text text-anchor="start" x="1510.5" y="-18" font-family="Helvetica,sans-Serif" font-size="10.00">polyfem::basis::Lagrange</text>
<text text-anchor="middle" x="1584.5" y="-7" font-family="Helvetica,sans-Serif" font-size="10.00">Basis3d::tet_face_local_nodes</text>
</a>
</g>
</g>
<!-- Node1&#45;&gt;Node30 -->
<g id="edge47_Node000001_Node000030" class="edge">
<title>Node1&#45;&gt;Node30</title>
<g id="a_edge47_Node000001_Node000030"><a xlink:title=" ">
<path fill="none" stroke="#63b8ff" d="M1755.9,-199.03C1745.65,-159.2 1720.1,-81.47 1669,-39 1664.82,-35.53 1660.17,-32.56 1655.26,-30.02"/>
<polygon fill="#63b8ff" stroke="#63b8ff" points="1752.55,-200.09 1758.33,-208.97 1759.35,-198.42 1752.55,-200.09"/>
</a>
</g>
</g>
<!-- Node2&#45;&gt;Node3 -->
<g id="edge2_Node000002_Node000003" class="edge">
<title>Node2&#45;&gt;Node3</title>
<g id="a_edge2_Node000002_Node000003"><a xlink:title=" ">
<path fill="none" stroke="#63b8ff" d="M1489.86,-295.66C1481.26,-294.8 1472.63,-293.94 1464.27,-293.11"/>
<polygon fill="#63b8ff" stroke="#63b8ff" points="1489.65,-299.16 1499.94,-296.67 1490.34,-292.19 1489.65,-299.16"/>
</a>
</g>
</g>
<!-- Node4 -->
<g id="Node000004" class="node">
<title>Node4</title>
<g id="a_Node000004"><a xlink:href="classpolyfem_1_1io_1_1_out_geometry_data.html#aa3fbccda3a6e6f7fd5a7b3bcbd146793" target="_top" xlink:title="saves the vtu file for time t">
<polygon fill="white" stroke="#666666" points="1284,-296 1140,-296 1140,-266 1284,-266 1284,-296"/>
<text text-anchor="start" x="1148" y="-284" font-family="Helvetica,sans-Serif" font-size="10.00">polyfem::io::OutGeometry</text>
<text text-anchor="middle" x="1212" y="-273" font-family="Helvetica,sans-Serif" font-size="10.00">Data::save_vtu</text>
</a>
</g>
</g>
<!-- Node3&#45;&gt;Node4 -->
<g id="edge3_Node000003_Node000004" class="edge">
<title>Node3&#45;&gt;Node4</title>
<g id="a_edge3_Node000003_Node000004"><a xlink:title=" ">
<path fill="none" stroke="#63b8ff" d="M1309.83,-283.72C1301.21,-283.48 1292.49,-283.23 1284,-282.99"/>
<polygon fill="#63b8ff" stroke="#63b8ff" points="1309.79,-287.22 1319.88,-284 1309.98,-280.22 1309.79,-287.22"/>
</a>
</g>
</g>
<!-- Node5 -->
<g id="Node000005" class="node">
<title>Node5</title>
<g id="a_Node000005"><a xlink:href="classpolyfem_1_1io_1_1_out_geometry_data.html#a9826defd7d8f3c4c12df2ba9c4c45320" target="_top" xlink:title="exports everytihng, txt, vtu, etc">
<polygon fill="white" stroke="#666666" points="1104,-296 960,-296 960,-266 1104,-266 1104,-296"/>
<text text-anchor="start" x="968" y="-284" font-family="Helvetica,sans-Serif" font-size="10.00">polyfem::io::OutGeometry</text>
<text text-anchor="middle" x="1032" y="-273" font-family="Helvetica,sans-Serif" font-size="10.00">Data::export_data</text>
</a>
</g>
</g>
<!-- Node4&#45;&gt;Node5 -->
<g id="edge4_Node000004_Node000005" class="edge">
<title>Node4&#45;&gt;Node5</title>
<g id="a_edge4_Node000004_Node000005"><a xlink:title=" ">
<path fill="none" stroke="#63b8ff" d="M1129.83,-281C1121.21,-281 1112.49,-281 1104,-281"/>
<polygon fill="#63b8ff" stroke="#63b8ff" points="1129.88,-284.5 1139.88,-281 1129.88,-277.5 1129.88,-284.5"/>
</a>
</g>
</g>
<!-- Node14 -->
<g id="Node000014" class="node">
<title>Node14</title>
<g id="a_Node000014"><a xlink:href="classpolyfem_1_1_state.html#a29b1283c20475e19b79a39cd324ac5aa" target="_top" xlink:title="saves a subsolve when save_solve_sequence_debug is true">
<polygon fill="white" stroke="#666666" points="1091,-344 973,-344 973,-314 1091,-314 1091,-344"/>
<text text-anchor="start" x="981" y="-332" font-family="Helvetica,sans-Serif" font-size="10.00">polyfem::State::save</text>
<text text-anchor="middle" x="1032" y="-321" font-family="Helvetica,sans-Serif" font-size="10.00">_subsolve</text>
</a>
</g>
</g>
<!-- Node4&#45;&gt;Node14 -->
<g id="edge14_Node000004_Node000014" class="edge">
<title>Node4&#45;&gt;Node14</title>
<g id="a_edge14_Node000004_Node000014"><a xlink:title=" ">
<path fill="none" stroke="#63b8ff" d="M1145.29,-298.72C1126.67,-303.74 1106.59,-309.15 1088.63,-314"/>
<polygon fill="#63b8ff" stroke="#63b8ff" points="1146.42,-302.04 1155.17,-296.06 1144.6,-295.28 1146.42,-302.04"/>
</a>
</g>
</g>
<!-- Node17 -->
<g id="Node000017" class="node">
<title>Node17</title>
<g id="a_Node000017"><a xlink:href="classpolyfem_1_1_state.html#a442fa686e1d08a0a104f3869a6fa2948" target="_top" xlink:title="saves a timestep">
<polygon fill="white" stroke="#666666" points="728.5,-248 610.5,-248 610.5,-218 728.5,-218 728.5,-248"/>
<text text-anchor="start" x="618.5" y="-236" font-family="Helvetica,sans-Serif" font-size="10.00">polyfem::State::save</text>
<text text-anchor="middle" x="669.5" y="-225" font-family="Helvetica,sans-Serif" font-size="10.00">_timestep</text>
</a>
</g>
</g>
<!-- Node4&#45;&gt;Node17 -->
<g id="edge19_Node000004_Node000017" class="edge">
<title>Node4&#45;&gt;Node17</title>
<g id="a_edge19_Node000004_Node000017"><a xlink:title=" ">
<path fill="none" stroke="#63b8ff" d="M1142.17,-263.81C1129.54,-261.15 1116.42,-258.73 1104,-257 970.55,-238.47 812.11,-234.12 728.64,-233.17"/>
<polygon fill="#63b8ff" stroke="#63b8ff" points="1141.66,-267.28 1152.17,-265.97 1143.14,-260.43 1141.66,-267.28"/>
</a>
</g>
</g>
<!-- Node6 -->
<g id="Node000006" class="node">
<title>Node6</title>
<g id="a_Node000006"><a xlink:href="classpolyfem_1_1_state.html#acc61dcd623eec2308480c5c082da3d9e" target="_top" xlink:title="saves all data on the disk according to the input params">
<polygon fill="white" stroke="#666666" points="924,-290.5 771,-290.5 771,-271.5 924,-271.5 924,-290.5"/>
<text text-anchor="middle" x="847.5" y="-278.5" font-family="Helvetica,sans-Serif" font-size="10.00">polyfem::State::export_data</text>
</a>
</g>
</g>
<!-- Node5&#45;&gt;Node6 -->
<g id="edge5_Node000005_Node000006" class="edge">
<title>Node5&#45;&gt;Node6</title>
<g id="a_edge5_Node000005_Node000006"><a xlink:title=" ">
<path fill="none" stroke="#63b8ff" d="M949.67,-281C941.2,-281 932.62,-281 924.21,-281"/>
<polygon fill="#63b8ff" stroke="#63b8ff" points="949.92,-284.5 959.92,-281 949.92,-277.5 949.92,-284.5"/>
</a>
</g>
</g>
<!-- Node7 -->
<g id="Node000007" class="node">
<title>Node7</title>
<g id="a_Node000007"><a xlink:href="main_8cpp.html#aec889c702a246ad7f332c75ab7adb438" target="_top" xlink:title=" ">
<polygon fill="white" stroke="#666666" points="199.5,-419.5 88.5,-419.5 88.5,-400.5 199.5,-400.5 199.5,-419.5"/>
<text text-anchor="middle" x="144" y="-407.5" font-family="Helvetica,sans-Serif" font-size="10.00">forward_simulation</text>
</a>
</g>
</g>
<!-- Node6&#45;&gt;Node7 -->
<g id="edge6_Node000006_Node000007" class="edge">
<title>Node6&#45;&gt;Node7</title>
<g id="a_edge6_Node000006_Node000007"><a xlink:title=" ">
<path fill="none" stroke="#63b8ff" d="M834.72,-299.26C816.79,-325.2 779.96,-371.71 735,-391 639.76,-431.87 326.75,-420.02 199.51,-413.24"/>
<polygon fill="#63b8ff" stroke="#63b8ff" points="837.78,-300.98 840.45,-290.73 831.97,-297.08 837.78,-300.98"/>
</a>
</g>
</g>
<!-- Node9 -->
<g id="Node000009" class="node">
<title>Node9</title>
<g id="a_Node000009"><a xlink:href="classpolyfem_1_1_state.html#a3bc39e37b4c4be3680ecdd050e1aa027" target="_top" xlink:title="In Elasticity PDE, solve for &quot;min W(disp_grad + \grad u)&quot; instead of &quot;min W(\grad u)&quot;.">
<polygon fill="white" stroke="#666666" points="733,-296 606,-296 606,-266 733,-266 733,-296"/>
<text text-anchor="start" x="614" y="-284" font-family="Helvetica,sans-Serif" font-size="10.00">polyfem::State::solve</text>
<text text-anchor="middle" x="669.5" y="-273" font-family="Helvetica,sans-Serif" font-size="10.00">_homogenization_step</text>
</a>
</g>
</g>
<!-- Node6&#45;&gt;Node9 -->
<g id="edge8_Node000006_Node000009" class="edge">
<title>Node6&#45;&gt;Node9</title>
<g id="a_edge8_Node000006_Node000009"><a xlink:title=" ">
<path fill="none" stroke="#63b8ff" d="M760.76,-281C751.45,-281 742.1,-281 733.13,-281"/>
<polygon fill="#63b8ff" stroke="#63b8ff" points="760.84,-284.5 770.84,-281 760.84,-277.5 760.84,-284.5"/>
</a>
</g>
</g>
<!-- Node8 -->
<g id="Node000008" class="node">
<title>Node8</title>
<g id="a_Node000008"><a xlink:href="main_8cpp.html#a3c04138a5bfe5d72780bb7e82a18e627" target="_top" xlink:title=" ">
<polygon fill="white" stroke="#666666" points="41,-419.5 0,-419.5 0,-400.5 41,-400.5 41,-419.5"/>
<text text-anchor="middle" x="20.5" y="-407.5" font-family="Helvetica,sans-Serif" font-size="10.00">main</text>
</a>
</g>
</g>
<!-- Node7&#45;&gt;Node8 -->
<g id="edge7_Node000007_Node000008" class="edge">
<title>Node7&#45;&gt;Node8</title>
<g id="a_edge7_Node000007_Node000008"><a xlink:title=" ">
<path fill="none" stroke="#63b8ff" d="M77.97,-410C64.49,-410 51.29,-410 41.05,-410"/>
<polygon fill="#63b8ff" stroke="#63b8ff" points="78.29,-413.5 88.29,-410 78.29,-406.5 78.29,-413.5"/>
</a>
</g>
</g>
<!-- Node10 -->
<g id="Node000010" class="node">
<title>Node10</title>
<g id="a_Node000010"><a xlink:href="classpolyfem_1_1_state.html#a711a7162a063d7534b03d9ff9acb93f0" target="_top" xlink:title=" ">
<polygon fill="white" stroke="#666666" points="546.5,-296 425.5,-296 425.5,-266 546.5,-266 546.5,-296"/>
<text text-anchor="start" x="433.5" y="-284" font-family="Helvetica,sans-Serif" font-size="10.00">polyfem::State::solve</text>
<text text-anchor="middle" x="486" y="-273" font-family="Helvetica,sans-Serif" font-size="10.00">_homogenization</text>
</a>
</g>
</g>
<!-- Node9&#45;&gt;Node10 -->
<g id="edge9_Node000009_Node000010" class="edge">
<title>Node9&#45;&gt;Node10</title>
<g id="a_edge9_Node000009_Node000010"><a xlink:title=" ">
<path fill="none" stroke="#63b8ff" d="M595.76,-281C579.46,-281 562.36,-281 546.66,-281"/>
<polygon fill="#63b8ff" stroke="#63b8ff" points="595.78,-284.5 605.78,-281 595.78,-277.5 595.78,-284.5"/>
</a>
</g>
</g>
<!-- Node11 -->
<g id="Node000011" class="node">
<title>Node11</title>
<g id="a_Node000011"><a xlink:href="classpolyfem_1_1_state.html#a7450ef7c42dd9c523e1be73a5819117d" target="_top" xlink:title="solves the problems">
<polygon fill="white" stroke="#666666" points="368,-296 247,-296 247,-266 368,-266 368,-296"/>
<text text-anchor="start" x="255" y="-284" font-family="Helvetica,sans-Serif" font-size="10.00">polyfem::State::solve</text>
<text text-anchor="middle" x="307.5" y="-273" font-family="Helvetica,sans-Serif" font-size="10.00">_problem</text>
</a>
</g>
</g>
<!-- Node10&#45;&gt;Node11 -->
<g id="edge10_Node000010_Node000011" class="edge">
<title>Node10&#45;&gt;Node11</title>
<g id="a_edge10_Node000010_Node000011"><a xlink:title=" ">
<path fill="none" stroke="#63b8ff" d="M415.17,-281C399.63,-281 383.28,-281 368.19,-281"/>
<polygon fill="#63b8ff" stroke="#63b8ff" points="415.25,-284.5 425.25,-281 415.25,-277.5 415.25,-284.5"/>
</a>
</g>
</g>
<!-- Node11&#45;&gt;Node7 -->
<g id="edge11_Node000011_Node000007" class="edge">
<title>Node11&#45;&gt;Node7</title>
<g id="a_edge11_Node000011_Node000007"><a xlink:title=" ">
<path fill="none" stroke="#63b8ff" d="M284.21,-303.34C265.45,-321.65 237.5,-347.74 211,-368 195.03,-380.21 175.47,-392.34 161.8,-400.4"/>
<polygon fill="#63b8ff" stroke="#63b8ff" points="286.99,-305.53 291.66,-296.02 282.08,-300.54 286.99,-305.53"/>
</a>
</g>
</g>
<!-- Node12 -->
<g id="Node000012" class="node">
<title>Node12</title>
<g id="a_Node000012"><a xlink:href="classpolyfem_1_1_state.html#a219f9935d918f739d82488449bd4cbf4" target="_top" xlink:title="solves the problem, call other methods">
<polygon fill="white" stroke="#666666" points="204.5,-358.5 83.5,-358.5 83.5,-339.5 204.5,-339.5 204.5,-358.5"/>
<text text-anchor="middle" x="144" y="-346.5" font-family="Helvetica,sans-Serif" font-size="10.00">polyfem::State::solve</text>
</a>
</g>
</g>
<!-- Node11&#45;&gt;Node12 -->
<g id="edge12_Node000011_Node000012" class="edge">
<title>Node11&#45;&gt;Node12</title>
<g id="a_edge12_Node000011_Node000012"><a xlink:title=" ">
<path fill="none" stroke="#63b8ff" d="M261.1,-300.11C230.69,-312.92 191.93,-329.24 167.79,-339.4"/>
<polygon fill="#63b8ff" stroke="#63b8ff" points="262.8,-303.2 270.66,-296.09 260.08,-296.75 262.8,-303.2"/>
</a>
</g>
</g>
<!-- Node13 -->
<g id="Node000013" class="node">
<title>Node13</title>
<g id="a_Node000013"><a xlink:href="structpolyfem_1_1solver_1_1_adjoint_opt_utils.html#acac3e8ce8646ddd1544ed034c71bec96" target="_top" xlink:title=" ">
<polygon fill="white" stroke="#666666" points="211,-296 77,-296 77,-266 211,-266 211,-296"/>
<text text-anchor="start" x="85" y="-284" font-family="Helvetica,sans-Serif" font-size="10.00">polyfem::solver::Adjoint</text>
<text text-anchor="middle" x="144" y="-273" font-family="Helvetica,sans-Serif" font-size="10.00">OptUtils::solve_pde</text>
</a>
</g>
</g>
<!-- Node11&#45;&gt;Node13 -->
<g id="edge13_Node000011_Node000013" class="edge">
<title>Node11&#45;&gt;Node13</title>
<g id="a_edge13_Node000011_Node000013"><a xlink:title=" ">
<path fill="none" stroke="#63b8ff" d="M236.64,-281C228.21,-281 219.61,-281 211.23,-281"/>
<polygon fill="#63b8ff" stroke="#63b8ff" points="236.82,-284.5 246.82,-281 236.82,-277.5 236.82,-284.5"/>
</a>
</g>
</g>
<!-- Node15 -->
<g id="Node000015" class="node">
<title>Node15</title>
<g id="a_Node000015"><a xlink:href="classpolyfem_1_1_state.html#acdb194af25d840fa14cec97b19e04577" target="_top" xlink:title="solves nonlinear problems">
<polygon fill="white" stroke="#666666" points="730,-344 609,-344 609,-314 730,-314 730,-344"/>
<text text-anchor="start" x="617" y="-332" font-family="Helvetica,sans-Serif" font-size="10.00">polyfem::State::solve</text>
<text text-anchor="middle" x="669.5" y="-321" font-family="Helvetica,sans-Serif" font-size="10.00">_tensor_nonlinear</text>
</a>
</g>
</g>
<!-- Node14&#45;&gt;Node15 -->
<g id="edge15_Node000014_Node000015" class="edge">
<title>Node14&#45;&gt;Node15</title>
<g id="a_edge15_Node000014_Node000015"><a xlink:title=" ">
<path fill="none" stroke="#63b8ff" d="M962.62,-329C895.52,-329 794.2,-329 730.24,-329"/>
<polygon fill="#63b8ff" stroke="#63b8ff" points="962.68,-332.5 972.68,-329 962.68,-325.5 962.68,-332.5"/>
</a>
</g>
</g>
<!-- Node15&#45;&gt;Node11 -->
<g id="edge16_Node000015_Node000011" class="edge">
<title>Node15&#45;&gt;Node11</title>
<g id="a_edge16_Node000015_Node000011"><a xlink:title=" ">
<path fill="none" stroke="#63b8ff" d="M598.73,-325.64C545.18,-322.35 469.55,-316.14 404,-305 390.35,-302.68 375.78,-299.43 362.23,-296.06"/>
<polygon fill="#63b8ff" stroke="#63b8ff" points="598.61,-329.14 608.81,-326.24 599.03,-322.15 598.61,-329.14"/>
</a>
</g>
</g>
<!-- Node16 -->
<g id="Node000016" class="node">
<title>Node16</title>
<g id="a_Node000016"><a xlink:href="classpolyfem_1_1_state.html#a4d91e8c971fc121b0cff2f0c02ca79e7" target="_top" xlink:title="solves transient tensor nonlinear problem">
<polygon fill="white" stroke="#666666" points="562,-382 410,-382 410,-352 562,-352 562,-382"/>
<text text-anchor="start" x="418" y="-370" font-family="Helvetica,sans-Serif" font-size="10.00">polyfem::State::solve</text>
<text text-anchor="middle" x="486" y="-359" font-family="Helvetica,sans-Serif" font-size="10.00">_transient_tensor_nonlinear</text>
</a>
</g>
</g>
<!-- Node15&#45;&gt;Node16 -->
<g id="edge17_Node000015_Node000016" class="edge">
<title>Node15&#45;&gt;Node16</title>
<g id="a_edge17_Node000015_Node000016"><a xlink:title=" ">
<path fill="none" stroke="#63b8ff" d="M598.9,-343.57C585.74,-346.33 571.95,-349.21 558.73,-351.98"/>
<polygon fill="#63b8ff" stroke="#63b8ff" points="599.75,-346.97 608.82,-341.5 598.31,-340.12 599.75,-346.97"/>
</a>
</g>
</g>
<!-- Node16&#45;&gt;Node11 -->
<g id="edge18_Node000016_Node000011" class="edge">
<title>Node16&#45;&gt;Node11</title>
<g id="a_edge18_Node000016_Node000011"><a xlink:title=" ">
<path fill="none" stroke="#63b8ff" d="M428.7,-348.45C420.31,-345.22 411.85,-341.71 404,-338 377.98,-325.72 349.9,-308.43 330.97,-296.11"/>
<polygon fill="#63b8ff" stroke="#63b8ff" points="427.52,-351.74 438.11,-351.96 429.96,-345.18 427.52,-351.74"/>
</a>
</g>
</g>
<!-- Node17&#45;&gt;Node10 -->
<g id="edge22_Node000017_Node000010" class="edge">
<title>Node17&#45;&gt;Node10</title>
<g id="a_edge22_Node000017_Node000010"><a xlink:title=" ">
<path fill="none" stroke="#63b8ff" d="M601.76,-250.65C582.71,-255.69 562.13,-261.13 543.73,-266"/>
<polygon fill="#63b8ff" stroke="#63b8ff" points="602.8,-254 611.57,-248.06 601.01,-247.23 602.8,-254"/>
</a>
</g>
</g>
<!-- Node17&#45;&gt;Node16 -->
<g id="edge29_Node000017_Node000016" class="edge">
<title>Node17&#45;&gt;Node16</title>
<g id="a_edge29_Node000017_Node000016"><a xlink:title=" ">
<path fill="none" stroke="#63b8ff" d="M609.72,-253.11C607.74,-254.34 605.83,-255.63 604,-257 582.64,-272.96 586.76,-286.05 568,-305 550.18,-322.99 527,-340.23 510,-351.94"/>
<polygon fill="#63b8ff" stroke="#63b8ff" points="611.65,-256.04 618.72,-248.15 608.27,-249.91 611.65,-256.04"/>
</a>
</g>
</g>
<!-- Node18 -->
<g id="Node000018" class="node">
<title>Node18</title>
<g id="a_Node000018"><a xlink:href="classpolyfem_1_1_state.html#ac5c4dd2be369c759c68e0a36a45bfcc7" target="_top" xlink:title="initialize solver">
<polygon fill="white" stroke="#666666" points="541,-200 431,-200 431,-170 541,-170 541,-200"/>
<text text-anchor="start" x="439" y="-188" font-family="Helvetica,sans-Serif" font-size="10.00">polyfem::State::init</text>
<text text-anchor="middle" x="486" y="-177" font-family="Helvetica,sans-Serif" font-size="10.00">_solve</text>
</a>
</g>
</g>
<!-- Node17&#45;&gt;Node18 -->
<g id="edge20_Node000017_Node000018" class="edge">
<title>Node17&#45;&gt;Node18</title>
<g id="a_edge20_Node000017_Node000018"><a xlink:title=" ">
<path fill="none" stroke="#63b8ff" d="M601.65,-215.32C581.76,-210.06 560.23,-204.37 541.25,-199.35"/>
<polygon fill="#63b8ff" stroke="#63b8ff" points="601.01,-218.77 611.57,-217.94 602.8,-212 601.01,-218.77"/>
</a>
</g>
</g>
<!-- Node19 -->
<g id="Node000019" class="node">
<title>Node19</title>
<g id="a_Node000019"><a xlink:href="classpolyfem_1_1_state.html#af5afb70dc127d3ce190116321e83f190" target="_top" xlink:title="solves transient linear problem">
<polygon fill="white" stroke="#666666" points="546.5,-152 425.5,-152 425.5,-122 546.5,-122 546.5,-152"/>
<text text-anchor="start" x="433.5" y="-140" font-family="Helvetica,sans-Serif" font-size="10.00">polyfem::State::solve</text>
<text text-anchor="middle" x="486" y="-129" font-family="Helvetica,sans-Serif" font-size="10.00">_transient_linear</text>
</a>
</g>
</g>
<!-- Node17&#45;&gt;Node19 -->
<g id="edge23_Node000017_Node000019" class="edge">
<title>Node17&#45;&gt;Node19</title>
<g id="a_edge23_Node000017_Node000019"><a xlink:title=" ">
<path fill="none" stroke="#63b8ff" d="M643.36,-211.35C623.9,-195.52 595.67,-174.53 568,-161 561.15,-157.65 553.74,-154.67 546.28,-152.05"/>
<polygon fill="#63b8ff" stroke="#63b8ff" points="641.2,-214.1 651.14,-217.78 645.67,-208.71 641.2,-214.1"/>
</a>
</g>
</g>
<!-- Node20 -->
<g id="Node000020" class="node">
<title>Node20</title>
<g id="a_Node000020"><a xlink:href="classpolyfem_1_1_state.html#ac42074a324e693f8eef5d7a96a56dc38" target="_top" xlink:title="solves transient navier stokes with FEM">
<polygon fill="white" stroke="#666666" points="555,-248 417,-248 417,-218 555,-218 555,-248"/>
<text text-anchor="start" x="425" y="-236" font-family="Helvetica,sans-Serif" font-size="10.00">polyfem::State::solve</text>
<text text-anchor="middle" x="486" y="-225" font-family="Helvetica,sans-Serif" font-size="10.00">_transient_navier_stokes</text>
</a>
</g>
</g>
<!-- Node17&#45;&gt;Node20 -->
<g id="edge25_Node000017_Node000020" class="edge">
<title>Node17&#45;&gt;Node20</title>
<g id="a_edge25_Node000017_Node000020"><a xlink:title=" ">
<path fill="none" stroke="#63b8ff" d="M600.29,-233C585.57,-233 570.01,-233 555.29,-233"/>
<polygon fill="#63b8ff" stroke="#63b8ff" points="600.32,-236.5 610.32,-233 600.32,-229.5 600.32,-236.5"/>
</a>
</g>
</g>
<!-- Node17&#45;&gt;Node21 -->
<g id="edge27_Node000017_Node000021" class="edge">
<title>Node17&#45;&gt;Node21</title>
<g id="a_edge27_Node000017_Node000021"><a xlink:title=" ">
<path fill="none" stroke="#63b8ff" d="M644.19,-210.77C631.57,-198.69 616.26,-183.14 604,-168 585.62,-145.29 591.44,-130.44 568,-113 563.41,-109.59 558.34,-106.65 553.04,-104.14"/>
<polygon fill="#63b8ff" stroke="#63b8ff" points="641.98,-213.5 651.65,-217.82 646.78,-208.41 641.98,-213.5"/>
</a>
</g>
</g>
<!-- Node18&#45;&gt;Node11 -->
<g id="edge21_Node000018_Node000011" class="edge">
<title>Node18&#45;&gt;Node11</title>
<g id="a_edge21_Node000018_Node000011"><a xlink:title=" ">
<path fill="none" stroke="#63b8ff" d="M421.36,-201.46C415.38,-203.72 409.5,-206.23 404,-209 373.59,-224.33 342.95,-249.57 324.86,-265.73"/>
<polygon fill="#63b8ff" stroke="#63b8ff" points="422.54,-204.75 430.8,-198.12 420.21,-198.15 422.54,-204.75"/>
</a>
</g>
</g>
<!-- Node19&#45;&gt;Node11 -->
<g id="edge24_Node000019_Node000011" class="edge">
<title>Node19&#45;&gt;Node11</title>
<g id="a_edge24_Node000019_Node000011"><a xlink:title=" ">
<path fill="none" stroke="#63b8ff" d="M415.87,-154.21C411.72,-156.23 407.73,-158.49 404,-161 362.72,-188.84 330.79,-240.04 316.58,-265.61"/>
<polygon fill="#63b8ff" stroke="#63b8ff" points="417.38,-157.36 425.14,-150.14 414.57,-150.95 417.38,-157.36"/>
</a>
</g>
</g>
<!-- Node20&#45;&gt;Node11 -->
<g id="edge26_Node000020_Node000011" class="edge">
<title>Node20&#45;&gt;Node11</title>
<g id="a_edge26_Node000020_Node000011"><a xlink:title=" ">
<path fill="none" stroke="#63b8ff" d="M419.85,-250.72C401.39,-255.74 381.47,-261.15 363.66,-266"/>
<polygon fill="#63b8ff" stroke="#63b8ff" points="420.91,-254.06 429.64,-248.06 419.07,-247.3 420.91,-254.06"/>
</a>
</g>
</g>
<!-- Node21&#45;&gt;Node11 -->
<g id="edge28_Node000021_Node000011" class="edge">
<title>Node21&#45;&gt;Node11</title>
<g id="a_edge28_Node000021_Node000011"><a xlink:title=" ">
<path fill="none" stroke="#63b8ff" d="M409.55,-109.02C407.63,-110.27 405.77,-111.59 404,-113 351.71,-154.51 323.01,-233 312.82,-265.9"/>
<polygon fill="#63b8ff" stroke="#63b8ff" points="411.36,-112.02 418.32,-104.03 407.9,-105.93 411.36,-112.02"/>
</a>
</g>
</g>
<!-- Node22&#45;&gt;Node7 -->
<g id="edge31_Node000022_Node000007" class="edge">
<title>Node22&#45;&gt;Node7</title>
<g id="a_edge31_Node000022_Node000007"><a xlink:title=" ">
<path fill="none" stroke="#63b8ff" d="M777.7,-458.45C664.97,-477.95 434.71,-507.09 247,-462 212.98,-453.83 177.53,-432.32 158.69,-419.67"/>
<polygon fill="#63b8ff" stroke="#63b8ff" points="778.34,-461.89 787.58,-456.71 777.12,-455 778.34,-461.89"/>
</a>
</g>
</g>
<!-- Node22&#45;&gt;Node12 -->
<g id="edge34_Node000022_Node000012" class="edge">
<title>Node22&#45;&gt;Node12</title>
<g id="a_edge34_Node000022_Node000012"><a xlink:title=" ">
<path fill="none" stroke="#63b8ff" d="M777.48,-440.42C728.87,-436.85 662.33,-431.28 604,-424 454.77,-405.37 279.73,-374.15 195.42,-358.52"/>
<polygon fill="#63b8ff" stroke="#63b8ff" points="777.34,-443.92 787.57,-441.15 777.85,-436.93 777.34,-443.92"/>
</a>
</g>
</g>
<!-- Node23 -->
<g id="Node000023" class="node">
<title>Node23</title>
<g id="a_Node000023"><a xlink:href="classpolyfem_1_1_state.html#a5ddafd77c68a90e74e41d4591f387f75" target="_top" xlink:title="Remesh the FE space and update solution(s).">
<polygon fill="white" stroke="#666666" points="735,-381.5 604,-381.5 604,-362.5 735,-362.5 735,-381.5"/>
<text text-anchor="middle" x="669.5" y="-369.5" font-family="Helvetica,sans-Serif" font-size="10.00">polyfem::State::remesh</text>
</a>
</g>
</g>
<!-- Node22&#45;&gt;Node23 -->
<g id="edge32_Node000022_Node000023" class="edge">
<title>Node22&#45;&gt;Node23</title>
<g id="a_edge32_Node000022_Node000023"><a xlink:title=" ">
<path fill="none" stroke="#63b8ff" d="M800.65,-425.98C766.24,-411.71 720.58,-392.77 693.49,-381.54"/>
<polygon fill="#63b8ff" stroke="#63b8ff" points="799.45,-429.28 810.03,-429.87 802.14,-422.81 799.45,-429.28"/>
</a>
</g>
</g>
<!-- Node23&#45;&gt;Node16 -->
<g id="edge33_Node000023_Node000016" class="edge">
<title>Node23&#45;&gt;Node16</title>
<g id="a_edge33_Node000023_Node000016"><a xlink:title=" ">
<path fill="none" stroke="#63b8ff" d="M593.7,-369.94C583.28,-369.65 572.57,-369.36 562.14,-369.07"/>
<polygon fill="#63b8ff" stroke="#63b8ff" points="593.91,-373.45 604,-370.22 594.1,-366.45 593.91,-373.45"/>
</a>
</g>
</g>
<!-- Node24&#45;&gt;Node3 -->
<g id="edge36_Node000024_Node000003" class="edge">
<title>Node24&#45;&gt;Node3</title>
<g id="a_edge36_Node000024_Node000003"><a xlink:title=" ">
<path fill="none" stroke="#63b8ff" d="M1502.22,-265.93C1489.55,-268.26 1476.54,-270.65 1464.12,-272.93"/>
<polygon fill="#63b8ff" stroke="#63b8ff" points="1503.09,-269.33 1512.29,-264.08 1501.83,-262.45 1503.09,-269.33"/>
</a>
</g>
</g>
<!-- Node26&#45;&gt;Node3 -->
<g id="edge39_Node000026_Node000003" class="edge">
<title>Node26&#45;&gt;Node3</title>
<g id="a_edge39_Node000026_Node000003"><a xlink:title=" ">
<path fill="none" stroke="#63b8ff" d="M1513.77,-215.51C1509.06,-217.23 1504.43,-219.06 1500,-221 1495.67,-222.9 1447.79,-252.24 1417.57,-270.85"/>
<polygon fill="#63b8ff" stroke="#63b8ff" points="1515.21,-218.72 1523.51,-212.14 1512.92,-212.1 1515.21,-218.72"/>
</a>
</g>
</g>
<!-- Node27 -->
<g id="Node000027" class="node">
<title>Node27</title>
<g id="a_Node000027"><a xlink:href="classpolyfem_1_1io_1_1_out_geometry_data.html#a25fe9752910991469a316afa6687dcde" target="_top" xlink:title="saves the wireframe">
<polygon fill="white" stroke="#666666" points="1464,-233 1320,-233 1320,-203 1464,-203 1464,-233"/>
<text text-anchor="start" x="1328" y="-221" font-family="Helvetica,sans-Serif" font-size="10.00">polyfem::io::OutGeometry</text>
<text text-anchor="middle" x="1392" y="-210" font-family="Helvetica,sans-Serif" font-size="10.00">Data::save_wire</text>
</a>
</g>
</g>
<!-- Node26&#45;&gt;Node27 -->
<g id="edge40_Node000026_Node000027" class="edge">
<title>Node26&#45;&gt;Node27</title>
<g id="a_edge40_Node000026_Node000027"><a xlink:title=" ">
<path fill="none" stroke="#63b8ff" d="M1508.51,-205.27C1493.94,-206.87 1478.71,-208.55 1464.26,-210.14"/>
<polygon fill="#63b8ff" stroke="#63b8ff" points="1508.92,-208.74 1518.47,-204.17 1508.15,-201.79 1508.92,-208.74"/>
</a>
</g>
</g>
<!-- Node27&#45;&gt;Node4 -->
<g id="edge41_Node000027_Node000004" class="edge">
<title>Node27&#45;&gt;Node4</title>
<g id="a_edge41_Node000027_Node000004"><a xlink:title=" ">
<path fill="none" stroke="#63b8ff" d="M1338.87,-236.45C1312.38,-245.83 1280.6,-257.08 1255.6,-265.92"/>
<polygon fill="#63b8ff" stroke="#63b8ff" points="1340.11,-239.73 1348.36,-233.09 1337.77,-233.13 1340.11,-239.73"/>
</a>
</g>
</g>
<!-- Node28&#45;&gt;Node3 -->
<g id="edge43_Node000028_Node000003" class="edge">
<title>Node28&#45;&gt;Node3</title>
<g id="a_edge43_Node000028_Node000003"><a xlink:title=" ">
<path fill="none" stroke="#63b8ff" d="M1523.03,-372.3C1515.14,-369.19 1507.27,-365.75 1500,-362 1466.38,-344.67 1431.37,-317.86 1410.91,-301.15"/>
<polygon fill="#63b8ff" stroke="#63b8ff" points="1522.05,-375.67 1532.64,-375.92 1524.52,-369.12 1522.05,-375.67"/>
</a>
</g>
</g>
</g>
</svg>
