<?xml version="1.0" encoding="UTF-8" standalone="no"?>
<!DOCTYPE svg PUBLIC "-//W3C//DTD SVG 1.1//EN"
 "http://www.w3.org/Graphics/SVG/1.1/DTD/svg11.dtd">
<!-- Generated by graphviz version 2.43.0 (0)
 -->
<!-- Title: polyfem::mesh::MeshProcessing3D::build_connectivity Pages: 1 -->
<svg width="981pt" height="284pt"
 viewBox="0.00 0.00 981.00 284.00" xmlns="http://www.w3.org/2000/svg" xmlns:xlink="http://www.w3.org/1999/xlink">
<g id="graph0" class="graph" transform="scale(1 1) rotate(0) translate(4 280)">
<title>polyfem::mesh::MeshProcessing3D::build_connectivity</title>
<!-- Node1 -->
<g id="Node000001" class="node">
<title>Node1</title>
<g id="a_Node000001"><a xlink:title=" ">
<polygon fill="#999999" stroke="#666666" points="973,-147 792,-147 792,-117 973,-117 973,-147"/>
<text text-anchor="start" x="800" y="-135" font-family="Helvetica,sans-Serif" font-size="10.00">polyfem::mesh::MeshProcessing3</text>
<text text-anchor="middle" x="882.5" y="-124" font-family="Helvetica,sans-Serif" font-size="10.00">D::build_connectivity</text>
</a>
</g>
</g>
<!-- Node2 -->
<g id="Node000002" class="node">
<title>Node2</title>
<g id="a_Node000002"><a xlink:href="classpolyfem_1_1mesh_1_1_c_mesh3_d.html#a3021d435556b2a47a5cec5e0627fc3cc" target="_top" xlink:title=" ">
<polygon fill="white" stroke="#666666" points="742,-276 589,-276 589,-246 742,-246 742,-276"/>
<text text-anchor="start" x="597" y="-264" font-family="Helvetica,sans-Serif" font-size="10.00">polyfem::mesh::CMesh3D</text>
<text text-anchor="middle" x="665.5" y="-253" font-family="Helvetica,sans-Serif" font-size="10.00">::geomesh_2_mesh_storage</text>
</a>
</g>
</g>
<!-- Node1&#45;&gt;Node2 -->
<g id="edge1_Node000001_Node000002" class="edge">
<title>Node1&#45;&gt;Node2</title>
<g id="a_edge1_Node000001_Node000002"><a xlink:title=" ">
<path fill="none" stroke="#63b8ff" d="M860.64,-154.51C837.33,-178.36 797.4,-215.48 756,-237 749.43,-240.41 742.34,-243.37 735.11,-245.94"/>
<polygon fill="#63b8ff" stroke="#63b8ff" points="863.19,-156.9 867.6,-147.27 858.15,-152.05 863.19,-156.9"/>
</a>
</g>
</g>
<!-- Node3 -->
<g id="Node000003" class="node">
<title>Node3</title>
<g id="a_Node000003"><a xlink:href="namespacepolyfem_1_1mesh_1_1_mesh_processing3_d.html#a25bdd715e037020898a20361e0a8e5cc" target="_top" xlink:title=" ">
<polygon fill="white" stroke="#666666" points="756,-228 575,-228 575,-198 756,-198 756,-228"/>
<text text-anchor="start" x="583" y="-216" font-family="Helvetica,sans-Serif" font-size="10.00">polyfem::mesh::MeshProcessing3</text>
<text text-anchor="middle" x="665.5" y="-205" font-family="Helvetica,sans-Serif" font-size="10.00">D::global_orientation_hexes</text>
</a>
</g>
</g>
<!-- Node1&#45;&gt;Node3 -->
<g id="edge2_Node000001_Node000003" class="edge">
<title>Node1&#45;&gt;Node3</title>
<g id="a_edge2_Node000001_Node000003"><a xlink:title=" ">
<path fill="none" stroke="#63b8ff" d="M837.97,-151.03C813.98,-161.28 783.55,-173.85 756,-184 742.97,-188.8 728.73,-193.61 715.51,-197.89"/>
<polygon fill="#63b8ff" stroke="#63b8ff" points="839.36,-154.25 847.17,-147.09 836.6,-147.82 839.36,-154.25"/>
</a>
</g>
</g>
<!-- Node4 -->
<g id="Node000004" class="node">
<title>Node4</title>
<g id="a_Node000004"><a xlink:href="namespacepolyfem_1_1mesh_1_1_navigation3_d.html#a68d9dda6199f10022138537c9f16701a" target="_top" xlink:title=" ">
<polygon fill="white" stroke="#666666" points="526,-199 371,-199 371,-169 526,-169 526,-199"/>
<text text-anchor="start" x="379" y="-187" font-family="Helvetica,sans-Serif" font-size="10.00">polyfem::mesh::Navigation3</text>
<text text-anchor="middle" x="448.5" y="-176" font-family="Helvetica,sans-Serif" font-size="10.00">D::prepare_mesh</text>
</a>
</g>
</g>
<!-- Node1&#45;&gt;Node4 -->
<g id="edge16_Node000001_Node000004" class="edge">
<title>Node1&#45;&gt;Node4</title>
<g id="a_edge16_Node000001_Node000004"><a xlink:title=" ">
<path fill="none" stroke="#63b8ff" d="M781.69,-144.01C703.9,-153.38 597.47,-166.19 526.25,-174.76"/>
<polygon fill="#63b8ff" stroke="#63b8ff" points="782.48,-147.44 791.99,-142.77 781.64,-140.49 782.48,-147.44"/>
</a>
</g>
</g>
<!-- Node10 -->
<g id="Node000010" class="node">
<title>Node10</title>
<g id="a_Node000010"><a xlink:href="namespacepolyfem_1_1mesh_1_1_mesh_processing3_d.html#a9e7226a476a286a41ca81d04b358d12f" target="_top" xlink:title=" ">
<polygon fill="white" stroke="#666666" points="756,-66 575,-66 575,-36 756,-36 756,-66"/>
<text text-anchor="start" x="583" y="-54" font-family="Helvetica,sans-Serif" font-size="10.00">polyfem::mesh::MeshProcessing3</text>
<text text-anchor="middle" x="665.5" y="-43" font-family="Helvetica,sans-Serif" font-size="10.00">D::orient_volume_mesh</text>
</a>
</g>
</g>
<!-- Node1&#45;&gt;Node10 -->
<g id="edge10_Node000001_Node000010" class="edge">
<title>Node1&#45;&gt;Node10</title>
<g id="a_edge10_Node000001_Node000010"><a xlink:title=" ">
<path fill="none" stroke="#63b8ff" d="M837.97,-112.97C813.98,-102.72 783.55,-90.15 756,-80 742.97,-75.2 728.73,-70.39 715.51,-66.11"/>
<polygon fill="#63b8ff" stroke="#63b8ff" points="836.6,-116.18 847.17,-116.91 839.36,-109.75 836.6,-116.18"/>
</a>
</g>
</g>
<!-- Node11 -->
<g id="Node000011" class="node">
<title>Node11</title>
<g id="a_Node000011"><a xlink:href="namespacepolyfem_1_1mesh_1_1_mesh_processing3_d.html#afb7ad06ae12fc5b116c4a57a9c82b6cb" target="_top" xlink:title=" ">
<polygon fill="white" stroke="#666666" points="539,-138 358,-138 358,-108 539,-108 539,-138"/>
<text text-anchor="start" x="366" y="-126" font-family="Helvetica,sans-Serif" font-size="10.00">polyfem::mesh::MeshProcessing3</text>
<text text-anchor="middle" x="448.5" y="-115" font-family="Helvetica,sans-Serif" font-size="10.00">D::refine_catmul_clark_polar</text>
</a>
</g>
</g>
<!-- Node1&#45;&gt;Node11 -->
<g id="edge17_Node000001_Node000011" class="edge">
<title>Node1&#45;&gt;Node11</title>
<g id="a_edge17_Node000001_Node000011"><a xlink:title=" ">
<path fill="none" stroke="#63b8ff" d="M781.83,-129.92C708.63,-128.4 610.03,-126.34 539.27,-124.87"/>
<polygon fill="#63b8ff" stroke="#63b8ff" points="781.92,-133.43 791.99,-130.14 782.06,-126.43 781.92,-133.43"/>
</a>
</g>
</g>
<!-- Node12 -->
<g id="Node000012" class="node">
<title>Node12</title>
<g id="a_Node000012"><a xlink:href="namespacepolyfem_1_1mesh_1_1_mesh_processing3_d.html#a697fe64375970558a7fd4a1cd5a7a16a" target="_top" xlink:title=" ">
<polygon fill="white" stroke="#666666" points="539,-90 358,-90 358,-60 539,-60 539,-90"/>
<text text-anchor="start" x="366" y="-78" font-family="Helvetica,sans-Serif" font-size="10.00">polyfem::mesh::MeshProcessing3</text>
<text text-anchor="middle" x="448.5" y="-67" font-family="Helvetica,sans-Serif" font-size="10.00">D::refine_red_refinement_tet</text>
</a>
</g>
</g>
<!-- Node1&#45;&gt;Node12 -->
<g id="edge18_Node000001_Node000012" class="edge">
<title>Node1&#45;&gt;Node12</title>
<g id="a_edge18_Node000001_Node000012"><a xlink:title=" ">
<path fill="none" stroke="#63b8ff" d="M781.83,-118.85C708.63,-109.19 610.03,-96.18 539.27,-86.84"/>
<polygon fill="#63b8ff" stroke="#63b8ff" points="781.62,-122.35 791.99,-120.19 782.53,-115.41 781.62,-122.35"/>
</a>
</g>
</g>
<!-- Node13 -->
<g id="Node000013" class="node">
<title>Node13</title>
<g id="a_Node000013"><a xlink:href="namespacepolyfem_1_1mesh_1_1_mesh_processing3_d.html#a74a553d7cc6c898fee5dd8664656ff0f" target="_top" xlink:title=" ">
<polygon fill="white" stroke="#666666" points="539,-30 358,-30 358,0 539,0 539,-30"/>
<text text-anchor="start" x="366" y="-18" font-family="Helvetica,sans-Serif" font-size="10.00">polyfem::mesh::MeshProcessing3</text>
<text text-anchor="middle" x="448.5" y="-7" font-family="Helvetica,sans-Serif" font-size="10.00">D::straight_sweeping</text>
</a>
</g>
</g>
<!-- Node1&#45;&gt;Node13 -->
<g id="edge19_Node000001_Node000013" class="edge">
<title>Node1&#45;&gt;Node13</title>
<g id="a_edge19_Node000001_Node000013"><a xlink:title=" ">
<path fill="none" stroke="#63b8ff" d="M862.57,-108.91C840.15,-83.52 800.25,-44.06 756,-27 686.68,-0.28 601.9,0.88 539.09,-3.59"/>
<polygon fill="#63b8ff" stroke="#63b8ff" points="860.03,-111.33 869.21,-116.61 865.33,-106.75 860.03,-111.33"/>
</a>
</g>
</g>
<!-- Node3&#45;&gt;Node4 -->
<g id="edge3_Node000003_Node000004" class="edge">
<title>Node3&#45;&gt;Node4</title>
<g id="a_edge3_Node000003_Node000004"><a xlink:title=" ">
<path fill="none" stroke="#63b8ff" d="M564.61,-199.53C551.75,-197.79 538.75,-196.04 526.33,-194.36"/>
<polygon fill="#63b8ff" stroke="#63b8ff" points="564.5,-203.04 574.88,-200.91 565.44,-196.11 564.5,-203.04"/>
</a>
</g>
</g>
<!-- Node5 -->
<g id="Node000005" class="node">
<title>Node5</title>
<g id="a_Node000005"><a xlink:href="classpolyfem_1_1mesh_1_1_c_mesh3_d.html#ab7c09b7b7b8d3f482197a43c4bdc740c" target="_top" xlink:title="appends a new mesh to the end of this">
<polygon fill="white" stroke="#666666" points="322,-255 179,-255 179,-225 322,-225 322,-255"/>
<text text-anchor="start" x="187" y="-243" font-family="Helvetica,sans-Serif" font-size="10.00">polyfem::mesh::CMesh3D</text>
<text text-anchor="middle" x="250.5" y="-232" font-family="Helvetica,sans-Serif" font-size="10.00">::append</text>
</a>
</g>
</g>
<!-- Node4&#45;&gt;Node5 -->
<g id="edge4_Node000004_Node000005" class="edge">
<title>Node4&#45;&gt;Node5</title>
<g id="a_edge4_Node000004_Node000005"><a xlink:title=" ">
<path fill="none" stroke="#63b8ff" d="M385.19,-201.8C359.11,-209.25 329.12,-217.82 304.17,-224.95"/>
<polygon fill="#63b8ff" stroke="#63b8ff" points="386.32,-205.12 394.98,-199.01 384.4,-198.39 386.32,-205.12"/>
</a>
</g>
</g>
<!-- Node6 -->
<g id="Node000006" class="node">
<title>Node6</title>
<g id="a_Node000006"><a xlink:href="classpolyfem_1_1mesh_1_1_c_mesh3_d.html#a220c5148fc538edf0e54baad422ec6ca" target="_top" xlink:title="loads a mesh from a geo mesh">
<polygon fill="white" stroke="#666666" points="322,-207 179,-207 179,-177 322,-177 322,-207"/>
<text text-anchor="start" x="187" y="-195" font-family="Helvetica,sans-Serif" font-size="10.00">polyfem::mesh::CMesh3D</text>
<text text-anchor="middle" x="250.5" y="-184" font-family="Helvetica,sans-Serif" font-size="10.00">::load</text>
</a>
</g>
</g>
<!-- Node4&#45;&gt;Node6 -->
<g id="edge5_Node000004_Node000006" class="edge">
<title>Node4&#45;&gt;Node6</title>
<g id="a_edge5_Node000004_Node000006"><a xlink:title=" ">
<path fill="none" stroke="#63b8ff" d="M360.67,-187.54C347.84,-188.07 334.76,-188.6 322.31,-189.11"/>
<polygon fill="#63b8ff" stroke="#63b8ff" points="361.03,-191.03 370.88,-187.13 360.74,-184.04 361.03,-191.03"/>
</a>
</g>
</g>
<!-- Node7 -->
<g id="Node000007" class="node">
<title>Node7</title>
<g id="a_Node000007"><a xlink:href="classpolyfem_1_1mesh_1_1_c_mesh3_d.html#ace011af8dec17d947d29c497f10d4a3e" target="_top" xlink:title="loads a mesh from the path">
<polygon fill="white" stroke="#666666" points="322,-141 179,-141 179,-111 322,-111 322,-141"/>
<text text-anchor="start" x="187" y="-129" font-family="Helvetica,sans-Serif" font-size="10.00">polyfem::mesh::CMesh3D</text>
<text text-anchor="middle" x="250.5" y="-118" font-family="Helvetica,sans-Serif" font-size="10.00">::load</text>
</a>
</g>
</g>
<!-- Node4&#45;&gt;Node7 -->
<g id="edge6_Node000004_Node000007" class="edge">
<title>Node4&#45;&gt;Node7</title>
<g id="a_edge6_Node000004_Node000007"><a xlink:title=" ">
<path fill="none" stroke="#63b8ff" d="M387,-166.1C359.88,-158.07 328.24,-148.71 302.36,-141.05"/>
<polygon fill="#63b8ff" stroke="#63b8ff" points="386.19,-169.51 396.77,-168.99 388.17,-162.79 386.19,-169.51"/>
</a>
</g>
</g>
<!-- Node9 -->
<g id="Node000009" class="node">
<title>Node9</title>
<g id="a_Node000009"><a xlink:href="classpolyfem_1_1mesh_1_1_c_mesh3_d.html#a400bfde4af573c7ecf9c89aad4cfb9c0" target="_top" xlink:title="refine the mesh">
<polygon fill="white" stroke="#666666" points="322,-93 179,-93 179,-63 322,-63 322,-93"/>
<text text-anchor="start" x="187" y="-81" font-family="Helvetica,sans-Serif" font-size="10.00">polyfem::mesh::CMesh3D</text>
<text text-anchor="middle" x="250.5" y="-70" font-family="Helvetica,sans-Serif" font-size="10.00">::refine</text>
</a>
</g>
</g>
<!-- Node4&#45;&gt;Node9 -->
<g id="edge9_Node000004_Node000009" class="edge">
<title>Node4&#45;&gt;Node9</title>
<g id="a_edge9_Node000004_Node000009"><a xlink:title=" ">
<path fill="none" stroke="#63b8ff" d="M389.47,-165.04C378.47,-160.09 367.45,-154.1 358,-147 337.52,-131.62 342.96,-116.72 322,-102 317.13,-98.58 311.74,-95.62 306.16,-93.06"/>
<polygon fill="#63b8ff" stroke="#63b8ff" points="388.1,-168.27 398.67,-168.96 390.84,-161.83 388.1,-168.27"/>
</a>
</g>
</g>
<!-- Node7&#45;&gt;Node7 -->
<g id="edge8_Node000007_Node000007" class="edge">
<title>Node7&#45;&gt;Node7</title>
<g id="a_edge8_Node000007_Node000007"><a xlink:title=" ">
<path fill="none" stroke="#63b8ff" d="M281.66,-151.6C277.4,-155.97 267.01,-159 250.5,-159 222.69,-159 212.26,-150.41 219.21,-141.28"/>
<polygon fill="#63b8ff" stroke="#63b8ff" points="285.16,-151.32 281.79,-141.28 278.16,-151.23 285.16,-151.32"/>
</a>
</g>
</g>
<!-- Node8 -->
<g id="Node000008" class="node">
<title>Node8</title>
<g id="a_Node000008"><a xlink:href="classpolyfem_1_1mesh_1_1_c_mesh3_d.html#af1123ef6f116bae8eba79ff266cef933" target="_top" xlink:title="build a mesh from matrices">
<polygon fill="white" stroke="#666666" points="143,-141 0,-141 0,-111 143,-111 143,-141"/>
<text text-anchor="start" x="8" y="-129" font-family="Helvetica,sans-Serif" font-size="10.00">polyfem::mesh::CMesh3D</text>
<text text-anchor="middle" x="71.5" y="-118" font-family="Helvetica,sans-Serif" font-size="10.00">::build_from_matrices</text>
</a>
</g>
</g>
<!-- Node7&#45;&gt;Node8 -->
<g id="edge7_Node000007_Node000008" class="edge">
<title>Node7&#45;&gt;Node8</title>
<g id="a_edge7_Node000007_Node000008"><a xlink:title=" ">
<path fill="none" stroke="#63b8ff" d="M168.51,-126C160.03,-126 151.46,-126 143.11,-126"/>
<polygon fill="#63b8ff" stroke="#63b8ff" points="168.78,-129.5 178.78,-126 168.78,-122.5 168.78,-129.5"/>
</a>
</g>
</g>
<!-- Node10&#45;&gt;Node11 -->
<g id="edge11_Node000010_Node000011" class="edge">
<title>Node10&#45;&gt;Node11</title>
<g id="a_edge11_Node000010_Node000011"><a xlink:title=" ">
<path fill="none" stroke="#63b8ff" d="M618.66,-69.84C595.07,-79.2 565.72,-90.33 539,-99 529.36,-102.13 519.04,-105.17 508.97,-107.98"/>
<polygon fill="#63b8ff" stroke="#63b8ff" points="620.08,-73.04 628.06,-66.08 617.48,-66.54 620.08,-73.04"/>
</a>
</g>
</g>
<!-- Node10&#45;&gt;Node12 -->
<g id="edge13_Node000010_Node000012" class="edge">
<title>Node10&#45;&gt;Node12</title>
<g id="a_edge13_Node000010_Node000012"><a xlink:title=" ">
<path fill="none" stroke="#63b8ff" d="M564.9,-62.12C556.37,-63.07 547.77,-64.03 539.32,-64.97"/>
<polygon fill="#63b8ff" stroke="#63b8ff" points="565.33,-65.59 574.88,-61 564.55,-58.64 565.33,-65.59"/>
</a>
</g>
</g>
<!-- Node10&#45;&gt;Node13 -->
<g id="edge15_Node000010_Node000013" class="edge">
<title>Node10&#45;&gt;Node13</title>
<g id="a_edge15_Node000010_Node000013"><a xlink:title=" ">
<path fill="none" stroke="#63b8ff" d="M564.9,-34.32C556.37,-32.89 547.77,-31.45 539.32,-30.04"/>
<polygon fill="#63b8ff" stroke="#63b8ff" points="564.44,-37.79 574.88,-35.99 565.59,-30.89 564.44,-37.79"/>
</a>
</g>
</g>
<!-- Node11&#45;&gt;Node9 -->
<g id="edge12_Node000011_Node000009" class="edge">
<title>Node11&#45;&gt;Node9</title>
<g id="a_edge12_Node000011_Node000009"><a xlink:title=" ">
<path fill="none" stroke="#63b8ff" d="M372.01,-105.67C353.86,-101.5 334.62,-97.08 316.98,-93.03"/>
<polygon fill="#63b8ff" stroke="#63b8ff" points="371.43,-109.13 381.96,-107.95 373,-102.3 371.43,-109.13"/>
</a>
</g>
</g>
<!-- Node12&#45;&gt;Node9 -->
<g id="edge14_Node000012_Node000009" class="edge">
<title>Node12&#45;&gt;Node9</title>
<g id="a_edge14_Node000012_Node000009"><a xlink:title=" ">
<path fill="none" stroke="#63b8ff" d="M347.67,-76.53C339.02,-76.66 330.4,-76.79 322.06,-76.92"/>
<polygon fill="#63b8ff" stroke="#63b8ff" points="347.87,-80.03 357.82,-76.37 347.76,-73.03 347.87,-80.03"/>
</a>
</g>
</g>
</g>
</svg>
