<?xml version="1.0" encoding="UTF-8" standalone="no"?>
<!DOCTYPE svg PUBLIC "-//W3C//DTD SVG 1.1//EN"
 "http://www.w3.org/Graphics/SVG/1.1/DTD/svg11.dtd">
<!-- Generated by graphviz version 2.43.0 (0)
 -->
<!-- Title: polyfem::utils::json_as_array Pages: 1 -->
<!--zoomable 280 -->

<svg id="main" version="1.1" xmlns="http://www.w3.org/2000/svg" xmlns:xlink="http://www.w3.org/1999/xlink" xml:space="preserve" onload="init(evt)">
<style type="text/css"><![CDATA[
.node, .edge {opacity: 0.7;}
.node.selected, .edge.selected {opacity: 1;}
.edge:hover path { stroke: red; }
.edge:hover polygon { stroke: red; fill: red; }
]]></style>

<defs>
  <circle id="rim" cx="0" cy="0" r="7"/>
  <circle id="rim2" cx="0" cy="0" r="3.5"/>
  <g id="zoomPlus">
    <use xlink:href="#rim" fill="#404040"><set attributeName="fill" to="#808080" begin="zoomplus.mouseover" end="zoomplus.mouseout"/></use>
    <path d="M-4,0h8M0,-4v8" fill="none" stroke="white" stroke-width="1.5" pointer-events="none"/>
  </g>
  <g id="zoomMin">
    <use xlink:href="#rim" fill="#404040"><set attributeName="fill" to="#808080" begin="zoomminus.mouseover" end="zoomminus.mouseout"/></use>
    <path d="M-4,0h8" fill="none" stroke="white" stroke-width="1.5" pointer-events="none"/>
  </g>
  <g id="arrowUp" transform="translate(30 24)">
    <use xlink:href="#rim"/>
    <path pointer-events="none" fill="none" stroke="white" stroke-width="1.5" d="M0,-3.0v7 M-2.5,-0.5L0,-3.0L2.5,-0.5"/>
  </g>
  <g id="arrowRight" transform="rotate(90) translate(36 -43)">
    <use xlink:href="#rim"/>
    <path pointer-events="none" fill="none" stroke="white" stroke-width="1.5" d="M0,-3.0v7 M-2.5,-0.5L0,-3.0L2.5,-0.5"/>
  </g>
  <g id="arrowDown" transform="rotate(180) translate(-30 -48)">
    <use xlink:href="#rim"/>
    <path pointer-events="none" fill="none" stroke="white" stroke-width="1.5" d="M0,-3.0v7 M-2.5,-0.5L0,-3.0L2.5,-0.5"/>
  </g>
  <g id="arrowLeft" transform="rotate(270) translate(-36 17)">
    <use xlink:href="#rim"/>
    <path pointer-events="none" fill="none" stroke="white" stroke-width="1.5" d="M0,-3.0v7 M-2.5,-0.5L0,-3.0L2.5,-0.5"/>
  </g>
  <g id="resetDef">
    <use xlink:href="#rim2" fill="#404040"><set attributeName="fill" to="#808080" begin="reset.mouseover" end="reset.mouseout"/></use>
  </g>
</defs>
<script type="application/ecmascript">
var viewWidth = 1152;
var viewHeight = 280;
var sectionId = 'dynsection-16';
</script>
<script type="application/ecmascript" xlink:href="svg.min.js"/>
<svg id="graph" class="graph">
<g id="viewport">
<title>polyfem::utils::json_as_array</title>
<!-- Node1 -->
<g id="Node000001" class="node">
<title>Node1</title>
<g id="a_Node000001"><a xlink:title=" ">
<polygon fill="#999999" stroke="#666666" points="1144,-110 1034,-110 1034,-80 1144,-80 1144,-110"/>
<text text-anchor="start" x="1042" y="-98" font-family="Helvetica,sans-Serif" font-size="10.00">polyfem::utils::json</text>
<text text-anchor="middle" x="1089" y="-87" font-family="Helvetica,sans-Serif" font-size="10.00">_as_array</text>
</a>
</g>
</g>
<!-- Node2 -->
<g id="Node000002" class="node">
<title>Node2</title>
<g id="a_Node000002"><a xlink:href="classpolyfem_1_1assembler_1_1_generic_mat_params.html#a4a5b3d10801316c5b913e7c316c0ceaa" target="_top" xlink:title=" ">
<polygon fill="white" stroke="#666666" points="970.5,-212.5 849.5,-212.5 849.5,-171.5 970.5,-171.5 970.5,-212.5"/>
<text text-anchor="start" x="857.5" y="-200.5" font-family="Helvetica,sans-Serif" font-size="10.00">polyfem::assembler</text>
<text text-anchor="start" x="857.5" y="-189.5" font-family="Helvetica,sans-Serif" font-size="10.00">::GenericMatParams::</text>
<text text-anchor="middle" x="910" y="-178.5" font-family="Helvetica,sans-Serif" font-size="10.00">add_multimaterial</text>
</a>
</g>
</g>
<!-- Node1&#45;&gt;Node2 -->
<g id="edge1_Node000001_Node000002" class="edge">
<title>Node1&#45;&gt;Node2</title>
<g id="a_edge1_Node000001_Node000002"><a xlink:title=" ">
<path fill="none" stroke="#63b8ff" d="M1063.22,-116.74C1045.89,-131.09 1021.68,-149.49 998,-162 989.38,-166.55 979.93,-170.64 970.54,-174.22"/>
<polygon fill="#63b8ff" stroke="#63b8ff" points="1065.76,-119.18 1071.15,-110.06 1061.25,-113.82 1065.76,-119.18"/>
</a>
</g>
</g>
<!-- Node6 -->
<g id="Node000006" class="node">
<title>Node6</title>
<g id="a_Node000006"><a xlink:href="classpolyfem_1_1solver_1_1_solve_data.html#a709768d4be4b0aced18459a54d30fd45" target="_top" xlink:title="Initialize the forms and return a vector of pointers to them.">
<polygon fill="white" stroke="#666666" points="984.5,-153 835.5,-153 835.5,-123 984.5,-123 984.5,-153"/>
<text text-anchor="start" x="843.5" y="-141" font-family="Helvetica,sans-Serif" font-size="10.00">polyfem::solver::SolveData</text>
<text text-anchor="middle" x="910" y="-130" font-family="Helvetica,sans-Serif" font-size="10.00">::init_forms</text>
</a>
</g>
</g>
<!-- Node1&#45;&gt;Node6 -->
<g id="edge6_Node000001_Node000006" class="edge">
<title>Node1&#45;&gt;Node6</title>
<g id="a_edge6_Node000001_Node000006"><a xlink:title=" ">
<path fill="none" stroke="#63b8ff" d="M1023.77,-110.6C1007.14,-114.64 989.28,-118.98 972.79,-122.99"/>
<polygon fill="#63b8ff" stroke="#63b8ff" points="1025.04,-113.9 1033.93,-108.14 1023.39,-107.09 1025.04,-113.9"/>
</a>
</g>
</g>
<!-- Node14 -->
<g id="Node000014" class="node">
<title>Node14</title>
<g id="a_Node000014"><a xlink:href="classpolyfem_1_1_state.html#a37cc0825d6cd66410b5c1a0c46778a9f" target="_top" xlink:title="loads the mesh from the json arguments">
<polygon fill="white" stroke="#666666" points="984,-104.5 836,-104.5 836,-85.5 984,-85.5 984,-104.5"/>
<text text-anchor="middle" x="910" y="-92.5" font-family="Helvetica,sans-Serif" font-size="10.00">polyfem::State::load_mesh</text>
</a>
</g>
</g>
<!-- Node1&#45;&gt;Node14 -->
<g id="edge15_Node000001_Node000014" class="edge">
<title>Node1&#45;&gt;Node14</title>
<g id="a_edge15_Node000001_Node000014"><a xlink:title=" ">
<path fill="none" stroke="#63b8ff" d="M1023.82,-95C1010.99,-95 997.41,-95 984.29,-95"/>
<polygon fill="#63b8ff" stroke="#63b8ff" points="1023.93,-98.5 1033.93,-95 1023.93,-91.5 1023.93,-98.5"/>
</a>
</g>
</g>
<!-- Node16 -->
<g id="Node000016" class="node">
<title>Node16</title>
<g id="a_Node000016"><a xlink:href="classpolyfem_1_1_state.html#a2d7e06f66912cc77b1d942340211ddb9" target="_top" xlink:title="loads the mesh from a geogram mesh">
<polygon fill="white" stroke="#666666" points="984,-67.5 836,-67.5 836,-48.5 984,-48.5 984,-67.5"/>
<text text-anchor="middle" x="910" y="-55.5" font-family="Helvetica,sans-Serif" font-size="10.00">polyfem::State::load_mesh</text>
</a>
</g>
</g>
<!-- Node1&#45;&gt;Node16 -->
<g id="edge18_Node000001_Node000016" class="edge">
<title>Node1&#45;&gt;Node16</title>
<g id="a_edge18_Node000001_Node000016"><a xlink:title=" ">
<path fill="none" stroke="#63b8ff" d="M1023.7,-81.39C1015.06,-79.57 1006.31,-77.74 998,-76 984.86,-73.25 970.61,-70.3 957.51,-67.59"/>
<polygon fill="#63b8ff" stroke="#63b8ff" points="1023.25,-84.87 1033.75,-83.51 1024.69,-78.02 1023.25,-84.87"/>
</a>
</g>
</g>
<!-- Node17 -->
<g id="Node000017" class="node">
<title>Node17</title>
<g id="a_Node000017"><a xlink:href="classpolyfem_1_1problem_1_1_node_problem.html#a2855592ddcb2cfc34343a3a16bc36192" target="_top" xlink:title=" ">
<polygon fill="white" stroke="#666666" points="998,-30 822,-30 822,0 998,0 998,-30"/>
<text text-anchor="start" x="830" y="-18" font-family="Helvetica,sans-Serif" font-size="10.00">polyfem::problem::NodeProblem</text>
<text text-anchor="middle" x="910" y="-7" font-family="Helvetica,sans-Serif" font-size="10.00">::set_parameters</text>
</a>
</g>
</g>
<!-- Node1&#45;&gt;Node17 -->
<g id="edge19_Node000001_Node000017" class="edge">
<title>Node1&#45;&gt;Node17</title>
<g id="a_edge19_Node000001_Node000017"><a xlink:title=" ">
<path fill="none" stroke="#63b8ff" d="M1059.08,-74.02C1041.98,-62.39 1019.53,-48.43 998,-39 990.39,-35.67 982.21,-32.69 974.01,-30.05"/>
<polygon fill="#63b8ff" stroke="#63b8ff" points="1057.28,-77.03 1067.49,-79.84 1061.26,-71.27 1057.28,-77.03"/>
</a>
</g>
</g>
<!-- Node3 -->
<g id="Node000003" class="node">
<title>Node3</title>
<g id="a_Node000003"><a xlink:href="classpolyfem_1_1assembler_1_1_unconstrained_ogden_elasticity.html#a9fd2b1a9becb2c7f687358aa9f987fd9" target="_top" xlink:title=" ">
<polygon fill="white" stroke="#666666" points="784.5,-271.5 614.5,-271.5 614.5,-230.5 784.5,-230.5 784.5,-271.5"/>
<text text-anchor="start" x="622.5" y="-259.5" font-family="Helvetica,sans-Serif" font-size="10.00">polyfem::assembler</text>
<text text-anchor="start" x="622.5" y="-248.5" font-family="Helvetica,sans-Serif" font-size="10.00">::UnconstrainedOgdenElasticity</text>
<text text-anchor="middle" x="699.5" y="-237.5" font-family="Helvetica,sans-Serif" font-size="10.00">::add_multimaterial</text>
</a>
</g>
</g>
<!-- Node2&#45;&gt;Node3 -->
<g id="edge2_Node000002_Node000003" class="edge">
<title>Node2&#45;&gt;Node3</title>
<g id="a_edge2_Node000002_Node000003"><a xlink:title=" ">
<path fill="none" stroke="#63b8ff" d="M839.62,-211.63C818.29,-217.67 794.76,-224.33 773.21,-230.42"/>
<polygon fill="#63b8ff" stroke="#63b8ff" points="840.58,-215 849.25,-208.91 838.68,-208.26 840.58,-215"/>
</a>
</g>
</g>
<!-- Node5 -->
<g id="Node000005" class="node">
<title>Node5</title>
<g id="a_Node000005"><a xlink:href="classpolyfem_1_1assembler_1_1_incompressible_ogden_elasticity.html#a0f06f0673b1c383d07164a789b5bbc63" target="_top" xlink:title=" ">
<polygon fill="white" stroke="#666666" points="786,-212.5 613,-212.5 613,-171.5 786,-171.5 786,-212.5"/>
<text text-anchor="start" x="621" y="-200.5" font-family="Helvetica,sans-Serif" font-size="10.00">polyfem::assembler</text>
<text text-anchor="start" x="621" y="-189.5" font-family="Helvetica,sans-Serif" font-size="10.00">::IncompressibleOgdenElasticity</text>
<text text-anchor="middle" x="699.5" y="-178.5" font-family="Helvetica,sans-Serif" font-size="10.00">::add_multimaterial</text>
</a>
</g>
</g>
<!-- Node2&#45;&gt;Node5 -->
<g id="edge4_Node000002_Node000005" class="edge">
<title>Node2&#45;&gt;Node5</title>
<g id="a_edge4_Node000002_Node000005"><a xlink:title=" ">
<path fill="none" stroke="#63b8ff" d="M838.93,-192C822.04,-192 803.8,-192 786.28,-192"/>
<polygon fill="#63b8ff" stroke="#63b8ff" points="839.25,-195.5 849.25,-192 839.25,-188.5 839.25,-195.5"/>
</a>
</g>
</g>
<!-- Node4 -->
<g id="Node000004" class="node">
<title>Node4</title>
<g id="a_Node000004"><a xlink:href="classpolyfem_1_1assembler_1_1_multi_model.html#a3e13177b51597598e2b79c4f781ff600" target="_top" xlink:title=" ">
<polygon fill="white" stroke="#666666" points="577,-252 404,-252 404,-222 577,-222 577,-252"/>
<text text-anchor="start" x="412" y="-240" font-family="Helvetica,sans-Serif" font-size="10.00">polyfem::assembler</text>
<text text-anchor="middle" x="490.5" y="-229" font-family="Helvetica,sans-Serif" font-size="10.00">::MultiModel::add_multimaterial</text>
</a>
</g>
</g>
<!-- Node3&#45;&gt;Node4 -->
<g id="edge3_Node000003_Node000004" class="edge">
<title>Node3&#45;&gt;Node4</title>
<g id="a_edge3_Node000003_Node000004"><a xlink:title=" ">
<path fill="none" stroke="#63b8ff" d="M604.23,-244.62C595.25,-244.02 586.19,-243.4 577.3,-242.8"/>
<polygon fill="#63b8ff" stroke="#63b8ff" points="604.09,-248.12 614.31,-245.31 604.56,-241.14 604.09,-248.12"/>
</a>
</g>
</g>
<!-- Node5&#45;&gt;Node4 -->
<g id="edge5_Node000005_Node000004" class="edge">
<title>Node5&#45;&gt;Node4</title>
<g id="a_edge5_Node000005_Node000004"><a xlink:title=" ">
<path fill="none" stroke="#63b8ff" d="M602.99,-212.76C588.74,-215.86 574.29,-219 560.72,-221.95"/>
<polygon fill="#63b8ff" stroke="#63b8ff" points="603.78,-216.17 612.81,-210.63 602.3,-209.33 603.78,-216.17"/>
</a>
</g>
</g>
<!-- Node7 -->
<g id="Node000007" class="node">
<title>Node7</title>
<g id="a_Node000007"><a xlink:href="classpolyfem_1_1_state.html#ae0de6ea3bdc69e3e21ddfbcdb144180b" target="_top" xlink:title="initialize the nonlinear solver">
<polygon fill="white" stroke="#666666" points="767,-153 632,-153 632,-123 767,-123 767,-153"/>
<text text-anchor="start" x="640" y="-141" font-family="Helvetica,sans-Serif" font-size="10.00">polyfem::State::init</text>
<text text-anchor="middle" x="699.5" y="-130" font-family="Helvetica,sans-Serif" font-size="10.00">_nonlinear_tensor_solve</text>
</a>
</g>
</g>
<!-- Node6&#45;&gt;Node7 -->
<g id="edge7_Node000006_Node000007" class="edge">
<title>Node6&#45;&gt;Node7</title>
<g id="a_edge7_Node000006_Node000007"><a xlink:title=" ">
<path fill="none" stroke="#63b8ff" d="M825.45,-138C806.05,-138 785.65,-138 767.09,-138"/>
<polygon fill="#63b8ff" stroke="#63b8ff" points="825.49,-141.5 835.49,-138 825.49,-134.5 825.49,-141.5"/>
</a>
</g>
</g>
<!-- Node8 -->
<g id="Node000008" class="node">
<title>Node8</title>
<g id="a_Node000008"><a xlink:href="classpolyfem_1_1_state.html#a7450ef7c42dd9c523e1be73a5819117d" target="_top" xlink:title="solves the problems">
<polygon fill="white" stroke="#666666" points="368,-153 247,-153 247,-123 368,-123 368,-153"/>
<text text-anchor="start" x="255" y="-141" font-family="Helvetica,sans-Serif" font-size="10.00">polyfem::State::solve</text>
<text text-anchor="middle" x="307.5" y="-130" font-family="Helvetica,sans-Serif" font-size="10.00">_problem</text>
</a>
</g>
</g>
<!-- Node7&#45;&gt;Node8 -->
<g id="edge8_Node000007_Node000008" class="edge">
<title>Node7&#45;&gt;Node8</title>
<g id="a_edge8_Node000007_Node000008"><a xlink:title=" ">
<path fill="none" stroke="#63b8ff" d="M624.43,-155.01C608.84,-157.92 592.45,-160.49 577,-162 500.48,-169.49 480.31,-171.44 404,-162 389.07,-160.15 373.12,-156.74 358.61,-153.06"/>
<polygon fill="#63b8ff" stroke="#63b8ff" points="625.38,-158.4 634.53,-153.06 624.05,-151.52 625.38,-158.4"/>
</a>
</g>
</g>
<!-- Node13 -->
<g id="Node000013" class="node">
<title>Node13</title>
<g id="a_Node000013"><a xlink:href="classpolyfem_1_1_state.html#a4d91e8c971fc121b0cff2f0c02ca79e7" target="_top" xlink:title="solves transient tensor nonlinear problem">
<polygon fill="white" stroke="#666666" points="566.5,-153 414.5,-153 414.5,-123 566.5,-123 566.5,-153"/>
<text text-anchor="start" x="422.5" y="-141" font-family="Helvetica,sans-Serif" font-size="10.00">polyfem::State::solve</text>
<text text-anchor="middle" x="490.5" y="-130" font-family="Helvetica,sans-Serif" font-size="10.00">_transient_tensor_nonlinear</text>
</a>
</g>
</g>
<!-- Node7&#45;&gt;Node13 -->
<g id="edge13_Node000007_Node000013" class="edge">
<title>Node7&#45;&gt;Node13</title>
<g id="a_edge13_Node000007_Node000013"><a xlink:title=" ">
<path fill="none" stroke="#63b8ff" d="M621.71,-138C603.71,-138 584.56,-138 566.63,-138"/>
<polygon fill="#63b8ff" stroke="#63b8ff" points="621.86,-141.5 631.86,-138 621.86,-134.5 621.86,-141.5"/>
</a>
</g>
</g>
<!-- Node9 -->
<g id="Node000009" class="node">
<title>Node9</title>
<g id="a_Node000009"><a xlink:href="main_8cpp.html#a48e4775e12bdf81ebb0eaa27df888aa0" target="_top" xlink:title=" ">
<polygon fill="white" stroke="#666666" points="199.5,-104.5 88.5,-104.5 88.5,-85.5 199.5,-85.5 199.5,-104.5"/>
<text text-anchor="middle" x="144" y="-92.5" font-family="Helvetica,sans-Serif" font-size="10.00">forward_simulation</text>
</a>
</g>
</g>
<!-- Node8&#45;&gt;Node9 -->
<g id="edge9_Node000008_Node000009" class="edge">
<title>Node8&#45;&gt;Node9</title>
<g id="a_edge9_Node000008_Node000009"><a xlink:title=" ">
<path fill="none" stroke="#63b8ff" d="M240.2,-120.35C219.95,-114.95 198.44,-109.23 181.01,-104.59"/>
<polygon fill="#63b8ff" stroke="#63b8ff" points="239.45,-123.77 250.02,-122.96 241.25,-117.01 239.45,-123.77"/>
</a>
</g>
</g>
<!-- Node11 -->
<g id="Node000011" class="node">
<title>Node11</title>
<g id="a_Node000011"><a xlink:href="classpolyfem_1_1_state.html#a219f9935d918f739d82488449bd4cbf4" target="_top" xlink:title="solves the problem, call other methods">
<polygon fill="white" stroke="#666666" points="204.5,-190.5 83.5,-190.5 83.5,-171.5 204.5,-171.5 204.5,-190.5"/>
<text text-anchor="middle" x="144" y="-178.5" font-family="Helvetica,sans-Serif" font-size="10.00">polyfem::State::solve</text>
</a>
</g>
</g>
<!-- Node8&#45;&gt;Node11 -->
<g id="edge11_Node000008_Node000011" class="edge">
<title>Node8&#45;&gt;Node11</title>
<g id="a_edge11_Node000008_Node000011"><a xlink:title=" ">
<path fill="none" stroke="#63b8ff" d="M240.2,-155.65C219.95,-161.05 198.44,-166.77 181.01,-171.41"/>
<polygon fill="#63b8ff" stroke="#63b8ff" points="241.25,-158.99 250.02,-153.04 239.45,-152.23 241.25,-158.99"/>
</a>
</g>
</g>
<!-- Node12 -->
<g id="Node000012" class="node">
<title>Node12</title>
<g id="a_Node000012"><a xlink:href="structpolyfem_1_1solver_1_1_adjoint_opt_utils.html#acac3e8ce8646ddd1544ed034c71bec96" target="_top" xlink:title=" ">
<polygon fill="white" stroke="#666666" points="211,-153 77,-153 77,-123 211,-123 211,-153"/>
<text text-anchor="start" x="85" y="-141" font-family="Helvetica,sans-Serif" font-size="10.00">polyfem::solver::Adjoint</text>
<text text-anchor="middle" x="144" y="-130" font-family="Helvetica,sans-Serif" font-size="10.00">OptUtils::solve_pde</text>
</a>
</g>
</g>
<!-- Node8&#45;&gt;Node12 -->
<g id="edge12_Node000008_Node000012" class="edge">
<title>Node8&#45;&gt;Node12</title>
<g id="a_edge12_Node000008_Node000012"><a xlink:title=" ">
<path fill="none" stroke="#63b8ff" d="M236.64,-138C228.21,-138 219.61,-138 211.23,-138"/>
<polygon fill="#63b8ff" stroke="#63b8ff" points="236.82,-141.5 246.82,-138 236.82,-134.5 236.82,-141.5"/>
</a>
</g>
</g>
<!-- Node10 -->
<g id="Node000010" class="node">
<title>Node10</title>
<g id="a_Node000010"><a xlink:href="main_8cpp.html#a3c04138a5bfe5d72780bb7e82a18e627" target="_top" xlink:title=" ">
<polygon fill="white" stroke="#666666" points="41,-104.5 0,-104.5 0,-85.5 41,-85.5 41,-104.5"/>
<text text-anchor="middle" x="20.5" y="-92.5" font-family="Helvetica,sans-Serif" font-size="10.00">main</text>
</a>
</g>
</g>
<!-- Node9&#45;&gt;Node10 -->
<g id="edge10_Node000009_Node000010" class="edge">
<title>Node9&#45;&gt;Node10</title>
<g id="a_edge10_Node000009_Node000010"><a xlink:title=" ">
<path fill="none" stroke="#63b8ff" d="M77.97,-95C64.49,-95 51.29,-95 41.05,-95"/>
<polygon fill="#63b8ff" stroke="#63b8ff" points="78.29,-98.5 88.29,-95 78.29,-91.5 78.29,-98.5"/>
</a>
</g>
</g>
<!-- Node13&#45;&gt;Node8 -->
<g id="edge14_Node000013_Node000008" class="edge">
<title>Node13&#45;&gt;Node8</title>
<g id="a_edge14_Node000013_Node000008"><a xlink:title=" ">
<path fill="none" stroke="#63b8ff" d="M404.11,-138C391.9,-138 379.58,-138 368.01,-138"/>
<polygon fill="#63b8ff" stroke="#63b8ff" points="404.31,-141.5 414.31,-138 404.31,-134.5 404.31,-141.5"/>
</a>
</g>
</g>
<!-- Node14&#45;&gt;Node9 -->
<g id="edge16_Node000014_Node000009" class="edge">
<title>Node14&#45;&gt;Node9</title>
<g id="a_edge16_Node000014_Node000009"><a xlink:title=" ">
<path fill="none" stroke="#63b8ff" d="M825.64,-95C668.29,-95 331.46,-95 199.56,-95"/>
<polygon fill="#63b8ff" stroke="#63b8ff" points="825.74,-98.5 835.74,-95 825.74,-91.5 825.74,-98.5"/>
</a>
</g>
</g>
<!-- Node15 -->
<g id="Node000015" class="node">
<title>Node15</title>
<g id="a_Node000015"><a xlink:href="classpolyfem_1_1_state.html#a4ce16a4580b29c071e8fd84fbada3497" target="_top" xlink:title="loads the mesh from V and F,">
<polygon fill="white" stroke="#666666" points="773.5,-66.5 625.5,-66.5 625.5,-47.5 773.5,-47.5 773.5,-66.5"/>
<text text-anchor="middle" x="699.5" y="-54.5" font-family="Helvetica,sans-Serif" font-size="10.00">polyfem::State::load_mesh</text>
</a>
</g>
</g>
<!-- Node14&#45;&gt;Node15 -->
<g id="edge17_Node000014_Node000015" class="edge">
<title>Node14&#45;&gt;Node15</title>
<g id="a_edge17_Node000014_Node000015"><a xlink:title=" ">
<path fill="none" stroke="#63b8ff" d="M846.74,-83.65C816.83,-78.2 781.37,-71.74 752.87,-66.54"/>
<polygon fill="#63b8ff" stroke="#63b8ff" points="846.19,-87.11 856.66,-85.46 847.45,-80.22 846.19,-87.11"/>
</a>
</g>
</g>
</g>
</svg>

<g id="navigator" transform="translate(0 0)" fill="#404254">
  <rect fill="#f2f5e9" fill-opacity="0.5" stroke="#606060" stroke-width=".5" x="0" y="0" width="60" height="60"/>
  <use id="zoomplus" xlink:href="#zoomPlus" x="17" y="9" onmousedown="handleZoom(evt,'in')"/>
  <use id="zoomminus" xlink:href="#zoomMin" x="42" y="9" onmousedown="handleZoom(evt,'out')"/>
  <use id="reset" xlink:href="#resetDef" x="30" y="36" onmousedown="handleReset()"/>
   <use id="arrowup" xlink:href="#arrowUp" x="0" y="0" onmousedown="handlePan(0,-1)"/>
  <use id="arrowright" xlink:href="#arrowRight" x="0" y="0" onmousedown="handlePan(1,0)"/>
  <use id="arrowdown" xlink:href="#arrowDown" x="0" y="0" onmousedown="handlePan(0,1)"/>
  <use id="arrowleft" xlink:href="#arrowLeft" x="0" y="0" onmousedown="handlePan(-1,0)"/>
</g>
<svg viewBox="0 0 15 15" width="100%" height="30px" preserveAspectRatio="xMaxYMin meet">
 <g id="arrow_out" transform="scale(0.3 0.3)">
  <a xlink:href="namespacepolyfem_1_1utils_a96bdecaf2191cf4146f7bb0d850c47f3_icgraph_org.svg" target="_base">
   <rect id="button" ry="5" rx="5" y="6" x="6" height="38" width="38"
        fill="#f2f5e9" fill-opacity="0.5" stroke="#606060" stroke-width="1.0"/>
   <path id="arrow"
     d="M 11.500037,31.436501 C 11.940474,20.09759 22.043105,11.32322 32.158766,21.979434 L 37.068811,17.246167 C 37.068811,17.246167 37.088388,32 37.088388,32 L 22.160133,31.978069 C 22.160133,31.978069 26.997745,27.140456 26.997745,27.140456 C 18.528582,18.264221 13.291696,25.230495 11.500037,31.436501 z"
     style="fill:#404040;"/>
  </a>
 </g>
</svg>

<style type='text/css'>
<![CDATA[
[data-mouse-over-selected='false'] { opacity: 0.7; }
[data-mouse-over-selected='true']  { opacity: 1.0; }
]]>
</style>
<script type="application/ecmascript"><![CDATA[
document.addEventListener('DOMContentLoaded', (event) => {
  highlightEdges();
  highlightAdjacentNodes();
});
]]></script>
</svg>
