<?xml version="1.0" encoding="UTF-8" standalone="no"?>
<!DOCTYPE svg PUBLIC "-//W3C//DTD SVG 1.1//EN"
 "http://www.w3.org/Graphics/SVG/1.1/DTD/svg11.dtd">
<!-- Generated by graphviz version 2.43.0 (0)
 -->
<!-- Title: polyfem::mesh::max_edge_length Pages: 1 -->
<!--zoomable 289 -->

<svg id="main" version="1.1" xmlns="http://www.w3.org/2000/svg" xmlns:xlink="http://www.w3.org/1999/xlink" xml:space="preserve" onload="init(evt)">
<style type="text/css"><![CDATA[
.node, .edge {opacity: 0.7;}
.node.selected, .edge.selected {opacity: 1;}
.edge:hover path { stroke: red; }
.edge:hover polygon { stroke: red; fill: red; }
]]></style>

<defs>
  <circle id="rim" cx="0" cy="0" r="7"/>
  <circle id="rim2" cx="0" cy="0" r="3.5"/>
  <g id="zoomPlus">
    <use xlink:href="#rim" fill="#404040"><set attributeName="fill" to="#808080" begin="zoomplus.mouseover" end="zoomplus.mouseout"/></use>
    <path d="M-4,0h8M0,-4v8" fill="none" stroke="white" stroke-width="1.5" pointer-events="none"/>
  </g>
  <g id="zoomMin">
    <use xlink:href="#rim" fill="#404040"><set attributeName="fill" to="#808080" begin="zoomminus.mouseover" end="zoomminus.mouseout"/></use>
    <path d="M-4,0h8" fill="none" stroke="white" stroke-width="1.5" pointer-events="none"/>
  </g>
  <g id="arrowUp" transform="translate(30 24)">
    <use xlink:href="#rim"/>
    <path pointer-events="none" fill="none" stroke="white" stroke-width="1.5" d="M0,-3.0v7 M-2.5,-0.5L0,-3.0L2.5,-0.5"/>
  </g>
  <g id="arrowRight" transform="rotate(90) translate(36 -43)">
    <use xlink:href="#rim"/>
    <path pointer-events="none" fill="none" stroke="white" stroke-width="1.5" d="M0,-3.0v7 M-2.5,-0.5L0,-3.0L2.5,-0.5"/>
  </g>
  <g id="arrowDown" transform="rotate(180) translate(-30 -48)">
    <use xlink:href="#rim"/>
    <path pointer-events="none" fill="none" stroke="white" stroke-width="1.5" d="M0,-3.0v7 M-2.5,-0.5L0,-3.0L2.5,-0.5"/>
  </g>
  <g id="arrowLeft" transform="rotate(270) translate(-36 17)">
    <use xlink:href="#rim"/>
    <path pointer-events="none" fill="none" stroke="white" stroke-width="1.5" d="M0,-3.0v7 M-2.5,-0.5L0,-3.0L2.5,-0.5"/>
  </g>
  <g id="resetDef">
    <use xlink:href="#rim2" fill="#404040"><set attributeName="fill" to="#808080" begin="reset.mouseover" end="reset.mouseout"/></use>
  </g>
</defs>
<script type="application/ecmascript">
var viewWidth = 1191;
var viewHeight = 289;
var sectionId = 'dynsection-48';
</script>
<script type="application/ecmascript" xlink:href="svg.min.js"/>
<svg id="graph" class="graph">
<g id="viewport">
<title>polyfem::mesh::max_edge_length</title>
<!-- Node1 -->
<g id="Node000001" class="node">
<title>Node1</title>
<g id="a_Node000001"><a xlink:title="Compute the maximum edge length of a triangle mesh (V, F)">
<polygon fill="#999999" stroke="#666666" points="1183,-154 1065,-154 1065,-124 1183,-124 1183,-154"/>
<text text-anchor="start" x="1073" y="-142" font-family="Helvetica,sans-Serif" font-size="10.00">polyfem::mesh::max</text>
<text text-anchor="middle" x="1124" y="-131" font-family="Helvetica,sans-Serif" font-size="10.00">_edge_length</text>
</a>
</g>
</g>
<!-- Node1&#45;&gt;Node1 -->
<g id="edge10_Node000001_Node000001" class="edge">
<title>Node1&#45;&gt;Node1</title>
<g id="a_edge10_Node000001_Node000001"><a xlink:title=" ">
<path fill="none" stroke="#63b8ff" d="M1155.16,-164.6C1150.9,-168.97 1140.51,-172 1124,-172 1096.19,-172 1085.76,-163.41 1092.71,-154.28"/>
<polygon fill="#63b8ff" stroke="#63b8ff" points="1158.66,-164.32 1155.29,-154.28 1151.66,-164.23 1158.66,-164.32"/>
</a>
</g>
</g>
<!-- Node2 -->
<g id="Node000002" class="node">
<title>Node2</title>
<g id="a_Node000002"><a xlink:href="namespacepolyfem_1_1mesh.html#a290ded340a51fb051467b479ff7dfccc" target="_top" xlink:title=" ">
<polygon fill="white" stroke="#666666" points="275,-118 155,-118 155,-88 275,-88 275,-118"/>
<text text-anchor="start" x="163" y="-106" font-family="Helvetica,sans-Serif" font-size="10.00">polyfem::mesh::build</text>
<text text-anchor="middle" x="215" y="-95" font-family="Helvetica,sans-Serif" font-size="10.00">_collision_proxy</text>
</a>
</g>
</g>
<!-- Node1&#45;&gt;Node2 -->
<g id="edge1_Node000001_Node000002" class="edge">
<title>Node1&#45;&gt;Node2</title>
<g id="a_edge1_Node000001_Node000002"><a xlink:title=" ">
<path fill="none" stroke="#63b8ff" d="M1078.91,-120.06C1063.36,-113.93 1045.61,-107.55 1029,-103 914.2,-71.56 884.03,-58 765,-58 765,-58 765,-58 596.5,-58 469.33,-58 436.4,-55.89 311,-77 295.49,-79.61 278.85,-83.7 263.91,-87.88"/>
<polygon fill="#63b8ff" stroke="#63b8ff" points="1077.7,-123.34 1088.28,-123.82 1080.31,-116.85 1077.7,-123.34"/>
</a>
</g>
</g>
<!-- Node4 -->
<g id="Node000004" class="node">
<title>Node4</title>
<g id="a_Node000004"><a xlink:href="classpolyfem_1_1mesh_1_1_wild_remesher.html#afc60dd47618c862c91fe57caf5505651" target="_top" xlink:title=" ">
<polygon fill="white" stroke="#666666" points="1029,-237 862,-237 862,-207 1029,-207 1029,-237"/>
<text text-anchor="start" x="870" y="-225" font-family="Helvetica,sans-Serif" font-size="10.00">polyfem::mesh::WildRemesher</text>
<text text-anchor="middle" x="945.5" y="-214" font-family="Helvetica,sans-Serif" font-size="10.00">::collapse_edge_before</text>
</a>
</g>
</g>
<!-- Node1&#45;&gt;Node4 -->
<g id="edge3_Node000001_Node000004" class="edge">
<title>Node1&#45;&gt;Node4</title>
<g id="a_edge3_Node000001_Node000004"><a xlink:title=" ">
<path fill="none" stroke="#63b8ff" d="M1090.86,-159.42C1073.05,-170.24 1050.27,-183.25 1029,-193 1017.96,-198.06 1005.76,-202.79 994.21,-206.9"/>
<polygon fill="#63b8ff" stroke="#63b8ff" points="1093,-162.22 1099.68,-154 1089.33,-156.26 1093,-162.22"/>
</a>
</g>
</g>
<!-- Node5 -->
<g id="Node000005" class="node">
<title>Node5</title>
<g id="a_Node000005"><a xlink:href="namespacepolyfem_1_1mesh.html#a679b727e7e467d38ebf4af60e8b600c3" target="_top" xlink:title="Tessilate a triangle mesh (V, F) with well shaped triangles.">
<polygon fill="white" stroke="#666666" points="470.5,-116 333.5,-116 333.5,-86 470.5,-86 470.5,-116"/>
<text text-anchor="start" x="341.5" y="-104" font-family="Helvetica,sans-Serif" font-size="10.00">polyfem::mesh::irregular</text>
<text text-anchor="middle" x="402" y="-93" font-family="Helvetica,sans-Serif" font-size="10.00">_tessellation</text>
</a>
</g>
</g>
<!-- Node1&#45;&gt;Node5 -->
<g id="edge4_Node000001_Node000005" class="edge">
<title>Node1&#45;&gt;Node5</title>
<g id="a_edge4_Node000001_Node000005"><a xlink:title=" ">
<path fill="none" stroke="#63b8ff" d="M1054.77,-123.81C1046.13,-122.3 1037.38,-120.97 1029,-120 827.01,-96.69 586.09,-97.3 470.9,-99.32"/>
<polygon fill="#63b8ff" stroke="#63b8ff" points="1054.36,-127.29 1064.83,-125.65 1055.62,-120.4 1054.36,-127.29"/>
</a>
</g>
</g>
<!-- Node6 -->
<g id="Node000006" class="node">
<title>Node6</title>
<g id="a_Node000006"><a xlink:href="namespacepolyfem_1_1mesh.html#a521aec8d19df9ccbe3493d7d6d97c451" target="_top" xlink:title="Refine a triangle (a, b, c) into a well shaped triangle mesh.">
<polygon fill="white" stroke="#666666" points="666,-159 529,-159 529,-129 666,-129 666,-159"/>
<text text-anchor="start" x="537" y="-147" font-family="Helvetica,sans-Serif" font-size="10.00">polyfem::mesh::irregular</text>
<text text-anchor="middle" x="597.5" y="-136" font-family="Helvetica,sans-Serif" font-size="10.00">_triangle</text>
</a>
</g>
</g>
<!-- Node1&#45;&gt;Node6 -->
<g id="edge5_Node000001_Node000006" class="edge">
<title>Node1&#45;&gt;Node6</title>
<g id="a_edge5_Node000001_Node000006"><a xlink:title=" ">
<path fill="none" stroke="#63b8ff" d="M1054.77,-154.24C1046.13,-155.74 1037.38,-157.06 1029,-158 884.56,-174.25 846.75,-176.18 702,-163 690.36,-161.94 678.07,-160.22 666.18,-158.24"/>
<polygon fill="#63b8ff" stroke="#63b8ff" points="1055.63,-157.64 1064.83,-152.4 1054.37,-150.76 1055.63,-157.64"/>
</a>
</g>
</g>
<!-- Node7 -->
<g id="Node000007" class="node">
<title>Node7</title>
<g id="a_Node000007"><a xlink:href="namespacepolyfem_1_1mesh.html#abe799e00606dbda12858d3dbd0d6491e" target="_top" xlink:title="Refine a triangle (a, b, c) into a well shaped triangle mesh.">
<polygon fill="white" stroke="#666666" points="493,-164 311,-164 311,-134 493,-134 493,-164"/>
<text text-anchor="start" x="319" y="-152" font-family="Helvetica,sans-Serif" font-size="10.00">polyfem::mesh::irregular</text>
<text text-anchor="middle" x="402" y="-141" font-family="Helvetica,sans-Serif" font-size="10.00">_triangle_barycentric_coordinates</text>
</a>
</g>
</g>
<!-- Node1&#45;&gt;Node7 -->
<g id="edge9_Node000001_Node000007" class="edge">
<title>Node1&#45;&gt;Node7</title>
<g id="a_edge9_Node000001_Node000007"><a xlink:title=" ">
<path fill="none" stroke="#63b8ff" d="M1110.08,-163.26C1094.7,-189.28 1066.32,-229.11 1029,-246 815.09,-342.81 522.57,-210.68 431.34,-164.14"/>
<polygon fill="#63b8ff" stroke="#63b8ff" points="1113.24,-164.79 1115.16,-154.37 1107.16,-161.32 1113.24,-164.79"/>
</a>
</g>
</g>
<!-- Node8 -->
<g id="Node000008" class="node">
<title>Node8</title>
<g id="a_Node000008"><a xlink:href="namespacepolyfem_1_1mesh.html#a4cf65a44948a6042699876449b0eddab" target="_top" xlink:title="Refine an edge (a, b) so each refined edge has length at most max_edge_length.">
<polygon fill="white" stroke="#666666" points="1022,-148.5 869,-148.5 869,-129.5 1022,-129.5 1022,-148.5"/>
<text text-anchor="middle" x="945.5" y="-136.5" font-family="Helvetica,sans-Serif" font-size="10.00">polyfem::mesh::refine_edge</text>
</a>
</g>
</g>
<!-- Node1&#45;&gt;Node8 -->
<g id="edge11_Node000001_Node000008" class="edge">
<title>Node1&#45;&gt;Node8</title>
<g id="a_edge11_Node000001_Node000008"><a xlink:title=" ">
<path fill="none" stroke="#63b8ff" d="M1054.63,-139C1043.95,-139 1032.86,-139 1022.03,-139"/>
<polygon fill="#63b8ff" stroke="#63b8ff" points="1054.72,-142.5 1064.72,-139 1054.72,-135.5 1054.72,-142.5"/>
</a>
</g>
</g>
<!-- Node10 -->
<g id="Node000010" class="node">
<title>Node10</title>
<g id="a_Node000010"><a xlink:href="namespacepolyfem_1_1mesh.html#acb91ccfdf02a3bf57424c46c4834402a" target="_top" xlink:title="Tessilate a triangle mesh (V, F) with regular grids of triangles of maximum edge length.">
<polygon fill="white" stroke="#666666" points="1011,-30 880,-30 880,0 1011,0 1011,-30"/>
<text text-anchor="start" x="888" y="-18" font-family="Helvetica,sans-Serif" font-size="10.00">polyfem::mesh::regular</text>
<text text-anchor="middle" x="945.5" y="-7" font-family="Helvetica,sans-Serif" font-size="10.00">_grid_tessellation</text>
</a>
</g>
</g>
<!-- Node1&#45;&gt;Node10 -->
<g id="edge14_Node000001_Node000010" class="edge">
<title>Node1&#45;&gt;Node10</title>
<g id="a_edge14_Node000001_Node000010"><a xlink:title=" ">
<path fill="none" stroke="#63b8ff" d="M1105.26,-115.81C1087.89,-94.5 1059.63,-63.39 1029,-44 1020.28,-38.48 1010.37,-33.84 1000.52,-30.01"/>
<polygon fill="#63b8ff" stroke="#63b8ff" points="1102.61,-118.09 1111.58,-123.72 1108.08,-113.72 1102.61,-118.09"/>
</a>
</g>
</g>
<!-- Node3 -->
<g id="Node000003" class="node">
<title>Node3</title>
<g id="a_Node000003"><a xlink:href="classpolyfem_1_1_state.html#a0dfe8b477867a13f17afb35bd4309508" target="_top" xlink:title="extracts the boundary mesh for collision, called in build_basis">
<polygon fill="white" stroke="#666666" points="119,-118 0,-118 0,-88 119,-88 119,-118"/>
<text text-anchor="start" x="8" y="-106" font-family="Helvetica,sans-Serif" font-size="10.00">polyfem::State::build</text>
<text text-anchor="middle" x="59.5" y="-95" font-family="Helvetica,sans-Serif" font-size="10.00">_collision_mesh</text>
</a>
</g>
</g>
<!-- Node2&#45;&gt;Node3 -->
<g id="edge2_Node000002_Node000003" class="edge">
<title>Node2&#45;&gt;Node3</title>
<g id="a_edge2_Node000002_Node000003"><a xlink:title=" ">
<path fill="none" stroke="#63b8ff" d="M144.44,-103C136,-103 127.45,-103 119.18,-103"/>
<polygon fill="#63b8ff" stroke="#63b8ff" points="144.65,-106.5 154.65,-103 144.65,-99.5 144.65,-106.5"/>
</a>
</g>
</g>
<!-- Node6&#45;&gt;Node5 -->
<g id="edge6_Node000006_Node000005" class="edge">
<title>Node6&#45;&gt;Node5</title>
<g id="a_edge6_Node000006_Node000005"><a xlink:title=" ">
<path fill="none" stroke="#63b8ff" d="M518.97,-126.77C502.98,-123.22 486.25,-119.5 470.64,-116.03"/>
<polygon fill="#63b8ff" stroke="#63b8ff" points="518.3,-130.21 528.82,-128.96 519.82,-123.37 518.3,-130.21"/>
</a>
</g>
</g>
<!-- Node6&#45;&gt;Node7 -->
<g id="edge7_Node000006_Node000007" class="edge">
<title>Node6&#45;&gt;Node7</title>
<g id="a_edge7_Node000006_Node000007"><a xlink:title=" ">
<path fill="none" stroke="#63b8ff" d="M518.67,-146.01C510.25,-146.23 501.63,-146.45 493.08,-146.67"/>
<polygon fill="#63b8ff" stroke="#63b8ff" points="518.92,-149.51 528.82,-145.75 518.74,-142.51 518.92,-149.51"/>
</a>
</g>
</g>
<!-- Node7&#45;&gt;Node2 -->
<g id="edge8_Node000007_Node000002" class="edge">
<title>Node7&#45;&gt;Node2</title>
<g id="a_edge8_Node000007_Node000002"><a xlink:title=" ">
<path fill="none" stroke="#63b8ff" d="M330.68,-131.52C312.36,-126.96 292.81,-122.1 275.14,-117.7"/>
<polygon fill="#63b8ff" stroke="#63b8ff" points="329.87,-134.92 340.42,-133.94 331.56,-128.13 329.87,-134.92"/>
</a>
</g>
</g>
<!-- Node9 -->
<g id="Node000009" class="node">
<title>Node9</title>
<g id="a_Node000009"><a xlink:href="namespacepolyfem_1_1mesh.html#acf01f1cc1cd8d1c23d270e5c1471c091" target="_top" xlink:title="Refine the edges of a triangle (a, b, c) so each refined edge has length at most max_edge_length.">
<polygon fill="white" stroke="#666666" points="826,-154 702,-154 702,-124 826,-124 826,-154"/>
<text text-anchor="start" x="710" y="-142" font-family="Helvetica,sans-Serif" font-size="10.00">polyfem::mesh::refine</text>
<text text-anchor="middle" x="764" y="-131" font-family="Helvetica,sans-Serif" font-size="10.00">_triangle_edges</text>
</a>
</g>
</g>
<!-- Node8&#45;&gt;Node9 -->
<g id="edge12_Node000008_Node000009" class="edge">
<title>Node8&#45;&gt;Node9</title>
<g id="a_edge12_Node000008_Node000009"><a xlink:title=" ">
<path fill="none" stroke="#63b8ff" d="M858.8,-139C847.75,-139 836.63,-139 826.09,-139"/>
<polygon fill="#63b8ff" stroke="#63b8ff" points="858.9,-142.5 868.9,-139 858.9,-135.5 858.9,-142.5"/>
</a>
</g>
</g>
<!-- Node9&#45;&gt;Node6 -->
<g id="edge13_Node000009_Node000006" class="edge">
<title>Node9&#45;&gt;Node6</title>
<g id="a_edge13_Node000009_Node000006"><a xlink:title=" ">
<path fill="none" stroke="#63b8ff" d="M691.56,-141.17C683.13,-141.43 674.54,-141.69 666.16,-141.94"/>
<polygon fill="#63b8ff" stroke="#63b8ff" points="691.86,-144.66 701.75,-140.86 691.64,-137.67 691.86,-144.66"/>
</a>
</g>
</g>
</g>
</svg>

<g id="navigator" transform="translate(0 0)" fill="#404254">
  <rect fill="#f2f5e9" fill-opacity="0.5" stroke="#606060" stroke-width=".5" x="0" y="0" width="60" height="60"/>
  <use id="zoomplus" xlink:href="#zoomPlus" x="17" y="9" onmousedown="handleZoom(evt,'in')"/>
  <use id="zoomminus" xlink:href="#zoomMin" x="42" y="9" onmousedown="handleZoom(evt,'out')"/>
  <use id="reset" xlink:href="#resetDef" x="30" y="36" onmousedown="handleReset()"/>
   <use id="arrowup" xlink:href="#arrowUp" x="0" y="0" onmousedown="handlePan(0,-1)"/>
  <use id="arrowright" xlink:href="#arrowRight" x="0" y="0" onmousedown="handlePan(1,0)"/>
  <use id="arrowdown" xlink:href="#arrowDown" x="0" y="0" onmousedown="handlePan(0,1)"/>
  <use id="arrowleft" xlink:href="#arrowLeft" x="0" y="0" onmousedown="handlePan(-1,0)"/>
</g>
<svg viewBox="0 0 15 15" width="100%" height="30px" preserveAspectRatio="xMaxYMin meet">
 <g id="arrow_out" transform="scale(0.3 0.3)">
  <a xlink:href="namespacepolyfem_1_1mesh_a8d6dfcfa36d78e00ba3eb5d9e98ccc92_icgraph_org.svg" target="_base">
   <rect id="button" ry="5" rx="5" y="6" x="6" height="38" width="38"
        fill="#f2f5e9" fill-opacity="0.5" stroke="#606060" stroke-width="1.0"/>
   <path id="arrow"
     d="M 11.500037,31.436501 C 11.940474,20.09759 22.043105,11.32322 32.158766,21.979434 L 37.068811,17.246167 C 37.068811,17.246167 37.088388,32 37.088388,32 L 22.160133,31.978069 C 22.160133,31.978069 26.997745,27.140456 26.997745,27.140456 C 18.528582,18.264221 13.291696,25.230495 11.500037,31.436501 z"
     style="fill:#404040;"/>
  </a>
 </g>
</svg>

<style type='text/css'>
<![CDATA[
[data-mouse-over-selected='false'] { opacity: 0.7; }
[data-mouse-over-selected='true']  { opacity: 1.0; }
]]>
</style>
<script type="application/ecmascript"><![CDATA[
document.addEventListener('DOMContentLoaded', (event) => {
  highlightEdges();
  highlightAdjacentNodes();
});
]]></script>
</svg>
