<?xml version="1.0" encoding="UTF-8" standalone="no"?>
<!DOCTYPE svg PUBLIC "-//W3C//DTD SVG 1.1//EN"
 "http://www.w3.org/Graphics/SVG/1.1/DTD/svg11.dtd">
<!-- Generated by graphviz version 2.43.0 (0)
 -->
<!-- Title: polyfem::autogen::p_nodes_3d Pages: 1 -->
<!--zoomable 548 -->

<svg id="main" version="1.1" xmlns="http://www.w3.org/2000/svg" xmlns:xlink="http://www.w3.org/1999/xlink" xml:space="preserve" onload="init(evt)">
<style type="text/css"><![CDATA[
.node, .edge {opacity: 0.7;}
.node.selected, .edge.selected {opacity: 1;}
.edge:hover path { stroke: red; }
.edge:hover polygon { stroke: red; fill: red; }
]]></style>

<defs>
  <circle id="rim" cx="0" cy="0" r="7"/>
  <circle id="rim2" cx="0" cy="0" r="3.5"/>
  <g id="zoomPlus">
    <use xlink:href="#rim" fill="#404040"><set attributeName="fill" to="#808080" begin="zoomplus.mouseover" end="zoomplus.mouseout"/></use>
    <path d="M-4,0h8M0,-4v8" fill="none" stroke="white" stroke-width="1.5" pointer-events="none"/>
  </g>
  <g id="zoomMin">
    <use xlink:href="#rim" fill="#404040"><set attributeName="fill" to="#808080" begin="zoomminus.mouseover" end="zoomminus.mouseout"/></use>
    <path d="M-4,0h8" fill="none" stroke="white" stroke-width="1.5" pointer-events="none"/>
  </g>
  <g id="arrowUp" transform="translate(30 24)">
    <use xlink:href="#rim"/>
    <path pointer-events="none" fill="none" stroke="white" stroke-width="1.5" d="M0,-3.0v7 M-2.5,-0.5L0,-3.0L2.5,-0.5"/>
  </g>
  <g id="arrowRight" transform="rotate(90) translate(36 -43)">
    <use xlink:href="#rim"/>
    <path pointer-events="none" fill="none" stroke="white" stroke-width="1.5" d="M0,-3.0v7 M-2.5,-0.5L0,-3.0L2.5,-0.5"/>
  </g>
  <g id="arrowDown" transform="rotate(180) translate(-30 -48)">
    <use xlink:href="#rim"/>
    <path pointer-events="none" fill="none" stroke="white" stroke-width="1.5" d="M0,-3.0v7 M-2.5,-0.5L0,-3.0L2.5,-0.5"/>
  </g>
  <g id="arrowLeft" transform="rotate(270) translate(-36 17)">
    <use xlink:href="#rim"/>
    <path pointer-events="none" fill="none" stroke="white" stroke-width="1.5" d="M0,-3.0v7 M-2.5,-0.5L0,-3.0L2.5,-0.5"/>
  </g>
  <g id="resetDef">
    <use xlink:href="#rim2" fill="#404040"><set attributeName="fill" to="#808080" begin="reset.mouseover" end="reset.mouseout"/></use>
  </g>
</defs>
<script type="application/ecmascript">
var viewWidth = 1661;
var viewHeight = 548;
var sectionId = 'dynsection-28';
</script>
<script type="application/ecmascript" xlink:href="svg.min.js"/>
<svg id="graph" class="graph">
<g id="viewport">
<title>polyfem::autogen::p_nodes_3d</title>
<!-- Node1 -->
<g id="Node000001" class="node">
<title>Node1</title>
<g id="a_Node000001"><a xlink:title=" ">
<polygon fill="#999999" stroke="#666666" points="1653,-272 1538,-272 1538,-242 1653,-242 1653,-272"/>
<text text-anchor="start" x="1546" y="-260" font-family="Helvetica,sans-Serif" font-size="10.00">polyfem::autogen::p</text>
<text text-anchor="middle" x="1595.5" y="-249" font-family="Helvetica,sans-Serif" font-size="10.00">_nodes_3d</text>
</a>
</g>
</g>
<!-- Node2 -->
<g id="Node000002" class="node">
<title>Node2</title>
<g id="a_Node000002"><a xlink:href="classpolyfem_1_1io_1_1_evaluator.html#ac85b31ec6a0a8410af12d73f9943e75c" target="_top" xlink:title="computes scalar quantity of funtion (ie von mises for elasticity and norm of velocity for fluid) the ...">
<polygon fill="white" stroke="#666666" points="1502,-380 1333,-380 1333,-350 1502,-350 1502,-380"/>
<text text-anchor="start" x="1341" y="-368" font-family="Helvetica,sans-Serif" font-size="10.00">polyfem::io::Evaluator</text>
<text text-anchor="middle" x="1417.5" y="-357" font-family="Helvetica,sans-Serif" font-size="10.00">::average_grad_based_function</text>
</a>
</g>
</g>
<!-- Node1&#45;&gt;Node2 -->
<g id="edge1_Node000001_Node000002" class="edge">
<title>Node1&#45;&gt;Node2</title>
<g id="a_edge1_Node000001_Node000002"><a xlink:title=" ">
<path fill="none" stroke="#63b8ff" d="M1575.15,-279.61C1557.79,-298.56 1530.68,-325.01 1502,-341 1495.94,-344.38 1489.36,-347.32 1482.65,-349.87"/>
<polygon fill="#63b8ff" stroke="#63b8ff" points="1577.9,-281.78 1581.97,-272 1572.69,-277.11 1577.9,-281.78"/>
</a>
</g>
</g>
<!-- Node3 -->
<g id="Node000003" class="node">
<title>Node3</title>
<g id="a_Node000003"><a xlink:href="classpolyfem_1_1io_1_1_out_geometry_data.html#a79dfcef5587ebfc0a492f4beff251d01" target="_top" xlink:title="saves the volume vtu file">
<polygon fill="white" stroke="#666666" points="1297,-380 1153,-380 1153,-350 1297,-350 1297,-380"/>
<text text-anchor="start" x="1161" y="-368" font-family="Helvetica,sans-Serif" font-size="10.00">polyfem::io::OutGeometry</text>
<text text-anchor="middle" x="1225" y="-357" font-family="Helvetica,sans-Serif" font-size="10.00">Data::save_volume</text>
</a>
</g>
</g>
<!-- Node1&#45;&gt;Node3 -->
<g id="edge40_Node000001_Node000003" class="edge">
<title>Node1&#45;&gt;Node3</title>
<g id="a_edge40_Node000001_Node000003"><a xlink:title=" ">
<path fill="none" stroke="#63b8ff" d="M1585.64,-281.46C1572.73,-312.98 1545.46,-366.39 1502,-389 1424.56,-429.29 1318.19,-400.39 1262.84,-380.15"/>
<polygon fill="#63b8ff" stroke="#63b8ff" points="1588.93,-282.66 1589.33,-272.07 1582.41,-280.1 1588.93,-282.66"/>
</a>
</g>
</g>
<!-- Node19 -->
<g id="Node000019" class="node">
<title>Node19</title>
<g id="a_Node000019"><a xlink:href="classpolyfem_1_1_state.html#a9fa28a682c746974ee171d8cfa6a8558" target="_top" xlink:title="solves transient navier stokes with operator splitting">
<polygon fill="white" stroke="#666666" points="600,-540 436,-540 436,-510 600,-510 600,-540"/>
<text text-anchor="start" x="444" y="-528" font-family="Helvetica,sans-Serif" font-size="10.00">polyfem::State::solve</text>
<text text-anchor="middle" x="518" y="-517" font-family="Helvetica,sans-Serif" font-size="10.00">_transient_navier_stokes_split</text>
</a>
</g>
</g>
<!-- Node1&#45;&gt;Node19 -->
<g id="edge41_Node000001_Node000019" class="edge">
<title>Node1&#45;&gt;Node19</title>
<g id="a_edge41_Node000001_Node000019"><a xlink:title=" ">
<path fill="none" stroke="#63b8ff" d="M1591.97,-282.21C1585.82,-328.85 1565.57,-428.13 1502,-475 1402.76,-548.17 1349.3,-503 1226,-503 1226,-503 1226,-503 864,-503 773.52,-503 669.97,-510.63 600.12,-516.9"/>
<polygon fill="#63b8ff" stroke="#63b8ff" points="1595.47,-282.4 1593.19,-272.06 1588.52,-281.57 1595.47,-282.4"/>
</a>
</g>
</g>
<!-- Node20 -->
<g id="Node000020" class="node">
<title>Node20</title>
<g id="a_Node000020"><a xlink:href="classpolyfem_1_1_state.html#a75cfcf28f3bc27e8e30b41c7347c799b" target="_top" xlink:title="builds the bases step 2 of solve">
<polygon fill="white" stroke="#666666" points="383,-270 264,-270 264,-240 383,-240 383,-270"/>
<text text-anchor="start" x="272" y="-258" font-family="Helvetica,sans-Serif" font-size="10.00">polyfem::State::build</text>
<text text-anchor="middle" x="323.5" y="-247" font-family="Helvetica,sans-Serif" font-size="10.00">_basis</text>
</a>
</g>
</g>
<!-- Node1&#45;&gt;Node20 -->
<g id="edge26_Node000001_Node000020" class="edge">
<title>Node1&#45;&gt;Node20</title>
<g id="a_edge26_Node000001_Node000020"><a xlink:title=" ">
<path fill="none" stroke="#63b8ff" d="M1533.59,-239.5C1523.12,-236.98 1512.3,-234.68 1502,-233 1380.64,-213.25 1348.96,-214 1226,-214 1226,-214 1226,-214 695.5,-214 584.53,-214 456.01,-232.35 383.07,-244.49"/>
<polygon fill="#63b8ff" stroke="#63b8ff" points="1532.94,-242.94 1543.49,-241.96 1534.63,-236.15 1532.94,-242.94"/>
</a>
</g>
</g>
<!-- Node21 -->
<g id="Node000021" class="node">
<title>Node21</title>
<g id="a_Node000021"><a xlink:href="classpolyfem_1_1io_1_1_out_geometry_data.html#a0973670568a6c11dca7ae90d0024395e" target="_top" xlink:title="builds high&#45;der visualzation mesh per element all disconnected it also retuns the mapping to element ...">
<polygon fill="white" stroke="#666666" points="1489.5,-331.5 1345.5,-331.5 1345.5,-290.5 1489.5,-290.5 1489.5,-331.5"/>
<text text-anchor="start" x="1353.5" y="-319.5" font-family="Helvetica,sans-Serif" font-size="10.00">polyfem::io::OutGeometry</text>
<text text-anchor="start" x="1353.5" y="-308.5" font-family="Helvetica,sans-Serif" font-size="10.00">Data::build_high_order</text>
<text text-anchor="middle" x="1417.5" y="-297.5" font-family="Helvetica,sans-Serif" font-size="10.00">_vis_mesh</text>
</a>
</g>
</g>
<!-- Node1&#45;&gt;Node21 -->
<g id="edge29_Node000001_Node000021" class="edge">
<title>Node1&#45;&gt;Node21</title>
<g id="a_edge29_Node000001_Node000021"><a xlink:title=" ">
<path fill="none" stroke="#63b8ff" d="M1535.64,-275.06C1519.51,-280.01 1501.9,-285.41 1485.35,-290.49"/>
<polygon fill="#63b8ff" stroke="#63b8ff" points="1536.94,-278.32 1545.47,-272.04 1534.89,-271.63 1536.94,-278.32"/>
</a>
</g>
</g>
<!-- Node22 -->
<g id="Node000022" class="node">
<title>Node22</title>
<g id="a_Node000022"><a xlink:href="classpolyfem_1_1io_1_1_evaluator.html#a9ee846c35328f2e866b83b7cb17cdb2f" target="_top" xlink:title="checks if mises are not nan">
<polygon fill="white" stroke="#666666" points="1480,-186 1355,-186 1355,-156 1480,-156 1480,-186"/>
<text text-anchor="start" x="1363" y="-174" font-family="Helvetica,sans-Serif" font-size="10.00">polyfem::io::Evaluator</text>
<text text-anchor="middle" x="1417.5" y="-163" font-family="Helvetica,sans-Serif" font-size="10.00">::check_scalar_value</text>
</a>
</g>
</g>
<!-- Node1&#45;&gt;Node22 -->
<g id="edge31_Node000001_Node000022" class="edge">
<title>Node1&#45;&gt;Node22</title>
<g id="a_edge31_Node000001_Node000022"><a xlink:title=" ">
<path fill="none" stroke="#63b8ff" d="M1564.14,-235.96C1546.53,-224.36 1523.62,-210.27 1502,-200 1491.19,-194.87 1479.21,-190.17 1467.79,-186.12"/>
<polygon fill="#63b8ff" stroke="#63b8ff" points="1562.58,-239.12 1572.84,-241.77 1566.47,-233.3 1562.58,-239.12"/>
</a>
</g>
</g>
<!-- Node23 -->
<g id="Node000023" class="node">
<title>Node23</title>
<g id="a_Node000023"><a xlink:href="classpolyfem_1_1io_1_1_evaluator.html#af943b83dd7b643edae1ac15096d386cd" target="_top" xlink:title="computes scalar quantity of funtion (ie von mises for elasticity and norm of velocity for fluid)">
<polygon fill="white" stroke="#666666" points="1483.5,-466 1351.5,-466 1351.5,-436 1483.5,-436 1483.5,-466"/>
<text text-anchor="start" x="1359.5" y="-454" font-family="Helvetica,sans-Serif" font-size="10.00">polyfem::io::Evaluator</text>
<text text-anchor="middle" x="1417.5" y="-443" font-family="Helvetica,sans-Serif" font-size="10.00">::compute_scalar_value</text>
</a>
</g>
</g>
<!-- Node1&#45;&gt;Node23 -->
<g id="edge32_Node000001_Node000023" class="edge">
<title>Node1&#45;&gt;Node23</title>
<g id="a_edge32_Node000001_Node000023"><a xlink:title=" ">
<path fill="none" stroke="#63b8ff" d="M1586.91,-281.83C1574.71,-317.74 1547.38,-384.01 1502,-422 1495.29,-427.62 1487.43,-432.17 1479.27,-435.85"/>
<polygon fill="#63b8ff" stroke="#63b8ff" points="1590.3,-282.74 1590.08,-272.14 1583.64,-280.56 1590.3,-282.74"/>
</a>
</g>
</g>
<!-- Node25 -->
<g id="Node000025" class="node">
<title>Node25</title>
<g id="a_Node000025"><a xlink:href="classpolyfem_1_1io_1_1_evaluator.html#a4ba83419056824fdae4d81cca72a1e94" target="_top" xlink:title="compute tensor quantity (ie stress tensor or velocy)">
<polygon fill="white" stroke="#666666" points="1484.5,-272 1350.5,-272 1350.5,-242 1484.5,-242 1484.5,-272"/>
<text text-anchor="start" x="1358.5" y="-260" font-family="Helvetica,sans-Serif" font-size="10.00">polyfem::io::Evaluator</text>
<text text-anchor="middle" x="1417.5" y="-249" font-family="Helvetica,sans-Serif" font-size="10.00">::compute_tensor_value</text>
</a>
</g>
</g>
<!-- Node1&#45;&gt;Node25 -->
<g id="edge36_Node000001_Node000025" class="edge">
<title>Node1&#45;&gt;Node25</title>
<g id="a_edge36_Node000001_Node000025"><a xlink:title=" ">
<path fill="none" stroke="#63b8ff" d="M1527.71,-257C1513.57,-257 1498.66,-257 1484.55,-257"/>
<polygon fill="#63b8ff" stroke="#63b8ff" points="1527.84,-260.5 1537.84,-257 1527.84,-253.5 1527.84,-260.5"/>
</a>
</g>
</g>
<!-- Node26 -->
<g id="Node000026" class="node">
<title>Node26</title>
<g id="a_Node000026"><a xlink:href="classpolyfem_1_1io_1_1_evaluator.html#a1a59e2051376f7b9c94b658324740312" target="_top" xlink:title="computes integrated solution (fun) per surface face vertex.">
<polygon fill="white" stroke="#666666" points="1481,-137.5 1354,-137.5 1354,-96.5 1481,-96.5 1481,-137.5"/>
<text text-anchor="start" x="1362" y="-125.5" font-family="Helvetica,sans-Serif" font-size="10.00">polyfem::io::Evaluator</text>
<text text-anchor="start" x="1362" y="-114.5" font-family="Helvetica,sans-Serif" font-size="10.00">::interpolate_boundary</text>
<text text-anchor="middle" x="1417.5" y="-103.5" font-family="Helvetica,sans-Serif" font-size="10.00">_function_at_vertices</text>
</a>
</g>
</g>
<!-- Node1&#45;&gt;Node26 -->
<g id="edge38_Node000001_Node000026" class="edge">
<title>Node1&#45;&gt;Node26</title>
<g id="a_edge38_Node000001_Node000026"><a xlink:title=" ">
<path fill="none" stroke="#63b8ff" d="M1579.96,-233.19C1563.75,-208.47 1535.37,-170.24 1502,-147 1495.68,-142.6 1488.64,-138.77 1481.41,-135.46"/>
<polygon fill="#63b8ff" stroke="#63b8ff" points="1577.02,-235.1 1585.37,-241.63 1582.92,-231.32 1577.02,-235.1"/>
</a>
</g>
</g>
<!-- Node27 -->
<g id="Node000027" class="node">
<title>Node27</title>
<g id="a_Node000027"><a xlink:href="classpolyfem_1_1io_1_1_evaluator.html#a4462bc654fb511f3cff3c2e90158bf5d" target="_top" xlink:title="interpolate the function fun.">
<polygon fill="white" stroke="#666666" points="1480,-78 1355,-78 1355,-48 1480,-48 1480,-78"/>
<text text-anchor="start" x="1363" y="-66" font-family="Helvetica,sans-Serif" font-size="10.00">polyfem::io::Evaluator</text>
<text text-anchor="middle" x="1417.5" y="-55" font-family="Helvetica,sans-Serif" font-size="10.00">::interpolate_function</text>
</a>
</g>
</g>
<!-- Node1&#45;&gt;Node27 -->
<g id="edge39_Node000001_Node000027" class="edge">
<title>Node1&#45;&gt;Node27</title>
<g id="a_edge39_Node000001_Node000027"><a xlink:title=" ">
<path fill="none" stroke="#63b8ff" d="M1587.66,-231.93C1576.2,-194.72 1549.59,-125.18 1502,-87 1495.53,-81.81 1487.99,-77.74 1480.13,-74.55"/>
<polygon fill="#63b8ff" stroke="#63b8ff" points="1584.42,-233.34 1590.61,-241.94 1591.14,-231.36 1584.42,-233.34"/>
</a>
</g>
</g>
<!-- Node28 -->
<g id="Node000028" class="node">
<title>Node28</title>
<g id="a_Node000028"><a xlink:href="classpolyfem_1_1basis_1_1_lagrange_basis3d.html#ae21671a6156e9de430f8b9c11749781f" target="_top" xlink:title=" ">
<polygon fill="white" stroke="#666666" points="1499.5,-30 1335.5,-30 1335.5,0 1499.5,0 1499.5,-30"/>
<text text-anchor="start" x="1343.5" y="-18" font-family="Helvetica,sans-Serif" font-size="10.00">polyfem::basis::Lagrange</text>
<text text-anchor="middle" x="1417.5" y="-7" font-family="Helvetica,sans-Serif" font-size="10.00">Basis3d::tet_face_local_nodes</text>
</a>
</g>
</g>
<!-- Node1&#45;&gt;Node28 -->
<g id="edge42_Node000001_Node000028" class="edge">
<title>Node1&#45;&gt;Node28</title>
<g id="a_edge42_Node000001_Node000028"><a xlink:title=" ">
<path fill="none" stroke="#63b8ff" d="M1590.97,-231.84C1583.28,-186.5 1560.7,-90.98 1502,-39 1498.16,-35.6 1493.87,-32.68 1489.31,-30.17"/>
<polygon fill="#63b8ff" stroke="#63b8ff" points="1587.52,-232.4 1592.55,-241.73 1594.43,-231.3 1587.52,-232.4"/>
</a>
</g>
</g>
<!-- Node2&#45;&gt;Node3 -->
<g id="edge2_Node000002_Node000003" class="edge">
<title>Node2&#45;&gt;Node3</title>
<g id="a_edge2_Node000002_Node000003"><a xlink:title=" ">
<path fill="none" stroke="#63b8ff" d="M1322.86,-365C1314.26,-365 1305.63,-365 1297.27,-365"/>
<polygon fill="#63b8ff" stroke="#63b8ff" points="1322.94,-368.5 1332.94,-365 1322.94,-361.5 1322.94,-368.5"/>
</a>
</g>
</g>
<!-- Node4 -->
<g id="Node000004" class="node">
<title>Node4</title>
<g id="a_Node000004"><a xlink:href="classpolyfem_1_1io_1_1_out_geometry_data.html#aa3fbccda3a6e6f7fd5a7b3bcbd146793" target="_top" xlink:title="saves the vtu file for time t">
<polygon fill="white" stroke="#666666" points="1117,-380 973,-380 973,-350 1117,-350 1117,-380"/>
<text text-anchor="start" x="981" y="-368" font-family="Helvetica,sans-Serif" font-size="10.00">polyfem::io::OutGeometry</text>
<text text-anchor="middle" x="1045" y="-357" font-family="Helvetica,sans-Serif" font-size="10.00">Data::save_vtu</text>
</a>
</g>
</g>
<!-- Node3&#45;&gt;Node4 -->
<g id="edge3_Node000003_Node000004" class="edge">
<title>Node3&#45;&gt;Node4</title>
<g id="a_edge3_Node000003_Node000004"><a xlink:title=" ">
<path fill="none" stroke="#63b8ff" d="M1142.83,-365C1134.21,-365 1125.49,-365 1117,-365"/>
<polygon fill="#63b8ff" stroke="#63b8ff" points="1142.88,-368.5 1152.88,-365 1142.88,-361.5 1142.88,-368.5"/>
</a>
</g>
</g>
<!-- Node5 -->
<g id="Node000005" class="node">
<title>Node5</title>
<g id="a_Node000005"><a xlink:href="classpolyfem_1_1io_1_1_out_geometry_data.html#a9826defd7d8f3c4c12df2ba9c4c45320" target="_top" xlink:title="exports everytihng, txt, vtu, etc">
<polygon fill="white" stroke="#666666" points="937,-294 793,-294 793,-264 937,-264 937,-294"/>
<text text-anchor="start" x="801" y="-282" font-family="Helvetica,sans-Serif" font-size="10.00">polyfem::io::OutGeometry</text>
<text text-anchor="middle" x="865" y="-271" font-family="Helvetica,sans-Serif" font-size="10.00">Data::export_data</text>
</a>
</g>
</g>
<!-- Node4&#45;&gt;Node5 -->
<g id="edge4_Node000004_Node000005" class="edge">
<title>Node4&#45;&gt;Node5</title>
<g id="a_edge4_Node000004_Node000005"><a xlink:title=" ">
<path fill="none" stroke="#63b8ff" d="M1003.41,-345.39C971.12,-329.79 926.61,-308.28 897.1,-294.03"/>
<polygon fill="#63b8ff" stroke="#63b8ff" points="1002.06,-348.62 1012.59,-349.82 1005.11,-342.32 1002.06,-348.62"/>
</a>
</g>
</g>
<!-- Node9 -->
<g id="Node000009" class="node">
<title>Node9</title>
<g id="a_Node000009"><a xlink:href="classpolyfem_1_1_state.html#a29b1283c20475e19b79a39cd324ac5aa" target="_top" xlink:title="saves a subsolve when save_solve_sequence_debug is true">
<polygon fill="white" stroke="#666666" points="924,-357 806,-357 806,-327 924,-327 924,-357"/>
<text text-anchor="start" x="814" y="-345" font-family="Helvetica,sans-Serif" font-size="10.00">polyfem::State::save</text>
<text text-anchor="middle" x="865" y="-334" font-family="Helvetica,sans-Serif" font-size="10.00">_subsolve</text>
</a>
</g>
</g>
<!-- Node4&#45;&gt;Node9 -->
<g id="edge8_Node000004_Node000009" class="edge">
<title>Node4&#45;&gt;Node9</title>
<g id="a_edge8_Node000004_Node000009"><a xlink:title=" ">
<path fill="none" stroke="#63b8ff" d="M962.94,-354.53C949.87,-352.84 936.56,-351.12 924.16,-349.51"/>
<polygon fill="#63b8ff" stroke="#63b8ff" points="962.52,-358 972.88,-355.81 963.41,-351.06 962.52,-358"/>
</a>
</g>
</g>
<!-- Node15 -->
<g id="Node000015" class="node">
<title>Node15</title>
<g id="a_Node000015"><a xlink:href="classpolyfem_1_1_state.html#a442fa686e1d08a0a104f3869a6fa2948" target="_top" xlink:title="saves a timestep">
<polygon fill="white" stroke="#666666" points="755.5,-410 637.5,-410 637.5,-380 755.5,-380 755.5,-410"/>
<text text-anchor="start" x="645.5" y="-398" font-family="Helvetica,sans-Serif" font-size="10.00">polyfem::State::save</text>
<text text-anchor="middle" x="696.5" y="-387" font-family="Helvetica,sans-Serif" font-size="10.00">_timestep</text>
</a>
</g>
</g>
<!-- Node4&#45;&gt;Node15 -->
<g id="edge16_Node000004_Node000015" class="edge">
<title>Node4&#45;&gt;Node15</title>
<g id="a_edge16_Node000004_Node000015"><a xlink:title=" ">
<path fill="none" stroke="#63b8ff" d="M962.63,-372.04C899.07,-377.55 812.28,-385.06 755.58,-389.97"/>
<polygon fill="#63b8ff" stroke="#63b8ff" points="962.96,-375.53 972.63,-371.18 962.36,-368.56 962.96,-375.53"/>
</a>
</g>
</g>
<!-- Node6 -->
<g id="Node000006" class="node">
<title>Node6</title>
<g id="a_Node000006"><a xlink:href="classpolyfem_1_1_state.html#acc61dcd623eec2308480c5c082da3d9e" target="_top" xlink:title="saves all data on the disk according to the input params">
<polygon fill="white" stroke="#666666" points="400,-307.5 247,-307.5 247,-288.5 400,-288.5 400,-307.5"/>
<text text-anchor="middle" x="323.5" y="-295.5" font-family="Helvetica,sans-Serif" font-size="10.00">polyfem::State::export_data</text>
</a>
</g>
</g>
<!-- Node5&#45;&gt;Node6 -->
<g id="edge5_Node000005_Node000006" class="edge">
<title>Node5&#45;&gt;Node6</title>
<g id="a_edge5_Node000005_Node000006"><a xlink:title=" ">
<path fill="none" stroke="#63b8ff" d="M782.81,-281.86C679.11,-285.51 501.02,-291.78 400.09,-295.34"/>
<polygon fill="#63b8ff" stroke="#63b8ff" points="783.04,-285.35 792.92,-281.5 782.8,-278.36 783.04,-285.35"/>
</a>
</g>
</g>
<!-- Node7 -->
<g id="Node000007" class="node">
<title>Node7</title>
<g id="a_Node000007"><a xlink:href="main_8cpp.html#a48e4775e12bdf81ebb0eaa27df888aa0" target="_top" xlink:title=" ">
<polygon fill="white" stroke="#666666" points="199.5,-307.5 88.5,-307.5 88.5,-288.5 199.5,-288.5 199.5,-307.5"/>
<text text-anchor="middle" x="144" y="-295.5" font-family="Helvetica,sans-Serif" font-size="10.00">forward_simulation</text>
</a>
</g>
</g>
<!-- Node6&#45;&gt;Node7 -->
<g id="edge6_Node000006_Node000007" class="edge">
<title>Node6&#45;&gt;Node7</title>
<g id="a_edge6_Node000006_Node000007"><a xlink:title=" ">
<path fill="none" stroke="#63b8ff" d="M236.82,-298C224.12,-298 211.33,-298 199.5,-298"/>
<polygon fill="#63b8ff" stroke="#63b8ff" points="236.97,-301.5 246.97,-298 236.97,-294.5 236.97,-301.5"/>
</a>
</g>
</g>
<!-- Node8 -->
<g id="Node000008" class="node">
<title>Node8</title>
<g id="a_Node000008"><a xlink:href="main_8cpp.html#a3c04138a5bfe5d72780bb7e82a18e627" target="_top" xlink:title=" ">
<polygon fill="white" stroke="#666666" points="41,-307.5 0,-307.5 0,-288.5 41,-288.5 41,-307.5"/>
<text text-anchor="middle" x="20.5" y="-295.5" font-family="Helvetica,sans-Serif" font-size="10.00">main</text>
</a>
</g>
</g>
<!-- Node7&#45;&gt;Node8 -->
<g id="edge7_Node000007_Node000008" class="edge">
<title>Node7&#45;&gt;Node8</title>
<g id="a_edge7_Node000007_Node000008"><a xlink:title=" ">
<path fill="none" stroke="#63b8ff" d="M77.97,-298C64.49,-298 51.29,-298 41.05,-298"/>
<polygon fill="#63b8ff" stroke="#63b8ff" points="78.29,-301.5 88.29,-298 78.29,-294.5 78.29,-301.5"/>
</a>
</g>
</g>
<!-- Node10 -->
<g id="Node000010" class="node">
<title>Node10</title>
<g id="a_Node000010"><a xlink:href="classpolyfem_1_1_state.html#acdb194af25d840fa14cec97b19e04577" target="_top" xlink:title="solves nonlinear problems">
<polygon fill="white" stroke="#666666" points="757,-348 636,-348 636,-318 757,-318 757,-348"/>
<text text-anchor="start" x="644" y="-336" font-family="Helvetica,sans-Serif" font-size="10.00">polyfem::State::solve</text>
<text text-anchor="middle" x="696.5" y="-325" font-family="Helvetica,sans-Serif" font-size="10.00">_tensor_nonlinear</text>
</a>
</g>
</g>
<!-- Node9&#45;&gt;Node10 -->
<g id="edge9_Node000009_Node000010" class="edge">
<title>Node9&#45;&gt;Node10</title>
<g id="a_edge9_Node000009_Node000010"><a xlink:title=" ">
<path fill="none" stroke="#63b8ff" d="M795.64,-338.31C782.86,-337.61 769.6,-336.9 757.11,-336.22"/>
<polygon fill="#63b8ff" stroke="#63b8ff" points="795.59,-341.81 805.77,-338.85 795.97,-334.82 795.59,-341.81"/>
</a>
</g>
</g>
<!-- Node11 -->
<g id="Node000011" class="node">
<title>Node11</title>
<g id="a_Node000011"><a xlink:href="classpolyfem_1_1_state.html#a7450ef7c42dd9c523e1be73a5819117d" target="_top" xlink:title="solves the problems">
<polygon fill="white" stroke="#666666" points="384,-372 263,-372 263,-342 384,-342 384,-372"/>
<text text-anchor="start" x="271" y="-360" font-family="Helvetica,sans-Serif" font-size="10.00">polyfem::State::solve</text>
<text text-anchor="middle" x="323.5" y="-349" font-family="Helvetica,sans-Serif" font-size="10.00">_problem</text>
</a>
</g>
</g>
<!-- Node10&#45;&gt;Node11 -->
<g id="edge10_Node000010_Node000011" class="edge">
<title>Node10&#45;&gt;Node11</title>
<g id="a_edge10_Node000010_Node000011"><a xlink:title=" ">
<path fill="none" stroke="#63b8ff" d="M635.33,-315.5C623.71,-312.79 611.55,-310.43 600,-309 527.66,-300.05 507.39,-294.29 436,-309 405.45,-315.3 372.96,-330.36 350.98,-341.94"/>
<polygon fill="#63b8ff" stroke="#63b8ff" points="634.84,-318.98 645.39,-317.94 636.5,-312.18 634.84,-318.98"/>
</a>
</g>
</g>
<!-- Node14 -->
<g id="Node000014" class="node">
<title>Node14</title>
<g id="a_Node000014"><a xlink:href="classpolyfem_1_1_state.html#a4d91e8c971fc121b0cff2f0c02ca79e7" target="_top" xlink:title="solves transient tensor nonlinear problem">
<polygon fill="white" stroke="#666666" points="594,-348 442,-348 442,-318 594,-318 594,-348"/>
<text text-anchor="start" x="450" y="-336" font-family="Helvetica,sans-Serif" font-size="10.00">polyfem::State::solve</text>
<text text-anchor="middle" x="518" y="-325" font-family="Helvetica,sans-Serif" font-size="10.00">_transient_tensor_nonlinear</text>
</a>
</g>
</g>
<!-- Node10&#45;&gt;Node14 -->
<g id="edge14_Node000010_Node000014" class="edge">
<title>Node10&#45;&gt;Node14</title>
<g id="a_edge14_Node000010_Node000014"><a xlink:title=" ">
<path fill="none" stroke="#63b8ff" d="M625.53,-333C615.18,-333 604.48,-333 594.03,-333"/>
<polygon fill="#63b8ff" stroke="#63b8ff" points="625.75,-336.5 635.75,-333 625.75,-329.5 625.75,-336.5"/>
</a>
</g>
</g>
<!-- Node11&#45;&gt;Node7 -->
<g id="edge11_Node000011_Node000007" class="edge">
<title>Node11&#45;&gt;Node7</title>
<g id="a_edge11_Node000011_Node000007"><a xlink:title=" ">
<path fill="none" stroke="#63b8ff" d="M267.44,-338.7C236.45,-328.4 199.02,-315.96 173.77,-307.56"/>
<polygon fill="#63b8ff" stroke="#63b8ff" points="266.66,-342.13 277.25,-341.96 268.86,-335.48 266.66,-342.13"/>
</a>
</g>
</g>
<!-- Node12 -->
<g id="Node000012" class="node">
<title>Node12</title>
<g id="a_Node000012"><a xlink:href="classpolyfem_1_1_state.html#a219f9935d918f739d82488449bd4cbf4" target="_top" xlink:title="solves the problem, call other methods">
<polygon fill="white" stroke="#666666" points="204.5,-267.5 83.5,-267.5 83.5,-248.5 204.5,-248.5 204.5,-267.5"/>
<text text-anchor="middle" x="144" y="-255.5" font-family="Helvetica,sans-Serif" font-size="10.00">polyfem::State::solve</text>
</a>
</g>
</g>
<!-- Node11&#45;&gt;Node12 -->
<g id="edge12_Node000011_Node000012" class="edge">
<title>Node11&#45;&gt;Node12</title>
<g id="a_edge12_Node000011_Node000012"><a xlink:title=" ">
<path fill="none" stroke="#63b8ff" d="M279.7,-337.29C268.63,-331.41 257.02,-324.51 247,-317 228.64,-303.24 230.43,-292.2 211,-280 202.82,-274.86 193.3,-270.79 184.09,-267.61"/>
<polygon fill="#63b8ff" stroke="#63b8ff" points="278.33,-340.52 288.83,-341.98 281.54,-334.3 278.33,-340.52"/>
</a>
</g>
</g>
<!-- Node13 -->
<g id="Node000013" class="node">
<title>Node13</title>
<g id="a_Node000013"><a xlink:href="structpolyfem_1_1solver_1_1_adjoint_opt_utils.html#acac3e8ce8646ddd1544ed034c71bec96" target="_top" xlink:title=" ">
<polygon fill="white" stroke="#666666" points="211,-372 77,-372 77,-342 211,-342 211,-372"/>
<text text-anchor="start" x="85" y="-360" font-family="Helvetica,sans-Serif" font-size="10.00">polyfem::solver::Adjoint</text>
<text text-anchor="middle" x="144" y="-349" font-family="Helvetica,sans-Serif" font-size="10.00">OptUtils::solve_pde</text>
</a>
</g>
</g>
<!-- Node11&#45;&gt;Node13 -->
<g id="edge13_Node000011_Node000013" class="edge">
<title>Node11&#45;&gt;Node13</title>
<g id="a_edge13_Node000011_Node000013"><a xlink:title=" ">
<path fill="none" stroke="#63b8ff" d="M252.61,-357C238.96,-357 224.68,-357 211.16,-357"/>
<polygon fill="#63b8ff" stroke="#63b8ff" points="252.9,-360.5 262.9,-357 252.9,-353.5 252.9,-360.5"/>
</a>
</g>
</g>
<!-- Node14&#45;&gt;Node11 -->
<g id="edge15_Node000014_Node000011" class="edge">
<title>Node14&#45;&gt;Node11</title>
<g id="a_edge15_Node000014_Node000011"><a xlink:title=" ">
<path fill="none" stroke="#63b8ff" d="M431.82,-343.62C415.76,-345.62 399.29,-347.68 384.22,-349.55"/>
<polygon fill="#63b8ff" stroke="#63b8ff" points="432.26,-347.09 441.75,-342.38 431.39,-340.15 432.26,-347.09"/>
</a>
</g>
</g>
<!-- Node15&#45;&gt;Node14 -->
<g id="edge25_Node000015_Node000014" class="edge">
<title>Node15&#45;&gt;Node14</title>
<g id="a_edge25_Node000015_Node000014"><a xlink:title=" ">
<path fill="none" stroke="#63b8ff" d="M650.42,-376.09C634.59,-369.71 616.62,-362.75 600,-357 591.13,-353.93 581.63,-350.89 572.38,-348.07"/>
<polygon fill="#63b8ff" stroke="#63b8ff" points="649.38,-379.44 659.96,-379.97 652.02,-372.96 649.38,-379.44"/>
</a>
</g>
</g>
<!-- Node16 -->
<g id="Node000016" class="node">
<title>Node16</title>
<g id="a_Node000016"><a xlink:href="classpolyfem_1_1_state.html#ac5c4dd2be369c759c68e0a36a45bfcc7" target="_top" xlink:title="initialize solver">
<polygon fill="white" stroke="#666666" points="573,-492 463,-492 463,-462 573,-462 573,-492"/>
<text text-anchor="start" x="471" y="-480" font-family="Helvetica,sans-Serif" font-size="10.00">polyfem::State::init</text>
<text text-anchor="middle" x="518" y="-469" font-family="Helvetica,sans-Serif" font-size="10.00">_solve</text>
</a>
</g>
</g>
<!-- Node15&#45;&gt;Node16 -->
<g id="edge17_Node000015_Node000016" class="edge">
<title>Node15&#45;&gt;Node16</title>
<g id="a_edge17_Node000015_Node000016"><a xlink:title=" ">
<path fill="none" stroke="#63b8ff" d="M665.89,-415.72C647.56,-427.85 623.17,-442.74 600,-453 591.55,-456.74 582.36,-460.1 573.29,-463.03"/>
<polygon fill="#63b8ff" stroke="#63b8ff" points="668.02,-418.51 674.37,-410.03 664.12,-412.7 668.02,-418.51"/>
</a>
</g>
</g>
<!-- Node17 -->
<g id="Node000017" class="node">
<title>Node17</title>
<g id="a_Node000017"><a xlink:href="classpolyfem_1_1_state.html#af5afb70dc127d3ce190116321e83f190" target="_top" xlink:title="solves transient linear problem">
<polygon fill="white" stroke="#666666" points="578.5,-444 457.5,-444 457.5,-414 578.5,-414 578.5,-444"/>
<text text-anchor="start" x="465.5" y="-432" font-family="Helvetica,sans-Serif" font-size="10.00">polyfem::State::solve</text>
<text text-anchor="middle" x="518" y="-421" font-family="Helvetica,sans-Serif" font-size="10.00">_transient_linear</text>
</a>
</g>
</g>
<!-- Node15&#45;&gt;Node17 -->
<g id="edge19_Node000015_Node000017" class="edge">
<title>Node15&#45;&gt;Node17</title>
<g id="a_edge19_Node000015_Node000017"><a xlink:title=" ">
<path fill="none" stroke="#63b8ff" d="M627.37,-408.12C611.34,-411.21 594.37,-414.48 578.73,-417.49"/>
<polygon fill="#63b8ff" stroke="#63b8ff" points="628.06,-411.56 637.22,-406.23 626.74,-404.68 628.06,-411.56"/>
</a>
</g>
</g>
<!-- Node18 -->
<g id="Node000018" class="node">
<title>Node18</title>
<g id="a_Node000018"><a xlink:href="classpolyfem_1_1_state.html#ac42074a324e693f8eef5d7a96a56dc38" target="_top" xlink:title="solves transient navier stokes with FEM">
<polygon fill="white" stroke="#666666" points="587,-396 449,-396 449,-366 587,-366 587,-396"/>
<text text-anchor="start" x="457" y="-384" font-family="Helvetica,sans-Serif" font-size="10.00">polyfem::State::solve</text>
<text text-anchor="middle" x="518" y="-373" font-family="Helvetica,sans-Serif" font-size="10.00">_transient_navier_stokes</text>
</a>
</g>
</g>
<!-- Node15&#45;&gt;Node18 -->
<g id="edge21_Node000015_Node000018" class="edge">
<title>Node15&#45;&gt;Node18</title>
<g id="a_edge21_Node000015_Node000018"><a xlink:title=" ">
<path fill="none" stroke="#63b8ff" d="M626.87,-389.56C613.78,-388.52 600.09,-387.43 587.02,-386.4"/>
<polygon fill="#63b8ff" stroke="#63b8ff" points="626.97,-393.08 637.22,-390.38 627.53,-386.1 626.97,-393.08"/>
</a>
</g>
</g>
<!-- Node15&#45;&gt;Node19 -->
<g id="edge23_Node000015_Node000019" class="edge">
<title>Node15&#45;&gt;Node19</title>
<g id="a_edge23_Node000015_Node000019"><a xlink:title=" ">
<path fill="none" stroke="#63b8ff" d="M680.14,-418.6C663.26,-442.71 634,-479.56 600,-501 594.54,-504.44 588.57,-507.41 582.41,-509.97"/>
<polygon fill="#63b8ff" stroke="#63b8ff" points="683.23,-420.27 685.98,-410.04 677.45,-416.33 683.23,-420.27"/>
</a>
</g>
</g>
<!-- Node16&#45;&gt;Node11 -->
<g id="edge18_Node000016_Node000011" class="edge">
<title>Node16&#45;&gt;Node11</title>
<g id="a_edge18_Node000016_Node000011"><a xlink:title=" ">
<path fill="none" stroke="#63b8ff" d="M453.44,-461.02C447.4,-458.66 441.49,-456 436,-453 396.09,-431.22 357.77,-393.32 338.13,-372.24"/>
<polygon fill="#63b8ff" stroke="#63b8ff" points="452.4,-464.36 462.99,-464.48 454.78,-457.78 452.4,-464.36"/>
</a>
</g>
</g>
<!-- Node17&#45;&gt;Node11 -->
<g id="edge20_Node000017_Node000011" class="edge">
<title>Node17&#45;&gt;Node11</title>
<g id="a_edge20_Node000017_Node000011"><a xlink:title=" ">
<path fill="none" stroke="#63b8ff" d="M452.97,-410.8C447.21,-408.93 441.48,-406.98 436,-405 408.85,-395.17 378.83,-382.12 356.78,-372.1"/>
<polygon fill="#63b8ff" stroke="#63b8ff" points="452.09,-414.19 462.68,-413.87 454.21,-407.52 452.09,-414.19"/>
</a>
</g>
</g>
<!-- Node18&#45;&gt;Node11 -->
<g id="edge22_Node000018_Node000011" class="edge">
<title>Node18&#45;&gt;Node11</title>
<g id="a_edge22_Node000018_Node000011"><a xlink:title=" ">
<path fill="none" stroke="#63b8ff" d="M438.85,-371.26C420.63,-368.98 401.51,-366.6 384.23,-364.45"/>
<polygon fill="#63b8ff" stroke="#63b8ff" points="438.5,-374.74 448.86,-372.5 439.37,-367.79 438.5,-374.74"/>
</a>
</g>
</g>
<!-- Node19&#45;&gt;Node11 -->
<g id="edge24_Node000019_Node000011" class="edge">
<title>Node19&#45;&gt;Node11</title>
<g id="a_edge24_Node000019_Node000011"><a xlink:title=" ">
<path fill="none" stroke="#63b8ff" d="M443.02,-505.33C440.6,-503.98 438.25,-502.54 436,-501 385.37,-466.37 347.45,-401.53 332.04,-372.15"/>
<polygon fill="#63b8ff" stroke="#63b8ff" points="441.56,-508.51 452.07,-509.83 444.68,-502.25 441.56,-508.51"/>
</a>
</g>
</g>
<!-- Node20&#45;&gt;Node7 -->
<g id="edge27_Node000020_Node000007" class="edge">
<title>Node20&#45;&gt;Node7</title>
<g id="a_edge27_Node000020_Node000007"><a xlink:title=" ">
<path fill="none" stroke="#63b8ff" d="M253.92,-271.61C230.31,-277.33 204.7,-283.54 184.24,-288.49"/>
<polygon fill="#63b8ff" stroke="#63b8ff" points="254.99,-274.96 263.89,-269.2 253.34,-268.15 254.99,-274.96"/>
</a>
</g>
</g>
<!-- Node20&#45;&gt;Node12 -->
<g id="edge28_Node000020_Node000012" class="edge">
<title>Node20&#45;&gt;Node12</title>
<g id="a_edge28_Node000020_Node000012"><a xlink:title=" ">
<path fill="none" stroke="#63b8ff" d="M253.48,-256.17C237.4,-256.44 220.41,-256.73 204.76,-256.99"/>
<polygon fill="#63b8ff" stroke="#63b8ff" points="253.95,-259.66 263.89,-255.99 253.83,-252.66 253.95,-259.66"/>
</a>
</g>
</g>
<!-- Node21&#45;&gt;Node3 -->
<g id="edge30_Node000021_Node000003" class="edge">
<title>Node21&#45;&gt;Node3</title>
<g id="a_edge30_Node000021_Node000003"><a xlink:title=" ">
<path fill="none" stroke="#63b8ff" d="M1335.66,-333.91C1316.5,-339.35 1296.54,-345.01 1278.98,-349.98"/>
<polygon fill="#63b8ff" stroke="#63b8ff" points="1336.63,-337.28 1345.29,-331.18 1334.72,-330.54 1336.63,-337.28"/>
</a>
</g>
</g>
<!-- Node23&#45;&gt;Node3 -->
<g id="edge33_Node000023_Node000003" class="edge">
<title>Node23&#45;&gt;Node3</title>
<g id="a_edge33_Node000023_Node000003"><a xlink:title=" ">
<path fill="none" stroke="#63b8ff" d="M1359.22,-432.43C1350.35,-429.18 1341.37,-425.65 1333,-422 1304.45,-409.53 1273.15,-392.43 1251.82,-380.22"/>
<polygon fill="#63b8ff" stroke="#63b8ff" points="1358.16,-435.77 1368.76,-435.85 1360.52,-429.18 1358.16,-435.77"/>
</a>
</g>
</g>
<!-- Node24 -->
<g id="Node000024" class="node">
<title>Node24</title>
<g id="a_Node000024"><a xlink:href="classpolyfem_1_1io_1_1_out_geometry_data.html#a25fe9752910991469a316afa6687dcde" target="_top" xlink:title="saves the wireframe">
<polygon fill="white" stroke="#666666" points="1297,-456 1153,-456 1153,-426 1297,-426 1297,-456"/>
<text text-anchor="start" x="1161" y="-444" font-family="Helvetica,sans-Serif" font-size="10.00">polyfem::io::OutGeometry</text>
<text text-anchor="middle" x="1225" y="-433" font-family="Helvetica,sans-Serif" font-size="10.00">Data::save_wire</text>
</a>
</g>
</g>
<!-- Node23&#45;&gt;Node24 -->
<g id="edge34_Node000023_Node000024" class="edge">
<title>Node23&#45;&gt;Node24</title>
<g id="a_edge34_Node000023_Node000024"><a xlink:title=" ">
<path fill="none" stroke="#63b8ff" d="M1341.09,-447.04C1326.65,-446.28 1311.57,-445.49 1297.26,-444.74"/>
<polygon fill="#63b8ff" stroke="#63b8ff" points="1341.3,-450.56 1351.47,-447.59 1341.67,-443.57 1341.3,-450.56"/>
</a>
</g>
</g>
<!-- Node24&#45;&gt;Node4 -->
<g id="edge35_Node000024_Node000004" class="edge">
<title>Node24&#45;&gt;Node4</title>
<g id="a_edge35_Node000024_Node000004"><a xlink:title=" ">
<path fill="none" stroke="#63b8ff" d="M1179.34,-421.93C1149.04,-409 1109.53,-392.12 1081.4,-380.11"/>
<polygon fill="#63b8ff" stroke="#63b8ff" points="1178.26,-425.28 1188.83,-425.98 1181.01,-418.84 1178.26,-425.28"/>
</a>
</g>
</g>
<!-- Node25&#45;&gt;Node3 -->
<g id="edge37_Node000025_Node000003" class="edge">
<title>Node25&#45;&gt;Node3</title>
<g id="a_edge37_Node000025_Node000003"><a xlink:title=" ">
<path fill="none" stroke="#63b8ff" d="M1346.5,-275.82C1341.86,-277.72 1337.31,-279.78 1333,-282 1297.25,-300.4 1261.52,-331.25 1241.73,-349.71"/>
<polygon fill="#63b8ff" stroke="#63b8ff" points="1348.05,-278.98 1356.15,-272.15 1345.56,-272.44 1348.05,-278.98"/>
</a>
</g>
</g>
</g>
</svg>

<g id="navigator" transform="translate(0 0)" fill="#404254">
  <rect fill="#f2f5e9" fill-opacity="0.5" stroke="#606060" stroke-width=".5" x="0" y="0" width="60" height="60"/>
  <use id="zoomplus" xlink:href="#zoomPlus" x="17" y="9" onmousedown="handleZoom(evt,'in')"/>
  <use id="zoomminus" xlink:href="#zoomMin" x="42" y="9" onmousedown="handleZoom(evt,'out')"/>
  <use id="reset" xlink:href="#resetDef" x="30" y="36" onmousedown="handleReset()"/>
   <use id="arrowup" xlink:href="#arrowUp" x="0" y="0" onmousedown="handlePan(0,-1)"/>
  <use id="arrowright" xlink:href="#arrowRight" x="0" y="0" onmousedown="handlePan(1,0)"/>
  <use id="arrowdown" xlink:href="#arrowDown" x="0" y="0" onmousedown="handlePan(0,1)"/>
  <use id="arrowleft" xlink:href="#arrowLeft" x="0" y="0" onmousedown="handlePan(-1,0)"/>
</g>
<svg viewBox="0 0 15 15" width="100%" height="30px" preserveAspectRatio="xMaxYMin meet">
 <g id="arrow_out" transform="scale(0.3 0.3)">
  <a xlink:href="namespacepolyfem_1_1autogen_a9c2688a6744801097c2f8baa081ab3a7_icgraph_org.svg" target="_base">
   <rect id="button" ry="5" rx="5" y="6" x="6" height="38" width="38"
        fill="#f2f5e9" fill-opacity="0.5" stroke="#606060" stroke-width="1.0"/>
   <path id="arrow"
     d="M 11.500037,31.436501 C 11.940474,20.09759 22.043105,11.32322 32.158766,21.979434 L 37.068811,17.246167 C 37.068811,17.246167 37.088388,32 37.088388,32 L 22.160133,31.978069 C 22.160133,31.978069 26.997745,27.140456 26.997745,27.140456 C 18.528582,18.264221 13.291696,25.230495 11.500037,31.436501 z"
     style="fill:#404040;"/>
  </a>
 </g>
</svg>

<style type='text/css'>
<![CDATA[
[data-mouse-over-selected='false'] { opacity: 0.7; }
[data-mouse-over-selected='true']  { opacity: 1.0; }
]]>
</style>
<script type="application/ecmascript"><![CDATA[
document.addEventListener('DOMContentLoaded', (event) => {
  highlightEdges();
  highlightAdjacentNodes();
});
]]></script>
</svg>
