<?xml version="1.0" encoding="UTF-8" standalone="no"?>
<!DOCTYPE svg PUBLIC "-//W3C//DTD SVG 1.1//EN"
 "http://www.w3.org/Graphics/SVG/1.1/DTD/svg11.dtd">
<!-- Generated by graphviz version 2.43.0 (0)
 -->
<!-- Title: polyfem::mesh::apply_slim Pages: 1 -->
<svg width="354pt" height="86pt"
 viewBox="0.00 0.00 354.00 86.00" xmlns="http://www.w3.org/2000/svg" xmlns:xlink="http://www.w3.org/1999/xlink">
<g id="graph0" class="graph" transform="scale(1 1) rotate(0) translate(4 82)">
<title>polyfem::mesh::apply_slim</title>
<!-- Node1 -->
<g id="Node000001" class="node">
<title>Node1</title>
<g id="a_Node000001"><a xlink:title=" ">
<polygon fill="#999999" stroke="#666666" points="346,-48.5 197,-48.5 197,-29.5 346,-29.5 346,-48.5"/>
<text text-anchor="middle" x="271.5" y="-36.5" font-family="Helvetica,sans-Serif" font-size="10.00">polyfem::mesh::apply_slim</text>
</a>
</g>
</g>
<!-- Node2 -->
<g id="Node000002" class="node">
<title>Node2</title>
<g id="a_Node000002"><a xlink:href="classpolyfem_1_1solver_1_1_adjoint_n_l_problem.html#a530a168baf67f1c2f3cc21d36153dc19" target="_top" xlink:title=" ">
<polygon fill="white" stroke="#666666" points="150.5,-78 10.5,-78 10.5,-48 150.5,-48 150.5,-78"/>
<text text-anchor="start" x="18.5" y="-66" font-family="Helvetica,sans-Serif" font-size="10.00">polyfem::solver::Adjoint</text>
<text text-anchor="middle" x="80.5" y="-55" font-family="Helvetica,sans-Serif" font-size="10.00">NLProblem::is_step_valid</text>
</a>
</g>
</g>
<!-- Node1&#45;&gt;Node2 -->
<g id="edge1_Node000001_Node000002" class="edge">
<title>Node1&#45;&gt;Node2</title>
<g id="a_edge1_Node000001_Node000002"><a xlink:title=" ">
<path fill="none" stroke="#63b8ff" d="M186.8,-49.63C174.7,-51.17 162.36,-52.73 150.58,-54.23"/>
<polygon fill="#63b8ff" stroke="#63b8ff" points="187.41,-53.08 196.89,-48.35 186.53,-46.14 187.41,-53.08"/>
</a>
</g>
</g>
<!-- Node3 -->
<g id="Node000003" class="node">
<title>Node3</title>
<g id="a_Node000003"><a xlink:href="classpolyfem_1_1solver_1_1_adjoint_n_l_problem.html#a9e400a4eb1a5fefdec09ff9184e8c363" target="_top" xlink:title=" ">
<polygon fill="white" stroke="#666666" points="161,-30 0,-30 0,0 161,0 161,-30"/>
<text text-anchor="start" x="8" y="-18" font-family="Helvetica,sans-Serif" font-size="10.00">polyfem::solver::Adjoint</text>
<text text-anchor="middle" x="80.5" y="-7" font-family="Helvetica,sans-Serif" font-size="10.00">NLProblem::solution_changed</text>
</a>
</g>
</g>
<!-- Node1&#45;&gt;Node3 -->
<g id="edge2_Node000001_Node000003" class="edge">
<title>Node1&#45;&gt;Node3</title>
<g id="a_edge2_Node000001_Node000003"><a xlink:title=" ">
<path fill="none" stroke="#63b8ff" d="M186.91,-28.39C178.36,-27.3 169.68,-26.2 161.17,-25.12"/>
<polygon fill="#63b8ff" stroke="#63b8ff" points="186.53,-31.86 196.89,-29.65 187.41,-24.92 186.53,-31.86"/>
</a>
</g>
</g>
</g>
</svg>
