<?xml version="1.0" encoding="UTF-8" standalone="no"?>
<!DOCTYPE svg PUBLIC "-//W3C//DTD SVG 1.1//EN"
 "http://www.w3.org/Graphics/SVG/1.1/DTD/svg11.dtd">
<!-- Generated by graphviz version 2.43.0 (0)
 -->
<!-- Title: polyfem::pk2_from_cauchy Pages: 1 -->
<!--zoomable 285 -->

<svg id="main" version="1.1" xmlns="http://www.w3.org/2000/svg" xmlns:xlink="http://www.w3.org/1999/xlink" xml:space="preserve" onload="init(evt)">
<style type="text/css"><![CDATA[
.node, .edge {opacity: 0.7;}
.node.selected, .edge.selected {opacity: 1;}
.edge:hover path { stroke: red; }
.edge:hover polygon { stroke: red; fill: red; }
]]></style>

<defs>
  <circle id="rim" cx="0" cy="0" r="7"/>
  <circle id="rim2" cx="0" cy="0" r="3.5"/>
  <g id="zoomPlus">
    <use xlink:href="#rim" fill="#404040"><set attributeName="fill" to="#808080" begin="zoomplus.mouseover" end="zoomplus.mouseout"/></use>
    <path d="M-4,0h8M0,-4v8" fill="none" stroke="white" stroke-width="1.5" pointer-events="none"/>
  </g>
  <g id="zoomMin">
    <use xlink:href="#rim" fill="#404040"><set attributeName="fill" to="#808080" begin="zoomminus.mouseover" end="zoomminus.mouseout"/></use>
    <path d="M-4,0h8" fill="none" stroke="white" stroke-width="1.5" pointer-events="none"/>
  </g>
  <g id="arrowUp" transform="translate(30 24)">
    <use xlink:href="#rim"/>
    <path pointer-events="none" fill="none" stroke="white" stroke-width="1.5" d="M0,-3.0v7 M-2.5,-0.5L0,-3.0L2.5,-0.5"/>
  </g>
  <g id="arrowRight" transform="rotate(90) translate(36 -43)">
    <use xlink:href="#rim"/>
    <path pointer-events="none" fill="none" stroke="white" stroke-width="1.5" d="M0,-3.0v7 M-2.5,-0.5L0,-3.0L2.5,-0.5"/>
  </g>
  <g id="arrowDown" transform="rotate(180) translate(-30 -48)">
    <use xlink:href="#rim"/>
    <path pointer-events="none" fill="none" stroke="white" stroke-width="1.5" d="M0,-3.0v7 M-2.5,-0.5L0,-3.0L2.5,-0.5"/>
  </g>
  <g id="arrowLeft" transform="rotate(270) translate(-36 17)">
    <use xlink:href="#rim"/>
    <path pointer-events="none" fill="none" stroke="white" stroke-width="1.5" d="M0,-3.0v7 M-2.5,-0.5L0,-3.0L2.5,-0.5"/>
  </g>
  <g id="resetDef">
    <use xlink:href="#rim2" fill="#404040"><set attributeName="fill" to="#808080" begin="reset.mouseover" end="reset.mouseout"/></use>
  </g>
</defs>
<script type="application/ecmascript">
var viewWidth = 533;
var viewHeight = 285;
var sectionId = 'dynsection-19';
</script>
<script type="application/ecmascript" xlink:href="svg.min.js"/>
<svg id="graph" class="graph">
<g id="viewport">
<title>polyfem::pk2_from_cauchy</title>
<!-- Node1 -->
<g id="Node000001" class="node">
<title>Node1</title>
<g id="a_Node000001"><a xlink:title=" ">
<polygon fill="#999999" stroke="#666666" points="525,-148 376,-148 376,-129 525,-129 525,-148"/>
<text text-anchor="middle" x="450.5" y="-136" font-family="Helvetica,sans-Serif" font-size="10.00">polyfem::pk2_from_cauchy</text>
</a>
</g>
</g>
<!-- Node2 -->
<g id="Node000002" class="node">
<title>Node2</title>
<g id="a_Node000002"><a xlink:href="classpolyfem_1_1assembler_1_1_hooke_linear_elasticity.html#a8a4f6889f472be59bad7c4f2273e4797" target="_top" xlink:title=" ">
<polygon fill="white" stroke="#666666" points="309.5,-277 181.5,-277 181.5,-236 309.5,-236 309.5,-277"/>
<text text-anchor="start" x="189.5" y="-265" font-family="Helvetica,sans-Serif" font-size="10.00">polyfem::assembler</text>
<text text-anchor="start" x="189.5" y="-254" font-family="Helvetica,sans-Serif" font-size="10.00">::HookeLinearElasticity</text>
<text text-anchor="middle" x="245.5" y="-243" font-family="Helvetica,sans-Serif" font-size="10.00">::assign_stress_tensor</text>
</a>
</g>
</g>
<!-- Node1&#45;&gt;Node2 -->
<g id="edge1_Node000001_Node000002" class="edge">
<title>Node1&#45;&gt;Node2</title>
<g id="a_edge1_Node000001_Node000002"><a xlink:title=" ">
<path fill="none" stroke="#63b8ff" d="M432.98,-155.4C412.74,-175.24 376.61,-207.9 340,-227.5 330.56,-232.55 320.11,-236.88 309.7,-240.52"/>
<polygon fill="#63b8ff" stroke="#63b8ff" points="435.55,-157.78 440.17,-148.24 430.61,-152.82 435.55,-157.78"/>
</a>
</g>
</g>
<!-- Node4 -->
<g id="Node000004" class="node">
<title>Node4</title>
<g id="a_Node000004"><a xlink:href="classpolyfem_1_1assembler_1_1_incompressible_linear_elasticity_dispacement.html#a8115a0e7cb21ed2057ca974157fdf8db" target="_top" xlink:title=" ">
<polygon fill="white" stroke="#666666" points="340,-218 151,-218 151,-177 340,-177 340,-218"/>
<text text-anchor="start" x="159" y="-206" font-family="Helvetica,sans-Serif" font-size="10.00">polyfem::assembler</text>
<text text-anchor="start" x="159" y="-195" font-family="Helvetica,sans-Serif" font-size="10.00">::IncompressibleLinearElasticity</text>
<text text-anchor="middle" x="245.5" y="-184" font-family="Helvetica,sans-Serif" font-size="10.00">Dispacement::assign_stress_tensor</text>
</a>
</g>
</g>
<!-- Node1&#45;&gt;Node4 -->
<g id="edge3_Node000001_Node000004" class="edge">
<title>Node1&#45;&gt;Node4</title>
<g id="a_edge3_Node000001_Node000004"><a xlink:title=" ">
<path fill="none" stroke="#63b8ff" d="M406.57,-150.98C380.72,-158.49 347.15,-168.25 317.44,-176.88"/>
<polygon fill="#63b8ff" stroke="#63b8ff" points="407.81,-154.26 416.43,-148.11 405.85,-147.54 407.81,-154.26"/>
</a>
</g>
</g>
<!-- Node5 -->
<g id="Node000005" class="node">
<title>Node5</title>
<g id="a_Node000005"><a xlink:href="classpolyfem_1_1assembler_1_1_linear_elasticity.html#a03969218bbb85cb7a7aca2f8a626ed0a" target="_top" xlink:title=" ">
<polygon fill="white" stroke="#666666" points="305,-159 186,-159 186,-118 305,-118 305,-159"/>
<text text-anchor="start" x="194" y="-147" font-family="Helvetica,sans-Serif" font-size="10.00">polyfem::assembler</text>
<text text-anchor="start" x="194" y="-136" font-family="Helvetica,sans-Serif" font-size="10.00">::LinearElasticity::</text>
<text text-anchor="middle" x="245.5" y="-125" font-family="Helvetica,sans-Serif" font-size="10.00">assign_stress_tensor</text>
</a>
</g>
</g>
<!-- Node1&#45;&gt;Node5 -->
<g id="edge4_Node000001_Node000005" class="edge">
<title>Node1&#45;&gt;Node5</title>
<g id="a_edge4_Node000001_Node000005"><a xlink:title=" ">
<path fill="none" stroke="#63b8ff" d="M365.72,-138.5C345.4,-138.5 324.09,-138.5 305.21,-138.5"/>
<polygon fill="#63b8ff" stroke="#63b8ff" points="365.93,-142 375.93,-138.5 365.93,-135 365.93,-142"/>
</a>
</g>
</g>
<!-- Node6 -->
<g id="Node000006" class="node">
<title>Node6</title>
<g id="a_Node000006"><a xlink:href="classpolyfem_1_1assembler_1_1_neo_hookean_elasticity.html#aa47039bf1de90e80ae91612907595305" target="_top" xlink:title=" ">
<polygon fill="white" stroke="#666666" points="310.5,-100 180.5,-100 180.5,-59 310.5,-59 310.5,-100"/>
<text text-anchor="start" x="188.5" y="-88" font-family="Helvetica,sans-Serif" font-size="10.00">polyfem::assembler</text>
<text text-anchor="start" x="188.5" y="-77" font-family="Helvetica,sans-Serif" font-size="10.00">::NeoHookeanElasticity</text>
<text text-anchor="middle" x="245.5" y="-66" font-family="Helvetica,sans-Serif" font-size="10.00">::assign_stress_tensor</text>
</a>
</g>
</g>
<!-- Node1&#45;&gt;Node6 -->
<g id="edge6_Node000001_Node000006" class="edge">
<title>Node1&#45;&gt;Node6</title>
<g id="a_edge6_Node000001_Node000006"><a xlink:title=" ">
<path fill="none" stroke="#63b8ff" d="M406.61,-126.03C378.78,-117.95 342.01,-107.26 310.72,-98.17"/>
<polygon fill="#63b8ff" stroke="#63b8ff" points="405.85,-129.46 416.43,-128.89 407.81,-122.74 405.85,-129.46"/>
</a>
</g>
</g>
<!-- Node7 -->
<g id="Node000007" class="node">
<title>Node7</title>
<g id="a_Node000007"><a xlink:href="classpolyfem_1_1assembler_1_1_saint_venant_elasticity.html#a9738fe6e0da6dc342b4664308bdb89fb" target="_top" xlink:title=" ">
<polygon fill="white" stroke="#666666" points="308.5,-41 182.5,-41 182.5,0 308.5,0 308.5,-41"/>
<text text-anchor="start" x="190.5" y="-29" font-family="Helvetica,sans-Serif" font-size="10.00">polyfem::assembler</text>
<text text-anchor="start" x="190.5" y="-18" font-family="Helvetica,sans-Serif" font-size="10.00">::SaintVenantElasticity</text>
<text text-anchor="middle" x="245.5" y="-7" font-family="Helvetica,sans-Serif" font-size="10.00">::assign_stress_tensor</text>
</a>
</g>
</g>
<!-- Node1&#45;&gt;Node7 -->
<g id="edge8_Node000001_Node000007" class="edge">
<title>Node1&#45;&gt;Node7</title>
<g id="a_edge8_Node000001_Node000007"><a xlink:title=" ">
<path fill="none" stroke="#63b8ff" d="M432.91,-121.86C412.6,-102.32 376.4,-70.09 340,-50.5 330.24,-45.25 319.41,-40.73 308.68,-36.91"/>
<polygon fill="#63b8ff" stroke="#63b8ff" points="430.53,-124.42 440.12,-128.91 435.42,-119.42 430.53,-124.42"/>
</a>
</g>
</g>
<!-- Node3 -->
<g id="Node000003" class="node">
<title>Node3</title>
<g id="a_Node000003"><a xlink:href="classpolyfem_1_1assembler_1_1_multi_model.html#abbdd872cca26e6795efdea59c087d894" target="_top" xlink:title=" ">
<polygon fill="white" stroke="#666666" points="115,-129 0,-129 0,-88 115,-88 115,-129"/>
<text text-anchor="start" x="8" y="-117" font-family="Helvetica,sans-Serif" font-size="10.00">polyfem::assembler</text>
<text text-anchor="start" x="8" y="-106" font-family="Helvetica,sans-Serif" font-size="10.00">::MultiModel::assign</text>
<text text-anchor="middle" x="57.5" y="-95" font-family="Helvetica,sans-Serif" font-size="10.00">_stress_tensor</text>
</a>
</g>
</g>
<!-- Node2&#45;&gt;Node3 -->
<g id="edge2_Node000002_Node000003" class="edge">
<title>Node2&#45;&gt;Node3</title>
<g id="a_edge2_Node000002_Node000003"><a xlink:title=" ">
<path fill="none" stroke="#63b8ff" d="M171.81,-238.89C164.47,-235.69 157.39,-231.92 151,-227.5 113.56,-201.59 84.28,-155.93 69.37,-129.33"/>
<polygon fill="#63b8ff" stroke="#63b8ff" points="170.61,-242.18 181.19,-242.66 173.21,-235.69 170.61,-242.18"/>
</a>
</g>
</g>
<!-- Node5&#45;&gt;Node3 -->
<g id="edge5_Node000005_Node000003" class="edge">
<title>Node5&#45;&gt;Node3</title>
<g id="a_edge5_Node000005_Node000003"><a xlink:title=" ">
<path fill="none" stroke="#63b8ff" d="M175.94,-127.44C155.96,-124.22 134.37,-120.74 115.21,-117.65"/>
<polygon fill="#63b8ff" stroke="#63b8ff" points="175.47,-130.91 185.9,-129.05 176.59,-124 175.47,-130.91"/>
</a>
</g>
</g>
<!-- Node6&#45;&gt;Node3 -->
<g id="edge7_Node000006_Node000003" class="edge">
<title>Node6&#45;&gt;Node3</title>
<g id="a_edge7_Node000006_Node000003"><a xlink:title=" ">
<path fill="none" stroke="#63b8ff" d="M170.39,-91.05C152,-93.92 132.57,-96.95 115.16,-99.67"/>
<polygon fill="#63b8ff" stroke="#63b8ff" points="171.15,-94.48 180.49,-89.48 170.07,-87.56 171.15,-94.48"/>
</a>
</g>
</g>
<!-- Node7&#45;&gt;Node3 -->
<g id="edge9_Node000007_Node000003" class="edge">
<title>Node7&#45;&gt;Node3</title>
<g id="a_edge9_Node000007_Node000003"><a xlink:title=" ">
<path fill="none" stroke="#63b8ff" d="M172.83,-41.45C165.36,-44.24 157.96,-47.27 151,-50.5 128.66,-60.89 105.15,-75.68 87.43,-87.73"/>
<polygon fill="#63b8ff" stroke="#63b8ff" points="174.08,-44.72 182.3,-38.05 171.71,-38.14 174.08,-44.72"/>
</a>
</g>
</g>
</g>
</svg>

<g id="navigator" transform="translate(0 0)" fill="#404254">
  <rect fill="#f2f5e9" fill-opacity="0.5" stroke="#606060" stroke-width=".5" x="0" y="0" width="60" height="60"/>
  <use id="zoomplus" xlink:href="#zoomPlus" x="17" y="9" onmousedown="handleZoom(evt,'in')"/>
  <use id="zoomminus" xlink:href="#zoomMin" x="42" y="9" onmousedown="handleZoom(evt,'out')"/>
  <use id="reset" xlink:href="#resetDef" x="30" y="36" onmousedown="handleReset()"/>
   <use id="arrowup" xlink:href="#arrowUp" x="0" y="0" onmousedown="handlePan(0,-1)"/>
  <use id="arrowright" xlink:href="#arrowRight" x="0" y="0" onmousedown="handlePan(1,0)"/>
  <use id="arrowdown" xlink:href="#arrowDown" x="0" y="0" onmousedown="handlePan(0,1)"/>
  <use id="arrowleft" xlink:href="#arrowLeft" x="0" y="0" onmousedown="handlePan(-1,0)"/>
</g>
<svg viewBox="0 0 15 15" width="100%" height="30px" preserveAspectRatio="xMaxYMin meet">
 <g id="arrow_out" transform="scale(0.3 0.3)">
  <a xlink:href="namespacepolyfem_a2e0e4c0eef41d449e66abee527fc8e13_icgraph_org.svg" target="_base">
   <rect id="button" ry="5" rx="5" y="6" x="6" height="38" width="38"
        fill="#f2f5e9" fill-opacity="0.5" stroke="#606060" stroke-width="1.0"/>
   <path id="arrow"
     d="M 11.500037,31.436501 C 11.940474,20.09759 22.043105,11.32322 32.158766,21.979434 L 37.068811,17.246167 C 37.068811,17.246167 37.088388,32 37.088388,32 L 22.160133,31.978069 C 22.160133,31.978069 26.997745,27.140456 26.997745,27.140456 C 18.528582,18.264221 13.291696,25.230495 11.500037,31.436501 z"
     style="fill:#404040;"/>
  </a>
 </g>
</svg>

<style type='text/css'>
<![CDATA[
[data-mouse-over-selected='false'] { opacity: 0.7; }
[data-mouse-over-selected='true']  { opacity: 1.0; }
]]>
</style>
<script type="application/ecmascript"><![CDATA[
document.addEventListener('DOMContentLoaded', (event) => {
  highlightEdges();
  highlightAdjacentNodes();
});
]]></script>
</svg>
