<?xml version="1.0" encoding="UTF-8" standalone="no"?>
<!DOCTYPE svg PUBLIC "-//W3C//DTD SVG 1.1//EN"
 "http://www.w3.org/Graphics/SVG/1.1/DTD/svg11.dtd">
<!-- Generated by graphviz version 2.43.0 (0)
 -->
<!-- Title: polyfem::compute_surface_node_ids Pages: 1 -->
<svg width="703pt" height="230pt"
 viewBox="0.00 0.00 703.00 230.00" xmlns="http://www.w3.org/2000/svg" xmlns:xlink="http://www.w3.org/1999/xlink">
<g id="graph0" class="graph" transform="scale(1 1) rotate(0) translate(4 226)">
<title>polyfem::compute_surface_node_ids</title>
<!-- Node1 -->
<g id="Node000001" class="node">
<title>Node1</title>
<g id="a_Node000001"><a xlink:title=" ">
<polygon fill="#999999" stroke="#666666" points="147,-126 0,-126 0,-96 147,-96 147,-126"/>
<text text-anchor="start" x="8" y="-114" font-family="Helvetica,sans-Serif" font-size="10.00">polyfem::compute_surface</text>
<text text-anchor="middle" x="73.5" y="-103" font-family="Helvetica,sans-Serif" font-size="10.00">_node_ids</text>
</a>
</g>
</g>
<!-- Node2 -->
<g id="Node000002" class="node">
<title>Node2</title>
<g id="a_Node000002"><a xlink:href="classpolyfem_1_1varform_1_1_differentiable_var_form.html#a53c6fe77c64964dd46d95f7b3b8f6eb2" target="_top" xlink:title=" ">
<polygon fill="white" stroke="#666666" points="358,-222 183,-222 183,-192 358,-192 358,-222"/>
<text text-anchor="start" x="191" y="-210" font-family="Helvetica,sans-Serif" font-size="10.00">polyfem::varform::Differentiable</text>
<text text-anchor="middle" x="270.5" y="-199" font-family="Helvetica,sans-Serif" font-size="10.00">VarForm::boundary_state</text>
</a>
</g>
</g>
<!-- Node1&#45;&gt;Node2 -->
<g id="edge1_Node000001_Node000002" class="edge">
<title>Node1&#45;&gt;Node2</title>
<g id="a_edge1_Node000001_Node000002"><a xlink:title=" ">
<path fill="none" stroke="#63b8ff" d="M93.4,-126.25C114.23,-142.38 149.27,-167.6 183,-183 187.38,-185 191.96,-186.86 196.63,-188.6"/>
<polygon fill="#63b8ff" stroke="#63b8ff" points="195.71,-191.99 206.3,-191.98 198.02,-185.38 195.71,-191.99"/>
</a>
</g>
</g>
<!-- Node3 -->
<g id="Node000003" class="node">
<title>Node3</title>
<g id="a_Node000003"><a xlink:href="classpolyfem_1_1varform_1_1_f_e_space.html#a03a5faa5d5d2e98710d92b68a6d70301" target="_top" xlink:title=" ">
<polygon fill="white" stroke="#666666" points="345,-174 196,-174 196,-144 345,-144 345,-174"/>
<text text-anchor="start" x="204" y="-162" font-family="Helvetica,sans-Serif" font-size="10.00">polyfem::varform::FESpace</text>
<text text-anchor="middle" x="270.5" y="-151" font-family="Helvetica,sans-Serif" font-size="10.00">::geometry_basis_list</text>
</a>
</g>
</g>
<!-- Node1&#45;&gt;Node3 -->
<g id="edge2_Node000001_Node000003" class="edge">
<title>Node1&#45;&gt;Node3</title>
<g id="a_edge2_Node000001_Node000003"><a xlink:title=" ">
<path fill="none" stroke="#63b8ff" d="M135.66,-126.06C155.63,-130.97 177.97,-136.47 198.59,-141.54"/>
<polygon fill="#63b8ff" stroke="#63b8ff" points="198.01,-145.01 208.55,-144 199.68,-138.21 198.01,-145.01"/>
</a>
</g>
</g>
<!-- Node4 -->
<g id="Node000004" class="node">
<title>Node4</title>
<g id="a_Node000004"><a xlink:href="classpolyfem_1_1mesh_1_1_mesh.html#a5e569bdb72d6c480fe1f27ee4acda141" target="_top" xlink:title="Get the boundary selection of an element (face in 3d, edge in 2d)">
<polygon fill="white" stroke="#666666" points="331.5,-126 209.5,-126 209.5,-96 331.5,-96 331.5,-126"/>
<text text-anchor="start" x="217.5" y="-114" font-family="Helvetica,sans-Serif" font-size="10.00">polyfem::mesh::Mesh</text>
<text text-anchor="middle" x="270.5" y="-103" font-family="Helvetica,sans-Serif" font-size="10.00">::get_boundary_id</text>
</a>
</g>
</g>
<!-- Node1&#45;&gt;Node4 -->
<g id="edge3_Node000001_Node000004" class="edge">
<title>Node1&#45;&gt;Node4</title>
<g id="a_edge3_Node000001_Node000004"><a xlink:title=" ">
<path fill="none" stroke="#63b8ff" d="M147.11,-111C164.06,-111 182.08,-111 198.94,-111"/>
<polygon fill="#63b8ff" stroke="#63b8ff" points="199.27,-114.5 209.27,-111 199.27,-107.5 199.27,-114.5"/>
</a>
</g>
</g>
<!-- Node10 -->
<g id="Node000010" class="node">
<title>Node10</title>
<g id="a_Node000010"><a xlink:href="classpolyfem_1_1varform_1_1_differentiable_var_form.html#a5e5a3d681d36e002be5b6d667467570e" target="_top" xlink:title=" ">
<polygon fill="white" stroke="#666666" points="358,-78 183,-78 183,-48 358,-48 358,-78"/>
<text text-anchor="start" x="191" y="-66" font-family="Helvetica,sans-Serif" font-size="10.00">polyfem::varform::Differentiable</text>
<text text-anchor="middle" x="270.5" y="-55" font-family="Helvetica,sans-Serif" font-size="10.00">VarForm::get_mesh</text>
</a>
</g>
</g>
<!-- Node1&#45;&gt;Node10 -->
<g id="edge9_Node000001_Node000010" class="edge">
<title>Node1&#45;&gt;Node10</title>
<g id="a_edge9_Node000001_Node000010"><a xlink:title=" ">
<path fill="none" stroke="#63b8ff" d="M135.66,-95.94C155.63,-91.03 177.97,-85.53 198.59,-80.46"/>
<polygon fill="#63b8ff" stroke="#63b8ff" points="199.68,-83.79 208.55,-78 198.01,-76.99 199.68,-83.79"/>
</a>
</g>
</g>
<!-- Node11 -->
<g id="Node000011" class="node">
<title>Node11</title>
<g id="a_Node000011"><a xlink:href="classpolyfem_1_1varform_1_1_differentiable_var_form.html#acb55571633385f0aee1250fce6d53a14" target="_top" xlink:title=" ">
<polygon fill="white" stroke="#666666" points="358,-30 183,-30 183,0 358,0 358,-30"/>
<text text-anchor="start" x="191" y="-18" font-family="Helvetica,sans-Serif" font-size="10.00">polyfem::varform::Differentiable</text>
<text text-anchor="middle" x="270.5" y="-7" font-family="Helvetica,sans-Serif" font-size="10.00">VarForm::primary_space</text>
</a>
</g>
</g>
<!-- Node1&#45;&gt;Node11 -->
<g id="edge10_Node000001_Node000011" class="edge">
<title>Node1&#45;&gt;Node11</title>
<g id="a_edge10_Node000001_Node000011"><a xlink:title=" ">
<path fill="none" stroke="#63b8ff" d="M93.4,-95.75C114.23,-79.62 149.27,-54.4 183,-39 187.38,-37 191.96,-35.14 196.63,-33.4"/>
<polygon fill="#63b8ff" stroke="#63b8ff" points="198.02,-36.62 206.3,-30.02 195.71,-30.01 198.02,-36.62"/>
</a>
</g>
</g>
<!-- Node5 -->
<g id="Node000005" class="node">
<title>Node5</title>
<g id="a_Node000005"><a xlink:href="classpolyfem_1_1mesh_1_1_mesh.html#aad8b1ae368d562f132f816906d01de17" target="_top" xlink:title="Get the default boundary selection of an element (face in 3d, edge in 2d)">
<polygon fill="white" stroke="#666666" points="537,-150 394,-150 394,-120 537,-120 537,-150"/>
<text text-anchor="start" x="402" y="-138" font-family="Helvetica,sans-Serif" font-size="10.00">polyfem::mesh::Mesh</text>
<text text-anchor="middle" x="465.5" y="-127" font-family="Helvetica,sans-Serif" font-size="10.00">::get_default_boundary_id</text>
</a>
</g>
</g>
<!-- Node4&#45;&gt;Node5 -->
<g id="edge4_Node000004_Node000005" class="edge">
<title>Node4&#45;&gt;Node5</title>
<g id="a_edge4_Node000004_Node000005"><a xlink:title=" ">
<path fill="none" stroke="#63b8ff" d="M331.51,-118.46C347.97,-120.51 366.1,-122.76 383.53,-124.93"/>
<polygon fill="#63b8ff" stroke="#63b8ff" points="383.34,-128.43 393.7,-126.2 384.21,-121.49 383.34,-128.43"/>
</a>
</g>
</g>
<!-- Node9 -->
<g id="Node000009" class="node">
<title>Node9</title>
<g id="a_Node000009"><a xlink:href="classpolyfem_1_1mesh_1_1_mesh.html#a2a0448ef817e94ed705e39ac818bf9e1" target="_top" xlink:title="checks if surface selections are available">
<polygon fill="white" stroke="#666666" points="526.5,-102 404.5,-102 404.5,-72 526.5,-72 526.5,-102"/>
<text text-anchor="start" x="412.5" y="-90" font-family="Helvetica,sans-Serif" font-size="10.00">polyfem::mesh::Mesh</text>
<text text-anchor="middle" x="465.5" y="-79" font-family="Helvetica,sans-Serif" font-size="10.00">::has_boundary_ids</text>
</a>
</g>
</g>
<!-- Node4&#45;&gt;Node9 -->
<g id="edge8_Node000004_Node000009" class="edge">
<title>Node4&#45;&gt;Node9</title>
<g id="a_edge8_Node000004_Node000009"><a xlink:title=" ">
<path fill="none" stroke="#63b8ff" d="M331.51,-103.54C351.38,-101.07 373.68,-98.29 394.25,-95.74"/>
<polygon fill="#63b8ff" stroke="#63b8ff" points="394.7,-99.21 404.2,-94.5 393.84,-92.26 394.7,-99.21"/>
</a>
</g>
</g>
<!-- Node6 -->
<g id="Node000006" class="node">
<title>Node6</title>
<g id="a_Node000006"><a xlink:href="classpolyfem_1_1mesh_1_1_mesh.html#aa91ff468411251e60dd0bec73654b0fb" target="_top" xlink:title="is edge boundary">
<polygon fill="white" stroke="#666666" points="695,-198 573,-198 573,-168 695,-168 695,-198"/>
<text text-anchor="start" x="581" y="-186" font-family="Helvetica,sans-Serif" font-size="10.00">polyfem::mesh::Mesh</text>
<text text-anchor="middle" x="634" y="-175" font-family="Helvetica,sans-Serif" font-size="10.00">::is_boundary_edge</text>
</a>
</g>
</g>
<!-- Node5&#45;&gt;Node6 -->
<g id="edge5_Node000005_Node000006" class="edge">
<title>Node5&#45;&gt;Node6</title>
<g id="a_edge5_Node000005_Node000006"><a xlink:title=" ">
<path fill="none" stroke="#63b8ff" d="M518.72,-150.06C535.31,-154.84 553.81,-160.17 571.01,-165.13"/>
<polygon fill="#63b8ff" stroke="#63b8ff" points="570.38,-168.59 580.96,-168 572.32,-161.86 570.38,-168.59"/>
</a>
</g>
</g>
<!-- Node7 -->
<g id="Node000007" class="node">
<title>Node7</title>
<g id="a_Node000007"><a xlink:href="classpolyfem_1_1mesh_1_1_mesh.html#a57691e050de1b8142a237ffa388117e4" target="_top" xlink:title="is face boundary">
<polygon fill="white" stroke="#666666" points="695,-150 573,-150 573,-120 695,-120 695,-150"/>
<text text-anchor="start" x="581" y="-138" font-family="Helvetica,sans-Serif" font-size="10.00">polyfem::mesh::Mesh</text>
<text text-anchor="middle" x="634" y="-127" font-family="Helvetica,sans-Serif" font-size="10.00">::is_boundary_face</text>
</a>
</g>
</g>
<!-- Node5&#45;&gt;Node7 -->
<g id="edge6_Node000005_Node000007" class="edge">
<title>Node5&#45;&gt;Node7</title>
<g id="a_edge6_Node000005_Node000007"><a xlink:title=" ">
<path fill="none" stroke="#63b8ff" d="M537.11,-135C545.55,-135 554.18,-135 562.62,-135"/>
<polygon fill="#63b8ff" stroke="#63b8ff" points="562.8,-138.5 572.8,-135 562.8,-131.5 562.8,-138.5"/>
</a>
</g>
</g>
<!-- Node8 -->
<g id="Node000008" class="node">
<title>Node8</title>
<g id="a_Node000008"><a xlink:href="classpolyfem_1_1mesh_1_1_mesh.html#a93c9ea4759ded33a8f25ff157033cfd9" target="_top" xlink:title="checks if mesh is volume">
<polygon fill="white" stroke="#666666" points="695,-102 573,-102 573,-72 695,-72 695,-102"/>
<text text-anchor="start" x="581" y="-90" font-family="Helvetica,sans-Serif" font-size="10.00">polyfem::mesh::Mesh</text>
<text text-anchor="middle" x="634" y="-79" font-family="Helvetica,sans-Serif" font-size="10.00">::is_volume</text>
</a>
</g>
</g>
<!-- Node5&#45;&gt;Node8 -->
<g id="edge7_Node000005_Node000008" class="edge">
<title>Node5&#45;&gt;Node8</title>
<g id="a_edge7_Node000005_Node000008"><a xlink:title=" ">
<path fill="none" stroke="#63b8ff" d="M518.72,-119.94C535.31,-115.16 553.81,-109.83 571.01,-104.87"/>
<polygon fill="#63b8ff" stroke="#63b8ff" points="572.32,-108.14 580.96,-102 570.38,-101.41 572.32,-108.14"/>
</a>
</g>
</g>
</g>
</svg>
