<?xml version="1.0" encoding="UTF-8" standalone="no"?>
<!DOCTYPE svg PUBLIC "-//W3C//DTD SVG 1.1//EN"
 "http://www.w3.org/Graphics/SVG/1.1/DTD/svg11.dtd">
<!-- Generated by graphviz version 2.43.0 (0)
 -->
<!-- Title: polyfem::gradient_from_energy Pages: 1 -->
<svg width="489pt" height="226pt"
 viewBox="0.00 0.00 489.00 226.00" xmlns="http://www.w3.org/2000/svg" xmlns:xlink="http://www.w3.org/1999/xlink">
<g id="graph0" class="graph" transform="scale(1 1) rotate(0) translate(4 222)">
<title>polyfem::gradient_from_energy</title>
<!-- Node1 -->
<g id="node1" class="node">
<title>Node1</title>
<g id="a_node1"><a xlink:title=" ">
<polygon fill="#999999" stroke="#666666" points="481,-123.5 349,-123.5 349,-93.5 481,-93.5 481,-123.5"/>
<text text-anchor="start" x="357" y="-111.5" font-family="Helvetica,sans-Serif" font-size="10.00">polyfem::gradient_from</text>
<text text-anchor="middle" x="415" y="-100.5" font-family="Helvetica,sans-Serif" font-size="10.00">_energy</text>
</a>
</g>
</g>
<!-- Node2 -->
<g id="node2" class="node">
<title>Node2</title>
<g id="a_node2"><a xlink:href="classpolyfem_1_1assembler_1_1_generic_elastic.html#aa84dfc9edb199e2634ba0fcc9d899da2" target="_top" xlink:title=" ">
<polygon fill="white" stroke="#666666" points="313,-218 167,-218 167,-177 313,-177 313,-218"/>
<text text-anchor="start" x="175" y="-206" font-family="Helvetica,sans-Serif" font-size="10.00">polyfem::assembler</text>
<text text-anchor="start" x="175" y="-195" font-family="Helvetica,sans-Serif" font-size="10.00">::GenericElastic::assemble</text>
<text text-anchor="middle" x="240" y="-184" font-family="Helvetica,sans-Serif" font-size="10.00">_gradient</text>
</a>
</g>
</g>
<!-- Node1&#45;&gt;Node2 -->
<g id="edge1" class="edge">
<title>Node1&#45;&gt;Node2</title>
<path fill="none" stroke="#63b8ff" d="M382.38,-128.99C362.81,-141.23 336.94,-156.66 313,-168.5 307.2,-171.37 301.05,-174.18 294.87,-176.86"/>
<polygon fill="#63b8ff" stroke="#63b8ff" points="384.31,-131.91 390.9,-123.61 380.57,-125.99 384.31,-131.91"/>
</g>
<!-- Node4 -->
<g id="node4" class="node">
<title>Node4</title>
<g id="a_node4"><a xlink:href="classpolyfem_1_1assembler_1_1_hooke_linear_elasticity.html#a8b7a7e379469785e63bd95f40d680d63" target="_top" xlink:title=" ">
<polygon fill="white" stroke="#666666" points="304,-159 176,-159 176,-118 304,-118 304,-159"/>
<text text-anchor="start" x="184" y="-147" font-family="Helvetica,sans-Serif" font-size="10.00">polyfem::assembler</text>
<text text-anchor="start" x="184" y="-136" font-family="Helvetica,sans-Serif" font-size="10.00">::HookeLinearElasticity</text>
<text text-anchor="middle" x="240" y="-125" font-family="Helvetica,sans-Serif" font-size="10.00">::assemble_gradient</text>
</a>
</g>
</g>
<!-- Node1&#45;&gt;Node4 -->
<g id="edge3" class="edge">
<title>Node1&#45;&gt;Node4</title>
<path fill="none" stroke="#63b8ff" d="M338.6,-121.57C327.13,-123.56 315.39,-125.6 304.21,-127.54"/>
<polygon fill="#63b8ff" stroke="#63b8ff" points="339.34,-125 348.6,-119.84 338.15,-118.1 339.34,-125"/>
</g>
<!-- Node5 -->
<g id="node5" class="node">
<title>Node5</title>
<g id="a_node5"><a xlink:href="classpolyfem_1_1assembler_1_1_linear_elasticity.html#a526a044ad0a5c294c982d0a10dd9613f" target="_top" xlink:title=" ">
<polygon fill="white" stroke="#666666" points="297,-100 183,-100 183,-59 297,-59 297,-100"/>
<text text-anchor="start" x="191" y="-88" font-family="Helvetica,sans-Serif" font-size="10.00">polyfem::assembler</text>
<text text-anchor="start" x="191" y="-77" font-family="Helvetica,sans-Serif" font-size="10.00">::LinearElasticity::</text>
<text text-anchor="middle" x="240" y="-66" font-family="Helvetica,sans-Serif" font-size="10.00">assemble_gradient</text>
</a>
</g>
</g>
<!-- Node1&#45;&gt;Node5 -->
<g id="edge5" class="edge">
<title>Node1&#45;&gt;Node5</title>
<path fill="none" stroke="#63b8ff" d="M338.56,-95.85C324.66,-93.52 310.37,-91.13 297.16,-88.91"/>
<polygon fill="#63b8ff" stroke="#63b8ff" points="338.16,-99.33 348.6,-97.54 339.31,-92.43 338.16,-99.33"/>
</g>
<!-- Node6 -->
<g id="node6" class="node">
<title>Node6</title>
<g id="a_node6"><a xlink:href="classpolyfem_1_1assembler_1_1_saint_venant_elasticity.html#af67c8ed337e2ca9c785c4ee0fa5c235a" target="_top" xlink:title=" ">
<polygon fill="white" stroke="#666666" points="303,-41 177,-41 177,0 303,0 303,-41"/>
<text text-anchor="start" x="185" y="-29" font-family="Helvetica,sans-Serif" font-size="10.00">polyfem::assembler</text>
<text text-anchor="start" x="185" y="-18" font-family="Helvetica,sans-Serif" font-size="10.00">::SaintVenantElasticity</text>
<text text-anchor="middle" x="240" y="-7" font-family="Helvetica,sans-Serif" font-size="10.00">::assemble_gradient</text>
</a>
</g>
</g>
<!-- Node1&#45;&gt;Node6 -->
<g id="edge7" class="edge">
<title>Node1&#45;&gt;Node6</title>
<path fill="none" stroke="#63b8ff" d="M380.8,-88.02C361.37,-76.39 336.17,-61.92 313,-50.5 306.44,-47.27 299.45,-44.06 292.49,-41.02"/>
<polygon fill="#63b8ff" stroke="#63b8ff" points="379.2,-91.14 389.57,-93.31 382.82,-85.15 379.2,-91.14"/>
</g>
<!-- Node3 -->
<g id="node3" class="node">
<title>Node3</title>
<g id="a_node3"><a xlink:href="classpolyfem_1_1assembler_1_1_multi_model.html#a6a5547e3ddfa78abdb9fb12af42b5a36" target="_top" xlink:title=" ">
<polygon fill="white" stroke="#666666" points="131,-129 0,-129 0,-88 131,-88 131,-129"/>
<text text-anchor="start" x="8" y="-117" font-family="Helvetica,sans-Serif" font-size="10.00">polyfem::assembler</text>
<text text-anchor="start" x="8" y="-106" font-family="Helvetica,sans-Serif" font-size="10.00">::MultiModel::assemble</text>
<text text-anchor="middle" x="65.5" y="-95" font-family="Helvetica,sans-Serif" font-size="10.00">_gradient</text>
</a>
</g>
</g>
<!-- Node2&#45;&gt;Node3 -->
<g id="edge2" class="edge">
<title>Node2&#45;&gt;Node3</title>
<path fill="none" stroke="#63b8ff" d="M175.92,-172.76C172.88,-171.36 169.9,-169.94 167,-168.5 143.34,-156.76 117.79,-141.47 98.37,-129.26"/>
<polygon fill="#63b8ff" stroke="#63b8ff" points="174.56,-175.99 185.12,-176.87 177.42,-169.6 174.56,-175.99"/>
</g>
<!-- Node4&#45;&gt;Node3 -->
<g id="edge4" class="edge">
<title>Node4&#45;&gt;Node3</title>
<path fill="none" stroke="#63b8ff" d="M165.75,-125.76C154.27,-123.76 142.47,-121.71 131.19,-119.75"/>
<polygon fill="#63b8ff" stroke="#63b8ff" points="165.3,-129.23 175.75,-127.5 166.49,-122.34 165.3,-129.23"/>
</g>
<!-- Node5&#45;&gt;Node3 -->
<g id="edge6" class="edge">
<title>Node5&#45;&gt;Node3</title>
<path fill="none" stroke="#63b8ff" d="M172.74,-90.64C159.11,-92.93 144.78,-95.34 131.22,-97.62"/>
<polygon fill="#63b8ff" stroke="#63b8ff" points="173.71,-94.03 182.99,-88.92 172.55,-87.12 173.71,-94.03"/>
</g>
<!-- Node6&#45;&gt;Node3 -->
<g id="edge8" class="edge">
<title>Node6&#45;&gt;Node3</title>
<path fill="none" stroke="#63b8ff" d="M178.07,-45.23C174.3,-46.97 170.58,-48.73 167,-50.5 144.07,-61.84 119.15,-76.2 99.87,-87.8"/>
<polygon fill="#63b8ff" stroke="#63b8ff" points="179.81,-48.29 187.5,-41.01 176.95,-41.9 179.81,-48.29"/>
</g>
</g>
</svg>
