<?xml version="1.0" encoding="UTF-8" standalone="no"?>
<!DOCTYPE svg PUBLIC "-//W3C//DTD SVG 1.1//EN"
 "http://www.w3.org/Graphics/SVG/1.1/DTD/svg11.dtd">
<!-- Generated by graphviz version 2.43.0 (0)
 -->
<!-- Title: polyfem::mesh::Navigation::switch_vertex Pages: 1 -->
<!--zoomable 418 -->

<svg id="main" version="1.1" xmlns="http://www.w3.org/2000/svg" xmlns:xlink="http://www.w3.org/1999/xlink" xml:space="preserve" onload="init(evt)">
<style type="text/css"><![CDATA[
.node, .edge {opacity: 0.7;}
.node.selected, .edge.selected {opacity: 1;}
.edge:hover path { stroke: red; }
.edge:hover polygon { stroke: red; fill: red; }
]]></style>

<defs>
  <circle id="rim" cx="0" cy="0" r="7"/>
  <circle id="rim2" cx="0" cy="0" r="3.5"/>
  <g id="zoomPlus">
    <use xlink:href="#rim" fill="#404040"><set attributeName="fill" to="#808080" begin="zoomplus.mouseover" end="zoomplus.mouseout"/></use>
    <path d="M-4,0h8M0,-4v8" fill="none" stroke="white" stroke-width="1.5" pointer-events="none"/>
  </g>
  <g id="zoomMin">
    <use xlink:href="#rim" fill="#404040"><set attributeName="fill" to="#808080" begin="zoomminus.mouseover" end="zoomminus.mouseout"/></use>
    <path d="M-4,0h8" fill="none" stroke="white" stroke-width="1.5" pointer-events="none"/>
  </g>
  <g id="arrowUp" transform="translate(30 24)">
    <use xlink:href="#rim"/>
    <path pointer-events="none" fill="none" stroke="white" stroke-width="1.5" d="M0,-3.0v7 M-2.5,-0.5L0,-3.0L2.5,-0.5"/>
  </g>
  <g id="arrowRight" transform="rotate(90) translate(36 -43)">
    <use xlink:href="#rim"/>
    <path pointer-events="none" fill="none" stroke="white" stroke-width="1.5" d="M0,-3.0v7 M-2.5,-0.5L0,-3.0L2.5,-0.5"/>
  </g>
  <g id="arrowDown" transform="rotate(180) translate(-30 -48)">
    <use xlink:href="#rim"/>
    <path pointer-events="none" fill="none" stroke="white" stroke-width="1.5" d="M0,-3.0v7 M-2.5,-0.5L0,-3.0L2.5,-0.5"/>
  </g>
  <g id="arrowLeft" transform="rotate(270) translate(-36 17)">
    <use xlink:href="#rim"/>
    <path pointer-events="none" fill="none" stroke="white" stroke-width="1.5" d="M0,-3.0v7 M-2.5,-0.5L0,-3.0L2.5,-0.5"/>
  </g>
  <g id="resetDef">
    <use xlink:href="#rim2" fill="#404040"><set attributeName="fill" to="#808080" begin="reset.mouseover" end="reset.mouseout"/></use>
  </g>
</defs>
<script type="application/ecmascript">
var viewWidth = 2289;
var viewHeight = 418;
var sectionId = 'dynsection-10';
</script>
<script type="application/ecmascript" xlink:href="svg.min.js"/>
<svg id="graph" class="graph">
<g id="viewport">
<title>polyfem::mesh::Navigation::switch_vertex</title>
<!-- Node1 -->
<g id="Node000001" class="node">
<title>Node1</title>
<g id="a_Node000001"><a xlink:title=" ">
<polygon fill="#999999" stroke="#666666" points="2281,-155 2132,-155 2132,-125 2281,-125 2281,-155"/>
<text text-anchor="start" x="2140" y="-143" font-family="Helvetica,sans-Serif" font-size="10.00">polyfem::mesh::Navigation</text>
<text text-anchor="middle" x="2206.5" y="-132" font-family="Helvetica,sans-Serif" font-size="10.00">::switch_vertex</text>
</a>
</g>
</g>
<!-- Node2 -->
<g id="Node000002" class="node">
<title>Node2</title>
<g id="a_Node000002"><a xlink:href="namespacepolyfem_1_1mesh_1_1_navigation.html#a1b9d2ef721df947c3827b416016918fd" target="_top" xlink:title=" ">
<polygon fill="white" stroke="#666666" points="2096,-220 1947,-220 1947,-190 2096,-190 2096,-220"/>
<text text-anchor="start" x="1955" y="-208" font-family="Helvetica,sans-Serif" font-size="10.00">polyfem::mesh::Navigation</text>
<text text-anchor="middle" x="2021.5" y="-197" font-family="Helvetica,sans-Serif" font-size="10.00">::get_index_from_face</text>
</a>
</g>
</g>
<!-- Node1&#45;&gt;Node2 -->
<g id="edge1_Node000001_Node000002" class="edge">
<title>Node1&#45;&gt;Node2</title>
<g id="a_edge1_Node000001_Node000002"><a xlink:title=" ">
<path fill="none" stroke="#63b8ff" d="M2153.44,-158.49C2125.46,-168.43 2091.4,-180.53 2065.03,-189.89"/>
<polygon fill="#63b8ff" stroke="#63b8ff" points="2154.8,-161.72 2163.06,-155.08 2152.46,-155.12 2154.8,-161.72"/>
</a>
</g>
</g>
<!-- Node27 -->
<g id="Node000027" class="node">
<title>Node27</title>
<g id="a_Node000027"><a xlink:href="namespacepolyfem_1_1mesh.html#acc2511254531ec745f412fc383ba050d" target="_top" xlink:title="Refine a polygonal mesh.">
<polygon fill="white" stroke="#666666" points="1901.5,-158 1777.5,-158 1777.5,-128 1901.5,-128 1901.5,-158"/>
<text text-anchor="start" x="1785.5" y="-146" font-family="Helvetica,sans-Serif" font-size="10.00">polyfem::mesh::refine</text>
<text text-anchor="middle" x="1839.5" y="-135" font-family="Helvetica,sans-Serif" font-size="10.00">_polygonal_mesh</text>
</a>
</g>
</g>
<!-- Node1&#45;&gt;Node27 -->
<g id="edge43_Node000001_Node000027" class="edge">
<title>Node1&#45;&gt;Node27</title>
<g id="a_edge43_Node000001_Node000027"><a xlink:title=" ">
<path fill="none" stroke="#63b8ff" d="M2121.71,-142.53C2113.03,-142.72 2104.34,-142.89 2096,-143 2029.58,-143.91 1953.44,-143.76 1901.68,-143.47"/>
<polygon fill="#63b8ff" stroke="#63b8ff" points="2121.96,-146.03 2131.88,-142.29 2121.8,-139.03 2121.96,-146.03"/>
</a>
</g>
</g>
<!-- Node30 -->
<g id="Node000030" class="node">
<title>Node30</title>
<g id="a_Node000030"><a xlink:href="namespacepolyfem_1_1mesh.html#a1ba258a79feeaaadcd741cd4fa889ca9" target="_top" xlink:title="Refine a triangle mesh.">
<polygon fill="white" stroke="#666666" points="1901.5,-110 1777.5,-110 1777.5,-80 1901.5,-80 1901.5,-110"/>
<text text-anchor="start" x="1785.5" y="-98" font-family="Helvetica,sans-Serif" font-size="10.00">polyfem::mesh::refine</text>
<text text-anchor="middle" x="1839.5" y="-87" font-family="Helvetica,sans-Serif" font-size="10.00">_triangle_mesh</text>
</a>
</g>
</g>
<!-- Node1&#45;&gt;Node30 -->
<g id="edge44_Node000001_Node000030" class="edge">
<title>Node1&#45;&gt;Node30</title>
<g id="a_edge44_Node000001_Node000030"><a xlink:title=" ">
<path fill="none" stroke="#63b8ff" d="M2168.56,-120.59C2147.85,-110.8 2121.18,-99.97 2096,-95 2030.51,-82.07 1953.71,-84.34 1901.54,-88.41"/>
<polygon fill="#63b8ff" stroke="#63b8ff" points="2167.11,-123.77 2177.64,-124.99 2170.16,-117.48 2167.11,-123.77"/>
</a>
</g>
</g>
<!-- Node31 -->
<g id="Node000031" class="node">
<title>Node31</title>
<g id="a_Node000031"><a xlink:href="namespacepolyfem_1_1mesh_1_1_navigation.html#aaf5d4f00cc4dd68391471af5a598b1dd" target="_top" xlink:title=" ">
<polygon fill="white" stroke="#666666" points="2096,-48 1947,-48 1947,-18 2096,-18 2096,-48"/>
<text text-anchor="start" x="1955" y="-36" font-family="Helvetica,sans-Serif" font-size="10.00">polyfem::mesh::Navigation</text>
<text text-anchor="middle" x="2021.5" y="-25" font-family="Helvetica,sans-Serif" font-size="10.00">::next_around_edge</text>
</a>
</g>
</g>
<!-- Node1&#45;&gt;Node31 -->
<g id="edge39_Node000001_Node000031" class="edge">
<title>Node1&#45;&gt;Node31</title>
<g id="a_edge39_Node000001_Node000031"><a xlink:title=" ">
<path fill="none" stroke="#63b8ff" d="M2179.05,-118.37C2157.59,-101.52 2126.06,-78.32 2096,-62 2086.48,-56.83 2075.83,-52.09 2065.66,-48"/>
<polygon fill="#63b8ff" stroke="#63b8ff" points="2177.03,-121.23 2187.04,-124.71 2181.39,-115.75 2177.03,-121.23"/>
</a>
</g>
</g>
<!-- Node32 -->
<g id="Node000032" class="node">
<title>Node32</title>
<g id="a_Node000032"><a xlink:href="namespacepolyfem_1_1mesh_1_1_navigation.html#a7d6b7789d9155623da6a8ec00c3086ec" target="_top" xlink:title=" ">
<polygon fill="white" stroke="#666666" points="2096,-134 1947,-134 1947,-104 2096,-104 2096,-134"/>
<text text-anchor="start" x="1955" y="-122" font-family="Helvetica,sans-Serif" font-size="10.00">polyfem::mesh::Navigation</text>
<text text-anchor="middle" x="2021.5" y="-111" font-family="Helvetica,sans-Serif" font-size="10.00">::next_around_face</text>
</a>
</g>
</g>
<!-- Node1&#45;&gt;Node32 -->
<g id="edge40_Node000001_Node000032" class="edge">
<title>Node1&#45;&gt;Node32</title>
<g id="a_edge40_Node000001_Node000032"><a xlink:title=" ">
<path fill="none" stroke="#63b8ff" d="M2121.89,-130.41C2113.35,-129.43 2104.72,-128.43 2096.29,-127.47"/>
<polygon fill="#63b8ff" stroke="#63b8ff" points="2121.52,-133.89 2131.86,-131.55 2122.32,-126.93 2121.52,-133.89"/>
</a>
</g>
</g>
<!-- Node33 -->
<g id="Node000033" class="node">
<title>Node33</title>
<g id="a_Node000033"><a xlink:href="classpolyfem_1_1mesh_1_1_c_mesh2_d.html#a90761cc47054ca7ff42ce0d4c12c678e" target="_top" xlink:title=" ">
<polygon fill="white" stroke="#666666" points="2093,-336 1950,-336 1950,-306 2093,-306 2093,-336"/>
<text text-anchor="start" x="1958" y="-324" font-family="Helvetica,sans-Serif" font-size="10.00">polyfem::mesh::CMesh2D</text>
<text text-anchor="middle" x="2021.5" y="-313" font-family="Helvetica,sans-Serif" font-size="10.00">::switch_vertex</text>
</a>
</g>
</g>
<!-- Node1&#45;&gt;Node33 -->
<g id="edge45_Node000001_Node000033" class="edge">
<title>Node1&#45;&gt;Node33</title>
<g id="a_edge45_Node000001_Node000033"><a xlink:title=" ">
<path fill="none" stroke="#63b8ff" d="M2182.73,-162.52C2144.91,-199.93 2070.11,-273.91 2037.87,-305.8"/>
<polygon fill="#63b8ff" stroke="#63b8ff" points="2185.56,-164.64 2190.21,-155.12 2180.64,-159.66 2185.56,-164.64"/>
</a>
</g>
</g>
<!-- Node3 -->
<g id="Node000003" class="node">
<title>Node3</title>
<g id="a_Node000003"><a xlink:href="classpolyfem_1_1mesh_1_1_c_mesh2_d.html#acd82435a4005fe54dc87c97ce2903a19" target="_top" xlink:title=" ">
<polygon fill="white" stroke="#666666" points="1911,-256 1768,-256 1768,-226 1911,-226 1911,-256"/>
<text text-anchor="start" x="1776" y="-244" font-family="Helvetica,sans-Serif" font-size="10.00">polyfem::mesh::CMesh2D</text>
<text text-anchor="middle" x="1839.5" y="-233" font-family="Helvetica,sans-Serif" font-size="10.00">::get_index_from_face</text>
</a>
</g>
</g>
<!-- Node2&#45;&gt;Node3 -->
<g id="edge2_Node000002_Node000003" class="edge">
<title>Node2&#45;&gt;Node3</title>
<g id="a_edge2_Node000002_Node000003"><a xlink:title=" ">
<path fill="none" stroke="#63b8ff" d="M1936.78,-221.74C1928.23,-223.45 1919.61,-225.18 1911.21,-226.86"/>
<polygon fill="#63b8ff" stroke="#63b8ff" points="1937.65,-225.14 1946.77,-219.75 1936.28,-218.28 1937.65,-225.14"/>
</a>
</g>
</g>
<!-- Node2&#45;&gt;Node27 -->
<g id="edge34_Node000002_Node000027" class="edge">
<title>Node2&#45;&gt;Node27</title>
<g id="a_edge34_Node000002_Node000027"><a xlink:title=" ">
<path fill="none" stroke="#63b8ff" d="M1967.43,-186.72C1940.97,-177.61 1909.35,-166.72 1884.3,-158.09"/>
<polygon fill="#63b8ff" stroke="#63b8ff" points="1966.33,-190.04 1976.93,-189.99 1968.61,-183.43 1966.33,-190.04"/>
</a>
</g>
</g>
<!-- Node2&#45;&gt;Node30 -->
<g id="edge37_Node000002_Node000030" class="edge">
<title>Node2&#45;&gt;Node30</title>
<g id="a_edge37_Node000002_Node000030"><a xlink:title=" ">
<path fill="none" stroke="#63b8ff" d="M1995,-183.34C1968.48,-161.1 1928.43,-128.45 1911,-119 1904.86,-115.67 1898.18,-112.68 1891.45,-110.03"/>
<polygon fill="#63b8ff" stroke="#63b8ff" points="1992.86,-186.1 2002.76,-189.87 1997.37,-180.75 1992.86,-186.1"/>
</a>
</g>
</g>
<!-- Node4 -->
<g id="Node000004" class="node">
<title>Node4</title>
<g id="a_Node000004"><a xlink:href="classpolyfem_1_1mesh_1_1_c_mesh2_d.html#adee7e38b7b60601cb04eff9b365b90c5" target="_top" xlink:title="attach high order nodes">
<polygon fill="white" stroke="#666666" points="1714.5,-410 1559.5,-410 1559.5,-380 1714.5,-380 1714.5,-410"/>
<text text-anchor="start" x="1567.5" y="-398" font-family="Helvetica,sans-Serif" font-size="10.00">polyfem::mesh::CMesh2D</text>
<text text-anchor="middle" x="1637" y="-387" font-family="Helvetica,sans-Serif" font-size="10.00">::attach_higher_order_nodes</text>
</a>
</g>
</g>
<!-- Node3&#45;&gt;Node4 -->
<g id="edge3_Node000003_Node000004" class="edge">
<title>Node3&#45;&gt;Node4</title>
<g id="a_edge3_Node000003_Node000004"><a xlink:title=" ">
<path fill="none" stroke="#63b8ff" d="M1782.71,-260.99C1777.31,-264.43 1772.26,-268.41 1768,-273 1736.43,-307 1766.44,-339.91 1732,-371 1726.87,-375.63 1720.98,-379.39 1714.69,-382.44"/>
<polygon fill="#63b8ff" stroke="#63b8ff" points="1784.48,-264.02 1791.43,-256.02 1781.01,-257.93 1784.48,-264.02"/>
</a>
</g>
</g>
<!-- Node5 -->
<g id="Node000005" class="node">
<title>Node5</title>
<g id="a_Node000005"><a xlink:href="classpolyfem_1_1mesh_1_1_c_mesh2_d.html#a6d6af3e70809917f468ea0daa49df7b2" target="_top" xlink:title="is cell boundary">
<polygon fill="white" stroke="#666666" points="1708.5,-302 1565.5,-302 1565.5,-272 1708.5,-272 1708.5,-302"/>
<text text-anchor="start" x="1573.5" y="-290" font-family="Helvetica,sans-Serif" font-size="10.00">polyfem::mesh::CMesh2D</text>
<text text-anchor="middle" x="1637" y="-279" font-family="Helvetica,sans-Serif" font-size="10.00">::is_boundary_element</text>
</a>
</g>
</g>
<!-- Node3&#45;&gt;Node5 -->
<g id="edge4_Node000003_Node000005" class="edge">
<title>Node3&#45;&gt;Node5</title>
<g id="a_edge4_Node000003_Node000005"><a xlink:title=" ">
<path fill="none" stroke="#63b8ff" d="M1763.05,-258.31C1743.44,-262.81 1722.49,-267.61 1703.46,-271.98"/>
<polygon fill="#63b8ff" stroke="#63b8ff" points="1763.88,-261.71 1772.85,-256.06 1762.32,-254.89 1763.88,-261.71"/>
</a>
</g>
</g>
<!-- Node6 -->
<g id="Node000006" class="node">
<title>Node6</title>
<g id="a_Node000006"><a xlink:href="classpolyfem_1_1utils_1_1_boundary_sampler.html#aa925326e2e2dfa5e305959154ed99ca5" target="_top" xlink:title=" ">
<polygon fill="white" stroke="#666666" points="1732,-206 1542,-206 1542,-176 1732,-176 1732,-206"/>
<text text-anchor="start" x="1550" y="-194" font-family="Helvetica,sans-Serif" font-size="10.00">polyfem::utils::Boundary</text>
<text text-anchor="middle" x="1637" y="-183" font-family="Helvetica,sans-Serif" font-size="10.00">Sampler::normal_for_polygon_edge</text>
</a>
</g>
</g>
<!-- Node3&#45;&gt;Node6 -->
<g id="edge5_Node000003_Node000006" class="edge">
<title>Node3&#45;&gt;Node6</title>
<g id="a_edge5_Node000003_Node000006"><a xlink:title=" ">
<path fill="none" stroke="#63b8ff" d="M1768.39,-223.52C1745.59,-217.83 1720.49,-211.57 1698.46,-206.08"/>
<polygon fill="#63b8ff" stroke="#63b8ff" points="1767.79,-226.97 1778.34,-226 1769.49,-220.18 1767.79,-226.97"/>
</a>
</g>
</g>
<!-- Node25 -->
<g id="Node000025" class="node">
<title>Node25</title>
<g id="a_Node000025"><a xlink:href="classpolyfem_1_1utils_1_1_boundary_sampler.html#a02cf0bca8805defe581ac1902403ced2" target="_top" xlink:title=" ">
<polygon fill="white" stroke="#666666" points="1705.5,-361.5 1568.5,-361.5 1568.5,-320.5 1705.5,-320.5 1705.5,-361.5"/>
<text text-anchor="start" x="1576.5" y="-349.5" font-family="Helvetica,sans-Serif" font-size="10.00">polyfem::utils::Boundary</text>
<text text-anchor="start" x="1576.5" y="-338.5" font-family="Helvetica,sans-Serif" font-size="10.00">Sampler::quadrature_for</text>
<text text-anchor="middle" x="1637" y="-327.5" font-family="Helvetica,sans-Serif" font-size="10.00">_polygon_edge</text>
</a>
</g>
</g>
<!-- Node3&#45;&gt;Node25 -->
<g id="edge31_Node000003_Node000025" class="edge">
<title>Node3&#45;&gt;Node25</title>
<g id="a_edge31_Node000003_Node000025"><a xlink:title=" ">
<path fill="none" stroke="#63b8ff" d="M1789,-260.5C1781.7,-264.21 1774.46,-268.39 1768,-273 1749.06,-286.5 1751.7,-298.63 1732,-311 1723.88,-316.1 1714.81,-320.41 1705.6,-324.02"/>
<polygon fill="#63b8ff" stroke="#63b8ff" points="1790.75,-263.54 1798.24,-256.05 1787.71,-257.23 1790.75,-263.54"/>
</a>
</g>
</g>
<!-- Node26 -->
<g id="Node000026" class="node">
<title>Node26</title>
<g id="a_Node000026"><a xlink:href="classpolyfem_1_1utils_1_1_boundary_sampler.html#acb587c61b43b393260dba4a5a95c090b" target="_top" xlink:title=" ">
<polygon fill="white" stroke="#666666" points="1723.5,-254 1550.5,-254 1550.5,-224 1723.5,-224 1723.5,-254"/>
<text text-anchor="start" x="1558.5" y="-242" font-family="Helvetica,sans-Serif" font-size="10.00">polyfem::utils::Boundary</text>
<text text-anchor="middle" x="1637" y="-231" font-family="Helvetica,sans-Serif" font-size="10.00">Sampler::sample_polygon_edge</text>
</a>
</g>
</g>
<!-- Node3&#45;&gt;Node26 -->
<g id="edge32_Node000003_Node000026" class="edge">
<title>Node3&#45;&gt;Node26</title>
<g id="a_edge32_Node000003_Node000026"><a xlink:title=" ">
<path fill="none" stroke="#63b8ff" d="M1757.61,-240.19C1746.39,-240.08 1734.83,-239.97 1723.52,-239.85"/>
<polygon fill="#63b8ff" stroke="#63b8ff" points="1757.78,-243.69 1767.81,-240.29 1757.85,-236.7 1757.78,-243.69"/>
</a>
</g>
</g>
<!-- Node7 -->
<g id="Node000007" class="node">
<title>Node7</title>
<g id="a_Node000007"><a xlink:href="classpolyfem_1_1io_1_1_out_geometry_data.html#a64a28ee005ac8965605f23b42b311e84" target="_top" xlink:title="builds the boundary mesh for visualization">
<polygon fill="white" stroke="#666666" points="1506,-230 1333,-230 1333,-200 1506,-200 1506,-230"/>
<text text-anchor="start" x="1341" y="-218" font-family="Helvetica,sans-Serif" font-size="10.00">polyfem::io::OutGeometry</text>
<text text-anchor="middle" x="1419.5" y="-207" font-family="Helvetica,sans-Serif" font-size="10.00">Data::build_vis_boundary_mesh</text>
</a>
</g>
</g>
<!-- Node6&#45;&gt;Node7 -->
<g id="edge6_Node000006_Node000007" class="edge">
<title>Node6&#45;&gt;Node7</title>
<g id="a_edge6_Node000006_Node000007"><a xlink:title=" ">
<path fill="none" stroke="#63b8ff" d="M1531.72,-202.61C1523.11,-203.57 1514.48,-204.53 1506.04,-205.47"/>
<polygon fill="#63b8ff" stroke="#63b8ff" points="1532.24,-206.08 1541.79,-201.49 1531.47,-199.12 1532.24,-206.08"/>
</a>
</g>
</g>
<!-- Node8 -->
<g id="Node000008" class="node">
<title>Node8</title>
<g id="a_Node000008"><a xlink:href="classpolyfem_1_1io_1_1_out_geometry_data.html#a3ced1e4da4617f574fe2f30b4d2eca84" target="_top" xlink:title="saves the surface vtu file for for surface quantites, eg traction forces">
<polygon fill="white" stroke="#666666" points="1297,-230 1153,-230 1153,-200 1297,-200 1297,-230"/>
<text text-anchor="start" x="1161" y="-218" font-family="Helvetica,sans-Serif" font-size="10.00">polyfem::io::OutGeometry</text>
<text text-anchor="middle" x="1225" y="-207" font-family="Helvetica,sans-Serif" font-size="10.00">Data::save_surface</text>
</a>
</g>
</g>
<!-- Node7&#45;&gt;Node8 -->
<g id="edge7_Node000007_Node000008" class="edge">
<title>Node7&#45;&gt;Node8</title>
<g id="a_edge7_Node000007_Node000008"><a xlink:title=" ">
<path fill="none" stroke="#63b8ff" d="M1322.83,-215C1314.19,-215 1305.55,-215 1297.18,-215"/>
<polygon fill="#63b8ff" stroke="#63b8ff" points="1322.95,-218.5 1332.95,-215 1322.95,-211.5 1322.95,-218.5"/>
</a>
</g>
</g>
<!-- Node9 -->
<g id="Node000009" class="node">
<title>Node9</title>
<g id="a_Node000009"><a xlink:href="classpolyfem_1_1io_1_1_out_geometry_data.html#aa3fbccda3a6e6f7fd5a7b3bcbd146793" target="_top" xlink:title="saves the vtu file for time t">
<polygon fill="white" stroke="#666666" points="1117,-230 973,-230 973,-200 1117,-200 1117,-230"/>
<text text-anchor="start" x="981" y="-218" font-family="Helvetica,sans-Serif" font-size="10.00">polyfem::io::OutGeometry</text>
<text text-anchor="middle" x="1045" y="-207" font-family="Helvetica,sans-Serif" font-size="10.00">Data::save_vtu</text>
</a>
</g>
</g>
<!-- Node8&#45;&gt;Node9 -->
<g id="edge8_Node000008_Node000009" class="edge">
<title>Node8&#45;&gt;Node9</title>
<g id="a_edge8_Node000008_Node000009"><a xlink:title=" ">
<path fill="none" stroke="#63b8ff" d="M1142.83,-215C1134.21,-215 1125.49,-215 1117,-215"/>
<polygon fill="#63b8ff" stroke="#63b8ff" points="1142.88,-218.5 1152.88,-215 1142.88,-211.5 1142.88,-218.5"/>
</a>
</g>
</g>
<!-- Node10 -->
<g id="Node000010" class="node">
<title>Node10</title>
<g id="a_Node000010"><a xlink:href="classpolyfem_1_1io_1_1_out_geometry_data.html#a9826defd7d8f3c4c12df2ba9c4c45320" target="_top" xlink:title="exports everytihng, txt, vtu, etc">
<polygon fill="white" stroke="#666666" points="937,-294 793,-294 793,-264 937,-264 937,-294"/>
<text text-anchor="start" x="801" y="-282" font-family="Helvetica,sans-Serif" font-size="10.00">polyfem::io::OutGeometry</text>
<text text-anchor="middle" x="865" y="-271" font-family="Helvetica,sans-Serif" font-size="10.00">Data::export_data</text>
</a>
</g>
</g>
<!-- Node9&#45;&gt;Node10 -->
<g id="edge9_Node000009_Node000010" class="edge">
<title>Node9&#45;&gt;Node10</title>
<g id="a_edge9_Node000009_Node000010"><a xlink:title=" ">
<path fill="none" stroke="#63b8ff" d="M992.62,-233.47C965.7,-243.15 933.14,-254.86 907.78,-263.98"/>
<polygon fill="#63b8ff" stroke="#63b8ff" points="994.04,-236.68 1002.27,-230.01 991.67,-230.1 994.04,-236.68"/>
</a>
</g>
</g>
<!-- Node14 -->
<g id="Node000014" class="node">
<title>Node14</title>
<g id="a_Node000014"><a xlink:href="classpolyfem_1_1_state.html#a29b1283c20475e19b79a39cd324ac5aa" target="_top" xlink:title="saves a subsolve when save_solve_sequence_debug is true">
<polygon fill="white" stroke="#666666" points="924,-230 806,-230 806,-200 924,-200 924,-230"/>
<text text-anchor="start" x="814" y="-218" font-family="Helvetica,sans-Serif" font-size="10.00">polyfem::State::save</text>
<text text-anchor="middle" x="865" y="-207" font-family="Helvetica,sans-Serif" font-size="10.00">_subsolve</text>
</a>
</g>
</g>
<!-- Node9&#45;&gt;Node14 -->
<g id="edge13_Node000009_Node000014" class="edge">
<title>Node9&#45;&gt;Node14</title>
<g id="a_edge13_Node000009_Node000014"><a xlink:title=" ">
<path fill="none" stroke="#63b8ff" d="M962.56,-215C949.61,-215 936.44,-215 924.16,-215"/>
<polygon fill="#63b8ff" stroke="#63b8ff" points="962.88,-218.5 972.88,-215 962.88,-211.5 962.88,-218.5"/>
</a>
</g>
</g>
<!-- Node20 -->
<g id="Node000020" class="node">
<title>Node20</title>
<g id="a_Node000020"><a xlink:href="classpolyfem_1_1_state.html#a442fa686e1d08a0a104f3869a6fa2948" target="_top" xlink:title="saves a timestep">
<polygon fill="white" stroke="#666666" points="755.5,-150 637.5,-150 637.5,-120 755.5,-120 755.5,-150"/>
<text text-anchor="start" x="645.5" y="-138" font-family="Helvetica,sans-Serif" font-size="10.00">polyfem::State::save</text>
<text text-anchor="middle" x="696.5" y="-127" font-family="Helvetica,sans-Serif" font-size="10.00">_timestep</text>
</a>
</g>
</g>
<!-- Node9&#45;&gt;Node20 -->
<g id="edge21_Node000009_Node000020" class="edge">
<title>Node9&#45;&gt;Node20</title>
<g id="a_edge21_Node000009_Node000020"><a xlink:title=" ">
<path fill="none" stroke="#63b8ff" d="M968.8,-197.64C904.85,-182.87 814.32,-161.97 755.75,-148.45"/>
<polygon fill="#63b8ff" stroke="#63b8ff" points="968.29,-201.11 978.83,-199.95 969.87,-194.29 968.29,-201.11"/>
</a>
</g>
</g>
<!-- Node11 -->
<g id="Node000011" class="node">
<title>Node11</title>
<g id="a_Node000011"><a xlink:href="classpolyfem_1_1_state.html#acc61dcd623eec2308480c5c082da3d9e" target="_top" xlink:title="saves all data on the disk according to the input params">
<polygon fill="white" stroke="#666666" points="400,-280.5 247,-280.5 247,-261.5 400,-261.5 400,-280.5"/>
<text text-anchor="middle" x="323.5" y="-268.5" font-family="Helvetica,sans-Serif" font-size="10.00">polyfem::State::export_data</text>
</a>
</g>
</g>
<!-- Node10&#45;&gt;Node11 -->
<g id="edge10_Node000010_Node000011" class="edge">
<title>Node10&#45;&gt;Node11</title>
<g id="a_edge10_Node000010_Node000011"><a xlink:title=" ">
<path fill="none" stroke="#63b8ff" d="M782.81,-277.8C679.11,-276.26 501.02,-273.62 400.09,-272.12"/>
<polygon fill="#63b8ff" stroke="#63b8ff" points="782.86,-281.3 792.92,-277.95 782.97,-274.3 782.86,-281.3"/>
</a>
</g>
</g>
<!-- Node12 -->
<g id="Node000012" class="node">
<title>Node12</title>
<g id="a_Node000012"><a xlink:href="main_8cpp.html#aec889c702a246ad7f332c75ab7adb438" target="_top" xlink:title=" ">
<polygon fill="white" stroke="#666666" points="199.5,-264.5 88.5,-264.5 88.5,-245.5 199.5,-245.5 199.5,-264.5"/>
<text text-anchor="middle" x="144" y="-252.5" font-family="Helvetica,sans-Serif" font-size="10.00">forward_simulation</text>
</a>
</g>
</g>
<!-- Node11&#45;&gt;Node12 -->
<g id="edge11_Node000011_Node000012" class="edge">
<title>Node11&#45;&gt;Node12</title>
<g id="a_edge11_Node000011_Node000012"><a xlink:title=" ">
<path fill="none" stroke="#63b8ff" d="M236.82,-263.28C224.12,-262.13 211.33,-260.98 199.5,-259.91"/>
<polygon fill="#63b8ff" stroke="#63b8ff" points="236.69,-266.78 246.97,-264.19 237.32,-259.81 236.69,-266.78"/>
</a>
</g>
</g>
<!-- Node13 -->
<g id="Node000013" class="node">
<title>Node13</title>
<g id="a_Node000013"><a xlink:href="main_8cpp.html#a3c04138a5bfe5d72780bb7e82a18e627" target="_top" xlink:title=" ">
<polygon fill="white" stroke="#666666" points="41,-264.5 0,-264.5 0,-245.5 41,-245.5 41,-264.5"/>
<text text-anchor="middle" x="20.5" y="-252.5" font-family="Helvetica,sans-Serif" font-size="10.00">main</text>
</a>
</g>
</g>
<!-- Node12&#45;&gt;Node13 -->
<g id="edge12_Node000012_Node000013" class="edge">
<title>Node12&#45;&gt;Node13</title>
<g id="a_edge12_Node000012_Node000013"><a xlink:title=" ">
<path fill="none" stroke="#63b8ff" d="M77.97,-255C64.49,-255 51.29,-255 41.05,-255"/>
<polygon fill="#63b8ff" stroke="#63b8ff" points="78.29,-258.5 88.29,-255 78.29,-251.5 78.29,-258.5"/>
</a>
</g>
</g>
<!-- Node15 -->
<g id="Node000015" class="node">
<title>Node15</title>
<g id="a_Node000015"><a xlink:href="classpolyfem_1_1_state.html#acdb194af25d840fa14cec97b19e04577" target="_top" xlink:title="solves nonlinear problems">
<polygon fill="white" stroke="#666666" points="757,-230 636,-230 636,-200 757,-200 757,-230"/>
<text text-anchor="start" x="644" y="-218" font-family="Helvetica,sans-Serif" font-size="10.00">polyfem::State::solve</text>
<text text-anchor="middle" x="696.5" y="-207" font-family="Helvetica,sans-Serif" font-size="10.00">_tensor_nonlinear</text>
</a>
</g>
</g>
<!-- Node14&#45;&gt;Node15 -->
<g id="edge14_Node000014_Node000015" class="edge">
<title>Node14&#45;&gt;Node15</title>
<g id="a_edge14_Node000014_Node000015"><a xlink:title=" ">
<path fill="none" stroke="#63b8ff" d="M795.64,-215C782.86,-215 769.6,-215 757.11,-215"/>
<polygon fill="#63b8ff" stroke="#63b8ff" points="795.77,-218.5 805.77,-215 795.77,-211.5 795.77,-218.5"/>
</a>
</g>
</g>
<!-- Node16 -->
<g id="Node000016" class="node">
<title>Node16</title>
<g id="a_Node000016"><a xlink:href="classpolyfem_1_1_state.html#a7450ef7c42dd9c523e1be73a5819117d" target="_top" xlink:title="solves the problems">
<polygon fill="white" stroke="#666666" points="384,-174 263,-174 263,-144 384,-144 384,-174"/>
<text text-anchor="start" x="271" y="-162" font-family="Helvetica,sans-Serif" font-size="10.00">polyfem::State::solve</text>
<text text-anchor="middle" x="323.5" y="-151" font-family="Helvetica,sans-Serif" font-size="10.00">_problem</text>
</a>
</g>
</g>
<!-- Node15&#45;&gt;Node16 -->
<g id="edge15_Node000015_Node000016" class="edge">
<title>Node15&#45;&gt;Node16</title>
<g id="a_edge15_Node000015_Node000016"><a xlink:title=" ">
<path fill="none" stroke="#63b8ff" d="M626.24,-231.97C573.11,-241.97 498.54,-249.44 436,-231 398.43,-219.92 361.59,-191.81 341.07,-174.17"/>
<polygon fill="#63b8ff" stroke="#63b8ff" points="627.09,-235.37 636.23,-230.01 625.75,-228.5 627.09,-235.37"/>
</a>
</g>
</g>
<!-- Node19 -->
<g id="Node000019" class="node">
<title>Node19</title>
<g id="a_Node000019"><a xlink:href="classpolyfem_1_1_state.html#a4d91e8c971fc121b0cff2f0c02ca79e7" target="_top" xlink:title="solves transient tensor nonlinear problem">
<polygon fill="white" stroke="#666666" points="594,-222 442,-222 442,-192 594,-192 594,-222"/>
<text text-anchor="start" x="450" y="-210" font-family="Helvetica,sans-Serif" font-size="10.00">polyfem::State::solve</text>
<text text-anchor="middle" x="518" y="-199" font-family="Helvetica,sans-Serif" font-size="10.00">_transient_tensor_nonlinear</text>
</a>
</g>
</g>
<!-- Node15&#45;&gt;Node19 -->
<g id="edge19_Node000015_Node000019" class="edge">
<title>Node15&#45;&gt;Node19</title>
<g id="a_edge19_Node000015_Node000019"><a xlink:title=" ">
<path fill="none" stroke="#63b8ff" d="M625.53,-211.83C615.18,-211.36 604.48,-210.87 594.03,-210.4"/>
<polygon fill="#63b8ff" stroke="#63b8ff" points="625.6,-215.34 635.75,-212.29 625.91,-208.34 625.6,-215.34"/>
</a>
</g>
</g>
<!-- Node16&#45;&gt;Node12 -->
<g id="edge16_Node000016_Node000012" class="edge">
<title>Node16&#45;&gt;Node12</title>
<g id="a_edge16_Node000016_Node000012"><a xlink:title=" ">
<path fill="none" stroke="#63b8ff" d="M285.66,-178.93C248.1,-199.24 191.42,-229.89 162.83,-245.36"/>
<polygon fill="#63b8ff" stroke="#63b8ff" points="287.63,-181.84 294.77,-174 284.3,-175.68 287.63,-181.84"/>
</a>
</g>
</g>
<!-- Node17 -->
<g id="Node000017" class="node">
<title>Node17</title>
<g id="a_Node000017"><a xlink:href="classpolyfem_1_1_state.html#a219f9935d918f739d82488449bd4cbf4" target="_top" xlink:title="solves the problem, call other methods">
<polygon fill="white" stroke="#666666" points="204.5,-146.5 83.5,-146.5 83.5,-127.5 204.5,-127.5 204.5,-146.5"/>
<text text-anchor="middle" x="144" y="-134.5" font-family="Helvetica,sans-Serif" font-size="10.00">polyfem::State::solve</text>
</a>
</g>
</g>
<!-- Node16&#45;&gt;Node17 -->
<g id="edge17_Node000016_Node000017" class="edge">
<title>Node16&#45;&gt;Node17</title>
<g id="a_edge17_Node000016_Node000017"><a xlink:title=" ">
<path fill="none" stroke="#63b8ff" d="M252.64,-150.34C236.8,-148.38 220.12,-146.31 204.74,-144.4"/>
<polygon fill="#63b8ff" stroke="#63b8ff" points="252.55,-153.86 262.9,-151.61 253.41,-146.91 252.55,-153.86"/>
</a>
</g>
</g>
<!-- Node18 -->
<g id="Node000018" class="node">
<title>Node18</title>
<g id="a_Node000018"><a xlink:href="structpolyfem_1_1solver_1_1_adjoint_opt_utils.html#acac3e8ce8646ddd1544ed034c71bec96" target="_top" xlink:title=" ">
<polygon fill="white" stroke="#666666" points="211,-195 77,-195 77,-165 211,-165 211,-195"/>
<text text-anchor="start" x="85" y="-183" font-family="Helvetica,sans-Serif" font-size="10.00">polyfem::solver::Adjoint</text>
<text text-anchor="middle" x="144" y="-172" font-family="Helvetica,sans-Serif" font-size="10.00">OptUtils::solve_pde</text>
</a>
</g>
</g>
<!-- Node16&#45;&gt;Node18 -->
<g id="edge18_Node000016_Node000018" class="edge">
<title>Node16&#45;&gt;Node18</title>
<g id="a_edge18_Node000016_Node000018"><a xlink:title=" ">
<path fill="none" stroke="#63b8ff" d="M252.61,-167.27C238.96,-168.88 224.68,-170.57 211.16,-172.17"/>
<polygon fill="#63b8ff" stroke="#63b8ff" points="253.38,-170.7 262.9,-166.05 252.56,-163.75 253.38,-170.7"/>
</a>
</g>
</g>
<!-- Node19&#45;&gt;Node16 -->
<g id="edge20_Node000019_Node000016" class="edge">
<title>Node19&#45;&gt;Node16</title>
<g id="a_edge20_Node000019_Node000016"><a xlink:title=" ">
<path fill="none" stroke="#63b8ff" d="M446.68,-189.47C426.11,-184.34 403.83,-178.78 384.01,-173.84"/>
<polygon fill="#63b8ff" stroke="#63b8ff" points="446.07,-192.92 456.62,-191.94 447.76,-186.13 446.07,-192.92"/>
</a>
</g>
</g>
<!-- Node20&#45;&gt;Node19 -->
<g id="edge30_Node000020_Node000019" class="edge">
<title>Node20&#45;&gt;Node19</title>
<g id="a_edge30_Node000020_Node000019"><a xlink:title=" ">
<path fill="none" stroke="#63b8ff" d="M659.21,-155.15C641.66,-164.4 620.09,-175.05 600,-183 591.95,-186.18 583.31,-189.18 574.78,-191.89"/>
<polygon fill="#63b8ff" stroke="#63b8ff" points="661.34,-157.98 668.51,-150.19 658.04,-151.81 661.34,-157.98"/>
</a>
</g>
</g>
<!-- Node21 -->
<g id="Node000021" class="node">
<title>Node21</title>
<g id="a_Node000021"><a xlink:href="classpolyfem_1_1_state.html#ac5c4dd2be369c759c68e0a36a45bfcc7" target="_top" xlink:title="initialize solver">
<polygon fill="white" stroke="#666666" points="573,-174 463,-174 463,-144 573,-144 573,-174"/>
<text text-anchor="start" x="471" y="-162" font-family="Helvetica,sans-Serif" font-size="10.00">polyfem::State::init</text>
<text text-anchor="middle" x="518" y="-151" font-family="Helvetica,sans-Serif" font-size="10.00">_solve</text>
</a>
</g>
</g>
<!-- Node20&#45;&gt;Node21 -->
<g id="edge22_Node000020_Node000021" class="edge">
<title>Node20&#45;&gt;Node21</title>
<g id="a_edge22_Node000020_Node000021"><a xlink:title=" ">
<path fill="none" stroke="#63b8ff" d="M627.11,-144.3C609.18,-146.74 590.1,-149.33 573.04,-151.65"/>
<polygon fill="#63b8ff" stroke="#63b8ff" points="627.78,-147.74 637.22,-142.93 626.84,-140.8 627.78,-147.74"/>
</a>
</g>
</g>
<!-- Node22 -->
<g id="Node000022" class="node">
<title>Node22</title>
<g id="a_Node000022"><a xlink:href="classpolyfem_1_1_state.html#af5afb70dc127d3ce190116321e83f190" target="_top" xlink:title="solves transient linear problem">
<polygon fill="white" stroke="#666666" points="578.5,-126 457.5,-126 457.5,-96 578.5,-96 578.5,-126"/>
<text text-anchor="start" x="465.5" y="-114" font-family="Helvetica,sans-Serif" font-size="10.00">polyfem::State::solve</text>
<text text-anchor="middle" x="518" y="-103" font-family="Helvetica,sans-Serif" font-size="10.00">_transient_linear</text>
</a>
</g>
</g>
<!-- Node20&#45;&gt;Node22 -->
<g id="edge24_Node000020_Node000022" class="edge">
<title>Node20&#45;&gt;Node22</title>
<g id="a_edge24_Node000020_Node000022"><a xlink:title=" ">
<path fill="none" stroke="#63b8ff" d="M626.92,-125.67C611.02,-123.51 594.22,-121.23 578.73,-119.12"/>
<polygon fill="#63b8ff" stroke="#63b8ff" points="626.84,-129.2 637.22,-127.07 627.78,-122.26 626.84,-129.2"/>
</a>
</g>
</g>
<!-- Node23 -->
<g id="Node000023" class="node">
<title>Node23</title>
<g id="a_Node000023"><a xlink:href="classpolyfem_1_1_state.html#ac42074a324e693f8eef5d7a96a56dc38" target="_top" xlink:title="solves transient navier stokes with FEM">
<polygon fill="white" stroke="#666666" points="587,-78 449,-78 449,-48 587,-48 587,-78"/>
<text text-anchor="start" x="457" y="-66" font-family="Helvetica,sans-Serif" font-size="10.00">polyfem::State::solve</text>
<text text-anchor="middle" x="518" y="-55" font-family="Helvetica,sans-Serif" font-size="10.00">_transient_navier_stokes</text>
</a>
</g>
</g>
<!-- Node20&#45;&gt;Node23 -->
<g id="edge26_Node000020_Node000023" class="edge">
<title>Node20&#45;&gt;Node23</title>
<g id="a_edge26_Node000020_Node000023"><a xlink:title=" ">
<path fill="none" stroke="#63b8ff" d="M659.21,-114.85C641.66,-105.6 620.09,-94.95 600,-87 591.95,-83.82 583.31,-80.82 574.78,-78.11"/>
<polygon fill="#63b8ff" stroke="#63b8ff" points="658.04,-118.19 668.51,-119.81 661.34,-112.02 658.04,-118.19"/>
</a>
</g>
</g>
<!-- Node24 -->
<g id="Node000024" class="node">
<title>Node24</title>
<g id="a_Node000024"><a xlink:href="classpolyfem_1_1_state.html#a9fa28a682c746974ee171d8cfa6a8558" target="_top" xlink:title="solves transient navier stokes with operator splitting">
<polygon fill="white" stroke="#666666" points="600,-30 436,-30 436,0 600,0 600,-30"/>
<text text-anchor="start" x="444" y="-18" font-family="Helvetica,sans-Serif" font-size="10.00">polyfem::State::solve</text>
<text text-anchor="middle" x="518" y="-7" font-family="Helvetica,sans-Serif" font-size="10.00">_transient_navier_stokes_split</text>
</a>
</g>
</g>
<!-- Node20&#45;&gt;Node24 -->
<g id="edge28_Node000020_Node000024" class="edge">
<title>Node20&#45;&gt;Node24</title>
<g id="a_edge28_Node000020_Node000024"><a xlink:title=" ">
<path fill="none" stroke="#63b8ff" d="M677.97,-111.58C660.48,-89.79 631.72,-57.93 600,-39 594.33,-35.62 588.15,-32.68 581.82,-30.14"/>
<polygon fill="#63b8ff" stroke="#63b8ff" points="675.39,-113.96 684.31,-119.67 680.89,-109.64 675.39,-113.96"/>
</a>
</g>
</g>
<!-- Node21&#45;&gt;Node16 -->
<g id="edge23_Node000021_Node000016" class="edge">
<title>Node21&#45;&gt;Node16</title>
<g id="a_edge23_Node000021_Node000016"><a xlink:title=" ">
<path fill="none" stroke="#63b8ff" d="M452.6,-159C430.55,-159 405.98,-159 384.31,-159"/>
<polygon fill="#63b8ff" stroke="#63b8ff" points="452.87,-162.5 462.87,-159 452.87,-155.5 452.87,-162.5"/>
</a>
</g>
</g>
<!-- Node22&#45;&gt;Node16 -->
<g id="edge25_Node000022_Node000016" class="edge">
<title>Node22&#45;&gt;Node16</title>
<g id="a_edge25_Node000022_Node000016"><a xlink:title=" ">
<path fill="none" stroke="#63b8ff" d="M447.68,-128.28C426.88,-133.47 404.26,-139.11 384.14,-144.13"/>
<polygon fill="#63b8ff" stroke="#63b8ff" points="448.55,-131.67 457.41,-125.86 446.86,-124.88 448.55,-131.67"/>
</a>
</g>
</g>
<!-- Node23&#45;&gt;Node16 -->
<g id="edge27_Node000023_Node000016" class="edge">
<title>Node23&#45;&gt;Node16</title>
<g id="a_edge27_Node000023_Node000016"><a xlink:title=" ">
<path fill="none" stroke="#63b8ff" d="M449.3,-81.46C444.75,-83.19 440.27,-85.04 436,-87 401.66,-102.78 365.56,-127.89 344.05,-143.9"/>
<polygon fill="#63b8ff" stroke="#63b8ff" points="450.51,-84.74 458.73,-78.07 448.14,-78.16 450.51,-84.74"/>
</a>
</g>
</g>
<!-- Node24&#45;&gt;Node16 -->
<g id="edge29_Node000024_Node000016" class="edge">
<title>Node24&#45;&gt;Node16</title>
<g id="a_edge29_Node000024_Node000016"><a xlink:title=" ">
<path fill="none" stroke="#63b8ff" d="M444.29,-34.38C441.43,-35.81 438.66,-37.35 436,-39 390.8,-67.03 352.14,-118.14 334.58,-143.65"/>
<polygon fill="#63b8ff" stroke="#63b8ff" points="445.99,-37.45 453.64,-30.12 443.09,-31.08 445.99,-37.45"/>
</a>
</g>
</g>
<!-- Node26&#45;&gt;Node7 -->
<g id="edge33_Node000026_Node000007" class="edge">
<title>Node26&#45;&gt;Node7</title>
<g id="a_edge33_Node000026_Node000007"><a xlink:title=" ">
<path fill="none" stroke="#63b8ff" d="M1539.98,-228.31C1528.78,-227.06 1517.4,-225.79 1506.35,-224.56"/>
<polygon fill="#63b8ff" stroke="#63b8ff" points="1539.88,-231.82 1550.21,-229.45 1540.66,-224.86 1539.88,-231.82"/>
</a>
</g>
</g>
<!-- Node28 -->
<g id="Node000028" class="node">
<title>Node28</title>
<g id="a_Node000028"><a xlink:href="classpolyfem_1_1mesh_1_1_c_mesh2_d.html#ae585a5793769e0d6860d61ef6f03192e" target="_top" xlink:title="refine the mesh">
<polygon fill="white" stroke="#666666" points="1708.5,-110 1565.5,-110 1565.5,-80 1708.5,-80 1708.5,-110"/>
<text text-anchor="start" x="1573.5" y="-98" font-family="Helvetica,sans-Serif" font-size="10.00">polyfem::mesh::CMesh2D</text>
<text text-anchor="middle" x="1637" y="-87" font-family="Helvetica,sans-Serif" font-size="10.00">::refine</text>
</a>
</g>
</g>
<!-- Node27&#45;&gt;Node28 -->
<g id="edge35_Node000027_Node000028" class="edge">
<title>Node27&#45;&gt;Node28</title>
<g id="a_edge35_Node000027_Node000028"><a xlink:title=" ">
<path fill="none" stroke="#63b8ff" d="M1767.44,-125.99C1745.75,-120.8 1722.06,-115.13 1700.95,-110.07"/>
<polygon fill="#63b8ff" stroke="#63b8ff" points="1766.71,-129.41 1777.25,-128.34 1768.34,-122.61 1766.71,-129.41"/>
</a>
</g>
</g>
<!-- Node29 -->
<g id="Node000029" class="node">
<title>Node29</title>
<g id="a_Node000029"><a xlink:href="namespacepolyfem_1_1mesh.html#a9edb1ab6286b5c93e9f2a564ea072559" target="_top" xlink:title=" ">
<polygon fill="white" stroke="#666666" points="1699,-158 1575,-158 1575,-128 1699,-128 1699,-158"/>
<text text-anchor="start" x="1583" y="-146" font-family="Helvetica,sans-Serif" font-size="10.00">polyfem::mesh::refine</text>
<text text-anchor="middle" x="1637" y="-135" font-family="Helvetica,sans-Serif" font-size="10.00">_polygonal_mesh</text>
</a>
</g>
</g>
<!-- Node27&#45;&gt;Node29 -->
<g id="edge36_Node000027_Node000029" class="edge">
<title>Node27&#45;&gt;Node29</title>
<g id="a_edge36_Node000027_Node000029"><a xlink:title=" ">
<path fill="none" stroke="#63b8ff" d="M1767.21,-143C1744.98,-143 1720.69,-143 1699.22,-143"/>
<polygon fill="#63b8ff" stroke="#63b8ff" points="1767.25,-146.5 1777.25,-143 1767.25,-139.5 1767.25,-146.5"/>
</a>
</g>
</g>
<!-- Node30&#45;&gt;Node28 -->
<g id="edge38_Node000030_Node000028" class="edge">
<title>Node30&#45;&gt;Node28</title>
<g id="a_edge38_Node000030_Node000028"><a xlink:title=" ">
<path fill="none" stroke="#63b8ff" d="M1767.18,-95C1748.18,-95 1727.67,-95 1708.71,-95"/>
<polygon fill="#63b8ff" stroke="#63b8ff" points="1767.25,-98.5 1777.25,-95 1767.25,-91.5 1767.25,-98.5"/>
</a>
</g>
</g>
<!-- Node32&#45;&gt;Node27 -->
<g id="edge41_Node000032_Node000027" class="edge">
<title>Node32&#45;&gt;Node27</title>
<g id="a_edge41_Node000032_Node000027"><a xlink:title=" ">
<path fill="none" stroke="#63b8ff" d="M1936.53,-130.2C1924.82,-131.76 1912.97,-133.34 1901.78,-134.83"/>
<polygon fill="#63b8ff" stroke="#63b8ff" points="1937.32,-133.62 1946.77,-128.83 1936.39,-126.68 1937.32,-133.62"/>
</a>
</g>
</g>
<!-- Node32&#45;&gt;Node30 -->
<g id="edge42_Node000032_Node000030" class="edge">
<title>Node32&#45;&gt;Node30</title>
<g id="a_edge42_Node000032_Node000030"><a xlink:title=" ">
<path fill="none" stroke="#63b8ff" d="M1936.53,-107.8C1924.82,-106.24 1912.97,-104.66 1901.78,-103.17"/>
<polygon fill="#63b8ff" stroke="#63b8ff" points="1936.39,-111.32 1946.77,-109.17 1937.32,-104.38 1936.39,-111.32"/>
</a>
</g>
</g>
<!-- Node33&#45;&gt;Node4 -->
<g id="edge46_Node000033_Node000004" class="edge">
<title>Node33&#45;&gt;Node4</title>
<g id="a_edge46_Node000033_Node000004"><a xlink:title=" ">
<path fill="none" stroke="#63b8ff" d="M1983.49,-340.75C1962.76,-350.91 1936.09,-362.49 1911,-369 1846.14,-385.84 1770.08,-392.02 1714.74,-394.18"/>
<polygon fill="#63b8ff" stroke="#63b8ff" points="1985.2,-343.81 1992.57,-336.21 1982.06,-337.55 1985.2,-343.81"/>
</a>
</g>
</g>
<!-- Node34 -->
<g id="Node000034" class="node">
<title>Node34</title>
<g id="a_Node000034"><a xlink:href="classpolyfem_1_1mesh_1_1_c_mesh2_d.html#a261370cda8336a67be2d3db103a24d62" target="_top" xlink:title=" ">
<polygon fill="white" stroke="#666666" points="1911,-360 1768,-360 1768,-330 1911,-330 1911,-360"/>
<text text-anchor="start" x="1776" y="-348" font-family="Helvetica,sans-Serif" font-size="10.00">polyfem::mesh::CMesh2D</text>
<text text-anchor="middle" x="1839.5" y="-337" font-family="Helvetica,sans-Serif" font-size="10.00">::edge_node</text>
</a>
</g>
</g>
<!-- Node33&#45;&gt;Node34 -->
<g id="edge47_Node000033_Node000034" class="edge">
<title>Node33&#45;&gt;Node34</title>
<g id="a_edge47_Node000033_Node000034"><a xlink:title=" ">
<path fill="none" stroke="#63b8ff" d="M1939.96,-331.74C1930.38,-333.02 1920.65,-334.31 1911.22,-335.57"/>
<polygon fill="#63b8ff" stroke="#63b8ff" points="1940.43,-335.21 1949.88,-330.42 1939.5,-328.27 1940.43,-335.21"/>
</a>
</g>
</g>
<!-- Node35 -->
<g id="Node000035" class="node">
<title>Node35</title>
<g id="a_Node000035"><a xlink:href="classpolyfem_1_1mesh_1_1_c_mesh2_d.html#af850ce01f901ddc2f8fecdd445c198d1" target="_top" xlink:title=" ">
<polygon fill="white" stroke="#666666" points="1911,-312 1768,-312 1768,-282 1911,-282 1911,-312"/>
<text text-anchor="start" x="1776" y="-300" font-family="Helvetica,sans-Serif" font-size="10.00">polyfem::mesh::CMesh2D</text>
<text text-anchor="middle" x="1839.5" y="-289" font-family="Helvetica,sans-Serif" font-size="10.00">::face_node</text>
</a>
</g>
</g>
<!-- Node33&#45;&gt;Node35 -->
<g id="edge48_Node000033_Node000035" class="edge">
<title>Node33&#45;&gt;Node35</title>
<g id="a_edge48_Node000033_Node000035"><a xlink:title=" ">
<path fill="none" stroke="#63b8ff" d="M1939.96,-310.26C1930.38,-308.98 1920.65,-307.69 1911.22,-306.43"/>
<polygon fill="#63b8ff" stroke="#63b8ff" points="1939.5,-313.73 1949.88,-311.58 1940.43,-306.79 1939.5,-313.73"/>
</a>
</g>
</g>
</g>
</svg>

<g id="navigator" transform="translate(0 0)" fill="#404254">
  <rect fill="#f2f5e9" fill-opacity="0.5" stroke="#606060" stroke-width=".5" x="0" y="0" width="60" height="60"/>
  <use id="zoomplus" xlink:href="#zoomPlus" x="17" y="9" onmousedown="handleZoom(evt,'in')"/>
  <use id="zoomminus" xlink:href="#zoomMin" x="42" y="9" onmousedown="handleZoom(evt,'out')"/>
  <use id="reset" xlink:href="#resetDef" x="30" y="36" onmousedown="handleReset()"/>
   <use id="arrowup" xlink:href="#arrowUp" x="0" y="0" onmousedown="handlePan(0,-1)"/>
  <use id="arrowright" xlink:href="#arrowRight" x="0" y="0" onmousedown="handlePan(1,0)"/>
  <use id="arrowdown" xlink:href="#arrowDown" x="0" y="0" onmousedown="handlePan(0,1)"/>
  <use id="arrowleft" xlink:href="#arrowLeft" x="0" y="0" onmousedown="handlePan(-1,0)"/>
</g>
<svg viewBox="0 0 15 15" width="100%" height="30px" preserveAspectRatio="xMaxYMin meet">
 <g id="arrow_out" transform="scale(0.3 0.3)">
  <a xlink:href="namespacepolyfem_1_1mesh_1_1_navigation_abf91546c2ca67de0513b99b390ed1e51_icgraph_org.svg" target="_base">
   <rect id="button" ry="5" rx="5" y="6" x="6" height="38" width="38"
        fill="#f2f5e9" fill-opacity="0.5" stroke="#606060" stroke-width="1.0"/>
   <path id="arrow"
     d="M 11.500037,31.436501 C 11.940474,20.09759 22.043105,11.32322 32.158766,21.979434 L 37.068811,17.246167 C 37.068811,17.246167 37.088388,32 37.088388,32 L 22.160133,31.978069 C 22.160133,31.978069 26.997745,27.140456 26.997745,27.140456 C 18.528582,18.264221 13.291696,25.230495 11.500037,31.436501 z"
     style="fill:#404040;"/>
  </a>
 </g>
</svg>

<style type='text/css'>
<![CDATA[
[data-mouse-over-selected='false'] { opacity: 0.7; }
[data-mouse-over-selected='true']  { opacity: 1.0; }
]]>
</style>
<script type="application/ecmascript"><![CDATA[
document.addEventListener('DOMContentLoaded', (event) => {
  highlightEdges();
  highlightAdjacentNodes();
});
]]></script>
</svg>
