<?xml version="1.0" encoding="UTF-8" standalone="no"?>
<!DOCTYPE svg PUBLIC "-//W3C//DTD SVG 1.1//EN"
 "http://www.w3.org/Graphics/SVG/1.1/DTD/svg11.dtd">
<!-- Generated by graphviz version 2.43.0 (0)
 -->
<!-- Title: polyfem::mesh::read_fem_geometry Pages: 1 -->
<svg width="571pt" height="69pt"
 viewBox="0.00 0.00 571.00 68.50" xmlns="http://www.w3.org/2000/svg" xmlns:xlink="http://www.w3.org/1999/xlink">
<g id="graph0" class="graph" transform="scale(1 1) rotate(0) translate(4 64.5)">
<title>polyfem::mesh::read_fem_geometry</title>
<!-- Node1 -->
<g id="Node000001" class="node">
<title>Node1</title>
<g id="a_Node000001"><a xlink:title="read FEM meshes from a geometry JSON array (or single)">
<polygon fill="#999999" stroke="#666666" points="563,-42.5 445,-42.5 445,-12.5 563,-12.5 563,-42.5"/>
<text text-anchor="start" x="453" y="-30.5" font-family="Helvetica,sans-Serif" font-size="10.00">polyfem::mesh::read</text>
<text text-anchor="middle" x="504" y="-19.5" font-family="Helvetica,sans-Serif" font-size="10.00">_fem_geometry</text>
</a>
</g>
</g>
<!-- Node1&#45;&gt;Node1 -->
<g id="edge5_Node000001_Node000001" class="edge">
<title>Node1&#45;&gt;Node1</title>
<g id="a_edge5_Node000001_Node000001"><a xlink:title=" ">
<path fill="none" stroke="#63b8ff" d="M533.41,-53.1C529.39,-57.47 519.59,-60.5 504,-60.5 477.75,-60.5 467.91,-51.91 474.47,-42.78"/>
<polygon fill="#63b8ff" stroke="#63b8ff" points="536.91,-52.82 533.53,-42.78 529.91,-52.73 536.91,-52.82"/>
</a>
</g>
</g>
<!-- Node2 -->
<g id="Node000002" class="node">
<title>Node2</title>
<g id="a_Node000002"><a xlink:href="classpolyfem_1_1_state.html#a37cc0825d6cd66410b5c1a0c46778a9f" target="_top" xlink:title="loads the mesh from the json arguments">
<polygon fill="white" stroke="#666666" points="409,-37 261,-37 261,-18 409,-18 409,-37"/>
<text text-anchor="middle" x="335" y="-25" font-family="Helvetica,sans-Serif" font-size="10.00">polyfem::State::load_mesh</text>
</a>
</g>
</g>
<!-- Node1&#45;&gt;Node2 -->
<g id="edge1_Node000001_Node000002" class="edge">
<title>Node1&#45;&gt;Node2</title>
<g id="a_edge1_Node000001_Node000002"><a xlink:title=" ">
<path fill="none" stroke="#63b8ff" d="M434.49,-27.5C426.1,-27.5 417.51,-27.5 409.06,-27.5"/>
<polygon fill="#63b8ff" stroke="#63b8ff" points="434.59,-31 444.59,-27.5 434.59,-24 434.59,-31"/>
</a>
</g>
</g>
<!-- Node3 -->
<g id="Node000003" class="node">
<title>Node3</title>
<g id="a_Node000003"><a xlink:href="main_8cpp.html#aec889c702a246ad7f332c75ab7adb438" target="_top" xlink:title=" ">
<polygon fill="white" stroke="#666666" points="206.5,-56 95.5,-56 95.5,-37 206.5,-37 206.5,-56"/>
<text text-anchor="middle" x="151" y="-44" font-family="Helvetica,sans-Serif" font-size="10.00">forward_simulation</text>
</a>
</g>
</g>
<!-- Node2&#45;&gt;Node3 -->
<g id="edge2_Node000002_Node000003" class="edge">
<title>Node2&#45;&gt;Node3</title>
<g id="a_edge2_Node000002_Node000003"><a xlink:title=" ">
<path fill="none" stroke="#63b8ff" d="M250.51,-36.22C235.61,-37.77 220.45,-39.35 206.62,-40.8"/>
<polygon fill="#63b8ff" stroke="#63b8ff" points="251.18,-39.67 260.76,-35.15 250.45,-32.7 251.18,-39.67"/>
</a>
</g>
</g>
<!-- Node5 -->
<g id="Node000005" class="node">
<title>Node5</title>
<g id="a_Node000005"><a xlink:href="classpolyfem_1_1_state.html#a4ce16a4580b29c071e8fd84fbada3497" target="_top" xlink:title="loads the mesh from V and F,">
<polygon fill="white" stroke="#666666" points="225,-19 77,-19 77,0 225,0 225,-19"/>
<text text-anchor="middle" x="151" y="-7" font-family="Helvetica,sans-Serif" font-size="10.00">polyfem::State::load_mesh</text>
</a>
</g>
</g>
<!-- Node2&#45;&gt;Node5 -->
<g id="edge4_Node000002_Node000005" class="edge">
<title>Node2&#45;&gt;Node5</title>
<g id="a_edge4_Node000002_Node000005"><a xlink:title=" ">
<path fill="none" stroke="#63b8ff" d="M250.76,-19.27C242.2,-18.42 233.54,-17.56 225.09,-16.73"/>
<polygon fill="#63b8ff" stroke="#63b8ff" points="250.46,-22.76 260.76,-20.26 251.15,-15.79 250.46,-22.76"/>
</a>
</g>
</g>
<!-- Node4 -->
<g id="Node000004" class="node">
<title>Node4</title>
<g id="a_Node000004"><a xlink:href="main_8cpp.html#a3c04138a5bfe5d72780bb7e82a18e627" target="_top" xlink:title=" ">
<polygon fill="white" stroke="#666666" points="41,-56 0,-56 0,-37 41,-37 41,-56"/>
<text text-anchor="middle" x="20.5" y="-44" font-family="Helvetica,sans-Serif" font-size="10.00">main</text>
</a>
</g>
</g>
<!-- Node3&#45;&gt;Node4 -->
<g id="edge3_Node000003_Node000004" class="edge">
<title>Node3&#45;&gt;Node4</title>
<g id="a_edge3_Node000003_Node000004"><a xlink:title=" ">
<path fill="none" stroke="#63b8ff" d="M84.69,-46.5C68.76,-46.5 52.92,-46.5 41.08,-46.5"/>
<polygon fill="#63b8ff" stroke="#63b8ff" points="85.13,-50 95.13,-46.5 85.13,-43 85.13,-50"/>
</a>
</g>
</g>
</g>
</svg>
