<?xml version="1.0" encoding="UTF-8" standalone="no"?>
<!DOCTYPE svg PUBLIC "-//W3C//DTD SVG 1.1//EN"
 "http://www.w3.org/Graphics/SVG/1.1/DTD/svg11.dtd">
<!-- Generated by graphviz version 2.43.0 (0)
 -->
<!-- Title: polyfem::utils::sparse_identity Pages: 1 -->
<svg width="549pt" height="86pt"
 viewBox="0.00 0.00 549.00 86.00" xmlns="http://www.w3.org/2000/svg" xmlns:xlink="http://www.w3.org/1999/xlink">
<g id="graph0" class="graph" transform="scale(1 1) rotate(0) translate(4 82)">
<title>polyfem::utils::sparse_identity</title>
<!-- Node1 -->
<g id="node1" class="node">
<title>Node1</title>
<g id="a_node1"><a xlink:title=" ">
<polygon fill="#999999" stroke="#666666" points="541,-54 419,-54 419,-24 541,-24 541,-54"/>
<text text-anchor="start" x="427" y="-42" font-family="Helvetica,sans-Serif" font-size="10.00">polyfem::utils::sparse</text>
<text text-anchor="middle" x="480" y="-31" font-family="Helvetica,sans-Serif" font-size="10.00">_identity</text>
</a>
</g>
</g>
<!-- Node2 -->
<g id="node2" class="node">
<title>Node2</title>
<g id="a_node2"><a xlink:href="classpolyfem_1_1solver_1_1_b_c_lagrangian_form.html#a05f4cc1007e09d23c8866bac2c70f66f" target="_top" xlink:title="Initialize the masked lumped mass matrix.">
<polygon fill="white" stroke="#666666" points="383,-78 203,-78 203,-48 383,-48 383,-78"/>
<text text-anchor="start" x="211" y="-66" font-family="Helvetica,sans-Serif" font-size="10.00">polyfem::solver::BCLagrangian</text>
<text text-anchor="middle" x="293" y="-55" font-family="Helvetica,sans-Serif" font-size="10.00">Form::init_masked_lumped_mass</text>
</a>
</g>
</g>
<!-- Node1&#45;&gt;Node2 -->
<g id="edge1" class="edge">
<title>Node1&#45;&gt;Node2</title>
<path fill="none" stroke="#63b8ff" d="M408.89,-48.1C400.53,-49.18 391.9,-50.3 383.32,-51.41"/>
<polygon fill="#63b8ff" stroke="#63b8ff" points="409.47,-51.55 418.94,-46.79 408.57,-44.61 409.47,-51.55"/>
</g>
<!-- Node4 -->
<g id="node4" class="node">
<title>Node4</title>
<g id="a_node4"><a xlink:href="classpolyfem_1_1solver_1_1_b_c_penalty_form.html#a2a4d8527ae1ab6981a29f16f540bcd57" target="_top" xlink:title="Initialize the masked lumped mass matrix.">
<polygon fill="white" stroke="#666666" points="383,-30 203,-30 203,0 383,0 383,-30"/>
<text text-anchor="start" x="211" y="-18" font-family="Helvetica,sans-Serif" font-size="10.00">polyfem::solver::BCPenalty</text>
<text text-anchor="middle" x="293" y="-7" font-family="Helvetica,sans-Serif" font-size="10.00">Form::init_masked_lumped_mass</text>
</a>
</g>
</g>
<!-- Node1&#45;&gt;Node4 -->
<g id="edge3" class="edge">
<title>Node1&#45;&gt;Node4</title>
<path fill="none" stroke="#63b8ff" d="M408.89,-29.9C400.53,-28.82 391.9,-27.7 383.32,-26.59"/>
<polygon fill="#63b8ff" stroke="#63b8ff" points="408.57,-33.39 418.94,-31.21 409.47,-26.45 408.57,-33.39"/>
</g>
<!-- Node3 -->
<g id="node3" class="node">
<title>Node3</title>
<g id="a_node3"><a xlink:href="classpolyfem_1_1solver_1_1_b_c_lagrangian_form.html#a0b0be50c9e6d6de1b641fccb18554e4c" target="_top" xlink:title="Construct a new BCLagrangianForm object with a time dependent Dirichlet boundary.">
<polygon fill="white" stroke="#666666" points="167,-78 0,-78 0,-48 167,-48 167,-78"/>
<text text-anchor="start" x="8" y="-66" font-family="Helvetica,sans-Serif" font-size="10.00">polyfem::solver::BCLagrangian</text>
<text text-anchor="middle" x="83.5" y="-55" font-family="Helvetica,sans-Serif" font-size="10.00">Form::BCLagrangianForm</text>
</a>
</g>
</g>
<!-- Node2&#45;&gt;Node3 -->
<g id="edge2" class="edge">
<title>Node2&#45;&gt;Node3</title>
<path fill="none" stroke="#63b8ff" d="M192.74,-63C184.15,-63 175.51,-63 167.07,-63"/>
<polygon fill="#63b8ff" stroke="#63b8ff" points="192.8,-66.5 202.8,-63 192.8,-59.5 192.8,-66.5"/>
</g>
<!-- Node5 -->
<g id="node5" class="node">
<title>Node5</title>
<g id="a_node5"><a xlink:href="classpolyfem_1_1solver_1_1_b_c_penalty_form.html#a7f6855ef9b1244ee946f218478fac440" target="_top" xlink:title="Construct a new BCPenaltyForm object with a time dependent Dirichlet boundary.">
<polygon fill="white" stroke="#666666" points="158,-30 9,-30 9,0 158,0 158,-30"/>
<text text-anchor="start" x="17" y="-18" font-family="Helvetica,sans-Serif" font-size="10.00">polyfem::solver::BCPenalty</text>
<text text-anchor="middle" x="83.5" y="-7" font-family="Helvetica,sans-Serif" font-size="10.00">Form::BCPenaltyForm</text>
</a>
</g>
</g>
<!-- Node4&#45;&gt;Node5 -->
<g id="edge4" class="edge">
<title>Node4&#45;&gt;Node5</title>
<path fill="none" stroke="#63b8ff" d="M192.6,-15C180.95,-15 169.23,-15 158.02,-15"/>
<polygon fill="#63b8ff" stroke="#63b8ff" points="192.8,-18.5 202.8,-15 192.8,-11.5 192.8,-18.5"/>
</g>
</g>
</svg>
