<?xml version="1.0" encoding="UTF-8" standalone="no"?>
<!DOCTYPE svg PUBLIC "-//W3C//DTD SVG 1.1//EN"
 "http://www.w3.org/Graphics/SVG/1.1/DTD/svg11.dtd">
<!-- Generated by graphviz version 2.43.0 (0)
 -->
<!-- Title: polyfem::solver::AdjointTools::map_primitive_to_node_order Pages: 1 -->
<svg width="628pt" height="49pt"
 viewBox="0.00 0.00 628.00 49.00" xmlns="http://www.w3.org/2000/svg" xmlns:xlink="http://www.w3.org/1999/xlink">
<g id="graph0" class="graph" transform="scale(1 1) rotate(0) translate(4 45)">
<title>polyfem::solver::AdjointTools::map_primitive_to_node_order</title>
<!-- Node1 -->
<g id="Node000001" class="node">
<title>Node1</title>
<g id="a_Node000001"><a xlink:title=" ">
<polygon fill="#999999" stroke="#666666" points="134,-41 0,-41 0,0 134,0 134,-41"/>
<text text-anchor="start" x="8" y="-29" font-family="Helvetica,sans-Serif" font-size="10.00">polyfem::solver::Adjoint</text>
<text text-anchor="start" x="8" y="-18" font-family="Helvetica,sans-Serif" font-size="10.00">Tools::map_primitive_to</text>
<text text-anchor="middle" x="67" y="-7" font-family="Helvetica,sans-Serif" font-size="10.00">_node_order</text>
</a>
</g>
</g>
<!-- Node2 -->
<g id="Node000002" class="node">
<title>Node2</title>
<g id="a_Node000002"><a xlink:href="classpolyfem_1_1legacy_1_1_state.html#aebd4d1f72c28d6ecaf99780138bc0aca" target="_top" xlink:title=" ">
<polygon fill="white" stroke="#666666" points="296,-35.5 170,-35.5 170,-5.5 296,-5.5 296,-35.5"/>
<text text-anchor="start" x="178" y="-23.5" font-family="Helvetica,sans-Serif" font-size="10.00">polyfem::legacy::State</text>
<text text-anchor="middle" x="233" y="-12.5" font-family="Helvetica,sans-Serif" font-size="10.00">::primitive_to_node</text>
</a>
</g>
</g>
<!-- Node1&#45;&gt;Node2 -->
<g id="edge1_Node000001_Node000002" class="edge">
<title>Node1&#45;&gt;Node2</title>
<g id="a_edge1_Node000001_Node000002"><a xlink:title=" ">
<path fill="none" stroke="#63b8ff" d="M134.23,-20.5C142.57,-20.5 151.14,-20.5 159.58,-20.5"/>
<polygon fill="#63b8ff" stroke="#63b8ff" points="159.77,-24 169.77,-20.5 159.77,-17 159.77,-24"/>
</a>
</g>
</g>
<!-- Node3 -->
<g id="Node000003" class="node">
<title>Node3</title>
<g id="a_Node000003"><a xlink:href="classpolyfem_1_1legacy_1_1_state.html#a09103939ffb7c7e750909cf260903451" target="_top" xlink:title="check if using iso parametric bases">
<polygon fill="white" stroke="#666666" points="458,-35.5 332,-35.5 332,-5.5 458,-5.5 458,-35.5"/>
<text text-anchor="start" x="340" y="-23.5" font-family="Helvetica,sans-Serif" font-size="10.00">polyfem::legacy::State</text>
<text text-anchor="middle" x="395" y="-12.5" font-family="Helvetica,sans-Serif" font-size="10.00">::iso_parametric</text>
</a>
</g>
</g>
<!-- Node2&#45;&gt;Node3 -->
<g id="edge2_Node000002_Node000003" class="edge">
<title>Node2&#45;&gt;Node3</title>
<g id="a_edge2_Node000002_Node000003"><a xlink:title=" ">
<path fill="none" stroke="#63b8ff" d="M296.32,-20.5C304.62,-20.5 313.18,-20.5 321.63,-20.5"/>
<polygon fill="#63b8ff" stroke="#63b8ff" points="321.85,-24 331.85,-20.5 321.85,-17 321.85,-24"/>
</a>
</g>
</g>
<!-- Node4 -->
<g id="Node000004" class="node">
<title>Node4</title>
<g id="a_Node000004"><a xlink:href="classpolyfem_1_1legacy_1_1_state.html#abe9d15d78fe8863dab5c3bf3e850a5ad" target="_top" xlink:title=" ">
<polygon fill="white" stroke="#666666" points="620,-35.5 494,-35.5 494,-5.5 620,-5.5 620,-35.5"/>
<text text-anchor="start" x="502" y="-23.5" font-family="Helvetica,sans-Serif" font-size="10.00">polyfem::legacy::State</text>
<text text-anchor="middle" x="557" y="-12.5" font-family="Helvetica,sans-Serif" font-size="10.00">::has_periodic_bc</text>
</a>
</g>
</g>
<!-- Node3&#45;&gt;Node4 -->
<g id="edge3_Node000003_Node000004" class="edge">
<title>Node3&#45;&gt;Node4</title>
<g id="a_edge3_Node000003_Node000004"><a xlink:title=" ">
<path fill="none" stroke="#63b8ff" d="M458.32,-20.5C466.62,-20.5 475.18,-20.5 483.63,-20.5"/>
<polygon fill="#63b8ff" stroke="#63b8ff" points="483.85,-24 493.85,-20.5 483.85,-17 483.85,-24"/>
</a>
</g>
</g>
</g>
</svg>
