<?xml version="1.0" encoding="UTF-8" standalone="no"?>
<!DOCTYPE svg PUBLIC "-//W3C//DTD SVG 1.1//EN"
 "http://www.w3.org/Graphics/SVG/1.1/DTD/svg11.dtd">
<!-- Generated by graphviz version 2.43.0 (0)
 -->
<!-- Title: polyfem::utils::flatten Pages: 1 -->
<!--zoomable 689 -->

<svg id="main" version="1.1" xmlns="http://www.w3.org/2000/svg" xmlns:xlink="http://www.w3.org/1999/xlink" xml:space="preserve" onload="init(evt)">
<style type="text/css"><![CDATA[
.node, .edge {opacity: 0.7;}
.node.selected, .edge.selected {opacity: 1;}
.edge:hover path { stroke: red; }
.edge:hover polygon { stroke: red; fill: red; }
]]></style>

<defs>
  <circle id="rim" cx="0" cy="0" r="7"/>
  <circle id="rim2" cx="0" cy="0" r="3.5"/>
  <g id="zoomPlus">
    <use xlink:href="#rim" fill="#404040"><set attributeName="fill" to="#808080" begin="zoomplus.mouseover" end="zoomplus.mouseout"/></use>
    <path d="M-4,0h8M0,-4v8" fill="none" stroke="white" stroke-width="1.5" pointer-events="none"/>
  </g>
  <g id="zoomMin">
    <use xlink:href="#rim" fill="#404040"><set attributeName="fill" to="#808080" begin="zoomminus.mouseover" end="zoomminus.mouseout"/></use>
    <path d="M-4,0h8" fill="none" stroke="white" stroke-width="1.5" pointer-events="none"/>
  </g>
  <g id="arrowUp" transform="translate(30 24)">
    <use xlink:href="#rim"/>
    <path pointer-events="none" fill="none" stroke="white" stroke-width="1.5" d="M0,-3.0v7 M-2.5,-0.5L0,-3.0L2.5,-0.5"/>
  </g>
  <g id="arrowRight" transform="rotate(90) translate(36 -43)">
    <use xlink:href="#rim"/>
    <path pointer-events="none" fill="none" stroke="white" stroke-width="1.5" d="M0,-3.0v7 M-2.5,-0.5L0,-3.0L2.5,-0.5"/>
  </g>
  <g id="arrowDown" transform="rotate(180) translate(-30 -48)">
    <use xlink:href="#rim"/>
    <path pointer-events="none" fill="none" stroke="white" stroke-width="1.5" d="M0,-3.0v7 M-2.5,-0.5L0,-3.0L2.5,-0.5"/>
  </g>
  <g id="arrowLeft" transform="rotate(270) translate(-36 17)">
    <use xlink:href="#rim"/>
    <path pointer-events="none" fill="none" stroke="white" stroke-width="1.5" d="M0,-3.0v7 M-2.5,-0.5L0,-3.0L2.5,-0.5"/>
  </g>
  <g id="resetDef">
    <use xlink:href="#rim2" fill="#404040"><set attributeName="fill" to="#808080" begin="reset.mouseover" end="reset.mouseout"/></use>
  </g>
</defs>
<script type="application/ecmascript">
var viewWidth = 578;
var viewHeight = 689;
var sectionId = 'dynsection-9';
</script>
<script type="application/ecmascript" xlink:href="svg.min.js"/>
<svg id="graph" class="graph">
<g id="viewport">
<title>polyfem::utils::flatten</title>
<!-- Node1 -->
<g id="Node000001" class="node">
<title>Node1</title>
<g id="a_Node000001"><a xlink:title="Flatten rowwises.">
<polygon fill="#999999" stroke="#666666" points="570,-348.5 448,-348.5 448,-329.5 570,-329.5 570,-348.5"/>
<text text-anchor="middle" x="509" y="-336.5" font-family="Helvetica,sans-Serif" font-size="10.00">polyfem::utils::flatten</text>
</a>
</g>
</g>
<!-- Node2 -->
<g id="Node000002" class="node">
<title>Node2</title>
<g id="a_Node000002"><a xlink:href="classpolyfem_1_1solver_1_1_a_m_i_p_s_form.html#ae984024827d348ac57171a0ca13df559" target="_top" xlink:title=" ">
<polygon fill="white" stroke="#666666" points="399.5,-681 244.5,-681 244.5,-651 399.5,-651 399.5,-681"/>
<text text-anchor="start" x="252.5" y="-669" font-family="Helvetica,sans-Serif" font-size="10.00">polyfem::solver::AMIPSForm</text>
<text text-anchor="middle" x="322" y="-658" font-family="Helvetica,sans-Serif" font-size="10.00">::AMIPSForm</text>
</a>
</g>
</g>
<!-- Node1&#45;&gt;Node2 -->
<g id="edge1_Node000001_Node000002" class="edge">
<title>Node1&#45;&gt;Node2</title>
<g id="a_edge1_Node000001_Node000002"><a xlink:title=" ">
<path fill="none" stroke="#63b8ff" d="M507.88,-358.78C506.44,-412.56 494.81,-562.71 412,-642 408.3,-645.54 404.14,-648.57 399.68,-651.17"/>
<polygon fill="#63b8ff" stroke="#63b8ff" points="511.38,-358.62 508.06,-348.56 504.38,-358.5 511.38,-358.62"/>
</a>
</g>
</g>
<!-- Node3 -->
<g id="Node000003" class="node">
<title>Node3</title>
<g id="a_Node000003"><a xlink:href="classpolyfem_1_1solver_1_1_mesh_affine.html#a23f760ab970e0285e2325b045333d91e" target="_top" xlink:title=" ">
<polygon fill="white" stroke="#666666" points="399,-633 245,-633 245,-603 399,-603 399,-633"/>
<text text-anchor="start" x="253" y="-621" font-family="Helvetica,sans-Serif" font-size="10.00">polyfem::solver::MeshAffine</text>
<text text-anchor="middle" x="322" y="-610" font-family="Helvetica,sans-Serif" font-size="10.00">::apply_jacobian</text>
</a>
</g>
</g>
<!-- Node1&#45;&gt;Node3 -->
<g id="edge2_Node000001_Node000003" class="edge">
<title>Node1&#45;&gt;Node3</title>
<g id="a_edge2_Node000001_Node000003"><a xlink:title=" ">
<path fill="none" stroke="#63b8ff" d="M506.52,-358.79C501.85,-406.64 483.19,-529.38 412,-594 408.09,-597.55 403.71,-600.58 399.04,-603.17"/>
<polygon fill="#63b8ff" stroke="#63b8ff" points="510.03,-358.83 507.41,-348.56 503.06,-358.22 510.03,-358.83"/>
</a>
</g>
</g>
<!-- Node4 -->
<g id="Node000004" class="node">
<title>Node4</title>
<g id="a_Node000004"><a xlink:href="classpolyfem_1_1solver_1_1_collision_barrier_form.html#ae9d9e71618eeb10d2a73cb2739ef8c5a" target="_top" xlink:title=" ">
<polygon fill="white" stroke="#666666" points="412,-585 232,-585 232,-555 412,-555 412,-585"/>
<text text-anchor="start" x="240" y="-573" font-family="Helvetica,sans-Serif" font-size="10.00">polyfem::solver::Collision</text>
<text text-anchor="middle" x="322" y="-562" font-family="Helvetica,sans-Serif" font-size="10.00">BarrierForm::CollisionBarrierForm</text>
</a>
</g>
</g>
<!-- Node1&#45;&gt;Node4 -->
<g id="edge3_Node000001_Node000004" class="edge">
<title>Node1&#45;&gt;Node4</title>
<g id="a_edge3_Node000001_Node000004"><a xlink:title=" ">
<path fill="none" stroke="#63b8ff" d="M504.62,-358.63C496.47,-399.82 471.82,-495.62 412,-546 407.96,-549.4 403.48,-552.33 398.75,-554.84"/>
<polygon fill="#63b8ff" stroke="#63b8ff" points="508.11,-359.02 506.49,-348.54 501.23,-357.74 508.11,-359.02"/>
</a>
</g>
</g>
<!-- Node5 -->
<g id="Node000005" class="node">
<title>Node5</title>
<g id="a_Node000005"><a xlink:href="classpolyfem_1_1solver_1_1_boundary_smoothing_form.html#a55bd2a9d7aae7842d029983b569e0c2c" target="_top" xlink:title=" ">
<polygon fill="white" stroke="#666666" points="402.5,-536.5 241.5,-536.5 241.5,-495.5 402.5,-495.5 402.5,-536.5"/>
<text text-anchor="start" x="249.5" y="-524.5" font-family="Helvetica,sans-Serif" font-size="10.00">polyfem::solver::Boundary</text>
<text text-anchor="start" x="249.5" y="-513.5" font-family="Helvetica,sans-Serif" font-size="10.00">SmoothingForm::compute</text>
<text text-anchor="middle" x="322" y="-502.5" font-family="Helvetica,sans-Serif" font-size="10.00">_partial_gradient_unweighted</text>
</a>
</g>
</g>
<!-- Node1&#45;&gt;Node5 -->
<g id="edge4_Node000001_Node000005" class="edge">
<title>Node1&#45;&gt;Node5</title>
<g id="a_edge4_Node000001_Node000005"><a xlink:title=" ">
<path fill="none" stroke="#63b8ff" d="M500.71,-357.92C487.66,-389.3 457.38,-452.13 412,-487 408.01,-490.07 403.67,-492.82 399.14,-495.29"/>
<polygon fill="#63b8ff" stroke="#63b8ff" points="503.99,-359.15 504.47,-348.56 497.49,-356.54 503.99,-359.15"/>
</a>
</g>
</g>
<!-- Node6 -->
<g id="Node000006" class="node">
<title>Node6</title>
<g id="a_Node000006"><a xlink:href="classpolyfem_1_1assembler_1_1_neo_hookean_elasticity.html#ac6c2fa6f12bcd2d5a76c36534052b005" target="_top" xlink:title=" ">
<polygon fill="white" stroke="#666666" points="394,-477.5 250,-477.5 250,-436.5 394,-436.5 394,-477.5"/>
<text text-anchor="start" x="258" y="-465.5" font-family="Helvetica,sans-Serif" font-size="10.00">polyfem::assembler</text>
<text text-anchor="start" x="258" y="-454.5" font-family="Helvetica,sans-Serif" font-size="10.00">::NeoHookeanElasticity</text>
<text text-anchor="middle" x="322" y="-443.5" font-family="Helvetica,sans-Serif" font-size="10.00">::compute_stiffness_value</text>
</a>
</g>
</g>
<!-- Node1&#45;&gt;Node6 -->
<g id="edge5_Node000001_Node000006" class="edge">
<title>Node1&#45;&gt;Node6</title>
<g id="a_edge5_Node000001_Node000006"><a xlink:title=" ">
<path fill="none" stroke="#63b8ff" d="M493.44,-356.46C475.98,-376.37 444.92,-408.66 412,-428 406.4,-431.29 400.37,-434.27 394.19,-436.94"/>
<polygon fill="#63b8ff" stroke="#63b8ff" points="496.19,-358.63 500.05,-348.76 490.88,-354.06 496.19,-358.63"/>
</a>
</g>
</g>
<!-- Node7 -->
<g id="Node000007" class="node">
<title>Node7</title>
<g id="a_Node000007"><a xlink:href="classpolyfem_1_1solver_1_1_adjoint_tools.html#addcc05e296f84fac4d2feef6b6efe330" target="_top" xlink:title=" ">
<polygon fill="white" stroke="#666666" points="389,-418.5 255,-418.5 255,-377.5 389,-377.5 389,-418.5"/>
<text text-anchor="start" x="263" y="-406.5" font-family="Helvetica,sans-Serif" font-size="10.00">polyfem::solver::Adjoint</text>
<text text-anchor="start" x="263" y="-395.5" font-family="Helvetica,sans-Serif" font-size="10.00">Tools::dJ_shape_static</text>
<text text-anchor="middle" x="322" y="-384.5" font-family="Helvetica,sans-Serif" font-size="10.00">_adjoint_term</text>
</a>
</g>
</g>
<!-- Node1&#45;&gt;Node7 -->
<g id="edge6_Node000001_Node000007" class="edge">
<title>Node1&#45;&gt;Node7</title>
<g id="a_edge6_Node000001_Node000007"><a xlink:title=" ">
<path fill="none" stroke="#63b8ff" d="M468.25,-351.68C444.77,-359.16 414.49,-368.82 387.65,-377.38"/>
<polygon fill="#63b8ff" stroke="#63b8ff" points="469.4,-354.98 477.86,-348.61 467.27,-348.31 469.4,-354.98"/>
</a>
</g>
</g>
<!-- Node9 -->
<g id="Node000009" class="node">
<title>Node9</title>
<g id="a_Node000009"><a xlink:href="classpolyfem_1_1solver_1_1_adjoint_tools.html#abeb523ee2bef0856b888bb49c5cdca8f" target="_top" xlink:title=" ">
<polygon fill="white" stroke="#666666" points="392,-359.5 252,-359.5 252,-318.5 392,-318.5 392,-359.5"/>
<text text-anchor="start" x="260" y="-347.5" font-family="Helvetica,sans-Serif" font-size="10.00">polyfem::solver::Adjoint</text>
<text text-anchor="start" x="260" y="-336.5" font-family="Helvetica,sans-Serif" font-size="10.00">Tools::dJ_shape_transient</text>
<text text-anchor="middle" x="322" y="-325.5" font-family="Helvetica,sans-Serif" font-size="10.00">_adjoint_term</text>
</a>
</g>
</g>
<!-- Node1&#45;&gt;Node9 -->
<g id="edge8_Node000001_Node000009" class="edge">
<title>Node1&#45;&gt;Node9</title>
<g id="a_edge8_Node000001_Node000009"><a xlink:title=" ">
<path fill="none" stroke="#63b8ff" d="M437.73,-339C422.77,-339 406.99,-339 392.08,-339"/>
<polygon fill="#63b8ff" stroke="#63b8ff" points="437.94,-342.5 447.94,-339 437.94,-335.5 437.94,-342.5"/>
</a>
</g>
</g>
<!-- Node10 -->
<g id="Node000010" class="node">
<title>Node10</title>
<g id="a_Node000010"><a xlink:href="classpolyfem_1_1solver_1_1_mesh_tiling.html#aeb2823d7a6342723b282d736d53d8139" target="_top" xlink:title=" ">
<polygon fill="white" stroke="#666666" points="398,-300 246,-300 246,-270 398,-270 398,-300"/>
<text text-anchor="start" x="254" y="-288" font-family="Helvetica,sans-Serif" font-size="10.00">polyfem::solver::MeshTiling</text>
<text text-anchor="middle" x="322" y="-277" font-family="Helvetica,sans-Serif" font-size="10.00">::eval</text>
</a>
</g>
</g>
<!-- Node1&#45;&gt;Node10 -->
<g id="edge10_Node000001_Node000010" class="edge">
<title>Node1&#45;&gt;Node10</title>
<g id="a_edge10_Node000001_Node000010"><a xlink:title=" ">
<path fill="none" stroke="#63b8ff" d="M467.26,-326.5C450.21,-321.32 430.16,-315.29 412,-310 400.75,-306.72 388.68,-303.28 377.17,-300.04"/>
<polygon fill="#63b8ff" stroke="#63b8ff" points="466.33,-329.88 476.92,-329.44 468.37,-323.18 466.33,-329.88"/>
</a>
</g>
</g>
<!-- Node11 -->
<g id="Node000011" class="node">
<title>Node11</title>
<g id="a_Node000011"><a xlink:href="classpolyfem_1_1solver_1_1_mesh_affine.html#ac849281207604601dee175098be60bcb" target="_top" xlink:title=" ">
<polygon fill="white" stroke="#666666" points="399,-234 245,-234 245,-204 399,-204 399,-234"/>
<text text-anchor="start" x="253" y="-222" font-family="Helvetica,sans-Serif" font-size="10.00">polyfem::solver::MeshAffine</text>
<text text-anchor="middle" x="322" y="-211" font-family="Helvetica,sans-Serif" font-size="10.00">::eval</text>
</a>
</g>
</g>
<!-- Node1&#45;&gt;Node11 -->
<g id="edge11_Node000001_Node000011" class="edge">
<title>Node1&#45;&gt;Node11</title>
<g id="a_edge11_Node000001_Node000011"><a xlink:title=" ">
<path fill="none" stroke="#63b8ff" d="M490.59,-322.67C472.08,-305.85 441.45,-279.53 412,-261 395.66,-250.72 376.4,-241.33 359.99,-234.05"/>
<polygon fill="#63b8ff" stroke="#63b8ff" points="488.25,-325.27 497.98,-329.46 492.98,-320.12 488.25,-325.27"/>
</a>
</g>
</g>
<!-- Node12 -->
<g id="Node000012" class="node">
<title>Node12</title>
<g id="a_Node000012"><a xlink:href="classpolyfem_1_1io_1_1_evaluator.html#a2ee6a772b00696a954e6a29fc3d77a8b" target="_top" xlink:title=" ">
<polygon fill="white" stroke="#666666" points="384.5,-186 259.5,-186 259.5,-156 384.5,-156 384.5,-186"/>
<text text-anchor="start" x="267.5" y="-174" font-family="Helvetica,sans-Serif" font-size="10.00">polyfem::io::Evaluator</text>
<text text-anchor="middle" x="322" y="-163" font-family="Helvetica,sans-Serif" font-size="10.00">::generate_linear_field</text>
</a>
</g>
</g>
<!-- Node1&#45;&gt;Node12 -->
<g id="edge13_Node000001_Node000012" class="edge">
<title>Node1&#45;&gt;Node12</title>
<g id="a_edge13_Node000001_Node000012"><a xlink:title=" ">
<path fill="none" stroke="#63b8ff" d="M500.57,-319.89C487.49,-288.84 457.38,-227.61 412,-195 403.81,-189.12 394.26,-184.68 384.52,-181.32"/>
<polygon fill="#63b8ff" stroke="#63b8ff" points="497.34,-321.24 504.35,-329.18 503.82,-318.6 497.34,-321.24"/>
</a>
</g>
</g>
<!-- Node13 -->
<g id="Node000013" class="node">
<title>Node13</title>
<g id="a_Node000013"><a xlink:href="classpolyfem_1_1solver_1_1_elastic_energy_form.html#a7551c8d1d37186625404a63bdf9b6b19" target="_top" xlink:title=" ">
<polygon fill="white" stroke="#666666" points="392,-137.5 252,-137.5 252,-96.5 392,-96.5 392,-137.5"/>
<text text-anchor="start" x="260" y="-125.5" font-family="Helvetica,sans-Serif" font-size="10.00">polyfem::solver::Elastic</text>
<text text-anchor="start" x="260" y="-114.5" font-family="Helvetica,sans-Serif" font-size="10.00">EnergyForm::get_integral</text>
<text text-anchor="middle" x="322" y="-103.5" font-family="Helvetica,sans-Serif" font-size="10.00">_functional</text>
</a>
</g>
</g>
<!-- Node1&#45;&gt;Node13 -->
<g id="edge14_Node000001_Node000013" class="edge">
<title>Node1&#45;&gt;Node13</title>
<g id="a_edge14_Node000001_Node000013"><a xlink:title=" ">
<path fill="none" stroke="#63b8ff" d="M503.55,-319.48C493.76,-280.94 466.76,-194.65 412,-147 406.1,-141.86 399.28,-137.6 392.09,-134.06"/>
<polygon fill="#63b8ff" stroke="#63b8ff" points="500.2,-320.52 505.95,-329.42 507,-318.88 500.2,-320.52"/>
</a>
</g>
</g>
<!-- Node14 -->
<g id="Node000014" class="node">
<title>Node14</title>
<g id="a_Node000014"><a xlink:href="classpolyfem_1_1solver_1_1_stress_form.html#a65b7888ecd827796b944a132b7985975" target="_top" xlink:title=" ">
<polygon fill="white" stroke="#666666" points="399,-78 245,-78 245,-48 399,-48 399,-78"/>
<text text-anchor="start" x="253" y="-66" font-family="Helvetica,sans-Serif" font-size="10.00">polyfem::solver::StressForm</text>
<text text-anchor="middle" x="322" y="-55" font-family="Helvetica,sans-Serif" font-size="10.00">::get_integral_functional</text>
</a>
</g>
</g>
<!-- Node1&#45;&gt;Node14 -->
<g id="edge15_Node000001_Node000014" class="edge">
<title>Node1&#45;&gt;Node14</title>
<g id="a_edge15_Node000001_Node000014"><a xlink:title=" ">
<path fill="none" stroke="#63b8ff" d="M506.34,-319.23C501.29,-272 481.89,-151.77 412,-88 407.73,-84.11 402.9,-80.81 397.76,-78.03"/>
<polygon fill="#63b8ff" stroke="#63b8ff" points="502.87,-319.74 507.32,-329.36 509.84,-319.07 502.87,-319.74"/>
</a>
</g>
</g>
<!-- Node15 -->
<g id="Node000015" class="node">
<title>Node15</title>
<g id="a_Node000015"><a xlink:href="classpolyfem_1_1solver_1_1_shape_variable_to_simulation.html#aa0a2463369855dcf311bd4f4957f7c7e" target="_top" xlink:title=" ">
<polygon fill="white" stroke="#666666" points="406.5,-30 237.5,-30 237.5,0 406.5,0 406.5,-30"/>
<text text-anchor="start" x="245.5" y="-18" font-family="Helvetica,sans-Serif" font-size="10.00">polyfem::solver::ShapeVariable</text>
<text text-anchor="middle" x="322" y="-7" font-family="Helvetica,sans-Serif" font-size="10.00">ToSimulation::inverse_eval</text>
</a>
</g>
</g>
<!-- Node1&#45;&gt;Node15 -->
<g id="edge16_Node000001_Node000015" class="edge">
<title>Node1&#45;&gt;Node15</title>
<g id="a_edge16_Node000001_Node000015"><a xlink:title=" ">
<path fill="none" stroke="#63b8ff" d="M507.8,-319.05C506.14,-265.49 493.99,-117.28 412,-39 408.41,-35.57 404.39,-32.63 400.09,-30.09"/>
<polygon fill="#63b8ff" stroke="#63b8ff" points="504.31,-319.33 508.02,-329.25 511.3,-319.18 504.31,-319.33"/>
</a>
</g>
</g>
<!-- Node8 -->
<g id="Node000008" class="node">
<title>Node8</title>
<g id="a_Node000008"><a xlink:href="classpolyfem_1_1solver_1_1_shape_variable_to_simulation.html#a9f5762367356019c956b2d04f86e4794" target="_top" xlink:title=" ">
<polygon fill="white" stroke="#666666" points="196,-383 0,-383 0,-353 196,-353 196,-383"/>
<text text-anchor="start" x="8" y="-371" font-family="Helvetica,sans-Serif" font-size="10.00">polyfem::solver::ShapeVariable</text>
<text text-anchor="middle" x="98" y="-360" font-family="Helvetica,sans-Serif" font-size="10.00">ToSimulation::compute_adjoint_term</text>
</a>
</g>
</g>
<!-- Node7&#45;&gt;Node8 -->
<g id="edge7_Node000007_Node000008" class="edge">
<title>Node7&#45;&gt;Node8</title>
<g id="a_edge7_Node000007_Node000008"><a xlink:title=" ">
<path fill="none" stroke="#63b8ff" d="M244.89,-387.72C229.28,-385.61 212.64,-383.36 196.39,-381.16"/>
<polygon fill="#63b8ff" stroke="#63b8ff" points="244.62,-391.21 254.99,-389.08 245.55,-384.27 244.62,-391.21"/>
</a>
</g>
</g>
<!-- Node9&#45;&gt;Node8 -->
<g id="edge9_Node000009_Node000008" class="edge">
<title>Node9&#45;&gt;Node8</title>
<g id="a_edge9_Node000009_Node000008"><a xlink:title=" ">
<path fill="none" stroke="#63b8ff" d="M241.86,-349.34C227.04,-351.27 211.39,-353.32 196.1,-355.32"/>
<polygon fill="#63b8ff" stroke="#63b8ff" points="242.51,-352.78 251.97,-348.02 241.61,-345.84 242.51,-352.78"/>
</a>
</g>
</g>
<!-- Node11&#45;&gt;Node11 -->
<g id="edge12_Node000011_Node000011" class="edge">
<title>Node11&#45;&gt;Node11</title>
<g id="a_edge12_Node000011_Node000011"><a xlink:title=" ">
<path fill="none" stroke="#63b8ff" d="M354.56,-244.6C350.11,-248.97 339.26,-252 322,-252 292.94,-252 282.04,-243.41 289.3,-234.28"/>
<polygon fill="#63b8ff" stroke="#63b8ff" points="358.06,-244.32 354.7,-234.28 351.06,-244.23 358.06,-244.32"/>
</a>
</g>
</g>
</g>
</svg>

<g id="navigator" transform="translate(0 0)" fill="#404254">
  <rect fill="#f2f5e9" fill-opacity="0.5" stroke="#606060" stroke-width=".5" x="0" y="0" width="60" height="60"/>
  <use id="zoomplus" xlink:href="#zoomPlus" x="17" y="9" onmousedown="handleZoom(evt,'in')"/>
  <use id="zoomminus" xlink:href="#zoomMin" x="42" y="9" onmousedown="handleZoom(evt,'out')"/>
  <use id="reset" xlink:href="#resetDef" x="30" y="36" onmousedown="handleReset()"/>
   <use id="arrowup" xlink:href="#arrowUp" x="0" y="0" onmousedown="handlePan(0,-1)"/>
  <use id="arrowright" xlink:href="#arrowRight" x="0" y="0" onmousedown="handlePan(1,0)"/>
  <use id="arrowdown" xlink:href="#arrowDown" x="0" y="0" onmousedown="handlePan(0,1)"/>
  <use id="arrowleft" xlink:href="#arrowLeft" x="0" y="0" onmousedown="handlePan(-1,0)"/>
</g>
<svg viewBox="0 0 15 15" width="100%" height="30px" preserveAspectRatio="xMaxYMin meet">
 <g id="arrow_out" transform="scale(0.3 0.3)">
  <a xlink:href="namespacepolyfem_1_1utils_adac090350174847f46edfd397abd4ab4_icgraph_org.svg" target="_base">
   <rect id="button" ry="5" rx="5" y="6" x="6" height="38" width="38"
        fill="#f2f5e9" fill-opacity="0.5" stroke="#606060" stroke-width="1.0"/>
   <path id="arrow"
     d="M 11.500037,31.436501 C 11.940474,20.09759 22.043105,11.32322 32.158766,21.979434 L 37.068811,17.246167 C 37.068811,17.246167 37.088388,32 37.088388,32 L 22.160133,31.978069 C 22.160133,31.978069 26.997745,27.140456 26.997745,27.140456 C 18.528582,18.264221 13.291696,25.230495 11.500037,31.436501 z"
     style="fill:#404040;"/>
  </a>
 </g>
</svg>

<style type='text/css'>
<![CDATA[
[data-mouse-over-selected='false'] { opacity: 0.7; }
[data-mouse-over-selected='true']  { opacity: 1.0; }
]]>
</style>
<script type="application/ecmascript"><![CDATA[
document.addEventListener('DOMContentLoaded', (event) => {
  highlightEdges();
  highlightAdjacentNodes();
});
]]></script>
</svg>
