<?xml version="1.0" encoding="UTF-8" standalone="no"?>
<!DOCTYPE svg PUBLIC "-//W3C//DTD SVG 1.1//EN"
 "http://www.w3.org/Graphics/SVG/1.1/DTD/svg11.dtd">
<!-- Generated by graphviz version 2.43.0 (0)
 -->
<!-- Title: polyfem::mesh::read_surface_mesh Pages: 1 -->
<svg width="1404pt" height="162pt"
 viewBox="0.00 0.00 1404.00 162.00" xmlns="http://www.w3.org/2000/svg" xmlns:xlink="http://www.w3.org/1999/xlink">
<g id="graph0" class="graph" transform="scale(1 1) rotate(0) translate(4 158)">
<title>polyfem::mesh::read_surface_mesh</title>
<!-- Node1 -->
<g id="Node000001" class="node">
<title>Node1</title>
<g id="a_Node000001"><a xlink:title="read a surface mesh">
<polygon fill="#999999" stroke="#666666" points="1396,-103 1278,-103 1278,-73 1396,-73 1396,-103"/>
<text text-anchor="start" x="1286" y="-91" font-family="Helvetica,sans-Serif" font-size="10.00">polyfem::mesh::read</text>
<text text-anchor="middle" x="1337" y="-80" font-family="Helvetica,sans-Serif" font-size="10.00">_surface_mesh</text>
</a>
</g>
</g>
<!-- Node2 -->
<g id="Node000002" class="node">
<title>Node2</title>
<g id="a_Node000002"><a xlink:href="namespacepolyfem_1_1mesh.html#a8b354410bd3ee20974de06b0131f8036" target="_top" xlink:title="Load a collision proxy mesh from a file.">
<polygon fill="white" stroke="#666666" points="1242,-136 1114,-136 1114,-106 1242,-106 1242,-136"/>
<text text-anchor="start" x="1122" y="-124" font-family="Helvetica,sans-Serif" font-size="10.00">polyfem::mesh::load</text>
<text text-anchor="middle" x="1178" y="-113" font-family="Helvetica,sans-Serif" font-size="10.00">_collision_proxy_mesh</text>
</a>
</g>
</g>
<!-- Node1&#45;&gt;Node2 -->
<g id="edge1_Node000001_Node000002" class="edge">
<title>Node1&#45;&gt;Node2</title>
<g id="a_edge1_Node000001_Node000002"><a xlink:title=" ">
<path fill="none" stroke="#63b8ff" d="M1267.98,-102.3C1259.37,-104.11 1250.58,-105.95 1242.05,-107.75"/>
<polygon fill="#63b8ff" stroke="#63b8ff" points="1268.92,-105.68 1277.99,-100.19 1267.48,-98.83 1268.92,-105.68"/>
</a>
</g>
</g>
<!-- Node5 -->
<g id="Node000005" class="node">
<title>Node5</title>
<g id="a_Node000005"><a xlink:href="namespacepolyfem_1_1mesh.html#a0998cc6c7de5ec57108b351c79ba171e" target="_top" xlink:title="read a obstacle mesh from a geometry JSON">
<polygon fill="white" stroke="#666666" points="1237,-70 1119,-70 1119,-40 1237,-40 1237,-70"/>
<text text-anchor="start" x="1127" y="-58" font-family="Helvetica,sans-Serif" font-size="10.00">polyfem::mesh::read</text>
<text text-anchor="middle" x="1178" y="-47" font-family="Helvetica,sans-Serif" font-size="10.00">_obstacle_mesh</text>
</a>
</g>
</g>
<!-- Node1&#45;&gt;Node5 -->
<g id="edge6_Node000001_Node000005" class="edge">
<title>Node1&#45;&gt;Node5</title>
<g id="a_edge6_Node000001_Node000005"><a xlink:title=" ">
<path fill="none" stroke="#63b8ff" d="M1268.15,-73.74C1257.78,-71.56 1247.17,-69.33 1237.04,-67.2"/>
<polygon fill="#63b8ff" stroke="#63b8ff" points="1267.48,-77.17 1277.99,-75.81 1268.92,-70.32 1267.48,-77.17"/>
</a>
</g>
</g>
<!-- Node2&#45;&gt;Node2 -->
<g id="edge5_Node000002_Node000002" class="edge">
<title>Node2&#45;&gt;Node2</title>
<g id="a_edge5_Node000002_Node000002"><a xlink:title=" ">
<path fill="none" stroke="#63b8ff" d="M1205.66,-146.6C1201.88,-150.97 1192.66,-154 1178,-154 1153.31,-154 1144.05,-145.41 1150.23,-136.28"/>
<polygon fill="#63b8ff" stroke="#63b8ff" points="1209.16,-146.31 1205.77,-136.28 1202.16,-146.23 1209.16,-146.31"/>
</a>
</g>
</g>
<!-- Node3 -->
<g id="Node000003" class="node">
<title>Node3</title>
<g id="a_Node000003"><a xlink:href="namespacepolyfem_1_1mesh.html#a15b9f6e84b61e94823dad7a365835542" target="_top" xlink:title="Load a collision proxy mesh and displacement map from files.">
<polygon fill="white" stroke="#666666" points="1077.5,-136 960.5,-136 960.5,-106 1077.5,-106 1077.5,-136"/>
<text text-anchor="start" x="968.5" y="-124" font-family="Helvetica,sans-Serif" font-size="10.00">polyfem::mesh::load</text>
<text text-anchor="middle" x="1019" y="-113" font-family="Helvetica,sans-Serif" font-size="10.00">_collision_proxy</text>
</a>
</g>
</g>
<!-- Node2&#45;&gt;Node3 -->
<g id="edge2_Node000002_Node000003" class="edge">
<title>Node2&#45;&gt;Node3</title>
<g id="a_edge2_Node000002_Node000003"><a xlink:title=" ">
<path fill="none" stroke="#63b8ff" d="M1103.45,-121C1094.76,-121 1085.99,-121 1077.56,-121"/>
<polygon fill="#63b8ff" stroke="#63b8ff" points="1103.59,-124.5 1113.59,-121 1103.59,-117.5 1103.59,-124.5"/>
</a>
</g>
</g>
<!-- Node3&#45;&gt;Node3 -->
<g id="edge4_Node000003_Node000003" class="edge">
<title>Node3&#45;&gt;Node3</title>
<g id="a_edge4_Node000003_Node000003"><a xlink:title=" ">
<path fill="none" stroke="#63b8ff" d="M1046.66,-146.6C1042.88,-150.97 1033.66,-154 1019,-154 994.31,-154 985.05,-145.41 991.23,-136.28"/>
<polygon fill="#63b8ff" stroke="#63b8ff" points="1050.16,-146.31 1046.77,-136.28 1043.16,-146.23 1050.16,-146.31"/>
</a>
</g>
</g>
<!-- Node4 -->
<g id="Node000004" class="node">
<title>Node4</title>
<g id="a_Node000004"><a xlink:href="classpolyfem_1_1_state.html#a0dfe8b477867a13f17afb35bd4309508" target="_top" xlink:title="extracts the boundary mesh for collision, called in build_basis">
<polygon fill="white" stroke="#666666" points="909.5,-136 790.5,-136 790.5,-106 909.5,-106 909.5,-136"/>
<text text-anchor="start" x="798.5" y="-124" font-family="Helvetica,sans-Serif" font-size="10.00">polyfem::State::build</text>
<text text-anchor="middle" x="850" y="-113" font-family="Helvetica,sans-Serif" font-size="10.00">_collision_mesh</text>
</a>
</g>
</g>
<!-- Node3&#45;&gt;Node4 -->
<g id="edge3_Node000003_Node000004" class="edge">
<title>Node3&#45;&gt;Node4</title>
<g id="a_edge3_Node000003_Node000004"><a xlink:title=" ">
<path fill="none" stroke="#63b8ff" d="M949.97,-121C936.62,-121 922.71,-121 909.69,-121"/>
<polygon fill="#63b8ff" stroke="#63b8ff" points="950.06,-124.5 960.06,-121 950.06,-117.5 950.06,-124.5"/>
</a>
</g>
</g>
<!-- Node5&#45;&gt;Node5 -->
<g id="edge20_Node000005_Node000005" class="edge">
<title>Node5&#45;&gt;Node5</title>
<g id="a_edge20_Node000005_Node000005"><a xlink:title=" ">
<path fill="none" stroke="#63b8ff" d="M1205.66,-80.6C1201.88,-84.97 1192.66,-88 1178,-88 1153.31,-88 1144.05,-79.41 1150.23,-70.28"/>
<polygon fill="#63b8ff" stroke="#63b8ff" points="1209.16,-80.31 1205.77,-70.28 1202.16,-80.23 1209.16,-80.31"/>
</a>
</g>
</g>
<!-- Node6 -->
<g id="Node000006" class="node">
<title>Node6</title>
<g id="a_Node000006"><a xlink:href="namespacepolyfem_1_1mesh.html#a47496a714e0b233ab918bfbbe7c4626f" target="_top" xlink:title="read a FEM mesh from a geometry JSON">
<polygon fill="white" stroke="#666666" points="1078,-70 960,-70 960,-40 1078,-40 1078,-70"/>
<text text-anchor="start" x="968" y="-58" font-family="Helvetica,sans-Serif" font-size="10.00">polyfem::mesh::read</text>
<text text-anchor="middle" x="1019" y="-47" font-family="Helvetica,sans-Serif" font-size="10.00">_obstacle_geometry</text>
</a>
</g>
</g>
<!-- Node5&#45;&gt;Node6 -->
<g id="edge7_Node000005_Node000006" class="edge">
<title>Node5&#45;&gt;Node6</title>
<g id="a_edge7_Node000005_Node000006"><a xlink:title=" ">
<path fill="none" stroke="#63b8ff" d="M1108.83,-55C1098.57,-55 1088.06,-55 1078.04,-55"/>
<polygon fill="#63b8ff" stroke="#63b8ff" points="1108.99,-58.5 1118.99,-55 1108.99,-51.5 1108.99,-58.5"/>
</a>
</g>
</g>
<!-- Node6&#45;&gt;Node6 -->
<g id="edge19_Node000006_Node000006" class="edge">
<title>Node6&#45;&gt;Node6</title>
<g id="a_edge19_Node000006_Node000006"><a xlink:title=" ">
<path fill="none" stroke="#63b8ff" d="M1046.66,-80.6C1042.88,-84.97 1033.66,-88 1019,-88 994.31,-88 985.05,-79.41 991.23,-70.28"/>
<polygon fill="#63b8ff" stroke="#63b8ff" points="1050.16,-80.31 1046.77,-70.28 1043.16,-80.23 1050.16,-80.31"/>
</a>
</g>
</g>
<!-- Node7 -->
<g id="Node000007" class="node">
<title>Node7</title>
<g id="a_Node000007"><a xlink:href="classpolyfem_1_1_state.html#a37cc0825d6cd66410b5c1a0c46778a9f" target="_top" xlink:title="loads the mesh from the json arguments">
<polygon fill="white" stroke="#666666" points="924,-76.5 776,-76.5 776,-57.5 924,-57.5 924,-76.5"/>
<text text-anchor="middle" x="850" y="-64.5" font-family="Helvetica,sans-Serif" font-size="10.00">polyfem::State::load_mesh</text>
</a>
</g>
</g>
<!-- Node6&#45;&gt;Node7 -->
<g id="edge8_Node000006_Node000007" class="edge">
<title>Node6&#45;&gt;Node7</title>
<g id="a_edge8_Node000006_Node000007"><a xlink:title=" ">
<path fill="none" stroke="#63b8ff" d="M949.49,-59.92C941.1,-60.53 932.51,-61.14 924.06,-61.75"/>
<polygon fill="#63b8ff" stroke="#63b8ff" points="949.87,-63.4 959.59,-59.2 949.37,-56.42 949.87,-63.4"/>
</a>
</g>
</g>
<!-- Node16 -->
<g id="Node000016" class="node">
<title>Node16</title>
<g id="a_Node000016"><a xlink:href="classpolyfem_1_1_state.html#ac4b4c624e46a71afeb97d56c50190eb3" target="_top" xlink:title="loads the mesh from a geogram mesh">
<polygon fill="white" stroke="#666666" points="924,-39.5 776,-39.5 776,-20.5 924,-20.5 924,-39.5"/>
<text text-anchor="middle" x="850" y="-27.5" font-family="Helvetica,sans-Serif" font-size="10.00">polyfem::State::load_mesh</text>
</a>
</g>
</g>
<!-- Node6&#45;&gt;Node16 -->
<g id="edge18_Node000006_Node000016" class="edge">
<title>Node6&#45;&gt;Node16</title>
<g id="a_edge18_Node000006_Node000016"><a xlink:title=" ">
<path fill="none" stroke="#63b8ff" d="M949.53,-44.75C937.94,-43.02 925.95,-41.22 914.5,-39.51"/>
<polygon fill="#63b8ff" stroke="#63b8ff" points="949.18,-48.24 959.59,-46.26 950.22,-41.31 949.18,-48.24"/>
</a>
</g>
</g>
<!-- Node8 -->
<g id="Node000008" class="node">
<title>Node8</title>
<g id="a_Node000008"><a xlink:href="main_8cpp.html#aec889c702a246ad7f332c75ab7adb438" target="_top" xlink:title=" ">
<polygon fill="white" stroke="#666666" points="199.5,-111.5 88.5,-111.5 88.5,-92.5 199.5,-92.5 199.5,-111.5"/>
<text text-anchor="middle" x="144" y="-99.5" font-family="Helvetica,sans-Serif" font-size="10.00">forward_simulation</text>
</a>
</g>
</g>
<!-- Node7&#45;&gt;Node8 -->
<g id="edge9_Node000007_Node000008" class="edge">
<title>Node7&#45;&gt;Node8</title>
<g id="a_edge9_Node000007_Node000008"><a xlink:title=" ">
<path fill="none" stroke="#63b8ff" d="M790.2,-78.2C773.99,-80.88 756.36,-83.42 740,-85 541.73,-104.12 304.72,-104.08 199.71,-102.9"/>
<polygon fill="#63b8ff" stroke="#63b8ff" points="790.81,-81.65 800.08,-76.52 789.63,-74.75 790.81,-81.65"/>
</a>
</g>
</g>
<!-- Node10 -->
<g id="Node000010" class="node">
<title>Node10</title>
<g id="a_Node000010"><a xlink:href="classpolyfem_1_1_state.html#a4ce16a4580b29c071e8fd84fbada3497" target="_top" xlink:title="loads the mesh from V and F,">
<polygon fill="white" stroke="#666666" points="740,-76.5 592,-76.5 592,-57.5 740,-57.5 740,-76.5"/>
<text text-anchor="middle" x="666" y="-64.5" font-family="Helvetica,sans-Serif" font-size="10.00">polyfem::State::load_mesh</text>
</a>
</g>
</g>
<!-- Node7&#45;&gt;Node10 -->
<g id="edge11_Node000007_Node000010" class="edge">
<title>Node7&#45;&gt;Node10</title>
<g id="a_edge11_Node000007_Node000010"><a xlink:title=" ">
<path fill="none" stroke="#63b8ff" d="M765.48,-67C757.01,-67 748.44,-67 740.09,-67"/>
<polygon fill="#63b8ff" stroke="#63b8ff" points="765.76,-70.5 775.76,-67 765.76,-63.5 765.76,-70.5"/>
</a>
</g>
</g>
<!-- Node11 -->
<g id="Node000011" class="node">
<title>Node11</title>
<g id="a_Node000011"><a xlink:href="classpolyfem_1_1_state.html#a5ddafd77c68a90e74e41d4591f387f75" target="_top" xlink:title="Remesh the FE space and update solution(s).">
<polygon fill="white" stroke="#666666" points="731.5,-39.5 600.5,-39.5 600.5,-20.5 731.5,-20.5 731.5,-39.5"/>
<text text-anchor="middle" x="666" y="-27.5" font-family="Helvetica,sans-Serif" font-size="10.00">polyfem::State::remesh</text>
</a>
</g>
</g>
<!-- Node7&#45;&gt;Node11 -->
<g id="edge12_Node000007_Node000011" class="edge">
<title>Node7&#45;&gt;Node11</title>
<g id="a_edge12_Node000007_Node000011"><a xlink:title=" ">
<path fill="none" stroke="#63b8ff" d="M792.02,-55.42C766.94,-50.32 737.84,-44.4 714.03,-39.56"/>
<polygon fill="#63b8ff" stroke="#63b8ff" points="791.63,-58.91 802.13,-57.47 793.03,-52.05 791.63,-58.91"/>
</a>
</g>
</g>
<!-- Node9 -->
<g id="Node000009" class="node">
<title>Node9</title>
<g id="a_Node000009"><a xlink:href="main_8cpp.html#a3c04138a5bfe5d72780bb7e82a18e627" target="_top" xlink:title=" ">
<polygon fill="white" stroke="#666666" points="41,-111.5 0,-111.5 0,-92.5 41,-92.5 41,-111.5"/>
<text text-anchor="middle" x="20.5" y="-99.5" font-family="Helvetica,sans-Serif" font-size="10.00">main</text>
</a>
</g>
</g>
<!-- Node8&#45;&gt;Node9 -->
<g id="edge10_Node000008_Node000009" class="edge">
<title>Node8&#45;&gt;Node9</title>
<g id="a_edge10_Node000008_Node000009"><a xlink:title=" ">
<path fill="none" stroke="#63b8ff" d="M77.97,-102C64.49,-102 51.29,-102 41.05,-102"/>
<polygon fill="#63b8ff" stroke="#63b8ff" points="78.29,-105.5 88.29,-102 78.29,-98.5 78.29,-105.5"/>
</a>
</g>
</g>
<!-- Node12 -->
<g id="Node000012" class="node">
<title>Node12</title>
<g id="a_Node000012"><a xlink:href="classpolyfem_1_1_state.html#a4d91e8c971fc121b0cff2f0c02ca79e7" target="_top" xlink:title="solves transient tensor nonlinear problem">
<polygon fill="white" stroke="#666666" points="556,-61 404,-61 404,-31 556,-31 556,-61"/>
<text text-anchor="start" x="412" y="-49" font-family="Helvetica,sans-Serif" font-size="10.00">polyfem::State::solve</text>
<text text-anchor="middle" x="480" y="-38" font-family="Helvetica,sans-Serif" font-size="10.00">_transient_tensor_nonlinear</text>
</a>
</g>
</g>
<!-- Node11&#45;&gt;Node12 -->
<g id="edge13_Node000011_Node000012" class="edge">
<title>Node11&#45;&gt;Node12</title>
<g id="a_edge13_Node000011_Node000012"><a xlink:title=" ">
<path fill="none" stroke="#63b8ff" d="M590.2,-36.5C578.98,-37.48 567.4,-38.49 556.17,-39.46"/>
<polygon fill="#63b8ff" stroke="#63b8ff" points="590.73,-39.97 600.39,-35.62 590.12,-33 590.73,-39.97"/>
</a>
</g>
</g>
<!-- Node13 -->
<g id="Node000013" class="node">
<title>Node13</title>
<g id="a_Node000013"><a xlink:href="classpolyfem_1_1_state.html#a7450ef7c42dd9c523e1be73a5819117d" target="_top" xlink:title="solves the problems">
<polygon fill="white" stroke="#666666" points="368,-69 247,-69 247,-39 368,-39 368,-69"/>
<text text-anchor="start" x="255" y="-57" font-family="Helvetica,sans-Serif" font-size="10.00">polyfem::State::solve</text>
<text text-anchor="middle" x="307.5" y="-46" font-family="Helvetica,sans-Serif" font-size="10.00">_problem</text>
</a>
</g>
</g>
<!-- Node12&#45;&gt;Node13 -->
<g id="edge14_Node000012_Node000013" class="edge">
<title>Node12&#45;&gt;Node13</title>
<g id="a_edge14_Node000012_Node000013"><a xlink:title=" ">
<path fill="none" stroke="#63b8ff" d="M393.59,-50.01C384.95,-50.41 376.31,-50.82 368.02,-51.21"/>
<polygon fill="#63b8ff" stroke="#63b8ff" points="393.89,-53.5 403.72,-49.53 393.57,-46.5 393.89,-53.5"/>
</a>
</g>
</g>
<!-- Node13&#45;&gt;Node8 -->
<g id="edge15_Node000013_Node000008" class="edge">
<title>Node13&#45;&gt;Node8</title>
<g id="a_edge15_Node000013_Node000008"><a xlink:title=" ">
<path fill="none" stroke="#63b8ff" d="M246,-71.98C222.63,-78.93 196.85,-86.59 177.18,-92.44"/>
<polygon fill="#63b8ff" stroke="#63b8ff" points="247.26,-75.26 255.84,-69.06 245.26,-68.55 247.26,-75.26"/>
</a>
</g>
</g>
<!-- Node14 -->
<g id="Node000014" class="node">
<title>Node14</title>
<g id="a_Node000014"><a xlink:href="classpolyfem_1_1_state.html#a219f9935d918f739d82488449bd4cbf4" target="_top" xlink:title="solves the problem, call other methods">
<polygon fill="white" stroke="#666666" points="204.5,-67.5 83.5,-67.5 83.5,-48.5 204.5,-48.5 204.5,-67.5"/>
<text text-anchor="middle" x="144" y="-55.5" font-family="Helvetica,sans-Serif" font-size="10.00">polyfem::State::solve</text>
</a>
</g>
</g>
<!-- Node13&#45;&gt;Node14 -->
<g id="edge16_Node000013_Node000014" class="edge">
<title>Node13&#45;&gt;Node14</title>
<g id="a_edge16_Node000013_Node000014"><a xlink:title=" ">
<path fill="none" stroke="#63b8ff" d="M236.7,-55.73C226.04,-55.99 215.12,-56.26 204.7,-56.52"/>
<polygon fill="#63b8ff" stroke="#63b8ff" points="236.91,-59.22 246.82,-55.48 236.74,-52.23 236.91,-59.22"/>
</a>
</g>
</g>
<!-- Node15 -->
<g id="Node000015" class="node">
<title>Node15</title>
<g id="a_Node000015"><a xlink:href="structpolyfem_1_1solver_1_1_adjoint_opt_utils.html#acac3e8ce8646ddd1544ed034c71bec96" target="_top" xlink:title=" ">
<polygon fill="white" stroke="#666666" points="211,-30 77,-30 77,0 211,0 211,-30"/>
<text text-anchor="start" x="85" y="-18" font-family="Helvetica,sans-Serif" font-size="10.00">polyfem::solver::Adjoint</text>
<text text-anchor="middle" x="144" y="-7" font-family="Helvetica,sans-Serif" font-size="10.00">OptUtils::solve_pde</text>
</a>
</g>
</g>
<!-- Node13&#45;&gt;Node15 -->
<g id="edge17_Node000013_Node000015" class="edge">
<title>Node13&#45;&gt;Node15</title>
<g id="a_edge17_Node000013_Node000015"><a xlink:title=" ">
<path fill="none" stroke="#63b8ff" d="M237,-37.22C227.07,-34.82 216.91,-32.37 207.14,-30.01"/>
<polygon fill="#63b8ff" stroke="#63b8ff" points="236.28,-40.64 246.82,-39.59 237.92,-33.84 236.28,-40.64"/>
</a>
</g>
</g>
</g>
</svg>
