<?xml version="1.0" encoding="UTF-8" standalone="no"?>
<!DOCTYPE svg PUBLIC "-//W3C//DTD SVG 1.1//EN"
 "http://www.w3.org/Graphics/SVG/1.1/DTD/svg11.dtd">
<!-- Generated by graphviz version 2.43.0 (0)
 -->
<!-- Title: polyfem::mesh::signed_volume Pages: 1 -->
<svg width="1601pt" height="102pt"
 viewBox="0.00 0.00 1601.00 101.50" xmlns="http://www.w3.org/2000/svg" xmlns:xlink="http://www.w3.org/1999/xlink">
<g id="graph0" class="graph" transform="scale(1 1) rotate(0) translate(4 97.5)">
<title>polyfem::mesh::signed_volume</title>
<!-- Node1 -->
<g id="Node000001" class="node">
<title>Node1</title>
<g id="a_Node000001"><a xlink:title="Compute the signed volume of a surface mesh.">
<polygon fill="#999999" stroke="#666666" points="1593,-54 1465,-54 1465,-24 1593,-24 1593,-54"/>
<text text-anchor="start" x="1473" y="-42" font-family="Helvetica,sans-Serif" font-size="10.00">polyfem::mesh::signed</text>
<text text-anchor="middle" x="1529" y="-31" font-family="Helvetica,sans-Serif" font-size="10.00">_volume</text>
</a>
</g>
</g>
<!-- Node2 -->
<g id="Node000002" class="node">
<title>Node2</title>
<g id="a_Node000002"><a xlink:href="namespacepolyfem_1_1mesh.html#a1f0a5489e7a8bc1a78e123094cb09854" target="_top" xlink:title="Orient a triangulated surface to have positive volume.">
<polygon fill="white" stroke="#666666" points="1401,-78 1276,-78 1276,-48 1401,-48 1401,-78"/>
<text text-anchor="start" x="1284" y="-66" font-family="Helvetica,sans-Serif" font-size="10.00">polyfem::mesh::orient</text>
<text text-anchor="middle" x="1338.5" y="-55" font-family="Helvetica,sans-Serif" font-size="10.00">_closed_surface</text>
</a>
</g>
</g>
<!-- Node1&#45;&gt;Node2 -->
<g id="edge1_Node000001_Node000002" class="edge">
<title>Node1&#45;&gt;Node2</title>
<g id="a_edge1_Node000001_Node000002"><a xlink:title=" ">
<path fill="none" stroke="#63b8ff" d="M1454.7,-48.33C1437.01,-50.59 1418.28,-52.97 1401.19,-55.15"/>
<polygon fill="#63b8ff" stroke="#63b8ff" points="1455.49,-51.76 1464.97,-47.03 1454.61,-44.82 1455.49,-51.76"/>
</a>
</g>
</g>
<!-- Node12 -->
<g id="Node000012" class="node">
<title>Node12</title>
<g id="a_Node000012"><a xlink:href="namespacepolyfem_1_1mesh_1_1_mesh_processing3_d.html#a697fe64375970558a7fd4a1cd5a7a16a" target="_top" xlink:title=" ">
<polygon fill="white" stroke="#666666" points="1429,-30 1248,-30 1248,0 1429,0 1429,-30"/>
<text text-anchor="start" x="1256" y="-18" font-family="Helvetica,sans-Serif" font-size="10.00">polyfem::mesh::MeshProcessing3</text>
<text text-anchor="middle" x="1338.5" y="-7" font-family="Helvetica,sans-Serif" font-size="10.00">D::refine_red_refinement_tet</text>
</a>
</g>
</g>
<!-- Node1&#45;&gt;Node12 -->
<g id="edge12_Node000001_Node000012" class="edge">
<title>Node1&#45;&gt;Node12</title>
<g id="a_edge12_Node000001_Node000012"><a xlink:title=" ">
<path fill="none" stroke="#63b8ff" d="M1454.88,-29.69C1446.5,-28.62 1437.89,-27.53 1429.32,-26.44"/>
<polygon fill="#63b8ff" stroke="#63b8ff" points="1454.61,-33.18 1464.97,-30.97 1455.49,-26.24 1454.61,-33.18"/>
</a>
</g>
</g>
<!-- Node3 -->
<g id="Node000003" class="node">
<title>Node3</title>
<g id="a_Node000003"><a xlink:href="classpolyfem_1_1basis_1_1_polygonal_basis3d.html#a3d41a5e1d493240fb9a088a5229a27d7" target="_top" xlink:title="Build bases over the remaining polygons of a mesh.">
<polygon fill="white" stroke="#666666" points="1212,-78 1069,-78 1069,-48 1212,-48 1212,-78"/>
<text text-anchor="start" x="1077" y="-66" font-family="Helvetica,sans-Serif" font-size="10.00">polyfem::basis::Polygonal</text>
<text text-anchor="middle" x="1140.5" y="-55" font-family="Helvetica,sans-Serif" font-size="10.00">Basis3d::build_bases</text>
</a>
</g>
</g>
<!-- Node2&#45;&gt;Node3 -->
<g id="edge2_Node000002_Node000003" class="edge">
<title>Node2&#45;&gt;Node3</title>
<g id="a_edge2_Node000002_Node000003"><a xlink:title=" ">
<path fill="none" stroke="#63b8ff" d="M1265.64,-63C1248.19,-63 1229.55,-63 1212.16,-63"/>
<polygon fill="#63b8ff" stroke="#63b8ff" points="1265.75,-66.5 1275.75,-63 1265.75,-59.5 1265.75,-66.5"/>
</a>
</g>
</g>
<!-- Node4 -->
<g id="Node000004" class="node">
<title>Node4</title>
<g id="a_Node000004"><a xlink:href="classpolyfem_1_1_state.html#a202f2494b8f46d4bf22edfc0a36ddb32" target="_top" xlink:title="builds bases for polygons, called inside build_basis">
<polygon fill="white" stroke="#666666" points="1033,-78 914,-78 914,-48 1033,-48 1033,-78"/>
<text text-anchor="start" x="922" y="-66" font-family="Helvetica,sans-Serif" font-size="10.00">polyfem::State::build</text>
<text text-anchor="middle" x="973.5" y="-55" font-family="Helvetica,sans-Serif" font-size="10.00">_polygonal_basis</text>
</a>
</g>
</g>
<!-- Node3&#45;&gt;Node4 -->
<g id="edge3_Node000003_Node000004" class="edge">
<title>Node3&#45;&gt;Node4</title>
<g id="a_edge3_Node000003_Node000004"><a xlink:title=" ">
<path fill="none" stroke="#63b8ff" d="M1058.56,-63C1050.02,-63 1041.44,-63 1033.22,-63"/>
<polygon fill="#63b8ff" stroke="#63b8ff" points="1058.57,-66.5 1068.57,-63 1058.57,-59.5 1058.57,-66.5"/>
</a>
</g>
</g>
<!-- Node5 -->
<g id="Node000005" class="node">
<title>Node5</title>
<g id="a_Node000005"><a xlink:href="classpolyfem_1_1_state.html#a75cfcf28f3bc27e8e30b41c7347c799b" target="_top" xlink:title="builds the bases step 2 of solve modifies bases, pressure_bases, geom_bases_, boundary_nodes,...">
<polygon fill="white" stroke="#666666" points="878,-78 759,-78 759,-48 878,-48 878,-78"/>
<text text-anchor="start" x="767" y="-66" font-family="Helvetica,sans-Serif" font-size="10.00">polyfem::State::build</text>
<text text-anchor="middle" x="818.5" y="-55" font-family="Helvetica,sans-Serif" font-size="10.00">_basis</text>
</a>
</g>
</g>
<!-- Node4&#45;&gt;Node5 -->
<g id="edge4_Node000004_Node000005" class="edge">
<title>Node4&#45;&gt;Node5</title>
<g id="a_edge4_Node000004_Node000005"><a xlink:title=" ">
<path fill="none" stroke="#63b8ff" d="M903.51,-63C895.01,-63 886.38,-63 878.06,-63"/>
<polygon fill="#63b8ff" stroke="#63b8ff" points="903.78,-66.5 913.78,-63 903.78,-59.5 903.78,-66.5"/>
</a>
</g>
</g>
<!-- Node6 -->
<g id="Node000006" class="node">
<title>Node6</title>
<g id="a_Node000006"><a xlink:href="main_8cpp.html#aec889c702a246ad7f332c75ab7adb438" target="_top" xlink:title=" ">
<polygon fill="white" stroke="#666666" points="199.5,-93.5 88.5,-93.5 88.5,-74.5 199.5,-74.5 199.5,-93.5"/>
<text text-anchor="middle" x="144" y="-81.5" font-family="Helvetica,sans-Serif" font-size="10.00">forward_simulation</text>
</a>
</g>
</g>
<!-- Node5&#45;&gt;Node6 -->
<g id="edge5_Node000005_Node000006" class="edge">
<title>Node5&#45;&gt;Node6</title>
<g id="a_edge5_Node000005_Node000006"><a xlink:title=" ">
<path fill="none" stroke="#63b8ff" d="M748.86,-65.14C614.96,-69.32 321.35,-78.49 199.59,-82.3"/>
<polygon fill="#63b8ff" stroke="#63b8ff" points="749.11,-68.64 759,-64.83 748.89,-61.64 749.11,-68.64"/>
</a>
</g>
</g>
<!-- Node8 -->
<g id="Node000008" class="node">
<title>Node8</title>
<g id="a_Node000008"><a xlink:href="classpolyfem_1_1_state.html#a5ddafd77c68a90e74e41d4591f387f75" target="_top" xlink:title="Remesh the FE space and update solution(s).">
<polygon fill="white" stroke="#666666" points="723,-53.5 592,-53.5 592,-34.5 723,-34.5 723,-53.5"/>
<text text-anchor="middle" x="657.5" y="-41.5" font-family="Helvetica,sans-Serif" font-size="10.00">polyfem::State::remesh</text>
</a>
</g>
</g>
<!-- Node5&#45;&gt;Node8 -->
<g id="edge7_Node000005_Node000008" class="edge">
<title>Node5&#45;&gt;Node8</title>
<g id="a_edge7_Node000005_Node000008"><a xlink:title=" ">
<path fill="none" stroke="#63b8ff" d="M748.56,-54.76C740.13,-53.75 731.53,-52.73 723.17,-51.73"/>
<polygon fill="#63b8ff" stroke="#63b8ff" points="748.4,-58.27 758.75,-55.98 749.23,-51.32 748.4,-58.27"/>
</a>
</g>
</g>
<!-- Node7 -->
<g id="Node000007" class="node">
<title>Node7</title>
<g id="a_Node000007"><a xlink:href="main_8cpp.html#a3c04138a5bfe5d72780bb7e82a18e627" target="_top" xlink:title=" ">
<polygon fill="white" stroke="#666666" points="41,-93.5 0,-93.5 0,-74.5 41,-74.5 41,-93.5"/>
<text text-anchor="middle" x="20.5" y="-81.5" font-family="Helvetica,sans-Serif" font-size="10.00">main</text>
</a>
</g>
</g>
<!-- Node6&#45;&gt;Node7 -->
<g id="edge6_Node000006_Node000007" class="edge">
<title>Node6&#45;&gt;Node7</title>
<g id="a_edge6_Node000006_Node000007"><a xlink:title=" ">
<path fill="none" stroke="#63b8ff" d="M77.97,-84C64.49,-84 51.29,-84 41.05,-84"/>
<polygon fill="#63b8ff" stroke="#63b8ff" points="78.29,-87.5 88.29,-84 78.29,-80.5 78.29,-87.5"/>
</a>
</g>
</g>
<!-- Node9 -->
<g id="Node000009" class="node">
<title>Node9</title>
<g id="a_Node000009"><a xlink:href="classpolyfem_1_1_state.html#a34b22126f0ef276354f0c5060b246922" target="_top" xlink:title="solves transient tensor nonlinear problem">
<polygon fill="white" stroke="#666666" points="556,-56 404,-56 404,-26 556,-26 556,-56"/>
<text text-anchor="start" x="412" y="-44" font-family="Helvetica,sans-Serif" font-size="10.00">polyfem::State::solve</text>
<text text-anchor="middle" x="480" y="-33" font-family="Helvetica,sans-Serif" font-size="10.00">_transient_tensor_nonlinear</text>
</a>
</g>
</g>
<!-- Node8&#45;&gt;Node9 -->
<g id="edge8_Node000008_Node000009" class="edge">
<title>Node8&#45;&gt;Node9</title>
<g id="a_edge8_Node000008_Node000009"><a xlink:title=" ">
<path fill="none" stroke="#63b8ff" d="M581.54,-42.72C573.16,-42.58 564.63,-42.43 556.26,-42.29"/>
<polygon fill="#63b8ff" stroke="#63b8ff" points="581.59,-46.22 591.65,-42.89 581.71,-39.22 581.59,-46.22"/>
</a>
</g>
</g>
<!-- Node10 -->
<g id="Node000010" class="node">
<title>Node10</title>
<g id="a_Node000010"><a xlink:href="classpolyfem_1_1_state.html#a8f5a3b6048c0620357b96daeea7270d5" target="_top" xlink:title="solves the problems">
<polygon fill="white" stroke="#666666" points="368,-56 247,-56 247,-26 368,-26 368,-56"/>
<text text-anchor="start" x="255" y="-44" font-family="Helvetica,sans-Serif" font-size="10.00">polyfem::State::solve</text>
<text text-anchor="middle" x="307.5" y="-33" font-family="Helvetica,sans-Serif" font-size="10.00">_problem</text>
</a>
</g>
</g>
<!-- Node9&#45;&gt;Node10 -->
<g id="edge9_Node000009_Node000010" class="edge">
<title>Node9&#45;&gt;Node10</title>
<g id="a_edge9_Node000009_Node000010"><a xlink:title=" ">
<path fill="none" stroke="#63b8ff" d="M393.59,-41C384.95,-41 376.31,-41 368.02,-41"/>
<polygon fill="#63b8ff" stroke="#63b8ff" points="393.72,-44.5 403.72,-41 393.72,-37.5 393.72,-44.5"/>
</a>
</g>
</g>
<!-- Node10&#45;&gt;Node6 -->
<g id="edge10_Node000010_Node000006" class="edge">
<title>Node10&#45;&gt;Node6</title>
<g id="a_edge10_Node000010_Node000006"><a xlink:title=" ">
<path fill="none" stroke="#63b8ff" d="M240.2,-58.65C219.95,-64.05 198.44,-69.77 181.01,-74.41"/>
<polygon fill="#63b8ff" stroke="#63b8ff" points="241.25,-61.99 250.02,-56.04 239.45,-55.23 241.25,-61.99"/>
</a>
</g>
</g>
<!-- Node11 -->
<g id="Node000011" class="node">
<title>Node11</title>
<g id="a_Node000011"><a xlink:href="structpolyfem_1_1solver_1_1_adjoint_opt_utils.html#acac3e8ce8646ddd1544ed034c71bec96" target="_top" xlink:title=" ">
<polygon fill="white" stroke="#666666" points="211,-56 77,-56 77,-26 211,-26 211,-56"/>
<text text-anchor="start" x="85" y="-44" font-family="Helvetica,sans-Serif" font-size="10.00">polyfem::solver::Adjoint</text>
<text text-anchor="middle" x="144" y="-33" font-family="Helvetica,sans-Serif" font-size="10.00">OptUtils::solve_pde</text>
</a>
</g>
</g>
<!-- Node10&#45;&gt;Node11 -->
<g id="edge11_Node000010_Node000011" class="edge">
<title>Node10&#45;&gt;Node11</title>
<g id="a_edge11_Node000010_Node000011"><a xlink:title=" ">
<path fill="none" stroke="#63b8ff" d="M236.64,-41C228.21,-41 219.61,-41 211.23,-41"/>
<polygon fill="#63b8ff" stroke="#63b8ff" points="236.82,-44.5 246.82,-41 236.82,-37.5 236.82,-44.5"/>
</a>
</g>
</g>
<!-- Node13 -->
<g id="Node000013" class="node">
<title>Node13</title>
<g id="a_Node000013"><a xlink:href="classpolyfem_1_1mesh_1_1_c_mesh3_d.html#a400bfde4af573c7ecf9c89aad4cfb9c0" target="_top" xlink:title="refine the mesh">
<polygon fill="white" stroke="#666666" points="1212,-30 1069,-30 1069,0 1212,0 1212,-30"/>
<text text-anchor="start" x="1077" y="-18" font-family="Helvetica,sans-Serif" font-size="10.00">polyfem::mesh::CMesh3D</text>
<text text-anchor="middle" x="1140.5" y="-7" font-family="Helvetica,sans-Serif" font-size="10.00">::refine</text>
</a>
</g>
</g>
<!-- Node12&#45;&gt;Node13 -->
<g id="edge13_Node000012_Node000013" class="edge">
<title>Node12&#45;&gt;Node13</title>
<g id="a_edge13_Node000012_Node000013"><a xlink:title=" ">
<path fill="none" stroke="#63b8ff" d="M1237.67,-15C1229.02,-15 1220.4,-15 1212.06,-15"/>
<polygon fill="#63b8ff" stroke="#63b8ff" points="1237.82,-18.5 1247.82,-15 1237.82,-11.5 1237.82,-18.5"/>
</a>
</g>
</g>
</g>
</svg>
