<?xml version="1.0" encoding="UTF-8" standalone="no"?>
<!DOCTYPE svg PUBLIC "-//W3C//DTD SVG 1.1//EN"
 "http://www.w3.org/Graphics/SVG/1.1/DTD/svg11.dtd">
<!-- Generated by graphviz version 2.43.0 (0)
 -->
<!-- Title: triangle.integrate_approx Pages: 1 -->
<svg width="384pt" height="51pt"
 viewBox="0.00 0.00 384.00 50.50" xmlns="http://www.w3.org/2000/svg" xmlns:xlink="http://www.w3.org/1999/xlink">
<g id="graph0" class="graph" transform="scale(1 1) rotate(0) translate(4 46.5)">
<title>triangle.integrate_approx</title>
<!-- Node1 -->
<g id="Node000001" class="node">
<title>Node1</title>
<g id="a_Node000001"><a xlink:title=" ">
<polygon fill="#999999" stroke="#666666" points="376,-30 275,-30 275,0 376,0 376,-30"/>
<text text-anchor="start" x="283" y="-18" font-family="Helvetica,sans-Serif" font-size="10.00">triangle.integrate</text>
<text text-anchor="middle" x="325.5" y="-7" font-family="Helvetica,sans-Serif" font-size="10.00">_approx</text>
</a>
</g>
</g>
<!-- Node2 -->
<g id="Node000002" class="node">
<title>Node2</title>
<g id="a_Node000002"><a xlink:href="namespacetriangle.html#a7187faa9a20504ee4df0885281f840f0" target="_top" xlink:title=" ">
<polygon fill="white" stroke="#666666" points="239,-24.5 118,-24.5 118,-5.5 239,-5.5 239,-24.5"/>
<text text-anchor="middle" x="178.5" y="-12.5" font-family="Helvetica,sans-Serif" font-size="10.00">triangle.pick_scheme</text>
</a>
</g>
</g>
<!-- Node1&#45;&gt;Node2 -->
<g id="edge1_Node000001_Node000002" class="edge">
<title>Node1&#45;&gt;Node2</title>
<g id="a_edge1_Node000001_Node000002"><a xlink:title=" ">
<path fill="none" stroke="#63b8ff" d="M264.55,-15C256.19,-15 247.6,-15 239.25,-15"/>
<polygon fill="#63b8ff" stroke="#63b8ff" points="264.6,-18.5 274.6,-15 264.6,-11.5 264.6,-18.5"/>
</a>
</g>
</g>
<!-- Node3 -->
<g id="Node000003" class="node">
<title>Node3</title>
<g id="a_Node000003"><a xlink:href="namespacetriangle.html#ad10a5c91f381925721f38f3c19b7c38e" target="_top" xlink:title=" ">
<polygon fill="white" stroke="#666666" points="82,-24.5 0,-24.5 0,-5.5 82,-5.5 82,-24.5"/>
<text text-anchor="middle" x="41" y="-12.5" font-family="Helvetica,sans-Serif" font-size="10.00">triangle.main</text>
</a>
</g>
</g>
<!-- Node2&#45;&gt;Node3 -->
<g id="edge2_Node000002_Node000003" class="edge">
<title>Node2&#45;&gt;Node3</title>
<g id="a_edge2_Node000002_Node000003"><a xlink:title=" ">
<path fill="none" stroke="#63b8ff" d="M107.46,-15C98.75,-15 90.09,-15 82.05,-15"/>
<polygon fill="#63b8ff" stroke="#63b8ff" points="107.67,-18.5 117.67,-15 107.67,-11.5 107.67,-18.5"/>
</a>
</g>
</g>
<!-- Node3&#45;&gt;Node3 -->
<g id="edge3_Node000003_Node000003" class="edge">
<title>Node3&#45;&gt;Node3</title>
<g id="a_edge3_Node000003_Node000003"><a xlink:title=" ">
<path fill="none" stroke="#63b8ff" d="M66.3,-33.69C64.92,-38.7 56.49,-42.5 41,-42.5 16.83,-42.5 9.84,-33.23 20.04,-24.58"/>
<polygon fill="#63b8ff" stroke="#63b8ff" points="69.42,-32.11 61.96,-24.58 63.1,-35.12 69.42,-32.11"/>
</a>
</g>
</g>
</g>
</svg>
