<?xml version="1.0" encoding="UTF-8" standalone="no"?>
<!DOCTYPE svg PUBLIC "-//W3C//DTD SVG 1.1//EN"
 "http://www.w3.org/Graphics/SVG/1.1/DTD/svg11.dtd">
<!-- Generated by graphviz version 2.43.0 (0)
 -->
<!-- Title: JIXIE::zeroChase Pages: 1 -->
<svg width="410pt" height="134pt"
 viewBox="0.00 0.00 410.00 134.00" xmlns="http://www.w3.org/2000/svg" xmlns:xlink="http://www.w3.org/1999/xlink">
<g id="graph0" class="graph" transform="scale(1 1) rotate(0) translate(4 130)">
<title>JIXIE::zeroChase</title>
<!-- Node1 -->
<g id="Node000001" class="node">
<title>Node1</title>
<g id="a_Node000001"><a xlink:title="zero chasing the 3X3 matrix to bidiagonal form original form of H: x x 0 x x x 0 0 x after zero chase...">
<polygon fill="#999999" stroke="#666666" points="95,-72.5 0,-72.5 0,-53.5 95,-53.5 95,-72.5"/>
<text text-anchor="middle" x="47.5" y="-60.5" font-family="Helvetica,sans-Serif" font-size="10.00">JIXIE::zeroChase</text>
</a>
</g>
</g>
<!-- Node2 -->
<g id="Node000002" class="node">
<title>Node2</title>
<g id="a_Node000002"><a xlink:href="class_j_i_x_i_e_1_1_givens_rotation.html#ad560b090f73ee349b0fa56b8a4a7c220" target="_top" xlink:title="This function does something like c s 0 A ( &#45;s c 0 ) &#45;&gt; A 0 0 1 It only affects column i and column k...">
<polygon fill="white" stroke="#666666" points="250,-126 131,-126 131,-96 250,-96 250,-126"/>
<text text-anchor="start" x="139" y="-114" font-family="Helvetica,sans-Serif" font-size="10.00">JIXIE::GivensRotation</text>
<text text-anchor="middle" x="190.5" y="-103" font-family="Helvetica,sans-Serif" font-size="10.00">::columnRotation</text>
</a>
</g>
</g>
<!-- Node1&#45;&gt;Node2 -->
<g id="edge1_Node000001_Node000002" class="edge">
<title>Node1&#45;&gt;Node2</title>
<g id="a_edge1_Node000001_Node000002"><a xlink:title=" ">
<path fill="none" stroke="#63b8ff" d="M76.69,-72.6C93.55,-78.33 115.52,-85.81 135.58,-92.65"/>
<polygon fill="#63b8ff" stroke="#63b8ff" points="134.66,-96.03 145.25,-95.94 136.91,-89.4 134.66,-96.03"/>
</a>
</g>
</g>
<!-- Node3 -->
<g id="Node000003" class="node">
<title>Node3</title>
<g id="a_Node000003"><a xlink:href="class_j_i_x_i_e_1_1_givens_rotation.html#a335cb94e2e981f6b26974e9425188816" target="_top" xlink:title="Compute c and s from a and b so that ( c &#45;s ) ( a ) = ( * ) s c b ( 0 )">
<polygon fill="white" stroke="#666666" points="250,-78 131,-78 131,-48 250,-48 250,-78"/>
<text text-anchor="start" x="139" y="-66" font-family="Helvetica,sans-Serif" font-size="10.00">JIXIE::GivensRotation</text>
<text text-anchor="middle" x="190.5" y="-55" font-family="Helvetica,sans-Serif" font-size="10.00">::compute</text>
</a>
</g>
</g>
<!-- Node1&#45;&gt;Node3 -->
<g id="edge2_Node000001_Node000003" class="edge">
<title>Node1&#45;&gt;Node3</title>
<g id="a_edge2_Node000001_Node000003"><a xlink:title=" ">
<path fill="none" stroke="#63b8ff" d="M95.06,-63C103.3,-63 112.04,-63 120.75,-63"/>
<polygon fill="#63b8ff" stroke="#63b8ff" points="120.92,-66.5 130.92,-63 120.92,-59.5 120.92,-66.5"/>
</a>
</g>
</g>
<!-- Node5 -->
<g id="Node000005" class="node">
<title>Node5</title>
<g id="a_Node000005"><a xlink:href="class_j_i_x_i_e_1_1_givens_rotation.html#a1564164394d3762076a5c41638237884" target="_top" xlink:title="This function does something like c &#45;s 0 ( s c 0 ) A &#45;&gt; A 0 0 1 It only affects row i and row k of A.">
<polygon fill="white" stroke="#666666" points="250,-30 131,-30 131,0 250,0 250,-30"/>
<text text-anchor="start" x="139" y="-18" font-family="Helvetica,sans-Serif" font-size="10.00">JIXIE::GivensRotation</text>
<text text-anchor="middle" x="190.5" y="-7" font-family="Helvetica,sans-Serif" font-size="10.00">::rowRotation</text>
</a>
</g>
</g>
<!-- Node1&#45;&gt;Node5 -->
<g id="edge4_Node000001_Node000005" class="edge">
<title>Node1&#45;&gt;Node5</title>
<g id="a_edge4_Node000001_Node000005"><a xlink:title=" ">
<path fill="none" stroke="#63b8ff" d="M76.69,-53.4C93.55,-47.67 115.52,-40.19 135.58,-33.35"/>
<polygon fill="#63b8ff" stroke="#63b8ff" points="136.91,-36.6 145.25,-30.06 134.66,-29.97 136.91,-36.6"/>
</a>
</g>
</g>
<!-- Node4 -->
<g id="Node000004" class="node">
<title>Node4</title>
<g id="a_Node000004"><a xlink:href="namespace_j_i_x_i_e_1_1_m_a_t_h___t_o_o_l_s.html#a368ca0f259408f399e5b23934d265e24" target="_top" xlink:title="Inverse square root computed from approx_rsqrt and one newton step.">
<polygon fill="white" stroke="#666666" points="402,-78 286,-78 286,-48 402,-48 402,-78"/>
<text text-anchor="start" x="294" y="-66" font-family="Helvetica,sans-Serif" font-size="10.00">JIXIE::MATH_TOOLS::</text>
<text text-anchor="middle" x="344" y="-55" font-family="Helvetica,sans-Serif" font-size="10.00">rsqrt</text>
</a>
</g>
</g>
<!-- Node3&#45;&gt;Node4 -->
<g id="edge3_Node000003_Node000004" class="edge">
<title>Node3&#45;&gt;Node4</title>
<g id="a_edge3_Node000003_Node000004"><a xlink:title=" ">
<path fill="none" stroke="#63b8ff" d="M250.07,-63C258.36,-63 266.94,-63 275.38,-63"/>
<polygon fill="#63b8ff" stroke="#63b8ff" points="275.58,-66.5 285.58,-63 275.58,-59.5 275.58,-66.5"/>
</a>
</g>
</g>
</g>
</svg>
