<?xml version="1.0" encoding="UTF-8" standalone="no"?>
<!DOCTYPE svg PUBLIC "-//W3C//DTD SVG 1.1//EN"
 "http://www.w3.org/Graphics/SVG/1.1/DTD/svg11.dtd">
<!-- Generated by graphviz version 2.43.0 (0)
 -->
<!-- Title: polyfem::mesh::MeshProcessing3D::orient_surface_mesh Pages: 1 -->
<svg width="802pt" height="137pt"
 viewBox="0.00 0.00 802.00 137.00" xmlns="http://www.w3.org/2000/svg" xmlns:xlink="http://www.w3.org/1999/xlink">
<g id="graph0" class="graph" transform="scale(1 1) rotate(0) translate(4 133)">
<title>polyfem::mesh::MeshProcessing3D::orient_surface_mesh</title>
<!-- Node1 -->
<g id="node1" class="node">
<title>Node1</title>
<g id="a_node1"><a xlink:title=" ">
<polygon fill="#bfbfbf" stroke="black" points="613,-49.5 613,-79.5 794,-79.5 794,-49.5 613,-49.5"/>
<text text-anchor="start" x="621" y="-67.5" font-family="Helvetica,sans-Serif" font-size="10.00">polyfem::mesh::MeshProcessing3</text>
<text text-anchor="middle" x="703.5" y="-56.5" font-family="Helvetica,sans-Serif" font-size="10.00">D::orient_surface_mesh</text>
</a>
</g>
</g>
<!-- Node2 -->
<g id="node2" class="node">
<title>Node2</title>
<g id="a_node2"><a xlink:href="namespacepolyfem_1_1mesh_1_1_mesh_processing3_d.html#a9e7226a476a286a41ca81d04b358d12f" target="_top" xlink:title=" ">
<polygon fill="none" stroke="black" points="396,-49.5 396,-79.5 577,-79.5 577,-49.5 396,-49.5"/>
<text text-anchor="start" x="404" y="-67.5" font-family="Helvetica,sans-Serif" font-size="10.00">polyfem::mesh::MeshProcessing3</text>
<text text-anchor="middle" x="486.5" y="-56.5" font-family="Helvetica,sans-Serif" font-size="10.00">D::orient_volume_mesh</text>
</a>
</g>
</g>
<!-- Node1&#45;&gt;Node2 -->
<g id="edge1" class="edge">
<title>Node1&#45;&gt;Node2</title>
<path fill="none" stroke="midnightblue" d="M602.63,-64.5C594.19,-64.5 585.68,-64.5 577.32,-64.5"/>
<polygon fill="midnightblue" stroke="midnightblue" points="602.88,-68 612.88,-64.5 602.88,-61 602.88,-68"/>
</g>
<!-- Node3 -->
<g id="node3" class="node">
<title>Node3</title>
<g id="a_node3"><a xlink:href="namespacepolyfem_1_1mesh_1_1_mesh_processing3_d.html#afb7ad06ae12fc5b116c4a57a9c82b6cb" target="_top" xlink:title=" ">
<polygon fill="none" stroke="black" points="179,-98.5 179,-128.5 360,-128.5 360,-98.5 179,-98.5"/>
<text text-anchor="start" x="187" y="-116.5" font-family="Helvetica,sans-Serif" font-size="10.00">polyfem::mesh::MeshProcessing3</text>
<text text-anchor="middle" x="269.5" y="-105.5" font-family="Helvetica,sans-Serif" font-size="10.00">D::refine_catmul_clark_polar</text>
</a>
</g>
</g>
<!-- Node2&#45;&gt;Node3 -->
<g id="edge2" class="edge">
<title>Node2&#45;&gt;Node3</title>
<path fill="none" stroke="midnightblue" d="M409.78,-81.76C385.82,-87.22 359.55,-93.21 336.34,-98.49"/>
<polygon fill="midnightblue" stroke="midnightblue" points="410.56,-85.17 419.53,-79.53 409,-78.34 410.56,-85.17"/>
</g>
<!-- Node5 -->
<g id="node5" class="node">
<title>Node5</title>
<g id="a_node5"><a xlink:href="namespacepolyfem_1_1mesh_1_1_mesh_processing3_d.html#a697fe64375970558a7fd4a1cd5a7a16a" target="_top" xlink:title=" ">
<polygon fill="none" stroke="black" points="179,-49.5 179,-79.5 360,-79.5 360,-49.5 179,-49.5"/>
<text text-anchor="start" x="187" y="-67.5" font-family="Helvetica,sans-Serif" font-size="10.00">polyfem::mesh::MeshProcessing3</text>
<text text-anchor="middle" x="269.5" y="-56.5" font-family="Helvetica,sans-Serif" font-size="10.00">D::refine_red_refinement_tet</text>
</a>
</g>
</g>
<!-- Node2&#45;&gt;Node5 -->
<g id="edge4" class="edge">
<title>Node2&#45;&gt;Node5</title>
<path fill="none" stroke="midnightblue" d="M385.63,-64.5C377.19,-64.5 368.68,-64.5 360.32,-64.5"/>
<polygon fill="midnightblue" stroke="midnightblue" points="385.88,-68 395.88,-64.5 385.88,-61 385.88,-68"/>
</g>
<!-- Node6 -->
<g id="node6" class="node">
<title>Node6</title>
<g id="a_node6"><a xlink:href="namespacepolyfem_1_1mesh_1_1_mesh_processing3_d.html#a74a553d7cc6c898fee5dd8664656ff0f" target="_top" xlink:title=" ">
<polygon fill="none" stroke="black" points="179,-0.5 179,-30.5 360,-30.5 360,-0.5 179,-0.5"/>
<text text-anchor="start" x="187" y="-18.5" font-family="Helvetica,sans-Serif" font-size="10.00">polyfem::mesh::MeshProcessing3</text>
<text text-anchor="middle" x="269.5" y="-7.5" font-family="Helvetica,sans-Serif" font-size="10.00">D::straight_sweeping</text>
</a>
</g>
</g>
<!-- Node2&#45;&gt;Node6 -->
<g id="edge6" class="edge">
<title>Node2&#45;&gt;Node6</title>
<path fill="none" stroke="midnightblue" d="M409.78,-47.24C385.82,-41.78 359.55,-35.79 336.34,-30.51"/>
<polygon fill="midnightblue" stroke="midnightblue" points="409,-50.66 419.53,-49.47 410.56,-43.83 409,-50.66"/>
</g>
<!-- Node4 -->
<g id="node4" class="node">
<title>Node4</title>
<g id="a_node4"><a xlink:href="classpolyfem_1_1mesh_1_1_c_mesh3_d.html#a400bfde4af573c7ecf9c89aad4cfb9c0" target="_top" xlink:title="refine the mesh">
<polygon fill="none" stroke="black" points="0,-73.5 0,-103.5 143,-103.5 143,-73.5 0,-73.5"/>
<text text-anchor="start" x="8" y="-91.5" font-family="Helvetica,sans-Serif" font-size="10.00">polyfem::mesh::CMesh3D</text>
<text text-anchor="middle" x="71.5" y="-80.5" font-family="Helvetica,sans-Serif" font-size="10.00">::refine</text>
</a>
</g>
</g>
<!-- Node3&#45;&gt;Node4 -->
<g id="edge3" class="edge">
<title>Node3&#45;&gt;Node4</title>
<path fill="none" stroke="midnightblue" d="M168.67,-100.77C160.02,-99.66 151.4,-98.56 143.06,-97.5"/>
<polygon fill="midnightblue" stroke="midnightblue" points="168.45,-104.27 178.82,-102.06 169.34,-97.32 168.45,-104.27"/>
</g>
<!-- Node5&#45;&gt;Node4 -->
<g id="edge5" class="edge">
<title>Node5&#45;&gt;Node4</title>
<path fill="none" stroke="midnightblue" d="M168.67,-76.72C160.02,-77.78 151.4,-78.84 143.06,-79.86"/>
<polygon fill="midnightblue" stroke="midnightblue" points="169.32,-80.17 178.82,-75.48 168.47,-73.22 169.32,-80.17"/>
</g>
</g>
</svg>
