<?xml version="1.0" encoding="UTF-8" standalone="no"?>
<!DOCTYPE svg PUBLIC "-//W3C//DTD SVG 1.1//EN"
 "http://www.w3.org/Graphics/SVG/1.1/DTD/svg11.dtd">
<!-- Generated by graphviz version 2.43.0 (0)
 -->
<!-- Title: polyfem::solver::AdjointOptUtils::create_form Pages: 1 -->
<svg width="867pt" height="132pt"
 viewBox="0.00 0.00 867.00 131.50" xmlns="http://www.w3.org/2000/svg" xmlns:xlink="http://www.w3.org/1999/xlink">
<g id="graph0" class="graph" transform="scale(1 1) rotate(0) translate(4 127.5)">
<title>polyfem::solver::AdjointOptUtils::create_form</title>
<!-- Node1 -->
<g id="node1" class="node">
<title>Node1</title>
<g id="a_node1"><a xlink:title=" ">
<polygon fill="#999999" stroke="#666666" points="134,-30 0,-30 0,0 134,0 134,-30"/>
<text text-anchor="start" x="8" y="-18" font-family="Helvetica,sans-Serif" font-size="10.00">polyfem::solver::Adjoint</text>
<text text-anchor="middle" x="67" y="-7" font-family="Helvetica,sans-Serif" font-size="10.00">OptUtils::create_form</text>
</a>
</g>
</g>
<!-- Node1&#45;&gt;Node1 -->
<g id="edge1" class="edge">
<title>Node1&#45;&gt;Node1</title>
<path fill="none" stroke="#63b8ff" d="M33.6,-30.28C26.18,-39.41 37.31,-48 67,-48 84.63,-48 95.71,-44.97 100.26,-40.6"/>
<polygon fill="#63b8ff" stroke="#63b8ff" points="103.76,-40.32 100.4,-30.28 96.76,-40.23 103.76,-40.32"/>
</g>
<!-- Node2 -->
<g id="node2" class="node">
<title>Node2</title>
<g id="a_node2"><a xlink:href="structpolyfem_1_1solver_1_1_adjoint_opt_utils.html#ad26a3a05049ab7ddeb4aadc463ac9e2a" target="_top" xlink:title=" ">
<polygon fill="white" stroke="#666666" points="346,-52 170,-52 170,-22 346,-22 346,-52"/>
<text text-anchor="start" x="178" y="-40" font-family="Helvetica,sans-Serif" font-size="10.00">polyfem::solver::Adjoint</text>
<text text-anchor="middle" x="258" y="-29" font-family="Helvetica,sans-Serif" font-size="10.00">OptUtils::create_parametrization</text>
</a>
</g>
</g>
<!-- Node1&#45;&gt;Node2 -->
<g id="edge2" class="edge">
<title>Node1&#45;&gt;Node2</title>
<path fill="none" stroke="#63b8ff" d="M134.1,-22.69C142.37,-23.66 150.95,-24.66 159.56,-25.66"/>
<polygon fill="#63b8ff" stroke="#63b8ff" points="159.34,-29.16 169.67,-26.84 160.15,-22.2 159.34,-29.16"/>
</g>
<!-- Node5 -->
<g id="node5" class="node">
<title>Node5</title>
<g id="a_node5"><a xlink:href="namespacepolyfem.html#adc7e749e0c40939b7323961c6a41e391" target="_top" xlink:title=" ">
<polygon fill="white" stroke="#666666" points="693,-42 559,-42 559,-12 693,-12 693,-42"/>
<text text-anchor="start" x="567" y="-30" font-family="Helvetica,sans-Serif" font-size="10.00">polyfem::log_and_throw</text>
<text text-anchor="middle" x="626" y="-19" font-family="Helvetica,sans-Serif" font-size="10.00">_error</text>
</a>
</g>
</g>
<!-- Node1&#45;&gt;Node5 -->
<g id="edge11" class="edge">
<title>Node1&#45;&gt;Node5</title>
<path fill="none" stroke="#63b8ff" d="M134.11,-13.51C146.06,-13.3 158.4,-13.11 170,-13 248.22,-12.23 267.8,-11.04 346,-13 414.58,-14.72 492.55,-18.81 548.6,-22.13"/>
<polygon fill="#63b8ff" stroke="#63b8ff" points="548.61,-25.64 558.8,-22.74 549.03,-18.65 548.61,-25.64"/>
</g>
<!-- Node3 -->
<g id="node3" class="node">
<title>Node3</title>
<g id="a_node3"><a xlink:href="namespacepolyfem_1_1mesh.html#abdfeb621cc713f15135b0ab62a7ac6cb" target="_top" xlink:title="Construct an affine transformation .">
<polygon fill="white" stroke="#666666" points="523,-90 382,-90 382,-60 523,-60 523,-90"/>
<text text-anchor="start" x="390" y="-78" font-family="Helvetica,sans-Serif" font-size="10.00">polyfem::mesh::construct</text>
<text text-anchor="middle" x="452.5" y="-67" font-family="Helvetica,sans-Serif" font-size="10.00">_affine_transformation</text>
</a>
</g>
</g>
<!-- Node2&#45;&gt;Node3 -->
<g id="edge3" class="edge">
<title>Node2&#45;&gt;Node3</title>
<path fill="none" stroke="#63b8ff" d="M335.08,-52.02C347.15,-54.4 359.66,-56.87 371.81,-59.27"/>
<polygon fill="#63b8ff" stroke="#63b8ff" points="371.43,-62.76 381.91,-61.26 372.78,-55.89 371.43,-62.76"/>
</g>
<!-- Node2&#45;&gt;Node5 -->
<g id="edge10" class="edge">
<title>Node2&#45;&gt;Node5</title>
<path fill="none" stroke="#63b8ff" d="M346.2,-34.62C407.86,-32.93 489.73,-30.7 548.78,-29.08"/>
<polygon fill="#63b8ff" stroke="#63b8ff" points="548.89,-32.58 558.79,-28.81 548.7,-25.58 548.89,-32.58"/>
</g>
<!-- Node4 -->
<g id="node4" class="node">
<title>Node4</title>
<g id="a_node4"><a xlink:href="namespacepolyfem_1_1utils.html#a9f16cddaaf4c88645ca864f4e99beb19" target="_top" xlink:title=" ">
<polygon fill="white" stroke="#666666" points="859,-105.5 729,-105.5 729,-86.5 859,-86.5 859,-105.5"/>
<text text-anchor="middle" x="794" y="-93.5" font-family="Helvetica,sans-Serif" font-size="10.00">polyfem::utils::deg2rad</text>
</a>
</g>
</g>
<!-- Node3&#45;&gt;Node4 -->
<g id="edge4" class="edge">
<title>Node3&#45;&gt;Node4</title>
<path fill="none" stroke="#63b8ff" d="M508.95,-90.06C524.97,-93.74 542.57,-97.16 559,-99 612.21,-104.98 672.64,-104 718.77,-101.65"/>
<polygon fill="#63b8ff" stroke="#63b8ff" points="719.18,-105.14 728.98,-101.1 718.8,-98.15 719.18,-105.14"/>
</g>
<!-- Node3&#45;&gt;Node5 -->
<g id="edge6" class="edge">
<title>Node3&#45;&gt;Node5</title>
<path fill="none" stroke="#63b8ff" d="M507.29,-59.94C524.53,-55.12 543.78,-49.73 561.64,-44.73"/>
<polygon fill="#63b8ff" stroke="#63b8ff" points="562.71,-48.07 571.4,-42 560.82,-41.33 562.71,-48.07"/>
</g>
<!-- Node7 -->
<g id="node7" class="node">
<title>Node7</title>
<g id="a_node7"><a xlink:href="namespacepolyfem_1_1utils.html#a839770ed1facd0a5f30ef708ddf03b15" target="_top" xlink:title=" ">
<polygon fill="white" stroke="#666666" points="676,-90 576,-90 576,-60 676,-60 676,-90"/>
<text text-anchor="start" x="584" y="-78" font-family="Helvetica,sans-Serif" font-size="10.00">polyfem::utils::to</text>
<text text-anchor="middle" x="626" y="-67" font-family="Helvetica,sans-Serif" font-size="10.00">_rotation_matrix</text>
</a>
</g>
</g>
<!-- Node3&#45;&gt;Node7 -->
<g id="edge8" class="edge">
<title>Node3&#45;&gt;Node7</title>
<path fill="none" stroke="#63b8ff" d="M523.26,-75C537.3,-75 551.93,-75 565.58,-75"/>
<polygon fill="#63b8ff" stroke="#63b8ff" points="565.8,-78.5 575.8,-75 565.8,-71.5 565.8,-78.5"/>
</g>
<!-- Node4&#45;&gt;Node4 -->
<g id="edge5" class="edge">
<title>Node4&#45;&gt;Node4</title>
<path fill="none" stroke="#63b8ff" d="M768.11,-105.58C755.51,-114.23 764.14,-123.5 794,-123.5 814.06,-123.5 824.54,-119.32 825.44,-113.95"/>
<polygon fill="#63b8ff" stroke="#63b8ff" points="828.34,-111.99 819.89,-105.58 822.5,-115.85 828.34,-111.99"/>
</g>
<!-- Node6 -->
<g id="node6" class="node">
<title>Node6</title>
<g id="a_node6"><a xlink:href="namespacepolyfem.html#a03f3d75072d2fd19f70cd886a51d10dd" target="_top" xlink:title="Retrieves the current logger.">
<polygon fill="white" stroke="#666666" points="841,-36.5 747,-36.5 747,-17.5 841,-17.5 841,-36.5"/>
<text text-anchor="middle" x="794" y="-24.5" font-family="Helvetica,sans-Serif" font-size="10.00">polyfem::logger</text>
</a>
</g>
</g>
<!-- Node5&#45;&gt;Node6 -->
<g id="edge7" class="edge">
<title>Node5&#45;&gt;Node6</title>
<path fill="none" stroke="#63b8ff" d="M693.08,-27C707.42,-27 722.46,-27 736.4,-27"/>
<polygon fill="#63b8ff" stroke="#63b8ff" points="736.81,-30.5 746.81,-27 736.81,-23.5 736.81,-30.5"/>
</g>
<!-- Node7&#45;&gt;Node4 -->
<g id="edge9" class="edge">
<title>Node7&#45;&gt;Node4</title>
<path fill="none" stroke="#63b8ff" d="M676.36,-81.24C689.58,-82.92 704.18,-84.76 718.45,-86.57"/>
<polygon fill="#63b8ff" stroke="#63b8ff" points="718.39,-90.09 728.75,-87.87 719.27,-83.14 718.39,-90.09"/>
</g>
</g>
</svg>
