<?xml version="1.0" encoding="UTF-8" standalone="no"?>
<!DOCTYPE svg PUBLIC "-//W3C//DTD SVG 1.1//EN"
 "http://www.w3.org/Graphics/SVG/1.1/DTD/svg11.dtd">
<!-- Generated by graphviz version 2.43.0 (0)
 -->
<!-- Title: polyfem::solver::AdjointOptUtils::create_variable_to_simulation Pages: 1 -->
<svg width="700pt" height="172pt"
 viewBox="0.00 0.00 700.00 172.00" xmlns="http://www.w3.org/2000/svg" xmlns:xlink="http://www.w3.org/1999/xlink">
<g id="graph0" class="graph" transform="scale(1 1) rotate(0) translate(4 168)">
<title>polyfem::solver::AdjointOptUtils::create_variable_to_simulation</title>
<!-- Node1 -->
<g id="Node000001" class="node">
<title>Node1</title>
<g id="a_Node000001"><a xlink:title=" ">
<polygon fill="#999999" stroke="#666666" points="138,-104.5 0,-104.5 0,-63.5 138,-63.5 138,-104.5"/>
<text text-anchor="start" x="8" y="-92.5" font-family="Helvetica,sans-Serif" font-size="10.00">polyfem::solver::Adjoint</text>
<text text-anchor="start" x="8" y="-81.5" font-family="Helvetica,sans-Serif" font-size="10.00">OptUtils::create_variable</text>
<text text-anchor="middle" x="69" y="-70.5" font-family="Helvetica,sans-Serif" font-size="10.00">_to_simulation</text>
</a>
</g>
</g>
<!-- Node2 -->
<g id="Node000002" class="node">
<title>Node2</title>
<g id="a_Node000002"><a xlink:href="structpolyfem_1_1solver_1_1_adjoint_opt_utils.html#ad26a3a05049ab7ddeb4aadc463ac9e2a" target="_top" xlink:title=" ">
<polygon fill="white" stroke="#666666" points="350,-164 174,-164 174,-134 350,-134 350,-164"/>
<text text-anchor="start" x="182" y="-152" font-family="Helvetica,sans-Serif" font-size="10.00">polyfem::solver::Adjoint</text>
<text text-anchor="middle" x="262" y="-141" font-family="Helvetica,sans-Serif" font-size="10.00">OptUtils::create_parametrization</text>
</a>
</g>
</g>
<!-- Node1&#45;&gt;Node2 -->
<g id="edge1_Node000001_Node000002" class="edge">
<title>Node1&#45;&gt;Node2</title>
<g id="a_edge1_Node000001_Node000002"><a xlink:title=" ">
<path fill="none" stroke="#63b8ff" d="M129.08,-104.58C143.75,-109.66 159.44,-115.05 174,-120 184.27,-123.49 195.24,-127.18 205.8,-130.71"/>
<polygon fill="#63b8ff" stroke="#63b8ff" points="204.77,-134.05 215.36,-133.9 206.98,-127.41 204.77,-134.05"/>
</a>
</g>
</g>
<!-- Node3 -->
<g id="Node000003" class="node">
<title>Node3</title>
<g id="a_Node000003"><a xlink:href="namespacepolyfem.html#a8d6eb2c01f97c327e382b6dcda332777" target="_top" xlink:title=" ">
<polygon fill="white" stroke="#666666" points="521.5,-145 387.5,-145 387.5,-115 521.5,-115 521.5,-145"/>
<text text-anchor="start" x="395.5" y="-133" font-family="Helvetica,sans-Serif" font-size="10.00">polyfem::log_and_throw</text>
<text text-anchor="middle" x="454.5" y="-122" font-family="Helvetica,sans-Serif" font-size="10.00">_adjoint_error</text>
</a>
</g>
</g>
<!-- Node1&#45;&gt;Node3 -->
<g id="edge5_Node000001_Node000003" class="edge">
<title>Node1&#45;&gt;Node3</title>
<g id="a_edge5_Node000001_Node000003"><a xlink:title=" ">
<path fill="none" stroke="#63b8ff" d="M138.12,-92.17C205.2,-100.22 307.48,-112.49 377.25,-120.85"/>
<polygon fill="#63b8ff" stroke="#63b8ff" points="376.95,-124.34 387.3,-122.06 377.78,-117.39 376.95,-124.34"/>
</a>
</g>
</g>
<!-- Node5 -->
<g id="Node000005" class="node">
<title>Node5</title>
<g id="a_Node000005"><a xlink:href="classpolyfem_1_1solver_1_1_variable_to_nodes.html#ae15bab3f37b1b8f893f4c2b49b1ef9e6" target="_top" xlink:title=" ">
<polygon fill="white" stroke="#666666" points="344,-78 180,-78 180,-48 344,-48 344,-78"/>
<text text-anchor="start" x="188" y="-66" font-family="Helvetica,sans-Serif" font-size="10.00">polyfem::solver::Variable</text>
<text text-anchor="middle" x="262" y="-55" font-family="Helvetica,sans-Serif" font-size="10.00">ToNodes::get_output_indexing</text>
</a>
</g>
</g>
<!-- Node1&#45;&gt;Node5 -->
<g id="edge4_Node000001_Node000005" class="edge">
<title>Node1&#45;&gt;Node5</title>
<g id="a_edge4_Node000001_Node000005"><a xlink:title=" ">
<path fill="none" stroke="#63b8ff" d="M138.15,-76.51C148.38,-75.38 159.06,-74.21 169.68,-73.04"/>
<polygon fill="#63b8ff" stroke="#63b8ff" points="170.26,-76.5 179.82,-71.93 169.5,-69.54 170.26,-76.5"/>
</a>
</g>
</g>
<!-- Node6 -->
<g id="Node000006" class="node">
<title>Node6</title>
<g id="a_Node000006"><a xlink:href="namespacepolyfem_1_1io.html#a37878272b4408db3e9e1d7a9efd1ae09" target="_top" xlink:title="Reads a matrix from a file. Determines the file format based on the path&#39;s extension.">
<polygon fill="white" stroke="#666666" points="330.5,-29.5 193.5,-29.5 193.5,-10.5 330.5,-10.5 330.5,-29.5"/>
<text text-anchor="middle" x="262" y="-17.5" font-family="Helvetica,sans-Serif" font-size="10.00">polyfem::io::read_matrix</text>
</a>
</g>
</g>
<!-- Node1&#45;&gt;Node6 -->
<g id="edge6_Node000001_Node000006" class="edge">
<title>Node1&#45;&gt;Node6</title>
<g id="a_edge6_Node000001_Node000006"><a xlink:title=" ">
<path fill="none" stroke="#63b8ff" d="M112.29,-63.49C130.9,-55.05 153.21,-45.7 174,-39 182.23,-36.35 191.02,-33.95 199.73,-31.81"/>
<polygon fill="#63b8ff" stroke="#63b8ff" points="200.56,-35.22 209.5,-29.52 198.96,-28.4 200.56,-35.22"/>
</a>
</g>
</g>
<!-- Node2&#45;&gt;Node3 -->
<g id="edge2_Node000002_Node000003" class="edge">
<title>Node2&#45;&gt;Node3</title>
<g id="a_edge2_Node000002_Node000003"><a xlink:title=" ">
<path fill="none" stroke="#63b8ff" d="M350.17,-140.31C359.28,-139.4 368.49,-138.48 377.46,-137.58"/>
<polygon fill="#63b8ff" stroke="#63b8ff" points="377.87,-141.06 387.47,-136.59 377.18,-134.1 377.87,-141.06"/>
</a>
</g>
</g>
<!-- Node4 -->
<g id="Node000004" class="node">
<title>Node4</title>
<g id="a_Node000004"><a xlink:href="namespacepolyfem.html#a4d64be939c7759c782fff98ed87f3399" target="_top" xlink:title="Retrieves the current logger for adjoint.">
<polygon fill="white" stroke="#666666" points="692,-139.5 559,-139.5 559,-120.5 692,-120.5 692,-139.5"/>
<text text-anchor="middle" x="625.5" y="-127.5" font-family="Helvetica,sans-Serif" font-size="10.00">polyfem::adjoint_logger</text>
</a>
</g>
</g>
<!-- Node3&#45;&gt;Node4 -->
<g id="edge3_Node000003_Node000004" class="edge">
<title>Node3&#45;&gt;Node4</title>
<g id="a_edge3_Node000003_Node000004"><a xlink:title=" ">
<path fill="none" stroke="#63b8ff" d="M521.81,-130C530.68,-130 539.83,-130 548.84,-130"/>
<polygon fill="#63b8ff" stroke="#63b8ff" points="548.94,-133.5 558.94,-130 548.94,-126.5 548.94,-133.5"/>
</a>
</g>
</g>
<!-- Node7 -->
<g id="Node000007" class="node">
<title>Node7</title>
<g id="a_Node000007"><a xlink:href="namespacepolyfem_1_1io.html#a9b84370fb8325fed647d02c0cf45b207" target="_top" xlink:title=" ">
<polygon fill="white" stroke="#666666" points="523,-78 386,-78 386,-48 523,-48 523,-78"/>
<text text-anchor="start" x="394" y="-66" font-family="Helvetica,sans-Serif" font-size="10.00">polyfem::io::read_matrix</text>
<text text-anchor="middle" x="454.5" y="-55" font-family="Helvetica,sans-Serif" font-size="10.00">_ascii</text>
</a>
</g>
</g>
<!-- Node6&#45;&gt;Node7 -->
<g id="edge7_Node000006_Node000007" class="edge">
<title>Node6&#45;&gt;Node7</title>
<g id="a_edge7_Node000006_Node000007"><a xlink:title=" ">
<path fill="none" stroke="#63b8ff" d="M307.28,-29.56C320.99,-32.54 336.12,-35.88 350,-39 359.51,-41.14 369.51,-43.42 379.39,-45.69"/>
<polygon fill="#63b8ff" stroke="#63b8ff" points="378.68,-49.12 389.21,-47.96 380.25,-42.3 378.68,-49.12"/>
</a>
</g>
</g>
<!-- Node9 -->
<g id="Node000009" class="node">
<title>Node9</title>
<g id="a_Node000009"><a xlink:href="namespacepolyfem_1_1io.html#a3902e7a61e7b7af5da5c629e92af9008" target="_top" xlink:title=" ">
<polygon fill="white" stroke="#666666" points="523,-30 386,-30 386,0 523,0 523,-30"/>
<text text-anchor="start" x="394" y="-18" font-family="Helvetica,sans-Serif" font-size="10.00">polyfem::io::read_matrix</text>
<text text-anchor="middle" x="454.5" y="-7" font-family="Helvetica,sans-Serif" font-size="10.00">_binary</text>
</a>
</g>
</g>
<!-- Node6&#45;&gt;Node9 -->
<g id="edge9_Node000006_Node000009" class="edge">
<title>Node6&#45;&gt;Node9</title>
<g id="a_edge9_Node000006_Node000009"><a xlink:title=" ">
<path fill="none" stroke="#63b8ff" d="M330.7,-18.22C345.21,-17.84 360.65,-17.44 375.52,-17.05"/>
<polygon fill="#63b8ff" stroke="#63b8ff" points="375.79,-20.54 385.7,-16.78 375.61,-13.54 375.79,-20.54"/>
</a>
</g>
</g>
<!-- Node8 -->
<g id="Node000008" class="node">
<title>Node8</title>
<g id="a_Node000008"><a xlink:href="namespacepolyfem.html#a03f3d75072d2fd19f70cd886a51d10dd" target="_top" xlink:title="Retrieves the current logger.">
<polygon fill="white" stroke="#666666" points="672.5,-48.5 578.5,-48.5 578.5,-29.5 672.5,-29.5 672.5,-48.5"/>
<text text-anchor="middle" x="625.5" y="-36.5" font-family="Helvetica,sans-Serif" font-size="10.00">polyfem::logger</text>
</a>
</g>
</g>
<!-- Node7&#45;&gt;Node8 -->
<g id="edge8_Node000007_Node000008" class="edge">
<title>Node7&#45;&gt;Node8</title>
<g id="a_edge8_Node000007_Node000008"><a xlink:title=" ">
<path fill="none" stroke="#63b8ff" d="M523.26,-53.38C538.12,-51.27 553.69,-49.06 568.04,-47.02"/>
<polygon fill="#63b8ff" stroke="#63b8ff" points="568.84,-50.44 578.25,-45.57 567.86,-43.51 568.84,-50.44"/>
</a>
</g>
</g>
<!-- Node9&#45;&gt;Node8 -->
<g id="edge10_Node000009_Node000008" class="edge">
<title>Node9&#45;&gt;Node8</title>
<g id="a_edge10_Node000009_Node000008"><a xlink:title=" ">
<path fill="none" stroke="#63b8ff" d="M523.26,-24.62C538.12,-26.73 553.69,-28.94 568.04,-30.98"/>
<polygon fill="#63b8ff" stroke="#63b8ff" points="567.86,-34.49 578.25,-32.43 568.84,-27.56 567.86,-34.49"/>
</a>
</g>
</g>
</g>
</svg>
