# Blender 4.2.0
# www.blender.org
mtllib plane_extruded.mtl
o plane
v -5.000000 0.000000 5.000000
v 5.000000 0.000000 5.000000
v -5.000000 -0.000000 -5.000000
v 5.000000 -0.000000 -5.000000
v -5.000000 -1.329868 5.000000
v 5.000000 -1.329868 5.000000
v -5.000000 -1.329868 -5.000000
v 5.000000 -1.329868 -5.000000
vn -0.0000 -1.0000 -0.0000
vn -0.0000 1.0000 -0.0000
vn -0.0000 -0.0000 1.0000
vn 1.0000 -0.0000 -0.0000
vn -0.0000 -0.0000 -1.0000
vn -1.0000 -0.0000 -0.0000
s 0
f 2//1 1//1 3//1
f 2//1 3//1 4//1
f 6//2 7//2 5//2
f 6//2 8//2 7//2
f 3//3 8//3 4//3
f 1//4 7//4 3//4
f 2//5 5//5 1//5
f 4//6 6//6 2//6
f 3//3 7//3 8//3
f 1//4 5//4 7//4
f 2//5 6//5 5//5
f 4//6 8//6 6//6
